<svg enable-background="new 0 0 64 64" viewBox="0 0 64 64" xmlns="http://www.w3.org/2000/svg"><path d="m0 0h64v64h-64z" fill="none"/><path d="m28 4.8 8.2 10.2h16.8l-8-13h-35l-7 13h16.8z"/><path d="m24.33 49.016c-1.426-1.942-1.102-3.997-.33-5.565v-8.451h5.104c-.002-.086-.012-.162-.012-.25 0-.617.011-2.258.974-3.75h-6.066v-10h8v2.212c1.417-1.98 3.678-2.783 6.838-3.367.629-.581 1.564-.931 2.662-.931 1.106 0 2.048.355 2.677.945 2.513.491 4.436 1.091 5.823 2.263v-5.122h-14.8l-7.2-9-7.2 9h-14.8v36h17.548c.097-.284.197-.563.302-.83.006-.016.013-.032.02-.049.394-.931.792-1.641 1.241-2.217-.29-.266-.551-.563-.781-.888zm3.67-35.516c1.4 0 2.5 1.1 2.5 2.5s-1.1 2.5-2.5 2.5-2.5-1.1-2.5-2.5 1.1-2.5 2.5-2.5zm-9 31.5h-8v-10h8zm0-14h-8v-10h8z"/><path d="m57.104 52.979c-.729-1.896-1.458-2.479-3.208-3.354l-.51-1.094c-.146-.365-.438-.583-.802-.729l-4.958-1.604c-.073-.802-.146-1.677-.219-2.042 1.531-1.75 2.479-3.573 2.771-5.396.948-.875 1.531-2.333 1.531-4.083 0-.583 0-2.188-1.094-3.135 0-7.948-2.042-8.677-7.802-9.698v-.073c0-.365-.583-.656-1.312-.656s-1.313.292-1.313.656v.073c-5.76.948-7.802 1.75-7.802 9.698v.073c-1.094 1.021-1.094 2.552-1.094 3.135 0 1.75.51 3.135 1.531 4.01.073.292.146.583.219.875-1.604-.146-3.281.875-3.573 3.062-.438 2.917-1.823 1.896-1.823 1.896-.292-.219-.584-.729-.656-1.604 0 0-2.552 2.479-.875 4.74.51.729 1.24 1.167 1.969 1.385l.51-1.167c.292-.656.875-1.24 1.604-1.312 1.312-.219 3.792-.365 4.01-.365s.292.147.292.22l-4.01 1.312c-.365.146-.656.365-.802.729l-.583 1.094c-1.75.875-2.406 1.458-3.208 3.354-1.241 3.136-1.897 8.021-1.897 8.021h35s-.656-4.885-1.896-8.021zm-2.406 0c.219.365.438.875.583 1.458h-12.781v-1.458zm-15.167-25.375.875-.583c0-1.167 1.312-1.24.802-2.115 0 0 .729.146.656.948 0 0 .656.219.438 1.021l1.094.729v.729l-1.896 1.677-1.969-1.677zm.969 31.208h-13.948c.219-1.021.438-2.042.656-2.917h13.292zm0-4.374h-12.781c.219-.583.438-1.094.583-1.458h12.198zm-3.083-6.928.51-4.083c-.656-.583-1.24-1.312-1.75-2.042-.802-1.167-1.312-2.479-1.312-3.938-1.167-.292-1.385-1.75-1.385-2.698 0-.365 0-.656.073-.875.219.219.51.365.802.51 1.385.438 2.406-1.458 7.073-1.458s5.688 1.896 7.073 1.458c.365-.073.656-.292.875-.51.146.219.146.51.146.875 0 .948-.219 2.406-1.385 2.771 0 1.385-.51 2.698-1.24 3.792-.729 1.094-1.677 2.042-2.625 2.917-1.021.802-3.427.948-4.812.365.292.583.948 1.312 2.26 1.677 2.26.583 3.646-.438 3.719-.51.146 1.75.146 1.75.219 1.896l-4.156 2.99zm5.083 11.302v-2.917h13.219c.219.875.51 1.896.656 2.917z"/></svg>