<svg height="64" viewBox="0 0 64 64" width="64" xmlns="http://www.w3.org/2000/svg"><path d="m0 0h64v64h-64z" fill="none"/><path d="m48 31.9999c-8.8366 0-16 7.1627-16 16.0001 0 8.8372 7.1634 16 16 16 8.8372 0 16-7.1628 16-16 0-8.8373-7.1628-16.0001-16-16.0001zm0 28.1589c-6.7044 0-12.1588-5.4544-12.1588-12.1588s5.4544-12.1588 12.1588-12.1588 12.1588 5.4544 12.1588 12.1588c0 6.7043-5.4544 12.1588-12.1588 12.1588z"/><path d="m55.6055 47.8398h.0241l-7.1383-.7064-.5579-7.8053c-.0625-.5538-.4487-.9577-1.0001-.9577s-.9584.3587-.999.9577l-.6677 9.1878c0 .8604.6579 1.5677 1.4974 1.6533.0498.0283 8.8414-.6276 8.8414-.6276.5779-.056 1.0001-.2997 1.0001-.8513 0-.5507-.385-.8088-1-.8505z"/><path d="m16.0428 18.9769-4.0428 4.5231v13.5h-8v10.4042c1.5981.0364 3.5347-.9662 4.1572-1.3549l2.0029-1.2881 2.0195 1.2988c.5928.3711 2.5078 1.3574 4.0488 1.3574.5444 0 1.1365-.1273 1.7025-.3047v-5.0862l25.7941-14.8922-2.6896-4.6586-4.2769 2.4693v-19.9136l2.7802-1.7867c.7924-.5125 1.041-1.5579.564-2.3722-.4742-.8097-1.4994-1.1063-2.3326-.6748l-37.2459 19.3331c-.3767.1953-.5649.628-.4509 1.0367l1.5768 5.6534c.1624.5821.8422.8401 1.3499.5124l13.0548-8.3763c.043.0323.281.2729-.012.6199zm1.8882-1.8457 16.138-10.3713v19.738l-16.138 9.3172z"/><path d="m28.3666 49.4177c-2.4714 0-5.1078-1.6603-5.1316-1.6755l-.9373-.6028-.9372.6028c-.0263.017-2.6755 1.6755-5.1316 1.6755-2.4714 0-5.1078-1.6603-5.1316-1.6755l-.9372-.6028-.9371.6027c-.0262.017-2.6754 1.6755-5.1316 1.6755-.0304 0-.0609-.0031-.0914-.0037v3.3641c.0305.0007.0608.0034.0914.0034 2.4367 0 4.8047-1.0329 6.0688-1.6924 1.264.6595 3.6321 1.6924 6.0688 1.6924s4.8047-1.0329 6.0688-1.6924c1.2641.6595 3.6321 1.6924 6.0688 1.6924.4182 0 .8315-.0389 1.2404-.0927-.2729-1.0732-.4563-2.1797-.5378-3.3172-.2344.0272-.4692.0462-.7026.0462z"/></svg>