<svg height="64" viewBox="0 0 64 64" width="64" xmlns="http://www.w3.org/2000/svg"><path d="m0 0h64v64h-64z" fill="none"/><path d="m58.583 50.4746-24.207-41c-.5391-.9141-1.5215-1.4746-2.583-1.4746-.0039 0-.0078 0-.0117 0-1.0655.0039-2.0479.5732-2.5831 1.4941l-23.7929 41c-.5381.9278-.5401 2.0733-.0049 3.0031.5351.9296 1.5264 1.5028 2.5996 1.5028h48c1.0771 0 2.0713-.5771 2.6055-1.5127.5341-.9355.5254-2.085-.0225-3.0127zm-45.373-1.4746 18.6054-32.0615 18.9297 32.0615z"/><path d="m22 37h1v2h2v-2h14v2h2v-2h1v-2c-7.2372 0-12.7628 0-20 0z"/><path d="m31 29h-1.6226l-1.7715 5h3.1163z"/><path d="m36.3941 34-1.7715-5h-1.6226l.2778 5z"/><path d="m23 47h7l.5-9h-4.3113z"/><path d="m33.5 38 .5 9h7l-3.1887-9z"/></svg>