<svg height="64" viewBox="0 0 64 64" width="64" xmlns="http://www.w3.org/2000/svg"><path d="m0 0h64v64h-64z" fill="none"/><path d="m14 17.4353v-7.4353-3.9848c.0562-.0209.2623-.0673.3641.2499l.7433 3.7349h32.8926c.5523 0 1-.4477 1-1v-4c0-.5523-.4477-1-1-1-12.3462 0-21.8092 0-34 0 0-.5523-.4477-1-1-1h-7c-.5523 0-1 .4477-1 1v18h9zm29-12.4353h4l-2 4h-4zm-8 0h4l-2 4h-4zm-8 0h4l-2 4h-4zm-8 0h4l-2 4h-4zm-9.5 4c-1.1046 0-2-.8954-2-2s.8954-2 2-2 2 .8954 2 2-.8954 2-2 2z"/><path d="m44.0862 12h-10.0862l.5 6h-4l.5-6h-10.0862l-15.9138 48h22l1-12h9l1 12h22zm-15.1696 25 1.0001-12h5.1666l1.0001 12z"/></svg>