<svg width="28" height="28" viewBox="0 0 28 28" fill="none" xmlns="http://www.w3.org/2000/svg">
<circle cx="13.75" cy="14" r="12" fill="white" stroke="#007BC7" stroke-width="3"/>
<g clip-path="url(#clip0_2563_18986)">
<path d="M18.67 8.26241C18.2936 7.98441 17.7689 8.03807 17.4577 8.38607L12.1641 14.3086L8.98184 11.5521C8.64524 11.2611 8.1485 11.2571 7.8093 11.543C7.46877 11.8285 7.38677 12.3187 7.61464 12.6995L11.4694 19.1328C11.6322 19.4043 11.9252 19.5709 12.2416 19.5719C12.2429 19.5719 12.2435 19.5719 12.2448 19.5719C12.5599 19.5719 12.8529 19.4075 13.017 19.1377L18.9037 9.45767C19.1465 9.05861 19.045 8.54034 18.67 8.26241Z" fill="#007BC7"/>
</g>
<defs>
<clipPath id="clip0_2563_18986">
<rect width="12" height="12" fill="white" transform="translate(7.25 7.875)"/>
</clipPath>
</defs>
</svg>
