<svg version="1.2" xmlns="http://www.w3.org/2000/svg" viewBox="0 0 28 28" width="28" height="28">
    <style>
        .a {
            fill: #fff;
            stroke: #007bc7;
            stroke-width: 3
        }

        .b {
            fill: #007bc7
        }
    </style>
    <path class="a" d="m13.8 26c-6.7 0-12.1-5.4-12.1-12 0-6.6 5.4-12 12-12 6.7 0 12 5.4 12 12 0 6.6-5.3 12-12 12z" />
    <path class="b"
        d="m18.9 9.5l-5.9 9.6c-0.1 0.3-0.4 0.5-0.8 0.5q0 0 0 0c-0.3 0-0.6-0.2-0.7-0.5l-3.9-6.4c-0.2-0.4-0.1-0.9 0.2-1.2 0.3-0.2 0.8-0.2 1.2 0.1l3.2 2.7 5.3-5.9c0.3-0.4 0.8-0.4 1.2-0.1 0.3 0.2 0.4 0.8 0.2 1.2z" />
</svg>