<svg width="21" height="21" viewBox="0 0 21 21" fill="none" xmlns="http://www.w3.org/2000/svg">
<mask id="path-1-inside-1_2567_18994" fill="white">
<path d="M21 10.5C21 16.299 16.299 21 10.5 21C4.70101 21 0 16.299 0 10.5C0 4.70101 4.70101 0 10.5 0C16.299 0 21 4.70101 21 10.5Z"/>
</mask>
<path d="M21 10.5C21 16.299 16.299 21 10.5 21C4.70101 21 0 16.299 0 10.5C0 4.70101 4.70101 0 10.5 0C16.299 0 21 4.70101 21 10.5Z" fill="white"/>
<path d="M18 10.5C18 14.6421 14.6421 18 10.5 18V24C17.9558 24 24 17.9558 24 10.5H18ZM10.5 18C6.35786 18 3 14.6421 3 10.5H-3C-3 17.9558 3.04416 24 10.5 24V18ZM3 10.5C3 6.35786 6.35786 3 10.5 3V-3C3.04416 -3 -3 3.04416 -3 10.5H3ZM10.5 3C14.6421 3 18 6.35786 18 10.5H24C24 3.04416 17.9558 -3 10.5 -3V3Z" fill="#007BC7" mask="url(#path-1-inside-1_2567_18994)"/>
<path d="M16 10.5C16 13.5376 13.5376 16 10.5 16C7.46243 16 5 13.5376 5 10.5C5 7.46243 7.46243 5 10.5 5C13.5376 5 16 7.46243 16 10.5Z" fill="#007BC7"/>
</svg>
