<svg width="19" height="19" viewBox="0 0 19 19" fill="none" xmlns="http://www.w3.org/2000/svg">
<circle cx="9.5" cy="9.5" r="8" fill="white" stroke="#007BC7" stroke-width="3"/>
<g clip-path="url(#clip0_2567_18998)">
<path d="M13.565 5.66555C13.2827 5.45705 12.8892 5.4973 12.6558 5.7583L8.68558 10.2002L6.29888 8.1328C6.04643 7.91455 5.67388 7.9116 5.41948 8.126C5.16408 8.3401 5.10258 8.70775 5.27348 8.9934L8.16458 13.8184C8.28663 14.022 8.50638 14.147 8.74368 14.1477C8.74468 14.1477 8.74513 14.1477 8.74613 14.1477C8.98243 14.1477 9.20218 14.0244 9.32523 13.822L13.7403 6.562C13.9224 6.2627 13.8462 5.874 13.565 5.66555Z" fill="#007BC7"/>
</g>
<defs>
<clipPath id="clip0_2567_18998">
<rect width="9" height="9" fill="white" transform="translate(5 5.375)"/>
</clipPath>
</defs>
</svg>
