<svg height="64" viewBox="0 0 64 64" width="64" xmlns="http://www.w3.org/2000/svg"><path d="m0 0h64v64h-64z" fill="none"/><path d="m55 7h-46c-1.1045 0-2 .8955-2 2v34.99c0 1.1045.8955 2 2 2h16.5s-.5342 1.9412-1.5 5.01c-.5779 1.8373-2.3791 1.992-2.8691 2h-2.1309c-.5527 0-1 .4478-1 1v2h28v-2c0-.5522-.4473-1-1-1h-2.1309c-.49-.008-2.2912-.1627-2.8691-2-.3881-1.233-.7027-2.2706-.9447-3.0848 0 0-4.4024-.6397-8.9772-1.5323-.3203-.0625-.2812-.2969-.2443-.3828h25.1662c1.1045 0 2-.8955 2-2v-35.0001c0-1.1045-.8955-2-2-2zm-3 32h-40v-27h40z"/><path d="m33.4844 28.1413 3.8641 2.4973 1.5019-2.3223-3.7205-2.4044 2.7635-1.8055-11.8762-2.9083 6.4436 9.7618z"/></svg>