<svg enable-background="new 0 0 64 64" viewBox="0 0 64 64" xmlns="http://www.w3.org/2000/svg"><path d="m0 0h64v64h-64z" fill="none"/><path d="m32.1 26c-12 0-14.6-4.7-14.8-5.4-.1-.3-.1-.4 0-.4 3.4 2.3 8.5 3.8 14.3 3.8 7.8 0 14.3-2.6 17.1-6.4.6-.9.6-2 0-2.9-2.7-4-9.3-6.7-17.2-6.7-10.3 0-18.5 4.6-18.5 10.4v5c0 1.1.3 2.1.8 3.1-.5.9-.8 1.9-.8 3v5c0 1 .3 2.1.8 3-.5.9-.8 1.9-.8 3v5c0 5.9 8.1 10.5 18.5 10.5s18.5-4.6 18.5-10.5v-5c0-.2 0-.4-.1-.7-1.3 1.6-6.4 7.3-17.9 7.3-12 0-14.6-4.7-14.8-5.4-.1-.3-.1-.4 0-.4 3.4 2.3 8.5 3.8 14.3 3.8 10.4-.1 18.5-4.7 18.5-10.6v-5c0-.2 0-.4-.1-.7-1.3 1.6-6.4 7.3-17.9 7.3-12 0-14.6-4.7-14.8-5.4-.1-.3-.1-.4 0-.4 3.4 2.3 8.5 3.8 14.3 3.8 10.4-.1 18.5-4.7 18.5-10.6 0-.8 0-3.6 0-4.8-1.3 1.7-6.5 7.3-17.9 7.3z"/></svg>