<svg enable-background="new 0 0 64 64" viewBox="0 0 64 64" xmlns="http://www.w3.org/2000/svg"><path d="m0 0h64v64h-64z" fill="none"/><path d="m22.436 41.968c-.34-1.166-1.409-1.968-2.624-1.968h-17.769c-1.033 0-1.776.991-1.487 1.983l5.264 18.049c.34 1.166 1.409 1.968 2.624 1.968h29.833c2.516 0 4.723-1.484 4.723-4h-15.883z"/><path d="m59.907 62s-1.417-15.67-4.106-18.594c-2.044-2.222-7.92-4.208-10.656-5.038-.145-1.044-.338-2.257-.511-3.265 1.674-2.028 2.702-4.125 3.041-6.27 1.243-1.141 1.935-2.964 1.935-5.201 0-.697.001-2.53-1.148-3.778.216-2.376.381-5.74-.089-8.073v-.086l10.047-3.889c.323-.125.309-.586-.02-.692l-21.323-5.878c-.293-.095-.609-.095-.902 0l-21.323 5.879c-.329.106-.342.567-.02.692l3.174 1.228v4.577c-.448.403-.734.981-.734 1.631 0 .561.217 1.068.562 1.457-1.052 1.653-2.346 4.439-2.419 5.712-.086 1.512 1.857 2.143 2.807 2.315.95.173 3.196.06 3.412-1.797.168-1.445-.421-4.651-.691-6.005v-.051c.448-.403.734-.981.734-1.631s-.287-1.228-.734-1.631v-3.44l.391.151v-.001l8.519 3.303c0 .063-.033.284-.384.264l-4.89-.779c-.325 2.17-.236 4.842-.08 6.82-1.085 1.247-1.089 3.019-1.089 3.702 0 2.233.69 4.052 1.929 5.194.357 2.351 1.51 4.599 3.473 6.797-.099.755-.214 1.638-.33 2.556-.375.11-3.15.909-5.092 1.482.433.501.775 1.086.968 1.747l4.258 14.592h3.026c.103-1.713 2.434-3.085 5.314-3.085s5.211 1.372 5.314 3.085h.73c1.104 0 2 .895 2 2 0 1.567-.612 2.953-1.638 4zm-19.918-26.479c-.731.622-2.106 1.036-3.481 1.035-.995-.001-1.989-.268-2.74-.594.575.871 1.549 1.941 3.355 2.419 2.953.781 5.11-.855 5.11-.855s.265 1.791.257 2.261c.306 3.265-5.625 6.047-5.625 6.047s-6.169-2.727-5.764-5.995c.222-1.79.038-.514.771-5.089-2.131-2.059-3.841-4.555-3.841-7.544-1.514-.471-1.911-2.382-1.911-3.574 0-1.191.301-1.835.724-2.035.367-.173.723-.045.948.083.132.611.236 1.065.274 1.226.193.797.961.723.961.723v-3.859c2.049.762 4.698 1.224 7.598 1.224 2.796 0 5.36-.429 7.377-1.142v3.777s.762.073.955-.723c.039-.16.137-.615.27-1.226.225-.128.58-.255.947-.083.423.2.724.844.724 2.035s-.397 3.102-1.911 3.574c0 3.465-2.371 6.079-4.998 8.315z"/></svg>