<svg height="64" viewBox="0 0 64 64" width="64" xmlns="http://www.w3.org/2000/svg"><path d="m0 0h64v64h-64z" fill="none"/><path d="m8 40v-32h22v18.6046c1.0677 1.371 2.2314 2.8666 3.3555 4.3202.1913-.1871.4109-.3627.6445-.5317 0-8.1873 0-16.3746 0-24.562 0-1.8656-1.4412-3.7034-3.4178-3.9973-7.6814-1.1118-15.4077-1.1118-23.0891 0-1.9764.2939-3.4931 2.1318-3.4931 3.9974v40.3376c.0001 1.8657 1.5921 3.7034 3.5685 3.9974 6.5721.9513 13.1221 1.0818 19.6878.4053.0536-1.8004.644-3.4266 1.1021-4.6793l.3857-1.0625c-1.0264-1.6333-2.0426-3.2592-3.0203-4.8296h-17.7238zm11 8.15c-1.4636 0-2.65-1.1865-2.65-2.65s1.1865-2.65 2.65-2.65 2.65 1.1865 2.65 2.65-1.1864 2.65-2.65 2.65z"/><path d="m58.2451 38.1224c-1.3599-2.1854-4.2906-6.8655-6.8231-8.9147-2.3702-1.9179-4.8792-1.0824-5.649.5135-.8384-.5049-2.5231-1.1188-4.2269-.2834-1.7394.8529-1.7836 2.786-1.7836 2.786-.0798-.0114-2.0401-1.5165-4.2062-.2325-1.5283.9059-1.7865 2.6115-1.8272 3.025-3.6194-4.7289-8.9362-11.4871-9.5586-12.3345-.8812-1.1998-2.4965-1.5816-3.7605-.7953l-.0057.0036c-1.2648.7867-1.7004 2.4418-.9473 3.7268.531.906 9.0419 14.8444 15.7293 25.2601-.0351.0468-.1796.1933-.4301-.0132-.7714-.636-3.7139-3.976-4.2189-4.5247-.7146 1.9705-1.8227 4.6454-.3802 7.2598 3.0751 5.5731 10.3666 5.1652 16.3223 9.447l16.3989-10.529c-4.1829-6.5153.89-5.5184-4.6332-14.3945z"/><path d="m19.793 17.4814c.9229.2749 2.0352.3813 3.0127.4595 1.3467.1172 2.8018.1519 3.3682-.4883.2139-.2417.2812-.5518.2021-.9229-.1182-.5513-.4873-.8506-1.0176-.811-2.7228.1854-4.7318-.5651-6.9912-1.7109-.4835 1.4268-.8248 2.7252-2.0293 3.7095-1.2539.7964-1.2852.8018-2.959 1.0737-.5035.082-.6035.0981-1.0898.1807.5415 2.4661.4774 5.0143.0195 7.1538-.1025.478.1143.9072.5791 1.1484.2759.143.575.1744.8564.0303.6006-.3081 1.0225-1.3589 1.29-3.209.1602-1.0337.2998-2.1113.248-3.0342 1.1641-.3149 1.8613-.7163 2.6582-1.2974.7492-.6059 1.3409-1.3344 1.8527-2.2822z"/></svg>