<svg height="64" viewBox="0 0 64 64" width="64" xmlns="http://www.w3.org/2000/svg"><path d="m0 0h64v64h-64z" fill="none"/><path d="m52.23 44.7586c-2.7688.9518-6.3674 2.413-9.2219 3.6127.0737.4328.0837.8923.012 1.3787-.4146 2.8079-2.8201 4.5833-6.2402 4.7416-7.7328.3578-12.5348-1.5577-13.5314-1.9618-.2863-.1161-.318-.2576-.2924-.3882.0015-.0012.0112-.0091.0112-.0091 5.5945.9645 9.1205 1.1222 13.4634.4237 3.2949-.53 4.489-2.106 4.4612-3.4058-.027-1.2701-.9266-2.0373-2.9519-2.1077-6.8901-.2395-10.9187-1.0081-16.8242-1.8688-4.1041-.5981-8.0618.4671-11.4326 2.6266-3.1633 2.0265-4.0403 2.9852-4.0403 2.9852l5.7858 11.1429 7.4819-3.0415c.8527-.3466 1.7843-.4511 2.6925-.3021l10.2607 2.283c2.2893.3757 4.6379-.0563 6.6438-1.2219l20.4795-12.8461s-1.0043-4.019-6.7571-2.0414z"/><path d="m30.3023 40.688c.2011.7725.8991 1.312 1.6977 1.312s1.4966-.5395 1.6977-1.312c1.5126-5.8182 3.9417-9.9915 6.085-13.3096 2.2062-3.4161 4.1113-6.3663 4.1113-10.3148 0-6.785-5.1134-11.9012-11.894-11.9012s-11.894 5.1163-11.894 11.9012c0 3.9484 1.9051 6.8986 4.1113 10.3148 2.1434 3.3181 4.5724 7.4915 6.085 13.3096zm1.6977-30.828c3.9433 0 7.14 3.1967 7.14 7.14s-3.1967 7.14-7.14 7.14-7.14-3.1967-7.14-7.14c0-3.9434 3.1967-7.14 7.14-7.14z"/><circle cx="32" cy="17" r="4"/></svg>