<svg height="64" viewBox="0 0 64 64" width="64" xmlns="http://www.w3.org/2000/svg"><path d="m0 0h64v64h-64z" fill="none"/><path d="m9.0441 41.79c0-2.2349 1.2085-4.3062 3.1538-5.4058l15.5779-8.8301c2.6055-1.4721 4.2242-4.246 4.2242-7.2387 0-4.5849-3.7305-8.3154-8.3154-8.3154h-7.9892c-.8245-2.3289-3.0399-4-5.6512-4-3.3137 0-6 2.6863-6 6s2.6863 6 6 6c2.6113 0 4.8267-1.6711 5.6512-4h7.9892c2.3794 0 4.3154 1.936 4.3154 4.3154 0 1.5532-.8398 2.9922-2.1924 3.7563l-15.5779 8.8301c-3.1988 1.8082-5.1856 5.2139-5.1856 8.8882 0 5.6299 4.5801 10.21 10.21 10.21h17.7459v-4h-17.7459c-3.4243 0-6.21-2.7856-6.21-6.21zm.9559-24.79c-1.6569 0-3-1.3431-3-3s1.3431-3 3-3 3 1.3431 3 3-1.3431 3-3 3z"/><path d="m60.74 33.4208-22.7401-8.3701v-1.1729c0-.4094-.6715-.8779-1.5-.8779-.8283.0001-1.4999.4686-1.4999.878v33.1221h3v-15.9848c.0562-.0209.2623-.0673.3641.2499l1.1566 5.8116 21.3125-12.0551c.5828-.334.5225-1.3711-.0932-1.6008z"/></svg>