<svg height="64" viewBox="0 0 64 64" width="64" xmlns="http://www.w3.org/2000/svg"><path d="m0 0h64v64h-64z" fill="none"/><path d="m52.9006 10.7491c-13.9197-.8841-27.8815-.8841-41.8012 0-2.7456.1828-4.9694 2.5915-4.9694 5.3284v30.845c0 2.737 2.2238 5.1454 4.9694 5.3284 13.9197.8841 27.8815.8841 41.8012 0 2.7457-.1829 4.9694-2.5914 4.9694-5.3284 0-10.2817 0-20.5633 0-30.845 0-2.737-2.2238-5.1453-4.9694-5.3284zm-.9006 34.2509h-40v-28h40z"/><path d="m38.4993 30 .8047 12h7.6909l-3.9085-12z"/><path d="m41.5177 25-2.0386-6h-1.5901l.4402 6z"/><path d="m37.0759 19h-1.5905l-2.0385 6h3.1888z"/><path d="m28 42h7.691l.8046-12h-4.5872z"/><path d="m15.5 36c.8286 0 1.5-.1714 1.5-1v-5.9799c0-.582.2437-1.144.6685-1.542l3.5406-3.3144.3059 2.6177c.0569.4833.4534.8533.9374.88.4855.0256.9185-.3023 1.0249-.7765l1.4982-6.6439c.0668-.2953-.0045-.6053-.1938-.842s-.476-.3744-.7788-.3741l-6.8107.0015c-.486-.0004-.9011.35-.9827.8292-.0809.4785.1933.9471.6525 1.1078l2.4547.8625-3.6984 3.4621c-1.0285.9631-1.6183 2.3235-1.6183 3.7321v5.9799c0 .8286.6714 1 1.5 1z"/><path d="m27 32h3v-3h15v3h3v-3h1v-3h-23v3h1z"/></svg>