<?xml version="1.0" encoding="utf-8"?>
<!-- Generator: Adobe Illustrator 23.1.1, SVG Export Plug-In . SVG Version: 6.00 Build 0)  -->
<svg version="1.1" xmlns="http://www.w3.org/2000/svg" xmlns:xlink="http://www.w3.org/1999/xlink" x="0px" y="0px"
	 viewBox="0 0 64 64" style="enable-background:new 0 0 64 64;" xml:space="preserve">
<style type="text/css">
	.st0{fill:none;}
</style>
<g id="Box">
	<rect class="st0" width="64" height="64"/>
</g>
<g id="Icon">
	<g>
		<path d="M62.4,53.9L54.3,47c-0.6-0.5-1.4-0.5-2,0c-0.6,0.5-0.7,1.3-0.3,2l1.7,2.9c0.6,0.2,2.5,0.7,2.7,0.8
			c0.2,0.1,0.2,0.2,0.1,0.2H47c-2.3,2.1-4.9,3.8-7.8,5h14.6l-1.9,3.3c-0.4,0.7-0.2,1.5,0.3,2c0.6,0.5,1.4,0.5,2,0l8.2-6.9
			c0.4-0.3,0.6-0.8,0.6-1.2C63,54.7,62.8,54.2,62.4,53.9z"/>
		<path d="M48.6,48.1c1.3-1.7,5.4-7.2,5.4-15.6c0-12.8-9.5-23.4-21.7-25.2l2-3.4c0.4-0.7,0.2-1.5-0.3-2c-0.6-0.5-1.4-0.5-2,0
			l-8.2,6.9c-0.4,0.3-0.6,0.8-0.6,1.2c0,0.5,0.2,0.9,0.6,1.2l8.2,6.9c0.6,0.5,1.4,0.5,2,0c0.6-0.5,0.7-1.3,0.3-2l-1.6-2.8
			c-0.1-0.1-2.6-0.9-2.8-1.1c-0.2-0.1-0.2-0.2-0.1-0.2c11,0.6,19.3,9.8,19.3,20.4c0,3.2-0.8,7.9-4.2,12.4c-3.7,4.9-9.7,8.1-16.3,8.1
			C17.2,53,8,43.8,8,32.5c0-9.2,6.1-16.9,14.4-19.5l0,0C21.5,12.2,21,11.1,21,10c0-0.7,0.2-1.4,0.6-2C10.9,11,3,20.8,3,32.5
			C3,40.9,7.1,48.4,13.4,53H3v5c0,0,25.6,0,25.6,0C36.7,58,44,54.1,48.6,48.1z"/>
	</g>
</g>
</svg>
