<svg height="48" width="48" xmlns="http://www.w3.org/2000/svg"><path d="m46.801 40.426-6.074-5.176a1.14 1.14 0 0 0 -1.5 0c-.453.375-.527.977-.227 1.5l1.273 2.176 2.027.598c.148.078.148.152.074.152h-7.124c-1.727 1.574-3.676 2.848-5.852 3.75h10.953l-1.426 2.473c-.301.527-.152 1.125.223 1.5a1.14 1.14 0 0 0 1.5 0l6.152-5.172c.301-.227.449-.602.449-.902a1.16 1.16 0 0 0 -.449-.898zm-10.352-4.352c.977-1.273 4.051-5.398 4.051-11.699 0-9.602-7.125-17.551-16.273-18.898l1.5-2.551c.297-.527.148-1.125-.227-1.5a1.14 1.14 0 0 0 -1.5 0l-6.148 5.176c-.301.223-.453.598-.453.898a1.06 1.06 0 0 0 .453.898l6.148 5.176a1.14 1.14 0 0 0 1.5 0c.449-.375.523-.973.227-1.5l-1.203-2.098c-.074-.078-1.949-.676-2.098-.828-.152-.074-.152-.148-.074-.148 8.25.449 14.473 7.352 14.473 15.301a15.42 15.42 0 0 1 -3.148 9.301c-2.777 3.672-7.277 6.074-12.227 6.074-8.552.074-15.45-6.824-15.45-15.301 0-6.898 4.574-12.676 10.801-14.625-.676-.602-1.051-1.426-1.051-2.25a2.7 2.7 0 0 1 .449-1.5c-8.023 2.25-13.949 9.602-13.949 18.375 0 6.301 3.074 11.926 7.801 15.375h-7.801v3.75h19.199c6.074 0 11.551-2.926 15-7.426zm0 0"/></svg>