<svg height="48" width="48" xmlns="http://www.w3.org/2000/svg"><path d="m15.227 28.352h3.223l.602 2.25h2.699l-3.148-10.727h-3.375l-3.152 10.727h2.551zm1.574-6.078 1.051 4.051h-2.102zm8.773 4.8c.301 0 .602.074.902.074 2.398 0 3.973-1.5 3.973-3.824 0-2.098-1.426-3.449-3.824-3.449h-3.523v10.727h2.398v-3.527zm0-5.25h.824c1.051 0 1.578.527 1.578 1.574s-.676 1.652-1.727 1.652c-.227 0-.523 0-.676-.074zm6.602-1.949h2.398v10.727h-2.398zm8.324-10.875h-33a2.21 2.21 0 0 0 -2.25 2.25v25.5a2.21 2.21 0 0 0 2.25 2.25h33a2.21 2.21 0 0 0 2.25-2.25v-25.5a2.21 2.21 0 0 0 -2.25-2.25zm-28.125 1.5c.602 0 1.125.523 1.125 1.125s-.523 1.125-1.125 1.125-1.125-.523-1.125-1.125.523-1.125 1.125-1.125zm-3.75 0c.602 0 1.125.523 1.125 1.125s-.523 1.125-1.125 1.125-1.125-.523-1.125-1.125.523-1.125 1.125-1.125zm31.875 26.25h-33v-22.5h33zm0 0"/></svg>