<?xml version="1.0" encoding="utf-8"?>
<!-- Generator: Adobe Illustrator 17.1.0, SVG Export Plug-In . SVG Version: 6.00 Build 0)  -->
<svg version="1.2" baseProfile="tiny" xmlns="http://www.w3.org/2000/svg" xmlns:xlink="http://www.w3.org/1999/xlink" x="0px"
	 y="0px" width="64px" height="64px" viewBox="0 0 64 64" xml:space="preserve">
<g id="_x36_4px_Boxes">
	<rect fill="none" width="64" height="64"/>
</g>
<g id="Production">
	<g>
		<path d="M50.7417,31.9994c0-5.2081-3.1447-9.6904-7.6321-11.6641l-2.8989,4.3483c3.1404,0.9507,5.4343,3.8688,5.4343,7.3158
			c0,3.4471-2.294,6.3653-5.4346,7.3158l2.8992,4.3487C47.597,41.6901,50.7417,37.2075,50.7417,31.9994z"/>
		<path d="M48.1024,12.8461l-2.8542,4.2813c5.5063,2.695,9.3167,8.3397,9.3167,14.872c0,6.5325-3.8107,12.177-9.3172,14.8718
			l2.8546,4.2819c6.8677-3.6372,11.5593-10.8563,11.5593-19.1537S54.97,16.4831,48.1024,12.8461z"/>
		<path d="M31.8667,13.3516L19,22v8.9863c0,0-0.2525,0.1089-0.3575-0.2163c-0.105-0.3252-2.4157-8.77-2.4157-8.77h-4.2234
			C5.8379,22,3.998,26.6982,4,32.0029C3.9971,37.3037,5.8359,42,12.0034,42H19l12.8667,8.6475C33.1938,51.5596,35,50.6104,35,49V15
			C35,13.3897,33.1938,12.4395,31.8667,13.3516z"/>
	</g>
</g>
</svg>
