<svg height="48" width="48" xmlns="http://www.w3.org/2000/svg"><path d="m40.719 30.621-2.66-4c-.738-1.34-1.297-2.723-1.617-4.242l-1.98-7.437c-.883-3.68-3.641-6.5-7.141-7.621v-.039c-.001-1.821-1.481-3.282-3.321-3.282s-3.32 1.461-3.32 3.281v.039c-3.48 1.121-6.258 3.941-7.141 7.621l-1.98 7.457c-.32 1.48-.898 2.902-1.617 4.242l-2.66 4c-.723 1.059.059 2.461 1.34 2.461h30.777c1.281 0 2.043-1.422 1.32-2.48zm-22.617 7.481c0 3.257 2.636 5.898 5.898 5.898s5.898-2.641 5.898-5.898c0-.223-.039-.441-.059-.66h-11.659c-.02.238-.078.438-.078.66zm0 0"/></svg>