<?xml version="1.0" encoding="utf-8"?>
<!-- Generator: Adobe Illustrator 22.1.0, SVG Export Plug-In . SVG Version: 6.00 Build 0)  -->
<svg version="1.2" baseProfile="tiny" xmlns="http://www.w3.org/2000/svg" xmlns:xlink="http://www.w3.org/1999/xlink" x="0px"
	 y="0px" viewBox="0 0 24 24" xml:space="preserve">
<g id="_x32_4px_Boxes">
</g>
<g id="Production">
</g>
<g id="cirkel">
</g>
<g id="bel">
	<g>
		<path d="M20.36,15.31l-1.33-2c-0.37-0.67-0.65-1.36-0.81-2.12l-0.99-3.72c-0.44-1.84-1.82-3.25-3.57-3.81c0-0.01,0-0.02,0-0.02
			C13.66,2.73,12.92,2,12,2s-1.66,0.73-1.66,1.64c0,0.01,0,0.02,0,0.02C8.6,4.22,7.21,5.63,6.77,7.47L5.78,11.2
			c-0.16,0.74-0.45,1.45-0.81,2.12l-1.33,2c-0.36,0.53,0.03,1.23,0.67,1.23H19.7C20.34,16.55,20.72,15.84,20.36,15.31z"/>
		<path d="M9.05,19.05C9.05,20.68,10.37,22,12,22c1.63,0,2.95-1.32,2.95-2.95c0-0.11-0.02-0.22-0.03-0.33H9.09
			C9.08,18.84,9.05,18.94,9.05,19.05z"/>
	</g>
</g>
<g id="megafoon" display="none">
	<path display="inline" d="M17.23,39.37v1.6c2.43,0,4.4,1.97,4.4,4.4s-1.97,4.4-4.4,4.4v1.6c3.31,0,6-2.69,6-6
		S20.53,39.37,17.23,39.37z"/>
	<path display="inline" d="M-15.71,20c0-2.21-1.79-4-4-4v2c1.1,0,2,0.9,2,2s-0.9,2-2,2v2C-17.51,24-15.71,22.21-15.71,20z"/>
	<path display="inline" d="M-37.84,20c0-2.21,1.79-4,4-4v2c-1.1,0-2,0.9-2,2s0.9,2,2,2v2C-36.04,24-37.84,22.21-37.84,20z"/>
	<path display="inline" d="M-24.65-4.35c-0.33-0.48-3.85-4.9-3.85-4.9c0,0.01,0-2,0-2c0-2.22-2.09-3-4-3c-1.91,0-4,0.78-4,3
		c0,0,0,2.01,0,2c0,0-3.52,4.43-3.85,4.9s0.01,1.1,0.59,1.1h7.26h7.26C-24.67-3.25-24.32-3.87-24.65-4.35z"/>
	<path display="inline" d="M-18.9,28.4c-0.33-0.48-3.85-4.9-3.85-4.9c0,0.01,0-5.75,0-5.75c0-2.22-2.09-3-4-3c-1.91,0-4,0.78-4,3
		c0,0,0,5.76,0,5.75c0,0-3.52,4.43-3.85,4.9s0.01,1.1,0.59,1.1h7.26h7.26C-18.92,29.5-18.57,28.88-18.9,28.4z"/>
	
		<ellipse display="inline" fill="none" stroke="#000000" stroke-width="2" stroke-miterlimit="10" cx="-55.13" cy="14.31" rx="6.63" ry="10.56"/>
</g>
</svg>
