<?xml version="1.0" encoding="utf-8"?>

<!DOCTYPE svg PUBLIC "-//W3C//DTD SVG 1.1//EN" "http://www.w3.org/Graphics/SVG/1.1/DTD/svg11.dtd">
<svg version="1.1" xmlns="http://www.w3.org/2000/svg" xmlns:xlink="http://www.w3.org/1999/xlink" x="0px" y="0px" width="24px"
	 height="24px" viewBox="0 0 24 24" style="enable-background:new 0 0 24 24;" xml:space="preserve">
<style type="text/css">
	.st0{fill:none;}
	.st1{fill:#39870C;}
	.st2{fill:#D52B1E;}
	.st3{display:none;}
	.st4{display:none;fill:#FFFFFF;}
</style>
<g id="box">
	<g>
		<rect class="st0" width="24" height="24"/>
	</g>
</g>
<g id="icon">
	<g>
		<path d="M20.5,5.1c-0.1-0.8-0.8-1.5-1.6-1.6c-2.5-0.4-6.5-0.4-7.4-0.4c-0.8,0-4.9,0-7.4,0.4C3.3,3.6,2.7,4.3,2.5,5.1
			c-0.3,1.7-0.4,3.6-0.4,5.4c0,1.9,0.1,3.8,0.4,5.4c0.1,0.8,0.8,1.5,1.6,1.6c2,0.3,5.1,0.4,6.6,0.4l4.4,3c0.3,0.2,0.6,0.1,0.7-0.2
			c0.1-0.1,0.1-0.2,0.1-0.4l0-0.1l0,0l-0.7-2.5c1.2-0.1,2.6-0.2,3.6-0.3c0.8-0.1,1.5-0.8,1.6-1.6c0.3-1.7,0.4-3.6,0.4-5.4
			C20.9,8.6,20.8,6.7,20.5,5.1z M6.5,12.3c-1,0-1.8-0.8-1.8-1.8s0.8-1.8,1.8-1.8s1.8,0.8,1.8,1.8S7.5,12.3,6.5,12.3z M11.5,12.3
			c-1,0-1.8-0.8-1.8-1.8s0.8-1.8,1.8-1.8s1.8,0.8,1.8,1.8S12.5,12.3,11.5,12.3z M16.5,12.3c-1,0-1.8-0.8-1.8-1.8s0.8-1.8,1.8-1.8
			s1.8,0.8,1.8,1.8S17.5,12.3,16.5,12.3z"/>
	</g>
</g>
</svg>
