<svg height="48" width="48" xmlns="http://www.w3.org/2000/svg"><path d="m47.398 6.801c-.199-1.199-1.199-2-2.398-2.199-3.801-.602-9.801-.602-11-.602s-7.199 0-11 .602c-1.199.199-2.199 1-2.398 2.199-.203.801-.203 1.398-.402 2.199 3.402 0 7.602.199 10.402.801 2.797.398 5 2.598 5.398 5.598.602 3.402.801 7.203.801 11l4.801 4.203c.398.398 1 .199 1.199 0s.199-.403.199-.602v-.199l-.602-5.199c.801 0 1.602-.203 2.402-.203 1.199-.199 2.199-1 2.398-2.199 1-5.199 1-11.199.199-15.398zm-17.199 6c-4.398-.801-11.801-.801-13.199-.801s-8.801 0-13.199.801c-1.602.199-2.801 1.398-3 3-1 6.801-1 14.801 0 20.398.199 1.602 1.398 2.801 3 3 1.398.199 2.801.402 4.398.402l-2 6.797v.203c0 .199 0 .598.199.797.402.602 1 .602 1.402.402l12.2-7.8c3 0 7.398-.199 10.398-.801 1.602-.199 2.602-1.398 3-3 1-6.801 1-14.801 0-20.398-.398-1.602-1.598-2.801-3.199-3zm0 0"/></svg>