<svg xmlns="http://www.w3.org/2000/svg" viewBox="0 0 64 64"><defs><style>.cls-1{fill:none;}</style></defs><g id="BOX"><rect class="cls-1" width="64" height="64"/></g><g id="ICOON"><path d="M54.7,45.4a3.53,3.53,0,0,0-3.22-1.75H34.21a1.5,1.5,0,0,1-1.5-1.5V29.41l7.45,4.27a3.86,3.86,0,0,0,4.94-5.74L30.24,9.12a3.86,3.86,0,0,0-6.06,0L9.32,27.94a3.86,3.86,0,0,0,4.94,5.74l7.45-4.27V42.15a12.52,12.52,0,0,0,12.5,12.5H51.48A3.55,3.55,0,0,0,54.7,52.9a7.43,7.43,0,0,0,.81-3.75A7.43,7.43,0,0,0,54.7,45.4Z"/></g></svg>