<?xml version="1.0" encoding="utf-8"?>

<!DOCTYPE svg PUBLIC "-//W3C//DTD SVG 1.1//EN" "http://www.w3.org/Graphics/SVG/1.1/DTD/svg11.dtd">
<svg version="1.1" xmlns="http://www.w3.org/2000/svg" xmlns:xlink="http://www.w3.org/1999/xlink" x="0px" y="0px" width="24px"
	 height="24px" viewBox="0 0 24 24" style="enable-background:new 0 0 24 24;" xml:space="preserve">
<style type="text/css">
	.st0{fill:none;}
	.st1{fill:#39870C;}
	.st2{fill:#D52B1E;}
	.st3{display:none;}
	.st4{display:none;fill:#FFFFFF;}
</style>
<g id="box">
	<g>
		<rect class="st0" width="24" height="24"/>
	</g>
</g>
<g id="icon">
	<path d="M19.3,11.9l-6.8-8.5c-0.5-0.6-1.5-0.6-2,0l-6.8,8.5c-0.4,0.5-0.4,1.2,0.1,1.6c0.4,0.5,1.1,0.5,1.6,0.2L9,11.3v8
		c0,1.3,1.4,1.7,2.6,1.7c1.2,0,2.4-0.4,2.4-1.7v-8l3.6,2.4c0.2,0.1,0.5,0.2,0.7,0.2c0.3,0,0.7-0.1,0.9-0.4
		C19.6,13.1,19.7,12.4,19.3,11.9z"/>
</g>
</svg>
