<?xml version="1.0" encoding="utf-8"?>

<!DOCTYPE svg PUBLIC "-//W3C//DTD SVG 1.1//EN" "http://www.w3.org/Graphics/SVG/1.1/DTD/svg11.dtd">
<svg version="1.1" xmlns="http://www.w3.org/2000/svg" xmlns:xlink="http://www.w3.org/1999/xlink" x="0px" y="0px" width="24px"
	 height="24px" viewBox="0 0 24 24" style="enable-background:new 0 0 24 24;" xml:space="preserve">
<style type="text/css">
	.st0{fill:none;}
	.st1{fill:#39870C;}
	.st2{fill:#D52B1E;}
	.st3{display:none;}
	.st4{display:none;fill:#FFFFFF;}
</style>
<g id="box">
	<g>
		<rect class="st0" width="24" height="24"/>
	</g>
</g>
<g id="icon">
	<path d="M19.2,10.5c-0.4-0.5-1.1-0.5-1.6-0.2L14,12.7v-8C14,3.4,12.9,3,11.6,3C10.4,3,9,3.4,9,4.7v8l-3.6-2.4
		C4.9,9.9,4.2,10,3.8,10.5c-0.4,0.5-0.4,1.1-0.1,1.6l6.8,8.5c0.2,0.3,0.6,0.5,1,0.5s0.7-0.2,1-0.5l6.8-8.5
		C19.7,11.6,19.6,10.9,19.2,10.5z"/>
</g>
</svg>
