<?xml version="1.0" encoding="utf-8"?>

<!DOCTYPE svg PUBLIC "-//W3C//DTD SVG 1.1//EN" "http://www.w3.org/Graphics/SVG/1.1/DTD/svg11.dtd">
<svg version="1.1" xmlns="http://www.w3.org/2000/svg" xmlns:xlink="http://www.w3.org/1999/xlink" x="0px" y="0px" width="24px"
	 height="24px" viewBox="0 0 24 24" style="enable-background:new 0 0 24 24;" xml:space="preserve">
<style type="text/css">
	.st0{fill:none;}
	.st1{fill:#39870C;}
	.st2{fill:#D52B1E;}
	.st3{display:none;}
	.st4{display:none;fill:#FFFFFF;}
</style>
<g id="box">
	<g>
		<rect class="st0" width="24" height="24"/>
	</g>
</g>
<g id="icon">
	<path d="M19,12c0,2.5-1.3,4.8-3.5,6.1c-3.3,1.9-7.6,0.8-9.6-2.6C4,12.1,5.2,7.8,8.5,5.9c2.7-1.5,6-1.1,8.2,1l-1.8,0.2
		c-0.4,0-0.7,0.4-0.7,0.7c0,0.4,0.2,0.7,0.6,0.8L20,9.8c0.2,0.1,0.5,0,0.7-0.2C20.9,9.5,21,9.3,21,9l0-5.3c0-0.4-0.3-0.7-0.6-0.8
		c-0.4-0.1-0.7,0.2-0.9,0.5L19,4.9c-3.1-3.1-8.1-3.8-12-1.5C2.2,6.1,0.6,12.2,3.3,17c1.8,3.2,5.2,5,8.7,5c1.7,0,3.4-0.4,5-1.3
		c3.1-1.8,5-5.1,5-8.7H19z"/>
</g>
</svg>
