<?xml version="1.0" encoding="utf-8"?>

<!DOCTYPE svg PUBLIC "-//W3C//DTD SVG 1.1//EN" "http://www.w3.org/Graphics/SVG/1.1/DTD/svg11.dtd">
<svg version="1.1" xmlns="http://www.w3.org/2000/svg" xmlns:xlink="http://www.w3.org/1999/xlink" x="0px" y="0px" width="24px"
	 height="24px" viewBox="0 0 24 24" style="enable-background:new 0 0 24 24;" xml:space="preserve">
<style type="text/css">
	.st0{fill:none;}
	.st1{fill:#39870C;}
	.st2{fill:#D52B1E;}
	.st3{display:none;}
	.st4{display:none;fill:#FFFFFF;}
</style>
<g id="box">
	<g>
		<rect class="st0" width="24" height="24"/>
	</g>
</g>
<g id="icon">
	<g>
		<path d="M18,1.9c-4-0.5-8-0.5-12,0C5.4,1.9,5,2.4,5,3c0,6,0,12,0,18c0,0.6,0.4,1.1,1,1.1c4,0.5,8,0.5,12,0c0.6-0.1,1-0.6,1-1.1
			c0-6,0-12,0-18C19,2.4,18.6,1.9,18,1.9z M14,21h-4v-1h4V21z M17,18H7V4h10V18z"/>
	</g>
</g>
</svg>
