<?xml version="1.0" encoding="utf-8"?>
<!-- Generator: Adobe Illustrator 19.1.0, SVG Export Plug-In . SVG Version: 6.00 Build 0)  -->
<svg version="1.2" baseProfile="tiny" xmlns="http://www.w3.org/2000/svg" xmlns:xlink="http://www.w3.org/1999/xlink" x="0px"
	 y="0px" width="64px" height="64px" viewBox="0 0 64 64" xml:space="preserve">
<g id="_x36_4px_Box">
	<rect fill="none" width="64" height="64"/>
</g>
<g id="Icon">
	<g>
		<path d="M32,29c1.6569,0,3-0.3431,3-2V9.0824C35,7.4255,33.6569,7,32,7s-3,0.4255-3,2.0824V27C29,28.6569,30.3431,29,32,29z"/>
		<path d="M40.4436,13.0056c-0.6583-0.2729-1.3867,0.2054-1.3867,0.9182v3.4947c0,0.8662,0.4526,1.6688,1.1953,2.1144
			c4.6294,2.7773,7.7972,7.8328,7.7972,13.6131c0,8.7948-7.2416,15.9404-16.0494,15.8825
			c-8.8079,0.0579-16.0494-7.0877-16.0494-15.8825c0-5.7803,3.1678-10.8358,7.7972-13.6131
			c0.7427-0.4456,1.1953-1.2482,1.1953-2.1144v-3.4947c0-0.7128-0.7284-1.191-1.3867-0.9182
			c-8.4817,3.5157-14.2876,12.1787-13.4209,22.0946C11.0884,45.9999,20.3259,55.0413,32,54.985
			c11.6741,0.0563,20.9116-8.985,21.8645-19.8848C54.7312,25.1843,48.9253,16.5213,40.4436,13.0056z"/>
	</g>
</g>
</svg>
