<svg height="64" viewBox="0 0 64 64" width="64" xmlns="http://www.w3.org/2000/svg"><path d="m0 0h64v64h-64z" fill="none"/><path d="m37.173 18.787c-2.6873.1898-5.6641.2975-8.6134.2975-6.9016 0-13.9676-.5856-17.0712-1.4481.5627-2.7457 2.5341-9.5472 3.1518-10.5959.6234-.3102 5.2-.8402 13.9194-.8402 8.7195 0 13.296.53 13.9194.8402.2935.4983.8929 2.299 1.5013 4.343 1.2443-.6681 2.5818-1.1271 3.9626-1.4044-.8269-2.6725-1.7046-5.1394-2.3221-5.7839-1.3998-1.4611-6.3067-2.1908-17.0613-2.1908s-15.6614.7297-17.0613 2.1908c-1.0435 1.0891-2.8312 7.3775-3.8582 11.0796-1.3262-.1877-2.8276-.3325-3.6207-.1784-1.7919.3469-2.1 1.929-1.6312 3.0021.2236.5129 1.015 1.5482 2.2753 2.4137-2.0553 2.7659-2.6585 5.1699-2.6585 9.6401v12.2151s0 3.5739.4994 5.953c.1821.8661.985 1.4822 1.9097 1.4822h6.8657c.9253 0 1.7277-.6161 1.9097-1.4822.2785-1.3282.4019-3.3949.4564-4.6381l-6.5109-1.2958c-.3366-.1079-.2874-.3268-.2651-.3865h21.6899 9.7529l-2.2155-15.0474c-.4125-2.8015-.0184-5.6215 1.0759-8.1656zm-20.8461 15.8481-6.2543-.5c-1.6944-.1353-2.7327-1.4875-3.0434-2.9703l-.2578-1.7914c-.1592-1.1078.9787-2.0481 2.1005-1.736l5.0626 1.4066c1.1011.4238 1.9329 1.2842 2.2877 2.364l.6939 2.5772c.0923.3418-.2157.6809-.5892.6499zm18.6731 4.3649h-13v-3h13z"/><path d="m51.0688 13h-.0093c-7.3807 0-13.0012 6.2708-11.9261 13.6549l3.1231 21.6586c.1206.8286.685 1.5204 1.4723 1.7803.7199.2377 1.7909.4969 3.2712.6778v8.2284h8v-6.9075c-1.1666-.0967-3.1896-.3292-4.7405-.8535-.2165-.0732-.2029-.2032-.1876-.2551 2.5671.0621 5.8788-.0815 8.3276-.89.7873-.2599 1.3517-.9518 1.4723-1.7803l2.9949-21.6586c1.075-7.3842-4.4172-13.655-11.7979-13.655zm-.0688 26.15c-2.292 0-4.15-1.858-4.15-4.15 0-2.2921 1.858-4.15 4.15-4.15s4.15 1.858 4.15 4.15c0 2.2919-1.858 4.15-4.15 4.15zm7.1401-14.15h-4.1401c0-.7117-.2581-1.3568-.6722-1.8712l.6298-3.6461c.033-.191-.1978-.3126-.3367-.1772l-2.7811 2.7107c-1.5808.0849-2.8398 1.3818-2.8398 2.9838h-4.1342c-.5973 0-1.0699-.5222-1.0016-1.1156.1816-1.5775.8138-3.0441 1.8666-4.2613 1.5519-1.7941 3.8586-2.8231 6.3287-2.8231h.0093c2.4647 0 4.6694.9796 6.2078 2.7582 1.0597 1.2252 1.692 2.7132 1.8655 4.3303.0635.5922-.4066 1.1115-1.002 1.1115z"/></svg>