<svg height="64" viewBox="0 0 64 64" width="64" xmlns="http://www.w3.org/2000/svg"><path d="m0 0h64v64h-64z" fill="none"/><path d="m57.1683 23.0713c-.7169-.1392-2.2845.0054-3.5138.1736-.7028-5.3007-2.0382-13.5403-2.6545-15.2449-.442-1.2224-1.7778-1.7037-3.1527-2 0 0-7.1571-1-15.8473-1s-15.8473 1-15.8473 1c-1.3749.2963-2.7107.7776-3.1527 2-.6163 1.7046-1.9517 9.9442-2.6545 15.2449-1.2292-.1682-2.7969-.3129-3.5138-.1736-1.687.3266-2.0039 2.0824-1.5357 3.0806.7175 1.5298 3.3584 2.9637 4.704 3.6152v23.5729s0 3.9669.4121 5.6264c.1494.6038.8115 1.0336 1.5742 1.0336h6.0273c.7628 0 1.4248-.4298 1.5742-1.0336.2517-1.0135.3492-3.041.3873-4.4659l-5.7101-1.1364c-.3172-.1017-.2708-.3079-.2499-.3641h35.9696c.0209.0562.0673.2623-.2499.3641l-5.7101 1.1364c.0381 1.4249.1356 3.4524.3873 4.4659.1495.6038.8116 1.0336 1.5743 1.0336h6.0273c.7628 0 1.4248-.4298 1.5742-1.0336.4122-1.6595.4122-5.6264.4122-5.6264s0-21.0686 0-23.5729c1.3456-.6515 3.9865-2.0854 4.704-3.6152.4682-.9982.1513-2.754-1.5357-3.0806zm-35.3897 23.8817-6.3004-.5036c-1.7068-.1364-2.7528-1.4985-3.0657-2.9922l-.2597-1.8045c-.1604-1.116.9859-2.0632 2.1159-1.7487l5.0999 1.4169c1.1091.4269 1.9471 1.2936 2.3045 2.3814l.699 2.5962c.093.3442-.2173.6859-.5935.6545zm17.2214 4.047h-6.9974-.0052-6.9974v-3h6.9974.0052 6.9974zm12.8472-9.3473-.2597 1.8045c-.313 1.4937-1.3589 2.8558-3.0658 2.9922l-6.3004.5036c-.3762.0314-.6865-.3102-.5935-.6545l.699-2.5962c.3574-1.0878 1.1954-1.9545 2.3045-2.3814l5.0999-1.4169c1.1301-.3145 2.2764.6327 2.116 1.7487zm-35.7268-30.0699c.0785-.0211 8.0346-.8327 15.8796-.8327 7.8752 0 15.8016.8116 15.8801.8328.4231 1.7972 1.8726 11.2827 2.3969 14.7465.1203.7949-.2958 1.566-1.0236 1.9073-2.3154 1.0858-7.9735 2.9133-17.2534 2.9133s-14.938-1.8275-17.2535-2.9134c-.7277-.3413-1.1438-1.1125-1.0235-1.9073.524-3.4625 1.9727-12.9425 2.3974-14.7465z"/></svg>