<svg enable-background="new 0 0 64 64" height="64" viewBox="0 0 64 64" width="64" xmlns="http://www.w3.org/2000/svg"><path d="m0 0h64v64h-64z" fill="none"/><path d="m60.9 29.8c1-.7 1.6-1.5 1.8-1.9.4-.8.1-2.3-1.3-2.6-.6-.1-1.8 0-2.9.1-.8-2.9-2.2-7.7-3.1-8.5-1.1-1.2-5-1.7-13.5-1.7-4 0-6.8.1-9 .4h.1c1.9.4 3.1 1.6 4 3.1 1.4-.1 2.9-.1 4.8-.1 6.9 0 10.5.4 11 .7.5.8 2 6.5 2.5 8.7-2.5.7-8 1.1-13.5 1.1-1.1 0-2 0-3-.1v2.5 1.1c0 2.8-1.8 4.4-3.9 4.8v9.6h24c0 .2 0 .3-.3.4s-4.8.9-4.8.9c0 1 .2 2.4.5 3.5.1.7.8 1.2 1.5 1.2h5.1c.7 0 1.4-.5 1.5-1.2.4-1.9.4-4.7.4-4.7s0-5.1 0-9.7c.2-3.5-.3-5.4-1.9-7.6zm-13.9 14.2h-10v-2h10zm12.2-6.9-.2 1.5c-.2 1.2-1.1 2.2-2.4 2.3l-4.9.4c-.3 0-.5-.2-.5-.5l.5-2c.3-.9.9-1.5 1.8-1.9l4-1.1c1-.3 1.9.5 1.7 1.3z"/><path d="m28.5 15.8c2.2 0 3.5-1.6 3.5-3.8 0-2.6-1.3-4-3.5-4-2.3 0-3.5 1.6-3.5 4s1.3 3.8 3.5 3.8z"/><path d="m34.1 35.6c1 0 2.8-.6 2.8-2.8 0-6.3.3-14-4.3-15.1-2.4-.6-5.7-.6-8 0-4.6 1.1-4.4 8.8-4.4 15.1 0 2.2 1.8 2.8 2.8 2.8 0-.1 0-1.2 0-2.2 0-.5 0-3.3 0-3.6 0-2.7.5-5.6.8-6.6.1-.3.3-.2.3-.2v12 18s3.3 0 3.6-3.7c0 0 .5-14 .5-14.1 0-.2.1-.4.4-.4s.4.2.4.4.5 14 .5 14c.1 3.8 3.5 3.8 3.5 3.8v-18.2-12s.2-.1.3.2c.3.9.8 3.8.8 6.5v3.9z"/><path d="m9.5 15.8c2.2 0 3.5-1.6 3.5-3.8 0-2.6-1.3-4-3.5-4-2.3 0-3.5 1.6-3.5 4s1.3 3.8 3.5 3.8z"/><path d="m13.5 17.6c-2.4-.6-5.7-.6-8 0-4.6 1.1-4.4 8.8-4.4 15.1 0 2.2 1.8 2.8 2.8 2.8 0-.1 0-1.2 0-2.2 0-.5 0-3.3 0-3.6 0-2.7.5-5.6.8-6.6.1-.3.3-.2.3-.2v12 18.1s3.3 0 3.6-3.7c0 0 .5-14 .5-14.1 0-.2.1-.4.4-.4s.4.2.4.4.5 14 .5 14c.2 3.8 3.6 3.8 3.6 3.8v-18.2-12s.2-.1.3.2c.3.9.8 3.8.8 6.5v3.9 2c1 0 2.8-.6 2.8-2.8 0-6.2.3-13.9-4.4-15z"/></svg>