<svg enable-background="new 0 0 64 64" viewBox="0 0 64 64" xmlns="http://www.w3.org/2000/svg"><path d="m0 0h64v64h-64z" fill="none"/><path d="m22.348 47.306c-2.431 1.066-6.14 1.397-6.347 1.415l-.011.011s.001-.008.001-.01c-.001 0-.01.001-.01.001l.011-.011c.018-.207.349-3.916 1.415-6.347.73-1.665 2.311-2.74 3.952-2.607-4.132-2.23-8.799.107-10.673 4.379-2.163 4.933-2.814 12.501-2.832 12.714l-.011.011s.009-.001.01-.001c0 .001-.001.01-.001.01l.011-.011c.212-.018 7.781-.669 12.714-2.832 4.271-1.873 6.609-6.54 4.379-10.673.133 1.64-.942 3.221-2.608 3.951zm35.616-38.444c-.116-1.116-.995-1.995-2.111-2.111-3.269-.341-9.781.626-16.825 7.671-2.133 2.133-5.795 6.484-9.26 10.729l-4.836-1.314c-1.822-.495-3.832-.034-5.16 1.309l-5.36 5.36c-.435.44.021 1.279.635 1.201 1.927-.247 4.94-.444 7.455.207 2.874-2.721 4.935-4.668 5.005-4.723.289-.226.466.023.466.023l-.928 1.299c-2.036 2.53-3.813 4.775-4.889 6.141-.627.796-.56 1.935.157 2.652l2.55 2.55 2.55 2.55c.717.717 1.855.784 2.652.157 1.366-1.076 3.611-2.853 6.141-4.889l1.299-.928s.249.177.023.465c-.055.07-2.002 2.131-4.723 5.005.652 2.515.454 5.528.207 7.455-.079.613.761 1.069 1.201.635l5.36-5.36c1.343-1.327 1.804-3.338 1.309-5.159l-1.314-4.836c4.245-3.466 8.596-7.128 10.729-9.26 7.04-7.049 8.007-13.56 7.667-16.829zm-11.89 9.778c-1.172-1.172-1.172-3.071 0-4.243s3.071-1.172 4.243 0c1.171 1.172 1.171 3.071 0 4.243-1.172 1.171-3.071 1.171-4.243 0z"/></svg>