<svg height="64" viewBox="0 0 64 64" width="64" xmlns="http://www.w3.org/2000/svg"><path d="m0 0h64v64h-64z" fill="none"/><path d="m38 19.0151v6.3475c0 .9043.7331 1.6374 1.6374 1.6374h12.7252c.9043 0 1.6374-.7331 1.6374-1.6375v-5.7252c0-.9042-.7331-1.6373-1.6374-1.6373h-6.8079c-5.1608-5.3912-15.4791-16.1655-15.9007-16.5668-.5631-.5361-1.4337-.5797-2.0475-.1023-.6547.5093-.8007 1.4398-.3333 2.1251z"/><path d="m3.0065 43.7997c0 3.3711.5889 9.3917 1.1281 12.93 1.8989-.0496 4.187-1.9854 5.9289-3.2922 1.8638 1.3992 4.1264 3.2998 5.9995 3.2998 1.9059 0 4.2426-1.981 6.0005-3.2998 1.8638 1.3992 4.1264 3.2998 5.9995 3.2998.2638 0 .5383-.0503.815-.1196.5367-3.5483 1.1202-9.471 1.1202-12.818 0 0-1.9982-.8533-3.9982-1.7518v-6.5578c0-.2761-.2274-.4901-.5035-.4901h-2.4965v-3.5098c0-.2762-.2274-.4902-.5035-.4902h-12c-.2762 0-.4965.214-.4965.4902v3.5098h-2.5035c-.2762 0-.4965.214-.4965.4902v3.8931c2-.4659 3.7573-.885 6.1637-1.0569 4.1597-.2971 7.0947.9127 8.9655 2.0582.244.1494.3144.3262.2953.4954-1.9031-.5146-3.9635-.8799-5.9279-.8799-6.2611.0001-13.4901 3.7996-13.4901 3.7996zm10.9935 6.2003h-7v-3.0098c0-.5527.4478-1 1-1s1 .4473 1 1v1.0098h3v-1.0098c0-.5528.4478-1 1-1s1 .4472 1 1zm5-3.0098c0-.5527.4478-1 1-1s1 .4473 1 1v1.0098h3v-1.0098c0-.5528.4478-1 1-1s1 .4472 1 1v3.0098h-7z"/><path d="m52 43v-8l-5-6h-6l-5 6v8h-4v11.9807c.3291-.2393 1.7042-1.2737 2.0635-1.5432 1.8638 1.3992 4.1264 3.2998 5.9995 3.2998 1.9059 0 4.2426-1.981 6.0005-3.2998 1.8638 1.3992 4.1264 3.2998 5.9995 3.2998 1.9059 0 4.2426-1.981 6.0005-3.2998 1.8648 1.4 3.3605 2.6235 4.9365 3.1112v-13.5487zm-11.4 0 1.4-7h4l1.4 7z"/><path d="m52.063 58.9374c-2.4616 0-4.9159-1.9367-6-2.75-1.0002.7503-3.4848 2.75-6 2.75-2.4616 0-4.9159-1.9367-6-2.75-1.0002.7503-3.4848 2.75-6 2.75-2.4616 0-4.9159-1.9367-6-2.75-1.0002.7503-3.4848 2.75-6 2.75-2.4616 0-4.9159-1.9367-6-2.75-1.0002.7503-3.4848 2.75-6 2.75-1.0184 0-2.1246-.3893-3.043-.8273v4.2183c.9427.3047 1.9789.519 3.043.519 2.397 0 4.6631-1.0762 6-1.8633 1.3369.7871 3.603 1.8633 6 1.8633s4.6631-1.0762 6-1.8633c1.3369.7871 3.603 1.8633 6 1.8633s4.6631-1.0762 6-1.8633c1.3369.7871 3.603 1.8633 6 1.8633s4.6631-1.0762 6-1.8633c1.3369.7871 3.603 1.8633 6 1.8633s4.6631-1.0762 6-1.8633c1.1368.6693 2.9474 1.5413 4.937 1.7892v-3.9572c-2.079-.4247-4.0098-1.9332-4.937-2.6288-1.0002.7504-3.4848 2.7501-6 2.7501z"/></svg>