<svg height="64" viewBox="0 0 64 64" width="64" xmlns="http://www.w3.org/2000/svg"><path d="m0 0h64v64h-64z" fill="none"/><path d="m42.9109 12.0917c6.1658.7708 9.2024 7.6889 10.2807 12.0524.9147 3.7016.2513 6.0472 1.3329 6.6482 2.0656 1.1475 1.1414-3.7236 2.6885-3.0492 1.9178.836 3.0588.2302 2.7164-1.9713-1.1094-7.1327-5.9426-16.835-16.0962-17.5283-10.434-.7123-16.3826 10.8842-16.4194 11.0096v3.3853c.1195-.3974 7.3999-11.5588 15.4971-10.5467z"/><ellipse cx="55.45" cy="35.2177" rx="1.45" ry="2.9352"/><ellipse cx="59.0157" cy="32.1917" rx=".95" ry="1.9613"/><path d="m3.0065 27.9527c0 3.3711.5889 9.3917 1.1281 12.93 1.8989-.0496 4.1859-1.9845 5.9289-3.2927 1.8646 1.4004 4.1271 3.3003 5.9995 3.3003 1.9073 0 4.2482-1.9851 6.0005-3.3003 1.8646 1.4004 4.1271 3.3003 5.9995 3.3003.2638 0 .5383-.0503.815-.1196.5367-3.5483 1.1202-9.471 1.1202-12.818 0 0-1.9982-.8533-3.9982-1.7518v-6.5578c0-.2762-.2274-.4902-.5035-.4902h-2.4965v-3.5098c0-.2762-.2274-.4902-.5035-.4902h-12c-.2762 0-.4965.214-.4965.4902v3.5098h-2.5035c-.2762.0001-.4965.214-.4965.4902v3.8931c2-.4659 3.7573-.885 6.1637-1.0569 4.1597-.2971 7.0947.9127 8.9655 2.0582.244.1494.3144.3262.2953.4954-1.9031-.5146-3.9635-.8799-5.9279-.8799-6.2611.0001-13.4901 3.7997-13.4901 3.7997zm10.9935 6.2003h-7v-3.0098c0-.5527.4478-1 1-1s1 .4473 1 1v1.0098h3v-1.0098c0-.5528.4478-1 1-1s1 .4472 1 1zm5-3.0099c0-.5527.4478-1 1-1s1 .4473 1 1v1.0098h3v-1.0098c0-.5528.4478-1 1-1s1 .4472 1 1v3.0098h-7z"/><path d="m10.063 45.1371c1.3369.7871 3.603 1.8633 6 1.8633s4.6631-1.0762 6-1.8633c1.3369.7871 3.603 1.8633 6 1.8633 1.3645 0 2.6799-.3523 3.8123-.7979 1.5383-1.1423 3.4962-2.4681 5.7191-3.6796-1.5098-.6363-2.8187-1.6479-3.5314-2.1826-1.0002.7503-3.4848 2.75-6 2.75-2.4616 0-4.9159-1.9367-6-2.75-1.0002.7503-3.4848 2.75-6 2.75-2.4616 0-4.9159-1.9367-6-2.75-1.0002.7503-3.4848 2.75-6 2.75-.6771 0-1.3893-.1794-2.063-.4235v4.0801c.6635.1531 1.3556.2534 2.063.2534 2.397.0001 4.6631-1.076 6-1.8632z"/><path d="m60.6978 42.8243c.1326-.436.2144-.9215.2144-1.443 0-1.783-.873-3.2283-1.95-3.2283s-1.95 1.4454-1.95 3.2283c0 .2227.0136.4401.0396.6501-2.7936-.5375-6.2153-1.0258-8.7183-.8256-5.9235.4739-12.0208 4.4039-15.4972 7.0302-1.2343.8522-2.9907 1.8539-4.7731 1.8539-2.4616 0-4.9159-1.9367-6-2.75-1.0002.7503-3.4848 2.75-6 2.75-2.4616 0-4.9159-1.9367-6-2.75-1.0002.7503-3.4848 2.75-6 2.75-.6771 0-1.3893-.1794-2.063-.4235v4.0801c.6633.1532 1.3554.2535 2.0628.2535 2.397 0 4.6631-1.0762 6-1.8633 1.3369.7871 3.603 1.8633 6 1.8633s4.6631-1.0762 6-1.8633c1.3369.7871 3.603 1.8633 6 1.8633s4.6631-1.0762 6-1.8633c1.7561 1.0339 3.9617 1.8633 6 1.8633 2.397 0 4.6631-1.0762 6-1.8633 1.3369.7871 3.603 1.8633 6 1.8633 2.0323 0 4.2421-.8295 5.9995-1.8643.9426.5549 2.351 1.2464 3.9375 1.6103v-10.5931s-.4963-.1336-1.3022-.3286z"/></svg>