<svg enable-background="new 0 0 64 64" viewBox="0 0 64 64" xmlns="http://www.w3.org/2000/svg"><path d="m0 0h64v64h-64z" fill="none"/><path d="m55.9 36-.9 1c-.6.6-1.4 1-2.2 1h-38.1c-.9 0-1.8-.4-2.4-1.1-.2.5-.3 1.1-.3 1.6 0 1.5.6 2.4 2.6 5.1 2.5 3.1 4.5 4.4 7.2 4.4h27.7c1.9 0 3.5-.5 6-2.6.8-.7 1.6-1.5 2.5-2.5 1.7-1.8 3-3 3-5.4 0-.5-.1-1-.2-1.5zm-33.9 10c-1.7 0-3-1.3-3-3s1.3-3 3-3 3 1.3 3 3-1.3 3-3 3zm9 0c-1.7 0-3-1.3-3-3s1.3-3 3-3 3 1.3 3 3-1.3 3-3 3zm9 0c-1.7 0-3-1.3-3-3s1.3-3 3-3 3 1.3 3 3-1.3 3-3 3zm9 0c-1.7 0-3-1.3-3-3s1.3-3 3-3 3 1.3 3 3-1.3 3-3 3z"/><path d="m62.7 26h-20c0-.1-.1-.3.2-.4l6.2-1 7.3-1.2c.4-.1.7-.3.8-.6l.8-2.2c.2-.6-.2-1.3-.8-1.3l-14.1-1.8c-2.9-.4-5.8-.4-8.8-.1l-4.8.5c-.4 0-.7.2-1 .4l-1.8 1.6-6-.5c-.8-.1-1.6.3-2.1.8l-16.4-1.5c-.6 0-1 .4-1.1.9l-.1 1c0 .6.4 1 .9 1.1l16.4 1.4c.4.6 1.1 1.1 1.9 1.2l5.4.5 1.5 1.3-14.1 4.6c-.6.2-.8.8-.6 1.3l1.4 3.4c.2.4.5.6.9.6h38.1c.3 0 .6-.1.7-.3l1.2-1.3c.2-.2.5-.3.7-.3h5.8c.5 0 .9-.3 1-.8l1.5-6c.1-.7-.3-1.3-1-1.3z"/></svg>