<svg height="64" viewBox="0 0 64 64" width="64" xmlns="http://www.w3.org/2000/svg"><path d="m0 0h64v64h-64z" fill="none"/><path d="m10.0001 61h6l1.0225-5.1126c-1.9041-.3669-3.5695-.8895-5.0284-1.5344z"/><path d="m28.8706 45.5142c-1.4634-2.5068-.9043-5.6714 1.3301-7.5249 2.2329-1.853 5.4468-1.8193 7.6401.0815l4.8847 4.2316c.1988-.9785.3297-2.0323.3742-3.1774l.8955-22.9971c.043-1.104-.1885-2.1899-.6767-3.1552-1.4688-2.8999-4.7461-9.1636-5.9922-9.8658-1.5801-.8896-8.1904-1.1069-13.3262-1.1069-5.1366 0-11.7461.2173-13.3261 1.1069-1.247.7022-4.5234 6.9659-5.9922 9.8658-.4882.9653-.7197 2.0512-.6767 3.1552l.8955 22.9971c.5077 13.0649 11.6913 14.875 19.0995 14.875 2.7586 0 6.0405-.2522 9.0999-1.2419zm-4.8705-38.6642c1.7401 0 3.15 1.4104 3.15 3.15 0 1.7395-1.4099 3.15-3.15 3.15s-3.15-1.4105-3.15-3.15c.0001-1.7396 1.41-3.15 3.15-3.15zm-9 36.3c-1.7401 0-3.15-1.4105-3.15-3.15 0-1.7396 1.4099-3.15 3.15-3.15s3.15 1.4104 3.15 3.15c0 1.7395-1.4099 3.15-3.15 3.15zm-1.2616-14.15c-.4385 0-.8262-.2861-.9551-.7061l-3.3848-11c-.1983-.643.2832-1.2939.955-1.2939h27.293c.6719 0 1.1533.6509.9551 1.2939l-3.3848 11c-.1288.42-.5166.7061-.9551.7061z"/><path d="m30.9777 55.8874 1.0224 5.1126h5.9119l-3.5176-6.0248c-1.0467.362-2.1762.6732-3.4167.9122z"/><path d="m60.5961 32.0159c-1.124-.8271-2.6934-.6631-3.6226.377l-13.3427 14.9272-7.8853-6.8311c-1.0015-.8677-2.4834-.8828-3.502-.0371-1.0195.8457-1.2773 2.3047-.6094 3.4487l9.9004 16.957c.4829.8271 1.3667 1.3374 2.3247 1.3423h.0137c.9526 0 1.8354-.5005 2.3242-1.3184l15.1191-25.2954c.716-1.1976.4044-2.7435-.7201-3.5702z"/></svg>