<svg height="64" viewBox="0 0 64 64" width="64" xmlns="http://www.w3.org/2000/svg"><path d="m0 0h64v64h-64z" fill="none"/><path d="m9 26h5.9868c.0209.0562.0533.288-.2499.3641-1.1293.2834-3.7369.911-3.7369.911s0 13.3452 0 13.7247c0 1.9645.4745 3.9403 1.0449 5.6151.827-.5196 1.4811-1.039 2.998-2.1774 1.8694 1.4021 4.1276 3.2998 6 3.2998 1.9193 0 4.3027-2.026 6-3.2998 1.8694 1.4021 4.1276 3.2998 6 3.2998 1.9193 0 4.3027-2.026 6-3.2998 1.8694 1.4021 4.1276 3.2998 6 3.2998 1.9193 0 4.3027-2.026 6-3.2998 1.4974 1.123 2.1508 1.6381 2.934 2.1368.5607-1.6589 1.0231-3.6143 1.0231-5.5745 0-.3795 0-10.9998 0-10.9998 0-1.6569-1.3431-2-3-2s-3 .3431-3 2v8h-7.9175c.3096 0 .6338-.2063.6948-.4962.1672-.7963.2227-1.9927.2227-1.9927s0-2.1556 0-4.0889c0-1.4963-.2576-2.1269-.9456-3.0527.4219-.2897.7218-.6363.7966-.808.157-.3592.0399-.9792-.5599-1.0953-.2655-.0515-.8376-.0031-1.2816.0598-.3438-1.2393-.9457-2.3774-1.2949-2.7419-.4722-.4932-3.093-.7863-5.7141-.7839-2.6128.0023-5.2258.2985-5.7107.7839-.3569.3572-.9482 1.5027-1.292 2.7419-.4438-.0629-1.0094-.1113-1.2749-.0598-.5999.1161-.7031.7361-.5461 1.0953.075.1717.3469.5182.7688.808-.688.9258-.9456 1.5563-.9456 3.0527v4.0889s.0555 1.1964.2227 1.9927c.061.2899.3852.4962.6948.4962h-7.9175v-12h2c.9873 0 1.8262-.7207 1.9766-1.6963l2-13c.0889-.5762-.0791-1.1631-.459-1.6064-.3799-.4424-.9336-.6973-1.5176-.6973h-14c-.584 0-1.1377.2549-1.5176.6973-.3799.4434-.5479 1.0303-.459 1.6064l2 13c.1504.9756.9893 1.6963 1.9766 1.6963zm18.2158 12c.3097 0 .5784-.3174.6392-.6073.0932-.4446.1908-1.3927.1908-1.3927h9.9308s.0752.9481.1685 1.3927c.0607.2899.3294.6073.6391.6073zm12.3745-7.2581c.3755-.1046.7563.2102.7031.5811l-.0864.5997c-.104.4963-.4514.949-1.0187.9943l-2.0936.1674c-.125.0104-.228-.1031-.1971-.2175l.2323-.8627c.1187-.3615.3972-.6495.7656-.7913zm-10.5669-5.633c.5605-.0684 1.8037-.1655 3.9766-.1655s3.415.0972 3.9766.1655c.5878 1.5351.9204 2.649 1.1256 3.6491-1.2561.1992-3.2474.3269-5.1022.3269s-3.8462-.1277-5.1022-.3269c.2052-1 .55-2.2635 1.1256-3.6491zm-2.6137 5.633 1.6947.4708c.3685.1418.6471.4299.7657.7913l.2323.8627c.0309.1144-.0721.228-.1971.2175l-2.0936-.1674c-.5673-.0453-.9147-.4979-1.0187-.9943l-.0864-.5997c-.0533-.3707.3276-.6854.7031-.5809zm-7.7408-17.7419-.9232 6h-7.4916l-.9232-6z"/><path d="m57.043 49.9374c-2.4615 0-4.9159-1.9367-6-2.75-1.0001.7503-3.4848 2.75-6 2.75-2.4615 0-4.9159-1.9367-6-2.75-1.0001.7503-3.4848 2.75-6 2.75-2.4615 0-4.9159-1.9367-6-2.75-1.0001.7503-3.4848 2.75-6 2.75-2.4615 0-4.9159-1.9367-6-2.75-1.0001.7503-3.4848 2.75-6 2.75-1.0184 0-2.1246-.3893-3.043-.8273v4.2183c.9427.3047 1.9789.519 3.043.519 2.397 0 4.6631-1.0762 6-1.8633 1.3369.7871 3.603 1.8633 6 1.8633s4.6631-1.0762 6-1.8633c1.3369.7871 3.603 1.8633 6 1.8633s4.6631-1.0762 6-1.8633c1.3369.7871 3.603 1.8633 6 1.8633s4.6631-1.0762 6-1.8633c1.3369.7871 3.603 1.8633 6 1.8633 1.0322 0 2.0372-.2025 2.957-.4926v-4.2031c-.8999.4196-1.9733.7857-2.957.7857z"/></svg>