<svg height="64" viewBox="0 0 64 64" width="64" xmlns="http://www.w3.org/2000/svg"><path d="m0 0h64v64h-64z" fill="none"/><path d="m27.4957 6.1599c-1.1835.5071-2.6809 1.1486-5.8712 2.5154l-9.5603-3.4723c-.1833-.0666-.3851-.0609-.5643.0159l-.7927.3396c-.1642.0703-.2076.2831-.0841.4122l5.0355 5.2605c-.1445.0619-.2776.119-.4259.1825-2.1322.9135-3.9041 1.7905-5.3401 2.5784l-5.9245-3.019c-.2029-.1035-.4413-.1114-.6508-.0217l-.7543.3231c-.1605.0688-.2065.2746-.0905.4051l3.9614 4.4577c-.4722.3427-.8191.6271-1.0366.8349-.321.3068-.2104.8409.2286.9069 2.6512.3982 7.913-.7045 11.2126-1.7297l-2.4285 8.524c-.059.2072.1488.3901.3468.3053l1.6476-.7059c.1371-.0587.2542-.1562.3369-.2804l7.1237-10.7098c2.4863-1.0651 5.3191-2.2789 6.2106-2.6609 2.5328-1.0851 4.0888-2.651 3.9106-3.7979-.165-1.0619-2.5489-2.3526-6.4905-.6639z"/><path d="m58.4474 19h-3.4474v-4.5841c0-.5523-.4477-.8159-1-.8159s-1 .2636-1 .8159v4.5841l-15.4474.0008c-.2958 0-.5269.2554-.4975.5497l1.8999 18.9992c.0255.2557.2406.4503.4975.4503h3.5475v22h10v-19.9456l-6.8693-1.6616c-.3422-.1098-.2921-.3322-.2696-.3928h10.6864c.2569 0 .472-.1946.4975-.4502l1.8999-19c.0295-.2944-.2016-.5498-.4975-.5498zm-4.7474 13h-11.4l-.8-8h13z"/></svg>