<svg height="64" viewBox="0 0 64 64" width="64" xmlns="http://www.w3.org/2000/svg"><path d="m0 0h64v64h-64z" fill="none"/><path d="m36.9921 3.013-9.2109 1.7607c-.632.1208-.5889 1.0392.0515 1.1005l7.6736.7334c-10.1015 23.28-26.1811 36.3251-26.1811 36.3251h27.6669z"/><path d="m57.6 41.0021s-6.3251-14.0117-18.5978-26.1026v27.1924c-.0001 0 9.879-6.072 18.5978-1.0898z"/><path d="m60.9046 43.5006c-18.8091-1.5119-45.5928 4.0963-50.9628 5.2797-.772.1701-1.4448.6143-1.9078 1.255-1.1295 1.5628-2.3658 4.2006-3.0024 5.6334 1.8887-.4912 3.7529-1.7885 5.402-2.8592 1.9942 1.3002 4.4862 3.0601 6.8525 3.0601 2.3918 0 4.8658-1.7664 6.8564-3.0747 1.9839 1.303 4.4656 3.0747 6.8574 3.0747 2.3754 0 4.829-1.7411 6.8604-3.0601 1.9808 1.2904 4.4822 3.0601 6.8535 3.0601 2.3754 0 4.829-1.7411 6.8604-3.0601 1.079.7029 1.8274 1.2103 2.7875 1.7457 1.8491-3.0132 4.3168-6.5721 7.1389-9.4329.5729-.5806.217-1.5564-.596-1.6217z"/><path d="m51.5723 55.4343c-1.9217 1.2474-4.3122 2.6357-6.8584 2.6357-2.531 0-4.9498-1.3942-6.8555-2.6357-1.9217 1.2473-4.3122 2.6357-6.8584 2.6357-2.5021 0-4.9015-1.3582-6.8569-2.6426-1.9785 1.2996-4.3679 2.6426-6.8569 2.6426-2.531 0-4.9498-1.3942-6.8555-2.6357-1.9293 1.2523-4.3172 2.6357-6.8589 2.6357-.8727 0-1.7592-.1942-2.5718-.4539v4.0706c.825.1889 1.6932.3133 2.5718.3133 2.7476 0 5.415-1.1777 6.8574-1.9424 1.4419.7647 4.1094 1.9424 6.8569 1.9424 2.7471 0 5.415-1.1777 6.8569-1.9424 1.442.7647 4.1094 1.9424 6.857 1.9424s5.415-1.1777 6.8569-1.9424c1.4419.7647 4.1099 1.9424 6.857 1.9424 2.7476 0 5.415-1.1777 6.8569-1.9424 1.4424.7647 4.1099 1.9424 6.8574 1.9424.8786 0 1.7468-.1244 2.5718-.3134v-4.0726c-.8141.2608-1.7014.456-2.5718.456-2.531 0-4.9502-1.3942-6.8559-2.6357z"/></svg>