<svg height="64" viewBox="0 0 64 64" width="64" xmlns="http://www.w3.org/2000/svg"><path d="m0 0h64v64h-64z" fill="none"/><path d="m13.4998 11.9775c3.1371 0 4.952-2.2095 4.952-5.3888 0-3.6236-1.8971-5.5663-4.952-5.5663-3.2183 0-4.952 2.2967-4.952 5.5663 0 3.4451 1.8154 5.3888 4.952 5.3888z"/><path d="m19.024 14.7021c-3.3368-.7958-7.8055-.7958-11.0487 0-6.362 1.5612-5.9421 11.6472-5.9421 20.357.2096 3.0518 2.4544 3.92 3.8006 3.92 0-.1417 0-8.6409 0-9.1666 0-3.4489.3358-6.1401.7565-7.4819.1282-.4087.4095-.3306.4095-.3306v41s4.8654.0391 5.2372-5.0498c0 0 .7277-19.2431.7359-19.457s.1675-.4932.5269-.4932.5083.2793.5165.4932.7308 19.3173.7308 19.3173c.2888 5.2383 5.2527 5.1895 5.2527 5.1895v-41s.3024-.1048.4494.3306c.4062 1.2031.7165 4.033.7165 7.435v9.2135c1.3462 0 3.5612-.837 3.8007-3.92 0-8.7098.4298-18.8372-5.9424-20.357z"/><path d="m47.5 11.9775c3.1371 0 4.952-2.2095 4.952-5.3888 0-3.6236-1.8972-5.5663-4.952-5.5663-3.2183 0-4.952 2.2967-4.952 5.5663 0 3.4451 1.8154 5.3888 4.952 5.3888z"/><path d="m35.0266 27.9514c.9893-.666 3.7739-2.3798 4.7857-3.3776.5509-.5118 1.1703-1.2046 1.7778-1.9377l-.2665 6.3639h12.6231v-7s.3024-.1048.4494.3306c.375 1.1108.665 3.6154.7078 6.6694h3.7875c-.139-6.8201-1.0016-13.1248-5.9205-14.2979-2.2726-.542-5.0702-.7148-7.6481-.5186-2.2175.1688-4.2209 1.3895-5.4466 3.2452-1.0589 1.6033-2.1614 3.3762-2.9233 4.1273-1.0107 1.0422-4.9447 3.9671-7.9529 6.4408.0197.0175 2.5744 2.2782 6.0266-.0454z"/><path d="m27 31h35v4h-35z"/></svg>