<svg enable-background="new 0 0 64 64" height="64" viewBox="0 0 64 64" width="64" xmlns="http://www.w3.org/2000/svg"><path d="m0 0h64v64h-64z" fill="none"/><path d="m54.7 15-.9-.4c-.5-.2-1.1 0-1.3.4l-4 8h-10.5c-.6 0-1 .4-1 1v1c0 .6.4 1 1 1h-9v3h18v31h-11c-1.7 0-3 1.3-3 3h20c0-1.7-1.3-3-3-3v-31h3v-3h-2.7l4.8-9.6c.3-.5.1-1.1-.4-1.4z"/><path d="m41.4 52.1-1.4.8v-16.8l1.4.8c.3.1.6.1.8-.1s.2-.5 0-.8l-2.7-3.4c-.1-.1-.3-.2-.5-.2s-.4.1-.5.2-2.7 3.4-2.7 3.4c-.2.2-.2.6 0 .8s.5.3.8.1l1.4-.8v16.9l-1.4-.8c-.3-.1-.6-.1-.8.1s-.2.5 0 .8l2.7 3.4c.1.1.3.2.5.2s.4-.1.5-.2 2.7-3.4 2.7-3.4c.2-.2.2-.6 0-.8s-.5-.3-.8-.2z"/><path d="m15.9 12.1c3 .1 4.8-1.9 5-4.8.1-3.4-1.7-5.3-4.7-5.4-3.1-.1-4.8 1.9-5 5 0 3.2 1.7 5.1 4.7 5.2z"/><path d="m31 22.9c-3.1-.1-4.4-.7-6.4-2-1.8-1.2-3.8-4-5.4-5.5-1.1-1.1-2.7-1.6-4.1-1.4-2 .3-3.9 1.9-4 4.7-.2 4.4 1.8 10 1.4 12.9-.2 1.8-.6 2.9-.3 4.6.4 2.1 1.3 3.1 1.6 6.7.1 2 .2 10.4.4 14.8s3.5 5 4.5 5c1.2-12.2 2.1-30.2 2.2-40.2.6.7 1.6 1.5 2.9 2.2 3.7 2 10.5 1.2 10.5 1.2s-.2-2.9-3.3-3z"/></svg>