<svg height="64" viewBox="0 0 64 64" width="64" xmlns="http://www.w3.org/2000/svg"><path d="m0 0h64v64h-64z" fill="none"/><path d="m60.5 16h-57c-.3 0-.5.2-.5.5v3c0 .3.2.5.5.5h2.5v29h8v-29h36v29h8v-29h2.5c.3 0 .5-.2.5-.5v-3c0-.3-.2-.5-.5-.5zm-31.2 12.9c-5.3 3.9-7.7 7.1-8.4 8.9-.7 1.9-.4 4.3 2.8 5.1 2.7.7 7.2 1.8 7.2 1.8s-5.5.3-8.4.5c-3 .2-4.8 1.5-4.7 3.7h16c2.7 0 4-2 4.1-4 .1-1.5-.6-2.8-2.2-3.7-2.5-1.4-4.6-2.3-4.6-2.3l4.6-4.4 4.9 12.2c.7 1.8 2.7 2.6 4.5 1.9 0 0-4.6-14.1-5.7-17.6-.9-3.2-5.1-5.8-10.1-2.1zm15.9-6.4c-1.9-1.5-3.9-.9-5.4 1-1.5 2-1.4 4 .5 5.4 1.8 1.4 3.9 1 5.3-.9 1.7-2.2 1.4-4.1-.4-5.5z"/></svg>