<svg height="64" viewBox="0 0 64 64" width="64" xmlns="http://www.w3.org/2000/svg"><path d="m0 0h64v64h-64z" fill="none"/><path d="m23.3696 7.5547c3.6377-.1289 2.8154 1.9536 5.478 3.1362 1.3431.5968 2.4746.1964 3.303-.3963-.5684 3.3508.8855 5.6378 4.0422 6.3314 3.3027.7256 5.7222-1.1675 6.4541-4.4976.833-3.7934-.7173-6.2671-3.9341-6.9736-3.2156-.7066-5.4966 1.0641-6.364 4.1714-.0409-.0191-.2395-.0605-.2239-.3887.019-.3998.1562-1.1719.5043-2.0367-.5873-.587-1.5089-1.1898-2.9672-1.5893-2.6992-.7397-5.2744.7969-6.4966 1.708-.2372.1768-.0917.5454.2042.5352z"/><path d="m51.9009 28.0253s-6.5825 1.3287-8.5385 1.0285c-1.2837-1.85-3.0902-6.8462-4.5042-8.6349-2.7914-3.5314-13.6288-2.4448-16.8461-.7601-2.125 1.1214-2.6702 2.3102-3.2305 4.5142-.4885 2.1026-.6727 5.2774-.7754 7.4412.0586 1.1298.5444 2.7895 2.7913 3.2087.0046-.0041 1.644-7.4115 2.3856-9.341.1858-.4922.439-1.0131.5906-1.166 0 0 .913-.4913 3.256-.7184-.3197 1.0001-2.8208 9.9145-2.8208 11.8058 0 1.146.5366 2.1813 1.3958 3.0145 1.0061.9758 5.3308 3.7469 5.3308 3.7469-.0179.1301-.1769.2142-.5586.1301-2.1895-.4824-4.1777-.978-4.1777-.978s-1.6658 4.143-2.5361 5.8921c-1.78.644-5.4164 1.3601-7.2714 1.6723-2.4252.4081-3.5041 2.6269-3.3615 5.0817 3.0437-.1489 7.2972-.4283 10.293-.8855 3.7212-.5865 4.4304-1.1066 5.9811-3.5809.938-1.4796 2.3378-4.1252 3.4513-6.3068 3.4419 2.1324 5.7538 3.5156 5.7538 3.5156.8199 1.9873 1.7455 7.4982 2.1456 9.5994.5596 2.939 2.7581 4.5051 5.3 4.6355-.0474-3.7879-.2236-9.2028-.6506-12.9952-.5952-4.7593-.7595-5.352-5.7788-9.4234-1.3354-1.0588-2.5857-1.9887-3.7065-2.8055.5349-2.2714 1.167-4.8045 1.7372-7.0416.4354.8765.8937 1.7373 1.4164 2.5506 1.0046 1.5119 1.6635 2.0382 2.9453 2.3884 2.5286.5658 5.1218.0693 7.5244-1.1444 2.6753-1.3515 2.6448-3.5091 2.4585-4.4438zm-13.5261 18.469.007.0092.0281.037.0563.0742.0176.0234c.0007.0015.0015.0036.002.0051-.0586-.0789-.0951-.1276-.1123-.1506.0037.0047.0072.0095.01.0132-.0026-.0032-.0034-.0041-.0087-.0115z"/></svg>