<svg height="64" viewBox="0 0 64 64" width="64" xmlns="http://www.w3.org/2000/svg"><path d="m0 0h64v64h-64z" fill="none"/><path d="m30.5 27c-.7 0-1.9 1.8-1.4 2.5.4.7 2.3.6 2.7 0 .6-.7-.6-2.5-1.3-2.5zm-3.4-4.9c-1.7.2-2.1 1.2-1.9 2.3.2 1.2.8 1.8 2.2 1.6 1.5-.2 2-1.1 2-2.1-.1-1.4-.8-2-2.3-1.8zm6.8 0c-1.5-.2-2.2.5-2.3 1.8 0 1.1.4 1.9 2 2.1 1.3.2 2.1-.4 2.2-1.6.1-1.1-.3-2.1-1.9-2.3zm22 10.4-6.2-7.1c-.2-.9.1-2.6 0-3.3-.7-3.9-2.7-8.2-2.7-8.2 2.1-4 1.1-7.2-2.1-9.2-3.6-2.3-16.8-2.6-26.4 2.7-10.1 5.5-9 15.4-7.3 20.5 2 6 7.9 14.5 8.3 20.9.2 2.8-1.9 11.3-1.9 11.3h22.4l-.1-6-5.5-2.8c-.3-.2-.2-.4-.2-.4s8.2 1.8 11.4 2.2 6.3-2.3 6.3-6.2c0-4.3 0-9.7 0-9.7l3.3-1.8c1-.7 1.3-2 .7-2.9zm-21.1-3.1c-.1.6.1 1.9-.7 3.2s-2.1 1.4-3.6 1.4-2.8-.1-3.6-1.4-.6-2.7-.7-3.2c-2.7-1.5-3.8-4.2-3.2-8.5 1.1-8 13.9-8 15 0 .6 4.3-.5 7-3.2 8.5z"/></svg>