<svg height="64" viewBox="0 0 64 64" width="64" xmlns="http://www.w3.org/2000/svg"><path d="m0 0h64v64h-64z" fill="none"/><path d="m19.8066 49.3835c-4.7624-6.1489-6.6158-14.0524-4.9573-21.1423 1.5007-6.4176 5.9822-11.1606 11.6967-12.3779 8.6379-1.8389 14.2564 2.5625 21.3665 8.1365.8893.6973 1.7957 1.4075 2.7261 2.1199.9692.7413 2.4117 1.4871 2.4122 1.4875.1436.004.3271-.2268.1114-.7433-.6913-1.6554-4.3105-5.3964-7.3179-7.6276-5.9294-4.3992-11.6749-7.5477-19.851-5.8055-6.6981 1.4269-11.9297 6.891-13.653 14.2606-1.8222 7.7925.1995 16.4607 5.4084 23.1868 3.283 4.2385 7.1506 6.5596 10.8168 7.9197 4.2709 1.5847 9.586 1.782 12.989-.5013.3271-.2196.4019-.5293.2542-.6719-.5386.1288-13.2807 3.0197-22.0021-8.2412z"/><path d="m16.1024 53.1819c-1.8535-2.256-4.0715-6.1685-4.9932-9.9878-.2474-.0339-.3831.4097-.4001.8531-.0934 2.443.5463 4.9056 1.3311 6.8837 1.1768 2.9662 2.8802 5.481 6.0373 7.4233 1.4823.9121 3.3091 1.5989 5.3917 1.4869.372-.0199.706-.1434.6807-.374-3.3416-1.737-6.0474-3.85-8.0475-6.2852z"/><path d="m13.9597 18.7933c1.3221-2.472 4.3456-5.1006 7.444-6.8632 3.9595-2.2524 4.8699-4.1061 10.0948-5.2079 3.7693-.7948 9.2011.308 12.1247 2.5812.2503-.1115.1776-.4976-.1349-1.0688-2.1213-3.8784-8.7018-4.9065-13.5325-3.8379-3.831.8475-7.7096 2.8304-11.0769 6.0771-1.9093 1.8411-4.7075 5.605-5.0765 7.4832-.1277.6502-.0152.8545.1573.8363z"/><path d="m28.5999 9.7477c-.4863.2843-.3954.4509-.3592.5021 7.0231-.4994 15.4764 3.1606 21.5327 9.3308.2255.0209.267-.2148.084-.8506-.3411-1.1846-1.519-3.3949-3.96-5.3435-2.6097-2.0833-5.2215-3.3036-8.4767-4.2429-3.7742-1.0893-7.9921.1197-8.8208.6041z"/><path d="m52.6595 36.1003c-.3674-.1785-.7148-.3525-1.0895-.5398-4.6653-2.3324-7.2507-4.3672-10.6652-7.0542-.9636-.7584-1.991-1.567-3.1451-2.4462-3.434-2.616-7.5316-3.2028-10.6908-1.5277-3.3315 1.7637-4.9613 5.5813-4.4725 10.4736.3688 3.6909 1.7013 6.9519 3.9818 9.7629 1.5063 1.8567 6.1498 6.2571 10.8123 6.2571.5466 0 .7074-.1558.7138-.3755-7.8375-3.7083-12.3134-9.5339-12.9475-15.8843-.3848-3.8523.7617-6.7859 3.1461-8.0483 2.2412-1.1871 5.2552-.689 7.8662 1.2998 1.1425.8705 2.1594 1.6708 3.1135 2.4214 3.6555 2.877 6.3936 5.032 11.587 7.5725.1848.0903.6345.3352.8801.4517.7367.3494 1.1933-.246 1.384-1.0186.1389-.562.0594-1.0851-.4742-1.3444z"/><path d="m51.6829 41.1565c-1.9041-.821-6.2616-2.7719-9.7757-5.295-1.0978-.7887-2.2402-1.7977-3.345-2.7731-3.1019-2.739-6.6158-5.843-9.3027-3.2422-.9485.9181-1.4454 2.5459-1.3635 4.4663.1547 3.6467 2.2397 7.4586 5.5762 10.1963 3.6607 3.0037 9.5076 6.146 13.2117 7.8025.6125.2739 1.0407-.2034 1.3837-.7659l.0005-.001c.3994-.655.4161-1.2493-.3009-1.5603-.2357-.1022-.4772-.209-.7015-.3118-2.5716-1.1787-8.0307-3.8643-11.9305-7.064-4.1459-3.4016-4.6222-7.2883-4.6694-8.3987-.0568-1.333.2668-2.2676.6124-2.6023.9496-.9166 3.4993 1.333 5.7506 3.3214 1.152 1.0172 2.3433 2.0697 3.546 2.9332 3.6381 2.6122 8.1293 4.6382 10.2677 5.5603.7019.3027 1.2373-.187 1.4604-.8989l.0023-.0073c.1864-.5949.1641-1.1067-.4223-1.3595z"/><path d="m50.0865 45.51c-2.0767-.8052-6.8535-2.7803-9.5649-4.7056-3.6299-2.5781-5.4637-4.1907-7.263-6.2278-.2768.0536-.5259.4288-.1384 1.4475.6657 1.7498 1.8442 3.9226 5.8801 6.7886 2.969 2.1083 7.9459 4.1678 10.1303 5.0122.6718.2595 1.0964-.2871 1.3458-.9446l.0008-.002c.2395-.6312.2539-1.1183-.3907-1.3683z"/><path d="m52.8204 30.1161c-3.6869-1.8924-6.5349-4.0401-9.0834-5.9615-.7274-.5485-1.4371-1.0825-2.142-1.5934-.2824.0727-.3054.5081-.015 1.2963.2889.7842.8335 2.4573 2.8225 3.9088 2.1875 1.5963 4.8021 3.2682 7.5964 4.7195.8547.444 1.3071-.3932 1.301-1.3325v-.0078c-.0029-.455-.0644-.8163-.4795-1.0294z"/><path d="m45.3444 54.8565c-1.203-.5483-2.9072-1.2842-4.1403-1.8256-1.6208.367-3.6066.2751-5.168.0505-5.4702-.7869-9.965-4.0076-12.0233-7.1392-.4856-.737-2.8299.5001-2.1225 1.4547 4.4534 6.0094 10.4041 7.7958 14.4691 8.2175 4.8755.5057 7.4136.2318 8.6034-.2447.3068-.1229.4663-.327.3816-.5132z"/><path d="m22.3568 43.4536.0035-.0024c-.378-.6738-.6629-1.2376-.8665-1.6728-2.711-5.7929-2.5186-11.9156.514-16.378 2.08-3.0611 5.2054-4.8213 8.5787-4.7201 3.4877.0627 6.1686 1.5289 9.0671 3.592.2037-.0422.3677-.2453.1342-1.0627-.2551-.8929-1.012-2.6027-3.2397-3.6909-1.754-.8567-3.6998-1.2893-5.9133-1.3294-4.2896-.074-8.2004 2.0511-10.7757 5.8416-3.5209 5.1808-3.7857 12.1998-.7084 18.776.3106.6638.6401 1.2835.9789 1.88.6081 1.0708 2.6453-.4007 2.2272-1.2333z"/></svg>