<svg height="64" viewBox="0 0 64 64" width="64" xmlns="http://www.w3.org/2000/svg"><path d="m0 0h64v64h-64z" fill="none"/><path d="m57.1683 24.0713c-.7169-.1392-2.2845.0054-3.5138.1736-.7028-5.3007-2.2863-13.5054-2.9026-15.21-.442-1.2223-1.6048-2.0349-2.9046-2.0349h-.1121c.0909-.4248.0829-.8684-.0577-1.2906l-.5527-1.6581c-.409-1.227-1.5527-2.0513-2.8461-2.0513h-24.5574c-1.2934 0-2.4371.8243-2.8461 2.0513l-.5527 1.6581c-.1407.4222-.1487.8658-.0577 1.2906h-.1121c-1.2998 0-2.4626.8126-2.9046 2.0349-.6163 1.7046-2.1998 9.9093-2.9026 15.21-1.2292-.1682-2.7969-.3129-3.5138-.1736-1.687.3266-2.0039 2.0824-1.5357 3.0806.7175 1.5298 3.3584 2.9637 4.704 3.6152v23.5729s0 3.9669.4121 5.6264c.1494.6038.8115 1.0336 1.5742 1.0336h6.0273c.7628 0 1.4248-.4298 1.5742-1.0336.2517-1.0135.3492-3.041.3873-4.4659l-5.7101-1.1364c-.3172-.1017-.2708-.3079-.2499-.3641h35.9696c.0209.0562.0673.2623-.2499.3641l-5.7101 1.1364c.0381 1.4249.1356 3.4524.3873 4.4659.1495.6038.8116 1.0336 1.5743 1.0336h6.0273c.7628 0 1.4248-.4298 1.5742-1.0336.4122-1.6595.4122-5.6264.4122-5.6264s0-16.7712 0-23.5729c1.3456-.6515 3.9865-2.0854 4.704-3.6152.4682-.9982.1513-2.754-1.5357-3.0806zm-20.1683-20.0713h7.3715c.4348 0 .8207.2632.9582.6756l.5582 1.6747c.102.3058-.1088.6101-.4179.6497h-8.47zm-18.8879 2.3503.5582-1.6747c.1375-.4124.5234-.6756.9582-.6756h7.3715v3h-8.47c-.3091-.0396-.5199-.3439-.4179-.6497zm-2.4337 7.4889c.0957-.7657.2484-1.0201 1.0201-1.0201h30.603c.7717 0 .9244.2543 1.0201 1.0201l2.0402 13.2613c.1466 1.1729-1.0201 1.8085-2.1824 2.1614 0 0-8.1576 1.919-16.1794 1.919s-16.1794-1.919-16.1794-1.919c-1.1623-.353-2.329-.9885-2.1824-2.1614zm26.3216 20.1608-5 5h-4l5-5zm-11 5h-4l-5-5h4zm-9.2214 8.953-6.3004-.5036c-1.7068-.1364-2.7528-1.4985-3.0657-2.9922l-.2597-1.8045c-.1604-1.116.9859-2.0632 2.1159-1.7487l5.0999 1.4169c1.1091.4269 1.9471 1.2936 2.3045 2.3814l.6991 2.5962c.0929.3442-.2174.6859-.5936.6545zm-1.7786-8.953-5-5h4l5 5zm4.98 4.3267c0-.186.1809-.3367.404-.3367h3.2321c.2231 0 .404.1507.404.3367v1.3467c0 .1859-.1809.3367-.404.3367h-3.2321c-.2231 0-.404-.1508-.404-.3367zm14.02 8.6733h-6.9974-.0052-6.9974v-3h6.9974.0052 6.9974zm.02-7.3267c0 .1859-.1809.3367-.4041.3367h-3.232c-.2231 0-.404-.1508-.404-.3367v-1.3467c0-.186.1809-.3367.404-.3367h3.232c.2231 0 .4041.1507.4041.3367zm5.98-10.6733h4l-5 5h-4zm6.8472 8.6527-.2597 1.8045c-.313 1.4937-1.3589 2.8558-3.0658 2.9922l-6.3004.5036c-.3762.0314-.6865-.3103-.5935-.6546l.6991-2.5962c.3574-1.0878 1.1954-1.9545 2.3045-2.3814l5.0999-1.4169c1.13-.3144 2.2763.6327 2.1159 1.7488z"/></svg>