<svg height="64" viewBox="0 0 64 64" width="64" xmlns="http://www.w3.org/2000/svg"><path d="m0 0h64v64h-64z" fill="none"/><path d="m60.9977 37.9395c.9492-.652 1.5453-1.4316 1.7137-1.8179.3531-.8082.121-2.2032-1.2286-2.4645-.5973-.116-1.7281-.0071-2.7269.1344-.7734-2.7883-2.1199-7.3212-2.9059-8.1415-1.0543-1.1004-4.75-1.65-12.85-1.65s-11.7957.5496-12.85 1.65c-.7859.8203-2.1324 5.3531-2.9059 8.1415-.9988-.1415-2.1296-.2504-2.7269-.1344-1.3496.2613-1.5817 1.6562-1.2286 2.4645.1684.3863.7645 1.166 1.7137 1.8179-1.548 2.0831-2.0023 3.8937-2.0023 7.2605v9.2s0 2.6918.3762 4.4836c.137.6523.7418 1.1164 1.4383 1.1164h5.1711c.6968 0 1.3012-.4641 1.4383-1.1164.1921-.9164.286-2.5784.3321-3.5722l-4.4797-.9321c-.2475-.0794-.311-.2432-.2604-.3793h31.9684c.0217.0586.0701.2733-.2604.3793l-4.488.9338c.0425.9491.1356 2.5941.3403 3.5705.1371.6523.7414 1.1164 1.4383 1.1164h5.171c.6969 0 1.3012-.4641 1.4384-1.1164.3761-1.7919.3761-4.4836.3761-4.4836s0-4.85 0-9.2c0-3.3668-.4543-5.1774-2.0023-7.2605zm-27.211 10.6367-4.7106-.3766c-1.2762-.1019-2.0582-1.1203-2.2922-2.2371l-.1942-1.3492c-.1199-.8344.7371-1.5426 1.582-1.3074l3.813 1.0593c.8293.3192 1.4558.9672 1.723 1.7805l.5226 1.941c.0697.2574-.1623.5129-.4436.4895zm14.2133 3.4238h-10v-2h10zm-5-15.1359c-5.1981 0-10.5199-.441-12.8574-1.0906.4238-2.068 1.9086-7.1907 2.3738-7.9805.4695-.2336 3.9164-.6328 10.4836-.6328s10.0141.3992 10.4836.6328c.4652.7898 1.95 5.9125 2.3738 7.9805-2.3375.6495-7.6593 1.0906-12.8574 1.0906zm16.4102 7.7492-.1942 1.3492c-.234 1.1168-1.016 2.1352-2.2922 2.2371l-4.7106.3766c-.2812.0234-.5132-.2321-.4437-.4894l.5226-1.941c.2672-.8133.8937-1.4613 1.7227-1.7805l3.8132-1.0593c.845-.2353 1.7021.4729 1.5822 1.3073z"/><path d="m21.1608 35.1186c-6.2679-.319-10.1922-1.6178-11.9286-2.4321-.6258-.2935-.9836-.9567-.8801-1.6401.4506-2.9774 1.6964-10.8345 2.0615-12.3857.0675-.0181 6.909-.7161 13.655-.7161 6.772 0 13.5879.6979 13.6554.7161.1224.5201.3457 1.7623.6041 3.2862 1.0104-.0371 2.1336-.0602 3.3723-.0698-.4886-2.8956-.9915-5.4619-1.2935-6.2972-.3801-1.0511-1.5287-1.465-2.7111-1.7198 0 0-6.1544-.8599-13.6272-.8599s-13.6272.8599-13.6272.8599c-1.1823.2548-2.3309.6687-2.711 1.7198-.53 1.4658-1.6783 8.2562-2.2827 12.8143-1.057-.1447-2.405-.269-3.0215-.1493-1.4506.2808-1.7231 1.7906-1.3206 2.649.617 1.3155 2.8879 2.5485 4.045 3.1087v20.2705s0 3.4111.3544 4.8382c.1284.5191.6978.8887 1.3536.8887h5.183c.6559 0 1.2252-.3696 1.3537-.8888.2164-.8715.3002-2.615.333-3.8403l-4.9102-.9772c-.2728-.0875-.2328-.2647-.2148-.313h12.3967v-8.7805c0-2.6655.2544-4.77 1.3994-6.8965-.4204-.4644-.7534-.9448-.9438-1.3823-.2446-.5596-.3349-1.1851-.2948-1.8028zm-5.8817 13.6622-5.4178-.433c-1.4677-.1172-2.3671-1.2886-2.6362-2.573l-.2233-1.5518c-.1379-.9597.8478-1.7742 1.8195-1.5037l4.3854 1.2183c.9537.3672 1.6743 1.1125 1.9816 2.0479l.6011 2.2324c.08.2961-.1869.5899-.5103.5629z"/></svg>