<svg height="64" viewBox="0 0 64 64" width="64" xmlns="http://www.w3.org/2000/svg"><path d="m55.9413 19.8526-.9916 1.7354c3.6115 2.0684 6.0503 5.9519 6.0503 10.412s-2.4388 8.3436-6.0502 10.412l.9916 1.7354c4.2133-2.4131 7.0586-6.9439 7.0586-12.1474s-2.8453-9.7343-7.0587-12.1474z"/><path d="m59 32c0-3.7167-2.0323-6.953-5.0419-8.6767l-.9916 1.7354c2.4076 1.3789 4.0335 3.9679 4.0335 6.9413s-1.6259 5.5624-4.0335 6.9413l.9916 1.7354c3.0096-1.7237 5.0419-4.96 5.0419-8.6767z"/><path d="m55 32c0-2.2301-1.2194-4.1718-3.0251-5.206l-.9987 1.7478c1.2035.6895 2.0238 1.9717 2.0238 3.4582s-.8203 2.7687-2.0239 3.4582l.9987 1.7478c1.8058-1.0342 3.0252-2.9759 3.0252-5.206z"/><path d="m30.1474 6c4.4601 0 8.3436 2.4388 10.412 6.0502l1.7354-.9916c-2.4131-4.2133-6.9439-7.0586-12.1474-7.0586s-9.7343 2.8453-12.1474 7.0587l1.7354.9916c2.0684-3.6115 5.9519-6.0503 10.412-6.0503z"/><path d="m37.0887 14.0335 1.7354-.9916c-1.7237-3.0096-4.96-5.0419-8.6767-5.0419s-6.953 2.0323-8.6767 5.0419l1.7354.9916c1.3789-2.4076 3.9679-4.0335 6.9413-4.0335s5.5624 1.6259 6.9413 4.0335z"/><path d="m24.9414 15.0251 1.7478.9987c.6895-1.2035 1.9717-2.0238 3.4582-2.0238s2.7687.8203 3.4582 2.0239l1.7478-.9987c-1.0342-1.8058-2.9759-3.0252-5.206-3.0252s-4.1718 1.2194-5.206 3.0251z"/><path d="m30.1474 58c-4.4601 0-8.3436-2.4388-10.412-6.0502l-1.7354.9915c2.4131 4.2134 6.9439 7.0587 12.1474 7.0587s9.7343-2.8453 12.1474-7.0587l-1.7354-.9916c-2.0684 3.6115-5.9519 6.0503-10.412 6.0503z"/><path d="m23.2061 49.9665-1.7354.9916c1.7237 3.0096 4.96 5.0419 8.6767 5.0419s6.953-2.0323 8.6767-5.0419l-1.7354-.9916c-1.3789 2.4076-3.9679 4.0335-6.9413 4.0335s-5.5624-1.6259-6.9413-4.0335z"/><path d="m35.3534 48.9749-1.7478-.9987c-.6895 1.2035-1.9717 2.0238-3.4582 2.0238s-2.7687-.8203-3.4582-2.0239l-1.7478.9987c1.0342 1.8058 2.9759 3.0252 5.206 3.0252s4.1718-1.2194 5.206-3.0251z"/><path d="m38.1968 20h-6.3754l-.873-1.455c-.1896-.3159-.531-.5093-.8995-.5093-.5793 0-1.049.4697-1.049 1.049v.9153h-20.4959c-4.1377 0-7.504 3.2439-7.504 7.2311v9.5377c0 3.9873 3.3663 7.2312 7.504 7.2312h20.496v.9153c0 .5793.4696 1.049 1.049 1.049.3685 0 .7099-.1934.8995-.5093l.8729-1.455h6.3754c6.8032 0 10.8032-3.6315 10.8032-12 0-8.2943-4-12-10.8032-12zm-26.1809 3h16.9841v.0098l-2.6029 1.3317c-.846.4328-1.7825.6585-2.7328.6585h-11.6484c-.3461 0-.6675-.1789-.8499-.473-.4131-.6662.066-1.527.8499-1.527zm-2.6985 13.3699c.0761.4963-.2268.9636-.709 1.1036l-3.1734.9211c-.5296.1537-1.0751-.1526-1.2429-.6779-.1232-.3858-.1921-.7927-.1921-1.2167v-9c0-.424.0689-.8309.1921-1.2167.1678-.5253.7133-.8315 1.2429-.6779l3.1734.9211c.4822.14.7851.6073.709 1.1036-.1732 1.1295-.3174 2.5999-.3174 4.3699s.1442 3.2404.3174 4.3699zm19.6826 4.6301h-16.9841c-.7839 0-1.2629-.8608-.8499-1.527.1823-.2941.5038-.473.8499-.473h11.6484c.9503 0 1.8868.2257 2.7328.6585l2.6029 1.3317zm5.996-.7365c-.29.4127-.8369.5527-1.2859.323l-5.5552-2.8422c-.3878-.1984-.6029-.6179-.5306-1.0474.198-1.1755.3757-2.7661.3757-4.6969s-.1777-3.5214-.3757-4.697c-.0723-.4295.1428-.8491.5306-1.0474l5.5552-2.8422c.449-.2297.9959-.0897 1.2859.323 1.4296 2.0349 2.2379 4.9783 2.2379 8.2635s-.8083 6.2288-2.2379 8.2636zm10.8753-14.2235h-2.5226c-.8487 0-1.605-.5357-1.8867-1.3364l-.8631-2.4537c2.5039.4584 4.2466 1.7019 5.2724 3.7901zm-5.2763 15.7211.8671-2.4648c.2817-.8007 1.0367-1.3363 1.8854-1.3363 1.1432 0 2.5629.0001 2.5629.0001-1.0136 2.1183-2.7593 3.3547-5.3154 3.801z"/></svg>