<svg height="64" viewBox="0 0 64 64" width="64" xmlns="http://www.w3.org/2000/svg"><path d="m0 0h64v64h-64z" fill="none"/><path d="m17.6119 18.9301c-3.7626-.143-7.2983-.4963-8.9819-.9641.4019-1.9608 2.189-7.4208 2.63-8.1696.4452-.2215 3.7134-.6 9.9401-.6 6.2266 0 9.4948.3785 9.9399.6.0514.0872.1225.2437.2061.4458 1.0201-.0818 2.196-.1423 3.528-.1829-.5377-1.1612-1.0863-2.0808-1.4829-2.4948-.9998-1.0434-4.5075-1.5645-12.1875-1.5645s-11.1859.5211-12.1856 1.5645c-.7452.7778-2.0228 3.3137-2.7561 5.9575-.9471-.1341-2.1534-.2374-2.7197-.1274-1.2797.2477-1.4999 1.5704-1.1651 2.3367.1597.3663.7399 1.1055 1.6399 1.7236-1.4677 1.9751-2.0171 3.3203-2.0171 6.5125v8.723s.1185 2.5522.4752 4.2511c.13.6185.8219 1.0585 1.4823 1.0585h4.9029c.6608 0 1.1751-.6923 1.3637-1.2955.2447-.7826.3384-1.2045.4069-2.7045h5.369v-2.3481c0-3.1862.5078-5.0131 1.5631-6.7839-.4415-.4811-.7883-.9766-.9832-1.4238-.4679-1.0709-.4193-2.3818.1268-3.421.2279-.4338.5424-.7922.9052-1.0931zm-5.1475 8.2384-4.4663-.3571c-1.21-.0966-1.9514-1.0622-2.1733-2.1211l-.1841-1.2792c-.1137-.7911.6989-1.4626 1.5-1.2397l3.6153 1.0045c.7863.3026 1.3803.9171 1.6337 1.6882l.4955 1.8404c.0659.244-.1541.4862-.4208.464z"/><path d="m61.77 59.5037-13.3532-22.6166c-.2974-.5042-.8393-.8134-1.4249-.8134-.0021 0-.0043 0-.0065 0-.5877.0022-1.1296.3162-1.4249.8242l-13.1246 22.6166c-.2968.5118-.2979 1.1437-.0027 1.6565s.842.829 1.434.829h26.4779c.5942 0 1.1426-.3184 1.4373-.8344.2946-.5161.2897-1.1502-.0124-1.6619zm-25.0289-.8135 10.2632-17.6859 10.442 17.6859z"/><path d="m46.9777 54.1592c-.837 0-1.2719.6024-1.2719 1.3723 0 .8703.4687 1.3385 1.2888 1.3385.8365 0 1.2719-.5855 1.2719-1.3385 0-.8872-.4687-1.3723-1.2888-1.3723z"/><path d="m46 53 2-.0528v-1.9673l.235-4.948-2.235.1939z"/><path d="m40.8721 39h-7.8721v-2h9.0328l.934-1.6095c.827-1.423 2.3627-2.3107 4.0187-2.3168h.0065c.5031 0 .993.0915 1.4592.2466l.1852-.6878c.2771-.8434.9269-1.5154 1.7866-1.8464l3.9545-1.0986c.8762-.2438 1.765.4906 1.6406 1.3559l-.2014 1.3992c-.2427 1.1581-1.0536 2.2143-2.3771 2.3199l-2.7014.2159c.0915.1244.1827.2491.262.3835l6.8707 11.6371c.7191-.0052 1.468-.4839 1.6094-1.1568.3901-1.8581.5197-4.6496.5197-4.6496s0-5.0296 0-9.5407c0-3.4915-.6008-4.9628-2.2061-7.1231.9844-.6761 1.684-1.4846 1.8586-1.8853.3662-.8382.0931-2.2848-1.3065-2.5558-.6194-.1203-1.9546-.0073-2.9905.1394-.8021-2.8916-2.2065-5.6653-3.0215-6.516-1.0933-1.1412-4.9299-1.7111-13.33-1.7111-8.4 0-12.2346.5699-13.3279 1.7111-.815.8507-2.2123 3.6244-3.0145 6.516-1.0359-.1467-2.3553-.2597-2.9747-.1394-1.3996.2709-1.6405 1.7176-1.2743 2.5558.1746.4006.8093 1.2092 1.7936 1.8852-1.6053 2.1604-2.2062 3.6316-2.2062 7.1232v9.5407s.1296 2.7914.5197 4.6497c.1422.6764.899 1.1577 1.6212 1.1577h5.8591c.7227 0 1.3494-.7405 1.4916-1.4171.2175-1.0374.3209-1.6923.4451-3.5829h11.1945zm-12.744-22.5765c.4869-.2422 4.0615-.6562 10.8719-.6562s10.3849.414 10.8719.6562c.4824.8191 2.437 6.5409 2.8766 8.6855-2.4242.6736-8.3579 1.131-13.7485 1.131s-11.3243-.4574-13.7485-1.131c.4396-2.1446 2.3942-7.8664 2.8766-8.6855zm1.3174 18.7295-4.885-.3905c-1.3234-.1057-2.1344-1.1618-2.3771-2.3199l-.2014-1.3992c-.1243-.8653.7644-1.5997 1.6406-1.3559l3.9542 1.0986c.86.331 1.5098 1.003 1.7869 1.8464l.542 2.0129c.0721.2671-.1685.532-.4602.5076z"/></svg>