<svg height="64" viewBox="0 0 64 64" width="64" xmlns="http://www.w3.org/2000/svg"><path d="m0 0h64v64h-64z" fill="none"/><path d="m48 17h-9.8l-.828-1.38c-.2308-.3846-.6465-.62-1.095-.62-.7053 0-1.277.5717-1.277 1.277v.723h-23c-4.9626 0-9 4.0374-9 9v12c0 4.9626 4.0374 9 9 9h23v.723c0 .7053.5717 1.277 1.277 1.277.4485 0 .8643-.2354 1.095-.62l.828-1.38h9.8c7.1682 0 13-5.8318 13-13v-4c0-7.1682-5.8318-13-13-13zm-13 3v1.0781l-4.381 1.9219h-15.219l-1.8-3zm-22.4816 18.7445-5.9529 1.7859c-.3591-.7697-.5655-1.625-.5655-2.5304v-12c0-.9054.2064-1.7607.5654-2.5304l5.9529 1.7859c-.2559 1.5394-.5183 3.8243-.5183 6.7445s.2624 5.2051.5184 6.7445zm22.4816 5.2555h-21.4l1.8-3h15.219l4.381 1.9219zm8.3576-.6876-10.8504-4.7598c.2476-1.5484.4928-3.7796.4928-6.5526s-.2452-5.0042-.4928-6.5526l10.8504-4.7598c2.1838 2.5419 3.1699 6.6451 3.1699 11.3124s-.9861 8.7706-3.1699 11.3124zm6.4516.6876 1.8908-4.0283h4.4359c-1.4793 2.0713-3.725 3.5521-6.3267 4.0283zm1.8908-20-1.8908-4.0283c2.6017.4762 4.8474 1.957 6.3267 4.0283z"/></svg>