<svg height="64" viewBox="0 0 64 64" width="64" xmlns="http://www.w3.org/2000/svg"><path d="m0 0h64v64h-64z" fill="none"/><path d="m59.1693 50.2094c-.4785-.0809-.9471.1933-1.1078.6525l-.8625 2.4547-3.4621-3.6984c-.963-1.0284-2.3233-1.6182-3.732-1.6182h-11.0049c-.8286 0-1 .6714-1 1.5s.1714 1.5 1 1.5h11.0049c.582 0 1.144.2437 1.542.6685l3.3144 3.5406-2.6177.3059c-.4833.0569-.8533.4534-.88.9374-.0256.4855.3023.9185.7765 1.0249l6.6439 1.4982c.2953.0668.6053-.0045.842-.1938s.3744-.476.3741-.7788l-.0015-6.8107c.0003-.4861-.35-.9011-.8293-.9828z"/><path d="m39 16h11.0049c1.4087 0 2.769-.5898 3.7319-1.6182l3.4621-3.6984.8625 2.4547c.1607.4592.6294.7333 1.1078.6525.4792-.0817.8296-.4967.8292-.9827l.0016-6.8108c.0003-.3028-.1374-.5895-.3741-.7788s-.5467-.2606-.842-.1938l-6.6439 1.4983c-.4742.1064-.8021.5394-.7765 1.0249.0267.484.3967.8805.88.9374l2.6177.3059-3.3144 3.5406c-.3979.4247-.9599.6684-1.5419.6684h-11.0049c-.8286 0-1 .6714-1 1.5s.1714 1.5 1 1.5z"/><path d="m52 32c0-8.2943-4-12-10.8032-12h-6.3754l-.873-1.455c-.1896-.3159-.531-.5093-.8995-.5093-.5793 0-1.049.4697-1.049 1.049v.9153h-20.4959c-4.1377 0-7.504 3.2439-7.504 7.2311v9.5377c0 3.9873 3.3663 7.2312 7.504 7.2312h20.496v.9153c0 .5793.4696 1.049 1.049 1.049.3685 0 .7099-.1934.8995-.5093l.8729-1.455h6.3754c6.8032 0 10.8032-3.6315 10.8032-12zm-3.1287-5.96h-2.5226c-.8487 0-1.605-.5357-1.8867-1.3364l-.8631-2.4537c2.5039.4584 4.2466 1.7019 5.2724 3.7901zm-4.4093 13.2563c.2817-.8007 1.0367-1.3363 1.8854-1.3363 1.1432 0 2.5629.0001 2.5629.0001-1.0135 2.1183-2.7592 3.3547-5.3154 3.801zm-29.4461-16.2963h16.9841v.0098l-2.6029 1.3317c-.846.4328-1.7825.6585-2.7328.6585h-11.6484c-.3461 0-.6675-.1789-.8499-.473-.4131-.6662.066-1.527.8499-1.527zm-2.6985 13.3699c.0761.4963-.2268.9636-.709 1.1036l-3.1734.9211c-.5296.1537-1.0751-.1526-1.2429-.6779-.1232-.3858-.1921-.7927-.1921-1.2167v-9c0-.424.0689-.8309.1921-1.2167.1678-.5253.7133-.8315 1.2429-.6779l3.1734.9211c.4822.14.7851.6073.709 1.1036-.1732 1.1295-.3174 2.5999-.3174 4.3699s.1442 3.2404.3174 4.3699zm19.6826 4.6301h-16.9841c-.7839 0-1.2629-.8608-.8499-1.527.1823-.2941.5038-.473.8499-.473h11.6484c.9503 0 1.8868.2257 2.7328.6585l2.6029 1.3317zm5.996-.7365c-.29.4127-.8369.5527-1.2859.323l-5.5552-2.8422c-.3878-.1984-.6029-.6179-.5306-1.0474.198-1.1755.3757-2.7661.3757-4.6969s-.1777-3.5214-.3757-4.697c-.0723-.4295.1428-.8491.5306-1.0474l5.5552-2.8422c.449-.2297.9959-.0897 1.2859.323 1.4296 2.0349 2.2379 4.9783 2.2379 8.2635s-.8083 6.2288-2.2379 8.2636z"/></svg>