<svg height="64" viewBox="0 0 64 64" width="64" xmlns="http://www.w3.org/2000/svg"><path d="m0 0h64v64h-64z" fill="none"/><path d="m45.8511 39.5615c.157-.3592.0399-.9792-.5599-1.0953-.2655-.0515-.8376-.0031-1.2816.0598-.3438-1.2393-.9457-2.3774-1.2949-2.7419-.4722-.4932-3.093-.7863-5.7141-.7839-2.6128.0023-5.2258.2985-5.7107.7839-.3569.3572-.9482 1.5027-1.292 2.7419-.4438-.0629-1.0094-.1113-1.2749-.0598-.5999.1161-.7031.7361-.5461 1.0953.075.1717.3469.5182.7688.808-.6881.9258-.9457 1.5563-.9457 3.0527v4.0889s.0555 1.1964.2227 1.9927c.061.2899.3852.4962.6948.4962h2.2983c.3097 0 .5784-.3174.6392-.6073.0932-.4446.1908-1.3927.1908-1.3927h9.9308s.0752.9481.1685 1.3927c.0607.2899.3294.6073.6391.6073h2.2983c.3096 0 .6338-.2063.6948-.4962.1672-.7963.2227-1.9927.2227-1.9927s0-2.1556 0-4.0889c0-1.4963-.2576-2.1269-.9456-3.0527.4219-.2898.7218-.6363.7967-.808zm-12.9458 5.5227-2.0936-.1674c-.5673-.0453-.9147-.4979-1.0187-.9943l-.0864-.5997c-.0532-.3708.3276-.6855.7031-.5811l1.6947.4708c.3685.1418.6471.4299.7657.7913l.2323.8627c.0309.1146-.0721.2282-.1971.2177zm-1.0075-4.3262c.2052-1 .55-2.2635 1.1256-3.6491.5605-.0684 1.8037-.1655 3.9766-.1655s3.415.0972 3.9766.1655c.5878 1.5351.9204 2.649 1.1256 3.6491-1.2561.1992-3.2474.3269-5.1022.3269s-3.8462-.1277-5.1022-.3269zm12.3092 3.1646c-.104.4963-.4514.949-1.0187.9943l-2.0936.1674c-.125.0104-.228-.1031-.1971-.2175l.2323-.8627c.1187-.3615.3972-.6495.7656-.7913l1.6948-.4708c.3755-.1046.7563.2102.7031.5811z"/><path d="m62 13h-60c-.5523 0-1 .4477-1 1v8c0 .5522.4477 1 1 1h6v4.8643l3.7107.7385c.3461.111.2955.3359.2727.3972h-8.9834c-1.1046 0-2 .8954-2 2v19h18v-19c0-1.1046-.8954-2-2-2h-3v-6h36v27h6v-25.8643l-3.7107-.7385c-.3461-.111-.2955-.3359-.2727-.3972h9.9834c.5523 0 1-.4478 1-1v-8c0-.5523-.4477-1-1-1z"/></svg>