<?xml version="1.0" encoding="utf-8"?>
<!-- Generator: Adobe Illustrator 19.1.0, SVG Export Plug-In . SVG Version: 6.00 Build 0)  -->
<svg version="1.2" baseProfile="tiny" xmlns="http://www.w3.org/2000/svg" xmlns:xlink="http://www.w3.org/1999/xlink" x="0px"
	 y="0px" width="64px" height="64px" viewBox="0 0 64 64" xml:space="preserve">
<g id="Box">
</g>
<g id="Icon">
	<g>
		<path d="M55.9413,19.8526l-0.9916,1.7354C58.5612,23.6564,61,27.5399,61,32s-2.4388,8.3436-6.0502,10.412l0.9916,1.7354
			C60.1547,41.7343,63,37.2035,63,32S60.1547,22.2657,55.9413,19.8526z"/>
		<path d="M59,32c0-3.7167-2.0323-6.953-5.0419-8.6767l-0.9916,1.7354C55.3741,26.4376,57,29.0266,57,32
			s-1.6259,5.5624-4.0335,6.9413l0.9916,1.7354C56.9677,38.953,59,35.7167,59,32z"/>
		<path d="M55,32c0-2.2301-1.2194-4.1718-3.0251-5.206l-0.9987,1.7478C52.1797,29.2313,53,30.5135,53,32
			s-0.8203,2.7687-2.0239,3.4582l0.9987,1.7478C53.7806,36.1718,55,34.2301,55,32z"/>
		<path d="M30.1474,6c4.4601,0,8.3436,2.4388,10.412,6.0502l1.7354-0.9916C39.8817,6.8453,35.3509,4,30.1474,4
			S20.4131,6.8453,18,11.0587l1.7354,0.9916C21.8038,8.4388,25.6873,6,30.1474,6z"/>
		<path d="M37.0887,14.0335l1.7354-0.9916C37.1004,10.0323,33.8641,8,30.1474,8s-6.953,2.0323-8.6767,5.0419l1.7354,0.9916
			C24.585,11.6259,27.174,10,30.1474,10S35.7098,11.6259,37.0887,14.0335z"/>
		<path d="M24.9414,15.0251l1.7478,0.9987C27.3787,14.8203,28.6609,14,30.1474,14s2.7687,0.8203,3.4582,2.0239l1.7478-0.9987
			C34.3192,13.2194,32.3775,12,30.1474,12S25.9756,13.2194,24.9414,15.0251z"/>
		<path d="M30.1474,58c-4.4601,0-8.3436-2.4388-10.412-6.0502L18,52.9413C20.4131,57.1547,24.9439,60,30.1474,60
			s9.7343-2.8453,12.1474-7.0587l-1.7354-0.9916C38.491,55.5612,34.6075,58,30.1474,58z"/>
		<path d="M23.2061,49.9665l-1.7354,0.9916C23.1944,53.9677,26.4307,56,30.1474,56s6.953-2.0323,8.6767-5.0419l-1.7354-0.9916
			C35.7098,52.3741,33.1208,54,30.1474,54S24.585,52.3741,23.2061,49.9665z"/>
		<path d="M35.3534,48.9749l-1.7478-0.9987C32.9161,49.1797,31.6339,50,30.1474,50s-2.7687-0.8203-3.4582-2.0239l-1.7478,0.9987
			C25.9756,50.7806,27.9173,52,30.1474,52S34.3192,50.7806,35.3534,48.9749z"/>
		<path d="M38.1968,20h-6.3754l-0.873-1.455c-0.1896-0.3159-0.531-0.5093-0.8995-0.5093c-0.5793,0-1.049,0.4697-1.049,1.049V20
			H8.504C4.3663,20,1,23.2439,1,27.2311v9.5377C1,40.7561,4.3663,44,8.504,44H29v0.9153c0,0.5793,0.4696,1.049,1.049,1.049
			c0.3685,0,0.7099-0.1934,0.8995-0.5093L31.8214,44h6.3754C45,44,49,40.3685,49,32C49,23.7057,45,20,38.1968,20z M12.0159,23H29
			v0.0098l-2.6029,1.3317C25.5511,24.7743,24.6146,25,23.6643,25H12.0159c-0.3461,0-0.6675-0.1789-0.8499-0.473
			C10.7529,23.8608,11.232,23,12.0159,23z M9.3174,36.3699c0.0761,0.4963-0.2268,0.9636-0.709,1.1036l-3.1734,0.9211
			c-0.5296,0.1537-1.0751-0.1526-1.2429-0.6779C4.0689,37.3309,4,36.924,4,36.5v-9c0-0.424,0.0689-0.8309,0.1921-1.2167
			c0.1678-0.5253,0.7133-0.8315,1.2429-0.6779l3.1734,0.9211c0.4822,0.14,0.7851,0.6073,0.709,1.1036C9.1442,28.7596,9,30.23,9,32
			S9.1442,35.2404,9.3174,36.3699z M29,41H12.0159c-0.7839,0-1.2629-0.8608-0.8499-1.527C11.3483,39.1789,11.6698,39,12.0159,39
			h11.6484c0.9503,0,1.8868,0.2257,2.7328,0.6585L29,40.9902V41z M34.996,40.2635c-0.29,0.4127-0.8369,0.5527-1.2859,0.323
			l-5.5552-2.8422c-0.3878-0.1984-0.6029-0.6179-0.5306-1.0474C27.8223,35.5214,28,33.9308,28,32s-0.1777-3.5214-0.3757-4.697
			c-0.0723-0.4295,0.1428-0.8491,0.5306-1.0474l5.5552-2.8422c0.449-0.2297,0.9959-0.0897,1.2859,0.323
			c1.4296,2.0349,2.2379,4.9783,2.2379,8.2635S36.4256,38.2287,34.996,40.2635z M45.8713,26.04h-2.5226
			c-0.8487,0-1.605-0.5357-1.8867-1.3364l-0.8631-2.4537C43.1028,22.7083,44.8455,23.9518,45.8713,26.04z M40.595,41.7611
			l0.8671-2.4648c0.2817-0.8007,1.0367-1.3363,1.8854-1.3363c1.1432,0,2.5629,0.0001,2.5629,0.0001
			C44.8968,40.0784,43.1511,41.3148,40.595,41.7611z"/>
	</g>
</g>
</svg>
