<svg height="64" viewBox="0 0 64 64" width="64" xmlns="http://www.w3.org/2000/svg"><path d="m0 0h64v64h-64z" fill="none"/><path d="m48.2766 38.564-.6605-2.4546 2.3839-1.9669-3.6519 1.1391.1763 2.8128-3.9983 1.3549-1.8656-1.1366 1.2227 2.7286-1.8905 2.3123-3.2656 1.31 3.8779.1247 1.3058-1.636 1.3161 1.8477-.0132-3.6948z"/><path d="m42.0107 55c1.8149-1.2794 4.4924-4.2037 8.5063-9.3891 5.5015-7.1072 7.5229-10.7182 7.2604-12.3807-.1957-1.2393-3.312-5.4585-5.2662-8.0058.8041-.7816 1.6691-1.7007 1.9716-2.3026.6843-1.3593-.3986-2.4978-1.3571-2.7296-.4579-.1111-1.5561-.1106-2.7806.2853-.801-2.7543-2.1025-4.3663-5.0966-6.6226-3.8683-2.9152-8.1812-6.1655-8.1812-6.1655s-2.3933-1.8039-4.2423-2.6747c-.6731-.317-1.4966-.0973-1.9697.5139l-3.5121 4.5372c-.4733.6115-.4711 1.4527.0159 2.0102.6844.7828 2.0986 1.9789 2.951 2.6853l3.8715-3.3059c.2387-.164.4275-.1099.5142.0257-22.6795 29.2986-11.6872 15.0981-21.713 28.05-.0668-.0203-.2906-.1216-.1604-.4827l2.2178-4.5637c-.8729-.5988-2.3989-1.6195-3.4063-2.0941-.6732-.3169-1.4963-.0977-1.9697.5138l-3.5121 4.5372c-.4733.6114-.4711 1.4526.0159 2.0101 1.338 1.531 3.7316 3.3348 3.7316 3.3348s4.3129 3.2503 8.1812 6.1655c2.994 2.2563 4.9126 3.071 7.8165 3.1088-.0649 1.2698.2236 2.3154.4527 2.722.0419.0745.0991.1456.1542.2172h-21.5042v3h54v-3zm-7.0906-33.9432 3.5342-3.8807c.9575-1.0515 2.3942-1.0552 3.5463-.512l1.3317.7338c.8234.454.8711 1.6807.0882 2.2643l-3.5319 2.6357c-.8471.5137-1.8489.6292-2.7536.3185l-2.0811-.8422c-.2761-.1115-.3456-.4862-.1338-.7174zm-9.9943 20.5709-1.6478 4.0558c-.3648.8989-1.5767 1.1763-2.2373.5119l-1.0679-1.0745c-.8342-.9538-1.2087-2.3224-.4325-3.5105l2.8645-4.3855c.1702-.2625.555-.2949.7367-.0613l1.371 1.7594c.5418.7793.6925 1.7633.4133 2.7047zm-.9255-9.0539-1.7785-1.3403 6.792-8.7743 1.7785 1.3403zm5.712 22.4262c.447-.533.9583-1.3566 1.3963-2.1263 1.6549.6553 3.8965 1.5115 5.7894 2.1263zm10.3114-2.7324c-1.0183-.1212-6.5822-2.2513-8.709-3.2653 1.01-2.4863 4.2323-7.4515 7.7628-12.0124 3.5306-4.561 7.5374-8.9349 9.7027-10.5505 1.5511 1.7578 5.098 6.4935 5.4844 7.431-.1111.5685-2.0973 3.8604-6.5577 9.6227s-7.1565 8.5191-7.6832 8.7745z"/></svg>