<svg height="64" viewBox="0 0 64 64" width="64" xmlns="http://www.w3.org/2000/svg"><path d="m0 0h64v64h-64z" fill="none"/><path d="m26 20h5v-1.5c0-1.3807-1.1193-2.5-2.5-2.5s-2.5 1.1193-2.5 2.5z"/><circle cx="50.5" cy="44.5" r="5.5"/><path d="m1 41.1064c0 .9919.7271 1.834 1.7084 1.9786l1.3801.2034-3.0885-6.2895z"/><path d="m63.3018 39.1968-.754-3.5671c-.4249-2.01-2.1083-3.5096-4.1539-3.7002l-9.1298-.8506c-3.0289-3.3442-5.5907-5.8116-7.2438-7.3166-1.242-1.1306-2.8557-1.7623-4.5353-1.7623h-12.485c-1.1046 0-2 .8954-2 2v7h-21c-.5523 0-1 .4477-1 1v3.1299l2.2298.2667 3.7988 7.7359c.2809-1.5436 1.0283-2.921 2.0903-3.9883l-1.5876-3.2331 3.2048.3832.6323 1.2875c.9558-.4335 2.0136-.6818 3.1316-.6818 4.0286 0 7.3161 3.1369 7.5747 7.1h3.5596l-3.0905-6.2935 3.2048.3833 2.9023 5.9102h4.0489l-2.6497-5.3957 3.2048.3832 2.4615 5.0125h4.0489l-2.2088-4.498 3.2048.3833 2.0206 4.1147h.1434c.2586-3.9631 3.5461-7.1 7.5747-7.1 4.009 0 7.285 3.1061 7.5718 7.0419l2.6477-.644c1.8276-.4445 2.9712-2.2609 2.5823-4.1011zm-34.3018-8.1968v-6h8.4854c.9268 0 1.8203.3486 2.5156.9814 1.3008 1.1836 3.0527 2.8584 5.1055 5.0186z"/><path d="m21.4296 18.9932 1.9827-.2202c.3939-.0438.5877-.3768.5877-.7731 0-.3962-.1938-.7291-.5877-.7729l-1.9827-.2203c-.6104-.0678-.9537.3792-.9537.9932.0001.6141.3434 1.0611.9537.9933z"/><path d="m33.5877 18.7729 1.9827.2202c.6104.0678.9537-.3792.9537-.9932s-.3433-1.061-.9537-.9932l-1.9827.2203c-.3939.0438-.5877.3767-.5877.7729 0 .3963.1938.7293.5877.773z"/><path d="m25.2867 13.9804c.2349.3192.6201.3206.9633.1224.3431-.1981.5345-.5325.3755-.8954l-.8006-1.8272c-.2465-.5624-.8052-.6363-1.3369-.3293-.5319.3071-.7473.8278-.3834 1.3225z"/><path d="m30.7501 14.1029c.3431.1981.7283.1967.9632-.1225l1.1821-1.6069c.3639-.4947.1485-1.0154-.3833-1.3224-.5318-.3071-1.0905-.2332-1.337.3292l-.8006 1.8272c-.159.3629.0324.6972.3756.8954z"/><circle cx="14.5" cy="44.5" r="5.5"/></svg>