<?xml version="1.0" encoding="utf-8"?>
<!-- Generator: Adobe Illustrator 19.1.0, SVG Export Plug-In . SVG Version: 6.00 Build 0)  -->
<svg version="1.2" baseProfile="tiny" xmlns="http://www.w3.org/2000/svg" xmlns:xlink="http://www.w3.org/1999/xlink" x="0px"
	 y="0px" width="64px" height="64px" viewBox="0 0 64 64" xml:space="preserve">
<g id="Box">
	<rect fill="none" width="64" height="64"/>
</g>
<g id="Icon">
	<g>
		<circle cx="50" cy="39" r="5"/>
		<circle cx="15" cy="39" r="5"/>
		<path d="M62.4583,31.9736c-2.8083-4.4124-17.3787-7.4388-17.3787-7.4388s-6.4366-6.101-9.7731-6.8373
			c-3.3352-0.7375-13.1176-1.1043-17.5385,0c-4.4197,1.1044-10.0776,5.9188-10.0776,5.9188
			c-2.7605,0.8514-4.8602,1.3595-5.6644,3.241c-1.1632,2.7253-1.1632,8.0613-0.4642,9.9019C2.2849,38.662,4.122,40,5.9843,40
			c0.0247,0,0.7651,0,2.0447,0C7.9824,39.6725,7.95,39.3405,7.95,39c0-3.8949,3.1552-7.05,7.05-7.05s7.05,3.1551,7.05,7.05
			c0,0.3405-0.0323,0.6725-0.0789,1c6.619,0,14.3077,0,21.0579,0c-0.0466-0.3275-0.0789-0.6595-0.0789-1
			c0-3.8949,3.1552-7.05,7.05-7.05s7.05,3.1551,7.05,7.05c0,0.3405-0.0323,0.6725-0.0789,1c2.1046,0,3.3555,0,3.3555,0
			c0.3745,0,0.7182-0.2031,0.908-0.5385C62.3398,37.5079,64.0031,34.4007,62.4583,31.9736z M40.998,26h-7.9265
			c-4.8495,0-14.9464-0.5104-17.3539-0.8198c-0.9227-0.1186-1.4663-1.071-1.1347-1.9401c0.6494-1.702,1.5624-2.5604,3.7921-3.1175
			c1.6074-0.4014,4.2979-0.6226,7.5762-0.6226c3.4893,0,7.1143,0.2622,8.8164,0.6382c1.3051,0.288,4.1647,2.3381,6.718,4.5267
			C42.0212,25.1241,41.7036,26,40.998,26z"/>
	</g>
</g>
</svg>
