<svg enable-background="new 0 0 64 64" height="64" viewBox="0 0 64 64" width="64" xmlns="http://www.w3.org/2000/svg"><path d="m0 0h64v64h-64z" fill="none"/><path d="m62 18h-23v-1.4c0-1.6-.7-3.1-1.8-4.2l-4.1-3.9c-.8-.8-2.1-.7-2.8.1-.8.8-.7 2.1.1 2.8l4.1 3.9c.3.3.5.8.5 1.3v23.4h-6.4c-1.2 0-2.2-.8-2.5-2l-3.6-15c-1.1 0-2.1 0-2.3 0-.5 0-.5-.4-.5-.5 1.7-.7 4.7-1.9 5.7-2.2 1.3-.5 1.1-2.3-.3-2.3h-8.1c-.7 0-1.4.4-1.7 1.1-1.2 2.3 2.5 3.6 3.2 3.9l.6 2.4-8.3 11.7c-.6.7-.8 1.3-.8 1.9 0 1.3.8 2.4 2 2.8.2.1.4.1 1.2.3l5.3.7c-1.1 2.5-3.6 4.3-6.5 4.3-3.9 0-7.1-3.2-7.1-7.1 0-3.6 2.7-6.6 6.2-7l2.7-3.8c-.6-.1-1.2-.2-1.8-.2-6.1 0-11 4.9-11 11s4.9 11 11 11c4.9 0 9.1-3.2 10.5-7.7l4.2.6c.9.1 1.8.1 3 .1h8.3c0-.3-.1-.7-.1-1 0-5.6 4.5-10 10.1-10s10.1 4.5 10.1 10c0 .3 0 .7-.1 1h1.4c.9 0 1.8-.7 2-1.6.6-2.8 1.6-9.7 1.6-23.4 0-.5-.4-1-1-1zm-45.7 18 3.9-5.5 1.3 5.5z"/><path d="m48 35c-4.4 0-8 3.6-8 8s3.6 8 8 8 8-3.6 8-8-3.6-8-8-8zm0 12.1c-2.3 0-4.1-1.8-4.1-4.1s1.8-4.1 4.1-4.1 4.1 1.8 4.1 4.1-1.8 4.1-4.1 4.1z"/></svg>