<svg height="64" viewBox="0 0 64 64" width="64" xmlns="http://www.w3.org/2000/svg"><path d="m0 0h64v64h-64z" fill="none"/><path d="m57 18h-1c-.5522 0-1 .4478-1 1v10c0 .5522.4478 1 1 1h1c1.1045 0 2-.8955 2-2v-8c0-1.1045-.8955-2-2-2z"/><path d="m8 18h-1c-1.1046 0-2 .8955-2 2v8c0 1.1045.8954 2 2 2h1c.5522 0 1-.4478 1-1v-10c0-.5522-.4478-1-1-1z"/><path d="m48.3667 7h-32.7334c-2.0747 0-3.8174 1.5161-4.0645 3.5293-.6049 4.9219-1.5688 14.4897-1.5688 25.4707v15s0 3.5737.3661 5.0688c.1334.544.7218.9312 1.4.9312h2.2339 2.2339c.6781 0 1.2666-.3872 1.3999-.9312.2215-.9046.3088-2.5668.3433-3.7414 0 0-3.5943-.7571-4.5943-.953-.3158-.0619-.3359-.2494-.2893-.3744h37.813c.031.1328.0154.3047-.344.3906-.1563.0374-4.5396.9368-4.5396.9368.0345 1.1745.1217 2.8368.3432 3.7414.1334.544.7218.9312 1.4.9312h2.2339 2.2339c.6781 0 1.2666-.3872 1.3999-.9312.3662-1.4951.3662-5.0688.3662-5.0688v-15c0-10.981-.9639-20.5488-1.5688-25.4707-.2471-2.0132-1.9898-3.5293-4.0645-3.5293zm-26.3667 3h20v4h-20zm0 35c0 .5522-.4478 1-1 1h-6c-.5522 0-1-.4478-1-1v-2c0-.6504.6113-1.1279 1.2427-.9702l6 .9702c.4448.1113.7573.5112.7573.9702zm28 0c0 .5522-.4478 1-1 1h-6c-.5522 0-1-.4478-1-1v-1.0298c0-.459.3125-.8589.7573-.9702l6-.9702c.6314-.1577 1.2427.3198 1.2427.9702zm-36.0371-7.9995c.0381-6.6625.4452-14.0733.8612-19.0888.043-.5175.4771-.9117.9964-.9117h32.3603c.5194 0 .9536.3944.9964.9121.4144 5.0116.8218 12.4237.8599 19.0885.0032.5546-.4486.9994-1.0034.9994h-34.0674c-.5548 0-1.0066-.4447-1.0034-.9995z"/></svg>