<?xml version="1.0" encoding="utf-8"?>
<!-- Generator: Adobe Illustrator 19.1.0, SVG Export Plug-In . SVG Version: 6.00 Build 0)  -->
<svg version="1.2" baseProfile="tiny" xmlns="http://www.w3.org/2000/svg" xmlns:xlink="http://www.w3.org/1999/xlink" x="0px"
	 y="0px" width="64px" height="64px" viewBox="0 0 64 64" xml:space="preserve">
<g id="_x36_4px_Box">
	<rect fill="none" width="64" height="64"/>
</g>
<g id="Icon">
	<g>
		<circle cx="21" cy="17.5" r="2"/>
		<circle cx="28" cy="17.5" r="2"/>
		<circle cx="35" cy="17.5" r="2"/>
		<circle cx="42" cy="17.5" r="2"/>
		<circle cx="48.5" cy="17" r="2"/>
		<circle cx="31.5" cy="22.75" r="2.25"/>
		<circle cx="38.5" cy="22.75" r="2.25"/>
		<circle cx="45.5" cy="22.75" r="2.25"/>
		<circle cx="52.3906" cy="21.9167" r="2.25"/>
		<path d="M47.8623,31c1.0107,0,1.9937-0.291,2.8418-0.8418l4.9116-3.1865c-0.2841-0.9781-0.9264-2.053-3.285-1.6545
			c-3.0326,0.5125-3.1545,2.71-3.3159,3.7964c-0.0081,0.0545-0.0152,0.1228-0.0225,0.1884c-0.1909-1.166-0.438-3.0639-3.4924-3.0639
			c-3.0939,0-3.3073,1.9466-3.5,3.1089c-0.1924-1.1613-0.4052-3.1089-3.5-3.1089c-3.0939,0-3.3073,1.9466-3.5,3.1089
			c-0.1924-1.1613-0.4052-3.1089-3.5-3.1089c-3.0939,0-3.3073,1.9466-3.5,3.1089c-0.1924-1.1613-0.4052-3.1089-3.5-3.1089
			c-3.0939,0-3.3073,1.9466-3.5,3.1089c-0.1924-1.1613-0.4052-3.1089-3.5-3.1089c-3.2114,0-3.3194,2.0999-3.522,3.2402
			C13.9049,29.8893,13.843,30.4258,13.8,31H47.8623z"/>
		<circle cx="24.5" cy="22.75" r="2.25"/>
		<circle cx="17.5" cy="22.75" r="2.25"/>
		<path d="M62.5935,29.2066c-1.4596-1.5826-3.8474-1.8829-5.6533-0.7109l-5.1472,3.3406C50.6228,32.5958,49.2576,33,47.8624,33
			H15.6318c-1.8572,0-3.6959,0.3688-5.4095,1.085l-3.5836,1.4978c-0.0405-0.0442-0.161-0.2177,0.0947-0.4313
			c0.1846-0.1542,5.2966-3.5994,5.2966-3.5994c-0.0062-1.056-0.152-2.4412-0.7861-3.2664C10,26.6666,5.1334,26.8,3,28
			c-2.0194,1.1359-2.3929,5.6375-1.6464,7.4791c0.5594,1.3798,1.7975,2.5939,2.3587,5.3788
			c2.3263-0.066,4.7207-1.7501,6.7213-3.0474c1.9766,1.2871,4.4814,3.0596,6.8525,3.0596c2.3859,0,4.8636-1.7651,6.8564-3.0742
			c1.9973,1.3121,4.4717,3.0742,6.8574,3.0742c2.3693,0,4.8177-1.7338,6.8604-3.0596c1.995,1.298,4.4872,3.0596,6.8535,3.0596
			c2.3693,0,4.8177-1.7338,6.8604-3.0596c1.5189,0.9883,3.326,2.2402,5.1464,2.7838l5.6081-5.1334
			C64.1334,33.8091,64.2521,31.0051,62.5935,29.2066z"/>
		<path d="M51.5723,40.4343c-1.9217,1.2474-4.3122,2.6357-6.8584,2.6357c-2.531,0-4.9498-1.3942-6.8555-2.6357
			C35.9367,41.6816,33.5462,43.07,31,43.07c-2.5021,0-4.9015-1.3582-6.8569-2.6426c-1.9785,1.2996-4.3679,2.6426-6.8569,2.6426
			c-2.531,0-4.9498-1.3942-6.8555-2.6357C8.5014,41.6866,6.1135,43.07,3.5718,43.07c-0.8727,0-1.7592-0.1942-2.5718-0.4539v4.0706
			C1.825,46.8756,2.6932,47,3.5718,47c2.7476,0,5.415-1.1777,6.8574-1.9424C11.8711,45.8223,14.5386,47,17.2861,47
			c2.7471,0,5.415-1.1777,6.8569-1.9424C25.585,45.8223,28.2524,47,31,47s5.415-1.1777,6.8569-1.9424
			C39.2988,45.8223,41.9668,47,44.7139,47c2.7476,0,5.415-1.1777,6.8569-1.9424C53.0132,45.8223,55.6807,47,58.4282,47
			c0.8786,0,1.7468-0.1244,2.5718-0.3134V42.614c-0.8141,0.2608-1.7014,0.456-2.5718,0.456
			C55.8972,43.07,53.478,41.6758,51.5723,40.4343z"/>
	</g>
</g>
</svg>
