<svg height="64" viewBox="0 0 64 64" width="64" xmlns="http://www.w3.org/2000/svg"><path d="m0 0h64v64h-64z" fill="none"/><circle cx="21" cy="17.5" r="2"/><circle cx="28" cy="17.5" r="2"/><circle cx="35" cy="17.5" r="2"/><circle cx="42" cy="17.5" r="2"/><circle cx="48.5" cy="17" r="2"/><circle cx="31.5" cy="22.75" r="2.25"/><circle cx="38.5" cy="22.75" r="2.25"/><circle cx="45.5" cy="22.75" r="2.25"/><circle cx="52.3906" cy="21.9167" r="2.25"/><path d="m47.8623 31c1.0107 0 1.9937-.291 2.8418-.8418l4.9116-3.1865c-.2841-.9781-.9264-2.053-3.285-1.6545-3.0326.5125-3.1545 2.71-3.3159 3.7964-.0081.0545-.0152.1228-.0225.1884-.1909-1.166-.438-3.0639-3.4924-3.0639-3.0939 0-3.3073 1.9466-3.5 3.1089-.1924-1.1613-.4052-3.1089-3.5-3.1089-3.0939 0-3.3073 1.9466-3.5 3.1089-.1924-1.1613-.4052-3.1089-3.5-3.1089-3.0939 0-3.3073 1.9466-3.5 3.1089-.1924-1.1613-.4052-3.1089-3.5-3.1089-3.0939 0-3.3073 1.9466-3.5 3.1089-.1924-1.1613-.4052-3.1089-3.5-3.1089-3.2114 0-3.3194 2.0999-3.522 3.2402-.073.411-.1349.9475-.1779 1.5217z"/><circle cx="24.5" cy="22.75" r="2.25"/><circle cx="17.5" cy="22.75" r="2.25"/><path d="m62.5935 29.2066c-1.4596-1.5826-3.8474-1.8829-5.6533-.7109l-5.1472 3.3406c-1.1702.7595-2.5354 1.1637-3.9306 1.1637h-32.2306c-1.8572 0-3.6959.3688-5.4095 1.085l-3.5836 1.4978c-.0405-.0442-.161-.2177.0947-.4313.1846-.1542 5.2966-3.5994 5.2966-3.5994-.0062-1.056-.152-2.4412-.7861-3.2664-1.2439-1.6191-6.1105-1.4857-8.2439-.2857-2.0194 1.1359-2.3929 5.6375-1.6464 7.4791.5594 1.3798 1.7975 2.5939 2.3587 5.3788 2.3263-.066 4.7207-1.7501 6.7213-3.0474 1.9766 1.2871 4.4814 3.0596 6.8525 3.0596 2.3859 0 4.8636-1.7651 6.8564-3.0742 1.9973 1.3121 4.4717 3.0742 6.8574 3.0742 2.3693 0 4.8177-1.7338 6.8604-3.0596 1.995 1.298 4.4872 3.0596 6.8535 3.0596 2.3693 0 4.8177-1.7338 6.8604-3.0596 1.5189.9883 3.326 2.2402 5.1464 2.7838l5.6081-5.1334c1.8047-1.6518 1.9234-4.4558.2648-6.2543z"/><path d="m51.5723 40.4343c-1.9217 1.2474-4.3122 2.6357-6.8584 2.6357-2.531 0-4.9498-1.3942-6.8555-2.6357-1.9217 1.2473-4.3122 2.6357-6.8584 2.6357-2.5021 0-4.9015-1.3582-6.8569-2.6426-1.9785 1.2996-4.3679 2.6426-6.8569 2.6426-2.531 0-4.9498-1.3942-6.8555-2.6357-1.9293 1.2523-4.3172 2.6357-6.8589 2.6357-.8727 0-1.7592-.1942-2.5718-.4539v4.0706c.825.1889 1.6932.3133 2.5718.3133 2.7476 0 5.415-1.1777 6.8574-1.9424 1.4419.7647 4.1094 1.9424 6.8569 1.9424 2.7471 0 5.415-1.1777 6.8569-1.9424 1.442.7647 4.1094 1.9424 6.857 1.9424s5.415-1.1777 6.8569-1.9424c1.4419.7647 4.1099 1.9424 6.857 1.9424 2.7476 0 5.415-1.1777 6.8569-1.9424 1.4424.7647 4.1099 1.9424 6.8574 1.9424.8786 0 1.7468-.1244 2.5718-.3134v-4.0726c-.8141.2608-1.7014.456-2.5718.456-2.531 0-4.9502-1.3942-6.8559-2.6357z"/></svg>