<?xml version="1.0" encoding="utf-8"?>
<!-- Generator: Adobe Illustrator 18.1.0, SVG Export Plug-In . SVG Version: 6.00 Build 0)  -->
<svg version="1.2" baseProfile="tiny" xmlns="http://www.w3.org/2000/svg" xmlns:xlink="http://www.w3.org/1999/xlink" x="0px"
	 y="0px" width="64px" height="64px" viewBox="0 0 64 64" overflow="inherit" xml:space="preserve">
<g id="_x36_4px_Boxes">
	<rect fill="none" width="64" height="64"/>
</g>
<g id="Production">
	<g>
		<path d="M5.25,19H4.5C3.6716,19,3,19.6716,3,20.5v6C3,27.3284,3.6716,28,4.5,28h0.75C5.6646,28,6,27.6641,6,27.25v-7.5
			C6,19.3358,5.6646,19,5.25,19z"/>
		<path d="M44,30.1666c-8.7446,0-15.8333,7.0881-15.8333,15.8334c0,8.7452,7.0887,15.8333,15.8333,15.8333
			c8.7452,0,15.8333-7.0881,15.8333-15.8333C59.8333,37.2548,52.7452,30.1666,44,30.1666z M44,57.913
			c-6.5688,0-11.913-5.3441-11.913-11.913S37.4312,34.087,44,34.087S55.913,39.4312,55.913,46S50.5688,57.913,44,57.913z"/>
		<path d="M51.5262,45.8415h0.0239l-7.064-0.699l-0.5521-7.724c-0.0618-0.548-0.444-0.9477-0.9896-0.9477
			s-0.9484,0.355-0.9886,0.9477l-0.6607,9.0921c0,0.8514,0.651,1.5514,1.4818,1.6361c0.0493,0.028,8.7493-0.6211,8.7493-0.6211
			c0.5718-0.0554,0.9896-0.2966,0.9896-0.8424C52.5159,46.1382,52.1348,45.8828,51.5262,45.8415z"/>
		<path d="M26.2347,39c1.7183-4.348,4.9913-7.8992,9.132-10h-24.224c-0.4863,0-0.8301-0.4329-0.8214-0.9437
			c0.0532-3.173,0.5339-8.373,1.0952-11.2849C11.5002,16.3369,11.8135,16,12.2363,16h25.6854c0.4228,0,0.7513,0.3339,0.8197,0.7714
			c0.5264,3.3404,0.9772,7.3494,1.0763,10.6322c1.001-0.2238,2.025-0.3876,3.0784-0.4479
			c-0.1591-2.3112-0.5109-6.6733-1.1234-10.7101c-0.3204-2.1113-1.5037-5.0682-2.6622-6.8014
			c-0.3588-0.537-0.8691-0.9236-1.4437-1.1665c0.1656-0.5048,0.1829-1.0534,0.0113-1.5682l-0.5528-1.6582
			C36.7163,3.8243,35.5726,3,34.2792,3H15.7208c-1.2933,0-2.4371,0.8243-2.8461,2.0513L12.322,6.7094
			c-0.1716,0.515-0.1544,1.0637,0.0114,1.5686c-0.5748,0.243-1.0852,0.6295-1.4438,1.1662
			c-1.1585,1.7332-2.2659,4.7029-2.6622,6.8014C7.4091,20.5745,7,28.614,7,28.614v3.2983V49.228c0,0,0,3.4379,0.3372,4.8762
			C7.4594,54.6275,8.0011,55,8.6252,55h4.7496c0.6241,0,1.1658-0.3725,1.288-0.8958c0.2042-0.8712,0.2844-2.4729,0.3162-3.603
			l-5.7139-1.1371C8.9479,49.2623,8.9943,49.0562,9.0152,49h16.1432c-0.155-0.9797-0.2584-1.9767-0.2584-3
			c0-0.3375,0.0315-0.6669,0.0488-1H18v-2h7.1562c0.1076-0.6793,0.2467-1.3467,0.424-2H18v-2H26.2347z M28,5h6.372
			c0.4348,0,0.8207,0.2632,0.9582,0.6756l0.5582,1.6747C35.9904,7.6561,35.7797,7.9604,35.4705,8C33.5282,8,30.757,8,28,8V5z
			 M14.1116,7.3503l0.5582-1.6747C14.8073,5.2632,15.1932,5,15.628,5H22v3h-7.4705C14.2204,7.9604,14.0096,7.6561,14.1116,7.3503z
			 M29,32l-3.9413,4H25.045h-0.0137l-4.0215-4H29z M10.9998,32L15,36h-4.0002V32z M16,46.5c0,0.2761-0.2239,0.5-0.5,0.5h-5
			c-0.2761,0-0.5-0.2239-0.5-0.5v-3c0-0.2762,0.2239-0.5,0.5-0.5h5c0.2761,0,0.5,0.2238,0.5,0.5V46.5z M14.2195,32h3.5903L21.8,36
			h-3.5903L14.2195,32z"/>
		<path d="M47,26.5v-6c0-0.8284-0.6716-1.5-1.5-1.5h-0.75C44.3354,19,44,19.3358,44,19.75v7.15c0.9725,0,1.9204,0.0958,2.8538,0.236
			C46.9451,26.9423,47,26.7283,47,26.5z"/>
	</g>
</g>
</svg>
