<?xml version="1.0" encoding="utf-8"?>
<!-- Generator: Adobe Illustrator 25.0.0, SVG Export Plug-In . SVG Version: 6.00 Build 0)  -->
<svg version="1.1" xmlns="http://www.w3.org/2000/svg" xmlns:xlink="http://www.w3.org/1999/xlink" x="0px" y="0px"
	 viewBox="0 0 64 64" style="enable-background:new 0 0 64 64;" xml:space="preserve">
<style type="text/css">
	.st0{fill:none;}
	.st1{fill:#FFFFFF;}
</style>
<g id="Box">
	<rect class="st0" width="64" height="64"/>
</g>
<g id="Icon">
	<g>
		<path d="M8,12H2c-0.552,0-1,0.448-1,1v9c0,0.552,0.448,1,1,1h2v31h2V23h2c0.552,0,1-0.448,1-1v-9C9,12.448,8.552,12,8,12z"/>
		<path d="M50.5,42h-12c-0.828,0-1.5,0.672-1.5,1.5s0.672,1.5,1.5,1.5h12c0.828,0,1.5-0.672,1.5-1.5S51.328,42,50.5,42z"/>
		<path d="M32.889,28.674c-1.745-0.416-4.082-0.416-5.779,0c-3.327,0.817-3.108,6.091-3.108,10.647
			c0.11,1.596,1.284,2.05,1.988,2.05c0-0.074,0-4.519,0-4.794c0-1.804,0.176-3.211,0.396-3.913c0.067-0.214,0.214-0.173,0.214-0.173
			v21.443c0,0,2.544,0.02,2.739-2.641c0,0,0.381-10.064,0.385-10.176c0.004-0.112,0.088-0.258,0.276-0.258s0.266,0.146,0.27,0.258
			c0.004,0.112,0.382,10.103,0.382,10.103c0.151,2.74,2.747,2.714,2.747,2.714V32.491c0,0,0.158-0.055,0.235,0.173
			c0.212,0.629,0.375,2.109,0.375,3.888c0,0.367,0,4.819,0,4.819c0.704,0,1.863-0.438,1.988-2.05
			C35.997,34.765,36.222,29.469,32.889,28.674z"/>
		<path d="M32.59,24.431c0-1.895-0.992-2.911-2.59-2.911c-1.683,0-2.59,1.201-2.59,2.911c0,1.802,0.949,2.818,2.59,2.818
			S32.59,26.094,32.59,24.431z M28.284,25.155l1.13-0.433c0.377-0.145,0.794-0.145,1.172,0l1.117,0.428
			c-0.156,0.621-0.577,1.303-1.702,1.303C29.034,26.453,28.472,26.021,28.284,25.155z"/>
		<path d="M62,14H14c-0.552,0-1,0.448-1,1v2c0,0.552,0.448,1,1,1h6.981c0.047,0.125,0.027,0.312-0.289,0.374
			c-0.342,0.067-0.99,0.2-1.692,0.346V54h3V18h32v36h3V18h5c0.552,0,1-0.448,1-1v-2C63,14.448,62.552,14,62,14z"/>
	</g>
</g>
</svg>
