<svg enable-background="new 0 0 64 64" viewBox="0 0 64 64" xmlns="http://www.w3.org/2000/svg"><path d="m0 0h64v64h-64z" fill="none"/><path d="m8 12h-6c-.552 0-1 .448-1 1v9c0 .552.448 1 1 1h2v31h2v-31h2c.552 0 1-.448 1-1v-9c0-.552-.448-1-1-1z"/><path d="m50.5 42h-12c-.828 0-1.5.672-1.5 1.5s.672 1.5 1.5 1.5h12c.828 0 1.5-.672 1.5-1.5s-.672-1.5-1.5-1.5z"/><path d="m32.889 28.674c-1.745-.416-4.082-.416-5.779 0-3.327.817-3.108 6.091-3.108 10.647.11 1.596 1.284 2.05 1.988 2.05 0-.074 0-4.519 0-4.794 0-1.804.176-3.211.396-3.913.067-.214.214-.173.214-.173v21.443s2.544.02 2.739-2.641c0 0 .381-10.064.385-10.176s.088-.258.276-.258.266.146.27.258.382 10.103.382 10.103c.151 2.74 2.747 2.714 2.747 2.714v-21.443s.158-.055.235.173c.212.629.375 2.109.375 3.888v4.819c.704 0 1.863-.438 1.988-2.05 0-4.556.225-9.852-3.108-10.647z"/><path d="m32.59 24.431c0-1.895-.992-2.911-2.59-2.911-1.683 0-2.59 1.201-2.59 2.911 0 1.802.949 2.818 2.59 2.818s2.59-1.155 2.59-2.818zm-4.306.724 1.13-.433c.377-.145.794-.145 1.172 0l1.117.428c-.156.621-.577 1.303-1.702 1.303-.967 0-1.529-.432-1.717-1.298z"/><path d="m62 14h-48c-.552 0-1 .448-1 1v2c0 .552.448 1 1 1h6.981c.047.125.027.312-.289.374-.342.067-.99.2-1.692.346v35.28h3v-36h32v36h3v-36h5c.552 0 1-.448 1-1v-2c0-.552-.448-1-1-1z"/></svg>