<?xml version="1.0" encoding="utf-8"?>
<!-- Generator: Adobe Illustrator 21.0.2, SVG Export Plug-In . SVG Version: 6.00 Build 0)  -->
<!DOCTYPE svg PUBLIC "-//W3C//DTD SVG 1.1//EN" "http://www.w3.org/Graphics/SVG/1.1/DTD/svg11.dtd">
<svg version="1.1" xmlns="http://www.w3.org/2000/svg" xmlns:xlink="http://www.w3.org/1999/xlink" x="0px" y="0px" width="64px"
	 height="64px" viewBox="0 0 64 64" style="enable-background:new 0 0 64 64;" xml:space="preserve">
<style type="text/css">
	.st0{fill:none;}
</style>
<g id="_x36_4px_Box">
	<rect class="st0" width="64" height="64"/>
</g>
<g id="Icon">
	<g>
		<path d="M32.2,24.4c3-1.1,5.8-2.2,8.5-3c2.5-0.8,6.8-1.5,10.9-0.6c-0.3-0.6-0.8-1.3-1.4-2.2c-3.8-0.6-7.8-0.4-11.6,0.8
			c-2.6,0.8-5.3,1.8-8.1,2.9c-3.9,1.4-7.9,2.9-12.5,4.4c-3.1,1-5.9,1.8-8.4,2.4l-1.1,2.9c2.9-0.7,6.4-1.7,10.2-2.9
			C23.9,27.5,28.3,25.8,32.2,24.4z"/>
		<path d="M34,29.1c4.1-1.5,7.7-2.9,11.1-3.8c4.2-1.2,7.3-1.4,10.7-1c0.1,0,0.2,0,0.3,0.1c-4.8-3.8-11.7-1.5-14.5-0.6
			c-2.6,0.9-5.5,1.9-8.4,3c-3.9,1.5-8.4,3.1-13.4,4.7c-4.6,1.4-8.9,2.6-12,3.4l-1.1,2.8c3.3-0.8,8.3-2.1,13.8-3.8
			C25.5,32.2,30,30.5,34,29.1z"/>
		<path d="M11.4,45c2,1.3,4.4,3,6.9,3c2.4,0,4.9-1.8,6.9-3c2,1.3,4.4,3,6.9,3c2.4,0,4.8-1.7,6.9-3c2,1.3,4.4,3,6.9,3
			c2.4,0,4.8-1.7,6.9-3c0.7,0.5,1.5,1,2.3,1.5c0.3-1.7,0.8-3.8,1.8-6.3c0.9-0.2,1.6-0.2,2.1-0.9c0.3-0.4,0.5-1,0.4-1.4
			c-0.1-0.6-0.1-1.3-0.2-1.9c1.1-1.7,2.4-3.3,4.1-5c0,0-2.9-4.2-7.7-4.5c-9-0.7-18.5,4.8-34.2,9.7C11.1,39.3,3,41,3,41
			s-0.5,4.1,2.1,7C7.4,47.8,9.6,46.3,11.4,45z M37.5,35.3c0.3-0.1,0.6,0,0.8,0.2c0.6,0.8,1.2,1.6,1.7,2.4c1.3-0.4,1.8-0.6,3.1-0.9
			c0,0-0.2-1.5-0.2-3c0-0.5,0.3-0.9,0.8-0.9c0.4,0,0.7,0.2,0.8,0.6c0.3,1,0.5,2,0.7,3c0.1,0.4,0,1-0.3,1.5c-0.2,0.3-0.5,0.6-0.9,0.8
			c-0.7,0.2-2.4,0.8-3.2,1c-0.5,0.1-0.8,0.2-1.4,0.1c-0.5-0.2-1-0.5-1.2-1c-0.4-0.9-0.8-1.9-1.2-2.9C36.9,35.9,37.1,35.5,37.5,35.3z
			"/>
		<path d="M29.8,19.9c2.9-1.1,5.5-2.1,8.2-2.9c3.6-1.2,7.2-1.4,10.6-1c-0.3-0.4-0.6-0.8-0.9-1.3c-0.6-0.8-1.5-1.3-2.5-1.3
			c-0.9,0-1.9,0-2.8,0.1l-3.6-5.2c-0.3-0.4-0.8-0.6-1.3-0.3c-0.4,0.2-0.6,0.7-0.5,1.2l0.6,1.9c0.5,1.7-0.3,3.5-1.8,4.1
			c-2.3,0.8-4.7,1.7-11.3,4.1c0,0-0.2-0.2,0.1-0.4l4.2-2.5c-0.5-1.1-1.2-2.7-2.4-3.5c-1.7-1.1-5.4,0.1-7,2.3c-1.4,2-1.9,6.9-2.2,9.3
			c0,0,0,0,0,0C21.8,22.9,25.9,21.4,29.8,19.9z"/>
		<path d="M52.6,47.4c-1.9,1.2-4.3,2.6-6.9,2.6c-2.5,0-4.9-1.4-6.9-2.6c-1.9,1.2-4.3,2.6-6.9,2.6c-2.5,0-4.9-1.4-6.9-2.6
			c-2,1.3-4.4,2.6-6.9,2.6c-2.5,0-4.9-1.4-6.9-2.6c-1.9,1.3-4.3,2.6-6.9,2.6c-1.2,0-2.5-0.4-3.6-0.8v4.2C2.1,53.8,3.3,54,4.6,54
			c2.7,0,5.4-1.2,6.9-1.9c1.4,0.8,4.1,1.9,6.9,1.9c2.7,0,5.4-1.2,6.9-1.9c1.4,0.8,4.1,1.9,6.9,1.9c2.7,0,5.4-1.2,6.9-1.9
			c1.4,0.8,4.1,1.9,6.9,1.9c2.7,0,5.4-1.2,6.9-1.9c1.4,0.8,4.1,1.9,6.9,1.9c1.2,0,2.5-0.2,3.6-0.6v-4.2c-1,0.4-2.3,0.8-3.6,0.8
			C56.9,50.1,54.5,48.7,52.6,47.4z"/>
	</g>
</g>
</svg>
