<svg height="64" viewBox="0 0 64 64" width="64" xmlns="http://www.w3.org/2000/svg"><path d="m0 0h64v64h-64z" fill="none"/><path d="m6 20.5c0-3.8599 3.1401-7 7-7v4.5c0 1.6569 1.3431 3 3 3h8v-3h7.5c.8284 0 1.5-.6716 1.5-1.5s-.6716-1.5-1.5-1.5h-7.5v-6h7.5c.8284 0 1.5-.6716 1.5-1.5s-.6716-1.5-1.5-1.5h-7.5v-3h-8c-1.6569 0-3 1.3431-3 3v4.5c-5.5142 0-10 4.4858-10 10v19.4305c.8906-.8846 1.902-1.645 3-2.2703z"/><path d="m51 38c-.7012 0-1.3797.0845-2.0466.2032-.6168-2.6909-1.2395-5.4439-1.2395-5.4439l-.0085.0002-2.0213-10.1363c-.2092-1.0397-1.2016-1.747-2.2613-1.5864l-5.7255.8681c-.7474.1126-1.3207.7575-1.3203 1.5361.0002.8578.6957 1.553 1.5536 1.5527l.235-.0001 3.9122-.0014 1.0959 5.4953-20.3728 3.9159-.6935-2.4034c-.9981 0-1.9877 0-2.1855 0-.2969 0-.2872-.2565-.2872-.2565s5.652-2.3718 6.701-2.7791c1.0338-.4014.7851-1.9644-.3369-1.9644h-9.8103c-.7862 0-1.5352.3613-1.9239.9717-1.3857 2.1795 3.0879 3.8028 3.6717 4.0035l1.2091 4.1898s-8.2109 11.4381-8.4696 11.799c-1.4977 2.0888-.3414 4.6726 1.8852 5.0017 1.4473.2139 7.5444 1.0219 7.5444 1.0219-1.395 2.488-4.0492 4.1724-7.1054 4.1724-4.5064 0-8.16-3.6532-8.16-8.16 0-4.2976 3.3242-7.8109 7.54-8.1287l2.6277-3.6901c-.6542-.1105-1.322-.1812-2.0077-.1812-6.627 0-12 5.3726-12 12s5.373 12 12 12c5.0252 0 9.3234-3.0922 11.1105-7.4753l3.3553.4357c2.8154.3365 4.5342-1.8493 4.5342-3.9604 0-.5786-.1284-1.1251-.3494-1.6216l12.623-13.8085c.2865 1.1377.6587 2.5028 1.0965 3.8476 2.4072 7.4013 5.3897 10.9087 5.7891 11.3823.4131.4878 1.1631.1704 1.0703-.3633-.1049-.6075-1.1976-3.4256-2.4075-8.4975.3851-.0587.7762-.099 1.178-.099 4.5064 0 8.16 3.6531 8.16 8.16 0 4.5068-3.6536 8.16-8.16 8.16s-8.16-3.6532-8.16-8.16c0-2.164.8483-4.1256 2.2228-5.5861-.4974-1.146-.9936-2.4263-1.4707-3.842-2.7924 2.1971-4.5921 5.5992-4.5921 9.4281 0 6.6274 5.373 12 12 12s12-5.3726 12-12-5.373-12-12-12zm-34.7083 9 4.2656-5.9424 1.7149 5.9424zm12.0989 0h-1.9546l-2.5214-8.7377 15.1367-2.9094z"/></svg>