<svg enable-background="new 0 0 64 64" height="64" viewBox="0 0 64 64" width="64" xmlns="http://www.w3.org/2000/svg"><path d="m0 0h64v64h-64z" fill="none"/><path d="m13 51c5 0 9.3-3.1 11.1-7.5l3 .4c.9.1 1.3.1 1.4 0 2-.2 3.5-1.9 3.5-4 0-.9-.3-1.7-.8-2.4l11.1-13c.3 1.1.6 2.4 1.1 3.8 2.4 7.4 5.4 10.9 5.8 11.4s1.2.2 1.1-.4c-.2-.5-1.3-3.3-2.5-8.3.4-.1.8-.1 1.2-.1 4.5 0 8.1 3.6 8.1 8.1s-3.6 8.1-8.1 8.1-8.1-3.6-8.1-8.1c0-2.2.9-4.1 2.2-5.6-.5-1.2-1-2.5-1.5-3.9-2.8 2.2-4.6 5.7-4.6 9.5 0 6.6 5.4 12 12 12s12-5.4 12-12-5.4-12-12-12c-.7 0-1.4.1-2 .2-.5-1.8-2.2-10.5-3.3-15.6-.2-1-1.2-1.7-2.3-1.6l-5.7.9c-.7.1-1.3.8-1.3 1.5 0 .9.7 1.6 1.6 1.6.1 0 4.3 0 4.1 0l1.1 5.8-13.9 16.2h-.9l-3.8-13c-1 0-2 0-2.2 0-.3 0-.3-.3-.3-.3s5.7-2.4 6.7-2.8.8-2-.3-2h-9.8c-.8 0-1.5.4-1.9 1-1.4 2.2 3.1 3.8 3.7 4l.6 2.2-8.4 11.9c-.5.8-.7 1.4-.7 2 0 1.4.9 2.5 2.2 2.9.4.1.7.1.9.2l6.9.9c-1.4 2.5-4 4.1-7 4.1-4.5 0-8.1-3.6-8.1-8.1 0-4.3 3.4-7.9 7.7-8.1l2.6-3.7c-.7-.1-1.4-.2-2.2-.2-6.6 0-12 5.4-12 12s5.4 12 12 12zm3.3-15 4.2-5.9 1.7 5.9z"/><path d="m61 11.1c-.1-.5-.6-.9-1.1-.8l-12.9 2.6c-.5.1-.9.6-.8 1.1l2.1 10.9c.1.5.6.9 1.1.8l12.8-2.5c.5-.1.9-.6.8-1.1zm-5 5.1-3.1.6c-.6.1-1-.3-1.1-.8s.1-1.1.7-1.2l3.1-.6c.6-.1 1 .3 1.1.8.1.6-.1 1.1-.7 1.2z"/></svg>