<svg height="64" viewBox="0 0 64 64" width="64" xmlns="http://www.w3.org/2000/svg"><path d="m0 0h64v64h-64z" fill="none"/><path d="m5.7667 18c3.285 0 18.2333-1 18.2333-1h4s14.9483 1 18.2333 1c2.2421 0 4.081-.693 4.5459-1.767l.0001-.052c.465-1.074-.1304-1.767-1.2043-1.767-3.2851 0-21.575.586-21.575.586v-.1053c0-1.1046-.8954-1.6827-2-1.6827s-2 .5781-2 1.6827v.1053s-18.2899-.586-21.5749-.586c-1.074 0-1.6693.693-1.2043 1.767v.0001l.0001.052c.4648 1.0739 2.3037 1.7669 4.5458 1.7669z"/><path d="m62.3397 18h-1.7553c-.361 0-.694.1946-.8713.5092l-4.7835 8.4908h-15.3915l-6.597-4.6359c-1.2567-.8831-2.817-1.3641-4.4252-1.3641h-.5159v-2h-4v2h-.3066c-2.1916 0-3.896 1.3604-5.2195 2.7266l4.5691.9093c.3172.1018.2708.3079.2499.3641h-5.981c-7.2405 0-12.3119 4.5714-15.2241 9.5-1.1367 1.9236-1.2872 3.4997.5288 5 1.723 1.4234 3.8132 2.3592 7.3455 2.9023l-1.2302 4.5977h-.4448c-1.606 0-3.126-.7002-4.1704-1.9204-.3584-.4204-.9912-.4683-1.4097-.1099-.4199.3589-.4688.9902-.1099 1.4097 1.4249 1.6655 3.4986 2.6206 5.69 2.6206h27.7129c.5522 0 1-.4478 1-1s-.4478-1-1-1h-5.2983l-1.2827-4.7934c2.7131-.7144 4.301-1.9119 6.3105-3.6051 1.4738-1.2417 2.9663-3.02 4.2155-4.6818l16.2463-2.2228 2.0763 2.8869c.188.2613.4901.4162.8119.4162h2.2388c.3378 0 .5784-.3281.4769-.6502l-1.7952-5.6998 2.821-10.0144c.0898-.3191-.1499-.6356-.4813-.6356zm-56.0027 17.0461c-.5291-.0898-.6788-.559-.2401-1.1207 2.174-2.7828 5.7891-5.9254 11.2151-5.9254h2.9604c.9542 0 1.7276.7734 1.7276 1.7275 0 2.9119-2.3875 4.8772-5.2725 5.2725-2.9107.3988-9.6451.1727-10.3905.0461zm4.4648 11.9539 1.1638-4.3493c2.3666.237 5.274.3493 8.9593.3493 2.7252 0 4.8231-.133 6.5311-.3942l1.1758 4.3942z"/></svg>