<?xml version="1.0" encoding="utf-8"?>
<!-- Generator: Adobe Illustrator 22.1.0, SVG Export Plug-In . SVG Version: 6.00 Build 0)  -->
<!DOCTYPE svg PUBLIC "-//W3C//DTD SVG 1.1//EN" "http://www.w3.org/Graphics/SVG/1.1/DTD/svg11.dtd">
<svg version="1.1" xmlns="http://www.w3.org/2000/svg" xmlns:xlink="http://www.w3.org/1999/xlink" x="0px" y="0px" width="64px"
	 height="64px" viewBox="0 0 64 64" style="enable-background:new 0 0 64 64;" xml:space="preserve">
<style type="text/css">
	.st0{fill:none;}
</style>
<g id="Box">
	<rect class="st0" width="64" height="64"/>
</g>
<g id="Label">
</g>
<g id="Icon">
	<g>
		<path d="M50,31.9c0-2.5,0-4.5,0-5.1c1.3-0.7,4-2.1,4.7-3.6c0.5-1,0.2-2.8-1.5-3.1c-0.7-0.1-2.3,0-3.5,0.2C49,14.9,47.6,6.7,47,5
			c-0.4-1.2-1.8-1.7-3.2-2c0,0-7.2-1-15.8-1S12.2,3,12.2,3C10.8,3.3,9.4,3.8,9,5c-0.6,1.7-2,9.9-2.7,15.2c-1.2-0.2-2.8-0.3-3.5-0.2
			c-1.7,0.3-2,2.1-1.5,3.1c0.7,1.5,3.4,3,4.7,3.6c0,2.5,0,23.6,0,23.6s0,4,0.4,5.6c0.1,0.6,0.8,1,1.6,1h6c0.8,0,1.4-0.4,1.6-1
			c0.3-1,0.3-3,0.4-4.5l-5.7-1.1C9.9,50.3,10,50.1,10,50h23.9c0-0.7,0-1.4,0-2H21v-3h12.9c0.1-2.6,0.2-5.5,0.6-7.7
			c0.4-2.5,2.3-4.4,4.8-4.8C42.3,32,46.8,31.9,50,31.9z M17.8,44l-6.3-0.5c-1.7-0.1-2.8-1.5-3.1-3l-0.3-1.8c-0.2-1.1,1-2.1,2.1-1.7
			l5.1,1.4c1.1,0.4,1.9,1.3,2.3,2.4l0.7,2.6C18.5,43.6,18.2,44,17.8,44z M28,28.1c-9.3,0-14.9-1.8-17.3-2.9c-0.7-0.3-1.1-1.1-1-1.9
			c0.5-3.5,2-12.9,2.4-14.7c0.1,0,8-0.8,15.9-0.8c7.9,0,15.8,0.8,15.9,0.8c0.4,1.8,1.9,11.3,2.4,14.7c0.1,0.8-0.3,1.6-1,1.9
			C42.9,26.3,37.3,28.1,28,28.1z"/>
		<path d="M62.4,37.8c-0.2-1.2-1.1-2.1-2.3-2.3C56.8,35,51.1,35,50,35c-1.1,0-6.8,0-10.2,0.6c-1.2,0.2-2.1,1.1-2.3,2.3
			C37,41.2,37,46.9,37,48c0,1.1,0,6.8,0.6,10.2c0.2,1.2,1.1,2.1,2.3,2.3C43.2,61,48.9,61,50,61c1.1,0,6.8,0,10.2-0.6
			c1.2-0.2,2.1-1.1,2.3-2.3C63,54.8,63,49.1,63,48C63,44.6,63,41.2,62.4,37.8z M50.7,39.3c0.2-1.2,1-2,2.2-1.8
			c1.1,0.2,1.7,1,1.5,2.4c-0.2,1.2-1,1.9-2.2,1.7C51,41.4,50.5,40.5,50.7,39.3z M50.5,58.2c-3.1,0-5.7-2.6-5.7-5.7
			c0-1.5,0.6-2.9,1.6-3.9c0,0.2,0,0.4,0,0.6c0,0.9,0.3,1.7,0.8,2.3c-0.1,0.3-0.2,0.7-0.2,1.1c0,1.9,1.6,3.5,3.5,3.5
			c1.2,0,2.3-0.6,2.9-1.6c0.1,0.2,0.2,0.5,0.3,0.7l0.2,0.5c0.1,0.4,0.3,0.7,0.5,1C53.4,57.6,52,58.2,50.5,58.2z M55.3,55
			c-0.4-1-1-2.8-1.4-4c0,0-2.7,0-3.8,0c-1.1,0-2.2-0.6-2.2-1.9c0-0.9,0.1-2.7,0.4-4.2c-0.5,0.1-1.1,0.4-1.4,0.7
			c-0.5,0.5-1.7,2-2.2,2.5c-0.2,0.2-1,0.9-1.9,0.4c0.6-1,1.9-3.2,2.6-4.1c0.2-0.2,0.4-0.5,0.8-0.7c1.2-0.8,2.4-1.3,3-1.5
			c0.8-0.3,2-0.2,2.6,0.5c0.5,0.6,0.3,1.1,0.2,2c-0.1,0.7-0.2,1.9-0.4,3.1c0.8,0.2,2.2,0.5,3,0.8c0.5,0.2,0.7,0.4,1,1.1
			c0.6,1.4,1.4,5.3,1.8,6.8C57.1,56.7,56,56.9,55.3,55z"/>
	</g>
</g>
</svg>
