<svg height="64" viewBox="0 0 64 64" width="64" xmlns="http://www.w3.org/2000/svg"><path d="m0 0h64v64h-64z" fill="none"/><path d="m15.8665 38.5579c1.4567-1.0142 3.2241-1.5855 5.1335-1.5855 3.917 0 7.2402 2.0276 8.4769 6.0276h5.0461c1.2368-4 4.5599-6.0276 8.4769-6.0276 1.9095 0 3.6769.5851 5.1335 1.5993l5.0038-7.0122c1.2116-1.696 1.8628-3.735 1.8628-5.8193v-10.7402h-13.9848c-.0209 0-.0673-.2899.2499-.3917l9.3919-1.9138-1.0365-2.1345c-.1223-.2511-.3441-.4431-.6116-.5233l-3.866-1.1615-.9498-1.2474c-.1256-.1649-.2993-.287-.4971-.3489l-1.5132-.4731c-.3077-.0961-.6342-.1165-.9515-.0593l-3.8741.6985-3.5967-2.4806c-.331-.2283-.7664-.2361-1.1054-.02l-4.3693 2.7862s-1.2857-1.2143-3-.9285c-1.7143.2857-4.1428 2.5-4.1428 2.5l-1.3495-.6478c-.2757-.1323-.5965-.1313-.8713.0027l-2.123 1.0356c-.2374.1158-.4193.3208-.5061.5703l-.436 1.2534-2.5184.9594c-.3021.1151-.53.3967-.6116.7096l-.4662 1.8147h-3.2609v10.7402c0 2.0842.6512 4.1164 1.8627 5.8124z"/><path d="m28 46c0-3.866-3.134-7-7-7s-7 3.134-7 7 3.134 7 7 7 7-3.134 7-7zm-7 3.15c-1.7397 0-3.15-1.4103-3.15-3.15s1.4103-3.15 3.15-3.15 3.15 1.4103 3.15 3.15-1.4103 3.15-3.15 3.15z"/><path d="m50 46c0-3.866-3.134-7-7-7s-7 3.134-7 7 3.134 7 7 7 7-3.134 7-7zm-7 3.15c-1.7397 0-3.15-1.4103-3.15-3.15s1.4103-3.15 3.15-3.15 3.15 1.4103 3.15 3.15-1.4103 3.15-3.15 3.15z"/><path d="m43 53h-22-17v4h56v-4z"/></svg>