<svg height="64" viewBox="0 0 64 64" width="64" xmlns="http://www.w3.org/2000/svg"><path d="m0 0h64v64h-64z" fill="none"/><path d="m50.5 46c-2.4854 0-4.5-2.0147-4.5-4.5 0-1.4105.6624-2.6539 1.678-3.4789l-.8179-1.5334-6.3318 3.6237c-.1838.1051-.3396.2438-.481.3954-.0306.327-.0473.6581-.0473.9932 0 5.799 4.7009 10.5 10.5 10.5 5.6301 0 10.2119-4.4349 10.4747-10h-6.0251c-.2517 2.2468-2.1356 4-4.4496 4z"/><path d="m15.041 45.3115c-.687.2138-2.7295.8838-3.5723.8838-.999 0-1.9727-.3203-2.792-.9365-1.1748-.8848-1.877-2.29-1.877-3.7588 0-1.543.7461-2.9629 2.0088-3.8447.2021-.1625.6357-.3865.9004-.5328l-6.1603-2.4675c-1.5845 1.8388-2.5486 4.2272-2.5486 6.845 0 5.799 4.7009 10.5 10.5 10.5 4.5715 0 8.4497-2.9266 9.8914-7.0043l-.91-1.3842z"/><path d="m56.2925 30.6683c-.5618.6122-1.231 1.1396-1.9956 1.5631l-5.7002 3.2623 1.8386 3.4474c.3477.6518 1.0261 1.0589 1.7647 1.0589h9.7168c.6083 0 1.071-.535.9912-1.138-.2924-2.2069-1.5249-6.9495-6.6155-8.1937z"/><path d="m54.5385 21.2308c-.9658-1.6659-5.2446-7.6707-7.8881-10.7527-.5286-.6162-1.474-.5805-1.8372.1456-.1262.2524-.1482.5427-.0615.8113.4355 1.3526 1.7661 5.6791 1.7617 8.0552-2.8981-1.1826-13.1096-3.7095-20.2634 4.4443l-12.25-1.0062v-6.626c0-1.7703-1.5177-2.9288-3.2871-2.9862-1.9707-.064-5.703.2548-7 .673-1.4711.4745-2.7129 1.4406-2.7129 2.9862v3.2866c0 1.2673.7964 2.3979 1.9896 2.8248l.0104.0037v7.6214c0 .8174.4974 1.5526 1.2563 1.8566l10.5763 4.2366-4.6565 2.5727.0033.0073c-.706.4419-1.1794 1.2207-1.1794 2.115 0 1.6075 1.5251 2.8708 3.1884 2.392.0031.0069 5.1533-1.6034 9.2195-2.8759l2.2181 3.3735c1.4818 2.2535 3.9979 3.6104 6.695 3.6104h1.665c2.3324 0 4.339-1.6498 4.7899-3.9382l.5856-2.9713c.24-1.218.9968-2.2719 2.0742-2.8885l13.7949-7.8943c3.3072-1.8329 3.2419-5.7408 1.3079-9.0769zm-46.1271 10.1144-3.0923-1.2706 2.6775-2.0449-.0383-3.1965 3.0059 1.0856.0005 3.4312zm5.8963 2.5954-3.2478-1.35 2.8558-2.1811-.0407-3.4095 3.1558 1.1526.0005 3.6599zm23.2206-5.3521-3.8594-1.3867 3.2142-2.8263-.2721-3.5422c1.4178-.2314 2.8297-.2274 4.178-.0923l.6725 4.5859zm8.4119 3.0223-4.072-1.463 4.2665-3.2055-1.0131-5.3021c2.688.838 4.5197 1.9027 4.5129 1.9312l1.4424 5.0825z"/></svg>