<?xml version="1.0" encoding="utf-8"?>
<!-- Generator: Adobe Illustrator 19.1.0, SVG Export Plug-In . SVG Version: 6.00 Build 0)  -->
<svg version="1.2" baseProfile="tiny" xmlns="http://www.w3.org/2000/svg" xmlns:xlink="http://www.w3.org/1999/xlink" x="0px"
	 y="0px" width="64px" height="64px" viewBox="0 0 64 64" xml:space="preserve">
<g id="Box">
	<rect fill="none" width="64" height="64"/>
</g>
<g id="Icon">
	<g>
		<circle cx="28" cy="42" r="7"/>
		<path d="M49.2263,21.0284c1.7621-0.7603,2.2496-2.434,1.4829-4.2109c-0.873-2.0239-2.407-2.6495-4.1234-1.9093
			c-1.8078,0.78-2.2281,2.4833-1.4401,4.3098C45.9762,21.1428,47.4644,21.7884,49.2263,21.0284z"/>
		<path d="M61.5921,27.6739c-0.8575-1.0383-4.2979-4.9864-6.4229-6.2989c-1.6958-1.0474-3.1825-1.303-4.7342,0.1293
			c-0.1844,0.1702-0.3557,0.3406-0.5172,0.5114l-0.0002-0.0057c-0.2237,0.1265-2.7943,3.2382-3.0244,3.4976
			c-0.4926,0.5552-1.0444,1.1669-1.562,1.5889c-0.3835,0.3184-1.4538,0.7926-1.9075,1.0037
			c-0.5796,0.2696-2.6568,1.1531-3.5485,1.6125c0.2274,0.3083,1.3436,1.5049,3.5486,0.8822
			c0.9931-0.2805,2.7418-0.8745,3.499-1.4438c0.5192-0.4002,1.9897-2.0256,2.7631-2.8707l6.088,4.6018l-3.8569,5.5632
			c-0.3685,0.4925-0.5756,1.0869-0.5927,1.7017l-0.3028,10.1945c1.5887-0.4314,2.7602-1.2557,2.9824-2.887l0.881-6.2839
			l5.136-6.2075c0,0,0.1604,0.0688,0.0692,0.2831c-0.4622,1.087-1.4462,3.1252-1.4709,3.1766l1.3345,11.7991
			c1.6219-0.5721,2.4424-1.6378,2.4713-3.3574l0.4609-13.4958C62.9084,30.0223,62.4496,28.7121,61.5921,27.6739z"/>
		<path d="M24.3474,25.9696c3.7402-4.1119,10.5942-10.6376,15.3156-11.2454c0.605-0.0779,1.0055-0.5836,0.9742-1.5836
			c-0.0249-0.7971-0.4624-0.9964-1.2547-0.8932c-6.6615,0.8669-15.0466,9.9005-17.783,13.0443
			c-0.7791-0.7253-8.2048-7.5631-12.1611-8.4033C7.5761,16.4921,4.4176,16.1861,1,16.085V44h18.1423
			c-0.1446-0.6443-0.2274-1.312-0.2274-2c0-5.0275,4.0727-9.1,9.1-9.1s9.1,4.0725,9.1,9.1c0,0.688-0.0828,1.3557-0.2274,2h3.6384
			c0.4689,0,0.8995-0.2447,1.1371-0.6489c1.384-2.354,3.467-6.0982,1.5325-9.0229C40.5232,30.2878,29.493,27.2137,24.3474,25.9696z
			 M18.14,28H3v-9.0215c2.5844,0.1456,4.6875,0.3984,5.8897,0.6539c2.2693,0.4822,6.4702,3.9493,9.7076,7.2944
			C18.9863,27.3287,18.6994,28,18.14,28z"/>
	</g>
</g>
</svg>
