<svg height="64" viewBox="0 0 64 64" width="64" xmlns="http://www.w3.org/2000/svg"><path d="m0 0h64v64h-64z" fill="none"/><circle cx="28" cy="42" r="7"/><path d="m49.2263 21.0284c1.7621-.7603 2.2496-2.434 1.4829-4.2109-.873-2.0239-2.407-2.6495-4.1234-1.9093-1.8078.78-2.2281 2.4833-1.4401 4.3098.8305 1.9248 2.3187 2.5704 4.0806 1.8104z"/><path d="m61.5921 27.6739c-.8575-1.0383-4.2979-4.9864-6.4229-6.2989-1.6958-1.0474-3.1825-1.303-4.7342.1293-.1844.1702-.3557.3406-.5172.5114l-.0002-.0057c-.2237.1265-2.7943 3.2382-3.0244 3.4976-.4926.5552-1.0444 1.1669-1.562 1.5889-.3835.3184-1.4538.7926-1.9075 1.0037-.5796.2696-2.6568 1.1531-3.5485 1.6125.2274.3083 1.3436 1.5049 3.5486.8822.9931-.2805 2.7418-.8745 3.499-1.4438.5192-.4002 1.9897-2.0256 2.7631-2.8707l6.088 4.6018-3.8569 5.5632c-.3685.4925-.5756 1.0869-.5927 1.7017l-.3028 10.1945c1.5887-.4314 2.7602-1.2557 2.9824-2.887l.881-6.2839 5.136-6.2075s.1604.0688.0692.2831c-.4622 1.087-1.4462 3.1252-1.4709 3.1766l1.3345 11.7991c1.6219-.5721 2.4424-1.6378 2.4713-3.3574l.4609-13.4958c.0225-1.3465-.4363-2.6567-1.2938-3.6949z"/><path d="m24.3474 25.9696c3.7402-4.1119 10.5942-10.6376 15.3156-11.2454.605-.0779 1.0055-.5836.9742-1.5836-.0249-.7971-.4624-.9964-1.2547-.8932-6.6615.8669-15.0466 9.9005-17.783 13.0443-.7791-.7253-8.2048-7.5631-12.1611-8.4033-1.8623-.3963-5.0208-.7023-8.4384-.8034v27.915h18.1423c-.1446-.6443-.2274-1.312-.2274-2 0-5.0275 4.0727-9.1 9.1-9.1s9.1 4.0725 9.1 9.1c0 .688-.0828 1.3557-.2274 2h3.6384c.4689 0 .8995-.2447 1.1371-.6489 1.384-2.354 3.467-6.0982 1.5325-9.0229-2.6723-4.0404-13.7025-7.1145-18.8481-8.3586zm-6.2074 2.0304h-15.14v-9.0215c2.5844.1456 4.6875.3984 5.8897.6539 2.2693.4822 6.4702 3.9493 9.7076 7.2944.389.4019.1021 1.0732-.4573 1.0732z"/></svg>