<svg enable-background="new 0 0 64 64" height="64" viewBox="0 0 64 64" width="64" xmlns="http://www.w3.org/2000/svg"><path d="m0 0h64v64h-64z" fill="none"/><path d="m28.5 15.8c2.2 0 3.5-1.6 3.5-3.8 0-2.6-1.3-4-3.5-4-2.3 0-3.5 1.6-3.5 4s1.3 3.8 3.5 3.8z"/><path d="m34.1 35.6c1 0 2.8-.6 2.8-2.8 0-6.3.3-14-4.3-15.1-2.4-.6-5.7-.6-8 0-4.6 1.1-4.4 8.8-4.4 15.1 0 2.2 1.8 2.8 2.8 2.8 0-.1 0-1.2 0-2.2 0-.5 0-3.3 0-3.6 0-2.7.5-5.6.8-6.6.1-.3.3-.2.3-.2v12 18s3.3 0 3.6-3.7c0 0 .5-14 .5-14.1 0-.2.1-.4.4-.4s.4.2.4.4.5 14 .5 14c.1 3.8 3.5 3.8 3.5 3.8v-18.2-12s.2-.1.3.2c.3.9.8 3.8.8 6.5v3.9z"/><path d="m9.5 15.8c2.2 0 3.5-1.6 3.5-3.8 0-2.6-1.3-4-3.5-4-2.3 0-3.5 1.6-3.5 4s1.3 3.8 3.5 3.8z"/><path d="m13.5 17.6c-2.4-.6-5.7-.6-8 0-4.6 1.1-4.4 8.8-4.4 15.1 0 2.2 1.8 2.8 2.8 2.8 0-.1 0-1.2 0-2.2 0-.5 0-3.3 0-3.6 0-2.7.5-5.6.8-6.6.1-.3.3-.2.3-.2v12 18.1s3.3 0 3.6-3.7c0 0 .5-14 .5-14.1 0-.2.1-.4.4-.4s.4.2.4.4.5 14 .5 14c.2 3.8 3.6 3.8 3.6 3.8v-18.2-12s.2-.1.3.2c.3.9.8 3.8.8 6.5v3.9 2c1 0 2.8-.6 2.8-2.8 0-6.2.3-13.9-4.4-15z"/><path d="m53.5 34.3c-.5 0-1.1.1-1.6.2-.5-2.1-1-4.3-1-4.3l-1.6-8.1c-.2-.8-.9-1.4-1.8-1.2l-4.5.7c-.6.1-1 .6-1 1.2 0 .7.5 1.2 1.2 1.2h.2 3.1l.9 4.5-8.4 1.5v1.6 1.6l5.2-1-8.3 9.1h-.9v6.2h.2c2.2.3 3.5-1.4 3.5-3.1 0-.5-.1-.9-.3-1.3l9.9-10.8c.2.9.5 2 .9 3 1.9 5.8 4.2 8.5 4.5 8.9s.9.1.8-.3c-.1-.5-.9-2.7-1.9-6.6.3 0 .6-.1.9-.1 3.5 0 6.4 2.9 6.4 6.4s-2.9 6.4-6.4 6.4-6.4-2.9-6.4-6.4c0-1.5.5-2.9 1.4-4-.4-.9-.8-1.9-1.2-3.1-2 1.7-3.3 4.2-3.3 7.1 0 5.2 4.2 9.4 9.4 9.4s9.4-4.2 9.4-9.4-4.1-9.3-9.3-9.3z"/></svg>