<svg enable-background="new 0 0 64 64" height="64" viewBox="0 0 64 64" width="64" xmlns="http://www.w3.org/2000/svg"><path d="m0 0h64v64h-64z" fill="none"/><path d="m47.4 27-1.5-.4c-.3-.1-.4-.3-.3-.6h1.5 2.2c.6 0 1.1-.5 1.2-1.1l.4-3.3c.1-.8-.7-1.5-1.5-1.3-1.4.4-3.5 1.4-4.8 2.9h-3.6c-.4 0-.8.3-.8.8 0 .4.3.8.8.8h3.2c.4 2.4 1.6 9.6 1.2 12.2-.3 1.8-1.2 3.6-1.9 4.7-.6.9-1.5 1.4-2.5 1.4h-6v3.9h6.4c1.7 0 3.3-.8 4.4-2.1l6-7.2z"/><path d="m28.5 15.8c2.2 0 3.5-1.6 3.5-3.8 0-2.6-1.3-4-3.5-4-2.3 0-3.5 1.6-3.5 4s1.3 3.8 3.5 3.8z"/><path d="m34.1 35.6c1 0 2.8-.6 2.8-2.8 0-6.3.3-14-4.3-15.1-2.4-.6-5.7-.6-8 0-4.6 1.1-4.4 8.8-4.4 15.1 0 2.2 1.8 2.8 2.8 2.8 0-.1 0-1.2 0-2.2 0-.5 0-3.3 0-3.6 0-2.7.5-5.6.8-6.6.1-.3.3-.2.3-.2v12 18s3.3 0 3.6-3.7c0 0 .5-14 .5-14.1 0-.2.1-.4.4-.4s.4.2.4.4.5 14 .5 14c.1 3.8 3.5 3.8 3.5 3.8v-18.2-12s.2-.1.3.2c.3.9.8 3.8.8 6.5v3.9z"/><path d="m9.5 15.8c2.2 0 3.5-1.6 3.5-3.8 0-2.6-1.3-4-3.5-4-2.3 0-3.5 1.6-3.5 4s1.3 3.8 3.5 3.8z"/><path d="m13.5 17.6c-2.4-.6-5.7-.6-8 0-4.6 1.1-4.4 8.8-4.4 15.1 0 2.2 1.8 2.8 2.8 2.8 0-.1 0-1.2 0-2.2 0-.5 0-3.3 0-3.6 0-2.7.5-5.6.8-6.6.1-.3.3-.2.3-.2v12 18.1s3.3 0 3.6-3.7c0 0 .5-14 .5-14.1 0-.2.1-.4.4-.4s.4.2.4.4.5 14 .5 14c.2 3.8 3.6 3.8 3.6 3.8v-18.2-12s.2-.1.3.2c.3.9.8 3.8.8 6.5v3.9 2c1 0 2.8-.6 2.8-2.8 0-6.2.3-13.9-4.4-15z"/><path d="m53.9 38.4-6.3 7.6h1.7c.9 0 1.6-.2 3-1.1 1-.6 2.2-1 3.4-1h4.5c.4 0 .8-.3.8-.8 0-2.8-2.7-6-7.1-4.7z"/><path d="m57 46c.1.2.1.5.1.8 0 1.7-1.4 3.1-3.1 3.1-1.4 0-2.6-1-3-2.3h-.1c-.8.5-1.6.7-2.5.7h-.4c.7 2.7 3.1 4.6 6 4.6 3.4 0 6.2-2.8 6.2-6.2 0-.3 0-.5-.1-.8h-3.1z"/></svg>