<?xml version="1.0" encoding="utf-8"?>
<!-- Generator: Adobe Illustrator 19.1.0, SVG Export Plug-In . SVG Version: 6.00 Build 0)  -->
<svg version="1.2" baseProfile="tiny" xmlns="http://www.w3.org/2000/svg" xmlns:xlink="http://www.w3.org/1999/xlink" x="0px"
	 y="0px" width="64px" height="64px" viewBox="0 0 64 64" xml:space="preserve">
<g id="_x36_4px_Box">
	<rect fill="none" width="64" height="64"/>
</g>
<g id="Icon">
	<g>
		<path d="M47.9711,12.4878c0.6862,3.0592-0.4745,6.1092-2.7611,8.111c1.4436,0.4236,3.0239,0.5076,4.6163,0.1588
			c4.8227-1.0566,7.9016-5.6949,6.877-10.2622s-5.7648-7.3005-10.5874-6.2439C44.5234,4.6004,43.1272,5.3031,42,6.2899
			C44.9284,7.1492,47.2848,9.4286,47.9711,12.4878z"/>
		<path d="M54.043,51.34c-1.6626,1.2473-3.7496,2.7585-6.0353,2.7468c-2.4496-0.0184-4.8857-1.9374-5.9647-2.7468
			c-1.0002,0.7503-3.4848,2.75-6,2.75c-2.4616,0-4.9159-1.9367-6-2.75c-1.0002,0.7503-3.4848,2.75-6,2.75
			c-2.4616,0-4.9159-1.9367-6-2.75c-1.0002,0.7503-3.4848,2.75-6,2.75c-2.4616,0-4.9159-1.9367-6-2.75
			C5.3069,51.8922,3.7646,53.1162,2,53.7267v4.0457c1.63-0.3564,3.0794-1.0683,4.043-1.6356C7.3799,56.9238,9.646,58,12.043,58
			s4.6631-1.0762,6-1.8633c1.3369,0.7871,3.603,1.8633,6,1.8633s4.6631-1.0762,6-1.8633c1.3369,0.7871,3.603,1.8633,6,1.8633
			s4.6631-1.0762,6-1.8633c1.7817,1.049,3.9332,1.8633,6,1.8633c2.397,0,4.6631-1.0762,6-1.8633
			c1.3369,0.7871,3.603,1.8633,6,1.8633c0.67,0,1.3257-0.0912,1.957-0.2305v-4.0656c-0.6432,0.2236-1.3173,0.386-1.957,0.386
			C57.5814,54.09,55.1271,52.1533,54.043,51.34z"/>
		<path d="M46,38v13.3039c0.6714,0.3328,1.3743,0.5782,2.0244,0.5833c1.8655,0.0006,4.097-1.856,6.0186-3.2979
			c1.8226,1.3685,4.1184,3.3003,6,3.3003c0.5908,0,1.3893-0.3176,1.957-0.5149V38H46z"/>
		<path d="M5,35.0551c-0.002,4.7244,1.0969,10.2241,1.9263,14.1973c1.3162,0.9887,3.3795,2.6373,5.1167,2.6373
			c1.9192,0,4.2911-2.0172,6-3.3003c1.8226,1.3685,4.1184,3.3003,6,3.3003c1.9192,0,4.2911-2.0172,6-3.3003
			c1.8226,1.3685,4.1184,3.3003,6,3.3003c1.7332,0,3.7994-1.6481,5.0129-2.5591c0.8326-3.97,1.9421-9.4937,1.9442-14.2593
			c0,0-2.7252-1.1801-6-2.4231V24c0-0.5523-0.4477-1-1-1h-3v-5c0-0.5523-0.4477-1-1-1H16c-0.5523,0-1,0.4477-1,1v5h-3
			c-0.5523,0-1,0.4477-1,1v6.85c2.7895-1.0605,5.1085-1.6787,8.1461-2.1049c5.7069-0.8007,10.0565,0.0182,12.641,1.6022
			c0.3371,0.2067,0.4349,0.4509,0.4085,0.6848c-2.6295-0.7123-5.4762-1.0057-8.1907-1.0068C15.353,30.0215,5,35.0551,5,35.0551z
			 M20,43h-8v-4c0-0.5523,0.4477-1,1-1s1,0.4477,1,1v2h4v-2c0-0.5523,0.4477-1,1-1s1,0.4477,1,1V43z M28,39c0-0.5523,0.4477-1,1-1
			s1,0.4477,1,1v2h4v-2c0-0.5523,0.4477-1,1-1s1,0.4477,1,1v4h-8V39z"/>
	</g>
</g>
</svg>
