<svg height="64" viewBox="0 0 64 64" width="64" xmlns="http://www.w3.org/2000/svg"><path d="m0 0h64v64h-64z" fill="none"/><path d="m37.3541 58.1667 9.6555-16.6387 9.8238 16.6387zm24.4158 1.337-13.3531-22.6165c-.2974-.5042-.8393-.8134-1.4248-.8134-.0022 0-.0043 0-.0065 0-.5877.0022-1.1296.3162-1.4248.8242l-13.1248 22.6165c-.2968.5118-.2979 1.1437-.0027 1.6565s.842.829 1.434.829h26.4779c.5942 0 1.1426-.3184 1.4372-.8344.2947-.5161.2898-1.1501-.0124-1.6619z"/><path d="m46.9834 32.5737c.9376 0 1.8405.2601 2.624.7217.672-3.7582 1.3335-8.5092 1.3335-12.6741 0 0-1.7031-1.1655-4.9409-2.3929v-8.5454c0-.3773-.3058-.683-.683-.683h-4.317v-5.317c0-.3773-.3058-.683-.683-.683h-15.634c-.3773 0-.683.3057-.683.683v5.317h-4.317c-.3773 0-.683.3057-.683.683v6.6472c1.9167-.7469 5.6731-1.9648 8.9451-2.3587 5.6978-.6858 9.6924.4202 12.248 1.9849.3333.2041.4301.4456.4041.6767-2.5996-.703-5.4138-1.2156-8.0972-1.2156-8.5527 0-18.4409 5.2039-18.4409 5.2039 0 6.1339 1.6577 14.8372 2.0172 16.0978.6669.2972 1.3905.531 1.9667.531 1.9285 0 4.1924-1.8942 6-3.2502 1.6643 1.2486 4.041 3.2502 6 3.2502 1.9285 0 4.1924-1.8942 6-3.2502 1.4744 1.1061 3.5065 2.7964 5.3132 3.1695l1.178-2.0298c.917-1.5762 2.6211-2.5596 4.4492-2.566zm-17.9834-3.5737h-9v-4.0205c0-.755.6117-1.366 1.366-1.366.7544 0 1.366.611 1.366 1.366v1.366h3.5361v-1.366c0-.7551.6116-1.366 1.366-1.366.7543 0 1.366.6109 1.366 1.366v4.0205zm7 0v-4.0205c0-.755.6117-1.366 1.366-1.366.7544 0 1.366.611 1.366 1.366v1.366h3.5361v-1.366c0-.7551.6116-1.366 1.366-1.366.7543 0 1.366.6109 1.366 1.366v4.0205z"/><path d="m36.043 36.34c-1.0002.7503-3.4848 2.75-6 2.75-2.4616 0-4.9159-1.9367-6-2.75-1.0002.7503-3.4848 2.75-6 2.75-2.4616 0-4.9159-1.9367-6-2.75-1.0002.7503-3.4848 2.75-6 2.75-1.0183 0-2.1245-.3893-3.043-.8273v4.2183c.9426.3046 1.9789.519 3.043.519 2.397 0 4.6631-1.0762 6-1.8633 1.3369.7871 3.603 1.8633 6 1.8633s4.6631-1.0762 6-1.8633c1.3369.7871 3.603 1.8633 6 1.8633s4.6631-1.0762 6-1.8633c.6132.361 1.4277.7795 2.355 1.1304l2.0054-3.4556c-2.0562-.6227-3.3604-1.7213-4.3604-2.4715z"/><path d="m36.043 44.34c-1.0002.7503-3.4848 2.75-6 2.75-2.4616 0-4.9159-1.9367-6-2.75-1.0002.7503-3.4848 2.75-6 2.75-2.4616 0-4.9159-1.9367-6-2.75-1.0002.7503-3.4848 2.75-6 2.75-1.0183 0-2.1245-.3893-3.043-.8273v4.2183c.9426.3046 1.9789.519 3.043.519 2.397 0 4.6631-1.0762 6-1.8633 1.3369.7871 3.603 1.8633 6 1.8633s4.6631-1.0762 6-1.8633c1.3369.7871 3.603 1.8633 6 1.8633 1.3323 0 2.6174-.3361 3.7319-.7667l3.0706-5.2912z"/><path d="m31.0234 54.9745c-2.5729.5188-4.8809-1.0595-6.9805-2.6345-1.0002.7503-3.4848 2.75-6 2.75-2.4616 0-4.9159-1.9367-6-2.75-1.0002.7503-3.4848 2.75-6 2.75-1.0183 0-2.1245-.3893-3.043-.8273v4.2183c.9427.3046 1.979.519 3.0431.519 2.397 0 4.6631-1.0762 6-1.8633 1.3369.7871 3.603 1.8633 6 1.8633s4.6631-1.0762 6-1.8633c1.1254.6626 2.9116 1.5223 4.8777 1.7802.115-.4004.2739-.7908.4875-1.1591z"/><path d="m46.9894 54.6688c-.8052 0-1.2236.5795-1.2236 1.3202 0 .8373.4509 1.2877 1.2399 1.2877.8047 0 1.2236-.5633 1.2236-1.2877 0-.8535-.4509-1.3202-1.2399-1.3202z"/><path d="m46.0669 53.5874 1.8989-.0508v-2.3283l.1799-5.1643-2.0788.1865z"/></svg>