<svg height="64" viewBox="0 0 64 64" width="64" xmlns="http://www.w3.org/2000/svg"><path d="m0 0h64v64h-64z" fill="none"/><path d="m64 59-6.2766-13.1034-15.7234-.8966 6.1382-6.4086 6.8377 1.5693-7.5801-15.8247c-.4562 3.4595-.9407 6.1486-1.1384 7.2762-7.367 1.7804-9.8688 2.3847-14.2571 3.4453-.8625-.2084-3.4328-.8294-4.2988-1.0386l-4.459 4.3094-6.9092-3.8283 1.3785-3.0703c-.1752-1-.6033-3.3825-1.0448-6.6401l-16.667 34.2104h40.8635l-2.941-8.491 15.9988 3.6535-2.4201 4.8375zm-56.2212-4 4.7873-9.7914 9.6908 5.6682 7.4966-1.8284 3.9132 5.9516zm17.0137-8.484-5.0872-5.261 20.3106-2.1821z"/><path d="m18 17.319c0 4.0949 1.4351 12.3552 1.4833 12.6321l5.5167-1.9511 2.7567 3.9747 4.2435 1.0253 12.5135-3.0239s1.4863-8.4772 1.4863-12.6571c0 0-1.6901-.8872-4.1481-1.8214v-6.8186c0-.2872-.2322-.5199-.5186-.5199h-2.3333v-3.6392c0-.2872-.2322-.5199-.5185-.5199h-12.963c-.2864 0-.5185.2327-.5185.5199v3.6392h-2.3333c-.2864 0-.5186.2327-.5186.5199v5.1748c1.5059-.8729 3.8983-1.6917 6.3939-1.8704 4.3138-.309 7.3583.5937 9.2984 1.7847.2531.1553.3266.3391.3068.5151-1.9736-.5352-4.1101-.9253-6.1472-.9253-6.493 0-14 3.9611-14 3.9611zm11 6.681h-7v-3.1193c0-.5747.4478-1.0397 1-1.0397s1 .465 1 1.0397v1.0398h3v-1.0398c0-.5748.4478-1.0397 1-1.0397s1 .465 1 1.0397zm6-3.1193c0-.5747.4478-1.0397 1-1.0397s1 .465 1 1.0397v1.0398h3v-1.0398c0-.5748.4478-1.0397 1-1.0397s1 .465 1 1.0397v3.1193h-7z"/></svg>