<?xml version="1.0" encoding="utf-8"?>
<!-- Generator: Adobe Illustrator 19.1.0, SVG Export Plug-In . SVG Version: 6.00 Build 0)  -->
<svg version="1.2" baseProfile="tiny" xmlns="http://www.w3.org/2000/svg" xmlns:xlink="http://www.w3.org/1999/xlink" x="0px"
	 y="0px" width="64px" height="64px" viewBox="0 0 64 64" xml:space="preserve">
<g id="_x36_4px_Box">
	<rect fill="none" width="64" height="64"/>
</g>
<g id="Icon">
	<g>
		<path d="M38,19.0151v6.3475C38,26.2669,38.7331,27,39.6374,27h12.7252C53.2669,27,54,26.2669,54,25.3625v-5.7252
			C54,18.7331,53.2669,18,52.3626,18h-6.8079C40.3939,12.6088,30.0756,1.8345,29.654,1.4332
			c-0.5631-0.5361-1.4337-0.5797-2.0475-0.1023c-0.6547,0.5093-0.8007,1.4398-0.3333,2.1251L38,19.0151z"/>
		<path d="M3.0065,43.7997c0,3.3711,0.5889,9.3917,1.1281,12.93c1.8989-0.0496,4.187-1.9854,5.9289-3.2922
			c1.8638,1.3992,4.1264,3.2998,5.9995,3.2998c1.9059,0,4.2426-1.981,6.0005-3.2998c1.8638,1.3992,4.1264,3.2998,5.9995,3.2998
			c0.2638,0,0.5383-0.0503,0.815-0.1196c0.5367-3.5483,1.1202-9.471,1.1202-12.818c0,0-1.9982-0.8533-3.9982-1.7518v-6.5578
			C26,35.214,25.7726,35,25.4965,35H23v-3.5098C23,31.214,22.7726,31,22.4965,31h-12C10.2203,31,10,31.214,10,31.4902V35H7.4965
			C7.2203,35,7,35.214,7,35.4902v3.8931c2-0.4659,3.7573-0.885,6.1637-1.0569c4.1597-0.2971,7.0947,0.9127,8.9655,2.0582
			c0.244,0.1494,0.3144,0.3262,0.2953,0.4954c-1.9031-0.5146-3.9635-0.8799-5.9279-0.8799
			C10.2355,40.0002,3.0065,43.7997,3.0065,43.7997z M14,50H7v-3.0098c0-0.5527,0.4478-1,1-1s1,0.4473,1,1V48h3v-1.0098
			c0-0.5528,0.4478-1,1-1s1,0.4472,1,1V50z M19,46.9902c0-0.5527,0.4478-1,1-1s1,0.4473,1,1V48h3v-1.0098c0-0.5528,0.4478-1,1-1
			c0.5522,0,1,0.4472,1,1V50h-7V46.9902z"/>
		<path d="M52,43v-8l-5-6h-6l-5,6v8h-4v11.9807c0.3291-0.2393,1.7042-1.2737,2.0635-1.5432
			c1.8638,1.3992,4.1264,3.2998,5.9995,3.2998c1.9059,0,4.2426-1.981,6.0005-3.2998c1.8638,1.3992,4.1264,3.2998,5.9995,3.2998
			c1.9059,0,4.2426-1.981,6.0005-3.2998c1.8648,1.4,3.3605,2.6235,4.9365,3.1112V43H52z M40.6,43l1.4-7h4l1.4,7H40.6z"/>
		<path d="M52.063,58.9374c-2.4616,0-4.9159-1.9367-6-2.75c-1.0002,0.7503-3.4848,2.75-6,2.75c-2.4616,0-4.9159-1.9367-6-2.75
			c-1.0002,0.7503-3.4848,2.75-6,2.75c-2.4616,0-4.9159-1.9367-6-2.75c-1.0002,0.7503-3.4848,2.75-6,2.75
			c-2.4616,0-4.9159-1.9367-6-2.75c-1.0002,0.7503-3.4848,2.75-6,2.75c-1.0184,0-2.1246-0.3893-3.043-0.8273v4.2183
			c0.9427,0.3047,1.9789,0.519,3.043,0.519c2.397,0,4.6631-1.0762,6-1.8633c1.3369,0.7871,3.603,1.8633,6,1.8633
			s4.6631-1.0762,6-1.8633c1.3369,0.7871,3.603,1.8633,6,1.8633s4.6631-1.0762,6-1.8633c1.3369,0.7871,3.603,1.8633,6,1.8633
			s4.6631-1.0762,6-1.8633c1.3369,0.7871,3.603,1.8633,6,1.8633s4.6631-1.0762,6-1.8633c1.1368,0.6693,2.9474,1.5413,4.937,1.7892
			v-3.9572c-2.079-0.4247-4.0098-1.9332-4.937-2.6288C57.0628,56.9377,54.5782,58.9374,52.063,58.9374z"/>
	</g>
</g>
</svg>
