<svg height="64" viewBox="0 0 64 64" width="64" xmlns="http://www.w3.org/2000/svg"><path d="m0 0h64v64h-64z" fill="none"/><path d="m13 26.0551c-.002 4.6536 1.064 10.2086 1.8887 14.1669 1.2864.9658 3.3952 2.6653 5.1543 2.6653 1.9059 0 4.2426-1.981 6.0005-3.2998 1.8651 1.4002 4.1262 3.2998 5.9995 3.2998 1.9059 0 4.2426-1.981 6.0005-3.2998 1.8651 1.4002 4.1262 3.2998 5.9995 3.2998 1.746 0 3.8342-1.6746 5.0506-2.5872.8281-3.956 1.9044-9.5345 1.9064-14.229 0 0-2.7252-1.1801-6-2.4231v-8.648c0-.5523-.4477-1-1-1h-3v-5c0-.5523-.4477-1-1-1h-16c-.5523 0-1 .4477-1 1v5h-3c-.5523 0-1 .4477-1 1v6.85c2.7895-1.0605 5.1085-1.6787 8.1461-2.1049 5.7069-.8007 10.0565.0182 12.641 1.6022.3371.2067.4349.4509.4085.6848-2.6295-.7123-5.4762-1.0057-8.1907-1.0068-8.6519-.0038-19.0049 5.0298-19.0049 5.0298zm15 7.9449h-8v-4c0-.5523.4477-1 1-1s1 .4477 1 1v2h4v-2c0-.5523.4477-1 1-1s1 .4477 1 1zm8-4c0-.5523.4477-1 1-1s1 .4477 1 1v2h4v-2c0-.5523.4477-1 1-1s1 .4477 1 1v4h-8z"/><path d="m56.043 45.09c-2.4615 0-4.9159-1.9367-6-2.75-1.0001.7503-3.4848 2.75-6 2.75-2.4615 0-4.9159-1.9367-6-2.75-1.0001.7503-3.4848 2.75-6 2.75-2.4615 0-4.9159-1.9367-6-2.75-1.0001.7503-3.4848 2.75-6 2.75-2.4615 0-4.9159-1.9367-6-2.75-1.0001.7503-3.4848 2.75-6 2.75-1.0184 0-2.1246-.3893-3.043-.8273v4.2183c.9427.3046 1.9789.519 3.043.519 2.397 0 4.6631-1.0762 6-1.8633 1.3369.7871 3.603 1.8633 6 1.8633s4.6631-1.0762 6-1.8633c1.3369.7871 3.603 1.8633 6 1.8633s4.6631-1.0762 6-1.8633c1.3369.7871 3.603 1.8633 6 1.8633s4.6631-1.0762 6-1.8633c1.3369.7871 3.603 1.8633 6 1.8633 1.0322 0 2.0372-.2025 2.957-.4926v-4.2031c-.8999.4195-1.9733.7857-2.957.7857z"/></svg>