<svg height="64" viewBox="0 0 64 64" width="64" xmlns="http://www.w3.org/2000/svg"><path d="m0 0h64v64h-64z" fill="none"/><path d="m61.2532 30.014c-3.0492.4291-6.1042.7977-9.15 1.1245l-3.2699-5.1385 2.4244-4.1186c.2068-.3514.1796-.7932-.0687-1.1165l-1.0555-1.3741c-.1892-.2464-.4823-.3908-.793-.3908h-17.3405v-5.9985c0-.5523-.4477-1-1-1s-1 .4477-1 1v5.9985h-3.1194c-.4411 0-.8301.2891-.9574.7114l-4.0316 13.3757c-6.0303.1707-11.7295.2265-16.8997.2323-.5518.0006-.9919.4475-.9919.9993v6.5216c2.2478-.1894 4.5242-1.7916 6.4336-3.0298 1.9766 1.2871 4.4814 3.0596 6.8525 3.0596 2.3918 0 4.8732-1.7723 6.8564-3.0742 1.9973 1.3121 4.4717 3.0742 6.8574 3.0742 2.3693 0 4.8177-1.7338 6.8604-3.0596 1.995 1.298 4.4872 3.0596 6.8535 3.0596 2.3693 0 4.8177-1.7338 6.8604-3.0596 1.9689 1.281 4.3975 2.9924 6.7333 3.0509l4.0052-9.4739c.3027-.7156-.2901-1.4818-1.0595-1.3735zm-34.0944 2.8959-1.8331-3.9195 2.7495.1262 1.7213 3.6805c-.8839.0399-1.7646.0784-2.6377.1128zm6.1674-.2872-1.5606-3.3368 2.7496.1262 1.4324 3.0627c-.8785.0527-1.7509.1014-2.6214.1479zm-.7692-6.6227-1.3121-4h16.4133l-2.3457 4zm6.8959 6.2488-1.2474-2.6672 2.7495.1262 1.1004 2.3529c-.8705.0664-1.7374.1282-2.6025.1881zm6.0808-.4723-.8883-1.8994 2.7495.1262.719 1.5373c-.8615.0813-1.7221.1617-2.5802.2359z"/><path d="m51.5723 40.4343c-1.9217 1.2474-4.3122 2.6357-6.8584 2.6357-2.531 0-4.9498-1.3942-6.8555-2.6357-1.9217 1.2473-4.3122 2.6357-6.8584 2.6357-2.5021 0-4.9015-1.3582-6.8569-2.6426-1.9785 1.2996-4.3679 2.6426-6.8569 2.6426-2.531 0-4.9498-1.3942-6.8555-2.6357-1.9293 1.2523-4.3172 2.6357-6.8589 2.6357-.8727 0-1.7592-.1942-2.5718-.4539v4.0706c.825.1889 1.6932.3133 2.5718.3133 2.7476 0 5.415-1.1777 6.8574-1.9424 1.4419.7647 4.1094 1.9424 6.8569 1.9424 2.7471 0 5.415-1.1777 6.8569-1.9424 1.442.7647 4.1094 1.9424 6.857 1.9424s5.415-1.1777 6.8569-1.9424c1.4419.7647 4.1099 1.9424 6.857 1.9424 2.7476 0 5.415-1.1777 6.8569-1.9424 1.4424.7647 4.1099 1.9424 6.8574 1.9424.8786 0 1.7468-.1244 2.5718-.3134v-4.0726c-.8141.2608-1.7014.456-2.5718.456-2.531 0-4.9502-1.3942-6.8559-2.6357z"/></svg>