<svg height="64" viewBox="0 0 64 64" width="64" xmlns="http://www.w3.org/2000/svg"><path d="m0 0h64v64h-64z" fill="none"/><path d="m18 16.8096c0 4.0109.8441 8.7872 1.4356 11.6504 1.2229-.3754 2.3463-.9646 2.8124-1.2549l2.252-1.4492 2.2715 1.4609c.6914.4336 2.9238 1.583 4.7285 1.583 1.7949 0 4.0361-1.1514 4.748-1.5947l2.252-1.4492 2.2715 1.4609c.4532.2842 1.5707.8714 2.7938 1.2454.5915-2.8576 1.4347-7.6257 1.4347-11.6526 0 0-1.6298-.8533-4-1.7518v-6.5578c0-.2762-.2239-.5-.5-.5h-2.5v-3.5c0-.2762-.2239-.5-.5-.5h-12c-.2762 0-.5.2238-.5.5v3.5h-2.5c-.2762 0-.5.2238-.5.5v3.8931c1.683-.4659 3.7591-.885 6.1655-1.0569 4.1597-.2971 7.0955.9127 8.9664 2.0582.244.1494.3149.3262.2958.4954-1.9031-.5146-3.9633-.8898-5.9277-.8898-6.2612 0-13.5 3.8096-13.5 3.8096zm11 6.1904h-7v-3c0-.5527.4478-1 1-1s1 .4473 1 1v1h3v-1c0-.5528.4478-1 1-1s1 .4472 1 1zm5-3c0-.5527.4478-1 1-1s1 .4473 1 1v1h3v-1c0-.5528.4478-1 1-1s1 .4472 1 1v3h-7z"/><path d="m59.5 31.08c-2.8506 0-5.8916-1.915-5.9189-1.9326l-1.0811-.6953-1.0811.6953c-.0302.0195-3.0859 1.9326-5.9189 1.9326-2.8506 0-5.8916-1.915-5.9189-1.9326l-1.0811-.6953-1.0811.6953c-.0302.0195-3.0859 1.9326-5.9189 1.9326-2.8506 0-5.8916-1.915-5.9189-1.9326l-1.0811-.6953-1.0811.6953c-.0302.0195-3.0859 1.9326-5.9189 1.9326-2.8506 0-5.8916-1.915-5.9189-1.9326l-1.0811-.6953-1.0811.6953c-.0302.0195-3.0859 1.9326-5.9189 1.9326-.1662 0-.3331-.0078-.5-.02v3.9216c.1664.0081.3327.0184.5.0184 2.8105 0 5.542-1.1914 7-1.9521 1.458.7607 4.1895 1.9521 7 1.9521s5.542-1.1914 7-1.9521c1.458.7607 4.1895 1.9521 7 1.9521s5.542-1.1914 7-1.9521c1.458.7607 4.1895 1.9521 7 1.9521s5.542-1.1914 7-1.9521c1.458.7607 4.1895 1.9521 7 1.9521.1673 0 .3336-.0103.5-.0184v-3.9218c-.167.0124-.3339.0202-.5.0202z"/><path d="m40.4346 56h-17.8692c-2.084-3.9814-8.4345-14-19.5654-14v4.9c9.6553 0 15.0225 11.1078 15.6016 12.3608.4873 1.0566 1.5556 1.7392 2.7216 1.7392h20.3535c1.166 0 2.2344-.6826 2.7207-1.7373.5801-1.2549 5.9473-12.3627 15.6026-12.3627v-4.9c-11.1289 0-17.4805 10.0156-19.5654 14z"/></svg>