<?xml version="1.0" encoding="utf-8"?>
<!-- Generator: Adobe Illustrator 18.1.0, SVG Export Plug-In . SVG Version: 6.00 Build 0)  -->
<svg version="1.2" baseProfile="tiny" xmlns="http://www.w3.org/2000/svg" xmlns:xlink="http://www.w3.org/1999/xlink" x="0px"
	 y="0px" width="64px" height="64px" viewBox="0 0 64 64" xml:space="preserve">
<g id="Box">
	<rect fill="none" width="64" height="64"/>
</g>
<g id="Icon">
	<g>
		<path d="M14.043,39.687c1.5747,1.1816,3.9974,3.2505,6,3.2505c1.9989,0,4.4094-2.0567,6-3.2505
			c1.5747,1.1816,3.9974,3.2505,6,3.2505c0.8522,0,1.778-0.3828,2.6844-0.9043l-1.8465-0.9426l1.8849-3.6922
			c0.3473-0.6803,1.1794-0.9494,1.8591-0.6025c0.6796,0.347,0.9497,1.1788,0.6024,1.8591l-0.6283,1.2308l0.7088,0.3618
			c0.2583-0.1982,0.507-0.3893,0.7352-0.5605c0.6772,0.5082,1.5147,1.1758,2.4048,1.7771l0.4718-0.9242
			c0.3474-0.6804,1.1794-0.9494,1.8591-0.6024c0.6796,0.3469,0.9498,1.1786,0.6024,1.859l-0.4763,0.9329
			c0.3876,0.1208,0.771,0.2081,1.1382,0.2081c1.9361,0,4.2515-1.9232,5.8409-3.1292c-0.5911-0.7857-1.7774-2.3072-3.3976-4.0944
			l4.1204-8.071c0.1735-0.34,0.0386-0.756-0.3012-0.9296l-3.0768-1.5707l2.199-4.3076c0.1736-0.34,0.0386-0.756-0.3012-0.9296
			l-14.769-7.5397c-0.3399-0.1735-0.756-0.0387-0.9295,0.3012l-2.1991,4.3076l-3.0769-1.5707
			c-0.3399-0.1736-0.756-0.0387-0.9295,0.3012l-3.1026,6.5842c2.8333,0.0543,5.2179,0.7766,8.1176,1.777
			c5.4477,1.8794,8.9505,4.5848,10.5333,7.1702c0.2065,0.3372,0.1826,0.5992,0.0529,0.7956
			c-2.0189-1.8291-4.3187-3.5854-6.7364-4.8196c-7.7059-3.934-19.0087-3.7936-19.0087-3.7936
			c-2.5167,4.9298-4.3964,11.3682-5.5549,15.2411c-0.3786,1.2656-0.4127,2.2659-0.2744,3.0645
			C12.2808,41.0674,13.2612,40.2737,14.043,39.687z M19.9968,29.8586c0.3473-0.6802,1.1794-0.9493,1.8591-0.6024
			c0.6796,0.3469,0.9497,1.1788,0.6024,1.8591L21.83,32.346l3.6923,1.8849l0.6283-1.2307c0.3474-0.6804,1.1794-0.9494,1.8591-0.6025
			c0.6796,0.347,0.9498,1.1787,0.6024,1.8591l-1.8849,3.6923l-8.6152-4.3982L19.9968,29.8586z"/>
		<path d="M56.043,44.9374c-2.4616,0-4.9159-1.9367-6-2.75c-1.0002,0.7503-3.4848,2.75-6,2.75c-2.4616,0-4.9159-1.9367-6-2.75
			c-1.0002,0.7503-3.4848,2.75-6,2.75c-2.4616,0-4.9159-1.9367-6-2.75c-1.0002,0.7503-3.4848,2.75-6,2.75
			c-2.4616,0-4.9159-1.9367-6-2.75c-1.0002,0.7503-3.4848,2.75-6,2.75c-1.0184,0-2.1246-0.3893-3.043-0.8273v4.2183
			c0.9427,0.3047,1.9789,0.519,3.043,0.519c2.397,0,4.6631-1.0762,6-1.8633c1.3369,0.7871,3.603,1.8633,6,1.8633
			s4.6631-1.0762,6-1.8633c1.3369,0.7871,3.603,1.8633,6,1.8633s4.6631-1.0762,6-1.8633c1.3369,0.7871,3.603,1.8633,6,1.8633
			s4.6631-1.0762,6-1.8633c1.3369,0.7871,3.603,1.8633,6,1.8633c1.0322,0,2.0372-0.2025,2.957-0.4926v-4.2031
			C58.1001,44.5713,57.0267,44.9374,56.043,44.9374z"/>
	</g>
</g>
</svg>
