<svg enable-background="new 0 0 64 64" height="64" viewBox="0 0 64 64" width="64" xmlns="http://www.w3.org/2000/svg"><path d="m0 0h64v64h-64z" fill="none"/><path d="m54 51.3c-1.7 1.2-3.7 2.8-6 2.7-2.4 0-4.9-1.9-6-2.7-1 .8-3.5 2.8-6 2.8s-4.9-1.9-6-2.8c-1 .8-3.5 2.8-6 2.8s-4.9-1.9-6-2.8c-1 .8-3.5 2.8-6 2.8s-4.9-1.9-6-2.8c-.7.6-2.3 1.8-4 2.4v4c1.6-.4 3.1-1.1 4-1.6 1.3.8 3.6 1.9 6 1.9s4.7-1.1 6-1.9c1.3.8 3.6 1.9 6 1.9s4.7-1.1 6-1.9c1.3.8 3.6 1.9 6 1.9s4.7-1.1 6-1.9c1.8 1 3.9 1.9 6 1.9 2.4 0 4.7-1.1 6-1.9 1.3.8 3.6 1.9 6 1.9.7 0 1.3-.1 2-.2v-4.1c-.6.2-1.3.4-2 .4-2.4 0-4.9-1.9-6-2.8zm-49-16.2c0 4.7 1.1 10.2 1.9 14.2 1.3 1 3.4 2.6 5.1 2.6 1.9 0 4.3-2 6-3.3 1.8 1.4 4.1 3.3 6 3.3s4.3-2 6-3.3c1.8 1.4 4.1 3.3 6 3.3 1.7 0 3.8-1.6 5-2.6.8-4 1.9-9.5 1.9-14.3 0 0-2.7-1.2-6-2.4v-8.6c0-.6-.4-1-1-1h-3v-5c0-.6-.4-1-1-1h-15.9c-.6 0-1 .4-1 1v5h-3c-.6 0-1 .4-1 1v6.8c2.8-1.1 5.1-1.7 8.1-2.1 5.7-.8 10.1 0 12.6 1.6.3.2.4.5.4.7-2.6-.7-5.5-1-8.2-1-8.5 0-18.9 5.1-18.9 5.1zm15 7.9h-8v-4c0-.6.4-1 1-1s1 .4 1 1v2h4v-2c0-.6.4-1 1-1s1 .4 1 1zm8-4c0-.6.4-1 1-1s1 .4 1 1v2h4v-2c0-.6.4-1 1-1s1 .4 1 1v4h-8zm29.3-1c-.7-.6-1.3-1.7-1.6-3h.2c.5 0 1-.4 1-1 0-.5-.4-1-1-1h-.2c.3-1 1.2-1.5 1.2-2.9 0-1.7-2.1-1.8-2.9-1.8s-2.9.1-2.9 1.8c0 1.4.9 2 1.2 2.9h-.2c-.5 0-1 .4-1 1 0 .5.4 1 1 1h.2c-.2 1.3-.8 2.4-1.6 3h-1.7v13.7c1.6-.5 3.4-1.9 5-3.1 1.8 1.4 4.1 3.3 6 3.3.6 0 1.4-.3 2-.5v-13.4z"/></svg>