<svg height="64" viewBox="0 0 64 64" width="64" xmlns="http://www.w3.org/2000/svg"><path d="m0 0h64v64h-64z" fill="none"/><path d="m4.0065 22.8c0 3.371.5889 9.3914 1.1281 12.9296 1.9146-.0503 4.24-2.0247 5.927-3.2922 1.86 1.3947 4.1296 3.2998 6.001 3.2998 1.91 0 4.2524-1.9875 5.999-3.2998 1.86 1.3947 4.1296 3.2998 6.001 3.2998.2641 0 .5387-.0503.8156-.1196.5367-3.5483 1.1202-9.4708 1.1202-12.8177 0 0-1.9982-.8533-3.9982-1.7518v-6.5578c0-.2762-.2274-.4902-.5035-.4902h-2.4967v-3.5098c0-.2762-.2274-.4902-.5035-.4902h-12c-.2762 0-.4965.2141-.4965.4902v3.5098h-2.5035c-.2762.0001-.4965.2142-.4965.4904v3.8931c2-.4659 3.7573-.885 6.1637-1.0569 4.1597-.2971 7.0947.9127 8.9655 2.0582.244.1494.3144.3262.2953.4954-1.9031-.5146-3.9635-.8799-5.9279-.8799-6.2611.0001-13.4901 3.7996-13.4901 3.7996zm10.9935 6.2002h-7v-3.0098c0-.5527.4478-1 1-1s1 .4473 1 1v1.0098h3v-1.0098c0-.5528.4478-1 1-1s1 .4472 1 1zm5-3.0097c0-.5527.4478-1 1-1s1 .4473 1 1v1.0098h3v-1.0098c0-.5528.4478-1 1-1s1 .4472 1 1v3.0098h-7z"/><path d="m44 29h4v31h-4z"/><path d="m35.063 53.188c-1.0002.7504-3.4848 2.75-6 2.75-2.4616 0-4.9159-1.9367-6-2.75-1.0002.7504-3.4848 2.75-6 2.75-2.4616 0-4.9159-1.9367-6-2.75-1.0002.7504-3.4848 2.75-6 2.75-1.0184 0-2.1246-.3893-3.043-.8273v4.2183c.9427.3047 1.9789.519 3.043.519 2.397 0 4.6631-1.0762 6-1.8633 1.3369.7871 3.603 1.8633 6 1.8633s4.6631-1.0762 6-1.8633c1.3369.7871 3.603 1.8633 6 1.8633s4.6631-1.0762 6-1.8633c1.3369.7871 3.603 1.8633 6 1.8633.3159 0 .6277-.0242.937-.0584v-3.947c-.3101.0559-.6225.0954-.937.0954-2.4616 0-4.9159-1.9367-6-2.75z"/><path d="m35.063 44.188c-1.0002.7504-3.4848 2.75-6 2.75-2.4616 0-4.9159-1.9367-6-2.75-1.0002.7504-3.4848 2.75-6 2.75-2.4616 0-4.9159-1.9367-6-2.75-1.0002.7504-3.4848 2.75-6 2.75-1.0184 0-2.1246-.3893-3.043-.8273v4.2183c.9427.3047 1.9789.519 3.043.519 2.397 0 4.6631-1.0762 6-1.8633 1.3369.7871 3.603 1.8633 6 1.8633s4.6631-1.0762 6-1.8633c1.3369.7871 3.603 1.8633 6 1.8633s4.6631-1.0762 6-1.8633c1.3369.7871 3.603 1.8633 6 1.8633.3159 0 .6277-.0242.937-.0584v-3.947c-.3101.0559-.6225.0954-.937.0954-2.4616 0-4.9159-1.9367-6-2.75z"/><path d="m35.063 35.1877c-1.0002.7504-3.4848 2.75-6 2.75-2.4616 0-4.9159-1.9367-6-2.75-1.0002.7504-3.4848 2.75-6 2.75-2.4616 0-4.9159-1.9367-6-2.75-1.0002.7504-3.4848 2.75-6 2.75-1.0184 0-2.1246-.3893-3.043-.8273v4.2183c.9427.3047 1.9789.519 3.043.519 2.397 0 4.6631-1.0762 6-1.8633 1.3369.7871 3.603 1.8633 6 1.8633s4.6631-1.0762 6-1.8633c1.3369.7871 3.603 1.8633 6 1.8633s4.6631-1.0762 6-1.8633c1.3369.7871 3.603 1.8633 6 1.8633.3159 0 .6277-.0242.937-.0584v-3.947c-.3101.0559-.6225.0954-.937.0954-2.4616 0-4.9159-1.9367-6-2.75z"/><path d="m50.063 46.938c-.0211 0-.0419-.0055-.063-.0058v3.9125c.0212.0002.0418.0034.063.0034 2.397 0 4.6631-1.0762 6-1.8633 1.3251.7802 3.5636 1.8412 5.937 1.8599v-3.9125c-2.4403-.0327-4.8622-1.9379-5.937-2.7442-1.0002.7504-3.4848 2.75-6 2.75z"/><path d="m56.063 35.1877c-1.0002.7504-3.4848 2.75-6 2.75-.0211 0-.0419-.0055-.063-.0058v3.9125c.0212.0002.0418.0034.063.0034 2.397 0 4.6631-1.0762 6-1.8633 1.3251.7802 3.5636 1.8412 5.937 1.8599v-3.9125c-2.4403-.0327-4.8622-1.9379-5.937-2.7442z"/></svg>