<svg height="64" viewBox="0 0 64 64" width="64" xmlns="http://www.w3.org/2000/svg"><path d="m0 0h64v64h-64z" fill="none"/><path d="m47.9711 12.4878c.6862 3.0592-.4745 6.1092-2.7611 8.111 1.4436.4236 3.0239.5076 4.6163.1588 4.8227-1.0566 7.9016-5.6949 6.877-10.2622s-5.7648-7.3005-10.5874-6.2439c-1.5925.3489-2.9887 1.0516-4.1159 2.0384 2.9284.8593 5.2848 3.1387 5.9711 6.1979z"/><path d="m54.043 51.34c-1.6626 1.2473-3.7496 2.7585-6.0353 2.7468-2.4496-.0184-4.8857-1.9374-5.9647-2.7468-1.0002.7503-3.4848 2.75-6 2.75-2.4616 0-4.9159-1.9367-6-2.75-1.0002.7503-3.4848 2.75-6 2.75-2.4616 0-4.9159-1.9367-6-2.75-1.0002.7503-3.4848 2.75-6 2.75-2.4616 0-4.9159-1.9367-6-2.75-.7361.5522-2.2784 1.7762-4.043 2.3867v4.0457c1.63-.3564 3.0794-1.0683 4.043-1.6356 1.3369.787 3.603 1.8632 6 1.8632s4.6631-1.0762 6-1.8633c1.3369.7871 3.603 1.8633 6 1.8633s4.6631-1.0762 6-1.8633c1.3369.7871 3.603 1.8633 6 1.8633s4.6631-1.0762 6-1.8633c1.7817 1.049 3.9332 1.8633 6 1.8633 2.397 0 4.6631-1.0762 6-1.8633 1.3369.7871 3.603 1.8633 6 1.8633.67 0 1.3257-.0912 1.957-.2305v-4.0656c-.6432.2236-1.3173.386-1.957.386-2.4616.0001-4.9159-1.9366-6-2.7499z"/><path d="m46 38v13.3039c.6714.3328 1.3743.5782 2.0244.5833 1.8655.0006 4.097-1.856 6.0186-3.2979 1.8226 1.3685 4.1184 3.3003 6 3.3003.5908 0 1.3893-.3176 1.957-.5149v-13.3747z"/><path d="m5 35.0551c-.002 4.7244 1.0969 10.2241 1.9263 14.1973 1.3162.9887 3.3795 2.6373 5.1167 2.6373 1.9192 0 4.2911-2.0172 6-3.3003 1.8226 1.3685 4.1184 3.3003 6 3.3003 1.9192 0 4.2911-2.0172 6-3.3003 1.8226 1.3685 4.1184 3.3003 6 3.3003 1.7332 0 3.7994-1.6481 5.0129-2.5591.8326-3.97 1.9421-9.4937 1.9442-14.2593 0 0-2.7252-1.1801-6-2.4231v-8.6482c0-.5523-.4477-1-1-1h-3v-5c0-.5523-.4477-1-1-1h-16.0001c-.5523 0-1 .4477-1 1v5h-3c-.5523 0-1 .4477-1 1v6.85c2.7895-1.0605 5.1085-1.6787 8.1461-2.1049 5.7069-.8007 10.0565.0182 12.641 1.6022.3371.2067.4349.4509.4085.6848-2.6295-.7123-5.4762-1.0057-8.1907-1.0068-8.6519-.0038-19.0049 5.0298-19.0049 5.0298zm15 7.9449h-8v-4c0-.5523.4477-1 1-1s1 .4477 1 1v2h4v-2c0-.5523.4477-1 1-1s1 .4477 1 1zm8-4c0-.5523.4477-1 1-1s1 .4477 1 1v2h4v-2c0-.5523.4477-1 1-1s1 .4477 1 1v4h-8z"/></svg>