<svg height="64" viewBox="0 0 64 64" width="64" xmlns="http://www.w3.org/2000/svg"><path d="m0 0h64v64h-64z" fill="none"/><path d="m46.4156 50.77c.9217 2.4687 3.2943 4.23 6.0844 4.23 3.5898 0 6.5-2.9102 6.5-6.5 0-1.1473-.2998-2.2234-.8215-3.1591z"/><path d="m14.5 40c-4.1422 0-7.5 3.3578-7.5 7.5s3.3578 7.5 7.5 7.5 7.5-3.3578 7.5-7.5-3.3578-7.5-7.5-7.5zm0 11c-1.933 0-3.5-1.567-3.5-3.5s1.567-3.5 3.5-3.5 3.5 1.567 3.5 3.5-1.567 3.5-3.5 3.5z"/><path d="m51.6857 28h2.9808c1.2865 0 2.3965-.9026 2.6589-2.162l2.6746-12.838h-8.8405c.8686 3.1323 1.4329 7.9493.5262 15z"/><path d="m61.9726 40.6641c-.16-.9834-1.0834-1.6641-2.0797-1.6641h-1.8929c-4.5-7.1-13.7-6.9-13.7-6.9l-2.7 12.9h-12.6v-12.1472c-1.2007-.1807-4.8203-.7407-8.5579-1.47-.3203-.0625-.2812-.2969-.2443-.3828h8.8022s3-3.69 1.6-6.59-12.6-.41-12.6-.41c-.2915-1.8809-.6176-3.5344-.9674-5h7.4756c.8239 0 1.4918-.6679 1.4918-1.4918v-.0164c0-.8239-.6679-1.4918-1.4918-1.4918h-8.3044c-2.0016-6.2158-4.4971-7.6154-6.207-7.8829-1.049-.1642-1.9558.7541-1.8639 1.8119l1.6354 18.4067c.1311 1.5074 1.3972 2.7774 2.9102 2.7774-6.0242.7759-10.6785 5.9122-10.6785 12.1476v.814c0 1.6156 1.3097 2.9253 2.9253 2.9253.2754-5.3317 4.8871-9.5167 10.3832-9.0668 5.0284.4116 8.7915 4.8301 8.7915 9.8754v1.1914h20.9l13-6h2c1.2147 0 2.1765-1.0829 1.9726-2.3359z"/><path d="m37 16h3.2516c3.0377 5.6995 4.1564 12.1592 4.312 13.9036.6737.0116 2.3815.0916 4.5188.6061 2.1958-12.7952-.3804-18.5811-1.4644-20.3466-.2316-.3771-.6854-.5643-1.1108-.4426-3.5114 1.0045-5.7016 3.1145-6.6949 4.2795h-2.8123c-.5523 0-1 .4477-1 1s.4477 1 1 1z"/></svg>