<?xml version="1.0" encoding="utf-8"?>
<!-- Generator: Adobe Illustrator 19.1.0, SVG Export Plug-In . SVG Version: 6.00 Build 0)  -->
<svg version="1.2" baseProfile="tiny" xmlns="http://www.w3.org/2000/svg" xmlns:xlink="http://www.w3.org/1999/xlink" x="0px"
	 y="0px" width="64px" height="64px" viewBox="0 0 64 64" xml:space="preserve">
<g id="_x36_4px_Box">
	<rect fill="none" width="64" height="64"/>
</g>
<g id="Icon">
	<g>
		<path d="M6,20.5c0-3.8599,3.1401-7,7-7V18c0,1.6569,1.3431,3,3,3h8v-3h7.5c0.8284,0,1.5-0.6716,1.5-1.5S32.3284,15,31.5,15H24V9
			h7.5C32.3284,9,33,8.3284,33,7.5S32.3284,6,31.5,6H24V3h-8c-1.6569,0-3,1.3431-3,3v4.5c-5.5142,0-10,4.4858-10,10v22.1749
			c0.9162-1.425,1.9222-2.8409,3-4.137V20.5z"/>
		<path d="M55.8586,51C55.9418,51.3214,56,51.6526,56,52c0,2.2091-1.7908,4-4,4c-1.8472,0-3.3865-1.2588-3.8464-2.9606
			l-0.076,0.0455C47.0815,53.6836,45.9395,54,44.7764,54h-0.5142c0.8893,3.4486,4.0115,6,7.7378,6c4.4183,0,8-3.5817,8-8
			c0-0.3394-0.0281-0.6717-0.0691-1H55.8586z"/>
		<path d="M15,60c3.3565,0,6.2257-2.0694,7.413-5H7.587C8.7743,57.9306,11.6435,60,15,60z"/>
		<path d="M51.0596,41.6525l-8.3018,9.9617c-0.1132,0.1359-0.2392,0.2572-0.359,0.3857h2.3774c0.8008,0,1.5865-0.2177,2.2731-0.6296
			l1.8892-1.1335C50.2875,49.4275,51.8309,49,53.404,49H60c0.5523,0,1-0.4478,1-1C61,44.1608,57.5232,39.7588,51.0596,41.6525z"/>
		<path d="M43.3264,26.816l-2.271-0.452c-0.3163-0.0719-0.2708-0.3079-0.2499-0.3641H43h2.5955
			c0.8024,0,1.4792-0.5975,1.5787-1.3937l0.5532-4.4258c0.1368-1.0941-0.8935-1.9752-1.9482-1.6538
			C43.9938,19.0706,41.5135,20.1191,39.792,22H35c-0.5523,0-1,0.4477-1,1c0,0.5522,0.4477,1,1,1h4.1781
			c0.5436,3.1165,2.1213,12.6876,1.6219,16.1c-0.3454,2.3605-1.5527,4.6215-2.5149,6.1152C37.567,47.33,36.3338,48,35.0078,48
			h-6.531c-2.3,0-3.9144-2.2556-3.174-4.4331c0.4957-1.4578,1.1454-3.1724,1.9535-4.9747l-9.6064-1.2281
			C17.333,37.3173,17.3791,37.0562,17.4,37H28c0.5523,0,1-0.4478,1-1v-2c0-2.2092-1.7908-4-4-4H13c-2.2092,0-4,1.7908-4,4v2
			c0,0.5522,0.4477,1,1,1h0.6c-3.647,2.9671-6.8356,8.3797-8.7389,12.0807C0.9397,50.8723,2.248,53,4.2626,53h31.2675
			c2.1987,0,4.2838-0.9766,5.6913-2.6657L49,41L43.3264,26.816z"/>
	</g>
</g>
</svg>
