<svg enable-background="new 0 0 64 64" height="64" viewBox="0 0 64 64" width="64" xmlns="http://www.w3.org/2000/svg"><path d="m0 0h64v64h-64z" fill="none"/><path d="m53.5 43c-4.1 0-7.5 3.4-7.5 7.5s3.4 7.5 7.5 7.5 7.5-3.4 7.5-7.5-3.4-7.5-7.5-7.5zm0 11.1c-2 0-3.6-1.6-3.6-3.6s1.6-3.6 3.6-3.6 3.6 1.6 3.6 3.6-1.6 3.6-3.6 3.6z"/><path d="m53.1 41-4.5-31 2.2-1.3c.7-.4 1-1.2.9-2-.2-1-1.2-1.7-2.2-1.4s-2.5.5-4 .9c-1.3.3-2.2 1.5-2 2.8s4.1 28.4 4.1 28.4c-3.5 1.6-6.4 4.6-7.7 8.4-.5 1.4-1.7 2.3-3 2.3h-17.8c-.9-4.1-4.6-7.2-9.3-7.2-3.2 0-5.9 1.2-7.7 3.6-.6.5-.1 1.5.7 1.5h6.1c0 .1.1.3-.2.4l-3.8.8c-.5 1-.8 2.2-.8 3.4 0 4.1 3.4 7.5 7.5 7.5 3.3 0 6-2.1 7.1-5h18.3c3.4 0 6.5-2.3 7.7-5.6.4-1.2 1.1-2.3 2.1-3.4 1.4-1.8 3.7-3 6.3-3.1zm-41.6 13.1c-2 0-3.6-1.6-3.6-3.6s1.6-3.6 3.6-3.6 3.6 1.6 3.6 3.6-1.6 3.6-3.6 3.6z"/></svg>