<svg enable-background="new 0 0 64 64" height="64" viewBox="0 0 64 64" width="64" xmlns="http://www.w3.org/2000/svg"><path d="m0 0h64v64h-64z" fill="none"/><path d="m57.9 42.7c-2.4-1.9-3.8-5.2-1.8-8.4 1.3-2.1 3.5-3 5.6-2.8.5 0 .6.6.2.9-.9.5-1.9 1.5-2 3.3-.2 3.3 3.7 5 3.7 5z"/><path d="m31 36h8v6h-8z"/><circle cx="24.5" cy="40.5" r="4.5"/><circle cx="45.5" cy="40.5" r="4.5"/><path d="m42 34v-13c0-.6-.4-1-1-1h-4l-6.6-3.3c-2.2-1.1-4.7-1.1-6.9 0l-4.3 2.2 3.6.8c.3.1.3.3.2.4h-6-4c-.6 0-1 .4-1 1v13h3v6h-3v4h4c1.1 0 2-.9 2-2v-8h24z"/><path d="m56.5 26.5-1.9-6.3c-.4-1.3-1.5-2.1-2.9-2.1h-7.7v16h1.5c3.6 0 6.5 2.9 6.5 6.5v.5h5v-11.5c0-1.1-.2-2.1-.5-3.1zm-8.5 1.5v-7h3.8l1.9 6.3c.1.2.1.4.1.7z"/></svg>