<?xml version="1.0" encoding="utf-8"?>
<!-- Generator: Adobe Illustrator 21.0.2, SVG Export Plug-In . SVG Version: 6.00 Build 0)  -->
<!DOCTYPE svg PUBLIC "-//W3C//DTD SVG 1.1//EN" "http://www.w3.org/Graphics/SVG/1.1/DTD/svg11.dtd">
<svg version="1.1" xmlns="http://www.w3.org/2000/svg" xmlns:xlink="http://www.w3.org/1999/xlink" x="0px" y="0px" width="64px"
	 height="64px" viewBox="0 0 64 64" style="enable-background:new 0 0 64 64;" xml:space="preserve">
<style type="text/css">
	.st0{fill:none;}
</style>
<g id="Box">
	<rect class="st0" width="64" height="64"/>
</g>
<g id="Icon">
	<rect x="4" y="20" width="6" height="2"/>
	<rect x="2" y="24" width="8" height="2"/>
	<rect x="6" y="28" width="4" height="2"/>
	<g>
		<rect x="31" y="36" width="8" height="6"/>
		<circle cx="24.5" cy="40.5" r="4.5"/>
		<circle cx="45.5" cy="40.5" r="4.5"/>
		<path d="M42,34V21c0-0.6-0.4-1-1-1h-4l-6.6-3.3c-2.2-1.1-4.7-1.1-6.9,0l-4.3,2.2l3.6,0.8c0.3,0.1,0.3,0.3,0.2,0.4H17h-4
			c-0.6,0-1,0.4-1,1v13h3v6h-3v4h4c1.1,0,2-0.9,2-2v-8H42z"/>
		<path d="M56.5,26.5l-1.9-6.3c-0.4-1.3-1.5-2.1-2.9-2.1H44v16h1.5c3.6,0,6.5,2.9,6.5,6.5c0,0.2,0,0.3,0,0.5h5V29.6
			C57,28.5,56.8,27.5,56.5,26.5z M48,28v-7h3.8l1.9,6.3c0.1,0.2,0.1,0.4,0.1,0.7H48z"/>
	</g>
	<path d="M57.9,45.7c-2.4-1.9-3.8-5.2-1.8-8.4c1.3-2.1,3.5-3,5.6-2.8c0.5,0,0.6,0.6,0.2,0.9c-0.9,0.5-1.9,1.5-2,3.3
		c-0.2,3.3,3.7,5,3.7,5L57.9,45.7z"/>
	<circle cx="4" cy="44" r="1"/>
	<circle cx="1" cy="45" r="1"/>
	<circle cx="7" cy="43" r="1"/>
	<circle cx="10" cy="42" r="1"/>
</g>
</svg>
