<svg height="64" viewBox="0 0 64 64" width="64" xmlns="http://www.w3.org/2000/svg"><path d="m0 0h64v64h-64z" fill="none"/><path d="m57 30h-1c-.5522 0-1 .4478-1 1v9c0 .5522.4478 1 1 1h1c1.1045 0 2-.8955 2-2v-7c0-1.1045-.8955-2-2-2z"/><path d="m8 30h-1c-1.1046 0-2 .8955-2 2v7c0 1.1045.8954 2 2 2h1c.5522 0 1-.4478 1-1v-9c0-.5522-.4478-1-1-1z"/><path d="m48.3667 24h-7.6573l-1.0907 4h8.5621c.5194 0 .9536.3944.9964.9121.4144 5.0116.8218 7.4237.8598 14.0884.0033.5547-.4485.9995-1.0033.9995h-34.0675c-.5547 0-1.0065-.4447-1.0033-.9995.038-6.6624.4452-9.0732.8612-14.0887.043-.5176.477-.9118.9964-.9118h8.5609l-1.0908-4h-7.6573c-2.0747 0-3.6333 2-4.0645 4.5293-.8334 4.8884-.465 5.7207-1.5688 16.4707v11s0 3.5737.3661 5.0688c.1334.544.7218.9312 1.4.9312h4.4678c.6781 0 1.2666-.3872 1.3999-.9312.2215-.9046.3088-2.5668.3433-3.7414 0 0-3.5943-.7571-4.5943-.953-.3158-.0619-.3359-.2494-.2893-.3744h37.813c.031.1328.0154.3047-.344.3906-.1563.0374-4.5396.9368-4.5396.9368.0345 1.1745.1217 2.8368.3432 3.7414.1334.544.7218.9312 1.4.9312h4.4678c.6781 0 1.2666-.3872 1.3999-.9312.3662-1.4951.3662-5.0688.3662-5.0688v-11c-1.1669-10.988-.7355-11.5823-1.5688-16.4707-.4312-2.5293-1.9898-4.5293-4.0645-4.5293zm-28.3667 27.5c0 .2761-.2239.5-.5.5h-5c-.2761 0-.5-.2239-.5-.5v-3c0-.2761.2239-.5.5-.5h5c.2761 0 .5.2239.5.5zm16 .5h-8v-2h8zm14-.5c0 .2761-.2239.5-.5.5h-5c-.2761 0-.5-.2239-.5-.5v-3c0-.2761.2239-.5.5-.5h5c.2761 0 .5.2239.5.5z"/><path d="m20 22h2.7452l-.8701-3.191c.0026 0 .0056.0001.0083.0001-.0032-.0028-.0078-.0036-.0109-.0066l5.3896-7.1453c.2334-.2377.3967-.1037.4375-.0598l-3.6996 7.4026 3 10.99h4.1783c-.0175 1.0426-.5965 1.4396-.7889 1.5322-2.5516 1.0299-3.976 3.8243-3.1586 6.6048.5906 2.0088 2.3772 3.5265 4.4543 3.7909 3.5028.4459 5.6009-2.6121 5.1055-5.6684l-.8889.0604c-.466.0317-.8773.3511-.9813.8066-.2454 1.0758-1.1728 1.9126-2.329 1.9912-1.5823.1074-2.932-1.2498-2.7188-2.9109.1182-.9203.7716-1.6851 1.6252-2.0487.9962-.4244 2.5167-1.7576 2.5361-4.1481h2.9661l3-11.0001-3.6996-7.4025c.0408-.0439.2041-.1779.4375.0598l5.3896 7.1453c-.0031.003-.0077.0038-.0109.0066.0027 0 .0057-.0001.0083-.0001l-.8701 3.191h2.7452c1.1046 0 2-.8954 2-2v-15c0-1.1046-.8954-2-2-2h-24c-1.1046 0-2 .8954-2 2v15c0 1.1046.8954 2 2 2z"/></svg>