<?xml version="1.0" encoding="utf-8"?>
<!-- Generator: Adobe Illustrator 19.1.0, SVG Export Plug-In . SVG Version: 6.00 Build 0)  -->
<svg version="1.2" baseProfile="tiny" xmlns="http://www.w3.org/2000/svg" xmlns:xlink="http://www.w3.org/1999/xlink" x="0px"
	 y="0px" width="64px" height="64px" viewBox="0 0 64 64" xml:space="preserve">
<g id="Box">
	<rect fill="none" width="64" height="64"/>
</g>
<g id="Icon">
	<path d="M54.4971,28.4243c1.1865-0.8149,1.9316-1.7895,2.1422-2.2724c0.4413-1.0103,0.1512-2.754-1.5357-3.0806
		c-0.7466-0.145-2.1601-0.0088-3.4088,0.168c-0.9667-3.4854-2.6498-9.1514-3.6323-10.1768C47.0406,11.996,44.0194,11.3453,38,11.106
		c0-0.9382,0-1.8765,0-2.8146c-0.0001-0.55-0.4467-1.0413-0.9983-1.0864c-3.3293-0.262-6.6741-0.262-10.0034,0
		C26.4467,7.2501,26.0001,7.7411,26,8.2913c0,0.9382,0,1.8765,0,2.8146c-6.0195,0.2393-9.0406,0.89-10.0625,1.9565
		c-0.9824,1.0254-2.6655,6.6914-3.6323,10.1768c-1.2486-0.1768-2.6621-0.313-3.4087-0.168
		c-1.687,0.3266-1.9771,2.0703-1.5357,3.0806c0.2105,0.4829,0.9556,1.4575,2.1421,2.2724C7.5679,31.0283,7,33.2915,7,37.5
		C7,42.9375,7,49,7,49s0,3.3647,0.4702,5.6045C7.6416,55.4199,8.3975,56,9.2681,56h6.4638c0.8712,0,1.6265-0.5801,1.7979-1.3955
		c0.2622-1.2505,0.3784-2.8501,0.4297-4.0205l-6.1297-1.2199C11.5126,49.2623,11.559,49.0562,11.5799,49H32h20.4201
		c0.0209,0.0562,0.0673,0.2623-0.2499,0.3641l-6.1297,1.2199c0.0513,1.1704,0.1675,2.77,0.4297,4.0205
		C46.6416,55.4199,47.397,56,48.2681,56h6.4638c0.8712,0,1.6265-0.5801,1.7979-1.3955C57,52.3647,57,49,57,49s0-6.0625,0-11.5
		C57,33.2915,56.4321,31.0283,54.4971,28.4243z M18.8955,15.7412c0.5869-0.292,4.8955-0.791,13.1045-0.791
		s12.5176,0.499,13.1045,0.791c0.5815,0.9873,2.4375,7.3906,2.9673,9.9756c-2.9219,0.812-9.5742,1.3633-16.0718,1.3633
		s-13.1499-0.5513-16.0718-1.3633C16.458,23.1318,18.314,16.7285,18.8955,15.7412z M20.4834,41.7202l-5.8882-0.4707
		C13,41.1221,12.0225,39.8491,11.73,38.4531l-0.2427-1.6865c-0.1499-1.043,0.9214-1.9282,1.9775-1.6343l4.7662,1.3242
		c1.0366,0.399,1.8198,1.209,2.1537,2.2256l0.6533,2.4263C21.125,41.4302,20.835,41.7495,20.4834,41.7202z M38,46H26v-3h12V46z
		 M52.5127,36.7666L52.27,38.4531c-0.2925,1.396-1.27,2.669-2.8652,2.7964l-5.8882,0.4707c-0.3516,0.0293-0.6416-0.29-0.5547-0.6118
		l0.6533-2.4263c0.334-1.0166,1.1172-1.8266,2.1534-2.2256l4.7666-1.3242C51.5913,34.8384,52.6626,35.7236,52.5127,36.7666z"/>
</g>
</svg>
