<svg enable-background="new 0 0 64 64" viewBox="0 0 64 64" xmlns="http://www.w3.org/2000/svg"><path d="m0 0h64v64h-64z" fill="none"/><path d="m57 16h-1c-.552 0-1 .448-1 1v10c0 .552.448 1 1 1h1c1.104 0 2-.896 2-2v-8c0-1.104-.896-2-2-2z"/><path d="m8 16h-1c-1.104 0-2 .896-2 2v8c0 1.104.896 2 2 2h1c.552 0 1-.448 1-1v-10c0-.552-.448-1-1-1z"/><path d="m48.367 7h-32.734c-2.075 0-3.817 1.516-4.064 3.529-.605 4.922-1.569 14.49-1.569 25.471v15s0 3.574.366 5.069c.134.544.722.931 1.4.931h2.234 2.234c.678 0 1.267-.387 1.4-.931.221-.905.309-2.567.343-3.741 0 0-3.594-.757-4.594-.953-.316-.062-.336-.249-.289-.374h37.813c.031.133.015.305-.344.391-.156.037-4.54.937-4.54.937.034 1.174.122 2.837.343 3.741.134.543.722.93 1.4.93h2.234 2.234c.678 0 1.267-.387 1.4-.931.366-1.495.366-5.069.366-5.069v-15c0-10.981-.964-20.549-1.569-25.471-.247-2.013-1.99-3.529-4.064-3.529zm-26.367 38c0 .552-.448 1-1 1h-6c-.552 0-1-.448-1-1v-2c0-.65.611-1.128 1.243-.97l6 .97c.445.111.757.511.757.97zm28 0c0 .552-.448 1-1 1h-6c-.552 0-1-.448-1-1v-1.03c0-.459.312-.859.757-.97l6-.97c.632-.158 1.243.32 1.243.97zm0-8c0 .552-.448 1-1 1h-34c-.552 0-1-.448-1-1v-1c0-10.2.853-19.219 1.427-24.124.059-.504.479-.88.986-.88 4.671-.003 26.497-.012 31.167-.014.508 0 .928.375.987.879.58 4.923 1.433 13.941 1.433 24.139z"/></svg>