<svg height="64" viewBox="0 0 64 64" width="64" xmlns="http://www.w3.org/2000/svg"><path d="m0 0h64v64h-64z" fill="none"/><path d="m43.5488 54.4395c-.0368.0075-1.9044.3805-4.7245.6821l1.1757 5.8784h6l-2.0027-6.6758c-.1496.0384-.2951.0807-.4485.1153z"/><path d="m19.9996 54.3347-1.9996 6.6653h6l1.1755-5.8777c-2.7916-.2981-4.6365-.6648-4.6672-.6711-.1737-.0339-.3397-.0771-.5087-.1165z"/><path d="m44 3h-24c-2.7617 0-5 2.2388-5 5v38c0 3.3135 2.583 5.3335 6 6 0 0 5 1 11 1s11-1 11-1c3.333-.75 6-2.6865 6-6v-38c0-2.7612-2.2383-5-5-5zm-20 3h16v3h-16zm2.2142 42.072c-.8869.0626-2.1174-.0932-3.2401-.2681-1.7247-.2686-3.15-1.5433-3.15-3.0388v-2.2974c0-.851.7178-1.0495 1.4704-.55 1.5186 1.0074 4.444 3.2801 5.5638 4.4732.6665.7112.3589 1.6109-.6441 1.6811zm-1.0843-10.4215c-2.1123-.3628-3.9033-1.7322-3.9961-3.9291l-1.0889-20.6499c-.0244-.5839.4297-1.0715.999-1.0715h21.9112c.5703 0 1.0244.4876 1 1.0715l-1.0889 20.6499c-.0928 2.1969-1.876 3.6173-3.9961 3.9291-1.3076.1926-3.9707.4495-6.8701.4495s-5.75-.2569-6.8701-.4495zm19.046 7.1146c0 1.4955-1.4253 2.7702-3.15 3.0388-1.1227.1749-2.3532.3307-3.2401.2681-1.003-.0702-1.3106-.9699-.6441-1.6811 1.1198-1.1931 4.0452-3.4658 5.5638-4.4732.7526-.4995 1.4704-.301 1.4704.55z"/></svg>