<svg height="64" viewBox="0 0 64 64" width="64" xmlns="http://www.w3.org/2000/svg"><path d="m0 0h64v64h-64z" fill="none"/><path d="m12.0002 61h6l1.0225-5.1126c-1.9041-.3669-3.5695-.8895-5.0284-1.5344z"/><path d="m45.3807 31.9114.6146-15.7836c.043-1.104-.1885-2.1899-.6767-3.1552-1.4688-2.8998-4.7462-9.1636-5.9922-9.8658-1.5801-.8895-8.1905-1.1068-13.3262-1.1068-5.1367 0-11.7461.2173-13.3262 1.1069-1.2469.7022-4.5234 6.9659-5.9922 9.8658-.4882.9653-.7197 2.0512-.6767 3.1552l.8955 22.9971c.5078 13.0649 11.6914 14.875 19.0996 14.875.641 0 1.3116-.0149 1.9998-.0481 0-4.3137 0-6.6239 0-11.2853 0-6.081 7.309-10.7666 17.0012-10.7666.1286 0 .2518.0098.3795.0114zm-19.3805-25.0614c1.7401 0 3.15 1.4104 3.15 3.15 0 1.7395-1.4099 3.15-3.15 3.15s-3.15-1.4105-3.15-3.15c0-1.7396 1.4099-3.15 3.15-3.15zm-9 36.3c-1.7401 0-3.15-1.4105-3.15-3.15 0-1.7396 1.4099-3.15 3.15-3.15s3.15 1.4104 3.15 3.15c-.0001 1.7395-1.4099 3.15-3.15 3.15zm23.6015-25.8561-3.3848 11c-.1288.42-.5165.7061-.955.7061h-20.5234c-.4385 0-.8262-.2861-.9551-.7061l-3.3848-11c-.1982-.643.2832-1.2939.9551-1.2939h27.293c.6719 0 1.1533.6509.955 1.2939z"/><path d="m45.0012 54c7.8499 0 13.9988-3.3747 13.9988-7.6786 0-.6324 0-3.0202 0-3.6548 0-4.2993-6.1489-7.6666-13.9988-7.6666-7.852 0-14.0012 3.3673-14.0012 7.6666v3.6548c0 .9494.3142 1.8492.865 2.6819-.553.8255-.865 1.7191-.865 2.6633v3.6548c0 4.3039 6.1492 7.6786 14.0012 7.6786 7.8499 0 13.9988-3.3747 13.9988-7.6786v-3.6548c0-.2049-.0266-.4056-.0542-.606-.7144.8958-4.5718 5.1376-13.6127 5.1376-8.0173 0-10.7806-3.8577-11.0667-4.3807-.117-.2137-.2019-.4362-.0766-.5667 2.5482 1.6889 6.4118 2.7492 10.8114 2.7492zm-11.3-11c0-2.8444 5.06-5.15 11.302-5.15 6.2419 0 11.302 2.3056 11.302 5.15 0 2.8443-5.0601 5.15-11.302 5.15-6.242 0-11.302-2.3057-11.302-5.15z"/><path d="m42.8542 44.7261v.6765h1.5551v-.5565c.3053.0191.6703.0191 1.016.0191h.384v.5374h1.5169v-.6165c2.7834-.2999 4.1093-1.2644 4.1093-2.6701 0-.547-.0571-.7846-.3076-1.3435h-2.0559c.2123.5182.2886.7773.2886 1.2546 0 .6166-.5938 1.1155-2.0344 1.334v-1.7634h-1.5169v1.8928c-.1906.0096-.384.0194-.6128.0194-.2696 0-.52-.0098-.7872-.0194v-1.8928h-1.5551v1.7539c-1.4023-.209-2.1322-.6575-2.1322-1.3748 0-.4078.0764-.6454.248-1.1539h-2.168c-.1739.427-.2312.7269-.2312 1.1227 0 1.4155 1.4404 2.4206 4.2834 2.7805z"/></svg>