<svg height="64" viewBox="0 0 64 64" width="64" xmlns="http://www.w3.org/2000/svg"><path d="m0 0h64v64h-64z" fill="none"/><path d="m38.9775 55.8874 1.0225 5.1126h6l-1.9941-6.647c-1.4589.6449-3.1243 1.1675-5.0284 1.5344z"/><path d="m18 61h6l1.0225-5.1126c-1.9041-.3669-3.5695-.8895-5.0284-1.5344z"/><path d="m51.3184 12.9727c-1.4688-2.8999-4.7461-9.1636-5.9922-9.8658-1.5801-.8896-8.1905-1.1069-13.3262-1.1069-5.1367 0-11.7461.2173-13.3262 1.1069-1.247.7022-4.5234 6.9659-5.9922 9.8658-.4882.9653-.7197 2.0512-.6767 3.1552l.8955 22.9971c.5078 13.0649 11.6914 14.875 19.0996 14.875s18.5918-1.8101 19.0996-14.875l.8955-22.9971c.043-1.104-.1885-2.1899-.6767-3.1552zm-19.3184-6.1227c1.7401 0 3.15 1.4104 3.15 3.15 0 1.7395-1.4099 3.15-3.15 3.15s-3.15-1.4105-3.15-3.15c0-1.7396 1.4099-3.15 3.15-3.15zm-9 36.3c-1.7401 0-3.15-1.4105-3.15-3.15 0-1.7396 1.4099-3.15 3.15-3.15s3.15 1.4104 3.15 3.15c0 1.7395-1.4099 3.15-3.15 3.15zm18 0c-1.7401 0-3.15-1.4105-3.15-3.15 0-1.7396 1.4099-3.15 3.15-3.15s3.15 1.4104 3.15 3.15c0 1.7395-1.4099 3.15-3.15 3.15zm5.6016-25.8561-3.3848 11c-.1289.42-.5166.7061-.9551.7061h-20.5234c-.4385 0-.8262-.2861-.9551-.7061l-3.3848-11c-.1982-.643.2832-1.2939.9551-1.2939h27.293c.6719 0 1.1533.6509.9551 1.2939z"/></svg>