<svg viewBox="0 0 64 64" xmlns="http://www.w3.org/2000/svg"><path d="m0 0h64v64h-64z" fill="none"/><path d="m31.93 27 6.22-1.2-3.54 3.88 2.47 2.47 5.63-6.15c.25 1 .57 2.18 1 3.36 2.1 6.45 4.7 9.51 5 9.93a.51.51 0 0 0 .93-.32c-.09-.53-1-3-2.1-7.41a7 7 0 0 1 1-.09 7.12 7.12 0 0 1 1.81 14l2.65 2.53a10.46 10.46 0 0 0 -4.41-19.95 9.7 9.7 0 0 0 -1.79.18c-.53-2.35-1.08-4.75-1.08-4.75l-1.76-8.85a1.74 1.74 0 0 0 -2-1.38l-5 .76a1.35 1.35 0 0 0 .2 2.69h3.62l1 4.79-12.78 2.51z"/><path d="m39.1 34.15 2.6 2.6a7.16 7.16 0 0 1 1.7-3.06c-.44-1-.87-2.12-1.28-3.36a10.45 10.45 0 0 0 -3.02 3.82z"/><path d="m47.75 45.63-6.24-6.24-3.14-3.14-2.64-2.64-2.48-2.48-3.7-3.7-3-3-2.86-2.86-3.1-3.1-12.86-12.86-2.12 2.12 11.24 11.27a1.65 1.65 0 0 0 -.33.37c-1.2 1.9 2.7 3.32 3.21 3.49l1.05 3.66s-7.16 10-7.39 10.29a2.7 2.7 0 0 0 1.61 4.34l6.58.89a7.11 7.11 0 1 1 -6.74-10.57l2.29-3.22a10.08 10.08 0 0 0 -1.75-.16 10.47 10.47 0 1 0 9.7 14.42l2.92.38a3.46 3.46 0 0 0 4-3.46 3.49 3.49 0 0 0 -.3-1.43l2-2.2 4.58 4.58a10.46 10.46 0 0 0 8.46 8.46l9.47 9.47 2.12-2.12-7.44-7.44zm-29.46-9.69 3.71-5.18 1.49 5.18zm10.56 0h-1.71l-2.2-7.62 1-.2 5.24 5.23z"/><path d="m27.06 20.21a.89.89 0 0 0 -.3-1.72h-3.32l2.27 2.27c.61-.26 1.11-.46 1.35-.55z"/></svg>