<?xml version="1.0" encoding="utf-8"?>
<!-- Generator: Adobe Illustrator 25.0.0, SVG Export Plug-In . SVG Version: 6.00 Build 0)  -->
<svg version="1.1" xmlns="http://www.w3.org/2000/svg" xmlns:xlink="http://www.w3.org/1999/xlink" x="0px" y="0px"
	 viewBox="0 0 64 64" style="enable-background:new 0 0 64 64;" xml:space="preserve">
<style type="text/css">
	.st0{fill:none;}
	.st1{fill:#FFFFFF;}
	.st2{fill:#B3B3B3;}
</style>
<g id="Box">
	<rect class="st0" width="64" height="64"/>
</g>
<g id="Icon">
	<g>
		<path d="M32.703,11.141c2.773-1.188,4.477-2.903,4.282-4.159c-0.181-1.163-2.791-2.576-7.107-0.727
			c-1.296,0.555-2.936,1.258-6.429,2.754L12.981,5.207c-0.201-0.073-0.422-0.067-0.618,0.017l-0.868,0.372
			c-0.18,0.077-0.227,0.31-0.092,0.451l5.514,5.76c-0.158,0.068-0.304,0.13-0.466,0.2c-2.335,1-4.275,1.961-5.847,2.823
			l-6.487-3.306c-0.222-0.113-0.483-0.122-0.713-0.024l-0.826,0.354c-0.176,0.075-0.226,0.301-0.099,0.444l4.338,4.881
			c-0.517,0.375-0.897,0.687-1.135,0.914c-0.352,0.336-0.23,0.921,0.25,0.993c2.903,0.436,8.664-0.771,12.277-1.894l-2.659,9.333
			c-0.064,0.227,0.163,0.427,0.38,0.334l1.804-0.773c0.15-0.064,0.278-0.171,0.369-0.307l7.8-11.727
			C28.625,12.888,31.727,11.559,32.703,11.141z"/>
		<path d="M57.948,38.388c0.973-0.668,1.584-1.467,1.756-1.863c0.362-0.828,0.124-2.258-1.259-2.526
			c-0.612-0.119-1.771-0.007-2.795,0.138c-0.793-2.858-2.173-7.504-2.979-8.345C51.591,24.663,47.802,24.1,39.5,24.1
			s-12.091,0.563-13.171,1.691c-0.805,0.841-2.186,5.487-2.978,8.345c-1.024-0.145-2.183-0.257-2.795-0.138
			c-1.383,0.268-1.621,1.698-1.259,2.526c0.173,0.396,0.784,1.195,1.756,1.863C19.466,40.523,19,42.379,19,45.83
			c0,4.459,0,9.43,0,9.43s0,2.759,0.385,4.596C19.526,60.524,20.146,61,20.86,61h5.3c0.714,0,1.334-0.476,1.474-1.144
			c0.215-1.025,0.31-2.337,0.352-3.297c0,0-4.504-1.03-4.857-1.124c-0.264-0.07-0.43-0.201-0.374-0.475h33.489
			c0.055,0.274-0.11,0.405-0.375,0.475c-0.353,0.094-4.857,1.124-4.857,1.124c0.042,0.96,0.137,2.271,0.353,3.297
			C51.506,60.524,52.125,61,52.84,61h5.3c0.714,0,1.334-0.476,1.474-1.144C60,58.019,60,55.26,60,55.26s0-4.971,0-9.43
			C60,42.379,59.534,40.523,57.948,38.388z M28.754,27.988c0.481-0.239,4.014-0.649,10.746-0.649s10.264,0.409,10.746,0.649
			c0.477,0.81,1.999,6.06,2.433,8.18c-2.396,0.666-7.851,1.118-13.179,1.118s-10.783-0.452-13.179-1.118
			C26.756,34.048,28.277,28.797,28.754,27.988z M30.056,49.291l-4.828-0.386c-1.308-0.104-2.11-1.148-2.349-2.293l-0.199-1.383
			c-0.123-0.855,0.755-1.581,1.622-1.34l3.908,1.086c0.85,0.327,1.492,0.991,1.766,1.825l0.536,1.99
			C30.583,49.053,30.345,49.315,30.056,49.291z M44,52h-9v-2h9V52z M56.32,45.229l-0.199,1.383c-0.24,1.145-1.041,2.189-2.349,2.293
			l-4.828,0.386c-0.288,0.024-0.526-0.238-0.455-0.502l0.536-1.99c0.274-0.834,0.916-1.498,1.766-1.825l3.909-1.086
			C55.565,43.647,56.443,44.373,56.32,45.229z"/>
	</g>
</g>
</svg>
