<svg height="64" viewBox="0 0 64 64" width="64" xmlns="http://www.w3.org/2000/svg"><path d="m0 0h64v64h-64z" fill="none"/><path d="m50.1648 26c-2.4811 0-5.6157 0-12.4437 0l-13.2898-12.459c-.3706-.3476-.8597-.541-1.3678-.541h-1.4009c-.3358 0-.5682.3354-.4503.6498l3.9389 10.5037 7.4427 1.4962c.3051.0979.2605.2961.2404.3502-2.2969 0-4.904 0-7.8893 0-4.4327 0-8.2012.216-11.3019.5317l-7.5104-9.0125c-.2744-.3289-.6804-.5191-1.1087-.5191h-1.5427c-.3282 0-.5601.3216-.4562.6331l3.3422 10.0267c-1.1942.2712-2.0806.5353-2.6514.756-.7861.3039-.9918 1.3484-.278 1.8047 4.4908 2.8708 15.1067 4.9921 21.5558 5.598l-10.8851 13.3973c-.2554.3142-.0317.7842.3733.7842h3.2034c.3888 0 .7691-.1133 1.0945-.326l20.913-13.674h11.6332c5.209 0 9.0786-1.6154 9.6227-3.8125.5039-2.0344-2.6775-6.1875-10.7839-6.1875z"/></svg>