<svg enable-background="new 0 0 64 64" viewBox="0 0 64 64" xmlns="http://www.w3.org/2000/svg"><path d="m0 0h64v64h-64z" fill="none"/><path d="m32.703 11.141c2.773-1.188 4.477-2.903 4.282-4.159-.181-1.163-2.791-2.576-7.107-.727-1.296.555-2.936 1.258-6.429 2.754l-10.468-3.802c-.201-.073-.422-.067-.618.017l-.868.372c-.18.077-.227.31-.092.451l5.514 5.76c-.158.068-.304.13-.466.2-2.335 1-4.275 1.961-5.847 2.823l-6.487-3.306c-.222-.113-.483-.122-.713-.024l-.826.354c-.176.075-.226.301-.099.444l4.338 4.881c-.517.375-.897.687-1.135.914-.352.336-.23.921.25.993 2.903.436 8.664-.771 12.277-1.894l-2.659 9.333c-.064.227.163.427.38.334l1.804-.773c.15-.064.278-.171.369-.307l7.8-11.727c2.722-1.164 5.824-2.493 6.8-2.911z"/><path d="m57.948 38.388c.973-.668 1.584-1.467 1.756-1.863.362-.828.124-2.258-1.259-2.526-.612-.119-1.771-.007-2.795.138-.793-2.858-2.173-7.504-2.979-8.345-1.08-1.129-4.869-1.692-13.171-1.692s-12.091.563-13.171 1.691c-.805.841-2.186 5.487-2.978 8.345-1.024-.145-2.183-.257-2.795-.138-1.383.268-1.621 1.698-1.259 2.526.173.396.784 1.195 1.756 1.863-1.587 2.136-2.053 3.992-2.053 7.443v9.43s0 2.759.385 4.596c.141.668.761 1.144 1.475 1.144h5.3c.714 0 1.334-.476 1.474-1.144.215-1.025.31-2.337.352-3.297 0 0-4.504-1.03-4.857-1.124-.264-.07-.43-.201-.374-.475h33.489c.055.274-.11.405-.375.475-.353.094-4.857 1.124-4.857 1.124.042.96.137 2.271.353 3.297.141.668.76 1.144 1.475 1.144h5.3c.714 0 1.334-.476 1.474-1.144.386-1.837.386-4.596.386-4.596s0-4.971 0-9.43c0-3.451-.466-5.307-2.052-7.442zm-29.194-10.4c.481-.239 4.014-.649 10.746-.649s10.264.409 10.746.649c.477.81 1.999 6.06 2.433 8.18-2.396.666-7.851 1.118-13.179 1.118s-10.783-.452-13.179-1.118c.435-2.12 1.956-7.371 2.433-8.18zm1.302 21.303-4.828-.386c-1.308-.104-2.11-1.148-2.349-2.293l-.199-1.383c-.123-.855.755-1.581 1.622-1.34l3.908 1.086c.85.327 1.492.991 1.766 1.825l.536 1.99c.071.263-.167.525-.456.501zm13.944 2.709h-9v-2h9zm12.32-6.771-.199 1.383c-.24 1.145-1.041 2.189-2.349 2.293l-4.828.386c-.288.024-.526-.238-.455-.502l.536-1.99c.274-.834.916-1.498 1.766-1.825l3.909-1.086c.865-.241 1.743.485 1.62 1.341z"/></svg>