<svg height="64" viewBox="0 0 64 64" width="64" xmlns="http://www.w3.org/2000/svg"><path d="m0 0h64v64h-64z" fill="none"/><path d="m38.8304 21.7285-6.2357-1.7017-1.3958-3.0397-.7828 4.5108-4.3792 1.3177-5.2669-1.1316 4.8165 3.4771 3.0579-.9596.0897 3.4722 3.1452-4.7021 8.7738.8526 1.2621-3.6816 4.71-.457-5.6113-1.6791z"/><path d="m58.1142 19.6382-.9969-.0779c-.551-.0431-1.0319.3685-1.0749.919l-.7794 9.9696c-.043.5505.368 1.0318.919 1.0749l.9969.0779c1.1011.0861 2.0637-.7369 2.1498-1.838l.6235-7.9756c.0861-1.1011-.7369-2.0637-1.838-2.1499z"/><path d="m9.4028 26.8636.7794-9.9695c.0431-.5505-.368-1.0319-.919-1.075l-.9969-.0779c-1.1011-.0861-2.0637.7369-2.1498 1.8381l-.6235 7.9756c-.0861 1.1011.7369 2.0637 1.838 2.1498l.9969.0779c.5511.0431 1.0319-.3685 1.0749-.919z"/><path d="m51.2606 7.8196c-.6532-1.155-1.838-1.9006-3.161-2.004-3.0571-.239-8.9727-.7015-13.8961-1.0864l-13.8941-1.0862c-1.3232-.1034-2.6113.4488-3.436 1.4882-1.5756 1.9853-3.2056 5.4704-3.8869 7.9698-1.4062 5.1561-2.6646 14.8374-2.6646 14.8374l-.3118 3.9879-1.6367 20.9361s-.325 4.1567-.0501 5.9277c.0995.6444.7244 1.1464 1.4847 1.2058l.0515.0041h5.3815c.7011 0 1.0847-.1047 1.2332-.5726.3276-1.0326.5792-2.9545.7249-4.3173 0 0-5.2949-1.5433-5.4723-1.6044-.3048-.105-.3328-.2897-.2694-.4022l37.698 2.9472c.0433.1444-.0234.2944-.3408.3508-.1847.0328-5.6429.7391-5.6429.7391-.0004.0087-.0008.0189-.0012.0276-.2085.8812-1.1705 1.2033-1.1705 1.8063 0 .6147.4731 1.0255 1 1.0255h9c.5269 0 1-.4108 1-1.0255 0-.5594-.7977-.8691-.8466-1.7331.0554-.5663.0861-.9496.0861-.9496l1.6368-20.9361.3118-3.9879s.2013-7.9249-.3264-15.0713c-.1908-2.5831-1.3532-6.2709-2.6011-8.4769zm-32.6059 41.8345c-.043.5505-.5239.9621-1.0749.919l-4.9848-.3897c-.551-.0431-.962-.5244-.919-1.0749l.2338-2.9909c.043-.5505.5239-.9621 1.0749-.919l4.9848.3897c.551.0431.962.5244.919 1.0749zm21.2479-2.3511-17.9453-1.403-.2429-2.0251 18.7428 1.4653zm1.1093-3.9255-19.5404-1.5276-.2429-2.0251 20.338 1.59zm-20.0262-5.5778-.2429-2.0251 21.9331 1.7147-.5547 1.9628zm28.5747 14.2706c-.043.5505-.5239.962-1.0749.919l-4.9848-.3897c-.551-.0431-.962-.5244-.919-1.0749l.2338-2.9909c.043-.5505.5239-.9621 1.0749-.919l4.9848.3897c.551.0431.962.5244.919 1.0749zm.6234-22.1077c-.0361.5879-.4908 1.0538-1.0779 1.0079l-33.7009-2.6346c-.588-.046-.9648-.5764-.9082-1.1632.3497-3.645 1.3986-9.5812 2.3391-12.8779.1403-.4919.5493-.8499 1.0604-.8099l31.0557 2.4279c.5111.04.8783.4551.9217.9649.3582 4.1504.5497 9.1806.3101 13.0849z"/></svg>