<svg height="64" viewBox="0 0 64 64" width="64" xmlns="http://www.w3.org/2000/svg"><path d="m0 0h64v64h-64z" fill="none"/><path d="m41.2615 41h-.5969c-.0573-.5096-.1335-1.1582-.2742-1.8632-.203-1.1073-.5592-2.2828-1.3352-3.4258-.1863-.2745-.4542-.4693-.7556-.587-.0074-.1004-.0258-.2004-.0582-.2978l-.2722-.8163c-.151-.453-.5055-.7945-.9419-.937-.1453-.0475-.2999-.0729-.4591-.0729h-9.1365c-.1592 0-.3138.0254-.4592.0729-.4365.1425-.7909.4839-.9419.937l-.2722.8163c-.0324.0974-.0508.1974-.0582.2978-.3013.1177-.5692.3125-.7556.587-.776 1.143-1.1323 2.3185-1.3352 3.4258-.1406.705-.2169 1.3536-.2742 1.8632h-.5969c-.4077 0-.7383.2975-.7383.6644v2.2356.4219c0 .3669.3306.6644.7385.6644h.2704c-.0058.1026-.0089.1621-.0089.1621v1.8156c0 .0234 0 .0313 0 .03v6.3184s0 2.5384.1686 3.2465c.0612.2576.332.441.644.441h2.3748c.312 0 .5829-.1834.644-.441.1941-.8152.1686-2.5589.1686-2.5589h4.5392.4113 5.0495s-.0255 1.7437.1686 2.559c.0611.2576.332.441.644.441h2.3748c.3121 0 .5829-.1834.644-.441.1686-.7081.1686-3.2465.1686-3.2465 0-5.1357 0-6.1527 0-6.3184 0-.0198 0-.0291 0-.03 0-.0974 0-.485 0-1.8156 0 0-.0031-.0596-.0089-.1621h.2704c.4078 0 .7385-.2975.7385-.6644v-.422-2.2356c0-.3669-.3306-.6644-.7385-.6644zm-13.2615 10.75c0 .1381-.1119.25-.25.25h-2.5c-.1381 0-.25-.1119-.25-.25v-1.5c0-.1381.1119-.25.25-.25h2.5c.1381 0 .25.1119.25.25zm-1.4326-6.75h-1.1778c-.2307 0-.3937-.1993-.3896-.4344.0011-.0652.0047-.1413.0067-.2101.0009.0003.0019.0004.0028.0007.0403-1.5295.2553-3.4341.5104-5.0046.0009-.0056.0041-.0102.0052-.0157.0424-.1827.1765-.3212.3575-.3342.0091-.0007.0168-.0051.0261-.0051h12.1826c.0093 0 .017.0044.0261.0051.181.013.3151.1516.3575.3342.0011.0056.0043.0101.0052.0157.2551 1.5705.47 3.475.5104 5.0046.0009-.0003.0019-.0004.0028-.0007.002.0688.0056.1449.0067.2101.0041.2351-.159.4344-.3896.4344h-1.1778zm12.4326 6.75c0 .1381-.1119.25-.25.25h-2.5c-.1381 0-.25-.1119-.25-.25v-1.5l.25-.25h2.5c.1381 0 .25.1119.25.25z"/><path d="m32 9-24 12v36h11v-26h26v26h11v-36zm4.4991 16.2042h-2.9984c-.0716.7432-.6905 1.3263-1.4525 1.3263s-1.3809-.5831-1.4525-1.3263h-3.1176c-.4101 0-.6458-.4665-.4025-.7966l.668-.9065c.2873-.3899.4759-.8435.5497-1.3221l.5754-3.7292c.3407-1.3099 1.6326-2.2356 3.1199-2.2356h.0001c1.4873 0 2.7792.9257 3.1198 2.2356l.5754 3.7292c.0739.4786.2625.9323.5497 1.3221l.668.9065c.2433.3301.0076.7966-.4025.7966z"/></svg>