<?xml version="1.0" encoding="utf-8"?>
<!-- Generator: Adobe Illustrator 19.1.0, SVG Export Plug-In . SVG Version: 6.00 Build 0)  -->
<svg version="1.2" baseProfile="tiny" xmlns="http://www.w3.org/2000/svg" xmlns:xlink="http://www.w3.org/1999/xlink" x="0px"
	 y="0px" width="64px" height="64px" viewBox="0 0 64 64" xml:space="preserve">
<g id="_x36_4px_Box">
	<rect fill="none" width="64" height="64"/>
</g>
<g id="Icon">
	<g>
		<path d="M36.9921,3.013l-9.2109,1.7607c-0.632,0.1208-0.5889,1.0392,0.0515,1.1005l7.6736,0.7334
			C25.4048,29.8876,9.3252,42.9327,9.3252,42.9327h27.6669V3.013z"/>
		<path d="M57.6,41.0021c0,0-6.3251-14.0117-18.5978-26.1026v27.1924C39.0021,42.0919,48.8812,36.0199,57.6,41.0021z"/>
		<path d="M60.9046,43.5006c-18.8091-1.5119-45.5928,4.0963-50.9628,5.2797c-0.772,0.1701-1.4448,0.6143-1.9078,1.255
			c-1.1295,1.5628-2.3658,4.2006-3.0024,5.6334c1.8887-0.4912,3.7529-1.7885,5.402-2.8592
			c1.9942,1.3002,4.4862,3.0601,6.8525,3.0601c2.3918,0,4.8658-1.7664,6.8564-3.0747c1.9839,1.303,4.4656,3.0747,6.8574,3.0747
			c2.3754,0,4.829-1.7411,6.8604-3.0601c1.9808,1.2904,4.4822,3.0601,6.8535,3.0601c2.3754,0,4.829-1.7411,6.8604-3.0601
			c1.079,0.7029,1.8274,1.2103,2.7875,1.7457c1.8491-3.0132,4.3168-6.5721,7.1389-9.4329
			C62.0735,44.5417,61.7176,43.5659,60.9046,43.5006z"/>
		<path d="M51.5723,55.4343c-1.9217,1.2474-4.3122,2.6357-6.8584,2.6357c-2.531,0-4.9498-1.3942-6.8555-2.6357
			C35.9367,56.6816,33.5462,58.07,31,58.07c-2.5021,0-4.9015-1.3582-6.8569-2.6426c-1.9785,1.2996-4.3679,2.6426-6.8569,2.6426
			c-2.531,0-4.9498-1.3942-6.8555-2.6357C8.5014,56.6866,6.1135,58.07,3.5718,58.07c-0.8727,0-1.7592-0.1942-2.5718-0.4539v4.0706
			C1.825,61.8756,2.6932,62,3.5718,62c2.7476,0,5.415-1.1777,6.8574-1.9424C11.8711,60.8223,14.5386,62,17.2861,62
			c2.7471,0,5.415-1.1777,6.8569-1.9424C25.585,60.8223,28.2524,62,31,62s5.415-1.1777,6.8569-1.9424
			C39.2988,60.8223,41.9668,62,44.7139,62c2.7476,0,5.415-1.1777,6.8569-1.9424C53.0132,60.8223,55.6807,62,58.4282,62
			c0.8786,0,1.7468-0.1244,2.5718-0.3134V57.614c-0.8141,0.2608-1.7014,0.456-2.5718,0.456
			C55.8972,58.07,53.478,56.6758,51.5723,55.4343z"/>
	</g>
</g>
</svg>
