<svg height="64" viewBox="0 0 64 64" width="64" xmlns="http://www.w3.org/2000/svg"><path d="m0 0h64v64h-64z" fill="none"/><path d="m36.8369 43.499c.2539-1.9951 1.96-3.499 3.9688-3.499h2.5048c.0663-.2003.1478-.3947.2369-.585-2.5711-1.2164-5.5556-2.1998-7.3206-2.735-.155-1.1155-.3614-2.4073-.5466-3.4836 1.7886-2.1667 2.8874-4.4047 3.2495-6.6968 1.3281-1.2195 2.0679-3.1657 2.0679-5.5557 0-.7448.0012-2.7025-1.2268-4.0366.3037-3.3378.515-8.5034-.7869-10.587-1.6026-2.5649-3.5499-3.8159-7.2632-2.9775-2.4355-1.1577-4.0937-1.8823-8.3608-.8398-2.9649.7241-6.21 1.9067-7.92 3.8798-1.652 1.9066-1.5394 7.2238-1.2741 10.6054-1.1589 1.332-1.1634 3.2256-1.1634 3.9557 0 2.386.7374 4.3299 2.0613 5.5497.3819 2.5118 1.613 4.9141 3.7106 7.2619-.106.807-.2283 1.7498-.353 2.7313-2.5129.7345-9.6714 2.9969-12.0341 5.5665-2.8735 3.124-4.3872 14.8896-4.3872 14.8896h25 10v-3.9215c-.7379-.8368-1.1155-1.9677-.9688-3.1415zm-9.4559 3.7837c-2.3003-1.75-6.5919-5.5302-6.1588-9.0224.237-1.9129.0408-.5492.8235-5.4371-2.2767-2.1999-4.1043-4.8665-4.1043-8.061-1.6177-.5039-2.0414-2.5454-2.0414-3.8183 0-1.2725.3217-1.9611.7738-2.1743.3921-.1845.7725-.0476 1.013.0886.1414.6527.2483 1.1383.2898 1.3098.206.8511 1.0234.7729 1.0234.7729v-6.7451c2.0731-.1505 6.1937-.7531 10.7499-3.1062l5.2501 3.5262v6.3251s.8174.0782 1.0234-.7729c.0416-.1715.1484-.6571.2899-1.3098.2405-.1362.6208-.2731 1.0129-.0886.4521.2133.7739.9018.7739 2.1743 0 1.2729-.4237 3.3144-2.0414 3.8183 0 3.7027-2.5334 6.4958-5.3403 8.8846-.7807.6644-2.2499 1.1066-3.7188 1.1055-1.0628-.0008-2.1255-.2865-2.9271-.6349.6138.9305 1.6553 2.0744 3.5848 2.5851 3.1548.8349 5.4595-.9139 5.4595-.9139s.2828 1.9133.2745 2.4157c.3266 3.4883-3.5569 7.3169-6.0103 9.0784z"/><path d="m53 55v1c0 .5523-.4477 1-1 1h-2c-.5522 0-1-.4477-1-1v-1c0-.0148.0078-.027.0084-.0417-4.2249-.1687-7.1932-.839-9.0084-1.4104v6.4521c0 .5523.4861 1 1.0384 1h20c.5523 0 .9616-.4477.9616-1v-6.4275c-1.8331.5694-4.8014 1.2285-9.0076 1.3896.0005.0134.0076.0245.0076.0379z"/><path d="m62.2635 43.8747c-.0632-.4999-.4883-.8747-.9921-.8747h-5.2333v-1.4004c0-1.0371-.7891-2.0049-1.8018-2.2031-2.1221-.4043-4.2734-.4053-6.3994.001-1.0088.1973-1.7988 1.1641-1.7988 2.2021v1.4004h-5.2326c-.5038 0-.929.3748-.9921.8747l-.8053 6.3762c-.0573.4537.1973.8923.6244 1.0555 1.4667.5604 5.1997 1.6936 11.4059 1.6936s9.9393-1.1332 11.406-1.6936c.4271-.1632.6817-.6017.6244-1.0555zm-8.2254-.8747h-2.0381v6h-2v-6h-1.9619v-1.4004c0-.0859.1162-.2266.1777-.2383 1.873-.3574 3.7734-.3564 5.6406-.001.0664.0137.1816.1533.1816.2393v1.4004z"/></svg>