<svg height="64" viewBox="0 0 64 64" width="64" xmlns="http://www.w3.org/2000/svg"><path d="m0 0h64v64h-64z" fill="none"/><path d="m9.7608 63h17.9821l2.9332-21h-5.5966z"/><path d="m33.3267 42 2.9341 21h17.9821l-15.3219-21z"/><path d="m2 32v6h5v13h5.8271l5.1729-5.5858v-5.9088l-5.7349-1.1414c-.3172-.1018-.2708-.3079-.2499-.3641h39.9696c.0209.0562.0673.2623-.2499.3641l-5.7349 1.1414v5.9088l5.1728 5.5858h5.8272v-13h5v-6z"/><path d="m51 23.0333c-3.5046 0-6.3637.0688-8.8081.1806l-1.0025-3.4565c-.1113-.4451-.5113-.7574-.9702-.7574h-17.7792l-1.2921 5.9642c-1.8451.0716-3.924.1144-6.3595.1144-.4656 0-.8535.3466-.9448.8032l-.8436 4.1182h35zm-20 1.1467c-1.2894.1451-2.5884.2867-4 .4131v-3.5931h4zm3-.3341v-2.8459h3.85l.6091 2.4363c-1.6382.122-3.0871.2627-4.4591.4096z"/></svg>