<svg enable-background="new 0 0 64 64" height="64" viewBox="0 0 64 64" width="64" xmlns="http://www.w3.org/2000/svg"><path d="m0 0h64v64h-64z" fill="none"/><path d="m52.4 45.3c-1.5 1.5-3.8 3.3-6.3 5l-4.9 8.2-6.5-2.4c-2.5.8-4.9 1.2-7 1.2-1.8 0-3.4-.3-4.8-.9l.3.6c2.8 6 9.8 6.9 18.5 3 5.2-2.3 9.8-5.7 12.5-8.5 4.3-4.4 4.2-9.2 2.7-12.6-.7 2.1-2.2 4.2-4.5 6.4zm-15.7 7.5c5.4-2.3 11.1-6.4 14.1-9.2 2.8-2.7 4.3-5.3 4.2-7.7-3.3-3.8-10.4-5.1-17.2-1.9 4.3 2 6.1 4.3 6.7 5 .4.5.5.9.3 1-.9-.6-4.7-3.4-11.5-3.5-1.5 1-2.9 2.2-4.2 3.4 5 2.1 7 4.8 7.6 5.5.4.5.5.8.3.9-.9-.4-4.4-3.2-10.7-3.5-2.9 3.6-4.2 7.4-4 10.6 3.1 2.2 8.3 1.9 14.4-.6zm15.6-33.2 3.7-.7v-4.9h6c.6 0 1-.4 1-1v-8c0-.6-.4-1-1-1h-60c-.6 0-1 .4-1 1v8c0 .6.4 1 1 1h10c0 .1.1.3-.3.4l-3.7.7v25.9h6v-27h36v6h-3c-1.1 0-2 .9-2 2v7.2c4.6-.1 9.3 1.3 12.4 4.8 1.6 1.9 2.8 4.4 3.3 7h2.3v-19c0-1.1-.9-2-2-2h-9c0-.1-.1-.3.3-.4zm-25.3 18.1c3.3-3.1 5.1-4.1 7.6-5.4-.1-.3-.3-.6-.6-.9.4-.3.7-.6.8-.8.2-.4.1-1-.5-1.1-.3-.1-.8 0-1.3.1-.3-1.2-.9-2.4-1.3-2.7-.5-.6-3.1-.9-5.7-.9s-5.2.3-5.7.8c-.3.4-1 1.5-1.3 2.7-.4-.1-1-.1-1.3-.1-.6.1-.7.7-.6 1.1.1.2.4.5.8.8-.7.9-.9 1.6-.9 3.1v4.1s.1 1.2.2 2c.1.3.4.5.7.5h2.3c.3 0 .6-.3.6-.6.1-.5.2-1.4.2-1.4h4.7zm-5-9.6c.6-.1 1.8-.2 4-.2s3.4.1 4 .2c.6 1.4.9 2.6 1.1 3.6-1.3.2-3.2.3-5.1.3s-3.8-.1-5.1-.3c.2-.9.5-2.1 1.1-3.6zm-.1 8-2.1-.2c-.6 0-.9-.5-1-1l-.1-.6c-.1-.4.3-.7.7-.6l1.7.5c.4.1.6.4.8.8l.2.9c0 .1-.1.2-.2.2z"/></svg>