<svg enable-background="new 0 0 64 64" viewBox="0 0 64 64" xmlns="http://www.w3.org/2000/svg"><path d="m0 0h64v64h-64z" fill="none"/><path d="m51.4 17.6v23.8h-3.6l6.6 6.6c.9-.1 1.5-.9 1.5-1.8v-31.3c0-1-.8-1.8-1.8-1.8h-34.6l4.5 4.5z"/><path d="m47 48 9.9 9.9 2.1-2.1-50.5-50.6-2.1 2.1 5.9 5.9c-.7.2-1.2.9-1.2 1.7v31.3c0 1 .8 1.8 1.8 1.8h14.8s-.5 1.7-1.3 4.5c-.5 1.6-2.1 1.8-2.6 1.8h-1.8c-.5 0-.9.4-.9.9v1.8h24.7v-1.8c0-.5-.4-.9-.9-.9h-1.7c-.4 0-2.1-.1-2.6-1.8-.3-1.1-.6-2-.8-2.8 0 0-4-.6-8.1-1.4-.3-.1-.3-.3-.2-.3zm-31.5-6.6v-23.8h1.1l23.8 23.8z"/></svg>