<svg height="64" viewBox="0 0 64 64" width="64" xmlns="http://www.w3.org/2000/svg"><path d="m0 0h64v64h-64z" fill="none"/><path d="m44.2002 55.2199-1.2002-.8999-1.2002.8999c-.6397.48-2.8955 1.8501-4.7998 1.8501-1.8906 0-4.1094-1.3379-4.7998-1.8501l-1.2002-.8999-1.2002.8999c-.6397.48-2.8955 1.8501-4.7998 1.8501-.6538 0-1.3445-.1653-2-.3958v4.0878c.6448.1438 1.3153.238 2 .238 2.3965 0 4.6631-1.0762 6-1.8633 1.3369.7871 3.6035 1.8633 6 1.8633s4.6631-1.0762 6-1.8633c1.3369.7871 3.6035 1.8633 6 1.8633 1.0491 0 2.0677-.2119 3-.5098v-4.2272c-.9089.4283-2.0001.8069-3 .8069-1.8906.0001-4.1094-1.3378-4.7998-1.85z"/><path d="m54 44h9v17h-9z"/><path d="m49.7704 33.2652-3-5.1962-4.7704 2.7543v-22.2113l3.101-1.9929c.8838-.5717 1.1611-1.7377.6291-2.6459-.5289-.9031-1.6724-1.2339-2.6018-.7527l-41.5885 21.5854c-.4202.2178-.6301.7004-.5029 1.1564l1.7588 6.3057c.1811.6492.9394.937 1.5056.5715l14.5862-9.3613.0198-.0031c.048.036.3135.3043-.0133.6914l-3.894 3.9086v15.9249h-10v17h16v-11.1242zm-10.7704-22.7252v22.0154l-18 10.3922v-20.8397z"/></svg>