<svg height="64" viewBox="0 0 64 64" width="64" xmlns="http://www.w3.org/2000/svg"><path d="m0 0h64v64h-64z" fill="none"/><path d="m43.6759 40.2607c-1.3579-.4878-2.4795-1.5522-2.9941-2.9756-.0651-.1796-.1011-.3628-.1443-.5451l-6.4705 1.3845c1.0809-1.6707 1.3474-5.259.5259-9.2206-.9847-4.7493-3.1868-8.3669-5.1188-8.6073l14.4731-3.0968c4.9235-1.0533 9.7186 2.2183 10.7327 7.1092.0071.0342.0108.0684.0159.1025 1.1197-.4197 2.3524-.4351 3.4943-.0126 1.1885.4406 2.131 1.2949 2.6899 2.3934.051-1.2332-.0286-2.4881-.2899-3.748-1.7117-8.2559-9.762-13.5872-17.8877-11.8481l-29.5514 6.3227c-8.1266 1.7388-13.3751 9.9157-11.6634 18.171 1.7117 8.2559 9.762 13.5873 17.8877 11.8483l20.4437-4.3742c1.4039-.7947 2.7051-1.7683 3.8569-2.9033zm-29.9561 1.6143c-3.8128-1.355-5.9458-3.9163-6.6433-7.6475-.495-2.6475.1095-5.1841 1.4426-7.2678l3.5681 2.6163c-1.9316 3.1516-1.124 9.2372 2.6607 12.0223-.0185.505-.3821.5061-1.0281.2767z"/><path d="m61.9202 40.541-3.7725-12.024c-.1615-.5154-.5548-.9266-1.0671-1.1164-.5123-.1899-1.0874-.1375-1.5609.1426l-11.0485 6.5322c-.7404.4369-1.0681 1.3268-.7803 2.1213.2871.794 1.1083 1.2702 1.9583 1.1357l4.5255-.7163c-2.819 5.8209-8.1957 10.2057-14.7268 11.6089-.8085.1737-1.3633.9173-1.321 2.0435l.0771 2.0576c.0401 1.0695 1.0327 1.8494 2.0822 1.6398 8.7106-1.7391 15.8631-7.6428 19.4072-15.4716l3.1177 3.7151c.5424.6504 1.4812.8263 2.2391.4195.3911-.2096.6774-.5443.8282-.9291.1419-.362.1645-.7687.0418-1.1588z"/></svg>