<svg height="64" viewBox="0 0 64 64" width="64" xmlns="http://www.w3.org/2000/svg"><path d="m0 0h64v64h-64z" fill="none"/><path d="m25.3521 29.6207c.0825-2.9961-.7324-6.1371-2.1473-6.6207h9.7952c2.3759 0 4.4274 1.3915 5.3987 3.3993l3.9758-.8374c-1.4111-3.8169-5.0829-6.5619-9.3745-6.5619h-20c-5.5 0-10 4.5-10 10s4.5 10 10 10h5.8967c.2186-1.8419.8501-3.6274 1.8964-5.2321 1.162-1.7821 2.7312-3.1907 4.559-4.1472zm-15.3479 4.5822c-2.1049-1.2935-3.0511-3.0779-2.9896-5.3636.0436-1.6218.73-3.0353 1.7937-4.0873l1.7967 2.0035c-1.5582 1.6024-1.8557 5.2873.049 7.4185-.0759.2948-.2933.2479-.6498.0289z"/><path d="m60.3583 34.2417c-1.1336-5.3823-6.465-8.8579-11.8463-7.7242l-19.5706 4.1221c-5.3819 1.1335-8.8578 6.4644-7.7242 11.8463 1.1336 5.3823 6.465 8.8579 11.8463 7.7242l19.5705-4.1221c5.3819-1.1335 8.8579-6.4644 7.7243-11.8463zm-31.1869 11.908c-2.332-.8157-3.6364-2.3577-4.063-4.6041-.3027-1.5939.067-3.1212.8823-4.3755l2.1821 1.5751c-1.1813 1.8973-.6874 5.5612 1.6273 7.238-.0113.304-.2337.3046-.6287.1665zm22.6382-3.9758-9.0165 1.8991c.7158-1.0892.8923-3.4285.3483-6.0112-.6521-3.0962-2.1104-5.4547-3.39-5.6114l9.585-2.0189c3.2606-.6867 6.4362 1.4462 7.1077 4.6346.6791 3.2237-1.4116 6.429-4.6345 7.1078z"/></svg>