<svg height="64" viewBox="0 0 64 64" width="64" xmlns="http://www.w3.org/2000/svg"><path d="m0 0h64v64h-64z" fill="none"/><path d="m32.9 50c0-1.0541.0135-2.2471.0465-3.4749-2.5694-6.4717-5.2391-14.6138-5.1302-21.2029 0 0 9.282.5096 13.0345 8.875.0168-.0015.0322-.0036.0491-.0051v-.0401l.0182.0386c.0895-.0079.1828-.014.2733-.0215.0222-.0473.0428-.101.0585-.1691 1.8906-8.25-.9861-14.8253-9.596-16.481 0 0 4.7524-1.6747 16.4833 1.2555.1595-.0751.2689-.1532.1752-.6063-1.5994-7.7308-10.3534-11.5636-17.6818-7.3011 0 0 3.3943-5.0286 11.0552-6.9851.0485-.12.0741-.2921-.3052-.5506-1.3624-.9287-5.155-2.8801-10.6306-1.8371-4.9287.9388-7.2189 4.2264-8.9097 7.0796 0 0-4.5136-4.7704-11.1656-3.1074-5.3984 1.3495-8.2855 5.9299-9.2348 7.7329-.2416.4589-.1587.5626-.0443.6232 1.5885-.5621 8.8451-2.8993 13.1768-.3636 0 0-2.9856.3101-6.5724 3.2115-3.8807 3.1391-5.3765 8.8008-4.0575 13.5009.1044.3718.34.5294.4806.4512.9323-1.2707 6.3194-8.2475 11.9102-9.7617-6.7954 6.7955-6.0421 15.7661-2.4271 20.1042.3125.375.6082.3563.7175.2313 0 0 1.2874-9.4479 8.6789-15.677.3405-.287.614-.3337.7079-.2085-.7754 1.4128-2.6024 4.9044-3.1021 7.303 0 0 2.335 17.9199 8.0915 27.3862h4.4097c-.4145-2.9761-.5096-7.019-.5096-10.0001z"/><path d="m61.435 39.826c-.195-1.1728-1.0873-2.0651-2.2607-2.2607-3.3915-.5653-9.0442-.5653-10.1742-.5653-1.1301 0-6.7828 0-10.1743.5653-1.1735.1956-2.0657 1.0879-2.2607 2.2607-.5651 3.3913-.5651 9.0436-.5651 10.174 0 1.1303 0 6.7827.5651 10.174.195 1.1729 1.0873 2.0651 2.2607 2.2607 3.3914.5653 9.0441.5653 10.1743.5653 1.1301 0 6.7828 0 10.1742-.5654 1.1735-.1956 2.0657-1.0878 2.2607-2.2607.565-3.3912.565-9.0436.565-10.1739 0-3.393 0-6.7827-.565-10.174zm-11.435 14.174h-3.1396l-.0265-.0654-2.8339-5.9872v6.0526h-2v-9h3.1396l.0265.0654 2.8339 6.0448v-6.1102h2zm6.0479 0h-5.0479v-9h2v7.2086h3.0479z"/></svg>