<svg height="64" viewBox="0 0 64 64" width="64" xmlns="http://www.w3.org/2000/svg"><path d="m0 0h64v64h-64z" fill="none"/><path d="m33.8695 25.4493c1.1339 0 1.8708.1135 3.2608.3685v-2.9773c-1.1909-.2555-2.0698-.3405-3.1758-.3405-3.9418 0-6.8347 2.1554-7.8556 6.4091h-2.0989v2.1833h1.759c-.0571.482-.0571 1.021-.0571 1.5315v.5955h-1.7019v2.1549h1.929c.822 4.1973 3.6018 6.1257 7.5436 6.1257 1.5029 0 2.2399-.085 3.7998-.454v-2.8074c-1.475.312-2.241.4255-3.5739.4255-1.8708 0-3.4028-.9645-4.0547-3.2898h5.1897v-2.1549h-5.5297c-.0291-.2834-.0291-.5955-.0291-.936 0-.3969 0-.7939.0291-1.191h5.5297v-2.1833h-5.1617c.6239-2.2973 2.0418-3.4598 4.1977-3.4598z"/><path d="m8.8433 37.1475c.9624-.5928 2.124-.7227 3.1948-.3555l.0529.0181c-.3723-1.5454-.591-3.1504-.591-4.8101 0-10.7956 8.35-19.6221 18.9412-20.4213l.0034.006c.0466.0476.0468.1389-.1277.2515-.2589.1671-2.6666 1.0712-2.81 1.1249l-1.5742 2.7808c-.3773.6646-.2175 1.5024.3725 1.985.5918.4827 1.4449.4684 2.0196-.0341l8.0609-7.0351c.3586-.3125.5556-.7716.535-1.2473.004-.476-.209-.928-.5782-1.2278l-8.3015-6.7492c-.5918-.4822-1.4449-.4667-2.0196.0364-.5728.5029-.7032 1.3459-.303 1.9968l2.0744 3.3832.0009.0016c-12.0808 2.0062-21.2937 12.4988-21.2937 25.1486 0 2.3251.3171 4.5751.9001 6.7154.3215-.6422.8055-1.1943 1.4432-1.5679z"/><path d="m48.0347 49.4795c-.9937-.5371-1.6865-1.4775-1.9038-2.5889l-.0106-.0538c-3.6776 3.5011-8.6418 5.6632-14.1203 5.6632-7.0287 0-13.215-3.5473-16.9052-8.9407l.0027-.0046c.018-.0641.0969-.11.2817-.0152.2742.1407 2.261 1.7738 2.3793 1.8711l3.1954-.0271c.7641-.0056 1.4099-.5628 1.5328-1.3151.1222-.7539-.3168-1.4856-1.0394-1.732l-10.123-3.4634c-.4499-.1542-.946-.0953-1.3477.1603-.4142.2346-.6992.645-.7742 1.1147l-1.6945 10.564c-.1216.7536.3183 1.4847 1.0413 1.7308.722.2446 1.5172-.0638 1.8808-.736l1.8928-3.488.0101-.017c4.6758 5.6719 11.7422 9.2982 19.6671 9.2982 7.0793 0 13.4833-2.8865 18.1036-7.5447-.0703.004-.1403.0193-.2106.0193-.6435 0-1.2822-.167-1.8583-.4951z"/><path d="m61.4293 42.0875c-.1492-.7476-.814-1.282-1.5778-1.2608l-3.9672.1049h-.0004c1.0423-2.7796 1.6161-5.7877 1.6161-8.9316 0-11.8432-8.0747-21.7983-19.0184-24.6663.3973.6003.6346 1.2977.6395 2.0394.0317 1.1289-.436 2.1992-1.2896 2.9434l-.033.0287c8.4956 2.5029 14.7015 10.3486 14.7015 19.6548 0 3.1802-.7463 6.1775-2.0432 8.8605-.0645.0159-.1427-.03-.153-.2363-.0153-.3077.4056-2.845.4308-2.996l-1.6212-2.7537c-.3868-.6591-1.1923-.9396-1.9053-.67-.7141.2712-1.1282 1.0172-.9803 1.7661l2.0621 10.4985c.0914.4667.3905.8669.8127 1.0869.4103.2415.9081.2831 1.3524.1132l9.996-3.8146c.7135-.2714 1.1266-1.0179.9783-1.7671z"/></svg>