<svg enable-background="new 0 0 64 64" height="64" viewBox="0 0 64 64" width="64" xmlns="http://www.w3.org/2000/svg"><path d="m0 0h64v64h-64z" fill="none"/><path d="m32.2 24.4c3-1.1 5.8-2.2 8.5-3 2.5-.8 6.8-1.5 10.9-.6-.3-.6-.8-1.3-1.4-2.2-3.8-.6-7.8-.4-11.6.8-2.6.8-5.3 1.8-8.1 2.9-3.9 1.4-7.9 2.9-12.5 4.4-3.1 1-5.9 1.8-8.4 2.4l-1.1 2.9c2.9-.7 6.4-1.7 10.2-2.9 5.2-1.6 9.6-3.3 13.5-4.7z"/><path d="m34 29.1c4.1-1.5 7.7-2.9 11.1-3.8 4.2-1.2 7.3-1.4 10.7-1 .1 0 .2 0 .3.1-4.8-3.8-11.7-1.5-14.5-.6-2.6.9-5.5 1.9-8.4 3-3.9 1.5-8.4 3.1-13.4 4.7-4.6 1.4-8.9 2.6-12 3.4l-1.1 2.8c3.3-.8 8.3-2.1 13.8-3.8 5-1.7 9.5-3.4 13.5-4.8z"/><path d="m11.4 45c2 1.3 4.4 3 6.9 3 2.4 0 4.9-1.8 6.9-3 2 1.3 4.4 3 6.9 3 2.4 0 4.8-1.7 6.9-3 2 1.3 4.4 3 6.9 3 2.4 0 4.8-1.7 6.9-3 .7.5 1.5 1 2.3 1.5.3-1.7.8-3.8 1.8-6.3.9-.2 1.6-.2 2.1-.9.3-.4.5-1 .4-1.4-.1-.6-.1-1.3-.2-1.9 1.1-1.7 2.4-3.3 4.1-5 0 0-2.9-4.2-7.7-4.5-9-.7-18.5 4.8-34.2 9.7-10.3 3.1-18.4 4.8-18.4 4.8s-.5 4.1 2.1 7c2.3-.2 4.5-1.7 6.3-3zm26.1-9.7c.3-.1.6 0 .8.2.6.8 1.2 1.6 1.7 2.4 1.3-.4 1.8-.6 3.1-.9 0 0-.2-1.5-.2-3 0-.5.3-.9.8-.9.4 0 .7.2.8.6.3 1 .5 2 .7 3 .1.4 0 1-.3 1.5-.2.3-.5.6-.9.8-.7.2-2.4.8-3.2 1-.5.1-.8.2-1.4.1-.5-.2-1-.5-1.2-1-.4-.9-.8-1.9-1.2-2.9-.1-.3.1-.7.5-.9z"/><path d="m29.8 19.9c2.9-1.1 5.5-2.1 8.2-2.9 3.6-1.2 7.2-1.4 10.6-1-.3-.4-.6-.8-.9-1.3-.6-.8-1.5-1.3-2.5-1.3-.9 0-1.9 0-2.8.1l-3.6-5.2c-.3-.4-.8-.6-1.3-.3-.4.2-.6.7-.5 1.2l.6 1.9c.5 1.7-.3 3.5-1.8 4.1-2.3.8-4.7 1.7-11.3 4.1 0 0-.2-.2.1-.4l4.2-2.5c-.5-1.1-1.2-2.7-2.4-3.5-1.7-1.1-5.4.1-7 2.3-1.4 2-1.9 6.9-2.2 9.3 4.6-1.6 8.7-3.1 12.6-4.6z"/><path d="m52.6 47.4c-1.9 1.2-4.3 2.6-6.9 2.6-2.5 0-4.9-1.4-6.9-2.6-1.9 1.2-4.3 2.6-6.9 2.6-2.5 0-4.9-1.4-6.9-2.6-2 1.3-4.4 2.6-6.9 2.6s-4.9-1.4-6.9-2.6c-1.9 1.3-4.3 2.6-6.9 2.6-1.2 0-2.5-.4-3.6-.8v4.2c1.4.4 2.6.6 3.9.6 2.7 0 5.4-1.2 6.9-1.9 1.4.8 4.1 1.9 6.9 1.9 2.7 0 5.4-1.2 6.9-1.9 1.4.8 4.1 1.9 6.9 1.9 2.7 0 5.4-1.2 6.9-1.9 1.4.8 4.1 1.9 6.9 1.9 2.7 0 5.4-1.2 6.9-1.9 1.4.8 4.1 1.9 6.9 1.9 1.2 0 2.5-.2 3.6-.6v-4.2c-1 .4-2.3.8-3.6.8-2.9.1-5.3-1.3-7.2-2.6z"/></svg>