<svg height="64" viewBox="0 0 64 64" width="64" xmlns="http://www.w3.org/2000/svg"><path d="m0 0h64v64h-64z" fill="none"/><path d="m50 7h-21.1714c-.5307 0-1.0395.2109-1.4145.5859l-14.8282 14.8282c-.375.375-.5859.8838-.5859 1.4145v31.1714c0 1.0996.8999 2 2 2h36c1.1045 0 2-.8955 2-2v-46c0-1.1045-.8955-2-2-2zm-3 45h-30v-26.7082l-3.1484-.9324c-.3412-.109-.2185-.3594-.2185-.3594h14.3669c.5522 0 1-.4478 1-1v-14.3659s.2509-.1096.3599.231l.9316 3.1349h16.7085z"/><path d="m22.5983 32.4075c-.6188.5187-.7677 1.4093-.3538 2.1013l7.0038 11.6886c.2957.4933.828.7961 1.4028.7979h.006c.5724 0 1.1048-.2987 1.4029-.7891l10.7004-17.7112c.4411-.725.2567-1.6667-.4247-2.1717-.6838-.5051-1.6371-.4076-2.2026.2247l-9.6227 10.8843-5.7819-5.0084c-.6114-.5286-1.514-.5358-2.1302-.0164z"/></svg>