<svg enable-background="new 0 0 64 64" viewBox="0 0 64 64" xmlns="http://www.w3.org/2000/svg"><path d="m0 0h64v64h-64z" fill="none"/><path d="m19 33.3c-.3.2-.5 0-.5 0s6.1-8.1 6.9-9.6c1.6-3.2-.4-5.5-1.4-6.7-.7-.9-2-2.6-2.6-3.5-1.3.3-3 .5-5.4.5s-4.1-.2-5.4-.5c-.7.9-2 2.6-2.6 3.5-.9 1.2-2.9 3.4-1.3 6.7.8 1.6.9 1.8 1.1 2.1 1.1 2.1-1.8 4.3-1.8 10.2.1 5.8.3 15.3.5 18.8.2 3.2 3.5 4.2 9.5 4.2s9.3-1 9.5-4.2c.2-3.5.4-13.1.5-18.8 0-3.3-.9-5.4-1.5-7z"/><path d="m16 12c3.3 0 6-.4 6-1-.1-1.4-.2-2.9-.5-4.3-.2-1-1-1.7-2-1.7h-7.1c-1 0-1.8.7-2 1.7-.3 1.4-.4 3-.5 4.3.1.6 2.8 1 6.1 1z"/><path d="m57.2 28.2-6.2-7v-4.1c0-.6-.5-1.1-1.1-1.1h-10.8c-.6 0-1.1.5-1.1 1.1v4.1l-6.2 7c-.5.5-.8 1.3-.8 2v24.2c0 1 .7 1.8 1.6 2l12.4 2.3c.5.1 1.1.1 1.6 0l9.7-2.2c.9-.2 1.6-1 1.6-1.9v-24.5c.1-.7-.2-1.4-.7-1.9zm-23.4.8 7.4-4.7 4.4 5.1zm16.9-2.2c-.7.7-2.2.3-3.3-.8s-1.5-2.6-.8-3.3 2.2-.3 3.3.8c1.2 1.2 1.5 2.6.8 3.3z"/></svg>