<svg enable-background="new 0 0 64 64" height="64" viewBox="0 0 64 64" width="64" xmlns="http://www.w3.org/2000/svg"><path d="m0 0h64v64h-64z" fill="none"/><path d="m3.5 31.2c-.5-.5-.8-1-1.3-1.7-.2-.3-.6-.1-.6.2 0 .7 0 2 .5 2.8 1.2 1.9 3.7 1.7 4.8.6 1.4-1.3 1.2-3 .6-4.1-.5-.8-.9-1.5-1.4-2.1 0 0 0 0 0-.1h.9c.6 0 1-.4 1-1v-2c0-.6-.4-1-1-1h-1v-9.7l5 8.1 6.4 25.8h-8.4c-1.1 0-2 .9-2 2v5.3c1.6-.6 3.1-1.7 4.4-2.5 2 1.3 4.5 3.1 6.9 3.1s4.9-1.8 6.9-3.1c2 1.3 4.5 3.1 6.9 3.1s4.8-1.7 6.9-3.1c2 1.3 4.5 3.1 6.9 3.1s4.8-1.7 6.9-3.1c1.3.9 2.9 1.9 4.4 2.5v-5.3c0-1.1-.9-2-2-2h-3v-5c0-.6-.4-1-1-1h-4l-3.7 6h-2.5l9.3-15.2c.6-1.1.2-2.4-1-2.9l-20-7.9-1.7-3.8c-.3-.7-.8-1.3-1.4-1.7l-20.3-14c-.4-.3-.9-.3-1.3.1l-3 3c-.4.3-.4.8-.2 1.2l2.6 4.2v13h-1c-.6 0-1 .4-1 1v2c0 .6.4 1 1 1h1v.2c0 .5.2 1.1.6 1.6s.6.7.8 1c.4.5.4 1.2-.1 1.6-.6.4-1.3.3-1.8-.2zm41.3-2-6.9 11.3-7.5-17zm-15.9 5.8 5.3 12h-10.6l-3-12zm-6.6-14.9 4.4 9.9h-7.4l-2.6-10.3c-.1-.4-.3-.8-.5-1.1l-2.8-4.6z"/><path d="m59.4 57.1c-2.5 0-5-1.4-6.9-2.6-1.9 1.2-4.3 2.6-6.9 2.6-2.5 0-4.9-1.4-6.9-2.6-1.9 1.2-4.3 2.6-6.9 2.6-2.5 0-4.9-1.4-6.9-2.6-2 1.3-4.4 2.6-6.9 2.6s-4.9-1.4-6.9-2.6c-1.9 1.3-4.3 2.6-6.9 2.6-.9 0-1.8-.2-2.6-.5v4.1c1.2.2 2.1.3 3 .3 2.7 0 5.4-1.2 6.9-1.9 1.4.8 4.1 1.9 6.9 1.9 2.7 0 5.4-1.2 6.9-1.9 1.4.8 4.1 1.9 6.9 1.9s5.4-1.2 6.9-1.9c1.4.8 4.1 1.9 6.9 1.9 2.7 0 5.4-1.2 6.9-1.9 1.4.8 4.1 1.9 6.9 1.9.9 0 1.7-.1 2.6-.3v-4.1c-1.2.3-2.1.5-3 .5z"/></svg>