<svg height="64" viewBox="0 0 64 64" width="64" xmlns="http://www.w3.org/2000/svg"><path d="m0 0h64v64h-64z" fill="none"/><path d="m58.319 9.6888-2.4956-1.4318c-.4228-.2426-.7622-.5997-.9901-1.0306-.6307-1.1929-1.7071-2.5458-3.4866-2.8424-3.701-.6168-8.3216.6589-8.564 1.386-.33.99 2.75 1.36 2.9869 3.4396.2264 1.9879 1.0292 6.2328.1691 7.9529-1.5062 3.0125-5.4893 3.1263-11.2633 8.1472-3.3951 2.9522-5.1351 5.1638-8.0017 8.0692-2.4708 2.5043-4.676 1.4487-10.2194-.7818-5.6541-2.275-10.6566-1.2503-13.6356-.1472-.5164.1912-.3849.9515.1657.9423 1.8329-.0308 4.4788.2404 7.8995 1.389 9.9286 3.3336 10.608 7.4668 21.479 10.931 1.5193.4841 3.014.8707 4.3885 1.1258l.9968 6.8696c-1.6702.593-3.86 2.2355-3.6353 3.2374.1258.5613.7811.6113 1.4497.2474.5967-.3247 2.2728-1.4101 3.5427-1.4101 1.1917 0 4.2853 1.3639 5.9556 2.2234.515.2642 1.3746.1983 1.4011-.4491.027-.6638-.716-1.3996-1.7823-2.0624 2.2626.2268 4.2514.8274 4.2765.8351 1.0582.3229 2.0164-.832-.5747-2.0349-.7886-.3662-2.3828-.8329-4.2338-.9321l1.3452-7.3954c5.6589-2.1964 11.6382-7.2939 12.2176-14.632.5939-7.5228-2.1626-13.9451-3.2739-17.5943.9106-.6136 1.3411-1.066 1.4721-2.4384l2.289-.6409c.4537-.1272.5298-.738.1213-.9725zm-16.2434 44.4638c-.6237-.2188-1.6072-.394-2.1771-.5115l.0762-6.4713c.2183-.0015.4355-.0038.6359-.0192.5808-.0447 1.1929-.1458 1.8159-.2729zm4.9007-16.262c-6.3611 4.6263-14.9319 3.9594-15.9896.7761-.9899-2.9794 2.5746-7.2716 5.8716-9.3764.184-.1174.3815-.1024.4617.043 0 0-4.9276 6.5605-4.1277 8.4062.8761 2.0217 8.1635 1.235 14.0167-.4062.1423.0886.0669.3395-.2327.5573zm4.0238-27.3906c-.8284 0-1.5-.6716-1.5-1.5s.6716-1.5 1.5-1.5 1.5.6716 1.5 1.5-.6716 1.5-1.5 1.5z"/></svg>