<svg height="64" viewBox="0 0 64 64" width="64" xmlns="http://www.w3.org/2000/svg"><path d="m0 0h64v64h-64z" fill="none"/><path d="m44.9 30c.0415-.7026.4409-6.6787-3.1041-12.7559-2.173-3.7249-2.3583-8.3515-2.3325-10.2441h.5366c.5523 0 1-.4477 1-1v-2.5c0-.8284-.6716-1.5-1.5-1.5h-7.5-7.5c-.8284 0-1.5.6716-1.5 1.5v2.5c0 .5523.4478 1 1 1h.5366c.0258 1.8926-.1595 6.5192-2.3325 10.2441-3.5449 6.0772-3.1456 12.0533-3.1041 12.7559l-.1 26.4c.0034 1.4346.8496 2.7548 2.1592 3.2802 1.6177.6504 4.811 1.2758 10.8408 1.2758s9.2231-.6254 10.8408-1.2758c1.3096-.5254 2.1558-1.8456 2.1592-3.2802zm-20.9 25c1.86 1.22 14.5823 2 14.5823 2 .7624.0627.6938.483.6497.5677-1.5936.2939-3.9141.5383-7.232.5383-2.7154 0-7.1902-.0874-9.7227-1.106-.167-.0669-.2798-.248-.2803-.4497l-.0596-26.5537c-.1324-3.5749.8205-7.7471 2.8584-11.2407 2.5301-4.338 2.7714-9.5361 2.7424-11.7759 5.4968-.0185 3.306-.0189 8.9235 0-.029 2.2397.2123 7.4379 2.7424 11.7759.4392.7529.8069 1.5047 1.1231 2.2441h-14.3386c-1.8284 3.7199-1.9883 7.2757-1.9888 8.3523.0001 28.3815.0002-3.2477.0002 25.6477z"/></svg>