<svg height="64" viewBox="0 0 64 64" width="64" xmlns="http://www.w3.org/2000/svg"><path d="m0 0h64v64h-64z" fill="none"/><path d="m48 14h-32c-1.1045 0-2 .8955-2 2v47h15v-9h6v9h15v-47c0-1.1045-.8955-2-2-2zm-23 33h-6v-6h6zm0-10h-6v-6h6zm0-10h-6v-6h6zm10 20h-6v-6h6zm0-10h-6v-6h6zm0-10h-6v-6h6zm10 20h-6v-6h6zm0-10h-6v-6h6zm0-10h-6v-6h6z"/><path d="m24.3911 10.6926c.9946 0 1.8491-.084 2.7598-.2661v-4.4267h-3.0396v1.373h1.4146v1.877c-.4062.042-.6445.0562-1.0645.0562-1.5688 0-2.8574-1.0649-2.8574-3.208 0-2.2129 1.3164-3.3198 3.1514-3.3198.7285 0 1.2466.0283 2.0029.1401l.1265-1.4287c-.6445-.126-1.2329-.1821-2.0732-.1821-2.8018 0-4.9727 1.583-4.9727 4.959 0 2.9413 1.8491 4.4261 4.5522 4.4261z"/><path d="m33.2812 10.6926c.9946 0 1.8491-.084 2.7598-.2661v-4.4267h-3.0396v1.373h1.4146v1.877c-.4062.042-.6445.0562-1.0645.0562-1.5688 0-2.8579-1.0649-2.8579-3.208 0-2.2129 1.3169-3.3198 3.1519-3.3198.7285 0 1.2466.0283 2.0034.1401l.126-1.4287c-.6445-.126-1.2329-.1821-2.0732-.1821-2.8018 0-4.9727 1.583-4.9727 4.959 0 2.9413 1.8491 4.4261 4.5522 4.4261z"/><path d="m43.6558 9.1936h-4.3565v-.0561l4.3286-6.3731v-1.3589h-6.0092v1.4009h4.0761v.0557l-4.3281 6.3735v1.3589h6.2891z"/></svg>