<svg height="48" width="48" xmlns="http://www.w3.org/2000/svg"><path d="m41 24c0 2.602-1 5-2.398 7l2.797 2.801a15.1 15.1 0 0 0 3.601-9.801c0-8.199-6.801-15-15-15v4c6 0 11 5 11 11zm-7 0a3.36 3.36 0 0 1 -.602 2l2.801 2.801c1-1.402 1.602-3 1.602-4.801a8.03 8.03 0 0 0 -8-8v4c2.398 0 4.199 1.801 4.199 4zm-8-14.602c0-1.199-1.199-1.797-2.199-1.199-.402.199-2.402 1.801-4.402 3.402l6.601 6.797zm-18.602-4.796c-.797-.801-2-.801-2.797 0s-.801 2 0 2.797l8.598 8.601h-3.199c-4.398 0-6 4.199-6 8s1.602 8 6 8h4l9.801 7.602c1 .598 2.199 0 2.199-1.203v-9.797l6 6c-.602.199-1.398.199-2 .199v4c1.801 0 3.602-.402 5.199-1l5.402 5.398a2.15 2.15 0 0 0 1.398.602c.602 0 1-.199 1.398-.602a1.93 1.93 0 0 0 0-2.801zm0 0"/></svg>