<svg height="64" viewBox="0 0 64 64" width="64" xmlns="http://www.w3.org/2000/svg"><path d="m0 0h64v64h-64z" fill="none"/><path d="m51.2432 51.2404-1.2002-.9004-1.2002.9004c-.6396.4795-2.895 1.8496-4.7998 1.8496-1.8911 0-4.1094-1.3379-4.7998-1.8496l-1.2002-.9004-1.2002.9004c-.6396.4795-2.895 1.8496-4.7998 1.8496-1.8911 0-4.1094-1.3379-4.7998-1.8496l-1.2002-.9004-1.2002.9004c-.6396.4795-2.895 1.8496-4.7998 1.8496-1.8911 0-4.1094-1.3379-4.7998-1.8496l-1.2002-.9004-1.2002.9004c-.6397.4795-2.895 1.8496-4.7998 1.8496-1.0184 0-2.1246-.3893-3.043-.8273v4.2183c.9427.3046 1.9789.519 3.043.519 2.397 0 4.6631-1.0762 6-1.8633 1.3369.7871 3.603 1.8633 6 1.8633s4.6631-1.0762 6-1.8633c1.3369.7871 3.603 1.8633 6 1.8633s4.6631-1.0762 6-1.8633c1.3369.7871 3.603 1.8633 6 1.8633s4.6631-1.0762 6-1.8633c1.3369.7871 3.603 1.8633 6 1.8633 1.0322 0 2.0372-.2025 2.957-.4926v-4.203c-.8999.4195-1.9733.7856-2.957.7856-1.8911 0-4.1094-1.3379-4.7998-1.8496z"/><path d="m14.043 46.1367c1.3369.7871 3.603 1.8633 6 1.8633s4.6631-1.0762 6-1.8633c1.3369.7871 3.603 1.8633 6 1.8633s4.6631-1.0762 6-1.8633c1.3369.7871 3.603 1.8633 6 1.8633.3469 0 .6893-.0278 1.0283-.0687v-3.9672c-.3465.0726-.6927.126-1.0283.126-1.8911 0-4.1094-1.3379-4.7998-1.8496l-1.2002-.9005-1.2002.9004c-.6396.4795-2.895 1.8496-4.7998 1.8496-1.8911 0-4.1094-1.3379-4.7998-1.8496l-1.2002-.9004-1.2002.9004c-.6396.4795-2.895 1.8496-4.7998 1.8496-1.8911 0-4.1094-1.3379-4.7998-1.8496l-1.2002-.9004-1.2002.9004c-.6397.4795-2.895 1.8496-4.7998 1.8496-1.0184 0-2.1246-.3893-3.043-.8273v4.2183c.9427.3046 1.9789.519 3.043.519 2.3969 0 4.6631-1.0762 6-1.8633z"/><path d="m14.043 37.1367c1.3369.7871 3.603 1.8633 6 1.8633s4.6631-1.0762 6-1.8633c1.3369.7871 3.603 1.8633 6 1.8633.7278 0 1.4393-.1068 2.1207-.267v-4.08c-.6907.2535-1.4283.437-2.1207.437-1.8911 0-4.1094-1.3379-4.7998-1.8496l-1.2002-.9004-1.2002.9004c-.6396.4795-2.895 1.8496-4.7998 1.8496-1.8911 0-4.1094-1.3379-4.7998-1.8496l-1.2002-.9004-1.2002.9004c-.6397.4795-2.895 1.8496-4.7998 1.8496-1.0184 0-2.1246-.3893-3.043-.8273v4.2183c.9427.3046 1.9789.519 3.043.519 2.3969 0 4.6631-1.0762 6-1.8633z"/><path d="m47.5149 20.0293c1.0364 4.6752-.7166 9.3365-4.17 12.3958 2.1803.6474 4.567.7759 6.9719.2427 7.2836-1.6147 11.9336-8.5822 10.3861-15.5623-1.5474-6.98-8.7064-11.3295-15.9899-9.7148-2.4049.5331-4.5137 1.6583-6.2161 3.1665 4.4227 1.3132 7.9815 4.7968 9.018 9.4721z"/></svg>