<svg height="64" viewBox="0 0 64 64" width="64" xmlns="http://www.w3.org/2000/svg"><path d="m0 0h64v64h-64z" fill="none"/><path d="m20.7247 36.7258c-.8721-.2874-1.6737-.5164-2.2162-.6628-.3823-.1031-.6181-.4362-.7239-.8178-.1359-.4906-.1766-1.1083-.1766-1.1083 1.0105-1.1776 1.76-2.5924 2.0187-4.4457 1.0172-.3169 1.2207-1.6005 1.2207-2.4009 0-.8002-.1394-1.2331-.4237-1.3672-.2485-.1169-.4796-.0292-.6305.0571.1577-1.6349.3851-5.0428-.2984-6.3067-.7339-1.3568-1.6255-1.8986-3.3258-1.4551-1.1151-.6124-1.8745-1.3857-3.8282-.8342-1.3576.3831-2.8435 1.0786-3.6264 2.1223-.8785 1.1714-.6675 4.8871-.5226 6.5496-.0965-.0765-.4123-.2938-.7541-.133-.2843.1341-.4237.567-.4237 1.3672 0 .8004.2035 2.084 1.2207 2.4009.2279 1.9167.9651 3.2728 1.9549 4.4044 0 0-.0244.5794-.133 1.1301-.0784.3975-.3285.7388-.7186.8478-1.5986.4468-5.3745 1.608-6.6198 2.9194-1.5895 1.6734-1.7182 7.976-1.7182 7.976h12.2501c.5018-2.7128 1.3831-5.9657 2.8612-7.5221.9893-1.0414 2.7078-1.9526 4.6134-2.721z"/><path d="m61.3331 40.088c-.5424-.5712-1.6228-1.1936-2.8112-1.7672-1.5563-.7698-3.2957-1.451-4.222-1.7981-.3546-.1328-.5794-.4585-.6421-.832-.0778-.4636-.1648-1.1508-.2333-1.7296 2.347-.0953 4.2881-.3268 5.0953-.6343.1595-.0607.2401-.207.169-.3621-.4416-.9635-1.5894-4.1324-1.7337-5.7874-.3543-4.062-.3397-11.3311-5.9049-9.5074 0 0-3.5341-2.2578-6.4045 1.5197-2.0194 2.6576-1.5274 6.1617-1.6082 8.1158-.0575 1.3898-1.1948 4.5989-1.6734 5.4303-.1019.177-.0671.356.1248.4256.8664.3145 2.8169.5582 5.1096.7029-.064.581-.1541 1.3019-.2563 1.8265-.0725.3717-.2875.6992-.6421.832-.3893.1459-.9263.3532-1.5287.5988 1.7229.7518 2.9872 1.5285 3.7437 2.3262 1.4789 1.5565 2.3522 4.8079 2.8466 7.5211h12.2383c0 .0001-.0773-5.2073-1.6669-6.8808z"/><path d="m37.8044 37.3826c-.5698-.1556-.9534-.6402-1.0817-1.2167-.1133-.5096-.1736-1.094-.1736-1.094 1.3534-1.5118 2.3575-3.3379 2.6978-5.7507 1.2942-.3989 1.5531-2.0149 1.5531-3.0225 0-1.0072-.1774-1.5522-.539-1.7211-.1744-.0812-.3447-.0805-.4962-.0483.1301-2.0985.2597-6.2566-.6149-7.819-.9562-1.7081-2.2279-2.1511-4.4433-1.5928-1.4531-.7709-2.4424-1.5335-4.9882-.8393-1.7689.4822-3.7049 1.2698-4.7251 2.5837-1.1007 1.4179-.8885 5.5533-.7026 7.6775-.1639-.0448-.3563-.0528-.5517.0382-.3616.1689-.539.7139-.539 1.7211 0 1.0076.2589 2.6236 1.5531 3.0225.4153 3.4561 2.1442 5.4783 4.2723 7.2701.5622.4736 1.5749.722 2.629.769.0956.171.0956.3741-.2825.4989-.6326.2088-2.611.5042-4.7431-.6054-.0177-.0092-.0303-.0176-.0476-.0267-1.5921.4271-7.0901 2.0009-8.8019 3.8036-2.001 2.1066-2.7793 9.9693-2.7793 9.9693h34s-.7516-7.8627-2.7526-9.9693c-1.5427-1.6248-6.313-3.0666-8.443-3.6481z"/></svg>