<svg height="64" viewBox="0 0 64 64" width="64" xmlns="http://www.w3.org/2000/svg"><path d="m0 0h64v64h-64z" fill="none"/><path d="m39.7749 19.791c-.437-.4863-1.0356-1.1533-3.1792-.0137-2.5107 1.3345-6.7944 4.8892-10.2358 6.3447-3.5781 1.5107-5.9463.2588-6.8896-1.2734-.9648-1.5674-1.0098-3.998 1.7588-6.1162 2.9932-2.29 4.7529-4.249 6.3057-5.9785.8091-.9007 1.582-1.7578 2.439-2.5745-6.5941-4.6061-15.624-4.0189-21.3042 1.7958-5.754 5.8902-6.0089 15.0463-1.131 21.6058.9506 1.2783 1.8341 2.3568 2.6198 3.2649.607-.5043-1.1016.6998 7.9873-5.5393 2.0879-1.4336 4.979-.9893 6.5806 1.0098.712.8873 1.0701 2.0018 1.0618 3.1255 1.8026-.5271 3.8362.025 5.1262 1.5668.8919 1.065 1.3447 2.4449 1.0443 4.0485 1.3674.0257 2.7632.5646 3.6962 1.7177.9597 1.1876 1.2914 2.8445.9731 4.2242 1.4939.0309 2.6981.6544 3.5643 1.6805.682.8086 1.0353 1.7711 1.1038 2.7421.6604.0654 1.3397-.116 1.8867-.5609 1.1008-.8951 1.2596-2.5244.3569-3.6605-.0859-.108-10.4794-13.1696-10.7202-13.4724-.2316-.2914-.2512-.6915.0126-.9421.2711-.2577.7003-.225.9442.0365.2438.2615 11.535 12.1974 11.535 12.1974 1.0645 1.1226 2.814 1.2018 3.9263.1782 1.1003-1.0128 1.1742-2.736.1667-3.8877 0 0-10.8995-12.466-11.1491-12.7546-.2436-.2816-.2497-.6937.014-.9443.2638-.2507.6764-.2258.9437.0334.2745.2662 11.9647 11.7928 11.9647 11.7928 1.0795 1.0644 2.7922 1.0907 3.8555.0593.9965-.9666 1.1957-2.4847-.1222-3.8582-.5778-.6025-14.154-14.7538-15.1359-15.8476z"/><path d="m55.5321 12.8386c-4.7554-5.5177-12.9781-6.9221-18.1334-4.809-7.2435 2.9691-7.2838 6.6744-14.8328 12.4495-1.6376 1.2527-1.7213 2.4053-1.2215 3.217.5112.8309 1.8945 1.3568 4.1587.3994 3.0084-1.2723 7.8768-5.0992 10.059-6.2606 2.1434-1.1406 4.1776-1.3753 5.8499.4867.9688 1.0786 15.0861 15.7935 15.0861 15.7935 5.4857-7.4596 3.7294-15.8284-.966-21.2765z"/><path d="m23.0099 33.6927c-.89-1.1096-2.472-1.3597-3.6191-.5723l-7.6326 5.2392c-1.3331.915-1.6091 2.774-.6069 4.0881.9728 1.2756 2.7778 1.545 4.0316.6016l7.3954-5.5641c1.1875-.8935 1.3826-2.607.4316-3.7925z"/><path d="m29.2277 38.4218-.0004-.0005c-.9208-1.0999-2.5262-1.3043-3.6499-.4647l-8.6842 6.382c-1.2938.9667-1.5004 2.8331-.4552 4.1119 1.0179 1.2453 2.8342 1.453 4.0566.4639l8.4114-6.7285c1.1395-.922 1.2841-2.6146.3217-3.7641z"/><path d="m33.9416 44.2561c-.899-1.112-2.5516-1.347-3.6384-.4676l-7.5247 6.011c-1.2155.9835-1.3802 2.7844-.3682 4.0226 1.0474 1.2813 2.934 1.4506 4.1389.3713l7.1864-6.3998c.9974-.8932 1.0671-2.4723.206-3.5375z"/><path d="m34.9153 49.7942-5.5219 4.7978c-1.045.9244-1.1227 2.5383-.1735 3.6047.9557 1.0737 2.5862 1.1817 3.6289.2404l5.4642-4.8621c.9918-.8953 1.0792-2.4311.1978-3.476-.9225-1.0934-2.5483-1.2313-3.5955-.3048z"/></svg>