<svg height="64" viewBox="0 0 64 64" width="64" xmlns="http://www.w3.org/2000/svg"><path d="m0 0h64v64h-64z" fill="none"/><path d="m0 0h64v64h-64z" fill="none"/><path d="m23.6945 44.2516c-.1292.0423-.259.0941-.3878.1327-.8696.261-1.7201.4258-2.5466.513l4.6692 16.8605c.1841.6646.7876 1.1001 1.4448 1.1001.1328 0 .2676-.0176.4014-.0547.7983-.2212 1.2661-1.0479 1.0454-1.8462z"/><path d="m61.5264 35.0757-22.7438-7.512c-.0969.5724-.221 1.152-.3983 1.743-.1151.3834-.248.7687-.3949 1.1544l22.5966 7.4633c.7876.2622 1.6353-.167 1.8945-.9541.2597-.7867-.1675-1.6349-.9541-1.8946z"/><path d="m33.3981 37.6915c-.2704.2958-.5436.5902-.8297.8764-.4266.4265-.8676.8296-1.3148 1.2207l21.7933 22.5371c.2939.3047.686.4575 1.0781.4575.3755 0 .7515-.1401 1.0425-.4219.5957-.5757.6118-1.5254.0356-2.1206z"/><path d="m33.3292 19.4172-13.0694-11.0041c-2.4948-2.1014-6.5636-1.783-10.4738.5253-.4473 3.949-1.0705 9.5695-1.1334 9.9429-.0925.5496-.5584.456-.6526.4217v-14.303h18v5.3701l4 3.3679v-9.738c0-1.6543-1.3457-3-3-3h-20c-1.6543 0-3 1.3457-3 3v10.2031c-3.2302 4.3573-3.9746 9.2216-1.5869 12.0567l10.7 12.7081c1.2468 1.4808 3.2791 5.1945 9.5613 3.309 5.8533-1.7556 11.8454-7.7441 13.6025-13.6025 1.8346-6.1126-1.5741-8.1006-2.9477-9.2572zm-.5827 7.9715c-.6789 2.2633-2.2943 4.7871-4.4322 6.9255-2.1384 2.1379-4.6622 3.7532-6.9255 4.4322-1.7982.5393-3.2962.4398-4.0056-.2712-.7094-.7089-.8105-2.2064-.2707-4.0051.6789-2.2633 2.2943-4.7871 4.4322-6.9255 2.1384-2.1379 4.6622-3.7532 6.9255-4.4322.7658-.23 1.4767-.3433 2.0957-.3433.8348 0 1.5021.2067 1.9094.6139l.0005.0005c.7094.709.8105 2.2065.2707 4.0052z"/></svg>