<svg height="64" viewBox="0 0 64 64" width="64" xmlns="http://www.w3.org/2000/svg"><path d="m0 0h64v64h-64z" fill="none"/><path d="m16.7926 43.9462c.1444.0718.3204.0718.4648 0 5.4971-2.7327 5.6535-7.6409 3.3081-8.6301-2.3779-1.0031-3.5405 1.1534-3.5405 1.1534s-1.1626-2.1565-3.5405-1.1534c-2.3455.9892-2.1891 5.8974 3.3081 8.6301z"/><path d="m48 56h-4.8734c5.7902-3.4626 9.6878-9.7767 9.6878-17 0-7.7091-4.4349-14.3873-10.8786-17.6612-.3865 2.4577-1.4585 3.7339-1.8142 4.0995-.2855.2935-.5711.3014-.6606.1528.3169-.6777.539-1.807.539-2.5911 0-2.4595-1.4815-4.5707-3.5994-5.4971l2.6617-4.3002-1.9877-1.2303 2.4606-3.9753 1.1373.704c.4696.2906 1.0859.1456 1.3766-.324l.704-1.1373c.3398-.5489-1.1646-2.0955-3.3601-3.4544s-4.2507-2.0156-4.5905-1.4667l-.704 1.1373c-.2907.4696-.1456 1.0859.324 1.3766l1.1373.704-2.4606 3.9753-1.9876-1.2303-11.1847 18.0701-.3487-.2158c-.9392-.5814-2.1719-.2912-2.7532.648l-.7928 1.2809c-.3397.5488 2.0546 2.6462 5.3478 4.6847 3.2932 2.0384 6.2383 3.2459 6.5781 2.697l.7928-1.2809c.5813-.9392.2912-2.1719-.648-2.7532l-.2254-.1395 2.2733-3.6727c1.0419.8729 2.3836 1.3998 3.8492 1.3998 1.7532 0 3.3256-.7565 4.4227-1.9554 4.5447 2.07 7.7179 6.6444 7.7179 11.9554 0 7.2458-5.8948 13.1406-13.1406 13.1406-3.2379 0-6.1938-1.1902-8.4848-3.1406h3.4848v-4h-17v4h4.9293c1.6942 2.8715 4.0815 5.2881 6.9441 7h-4.8734c-1.6569 0-3 1.3431-3 3v3h36v-3c0-1.6569-1.3431-3-3-3zm-14-31c-1.1046 0-2-.8954-2-2s.8954-2 2-2 2 .8954 2 2-.8954 2-2 2z"/></svg>