<svg enable-background="new 0 0 64 64" height="64" viewBox="0 0 64 64" width="64" xmlns="http://www.w3.org/2000/svg"><path d="m0 0h64v64h-64z" fill="none"/><path d="m50 31.9c0-2.5 0-4.5 0-5.1 1.3-.7 4-2.1 4.7-3.6.5-1 .2-2.8-1.5-3.1-.7-.1-2.3 0-3.5.2-.7-5.4-2.1-13.6-2.7-15.3-.4-1.2-1.8-1.7-3.2-2 0 0-7.2-1-15.8-1s-15.8 1-15.8 1c-1.4.3-2.8.8-3.2 2-.6 1.7-2 9.9-2.7 15.2-1.2-.2-2.8-.3-3.5-.2-1.7.3-2 2.1-1.5 3.1.7 1.5 3.4 3 4.7 3.6v23.6s0 4 .4 5.6c.1.6.8 1 1.6 1h6c.8 0 1.4-.4 1.6-1 .3-1 .3-3 .4-4.5l-5.7-1.1c-.4 0-.3-.2-.3-.3h23.9c0-.7 0-1.4 0-2h-12.9v-3h12.9c.1-2.6.2-5.5.6-7.7.4-2.5 2.3-4.4 4.8-4.8 3-.5 7.5-.6 10.7-.6zm-32.2 12.1-6.3-.5c-1.7-.1-2.8-1.5-3.1-3l-.3-1.8c-.2-1.1 1-2.1 2.1-1.7l5.1 1.4c1.1.4 1.9 1.3 2.3 2.4l.7 2.6c.2.2-.1.6-.5.6zm10.2-15.9c-9.3 0-14.9-1.8-17.3-2.9-.7-.3-1.1-1.1-1-1.9.5-3.5 2-12.9 2.4-14.7.1 0 8-.8 15.9-.8s15.8.8 15.9.8c.4 1.8 1.9 11.3 2.4 14.7.1.8-.3 1.6-1 1.9-2.4 1.1-8 2.9-17.3 2.9z"/><path d="m62.4 37.8c-.2-1.2-1.1-2.1-2.3-2.3-3.3-.5-9-.5-10.1-.5s-6.8 0-10.2.6c-1.2.2-2.1 1.1-2.3 2.3-.5 3.3-.5 9-.5 10.1s0 6.8.6 10.2c.2 1.2 1.1 2.1 2.3 2.3 3.3.5 9 .5 10.1.5s6.8 0 10.2-.6c1.2-.2 2.1-1.1 2.3-2.3.5-3.3.5-9 .5-10.1 0-3.4 0-6.8-.6-10.2zm-11.7 1.5c.2-1.2 1-2 2.2-1.8 1.1.2 1.7 1 1.5 2.4-.2 1.2-1 1.9-2.2 1.7s-1.7-1.1-1.5-2.3zm-.2 18.9c-3.1 0-5.7-2.6-5.7-5.7 0-1.5.6-2.9 1.6-3.9v.6c0 .9.3 1.7.8 2.3-.1.3-.2.7-.2 1.1 0 1.9 1.6 3.5 3.5 3.5 1.2 0 2.3-.6 2.9-1.6.1.2.2.5.3.7l.2.5c.1.4.3.7.5 1-1 .9-2.4 1.5-3.9 1.5zm4.8-3.2c-.4-1-1-2.8-1.4-4 0 0-2.7 0-3.8 0s-2.2-.6-2.2-1.9c0-.9.1-2.7.4-4.2-.5.1-1.1.4-1.4.7-.5.5-1.7 2-2.2 2.5-.2.2-1 .9-1.9.4.6-1 1.9-3.2 2.6-4.1.2-.2.4-.5.8-.7 1.2-.8 2.4-1.3 3-1.5.8-.3 2-.2 2.6.5.5.6.3 1.1.2 2-.1.7-.2 1.9-.4 3.1.8.2 2.2.5 3 .8.5.2.7.4 1 1.1.6 1.4 1.4 5.3 1.8 6.8-.3.2-1.4.4-2.1-1.5z"/></svg>