<svg enable-background="new 0 0 64 64" viewBox="0 0 64 64" xmlns="http://www.w3.org/2000/svg"><path d="m0 0h64v64h-64z" fill="none"/><path d="m39.775 41.976h-3.194l-1.601 14.944h4.115l1.739-8.556-.949-5.894c-.04-.241-.079-.396-.11-.494z"/><path d="m20.471 43.493-1.491 2.466 3.21 10.961h4.07l-3.287-14.936c-1.137.037-1.892.488-2.502 1.509z"/><path d="m35.314 25.089c-.655 0-7.96 0-11.876 0-14.218 0-16.229-7.449-17.085-11.027-.333-1.395-2.235-1.139-2.333.233-.215 3.015 1.2 6.371 2.8 8.556 2.02 2.757 4.375 4.02 4.576 4.53.624 1.576-.161 1.37-.506 5.101-.252 2.719 1.931 7.274 2.839 8.407l-3.135 5.22c-.414.56-.549 1.279-.365 1.951l2.432 8.86h4.184l-1.336-9.087 3.251-5.375c.821-1.375 2.127-2.482 4.361-2.482h16.737c1.44 0 1.815 1.066 2 2.16l2.369 14.715h5.046s-1.243-8.822-2.051-16.568c-.371-3.56 2.282-6.043 3.704-9.092.545-1.168.776-2.54.972-3.857l-11.963-4.998c-1.27 1.588-2.814 2.753-4.621 2.753z"/><path d="m56.796 15.789c-.533-1.37-2.302-3.452-4.603-3.452l-2.985.01c-.225-.47-.736-1.286-1.712-1.64-1.859-.673-5.381-2.208-5.949-1.208-.591 1.04 1.006 3.076 2.418 4.577-.362 1.18-1.295 3.944-2.758 6.408l11.062 4.621c.343-1.596.924-2.795 2.469-2.902 3.186-.222 6.446-.815 6.742-5.482z"/></svg>