<?xml version="1.0" encoding="utf-8"?>
<!-- Generator: Adobe Illustrator 18.1.0, SVG Export Plug-In . SVG Version: 6.00 Build 0)  -->
<svg version="1.2" baseProfile="tiny" xmlns="http://www.w3.org/2000/svg" xmlns:xlink="http://www.w3.org/1999/xlink" x="0px"
	 y="0px" width="64px" height="64px" viewBox="0 0 64 64" overflow="inherit" xml:space="preserve">
<g id="_x36_4px_Boxes">
	<rect fill="none" width="64" height="64"/>
</g>
<g id="Production">
	<path d="M61.2248,30.2057L32.8126,3.3202c-0.4594-0.4269-1.166-0.4269-1.6253,0L2.7752,30.2057C2.2812,30.6652,2,31.3124,2,31.9904
		v1.7968C2,34.4569,2.5374,35,3.2,35H8v25h48V35h4.8c0.6626,0,1.2-0.5431,1.2-1.2128v-1.7968
		C62,31.3124,61.7187,30.6652,61.2248,30.2057z M19.6388,28.9448c1.1017-1.3721,5.8233-3.6401,7.5363-4.3786
		c2.1131-0.9109,3.9942-0.8898,4.535,1.3171c2.1382-0.5756,3.2585-0.1573,3.5995,1.8199c1.892-0.3207,2.7513,0.2671,3.3544,1.7326
		l-3.1988,4.4857c-0.1338,0.2015-0.0158,0.2986,0.021,0.3214l1.9161-1.5297c2.2693-1.802,6.8212-5.3737,7.5951-5.972
		c1.0229-0.7909,1.6233-0.9536,2.3066-0.4925c0.7905,0.5335,0.9388,2.5457-1.393,6.0639c-1.9896,3.0021-5.9049,6.5423-5.9049,6.5423
		l0.0037,3.0455c-3.0266,1.1295-6.3096,1.4799-9.7516,1.0052c-4.4976-0.6212-8.1229-2.0425-10.6903-4.1588
		C18.688,35.7803,18.601,30.2374,19.6388,28.9448z M37.0012,52.2257V55H23.9988v-3.2653c0,0-0.9157-1.8683-1.7286-4.3402
		c2.1672,0.8203,4.5627,1.4223,7.1738,1.783c3.4435,0.4755,6.5961,0.3077,9.527-0.3592
		C38.1709,50.8593,37.0012,52.2257,37.0012,52.2257z M52.0073,43.0033c-0.0648,0.347-0.3686,0.5933-0.7123,0.584
		c-0.346-0.0088-0.6326-0.2722-0.6761-0.6202l-0.2992-2.4145c-5.7557,5.6118-12.8642,7.963-20.6624,6.8856
		c-10.4891-1.4494-17.2993-6.9442-18.6846-15.0764l2.8333-0.4973c1.1745,6.8936,6.9418,11.3975,16.2392,12.682
		c6.9588,0.9619,13.2835-1.1777,18.382-6.1906l-2.2797-0.6434c-0.3329-0.0943-0.548-0.4205-0.5061-0.7691
		c0.0411-0.3471,0.326-0.6155,0.673-0.6302l6.6125-0.7512c0.45-0.0182,0.799,0.3919,0.7156,0.841L52.0073,43.0033z"/>
</g>
</svg>
