<svg enable-background="new 0 0 64 64" height="64" viewBox="0 0 64 64" width="64" xmlns="http://www.w3.org/2000/svg"><path d="m0 0h64v64h-64z" fill="none"/><path d="m9.9 40.6c-.3.1-.6.2-.9.2-.5.5-1.1 1.2-1.6 2.2.9.4 3.3 1.4 7.4 2.6.8-1.6 1.7-2.8 2.5-3.6-.6-.3-1.2-.6-1.6-.7-.6-.3-.9-.6-1-1.3l-.2-.9c.4-.1.9-.2 1.3-.5.7-.5 2.1-4.5 2-5.9-.2-1.4-.4-1.5-.6-2.8s1-2.6.4-4.5c-.5-1.7-2.6-3.5-5.1-3-1.9.4-2.3.7-3.5 1.4 0 0-2.6-.4-3.8 1-1.8 2.2-.9 5.3-1.3 8.5-.4 2.8-1.9 4-1.9 4 2.3 1.9 5.2 2.7 8.2 3 .1 0 0 .2-.3.3zm-6.2 1.6c-1.3.9-2.2 2.9-2.6 5.4.6.6 1.4 1.2 2.1 1.7.3-1.5.7-3.1 1.3-4.8.5-1.4 1-2.5 1.6-3.3-.8.2-1.6.5-2.4 1zm1.3 8.4c2.4 1.3 5 2.2 7.7 2.8.3-1.6.7-3.8 1.4-6-4.2-1.2-6.6-2.2-7.6-2.6-.7 1.7-1.2 3.9-1.5 5.8zm37.5-23.3c-1.6-1.7-5.3-2.5-6.5-2.8-.2 0-.4-.2-.4-.4-.1-.4-.1-.8-.2-1 1.2-1.2 2-2.7 2.3-4.7 1-.3 1.2-1.6 1.2-2.3 0-.8-.1-1.2-.4-1.3s-.5 0-.7.1c.2-1.6.4-4.9-.3-6.2s-1.6-1.9-3.3-1.4c-1.1-.6-1.9-1.4-3.8-.8-1.4.4-2.9 1.1-3.6 2.1-.9 1.1-.7 4.7-.5 6.3-.1-.1-.4-.2-.6-.1-.3.1-.4.6-.4 1.3 0 .8.2 2 1.2 2.3.3 2.1 1.1 3.5 2.3 4.7-.1.4-.1.7-.2 1 0 .2-.2.4-.4.4-1.3.3-5 1.1-6.5 2.8-1.6 1.5-1.7 7.6-1.7 9.7 3.6-.8 7.7-1.2 12-1.2s8.4.4 12 1.2c0-2.2-.1-8.2-1.5-9.7zm-3.5 4.7h-2v2h-2v-2h-2v-2h2v-2h2v2h2zm21.7 8.6c-1-.7-2.4-.6-3.7-.4.2-2.4 3.4-5 2.9-11.4h.4c.8 0 1.5-.6 1.7-1.3l.3-.9s-6.4-3.8-13.5-8.1c-.7-.4-1.5.3-1.5 1.1.1 1.2.2 2.8.3 4.1l-3.4 2.4s.8.8 3.1 1.5c-.2.9-.3 1.3-.2 1.8 0 2.3-.9 2.3-.9 4.5 0 1.2.6 5.2 1.3 5.7.8.6 3.7.7 4.7.8.1.1 0 .3-.2.4-.9.4-2.8.6-3.8.6-1.3.7-5 2.7-6.2 4.8-.8 1.3-1.5 6.1-1.8 8.9 5.8-.5 16.4-1.1 22.8-7.3-.2-1.1-.3-5.8-2.3-7.2zm-41.5 2.6c-2.7 2.2-3.8 6.8-4.4 10.7 3.4.6 6.7.9 9 1.1-.3-2.7-.9-7.3-1.8-8.9-.7-1.2-1.7-2.2-2.8-2.9z"/></svg>