<svg fill="none" height="260" width="260" xmlns="http://www.w3.org/2000/svg"><path d="m0 0h260v260h-260z" fill="#154273"/><path d="m134.522 179.198h-4.542v-12.534h4.542zm20.466-55.337h-4.542v-12.534h4.542zm-84.108-21.636c-.366 0-2.715 0-2.715.468s1.096.26 2.715.52c3.654.625 5.064 2.445 7.622 2.445 2.297 0 4.7-1.56 3.76-4.889-.157-.572-.47-.416-.575-.052-.365 1.508-2.193 2.34-4.124 2.34-2.402 0-2.924-.832-6.683-.832zm-25.06 12.534c.417.573 4.698 6.085-1.88 8.218-.313.104-.366.364.052.572 4.855 2.028 7.205-1.716 7.205-1.716 2.454 5.565-1.305 8.685-1.305 8.685.522.988 2.871 2.705 6.37 3.485 1.357-.728 3.236-2.081 4.02-4.161 0 0 .94 2.444.104 4.785 9.92.884 13.417-7.021 21.092-5.565.209.052.313-.104.313-.312 0-4.889-2.975-13.783-12.477-15.603-9.45-1.82-6.892-5.669-6.892-5.669 3.968-.156 6.265 1.56 6.265 1.56.73-1.196-.313-2.444-.313-2.444.365-.468.574-2.08.574-2.08-4.49 0-5.638-.988-5.638-.988-.68-2.653 1.148-6.398 7.83-2.393 1.671-1.456 1.515-3.745 1.515-3.745.522-.26.835-1.04.835-1.352 0-1.092-5.325-4.056-6.682-4.42-.314-1.613-2.402-3.901-8.667-3.069-2.976.364-5.117-.416-4.125-2.132.157-.312-.365-.364-.626-.052-.679.676-1.619 2.6.94 3.9 2.871 1.456 3.028 4.317 3.08 4.733.052.624-.679.676-.835.052-1.306-4.837-7.989-5.877-11.904-3.329.209 2.601 3.028 4.317 4.542 4.317.887 0 2.088-.884 2.088-2.08 0-.572.314-.52.47-.052.627 1.716-1.932 5.305-5.69 3.12-3.864 3.849-2.298 8.634-1.932 10.35.678 3.121-.836 6.189-3.707 4.785-.157-.052-.313-.104-.313.208.052 1.872 2.662 4.109 5.69 2.392zm21.352-19.399c-1.827 2.028-4.751 1.56-5.482-1.768 3.707-.208 5.325.156 5.482 1.768zm115.225 7.697c-1.932 0-3.759-.832-4.125-2.34-.104-.364-.417-.52-.574.052-.94 3.329 1.462 4.889 3.759 4.889 2.558 0 3.968-1.82 7.623-2.445 1.618-.26 2.714 0 2.714-.52 0-.468-2.349-.468-2.714-.468-3.812 0-4.282.832-6.683.832zm37.329 9.206c0-.312-.156-.26-.313-.208-2.872 1.404-4.386-1.612-3.707-4.785.366-1.768 1.932-6.501-1.932-10.35-3.811 2.185-6.369-1.404-5.69-3.12.156-.468.469-.52.469.052 0 1.196 1.201 2.08 2.089 2.08 1.514 0 4.333-1.716 4.542-4.317-3.916-2.548-10.598-1.508-11.904 3.33-.156.623-.887.571-.835-.053 0-.416.209-3.276 3.08-4.733 2.611-1.3 1.671-3.224.94-3.9-.261-.26-.835-.208-.626.052.992 1.716-1.149 2.496-4.073 2.132-6.265-.832-8.301 1.508-8.666 3.069-1.358.364-6.683 3.328-6.683 4.42 0 .312.313 1.144.835 1.352 0 0-.104 2.237 1.514 3.745 6.631-4.005 8.51-.26 7.832 2.393 0 0-1.201.936-5.691.988 0 0 .209 1.612.574 2.08 0 0-1.044 1.3-.313 2.444 0 0 2.297-1.716 6.265-1.56 0 0 2.558 3.849-6.892 5.669-9.449 1.82-12.477 10.714-12.477 15.603 0 .26.104.364.313.312 7.674-1.404 11.172 6.501 21.092 5.565-.887-2.341.105-4.785.105-4.785.783 2.08 2.662 3.485 4.02 4.161 3.55-.78 5.847-2.445 6.369-3.485 0 0-3.759-3.068-1.305-8.685 0 0 2.349 3.744 7.205 1.716.417-.208.313-.468.052-.572-6.578-2.133-2.297-7.646-1.88-8.218 3.133 1.821 5.691-.416 5.691-2.392zm-21.51-18.671c-.731 3.328-3.654 3.796-5.482 1.768.209-1.612 1.775-1.976 5.482-1.768zm-70.012-55.598c0 .833.366 1.56.627 1.977.574.832.469 1.3.208 1.56s-.73.364-1.566-.208a3.448 3.448 0 0 0 -1.984-.624c-1.409 0-2.14.936-2.14 1.716s.731 1.717 2.14 1.717c.836 0 1.566-.365 1.984-.625.836-.572 1.305-.468 1.566-.208s-.104 3.12-.469 5.41c-2.35.52-3.498 2.392-3.498 3.484 0 2.86 3.028 4.473 4.855 5.46 1.775-.935 4.855-2.6 4.855-5.46 0-1.092-1.148-3.017-3.498-3.485-.313-2.236-.731-5.149-.469-5.409.261-.26.73-.364 1.566.208.417.312 1.148.625 1.984.625 1.409 0 2.14-.937 2.14-1.717s-.731-1.716-2.14-1.716c-.836 0-1.567.364-1.984.624-.836.572-1.305.468-1.566.208-.262-.26-.366-.728.208-1.56.314-.416.627-1.144.627-1.977 0-1.404-.94-2.132-1.723-2.132s-1.723.728-1.723 2.132zm1.775 21.116a3.49 3.49 0 0 0 -3.232 2.151 3.478 3.478 0 0 0 .759 3.798 3.512 3.512 0 0 0 3.812.755 3.476 3.476 0 0 0 2.159-3.22 3.515 3.515 0 0 0 -1.035-2.453 3.54 3.54 0 0 0 -2.463-1.031zm0 33.338c13.94 0 21.771 2.652 21.771 2.652.052-7.021.052-10.922 4.073-10.35-2.193-5.877 7.309-8.217 7.309-15.862 0-5.045-3.603-5.617-4.647-5.617-3.132 0-2.662 2.028-5.325 2.028-.313 0-.679-.104-.679.156 0 .884.731 2.392 1.984 2.392 1.671 0 1.671-1.664 2.924-1.664.522 0 1.305.416 1.305 2.133 0 3.276-2.141 6.865-4.699 9.673-.574-.78-1.357-1.3-2.349-1.3-1.514 0-2.819 1.56-2.819 3.485 0 .728.104 1.248.365 1.82-.835.468-1.618.728-2.141.728-1.148 0-2.871-.468-2.871-2.965 0-5.564 7.466-10.453 7.466-17.527 0-3.38-2.245-6.709-6.996-6.709-5.064 0-4.125 4.577-8.51 4.577-.209 0-.366.052-.366.26 0 .312.783 2.86 3.028 2.86 2.402 0 3.081-4.16 5.274-4.16.783 0 1.984.468 1.984 3.276 0 2.185-1.097 5.773-2.663 9.154a3.189 3.189 0 0 0 -2.193-.988c-1.879 0-3.237 1.82-3.237 3.953 0 1.352.522 2.704 1.462 3.536-1.096 1.404-2.245 2.549-3.759 2.549-3.028 0-4.333-1.717-4.333-3.589 0-2.028 3.706-2.756 3.706-5.877 0-2.132-1.409-3.329-2.714-3.329-1.462 0-2.193.937-2.35.937-.156 0-.887-.937-2.349-.937-1.358 0-2.715 1.197-2.715 3.329 0 3.12 3.707 3.9 3.707 5.877 0 1.872-1.358 3.589-4.334 3.589-1.514 0-2.662-1.145-3.759-2.549.94-.884 1.462-2.184 1.462-3.536 0-2.185-1.357-3.953-3.237-3.953a3.092 3.092 0 0 0 -2.192.988c-1.567-3.433-2.663-6.97-2.663-9.154 0-2.808 1.201-3.276 1.984-3.276 2.14 0 2.819 4.16 5.273 4.16 2.245 0 3.028-2.548 3.028-2.86 0-.156-.157-.26-.365-.26-4.386 0-3.446-4.577-8.51-4.577-4.699 0-6.996 3.329-6.996 6.71 0 7.073 7.465 11.962 7.465 17.526 0 2.497-1.723 2.965-2.871 2.965-.574 0-1.305-.26-2.141-.728a4.208 4.208 0 0 0 .366-1.82c0-1.925-1.305-3.485-2.819-3.485-.94 0-1.723.52-2.298 1.3-2.558-2.808-4.698-6.397-4.698-9.673 0-1.665.783-2.133 1.305-2.133 1.201 0 1.253 1.664 2.923 1.664 1.253 0 1.984-1.508 1.984-2.392 0-.26-.365-.156-.678-.156-2.663 0-2.193-2.028-5.326-2.028-1.044 0-4.646.572-4.646 5.617 0 7.697 9.502 9.985 7.309 15.862 4.02-.572 3.968 3.329 4.072 10.35-.104 0 7.779-2.652 21.719-2.652zm-25.53 10.349c-3.811.833-6.526 1.613-7.727 1.977.052-1.665.679-3.225 2.193-3.537.209-.052.261-.312.052-.416-3.393-2.236-5.169 2.028-5.22 2.184-1.202-.104-3.029.26-3.029 1.873 0 4.837-11.068 7.489-13.626 7.905 4.542 1.716 6.421 7.437 6.421 7.437 3.29-3.276 7.1-6.137 7.988-6.137s1.201 1.092 1.253 1.717c0 .208.21.26.366.104 1.723-2.549.887-3.121.73-3.901-.104-.572.053-2.809 2.559-2.548v32.193l-1.305.26c-.575.104-5.326-3.901-10.703-7.645-5.43-3.745-8.301-1.509-14.462 1.82-8.092 4.369-16.237.416-16.237.416-6.944 4.941-9.346 19.295-9.346 19.295-1.41.572-3.706 1.197-5.847 1.197-5.325 0-6.265-3.225-6.265-5.097 0-8.166 10.285-11.65 10.285-19.712 0-1.976-.887-9.881-10.755-9.881h-8.823c-3.707 0-4.595-2.653-5.117-3.641-.208-.416-.574-.156-.417.156.26.676-.418 1.716-.418 3.745 0 3.276 1.932 5.253 5.534 5.253 1.619 0 3.185-.468 3.655-.78.313-.209.522.104.365.312-1.566 1.82-1.67 5.252-1.044 6.033.157.208.366.156.366 0 .887-3.433 4.124-6.71 8.51-6.71 5.377 0 5.325 4.525 5.325 5.617 0 6.553-11.538 11.338-11.538 20.388 0 9.153 9.71 11.078 15.297 9.673-.313 9.154-10.86 12.275-11.173 5.721 0-.312-.26-.364-.417.052-1.306 3.225-.784 6.085 3.289 6.97.26.052.156.208-.105.416-4.072 2.548-1.88 12.638-1.67 15.602.313 4.265-3.968 3.745-4.334 3.641-.156-.052-.365 0-.052.364 3.028 3.693 6.787.312 6.787.312 2.82.884 1.097 3.277-.835 4.525-.313.208-.261.416.052.416.418.052 4.803.416 5.586-3.069 1.932 2.289 4.804 1.457 5.378 1.145.835-.417 4.96-1.925 5.325 2.652 0 .312.21.104.366-.052 3.08-3.901-.209-6.293-2.089-6.553.157-.208 2.611-2.288 4.856.572.157.208.313.26.313-.156.261-4.941-3.759-5.357-6.37-3.225-.104-.52-.991-3.276 2.924-3.172.105 0 .261-.156.105-.312-3.028-3.225-5.535-.312-6.161.416-1.357 1.612-4.751.936-5.064.936 1.044-17.111 16.185-11.026 18.273-19.347.105-.416.313-.26.313-.104.575 2.028 5.691 2.288 6.63-1.665.053-.26 0-.416-.156-.26-4.385 4.369-14.253-9.257-.783-20.335 11.486-9.414 21.771-4.161 25.687-1.092.209 1.352-.627 1.82-1.149 1.976-.209.052-.26.208.053.364 1.096.416 2.61.26 3.34-.728 2.455 1.716.366 3.901-.626 4.473-.26.156-.156.312.052.364 2.246.416 4.125-1.872 4.23-3.225l.365.208v9.726c0 13.834 16.028 15.759 33.622 27.461 17.595-11.754 33.571-13.627 33.571-27.461v-9.726l.365-.208c.105 1.301 1.932 3.641 4.229 3.225.209-.052.313-.208.052-.364-.992-.624-3.132-2.757-.626-4.473.731 1.04 2.245 1.144 3.341.728.313-.104.261-.312.052-.364-.522-.156-1.357-.624-1.148-1.976 3.915-3.121 14.201-8.374 25.686 1.092 13.47 11.078 3.603 24.652-.783 20.335-.208-.208-.208 0-.156.26.939 4.005 6.056 3.693 6.63 1.665.052-.156.261-.312.314.104 2.088 8.321 17.176 2.236 18.273 19.347-.314.052-3.707.676-5.065-.936-.574-.676-3.08-3.641-6.16-.416-.209.208 0 .312.104.312 3.916-.104 3.08 2.652 2.924 3.172-2.611-2.132-6.631-1.716-6.37 3.225 0 .364.157.364.314.156 2.245-2.86 4.698-.78 4.855-.572-1.827.26-5.169 2.652-2.088 6.553.156.156.313.364.365.052.418-4.577 4.49-3.121 5.325-2.652.575.312 3.446 1.144 5.378-1.145.783 3.485 5.169 3.121 5.586 3.069.314 0 .314-.208.052-.416-1.879-1.248-3.654-3.641-.835-4.525 0 0 3.759 3.381 6.787-.312.261-.312.105-.416-.052-.364-.365.104-4.646.624-4.333-3.641.209-2.964 2.401-13.054-1.671-15.602-.261-.156-.365-.312-.104-.416 4.072-.885 4.594-3.745 3.289-6.97-.157-.416-.418-.312-.418-.052-.313 6.554-10.807 3.433-11.173-5.721 5.639 1.457 15.298-.52 15.298-9.673 0-8.998-11.539-13.835-11.539-20.388 0-1.092-.052-5.617 5.326-5.617 4.385 0 7.622 3.277 8.51 6.71.052.156.209.208.365 0 .627-.833.522-4.213-1.044-6.033-.157-.156 0-.521.366-.312.469.312 2.036.78 3.654.78 3.603 0 5.534-1.977 5.534-5.253 0-2.029-.731-3.069-.417-3.745.156-.312-.261-.52-.418-.156-.522 1.04-1.462 3.641-5.117 3.641h-8.823c-9.867 0-10.755 7.957-10.755 9.881 0 8.062 10.285 11.546 10.285 19.712 0 1.924-.992 5.097-6.265 5.097-2.192 0-4.49-.625-5.847-1.197 0 0-2.349-14.302-9.345-19.295 0 0-8.145 3.953-16.237-.416-6.161-3.329-9.085-5.565-14.515-1.82-5.429 3.744-10.128 7.749-10.702 7.645l-1.306-.26v-32.193c2.506-.261 2.663 1.976 2.559 2.548-.157.728-.94 1.352.731 3.901.156.208.313.104.365-.104.052-.625.418-1.717 1.253-1.717s4.699 2.861 7.988 6.137c0 0 1.88-5.669 6.422-7.437-2.558-.416-13.627-3.068-13.627-7.905 0-1.613-1.827-1.977-3.028-1.873-.052-.156-1.879-4.42-5.221-2.184-.156.104-.156.364.052.416 1.515.364 2.141 1.872 2.193 3.537-3.237-.988-16.968-4.837-33.257-4.837-7.936 0-15.193.936-20.988 1.976v11.13h-4.542zm-30.123 114.316c-1.201-.468-1.984-1.248-1.984-2.861v-6.917c-1.984-.676-7.414-2.756-18.326-2.756-9.032 0-11.851 2.028-12.008 2.756l-2.402 13.21s3.655-3.328 16.76-2.496c15.767.988 32.108 10.298 32.108.364v-5.825c-12.321 0-14.148 3.953-14.148 4.525zm97.108-4.525v5.825c0 9.882 16.341.624 32.108-.364 13.105-.832 16.759 2.496 16.759 2.496l-2.401-13.21c-.105-.728-2.976-2.756-12.008-2.756-10.86 0-16.289 2.08-18.325 2.756v6.917c0 1.56-.784 2.341-1.984 2.861 0-.572-1.828-4.525-14.149-4.525zm-41.454-5.981c25.426 0 51.217 1.3 54.558 5.149.261.312.366 0 .366-.26v-13.419c0-3.9-26.627-6.189-54.976-6.189s-54.976 2.289-54.976 6.189v13.419c0 .208.105.52.365.26 3.446-3.797 29.237-5.149 54.663-5.149zm-22.658-63.243-2.559-.676-.209.312-2.975-1.3h2.662c.261 0 .261-.156.157-.26-1.201-1.196-2.297-2.236-2.297-2.236s1.2.468 2.923 1.092c.209.052.261-.052.157-.208l-1.984-2.861 2.872 1.925c.156.104.261 0 .208-.157l-1.357-3.38 2.61 2.496c.105.104.261.052.209-.104l-.731-3.38 1.932 2.808c.104.156.261.104.261-.052 0-.572.052-3.068.052-3.068s.836 1.872 1.201 2.808c.104.208.209.208.313-.052.105-.312.992-2.392.992-2.392l.105 3.224-.418.104-.522 3.849c3.811-.884 8.614-7.437 12.269-7.437 4.386 0 5.952 5.097 13.992 2.496 2.036 3.017 2.767 5.617 3.55 9.206 3.133 2.912 7.466 1.924 7.466-1.144 0-4.161-4.542-4.941-4.542-9.31 0-1.924 1.357-4.733 5.064-4.733 1.984 0 4.856.832 6.526.832 1.984 0 2.402-1.404 2.611-2.028.156-.416.731-.312.678.052-.052.416.209.988.209 1.924 0 2.757-4.02 3.121-4.49 2.757-.209-.156-.365.052-.209.208.627.468.47 2.132-.261 3.172-.104.104-.208.104-.208 0-.418-1.976-2.767-4.42-4.804-4.42-.731 0-2.245.416-2.245 2.184 0 2.444 4.96 4.733 4.96 9.83 0 5.305-5.273 6.605-10.598 5.252.156 5.045 7.727 8.01 7.883 4.421 0-.26.157-.104.209 0 1.097 1.561.627 2.705-.835 3.329 1.305.572 1.566 3.224 1.932 4.837.574 2.392 3.08 1.04 3.237.988.156-.104.208 0 .104.156-.94 2.444-3.498 1.508-3.498 1.508-1.305.936.261 1.768 1.462 2.132.156.052.156.156.052.26-.888.313-2.767.937-3.707-.676-.679 1.665-2.088 1.613-2.61 1.613-.992 0-1.619.988-1.41 2.34 0 .104-.052.156-.157.104-2.297-1.508-.991-3.329-.052-3.797-.156-.104-1.775-.78-2.454 1.093-.052.156-.156.156-.208 0-.992-2.705 1.2-3.485 2.767-2.809-.105-.364-.94-1.716-3.028-1.248-.105.052-.157 0-.105-.156.366-.832 1.358-2.028 3.289-.832.992.624 2.663-.26 2.82-.364-3.394-6.709-9.92-1.093-11.434-6.345-.052-.104-.157-.208-.261.104-.366 1.092-3.237 1.196-3.759-.989-.052-.156 0-.208.156-.104.418.416 1.306.781 2.506-.884.784-1.144.888-2.652.888-3.64 0-4.057-4.072-10.922-10.442-10.922-4.02 0-8.353 1.56-11.59 3.9l2.976.677c-.261 3.016-3.185 4.784-5.848 4.004l.47-3.432c-.47.156-1.618.572-2.245 1.456-.052.052-.156.052-.156-.052-.522-1.976 1.096-2.965 1.566-3.173.052-.052.052-.052-.052-.052-1.462-.052-2.245.989-2.506 1.353-.053.052-.105.052-.105 0 .157-.416-.104-1.405.575-2.133zm8.875 23.3c-1.149 1.404-2.141.052-3.655.052-1.409 0-1.67 1.196-1.67 1.664 0 .104-.052.105-.105.052-1.618-2.184.209-3.38 1.253-3.536-.156-.156-1.723-1.196-2.715.26-.052.104-.156.052-.156-.052-.052-2.705 2.088-2.913 3.55-1.716.261-1.041-.418-1.717-1.566-1.769-.157 0-.157-.104-.105-.156.47-.52.94-.728 1.41-.728 1.514 0 1.723 1.925 2.715 1.925 1.462 0 3.602-1.977 3.759-2.185-.052-.104-1.462-3.953-1.201-6.241 0-.104-.052-.104-.104-.052-.731.416-2.506.364-2.506-1.82 0-.156.052-.208.156-.052.783 1.092 2.089-.156 2.715-.884.679-.781 4.438-6.189 9.398-6.189 1.096 0 2.506.624 3.654 1.404-1.723 2.08 0 4.057 1.253 3.796.157-.052.157.104.053.156-6.579 2.445-9.502 3.433-9.502 8.946 0 2.86.992 4.473 2.662 4.057.105-.052.157 0 .052.104-.626.728-1.305.988-1.879.988-1.358 0-1.619-.728-2.349-.728-.731 0-3.185 1.456-3.185 2.652 0 .468.313 1.092 1.148 1.612.053.052 0 .104 0 .104-.678 0-2.61.156-3.08-1.664zm17.333-53.309c-2.036-.104-3.393.312-3.289.988.94 1.041 2.297.936 3.289-.988zm-7.622 5.045c1.462-.364 3.028-.208 3.237-.156s.209.416-.052.468c-3.028.364-3.185 1.768-5.117 1.768-1.253 0-2.662-1.3-2.14-3.172.052-.26.261-.26.313 0 .209.832 1.41 1.716 3.759 1.092zm-39.313 66.883c1.984 2.549 3.915.156 6.578.156 1.305 0 2.871.416 3.132 3.017 0 .156.105.156.261 0 2.872-3.901-.417-6.085-2.297-6.397.418-.364 3.185-2.081 5.012.468.105.156.314.104.314-.104 0-4.941-3.707-5.305-6.422-3.173-.522-1.924.94-3.172 2.82-3.172.208 0 .313-.156.208-.26-3.341-3.537-5.795.936-6.37 1.612-1.305 1.768-6.056-1.56-7.987-3.537 0 0 4.176-4.368 4.176-8.373 0-.26-.052-.572-.052-.728 0-.104.052-.156.157-.104.417.26.992.416 1.566.416.94 0 2.767-.312 2.767-3.693 0-.26-.104-.26-.209-.104-.522.728-1.044.884-1.462.884-3.393 0-10.441-11.233-18.795-11.233-2.193 0-6.317 1.56-8.353 3.796.992.572 1.2 1.82 1.096 2.705-.156 1.404-1.305 2.132-2.454 2.444-.208.052-.208.208 0 .312 4.23 1.612 11.852 4.473 13.627 5.981 2.036 1.768 1.67 5.097.47 9.726-1.149 4.421-3.603 3.848-4.542 3.692-.157 0-.157.052-.105.156 1.097 1.353 2.402 1.821 3.55 1.821 2.193 0 3.028-1.353 4.125-1.353 1.88 0 5.9 2.705 5.9 4.785 0 1.145-.888 2.237-2.089 2.965-.052.052-.052.156.052.156.888.156 4.647.468 5.326-2.861zm92.096 2.861c.104 0 .157-.104.052-.156-1.148-.78-2.088-1.82-2.088-2.965 0-2.08 3.968-4.785 5.899-4.785 1.149 0 1.932 1.353 4.125 1.353 1.149 0 2.454-.468 3.55-1.821.105-.104.052-.208-.104-.156-.888.156-3.394.729-4.542-3.692-1.201-4.629-1.619-7.958.469-9.726 1.723-1.508 9.398-4.369 13.627-5.981.209-.104.209-.26 0-.312-1.149-.312-2.297-1.04-2.454-2.444-.104-.885.105-2.081 1.097-2.705-2.089-2.236-6.213-3.796-8.406-3.796-8.353 0-15.402 11.233-18.795 11.233-.418 0-.992-.156-1.462-.884-.105-.156-.209-.156-.209.104 0 3.381 1.827 3.693 2.767 3.693.522 0 1.149-.156 1.566-.416.105-.052.157 0 .157.104 0 .156-.052.468-.052.728 0 4.005 4.177 8.373 4.177 8.373-1.88 1.977-6.631 5.253-7.988 3.537-.575-.728-3.029-5.149-6.37-1.612-.104.156-.052.26.209.26 1.879 0 3.341 1.248 2.819 3.172-2.715-2.132-6.421-1.768-6.421 3.173 0 .208.208.26.313.104 1.775-2.549 4.594-.832 4.96-.468-1.88.26-5.117 2.496-2.298 6.397.105.156.209.156.261 0 .314-2.549 1.88-3.017 3.133-3.017 2.61 0 4.542 2.393 6.578-.156.783 3.329 4.49 3.017 5.43 2.861zm-67.454-64.855c-.261.364-1.148 0-1.462-.156-.052-.052-.104 0-.052.052.209.468 1.044 1.872 2.297 1.872.575 0 1.41-.312 1.619-.728 0 0 4.907 1.612 7.309 2.236-.94 1.249-1.514 2.757-1.671 4.369-1.931-1.196-9.763-5.357-9.763-5.357l-2.401 3.329c-.418.52-2.35-.884-1.932-1.404l1.827-2.549c-.626-.624-2.088-.26-2.506-.104-.052 0-.104 0-.052-.104.261-.52 1.149-2.028 3.446-1.352 0-1.404-2.089-.936-2.663-.78-.052 0-.104 0-.052-.052.574-.624 2.297-1.977 4.177-.832l.835-1.145-1.671-1.768 1.045-1.456 1.2 1.56 9.032-12.326c.209-.312 2.037-.832 2.663-.988.052.676.157 2.548-.052 2.86l-8.876 12.43 1.88.625-1.044 1.456-2.193-1.04zm31.691-2.028c0 1.144.679 2.808 2.193 2.288.052-.052.156 0 .104.052-.209 1.248-2.506 2.392-3.498.936-.94 1.924-.679 3.745 1.253 4.785.105.052.105.208 0 .312-1.201.832-3.028.676-3.863-.988-1.619 1.196-1.41 3.796-.418 4.681 0 0-4.49 2.652-8.562.78-2.715-1.301-4.908-2.965-8.406-2.653.47-4.889 2.924-6.137 7.414-6.865 3.602-.572 4.02-2.236 3.55-3.484-1.201-.313-3.446.78-3.446.78-.417-.677.157-1.353.157-1.353-.209-.26-.313-1.144-.313-1.144 2.506 0 2.976-.572 2.976-.572.469-2.6-2.193-2.86-4.229-1.456-.94-.832-.784-1.924-.784-1.924a1.129 1.129 0 0 1 -.469-.781c0-.624 2.976-2.288 3.759-2.496.208-.884 1.253-2.08 4.437-1.768.366-.832-.261-3.901-.626-4.681-.105-.26.052-.364.313-.208 1.097.676 2.193 3.276 2.976 3.328 0 0 3.55-1.872 3.707-1.768s.679 4.057.679 4.057c.469.572 3.237 0 4.437.52.314.156.314.364 0 .416-.887.156-3.759 1.404-4.229 2.184 1.671 2.445.888 6.033.888 7.022z" fill="#fff"/></svg>