<svg height="64" viewBox="0 0 64 64" width="64" xmlns="http://www.w3.org/2000/svg"><path d="m0 0h64v64h-64z" fill="none"/><path d="m22.6152 16.5806c0-8.7095-4.6108-12.04-10.3105-12.04s-10.7588 4.0346-10.7588 12.5522c0 8.9658 4.7388 11.6553 10.2466 11.6553 5.5713-.0001 10.8227-3.9703 10.8227-12.1675zm-10.5669 6.9804c-2.4976 0-4.2266-1.6011-4.2266-7.0444 0-5.1235 1.9854-6.8525 4.291-6.8525 2.4976 0 4.2905 1.793 4.2905 7.4287.0001 4.6108-1.8568 6.4682-4.3549 6.4682z"/><path d="m32.4136 3.5801-17.0347 43.228 4.8027 1.9209 17.0352-43.2275z"/><path d="m40.6108 28.3643c2.1938 0 3.8434 1.3856 4.2124 5.5417 1.8149-.0803 3.6391-.106 5.1768-.106.3395 0 .6995.002 1.0638.0046-.4983-7.6099-4.8956-10.5639-10.2606-10.5639-5.6997 0-10.7593 4.0347-10.7593 12.5522 0 5.0706 1.5172 8.1314 3.8304 9.8359.0797-2.2437.236-4.5396.534-6.3278.2285-1.3738.9324-2.5728 1.9248-3.4561-.0056-.2068-.0129-.4096-.0129-.6288.0001-5.1228 1.9855-6.8518 4.2906-6.8518z"/><path d="m62.435 39.826c-.195-1.1728-1.0873-2.0651-2.2607-2.2607-3.3915-.5653-9.0442-.5653-10.1742-.5653-1.1301 0-6.7828 0-10.1743.5653-1.1735.1956-2.0657 1.0879-2.2607 2.2607-.5651 3.3913-.5651 9.0436-.5651 10.174 0 1.1303 0 6.7827.5651 10.174.195 1.1729 1.0873 2.0651 2.2607 2.2607 3.3914.5653 9.0441.5653 10.1743.5653 1.1301 0 6.7828 0 10.1742-.5654 1.1735-.1956 2.0657-1.0878 2.2607-2.2607.565-3.3912.565-9.0436.565-10.1739 0-3.393 0-6.7827-.565-10.174zm-5.2486 10.4954-6.0909 7.7152c-.2609.3307-.6589.5234-1.08.5234s-.819-.1927-1.08-.5234l-6.0909-7.7152c-.4084-.5163-.3931-1.2507.0369-1.7499.4294-.4993 1.1528-.6242 1.725-.2978l3.3788 1.9271v-7.0152c0-1.1032.9539-1.4324 2.0309-1.4319 1.0762-.0004 2.0297.3284 2.0297 1.4319v9.6562s.1047.0627.1569-.1306c.0654-.2421.8163-3.0656.8163-3.0656l2.4056-1.372c.5722-.3264 1.2955-.2015 1.725.2978.2216.2573.3329.5774.3329.8974-.0002.301-.0983.6024-.2962.8526z"/></svg>