<svg height="64" viewBox="0 0 64 64" width="64" xmlns="http://www.w3.org/2000/svg"><path d="m0 0h64v64h-64z" fill="none"/><path d="m19.9604 32.8746v-2.5293c-.7181.7426-1.2123 1.5622-1.5261 2.5293z"/><path d="m27.5173 18.981c-.9119 0-1.525.8944-1.525 2.2256 0 1.4257.5037 2.119 1.5403 2.119.9263 0 1.525-.8917 1.525-2.2713.0001-1.3759-.5179-2.0733-1.5403-2.0733z"/><path d="m19.7627 19.3044c-.7182.7426-1.2123 1.5622-1.5261 2.5293h1.5261z"/><path d="m52 12h-4.0272c-3.6495-4.8497-9.4359-8-15.9728-8s-12.3233 3.1503-15.9728 8h-4.0272c-.5523 0-1 .4477-1 1v11 35h24v-9.6319c3.3571-.3214 4.8445-4.1743 4.9531-4.5.0782-.2344.0313-.3125-.0594-.2984-1.1123 1.1734-3.2491 3.2856-5.1436 2.7984-1.25-.3214-.9868-3.4188-.3571-4.5995.2857-.5356.6456-.8795 1.2453-1.0089 2.1117-.4554 6.6831-.9197 9.3617-.9197.5714 0 1 .4477 1 1v17.16h7v-35-11c0-.5523-.4477-1-1-1zm-35.7892 10.4335c.3079-2.1843 1.6688-4.231 3.6418-5.4763l.0663-.0419h2.1625v4.9184h.8679v1.9597h-.8679v1.3705h-2.2188v-1.3705h-3.2644l-.396-1.3005zm6.8362 12.4008h-.8679v1.3705h-2.2188v-1.3705h-3.2643l-.396-1.3005.0085-.0594c.3079-2.1843 1.6689-4.231 3.6418-5.4763l.0663-.0419h2.1625v4.9184h.8679zm3.0005 1.3372h-1.2765v-1.9597h1.353c.619 0 2.0579-.0939 2.0579-.9618 0-.5271-.5079-.7941-1.5096-.7941-.4559 0-.9634.026-1.4661.0754l-.2983.0287v-4.7438h5.188v2.0356h-3.274v.7521c.1752-.0096.3281-.0165.5356-.0165 2.7273 0 3.1344 1.525 3.1344 2.4343 0 2.0017-1.62 3.1498-4.4444 3.1498zm1.3785-10.8406c-2.3403 0-3.6827-1.4698-3.6827-4.033 0-2.5043 1.6322-4.3223 3.8807-4.3223 2.2719 0 3.6827 1.5515 3.6827 4.0484.0001 2.8276-1.9523 4.3069-3.8807 4.3069zm13.8787 13.5146c.3335-.5303.6453-1.222.6453-1.9884 0-1.6568-1.45-3-1.45-3s-1.45 1.3432-1.45 3c0 .8136.35 1.5491.7059 2.0895-1.7023-.1785-3.2622-1.3315-3.6765-3.7141-.6534-3.7587 2.8911-8.9766 4.4291-10.4325.269 5.1554 3.1209 4.4139 4.3892 8.4909.5759 3.0113-1.372 5.0499-3.593 5.5546z"/></svg>