<svg height="64" viewBox="0 0 64 64" width="64" xmlns="http://www.w3.org/2000/svg"><path d="m0 0h64v64h-64z" fill="none"/><path d="m11.3289 40.7469c-.2291-.6271-.5204-.7154-.8284-.7154-.3078 0-.6028.0883-.8321.7154-1.9108 5.2296-5.7552 7.6049-6.557 11.5729-.8403 4.159 3.2154 7.6802 7.3891 7.6802 4.1739 0 8.2367-3.5233 7.3856-7.6802-.8061-3.9361-4.6463-6.3433-6.5572-11.5729zm-1.3738 16.0231c-1.342 0-2.7493-.6522-3.5847-1.6627-.5634-.6805-.773-1.4004-.6238-2.1385.269-1.3328 1.2159-2.6021 2.4147-4.2087.5605-.7515 1.178-1.5799 1.7895-2.5101.0202.0307.0401.0568.0602.0873-.7724 2.6921-1.6159 5.0598-1.6159 6.7506 0 1.548 1.1016 3.2034 1.9139 3.6609-.1182.0099-.2365.0212-.3539.0212z"/><path d="m59.6895 20.7631c2.2628-4.3047 1.5126-12.6142-1.6118-16.5083-3.1361-3.9087-7.1645-1.993-10.856.9689l-.007-.0087-1.5728 1.2618-5.5046 4.4166-30.4898 24.463c-.9608.7709-.1956 2.3076.9986 2.0056l15.7914-3.9246s-1.8566-4.0939-1.9767-4.4075.0712-.4072.1286-.4263l10.7111 13.315c1.0453 1.3029 7.5259-2.1605 14.4747-7.7358 6.9489-5.5753 11.7346-11.1512 10.6891-12.4541zm-2.9556-3.6838-7.0258-8.7566c3.1915-2.5507 4.3-2.6959 5.1988-1.5757 1.7437 2.1733 2.4855 7.0216 1.827 10.3323z"/><path d="m26.0854 14.0714c1.6897-.7115 2.6685-1.2555 2.6685-1.2555l2.2579 2.8141 3.9318-3.1547-2.2603-2.8171s.7105-.813 1.7693-2.3098c.9096-1.2859-.6436-3.0124-1.9443-1.9675-1.227.9859-6.6985 5.3822-7.9255 6.368-1.3006 1.0452.051 2.9338 1.5026 2.3225z"/></svg>