<svg height="64" viewBox="0 0 64 64" width="64" xmlns="http://www.w3.org/2000/svg"><path d="m0 0h64v64h-64z" fill="none"/><path d="m51.9 6h-3.8c-1.2 0-2.1.9-2.1 2.1v41.5c1.6.3 3.6.6 5.7 1 .3.1.3.3.3.4h-9.2l-1.1-19.7c-.4-7.5-7.2-13.3-15.2-13.3s-14.8 5.8-15.2 13.3l-1.3 23.7h44v-46.9c0-1.2-.9-2.1-2.1-2.1zm-25.4 28.3c1 0 1.7.8 1.7 1.7 0 1-.8 1.7-1.7 1.7-1 0-1.7-.8-1.7-1.7-.1-.9.7-1.7 1.7-1.7zm-4.2-5.4 2.6 4.5c-.9.5-1.6 1.6-1.6 2.7h-5.2c.1-3.1 1.8-5.8 4.2-7.2zm4.2 15.5c-1.5 0-2.9-.4-4.2-1.1l2.6-4.5c.5.3 1 .4 1.6.4s1.1-.2 1.6-.4l2.6 4.5c-1.3.6-2.7 1.1-4.2 1.1zm3.2-8.3c0-1.2-.6-2.2-1.6-2.7l2.6-4.5c2.5 1.4 4.2 4.1 4.2 7.2z"/></svg>