<svg height="64" viewBox="0 0 64 64" width="64" xmlns="http://www.w3.org/2000/svg"><path d="m0 0h64v64h-64z" fill="none"/><path d="m53.9092 10.0908c-5.4545-5.4545-14.3284-5.4545-19.7819 0l-6.3595 6.359c-5.4535 5.4545-5.4535 14.328.0005 19.7824 1.7939 1.7942 3.9616 2.9765 6.2526 3.5858-.3665 1.3038-1.0491 2.5153-2.028 3.4942l-6.3585 6.359c-3.117 3.1156-8.1885 3.1175-11.3046 0-3.1166-3.1166-3.1166-8.1885-.0005-11.3051l6.359-6.359c.4173-.4173.8716-.7742 1.3496-1.0797-.6045-2.0719-.7836-4.2397-.5505-6.3714-1.8377.6774-3.5645 1.7389-5.0378 3.2124l-6.3595 6.359c-5.4535 5.4546-5.4535 14.3281.0004 19.7826 2.7267 2.7272 6.3092 4.0904 9.8912 4.0904s7.1645-1.3631 9.8917-4.0904l6.3585-6.359h-.0005c3.1605-3.1595 4.6265-7.6841 3.922-12.1032-.4664-2.9243-1.8222-5.5794-3.922-7.6792-1.3266-1.3266-2.8575-2.3205-4.4911-2.9965-.8488 1.4885-.6769 3.5767-.2835 5.0994.2636 1.0204.6294 1.5607.6705 1.8828.0237.185-.1201.239-.1201.239-1.8493-1.8747-2.4226-4.1401-2.3354-6.0467.0913-1.9941 1.0184-3.9413 2.335-5.258l6.359-6.359c1.5588-1.5583 3.6049-2.3369 5.6521-2.3369 2.0466 0 4.0943.7796 5.6525 2.3369 3.1166 3.1166 3.1166 8.1885 0 11.3051l-6.3585 6.359c-.4229.4227-.884.7829-1.369 1.091.5997 2.0543.7921 4.2171.5556 6.3648 1.8431-.6769 3.5753-1.7398 5.0526-3.2171l6.3585-6.359h-.0005c5.4545-5.4536 5.4545-14.3291.0001-19.7826z"/></svg>