<svg height="64" viewBox="0 0 64 64" width="64" xmlns="http://www.w3.org/2000/svg"><path d="m0 0h64v64h-64z" fill="none"/><path d="m56.6799 20.7568c-.6652 2.8513-1.3398 6.6763-1.8404 9.7318.4058.1675.8004.4033 1.1742.7226 2.1583 1.8433 2.384 4.8245.7005 7.8059-3.8063 6.7406-7.9808 9.7905-8.8528 10.42-.2504.1807-.3872.1325-.4842.0413-.0002-.0018-.0017-.0143-.0017-.0143 3.79-4.2266 5.7974-7.1296 7.5137-11.1797 1.302-3.0728.6015-4.9219-.5143-5.589-1.0902-.6522-2.2183-.2977-3.3542 1.3806-3.8644 5.7094-6.6564 8.7136-10.5238 13.2587-2.6877 3.1588-4.5248 7.0773-4.4868 11.0805.0241 2.5467.1862 3.9399.2881 4.5749h13.4996l1.1437-6.4998c.1595-.9066.5661-1.7512 1.1749-2.4414l7.3868-7.4788c1.5349-1.7396 2.417-3.9587 2.4956-6.2773l.0012-24.1752s-3.9382-1.285-5.3201 4.6392z"/><path d="m12.9794 34.0759c-1.1359-1.6783-2.264-2.0327-3.3542-1.3806-1.1158.6671-1.8163 2.5162-.5143 5.589 1.7162 4.0501 3.7236 6.9532 7.5137 11.1797 0 0-.0015.0125-.0017.0143-.097.0912-.2338.1394-.4842-.0413-.8719-.6295-5.0465-3.6794-8.8528-10.42-1.6835-2.9814-1.4578-5.9626.7005-7.8059.3738-.3193.7684-.5551 1.1742-.7226-.5006-3.0555-1.1752-6.8806-1.8404-9.7318-1.382-5.9241-5.3202-4.6391-5.3202-4.6391l.0012 24.175c.0786 2.3187.9608 4.5377 2.4956 6.2773l7.3868 7.4788c.6088.6902 1.0154 1.5349 1.1749 2.4414l1.1437 6.4998h13.4996c.102-.6349.264-2.0282.2881-4.5749.038-4.0032-1.7991-7.9217-4.4868-11.0805-3.8674-4.5451-6.6593-7.5493-10.5237-13.2586z"/><path d="m31.6506 11.192c2.236.3504 3.9156-.6496 4.7649-2.4747.4765.7163 1.3723 1.605 2.7675 1.268 2.0735-.5006 1.756-2.1088 4.3589-1.5363.2117.0464.3652-.1999.2176-.3585-.7601-.8173-2.4121-2.2636-4.4536-2.0868-1.1077.0958-1.8475.4109-2.348.7581.4007-3.1367-1.0349-5.0869-3.7495-5.5121-2.9371-.4603-4.846 1.3762-5.3108 4.3432-.4899 3.127.8908 5.1506 3.753 5.5991z"/><path d="m40.852 41.9183c1.5242-1.9806.467-3.7054-1.1467-5.4144-1.5983-1.6927-2.2131-2.3093-3.5462-3.6362h1.7722c.6091 0 1.0677-.5541.9539-1.1525l-2.1718-11.3778c2.2486 1.9159 4.1748 3.0173 6.4454 3.3241 2.3934.3234 4.4502-.0744 4.8412-2.2635-2.934-.5521-5.0938-1.3858-7.0098-2.5811-4.5458-2.8359-4.0668-4.6068-7.6-5.3915-3.8613-.8575-6.5756.8696-9.4767-4.3705-.99-1.7879-1.8213-4.3602-2.56-8.0549-2.0903.5551-2.8822 2.4113-2.3647 4.8694.9435 4.4818 2.489 8.7692 6.5731 11.3857-1.0566 3.1331-2.8383 8.8965-3.7315 14.537-.0929.5862.3688 1.0658.9623 1.0658h2.2411c-.2014 1.324-.3279 2.4676-.3663 2.7451-.1295.9374.0069 1.5734.2357 2.2806.7318 2.262 2.3912 6.8749 2.9975 8.6179l.0023-.0008c2.32-.8069 2.9863-2.4362 2.3223-5.1752-.664-2.7391-1.1764-4.9013-1.1764-4.9013l1.0873-3.5566h1.0039c.1556.953.2825 1.769.3239 2.0225.1082.6465.4769 1.2471 1.07 1.6321 7.7826 5.052 6.0283 3.9132 8.3162 5.3984z"/></svg>