<svg height="64" viewBox="0 0 64 64" width="64" xmlns="http://www.w3.org/2000/svg"><path d="m0 0h64v64h-64z" fill="none"/><path d="m61.0596 39.119c-.0792-.5466-.5866-.9254-1.1332-.8462l-2.9689.4305-.4305-2.9689c-.0793-.5466-.5866-.9254-1.1332-.8461l-1.1227.1628c.0397-.567-.0128-1.1997-.2066-1.9073-1.0125-3.6962-1.9485-5.6773-2.4819-8.2598-1.1807-5.7177-2.996-8.1662-6.2879-9.1794-1.5679-.4825-3.0627-.7045-4.7644-.7046h-.0606c-1.7018.0001-3.1966.2221-4.7644.7045-1.1634.3581-2.1257.9558-2.9282 1.813 1.4955.7565 2.3755 2.3436 2.3755 4.7175 0 2.9917-1.7054 5.0282-4.6526 5.0282-2.9462 0-4.6526-1.7869-4.6526-5.0282 0-2.249.8801-3.9982 2.5316-4.7812-1.6643-2.3076-4.3952-3.4538-8.8785-3.4538l-.0005.001v-.001c-1.6896 0-3.1119.1806-4.3304.5194-2.3299.5344-4.6582 1.6843-5.9125 4.1196-2.3817 4.6245-7.0771 18.7621-7.0771 18.7621.2955.2104.7969.2719 1.3794.2047.4132 4.2477 2.3898 24.5578 2.4828 25.304.0861.6901 2.4176.4621 2.3447-.2782-.0774-.7851-1.4595-20.3402-1.8813-26.3156.4688-.3973.859-.8784 1.0941-1.4368.9462-2.2473 1.9794-4.8003 2.6729-6.7523.8972-2.5249 1.4807-4.0414 2.2408-5.6684.1624-.3477.3164-.5583.4828-.4094l.0038-.0133v40.9642s4.8654.0391 5.2372-5.0498c0 0 .7277-19.2431.7359-19.457s.1675-.4932.5269-.4932.5083.2793.5165.4932.7308 19.3173.7308 19.3173c.2742 4.9745 4.7563 5.1807 5.2077 5.1889v-15.5791c-.9939 0-2.7936-.5713-2.9266-2.9201-.2926-5.1648-.1537-13.4298 2.9935-14.9727 1.9266-.9442 7.1199-.9442 9.2288-.0342 2.909 1.2558 2.8332 9.7483 2.8219 14.9643-.0051 2.3527-2.0388 2.9658-3.0321 2.9658v15.5743c.1434-.0233 3.7118-.6389 3.9595-4.2064 0 0 .8159-8.6949.9611-12.8555.5602-.0887.5874-.0983 1.0627-.1677.1423 4.0636.9762 12.9199.9762 12.9199.1888 3.7505 3.9844 4.312 3.9844 4.312l.0156-17.3022c1.7598.1674 2.9346.4532 2.9346.4532 0-8.8604-2.1483-12.3962-2.8839-15.1734-.3907-1.4758-.3087-3.0204.0468-4.4986.334-1.3894.7635-2.6836.0893-5.4301 0 0 .3034-.0376.7692.9863.8876 1.9509 1.0027 5.6902 3.9437 13.5046l-.4542.0659c-.5466.0793-.9254.5866-.8461 1.1332l.4305 2.9689-.0344.005c.2641 1.8021.439 3.9156.439 6.4385 0 .46-.2114.8936-.5728 1.1777-.3608.2852-.8345.3896-1.2803.2803-.0068-.002-.4097-.0977-1.083-.207l-.002 2.1604c.2018.3334.5896.5316.9995.4722l12.8655-1.8656c.5466-.0793.9254-.5866.8461-1.1332zm-9.0504.3018-.287-1.9792 2.9689-.4305.287 1.9793z"/><path d="m14.5401 6.0079c-.2658 3.9293 1.729 5.992 4.9599 5.992 3.1674 0 5-2.2184 5-5.4107 0-2.0757-.7797-5.994-2.8156-6.4351-2.3604-.5104-10.3796 3.2955-10.2044 4.7189.1072.87 1.7752 1.092 3.0601 1.1349z"/><path d="m40.5 13c3.1665 0 5-1.9516 5-5.411 0-3.2831-1.7505-5.589-5-5.589-3.0847 0-5 1.9509-5 5.589 0 3.1932 1.8323 5.411 5 5.411z"/></svg>