<svg enable-background="new 0 0 64 64" viewBox="0 0 64 64" xmlns="http://www.w3.org/2000/svg"><path d="m0 0h64v64h-64z" fill="none"/><path d="m41 34.79c-.161.564-.362 1.128-.618 1.612-.938 1.776-3.37 3.108-3.37 3.108s-.231 1.67-1.018 3.072c-.305.543-1.14.833-1.513 1.368-.674.965-.482 2.664-1.251 3.042-1.374.675-2.972.988-3.347.633-.525-.497-1.41-2.62-1.41-3.323v-5.072c0-.91-1.215-3.541-1.215-3.541s-3.151-.027-4.255-.027-2.582-1.108-2.582-1.108-.934-3.095 0-5.026c.935-1.931 2.15-2.128 2.15-2.128l4.927-.99 2.821 1.652 3.761.716 1.042 1.426 1.677 2.366 2.378 1.239 1.823-1.556v-1.071l-1.824.912-2.378-2.378-1.274-2.293s1.644-1.647 1.189-2.519c-.455-.873-3.026.548-3.534-.217s-.056-3.376-.056-3.376l-3.187-1.312s-.996-.019-.912.732c.094.844 2.412 2.181 2.225 2.556-.173.346-.75.094-.75.094l-.882 1.547-1.837-.414s1.397-.53 1.567-1.039c.17-.51-2.062-2.344-2.062-2.344l-1.244.281-.562 2.25-1.5 1.312-1.967-.015.175-1.09-.72-.02.938-2.43 1.931.161s.713-1.862.571-2.475c-.274-1.189-1.515-1.324-1.515-1.792 0-.469 1.336-.462 1.993-1.118.36-.36 1.253-1.573 1.988-2.596 5.821.604 10.804 4.005 13.628 8.822v-5.054c-3.84-4.209-9.353-6.867-15.5-6.867-11.598 0-21 9.402-21 21s9.402 21 21 21c4.29 0 8.276-1.293 11.601-3.501.354-2.955 1.719-5.695 3.899-7.773v-6.436zm-19.864-20.733c1.185-.297 2.414-.475 3.679-.523-.106.487-.498 2.108-1.098 2.268-.707.188-2.74-.984-2.74-.984zm-8.122 30.379c-2.707-2.614-4.588-6.064-5.242-9.932 2.113 1.472 5.242 4.048 5.242 6.407zm2.31-25.579s-2.517 3.281-4.276 5.057c-.671.678-1.611 1.224-2.521 1.651 1.51-4.303 4.597-7.866 8.58-9.975z"/><path d="m57 42.12v-33.281c0-3.806-3.122-6.902-6.96-6.902-3.888 0-7.04 3.126-7.04 6.981v33.206c-2.502 2.054-4 5.138-4 8.405 0 6.015 4.935 10.909 11 10.909 5.537 0 10.053-4.007 10.865-9.179.612-3.901-.883-7.709-3.865-10.139zm.353 11.63c-1.076 2.665-3.617 4.256-6.287 4.62-.613.083-.675-.071-.644-.241 2.922-1.191 4.864-3.974 4.864-7.148 0-2.58-1.298-4.858-3.286-6.265v-5.716h-3v-2h3v-5h-3v-2h3v-5h-3v-2h3v-5h-6v-9.065c0-2.173 1.791-3.935 4-3.935h.04c2.187 0 3.96 1.754 3.96 3.919v34.753c3.238 1.856 5.047 5.882 3.353 10.078z"/></svg>