<svg height="64" viewBox="0 0 64 64" width="64" xmlns="http://www.w3.org/2000/svg"><path d="m0 0h64v64h-64z" fill="none"/><path d="m61.2983 41.425c-.2416-1.1028-1.3997-2.0304-2.4983-2.0679-7.0433-.2286-13.9941-.3344-20.9418-.3427 1.2394 1.7294 1.7026 3.0672 1.814 3.4432.0732.2471.0086.3878-.1003.4311-.0137-.0176-.0278-.032-.0414-.0496-1.8187-2.9945-5.0549-4.8231-8.5304-4.8231-3.3987 0-6.667 1.7615-8.5254 4.8148-.0159.0204-.0323.0374-.0483.0579-.1089-.0433-.1735-.184-.1003-.4311.1087-.3668.5519-1.6491 1.7238-3.3172-2.9407.0574-5.8831.1204-8.8499.2167-1.0982.0374-2.2567.965-2.4982 2.0679-.9356 4.3333-.9356 8.6666 0 13 .2418 1.1027 1.3998 2.0303 2.4982 2.0679.9387.0305 1.8644.0417 2.8.0682v1.4389c0 .5523.4477 1 1 1h4c.5523 0 1-.4477 1-1v-1.2927c.7374.0144 1.4826.0421 2.2189.0541 1.4208.7784 3.0499 1.2225 4.7811 1.2225 1.6702 0 3.2429-.4172 4.6277-1.1453 4.78.0099 9.5685-.0474 14.3723-.1385v1.2999c0 .5523.4477 1 1 1h4c.5523 0 1-.4477 1-1v-1.4412c.9359-.0263 1.8611-.0355 2.8-.0659 1.0985-.0374 2.2566-.9651 2.4983-2.0679.9356-4.3334.9356-8.6667 0-13zm-30.2983 13.075c-3.5842 0-6.5-2.9158-6.5-6.5s2.9158-6.5 6.5-6.5 6.5 2.9158 6.5 6.5-2.9158 6.5-6.5 6.5zm22.5-.5c-1.3807 0-2.5-1.1193-2.5-2.5s1.1193-2.5 2.5-2.5 2.5 1.1193 2.5 2.5-1.1193 2.5-2.5 2.5zm2.5-8h-9v-1h9zm0-3h-9v-1h9z"/><path d="m23.4377 22.092c1.0723.8868 4.5525 4.4627 5.4011 13.957 1.3005-.2294 2.6373-.2493 3.9446-.0611-.0536-.6429-.1152-1.27-.1898-1.8699 1.2348-1.6494 5.0525-7.4806 4.261-15.6614-.3925-4.062-2.2681-6.0813-3.772-7.0679-3.2977-2.1638-7.3367-1.2211-8.3735-.9219-.917-1.9954-4.0132-3.4668-7.7091-3.4668-3.1544 0-5.8699 1.0729-7.1699 2.6273l5.8632 1.0086c.3669.1018.3132.3079.2891.3641-1.8383 0-10.7534 0-12.4182 0-.5305 0-.7322.6943-.2819.9748 1.3364.8325 3.1487 2.0408 4.0353 2.98 1.2414 1.3151 1.5792 3.3975 1.6592 4.082-2.3889 2.0447-7.8842 8.6548-6.8061 25.655.0933 1.4739.7964 2.8376 1.8813 3.6494 1.3038.974 3.2801 1.6694 5.8602 2.1027-.1064-1.3732-.1339-2.7479-.0663-4.1213-2.087-.418-3.067-.959-3.4828-1.2697-.1128-.0846-.2432-.3162-.2627-.6259-1.0081-15.9039 4.1184-21.2241 5.4616-22.335l.1969-.1893h11.4819zm2.5623-7.0918c.8508-.2411 3.0945-.5656 4.4893.3602.916.6086 1.4666 1.8045 1.6358 3.5535.3129 3.2358-.3046 6.028-1.105 8.1564-1.5816-4.5859-3.7507-6.9731-5.02-8.0533v-4.0168z"/></svg>