<svg enable-background="new 0 0 64 64" height="64" viewBox="0 0 64 64" width="64" xmlns="http://www.w3.org/2000/svg"><path d="m0 0h64v64h-64z" fill="none"/><path d="m19 16.9c.6 5.1 1.5 11.2 2.8 17.1h26.4c1.3-5.9 2.2-12 2.8-17.1 1.7-.4 3-2 3-3.9 0-2.2-1.8-4-4-4s-4 1.8-4 4c0 1.4.7 2.7 1.9 3.4-1.9 4.9-4.2 9.2-6 8.7-2.5-.7-4.3-7.4-5.5-13.4 1.5-.6 2.5-2 2.5-3.7 0-2.2-1.8-4-4-4s-4 1.8-4 4c0 1.7 1.1 3.1 2.5 3.7-1.1 6-3 12.7-5.5 13.4-1.8.5-4-3.9-6-8.7 1.1-.7 1.9-2 1.9-3.4 0-2.2-1.8-4-4-4s-4 1.8-4 4c.2 1.9 1.5 3.4 3.2 3.9zm33.2 27.9c-2.8 1-6.4 2.4-9.2 3.6.1.4.1.9 0 1.4-.4 2.8-2.8 4.6-6.2 4.7-7.7.4-12.5-1.6-13.5-2-.3-.1-.3-.3-.3-.4 5.6 1 9.1 1.1 13.5.4 3.3-.5 4.5-2.1 4.5-3.4s-.9-2-3-2.1c-7-.2-11-1-16.9-1.8-4.1-.6-8.1.5-11.4 2.6-3.2 2-4 3-4 3l5.8 11.1 7.5-3c.9-.3 1.8-.5 2.7-.3l10.3 2.3c2.3.4 4.6-.1 6.6-1.2l20.4-12.9s-1-4-6.8-2zm-6.1-2.8c.6-1.9 1.2-3.9 1.7-6h-25.5c.5 2.1 1 4.1 1.7 6z"/></svg>