<svg height="64" viewBox="0 0 64 64" width="64" xmlns="http://www.w3.org/2000/svg"><path d="m0 0h64v64h-64z" fill="none"/><path d="m57.0864 24.7485c-1.6602-2.2161-4.7861-3.2549-9.5042-3.1483.3103.8843.3855 1.5891.3711 2.0934-.0175.613-.246.5604-.3519.5372 0 0-.0646-.2497-.16-.5342-.4117-1.2288-1.0681-2.2276-1.9961-2.9856-1.9926-1.6269-4.9651-1.9348-9.0175-.9274-.2338-1.4517-1.1569-2.6597-2.4278-3.295v-2.4886h3v-4h-3v-3h-4v3h-3v4h3v2.4885c-1.271.6354-2.1942 1.8436-2.4278 3.2953-4.0535-1.0077-7.0258-.6999-9.0175.9271-.8514.6954-1.4742 1.5935-1.8891 2.6859-.1668.439-.267.834-.267.834-.106.0233-.3344.0758-.3519-.5372-.0144-.5043.0607-1.2086.3707-2.0925-4.7183-.1057-7.8433.9321-9.5038 3.1473-1.6777 2.2393-1.6631 5.4287.0439 9.479 2.3359 5.5459 5.0579 7.8642 5.7148 11.8055-.9478.1572-1.6723.9747-1.6723 1.9671 0 1.1046.8954 2 2 2 .1123 0 .2206-.0153.3279-.0331l.6721 4.0331h36l.6721-4.0331c.1073.0178.2156.0331.3279.0331 1.1046 0 2-.8954 2-2 0-.9924-.7245-1.8099-1.6723-1.967.6579-3.9471 3.3722-6.2436 5.7148-11.8055 1.707-4.0503 1.7217-7.2397.0439-9.479zm-42.4107 15.171c.7282-.7082 1.1099-1.933.8941-3.2526-.3099-1.8945-1.7169-3.2411-3.1427-3.0079-.4446.0727-.8298.3032-1.152.6259-.2631-.5322-.5077-1.0586-.7238-1.5715-.7769-1.8442-1.4971-4.3174-.5161-5.6265.512-.6834 1.9725-1.6682 6.1192-1.5947-.1944 1.5069-.1287 3.265.228 5.3207 1.3796 7.9484 3.9882 9.9078.9458 10.3714-1.5622.2381-2.5596-1.1317-2.6525-1.2648zm3.3243 10.2305c-1.1874 0-2.15-.9626-2.15-2.15s.9626-2.15 2.15-2.15 2.15.9626 2.15 2.15-.9626 2.15-2.15 2.15zm7 0c-1.1874 0-2.15-.9626-2.15-2.15s.9626-2.15 2.15-2.15 2.15.9626 2.15 2.15-.9626 2.15-2.15 2.15zm1.2174-10.3205c-2.6782.4379-3.9367-2.3783-3.9647-2.4418 1.3281-.4067 2.2562-1.9046 2.1497-3.6285-.1212-1.962-1.5358-3.4711-3.1595-3.3708-.3292.0203-.6352.1199-.9232.2587-.3802-1.9989-.8722-5.6302.7018-6.9151.7415-.6056 2.7498-1.267 7.9785.549v4.0826c-1.1841.2708-2.2541 1.3545-2.2541 3.0955 0 2.9783 3.0542 3.6705 3.0542 5.5779 0 1.5826-1.0179 2.2909-3.5827 2.7925zm5.7826 10.3205c-1.1874 0-2.15-.9626-2.15-2.15s.9626-2.15 2.15-2.15 2.15.9626 2.15 2.15-.9626 2.15-2.15 2.15zm7 0c-1.1874 0-2.15-.9626-2.15-2.15s.9626-2.15 2.15-2.15 2.15.9626 2.15 2.15-.9626 2.15-2.15 2.15zm4.6803-19.503c-.288-.1389-.5941-.2384-.9232-.2587-1.6237-.1003-3.0383 1.4089-3.1595 3.3708-.1064 1.7239.8216 3.2218 2.1497 3.6285-.028.0635-1.2869 2.8807-3.9661 2.4417-.0189-.0031-.0463.0135-.0677.0159-2.4005-.4304-3.5173-1.2479-3.5173-2.8083 0-1.9075 3.0542-2.5997 3.0542-5.5779 0-1.739-1.0675-2.8218-2.2504-3.0943v-4.084c5.2288-1.8165 7.2374-1.1539 7.9785-.5487 1.5739 1.2847 1.082 4.9162.7018 6.915zm2.3197 19.503c-1.1874 0-2.15-.9626-2.15-2.15s.9626-2.15 2.15-2.15 2.15.9626 2.15 2.15-.9626 2.15-2.15 2.15zm7.4487-17.4361c-.2161.5128-.4606 1.039-.7236 1.5711-.3222-.3228-.7075-.5532-1.1522-.626-1.4258-.2332-2.8328 1.1135-3.1427 3.0079-.2158 1.3195.1659 2.5444.8941 3.2526-.0929.1331-1.0903 1.5029-2.6525 1.2649-3.0427-.4636-.4334-2.4256.9458-10.3714.3566-2.0557.4224-3.8137.228-5.3205 4.149-.0735 5.6075.9113 6.1191 1.5944.9811 1.3091.2609 3.7822-.516 5.627z"/></svg>