<svg height="48" width="48" xmlns="http://www.w3.org/2000/svg"><path d="m35.375 8.426-11.355 10.058-11.352-10.058a3.09 3.09 0 0 0 -4.16.063c-1.09 1.16-1.117 2.965-.059 4.156l10.055 11.355-10.055 11.355c-1.059 1.191-1.031 2.996.059 4.156a3.09 3.09 0 0 0 4.16.063l11.352-10.058 11.355 10.059c1.191 1.055 2.996 1.031 4.156-.062a3.08 3.08 0 0 0 .063-4.156l-10.055-11.357 10.055-11.355a3.08 3.08 0 0 0 -.062-4.156c-1.16-1.094-2.965-1.117-4.156-.062zm-11.355 15.601-.028-.027.027-.027.016.012.016.016-.016.016zm0 0"/></svg>