<svg height="64" viewBox="0 0 64 64" width="64" xmlns="http://www.w3.org/2000/svg"><path d="m0 0h64v64h-64z" fill="none"/><path d="m32 8c-13.2548 0-24 10.7452-24 24s10.7452 24 24 24 24-10.7452 24-24-10.7452-24-24-24zm8 18.76c1.7894 0 3.24 1.4506 3.24 3.24 0 1.7893-1.4506 3.24-3.24 3.24s-3.24-1.4507-3.24-3.24c0-1.7894 1.4506-3.24 3.24-3.24zm-16 0c1.7894 0 3.24 1.4506 3.24 3.24 0 1.7893-1.4506 3.24-3.24 3.24s-3.24-1.4507-3.24-3.24c0-1.7894 1.4506-3.24 3.24-3.24zm20.1929 13.2932c-1.9299 4.0021-6.6612 8.0753-12.1929 8.0753-5.5318 0-10.2632-4.0733-12.193-8.0755-.226-.4688.3179-.9471.7492-.656 2.9267 1.9759 6.9723 3.5815 11.4438 3.5815s8.5171-1.6055 11.4438-3.5813c.4313-.2912.9752.1872.7491.656z"/></svg>