<svg height="64" viewBox="0 0 64 64" width="64" xmlns="http://www.w3.org/2000/svg"><path d="m0 0h64v64h-64z" fill="none"/><path d="m52.23 44.7586c-2.7689.9518-6.3675 2.413-9.2219 3.6127.0737.4328.0837.8923.0119 1.3787-.4146 2.8079-2.82 4.5833-6.2403 4.7416-7.7327.3578-12.5347-1.5577-13.5313-1.9618-.2862-.1161-.318-.2576-.2923-.3882.0015-.0012.0111-.0091.0111-.0091 5.5945.9645 9.1205 1.1222 13.4634.4237 3.295-.53 4.489-2.106 4.4613-3.4058-.027-1.2701-.9267-2.0373-2.9519-2.1077-6.8902-.2395-10.9187-1.0081-16.8242-1.8688-4.1042-.5981-8.0618.4671-11.4327 2.6266-3.1634 2.0265-4.0402 2.9852-4.0402 2.9852l5.7857 11.1429 7.4819-3.0415c.8526-.3466 1.7844-.4511 2.6926-.3021l10.2607 2.283c2.2892.3757 4.6379-.0563 6.6438-1.2219l20.4795-12.8461s-1.0043-4.019-6.7571-2.0414z"/><path d="m14 34h2v8h4v-8h28v8h4v-8h2c.5523 0 1-.4478 1-1v-17.5c0-1.1046-.8954-1.5-2-1.5s-2 .3954-2 1.5v10.5h-34v-6.5c0-1.1046-.8954-1.5-2-1.5s-2 .3954-2 1.5v13.5c0 .5522.4477 1 1 1z"/><path d="m30.9775 17.8635.9326.1052c-.0835-2.0388-.2418-4.1509-.5417-4.8634-.5714-1.3572-1.7368-2.1053-3.8684-2.1053s-3.297.7481-3.8684 2.1052c-.364.8646-.5201 3.8849-.5858 6.1119 1.8677-.4388 4.0921-.9423 5.2823-1.2101.8662-.1943 1.7647-.2446 2.6494-.1435z"/><path d="m47.99 19s.1767-1.8889-1.365-2.52c-1.8912-.7742-4.0438-.2667-5.4725.9871-1.4302 1.2551-3.09 3.4079-3.09 3.4079l-7.31-.8245c-.6649-.075-1.3322-.0395-1.985.1075-2.0156.4539-6.5445 1.4814-7.9232 1.8574-1.5502.4229-1.8443 1.3033-1.8443 1.9846h24s1.6775-4 4.99-5z"/><path d="m27.5089 9.8986c1.6606 0 2.6212-1.1694 2.6212-2.8523 0-1.918-1.0042-2.9463-2.6212-2.9463-1.7034 0-2.6211 1.2156-2.6211 2.9463 0 1.8234.9608 2.8523 2.6211 2.8523z"/><path d="m45.3362 14.8157c1.6191.3687 2.8154-.5583 3.189-2.1991.4258-1.8702-.325-3.0957-1.9016-3.4548-1.6609-.3782-2.8256.6033-3.2099 2.2908-.4048 1.7779.3037 2.9944 1.9225 3.3631z"/></svg>