<svg height="64" viewBox="0 0 64 64" width="64" xmlns="http://www.w3.org/2000/svg"><path d="m0 0h64v64h-64z" fill="none"/><path d="m34.2002 11.689c2.9871.4903 5.0589-1.3174 5.5532-4.3296.5634-3.4307-.9413-5.567-3.8504-6.0449-3.0645-.5028-5.0724 1.4013-5.5804 4.4973-.5357 3.2628.8911 5.3869 3.8776 5.8772z"/><path d="m41.3459 47.2096c-.8951-2.7269-1.016-2.7699-1.5951-3.7217-.6775-1.1134-1.3194-1.9691-1.9498-2.8424-1.3216-1.7959-2.694-3.5524-4.0899-5.2991.5536-2.9043 1.362-6.4941 2.1189-9.7022.3231 1.0061.6906 2.0533 1.2523 3.1833.6809 1.3301 2.9375 3.379 3.9658 4.4628 2.4875 2.6215 5.1064 1.4784 5.6416 1.198-.9475-1.2669-3.2836-3.9536-3.9196-4.736-.4979-.6125-1.6885-2.0238-2.0126-2.74-.4429-.9557-.8034-2.2042-1.1187-3.3315-.1473-.5267-1.6454-6.7141-1.8753-7.0479-.8086-2.0168-6.9005-4.8286-10.506-2.6802-1.9836 1.1821-5.7143 3.9563-7.6051 6.0283-1.1489 1.2747-1.613 2.0419-2.1057 4.8385-.3 1.7635-.4926 3.8031-.5282 5.5777-.0396 1.9717 1.0039 3.8375 3.0701 4.2678.4451-3.3688 1.1487-8.403 2.228-10.5869.4394-.889 2.4294-2.2172 3.2609-2.7575-.5286 2.4518-2.3518 10.6284-2.3518 12.5007 0 2.3155 1.4959 3.518 2.451 4.5186l3.7332 3.9111s-.1386.2378-.4566.0537c-1.6328-.9453-3.7839-2.1867-3.7839-2.1867-.5365 2.0231-1.4125 5.3192-2.1817 7.2795-.6125 1.5609-.4012 1.1174-.9948 2.1323-1.201 2.0535-2.751 4.1289-4.0837 6.4602-2.1913 3.8334.4587 6.6486.8304 7.0083 2.1536-3.0253 5.8659-7.4979 7.9595-10.6465.7007-1.0398.778-1.1244 1.5663-2.6381.5991-1.2116 1.4144-2.9511 2.5855-5.852.5137.4693 1.0105.9995 1.524 1.5161 1.2635 1.2713 2.0442 1.8894 2.5422 2.8286.1504.2837.464.9289.7798 1.7426 1.9283 4.9677 3.47 7.8597 4.3236 9.8959 1.2834 3.0612 4.8486 3.3615 5.8486 3.0583-.9838-3.8884-3.2564-11.8343-4.5232-15.6936z"/></svg>