<svg height="64" viewBox="0 0 64 64" width="64" xmlns="http://www.w3.org/2000/svg"><path d="m0 0h64v64h-64z" fill="none"/><path d="m52.6145 44.0532c-2.1833-2.3746-8.4619-4.4866-11.386-5.3733-.155-1.1155-.3613-2.4073-.5466-3.4836 1.7887-2.1667 2.8875-4.4047 3.2495-6.6968 1.3281-1.2195 2.0679-3.1657 2.0679-5.5557 0-.7447.0012-2.7025-1.2267-4.0366.3036-3.3378.5048-8.5034-.7971-10.587-1.6027-2.5649-3.5397-3.8159-7.2531-2.9775-2.4354-1.1577-4.0936-1.8823-8.3608-.8398-2.9648.7241-6.21 1.9067-7.9199 3.8798-1.652 1.9066-1.5393 7.2237-1.2742 10.6054-1.1588 1.332-1.1633 3.2256-1.1633 3.9557 0 2.386.7374 4.3299 2.0614 5.5497.382 2.5118 1.6129 4.9141 3.7106 7.2619-.1061.807-.2284 1.7498-.353 2.7313-2.5129.7345-9.6714 2.9969-12.0342 5.5665-2.8735 3.124-4.3872 14.8896-4.3872 14.8896h50c-.0001.0001-1.5138-11.7656-4.3873-14.8896zm-28.6128-25.051v-2.8065c2.0731-.1505 6.1937-.7531 10.75-3.1062l5.25 3.5262v2.3848c1.533-.7658 2.4269.2852 2.4269.2852-.7274-.4156-1.7452.2936-2.2504.7143h-8.1782-8.1781c-.5052-.4207-1.5236-1.1297-2.2505-.7143 0 0 .8954-1.0527 2.4303-.2835zm14.4212 2.7976-.2808 2.1081c-.0223.1673-.165.2923-.3339.2923h-2.7213c-.1665 0-.3162-.1013-.3782-.2559l-.8589-2.1445zm-8.2764 0-.8545 2.1426c-.062.1556-.2128.2578-.3804.2578h-2.7198c-.1688 0-.3116-.1251-.3339-.2925l-.2808-2.1079zm2.4148 19.2002c-2.6814 0-5.0081-.8011-6.1838-1.9763.0692-.5047.1691-1.0721.67-4.2006-2.2767-2.1999-4.1044-4.8665-4.1044-8.061-1.6177-.5039-2.0414-2.5454-2.0414-3.8183 0-1.2725.3217-1.961.7738-2.1743.3335-.1569.6523-.0792.8899.0308l1.3295 2.0015.1949 1.4643c.1324.9926.9788 1.7339 1.9801 1.7339h2.8431c.9048 0 1.7178-.5521 2.0518-1.3929l.5115-1.2883c.1882-.474.8591-.474 1.0474 0l.5115 1.2882c.3338.8409 1.1469 1.393 2.0517 1.393h2.8431c1.0013 0 1.8478-.7413 1.9801-1.7338l.1949-1.4643 1.3287-2.0002c.2379-.1108.5588-.1898.894-.0321.4521.2133.7739.9018.7739 2.1743 0 1.2729-.4238 3.3144-2.0415 3.8183 0 3.7027-2.5334 6.4959-5.3403 8.8846-.7806.6644-2.2498 1.1066-3.7188 1.1055-1.0627-.0008-2.1255-.2865-2.927-.6349.6138.9305 1.6553 2.0744 3.5847 2.5851 3.1548.8349 5.4595-.9139 5.4595-.9139s.1289.8764.2101 1.5996c-1.262.973-3.3732 1.6118-5.767 1.6118z"/></svg>