<svg enable-background="new 0 0 64 64" height="64" viewBox="0 0 64 64" width="64" xmlns="http://www.w3.org/2000/svg"><path d="m0 0h64v64h-64z" fill="none"/><path d="m35.7 34.7c5-5 13.2-5.1 18.3-.3v-18.5c0-1-.8-1.8-1.8-1.8h-26.3v-1.2c0-1-.8-1.8-1.8-1.8h-14.1c-1 0-1.8.8-1.8 1.8v4.1s35.9 2.3 37 2.5c.8.1.7.5.6.6h-42.6c-1.2 0-2 1.1-1.8 2.2l6.4 27.3c.3 1.1 1.1 1.4 2.2 1.4h23.8c-3.2-5.1-2.6-11.9 1.9-16.3z"/><path d="m62.4 57.3-8.2-7.3c2.7-4.3 2.3-10-1.5-13.7-4.3-4.3-11.3-4.3-15.6 0s-4.3 11.3 0 15.6c3.9 3.6 9.6 4.1 13.9 1.3l7.4 8.2c1 1.1 2.7.9 3.8-.2 1.2-1.2 1.4-2.8.2-3.9zm-12.4-8.3c-2.8 2.8-7.3 2.8-10 0-2.8-2.8-2.8-7.3 0-10 2.8-2.8 7.3-2.8 10 0 2.8 2.8 2.8 7.2 0 10z"/></svg>