<svg height="64" viewBox="0 0 64 64" width="64" xmlns="http://www.w3.org/2000/svg"><path d="m0 0h64v64h-64z" fill="none"/><path d="m50 46.834v2.166h4v-2.166c-.6277.1064-1.2957.166-2 .166s-1.3723-.0596-2-.166z"/><path d="m59 27.0975v15.47c0 1.6044-1.1489 2.9339-3 3.7059v2.7266h6v-20z"/><path d="m52 45c2.7614 0 5-1.0891 5-2.4324v-25.1352c0-1.3434-2.2386-2.4324-5-2.4324s-5 1.089-5 2.4324v25.1352c0 1.3433 2.2386 2.4324 5 2.4324z"/><path d="m45 42.5676v-24.3481l-3.5-2.2195h-13.8546l11.4521 9.9159c.2168.2529-.0398.5909-.087.6278l-16.5112-10.5433-20.4993 12.9996v20h14v-8h15v8h17v-2.7265c-1.8511-.772-3-2.1016-3-3.7059zm-32 2.4324h-8v-4h8z"/></svg>