<svg enable-background="new 0 0 64 64" viewBox="0 0 64 64" xmlns="http://www.w3.org/2000/svg"><path d="m55.2511 47.6015-20.7109-20.5886c-2.6676 2.9836-5.122 3.8728-5.6346 4.0356-.2253.0717-.3549.0149-.3966-.0837.4783-.3858.9556-.7986 1.4305-1.269 5.3222-5.278 5.2414-10.8613.741-15.4003-2.8612-2.8863-6.1546-3.9796-9.5411-3.0484-.553.1527-.7606.8378-.3927 1.2793 1.1974 1.4387 2.3498 2.8555 2.8922 3.61.8044 1.1182 2.2741 3.1933.8914 4.5648l-4.0758 4.0396c-1.3826 1.3717-3.2963-.2225-4.4064-1.0341-.7199-.526-1.989-1.6797-3.2888-2.9107-.4385-.4148-1.1808-.2127-1.3182.3745-.7535 3.2293.3469 6.3772 3.0886 9.1396 3.3148 3.3446 7.2179 4.2819 11.1721 2.4402l22.2247 22.1143c1.9338 1.9501 4.2312.826 6.1737-1.1015 1.9421-1.9232 3.0852-4.2111 1.1509-6.1616z"/><path d="m17.9988 19.1186c.3351-.0745.6935-.4034.7965-.7309l1.3039-4.1457c.103-.3275-.0026-.8023-.2347-1.0552l-2.9384-3.202c-.2321-.253-.6961-.3989-1.0312-.3244l-4.2423.9436c-.3351.0745-.6935.4034-.7965.7309l-1.3039 4.1458c-.103.3275.0026.8023.2347 1.0552l2.9384 3.202c.2321.2529.6961.3989 1.0312.3243zm-3.6168-6.6187c1.2946-.2879 2.5776.5281 2.8656 1.8228.288 1.2946-.5281 2.5776-1.8227 2.8656s-2.5776-.5281-2.8656-1.8227c-.288-1.2948.5281-2.5777 1.8227-2.8657z"/></svg>