<svg height="64" viewBox="0 0 64 64" width="64" xmlns="http://www.w3.org/2000/svg"><path d="m0 0h64v64h-64z" fill="none"/><path d="m11.4481 33.8164c2.5615 4.577 6.728 8.1836 15.5519 8.1836h10c12.6667 0 22.97-.1223 22.97-4.9936 0-3.1268-5.4124-6.2495-8.5643-7.8033.9291-1.5807 2.4211-4.5247.9725-5.0317-2.1949-.7682-6.9921 2.2094-9.7981 4.9282-.1173-.0674-.1679-.2387-.0438-.509.2095-.4566 1.0859-2.1876 3.2134-4.2249-5.2369-5.1365-15.8662-13.0004-27.7729-7.2701-6.254 3.0098-8.7344 8.2892-7.8108 13.2141-3.6372 1.4791-7.73 4.7385-7.0562 10.5458.2622 2.2598 1.3784 4.1553 3.3179 5.6338 7.7624 5.9169 22.5465.8377 27.9531 7.3862.2185.2646.6554.0754.6168-.2656-.3067-2.7105-2.3212-4.3598-4.9666-5.3352-5.9015-2.1758-12.5866-.7746-19.0348-3.4902-2.2407-.9436-3.8551-2.4245-4.0828-4.3899-.4154-3.5788 2.3941-5.5838 4.5347-6.5782zm40.0519-.8164c.8284 0 1.5.6716 1.5 1.5s-.6716 1.5-1.5 1.5-1.5-.6716-1.5-1.5.6716-1.5 1.5-1.5z"/></svg>