<svg enable-background="new 0 0 64 64" viewBox="0 0 64 64" xmlns="http://www.w3.org/2000/svg"><path d="m0 0h64v64h-64z" fill="none"/><path d="m30.134 45.715c1.473-1.553 4.628-2.813 7.544-3.715h-31.678v-26h35v3.708c.538-.206 1.113-.396 1.738-.566.861-.235 1.6-.322 2.262-.327v-4.815c0-1.105-.896-2-2-2h-39c-1.104 0-2 .895-2 2v30c0 1.105.896 2 2 2h25.898c.078-.096.154-.199.236-.285z"/><path d="m59.359 47.23c-1.497-1.577-6.127-2.976-8.195-3.541-.965-.264-1.115-1.243-1.218-2.243 1.313-1.467 2.288-3.24 2.618-5.582 1.256-.387 1.508-1.956 1.508-2.934 0-.977-.172-1.507-.523-1.67-.169-.079-.335-.078-.482-.047.126-2.037.252-6.073-.597-7.589-.928-1.658-2.163-2.088-4.313-1.546-1.41-.748-2.371-1.488-4.842-.815-1.717.468-3.596 1.232-4.586 2.508-1.068 1.376-.862 5.39-.682 7.452-.159-.044-.346-.051-.535.037-.351.164-.523.693-.523 1.67 0 .978.251 2.546 1.508 2.934.297 2.471 1.289 4.185 2.615 5.613-.092.855-.183 1.681-.934 2.086-1.646.445-6.818 1.947-8.45 3.666-1.942 2.045-2.698 9.676-2.698 9.676h33c.001.001-.729-7.63-2.671-9.675z"/><path d="m29.344 25.524h-.002c-.357.134-1.027.396-1.627.693-.458.221-.875.461-1.083.681-.226.238-.373.662-.468 1.102h9.673c-.095-.44-.241-.864-.468-1.102-.209-.22-.625-.46-1.083-.681-.6-.297-1.27-.559-1.627-.693-.136-.051-.223-.177-.247-.321-.03-.179-.063-.443-.09-.667.905-.037 1.653-.126 1.964-.244.062-.023.093-.08.065-.14-.17-.371-.613-1.593-.668-2.23-.136-1.566-.131-4.367-2.276-3.664 0 0-1.362-.87-2.468.586-.778 1.024-.589 2.375-.62 3.128-.022.536-.46 1.772-.645 2.093-.039.068-.026.137.048.164.334.121 1.086.215 1.969.271-.025.224-.059.502-.099.704-.029.142-.112.269-.248.32z"/><path d="m20.501 26.543c-.488-.514-1.996-.969-2.669-1.153-.314-.086-.363-.405-.397-.73.428-.478.745-1.055.853-1.818.409-.126.491-.637.491-.956 0-.318-.056-.491-.171-.544-.055-.026-.109-.025-.157-.015.041-.663.082-1.978-.194-2.472-.302-.54-.704-.68-1.405-.503-.459-.244-.772-.485-1.577-.265-.559.152-1.171.401-1.494.817-.348.448-.281 1.756-.222 2.427-.052-.014-.113-.017-.174.012-.115.053-.171.226-.171.544 0 .319.082.829.491.956.097.805.42 1.363.852 1.828-.03.279-.06.547-.304.679-.536.145-2.22.634-2.752 1.194-.262.276-.456.863-.596 1.457h10.188c-.136-.595-.33-1.182-.592-1.458z"/><path d="m14.344 37.524h-.002c-.357.134-1.027.396-1.627.693-.458.221-.875.461-1.083.681-.226.238-.373.662-.468 1.102h9.673c-.095-.44-.241-.864-.468-1.102-.209-.22-.625-.46-1.083-.681-.6-.297-1.27-.559-1.627-.693-.136-.051-.223-.177-.247-.321-.03-.179-.063-.443-.09-.667.905-.037 1.653-.126 1.964-.244.062-.023.093-.08.065-.14-.17-.371-.613-1.593-.668-2.23-.136-1.566-.131-4.367-2.276-3.664 0 0-1.362-.87-2.468.586-.778 1.024-.589 2.375-.62 3.128-.022.536-.46 1.772-.645 2.093-.039.068-.026.137.048.164.334.121 1.086.215 1.969.271-.025.224-.059.502-.099.704-.029.142-.112.269-.248.32z"/><path d="m36.094 40c-.137-.594-.331-1.181-.593-1.457-.488-.514-1.996-.969-2.669-1.153-.314-.086-.363-.405-.397-.73.428-.478.745-1.055.853-1.818.409-.126.491-.637.491-.956 0-.318-.056-.491-.171-.544-.055-.026-.109-.025-.157-.015.041-.663.082-1.978-.194-2.472-.302-.54-.704-.68-1.405-.503-.459-.244-.772-.485-1.577-.265-.559.152-1.171.401-1.494.817-.348.448-.281 1.756-.222 2.427-.052-.014-.113-.017-.174.012-.115.053-.171.226-.171.544 0 .319.082.829.491.956.097.805.42 1.363.852 1.828-.03.279-.06.547-.304.679-.536.145-2.22.634-2.752 1.194-.262.276-.456.863-.596 1.457h10.189z"/></svg>