<svg height="64" viewBox="0 0 64 64" width="64" xmlns="http://www.w3.org/2000/svg"><path d="m0 0h64v64h-64z" fill="none"/><path d="m0 0h64v64h-64z" fill="none"/><path d="m31.2923 16.4386c-3.4218 1.3109-6.7587 6.7018-7.1548 9.0219-.1968 1.1526-.1882 1.7222.4205 2.0714 5.0517 2.8985 2.3284 6.855.6672 8.958-1.1901 1.5066-1.6566 3.0328.0522 4.172 1.2067.8045 4.2625.1609 6.0566-1.8014 3.2037-3.504 3.8915-8.6598-1.4667-14.284.0423-.0757.082-.1472.1251-.2251 3.0076-5.4347 6.8605-5.2544 6.227 1.7976-.0311.3433-.0541.5974-.0694.7655.0764.0969.28.2045.7812-.2481 1.36-1.2284 2.1287-3.5127 1.7566-5.754-.6012-3.6217-3.8407-5.8355-7.3955-4.4738z"/><path d="m48.4224 13.9855c-1.9645-4.2162-5.6122-7.3882-10.2703-8.9317-3.2418-1.0745-7.0635-1.3158-10.4812-.3961-5.3557 1.4412-11.9775 6.654-11.6346 14.4564.1888 4.298 2.0666 3.8923 2.3721 3.7975.5856-4.827 2.7475-8.9025 6.2239-11.3615 3.553-2.5128 8.1375-3.2857 11.9631-2.0178 3.35 1.1104 5.9565 3.5763 7.339 6.5438 1.5198 3.2601 1.483 7.2491-.1015 11.2318-.9252 2.3227-1.9684 4.441-2.9768 6.4896-2.1182 4.3036-3.8284 8.1902-3.8284 12.2324 0 3.5637-1.49 6.2504-4.0829 7.7706-2.6993 1.5822-6.5229 1.6842-9.0956.2456-3.5201-1.97-5.3909-7.9561-5.4633-12.8163-.4348-.1077-2.1702-.2772-2.3497 3.8122-.2541 5.7825 1.547 11.0412 5.396 13.1541 4.209 2.3104 9.8263 2.162 14.0166-.2953 4.1331-2.4233 6.4489-6.6995 6.4489-12.0405 0-2.8897 1.5543-6.1276 3.3998-9.8763 1.0016-2.0351 2.1367-4.3414 3.1343-6.8454 2.0944-5.2627 2.0905-10.644-.0094-15.1531z"/></svg>