<svg enable-background="new 0 0 64 64" viewBox="0 0 64 64" xmlns="http://www.w3.org/2000/svg"><path d="m0 0h64v64h-64z" fill="none"/><path d="m52.2 44.8c-2.8 1-6.4 2.4-9.2 3.6.1.4.1.9 0 1.4-.4 2.8-2.8 4.6-6.2 4.7-7.7.4-12.5-1.6-13.5-2-.3-.1-.3-.3-.3-.4 5.6 1 9.1 1.1 13.5.4 3.3-.5 4.5-2.1 4.5-3.4s-.9-2-3-2.1c-7-.2-11-1-16.9-1.8-4.1-.6-8.1.5-11.4 2.6-3.2 2-4 3-4 3l5.8 11.1 7.5-3c.9-.3 1.8-.5 2.7-.3l10.3 2.3c2.3.4 4.6-.1 6.6-1.2l20.4-12.9s-1-4-6.8-2z"/><path d="m19.8 35c1 .2 2 .3 3.2.4 0 0 2.3-2.6 2.4-2.7.2-.2.3-.1.3-.1l-2.1 7.5v.1c0 .2 0 .3.1.5.2.3.6.4.9.2l8-5.1h1.5c1.6 0 9.5 0 14.2-.8 1.6-.3 2.9-1.6 3.2-3.2.8-4.9.8-6 .8-10.9s0-6-.8-10.9c-.3-1.7-1.5-3-3.2-3.2-4.8-.8-12.7-.8-14.3-.8-1.6 0-9.5 0-14.2.8-1.6.3-2.9 1.6-3.2 3.2-.8 4.9-.8 6-.8 10.9s0 6 .8 10.9c.3 1.6 1.5 2.9 3.2 3.2z"/></svg>