<svg height="48" width="48" xmlns="http://www.w3.org/2000/svg"><path d="m44.398 9.449a.56.56 0 0 0 -.973 0l-1.727 2.477c-.598.75-1.574 2.098-2.773 1.426l-3.375-2.027c-1.125-.676-.527-2.324-.152-3.223.227-.602.75-1.727 1.352-2.926.148-.375-.074-.75-.449-.75-2.402-.074-4.426 1.273-5.852 3.676-2.699 4.574-.676 8.098 4.277 10.723 0 .074-.152.152-.375.152-.453-.078-2.176-.301-4.426-1.652l-4.8 8.175h8.25l3.449-5.852c2.926.527 5.402-.75 7.051-3.523 1.352-2.324 1.574-4.648.523-6.676zm-35.625 8.324 6.227-2.324s.148.152-.074.375l-2.625 2.176 2.773 7.5h7.199l-4.125-11.176 3.527-1.273c.375-.152.598-.602.449-.977l-2.324-6.301c-.152-.375-.602-.598-.977-.449l-12.897 4.727c-.152.074-.301.148-.375.375l-2.477 4.5c-.223.375 0 .898.375 1.051l4.801 1.797c.148.078.375.078.523 0zm22.125 20.551c1.051-.523 1.727-1.5 1.727-2.699s-.676-2.176-1.727-2.699-2.25-.301-3.148.449l-2.625 2.25 2.625 2.25c.898.75 2.102.898 3.148.449zm-15.222 0c1.051.527 2.25.301 3.148-.449l2.625-2.25-2.625-2.25c-.523-.449-1.199-.75-1.875-.75-1.5 0-2.926 1.125-2.926 2.926 0 1.273.602 2.25 1.652 2.773zm0 0"/><path d="m5.25 44.25h36v-17.25h-36zm9.449-13.5c1.949-.898 4.125-.602 5.699.824l2.852 2.477 2.852-2.477c1.574-1.348 3.824-1.648 5.699-.824 1.949.898 3.074 2.773 3.074 4.875s-1.199 3.977-3.074 4.875c-1.949.898-4.125.602-5.699-.824l-2.852-2.477-2.852 2.477a5.45 5.45 0 0 1 -3.449 1.273c-.75 0-1.5-.148-2.25-.523-1.949-.902-3.074-2.777-3.074-4.875s1.199-3.902 3.074-4.801zm0 0"/></svg>