<svg enable-background="new 0 0 64 64" height="64" viewBox="0 0 64 64" width="64" xmlns="http://www.w3.org/2000/svg"><path d="m0 0h64v64h-64z" fill="none"/><path d="m34.9 37.2c-.2-.7-.3-1.6-.3-1.6 2-2.2 3.5-4.9 4-8.5 1.9-.6 2.3-3 2.3-4.4 0-1.5-.3-2.3-.8-2.5-.3-.1-.5-.1-.7-.1.2-3.1.4-9.2-.9-11.5-1.4-2.5-3.3-3.2-6.5-2.3-2.2-1.2-3.6-2.3-7.4-1.3-2.6.7-5.4 1.9-6.9 3.8-1.6 2.1-1.3 8.2-1 11.3-.2-.1-.5-.1-.8.1-.5.2-.8 1-.8 2.5s.4 3.9 2.3 4.4c.6 5.1 3.2 8.1 6.3 10.7.8.7 2.3 1.1 3.9 1.1.1.3 0 .4-.6.6-.9.3-3.1.6-6.2-1 0 0 0 0-.1 0-.4.1-1.5.5-2.1.7-3.3 1-9.3 2.9-11.4 5.2-3.1 3-4.2 14.6-4.2 14.6h32v-11.9c0-1.5.8-2.8 2-3.5v-1.1c0-1.1.2-2.2.4-3.3-.3-.1-.6-.2-.9-.2-.8-.3-1.4-1-1.6-1.8z"/><path d="m61.9 46h-.6-.3v-3.5c0-5.8-4.7-10.5-10.5-10.5s-10.5 4.7-10.5 10.5v3.5h-.9c-.6 0-1.1.5-1.1 1.1v13.8c0 .6.4 1 .9 1.1 1.8.3 6.1 1 11.6 1s9.7-.6 11.6-1c.5-.1.9-.6.9-1.1v-13.8c0-.6-.5-1.1-1.1-1.1zm-9.9 8.6v3.4h-3v-3.4c-.7-.5-1.1-1.2-1.1-2.1 0-1.4 1.2-2.6 2.6-2.6s2.6 1.2 2.6 2.6c0 .9-.4 1.6-1.1 2.1zm4-8.6h-11v-3.5c0-3 2.5-5.5 5.5-5.5s5.5 2.5 5.5 5.5z"/></svg>