<svg height="64" viewBox="0 0 64 64" width="64" xmlns="http://www.w3.org/2000/svg"><path d="m0 0h64v64h-64z" fill="none"/><path d="m36.3531 36.6667c-.2289-.047-.4044-.2322-.4388-.4636-.0657-.4432-.1278-.8397-.176-1.1353 1.2929-1.3442 2.2632-2.9755 2.5779-5.1796 1.1228-.342 1.3474-1.7271 1.3474-2.5908 0-.8636-.1539-1.3307-.4677-1.4755-.2955-.1359-.5712-.0161-.7333.0826.1753-1.756.4331-5.4572-.3295-6.8264-.8154-1.4641-1.806-2.0487-3.6952-1.5702-1.239-.6608-2.0827-1.4954-4.2536-.9002-1.5084.4133-3.1595 1.1639-4.0292 2.2903-.9617 1.2451-.7484 5.1592-.5878 6.9907-.1659-.0947-.4257-.1951-.705-.0667-.3139.1448-.4677.6119-.4677 1.4755 0 .8637.2246 2.2488 1.3474 2.5908.281 2.3113 1.2601 3.871 2.5518 5.1759-.0648.3909-.1345.816-.1871 1.151-.0359.2289-.2095.4044-.4364.451-1.3849.2843-5.2533 1.2593-6.9802 3.0897-1.5829 1.6777-1.6901 5.8704-1.6901 8.2441h25.9999c.0049-2.4074-.1071-6.5664-1.6899-8.2441-1.7258-1.8292-5.5692-2.8041-6.9569-3.0892z"/><path d="m19.9061 36.022c0-1.9315 0-4.3581 0-4.3581l1.5645-.7974c.4272-.2783.5482-.8539.2693-1.2828l-2.7742-3.2184c-.0916-.4075.0591-1.1599 0-1.5042-.2984-1.7389-1.1716-3.663-1.1716-3.663.9444-1.8159.4831-3.4427-.938-4.3638-1.619-1.0493-7.3931-1.157-11.69 1.1985-4.5321 2.4846-4.0418 7.1283-3.2786 9.4538.8879 2.7054 3.4264 6.5411 3.6099 9.4328.0804 1.2678-.8466 5.0806-.8466 5.0806h9.988l-.0605-2.7046-2.4593-1.2781c-.1309-.0721-.0931-.1595-.0792-.1826 0 0 3.618.8009 5.05.9901 1.4375.1899 2.8163-1.0427 2.8163-2.8028z"/><path d="m62.1125 27.4865c.7632-2.3255 1.2535-6.9692-3.2786-9.4538-4.2969-2.3555-10.071-2.2479-11.69-1.1985-1.4211.9211-1.8824 2.5479-.938 4.3638 0 0-.8732 1.9241-1.1716 3.663-.0591.3444.0916 1.0967 0 1.5042l-2.7742 3.2184c-.2789.4289-.158 1.0046.2693 1.2828l1.5645.7974v4.3581c0 1.7601 1.3788 2.9927 2.8162 2.8028 1.4321-.1892 5.05-.9901 5.05-.9901.0139.0231.0517.1105-.0792.1826l-2.4593 1.2781-.0605 2.7047h9.988s-.9269-3.8128-.8465-5.0807c.1836-2.8917 2.722-6.7274 3.6099-9.4328z"/></svg>