<svg height="64" viewBox="0 0 64 64" width="64" xmlns="http://www.w3.org/2000/svg"><path d="m0 0h64v64h-64z" fill="none"/><path d="m20.806 17.5734c2.9905-.4567 4.3934-2.7669 3.922-5.712-.5374-3.3549-2.634-4.8783-5.5466-4.4333-3.0683.4686-4.3806 2.8483-3.8958 5.8758.511 3.1909 2.5302 4.7263 5.5204 4.2695z"/><path d="m43.759 31.7016c-2.6326-2.9884-3.6081-2.9044-7.3929-1.6617-2.0548.6925-4.2492 1.5825-6.3233 2.4658-1.5371-4.9909-3.1106-9.149-3.1106-9.149-2.3064-6.8041-11.071-4.5553-9.8025 1.7299.8804 4.3617 2.4109 10.4522 3.4614 13.9848.6816 2.2922 3.0954 3.7812 6.3635 3.2013 2.3733-.4211 10.3745-2.0522 10.3745-2.0522s2.3377 7.8052 3.7005 12.0452c1.3626 4.2393 4.7999 3.8283 5.7461 3.631l-3.8809-19.6209c.0497-.0648.2869-.0906.4169.2008.8165 1.8311 3.6483 7.7834 3.6483 7.7834s.4811.4508.8743.7775c3.6979 3.0714 5.36 1.4661 6.1656.8844-.6267-1-4.6858-7.7748-10.2409-14.2203z"/><path d="m34.292 42.7039c-.0049.001-3.2197.6387-7.6631 1.4512-3.7588.6924-7.1123-1.2988-7.9609-4.7285l-3.0489-12.3408c-.1963-.7935-1.0376-1.268-1.831-1.0717s-1.2774.9987-1.0812 1.7921l3.049 12.341c.5677 2.2924 1.8831 4.1422 3.652 5.3881l-3.4294 10.4647h3.1575l2.9963-9.143c.94.2834 1.9406.4387 2.983.4387.6709 0 1.3574-.0625 2.0537-.1895.3569-.0652.7026-.1288 1.0428-.1916l3.6244 9.0854h3.2305l-3.8488-9.6474c2.2435-.425 3.6581-.7053 3.6581-.7053.8125-.1611 1.3408-.9512 1.1797-1.7637s-.9463-1.3398-1.7637-1.1797z"/></svg>