<svg height="64" viewBox="0 0 64 64" width="64" xmlns="http://www.w3.org/2000/svg"><path d="m0 0h64v64h-64z" fill="none"/><path d="m34.1063 45.2269c.4095 3.0651 1.0858 6.0908 2.0255 9.0411.353 1.0923 1.585 1.7906 2.699 1.5757.3582-.0691.7163-.1382 1.0745-.2073-1.0837-2.3631-3.2686-7.6426-3.3134-7.7272-.3596-.6784-1.8869-2.0725-2.4856-2.6823z"/><path d="m56.6323 37.6497c-.353-1.0921-1.585-1.7908-2.699-1.5757-1.8231.3517-3.6162.7136-5.4395 1.0653l-.2146-1.0828c-.2357-1.1887-1.24-2.0514-2.3882-2.0514-.0143 0-.0284.004-.0428.0042-1.152-2.2132-2.6079-4.8737-2.8207-5.8915-.5306-2.4309-.3672-8.8236-1.0276-10.782-.5188-1.5386-2.0613-2.9538-3.4728-3.7407-2.3024-1.332-5.9178-2.0438-8.2694-.6425-1.9836 1.1821-5.7144 3.9563-7.6051 6.0283-1.1489 1.2746-1.6129 2.0419-2.1057 4.8385-.2999 1.7635-.7081 3.8054-.7438 5.58-.0256 1.2775.4106 2.5035 1.278 3.3304l-2.4449 6.5704-4.7039-1.9561c-1.313-.5459-2.8254-.0732-3.6003 1.1189-1.0154 1.5623-1.6633 2.2548-3.6221 7.1365-2.0803 4.8313-2.1144 5.779-2.5061 7.6006-.2988 1.3901.4326 2.7959 1.7456 3.3418l1.5481.6438s.5626-1.3502 1.8306-2.0921c1.4688-.8594 2.7588-.5764 3.2031-.4375.25.0781.3005.2791.2273.3698-1.0432-.1079-2.0024.2946-2.6907.9738-1.4552 1.4359-1.3835 3.6582-.0204 4.9972.6316.6205 1.4975 1.0031 2.4526 1.0031.9795 0 1.865-.4023 2.5002-1.0507.6185-.6313.9998-1.4957.9998-2.4493 0-1.1194-.5352-2.1047-1.353-2.7454.0015-.0037 8.2278-22.0975 8.2278-22.0975s.6252-6.2821 2.4421-10.579c.3862-.9134 2.4293-2.2172 3.2607-2.7575-.5286 2.4518-2.3518 10.6283-2.3518 12.5007 0 2.3154 1.496 3.518 2.4512 4.5186l3.733 3.9111s-.1385.2379-.4567.0537c-1.6328-.9453-3.7839-2.1867-3.7839-2.1867-1.0735 4.0485-1.9939 7.39-3.1764 9.4118-1.201 2.0535-2.7511 4.1289-4.0837 6.4602-2.1914 3.8334.4587 6.6486.8304 7.0083 2.1537-3.0253 5.866-7.4979 7.9595-10.6465 1.6306-2.4197 2.8508-5.2675 4.1519-8.4901.6649.6074 3.6041 3.4734 4.0662 4.3447.1504.2837.4639.9288.7798 1.7426 1.9282 4.9677 3.47 7.8597 4.3236 9.8959 1.2833 3.0612 4.8485 3.3614 5.8485 3.0583-.9835-3.8884-3.2561-11.8343-4.5229-15.6936-.895-2.7269-1.016-2.7699-1.5951-3.7217-1.3408-2.2036-4.4253-6.1215-6.0397-8.1415.2321-1.2172 1.0219-4.643 1.8441-8.2362.0941.933.2252 1.9084.4904 2.9809.325 1.251 2.5874 4.8499 3.271 5.7643-.793.5358-1.2314 1.546-1.025 2.5865l.095.479c1.6521 2.1993 2.1927 3.0519 2.809 4.0522.5344.8619.7607 1.2863 1.5757 3.7685.6764 2.0609 1.6147 5.2036 2.4957 8.2812 2.9429-.5678 5.8557-1.1456 8.7986-1.7134 1.1139-.2151 1.9977-1.3216 1.9191-2.4667-.3026-4.1426-1.0923-8.2352-2.3528-12.193zm-44.1323 22.3503c-.8284 0-1.5-.6716-1.5-1.5s.6716-1.5 1.5-1.5 1.5.6716 1.5 1.5-.6716 1.5-1.5 1.5zm30.9631-21.8901-.2095-1.0569c-.0559-.282.0703-.5446.2817-.5865l2.2979-.4556c.2332-.0465.4352.1873.4841.4347l.2128 1.0727c-1.0223.1972-2.0446.3944-3.067.5916z"/><path d="m39.1018 11.6224c2.8235 1.0916 5.2216-.2537 6.3223-3.1007 1.2539-3.2426.2185-5.6418-2.531-6.7053-2.8966-1.1198-5.252.3329-6.3831 3.2593-1.1926 3.084-.2309 5.4552 2.5918 6.5467z"/></svg>