<svg enable-background="new 0 0 64 64" height="64" viewBox="0 0 64 64" width="64" xmlns="http://www.w3.org/2000/svg"><path d="m0 0h64v64h-64z" fill="none"/><path d="m39.8 13.6c2.5 1.6 5.2.8 6.8-1.7 1.9-2.9 1.4-5.5-1.1-7.1-2.6-1.7-5.2-.8-6.9 1.9-1.8 2.7-1.3 5.3 1.2 6.9z"/><path d="m51.7 24.3c-3 .7-4.9 1.2-5.7 1.1-.7-.7-1.5-1.8-3.6-5.1-1.3-2-2.2-4.1-6.7-6.4-3.7-1.9-10.2-3.3-12.3-2.7-2.3.6-5.2 3.4-7 5.1-1.5 1.5-2 3.7-.8 5.4 1-.7 6.6-6.1 8.4-6.1.6.1 3.6.7 5.8 1.6-2.8 3.9-7.1 11-7.6 13.1-.9 4.2 2 6 4.9 7.8 0 0 0 .2-.4.2-.2 0-1.6-.2-3.3-.5-.8 1.9-2.8 6-3.8 7.7-.4.3-.9.6-1.3 1-.3-.4-1-.5-1.4-.2l-3.2 2.3c-1 .8-1.9.6-2.9.5-1.3-.2-3-.5-4.8 1.3s-2 4.5-.4 7.3c1 1.8 3.2 4.2 6.3 5.1h.3c.4 0 .8-.3 1-.7.1-.5-.2-1.1-.7-1.2-2.3-.6-4.2-2.5-5-4.1-1.1-2-1.1-3.8.1-4.9 1.1-1.1 1.9-1 3.1-.8 1 .1 2.1.3 3.4-.3-.1.8.1 1.6.7 2.2.8.9 2.2 1.2 3.5.4 1.9-1.1 3.5-2.1 4.5-2.9.9-.7 1.4-1.4 2.1-2.4 1.5-2.3 3.9-6.2 5.2-8.4 2.2.3 5 .6 6.1.8 0 .5-.1 1.2-.2 1.9-.5-.1-1 .3-1.1.9l-.5 3.9c-.2 1.3-.8 1.8-1.7 2.5-1.1.8-2.4 1.8-2.4 4.4 0 2.5 1.9 4.6 5 5.4.8.2 1.7.3 2.7.3 1.7 0 3.6-.4 5.2-1.3.5-.3.6-.9.4-1.4-.3-.5-.9-.6-1.4-.4-2 1.2-4.7 1.3-6.4.8-2.2-.6-3.5-1.9-3.5-3.5 0-1.5.6-2 1.6-2.8.8-.6 1.7-1.3 2.2-2.7.5.6 1.3 1 2.1 1 1.2 0 2.4-.8 2.7-2.3.4-2 .8-4.2 1.1-6.5.2-1.4 0-3.3-.6-4.4-.6-1-3-2.6-8.9-4 1.6-3.5 4.3-6.4 6.1-9 1.9 3 4.3 6 5.8 6.1 1.4.2 5.2-.7 7.3-1.3 2.3-.7 3.8-2.2 3.7-4.6-.7.2-2.5.6-3.7.8z"/></svg>