<svg enable-background="new 0 0 64 64" viewBox="0 0 64 64" xmlns="http://www.w3.org/2000/svg"><path d="m42.8187 16.9957c-1.0014 0-1.9401.1617-2.8055.4483-.0078.5473-.0132 1.1045-.0132 1.6811 0 .4983.0037.9836.0095 1.4603.7909-.4445 1.7386-.6927 2.8092-.6927 3.1635 0 5.2888 2.1256 5.2888 5.2893 0 1.0703-.2482 2.0178-.6924 2.8084.4766.0059.9618.0096 1.4598.0096.5767 0 1.134-.0054 1.6815-.0132.2865-.8652.448-1.8036.448-2.8047.0001-4.7436-3.4425-8.1864-8.1857-8.1864z"/><path d="m42.8187 10.9385c-.8448 0-1.6665.0699-2.4635.1978-.1078.9041-.1936 2.0118-.2535 3.284.8656-.2028 1.7711-.3215 2.717-.3215 6.3181 0 11.0826 4.7648 11.0826 11.0832 0 .9457-.1187 1.8509-.3214 2.7162 1.2723-.0599 2.3801-.1457 3.2839-.2535.1278-.7968.1977-1.6182.1977-2.4628.0002-8.12-6.123-14.2434-14.2428-14.2434z"/><path d="m43.8452 22h-34.6904c-1.19 0-2.1548.9647-2.1548 2.1548v26.6903c0 1.1901.9648 2.1549 2.1548 2.1549h34.6903c1.1901 0 2.1549-.9648 2.1549-2.1548v-26.6904c0-1.1901-.9648-2.1548-2.1548-2.1548zm-23.8452 28.3281-6.2429-3.0433v-.2523l6.2429-2.9383zm9.4152-2.9383-6.2429 2.9384v-6.2339l6.2429 3.0433zm6.5906 2.9701c-1.739 0-3.1487-1.4097-3.1487-3.1487s1.4097-3.1487 3.1487-3.1487 3.1487 1.4097 3.1487 3.1487-1.4097 3.1487-3.1487 3.1487zm4.9942-12.4339c0 1.1454-.9285 2.074-2.074 2.074h-24.852c-1.1455 0-2.074-.9286-2.074-2.074v-9.852c0-1.1455.9285-2.074 2.074-2.074h24.852c1.1455 0 2.074.9285 2.074 2.074z"/></svg>