<svg enable-background="new 0 0 64 64" viewBox="0 0 64 64" xmlns="http://www.w3.org/2000/svg"><path d="m20.6581 6.754c-.4212-.5566-1.0734-.8913-1.7719-.9092-.6982-.018-1.3667.2828-1.8159.8168l-10.1135 12.0047c-.7224.8558-.7216 2.1077.0017 2.9635.7231.8531 1.9563 1.0661 2.9214.4956l5.1661-3.0447.0241 36.6146c0 1.9097 1.5473 2.3047 3.4571 2.3047s3.4572-.395 3.4572-2.3047l-.0078-36.4775 5.0676 3.3489c.9361.6178 2.177.4685 2.9431-.3448.7662-.8175.8313-2.0675.1538-2.9594z"/><path d="m38 10h20v8h-20z"/><path d="m42 22h16v8h-16z"/><path d="m46 34h12v8h-12z"/><path d="m50 46h8v8h-8z"/></svg>