<svg height="64" viewBox="0 0 64 64" width="64" xmlns="http://www.w3.org/2000/svg"><path d="m0 0h64v64h-64z" fill="none"/><path d="m18.792 29.791c-.263-1.1584-2.9565-3.6148-5.6417-5.5215-.7692-.5462-1.1834-.8048-1.9612-1.3027l-10.1891-.9668v18.9333c10.4167-.4958 12.6826-.5562 13.6826-1.3625 1.2129-1.1885 4.5435-7.8711 4.1094-9.7798z"/><path d="m46.2352 27.481c1.5667.3693 2.6075-1.2914 2.121-2.8358-1.1386-3.6144-2.016-7.4141-4.0638-8.2462s-9.1163.6369-12.945 3.1982c3.5355 1.3453 8.3166 3.3453 8.3166 3.3453 1.8077 2.1671 3.8986 3.9086 6.5712 4.5385z"/><path d="m50.2088 23.184c.1245.4076.3196.9891.3938 1.3997.2569 1.4227-.1385 2.8741-1.0919 3.9007-1.4693 1.5818-3.2317 1.4376-5.1525.7213-2.141-.7985-4.1265-2.2599-6.0257-4.4342-4.4589-1.8503-11.0999-4.5233-15.7404-5.9601-2.0219-.626-3.6117-1.0026-4.2588-.8948-2.5941.4323-5.3219 3.6046-5.3219 3.6046s7.2056 4.6116 7.9261 7.782-3.5988 10.9172-4.8494 11.9594c-1.2623 1.0519-4.7299 1.34-4.7299 1.34 1.0538 5.0824 5.7004 4.5494 7.8688 3.3102 2.9256 2.178 5.989-.1032 5.989-.1032 1.7366.9857 3.3043.6236 4.1895.2515-1.2245-2.7061-1.6042-6.5475-.9353-8.0377v-.0005c.7294-1.6244 1.9891-2.5276 3.4072-2.7295.4116-.7515 1.0703-1.4883 2.0854-2.0225.9614-.5063 1.9336-.5693 2.7847-.4175.4282-.4619.9878-.9014 1.7104-1.1987.877-.3618 1.77-.3745 2.5693-.1992.5024-.3818 1.1201-.6743 1.8477-.7778 1.3696-.1963 4.0186.1172 6.4033 4.4106.8576 1.5436 1.2115 2.9252 1.2608 4.1124l12.4071 1.7416v-18.9423z"/><path d="m43.1862 32.8553c-1.0882.1552-1.5286 1.2507-1.5286 1.2507s-1.1812-.9033-2.3624-.4169c-1.2475.5137-1.6676 1.876-1.6676 1.876s-1.3201-1.0422-2.6403-.3474c-1.616.8505-1.5156 2.4363-1.5156 2.4363s-1.9963-.9528-2.9945 1.2704c-.4738 1.0553.2269 6.1705 1.8602 7.6677 1.6334 1.4973 3.4836 1.4103 4.3869-.7437 1.278.994 3.7886.9364 4.3774-1.6675 2.0618.7422 3.9559.0826 4.2384-2.2929 0 0 1.5981.4863 2.5595-.7404.595-.7592.8167-2.5408-.5444-4.9908s-2.8828-3.4849-4.169-3.3015z"/></svg>