<svg enable-background="new 0 0 64 64" height="64" viewBox="0 0 64 64" width="64" xmlns="http://www.w3.org/2000/svg"><path d="m0 0h64v64h-64z" fill="none"/><path d="m32.9 21.5-2.8-2.8-2.8 2.8-1.4-1.4 2.8-2.8-2.8-2.8-2.9 2.7-1.4-1.4 2.8-2.8-2.8-2.8-2.8 2.8-1.4-1.4 2.8-2.8-3.5-3.5c-.4-.4-1-.4-1.4 0l-9.9 9.9c-.4.4-.4 1 0 1.4l16.3 16.3z"/><path d="m51.3 39.9-2.8 2.8-1.4-1.4 2.8-2.8-2.8-2.8-2.8 2.8-1.5-1.5 2.8-2.8-2.8-2.8-11.3 11.3 16.3 16.3c.4.4 1 .4 1.4 0l9.9-9.9c.4-.4.4-1 0-1.4zm-1.4 9.9c-.8.8-2 .8-2.8 0s-.8-2 0-2.8 2-.8 2.8 0 .8 2 0 2.8z"/><path d="m51.8 13.4c0-.1.2-.3.6-.1l3.6 2 2.4-2.4c3.8-3.8-3.3-10.9-7.1-7.1l-41.2 41.4c-.3.3-.6.7-.7 1.1l-3.2 9.2c-.1.4.2.8.6.6l9.2-3.2c.4-.1.8-.4 1.1-.7l37.7-37.7zm-40.2 35.1 36.2-36.2 1.4 1.4-36.2 36.2c-.8.8-2.2-.6-1.4-1.4zm4.2 4.2c-.8.8-2.2-.6-1.4-1.4l36.2-36.2 1.4 1.4z"/></svg>