<svg height="64" viewBox="0 0 64 64" width="64" xmlns="http://www.w3.org/2000/svg"><path d="m0 0h64v64h-64z" fill="none"/><path d="m31.7 42c-15 3.5-17.8 3.4-24.8.7s-.4 0-.2.7c.9 2.7 8.3 5.9 19.7 3.9 8.2-1.4 14.4-1.7 18.4.9 2.5 1.7 2.2 4 1.9 5.9 9 1.7 6.7-17.2-15-12.1z"/><path d="m31.7 42c-15 3.5-17.8 3.4-24.8.7s-.4 0-.2.7c.9 2.7 8.3 5.9 19.7 3.9 8.2-1.4 14.4-1.7 18.4.9 2.5 1.7 2.2 4 1.9 5.9 9 1.7 6.7-17.2-15-12.1zm-5.5-15.7c4.6-2.4 7-8 6.5-10.3-.1-.3-.3-.3-.4-.3-1.4 1.5-3.1 3.6-4.8 5-5.3 4.4-9.5 2.8-10.6.9-.2-.1-.4.1-.5.6-.8 3.9 4.5 7 9.8 4.1zm21.6 3-1.6 2.8c.7.4 1.1 1.1 1.1 1.9h3.2c0-2-1.1-3.8-2.7-4.7zm-35.6 5.9c2.3 2.1 5.5 4.4 9.3 3.8 5.1-.7 6.9-7.5 5.7-7.5-12.4 9.3-17.2-11.1-26.1-5.5-.4.2-.1.5-.1.5 5.8 1.2 7.4 5.2 11.2 8.7zm50.4 6.8-16-27c-.4-.6-1-1-1.7-1-.7 0-1.4.4-1.7 1l-14.7 25.4c.8-.2 1.7-.4 2.7-.6.6-.1 1.4-.3 2.4-.5l11.4-19.7 12.6 21.4h-9.8c1.6.9 3.1 2.1 4.3 3.8 0 .1.1.1.1.2h8.7c.7 0 1.4-.4 1.7-1s.4-1.4 0-2zm-23-8h3.2c0-.8.5-1.5 1.1-1.9l-1.6-2.8c-1.6.9-2.7 2.7-2.7 4.7zm5.4 2.2c-.4 0-.8-.1-1.1-.3l-1.6 2.8c.8.5 1.7.7 2.7.7s1.9-.3 2.7-.7l-1.6-2.8c-.3.2-.7.3-1.1.3zm0-3.5c-.7 0-1.3.6-1.3 1.3s.6 1.3 1.3 1.3 1.3-.6 1.3-1.3-.6-1.3-1.3-1.3z"/></svg>