<svg height="64" viewBox="0 0 64 64" width="64" xmlns="http://www.w3.org/2000/svg"><path d="m0 0h64v64h-64z"/><g fill="#fff"><path d="m16.459 25.9692c.4278 3.1877 2.1379 6.0856 4.3621 8.283-.205 1.0925-.4637 2.5928-.6512 4.0232-.4979 3.7977 4.3223 7.8955 6.8301 9.583 3.3478-2.2528 7.3307-5.9913 6.7496-10.1361-3.6962 2.9641-7.6596 2.0292-9.6271-.9867l-.0103-.001c-.0409-.062-.069-.1147-.1054-.1737-.0273-.0444-.0571-.0829-.0844-.1273 2.2642.7002 5.9133.5068 7.4043-.5836 3.0954-2.2637 5.6733-5.85 6.2141-9.8808 1.8825-.5039 2.2592-2.5454 2.2592-3.8182 0-1.2726-.2581-1.9611-.7841-2.1743-.2396-.0968-.4733-.1002-.6844-.0665.4835-3.3569 1.1956-9.8115-.0615-12.1355-1.5283-2.8256-3.348-4.2173-6.8501-3.2908-2.297-1.2793-3.8609-2.0801-7.8854-.9281-2.7963.8003-5.8569 2.1073-7.4696 4.288-1.7083 2.3104-.9725 8.7151-.4395 12.0599-.2-.0259-.4181-.0172-.6414.073-.5261.2132-.784.9017-.784 2.1743 0 1.2728.3766 3.3143 2.259 3.8182zm.341-14.0019c.0096-2.3634.4797-4.7164 7.2266-6.6492 1.1475-.3287 2.0848-.488 2.8677-.488 1.4855 0 2.415.5846 4.34 1.6565.771-.2039 1.5172-.4343 2.301-.4343 2.0178 0 3.3405 2.2168 3.5625 4.2244.3478 3.1465-.284 8.9724-.8329 11.0748-.2549.9766-1.2649.8067-1.2649.8067-.0024.0011 0-5.509 0-5.509l-5.2749-3.8501c-4.6481 2.5329-8.6821 3.1052-10.7251 3.2509 0 0 .0026 6.1097 0 6.1082 0 0-1.0099.1699-1.265-.8068-.2253-.8632-.6535-3.0402-.8412-6.2303-.0649-.9133-.1002-1.5984-.0938-3.1538z"/><path d="m39.5278 39.9512 3.6123-.6678c-2.6885-1.227-5.7245-2.1953-7.3231-2.6691.0681.4524.134.9131.1947 1.376.834 6.3721-8.0596 11.8838-8.4385 12.1152-.1758.1074-.375.1611-.5732.1611s-.3975-.0537-.5732-.1611c-.3789-.2314-9.2725-5.7432-8.4385-12.1152.0607-.4629.1266-.9236.1947-1.3761-2.6989.8002-9.5035 3.0033-11.7958 5.4962-2.8735 3.124-4.3872 14.8896-4.3872 14.8896h35v-4.5405c-1.2242-1.0992-2-2.6885-2-4.4595 0-1.4016.4868-2.6895 1.295-3.7119-.0972-.9426.1221-1.8804.6654-2.6699.6055-.8799 1.5171-1.4717 2.5674-1.667z"/><path d="m60.0322 48-2.0322 3h-3l2.0322-3h-3l-2.0322 3h-3l2.0322-3h-3l-2.0322 3h-3l2.0322-3h-1.0322c0-.2501-.0396-.4893-.0973-.7216l17.7306-3.2784-.7273-3.9333c-.1004-.5431-.6221-.9019-1.1651-.8015l-2.9255.541 2.4876 2.5909-2.95.5454-2.4877-2.5909-2.95.5455 2.4877 2.5909-2.95.5455-2.4876-2.5909-2.95.5454 2.4876 2.5909-2.95.5454-2.4877-2.5909-1.9911.3682c-.543.1004-.9019.6221-.8015 1.1652l.2475 1.3385c-.9039.5166-1.5202 1.4789-1.5202 2.5947 0 1.3043.8375 2.403 2 2.8163v9.1837c0 .5522.4477 1 1 1h20c.5523 0 1-.4478 1-1v-12z"/></g></svg>