<svg enable-background="new 0 0 64 64" viewBox="0 0 64 64" xmlns="http://www.w3.org/2000/svg"><path d="m0 0h64v64h-64z" fill="none"/><path d="m21.5 12.6c2.3 0 3.6-1.6 3.6-3.9 0-2.7-1.4-4.1-3.6-4.1-2.3 0-3.6 1.7-3.6 4.1 0 2.5 1.3 3.9 3.6 3.9zm-12-.4c2.1 0 3.4-1.5 3.4-3.7 0-2.5-1.3-3.8-3.4-3.8-2.2 0-3.4 1.6-3.4 3.8.1 2.4 1.3 3.7 3.4 3.7zm26 1.9c2.6 0 4.1-1.8 4.1-4.4 0-3-1.6-4.6-4.1-4.6-2.6 0-4.1 1.9-4.1 4.6 0 2.8 1.5 4.4 4.1 4.4zm15-.1c2.8 0 4.5-2 4.5-4.9 0-3.3-1.7-5-4.5-5-2.9 0-4.5 2.1-4.5 5 0 3.2 1.7 4.9 4.5 4.9zm-39.4 16.4c-.2-3.9-.8-12.4 3.1-15.6-.4-.3-.9-.6-1.5-.8-1-.3-2-.5-3.2-.5-1.1 0-2.1.2-3.2.5-2.2.7-3.4 2.6-3.8 6.6-.2 1.8-.8 3.2-1.3 5.8-.3 2 .8 3.2 1.8 3.3 2.1-6.8 2-9.8 2.5-11.3.1-.3.3-.7.3-.7-.4 1.9-.2 2.8.1 3.7.2 1 .3 2.1 0 3.1-.5 1.9-2 5.4-2 11.4 0 0 1.6.4 4.1.2.1.1 0 .3-.2.5-.3.1-.8.4-2 .4l.4 9.8s2.5-.4 2.6-2.9c0 0 .2-5.1.3-7.9.1 0 .2 0 .4-.1.1 0 .2 0 .3-.1.1 2.8.3 8 .3 8 .1 2.6 2.6 2.9 2.6 2.9l.4-11c.9.1 1.6.2 1.9.3v-1.6c-1.7.1-3.7-1.2-3.9-4zm45.5-13.6c-3.5-.9-8.2-1-12.2 0-6.2 1.6-5.4 12.9-5 19.2.2 2.9 2.2 3.7 3.5 3.7 0 0 0-5.9 0-7.7 0-3.4.1-6.7.8-8.7.1-.3.3-.4.4-.3v38.6c2.8 0 4.9-1.5 5.2-4.6 0 0 .7-17.7.7-17.9s.2-.5.5-.5.5.3.5.5.7 17.9.7 17.9c.2 3.1 2.5 4.6 5.2 4.6v-38.7c.1-.1.3-.1.4.3.6 2 .8 5.3.8 8.7v7.7c1.3 0 3.3-.8 3.5-3.7.4-6.2 1.1-17.5-5-19.1zm-18.3 19.2v-.1c-.4-5.7-.9-14.7 3-18.6-.5-.5-1.2-.8-1.9-1-1.3-.4-2.5-.6-3.8-.6-1.4 0-2.6.2-3.8.6-2.6.8-4.1 3.1-4.6 7.9-.3 2.2-1 3.9-1.5 7-.5 2.5.9 3.9 2 4.1 2.6-8.3 2.4-11.8 3-13.7.1-.3.4-.8.4-.8-.5 2.3-.2 3.3.1 4.5s.4 2.5 0 3.7c-.6 2.3-2.5 6.3-2.5 13.6 0 0 1.9.5 4.9.2.1.2.1.4-.2.6-.2.2-.9.5-2.3.5l.5 12s3-.5 3.2-3.5c0 0 .3-6.4.4-9.8.2 0 .3 0 .5-.1.1 0 .3 0 .4-.1.1 3.4.4 9.9.4 9.9.2 3.1 3.2 3.6 3.2 3.6l.3-13.5c1.4.1 2.4.4 2.4.4 0-.7 0-1.4-.1-2.1-1.9-.2-3.8-1.7-4-4.7zm-13.1-1c-.7-1-1-2.4-.7-4 .3-1.5.6-2.7.8-3.7.3-1.1.5-2.1.7-3.2.4-3.6 1.4-6 3-7.5-.6-.9-1.4-1.6-2.5-1.9-2.9-.8-6.6-.8-9.9 0-5 1.3-4.7 10.5-4.4 15.6.1 2.3 1.7 3 2.7 3 0 0 0-4.7 0-6.3 0-2.8.2-5.4.8-7 .1-.3.3-.3.3-.2v31.2c2.2 0 4.2-1.1 4.4-3.6 0 0 .6-14.3.6-14.5s.2-.4.4-.4c.3 0 .4.2.4.4s.6 14.5.6 14.5c.2 2.5 2.2 3.6 4.4 3.6v-14.7c-.6-.3-1.2-.7-1.6-1.3z"/></svg>