<svg enable-background="new 0 0 64 64" height="64" viewBox="0 0 64 64" width="64" xmlns="http://www.w3.org/2000/svg"><path d="m0 0h64v64h-64z" fill="none"/><path d="m47 48c-.2-2.5-.2-5.7.3-10.1.7-6.9 1.9-15.3 2.9-19.9.7-3.6.6-7.5-1.7-10.3-1.4-1.7-3.5-2.7-5.6-2.7h-29.9c-3.7 0-6.9 3.2-7.2 7-.4 5.2 3.7 8.5 8.1 9.2.3-1.7.6-3.1.7-3.9-1.9-.3-5.1-1.6-4.9-4.9.2-2 1.8-3.4 3.6-3.4.9 0 1.8.4 2.4 1.2 1.2 1.5 1.5 4 .9 7-1.4 6.8-3.9 23.2-3.5 29.9.2 2.8 1.3 11.9 8.9 11.9h26c7.1 0 10.6-8 11.8-11zm-25 7c-3.9 0-4.7-5.1-4.9-8.1-.3-6.1 2-21.8 3.5-28.9.9-4.3.2-7-.9-9h23.2c1.8 0 2.9 1.5 3.4 3.2.4 1.5.3 3.5 0 5-.9 4.5-2.1 13.2-2.8 20.6-.5 5-.5 8.6-.3 10.2h-13.8c-1.4 3-3.5 7-7.4 7zm26 0h-18.1c.7-1 1.4-2 2-3h21.2c-1.2 2-2.9 3-5.1 3z"/><path d="m24.2 25.9c-.8 0-1.5.7-1.5 1.5s.7 1.5 1.5 1.5 1.5-.7 1.5-1.5-.6-1.5-1.5-1.5z"/><path d="m23.3 32.9c-.8 0-1.5.7-1.5 1.5s.7 1.5 1.5 1.5 1.5-.7 1.5-1.5c0-.9-.6-1.5-1.5-1.5z"/><path d="m22.7 39.9c-.8 0-1.5.7-1.5 1.5s.7 1.5 1.5 1.5 1.5-.7 1.5-1.5-.7-1.5-1.5-1.5z"/><path d="m27.4 29h13.9c.1-1 .3-2 .4-3h-13.9c-.2 1-.3 2-.4 3z"/><path d="m26.5 36h13.9l.3-3h-13.8c-.2 1-.3 2-.4 3z"/><path d="m26 43h13.9c0-.9.1-1.9.2-3h-14c0 1.1-.1 2.1-.1 3z"/><path d="m23.9 20.6h1.7l.1 1.3h1.4l-.7-5.7h-1.7l-2.7 5.6h1.3zm1.3-3.1.2 2.1h-1.1z"/><path d="m29.5 17.8.5 3h1.3l1.4-3-.4 4h1.2l.7-5.7h-1.7l-1.5 3.1-.5-3.1h-1.8l-1.3 5.7h1.3z"/><path d="m37.2 21.8 2.7-5.7h-1.3l-1.9 4.2-.5-4.2h-1.4l.7 5.7z"/><path d="m41.2 21.8c1.4 0 2.3-.6 2.5-1.8.1-.6-.1-1-.6-1.3.4-.3.7-.7.8-1.3.1-.4 0-.7-.2-.9-.3-.4-.9-.5-1.7-.5h-1.6l-1 5.7h1.8zm.2-4.7h.4c.4 0 .6.1.7.2s.1.2.1.4c-.1.5-.4.7-1.1.7h-.3zm-.4 2.3h.3c.5 0 .8.1 1 .2.1.1.1.2.1.4-.1.6-.6.7-1.1.7h-.5z"/></svg>