<svg height="64" viewBox="0 0 64 64" width="64" xmlns="http://www.w3.org/2000/svg"><path d="m0 0h64v64h-64z" fill="none"/><path d="m20 55.411v2.589c0 1.1046.8954 2 2 2s2-.8954 2-2v-2h-1c-1.0612 0-2.0726-.2122-3-.589z"/><path d="m40 56v2c0 1.1046.8954 2 2 2s2-.8954 2-2v-2.589c-.9274.3768-1.9388.589-3 .589z"/><path d="m28 8h8v9h3v-9.5c0-2.4814-2.0186-4.5-4.5-4.5h-5c-2.4814 0-4.5 2.0186-4.5 4.5v9.5h3z"/><path d="m41 19h-18c-3.3137 0-6 2.6863-6 6v23c0 3.3137 2.6863 6 6 6h18c3.3137 0 6-2.6863 6-6v-23c0-3.3137-2.6863-6-6-6zm-14.8897 15.5024-6.0013-3.0007 3.8897-7.7794 4.112-.7223 1.8893 3.723z"/></svg>