<svg enable-background="new 0 0 64 64" height="64" viewBox="0 0 64 64" width="64" xmlns="http://www.w3.org/2000/svg"><path d="m0 0h64v64h-64z" fill="none"/><path d="m22.8 30c-.3 0-.6 0-.9 0v-2.1h5.1v-2.9h-8v7.9c.9-.1 1.8-.2 2.8-.2 1.6 0 2.4.5 2.4 1.5 0 2.1-3.5 1.9-5.2 1.9v2.8h1.9c3.9 0 6.7-1.9 6.7-5 0-2.6-1.9-3.9-4.8-3.9zm25.2 1.8c-.4-3.2-1.5-6.2-3-8.9l3.1-3.1c.8-.8.8-2 0-2.8l-7.1-7.1c-.8-.8-2-.8-2.8 0l-1.6 1.6c1.8 1.8 3.7 4.2 4.2 5.2.2.3.1.5 0 .6-4.6-4.5-10.9-7.3-17.8-7.3-12.2 0-22 9.8-22 22 0 12.2 9.8 22 22 22h25.7c1.2 0 2.1-1.1 2-2.3zm-25 12.2c-6.6 0-12-5.4-12-12s5.4-12 12-12 12 5.4 12 12-5.4 12-12 12zm29.1 2 .5 4h8.4v7h2v-11z"/></svg>