<svg height="64" viewBox="0 0 64 64" width="64" xmlns="http://www.w3.org/2000/svg"><path d="m0 0h64v64h-64z" fill="none"/><path d="m9.0441 41.79c0-2.2349 1.2085-4.3062 3.1538-5.4058l15.5779-8.8301c2.6055-1.4721 4.2242-4.246 4.2242-7.2387 0-4.5849-3.7305-8.3154-8.3154-8.3154h-7.9892c-.8245-2.3289-3.0399-4-5.6512-4-3.3137 0-6 2.6863-6 6s2.6863 6 6 6c2.6113 0 4.8267-1.6711 5.6512-4h7.9892c2.3794 0 4.3154 1.936 4.3154 4.3154 0 1.5532-.8398 2.9922-2.1924 3.7563l-15.5779 8.8301c-3.1988 1.8082-5.1856 5.2139-5.1856 8.8882 0 5.6299 4.5801 10.21 10.21 10.21h21.6551l.8423-4h-22.4974c-3.4243 0-6.21-2.7856-6.21-6.21zm.9559-24.79c-1.6569 0-3-1.3431-3-3s1.3431-3 3-3 3 1.3431 3 3-1.3431 3-3 3z"/><path d="m61.35 38.6136c-2.6192-.5928-5.7603-1.0969-8.6824-1.434-1.3033-2.672-2.4805-5.0769-3.6896-7.5596-.2006-.4117-.5516-.6199-.9576-.6199-.4061.0001-.7571.2083-.9576.6199-1.2091 2.4827-2.3862 4.8876-3.6896 7.5596-2.9222.3372-6.0632.8412-8.6825 1.434-.8904.2107-1.214 1.4129-.6155 2.0793 1.7964 1.9831 3.942 4.2501 6.1111 6.4296-.6516 3.0613-1.2754 6.0729-1.8416 8.7216-.1465.8965.8865 1.536 1.7496 1.1323 2.6135-1.175 5.4505-2.584 7.9261-4.2247 2.4756 1.6406 5.3127 3.0497 7.9261 4.2247.863.4037 1.8961-.2358 1.7496-1.1323-.5663-2.6487-1.19-5.6603-1.8416-8.7216 2.1691-2.1796 4.3147-4.4465 6.1111-6.4296.5985-.6664.2749-1.8686-.6156-2.0793z"/></svg>