<svg height="64" viewBox="0 0 64 64" width="64" xmlns="http://www.w3.org/2000/svg"><path d="m0 0h64v64h-64z" fill="none"/><path d="m53.5539 28.903c-1.676 1.485-3.5446 2.9406-5.5491 4.3367 5.9259 1.9084 8.9952 4.5289 8.9952 5.7603 0 2.056-8.4927 8-24.7 8-7.3529 0-13.0999-1.2266-17.2043-2.7553 5.8793-.6989 13.1086-2.856 20.4999-6.3663 15.7579-7.4839 26.2847-18.2833 23.5121-24.1212-1.3317-2.804-5.494-3.9489-11.2018-3.5569 1.9412.4769 3.3828 1.4125 4.0547 2.8272 1.9974 4.2058-3.2643 11.403-12.2261 15.3047-.2846.1239-.4455-.0171-.4614-.141 7.4237-4.8941 11.6954-10.6321 10.0014-14.1988-2.3223-4.8898-10.4739-2.2332-12.8561-1.5027 2.2852-.0306 4.0053.5969 4.6236 1.8987 1.2509 2.6339-2.4733 7.0195-8.3183 9.7955-1.2287.5835-2.4508 1.0493-3.6298 1.3918-.2491.0724-.4193-.1234-.4135-.2051.266-.1173.533-.2394.8008-.3666 6.1617-2.9263 10.2778-7.1491 9.1937-9.4318-1.4651-3.0851-9.4577-.574-13.1196 1.1653-14.1095 6.7015-24.6252 16.1223-24.5549 22.1978-.0009.0434 0-.0435 0 0 0 7.732 14.3444 14.0647 31.2996 14.0647s30.7-6.268 30.7-14c0-3.9689-3.6276-7.5493-9.4461-10.097z"/></svg>