<svg height="64" viewBox="0 0 64 64" width="64" xmlns="http://www.w3.org/2000/svg"><path d="m0 0h64v64h-64z" fill="none"/><path d="m19.2851 21.9124c-.0842-.2617-.3911-.8488-1.4343-.7662-2.3002.1871-3.503 2.8768-3.3528 4.722.1509 1.8551 1.3184 1.7603 1.7061 1.7294 2.3165-.1888 2.8845-2.0577 2.8898-2.0764.0038-.0132.0108-.0245.015-.0375-.0926-1.1827.0317-2.4207.214-3.476-.0121-.032-.0282-.0617-.0378-.0953z"/><path d="m34.9409 33.832c.02.0068 1.7095.5518 4.1318.9258-.2642-.7656-.4038-1.5781-.4038-2.3999 0-.8514.1522-1.6661.4183-2.4274-2.1072-.5431-3.4907-2.4102-3.5357-4.9399-.0512-2.8589 1.797-6.051 5.323-6.3362 2.4506-.2034 3.9276 1.3928 4.4067 2.3653.3057.6201.0471 1.3688-.5775 1.672-.6188.3011-1.3675.0504-1.6769-.5591-.0663-.1229-.6328-1.1023-1.9482-.9863-2.2548.1823-3.0355 2.3726-3.0096 3.8.0266 1.499.7534 2.6477 2.355 2.646 1.3452-1.5834 3.3425-2.5923 5.5731-2.5923 2.4638 0 4.64 1.191 6.0029 3.1418v-23.1418h-47v33h13.4286c.0734.1041-.0997.3385-.4774.4323l-4.4276 1.1616-2.6486 15.4061h5.875l1.4012-8h12.8488v-4h-12.1518l.821-5h11.3318c-.0006-.8259-.001-1.3164-.001-1.3164-.001-.9639.4609-1.8691 1.2417-2.4336.7803-.5654 1.7847-.7207 2.6992-.418zm-7.1835-3.7384c-.9608 0-1.7822-.3166-2.4162-.9089-.603.4006-1.3763.6798-2.2109.6798-.1918 0-.3868-.0146-.5836-.0456-.967-.153-1.7555-.6361-2.3292-1.3741-.7872.782-1.9747 1.5028-3.7294 1.6447-.134.0106-.2664.0163-.3963.0163-2.233 0-3.8342-1.5771-4.0358-4.0344-.2737-3.3378 1.9441-7.1147 5.6824-7.417 1.0161-.0804 1.8148.1443 2.4304.5054.2939-.483.8892-.7244 1.455-.5461.6623.2084 1.0295.9106.8196 1.5686-.5832 1.8319-1.1885 5.2523-.3295 6.6325.1954.3141.4434.4744.8286.5351.443.0705.9209-.1241 1.2292-.3811 0 0-.0781-.1875-.1268-.4973-.349-2.2199.0905-5.2821.954-8.195.0135-.0619.0316-.1229.0549-.1827 1.011-3.3398 2.535-6.44 3.9088-7.7563.3696-.3544.9196-.4504 1.3896-.2405.4696.2092.7635.6808.7421 1.191-.0057.1395-.1799 3.4175-3.7292 7.8455-.8721 2.9708-1.306 6.0669-.6475 7.6859.2623.645.5922.7744 1.0397.7744 2.233 0 3.3256-1.7163 3.692-2.4544.659-1.3281.7208-2.8915.1439-3.6369-.1197-.1546-.4869-.6242-1.6683-.389-.6844.1351-1.345-.3032-1.4814-.9802-.1365-.6771.3053-1.3354.9872-1.4709 2.3651-.4704 3.6219.6229 4.1588 1.3167 1.1761 1.5193 1.2241 4.0373.1184 6.2651-1.1959 2.4102-3.4203 3.8494-5.9505 3.8494z"/><path d="m57.3372 50.9732-.037-.005c-.5009-.0682-.9979.0796-1.41.3742-1.3563.9695-2.2513 1.5494-3.5242 1.2333-1.9352-.4806-3.3646-2.2595-3.3031-4.3677.0609-2.0845 1.498-3.6492 3.1987-4.0819 1.3487-.3433 2.6306.5056 3.6128 1.201.4196.2971.9178.4244 1.4294.3849.8264-.0638 1.7571-1.038 1.6921-2.0512-.177-2.7627-.6655-5.3651-.8885-6.4495-.0585-.2847-.3433-.4569-.6227-.3767-1.133.3253-4.036 1.0668-7.4712 1.2351-.7667.0376-1.433-.5318-1.5153-1.295l-.0015-.0142c-.0502-.467.1385-.9171.4771-1.2402 1.081-1.0317 1.6336-2.6189 1.2062-4.308-.3834-1.5153-1.6237-2.7353-3.1457-3.0912-2.8408-.6643-5.3655 1.4891-5.3655 4.2363 0 1.2501.5229 2.3771 1.3604 3.1717.3359.3187.5176.7672.468 1.2292l-.0017.0162c-.0803.7627-.7456 1.3326-1.5116 1.2951-3.3207-.1623-6.1447-.8604-7.3541-1.201-.3192-.0899-.6295.1493-.6293.481.0023 3.085.0113 15.9889.0028 20.8198-.0018 1.0145.8197 1.8306 1.8338 1.8306h21.7532c.2367 0 .4396-.159.4881-.3906.2075-.9903.7379-3.7279.9204-6.6346.0626-.9968-.6718-1.8677-1.6616-2.0016z"/></svg>