<svg height="64" viewBox="0 0 64 64" width="64" xmlns="http://www.w3.org/2000/svg"><path d="m0 0h64v64h-64z" fill="none"/><path d="m40.9977 23.001c0-.7447.0012-2.7025-1.2268-4.0366.3037-3.3378.515-8.5034-.7869-10.587-1.6026-2.5649-3.5498-3.8159-7.2632-2.9775-2.4356-1.1577-4.0938-1.8823-8.3608-.8398-2.9649.7241-6.21 1.9067-7.92 3.8798-1.652 1.9066-1.5394 7.2237-1.2741 10.6054-1.1589 1.332-1.1634 3.2256-1.1634 3.9557 0 2.386.7374 4.3299 2.0614 5.5497.3819 2.5118 1.613 4.9141 3.7105 7.2619-.106.807-.2283 1.7498-.353 2.7313-2.5129.7345-9.6714 2.9969-12.0341 5.5665-2.8736 3.124-4.3873 14.8896-4.3873 14.8896h25 12v-19.3591c-1.0601-.3702-2.0266-.6774-2.7732-.9038-.155-1.1155-.3614-2.4073-.5466-3.4836 1.7886-2.1667 2.8875-4.4047 3.2495-6.6968 1.3281-1.2195 2.068-3.1657 2.068-5.5557zm-4.9391 3.8183c0 1.1278-.2217 2.1558-1.0459 2.9512-.8608.8294-2.302 1.3032-4.1027 1.348-.1315-.3626-.525-.6185-.9868-.6185h-3.762c-.4952 0-1.1612.5-1.1612 1.5s.666 1.5 1.1613 1.5h3.762c.4706 0 .8727-.2643.9961-.6382 1.1568-.0266 2.1954-.2012 3.0961-.5162-.9276 1.2215-2.0863 2.3278-3.2971 3.3582-.7807.6644-2.2499 1.1066-3.7188 1.1055-1.0628-.0008-2.1255-.2865-2.9271-.6349.6138.9305 1.6553 2.0744 3.5848 2.5851 3.1548.8349 5.4595-.9139 5.4595-.9139s.2828 1.9133.2745 2.4157c.3267 3.4883-3.5568 7.3169-6.0102 9.0784-2.3003-1.75-6.5919-5.5302-6.1588-9.0224.237-1.9129.0408-.5492.8235-5.4371-2.2767-2.2-4.1043-4.8665-4.1043-8.061-1.6177-.5039-2.0414-2.5454-2.0414-3.8183 0-1.2725.3217-1.961.7738-2.1743.3921-.1844.7725-.0475 1.013.0886.1414.6527.2483 1.1383.2898 1.3098.2059.8512 1.0233.773 1.0233.773v-6.7451c2.0731-.1505 6.1937-.7531 10.7499-3.1062l5.2501 3.5262v6.3251s.8174.0782 1.0234-.7729c.0415-.1715.1484-.6571.2898-1.3098.2405-.1362.6209-.2731 1.013-.0886.4522.2133.7738.9018.7738 2.1743 0 1.2729-.4237 3.3144-2.0414 3.8183z"/><path d="m58.6221 31.7988c-5.0588-.6762-10.1852-.6761-15.2441 0-.7621.1035-1.378.7445-1.378 1.4095v26.5834c-.0001.665.6158 1.306 1.3779 1.4095 5.0589.6762 10.1853.6761 15.2441 0 .7622-.1033 1.378-.7446 1.3779-1.4095 0-8.8612 0-17.7222 0-26.5834.0001-.6653-.6157-1.3059-1.3778-1.4095zm-7.6221 28.5203c-1.0047 0-1.8192-.8145-1.8192-1.8191 0-1.0047.8145-1.8192 1.8192-1.8192s1.8192.8145 1.8192 1.8192c0 1.0046-.8145 1.8191-1.8192 1.8191zm6-5.3191h-12v-20h12z"/></svg>