<svg enable-background="new 0 0 64 64" viewBox="0 0 64 64" xmlns="http://www.w3.org/2000/svg"><path d="m55.064 43.0082-.0018-.0027c-.1848-.1995-.4606-.2896-.7281-.2354l-3.1692.6426-.0449-.045-.3325-.3326.8413-2.8934c.0754-.262.0096-.5461-.176-.7457l-.002-.0027c-.1847-.1995-.46-.2896-.728-.2346l-3.1688.6429-.5146-.5146.8412-2.8937c.0754-.262.0101-.5452-.1755-.7447l-.0023-.0027c-.1848-.1995-.4597-.2896-.7277-.2354l-3.1697.6422-.3811-.3812-1.9661-1.9659.8408-2.8929c.0759-.262.0103-.5452-.1755-.7446l-.0023-.0027c-.1847-.1995-.4601-.2896-.7277-.2354l-3.1687.6425-2.3296-2.3296c-3.1489 3.5533-5.5237 4.0876-6.1304 4.2834-.2107.0675-.3486.0387-.4229-.0336.5812-.4655 1.1593-.9662 1.7302-1.537 6.0518-6.0518 6.1748-12.7599.4851-18.4496s-12.8625-5.1005-18.449.4858c-5.5862 5.5862-6.1755 12.7591-.4858 18.4488 4.1322 4.1322 8.8009 5.1822 13.3658 3.1381l19.6676 19.6668c2.3041 2.303 4.7565 1.2246 7.0521-1.0711 2.0612-2.0602 3.14-4.249 1.6663-6.3447l.8652-2.9768c.076-.2621.0104-.5452-.1754-.7448zm-35.5253-21.03c-2.0347 0-3.6849-1.6504-3.6849-3.6849s1.6503-3.683 3.6849-3.683c2.0345 0 3.6835 1.6484 3.6835 3.683s-1.649 3.6849-3.6835 3.6849zm30.1984 29.9931c-.1837.1838-.4247.2758-.6655.2758-.241 0-.4819-.0919-.6658-.2758l-15.377-15.3775c-.3678-.3676-.3677-.9637 0-1.3314s.9637-.3677 1.3313 0l15.377 15.3776c.3678.3676.3676.9637 0 1.3313z"/></svg>