<svg height="64" viewBox="0 0 64 64" width="64" xmlns="http://www.w3.org/2000/svg"><path d="m0 0h64v64h-64z" fill="none"/><path d="m32.9127 8.0015c-1.0001.7397-2.7266 1.3848-2.7266 3.4601v1.7188c-1.866.0651-3.4937.2519-4.7778.4669.1843.6671.4578 1.602.8342 2.7482 1.393-.2676 3.18-.4954 5.2576-.4954 2.0687 0 3.8583.2292 5.2559.4982.377-1.1468.6518-2.0831.8367-2.7509-1.2798-.2143-2.9007-.4008-4.759-.4666v-1.384c0-.483.2819-.9225.7234-1.1185 2.1389-.9493 3.3725-3.2955 2.8679-5.6805-.374-1.7651-1.9458-3.3389-3.8218-3.8267-2.7598-.7197-5.686.9023-6.3828 3.5425-.1865.707.2354 1.4312.9419 1.6177.708.1865 1.4312-.2354 1.6177-.9419.3262-1.2354 1.7998-2.0078 3.1567-1.6567.8984.2339 1.7324 1.0308 1.8984 1.8135.2222 1.0496-.2328 1.9453-.9224 2.4553z"/><path d="m51.9688 18c-.4246-1.2985-.9747-1.7543-1.8792-2.1912-2.0687-.9994-5.5864-2.0396-10.2583-2.8088 0 0-2.387 10.2941-8.3281 19l-.0032.0004v-.0004c-5.9412-8.7059-8.3281-19-8.3281-19-4.6719.7692-8.1896 1.8094-10.2583 2.8088-.9045.437-1.4547.8927-1.8792 2.1912-2.6154 8-2.9259 23.5605-2.9259 42.0429 0 0 1.0028.9259 3.9151.9259 2.4724 0 3.7764-.8934 3.7764-.8934 0-7.8577-.05-22.3879.7-28.1476 2.5385 5.3799 1.5 20.2597 1.5 29.0722 0 0 2.9615 1 8.5 1 4.9224 0 5.001-3.9068 5.0016-3.9383.0005.0315.0792 3.9383 5.0016 3.9383 5.5385 0 8.5-1 8.5-1 0-8.8125-1.0385-23.6923 1.5-29.0723.75 5.7598.7 20.29.7 28.1476 0 0 1.3041.8934 3.7765.8934 2.9123 0 3.9151-.9259 3.9151-.9259-.0001-18.4823-.3106-34.0428-2.926-42.0428zm-20.4688 35.3177c-.7278 0-1.3177-.5899-1.3177-1.3177s.5899-1.3177 1.3177-1.3177 1.3177.5899 1.3177 1.3177-.5899 1.3177-1.3177 1.3177zm0-7c-.7278 0-1.3177-.5899-1.3177-1.3177s.5899-1.3177 1.3177-1.3177 1.3177.5899 1.3177 1.3177-.5899 1.3177-1.3177 1.3177zm0-6.9867c-.7351 0-1.331-.5959-1.331-1.331s.5959-1.331 1.331-1.331 1.331.5959 1.331 1.331-.5959 1.331-1.331 1.331zm10.5-7.331h-6v-2h6z"/></svg>