<svg height="64" viewBox="0 0 64 64" width="64" xmlns="http://www.w3.org/2000/svg"><path d="m0 0h64v64h-64z" fill="none"/><path d="m60 39v-4c0-.5523-.4477-1-1-1h-4c-.5229 0-.9391.4057-.9833.9171l-15.8086-10.3882c.4418-1.715.0504-3.45-.6597-4.7282-.8907-1.6034-2.2554-2.8851-3.04-3.9114-.1749-.2288-.263-.5691-.3094-.8893h1.801c.5523 0 1-.4478 1-1v-5c0-.5523-.4477-1-1-1h-1v-6h-2v6h-2v-6h-2v6h-1c-.5523 0-1 .4477-1 1v5c0 .5522.4477 1 1 1h1.9447c-.0244 1.1314.3381 2.1875 1.0422 3.0496.8658 1.06 1.7513 2.0103 2.4021 2.8983.2063.2816.3495.6188.4294.9709-1.6287-.519-3.4198-.3199-4.9189.5881-.4458-.5926-.8778-1.2168-1.4018-1.946-.3646-.5074-1.1479-.2759-1.1902.3537-.0549.8187-.035 2.0059.1791 3.1583l-16.5033 10.8442c-.0442-.5114-.4604-.9171-.9833-.9171h-4c-.5523 0-1 .4477-1 1v4c0 .5522.4477 1 1 1v16c-.5523 0-1 .4477-1 1v4c0 .5522.4477 1 1 1h4c.5523 0 1-.4478 1-1h44c0 .5522.4477 1 1 1h4c.5523 0 1-.4478 1-1v-4c0-.5523-.4477-1-1-1v-16c.5523 0 1-.4478 1-1zm-47 17h-2v-16h2zm8 0h-2v-16h2zm8 0h-2v-16h2zm8 0h-2v-16h2zm8 0h-2v-16h2zm-29.681-21 12.3568-8.1191c2.0197 2.558 5.492 2.5156 7.6908 1.3318-.7242-.881-1.7843-2.0281-3.3115-3.3909.0181-.4448 1.1295.0037 1.6542.3361 1.1897.7536 4.8551 3.1943 5.1276 3.3734l9.8444 6.4687zm37.681 21h-2v-16h2z"/></svg>