<svg height="64" viewBox="0 0 64 64" width="64" xmlns="http://www.w3.org/2000/svg"><path d="m0 0h64v64h-64z" fill="none"/><path d="m52.3 48-15.4-11.5c1.3-2 1-4.2.1-5.8-.8-1.5-2-2.7-2.8-3.7-.2-.3-.3-.7-.3-1h2.6l2-8.3-2.5-3v-13.7h-2v12h-4v-12h-2v13.6l-2.5 2.9 2 8.4h5.1c0 .1.1.3-.2.4l-2.4.5c.1.8.4 1.5.9 2.1.8 1 1.6 1.9 2.2 2.7.5.6.6 1.5.2 2.3-1.1-.5-2.4-.4-3.4.4 0 0-.1-.1-.1-.1-.8-.9-1.4-1.8-2.2-2.9-.3-.5-1.1-.3-1.1.3-.1 1.2 0 3.4.8 4.8l-15.6 11.6h-5.7v12h52v-12zm-37.3 0 16-12.1c.1 0 .2.2 0 .4l-1.8 2c2.1 1.1 4.7.7 6.2-.4l13.6 10.1z"/></svg>