<svg height="64" viewBox="0 0 64 64" width="64" xmlns="http://www.w3.org/2000/svg"><path d="m0 0h64v64h-64z" fill="none"/><path d="m58.0933 11.0313c-.2613-1.6109-1.4561-2.8365-3.0269-3.105-4.5405-.7764-12.1084-.7764-13.6216-.7764-1.5136 0-9.0815 0-13.622.7764-1.5704.2685-2.7652 1.4941-3.0269 3.105-.2192 1.349-.3735 2.6547-.4841 3.8708 3.9855.0178 10.4532.1697 14.6994.8958 2.7198.4648 4.7671 2.5527 5.2159 5.3188.873 5.3716.873 6.7632.873 11.939 0 .604-.0009 1.5506-.0341 2.7375l7.4775 6.0584c.5356.3574 1.0473.1855 1.3315-.1641.2031-.25.2188-.5625.0625-.9531l-1.9882-5.4417c1.1137-.1008 2.1811-.2264 3.1171-.3864 1.5708-.2686 2.7656-1.4942 3.0269-3.1045.7568-4.6582.7568-8.833.7568-10.3853 0-4.6602 0-5.728-.7568-10.3852z"/><path d="m38.6318 18.0156c-5.0625-.8657-13.5-.8657-15.187-.8657-1.6875 0-10.125 0-15.187.8657-1.7515.2993-3.0835 1.6656-3.375 3.4615-.8437 5.1928-.8437 9.8481-.8437 11.5786 0 1.7304 0 6.3857.8437 11.5781.2915 1.7959 1.6235 3.1621 3.375 3.4619.6626.1132 1.3859.2104 2.1418.2955l3.7484-5.1969c.1966-.2863.3999-.1004.3999-.1004l-3.2579 11.4972-.0095-.0046-.0522.185c-.0429.248.0039.5068.1475.7363.3105.4942.96.6406 1.4531.3272l11.2515-6.875c2.5724-.0064 9.9485-.0777 14.5514-.8643 1.751-.2998 3.083-1.666 3.3745-3.4619.8438-5.1924.8438-9.8477.8438-11.5781 0-5.1953 0-6.3858-.8438-11.5786-.2915-1.7959-1.6235-3.1622-3.3745-3.4615z"/></svg>