<svg height="64" viewBox="0 0 64 64" width="64" xmlns="http://www.w3.org/2000/svg"><path d="m0 0h64v64h-64z" fill="none"/><path d="m49 29h3v-10h-3c0 1-.6 1.7-2 1.7v2.3h2zm13-18h-60c-.6 0-1 .4-1 1v38c0 .6.4 1 1 1h24v2h-10c-.6 0-1 .4-1 1v1c0 .6.4 1 1 1h32c.6 0 1-.4 1-1v-1c0-.6-.4-1-1-1h-10v-2h24c.6 0 1-.4 1-1v-38c0-.6-.4-1-1-1zm-6 36h-48v-32h48zm3.5 1c-.8 0-1.5-.7-1.5-1.5s.7-1.5 1.5-1.5 1.5.7 1.5 1.5-.7 1.5-1.5 1.5zm-15-5.8c-.6-.6-1.8-1.2-3.1-1.8-1.7-.8-3.6-1.4-4.6-1.8-.4-.1-.6-.5-.7-.8-.1-.5-.2-1.1-.3-1.7 2.6-.1 4.7-.3 5.5-.6.2-.1.3-.2.2-.4-.5-1-1.7-4.1-1.9-5.8-.4-4-.4-11.3-6.4-9.5 0 0-3.8-2.2-7 1.5-2.2 2.6-1.7 6.1-1.8 8.1-.1 1.4-1.3 4.6-1.8 5.4-.1.2-.1.4.1.4.9.3 3.1.6 5.6.7-.1.6-.2 1.3-.3 1.8-.1.4-.3.7-.7.8-1 .3-2.9 1-4.6 1.8-1.3.6-2.5 1.2-3.1 1.8s-1.1 1.7-1.3 2.8h27.3c-.1-1-.5-2.1-1.1-2.7z"/></svg>