<svg enable-background="new 0 0 64 64" viewBox="0 0 64 64" xmlns="http://www.w3.org/2000/svg"><path d="m0 0h64v64h-64z" fill="none"/><path d="m61.225 30.206-28.413-26.886c-.459-.427-1.166-.427-1.625 0l-28.412 26.886c-.494.459-.775 1.106-.775 1.784v1.797c0 .67.537 1.213 1.2 1.213h4.8v25h48v-25h4.8c.663 0 1.2-.543 1.2-1.213v-1.797c0-.678-.281-1.325-.775-1.784zm-23.826 24.794h-19.063c-.778 0-1.462-.513-1.68-1.26l-3.346-11.471c-.185-.634.292-1.269.952-1.269h11.378c.778 0 1.462.513 1.68 1.26l2.841 9.73h10.238c0 1.657-1.343 3.01-3 3.01zm3.974 0c.635-.838 1.025-1.87 1.025-3 0-1.105-.896-2-2-2h-8.738l-2.421-8.3c-.464-1.59-1.944-2.7-3.6-2.7h-3.873c1.94-.927 4.39-1.78 5.608-2.184.166-.641.287-1.258.371-1.794-1.072-1.177-1.875-2.588-2.095-4.212-1.086-.307-1.304-2.365-1.304-3.139 0-.775.149-1.194.453-1.324.071-.03.138-.029.207-.034-.152-1.199-.571-5.266.561-6.672.913-1.133 2.646-1.812 4.229-2.228 2.279-.599 3.164-.182 4.465.482 1.983-.481 3.023.236 3.878 1.71.9 1.549.447 5.507.285 6.699.083.001.168.005.256.043.304.13.453.549.453 1.324 0 .774-.218 2.832-1.304 3.139-.274 1.684-1.061 3.079-2.123 4.241.081.528.206 1.133.385 1.76 1.855.614 6.631 2.288 8.017 3.67 2.484 2.478 2.545 9.699 2.632 14.519z"/></svg>