<svg height="48" width="48" xmlns="http://www.w3.org/2000/svg"><path d="m14.563 20.211c5.867 0 11.145-4.789 14.563-9.676-3.812-4.008-8.992-7.426-14.562-7.426s-10.751 3.321-14.564 7.426c3.422 4.887 8.699 9.676 14.563 9.676zm-3.618-13.488c-.879.883-1.367 2.152-1.367 3.422a5.01 5.01 0 0 0 4.984 4.984 5.01 5.01 0 0 0 4.984-4.984c0-1.367-.586-2.543-1.367-3.422 3.223.98 5.863 3.031 7.133 4.203-1.66 1.953-5.961 6.449-10.75 6.449s-9.09-4.496-10.75-6.449c1.27-1.172 3.91-3.227 7.133-4.203zm-9.023 36.617 39.766-39.746 2.406 2.406-39.77 39.746zm36.078-16.641v2.668c4 0 7.336 3.332 7.336 7.332s-3.336 7.332-7.336 7.332v2.668c5.465 0 10-4.535 10-10s-4.535-10-10-10zm4 10c0-2.199-1.801-4-4-4v8c2.199 0 4-1.801 4-4zm0 0"/><path d="m34.43 25.57c-.715.426-6.992 5.422-6.992 5.422h-2.852c-3.141 0-4.285 2.996-4.285 5.707s1.145 5.707 4.285 5.707h2.852l6.992 5.422c.711.43 1.57 0 1.57-.855v-20.692c0-.711-.855-1.285-1.57-.711zm0 0"/></svg>