<svg height="64" viewBox="0 0 64 64" width="64" xmlns="http://www.w3.org/2000/svg"><path d="m0 0h64v64h-64z" fill="none"/><path d="m18.6175 36.2836c-1.0082.8695-2.3621 1.0535-3.5286.6235-4.7055 4.4511-5.0057 8.996-5.0141 15.0929h51.9252s-.164-8.25-2.0349-15.0344c-1.2999-4.7137-4.0588-8.6359-8.1453-11.5249-3.043-7.2611-10.992-12.4407-20.3198-12.4407s-17.2768 5.1796-20.3198 12.4407c-4.0865 2.8891-6.8453 6.8112-8.1453 11.5249-1.8709 6.7844-2.0349 15.0344-2.0349 15.0344h5.79c.0079-6.4366.6627-11.9656 6.1896-17.2261-.4672-1.3311-.1135-2.8682 1.0193-3.8452l1.3801-1.1902c1.4778-1.2747 3.7092-1.1099 4.9839.3679l.0026.0031c1.2747 1.4778 1.1099 3.7092-.368 4.9839zm10.0281-7.4627c-.0165-.3179-.0584-.8929-.1591-1.2249-.1423-.4695-1.2949-1.0514-1.2599-1.9432.0305-.7729 1.3703-1.666 3.7734-1.7628v-.89h-1v-1h1v-1h1v1h1v1h-1v.89c2.403.0969 3.7429.9899 3.7733 1.7628.035.8918-1.1176 1.4736-1.2599 1.9432-.1006.332-.1426.907-.1591 1.2249 2.157 1.3018 3.8457 4.023 3.8457 7.1791 0 3.9315-2.5062 7.1936-5.5432 7.8662-.186.837-.6331 1.4285-1.1568 1.4285s-.9708-.5914-1.1568-1.4285c-3.037-.6726-5.5432-3.9347-5.5432-7.8662 0-3.1561 1.6887-5.8773 3.8456-7.1791z"/><path d="m27.4898 34.5406.6789.7388c-.063.1662-.1141.2697-.0596.4468l.0618.2007c.0492.16.1838.2619.3173.3907l-.0493.7358 1.4102-.4562-.3426-.4993.2803-.3924.8544-.1891.929.8129v.3887l-.8289.3524-.6665 1.2014c-.0811.1462-.0817.3238-.0014.4705l.1691.309-.3522.5135-.3081-.0146-.0296-.5499h-.5226l-.3339.6677.6827.4209v.2758h.8705l1.0015-1.0161-.3048-.7693.6696-.363c.1127.3267.4763 1.1178 1.3771 1.1178.46 0 .6301.1349.6699.2952.0582.2342-.1618.5225-.1618.5225h-.3531l-.1027.6016h1.1152l.3713-.9113s-.0999-1.2037-.6241-1.2919c-.4854-.0815-.6823-.1306-.6823-.1306l-.2322-.6677s.2163-.4013.1494-.933c.13-.0247.2138.0547.5151.5405l.1636.2598c.3628.5654.6841.8555 1.0112.9131.1748.0341.37-.0063.5513-.1445.1606-.1221.2563-.29.2778-.4844.0337-.3086-.1245-.6719-.4702-1.0801-.1216-.1436-.229-.2607-.3218-.3594l.3872-.749-.5898-.6689-.1855.2363c-.5801.7402-.5205.9424-.0122 1.4854.0952.1016.21.2236.3403.3779.3452.4082.3633.6279.355.7041-.0129.1172-.1439.2085-.2456.1904-.0981-.0176-.3174-.1299-.6768-.6904l-.1602-.2549c-.3107-.4995-.5594-.892-1.0882-.7545-.0836-.1821-.196-.368-.3776-.5524l.0951-.6656.5023-.4412c.1262-.1108.1865-.2788.1594-.4446l-.1521-.9338.1419-.1252c.1228-.1084.1809-.2725.1535-.434l-.1556-.9183.6364-.35-.7673-.0829.0311-.6054-.5717.2307-.434-.6621-.0607.7726s-.5983.2362-.7066.4094c-.1037.1659.0757.6617.0757.6617s-.0881 0-.4591 0c-.3711 0-.568-.1321-.568-.1321s.1614.4238.4548.4238.4725 0 .4725 0l-.6339.75-1.1289-.5714.1731-.1499-.3007-.3474 1.8788-1.6309.0631-.4158-.4215.0018-1.8788 1.6308-.2931-.3386-.2764.2393.2934.339-.9736.8451.3584.4141.5578-.4841 1.4348 1.2018.0293.6163-.7388.509-.3794-.1614.0799-.9967z"/></svg>