<svg enable-background="new 0 0 64 64" viewBox="0 0 64 64" xmlns="http://www.w3.org/2000/svg"><path d="m0 0h64v64h-64z" fill="none"/><path d="m9.5 7.2-2.1 2.1 10 10v.8c0 1.5.4 3.8 2.3 4.4.6 5 3.1 8 6.2 10.6.8.7 2.3 1.1 3.8 1.1.1.2.1.5-.4.7-.9.3-3.8.7-6.9-.9 0 0 0 0-.1 0-2.3.6-10.3 2.9-12.8 5.5-2.9 3.1-4 14.5-4 14.5h48.7l3.9 3.9 2.1-2.1zm14.5 44.8h-9v-4h9z"/><path d="m54.2 48.8c-.6-2.9-1.6-5.9-2.9-7.3-1.6-1.7-5.5-3.2-8.7-4.3z"/><path d="m40.7 24.5c1.9-.6 2.3-2.9 2.3-4.4s-.3-2.3-.8-2.5c-.3-.1-.5-.1-.7-.1.2-3.1.4-9.1-.9-11.4-1.5-2.5-3.3-3.1-6.6-2.3-2.1-1.1-3.6-2.2-7.3-1.2-2.6.7-5.4 1.8-6.9 3.8-1 1.3-1.3 4.2-1.2 6.9l18.8 18.7c1.6-2 2.8-4.5 3.3-7.5z"/></svg>