<svg viewBox="0 0 64 64" xmlns="http://www.w3.org/2000/svg"><path d="m0 0h64v64h-64z" fill="none"/><path d="m56.13 51.18a7.51 7.51 0 0 0 -6.57-11.18 7.23 7.23 0 0 0 -3.68.91l2.23 2.23a5.13 5.13 0 0 1 1.45-.2 4.58 4.58 0 0 1 4.58 4.58 4.34 4.34 0 0 1 -.25 1.4z"/><path d="m52.84 50.72-6.49-6.49-4.14-4.14-1.39-1.39-12.67-12.7-20.42-20.39-2.12 2.12 20.28 20.27c-5.59 4.9-10.13 8.89-10.59 9.35a20.67 20.67 0 0 0 -2.48 2.84 8.08 8.08 0 0 0 -1.64-.19 7.52 7.52 0 1 0 7.52 7.52 6.3 6.3 0 0 0 -2.31-5.19 5.83 5.83 0 0 0 -1.62 2.34 5.05 5.05 0 0 1 1 2.85 4.58 4.58 0 1 1 -4.62-4.52 12 12 0 0 0 -1.29 5.22v.32h.73a2.13 2.13 0 0 0 2.25-1.92 8.31 8.31 0 0 1 .4-1.4.42.42 0 0 1 0-.1 14.34 14.34 0 0 1 3.76-5.4c.72-.73 1.39-1.35 1.39-1.35l6.43-5.66c.23.25.19.53-.06.9-2.61 4-3.09 4.79-3.09 5.92a2.36 2.36 0 0 0 2.41 2.21l10 1c2.23.2 4.37.39 5.55-1l3 3a7.31 7.31 0 0 0 -.63 2.8 7.53 7.53 0 0 0 7.52 7.52 7.35 7.35 0 0 0 2.82-.56l3.83 3.83 2.12-2.12-3.37-3.41zm-3.28 1.4a4.58 4.58 0 0 1 -4.56-4.58c0-.13 0-.26 0-.39l5 4.93c-.18.01-.3.04-.44.04z"/><path d="m60.09 11.09c-.65-.39-2.55-1.44-4.73-2.64a6.79 6.79 0 0 0 -8.26 1l-2.88 2.55c-3.72 3.23-9.29 8.1-14.57 12.71l11.73 11.72c.36-2 1-8.09 1.22-12.12.16-2.56-.54-3.48-1.48-3.48s-1.44.28-4 1.65a.43.43 0 0 1 -.6-.08l6.4-5.34 3.37-2.93 2.56-2.25c2.51-2.28 4-1.44 5-.88s3.26 1.75 3.28 1.76a1.82 1.82 0 0 0 1.52.22 3 3 0 0 0 1.53-1.48l.12-.27z"/></svg>