<svg viewBox="0 0 64 64" xmlns="http://www.w3.org/2000/svg"><path d="m0 0h64v64h-64z" fill="none"/><path d="m58.33 56.21-11.19-11.21-4-4-22-22-4-4-9.41-9.39-2.12 2.12 11.53 11.53v33.08a4.27 4.27 0 0 0 3.44 4h.13q3.22.46 6.43.68l2.2.1c1.87.07 3.73.07 5.6 0l2.2-.1q3.21-.21 6.43-.68a4.37 4.37 0 0 0 3.3-2.64 3 3 0 0 0 .11-.32 2.37 2.37 0 0 0 .09-.36 3.08 3.08 0 0 0 .07-.68v-3.08l9.07 9.07zm-26.19-1.84a2.7 2.7 0 1 1 2.7-2.7 2.7 2.7 0 0 1 -2.7 2.7zm11-8.2h-22v-22.91l22 22z"/><path d="m21.14 14.17h22v24l4 4v-30.17a4.14 4.14 0 0 0 -3.42-4 80.47 80.47 0 0 0 -23.09 0 4.21 4.21 0 0 0 -3.49 4v.19l4 4z"/></svg>