<svg viewBox="0 0 64 64" xmlns="http://www.w3.org/2000/svg"><path d="m0 0h64v64h-64z" fill="none"/><path d="m58.33 56.21-9.51-9.51-3-3-13-13-3-3-22.09-22.09-2.12 2.12 21.82 21.82a13.89 13.89 0 0 0 -3.51 5.45h-2.35a6 6 0 0 0 -5.67 4.09l-1.63 4.91a4.74 4.74 0 1 0 3.73 1.08 4.37 4.37 0 0 0 -2.83-1.08s0-.36.54-.36a12.44 12.44 0 0 1 2.65.4l1.24-3.74a2.08 2.08 0 0 1 2-1.42h1.61v.65a13.83 13.83 0 0 0 23.79 9.56l9.24 9.24zm-41.52-7.58a1.92 1.92 0 1 1 -1.92-1.92 1.92 1.92 0 0 1 1.92 1.92zm20.19.65a9.75 9.75 0 0 1 -9.75-9.75 9.64 9.64 0 0 1 3.09-7.08l13.73 13.74a9.68 9.68 0 0 1 -7.07 3.09z"/><path d="m27.29 22.07 12.4.68 3.4.16c0 .07.07.34-.34.46l-3.22.49-.28 2a13 13 0 0 0 -2.25-.18 13.73 13.73 0 0 0 -5.3 1.06l3.3 3.26a9.73 9.73 0 0 1 11.52 11.57l3.26 3.26a13.86 13.86 0 0 0 -6.09-17.41l1.92-12.84 4.85-.33a1.82 1.82 0 0 0 0-3.63l-6.77-.55a2.33 2.33 0 0 0 -2.51 2l-.85 6-.05.33h-12.95a1.84 1.84 0 0 0 -.06 3.68z"/></svg>