<svg height="64" viewBox="0 0 64 64" width="64" xmlns="http://www.w3.org/2000/svg"><path d="m0 0h64v64h-64z" fill="none"/><path d="m17.7225 40.6832s4.6317-3.856 1.7368-11.0524c4.2084-.1764 7.4881-.8692 10.5407-2.0043.5425-1.1568.8243-2.5423 1-4.1905 0 0 .3243-.1478.4775.3658.4344 1.4565.1748 5.1287-.4453 6.4794-.1719.3744.1674.7783.5694.6879 7.1745-1.6137 11.5295-13.1998 11.291-22.6914-.0242-.9652-.6205-1.8257-1.5266-2.1591-4.0724-1.4982-8.5705-1.4171-12.366-.1186 0 .017-8.8412-1.0541-13.8928 5.3935-.2243.2863-.079.7051.2739.7931l4.6189.8134c-2.4301 3.71-3.7321 8.7257-2.9379 14.2201-7.1798-2.9356-11.0621 1.7799-11.0621 1.7799 3.5661.7141 6.4832 2.1295 8.3466 3.3174 1.1774 1.87 2.6821 4.7957 3.3759 8.3658zm17.7823-32.885c.9389.0026 1.6978.766 1.6952 1.7048-.0027.9389-.766 1.6978-1.7048 1.6952s-1.6978-.766-1.6952-1.7048c.0026-.9389.7659-1.6979 1.7048-1.6952z"/><path d="m14.6298 53.1481-1.1007-.7139-1.1002.7109c-.03.0195-3.0069 1.9248-5.7896 1.9248-.8948 0-1.8087-.198-2.6393-.4659v4.0657c.8459.1966 1.7359.3303 2.6393.3303 2.7601 0 5.4398-1.1777 6.8884-1.9424 1.4489.7647 4.1286 1.9424 6.8887 1.9424.8826 0 1.7548-.1244 2.5836-.3134v-4.0726c-.8179.2608-1.7092.456-2.5836.456-2.7827 0-5.7606-1.9053-5.7866-1.9219z"/><path d="m45 25v10h-10v10h-10v14h4v-10h10v-10h10v-10h10v-4z"/></svg>