<svg height="64" viewBox="0 0 64 64" width="64" xmlns="http://www.w3.org/2000/svg"><path d="m0 0h64v64h-64z" fill="none"/><path d="m55.163 44.7716c-.0895-1.5222-1.3007-2.7379-2.8234-2.8181-2.6915-.1417-7.0622-.6259-11.3912-2.1788-.0591-.0414-.128-.0831-.1794-.1243-.0966-.8489-.2382-1.8883-.385-2.8905 2.8209.2978 5.2188.64 6.9231 1.2385.375.1318.771-.1191.875-.5381 1.2578-5.0869 1.8078-8.516 1.8078-12.2415 0-7.4844-2.8127-15.4792-7.1271-18.0651-2.7505-1.6485-5.8428-1.0482-5.8428-1.0482s-2.9731-2.8631-8.1729-1.8836c-8.4834 1.5986-14.8408 9.7429-14.8408 20.9969 0 3.7255.56 7.1546 1.8178 12.2415.1035.419.5.6699.875.5381 1.8217-.6398 4.2865-1.0065 7.3642-1.3018-.1028.865-.2158 1.8299-.3281 2.8105-4.5482 1.7565-9.2411 2.2973-12.075 2.4465-1.5228.0801-2.7339 1.2958-2.8234 2.8181l-.8368 14.2283h24 24zm-23.1127 11.9784s-6.4171-6.9147-8.0676-13.929c1.933-.6949 2.3874-1.9549 2.4377-2.3981.0656-.5789.5774-5.3235.5774-5.3235-2.518-2.48-3.5982-5.5714-4.0564-8.2801-.293-1.7298-.2532-3.3401-.1641-4.4102 4.8018-1.8932 11.6046-5.7473 14.2355-9.0572 0 0 .3203.0146.1174.5033-.3447.8305-.8484 1.8115-1.5488 2.9773 1.2409 2.6346 3.4734 4.5625 5.676 5.9304.0662 1.034.0662 2.4655-.1989 4.0564-.5298 3.1827-2.8208 7.626-5.3403 9.1846-1.7213 1.0648-4.8734 1.2337-6.7116.4403.4235.8396 1.2729 1.8373 3.1547 2.3063 2.5354.6314 4.852-.4047 5.4494-.7518.1117.7949.2157 1.591.2886 2.2786.0458.4327.2339 1.8287 2.2159 2.6458-2.3339 7.3812-8.0649 13.8269-8.0649 13.8269z"/><circle cx="27" cy="44" r="1.5"/><circle cx="30.1" cy="46.1" r="1.5"/><circle cx="33.9" cy="46.1" r="1.5"/><circle cx="37" cy="44" r="1.5"/></svg>