<svg height="64" viewBox="0 0 64 64" width="64" xmlns="http://www.w3.org/2000/svg"><path d="m0 0h64v64h-64z" fill="none"/><path d="m26.1873 10.9421c.4257-.0376.7733-.1922 1.0441-.4309.4218 1.6029 1.6352 2.6989 3.5672 3.1232 2.9571.6495 5.1221-1.0449 5.7774-4.0263.7451-3.3955-.6426-5.6094-3.5215-6.2422-3.0332-.6659-5.1406 1.1279-5.8135 4.1924-.1372.6248-.1761 1.1979-.1648 1.7417-.1249.0895-.3275.0306-.4698-.4093-.1444-.4464-.2856-1.2817-.0719-2.513-.2297-.0704-.4816-.0981-.7561-.0739-1.2273.1084-1.8028 1.1392-1.6807 2.5234.1288 1.4583.8936 2.2204 2.0896 2.1149z"/><circle cx="36" cy="59" r="3"/><circle cx="48" cy="59" r="3"/><path d="m51.267 52.0781c-.3319-.0643-.6624-.0667-1.2323-.0746-.0118-.0002-.0228-.0035-.0347-.0035h-2.4678c-.4443 0-.5977-.1997-.6729-.3896l-4.4062-16.9355c-.0127-.0488-.0283-.0977-.0459-.1455-.6069-1.631-1.9472-2.5294-3.7729-2.5294h-2.4963c-1.4224-2.4682-1.6727-2.9373-2.1102-3.8748-.2948-.6439-.3257-.6602-.549-1.7473-.4164-2.0735-.6037-5.1905-.8621-7.4974-.3279-2.9275-5.1378-5.5904-8.3666-4.5681-4.5051 1.4264-8.1105 10.53-9.383 13.4118-.5096 1.1725-.7367 2.2704-.8162 3.2699l-2.0386 17.4759c1.5262.6206 3.3998.5356 5.5656.3126.0059.0058.0134.0148.019.02.1288.1194.0466.4608-.2374.635-.2725.1671-1.5156.6094-3.1522.8457.0131 2.3884.0319 4.6965.0793 6.6031.0936 3.7567 3.0278 4.8446 3.8922 5.0884.0364-.4462.5539-9.4424.8259-13.3475 1.1319-.127 2.333-.2533 3.5984-.3214.5093 2.3196 1.8549 8.452 2.1018 9.6259.607 2.8846 2.7181 4.2723 5.0753 4.0682 0 0-.8977-8.9449-1.3513-13.3926.515.0916 1.0357.1996 1.5647.3359 0 0-.8088-8.9747-3.8916-15.4437 1.0064-2.3147 2.1245-4.8904 3.144-7.2409.0635.3326.1191.6594.1977 1.0028.436 1.7186.7437 2.6119 2.3278 4.7072 2.2247 2.9426 3.8994 5.0436 5.7177 3.0312h1.1452c.6465 0 .8179.2178.937.5122l1.7806 6.8437-4.3453 10.8464c-.3081.769.1611 1.373.9301 1.6811.7683.3081 1.5474.2025 1.8551-.5659l2.8326-7.0706 1.3497 5.1877c.0098.0371.021.0747.0337.1113.5219 1.5138 1.8725 2.4542 3.5243 2.4542h1.9834c1.2031 0 2.0237-.5281 2.3608-1.3594.2344-.5781.1887-1.4079-.6094-1.5625z"/></svg>