<svg height="64" viewBox="0 0 64 64" width="64" xmlns="http://www.w3.org/2000/svg"><path d="m0 0h64v64h-64z" fill="none"/><path d="m31.5 11.9775c3.1371 0 4.952-2.2094 4.952-5.3887 0-3.6236-1.8971-5.5663-4.952-5.5663-3.2183 0-4.952 2.2967-4.952 5.5663 0 3.445 1.8154 5.3887 4.952 5.3887z"/><path d="m43.6888 32.8934c-.6873-3.7973-1.5374-5.8741-1.8479-8.5127-.687-5.842-2.4202-8.6494-5.6446-9.6706-1.5357-.4862-2.9998-.71-4.6666-.7101h-.0594c-1.6668.0001-3.1309.2239-4.6666.7101-3.2244 1.0212-4.9576 3.8286-5.6446 9.6706-.3105 2.6386-1.1606 4.7154-1.8479 8.5127-.5594 3.0898 1.1044 4.7785 2.4633 4.9574 3.12-10.0822 2.8946-14.4571 3.6686-16.7189.1393-.4069.4868-1.035.4868-1.035-.6605 2.7683-.2397 4.0728.0874 5.4732.3481 1.4898.4286 3.0468.0458 4.5343-.7204 2.7992-3.0218 6.4693-3.0218 15.3999 0 0 2.2966.6234 5.9942.3032.1223.1992.0724.4592-.2386.6769-.2738.1916-1.0998.5802-2.7501.627l.5856 15.8886s3.6438-.5727 3.8914-4.2421c0 0 .3061-9.001.4484-13.1946.1853-.0302.3678-.0578.5581-.093.1603-.0296.3217-.0518.4828-.076.1394 4.0958.4519 13.2595.4519 13.2595.1849 3.7803 3.9026 4.3462 3.9026 4.3462l.66-17.6766c1.7237.1688 2.9298.4569 2.9298.4569 0-8.9306-2.3001-12.8767-3.0205-15.6759-.3827-1.4875-.3023-3.0445.0458-4.5343.3271-1.4004.7479-2.7049.0874-5.4732 0 0 .3475.6281.4868 1.035.774 2.2618.5486 6.6367 3.6686 16.7189 1.3589-.1789 3.0227-1.8676 2.4633-4.9574z"/></svg>