<svg height="64" viewBox="0 0 64 64" width="64" xmlns="http://www.w3.org/2000/svg"><path d="m0 0h64v64h-64z" fill="none"/><path d="m58.583 50.4746-24.207-41c-.5391-.9141-1.5215-1.4746-2.583-1.4746-.0039 0-.0078 0-.0117 0-1.0654.0039-2.0479.5732-2.583 1.4941l-23.793 41c-.5381.9277-.54 2.0732-.0049 3.0029s1.5264 1.503 2.5996 1.503h48c1.0771 0 2.0713-.5771 2.6055-1.5127s.5254-2.085-.0225-3.0127zm-45.373-1.4746 18.6055-32.0615 18.9296 32.0615z"/><path d="m32.3434 30.1878c.9119.5417 1.8188.2167 2.3652-.7028.6223-1.0473.4044-1.9366-.4836-2.4644-.9355-.5558-1.834-.1912-2.3954.754-.5919.9962-.3979 1.8715.5138 2.4132z"/><path d="m33.2069 36.174c-.2258-1.978.5414-3.1309.0223-4.2263-.2599-.5486-1.7822-1.9523-3.2731-1.9017-.6931.0234-1.8619.2911-2.901.5375-.3032.0785-.4282.1088-.8193.3663-.6776.4532-1.4199 1.9801-1.6979 2.4602-.3476.6005-.2773 1.224.1263 1.7941 0 0 .1908-.2786.4637-.6671l1.572 1.0676s-.0497.1149-.2308.6207c-.1812.5057-2.9964 9.0138-3.0925 9.3009-.486 1.4508.6251 2.1631.7947 2.2619.0488-.1089 2.694-5.9742 3.7511-8.3181.5006.9476 1.4585 2.761 1.4585 2.761.2136 1.2664.407 2.5103.6958 4.1948.2753 1.6058 1.7397 1.5515 1.8032 1.5483-.0662-2.3606-.0925-3.3947-.2004-5.5554-.0445-.607-.856-2.5261-1.8236-4.6705l6.4534 4.383c.0869-.1481.212-.3602.3582-.6039l-2.7537-1.8702c-.232-1.1666-.7069-3.4831-.7069-3.4831zm-6.2278-1.227-1.4456-.9818c.5689-.7943 1.2405-1.6946 1.4301-1.7934.219-.1136.8793-.0325 1.3854.0532-.5472.9345-1.0437 2.0064-1.3699 2.722zm3.1447 2.1359c.4866-.8588 1.0872-1.9025 1.6004-2.7552-.0007.6637.0555 1.5974.1252 2.0574.0623.3299.3754 1.5873.5817 2.265z"/><path d="m32.9186 47.98h12.3314s-2.456-5.265-4.768-7.9832c-.6125-.72-1.307-.9218-1.9372-.0938-.5724.7522-1.757 2.7983-1.757 2.7983s-1.3723.5514-2.0624 1.3049c-.9921 1.0833-1.8389 4.0739-1.8068 3.9738z"/></svg>