<svg height="64" viewBox="0 0 64 64" width="64" xmlns="http://www.w3.org/2000/svg"><path d="m0 0h64v64h-64z" fill="none"/><path d="m58.5831 50.4746-24.207-41c-.5391-.9141-1.5215-1.4746-2.5831-1.4746-.0039 0-.0078 0-.0117 0-1.0654.0039-2.0479.5732-2.583 1.4941l-23.793 41c-.5381.9277-.54 2.0732-.0049 3.0029s1.5264 1.503 2.5997 1.503h48c1.0771 0 2.0713-.5771 2.6055-1.5127s.5253-2.085-.0225-3.0127zm-46.5438-.4746 19.7661-34.0615 20.1105 34.0615z"/><path d="m30.2471 35.9756-3.0037-5.2024c-2.8389 1.6428-4.7537 4.7051-4.7537 8.2209h6c.0001-1.2952.7117-2.4133 1.7574-3.0185z"/><path d="m35.4898 38.9941h6c0-3.5158-1.9148-6.5781-4.7537-8.2209l-3.0037 5.2024c1.0458.6052 1.7574 1.7233 1.7574 3.0185z"/><path d="m31.9898 42.4941c-.6378 0-1.2278-.1834-1.7427-.4815l-3.0036 5.2024c1.3976.8088 3.0154 1.2791 4.7463 1.2791s3.3487-.4703 4.7463-1.2791l-3.0036-5.2024c-.5149.2981-1.1049.4815-1.7427.4815z"/><circle cx="31.9898" cy="38.9941" r="2"/></svg>