<svg height="64" viewBox="0 0 64 64" width="64" xmlns="http://www.w3.org/2000/svg"><path d="m0 0h64v64h-64z" fill="none"/><path d="m58.8923 7.7019c-.5589-4.3414-5.7109-6.3738-5.8524-5.4269 7.1592 11.2448-11.5807 13.4296-7.4247 21.4558.2097.405.5041.3423.5041.3423 1.5884-4.8292 5.0861-5.9869 8.6298-8.8207 2.1568-1.7246 4.61-3.9238 4.1432-7.5505z"/><path d="m39.4287 21.3079c-.9717-.9692-2.9247.5259-2.0682 2.0389.3034.5359.6475 1.1247.9681 1.6675l-6.7934 6.7934c-1.4914-1.7027-3.3826-3.0474-5.5352-3.872v-19.5369c.6106-.1571 1.2702-.3301 1.8638-.4946 1.6754-.4643 1.3517-2.9025-.0207-2.9042h-13.6862c-1.3724.0017-1.6962 2.4399-.0207 2.9042.5936.1645 1.2532.3375 1.8638.4946v19.5369c-5.2592 2.0146-9 7.0965-9 13.0643 0 4.5762 2.1961 8.6388 5.5915 11.1933.4237.3188.7791.7387.9167 1.2508.7965 2.9634-2.6733 4.5164-4.7808 5.1691-.9107.282-1.5085 1.0349-1.5085 1.8765v1.5103h27.5621v-1.5103c0-.8417-.5978-1.5945-1.5085-1.8765-1.7167-.5317-4.3364-1.6613-4.8185-3.6637-2.6286.5454-4.6266.3551-5.1212.2838-.4266-.0615-.3214-.358-.306-.3619 2.4811-.3625 4.6937-1.4052 6.6125-2.8611 3.2622-2.5631 5.3607-6.5399 5.3607-11.0103 0-.4321-.0251-.8577-.0635-1.2797l9.049-9.049c.5428.3207 1.1317.6647 1.6677.9681 1.513.8565 3.0082-1.0965 2.0389-2.0682z"/></svg>