<svg height="64" viewBox="0 0 64 64" width="64" xmlns="http://www.w3.org/2000/svg"><path d="m0 0h64v64h-64z" fill="none"/><path d="m52.0428 27c-1.0002.7503-3.4848 2.75-6 2.75-2.4616 0-4.9159-1.9367-6-2.75-1.0002.7503-3.4848 2.75-6 2.75-2.4616 0-4.9159-1.9367-6-2.75-1.0002.7503-3.4848 2.75-6 2.75-.0141 0-.0289-.0034-.043-.0035v3.9111c.0145.0001.0285.0023.043.0023 2.397 0 4.6631-1.0762 6-1.8633 1.3369.7871 3.603 1.8633 6 1.8633s4.6631-1.0762 6-1.8633c1.3369.7871 3.603 1.8633 6 1.8633s4.6631-1.0762 6-1.8633c1.3369.7871 3.603 1.8633 6 1.8633 1.0322 0 2.0372-.2025 2.957-.4926v-4.203c-.8999.4195-1.9733.7856-2.957.7856-2.4616.0001-4.9159-1.9366-6-2.7499z"/><path d="m52.0428 18c-1.0002.7503-3.4848 2.75-6 2.75-2.4616 0-4.9159-1.9367-6-2.75-1.0002.7503-3.4848 2.75-6 2.75-2.4616 0-4.9159-1.9367-6-2.75-1.0002.7503-3.4848 2.75-6 2.75-.0141 0-.0289-.0034-.043-.0035v3.9111c.0145.0001.0285.0023.043.0023 2.397 0 4.6631-1.0762 6-1.8633 1.3369.7871 3.603 1.8633 6 1.8633s4.6631-1.0762 6-1.8633c1.3369.7871 3.603 1.8633 6 1.8633s4.6631-1.0762 6-1.8633c1.3369.7871 3.603 1.8633 6 1.8633 1.0322 0 2.0372-.2025 2.957-.4926v-4.203c-.8999.4195-1.9733.7856-2.957.7856-2.4616.0001-4.9159-1.9366-6-2.7499z"/><path d="m58.0428 11.75c-2.4616 0-4.9159-1.9367-6-2.75-1.0002.7503-3.4848 2.75-6 2.75-2.4616 0-4.9159-1.9367-6-2.75-1.0002.7503-3.4848 2.75-6 2.75-2.4616 0-4.9159-1.9367-6-2.75-1.0002.7503-3.4848 2.75-6 2.75-.0141 0-.0289-.0034-.043-.0035v3.9111c.0145.0001.0285.0023.043.0023 2.397 0 4.6631-1.0762 6-1.8633 1.3369.7871 3.603 1.8633 6 1.8633s4.6631-1.0762 6-1.8633c1.3369.7871 3.603 1.8633 6 1.8633s4.6631-1.0762 6-1.8633c1.3369.7871 3.603 1.8633 6 1.8633 1.0322 0 2.0372-.2025 2.957-.4926v-4.203c-.8999.4196-1.9732.7857-2.957.7857z"/><path d="m20 42.5201v-33.5601c0-3.8377-3.1223-6.96-6.96-6.96-3.8881 0-7.04 3.1519-7.04 7.04v33.485c-2.5023 2.0714-4 5.1809-4 8.475 0 6.0654 4.9346 11 11.0001 11 5.5366 0 10.0527-4.041 10.8643-9.2559.612-3.9334-.8819-7.7736-3.8644-10.224zm.3524 11.7427c-1.076 2.6926-3.6172 4.3009-6.2866 4.6685-.6127.0844-.6752-.0719-.6439-.2438 2.9219-1.2031 4.8638-4.0159 4.8638-7.2232 0-2.6069-1.298-4.9096-3.2857-6.3308v-6.1335h-3v-2h3v-5h-3v-2h3v-5h-3v-2h3v-4.7857h-6v-9.2143c0-2.2092 1.7908-4 4-4h.04c2.1871 0 3.96 1.7729 3.96 3.96v35.119c3.2377 1.8755 5.0467 5.9443 3.3524 10.1838z"/></svg>