<svg height="64" viewBox="0 0 64 64" width="64" xmlns="http://www.w3.org/2000/svg"><path d="m0 0h64v64h-64z" fill="none"/><path d="m55 7h-46c-1.1045 0-2 .8955-2 2v34.99c0 1.1045.8955 2 2 2h16.5s-.5342 1.9412-1.5 5.01c-.5779 1.8373-2.3791 1.992-2.8691 2h-2.1309c-.5527 0-1 .4478-1 1v2h28v-2c0-.5522-.4473-1-1-1h-2.1309c-.49-.008-2.2912-.1627-2.8691-2-.3881-1.233-.7027-2.2706-.9447-3.0848 0 0-4.4024-.6396-8.9772-1.5323-.3203-.0625-.2812-.2969-.2443-.3828h25.1662c1.1045 0 2-.8955 2-2v-35.0001c0-1.1045-.8955-2-2-2zm-3 32h-40v-27h40z"/><circle cx="28" cy="34" r="2"/><circle cx="37" cy="34" r="2"/><path d="m24.7346 17h1.2654l.8977 8.9224.0155.015-1.4713 2.9431c-.2285.4575-.2041.9902.0645 1.4253.269.4344.7348.6942 1.246.6942h12.2476c.3869 0 .7006-.4478.7006-1 0-.5523-.3137-1-.7006-1h-11.3818l1.0016-2.0033h9.8422s1.389.0133 1.5381-1.0758c.1917-1.3997.9999-7.7606.9999-7.7606s.0191-1.1536-1.1345-1.1536c-.8663 0-7.7759 0-11.8723 0l.0068-.0067-.6906-1.3811c-.1896-.3793-.5773-.6189-1.0014-.6189h-1.5735c-.4056 0-.7345.3289-.7345.7346v.5309c0 .4056.3289.7345.7346.7345z"/></svg>