<svg enable-background="new 0 0 64 64" viewBox="0 0 64 64" xmlns="http://www.w3.org/2000/svg" xmlns:xlink="http://www.w3.org/1999/xlink"><clipPath id="a"><path d="m3.5 7.1h57v50.5h-57z"/></clipPath><path d="m0 0h64v64h-64z" fill="none"/><g fill="#1d1d1b"><path clip-path="url(#a)" d="m49.5 35.8c0 1.5 1.2 2.7 2.7 2.7s2.7-1.2 2.7-2.7-1.2-2.7-2.7-2.7c-1.4-.1-2.7 1.1-2.7 2.7m-34.4-19.7 1.8-3.2-6.3-3.7-1.8 3.2zm12.7 7.3 1.8-3.2-6.3-3.7-1.8 3.2zm12.6 7.3 1.8-3.2-6.3-3.7-1.8 3.2zm11.9 9.7c2.6 0 4.7-2.1 4.7-4.7s-2.1-4.7-4.7-4.7-4.7 2.1-4.7 4.7 2.1 4.7 4.7 4.7m-45.6-28 2.7-4.7c.3-.4.8-.6 1.2-.3l38.4 21.9c.1 0 .2-.2 0-.5l-2.2-2.2h11c1.5 0 2.7 1.2 2.7 2.7v28.3h-16.5v-22.7l-37-21.3c-.4-.2-.5-.8-.3-1.2"/><path d="m20.8 32.6 1.2 25.1h13.3l-10.1-25.1z"/><path d="m13.5 32.6-10 25.1h13.3l1.2-25.1z"/></g></svg>