<svg enable-background="new 0 0 64 64" viewBox="0 0 64 64" xmlns="http://www.w3.org/2000/svg"><path d="m0 0h64v64h-64z" fill="none"/><path d="m11.305 16.576-4.584-6.246 5.155-2.323-9.886-7.182 4.584 6.246-5.155 2.324z"/><path d="m50.695 16.576 9.886-7.181-5.155-2.324 4.584-6.246-9.886 7.182 5.156 2.323z"/><path d="m34.012 54.245c.023-1.027.521-1.975 1.333-2.577-.88-.626-1.406-1.644-1.39-2.734.009-.565.165-1.106.436-1.581-1.419.813-2.684 1.339-3.341 1.585-1.486-.638-6.143-2.881-8.393-6.799 2.881-1.193 2.713-2.273 2.763-2.717.066-.579.577-5.324.577-5.324-2.518-2.48-3.598-5.571-4.056-8.28-.293-1.73-.253-3.34-.164-4.41 4.802-1.893 11.604-5.747 14.235-9.057 0 0 .32.015.117.503-.344.831-.848 1.812-1.549 2.977 1.241 2.635 3.473 4.562 5.676 5.93.066 1.034.066 2.466-.199 4.056-.53 3.183-2.821 7.626-5.34 9.185-1.721 1.065-4.874 1.234-6.712.44.424.84 1.273 1.837 3.155 2.306 2.535.631 4.852-.405 5.449-.752.112.795.216 1.591.289 2.279.015.14.038.346.161.607l2.675-1.511c-.095-.794-.22-1.715-.352-2.613 1.473.156 2.827.324 4.031.534l4.384-2.477c.817-3.704 1.191-6.56 1.191-9.598 0-7.484-2.813-15.479-7.127-18.065-2.75-1.648-5.843-1.048-5.843-1.048s-2.973-2.863-8.173-1.884c-8.483 1.599-14.841 9.743-14.841 20.997 0 3.725.56 7.155 1.818 12.241.104.419.5.67.875.538 1.822-.64 4.287-1.007 7.364-1.302-.112.94-.235 1.994-.357 3.063-1.674 1.195-8.777 2.658-11.495 5.498-2.756 2.887-4.209 13.745-4.209 13.745h30l-1.416-.869c-1-.613-1.598-1.713-1.572-2.886z"/><path d="m62.045 51.356-.669-.342-12.987 8.636-11.064-6.768-.619.343c-.389.215-.634.621-.644 1.066-.01.444.217.861.596 1.093l11.104 6.814c.201.123.427.185.654.185.241 0 .482-.07.691-.208l13.06-8.664c.37-.245.582-.668.557-1.112s-.284-.84-.679-1.043z"/><path d="m61.989 45.913-.66-.338-13.001 8.635-11.047-6.674-.638.359c-.388.218-.63.625-.638 1.07-.007.445.223.86.604 1.09l11.104 6.704c.199.12.422.18.646.18.241 0 .482-.07.691-.208l13.06-8.664c.37-.245.582-.668.557-1.112s-.283-.84-.678-1.042z"/><path d="m35.912 43.6c-.006.445.225.859.607 1.088l11.104 6.664c.198.119.421.178.643.178.241 0 .482-.07.691-.208l13.06-8.664c.37-.245.582-.668.557-1.112s-.283-.84-.679-1.042l-10.823-5.537c-.374-.191-.818-.182-1.184.024l-13.341 7.537c-.387.219-.629.627-.635 1.072zm14.62-6.101 8.322 4.258-10.622 7.046-8.587-5.153z"/></svg>