<svg height="64" viewBox="0 0 64 64" width="64" xmlns="http://www.w3.org/2000/svg"><path d="m0 0h64v64h-64z" fill="none"/><path d="m25 42h14v4h-14z"/><path d="m32 7c-13.7852 0-25 11.2148-25 25s11.2148 25 25 25 25-11.2148 25-25-11.2148-25-25-25zm14.2343 37.8201-2.9206-2.9207-1.4142 1.4142 2.919 2.9189c-3.3974 3.0719-7.885 4.9575-12.8185 4.9575s-9.4211-1.8856-12.8185-4.9573l2.919-2.9189-1.4142-1.4142-2.9206 2.9207c-2.8497-3.1707-4.6697-7.2865-4.905-11.8203h4.1393v-2h-4.1393c.2355-4.5358 2.0632-8.6433 4.9163-11.8088l2.9093 2.9094 1.4142-1.4142-2.9094-2.9093c3.1655-2.8531 7.273-4.6808 11.8088-4.9163v4.1393h2c0-1.4562 0-2.7069 0-4.1393 4.5358.2355 8.6433 2.0632 11.8088 4.9163l-2.9094 2.9093 1.4142 1.4142 2.9093-2.9094c2.8531 3.1655 4.6808 7.273 4.9163 11.8088h-4.1391v1.99h4.1393c-.2353 4.5338-2.0553 8.6596-4.905 11.8301z"/><path d="m31.7451 38.5613c1.5986-.0777 2.8939-1.2389 3.2223-2.7555.2146-.9911 2.8715-14.8517 2.8715-14.8517.229-1.2361-1.1119-1.7028-1.7438-.6068l-5.6987 9.7007c2.05.0574 2.9184.9916 3.2084 1.4048.3726.5309.1921.719.1051.7283-.0073-.0006-.0157.001-.023.0004-.6345-.4954-1.4277-.7863-2.2878-.7445-1.9307.0938-3.4184 1.7646-3.3228 3.732.0955 1.9673 1.7381 3.4861 3.6688 3.3923z"/></svg>