<svg height="64" viewBox="0 0 64 64" width="64" xmlns="http://www.w3.org/2000/svg"><path d="m0 0h64v64h-64z" fill="none"/><path d="m10.145 21.9883c.9899 1.6699-1.2804 5.3242-2.4765 7.0823-.15.2205.1078.484.3323.34 1.7396-1.1155 5.5396-3.1903 7.0592-2.5072 1.4962.6723 2.7292 5.855 3.1866 7.9022.0587.2621.4345.2584.4789-.0065.3308-1.9746 1.669-7.056 3.2853-7.8957 1.4587-.7579 5.3954 1.2172 7.0628 2.4216.2196.1587.4933-.1027.3447-.3293-1.1469-1.7495-3.2485-5.2037-2.4926-7.0074.7953-1.8971 6.0593-2.8593 8.058-3.2528.2612-.0513.2659-.4192.0059-.4754-2.0483-.443-7.4489-1.4819-8.0638-3.2225-.6408-1.8142 1.3961-5.3942 2.4437-7.0557.1366-.2165-.1047-.4716-.3265-.3435-1.7742 1.0251-5.6454 3.0931-7.0322 2.4841-1.3987-.6143-2.697-6.7266-3.2256-8.6655-.0664-.2438-.4113-.2388-.4714.0066-.4682 1.9147-1.649 7.9296-3.2539 8.6589-1.5753.716-5.2522-1.3426-6.9938-2.4178-.2186-.1349-.4717.1175-.3363.3358 1.066 1.7165 3.0908 5.3256 2.4152 6.9971-.675 1.6697-6.2967 2.7836-8.2752 3.2408-.2507.0579-.2542.4142-.0038.4738 1.891.4497 7.2689 1.532 8.279 3.2361zm8.3582-9.8092c3.4851 0 6.3102 2.8252 6.3102 6.3102 0 3.4849-2.8251 6.3102-6.3102 6.3102-3.485 0-6.3102-2.8253-6.3102-6.3102 0-3.485 2.8251-6.3102 6.3102-6.3102z"/><path d="m61 36.295c0-.7363-.7218-1.295-1.48-1.295h-36.0195c-.5811 0-1.475.3077-1.9079.9495l-15.6574 22.6163c-.7203 1.0405.0459 2.4352 1.2848 2.4342h34.2596c1.1116 0 2.1514-.5493 2.778-1.4675l15.2255-22.3167c.0582.0144.2546.0922.16.4116l-2.6431 6.4773v12.8953h-8.3501l-2.5747 3.7729c-.0545.0798-.1183.1507-.1765.2271h15.1013zm-19.6731 21.705h-31.0288l13.6538-20h31.2212z"/><path d="m28.0582 49-4.8461 7h7.5058l4.8461-7z"/><path d="m36.9487 47 4.7596-6.875h-7.5058l-4.7596 6.875z"/><path d="m27.6929 47 4.7596-6.875h-7.4525l-4.7638 6.875z"/><path d="m18.8504 49-4.8504 7h7.4621l4.8461-7z"/><path d="m32.4679 56h7.5321l4.8504-7h-7.5364z"/><path d="m46.2362 47 4.7638-6.875h-7.5417l-4.7596 6.875z"/></svg>