<svg height="64" viewBox="0 0 64 64" width="64" xmlns="http://www.w3.org/2000/svg"><path d="m0 0h64v64h-64z" fill="none"/><path d="m57.8852 22.2789-.6307-1.5227c-.3421-.8259-1.3262-1.1711-2.1093-.7399l-5.1501 2.8359c-.7481.412-1.0668 1.3205-.7401 2.1096.3267.7889 1.1945 1.2061 2.0146.9684l5.6473-1.6365c.8587-.249 1.3104-1.1889.9683-2.0148z"/><path d="m39.271 14.7451c.789.3267 1.6975.008 2.1094-.7401l2.836-5.1501c.4312-.7831.086-1.7672-.7399-2.1093l-1.5227-.6307c-.8259-.3421-1.7659.1096-2.0147.9683l-1.6365 5.6473c-.2377.8201.1795 1.6878.9684 2.0146z"/><path d="m22.6196 14.0049c.4119.7481 1.3204 1.0668 2.1094.7401.7889-.3267 1.2061-1.1945.9684-2.0146l-1.6364-5.6473c-.2488-.8586-1.1888-1.3104-2.0147-.9683l-1.5228.6307c-.8259.3421-1.1711 1.3262-.7399 2.1093z"/><path d="m14.7451 24.9617c.3267-.7891.008-1.6976-.7401-2.1096l-5.1501-2.8359c-.7831-.4312-1.7672-.086-2.1093.7399l-.6307 1.5227c-.3421.8259.1096 1.7659.9683 2.0147l5.6473 1.6365c.8201.2377 1.6878-.1794 2.0146-.9683z"/><path d="m49.1341 54.2288c-.6318-.1751-1.3804-.3569-2.1341-.5334v-3.6954h-30v3.6954c-.7537.1766-1.5023.3583-2.1341.5334-2.7514.7628-2.2198 4.7684.034 4.7712h34.2002c2.2538-.0028 2.7854-4.0084.034-4.7712z"/><path d="m22.8276 24.1934c.0391-.5063.3999-.9355.8979-1.0684 1.9234-.5132 4.9205-1.175 8.2745-1.175s6.3511.6618 8.2744 1.175c.498.1328.8589.562.8975 1.0615l.1057 1.4382c-11.7152-2.0129-15.4026.0753-15.4026.0753l-.5251 6.2452c1.1885-1.0442 2.7424-1.6823 4.4487-1.6823.972 0 1.8938.2094 2.7288.5793-2.3539 1.0602-3.9954 3.4216-3.9954 6.1707s1.6415 5.1105 3.9954 6.1708c-.835.3698-1.7567.5792-2.7287.5792-2.1116 0-3.9953-.9708-5.233-2.489l-.5657 6.7261h23l-1.8394-24.1133c-.1689-2.1973-1.7183-4.0566-3.855-4.627-2.1547-.5746-5.518-1.2597-9.3056-1.2597s-7.1509.6851-9.3057 1.2598c-2.1367.5703-3.686 2.4297-3.8555 4.6338l-1.8388 24.1064h4z"/></svg>