<svg height="64" viewBox="0 0 64 64" width="64" xmlns="http://www.w3.org/2000/svg"><path d="m0 0h64v64h-64z" fill="none"/><path d="m31.5041 11.5319c2.7442.0193 4.3462-1.8908 4.3657-4.6577.0226-3.1525-1.6253-4.8544-4.298-4.874-2.8154-.0201-4.3464 1.968-4.3667 4.812-.0219 2.9973 1.5553 4.6993 4.299 4.7197z"/><path d="m39.7627 30.7242c0-3.0771-2.7501-5.8572-4.0541-7.7397.0002-.0144.0021-.0283.0023-.0427 2.9733-2.303.0516-3.4016-1.1618-6.5026-.6419-1.6402-.7928-3.4392-4.5491-3.4392-1.9167 0-4 .8205-5.5286 3.8423-3.0817 6.0924-5.4714 18.0972-5.4714 18.0972s2.3719.5843 3.9843-1.9547c.9834-1.9777 3.0493-9.187 3.4688-10.6254.1539-.0899.3281-.125.29.3041-.5166 5.8207-4.4788 18.0519-4.9944 19.9857 1.0543.7825 3.8065 2.175 8.0355 2.2251.0752.2195-.0789.3263-.6436.5789-.5938.2656-2.1586.8225-3.5553.7713-.5339 2.6123-2.0398 7.122-2.5693 10.2768-.43 2.5605 1.2419 4.8585 2.6097 5.2594 1.7187-5.432 2.7197-8.335 3.6879-11.1408.3375 2.8102.5905 5.2981.7337 6.2469.4978 3.2974 2.5847 4.9605 3.9526 4.8561v-17.272c1.8115-.4537 3.1288-1.1547 3.1288-1.1547-.1706-2.2166-.5088-4.5002-1.0892-6.6856 1.1821-.7765 3.7232-3.1792 3.7232-5.8864z"/></svg>