<svg height="64" viewBox="0 0 64 64" width="64" xmlns="http://www.w3.org/2000/svg"><path d="m0 0h64v64h-64z" fill="none"/><path d="m14.3368 31.3222c-1.0235 1.6764-1.8265 3.2629-2.1474 4.8643-.5508 2.7529.1221 5.46 1.8955 7.623 2.1827 2.6632 5.7598 4.1905 9.8145 4.1905 1.4874 0 2.9056-.2121 4.2164-.6061.3644-.1095.4154-.3001.3074-.4491-4.4854-.5497-8.3673-2.5164-10.8906-5.5952-2.3734-2.8949-3.3262-6.5198-2.6521-10.219-.1513-.0889-.3597-.1098-.5437.1916z"/><path d="m36.3615 30.2904c1.3358-.1661 2.8507-.2736 4.3775-.3419-3.8198-7.5663-12.0207-13.8278-15.7244-24.9388-.3463-1.039-.6556-1.3763-1.1152-1.3763s-.7694.3373-1.1157 1.3763c-4.4625 13.3876-15.4423 19.7347-17.4574 29.8032-2.1122 10.5528 6.2569 20.1871 18.5727 20.1871 2.2199 0 4.308-.3162 6.2318-.8897-.116-1.3324-.1893-2.7617-.2327-4.16-1.8438.6735-3.8658 1.0497-5.9987 1.0497-4.957 0-9.3799-1.9277-12.1348-5.2891-2.3535-2.8711-3.247-6.4629-2.5166-10.1132.8135-4.0625 3.6621-7.6826 6.96-11.875 2.5742-3.2734 5.3877-6.8486 7.6924-11.21 2.3027 4.3516 5.1143 7.9209 7.6875 11.1875 1.8233 2.314 3.494 4.454 4.7736 6.5902z"/><path d="m58.435 35.826c-.1949-1.1729-1.0873-2.0652-2.2607-2.2607-3.3914-.5653-9.0442-.5653-10.1742-.5653s-6.7828 0-10.1743.5654c-1.1734.1955-2.0657 1.0878-2.2607 2.2607-.5651 3.3912-.5651 9.0436-.5651 10.1739 0 1.1304 0 6.7827.5651 10.174.195 1.1728 1.0873 2.0651 2.2607 2.2607 3.3914.5653 9.0442.5653 10.1743.5653s6.7828 0 10.1742-.5653c1.1735-.1956 2.0658-1.0879 2.2607-2.2607.565-3.3913.565-9.0436.565-10.174 0-3.393 0-6.7827-.565-10.174zm-14.1887 1.174 3.8137-.3066-.3058 8.7939v3.5127h-3.5079zm1.7917 18.06c-1.3195 0-2.0737-.7116-2.0737-2.0343 0-1.1701.6998-2.0857 2.0464-2.0857 1.3195 0 2.0735.7373 2.0735 2.0857.0001 1.1444-.7004 2.0343-2.0462 2.0343z"/></svg>