<svg height="64" viewBox="0 0 64 64" width="64" xmlns="http://www.w3.org/2000/svg"><path d="m0 0h64v64h-64z" fill="none"/><path d="m2.2453 26c3.8909 0 6.713-2.53 9.2029-4.7621.7599-.6813 1.5026-1.347 2.2197-1.8959.0039.0106.0077.021.0115.0316 1.5398 4.2112 4.5662 6.6264 8.3033 6.6264 3.8887 0 6.6943-2.5244 9.1696-4.7517.7687-.6917 1.5198-1.3675 2.2472-1.922.0057.0157.0115.0316.0173.0474 1.5397 4.2111 4.5662 6.6263 8.3033 6.6263 3.8867 0 6.6759-2.519 9.1367-4.7415.7775-.7021 1.5368-1.3879 2.2745-1.9479.0076.0209.0152.0421.0229.063 1.4354 3.9255 4.4191 6.7347 8.4142 6.6248l1.4316-.0397v-4.0015l-1.5425.0428c-4.9343 0-5.3924-8-5.3924-8-5.9886 0-9.4106 8-14.345 8s-5.3924-8-5.3924-8c-5.9281 0-9.4106 8-14.345 8s-5.3923-8-5.3923-8c-5.8677 0-9.4108 8-14.3451 8-.4563 0-.8624-.0874-1.2453-.2116v4.1124c.4058.0617.8199.0992 1.2453.0992z"/><path d="m11.4482 35.2379c.7599-.6812 1.5026-1.347 2.2197-1.8959.0039.0106.0077.0211.0115.0316 1.5398 4.2112 4.5662 6.6264 8.3033 6.6264 3.8887 0 6.6943-2.5244 9.1696-4.7516.7687-.6917 1.5198-1.3676 2.2472-1.9221.0057.0157.0115.0316.0173.0474 1.5397 4.2111 4.5662 6.6263 8.3033 6.6263 3.8867 0 6.6759-2.519 9.1367-4.7415.7775-.7021 1.5368-1.3879 2.2745-1.9479.0076.0209.0152.0421.0229.063 1.5398 4.2112 4.5662 6.6264 8.3033 6.6264h.0555l.0555-.0015 1.4315-.0398v-4.0015l-1.5425.0428c-4.9343 0-5.3924-8-5.3924-8-5.9886 0-9.4106 8-14.345 8s-5.3924-8-5.3924-8c-5.9281 0-9.4106 8-14.345 8s-5.3923-8-5.3923-8c-5.8677 0-9.4108 8-14.3451 8-.4563 0-.8624-.0874-1.2453-.2116v4.1124c.4058.0617.8199.0992 1.2453.0992 3.8909 0 6.713-2.53 9.2029-4.7621z"/><path d="m56.0651 42c-5.9886 0-9.4106 8-14.345 8s-5.3924-8-5.3924-8c-5.9281 0-9.4106 8-14.345 8s-5.3923-8-5.3923-8c-5.8677 0-9.4108 8-14.3451 8-.4563 0-.8624-.0874-1.2453-.2116v4.1124c.4058.0617.8199.0992 1.2453.0992 3.8909 0 6.713-2.53 9.2029-4.7621.7599-.6813 1.5026-1.347 2.2197-1.8959.0039.0106.0077.021.0115.0316 1.5398 4.2112 4.5662 6.6264 8.3033 6.6264 3.8887 0 6.6943-2.5244 9.1696-4.7517.7687-.6917 1.5198-1.3675 2.2472-1.922.0057.0157.0115.0316.0173.0474 1.5397 4.2111 4.5662 6.6263 8.3033 6.6263 3.8867 0 6.6759-2.519 9.1367-4.7415.7775-.7021 1.5368-1.3879 2.2745-1.9479.0076.0209.0152.0421.0229.063 1.4354 3.9255 4.4191 6.7347 8.4142 6.6248l1.4316-.0397v-4.0015l-1.5425.0428c-4.9344 0-5.3924-8-5.3924-8z"/></svg>