<svg height="64" viewBox="0 0 64 64" width="64" xmlns="http://www.w3.org/2000/svg"><path d="m0 0h64v64h-64z" fill="none"/><path d="m56.043 15.75c-1.8911 0-4.1094-1.3379-4.7998-1.8496l-1.2002-.9004-1.2002.9004c-.6396.4795-2.895 1.8496-4.7998 1.8496-1.8911 0-4.1094-1.3379-4.7998-1.8496l-1.2002-.9004-1.2002.9004c-.6396.4795-2.895 1.8496-4.7998 1.8496-1.8911 0-4.1094-1.3379-4.7998-1.8496l-1.2002-.9004-1.2002.9004c-.6396.4795-2.895 1.8496-4.7998 1.8496-1.8911 0-4.1094-1.3379-4.7998-1.8496l-1.2002-.9004-1.2002.9004c-.6397.4795-2.895 1.8496-4.7998 1.8496-1.0184 0-2.1246-.3893-3.043-.8273v4.2183c.9427.3047 1.9789.519 3.043.519 2.397 0 4.6631-1.0762 6-1.8633 1.3369.7871 3.603 1.8633 6 1.8633s4.6631-1.0762 6-1.8633c1.3369.7871 3.603 1.8633 6 1.8633s4.6631-1.0762 6-1.8633c1.3369.7871 3.603 1.8633 6 1.8633s4.6631-1.0762 6-1.8633c1.3369.7871 3.603 1.8633 6 1.8633 1.0322 0 2.0372-.2025 2.957-.4926v-4.203c-.8999.4195-1.9733.7856-2.957.7856z"/><path d="m28.1621 39.2383c-.1672-.1419-.3651-.2202-.566-.2355-.272-.0207-.5494.0739-.7631.2822-.3721.3612-.4409.9571-.163 1.4042l2.0644 3.3108h-21.2195c-1.1674 0-1.5149 1.1241-1.5149 2.1197 0 .9974.3475 1.8803 1.5149 1.8803h21.2195l-3.0645 3.3107c-.2778.4471-.2091 1.043.163 1.4042.2137.2083.4911.3029.7631.2822.2009-.0153.3989-.0936.566-.2355l7.9539-5.9118c.2426-.2064.3841-.5192.3841-.8498s-.1415-.6434-.384-.8499z"/><path d="m45.1621 25.2383c-.1672-.1419-.3651-.2202-.566-.2355-.272-.0207-.5494.0739-.7631.2822-.3721.3612-.4409.9571-.163 1.4042l2.0644 3.3108h-38.2195c-1.1674 0-1.5149 1.1241-1.5149 2.1197 0 .9974.3475 1.8803 1.5149 1.8803h38.2195l-2.0645 3.3107c-.2778.4471-.2091 1.043.163 1.4042.2137.2083.4911.3029.7631.2822.2009-.0153.3989-.0936.566-.2355l6.9539-5.9118c.2426-.2064.3841-.5192.3841-.8498s-.1415-.6434-.384-.8499z"/></svg>