<svg height="64" viewBox="0 0 64 64" width="64" xmlns="http://www.w3.org/2000/svg"><path d="m0 0h64v64h-64z" fill="none"/><path d="m11.4594 15.0507c1.0433.1713 1.7669-.4601 1.9395-1.5122.1968-1.1982-.3287-1.9444-1.3448-2.1113-1.0704-.1757-1.7717.4894-1.9491 1.5707-.187 1.1397.3113 1.8816 1.3544 2.0528z"/><path d="m9.6267 25.7438c-.5703-.3301-1.3216-.7637-1.3216-.7637-.1874.7066-.4933 1.8578-.762 2.5425-.2139.5452-.1401.3903-.3475.7448-.4195.7173-.9609 1.4421-1.4263 2.2563-.7654 1.3389.1602 2.3222.29 2.4478.7522-1.0566 2.0488-2.6188 2.78-3.7185.2448-.3632.2717-.3927.5471-.9214.2092-.4232.494-1.0308.903-2.0439.1794.1639.353.3491.5323.5295.4413.444.714.6599.8879.9879.0526.0991.162.3244.2723.6086.6735 1.735 1.212 2.7452 1.5101 3.4564.4482 1.0692 1.6934 1.174 2.0427 1.0682-.3436-1.3581-1.1373-4.1334-1.5798-5.4813-.3126-.9524-.3549-.9675-.5571-1.2999-.2366-.3889-.4608-.6877-.681-.9927-.4616-.6273-.941-1.2408-1.4285-1.8508.1934-1.0144.4757-2.2682.7401-3.3887.1129.3514.2412.7172.4374 1.1118.2378.4645 1.026 1.1802 1.3851 1.5587.8688.9156 1.7835.5164 1.9705.4184-.3309-.4424-1.1469-1.3809-1.369-1.6541-.1739-.2139-.5897-.7068-.7029-.957-.1547-.3337-.2806-.7698-.3907-1.1636-.0515-.184-.5746-2.345-.655-2.4616-.2824-.7044-2.4102-1.6865-3.6694-.9361-.6928.4128-1.9958 1.3818-2.6562 2.1055-.4012.4451-.5633.7131-.7354 1.6899-.1048.616-.1721 1.3283-.1844 1.9481-.0139.6887.3506 1.3403 1.0723 1.4907.1555-1.1766.4012-2.9349.7781-3.6977.1534-.3105.8485-.7744 1.1389-.9631-.1846.8564-.8214 3.7122-.8214 4.3661 0 .8087.5225 1.2287.8561 1.5782l1.3038 1.366s-.0484.0831-.1595.0187z"/><path d="m43.1379 2.0908c.8621-.1725 1.0346-.2962 1.0346-.4686s-.5173-.3449-1.3794-.3793c0 0-1.3103.2069-1.2414.7586.069.5517.7241.2617 1.5862.0893z"/><path d="m30.4991 27.2271 2.9127 1.2896c.4683.2072 1.0036.2143 1.4688.0005 1.3253-.6087 3.1701-1.6872 3.883-2.9932.1371-.2514.172-.546.1626-.8322-.0089-.2719-.0286-.5405-.0568-.7916-.0966-.8617-.7981-1.5347-1.6633-1.5929-.4968-.0334-1.0943-.048-1.729-.0396-.4779.0063-.9376.1944-1.2757.5324l-3.7023 3.7024z"/><path d="m24.9311 13.8636c.3103.0345 1.2414-.9655 1.4827-1.2069.2414-.2414.2207-1.7277 0-2.0345s-.3952-.7362-.8528-.5577c-.4575.1784-1.6644 2.8902-1.5955 3.224.069.3337.6552.5405.9656.5751z"/><path d="m38.0265 3.0834c.6552-.1217 1.8011-.0822 1.7666-.7393 0 0-.0345-.4802-2.1034-.1184-2.069.3618-2.3448.3374-2.3448.8241-.0001.4868 2.0264.1553 2.6816.0336z"/><path d="m31.1111 5.274s1.3861-.8743 2.4913-.859c1.1052.0152.6275-.8809.6275-.8809s-.7587-.7661-3.009.6445c-2.2504 1.4105-1.6564 1.5762-1.6177 1.6705.0386.0941.6748.1013 1.5079-.5751z"/><path d="m27.9756 8.22c.3103-.5861 1.2027-.7554.8175-1.253 0 0-.8276-.2069-1.5862.6552-.7585.8621-1.2414 1.2759-.931 1.7241.3103.4483 1.3893-.54 1.6997-1.1263z"/><path d="m17.6557 43.04.4548-.266c.3854-.2254.4927-.5579.1774-.8738l-3.5142-2.3345c-.0748-.0497-.1596-.0803-.2494-.0774-.5614.0178-2.4419-.0002-2.4419 1.24l1.7373.2348c.323.1538.623.2965.946.4504l1.5733 1.4778c.3575.3358.8933.3963 1.3167.1487z"/><path d="m13.0511 42.2158-1.7878-.1979c-.2627-.0291-.5278.0748-.6899.2835-.2608.3356-.4958.6827-.6996 1.0368l2.3879.0843c.3608.0128.7118.1205 1.0176.3123l.5177.3246c.6409.402 1.4522.4144 2.105.0322l.0108-.0063-1.7175-1.3916c-.3278-.2657-.725-.4314-1.1442-.4779z"/><path d="m52.8136 20.459 4.2085-2.8057c.6109-.4072.9779-1.0929.9779-1.8273v-6.7863c0-1.2791-.6177-2.4795-1.6585-3.2229l-3.9162-2.7973c-.8966-.6405-2.0436-.8186-3.0923-.4803l-14.3616 4.6327c-.4667.1506-.8064.5545-.8748 1.0401l-.9479 6.7335c-.0862.6118.2767 1.1978.8628 1.3931l1.113.3711c.5229.1743.8755.6636.8755 1.2147v2.0169c0 .4498.3557.8161.8049.8368 1.1953.0548 2.3047.2383 2.7596.6932.7636.7626.8251 3.2722.8284 3.899-.0151.0927-.0298.1826-.045.2753-.8862 2.4669-4.6134 4.5237-5.8637 5.1556-.2519.1273-.5494.1219-.795-.0171l-4.0886-2.3141c-.3657-.162-.6016-.5243-.6015-.9243l.0009-2.8303v-1.8408c0-.5304.314-1.0105.8-1.2231l.0252-.0111c.6564-.2871.9691-1.0412.7086-1.7086l-1.2158-3.1155c-.1917-.4913-.6652-.8148-1.1927-.8148-1.7158 0-1.8749.138-2.8721-.4116-.683-.3763-1.5411-.0597-1.816.67-.275.7298-.4363 7.4289-1.7454 11.0946-1.0584 2.9636-2.8085 5.2674-4.0463 6.6455h7.3597l-1.9317-3.3961c-.3274-.5741-.2021-1.3058.2988-1.7368.5021-.4325 1.2402-.4447 1.7558-.037l7.7409 6.1113c.3318.2618.5252.6591.5252 1.0817s-.1934.8199-.5252 1.0816l-7.7409 6.1074c-.5181.4098-1.2549.3867-1.7558-.0448-.5009-.4309-.6262-1.1721-.2988-1.7462l1.9335-3.4211h-8.9485c.0418.0623.0869.1228.1416.1766.9528.9362 3.1849 3.1546 3.1849 3.1546.7757.7775.6077 2.0782-.34 2.6331l-2.3856 1.3965c-.2438.1428-.2623.4884-.0352.6567 1.1445.8478 2.1272 1.5759 2.2037 1.633.1894.1413.0564.5678.0564.5678l-4.5237-2.5077c-.896-.5205-1.9366-.8111-2.9725-.7868 0 0-5.2647.4083-3.8814 1.7916.6988.6371 2.1001 2.2563 2.5693 2.0986.3127-.1051.7186-.4419.7186-.4419l3.0384 1.7202c.2295.0952.2325-.3165.4583-.7211.2258-.4047.7203-.5746 1.1485-.3973 0 0 3.3572 1.4636 3.9159 1.6204.4348.122.8163.0463 1.1488-.3494.2905-.3457 1.054-1.581 1.054-1.581.2704-.4055.7477-.6224 1.2311-.5593l6.8881.9c.3879.0506.7313.2759.9324.6115.4861 1.0012.6557 1.2433 1.211 1.5485.2361.1298 7.7007 3.2988 7.7007 3.2988.6032.2583.9133.931.7182 1.5575l-1.1209 3.5985c.0005.2609.001.504.0015.7649l.5424 1.7199c.1685.5343.6646.8971 1.2249.8958l3.835-.0092c.7057-.0017 1.2771-.5744 1.2771-1.2802-.2502-.4178-1.294-2.4062-1.5354-2.5269l-.5844-.2922c-.4339-.2169-.7078-.6602-.7078-1.1452v-.6784c0-.3395.1348-.6651.3749-.9052l2.239-1.9477c.1045-.169.2048-.3313.3093-.5005l1.7158-5.1472c.1196-.3587.0743-.752-.1234-1.0743l-4.2301-6.8955c-.2197-.3582-.2497-.8016-.08-1.1861l.2303-.522c.2316-.525.7843-.8318 1.3524-.7507l5.4057.7722c.3989.0571.8014-.0771 1.0863-.3621l2.563-2.5631c.5368-.5368.5186-1.4126-.0401-1.9266l-.0347-.0319c-.5586-.514-.5769-1.3898-.0401-1.9266l3.7242-3.7242c.2402-.2401.3751-.5657.3751-.9052v-2.1893c0-.7072-.5732-1.2804-1.2803-1.2804h-2.7968c-.5511 0-1.0404-.3526-1.2147-.8755l-.399-1.1967c-.1826-.5478.0241-1.1499.5044-1.4703z"/><path d="m17.0411 50.8655-1.5397-.6722c-.1154-.0505-.2495-.0301-.3448.0523l-1.2663 1.0942c-.1107.0956-.2714.1062-.3936.0259l-2.1838-1.4347c-.1823-.1198-.4163-.1268-.6056-.0184l-.536.3074c-.199.1141-.4467.0998-.6313-.0363l-1.942-1.4329c-.1707-.1259-.4124-.0794-.5242.1008l-1.4859 2.3953c-.0717.1156-.0644.2635.0183.3716l.8289.9143c.1009.1318.2529.2139.4184.2254 0 0 1.6622.435 1.8809.1381.2188-.2969.2656-1.1251.2656-1.1251l1.2592.0534c.0653-.007.1312.0059.1891.0369l3.5152 1.8805c.1167.0625.2595.0485.3618-.0354l2.7923-2.2881c.1891-.155.1476-.4551-.0765-.553z"/></svg>