<?xml version="1.0" encoding="utf-8"?>
<!-- Generator: Adobe Illustrator 19.2.0, SVG Export Plug-In . SVG Version: 6.00 Build 0)  -->
<svg version="1.0" xmlns="http://www.w3.org/2000/svg" xmlns:xlink="http://www.w3.org/1999/xlink" x="0px" y="0px"
	 viewBox="0 0 64 64" enable-background="new 0 0 64 64" xml:space="preserve">
<g id="achtergrond">
</g>
<g id="paneel_1">
	<g>
		<g>
			<path d="M60.4351,36.826c-0.1951-1.1728-1.0874-2.0651-2.2608-2.2606C54.783,34,49.1301,34,48,34
				c-1.13,0-6.7827,0-10.1742,0.5654c-1.1735,0.1955-2.0658,1.0878-2.2607,2.2606C35,40.2173,35,45.8697,35,47
				c0,1.1304,0,6.7827,0.5651,10.174c0.1949,1.1728,1.0872,2.0651,2.2607,2.2607C41.2173,60,46.87,60,48,60
				c1.1301,0,6.783,0,10.1743-0.5653c1.1734-0.1956,2.0657-1.0879,2.2608-2.2607C61,53.7827,61,48.1304,61,47
				C61,43.607,61,40.2173,60.4351,36.826z"/>
		</g>
	</g>
	<path d="M32.4082,36.3003c0.418-2.5083,2.3838-4.4741,4.8921-4.8916c1.0867-0.181,2.3638-0.3092,3.6997-0.4009V8H7v33h24.948
		C32.04,39.3054,32.1826,37.6555,32.4082,36.3003z M33.0372,13c0-0.55,0.4501-1,1-1H37c0.55,0,1,0.45,1,1v2c0,0.55-0.45,1-1,1
		h-2.9628c-0.5499,0-1-0.45-1-1V13z M33.0372,20c0-0.55,0.4501-1,1-1H37c0.55,0,1,0.45,1,1v2c0,0.55-0.45,1-1,1h-2.9628
		c-0.5499,0-1-0.45-1-1V20z M33.0372,27c0-0.55,0.4501-1,1-1H37c0.55,0,1,0.45,1,1v2c0,0.55-0.45,1-1,1h-2.9628
		c-0.5499,0-1-0.45-1-1V27z M14.9628,36c0,0.55-0.4501,1-1,1H11c-0.55,0-1-0.45-1-1v-2c0-0.55,0.45-1,1-1h2.9628
		c0.5499,0,1,0.45,1,1V36z M14.9628,29c0,0.55-0.4501,1-1,1H11c-0.55,0-1-0.45-1-1v-2c0-0.55,0.45-1,1-1h2.9628c0.5499,0,1,0.45,1,1
		V29z M14.9628,22c0,0.55-0.4501,1-1,1H11c-0.55,0-1-0.45-1-1v-2c0-0.55,0.45-1,1-1h2.9628c0.5499,0,1,0.45,1,1V22z M14.9628,15
		c0,0.55-0.4501,1-1,1H11c-0.55,0-1-0.45-1-1v-2c0-0.55,0.45-1,1-1h2.9628c0.5499,0,1,0.45,1,1V15z M19.855,20.156l9.0125,5.2712
		l-9.0125,5.2714V20.156z"/>
	<g>
		<path fill="#FFFFFF" d="M56,48.5c0,0.2761-0.2239,0.5-0.5,0.5H50v5.5c0,0.2761-0.2239,0.5-0.5,0.5h-3
			c-0.2761,0-0.5-0.2239-0.5-0.5V49h-5.5c-0.2761,0-0.5-0.2239-0.5-0.5v-3c0-0.2761,0.2239-0.5,0.5-0.5H46v-5.5
			c0-0.2761,0.2239-0.5,0.5-0.5h3c0.2761,0,0.5,0.2239,0.5,0.5V45h5.5c0.2761,0,0.5,0.2239,0.5,0.5V48.5z"/>
	</g>
</g>
</svg>
