<?xml version="1.0" encoding="utf-8"?>
<!-- Generator: Adobe Illustrator 19.2.0, SVG Export Plug-In . SVG Version: 6.00 Build 0)  -->
<svg version="1.0" xmlns="http://www.w3.org/2000/svg" xmlns:xlink="http://www.w3.org/1999/xlink" x="0px" y="0px"
	 viewBox="0 0 64 64" enable-background="new 0 0 64 64" xml:space="preserve">
<g id="achtergrond">
</g>
<g id="paneel_1">
	<g>
		<g>
			<path d="M60.435,36.826c-0.1949-1.1728-1.0873-2.0651-2.2607-2.2606C54.7829,34,49.1301,34,48.0001,34
				c-1.1301,0-6.7829,0-10.1743,0.5654c-1.1734,0.1955-2.0657,1.0878-2.2607,2.2606C35,40.2173,35,45.8697,35,47
				c0,1.1304,0,6.7827,0.5651,10.174c0.195,1.1728,1.0873,2.0651,2.2607,2.2607C41.2172,60,46.87,60,48.0001,60
				c1.13,0,6.7828,0,10.1742-0.5653c1.1734-0.1956,2.0658-1.0879,2.2607-2.2607C61,53.7827,61,48.1304,61,47
				C61,43.607,61,40.2173,60.435,36.826z M56,48.5c0,0.2761-0.2239,0.5-0.5,0.5H50v5.5c0,0.2761-0.2239,0.5-0.5,0.5h-3
				c-0.2761,0-0.5-0.2239-0.5-0.5V49h-5.5c-0.2761,0-0.5-0.2239-0.5-0.5v-3c0-0.2761,0.2239-0.5,0.5-0.5H46v-5.5
				c0-0.2761,0.2239-0.5,0.5-0.5h3c0.2761,0,0.5,0.2239,0.5,0.5V45h5.5c0.2761,0,0.5,0.2239,0.5,0.5V48.5z"/>
		</g>
	</g>
	<g>
		<path fill="none" d="M7.4849,32.012c0,0,0.0596-2.9226,0.7968-3.6985c0.5775-0.6082,2.3283-1.1466,3.0696-1.3538
			c0.1809-0.0505,0.2969-0.2087,0.3333-0.3931c0.0503-0.2555,0.0616-0.5242,0.0616-0.5242
			c-0.459-0.5247-0.8008-1.1534-0.9065-2.0422c-0.4717-0.147-0.566-0.7422-0.566-1.1133s0.0646-0.5718,0.1965-0.634
			c0.1584-0.0746,0.3049,0.0262,0.3496,0.0618c-0.0671-0.771-0.165-2.4939,0.2424-3.0371c0.363-0.484,1.052-0.8065,1.6816-0.9841
			c0.9059-0.2557,1.2581,0.1028,1.7751,0.3868c0.7884-0.2057,1.2018,0.0455,1.5422,0.6747
			c0.3169,0.5861,0.2114,2.1663,0.1384,2.9244c0.07-0.04,0.1771-0.0807,0.2924-0.0265c0.1318,0.0623,0.1965,0.2629,0.1965,0.634
			s-0.0944,0.9663-0.566,1.1133c-0.1199,0.8594-0.4675,1.5154-0.9361,2.0615c0,0,0.0189,0.2864,0.0819,0.5138
			c0.049,0.177,0.1584,0.3314,0.3356,0.3793c0.2516,0.0679,0.6233,0.1741,1.0277,0.3074c-0.8837,0.3562-1.6805,0.7788-2.1392,1.2617
			c-0.6854,0.7217-1.0941,2.23-1.3268,3.488H7.4849z M28.4661,29.2583c0.9279,0.9768,1.2764,4.6228,1.2764,4.6228H13.9767
			c0,0,0.3609-3.646,1.2887-4.6228c0.7938-0.8359,3.3432-1.5657,4.0815-1.7637c0.008,0.0042,0.0139,0.0081,0.022,0.0123
			c0.9886,0.5145,1.9061,0.3776,2.1994,0.2808c0.1753-0.0579,0.1753-0.152,0.131-0.2313c-0.4888-0.0217-0.9584-0.137-1.2191-0.3566
			c-0.9868-0.8309-1.7885-1.7686-1.9811-3.3712c-0.6001-0.1849-0.7201-0.9343-0.7201-1.4015c0-0.467,0.0822-0.7198,0.2499-0.7981
			c0.0906-0.0421,0.1798-0.0385,0.2558-0.0177c-0.0862-0.985-0.1846-2.9026,0.3258-3.5601c0.4731-0.6093,1.3708-0.9745,2.191-1.198
			c1.1805-0.322,1.6393,0.0316,2.3131,0.3892c1.0273-0.2589,1.6169-0.0535,2.0603,0.7385c0.4056,0.7245,0.3455,2.6526,0.2852,3.6257
			c0.0703-0.015,0.1492-0.0154,0.2301,0.0223c0.1677,0.0782,0.2499,0.3311,0.2499,0.7981c0,0.4672-0.1201,1.2166-0.7202,1.4015
			c-0.1578,1.1189-0.6234,1.9656-1.251,2.6666c0,0,0.028,0.271,0.0806,0.5073c0.0594,0.2672,0.2374,0.4921,0.5016,0.5641
			C25.5388,27.8364,27.7507,28.5049,28.4661,29.2583z"/>
		<path d="M16.6312,27.2622c-0.4044-0.1333-0.7761-0.2395-1.0277-0.3074c-0.1772-0.0479-0.2866-0.2023-0.3356-0.3793
			c-0.063-0.2274-0.0819-0.5138-0.0819-0.5138c0.4686-0.5461,0.8162-1.2021,0.9361-2.0615c0.4716-0.147,0.566-0.7422,0.566-1.1133
			s-0.0646-0.5718-0.1965-0.634c-0.1152-0.0542-0.2224-0.0135-0.2924,0.0265c0.0731-0.7582,0.1785-2.3384-0.1384-2.9244
			c-0.3403-0.6292-0.7538-0.8804-1.5422-0.6747c-0.5171-0.2841-0.8692-0.6426-1.7751-0.3868
			c-0.6296,0.1776-1.3185,0.5001-1.6816,0.9841c-0.4073,0.5432-0.3095,2.2661-0.2424,3.0371
			c-0.0447-0.0355-0.1912-0.1364-0.3496-0.0618c-0.1319,0.0623-0.1965,0.2629-0.1965,0.634s0.0943,0.9663,0.566,1.1133
			c0.1057,0.8888,0.4475,1.5176,0.9065,2.0422c0,0-0.0113,0.2687-0.0616,0.5242c-0.0364,0.1843-0.1523,0.3425-0.3333,0.3931
			c-0.7413,0.2072-2.4921,0.7456-3.0696,1.3538c-0.7371,0.7759-0.7968,3.6985-0.7968,3.6985h5.6804
			c0.2327-1.2581,0.6414-2.7664,1.3268-3.488C14.9507,28.041,15.7476,27.6184,16.6312,27.2622z"/>
		<path d="M35.4613,28.8213c-0.2515-0.2649-0.7525-0.5535-1.3035-0.8196c-0.7217-0.3569-1.5282-0.6727-1.9578-0.8337
			c-0.1644-0.0615-0.2687-0.2126-0.2977-0.3857c-0.0361-0.2151-0.0764-0.5337-0.1082-0.802
			c1.0884-0.0442,1.9884-0.1516,2.3627-0.2942c0.0739-0.0281,0.1113-0.0959,0.0783-0.168c-0.2047-0.4468-0.737-1.9161-0.8039-2.6836
			c-0.1643-1.8835-0.1575-5.2542-2.7381-4.4086c0,0-1.6388-1.0469-2.9698,0.7047c-0.9364,1.2323-0.7082,2.8572-0.7457,3.7632
			c-0.0266,0.6445-0.554,2.1326-0.7759,2.5181c-0.0472,0.0822-0.0311,0.1652,0.0579,0.1975
			c0.4017,0.1458,1.3062,0.2588,2.3693,0.3259c-0.0297,0.2693-0.0715,0.6036-0.1189,0.8469
			c-0.0336,0.1724-0.1333,0.3242-0.2977,0.3857c-0.1805,0.0676-0.4296,0.1638-0.7089,0.2777
			c0.7988,0.3485,1.3851,0.7089,1.736,1.0787c0.6857,0.7217,1.0907,2.2292,1.3199,3.4875h4.9521
			c0.2269-0.1193,0.4666-0.2161,0.7098-0.3058C36.1854,31.041,36.0412,29.4318,35.4613,28.8213z"/>
		<path d="M24.0495,27.0026c-0.0526-0.2363-0.0806-0.5073-0.0806-0.5073c0.6276-0.701,1.0932-1.5477,1.251-2.6666
			c0.6-0.1849,0.7202-0.9343,0.7202-1.4015c0-0.467-0.0823-0.7198-0.2499-0.7981c-0.0809-0.0377-0.1599-0.0374-0.2301-0.0223
			c0.0603-0.9731,0.1204-2.9012-0.2852-3.6257c-0.4434-0.792-1.033-0.9974-2.0603-0.7385
			c-0.6738-0.3575-1.1326-0.7112-2.3131-0.3892c-0.8202,0.2235-1.7179,0.5887-2.191,1.198
			c-0.5104,0.6575-0.412,2.5751-0.3258,3.5601c-0.076-0.0208-0.1652-0.0244-0.2558,0.0177
			c-0.1677,0.0782-0.2499,0.3311-0.2499,0.7981c0,0.4672,0.12,1.2166,0.7201,1.4015c0.1926,1.6027,0.9943,2.5403,1.9811,3.3712
			c0.2607,0.2196,0.7303,0.3348,1.2191,0.3566c0.0443,0.0793,0.0443,0.1735-0.131,0.2313
			c-0.2933,0.0968-1.2108,0.2338-2.1994-0.2808c-0.0082-0.0043-0.014-0.0082-0.022-0.0123
			c-0.7383,0.198-3.2877,0.9277-4.0815,1.7637c-0.9278,0.9768-1.2887,4.6228-1.2887,4.6228h15.7657c0,0-0.3485-3.646-1.2764-4.6228
			c-0.7153-0.7534-2.9273-1.4219-3.915-1.6917C24.2869,27.4946,24.1089,27.2698,24.0495,27.0026z"/>
		<path d="M6,40V9h31v22.4834c0.1012-0.0223,0.1972-0.0576,0.3003-0.0747c0.8115-0.1353,1.7314-0.2399,2.6997-0.3234V6H3v40h28.8042
			c0.0129-1.8583,0.0658-3.9934,0.2035-6H6z"/>
		<polygon points="40,45.0134 39.0181,46 40,46 		"/>
	</g>
</g>
</svg>
