<?xml version="1.0" encoding="utf-8"?>
<!-- Generator: Adobe Illustrator 19.1.0, SVG Export Plug-In . SVG Version: 6.00 Build 0)  -->
<svg version="1.2" baseProfile="tiny" xmlns="http://www.w3.org/2000/svg" xmlns:xlink="http://www.w3.org/1999/xlink" x="0px"
	 y="0px" width="64px" height="64px" viewBox="0 0 64 64" xml:space="preserve">
<g id="Box">
	<rect fill="none" width="64" height="64"/>
</g>
<g id="Icon">
	<path d="M53,17h-5.79c-0.6029-1.2076-1.204-2.455-1.8035-3.7737c-0.6572-1.4398-1.956-2.554-3.3839-2.7256
		c-1.4184-0.4398-10.6269-0.4397-12.0452,0c-1.428,0.1716-2.7264,1.2858-3.3839,2.7256C25.9941,14.545,25.393,15.7924,24.7901,17H20
		v-1c0-1.1046-0.8954-2-2-2h-4c-1.1046,0-2,0.8954-2,2v1h-1c-2.7614,0-5,2.2386-5,5v23c0,2.7614,2.2386,5,5,5h11.9426
		c-2.0942-2.7552-3.3517-6.1813-3.3517-9.9091c0-0.5883,0.031-1.1693,0.0914-1.7415c0.0323-0.3065,0.2839-0.3298,0.3619-0.2766
		c0.0021-0.0131,0.0059-0.0258,0.008-0.0388C20.5875,46.3862,27.5125,53,36,53c8.4731,0,15.3896-6.5912,15.9457-14.9234
		c0.1328-0.0657,0.3422,0.0005,0.3731,0.2825c0.0623,0.5688,0.0903,1.1469,0.0903,1.7318c0,3.7278-1.2575,7.1539-3.3517,9.9091H53
		c2.7614,0,5-2.2386,5-5V22C58,19.2386,55.7614,17,53,17z M36,49.1c-6.6827,0-12.1-5.4174-12.1-12.1c0-6.6827,5.4173-12.1,12.1-12.1
		S48.1,30.3173,48.1,37C48.1,43.6826,42.6827,49.1,36,49.1z M53,25h-5v-3h5V25z"/>
</g>
</svg>
