<?xml version="1.0" encoding="utf-8"?>
<!-- Generator: Adobe Illustrator 25.3.1, SVG Export Plug-In . SVG Version: 6.00 Build 0)  -->
<svg version="1.1" xmlns="http://www.w3.org/2000/svg" xmlns:xlink="http://www.w3.org/1999/xlink" x="0px" y="0px"
	 viewBox="0 0 64 64" style="enable-background:new 0 0 64 64;" xml:space="preserve">
<style type="text/css">
	.st0{fill:none;}
	.st1{fill:#B3B3B3;}
</style>
<g id="Box">
	<rect class="st0" width="64" height="64"/>
</g>
<g id="Icon">
	<g>
		<path d="M46,24.5c-1.104,0-2,0.395-2,1.5v7c0,6.999-6.022,12.617-13.157,11.945C24.625,44.36,20,38.893,20,32.648V26
			c0-1.105-0.896-1.5-2-1.5s-2,0.395-2,1.5v6.536c0,7.854,5.505,14.699,13,16.159v5.197l3.735,0.743
			c0.317,0.102,0.271,0.308,0.25,0.364H27c-2.761,0-5,2.239-5,5h20c0-2.761-2.239-5-5-5h-2v-6.299C42.391,47.29,48,40.795,48,33v-7
			C48,24.895,47.104,24.5,46,24.5z"/>
		<path d="M32,43c5.523,0,10-4.477,10-10v-8h-9c-0.552,0-1-0.448-1-1c0-0.552,0.448-1,1-1h9v-3h-9c-0.552,0-1-0.448-1-1
			c0-0.552,0.448-1,1-1h9v-3h-9c-0.552,0-1-0.448-1-1c0-0.552,0.448-1,1-1h8.799C40.873,8.436,36.838,5,32,5
			c-5.523,0-10,4.477-10,10v18C22,38.523,26.477,43,32,43z"/>
	</g>
</g>
</svg>
