<?xml version="1.0" encoding="utf-8"?>
<!-- Generator: Adobe Illustrator 23.1.1, SVG Export Plug-In . SVG Version: 6.00 Build 0)  -->
<svg version="1.1" xmlns="http://www.w3.org/2000/svg" xmlns:xlink="http://www.w3.org/1999/xlink" x="0px" y="0px"
	 viewBox="0 0 64 64" style="enable-background:new 0 0 64 64;" xml:space="preserve">
<style type="text/css">
	.st0{fill:none;}
</style>
<g id="Box">
	<rect class="st0" width="64" height="64"/>
</g>
<g id="Icon">
	<g>
		<path d="M44,8.4c-1.6-2.6-3.5-3.8-7.3-3c-2.4-1.2-4.1-1.9-8.4-0.8c-3,0.7-6.2,1.9-7.9,3.9C19.9,9,19.6,9.9,19.4,11h25.4
			C44.6,9.9,44.4,9,44,8.4z"/>
		<path d="M52.6,44.1c-2.2-2.4-8.5-4.5-11.4-5.4c-0.2-1.1-0.4-2.4-0.5-3.5c0.9-1,1.5-2.1,2.1-3.2c1.1-2.1,1.3-4,1.3-4.3
			c1.6-0.3,2.9-0.7,3.8-1c1.2-0.4,2.1-1.6,2.1-2.9v-6c-4.6,0.3-10,0.5-14.3,0.2c-0.3,0-0.3-0.4-0.3-0.4c5-0.4,10.3-1,14.3-1.5
			c-0.3-0.6-0.7-1.1-1.3-1.4L45,13H45H19.1H19l-3.4,1.9c-0.9,0.5-1.5,1.5-1.5,2.6v6.4c0,1.3,0.8,2.4,2.1,2.9c1,0.3,2.2,0.7,3.8,1
			c0.1,0.7,0.3,1.5,0.5,2.2c0.6,2,1.7,3.9,3.4,5.8c-0.1,0.8-0.2,1.7-0.4,2.7c-2.5,0.7-9.7,3-12,5.6C8.5,47.2,7,59,7,59h25h25
			C57,59,55.5,47.2,52.6,44.1z M32.4,49.3c-2.3-1.8-6.6-5.5-6.2-9c0.2-1.9,0-0.5,0.8-5.4c-1.9-1.8-3.5-4-3.9-6.5
			c2.5,0.4,5.4,0.6,8.9,0.6c3.5,0,6.4-0.3,8.9-0.6c-0.6,2.9-2.8,5.3-5.2,7.3c-0.8,0.7-2.2,1.1-3.7,1.1c-1.1,0-2.1-0.3-2.9-0.6
			c0.6,0.9,1.7,2.1,3.6,2.6c3.2,0.8,5.5-0.9,5.5-0.9s0.3,1.9,0.3,2.4C38.7,43.7,34.8,47.6,32.4,49.3z"/>
	</g>
</g>
</svg>
