<svg enable-background="new 0 0 64 64" viewBox="0 0 64 64" xmlns="http://www.w3.org/2000/svg"><path d="m0 0h64v64h-64z" fill="none"/><path d="m32.7 8.1c-4.1 0-7.5 3-7.5 6.7 0 5.4 4.5 9.9 4.5 16.6 0 6.7-4.5 11.2-4.5 16.6 0 3.7 3.4 6.7 7.5 6.7s7.5-3 7.5-6.7c0-5.4-4.5-9.9-4.5-16.6 0-6.7 4.5-11.2 4.5-16.6 0-3.7-3.3-6.7-7.5-6.7z"/><path d="m50.2 27.3c-.3-1.1-1.8-2.2-3-2.4s-2.3-.4-3.5-.5c1.2-2.8 2.5-5.9 2.5-9.6 0-7-6.1-12.7-13.5-12.7s-13.5 5.7-13.5 12.7c0 3.7 1.3 6.9 2.5 9.6-1.1.1-2.3.3-3.5.5s-2.7 1.3-3 2.4c-.8 2.7-.8 5.5 0 8.2.3 1.1 1.8 2.2 3 2.4.7.1 1.4.2 2.1.3.9-1.5 2.5-4 2.6-4.2.2-.2.3-.2.4-.1-.4 1.4-1 2.9-1.7 4.5-1.2 2.8-2.6 6-2.6 9.7 0 7 6.1 12.7 13.5 12.7s13.7-5.9 13.7-12.8c0-3.8-1.4-6.9-2.6-9.7-.7-1.6-1.3-3-1.7-4.5.1 0 .2-.1.4.1.1.2 1.7 2.8 2.6 4.2.7-.1 1.4-.2 2.1-.3 1.2-.2 2.7-1.3 3-2.4 1-2.6 1-5.5.2-8.1zm-10.2-4.4c-1.1 2.6-2.3 5.3-2.3 8.5 0 3.1 1.2 5.8 2.3 8.5 1.1 2.6 2.2 5.2 2.2 8.1 0 4.8-4.3 8.7-9.5 8.7s-9.5-3.9-9.5-8.7c0-2.9 1.1-5.6 2.2-8.1 1.1-2.6 2.3-5.3 2.3-8.5s-1.2-5.8-2.3-8.5c-1.1-2.6-2.2-5.2-2.2-8.1 0-4.8 4.3-8.7 9.5-8.7s9.5 3.9 9.5 8.7c0 2.9-1.1 5.5-2.2 8.1z"/></svg>