<svg height="64" viewBox="0 0 64 64" width="64" xmlns="http://www.w3.org/2000/svg"><path d="m0 0h64v64h-64z" fill="none"/><path d="m52.8323 8.6146c-2.481-1.112-9.0376-3.4117-20.8323-3.4117s-18.3513 2.2997-20.8323 3.4117c-.7157.3208-1.1677 1.035-1.1677 1.8194v28.9537c0 3.3937 1.4445 6.6252 3.9529 8.911 6.6667 6.0748 14.1705 9.3929 16.9422 10.4897.7131.2822 1.4967.2822 2.2098 0 2.7717-1.0968 10.2755-4.4149 16.9422-10.4897 2.5084-2.2858 3.9529-5.5173 3.9529-8.911v-28.9537c0-.7844-.452-1.4986-1.1677-1.8194zm-8.3882 11.7733-12.3217 20.3949c-.3432.5646-.9563.9085-1.6155.9085-.0028 0-.004 0-.0068 0-.662-.0021-1.275-.3508-1.6155-.9187l-8.065-13.4597c-.4768-.7968-.3052-1.8224.4073-2.4197.7097-.5981 1.7489-.5899 2.4532.019l6.6579 5.7672 11.0807-12.5335c.6511-.7281 1.7489-.8404 2.5363-.2587.7847.5815.9971 1.6658.4891 2.5007z"/></svg>