<svg height="64" viewBox="0 0 64 64" width="64" xmlns="http://www.w3.org/2000/svg"><path d="m0 0h64v64h-64z" fill="none"/><path d="m57.6462 26.8376-7.1137-13.3189c-.233-.4363-.6195-.7708-1.0847-.9388l-15.4478-5.5799 2.2573 15.8013c4.4817 1.2274 17.1561 4.6995 17.4471 4.7928.3536.1134.3019.3432.2787.4059h-43.9662c-.0233-.0627-.075-.2925.2787-.4059.291-.0934 12.9654-3.5654 17.4471-4.7928l2.2573-15.8013-15.4478 5.5799c-.4652.168-.8517.5025-1.0847.9388l-7.1137 13.3189c-.2323.4349-.3538.9203-.3538 1.4134v24.624c0 .5523.4477 1 1 1h50c.5523 0 1-.4477 1-1v-24.624c0-.4931-.1215-.9785-.3538-1.4134zm-31.1462 7.1624 4 5h-2.5v5h-3v-5h-2.5zm13.5 14h-17v-2h17zm-2-9v5h-3v-5h-2.5l4-5 4 5z"/></svg>