<svg height="64" viewBox="0 0 64 64" width="64" xmlns="http://www.w3.org/2000/svg"><path d="m0 0h64v64h-64z" fill="none"/><path d="m4 60h19.0602l3.4322-57h-3.9416z"/><path d="m59.4725 6.0608-15.6739-.0608c-1.0497-.0051-1.9567.7361-2.1606 1.7669-.2045 1.03.3499 2.0607 1.3221 2.4583l5.7412 2.3468s-.835.698-.9057.7543c-2.9944 2.3848-6.3154 5.3979-8.8723 9.5687l-6.4751-19.895h-3.9407l3.4323 57h19.0602s-2.8333-8.1667-6.0901-18.7116c-3.2577-10.5479.8905-18.1479 8.8633-24.5604.4203-.3381 1.7623-1.3973 2.236-1.6552 0 0 .2133.1388-.0981.528-.2498.3123-2.9574 3.8361-2.9574 3.8361l.6428 4.3688c.1529 1.0392 1.0208 1.8244 2.0698 1.8726.5411.0253 1.0522-.1497 1.4539-.4644.3778-.2959.6597-.7155.7792-1.2098l3.6968-15.2319c.3346-1.3765-.7071-2.7064-2.1237-2.7114z"/></svg>