<svg enable-background="new 0 0 64 64" viewBox="0 0 64 64" xmlns="http://www.w3.org/2000/svg"><path d="m30.3483 30.6205c.001.0011.0019.0023.003.0035.4426.5664.9407 1.0872 1.4861 1.5547.0504.0439.1016.0864.1526.1291.001.0008.0019.0015.0028.0023 1.7581 1.4709 3.8967 2.3318 6.3001 2.4464l.0016.0002c.0873.0042.1749.0077.2629.01.0965.0026.1932.004.2903.004.0904 0 .1805-.0011.2704-.0035.0306-.0006.061-.0023.0914-.0032.0591-.0019.1182-.0039.1771-.0068.0369-.0018.0736-.0044.1103-.0066.0522-.0031.1045-.006.1565-.01.0397-.0029.0791-.0064.1186-.0098.0487-.0042.0973-.0082.1458-.013.0416-.0041.0828-.0088.1243-.0134.046-.0051.0922-.0101.138-.0158.0429-.0053.0856-.0111.1282-.0169.044-.0059.0881-.0119.132-.0184s.0877-.0136.1315-.0205c.042-.0068.0841-.0137.126-.0209.045-.0078.0901-.016.1351-.0244.0399-.0075.0798-.015.1196-.0229.0464-.0092.0926-.0187.1388-.0283.0378-.008.0755-.0163.113-.0248.0478-.0106.0955-.0215.1428-.0328.0354-.0084.0705-.0169.1058-.0257.0494-.0123.0986-.0247.1478-.0376.0322-.0085.0644-.0174.0966-.0262.0516-.014.103-.0283.1542-.0431.0285-.0083.0568-.0169.0852-.0253.0546-.0164.109-.0328.1632-.0499.0232-.0073.046-.015.0692-.0225.0589-.019.1178-.0382.1761-.0583.0153-.0052.0304-.0107.0456-.0161.0662-.0229.132-.0462.1974-.0703l.0006-.0003c4.5316-1.6776 7.6274-6.3148 6.9395-11.5652-.6247-4.768-4.4901-8.6194-9.26-9.2288-6.3369-.8097-11.7713 3.8899-12.1727 9.9647-.2437.1336-.5233.2101-.8208.2101-.2668 0-.5178-.0627-.7423-.1719-1.2812-3.6916-4.9985-6.2445-9.2285-5.7336-3.7339.451-6.8192 3.3807-7.4321 7.0914-.4124 2.4966.2481 4.838 1.5938 6.6365v.0455c.2418.3046.504.5927.7838.863 1.5637 1.5782 3.7322 2.5561 6.1293 2.5561 1.0573 0 2.0701-.1906 3.0062-.5386 1.5818-.5433 2.9555-1.5325 4.0519-2.8898.8297-.1838-.8147 3.1795-4.3408 4.317-3.6781 1.1862-7.0527.7212-10.0961-1.6598v16c0 1.3146.6854 2 2 2h31c1.3147 0 2-.6853 2-2v-15c-3.2757 2.1799-6.3911 2.2406-10.3744.9385-4.2865-1.4017-6.2858-5.5441-5.2773-5.318zm-4.7597-3.2995c0 .9996-.8101 1.8092-1.8089 1.8092-.9994 0-1.8093-.8095-1.8093-1.8092 0-.9987.8099-1.8092 1.8093-1.8092.9988 0 1.8089.8105 1.8089 1.8092zm-8.3198-1.1798c0-.6122.4968-1.1094 1.1099-1.1094.6133 0 1.1103.4972 1.1103 1.1094 0 .6135-.497 1.1102-1.1103 1.1102-.6131.0001-1.1099-.4967-1.1099-1.1102zm5.44-5.3269c.9992 0 1.8093.8103 1.8093 1.8098 0 .998-.8101 1.8087-1.8093 1.8087s-1.8092-.8107-1.8092-1.8087c-.0001-.9994.8099-1.8098 1.8092-1.8098zm-.0919 10.2537c0 .9991-.81 1.8094-1.8094 1.8094-.9991 0-1.8093-.8103-1.8093-1.8094 0-.9987.8103-1.8089 1.8093-1.8089.9994 0 1.8094.8103 1.8094 1.8089zm-4.2366-12.3398c.9991 0 1.8093.8098 1.8093 1.8092 0 .9992-.8103 1.8099-1.8093 1.8099-.9994 0-1.8093-.8107-1.8093-1.8099 0-.9994.8099-1.8092 1.8093-1.8092zm-.6088 12.3398c0 .9991-.8103 1.8094-1.8093 1.8094-.9995 0-1.8093-.8103-1.8093-1.8094 0-.9987.8098-1.8089 1.8093-1.8089.999 0 1.8093.8103 1.8093 1.8089zm-3.7384-10.2537c.9992 0 1.8093.8098 1.8093 1.8087 0 .9992-.8102 1.8088-1.8093 1.8088-.9994 0-1.8095-.8096-1.8095-1.8088 0-.9988.8101-1.8087 1.8095-1.8087zm-1.0615 4.6887c.9996 0 1.8096.81 1.8096 1.8092 0 .9987-.8101 1.8088-1.8096 1.8088-.999 0-1.809-.8102-1.809-1.8088 0-.9992.81-1.8092 1.809-1.8092zm13.4217 3.8413c.0004-.001.0008-.0022.0013-.0033v.0033zm21.3903-4.44c.4062 1.6825-1.071 3.1601-2.7536 2.7545-.7883-.19-1.4352-.8351-1.6277-1.6228-.412-1.6858 1.0715-3.17 2.7578-2.7587.7878.1922 1.4332.8388 1.6235 1.627zm-4.0911-7.4954c1.6834-.4063 3.1612 1.0724 2.754 2.7559-.1907.7885-.8368 1.4349-1.6251 1.6263-1.6861.4094-3.1674-1.0734-2.7564-2.7585.1922-.788.839-1.4334 1.6275-1.6237zm.3797 12.1743c.4068 1.6828-1.0702 3.1609-2.7535 2.7556-.7885-.1899-1.4356-.8351-1.628-1.623-.4118-1.686 1.0709-3.17 2.7572-2.7593.7881.1919 1.4338.8383 1.6243 1.6267zm-5.2245-4.2027c-.7657 0-1.3864-.6207-1.3864-1.386 0-.7655.6206-1.3865 1.3864-1.3865.7657 0 1.3864.621 1.3864 1.3865 0 .7653-.6208 1.386-1.3864 1.386zm-.5631-10.5762c1.6843-.4078 3.1646 1.072 2.7561 2.7559-.1913.7885-.8378 1.4349-1.6263 1.6261-1.6845.4085-3.1644-1.0722-2.756-2.7564.1912-.7885.8377-1.4347 1.6262-1.6256zm-.2644 14.7759c.4094 1.6848-1.07 3.1655-2.7548 2.758-.7884-.1907-1.4351-.8364-1.6268-1.6246-.4094-1.6834 1.0684-3.1647 2.7536-2.7584.7891.1902 1.4364.8363 1.628 1.625zm-5.1672-12.1704c1.6847-.4103 3.1667 1.0698 2.7582 2.7554-.1911.7885-.8376 1.4349-1.6261 1.6257-1.6839.4076-3.163-1.0705-2.7563-2.7541.1904-.7884.8361-1.435 1.6242-1.627zm-1.3227 5.8547c1.685-.4082 3.1645 1.0733 2.7553 2.7574-.1915.7883-.8381 1.4343-1.6266 1.625-1.6841.4074-3.1641-1.0727-2.7554-2.7567.1914-.7884.838-1.4346 1.6267-1.6257z"/><path d="m52.323 34.3191-4.323 2.6809v10l4.3475 2.7939c1.0464.5483 2.6525.3873 2.6525-.7939v-13c0-1.1815-1.6173-2.2024-2.677-1.6809z"/></svg>