<svg enable-background="new 0 0 64 64" viewBox="0 0 64 64" xmlns="http://www.w3.org/2000/svg"><path d="m0 0h64v64h-64z" fill="none"/><path d="m17.34 33.005c-.156-.79-.841-1.354-1.627-1.362-3.248-.032-5.159 2.332-5.97 5.49l1.339 6.778c-.049.03-.234.112-.389-.167l-2.178-5.276c-.701.329-1.207.79-1.53 1.375-.729 1.321-.625 3.204-.216 5.272.453 2.291 1.164 4.231 2.606 5.07.684.398 1.541.537 2.604.358 1.983 3.123 4.89 5.036 8.188 3.642.724-.306 1.143-1.088.987-1.878z"/><path d="m47.134 18.25c.205.225.413.445.606.688 2.253 2.838 3.384 6.599 3.401 11.227 1.144.45 2.16 1.181 2.998 2.195.318.384.597.797.849 1.229.65-7.124-.725-12.87-4.116-17.139-5.747-7.236-15.484-7.87-19.396-7.797-4.626.078-13.167 1.213-18.392 7.94-3.287 4.231-4.623 9.897-4.007 16.894.236-.393.493-.773.785-1.126.855-1.035 1.894-1.776 3.066-2.223.023-4.56 1.127-8.274 3.315-11.092.14-.181.292-.343.439-.514 1.353.16 2.749-.192 3.921-1.037 3.211-2.315 6.577-2.695 10.893-2.747v-.111l.028.111c4.359-.053 7.818.249 11.169 2.544 1.315.901 2.91 1.233 4.441.958z"/><path d="m57.015 39.843c-.323-.585-.83-1.047-1.53-1.375l-2.178 5.276c-.155.28-.34.198-.389.167l1.339-6.779c-.811-3.157-2.722-5.522-5.97-5.49-.786.008-1.471.572-1.627 1.362l-3.814 19.303c-.156.79.263 1.572.987 1.878 3.298 1.394 6.205-.519 8.188-3.642 1.064.178 1.92.04 2.604-.358 1.442-.839 2.154-2.778 2.606-5.07.409-2.068.513-3.951-.216-5.272z"/></svg>