<?xml version="1.0" encoding="utf-8"?>
<!-- Generator: Adobe Illustrator 24.0.1, SVG Export Plug-In . SVG Version: 6.00 Build 0)  -->
<svg version="1.1" xmlns="http://www.w3.org/2000/svg" xmlns:xlink="http://www.w3.org/1999/xlink" x="0px" y="0px"
	 viewBox="0 0 64 64" style="enable-background:new 0 0 64 64;" xml:space="preserve">
<style type="text/css">
	.st0{fill:none;}
	.st1{fill:#FF1D25;}
	.st2{fill:#1D1D1B;}
</style>
<g id="Box">
	<rect class="st0" width="64" height="64"/>
</g>
<g id="Icon">
	<g>
		<path d="M51.4,17.6v23.8h-3.6l6.6,6.6c0.9-0.1,1.5-0.9,1.5-1.8V14.9c0-1-0.8-1.8-1.8-1.8H19.5l4.5,4.5H51.4z"/>
		<path d="M47,48l9.9,9.9l2.1-2.1L8.5,5.2L6.4,7.3l5.9,5.9c-0.7,0.2-1.2,0.9-1.2,1.7v31.3c0,1,0.8,1.8,1.8,1.8h14.8
			c0,0-0.5,1.7-1.3,4.5c-0.5,1.6-2.1,1.8-2.6,1.8H22c-0.5,0-0.9,0.4-0.9,0.9V57h24.7v-1.8c0-0.5-0.4-0.9-0.9-0.9h-1.7
			c-0.4,0-2.1-0.1-2.6-1.8c-0.3-1.1-0.6-2-0.8-2.8c0,0-4-0.6-8.1-1.4c-0.3-0.1-0.3-0.3-0.2-0.3H47z M15.5,41.4V17.6h1.1l23.8,23.8
			H15.5z"/>
	</g>
</g>
</svg>
