<?xml version="1.0" encoding="utf-8"?>
<!-- Generator: Adobe Illustrator 23.1.1, SVG Export Plug-In . SVG Version: 6.00 Build 0)  -->
<svg version="1.1" xmlns="http://www.w3.org/2000/svg" xmlns:xlink="http://www.w3.org/1999/xlink" x="0px" y="0px"
	 viewBox="0 0 64 64" style="enable-background:new 0 0 64 64;" xml:space="preserve">
<style type="text/css">
	.st0{fill:none;}
</style>
<g id="Box">
	<rect class="st0" width="64" height="64"/>
</g>
<g id="Icon">
	<path d="M32.1,26c-12,0-14.6-4.7-14.8-5.4c-0.1-0.3-0.1-0.4,0-0.4c3.4,2.3,8.5,3.8,14.3,3.8c7.8,0,14.3-2.6,17.1-6.4
		c0.6-0.9,0.6-2,0-2.9C46,10.7,39.4,8,31.5,8C21.2,8,13,12.6,13,18.4c0,1.4,0,3.6,0,5c0,1.1,0.3,2.1,0.8,3.1c-0.5,0.9-0.8,1.9-0.8,3
		v5c0,1,0.3,2.1,0.8,3c-0.5,0.9-0.8,1.9-0.8,3v5C13,51.4,21.1,56,31.5,56C41.9,56,50,51.4,50,45.5v-5c0-0.2,0-0.4-0.1-0.7
		c-1.3,1.6-6.4,7.3-17.9,7.3c-12,0-14.6-4.7-14.8-5.4c-0.1-0.3-0.1-0.4,0-0.4c3.4,2.3,8.5,3.8,14.3,3.8C41.9,45,50,40.4,50,34.5v-5
		c0-0.2,0-0.4-0.1-0.7c-1.3,1.6-6.4,7.3-17.9,7.3c-12,0-14.6-4.7-14.8-5.4c-0.1-0.3-0.1-0.4,0-0.4c3.4,2.3,8.5,3.8,14.3,3.8
		C41.9,34,50,29.4,50,23.5c0-0.8,0-3.6,0-4.8C48.7,20.4,43.5,26,32.1,26z"/>
</g>
</svg>
