<?xml version="1.0" encoding="utf-8"?>
<!-- Generator: Adobe Illustrator 17.1.0, SVG Export Plug-In . SVG Version: 6.00 Build 0)  -->
<svg version="1.2" baseProfile="tiny" xmlns="http://www.w3.org/2000/svg" xmlns:xlink="http://www.w3.org/1999/xlink" x="0px"
	 y="0px" width="64px" height="64px" viewBox="0 0 64 64" xml:space="preserve">
<g id="Box">
	<rect fill="none" width="64" height="64"/>
</g>
<g id="Icon">
	<g>
		<path d="M60.7149,24.8584L56.8421,19L56.0748,4.4211C56.0329,3.6245,55.3747,3,54.5769,3H31.4232
			c-0.7978,0-1.456,0.6245-1.4979,1.4211L29.1579,19l-3.8727,5.8584C25.0983,25.1693,25,25.5247,25,25.8874v2.7792
			C25,29.403,25.597,30,26.3334,30h33.3333C60.403,30,61,29.403,61,28.6666v-2.7792C61,25.5247,60.9017,25.1693,60.7149,24.8584z
			 M39,25l1.1429-3h5.7143L47,25H39z M37.0002,19H32.162l0.6842-13h20.3075l0.6842,13H37.0002z"/>
		<path d="M22.8802,32.6446c-4.563-0.6605-9.1974-0.6605-13.7604,0C7.9457,32.8192,7,33.9109,7,35.0191
			c0,7.9872,0,15.9745,0,23.9617c0.0001,1.1083,0.9457,2.2,2.1198,2.3746c4.563,0.6605,9.1974,0.6605,13.7604,0
			c1.1741-0.1746,2.1197-1.2664,2.1198-2.3746c0-7.9872,0-15.9745,0-23.9617C25,33.9109,24.0543,32.8192,22.8802,32.6446z M16,60
			c-1.1046,0-2-0.8954-2-2c0-1.1046,0.8954-2,2-2c1.1046,0,2,0.8954,2,2C18,59.1046,17.1046,60,16,60z M22,54H10V36h12V54z"/>
		<path d="M48.9365,34h-1.7822c-0.9755,0-1.6006,0.504-1.7247,1.2089c-1.002,5.6948-4.6202,10.4876-9.5637,13.1147l0.4728-3.9377
			c0.0887-0.7396-0.3498-1.4344-1.0459-1.657c-0.6965-0.2231-1.4556,0.0892-1.8095,0.7437l-5.2917,9.7685
			c-0.2269,0.4186-0.2535,0.9177-0.0727,1.3547c0.1808,0.437,0.5492,0.7639,1.0002,0.8868l10.5227,2.8731
			c0.3414,0.0935,0.6925,0.0607,1.0009-0.0738c0.328-0.143,0.6082-0.4015,0.7768-0.7465c0.3273-0.6688,0.1447-1.4751-0.4355-1.9232
			l-3.3145-2.5762c6.6567-3.3194,11.5312-9.6976,12.7529-17.2883C50.5696,34.8333,49.8629,34,48.9365,34z"/>
		<path d="M9.207,27.7916c0.986-5.6041,4.5059-10.3345,9.3285-12.9876l-0.5063,4.0104c-0.0914,0.7273,0.3516,1.4253,1.0566,1.6649
			c0.3635,0.1237,0.7444,0.1074,1.077-0.0244c0.3129-0.1238,0.5837-0.3496,0.7582-0.6577l5.3829-9.4872
			c0.2308-0.4065,0.2589-0.8982,0.0765-1.3346c-0.1823-0.4363-0.555-0.7694-1.0118-0.9037l-10.6579-3.136
			c-0.7136-0.2107-1.4704,0.1074-1.8033,0.7586c-0.3331,0.6505-0.1496,1.4514,0.4374,1.91l3.2661,2.5359
			c-6.475,3.3669-11.1967,9.657-12.3967,17.1125c-0.1472,0.9146,0.5596,1.7478,1.486,1.7478h1.7822
			C8.4578,29.0004,9.083,28.4965,9.207,27.7916z"/>
	</g>
</g>
</svg>
