<?xml version="1.0" encoding="utf-8"?>
<!-- Generator: Adobe Illustrator 19.1.0, SVG Export Plug-In . SVG Version: 6.00 Build 0)  -->
<svg version="1.2" baseProfile="tiny" xmlns="http://www.w3.org/2000/svg" xmlns:xlink="http://www.w3.org/1999/xlink" x="0px"
	 y="0px" width="64px" height="64px" viewBox="0 0 64 64" xml:space="preserve">
<g id="Box">
	<rect fill="none" width="64" height="64"/>
</g>
<g id="Icon">
	<g>
		<path d="M24.1739,38.5651C26.7825,39,31.1305,39,32,39s5.2175,0,7.8261-0.4349c0.9024-0.1504,1.5888-0.8368,1.739-1.739
			C42,34.2175,42,29.8695,42,29c0-2.61,0-5.2175-0.4349-7.8261c-0.1502-0.9022-0.8366-1.5886-1.739-1.739
			C37.2175,19,32.8695,19,32,19s-5.2175,0-7.8261,0.4349c-0.9024,0.1504-1.5888,0.8368-1.739,1.739C22,23.7825,22,28.1305,22,29
			s0,5.2175,0.4349,7.8261C22.5851,37.7283,23.2715,38.4147,24.1739,38.5651z M31.99,21.5602c0.981,0,1.5417,0.5294,1.5417,1.5129
			c0,0.8697-0.5206,1.5505-1.5217,1.5505c-0.981,0-1.5417-0.5485-1.5417-1.5505C30.4683,22.222,30.9888,21.5602,31.99,21.5602z
			 M30.6871,29.8752v-3.501h2.6259v9.6279h-2.8729L30.6871,29.8752z"/>
		<path d="M56,10H8c-1.6569,0-3,1.3431-3,3v35c0,1.6569,1.3431,3,3,3h48c1.6569,0,3-1.3431,3-3V13C59,11.3431,57.6569,10,56,10z
			 M46.5,49c-0.8284,0-1.5-0.6716-1.5-1.5s0.6716-1.5,1.5-1.5s1.5,0.6716,1.5,1.5S47.3284,49,46.5,49z M51.5,49
			c-0.8284,0-1.5-0.6716-1.5-1.5s0.6716-1.5,1.5-1.5s1.5,0.6716,1.5,1.5S52.3284,49,51.5,49z M55,44H9V14h46V44z"/>
	</g>
</g>
</svg>
