<?xml version="1.0" encoding="utf-8"?>
<!-- Generator: Adobe Illustrator 24.0.1, SVG Export Plug-In . SVG Version: 6.00 Build 0)  -->
<svg version="1.1" xmlns="http://www.w3.org/2000/svg" xmlns:xlink="http://www.w3.org/1999/xlink" x="0px" y="0px"
	 viewBox="0 0 64 64" style="enable-background:new 0 0 64 64;" xml:space="preserve">
<style type="text/css">
	.st0{fill:none;}
	.st1{fill:#FF1D25;}
	.st2{fill:#1D1D1B;}
</style>
<g id="Box">
	<rect class="st0" width="64" height="64"/>
</g>
<g id="Icon">
	<g>
		<path d="M21.1,14.2h22v27.5l4,4c0-11.2,0-22.5,0-33.7c0-1.9-1.4-3.7-3.4-4C36,6.9,28.3,6.9,20.6,8c-2,0.3-3.5,2.1-3.5,4
			c0,1.2,0,2.5,0,3.7l4,4V14.2z"/>
		<path d="M57.1,58.8L6.5,8.2l-2.1,2.1l12.8,12.8c0,9.8,0,19.5,0,29.3c0,1.9,1.6,3.7,3.6,4c7.7,1.1,15.3,1.1,23,0
			c1.7-0.3,3.1-1.7,3.4-3.3l7.9,7.9L57.1,58.8z M32.1,54.4c-1.5,0-2.7-1.2-2.7-2.7s1.2-2.7,2.7-2.7s2.7,1.2,2.7,2.7
			S33.6,54.4,32.1,54.4z M21.1,46.2V27.1l19.1,19.1H21.1z"/>
	</g>
</g>
</svg>
