<?xml version="1.0" encoding="utf-8"?>
<!-- Generator: Adobe Illustrator 23.1.1, SVG Export Plug-In . SVG Version: 6.00 Build 0)  -->
<svg version="1.1" xmlns="http://www.w3.org/2000/svg" xmlns:xlink="http://www.w3.org/1999/xlink" x="0px" y="0px"
	 viewBox="0 0 64 64" style="enable-background:new 0 0 64 64;" xml:space="preserve">
<style type="text/css">
	.st0{fill:none;}
</style>
<g id="Box">
	<rect class="st0" width="64" height="64"/>
</g>
<g id="Icon">
	<g>
		<path d="M7,40V20h24c-0.1-1.6-0.1-2.9,0-4H4.5C3.7,16,3,16.7,3,17.5v26C3,44.3,3.7,45,4.5,45h12c0,0-0.8,3.1-1,3.6
			c-0.4,1.3-1.7,1.4-2.1,1.4H12c-0.6,0-1,0.4-1,1v1h9.5c0.3-3.4,1.2-9.1,3-12H7z"/>
		<path d="M58.8,40.5c-1.8-1.9-7.1-3.5-9.6-4.2c-0.7-0.2-1.1-0.7-1.3-1.4c-0.1-0.6-0.2-1.3-0.2-1.3c1.6-1.7,2.7-3.9,3.1-6.6
			c1.5-0.5,1.8-2.3,1.8-3.5c0-1.2-0.2-1.8-0.6-2c-0.2-0.1-0.4-0.1-0.6-0.1c0.2-2.4,0.3-7.2-0.7-9c-1.1-2-2.6-2.5-5.1-1.8
			c-1.7-0.9-2.8-1.8-5.8-1c-2,0.6-4.3,1.5-5.5,3c-1.3,1.6-1,6.4-0.8,8.9c-0.2-0.1-0.4-0.1-0.6,0c-0.4,0.2-0.6,0.8-0.6,2
			c0,1.2,0.3,3,1.8,3.5c0.4,2.9,1.5,5,3.1,6.7c0,0.1-0.1,0.7-0.2,1.2c-0.1,0.5-0.4,1.1-0.9,1.3c-2.6,0.8-8.1,2.5-9.9,4.4
			C23.9,42.9,23,52,23,52h38.9C61.9,52,61.1,42.9,58.8,40.5z"/>
		<path d="M10,36h5.1c0.4,1.2,1.5,2,2.8,2c1.3,0,2.4-0.8,2.8-2H31v-2H20.7c-0.4-1.2-1.5-2-2.8-2c-1.3,0-2.4,0.8-2.8,2H10V36z
			 M17.9,33.5c0.8,0,1.5,0.7,1.5,1.5s-0.7,1.5-1.5,1.5s-1.5-0.7-1.5-1.5S17.1,33.5,17.9,33.5z"/>
		<path d="M10,26c0,2.2,1.8,4,4,4c1.7,0,3.2-1.1,3.7-2.6L14,26v-4C11.8,22,10,23.8,10,26z"/>
		<path d="M19,25c0-2.2-1.8-4-4-4v4l3.7,1.4C18.9,26,19,25.5,19,25z"/>
		<rect x="22" y="25" width="2" height="5"/>
		<rect x="28" y="26" width="2" height="4"/>
		<rect x="25" y="23" width="2" height="7"/>
	</g>
</g>
</svg>
