<?xml version="1.0" encoding="utf-8"?>
<!-- Generator: Adobe Illustrator 25.0.0, SVG Export Plug-In . SVG Version: 6.00 Build 0)  -->
<svg version="1.1" xmlns="http://www.w3.org/2000/svg" xmlns:xlink="http://www.w3.org/1999/xlink" x="0px" y="0px"
	 viewBox="0 0 64 64" style="enable-background:new 0 0 64 64;" xml:space="preserve">
<style type="text/css">
	.st0{fill:none;}
	.st1{fill:#FFFFFF;}
</style>
<g id="Box">
	<rect class="st0" width="64" height="64"/>
</g>
<g id="Icon">
	<g>
		<path d="M60.268,20.303C52.913,13.299,42.958,9,32,9S11.087,13.299,3.732,20.303c-0.405,0.386-0.404,1.037-0.009,1.432l2.83,2.83
			c0.385,0.385,0.999,0.383,1.394,0.01C14.219,18.64,22.684,15,32,15c9.316,0,17.781,3.64,24.053,9.575
			c0.395,0.374,1.01,0.375,1.394-0.01l2.83-2.83C60.672,21.34,60.673,20.689,60.268,20.303z"/>
		<path d="M32,21c-7.643,0-14.595,2.957-19.776,7.789c-0.411,0.383-0.409,1.038-0.012,1.435l2.828,2.828
			c0.384,0.384,0.996,0.382,1.396,0.014C20.531,29.3,25.997,27,32,27s11.469,2.3,15.565,6.066c0.4,0.368,1.011,0.37,1.396-0.014
			l2.828-2.828c0.397-0.397,0.398-1.052-0.012-1.435C46.595,23.957,39.643,21,32,21z"/>
		<path d="M32,33c-4.308,0-8.242,1.603-11.238,4.245c-0.438,0.386-0.471,1.059-0.058,1.472l2.835,2.835
			c0.359,0.359,0.941,0.404,1.328,0.075C26.788,39.989,29.279,39,32,39s5.212,0.989,7.132,2.626c0.387,0.33,0.969,0.285,1.328-0.075
			l2.835-2.835c0.413-0.413,0.381-1.085-0.058-1.472C40.242,34.603,36.308,33,32,33z"/>
		<circle cx="32" cy="50" r="5"/>
	</g>
</g>
</svg>
