<?xml version="1.0" encoding="UTF-8" standalone="no"?>
<!-- Created with Inkscape (http://www.inkscape.org/) -->

<svg
   version="1.1"
   id="svg19598"
   width="810.56641"
   height="852.62164"
   viewBox="0 0 810.5664 852.62163"
   sodipodi:docname="GLB-iconen.ai"
   xmlns:inkscape="http://www.inkscape.org/namespaces/inkscape"
   xmlns:sodipodi="http://sodipodi.sourceforge.net/DTD/sodipodi-0.dtd"
   xmlns="http://www.w3.org/2000/svg"
   xmlns:svg="http://www.w3.org/2000/svg">
  <defs
     id="defs19602">
    <clipPath
       clipPathUnits="userSpaceOnUse"
       id="clipPath23254">
      <path
         d="M 197.45,500 V 181.752 l 302.084,97.56 302.948,97.56 c -19.959,61.835 -49.757,121.67 -89.854,177.238 v 0 C 588.598,726.002 394.143,817.6 197.45,818.248 v 0 z"
         id="path23252" />
    </clipPath>
    <clipPath
       clipPathUnits="userSpaceOnUse"
       id="clipPath23434">
      <path
         d="M 0,1000 H 1000 V 0 H 0 Z"
         id="path23432" />
    </clipPath>
  </defs>
  <sodipodi:namedview
     id="namedview19600"
     pagecolor="#ffffff"
     bordercolor="#000000"
     borderopacity="0.25"
     inkscape:showpageshadow="2"
     inkscape:pageopacity="0.0"
     inkscape:pagecheckerboard="0"
     inkscape:deskcolor="#d1d1d1"
     showgrid="false"
     inkscape:lockguides="true" />
  <g
     id="g23226"
     inkscape:groupmode="layer"
     inkscape:label="Page 63"
     transform="matrix(1.3333333,0,0,-1.3333333,-261.59886,1092.6689)">
    <g
       id="g23248">
      <g
         id="g23250"
         clip-path="url(#clipPath23254)">
        <path
           d="m 197.45,183.413 h 534.096 v -14.48 H 197.45 Z m 0,28.96 h 534.096 v -14.48 H 197.45 Z m 0,28.96 h 534.096 v -14.48 H 197.45 Z m 0,28.96 h 534.096 v -14.48 H 197.45 Z m 0,28.96 h 534.096 v -14.48 H 197.45 Z m 0,28.96 h 534.096 v -14.48 H 197.45 Z"
           style="fill:#76d2b6;fill-opacity:1;fill-rule:evenodd;stroke:none"
           id="path23256" />
        <g
           id="g23258"
           transform="translate(698.3717,474.4289)">
          <path
             d="m 0,0 c -4.967,1.241 -243.348,75.736 -243.348,75.736 l -76.977,26.073 h -129.124 l -63.321,33.522"
             style="fill:none;stroke:#ffd371;stroke-width:15;stroke-linecap:butt;stroke-linejoin:miter;stroke-miterlimit:10;stroke-dasharray:none;stroke-opacity:1"
             id="path23260" />
        </g>
        <g
           id="g23262"
           transform="translate(193.0524,516.6423)">
          <path
             d="M 0,0 73.252,59.595"
             style="fill:none;stroke:#ffd371;stroke-width:15;stroke-linecap:butt;stroke-linejoin:miter;stroke-miterlimit:10;stroke-dasharray:none;stroke-opacity:1"
             id="path23264" />
        </g>
        <g
           id="g23266"
           transform="translate(178.153,562.4148)">
          <path
             d="m 0,0 152.714,-24.831 93.117,-38.489 172.579,38.489 101.809,-1.242"
             style="fill:none;stroke:#ffb612;stroke-width:15;stroke-linecap:butt;stroke-linejoin:miter;stroke-miterlimit:10;stroke-dasharray:none;stroke-opacity:1"
             id="path23268" />
        </g>
        <g
           id="g23270"
           transform="translate(197.4499,474.4289)">
          <path
             d="m 0,0 c 1.242,-1.242 125.967,19.865 125.967,19.865 l 170.541,116.616 93.914,16.232"
             style="fill:none;stroke:#ffd371;stroke-width:15;stroke-linecap:butt;stroke-linejoin:miter;stroke-miterlimit:10;stroke-dasharray:none;stroke-opacity:1"
             id="path23272" />
        </g>
        <g
           id="g23274"
           transform="translate(526.5504,616.5432)">
          <path
             d="M 0,0 46.423,-15.474"
             style="fill:none;stroke:#ffd371;stroke-width:15;stroke-linecap:butt;stroke-linejoin:miter;stroke-miterlimit:10;stroke-dasharray:none;stroke-opacity:1"
             id="path23276" />
        </g>
        <g
           id="g23278"
           transform="translate(189.0885,384.219)">
          <path
             d="m 0,0 139.295,41.789 162.645,-6.208 116.708,6.208 100.568,32.28"
             style="fill:none;stroke:#ffd371;stroke-width:15;stroke-linecap:butt;stroke-linejoin:miter;stroke-miterlimit:10;stroke-dasharray:none;stroke-opacity:1"
             id="path23280" />
        </g>
        <g
           id="g23282"
           transform="translate(185.6022,433.5705)">
          <path
             d="M 0,0 147.285,30.597 324.963,54.146"
             style="fill:none;stroke:#ffd371;stroke-width:15;stroke-linecap:butt;stroke-linejoin:miter;stroke-miterlimit:10;stroke-dasharray:none;stroke-opacity:1"
             id="path23284" />
        </g>
        <g
           id="g23286"
           transform="translate(205.2126,440.342)">
          <path
             d="M 0,0 42.883,-19.088"
             style="fill:#ffb612;fill-opacity:1;fill-rule:nonzero;stroke:#ffd371;stroke-width:15;stroke-linecap:butt;stroke-linejoin:miter;stroke-miterlimit:10;stroke-dasharray:none;stroke-opacity:1"
             id="path23288" />
        </g>
        <g
           id="g23290"
           transform="translate(185.6022,353.9963)">
          <path
             d="M 0,0 H 252.66 L 408.491,-10.308 569.223,4.591"
             style="fill:none;stroke:#ffb612;stroke-width:15;stroke-linecap:butt;stroke-linejoin:miter;stroke-miterlimit:10;stroke-dasharray:none;stroke-opacity:1"
             id="path23292" />
        </g>
        <g
           id="g23294"
           transform="translate(549.7614,371.3781)">
          <path
             d="M 0,0 -33.591,-24.832"
             style="fill:none;stroke:#ffb612;stroke-width:15;stroke-linecap:butt;stroke-linejoin:miter;stroke-miterlimit:10;stroke-dasharray:none;stroke-opacity:1"
             id="path23296" />
        </g>
        <g
           id="g23298"
           transform="translate(460.2594,392.6301)">
          <path
             d="M 0,0 -36.731,-35.584"
             style="fill:none;stroke:#ffb612;stroke-width:15;stroke-linecap:butt;stroke-linejoin:miter;stroke-miterlimit:10;stroke-dasharray:none;stroke-opacity:1"
             id="path23300" />
        </g>
        <g
           id="g23302"
           transform="translate(647.7721,579.9622)">
          <path
             d="M 0,0 -138.119,-3.725 -277.176,29.798 H -410.82"
             style="fill:none;stroke:#ffb612;stroke-width:15;stroke-linecap:butt;stroke-linejoin:miter;stroke-miterlimit:10;stroke-dasharray:none;stroke-opacity:1"
             id="path23304" />
        </g>
        <g
           id="g23306"
           transform="translate(308.5182,660.6643)">
          <path
             d="M 0,0 62.078,-50.904"
             style="fill:none;stroke:#ffb612;stroke-width:15;stroke-linecap:butt;stroke-linejoin:miter;stroke-miterlimit:10;stroke-dasharray:none;stroke-opacity:1"
             id="path23308" />
        </g>
        <g
           id="g23310"
           transform="translate(493.9577,610.9099)">
          <path
             d="M 0,0 22.213,49.754"
             style="fill:none;stroke:#ffd371;stroke-width:15;stroke-linecap:butt;stroke-linejoin:miter;stroke-miterlimit:10;stroke-dasharray:none;stroke-opacity:1"
             id="path23312" />
        </g>
        <g
           id="g23314"
           transform="translate(473.1139,641.3167)">
          <path
             d="M 0,0 C 0,0 -10.187,-23.59 13.672,-28.952 21.714,-6.702 0,0 0,0"
             style="fill:#ffb612;fill-opacity:1;fill-rule:nonzero;stroke:none"
             id="path23316" />
        </g>
        <g
           id="g23318"
           transform="translate(507.3825,397.4817)">
          <path
             d="M 0,0 C 0,0 -8.591,-19.894 11.529,-24.415 18.311,-5.651 0,0 0,0"
             style="fill:#ffb612;fill-opacity:1;fill-rule:nonzero;stroke:none"
             id="path23320" />
        </g>
        <g
           id="g23322"
           transform="translate(371.8981,466.4856)">
          <path
             d="M 0,0 C 0,0 -24.7,-8.656 -12.244,-30.226 9.971,-20.889 0,0 0,0"
             style="fill:#ffb612;fill-opacity:1;fill-rule:nonzero;stroke:none"
             id="path23324" />
        </g>
        <g
           id="g23326"
           transform="translate(328.4811,413.0862)">
          <path
             d="M 0,0 C 0,0 0.86,-20.308 19.699,-15.918 17.772,2.697 0,0 0,0"
             style="fill:#ffb612;fill-opacity:1;fill-rule:nonzero;stroke:none"
             id="path23328" />
        </g>
        <g
           id="g23330"
           transform="translate(323.3727,475.3694)">
          <path
             d="M 0,0 C 0,0 -24.644,6.599 -26.464,-17.61 -3.447,-22.296 0,0 0,0"
             style="fill:#ffb612;fill-opacity:1;fill-rule:nonzero;stroke:none"
             id="path23332" />
        </g>
        <g
           id="g23334"
           transform="translate(494.5553,671.2888)">
          <path
             d="M 0,0 C 0,0 -9.045,-19.978 11.233,-24.909 18.428,-6.043 0,0 0,0"
             style="fill:#ffb612;fill-opacity:1;fill-rule:nonzero;stroke:none"
             id="path23336" />
        </g>
        <g
           id="g23338"
           transform="translate(341.8708,681.2576)">
          <path
             d="M 0,0 C 0,0 -24.517,-10 -10.837,-31.161 11.135,-20.599 0,0 0,0"
             style="fill:#ffb612;fill-opacity:1;fill-rule:nonzero;stroke:none"
             id="path23340" />
        </g>
        <g
           id="g23342"
           transform="translate(361.3229,651.1111)">
          <path
             d="M 0,0 C 0,0 -16.654,5.614 -18.964,-10.951 -3.344,-15.179 0,0 0,0"
             style="fill:#ffb612;fill-opacity:1;fill-rule:nonzero;stroke:none"
             id="path23344" />
        </g>
        <g
           id="g23346"
           transform="translate(510.5651,638.1306)">
          <path
             d="M 0,0 C 0,0 17.815,-8.72 22.825,9.479 5.964,16.497 0,0 0,0"
             style="fill:#ffb612;fill-opacity:1;fill-rule:nonzero;stroke:none"
             id="path23348" />
        </g>
        <g
           id="g23350"
           transform="translate(656.1578,474.3762)">
          <path
             d="m 0,0 h -115.466 l -84.427,-26.965 -226.586,59.298"
             style="fill:none;stroke:#ffb612;stroke-width:15;stroke-linecap:butt;stroke-linejoin:miter;stroke-miterlimit:10;stroke-dasharray:none;stroke-opacity:1"
             id="path23352" />
        </g>
        <g
           id="g23354"
           transform="translate(326.2165,451.7155)">
          <path
             d="M 0,0 46.922,17.45"
             style="fill:none;stroke:#ffb612;stroke-width:15;stroke-linecap:butt;stroke-linejoin:miter;stroke-miterlimit:10;stroke-dasharray:none;stroke-opacity:1"
             id="path23356" />
        </g>
        <g
           id="g23358"
           transform="translate(495.5124,563.822)">
          <path
             d="M 0,0 11.795,-30.663"
             style="fill:none;stroke:#ffd371;stroke-width:15;stroke-linecap:butt;stroke-linejoin:miter;stroke-miterlimit:10;stroke-dasharray:none;stroke-opacity:1"
             id="path23360" />
        </g>
        <g
           id="g23362"
           transform="translate(419.0182,525.9539)">
          <path
             d="M 0,0 61.839,16.141"
             style="fill:none;stroke:#ffd371;stroke-width:15;stroke-linecap:butt;stroke-linejoin:miter;stroke-miterlimit:10;stroke-dasharray:none;stroke-opacity:1"
             id="path23364" />
        </g>
        <g
           id="g23366"
           transform="translate(422.1989,422.4265)">
          <path
             d="m 0,0 -43.532,-33.666 h -62.54"
             style="fill:none;stroke:#ffd371;stroke-width:15;stroke-linecap:butt;stroke-linejoin:miter;stroke-miterlimit:10;stroke-dasharray:none;stroke-opacity:1"
             id="path23368" />
        </g>
        <g
           id="g23370"
           transform="translate(405.361,401.7966)">
          <path
             d="M 0,0 11.174,-18.624"
             style="fill:none;stroke:#ffd371;stroke-width:15;stroke-linecap:butt;stroke-linejoin:miter;stroke-miterlimit:10;stroke-dasharray:none;stroke-opacity:1"
             id="path23372" />
        </g>
        <g
           id="g23374"
           transform="translate(521.9781,423.5241)">
          <path
             d="M 0,0 -33.267,-34.764"
             style="fill:none;stroke:#ffd371;stroke-width:17;stroke-linecap:butt;stroke-linejoin:miter;stroke-miterlimit:10;stroke-dasharray:none;stroke-opacity:1"
             id="path23376" />
        </g>
        <g
           id="g23378"
           transform="translate(273.7545,326.6819)">
          <path
             d="m 0,0 h -25.659 v 327.613 c 0,7.085 5.743,12.829 12.829,12.829 7.086,0 12.83,-5.744 12.83,-12.829 z"
             style="fill:#007bc7;fill-opacity:1;fill-rule:evenodd;stroke:none"
             id="path23380" />
        </g>
        <path
           d="m 600.702,326.874 h -25.659 v 342.442 h 25.659 z"
           style="fill:#007bc7;fill-opacity:1;fill-rule:evenodd;stroke:none"
           id="path23382" />
        <g
           id="g23384"
           transform="translate(214.5983,527.2546)">
          <path
             d="M 0,0 C 0,0 -19.345,-14.535 -2.337,-30.059 14.628,-15.618 0,0 0,0"
             style="fill:#ffb612;fill-opacity:1;fill-rule:nonzero;stroke:none"
             id="path23386" />
        </g>
        <g
           id="g23388"
           transform="translate(210.9342,629.511)">
          <path
             d="M 0,0 C 0,0 -17.194,-12.92 -2.077,-26.719 13.002,-13.883 0,0 0,0"
             style="fill:#ffb612;fill-opacity:1;fill-rule:nonzero;stroke:none"
             id="path23390" />
        </g>
        <g
           id="g23392"
           transform="translate(233.3346,609.0432)">
          <path
             d="M 0,0 C 0,0 -14.744,5.648 -17.423,-9.136 -3.558,-13.503 0,0 0,0"
             style="fill:#ffb612;fill-opacity:1;fill-rule:nonzero;stroke:none"
             id="path23394" />
        </g>
        <g
           id="g23396"
           transform="translate(230.4928,540.0852)">
          <path
             d="M 0,0 C 0,0 -8.477,-13.046 5.22,-18.67 12.281,-6.206 0,0 0,0"
             style="fill:#ffb612;fill-opacity:1;fill-rule:nonzero;stroke:none"
             id="path23398" />
        </g>
        <g
           id="g23400"
           transform="translate(229.6784,635.2122)">
          <path
             d="M 0,0 H 36.626 L 78.84,-25.452"
             style="fill:none;stroke:#ffb612;stroke-width:15;stroke-linecap:butt;stroke-linejoin:miter;stroke-miterlimit:10;stroke-dasharray:none;stroke-opacity:1"
             id="path23402" />
        </g>
        <g
           id="g23404"
           transform="translate(549.7614,474.3762)">
          <path
             d="M 0,0 17.654,-19.059 65.555,-29.236"
             style="fill:none;stroke:#ffb612;stroke-width:15;stroke-linecap:butt;stroke-linejoin:miter;stroke-miterlimit:10;stroke-dasharray:none;stroke-opacity:1"
             id="path23406" />
        </g>
        <g
           id="g23408"
           transform="translate(512.9899,459.2282)">
          <path
             d="M 0,0 C 0,0 5.642,-25.656 28.638,-15.851 22.017,7.412 0,0 0,0"
             style="fill:#ffb612;fill-opacity:1;fill-rule:nonzero;stroke:none"
             id="path23410" />
        </g>
        <g
           id="g23412"
           transform="translate(539.9899,392.4851)">
          <path
             d="M 0,0 115.892,-6.622 301.333,13.657"
             style="fill:none;stroke:#ffd371;stroke-width:15;stroke-linecap:butt;stroke-linejoin:miter;stroke-miterlimit:10;stroke-dasharray:none;stroke-opacity:1"
             id="path23414" />
        </g>
        <g
           id="g23416"
           transform="translate(810.2155,469.1657)">
          <path
             d="m 0,0 -142.717,-53.122 -34.879,-51.738"
             style="fill:none;stroke:#ffb612;stroke-width:15;stroke-linecap:butt;stroke-linejoin:miter;stroke-miterlimit:10;stroke-dasharray:none;stroke-opacity:1"
             id="path23418" />
        </g>
        <g
           id="g23420"
           transform="translate(628.7301,410.1775)">
          <path
             d="M 0,0 H 32.815"
             style="fill:none;stroke:#ffb612;stroke-width:15;stroke-linecap:butt;stroke-linejoin:miter;stroke-miterlimit:10;stroke-dasharray:none;stroke-opacity:1"
             id="path23422" />
        </g>
        <g
           id="g23424"
           transform="translate(741.1744,418.1032)">
          <path
             d="M 0,0 -24.858,-63.085"
             style="fill:none;stroke:#ffb612;stroke-width:15;stroke-linecap:butt;stroke-linejoin:miter;stroke-miterlimit:10;stroke-dasharray:none;stroke-opacity:1"
             id="path23426" />
        </g>
      </g>
    </g>
    <g
       id="g23428">
      <g
         id="g23430"
         clip-path="url(#clipPath23434)">
        <g
           id="g23436"
           transform="translate(315.4342,219.5134)">
          <path
             d="M 0,0 C -16.149,50.187 -62.428,88.503 -117.984,88.503 V -37.761 Z"
             style="fill:#ffffff;fill-opacity:1;fill-rule:nonzero;stroke:none"
             id="path23438" />
        </g>
        <g
           id="g23440"
           transform="translate(315.4342,219.5134)">
          <path
             d="M 0,0 C -16.149,50.187 -62.428,88.503 -117.984,88.503 V -37.761 Z"
             style="fill:none;stroke:#154273;stroke-width:2.5;stroke-linecap:butt;stroke-linejoin:miter;stroke-miterlimit:10;stroke-dasharray:none;stroke-opacity:1"
             id="path23442" />
        </g>
        <g
           id="g23444"
           transform="translate(712.6969,554.1106)">
          <path
             d="m 0,0 c -124.03,171.891 -318.554,263.489 -515.247,264.137 v -636.495 l 302.151,97.56 302.95,97.56 C 69.895,-115.403 40.097,-55.569 0,0"
             style="fill:none;stroke:#154273;stroke-width:2.5;stroke-linecap:butt;stroke-linejoin:miter;stroke-miterlimit:10;stroke-dasharray:none;stroke-opacity:1"
             id="path23446" />
        </g>
      </g>
    </g>
  </g>
</svg>
