<svg height="64" viewBox="0 0 64 64" width="64" xmlns="http://www.w3.org/2000/svg"><path d="m0 0h64v64h-64z" fill="none"/><path d="m55.3329 22.994c-.1648-2.2074-2.1316-3.9938-4.3329-3.994-3.6667 0-7.3333 0-11 0v-4c0-2.2056-1.7939-4-4-4h-8c-2.2061 0-4 1.7944-4 4v4c-3.6667 0-7.3333 0-11 0-2.202 0-4.1681 1.7866-4.3329 3.994-.625 8.6594-.625 17.3526 0 26.012.1646 2.2074 2.1312 3.9941 4.3329 3.994h38c2.2014-.0001 4.168-1.7866 4.3329-3.994.625-8.6594.625-17.3526 0-26.012zm-33.3316 11.5084-6.0013-3.0006 3.8897-7.7794 4.112-.7224 1.8893 3.723zm13.9987-15.5024c-2.6667 0-5.3333 0-8 0v-4h8z"/></svg>