<svg height="64" viewBox="0 0 64 64" width="64" xmlns="http://www.w3.org/2000/svg"><path d="m0 0h64v64h-64z" fill="none"/><path d="m21.1421 23.2949c-.1011-.314-.4692-1.0186-1.7212-.9194-2.7603.2246-4.2036 3.4521-4.0234 5.6665.1812 2.2261 1.582 2.1123 2.0474 2.0752 2.7798-.2266 3.4614-2.4692 3.4678-2.4917.0046-.0159.013-.0294.0181-.0449-.1111-1.4193.0381-2.9049.2568-4.1711-.0147-.0387-.034-.0742-.0455-.1146z"/><path d="m60 3h-56v40h16c.0209.0562-.0531.2623-.3703.3641l-5.4017 1.075-3.228 18.5609h7l1.7391-10h24.5217l1.7392 10h7l-3.228-18.5609-5.4017-1.075c-.3172-.1018-.3912-.3079-.3703-.3641h16zm-42.312 30.1074c-.1597.0127-.3174.0195-.4722.0195-2.6606 0-4.5684-1.8926-4.8086-4.8413-.3262-4.0054 2.3164-8.5376 6.7705-8.9004 1.2106-.0966 2.1624.1732 2.8958.6065.3502-.5796 1.0595-.8692 1.7336-.6553.7891.25 1.2266 1.0928.9766 1.8823-.6948 2.1982-1.416 6.3027-.3926 7.959.2329.377.5283.5693.9873.6421.5394.0865 1.1888-.1693 1.4528-.4604-.0825-.2322-.1276-.506-.1637-.7497-.3925-2.6469.1522-6.2504 1.1611-9.678.0161-.0742.0376-.1475.0654-.2192 1.2046-4.0078 3.0205-7.728 4.6572-9.3076.4404-.4253 1.0957-.5405 1.6558-.2886.5596.251.9097.8169.8843 1.4292-.0068.1675-.2144 4.1011-4.4434 9.4146-1.0391 3.5649-1.5562 7.2803-.7715 9.2231.3125.7739.7056.9292 1.2388.9292 2.6606 0 3.9624-2.0596 4.3989-2.9453.7852-1.5938.8589-3.4697.1714-4.3643-.1426-.1855-.5801-.749-1.9878-.4668-.8154.1621-1.6025-.3638-1.7651-1.1763s.3638-1.6025 1.1763-1.7651c2.8179-.5645 4.3154.7476 4.9551 1.5801 1.4014 1.8232 1.4585 4.8447.1411 7.5181-1.4248 2.8926-4.0752 4.6196-7.0898 4.6196-1.1448 0-2.1234-.3799-2.8789-1.0906-.7184.4807-1.6398.8157-2.6343.8157-.2285 0-.4609-.0176-.6953-.0547-1.1522-.1835-2.0917-.7633-2.7753-1.649-.938.9384-2.3528 1.8033-4.4435 1.9736zm2.7468 15.8926 1.0435-6h21.0435l1.0435 6zm32.0696-20.5269c-.4907 1.6377-2.4272 4.6455-6.2939 4.6455-.1147 0-.231-.0024-.3486-.0078-3.2036-.147-5.3979-2.6069-5.46-6.1221-.061-3.4307 2.1411-7.2612 6.3423-7.6035 2.9199-.2441 4.6797 1.6714 5.2505 2.8384.3643.7441.0562 1.6426-.688 2.0063-.7373.3613-1.6294.0605-1.998-.6709-.0791-.1475-.7539-1.3228-2.3213-1.1836-2.6865.2188-3.6167 2.8472-3.5859 4.5601.0127.7183.2378 3.0703 2.5977 3.1782 2.7056.1289 3.5488-2.2432 3.6353-2.5137.25-.7842 1.0908-1.2275 1.874-.9834.7864.2433 1.2322 1.068.9959 1.8565z"/></svg>