<?xml version="1.0" encoding="utf-8"?>
<!-- Generator: Adobe Illustrator 19.1.0, SVG Export Plug-In . SVG Version: 6.00 Build 0)  -->
<svg version="1.2" baseProfile="tiny" xmlns="http://www.w3.org/2000/svg" xmlns:xlink="http://www.w3.org/1999/xlink" x="0px"
	 y="0px" width="64px" height="64px" viewBox="0 0 64 64" xml:space="preserve">
<g id="Box">
	<rect fill="none" width="64" height="64"/>
</g>
<g id="Icon">
	<g>
		<path d="M43.6759,40.2607c-1.3579-0.4878-2.4795-1.5522-2.9941-2.9756c-0.0651-0.1796-0.1011-0.3628-0.1443-0.5451l-6.4705,1.3845
			c1.0809-1.6707,1.3474-5.259,0.5259-9.2206c-0.9847-4.7493-3.1868-8.3669-5.1188-8.6073l14.4731-3.0968
			c4.9235-1.0533,9.7186,2.2183,10.7327,7.1092c0.0071,0.0342,0.0108,0.0684,0.0159,0.1025
			c1.1197-0.4197,2.3524-0.4351,3.4943-0.0126c1.1885,0.4406,2.131,1.2949,2.6899,2.3934c0.051-1.2332-0.0286-2.4881-0.2899-3.748
			c-1.7117-8.2559-9.762-13.5872-17.8877-11.8481L13.151,17.5189C5.0244,19.2577-0.2241,27.4346,1.4876,35.6899
			c1.7117,8.2559,9.762,13.5873,17.8877,11.8483l20.4437-4.3742C41.2229,42.3693,42.5241,41.3957,43.6759,40.2607z M13.7198,41.875
			C9.907,40.52,7.774,37.9587,7.0765,34.2275c-0.495-2.6475,0.1095-5.1841,1.4426-7.2678l3.5681,2.6163
			c-1.9316,3.1516-1.124,9.2372,2.6607,12.0223C14.7294,42.1033,14.3658,42.1044,13.7198,41.875z"/>
		<path d="M61.9202,40.541l-3.7725-12.024c-0.1615-0.5154-0.5548-0.9266-1.0671-1.1164c-0.5123-0.1899-1.0874-0.1375-1.5609,0.1426
			l-11.0485,6.5322c-0.7404,0.4369-1.0681,1.3268-0.7803,2.1213c0.2871,0.794,1.1083,1.2702,1.9583,1.1357l4.5255-0.7163
			c-2.819,5.8209-8.1957,10.2057-14.7268,11.6089c-0.8085,0.1737-1.3633,0.9173-1.321,2.0435l0.0771,2.0576
			c0.0401,1.0695,1.0327,1.8494,2.0822,1.6398c8.7106-1.7391,15.8631-7.6428,19.4072-15.4716l3.1177,3.7151
			c0.5424,0.6504,1.4812,0.8263,2.2391,0.4195c0.3911-0.2096,0.6774-0.5443,0.8282-0.9291
			C62.0203,41.3378,62.0429,40.9311,61.9202,40.541z"/>
	</g>
</g>
</svg>
