<?xml version="1.0" encoding="utf-8"?>
<!-- Generator: Adobe Illustrator 19.1.0, SVG Export Plug-In . SVG Version: 6.00 Build 0)  -->
<svg version="1.2" baseProfile="tiny" xmlns="http://www.w3.org/2000/svg" xmlns:xlink="http://www.w3.org/1999/xlink" x="0px"
	 y="0px" width="64px" height="64px" viewBox="0 0 64 64" xml:space="preserve">
<g id="Box">
	<rect fill="none" width="64" height="64"/>
</g>
<g id="Icon">
	<g>
		<path d="M16.7926,43.9462c0.1444,0.0718,0.3204,0.0718,0.4648,0c5.4971-2.7327,5.6535-7.6409,3.3081-8.6301
			c-2.3779-1.0031-3.5405,1.1534-3.5405,1.1534s-1.1626-2.1565-3.5405-1.1534C11.139,36.3053,11.2954,41.2135,16.7926,43.9462z"/>
		<path d="M48,56h-4.8734c5.7902-3.4626,9.6878-9.7767,9.6878-17c0-7.7091-4.4349-14.3873-10.8786-17.6612
			c-0.3865,2.4577-1.4585,3.7339-1.8142,4.0995c-0.2855,0.2935-0.5711,0.3014-0.6606,0.1528C39.7779,24.9134,40,23.7841,40,23
			c0-2.4595-1.4815-4.5707-3.5994-5.4971l2.6617-4.3002l-1.9877-1.2303l2.4606-3.9753l1.1373,0.704
			c0.4696,0.2906,1.0859,0.1456,1.3766-0.324l0.704-1.1373c0.3398-0.5489-1.1646-2.0955-3.3601-3.4544s-4.2507-2.0156-4.5905-1.4667
			l-0.704,1.1373c-0.2907,0.4696-0.1456,1.0859,0.324,1.3766l1.1373,0.704l-2.4606,3.9753l-1.9876-1.2303L19.9269,26.3517
			l-0.3487-0.2158c-0.9392-0.5814-2.1719-0.2912-2.7532,0.648l-0.7928,1.2809c-0.3397,0.5488,2.0546,2.6462,5.3478,4.6847
			c3.2932,2.0384,6.2383,3.2459,6.5781,2.697l0.7928-1.2809c0.5813-0.9392,0.2912-2.1719-0.648-2.7532l-0.2254-0.1395l2.2733-3.6727
			C31.1927,28.4731,32.5344,29,34,29c1.7532,0,3.3256-0.7565,4.4227-1.9554c4.5447,2.07,7.7179,6.6444,7.7179,11.9554
			c0,7.2458-5.8948,13.1406-13.1406,13.1406c-3.2379,0-6.1938-1.1902-8.4848-3.1406H28v-4H11v4h4.9293
			c1.6942,2.8715,4.0815,5.2881,6.9441,7H18c-1.6569,0-3,1.3431-3,3v3h36v-3C51,57.3431,49.6569,56,48,56z M34,25
			c-1.1046,0-2-0.8954-2-2s0.8954-2,2-2c1.1046,0,2,0.8954,2,2S35.1046,25,34,25z"/>
	</g>
</g>
</svg>
