<?xml version="1.0" encoding="utf-8"?>
<!-- Generator: Adobe Illustrator 21.0.2, SVG Export Plug-In . SVG Version: 6.00 Build 0)  -->
<svg version="1.2" baseProfile="tiny" xmlns="http://www.w3.org/2000/svg" xmlns:xlink="http://www.w3.org/1999/xlink" x="0px"
	 y="0px" width="64px" height="64px" viewBox="0 0 64 64" xml:space="preserve">
<g id="Box">
	<rect fill="none" width="64" height="64"/>
</g>
<g id="Icon">
	<g>
		<path d="M14,36c0,1.7,1.3,3,3,3c0.4,0,0.7-0.1,1-0.2v-5.6c-0.3-0.1-0.6-0.2-1-0.2C15.3,33,14,34.3,14,36z M1,24v16
			c0,2.2,1.8,4,4,4h13v-2H5c-1.1,0-2-0.9-2-2V24c0-1.1,0.9-2,2-2h13v-2H5C2.8,20,1,21.8,1,24z M14,28c0,1.7,1.3,3,3,3
			c0.4,0,0.7-0.1,1-0.2v-5.6c-0.3-0.1-0.6-0.2-1-0.2C15.3,25,14,26.3,14,28z M9,25c-1.7,0-3,1.3-3,3s1.3,3,3,3s3-1.3,3-3
			S10.7,25,9,25z M61,18H21c-0.6,0-1,0.4-1,1v26c0,0.6,0.4,1,1,1h40c0.6,0,1-0.4,1-1V19C62,18.4,61.6,18,61,18z M47,33.7
			c0,0.2-0.1,0.3-0.3,0.3H43v3.7c0,0.2-0.1,0.3-0.3,0.3h-3.4c-0.2,0-0.3-0.1-0.3-0.3V34h-3.7c-0.2,0-0.3-0.1-0.3-0.3v-3.4
			c0-0.2,0.1-0.3,0.3-0.3H39v-3.7c0-0.2,0.1-0.3,0.3-0.3h3.4c0.2,0,0.3,0.1,0.3,0.3V30h3.7c0.2,0,0.3,0.1,0.3,0.3V33.7z M9,33
			c-1.7,0-3,1.3-3,3s1.3,3,3,3s3-1.3,3-3S10.7,33,9,33z"/>
	</g>
</g>
</svg>
