<?xml version="1.0" encoding="utf-8"?>
<!-- Generator: Adobe Illustrator 17.1.0, SVG Export Plug-In . SVG Version: 6.00 Build 0)  -->
<svg version="1.2" baseProfile="tiny" xmlns="http://www.w3.org/2000/svg" xmlns:xlink="http://www.w3.org/1999/xlink" x="0px"
	 y="0px" width="64px" height="64px" viewBox="0 0 64 64" xml:space="preserve">
<g id="Box">
	<rect fill="none" width="64" height="64"/>
</g>
<g id="Icon">
	<g>
		<path d="M61.7887,45.8987c-1.1173-5.3552-6.3719-8.8133-11.6757-7.6853l-19.2888,4.1013
			c-5.3044,1.1279-8.7302,6.4318-7.613,11.7866c1.1173,5.3552,6.3719,8.8134,11.6757,7.6854l19.2887-4.1013
			C59.48,56.5575,62.9059,51.2535,61.7887,45.8987z M31.051,57.7467c-2.2983-0.8117-3.584-2.3459-4.0045-4.5811
			c-0.2983-1.5858,0.066-3.1053,0.8696-4.3535l2.1507,1.5672c-1.1643,1.8878-0.6775,5.5332,1.6038,7.2015
			C31.6595,57.8835,31.4404,57.8841,31.051,57.7467z M53.3632,53.7909l-8.8867,1.8895c0.7055-1.0837,0.8795-3.4112,0.3433-5.9809
			c-0.6428-3.0806-2.0801-5.4272-3.3412-5.5831l9.4469-2.0087c3.2137-0.6832,6.3435,1.4389,7.0054,4.6113
			C58.6002,49.9264,56.5396,53.1155,53.3632,53.7909z"/>
		<path d="M20.5334,47.7859c-4.1341-0.101-7.8043-0.3746-10.5334-0.7667V47V30.186C13.4737,30.6851,18.4511,31,24,31
			c5.5488,0,10.5263-0.3149,14-0.814v7.5358l4.9885-1.0607c0,0,0.0104-7.9921,0.01-8.1574C42.9985,28.5024,43,28.5013,43,28.5
			s-0.0015-0.0025-0.0015-0.0038c-0.0143-5.5439-0.1285-6.5556-4.4271-8.4458c-1.3919-0.6121-2.1199-1.5162-2.4966-2.3914
			c-3.9353-0.6974-12.5649-2.2292-12.8197-2.296C22.9249,15.2763,23.0098,15,23.0098,15H39V4.8889C39,3.2934,37.5862,2,35.8421,2
			H12.1579C10.4138,2,9,3.2934,9,4.8889V15h3.2385c0.0052,0.024,0.7405,3.4892-2.81,5.0504
			c-4.2991,1.8905-4.4244,2.9022-4.428,8.4482L5,28.5l0.0005,0.0013c-0.0001,0.1661,0.045,27.4965,0.045,27.4965
			c0.0066,3.4355,11.6281,3.9405,17.4855,3.9959c-1.1808-1.5176-2.0443-3.3059-2.4561-5.2797
			C19.5754,52.3196,19.7801,49.9417,20.5334,47.7859z"/>
	</g>
</g>
</svg>
