<svg enable-background="new 0 0 64 64" viewBox="0 0 64 64" xmlns="http://www.w3.org/2000/svg"><path d="m0 0h64v64h-64z" fill="none"/><path d="m32 8c-13.255 0-24 10.745-24 24s10.745 24 24 24 24-10.745 24-24-10.745-24-24-24zm-17.211 17.869 5.549-.806 2.482-5.028 2.482 5.028 5.549.806-4.015 3.914.948 5.527-4.963-2.609-4.963 2.609.948-5.527zm29.404 14.184c-1.93 4.002-6.661 8.075-12.193 8.075s-10.263-4.073-12.193-8.076c-.226-.469.318-.947.749-.656 2.927 1.976 6.972 3.582 11.444 3.582s8.517-1.606 11.444-3.581c.431-.291.975.187.749.656zm1.951-4.743-4.963-2.609-4.963 2.609.948-5.527-4.015-3.914 5.549-.806 2.482-5.028 2.482 5.028 5.549.806-4.015 3.914z"/></svg>