<svg width="10" height="274" viewBox="0 0 10 274" fill="none" xmlns="http://www.w3.org/2000/svg">
<path d="M0.5 261.5C0.5 263.61 0.913689 265.137 1.68942 266.301C2.45321 267.446 3.46772 268.072 4.21783 268.53C5.0244 269.023 5.49972 269.316 5.85658 269.798C6.17574 270.23 6.5 270.97 6.5 272.5H9.5C9.5 270.53 9.07426 269.104 8.26842 268.014C7.50028 266.976 6.4756 266.394 5.78217 265.97C5.03228 265.512 4.54679 265.179 4.18558 264.637C3.83631 264.113 3.5 263.223 3.5 261.5H0.5ZM0.5 257.5V261.5H3.5V257.5H0.5ZM3.5 257.5V0.5H0.5V257.5H3.5ZM9.5 274V272.5H6.5V274H9.5Z" fill="#007BC7"/>
</svg>
