<?xml version="1.0" encoding="utf-8"?>
<!-- Generator: Adobe Illustrator 17.1.0, SVG Export Plug-In . SVG Version: 6.00 Build 0)  -->
<svg version="1.2" baseProfile="tiny" xmlns="http://www.w3.org/2000/svg" xmlns:xlink="http://www.w3.org/1999/xlink" x="0px"
	 y="0px" width="64px" height="64px" viewBox="0 0 64 64" xml:space="preserve">
<g id="_x36_4px_Boxes">
	<rect fill="none" width="64" height="64"/>
</g>
<g id="Production">
	<g>
		<polygon points="4,60 23.0602,60 26.4924,3 22.5508,3 		"/>
		<path d="M59.4725,6.0608L43.7986,6c-1.0497-0.0051-1.9567,0.7361-2.1606,1.7669c-0.2045,1.03,0.3499,2.0607,1.3221,2.4583
			l5.7412,2.3468c0,0-0.835,0.698-0.9057,0.7543c-2.9944,2.3848-6.3154,5.3979-8.8723,9.5687L32.4482,3h-3.9407l3.4323,57H51
			c0,0-2.8333-8.1667-6.0901-18.7116c-3.2577-10.5479,0.8905-18.1479,8.8633-24.5604c0.4203-0.3381,1.7623-1.3973,2.236-1.6552
			c0,0,0.2133,0.1388-0.0981,0.528c-0.2498,0.3123-2.9574,3.8361-2.9574,3.8361l0.6428,4.3688
			c0.1529,1.0392,1.0208,1.8244,2.0698,1.8726c0.5411,0.0253,1.0522-0.1497,1.4539-0.4644
			c0.3778-0.2959,0.6597-0.7155,0.7792-1.2098l3.6968-15.2319C61.9308,7.3957,60.8891,6.0658,59.4725,6.0608z"/>
	</g>
</g>
</svg>
