<svg xmlns="http://www.w3.org/2000/svg" viewBox="0 0 64 64"><defs><style>.cls-1{fill:none;}</style></defs><g id="BOX"><rect class="cls-1" width="64" height="64"/></g><g id="ICOON"><path d="M32,5A27,27,0,1,0,59,32,27,27,0,0,0,32,5Zm0,51A24,24,0,1,1,56,32,24,24,0,0,1,32,56Z"/><path d="M38.12,29c0-3.19-2.19-5.43-6.33-5.43-.64,0-1.06,0-1.76.08V20.13h7.08v-3h-10v9.71a31.88,31.88,0,0,1,3.19-.19c2.8,0,4,1.06,4,2.85,0,2.16-2,3.45-5,3.45H26.83v2.8h2.33C34.51,35.76,38.12,33.13,38.12,29Z"/><polygon points="24.82 41.05 23.31 41.05 21.8 42.98 21.35 42.98 21.35 38.81 19.99 38.88 19.99 46.51 21.35 46.51 21.35 44.01 21.88 44.01 23.33 46.51 24.96 46.51 22.99 43.34 24.82 41.05"/><path d="M32.27,41a2.74,2.74,0,0,0-1.72.61A1.77,1.77,0,0,0,29.07,41a2.33,2.33,0,0,0-1.43.45V41l-1.31,0v5.43h1.35V42.4a2.35,2.35,0,0,1,.95-.17c.59,0,.93.27.93,1v3.27h1.36V42.4a2.21,2.21,0,0,1,.94-.17c.61,0,.94.28.94,1v3.27h1.35V42.94A1.74,1.74,0,0,0,32.27,41Z"/><polygon points="35.09 48.02 36.1 48.31 38.69 38.87 37.68 38.58 35.09 48.02"/><path d="M42.62,45.14a2.07,2.07,0,0,1-1,.22c-.63,0-.9-.28-.9-1V41l-1.34,0v3.51c0,1.29.62,2,1.89,2a2.35,2.35,0,0,0,1.38-.49v.38H44V41l-1.34,0Z"/></g></svg>