<?xml version="1.0" encoding="utf-8"?>
<!-- Generator: Adobe Illustrator 19.1.0, SVG Export Plug-In . SVG Version: 6.00 Build 0)  -->
<svg version="1.2" baseProfile="tiny" xmlns="http://www.w3.org/2000/svg" xmlns:xlink="http://www.w3.org/1999/xlink" x="0px"
	 y="0px" width="64px" height="64px" viewBox="0 0 64 64" xml:space="preserve">
<g id="_x36_4px_Box">
	<rect fill="none" width="64" height="64"/>
</g>
<g id="Icon">
	<g>
		<rect x="17" y="30" width="30" height="9"/>
		<rect x="17" y="9" width="30" height="7"/>
		<path d="M57.5054,28l-1.1414,5.7349c-0.0703,0.3255-0.3079,0.2708-0.3641,0.2499V19c0-0.5523-0.4477-1-1-1H9
			c-0.5523,0-1,0.4477-1,1v14.9848c-0.0562,0.0209-0.2858,0.0679-0.3641-0.2499L6.4946,28H1v18.8793
			c1.0001,0.4099,2.2883,0.9903,3.5723,0.9903c2.3729,0,4.8287-1.7403,6.8613-3.0601C12.7048,45.6384,13.752,46.3531,15,46.962V28
			h34v18.9653c1.233-0.6035,2.3034-1.3306,3.5742-2.1557c1.9808,1.2904,4.4822,3.0601,6.8535,3.0601
			c1.2769,0,2.5723-0.5833,3.5723-0.9932V28H57.5054z"/>
		<path d="M52.5723,47.4343c-1.9217,1.2474-4.3122,2.6357-6.8584,2.6357c-2.531,0-4.9498-1.3942-6.8555-2.6357
			C36.9367,48.6816,34.5462,50.07,32,50.07c-2.5021,0-4.9015-1.3582-6.8569-2.6426c-1.9785,1.2996-4.3679,2.6426-6.8569,2.6426
			c-2.531,0-4.9498-1.3942-6.8555-2.6357C9.5014,48.6866,7.1135,50.07,4.5718,50.07c-1.2473,0-2.5317-0.3867-3.5718-0.813v4.1675
			C2.1038,53.7591,3.3297,54,4.5718,54c2.7476,0,5.415-1.1777,6.8574-1.9424C12.8711,52.8223,15.5386,54,18.2861,54
			c2.7471,0,5.415-1.1777,6.8569-1.9424C26.585,52.8223,29.2524,54,32,54s5.415-1.1777,6.8569-1.9424
			C40.2988,52.8223,42.9668,54,45.7139,54c2.7476,0,5.415-1.1777,6.8569-1.9424C54.0132,52.8223,56.6807,54,59.4282,54
			c1.2421,0,2.468-0.2409,3.5718-0.5755v-4.1701c-1.0424,0.4273-2.3286,0.8156-3.5718,0.8156
			C56.8972,50.07,54.478,48.6758,52.5723,47.4343z"/>
	</g>
</g>
</svg>
