<?xml version="1.0" encoding="utf-8"?>
<!-- Generator: Adobe Illustrator 19.1.0, SVG Export Plug-In . SVG Version: 6.00 Build 0)  -->
<svg version="1.2" baseProfile="tiny" xmlns="http://www.w3.org/2000/svg" xmlns:xlink="http://www.w3.org/1999/xlink" x="0px"
	 y="0px" width="64px" height="64px" viewBox="0 0 64 64" xml:space="preserve">
<g id="_x36_4px_Box">
	<rect fill="none" width="64" height="64"/>
</g>
<g id="Icon">
	<g>
		<path d="M30.4064,3l-0.4309,3h-1.5568l0.661-3H25L3,60h13.5203l1.5424-7h5.1614l-1.0055,7H36.1L34.675,3H30.4064z
			 M24.6558,43.0331h-4.397L22.2491,34h3.7042L24.6558,43.0331z M27.1025,26h-3.0907l1.5424-7h2.5538L27.1025,26z M28.8263,14
			h-2.1703l0.8813-4h1.8636L28.8263,14z"/>
		<path d="M40,3h-3.9983l5.7966,57h8.3525l-1.6-7.7062l-1.6583,1.519c-1.678,1.4903-3.2-0.1511-2.2765-1.6213l3.616-6.1456
			c0.1296-0.2208,0.3641-0.3504,0.6385-0.3548c0.2745-0.0045,0.5641,0.1168,0.7899,0.3319l6.2895,5.9868
			c1.0927,1.0387,0.1361,2.8015-1.4106,1.7693l-2.4407-1.5352L54.2513,60H62L40,3z"/>
	</g>
</g>
</svg>
