<?xml version="1.0" encoding="utf-8"?>
<!-- Generator: Adobe Illustrator 17.1.0, SVG Export Plug-In . SVG Version: 6.00 Build 0)  -->
<svg version="1.2" baseProfile="tiny" xmlns="http://www.w3.org/2000/svg" xmlns:xlink="http://www.w3.org/1999/xlink" x="0px"
	 y="0px" width="64px" height="64px" viewBox="0 0 64 64" xml:space="preserve">
<g id="_x36_4px_Boxes">
	<rect fill="none" width="64" height="64"/>
</g>
<g id="Production">
	<g>
		<circle cx="22" cy="27" r="3"/>
		<path d="M16.0731,28c0.1352,0,0.6924,0,1.5471,0C17.5468,27.6774,17.5,27.3449,17.5,27c0-2.4861,2.0139-4.5,4.5-4.5
			s4.5,2.0139,4.5,4.5c0,0.3449-0.0468,0.6774-0.1202,1c3.5799,0,7.5981,0,11.2404,0C37.5468,27.6774,37.5,27.3449,37.5,27
			c0-2.4861,2.0139-4.5,4.5-4.5s4.5,2.0139,4.5,4.5c0,0.3449-0.0468,0.6774-0.1202,1c1.4859,0,2.39,0,2.39,0
			c3.2599-0.6665,3.8079-2.9156,2.7253-4.8442c-1.9965-3.5556-10.9003-4.4896-10.9003-4.4896s-4.0372-3.8008-6.1299-4.2452
			c-2.0919-0.4451-7.4455-0.6665-10.2184,0c-2.7722,0.6666-7.1031,4.2452-7.1031,4.2452s-2.8638,0.405-3.5529,1.9561
			c-0.7296,1.6448-0.7296,4.3109-0.2912,5.4218C13.7528,27.1924,14.9051,28,16.0731,28z"/>
		<circle cx="42" cy="27" r="3"/>
		<polygon points="9.7608,63 27.7429,63 30.6761,42 25.0795,42 		"/>
		<polygon points="33.3267,42 36.2608,63 54.2429,63 38.921,42 		"/>
		<path d="M2,32v6h5v13h5.8271L18,45.4142v-5.9088l-5.7349-1.1414c-0.3172-0.1018-0.2708-0.3079-0.2499-0.3641h39.9696
			c0.0209,0.0562,0.0673,0.2623-0.2499,0.3641L46,39.5054v5.9088L51.1728,51H57V38h5v-6H2z"/>
	</g>
</g>
</svg>
