<?xml version="1.0" encoding="utf-8"?>
<!-- Generator: Adobe Illustrator 19.1.0, SVG Export Plug-In . SVG Version: 6.00 Build 0)  -->
<svg version="1.2" baseProfile="tiny" xmlns="http://www.w3.org/2000/svg" xmlns:xlink="http://www.w3.org/1999/xlink" x="0px"
	 y="0px" width="64px" height="64px" viewBox="0 0 64 64" xml:space="preserve">
<g id="_x36_4px_Box">
	<rect fill="none" width="64" height="64"/>
</g>
<g id="Icon">
	<g>
		<path d="M58.583,50.4746l-24.207-41C33.8369,8.5605,32.8545,8,31.793,8c-0.004,0-0.0079,0-0.0117,0
			c-1.0656,0.0039-2.0479,0.5732-2.5831,1.4941l-23.7929,41c-0.5381,0.9278-0.5401,2.0733-0.0049,3.003
			C5.9355,54.4268,6.9268,55,8,55h48c1.0771,0,2.0713-0.5771,2.6055-1.5127C59.1396,52.5518,59.1309,51.4023,58.583,50.4746z
			 M13.21,49l18.6053-32.0615L50.7451,49H13.21z"/>
		<path d="M28.2258,29.2903V31h-1.9033c-0.1603,0-0.2903,0.1299-0.2903,0.2903v2.1832c0.9772-0.2706,2.6343-0.5139,4.0316-0.6137
			c2.4153-0.1725,4.1199,0.53,5.2062,1.1951c0.1417,0.0867,0.1829,0.1894,0.1718,0.2877c-1.105-0.2988-2.3013-0.5167-3.4419-0.5167
			c-3.6355,0-7.8387,2.212-7.8387,2.212c0,2.3258,0.4896,5.1017,0.833,6.7653c0.7487-0.229,1.4207-0.5922,1.6223-0.7217
			l1.3189-0.8477l1.3189,0.8477C29.6326,42.319,30.9521,43,32,43c1.0927,0,2.4439-0.7247,2.7456-0.9186l1.3189-0.8477l1.3189,0.8477
			c0.2487,0.1562,0.9053,0.5012,1.6231,0.7212c0.3434-1.6605,0.8322-4.4304,0.8322-6.7647c0,0-0.4624-0.4954-1.8387-1.0172v-3.7304
			C38,31.1299,37.87,31,37.7097,31h-1.9355v-1.7097c0-0.1604-0.1299-0.2903-0.2903-0.2903h-6.9678
			C28.3558,29,28.2258,29.1299,28.2258,29.2903z M31.0323,40h-4.0645v-1.7419c0-0.3209,0.26-0.5806,0.5806-0.5806
			s0.5806,0.2597,0.5806,0.5806v0.5806h1.7419v-0.5806c0-0.321,0.26-0.5806,0.5806-0.5806s0.5807,0.2596,0.5807,0.5806V40z
			 M35.9355,38.8387v-0.5806c0-0.321,0.26-0.5806,0.5806-0.5806s0.5807,0.2596,0.5807,0.5806V40h-4.0645v-1.7419
			c0-0.3209,0.26-0.5806,0.5806-0.5806s0.5806,0.2597,0.5806,0.5806v0.5806H35.9355z"/>
		<path d="M36.0645,43.198l-0.6277,0.4037C35.4193,43.613,33.645,44.7239,32,44.7239c-1.6552,0-3.421-1.1119-3.4368-1.1222
			l-0.6277-0.4037l-0.6277,0.4037c-0.0176,0.0114-1.7919,1.1222-3.4368,1.1222c-0.7057,0-1.2692-0.2025-1.871-0.4352v2.3959
			C22.6327,46.8672,23.1649,47,23.871,47c1.6319,0,3.218-0.6918,4.0645-1.1335C28.782,46.3082,30.368,47,32,47
			s3.218-0.6918,4.0645-1.1335C36.9111,46.3082,38.4971,47,40.129,47c0.7061,0,1.2383-0.1328,1.871-0.3155v-2.3973
			c-0.6031,0.2333-1.1677,0.4367-1.871,0.4367c-1.6552,0-3.4209-1.1119-3.4368-1.1222L36.0645,43.198z"/>
	</g>
</g>
</svg>
