<?xml version="1.0" encoding="utf-8"?>
<!-- Generator: Adobe Illustrator 17.1.0, SVG Export Plug-In . SVG Version: 6.00 Build 0)  -->
<svg version="1.2" baseProfile="tiny" xmlns="http://www.w3.org/2000/svg" xmlns:xlink="http://www.w3.org/1999/xlink" x="0px"
	 y="0px" width="64px" height="64px" viewBox="0 0 64 64" xml:space="preserve">
<g id="_x36_4px_Boxes">
	<rect fill="none" width="64" height="64"/>
</g>
<g id="Production">
	<g>
		<path d="M11.4355,44.9912l2.1885,1.415C14.2559,46.8125,16.5049,48,18.2861,48c1.854,0,4.1494-1.2578,4.6626-1.5938l2.1943-1.4404
			l2.1948,1.4404C27.9697,46.8125,30.2188,48,32,48s4.0303-1.1875,4.6777-1.6045l2.1851-1.4043l2.1885,1.415
			C41.6836,46.8115,43.9331,48,45.7139,48c1.7812,0,4.0303-1.1875,4.6777-1.6045l2.1851-1.4043l2.1885,1.415
			c0.5829,0.3737,2.537,1.4014,4.2349,1.5613V20c0-0.5523-0.4477-1-1-1h-3v-8h-4v7l2.7349,0.6359
			c0.3172,0.1018,0.2708,0.3079,0.2499,0.3641H48c-0.5523,0-1,0.4477-1,1v8H17v-8c0-0.5523-0.4477-1-1-1h-3v-8H9v7l2.7349,0.6359
			c0.3172,0.1018,0.2708,0.3079,0.2499,0.3641H6c-0.5523,0-1,0.4477-1,1v27.9676c1.698-0.16,3.6531-1.1885,4.25-1.5721
			L11.4355,44.9912z M47,40h-5.744L47,35.0862V40z M43.2853,33l-4.3683,3.7373L34.548,33H43.2853z M36.5778,40h-9.1553L32,36.084
			L36.5778,40z M29.4521,33l-4.3686,3.7373L20.715,33H29.4521z M17,35.0862L22.7443,40H17V35.0862z"/>
		<path d="M59.4282,50.07c-2.77,0-5.7344-1.9053-5.7603-1.9219l-1.0957-0.7139l-1.0952,0.7109
			c-0.0298,0.0195-2.9932,1.9248-5.7632,1.9248c-2.7695,0-5.7339-1.9053-5.7598-1.9219l-1.0957-0.7139l-1.0952,0.7109
			C37.7334,48.1647,34.77,50.07,32,50.07s-5.7334-1.9053-5.7598-1.9219l-1.0972-0.7207l-1.0972,0.7207
			c-0.0293,0.0186-3.0063,1.9219-5.7598,1.9219c-2.77,0-5.7334-1.9053-5.7598-1.9219l-1.0957-0.7139l-1.0952,0.7109
			C10.3062,48.1647,7.3418,50.07,4.5718,50.07c-1.2473,0-2.5317-0.3867-3.5718-0.813v4.1675C2.1038,53.7591,3.3297,54,4.5718,54
			c2.7476,0,5.415-1.1777,6.8574-1.9424C12.8711,52.8223,15.5386,54,18.2861,54c2.7471,0,5.415-1.1777,6.8569-1.9424
			C26.585,52.8223,29.2524,54,32,54s5.415-1.1777,6.8569-1.9424C40.2988,52.8223,42.9668,54,45.7139,54
			c2.7476,0,5.415-1.1777,6.8569-1.9424C54.0132,52.8223,56.6807,54,59.4282,54c1.2421,0,2.468-0.2409,3.5718-0.5755v-4.1701
			C61.9576,49.6817,60.6714,50.07,59.4282,50.07z"/>
	</g>
</g>
</svg>
