<svg viewBox="0 0 64 64" xmlns="http://www.w3.org/2000/svg"><path d="m0 0h64v64h-64z" fill="none"/><path d="m33.25 12.86c1 2.77 2.42 6.37 3.62 9.22a4.48 4.48 0 0 1 1.37 0c2.81.42 4.59 2.82 4.75 6.24a31.9 31.9 0 0 1 -2 13.53c-.11.29-.25.32-.38.3 1-5.59 1.12-9.12.42-13.46-.53-3.29-2.11-4.49-3.41-4.46s-2 .93-2.1 2.95a131.86 131.86 0 0 1 -1.85 16.82 16.65 16.65 0 0 0 2.62 11.43 23.41 23.41 0 0 0 3 4l11.14-5.79-3-7.48a4.94 4.94 0 0 1 -.3-2.69l2.28-10.26a10 10 0 0 0 -1.22-6.65l-12.9-20.46s-4.01 1.01-2.04 6.76z"/><path d="m30.75 12.86c-.95 2.77-2.42 6.37-3.62 9.22a4.48 4.48 0 0 0 -1.37 0c-2.81.42-4.59 2.82-4.75 6.24a31.9 31.9 0 0 0 2 13.53c.11.29.25.32.38.3-1-5.59-1.12-9.12-.42-13.46.53-3.29 2.11-4.49 3.41-4.46s2 .93 2.1 2.95a131.86 131.86 0 0 0 1.85 16.82 16.65 16.65 0 0 1 -2.62 11.43 23.41 23.41 0 0 1 -3 4l-11.13-5.77 3-7.48a4.94 4.94 0 0 0 .3-2.69l-2.24-10.26a10 10 0 0 1 1.22-6.65l12.85-20.48s4.01 1.01 2.04 6.76z"/></svg>