<svg height="64" viewBox="0 0 64 64" width="64" xmlns="http://www.w3.org/2000/svg"><path d="m0 0h64v64h-64z" fill="none"/><path d="m0 0h64v64h-64z" fill="none"/><path d="m52.23 44.7586c-2.7689.9518-6.3675 2.413-9.2219 3.6127.0737.4328.0837.8923.012 1.3787-.4146 2.8079-2.82 4.5833-6.2404 4.7416-7.7327.3578-12.5347-1.5577-13.5313-1.9618-.2862-.1161-.318-.2576-.2923-.3882.0015-.0012.0111-.0091.0111-.0091 5.5945.9645 9.1206 1.1222 13.4634.4237 3.295-.53 4.489-2.106 4.4613-3.4058-.027-1.2701-.9267-2.0373-2.9519-2.1077-6.8902-.2395-10.9187-1.0081-16.8242-1.8688-4.1042-.5981-8.0618.4671-11.4327 2.6266-3.1635 2.0265-4.0402 2.9852-4.0402 2.9852l5.7857 11.1429 7.4819-3.0415c.8526-.3466 1.7844-.4511 2.6926-.3021l10.2607 2.283c2.2892.3757 4.6379-.0563 6.6438-1.2219l20.4795-12.8461s-1.0043-4.019-6.7571-2.0414z"/><path d="m51.3388 14.9809c-.6616-.648-1.0149-1.5591-1.6197-2.8926-.8881-1.9579-3-3.8058-4.9081-4.1672-2.0189-.3824-2.8707-.8439-4.3524-1.1217s-3.7096-1.8732-6.2045-2.0373c-3.3404-.2197-4.7082.7085-6.6677 1.2964-1.9852.5956-3.8822-.2281-6.4728.7391-2.336.8722-3.2413 2.4048-4.7159 4.1602-1.4393 1.7133-1.7208 1.4661-3.4192 2.4063-1.8478 1.023-4.1906 3.8277-3.8277 7.6883.1507 1.6021-1.0171 3.7989-.6401 5.926.4214 2.3778 3.3672 4.6758 5.5736 5.035 2.3155.377 5.5381-.3853 5.5381-.3853.7204 2.4413 2.7727 3.359 4.8709 3.6158 1.7283-.0009 3.4541-.1239 5.9189-1.2425 2.8339-1.268 3.0119-2.0344 5.5714-2.532 1.6315-.3024 3.6594-.4223 5.1555-.9439 1.3283-.4497 2.0725-.9806 2.8618-1.8025.0627-.0149.153-.0053.169.193.0332.4107-.4485 2.8318-3.5982 3.8268-2.3481.6999-4.3661.7122-5.6319 1.4706-.8863.5197-1.8084 1.0955-2.7511 1.5984 5.195 3.0687 6.5105 8.2253 6.5105 8.2253h5.2784c-.463-2.3152-1.389-4.8155-1.389-4.8155s3.1485-.8335 5.6488-3.7968c2.5004-2.9634 2.593-7.5011 2.593-7.5011s3.1546-2.1049 3.2471-5.7165c.0927-3.6116-.6198-5.1512-2.7387-7.2263zm-31.9049-2.7556c2.5899-2.3702 7.2634-3.4587 9.2965-.6474 1.4155 1.9573.8179 4.5739.0288 5.287-.1824.1649-.3401.0764-.3504.0703-.0374-.8764-.092-1.9046-.4732-2.907-1.1512-3.1106-5.2513-1.7613-7.212-.1422-1.4498 1.1767-2.8286 3.1141-3.4922 4.5927l-.0335.0748c-.0728.0227-.1694.0102-.2651-.1304-1.0764-1.5814 1.0929-4.909 2.5011-6.1978zm-.9132 13.5327c-3.1766 1.832-6.4044-.0354-5.9034-2.4399.0606-.291.2011-.283.2381-.276.647 1.1507 3.2297 2.0737 6.4211-.6864.9734-.8485 2.0241-2.148 2.8357-3.1012.0464-.0173.1823-.05.2335.155.3509 1.4035-1.0848 4.8018-3.825 6.3485zm8.0659.5228c-.4569.9309-.2849 2.5645-.0662 3.6977-.3335.7177-3.1541-1.6425-2.5022-4.25.4864-1.9454 2.1824-3.0421 3.6724-3.7519 2.4466-1.1655 4.4605-1.3801 6.378-3.7332l-.0003.006s.2671-.1073.3409.226c.316 1.4278-1.3885 3.1816-2.8381 4.0759-1.8064 1.1143-4.3364 2.4092-4.9845 3.7295zm22.7804-4.1531c-.0811.3191-.302.5098-.3122.5045-.771-2.024-2.7736-3.2748-5.6856-2.8678-.4673 1.6818-1.3684 2.8893-2.453 4.0079-2.2326 2.2658-4.9436 3.5843-8.017 4.4575-.5146-.2711.3074-1.3561 1.5399-2.0551 1.776-1.0073 3.5343-2.4607 4.8997-3.9864 1.9858-2.1555 2.9057-4.9513 1.7262-7.3487-1.1189-2.2464-3.8462-3.2159-6.3178-3.5752-.0337-.0727-.0694-.226.1434-.3588 1.9433-1.2135 6.4214-.0512 8.0904 2.9603.541.9443.8612 2.173.7935 3.5634 1.3672-.1275 3.1502.3301 4.4851 1.4347 1.2829 1.2373 1.2143 2.8427 1.1074 3.2637z"/></svg>