<?xml version="1.0" encoding="utf-8"?>
<!-- Generator: Adobe Illustrator 22.1.0, SVG Export Plug-In . SVG Version: 6.00 Build 0)  -->
<!DOCTYPE svg PUBLIC "-//W3C//DTD SVG 1.1//EN" "http://www.w3.org/Graphics/SVG/1.1/DTD/svg11.dtd">
<svg version="1.1" xmlns="http://www.w3.org/2000/svg" xmlns:xlink="http://www.w3.org/1999/xlink" x="0px" y="0px" width="64px"
	 height="64px" viewBox="0 0 64 64" style="enable-background:new 0 0 64 64;" xml:space="preserve">
<style type="text/css">
	.st0{fill:none;}
	.st1{fill:#FFFFFF;}
</style>
<g id="_x36_4px_Box">
	<rect class="st0" width="64" height="64"/>
</g>
<g id="Icon">
	<path d="M36.8,32c7.5-4.7,14.5-10.9,12.9-25h-5.1c1.6,12-3.9,16.8-11.1,21.2c-1.6,1-3.4,2-5.1,3.1c0-0.1-0.1-0.2,0-0.4l2.6-2.4
		c-1.7-1-3.3-2.1-4.8-3.2H34l0.3-0.2c1.4-0.9,2.6-1.8,3.7-2.8H23c-0.9-1-1.6-2.1-2.2-3.4l19.3,0.9c0.6-0.9,1.2-1.9,1.6-2.9l-22-1.1
		c-0.3-1.1-0.5-2.3-0.5-3.6l23.3,2c0.2-0.9,0.3-1.9,0.3-3l-23.6-2c0-0.7,0.1-1.5,0.2-2.2h-5.1c-1.7,14.1,5.4,20.3,12.9,25
		C19.7,36.7,12.7,43,14.3,57h5.1C17.7,44.2,24.1,39.6,32,34.9c2,1.2,4,2.4,5.7,3.8h-7.6c-0.1,0.1-2.2,1.4-3.9,3h14.8
		c0.6,0.7,1.2,1.5,1.7,2.3L23.4,45c-0.6,0.9-1,2-1.4,3.1L44,47c0.3,0.8,0.5,1.7,0.6,2.6l-23.3,2c-0.1,0.9-0.1,1.9,0,3l23.6-2
		c0,1.4-0.1,2.8-0.3,4.4h5.1C51.3,43,44.3,36.7,36.8,32z"/>
</g>
</svg>
