<svg height="64" viewBox="0 0 64 64" width="64" xmlns="http://www.w3.org/2000/svg"><path d="m0 0h64v64h-64z" fill="none"/><path d="m54.291 31.2899c1.2924-.9566 2.3846-1.9559 2.531-4.0251.178-2.5148-1.9887-4.2648-4.572-4.2648h-12.6646c-.6899 0-1.1693-.6895-.9396-1.34 1.6587-4.699 2.0696-6.7502 2.1453-11.049.0626-3.5557-1.3664-5.3637-2.7351-5.5785-1.3373-.2101-2.3109.5895-2.765 2.7007-1.1292 5.2505-3.6215 11.4612-6.899 15.4354-2.3522 2.8522-5.4376 4.1223-8.392 4.6157-.437 3.8105-1.278 11.0642-1.3497 11.4901-.0925.5496-.5561.4561-.6503.4218 0 .0127 0-11.6709 0-11.6771 0 0-.0366-1.019-1-1.019h-10v26h10c.5523 0 1-.4477 1-1v-4h3.5833c5.8289 0 3.7471 4.6616 15.1667 4.8231 2.9582.0418 8.7017.4281 12.2563-.7488 3.327-1.1016 4.077-4.0471 3.0114-5.7828 1.009-.4973 2.6489-1.7456 2.8989-3.9123.2552-2.2121-1.587-3.4553-1.587-3.4553.0605-.0701 2.7336-1.0314 2.837-3.924.0834-2.3333-1.8756-3.7101-1.8756-3.7101z"/></svg>