<?xml version="1.0" encoding="utf-8"?>
<!-- Generator: Adobe Illustrator 18.0.0, SVG Export Plug-In . SVG Version: 6.00 Build 0)  -->
<svg version="1.2" baseProfile="tiny" xmlns="http://www.w3.org/2000/svg" xmlns:xlink="http://www.w3.org/1999/xlink" x="0px"
	 y="0px" width="64px" height="64px" viewBox="0 0 64 64" xml:space="preserve">
<g id="_x36_4px_Boxes">
	<rect fill="none" width="64" height="64"/>
</g>
<g id="Production">
	<g>
		<path d="M56.8308,13.4365l-6.8273,2.2798c-2.6472,0.884-4.4103-0.6181-5.5294-1.3728c-2.3955-1.6155-5.5375-1.5933-7.9099,0.0561
			s-5.9745,4.6656-11.4524,7.5141c-1.6239,0.8444-2.0168,2.3676-1.2416,3.3597c1.826,2.3372,7.669,0.5843,10.4445-0.5113
			c5.7228-2.259,6.2833-3.738,9.5604-1.0879l11.1885,9.0483C62.6714,30.3331,64,28.08,64,28.08L56.8308,13.4365z"/>
		<path d="M42.4917,25.3848c-1.553-1.2559-1.5113-1.1716-4.0635-0.0039c-2.0352,0.9318-7.0143,3.248-11.3364,3.248
			c-2.2505,0-3.918-0.6733-4.9551-2.001c-1.6112-2.0631-0.9168-5.17,1.96-6.666c2.3425-1.2179,4.3328-2.4749,6.0324-3.6383
			l-2.6934-1.8726c-2.3724-1.6494-5.5143-1.6716-7.9099-0.0561c-1.1275,0.7604-2.8868,2.2553-5.5294,1.3728L7.1692,13.488L0,28.1314
			c0,0,1.0747,1.7996,6.7272,3.887c3.4034-3.0846,4.7193-3.869,6.7621-3.869c1.9877,0,3.9895,0.9926,5.1176,2.7742
			c2.3744-0.862,5.1124,0.0862,6.6021,1.8893c0.7083,0.8568,1.1611,1.9448,1.3177,3.0821c3.5701,1.2058,4.8822,4.9547,3.8094,7.8461
			c2.4792,1.9725,2.8067,5.5035,1.0943,8.0328c3.2716,2.7635,6.7387-0.7195,7.0162-3.0381c2.8533-0.2925,4.4092-1.8127,4.615-4.9506
			c2.6624,0.0043,5.2776-1.9857,4.9095-5.0688c3.4382,0.6384,6.0535-3.9099,3.8866-5.6821
			C47.8843,29.7849,54.1732,34.8323,42.4917,25.3848z"/>
		<path d="M26.9476,44.6062l0.4753-0.3928c1.4286-1.1805,1.3738-3.6053,0.1933-5.0339c-0.8023-0.9709-2.1515-1.5013-3.3841-1.3815
			c1.1171-3.7917-3.377-6.2612-5.699-4.3427l-1.1275,0.9317c0.019-3.5052-3.8573-5.1771-6.2686-3.1845l-2.7346,2.2596
			c-2.2172,1.8322-1.9526,4.1843-0.772,5.6129c1.2755,1.5435,3.2347,1.6512,4.6714,0.9207
			c-0.0582,0.9813,0.2403,2.0132,0.8645,2.7686c0.8023,0.9709,2.1515,1.5013,3.3841,1.3815
			c-0.35,1.1879-0.0835,2.6128,0.7189,3.5837c0.9426,1.1408,2.6385,1.6792,4.0134,1.2557
			c-0.1583,1.0744,0.1337,2.2579,0.8286,3.0989c1.1805,1.4286,3.6129,1.8887,5.3497,0.4536l1.3303-1.0993
			c1.8477-1.5268,1.8912-4.0328,0.7106-5.4614C28.8781,45.2219,27.9216,44.7344,26.9476,44.6062z"/>
	</g>
</g>
</svg>
