<svg height="64" viewBox="0 0 64 64" width="64" xmlns="http://www.w3.org/2000/svg"><path d="m0 0h64v64h-64z" fill="none"/><path d="m56.1043 28.6705c-.9017-.7501-2.6851-.7929-4.9108 1.2347-2.5374 2.3117-4.136 5.0172-6.0332 7.3815-2.0769 2.5883-2.6488 2.016-5.8063 2.4783-5.0173.7346-8.8886 4.0511-8.8886 4.0511-.0528-.0674-.1685-.2693.0939-.6031 0 0 3.1652-4.7377 11.3952-6.0701 0-.0012-.3322-26.9208-.3996-28.579-.0582-1.434-1.2732-2.5492-2.7083-2.5287l-.0065.0001c-1.4343.0204-2.5452 1.171-2.6351 2.6025-.0939 1.4955-.8144 19.7215-.8616 20.4216-.0356.5275-.4726.9308-.9955.8532-.0073-.0011-.0147-.0022-.0221-.0033-.424-.0626-.7291-.4236-.751-.8516-.0279-.5421-.326-22.0856-.4038-23.5187s-1.2732-2.5491-2.7083-2.5287l-.0065.0001c-1.4343.0204-2.5969 1.1687-2.6351 2.6025s-.3836 22.6684-.3862 23.1907c-.0022.4515-.3527.8167-.8021.8602-.006.0006-.012.0012-.0181.0018-.5034.0491-.8992-.3548-.9442-.8585-.0456-.5101-.832-18.8349-.9099-20.268s-1.2731-2.5491-2.7082-2.5287h-.0064c-1.4342.0204-2.5968 1.1687-2.6351 2.6025s.0533 22.0722.0491 22.4084-.2037.6337-.5067.7796c-.0058.0028-.0117.0056-.0175.0085-.5693.2753-1.1855-.1483-1.2399-.7784-.0554-.6403-.875-13.6578-.9413-14.8779s-1.0839-2.1703-2.3057-2.1528l-.0056.0001c-1.2211.0173-2.2109.995-2.2434 2.2156s-.1624 16.8314-.1651 16.8342c0 8.1076-.3953 15.3601 1.8269 19.3772 5.774 10.4378 20.8079 10.5486 27.6972 4.5297 7.2194-6.3071 7.9376-14.337 14.3739-24.0772 1.3964-2.113 1.0528-3.4768.1715-4.2094z"/></svg>