<?xml version="1.0" encoding="utf-8"?>
<!-- Generator: Adobe Illustrator 19.1.0, SVG Export Plug-In . SVG Version: 6.00 Build 0)  -->
<svg version="1.2" baseProfile="tiny" xmlns="http://www.w3.org/2000/svg" xmlns:xlink="http://www.w3.org/1999/xlink" x="0px"
	 y="0px" width="64px" height="64px" viewBox="0 0 64 64" xml:space="preserve">
<g id="Box">
	<rect fill="none" width="64" height="64"/>
</g>
<g id="Icon">
	<g>
		<path d="M56.6727,27.3675c-0.0024-0.0019-1.7918-11.9503-1.9489-12.8821c-0.157-0.9319-1.0214-1.5739-1.9589-1.455l-0.0043,0.0006
			c-0.9381,0.1188-1.6151,0.9572-1.5338,1.8993c0.0812,0.9421,0.8624,11.0061,0.8893,11.5028
			c0.0265,0.4887-0.3998,0.88-0.8659,0.7307c-0.0048-0.0016-0.0095-0.0031-0.0143-0.0046c-0.2479-0.079-0.433-0.2854-0.4727-0.5425
			s-2.2037-16.0823-2.3882-17.1769c-0.1845-1.0945-1.1997-1.8486-2.301-1.709l-0.005,0.0006
			c-1.1019,0.1397-1.897,1.1243-1.8015,2.231c0.0955,1.1066,1.4766,15.234,1.4969,15.6299c0.02,0.3908-0.2396,0.7432-0.6306,0.76
			c-0.0047,0.0002-0.0094,0.0004-0.014,0.0006c-0.3491,0.0153-0.6572-0.2266-0.7078-0.5723
			C44.3535,25.3806,41.79,9.1459,41.6055,8.0513c-0.1845-1.0945-1.1998-1.8486-2.3011-1.709l-0.0049,0.0006
			c-1.1019,0.1397-1.897,1.1243-1.8016,2.231s2.1993,17.6476,2.2366,18.0662c0.0295,0.3303-0.1652,0.64-0.4833,0.7338
			c-0.0055,0.0016-0.011,0.0033-0.0165,0.0049c-0.3923,0.1161-0.7709-0.1457-0.8553-0.5461
			c-0.1119-0.5313-2.6371-14.4199-2.871-15.5557c-0.2238-1.0873-1.1997-1.8487-2.301-1.709l-0.0049,0.0006
			c-1.1019,0.1397-1.9122,1.1258-1.8016,2.231c0.0386,0.3857,0.3083,2.5419,0.6655,5.3582c0.6631,0.8662,1.2383,1.803,1.7066,2.8082
			c1.6889,3.6254,1.8868,7.8342,0.6254,12.0143c-0.2491,0.8254-0.3696,1.1253-0.6533,1.7649
			c1.0612-0.0055,2.0612,0.0633,3.1615,0.2564c4.5637,0.8011,6.6712,3.1592,6.6712,3.1592c0.2371,0.2274,0.1703,0.3946,0.1372,0.452
			c0,0-1.8473-1.171-4.413-1.7816c-2.0788-0.4947-4.0489-0.4158-6.2895-0.233c-0.5836,1.3082-1.1793,2.5201-1.726,3.6299
			c-0.436,0.886-0.8756,1.7821-1.2617,2.6527c1.7912,2.6943,3.6602,5.0787,6.6116,7.0027
			c5.9308,3.8665,17.4393,2.1541,20.7339-6.4695C58.6384,39.0952,57.5504,33.5804,56.6727,27.3675z"/>
		<path d="M31.7789,20.8951c-1.5504-3.3275-4.4293-5.831-8.1055-7.0491c-2.5585-0.848-5.5746-1.0385-8.272-0.3127
			c-4.2268,1.1375-9.4528,5.2515-9.1821,11.4094c0.149,3.392,1.631,3.0718,1.8721,2.9971c0.4622-3.8095,2.1684-7.0259,4.912-8.9667
			c2.8041-1.9831,6.4224-2.5931,9.4416-1.5925c2.6439,0.8764,4.701,2.8224,5.7921,5.1646c1.1994,2.5729,1.1704,5.7211-0.0801,8.8644
			c-0.7303,1.8331-1.5536,3.5049-2.3494,5.1217c-1.6718,3.3965-3.0214,6.4639-3.0214,9.654c0,2.8125-1.176,4.8478-3.2224,6.0477
			c-2.1302,1.2487-5.148,1.3292-7.1783,0.1938c-2.7781-1.5547-4.2546-6.194-4.3117-10.0298
			c-0.3432-0.0849-1.7128-0.2187-1.8544,3.0087c-0.2006,4.5637,1.2208,8.6289,4.2586,10.2964
			c3.3218,1.8234,7.7551,1.7062,11.0622-0.2331c3.2618-1.9125,5.0895-5.2023,5.0895-9.4176c0-2.2806,1.2266-4.836,2.6832-7.7946
			c0.7905-1.6061,1.6863-3.4263,2.4737-5.4025C33.4393,28.7008,33.4362,24.4537,31.7789,20.8951z"/>
		<path d="M22.1149,30.7808c0.0608,0.077,0.2229,0.1628,0.6219-0.1975c1.0827-0.978,1.6946-2.7965,1.3984-4.5807
			c-0.4786-2.8832-3.0576-4.6456-5.8875-3.5615c-2.7241,1.0436-5.3805,5.3353-5.6959,7.1823
			c-0.1567,0.9176-0.1497,1.371,0.3348,1.649c4.0216,2.3074,1.8536,5.4571,0.5311,7.1313
			c-0.9474,1.1994-1.3188,2.4143,0.0416,3.3213c0.9606,0.6404,3.3933,0.1281,4.8216-1.4341
			c2.5504-2.7895,3.098-6.894-1.1677-11.3713c0.0337-0.0602,0.0653-0.1172,0.0996-0.1792c2.3944-4.3266,5.4617-4.183,4.9573,1.431
			C22.1454,30.4446,22.1271,30.6468,22.1149,30.7808z"/>
	</g>
</g>
</svg>
