<svg height="64" viewBox="0 0 64 64" width="64" xmlns="http://www.w3.org/2000/svg"><path d="m0 0h64v64h-64z" fill="none"/><path d="m56.6727 27.3675c-.0024-.0019-1.7918-11.9503-1.9489-12.8821-.157-.9319-1.0214-1.5739-1.9589-1.455l-.0043.0006c-.9381.1188-1.6151.9572-1.5338 1.8993.0812.9421.8624 11.0061.8893 11.5028.0265.4887-.3998.88-.8659.7307-.0048-.0016-.0095-.0031-.0143-.0046-.2479-.079-.433-.2854-.4727-.5425s-2.2037-16.0823-2.3882-17.1769c-.1845-1.0945-1.1997-1.8486-2.301-1.709l-.005.0006c-1.1019.1397-1.897 1.1243-1.8015 2.231.0955 1.1066 1.4766 15.234 1.4969 15.6299.02.3908-.2396.7432-.6306.76-.0047.0002-.0094.0004-.014.0006-.3491.0153-.6572-.2266-.7078-.5723-.0585-.4-2.622-16.6347-2.8065-17.7293-.1845-1.0945-1.1998-1.8486-2.3011-1.709l-.0049.0006c-1.1019.1397-1.897 1.1243-1.8016 2.231s2.1993 17.6476 2.2366 18.0662c.0295.3303-.1652.64-.4833.7338-.0055.0016-.011.0033-.0165.0049-.3923.1161-.7709-.1457-.8553-.5461-.1119-.5313-2.6371-14.4199-2.871-15.5557-.2238-1.0873-1.1997-1.8487-2.301-1.709l-.0049.0006c-1.1019.1397-1.9122 1.1258-1.8016 2.231.0386.3857.3083 2.5419.6655 5.3582.6631.8662 1.2383 1.803 1.7066 2.8082 1.6889 3.6254 1.8868 7.8342.6254 12.0143-.2491.8254-.3696 1.1253-.6533 1.7649 1.0612-.0055 2.0612.0633 3.1615.2564 4.5637.8011 6.6712 3.1592 6.6712 3.1592.2371.2274.1703.3946.1372.452 0 0-1.8473-1.171-4.413-1.7816-2.0788-.4947-4.0489-.4158-6.2895-.233-.5836 1.3082-1.1793 2.5201-1.726 3.6299-.436.886-.8756 1.7821-1.2617 2.6527 1.7912 2.6943 3.6602 5.0787 6.6116 7.0027 5.9308 3.8665 17.4393 2.1541 20.7339-6.4695 1.2681-3.3188.1801-8.8336-.6976-15.0465z"/><path d="m31.7789 20.8951c-1.5504-3.3275-4.4293-5.831-8.1055-7.0491-2.5585-.848-5.5746-1.0385-8.272-.3127-4.2268 1.1375-9.4528 5.2515-9.1821 11.4094.149 3.392 1.631 3.0718 1.8721 2.9971.4622-3.8095 2.1684-7.0259 4.912-8.9667 2.8041-1.9831 6.4224-2.5931 9.4416-1.5925 2.6439.8764 4.701 2.8224 5.7921 5.1646 1.1994 2.5729 1.1704 5.7211-.0801 8.8644-.7303 1.8331-1.5536 3.5049-2.3494 5.1217-1.6718 3.3965-3.0214 6.4639-3.0214 9.654 0 2.8125-1.176 4.8478-3.2224 6.0477-2.1302 1.2487-5.148 1.3292-7.1783.1938-2.7781-1.5547-4.2546-6.194-4.3117-10.0298-.3432-.0849-1.7128-.2187-1.8544 3.0087-.2006 4.5637 1.2208 8.6289 4.2586 10.2964 3.3218 1.8234 7.7551 1.7062 11.0622-.2331 3.2618-1.9125 5.0895-5.2023 5.0895-9.4176 0-2.2806 1.2266-4.836 2.6832-7.7946.7905-1.6061 1.6863-3.4263 2.4737-5.4025 1.6527-4.1535 1.6496-8.4006-.0077-11.9592z"/><path d="m22.1149 30.7808c.0608.077.2229.1628.6219-.1975 1.0827-.978 1.6946-2.7965 1.3984-4.5807-.4786-2.8832-3.0576-4.6456-5.8875-3.5615-2.7241 1.0436-5.3805 5.3353-5.6959 7.1823-.1567.9176-.1497 1.371.3348 1.649 4.0216 2.3074 1.8536 5.4571.5311 7.1313-.9474 1.1994-1.3188 2.4143.0416 3.3213.9606.6404 3.3933.1281 4.8216-1.4341 2.5504-2.7895 3.098-6.894-1.1677-11.3713.0337-.0602.0653-.1172.0996-.1792 2.3944-4.3266 5.4617-4.183 4.9573 1.431-.0247.2732-.043.4754-.0552.6094z"/></svg>