<svg height="64" viewBox="0 0 64 64" width="64" xmlns="http://www.w3.org/2000/svg"><path d="m0 0h64v64h-64z" fill="none"/><path d="m46 4.9924c-.0684-1.6721-1.4438-2.9924-3.1174-2.9924h-.0076c-1.6745 0-3.0504 1.3218-3.1175 2.9951l-.4431 20.1051c-.0079.4441-.3702.7998-.8144.7998s-.8065-.3558-.8145-.7999l-.443-20.105c-.0671-1.6733-1.443-2.9951-3.1175-2.9951h-.0076c-1.6736 0-3.049 1.3203-3.1174 2.9924l-1.0457 18.6872c-1.0332-1.4462-2.4609-1.8716-4.1721-1.5536-1.2209.2269-3.1049 1.6398-4.0419 2.7734-.7191.87-1.0952 1.6998-1.3028 2.5994-.5826-.2418-1.1785-.3518-1.7628-.3014-2.0693.1785-3.7987 3.0234-4.3774 4.7625-.8896 2.6733.3971 6.9721 1.4902 9.3254.9528 2.051 2.7019 3.3303 7.47 2.3041.0153.058.0718.0969-.1638.3325-.2656.2656-1.9895 1.3118-4.1406 1.5.8278 6.6439 3.4062 11.2474 4.0469 12.3391v5.239h19v-5s5-6.1612 5-14.8118c0-11.869-1-38.1958-1-38.1958zm-6.6885 29.6868c-.0723-.0269-7.2881-2.6992-11.7246-4.042-1.5504-.4674-2.9973 1.0056-2.4785 2.5293 1.5641 4.587 8.298 7.6036 12.4561 9.4785-2.0765.9107-5.6309 2.0021-7.7832 6.9644-.0417-.0065-.131-.1493-.1229-.336.0767-1.7536 1.2566-4.543 3.3034-6.516.0088-.0063.0187-.0143.0275-.0206-5.3838-2.6826-8.668-5.6812-9.7734-8.9258-1.041-3.0565 1.8411-6.027 4.9512-5.0879 4.4941 1.3604 11.7666 4.0537 11.8398 4.0811 1.2391.4594.5447 2.3368-.6954 1.875z"/></svg>