<svg height="64" viewBox="0 0 64 64" width="64" xmlns="http://www.w3.org/2000/svg"><path d="m0 0h64v64h-64z" fill="none"/><path d="m56.8308 13.4365-6.8273 2.2798c-2.6472.884-4.4103-.6181-5.5294-1.3728-2.3955-1.6155-5.5375-1.5933-7.9099.0561s-5.9745 4.6656-11.4524 7.5141c-1.6239.8444-2.0168 2.3676-1.2416 3.3597 1.826 2.3372 7.669.5843 10.4445-.5113 5.7228-2.259 6.2833-3.738 9.5604-1.0879l11.1885 9.0483c7.6078-2.3894 8.9364-4.6425 8.9364-4.6425z"/><path d="m42.4917 25.3848c-1.553-1.2559-1.5113-1.1716-4.0635-.0039-2.0352.9318-7.0143 3.248-11.3364 3.248-2.2505 0-3.918-.6733-4.9551-2.001-1.6112-2.0631-.9168-5.17 1.96-6.666 2.3425-1.2179 4.3328-2.4749 6.0324-3.6383l-2.6934-1.8726c-2.3724-1.6494-5.5143-1.6716-7.9099-.0561-1.1275.7604-2.8868 2.2553-5.5294 1.3728l-6.8272-2.2797-7.1692 14.6434s1.0747 1.7996 6.7272 3.887c3.4034-3.0846 4.7193-3.869 6.7621-3.869 1.9877 0 3.9895.9926 5.1176 2.7742 2.3744-.862 5.1124.0862 6.6021 1.8893.7083.8568 1.1611 1.9448 1.3177 3.0821 3.5701 1.2058 4.8822 4.9547 3.8094 7.8461 2.4792 1.9725 2.8067 5.5035 1.0943 8.0328 3.2716 2.7635 6.7387-.7195 7.0162-3.0381 2.8533-.2925 4.4092-1.8127 4.615-4.9506 2.6624.0043 5.2776-1.9857 4.9095-5.0688 3.4382.6384 6.0535-3.9099 3.8866-5.6821-3.9734-3.2494 2.3155 1.798-9.366-7.6495z"/><path d="m26.9476 44.6062.4753-.3928c1.4286-1.1805 1.3738-3.6053.1933-5.0339-.8023-.9709-2.1515-1.5013-3.3841-1.3815 1.1171-3.7917-3.377-6.2612-5.699-4.3427l-1.1275.9317c.019-3.5052-3.8573-5.1771-6.2686-3.1845l-2.7346 2.2596c-2.2172 1.8322-1.9526 4.1843-.772 5.6129 1.2755 1.5435 3.2347 1.6512 4.6714.9207-.0582.9813.2403 2.0132.8645 2.7686.8023.9709 2.1515 1.5013 3.3841 1.3815-.35 1.1879-.0835 2.6128.7189 3.5837.9426 1.1408 2.6385 1.6792 4.0134 1.2557-.1583 1.0744.1337 2.2579.8286 3.0989 1.1805 1.4286 3.6129 1.8887 5.3497.4536l1.3303-1.0993c1.8477-1.5268 1.8912-4.0328.7106-5.4614-.6238-.7551-1.5803-1.2426-2.5543-1.3708z"/></svg>