<svg enable-background="new 0 0 64 64" viewBox="0 0 64 64" xmlns="http://www.w3.org/2000/svg"><path d="m0 0h64v64h-64z" fill="none"/><path d="m31.5 44.1c-.2-.6-.5-.7-.8-.7s-.6.1-.8.7c-1.8 5-5.4 7.2-6.2 11-.8 4 3 7.3 7 7.3s7.8-3.4 7-7.3c-.8-3.8-4.4-6.1-6.2-11zm-1.3 15.4c-1.3 0-2.7-.7-3.6-1.7-.6-.7-.8-1.4-.6-2.1.3-1.3 1.2-2.6 2.4-4.2.6-.8 1.2-1.6 1.8-2.5 0 0 0 .1.1.1-.8 2.7-1.6 5.1-1.6 6.8 0 1.6 1.1 3.2 1.9 3.7-.2-.1-.3-.1-.4-.1z"/><path d="m45.6 13.6c-.9-2.7-1.7-5.2-2.4-8.9-.3-1.5-1-2-1.9-1.9s-1.9 1.2-1.9 3.6c0 2.6.4 4.8 1.2 7.6.7 2.6-1.7 3.9-3 3.2-2-1.1-2.5-1.7-3.6-2.8l-12-11.4c-.9-.8-2.3-.7-3.2.1-.8.9-.8 2.3 0 3.2l11 11c.4.4.4.9.1 1.3-.3.4-.9.5-1.4.2l-14.5-9.4c-1.1-.6-2.4-.3-3.1.7-.7 1-.4 2.4.6 3.1l14.8 10c.4.3.6.8.4 1.3-.2.5-.9.8-1.4.6l-13.8-6c-1.1-.4-2.4.1-2.9 1.2-.5 1.1 0 2.4 1.1 3l14.9 6.8c.4.2.7.6.6 1 0 .7-.7 1.2-1.4 1l-10.5-2.5c-1.1-.2-2.1.5-2.4 1.5-.2 1.1.4 2.1 1.4 2.4l11.9 3.1c1.3.3 2.6.8 3.9 1.5.5.3 1.1.5 1.7.8 2.1-1.1 9.4-4.9 9.6-5.1.3-.2.4.1.4.1l-7.3 6.1c1.6.6 3.3 1.2 5 1.5 4.8.9 8.2 0 12.1-5.3 6.5-8.7-2-16.5-4-22.6z"/></svg>