<svg height="64" viewBox="0 0 64 64" width="64" xmlns="http://www.w3.org/2000/svg"><path d="m0 0h64v64h-64z" fill="none"/><path d="m18.5081 10.7462c1.7833 0 3.5193-1.5858 3.1556-3.4567-.3444-1.7716-1.9852-2.855-2.8017-5.2089-.0978-.2822-.2224-.322-.3539-.322s-.2576.0397-.3555.322c-.8165 2.3538-2.459 3.4229-2.8016 5.2089-.3591 1.8719 1.3739 3.4567 3.1571 3.4567z"/><path d="m16.6234 17.1989c-.3444-1.7716-1.9852-2.855-2.8017-5.2089-.0978-.2822-.2224-.322-.3539-.322s-.2576.0397-.3555.322c-.8164 2.3538-2.459 3.4229-2.8016 5.2089-.3591 1.8719 1.3738 3.4567 3.1571 3.4567s3.5192-1.5858 3.1556-3.4567z"/><path d="m23.5284 20.6556c1.7834 0 3.5193-1.5858 3.1556-3.4567-.3444-1.7716-1.9852-2.855-2.8016-5.2089-.0979-.2822-.2224-.322-.354-.322-.1315 0-.2576.0397-.3555.322-.8164 2.3538-2.459 3.4229-2.8016 5.2089-.3591 1.8719 1.3738 3.4567 3.1571 3.4567z"/><path d="m53.5448 33.7831c1.1025-9.4807-8.8018-12.5508-13.6202-15.3375-2.1585-1.2484-4.0977-2.4137-6.7002-4.3422-1.0344-.7665-1.7853-.7412-2.3013-.1207-.5283.635-.5584 1.8908.8694 3.4583 1.5247 1.6736 3.0096 2.857 5.1999 4.1684 1.1057.662.7187 2.4236-.5695 2.4587-.0109.0002-.0217.0005-.0327.0007-9.3774.1333-15.7653.1812-19.1116.2457-1.0623.0577-1.8896.9437-1.8745 2.0074l.0001.0049c.0151 1.0631.8663 1.9249 1.9291 1.9533l1.6859.0186c.6818-.6915 1.6276-1.1218 2.6754-1.1218 1.0414 0 1.9833.424 2.6641 1.108.861-.6732 1.931-1.0909 3.1086-1.0909 2.8021 0 5.0735 2.2715 5.0735 5.0735 0 .1649-.0331.3206-.0485.4815.4315-.1506.8879-.2489 1.3707-.2489.4887 0 .9507.0997 1.3867.2538-.1782-.5118-.2946-1.0528-.2946-1.6253 0-2.7443 2.2247-4.9689 4.9689-4.9689 2.7443 0 4.9689 2.2247 4.9689 4.9689 0 .202-.036.394-.0594.5897 1.9169.9379 3.2404 2.9015 3.2404 5.1793 0 1.2397-.4021 2.3788-1.0684 3.3179-.8954-1.2358-1.7585-2.3702-2.4146-3.3837-1.3549-2.0933-2.5523-4.0129-3.9935-6.9138-.5728-1.153-1.2531-1.4719-1.9948-1.1537-.7592.3254-1.3571 1.4302-.798 3.4755.597 2.1838 1.3817 3.913 2.7362 6.0768.6838 1.0923-.4619 2.4854-1.6252 1.931-.0098-.0047-.0195-.0095-.0294-.0143-2.2841-1.1253-2.7007-1.2836-4.9388-2.3813l-12.1949-6.0891c-.9724-.4316-2.1121-.0186-2.5823.9358l-.0021.0043c-.4698.9537-.1036 2.1083.8301 2.6168 0 0 12.02 6.3014 12.2582 6.4293s.3403.3466.3403.5667c0 .356-.2886.6446-.6446.6446-.1224 0-.3167-.0771-.4324-.1335l-14.4044-7.0184c-.9725-.4315-2.1121-.0185-2.5823.9358l-.0021.0043c-.4699.9538-.1036 2.1084.8301 2.6168 0 0 13.767 7.0049 14.2527 7.2521.4858.2472.5975.6544.4251.9776-.1695.3178-.5495.4391-.9251.2548-.0003.0009-12.2727-6.1181-12.2727-6.1181-.9724-.4316-2.1121-.0186-2.5822.9357l-.0022.0043c-.4699.9537-.1036 2.1083.8301 2.6168l13.5195 7.0441c.4034.1992.5086.5342.3917.8338-.1115.2856-.4556.4119-.8154.2332l-8.9968-4.4695c-.8615-.3823-1.8712-.0164-2.2877.829l-.0019.0038c-.4163.845-.0918 1.8679.7354 2.3183.0607.0318 8.3374 4.388 10.7516 5.602 2.9633 1.4901 7.0072 3.4193 11.1057 4.0281 4.194.623 7.0792-.2539 10.2594-5.0267 3.5447-5.3196 1.3836-10.3216-1.3385-14.4499 2.9278-1.3939 4.5744-3.6302 5.1351-8.4517z"/></svg>