<?xml version="1.0" encoding="utf-8"?>
<!-- Generator: Adobe Illustrator 24.0.1, SVG Export Plug-In . SVG Version: 6.00 Build 0)  -->
<svg version="1.1" xmlns="http://www.w3.org/2000/svg" xmlns:xlink="http://www.w3.org/1999/xlink" x="0px" y="0px"
	 viewBox="0 0 64 64" style="enable-background:new 0 0 64 64;" xml:space="preserve">
<style type="text/css">
	.st0{fill:none;}
	.st1{fill:#FF1D25;}
	.st2{fill:#1D1D1B;}
</style>
<g id="Box">
	<rect class="st0" width="64" height="64"/>
</g>
<g id="Icon">
	<g>
		<path d="M31.5,44.1c-0.2-0.6-0.5-0.7-0.8-0.7s-0.6,0.1-0.8,0.7c-1.8,5-5.4,7.2-6.2,11c-0.8,4,3,7.3,7,7.3s7.8-3.4,7-7.3
			C36.9,51.3,33.3,49,31.5,44.1z M30.2,59.5c-1.3,0-2.7-0.7-3.6-1.7c-0.6-0.7-0.8-1.4-0.6-2.1c0.3-1.3,1.2-2.6,2.4-4.2
			c0.6-0.8,1.2-1.6,1.8-2.5c0,0,0,0.1,0.1,0.1c-0.8,2.7-1.6,5.1-1.6,6.8c0,1.6,1.1,3.2,1.9,3.7C30.4,59.5,30.3,59.5,30.2,59.5z"/>
		<path d="M45.6,13.6c-0.9-2.7-1.7-5.2-2.4-8.9c-0.3-1.5-1-2-1.9-1.9c-0.9,0.1-1.9,1.2-1.9,3.6c0,2.6,0.4,4.8,1.2,7.6
			c0.7,2.6-1.7,3.9-3,3.2c0,0,0,0,0,0c-2-1.1-2.5-1.7-3.6-2.8L22,3c-0.9-0.8-2.3-0.7-3.2,0.1l0,0c-0.8,0.9-0.8,2.3,0,3.2l11,11
			c0.4,0.4,0.4,0.9,0.1,1.3c0,0,0,0,0,0c-0.3,0.4-0.9,0.5-1.4,0.2L14,9.4c-1.1-0.6-2.4-0.3-3.1,0.7l0,0c-0.7,1-0.4,2.4,0.6,3.1
			l14.8,10c0.4,0.3,0.6,0.8,0.4,1.3c0,0,0,0,0,0c-0.2,0.5-0.9,0.8-1.4,0.6l-13.8-6c-1.1-0.4-2.4,0.1-2.9,1.2l0,0
			c-0.5,1.1,0,2.4,1.1,3l14.9,6.8c0.4,0.2,0.7,0.6,0.6,1c0,0,0,0,0,0c0,0.7-0.7,1.2-1.4,1l-10.5-2.5c-1.1-0.2-2.1,0.5-2.4,1.5l0,0
			c-0.2,1.1,0.4,2.1,1.4,2.4l11.9,3.1c1.3,0.3,2.6,0.8,3.9,1.5c0.5,0.3,1.1,0.5,1.7,0.8c2.1-1.1,9.4-4.9,9.6-5.1
			c0.3-0.2,0.4,0.1,0.4,0.1l-7.3,6.1c1.6,0.6,3.3,1.2,5,1.5c4.8,0.9,8.2,0,12.1-5.3C56.1,27.5,47.6,19.7,45.6,13.6z"/>
	</g>
</g>
</svg>
