<svg height="64" viewBox="0 0 64 64" width="64" xmlns="http://www.w3.org/2000/svg"><path d="m0 0h64v64h-64z" fill="none"/><path d="m54.8646 32.4854-6.1979-7.132c-.2047-.9031.132-2.5703 0-3.3334-.6667-3.8533-2.6176-8.1171-2.6176-8.1171 2.1099-4.024 1.0794-7.186-2.0956-9.2271-3.617-2.3252-16.7725-2.5638-26.3723 2.6561-10.1254 5.5057-9.03 15.353-7.3249 20.5063 1.9836 5.9951 7.9103 14.4951 8.3203 20.903.1797 2.8096-1.8912 11.2588-1.8912 11.2588h22.3146l-.1353-5.9934-5.4944-2.8323c-.2924-.1597-.208-.3534-.1769-.4047 0 0 8.2417 1.7748 11.4412 2.1942 3.2114.4208 6.2918-2.3106 6.2918-6.211 0-4.2802 0-9.6575 0-9.6575l3.3365-1.7672c.9547-.6166 1.2247-1.8924.6017-2.8427zm-11.4106-8.428c-1.1406 2.2149-4.535 3.0012-11.5661 3.8827-6.0616.7599-7.1369 3.0496-7.6355 8.0599h-3.2219c-.1001-1.5634.0782-3.3378.0782-3.3378-2.8326.1325-3.8683-1.2911-4.5733-3.367-.1583-.4661-.4976-.8422-.9419-1.0573-.7934-.384-2.0251-1.1985-2.4867-2.6899-.7041-2.2745-.2883-3.3333.7676-5.0784.3297-.5449.1627-2.3446.3323-3.3133.2492-1.4223 1.1331-2.3005 2.3518-2.9149 1.2895-.6501 2.3143-.5342 3.2611-1.0096.9469-.4753 1.3637-2.4481 3.012-3.0555 2.2068-.8134 3.7949-.2039 5.2168-.226 1.4406-.0223 3.1069-1.5637 5.0205-1.4722 1.7255.0826 2.8387 1.7051 3.731 2.2479.8922.5428 2.5342.3355 3.6525 1.0405 3.3252 2.0964 1.4019 4.853 2.0975 6.2375.6634 1.3203 2.2431 3.453.9041 6.0534z"/></svg>