<svg height="64" viewBox="0 0 64 64" width="64" xmlns="http://www.w3.org/2000/svg"><path d="m0 0h64v64h-64z" fill="none"/><circle cx="28.9999" cy="23.85" r="2.4085"/><path d="m19.0109 23.85c0-2.3185.8011-4.4495 2.1315-6.1465l-1.9485-1.9483c-1.8208 2.2001-2.9244 5.0149-2.9244 8.0948 0 2.1969.5564 4.2636 1.536 6.0673l2.0791-2.0791c-.5419-1.2258-.8737-2.5637-.8737-3.9882z"/><path d="m53.9894 33.1116-5.994-7.2386c-.1996-.8805.1287-2.2203 0-2.9642-.65-3.7565-2.1204-7.9135-2.1204-7.9135 2.0569-3.9229 1.0522-7.4375-2.043-9.4273-3.5263-2.267-16.1025-2.4996-25.4614 2.5894-9.8712 5.3674-8.8033 15.3997-7.141 20.4236 1.934 5.8445 7.4629 14.1312 7.8624 20.3783.1753 2.7391-2.0966 10.9136-2.0966 10.9136h22.9643l-1.0889-5.7805-5.3159-2.7024c-.2849-.1557-.283-.3724-.2129-.4533 0 0 7.6057 1.456 10.7249 1.8647 3.1309.4103 5.9285-1.9782 5.9285-5.7808 0-4.1726 0-9.4151 0-9.4151l3.4075-1.7227c.9307-.6011 1.1939-1.8448.5865-2.7712zm-24.9895 5.8884c-8.3537 0-15.1499-6.7962-15.1499-15.15 0-7.8588 6.0158-14.3356 13.6836-15.0758v2.436c-2.5053.2878-4.7824 1.3101-6.6293 2.8345l1.9484 1.9483c1.697-1.3307 3.8284-2.1319 6.1472-2.1319 5.5079 0 9.989 4.481 9.989 9.9889 0 1.4229-.3038 2.7746-.8424 4.001l-1.9071-1.9078c.1936-.6689.3301-1.3618.3301-2.0932 0-1.653-.5446-3.1702-1.4438-4.4152l-1.9807 1.9805c.4233.7176.6828 1.543.6828 2.4346 0 2.6621-2.1658 4.828-4.828 4.828s-4.828-2.1659-4.828-4.828c0-2.6622 2.1658-4.828 4.828-4.828.8917 0 1.7171.2595 2.4346.6828l1.9807-1.9807c-1.2449-.8992-2.762-1.4438-4.4152-1.4438-4.1805 0-7.5696 3.389-7.5696 7.5696 0 1.6531.5446 3.1704 1.4438 4.4153l-.1326.1327.0021.002-3.558 3.558c2.3351 2.8232 5.8643 4.6225 9.8143 4.6225 3.0798 0 5.9038-1.0939 8.1055-2.9139l-1.9645-1.9648c-1.6949 1.3323-3.8222 2.137-6.1411 2.137-2.3186 0-4.4496-.8009-6.1466-2.1313l1.7314-1.7317c1.2449.8991 2.7622 1.4437 4.4152 1.4437 2.5312 0 4.7582-1.2542 6.1324-3.1623l1.7309 1.7316c-.002.0025-.0046.0049-.0066.0075l1.9593 1.9598c1.8203-2.2019 2.9144-5.026 2.9144-8.1061 0-6.5342-4.925-11.9116-11.2641-12.6398v-2.436c7.668.7404 13.6839 7.2172 13.6839 15.076 0 8.3538-6.7962 15.15-15.1501 15.15z"/></svg>