<?xml version="1.0" encoding="utf-8"?>
<!-- Generator: Adobe Illustrator 19.1.0, SVG Export Plug-In . SVG Version: 6.00 Build 0)  -->
<svg version="1.2" baseProfile="tiny" xmlns="http://www.w3.org/2000/svg" xmlns:xlink="http://www.w3.org/1999/xlink" x="0px"
	 y="0px" width="64px" height="64px" viewBox="0 0 64 64" xml:space="preserve">
<g id="Box">
	<rect fill="none" width="64" height="64"/>
</g>
<g id="Icon">
	<g>
		<circle cx="28.9999" cy="23.85" r="2.4085"/>
		<path d="M19.0109,23.85c0-2.3185,0.8011-4.4495,2.1315-6.1465l-1.9485-1.9483c-1.8208,2.2001-2.9244,5.0149-2.9244,8.0948
			c0,2.1969,0.5564,4.2636,1.536,6.0673l2.0791-2.0791C19.3427,26.6124,19.0109,25.2745,19.0109,23.85z"/>
		<path d="M53.9894,33.1116l-5.994-7.2386c-0.1996-0.8805,0.1287-2.2203,0-2.9642c-0.65-3.7565-2.1204-7.9135-2.1204-7.9135
			c2.0569-3.9229,1.0522-7.4375-2.043-9.4273c-3.5263-2.267-16.1025-2.4996-25.4614,2.5894
			c-9.8712,5.3674-8.8033,15.3997-7.141,20.4236c1.934,5.8445,7.4629,14.1312,7.8624,20.3783
			c0.1753,2.7391-2.0966,10.9136-2.0966,10.9136h22.9643l-1.0889-5.7805L33.5549,51.39c-0.2849-0.1557-0.283-0.3724-0.2129-0.4533
			c0,0,7.6057,1.456,10.7249,1.8647c3.1309,0.4103,5.9285-1.9782,5.9285-5.7808c0-4.1726,0-9.4151,0-9.4151l3.4075-1.7227
			C54.3336,35.2817,54.5968,34.038,53.9894,33.1116z M28.9999,39C20.6462,39,13.85,32.2038,13.85,23.85
			c0-7.8588,6.0158-14.3356,13.6836-15.0758v2.436c-2.5053,0.2878-4.7824,1.3101-6.6293,2.8345l1.9484,1.9483
			c1.697-1.3307,3.8284-2.1319,6.1472-2.1319c5.5079,0,9.989,4.481,9.989,9.9889c0,1.4229-0.3038,2.7746-0.8424,4.001
			l-1.9071-1.9078c0.1936-0.6689,0.3301-1.3618,0.3301-2.0932c0-1.653-0.5446-3.1702-1.4438-4.4152l-1.9807,1.9805
			c0.4233,0.7176,0.6828,1.543,0.6828,2.4346c0,2.6621-2.1658,4.828-4.828,4.828s-4.828-2.1659-4.828-4.828
			c0-2.6622,2.1658-4.828,4.828-4.828c0.8917,0,1.7171,0.2595,2.4346,0.6828l1.9807-1.9807
			c-1.2449-0.8992-2.762-1.4438-4.4152-1.4438c-4.1805,0-7.5696,3.389-7.5696,7.5696c0,1.6531,0.5446,3.1704,1.4438,4.4153
			l-0.1326,0.1327l0.0021,0.002l-3.558,3.558c2.3351,2.8232,5.8643,4.6225,9.8143,4.6225c3.0798,0,5.9038-1.0939,8.1055-2.9139
			l-1.9645-1.9648c-1.6949,1.3323-3.8222,2.137-6.1411,2.137c-2.3186,0-4.4496-0.8009-6.1466-2.1313l1.7314-1.7317
			c1.2449,0.8991,2.7622,1.4437,4.4152,1.4437c2.5312,0,4.7582-1.2542,6.1324-3.1623l1.7309,1.7316
			c-0.002,0.0025-0.0046,0.0049-0.0066,0.0075l1.9593,1.9598c1.8203-2.2019,2.9144-5.026,2.9144-8.1061
			c0-6.5342-4.925-11.9116-11.2641-12.6398v-2.436C38.1341,9.5144,44.15,15.9912,44.15,23.85C44.15,32.2038,37.3538,39,28.9999,39z"
			/>
	</g>
</g>
</svg>
