<svg height="64" viewBox="0 0 64 64" width="64" xmlns="http://www.w3.org/2000/svg"><path d="m0 0h64v64h-64z" fill="none"/><path d="m28.8733 25.9265c.0764.0969.28.2045.7812-.2481 1.36-1.2284 2.1287-3.5127 1.7566-5.754-.6012-3.6217-3.8408-5.8355-7.3954-4.4738-3.4219 1.3109-6.7587 6.7018-7.1548 9.022-.1968 1.1526-.1882 1.7222.4205 2.0714 5.0517 2.8985 2.3284 6.8549.6672 8.9579-1.1901 1.5066-1.6566 3.0328.0522 4.172 1.2067.8045 4.2625.1609 6.0566-1.8014 3.2037-3.504 3.8915-8.6598-1.4667-14.2839.0423-.0757.082-.1473.1251-.2251 3.0077-5.4349 6.8606-5.2546 6.2271 1.7974-.0313.3434-.0544.5975-.0696.7656z"/><path d="m11.1318 21.9237c.5856-4.827 2.7475-8.9025 6.2239-11.3615 3.553-2.5128 8.1375-3.2857 11.9631-2.0178 3.35 1.1104 5.9565 3.5763 7.339 6.5438 1.2758 2.7368 1.4399 5.9886.527 9.3178.5674-.1506 1.1542-.2654 1.7604-.3318.6221-.0669 1.2412.0488 1.7881.3242.5361-.3213 1.1067-.6057 1.6979-.8618.6152-3.7152.2011-7.3467-1.2856-10.5391-1.9645-4.2162-5.6122-7.3882-10.2703-8.9317-3.2417-1.0745-7.0633-1.3158-10.4811-.3961-5.3557 1.4411-11.9775 6.654-11.6346 14.4565.1888 4.298 2.0666 3.8923 2.3722 3.7975z"/><path d="m31.3591 37.7155c-.9709 2.47-1.6079 4.8701-1.6079 7.3265 0 3.5637-1.49 6.2504-4.0829 7.7706-2.6993 1.5822-6.5229 1.6842-9.0956.2456-3.5201-1.97-5.3909-7.9561-5.4633-12.8163-.4348-.1077-2.1702-.2772-2.3497 3.8122-.2542 5.7825 1.5469 11.0412 5.396 13.1541 4.209 2.3104 9.8263 2.1619 14.0166-.2953 4.1331-2.4233 6.4489-6.6995 6.4489-12.0405 0-1.2363.296-2.541.766-3.9174-1.6612-.7557-3.0498-1.8803-4.0281-3.2395z"/><path d="m53.2946 29.1963h-2.9353l-.9952 4.9739c-.1018.3172-.3079.2708-.3641.2499v-8.9625c0-.6019-.5182-1.0671-1.1185-1.0226-3.0073.2231-5.7291 1.3419-7.5836 2.9936v-.1671c0-.596-.5204-1.0655-1.1129-1.0005-4.0596.4453-7.1905 3.2927-7.1905 6.739s3.1309 6.2937 7.1905 6.739c.5924.0649 1.1129-.4045 1.1129-1.0005v-.1672c1.8546 1.6517 4.5094 2.7704 7.5167 2.9936.6003.0446 1.1185-.4207 1.1185-1.0226v-3.7386h4.3616c2.034 0 2.7-1.6489 2.7-3.683v-.2415c-.0001-2.034-.6661-3.6829-2.7001-3.6829z"/></svg>