<svg height="64" viewBox="0 0 64 64" width="64" xmlns="http://www.w3.org/2000/svg"><path d="m0 0h64v64h-64z" fill="none"/><path d="m5 5h6v-3h-9v9h3z"/><path d="m5 53h-3v9h9v-3h-6z"/><path d="m53 2v3h6v6h3v-9z"/><path d="m59 59h-6v3h9v-9h-3z"/><path d="m8 22v4h48v-4h-11.2753c.0508-.3882.0743-.7646.0743-1.0937 0-1.465-.2581-2.2577-.7839-2.5033-.2537-.1181-.5013-.1171-.7217-.0703.1892-3.0521.3777-9.0999-.8943-11.3723-1.3909-2.4843-3.2405-3.1286-6.4626-2.3167-2.1134-1.1213-3.5522-2.2304-7.255-1.2207-2.5729.7014-5.3885 1.847-6.8724 3.7579-1.6008 2.0623-1.2922 8.077-1.0219 11.1665-.2384-.0651-.5182-.0768-.8024.0556-.526.2456-.7839 1.0383-.7839 2.5033 0 .3291.0236.7054.0743 1.0937z"/><path d="m31.0864 37.7204c-.92.3037-3.7976.7333-6.8986-.8806-.0258-.0134-.0441-.0255-.0692-.0388-2.3157.6212-10.3123 2.9101-12.8019 5.5321-2.9103 3.064-4.0423 14.4999-4.0423 14.4999h49.4512s-1.0931-11.4359-4.0035-14.4998c-2.2438-2.3632-9.1818-4.4603-12.2799-5.3059-.8287-.2263-1.3866-.9312-1.5732-1.7697-.1648-.7412-.2524-1.5911-.2524-1.5911 1.4285-1.5958 2.5834-3.4377 3.302-5.6664h-19.8776c1.0457 3.4442 3.1415 5.7789 5.6326 7.8763.8176.6888 2.2905 1.0502 3.8237 1.1184.1392.2486.1392.5441-.4109.7256z"/><path d="m62 27v-6l-5 3z"/><path d="m2 21v6l5-3z"/></svg>