<svg height="64" viewBox="0 0 64 64" width="64" xmlns="http://www.w3.org/2000/svg"><path d="m0 0h64v64h-64z" fill="none"/><path d="m17.9104 28c-1.5038 4.5192-1.1073 9.7906 1.24 14.8069.3107.6638.6401 1.2834.979 1.88.6083 1.0708 2.6455-.4008 2.2273-1.2333l.0035-.0024c-.3781-.6738-.6628-1.2376-.8666-1.6728-2.2158-4.7351-2.4894-9.6895-.8603-13.7784z"/><path d="m28.5999 9.7477c-.4862.2843-.3953.4509-.3591.5021 7.0232-.4994 15.4763 3.1606 21.5327 9.3308.2253.0209.267-.2148.084-.8506-.3411-1.1846-1.519-3.3949-3.96-5.3435-2.6097-2.0833-5.2214-3.3036-8.4767-4.2429-3.7743-1.0893-7.9921.1197-8.8209.6041z"/><path d="m23.7117 28c-.9778 1.892-1.3884 4.2717-1.1152 7.0061.3689 3.6909 1.7014 6.9519 3.9818 9.7629 1.5062 1.8567 6.1498 6.2571 10.8123 6.2571.5466 0 .7074-.1558.7137-.3755-7.8374-3.7083-12.3132-9.5339-12.9475-15.8843-.2866-2.8699.2789-5.2273 1.5708-6.7664h-3.0159z"/><path d="m13.9597 18.7933c1.322-2.472 4.3456-5.1006 7.444-6.8632 3.9596-2.2524 4.87-4.1061 10.0948-5.2079 3.7693-.7948 9.201.308 12.1246 2.5812.2504-.1115.1776-.4976-.1349-1.0688-2.1213-3.8784-8.7019-4.9065-13.5325-3.8379-3.8311.8475-7.7096 2.8304-11.0769 6.0771-1.9093 1.8411-4.7075 5.605-5.0764 7.4832-.1277.6502-.0153.8545.1573.8363z"/><path d="m52.6595 36.1003c-.3673-.1785-.7148-.3525-1.0895-.5398-4.6653-2.3324-7.2507-4.3672-10.6653-7.0542-.207-.163-.4316-.3385-.6453-.5063h-4.1167c.0087.0065.0177.0113.0264.0178 1.1425.8705 2.1593 1.6708 3.1134 2.4214 3.6555 2.877 6.3937 5.032 11.587 7.5725.1848.0903.6345.3352.8801.4517.7367.3494 1.1934-.246 1.384-1.0186.1391-.5621.0595-1.0852-.4741-1.3445z"/><path d="m16.1023 53.1819c-1.8534-2.256-4.0714-6.1685-4.9932-9.9878-.2473-.0339-.3831.4097-.4.8531-.0934 2.443.5463 4.9056 1.3311 6.8837 1.1769 2.9662 2.8802 5.481 6.0372 7.4233 1.4824.9121 3.3092 1.5989 5.3917 1.4869.3719-.0199.7059-.1434.6807-.374-3.3415-1.737-6.0473-3.85-8.0475-6.2852z"/><path d="m49.1509 28h-4.4158c2.1204 1.5253 4.6047 3.1047 7.2638 4.4858.8547.444 1.307-.3932 1.301-1.3325v-.0078c-.0029-.455-.0643-.8163-.4796-1.0294-1.3242-.6797-2.5366-1.3928-3.6694-2.1161z"/><path d="m51.6829 41.1565c-1.9041-.821-6.2616-2.7719-9.7756-5.295-1.0979-.7887-2.2402-1.7977-3.3451-2.7731-3.1019-2.739-6.6158-5.843-9.3026-3.2422-.9486.9181-1.4456 2.5459-1.3635 4.4663.1547 3.6467 2.2397 7.4586 5.5762 10.1963 3.6606 3.0037 9.5076 6.146 13.2117 7.8025.6125.2739 1.0408-.2034 1.3838-.7659l.0005-.001c.3994-.655.4161-1.2493-.3009-1.5603-.2357-.1022-.4772-.209-.7015-.3118-2.5715-1.1787-8.0308-3.8643-11.9304-7.064-4.146-3.4016-4.6223-7.2883-4.6694-8.3987-.0569-1.333.2667-2.2676.6123-2.6023.9497-.9166 3.4994 1.333 5.7507 3.3214 1.152 1.0172 2.3433 2.0697 3.5459 2.9332 3.6382 2.6122 8.1294 4.6382 10.2678 5.5603.7019.3027 1.2373-.187 1.4603-.8989l.0023-.0073c.1861-.5949.1639-1.1067-.4225-1.3595z"/><path d="m19.8066 49.3835c-4.7625-6.1489-6.6157-14.0524-4.9573-21.1423.019-.0818.0442-.16.0643-.2412h-2.6356c-1.699 7.7125.33 16.2403 5.4707 22.8782 3.283 4.2385 7.1506 6.5596 10.8167 7.9197 4.271 1.5847 9.5861 1.782 12.989-.5013.3271-.2196.402-.5293.2543-.6719-.5386.1288-13.2807 3.0197-22.0021-8.2412z"/><path d="m41.2041 53.0309c-1.6208.367-3.6064.2751-5.168.0505-5.4702-.7869-9.965-4.0076-12.0232-7.1392-.4856-.737-2.83.5001-2.1226 1.4547 4.4534 6.0094 10.4041 7.7958 14.469 8.2175 4.8756.5057 7.4136.2318 8.6035-.2447.3066-.1228.4662-.3269.3816-.5131-1.203-.5484-2.9071-1.2843-4.1403-1.8257z"/><path d="m50.0864 45.51c-2.0767-.8052-6.8534-2.7803-9.5649-4.7056-3.6299-2.5781-5.4636-4.1907-7.2629-6.2278-.2769.0536-.5259.4288-.1384 1.4475.6658 1.7498 1.8442 3.9226 5.8801 6.7886 2.969 2.1083 7.9458 4.1678 10.1304 5.0122.6716.2595 1.0963-.2871 1.3457-.9446l.0009-.002c.2394-.6312.2539-1.1183-.3909-1.3683z"/><path d="m5 5h6v-3h-9v9h3z"/><path d="m5 53h-3v9h9v-3h-6z"/><path d="m53 2v3h6v6h3v-9z"/><path d="m59 59h-6v3h9v-9h-3z"/><path d="m56 22h-6.9108c-1.0555-1.0031-2.1852-1.9774-3.245-2.7637-5.9294-4.3992-11.6748-7.5477-19.851-5.8055-4.8203 1.0268-8.8694 4.1537-11.4078 8.5692h-6.5854v4h48zm-30.4156 0c1.5226-.8976 3.2252-1.3729 5.0021-1.3196 1.9736.0355 3.686.5315 5.3286 1.3196zm13.6871 0c-.4744-.8303-1.2937-1.7828-2.7236-2.4812-1.7539-.8568-3.6997-1.2893-5.9133-1.3294-3.4404-.0593-6.624 1.316-9.0835 3.8106h-3.9592c2.1869-3.1536 5.3176-5.3621 8.9541-6.1367 7.572-1.612 12.8242 1.5718 18.7946 6.1367z"/><path d="m62 27v-6l-5 3z"/><path d="m2 21v6l5-3z"/></svg>