<?xml version="1.0" encoding="utf-8"?>
<!-- Generator: Adobe Illustrator 21.0.2, SVG Export Plug-In . SVG Version: 6.00 Build 0)  -->
<svg version="1.2" baseProfile="tiny" xmlns="http://www.w3.org/2000/svg" xmlns:xlink="http://www.w3.org/1999/xlink" x="0px"
	 y="0px" width="64px" height="64px" viewBox="0 0 64 64" xml:space="preserve">
<g id="Box">
	<rect fill="none" width="64" height="64"/>
</g>
<g id="Icon">
	<g>
		<path d="M57.2,54.3c-2.7-2.9-10.2-5.3-14-6.5c-3.2-1-2.9-5.5-3.1-7.3c2.4-2.7,4.1-5.9,4.7-10.2c2.3-0.7,2.7-3.6,2.7-5.3
			c0-1.8-0.3-2.7-1-3c-0.3-0.1-0.6-0.1-0.9-0.1c0.2-3.7,0.5-11.1-1.1-13.8c-1.7-3-3.9-3.8-7.9-2.8c-2.6-1.4-4.3-2.7-8.8-1.5
			c-3.1,0.9-6.6,2.2-8.4,4.6c-1.9,2.5-1.6,9.8-1.2,13.6c-0.3-0.1-0.6-0.1-1,0.1c-0.6,0.3-1,1.3-1,3c0,1.8,0.5,4.6,2.7,5.3
			c0.5,4.5,2.2,7.6,4.7,10.2c-0.2,1.6,0,5.9-2.6,7c-3,0.8-11.5,3.5-14.4,6.7C5.2,56,4.1,59.1,3.3,62h57.4C60,59.1,58.8,56,57.2,54.3
			z M36.7,49.1c-0.7,1.9-1.8,3.1-2.6,3.1c-0.8,0-1.5-1.3-2.1-1.3s-1.4,1.3-2.1,1.3c-0.8,0-1.9-1.2-2.6-3.1c-0.8-2.3-0.8-5.9,0.3-6
			c1.1-0.1,1.9,2.2,2.4,2.8c0.6,0.8,1.3,1.2,2,1.2c0.7,0,1.4-0.4,2-1.2c0.5-0.7,1.3-2.9,2.4-2.8C37.5,43.2,37.5,46.8,36.7,49.1z"/>
	</g>
</g>
</svg>
