<svg height="64" viewBox="0 0 64 64" width="64" xmlns="http://www.w3.org/2000/svg"><path d="m0 0h64v64h-64z" fill="none"/><path d="m30.9677 57.1924c-7.2173.4314-12.3324-1.2551-13.9835-1.9012-.1541.0748-.0965.4641.1869.7618 3.0588 3.2134 8.9944 4.2551 13.9793 3.8712 5.4612-.4205 11.117-2.275 13.9044-5.5089.2319-.269.2296-.624.0968-.6619-1.5453.7589-6.7135 3.006-14.1839 3.439z"/><path d="m27.2482 54.9766c-3.7411-.9878-14.6447-5.0402-13.1267-18.4778.5552-4.9102 2.6426-8.778 6.2049-11.4955 4.3712-3.3344 9.9688-4.0963 13.7503-3.6971 3.0562.3226 7.5424 2.1077 10.1261 6.0758 2.2272 3.4194 2.6971 8.4685.5906 12.6652.0697.1597.3025.1708.6197-.2045 3.4603-4.0939 3.2579-10.8251.8484-14.1268-3.3445-4.583-7.9098-6.5874-11.89-6.9268-5.6007-.4775-11.4624.9949-15.7148 4.2393-4.0768 3.1099-6.5616 7.6748-7.186 13.2003-1.2484 11.0487 4.9395 18.2557 14.976 19.01.6624.0498.8507-.0873.8015-.2621z"/><path d="m15.5507 14.2339c1.2661-.7097 5.0603-2.5635 11.3718-3.3779 5.7057-.7366 11.013.4163 12.5156.7898.164-.0747.1855-.4006-.2144-.8308-1.1782-1.2677-4.3928-3.2717-12.6606-2.4692-6.2916.6108-9.6157 3.5929-10.8932 5.1606-.4544.5573-.3218.6925-.1192.7275z"/><path d="m35.285 6.1814c5.1818.9144 7.3859 3.1643 10.0042 7.5836 1.6877.9575 3.4528 2.3124 4.8427 3.7042.2643-.012.3021-.2219.1643-.8193-3.5571-15.4293-20.5154-13.4734-25.967-10.8728-.4461.2128-.5319.4976-.3576.5746 1.8386-.2879 6.9393-.9423 11.3134-.1703z"/><path d="m34.7806 35.9475c-.7758.457-2.2362.1461-3.6667-1.3291-.5333.095-.7701.6115-.7 1.2347.3666 3.2612 5.1453 3.4735 6.9262 1.1744.5687-.7336 1.0833-2.0149.3036-3.9503-.6245-1.5525-2.053-2.7091-3.9191-3.1737-2.2968-.5719-4.8972.0015-6.7903 1.4946-1.5973 1.26-2.3176 3.3037-1.9265 5.4657.7419 4.1039 5.6428 8.3632 12.3115 6.4104 6.2076-1.8177 7.7765-7.7258 5.36-12.6261-1.9957-4.0464-6.3445-6.5793-11.0823-6.4043-1.9918.0654-3.8249.4497-5.4803 1.0801-.9528.3628-.0548 2.7119 1.2702 2.2434 1.3049-.4614 2.7434-.741 4.3029-.7925 4.4415-.1538 7.3475 2.4597 8.5746 4.9478 1.7904 3.6311.5899 8.0869-4.1723 9.1479-4.9561 1.104-7.9869-1.8397-8.4562-4.4357-.6079-3.3594 3.0655-4.6664 5.4128-4.0809 2.3774.5925 2.8331 2.9449 1.7319 3.5936z"/><path d="m49.0499 47.0985c-2.1243 1.3074-11.6758 6.6044-21.2688 3.1071-4.238-1.5449-6.949-4.3708-7.9224-8.0164-1.3962-5.2302.5042-10.4099 4.7031-13.2047.9025-.6007.3255-3.2465-1.2528-2.2438-5.1059 3.2437-7.7595 9.6135-6.035 16.0708.8213 3.0762 3.1176 7.2511 9.4068 9.6437 6.854 2.6074 16.3981 1.3684 20.4637-2.3195.7806-.708 1.4375-1.5181 1.9308-2.4346.1528-.2837.1543-.5602-.0254-.6026z"/><path d="m20.0707 18.2617c1.9329-.9797 5.856-2.3575 10.3294-2.5063.9197-.0305 1.0165-2.5809-.099-2.5513-3.9705.1052-8.9464 1.5234-11.4855 2.8224-7.33 3.7499-8.1377 9.3969-8.1151 11.7679.0051.5388.1812.6814.316.6025 1.7747-4.631 4.7407-7.9499 9.0542-10.1352z"/><path d="m33.3022 13.1666c-1.1431.024-1.0609 2.5206.1013 2.61 9.6191.7393 18.9111 7.5138 16.8912 18.572-.8046 4.4052-3.63 7.926-7.5168 9.993-4.5909 2.4425-10.462 2.5824-14.6092.3473-3.2723-1.7625-5.1584-4.7859-5.487-8.7734-.1174-.0781-.3387-.094-.4575.4407-.4927 2.2178-.8069 6.947 4.629 10.5364 2.2261 1.4697 5.1721 1.9016 8.0553 1.9016 3.1436 0 6.369-.751 9.1725-2.2421 4.5696-2.431 7.7839-6.566 8.8245-11.6864 2.4834-12.2197-7.1488-21.1496-19.6033-21.6991z"/></svg>