<svg height="64" viewBox="0 0 64 64" width="64" xmlns="http://www.w3.org/2000/svg"><path d="m0 0h64v64h-64z" fill="none"/><path d="m31.9186 30.0995c-3.1209 5.9753-5.8393 4.1108-4.853 1.0912 1.0764-3.2955 3.0495-4.1223 6.5925-7.9825.2955-.322.3448-.5945.191-.6561-1.9257.9242-8.2312 4.2747-9.202 8.0018-1.574 6.0458 4.978 9.3447 9.4849.7145 1.0259-1.9654 2.3032-4.4115 4.7837-6.8228 2.1586-2.0987 7.8705-5.8823 10.2355-7.418.9575-.6216-.397-2.7349-1.3508-2.116-2.4135 1.566-8.2847 5.4536-10.6221 7.7258-2.7694 2.6927-4.1503 5.3372-5.2597 7.4621z"/><path d="m25.1862 21.7402c-4.0278 2.8784-6.1362 6.5403-6.2861 10.9424-.1196 3.5104 1.3848 6.4397 4.1279 8.0372 1.4014.8162 2.9941 1.2209 4.6304 1.2209 1.9502 0 3.9624-.5751 5.7861-1.713 2.8755-1.7939 3.9429-3.8006 5.1787-6.1239.77-1.4473 1.6426-3.087 3.1367-4.9448 2.949-3.6665 7.5522-6.0531 9.6249-6.9999 1.1177-.5106.102-2.8088-1.0251-2.298-2.2804 1.0336-7.2394 3.6086-10.5431 7.7166-1.6436 2.043-2.5752 3.7942-3.3975 5.3397-1.1538 2.1687-1.9873 3.7353-4.293 5.1742-2.5288 1.5774-5.6074 1.7561-7.8457.4523-1.9468-1.1334-2.9702-3.1848-2.8823-5.7748.1831-5.3676 3.9014-9.3317 11.3667-12.1182 6.1331-2.2895 11.2654-6.2269 13.3608-7.982.8978-.752-.6349-2.741-1.5939-1.9415-.8743.729-2.3311 1.8788-4.1821 3.1195-7.3612 4.9342-10.1189 4.2883-15.1634 7.8933z"/><path d="m15.3315 13.2525c2.6299-2.9789 5.4852-4.1505 8.5017-5.3887 2.7521-1.1292 5.3706-2.0783 6.9383-3.5402-.0208-.141-.0844-.287-.4896-.3138-1.0627-.0703-4.544.2398-6.5469.9272-6.0429 2.0739-7.9589 5.923-8.5156 7.6846-.1742.5514-.0312.66.1121.6309z"/><path d="m52.5261 30.801c-4.1025 1.7683-7.452 5.7121-9.8585 10.1995-.2367.4413-.2294.7567-.0482.7809 3.9214-3.5013 5.1532-5.6682 10.043-8.2835.907-.4851.8181-3.1084-.1363-2.6969z"/><path d="m45.735 41.7728c-8.0999 6.6801-16.0392 9.7957-22.0326 8.291-9.3617-2.3503-11.9271-11.5261-12.428-13.7458-.1644-.0298-.3068.1585-.3943.5172-.8986 3.6782 1.8133 9.5474 4.7595 12.1145 2.5981 2.2639 5.2248 3.3895 7.8921 3.8951 5.2526.9955 10.6628-.8182 16.3232-3.9153 5.3065-2.9033 8.195-5.7029 9.6604-7.1888 2.4905-2.5253 3.6641-4.5276 3.0823-4.7452-.6201-.232-3.7376 2.2001-6.8626 4.7773z"/><path d="m49.9902 44.8798c-5.1927 4.2602-13.4442 10.7939-23.7625 10.8823-6.0228.0516-9.971-4.0967-10.9673-5.372-.2753.0542-.3245.4615-.2624.886.6726 4.6005 9.2364 10.8654 23.6249 4.2429 3.9871-1.8351 9.6826-5.6229 11.3934-9.2077.375-.7857.2344-1.3672-.0261-1.4315z"/><path d="m48.0608 52.3193c-3.2065 2.3716-6.4379 5.6754-15.1929 6.7234-.088.1679.0298.3406.3974.4505 3.6777 1.0995 11.481 1.0018 14.8403-6.4955.1793-.4002.1157-.6561-.0448-.6784z"/><path d="m30.4708 13.3743c-.6409.27-.5956.9308-.3462 1.5221.2574.6102.6827 1.0764 1.3368.8045 3.5074-1.4579 7.1247-3.1439 10.6269-6.5388 1.1207-1.0864-1.0497-2.5628-1.7667-1.8528-1.3619 1.3485-2.6248 2.2436-3.8912 3.047-2.0094 1.2747-4.0208 2.2012-5.9596 3.018z"/><path d="m28.3467 16.992c.6143-.2609.5805-.9321.3382-1.5066-.2389-.5663-.7372-1.0718-1.3117-.8328-3.5208 1.4647-6.6073 2.9799-8.7004 6.1882-2.6259 4.0249-2.6803 9.1646-1.8621 11.5974.1583.4707.3306.4557.4265.3939-.0175-2.3927.4991-10.4595 8.0106-14.3983 1.0111-.5304 2.0474-.9953 3.0989-1.4418z"/><path d="m41.8137 33.4994c-3.3638 6.3236-4.5386 7.2577-6.2832 8.6177-2.5079 1.9541-5.8216 2.8892-9.0137 2.6636-1.2241-.0865-1.6119 2.5589-.3896 2.6451 3.9717.2802 8.0258-1.0541 10.9346-3.3217 3.8967-3.0375 4.3539-5.1487 6.8818-9.2886 2.2797-3.7322 6.8566-6.2711 8.7634-7.2081.9836-.4833.4376-3.1757-.8555-2.5067-2.4718 1.2791-7.5202 3.6657-10.0378 8.3987z"/><path d="m22.8804 46.8081c.9504.3041 1.6476-2.2506.4489-2.668-2.2812-.7943-4.3101-2.2933-5.6739-4.5817-5.2344-8.7827-3.3149-18.9331 1.6982-23.4438 2.0659-1.8588 5.021-3.1003 8.1494-4.4144 3.4359-1.443 6.9695-2.9271 9.6681-5.3842 1.2836-1.1688-1.4382-2.2896-2.2147-1.5627-2.4096 2.2554-5.1206 3.2422-8.4167 4.627-3.1821 1.3367-6.4731 2.7187-8.853 4.8603-7.4062 6.6642-6.8838 19.0215-2.1523 26.6487 1.8888 3.0453 4.4078 4.9787 7.346 5.9188z"/></svg>