<?xml version="1.0" encoding="utf-8"?>
<!-- Generator: Adobe Illustrator 18.1.1, SVG Export Plug-In . SVG Version: 6.00 Build 0)  -->
<svg version="1.2" baseProfile="tiny" xmlns="http://www.w3.org/2000/svg" xmlns:xlink="http://www.w3.org/1999/xlink" x="0px"
	 y="0px" width="64px" height="64px" viewBox="0 0 64 64" xml:space="preserve">
<g id="Box">
	<rect fill="none" width="64" height="64"/>
</g>
<g id="Icon">
	<g>
		<path d="M31.9186,30.0995c-3.1209,5.9753-5.8393,4.1108-4.853,1.0912c1.0764-3.2955,3.0495-4.1223,6.5925-7.9825
			c0.2955-0.322,0.3448-0.5945,0.191-0.6561c-1.9257,0.9242-8.2312,4.2747-9.202,8.0018c-1.574,6.0458,4.978,9.3447,9.4849,0.7145
			c1.0259-1.9654,2.3032-4.4115,4.7837-6.8228c2.1586-2.0987,7.8705-5.8823,10.2355-7.418c0.9575-0.6216-0.397-2.7349-1.3508-2.116
			c-2.4135,1.566-8.2847,5.4536-10.6221,7.7258C34.4089,25.3301,33.028,27.9746,31.9186,30.0995z"/>
		<path d="M25.1862,21.7402c-4.0278,2.8784-6.1362,6.5403-6.2861,10.9424c-0.1196,3.5104,1.3848,6.4397,4.1279,8.0372
			c1.4014,0.8162,2.9941,1.2209,4.6304,1.2209c1.9502,0,3.9624-0.5751,5.7861-1.713c2.8755-1.7939,3.9429-3.8006,5.1787-6.1239
			c0.77-1.4473,1.6426-3.087,3.1367-4.9448c2.949-3.6665,7.5522-6.0531,9.6249-6.9999c1.1177-0.5106,0.102-2.8088-1.0251-2.298
			c-2.2804,1.0336-7.2394,3.6086-10.5431,7.7166c-1.6436,2.043-2.5752,3.7942-3.3975,5.3397
			c-1.1538,2.1687-1.9873,3.7353-4.293,5.1742c-2.5288,1.5774-5.6074,1.7561-7.8457,0.4523
			c-1.9468-1.1334-2.9702-3.1848-2.8823-5.7748c0.1831-5.3676,3.9014-9.3317,11.3667-12.1182
			c6.1331-2.2895,11.2654-6.2269,13.3608-7.982c0.8978-0.752-0.6349-2.741-1.5939-1.9415c-0.8743,0.729-2.3311,1.8788-4.1821,3.1195
			C32.9884,18.7811,30.2307,18.1352,25.1862,21.7402z"/>
		<path d="M15.3315,13.2525c2.6299-2.9789,5.4852-4.1505,8.5017-5.3887c2.7521-1.1292,5.3706-2.0783,6.9383-3.5402
			c-0.0208-0.141-0.0844-0.287-0.4896-0.3138c-1.0627-0.0703-4.544,0.2398-6.5469,0.9272c-6.0429,2.0739-7.9589,5.923-8.5156,7.6846
			C15.0452,13.173,15.1882,13.2816,15.3315,13.2525z"/>
		<path d="M52.5261,30.801c-4.1025,1.7683-7.452,5.7121-9.8585,10.1995c-0.2367,0.4413-0.2294,0.7567-0.0482,0.7809
			c3.9214-3.5013,5.1532-5.6682,10.043-8.2835C53.5694,33.0128,53.4805,30.3895,52.5261,30.801z"/>
		<path d="M45.735,41.7728c-8.0999,6.6801-16.0392,9.7957-22.0326,8.291c-9.3617-2.3503-11.9271-11.5261-12.428-13.7458
			c-0.1644-0.0298-0.3068,0.1585-0.3943,0.5172c-0.8986,3.6782,1.8133,9.5474,4.7595,12.1145
			c2.5981,2.2639,5.2248,3.3895,7.8921,3.8951c5.2526,0.9955,10.6628-0.8182,16.3232-3.9153
			c5.3065-2.9033,8.195-5.7029,9.6604-7.1888c2.4905-2.5253,3.6641-4.5276,3.0823-4.7452
			C51.9775,36.7635,48.86,39.1956,45.735,41.7728z"/>
		<path d="M49.9902,44.8798C44.7975,49.14,36.546,55.6737,26.2277,55.7621c-6.0228,0.0516-9.971-4.0967-10.9673-5.372
			c-0.2753,0.0542-0.3245,0.4615-0.2624,0.886c0.6726,4.6005,9.2364,10.8654,23.6249,4.2429
			c3.9871-1.8351,9.6826-5.6229,11.3934-9.2077C50.3913,45.5256,50.2507,44.9441,49.9902,44.8798z"/>
		<path d="M48.0608,52.3193c-3.2065,2.3716-6.4379,5.6754-15.1929,6.7234c-0.088,0.1679,0.0298,0.3406,0.3974,0.4505
			c3.6777,1.0995,11.481,1.0018,14.8403-6.4955C48.2849,52.5975,48.2213,52.3416,48.0608,52.3193z"/>
		<path d="M30.4708,13.3743c-0.6409,0.27-0.5956,0.9308-0.3462,1.5221c0.2574,0.6102,0.6827,1.0764,1.3368,0.8045
			c3.5074-1.4579,7.1247-3.1439,10.6269-6.5388c1.1207-1.0864-1.0497-2.5628-1.7667-1.8528
			c-1.3619,1.3485-2.6248,2.2436-3.8912,3.047C34.421,11.631,32.4096,12.5575,30.4708,13.3743z"/>
		<path d="M28.3467,16.992c0.6143-0.2609,0.5805-0.9321,0.3382-1.5066c-0.2389-0.5663-0.7372-1.0718-1.3117-0.8328
			c-3.5208,1.4647-6.6073,2.9799-8.7004,6.1882c-2.6259,4.0249-2.6803,9.1646-1.8621,11.5974
			c0.1583,0.4707,0.3306,0.4557,0.4265,0.3939c-0.0175-2.3927,0.4991-10.4595,8.0106-14.3983
			C26.2589,17.9034,27.2952,17.4385,28.3467,16.992z"/>
		<path d="M41.8137,33.4994c-3.3638,6.3236-4.5386,7.2577-6.2832,8.6177c-2.5079,1.9541-5.8216,2.8892-9.0137,2.6636
			c-1.2241-0.0865-1.6119,2.5589-0.3896,2.6451c3.9717,0.2802,8.0258-1.0541,10.9346-3.3217
			c3.8967-3.0375,4.3539-5.1487,6.8818-9.2886c2.2797-3.7322,6.8566-6.2711,8.7634-7.2081
			c0.9836-0.4833,0.4376-3.1757-0.8555-2.5067C49.3797,26.3798,44.3313,28.7664,41.8137,33.4994z"/>
		<path d="M22.8804,46.8081c0.9504,0.3041,1.6476-2.2506,0.4489-2.668c-2.2812-0.7943-4.3101-2.2933-5.6739-4.5817
			c-5.2344-8.7827-3.3149-18.9331,1.6982-23.4438c2.0659-1.8588,5.021-3.1003,8.1494-4.4144
			c3.4359-1.443,6.9695-2.9271,9.6681-5.3842c1.2836-1.1688-1.4382-2.2896-2.2147-1.5627c-2.4096,2.2554-5.1206,3.2422-8.4167,4.627
			c-3.1821,1.3367-6.4731,2.7187-8.853,4.8603c-7.4062,6.6642-6.8838,19.0215-2.1523,26.6487
			C17.4232,43.9346,19.9422,45.868,22.8804,46.8081z"/>
	</g>
</g>
</svg>
