<svg height="64" viewBox="0 0 64 64" width="64" xmlns="http://www.w3.org/2000/svg"><path d="m0 0h64v64h-64z" fill="none"/><path d="m43.3257 33.7527c.3618-1.0652.7862-2.7364-1.0132-4.5652-1.5618-1.5873-4.0625-1.5-4.0625-1.5-.0068-.0924.6875-2.75-1.3125-4.4375-2.6011-2.1946-4.9322-.9371-4.9322-.9371.3849-2.3057-.5631-4.0168-1.893-4.9967-2.5498-1.8787-4.3947-.8052-5.3948.0326-.5338.4472-1.1453.9888-1.7537 1.5395 1.4503 1.2252 4.7886 4.0413 6.7364 5.6537 1.3193 1.0923 3.0039 2.8374 2.4033 5.3755-.269 1.1362-1.46 3.6895-6.6929 2.8833-2.0562-.3159-4.3496-1.1968-5.4443-1.6523l-.0137.0137c.6746.6946 1.7608 1.814 2.6597 3.356 2.3655 4.058 1.7512 7.4119 1.0376 9.3177-.1668.4454-.3843.6486-.5031.5117.7676-4.9579-2.3038-9.8037-6.0716-13.1185l2.4395-2.4678c1.8501.8404 4.1905 1.754 6.1997 2.063 1.8125.2778 4.0552.2681 4.4429-1.3672.1992-.8428.1274-1.8345-1.7324-3.374-2.0617-1.7067-5.6128-4.8574-6.9841-5.8636-1.1342-.8322-2.7462-.6678-3.6282-.0944-.8856.5757-4.6469 3.7909-6.7647 5.6166-.945.8146-1.5461 1.9437-1.6943 3.1826-.3068 2.566-.9157 7.2233-1.2851 10.9632-.1365 1.3822-.714 2.6835-1.6893 3.6724-.9753.9888-3.975 4.0302-3.975 4.0302l13.4022 14.8198s5.4615-5.6343 6.1937-6.4097 1.6893-1.3684 2.7518-1.4595c3.7455-.3212 4.4892 1.6857 11.5369-5.5369 0 0-.506-.2369-.743-.3618-2.5855-1.3626-2.3916-3.9347-2.3916-3.9347-2.5284.0662-4.2873-1.0131-4.7191-3.2675-.166-.8666.0649-1.1584.2953-1.1287 2.856 4.282 6.1201 2.4728 6.1201 2.4728-.1992 2.1434.3566 3.3037 1.129 3.9169 2.0396 1.6191 3.7053.1624 4.9498-.9382 1.5444-1.3658 3.4793-3.3915 4.6297-5.4129 2.4542-4.3123-2.2333-6.597-2.2333-6.597z"/><path d="m47.4355 62.6636-12.421-5.0372c-1.5712-.6372-.471-3.674 1.1536-3.1365l10.434 3.452-1.3672-13.0112 11.4756-6.5605-9.8936-8.3618 7.0537-14.687-16.1011 2.4912-5.1333-11.8927-9.6074 9.0791-12.0547-5.081.0259 10.6051c.0118 1.5365-3.0129 1.7759-3.1621.1605l-1.1406-12.9321c-.1705-1.906 1.7496-3.312 3.5205-2.5684l11.9458 5.0356 9.2627-8.7539c1.2811-1.2125 3.3831-.7794 4.082.8418l4.7495 11.0039 15.7504-2.4377c2.2522-.3486 3.6315 1.829 2.7881 3.5905l-6.9492 14.4688 9.1553 7.7378c1.3468 1.1379 1.1525 3.2744-.3794 4.1499l-11.064 6.3257 1.3402 12.7571c.2269 2.1584-1.7531 3.4495-3.4637 2.761z"/></svg>