<?xml version="1.0" encoding="utf-8"?>
<!-- Generator: Adobe Illustrator 24.0.1, SVG Export Plug-In . SVG Version: 6.00 Build 0)  -->
<svg version="1.1" xmlns="http://www.w3.org/2000/svg" xmlns:xlink="http://www.w3.org/1999/xlink" x="0px" y="0px"
	 viewBox="0 0 64 64" style="enable-background:new 0 0 64 64;" xml:space="preserve">
<style type="text/css">
	.st0{fill:none;}
	.st1{fill:#FF1D25;}
	.st2{fill:#1D1D1B;}
</style>
<g id="Box">
	<rect class="st0" width="64" height="64"/>
</g>
<g id="Icon">
	<g>
		<path d="M40.4,9.3c-0.6-1-1.5-2.4-4.1-2.3c-2.2,0.1-3.8,2-3.8,2c-0.1-0.1-1.6-2.3-4.2-2c-3.4,0.5-4,3.1-4,3.1
			c-1.5-1.8-3.4-2.2-5-1.9c-3.1,0.7-3.5,2.7-3.6,4.1c0,0.7,0,1.5,0,2.3c1.9-0.3,6.2-0.9,8.7-1.3c1.7-0.3,4.1-0.4,5.6,1.8
			c0.7,1,1.8,3.5-2.3,6.9c-1.6,1.3-3.8,2.5-4.9,3l0,0c1,0,2.5-0.1,4.3,0.2c4.6,0.9,6.7,3.6,7.7,5.4c0.2,0.4,0.2,0.7,0,0.7
			c-3.2-3.9-8.9-4.8-13.8-4.2l-0.2-3.5c1.9-0.8,4.1-2,5.7-3.3c1.4-1.2,2.9-2.9,1.9-4.2c-0.5-0.7-1.3-1.3-3.7-0.9
			c-2.6,0.4-7.4,1-9,1.3c-1.4,0.3-2.3,1.6-2.5,2.6c-0.2,1-0.3,6-0.3,8.8c0,1.2,0.4,2.4,1.3,3.4c1.7,1.9,4.8,5.5,7.3,8.2
			c0.9,1,1.5,2.3,1.6,3.7C23.7,48.3,23,59,23,59h20.7c0,0-0.7-17.9-0.8-19c-0.1-1.1,0.1-2.2,0.7-3c2.2-3,4.2-2.2,3.5-12.3
			c0,0-0.5,0.2-0.8,0.3c-2.7,1-4.5-0.8-4.5-0.8c-1.6,1.9-4.3,1.9-5.8,1c-0.5-0.3-0.6-0.4-0.4-0.6c5.1,0.7,5.9-2.9,5.9-2.9
			c1.5,1.6,2.7,1.9,3.7,1.8c2.6-0.4,2.6-2.7,2.6-4.3c0-2.1-0.2-4.9-1-7.1C45.3,7.3,40.4,9.3,40.4,9.3z"/>
	</g>
</g>
</svg>
