<svg enable-background="new 0 0 64 64" viewBox="0 0 64 64" xmlns="http://www.w3.org/2000/svg"><path d="m0 0h64v64h-64z" fill="none"/><path d="m40.4 9.3c-.6-1-1.5-2.4-4.1-2.3-2.2.1-3.8 2-3.8 2-.1-.1-1.6-2.3-4.2-2-3.4.5-4 3.1-4 3.1-1.5-1.8-3.4-2.2-5-1.9-3.1.7-3.5 2.7-3.6 4.1v2.3c1.9-.3 6.2-.9 8.7-1.3 1.7-.3 4.1-.4 5.6 1.8.7 1 1.8 3.5-2.3 6.9-1.6 1.3-3.8 2.5-4.9 3 1 0 2.5-.1 4.3.2 4.6.9 6.7 3.6 7.7 5.4.2.4.2.7 0 .7-3.2-3.9-8.9-4.8-13.8-4.2l-.2-3.5c1.9-.8 4.1-2 5.7-3.3 1.4-1.2 2.9-2.9 1.9-4.2-.5-.7-1.3-1.3-3.7-.9-2.6.4-7.4 1-9 1.3-1.4.3-2.3 1.6-2.5 2.6s-.3 6-.3 8.8c0 1.2.4 2.4 1.3 3.4 1.7 1.9 4.8 5.5 7.3 8.2.9 1 1.5 2.3 1.6 3.7.6 5.1-.1 15.8-.1 15.8h20.7s-.7-17.9-.8-19 .1-2.2.7-3c2.2-3 4.2-2.2 3.5-12.3 0 0-.5.2-.8.3-2.7 1-4.5-.8-4.5-.8-1.6 1.9-4.3 1.9-5.8 1-.5-.3-.6-.4-.4-.6 5.1.7 5.9-2.9 5.9-2.9 1.5 1.6 2.7 1.9 3.7 1.8 2.6-.4 2.6-2.7 2.6-4.3 0-2.1-.2-4.9-1-7.1-1.5-4.8-6.4-2.8-6.4-2.8z"/></svg>