<svg height="64" viewBox="0 0 64 64" width="64" xmlns="http://www.w3.org/2000/svg"><path d="m0 0h64v64h-64z" fill="none"/><path d="m27 19.9999v-17.9999c0-.5523-.4477-1-1-1h-12c-.5522 0-1 .4477-1 1v17.9999c0 .5523.4478 1 1 1h12c.5523 0 1-.4477 1-1zm-7-15.9999c1.6569 0 3 1.3431 3 3s-1.3431 3-3 3-3-1.3431-3-3 1.3431-3 3-3zm4 14h-8v-4h8z"/><path d="m56.0306 35.5181c-.9835-2.9705-3.6135-3.6401-5.1632-2.6887-.444-.9009-1.5586-2.3651-3.4932-2.5884-1.975-.2279-3.085 1.417-3.085 1.417-.0626-.054-.9209-2.4408-3.5035-2.533-1.8221-.0651-2.9908 1.2647-3.2552 1.5992-.5037-6.0907-1.348-14.875-1.4156-15.9519-.0958-1.5247-1.2791-2.7501-2.8066-2.7719l-.007-.0001c-1.5284-.0219-2.8224 1.1659-2.8845 2.6932-.0438 1.0769-.4223 17.833-.4223 30.5359-.0562.0209-.2623.0673-.3641-.2499-.3135-.9771-1.0027-5.4929-1.1346-6.2468-1.7097 1.3054-4.1498 3.001-4.3536 6.0587-.4344 6.518 6.0886 10.2086 8.8578 17.2086h20c0-7.9459 3.8282-4.2722 3.98-15 .0373-2.6412.1014-8.308-.9494-11.4819z"/></svg>