<svg height="64" viewBox="0 0 64 64" width="64" xmlns="http://www.w3.org/2000/svg"><path d="m0 0h64v64h-64z" fill="none"/><path d="m12.4453 18.6968c.6995-1.9097 1.5988-3.6288 2.3607-4.5363-3.4996-.0585-7.0723-.3652-8.6263-.797.314-1.5318 1.7101-5.6188 2.0547-6.2039.3478-.1731 2.901-.4688 7.7656-.4688s7.4178.2957 7.7657.4688c.2582.4385 1.1071 2.8439 1.6484 4.6666.8025-.0161 1.6515-.0264 2.5859-.0264.9301 0 1.7753.0102 2.5746.0262.0554-.0833.1042-.1628.1307-.2235.2616-.5987.0895-1.6321-.9102-1.8256-.4424-.0859-1.3849-.0052-2.1248.0995-.5729-2.0655-1.571-4.0467-2.1532-4.6543-.7809-.8149-3.5193-1.222-9.5171-1.2222-5.9978.0002-8.7362.4072-9.5171 1.2222-.5821.6077-1.5803 2.5889-2.1532 4.6544-.7399-.1048-1.6824-.1855-2.1248-.0996-.9997.1935-1.1718 1.2269-.9102 1.8256.1246.2861.578.8637 1.2811 1.3466-1.1466 1.5431-1.5758 2.5939-1.5758 5.0879v6.8148s.0925 1.9939.3712 3.3212c.1016.4832.6421.827 1.158.827h4.1851c.5162 0 .9638-.5289 1.0654-1.0122.1553-.741.2292-1.2088.3179-2.5592h.7658c.0565-.1115.1091-.2231.1708-.3348-.3066-.3706-.5459-.7451-.6963-1.0898-.459-1.0498-.4116-2.335.1235-3.353.0309-.0588.0757-.1049.1093-.1614l-2.8846-.2306c-.9453-.0754-1.5246-.8299-1.698-1.6571l-.1438-.9994c-.0888-.6181.546-1.1427 1.1719-.9685l2.8243.7847c.6143.2365 1.0784.7164 1.2763 1.319l.2269.8423c.4713-.3956 1.0344-.6821 1.6827-.8075.3867-.0747.8789-.0977 1.4189-.0757z"/><path d="m14.8195 29.1608 3.3892.9416c.7371.2838 1.2941.8597 1.5316 1.5827l.18.6686c.5725-.7329 1.3776-1.238 2.3473-1.4254.5714-.112 1.2565-.1019 1.8379-.0698.6492-1.8303 1.4556-3.5167 2.2131-4.6696-4.1191-.0804-8.275-.4446-10.103-.9526.3768-1.8382 2.0522-6.7426 2.4656-7.4446.4174-.2078 3.4813-.5627 9.3188-.5627s8.9014.3549 9.3188.5626c.2839.4821 1.1628 2.9455 1.8077 5.0371.8953-.0175 1.838-.0288 2.8735-.0289 1.3702.0001 2.6065.0164 3.7342.0468.1617-.7233-.123-1.7097-1.1801-1.9142-.5309-.1031-1.6618-.0063-2.5497.1194-.6876-2.4785-1.8853-4.856-2.5839-5.5851-.937-.9781-4.2231-1.4665-11.4205-1.4667-7.1974.0002-10.4835.4886-11.4205 1.4666-.6986.7292-1.8964 3.1066-2.5839 5.5851-.8879-.1257-2.0188-.2225-2.5497-.1194-1.1996.2322-1.4062 1.4722-1.0923 2.1907.1497.3434.6937 1.0364 1.5374 1.6159-1.3759 1.8517-1.891 3.1128-1.891 6.1056v8.1777s.1111 2.3926.4454 3.9854c.1219.5798.7706.9924 1.3896.9924h5.0222c.6194 0 1.1566-.6348 1.2784-1.2147.1864-.8892.2751-1.4506.3815-3.0711h.9667c.2191-.6301.4895-1.2293.8326-1.8212-.4175-.4722-.7339-.9429-.9194-1.3687-.3685-.8431-.432-1.8279-.1996-2.728l-3.574-.2857c-1.1344-.0905-1.8295-.9958-2.0375-1.9885l-.1725-1.1993c-.1068-.7416.655-1.3711 1.4061-1.162z"/><path d="m60.7938 37.5287c.9843-.676 1.619-1.4846 1.7936-1.8852.3662-.8382.1253-2.2849-1.2743-2.5558-.6194-.1203-1.9388-.0073-2.9747.1393-.8021-2.8916-2.1995-5.6653-3.0145-6.516-1.0932-1.1409-4.927-1.7108-13.3239-1.711l-.0001.0001v-.0001c-8.3969.0002-12.2307.5701-13.3239 1.7111-.815.8507-2.2124 3.6244-3.0145 6.516-1.0359-.1467-2.3553-.2596-2.9747-.1393-1.3996.2709-1.6405 1.7176-1.2743 2.5558.1746.4006.8093 1.2092 1.7936 1.8852-1.6052 2.1603-2.2061 3.6315-2.2061 7.1231v9.5407s.1296 2.7914.5197 4.6496c.1422.6765.8989 1.1578 1.6212 1.1578h5.8591c.7227 0 1.3494-.7405 1.4916-1.4171.2175-1.0374.3209-1.6923.4451-3.5829h22.1266c.1241 1.8906.2276 2.5455.4451 3.5829.1422.6766.7689 1.4171 1.4915 1.4171h5.8591c.7222 0 1.479-.4813 1.6212-1.1578.3901-1.8582.5197-4.6496.5197-4.6496s0-5.0296 0-9.5407c0-3.4916-.6009-4.9628-2.2061-7.1232zm-29.6657-8.1052c.487-.2423 4.0615-.6563 10.8719-.6563v-.0001.0001c6.8104 0 10.3849.414 10.8719.6563.4824.8191 2.437 6.5409 2.8766 8.6854-2.4242.6737-8.3579 1.1311-13.7485 1.1311l-.0001.0001v-.0001c-5.3906 0-11.3243-.4574-13.7485-1.1311.4396-2.1445 2.3943-7.8663 2.8767-8.6854zm1.3174 18.7295-4.885-.3905c-1.3234-.1056-2.1344-1.1618-2.3771-2.3199l-.2013-1.3992c-.1244-.8653.7644-1.5997 1.6406-1.3559l3.9541 1.0986c.86.331 1.5098 1.003 1.7869 1.8465l.542 2.0128c.0721.2671-.1685.532-.4602.5076zm15.5544 3.847h-11.9999v-2h11.9999zm11.018-7.9566-.2013 1.3992c-.2427 1.1581-1.0537 2.2143-2.3771 2.3199l-4.885.3905c-.2917.0244-.5323-.2405-.4601-.5076l.542-2.0128c.2771-.8435.9269-1.5155 1.7869-1.8465l3.9541-1.0986c.8761-.2438 1.7649.4906 1.6405 1.3559z"/></svg>