<svg height="64" viewBox="0 0 64 64" width="64" xmlns="http://www.w3.org/2000/svg"><path d="m0 0h64v64h-64z" fill="none"/><circle cx="50" cy="39" r="5"/><circle cx="15" cy="39" r="5"/><path d="m62.4583 31.9736c-2.8083-4.4124-17.3787-7.4388-17.3787-7.4388s-6.4366-6.101-9.7731-6.8373c-3.3352-.7375-13.1176-1.1043-17.5385 0-4.4197 1.1044-10.0776 5.9188-10.0776 5.9188-2.7605.8514-4.8602 1.3595-5.6644 3.241-1.1632 2.7253-1.1632 8.0613-.4642 9.9019.7231 1.9028 2.5602 3.2408 4.4225 3.2408h2.0447c-.0466-.3275-.079-.6595-.079-1 0-3.8949 3.1552-7.05 7.05-7.05s7.05 3.1551 7.05 7.05c0 .3405-.0323.6725-.0789 1h21.0579c-.0466-.3275-.0789-.6595-.0789-1 0-3.8949 3.1552-7.05 7.05-7.05s7.05 3.1551 7.05 7.05c0 .3405-.0323.6725-.0789 1h3.3555c.3745 0 .7182-.2031.908-.5385 1.1051-1.9536 2.7684-5.0608 1.2236-7.4879zm-21.4603-5.9736h-7.9265c-4.8495 0-14.9464-.5104-17.3539-.8198-.9227-.1186-1.4663-1.071-1.1347-1.9401.6494-1.702 1.5624-2.5604 3.7921-3.1175 1.6074-.4014 4.2979-.6226 7.5762-.6226 3.4893 0 7.1143.2622 8.8164.6382 1.3051.288 4.1647 2.3381 6.718 4.5267.5356.4592.218 1.3351-.4876 1.3351z"/></svg>