<svg height="64" viewBox="0 0 64 64" width="64" xmlns="http://www.w3.org/2000/svg"><path d="m0 0h64v64h-64z" fill="none"/><circle cx="49.5" cy="46.5" r="5.5"/><circle cx="18.5" cy="46.5" r="5.5"/><path d="m60.1667 29.5c-3.6128-5.7633-7.8961-11.453-10.5079-14.811-1.9701-2.5331-4.0528-2.689-6.9798-2.689h-34.2862c-1.1821 0-2.1953 1.0003-2.2515 2.2949-.0184.4232-.1453 3.4267-.3075 7.3486l-2.9568.3668c-.5474.0673-.9366.5655-.8693 1.1129.0613.5002.4858.8762.9898.8768h12.3046c.0343.0752.1112.3513-.4008.4915-.431.1179-7.1346 1.2419-9.25 1.5955-.0864 2.1173-.1749 4.3127-.2576 6.4037l-3.4887.4627c-.5632.0674-.965.5787-.8975 1.1419.0612.5114.4918.8983 1.0069.9047h9.9667c.0258.0684.0833.3193-.3029.4449-.2947.0958-4.482.9267-6.4504 1.3152-.1254 3.3026-.2124 5.8255-.2124 6.4673 0 1.5761 1.2947 2.7726 2.8145 2.7726h2.9952c.2597-4.0125 3.598-7.2002 7.6749-7.2002s7.4151 3.1878 7.6749 7.2002h15.6503c.2598-4.0124 3.598-7.2002 7.6749-7.2002s7.4151 3.1877 7.6749 7.2001h1.0137c2.7783 0 4.7393-2.2652 4.7393-5.0435-.0001-3.4564-.3642-7.6324-2.7613-11.4564zm-7.5186.5h-10.6481v-11s3.3297.0001 5.868 0c.83-.0001 1.6091.3883 2.1058 1.0532 1.4449 1.9339 3.0162 4.1023 4.5669 6.3632 1.0412 1.518-.0519 3.5836-1.8926 3.5836z"/></svg>