<svg enable-background="new 0 0 64 64" height="64" viewBox="0 0 64 64" width="64" xmlns="http://www.w3.org/2000/svg"><path d="m0 0h64v64h-64z" fill="none"/><path d="m11.4 44.8c2 1.3 4.5 3.1 6.9 3.1s4.9-1.8 6.9-3.1c2 1.3 4.5 3.1 6.9 3.1s4.8-1.7 6.9-3.1c2 1.3 4.5 3.1 6.9 3.1s4.8-1.7 6.9-3.1c.8.5 1.7 1.1 2.6 1.6l7.4-10.8c.2-.3 0-.6-.3-.6l-7.5.4c-2-1.6-4.4-3.4-6.5-4.2l-16.7.7c-1.4.1-2.8-.6-3.6-1.7l-1.2-1.7 19.5-1.3-1.4-2c-1.3-1.9-3.4-2.9-5.7-2.6-3.4.4-9 1.1-15.1 2.3l-3.8-5.2c-.3-.4-.8-.7-1.3-.7h-1.3c-.4 0-.7.4-.5.8l2.4 6c-1.8.4-3.6.9-5.3 1.4-.8.2-1.3.8-1.6 1.6l-.2.8 7.9-.5-2.6 6.6 7.5 1c.3.1.3.3.3.3l-8.7.4c-5.5.4-10.3 3.8-12.6 8.8l-.7 1.6c.4.1.7.1 1 .1 2.1 0 4.6-1.8 6.6-3.1zm37.1-5.8c.8 0 1.5.7 1.5 1.5s-.7 1.5-1.5 1.5-1.5-.7-1.5-1.5.7-1.5 1.5-1.5zm-8 0c.8 0 1.5.7 1.5 1.5s-.7 1.5-1.5 1.5-1.5-.7-1.5-1.5.7-1.5 1.5-1.5zm-8 0c.8 0 1.5.7 1.5 1.5s-.7 1.5-1.5 1.5-1.5-.7-1.5-1.5.7-1.5 1.5-1.5z"/><path d="m59.4 50.1c-2.5 0-5-1.4-6.9-2.6-1.9 1.2-4.3 2.6-6.9 2.6-2.5 0-4.9-1.4-6.9-2.6-1.9 1.2-4.3 2.6-6.9 2.6-2.5 0-4.9-1.4-6.9-2.6-2 1.3-4.4 2.6-6.9 2.6s-4.9-1.4-6.9-2.6c-1.9 1.3-4.3 2.6-6.9 2.6-1.2 0-2.5-.4-3.6-.8v4.2c1.5.3 2.7.5 4 .5 2.7 0 5.4-1.2 6.9-1.9 1.4.8 4.1 1.9 6.9 1.9 2.7 0 5.4-1.2 6.9-1.9 1.4.8 4.1 1.9 6.9 1.9 2.7 0 5.4-1.2 6.9-1.9 1.4.8 4.1 1.9 6.9 1.9 2.7 0 5.4-1.2 6.9-1.9 1.4.8 4.1 1.9 6.9 1.9 1.2 0 2.5-.2 3.6-.6v-4.2c-1.4.5-2.7.9-4 .9z"/></svg>