<svg enable-background="new 0 0 64 64" height="64" viewBox="0 0 64 64" width="64" xmlns="http://www.w3.org/2000/svg"><path d="m0 0h64v64h-64z" fill="none"/><path d="m36 12s-8.9474-1-17-6c-8.0526 5-17 6-17 6 0 18 2.6842 28 17 33 14.3158-5 17-15 17-33zm-29 9.5s2.0146-2.5 4.5-2.5 4.5 2.5 4.5 2.5-2.0146 2.5-4.5 2.5-4.5-2.5-4.5-2.5zm12 12.8396c-2.2839 0-4.3627.6946-5.9496 1.8298.3656-2.4001 2.8871-4.2595 5.9496-4.2595s5.584 1.8594 5.9496 4.2595c-1.5869-1.1352-3.6657-1.8298-5.9496-1.8298zm3-12.8396s2.0146-2.5 4.5-2.5 4.5 2.5 4.5 2.5-2.0146 2.5-4.5 2.5-4.5-2.5-4.5-2.5zm26.2603-.4678c-3.7539.8743-7.4241 1.0698-10.4716 1-.3091 3.1993-.8192 6.1039-1.61 8.728.2698.032.5398.0862.8049.176 2.3538.7979 3.4592 3.8123 3.4592 3.8123s-2.7106 1.7209-5.0643.9231c-.3444-.1167-.6588-.2847-.9503-.48-1.7681 3.4995-4.3083 6.3683-7.905 8.6609.8796 5.2914 3.7029 9.8108 9.2166 14.1152 15.1633-.1394 20.9158-8.7484 26.6943-25.7957 0 .0001-8.1527-3.8193-14.1738-11.1398zm-9.7144 28.6577c-2.9004-.9832-4.6915-3.5536-4.2673-5.9441 1.1384 1.5847 2.8843 2.9099 5.0472 3.6431s4.3547.7427 6.222.177c-1.1166 2.1558-4.1016 3.1072-7.0019 2.124zm11.0386-9.2027c-2.3536-.798-3.4591-3.8124-3.4591-3.8124s2.7106-1.7208 5.0643-.923 3.4592 3.8124 3.4592 3.8124-2.7107 1.7208-5.0644.923z"/></svg>