<svg enable-background="new 0 0 64 64" viewBox="0 0 64 64" xmlns="http://www.w3.org/2000/svg"><path d="m0 0h64v64h-64z" fill="none"/><path d="m27 47.1c-12 0-14.6-4.7-14.8-5.4-.1-.3-.1-.4 0-.4 3.4 2.3 8.5 3.8 14.3 3.8 2.1 0 4.1-.2 5.9-.5l12.6-12.7v-2.4c0-.2 0-.4-.1-.7-1.3 1.6-6.4 7.3-17.9 7.3-12 0-14.6-4.7-14.8-5.4-.1-.3-.1-.4 0-.4 3.4 2.3 8.5 3.8 14.3 3.8 10.4-.1 18.5-4.7 18.5-10.6 0-.8 0-3.6 0-4.8-1.3 1.6-6.5 7.2-17.9 7.2-12 0-14.6-4.7-14.8-5.4-.1-.3-.1-.4 0-.4 3.4 2.3 8.5 3.8 14.3 3.8 7.8 0 14.3-2.6 17.1-6.4.6-.9.6-2 0-2.9-2.7-3.9-9.3-6.6-17.2-6.6-10.3 0-18.5 4.6-18.5 10.4v5c0 1.1.3 2.1.8 3.1-.5.9-.8 1.9-.8 3v5c0 1 .3 2.1.8 3-.5.9-.8 1.9-.8 3v5c0 5.9 8.1 10.5 18.5 10.5h1.4l3-9.1c-1.1.1-2.5.2-3.9.2z"/><path d="m52.2 28.9-17.8 17.8c-.2.2-.4.5-.4.7l-3.6 10.9c-.2.5.3.9.7.7l10.9-3.6c.3-.1.5-.2.7-.4l17.8-17.8zm-15.2 20.6-.3-.3c-.3-.3-.3-.7 0-1l15.5-15.5 1.3 1.3-15.5 15.5c-.3.3-.8.3-1 0zm4.1 3.2c-.3.3-.7.3-1 0l-.3-.3c-.3-.3-.3-.7 0-1l15.5-15.5 1.3 1.3z"/></svg>