<svg height="64" viewBox="0 0 64 64" width="64" xmlns="http://www.w3.org/2000/svg"><path d="m0 0h64v64h-64z" fill="none"/><path d="m55 7h-46c-1.1045 0-2 .8955-2 2v34.99c0 1.1045.8955 2 2 2h16.5s-.5342 1.9412-1.5 5.01c-.5779 1.8373-2.3791 1.992-2.8691 2h-2.1309c-.5527 0-1 .4478-1 1v2h28v-2c0-.5522-.4473-1-1-1h-2.1309c-.49-.008-2.2912-.1627-2.8691-2-.3881-1.233-.7027-2.2706-.9447-3.0848 0 0-4.4024-.6397-8.9772-1.5323-.3203-.0625-.2812-.2969-.2443-.3828h25.1662c1.1045 0 2-.8955 2-2v-35.0001c0-1.1045-.8955-2-2-2zm-3 32h-40v-27h40z"/><path d="m31.4866 35.7903c.319.167.7078.167 1.0267 0 12.1424-6.3603 12.4878-17.7841 7.3072-20.0867-5.2526-2.3345-7.8205 2.6847-7.8205 2.6847s-2.568-5.0192-7.8205-2.6847c-5.1806 2.3026-4.8353 13.7264 7.3071 20.0867zm-5.3601-11.4674 1.3951-1.4642c.1927-.2022.5128-.21.7149-.0173l3.4878 3.3239 4.7416-6.2604c.1686-.2226.4857-.2664.7083-.0978l1.6124 1.2213c.2226.1686.2664.4858.0978.7084l-6.4518 8.5178c-.1823.2406-.5334.2689-.7519.0607l-5.537-5.2776c-.2021-.1926-.2097-.5126-.0172-.7148z"/></svg>