<?xml version="1.0" encoding="utf-8"?>
<!-- Generator: Adobe Illustrator 25.0.0, SVG Export Plug-In . SVG Version: 6.00 Build 0)  -->
<svg version="1.1" xmlns="http://www.w3.org/2000/svg" xmlns:xlink="http://www.w3.org/1999/xlink" x="0px" y="0px"
	 viewBox="0 0 64 64" style="enable-background:new 0 0 64 64;" xml:space="preserve">
<style type="text/css">
	.st0{fill:none;}
	.st1{fill:#FFFFFF;}
</style>
<g id="Box">
	<rect class="st0" width="64" height="64"/>
</g>
<g id="Icon">
	<g>
		<path d="M43.582,7.834c-7.681-1.112-15.408-1.112-23.089,0C18.517,8.128,17,9.966,17,11.831c0,13.446,0,26.892,0,40.338
			c0,1.866,1.592,3.703,3.569,3.997c7.681,1.112,15.332,1.112,23.014,0C45.559,55.872,47,54.034,47,52.169
			c0-13.446,0-26.892,0-40.338C47,9.966,45.559,8.128,43.582,7.834z M32,54.2c-1.491,0-2.7-1.209-2.7-2.7s1.209-2.7,2.7-2.7
			s2.7,1.209,2.7,2.7S33.491,54.2,32,54.2z M43,46H21V14h22V46z"/>
		<path d="M40.13,36.949c-0.389-0.41-1.164-0.856-2.016-1.267c-1.116-0.552-2.363-1.041-3.028-1.29
			c-0.254-0.095-0.416-0.329-0.46-0.597c-0.056-0.333-0.118-0.825-0.167-1.24c1.683-0.068,3.075-0.234,3.654-0.455
			c0.115-0.043,0.172-0.148,0.121-0.26c-0.317-0.691-1.14-2.964-1.243-4.15c-0.254-2.913-0.244-8.126-4.235-6.818
			c0,0-2.535-1.619-4.593,1.09c-1.448,1.906-1.095,4.419-1.153,5.82c-0.041,0.997-0.856,3.298-1.2,3.894
			c-0.073,0.127-0.048,0.255,0.09,0.305c0.621,0.226,2.02,0.4,3.664,0.504c-0.046,0.417-0.111,0.934-0.184,1.31
			c-0.052,0.266-0.206,0.501-0.46,0.597h-0.004c-0.665,0.249-1.912,0.737-3.028,1.29c-0.852,0.411-1.627,0.858-2.016,1.267
			C23.449,37.392,23.177,38.181,23,39h18C40.823,38.181,40.551,37.392,40.13,36.949z"/>
	</g>
</g>
</svg>
