<svg enable-background="new 0 0 64 64" viewBox="0 0 64 64" xmlns="http://www.w3.org/2000/svg"><path d="m0 0h64v64h-64z" fill="none"/><path d="m43.582 7.834c-7.681-1.112-15.408-1.112-23.089 0-1.976.294-3.493 2.132-3.493 3.997v40.338c0 1.866 1.592 3.703 3.569 3.997 7.681 1.112 15.332 1.112 23.014 0 1.976-.294 3.417-2.132 3.417-3.997 0-13.446 0-26.892 0-40.338 0-1.865-1.441-3.703-3.418-3.997zm-11.582 46.366c-1.491 0-2.7-1.209-2.7-2.7s1.209-2.7 2.7-2.7 2.7 1.209 2.7 2.7-1.209 2.7-2.7 2.7zm11-8.2h-22v-32h22z"/><path d="m40.13 36.949c-.389-.41-1.164-.856-2.016-1.267-1.116-.552-2.363-1.041-3.028-1.29-.254-.095-.416-.329-.46-.597-.056-.333-.118-.825-.167-1.24 1.683-.068 3.075-.234 3.654-.455.115-.043.172-.148.121-.26-.317-.691-1.14-2.964-1.243-4.15-.254-2.913-.244-8.126-4.235-6.818 0 0-2.535-1.619-4.593 1.09-1.448 1.906-1.095 4.419-1.153 5.82-.041.997-.856 3.298-1.2 3.894-.073.127-.048.255.09.305.621.226 2.02.4 3.664.504-.046.417-.111.934-.184 1.31-.052.266-.206.501-.46.597h-.004c-.665.249-1.912.737-3.028 1.29-.852.411-1.627.858-2.016 1.267-.423.443-.695 1.232-.872 2.051h18c-.177-.819-.449-1.608-.87-2.051z"/></svg>