<svg height="64" viewBox="0 0 64 64" width="64" xmlns="http://www.w3.org/2000/svg"><path d="m0 0h64v64h-64z" fill="none"/><path d="m16.0625 11c-4.9839 0-9.0253 4.024-9.0593 9h15.9968v33h17v-42z"/><path d="m47.9375 11h-5.9375v9h14.9968c-.034-4.976-4.0754-9-9.0593-9z"/><path d="m42 22h15v9h-15z"/><path d="m42 33h15v9h-15z"/><path d="m16.0625 53h4.9375v-9h-13.9968c.034 4.976 4.0754 9 9.0593 9z"/><path d="m42 53h5.9375c4.984 0 9.0253-4.024 9.0593-9h-14.9968z"/><path d="m7 33h14v9h-14z"/><path d="m7 22h14v9h-14z"/></svg>