<svg enable-background="new 0 0 64 64" viewBox="0 0 64 64" xmlns="http://www.w3.org/2000/svg"><path d="m0 0h64v64h-64z" fill="none"/><path d="m54 12h-44c-1.7 0-3 1.3-3 3v34c0 1.7 1.3 3 3 3h44c1.7 0 3-1.3 3-3v-34c0-1.7-1.3-3-3-3zm-37.5 2c.8 0 1.5.7 1.5 1.5s-.7 1.5-1.5 1.5-1.5-.7-1.5-1.5.7-1.5 1.5-1.5zm-5 0c.8 0 1.5.7 1.5 1.5s-.7 1.5-1.5 1.5-1.5-.7-1.5-1.5.7-1.5 1.5-1.5zm42.5 35h-44v-30h44z"/><path d="m26.9 43.6 2.8 1 7.4-20.2-2.8-1z"/><path d="m25.3 28.3-7.8 4.7v2l7.8 4.7 1.5-2.7-5.1-3 5.1-3z"/><path d="m38.7 28.3-1.5 2.7 5.1 3-5.1 3 1.5 2.7 7.8-4.7v-2z"/></svg>