<svg height="64" viewBox="0 0 64 64" width="64" xmlns="http://www.w3.org/2000/svg"><path d="m0 0h64v64h-64z" fill="none"/><path d="m60.7149 24.8584-3.8728-5.8584-.7673-14.5789c-.0419-.7966-.7001-1.4211-1.4979-1.4211h-23.1537c-.7978 0-1.456.6245-1.4979 1.4211l-.7674 14.5789-3.8727 5.8584c-.1869.3109-.2852.6663-.2852 1.029v2.7792c0 .7364.597 1.3334 1.3334 1.3334h33.3333c.7363 0 1.3333-.597 1.3333-1.3334v-2.7792c0-.3627-.0983-.7181-.2851-1.029zm-21.7149.1416 1.1429-3h5.7143l1.1428 3zm-1.9998-6h-4.8382l.6842-13h20.3075l.6842 13z"/><path d="m22.8802 32.6446c-4.563-.6605-9.1974-.6605-13.7604 0-1.1741.1746-2.1198 1.2663-2.1198 2.3745v23.9617c.0001 1.1083.9457 2.2 2.1198 2.3746 4.563.6605 9.1974.6605 13.7604 0 1.1741-.1746 2.1197-1.2664 2.1198-2.3746 0-7.9872 0-15.9745 0-23.9617 0-1.1082-.9457-2.1999-2.1198-2.3745zm-6.8802 27.3554c-1.1046 0-2-.8954-2-2s.8954-2 2-2 2 .8954 2 2-.8954 2-2 2zm6-6h-12v-18h12z"/><path d="m48.9365 34h-1.7822c-.9755 0-1.6006.504-1.7247 1.2089-1.002 5.6948-4.6202 10.4876-9.5637 13.1147l.4728-3.9377c.0887-.7396-.3498-1.4344-1.0459-1.657-.6965-.2231-1.4556.0892-1.8095.7437l-5.2917 9.7685c-.2269.4186-.2535.9177-.0727 1.3547s.5492.7639 1.0002.8868l10.5227 2.8731c.3414.0935.6925.0607 1.0009-.0738.328-.143.6082-.4015.7768-.7465.3273-.6688.1447-1.4751-.4355-1.9232l-3.3145-2.5762c6.6567-3.3194 11.5312-9.6976 12.7529-17.2883.1472-.9144-.5595-1.7477-1.4859-1.7477z"/><path d="m9.207 27.7916c.986-5.6041 4.5059-10.3345 9.3285-12.9876l-.5063 4.0104c-.0914.7273.3516 1.4253 1.0566 1.6649.3635.1237.7444.1074 1.077-.0244.3129-.1238.5837-.3496.7582-.6577l5.3829-9.4872c.2308-.4065.2589-.8982.0765-1.3346-.1823-.4363-.555-.7694-1.0118-.9037l-10.6579-3.136c-.7136-.2107-1.4704.1074-1.8033.7586-.3331.6505-.1496 1.4514.4374 1.91l3.2661 2.5359c-6.475 3.3669-11.1967 9.657-12.3967 17.1125-.1472.9146.5596 1.7478 1.486 1.7478h1.7822c.9754-.0001 1.6006-.504 1.7246-1.2089z"/></svg>