<svg height="64" viewBox="0 0 64 64" width="64" xmlns="http://www.w3.org/2000/svg"><path d="m0 0h64v64h-64z" fill="none"/><path d="m39 53h-2.1309c-.49-.008-2.2912-.1627-2.8691-2-.3881-1.233-.7027-2.2706-.9447-3.0848 0 0-4.4024-.6397-8.9772-1.5323-.3203-.0625-.2812-.2969-.2443-.3828h11.8673c-.3062-.2547-.6063-.5204-.8935-.8076-1.7692-1.7692-2.9072-3.9241-3.4434-6.1924h-25.3642v-27.0001h40v11.1683c1.7514.2715 3.4567.8945 5 1.8831v-16.0514c0-1.1045-.8955-2-2-2h-46c-1.1045 0-2 .8955-2 2v34.99c0 1.1045.8955 2 2 2h16.5s-.5342 1.9412-1.5 5.01c-.5779 1.8373-2.3791 1.992-2.8691 2h-2.1309c-.5527 0-1 .4478-1 1v2h28v-2c0-.5522-.4473-1-1-1z"/><path d="m12.6279 20.9839v-5.9365h-.7554c-.6836 0-1.4033.1079-2.1348.3237v1.0552c.5518-.0957.9712-.1318 1.5352-.1318v4.6895h1.355z"/><path d="m17.2598 14.939c-1.5474 0-2.8423 1.2236-2.8423 3.1904 0 2.0269 1.0791 2.9624 2.6865 2.9624 1.5229 0 2.8423-1.2114 2.8423-3.1782 0-1.9429-1.1152-2.9746-2.6865-2.9746zm-.0718 5.0014c-.8516 0-1.4272-.5156-1.4272-1.8828 0-1.2236.5996-1.9673 1.415-1.9673.8755 0 1.4272.5879 1.4272 1.8472 0 1.2832-.6118 2.0029-1.415 2.0029z"/><path d="m23.6196 20.9839v-5.9365h-.7554c-.6836 0-1.4033.1079-2.1348.3237v1.0552c.5518-.0957.9712-.1318 1.5352-.1318v4.6895h1.355z"/><path d="m28.2515 14.939c-1.5474 0-2.8423 1.2236-2.8423 3.1904 0 2.0269 1.0791 2.9624 2.6865 2.9624 1.5229 0 2.8423-1.2114 2.8423-3.1782 0-1.9429-1.1152-2.9746-2.6865-2.9746zm-.0718 5.0014c-.8516 0-1.4272-.5156-1.4272-1.8828 0-1.2236.5996-1.9673 1.415-1.9673.8755 0 1.4272.5879 1.4272 1.8472 0 1.2832-.6118 2.0029-1.415 2.0029z"/><path d="m34.6113 20.9839v-5.9365h-.7553c-.6836 0-1.4033.1079-2.1348.3237v1.0552c.5518-.0957.9712-.1318 1.5352-.1318v4.6895h1.3549z"/><path d="m41.9297 17.9136c0-1.9429-1.1152-2.9746-2.6865-2.9746-1.5474 0-2.8423 1.2236-2.8423 3.1904 0 2.0269 1.0791 2.9624 2.6865 2.9624 1.523 0 2.8423-1.2114 2.8423-3.1782zm-4.1856.144c0-1.2236.5996-1.9673 1.415-1.9673.8755 0 1.4272.5879 1.4272 1.8472 0 1.2832-.6118 2.0029-1.415 2.0029-.8515 0-1.4272-.5156-1.4272-1.8828z"/><path d="m15.3506 25.9136c0-1.9429-1.1152-2.9746-2.6865-2.9746-1.5474 0-2.8423 1.2236-2.8423 3.1904 0 2.0269 1.0791 2.9624 2.6865 2.9624 1.5229 0 2.8423-1.2114 2.8423-3.1782zm-2.7583 2.0268c-.8516 0-1.4272-.5156-1.4272-1.8828 0-1.2236.5996-1.9673 1.415-1.9673.8755 0 1.4272.5879 1.4272 1.8472 0 1.2832-.6118 2.0029-1.415 2.0029z"/><path d="m19.0239 28.9839v-5.9365h-.7554c-.6836 0-1.4033.1079-2.1348.3237v1.0552c.5518-.0957.9712-.1318 1.5352-.1318v4.6895h1.355z"/><path d="m26.3423 25.9136c0-1.9429-1.1152-2.9746-2.6865-2.9746-1.5474 0-2.8423 1.2236-2.8423 3.1904 0 2.0269 1.0791 2.9624 2.6865 2.9624 1.5229 0 2.8423-1.2114 2.8423-3.1782zm-2.7583 2.0268c-.8516 0-1.4272-.5156-1.4272-1.8828 0-1.2236.5996-1.9673 1.415-1.9673.8755 0 1.4272.5879 1.4272 1.8472 0 1.2832-.6118 2.0029-1.415 2.0029z"/><path d="m30.0156 28.9839v-5.9365h-.7554c-.6836 0-1.4033.1079-2.1348.3237v1.0552c.5518-.0957.9712-.1318 1.5352-.1318v4.6895h1.355z"/><path d="m34.5635 24.0903c.8359 0 1.3708.5432 1.4181 1.6877.3956-.3111.8063-.5916 1.2274-.8502-.3212-1.2971-1.285-1.9889-2.5615-1.9889-1.5474 0-2.8423 1.2236-2.8423 3.1904 0 1.3978.5215 2.2651 1.3672 2.6759.2299-.3453.4759-.683.7424-1.0098-.4727-.2326-.7664-.7676-.7664-1.7379 0-1.2235.5996-1.9672 1.4151-1.9672z"/><path d="m12.6279 36.9844v-5.937h-.7554c-.6836 0-1.4033.1079-2.1348.3237v1.0552c.5518-.0957.9712-.1318 1.5352-.1318v4.6899z"/><path d="m17.104 37.0918c1.5229 0 2.8423-1.2109 2.8423-3.1777 0-1.9434-1.1152-2.9751-2.6865-2.9751-1.5474 0-2.8423 1.2236-2.8423 3.1909 0 2.0263 1.0791 2.9619 2.6865 2.9619zm.0718-5.0015c.8755 0 1.4272.5879 1.4272 1.8472 0 1.2832-.6118 2.0029-1.415 2.0029-.8516 0-1.4272-.5156-1.4272-1.8828-.0001-1.2236.5996-1.9673 1.415-1.9673z"/><path d="m23.6196 36.9844v-5.937h-.7554c-.6836 0-1.4033.1079-2.1348.3237v1.0552c.5518-.0957.9712-.1318 1.5352-.1318v4.6899z"/><path d="m28.0957 37.0918c1.5229 0 2.8423-1.2109 2.8423-3.1777 0-1.9434-1.1152-2.9751-2.6865-2.9751-1.5474 0-2.8423 1.2236-2.8423 3.1909 0 2.0263 1.0791 2.9619 2.6865 2.9619zm.0718-5.0015c.8755 0 1.4272.5879 1.4272 1.8472 0 1.2832-.6118 2.0029-1.415 2.0029-.8516 0-1.4272-.5156-1.4272-1.8828-.0001-1.2236.5996-1.9673 1.415-1.9673z"/><path d="m61.4099 49.339-8.1638-7.3851c2.7487-4.2602 2.2626-10.0015-1.4679-13.7321-4.2958-4.2958-11.2606-4.2958-15.5564 0-4.2957 4.2958-4.2957 11.2606 0 15.5563 3.7305 3.7305 9.4718 4.2166 13.7321 1.4679l7.3851 8.1639c1.0327 1.145 2.6847.9419 3.8488-.2222 1.164-1.1641 1.3672-2.8161.2221-3.8487zm-12.3894-8.3186c-2.7728 2.7728-7.2682 2.7728-10.041 0-2.7726-2.7727-2.7726-7.2681 0-10.0409 2.7728-2.7727 7.2682-2.7727 10.041 0 2.7727 2.7728 2.7727 7.2682 0 10.0409z"/></svg>