<svg height="64" viewBox="0 0 64 64" width="64" xmlns="http://www.w3.org/2000/svg"><path d="m0 0h64v64h-64z" fill="none"/><path d="m21.0963 21.3872v1.0552c.5518-.0957.9712-.1318 1.5352-.1318v4.6894h1.355v-5.9365h-.7554c-.6836 0-1.4033.1079-2.1348.3237z"/><path d="m28.6183 20.9551c-1.5474 0-2.8423 1.2236-2.8423 3.1904 0 2.0269 1.0791 2.9624 2.6865 2.9624 1.5229 0 2.8423-1.2114 2.8423-3.1782 0-1.9429-1.1152-2.9746-2.6865-2.9746zm-.0718 5.0014c-.8516 0-1.4272-.5156-1.4272-1.8828 0-1.2236.5996-1.9673 1.415-1.9673.8755 0 1.4272.5879 1.4272 1.8472 0 1.2832-.6118 2.0029-1.415 2.0029z"/><path d="m32.088 21.3872v1.0552c.5518-.0957.9712-.1318 1.5352-.1318v4.6894h1.355v-5.9365h-.7554c-.6836 0-1.4033.1079-2.1348.3237z"/><path d="m39.61 20.9551c-1.5474 0-2.8423 1.2236-2.8423 3.1904 0 2.0269 1.0791 2.9624 2.6865 2.9624 1.5229 0 2.8423-1.2114 2.8423-3.1782 0-1.9429-1.1152-2.9746-2.6865-2.9746zm-.0718 5.0014c-.8516 0-1.4272-.5156-1.4272-1.8828 0-1.2236.5996-1.9673 1.415-1.9673.8755 0 1.4272.5879 1.4272 1.8472 0 1.2832-.6118 2.0029-1.415 2.0029z"/><path d="m21.1803 32.1455c0 2.0269 1.0791 2.9624 2.6865 2.9624 1.5229 0 2.8423-1.2114 2.8423-3.1782 0-1.9429-1.1152-2.9746-2.6865-2.9746-1.5474 0-2.8423 1.2236-2.8423 3.1904zm4.1855-.1919c0 1.2832-.6118 2.0029-1.415 2.0029-.8516 0-1.4272-.5156-1.4272-1.8828 0-1.2236.5996-1.9673 1.415-1.9673.8755 0 1.4272.5879 1.4272 1.8472z"/><path d="m30.3824 35v-5.9365h-.7554c-.6836 0-1.4033.1079-2.1348.3237v1.0552c.5518-.0957.9712-.1318 1.5352-.1318v4.6894z"/><path d="m32.172 32.1455c0 2.0269 1.0791 2.9624 2.6865 2.9624 1.5229 0 2.8423-1.2114 2.8423-3.1782 0-1.9429-1.1152-2.9746-2.6865-2.9746-1.5474 0-2.8423 1.2236-2.8423 3.1904zm4.1855-.1919c0 1.2832-.6118 2.0029-1.415 2.0029-.8516 0-1.4272-.5156-1.4272-1.8828 0-1.2236.5996-1.9673 1.415-1.9673.8755 0 1.4272.5879 1.4272 1.8472z"/><path d="m41.3741 35v-5.9365h-.7554c-.6836 0-1.4033.1079-2.1348.3237v1.0552c.5518-.0957.9712-.1318 1.5352-.1318v4.6894z"/><path d="m21.0963 38.4424c.5518-.0957.9712-.1318 1.5352-.1318v4.6894h1.355v-5.9365h-.7554c-.6836 0-1.4033.1079-2.1348.3237z"/><path d="m25.776 40.1455c0 2.0269 1.0791 2.9624 2.6865 2.9624 1.5229 0 2.8423-1.2114 2.8423-3.1782 0-1.9429-1.1152-2.9746-2.6865-2.9746-1.5474 0-2.8423 1.2236-2.8423 3.1904zm2.7583-2.0391c.8755 0 1.4272.5879 1.4272 1.8472 0 1.2832-.6118 2.0029-1.415 2.0029-.8516 0-1.4272-.5156-1.4272-1.8828 0-1.2236.5996-1.9673 1.415-1.9673z"/><path d="m32.088 38.4424c.5518-.0957.9712-.1318 1.5352-.1318v4.6894h1.355v-5.9365h-.7554c-.6836 0-1.4033.1079-2.1348.3237z"/><path d="m36.7677 40.1455c0 2.0269 1.0791 2.9624 2.6865 2.9624 1.5229 0 2.8423-1.2114 2.8423-3.1782 0-1.9429-1.1152-2.9746-2.6865-2.9746-1.5474 0-2.8423 1.2236-2.8423 3.1904zm2.7583-2.0391c.8755 0 1.4272.5879 1.4272 1.8472 0 1.2832-.6118 2.0029-1.415 2.0029-.8516 0-1.4272-.5156-1.4272-1.8828 0-1.2236.5996-1.9673 1.415-1.9673z"/><path d="m51.4601 38.4077c-2.6984 8.1723-10.3953 14.0923-19.4601 14.0923-10.6876 0-19.798-8.2983-20.4393-19.3011.0485-.0458.1397-.0444.2493.132.1625.2618 1.0245 2.6849 1.0757 2.8292l2.7529 1.6225c.6578.3889 1.4984.2437 1.9912-.3378.493-.5833.4936-1.4366.0012-2.0199l-6.8933-8.1824c-.3062-.364-.7618-.569-1.2377-.5567-.4759-.0123-.9315.1927-1.2377.5567l-6.8933 8.1825c-.4924.5833-.4919 1.4366.0012 2.0199.4929.5815 1.3334.7266 1.9912.3378l3.4189-2.015c1.8268 12.2802 12.4392 21.7323 25.2197 21.7323 11.4647 0 21.1843-7.6064 24.3833-18.0369-1.4718.8964-3.3682.7906-4.9232-1.0554z"/><path d="m62.6299 27.2405c-.4929-.5815-1.3334-.7267-1.9912-.3378l-3.3377 1.9671c-1.5489-12.5883-12.3008-22.3698-25.301-22.3698-11.7655 0-21.6907 8.0119-24.619 18.8649 1.4092-1.0162 3.5554-.9909 4.9971.7207 2.5455-8.428 10.3747-14.5856 19.6219-14.5856 11.0598 0 20.1918 8.8326 20.4737 19.9804-.047.0536-.1432.0607-.2535-.131-.1353-.2352-.7562-2.1653-.9344-2.7232l-2.9244-1.7236c-.6578-.3889-1.4984-.2437-1.9912.3378-.493.5833-.4936 1.4366-.0012 2.0199l6.8933 8.1824c.3062.364.7618.569 1.2377.5568.4759.0123.9315-.1928 1.2377-.5568l6.8933-8.1824c.4925-.5832.4919-1.4365-.0011-2.0198z"/></svg>