<?xml version="1.0" encoding="utf-8"?>
<!-- Generator: Adobe Illustrator 19.2.0, SVG Export Plug-In . SVG Version: 6.00 Build 0)  -->
<svg version="1.0" xmlns="http://www.w3.org/2000/svg" xmlns:xlink="http://www.w3.org/1999/xlink" x="0px" y="0px"
	 viewBox="0 0 64 64" enable-background="new 0 0 64 64" xml:space="preserve">
<g id="achtergrond">
</g>
<g id="paneel_1">
	<g>
		<path d="M50.0258,12H13.9742C12.3315,12,11,13.3316,11,14.9742v30.0515C11,46.6683,12.3315,48,13.9742,48H26v-4H15.5094
			C14.6758,44,14,43.3242,14,42.4905V24.5094C14,23.6758,14.6758,23,15.5094,23h32.9812C49.3242,23,50,23.6758,50,24.5094v17.9811
			C50,43.3242,49.3242,44,48.4906,44H38v4h12.0258C51.6685,48,53,46.6683,53,45.0257V14.9742C53,13.3316,51.6685,12,50.0258,12z
			 M17,20h-3v-3h3V20z M22,20h-3v-3h3V20z M50,20H24v-3h26V20z"/>
		<path d="M40.3583,41.9679c0.2278-0.2651,0.342-0.5933,0.342-0.9225c0-0.3094-0.1002-0.6188-0.3033-0.8768l-6.2594-7.9276
			c-0.2678-0.3399-0.6777-0.5372-1.1097-0.5372c-0.4331,0-0.8423,0.1973-1.1102,0.5372l-6.2592,7.9276
			c-0.4192,0.5312-0.4041,1.2854,0.038,1.7993c0.4413,0.5136,1.1849,0.6409,1.7728,0.3058l3.4724-1.9802v1.9728v0.6876
			c0,4.8387-5.7646,8.1476-5.7646,8.1476c-0.7986,0.4584-0.7002,0.7878,0.2192,0.7316c0,0,9.7175-1.5129,9.7175-8.7846v-3.2501
			v-2.2182c0,0,0.1079-0.0654,0.1616,0.133c0.0667,0.2487,0.8384,3.1512,0.8384,3.1512l2.4717,1.4092
			C39.1738,42.6088,39.9169,42.4815,40.3583,41.9679z"/>
	</g>
</g>
</svg>
