<svg enable-background="new 0 0 64 64" viewBox="0 0 64 64" xmlns="http://www.w3.org/2000/svg"><path d="m50.0258 12h-36.0516c-1.6427 0-2.9742 1.3316-2.9742 2.9742v30.0515c0 1.6426 1.3315 2.9743 2.9742 2.9743h12.0258v-4h-10.4906c-.8336 0-1.5094-.6758-1.5094-1.5095v-17.9811c0-.8336.6758-1.5094 1.5094-1.5094h32.9812c.8336 0 1.5094.6758 1.5094 1.5094v17.9811c0 .8337-.6758 1.5095-1.5094 1.5095h-10.4906v4h12.0258c1.6427 0 2.9742-1.3317 2.9742-2.9743v-30.0515c0-1.6426-1.3315-2.9742-2.9742-2.9742zm-33.0258 8h-3v-3h3zm5 0h-3v-3h3zm28 0h-26v-3h26z"/><path d="m40.3583 41.9679c.2278-.2651.342-.5933.342-.9225 0-.3094-.1002-.6188-.3033-.8768l-6.2594-7.9276c-.2678-.3399-.6777-.5372-1.1097-.5372-.4331 0-.8423.1973-1.1102.5372l-6.2592 7.9276c-.4192.5312-.4041 1.2854.038 1.7993.4413.5136 1.1849.6409 1.7728.3058l3.4724-1.9802v1.9728.6876c0 4.8387-5.7646 8.1476-5.7646 8.1476-.7986.4584-.7002.7878.2192.7316 0 0 9.7175-1.5129 9.7175-8.7846v-3.2501-2.2182s.1079-.0654.1616.133c.0667.2487.8384 3.1512.8384 3.1512l2.4717 1.4092c.5883.3352 1.3314.2079 1.7728-.3057z"/></svg>