<?xml version="1.0" encoding="utf-8"?>
<!-- Generator: Adobe Illustrator 19.1.0, SVG Export Plug-In . SVG Version: 6.00 Build 0)  -->
<svg version="1.2" baseProfile="tiny" xmlns="http://www.w3.org/2000/svg" xmlns:xlink="http://www.w3.org/1999/xlink" x="0px"
	 y="0px" width="64px" height="64px" viewBox="0 0 64 64" xml:space="preserve">
<g id="_x36_4px_Box">
	<rect fill="none" width="64" height="64"/>
</g>
<g id="Icon">
	<path d="M44.9101,14c-2.6995,0-4.5712,0.81-5.8135,1.701c-2.2519,1.6151-4.5149,2.3699-7.1216,2.3699
		c-2.4444,0-4.7441-0.7007-7.0715-2.3699C23.6611,14.81,21.7894,14,19.0898,14C3.8703,14-3.3947,51,10.1091,51
		c8.8724,0,8.4266-14.0567,21.8288-14.0567C46,36.9433,44.9015,51,53.8908,51C67.3947,51,60.1297,14,44.9101,14z M24,28
		c0,0.5523-0.4477,1-1,1h-2c-0.5523,0-1,0.4477-1,1v2c0,0.5523-0.4477,1-1,1h-2c-0.5523,0-1-0.4477-1-1v-2c0-0.5523-0.4477-1-1-1h-2
		c-0.5523,0-1-0.4477-1-1v-2c0-0.5523,0.4477-1,1-1h2c0.5523,0,1-0.4477,1-1v-2c0-0.5523,0.4477-1,1-1h2c0.5523,0,1,0.4477,1,1v2
		c0,0.5523,0.4477,1,1,1h2c0.5523,0,1,0.4477,1,1V28z M47,21c1.1046,0,2,0.8954,2,2s-0.8954,2-2,2s-2-0.8954-2-2S45.8954,21,47,21z
		 M43,29c-1.1046,0-2-0.8954-2-2s0.8954-2,2-2s2,0.8954,2,2S44.1046,29,43,29z M47,33c-1.1046,0-2-0.8954-2-2s0.8954-2,2-2
		s2,0.8954,2,2S48.1046,33,47,33z M51,29c-1.1046,0-2-0.8954-2-2s0.8954-2,2-2s2,0.8954,2,2S52.1046,29,51,29z"/>
</g>
</svg>
