<svg height="64" viewBox="0 0 64 64" width="64" xmlns="http://www.w3.org/2000/svg"><path d="m0 0h64v64h-64z" fill="none"/><path d="m24.1739 38.5651c2.6086.4349 6.9566.4349 7.8261.4349s5.2175 0 7.8261-.4349c.9024-.1504 1.5888-.8368 1.739-1.739.4349-2.6086.4349-6.9566.4349-7.8261 0-2.61 0-5.2175-.4349-7.8261-.1502-.9022-.8366-1.5886-1.739-1.739-2.6086-.4349-6.9566-.4349-7.8261-.4349s-5.2175 0-7.8261.4349c-.9024.1504-1.5888.8368-1.739 1.739-.4349 2.6086-.4349 6.9566-.4349 7.8261s0 5.2175.4349 7.8261c.1502.9022.8366 1.5886 1.739 1.739zm7.8161-17.0049c.981 0 1.5417.5294 1.5417 1.5129 0 .8697-.5206 1.5505-1.5217 1.5505-.981 0-1.5417-.5485-1.5417-1.5505 0-.8511.5205-1.5129 1.5217-1.5129zm-1.3029 8.315v-3.501h2.6259v9.6279h-2.8729z"/><path d="m56 10h-48c-1.6569 0-3 1.3431-3 3v35c0 1.6569 1.3431 3 3 3h48c1.6569 0 3-1.3431 3-3v-35c0-1.6569-1.3431-3-3-3zm-9.5 39c-.8284 0-1.5-.6716-1.5-1.5s.6716-1.5 1.5-1.5 1.5.6716 1.5 1.5-.6716 1.5-1.5 1.5zm5 0c-.8284 0-1.5-.6716-1.5-1.5s.6716-1.5 1.5-1.5 1.5.6716 1.5 1.5-.6716 1.5-1.5 1.5zm3.5-5h-46v-30h46z"/></svg>