<svg height="64" viewBox="0 0 64 64" width="64" xmlns="http://www.w3.org/2000/svg"><path d="m0 0h64v64h-64z" fill="none"/><path d="m37.8934 24.1064-11.8762-2.9083 6.4436 9.7618 1.0236-2.8186 3.8641 2.4973 1.5019-2.3223-3.7205-2.4044z"/><path d="m58.5723 45.2876-5.562-8.2724-.9737-22.1353c-.0649-1.6148-1.3813-2.8799-2.9975-2.8799h-34.0782c-1.6162 0-2.9326 1.2651-2.997 2.8721l-.9741 22.1431-5.5621 8.2724c-.2802.4663-.4277.9995-.4277 1.5435v4.1689c0 1.1045.8955 2 2 2h50c1.1045 0 2-.8955 2-2v-4.1689c0-.544-.1475-1.0772-.4277-1.5435zm-33.5723.7124 2-4h10l2 4zm26.8724-9h-39.7448c-.0243-.1208.0018-.2873.2409-.3617 1.1795-.3669 2.6765-.7943 2.6765-.7943l.873-19.844h32.164l.873 19.8441s1.1595.333 2.67.7809c.2401.0712.2812.2604.2474.375z"/></svg>