<svg height="64" viewBox="0 0 64 64" width="64" xmlns="http://www.w3.org/2000/svg"><path d="m0 0h64v64h-64z" fill="none"/><path d="m13.8965 21.1921.6026 1.8079.6026-1.8079c1.037-3.1111 3.4784-5.5525 6.5895-6.5895l1.8079-.6026-1.8079-.6026c-3.1111-1.037-5.5525-3.4784-6.5895-6.5895l-.6026-1.8079-.6026 1.8079c-1.037 3.1111-3.4784 5.5525-6.5895 6.5895l-1.8079.6026 1.8079.6026c3.1111 1.037 5.5524 3.4784 6.5895 6.5895z"/><path d="m55 7h-37.6706c.9639 2.1085 2.7763 3.7607 4.9943 4.5l1.5.5h28.1763v27h-40v-17.1724l-.001-.0029c-.7964-2.3891-2.6545-4.3008-4.999-5.1945v27.3598c0 1.1045.8955 2 2 2h16.5s-.5342 1.9412-1.5 5.01c-.5779 1.8373-2.3791 1.992-2.8691 2h-2.1309c-.5527 0-1 .4478-1 1v2h28v-2c0-.5522-.4473-1-1-1h-2.1309c-.49-.008-2.2912-.1627-2.8691-2-.3881-1.233-.7027-2.2706-.9447-3.0848 0 0-4.4024-.6397-8.9772-1.5323-.3203-.0625-.2812-.2969-.2443-.3828h25.1662c1.1045 0 2-.8955 2-2v-35.0001c0-1.1045-.8955-2-2-2z"/><path d="m11.6686 7h-2.6686c-1.1045 0-2 .8955-2 2v2.3698c2.0673-.7881 3.7532-2.3672 4.6686-4.3698z"/><path d="m18.89 24.6667 1.4838.4946c1.6359.5453 2.9196 1.829 3.4649 3.4649l.4946 1.4838.4946-1.4838c.5453-1.6359 1.829-2.9196 3.4649-3.4649l1.4838-.4946-1.4838-.4946c-1.6359-.5453-2.9196-1.829-3.4649-3.4649l-.4946-1.4838-.4946 1.4838c-.5453 1.6359-1.829 2.9196-3.4649 3.4649z"/></svg>