<?xml version="1.0" encoding="utf-8"?>
<!-- Generator: Adobe Illustrator 25.0.0, SVG Export Plug-In . SVG Version: 6.00 Build 0)  -->
<svg version="1.1" xmlns="http://www.w3.org/2000/svg" xmlns:xlink="http://www.w3.org/1999/xlink" x="0px" y="0px"
	 viewBox="0 0 64 64" style="enable-background:new 0 0 64 64;" xml:space="preserve">
<style type="text/css">
	.st0{fill:none;}
	.st1{fill:#FFFFFF;}
</style>
<g id="Box">
	<rect class="st0" width="64" height="64"/>
</g>
<g id="Icon">
	<g>
		<path d="M22.436,41.968C22.096,40.802,21.027,40,19.812,40H2.043c-1.033,0-1.776,0.991-1.487,1.983L5.82,60.032
			C6.16,61.198,7.229,62,8.444,62h29.833C40.793,62,43,60.516,43,58H27.117L22.436,41.968z"/>
		<path d="M59.907,62c0,0-1.417-15.67-4.106-18.594c-2.044-2.222-7.92-4.208-10.656-5.038c-0.145-1.044-0.338-2.257-0.511-3.265
			c1.674-2.028,2.702-4.125,3.041-6.27c1.243-1.141,1.935-2.964,1.935-5.201c0-0.697,0.001-2.53-1.148-3.778
			c0.216-2.376,0.381-5.74-0.089-8.073v-0.086L58.42,7.806c0.323-0.125,0.309-0.586-0.02-0.692L37.077,1.236
			c-0.293-0.095-0.609-0.095-0.902,0L14.852,7.115c-0.329,0.106-0.342,0.567-0.02,0.692l3.174,1.228v4.577
			c-0.448,0.403-0.734,0.981-0.734,1.631c0,0.561,0.217,1.068,0.562,1.457c-1.052,1.653-2.346,4.439-2.419,5.712
			c-0.086,1.512,1.857,2.143,2.807,2.315c0.95,0.173,3.196,0.06,3.412-1.797c0.168-1.445-0.421-4.651-0.691-6.005v-0.051
			c0.448-0.403,0.734-0.981,0.734-1.631c0-0.65-0.287-1.228-0.734-1.631v-3.44l0.391,0.151v-0.001l8.519,3.303
			c0,0.063-0.033,0.284-0.384,0.264l-4.89-0.779c-0.325,2.17-0.236,4.842-0.08,6.82c-1.085,1.247-1.089,3.019-1.089,3.702
			c0,2.233,0.69,4.052,1.929,5.194c0.357,2.351,1.51,4.599,3.473,6.797c-0.099,0.755-0.214,1.638-0.33,2.556
			c-0.375,0.11-3.15,0.909-5.092,1.482c0.433,0.501,0.775,1.086,0.968,1.747L28.616,56h3.026c0.103-1.713,2.434-3.085,5.314-3.085
			c2.88,0,5.211,1.372,5.314,3.085H43c1.104,0,2,0.895,2,2c0,1.567-0.612,2.953-1.638,4H59.907z M39.989,35.521
			c-0.731,0.622-2.106,1.036-3.481,1.035c-0.995-0.001-1.989-0.268-2.74-0.594c0.575,0.871,1.549,1.941,3.355,2.419
			c2.953,0.781,5.11-0.855,5.11-0.855s0.265,1.791,0.257,2.261c0.306,3.265-5.625,6.047-5.625,6.047s-6.169-2.727-5.764-5.995
			c0.222-1.79,0.038-0.514,0.771-5.089c-2.131-2.059-3.841-4.555-3.841-7.544c-1.514-0.471-1.911-2.382-1.911-3.574
			c0-1.191,0.301-1.835,0.724-2.035c0.367-0.173,0.723-0.045,0.948,0.083c0.132,0.611,0.236,1.065,0.274,1.226
			c0.193,0.797,0.961,0.723,0.961,0.723v-3.859c2.049,0.762,4.698,1.224,7.598,1.224c2.796,0,5.36-0.429,7.377-1.142v3.777
			c0,0,0.762,0.073,0.955-0.723c0.039-0.16,0.137-0.615,0.27-1.226c0.225-0.128,0.58-0.255,0.947-0.083
			c0.423,0.2,0.724,0.844,0.724,2.035c0,1.191-0.397,3.102-1.911,3.574C44.987,30.671,42.616,33.285,39.989,35.521z"/>
	</g>
</g>
</svg>
