<?xml version="1.0" encoding="utf-8"?>
<!-- Generator: Adobe Illustrator 25.0.0, SVG Export Plug-In . SVG Version: 6.00 Build 0)  -->
<svg version="1.1" xmlns="http://www.w3.org/2000/svg" xmlns:xlink="http://www.w3.org/1999/xlink" x="0px" y="0px"
	 viewBox="0 0 64 64" style="enable-background:new 0 0 64 64;" xml:space="preserve">
<style type="text/css">
	.st0{fill:none;}
	.st1{fill:#FFFFFF;}
</style>
<g id="Box">
	<rect class="st0" width="64" height="64"/>
</g>
<g id="Icon">
	<g>
		<path d="M30.134,45.715c1.473-1.553,4.628-2.813,7.544-3.715H6V16h35v3.708c0.538-0.206,1.113-0.396,1.738-0.566
			c0.861-0.235,1.6-0.322,2.262-0.327V14c0-1.105-0.896-2-2-2H4c-1.104,0-2,0.895-2,2v30c0,1.105,0.896,2,2,2h25.898
			C29.976,45.904,30.052,45.801,30.134,45.715z"/>
		<path d="M59.359,47.23c-1.497-1.577-6.127-2.976-8.195-3.541c-0.965-0.264-1.115-1.243-1.218-2.243
			c1.313-1.467,2.288-3.24,2.618-5.582c1.256-0.387,1.508-1.956,1.508-2.934c0-0.977-0.172-1.507-0.523-1.67
			c-0.169-0.079-0.335-0.078-0.482-0.047c0.126-2.037,0.252-6.073-0.597-7.589c-0.928-1.658-2.163-2.088-4.313-1.546
			c-1.41-0.748-2.371-1.488-4.842-0.815c-1.717,0.468-3.596,1.232-4.586,2.508c-1.068,1.376-0.862,5.39-0.682,7.452
			c-0.159-0.044-0.346-0.051-0.535,0.037c-0.351,0.164-0.523,0.693-0.523,1.67c0,0.978,0.251,2.546,1.508,2.934
			c0.297,2.471,1.289,4.185,2.615,5.613c-0.092,0.855-0.183,1.681-0.934,2.086c-1.646,0.445-6.818,1.947-8.45,3.666
			c-1.942,2.045-2.698,9.676-2.698,9.676h33C62.031,56.906,61.301,49.275,59.359,47.23z"/>
		<path d="M29.344,25.524h-0.002c-0.357,0.134-1.027,0.396-1.627,0.693c-0.458,0.221-0.875,0.461-1.083,0.681
			c-0.226,0.238-0.373,0.662-0.468,1.102h9.673c-0.095-0.44-0.241-0.864-0.468-1.102c-0.209-0.22-0.625-0.46-1.083-0.681
			c-0.6-0.297-1.27-0.559-1.627-0.693c-0.136-0.051-0.223-0.177-0.247-0.321c-0.03-0.179-0.063-0.443-0.09-0.667
			c0.905-0.037,1.653-0.126,1.964-0.244c0.062-0.023,0.093-0.08,0.065-0.14c-0.17-0.371-0.613-1.593-0.668-2.23
			c-0.136-1.566-0.131-4.367-2.276-3.664c0,0-1.362-0.87-2.468,0.586c-0.778,1.024-0.589,2.375-0.62,3.128
			c-0.022,0.536-0.46,1.772-0.645,2.093c-0.039,0.068-0.026,0.137,0.048,0.164c0.334,0.121,1.086,0.215,1.969,0.271
			c-0.025,0.224-0.059,0.502-0.099,0.704C29.563,25.346,29.48,25.473,29.344,25.524z"/>
		<path d="M20.501,26.543c-0.488-0.514-1.996-0.969-2.669-1.153c-0.314-0.086-0.363-0.405-0.397-0.73
			c0.428-0.478,0.745-1.055,0.853-1.818c0.409-0.126,0.491-0.637,0.491-0.956c0-0.318-0.056-0.491-0.171-0.544
			c-0.055-0.026-0.109-0.025-0.157-0.015c0.041-0.663,0.082-1.978-0.194-2.472c-0.302-0.54-0.704-0.68-1.405-0.503
			c-0.459-0.244-0.772-0.485-1.577-0.265c-0.559,0.152-1.171,0.401-1.494,0.817c-0.348,0.448-0.281,1.756-0.222,2.427
			c-0.052-0.014-0.113-0.017-0.174,0.012c-0.115,0.053-0.171,0.226-0.171,0.544c0,0.319,0.082,0.829,0.491,0.956
			c0.097,0.805,0.42,1.363,0.852,1.828c-0.03,0.279-0.06,0.547-0.304,0.679c-0.536,0.145-2.22,0.634-2.752,1.194
			c-0.262,0.276-0.456,0.863-0.596,1.457h10.188C20.957,27.406,20.763,26.819,20.501,26.543z"/>
		<path d="M14.344,37.524h-0.002c-0.357,0.134-1.027,0.396-1.627,0.693c-0.458,0.221-0.875,0.461-1.083,0.681
			c-0.226,0.238-0.373,0.662-0.468,1.102h9.673c-0.095-0.44-0.241-0.864-0.468-1.102c-0.209-0.22-0.625-0.46-1.083-0.681
			c-0.6-0.297-1.27-0.559-1.627-0.693c-0.136-0.051-0.223-0.177-0.247-0.321c-0.03-0.179-0.063-0.443-0.09-0.667
			c0.905-0.037,1.653-0.126,1.964-0.244c0.062-0.023,0.093-0.08,0.065-0.14c-0.17-0.371-0.613-1.593-0.668-2.23
			c-0.136-1.566-0.131-4.367-2.276-3.664c0,0-1.362-0.87-2.468,0.586c-0.778,1.024-0.589,2.375-0.62,3.128
			c-0.022,0.536-0.46,1.772-0.645,2.093c-0.039,0.068-0.026,0.137,0.048,0.164c0.334,0.121,1.086,0.215,1.969,0.271
			c-0.025,0.224-0.059,0.502-0.099,0.704C14.563,37.346,14.48,37.473,14.344,37.524z"/>
		<path d="M36.094,40c-0.137-0.594-0.331-1.181-0.593-1.457c-0.488-0.514-1.996-0.969-2.669-1.153
			c-0.314-0.086-0.363-0.405-0.397-0.73c0.428-0.478,0.745-1.055,0.853-1.818c0.409-0.126,0.491-0.637,0.491-0.956
			c0-0.318-0.056-0.491-0.171-0.544c-0.055-0.026-0.109-0.025-0.157-0.015c0.041-0.663,0.082-1.978-0.194-2.472
			c-0.302-0.54-0.704-0.68-1.405-0.503c-0.459-0.244-0.772-0.485-1.577-0.265c-0.559,0.152-1.171,0.401-1.494,0.817
			c-0.348,0.448-0.281,1.756-0.222,2.427c-0.052-0.014-0.113-0.017-0.174,0.012c-0.115,0.053-0.171,0.226-0.171,0.544
			c0,0.319,0.082,0.829,0.491,0.956c0.097,0.805,0.42,1.363,0.852,1.828c-0.03,0.279-0.06,0.547-0.304,0.679
			c-0.536,0.145-2.22,0.634-2.752,1.194c-0.262,0.276-0.456,0.863-0.596,1.457H36.094z"/>
	</g>
</g>
</svg>
