<svg height="64" viewBox="0 0 64 64" width="64" xmlns="http://www.w3.org/2000/svg"><path d="m0 0h64v64h-64z" fill="none"/><path d="m45 13h-26c-1.1045 0-2 .8954-2 2v5c0 1.1046.8955 2 2 2h26c1.1045 0 2-.8954 2-2v-5c0-1.1046-.8955-2-2-2zm-23.5 5c-.8284 0-1.5-.6716-1.5-1.5s.6716-1.5 1.5-1.5 1.5.6716 1.5 1.5-.6716 1.5-1.5 1.5zm18.5 2h-2v-2h2zm4 0h-2v-2h2z"/><path d="m11 7v48h4v-44h34v44h4v-48z"/><path d="m45 24h-26c-1.1045 0-2 .8954-2 2v5c0 1.1046.8955 2 2 2h26c1.1045 0 2-.8954 2-2v-5c0-1.1046-.8955-2-2-2zm-23.5 5c-.8284 0-1.5-.6716-1.5-1.5s.6716-1.5 1.5-1.5 1.5.6716 1.5 1.5-.6716 1.5-1.5 1.5zm18.5 2h-2v-2h2zm4 0h-2v-2h2z"/><path d="m45 35h-26c-1.1045 0-2 .8954-2 2v5c0 1.1046.8955 2 2 2h26c1.1045 0 2-.8954 2-2v-5c0-1.1046-.8955-2-2-2zm-23.5 5c-.8284 0-1.5-.6716-1.5-1.5s.6716-1.5 1.5-1.5 1.5.6716 1.5 1.5-.6716 1.5-1.5 1.5zm18.5 2h-2v-2h2zm4 0h-2v-2h2z"/><path d="m45 46h-26c-1.1045 0-2 .8954-2 2v5c0 1.1046.8955 2 2 2h26c1.1045 0 2-.8954 2-2v-5c0-1.1046-.8955-2-2-2zm-23.5 5c-.8284 0-1.5-.6716-1.5-1.5s.6716-1.5 1.5-1.5 1.5.6716 1.5 1.5-.6716 1.5-1.5 1.5zm18.5 2h-2v-2h2zm4 0h-2v-2h2z"/></svg>