<svg enable-background="new 0 0 64 64" viewBox="0 0 64 64" xmlns="http://www.w3.org/2000/svg"><path d="m0 0h64v64h-64z" fill="none"/><path d="m21.1 14.2h22v27.5l4 4c0-11.2 0-22.5 0-33.7 0-1.9-1.4-3.7-3.4-4-7.7-1.1-15.4-1.1-23.1 0-2 .3-3.5 2.1-3.5 4v3.7l4 4z"/><path d="m57.1 58.8-50.6-50.6-2.1 2.1 12.8 12.8v29.3c0 1.9 1.6 3.7 3.6 4 7.7 1.1 15.3 1.1 23 0 1.7-.3 3.1-1.7 3.4-3.3l7.9 7.9zm-25-4.4c-1.5 0-2.7-1.2-2.7-2.7s1.2-2.7 2.7-2.7 2.7 1.2 2.7 2.7-1.2 2.7-2.7 2.7zm-11-8.2v-19.1l19.1 19.1z"/></svg>