<?xml version="1.0" encoding="utf-8"?>
<!-- Generator: Adobe Illustrator 19.1.0, SVG Export Plug-In . SVG Version: 6.00 Build 0)  -->
<svg version="1.2" baseProfile="tiny" xmlns="http://www.w3.org/2000/svg" xmlns:xlink="http://www.w3.org/1999/xlink" x="0px"
	 y="0px" width="64px" height="64px" viewBox="0 0 64 64" xml:space="preserve">
<g id="_x36_4px_Box">
	<rect fill="none" width="64" height="64"/>
</g>
<g id="Icon">
	<g>
		<path d="M42,19V6c0-1.7-1.3-3-3-3s-3,1.3-3,3v13h-8V6c0-1.7-1.3-3-3-3s-3,1.3-3,3v13h-5v39c0,1.7,1.3,3,3,3h24c1.7,0,3-1.3,3-3V19
			H42z M40.2,35.2H39v1.8c0,0.9-0.4,1.7-1.1,2.3L33,43.5v7.2c1,0.4,1.8,1.4,1.8,2.6c0,1.5-1.2,2.8-2.8,2.8s-2.8-1.2-2.8-2.8
			c0-1.2,0.7-2.2,1.8-2.6v-2.2l-4.9-4.1C25.4,43.8,25,43,25,42.1v-2.8c-1-0.4-1.8-1.4-1.8-2.6c0-1.5,1.2-2.8,2.8-2.8
			s2.8,1.2,2.8,2.8c0,1.2-0.7,2.2-1.8,2.6v2.8c0,0.3,0.1,0.6,0.4,0.8l3.6,3V28h-2l3-5.4l3,5.4h-2v12.9l3.6-3
			c0.2-0.2,0.4-0.5,0.4-0.8v-1.8h-1.2v-4.5h4.5V35.2z"/>
	</g>
</g>
</svg>
