<svg height="64" viewBox="0 0 64 64" width="64" xmlns="http://www.w3.org/2000/svg"><path d="m0 0h64v64h-64z" fill="none"/><path d="m42 19v-13c0-1.7-1.3-3-3-3s-3 1.3-3 3v13h-8v-13c0-1.7-1.3-3-3-3s-3 1.3-3 3v13h-5v39c0 1.7 1.3 3 3 3h24c1.7 0 3-1.3 3-3v-39zm-1.8 16.2h-1.2v1.8c0 .9-.4 1.7-1.1 2.3l-4.9 4.2v7.2c1 .4 1.8 1.4 1.8 2.6 0 1.5-1.2 2.8-2.8 2.8s-2.8-1.2-2.8-2.8c0-1.2.7-2.2 1.8-2.6v-2.2l-4.9-4.1c-.7-.6-1.1-1.4-1.1-2.3v-2.8c-1-.4-1.8-1.4-1.8-2.6 0-1.5 1.2-2.8 2.8-2.8s2.8 1.2 2.8 2.8c0 1.2-.7 2.2-1.8 2.6v2.8c0 .3.1.6.4.8l3.6 3v-17.9h-2l3-5.4 3 5.4h-2v12.9l3.6-3c.2-.2.4-.5.4-.8v-1.8h-1.2v-4.5h4.5v4.4z"/></svg>