<svg height="64" viewBox="0 0 64 64" width="64" xmlns="http://www.w3.org/2000/svg"><path d="m0 0h64v64h-64z" fill="none"/><path d="m35.5 40.3c.5-.1.6-.8.2-1.1l-8-5.3c-.4-.2-.8.1-.7.5l2.2 9c.1.5.7.6 1.1.2l1.1-1.4 2.8 3.7 2.2-1.7-2.7-3.5zm-16-6.3 1.2-3.8 1 3.8h2.3l1.8-7h-1.8l-1 5.6h-.1l-1.5-5.6h-1.7l.4 1.3-1.4 4.3h-.1l-1.1-5.6h-2l1.8 7zm34.5-22h-44c-1.7 0-3 1.3-3 3v34c0 1.7 1.3 3 3 3h44c1.7 0 3-1.3 3-3v-34c0-1.7-1.3-3-3-3zm-37.5 2c.8 0 1.5.7 1.5 1.5s-.7 1.5-1.5 1.5-1.5-.7-1.5-1.5.7-1.5 1.5-1.5zm-5 0c.8 0 1.5.7 1.5 1.5s-.7 1.5-1.5 1.5-1.5-.7-1.5-1.5.7-1.5 1.5-1.5zm42.5 35h-44v-30h44zm-23.1-15.4 1.1-3.5 1 3.8h2.3l1.8-7h-1.8l-1.1 5.6h-.1l-1.4-5.5h-1.7l.4 1.3-1.4 4.3h-.1l-1.1-5.6h-2l1.2 4.7zm11.2.4 1.2-3.8 1 3.8h2.3l1.8-7h-1.8l-1.1 5.6h-.1l-1.4-5.6h-1.7l.4 1.3-1.4 4.3h-.1l-1.1-5.6h-2l1.8 7z"/></svg>