<svg enable-background="new 0 0 64 64" viewBox="0 0 64 64" xmlns="http://www.w3.org/2000/svg"><path d="m0 0h64v64h-64z" fill="none"/><path d="m60.268 20.303c-7.355-7.004-17.31-11.303-28.268-11.303s-20.913 4.299-28.268 11.303c-.405.386-.404 1.037-.009 1.432l2.83 2.83c.385.385.999.383 1.394.01 6.272-5.935 14.737-9.575 24.053-9.575s17.781 3.64 24.053 9.575c.395.374 1.01.375 1.394-.01l2.83-2.83c.395-.395.396-1.046-.009-1.432z"/><path d="m32 21c-7.643 0-14.595 2.957-19.776 7.789-.411.383-.409 1.038-.012 1.435l2.828 2.828c.384.384.996.382 1.396.014 4.095-3.766 9.561-6.066 15.564-6.066s11.469 2.3 15.565 6.066c.4.368 1.011.37 1.396-.014l2.828-2.828c.397-.397.398-1.052-.012-1.435-5.182-4.832-12.134-7.789-19.777-7.789z"/><path d="m32 33c-4.308 0-8.242 1.603-11.238 4.245-.438.386-.471 1.059-.058 1.472l2.835 2.835c.359.359.941.404 1.328.075 1.921-1.638 4.412-2.627 7.133-2.627s5.212.989 7.132 2.626c.387.33.969.285 1.328-.075l2.835-2.835c.413-.413.381-1.085-.058-1.472-2.995-2.641-6.929-4.244-11.237-4.244z"/><circle cx="32" cy="50" r="5"/></svg>