<svg enable-background="new 0 0 64 64" viewBox="0 0 64 64" xmlns="http://www.w3.org/2000/svg"><path d="m0 0h64v64h-64z" fill="none"/><path d="m7 47v-30h44v11.399l2.613-2.613c.119-.119.255-.214.387-.314v-12.472c0-1.657-1.343-3-3-3h-44c-1.657 0-3 1.343-3 3v34c0 1.657 1.343 3 3 3h25.374l.949-3zm6.5-35c.828 0 1.5.672 1.5 1.5s-.672 1.5-1.5 1.5-1.5-.672-1.5-1.5.672-1.5 1.5-1.5zm-5 0c.828 0 1.5.672 1.5 1.5s-.672 1.5-1.5 1.5-1.5-.672-1.5-1.5.672-1.5 1.5-1.5z"/><path d="m51 50c1.657 0 3-1.343 3-3v-1.55l-4.55 4.55z"/><path d="m60.467 28.958c-1.906-1.906-4.283-2.631-5.298-1.616l-19.482 19.483-2.847 8.995c-.149.471.294.914.765.765l8.996-2.847 19.482-19.482c1.015-1.015.29-3.392-1.616-5.298zm-23.838 24.572-.734-.734 1.425-4.504.917.521.719 1.655 1.574.684.587.957z"/><path d="m36.826 22.435c-2.609-.435-6.956-.435-7.826-.435s-5.218 0-7.826.435c-.902.15-1.589.837-1.739 1.739-.435 2.609-.435 6.957-.435 7.826s0 5.217.435 7.826c.15.902.837 1.589 1.739 1.739 2.608.435 6.956.435 7.826.435s5.217 0 7.826-.435c.902-.15 1.589-.837 1.739-1.739.435-2.608.435-6.956.435-7.826 0-2.61 0-5.217-.435-7.826-.15-.902-.836-1.588-1.739-1.739zm-3.635 14.558h-2.809l-1.398-4.732-1.424 4.732h-2.78l-2.604-9.986h2.459l1.728 7.248 1.616-4.946-.713-2.301h2.376l2.155 7.19 1.728-7.19h2.3z"/></svg>