<svg enable-background="new 0 0 64 64" height="64" viewBox="0 0 64 64" width="64" xmlns="http://www.w3.org/2000/svg"><path d="m0 0h64v64h-64z" fill="none"/><path d="m37 8h-32c-1.1 0-2 .9-2 2v47h36v-47c0-1.1-.9-2-2-2zm-23 33h-6v-6h6zm0-10h-6v-6h6zm0-10h-6v-6h6zm10 20h-6v-6h6zm0-10h-6v-6h6zm0-10h-6v-6h6zm10 20h-6v-6h6zm0-10h-6v-6h6zm0-10h-6v-6h6z"/><path d="m41 8h4v49h-4z"/><path d="m52.6 28c-.3.4-.2 1 .2 1.3.2.2.5.3.7.3s.4-.1.5-.2l6.6-5.6c.2-.2.4-.5.4-.8s-.1-.6-.4-.8l-6.6-5.6c-.2-.1-.3-.2-.5-.2-.3 0-.5.1-.7.3-.4.3-.4.9-.1 1.3l1.9 3h-7.6v4h7.5z"/><path d="m55.4 37c.3-.4.2-1-.1-1.3-.2-.2-.5-.3-.7-.3s-.4.1-.5.2l-6.6 5.6c-.4.2-.5.4-.5.8 0 .3.1.6.4.8l6.6 5.6c.2.1.3.2.5.2.3 0 .5-.1.7-.3.4-.3.4-.9.2-1.3l-1.9-3h7.5v-4h-7.5z"/></svg>