<?xml version="1.0" encoding="utf-8"?>
<!-- Generator: Adobe Illustrator 19.1.0, SVG Export Plug-In . SVG Version: 6.00 Build 0)  -->
<svg version="1.2" baseProfile="tiny" xmlns="http://www.w3.org/2000/svg" xmlns:xlink="http://www.w3.org/1999/xlink" x="0px"
	 y="0px" width="64px" height="64px" viewBox="0 0 64 64" xml:space="preserve">
<g id="Box">
	<rect fill="none" width="64" height="64"/>
</g>
<g id="Icon">
	<g>
		<path d="M32.0464,38.0457h-0.8141v6.9h0.9664c2.3112,0,3.4823-1.2299,3.4823-3.6564
			C35.681,39.1976,34.3906,38.0457,32.0464,38.0457z"/>
		<polygon points="21.1734,42.7706 23.606,42.7706 22.4117,38.2963 		"/>
		<path d="M61.2248,30.2057L32.8126,3.3202c-0.4594-0.4269-1.1659-0.4269-1.6254,0L2.7752,30.2057
			C2.2813,30.6652,2,31.3124,2,31.9904v1.7968C2,34.4569,2.5374,35,3.2,35H8v25h48V35h4.8c0.6626,0,1.2-0.5431,1.2-1.2128v-1.7968
			C62,31.3124,61.7187,30.6652,61.2248,30.2057z M24.8716,47.1508l-0.7139-2.3832h-3.5049l-0.7139,2.3832h-2.5283l0.0771-0.2529
			l3.3564-11.0981h3.376l3.3984,11.351H24.8716z M32.1143,47.1508h-3.3067v-11.351h3.3736c3.8297,0,6.0264,1.9529,6.0264,5.3581
			C38.2076,45.0223,36.0439,47.1508,32.1143,47.1508z M46.0818,47.1508H39.783v-11.351h2.4404v9.1817h3.8584V47.1508z"/>
	</g>
</g>
</svg>
