<svg height="64" viewBox="0 0 64 64" width="64" xmlns="http://www.w3.org/2000/svg"><path d="m0 0h64v64h-64z" fill="none"/><path d="m54.6799 18.7668c-.6652 2.8513-1.3398 6.6763-1.8404 9.7318.4058.1675.8004.4033 1.1742.7226 2.1583 1.8433 2.384 4.8245.7005 7.8059-3.8063 6.7406-7.9808 9.7905-8.8528 10.42-.2504.1807-.3872.1325-.4842.0413-.0002-.0018-.0017-.0143-.0017-.0143 3.79-4.2266 5.7974-7.1296 7.5137-11.1797 1.302-3.0728.6015-4.9219-.5143-5.589-1.0902-.6522-2.2183-.2977-3.3542 1.3806-3.8644 5.7094-6.6564 8.7136-10.5238 13.2587-2.6877 3.1588-4.5248 7.0773-4.4868 11.0805.0241 2.5467.1862 3.9399.2881 4.5749h13.4996l1.1437-6.4998c.1595-.9066.5661-1.7512 1.1749-2.4414l7.3868-7.4788c1.5349-1.7396 2.417-3.9587 2.4956-6.2773l.0012-24.1752s-3.9382-1.285-5.3201 4.6392z"/><path d="m14.9794 32.0859c-1.1359-1.6783-2.264-2.0327-3.3542-1.3806-1.1158.6671-1.8163 2.5162-.5143 5.589 1.7162 4.0501 3.7236 6.9532 7.5137 11.1797 0 0-.0015.0125-.0017.0143-.097.0912-.2338.1394-.4842-.0413-.8719-.6295-5.0465-3.6794-8.8528-10.42-1.6835-2.9814-1.4578-5.9626.7005-7.8059.3738-.3193.7684-.5551 1.1742-.7226-.5006-3.0555-1.1752-6.8806-1.8404-9.7318-1.382-5.9241-5.3202-4.6391-5.3202-4.6391l.0012 24.175c.0786 2.3187.9608 4.5377 2.4956 6.2773l7.3868 7.4788c.6088.6902 1.0154 1.5349 1.1749 2.4414l1.1437 6.4999h13.4996c.102-.6349.264-2.0282.2881-4.5749.038-4.0032-1.7991-7.9217-4.4868-11.0805-3.8674-4.5452-6.6593-7.5494-10.5237-13.2587z"/><path d="m45 34v-15h3c.5523 0 1-.4477 1-1v-1.0975c0-.5738-.2465-1.12-.6768-1.4997l-15.6616-13.819c-.3781-.3336-.9452-.3336-1.3232 0l-15.6616 13.819c-.4303.3797-.6768.9259-.6768 1.4997v1.0975c0 .5523.4477 1 1 1h3v15h4v-12h8v12zm-10-12h6v6h-6z"/></svg>