<?xml version="1.0" encoding="utf-8"?>
<!-- Generator: Adobe Illustrator 18.1.0, SVG Export Plug-In . SVG Version: 6.00 Build 0)  -->
<svg version="1.2" baseProfile="tiny" xmlns="http://www.w3.org/2000/svg" xmlns:xlink="http://www.w3.org/1999/xlink" x="0px"
	 y="0px" width="64px" height="64px" viewBox="0 0 64 64" xml:space="preserve">
<g id="Box">
	<rect fill="none" width="64" height="64"/>
</g>
<g id="Icon">
	<g>
		<path d="M54.6799,18.7668c-0.6652,2.8513-1.3398,6.6763-1.8404,9.7318c0.4058,0.1675,0.8004,0.4033,1.1742,0.7226
			c2.1583,1.8433,2.384,4.8245,0.7005,7.8059c-3.8063,6.7406-7.9808,9.7905-8.8528,10.42
			c-0.2504,0.1807-0.3872,0.1325-0.4842,0.0413c-0.0002-0.0018-0.0017-0.0143-0.0017-0.0143
			c3.79-4.2266,5.7974-7.1296,7.5137-11.1797c1.302-3.0728,0.6015-4.9219-0.5143-5.589c-1.0902-0.6522-2.2183-0.2977-3.3542,1.3806
			c-3.8644,5.7094-6.6564,8.7136-10.5238,13.2587c-2.6877,3.1588-4.5248,7.0773-4.4868,11.0805
			c0.0241,2.5467,0.1862,3.9399,0.2881,4.5749h13.4996l1.1437-6.4998c0.1595-0.9066,0.5661-1.7512,1.1749-2.4414l7.3868-7.4788
			c1.5349-1.7396,2.417-3.9587,2.4956-6.2773L60,14.1276C60,14.1276,56.0618,12.8426,54.6799,18.7668z"/>
		<path d="M14.9794,32.0859c-1.1359-1.6783-2.264-2.0327-3.3542-1.3806c-1.1158,0.6671-1.8163,2.5162-0.5143,5.589
			c1.7162,4.0501,3.7236,6.9532,7.5137,11.1797c0,0-0.0015,0.0125-0.0017,0.0143c-0.097,0.0912-0.2338,0.1394-0.4842-0.0413
			c-0.8719-0.6295-5.0465-3.6794-8.8528-10.42c-1.6835-2.9814-1.4578-5.9626,0.7005-7.8059
			c0.3738-0.3193,0.7684-0.5551,1.1742-0.7226c-0.5006-3.0555-1.1752-6.8806-1.8404-9.7318C7.9382,12.8426,4,14.1276,4,14.1276
			l0.0012,24.175c0.0786,2.3187,0.9608,4.5377,2.4956,6.2773l7.3868,7.4788c0.6088,0.6902,1.0154,1.5349,1.1749,2.4414L16.2022,61
			h13.4996c0.102-0.6349,0.264-2.0282,0.2881-4.5749c0.038-4.0032-1.7991-7.9217-4.4868-11.0805
			C21.6357,40.7994,18.8438,37.7952,14.9794,32.0859z"/>
		<path d="M45,34V19h3c0.5523,0,1-0.4477,1-1v-1.0975c0-0.5738-0.2465-1.12-0.6768-1.4997L32.6616,1.5838
			c-0.3781-0.3336-0.9452-0.3336-1.3232,0l-15.6616,13.819C15.2465,15.7825,15,16.3287,15,16.9025V18c0,0.5523,0.4477,1,1,1h3v15h4
			V22h8v12H45z M35,22h6v6h-6V22z"/>
	</g>
</g>
</svg>
