<?xml version="1.0" encoding="utf-8"?>
<!-- Generator: Adobe Illustrator 22.1.0, SVG Export Plug-In . SVG Version: 6.00 Build 0)  -->
<!DOCTYPE svg PUBLIC "-//W3C//DTD SVG 1.1//EN" "http://www.w3.org/Graphics/SVG/1.1/DTD/svg11.dtd">
<svg version="1.1" xmlns="http://www.w3.org/2000/svg" xmlns:xlink="http://www.w3.org/1999/xlink" x="0px" y="0px" width="64px"
	 height="64px" viewBox="0 0 64 64" style="enable-background:new 0 0 64 64;" xml:space="preserve">
<style type="text/css">
	.st0{fill:none;}
</style>
<g id="Box">
	<rect class="st0" width="64" height="64"/>
</g>
<g id="Icon">
	<g>
		<g>
			<path d="M52,33.2V32c0-0.5-0.2-0.9-0.5-1.2L32.5,12.9c-0.3-0.3-0.8-0.3-1.1,0L12.5,30.8C12.2,31.1,12,31.5,12,32v1.2
				c0,0.4,0.4,0.8,0.8,0.8H16v16.9h32V34h3.2C51.6,34,52,33.6,52,33.2z M34,44.9c-0.7,0.4-1.6,0.6-2.4,0.4l-3.7-0.8
				c-0.3-0.1-0.7,0-1,0.1l-2.7,1.1l-2.1-4c0,0,0.3-0.3,1.4-1.1c1.2-0.8,2.6-1.1,4.1-0.9c1,0.2,1.9,0.2,2.9,0.2c0.9,0,1.9,0,3.1,0.1
				c0.7,0,1,0.3,1.1,0.8c0,0.5-0.4,0.8-1,1c-1.7,0.6-5,0.3-5.4,0.3c0,0.1,0,0.3,0.2,0.4c0.4,0.1,2,0.8,4.8,0.7
				c1.1-0.1,2.9-0.8,2.6-2.4c1.1-0.3,1.8-0.5,2.8-0.7c2.1-0.6,2.4,0.7,2.4,0.7L34,44.9z M43,37c0,0.6-0.4,1-1,1H22c-0.6,0-1-0.4-1-1
				v-1h2c0-4.7,3.6-8.6,8.3-9c-0.3-0.2-0.5-0.6-0.5-1c0-0.7,0.6-1.2,1.2-1.2s1.2,0.6,1.2,1.2c0,0.4-0.2,0.8-0.5,1
				c4.6,0.4,8.3,4.2,8.3,9h2V37z M10,33.2V32c0-1,0.4-2,1.2-2.7l10-9.4l-3.9-3.7c-0.2-0.2-0.6-0.2-0.9,0l-15,14.2
				C1.1,30.6,1,30.9,1,31.3v0.9c0,0.4,0.3,0.6,0.6,0.6h2.5V46H14V36h-1.2C11.3,36,10,34.7,10,33.2z M62.6,30.3l-15-14.2
				c-0.2-0.2-0.6-0.2-0.9,0l-3.9,3.7l10,9.5C53.6,30,54,31,54,32v1.2c0,1.5-1.3,2.8-2.8,2.8H50v10h9.8V32.8h2.5
				c0.3,0,0.6-0.3,0.6-0.6v-0.9C63,30.9,62.8,30.6,62.6,30.3z"/>
		</g>
	</g>
</g>
</svg>
