<svg enable-background="new 0 0 64 64" height="64" viewBox="0 0 64 64" width="64" xmlns="http://www.w3.org/2000/svg"><path d="m0 0h64v64h-64z" fill="none"/><path d="m61.2 30.2-28.4-26.9c-.5-.4-1.2-.4-1.6 0l-28.4 26.9c-.5.5-.8 1.1-.8 1.8v1.8c0 .7.5 1.2 1.2 1.2h4.8v25h48v-25h4.8c.7 0 1.2-.5 1.2-1.2v-1.8c0-.7-.3-1.3-.8-1.8zm-10.5 11.2c-1.9 1.8-6.1 3.9-11.2 4.3 3.5 2.5 5 5 5.3 5.7 0 .1 0 .2-.1.2-2.3.2-6.8-.8-11.1-3.7l.9 7.6c0 .8-.5 1.4-1.2 1.6-1.1.2-1.9.1-2.6 0s-1.2-.8-1.2-1.5c.2-5 .5-9.6.9-14 0 0-.2 0-.4.3s-1.3 3.1-1.9 7.3c0 0 0 0-.2.1-4.5 2.4-7.8 2.3-8.7 2.3-.1 0-.2-.1-.1-.2.4-.7 1.9-3.2 5.3-5.7-6-.5-9.9-3.2-11.2-4.3-.1-.1 0-.2 0-.2 2.1-.9 6.2-1.5 10.6-.6-5.1-5-7.8-11.2-8.1-14.7 0-.1.1-.2.2-.1 2.6.7 7.4 3.5 11.5 8.4 0-8.4 3-14.2 4.4-16.1.1-.1.2-.1.2 0 1.8 2.4 4.4 8.4 4.4 16.1 4.6-5.6 9.5-7.9 11.5-8.4.1 0 .2 0 .2.1-.4 3.6-3.1 9.7-8.1 14.7 4.6-.9 8.7-.3 10.6.6.1.1.1.2.1.2z"/></svg>