<svg height="64" viewBox="0 0 64 64" width="64" xmlns="http://www.w3.org/2000/svg"><path d="m0 0h64v64h-64z" fill="none"/><path d="m54.8333 39.6666c0-2.9269-1.7462-5.3769-4.1004-6.0564-.1761-3.1278-2.6902-5.6102-5.7746-5.6102-.7646 0-1.4928.1562-2.1611.4331-1.0048-.8856-2.3715-1.4331-3.8805-1.4331-2.9684 0-5.389 2.1108-5.5662 4.7728-2.4808.4953-4.3505 2.684-4.3505 5.3105 0 .4988.073.9797.1992 1.4384-.1631.0682-.303.0515-.4961-.2561-.4219-.6718-.7031-1.7933-.7031-2.8073 0-2.3065 1.4742-4.2969 3.6141-5.2584.8067-2.7245 3.3165-4.7777 6.3859-5.1277v-8.5722c0-.2762-.2239-.5-.5-.5h-1.8011l-5.7368-13.8818c-.1703-.412-.7539-.412-.9242 0l-5.7368 13.8818h-1.8011c-.2761 0-.5.2238-.5.5v22.5h-4l-8 11v11h17v-11l7-11 6.9739 10.959c.0088.001.0172.0032.0261.0041v.0369 11h7s-1.2-4.8125-1.2-8c0-.0857-.0112-.1656-.0129-.2504.5144.1621 1.0616.2504 1.6296.2504 2.9915 0 5.4166-2.4251 5.4166-5.4167 0-.9248-.2328-1.7948-.6415-2.5565 1.5802-1.0917 2.6415-3.0804 2.6415-5.3602z"/><path d="m30 52h6v5h-6z"/></svg>