<svg enable-background="new 0 0 64 64" viewBox="0 0 64 64" xmlns="http://www.w3.org/2000/svg"><path d="m0 0h64v64h-64z" fill="none"/><path d="m13 39v21h16v-13h2v13h2v-13h2v13h2v-13h2v13h2v-13h2v13h2v-13h2v13h16v-21z"/><path d="m58 5h-25v32h25zm-15 28h-4v-4h4zm0-9h-4v-4h4zm0-9h-4v-4h4zm9 18h-4v-4h4zm0-9h-4v-4h4zm0-9h-4v-4h4z"/><path d="m20 30.3-3.1.7c-1.3.3-1.3 2.2.1 2.4l8.7 1.5c.8.1 1.5-.5 1.4-1.3l-.6-8.8c-.1-1.3-2-1.6-2.4-.3l-1 3.1c-2.1-2.6-5.3-4.2-8.7-4.2-6.3 0-11.4 5.1-11.4 11.3v12.3h4v-12.3c0-4 3.3-7.3 7.3-7.3 2.3 0 4.4 1.1 5.7 2.9z"/></svg>