<svg enable-background="new 0 0 64 64" viewBox="0 0 64 64" xmlns="http://www.w3.org/2000/svg"><path d="m0 0h64v64h-64z" fill="none"/><path d="m61.2 30.2-28.4-26.9c-.5-.4-1.2-.4-1.6 0l-28.4 26.9c-.5.5-.8 1.1-.8 1.8v1.8c0 .6.5 1.2 1.2 1.2h4.8v25h48v-25h4.8c.7 0 1.2-.5 1.2-1.2v-1.8c0-.7-.3-1.3-.8-1.8zm-22.7-9.8c1.7 0 2.8 1.1 2.8 3.2 0 1.8-1 3.1-2.8 3.1s-2.8-1.1-2.8-3.1c0-1.9 1-3.2 2.8-3.2zm-12.8-.9c1.7 0 2.8 1.1 2.8 3.2 0 1.8-1 3.1-2.8 3.1s-2.8-1.1-2.8-3.1c0-1.9 1-3.2 2.8-3.2zm18.4 22c-1.8-5.8-1.7-8.3-2.1-9.6-.1-.2-.3-.6-.3-.6.4 1.6.1 2.3-.1 3.1-.2.9-.4 1.7-.2 2.6.4 1.6 1.7 3.6 1.7 8.7 0 0-.5-.2-1.5-.3-.1 0-.1 0-.2 0v10.6s-2.5-.4-2.6-2.7c0 0 0-5.3 0-7.7-.3 0-.7.1-1 .1v7.7c-.2 2.3-2.6 2.7-2.6 2.7v-9.6c.6 0 1.8-.4 1.8-1.7 0-3.1.1-8.1-1.7-8.8-1.3-.5-4.8-.5-5.9 0-1.9.9-2 5.8-1.8 8.8.1 1.4 1.2 1.7 1.8 1.7v9.5c-1.7 0-2.9-1-3.1-2.9 0 0-.4-11.5-.4-11.6s-.2-.3-.4-.3-.4.2-.4.3-.4 11.6-.4 11.6c.1 1.9-1 2.9-2.7 2.9v-24.1c0-.1-.4 0-.6.3-.4.7-.4 1.6-.4 2.4v7.4c-.8 0-2.2-.5-2.3-2.3-.2-4-.7-11.3 3.2-12.3 2.5-.7 5.5-.6 7.7 0 .7.2 1.3.6 1.8 1.2-1 .5-1.6 1.5-1.6 2.9 0 1.9 1 3 2.8 3s2.8-1.2 2.8-3c0-1.1-.3-1.9-.9-2.5.4-.4.9-.6 1.4-.8.9-.3 1.8-.4 2.7-.4 1 0 1.8.1 2.7.4 1.8.6 2.8 2.2 3.2 5.5.2 1.5.7 2.7 1.1 4.9.3 1.8-.7 2.8-1.5 2.9z"/></svg>