<svg height="64" viewBox="0 0 64 64" width="64" xmlns="http://www.w3.org/2000/svg"><path d="m0 0h64v64h-64z" fill="none"/><path d="m32.6652 6.7672 7.9865-2.7953c.4465-.1562.4465-.7876 0-.9438l-7.9865-2.7953c-.3251-.1138-.6652.1275-.6652.4719v5.5906c0 .3444.3401.5857.6652.4719z"/><path d="m54 37 1.6324-.5441c.8168-.2722 1.3676-1.0365 1.3676-1.8974v-5.3195c0-.7487-.4163-1.4361-1.0828-1.7772-3.7416-1.9149-16.2699-8.7945-23.118-18.3002-.3902-.5416-1.2081-.5416-1.5983 0-6.8481 9.5057-19.3765 16.3854-23.1181 18.3002-.6665.3412-1.0828 1.0286-1.0828 1.7773v5.0061c0 .7379.4032 1.413 1.0525 1.7635 1.3777.7437 3.8803 1.5419 6.1142-.692 0 0 3.25 4.7666 11.3333.6333 0 0 .7728.1522.0312.8938-1.0469 1.0469-6.3125 4.9062-11.6146 1.2603-.0075-.0003-1.722 1.1633-4.2661 1.2303-2.0498 13.1159-4.6505 18.6656-4.6505 18.6656h17c6 0 10-16 10-16-.0058-.1628 4 16 10 16h17s-2.9103-6.1959-5-21zm-29.0495-9h-11.6133c4.8189-2.7984 12.177-7.655 17.7103-13.884-.9147 3.0428-3.3819 10.6434-6.097 13.884zm14.0991 0c-2.7151-3.2406-5.1823-10.8414-6.097-13.884 5.5332 6.229 12.8912 11.0857 17.7102 13.884z"/></svg>