<svg enable-background="new 0 0 64 64" height="64" viewBox="0 0 64 64" width="64" xmlns="http://www.w3.org/2000/svg"><path d="m0 0h64v64h-64z" fill="none"/><path d="m32 28.3-13.1 10.9h-4.7v22.8h35.6v-22.8h-4.7zm-6 28.7h-6v-4h6zm0-6h-6v-7h6zm9 6h-6v-4h6zm0-6h-6v-7h6zm-3-11c-1.9 0-3.5-1.6-3.5-3.5s1.6-3.5 3.5-3.5 3.5 1.6 3.5 3.5c0 2-1.6 3.5-3.5 3.5zm12 17h-6v-4h6zm0-6h-6v-7h6zm2.7-35.3c-1.3-.2-2.3-.4-3.7-.4v2.2c0 1.2.8 2.2 2 2.5 7.3 1.5 13 .2 16.9-2.2.4-.2.2-.8-.2-.8-4.1-.1-9-1.9-12.7-3.6v-2.8c0-1-.5-2-1.3-2.5-2-1.3-6.3-3.4-13.7-3.9v-.6c0-1.1-.9-1.6-2-1.6s-2 .5-2 1.6v19.4h-8.3c-.5 0-1 .3-1.3.7l-8.6 12.5c-.2.3 0 .6.3.6h5.6l12.7-10.6c.9-.8 2.2-.7 3.2 0l12.7 10.6h5.6c.3 0 .5-.4.3-.6l-8.6-12.5c-.3-.4-.8-.7-1.3-.7h-8.3v-9.6c3.3-.5 8.8-.7 13.8 1.9-.1.3-.4.5-1.1.4z"/></svg>