<svg height="64" viewBox="0 0 64 64" width="64" xmlns="http://www.w3.org/2000/svg"><path d="m0 0h64v64h-64z" fill="none"/><path d="m52.6721 32.9338-1.6721-30.9338c0-1.1046-2.2386-2-5-2s-5 .8954-5 2l-1.0183 20.1597c2.1652 2.0896 4.6332 4.5406 4.7766 4.68.2523.2452.0237.4298.0237.4298l-15.2897-8.7001c-.6666-.377-1.4923.1047-1.4923.8705v4.8572l-10.5197-5.7609c-.6664-.365-1.4803.1173-1.4803.8771v4.8617l-.0399-.012-10.4805-5.7287c-.6663-.3643-1.4796.118-1.4796.8774v2.7031 2.3624 27.5228h29v-8.4513c0-6.1279 7.3086-10.7487 17.001-10.7487.9158 0 1.8021.0539 2.6711.1338zm-37.6721 11.0662h-6v-6h6zm12 0h-6v-6h6z"/><path d="m50.0013 55c7.8498 0 13.9987-3.3747 13.9987-7.6786 0-.6324 0-3.0202 0-3.6548 0-4.2993-6.1489-7.6666-13.9987-7.6666-7.8521 0-14.0013 3.3673-14.0013 7.6666v3.6548c0 .9493.3142 1.8492.865 2.6819-.553.8255-.865 1.7191-.865 2.6633v3.6548c0 4.3039 6.1492 7.6786 14.0013 7.6786 7.8498 0 13.9987-3.3747 13.9987-7.6786v-3.6548c0-.2049-.0266-.4056-.0542-.606-.7144.8958-4.5718 5.1376-13.6127 5.1376-8.0173 0-10.7806-3.8577-11.0668-4.3807-.1169-.2137-.2019-.4362-.0765-.5667 2.5483 1.6889 6.4118 2.7492 10.8115 2.7492zm-11.3001-11c0-2.8444 5.0601-5.15 11.302-5.15s11.302 2.3057 11.302 5.15-5.0601 5.15-11.302 5.15-11.302-2.3057-11.302-5.15z"/><path d="m47.8543 45.7261v.6766h1.5551v-.5565c.3053.0191.6703.0191 1.016.0191h.384v.5374h1.5168v-.6166c2.7834-.2999 4.1094-1.2643 4.1094-2.6701 0-.5469-.0571-.7845-.3076-1.3435h-2.0559c.2123.5182.2886.7773.2886 1.2546 0 .6166-.5938 1.1155-2.0344 1.334v-1.7634h-1.5168v1.8928c-.1907.0096-.384.0193-.6128.0193-.2697 0-.52-.0098-.7872-.0193v-1.8928h-1.5551v1.7538c-1.4023-.2089-2.1322-.6575-2.1322-1.3748 0-.4078.0763-.6454.2479-1.1539h-2.168c-.174.4269-.2312.7269-.2312 1.1226-.0001 1.4157 1.4404 2.4208 4.2834 2.7807z"/></svg>