<svg height="64" viewBox="0 0 64 64" width="64" xmlns="http://www.w3.org/2000/svg"><path d="m0 0h64v64h-64z" fill="none"/><path d="m56.043 52.09c-2.4615 0-4.9159-1.9367-6-2.75-1.0001.7503-3.4848 2.75-6 2.75-2.4615 0-4.9159-1.9367-6-2.75-1.0001.7503-3.4848 2.75-6 2.75-2.4615 0-4.9159-1.9367-6-2.75-1.0001.7503-3.4848 2.75-6 2.75-2.4615 0-4.9159-1.9367-6-2.75-1.0001.7503-3.4848 2.75-6 2.75-1.0184 0-2.1246-.3893-3.043-.8273v4.2183c.9427.3046 1.9789.519 3.043.519 2.397 0 4.6631-1.0762 6-1.8633 1.3369.7871 3.603 1.8633 6 1.8633s4.6631-1.0762 6-1.8633c1.3369.7871 3.603 1.8633 6 1.8633s4.6631-1.0762 6-1.8633c1.3369.7871 3.603 1.8633 6 1.8633s4.6631-1.0762 6-1.8633c1.3369.7871 3.603 1.8633 6 1.8633 1.0322 0 2.0372-.2025 2.957-.4926v-4.2031c-.8999.4195-1.9733.7857-2.957.7857z"/><path d="m12.5264 47.7285 1.5166-1.1392 1.4766 1.1079c.3659.2761.8873.6671 1.4805 1.0433v-3.5164c-.0001-4.5346 3.6894-8.2241 8.2235-8.2241h9.7764c.5523 0 1 1.3431 1 3s-.4477 3-1 3h-9.7764c-1.2265 0-2.2236.9976-2.2236 2.2241v3.571c.6301-.3924 1.1767-.8016 1.5264-1.0667l1.5166-1.1392 1.4766 1.1079c.9434.7119 2.9072 2.1924 4.5234 2.1924 1.6309 0 3.6299-1.5142 4.4834-2.1611l1.5166-1.1392 1.4766 1.1079c.9434.7119 2.9072 2.1924 4.5234 2.1924 1.6309 0 3.6299-1.5142 4.4834-2.1611l1.5166-1.1392 1.4766 1.1079c.9434.7119 2.9072 2.1924 4.5234 2.1924.2397 0 .5307-.0496.8533-.1382l-1.8963-42.7513c0-1.1046-2.2386-2-5-2s-5 .8954-5 2l-1.0183 20.1597c2.1652 2.0896 4.6332 4.5406 4.7766 4.68.2523.2452.0237.4298.0237.4298l-15.2897-8.7001c-.6667-.377-1.4923.1047-1.4923.8705v4.8572l-10.5197-5.7609c-.6664-.365-1.4803.1173-1.4803.8771v4.8617l-.0399-.012-10.4805-5.7287c-.6664-.3643-1.4796.118-1.4796.8774v2.7031 2.3624 20.4084c.0133.0002.03.004.043.004 1.6308 0 3.6299-1.5141 4.4834-2.1611z"/></svg>