<?xml version="1.0" encoding="utf-8"?>
<!-- Generator: Adobe Illustrator 19.1.0, SVG Export Plug-In . SVG Version: 6.00 Build 0)  -->
<svg version="1.2" baseProfile="tiny" xmlns="http://www.w3.org/2000/svg" xmlns:xlink="http://www.w3.org/1999/xlink" x="0px"
	 y="0px" width="64px" height="64px" viewBox="0 0 64 64" xml:space="preserve">
<g id="_x36_4px_Box">
	<rect fill="none" width="64" height="64"/>
</g>
<g id="Icon">
	<g>
		<path d="M56.043,52.09c-2.4615,0-4.9159-1.9367-6-2.75c-1.0001,0.7503-3.4848,2.75-6,2.75c-2.4615,0-4.9159-1.9367-6-2.75
			c-1.0001,0.7503-3.4848,2.75-6,2.75c-2.4615,0-4.9159-1.9367-6-2.75c-1.0001,0.7503-3.4848,2.75-6,2.75
			c-2.4615,0-4.9159-1.9367-6-2.75c-1.0001,0.7503-3.4848,2.75-6,2.75c-1.0184,0-2.1246-0.3893-3.043-0.8273v4.2183
			C5.9427,55.7856,6.9789,56,8.043,56c2.397,0,4.6631-1.0762,6-1.8633c1.3369,0.7871,3.603,1.8633,6,1.8633s4.6631-1.0762,6-1.8633
			c1.3369,0.7871,3.603,1.8633,6,1.8633s4.6631-1.0762,6-1.8633c1.3369,0.7871,3.603,1.8633,6,1.8633s4.6631-1.0762,6-1.8633
			c1.3369,0.7871,3.603,1.8633,6,1.8633c1.0322,0,2.0372-0.2025,2.957-0.4926v-4.2031C58.1001,51.7238,57.0267,52.09,56.043,52.09z"
			/>
		<path d="M12.5264,47.7285l1.5166-1.1392l1.4766,1.1079c0.3659,0.2761,0.8873,0.6671,1.4805,1.0433v-3.5164
			C17,40.6895,20.6895,37,25.2236,37H35c0.5523,0,1,1.3431,1,3s-0.4477,3-1,3h-9.7764C23.9971,43,23,43.9976,23,45.2241v3.571
			c0.6301-0.3924,1.1767-0.8016,1.5264-1.0667l1.5166-1.1392l1.4766,1.1079c0.9434,0.7119,2.9072,2.1924,4.5234,2.1924
			c1.6309,0,3.6299-1.5142,4.4834-2.1611l1.5166-1.1392l1.4766,1.1079c0.9434,0.7119,2.9072,2.1924,4.5234,2.1924
			c1.6309,0,3.6299-1.5142,4.4834-2.1611l1.5166-1.1392l1.4766,1.1079c0.9434,0.7119,2.9072,2.1924,4.5234,2.1924
			c0.2397,0,0.5307-0.0496,0.8533-0.1382L55,7c0-1.1046-2.2386-2-5-2s-5,0.8954-5,2l-1.0183,20.1597
			c2.1652,2.0896,4.6332,4.5406,4.7766,4.68c0.2523,0.2452,0.0237,0.4298,0.0237,0.4298l-15.2897-8.7001
			C32.8256,23.1924,32,23.6741,32,24.4399v4.8572l-10.5197-5.7609C20.8139,23.1712,20,23.6535,20,24.4133v4.8617l-0.0399-0.012
			L9.4796,23.5343C8.8132,23.17,8,23.6523,8,24.4117v2.7031v2.3624v20.4084c0.0133,0.0002,0.03,0.004,0.043,0.004
			C9.6738,49.8896,11.6729,48.3755,12.5264,47.7285z"/>
	</g>
</g>
</svg>
