<?xml version="1.0" encoding="utf-8"?>
<!-- Generator: Adobe Illustrator 18.1.0, SVG Export Plug-In . SVG Version: 6.00 Build 0)  -->
<svg version="1.2" baseProfile="tiny" xmlns="http://www.w3.org/2000/svg" xmlns:xlink="http://www.w3.org/1999/xlink" x="0px"
	 y="0px" width="64px" height="64px" viewBox="0 0 64 64" xml:space="preserve">
<g id="Box">
	<rect fill="none" width="64" height="64"/>
</g>
<g id="Icon">
	<g>
		<path d="M28.6652,6.7672l7.9865-2.7953c0.4465-0.1562,0.4465-0.7876,0-0.9438l-7.9865-2.7953C28.3401,0.119,28,0.3603,28,0.7047
			v5.5906C28,6.6397,28.3401,6.881,28.6652,6.7672z"/>
		<path d="M50.0001,33.9c0.9176,0,1.9413,0.0104,2.9999,0.0345v-4.6954c0-0.7487-0.4163-1.4361-1.0828-1.7772
			c-3.7416-1.9149-16.2699-8.7945-23.118-18.3002c-0.3902-0.5416-1.2081-0.5416-1.5983,0
			C20.3528,18.6674,7.8243,25.5471,4.0828,27.4619C3.4163,27.803,3,28.4904,3,29.2391v5.0061c0,0.7379,0.4032,1.413,1.0525,1.7635
			c1.3777,0.7437,3.8803,1.5419,6.1142-0.692c0,0,3.25,4.7666,11.3333,0.6333c0,0,0.7728,0.1522,0.0312,0.8938
			c-1.0469,1.0469-6.3125,4.9062-11.6146,1.2603c-0.0075-0.0003-1.722,1.1633-4.2661,1.2303C3.6007,52.4503,1,58,1,58h17
			c6,0,10-16,10-16c-0.0045-0.1246,2.243,9.3081,6.034,13.7441C33.9318,53.746,33.9,51.6991,33.9,50
			c0-3.2075,0.2051-7.6617,0.7057-10.666c0.403-2.4239,2.3026-4.3239,4.7269-4.7279C42.338,34.1052,46.7924,33.9,50.0001,33.9z
			 M20.9505,28H9.3372c4.8189-2.7984,12.177-7.655,17.7103-13.884C26.1328,17.1588,23.6656,24.7594,20.9505,28z M35.0496,28
			c-2.7151-3.2406-5.1823-10.8414-6.097-13.884C34.4858,20.345,41.8438,25.2017,46.6628,28H35.0496z"/>
		<path d="M62.435,39.826c-0.195-1.1729-1.0873-2.0652-2.2607-2.2607C56.7828,37,51.1301,37,50.0001,37
			c-1.1301,0-6.7828,0-10.1743,0.5654c-1.1735,0.1955-2.0657,1.0878-2.2607,2.2607C37,43.2173,37,48.8696,37,50
			s0,6.7827,0.5651,10.174c0.195,1.1729,1.0873,2.0652,2.2607,2.2607C43.2172,63,48.8699,63,50.0001,63
			c1.1301,0,6.7828,0,10.1742-0.5654c1.1735-0.1955,2.0657-1.0878,2.2607-2.2607C63,56.7827,63,51.1304,63,50
			C63,46.607,63,43.2173,62.435,39.826z M59,52.5c0,0.2761-0.2239,0.5-0.5,0.5H53v5.5c0,0.2761-0.2239,0.5-0.5,0.5h-5
			c-0.2761,0-0.5-0.2239-0.5-0.5V53h-5.5c-0.2761,0-0.5-0.2239-0.5-0.5v-5c0-0.2761,0.2239-0.5,0.5-0.5H47v-5.5
			c0-0.2761,0.2239-0.5,0.5-0.5h5c0.2761,0,0.5,0.2239,0.5,0.5V47h5.5c0.2761,0,0.5,0.2239,0.5,0.5V52.5z"/>
	</g>
</g>
</svg>
