<?xml version="1.0" encoding="utf-8"?>
<!-- Generator: Adobe Illustrator 19.1.0, SVG Export Plug-In . SVG Version: 6.00 Build 0)  -->
<svg version="1.2" baseProfile="tiny" xmlns="http://www.w3.org/2000/svg" xmlns:xlink="http://www.w3.org/1999/xlink" x="0px"
	 y="0px" width="64px" height="64px" viewBox="0 0 64 64" xml:space="preserve">
<g id="_x36_4px_Box">
	<rect fill="none" width="64" height="64"/>
</g>
<g id="Icon">
	<path d="M51.4868,2H13.5132C13.2298,2,13,2.2238,13,2.5V61h17v-7h5v7h17V2.5C52,2.2238,51.7702,2,51.4868,2z M50,51H15v-1h1v-3h6v3
		h3v-3h6v3h3v-3h6v3h3v-3h6v3h1V51z M50,44H15v-1h1v-3h6v3h3v-3h6v3h3v-3h6v3h3v-3h6v3h1V44z M50,37H15v-1h1v-3h6v3h3v-3h6v3h3v-3h6
		v3h3v-3h6v3h1V37z M50,30H15v-1h1v-3h6v3h3v-3h6v3h3v-3h6v3h3v-3h6v3h1V30z M50,23H15v-1h1v-3h6v3h3v-3h6v3h3v-3h6v3h3v-3h6v3h1V23
		z M50,16H15v-1h1v-3h6v3h3v-3h6v3h3v-3h6v3h3v-3h6v3h1V16z M50,9H15V8h1V5h6v3h3V5h6v3h3V5h6v3h3V5h6v3h1V9z"/>
</g>
</svg>
