<?xml version="1.0" encoding="utf-8"?>
<!-- Generator: Adobe Illustrator 22.1.0, SVG Export Plug-In . SVG Version: 6.00 Build 0)  -->
<!DOCTYPE svg PUBLIC "-//W3C//DTD SVG 1.1//EN" "http://www.w3.org/Graphics/SVG/1.1/DTD/svg11.dtd">
<svg version="1.1" xmlns="http://www.w3.org/2000/svg" xmlns:xlink="http://www.w3.org/1999/xlink" x="0px" y="0px" width="64px"
	 height="64px" viewBox="0 0 64 64" style="enable-background:new 0 0 64 64;" xml:space="preserve">
<style type="text/css">
	.st0{fill:none;}
	.st1{fill:#FFFFFF;}
</style>
<g id="_x36_4px_Box">
	<rect class="st0" width="64" height="64"/>
</g>
<g id="Icon">
	<g>
		<path d="M23.4,11.2c0.9,0,1.3-0.1,2.1-0.2l0.1,0V9.4l-0.1,0c-0.8,0.1-1.2,0.2-1.9,0.2c-1.2,0-2.7-0.8-2.7-3.1
			c0-2.4,1.4-3.2,2.7-3.2c0.7,0,1,0,1.7,0.1l0.1,0l0.1-1.7l-0.1,0c-0.7-0.1-1.2-0.2-1.8-0.2c-2.9,0-4.8,2-4.8,5.1
			C18.8,9.5,20.6,11.2,23.4,11.2z"/>
		<path d="M28,11.2c2,0,3-1,3-2.9V1.7H29v6.6c0,0.8-0.4,1.3-1,1.3c-0.2,0-0.4,0-0.7-0.1l-0.1,0v1.7l0.1,0
			C27.5,11.2,27.8,11.2,28,11.2z"/>
		<rect x="33.1" y="1.7" width="1.9" height="9.4"/>
		<path d="M44.2,8.2c0-1-0.5-1.7-1.5-2.1c0.8-0.4,1.1-1.1,1.1-2.1c0-0.9-0.5-2.3-3.5-2.3h-2.7v9.4h2.9C42.9,11.1,44.2,10.1,44.2,8.2
			z M39.6,3.3h0.7c1.1,0,1.6,0.3,1.6,1.1c0,0.8-0.5,1.2-1.6,1.2h-0.6V3.3z M39.6,9.5V7.1h0.6c1.8,0,2,0.7,2,1.2c0,1-0.9,1.3-1.7,1.3
			H39.6z"/>
		<path d="M48,14H16c-1.1,0-2,0.9-2,2v47h15v-9h6v9h15V16C50,14.9,49.1,14,48,14z M25,47h-6v-6h6V47z M25,37h-6v-6h6V37z M25,27h-6
			v-6h6V27z M35,47h-6v-6h6V47z M35,37h-6v-6h6V37z M35,27h-6v-6h6V27z M45,47h-6v-6h6V47z M45,37h-6v-6h6V37z M45,27h-6v-6h6V27z"
			/>
	</g>
</g>
</svg>
