<svg height="64" viewBox="0 0 64 64" width="64" xmlns="http://www.w3.org/2000/svg"><path d="m0 0h64v64h-64z" fill="none"/><path d="m31 47.7839 7.3176-7.3176c-.2763-1.1577-.3228-2.319-.1812-3.4662h-3.1364v-6h6v.0108c.1987-.2242.3853-.4515.6042-.6705 1.3536-1.3545 2.8413-2.3066 4.3958-2.8865v-21.4539c0-1.1045-.8955-2-2-2h-32c-1.1045 0-2 .8955-2 2v47h15v-9h6zm4-36.7839h6v6h-6zm0 10h6v6h-6zm-14 16h-6v-6h6zm0-10h-6v-6h6zm0-10h-6v-6h6zm4-6h6v6h-6zm0 10h6v6h-6zm0 16v-6h6v6z"/><path d="m58.816 38.0161c-.1049-.4579-.6818-.6173-1.0242-.2958-1.0157.9537-2.0071 1.8474-2.569 2.2542-.8665.6277-2.3607 1.8624-3.4323.7903l-3.1586-3.1567c-1.0715-1.0719.079-2.6819.7085-3.5496.4244-.5851 1.3262-1.6838 2.2628-2.7999.2872-.3423.1285-.8762-.3018-.9966-2.632-.7359-5.1987.1042-7.4344 2.3411-3.5173 3.5173-3.5981 7.862.5264 11.9866.368.368.7382.6906 1.1089.9922-.0452.1409-.3193.1512-.4941.0948-.3981-.1284-2.1202-.8593-4.1862-3.1897l-11.7275 11.7279c-1.5118 1.5118-.6296 3.2951.8755 4.7988 1.5051 1.5063 3.2895 2.3885 4.8005.8774l12.9105-12.9103c3.0709 1.4461 6.1118.7291 8.702-1.8626 2.1424-2.141 3.0094-4.5866 2.433-7.1021zm-25.9635 19.7009c-.8783 0-1.59-.7118-1.59-1.59 0-.8784.7117-1.59 1.59-1.59s1.59.7117 1.59 1.59c-.0001.8782-.7117 1.59-1.59 1.59z"/></svg>