<?xml version="1.0" encoding="utf-8"?>
<!-- Generator: Adobe Illustrator 19.1.0, SVG Export Plug-In . SVG Version: 6.00 Build 0)  -->
<svg version="1.2" baseProfile="tiny" xmlns="http://www.w3.org/2000/svg" xmlns:xlink="http://www.w3.org/1999/xlink" x="0px"
	 y="0px" width="64px" height="64px" viewBox="0 0 64 64" xml:space="preserve">
<g id="Box">
	<rect fill="none" width="64" height="64"/>
</g>
<g id="Icon">
	<g>
		<path d="M48,14H16c-1.1045,0-2,0.8955-2,2v47h15v-9h6v9h15V16C50,14.8955,49.1045,14,48,14z M25,47h-6v-6h6V47z M25,37h-6v-6h6V37
			z M25,27h-6v-6h6V27z M35,47h-6v-6h6V47z M35,37h-6v-6h6V37z M35,27h-6v-6h6V27z M45,47h-6v-6h6V47z M45,37h-6v-6h6V37z M45,27h-6
			v-6h6V27z"/>
		<polygon points="26.9839,9.1841 22.6274,9.1841 22.6274,9.1279 26.9556,2.7549 26.9556,1.396 20.9458,1.396 20.9458,2.7969 
			25.022,2.7969 25.022,2.8525 20.6938,9.2261 20.6938,10.585 26.9839,10.585 		"/>
		<rect x="29.1592" y="1.396" width="1.6807" height="9.189"/>
		<polygon points="34.6065,3.1611 34.6631,3.1611 37.3663,10.585 40.0001,10.585 40.0001,1.396 38.4454,1.396 38.4454,8.8198 
			38.3887,8.8198 35.6856,1.396 33.0518,1.396 33.0518,10.585 34.6065,10.585 		"/>
		<rect x="42.2071" y="1.396" width="1.6807" height="9.189"/>
	</g>
</g>
</svg>
