<svg height="64" viewBox="0 0 64 64" width="64" xmlns="http://www.w3.org/2000/svg"><path d="m0 0h64v64h-64z" fill="none"/><path d="m0 0h64v64h-64z" fill="none"/><path d="m23.8203 10.6926c.9248 0 1.2608-.0561 2.0449-.2241v-1.373c-.7558.1401-1.1757.1821-1.9326.1821-1.4707 0-2.8154-1.0083-2.8154-3.1797 0-2.2412 1.3164-3.3198 2.8711-3.3198.6719 0 1.0088.0141 1.7373.1401l.126-1.4287c-.6309-.126-1.1065-.1821-1.8067-.1821-2.5498 0-4.6933 1.625-4.6933 4.959 0 2.9692 1.9336 4.4262 4.4687 4.4262z"/><path d="m29.3486 8.4934h3.1377l.5879 2.1011h1.9199l-2.7031-9.189h-2.5361l-2.7315 9.189h1.7364zm1.5264-5.603h.0986l1.1485 4.2583h-2.4366z"/><path d="m38.7852 6.5881h.7988l2.6611 4.0064h2.1006l-3.3193-4.8745 3.2216-4.3145h-1.9335l-2.7735 3.8101h-.7558v-3.8101h-1.6817v9.189h1.6817z"/><path d="m48 14h-32c-1.1046 0-2 .8955-2 2v47h15v-9h6v9h15v-47c0-1.1045-.8955-2-2-2zm-23 33h-6v-6h6zm0-10h-6v-6h6zm0-10h-6v-6h6zm10 20h-6v-6h6zm0-10h-6v-6h6zm0-10h-6v-6h6zm10 20h-6v-6h6zm0-10h-6v-6h6zm0-10h-6v-6h6z"/></svg>