<svg enable-background="new 0 0 64 64" height="64" viewBox="0 0 64 64" width="64" xmlns="http://www.w3.org/2000/svg"><path d="m0 0h64v64h-64z" fill="none"/><path d="m34.6 11 1.3-4.4h.1l1.3 4.4h2l2.1-8h-1.5l-1.6 6.5h-.1l-2-6.5h-1.6l.5 1.7-1.6 4.8h-.1l-1.3-6.5h-1.6l2.1 8zm9-1.8h2.7l.5 1.8h1.7l-2.4-8h-2.2l-2.4 8h1.5zm1.3-4.9 1.1 3.7h-2.1zm-28.1.2 2.4 6.5h2.3v-8h-1.4v6.5l-2.3-6.5h-2.3v8h1.4v-6.5zm10.5 6.5 2.4-8h-1.5l-1.8 6.5h-.1l-1.9-6.5h-1.6l2.3 8zm20.7 3h-32c-1.1 0-2 .9-2 2v47h15v-9h6v9h15v-47c0-1.1-.9-2-2-2zm-23 33h-6v-6h6zm0-10h-6v-6h6zm0-10h-6v-6h6zm10 20h-6v-6h6zm0-10h-6v-6h6zm0-10h-6v-6h6zm10 20h-6v-6h6zm0-10h-6v-6h6zm0-10h-6v-6h6z"/></svg>