<svg enable-background="new 0 0 64 64" height="64" viewBox="0 0 64 64" width="64" xmlns="http://www.w3.org/2000/svg"><path d="m0 0h64v64h-64z" fill="none"/><path d="m23.4 11.2c.9 0 1.3-.1 2.1-.2h.1v-1.6h-.1c-.8.1-1.2.2-1.9.2-1.2 0-2.7-.8-2.7-3.1 0-2.4 1.4-3.2 2.7-3.2.7 0 1 0 1.7.1h.1l.1-1.7h-.1c-.7-.1-1.2-.2-1.8-.2-2.9 0-4.8 2-4.8 5.1 0 2.9 1.8 4.6 4.6 4.6z"/><path d="m28 11.2c2 0 3-1 3-2.9v-6.6h-2v6.6c0 .8-.4 1.3-1 1.3-.2 0-.4 0-.7-.1h-.1v1.7h.1z"/><path d="m33.1 1.7h1.9v9.4h-1.9z"/><path d="m44.2 8.2c0-1-.5-1.7-1.5-2.1.8-.4 1.1-1.1 1.1-2.1 0-.9-.5-2.3-3.5-2.3h-2.7v9.4h2.9c2.4 0 3.7-1 3.7-2.9zm-4.6-4.9h.7c1.1 0 1.6.3 1.6 1.1s-.5 1.2-1.6 1.2h-.6v-2.3zm0 6.2v-2.4h.6c1.8 0 2 .7 2 1.2 0 1-.9 1.3-1.7 1.3h-.9z"/><path d="m48 14h-32c-1.1 0-2 .9-2 2v47h15v-9h6v9h15v-47c0-1.1-.9-2-2-2zm-23 33h-6v-6h6zm0-10h-6v-6h6zm0-10h-6v-6h6zm10 20h-6v-6h6zm0-10h-6v-6h6zm0-10h-6v-6h6zm10 20h-6v-6h6zm0-10h-6v-6h6zm0-10h-6v-6h6z"/></svg>