<?xml version="1.0" encoding="utf-8"?>
<!-- Generator: Adobe Illustrator 17.1.0, SVG Export Plug-In . SVG Version: 6.00 Build 0)  -->
<svg version="1.2" baseProfile="tiny" xmlns="http://www.w3.org/2000/svg" xmlns:xlink="http://www.w3.org/1999/xlink" x="0px"
	 y="0px" width="64px" height="64px" viewBox="0 0 64 64" xml:space="preserve">
<g id="_x36_4px_Boxes">
	<rect fill="none" width="64" height="64"/>
</g>
<g id="Production">
	<rect fill="none" width="64" height="64"/>
	<g>
		<rect x="22.0117" y="1.4055" width="1.6817" height="9.189"/>
		<path d="M30.8477,10.6926c0.9951,0,1.8496-0.084,2.7597-0.2661V6.0002h-3.039v1.3726h1.414v1.877
			c-0.4062,0.0419-0.6445,0.0562-1.0643,0.0562c-1.5684,0-2.8575-1.0645-2.8575-3.208c0-2.2129,1.3165-3.3198,3.1524-3.3198
			c0.7285,0,1.2461,0.0283,2.0029,0.1401l0.126-1.4287c-0.6445-0.126-1.2324-0.1821-2.0732-0.1821
			c-2.8018,0-4.9727,1.583-4.9727,4.959C26.2959,9.2078,28.1445,10.6926,30.8477,10.6926z"/>
		<polygon points="41.9238,9.1936 37.5664,9.1936 37.5664,9.1379 41.8955,2.7644 41.8955,1.4055 35.8867,1.4055 35.8867,2.8064 
			39.9629,2.8064 39.9629,2.8625 35.6338,9.2356 35.6338,10.5945 41.9238,10.5945 		"/>
		<path d="M48,14H16c-1.1045,0-2,0.8955-2,2v47h15v-9h6v9h15V16C50,14.8955,49.1045,14,48,14z M25,47h-6v-6h6V47z M25,37h-6v-6h6V37
			z M25,27h-6v-6h6V27z M35,47h-6v-6h6V47z M35,37h-6v-6h6V37z M35,27h-6v-6h6V27z M45,47h-6v-6h6V47z M45,37h-6v-6h6V37z M45,27h-6
			v-6h6V27z"/>
	</g>
</g>
</svg>
