<svg height="64" viewBox="0 0 64 64" width="64" xmlns="http://www.w3.org/2000/svg"><path d="m0 0h64v64h-64z" fill="none"/><path d="m53.5 29h-7.5v-10-10-1.6229c0-.2233-.148-.4194-.3627-.4808l-20-5.7142c-.3194-.0912-.6373.1486-.6373.4808v17.3371h6c.5523 0 1 .4477 1 1v24h8 1.4338c.3513 0 .6768.1843.8575.4855l5.7087 9.5145v9h6v-33.5c0-.2762-.2239-.5-.5-.5z"/><path d="m39 55h6v5h-6z"/><path d="m31.544 46.0274-6.2163 7.9726c-.1558-.0781-.2475-.2174-.0777-.5547 2.8723-5.7063 4.75-9.362 4.75-9.362v-22.5833c0-.2762-.2239-.5-.5-.5h-20c-.2761 0-.5.2238-.5.5v41.5h16 5 6v-9l4.7836-7.9726zm-8.544-20.0274h3v3h-3zm0 5h3v3h-3zm0 5h3v3h-3zm-7 13h-3v-3h3zm0-5h-3v-3h3zm0-5h-3v-3h3zm0-5h-3v-3h3zm0-5h-3v-3h3zm5 20h-3v-3h3zm0-5h-3v-3h3zm0-5h-3v-3h3zm0-5h-3v-3h3zm0-5h-3v-3h3zm2 15v-3h3v3z"/></svg>