<svg enable-background="new 0 0 64 64" height="64" viewBox="0 0 64 64" width="64" xmlns="http://www.w3.org/2000/svg"><path d="m0 0h64v64h-64z" fill="none"/><path d="m20.6 32.7c-6.3-.1.4-8.3-7.7-12.3 3.1-1.3 6.2.7 6.2.7.3-4.4-4.7-6.3-4.7-6.3 12 .1 13.1 7.6 13.1 7.6s5.8-1.8 4-8.6c-1.9-7.6-11.2-8.6-11.2-8.6 3.1 4 1 7.5 1 7.5-9.3-1-8.4-9.5-8.4-9.5-7.1 7-2.1 14.4-2.1 14.4-2.4-2.9-6.1-2.2-6.1-2.2 5.6 7.6 2 9.8 3.8 14.3 3 7.4 12.5 3 12.1 3zm27.4-20.7h-14.7c.2.4.3.9.4 1.3.6 2.3.5 4.1 0 5.7h1.3v6h-15.7c.3 1.2.3 2.4.4 3.4v.6h5.3v6h-4c-.6.3-1.3.5-2.2.7-1.3.3-2.5.5-3.7.5-.4 0-.8 0-1.1-.1v24.9h15v-9h6v9h15v-47c0-1.1-.9-2-2-2zm-23 33h-6v-6h6zm10 0h-6v-6h6zm0-10h-6v-6h6zm10 10h-6v-6h6zm0-10h-6v-6h6zm0-10h-6v-6h6z"/></svg>