<svg enable-background="new 0 0 64 64" height="64" viewBox="0 0 64 64" width="64" xmlns="http://www.w3.org/2000/svg"><path d="m0 0h64v64h-64z" fill="none"/><path d="m41 7h-18l-18 15h54z"/><path d="m11 57h11.1c-.4-2.2-2.5-4.1-5.5-4.4-.2 0-.3-.3-.1-.5 1-.6 3.2-1.4 5.8.1 0 0-.9-1.8-1.4-5.1 0-.2.2-.4.4-.3.8.4 2.6 1.5 4.1 4.3-.5.6-.9 1.3-1.2 2-.1.3 0 .4.1.4 1-1 2.7-3 7-2.4.2 0 .3.3.1.5-1.3.7-4.2 2.7-5.2 5.3h11.8v-9.5c0-1.9 1.6-3.5 3.5-3.5s3.5 1.6 3.5 3.5v9.6h8v-33h-42zm28-27h5v8h-5zm-23 8v-3h2v3zm4 0v-3h2v3zm4 0v-3h2v3zm4 0v-3h2v3zm-5-10c4.7 0 7 2 7 2v3h-14v-3s2.3-2 7-2z"/></svg>