<?xml version="1.0" encoding="utf-8"?>
<!-- Generator: Adobe Illustrator 22.1.0, SVG Export Plug-In . SVG Version: 6.00 Build 0)  -->
<!DOCTYPE svg PUBLIC "-//W3C//DTD SVG 1.1//EN" "http://www.w3.org/Graphics/SVG/1.1/DTD/svg11.dtd">
<svg version="1.1" xmlns="http://www.w3.org/2000/svg" xmlns:xlink="http://www.w3.org/1999/xlink" x="0px" y="0px" width="64px"
	 height="64px" viewBox="0 0 64 64" style="enable-background:new 0 0 64 64;" xml:space="preserve">
<style type="text/css">
	.st0{fill:none;}
</style>
<g id="Box">
	<rect class="st0" width="64" height="64"/>
</g>
<g id="Icon">
	<g>
		<path d="M38.4,43h-4.3l1.4-2.1c0.2-0.3,0.2-0.7-0.1-0.9c-0.2-0.3-0.7-0.3-0.9-0.1l-5,4c-0.4,0.3-0.4,0.9,0,1.2l5,4
			c0.3,0.2,0.7,0.2,0.9-0.1c0.2-0.1,0.2-0.4,0.2-0.5c0-0.1-0.1-0.3-0.1-0.4L34.1,46h4.3c0.8,0,1-0.7,1-1.4
			C39.5,43.9,39.2,43,38.4,43z"/>
		<path d="M21,5.5C21,5.2,20.8,5,20.5,5h-14C6.2,5,6,5.2,6,5.5V18H1.5C1.2,18,1,18.2,1,18.5V61h8V27v-1.5l1.4-0.4L21,21.8V5.5z"/>
		<path d="M11,61h4v-5h3v5h9V22l-16,5V61z M20,30h3v3h-3V30z M20,35h3v3h-3V35z M20,40h3v3h-3V40z M20,45h3v3h-3V45z M20,50h3v3h-3
			V50z M15,30h3v3h-3V30z M15,35h3v3h-3V35z M15,40h3v3h-3V40z M15,45h3v3h-3V45z M15,50h3v3h-3V50z"/>
		<path d="M62,31H43c-0.6,0-1,0.4-1,1v29h9v-5h3v5h9V32C63,31.4,62.6,31,62,31z M49,53h-3v-3h3V53z M49,48h-3v-3h3V48z M49,43h-3v-3
			h3V43z M49,38h-3v-3h3V38z M54,53h-3v-3h3V53z M54,48h-3v-3h3V48z M54,43h-3v-3h3V43z M54,38h-3v-3h3V38z M59,53h-3v-3h3V53z
			 M59,48h-3v-3h3V48z M59,43h-3v-3h3V43z M59,38h-3v-3h3V38z"/>
	</g>
</g>
</svg>
