<svg enable-background="new 0 0 64 64" height="64" viewBox="0 0 64 64" width="64" xmlns="http://www.w3.org/2000/svg"><path d="m0 0h64v64h-64z" fill="none"/><path d="m10 33.2v-1.2c0-1 .4-2 1.2-2.7l10-9.4-3.9-3.7c-.2-.2-.6-.2-.9 0l-15 14.2c-.3.2-.4.5-.4.9v.9c0 .4.3.6.6.6h2.5v13.2h9.9v-10h-1.2c-1.5 0-2.8-1.3-2.8-2.8zm42 0v-1.2c0-.5-.2-.9-.5-1.2l-19-17.9c-.3-.3-.8-.3-1.1 0l-18.9 17.9c-.3.3-.5.7-.5 1.2v1.2c0 .4.4.8.8.8h3.2v16.9h32v-16.9h3.2c.4 0 .8-.4.8-.8zm-21.8-1.1c.4 5.4.7 12.6.7 12.9 0 .6-.8 1.1-1.9 1.1s-1.9-.5-1.9-1.1c0-.3.3-7.4.7-12.9-1.2-.4-2-1.3-2-2.2l.4-5.6c0-.3.3-.6.6-.6s.6.2.6.6l.3 5.1c0 .1.1.2.2.2s.2-.1.2-.2l.3-5c0-.3.3-.6.6-.6s.6.2.6.6l.3 5c0 .1.1.2.2.2s.2-.1.2-.2l.3-5c0-.3.3-.6.6-.6s.6.2.6.6l.4 5.6c0 .9-.8 1.7-2 2.1zm7.3 2.5c-.2.3-.6.4-.9.4h-.1c1 5.9.9 9.4-.1 10.6-.4.5-.9.6-1.3.6-.4 0-.8-.2-1.1-.4-.2-.2-.2-.3-.2-.5v-20.7c0-.3.2-.6.5-.7s.6-.1.9.2c1.8 1.8 2.5 6.8 2.7 9.6 0 .3-.1.6-.4.9zm25.1-4.3-15-14.2c-.2-.2-.6-.2-.9 0l-3.9 3.7 10 9.5c.8.7 1.2 1.7 1.2 2.7v1.2c0 1.5-1.3 2.8-2.8 2.8h-1.2v10h9.8v-13.2h2.5c.3 0 .6-.3.6-.6v-.9c.1-.4-.1-.7-.3-1z"/></svg>