<svg height="64" viewBox="0 0 64 64" width="64" xmlns="http://www.w3.org/2000/svg"><path d="m0 0h64v64h-64z" fill="none"/><path d="m61.2248 30.2057-28.4122-26.8855c-.4594-.4269-1.1659-.4269-1.6253 0l-28.4121 26.8855c-.494.4595-.7752 1.1067-.7752 1.7847v1.7968c0 .6697.5374 1.2128 1.2 1.2128h4.8v25h48v-25h4.8c.6627 0 1.2-.5431 1.2-1.2128v-1.7968c0-.678-.2813-1.3252-.7752-1.7847zm-13.859 9.0949-2.3658 1.196v6.5368c0 2.64-2.085 4.4888-4.2587 4.204-2.1656-.2838-7.6367-1.4851-7.6367-1.4851-.0211.0347-.0781.1658.1198.2739l3.7189 1.9171.0916 4.0567h-15.1039s1.4017-5.7189 1.2801-7.6206c-.2775-4.3373-4.1161-10.0906-5.4588-14.1484-1.1541-3.488-1.8956-10.4533 4.9579-14.1799 6.4978-3.5331 15.2293-3.3716 17.6776-1.7978 2.149 1.3815 2.8466 3.8217 1.4184 6.5453 0 0 1.3205 2.886 1.7717 5.4942.0894.5165-.1385 1.645 0 2.2562l4.1951 4.8274c.4217.6433.2389 1.5068-.4072 1.9242z"/><path d="m38.6218 23.4611c-.7515-.4772-1.8548-.3369-2.4542-.7043-.5995-.3674-1.3475-1.4656-2.507-1.5215-1.2858-.062-2.4055.9814-3.3734.9965-.9554.015-2.0225-.3976-3.5053.153-1.1076.4111-1.3876 1.7465-2.0239 2.0681-.6362.3217-1.3248.2433-2.1913.6834-.8189.4158-1.4128 1.0102-1.5802 1.9729-.1141.6556-.0018 1.8738-.2233 2.2426-.7095 1.1812-.9888 1.8978-.5157 3.4374.3102 1.0095 1.1378 1.5608 1.6709 1.8207.2985.1456.5264.4001.6329.7156.4737 1.4051 1.1696 2.3687 3.0729 2.279 0 0-.1199 1.201-.0526 2.2592h2.1649c.335-3.3912 1.0576-4.941 5.1306-5.4554 4.7244-.5966 7.0052-1.1289 7.7716-2.6281.8997-1.7601-.1617-3.2037-.6074-4.0972-.4676-.9372.8247-2.803-1.4095-4.2219z"/></svg>