<?xml version="1.0" encoding="utf-8"?>
<!-- Generator: Adobe Illustrator 18.1.0, SVG Export Plug-In . SVG Version: 6.00 Build 0)  -->
<svg version="1.2" baseProfile="tiny" xmlns="http://www.w3.org/2000/svg" xmlns:xlink="http://www.w3.org/1999/xlink" x="0px"
	 y="0px" width="64px" height="64px" viewBox="0 0 64 64" overflow="inherit" xml:space="preserve">
<g id="_x36_4px_Boxes">
	<rect fill="none" width="64" height="64"/>
</g>
<g id="Production">
	<path d="M61.2248,30.2381L32.8126,3.3526c-0.4594-0.4269-1.166-0.4269-1.6253,0L2.7752,30.2381C2.2812,30.6977,2,31.3449,2,32.0229
		v1.7968C2,34.4894,2.5374,35,3.2,35H8v25h48V35h4.8c0.6626,0,1.2-0.5106,1.2-1.1803v-1.7968
		C62,31.3449,61.7187,30.6977,61.2248,30.2381z M24.1649,55l-1.8334-6.5061C23.5173,46.6088,23.647,46,24.7273,46h0.0464l1.8519,9
		H24.1649z M34.386,55h-2.4882l0.9615-9h1.7703c0.0071,0,0.0147,0.2424,0.0225,0.2884l0.6552,4.0558L34.386,55z M46.8238,33.097
		c-2.0259,0-3.5044,0.7371-4.6338,2.7581C39.26,41.098,40.1251,55,40.1251,55h-2.6365l-1.4323-8.8228
		C35.9446,45.5157,35.7178,45,34.8474,45H24.7283c-1.3508,0-2.1405,0.561-2.6367,1.3921l-1.9655,3.0942L20.9337,55h-2.5298
		l-1.4205-5.3655c-0.1109-0.4062-0.0295-0.8203,0.2209-1.159l1.8455-3.1455c-0.5489-0.6846-1.8687-3.4331-1.7164-5.0773
		c0.2088-2.256,0.6832-2.1288,0.306-3.0815c-0.4846-1.2242-5.786-6.2852-3.0244-10.2423c0.476-0.6821,1.2387-0.3902,0.9685,0.3965
		c-1.0961,3.192,1.553,7.9137,9.3363,8.3762l4.4105,3.2723c0.2026,0.1165,0.2875-0.0048,0.3068-0.0421l-8.2983-9.5767
		c-0.2805-0.3203-0.4077-0.7417-0.3527-1.1599c0.0543-0.4132,0.2828-0.7825,0.6275-1.0135
		c1.2988-0.8712,3.1066-1.3016,5.3597-1.2772c0.486,0.0046,0.8752,0.1693,1.1555,0.4888l5.3679,5.8997
		c-0.6002,0.5281-1.22,0.9725-1.8391,1.2722l-4.9486-5.4478c-1.2402,0.0078-2.2685,0.1732-3.0751,0.4941l5.9872,6.8968
		c0.3733-0.0474,0.753-0.1009,1.1436-0.1646c4.3871-0.7166,8.5097-8.1387,8.5097-8.1387s0.7812-3.7947,1.8973-3.7947
		c0.6324,0,0.7213,2.3815,1.0375,3.1711l1.4923-0.0089c1.2649,0,2.237,1.1445,2.5298,1.8973l3.7546,0.6324
		C49.986,29.1023,50.1934,33.097,46.8238,33.097z"/>
</g>
</svg>
