<svg height="64" viewBox="0 0 64 64" width="64" xmlns="http://www.w3.org/2000/svg"><path d="m0 0h64v64h-64z" fill="none"/><path d="m61.2248 30.2057-28.4122-26.8855c-.4594-.4269-1.166-.4269-1.6253 0l-28.4121 26.8855c-.494.4595-.7752 1.1067-.7752 1.7847v1.7968c0 .6697.5374 1.2128 1.2 1.2128h4.8v25h48v-25h4.8c.6626 0 1.2-.5431 1.2-1.2128v-1.7968c0-.678-.2813-1.3252-.7752-1.7847zm-33.1629 21.4405c-.6846.0587-1.3013.4408-1.7731.9404s-3.9908 4.1301-3.9908 4.1301l-8.6357-9.549s1.9329-1.9597 2.5613-2.5968c.6284-.6372 1.0005-1.4757 1.0884-2.3663.238-2.4098.6304-5.4106.8281-7.064.0955-.7983.4828-1.5258 1.0917-2.0507 1.3646-1.1764 3.7881-3.2481 4.3588-3.619l.0002-.0001c.5684-.3693 1.6069-.4752 2.3377.061.8835.6483 3.1717 2.6785 4.5001 3.7781 1.1984.992 1.2446 1.631 1.1163 2.174-.2498 1.0537-1.6949 1.06-2.8627.881-1.2946-.1992-2.8027-.7878-3.9948-1.3293l-1.5718 1.5901c2.4277 2.1358 4.4067 5.2581 3.9122 8.4526.1633.0253.249.0483.4003-.0815 1.5484-1.3291.6659-4.8634-.5725-6.815 2.7101.6336 6.0541.4327 6.6764-2.1749.5596-2.3745-1.3253-3.7292-1.922-4.2233-1.2017-.9954-3.1077-2.6825-4.2225-3.5629 1.0002-.8728 2.3545-1.8667 4.1285-.5596.8569.6314 1.4678 1.7339 1.2197 3.2196 0 0 1.502-.8103 3.178.6038 1.2886 1.0873.8412 2.7998.8457 2.8593 0 0 1.6113-.0563 2.6176.9665 1.1594 1.1783.886 2.2552.6528 2.9415 0 0 3.0204 1.4721 1.439 4.2507-.7412 1.3025-1.988 2.6077-2.9831 3.4878-.8019.7092-1.8752 1.6478-3.1894.6046-.4977-.3951-.8558-1.1428-.7275-2.5239 0 0-2.1033 1.1658-3.9435-1.5933-.1484-.0192-.2972.1689-.1902.7272.2783 1.4526.6232 2.9005 2.2523 2.8578-.0991 1.315.8355 2.2139 2.0198 2.7684-3.7697 3.6689-4.2319 2.6081-6.6453 2.8151zm23.1134-8.8409-6.639 4.4968.3736 7.7991c.1461 1.3907-1.1296 2.2227-2.2318 1.779l-8.0034-3.2457c-1.0124-.4106-.3035-2.3673.7433-2.0209l6.723 2.2242-.391-7.9628 6.9042-4.6481-6.3748-5.3879 4.545-9.4635-10.3746 1.6052-3.3076-7.6629-6.2672 5.1822-7.6907-2.6061.0167 6.8333c.0076.9901-1.9413 1.1443-2.0375.1034l-.7349-8.3327c-.1099-1.2281 1.1274-2.134 2.2684-1.6549l7.6205 2.5768 6.045-4.9727c.8255-.7812 2.1799-.5023 2.6302.5424l3.0603 7.0903 10.1487-1.5707c1.4512-.2246 2.34 1.1785 1.7965 2.3135l-4.4777 9.3229 5.8991 4.9858c.868.7333.7428 2.1098-.2443 2.674z"/></svg>