<?xml version="1.0" encoding="utf-8"?>
<!-- Generator: Adobe Illustrator 18.1.0, SVG Export Plug-In . SVG Version: 6.00 Build 0)  -->
<svg version="1.2" baseProfile="tiny" xmlns="http://www.w3.org/2000/svg" xmlns:xlink="http://www.w3.org/1999/xlink" x="0px"
	 y="0px" width="64px" height="64px" viewBox="0 0 64 64" xml:space="preserve">
<g id="_x36_4px_Boxes">
	<rect fill="none" width="64" height="64"/>
</g>
<g id="Production">
	<g>
		<path d="M61.2248,30.2057L32.8126,3.3202c-0.4594-0.4269-1.1659-0.4269-1.6253,0L2.7752,30.2057
			C2.2812,30.6652,2,31.3124,2,31.9904v1.7968C2,34.4569,2.5374,35,3.2,35H8v25h48V35h4.8c0.6627,0,1.2-0.5431,1.2-1.2128v-1.7968
			C62,31.3124,61.7187,30.6652,61.2248,30.2057z M47.3658,39.3006L45,40.4966c0,0,0,3.6398,0,6.5368
			c0,2.64-2.085,4.4888-4.2587,4.204c-2.1656-0.2838-7.6367-1.4851-7.6367-1.4851c-0.0211,0.0347-0.0781,0.1658,0.1198,0.2739
			l3.7189,1.9171L37.0349,56H21.931c0,0,1.4017-5.7189,1.2801-7.6206c-0.2775-4.3373-4.1161-10.0906-5.4588-14.1484
			c-1.1541-3.488-1.8956-10.4533,4.9579-14.1799c6.4978-3.5331,15.2293-3.3716,17.6776-1.7978
			c2.149,1.3815,2.8466,3.8217,1.4184,6.5453c0,0,1.3205,2.886,1.7717,5.4942c0.0894,0.5165-0.1385,1.645,0,2.2562l4.1951,4.8274
			C48.1947,38.0197,48.0119,38.8832,47.3658,39.3006z"/>
		<path d="M37.4849,29.4592c-0.6583-0.1453-1.3014-0.2838-1.9204-0.4146c-0.3732-0.0789-0.678-0.3378-0.8209-0.6914
			c-0.0046-0.0114-0.0093-0.0228-0.014-0.0342c-0.1422-0.3456-0.1079-0.7349,0.094-1.0494
			c0.3464-0.5397,0.7018-1.1022,1.0586-1.6797c0.2022-0.3273-0.0087-0.7371-0.3718-1.1003
			c-0.3631-0.3631-0.7755-0.579-1.1003-0.3718c-0.5651,0.3607-1.1147,0.7157-1.6423,1.0591
			c-0.3224,0.21-0.7238,0.2449-1.0791,0.0974c-0.0118-0.0049-0.0237-0.0098-0.0356-0.0146c-0.3582-0.1459-0.62-0.4559-0.7-0.8344
			c-0.1302-0.6159-0.2679-1.2556-0.4124-1.9102C30.4578,22.139,30.0135,22,29.5,22c-0.5135,0-0.9524,0.1407-1.0408,0.5151
			c-0.1552,0.6569-0.3008,1.3023-0.4368,1.9256c-0.0817,0.3741-0.3406,0.6802-0.6945,0.8263
			c-0.0045,0.0018-0.0089,0.0037-0.0134,0.0056c-0.3566,0.1483-0.7593,0.1147-1.0829-0.096
			c-0.5274-0.3434-1.0768-0.6982-1.6417-1.0588c-0.3247-0.2072-0.7371,0.0087-1.1002,0.3718
			c-0.3631,0.3632-0.574,0.7729-0.3718,1.1003c0.3568,0.5775,0.7122,1.14,1.0586,1.6797c0.2019,0.3146,0.2362,0.7037,0.0939,1.0494
			c-0.0046,0.0114-0.0093,0.0228-0.0139,0.0342c-0.1428,0.3536-0.4478,0.6125-0.8209,0.6914
			c-0.6191,0.1308-1.2622,0.2692-1.9205,0.4146C21.139,29.5422,21,29.9865,21,30.5c0,0.5135,0.1407,0.9524,0.5151,1.0408
			c0.6608,0.1561,1.3099,0.3026,1.9366,0.4393c0.3674,0.0801,0.6684,0.334,0.8112,0.6818c0.0046,0.0114,0.0093,0.0226,0.014,0.0339
			c0.1463,0.3499,0.1128,0.7453-0.0941,1.063c-0.3453,0.5303-0.7021,1.0829-1.0649,1.6512
			c-0.2072,0.3247,0.0087,0.7371,0.3718,1.1003c0.3631,0.363,0.7729,0.5739,1.1002,0.3717c0.5774-0.3567,1.1396-0.712,1.6793-1.0583
			c0.3157-0.2026,0.7062-0.2355,1.053-0.0926c0.004,0.0016,0.0079,0.0032,0.0119,0.0049c0.3494,0.1431,0.6055,0.4441,0.686,0.813
			c0.1367,0.6265,0.2831,1.2753,0.4391,1.9357C28.5476,38.8593,28.9865,39,29.5,39c0.5135,0,0.9578-0.139,1.0408-0.5151
			c0.1454-0.6583,0.2838-1.3014,0.4146-1.9205c0.0789-0.3732,0.3378-0.678,0.6913-0.8209c0.0114-0.0046,0.0228-0.0093,0.0342-0.0139
			c0.3457-0.1423,0.7349-0.108,1.0494,0.0939c0.5398,0.3464,1.1022,0.7018,1.6797,1.0586c0.3273,0.2022,0.7372-0.0087,1.1003-0.3717
			c0.3631-0.3632,0.579-0.7756,0.3718-1.1003c-0.3627-0.5683-0.7197-1.121-1.0649-1.6512c-0.2069-0.3177-0.2404-0.7131-0.0942-1.063
			c0.0048-0.0113,0.0095-0.0226,0.0141-0.0339c0.1427-0.3478,0.4438-0.6017,0.8112-0.6819
			c0.6266-0.1367,1.2758-0.2832,1.9365-0.4393C37.8593,31.4524,38,31.0135,38,30.5C38,29.9865,37.8611,29.5422,37.4849,29.4592z
			 M29.5,33.2218c-1.5032,0-2.7219-1.2186-2.7219-2.7219c0-1.5032,1.2187-2.7219,2.7219-2.7219
			c1.5033,0,2.7219,1.2186,2.7219,2.7219C32.2219,32.0032,31.0033,33.2218,29.5,33.2218z"/>
	</g>
</g>
</svg>
