<svg height="64" viewBox="0 0 64 64" width="64" xmlns="http://www.w3.org/2000/svg"><path d="m0 0h64v64h-64z" fill="none"/><path d="m61.2248 30.2057-28.4122-26.8855c-.4594-.4269-1.1659-.4269-1.6253 0l-28.4121 26.8855c-.494.4595-.7752 1.1067-.7752 1.7847v1.7968c0 .6697.5374 1.2128 1.2 1.2128h4.8v25h48v-25h4.8c.6627 0 1.2-.5431 1.2-1.2128v-1.7968c0-.678-.2813-1.3252-.7752-1.7847zm-13.859 9.0949-2.3658 1.196v6.5368c0 2.64-2.085 4.4888-4.2587 4.204-2.1656-.2838-7.6367-1.4851-7.6367-1.4851-.0211.0347-.0781.1658.1198.2739l3.7189 1.9171.0916 4.0567h-15.1039s1.4017-5.7189 1.2801-7.6206c-.2775-4.3373-4.1161-10.0906-5.4588-14.1484-1.1541-3.488-1.8956-10.4533 4.9579-14.1799 6.4978-3.5331 15.2293-3.3716 17.6776-1.7978 2.149 1.3815 2.8466 3.8217 1.4184 6.5453 0 0 1.3205 2.886 1.7717 5.4942.0894.5165-.1385 1.645 0 2.2562l4.1951 4.8274c.4217.6433.2389 1.5068-.4072 1.9242z"/><path d="m37.4849 29.4592c-.6583-.1453-1.3014-.2838-1.9204-.4146-.3732-.0789-.678-.3378-.8209-.6914-.0046-.0114-.0093-.0228-.014-.0342-.1422-.3456-.1079-.7349.094-1.0494.3464-.5397.7018-1.1022 1.0586-1.6797.2022-.3273-.0087-.7371-.3718-1.1003-.3631-.3631-.7755-.579-1.1003-.3718-.5651.3607-1.1147.7157-1.6423 1.0591-.3224.21-.7238.2449-1.0791.0974-.0118-.0049-.0237-.0098-.0356-.0146-.3582-.1459-.62-.4559-.7-.8344-.1302-.6159-.2679-1.2556-.4124-1.9102-.0829-.3761-.5272-.5151-1.0407-.5151s-.9524.1407-1.0408.5151c-.1552.6569-.3008 1.3023-.4368 1.9256-.0817.3741-.3406.6802-.6945.8263-.0045.0018-.0089.0037-.0134.0056-.3566.1483-.7593.1147-1.0829-.096-.5274-.3434-1.0768-.6982-1.6417-1.0588-.3247-.2072-.7371.0087-1.1002.3718-.3631.3632-.574.7729-.3718 1.1003.3568.5775.7122 1.14 1.0586 1.6797.2019.3146.2362.7037.0939 1.0494-.0046.0114-.0093.0228-.0139.0342-.1428.3536-.4478.6125-.8209.6914-.6191.1308-1.2622.2692-1.9205.4146-.3761.083-.5151.5273-.5151 1.0408s.1407.9524.5151 1.0408c.6608.1561 1.3099.3026 1.9366.4393.3674.0801.6684.334.8112.6818.0046.0114.0093.0226.014.0339.1463.3499.1128.7453-.0941 1.063-.3453.5303-.7021 1.0829-1.0649 1.6512-.2072.3247.0087.7371.3718 1.1003.3631.363.7729.5739 1.1002.3717.5774-.3567 1.1396-.712 1.6793-1.0583.3157-.2026.7062-.2355 1.053-.0926.004.0016.0079.0032.0119.0049.3494.1431.6055.4441.686.813.1367.6265.2831 1.2753.4391 1.9357.0884.3746.5273.5153 1.0408.5153s.9578-.139 1.0408-.5151c.1454-.6583.2838-1.3014.4146-1.9205.0789-.3732.3378-.678.6913-.8209.0114-.0046.0228-.0093.0342-.0139.3457-.1423.7349-.108 1.0494.0939.5398.3464 1.1022.7018 1.6797 1.0586.3273.2022.7372-.0087 1.1003-.3717.3631-.3632.579-.7756.3718-1.1003-.3627-.5683-.7197-1.121-1.0649-1.6512-.2069-.3177-.2404-.7131-.0942-1.063.0048-.0113.0095-.0226.0141-.0339.1427-.3478.4438-.6017.8112-.6819.6266-.1367 1.2758-.2832 1.9365-.4393.3745-.0884.5152-.5273.5152-1.0408s-.1389-.9578-.5151-1.0408zm-7.9849 3.7626c-1.5032 0-2.7219-1.2186-2.7219-2.7219 0-1.5032 1.2187-2.7219 2.7219-2.7219 1.5033 0 2.7219 1.2186 2.7219 2.7219s-1.2186 2.7219-2.7219 2.7219z"/></svg>