<svg height="64" viewBox="0 0 64 64" width="64" xmlns="http://www.w3.org/2000/svg"><path d="m0 0h64v64h-64z" fill="none"/><path d="m58.069 5h-52.138c-1.0664 0-1.931.9661-1.931 2.1579v36.6842c0 1.1918.8646 2.1579 1.931 2.1579h22.069v14h8v-12.4614l-5.775-1.1494c-.3461-.111-.2955-.3359-.2727-.3972l28.1167.008c1.0664 0 1.931-.9661 1.931-2.1579v-36.6842c0-1.1918-.8646-2.1579-1.931-2.1579zm-42.691 28.5748h-2.1507v6.5834h-1.9208v-6.5834h-2.1508v-1.6607h6.2223zm5.557 6.5834h-4.5927v-8.2441h4.5568v1.6607h-2.6475v1.5184h2.4348v1.6612h-2.4348v1.7431h2.6834zm10.3049 0h-1.9209v-3.3448h-2.6297v3.3448h-1.9093v-8.2441h1.9093v3.1677h2.6297v-3.1677h1.9208v8.2441zm7.7686-3.035c0 1.9012-1.2559 3.1294-3.1998 3.1294-2.0765 0-3.1293-1.017-3.1293-3.023v-5.3156h1.9089v5.1503c0 .9911.4019 1.4332 1.3033 1.4332.8488 0 1.2789-.4742 1.2789-1.4092v-5.1742h1.838zm.9915-9.1232h-6v-6h-4v6h-6v-8h-1.6c-.2209 0-.4-.1791-.4-.4v-1.1926c0-.2236.0938-.4371.2584-.5886l9.4707-9.0351c.1531-.1408.3886-.1408.5417 0l9.4708 9.0351c.1646.1515.2584.365.2584.5885v1.1927c0 .2209-.1791.4-.4.4h-1.6zm6.7584 9.1232c0 1.9012-1.2559 3.1294-3.1997 3.1294-2.0765 0-3.1294-1.017-3.1294-3.023v-5.3156h1.9089v5.1503c0 .9911.4019 1.4332 1.3033 1.4332.8488 0 1.2794-.4742 1.2794-1.4092v-5.1742h1.8375zm5.7048 3.035-1.7723-2.9664h-.5849v2.9664h-1.9088v-8.2441h2.5143c1.9668 0 3.1413.9005 3.1413 2.4084 0 1.0193-.4713 1.8547-1.3043 2.3313l2.1469 3.5044z"/><path d="m50.6052 33.5393h-.4992v2.0507h.6179c.7377 0 1.1611-.4019 1.1611-1.1022.0001-.4924-.1551-.9485-1.2798-.9485z"/></svg>