<?xml version="1.0" encoding="utf-8"?>
<!-- Generator: Adobe Illustrator 19.1.0, SVG Export Plug-In . SVG Version: 6.00 Build 0)  -->
<svg version="1.2" baseProfile="tiny" xmlns="http://www.w3.org/2000/svg" xmlns:xlink="http://www.w3.org/1999/xlink" x="0px"
	 y="0px" width="64px" height="64px" viewBox="0 0 64 64" xml:space="preserve">
<g id="_x36_4px_Box">
	<rect fill="none" width="64" height="64"/>
</g>
<g id="Icon">
	<g>
		<path d="M5.7322,22.1865C10.8154,25.744,18,24.9166,18,24.9166S15,22.6334,15,17c0,0,5.6489,1.1193,6.2322,6.9932
			c0,0,4.75-2.0549,3.5833-6.6878c-1.1665-4.633-8.4165-3.9711-10.5833-7.2804S13.3154,2,13.3154,2S8.4822,4.1511,7.9822,7.874
			c-0.6899,5.137,3.5833,6.5358,2.75,7.8594c-0.8333,1.3237-3.5,0-5.0833-1.8201c-1.5835-1.8201-1.75-4.8812-1.75-4.8812
			S-1.0122,17.4666,5.7322,22.1865z"/>
		<rect x="15" y="27" width="10" height="14"/>
		<rect x="15" y="53" width="10" height="7"/>
		<path d="M38.3008,33.4087c3.0176-0.5029,7.4834-0.6089,10.6992-0.6089c1.4879,0,3.2439,0.025,5,0.0992V17
			c0-7.1797-5.8203-13-13-13S28.0449,9.8578,28.0449,17.0375c0,17.3174,0.005,13.2805,0.005,30.9473
			c-0.0563,0.0209-0.3124,0.0673-0.4141-0.2499L26.6885,43H14C7.3828,43,2,48.3828,2,55v5h8v-5c0-2.2061,1.7939-4,4-4h14v9h5.4834
			c-0.0226-0.1022-0.058-0.1991-0.0752-0.3032C32.9053,56.6812,32.7998,52.2153,32.7998,49s0.1055-7.6812,0.6094-10.7002
			C33.8242,35.7935,35.79,33.8267,38.3008,33.4087z"/>
		<path d="M46.4437,54.4588c-1.0325-1.2594-1.4935-2.7977-1.3424-4.3891c-0.0422-0.0583-0.1337-0.0736-0.2148,0.0662
			c-0.3176,0.548-0.5537,1.0927-0.6663,1.6549c-0.2388,1.1935,0.0531,2.3674,0.8223,3.3056
			c1.0432,1.2729,2.7512,1.811,4.3513,1.7213c0.2222-0.0124,0.2415-0.1061,0.2056-0.191
			C48.3367,56.1768,47.2473,55.4393,46.4437,54.4588z"/>
		<path d="M61.4349,38.826c-0.1949-1.1729-1.0873-2.0652-2.2607-2.2607C55.7827,36,50.1301,36,49,36s-6.7828,0-10.1743,0.5654
			c-1.1733,0.1955-2.0657,1.0878-2.2607,2.2607C36,42.2173,36,47.8696,36,49s0,6.7827,0.5649,10.174
			c0.1951,1.1729,1.0874,2.0652,2.2607,2.2607C42.2172,62,47.8699,62,49,62s6.7827,0,10.1742-0.5654
			c1.1735-0.1955,2.0658-1.0878,2.2607-2.2607C62,55.7827,62,50.1304,62,49C62,45.607,62,42.2173,61.4349,38.826z M49.0015,59.1194
			c-4.7256,0-7.9368-3.7221-7.1263-7.7991c0.7732-3.8898,4.9861-6.342,6.6984-11.5142c0.1328-0.4014,0.2517-0.5318,0.428-0.5318
			c0.1764,0,0.295,0.1304,0.428,0.5318c1.7122,5.1722,5.9382,7.6217,6.6982,11.5141
			C56.9263,55.4096,53.7269,59.1194,49.0015,59.1194z"/>
	</g>
</g>
</svg>
