<svg height="64" viewBox="0 0 64 64" width="64" xmlns="http://www.w3.org/2000/svg"><path d="m0 0h64v64h-64z" fill="none"/><path d="m5.7322 22.1865c5.0832 3.5575 12.2678 2.7301 12.2678 2.7301s-3-2.2832-3-7.9166c0 0 5.6489 1.1193 6.2322 6.9932 0 0 4.75-2.0549 3.5833-6.6878-1.1665-4.633-8.4165-3.9711-10.5833-7.2804s-.9168-8.025-.9168-8.025-4.8332 2.1511-5.3332 5.874c-.6899 5.137 3.5833 6.5358 2.75 7.8594-.8333 1.3237-3.5 0-5.0833-1.8201-1.5835-1.8201-1.75-4.8812-1.75-4.8812s-4.9111 8.4345 1.8333 13.1544z"/><path d="m15 27h10v14h-10z"/><path d="m15 53h10v7h-10z"/><path d="m38.3008 33.4087c3.0176-.5029 7.4834-.6089 10.6992-.6089 1.4879 0 3.2439.025 5 .0992v-15.899c0-7.1797-5.8203-13-13-13s-12.9551 5.8578-12.9551 13.0375c0 17.3174.005 13.2805.005 30.9473-.0563.0209-.3124.0673-.4141-.2499l-.9473-4.7349h-12.6885c-6.6172 0-12 5.3828-12 12v5h8v-5c0-2.2061 1.7939-4 4-4h14v9h5.4834c-.0226-.1022-.058-.1991-.0752-.3032-.5029-3.0156-.6084-7.4815-.6084-10.6968s.1055-7.6812.6094-10.7002c.415-2.5063 2.3808-4.4731 4.8916-4.8911z"/><path d="m46.4437 54.4588c-1.0325-1.2594-1.4935-2.7977-1.3424-4.3891-.0422-.0583-.1337-.0736-.2148.0662-.3176.548-.5537 1.0927-.6663 1.6549-.2388 1.1935.0531 2.3674.8223 3.3056 1.0432 1.2729 2.7512 1.811 4.3513 1.7213.2222-.0124.2415-.1061.2056-.191-1.2627-.4499-2.3521-1.1874-3.1557-2.1679z"/><path d="m61.4349 38.826c-.1949-1.1729-1.0873-2.0652-2.2607-2.2607-3.3915-.5653-9.0441-.5653-10.1742-.5653s-6.7828 0-10.1743.5654c-1.1733.1955-2.0657 1.0878-2.2607 2.2607-.565 3.3912-.565 9.0435-.565 10.1739s0 6.7827.5649 10.174c.1951 1.1729 1.0874 2.0652 2.2607 2.2607 3.3916.5653 9.0443.5653 10.1744.5653s6.7827 0 10.1742-.5654c1.1735-.1955 2.0658-1.0878 2.2607-2.2607.5651-3.3912.5651-9.0435.5651-10.1739 0-3.393 0-6.7827-.5651-10.174zm-12.4334 20.2934c-4.7256 0-7.9368-3.7221-7.1263-7.7991.7732-3.8898 4.9861-6.342 6.6984-11.5142.1328-.4014.2517-.5318.428-.5318.1764 0 .295.1304.428.5318 1.7122 5.1722 5.9382 7.6217 6.6982 11.5141.7985 4.0894-2.4009 7.7992-7.1263 7.7992z"/></svg>