<?xml version="1.0" encoding="utf-8"?>
<!-- Generator: Adobe Illustrator 21.0.2, SVG Export Plug-In . SVG Version: 6.00 Build 0)  -->
<!DOCTYPE svg PUBLIC "-//W3C//DTD SVG 1.1//EN" "http://www.w3.org/Graphics/SVG/1.1/DTD/svg11.dtd">
<svg version="1.1" xmlns="http://www.w3.org/2000/svg" xmlns:xlink="http://www.w3.org/1999/xlink" x="0px" y="0px" width="64px"
	 height="64px" viewBox="0 0 64 64" style="enable-background:new 0 0 64 64;" xml:space="preserve">
<style type="text/css">
	.st0{fill:none;}
</style>
<g id="_x36_4px_Box">
	<rect class="st0" width="64" height="64"/>
</g>
<g id="Icon">
	<g>
		<g>
			<path d="M33.4,50.8L43,34.3c0.8-1.4,2.4-2.3,4-2.3h0c0.3,0,0.7,0,1,0.1V29h4c0.6,0,1-0.5,1-1v-1.5c0-0.6-0.2-1.1-0.6-1.5L38,11.9
				l-9.2,10.2l4.4,12.1l-9.4-0.4l-6,8.7l3.5-11.8l6.4-0.5l-2.4-9.9l-6.1-3.9l8.3,0.9l7.1-8.4l-5.9-5.4c-0.4-0.4-1-0.4-1.4,0L3.6,25
				C3.2,25.4,3,25.9,3,26.5V28c0,0.6,0.4,1,1,1h4v21.9H33.4z M47,53.1c-0.8,0-1.3,0.6-1.3,1.4c0,0.9,0.5,1.3,1.3,1.3
				c0.8,0,1.3-0.6,1.3-1.3C48.3,53.6,47.8,53.1,47,53.1z M61.8,58.4L48.4,35.8C48.1,35.3,47.6,35,47,35h0c-0.6,0-1.1,0.3-1.4,0.8
				L32.4,58.4c-0.3,0.5-0.3,1.1,0,1.7c0.3,0.5,0.8,0.8,1.4,0.8h26.5c0.6,0,1.1-0.3,1.4-0.8C62.1,59.6,62.1,58.9,61.8,58.4z
				 M36.7,57.6L47,39.9l10.4,17.7H36.7z M46,51.9l2-0.1v-2l0.2-4.9L46,45.2V51.9z"/>
		</g>
	</g>
</g>
</svg>
