<svg height="64" viewBox="0 0 64 64" width="64" xmlns="http://www.w3.org/2000/svg"><path d="m0 0h64v64h-64z" fill="none"/><path d="m35.7768 33.5083c-.9233 0-1.9102.6392-1.9102 2.4326 0 1.6372.6782 2.5391 1.9102 2.5391.918 0 1.8984-.6357 1.8984-2.4209 0-1.669-.6562-2.5508-1.8984-2.5508z"/><path d="m44.6467 33.5083c-.9233 0-1.9102.6392-1.9102 2.4326 0 1.6372.6782 2.5391 1.9102 2.5391.918 0 1.8984-.6357 1.8984-2.4209 0-1.669-.6562-2.5508-1.8984-2.5508z"/><path d="m58.069 5h-52.138c-1.0664 0-1.931.9661-1.931 2.1579v36.6842c0 1.1918.8646 2.1579 1.931 2.1579h22.069v14h8v-12.4614l-5.775-1.1494c-.3461-.111-.2955-.3359-.2727-.3972l28.1167.008c1.0664 0 1.931-.9661 1.931-2.1579v-36.6842c0-1.1918-.8646-2.1579-1.931-2.1579zm-42.7643 28.5322h-2.1602v6.6108h-1.936v-6.6108h-2.1602v-1.6753h6.2563v1.6753zm5.5509 6.6109h-4.6191v-8.2861h4.5835v1.6753h-2.6587v1.5171h2.4453v1.6753h-2.4453v1.7432h2.6943zm8.6021 0-2.2549-3.3945h-.2925v3.3945h-1.9243v-8.2861h1.9243v3.2285h.2632l2.3506-3.2285h2.2637l-2.9209 3.9126 2.978 4.3735zm6.2361.1069c-2.3579 0-3.8228-1.6011-3.8228-4.1787 0-2.9854 2.0034-4.3213 3.9888-4.3213 2.3506 0 3.811 1.6011 3.811 4.1787 0 2.9854-1.9975 4.3213-3.977 4.3213zm4.3062-12.25h-6v-6h-4v6h-6v-8h-1.6c-.2209 0-.4-.1791-.4-.4v-1.1926c0-.2236.0938-.4371.2584-.5886l9.4707-9.0351c.1531-.1408.3886-.1408.5417 0l9.4708 9.0351c.1646.1515.2584.365.2584.5885v1.1927c0 .2209-.1791.4-.4.4h-1.6zm4.5637 12.25c-2.3579 0-3.8228-1.6011-3.8228-4.1787 0-2.9854 2.0034-4.3213 3.9888-4.3213 2.3506 0 3.811 1.6011 3.811 4.1787 0 2.9854-1.9975 4.3213-3.977 4.3213zm7.745-2.8364c-.23 0-.4199-.0063-.6045-.021v2.7505h-1.9243v-8.2861h2.6948c1.8237 0 2.957 1.0098 2.957 2.6357 0 1.7744-1.2261 2.9209-3.123 2.9209z"/><path d="m52.2613 33.4961h-.5571v2.2593c.1338.0127.2686.0186.4268.0186.4917 0 1.3164-.1528 1.3164-1.1748-.0001-.7525-.377-1.1031-1.1861-1.1031z"/></svg>