<svg height="64" viewBox="0 0 64 64" width="64" xmlns="http://www.w3.org/2000/svg"><path d="m0 0h64v64h-64z" fill="none"/><path d="m31.8086 43.9316c.1523-4.6855 2.3613-8.4404 5.9102-10.0449 1.5947-.7207 3.1904-1.0869 4.7422-1.0869 2.7168 0 4.915 1.1133 6.5391 2.4902.8015-.6796 1.7444-1.2936 2.819-1.7426l-3.8191-9.5474h-9v-8.3091c0-.2762-.2239-.5-.5-.5h-1.801l-5.7368-13.8819c-.1704-.412-.7539-.412-.9243 0l-5.7369 13.8819h-1.801c-.2761 0-.5.2238-.5.5v3.985c1.7842 1.2789 2.9651 3.2725 3.0742 5.4877 2.4258 1.6697 2.384 4.7947 1.4131 6.2466-.3428.5124-.5986.6079-.7988.5776l-.01.0122h-.1138c.4448-2.371-.7115-4.6921-2.7567-5.6705.4572-2.5472-1.2457-5.0757-3.9348-5.738-1.3668-.3367-2.7321-.1259-3.8478.4843-.541-.41-1.1644-.7196-1.8571-.8901-2.7941-.6882-5.6473 1.0895-6.5326 3.9968-2.2903.1149-4.5398 1.9351-5.219 4.6924-.5288 2.1476.0704 4.3561 1.2485 5.7371-.5469.6263-1.1382 1.4854-1.3528 2.3566-.4733 1.922.3319 3.7388 1.6271 4.9808l5.0397-6.908s7.4807 1.5022 7.75 1.5625c.302.068.302.3023.2708.3961h-7l-8 11v11h14v-11l7.1924-10.9999 6.8076 10.9999v11h9.0453c-4.6581-5.0499-6.3801-10.6569-6.2367-15.0684z"/><path d="m19 50h6v5h-6z"/><path d="m58.9634 36.8025c-6.6919-3.0259-9.9634 3.4797-9.9634 3.4797s-3.2716-6.5056-9.9634-3.4797c-6.6001 2.9844-6.1602 17.7913 9.3093 26.0352.4064.2164.9017.2164 1.3081 0 15.4694-8.2439 15.9095-23.0508 9.3094-26.0352z"/></svg>