<svg enable-background="new 0 0 64 64" height="64" viewBox="0 0 64 64" width="64" xmlns="http://www.w3.org/2000/svg"><path d="m0 0h64v64h-64z" fill="none"/><path d="m33 31h3.7c2.2-1.4 4.6-2.4 7.3-2.8v-22.2c0-1.1-.9-2-2-2h-32c-1.1 0-2 .9-2 2v47h15v-9h5.2c.6-3.8 2.3-7.2 4.8-9.8zm0-20h6v6h-6zm0 10h6v6h-6zm-14 16h-6v-6h6zm0-10h-6v-6h6zm0-10h-6v-6h6zm10 20h-6v-6h6zm0-10h-6v-6h6zm0-10h-6v-6h6z"/><path d="m47 31.2c-8.7 0-15.8 7.1-15.8 15.8s7.1 15.8 15.8 15.8 15.8-7.1 15.8-15.8-7.1-15.8-15.8-15.8zm0 27.7c-6.6 0-11.9-5.3-11.9-11.9s5.3-11.9 11.9-11.9 11.9 5.3 11.9 11.9-5.3 11.9-11.9 11.9z"/><path d="m54.5 46.8-7-.7-.6-7.7c-.1-.5-.4-.9-1-.9-.5 0-.9.4-1 .9l-.7 9.1c0 .9.7 1.6 1.5 1.6 0 0 8.7-.6 8.7-.6.6-.1 1-.3 1-.8.1-.6-.3-.8-.9-.9z"/></svg>