<?xml version="1.0" encoding="utf-8"?>
<!-- Generator: Adobe Illustrator 19.1.0, SVG Export Plug-In . SVG Version: 6.00 Build 0)  -->
<svg version="1.2" baseProfile="tiny" xmlns="http://www.w3.org/2000/svg" xmlns:xlink="http://www.w3.org/1999/xlink" x="0px"
	 y="0px" width="64px" height="64px" viewBox="0 0 64 64" xml:space="preserve">
<g id="_x36_4px_Box">
	<rect fill="none" width="64" height="64"/>
</g>
<g id="Icon">
	<g>
		<path d="M56.354,30.0468L32.6772,8.264c-0.3828-0.352-0.9716-0.352-1.3544,0L7.646,30.0468C7.2344,30.4257,7,30.9594,7,31.5184V33
			c0,0.5522,0.4478,1,1,1h4v21h8v-6h-4v-8h10v8h-4v6h30V34h4c0.5522,0,1-0.4478,1-1v-1.4816
			C57,30.9594,56.7656,30.4257,56.354,30.0468z M46,49H30V34h16V49z"/>
		<polygon points="38.5302,43.3341 41.4995,46.9286 40.8744,42.0057 38.2177,41.2244 39.546,39.6616 44,40.9118 39.7023,37.3174 
			36.8893,39.5052 32.826,37.1611 35.9516,41.5369 32.3571,44.5844 		"/>
	</g>
</g>
</svg>
