<svg height="64" viewBox="0 0 64 64" width="64" xmlns="http://www.w3.org/2000/svg"><path d="m0 0h64v64h-64z" fill="none"/><path d="m61.2248 30.2057-28.4122-26.8856c-.4594-.4269-1.166-.4269-1.6253 0l-28.4121 26.8856c-.494.4595-.7752 1.1067-.7752 1.7847v1.7969c0 .6696.5374 1.2127 1.2 1.2127h4.8v25h48v-25h4.8c.6626 0 1.2-.5431 1.2-1.2128v-1.7969c0-.6779-.2813-1.3251-.7752-1.7846zm-28.6114 21.411c-.3811.1995-.8457.1995-1.2267 0-14.5081-7.5994-14.9208-21.249-8.7308-24.0001 6.2758-2.7894 9.3441 3.2077 9.3441 3.2077s3.0683-5.9971 9.3442-3.2077c6.19 2.751 5.7773 16.4007-8.7308 24.0001z"/></svg>