<svg enable-background="new 0 0 64 64" height="64" viewBox="0 0 64 64" width="64" xmlns="http://www.w3.org/2000/svg"><path d="m0 0h64v64h-64z" fill="none"/><path d="m55 6h-32c-1.1 0-2 .9-2 2v12.8c1.4.1 2.4.6 3.4 1.1 2.1-.4 4.7-.2 6.5 3 .3.6 1.3 2.3 1 8.4 1.2 1 1.2 2.8 1.2 3.5 0 2.1-.7 3.8-2 4.8-.4 2.1-1.3 3.9-2.6 5.6 2.5.7 5.3 1.6 7.5 2.8v-4h6v9h15v-47c0-1.1-.9-2-2-2zm-23 13h-6v-6h6zm10 20h-6v-6h6zm0-10h-6v-6h6zm0-10h-6v-6h6zm10 20h-6v-6h6zm0-10h-6v-6h6zm0-10h-6v-6h6z"/><path d="m27.5 49.3c-.6-.2-1.1-.7-1.2-1.4-.1-.6-.2-1.2-.2-1.2 1.5-1.7 2.7-3.8 3-6.5 1.5-.4 1.7-2.3 1.7-3.4s-.2-1.7-.6-1.9c-.2-.1-.5-.1-.7-.1.1-2.4.3-7-.7-8.8-1.1-1.9-2.4-2.4-4.9-1.8-1.6-.9-2.7-1.7-5.6-.9-2 .5-4.1 1.4-5.2 2.9-1.2 1.6-1 6.2-.8 8.6-.2-.1-.5-.1-.7 0-.4.2-.6.8-.6 1.9s.3 2.9 1.7 3.4c.5 3.9 2.4 6.2 4.8 8.2.6.5 1.8.8 3 .9.1.2.1.4-.3.6-.7.2-2.9.6-5.3-.7 0 0 0 0-.1 0-1.8.5-8 2.2-9.9 4.3-.9.9-1.5 2.7-2 4.6h36c-.5-1.9-1.1-3.7-2-4.6-1.6-1.9-7-3.5-9.4-4.1z"/></svg>