<?xml version="1.0" encoding="utf-8"?>
<!-- Generator: Adobe Illustrator 21.0.2, SVG Export Plug-In . SVG Version: 6.00 Build 0)  -->
<!DOCTYPE svg PUBLIC "-//W3C//DTD SVG 1.1//EN" "http://www.w3.org/Graphics/SVG/1.1/DTD/svg11.dtd">
<svg version="1.1" xmlns="http://www.w3.org/2000/svg" xmlns:xlink="http://www.w3.org/1999/xlink" x="0px" y="0px" width="64px"
	 height="64px" viewBox="0 0 64 64" style="enable-background:new 0 0 64 64;" xml:space="preserve">
<style type="text/css">
	.st0{fill:none;}
	.st1{fill:#FFFFFF;}
</style>
<g id="_x36_4px_Box">
	<rect class="st0" width="64" height="64"/>
</g>
<g id="Icon">
	<g>
		<path d="M55,6H23c-1.1,0-2,0.9-2,2v12.8c1.4,0.1,2.4,0.6,3.4,1.1c2.1-0.4,4.7-0.2,6.5,3c0.3,0.6,1.3,2.3,1,8.4
			c1.2,1,1.2,2.8,1.2,3.5c0,2.1-0.7,3.8-2,4.8c-0.4,2.1-1.3,3.9-2.6,5.6c2.5,0.7,5.3,1.6,7.5,2.8v-4h6v9h15V8C57,6.9,56.1,6,55,6z
			 M32,19h-6v-6h6V19z M42,39h-6v-6h6V39z M42,29h-6v-6h6V29z M42,19h-6v-6h6V19z M52,39h-6v-6h6V39z M52,29h-6v-6h6V29z M52,19h-6
			v-6h6V19z"/>
		<path d="M27.5,49.3c-0.6-0.2-1.1-0.7-1.2-1.4c-0.1-0.6-0.2-1.2-0.2-1.2c1.5-1.7,2.7-3.8,3-6.5c1.5-0.4,1.7-2.3,1.7-3.4
			c0-1.1-0.2-1.7-0.6-1.9c-0.2-0.1-0.5-0.1-0.7-0.1c0.1-2.4,0.3-7-0.7-8.8c-1.1-1.9-2.4-2.4-4.9-1.8c-1.6-0.9-2.7-1.7-5.6-0.9
			c-2,0.5-4.1,1.4-5.2,2.9c-1.2,1.6-1,6.2-0.8,8.6c-0.2-0.1-0.5-0.1-0.7,0c-0.4,0.2-0.6,0.8-0.6,1.9c0,1.1,0.3,2.9,1.7,3.4
			c0.5,3.9,2.4,6.2,4.8,8.2c0.6,0.5,1.8,0.8,3,0.9c0.1,0.2,0.1,0.4-0.3,0.6c-0.7,0.2-2.9,0.6-5.3-0.7c0,0,0,0-0.1,0
			c-1.8,0.5-8,2.2-9.9,4.3c-0.9,0.9-1.5,2.7-2,4.6h36c-0.5-1.9-1.1-3.7-2-4.6C35.3,51.5,29.9,49.9,27.5,49.3z"/>
	</g>
</g>
</svg>
