<?xml version="1.0" encoding="utf-8"?>
<!-- Generator: Adobe Illustrator 17.1.0, SVG Export Plug-In . SVG Version: 6.00 Build 0)  -->
<svg version="1.2" baseProfile="tiny" xmlns="http://www.w3.org/2000/svg" xmlns:xlink="http://www.w3.org/1999/xlink" x="0px"
	 y="0px" width="64px" height="64px" viewBox="0 0 64 64" xml:space="preserve">
<g id="Box">
	<rect fill="none" width="64" height="64"/>
</g>
<g id="Icon">
	<g>
		<path d="M50,46.834V49h4v-2.166C53.3723,46.9404,52.7043,47,52,47S50.6277,46.9404,50,46.834z"/>
		<path d="M59,27.0975v15.47c0,1.6044-1.1489,2.9339-3,3.7059V49h6V29L59,27.0975z"/>
		<path d="M52,45c2.7614,0,5-1.0891,5-2.4324V17.4324C57,16.089,54.7614,15,52,15s-5,1.089-5,2.4324v25.1352
			C47,43.9109,49.2386,45,52,45z"/>
		<path d="M45,42.5676V18.2195L41.5,16H27.6454l11.4521,9.9159c0.2168,0.2529-0.0398,0.5909-0.087,0.6278L22.4993,16.0004L2,29v20
			h14v-8h15v8h17v-2.7265C46.1489,45.5015,45,44.1719,45,42.5676z M13,45H5v-4h8V45z"/>
	</g>
</g>
</svg>
