<svg height="64" viewBox="0 0 64 64" width="64" xmlns="http://www.w3.org/2000/svg"><path d="m0 0h64v64h-64z" fill="none"/><path d="m57 20.5184c0-.3547-.1879-.6828-.4937-.8624l-23.196-13.62c-.809-.475-1.8116-.475-2.6206 0l-23.196 13.6201c-.3058.1795-.4937.5077-.4937.8623v2.4816h50zm-25-1.3338c-1.759 0-3.1846-1.4255-3.1846-3.1846s1.4256-3.1846 3.1846-3.1846c1.7589 0 3.1846 1.4255 3.1846 3.1846s-1.4257 3.1846-3.1846 3.1846z"/><path d="m56 53v-4h-4v-24h-6v24h-11v-24h-6v24h-11v-24h-6v24h-4c-.0007.0829.0005 2.2811.0005 2.2811l6.7305 1.3395c.324.104.3019.3019.2788.3795h-7.0093l-.0005-.0024v.0023h-4v4h56v-4z"/></svg>