<?xml version="1.0" encoding="utf-8"?>
<!-- Generator: Adobe Illustrator 19.1.0, SVG Export Plug-In . SVG Version: 6.00 Build 0)  -->
<svg version="1.2" baseProfile="tiny" xmlns="http://www.w3.org/2000/svg" xmlns:xlink="http://www.w3.org/1999/xlink" x="0px"
	 y="0px" width="64px" height="64px" viewBox="0 0 64 64" xml:space="preserve">
<g id="_x36_4px_Box">
	<rect fill="none" width="64" height="64"/>
</g>
<g id="Icon">
	<g>
		<path d="M57,20.5184c0-0.3547-0.1879-0.6828-0.4937-0.8624L33.3103,6.036c-0.809-0.475-1.8116-0.475-2.6206,0L7.4937,19.6561
			C7.1879,19.8356,7,20.1638,7,20.5184V23h50V20.5184z M32,19.1846c-1.759,0-3.1846-1.4255-3.1846-3.1846S30.241,12.8154,32,12.8154
			c1.7589,0,3.1846,1.4255,3.1846,3.1846S33.7589,19.1846,32,19.1846z"/>
		<path d="M56,53v-4h-4V25h-6v24H35V25h-6v24H18V25h-6v24H8c-0.0007,0.0829,0.0005,2.2811,0.0005,2.2811l6.7305,1.3395
			c0.324,0.104,0.3019,0.3019,0.2788,0.3795H8.0005L8,52.9977V53H4v4h56v-4H56z"/>
	</g>
</g>
</svg>
