<svg height="64" viewBox="0 0 64 64" width="64" xmlns="http://www.w3.org/2000/svg"><path d="m0 0h64v64h-64z" fill="none"/><path d="m62 16h-2c-.4-6.3-2.1-9.5-3-10.7-.1-.2-.3-.3-.5-.3s-.4.1-.5.3c-.8 1.1-2.4 3.9-2.9 9.3 1.7.3 5 1 5.2 1 .3.1.3.3.2.4h-7.5c-.7 0-1.2.8-.9 1.4.8 1.5 1.9 4.1 1.9 7.6v10h-4c0-8.6-6.8-15.6-15.3-16 1.5-.2 2.6-1.1 3.2-2.4-.4.2-.8.4-1.2.4-1.7.2-3.3-1-3.5-2.7-.2-1.6.8-3 2.3-3.4-.6-.2-1.2-.3-1.9-.2-2.3.3-3.9 2.4-3.6 4.7.2 1.9 1.7 3.3 3.6 3.6-8 .2-14.6 6.3-15.5 14.2 2.3.4 6.2 1.2 6.5 1.3.4.1.4.4.3.5h-11v-10c0-3.5 1.1-6.1 1.9-7.6.3-.6-.1-1.4-.9-1.4h-2c-.3-6.3-2-9.5-2.9-10.7-.1-.2-.3-.3-.5-.3s-.4.1-.5.3c-.8 1.1-2.4 3.9-2.9 9.3 1.7.3 5 1 5.2 1 .3.1.3.3.2.4h-7.5c-.7 0-1.2.8-.9 1.4.8 1.5 1.9 4.1 1.9 7.6v33h21v-9c0-5.5 6-8.2 7.6-8.8.1-.1.3-.1.4-.1s.3 0 .4.1c1.6.7 7.6 3.4 7.6 8.8v9h21v-33c0-3.5 1.1-6.1 1.9-7.6.3-.6-.2-1.4-.9-1.4z"/></svg>