<svg height="64" viewBox="0 0 64 64" width="64" xmlns="http://www.w3.org/2000/svg"><path d="m0 0h64v64h-64z" fill="none"/><path d="m40 3.5c0-.2762-.2239-.5-.5-.5h-25c-.2761 0-.5.2238-.5.5v27.5h-6.5c-.2761 0-.5.2238-.5.5v29.5h20v-42c0-.5523.4477-1 1-1h12z"/><path d="m56.5 20h-27c-.2761 0-.5.2238-.5.5v40.5h12v-6h4v6h12v-40.5c0-.2762-.2239-.5-.5-.5zm-18.5 31h-4v-4h4zm0-7h-4v-4h4zm0-7h-4v-4h4zm0-7h-4v-4h4zm7 21h-4v-4h4zm0-7h-4v-4h4zm0-7h-4v-4h4zm0-7h-4v-4h4zm7 21h-4v-4h4zm0-7h-4v-4h4zm0-7h-4v-4h4zm0-7h-4v-4h4z"/></svg>