<svg enable-background="new 0 0 64 64" height="64" viewBox="0 0 64 64" width="64" xmlns="http://www.w3.org/2000/svg"><path d="m0 0h64v64h-64z" fill="none"/><path d="m54.9 9.3c-3.1-3.1-7-4.3-8.7-2.7l-36.2 36.3-4.7 14.8c-.2.8.5 1.5 1.3 1.3l14.8-4.7 9.7-9.7v-5.7l-11.7 11.6c-.6.6-.5 1.2-.1 1.7l-7.2 2.3-2.4-2.4 2.3-7.1c.6.4 1.2.4 1.7-.1l36-36c.5.2 1.1.5 1.8 1l-16.1 16.1h5.7l13.3-13.3c.5.7.8 1.3 1 1.8l-11.5 11.5h5.7l8-8c1.6-1.6.4-5.5-2.7-8.7z"/><path d="m15.6 48.7c.8.8 1.6 1.2 2.4.4l13-13v-5.7l-15.8 15.9c-.8.7-.4 1.6.4 2.4z"/><path d="m54 29h-19c-.6 0-1 .4-1 1v29h9v-5h3v5h9v-29c0-.6-.4-1-1-1zm-13 22h-3v-3h3zm0-5h-3v-3h3zm0-5h-3v-3h3zm0-5h-3v-3h3zm5 15h-3v-3h3zm0-5h-3v-3h3zm0-5h-3v-3h3zm0-5h-3v-3h3zm5 15h-3v-3h3zm0-5h-3v-3h3zm0-5h-3v-3h3zm0-5h-3v-3h3z"/></svg>