<svg height="64" viewBox="0 0 64 64" width="64" xmlns="http://www.w3.org/2000/svg"><path d="m0 0h64v64h-64z" fill="none"/><path d="m8 34h4v17.2988c1.0001.6515 3.7699 2.6719 6.2861 2.6719 2.5491 0 5.3216-2.0464 6.8569-3.0547.085.0546 1.7718 1.1626 1.8569 1.2185v-12.1345h10v12.1377l1.8604-1.208c1.3958.8973 4.2365 3.041 6.8535 3.041 2.426 0 5.0436-1.8613 6.2861-2.6682v-17.3025h4c.5522 0 1-.4478 1-1v-1.4816c0-.559-.2344-1.0927-.646-1.4716l-23.6767-21.7828c-.3828-.352-.9716-.352-1.3544 0l-23.6768 21.7828c-.4116.3789-.646.9126-.646 1.4716v1.4816c0 .5522.4478 1 1 1z"/><path d="m59.4282 56.07c-2.531 0-4.9503-1.3942-6.856-2.6357-1.9217 1.2474-4.3122 2.6357-6.8584 2.6357-2.531 0-4.9498-1.3942-6.8555-2.6357-1.9216 1.2474-4.3121 2.6357-6.8583 2.6357-2.5021 0-4.9015-1.3581-6.8569-2.6426-1.9785 1.2996-4.3679 2.6426-6.8569 2.6426-2.531 0-4.9498-1.3942-6.8555-2.6357-1.9293 1.2523-4.3173 2.6357-6.8589 2.6357-1.2473 0-2.5317-.3867-3.5718-.813v4.1675c1.1038.3346 2.3297.5755 3.5718.5755 2.7476 0 5.415-1.1777 6.8574-1.9424 1.4419.7647 4.1094 1.9424 6.8569 1.9424 2.7471 0 5.415-1.1777 6.8569-1.9424 1.442.7647 4.1094 1.9424 6.857 1.9424s5.415-1.1777 6.8569-1.9424c1.4419.7647 4.1099 1.9424 6.857 1.9424 2.7476 0 5.415-1.1777 6.8569-1.9424 1.4424.7647 4.1099 1.9424 6.8574 1.9424 1.2421 0 2.468-.2409 3.5718-.5755v-4.1701c-1.0424.4273-2.3286.8156-3.5718.8156z"/></svg>