<svg height="64" viewBox="0 0 64 64" width="64" xmlns="http://www.w3.org/2000/svg"><path d="m0 0h64v64h-64z" fill="none"/><path d="m53.668 54.1481-1.0957-.7139-1.0952.7109c-.0298.0195-2.9932 1.9248-5.7632 1.9248-2.7695 0-5.7339-1.9053-5.7598-1.9219l-1.0957-.7139-1.0952.7109c-.0298.0197-2.9932 1.925-5.7632 1.925s-5.7334-1.9053-5.7598-1.9219l-1.0972-.7207-1.0972.7207c-.0293.0186-3.0063 1.9219-5.7598 1.9219-2.77 0-5.7334-1.9053-5.7598-1.9219l-1.0957-.7139-1.0952.7109c-.0291.0196-2.9935 1.9249-5.7635 1.9249-1.2473 0-2.5317-.3867-3.5718-.813v4.1675c1.1038.3346 2.3297.5755 3.5718.5755 2.7476 0 5.415-1.1777 6.8574-1.9424 1.4419.7647 4.1094 1.9424 6.8569 1.9424 2.7471 0 5.415-1.1777 6.8569-1.9424 1.442.7647 4.1094 1.9424 6.857 1.9424s5.415-1.1777 6.8569-1.9424c1.4419.7647 4.1099 1.9424 6.857 1.9424 2.7476 0 5.415-1.1777 6.8569-1.9424 1.4424.7647 4.1099 1.9424 6.8574 1.9424 1.2421 0 2.468-.2409 3.5718-.5755v-4.1701c-1.0424.4273-2.3286.8156-3.5718.8156-2.77 0-5.7344-1.9053-5.7602-1.9219z"/><path d="m8 34h4v9.2988l1.6729 1.0898c.0239.0156 2.5288 1.582 4.6133 1.582 1.7422 0 3.9346-1.1504 4.6323-1.5938l2.2246-1.4609.0547.0352 1.8022 1.1834v-4.1345h10v4.1377l1.8604-1.208.0547.0352 2.1855 1.4238c.688.4395 2.8599 1.582 4.6133 1.582 1.7554 0 3.9341-1.1475 4.6255-1.5898l1.6606-1.0783v-9.3026h4c.5522 0 1-.4478 1-1v-1.4816c0-.559-.2344-1.0927-.646-1.4716l-23.6768-21.7828c-.3828-.352-.9716-.352-1.3544 0l-23.6768 21.7828c-.4116.3789-.646.9126-.646 1.4716v1.4816c0 .5522.4478 1 1 1z"/><path d="m59.4282 48.07c-2.77 0-5.7344-1.9053-5.7603-1.9219l-1.0957-.7139-1.0952.7109c-.0298.0195-2.9932 1.9248-5.7632 1.9248-2.7695 0-5.7339-1.9053-5.7598-1.9219l-1.0957-.7139-1.0952.7109c-.0297.0197-2.9931 1.925-5.7631 1.925s-5.7334-1.9053-5.7598-1.9219l-1.0972-.7207-1.0972.7207c-.0293.0186-3.0063 1.9219-5.7598 1.9219-2.77 0-5.7334-1.9053-5.7598-1.9219l-1.0957-.7139-1.0952.7109c-.0291.0196-2.9935 1.9249-5.7635 1.9249-1.2473 0-2.5317-.3867-3.5718-.813v4.1675c1.1038.3346 2.3297.5755 3.5718.5755 2.7476 0 5.415-1.1777 6.8574-1.9424 1.4419.7647 4.1094 1.9424 6.8569 1.9424 2.7471 0 5.415-1.1777 6.8569-1.9424 1.442.7647 4.1094 1.9424 6.857 1.9424s5.415-1.1777 6.8569-1.9424c1.4419.7647 4.1099 1.9424 6.857 1.9424 2.7476 0 5.415-1.1777 6.8569-1.9424 1.4424.7647 4.1099 1.9424 6.8574 1.9424 1.2421 0 2.468-.2409 3.5718-.5755v-4.1701c-1.0424.4273-2.3286.8156-3.5718.8156z"/></svg>