<svg height="64" viewBox="0 0 64 64" width="64" xmlns="http://www.w3.org/2000/svg"><path d="m0 0h64v64h-64z" fill="none"/><path d="m61.5476 37.5236c-11.2015-2.8004-23.4297 6.1157-21.0464 15.2471-2.5654 1.2674-4.4546 1.6068-5.9435 1.9136-1.5688.3239-1.6949 1.5034-1.4234 2.5933.2884 1.158 1.0246 1.9274 2.1826 1.6389 6.0712-1.5118 9.7067-3.3164 15.3818-10.0301.0887.051.2579.2042.0828.6116-1.0638 2.4736-3.3842 5.8259-6.568 9.2185 2.6432 1.782 6.3507 1.6449 8.6145-.1041 6.5978-5.0974.4026-9.6965 8.9774-20.2509.2374-.2923.1075-.7466-.2578-.8379z"/><path d="m37.0239 50.8186c-.0839-3.0763.9792-6.1661 3.1097-8.9241 3.0721-3.9769 8.0736-6.8132 13.3876-7.7511l-1.5212-28.1434c0-1.1046-2.2386-2-5-2s-5 .8954-5 2l-1.0183 20.1597c2.1652 2.0896 4.6332 4.5406 4.7766 4.68.2523.2452.0237.4298.0237.4298l-15.2897-8.7c-.6666-.3771-1.4923.1046-1.4923.8704v4.8572l-10.5196-5.7609c-.6665-.365-1.4804.1173-1.4804.8771v4.8617l-.0398-.0121-10.4805-5.7286c-.6664-.3643-1.4796.118-1.4796.8774v32.5883h24.847c.085-.9493.3989-1.6779.7182-2.1854.5018-.7977 1.4904-1.8292 3.3505-2.2131 1-.205 1.9552-.3885 3.1081-.7829zm-21.0239-2.8186h-5.9999v-6h5.9999zm12 0h-6v-6h6z"/></svg>