<?xml version="1.0" encoding="utf-8"?>
<!-- Generator: Adobe Illustrator 19.1.0, SVG Export Plug-In . SVG Version: 6.00 Build 0)  -->
<svg version="1.2" baseProfile="tiny" xmlns="http://www.w3.org/2000/svg" xmlns:xlink="http://www.w3.org/1999/xlink" x="0px"
	 y="0px" width="64px" height="64px" viewBox="0 0 64 64" xml:space="preserve">
<g id="_x36_4px_Box">
	<rect fill="none" width="64" height="64"/>
</g>
<g id="Icon">
	<g>
		<path d="M61.5476,37.5236c-11.2015-2.8004-23.4297,6.1157-21.0464,15.2471c-2.5654,1.2674-4.4546,1.6068-5.9435,1.9136
			c-1.5688,0.3239-1.6949,1.5034-1.4234,2.5933c0.2884,1.158,1.0246,1.9274,2.1826,1.6389
			c6.0712-1.5118,9.7067-3.3164,15.3818-10.0301c0.0887,0.051,0.2579,0.2042,0.0828,0.6116
			c-1.0638,2.4736-3.3842,5.8259-6.568,9.2185c2.6432,1.782,6.3507,1.6449,8.6145-0.1041
			c6.5978-5.0974,0.4026-9.6965,8.9774-20.2509C62.0428,38.0692,61.9129,37.6149,61.5476,37.5236z"/>
		<path d="M37.0239,50.8186c-0.0839-3.0763,0.9792-6.1661,3.1097-8.9241c3.0721-3.9769,8.0736-6.8132,13.3876-7.7511L52,6
			c0-1.1046-2.2386-2-5-2s-5,0.8954-5,2l-1.0183,20.1597c2.1652,2.0896,4.6332,4.5406,4.7766,4.68
			c0.2523,0.2452,0.0237,0.4298,0.0237,0.4298l-15.2897-8.7C29.8257,22.1924,29,22.6741,29,23.4399v4.8572l-10.5196-5.7609
			C17.8139,22.1712,17,22.6535,17,23.4133v4.8617l-0.0398-0.0121L6.4797,22.5343c-0.6664-0.3643-1.4796,0.118-1.4796,0.8774V56
			h24.847c0.085-0.9493,0.3989-1.6779,0.7182-2.1854c0.5018-0.7977,1.4904-1.8292,3.3505-2.2131
			C34.9158,51.3965,35.871,51.213,37.0239,50.8186z M16,48h-5.9999v-6H16V48z M28,48h-6v-6h6V48z"/>
	</g>
</g>
</svg>
