<svg height="64" viewBox="0 0 64 64" width="64" xmlns="http://www.w3.org/2000/svg"><path d="m0 0h64v64h-64z" fill="none"/><path d="m28.0801 18.4209-13.2583 6.2393-6.8218 12.8846v19.4552h11v-11.2222s3.2625-3.7778 9-3.7778 9 3.7778 9 3.7778v11.2222h11v-4-15.7577l-6.6616-12.5822zm2.9199 16.5791h-6v-8h6z"/><path d="m28.0801 16.2104 14.7139 6.9238 7.8699 14.8658h4.5257l-9.173-17.3271c-.2031-.3823-.5244-.689-.916-.8735l-16.1689-7.6089c-.5391-.2539-1.1641-.2539-1.7031 0l-16.1689 7.6089c-.3916.1846-.7129.4912-.916.8735l-9.1731 17.3271h4.5257l7.8699-14.8657z"/><path d="m53.514 7.5965c-.6259-.3682-1.4022-.3682-2.0281 0l-7.4859 4.4035v5.0706l1.9521.9186c.7798.3691 1.4277.9883 1.8301 1.7441.0005.001.0015.0029.002.0039l9.1729 17.3271c.3281.6201.3076 1.3662-.0542 1.9668-.3619.6017-1.0118.9689-1.7134.9689h-5.1895v13h11v-41z"/></svg>