<svg enable-background="new 0 0 64 64" height="64" viewBox="0 0 64 64" width="64" xmlns="http://www.w3.org/2000/svg"><path d="m0 0h64v64h-64z" fill="none"/><path d="m12.1 15.8h5.6l12.7-10.6c.9-.8 2.2-.7 3.2 0l12.7 10.6h5.6c.3 0 .5-.4.3-.6l-8.6-12.5c-.3-.4-.8-.7-1.3-.7h-20.6c-.5 0-1 .3-1.3.7l-8.6 12.5c-.2.3-.1.6.3.6zm19.9-8.5-13.1 10.9h-4.7v22.8h35.6v-22.8h-4.7zm-6 28.7h-6v-4h6zm0-6h-6v-7h6zm9 6h-6v-4h6zm0-6h-6v-7h6zm-3-11c-1.9 0-3.5-1.6-3.5-3.5s1.6-3.5 3.5-3.5 3.5 1.6 3.5 3.5c0 2-1.6 3.5-3.5 3.5zm12 17h-6v-4h6zm0-6h-6v-7h6zm8.2 14.8c-2.8 1-6.4 2.4-9.2 3.6.1.4.1.9 0 1.4-.4 2.8-2.8 4.6-6.2 4.7-7.7.4-12.5-1.6-13.5-2-.3-.1-.3-.3-.3-.4 5.6 1 9.1 1.1 13.5.4 3.3-.5 4.5-2.1 4.5-3.4s-.9-2-3-2.1c-7-.2-11-1-16.9-1.8-4.1-.6-8.1.5-11.4 2.6-3.2 2-4 3-4 3l5.8 11.1 7.5-3c.9-.3 1.8-.5 2.7-.3l10.3 2.3c2.3.4 4.6-.1 6.6-1.2l20.4-12.9s-1-4-6.8-2z"/></svg>