<svg enable-background="new 0 0 64 64" height="64" viewBox="0 0 64 64" width="64" xmlns="http://www.w3.org/2000/svg"><path d="m0 0h64v64h-64z" fill="none"/><path d="m26.9 38h2.1v-2h-2.4zm-16.9-4.8v-1.2c0-1 .4-2 1.2-2.7l10-9.4-3.9-3.7c-.2-.2-.6-.2-.9 0l-15 14.2c-.3.2-.4.5-.4.9v.9c0 .4.3.6.6.6h2.5v13.2h9.9v-10h-1.2c-1.5 0-2.8-1.3-2.8-2.8zm16.2.8h2.8v-2h-3.1zm36.4-3.7-15-14.2c-.2-.2-.6-.2-.9 0l-3.9 3.7 10 9.5c.8.7 1.2 1.7 1.2 2.7v1.2c0 1.5-1.3 2.8-2.8 2.8h-1.2v10h9.8v-13.2h2.5c.3 0 .6-.3.6-.6v-.9c.1-.4-.1-.7-.3-1zm-31.6 7.7h3v-2h-3zm5-4h2.6l.3-2h-2.9zm16-.8v-1.2c0-.5-.2-.9-.5-1.2l-19-17.9c-.3-.3-.8-.3-1.1 0l-18.9 17.9c-.3.3-.5.7-.5 1.2v1.2c0 .4.4.8.8.8h3.2v16.9h32v-16.9h3.2c.4 0 .8-.4.8-.8zm-26.5 15.1c-1 0-1.8-.8-1.8-1.8s.8-1.8 1.8-1.8 1.8.8 1.8 1.8-.8 1.8-1.8 1.8zm13 0c-1 0-1.8-.8-1.8-1.8s.8-1.8 1.8-1.8 1.8.8 1.8 1.8-.8 1.8-1.8 1.8zm1.7-9.2c-.1.5-.5.9-1 .9h-13.2c-.6 0-1 .4-1 1s.4 1 1 1h13c.6 0 1 .4 1 1s-.4 1-1 1h-13.3c-1.7 0-3-1.3-3-3 0-1.3.8-2.4 1.9-2.8l-1.3-8.2c-1.3 0-2.9-.3-2.9-1.2 0-.5.4-.8.9-.8h3.1c.5 0 .9.4 1 .8l.2 1.2h14.7c.3 0 .6.1.8.3s.3.5.2.8zm-4.2-1.1h2l.3-2h-2.3zm-5-4h3v-2h-3z"/></svg>