<?xml version="1.0" encoding="utf-8"?>
<!-- Generator: Adobe Illustrator 18.1.1, SVG Export Plug-In . SVG Version: 6.00 Build 0)  -->
<svg version="1.2" baseProfile="tiny" xmlns="http://www.w3.org/2000/svg" xmlns:xlink="http://www.w3.org/1999/xlink" x="0px"
	 y="0px" width="64px" height="64px" viewBox="0 0 64 64" xml:space="preserve">
<g id="Box">
	<rect fill="none" width="64" height="64"/>
</g>
<g id="Icon">
	<g>
		<path d="M19,30h25l-4-3.9998L39.9999,26H40v-3h1l-1.5-2h-1.3422L33,7.9511h-0.0001c1.7191-2.1776-0.2598-3.5805-1.1646-6.6982
			c-0.098-0.3375-0.5687-0.337-0.666,0.0007C30.2712,4.3708,28.281,5.7736,30,7.9511L24.8421,21H23.5L22,23h1v3L19,30z M30,23l1.5-2
			l1.5,2v3h-3V23z"/>
		<path d="M18,32v31h27V32H18z M25,54h-3v-6h3V54z M25,42h-3v-6h3V42z M34,54h-5v-6h5V54z M34,42h-5v-6h5V42z M41,54h-3v-6h3V54z
			 M41,42h-3v-6h3V42z"/>
	</g>
</g>
</svg>
