<svg height="64" viewBox="0 0 64 64" width="64" xmlns="http://www.w3.org/2000/svg"><path d="m0 0h64v64h-64z" fill="none"/><path d="m19 30h25l-4-3.9998-.0001-.0002h.0001v-3h1l-1.5-2h-1.3422l-5.1578-13.0489h-.0001c1.7191-2.1776-.2598-3.5805-1.1646-6.6982-.098-.3375-.5687-.337-.666.0007-.8981 3.1172-2.8883 4.52-1.1693 6.6975l-5.1579 13.0489h-1.3421l-1.5 2h1v3zm11-7 1.5-2 1.5 2v3h-3z"/><path d="m18 32v31h27v-31zm7 22h-3v-6h3zm0-12h-3v-6h3zm9 12h-5v-6h5zm0-12h-5v-6h5zm7 12h-3v-6h3zm0-12h-3v-6h3z"/></svg>