<svg height="64" viewBox="0 0 64 64" width="64" xmlns="http://www.w3.org/2000/svg"><path d="m0 0h64v64h-64z" fill="none"/><path d="m61.2248 30.2057-28.4122-26.8855c-.4594-.4269-1.1659-.4269-1.6253 0l-28.4121 26.8855c-.494.4595-.7752 1.1067-.7752 1.7847v1.7968c0 .6697.5374 1.2128 1.2 1.2128h4.8v25h48v-25h4.8c.6627 0 1.2-.5431 1.2-1.2128v-1.7968c0-.678-.2813-1.3252-.7752-1.7847zm-13.859 9.0949-2.3658 1.196v6.5368c0 2.64-2.085 4.4888-4.2587 4.204-2.1656-.2838-7.6367-1.4851-7.6367-1.4851-.0211.0347-.0781.1658.1198.2739l3.7189 1.9171.0916 4.0567h-15.1039s1.4017-5.7189 1.2801-7.6206c-.2775-4.3373-4.1161-10.0906-5.4588-14.1484-1.1541-3.488-1.8956-10.4533 4.9579-14.1799 6.4978-3.5331 15.2293-3.3716 17.6776-1.7978 2.149 1.3815 2.8466 3.8217 1.4184 6.5453 0 0 1.3205 2.886 1.7717 5.4942.0894.5165-.1385 1.645 0 2.2562l4.1951 4.8274c.4217.6433.2389 1.5068-.4072 1.9242z"/><path d="m31.5 21.2188v1.6613c4.3231.4966 7.6818 4.1638 7.6818 8.6199 0 2.1005-.7462 4.0265-1.9876 5.5281l-1.3362-1.3365c.0014-.0018.0031-.0034.0045-.0051l-1.1804-1.1808c-.9372 1.3013-2.4559 2.1566-4.1821 2.1566-1.1273 0-2.162-.3714-3.011-.9846l-1.1808 1.181c1.1573.9073 2.6106 1.4536 4.1918 1.4536 1.5814 0 3.0321-.5488 4.188-1.4575l1.3397 1.3399c-1.5015 1.2412-3.4274 1.9872-5.5277 1.9872-2.6937 0-5.1006-1.2271-6.693-3.1524l2.4264-2.4264-.0014-.0014.0905-.0905c-.6132-.849-.9846-1.8837-.9846-3.0111 0-2.851 2.3112-5.1622 5.1622-5.1622 1.1274 0 2.162.3714 3.011.9846l-1.3507 1.3507c-.4894-.2886-1.0522-.4657-1.6603-.4657-1.8155 0-3.2925 1.4771-3.2925 3.2925s1.4771 3.2925 3.2925 3.2925 3.2925-1.477 3.2925-3.2925c0-.6081-.1771-1.171-.4657-1.6603l1.3507-1.3507c.6132.849.9846 1.8837.9846 3.011 0 .4988-.0931.9713-.225 1.4275l1.3005 1.301c.3673-.8363.5745-1.7581.5745-2.7285 0-3.7562-3.056-6.8121-6.8122-6.8121-1.5814 0-3.0349.5464-4.1922 1.4539l-1.3287-1.3287c1.2595-1.0396 2.8124-1.7368 4.5209-1.933v-1.6613c-5.2292.5048-9.3318 4.9218-9.3318 10.2812 0 5.697 4.6349 10.3318 10.3318 10.3318s10.3318-4.6348 10.3318-10.3318c0-5.3594-4.1026-9.7764-9.3318-10.2812zm-1 11.9237c-.9071 0-1.6425-.7354-1.6425-1.6425s.7354-1.6425 1.6425-1.6425 1.6425.7354 1.6425 1.6425-.7354 1.6425-1.6425 1.6425zm-7.6343 2.4952c-.668-1.23-1.0475-2.6395-1.0475-4.1377 0-2.1004.7527-4.02 1.9944-5.5204l1.3287 1.3287c-.9073 1.1573-1.4536 2.6105-1.4536 4.1917 0 .9715.2263 1.8839.5958 2.7198z"/></svg>