<svg height="64" viewBox="0 0 64 64" width="64" xmlns="http://www.w3.org/2000/svg"><path d="m0 0h64v64h-64z" fill="none"/><path d="m32 6.1277 9.1215 11.8723h18.8197l-7.9412-15h-20-20l-7.9412 15h18.8197z"/><path d="m32 9.7059-8 10.2941h-17v40h12v-2h4v-2h4v-16h10v16h4v2h4v2h12v-40h-17zm-10 41.2941-10 .0588v-11.0588h10zm0-16h-10v-11h10zm10-19.2471c1.5434 0 2.7941 1.2037 2.7941 2.7471 0 1.5433-1.2507 2.75-2.7941 2.75s-2.7941-1.2067-2.7941-2.75c0-1.5434 1.2507-2.7471 2.7941-2.7471zm5 19.2471h-10v-11h10zm5-11h10v11h-10zm0 16h10v11.0588l-10-.0588z"/></svg>