<svg height="64" viewBox="0 0 64 64" width="64" xmlns="http://www.w3.org/2000/svg"><path d="m0 0h64v64h-64z" fill="none"/><path d="m61.2248 30.2057-28.4122-26.8855c-.4594-.4269-1.1659-.4269-1.6253 0l-28.4121 26.8855c-.4939.4595-.7752 1.1067-.7752 1.7847v1.7968c0 .6697.5374 1.2128 1.2 1.2128h4.8v25h48v-25h4.8c.6626 0 1.2-.5431 1.2-1.2128v-1.7968c0-.678-.2813-1.3252-.7752-1.7847zm-38.7248 24.9443c-2.0158 0-3.65-1.6342-3.65-3.65s1.6342-3.65 3.65-3.65 3.65 1.6342 3.65 3.65-1.6342 3.65-3.65 3.65zm17 0c-2.0158 0-3.65-1.6342-3.65-3.65s1.6342-3.65 3.65-3.65 3.65 1.6342 3.65 3.65-1.6342 3.65-3.65 3.65zm2.0917-9.3738-5.9131.4287h-.0635c-2.1553 0-3.9912-1.4688-4.4644-3.5718l-1.7177-7.7291c-.08-.0023-.2423.0284-.2716.3205l.0711 5.0892-2.7798 7.0886c-.8441-.8145-1.9375-1.3679-3.1537-1.5397l5.4874-13.8487-1.9908-8.8975-3.4768.0011-.212.0001c-.7739.0003-1.4013-.6268-1.4015-1.4006-.0004-.7024.5168-1.2841 1.191-1.3857l5.165-.7831c.9559-.1449 1.8511.4932 2.0399 1.4311l4.4652 20.8877c.1069.4771.5146.8154 1 .8369l5.7725-.4189c.9536-.0684 1.8018.6553 1.8721 1.6191.0697.9639-.6554 1.8018-1.6193 1.8721zm-.5917-8.7762h-5l-2.3185-11h9.7979z"/></svg>