<svg height="64" viewBox="0 0 64 64" width="64" xmlns="http://www.w3.org/2000/svg"><path d="m0 0h64v64h-64z" fill="none"/><path d="m25 12h4v4c0 .5522.4478 1 1 1h4c.5522 0 1-.4478 1-1v-4h4c.5522 0 1-.4478 1-1v-4c0-.5522-.4478-1-1-1h-4v-4c0-.5522-.4478-1-1-1h-4c-.5522 0-1 .4478-1 1v4h-4c-.5522 0-1 .4478-1 1v4c0 .5522.4478 1 1 1z"/><path d="m50 19h-36c-.5523 0-1 .4477-1 1v43h10v-8l4-1v9h10v-8l4-1v9h10v-43c0-.5523-.4477-1-1-1zm-21 7h6v6h-6zm0 10h6v6h-6zm-10-10h6v6h-6zm0 10h6v6h-6zm24 16h-22v-4h22zm2-10h-6v-6h6zm0-10h-6v-6h6z"/></svg>