<svg height="64" viewBox="0 0 64 64" width="64" xmlns="http://www.w3.org/2000/svg"><path d="m0 0h64v64h-64z" fill="none"/><path d="m0 0h64v64h-64z" fill="none"/><path d="m22.6143 9.2344h-4.3565v-.0567l4.3281-6.373v-1.3594h-6.0097v1.4014h4.0761v.0556l-4.3281 6.3741v1.3584h6.2901z"/><path d="m27.7646 10.7607c2.3955 0 4.3984-1.6807 4.3984-4.8047 0-3.1514-1.8633-4.6367-4.2021-4.6367-2.3955 0-4.4131 1.6816-4.4131 4.8047.0001 3.1524 1.8633 4.6367 4.2168 4.6367zm.0977-7.956c1.4014 0 2.5361.9102 2.5361 3.3057 0 2.2549-1.2754 3.1514-2.5361 3.1514-1.4004 0-2.5488-.9102-2.5488-3.291 0-2.256 1.2607-3.1661 2.5488-3.1661z"/><path d="m35.5332 7.1191h1.1494l2.1006 3.5156h1.9609l-2.4375-3.9785c1.0234-.4619 1.667-1.4004 1.667-2.6475 0-1.5127-1.1338-2.5635-3.4316-2.5635h-2.6895v9.1895h1.6807zm0-4.3281h.8828c1.2744 0 1.8066.4756 1.8066 1.4141 0 1.0088-.6582 1.5967-1.666 1.5967h-1.0234z"/><path d="m45.8105 10.7324c.9951 0 1.8496-.084 2.7598-.2656v-4.4268h-3.04v1.373h1.415v1.877c-.4062.042-.6445.0557-1.0645.0557-1.5693 0-2.8574-1.0645-2.8574-3.207 0-2.2139 1.3164-3.3203 3.1514-3.3203.7285 0 1.2471.0283 2.0029.1406l.126-1.4287c-.6436-.127-1.2324-.1826-2.0732-.1826-2.8008 0-4.9727 1.583-4.9727 4.959 0 2.9413 1.8496 4.4257 4.5527 4.4257z"/><path d="m48 14h-32c-1.1045 0-2 .8955-2 2v47h15v-9h6v9h15v-47c0-1.1045-.8955-2-2-2zm-23 33h-6v-6h6zm0-10h-6v-6h6zm0-10h-6v-6h6zm10 20h-6v-6h6zm0-10h-6v-6h6zm0-10h-6v-6h6zm10 20h-6v-6h6zm0-10h-6v-6h6zm0-10h-6v-6h6z"/></svg>