<svg height="64" viewBox="0 0 64 64" width="64" xmlns="http://www.w3.org/2000/svg"><path d="m0 0h64v64h-64z" fill="none"/><path d="m61 32.1304c0-4.5753-4.6036-8.4638-11.92-10.8136.2731-1.2478.4886-2.4649.6404-3.6396 1.91-.7034 3.2796-2.5231 3.2796-4.6772 0-2.4246-1.7266-4.444-4.0168-4.9009-1.1842-2.7572-3.3672-4.0991-5.8758-4.0991-3.2413 0-7.1506 2.3447-11.104 6.3793-5.6135-5.7458-10.8001-7.7387-14.4106-5.4506-3.8891 2.4672-4.3156 8.9016-2.6667 16.4152-.9153.2935-1.7799.6109-2.6003.9474-.8852-.7941-2.043-1.2913-3.3258-1.2913-2.7614 0-5 2.2386-5 5 0 .6909.1403 1.3491.3937 1.9476-.9054 1.315-1.3937 2.7191-1.3937 4.1828 0 4.4718 4.3043 8.3486 11.8792 10.777-1.5847 7.4042-1.1317 13.7245 2.7136 16.1639 4.6014 2.921 10.5983-1.5592 14.4131-5.4522 3.8445 3.9273 9.7802 8.3818 14.4014 5.4522 3.502-2.2222 4.4681-8.0609 2.7433-16.1636 7.3625-2.3725 11.8494-6.2613 11.8494-10.7773zm-53.6225-1.4228c.5114.1764 1.0512.2924 1.6225.2924 2.7614 0 5-2.2386 5-5 0-.0259-.0073-.0497-.0076-.0756.6121-.2462 1.2635-.4784 1.9388-.7004.6625 2.2346 1.4745 4.5164 2.4081 6.7809-.9652 2.3419-1.8053 4.7035-2.4795 7.0107-4.1124-1.3573-10.4238-4.4631-8.4823-8.308zm12.3579 24.9858c-2.3273-1.4765-2.5654-8.7026.9148-18.6085.5468 1.0964 1.1106 2.1797 1.9283 3.627-.3573.6886-.5785 1.4588-.5785 2.2881 0 2.7614 2.2386 5 5 5 .0862 0 .1666-.0211.2518-.0254.6808.9267 1.3693 1.8013 2.0611 2.6386-2.0554 2.1332-7.094 6.6538-9.5775 5.0802zm24.5292 0c-.5586.354-1.2939.4023-2.248.1475-2.6926-.7186-6.8375-3.9727-11.1527-9.7033.6995-.8602 1.1361-1.9425 1.1361-3.1376 0-2.7614-2.2386-5-5-5-.4343 0-.8482.0727-1.2499.1768-8.4846-15.3343-9.1727-27.8666-6.0147-29.8701 1.5191-.962 5.0134.2903 9.5942 5.0558-2.5061 3.0345-4.9744 6.6864-7.2429 10.8276.4967 1.6054 1.1053 3.3156 1.8417 5.1172 6.5532-13.3513 15.0398-21.3073 19.179-21.3073.8353 0 1.4052.3388 1.8713 1.0402-1.1952.9137-1.9787 2.3392-1.9787 3.9598 0 1.943 1.1198 3.6085 2.7387 4.436-.1204.897-.2855 1.8472-.4964 2.845-3.6849-.8204-7.8589-1.2988-12.3507-1.3549-.9152 1.2039-1.852 2.5442-2.7973 4.0223 4.9836-.1496 9.7602.3289 14.1319 1.2942-2.0808 6.9574-5.993 14.9965-10.8372 21.5197.9321 1.1771 1.8342 2.2142 2.6934 3.1152.9225-1.2114 1.8312-2.5245 2.7268-3.8923 2.2939-.2386 4.4666-.5796 6.4745-1.0278 1.4031 6.7374.5699 10.7281-1.0191 11.736zm-2.7957-15.0873c3.017-5.3605 5.1564-10.5238 6.5892-15.3458 5.2376 1.6577 8.9419 4.0767 8.9419 6.8701 0 3.1452-5.7384 6.9031-15.5311 8.4757z"/></svg>