<svg height="64" viewBox="0 0 64 64" width="64" xmlns="http://www.w3.org/2000/svg"><path d="m0 0h64v64h-64z" fill="none"/><circle cx="32.5" cy="35.5" r="2.5"/><circle cx="29" cy="8" r="3"/><circle cx="37" cy="3" r="2"/><path d="m51.8221 46.4884-11.8221-17.8975v-11.9348c.7957-.2001 1.9213-.4882 2.8638-.7494 1.6755-.4642 1.3517-2.9025-.0207-2.9042h-21.6862c-1.3724.0017-1.6962 2.4399-.0207 2.9042.9425.2612 2.0681.5493 2.8638.7494v11.9348l-11.8221 17.8975c-4.3915 6.6483.3763 15.5116 8.344 15.5116h22.9562c7.9677 0 12.7355-8.8633 8.344-15.5116zm-36.3066 2.2047c2.6146-3.9584 10.1398-15.3508 12.4845-18.9004 0-6.7978 0-6.0407 0-12.7927h8v12.7927c.8929 1.3518.4788.7249 7.4029 11.2073h-19.1602s-1.1216 1.3107-2.5206 3.0224c1.275.1141 2.2779 1.173 2.2779 2.4776 0 1.3807-1.1193 2.5-2.5 2.5-1.1075 0-2.0359-.7249-2.3643-1.7224-.4557.5945-.8921 1.1778-1.2782 1.7183-1.9458 2.7241-1.5806 5.6238-1.1245 7.2527 0 0-.087.3755-.4795-.0264s-.7369-.8616-1.0157-1.3799c-1.0635-1.9771-.9597-4.276.2777-6.1492zm20.9845 5.4319c-1.4498 0-2.625-1.1752-2.625-2.625s1.1752-2.625 2.625-2.625 2.625 1.1752 2.625 2.625-1.1752 2.625-2.625 2.625z"/></svg>