<svg height="64" viewBox="0 0 64 64" width="64" xmlns="http://www.w3.org/2000/svg"><path d="m0 0h64v64h-64z" fill="none"/><path d="m58 30c-2.1508 0-3.8915 1.7012-3.9828 3.8295l-5.0509 1.8038c-1.0793-1.589-2.9006-2.6333-4.9663-2.6333-.6162 0-1.2104.0936-1.77.2661l-5.7107-8.3279c.9196-1.0543 1.4807-2.4293 1.4807-3.9382 0-1.1981-.3551-2.3116-.9601-3.2484l5.5559-6.0185c.4383.1651.9081.2669 1.4042.2669 2.2092 0 4-1.7909 4-4 0-2.2092-1.7908-4-4-4s-4 1.7908-4 4c0 .6096.147 1.181.3909 1.6981l-5.5526 6.0157c-.8451-.4548-1.8113-.7138-2.8383-.7138-1.1122 0-2.1501.308-3.0431.8354l-6.2739-6.2736c.2038-.4799.317-1.0075.317-1.5618 0-2.2092-1.7908-4-4-4s-4 1.7908-4 4c0 2.2091 1.7908 4 4 4 .5543 0 1.0819-.1132 1.5618-.317l6.2736 6.2738c-.5274.8931-.8354 1.931-.8354 3.0432 0 1.5089.5611 2.8839 1.4807 3.9382l-5.7107 8.3279c-.5596-.1725-1.1538-.2661-1.77-.2661-1.8054 0-3.4203.8011-4.5203 2.0629l-5.5106-2.7555c.008-.1032.0309-.2021.0309-.3074 0-2.2092-1.7908-4-4-4s-4 1.7908-4 4c0 2.2091 1.7908 4 4 4 1.012 0 1.9255-.3882 2.63-1.0079l5.504 2.7518c-.0865.4053-.134.825-.134 1.2561 0 2.0314 1.0121 3.8236 2.5569 4.9091l-2.6627 7.1016c-2.1592.0574-3.8942 1.8164-3.8942 3.9893 0 2.2091 1.7908 4 4 4s4-1.7909 4-4c0-1.1637-.5051-2.202-1.2983-2.933l2.6633-7.1013c.2088.022.4204.0343.635.0343 2.9722 0 5.433-2.1634 5.91-5h12.18c.477 2.8366 2.9378 5 5.91 5 .2147 0 .4265-.0124.6354-.0344l2.663 7.1013c-.7933.731-1.2984 1.7693-1.2984 2.9331 0 2.2091 1.7908 4 4 4s4-1.7909 4-4c0-2.173-1.7351-3.9319-3.8943-3.9893l-2.6629-7.1013c1.5449-1.0855 2.5572-2.8778 2.5572-4.9094 0-.1823-.0114-.3618-.0273-.5399l5.0555-1.8054c.7325.8194 1.7861 1.3453 2.9718 1.3453 2.2092 0 4-1.7909 4-4 0-2.2092-1.7908-4-4-4zm-33.676 4.8469 5.6309-8.2121c.6392.2321 1.3258.3652 2.0451.3652s1.4059-.1331 2.045-.3652l5.6309 8.2121c-.585.6088-1.0396 1.3408-1.3272 2.1531h-12.6975c-.2876-.8124-.7423-1.5443-1.3272-2.1531z"/></svg>