<svg height="64" viewBox="0 0 64 64" width="64" xmlns="http://www.w3.org/2000/svg"><path d="m0 0h64v64h-64z" fill="none"/><path d="m39.2717 20.9857c-.204 1.6727-.7621 2.9545-1.0638 3.3754-.1815.2532-.2834.2873-.4214.255-.0032-.0644-.0134-.1212-.017-.1851.1136-.4591.1805-.9367.1805-1.431 0-2.9014-2.0777-5.3144-4.8256-5.8405-3.1656-6.9941-8.3181-17.3548-10.2375-16.5223-1.5128.6561 1.9012 11.3315 4.5548 18.5417-.8676 1.0339-1.3917 2.3658-1.3917 3.8211 0 .7166.1332 1.4005.3654 2.0368-4.4627 6.2431-10.6569 15.6332-8.9999 16.8617 1.158.8585 7.0663-5.374 11.8197-10.8995l-1.6875 33.001h8.8959l-1.7563-35.6965c.7906-.4014 1.4776-.9731 2.0159-1.6684 7.6393.7463 18.9452 1.4274 19.1814-.629.1743-1.5175-9.2108-3.6721-16.6129-5.0204zm-7.2717 5.2143c-1.7673 0-3.2-1.4327-3.2-3.2s1.4327-3.2 3.2-3.2 3.2 1.4327 3.2 3.2-1.4327 3.2-3.2 3.2z"/></svg>