<svg height="64" viewBox="0 0 64 64" width="64" xmlns="http://www.w3.org/2000/svg"><path d="m0 0h64v64h-64z" fill="none"/><path d="m26.3585 11.223c2.6024 1.5461 5.1907.6187 6.7499-2.0056 1.7759-2.9888 1.1542-5.5269-1.3801-7.0329-2.6699-1.5861-5.2341-.5457-6.8363 2.1517-1.6891 2.8427-1.1353 5.3408 1.4665 6.8868z"/><path d="m19.2595 32.7992 18.4171 12.5087c.2479-.4227.6051-1.0279 1.0223-1.7234l-7.8586-5.3375c-.6621-3.329-2.0174-9.94-2.0174-9.94-.6445-5.6449 1.5452-8.9352.0637-12.0614-.7418-1.5656-5.0864-5.5717-9.3411-5.4274-1.9779.067-5.3135.8307-8.2792 1.5342-.8652.2239-1.222.3105-2.3383 1.0453-1.9337 1.2935-4.0523 5.6509-4.8456 7.0211-.9921 1.7137-.7914 3.4932.3606 5.1201 0 0 .5446-.7951 1.3234-1.9039l9.2152 6.2589c-.009.1192-.1934.1774-.4605.0979-1.5992-.476-4.9273-1.5385-4.9273-1.5385-1.9514 5.8666-8.5512 25.7243-8.8256 26.5436-1.3868 4.1404 1.7841 6.1734 2.2682 6.4554.1392-.311 7.6884-17.05 10.7051-23.7391 1.4288 2.7045 4.1625 7.8795 4.1625 7.8795.6095 3.6142 1.1614 7.1641 1.9857 11.9716.7857 4.5829 4.9649 4.4277 5.1461 4.4188-.1888-6.7368-.264-9.6879-.5718-15.8544-.1271-1.7325-2.443-7.2094-5.2045-13.3295zm5.6894-3.8898c.1777.9415 1.0713 4.5298 1.66 6.4637l-6.5848-4.4723c1.3887-2.4509 3.1028-5.4297 4.5673-7.863-.002 1.8941.1584 4.5589.3575 5.8716zm-13.9436-12.0242c.6249-.3243 2.5093-.0927 3.9536.1519-1.5618 2.6667-2.9786 5.7258-3.9095 7.7683l-4.1257-2.8021c1.6238-2.2669 3.5403-4.8361 4.0816-5.1181z"/><path d="m49.585 39.2167c-1.7479-2.0549-3.7299-2.6307-5.5283-.2675-1.6337 2.1467-5.0142 7.9861-5.0142 7.9861s-3.9163 1.5735-5.8858 3.7239c-2.8317 3.0916-5.2482 11.6264-5.1567 11.3406h35.1924s-7.0092-15.0257-13.6074-22.7831z"/></svg>