<svg height="64" viewBox="0 0 64 64" width="64" xmlns="http://www.w3.org/2000/svg"><path d="m0 0h64v64h-64z" fill="none"/><path d="m57.6128 42.1104c-1.4393-1.5654-4.6559-3.0141-7.5203-4.0754 1.2807-1.7227 4.1273-6.1295 3.8942-11.035-.2435-5.125-2.754-7.4424-4.5433-12.5833-2.0724-5.9544-4.0411-12.4166-12.4431-12.4167h-.0001-.0002c-8.402.0001-10.3707 6.4623-12.4431 12.4167-1.7893 5.1409-4.2998 7.4583-4.5433 12.5833-.1678 3.5327 1.2607 6.8008 2.5522 9h.1842c2.208 0 4.1826 1.4805 4.7998 3.6006l4.4922 15.3994h3.958c0-1.6569 2.2386-3 5-3s5 1.3431 5 3h2c1.1045 0 2 .8955 2 2 0 1.9579-.8104 3.7283-2.1105 5h14.1105s-1.5137-16.7656-4.3872-19.8896zm-11.5995-16.4815c-.3372 3.3047-2.697 5.8639-5.295 8.075-.7807.6644-2.2499 1.1066-3.7188 1.1055-1.0628-.0008-2.1255-.2865-2.9271-.6349.6138.9305 1.6553 2.0744 3.5848 2.5851 3.1548.8349 5.4595-.9139 5.4595-.9139s.2828 1.9133.2745 2.4157c.3267 3.4883-3.5568 7.3169-6.0102 9.0784-2.3004-1.75-6.5919-5.5302-6.1588-9.0224.237-1.9129.0408-.5492.8235-5.4371-2.0814-2.0112-3.77-4.4177-4.0474-7.2557-1.7803.7063-3.3494 1.688-4.5804 3.0432-.0526-.0569-.1642-.1666.0292-.4936 2.501-4.2287 7.8895-7.174 13.5527-7.174 5.6633 0 11.0518 2.9453 13.5528 7.174.1934.327.0817.4366.0292.4936-1.2283-1.3523-2.793-2.3329-4.5685-3.0389z"/><path d="m30.5417 57-4.9117-16.84c-.3733-1.28-1.5467-2.16-2.88-2.16h-19.4833c-1.1333 0-1.9493 1.088-1.632 2.176l5.7353 19.664c.3733 1.28 1.5467 2.16 2.88 2.16h32.75c2.7614 0 5-2.2386 5-5z"/></svg>