<?xml version="1.0" encoding="utf-8"?>
<!-- Generator: Adobe Illustrator 17.1.0, SVG Export Plug-In . SVG Version: 6.00 Build 0)  -->
<svg version="1.2" baseProfile="tiny" xmlns="http://www.w3.org/2000/svg" xmlns:xlink="http://www.w3.org/1999/xlink" x="0px"
	 y="0px" width="64px" height="64px" viewBox="0 0 64 64" xml:space="preserve">
<g id="_x36_4px_Boxes">
	<rect fill="none" width="64" height="64"/>
</g>
<g id="Production">
	<g>
		<path d="M21.5713,49.04l1.9717-1.0391l1.9775,1.0449c0.9258,0.4873,3.8867,1.7539,6.4297,1.7539
			c2.5439,0,5.5117-1.2705,6.4414-1.7598l1.9717-1.0391l1.9775,1.0449c0.7852,0.4133,3.0344,1.38,5.2502,1.6663l0.7932-3.7316
			c0.5349-2.5167-0.9376-4.9706-3.3242-5.7615l-3.1702-20.1551l0.7246,0.1541c0.5403,0.1148,1.0713-0.23,1.186-0.7703l1.6633-7.8252
			c0.1149-0.5402-0.23-1.0712-0.7703-1.186l-0.978-0.2079c0.4592-2.1609-0.9202-4.285-3.0811-4.7443s-4.2849,0.9201-4.7441,3.0809
			l-0.9783-0.2079c-0.5402-0.1148-1.0712,0.23-1.186,0.7702l-1.6633,7.8252c-0.1147,0.5402,0.2301,1.0712,0.7703,1.1861
			l6.2798,1.3348c-0.0063,0.2285-0.2281,0.4927-0.5596,0.5264h-6.1021l-9.9868,15.416c-2.5022-0.2485-4.8458,1.3945-5.3809,3.9113
			l-2.2227,10.4571c0.0892,0.003,0.1807,0.0154,0.269,0.0154C17.6738,50.7998,20.6416,49.5293,21.5713,49.04z M37.1289,22.9756
			l1.0217,6.4948l-4.5967-0.9771L37.1289,22.9756z M30.6431,32.9861l8.3394,1.7726l0.832,5.2885l-12.0823-2.5682L30.6431,32.9861z"
			/>
		<path d="M48.7695,53.05c-3.6318,0-7.4307-1.9951-7.4658-2.0137l-0.9424-0.501l-0.9414,0.5
			c-0.0381,0.0195-3.8369,2.0146-7.4697,2.0146s-7.4316-1.9951-7.4668-2.0137l-0.9424-0.501l-0.9414,0.5
			c-0.0381,0.0195-3.8369,2.0146-7.4697,2.0146c-3.0103,0-6.1274-1.3669-7.1299-1.847v4.3007C9.7878,56.1977,12.4285,57,15.1299,57
			c3.4482,0,6.8193-1.3105,8.4102-2.0293C25.1309,55.6895,28.502,57,31.9502,57s6.8193-1.3105,8.4102-2.0293
			C41.9512,55.6895,45.3213,57,48.7695,57c1.8582,0,3.6836-0.3831,5.2305-0.8466v-4.158
			C52.5747,52.5144,50.6521,53.05,48.7695,53.05z"/>
	</g>
</g>
</svg>
