<?xml version="1.0" encoding="utf-8"?>
<!-- Generator: Adobe Illustrator 19.1.0, SVG Export Plug-In . SVG Version: 6.00 Build 0)  -->
<svg version="1.2" baseProfile="tiny" xmlns="http://www.w3.org/2000/svg" xmlns:xlink="http://www.w3.org/1999/xlink" x="0px"
	 y="0px" width="64px" height="64px" viewBox="0 0 64 64" xml:space="preserve">
<g id="_x36_4px_Box">
	<rect fill="none" width="64" height="64"/>
</g>
<g id="Icon">
	<g>
		<path d="M9.0264,40.1885C10.2969,40.9805,12.3574,42,14.5459,42c0.1321,0,0.262-0.0124,0.3923-0.0219l2.3823-4.772
			c-0.8342,0.4457-1.8491,0.8538-2.7747,0.8538c-2.2549,0-4.5166-2.0112-5.5166-2.8203C8.0291,36.0456,5.753,38.06,3.5059,38.06
			c-0.8246,0-1.7288-0.3228-2.5059-0.7081v4.2393C1.7882,41.8353,2.6355,42,3.5059,42C5.6953,42,7.7559,40.9805,9.0264,40.1885z"/>
		<path d="M59.009,58c-0.8104,0-1.5408-0.2506-1.8494-1l-9.8417-22.5972C46.6824,32.9436,45.2422,32,43.6506,32H24.7982
			c-1.5232,0-2.9142,0.8651-3.5877,2.2313l-6.1185,12.4113c-0.843,1.71-2.4485,2.9176-4.3253,3.2532L1,51.6423V63h62v-5H59.009z"/>
		<path d="M41.5,23h-16c-1.933,0-3.5,1.567-3.5,3.5s1.567,3.5,3.5,3.5h16c1.933,0,3.5-1.567,3.5-3.5S43.433,23,41.5,23z
			 M25.5,28.2628c-0.9717,0-1.7589-0.7872-1.7589-1.7589s0.7872-1.7589,1.7589-1.7589s1.7589,0.7872,1.7589,1.7589
			S26.4717,28.2628,25.5,28.2628z M33.5,28.2551c-0.9718,0-1.759-0.7873-1.759-1.759c0-0.9718,0.7872-1.7591,1.759-1.7591
			s1.759,0.7873,1.759,1.7591C35.259,27.4678,34.4718,28.2551,33.5,28.2551z M41.4961,28.2629c-0.9718,0-1.759-0.7872-1.759-1.759
			s0.7872-1.759,1.759-1.759c0.9717,0,1.759,0.7872,1.759,1.759S42.4678,28.2629,41.4961,28.2629z"/>
		<path d="M21,21h21c1.1046,0,2-0.8954,2-2v-4.9213l3.125-7.0851l3.877-0.9814l5.511,12.9032l-5.4828,2.1452
			C54.0303,29.8485,62,24.2363,62,24.2363L54.1479,2.5226c-0.5402-1.0939-1.7928-1.5905-2.9199-1.2249l-6.6195,1.6967
			c-0.7462,0.1866-1.3922,0.6526-1.8047,1.3019l-1.8661,2.9377l2.197,4.1022c0.1135,0.2861-0.0602,0.4247-0.1326,0.4604
			l-3.3987-4.0755C39.2225,7.2642,38.6583,7,38.0632,7H32c-0.5523,0-1,0.4477-1,1v5H21c-1.1046,0-2,0.8954-2,2v4
			C19,20.1046,19.8954,21,21,21z M34,9.9937h3c0.6295,0,1.2223,0.2964,1.6,0.8l1.8,2.4c0.3895,0.5193,0.6,1.1509,0.6,1.8V16h-7
			V9.9937z"/>
	</g>
</g>
</svg>
