<?xml version="1.0" encoding="utf-8"?>
<!-- Generator: Adobe Illustrator 18.1.0, SVG Export Plug-In . SVG Version: 6.00 Build 0)  -->
<svg version="1.2" baseProfile="tiny" xmlns="http://www.w3.org/2000/svg" xmlns:xlink="http://www.w3.org/1999/xlink" x="0px"
	 y="0px" width="64px" height="64px" viewBox="0 0 64 64" xml:space="preserve">
<g id="Box">
	<rect fill="none" width="64" height="64"/>
</g>
<g id="Icon">
	<g>
		<path d="M56.043,53.09c-2.4616,0-4.9159-1.9367-6-2.75c-1.0002,0.7503-3.4848,2.75-6,2.75c-2.4616,0-4.9159-1.9367-6-2.75
			c-1.0002,0.7503-3.4848,2.75-6,2.75c-2.4616,0-4.9159-1.9367-6-2.75c-1.0002,0.7503-3.4848,2.75-6,2.75
			c-2.4616,0-4.9159-1.9367-6-2.75c-1.0002,0.7503-3.4848,2.75-6,2.75c-1.0184,0-2.1246-0.3893-3.043-0.8273v4.2183
			C5.9427,56.7856,6.9789,57,8.043,57c2.397,0,4.6631-1.0762,6-1.8633c1.3369,0.7871,3.603,1.8633,6,1.8633
			c0.6694,0,1.3254-0.0895,1.957-0.2277c0,5.8191,0,0.6433,0,4.2277h20c0-3.8325,0-0.3123,0-4.2483
			C42.6579,56.9013,43.3429,57,44.043,57c2.397,0,4.6631-1.0762,6-1.8633c1.3369,0.7871,3.603,1.8633,6,1.8633
			c1.0322,0,2.0372-0.2025,2.957-0.4926v-4.2031C58.1001,52.7238,57.0267,53.09,56.043,53.09z"/>
		<path d="M26.043,47.2148l2.7007,2.0254c0.6069,0.4502,2.2671,1.3496,3.2993,1.3496c0.9985,0,2.6538-0.8652,3.3003-1.3496
			l2.6997-2.0254c2.8864,2.1647,2.9298,2.2565,3.957,2.7558V45h-6v-3h6v-6H31v-3h11v-6h-6v-3h6v-6H31v-3h11V8c0-2.2092-1.7908-4-4-4
			H26c-2.2092,0-4,1.7908-4,4v42.0131C23.0652,49.511,23.1365,49.3953,26.043,47.2148z"/>
	</g>
</g>
</svg>
