<?xml version="1.0" encoding="utf-8"?>
<!-- Generator: Adobe Illustrator 18.1.0, SVG Export Plug-In . SVG Version: 6.00 Build 0)  -->
<svg version="1.2" baseProfile="tiny" xmlns="http://www.w3.org/2000/svg" xmlns:xlink="http://www.w3.org/1999/xlink" x="0px"
	 y="0px" width="64px" height="64px" viewBox="0 0 64 64" xml:space="preserve">
<g id="Box">
	<rect fill="none" width="64" height="64"/>
</g>
<g id="Icon">
	<g>
		<path d="M52.5361,32.0601l-6.9539-5.9118c-0.9073-0.7699-2.1313,0.4224-1.4922,1.4509l2.0355,3.2643
			C45.7615,30.9445,45.3967,31,45.043,31c-2.4616,0-4.9159-1.9367-6-2.75c-1.0002,0.7503-3.4848,2.75-6,2.75
			c-2.4616,0-4.9159-1.9367-6-2.75c-1.0002,0.7503-3.4848,2.75-6,2.75c-2.4616,0-4.9159-1.9367-6-2.75
			c-1.0002,0.7503-3.4848,2.75-6,2.75C8.0246,31,6.9184,30.6107,6,30.1727v4.2183c0.9427,0.3047,1.9789,0.519,3.043,0.519
			c2.397,0,4.6631-1.0762,6-1.8633c1.3369,0.7871,3.603,1.8633,6,1.8633s4.6631-1.0762,6-1.8633
			c1.3369,0.7871,3.603,1.8633,6,1.8633s4.6631-1.0762,6-1.8633c1.3369,0.7871,3.603,1.8633,6,1.8633
			c0.3739,0,0.7426-0.032,1.1068-0.0792l0.0048,0.0792L44.09,38.2207c-0.6413,1.0322,0.5859,2.2197,1.4922,1.451l6.9539-5.9119
			C53.0476,33.3245,53.0476,32.4954,52.5361,32.0601z"/>
		<path d="M39,11V4H6v19h21C33.6274,23,39,17.6274,39,11z"/>
		<path d="M27,41H6v19h33v-7C39,46.3726,33.6274,41,27,41z"/>
	</g>
</g>
</svg>
