<?xml version="1.0" encoding="utf-8"?>
<!-- Generator: Adobe Illustrator 19.1.0, SVG Export Plug-In . SVG Version: 6.00 Build 0)  -->
<svg version="1.2" baseProfile="tiny" xmlns="http://www.w3.org/2000/svg" xmlns:xlink="http://www.w3.org/1999/xlink" x="0px"
	 y="0px" width="64px" height="64px" viewBox="0 0 64 64" xml:space="preserve">
<g id="_x36_4px_Box">
	<rect fill="none" width="64" height="64"/>
</g>
<g id="Icon">
	<g>
		<path d="M56.043,23.09c-2.4615,0-4.9159-1.9367-6-2.75c-1.0001,0.7504-3.4849,2.75-6,2.75c-2.4615,0-4.9159-1.9367-6-2.75
			c-1.0001,0.7504-3.4849,2.75-6,2.75c-2.4615,0-4.9159-1.9367-6-2.75c-1.0001,0.7504-3.4849,2.75-6,2.75
			c-2.4615,0-4.9159-1.9367-6-2.75c-1.0001,0.7504-3.4849,2.75-6,2.75c-1.0183,0-2.1245-0.3893-3.043-0.8273v4.2183
			C5.9426,26.7856,6.9789,27,8.043,27c2.397,0,4.6631-1.0762,6-1.8633c1.3369,0.7871,3.603,1.8633,6,1.8633s4.6631-1.0762,6-1.8633
			c1.3369,0.7871,3.603,1.8633,6,1.8633s4.6631-1.0762,6-1.8633c1.3369,0.7871,3.603,1.8633,6,1.8633s4.6631-1.0762,6-1.8633
			c1.3369,0.7871,3.603,1.8633,6,1.8633c1.0322,0,2.0371-0.2025,2.957-0.4926v-4.2031C58.1001,22.7238,57.0267,23.09,56.043,23.09z"
			/>
		<path d="M33.0352,44.9368l3.0238-5.2104c-1.1486,0.7031-2.5724,1.3636-4.016,1.3636c-2.4615,0-4.9159-1.9367-6-2.75
			c-1.0001,0.7504-3.4849,2.75-6,2.75c-2.4615,0-4.9159-1.9367-6-2.75c-1.0001,0.7504-3.4849,2.75-6,2.75
			c-1.0183,0-2.1245-0.3893-3.043-0.8273v4.2183C5.9426,44.7856,6.9789,45,8.043,45c2.397,0,4.6631-1.0762,6-1.8633
			c1.3369,0.7871,3.603,1.8633,6,1.8633s4.6631-1.0762,6-1.8633c1.3369,0.7871,3.603,1.8633,6,1.8633
			C32.3774,45,32.708,44.975,33.0352,44.9368z"/>
		<path d="M51.9658,39.6852l3.1019,5.2542C55.3894,44.9763,55.7144,45,56.043,45c1.0322,0,2.0371-0.2025,2.957-0.4926v-4.2031
			c-0.8999,0.4195-1.9733,0.7856-2.957,0.7856C54.5845,41.09,53.1357,40.4085,51.9658,39.6852z"/>
		<path d="M50.043,29.34c-0.6726,0.5046-2.0217,1.5634-3.5947,2.2099c0.701,0.4113,1.3007,0.9931,1.7246,1.7104l0.8438,1.4291
			c0.3801-0.1885,0.7292-0.3777,1.0264-0.5527c1.3369,0.7871,3.603,1.8633,6,1.8633c1.0322,0,2.0371-0.2025,2.957-0.4926v-4.2031
			c-0.8999,0.4195-1.9733,0.7856-2.957,0.7856C53.5814,32.09,51.1271,30.1533,50.043,29.34z"/>
		<path d="M14.043,34.1367c1.3369,0.7871,3.603,1.8633,6,1.8633s4.6631-1.0762,6-1.8633c1.3369,0.7871,3.603,1.8633,6,1.8633
			s4.6631-1.0762,6-1.8633c0.2789,0.1642,0.6064,0.3413,0.959,0.5183l0.791-1.363c0.4336-0.7466,1.054-1.3513,1.7812-1.7696
			c-1.5098-0.6363-2.8186-1.6478-3.5312-2.1824c-1.0001,0.7504-3.4849,2.75-6,2.75c-2.4615,0-4.9159-1.9367-6-2.75
			c-1.0001,0.7504-3.4849,2.75-6,2.75c-2.4615,0-4.9159-1.9367-6-2.75c-1.0001,0.7504-3.4849,2.75-6,2.75
			c-1.0183,0-2.1245-0.3893-3.043-0.8273v4.2183C5.9426,35.7856,6.9789,36,8.043,36C10.4399,36,12.7061,34.9238,14.043,34.1367z"/>
		<path d="M45.4167,34.8871c-0.2974-0.5042-0.8392-0.8134-1.4248-0.8134c-0.0022,0-0.0044,0-0.0065,0
			c-0.5878,0.0021-1.1296,0.3162-1.4249,0.8242L29.4359,57.5145c-0.2968,0.5117-0.298,1.1436-0.0027,1.6565
			C29.7284,59.6838,30.2751,60,30.8672,60h26.4779c0.5941,0,1.1426-0.3184,1.4373-0.8345c0.2946-0.5161,0.2898-1.1501-0.0123-1.6619
			L45.4167,34.8871z M34.3541,56.1666l9.6555-16.6386l9.8237,16.6386H34.3541z"/>
		<path d="M43.9895,52.6688c-0.8053,0-1.2236,0.5795-1.2236,1.3202c0,0.8373,0.4509,1.2877,1.2397,1.2877
			c0.8048,0,1.2236-0.5633,1.2236-1.2877C45.2292,53.1354,44.7783,52.6688,43.9895,52.6688z"/>
		<polygon points="43.0669,51.5873 44.9658,51.5366 44.9658,49.2083 45.1458,44.0439 43.0669,44.2305 		"/>
	</g>
</g>
</svg>
