<svg width="45" height="26" viewBox="0 0 45 26" fill="none" xmlns="http://www.w3.org/2000/svg">
<path fill-rule="evenodd" clip-rule="evenodd" d="M24 26H28V15H24V26ZM24 11H28V0H24V11ZM40.516 0V10.761H30.92L29 14.974H40.516V26H45V0H40.516Z" fill="#DE0367"/>
<path fill-rule="evenodd" clip-rule="evenodd" d="M7.072 26C3.164 25.999 0.002 22.787 0 18.822V7.177C0.001 3.213 3.164 0.002 7.072 0H20V4.463H7.072C5.596 4.464 4.398 5.68 4.398 7.177V18.822C4.398 20.321 5.596 21.533 7.072 21.536H20V26H7.072Z" fill="#223669"/>
<path fill-rule="evenodd" clip-rule="evenodd" d="M7 11V15H17.067L19 11H7Z" fill="#223669"/>
</svg>
