<svg height="64" viewBox="0 0 64 64" width="64" xmlns="http://www.w3.org/2000/svg"><path d="m0 0h64v64h-64z" fill="none"/><path d="m41 54.187v-1.187c0-.5522-.4478-1-1-1h-36c-.5522 0-1 .4478-1 1v1.187c0 .4907.2988.9321.7544 1.1143l4.2456 1.6987v6h4v-6h20v6h4v-6l4.2456-1.6987c.4556-.1822.7544-.6236.7544-1.1143z"/><path d="m12.2065 48h19.587l.2065 2h4l-.9014-8.1104c-.0561-.5063-.4843-.8896-.9936-.8896h-24.21c-.5093 0-.9375.3833-.9936.8896l-.9014 8.1104h3.9951z"/><path d="m59.7767 18.0967c0-4.7561-3.3845-8.7486-7.7634-9.9383-.9842-3.7901-4.4185-6.9125-8.5162-6.9125-2.7069 0-5.1259 1.5432-6.7419 3.4643-1.1197-.5155-2.3616-.6609-3.6751-.6609-4.327 0-7.9182 2.9727-8.661 7.086-3.3849.8382-6.1981 3.8874-6.1981 7.5311 0 2.296 1.3021 4.3528 2.8858 5.7748-.7028 1.3681-1.1068 2.915-1.1068 4.5588 0 5.5229 4.4771 10 10 10h4.105c1.5307 0 2.8125 1.1475 2.9814 2.6694l.9257 8.3306h2.0494c1.6201 0 2.9385 1.3184 2.9385 2.9385v1.3843c0 1.2334-.7397 2.3266-1.8853 2.7851l-3.1147 1.2461v4.646h9.3481l-1.9215-20.1757c-.5132-4.7621-.1635-9.807 4.052-12.5986.1234.0736.1687.2325.0136.4305-.9609 1.2266-2.6007 3.8084-2.4014 7.7984.0465.932.216 2.6256.3531 3.9105 5.8721-.3531 10.5288-5.2133 10.5288-11.1742 0-2.0647-.5679-3.9924-1.5418-5.6535 1.9598-1.8766 3.3458-4.5131 3.3458-7.4407z"/></svg>