<svg enable-background="new 0 0 64 64" viewBox="0 0 64 64" xmlns="http://www.w3.org/2000/svg"><path d="m0 0h64v64h-64z" fill="none"/><path d="m45 13c2.2 0 4-.3 4-.7 0-1-.1-2.1-.3-3.1-.1-.7-.7-1.2-1.3-1.2h-4.7c-.6 0-1.2.5-1.3 1.2-.2 1-.3 2.1-.3 3.1-.1.4 1.7.7 3.9.7z"/><path d="m51.4 17.8-3.1-3c-.9.2-2.1.3-3.3.3s-2.4-.1-3.3-.3l-2.7 2.6.3.1c1.2.3 2 1.3 1.9 2.4 0 1.2-.8 2.2-2 2.4l-.2.1c-1.1.2-2.1.4-2.9.6 0 .4-.1.7-.1 1.1v17.4c0 .8.7 1.5 1.5 1.5s1.5-.7 1.5-1.5h2c0 .8.7 1.5 1.5 1.5s1.5-.7 1.5-1.5h2c0 .8.7 1.5 1.5 1.5s1.5-.7 1.5-1.5h2c0 .8.7 1.5 1.5 1.5s1.5-.7 1.5-1.5v-17.4c0-2.4-.9-4.7-2.6-6.3z"/><path d="m30 23.7c.9-2.1 6.6-3.1 8.8-3.6.3-.1.3-.5 0-.5-2.2-.5-8.2-1.6-8.8-3.5-.7-2 1.5-5.9 2.7-7.7.1-.2-.1-.5-.4-.4-1.9 1.1-6.2 3.4-7.7 2.7-1.6-.7-3-7.4-3.6-9.5-.1-.3-.5-.3-.5 0-.5 2.1-1.8 8.7-3.6 9.5-1.7.8-5.8-1.5-7.7-2.7-.2-.1-.4.2-.3.4 1.2 1.9 3.4 5.8 2.6 7.7-.7 1.8-6.9 3.1-9.1 3.6-.3.1-.3.5 0 .5 2.1.5 8 1.7 9.1 3.6 1.1 1.8-1.4 5.8-2.7 7.8-.1.1.2.4.4.3 1.9-1.2 6.1-3.5 7.7-2.8s3 6.4 3.5 8.7c.1.3.5.3.5 0 .4-2.2 1.8-7.7 3.6-8.7 1.6-.8 5.9 1.3 7.7 2.7.2.2.5-.1.4-.4-1.2-1.9-3.5-5.7-2.6-7.7zm-9.3 3.1c-3.8 0-6.9-3.1-6.9-6.9s3.1-6.9 6.9-6.9 6.9 3.1 6.9 6.9-3.1 6.9-6.9 6.9z"/><circle cx="37.5" cy="45" r="1.5"/><circle cx="42.5" cy="45" r="1.5"/><circle cx="47.5" cy="45" r="1.5"/><circle cx="52.5" cy="45" r="1.5"/><circle cx="37.5" cy="51" r="1.5"/><circle cx="42.5" cy="51" r="1.5"/><circle cx="47.5" cy="51" r="1.5"/><circle cx="52.5" cy="51" r="1.5"/><circle cx="37.5" cy="57.5" r="1.5"/><circle cx="42.5" cy="57.5" r="1.5"/><circle cx="47.5" cy="57.5" r="1.5"/><circle cx="52.5" cy="57.5" r="1.5"/></svg>