<?xml version="1.0" encoding="utf-8"?>
<!-- Generator: Adobe Illustrator 23.1.1, SVG Export Plug-In . SVG Version: 6.00 Build 0)  -->
<svg version="1.1" xmlns="http://www.w3.org/2000/svg" xmlns:xlink="http://www.w3.org/1999/xlink" x="0px" y="0px"
	 viewBox="0 0 64 64" style="enable-background:new 0 0 64 64;" xml:space="preserve">
<style type="text/css">
	.st0{fill:none;}
</style>
<g id="Box">
	<rect class="st0" width="64" height="64"/>
</g>
<g id="Icon">
	<g>
		<path d="M20.3,37.8h4.3l0.8,3H29l-4.2-14.3h-4.5l-4.2,14.3h3.4L20.3,37.8z M22.4,29.7l1.4,5.4H21L22.4,29.7z"/>
		<path d="M34.1,36.1c0.4,0,0.8,0.1,1.2,0.1c3.2,0,5.3-2,5.3-5.1c0-2.8-1.9-4.6-5.1-4.6h-4.7v14.3h3.2V36.1z M34.1,29.1h1.1
			c1.4,0,2.1,0.7,2.1,2.1c0,1.4-0.9,2.2-2.3,2.2c-0.3,0-0.7,0-0.9-0.1V29.1z"/>
		<rect x="42.9" y="26.5" width="3.2" height="14.3"/>
		<path d="M54,12H10c-1.7,0-3,1.3-3,3v34c0,1.7,1.3,3,3,3h44c1.7,0,3-1.3,3-3V15C57,13.3,55.7,12,54,12z M16.5,14
			c0.8,0,1.5,0.7,1.5,1.5c0,0.8-0.7,1.5-1.5,1.5S15,16.3,15,15.5C15,14.7,15.7,14,16.5,14z M11.5,14c0.8,0,1.5,0.7,1.5,1.5
			c0,0.8-0.7,1.5-1.5,1.5S10,16.3,10,15.5C10,14.7,10.7,14,11.5,14z M54,49H10V19h44V49z"/>
	</g>
</g>
</svg>
