<svg xmlns="http://www.w3.org/2000/svg" viewBox="0 0 24 24"><defs><style>.cls-1{fill:none;}</style></defs><g id="Laag_2" data-name="Laag 2"><g id="_24px_Boxes" data-name="24px Boxes"><rect class="cls-1" width="24" height="24"/></g><g id="Production"><path d="M15.86,10.23l3.31-3.31.5,2.48a.73.73,0,0,0,1.27.33.7.7,0,0,0,.18-.4L21.85,3a.79.79,0,0,0-.21-.61A.79.79,0,0,0,21,2.15l-6.36.73a.76.76,0,0,0-.44.21.74.74,0,0,0-.22.49.72.72,0,0,0,.59.75l2.48.5L13.77,8.14c-.53.53-.1,1.28.42,1.8S15.33,10.76,15.86,10.23Z"/><path d="M8.14,13.77,4.83,17.08l-.5-2.48a.73.73,0,0,0-1.27-.33.7.7,0,0,0-.18.4L2.15,21a.79.79,0,0,0,.21.61.79.79,0,0,0,.61.21l6.36-.73a.76.76,0,0,0,.44-.21.74.74,0,0,0,.22-.49.72.72,0,0,0-.59-.75l-2.48-.5,3.31-3.31c.53-.53.1-1.28-.42-1.8S8.67,13.24,8.14,13.77Z"/></g></g></svg>