<?xml version="1.0" encoding="utf-8"?>
<!-- Generator: Adobe Illustrator 23.0.3, SVG Export Plug-In . SVG Version: 6.00 Build 0)  -->
<svg version="1.1" xmlns="http://www.w3.org/2000/svg" xmlns:xlink="http://www.w3.org/1999/xlink" x="0px" y="0px" width="24px"
	 height="24px" viewBox="0 0 24 24" style="enable-background:new 0 0 24 24;" xml:space="preserve">
<style type="text/css">
	.st0{fill:none;}
	.st1{fill:#D52B1E;}
	.st2{fill:#FFFFFF;}
</style>
<g id="box">
	<g>
		<rect class="st0" width="24" height="24"/>
	</g>
</g>
<g id="icon">
	<g>
		<g>
			<circle class="st1" cx="12" cy="12" r="10.5"/>
		</g>
		<path class="st2" d="M15.12,7.71L12,10.48L8.88,7.71C8.55,7.42,8.05,7.43,7.73,7.73c-0.3,0.32-0.31,0.81-0.02,1.14L10.48,12
			l-2.77,3.12c-0.29,0.33-0.29,0.83,0.02,1.14c0.32,0.3,0.81,0.31,1.14,0.02L12,13.52l3.12,2.77c0.33,0.29,0.83,0.28,1.14-0.02
			c0.3-0.32,0.31-0.81,0.02-1.14L13.52,12l2.77-3.12c0.29-0.33,0.29-0.83-0.02-1.14C15.95,7.43,15.45,7.42,15.12,7.71 M12,12.01
			l-0.01-0.01L12,11.99l0.01-0.01l0.01,0.01l0.01,0.01L12,12.01z"/>
	</g>
</g>
</svg>
