<?xml version="1.0" encoding="utf-8"?>
<!-- Generator: Adobe Illustrator 23.1.1, SVG Export Plug-In . SVG Version: 6.00 Build 0)  -->
<svg version="1.1" xmlns="http://www.w3.org/2000/svg" xmlns:xlink="http://www.w3.org/1999/xlink" x="0px" y="0px"
	 viewBox="0 0 24 24" style="enable-background:new 0 0 24 24;" xml:space="preserve">
<style type="text/css">
	.st0{fill:none;}
	.st1{fill:#FFFFFF;}
	.st2{stroke:#000000;stroke-width:4.4;stroke-miterlimit:10;}
	.st3{stroke:#000000;stroke-width:6;stroke-miterlimit:10;}
</style>
<g id="Box_1_">
	<rect class="st0" width="24" height="24"/>
</g>
<g id="Icon_9_">
	<g>
		<path d="M15.3,1H2.7C2.3,1,2,1.3,2,1.7v8.6C2,10.7,2.3,11,2.7,11h12.7c0.4,0,0.7-0.3,0.7-0.7V1.7C16,1.3,15.7,1,15.3,1z M14.5,2.4
			L9,6.2L3.5,2.4H14.5z M3.3,3.6l5.4,3.7C8.8,7.4,8.9,7.4,9,7.4c0.1,0,0.2,0,0.3-0.1l5.4-3.7v6L11.3,7c0,0-0.1,0,0,0.1
			c0.1,0.1,1.9,2.6,1.9,2.6H4.9c0,0,1.8-2.5,1.9-2.6C6.8,7,6.8,7,6.8,7L3.3,9.6V3.6z"/>
	</g>
	<rect x="17" y="5" width="5" height="1"/>
	<rect x="17" y="8" width="4" height="1"/>
	<rect x="17" y="2" width="6" height="1"/>
	<g>
		<path d="M8,13.7v8.6C8,22.7,8.3,23,8.7,23h12.7c0.4,0,0.7-0.3,0.7-0.7v-8.6c0-0.4-0.3-0.7-0.7-0.7H8.7C8.3,13,8,13.3,8,13.7z
			 M20.5,14.4L15,18.2l-5.5-3.8H20.5z M20.7,21.6L17.2,19c0,0-0.1,0,0,0.1c0.1,0.1,1.9,2.6,1.9,2.6h-8.3c0,0,1.8-2.5,1.9-2.6
			c0.1-0.1,0-0.1,0-0.1l-3.4,2.7v-6l5.4,3.7c0.1,0.1,0.2,0.1,0.3,0.1c0.1,0,0.2,0,0.3-0.1l5.4-3.7V21.6z"/>
	</g>
	<rect x="2" y="17" transform="matrix(-1 -4.492907e-11 4.492907e-11 -1 9 35)" width="5" height="1"/>
	<rect x="3" y="20" transform="matrix(-1 -4.479274e-11 4.479274e-11 -1 10 41)" width="4" height="1"/>
	<rect x="1" y="14" transform="matrix(-1 -4.486867e-11 4.486867e-11 -1 8 29)" width="6" height="1"/>
</g>
</svg>
