<?xml version="1.0" encoding="utf-8"?>
<!-- Generator: Adobe Illustrator 19.2.0, SVG Export Plug-In . SVG Version: 6.00 Build 0)  -->
<svg version="1.0" xmlns="http://www.w3.org/2000/svg" xmlns:xlink="http://www.w3.org/1999/xlink" x="0px" y="0px"
	 viewBox="0 0 64 64" enable-background="new 0 0 64 64" xml:space="preserve">
<g id="achtergrond">
</g>
<g id="paneel_1">
	<g>
		<g>
			<ellipse cx="32.0005" cy="31.999" rx="5.3409" ry="5.2246"/>
			<path d="M53.8557,14.1153c-0.3439-2.0607-1.9123-3.6281-3.9767-3.9718c-5.9569-0.993-15.8927-0.993-17.8809-0.993
				c-1.9861,0-11.9219,0-17.8828,0.993c-2.0604,0.3438-3.6289,1.9111-3.9726,3.9718c-0.9922,5.9627-0.9922,15.8962-0.9922,17.8828
				c0,1.9883,0,11.9219,0.9922,17.8828c0.3437,2.0625,1.9122,3.6298,3.9726,3.9735c5.9609,0.9952,15.8967,0.9952,17.8828,0.9952
				c1.9883,0,11.924,0,17.8809-0.9952c2.0644-0.3437,3.6328-1.911,3.9767-3.9735c0.9939-5.9609,0.9939-15.8945,0.9939-17.8828
				C54.8496,26.0362,54.8496,20.0779,53.8557,14.1153z M48.6563,32.8454c0,0.4764-0.3569,1.0228-0.7932,1.2143l-2.9728,1.347
				c-0.4445,0.1715-0.9587,0.6714-1.1429,1.1108l-0.1665,0.3971c-0.1841,0.4395-0.1671,1.1509,0.038,1.581l1.1739,2.9178
				c0.1838,0.4396,0.0554,1.0718-0.2853,1.4049l-1.351,1.3209c-0.3407,0.3331-0.9845,0.4689-1.4306,0.3018l-3.0636-1.1061
				c-0.4383-0.1865-1.1585-0.1931-1.6002-0.0145l-0.4346,0.1757c-0.4417,0.1786-0.939,0.6901-1.1049,1.1367l-1.2773,2.8751
				c-0.1875,0.4381-0.731,0.7964-1.2074,0.7964h-1.9216c-0.4764,0-1.0287-0.3544-1.2273-0.7875l-1.3645-2.8778
				c-0.1779-0.4419-0.6848-0.9499-1.1264-1.1287L26.965,43.335c-0.4416-0.1788-1.1575-0.1633-1.591,0.0345l-2.9996,1.1595
				c-0.4422,0.1773-1.0827,0.0499-1.4233-0.2832l-1.3533-1.3238c-0.3406-0.3331-0.4777-0.9689-0.3047-1.4129l1.1196-2.9808
				c0.193-0.4356,0.1993-1.1511,0.0142-1.5902l-0.1663-0.3941c-0.1852-0.439-0.704-0.9291-1.1528-1.0891l-2.9628-1.2626
				c-0.4406-0.1811-0.8012-0.7192-0.8012-1.1956v-1.8495c0-0.4765,0.3571-1.0225,0.7937-1.2134l2.9661-1.3395
				c0.4446-0.1712,0.9595-0.6706,1.1442-1.1098l0.1682-0.3999c0.1848-0.4391,0.1685-1.1506-0.036-1.5809l-1.1713-2.9173
				c-0.1835-0.4397-0.0549-1.0722,0.2856-1.4053l1.3494-1.3205c0.3405-0.3333,0.9845-0.4698,1.4309-0.3034l3.0727,1.1038
				c0.4385,0.1863,1.1585,0.1918,1.5998,0.0122l0.4242-0.1725c0.4414-0.1794,0.9386-0.6916,1.1049-1.1381l1.28-2.8756
				c0.1879-0.4378,0.7314-0.7961,1.2079-0.7961h1.9216c0.4765,0,1.0285,0.3545,1.2268,0.7876l1.3629,2.8814
				c0.1779,0.442,0.6848,0.9499,1.1266,1.1285l0.4311,0.1745c0.4417,0.1787,1.1576,0.1629,1.591-0.0351l3.0033-1.1578
				c0.4423-0.1772,1.083-0.0495,1.4238,0.2835l1.349,1.3184c0.3407,0.3331,0.4783,0.9689,0.3057,1.4129l-1.1162,2.9828
				c-0.1932,0.4355-0.2001,1.1512-0.0156,1.5904l0.1685,0.4008c0.1847,0.4392,0.7031,0.9291,1.152,1.0887l2.9604,1.2584
				c0.4408,0.1808,0.8014,0.7185,0.8014,1.195V32.8454z"/>
		</g>
	</g>
</g>
</svg>
