<?xml version="1.0" encoding="utf-8"?>

<!DOCTYPE svg PUBLIC "-//W3C//DTD SVG 1.1//EN" "http://www.w3.org/Graphics/SVG/1.1/DTD/svg11.dtd">
<svg version="1.1" xmlns="http://www.w3.org/2000/svg" xmlns:xlink="http://www.w3.org/1999/xlink" x="0px" y="0px" width="24px"
	 height="24px" viewBox="0 0 24 24" style="enable-background:new 0 0 24 24;" xml:space="preserve">
<style type="text/css">
	.st0{fill:none;}
</style>
<g id="_x36_4px_Box">
	<g>
		<rect class="st0" width="24" height="24"/>
	</g>
</g>
<g id="Icon">
	<g>
		<g>
			<path d="M11.6,11.1L3.2,12c-0.6,0.1-1.1,0.6-1.1,1.2c0,0.6,0.5,1.1,1.1,1.2l3.7,0.3l-4.7,4.7c-0.8,0.8-0.4,1.6,0.2,2.2
				c0.6,0.6,1.4,1,2.2,0.2l4.7-4.7l0.3,3.7c0.1,0.6,0.6,1.1,1.2,1.1c0,0,0,0,0,0c0.6,0,1.1-0.5,1.2-1.1l0.9-8.4c0-0.4-0.1-0.7-0.3-1
				C12.3,11.2,12,11,11.6,11.1z M20.9,2H5.1C4.5,2,4,2.5,4,3.1V9h3V5h12v12h-4v3h5.9c0.6,0,1.1-0.5,1.1-1.1V3.1
				C22,2.5,21.5,2,20.9,2z"/>
		</g>
	</g>
</g>
</svg>
