<?xml version="1.0" encoding="utf-8"?>

<!DOCTYPE svg PUBLIC "-//W3C//DTD SVG 1.1//EN" "http://www.w3.org/Graphics/SVG/1.1/DTD/svg11.dtd">
<svg version="1.1" xmlns="http://www.w3.org/2000/svg" xmlns:xlink="http://www.w3.org/1999/xlink" x="0px" y="0px" width="24px"
	 height="24px" viewBox="0 0 24 24" style="enable-background:new 0 0 24 24;" xml:space="preserve">
<style type="text/css">
	.st0{fill:none;}
	.st1{fill:#39870C;}
	.st2{fill:#D52B1E;}
	.st3{display:none;}
	.st4{display:none;fill:#FFFFFF;}
</style>
<g id="box">
	<g>
		<rect class="st0" width="24" height="24"/>
	</g>
</g>
<g id="icon">
	<path d="M21.6,4.2c-0.1-0.9-0.8-1.6-1.7-1.7C17.2,2,12.9,2,12,2c-0.9,0-5.2,0-7.8,0.4C3.3,2.6,2.6,3.3,2.4,4.2C2,6.8,2,11.1,2,12
		c0,0.9,0,5.2,0.4,7.8c0.1,0.9,0.8,1.6,1.7,1.7C6.8,22,11.1,22,12,22c0.9,0,5.2,0,7.8-0.4c0.9-0.2,1.6-0.8,1.7-1.7
		c0.4-2.6,0.4-7,0.4-7.8C22,9.4,22,6.8,21.6,4.2z M7,19.2c-1.4,0-2.2-0.8-2.2-2.2c0-1.4,0.8-2.2,2.2-2.2c1.4,0,2.2,0.8,2.2,2.2
		C9.2,18.5,8.4,19.2,7,19.2z M13.4,19.4c-0.5,0-0.9,0-1.4,0c-0.4,0-0.8,0-1.2,0c0.4-0.7,0.6-1.5,0.6-2.3c0-2.6-1.8-4.4-4.4-4.4
		c-0.9,0-1.7,0.2-2.3,0.6c0-0.4,0-0.8,0-1.2c0-0.5,0-0.9,0-1.4c0.7-0.2,1.5-0.4,2.3-0.4c4,0,6.8,2.9,6.8,6.8
		C13.7,17.9,13.6,18.7,13.4,19.4z M18.6,19.2c-0.8,0.1-1.7,0.2-2.7,0.2c0.2-0.7,0.3-1.5,0.3-2.3c0-5.3-4-9.3-9.3-9.3
		c-0.8,0-1.5,0.1-2.3,0.3c0-1.1,0.1-2,0.2-2.7c0.7-0.1,1.4-0.2,2.1-0.2c6.8,0,11.9,5.1,11.9,11.9C18.8,17.8,18.7,18.5,18.6,19.2z"/>
</g>
</svg>
