<?xml version="1.0" encoding="utf-8"?>

<!DOCTYPE svg PUBLIC "-//W3C//DTD SVG 1.1//EN" "http://www.w3.org/Graphics/SVG/1.1/DTD/svg11.dtd">
<svg version="1.1" xmlns="http://www.w3.org/2000/svg" xmlns:xlink="http://www.w3.org/1999/xlink" x="0px" y="0px" width="24px"
	 height="24px" viewBox="0 0 24 24" style="enable-background:new 0 0 24 24;" xml:space="preserve">
<style type="text/css">
	.st0{fill:none;}
	.st1{fill:#39870C;}
	.st2{fill:#D52B1E;}
	.st3{display:none;}
	.st4{display:none;fill:#FFFFFF;}
</style>
<g id="box">
	<g>
		<rect class="st0" width="24" height="24"/>
	</g>
</g>
<g id="icon">
	<path d="M20,12V8c0-4.4-3.6-8-8-8S4,3.6,4,8v4c-1.1,0-2,0.9-2,2v6c0,2.2,1.8,4,4,4h12c2.2,0,4-1.8,4-4v-6C22,12.9,21.1,12,20,12z
		 M8,8c0-2.2,1.8-4,4-4s4,1.8,4,4v4H8V8z"/>
</g>
</svg>
