<svg enable-background="new 0 0 64 64" height="64" viewBox="0 0 64 64" width="64" xmlns="http://www.w3.org/2000/svg"><path d="m0 0h64v64h-64z" fill="none"/><path d="m52 33.2v-1.2c0-.5-.2-.9-.5-1.2l-19-17.9c-.3-.3-.8-.3-1.1 0l-18.9 17.9c-.3.3-.5.7-.5 1.2v1.2c0 .4.4.8.8.8h3.2v16.9h32v-16.9h3.2c.4 0 .8-.4.8-.8zm-18 11.7c-.7.4-1.6.6-2.4.4l-3.7-.8c-.3-.1-.7 0-1 .1l-2.7 1.1-2.1-4s.3-.3 1.4-1.1c1.2-.8 2.6-1.1 4.1-.9 1 .2 1.9.2 2.9.2.9 0 1.9 0 3.1.1.7 0 1 .3 1.1.8 0 .5-.4.8-1 1-1.7.6-5 .3-5.4.3 0 .1 0 .3.2.4.4.1 2 .8 4.8.7 1.1-.1 2.9-.8 2.6-2.4 1.1-.3 1.8-.5 2.8-.7 2.1-.6 2.4.7 2.4.7zm9-7.9c0 .6-.4 1-1 1h-20c-.6 0-1-.4-1-1v-1h2c0-4.7 3.6-8.6 8.3-9-.3-.2-.5-.6-.5-1 0-.7.6-1.2 1.2-1.2s1.2.6 1.2 1.2c0 .4-.2.8-.5 1 4.6.4 8.3 4.2 8.3 9h2zm-33-3.8v-1.2c0-1 .4-2 1.2-2.7l10-9.4-3.9-3.7c-.2-.2-.6-.2-.9 0l-15 14.2c-.3.2-.4.5-.4.9v.9c0 .4.3.6.6.6h2.5v13.2h9.9v-10h-1.2c-1.5 0-2.8-1.3-2.8-2.8zm52.6-2.9-15-14.2c-.2-.2-.6-.2-.9 0l-3.9 3.7 10 9.5c.8.7 1.2 1.7 1.2 2.7v1.2c0 1.5-1.3 2.8-2.8 2.8h-1.2v10h9.8v-13.2h2.5c.3 0 .6-.3.6-.6v-.9c.1-.4-.1-.7-.3-1z"/></svg>