<svg enable-background="new 0 0 64 64" height="64" viewBox="0 0 64 64" width="64" xmlns="http://www.w3.org/2000/svg"><path d="m0 0h64v64h-64z" fill="none"/><path d="m8.8 37.1c1-.6 2.1-.7 3.2-.4h.1c-.4-1.5-.6-3.2-.6-4.8 0-10.8 8.3-19.6 18.9-20.4s0 .1-.1.3c-.3.2-2.7 1.1-2.8 1.1l-1.6 2.8c-.4.7-.2 1.5.4 2s1.4.5 2 0l8.1-7c.4-.3.6-.8.5-1.2 0-.5-.2-.9-.6-1.2l-8.3-6.9c-.6-.5-1.4-.5-2 0s-.7 1.3-.3 2l2.1 3.4c-12.1 2.1-21.3 12.6-21.3 25.2 0 2.3.3 4.6.9 6.7.3-.6.8-1.2 1.4-1.6z"/><path d="m48 49.5c-1-.5-1.7-1.5-1.9-2.6v-.1c-3.7 3.5-8.6 5.7-14.1 5.7-7 0-13.2-3.5-16.9-8.9 0-.1.1-.1.3 0 .3.1 2.3 1.8 2.4 1.9h3.2c.8 0 1.4-.6 1.5-1.3.1-.8-.3-1.5-1-1.7l-10.1-3.5c-.4-.2-.9-.1-1.3.2-.4.2-.7.6-.8 1.1l-1.8 10.4c-.1.8.3 1.5 1 1.7s1.5-.1 1.9-.7l1.9-3.5c4.7 5.7 11.7 9.3 19.7 9.3 7.1 0 13.5-2.9 18.1-7.5-.1 0-.1 0-.2 0-.7 0-1.3-.2-1.9-.5z"/><path d="m61.4 42.1c-.1-.7-.8-1.3-1.6-1.3l-4 .1c1-2.8 1.6-5.8 1.6-8.9 0-11.8-8.1-21.8-19-24.7.4.6.6 1.3.6 2 0 1.1-.4 2.2-1.3 2.9 8.5 2.5 14.7 10.3 14.7 19.7 0 3.2-.7 6.2-2 8.9-.1 0-.1 0-.2-.2 0-.3.4-2.8.4-3l-1.6-2.8c-.4-.7-1.2-.9-1.9-.7-.7.3-1.1 1-1 1.8l2.1 10.5c.1.5.4.9.8 1.1s.9.3 1.4.1l10-3.8c.8-.2 1.2-1 1-1.7z"/><path d="m41 41v-9h1.5c.3 0 .5-.2.5-.5v-1.1c0-.3-.1-.6-.3-.7l-10.3-9.4c-.2-.2-.5-.2-.7 0l-10.3 9.4c-.2.2-.3.5-.3.7v1.1c0 .3.2.5.5.5h1.4v9h7v-7h4v7z"/></svg>