<svg height="64" viewBox="0 0 64 64" width="64" xmlns="http://www.w3.org/2000/svg"><path d="m0 0h64v64h-64z" fill="none"/><path d="m61.2248 30.2057-28.4122-26.8855c-.4594-.4269-1.166-.4269-1.6253 0l-28.4121 26.8855c-.494.4595-.7752 1.1067-.7752 1.7847v1.7968c0 .6697.5374 1.2128 1.2 1.2128h4.8v25h48v-25h4.8c.6626 0 1.2-.5431 1.2-1.2128v-1.7968c0-.678-.2813-1.3252-.7752-1.7847zm-29.2248 23.7943h-16.6s1.0051-7.1658 2.9126-9.0684c1.5298-1.5257 6.7945-3.3727 8.8571-4.0563.1838-.7091.318-1.3922.4105-1.9856-1.1865-1.3024-2.0749-2.8645-2.3186-4.6608-1.2023-.3392-1.4436-2.617-1.4436-3.4738 0-.8576.1647-1.3212.5015-1.4653.0785-.0334.153-.0318.2286-.0381-.1686-1.3266-.6318-5.8279.6209-7.3834 1.0103-1.2539 2.9287-2.005 4.6805-2.4653 2.5217-.6624 3.5015-.202 4.9407.5337 2.1947-.5328 3.3458.2617 4.2922 1.8925.9965 1.7148.4945 6.0948.3149 7.4134.092.0013.1859.0059.2832.0473.3368.144.5016.6077.5016 1.4653 0 .8568-.2413 3.1346-1.4437 3.4738-.3029 1.8634-1.1739 3.4073-2.3491 4.6935.089.5841.2274 1.2541.4263 1.9479 2.0527.6798 7.3388 2.5321 8.872 4.0612 1.9074 1.9026 2.9124 9.0684 2.9124 9.0684z"/></svg>