<svg height="64" viewBox="0 0 64 64" width="64" xmlns="http://www.w3.org/2000/svg"><path d="m0 0h64v64h-64z" fill="none"/><path d="m56.354 30.0468-23.6768-21.7828c-.3828-.352-.9716-.352-1.3544 0l-23.6768 21.7828c-.4116.3789-.646.9126-.646 1.4716v1.4816c0 .5522.4478 1 1 1h4v21h8v-6h-4v-8h10v8h-4v6h30v-21h4c.5522 0 1-.4478 1-1v-1.4816c0-.559-.2344-1.0927-.646-1.4716zm-10.354 18.9532h-16v-15h16z"/><path d="m38.5302 43.3341 2.9693 3.5945-.6251-4.9229-2.6567-.7813 1.3283-1.5628 4.454 1.2502-4.2977-3.5944-2.813 2.1878-4.0633-2.3441 3.1256 4.3758-3.5945 3.0475z"/></svg>