<svg enable-background="new 0 0 64 64" viewBox="0 0 64 64" xmlns="http://www.w3.org/2000/svg"><path d="m0 0h64v64h-64z" fill="none"/><path d="m13.5 11.977c3.137 0 4.952-2.209 4.952-5.389 0-3.624-1.897-5.566-4.952-5.566-3.218 0-4.952 2.297-4.952 5.566 0 3.446 1.815 5.389 4.952 5.389z"/><path d="m47.5 11.977c3.137 0 4.952-2.209 4.952-5.389 0-3.624-1.897-5.566-4.952-5.566-3.218 0-4.952 2.297-4.952 5.566 0 3.446 1.815 5.389 4.952 5.389z"/><path d="m27 31h35v4h-35z"/><path d="m44 25.132c0-.703-.369-1.354-.971-1.715l-4.029-2.417v-6c0-.552-.448-1-1-1h-10c-.552 0-1 .448-1 1v14h17z"/><path d="m27.5 39.967c0-1.884-1.053-3.491-2.533-4.147.005-8.684.391-19.608-5.943-21.119-3.337-.796-7.805-.796-11.049 0-6.362 1.561-5.942 11.647-5.942 20.357.21 3.052 2.454 3.92 3.801 3.92 0-.142 0-8.641 0-9.167 0-3.449.336-6.14.756-7.482.129-.407.41-.329.41-.329v41s4.865.039 5.237-5.05c0 0 .728-19.243.736-19.457s.167-.493.527-.493.508.279.517.493c.008.214.731 19.317.731 19.317.288 5.239 5.252 5.19 5.252 5.19v-7h10v-16h-2.503c0-.011.003-.021.003-.033zm-6.334-3.611c-.485.392-.879.904-1.166 1.494v-15.85s.302-.105.449.331c.406 1.203.716 4.033.716 7.435.001.417.001 4.064.001 6.59zm4.331 3.644h-3.995c0-.011-.003-.021-.003-.033 0-1.363.895-2.467 2-2.467s2 1.105 2 2.467c.001.012-.002.022-.002.033z"/><path d="m46 25.132v3.868h1.5 6.447v-7s.302-.105.449.331c.375 1.111.665 3.615.708 6.669h3.788c-.139-6.82-1.002-13.125-5.921-14.298-1.643-.392-3.561-.584-5.471-.59-1.91.006-3.828.198-5.471.59-.367.088-.705.213-1.029.356v4.81l3.058 1.835c1.198.718 1.942 2.033 1.942 3.429z"/></svg>