<svg enable-background="new 0 0 64 64" viewBox="0 0 64 64" xmlns="http://www.w3.org/2000/svg"><path d="m0 0h64v64h-64z" fill="none"/><path d="m28.4 31.8c.7-1.3 2.1-2 3.5-2 1.5 0 2.8.8 3.6 2l2.5 4.3c2.1.2 4.1.5 5.9.9 0-2.2-.1-8.2-1.5-9.7-1.6-1.7-5.3-2.5-6.5-2.8-.2 0-.4-.2-.4-.4-.1-.4-.1-.8-.2-1 1.2-1.2 2-2.7 2.3-4.7 1-.3 1.2-1.6 1.2-2.3 0-.8-.1-1.2-.4-1.3s-.5 0-.7.1c.2-1.6.4-4.9-.3-6.2s-1.6-1.9-3.3-1.4c-1.1-.6-1.9-1.4-3.8-.8-1.4.4-2.9 1.1-3.6 2.1-.9 1.1-.7 4.7-.5 6.3-.1-.1-.4-.2-.6-.1-.3.1-.4.6-.4 1.3 0 .8.2 2 1.2 2.3.3 2.1 1.1 3.5 2.3 4.7-.1.4-.1.7-.2 1 0 .2-.2.4-.4.4-1.3.3-5 1.1-6.5 2.8-1.5 1.5-1.6 7.6-1.6 9.7 1.9-.4 3.9-.7 5.9-.9z"/><path d="m47.5 39.5c.8.6 3.7.7 4.7.8.1.1 0 .3-.2.4-.9.4-2.8.6-3.8.6-1 .5-3.5 1.9-5.1 3.4l5.5 9.3c5-.9 10.4-2.6 14.3-6.4-.2-.9-.3-5.7-2.3-7-1-.7-2.4-.6-3.7-.4.2-2.5 3.7-5.2 2.8-12.1-.4-2.9-1.5-4.3-4.2-4-1.8-1.3-3.7-1.3-5.4-1-1.7.4-3.8 1.4-2.7 3.4-.5 1.6-.5 2-.5 2.7 0 2.3-.9 2.3-.9 4.5.2 1.3.8 5.4 1.5 5.8z"/><path d="m9.9 40.6c-2 .7-4 0-6.3 1.6-1.3.9-2.2 2.9-2.6 5.4 3.8 3.7 9.4 5.4 14.5 6.3l5.4-9.3c-1.7-1.9-4.1-3-5.3-3.4-.6-.3-.9-.6-1-1.3l-.2-.9c.4-.1.9-.2 1.3-.5.7-.5 2.1-4.5 2-5.9-.2-1.4-.4-1.5-.6-2.8s1-2.6.4-4.5c-.5-1.7-2.6-3.5-5.1-3-1.9.4-2.3.7-3.5 1.4 0 0-2.6-.4-3.8 1-1.8 2.2-.9 5.3-1.3 8.5-.4 2.8-1.9 4-1.9 4 1.9 1.6 4.5 2.6 8.2 3 .2.1.1.3-.2.4z"/><path d="m33.6 32.9c-.7-1.3-2.6-1.3-3.3 0l-15.2 26.2c-.7 1.3.2 2.9 1.7 2.9h30.6c1.5 0 2.4-1.6 1.6-2.9zm-13.5 25.3 11.9-20.5 12.1 20.5z"/><path d="m32 52.9c-1 0-1.5.7-1.5 1.6 0 1 .5 1.5 1.5 1.5s1.5-.7 1.5-1.5c-.1-1-.6-1.6-1.5-1.6z"/><path d="m30.8 51.6 2.3-.1v-2.3l.3-5.7-2.6.2z"/></svg>