<?xml version="1.0" encoding="utf-8"?>
<!-- Generator: Adobe Illustrator 25.2.0, SVG Export Plug-In . SVG Version: 6.00 Build 0)  -->
<svg version="1.1" xmlns="http://www.w3.org/2000/svg" xmlns:xlink="http://www.w3.org/1999/xlink" x="0px" y="0px"
	 viewBox="0 0 64 64" style="enable-background:new 0 0 64 64;" xml:space="preserve">
<style type="text/css">
	.st0{fill:none;}
	.st1{fill:#B3B3B3;}
</style>
<g id="Box">
	<rect class="st0" width="64" height="64"/>
</g>
<g id="Icon">
	<g>
		<path d="M36.474,12.169c2.908-0.446,4.316-2.496,3.829-5.673c-0.462-3.014-2.394-4.885-5.378-4.428
			c-2.832,0.435-4.316,2.496-3.804,5.836C31.571,10.837,33.566,12.615,36.474,12.169z"/>
		<path d="M51.913,17.668c-1.462-1.589-7.912-3.771-12.005-3.618c-6.744,0.253-8.645,2.449-9.521,3.598C29.584,18.698,27,25,27,25
			s-4.44-1.378-8.396-3.824c-0.241,0.543-1.18,2.966,0.957,4.933c1.222,1.125,7.084,4.03,8.59,3.442
			c1.901-0.741,4.056-5.66,5.132-7.375c0.539,3.086,1.134,6.627,1.587,9.899c-4.422,1.979-6.96,3.218-7.827,3.775
			c-1.75,1.125-1.692,3.228-1.517,4.569c0.322,2.456,3.761,14.208,3.99,15.141c2.813-1.295,3.843-4.028,3.648-5.508
			c-0.362-2.758-1.537-9.567-1.537-9.567c2-1.013,5.858-1.985,8-2.479c0.022,2.552-0.044,6.012-0.202,8.431
			c-0.237,3.622-1.276,7.653-1.438,10.406c-0.189,3.221,1.458,5.832,3.557,6.12c0.916-3.091,2.968-11.162,3.513-16.819
			c0.517-5.362,1.062-15.043-1.205-26.774c2.326,0.342,4.408,1.125,5.04,1.533c0.025,2.741-0.46,6.763-1.054,9.714
			c2.019-0.174,3.717-1.382,4.094-3.372C52.365,24.953,53.231,18.701,51.913,17.668z"/>
		<path d="M22,5l-6-3v4v5.998c-0.456-0.192-0.961-0.322-1.5-0.351c-1.933-0.106-3.5,1.012-3.5,2.497s1.573,2.698,3.5,2.882
			C16.475,17.214,18,15.979,18,14v-2V6.667L22,8V5z"/>
	</g>
</g>
</svg>
