<svg enable-background="new 0 0 64 64" viewBox="0 0 64 64" xmlns="http://www.w3.org/2000/svg"><path d="m0 0h64v64h-64z" fill="none"/><path d="m37.6 22.5c-.4-.3-1.1-.2-1.4.2s-.2 1.1.2 1.4l.7.6h-1.1c-.6 0-1 .5-.9 1.1 0 .5.5.9 1 .9h.1l3.8-.3c.4 0 .8-.3.9-.7s0-.8-.4-1.1z"/><path d="m56.1 32.6c-.7-2.5-2.9-3.7-5.3-4 2.5-4.6 8.5-16.8.7-18.1-2.5-2.8-4.1-4.9-10.3-4.7-5.8.2-12.5.3-15.1 9.9-1.2 4.5-.5 6.8.2 11.7-2.6-1.2-5.1-2.4-6.7-3.1-.1-.3-.2-.6-.3-.9-.4-1.1-.8-2.1-1.7-2.9-.9-.7-2-.8-2.8-.7-1.1-.9-2.4-1.3-3.7-1-1.2.3-2.4 1.2-3.1 2.7-2.4 5-.5 7.5 1.5 8.7 1.9 1.2 3.9 1.5 5.3 1.6 2.5 2.2 14.3 12.3 17.7 13.3 2.4.7 8.3-.2 13.3-1.5.1.2-.1.4-.4.5-4.5 2.1-10.9 3.6-13.8 2.8-2-.6-7-4.3-11.5-7.9-2.1.9-4.1 2-5.2 3.1-2.7 3.1-4.2 16.9-4.2 16.9h40.4s.9-12 4.3-19.6c.9-2.1 1.6-3.9.7-6.8zm-41.1-2.8c-1.1 0-2.8-.3-4.5-1.3-1.2-.7-2.6-2.2-.7-6.1.4-.9 1-1.5 1.8-1.6.7-.1 1.6.2 2.3.9l.4.4.6-.2s.9-.3 1.5.2c.5.5.8 1.2 1.1 2.1 0 .1.1.2.1.3zm14.1-1.1c0-1.2.1-2.5.6-3.7-1.3-1.1-2-2.7-1.2-4.6.5-1.2 1.7-2.2 3.2-1-.1.7-.2 1.1-.2 1.3-.1.9 1.2 1.2 1.2 1.2l2.1-5.4c2 .6 10 2.2 15.1 1.8l.5 4.7c-.4 1-.9 1.9-1.4 2.8-.9.1-2.1.3-2.5.4s-.7.4-.8.8.1.8.4 1l1.1.7c-3.3.5-8 1.9-11.3 3.1-1.8-.7-4.3-1.9-6.8-3.1z"/></svg>