<svg height="64" viewBox="0 0 64 64" width="64" xmlns="http://www.w3.org/2000/svg"><path d="m0 0h64v64h-64z" fill="none"/><path d="m36.2039 18.9631c2.829.1697 4.5938-1.7385 4.7778-4.6282.2098-3.2911-1.3889-5.1588-4.144-5.3243-2.9023-.174-4.5987 1.8189-4.7877 4.789-.1995 3.1301 1.3254 4.9937 4.1539 5.1635z"/><path d="m7.0355 45.0003c-3.2405.0317-4.9617 1.7729-4.9352 4.549.0284 2.9243 2.0982 4.4794 5.0225 4.4503 3.082-.0303 4.8043-1.6971 4.7768-4.5471-.0275-2.8504-2.0189-4.4803-4.8641-4.4522z"/><path d="m40.3054 47.7137c1.3726-2.1694 2.3515-3.7497 3.6451-5.6002 1.6528-.3476 4.9184-.6467 6.6106-.7903 4.2502-.4095 5.9329-2.8573 5.9485-4.6654-3.3266-.2094-5.5065-.3646-8.6238-.4575-5.4742-.159-6.5384.3935-7.5709 1.1658 1.1362.6943-1.3749-.8393 1.6875 1.0308-1.0605 1.3743-2.62 3.1147-5.6816 2.9728-4.0561 4.3506-1.9561 2.1139-3.3337 3.6302h-14.8962c-3.1818.0001-4.7909 1.9884-4.7909 4.4737 0 2.4852 1.7909 4.5 4.7909 4.5h17.9091s-.0455-3.4436-4.8428-4.0172c-3.7096-.4435-10.0031-.8113-12.29-.9366-.0524-.1989.109-.3751.5461-.4278.4864-.0587 7.3259-.6746 11.9221-.1248 4.802.5743 6.1281 3.8073 6.163 5.4601l17.7414.0341c3.9406-.0875 5.79-2.2312 6.5833-3.6624z"/><path d="m33.6788 39.2792c3.8745 1.4563 5.4206.082 5.9932-.5479-4.4092-2.6913-8.6467-5.3828-8.6467-5.3828l.8008-5.7182c.0585-.0132.269-.0316.3273.2964l.282 4.5388c1.1238.7101 3.7017 2.3318 6.5461 4.0819.3772-.3364.4879-.4518.924-.7155l.8059-7.1078c1.3795 1.4121 3.7752 3.6201 6.3252 6.0164 1.8752.0385 4.1348.139 5.9232.2516-1.919-2.3593-8.9614-9.6983-11.4946-11.8522-2.5307-2.1518-8.5455-2.7228-11.5089-1.112-1.0546.5732-2.1959 1.707-2.4411 3.068-.1978 1.098-.9161 6.6899-1.0596 8.9264-.0614.9575.2586 1.5513.8044 2.0684 1.3179 1.2488 4.4921 2.4643 6.4188 3.1885z"/><path d="m27.4032 38.0707c-.1951 2.4702-.3363 4.5432-.3841 5.5366h5.1823c.901-.9917.3877-.4351 2.3271-2.5132-1.6914-.4099-5.3005-1.8535-7.1253-3.0234z"/></svg>