<?xml version="1.0" encoding="utf-8"?>
<!-- Generator: Adobe Illustrator 19.1.0, SVG Export Plug-In . SVG Version: 6.00 Build 0)  -->
<svg version="1.2" baseProfile="tiny" xmlns="http://www.w3.org/2000/svg" xmlns:xlink="http://www.w3.org/1999/xlink" x="0px"
	 y="0px" width="64px" height="64px" viewBox="0 0 64 64" xml:space="preserve">
<g id="_x36_4px_Box">
	<rect fill="none" width="64" height="64"/>
</g>
<g id="Icon">
	<g>
		<path d="M29,2H8v19h21V2z M14,18h-3V5h3V18z M20,18h-3V5h3V18z M26,18h-3V5h3V18z"/>
		<path d="M53,50H42c-1.1046,0-2,0.8954-2,2c0,1.1046,0.8954,2,2,2h11c1.1046,0,2-0.8954,2-2C55,50.8954,54.1046,50,53,50z"/>
		<path d="M40.7295,21.5822c3.226-0.7432,4.6595-3.1205,3.8902-6.5724c-0.7298-3.2752-3.0258-5.1655-6.3359-4.4028
			c-3.1422,0.7239-4.6594,3.1203-3.8508,6.7497C35.1432,20.5425,37.5032,22.3256,40.7295,21.5822z"/>
		<path d="M51.0861,25.2319c-2.0994-5.1898-8.6923-4.3961-10.0021,0.1356c-1.0187,2.6556-1.736,7.1133-2.7402,8.6033
			c-0.9205,1.3659-3.1827,3.6635-5.7012,6.1116c-2.6166,2.5435-1.1611,4.8522-1.1611,4.8522s0.5811-0.4294,1.4481-1.0797
			c-0.1301,0.2184-0.258,0.453-0.3836,0.7207C31.4378,46.9377,26.34,61.4699,26.34,61.4699c0.9664,0.43,3.9982,1.1313,6.4368-3.0879
			c2.4388-4.22,5.8942-10.4811,5.8942-10.4811s8.4461,0.0451,11.0836-0.0048c3.6318-0.0686,5.9086-2.1779,6.1556-4.7834
			C56.291,39.0974,52.9122,29.7462,51.0861,25.2319z M37.2244,41.5166c-0.6254,0.1002-1.1664,0.2003-1.6501,0.3326
			c2.2545-1.7302,4.7321-3.6931,5.4249-4.4784c0.8419-0.9543,1.3695-2.2313,1.6969-3.3407c0.8024,2.57,1.451,4.7496,1.8662,6.4777
			C41.4296,40.8818,39.2413,41.1933,37.2244,41.5166z"/>
	</g>
</g>
</svg>
