<?xml version="1.0" encoding="utf-8"?>
<!-- Generator: Adobe Illustrator 19.1.0, SVG Export Plug-In . SVG Version: 6.00 Build 0)  -->
<svg version="1.2" baseProfile="tiny" xmlns="http://www.w3.org/2000/svg" xmlns:xlink="http://www.w3.org/1999/xlink" x="0px"
	 y="0px" width="64px" height="64px" viewBox="0 0 64 64" xml:space="preserve">
<g id="Box">
	<rect fill="none" width="64" height="64"/>
</g>
<g id="Icon">
	<g>
		<path d="M44,27c0.8286,0,0.99-0.6714,0.99-1.5S44.8286,24,44,24H23V13.6226c0-1.1045-0.8955-1.49-2-1.49s-2,0.3855-2,1.49v14.4487
			c0,1.7906,0.4412,3.4774,1.2079,4.9705l-7.5678,27.426c-0.2939,1.0649,0.433,1.6565,1.4975,1.95
			c1.062,0.2939,2.0637,0.1813,2.358-0.8855L19.6777,50h17.0259l1.6635,11.2915c0.1612,1.0938,1.1076,1.3391,2.1986,1.177
			c1.0928-0.1606,1.9196-0.6672,1.7584-1.76l-4.6396-31.4927c0.0605-0.0305,0.2693-0.101,0.3874,0.1976
			c1.8463,4.6682,2.3974,6.0152,2.3974,6.0152c0.2792,0.2471,0.2898,0.2359,0.602,0.5c4.4698,3.7822,7.5715,0.9285,7.5715,0.9285
			L40.2354,27H44z M23,27h2v1.0713C25,30.7891,27.2109,33,29.9287,33h4.2705l0.2946,2h-4.5651C26.0989,35,23,31.8702,23,28.0713V27z
			 M20.5056,47l2.8249-10.2374C25.1666,38.16,27.4487,39,29.9287,39h5.1544l1.1786,8H20.5056z"/>
		<path d="M39,14.75c-3.3552-2.097-7.0801-1.9392-9.4445,0.25c-2.3281,2.1556-3.3366,5.5729-3.6731,7h10.1857
			c0.335-0.8946,0.7778-1.9056,1.2652-2.5555c0,0,4.6967,2.0569,7.5417,2.8055c4.75,1.25,5.5536-1.7603,5.5536-1.7603
			C46.25,19.079,42.5555,16.9722,39,14.75z"/>
		<path d="M36.2099,11.9241c2.9724,0.4776,5.0253-1.3388,5.504-4.3525c0.5458-3.4336-0.9594-5.5635-3.8541-6.0293
			c-3.0494-0.4902-5.0381,1.4229-5.5305,4.5204C31.8099,9.3275,33.2383,11.4456,36.2099,11.9241z"/>
	</g>
</g>
</svg>
