<svg height="64" viewBox="0 0 64 64" width="64" xmlns="http://www.w3.org/2000/svg"><path d="m0 0h64v64h-64z" fill="none"/><path d="m44 27c.8286 0 .99-.6714.99-1.5s-.1614-1.5-.99-1.5h-21v-10.3774c0-1.1045-.8955-1.49-2-1.49s-2 .3855-2 1.49v14.4487c0 1.7906.4412 3.4774 1.2079 4.9705l-7.5678 27.426c-.2939 1.0649.433 1.6565 1.4975 1.95 1.062.2939 2.0637.1813 2.358-.8855l3.1821-11.5323h17.0259l1.6635 11.2915c.1612 1.0938 1.1076 1.3391 2.1986 1.177 1.0928-.1606 1.9196-.6672 1.7584-1.76l-4.6396-31.4927c.0605-.0305.2693-.101.3874.1976 1.8463 4.6682 2.3974 6.0152 2.3974 6.0152.2792.2471.2898.2359.602.5 4.4698 3.7822 7.5715.9285 7.5715.9285l-8.4074-9.8571zm-21 0h2v1.0713c0 2.7178 2.2109 4.9287 4.9287 4.9287h4.2705l.2946 2h-4.5651c-3.8298 0-6.9287-3.1298-6.9287-6.9287zm-2.4944 20 2.8249-10.2374c1.8361 1.3974 4.1182 2.2374 6.5982 2.2374h5.1544l1.1786 8z"/><path d="m39 14.75c-3.3552-2.097-7.0801-1.9392-9.4445.25-2.3281 2.1556-3.3366 5.5729-3.6731 7h10.1857c.335-.8946.7778-1.9056 1.2652-2.5555 0 0 4.6967 2.0569 7.5417 2.8055 4.75 1.25 5.5536-1.7603 5.5536-1.7603-4.1786-1.4107-7.8731-3.5175-11.4286-5.7397z"/><path d="m36.2099 11.9241c2.9724.4776 5.0253-1.3388 5.504-4.3525.5458-3.4336-.9594-5.5635-3.8541-6.0293-3.0494-.4902-5.0381 1.4229-5.5305 4.5204-.5194 3.2648.909 5.3829 3.8806 5.8614z"/></svg>