<svg height="64" viewBox="0 0 64 64" width="64" xmlns="http://www.w3.org/2000/svg"><path d="m0 0h64v64h-64z" fill="none"/><path d="m60.3347 52.9732-.037-.005c-.5009-.0682-.9978.0796-1.41.3742-1.3563.9695-2.2513 1.5494-3.5242 1.2333-1.9352-.4806-3.3646-2.2595-3.3031-4.3677.0609-2.0845 1.4981-3.6492 3.1989-4.0819 1.3487-.3433 2.6306.5056 3.6128 1.201.4196.2972.9178.4244 1.4293.385.8264-.0638 1.7571-1.038 1.6922-2.0512-.177-2.7628-.6655-5.3651-.8885-6.4495-.0586-.2847-.3434-.4569-.6227-.3767-1.133.3253-4.036 1.0668-7.4712 1.2352-.7666.0375-1.433-.5318-1.5152-1.295l-.0016-.0142c-.0501-.4669.1385-.917.4771-1.2401 1.081-1.0319 1.6336-2.619 1.2061-4.308-.3834-1.5153-1.6237-2.7353-3.1456-3.0912-2.8408-.6643-5.3656 1.4891-5.3656 4.2363 0 1.2501.5229 2.3772 1.3604 3.1717.336.3187.5177.7672.468 1.2293l-.0017.0162c-.0803.7627-.7456 1.3326-1.5116 1.2951-3.3207-.1623-6.1427-.8604-7.3521-1.2009-.3192-.0899-.6295.1493-.6293.481.0023 3.085.0093 15.9889.0008 20.8197-.0019 1.0141.8196 1.8302 1.8337 1.8302h21.7532c.2368 0 .4396-.159.4881-.3906.2075-.9904.7379-3.7279.9204-6.6346.0626-.9968-.6718-1.8677-1.6616-2.0016z"/><path d="m41.9976 23.001c0-.7447.0012-2.7025-1.2268-4.0366.3037-3.3378.515-8.5034-.7869-10.587-1.6026-2.5649-3.5497-3.8159-7.2632-2.9775-2.4355-1.1577-4.0937-1.8823-8.3608-.8398-2.9649.7241-6.21 1.9067-7.92 3.8798-1.652 1.9066-1.5394 7.2237-1.2741 10.6054-1.1589 1.332-1.1634 3.2256-1.1634 3.9557 0 2.386.7374 4.3299 2.0614 5.5497.3819 2.5118 1.613 4.9141 3.7104 7.2619-.106.807-.2283 1.7498-.353 2.7313-2.5129.7345-9.6714 2.9969-12.0341 5.5665-2.8734 3.124-4.3871 14.8896-4.3871 14.8896h31v-16.2811c-1.0178 2.6989-3.736 5.269-5.619 6.6209-2.3004-1.75-6.5919-5.5302-6.1588-9.0224.237-1.9129.0408-.5492.8235-5.4371-2.2767-2.1999-4.1043-4.8665-4.1043-8.061-1.6177-.5039-2.0414-2.5454-2.0414-3.8183 0-1.2725.3217-1.961.7738-2.1743.3921-.1845.7725-.0476 1.013.0886.1414.6527.2483 1.1383.2898 1.3098.0815.3367.3406.627.5469.7211.0035.0019.0055.0054.0092.0072l1.007.5033c.081 1.7213 1.5194 3.1002 3.2899 3.1002 1.8222 0 3.3051-1.4575 3.3051-3.249 0-.2689-.043-.5263-.106-.7764.5927-.3661 1.3887-.368 1.9821-.0015-.0632.2505-.1065.5084-.1065.7779 0 1.7915 1.4829 3.249 3.3051 3.249 1.7705 0 3.2089-1.3789 3.2899-3.1002l1.007-.5033c.0037-.0018.0056-.0053.0092-.0072.2812-.1285.463-.4084.5273-.6749.0571-.2356.2509-1.1289.3037-1.3708.2405-.1362.5876-.2582.9797-.0737.4521.2132.7738.9017.7738 2.1742 0 1.2729-.4237 3.3145-2.0414 3.8183 0 2.2718-.9559 4.2002-2.3412 5.9039l-.0174.0059c-.6512.7996-1.3917 1.5524-2.1758 2.2661-.006.0054-.0119.0107-.0179.0161-1.3267 1.2054-2.5327 1.7995-4.5068 1.798-1.0628-.0008-2.1255-.2865-2.9271-.6349 1.1667 1.7686 2.9238 2.7068 5.0258 2.79v.0139c2.4408.0925 4.1141-.9741 5.8898-2.8773 1.928-2.0663 3.5193-4.871 3.9417-7.5444 1.3281-1.2194 2.0679-3.1656 2.0679-5.5556zm-18.168 2.1084c-1.0255 0-1.8594-.8082-1.8594-1.8015s.8339-1.8015 1.8594-1.8015c1.0254 0 1.8593.8082 1.8593 1.8015-.0001.9933-.8339 1.8015-1.8593 1.8015zm8.3798 0c-1.0254 0-1.8593-.8082-1.8593-1.8015s.8339-1.8015 1.8593-1.8015c1.0255 0 1.8594.8082 1.8594 1.8015s-.8339 1.8015-1.8594 1.8015zm3.7906-3.8618h-1.2565c-.6068-.7198-1.5112-1.1887-2.5341-1.1887-1.0029 0-1.892.4509-2.4987 1.1465-.5068-.2996-1.0816-.4722-1.6912-.4722-.6008 0-1.1801.1767-1.6888.4752-.6068-.6974-1.4968-1.1495-2.5011-1.1495-1.0229 0-1.9273.4689-2.5341 1.1887h-1.276l-.0195-.0046v-4.9901c2.0731-.1505 6.1937-.7531 10.7499-3.1062l5.2501 3.5262z"/></svg>