<svg enable-background="new 0 0 64 64" viewBox="0 0 64 64" xmlns="http://www.w3.org/2000/svg"><path d="m0 0h64v64h-64z" fill="none"/><path d="m22.7 13.9c2.9-.9 3.9-3.4 3-6.4-1-3.3-3.3-4.6-6.1-3.7-3 .9-3.9 3.5-3 6.5.9 3.2 3.2 4.5 6.1 3.6z"/><path d="m51.7 33.2c-1.6-1.3-3-2.4-5-3.8-1.2-.8-1.7-.7-2.5-.5-1.4.3-5.8 1.4-10.7 3.1-1.1-3.3-3.1-9-4-12 3.5-1.2 7.1-2.9 8.4-3.9 1.8-1.4 3.7-3.4 5.2-5.3 1.3-1.6 1.5-3.9.1-5.5-.9.8-5.9 5.9-8.4 7.2-2.3 1.7-8.3 2.8-12.7 4-5 1.3-10 3.5-12.4 3.6-1.3.1-5.5-7.8-6.3-8.7-1.7 1.3-2 3.7-1.1 5.6 1.2 2.2 3.4 6.4 5.7 7.2 1.8.7 6.4-.1 10.7-1.4 1.3 4.7 3.9 11.9 4.6 13.8.8 2.2 2.9 4.1 8.7 2.9.1.1 0 .3-.4.5-.9.5-2.1.8-3.8 1.1 2.6 1.8 4.8 3.3 7.7 5.2.2 3.8.5 6.4 1 9.5.2 1.5 1.8 4 4.9 4.7.1-4 .2-6.5.1-10.5 0-2.1 0-3.9-.2-6.2-.1-1.4-.5-1.7-1.2-2.2s-2.2-1.8-4.4-3.3c0 0 5.9-1.8 9.2-2.9 3.1 2.2 5.3 3.6 8 5.2 1.3.8 4.3 1.1 6.7-.9-2.9-2.4-4.8-4-7.9-6.5z"/><path d="m16.4 48.6c-.1-.3-.4-.5-.7-.5h-5.8c-.4 0-.8.4-.7.8 1.9 8.3 9.9 12.6 23.8 11.1-8.5-1.2-14.5-4.6-16.6-11.4z"/></svg>