<svg height="64" viewBox="0 0 64 64" width="64" xmlns="http://www.w3.org/2000/svg"><path d="m0 0h64v64h-64z" fill="none"/><path d="m34.2002 11.689c2.9871.4903 5.0589-1.3175 5.5532-4.3296.5634-3.4307-.9413-5.567-3.8504-6.0449-3.0645-.5028-5.0724 1.4014-5.5804 4.4974-.5357 3.2627.8911 5.3868 3.8776 5.8771z"/><path d="m58 43-2.9375-8.3125c-.189-.519-.7629-.7864-1.2819-.5974l-5.0845 1.8517-.9706-2.665c-.0815-.2241-.249-.4067-.4653-.5078-.2173-.1006-.4644-.1108-.6885-.0298l-.9901.3606c-1.0594-1.2846-2.3607-2.7928-2.8116-3.3476-.4979-.6125-1.6885-2.0239-2.0126-2.74-.4429-.9557-.8034-2.2042-1.1187-3.3315-.1473-.5267-1.6454-6.7142-1.8753-7.0479-.8086-2.0169-6.9005-4.8287-10.506-2.6802-1.9837 1.1821-5.7143 3.9563-7.6051 6.0283-1.1489 1.2747-1.613 2.0419-2.1057 4.8385-.3 1.7635-.4926 3.8031-.5282 5.5777-.0396 1.9717 1.0039 3.8375 3.0701 4.2678.4451-3.3688 1.1487-8.403 2.2279-10.5869.4394-.889 2.4294-2.2172 3.2609-2.7575-.5286 2.4518-2.3518 10.6284-2.3518 12.5007 0 2.3154 1.4959 3.518 2.451 4.5186l3.7331 3.9111s-.1385.2378-.4565.0537c-1.6328-.9453-3.7839-2.1867-3.7839-2.1867-.5365 2.0231-1.4125 5.3192-2.1817 7.2795-.6125 1.5609-.4012 1.1173-.9948 2.1323-1.201 2.0535-2.751 4.1289-4.0837 6.4602-2.1914 3.8334.4587 6.6486.8304 7.0083 2.1537-3.0253 5.866-7.4979 7.9595-10.6465.7007-1.0398.7781-1.1245 1.5663-2.6381.5991-1.2116 1.4144-2.9511 2.5855-5.852.5138.4693 1.0106.9995 1.524 1.5161 1.2635 1.2713 2.0442 1.8894 2.5422 2.8286.1505.2838.4639.9288.7798 1.7426 1.9283 4.9677 3.47 7.8597 4.3235 9.8959 1.2834 3.0612 4.8486 3.3614 5.8486 3.0583-.9836-3.8884-3.2562-11.8343-4.523-15.6936-.8951-2.7269-1.016-2.7699-1.5951-3.7217-.6775-1.1134-1.3194-1.9691-1.9498-2.8424-1.3217-1.7959-2.694-3.5524-4.0899-5.2991.5536-2.9043 1.362-6.4941 2.1189-9.7022.3231 1.0061.6906 2.0533 1.2523 3.1833.6809 1.3301 2.9375 3.379 3.9658 4.4628.4136.4359.8303.7598 1.241 1.0088l-.6495.2366c-.4668.1699-.7075.6865-.5376 1.1538l.9705 2.6647-2.6434.9627c1.3046 1.7688 1.6881 2.3823 2.2764 3.3408.5625.9072.7998 1.3506 1.6357 3.897.2418.7368.5156 1.608.8057 2.5547l13.2556-4.8276c.5191-.1889.7866-.7628.5976-1.2817zm-14.8984-7.0811 3.2407-1.1802.6624 1.8191-3.2407 1.1803z"/></svg>