<?xml version="1.0" encoding="utf-8"?>
<!-- Generator: Adobe Illustrator 18.1.1, SVG Export Plug-In . SVG Version: 6.00 Build 0)  -->
<svg version="1.2" baseProfile="tiny" xmlns="http://www.w3.org/2000/svg" xmlns:xlink="http://www.w3.org/1999/xlink" x="0px"
	 y="0px" width="64px" height="64px" viewBox="0 0 64 64" xml:space="preserve">
<g id="Box">
	<rect fill="none" width="64" height="64"/>
</g>
<g id="Icon">
	<g>
		<path d="M34.1063,45.2269c0.4095,3.0651,1.0858,6.0908,2.0255,9.0411c0.353,1.0923,1.585,1.7906,2.699,1.5757
			c0.3582-0.0691,0.7163-0.1382,1.0745-0.2073c-1.0837-2.3631-3.2686-7.6426-3.3134-7.7272
			C36.2323,47.2308,34.705,45.8367,34.1063,45.2269z"/>
		<path d="M56.6323,37.6497c-0.353-1.0921-1.585-1.7908-2.699-1.5757c-1.8231,0.3517-3.6162,0.7136-5.4395,1.0653l-0.2146-1.0828
			c-0.2357-1.1887-1.24-2.0514-2.3882-2.0514c-0.0143,0-0.0284,0.004-0.0428,0.0042c-1.152-2.2132-2.6079-4.8737-2.8207-5.8915
			c-0.5306-2.4309-0.3672-8.8236-1.0276-10.782c-0.5188-1.5386-2.0613-2.9538-3.4728-3.7407
			c-2.3024-1.332-5.9178-2.0438-8.2694-0.6425c-1.9836,1.1821-5.7144,3.9563-7.6051,6.0283
			c-1.1489,1.2746-1.6129,2.0419-2.1057,4.8385c-0.2999,1.7635-0.7081,3.8054-0.7438,5.58
			c-0.0256,1.2775,0.4106,2.5035,1.278,3.3304l-2.4449,6.5704l-4.7039-1.9561c-1.313-0.5459-2.8254-0.0732-3.6003,1.1189
			c-1.0154,1.5623-1.6633,2.2548-3.6221,7.1365c-2.0803,4.8313-2.1144,5.779-2.5061,7.6006
			c-0.2988,1.3901,0.4326,2.7959,1.7456,3.3418l1.5481,0.6438c0,0,0.5626-1.3502,1.8306-2.0921
			c1.4688-0.8594,2.7588-0.5764,3.2031-0.4375c0.25,0.0781,0.3005,0.2791,0.2273,0.3698c-1.0432-0.1079-2.0024,0.2946-2.6907,0.9738
			c-1.4552,1.4359-1.3835,3.6582-0.0204,4.9972C10.679,61.6174,11.5449,62,12.5,62c0.9795,0,1.865-0.4023,2.5002-1.0507
			C15.6187,60.318,16,59.4536,16,58.5c0-1.1194-0.5352-2.1047-1.353-2.7454c0.0015-0.0037,8.2278-22.0975,8.2278-22.0975
			s0.6252-6.2821,2.4421-10.579c0.3862-0.9134,2.4293-2.2172,3.2607-2.7575c-0.5286,2.4518-2.3518,10.6283-2.3518,12.5007
			c0,2.3154,1.496,3.518,2.4512,4.5186l3.733,3.9111c0,0-0.1385,0.2379-0.4567,0.0537c-1.6328-0.9453-3.7839-2.1867-3.7839-2.1867
			c-1.0735,4.0485-1.9939,7.39-3.1764,9.4118c-1.201,2.0535-2.7511,4.1289-4.0837,6.4602
			c-2.1914,3.8334,0.4587,6.6486,0.8304,7.0083c2.1537-3.0253,5.866-7.4979,7.9595-10.6465
			c1.6306-2.4197,2.8508-5.2675,4.1519-8.4901c0.6649,0.6074,3.6041,3.4734,4.0662,4.3447
			c0.1504,0.2837,0.4639,0.9288,0.7798,1.7426c1.9282,4.9677,3.47,7.8597,4.3236,9.8959c1.2833,3.0612,4.8485,3.3614,5.8485,3.0583
			c-0.9835-3.8884-3.2561-11.8343-4.5229-15.6936c-0.895-2.7269-1.016-2.7699-1.5951-3.7217
			c-1.3408-2.2036-4.4253-6.1215-6.0397-8.1415c0.2321-1.2172,1.0219-4.643,1.8441-8.2362c0.0941,0.933,0.2252,1.9084,0.4904,2.9809
			c0.325,1.251,2.5874,4.8499,3.271,5.7643c-0.793,0.5358-1.2314,1.546-1.025,2.5865l0.095,0.479
			c1.6521,2.1993,2.1927,3.0519,2.809,4.0522c0.5344,0.8619,0.7607,1.2863,1.5757,3.7685c0.6764,2.0609,1.6147,5.2036,2.4957,8.2812
			c2.9429-0.5678,5.8557-1.1456,8.7986-1.7134c1.1139-0.2151,1.9977-1.3216,1.9191-2.4667
			C58.6825,45.7001,57.8928,41.6075,56.6323,37.6497z M12.5,60c-0.8284,0-1.5-0.6716-1.5-1.5s0.6716-1.5,1.5-1.5s1.5,0.6716,1.5,1.5
			S13.3284,60,12.5,60z M43.4631,38.1099l-0.2095-1.0569c-0.0559-0.282,0.0703-0.5446,0.2817-0.5865l2.2979-0.4556
			c0.2332-0.0465,0.4352,0.1873,0.4841,0.4347l0.2128,1.0727C45.5078,37.7155,44.4855,37.9127,43.4631,38.1099z"/>
		<path d="M39.1018,11.6224c2.8235,1.0916,5.2216-0.2537,6.3223-3.1007c1.2539-3.2426,0.2185-5.6418-2.531-6.7053
			c-2.8966-1.1198-5.252,0.3329-6.3831,3.2593C35.3174,8.1597,36.2791,10.5309,39.1018,11.6224z"/>
	</g>
</g>
</svg>
