<svg enable-background="new 0 0 64 64" height="64" viewBox="0 0 64 64" width="64" xmlns="http://www.w3.org/2000/svg"><path d="m0 0h64v64h-64z" fill="none"/><path d="m16 54.5v6.9c0 2 4 2 4 0v-6.9c0-2-4-2-4 0zm15-43.6c2.8 0 4.5-2 4.5-4.9 0-3.3-1.7-5-4.5-5-2.9 0-4.5 2.1-4.5 5 0 3.2 1.7 4.9 4.5 4.9zm5.6 2.7c-3-.7-8.3-.7-11.2 0-5.8 1.4-5.4 10-5.2 17.9.1 2.8 2.3 3.8 3.5 3.8v-8.1c0-1.6.1-3.1.2-4.2.3-2.8.6-2.9 1.1-2.8v14.3l-2.5 21.5h-1.5v4l10.5-1 9.5 1v-4h-1.5l-2.6-21.6v-14.2c.6-.1.9 0 1.2 2.8.1 1.2.2 2.6.2 4.2v5.7 2.4c1.2 0 3.4-1.1 3.5-3.8.3-7.9.6-16.5-5.2-17.9zm-9.4 42.4c1.2-7.7 3.3-21 3.4-21.1 0-.2.2-.4.5-.4s.4.3.5.4c0 .1 1.3 7.7 3.3 21.1zm14.8-1.5v6.9c0 2 4 2 4 0v-6.9c0-2-4-2-4 0z"/></svg>