<?xml version="1.0" encoding="utf-8"?>
<!-- Generator: Adobe Illustrator 17.1.0, SVG Export Plug-In . SVG Version: 6.00 Build 0)  -->
<svg version="1.2" baseProfile="tiny" xmlns="http://www.w3.org/2000/svg" xmlns:xlink="http://www.w3.org/1999/xlink" x="0px"
	 y="0px" width="64px" height="64px" viewBox="0 0 64 64" xml:space="preserve">
<g id="_x36_4px_Box">
	<rect fill="none" width="64" height="64"/>
</g>
<g id="Label" display="none">
</g>
<g id="Production">
	<g>
		<path d="M34.2002,11.689c2.9871,0.4903,5.0589-1.3175,5.5532-4.3297c0.5634-3.4307-0.9413-5.567-3.8503-6.0449
			c-3.0645-0.5029-5.0724,1.4013-5.5804,4.4973C29.7869,9.0746,31.2137,11.1987,34.2002,11.689z"/>
		<path d="M39.7508,43.4879c-0.6775-1.1134-1.3194-1.9691-1.9498-2.8424c-1.3217-1.7959-2.694-3.5524-4.09-5.2991
			c0.5537-2.9044,1.362-6.4941,2.119-9.7022c0.3231,1.0061,0.6906,2.0533,1.2523,3.1833c0.6809,1.3301,2.9375,3.379,3.9658,4.4628
			c0.5729,0.6039,1.152,1.001,1.7119,1.262c-0.226,0.4481-0.299,0.9728-0.1511,1.4625l0.5472,1.8168l-2.7893,0.851l4.6436,15.2207
			l11.988-3.6575l-4.6436-15.2206l-2.564,0.7822l-0.5406-1.793c-0.1536-0.5114-0.497-0.9327-0.9678-1.186
			s-1.0121-0.308-1.5241-0.1537l-1.2233,0.3687c-1.0508-1.2722-2.3206-2.7444-2.765-3.2912
			c-0.4979-0.6125-1.6885-2.0239-2.0126-2.74c-0.4429-0.9557-0.8034-2.2042-1.1187-3.3315
			c-0.1473-0.5267-1.6454-6.7142-1.8753-7.0479c-0.8086-2.0169-6.9005-4.8287-10.506-2.6802
			c-1.9837,1.1821-5.7143,3.9563-7.6051,6.0283c-1.1489,1.2746-1.613,2.0419-2.1057,4.8385c-0.3,1.7635-0.4926,3.8031-0.5282,5.5777
			c-0.0057,0.282,0.017,0.5598,0.0555,0.8336c-0.6277,0.0579-1.2317,0.3912-1.5613,0.9431l-0.9741,1.6284l-2.5079-1.4883
			l-8.1212,13.685l10.7786,6.3963l8.1211-13.6849l-2.3054-1.3681l0.961-1.6073c0.2744-0.458,0.3545-0.9956,0.2246-1.5142
			s-0.4541-0.9556-0.9131-1.23l-0.4251-0.2542c0.4446-3.1399,1.0777-6.8623,1.9653-8.6584c0.4393-0.889,2.4294-2.2172,3.2609-2.7575
			c-0.5286,2.4518-2.3518,10.6283-2.3518,12.5007c0,2.3154,1.4959,3.518,2.451,4.5186l3.7331,3.9111
			c0,0-0.1386,0.2378-0.4565,0.0537c-1.6328-0.9453-3.7839-2.1867-3.7839-2.1867c-0.5365,2.0231-1.4125,5.3192-2.1817,7.2795
			c-0.6125,1.5608-0.4012,1.1172-0.9948,2.1323c-1.201,2.0535-2.751,4.1289-4.0837,6.4602
			c-2.1914,3.8334,0.4587,6.6486,0.8304,7.0083c2.1537-3.0253,5.866-7.4979,7.9595-10.6465
			c0.7007-1.0398,0.7781-1.1244,1.5663-2.6381c0.5991-1.2116,1.4144-2.951,2.5855-5.852c0.5138,0.4693,1.0106,0.9995,1.524,1.5161
			c1.2635,1.2713,2.0442,1.8894,2.5422,2.8286c0.1505,0.2837,0.4639,0.9288,0.7798,1.7426c1.9283,4.9677,3.47,7.8597,4.3235,9.8959
			c1.2834,3.0612,4.8486,3.3614,5.8486,3.0583c-0.9836-3.8884-3.2562-11.8343-4.523-15.6936
			C40.4508,44.4827,40.3299,44.4397,39.7508,43.4879z M47.3348,34.5902l0.5434,1.8007l-2.8094,0.8572l-0.5455-1.8101
			L47.3348,34.5902z M18.7842,36.3217l-2.526-1.499l0.9703-1.6224l2.5205,1.5068L18.7842,36.3217z"/>
	</g>
</g>
</svg>
