<?xml version="1.0" encoding="utf-8"?>
<!-- Generator: Adobe Illustrator 19.2.0, SVG Export Plug-In . SVG Version: 6.00 Build 0)  -->
<svg version="1.0" xmlns="http://www.w3.org/2000/svg" xmlns:xlink="http://www.w3.org/1999/xlink" x="0px" y="0px"
	 viewBox="0 0 64 64" enable-background="new 0 0 64 64" xml:space="preserve">
<g id="achtergrond">
</g>
<g id="paneel_1">
	<g>
		<path d="M21.1746,20.0557c2.8438-0.4344,4.1768-2.6297,3.7289-5.4287c-0.5098-3.1893-2.5039-4.6374-5.273-4.2152
			c-2.9155,0.4458-4.1625,2.708-3.7025,5.5859C16.4141,19.0306,18.3336,20.4902,21.1746,20.0557z"/>
		<path d="M42.9932,33.4847c-2.5033-2.8402-3.4289-2.7606-7.0284-1.579c-1.9522,0.6584-4.0388,1.5044-6.0095,2.344
			c-1.4617-4.7455-2.9561-8.6976-2.9561-8.6976c-2.1932-6.466-10.524-4.3296-9.3175,1.6451
			c0.8367,4.1469,2.2906,9.9347,3.2902,13.2924c0.6484,2.1797,2.9418,3.5945,6.0472,3.0428
			c2.2558-0.3996,9.8607-1.9494,9.8607-1.9494s2.2231,7.4186,3.5191,11.449c1.2953,4.0289,4.56,3.6386,5.4621,3.4516l-3.689-18.6508
			c0.0462-0.0619,0.273-0.0853,0.3967,0.1913c0.7749,1.7397,3.4665,7.398,3.4665,7.398s1.8555,4.7971,6.6907,1.5797
			C52.1309,46.0512,48.2741,39.6108,42.9932,33.4847z"/>
		<path d="M35.0435,43.1221c-0.884,0.361-1.3089,0.7671-6.6295,1.739c-4.5059,0.831-8.5199-1.5563-9.5379-5.6634l-3.6535-14.7839
			c-0.2332-0.9519-1.2448-1.5185-2.1947-1.2854c-0.9483,0.2367-1.5803,1.3205-1.3464,2.2704l3.4109,14.634
			c0.6783,2.7457,3.1359,7.9233,7.9076,8.5504V54h-1c-0.9314-0.0027-1.9986,1.0707-2,2c0,0.9293,1.0713,1.9973,2,2h8
			c0.9313,0.0027,1.998-1.0707,2-2c0-0.9287-1.0707-1.9973-2-2h-3v-5c2.8333-0.4697,8.7438-2.3516,8.7438-2.3516
			c0.9304-0.262,1.6053-1.1396,1.4126-2.1107C36.9631,43.5629,35.9275,42.7611,35.0435,43.1221z"/>
		<path d="M13,22c0.979,0,1.9964-1.0231,2-2v-8c0.0029-0.9803-1.0217-1.9979-2-2c-0.9775,0-1.9964,1.0218-2,2v8
			C10.9979,20.9803,12.0217,21.9979,13,22z"/>
	</g>
	<path d="M41.0502,7C42.1253,7,43,7.8747,43,8.9498v12.1003C43,22.1253,42.1253,23,41.0502,23h-8.1003
		C31.8747,23,31,22.1253,31,21.0502V8.9498C31,7.8747,31.8747,7,32.9498,7H41.0502 M41.0502,5h-8.1003
		C30.7684,5,29,6.7684,29,8.9498v12.1003C29,23.2316,30.7684,25,32.9498,25h8.1003C43.2316,25,45,23.2316,45,21.0502V8.9498
		C45,6.7684,43.2316,5,41.0502,5L41.0502,5z"/>
</g>
</svg>
