<?xml version="1.0" encoding="utf-8"?>
<!-- Generator: Adobe Illustrator 19.1.0, SVG Export Plug-In . SVG Version: 6.00 Build 0)  -->
<svg version="1.2" baseProfile="tiny" xmlns="http://www.w3.org/2000/svg" xmlns:xlink="http://www.w3.org/1999/xlink" x="0px"
	 y="0px" width="64px" height="64px" viewBox="0 0 64 64" xml:space="preserve">
<g id="Box">
	<rect fill="none" width="64" height="64"/>
</g>
<g id="Icon">
	<g>
		<path d="M21.5037,48.3645l-1.4836,2.0842l-1.8384-1.7791c-0.0634-0.0613-0.1279-0.1297-0.1926-0.2L15.6808,55.79h7.0264
			l2.1273-11.8065c-0.3976,0.5223-0.803,1.0496-1.2081,1.5731C22.8277,46.5892,22.0732,47.5645,21.5037,48.3645z"/>
		<path d="M31.5204,45.8887c-0.1748-0.417-0.3971-0.8918-0.6586-1.4528c-0.363-0.7783-0.8202-1.769-1.3313-2.9705L28.5627,55.79
			h7.0264l-0.4569-6.7626C33.7132,48.6143,32.2637,47.6617,31.5204,45.8887z"/>
		<polygon points="10.9965,41.2308 2.799,55.79 9.8254,55.79 16.0555,41.2308 		"/>
		<polygon points="38.8213,41.2308 41.4445,55.79 48.471,55.79 43.8804,41.2308 		"/>
		<polygon points="53.1553,41.2308 48.0963,41.2308 54.3264,55.79 61.3528,55.79 		"/>
		<path d="M29.7648,13.8048c1.9424,0.3188,3.2896-0.8567,3.611-2.8153c0.3664-2.2308-0.6121-3.6199-2.5037-3.9307
			c-1.9927-0.327-3.2983,0.9112-3.6286,2.9244C26.8951,12.1049,27.8229,13.486,29.7648,13.8048z"/>
		<path d="M31.6389,24.8691c0.4427,0.8649,1.9101,2.1972,2.5788,2.902c1.6174,1.7046,3.3204,0.9613,3.6684,0.779
			c-0.6161-0.8238-2.1351-2.5709-2.5487-3.0796c-0.3237-0.3983-1.098-1.316-1.3087-1.7817
			c-0.288-0.6215-0.5225-1.4333-0.7275-2.1663c-0.0958-0.3425-1.0699-4.3659-1.2194-4.5829
			c-0.5258-1.3115-4.487-3.1398-6.8315-1.7428c-1.2899,0.7687-3.7157,2.5726-4.9452,3.9199
			c-0.7471,0.8288-1.0489,1.3277-1.3693,3.1462c-0.1951,1.1467-0.3203,2.473-0.3434,3.627
			c-0.0258,1.282,0.6528,2.4953,1.9963,2.7751c0.2894-2.1906,0.7469-5.4641,1.4487-6.8841
			c0.2857-0.5781,1.5797-1.4418,2.1204-1.7931c-0.3438,1.5943-1.5293,6.9111-1.5293,8.1286c0,1.5056,0.9727,2.2875,1.5938,2.9382
			l2.4274,2.5432c0,0-0.0901,0.1547-0.2969,0.0349c-1.0617-0.6147-2.4604-1.4219-2.4604-1.4219
			c-0.3489,1.3155-0.9185,3.4588-1.4186,4.7335c-0.3983,1.015-0.2609,0.7266-0.6469,1.3865
			c-0.7809,1.3353-1.7888,2.6848-2.6554,4.2007c-1.425,2.4927,0.2983,4.3232,0.54,4.5571c1.4005-1.9672,3.8143-4.8755,5.1757-6.9229
			c0.4556-0.6761,0.5059-0.7311,1.0185-1.7155c0.3895-0.7878,0.9197-1.9189,1.6812-3.8052c0.3341,0.3052,0.6571,0.6499,0.991,0.9858
			c0.8216,0.8267,1.3292,1.2286,1.6531,1.8393c0.0978,0.1845,0.3016,0.6039,0.507,1.1331c1.2539,3.2302,2.2564,5.1108,2.8115,6.4348
			c0.8345,1.9905,3.1528,2.1857,3.803,1.9886c-0.6396-2.5284-2.1174-7.6953-2.9411-10.2048c-0.582-1.7731-0.6606-1.8011-1.0372-2.42
			c-0.4406-0.724-0.858-1.2804-1.2679-1.8483c-0.8594-1.1678-1.7518-2.3099-2.6594-3.4457c0.36-1.8885,0.8856-4.2228,1.3778-6.3088
			C31.0347,23.4534,31.2737,24.1343,31.6389,24.8691z"/>
	</g>
</g>
</svg>
