<svg height="64" viewBox="0 0 64 64" width="64" xmlns="http://www.w3.org/2000/svg"><path d="m0 0h64v64h-64z" fill="none"/><path d="m40.2442 32.2364c.7664.4157 1.7247.1313 2.1404-.6351l2.2579-4.1631 3.7256 2.0206 2.0071-3.7006-3.7256-2.0206 2.2577-4.1627c.4157-.7665.1315-1.7249-.6348-2.1408-.7662-.4159-1.7245-.1317-2.1401.6346l-6.5233 12.0273c-.4157.7664-.1313 1.7247.6351 2.1404z"/><path d="m19.4288 17.4595c3.1474-.4807 4.6239-2.912 4.1277-6.0116-.5655-3.5309-2.7722-5.1342-5.8375-4.6659-3.2292.4932-4.6103 2.9977-4.1001 6.184.5377 3.3583 2.6628 4.9742 5.8099 4.4935z"/><path d="m42.2606 37.0772c-1.0123-2.1907-2.2136-2.9051-4.8676-2.7189-2.4996.1754-4.4291.4385-7.7826.7296-1.2109-3.9318-2.7009-8.443-3.3739-10.4639 2.6072.2109 6.0093.2108 7.127.1157 1.5652-.1518 4.4438-1.5677 5.9023-2.1549 3.5283-1.4203 3.4227-4.4259 3.3553-5.0582-1.6066.4372-5.1401 1.6842-6.1519 2.004-.7921.2503-2.6341.8696-3.4604.9097-1.1068.0638-2.4682-.0665-3.6935-.194-.5417-.0564-7.1719-.9488-8.2326-1.0265-3.1599-.2314-6.3478 2.0606-5.5231 6.147.9266 4.5905 2.5374 11.4005 3.6429 15.1183.7173 2.4125 3.2578 3.9795 6.6972 3.3692 2.4978-.4432 10.9186-1.6337 10.9186-1.6337s4.7806 7.8924 7.0338 12.0026c2.2528 4.1095 5.7231 2.9999 6.6616 2.6074-2.7049-6.9375-6.784-16.5741-8.2531-19.7534z"/></svg>