<?xml version="1.0" encoding="utf-8"?>
<!-- Generator: Adobe Illustrator 17.1.0, SVG Export Plug-In . SVG Version: 6.00 Build 0)  -->
<svg version="1.2" baseProfile="tiny" xmlns="http://www.w3.org/2000/svg" xmlns:xlink="http://www.w3.org/1999/xlink" x="0px"
	 y="0px" width="64px" height="64px" viewBox="0 0 64 64" xml:space="preserve">
<g id="Box">
	<rect fill="none" width="64" height="64"/>
</g>
<g id="Icon">
	<g>
		<path d="M26.3585,11.223c2.6024,1.5461,5.1907,0.6187,6.7499-2.0056c1.7759-2.9888,1.1542-5.5269-1.3801-7.0329
			c-2.6699-1.5861-5.2341-0.5457-6.8363,2.1517C23.2029,7.1789,23.7567,9.677,26.3585,11.223z"/>
		<path d="M19.2595,32.7992l18.4171,12.5087c0.2479-0.4227,0.6051-1.0279,1.0223-1.7234l-7.8586-5.3375
			c-0.6621-3.329-2.0174-9.94-2.0174-9.94c-0.6445-5.6449,1.5452-8.9352,0.0637-12.0614c-0.7418-1.5656-5.0864-5.5717-9.3411-5.4274
			c-1.9779,0.067-5.3135,0.8307-8.2792,1.5342c-0.8652,0.2239-1.222,0.3105-2.3383,1.0453
			c-1.9337,1.2935-4.0523,5.6509-4.8456,7.0211c-0.9921,1.7137-0.7914,3.4932,0.3606,5.1201c0,0,0.5446-0.7951,1.3234-1.9039
			l9.2152,6.2589c-0.009,0.1192-0.1934,0.1774-0.4605,0.0979c-1.5992-0.476-4.9273-1.5385-4.9273-1.5385
			c-1.9514,5.8666-8.5512,25.7243-8.8256,26.5436c-1.3868,4.1404,1.7841,6.1734,2.2682,6.4554
			c0.1392-0.311,7.6884-17.05,10.7051-23.7391c1.4288,2.7045,4.1625,7.8795,4.1625,7.8795
			c0.6095,3.6142,1.1614,7.1641,1.9857,11.9716c0.7857,4.5829,4.9649,4.4277,5.1461,4.4188
			c-0.1888-6.7368-0.264-9.6879-0.5718-15.8544C24.3369,44.3962,22.021,38.9193,19.2595,32.7992z M24.9489,28.9094
			c0.1777,0.9415,1.0713,4.5298,1.66,6.4637l-6.5848-4.4723c1.3887-2.4509,3.1028-5.4297,4.5673-7.863
			C24.5894,24.9319,24.7498,27.5967,24.9489,28.9094z M11.0053,16.8852c0.6249-0.3243,2.5093-0.0927,3.9536,0.1519
			c-1.5618,2.6667-2.9786,5.7258-3.9095,7.7683l-4.1257-2.8021C8.5475,19.7364,10.464,17.1672,11.0053,16.8852z"/>
		<path d="M49.585,39.2167c-1.7479-2.0549-3.7299-2.6307-5.5283-0.2675c-1.6337,2.1467-5.0142,7.9861-5.0142,7.9861
			s-3.9163,1.5735-5.8858,3.7239C30.325,53.7508,27.9085,62.2856,28,61.9998h35.1924
			C63.1924,61.9998,56.1832,46.9741,49.585,39.2167z"/>
	</g>
</g>
</svg>
