<svg enable-background="new 0 0 64 64" height="64" viewBox="0 0 64 64" width="64" xmlns="http://www.w3.org/2000/svg"><path d="m0 0h64v64h-64z" fill="none"/><path d="m28.8 11.9c3.1-.4 4.6-2.9 4.1-6-.5-3.6-2.7-5.2-5.7-4.8-3.2.5-4.6 3-4.1 6.2.5 3.4 2.6 5.1 5.7 4.6z"/><path d="m31.7 31.8c-1.9-.1-5.9-.5-8.6-.7v7 20c.2 5.1 4.9 5.2 4.9 5.2s.9-24.3 1-24.7c0-.3.2-.6.5-.6.4 0 .5.3.5.5s.7 19.3.7 19.3c.3 5.2 5.3 5.2 5.3 5.2v-25-6.8s-3.2.5-3.4.6-.6 0-.9 0z"/><path d="m44.9 20.9-3.7.6 1.1-3.6c.2-.5-.1-1.1-.7-1.2-.5-.2-1.1.1-1.2.7l-1.4 4.4-3.5.5c-.4.1-.7.3-.8.6l-1.5 4c-.7-.1-10.7-.9-11.2-1 .1-1.1.3-2.7.6-3.7.1-.3.4-.2.4-.2v3c.3 0 8.7.8 9.5.8l1.2-3.2c.3-.7.9-1.2 1.7-1.4l2.3-.3c-.1-.5-.3-1.2-.5-2.1-.6-2.7-2.3-4.1-4.4-4.5-2.9-.5-6.2-.2-8.8.4-4.2 1-5.4 5.9-5.8 11.5-.1 1.8.6 3.1 3.2 3.5 2.4.3 8 .8 10.4 1h.7c1-.2 9.5-1.6 9.5-1.6.3-.1.6-.3.8-.6l2.7-6.8c.1-.5-.2-.8-.6-.8z"/><path d="m41.5 6.8c-2.3 0-4.4.5-6.3 1.5l1 2.3c1.6-.8 3.4-1.3 5.3-1.3 3 0 5.7 1.1 7.8 3l1.7-1.8c-2.5-2.3-5.8-3.7-9.5-3.7z"/><path d="m37.2 12.8 1 2.3c1-.6 2.1-.9 3.3-.9 1.7 0 3.2.6 4.4 1.6l1.7-1.8c-1.6-1.4-3.8-2.3-6.1-2.3-1.6.1-3 .4-4.3 1.1z"/></svg>