<svg height="64" viewBox="0 0 64 64" width="64" xmlns="http://www.w3.org/2000/svg"><path d="m0 0h64v64h-64z" fill="none"/><path d="m21.5037 48.3645-1.4836 2.0842-1.8384-1.7791c-.0634-.0613-.1279-.1297-.1926-.2l-2.3083 7.3204h7.0264l2.1273-11.8065c-.3976.5223-.803 1.0496-1.2081 1.5731-.7987 1.0326-1.5532 2.0079-2.1227 2.8079z"/><path d="m31.5204 45.8887c-.1748-.417-.3971-.8918-.6586-1.4528-.363-.7783-.8202-1.769-1.3313-2.9705l-.9678 14.3246h7.0264l-.4569-6.7626c-1.419-.4131-2.8685-1.3657-3.6118-3.1387z"/><path d="m10.9965 41.2308-8.1975 14.5592h7.0264l6.2301-14.5592z"/><path d="m38.8213 41.2308 2.6232 14.5592h7.0265l-4.5906-14.5592z"/><path d="m53.1553 41.2308h-5.059l6.2301 14.5592h7.0264z"/><path d="m29.7648 13.8048c1.9424.3188 3.2896-.8567 3.611-2.8153.3664-2.2308-.6121-3.6199-2.5037-3.9307-1.9927-.327-3.2983.9112-3.6286 2.9244-.3484 2.1217.5794 3.5028 2.5213 3.8216z"/><path d="m31.6389 24.8691c.4427.8649 1.9101 2.1972 2.5788 2.902 1.6174 1.7046 3.3204.9613 3.6684.779-.6161-.8238-2.1351-2.5709-2.5487-3.0796-.3237-.3983-1.098-1.316-1.3087-1.7817-.288-.6215-.5225-1.4333-.7275-2.1663-.0958-.3425-1.0699-4.3659-1.2194-4.5829-.5258-1.3115-4.487-3.1398-6.8315-1.7428-1.2899.7687-3.7157 2.5726-4.9452 3.9199-.7471.8288-1.0489 1.3277-1.3693 3.1462-.1951 1.1467-.3203 2.473-.3434 3.627-.0258 1.282.6528 2.4953 1.9963 2.7751.2894-2.1906.7469-5.4641 1.4487-6.8841.2857-.5781 1.5797-1.4418 2.1204-1.7931-.3438 1.5943-1.5293 6.9111-1.5293 8.1286 0 1.5056.9727 2.2875 1.5938 2.9382l2.4274 2.5432s-.0901.1547-.2969.0349c-1.0617-.6147-2.4604-1.4219-2.4604-1.4219-.3489 1.3155-.9185 3.4588-1.4186 4.7335-.3983 1.015-.2609.7266-.6469 1.3865-.7809 1.3353-1.7888 2.6848-2.6554 4.2007-1.425 2.4927.2983 4.3232.54 4.5571 1.4005-1.9672 3.8143-4.8755 5.1757-6.9229.4556-.6761.5059-.7311 1.0185-1.7155.3895-.7878.9197-1.9189 1.6812-3.8052.3341.3052.6571.6499.991.9858.8216.8267 1.3292 1.2286 1.6531 1.8393.0978.1845.3016.6039.507 1.1331 1.2539 3.2302 2.2564 5.1108 2.8115 6.4348.8345 1.9905 3.1528 2.1857 3.803 1.9886-.6396-2.5284-2.1174-7.6953-2.9411-10.2048-.582-1.7731-.6606-1.8011-1.0372-2.42-.4406-.724-.858-1.2804-1.2679-1.8483-.8594-1.1678-1.7518-2.3099-2.6594-3.4457.36-1.8885.8856-4.2228 1.3778-6.3088.21.6544.449 1.3353.8142 2.0701z"/></svg>