<svg height="64" viewBox="0 0 64 64" width="64" xmlns="http://www.w3.org/2000/svg"><path d="m0 0h64v64h-64z" fill="none"/><path d="m10.9896 41.3386c-4.8567-1.1335-6.4062 1.679-6.8647 5.598-.0478.4074-.0835.9518-.1102 1.6634-.0325.8652.2994 1.7175.9409 2.299 2.5588 2.3193 5.5581 4.2997 8.8882 5.8547 1.369.6393 2.9442-.3621 3.0006-1.8719.0742-1.9844.1253-4.033.0701-5.3642-.1981-4.7827-.9003-7.0062-5.9249-8.179z"/><path d="m46.1932 32.7912c-.0564 3.9023 1.9564 6.0239 5.2462 6.0716 3.4658.0501 5.3685-2.3962 5.4195-5.9173.0537-3.7098-1.871-5.8312-5.2488-5.8802-3.3783-.0488-5.3672 2.3021-5.4169 5.7259z"/><path d="m58.8755 46.9365c-.4586-3.919-2.0081-6.7315-6.8647-5.598-5.0246 1.1728-5.7269 3.3964-5.925 8.179-.0552 1.3312-.004 3.3797.0701 5.364.0564 1.5099 1.6317 2.5114 3.0008 1.8721 3.3307-1.5553 6.3305-3.5362 8.8895-5.856.6405-.5806.9719-1.4316.9395-2.2956-.0268-.7124-.0625-1.2576-.1102-1.6655z"/><path d="m33 4h23v16h-17.595c-.5817.574-1.2596 1.0643-2.0291 1.4341l-1.1776.5659h21.8017c.5523 0 1-.4477 1-1v-18c0-.5523-.4477-1-1-1h-25c-.5523 0-1 .4477-1 1v10.9595c.7123-.218 1.3874-.4264 2-.6176z"/><path d="m25.7692 33.1539 1.1577-8.5801c.0936-.6943.5302-1.2949 1.1616-1.5983l7.3341-3.5242c2.085-1.0019 3.2827-3.2372 2.962-5.5282 0 0-6.8462 2.3077-16.5385 5-6.9317 1.9255-9.2513 4.5911-10.0154 5.9575 2.059.0779 3.8423.8454 5.138 2.2585 1.3008 1.4189 2.0059 3.3628 2.0381 5.6206.0134.9235-.0768 1.7872-.2604 2.583 4.1525-1.7442 7.0228-2.1888 7.0228-2.1888z"/><path d="m11.5609 38.8628c3.2898-.0477 5.3026-2.1693 5.2462-6.0716-.0496-3.4238-2.0385-5.7747-5.4169-5.726-3.3777.049-5.3025 2.1705-5.2488 5.8802.051 3.5212 1.9538 5.9675 5.4195 5.9174z"/><path d="m51.4951 8.9263-5.5019 4.9966-7.0518-6.4249-3.9414 2.6625v2.4132l3.7578-2.5376 7.2334 6.5909 6.8477-6.2203z"/><path d="m26.1725 38.8598c-.1776 3.7059 1.6754 5.8904 5.0496 6.0521 3.3748.1616 5.441-2.1217 5.605-5.5419.1866-3.8983-1.7542-6.0858-5.0406-6.2433-3.4621-.1658-5.4455 2.2156-5.614 5.7331z"/><path d="m31.5003 47c-5.4398 0-6.9218 2.2373-7.2833 7.1476-.0757 1.0281-.1248 2.4621-.1567 4.0352-.0209 1.0263.738 2.1624 1.7557 2.2964 1.8454.243 3.7371.3708 5.6655.3708 1.9418 0 3.8465-.1299 5.7041-.3764 1.017-.1349 1.7752-1.2704 1.7543-2.2962-.032-1.5713-.0811-3.003-.1567-4.0298-.3614-4.9103-1.8434-7.1476-7.2829-7.1476z"/><path d="m21.0879 16.9078c2.9818-.0432 4.8061-1.9661 4.7549-5.503-.045-3.1032-1.8476-5.234-4.9097-5.1898-3.0615.0444-4.806 1.9672-4.7573 5.3297.0462 3.1913 1.7709 5.4085 4.9121 5.3631z"/></svg>