<svg enable-background="new 0 0 64 64" viewBox="0 0 64 64" xmlns="http://www.w3.org/2000/svg"><path d="m36.28 15.3308c2.9947.5502 5.1876-.8835 5.851-3.4076.7563-2.8747-.6507-4.7488-3.5667-5.2847-3.0729-.563-5.2063.9549-5.8877 3.5502-.7196 2.7322.6089 4.5933 3.6034 5.1421z"/><path d="m45.5025 27.294c-1.071-.7297-3.2299-4.1117-3.8619-5.1336-1.4324-2.3202-2.0608-4.7901-9.057-5.3858-.6463-.0541-1.3523-.0642-2.0908-.04-.2293-1.3467-1.4017-2.5125-3.0797-2.8689l-2.8941-.6669c-2.2151-.4704-6.1025.7767-7.4462 5.011l-2.5785 8.7036c-.5619 1.8499.7776 3.7313 2.9929 4.1987l4.4109.9349c1.423.3008 2.8581-.0556 3.8531-.838-.1015.526-.1834.9692-.2422 1.2913-.659 3.6328 2.0772 4.8242 5.0462 6.3308 0 0 .0026.1481-.37.1511-.2055 0-1.6687-.1995-3.3766-.4432-.8468 1.5776-2.8061 5.1136-3.8149 6.536-2.6143-.0228-7.2622-1.0903-8.5787-1.3254-3.6937-.6556-4.9344 2.6566-4.9344 2.6566 3.2275 1.0318 11.1572 3.4646 14.5799 3.2751 1.9781-.1111 2.7063-.7068 4.1711-2.4442 1.5877-1.8826 3.7527-4.8813 5.0973-6.7782 1.5961.657 3.8771 1.6161 5.4033 2.3686.5918 2.393.9926 8.0781 1.1349 10.4981.076 1.2984 1.6406 3.4804 4.7655 4.153.2455-3.3749.428-5.5284.5466-8.8875.0622-1.7503.1177-3.5929.0145-5.5726-.0776-1.1772-.1399-2.1135-.6694-3.0656-.4954-.8921-1.7309-1.9126-8.4423-5.9986.6899-2.8205 1.6057-6.1013 2.3713-8.7551 1.0053 1.5506 3.1515 4.5907 5.0785 5.3403 1.5273.5944 5.2926.5658 7.0184.4561 3.0184-.1909 3.8156-2.353 3.9691-2.8546-5.4671-.4251-8.0046-.6105-9.0168-.847z"/></svg>