<svg enable-background="new 0 0 64 64" viewBox="0 0 64 64" xmlns="http://www.w3.org/2000/svg"><path d="m0 0h64v64h-64z" fill="none"/><path d="m24.515 21.75c2.975.547 5.057-1.176 5.576-4.113.591-3.346-.892-5.472-3.79-6.005-3.053-.562-5.072 1.257-5.605 4.277-.561 3.182.844 5.293 3.819 5.841z"/><path d="m39.646 38.876c-1.359-.135-9.789-.876-9.789-.876-1.42-5.062-2.045-7.25-2.766-10.051-.144-.558-1.126-3.861-3.927-4.574-1.926-.49-4.036.021-5.548 1.897-3.76 4.666-6.968 20.618-6.968 20.618s3.079.822 4.699-2.832c1.661-3.747 1.961-6.463 2.965-9.132.632 2.648 1.31 5.209 1.939 7.324.682 2.292 2.349 4.651 5.667 4.75h11.606s3.421 6.083 6.13 9.618c2.708 3.534 5.808 1.992 6.632 1.488 0 0-6.762-14.903-7.418-16.101-.657-1.198-1.863-1.995-3.222-2.129z"/><path d="m35 48h-26c-1.104 0-2 .895-2 2s.896 2 2 2h26c1.104 0 2-.895 2-2s-.896-2-2-2z"/><path d="m43.918 30.381c.263.137.533.228.693.12-.774-2.186-1.234-4.099-1.151-5.599.249-4.479 3.9-7.95 3.389-12.541-.184-1.658-.959-3.503-2.539-5.459-.259-.32-.58-.522-.757-.371.465 1.683.956 3.486.857 5.271-.206 3.721-3.876 7.851-3.7 12.6.09 2.411 1.617 5.152 3.208 5.979z"/><path d="m58.137 23.715c0-3.109-1.395-5.982-2.95-7.8-.312-.365-.534-.474-.714-.286.614 2.136 1.229 4.803 1.064 7.036-.408 5.527-3.8 9.094-3.8 15.2 0 3.384 1.2 5.6 2.55 7 .484.502 1.325.909 1.488.677-.988-2.127-1.429-4.347-1.29-6.271.421-5.813 3.652-10.227 3.652-15.556z"/></svg>