<svg height="64" viewBox="0 0 64 64" width="64" xmlns="http://www.w3.org/2000/svg"><path d="m0 0h64v64h-64z" fill="none"/><path d="m19.8567 34.5526h-.005c-.7855.2943-2.2601.8718-3.5797 1.5246-1.0077.4863-1.9238 1.014-2.3835 1.4984-.4978.5239-.8197 1.4567-1.0291 2.4245h21.2812c-.2094-.9678-.5312-1.9006-1.0291-2.4245-.4597-.4843-1.3759-1.012-2.3835-1.4984-1.3196-.6528-2.7942-1.2303-3.5797-1.5246-.3007-.1126-.4913-.3887-.5444-.7054-.0659-.3931-.1398-.9757-.1978-1.4665 1.99-.0808 3.6359-.2771 4.3202-.5378.1353-.0514.2036-.1755.1433-.307-.3745-.817-1.3477-3.5038-1.47-4.907-.3004-3.4441-.2881-9.6075-5.0067-8.0612 0 0-2.9965-1.9143-5.4303 1.2885-1.7122 2.2534-1.2949 5.2245-1.3635 6.8813-.0488 1.1785-1.0129 3.8994-1.4188 4.6043-.0863.15-.0569.3018.1058.3608.7346.2666 2.3884.4733 4.3323.596-.0542.4926-.1306 1.1039-.2173 1.5486-.0615.315-.2438.5927-.5444.7054z"/><path d="m30.1338 45.7148c1.4733-1.5528 4.6279-2.8134 7.5439-3.7148h-31.6777v-26h35v3.7078c.5375-.2057 1.1128-.3957 1.7383-.5662.8608-.2347 1.5996-.322 2.2617-.3268v-4.8148c0-1.1046-.8955-2-2-2h-39c-1.1045 0-2 .8954-2 2v30c0 1.1046.8955 2 2 2h25.8982c.0781-.0964.1538-.1991.2356-.2852z"/><path d="m59.3589 47.23c-1.4974-1.577-6.1273-2.9764-8.1947-3.5408-.9655-.2635-1.1152-1.2433-1.2184-2.2427 1.3135-1.4674 2.2881-3.2397 2.6184-5.5816 1.2561-.3871 1.5076-1.9556 1.5076-2.9336 0-.9775-.1724-1.5066-.5233-1.6705-.1692-.0787-.3346-.0781-.4816-.0468.1263-2.0369.2521-6.0726-.5968-7.5891-.9281-1.6578-2.1625-2.0878-4.3126-1.5459-1.4104-.7483-2.3706-1.4885-4.8416-.8146-1.7168.468-3.5959 1.2324-4.5862 2.5077-1.0681 1.3762-.8623 5.39-.6818 7.4517-.1591-.0435-.3458-.0513-.5355.037-.351.1639-.5232.693-.5232 1.6705 0 .978.2513 2.5464 1.5076 2.9336.2969 2.4714 1.2888 4.1849 2.615 5.6125-.0924.8553-.1829 1.6806-.9336 2.0862-1.6462.4451-6.8177 1.9473-8.4502 3.6664-1.9421 2.0447-2.6975 9.6761-2.6975 9.6761h33s-.7295-7.6314-2.6716-9.6761z"/></svg>