<svg height="64" viewBox="0 0 64 64" width="64" xmlns="http://www.w3.org/2000/svg"><path d="m0 0h64v64h-64z" fill="none"/><path d="m13.0555 24.577 5.7812 8.7582.9184-2.5288 3.4668 2.2405 1.3475-2.0835-3.338-2.1572 2.4794-1.6199z"/><path d="m7 40v-20h23.9993c-.0891-1.6116-.0761-2.9252.0001-4h-26.4994c-.8284 0-1.5.6716-1.5 1.5v26c0 .8284.6716 1.5 1.5 1.5h11.9634s-.8353 3.0801-.9928 3.5807c-.4161 1.3225-1.6506 1.4297-2.0654 1.4297h-1.4052c-.5523 0-1 .4477-1 1v.9896h9.4769c.3306-3.4462 1.2272-9.0541 3.0422-12z"/><path d="m58.7573 40.4941c-1.7839-1.8752-7.0994-3.5394-9.5623-4.2104-.659-.1795-1.1024-.7388-1.2507-1.4042-.1311-.5882-.2009-1.2626-.2009-1.2626 1.5649-1.7448 2.7259-3.8523 3.1194-6.637 1.4965-.4604 1.7958-2.3255 1.7958-3.4883 0-1.1624-.2052-1.7914-.6232-1.9864-.2016-.0936-.3986-.0928-.5737-.0556.1505-2.4221.3002-7.2209-.7109-9.0242-1.1057-1.9714-2.5761-2.4826-5.1376-1.8383-1.6802-.8898-2.8242-1.7699-5.7678-.9687-2.0453.5565-4.2838 1.4655-5.4635 2.9819-1.2726 1.6365-1.0273 6.4092-.8123 8.8608-.1895-.0518-.412-.061-.6379.044-.4182.1949-.6234.824-.6234 1.9864 0 1.1628.2994 3.028 1.7959 3.4883.3537 2.9387 1.5354 4.9762 3.1152 6.6738-.0103.095-.0761.6848-.1967 1.2258-.1208.5421-.4062 1.095-.9154 1.2549-2.647.8312-8.1159 2.4868-9.8975 4.3597-2.3135 2.4314-3.1826 11.506-3.1826 11.506h38.9128s-.869-9.0746-3.1827-11.5059z"/></svg>