<svg height="64" viewBox="0 0 64 64" width="64" xmlns="http://www.w3.org/2000/svg"><path d="m0 0h64v64h-64z" fill="none"/><path d="m57.542 16.0002c-1.5259 0-2.542.6051-2.542 1.9998v14h-49c-1.1046 0-2 .8954-2 2v14h5v-8h46v8h5v-30c0-1.371-1-1.9998-2.458-1.9998z"/><path d="m46.3218 28.7108c1.0983-.9001 2.8746-2.0042 5.2516-2.3866.683-1.4433.3596-2.8303-.869-3.9415-1.6921-1.5303-3.6957-1.1471-5.2504.5721-1.6381 1.8112-1.6077 3.6964.0414 5.1878.2667.2411.5447.4188.8264.5682z"/><path d="m41.2857 23.5c-.9286-1.5714-2.2857-2.5-4.2857-2.5-9.408 0-24.7617 2.912-27 3.8571-3.2143 1.3571-3.8571 3.6429-3.8571 5.1429h36.8641s-.8424-5.0126-1.7213-6.5z"/></svg>