<?xml version="1.0" encoding="utf-8"?>
<!-- Generator: Adobe Illustrator 19.1.0, SVG Export Plug-In . SVG Version: 6.00 Build 0)  -->
<svg version="1.2" baseProfile="tiny" xmlns="http://www.w3.org/2000/svg" xmlns:xlink="http://www.w3.org/1999/xlink" x="0px"
	 y="0px" width="64px" height="64px" viewBox="0 0 64 64" xml:space="preserve">
<g id="Box">
	<rect fill="none" width="64" height="64"/>
</g>
<g id="Icon">
	<g>
		<path d="M23.8066,31.0576c-0.0023-0.2239,0.0026-0.5459,0.0147-0.9335L6,32l18.4799,1.9453
			C24.0637,33.0914,23.8171,32.1179,23.8066,31.0576z"/>
		<path d="M28.4318,47.0598L10,49l16.4369,1.7302C27.1777,49.3755,28.4318,47.0598,28.4318,47.0598z"/>
		<path d="M32.0137,13.0617L13.6,15l14.9075,1.5692C29.6755,15.2616,30.9374,14.0049,32.0137,13.0617z"/>
		<path d="M40.4572,11.7305c3.012,0.3014,4.9658-1.6331,5.2698-4.6704c0.3463-3.4593-1.2898-5.4968-4.2232-5.7906
			c-3.0901-0.3091-4.9742,1.7177-5.2863,4.8395C35.8881,9.399,37.4457,11.429,40.4572,11.7305z"/>
		<path d="M47.7125,42.8541c0.8237-0.7919,1.1625-1.3903,1.1625-1.3903c-2.5428-5.379-5.6424-8.3091-6.8748-9.3336
			c0.5885-2.6084,1.0905-5.8117,1.4147-8.6062c0.6225,1.6039,1.3713,3.2769,2.2874,4.6543
			c0.6971,0.9705,3.9379,4.0225,4.8107,4.7867c2.0298,1.777,3.9989,0.6046,4.4738,0.2854c-1.9241-2.629-6.0281-7.2553-6.0281-7.2553
			c-2.9698-4.8436-2.3759-8.751-5.0398-10.9582c-1.334-1.1053-6.5877-3.1106-9.2229-1.3076
			c-1.6334,1.1175-5.4116,4.9209-7.0559,7.4872c-0.4668,0.7621-0.6633,1.0723-0.9558,2.3763
			c-0.4923,2.2738-0.6889,6.3045-0.6777,7.4431c0.0171,1.7327,0.9788,3.5095,2.9376,3.8793
			c0.1292-1.0002,0.2255-3.365,0.8383-6.7925c0.2093-1.1563,0.4657-2.4079,0.8188-3.4645c0.3801-1.1317,1.5219-2.3127,2.8062-3.4637
			c-0.0845,2.9237-0.115,6.128-1.0324,8.6645c-0.6839,1.8907-1.5,3.3285-1.0533,5.9493c0.1324,0.7774,0.1693,4.1443-3.3217,8.6083
			c0.1447,0.082,3.2499,1.681,7.2449,2.1252c0.0784,0.2396-0.1497,0.5178-0.5261,0.5901c-0.3205,0.0616-1.9358,0.2087-3.7546-0.1261
			c-0.829,1.5131-2.3403,4.3594-5.2834,9.6469c-1.7793,3.1965,0.5635,5.8018,1.0869,6.3354
			c3.4348-4.9783,5.5938-8.3036,7.6198-11.3842c1.3889-2.1028,1.726-2.8053,2.746-4.9125c0.0065-0.0138,0.0123-0.0269,0.0187-0.0406
			c0.809,0.0045,1.6364-0.0422,2.4729-0.172c0.9739-0.1511,1.8464-0.3591,2.6418-0.5997c0.7029,0.6921,0.8212,1.0579,1.5265,2.6821
			c1.3521,3.1133,2.9915,7.4462,4.174,10.6356c1.0585,2.8549,3.2157,4.0162,5.7247,3.7623l0.028-0.0085
			c-1.2407-4.8306-2.999-11.6493-4.4922-16.4032C48.663,44.8249,48.361,43.9352,47.7125,42.8541z"/>
	</g>
</g>
</svg>
