<svg height="64" viewBox="0 0 64 64" width="64" xmlns="http://www.w3.org/2000/svg"><path d="m0 0h64v64h-64z" fill="none"/><path d="m31.9998 13c3.1371 0 4.952-2.2094 4.952-5.3887 0-3.6237-1.8971-5.5663-4.952-5.5663-3.2183 0-4.952 2.2967-4.952 5.5663 0 3.445 1.8154 5.3887 4.952 5.3887z"/><path d="m9.0397 48.9998c-3.2491-.0232-5.0159 2.2711-5.0394 5.5531-.0251 3.4593 1.795 5.4234 4.9612 5.4469 3.167.0223 5.0159-2.1821 5.0384-5.3752.026-3.6381-1.8758-5.6021-4.9602-5.6248z"/><path d="m20.9998 42.6246c.0261-3.6381-1.8758-5.6022-4.9602-5.6248-3.2491-.0232-5.0159 2.2711-5.0394 5.5531-.0251 3.4593 1.795 5.4234 4.9612 5.4469 3.167.0224 5.0159-2.1821 5.0384-5.3752z"/><path d="m52.9999 42.6246c.0261-3.6381-1.8758-5.6022-4.9602-5.6248-3.2491-.0232-5.0159 2.2711-5.0394 5.5531-.0251 3.4593 1.795 5.4234 4.9612 5.4469 3.167.0224 5.0159-2.1821 5.0384-5.3752z"/><path d="m54.0397 48.9998c-3.2491-.0232-5.0159 2.2711-5.0394 5.5531-.0251 3.4593 1.795 5.4234 4.9612 5.4469 3.167.0223 5.0159-2.1821 5.0384-5.3752.026-3.6381-1.8758-5.6021-4.9602-5.6248z"/><path d="m39.0398 48.9998c-3.2491-.0232-5.0159 2.2711-5.0394 5.5531-.0251 3.4593 1.795 5.4234 4.9612 5.4469 3.167.0223 5.0159-2.1821 5.0384-5.3752.0261-3.6381-1.8758-5.6021-4.9602-5.6248z"/><path d="m24.0398 48.9998c-3.2491-.0232-5.0159 2.2711-5.0394 5.5531-.0251 3.4593 1.795 5.4234 4.9612 5.4469 3.167.0223 5.0159-2.1821 5.0384-5.3752.0261-3.6381-1.8758-5.6021-4.9602-5.6248z"/><path d="m25.5995 22.3048c.1254-.4126.4005-.3339.4005-.3339v3.0291h12v-3.0291s.2958-.1058.4396.3339c.1865.57.4369 1.5119.5604 2.6952h4c-.4411-5.1888-1.7505-9.4503-5.598-10.3973-3.2641-.8035-7.6355-.8035-10.8081 0-3.8384.9721-5.1499 5.2221-5.5939 10.3973h4c.1304-1.1453.4097-2.0706.5995-2.6952z"/><path d="m25 46h14l1.7938-12.4534-6.5287-1.1826c-.3172-.1018-.2708-.3079-.2499-.3641 1.8828.0001 10.3767.0001 11.9848.0001v-4c0-.5523-.4477-1-1-1h-26c-.5523 0-1 .4477-1 1v4h5z"/></svg>