<?xml version="1.0" encoding="utf-8"?>
<!-- Generator: Adobe Illustrator 19.2.0, SVG Export Plug-In . SVG Version: 6.00 Build 0)  -->
<svg version="1.0" xmlns="http://www.w3.org/2000/svg" xmlns:xlink="http://www.w3.org/1999/xlink" x="0px" y="0px"
	 viewBox="0 0 64 64" enable-background="new 0 0 64 64" xml:space="preserve">
<g id="achtergrond">
</g>
<g id="paneel_1">
	<g>
		<path d="M44.3254,36.8167c0,0-0.752-5.6208-2.1797-7.1135c-1.2739-1.3306-4.7617-2.1484-5.7041-2.9028
			c-0.0505-0.4393-0.1233-0.9776-0.1997-1.4962c1.4606,0.1541,2.7015,0.3315,3.5835,0.6409
			c0.1941,0.0682,0.3994-0.0616,0.4531-0.2786c0.6511-2.6332,0.936-4.408,0.936-6.3364c0-3.8743-1.4558-8.0128-3.6892-9.3514
			c-1.424-0.8533-3.0249-0.5425-3.0249-0.5425s-1.5387-1.4821-4.23-0.975c-4.3918,0.8275-7.6826,5.0433-7.6826,10.869
			c0,1.9285,0.29,3.7032,0.9412,6.3364c0.0535,0.2169,0.2588,0.3467,0.4528,0.2786c0.9435-0.331,2.2192-0.5206,3.8121-0.6738
			c-0.0582,0.4868-0.1219,1.0322-0.1851,1.5857c-0.866,0.6187-4.543,1.3755-5.9503,2.8461
			c-1.4275,1.4926-2.1798,7.1135-2.1798,7.1135h12.4235H44.3254z M27.5837,28.6068c1.4917-0.6177,1.4043-1.177,1.4299-1.4064
			c0.0344-0.2999,0.2993-2.7556,0.2993-2.7556c-1.3032-1.284-1.8629-2.8839-2.1-4.2861c-0.1515-0.8952-0.1313-1.7288-0.0848-2.2829
			c2.4857-0.9803,6.007-2.975,7.3689-4.6886c0,0,0.1658,0.0074,0.061,0.2608c-0.179,0.4296-0.4397,0.9379-0.8018,1.5409
			c0.6421,1.3638,1.7977,2.3618,2.938,3.0698c0.0344,0.5354,0.0344,1.2764-0.103,2.1c-0.274,1.6473-1.4601,3.9474-2.7642,4.7543
			c-0.8911,0.5508-2.5229,0.6384-3.4742,0.2278c0.2188,0.4348,0.6586,0.9509,1.6332,1.1936
			c1.3123,0.327,2.5114-0.2094,2.8208-0.3887c0.0576,0.4114,0.1113,0.8234,0.1489,1.1793c0.0239,0.2239,0.082,0.7729,1.6189,1.4907
			c-1.2007,2.0844-3.8303,3.2034-4.6462,3.5103C31.1592,31.796,28.7483,30.6348,27.5837,28.6068z"/>
		<path d="M49.3953,38H13.6047C12.7185,38,12,38.7184,12,39.6047v4.7905C12,45.2815,12.7185,46,13.6047,46h8.6145
			c-0.1079,0.3979-1.0781,0.7539-4.2192,1.2176L20,56h23l2.053-8.7824c-3.1411-0.4637-4.1113-0.8196-4.2191-1.2176h8.5614
			C50.2815,46,51,45.2815,51,44.3952v-4.7905C51,38.7184,50.2815,38,49.3953,38z"/>
	</g>
</g>
</svg>
