<?xml version="1.0" encoding="utf-8"?>
<!-- Generator: Adobe Illustrator 17.1.0, SVG Export Plug-In . SVG Version: 6.00 Build 0)  -->
<svg version="1.2" baseProfile="tiny" xmlns="http://www.w3.org/2000/svg" xmlns:xlink="http://www.w3.org/1999/xlink" x="0px"
	 y="0px" width="64px" height="64px" viewBox="0 0 64 64" xml:space="preserve">
<g id="_x36_4px_Boxes">
	<rect fill="none" width="64" height="64"/>
</g>
<g id="Production">
	<rect fill="none" width="64" height="64"/>
	<g>
		<path d="M35.412,45.774c-0.0399-0.1339-0.0623-0.2604-0.0956-0.3913c-2.5356,2.6121-6.0104,4.0837-7.2662,4.5558
			c-1.4863-0.6377-6.1431-2.8809-8.3931-6.7989c2.8814-1.1933,2.713-2.2734,2.7632-2.7167
			c0.0657-0.5789,0.5774-5.3235,0.5774-5.3235c-2.518-2.48-3.5982-5.5714-4.0564-8.2801c-0.293-1.7298-0.2532-3.3401-0.1641-4.4102
			c4.8017-1.8932,11.6045-5.7473,14.2355-9.0572c0,0,0.3203,0.0146,0.1176,0.5033c-0.3447,0.8305-0.8485,1.8115-1.5488,2.9773
			c1.2409,2.6346,3.4734,4.5625,5.676,5.9304c0.0662,1.034,0.0662,2.4655-0.1989,4.0564c-0.5298,3.1827-2.8208,7.626-5.3403,9.1846
			c-1.7212,1.0648-4.8734,1.2337-6.7116,0.4403c0.4235,0.8396,1.273,1.8373,3.1547,2.3063c2.5354,0.6314,4.852-0.4047,5.4494-0.7518
			c0.1117,0.7949,0.2157,1.591,0.2886,2.2786c0.0333,0.314,0.1074,0.9597,1.2769,1.8197c0.1974-1.012,0.7349-1.8866,1.5699-2.6367
			c-0.0955-0.8127-0.2258-1.7694-0.3622-2.7004c1.3669,0.0526,3.503,0.223,5.1352,0.4594c0.0027-0.0007,0.0049-0.0015,0.0076-0.0021
			c-0.1464-0.4979-0.2239-1.0223-0.2239-1.5606c0-2.6307,1.8565-4.8333,4.3275-5.3737c0.24-1.746,0.3595-3.3779,0.3595-5.0641
			c0-7.4844-2.8127-15.4792-7.1271-18.0651C36.1123,5.5052,33.02,6.1055,33.02,6.1055s-2.9731-2.8631-8.1729-1.8836
			c-8.4834,1.5986-14.8408,9.7429-14.8408,20.9969c0,3.7255,0.56,7.1546,1.8177,12.2415c0.1035,0.419,0.5,0.6699,0.875,0.5381
			c1.8217-0.6398,4.2865-1.0065,7.3642-1.3018c-0.1118,0.9402-0.2354,1.9943-0.3572,3.0632
			c-1.6736,1.1948-8.7768,2.6575-11.4948,5.498C5.4531,48.1416,4,59,4,59h24h6.0457c-0.434-0.992-0.6934-2.1441-0.7085-3.4955
			c-0.036-3.2104,1.0153-6.7984,2.1666-9.4678C35.4694,45.951,35.4387,45.8633,35.412,45.774z"/>
		<path d="M59.2452,46.1647c0.588-1.3736,0.8396-2.3969,0.6277-3.491c-0.2368-1.2231-2.2515-2.2229-5.2266-2.7806
			c-0.3246-0.0608-0.6687-0.1122-1.0149-0.1623l0.0011-0.0086c-0.4449-0.0598-0.8708-0.3214-1.1403-0.6997
			c-0.2026-0.2842-0.3167-0.6426-0.356-1.0518c0.911-0.3744,1.5535-1.2682,1.5535-2.3141c0-1.3824-1.1207-2.5032-2.5032-2.5032
			c-0.5591,0-1.0701,0.1898-1.4868,0.4996c0.2519,1.5482-0.1606,2.0421-0.1606,2.0421c-0.1285,0.1639-0.2122,0.1288-0.2443,0.1039
			c0.0027-0.0482,0.0143-0.0936,0.0143-0.1425c0-1.3824-1.1207-2.5032-2.5031-2.5032c-1.3824,0-2.5032,1.1208-2.5032,2.5032
			c0,1.0458,0.6424,1.9398,1.5533,2.3141c-0.0391,0.4092-0.153,0.7676-0.3553,1.0518c-0.2695,0.3783-0.6954,0.64-1.1403,0.6997
			l0.0011,0.0085c-0.3464,0.0502-0.6907,0.1016-1.0155,0.1625c-2.975,0.5576-4.9896,1.5574-5.2265,2.7805
			c-0.1425,0.7364-0.071,1.4431,0.1675,2.2437c0.004-0.002,0.0078-0.0036,0.0118-0.0056c0.111,0.3906,0.2547,0.8003,0.4484,1.2529
			c-1.3015,2.634-2.4437,6.3362-2.4104,9.3062c0.0412,3.6748,2.5886,6.4689,12.6591,6.4689s12.6181-2.7941,12.6594-6.4689
			C61.686,52.7603,60.74,49.1897,59.2452,46.1647z M48.3754,37.5922c0.2537-0.206,0.4637-0.4582,0.621-0.7472
			c0.1572,0.289,0.3671,0.5411,0.6207,0.7471c-0.01,0.7266,0.1094,1.3376,0.2925,1.8384c-0.3032-0.0076-0.6023-0.0192-0.9131-0.0192
			c-0.3109,0-0.61,0.0117-0.9132,0.0192C48.2662,38.9297,48.3854,38.3187,48.3754,37.5922z M52.192,56.9753
			c-1.0303,0.2435-1.5171,0.2995-2.5106,0.2995c-2.6029,0-4.4393-1.2737-4.9816-4.0461h-1.2742v-1.4234h1.1235v-0.3931
			c0-0.3372,0-0.6931,0.0377-1.0114h-1.1611v-1.4427h1.3862c0.6743-2.8096,2.585-4.2329,5.1889-4.2329
			c0.7298,0,1.3109,0.056,2.0971,0.2245v1.9667c-0.9172-0.1686-1.4041-0.2433-2.1537-0.2433c-1.4238,0-2.3599,0.7679-2.7723,2.285
			h3.4089v1.4427h-3.6519c-0.0188,0.2618-0.0188,0.524-0.0188,0.7863c0,0.2251,0,0.4308,0.0188,0.6182h3.6519v1.4234h-3.4279
			c0.4314,1.5364,1.4428,2.173,2.6793,2.173c0.8795,0,1.3862-0.0749,2.3599-0.2811V56.9753z"/>
	</g>
</g>
</svg>
