<svg enable-background="new 0 0 64 64" viewBox="0 0 64 64" xmlns="http://www.w3.org/2000/svg"><path d="m44.3254 36.8167s-.752-5.6208-2.1797-7.1135c-1.2739-1.3306-4.7617-2.1484-5.7041-2.9028-.0505-.4393-.1233-.9776-.1997-1.4962 1.4606.1541 2.7015.3315 3.5835.6409.1941.0682.3994-.0616.4531-.2786.6511-2.6332.936-4.408.936-6.3364 0-3.8743-1.4558-8.0128-3.6892-9.3514-1.424-.8533-3.0249-.5425-3.0249-.5425s-1.5387-1.4821-4.23-.975c-4.3918.8275-7.6826 5.0433-7.6826 10.869 0 1.9285.29 3.7032.9412 6.3364.0535.2169.2588.3467.4528.2786.9435-.331 2.2192-.5206 3.8121-.6738-.0582.4868-.1219 1.0322-.1851 1.5857-.866.6187-4.543 1.3755-5.9503 2.8461-1.4275 1.4926-2.1798 7.1135-2.1798 7.1135h12.4235zm-16.7417-8.2099c1.4917-.6177 1.4043-1.177 1.4299-1.4064.0344-.2999.2993-2.7556.2993-2.7556-1.3032-1.284-1.8629-2.8839-2.1-4.2861-.1515-.8952-.1313-1.7288-.0848-2.2829 2.4857-.9803 6.007-2.975 7.3689-4.6886 0 0 .1658.0074.061.2608-.179.4296-.4397.9379-.8018 1.5409.6421 1.3638 1.7977 2.3618 2.938 3.0698.0344.5354.0344 1.2764-.103 2.1-.274 1.6473-1.4601 3.9474-2.7642 4.7543-.8911.5508-2.5229.6384-3.4742.2278.2188.4348.6586.9509 1.6332 1.1936 1.3123.327 2.5114-.2094 2.8208-.3887.0576.4114.1113.8234.1489 1.1793.0239.2239.082.7729 1.6189 1.4907-1.2007 2.0844-3.8303 3.2034-4.6462 3.5103-.7692-.33-3.1801-1.4912-4.3447-3.5192z"/><path d="m49.3953 38h-35.7906c-.8862 0-1.6047.7184-1.6047 1.6047v4.7905c0 .8863.7185 1.6048 1.6047 1.6048h8.6145c-.1079.3979-1.0781.7539-4.2192 1.2176l2 8.7824h23l2.053-8.7824c-3.1411-.4637-4.1113-.8196-4.2191-1.2176h8.5614c.8862 0 1.6047-.7185 1.6047-1.6048v-4.7905c0-.8863-.7185-1.6047-1.6047-1.6047z"/></svg>