<svg height="64" viewBox="0 0 64 64" width="64" xmlns="http://www.w3.org/2000/svg"><path d="m0 0h64v64h-64z" fill="none"/><path d="m0 0h64v64h-64z" fill="none"/><path d="m35.412 45.774c-.0399-.1339-.0623-.2604-.0956-.3913-2.5356 2.6121-6.0104 4.0837-7.2662 4.5558-1.4863-.6377-6.1431-2.8809-8.3931-6.7989 2.8814-1.1933 2.713-2.2734 2.7632-2.7167.0657-.5789.5774-5.3235.5774-5.3235-2.518-2.48-3.5982-5.5714-4.0564-8.2801-.293-1.7298-.2532-3.3401-.1641-4.4102 4.8017-1.8932 11.6045-5.7473 14.2355-9.0572 0 0 .3203.0146.1176.5033-.3447.8305-.8485 1.8115-1.5488 2.9773 1.2409 2.6346 3.4734 4.5625 5.676 5.9304.0662 1.034.0662 2.4655-.1989 4.0564-.5298 3.1827-2.8208 7.626-5.3403 9.1846-1.7212 1.0648-4.8734 1.2337-6.7116.4403.4235.8396 1.273 1.8373 3.1547 2.3063 2.5354.6314 4.852-.4047 5.4494-.7518.1117.7949.2157 1.591.2886 2.2786.0333.314.1074.9597 1.2769 1.8197.1974-1.012.7349-1.8866 1.5699-2.6367-.0955-.8127-.2258-1.7694-.3622-2.7004 1.3669.0526 3.503.223 5.1352.4594.0027-.0007.0049-.0015.0076-.0021-.1464-.4979-.2239-1.0223-.2239-1.5606 0-2.6307 1.8565-4.8333 4.3275-5.3737.24-1.746.3595-3.3779.3595-5.0641 0-7.4844-2.8127-15.4792-7.1271-18.0651-2.7505-1.6485-5.8428-1.0482-5.8428-1.0482s-2.9731-2.8631-8.1729-1.8836c-8.4834 1.5986-14.8408 9.7429-14.8408 20.9969 0 3.7255.56 7.1546 1.8177 12.2415.1035.419.5.6699.875.5381 1.8217-.6398 4.2865-1.0065 7.3642-1.3018-.1118.9402-.2354 1.9943-.3572 3.0632-1.6736 1.1948-8.7768 2.6575-11.4948 5.498-2.7581 2.8838-4.2112 13.7422-4.2112 13.7422h24 6.0457c-.434-.992-.6934-2.1441-.7085-3.4955-.036-3.2104 1.0153-6.7984 2.1666-9.4678-.0344-.0857-.0651-.1734-.0918-.2627z"/><path d="m59.2452 46.1647c.588-1.3736.8396-2.3969.6277-3.491-.2368-1.2231-2.2515-2.2229-5.2266-2.7806-.3246-.0608-.6687-.1122-1.0149-.1623l.0011-.0086c-.4449-.0598-.8708-.3214-1.1403-.6997-.2026-.2842-.3167-.6426-.356-1.0518.911-.3744 1.5535-1.2682 1.5535-2.3141 0-1.3824-1.1207-2.5032-2.5032-2.5032-.5591 0-1.0701.1898-1.4868.4996.2519 1.5482-.1606 2.0421-.1606 2.0421-.1285.1639-.2122.1288-.2443.1039.0027-.0482.0143-.0936.0143-.1425 0-1.3824-1.1207-2.5032-2.5031-2.5032s-2.5032 1.1208-2.5032 2.5032c0 1.0458.6424 1.9398 1.5533 2.3141-.0391.4092-.153.7676-.3553 1.0518-.2695.3783-.6954.64-1.1403.6997l.0011.0085c-.3464.0502-.6907.1016-1.0155.1625-2.975.5576-4.9896 1.5574-5.2265 2.7805-.1425.7364-.071 1.4431.1675 2.2437.004-.002.0078-.0036.0118-.0056.111.3906.2547.8003.4484 1.2529-1.3015 2.634-2.4437 6.3362-2.4104 9.3062.0412 3.6748 2.5886 6.4689 12.6591 6.4689s12.6181-2.7941 12.6594-6.4689c.0306-2.7105-.9154-6.2811-2.4102-9.3061zm-10.8698-8.5725c.2537-.206.4637-.4582.621-.7472.1572.289.3671.5411.6207.7471-.01.7266.1094 1.3376.2925 1.8384-.3032-.0076-.6023-.0192-.9131-.0192-.3109 0-.61.0117-.9132.0192.1829-.5008.3021-1.1118.2921-1.8383zm3.8166 19.3831c-1.0303.2435-1.5171.2995-2.5106.2995-2.6029 0-4.4393-1.2737-4.9816-4.0461h-1.2742v-1.4234h1.1235v-.3931c0-.3372 0-.6931.0377-1.0114h-1.1611v-1.4427h1.3862c.6743-2.8096 2.585-4.2329 5.1889-4.2329.7298 0 1.3109.056 2.0971.2245v1.9667c-.9172-.1686-1.4041-.2433-2.1537-.2433-1.4238 0-2.3599.7679-2.7723 2.285h3.4089v1.4427h-3.6519c-.0188.2618-.0188.524-.0188.7863 0 .2251 0 .4308.0188.6182h3.6519v1.4234h-3.4279c.4314 1.5364 1.4428 2.173 2.6793 2.173.8795 0 1.3862-.0749 2.3599-.2811v1.8547z"/></svg>