<svg height="64" viewBox="0 0 64 64" width="64" xmlns="http://www.w3.org/2000/svg"><path d="m0 0h64v64h-64z" fill="none"/><path d="m32.4572 11.7305c3.012.3014 4.9658-1.6331 5.2698-4.6704.3463-3.4593-1.2898-5.4968-4.2232-5.7906-3.0901-.3091-4.9742 1.7177-5.2863 4.8395-.3294 3.29 1.2282 5.32 4.2397 5.6215z"/><path d="m39.7125 42.8541c.8237-.7919 1.1625-1.3903 1.1625-1.3903-2.5428-5.379-5.6424-8.3091-6.8748-9.3336.5885-2.6084 1.0905-5.8117 1.4147-8.6062.6225 1.6039 1.3713 3.2769 2.2874 4.6543.6971.9705 3.9379 4.0225 4.8107 4.7867 2.0298 1.777 3.9989.6046 4.4738.2854-1.9241-2.629-6.0281-7.2553-6.0281-7.2553-2.9698-4.8436-2.3759-8.751-5.0398-10.9582-1.334-1.1053-6.5877-3.1106-9.2229-1.3076-1.6334 1.1175-5.4116 4.9209-7.0559 7.4872-.4668.7621-.6633 1.0723-.9558 2.3763-.4923 2.2738-.6889 6.3045-.6777 7.4431.0171 1.7327.9788 3.5095 2.9376 3.8793.1292-1.0002.2255-3.365.8383-6.7925.2093-1.1563.4657-2.4079.8188-3.4645.3801-1.1317 1.5219-2.3127 2.8062-3.4637-.0845 2.9237-.115 6.128-1.0324 8.6645-.6839 1.8907-1.5 3.3285-1.0533 5.9493.1324.7774.1693 4.1443-3.3217 8.6083.1447.082 3.2499 1.681 7.2449 2.1252.0784.2396-.1497.5178-.5261.5901-.3205.0616-1.9358.2087-3.7546-.1261-.829 1.5131-2.3403 4.3594-5.2834 9.6469-1.7793 3.1965.5635 5.8018 1.0869 6.3354 3.4348-4.9783 5.5938-8.3036 7.6198-11.3842 1.3889-2.1028 1.726-2.8053 2.746-4.9125.0065-.0138.0123-.0269.0187-.0406.809.0045 1.6364-.0422 2.4729-.172.9739-.1511 1.8464-.3591 2.6418-.5997.7029.6921.8212 1.0579 1.5265 2.6821 1.3521 3.1133 2.9915 7.4462 4.174 10.6356 1.0585 2.8549 3.2157 4.0162 5.7247 3.7623l.028-.0085c-1.2407-4.8306-2.999-11.6493-4.4922-16.4032-.565-1.7225-.867-2.6122-1.5155-3.6933z"/></svg>