<svg height="64" viewBox="0 0 64 64" width="64" xmlns="http://www.w3.org/2000/svg"><path d="m0 0h64v64h-64z" fill="none"/><path d="m17.8441 15.9942c2.9736.1263 4.767-1.8148 4.872-4.7142.1193-3.303-1.6149-5.1512-4.511-5.2741-3.0509-.1296-4.77 1.8948-4.8778 4.8755-.1136 3.1415 1.5436 4.9866 4.5168 5.1128z"/><path d="m26 44h-10c-1.1046 0-2 .8954-2 2s.8954 2 2 2h10c1.1046 0 2-.8954 2-2s-.8954-2-2-2z"/><path d="m56.6964 19.0283-.8938-.4483c-.4937-.2477-1.0946-.0483-1.3422.4454l-4.0007 7.9746h-10.4597c-.5522 0-1 .4477-1 1v1c0 .5523.4478 1 1 1h-3.8289c.051-.0049.0779-.0078.0779-.0078s-.1776-2.98-3.249-3.0515c-3.0714-.0714-4.4087-.7081-6.3546-1.9771-2.8891-1.8842-4.5456-5.8296-7.6415-6.7453-2.7692-.8191-6.0019.9006-5.9839 4.7767.0208 4.4496.3452 10.9468.6931 14.6158.2257 2.3807 2.3062 4.3082 5.6247 4.3708 2.4099.0456 10.4075-.0084 10.4075-.0084s2.0118 7.9762 3.0327 12.3113c1.0208 4.3344 4.4049 4.207 5.3638 4.0856 0 0-1.6576-16.2613-2.1633-18.6259-.4947-2.3126-.5785-4.1943-3.5785-4.4943-2.1576-.2158-5.4-.31-8.2-.21-.2785-2.6616-.6376-5.7014-.9221-8.0379.6155.5734 1.4194 1.1938 2.4836 1.7601 1.4648.7795 3.4153 1.1307 5.2385 1.2748v2.9631h24v-3h-2.689l4.8308-9.6294c.2477-.4936.0483-1.0946-.4454-1.3423z"/></svg>