<?xml version="1.0" encoding="utf-8"?>
<!-- Generator: Adobe Illustrator 25.0.0, SVG Export Plug-In . SVG Version: 6.00 Build 0)  -->
<svg version="1.1" xmlns="http://www.w3.org/2000/svg" xmlns:xlink="http://www.w3.org/1999/xlink" x="0px" y="0px"
	 viewBox="0 0 64 64" style="enable-background:new 0 0 64 64;" xml:space="preserve">
<style type="text/css">
	.st0{fill:none;}
	.st1{fill:#FFFFFF;}
</style>
<g id="Box">
	<rect class="st0" width="64" height="64"/>
</g>
<g id="Icon">
	<g>
		<path d="M32.5,52.5c0-1.678-1.035-3.109-2.5-3.703v-3.372c1.695-0.158,3.311-0.583,4.81-1.226l8.848-12.4
			c-0.365-0.434-0.767-0.917-1.12-1.354c-0.863-1.067-1.033-2.496-0.445-3.729c0.375-0.786,1.004-1.393,1.743-1.732
			c-0.618-2.107-1.647-4.038-3.012-5.685l2.466-2.466c0.999,0.264,2.104,0.017,2.888-0.766c1.171-1.172,1.171-3.071,0-4.243
			c-1.172-1.172-3.071-1.172-4.243,0c-0.783,0.783-1.03,1.889-0.766,2.888l-2.466,2.466c-2.408-1.996-5.411-3.294-8.703-3.601
			v-3.372c1.465-0.594,2.5-2.026,2.5-3.703c0-2.209-1.791-4-4-4c-2.209,0-4,1.791-4,4c0,1.678,1.035,3.109,2.5,3.703v3.372
			c-3.292,0.306-6.295,1.605-8.703,3.601l-2.466-2.466c0.264-0.999,0.017-2.105-0.766-2.888c-1.171-1.172-3.071-1.172-4.243,0
			c-1.171,1.172-1.171,3.071,0,4.243c0.783,0.783,1.889,1.03,2.888,0.766l2.466,2.466c-1.996,2.408-3.294,5.411-3.601,8.702H9.203
			c-0.594-1.465-2.026-2.5-3.703-2.5c-2.209,0-4,1.791-4,4c0,2.209,1.791,4,4,4c1.678,0,3.109-1.035,3.703-2.5h3.372
			c0.306,3.292,1.605,6.295,3.601,8.702l-2.466,2.466c-0.999-0.264-2.104-0.017-2.888,0.766c-1.171,1.172-1.171,3.071,0,4.243
			c1.172,1.172,3.071,1.172,4.243,0c0.783-0.783,1.03-1.889,0.766-2.888l2.466-2.466c2.408,1.996,5.411,3.294,8.703,3.601v3.372
			c-1.465,0.594-2.5,2.026-2.5,3.703c0,2.209,1.791,4,4,4C30.709,56.5,32.5,54.709,32.5,52.5z"/>
		<path d="M62.287,26.751c-1.168-0.834-6.402-4.568-7.571-5.402c-1.239-0.884-2.563,0.769-1.668,1.892
			c1.042,1.308,1.584,1.906,1.584,1.906l-3.044,4.266c0,0,0.828,1.134,2.264,3.124c0.14,0.194,0.03,0.293-0.006,0.317
			c0,0-6.713-4.79-8.138-5.806c-0.957-0.682-2.397,0.856-1.461,2.014c0.916,1.132,2.196,2.62,2.196,2.62L36.387,45.775
			c-0.329,0.461-0.514,1.01-0.532,1.576l-0.158,6.845l-5.976,8.684l2.434-0.407l5.249-7.051l6.444-2.366
			c0.533-0.201,0.994-0.555,1.324-1.019l10.055-14.091c0,0,1.823,0.727,3.191,1.224c1.4,0.509,2.386-1.353,1.429-2.036
			c-1.43-1.02-3.189-2.275-5.034-3.592l3.909-5.478c0,0,0.743,0.318,2.318,0.878C62.394,29.424,63.525,27.634,62.287,26.751z
			 M50.645,39.385l-2.337-1.667l-0.666,2.169l1.752,1.25l-1.25,1.753l-2.337-1.667l-0.666,2.169l1.752,1.25l-1.25,1.752
			l-2.337-1.667l-0.666,2.169l1.752,1.25l-1.25,1.752l-4.089-2.918l9.587-13.436l4.089,2.918L50.645,39.385z"/>
	</g>
</g>
</svg>
