<?xml version="1.0" encoding="utf-8"?>
<!-- Generator: Adobe Illustrator 18.0.0, SVG Export Plug-In . SVG Version: 6.00 Build 0)  -->
<svg version="1.2" baseProfile="tiny" xmlns="http://www.w3.org/2000/svg" xmlns:xlink="http://www.w3.org/1999/xlink" x="0px"
	 y="0px" width="64px" height="64px" viewBox="0 0 64 64" xml:space="preserve">
<g id="_x36_4px">
	<rect fill="none" width="64" height="64"/>
</g>
<g id="icon">
	<g>
		<path d="M52.23,44.7586c-2.7689,0.9518-6.3675,2.413-9.2219,3.6127c0.0737,0.4328,0.0837,0.8923,0.0119,1.3787
			c-0.4146,2.8079-2.82,4.5833-6.2403,4.7416c-7.7327,0.3578-12.5347-1.5577-13.5313-1.9618
			c-0.2862-0.1161-0.318-0.2576-0.2923-0.3882c0.0015-0.0012,0.0111-0.0091,0.0111-0.0091
			c5.5945,0.9645,9.1205,1.1222,13.4634,0.4237c3.295-0.53,4.489-2.106,4.4613-3.4058c-0.027-1.2701-0.9267-2.0373-2.9519-2.1077
			c-6.8902-0.2395-10.9187-1.0081-16.8242-1.8688c-4.1042-0.5981-8.0618,0.4671-11.4327,2.6266
			c-3.1634,2.0265-4.0402,2.9852-4.0402,2.9852l5.7857,11.1429l7.4819-3.0415c0.8526-0.3466,1.7844-0.4511,2.6926-0.3021
			l10.2607,2.283c2.2892,0.3757,4.6379-0.0563,6.6438-1.2219L58.9871,46.8C58.9871,46.8,57.9828,42.781,52.23,44.7586z"/>
		<path d="M28.5036,8.6433c2.0905,0,3.3-1.4785,3.3-3.6075c0-2.4249-1.264-3.7258-3.3-3.7258c-2.1448,0-3.3,1.5376-3.3,3.7258
			C25.2036,7.3425,26.4139,8.6433,28.5036,8.6433z"/>
		<path d="M43.4768,9.6145c2.0927,0,3.3033-1.4738,3.3033-3.5946c0-2.4172-1.2655-3.7131-3.3033-3.7131
			c-2.1468,0-3.3033,1.532-3.3033,3.7131C40.1735,8.3179,41.3845,9.6145,43.4768,9.6145z"/>
		<path d="M23,27.7149c0,0,0-7.3284,0-8.7149c0-1,0-2,0.4333-2.8088c0.2212-0.4129,0.5094-0.4773,0.5667-0.4086V44
			c2.0392,0,3.4034-1.1217,3.5776-3.3745c0,0,0.4343-13.4573,0.44-13.6055c0.0057-0.1483,0.2454-0.341,0.486-0.341
			s0.481,0.1927,0.4867,0.341s0.4393,13.6055,0.4393,13.6055C29.6045,42.8875,30.9763,44,33,44V32.7215
			c-0.698,0-1.9559-0.3915-2.0493-2.0008c-0.2054-3.5388-0.108-9.2755,2.1022-10.3325c1.353-0.647,5.6-0.647,7.081-0.0234
			c2.0428,0.8604,1.9896,6.7529,1.9817,10.3267c-0.0036,1.612-1.4181,2.0321-2.1156,2.0321V44c0,0,2.8002-0.4326,3-3.1369
			c0,0-0.0028-6.1549-0.0019-9.0209c0.3276-0.0403,0.6647-0.0739,1.0037-0.1078C44.0028,34.5363,44,40.7881,44,40.7881
			C44.1534,43.5725,47,44,47,44V31.6591c0.0616,0.0049,0.1264,0.0011,0.1875,0.0071c1.1571,0.1133,1.8068,0.3067,1.8068,0.3067
			c0-5.9951-1.5441-8.2742-2.0276-10.1533c-0.2569-0.9986-0.043-2.0438,0.1907-3.0439c0.2196-0.9401,0.5021-1.8158,0.0587-3.6742
			c0,0,0.2333,0.4216,0.3268,0.6948c0.5195,1.5183,0.3682,4.4552,2.4627,11.2234c0.9122-0.1201,2.0292-1.2537,1.6536-3.3279
			c-0.4614-2.5491-1.032-3.9433-1.2405-5.7146c-0.4612-3.9218-1.6247-5.8064-3.7892-6.4919
			c-1.0309-0.3264-2.0138-0.4766-3.1327-0.4767h-0.0399c-1.1189,0.0001-2.1017,0.1503-3.1327,0.4767
			c-0.6248,0.1978-1.1605,0.5055-1.6241,0.9269c0.6997,0.6054,1.1037,1.566,1.1037,2.8799c0,2.0703-1.2096,3.5079-3.3,3.5079
			c-2.0897,0-3.3-1.2649-3.3-3.5079c0-1.5844,0.6425-2.8156,1.8553-3.3423c-0.5295-0.6564-1.1956-1.1455-2.0516-1.3761
			c-2.6095-0.7029-6.0622-0.7639-9.0077,0C19.4262,11.7598,19.9725,20.3484,20.259,25C20.3893,27.1154,22.0267,27.7149,23,27.7149z"
			/>
	</g>
</g>
</svg>
