<?xml version="1.0" encoding="utf-8"?>
<!-- Generator: Adobe Illustrator 19.1.0, SVG Export Plug-In . SVG Version: 6.00 Build 0)  -->
<svg version="1.2" baseProfile="tiny" xmlns="http://www.w3.org/2000/svg" xmlns:xlink="http://www.w3.org/1999/xlink" x="0px"
	 y="0px" width="64px" height="64px" viewBox="0 0 64 64" xml:space="preserve">
<g id="Box">
	<rect fill="none" width="64" height="64"/>
</g>
<g id="Icon">
	<path d="M54.0617,3.7964C39.2442-2.9644,32,11.5712,32,11.5712S24.7558-2.9644,9.9382,3.7964
		C-4.6763,10.4645-3.7019,43.548,30.5516,61.9672c0.8998,0.4838,1.9967,0.4838,2.8966,0
		C67.702,43.548,68.6762,10.4645,54.0617,3.7964z M39.7361,36.6589c0.3143,0.6941,0.177,1.0906-0.052,2.8146
		c-0.1483,1.1167-1.2739,10.876-1.4697,12.3501h-1.2679c0.1354-1.3726,1.2178-14.2195,1.2258-14.2847
		c0.0292-0.2401-0.1417-0.2979-0.291-0.2979s-0.3174,0-0.5779,0c-1.047,0-1.6379-0.7401-1.6368-1.8229h1.8886
		c-0.2566-0.2145-0.5092-0.4894-0.744-0.8509c-0.3953-0.6088-1.518-1.9605-2.1124-3.9522
		c-0.1163-0.4348-0.2053-0.8268-0.2789-1.1917c-1.0126,2.139-2.2086,4.7343-2.9899,6.6569
		c1.9264,4.2219,1.8956,4.9714,2.0532,6.1383c0.4149,3.7285,0.5697,5.5154,0.9336,9.5942
		c-0.1096,0.0121-2.6384,0.2609-3.2846-2.4894c-0.6779-2.8851-1.1439-5.0176-1.6473-7.1869
		c-0.0204-0.1163-0.1476-0.3857-0.3581-0.7214c-0.6707-1.0696-1.8669-2.8165-2.1964-3.3258
		c-0.0787-0.0107-0.1504,0.1174-0.0788,0.2814c0.6028,1.3813,1.5543,3.5696,1.5543,3.5696s-0.7716,9.6254-0.7936,9.8832
		c-0.3341-0.0649-2.5604-0.5968-2.593-3.2498c-0.0074-0.608-0.1274-12.3063-0.2374-14.2843
		c-0.0895-0.8865-0.0693-2.014,0.4795-3.2766c0.7732-1.751,3.2932-7.3436,6.0305-8.2105c1.9651-0.6221,4.8195,1.0535,5.0677,2.3028
		c0.1426,0.7177,0.4536,3.481,0.7734,4.8897c0.3985,1.5178,0.8723,2.1585,2.9678,6.0021c-0.0058,0.002-0.3072,0.1002-0.7503,0.0958
		C39.5048,36.257,39.6387,36.4449,39.7361,36.6589z M38.5126,18.9876c-0.019,0.1359-0.0295,0.3763-0.0608,0.5192
		c-0.3982,1.8116-1.7137,2.8411-3.5104,2.4465c-1.7961-0.3946-2.5924-1.7302-2.1616-3.692
		c0.0025-0.0112,0.0059-0.0216,0.0084-0.0328l-0.0065-0.001c0,0,0.493-3.0488,1.907-3.241c1.414-0.1916,5.9402,2.5905,5.7658,3.4634
		C40.3438,19.003,39.2788,19.0368,38.5126,18.9876z"/>
</g>
</svg>
