<?xml version="1.0" encoding="utf-8"?>
<!-- Generator: Adobe Illustrator 25.2.0, SVG Export Plug-In . SVG Version: 6.00 Build 0)  -->
<svg version="1.1" xmlns="http://www.w3.org/2000/svg" xmlns:xlink="http://www.w3.org/1999/xlink" x="0px" y="0px"
	 viewBox="0 0 64 64" style="enable-background:new 0 0 64 64;" xml:space="preserve">
<style type="text/css">
	.st0{fill:none;}
	.st1{fill:#B3B3B3;}
</style>
<g id="Box">
	<rect class="st0" width="64" height="64"/>
</g>
<g id="Icon">
	<g>
		<path d="M42.43,28.875c-0.446-0.357-1.164-0.807-2.301-1.656c-1.058-0.789-2.166-1.683-2.644-2.308
			c-0.378-0.493-0.441-1.941-0.697-3.37c-0.366-2.046-3.288-6.375-3.288-6.375c0.6-2.325-1.226-9.383-12.874-6.273
			C5.175,13.02,5.002,24.112,4.982,25.546c-0.123,8.61,4.61,12.236,8.143,16.521c4.153,5.037,5.68,6.2,2.552,12.933h19.819
			c-0.668-3.548-0.582-6.112-0.582-6.112c-2.489-0.24-3.997-1.055-5.039-1.847c-0.641-0.487-0.446-0.61-0.403-0.692
			c0,0,2.884,1.486,7.961,1.047c2.696-0.233,4.325-1.772,3.583-4.965c-0.16-0.689,0.182-1.404,0.526-1.953
			c0.514-0.819,0.958-1.258,0.225-2.226c-0.32-0.423-0.705-0.752-0.705-0.752s0.699-0.59,0.938-1.272
			c0.377-1.074-0.148-1.129-0.619-1.934c-0.391-0.669-0.397-1.406-0.397-1.406s0.928-0.79,1.582-1.481
			C42.93,31.024,43.795,29.969,42.43,28.875z"/>
		<path d="M58.996,45.368l-9.693-8.133c0.055-0.337-0.047-0.692-0.327-0.927l-3.83-3.214c-0.423-0.355-1.054-0.3-1.409,0.123v0
			c-0.355,0.423-0.3,1.054,0.123,1.409l3.83,3.214c0.281,0.235,0.648,0.274,0.97,0.161l9.693,8.133
			c0.211,0.177,0.527,0.15,0.704-0.062C59.235,45.861,59.207,45.545,58.996,45.368z"/>
	</g>
</g>
</svg>
