<?xml version="1.0" encoding="utf-8"?>
<!-- Generator: Adobe Illustrator 17.1.0, SVG Export Plug-In . SVG Version: 6.00 Build 0)  -->
<svg version="1.2" baseProfile="tiny" xmlns="http://www.w3.org/2000/svg" xmlns:xlink="http://www.w3.org/1999/xlink" x="0px"
	 y="0px" width="64px" height="64px" viewBox="0 0 64 64" xml:space="preserve">
<g id="_x36_4px_Boxes">
	<rect fill="none" width="64" height="64"/>
</g>
<g id="Production">
	<rect fill="none" width="64" height="64"/>
	<g>
		<path d="M52.23,44.7586c-2.7688,0.9518-6.3674,2.413-9.2219,3.6127c0.0737,0.4328,0.0837,0.8923,0.012,1.3787
			c-0.4146,2.8079-2.8201,4.5833-6.2402,4.7416c-7.7328,0.3578-12.5348-1.5577-13.5314-1.9618
			c-0.2863-0.1161-0.318-0.2576-0.2924-0.3882c0.0015-0.0012,0.0112-0.0091,0.0112-0.0091
			c5.5945,0.9645,9.1205,1.1222,13.4634,0.4237c3.2949-0.53,4.489-2.106,4.4612-3.4058c-0.027-1.2701-0.9266-2.0373-2.9519-2.1077
			c-6.8901-0.2395-10.9187-1.0081-16.8242-1.8688c-4.1041-0.5981-8.0618,0.4671-11.4326,2.6266
			c-3.1633,2.0265-4.0403,2.9852-4.0403,2.9852l5.7858,11.1429l7.4819-3.0415c0.8527-0.3466,1.7843-0.4511,2.6925-0.3021
			l10.2607,2.283c2.2893,0.3757,4.6379-0.0563,6.6438-1.2219L58.9871,46.8C58.9871,46.8,57.9828,42.781,52.23,44.7586z"/>
		<path d="M40.4768,9.6145c2.0928,0,3.3032-1.4738,3.3032-3.5946c0-2.4172-1.2654-3.7131-3.3032-3.7131
			c-2.1467,0-3.3032,1.532-3.3032,3.7131C37.1736,8.3179,38.3845,9.6145,40.4768,9.6145z"/>
		<path d="M36.6606,14.8906l-0.0513,0.1875c-0.4453,1.8388-0.1616,2.7053,0.059,3.6355c0.2346,0.9896,0.2889,2.0237,0.0309,3.0118
			C36.2135,23.5848,35,26.0339,35,31.9661c0,0,0.7218,0.1999,2,0.2431V44c0,0,2.8002-0.4326,3-3.1369
			c0,0-0.0027-5.9222-0.002-8.8535c0.1758-0.0269,0.3392-0.0441,0.5231-0.0776c0.1603-0.0292,0.3207-0.0544,0.4808-0.0771
			C41.0028,34.7101,41,40.7881,41,40.7881C41.1533,43.5725,44,44,44,44V31.732c1.1816,0.0541,2,0.2001,2,0.2001
			c0-5.9321-1.2135-8.3473-1.6992-10.2066c-0.2581-0.9881-0.2037-2.0222,0.0309-3.0118c0.2206-0.9302,0.5043-1.7967,0.059-3.6355
			c0,0,0.2343,0.4172,0.3281,0.6875c0.522,1.5024,0.3699,4.4083,2.4733,11.1053c0.9161-0.1188,2.0377-1.2405,1.6605-3.2929
			c-0.4633-2.5223-0.969-3.9018-1.1782-5.6544c-0.4631-3.8805-1.834-5.7453-4.0076-6.4236
			c-1.0353-0.3231-2.0223-0.4716-3.146-0.4717c-1.1689-0.0001-2.304,0.2684-3.3021,0.5504c-2.9838,0.8427-7.9034,3.8958-9.9557,5.86
			c-1.6216,1.5522-1.3712,2.6206-0.8802,3.3705C32.4119,16.7776,36.6606,14.8906,36.6606,14.8906z"/>
		<path d="M26.5,24.0052c0,1.856,1.1003,2.9025,3,2.9025c1.9004,0,3-1.1896,3-2.9025c0-1.9509-1.1492-2.9975-3-2.9975
			C27.55,21.0077,26.5,22.2447,26.5,24.0052z"/>
		<path d="M26.1829,37.3783l0.0369,6.5994c0.6936-0.0576,2.4666-0.3038,2.5891-1.3237c0.1487-1.2384,0.4028-4.7347,0.4028-4.7347
			c0.0044-0.0518,0.1309-0.1893,0.283-0.1893H29.5c0.1519,0,0.2782,0.1375,0.2827,0.1893c0,0,0.2778,3.4304,0.3999,4.701
			c0.1072,1.1145,1.9926,1.3253,2.6489,1.3651l0.0024-6.6038c0.5901,0,1.1615-0.9649,1.1646-2.0084
			c0.0068-2.3137,0.0518-6.4359-1.6763-6.9929c-1.2529-0.4037-4.3379-0.3961-5.4825,0.0228
			c-1.8696,0.6843-1.9521,4.7248-1.7783,7.0158C25.1404,36.4607,25.5925,37.3783,26.1829,37.3783z"/>
	</g>
</g>
</svg>
