<?xml version="1.0" encoding="utf-8"?>
<!-- Generator: Adobe Illustrator 25.3.1, SVG Export Plug-In . SVG Version: 6.00 Build 0)  -->
<svg version="1.1" xmlns="http://www.w3.org/2000/svg" xmlns:xlink="http://www.w3.org/1999/xlink" x="0px" y="0px"
	 viewBox="0 0 64 64" style="enable-background:new 0 0 64 64;" xml:space="preserve">
<style type="text/css">
	.st0{fill:none;}
</style>
<g id="Box">
	<rect class="st0" width="64" height="64"/>
</g>
<g id="Icon">
	<g>
		<g>
			<path d="M55,13h-6.922l-1.711,5.75C46.262,19.075,46,18.975,46,18.975V13h-0.007c-0.015-1.258-0.057-3.347-0.183-4.121
				C45.701,8.214,45.584,7,44.614,7h-2.855c-0.969,0-1.176,1.228-1.284,1.893c-0.125,0.773-0.3,2.853-0.398,4.107H24.078
				l-1.711,5.75C22.262,19.075,22,18.975,22,18.975V13h-0.007c-0.015-1.258-0.057-3.347-0.183-4.121C21.701,8.214,21.584,7,20.614,7
				h-2.855c-0.969,0-1.176,1.228-1.284,1.893c-0.125,0.773-0.3,2.853-0.398,4.107H9c-1.104,0-2,0.896-2,2v40c0,1.104,0.896,2,2,2h46
				c1.104,0,2-0.896,2-2V15C57,13.896,56.105,13,55,13z M52,52H12V26h40V52z"/>
		</g>
		<g>
			<path d="M22.277,40.515c0.709,0,1.314-0.438,1.565-1.057h1.426c0.129,1.391,0.678,2.661,1.522,3.679l-1.042,1.042
				c-0.422-0.112-0.89-0.007-1.221,0.324c-0.495,0.495-0.495,1.298,0,1.793s1.298,0.495,1.793,0
				c0.331-0.331,0.436-0.799,0.324-1.221l1.043-1.042c1.391,1.153,2.878,1.448,3.679,1.523v1.425
				c-0.619,0.251-1.057,0.856-1.057,1.566c0,0.65,0.51,1.691,1.692,1.691c0.934,0,1.691-0.757,1.691-1.691
				c0-0.709-0.437-1.314-1.057-1.566v-1.425c1.391-0.13,2.661-0.679,3.679-1.522l1.042,1.042c-0.112,0.422-0.007,0.89,0.324,1.221
				c0.495,0.495,1.298,0.495,1.793,0c0.495-0.495,0.495-1.298,0-1.794c-0.331-0.331-0.798-0.436-1.221-0.324l-1.042-1.042
				c0.844-1.018,1.393-2.287,1.522-3.679h1.426c0.251,0.619,0.856,1.057,1.565,1.057c0.934,0,1.691-0.757,1.691-1.691
				c0-0.934-0.757-1.691-1.691-1.691c-0.709,0-1.314,0.438-1.565,1.057h-1.426c-0.151-1.628-0.871-2.893-1.522-3.679l1.042-1.043
				c0.422,0.112,0.89,0.007,1.221-0.324c0.495-0.495,0.495-1.298,0-1.793c-0.536-0.536-1.341-0.454-1.794-0.001
				c-0.331,0.331-0.436,0.799-0.324,1.221l-1.042,1.042c-0.622-0.516-1.863-1.353-3.678-1.522v-1.425
				c0.619-0.251,1.057-0.856,1.057-1.565c0-0.65-0.51-1.691-1.692-1.691c-0.934,0-1.691,0.757-1.691,1.691
				c0,0.621,0.335,1.162,0.834,1.455c0.071,0.042,0.146,0.079,0.223,0.11v1.425c-1.391,0.13-2.661,0.678-3.678,1.522l-1.042-1.042
				c0.125-0.471-0.018-1.05-0.523-1.384c-0.492-0.325-1.161-0.271-1.595,0.162c-0.495,0.495-0.495,1.298,0,1.793
				c0.437,0.437,0.979,0.389,1.221,0.325l1.042,1.042c-0.135,0.163-0.26,0.334-0.379,0.51c-0.019,0.028-0.038,0.057-0.057,0.086
				c-0.112,0.171-0.218,0.346-0.315,0.527c-0.002,0.003-0.004,0.007-0.006,0.01c-0.412,0.772-0.681,1.632-0.766,2.546h-1.426
				c-0.251-0.619-0.856-1.057-1.565-1.057c-0.934,0-1.691,0.757-1.691,1.691S21.343,40.515,22.277,40.515z"/>
		</g>
	</g>
</g>
</svg>
