<?xml version="1.0" encoding="utf-8"?>
<!-- Generator: Adobe Illustrator 19.1.0, SVG Export Plug-In . SVG Version: 6.00 Build 0)  -->
<svg version="1.2" baseProfile="tiny" xmlns="http://www.w3.org/2000/svg" xmlns:xlink="http://www.w3.org/1999/xlink" x="0px"
	 y="0px" width="64px" height="64px" viewBox="0 0 64 64" xml:space="preserve">
<g id="_x36_4px_Box">
	<rect fill="none" width="64" height="64"/>
</g>
<g id="Icon">
	<g>
		<path d="M56.6799,20.7568c-0.6652,2.8513-1.3398,6.6763-1.8404,9.7318c0.4058,0.1675,0.8004,0.4033,1.1742,0.7226
			c2.1583,1.8433,2.384,4.8245,0.7005,7.8059c-3.8063,6.7406-7.9808,9.7905-8.8528,10.42
			c-0.2504,0.1807-0.3872,0.1325-0.4842,0.0413c-0.0002-0.0018-0.0017-0.0143-0.0017-0.0143
			c3.79-4.2266,5.7974-7.1296,7.5137-11.1797c1.302-3.0728,0.6015-4.9219-0.5143-5.589c-1.0902-0.6522-2.2183-0.2977-3.3542,1.3806
			c-3.8644,5.7094-6.6564,8.7136-10.5238,13.2587c-2.6877,3.1588-4.5248,7.0773-4.4868,11.0805
			c0.0241,2.5467,0.1862,3.9399,0.2881,4.5749h13.4996l1.1437-6.4998c0.1595-0.9066,0.5661-1.7512,1.1749-2.4414l7.3868-7.4788
			c1.5349-1.7396,2.417-3.9587,2.4956-6.2773L62,16.1176C62,16.1176,58.0618,14.8326,56.6799,20.7568z"/>
		<path d="M12.9794,34.0759c-1.1359-1.6783-2.264-2.0327-3.3542-1.3806c-1.1158,0.6671-1.8163,2.5162-0.5143,5.589
			c1.7162,4.0501,3.7236,6.9532,7.5137,11.1797c0,0-0.0015,0.0125-0.0017,0.0143c-0.097,0.0912-0.2338,0.1394-0.4842-0.0413
			c-0.8719-0.6295-5.0465-3.6794-8.8528-10.42c-1.6835-2.9814-1.4578-5.9626,0.7005-7.8059
			c0.3738-0.3193,0.7684-0.5551,1.1742-0.7226c-0.5006-3.0555-1.1752-6.8806-1.8404-9.7318C5.9382,14.8326,2,16.1176,2,16.1176
			l0.0012,24.175c0.0786,2.3187,0.9608,4.5377,2.4956,6.2773l7.3868,7.4788c0.6088,0.6902,1.0154,1.5349,1.1749,2.4414
			l1.1437,6.4998h13.4996c0.102-0.6349,0.264-2.0282,0.2881-4.5749c0.038-4.0032-1.7991-7.9217-4.4868-11.0805
			C19.6357,42.7894,16.8438,39.7852,12.9794,34.0759z"/>
		<path d="M31.6506,11.192c2.236,0.3504,3.9156-0.6496,4.7649-2.4747c0.4765,0.7163,1.3723,1.605,2.7675,1.268
			c2.0735-0.5006,1.756-2.1088,4.3589-1.5363c0.2117,0.0464,0.3652-0.1999,0.2176-0.3585
			c-0.7601-0.8173-2.4121-2.2636-4.4536-2.0868c-1.1077,0.0958-1.8475,0.4109-2.348,0.7581
			c0.4007-3.1367-1.0349-5.0869-3.7495-5.5121c-2.9371-0.4603-4.846,1.3762-5.3108,4.3432
			C27.4077,8.7199,28.7884,10.7435,31.6506,11.192z"/>
		<path d="M40.852,41.9183c1.5242-1.9806,0.467-3.7054-1.1467-5.4144c-1.5983-1.6927-2.2131-2.3093-3.5462-3.6362
			c0.3121,0,0.8442,0,1.7722,0c0.6091,0,1.0677-0.5541,0.9539-1.1525l-2.1718-11.3778c2.2486,1.9159,4.1748,3.0173,6.4454,3.3241
			c2.3934,0.3234,4.4502-0.0744,4.8412-2.2635c-2.934-0.5521-5.0938-1.3858-7.0098-2.5811c-4.5458-2.8359-4.0668-4.6068-7.6-5.3915
			c-3.8613-0.8575-6.5756,0.8696-9.4767-4.3705C22.9235,7.267,22.0922,4.6947,21.3535,1c-2.0903,0.5551-2.8822,2.4113-2.3647,4.8694
			c0.9435,4.4818,2.489,8.7692,6.5731,11.3857c-1.0566,3.1331-2.8383,8.8965-3.7315,14.537
			c-0.0929,0.5862,0.3688,1.0658,0.9623,1.0658h2.2411c-0.2014,1.324-0.3279,2.4676-0.3663,2.7451
			c-0.1295,0.9374,0.0069,1.5734,0.2357,2.2806c0.7318,2.262,2.3912,6.8749,2.9975,8.6179l0.0023-0.0008
			c2.32-0.8069,2.9863-2.4362,2.3223-5.1752c-0.664-2.7391-1.1764-4.9013-1.1764-4.9013l1.0873-3.5566h1.0039
			c0.1556,0.953,0.2825,1.769,0.3239,2.0225c0.1082,0.6465,0.4769,1.2471,1.07,1.6321c7.7826,5.052,6.0283,3.9132,8.3162,5.3984
			L40.852,41.9183z"/>
	</g>
</g>
</svg>
