<?xml version="1.0" encoding="utf-8"?>
<!-- Generator: Adobe Illustrator 18.0.0, SVG Export Plug-In . SVG Version: 6.00 Build 0)  -->
<svg version="1.2" baseProfile="tiny" xmlns="http://www.w3.org/2000/svg" xmlns:xlink="http://www.w3.org/1999/xlink" x="0px"
	 y="0px" width="64px" height="64px" viewBox="0 0 64 64" xml:space="preserve">
<g id="_x36_4px_Boxes">
	<rect fill="none" width="64" height="64"/>
</g>
<g id="Production">
	<g>
		<path d="M52.23,44.7586c-2.7689,0.9518-6.3675,2.413-9.2219,3.6127c0.0737,0.4328,0.0837,0.8923,0.0119,1.3787
			c-0.4146,2.8079-2.82,4.5833-6.2403,4.7416c-7.7327,0.3578-12.5347-1.5577-13.5313-1.9618
			c-0.2862-0.1161-0.318-0.2576-0.2923-0.3882c0.0015-0.0012,0.0111-0.0091,0.0111-0.0091
			c5.5945,0.9645,9.1205,1.1222,13.4634,0.4237c3.295-0.53,4.489-2.106,4.4613-3.4058c-0.027-1.2701-0.9267-2.0373-2.9519-2.1077
			c-6.8902-0.2395-10.9187-1.0081-16.8242-1.8688c-4.1042-0.5981-8.0618,0.4671-11.4327,2.6266
			c-3.1634,2.0265-4.0402,2.9852-4.0402,2.9852l5.7857,11.1429l7.4819-3.0415c0.8526-0.3466,1.7844-0.4511,2.6926-0.3021
			l10.2607,2.283c2.2892,0.3757,4.6379-0.0563,6.6438-1.2219L58.9871,46.8C58.9871,46.8,57.9828,42.781,52.23,44.7586z"/>
		<path d="M14,34h2v8h4v-8h28v8h4v-8h2c0.5523,0,1-0.4478,1-1V15.5c0-1.1046-0.8954-1.5-2-1.5s-2,0.3954-2,1.5V26H17v-6.5
			c0-1.1046-0.8954-1.5-2-1.5s-2,0.3954-2,1.5V33C13,33.5522,13.4477,34,14,34z"/>
		<path d="M30.9775,17.8635l0.9326,0.1052c-0.0835-2.0388-0.2418-4.1509-0.5417-4.8634C30.797,11.7481,29.6316,11,27.5,11
			s-3.297,0.7481-3.8684,2.1052c-0.364,0.8646-0.5201,3.8849-0.5858,6.1119c1.8677-0.4388,4.0921-0.9423,5.2823-1.2101
			C29.1943,17.8127,30.0928,17.7624,30.9775,17.8635z"/>
		<path d="M47.99,19c0,0,0.1767-1.8889-1.365-2.52c-1.8912-0.7742-4.0438-0.2667-5.4725,0.9871
			c-1.4302,1.2551-3.09,3.4079-3.09,3.4079l-7.31-0.8245c-0.6649-0.075-1.3322-0.0395-1.985,0.1075
			c-2.0156,0.4539-6.5445,1.4814-7.9232,1.8574C19.2941,22.4383,19,23.3187,19,24h24C43,24,44.6775,20,47.99,19z"/>
		<path d="M27.5089,9.8986c1.6606,0,2.6212-1.1694,2.6212-2.8523c0-1.918-1.0042-2.9463-2.6212-2.9463
			c-1.7034,0-2.6211,1.2156-2.6211,2.9463C24.8878,8.8697,25.8486,9.8986,27.5089,9.8986z"/>
		<path d="M45.3362,14.8157c1.6191,0.3687,2.8154-0.5583,3.189-2.1991c0.4258-1.8702-0.325-3.0957-1.9016-3.4548
			c-1.6609-0.3782-2.8256,0.6033-3.2099,2.2908C43.0089,13.2305,43.7174,14.447,45.3362,14.8157z"/>
	</g>
</g>
</svg>
