<?xml version="1.0" encoding="utf-8"?>
<!-- Generator: Adobe Illustrator 17.1.0, SVG Export Plug-In . SVG Version: 6.00 Build 0)  -->
<svg version="1.2" baseProfile="tiny" xmlns="http://www.w3.org/2000/svg" xmlns:xlink="http://www.w3.org/1999/xlink" x="0px"
	 y="0px" width="64px" height="64px" viewBox="0 0 64 64" xml:space="preserve">
<g id="_x36_4px_Boxes">
	<rect fill="none" width="64" height="64"/>
</g>
<g id="Production">
	<rect fill="none" width="64" height="64"/>
	<g>
		<path d="M52.2301,44.7582c-2.7689,0.9518-6.3674,2.413-9.2219,3.6126c0.0738,0.4329,0.0837,0.8924,0.0119,1.3788
			c-0.4145,2.8078-2.82,4.5833-6.2403,4.7415c-7.7327,0.3578-12.5347-1.5576-13.5313-1.9617
			c-0.2862-0.1161-0.318-0.2576-0.2923-0.3882c0.0016-0.0013,0.0111-0.0091,0.0111-0.0091
			c5.5945,0.9645,9.1206,1.1222,13.4634,0.4237c3.295-0.53,4.489-2.106,4.4613-3.4058c-0.027-1.2701-0.9268-2.0373-2.9519-2.1078
			c-6.8902-0.2395-10.9187-1.008-16.8242-1.8687c-4.1042-0.5981-8.0618,0.4671-11.4327,2.6265
			c-3.1635,2.0265-4.0402,2.9853-4.0402,2.9853l5.7857,11.1429l7.4819-3.0415c0.8526-0.3467,1.7844-0.4512,2.6926-0.3022
			l10.2607,2.283c2.2892,0.3758,4.6379-0.0562,6.6438-1.2219l20.4795-12.846C58.9872,46.7996,57.9829,42.7806,52.2301,44.7582z"/>
		<path d="M22.2022,7.8798c2.0046,0.1976,3.3047-1.068,3.5066-3.0556c0.23-2.2637-0.8591-3.5972-2.8114-3.7898
			c-2.0566-0.2027-3.3102,1.1233-3.5175,3.1661C19.161,6.3535,20.198,7.682,22.2022,7.8798z"/>
		<path d="M32.0625,28.6553c-0.0153-0.1038-0.0267-0.2262-0.0411-0.3348C30.759,29.8698,30,31.8457,30,33.9999
			C30,38.9703,34.0297,43,39.0001,43c2.7634,0,5.2331-1.2482,6.8841-3.2086c-0.043-0.0965-0.0884-0.1867-0.1293-0.2885
			c-0.3718-0.9259-0.7805-1.9962-1.1929-3.0989c-0.9308,2.1503-3.0698,3.656-5.5619,3.656c-3.3468,0-6.0601-2.7133-6.0601-6.0601
			c0-0.8596,0.1815-1.6759,0.5042-2.4166C32.7225,30.8121,32.2349,29.8281,32.0625,28.6553z"/>
		<path d="M38.1215,31h7.0103c0.9464,2.5938,2.0021,5.496,2.85,7.6086c1.0927,2.7224,3.1488,2.4195,3.7446,2.2682
			c-0.734-3.204-1.5308-6.7273-2.4639-10.0162c-1.1012-3.7834-1.4606-3.7781-3.6019-4.2682C43.6875,26.1406,41,26,41,26
			c0-3.556,0-6.5,0-6.5c0-3.4167-3.2398-3.9117-4.9196-3.2002c-0.7398,0.3133-1.3267,0.9971-1.6108,2.4869
			c-0.5109,2.6779-0.3932,7.0626-0.0325,9.5186C34.8181,30.8976,37.41,31,38.1215,31z"/>
		<path d="M38.4603,14.8322c1.9208,0.0135,3.0421-1.3234,3.0557-3.26c0.0158-2.2065-1.1376-3.3978-3.0083-3.4115
			c-1.9706-0.014-3.0422,1.3775-3.0564,3.368C35.436,13.6267,36.5399,14.818,38.4603,14.8322z"/>
		<path d="M20.1183,31.9094c-0.4835,0.1111-1.308,0.2322-2.2856,0.1964c-0.096,0.4698-0.2017,0.8798-0.3309,1.3848
			c-0.5598,2.1209-1.1752,4.1699-1.4536,5.8282C15.7473,41.111,16.9174,42.7194,17.8748,43
			c1.2029-3.802,1.9036-5.8339,2.5812-7.7978c0.2363,1.9669,0.4133,3.7083,0.5135,4.3724c0.3484,2.308,2.073,3.472,3.0304,3.399
			c0,0-0.1343-5.4563-0.2686-10.9126c-0.0081-0.3942-0.0161-0.7844-0.0241-1.1766c1.2679-0.3176,2.2188-0.8082,2.2188-0.8082
			c-0.3396-4.4151-1.2791-6.4461-1.8679-8.3166c0.2305-2.2748,0.3908-4.7153,0.4116-6.6509
			c0.5503,1.1495,1.3154,2.5428,2.1605,3.504c1.074,1.2214,2.0659,2.3213,3.0297,3.3213c1.3641,1.4153,2.5223,1.1493,3.2099,0.7391
			c-0.4937-0.8078-4.5692-6.1009-4.863-6.6084c-2.2108-3.7129-2.6616-6.2843-5.077-6.7739
			c-1.0494-0.2128-2.2406-0.2731-3.1262,0.4016c-1.1945,0.91-1.721,2.5457-1.6154,4.7692c0.1407,2.9635,0.8066,3.7528-0.0844,5.8318
			c-0.5707,1.3316-0.864,2.0223-1.2853,3.6105c-0.3984,1.5017-0.8136,2.5582-1.6577,5.7195
			c0.738,0.5477,2.6643,1.5223,5.6243,1.5574C20.8791,31.3782,20.7596,31.762,20.1183,31.9094z"/>
	</g>
</g>
</svg>
