<?xml version="1.0" encoding="utf-8"?>
<!-- Generator: Adobe Illustrator 18.1.1, SVG Export Plug-In . SVG Version: 6.00 Build 0)  -->
<svg version="1.2" baseProfile="tiny" xmlns="http://www.w3.org/2000/svg" xmlns:xlink="http://www.w3.org/1999/xlink" x="0px"
	 y="0px" width="64px" height="64px" viewBox="0 0 64 64" xml:space="preserve">
<g id="box">
	<rect fill="none" width="64" height="64"/>
</g>
<g id="icon">
	<g>
		<path d="M15.9143,44.014c-0.0999-1.0374-0.0366-1.9895,0.1954-2.8435c-1.9481,0.8708-3.7462,1.878-4.7225,2.9399
			C8.5137,47.2344,7,59,7,59h7.8643C14.2602,58,10.5567,47.4553,15.9143,44.014z"/>
		<circle cx="44.5" cy="50.5" r="2"/>
		<path d="M52.6128,44.1104c-1.0543-1.1467-3.0648-2.2304-5.1901-3.1462c0.5328,1.6359,0.4248,3.5681-0.3021,5.7616
			C48.3148,47.5568,49.1,48.9349,49.1,50.5c0,2.5405-2.0594,4.6-4.6,4.6c-1.7404,0-3.244-0.9698-4.02-2.397
			c-0.4086-0.7514-0.5853-1.7134-0.5581-1.9061c0.75-0.3281,1.4126-1.0762,1.709-1.9639c0.2283-0.6846,0.2466-1.4194,0.1916-2.0602
			C42.5779,46.2289,43.498,45.9,44.5,45.9c0.0872,0,0.1686,0.0209,0.2546,0.0256c0.6427-1.9362,0.6762-3.5236,0.0755-4.7195
			c-0.7998-1.5947-2.584-2.2129-3.5762-2.4395l0.0045-0.0198c-0.0099-0.003-0.0217-0.0068-0.0316-0.0098
			c-0.155-1.1155-0.3614-2.4073-0.5466-3.4836c1.7886-2.1667,2.8874-4.4047,3.2495-6.6968
			c1.3281-1.2195,2.0679-3.1657,2.0679-5.5557c0-0.7447,0.0012-2.7025-1.2268-4.0366c0.3036-3.3378,0.515-8.5034-0.7869-10.587
			c-1.6026-2.5649-3.5498-3.8159-7.2632-2.9775c-2.4355-1.1577-4.0937-1.8823-8.3608-0.8398c-2.9648,0.7241-6.21,1.9067-7.92,3.8798
			c-1.652,1.9066-1.5394,7.2237-1.2741,10.6054c-1.1589,1.332-1.1634,3.2256-1.1634,3.9557c0,2.386,0.7374,4.3299,2.0614,5.5497
			c0.3819,2.5118,1.613,4.9141,3.7105,7.2619c-0.106,0.807-0.2283,1.7498-0.353,2.7313c-0.5463,0.1597-1.3196,0.3952-2.2079,0.6867
			c-1.9341,0.6816-2.8621,1.9347-2.8579,3.8772c0.9998-0.1288,1.999,0.0249,2.9521,0.4664c1.3614,0.6287,2.5093,1.767,3.4588,3.0579
			c-0.2884,0.8226-0.5505,1.5116-0.7029,1.7575c-0.1331,0.2083-0.3289,0.5125-0.5593,0.8702
			c-0.8893-1.4888-1.9902-2.8366-3.2444-3.4161c-0.8535-0.3945-1.6699-0.3828-2.5713,0.0352
			c-3.4786,1.6097-1.9059,8.0184-1.0405,10.7716c0.505-0.2217,1.036-0.3754,1.4539-0.4692c0.402-0.0903,0.7134-0.1099,0.9685-0.0699
			c-1.0604,1.6357-1.8592,2.8666-1.8594,2.8666L17.1967,59h2.3842c1.543-2.379,5.2306-8.067,6.1678-9.5333
			c0.9175-1.4354,3.0099-9.2449,3.5846-9.7333c0.2132-0.1812,0.5441-0.3304,1.0014-0.4559c0.0886-0.5708,0.6758-4.668,0.6214-9.641
			c-0.0073-0.6572,0.1215-1.7005,0.7954-1.7713c0.7709-0.0843,1.1854,0.8218,1.3007,1.5887
			c0.5942,3.9623,0.4645,8.5081,0.4311,9.3957c2.2646-0.1317,4.6035,0.0156,5.05,0.3505c0.8,0.6,2.541,4.2231,2.2744,5.2231
			S39.6,45.7333,39.6,45.7333S40.0667,47.2,39.7333,48.2S38.2,49.2667,38.2,49.2667S38.0667,50.4,37.9333,51.2
			C37.8,52,37,52.4667,36.2667,51.6667c-0.7333-0.8-0.7333-4.0667-0.7333-4.0667l-1.8581,0.2573
			c-0.8,4.3333-3.4915,5.4585-3.4915,5.4585L28.2515,59H57C57,59,55.4863,47.2344,52.6128,44.1104z M35.4518,35.9001
			c-0.0237-1.8953-0.2335-4.1631-0.5821-6.4857C34.4967,26.9324,33.1094,26,31.8423,26c-2.0711,0.1079-2.7695,1.8256-2.7462,3.9163
			c0.0388,3.5308-0.358,6.3799-0.5497,7.9559c-0.185,0.1041-0.3618,0.2126-0.5078,0.3368
			c-0.5635,0.4786-0.8531,1.1023-1.7197,3.7266c-0.1171-0.5406-0.1631-1.0827-0.0967-1.6182
			c0.237-1.9129,0.0408-0.5492,0.8235-5.4371c-2.2767-2.2-4.1043-4.8665-4.1043-8.061C21.3237,26.3154,20.9,24.2739,20.9,23.001
			c0-1.2725,0.3217-1.961,0.7737-2.1743c0.3922-0.1844,0.7725-0.0475,1.013,0.0886c0.1414,0.6527,0.2484,1.1383,0.2898,1.3098
			C23.1826,23.0762,24,22.998,24,22.998v-6.7451c2.0731-0.1505,6.1937-0.7531,10.7499-3.1062L40,16.6729v6.3251
			c0,0,0.8174,0.0782,1.0234-0.7729c0.0415-0.1715,0.1484-0.6571,0.2898-1.3098c0.2405-0.1362,0.6209-0.2731,1.013-0.0886
			C42.7783,21.04,43.1,21.7285,43.1,23.001c0,1.2729-0.4237,3.3144-2.0414,3.8183C41.0586,30.7016,37.6604,34.4129,35.4518,35.9001z
			"/>
	</g>
</g>
</svg>
