<?xml version="1.0" encoding="utf-8"?>
<!-- Generator: Adobe Illustrator 24.0.1, SVG Export Plug-In . SVG Version: 6.00 Build 0)  -->
<svg version="1.1" xmlns="http://www.w3.org/2000/svg" xmlns:xlink="http://www.w3.org/1999/xlink" x="0px" y="0px"
	 viewBox="0 0 64 64" style="enable-background:new 0 0 64 64;" xml:space="preserve">
<style type="text/css">
	.st0{fill:none;}
	.st1{fill:#FF1D25;}
	.st2{fill:#1D1D1B;}
</style>
<g id="Box">
	<rect class="st0" width="64" height="64"/>
</g>
<g id="Icon">
	<g>
		<path d="M52.2,44.8c-2.8,1-6.4,2.4-9.2,3.6c0.1,0.4,0.1,0.9,0,1.4c-0.4,2.8-2.8,4.6-6.2,4.7c-7.7,0.4-12.5-1.6-13.5-2
			c-0.3-0.1-0.3-0.3-0.3-0.4c0,0,0,0,0,0c5.6,1,9.1,1.1,13.5,0.4c3.3-0.5,4.5-2.1,4.5-3.4c0-1.3-0.9-2-3-2.1
			C31,46.8,27,46,21.1,45.2c-4.1-0.6-8.1,0.5-11.4,2.6c-3.2,2-4,3-4,3l5.8,11.1l7.5-3c0.9-0.3,1.8-0.5,2.7-0.3l10.3,2.3
			c2.3,0.4,4.6-0.1,6.6-1.2L59,46.8C59,46.8,58,42.8,52.2,44.8z"/>
		<path d="M19.8,35c1,0.2,2,0.3,3.2,0.4c0,0,2.3-2.6,2.4-2.7c0.2-0.2,0.3-0.1,0.3-0.1v0l0,0l-2.1,7.5l0,0l0,0.1c0,0.2,0,0.3,0.1,0.5
			c0.2,0.3,0.6,0.4,0.9,0.2l8-5.1l0,0c0.7,0,1.2,0,1.5,0h0c1.6,0,9.5,0,14.2-0.8c1.6-0.3,2.9-1.6,3.2-3.2c0.8-4.9,0.8-6,0.8-10.9
			c0-4.9,0-6-0.8-10.9c-0.3-1.7-1.5-3-3.2-3.2C43.5,6,35.6,6,34,6h0c-1.6,0-9.5,0-14.2,0.8c-1.6,0.3-2.9,1.6-3.2,3.2
			c-0.8,4.9-0.8,6-0.8,10.9c0,4.9,0,6,0.8,10.9C16.9,33.4,18.1,34.7,19.8,35z"/>
	</g>
</g>
</svg>
