<?xml version="1.0" encoding="utf-8"?>
<!-- Generator: Adobe Illustrator 17.1.0, SVG Export Plug-In . SVG Version: 6.00 Build 0)  -->
<svg version="1.2" baseProfile="tiny" xmlns="http://www.w3.org/2000/svg" xmlns:xlink="http://www.w3.org/1999/xlink" x="0px"
	 y="0px" width="64px" height="64px" viewBox="0 0 64 64" xml:space="preserve">
<g id="_x36_4px_Box">
	<rect fill="none" width="64" height="64"/>
</g>
<g id="Label" display="none">
</g>
<g id="Production">
	<g>
		<circle cx="45" cy="41" r="2"/>
		<circle cx="53" cy="41" r="2"/>
		<path d="M37.4716,6.8223c0.301-0.0266,0.5468-0.1359,0.7383-0.3047c0.2982,1.1334,1.1563,1.9084,2.5225,2.2085
			c2.091,0.4593,3.6219-0.7388,4.0853-2.847c0.5269-2.4011-0.4544-3.9666-2.4901-4.4141c-2.1448-0.4708-3.635,0.7976-4.1108,2.9645
			c-0.097,0.4418-0.1246,0.847-0.1166,1.2316c-0.0883,0.0634-0.2316,0.0217-0.3322-0.2894
			c-0.1021-0.3156-0.2019-0.9063-0.0508-1.777c-0.1624-0.0497-0.3405-0.0693-0.5346-0.0522
			c-0.8679,0.0767-1.2748,0.8056-1.1885,1.7844C36.085,6.358,36.6259,6.8969,37.4716,6.8223z"/>
		<path d="M52.2301,44.7582c-2.7689,0.9518-6.3674,2.413-9.2219,3.6126c0.0738,0.4329,0.0837,0.8924,0.0119,1.3788
			c-0.4145,2.8079-2.82,4.5833-6.2403,4.7415c-7.7327,0.3578-12.5347-1.5576-13.5313-1.9617
			c-0.2862-0.1161-0.318-0.2576-0.2923-0.3882c0.0016-0.0013,0.0111-0.0092,0.0111-0.0092
			c5.5945,0.9645,9.1206,1.1223,13.4634,0.4237c3.295-0.53,4.489-2.106,4.4614-3.4058c-0.027-1.2701-0.9268-2.0373-2.952-2.1078
			c-6.8902-0.2394-10.9187-1.008-16.8242-1.8687c-4.1042-0.5981-8.0618,0.4671-11.4327,2.6265
			c-3.1634,2.0265-4.0402,2.9853-4.0402,2.9853l5.7856,11.1429l7.4819-3.0415c0.8526-0.3467,1.7844-0.4512,2.6926-0.3022
			l10.2607,2.283c2.2892,0.3758,4.6379-0.0562,6.6438-1.2219l20.4795-12.846C58.9872,46.7996,57.9828,42.7806,52.2301,44.7582z"/>
		<path d="M22.2022,7.8798c2.0046,0.1976,3.3047-1.068,3.5066-3.0556c0.23-2.2637-0.8591-3.5972-2.8114-3.7898
			c-2.0566-0.2027-3.3102,1.1233-3.5175,3.1661C19.161,6.3535,20.198,7.682,22.2022,7.8798z"/>
		<path d="M20.1183,31.9094c-0.4835,0.1112-1.308,0.2322-2.2857,0.1964c-0.096,0.4698-0.2017,0.8798-0.3308,1.3847
			c-0.5598,2.121-1.1753,4.17-1.4536,5.8283C15.7473,41.111,16.9174,42.7194,17.8748,43c1.203-3.802,1.9036-5.8339,2.5813-7.7978
			c0.2362,1.9669,0.4133,3.7083,0.5135,4.3724c0.3484,2.308,2.073,3.472,3.0304,3.399c0,0-0.1343-5.4563-0.2686-10.9126
			c-0.008-0.3943-0.016-0.7844-0.0241-1.1766c1.268-0.3176,2.2188-0.8082,2.2188-0.8082c-0.3396-4.4151-1.279-6.446-1.8678-8.3166
			c0.2305-2.2749,0.3908-4.7153,0.4115-6.6509c0.5503,1.1495,1.3155,2.5429,2.1606,3.504c1.074,1.2214,2.0659,2.3214,3.0297,3.3214
			c1.3641,1.4152,2.5223,1.1493,3.2099,0.739c-0.4937-0.8078-4.5692-6.1009-4.863-6.6084c-2.2108-3.7129-2.6616-6.2843-5.077-6.7739
			c-1.0494-0.2128-2.2406-0.2731-3.1262,0.4016c-1.1944,0.9101-1.721,2.5457-1.6153,4.7692
			c0.1407,2.9635,0.8066,3.7529-0.0844,5.8318c-0.5707,1.3316-0.8639,2.0224-1.2853,3.6105
			c-0.3984,1.5017-0.8136,2.5582-1.6577,5.7196c0.7379,0.5477,2.6643,1.5223,5.6243,1.5574
			C20.8791,31.3782,20.7596,31.762,20.1183,31.9094z"/>
		<path d="M34.4526,22.386c0.2681,0.4396,0.1264,1.0134-0.3156,1.2776l-0.4974,0.2973c-1.618,0.9633-3.4977,0.6232-5.0447-0.9728
			l-1.2167,10.4307c0.4637,0.1885,0.9814,0.2721,1.5326,0.3082c0,0,0.0498,4.6108,0.0756,5.6431
			c0.0662,2.6564,2.141,3.4257,2.7522,3.598c0.0258-0.3155,0.3917-6.6769,0.584-9.4382c0.8004-0.0898,1.6497-0.1791,2.5445-0.2272
			c0.36,1.6402,1.3115,5.9766,1.4862,6.8066c0.4292,2.0397,1.922,3.021,3.5887,2.8766c0,0-0.6348-6.3251-0.9554-9.4701
			c0.3641,0.0648,0.7324,0.1412,1.1064,0.2376c0,0-0.5719-6.3462-2.7518-10.9205c0.7116-1.6367,1.5023-3.4581,2.2231-5.1201
			c0.0449,0.2352,0.0842,0.4662,0.1398,0.709c0.3083,1.2153,0.5259,1.8469,1.646,3.3286c1.5731,2.0807,2.7573,3.5665,4.0431,2.1434
			h0.8098c0.4572,0,0.5783,0.154,0.6626,0.3622l1.2591,4.8393l-3.0726,7.6697c-0.2179,0.5438,0.1139,0.9708,0.6577,1.1887
			c0.5433,0.2178,1.0942,0.1432,1.3118-0.4001l2.003-4.9998l0.9544,3.632c0.007,0.0262,0.0148,0.0528,0.0238,0.0787
			C50.3718,37.335,51.3268,38,52.4949,38c0,0,0.916,0,1.4025,0c0.8508,0,1.4311-0.3734,1.6694-0.9612
			c0.1657-0.4088,0.1334-0.8742-0.431-0.9835c-0.2347-0.0455-0.4683-0.0472-0.8714-0.0527C54.2561,36.0023,54.2483,36,54.2399,36
			h-1.745c-0.3141,0-0.4225-0.2626-0.4758-0.3969L48.9034,23.664c-0.009-0.0345-0.02-0.0691-0.0325-0.1028
			c-0.4291-1.1533-1.3769-1.7885-2.6679-1.7885h-1.7652c-1.0058-1.7453-1.1828-2.077-1.4922-2.7399
			c-0.2084-0.4553-0.2303-0.4669-0.3882-1.2355c-0.2944-1.4662-0.4269-3.4703-0.6096-5.1016
			c-0.2319-2.0701-3.633-3.9531-5.9161-3.2302c-2.4235,0.7673-4.4763,4.557-5.7172,7.2253
			C30.6685,17.1651,34.4526,22.386,34.4526,22.386z"/>
	</g>
</g>
</svg>
