<?xml version="1.0" encoding="utf-8"?>
<!-- Generator: Adobe Illustrator 25.0.0, SVG Export Plug-In . SVG Version: 6.00 Build 0)  -->
<svg version="1.1" xmlns="http://www.w3.org/2000/svg" xmlns:xlink="http://www.w3.org/1999/xlink" x="0px" y="0px"
	 viewBox="0 0 64 64" style="enable-background:new 0 0 64 64;" xml:space="preserve">
<style type="text/css">
	.st0{fill:none;}
	.st1{fill:#FFFFFF;}
</style>
<g id="Box">
	<rect class="st0" width="64" height="64"/>
</g>
<g id="Icon">
	<g>
		<path d="M60.691,52.47c-0.751-0.791-2.248-1.653-3.894-2.448c-2.156-1.066-4.564-2.01-5.848-2.49
			c-0.491-0.184-0.802-0.635-0.889-1.152c-0.108-0.642-0.229-1.594-0.323-2.396c3.25-0.132,5.939-0.453,7.057-0.878
			c0.221-0.084,0.333-0.287,0.234-0.502c-0.612-1.334-2.201-5.723-2.401-8.016c-0.491-5.626-0.47-15.694-8.178-13.168
			c0,0-4.895-3.127-8.87,2.105c-2.797,3.681-2.115,8.534-2.228,11.241c-0.08,1.925-1.655,6.37-2.318,7.521
			c-0.141,0.245-0.093,0.493,0.173,0.59c1.2,0.435,3.901,0.773,7.077,0.974c-0.063,0.573-0.145,1.242-0.238,1.843h-0.003
			c-0.013,0.091-0.025,0.166-0.038,0.253c-0.025,0.149-0.05,0.3-0.076,0.434c-0.101,0.515-0.398,0.968-0.889,1.152
			c-0.539,0.202-1.283,0.489-2.117,0.829c0.002,0.001,0.003,0.001,0.005,0.002c-1.15,0.469-2.477,1.042-3.725,1.659
			c-1.646,0.794-3.142,1.656-3.894,2.448C27.107,54.788,27,62,27,62c3.584,0,31.935,0,36,0C63,62,62.893,54.788,60.691,52.47z"/>
		<path d="M33.862,22.721c0.081-0.13,0.108-0.277,0.083-0.417l-0.03-0.105l-0.005,0.003l-1.845-6.511c0,0,0.115-0.105,0.227,0.057
			l2.123,2.943c0.428-0.048,0.838-0.103,1.213-0.167c0.992-0.17,1.746-0.943,1.911-1.96c0.478-2.94,0.478-5.577,0.478-6.556
			s0-3.616-0.478-6.557c-0.165-1.017-0.919-1.791-1.911-1.96C32.761,1,27.983,1,27.028,1c-0.955,0-5.733,0-8.6,0.49
			c-0.991,0.169-1.746,0.943-1.911,1.96c-0.478,2.941-0.478,3.615-0.478,6.557c0,0.98,0,3.616,0.478,6.556
			c0.165,1.017,0.919,1.791,1.911,1.96c2.607,0.445,6.784,0.486,8.24,0.489l6.372,3.893C33.319,23.084,33.687,23.001,33.862,22.721z
			"/>
		<path d="M22.636,32.225c-0.099-0.437,0.064-1.245,0-1.614c-0.323-1.866-1.267-3.93-1.267-3.93
			c1.021-1.948,0.523-3.479-1.015-4.468c-1.751-1.126-8.121-1.241-12.769,1.286c-4.903,2.666-4.372,7.434-3.547,9.929
			c0.96,2.903,3.83,7.018,4.029,10.121c0.052,0.803-0.277,2.555-0.554,3.858c-0.605,0.272-1.202,0.596-1.78,0.994
			C2.523,50.609,2,53.885,2,58h22c-0.717-3.77-1.998-5.926-3.442-7.676c-0.72-0.873-1.617-1.624-2.623-2.234l-0.045-1.991
			l-2.638-1.328c-0.204-0.111-0.145-0.246-0.123-0.282c0,0,4.005,0.902,5.555,1.106c1.555,0.204,3.046-1.119,3.046-3.007
			c0-2.072,0-4.676,0-4.676l1.615-0.856c0.462-0.299,0.593-0.916,0.292-1.376L22.636,32.225z M20.112,31.597
			c-0.552,1.072-2.196,1.453-5.6,1.88c-2.935,0.368-3.456,1.477-3.697,3.902h-1.56c-0.049-0.757,0.038-1.616,0.038-1.616
			c-1.372,0.064-1.873-0.625-2.214-1.63c-0.077-0.226-0.241-0.408-0.456-0.512c-0.384-0.186-0.98-0.58-1.204-1.302
			c-0.341-1.101-0.139-1.614,0.372-2.459c0.16-0.264,0.079-1.135,0.161-1.604c0.121-0.689,0.549-1.114,1.139-1.411
			c0.624-0.315,1.12-0.259,1.579-0.489c0.458-0.23,0.66-1.185,1.458-1.479c1.068-0.394,1.837-0.099,2.526-0.109
			c0.698-0.011,1.504-0.757,2.431-0.713c0.835,0.04,1.375,0.826,1.807,1.088c0.432,0.263,1.227,0.162,1.769,0.504
			c1.61,1.015,0.679,2.35,1.015,3.02C19.995,29.306,20.76,30.338,20.112,31.597z"/>
	</g>
</g>
</svg>
