<?xml version="1.0" encoding="utf-8"?>
<!-- Generator: Adobe Illustrator 25.0.0, SVG Export Plug-In . SVG Version: 6.00 Build 0)  -->
<svg version="1.1" xmlns="http://www.w3.org/2000/svg" xmlns:xlink="http://www.w3.org/1999/xlink" x="0px" y="0px"
	 viewBox="0 0 64 64" style="enable-background:new 0 0 64 64;" xml:space="preserve">
<style type="text/css">
	.st0{fill:none;}
	.st1{fill:#FFFFFF;}
</style>
<g id="Box">
	<rect class="st0" width="64" height="64"/>
</g>
<g id="Icon">
	<path class="st1" d="M32.039,44c3.362,0,4.936-0.947,7.431-2.879c0.889-0.688,1.902-1.507,3.162-2.46
		c0.035-0.027,0.051-0.074,0.035-0.116l-0.522-1.395c0,0,0.28-1.181,0.45-1.792c0.266-0.954,0.636-3.462,0.636-3.462
		c-5.532,0-7.203-0.584-7.997-1.266c-1.028-0.884-1.658-1.919-3.195-1.919c-1.537,0-2.166,1.035-3.195,1.919
		c-0.794,0.682-2.465,1.266-7.997,1.266c0,0,0.37,2.508,0.636,3.462c0.17,0.611,0.45,1.792,0.45,1.792l-0.522,1.395
		c-0.015,0.041,0,0.089,0.035,0.116c1.41,1.068,2.512,1.966,3.477,2.703C27.239,43.132,28.818,44,32.039,44z"/>
	<path d="M39.885,43.05c-0.024-0.18-0.054-0.388-0.087-0.61c1.386-1.052,2.004-1.583,3.583-2.779
		c0.478-0.358,0.665-0.999,0.456-1.554l-0.388-1.037c0.419-1.729,0.456-1.561,0.807-3.658c0.822-0.871,1.407-2.034,1.615-3.378
		c0.289-1.865-0.203-3.625-1.215-4.887c0.263-10.676-3.408-14.137-3.408-14.137c0.779-1.57,2.468-2.694,2.468-2.694
		c-5.26-0.956-7.988,1.396-7.988,1.396c-4.805-3.55-11.495-2.321-11.495-2.321c1.299,1.297,1.883,2.662,1.883,2.662
		c-8.702,3.823-8.248,9.831-8.248,9.831s1.299-1.024,2.013-1.229c0,0-0.659,2.978-0.536,6.4c-1.064,1.268-1.589,3.068-1.294,4.979
		c0.223,1.443,0.882,2.681,1.802,3.57c0.325,1.906,0.356,1.74,0.775,3.466l-0.387,1.034c-0.21,0.558-0.023,1.198,0.45,1.553
		c1.562,1.182,2.297,1.8,3.444,2.677c-0.042,0.282-0.079,0.54-0.108,0.759C16.02,45.498,12.116,51.655,12.116,59h39.846
		C51.961,51.606,48.002,45.419,39.885,43.05z M22.726,26.302c0.451-0.086,0.897,0.017,1.292,0.263c0-0.78,0.044-1.579,0.132-2.375
		c3.112-0.636,5.215-1.916,5.215-1.916c-0.195,1.707-1.234,3.677-1.234,3.677c4.611-0.546,7.533-5.383,7.533-5.383
		c0.584,2.389,2.078,3.959,2.078,3.959c0.588-1.171,1.202-1.884,1.687-2.318c0.338,1.43,0.478,2.937,0.478,4.356
		c0.395-0.247,0.842-0.349,1.292-0.263c1.194,0.228,1.953,1.694,1.709,3.275c-0.059,0.38-0.194,0.734-0.362,1.063
		c-3.599-0.036-5.796-0.356-6.497-0.957c-0.959-0.825-1.91-2.221-4.009-2.221c-2.09,0-3.034,1.382-4.009,2.221
		c-0.71,0.61-2.958,0.93-6.65,0.959c-0.167-0.329-0.303-0.683-0.362-1.065C20.772,27.996,21.532,26.53,22.726,26.302z
		 M31.958,49.129c-2.951,0-5.094-1.799-5.094-4.277c0-0.108,0.025-0.359,0.064-0.691c1.451,0.731,2.968,1.088,5.109,1.088
		c2.106,0,3.622-0.382,4.969-1.03c0.033,0.311,0.045,0.51,0.045,0.632C37.052,47.331,34.91,49.129,31.958,49.129z M38.704,40.133
		c-2.351,1.819-3.692,2.617-6.666,2.617c-2.92,0-4.238-0.762-6.357-2.38c-0.775-0.591-1.736-1.366-2.8-2.186l0.356-0.952
		l-0.001-0.004l4.923,1.307c0.039-0.045,0.155-0.222-0.106-0.429c-0.201-0.159-3.766-2.252-5.396-3.206
		c-0.106-0.421-0.235-1.109-0.347-1.77c4.671-0.1,6.351-0.696,7.349-1.553c1.144-0.983,1.435-1.617,2.38-1.617
		c0.951,0,1.307,0.695,2.38,1.617c0.999,0.857,2.678,1.454,7.349,1.553c-0.112,0.66-0.241,1.349-0.347,1.77
		c-1.629,0.954-5.195,3.047-5.396,3.206c-0.261,0.207-0.146,0.383-0.106,0.429l4.923-1.308l-0.001,0.003l0.356,0.952
		C40.273,38.895,39.366,39.621,38.704,40.133z"/>
</g>
</svg>
