<?xml version="1.0" encoding="utf-8"?>
<!-- Generator: Adobe Illustrator 19.1.0, SVG Export Plug-In . SVG Version: 6.00 Build 0)  -->
<svg version="1.2" baseProfile="tiny" xmlns="http://www.w3.org/2000/svg" xmlns:xlink="http://www.w3.org/1999/xlink" x="0px"
	 y="0px" width="64px" height="64px" viewBox="0 0 64 64" xml:space="preserve">
<g id="Box">
	<rect fill="none" width="64" height="64"/>
</g>
<g id="Icon">
	<g>
		<path d="M30.1882,38.3412c-2.573,1.0006-3.8477,3.8976-2.8469,6.4705c1.0005,2.573,3.8975,3.8477,6.4705,2.847
			s3.8477-3.8975,2.847-6.4705C35.6582,38.6153,32.7612,37.3406,30.1882,38.3412z M34.0499,42.2028
			c0.4402,1.1322-0.1206,2.4068-1.2527,2.847c-1.1322,0.4403-2.4069-0.1206-2.847-1.2527c-0.4403-1.1321,0.1206-2.4067,1.2527-2.847
			C32.335,40.5099,33.6096,41.0707,34.0499,42.2028z"/>
		<polygon points="27.5366,26.1662 25.1589,13.9347 14.4746,18.0897 21.4176,28.5458 		"/>
		<path d="M3.5609,20.6287l0.202-0.085l3.3756-1.3911l4.4116,6.5287l-0.0057-0.0002l-0.6355,16.2104
			c0.3567-0.0546,0.7192-0.0917,1.0911-0.0917c0.9019,0,1.7622,0.174,2.5586,0.4782l0.3279-8.3649l-1.8831-5.597
			c-0.0483-0.2302,0.0908-0.2759,0.1355-0.2838l5.7063,8.4447c0.9717,1.4448,2.5542,2.2524,4.2036,2.2524
			c0.6196,0,1.249-0.1143,1.8589-0.3511l6.2793-2.4419c0.9424-0.3667,1.4092-1.4277,1.043-2.3701
			c-0.3662-0.9419-1.4277-1.4077-2.3701-1.043l-6.2793,2.4419c-0.623,0.2427-1.3237,0.0249-1.6992-0.5352L9.3688,15.7892
			c-0.5555-0.8181-1.6642-1.0674-2.517-0.5464L2.2441,18.058c-0.6018,0.3669-0.8616,1.1284-0.5798,1.7975
			C1.9746,20.5928,2.8237,20.939,3.5609,20.6287z"/>
		<polygon points="52,33 52,40 43,40 43,47 2,59 61,59 61,33 		"/>
		<path d="M7,49c0,2.7614,2.2385,5,5,5s5-2.2386,5-5s-2.2385-5-5-5S7,46.2386,7,49z M14.2,49c0,1.215-0.9849,2.2-2.2,2.2
			c-1.215,0-2.2-0.985-2.2-2.2c0-1.2151,0.985-2.2,2.2-2.2C13.2151,46.8,14.2,47.7849,14.2,49z"/>
	</g>
</g>
</svg>
