<?xml version="1.0" encoding="utf-8"?>
<!-- Generator: Adobe Illustrator 20.0.0, SVG Export Plug-In . SVG Version: 6.00 Build 0)  -->
<svg version="1.1" xmlns="http://www.w3.org/2000/svg" xmlns:xlink="http://www.w3.org/1999/xlink" x="0px" y="0px"
	 viewBox="0 0 64 64" style="enable-background:new 0 0 64 64;" xml:space="preserve">
<style type="text/css">
	.st0{fill:none;}
	.st1{fill:#1D1D1B;}
</style>
<g id="_x36_4px_Box">
	<rect class="st0" width="64" height="64"/>
</g>
<g id="Icon">
	<g>
		<g>
			<defs>
				<rect id="SVGID_1_" x="3.5" y="7.1" width="57" height="50.5"/>
			</defs>
			<clipPath id="SVGID_2_">
				<use xlink:href="#SVGID_1_"  style="overflow:visible;"/>
			</clipPath>
		</g>
	</g>
	<path class="st1" d="M47.5,46.9L19.1,15.8c3.7-3.1,8.4-4.9,13.5-4.9c11.6,0,21.1,9.5,21.1,21.1C53.7,37.8,51.3,43.1,47.5,46.9
		 M11.5,32c0-4.5,1.4-8.7,3.9-12.2l27.8,30.4c-3.1,1.8-6.7,2.8-10.6,2.8C21,53.1,11.5,43.6,11.5,32 M51.5,13.1
		C46.5,8,39.7,5.3,32.6,5.3c-7.1,0-13.9,2.8-18.9,7.8S5.9,24.9,5.9,32c0,7.1,2.8,13.9,7.8,18.9s11.8,7.8,18.9,7.8
		c7.1,0,13.9-2.8,18.9-7.8s7.8-11.8,7.8-18.9C59.3,24.9,56.6,18.1,51.5,13.1"/>
	<path class="st1" d="M22.2,30.1l-8.9,0c0,0-0.2,1.3-0.1,2.8c0.2,3.4,1.1,4.5,1.1,4.5l14.3,0L22.2,30.1z"/>
	<path class="st1" d="M44.7,20.8c-0.7-1-2.2-1-2.1-0.7c3.2,2.1-1.2,4.7,0.8,6.2c0.1,0.1,0.2,0,0.2,0c-0.2-1.4,0.5-2.1,1.1-3.2
		C44.9,22.5,45.2,21.7,44.7,20.8"/>
	<path class="st1" d="M47.7,19.8c-1.1-1.7-3.5-1.7-3.4-1.3c5.1,3.4-1.8,7.4,1.5,10.1c0.2,0.1,0.3,0.1,0.3,0.1
		c-0.4-2.2,0.8-3.3,1.6-5.1C48.1,22.5,48.6,21.2,47.7,19.8"/>
	<path class="st1" d="M48.2,33.7c0-2.1-0.7-3.9-1.6-3.9c-0.9,0-1.6,1.9-1.6,4c0,0.3,0,0.6,0,0.9c0,0,0,0.1-0.2-0.1
		c-0.4-0.4-0.7-1.5-0.7-2.5c0-1.4,0.2-2,0.2-2l0,0h0l-9.5,0l7.2,7.4l2.7,0c0.2,0,1.7,0,1.9,0c0,0,0,0,0,0h0
		C47.5,37.5,48.2,35.8,48.2,33.7"/>
</g>
</svg>
