<?xml version="1.0" encoding="utf-8"?>
<!-- Generator: Adobe Illustrator 18.1.0, SVG Export Plug-In . SVG Version: 6.00 Build 0)  -->
<svg version="1.2" baseProfile="tiny" xmlns="http://www.w3.org/2000/svg" xmlns:xlink="http://www.w3.org/1999/xlink" x="0px"
	 y="0px" width="64px" height="64px" viewBox="0 0 64 64" xml:space="preserve">
<g id="_x36_4px_Boxes">
	<rect fill="none" width="64" height="64"/>
</g>
<g id="Production">
	<g>
		<path d="M39.0994,15.1915c0.3831-0.0339,0.6959-0.173,0.9397-0.3878c0.3794,1.4426,1.4716,2.4289,3.2102,2.8108
			c2.6614,0.5846,4.6099-0.9403,5.1996-3.6235c0.6705-3.0558-0.5782-5.0483-3.1693-5.6179
			c-2.7297-0.5993-4.6263,1.0151-5.2319,3.7731c-0.1234,0.5623-0.1584,1.078-0.1482,1.5675
			c-0.1125,0.0806-0.2948,0.0275-0.4229-0.3683c-0.13-0.4018-0.2571-1.1536-0.0647-2.2617
			c-0.2068-0.0633-0.4336-0.0883-0.6805-0.0665c-1.1046,0.0975-1.6224,1.0252-1.5126,2.2709
			C37.3347,14.6005,38.0229,15.2864,39.0994,15.1915z"/>
		<circle cx="48.5" cy="58.5" r="2.5"/>
		<circle cx="58.5" cy="58.5" r="2.5"/>
		<path d="M61.3403,52.1725c-0.2987-0.0579-0.5962-0.0601-1.109-0.0671c-0.0106-0.0002-0.0206-0.0031-0.0314-0.0031h-2.2208
			c-0.3999,0-0.538-0.1797-0.6056-0.3507l-3.9655-15.3414c-0.0114-0.0439-0.0255-0.0879-0.0414-0.131
			c-0.5461-1.4677-1.7524-2.2763-3.3955-2.2763h-2.2466c-1.2802-2.2213-1.5054-2.6435-1.8992-3.4871
			c-0.2653-0.5795-0.2932-0.5942-0.4941-1.5725c-0.3748-1.8661-0.5432-4.5513-0.7759-6.6274
			c-0.295-2.6346-4.6238-5.0312-7.5295-4.1111c-2.6099,0.8264-4.8801,4.4626-6.4749,7.6429
			c1.6804,2.3836,2.8118,3.9987,3.1648,4.5763c0.292,0.4785,0.3809,1.0542,0.2471,1.5986
			c-0.1348,0.5444-0.4814,1.0122-0.9629,1.2998c-0.8496,0.5063-1.7559,0.7637-2.6924,0.7637c-0.8599,0-1.6951-0.2208-2.5007-0.6444
			l-1.7947,15.3839c0.5925,0.2409,1.2466,0.3588,1.9514,0.4045c0.0156,1.5025,0.0566,5.6157,0.0953,7.17
			c0.0842,3.3809,2.725,4.36,3.5028,4.5794c0.033-0.4016,0.4985-8.4979,0.7434-12.0123c1.0186-0.1143,2.0996-0.228,3.2383-0.2892
			c0.4585,2.0876,1.6694,7.5866,1.8916,8.643c0.5464,2.596,2.4463,3.845,4.5676,3.6613c0,0-0.8079-8.0302-1.2161-12.033
			c0.4635,0.0824,0.9321,0.1797,1.4082,0.3024c0,0-0.7279-8.077-3.5024-13.8989c0.9058-2.0831,1.9121-4.4012,2.8296-6.5165
			c0.0571,0.2993,0.1072,0.5934,0.178,0.9025c0.3923,1.5467,0.6692,2.3506,2.0948,4.2363c2.0021,2.6483,3.5094,4.5391,5.1459,2.728
			h1.0305c0.5818,0,0.7361,0.196,0.8433,0.4609l1.6025,6.1591l-3.9106,10.0193c-0.2773,0.6921,0.145,1.2357,0.8372,1.5129
			c0.6914,0.2773,1.3926,0.1823,1.6694-0.5093l2.5493-6.6212l1.2146,4.7687c0.0088,0.0334,0.019,0.0673,0.0304,0.1002
			c0.4698,1.3622,1.6852,2.2086,3.1719,2.2086c0,0,1.1656,0,1.785,0c1.0828,0,1.8213-0.4753,2.1246-1.2234
			C62.0997,53.0585,62.0586,52.3117,61.3403,52.1725z"/>
		<path d="M23.7095,26.1575c1.5344,1.7451,2.2515,2.8765,3.6285,4.3052c1.9489,2.022,3.6036,1.642,4.5861,1.0559
			c-0.7054-1.1541-5.8281-8.2764-6.2478-9.0015c-3.1587-5.3047-3.8027-9.3085-7.2537-10.008
			c-1.4993-0.304-3.2012-0.3901-4.4663,0.5738c-1.7065,1.3002-2.0588,3.6371-1.908,6.8138c0.2012,4.234,0.7524,5.6917-0.5205,8.6619
			c-0.8154,1.9025-1.2344,2.8893-1.8364,5.1583c-0.5691,2.1455-1.1624,3.655-2.3684,8.1716
			c1.0544,0.7825,3.8066,2.175,8.0356,2.2251c0.1338,0.282-0.0369,0.8304-0.9531,1.041c-0.6909,0.1588-1.8688,0.3317-3.2656,0.2805
			c-0.1371,0.6712-0.2881,1.257-0.4727,1.9785c-0.7998,3.0302-1.6791,5.9576-2.0768,8.3269
			C8.1605,58.3012,9.8323,60.5991,11.2002,61c1.7188-5.4319,2.7197-8.335,3.6879-11.1408c0.3375,2.8102,0.5905,5.2981,0.7338,6.2469
			c0.4977,3.2974,2.9617,4.9606,4.3296,4.8561c0,0-0.1919-7.7955-0.3838-15.5909c-0.0115-0.5632-0.0229-1.1207-0.0344-1.681
			c1.8115-0.4538,3.17-1.1547,3.17-1.1547c-0.4852-6.3079-1.8274-9.2096-2.6686-11.882c0.3292-3.2501,0.5583-6.7368,0.5879-9.5022
			C21.4088,22.7936,22.502,24.7843,23.7095,26.1575z"/>
		<path d="M17.446,10.7713c2.7441,0.0193,4.3462-1.8908,4.3657-4.6577c0.0225-3.1525-1.6254-4.8545-4.2981-4.874
			c-2.8154-0.0201-4.3464,1.968-4.3667,4.8119C13.125,9.049,14.7023,10.751,17.446,10.7713z"/>
	</g>
</g>
</svg>
