<?xml version="1.0" encoding="utf-8"?>

<!DOCTYPE svg PUBLIC "-//W3C//DTD SVG 1.1//EN" "http://www.w3.org/Graphics/SVG/1.1/DTD/svg11.dtd">
<svg version="1.1" xmlns="http://www.w3.org/2000/svg" xmlns:xlink="http://www.w3.org/1999/xlink" x="0px" y="0px" width="24px"
	 height="24px" viewBox="0 0 24 24" style="enable-background:new 0 0 24 24;" xml:space="preserve">
<style type="text/css">
	.st0{fill:none;}
	.st1{fill:#39870C;}
	.st2{fill:#D52B1E;}
	.st3{display:none;}
	.st4{display:none;fill:#FFFFFF;}
</style>
<g id="box">
	<g>
		<rect class="st0" width="24" height="24"/>
	</g>
</g>
<g id="icon">
	<g>
		<path d="M20.5,12c0,1.3-0.5,2.5-1.2,3.5l1.4,1.4c1.1-1.3,1.8-3,1.8-4.9c0-4.1-3.4-7.5-7.5-7.5v2C18,6.5,20.5,9,20.5,12z"/>
		<path d="M17,12c0,0.4-0.1,0.7-0.3,1l1.4,1.4c0.5-0.7,0.8-1.5,0.8-2.4c0-2.2-1.8-4-4-4v2C16.1,10,17,10.9,17,12z"/>
		<path d="M13,4.7c0-0.6-0.6-0.9-1.1-0.6c-0.2,0.1-1.2,0.9-2.2,1.7L13,9.2V4.7z"/>
		<path d="M3.7,2.3c-0.4-0.4-1-0.4-1.4,0c-0.4,0.4-0.4,1,0,1.4L6.6,8C6,8,5,8,5,8c-2.2,0-3,2.1-3,4c0,1.9,0.8,4,3,4c0,0,2,0,2,0
			c0,0,4.4,3.5,4.9,3.8s1.1,0,1.1-0.6v-4.9l3,3c-0.3,0.1-0.7,0.1-1,0.1v2c0.9,0,1.8-0.2,2.6-0.5l2.7,2.7c0.2,0.2,0.5,0.3,0.7,0.3
			c0.3,0,0.5-0.1,0.7-0.3c0.4-0.4,0.4-1,0-1.4L3.7,2.3z"/>
	</g>
</g>
</svg>
