<?xml version="1.0" encoding="utf-8"?>

<!DOCTYPE svg PUBLIC "-//W3C//DTD SVG 1.1//EN" "http://www.w3.org/Graphics/SVG/1.1/DTD/svg11.dtd">
<svg version="1.1" xmlns="http://www.w3.org/2000/svg" xmlns:xlink="http://www.w3.org/1999/xlink" x="0px" y="0px" width="24px"
	 height="24px" viewBox="0 0 24 24" style="enable-background:new 0 0 24 24;" xml:space="preserve">
<style type="text/css">
	.st0{fill:none;}
	.st1{fill:#39870C;}
	.st2{fill:#D52B1E;}
	.st3{display:none;}
	.st4{display:none;fill:#FFFFFF;}
</style>
<g id="box">
	<g>
		<rect class="st0" width="24" height="24"/>
	</g>
</g>
<g id="icon">
	<g>
		<path d="M20.5,4H18V2c0-0.8-0.7-1-1.5-1S15,1.2,15,2v2H8V2c0-0.8-0.7-1-1.5-1S5,1.2,5,2v2H2.5C1.7,4,1,4.7,1,5.5v16
			C1,22.3,1.7,23,2.5,23h18c0.8,0,1.5-0.7,1.5-1.5v-16C22,4.7,21.3,4,20.5,4z M3,21V9H20v12H3z"/>
		<rect x="5" y="11" width="3" height="3"/>
		<rect x="10" y="11" width="3" height="3"/>
		<rect x="15" y="11" width="3" height="3"/>
		<rect x="5" y="16" width="3" height="3"/>
		<rect x="10" y="16" width="3" height="3"/>
		<rect x="15" y="16" width="3" height="3"/>
	</g>
</g>
</svg>
