<svg xmlns="http://www.w3.org/2000/svg" viewBox="0 0 64 64"><defs><style>.cls-1{fill:none;}.cls-2{fill:#fff;}</style></defs><g id="BOX"><rect class="cls-1" width="64" height="64"/></g><g id="ICOON"><path class="cls-2" d="M35,10.94a3.88,3.88,0,0,0-6.08,0L14,29.87a3.92,3.92,0,0,0-.83,2.4,3.85,3.85,0,0,0,.94,2.53,3.9,3.9,0,0,0,4.86.84l5.9-3.37h0l.31-.18,1.33-.75V50.52a3.51,3.51,0,0,0,1.74,3.2,7.37,7.37,0,0,0,3.73.81h0a7.32,7.32,0,0,0,3.73-.81,3.49,3.49,0,0,0,1.75-3.2V31.33L45,35.64a3.88,3.88,0,0,0,5-5.77Z"/></g></svg>