<?xml version="1.0" encoding="utf-8"?>
<!-- Generator: Adobe Illustrator 23.0.3, SVG Export Plug-In . SVG Version: 6.00 Build 0)  -->
<svg version="1.1" xmlns="http://www.w3.org/2000/svg" xmlns:xlink="http://www.w3.org/1999/xlink" x="0px" y="0px" width="24px"
	 height="24px" viewBox="0 0 24 24" style="enable-background:new 0 0 24 24;" xml:space="preserve">
<style type="text/css">
	.st0{fill:none;}
	.st1{fill:#007BC7;}
	.st2{fill:#FFFFFF;}
</style>
<g id="box">
	<g>
		<rect class="st0" width="24" height="24"/>
	</g>
</g>
<g id="icon">
	<g>
		<path class="st1" d="M22.04,3.78c-0.16-0.95-0.88-1.67-1.83-1.83C17.48,1.5,12.91,1.5,12,1.5c-0.91,0-5.48,0-8.22,0.46
			C2.84,2.11,2.11,2.84,1.96,3.78C1.5,6.52,1.5,11.09,1.5,12s0,5.48,0.46,8.22c0.16,0.95,0.88,1.67,1.83,1.83
			c2.74,0.46,7.3,0.46,8.22,0.46c0.91,0,5.48,0,8.22-0.46c0.95-0.16,1.67-0.88,1.83-1.83c0.46-2.74,0.46-7.3,0.46-8.22
			C22.5,9.26,22.5,6.52,22.04,3.78z"/>
		<g>
			<path class="st2" d="M10.71,6.93c0-0.34,0.11-0.63,0.33-0.88c0.22-0.25,0.54-0.38,0.95-0.38c0.41,0,0.72,0.12,0.94,0.36
				c0.22,0.24,0.33,0.54,0.33,0.9c0,0.32-0.11,0.61-0.33,0.86s-0.54,0.37-0.94,0.37c-0.41,0-0.72-0.12-0.95-0.35
				C10.82,7.57,10.71,7.28,10.71,6.93z M13.11,9.32v8.96h-2.21V9.41L13.11,9.32z"/>
		</g>
	</g>
</g>
</svg>
