<svg enable-background="new 0 0 64 64" viewBox="0 0 64 64" xmlns="http://www.w3.org/2000/svg"><path d="m0 0h64v64h-64z" fill="none"/><path d="m36 23.485v-16.985c0-.276-.224-.5-.5-.5h-27c-.276 0-.5.224-.5.5v40.5h12v-6h4v6h6v-10h-3v-4h3v-2.08c0-.318.059-.623.143-.92h-3.143v-4h4v2.526zm-19 13.515h-4v-4h4zm0-7h-4v-4h4zm0-7h-4v-4h4zm0-7h-4v-4h4zm7 21h-4v-4h4zm0-7h-4v-4h4zm0-7h-4v-4h4zm0-7h-4v-4h4zm3-4h4v4h-4zm0 11v-4h4v4z"/><path d="m58.634 19h-14.8c-.362 0-.71.144-.966.4l-10.468 10.554c-.256.256-.4.604-.4.966v21.714c0 .751.615 1.366 1.366 1.366h25.269c.753 0 1.365-.612 1.365-1.366v-32.268c0-.754-.612-1.366-1.366-1.366zm-2.634 31h-20v-18l-2.736-.717c-.233-.075-.149-.283-.149-.283h10.154c.377 0 .683-.306.683-.683v-10.201s.171-.075.246.158l.802 2.726h11z"/><path d="m42.582 36.814h-1.393v1.449h1.168c-.038.32-.038.678-.038 1.017v.395h-1.13v1.431h1.281c.546 2.787 2.391 4.067 5.008 4.067.998 0 1.487-.056 2.523-.301v-1.864c-.979.207-1.488.282-2.373.282-1.242 0-2.259-.64-2.692-2.184h3.445v-1.431h-3.671c-.019-.188-.019-.395-.019-.621 0-.263 0-.527.019-.791h3.671v-1.449h-3.427c.414-1.525 1.355-2.297 2.787-2.297.753 0 1.242.075 2.165.245v-1.977c-.791-.17-1.374-.226-2.108-.226-2.618.001-4.538 1.431-5.216 4.255z"/></svg>