<svg enable-background="new 0 0 64 64" viewBox="0 0 64 64" xmlns="http://www.w3.org/2000/svg"><path d="m0 0h64v64h-64z" fill="none"/><path d="m31.709 33.872c.665.222 1.393.155 2.004-.186l17.137-9.521 11.042 2.761 1.213-4.851-12-3c-.616-.154-1.266-.069-1.82.24l-17.039 9.466-16.957-5.652c-.963-.321-2.027-.027-2.688.745l-12 14 3.796 3.254 10.906-12.724z"/><path d="m8 40.305v16.695h12v-24.712l-3.988-1.33z"/><path d="m15.986 21.041 4.014 1.338v-10.379h-12v13.862l2.932-3.42c1.243-1.452 3.244-2.005 5.054-1.401z"/><path d="m38 33.821-3.217 1.787c-1.152.641-2.52.767-3.769.351l-5.014-1.671v22.712h9.148c-.113-2.078-.148-4.228-.148-6 0-3.208.105-7.662.606-10.666.26-1.564 1.149-2.903 2.394-3.77z"/><path d="m38 23.068v-20.068h-12v21.379l6.025 2.008z"/><path d="m51.64 16.94 4.36 1.09v-8.03h-12v9.734l4.217-2.343c1.043-.579 2.266-.741 3.423-.451z"/><path d="m44 35.208c2.373-.163 4.942-.208 7-.208 1.488 0 3.245.025 5 .099v-7.379l-4.84-1.21-7.16 3.978z"/><path d="m55.794 51.93c-.847 0-1.025.976-1.025 1.795 0 1.633.508 1.853 1.005 1.853.706 0 1.063-.552 1.063-1.641.001-1.799-.595-2.007-1.043-2.007z"/><path d="m46.225 46.307c-.863 0-1.044.976-1.044 1.795 0 1.632.518 1.853 1.024 1.853.863 0 1.044-.892 1.044-1.641.001-1.799-.584-2.007-1.024-2.007z"/><path d="m63.435 40.826c-.195-1.173-1.087-2.065-2.261-2.261-3.391-.565-9.044-.565-10.174-.565s-6.783 0-10.174.565c-1.173.196-2.065 1.088-2.26 2.261-.566 3.391-.566 9.044-.566 10.174s0 6.783.565 10.174c.195 1.173 1.087 2.065 2.26 2.261 3.392.565 9.045.565 10.175.565s6.783 0 10.174-.565c1.174-.196 2.066-1.088 2.261-2.261.565-3.391.565-9.044.565-10.174 0-3.393 0-6.783-.565-10.174zm-20.576 7.449c0-2.896 1.844-3.924 3.423-3.924 2.09 0 3.289 1.374 3.289 3.77 0 2.617-1.785 3.809-3.443 3.809-1.491 0-3.269-.634-3.269-3.655zm6.434 9.727-1.839-.727 5.232-13.277 1.839.727zm6.405-.449c-1.491 0-3.269-.634-3.269-3.655 0-2.896 1.844-3.924 3.423-3.924 2.09 0 3.289 1.374 3.289 3.77 0 2.631-1.729 3.809-3.443 3.809z"/></svg>