<svg height="64" viewBox="0 0 64 64" width="64" xmlns="http://www.w3.org/2000/svg"><path d="m0 0h64v64h-64z" fill="none"/><path d="m57.7731 12.0427c-.4052-2.4962-2.2565-4.3954-4.6911-4.8115-7.036-1.2032-18.7638-1.2032-21.1094-1.2032-2.3447 0-14.0725 0-21.1092 1.2032-2.434.416-4.2853 2.3152-4.6904 4.8115-1.173 7.2177-1.173 8.8726-1.173 16.0937 0 2.4052 0 8.876 1.173 16.0933.4052 2.4961 2.2565 4.3952 4.6904 4.812 6.3978 1.0933 16.6503 1.1923 20.2259 1.2013l15.639 9.5558c.6855.4357 1.5881.2323 2.0198-.4547.1995-.3191.2646-.6788.2049-1.0236l-.0724-.2571-.0134.0064-4.5282-15.9805s.2634-.291.5367.107l4.6556 7.3193c1.1935-.1284 2.5151-.2971 3.5508-.474 2.4346-.4167 4.2859-2.3159 4.6911-4.812 1.1727-7.2172 1.1727-13.688 1.1727-16.0933-.0001-2.405-.0001-8.8759-1.1728-16.0936zm-25.1597 29.2524c-.3811.1995-.8457.1995-1.2268 0-14.5081-7.5994-14.9208-21.2491-8.7308-24.0001 6.2759-2.7894 9.3442 3.2077 9.3442 3.2077s3.0683-5.9971 9.3442-3.2077c6.19 2.751 5.7773 16.4007-8.7308 24.0001z"/></svg>