<?xml version="1.0" encoding="utf-8"?>
<!-- Generator: Adobe Illustrator 19.2.0, SVG Export Plug-In . SVG Version: 6.00 Build 0)  -->
<svg version="1.0" xmlns="http://www.w3.org/2000/svg" xmlns:xlink="http://www.w3.org/1999/xlink" x="0px" y="0px"
	 viewBox="0 0 64 64" enable-background="new 0 0 64 64" xml:space="preserve">
<g id="achtergrond">
</g>
<g id="paneel_1">
	<path d="M40.2098,35.369c4.5621-0.0149,8.1382-1.4465,10.8214-4.2617c5.623-5.8975,5.2012-14.3025,5.2012-15.6841
		c0-1.3817-0.6536-1.4282-1.5496-1.4282h-9.687V12H24.4531c0,1.8126,0,5.8162,0,11.3544c0,7.6875,1.9688,9.5625,1.9688,9.5625
		s-0.2839,0.2393-0.6603-0.0544c-1.1117-0.8674-3.4773-3.6716-3.4773-9.5081c0-5.6062,0-9.5608,0-11.3544h-3.0406v1.995H9.5568
		c-0.8961,0-1.5496,0.0465-1.5496,1.4282c0,1.3816-0.4219,9.7866,5.2012,15.6841c2.6832,2.8152,6.2592,4.2468,10.8214,4.2617
		c1.718,1.7076,3.5903,2.6453,5.0818,2.6453c0,0,1.0298,4.7812-2.5746,6.326s-7.3558,2.501-7.2933,3.7515v7.828h25.7522v-7.828
		c0.0625-1.2505-3.689-2.2067-7.2932-3.7515c-3.6045-1.5448-2.5747-6.326-2.5747-6.326
		C36.6194,38.0143,38.4918,37.0767,40.2098,35.369z M45.0583,22.7141v-6.1722h7.1147c0.7183,0,1.1106-0.0679,0.991,0.9885
		c-0.3395,3.0005-1.1089,8.1631-4.3125,11.5164c-1.6128,1.6873-3.6716,2.7333-6.2219,3.1345
		C44.0593,29.6958,45.0583,26.5006,45.0583,22.7141z M15.3881,29.0468c-3.2037-3.3533-3.973-8.5159-4.3126-11.5164
		c-0.1195-1.0564,0.2727-0.9885,0.9911-0.9885h7.1146v6.1722c0,3.7865,0.999,6.9817,2.4288,9.4672
		C19.0597,31.78,17.0007,30.734,15.3881,29.0468z M27.4391,20.1512v-2.3804c1.65-0.4868,3.2736-0.7302,4.8157-0.7302h1.704v13.3918
		h-3.0566V19.8538C29.6299,19.8538,28.6838,19.9353,27.4391,20.1512z M42,49.9198v3.0752H22v-3.0752H42z"/>
</g>
</svg>
