<?xml version="1.0" encoding="utf-8"?>
<!-- Generator: Adobe Illustrator 19.1.0, SVG Export Plug-In . SVG Version: 6.00 Build 0)  -->
<svg version="1.2" baseProfile="tiny" xmlns="http://www.w3.org/2000/svg" xmlns:xlink="http://www.w3.org/1999/xlink" x="0px"
	 y="0px" width="64px" height="64px" viewBox="0 0 64 64" xml:space="preserve">
<g id="Box">
	<rect fill="none" width="64" height="64"/>
</g>
<g id="Icon">
	<g>
		<path d="M27.5671,14.5769c0,3.0414,1.6251,4.7575,4.4329,4.7575c2.8082,0,4.4329-1.9506,4.4329-4.7575
			c0-3.1991-1.6982-4.9142-4.4329-4.9142C29.1191,9.6627,27.5671,11.6904,27.5671,14.5769z"/>
		<path d="M57.302,7.988c-0.0079-0.0024-0.0159-0.0044-0.0239-0.0068l0.8896-4.1856c0.2756-1.2965-0.7115-1.8547-2.008-2.1304
			c-1.2965-0.2756-2.4116-0.1641-2.6871,1.1324l-0.8315,3.9122C39.0489,3.3411,24.9519,3.3412,11.3589,6.7098l-0.8316-3.9123
			c-0.2756-1.2964-1.3906-1.408-2.6871-1.1324C6.5438,1.9408,5.5566,2.499,5.8322,3.7955l0.8896,4.1856
			C6.7139,7.9836,6.7059,7.9855,6.698,7.988C6.0383,8.1911,5.6677,8.8903,5.8708,9.5505c0.1828,0.5928,0.7673,0.9276,1.3646,0.8466
			l0.8422,3.9625c0.2756,1.2966,1.3683,1.4288,2.6648,1.1531c1.2964-0.2756,2.306-0.8546,2.0303-2.1511L11.879,9.1565
			c0.7411-0.1844,1.4828-0.3638,2.2269-0.5275c0.4034,2.4738,1.8591,11.0547,2.8275,12.251
			c0.7858,0.9708,4.2501,2.9742,8.7285,4.5319l0.5469,13.1669L18.6499,61.508c0,0,4.7169,1.8586,6.3339-2.4172
			c1.643-4.3445,6.2746-16.005,6.428-16.3321c0.1171-0.2497,0.3098-0.4416,0.5834-0.4416c0.2676,0,0.4768,0.1812,0.5942,0.4445
			c0.1382,0.3102,4.7092,12.0593,6.4268,16.3292c1.7061,4.2411,6.334,2.4172,6.334,2.4172l-7.5623-22.9395l0.5495-13.1564
			c4.4788-1.5577,7.9435-3.5613,8.7294-4.5322c0.9684-1.1962,2.4242-9.7774,2.8276-12.251c0.744,0.1638,1.4857,0.3431,2.2268,0.5275
			l-0.8938,4.2051c-0.2756,1.2965,0.7339,1.8755,2.0303,2.1511c1.2965,0.2756,2.3892,0.1434,2.6648-1.1531l0.8401-3.9523
			c0.0576,0.0081,0.1152,0.0261,0.1724,0.0261c0.5342,0,1.0288-0.3457,1.1943-0.8828C58.3323,8.8903,57.9617,8.1911,57.302,7.988z
			 M43.5333,17.8799c-1.0947,0.7969-3.7342,1.9366-7.1984,2.7097c-2.8497,0.636-5.8202,0.636-8.6699,0
			c-3.4642-0.7731-6.1037-1.9128-7.1984-2.7097c-0.9039-2.5159-2.3857-8.6388-2.7034-9.9666
			c9.4337-1.6403,19.04-1.6403,28.4734-0.0001C45.9191,9.2409,44.4373,15.364,43.5333,17.8799z"/>
	</g>
</g>
</svg>
