<?xml version="1.0" encoding="utf-8"?>
<!-- Generator: Adobe Illustrator 25.0.0, SVG Export Plug-In . SVG Version: 6.00 Build 0)  -->
<svg version="1.1" xmlns="http://www.w3.org/2000/svg" xmlns:xlink="http://www.w3.org/1999/xlink" x="0px" y="0px"
	 viewBox="0 0 64 64" style="enable-background:new 0 0 64 64;" xml:space="preserve">
<style type="text/css">
	.st0{fill:none;}
</style>
<g id="Box">
	<rect class="st0" width="64" height="64"/>
</g>
<g id="Icon">
	<g>
		<path d="M14,51.592C14,52.922,15.078,54,16.408,54H19V42h-5V51.592z"/>
		<path d="M55.076,27.261l-19.17-8.645c-0.773-0.349-1.584-0.576-2.406-0.708v-2.67c0-0.799,0.518-1.548,1.351-1.955
			c2.731-1.334,4.161-4.358,3.477-7.354c-0.544-2.382-2.434-4.272-4.816-4.816c-1.978-0.451-4.005,0.002-5.562,1.244
			C26.393,3.599,25.5,5.452,25.5,7.441c0,0.829,0.672,1.5,1.5,1.5s1.5-0.671,1.5-1.5c0-1.071,0.481-2.069,1.32-2.738
			c0.852-0.679,1.927-0.915,3.024-0.665c1.246,0.285,2.274,1.313,2.559,2.559c0.372,1.63-0.396,3.271-1.869,3.991
			c-1.871,0.914-3.034,2.696-3.034,4.65v2.67c-0.822,0.132-1.632,0.359-2.406,0.708l-19.17,8.645C6.54,28.336,5,30.721,5,33.336
			C5,37.011,7.99,40,11.664,40H21v18.599C21,59.925,22.075,61,23.401,61h24.199C48.925,61,50,59.925,50,58.599V36.001
			C50,32.687,47.313,30,43.999,30H20.021c-3.1,0-5.65,2.343-5.982,5.355c1.602,0.305,6.232,1.186,6.694,1.281
			c0.326,0.068,0.271,0.308,0.25,0.364h-9.319C9.644,37,8,35.356,8,33.336c0-1.438,0.847-2.749,2.158-3.34l19.17-8.645
			c0.849-0.383,1.76-0.574,2.672-0.574c0.911,0,1.823,0.191,2.672,0.574l19.17,8.645C55.153,30.587,56,31.898,56,33.336
			C56,35.356,54.356,37,52.336,37H52v3h0.336C56.01,40,59,37.011,59,33.336C59,30.721,57.46,28.336,55.076,27.261z"/>
	</g>
</g>
</svg>
