<?xml version="1.0" encoding="utf-8"?>
<!-- Generator: Adobe Illustrator 17.1.0, SVG Export Plug-In . SVG Version: 6.00 Build 0)  -->
<svg version="1.2" baseProfile="tiny" xmlns="http://www.w3.org/2000/svg" xmlns:xlink="http://www.w3.org/1999/xlink" x="0px"
	 y="0px" width="64px" height="64px" viewBox="0 0 64 64" xml:space="preserve">
<g id="Box">
	<rect fill="none" width="64" height="64"/>
</g>
<g id="Icon">
	<g>
		<path d="M20.043,38.0898c1.9593,0,4.2807-1.9592,6-3.2505c1.8359,1.3789,4.0786,3.2505,6,3.2505
			c1.6528,0,3.6169-1.4554,4.5226-2.1409c-1.2154-1.2302-3.3094-3.4078-4.852-5.6434c-1.3292-1.8251-2.5643-3.8687-3.3628-5.9799
			c2.1492-0.8882,5.7742-2.2007,11.27-3.8904c-0.2962-0.8984-1.5273-3.0791-6.3715-2.0649
			c-2.3037,0.4823-7.2828,1.5252-8.9492,2.9415c-1.145,0.9731-1.1779,1.8699-0.8945,3.0665
			c0.5355,2.2609,1.8333,4.8564,2.996,6.7469c-3.9405,2.1276-7.0518,4.4168-9.0634,6.053
			C18.1981,37.6755,19.1623,38.0898,20.043,38.0898z"/>
		<path d="M56.043,40.09c-2.4615,0-4.9159-1.9367-6-2.75c-1.0001,0.7504-3.4848,2.75-6,2.75c-2.4615,0-4.9159-1.9367-6-2.75
			c-1.0001,0.7504-3.4848,2.75-6,2.75c-2.4615,0-4.9159-1.9367-6-2.75c-1.0001,0.7504-3.4848,2.75-6,2.75
			c-2.4615,0-4.9159-1.9367-6-2.75c-1.0001,0.7504-3.4848,2.75-6,2.75c-1.0184,0-2.1246-0.3893-3.043-0.8273v4.2183
			C5.9427,43.7856,6.9789,44,8.043,44c2.397,0,4.6631-1.0762,6-1.8633c1.3369,0.7871,3.603,1.8633,6,1.8633s4.6631-1.0762,6-1.8633
			c1.3369,0.7871,3.603,1.8633,6,1.8633s4.6631-1.0762,6-1.8633c1.3369,0.7871,3.603,1.8633,6,1.8633s4.6631-1.0762,6-1.8633
			c1.3369,0.7871,3.603,1.8633,6,1.8633c1.0322,0,2.0372-0.2025,2.957-0.4926v-4.2031C58.1001,39.7238,57.0267,40.09,56.043,40.09z"
			/>
		<path d="M35.8345,32.561c1.4798,2.4053,4.0202,2.7611,6.4457,1.2688c2.7627-1.6994,3.3492-4.0657,1.9082-6.4084
			c-1.5182-2.4677-4.0876-2.7194-6.5806-1.1855C34.9803,27.8522,34.355,30.1561,35.8345,32.561z"/>
	</g>
</g>
</svg>
