<?xml version="1.0" encoding="utf-8"?>
<!-- Generator: Adobe Illustrator 21.0.2, SVG Export Plug-In . SVG Version: 6.00 Build 0)  -->
<!DOCTYPE svg PUBLIC "-//W3C//DTD SVG 1.1//EN" "http://www.w3.org/Graphics/SVG/1.1/DTD/svg11.dtd">
<svg version="1.1" xmlns="http://www.w3.org/2000/svg" xmlns:xlink="http://www.w3.org/1999/xlink" x="0px" y="0px" width="64px"
	 height="64px" viewBox="0 0 64 64" style="enable-background:new 0 0 64 64;" xml:space="preserve">
<style type="text/css">
	.st0{fill:none;}
</style>
<g id="_x36_4px_Box">
	<rect class="st0" width="64" height="64"/>
</g>
<g id="Icon">
	<g>
		<path d="M39.8,13.6c2.5,1.6,5.2,0.8,6.8-1.7C48.5,9,48,6.4,45.5,4.8c-2.6-1.7-5.2-0.8-6.9,1.9C36.8,9.4,37.3,12,39.8,13.6z"/>
		<path d="M51.7,24.3c-3,0.7-4.9,1.2-5.7,1.1c-0.7-0.7-1.5-1.8-3.6-5.1c-1.3-2-2.2-4.1-6.7-6.4C32,12,25.5,10.6,23.4,11.2
			c-2.3,0.6-5.2,3.4-7,5.1l0,0c-1.5,1.5-2,3.7-0.8,5.4c1-0.7,6.6-6.1,8.4-6.1c0.6,0.1,3.6,0.7,5.8,1.6c-2.8,3.9-7.1,11-7.6,13.1
			c-0.9,4.2,2,6,4.9,7.8c0,0,0,0.2-0.4,0.2c-0.2,0-1.6-0.2-3.3-0.5c-0.8,1.9-2.8,6-3.8,7.7c-0.4,0.3-0.9,0.6-1.3,1c0,0,0,0,0,0
			c-0.3-0.4-1-0.5-1.4-0.2l-3.2,2.3c-1,0.8-1.9,0.6-2.9,0.5c-1.3-0.2-3-0.5-4.8,1.3c-1.8,1.8-2,4.5-0.4,7.3c1,1.8,3.2,4.2,6.3,5.1
			c0.1,0,0.2,0,0.3,0c0.4,0,0.8-0.3,1-0.7c0.1-0.5-0.2-1.1-0.7-1.2c-2.3-0.6-4.2-2.5-5-4.1c-1.1-2-1.1-3.8,0.1-4.9
			c1.1-1.1,1.9-1,3.1-0.8c1,0.1,2.1,0.3,3.4-0.3c-0.1,0.8,0.1,1.6,0.7,2.2c0.8,0.9,2.2,1.2,3.5,0.4c1.9-1.1,3.5-2.1,4.5-2.9
			c0.9-0.7,1.4-1.4,2.1-2.4c1.5-2.3,3.9-6.2,5.2-8.4c2.2,0.3,5,0.6,6.1,0.8c0,0.5-0.1,1.2-0.2,1.9c-0.5-0.1-1,0.3-1.1,0.9l-0.5,3.9
			c-0.2,1.3-0.8,1.8-1.7,2.5c-1.1,0.8-2.4,1.8-2.4,4.4c0,2.5,1.9,4.6,5,5.4c0.8,0.2,1.7,0.3,2.7,0.3c1.7,0,3.6-0.4,5.2-1.3
			c0.5-0.3,0.6-0.9,0.4-1.4c-0.3-0.5-0.9-0.6-1.4-0.4c-2,1.2-4.7,1.3-6.4,0.8c-2.2-0.6-3.5-1.9-3.5-3.5c0-1.5,0.6-2,1.6-2.8
			c0.8-0.6,1.7-1.3,2.2-2.7c0.5,0.6,1.3,1,2.1,1c1.2,0,2.4-0.8,2.7-2.3c0.4-2,0.8-4.2,1.1-6.5c0.2-1.4,0-3.3-0.6-4.4
			c-0.6-1-3-2.6-8.9-4c1.6-3.5,4.3-6.4,6.1-9c1.9,3,4.3,6,5.8,6.1c1.4,0.2,5.2-0.7,7.3-1.3c2.3-0.7,3.8-2.2,3.7-4.6
			C54.7,23.7,52.9,24.1,51.7,24.3z"/>
	</g>
</g>
</svg>
