<?xml version="1.0" encoding="utf-8"?>
<!-- Generator: Adobe Illustrator 17.1.0, SVG Export Plug-In . SVG Version: 6.00 Build 0)  -->
<svg version="1.2" baseProfile="tiny" xmlns="http://www.w3.org/2000/svg" xmlns:xlink="http://www.w3.org/1999/xlink" x="0px"
	 y="0px" width="64px" height="64px" viewBox="0 0 64 64" xml:space="preserve">
<g id="Box">
	<rect fill="none" width="64" height="64"/>
</g>
<g id="Icon">
	<g>
		<polygon points="23.7866,54 39.7866,54 41,52 25,52 		"/>
		<path d="M51.1281,32.6224c-0.1372-0.2741-4.1656-10.536-4.2937-10.8557c-1.5581-3.8894-6.7924-8.3401-9.5546-10.1454
			c-1.007-0.6475-1.4354-0.7693-2.7994-1.1589c-3.0493-0.816-5.0942-1.1182-6.4517-1.3698
			c-3.2774-0.0869-4.3173,1.4826-4.6363,2.3018c3.2581,1.0602,7.9001,2.3781,9.8662,3.0537
			c0.7331,0.2661,0.9829,0.3199,1.6042,0.7527c1.1398,0.8052,2.2073,1.7402,3.1172,2.6833
			c-1.7733,0.1177-3.9724,0.4157-6.6724,1.0389c-6.2167,1.4349-8.1378,4.6423-8.9528,7.231c-0.972,3.087-2.033,6.7993-2.8325,9.0314
			c-1.7436,0.472-7.5301,2.1871-9.254,2.6993l-2.7557,5.6351c6.6438-1.1924,11.3338-2.022,14.6787-2.5322
			c1.2185-0.3278,1.5736-0.7969,1.8948-1.0628c1.2139-1.2017,2.168-3.3813,3.6369-6.4559c2.7371,2.4222,6.2259,4.9828,8.1263,6.6694
			C34.274,43.3589,31.2551,48.391,29.7111,51h5.5507c1.7204-2.2056,4.5023-5.8515,6.0131-8.1865
			c1.7027-2.6248,1.838-3.9353,0.0096-6.4072c-1.681-2.1552-4.2792-4.5965-7.0145-7.6178l9.7024,0.0005
			c0.7523,1.674,1.9945,4.4244,3.2338,6.5854c1.2287,2.0098,2.0931,2.6922,4.6161,1.8835c1.6079-0.5352,3.8307-1.6521,5.3376-2.4435
			l-0.0102-0.006c5.2231-2.7675,3.669-5.7635,3.4399-6.1489C57.8671,29.8354,53.2815,31.9178,51.1281,32.6224z"/>
		<polygon points="9.6437,31.9418 2.6147,46.3151 3.7933,48.4721 10.8224,34.0988 		"/>
		<path d="M57.1864,22.7397c2.3121-2.709,2.1251-5.3794-0.1721-7.3401c-2.4202-2.0649-5.1896-1.4597-7.2758,0.9854
			c-2.1989,2.5767-2.0736,5.1949,0.2848,7.2075C52.3823,25.6053,55.1567,25.1185,57.1864,22.7397z"/>
	</g>
</g>
</svg>
