<?xml version="1.0" encoding="utf-8"?>
<!-- Generator: Adobe Illustrator 17.1.0, SVG Export Plug-In . SVG Version: 6.00 Build 0)  -->
<svg version="1.2" baseProfile="tiny" xmlns="http://www.w3.org/2000/svg" xmlns:xlink="http://www.w3.org/1999/xlink" x="0px"
	 y="0px" width="64px" height="64px" viewBox="0 0 64 64" xml:space="preserve">
<g id="Box">
	<rect fill="none" width="64" height="64"/>
</g>
<g id="Icon">
	<g>
		<path d="M44.1796,17.5665c2.836,0.9204,5.1215-0.5326,6.0496-3.3923c1.0574-3.257-0.8621-5.6251-3.624-6.5218
			C43.6957,6.7082,39.1,7.41,38.4374,8.6832C37.3361,10.7994,41.3442,16.6461,44.1796,17.5665z"/>
		<path d="M43.0544,30.2386c1.4048,0.7113,3.5655,1.2102,5.1055,1.489c3.3488,0.0714,4.5177-1.8961,4.8792-2.8103
			c-4.6224-1.2506-8.0186-2.6904-8.0186-2.6904c-2.7472-4.6359-3.3796-15.098-19.2202-9.6909
			c-8.1611,2.7857-11.712,8.9213-4.8788,14.1732c2.7315,2.0844,7.1082,4.1879,9.823,5.8458
			c-0.567,1.5995-2.4117,5.0695-4.0779,8.9854c-1.2833,4.2667,0.2727,6.5654,1.2147,7.5009
			c1.2896-1.5475,7.8797-12.7194,9.1472-15.6981c0.3934-1,0.8964-2.3025-0.3207-4.0887c-1.1703-1.6591-3.9592-3.5811-7.098-6.0389
			l9.7696-2.4586C40.8682,28.3974,41.2872,29.2968,43.0544,30.2386z"/>
		<path d="M13,35C6.9249,35,2,39.9249,2,46s4.9249,11,11,11s11-4.9249,11-11S19.0751,35,13,35z M13,54.15
			c-4.5011,0-8.15-3.6489-8.15-8.15s3.6489-8.15,8.15-8.15s8.15,3.6489,8.15,8.15S17.5011,54.15,13,54.15z"/>
		<path d="M51,35c-6.0751,0-11,4.9249-11,11s4.9249,11,11,11s11-4.9249,11-11S57.0751,35,51,35z M51,54.15
			c-4.5011,0-8.15-3.6489-8.15-8.15s3.6489-8.15,8.15-8.15s8.15,3.6489,8.15,8.15S55.5011,54.15,51,54.15z"/>
	</g>
</g>
</svg>
