<?xml version="1.0" encoding="utf-8"?>
<!-- Generator: Adobe Illustrator 19.1.0, SVG Export Plug-In . SVG Version: 6.00 Build 0)  -->
<svg version="1.2" baseProfile="tiny" xmlns="http://www.w3.org/2000/svg" xmlns:xlink="http://www.w3.org/1999/xlink" x="0px"
	 y="0px" width="64px" height="64px" viewBox="0 0 64 64" xml:space="preserve">
<g id="_x36_4px_Box">
	<rect fill="none" width="64" height="64"/>
</g>
<g id="Icon">
	<g>
		<path d="M45.0735,24.0417c-0.356,2.1681,0.5921,3.5795,2.5766,3.9053c1.9849,0.3257,3.3615-0.8754,3.69-2.877
			c0.3743-2.2796-0.6255-3.6992-2.5585-4.0167C46.7453,20.7192,45.4111,21.9844,45.0735,24.0417z"/>
		<path d="M15.2126,49.3148c1.0015,0.7511,3.1043,2.4225,4.8303,2.4225c1.9193,0,4.3027-2.026,6-3.2998
			c1.8694,1.4021,4.1276,3.2998,6,3.2998c1.9193,0,4.3027-2.026,6-3.2998c1.8766,1.4075,2.8612,2.2006,4.0845,2.782
			c4.6337-3.0872,6.9294-5.4941,7.9789-6.8321c0.3798-0.4842,0.0285-1.1985-0.5869-1.2066c-5.1427-0.067-9.969,0.335-14.3033,0.9645
			L36.6,41h6.4111c1.3007,0,2.5522-0.5731,3.3598-1.5927c1.8643-2.3536,2.9823-4.624,3.6506-6.4404
			C50.7302,31.0409,49.2189,29,46.6011,29H35c0,1.3956,1.0522,2.5667,2.4399,2.7155l6.0043,0.6439L40.808,37h-4.9692
			c-1.0261,0-1.9615,0.5875-2.407,1.5117l-3.121,6.4736c-2.4141,0.4775-4.6127,1.0055-6.5504,1.53l8.7701-15.7305l-6.7007-1.4208
			C25.5172,29.2922,25.559,29.0562,25.5799,29h7.9457L47.4508,4.0231c0.2911-0.5221-0.2316-1.1314-0.7907-0.9199
			C21.3979,12.6599,7.5,30.2,7.5,30.2l12.2268,17.5065C17.5953,48.3911,16.0462,48.9805,15.2126,49.3148z"/>
		<path d="M56.043,53.9374c-2.4616,0-4.9159-1.9367-6-2.75c-1.0002,0.7503-3.4848,2.75-6,2.75c-2.4616,0-4.9159-1.9367-6-2.75
			c-1.0002,0.7503-3.4848,2.75-6,2.75c-2.4616,0-4.9159-1.9367-6-2.75c-1.0002,0.7503-3.4848,2.75-6,2.75
			c-2.4616,0-4.9159-1.9367-6-2.75c-1.0002,0.7503-3.4848,2.75-6,2.75c-1.0184,0-2.1246-0.3893-3.043-0.8273v4.2183
			c0.9427,0.3047,1.9789,0.519,3.043,0.519c2.397,0,4.6631-1.0762,6-1.8633c1.3369,0.7871,3.603,1.8633,6,1.8633
			s4.6631-1.0762,6-1.8633c1.3369,0.7871,3.603,1.8633,6,1.8633s4.6631-1.0762,6-1.8633c1.3369,0.7871,3.603,1.8633,6,1.8633
			s4.6631-1.0762,6-1.8633c1.3369,0.7871,3.603,1.8633,6,1.8633c1.0322,0,2.0372-0.2025,2.957-0.4926v-4.2031
			C58.1001,53.5713,57.0267,53.9374,56.043,53.9374z"/>
	</g>
</g>
</svg>
