<?xml version="1.0" encoding="utf-8"?>
<!-- Generator: Adobe Illustrator 19.1.0, SVG Export Plug-In . SVG Version: 6.00 Build 0)  -->
<svg version="1.2" baseProfile="tiny" xmlns="http://www.w3.org/2000/svg" xmlns:xlink="http://www.w3.org/1999/xlink" x="0px"
	 y="0px" width="64px" height="64px" viewBox="0 0 64 64" xml:space="preserve">
<g id="Box">
	<rect fill="none" width="64" height="64"/>
</g>
<g id="Icon">
	<g>
		<path d="M25.3321,6.1345l-2.0177,5.8167c-1.5646,0.4527-3.052,1.08-4.4418,1.8659l-5.5687-2.7003
			c-0.6468-0.3137-1.4213-0.1831-1.9295,0.3251c-1.8,1.8001-1.1346,1.1346-2.9326,2.9326
			c-0.5082,0.5082-0.6388,1.2827-0.3251,1.9295l2.7253,5.6202c-0.751,1.3627-1.3406,2.8227-1.774,4.3497l-5.9335,2.0582
			C2.4553,28.5677,2,29.2076,2,29.9264c0,1.5007,0,2.6465,0,4.1472c0,0.7188,0.4553,1.3587,1.1345,1.5943l5.9493,2.0637
			c0.4348,1.5144,1.0258,2.9611,1.7733,4.3132l-2.7404,5.6513c-0.3137,0.6468-0.1831,1.4213,0.3251,1.9295
			c1.8001,1.8,1.1346,1.1346,2.9326,2.9326c0.5082,0.5082,1.2827,0.6388,1.9295,0.3251l5.6199-2.7251
			c1.3686,0.7687,2.832,1.3828,4.3694,1.8294l2.0389,5.8779C25.5677,58.5447,26.2076,59,26.9264,59c1.1242,0,2.0493,0,3.0736,0
			V40.1734c-0.3284,0.0398-0.6608,0.0666-1,0.0666c-4.5508,0-8.24-3.6891-8.24-8.24s3.6891-8.24,8.24-8.24
			c0.3392,0,0.6716,0.0268,1,0.0666V5c-1.0243,0-1.9494,0-3.0736,0C26.2076,5,25.5677,5.4553,25.3321,6.1345z"/>
		<path d="M56.4597,18.2619c-0.9368,1.3607-2.035,2.1028-2.5842,2.4344c-0.3743,0.2261-0.5553,0.1334-0.625,0.0277
			c0.5175-0.9286,1.545-1.9612,1.8037-4.1695c0.5469-4.6689-2.7309-7.6347-7.046-6.7027c-2.202,0.4755-3.1174,1.6548-3.9827,2.2869
			c-0.11-0.0599-0.219-0.2343-0.0375-0.638c0.3029-0.6736,1.0467-2.1241,2.6442-3.3198C44.5324,5.6293,41.29,4.34,38.2535,5.1627
			C36.3828,5.6695,34.9196,6.8953,34,8.5054v16.5745c1.137-1.3279,2.8383-2.157,4.2604-2.3041c0.4833-0.05,0.85-0.05,0.8081,0.2855
			c-3.8585,2.1403-5.0526,6.2694-5.0526,9.6201c0,0-0.0085-0.0154-0.0159-0.0287v3.4125c2.7195-0.9948,6.6523,0.5735,7.4603,4.2599
			c0.1595,0.728-0.1895,0.7773-0.1895,0.7773c-0.0007-0.0196-0.7006-1.5947-2.4891-2.5005
			c-1.547-0.7835-3.2694-0.7393-4.7818-0.0375v16.9331c0.9218,1.6047,2.387,2.8242,4.2535,3.3298
			c3.2304,0.8752,7.3005-0.3219,9.3547-4.4847c-1.6866-0.7966-2.5984-1.925-2.9814-2.454
			c-0.2289-0.3162-0.1509-0.4777-0.0554-0.5428c0.8576,0.3952,1.8273,1.1967,3.7447,1.3754
			c5.3935,0.5027,9.2785-4.3926,7.5309-8.8385c-0.5915-1.5048-1.5737-2.1742-2.1412-2.8269
			c0.0508-0.0983,0.2086-0.2005,0.5944-0.0596c0.481,0.1757,1.3794,0.552,2.3003,1.2874c3.8477-1.9865,5.5184-7.1115,2.923-11.8442
			C62.7446,25.5001,60.6895,20.0312,56.4597,18.2619z M37.5757,14.5256c0.1496-0.3161,0.3948-0.5866,0.5424-0.4489
			c-0.0057,1.5189,1.3575,4.7581,6.0538,3.4775c1.436-0.3975,2.5232-1.0786,3.8069-1.9644c0.1677,0.0311,0.176,0.21,0.0157,0.4925
			c-0.8182,1.4423-2.2335,3.397-5.8046,3.6405C38.0282,20.0455,36.5438,16.7064,37.5757,14.5256z M41.2936,32.4587
			c-1.644-1.2926-1.5016-5.3531,1.3011-6.9296c1.59-0.8944,3.8758-0.2982,5.5991,0.1456c2.6202,0.6747,4.4614,0.6252,6.6873-0.3674
			c0.1786,0.335-0.0214,0.6517-0.2714,0.935c-1.2223,1.3853-3.705,1.7718-5.788,1.5767c-2.5236-0.2364-3.2969-1.0359-5.2844-0.1415
			c-2.5067,1.1281-1.5673,4.8135-1.5451,4.8554C41.8103,32.842,41.5078,32.627,41.2936,32.4587z M49.5954,47.3406
			c-0.3134-0.7933-1.3-1.816-2.7258-2.1866c-1.4886-0.3867-3.3753-0.0684-4.9788,1.0889c-2.799,2.0198-2.6901,4.5175-2.6911,4.5413
			c0,0-0.4391,0.1696-0.4559-0.6763c-0.0284-1.4266,0.5886-4.3583,2.4884-5.7824c3.765-2.8222,8.3582-1.0955,8.6945,2.0992
			C49.9933,47.058,49.8933,47.3747,49.5954,47.3406z M56.3037,37.4888c-2.1619-2.5216-4.9835-3.7319-7.5697-2.037
			c-1.7897,1.1729-2.9113,3.4847-2.9097,3.5055c0,0-0.3239,0.0415-0.2475-0.6321c0.1077-0.9494,0.7598-2.842,2.0525-4.1174
			c2.7535-2.7166,7.7401-1.7885,8.7137,2.3842C56.4597,37.0918,56.543,37.3251,56.3037,37.4888z"/>
	</g>
</g>
</svg>
