<?xml version="1.0" encoding="utf-8"?>
<!-- Generator: Adobe Illustrator 18.0.0, SVG Export Plug-In . SVG Version: 6.00 Build 0)  -->
<svg version="1.2" baseProfile="tiny" xmlns="http://www.w3.org/2000/svg" xmlns:xlink="http://www.w3.org/1999/xlink" x="0px"
	 y="0px" width="64px" height="64px" viewBox="0 0 64 64" xml:space="preserve">
<g id="_x36_4px_Boxes">
	<rect fill="none" width="64" height="64"/>
</g>
<g id="Production">
	<g>
		<path d="M57.0116,13.6197c1.7829-1.783,0.7425-3.8862-1.0326-5.6595c-1.775-1.7765-3.8795-2.817-5.6616-1.0347l-16.8,16.8004
			l6.6937,6.6948L57.0116,13.6197z"/>
		<path d="M14.5518,46.406c-0.8218-0.2139-1.7099-0.1093-2.4623,0.3282c-0.4021,0.2338-0.7129,0.5988-0.9474,1.0005l-3.047,5.2183
			l2.8745,2.9011l5.2203-3.0458c0.394-0.2299,0.7523-0.5332,0.9866-0.9246c0.496-0.8285,0.5833-1.8276,0.2788-2.7238L28.415,38.2357
			l-2.8284-2.8288L14.5518,46.406z"/>
	</g>
	<path d="M40.5909,43.0591c-0.0034,0.0042-0.0072,0.0083-0.0106,0.0125c-0.0011-0.0005-0.0012-0.0024-0.0023-0.0029
		c-0.1198-0.0605-0.1805-0.2272-0.0753-0.5032c0.1979-0.5196,1.107-2.6511,3.6044-5.1368L26.6165,19.9356
		c-2.4902,2.5052-4.6269,3.4169-5.1472,3.6151c-0.278,0.1059-0.4456,0.0439-0.505-0.0775
		c5.5634-5.0277,6.9495-10.3059,1.9551-15.3004c-2.6367-2.638-5.6638-3.6289-8.7678-2.7609
		c-0.5075,0.1419-0.6947,0.7716-0.356,1.1753c1.1046,1.3163,2.1682,2.6119,2.6686,3.3021c0.7424,1.0233,2.0993,2.9221,0.8356,4.1862
		l-3.7251,3.723c-1.2637,1.2644-3.026-0.1917-4.0479-0.932c-0.6627-0.4799-1.8319-1.5338-3.0298-2.6586
		c-0.4039-0.3792-1.0842-0.1912-1.2079,0.3489c-0.6797,2.9666,0.3428,5.851,2.8694,8.376
		c3.0548,3.0566,6.6411,3.9022,10.2628,2.1966L38.9305,45.641c-1.7056,3.6218-0.86,7.208,2.1966,10.2628
		c2.525,2.5266,5.4094,3.5491,8.376,2.8694c0.54-0.1237,0.7281-0.804,0.3489-1.2079c-1.1248-1.1979-2.1787-2.3671-2.6586-3.0298
		c-0.7404-1.0219-2.1964-2.7842-0.932-4.0479l3.723-3.7251c1.2641-1.2637,3.1629,0.0931,4.1862,0.8356
		c0.6901,0.5004,1.9858,1.564,3.3021,2.6686c0.4037,0.3387,1.0334,0.1516,1.1753-0.356c0.868-3.104-0.1229-6.1312-2.7609-8.7678
		C50.6787,35.9346,45.4909,37.6445,40.5909,43.0591z"/>
</g>
</svg>
