<?xml version="1.0" encoding="utf-8"?>
<!-- Generator: Adobe Illustrator 19.1.0, SVG Export Plug-In . SVG Version: 6.00 Build 0)  -->
<svg version="1.2" baseProfile="tiny" xmlns="http://www.w3.org/2000/svg" xmlns:xlink="http://www.w3.org/1999/xlink" x="0px"
	 y="0px" width="64px" height="64px" viewBox="0 0 64 64" xml:space="preserve">
<g id="Box">
	<rect fill="none" width="64" height="64"/>
</g>
<g id="Icon">
	<g>
		<g>
			<path d="M35.5917,42.5707c0.8988-0.7575,2.0413-1.1747,3.2169-1.1746c1.2006,0.0001,2.3624,0.4329,3.2739,1.2208l3.9386,3.4117
				l4.2318-4.7866c0.8148-1.4356,1.4588-2.9762,1.9169-4.5984l5.6958-1.9758C58.5447,34.4323,59,33.7924,59,33.0736
				c0-1.5007,0-2.6465,0-4.1472c0-0.7188-0.4553-1.3587-1.1345-1.5943l-5.6801-1.9703c-0.4577-1.6401-1.103-3.1986-1.925-4.649
				l2.6228-5.4089c0.3137-0.6468,0.1831-1.4213-0.3251-1.9295c-1.8001-1.8-1.1346-1.1346-2.9326-2.9326
				c-0.5082-0.5082-1.2827-0.6388-1.9295-0.3251l-5.4403,2.6381c-1.4341-0.8001-2.9757-1.423-4.5928-1.8688l-1.9951-5.7515
				C35.4323,4.4553,34.7924,4,34.0736,4c-1.5007,0-2.6465,0-4.1472,0c-0.7188,0-1.3587,0.4553-1.5943,1.1345l-2.0177,5.8167
				c-1.5646,0.4527-3.052,1.08-4.4418,1.8659l-5.5687-2.7003c-0.6468-0.3137-1.4213-0.1831-1.9295,0.3251
				c-1.8,1.8001-1.1346,1.1346-2.9326,2.9326c-0.5082,0.5082-0.6388,1.2827-0.3251,1.9295l2.7253,5.6202
				c-0.751,1.3627-1.3406,2.8227-1.774,4.3497l-5.9335,2.0582C5.4553,27.5677,5,28.2076,5,28.9264c0,1.5007,0,2.6465,0,4.1472
				c0,0.7188,0.4553,1.3587,1.1345,1.5943l5.9493,2.0637c0.4348,1.5144,1.0258,2.9611,1.7733,4.3132l-2.7404,5.6513
				c-0.3137,0.6468-0.1831,1.4213,0.3251,1.9295c1.8001,1.8,1.1346,1.1346,2.9326,2.9326c0.5082,0.5082,1.2827,0.6388,1.9295,0.3251
				l5.6199-2.7251c1.3686,0.7687,2.832,1.3828,4.3694,1.8294l2.0389,5.8779C28.5677,57.5447,29.2076,58,29.9264,58
				c1.5007,0,2.6465,0,4.1472,0c0.7188,0,1.3587-0.4553,1.5943-1.1345l1.3157-3.7928l-2.4631-4.1106
				C33.2521,46.8422,33.7054,44.152,35.5917,42.5707z M23.76,31c0-4.5508,3.6891-8.24,8.24-8.24s8.24,3.6891,8.24,8.24
				s-3.6891,8.24-8.24,8.24S23.76,35.5508,23.76,31z"/>
		</g>
		<path d="M59.2728,38.3535c-0.749-0.5532-1.7932-0.4464-2.4125,0.2461L46.3204,50.5214l-6.333-5.4857
			c-0.6699-0.5791-1.6584-0.5869-2.3334-0.0181c-0.6777,0.5681-0.8409,1.5436-0.3875,2.3016l7.6714,12.8027
			c0.3239,0.5403,0.9069,0.8719,1.5366,0.874c0.0027,0,0.0038,0,0.0065,0c0.627,0,1.2101-0.3272,1.5366-0.8643L59.738,40.7322
			C60.2211,39.938,60.0191,38.9066,59.2728,38.3535z"/>
	</g>
</g>
</svg>
