<?xml version="1.0" encoding="utf-8"?>
<!-- Generator: Adobe Illustrator 19.1.0, SVG Export Plug-In . SVG Version: 6.00 Build 0)  -->
<svg version="1.2" baseProfile="tiny" xmlns="http://www.w3.org/2000/svg" xmlns:xlink="http://www.w3.org/1999/xlink" x="0px"
	 y="0px" width="64px" height="64px" viewBox="0 0 64 64" xml:space="preserve">
<g id="Box">
	<rect fill="none" width="64" height="64"/>
</g>
<g id="Icon">
	<g>
		<path d="M46.5879,32.8701c3.9426-1.8226,8.495-0.6968,11.1912,2.4459c-1.0886-16.1316-3.7897-28.3056-5.9358-33.8528
			c-0.1437-0.3715-0.6279-0.4529-0.8811-0.1454c-1.4483,1.759-5.2334,7.2148-5.9573,16.9039
			c-0.3983,5.3313,0.3203,10.5939,1.2441,14.805L46.5879,32.8701z M53.4785,16.0638c0.5914,3.3288,1.1295,7.0328,1.5714,11.0496
			c-0.8424-0.765-1.5486-1.7078-2.056-2.8058C51.7198,21.5505,52.0038,18.4736,53.4785,16.0638z"/>
		<path d="M18.4473,45.875l4.802-2.2192c0.0344-0.1629,0.0366-0.3312-0.0113-0.4916l-0.9456-3.1646l2.2756-1.8597
			c0.3126-0.2555,0.4409-0.6738,0.3253-1.0606l-0.8414-2.8159l2.2757-1.8597c0.3126-0.2554,0.4409-0.6738,0.3253-1.0606
			l-0.8414-2.8159l2.2756-1.8597c0.3126-0.2554,0.4409-0.6738,0.3254-1.0606l-0.8414-2.8159l2.2756-1.8597
			c0.3126-0.2554,0.4409-0.6738,0.3253-1.0606l-1.6741-5.6024c-0.1247-0.4174-0.4497-0.7448-0.8661-0.8725
			c-0.6879-0.2111-1.4166,0.1755-1.6276,0.8634l-8.1434,26.5476c-0.0014-0.0029-0.0031-0.0057-0.0045-0.0085l-1.2228,4.0073
			c-0.0598,0.0036-0.2705-0.0122-0.2753-0.3453c-0.0037-0.2586,0.3724-3.8541,0.5413-5.4539
			c-0.9402-1.62-2.0756-3.1729-3.4517-4.4568c-0.2865-0.2672-0.7491-0.0159-0.676,0.3689c0.3161,1.6627,0.5864,4.5292-1.2168,4.8451
			c-2.5792,0.4517-4.3573-3.8403-2.8587-10.9047c0.074-0.3486-0.0635-0.7127-0.3584-0.9127l-1.3749-0.932
			c-0.2737-0.1856-0.6439-0.0931-0.799,0.199c-1.4409,2.7137-3.2015,8.4464-1.399,13.7279
			c1.7905,5.2465,5.1732,9.0169,8.3823,11.5911c0.0945-0.4424,0.2098-0.8823,0.3688-1.3145
			C14.3926,48.8369,16.1436,46.9395,18.4473,45.875z"/>
		<path d="M57.381,38.348c-1.7375-3.7601-6.1943-5.3997-9.9543-3.6621l-28.1406,13.004c-3.7601,1.7375-5.3997,6.1943-3.6621,9.9543
			c1.7376,3.7601,6.1943,5.3997,9.9543,3.6621l28.1407-13.004C57.4791,46.5648,59.1186,42.1081,57.381,38.348z M39.7304,47.8297
			l-1.0924-2.364l5.1355-2.1265l2.8809-1.3312l0.9985,2.1606L39.7304,47.8297z M50.4523,43.0934
			c-0.7156,0.3307-1.4738,0.1613-1.8545-0.6625c-0.373-0.8073-0.1349-1.4772,0.6896-1.8582
			c0.7004-0.3237,1.4429-0.1469,1.8235,0.6768C51.4841,42.0568,51.2617,42.7195,50.4523,43.0934z"/>
	</g>
</g>
</svg>
