<svg enable-background="new 0 0 64 64" viewBox="0 0 64 64" xmlns="http://www.w3.org/2000/svg"><path d="m0 0h64v64h-64z" fill="none"/><path d="m52 14.7-3-1.1v-11.2c0-.7-.7-1.2-1.3-.9l-15.7 5.8-15.7-5.8c-.6-.2-1.3.2-1.3.9v11.2l-3 1.1c-.6.2-1 .8-1 1.4v32.2c0 .7.8 1.2 1.4.9l18-8.8 1.2-5.8c.1-.3.3-.3.4-.2v5.3l19.6 9.5c.7.3 1.4-.2 1.4-.9v-32.2c0-.6-.4-1.2-1-1.4zm-34-8.9 8.8 3.4-8.8 3.3zm11 25.4-14 6.1v-19.5l14-5.4zm17-25.4v6.7l-8.8-3.3zm3 31.5-14-6.1v-18.8l14 5.4z"/><path d="m44.8 49.6-10.5-2.9c-.8-.3-1.4.2-1.8.8-.3.7-.1 1.6.4 2l3.2 2.5c-6.5 1.8-11.8-.2-15-2.1-2.1-1.3-5.7 2.3-3.1 4 4.3 2.8 11.4 5.5 20.1 2.8l-.6 4.1c-.1.6.4 1.3 1.1 1.6s1.5-.1 1.8-.7l5.4-9.9c.2-.4.2-.9.1-1.3-.2-.5-.6-.8-1.1-.9z"/></svg>