<svg height="64" viewBox="0 0 64 64" width="64" xmlns="http://www.w3.org/2000/svg"><path d="m0 0h64v64h-64z" fill="none"/><path d="m0 0h64v64h-64z" fill="none"/><path d="m49.6284 10.4228c-11.8399-5.2623-17.6284 6.0515-17.6284 6.0515s-5.7886-11.3138-17.6284-6.0515c-11.6778 5.1901-10.8993 30.9409 16.4712 45.2777.719.3765 1.5955.3765 2.3145 0 27.3703-14.3368 28.1489-40.0876 16.4711-45.2777zm-2.9175 13.1509-13.73 18.1268c-.3879.5121-1.1353.5724-1.6001.1292l-11.7834-11.2313c-.4301-.4099-.4464-1.0909-.0366-1.5211l2.9689-3.116c.41-.4302 1.0912-.4467 1.5214-.0367l7.4224 7.0735 10.0907-13.3228c.3588-.4737 1.0337-.5669 1.5074-.208l3.4314 2.599c.4736.3588.5667 1.0337.2079 1.5074z"/></svg>