<svg height="64" viewBox="0 0 64 64" width="64" xmlns="http://www.w3.org/2000/svg"><path d="m0 0h64v64h-64z" fill="none"/><path d="m22.1216 23.4445c-.379-.4018-1.0118-.4202-1.4136-.0413l-1.7098 1.6128c-.4017.379-.4202 1.0118-.0413 1.4136l6.3889 6.7733c.3789.4018 1.0118.4202 1.4136.0413l1.7098-1.6128c.4018-.379.4203-1.0118.0413-1.4136zm.6538 5.244c-.2241.2093-.5729.1992-.7837-.0234-.2111-.2233-.199-.5753.0229-.7842.2134-.2012.582-.1924.7837.0234.2086.2206.2018.5727-.0229.7842zm1.2998 1.3769c-.2274.2145-.5783.1959-.7842-.0234-.2076-.2176-.2022-.5709.0234-.7832.2124-.2012.5806-.1924.7837.0234.209.2217.1988.5733-.0229.7832zm.0776-2.6767c-.2252.2113-.5743.1997-.7837-.0234-.209-.2217-.1987-.5732.0229-.7832.2148-.2031.5825-.1914.7842.0225.2107.2227.1999.5739-.0234.7841zm1.2998 1.3779c-.2241.2093-.5729.1992-.7837-.0234-.2111-.2233-.199-.5753.0229-.7842.2134-.2012.5811-.1924.7837.0234.2086.2206.2018.5727-.0229.7842z"/><path d="m38.9297 28.5567c1.3281-1.2195 2.0679-3.1657 2.0679-5.5557 0-.7447.0012-2.7025-1.2268-4.0366.3036-3.3378.515-8.5034-.7869-10.587-1.6026-2.5649-3.5498-3.8159-7.2632-2.9775-2.4355-1.1577-4.0937-1.8823-8.3608-.8398-2.9648.7241-6.21 1.9067-7.92 3.8798-1.652 1.9066-1.5394 7.2237-1.2741 10.6054-1.1589 1.332-1.1634 3.2256-1.1634 3.9557 0 2.386.7374 4.3299 2.0614 5.5497 0 0-4.2883 6.0435-3.8894 12.5922-1.9734.8768-3.7997 1.8936-4.7872 2.9675-2.8735 3.124-4.3872 14.8896-4.3872 14.8896h29v-7.4734c-1.0596.4869-2.3479.7654-4.0005.7654-5.1621 0-6.7969-2.6924-8.8657-6.1006-.9736-1.6025-1.9771-3.2549-3.4155-4.6016-.3975-3.373.7749-6.4512 1.7896-8.3906 2.5569 3.3625 6.245 6.6723 10.4917 6.5928 2.0108.0377 3.7982-.6544 5.4688-1.7446 1.6929-2.4453 4.7516-4.3572 8.655-5.3906-.2129-.4684-1.1703-2.4224-2.1937-4.1001zm-2.8711-1.7374c0 1.2986-.228 2.5302-.8422 3.5798-1.6305 2.7863-4.9703 5.9679-8.2169 5.8919-3.2943.0773-6.7946-3.2262-8.365-6.1123-.543-.998-.6931-2.167-.6931-3.3594-1.6177-.5039-2.0414-2.5454-2.0414-3.8183 0-1.2725.3217-1.961.7737-2.1743.3922-.1844.7725-.0475 1.013.0886.1414.6527.2484 1.1383.2898 1.3098.2061.8511 1.0235.7729 1.0235.7729v-6.7451c2.0731-.1505 6.1937-.7531 10.7499-3.1062l5.2501 3.5262v6.3251s.8174.0782 1.0234-.7729c.0415-.1715.1484-.6571.2898-1.3098.2405-.1362.6209-.2731 1.013-.0886.4521.2133.7738.9018.7738 2.1743 0 1.2729-.4237 3.3144-2.0414 3.8183z"/><path d="m48.0012 54c7.8499 0 13.9988-3.3747 13.9988-7.6786 0-.6324 0-3.0202 0-3.6548 0-4.2993-6.1489-7.6666-13.9988-7.6666-7.852 0-14.0012 3.3673-14.0012 7.6666v3.6548c0 .9493.3142 1.8492.865 2.6819-.553.8255-.865 1.7191-.865 2.6633v3.6548c0 4.3039 6.1492 7.6786 14.0012 7.6786 7.8499 0 13.9988-3.3747 13.9988-7.6786v-3.6548c0-.2049-.0266-.4056-.0542-.606-.7144.8958-4.5718 5.1376-13.6127 5.1376-8.0173 0-10.7806-3.8577-11.0668-4.3807-.1169-.2137-.2019-.4362-.0765-.5667 2.5482 1.6889 6.4118 2.7492 10.8114 2.7492zm-11.3-11c0-2.8444 5.0601-5.15 11.302-5.15s11.302 2.3057 11.302 5.15-5.0601 5.15-11.302 5.15-11.302-2.3057-11.302-5.15z"/><path d="m45.8542 44.7261v.6766h1.5551v-.5565c.3837.024 1.0024.0191 1.4.0191v.5374h1.5168v-.6166c2.7834-.2999 4.1094-1.2643 4.1094-2.6701 0-.5469-.0571-.7845-.3076-1.3435h-2.0559c.2123.5182.2886.7773.2886 1.2546 0 .6166-.5938 1.1155-2.0344 1.334v-1.7634h-1.5168v1.8928c-.5807.0292-.7961.0217-1.4 0v-1.8928h-1.5551v1.7538c-1.4023-.2089-2.1322-.6575-2.1322-1.3748 0-.4078.0763-.6454.2479-1.1539h-2.168c-.174.4269-.2312.7269-.2312 1.1226 0 1.4157 1.4404 2.4208 4.2834 2.7807z"/></svg>