<?xml version="1.0" encoding="utf-8"?>
<!-- Generator: Adobe Illustrator 19.2.0, SVG Export Plug-In . SVG Version: 6.00 Build 0)  -->
<svg version="1.0" xmlns="http://www.w3.org/2000/svg" xmlns:xlink="http://www.w3.org/1999/xlink" x="0px" y="0px"
	 viewBox="0 0 64 64" enable-background="new 0 0 64 64" xml:space="preserve">
<g id="achtergrond">
</g>
<g id="paneel_1">
	<path d="M52.8904,40.7019c-0.4161-2.8254-0.8719-5.6454-1.3517-8.4608c-0.2452-1.4395-1.7806-1.9891-2.8544-1.0079
		c-2.175,1.9877-4.3241,4.005-6.447,6.0483c-1.0701,1.03-0.7296,2.521,0.6505,3.078c0.4725,0.1908,0.9646,0.3337,1.4803,0.5095
		C43.4153,44.7759,39.0676,49.0284,35,49V22.4c-2.5579,0.1936-3.5037-0.3988-3.3688-0.6033
		c0.1227,0.0072,0.2443,0.0186,0.3688,0.0186c3.4492,0,6.2454-2.7961,6.2454-6.2453c0-3.4492-2.7961-6.2454-6.2454-6.2454
		s-6.2454,2.7961-6.2454,6.2454c0,2.3616,1.3115,4.4161,3.2454,5.4775V49c-4.0676,0.0284-8.4153-4.2241-9.3682-8.1309
		c0.5157-0.1758,1.0078-0.3187,1.4803-0.5095c1.3801-0.557,1.7206-2.048,0.6505-3.078c-2.1229-2.0433-4.272-4.0607-6.447-6.0483
		c-1.0737-0.9813-2.6091-0.4316-2.8544,1.0079c-0.4797,2.8154-0.9355,5.6354-1.3517,8.4608c-0.2341,1.5888,0.9702,2.5657,2.5,2.0942
		c0.4028-0.1241,0.8003-0.2658,1.2131-0.4037C17.989,50.1123,23.5938,55,32,55s14.011-4.8877,17.1772-12.6076
		c0.4128,0.1379,0.8103,0.2796,1.2131,0.4037C51.9202,43.2676,53.1245,42.2907,52.8904,40.7019z M29.3625,15.57
		c0-1.4567,1.1808-2.6375,2.6375-2.6375s2.6375,1.1808,2.6375,2.6375c0,1.4566-1.1808,2.6375-2.6375,2.6375
		S29.3625,17.0266,29.3625,15.57z"/>
</g>
</svg>
