<?xml version="1.0" encoding="utf-8"?>
<!-- Generator: Adobe Illustrator 24.1.3, SVG Export Plug-In . SVG Version: 6.00 Build 0)  -->
<svg version="1.1" xmlns="http://www.w3.org/2000/svg" xmlns:xlink="http://www.w3.org/1999/xlink" x="0px" y="0px"
	 viewBox="0 0 64 64" style="enable-background:new 0 0 64 64;" xml:space="preserve">
<style type="text/css">
	.st0{fill:none;}
</style>
<g id="Box">
	<rect class="st0" width="64" height="64"/>
</g>
<g id="Icon">
	<g>
		<path d="M39.3,0.8c-7.6,0-15.2,4.7-15.2,14.3c0,0.4,0,0.8,0,1.2c-1.7-1.3-3.9-1.9-6.1-1.9c-4.8,0-9.5,2.9-9.5,8.9
			c0,3.2,1.7,6.6,4.2,9.6h10.6c2-2.3,3.4-4.9,4-7.4c1.5,2.6,3.6,5.1,5.9,7.4h12.4c5.4-5.3,9.1-11.7,9.1-17.8
			C54.6,5.5,47,0.8,39.3,0.8z M13.9,22.2c0,0.8,0.1,1.5,0.4,2.4l-3,0.9c-0.2-0.7-0.3-1.4-0.3-2.1c0-4.2,3-5.9,5.5-6.4
			C15,18,13.9,19.6,13.9,22.2z M32.7,13.2c0,1.2,0.2,2.5,0.6,3.8l-4.9,1.4c-0.3-1.1-0.5-2.3-0.5-3.3c0-6.8,4.8-9.5,8.9-10.2
			C34.5,6.5,32.7,9.1,32.7,13.2z"/>
		<path d="M44.7,38.2l-2.1-0.9l2-1.4c0.4-0.3,0.2-0.9-0.3-0.9h-9.7c-0.5,0-0.7,0.6-0.3,0.9l3.2,2.3l-4.5,23.2
			c-0.2,0.8,0.4,1.6,1.2,1.8c1.3,0.2,1.7-0.9,1.8-1.2l4.5-23.3c0.1,0,0.3,0,0.3,0.4c0,0.2,0,1.9,0,3.6c1.4-0.6,2.7-1.4,4-3.1
			C45.4,39,45.2,38.5,44.7,38.2z"/>
		<path d="M21.5,38c0.2-0.3,0.1-0.6-0.2-0.8l-1.1-0.5l1.2-0.8c0.4-0.3,0.2-0.9-0.3-0.9h-6c-0.5,0-0.7,0.6-0.3,0.9l2,1.4l3.8,19.9
			c0,0.2,0.4,1.2,1.5,1c0.7-0.1,1.1-0.8,1-1.5l-3.3-17.2C20.4,39.2,20.9,38.8,21.5,38z"/>
	</g>
</g>
</svg>
