<svg xmlns="http://www.w3.org/2000/svg" viewBox="0 0 64 64"><defs><style>.cls-1{fill:none;}</style></defs><g id="BOX"><rect class="cls-1" width="64" height="64"/></g><g id="ICOON"><path d="M47,8V6A60.07,60.07,0,0,0,33,8V9.83c-7.58-.46-13,.72-16,3.51a9.28,9.28,0,0,0-3,7.16c0,4,1.83,6.49,3.59,8.86,2.09,2.81,4.07,5.48,3.35,11.22l-.25,0a.41.41,0,0,0-.45.3L16.92,54.57a1,1,0,0,0,.83,1.22l4.73.72a1,1,0,0,0,1.15-.92l.9-14.1a.4.4,0,0,0-.3-.4l-2.77-.41s0-.24.19-.26A12.66,12.66,0,0,0,24,40c.55-6.32-1.86-9.57-4-12.46-1.61-2.16-3-4-3-7.07a6.31,6.31,0,0,1,2-4.95c2.43-2.21,7.25-3.14,14-2.71v.9a9.31,9.31,0,0,0-7.63,9.14V53c0,3.89,7.51,4.19,9.81,4.19S45,56.91,45,53V22.88a9.31,9.31,0,0,0-7.81-9.17v-1.2A34.74,34.74,0,0,1,44,12V10a67.88,67.88,0,0,0-6.82.24v-1A39.61,39.61,0,0,1,47,8ZM42,22.88V43.07c-3.16,1.42-10.46,1.42-13.62,0V22.88a6.31,6.31,0,0,1,6.3-6.3h1A6.31,6.31,0,0,1,42,22.88Z"/></g></svg>