<svg xmlns="http://www.w3.org/2000/svg" viewBox="0 0 64 64"><defs><style>.cls-1{fill:none;}</style></defs><g id="BOX"><rect class="cls-1" width="64" height="64"/></g><g id="ICOON"><path d="M37.1,23.52l14.2-9.33,1-.69c1.3-1,.21-3.16.21-3.16L35.74,21.46s6.37-10,8.48-13.48c.3-.49.51-.84.61-1,.78-1.44-1.1-3-1.1-3L31.11,24.22a1.75,1.75,0,0,0,.05,2,1.8,1.8,0,0,0,1.6.53l19.71-3.11L54,23.34C55.64,23,56,20.53,56,20.53Z"/><path d="M33.31,46.47c-1.2,4.3-4.14,6.9-8.09,7.13a8.88,8.88,0,0,1-8.79-5.12c-2.47-6,3.23-10.19,4.13-10.82a8.6,8.6,0,0,0-3-4.15A15.19,15.19,0,0,0,11.77,40a12.8,12.8,0,0,0,0,10.43,14,14,0,0,0,13.79,8.26c6.16-.37,10.91-4.42,12.69-10.85C40.12,41,42,39.27,48,39.27V34.18c-9.43,0-12.53,4.51-14.69,12.29"/><path d="M22,37.13a3.1,3.1,0,0,0,1.12-.59c.45-.42,5.29-7,5.29-7L27,27.48l-3.4,1.66-3.13-4.58S16,26.9,14.32,27.93a2.61,2.61,0,0,0-.13,3l5.32-3.08,1.56,2.32c-1.38.57-2.1.87-2.5,1.09A1.65,1.65,0,0,0,18,32a9.62,9.62,0,0,1,4,5.12"/><rect x="27.27" y="25.34" width="2.65" height="4.76" rx="1" transform="translate(-10.88 22.4) rotate(-36.44)"/></g></svg>