<?xml version="1.0" encoding="utf-8"?>
<!-- Generator: Adobe Illustrator 21.0.2, SVG Export Plug-In . SVG Version: 6.00 Build 0)  -->
<!DOCTYPE svg PUBLIC "-//W3C//DTD SVG 1.1//EN" "http://www.w3.org/Graphics/SVG/1.1/DTD/svg11.dtd">
<svg version="1.1" xmlns="http://www.w3.org/2000/svg" xmlns:xlink="http://www.w3.org/1999/xlink" x="0px" y="0px" width="64px"
	 height="64px" viewBox="0 0 64 64" style="enable-background:new 0 0 64 64;" xml:space="preserve">
<style type="text/css">
	.st0{fill:none;}
	.st1{fill:#FFFFFF;}
</style>
<g id="_x36_4px_Box">
	<rect class="st0" width="64" height="64"/>
</g>
<g id="Icon">
	<g>
		<path d="M54,28c-0.1,0-0.3,0-0.4,0L38.1,12.6c1-1.9,0.8-4.3-0.8-5.9c-2-2-5.1-2-7.1,0l-2.5,2.5C23.2,7.5,18,8.4,14.4,12l0,0
			c-0.4,0.4-0.4,1.2,0,1.6l4.8,4.8c-0.4,1.8,0.1,3.7,1.5,5c1.4,1.4,3.3,1.9,5,1.5l4.8,4.8c0.4,0.4,1.2,0.4,1.6,0l0,0
			c3.6-3.6,4.5-8.8,2.8-13.3L50,31.6c0,0.1,0,0.3,0,0.4s0,0.3,0,0.4L34.4,48c-0.1,0-0.3,0-0.4,0c-3,0-5.6,1.9-6.6,4.6l5.4,1.1
			c0.3,0.1,0.3,0.3,0.2,0.4H23c-2.8,0-5,2.2-5,5h32c0-2.8-2.2-5-5-5h-4.1c-0.2-1.4-0.8-2.7-1.7-3.7L53.6,36c0.1,0,0.3,0,0.4,0
			c2.2,0,4-1.8,4-4S56.2,28,54,28z"/>
		<path d="M18,27.5l-1-1c-0.5-0.5-1.4-0.5-1.8,0.1l-3,3.8c-0.4,0.5-0.4,1.3,0.1,1.8l0,0c0.5,0.5,1.3,0.5,1.8,0.1l3.8-3
			C18.5,28.9,18.5,28,18,27.5z"/>
		<path d="M26.5,38.8L26.5,38.8c0.7,0,1.3-0.5,1.4-1.2l0.5-4.8c0.1-0.7-0.5-1.4-1.2-1.4h-1.4c-0.7,0-1.3,0.6-1.2,1.4l0.5,4.8
			C25.2,38.3,25.8,38.8,26.5,38.8z"/>
		<path d="M13.1,18.6v-1.4c0-0.7-0.6-1.3-1.4-1.2l-4.8,0.5c-0.7,0.1-1.2,0.7-1.2,1.4v0c0,0.7,0.5,1.3,1.2,1.4l4.8,0.5
			C12.5,19.9,13.1,19.4,13.1,18.6z"/>
	</g>
</g>
</svg>
