<?xml version="1.0" encoding="utf-8"?>
<!-- Generator: Adobe Illustrator 19.1.0, SVG Export Plug-In . SVG Version: 6.00 Build 0)  -->
<svg version="1.2" baseProfile="tiny" xmlns="http://www.w3.org/2000/svg" xmlns:xlink="http://www.w3.org/1999/xlink" x="0px"
	 y="0px" width="64px" height="64px" viewBox="0 0 64 64" xml:space="preserve">
<g id="Box">
	<rect fill="none" width="64" height="64"/>
</g>
<g id="Icon">
	<g>
		<path d="M59,2H32c-0.5523,0-1,0.4477-1,1v3.4957c0,0.3195,0.0493,0.6348,0.1505,0.9379c0.4702,1.4078,1.965,6.2806,3.379,15.1547
			c0.2132,1.338,0.3961,2.6447,0.5529,3.9072c2.4185,2.9485,4.1179,7.037,4.1179,12.6047c0,5.8532-0.9058,10.5441-2.0881,14.2139
			C37.629,53.7363,38.2805,54,39,54h13c1.6569,0,3-1.3431,3-3v-7.4088c-1.0952-0.2111-5.8893-1.137-6.1702-1.2272
			C48.5126,42.2623,48.559,42.0562,48.5799,42H55c0,0-0.2353-8.7059,1.4706-19.4117c1.414-8.874,2.9088-13.7469,3.379-15.1547
			C59.9507,7.1306,60,6.8152,60,6.4957V3C60,2.4477,59.5523,2,59,2z"/>
		<path d="M29.5544,24.5862c-1.5067-0.2894-5.9089-1.1378-6.1717-1.2222c-0.3172-0.1017-0.2708-0.3079-0.2499-0.3641H28v-8.5381
			C28,10.872,25.0898,10,21.5,10S15,10.872,15,14.4619v8.8354C10.6369,25.0854,5,29.2897,5,39.1
			c0,12.9755,4.6037,19.9662,6.3442,22.1455C11.7261,61.7236,12.2983,62,12.9103,62h16.1794c0.6119,0,1.1842-0.2764,1.5661-0.7545
			C32.3963,59.0662,37,52.0755,37,39.1C37,31.1381,33.2863,26.8689,29.5544,24.5862z M27.5761,39.5801
			c0.3984,0.8575,0.6272,1.8099,0.6272,2.8177c0,3.7021-3.0012,6.7033-6.7033,6.7033s-6.7033-3.0012-6.7033-6.7033
			c0-1.0078,0.2288-1.9601,0.6272-2.8177c-1.7032-0.0139-3.0804-1.3966-3.0804-3.1032c0-1.7152,1.3905-3.1057,3.1057-3.1057
			c1.6846,0,3.0482,1.3434,3.0967,3.0162c0.8922-0.4394,1.8924-0.6929,2.9541-0.6929s2.062,0.2535,2.9541,0.6929
			c0.0485-1.6728,1.4121-3.0162,3.0967-3.0162c1.7152,0,3.1057,1.3905,3.1057,3.1057
			C30.6566,38.1835,29.2793,39.5662,27.5761,39.5801z"/>
		<circle cx="21.5" cy="45.1716" r="1.5529"/>
		<circle cx="18.9565" cy="40.6553" r="1.2717"/>
		<circle cx="24.0435" cy="40.6553" r="1.2717"/>
	</g>
</g>
</svg>
