<?xml version="1.0" encoding="utf-8"?>
<!-- Generator: Adobe Illustrator 17.1.0, SVG Export Plug-In . SVG Version: 6.00 Build 0)  -->
<svg version="1.2" baseProfile="tiny" xmlns="http://www.w3.org/2000/svg" xmlns:xlink="http://www.w3.org/1999/xlink" x="0px"
	 y="0px" width="64px" height="64px" viewBox="0 0 64 64" xml:space="preserve">
<g id="Box">
	<rect fill="none" width="64" height="64"/>
</g>
<g id="Icon">
	<g>
		<path d="M60,42H4c-0.5523,0-1,0.4477-1,1v12c0,0.5523,0.4477,1,1,1h56c0.5522,0,1-0.4477,1-1V43C61,42.4477,60.5522,42,60,42z
			 M33,49.7792V52h-2v-2.2208C30.3762,49.4277,29.95,48.767,29.95,48c0-1.1322,0.9178-2.05,2.05-2.05s2.05,0.9178,2.05,2.05
			C34.05,48.767,33.6238,49.4277,33,49.7792z"/>
		<path d="M57,40v-6.6667c0-0.8655-0.2807-1.7076-0.8-2.4L51,24l-1.5177-7.5883C49.2018,15.0094,47.9706,14,46.5406,14H32.5585
			c0.8642-1.9385,1.5291-4.2758,1.0494-7.3125L33.3408,5H19.9717l0.3652,2.3125c0.4413,2.7916-0.4664,4.622-1.5554,6.6875h-1.3221
			c-1.4301,0-2.6613,1.0094-2.9418,2.4117L13,24l-5.2,6.9333c-0.5193,0.6924-0.8,1.5345-0.8,2.4V40H57z M35,17h11.5405l1.0001,5H35
			V17z M29.4191,25h-9.3201c-4.4963-8,3.4779-10,2.2132-18h9.3201C32.897,15,24.9229,17,29.4191,25z"/>
	</g>
</g>
</svg>
