<?xml version="1.0" encoding="utf-8"?>
<!-- Generator: Adobe Illustrator 19.1.0, SVG Export Plug-In . SVG Version: 6.00 Build 0)  -->
<svg version="1.2" baseProfile="tiny" xmlns="http://www.w3.org/2000/svg" xmlns:xlink="http://www.w3.org/1999/xlink" x="0px"
	 y="0px" width="64px" height="64px" viewBox="0 0 64 64" xml:space="preserve">
<g id="Box">
	<rect fill="none" width="64" height="64"/>
</g>
<g id="Icon">
	<path d="M57.0864,24.7485c-1.6602-2.2161-4.7861-3.2549-9.5042-3.1483c0.3103,0.8843,0.3855,1.5891,0.3711,2.0934
		c-0.0175,0.613-0.246,0.5604-0.3519,0.5372c0,0-0.0646-0.2497-0.16-0.5342c-0.4117-1.2288-1.0681-2.2276-1.9961-2.9856
		c-1.9926-1.6269-4.9651-1.9348-9.0175-0.9274c-0.2338-1.4517-1.1569-2.6597-2.4278-3.295V14h3v-4h-3V7h-4v3h-3v4h3v2.4885
		c-1.271,0.6354-2.1942,1.8436-2.4278,3.2953c-4.0535-1.0077-7.0258-0.6999-9.0175,0.9271
		c-0.8514,0.6954-1.4742,1.5935-1.8891,2.6859c-0.1668,0.439-0.267,0.834-0.267,0.834c-0.106,0.0233-0.3344,0.0758-0.3519-0.5372
		c-0.0144-0.5043,0.0607-1.2086,0.3707-2.0925c-4.7183-0.1057-7.8433,0.9321-9.5038,3.1473
		c-1.6777,2.2393-1.6631,5.4287,0.0439,9.479c2.3359,5.5459,5.0579,7.8642,5.7148,11.8055C11.7245,46.1901,11,47.0076,11,48
		c0,1.1046,0.8954,2,2,2c0.1123,0,0.2206-0.0153,0.3279-0.0331L14,54h36l0.6721-4.0331C50.7794,49.9847,50.8877,50,51,50
		c1.1046,0,2-0.8954,2-2c0-0.9924-0.7245-1.8099-1.6723-1.967c0.6579-3.9471,3.3722-6.2436,5.7148-11.8055
		C58.7495,30.1772,58.7642,26.9878,57.0864,24.7485z M14.6757,39.9195c0.7282-0.7082,1.1099-1.933,0.8941-3.2526
		c-0.3099-1.8945-1.7169-3.2411-3.1427-3.0079c-0.4446,0.0727-0.8298,0.3032-1.152,0.6259
		c-0.2631-0.5322-0.5077-1.0586-0.7238-1.5715c-0.7769-1.8442-1.4971-4.3174-0.5161-5.6265
		c0.512-0.6834,1.9725-1.6682,6.1192-1.5947c-0.1944,1.5069-0.1287,3.265,0.228,5.3207c1.3796,7.9484,3.9882,9.9078,0.9458,10.3714
		C15.766,41.4224,14.7686,40.0526,14.6757,39.9195z M18,50.15c-1.1874,0-2.15-0.9626-2.15-2.15c0-1.1874,0.9626-2.15,2.15-2.15
		s2.15,0.9626,2.15,2.15C20.15,49.1874,19.1874,50.15,18,50.15z M25,50.15c-1.1874,0-2.15-0.9626-2.15-2.15
		c0-1.1874,0.9626-2.15,2.15-2.15s2.15,0.9626,2.15,2.15C27.15,49.1874,26.1874,50.15,25,50.15z M26.2174,39.8295
		c-2.6782,0.4379-3.9367-2.3783-3.9647-2.4418c1.3281-0.4067,2.2562-1.9046,2.1497-3.6285
		c-0.1212-1.962-1.5358-3.4711-3.1595-3.3708c-0.3292,0.0203-0.6352,0.1199-0.9232,0.2587
		c-0.3802-1.9989-0.8722-5.6302,0.7018-6.9151c0.7415-0.6056,2.7498-1.267,7.9785,0.549v4.0826
		c-1.1841,0.2708-2.2541,1.3545-2.2541,3.0955c0,2.9783,3.0542,3.6705,3.0542,5.5779
		C29.8001,38.6196,28.7822,39.3279,26.2174,39.8295z M32,50.15c-1.1874,0-2.15-0.9626-2.15-2.15c0-1.1874,0.9626-2.15,2.15-2.15
		s2.15,0.9626,2.15,2.15C34.15,49.1874,33.1874,50.15,32,50.15z M39,50.15c-1.1874,0-2.15-0.9626-2.15-2.15
		c0-1.1874,0.9626-2.15,2.15-2.15s2.15,0.9626,2.15,2.15C41.15,49.1874,40.1874,50.15,39,50.15z M43.6803,30.647
		c-0.288-0.1389-0.5941-0.2384-0.9232-0.2587c-1.6237-0.1003-3.0383,1.4089-3.1595,3.3708
		c-0.1064,1.7239,0.8216,3.2218,2.1497,3.6285c-0.028,0.0635-1.2869,2.8807-3.9661,2.4417
		c-0.0189-0.0031-0.0463,0.0135-0.0677,0.0159c-2.4005-0.4304-3.5173-1.2479-3.5173-2.8083c0-1.9075,3.0542-2.5997,3.0542-5.5779
		c0-1.739-1.0675-2.8218-2.2504-3.0943v-4.084c5.2288-1.8165,7.2374-1.1539,7.9785-0.5487
		C44.5524,25.0167,44.0605,28.6482,43.6803,30.647z M46,50.15c-1.1874,0-2.15-0.9626-2.15-2.15c0-1.1874,0.9626-2.15,2.15-2.15
		s2.15,0.9626,2.15,2.15C48.15,49.1874,47.1874,50.15,46,50.15z M53.4487,32.7139c-0.2161,0.5128-0.4606,1.039-0.7236,1.5711
		c-0.3222-0.3228-0.7075-0.5532-1.1522-0.626c-1.4258-0.2332-2.8328,1.1135-3.1427,3.0079
		c-0.2158,1.3195,0.1659,2.5444,0.8941,3.2526c-0.0929,0.1331-1.0903,1.5029-2.6525,1.2649
		c-3.0427-0.4636-0.4334-2.4256,0.9458-10.3714c0.3566-2.0557,0.4224-3.8137,0.228-5.3205c4.149-0.0735,5.6075,0.9113,6.1191,1.5944
		C54.9458,28.396,54.2256,30.8691,53.4487,32.7139z"/>
</g>
</svg>
