<?xml version="1.0" encoding="utf-8"?>
<!-- Generator: Adobe Illustrator 19.2.0, SVG Export Plug-In . SVG Version: 6.00 Build 0)  -->
<svg version="1.0" xmlns="http://www.w3.org/2000/svg" xmlns:xlink="http://www.w3.org/1999/xlink" x="0px" y="0px"
	 viewBox="0 0 64 64" enable-background="new 0 0 64 64" xml:space="preserve">
<g id="achtergrond">
</g>
<g id="paneel_1">
	<path d="M52.3741,48.7813h-0.5544c0,0,0.0924-2.3085-1.5679-2.585c-1.6617-0.2772-4.6155-0.3688-8.1224-2.5843
		c-3.5067-2.2153-4.0612-7.6596-4.2452-10.5708c-0.1841-2.9105,1.7534-20.7159,1.7534-21.362c0-0.646-1.9375-0.7384-4.8913-0.646
		c-2.9538,0.0924-7.4286,0.6929-7.4286,0.6929s0.0014,0.7655,0.1208,3.2765c0.1237,2.5956-0.9979,10.7968-0.9979,10.7968
		s0.2765-5.6291,0.1841-8.1209c-0.0924-2.4918-0.3696-6.3682-0.7384-6.6759c-0.3682-0.3063-1.7527-0.1536-5.7222,0
		c-3.9681,0.1549-7.5673,0.4925-8.3064,0.769c-0.7378,0.2772,0.1848,4.43,0.8316,11.9063
		c0.6453,7.4748,1.2914,9.9667,2.1229,13.6583c0.8302,3.6923,0.0917,4.7072-0.2779,6.3682c-0.3682,1.661,0.1855,3.322,0.1855,3.322
		L14.073,47.212l0.8309,3.5992l2.5835,0.6461l2.8615-0.1848c0,0,0.8309,0.6461,2.0306,1.1998
		c1.1997,0.5536,5.9062,0.9225,10.1522,0.5536c2.6518-0.2303,4.15-0.7854,4.9027-1.1691c0.0121-0.5246,0.027-1.0456,0.0433-1.4108
		c0.0057-0.1244-0.3959-0.2389-0.3973-0.3568c-0.017-0.9019-0.1677-1.2359-0.7648-1.8621c-0.6894-0.722-1.9531-0.9445-4.0754-1.8671
		c-2.123-0.9226-2.8472-2.9325-2.8472-2.9325s0.5636,0.4819,2.253,1.3461c2.2616,1.1585,3.0676,1.3483,4.0725,1.7335
		c2.3497,0.9005,2.4891,1.742,2.661,3.3938v1.6183c0.4798,0.0974,1.4456,0.295,2.3661,0.4918c1.2921,0.2771,3.5067,0,6.2751-0.462
		c2.769-0.4613,5.2609-1.0143,5.3533-1.3838C52.4664,49.7955,52.3741,48.7813,52.3741,48.7813z"/>
</g>
</svg>
