<?xml version="1.0" encoding="utf-8"?>
<!-- Generator: Adobe Illustrator 19.2.0, SVG Export Plug-In . SVG Version: 6.00 Build 0)  -->
<svg version="1.0" xmlns="http://www.w3.org/2000/svg" xmlns:xlink="http://www.w3.org/1999/xlink" x="0px" y="0px"
	 viewBox="0 0 64 64" enable-background="new 0 0 64 64" xml:space="preserve">
<g id="achtergrond">
</g>
<g id="paneel_1">
	<g>
		<path d="M42.8187,16.9957c-1.0014,0-1.9401,0.1617-2.8055,0.4483C40.0054,17.9913,40,18.5485,40,19.1251
			c0,0.4983,0.0037,0.9836,0.0095,1.4603c0.7909-0.4445,1.7386-0.6927,2.8092-0.6927c3.1635,0,5.2888,2.1256,5.2888,5.2893
			c0,1.0703-0.2482,2.0178-0.6924,2.8084C47.8917,27.9963,48.3769,28,48.8749,28c0.5767,0,1.134-0.0054,1.6815-0.0132
			c0.2865-0.8652,0.448-1.8036,0.448-2.8047C51.0045,20.4385,47.5619,16.9957,42.8187,16.9957z"/>
		<path d="M42.8187,10.9385c-0.8448,0-1.6665,0.0699-2.4635,0.1978c-0.1078,0.9041-0.1936,2.0118-0.2535,3.284
			c0.8656-0.2028,1.7711-0.3215,2.717-0.3215c6.3181,0,11.0826,4.7648,11.0826,11.0832c0,0.9457-0.1187,1.8509-0.3214,2.7162
			c1.2723-0.0599,2.3801-0.1457,3.2839-0.2535c0.1278-0.7968,0.1977-1.6182,0.1977-2.4628
			C57.0617,17.0619,50.9385,10.9385,42.8187,10.9385z"/>
		<path d="M43.8452,22H9.1548C7.9648,22,7,22.9647,7,24.1548v26.6903C7,52.0352,7.9648,53,9.1548,53h34.6903
			C45.0352,53,46,52.0352,46,50.8452V24.1548C46,22.9647,45.0352,22,43.8452,22z M20,50.3281l-6.2429-3.0433v-0.2523L20,44.0942
			V50.3281z M29.4152,47.3898l-6.2429,2.9384v-6.2339l6.2429,3.0433V47.3898z M36.0058,50.3599
			c-1.739,0-3.1487-1.4097-3.1487-3.1487s1.4097-3.1487,3.1487-3.1487c1.739,0,3.1487,1.4097,3.1487,3.1487
			S37.7448,50.3599,36.0058,50.3599z M41,37.926C41,39.0714,40.0715,40,38.926,40H14.074C12.9285,40,12,39.0714,12,37.926V28.074
			C12,26.9285,12.9285,26,14.074,26H38.926C40.0715,26,41,26.9285,41,28.074V37.926z"/>
	</g>
</g>
</svg>
