<?xml version="1.0" encoding="utf-8"?>
<!-- Generator: Adobe Illustrator 18.1.1, SVG Export Plug-In . SVG Version: 6.00 Build 0)  -->
<svg version="1.2" baseProfile="tiny" xmlns="http://www.w3.org/2000/svg" xmlns:xlink="http://www.w3.org/1999/xlink" x="0px"
	 y="0px" width="64px" height="64px" viewBox="0 0 64 64" xml:space="preserve">
<g id="Box">
	<rect fill="none" width="64" height="64"/>
</g>
<g id="Icon">
	<path d="M60.9997,15h-2v-1.0714c0-0.5128-0.4478-0.9286-1-0.9286h-1v-1c0-0.5523-0.4478-1-1-1H51.9
		c-0.3344,0-0.6466,0.1671-0.8321,0.4453L50.0315,13H9v0.0001C5.7955,13.0001,5,16,5,16l-2.0003,8.1938
		c0,0.9639,0.6961,1.7617,1.6386,1.9636c5.0145,1.0742,3.4883,7.5133-0.233,15.1802c-1.8797,3.8728-2.3004,6.8646-2.3693,8.9652
		C1.9693,52.3355,3.4961,54,5.5298,54h9.5305c2.058,0,3.8461-1.4145,4.3198-3.4172l2.6099-11.0337
		C23.7199,39.8439,25.3492,40,26.8623,40c4.1807,0,7.5234-1.1235,9.9775-3.3613C40.737,33.0849,40.9836,27.893,40.95,26h17.0497
		c0.5522,0,1-0.4157,1-0.9286V18c0.0713-0.0273,0.333-0.0685,0.4664,0.334L60.4356,23h0.5641c0.5522,0,1-0.4477,1-1v-6
		C61.9997,15.4477,61.5519,15,60.9997,15z M34.123,33.7021c-2.2642,2.2159-6.122,2.7732-11.2089,1.9392
		c0,0,0.929-5.7982,3.1129-7.2312C26.6593,32.7662,30.7582,33,30.7582,33c0.5433,0,0-0.6875,0-0.6875
		c-1.3696-2.1812-0.6762-4.9795-0.3663-5.9566C31.8431,25.8235,37.0267,26,37.0267,26
		C37.0281,27.228,36.7252,31.1555,34.123,33.7021z"/>
</g>
</svg>
