<?xml version="1.0" encoding="utf-8"?>
<!-- Generator: Adobe Illustrator 19.2.0, SVG Export Plug-In . SVG Version: 6.00 Build 0)  -->
<svg version="1.0" xmlns="http://www.w3.org/2000/svg" xmlns:xlink="http://www.w3.org/1999/xlink" x="0px" y="0px"
	 viewBox="0 0 64 64" enable-background="new 0 0 64 64" xml:space="preserve">
<g id="achtergrond">
</g>
<g id="paneel_1">
	<rect x="0" fill="none" width="64" height="64"/>
	<g>
		<path d="M53.7728,3.2131c-0.0519,0.0819-0.1035,0.162-0.1553,0.2434c-1.1857,1.8625-2.3579,3.6009-3.5152,5.2293
			c-0.08,0.1126-0.1597,0.223-0.2396,0.3343c-0.2012,0.2804-0.4021,0.5583-0.6025,0.8326
			c-1.3491,1.8472-2.6765,3.5418-3.9795,5.1013c-0.2182,0.3383-0.3843,0.727-0.4584,0.9996
			c-0.2698,0.993,0.1467,1.8625,0.322,2.1653c0,0-0.0838,0.0962-0.2406-0.0066c-0.0181-0.0119-0.0355-0.0274-0.0534-0.0404
			c-0.4003-0.289-0.7428-0.8268-0.8927-1.3417c-0.0036-0.0116-0.0071-0.0231-0.0105-0.0347
			c-0.0041-0.0147-0.0098-0.0297-0.0135-0.0444c-0.0014-0.0057-0.0022-0.0114-0.0036-0.0171
			c-0.0075-0.0275-0.0113-0.0542-0.0179-0.0816c-0.1802-0.7478-0.0374-1.4253,0.0447-1.7101c0,0-0.0054-0.0032-0.0133-0.007
			c-0.0333-0.0158-0.1303-0.0451-0.2449,0.0789c-0.2752,0.2979-0.4772,0.7501-0.5795,1.2124
			c-0.1349,0.5243-0.7396,1.9809-1.2197,2.6391c-0.2212,0.2342-0.4415,0.4646-0.661,0.6913
			c-0.9618,0.9935-1.9067,1.9148-2.834,2.7726c-2.207,2.0416-4.3128,3.7202-6.2976,5.1269
			c-1.2854,0.911-2.5198,1.7082-3.6989,2.4183l-1.5664,2.9699c-0.082,0.1601-0.1637,0.3159-0.2451,0.4659
			c-0.1129,0.2082-0.2252,0.4092-0.3362,0.597c-0.0535,0.0906-0.1068,0.157-0.1584,0.2066
			c-0.1627,0.1562-0.3083,0.1359-0.3886,0.1054c0.1218-0.557,0.2326-1.1171,0.338-1.6784c0.0725-0.3861,0.1438-0.7724,0.2092-1.1601
			c0.0207-0.1229,0.0365-0.2188,0.0487-0.2961c-2.233,1.2334-4.2271,2.1758-5.9415,3.0359
			c-1.4347,0.7198-2.6742,1.3826-3.6918,2.1104c-0.1803,0.129-0.3546,0.2598-0.521,0.3935
			c-0.3696,0.2973-0.7053,0.6077-1.0036,0.9395c-1.0206,1.1357-1.5281,3.0855-1.5685,4.6441
			c-0.0088,0.3407,0.0567,1.4975,0.0999,1.8398c0.0953,0.7555,0.4822,2.0285,0.8465,2.7396
			c0.071,0.1387,0.1476,0.2757,0.2287,0.4112c0.4858-0.4087,1.1064-0.9214,1.6812-1.398c0.2162-0.1865,0.4322-0.3676,0.6479-0.5444
			c0.0597-0.0489,0.1191-0.0956,0.1786-0.1437c0.3616-0.3032,0.6431-0.5439,0.7639-0.6596c0.1225-0.1173,4.004-3.2558,4.3558-3.5598
			c1.8872-1.631,7.0913-5.1135,8.0778-5.9628c0.0178-0.0153,0.0382-0.0328,0.0536-0.0461l0.0167-0.011
			c1.508-1.2257,2.8816-2.3383,3.2267-2.605c2.4859-2.0028,4.7529-3.9492,6.7923-5.7834c0.102-0.0383,0.267-0.0823,0.1205,0.1149
			c-0.3086,0.4149-0.7474,0.9385-1.3136,1.5546c-0.2241,0.2438-0.4695,0.503-0.7342,0.7754
			c-0.4033,0.4149-0.8526,0.8613-1.3493,1.3369c-0.1225,0.1173-0.3806,0.3452-0.7324,0.6492
			c-1.8873,1.631-6.4807,5.4622-7.4669,6.3113c-0.0177,0.0153-0.0381,0.0327-0.0535,0.046l-0.0167,0.011
			c-1.5081,1.2257-2.8817,2.3384-3.2268,2.6051c-1.3052,1.0515-2.5483,2.0868-3.7315,3.0992
			c-0.1261,0.1156-0.2527,0.2309-0.3771,0.3483c-1.3153,1.2415-2.5635,2.5514-3.7287,3.9299
			c-0.1472,0.1742-0.5452,0.6372-1.0806,1.2596c-0.9713,1.1291-2.3966,2.785-3.6097,4.2076
			c-0.432,0.5066-0.8365,0.9831-1.1845,1.3961c-0.5584,0.6628-0.9704,1.1615-1.1099,1.3523
			c-2.1674,2.601-4.5576,5.0067-6.9951,7.1943c0.0624,0.0944,0.2257,0.2421,0.6261,0.0665
			c0.4936-0.2165,1.0316-0.4814,1.6019-0.7907c0.4034-0.2188,0.8225-0.4592,1.2556-0.7233
			c0.4137-0.2523,0.8398-0.5263,1.2745-0.8199c0.6622-0.4473,1.3449-0.9411,2.0381-1.482c0.2576-0.201,0.7951-0.7263,1.4789-1.424
			c0.5395-0.5504,1.1708-1.209,1.8308-1.904c0.3074-0.3237,0.6209-0.6552,0.9343-0.9874c0.8085-0.8569,1.6159-1.7178,2.3122-2.4581
			c0.535-0.5688,1.0024-1.0639,1.3556-1.4325c0.4955,0.4194,1.0003,0.7713,1.5128,1.062c0.1668,0.0946,0.3344,0.1831,0.5029,0.2649
			c0.8103,0.3934,1.6389,0.6367,2.4813,0.7439c0.9562,0.1217,1.9303,0.0654,2.9154-0.1448
			c3.7236-0.7943,7.606-3.8162,11.2901-8.0061c-1.5588,0.8286-3.3427,1.1929-5.0109,0.8156
			c-0.4793-0.1084-0.9495-0.2748-1.4014-0.513c0.1162,0.0109,0.2332,0.0174,0.3504,0.0213
			c0.5405,0.0461,1.1273-0.0247,1.7408-0.1895c0.3653-0.0914,0.7223-0.2147,1.0644-0.3675
			c2.5763-1.0688,6.0337-3.5684,7.9582-5.8604c0.2333-0.2779,0.4455-0.5529,0.6294-0.8218c0.4966-0.7259,0.958-1.4797,1.388-2.2546
			c0.0422-0.0673,0.0837-0.1352,0.1258-0.2026c-0.2333-0.0456-0.4554-0.0617-0.6627-0.0495
			c-1.0272,0.0604-1.7188,0.7322-1.9501,0.9948c0,0-0.1179-0.0488-0.0703-0.2302c0.0055-0.021,0.0147-0.0424,0.0213-0.0635
			c0.1465-0.4715,0.5473-0.9675,0.9876-1.2735c0.0098-0.0071,0.0197-0.0141,0.0295-0.021c0.0127-0.0085,0.025-0.0187,0.0378-0.0269
			c0.0049-0.0032,0.0101-0.0057,0.0151-0.0088c0.3222-0.2155,0.6562-0.3463,0.9506-0.4256c0.1034-0.0178,0.2072-0.0405,0.3116-0.068
			c0.1913-0.0502,0.3817-0.1164,0.5669-0.2008c0.0746-0.034,0.1493-0.0681,0.2215-0.108c0.5061-0.2797,0.9979-0.8061,1.167-1.3093
			l0.9946-1.6754c0.8217-1.4856,1.6048-2.984,2.3399-4.4741c0.26-0.5271,0.5144-1.0531,0.7623-1.5771
			c0.2466-0.5211,0.4872-1.0403,0.7213-1.5564c0.7331-1.6171,1.4021-3.2042,1.9986-4.7335
			c0.2111-0.5411,0.4135-1.0754,0.6059-1.6007c1.0159-2.774,1.7631-5.3068,2.1804-7.4116c0.3357-1.6931,0.3995-3.1045,0.332-4.1479
			C55.5649,1.8978,54.5721,1.9515,53.7728,3.2131z"/>
	</g>
</g>
</svg>
