<?xml version="1.0" encoding="utf-8"?>
<!-- Generator: Adobe Illustrator 19.1.0, SVG Export Plug-In . SVG Version: 6.00 Build 0)  -->
<svg version="1.2" baseProfile="tiny" xmlns="http://www.w3.org/2000/svg" xmlns:xlink="http://www.w3.org/1999/xlink" x="0px"
	 y="0px" width="64px" height="64px" viewBox="0 0 64 64" xml:space="preserve">
<g id="Box">
	<rect fill="none" width="64" height="64"/>
</g>
<g id="Icon">
	<g>
		<path d="M51.436,37.3015c-0.7869-0.3438-1.2036-1.0513-1.4258-1.794l-5.7451-1.1434c-0.3173-0.1018-0.2708-0.3079-0.25-0.3641H52
			v-5.3387C52,27.7438,51.187,27,50.1841,27H35.8159C34.813,27,34,27.7438,34,28.6613v5.3286h2.2234
			c-0.0353,1.0775-0.3185,2.726-1.6594,3.3116C32,38.4213,32.0613,38.5497,32.0613,42c0,0.6415,0,18,0,18
			c0.0042,2.1313,7.9143,1.99,10.9387,1.99S53.9244,62.1313,53.9286,60c0,0,0-17.3585,0-18
			C53.9286,38.5497,54,38.4213,51.436,37.3015z M50,52H36V42h14V52z"/>
		<path d="M35.8159,25h3.2588L32,18v-6c0-0.5518-0.4482-1-1-1h-1V7h3c0.5522,0,1-0.4478,1-1V4.4951
			c0-0.9434-0.6506-1.7602-1.5735-1.9556C31.187,2.277,29.136,2,26.0001,2c-4.892,0-11.8627,1.3482-14.2008,1.8307
			C11.334,3.9268,11,4.3354,11,4.8104V6c0,0.5522,0.4478,1,1,1h12v2.8103l4.1482,0.8256c0.3171,0.1018,0.2708,0.3079,0.2499,0.3641
			H23c-0.5518,0-1,0.4482-1,1v6l-7.3279,7.3546c-1.1281,1.1281-1.7079,2.7009-1.5566,4.289l2.4362,25.4365
			c0.0505,0.5112,0.4806,0.9009,0.9943,0.9009H30V42c0-3.0415,0.0992-4.2273,2-5.5699v-7.7689C32,26.6425,33.7119,25,35.8159,25z"/>
	</g>
</g>
</svg>
