<?xml version="1.0" encoding="utf-8"?>
<!-- Generator: Adobe Illustrator 21.0.2, SVG Export Plug-In . SVG Version: 6.00 Build 0)  -->
<svg version="1.2" baseProfile="tiny" xmlns="http://www.w3.org/2000/svg" xmlns:xlink="http://www.w3.org/1999/xlink" x="0px"
	 y="0px" width="64px" height="64px" viewBox="0 0 64 64" xml:space="preserve">
<g id="Box">
	<rect fill="none" width="64" height="64"/>
</g>
<g id="Icon">
	<g>
		<path d="M11.4,5.7l2.7,1.2l1.6-3.7L13,2c-1-0.4-1.7,0.2-2.2,1.2C10.4,4.2,10.4,5.2,11.4,5.7z M52.7,18.6c-1.6-0.2-3.2-0.4-4.9-0.6
			L17.1,4.4l-1.2,2.7l23,10.2c-0.6,0-1.1-0.1-1.7-0.1c-1.7-0.1-3.5-0.1-5.2-0.1c-6.9,0-13.9,0.5-20.7,1.5C7.8,19.2,5,22.5,5,26v27.7
			c0,3.5,2.8,6.3,6.3,6.3h41.4c3.5,0,6.3-2.8,6.3-6.3V26C59,22.5,56.2,19.2,52.7,18.6z M9,29v-3c0-1.5,1.4-3.2,2.8-3.4
			c6.7-1,13.4-1.5,20.2-1.5s13.5,0.5,20.1,1.5c1.5,0.2,2.9,1.9,2.9,3.4v3H9z M15.8,35.5c0-0.9,0.7-1.7,1.7-1.7s1.7,0.7,1.7,1.7
			c0,0.9-0.7,1.6-1.7,1.6S15.8,36.4,15.8,35.5z M16.2,41.5c0,0.9-0.7,1.6-1.7,1.6s-1.7-0.7-1.7-1.6c0-0.9,0.7-1.7,1.7-1.7
			S16.2,40.6,16.2,41.5z M20.5,39.8c0.9,0,1.7,0.7,1.7,1.7c0,0.9-0.7,1.6-1.7,1.6s-1.7-0.7-1.7-1.6C18.8,40.6,19.6,39.8,20.5,39.8z
			 M21.8,35.5c0-0.9,0.7-1.7,1.7-1.7s1.7,0.7,1.7,1.7c0,0.9-0.7,1.6-1.7,1.6S21.8,36.4,21.8,35.5z M26.5,39.8c0.9,0,1.7,0.7,1.7,1.7
			c0,0.9-0.7,1.6-1.7,1.6s-1.7-0.7-1.7-1.6C24.8,40.6,25.6,39.8,26.5,39.8z M27.8,35.5c0-0.9,0.7-1.7,1.7-1.7s1.7,0.7,1.7,1.7
			c0,0.9-0.7,1.6-1.7,1.6S27.8,36.4,27.8,35.5z M14.5,49.1c-0.9,0-1.7-0.7-1.7-1.6c0-0.9,0.7-1.7,1.7-1.7s1.7,0.7,1.7,1.7
			C16.2,48.4,15.4,49.1,14.5,49.1z M17.5,55.1c-0.9,0-1.7-0.7-1.7-1.6c0-0.9,0.7-1.7,1.7-1.7s1.7,0.7,1.7,1.7
			C19.2,54.4,18.4,55.1,17.5,55.1z M20.5,49.1c-0.9,0-1.7-0.7-1.7-1.6c0-0.9,0.7-1.7,1.7-1.7s1.7,0.7,1.7,1.7
			C22.2,48.4,21.4,49.1,20.5,49.1z M23.5,55.1c-0.9,0-1.7-0.7-1.7-1.6c0-0.9,0.7-1.7,1.7-1.7s1.7,0.7,1.7,1.7
			C25.2,54.4,24.4,55.1,23.5,55.1z M26.5,49.1c-0.9,0-1.7-0.7-1.7-1.6c0-0.9,0.7-1.7,1.7-1.7s1.7,0.7,1.7,1.7
			C28.2,48.4,27.4,49.1,26.5,49.1z M29.5,55.1c-0.9,0-1.7-0.7-1.7-1.6c0-0.9,0.7-1.7,1.7-1.7s1.7,0.7,1.7,1.7
			C31.2,54.4,30.4,55.1,29.5,55.1z M32.5,49.1c-0.9,0-1.7-0.7-1.7-1.6c0-0.9,0.7-1.7,1.7-1.7s1.7,0.7,1.7,1.7
			C34.2,48.4,33.4,49.1,32.5,49.1z M32.5,43.1c-0.9,0-1.7-0.7-1.7-1.6c0-0.9,0.7-1.7,1.7-1.7s1.7,0.7,1.7,1.7
			C34.2,42.4,33.4,43.1,32.5,43.1z M48,51.1c-3.9,0-7.1-3.2-7.1-7.1c0-3.9,3.2-7.1,7.1-7.1s7.1,3.2,7.1,7.1
			C55.1,47.9,51.9,51.1,48,51.1z M48,39c-2.8,0-5,2.2-5,5s2.2,5,5,5s5-2.2,5-5S50.8,39,48,39z"/>
	</g>
</g>
</svg>
