<?xml version="1.0" encoding="utf-8"?>
<!-- Generator: Adobe Illustrator 21.0.2, SVG Export Plug-In . SVG Version: 6.00 Build 0)  -->
<!DOCTYPE svg PUBLIC "-//W3C//DTD SVG 1.1//EN" "http://www.w3.org/Graphics/SVG/1.1/DTD/svg11.dtd">
<svg version="1.1" xmlns="http://www.w3.org/2000/svg" xmlns:xlink="http://www.w3.org/1999/xlink" x="0px" y="0px" width="64px"
	 height="64px" viewBox="0 0 64 64" style="enable-background:new 0 0 64 64;" xml:space="preserve">
<style type="text/css">
	.st0{fill:none;}
</style>
<g id="Box">
	<rect class="st0" width="64" height="64"/>
</g>
<g id="Icon">
	<g>
		<path d="M46.2,28l6.3,7.4c0.3,0.4,0.8,0.5,1.2,0.2l6.4-3.2c0.5-0.3,0.7-0.9,0.4-1.4l-8.1-14.8c-1.5-2.8-4-4.9-6.9-5.9l-4.7-1.7
			c-1.1-0.4-1.9-1.2-2.2-2.3L38,5l-6,0l-6,0l-0.4,1.3c-0.4,1.1-1.2,1.9-2.2,2.3l-4.7,1.7c-3,1.1-5.4,3.2-6.9,5.9L3.5,31.1
			c-0.3,0.5-0.1,1.1,0.4,1.4l6.4,3.2c0.4,0.2,0.9,0.1,1.2-0.2l6.3-7.4l0.2,2c0.7,7.3,0.4,14.6-0.8,21.8L16,59h16h16l-1.2-7.1
			C45.6,44.7,45.3,37.3,46,30L46.2,28z M31.1,30.1c0,1.9-1.3,3.1-3.2,3.1c-2.1,0-3.1-1-3.1-3v-5.4h1.8V30c0,1.1,0.5,1.6,1.4,1.6
			c0.9,0,1.4-0.5,1.4-1.6v-5.2h1.7V30.1z M37.2,33.1h-2.4l-2.4-8.3h1.9l1.8,6.2l1.7-6.2h1.8L37.2,33.1z"/>
	</g>
</g>
</svg>
