<?xml version="1.0" encoding="utf-8"?>
<!-- Generator: Adobe Illustrator 17.1.0, SVG Export Plug-In . SVG Version: 6.00 Build 0)  -->
<svg version="1.2" baseProfile="tiny" xmlns="http://www.w3.org/2000/svg" xmlns:xlink="http://www.w3.org/1999/xlink" x="0px"
	 y="0px" width="64px" height="64px" viewBox="0 0 64 64" xml:space="preserve">
<g id="Box">
	<rect fill="none" width="64" height="64"/>
</g>
<g id="Icon">
	<path d="M49.4966,34.537C52.6365,31.7409,55,25.9724,55,22.2732C55,17.2454,51.5387,14,46.7875,14
		c-2.111,0-4.2194,0.8076-5.9135,2.1428c-0.3925-4.1779,2.88-8.6318,2.8809-9.6418L43.7553,6.5l-0.0002,0.0001V6.5
		c0-1.933-5.2629-2.5-11.7552-2.5S20.2447,4.567,20.2447,6.5c0,1.0132,3.2744,5.4644,2.8814,9.6428
		C21.4319,14.8076,19.3235,14,17.2125,14C12.4613,14,9,17.2454,9,22.2732c0,3.7051,2.3708,9.4867,5.5181,12.2777
		c0.8776,3.7462,2.8403,7.9656,5.5417,11.4371c3.5649,4.5813,5.5869,4.0847,4.7953,7.2012c-0.548,2.1576-3.7282,3.9025-5.3774,4.424
		C18.5856,57.8953,18,58.6481,18,59.4897V61h28v-1.5103c0-0.8417-0.5856-1.5945-1.4777-1.8766
		c-1.8047-0.5706-5.1282-2.3082-5.2933-4.8144c-2.7287,0.7075-5.0104,0.6902-5.676,0.6147c-0.4153-0.047-0.6055-0.166-0.6251-0.3334
		C40.9976,52.3593,47.6624,42.3925,49.4966,34.537z M13,22.2732C13,19.5575,14.5354,18,17.2125,18
		c1.4525,0,3.0768,0.7765,4.1826,1.9814c-2.1816,2.4434-5.7154,3.7501-6.9456,7.605C13.6183,25.8447,13,23.8945,13,22.2732z
		 M46.7875,18C49.4646,18,51,19.5575,51,22.2732c0,1.6217-0.6186,3.5723-1.4492,5.3144c-1.2299-3.8557-4.7642-5.1625-6.946-7.6061
		C43.7107,18.7765,45.335,18,46.7875,18z"/>
</g>
</svg>
