<?xml version="1.0" encoding="utf-8"?>
<!-- Generator: Adobe Illustrator 18.0.0, SVG Export Plug-In . SVG Version: 6.00 Build 0)  -->
<svg version="1.2" baseProfile="tiny" xmlns="http://www.w3.org/2000/svg" xmlns:xlink="http://www.w3.org/1999/xlink" x="0px"
	 y="0px" width="64px" height="64px" viewBox="0 0 64 64" xml:space="preserve">
<g id="_x36_4px_Boxes">
	<rect fill="none" width="64" height="64"/>
</g>
<g id="Production">
	<path d="M55.6362,25.4124c-1.412-1.8498-3.307-3.2303-5.5872-3.9041c-1.5447-0.4565-4.8387-0.944-8.5945,0.7735
		c0,0-0.1606-0.074,0.0455-0.3912c0.2031-0.3125,2.5781-2.6094,6.9871-2.4183c-0.9323-0.9843-3.5317-3.8304-4.5287-4.9014
		c-3.921-4.2119-8.9162-2.8813-9.8657,1.867C33.4542,16.1623,32.7499,16,32,16s-1.4542,0.1623-2.0927,0.4379
		c-0.9495-4.7483-5.9447-6.0789-9.8657-1.867c-0.997,1.071-3.5965,3.9171-4.5287,4.9014c4.4089-0.1911,6.7839,2.1058,6.9871,2.4183
		c0.2061,0.3171,0.0455,0.3912,0.0455,0.3912c-3.7557-1.7175-7.0497-1.23-8.5945-0.7735c-2.2802,0.6738-4.1752,2.0543-5.5872,3.9041
		C4.5052,30.4671,2.01,34.4576,2.01,39c0,7.1685,5.8215,13,12.99,13c7.019,0,12.7414-5.5948,12.9775-12.5573
		C29.0422,40.4073,30.4502,41,32,41s2.9578-0.5927,4.0225-1.5573C36.2586,46.4052,41.981,52,49,52c7.1685,0,12.99-5.8315,12.99-13
		C61.99,34.4576,59.4948,30.4671,55.6362,25.4124z M15,48.18c-5.0616,0-9.18-4.1183-9.18-9.18s4.1183-9.18,9.18-9.18
		s9.18,4.1183,9.18,9.18S20.0616,48.18,15,48.18z M49,48.18c-5.0616,0-9.18-4.1183-9.18-9.18s4.1183-9.18,9.18-9.18
		s9.18,4.1183,9.18,9.18S54.0616,48.18,49,48.18z"/>
</g>
</svg>
