<?xml version="1.0" encoding="utf-8"?>
<!-- Generator: Adobe Illustrator 19.1.0, SVG Export Plug-In . SVG Version: 6.00 Build 0)  -->
<svg version="1.2" baseProfile="tiny" xmlns="http://www.w3.org/2000/svg" xmlns:xlink="http://www.w3.org/1999/xlink" x="0px"
	 y="0px" width="64px" height="64px" viewBox="0 0 64 64" xml:space="preserve">
<g id="_x36_4px_Box">
	<rect fill="none" width="64" height="64"/>
</g>
<g id="Icon">
	<g>
		<path d="M46,10c-0.6-5.4-6.3-8-14-8s-13.4,2.6-14,8c0,0.1-4,38.5-4,38.6C14,55.7,21.5,61,32,61c10.5,0,18-5.3,18-12.4
			C50,48.5,46,10.1,46,10z M32,57c-8,0-14-3.3-14-7.5c0-4.2,6-7.6,14-7.6s14,3.4,14,7.6C46,53.7,40,57,32,57z"/>
		<path d="M31.3,44.3c-1.1,1.1-3.3,3.8-3.3,7.1c0,2.1,1.1,3.1,2.1,3.6c-0.1-0.2-0.1-0.5-0.1-0.9c0-2.5,2-4.1,2-4.1s2,1.6,2,4.1
			c0,0.3,0,0.6-0.1,0.9c1-0.5,2.1-1.4,2.1-3.6c0-3.3-2.2-6.1-3.3-7.1C32.3,43.9,31.7,43.9,31.3,44.3z"/>
	</g>
</g>
</svg>
