<?xml version="1.0" encoding="utf-8"?>
<!-- Generator: Adobe Illustrator 19.1.0, SVG Export Plug-In . SVG Version: 6.00 Build 0)  -->
<svg version="1.2" baseProfile="tiny" xmlns="http://www.w3.org/2000/svg" xmlns:xlink="http://www.w3.org/1999/xlink" x="0px"
	 y="0px" width="64px" height="64px" viewBox="0 0 64 64" xml:space="preserve">
<g id="_x36_4px_Box">
	<rect fill="none" width="64" height="64"/>
</g>
<g id="Icon">
	<g>
		<path d="M57.8852,22.2789l-0.6307-1.5227c-0.3421-0.8259-1.3262-1.1711-2.1093-0.7399l-5.1501,2.8359
			c-0.7481,0.412-1.0668,1.3205-0.7401,2.1096c0.3267,0.7889,1.1945,1.2061,2.0146,0.9684l5.6473-1.6365
			C57.7756,24.0447,58.2273,23.1048,57.8852,22.2789z"/>
		<path d="M39.271,14.7451c0.789,0.3267,1.6975,0.008,2.1094-0.7401l2.836-5.1501c0.4312-0.7831,0.086-1.7672-0.7399-2.1093
			l-1.5227-0.6307c-0.8259-0.3421-1.7659,0.1096-2.0147,0.9683l-1.6365,5.6473C38.0649,13.5506,38.4821,14.4183,39.271,14.7451z"/>
		<path d="M22.6196,14.0049c0.4119,0.7481,1.3204,1.0668,2.1094,0.7401c0.7889-0.3267,1.2061-1.1945,0.9684-2.0146L24.061,7.0831
			c-0.2488-0.8586-1.1888-1.3104-2.0147-0.9683l-1.5228,0.6307c-0.8259,0.3421-1.1711,1.3262-0.7399,2.1093L22.6196,14.0049z"/>
		<path d="M14.7451,24.9617c0.3267-0.7891,0.008-1.6976-0.7401-2.1096l-5.1501-2.8359c-0.7831-0.4312-1.7672-0.086-2.1093,0.7399
			l-0.6307,1.5227c-0.3421,0.8259,0.1096,1.7659,0.9683,2.0147l5.6473,1.6365C13.5506,26.1677,14.4183,25.7506,14.7451,24.9617z"/>
		<path d="M49.1341,54.2288c-0.6318-0.1751-1.3804-0.3569-2.1341-0.5334V50H17v3.6954c-0.7537,0.1766-1.5023,0.3583-2.1341,0.5334
			c-2.7514,0.7628-2.2198,4.7684,0.034,4.7712c18.4843,0,4.5867,0,34.2002,0C51.3539,58.9972,51.8855,54.9916,49.1341,54.2288z"/>
		<path d="M22.8276,24.1934c0.0391-0.5063,0.3999-0.9355,0.8979-1.0684C25.6489,22.6118,28.646,21.95,32,21.95
			s6.3511,0.6618,8.2744,1.175c0.498,0.1328,0.8589,0.562,0.8975,1.0615l0.1057,1.4382C29.5624,23.6118,25.875,25.7,25.875,25.7
			l-0.5251,6.2452c1.1885-1.0442,2.7424-1.6823,4.4487-1.6823c0.972,0,1.8938,0.2094,2.7288,0.5793
			c-2.3539,1.0602-3.9954,3.4216-3.9954,6.1707s1.6415,5.1105,3.9954,6.1708c-0.835,0.3698-1.7567,0.5792-2.7287,0.5792
			c-2.1116,0-3.9953-0.9708-5.233-2.489L24,48h23l-1.8394-24.1133c-0.1689-2.1973-1.7183-4.0566-3.855-4.627
			C39.1509,18.6851,35.7876,18,32,18s-7.1509,0.6851-9.3057,1.2598c-2.1367,0.5703-3.686,2.4297-3.8555,4.6338L17,48h4
			L22.8276,24.1934z"/>
	</g>
</g>
</svg>
