<svg height="64" viewBox="0 0 64 64" width="64" xmlns="http://www.w3.org/2000/svg"><path d="m0 0h64v64h-64z" fill="none"/><path d="m58.583 50.4746-24.207-41c-.5391-.9141-1.5215-1.4746-2.583-1.4746-.004 0-.0079 0-.0117 0-1.0656.0039-2.0479.5732-2.5831 1.4941l-23.7929 41c-.5381.9278-.5401 2.0733-.0049 3.003.5351.9297 1.5264 1.5029 2.5996 1.5029h48c1.0771 0 2.0713-.5771 2.6055-1.5127.5341-.9355.5254-2.085-.0225-3.0127zm-45.373-1.4746 18.6053-32.0615 18.9298 32.0615z"/><path d="m28.2258 29.2903v1.7097h-1.9033c-.1603 0-.2903.1299-.2903.2903v2.1832c.9772-.2706 2.6343-.5139 4.0316-.6137 2.4153-.1725 4.1199.53 5.2062 1.1951.1417.0867.1829.1894.1718.2877-1.105-.2988-2.3013-.5167-3.4419-.5167-3.6355 0-7.8387 2.212-7.8387 2.212 0 2.3258.4896 5.1017.833 6.7653.7487-.229 1.4207-.5922 1.6223-.7217l1.3189-.8477 1.3189.8477c.3783.2375 1.6978.9185 2.7457.9185 1.0927 0 2.4439-.7247 2.7456-.9186l1.3189-.8477 1.3189.8477c.2487.1562.9053.5012 1.6231.7212.3434-1.6605.8322-4.4304.8322-6.7647 0 0-.4624-.4954-1.8387-1.0172v-3.7304c0-.1604-.13-.2903-.2903-.2903h-1.9355v-1.7097c0-.1604-.1299-.2903-.2903-.2903h-6.9678c-.1603 0-.2903.1299-.2903.2903zm2.8065 10.7097h-4.0645v-1.7419c0-.3209.26-.5806.5806-.5806s.5806.2597.5806.5806v.5806h1.7419v-.5806c0-.321.26-.5806.5806-.5806s.5807.2596.5807.5806v1.7419zm4.9032-1.1613v-.5806c0-.321.26-.5806.5806-.5806s.5807.2596.5807.5806v1.7419h-4.0645v-1.7419c0-.3209.26-.5806.5806-.5806s.5806.2597.5806.5806v.5806z"/><path d="m36.0645 43.198-.6277.4037c-.0175.0113-1.7918 1.1222-3.4368 1.1222-1.6552 0-3.421-1.1119-3.4368-1.1222l-.6277-.4037-.6277.4037c-.0176.0114-1.7919 1.1222-3.4368 1.1222-.7057 0-1.2692-.2025-1.871-.4352v2.3959c.6327.1826 1.1649.3154 1.871.3154 1.6319 0 3.218-.6918 4.0645-1.1335.8465.4417 2.4325 1.1335 4.0645 1.1335s3.218-.6918 4.0645-1.1335c.8466.4417 2.4326 1.1335 4.0645 1.1335.7061 0 1.2383-.1328 1.871-.3155v-2.3973c-.6031.2333-1.1677.4367-1.871.4367-1.6552 0-3.4209-1.1119-3.4368-1.1222z"/></svg>