<svg version="1.2" xmlns="http://www.w3.org/2000/svg" viewBox="0 0 21 21" width="21" height="21">
    <style>
        .a {
            fill: #fff;
            stroke: #007bc7;
            stroke-width: 3
        }

        .b {
            fill: #007bc7
        }
    </style>
    <path class="a" d="m9.5 17.5c-4.4 0-8-3.6-8-8 0-4.4 3.6-8 8-8 4.4 0 8 3.6 8 8 0 4.4-3.6 8-8 8z" />
    <path class="b"
        d="m13.7 6.6l-4.4 7.2c-0.1 0.2-0.3 0.3-0.6 0.3q0 0 0 0c-0.2 0-0.4-0.1-0.5-0.3l-2.9-4.8c-0.2-0.3-0.1-0.7 0.1-0.9 0.3-0.2 0.6-0.2 0.9 0l2.4 2.1 4-4.4c0.2-0.3 0.6-0.3 0.9-0.1 0.2 0.2 0.3 0.6 0.1 0.9z" />
</svg>