<svg height="64" viewBox="0 0 64 64" width="64" xmlns="http://www.w3.org/2000/svg"><path d="m0 0h64v64h-64z" fill="none"/><path d="m46.3557 15.1551c-.3934-.2447-.8777.1272-.7295.5662 1.7888 5.2971 1.0242 10.9859-1.5624 14.6185-4.15 5.8284-12.0956 6.8931-10.6152 16.6624.1407.9281.4518 1.8817.9025 2.8165 7.3766-1.1448 13.497-8.9998 13.817-9.4263.3572-.4761.6909-.3676.7487-.1691-2.1411 4.3295-4.2999 7.4401-7.1018 9.7977-1.9757 1.6624-4.4301 3.0216-6.5861 3.781-8.7532 3.0831-18.6848-.7015-23.0371-9.1824-2.3003-4.4824-2.7168-9.5928-1.1738-14.3887.8162-2.5372 2.1414-4.8152 3.8608-6.7488l3.8011 4.1279c1.2899 1.4008 3.471 1.4907 4.8718.2009l6.7634-6.228-2.3354-2.5363 6.3407-5.8387c.7004-.645.7454-1.7355.1004-2.4359-.6449-.7004-1.7355-.7453-2.4359-.1004l-6.3408 5.8387-4.671-5.0726 6.3408-5.8387c.7004-.6449.7453-1.7355.1004-2.4359-.645-.7004-1.7355-.7454-2.4359-.1004l-6.3407 5.8387-2.3355-2.5363-6.7634 6.228c-1.4008 1.2899-1.4907 3.471-.2008 4.8718l2.8259 3.0688c-2.2163 2.4049-3.9222 5.2659-4.9536 8.4722-1.8706 5.813-1.3652 12.0068 1.4229 17.4399 4.0464 7.8848 12.0713 12.4214 20.3784 12.4214 4.3077 0 7.8101-1.1239 11.2794-2.9802 3.0974 1.6618 6.0678 1.7672 8.8135.6655 13.3602-5.3613 14.089-30.9263-2.7488-41.3974z"/></svg>