<svg enable-background="new 0 0 64 64" viewBox="0 0 64 64" xmlns="http://www.w3.org/2000/svg"><path d="m0 0h64v64h-64z" fill="none"/><path d="m52 14.7-3-1.1v-11.2c0-.7-.7-1.2-1.3-.9l-15.7 5.8-15.7-5.8c-.6-.2-1.3.2-1.3.9v11.2l-3 1.1c-.6.2-1 .8-1 1.4v32.2c0 .7.8 1.2 1.4.9l18-8.8 1.2-5.8c.1-.3.3-.3.4-.2v5.3l19.6 9.5c.7.3 1.4-.2 1.4-.9v-32.2c0-.6-.4-1.2-1-1.4zm-34-8.9 8.8 3.4-8.8 3.3zm11 25.4-14 6.1v-19.5l14-5.4zm17-25.4v6.7l-8.8-3.3zm3 31.5-14-6.1v-18.8l14 5.4z"/><path d="m42.9 49.9c-3.2 1.9-8.5 3.9-15 2.1l3.2-2.5c.6-.4.7-1.3.4-2-.4-.7-1.1-1.1-1.8-.8l-10.5 2.9c-.4.1-.8.4-1 .8-.1.4-.1 1 .1 1.3l5.4 9.9c.4.6 1.1 1 1.8.7s1.1-1 1.1-1.6l-.6-4.1c8.6 2.7 15.7 0 20.1-2.8 2.5-1.6-1.1-5.2-3.2-3.9z"/></svg>