<svg height="64" viewBox="0 0 64 64" width="64" xmlns="http://www.w3.org/2000/svg"><path d="m0 0h64v64h-64z" fill="none"/><path d="m60.435 37.826c-.1949-1.1729-1.0873-2.0652-2.2607-2.2607-3.3914-.5653-9.0442-.5653-10.1742-.5653s-6.7828 0-10.1743.5654c-1.1734.1955-2.0657 1.0878-2.2607 2.2607-.5651 3.3912-.5651 9.0436-.5651 10.1739 0 1.1304 0 6.7827.5651 10.174.195 1.1728 1.0873 2.0651 2.2607 2.2607 3.3914.5653 9.0442.5653 10.1743.5653s6.7828 0 10.1742-.5653c1.1735-.1956 2.0658-1.0879 2.2607-2.2607.565-3.3913.565-9.0436.565-10.174 0-3.393 0-6.7827-.565-10.174zm-16.738 17.174h-1.1883-4.5087s.0598-2.931.7991-3.7094c.5792-.6099 2.3351-1.1498 3.0786-1.3576.1815-.0508.2977-.2095.3342-.3943.0505-.2561.0619-.5256.0619-.5256-.4603-.5262-.8032-1.1569-.9092-2.0483-.4731-.1473-.5677-.7443-.5677-1.1165 0-.3721.0649-.5735.1971-.6358.1589-.0748.3058.0262.3506.0618-.0674-.7731-.1655-2.5012.2431-3.046.364-.4854 1.0551-.8088 1.6864-.9869.9087-.2565 1.2618.1031 1.7804.3879.7907-.2062 1.2054.0458 1.5467.6767.3179.5878.2121 2.1727.1388 2.933.0702-.0402.1776-.0809.2933-.0265.1322.0623.197.2637.197.6358 0 .3723-.0947.9692-.5677 1.1165-.12.8597-.4672 1.5161-.9354 2.0629.0018.0377.0146.2751.0611.511.0364.1848.1527.3435.3342.3943.7434.2078 2.4994.7477 3.0786 1.3576.7391.7784.7989 3.7094.7989 3.7094zm8.9805-1h-.7257c-.1104-1.5058-.4379-3.1783-1.3007-4.0867-.0094-.0099-.0235-.0241-.0344-.0355.2018-.0636.386-.1179.5245-.1566.1532-.0428.2514-.1769.2822-.3329.0427-.2162.0523-.4438.0523-.4438-.3888-.4444-.6783-.9769-.7678-1.7297-.3995-.1244-.4794-.6285-.4794-.9428 0-.3142.0548-.4843.1664-.5369.1342-.0632.2582.0222.2961.0522-.0569-.6529-.1397-2.1121.2053-2.5721.3074-.4099.891-.683 1.4241-.8334.7673-.2166 1.0655.0871 1.5034.3276.6677-.1742 1.0179.0386 1.3062.5714.2684.4964.179 1.8347.1171 2.4767.0593-.0339.15-.0683.2477-.0224.1116.0526.1664.2227.1664.5369 0 .3143-.08.8184-.4794.9428-.1013.726-.3945 1.2803-.7899 1.7421.0015.0318.0123.2324.0516.4315.0308.1561.129.2901.2822.3329.6278.1755 2.1107.6315 2.5997 1.1465.6241.6571.6746 3.1322.6746 3.1322z"/><path d="m29.5435 23.126-8.5435-5.126v-4c0-1.6543 1.3457-3 3-3h18c1.6543 0 3 1.3457 3 3v17.8343c1.0587-.024 2.0823-.0345 3-.0345s1.9413.0104 3 .0345v-17.8343c0-4.9624-4.0371-9-9-9h-18c-4.9629 0-9 4.0376-9 9v4l-8.5435 5.126c-.9036.5422-1.4565 1.5187-1.4565 2.5725v2.3015c0 .5522.4477 1 1 1h24c.5523 0 1-.4478 1-1v-2.3015c0-1.0538-.5529-2.0303-1.4565-2.5725z"/><path d="m10.6413 31.1734c-.0857-.0118-.1714.0029-.2604.178-.7426 1.4607-1.9084 2.0104-2.2914 3.1435-.4014 1.1876.5861 2.3752 1.748 2.5347s2.4349-.7186 2.3653-1.9702c-.066-1.1852-1.0382-2.0379-1.3597-3.6446-.0385-.1926-.116-.2296-.2018-.2414z"/><path d="m18.1779 31.2811c-.0649-.1854-.1469-.2113-.2335-.211-.0865.0002-.1693.0267-.2332.2125-.532 1.5498-1.61 2.2564-1.8316 3.4318-.2322 1.2319.9109 2.2706 2.0837 2.2668 1.1729-.0037 2.3113-1.0504 2.0682-2.2801-.2302-1.1645-1.3117-1.8736-1.8536-3.42z"/><path d="m9.5568 39.7406c-.0857-.0118-.1714.0028-.2604.178-.7425 1.4607-1.9084 2.0104-2.2914 3.1435-.4013 1.1876.5861 2.3752 1.748 2.5347 1.162.1595 2.4349-.7185 2.3654-1.9701-.066-1.1852-1.0382-2.0379-1.3597-3.6447-.0385-.1926-.1161-.2297-.2019-.2414z"/><path d="m18.1779 40.363c-.0649-.1854-.1469-.2112-.2335-.211-.0865.0003-.1693.0267-.2332.2125-.532 1.5498-1.61 2.2564-1.8316 3.4318-.2322 1.2319.9109 2.2706 2.0837 2.2668 1.1729-.0038 2.3113-1.0504 2.0682-2.2802-.2302-1.1644-1.3117-1.8735-1.8536-3.4199z"/><path d="m8.4724 48.3078c-.0857-.0118-.1714.0028-.2604.178-.7426 1.4607-1.9084 2.0104-2.2914 3.1434-.4014 1.1876.5861 2.3752 1.748 2.5347s2.4349-.7185 2.3653-1.9701c-.066-1.1852-1.0382-2.0379-1.3597-3.6447-.0385-.1925-.116-.2296-.2018-.2413z"/><path d="m18.1779 49.445c-.0649-.1854-.1469-.2113-.2335-.211-.0865.0002-.1693.0267-.2332.2125-.532 1.5498-1.61 2.2563-1.8316 3.4318-.2322 1.2319.9109 2.2706 2.0837 2.2668 1.1729-.0038 2.3113-1.0504 2.0682-2.2802-.2302-1.1644-1.3117-1.8735-1.8536-3.4199z"/><path d="m26.1625 37.0296c1.162-.1595 2.1494-1.3472 1.748-2.5347-.3829-1.1331-1.5488-1.6828-2.2914-3.1435-.0891-.1751-.1747-.1898-.2604-.178-.0858.0118-.1633.0488-.2018.2415-.3215 1.6067-1.2937 2.4594-1.3597 3.6446-.0697 1.2515 1.2033 2.1296 2.3653 1.9701z"/><path d="m27.2469 45.5967c1.1619-.1595 2.1494-1.3471 1.748-2.5347-.383-1.1331-1.5489-1.6828-2.2914-3.1435-.0891-.1752-.1747-.1898-.2604-.178-.0858.0117-.1633.0488-.2018.2414-.3215 1.6068-1.2938 2.4595-1.3597 3.6447-.0696 1.2516 1.2034 2.1297 2.3653 1.9701z"/><path d="m27.788 48.4858c-.0891-.1752-.1747-.1898-.2604-.178-.0858.0117-.1633.0488-.2018.2414-.3215 1.6068-1.2937 2.4595-1.3597 3.6447-.0696 1.2516 1.2033 2.1296 2.3653 1.9701s2.1494-1.3471 1.748-2.5347c-.3829-1.1331-1.5488-1.6828-2.2914-3.1435z"/></svg>