<svg height="64" viewBox="0 0 64 64" width="64" xmlns="http://www.w3.org/2000/svg"><path d="m0 0h64v64h-64z" fill="none"/><path d="m44 18.25v-4.25h1.4914c.8929 0 1.6777-.592 1.923-1.4506l1.5856-5.5494h-48l1.5856 5.5494c.2453.8586 1.0301 1.4506 1.923 1.4506h7.9115c.0209.0562.0673.2623-.2499.3641-.2229.0715-3.9622.8159-6.1702 1.2531v2.6328c0 10.4934 8.5066 11.75 19 11.75s19-1.2566 19-11.75zm-8 4.95c-1.215 0-2.2-.985-2.2-2.2s.985-2.2 2.2-2.2 2.2.985 2.2 2.2-.985 2.2-2.2 2.2z"/><path d="m60.9111 40.9194-14.7734-11.2939c-.6572-.5024-1.5991-.3779-2.103.2803-.5029.6582-.3774 1.5996.2808 2.103l14.7734 11.2939c.6592.5041 1.6009.3762 2.103-.2803.5029-.6581.3774-1.5995-.2808-2.103z"/><path d="m39.3936 34.6372c-.3076-.7695-1.1802-1.145-1.9497-.8364-.769.3076-1.1436 1.1802-.8364 1.9497l9.333 23.3618c.3077.7706 1.1789 1.1435 1.9497.8364.769-.3076 1.1436-1.1802.8364-1.9497z"/><path d="m61 22h-12c-.8286 0-1.5.6714-1.5 1.5s.6714 1.5 1.5 1.5h12c.8286 0 1.5-.6714 1.5-1.5s-.6714-1.5-1.5-1.5z"/></svg>