<svg height="64" viewBox="0 0 64 64" width="64" xmlns="http://www.w3.org/2000/svg"><path d="m0 0h64v64h-64z" fill="none"/><path d="m8.7071 16.2929-3.8535 3.8535c-.315.315-.0919.8536.3535.8536h35.7929v-5h-31.5858c-.2652 0-.5195.1053-.7071.2929z"/><path d="m55.2929 16.2929c-.1876-.1876-.4419-.2929-.7071-.2929h-7.5858v5h11.7929c.4454 0 .6685-.5386.3535-.8536z"/><path d="m55.2929 24.2929c-.1876-.1876-.4419-.2929-.7071-.2929h-7.5858v5h11.7929c.4454 0 .6685-.5386.3535-.8536z"/><path d="m8.7071 24.2929-3.8535 3.8535c-.315.315-.0919.8536.3535.8536h35.7929v-5h-31.5858c-.2652 0-.5195.1053-.7071.2929z"/><path d="m55.2929 32.2929c-.1876-.1876-.4419-.2929-.7071-.2929h-7.5858v5h11.7929c.4454 0 .6685-.5386.3535-.8536z"/><path d="m8.7071 32.2929-3.8535 3.8535c-.315.315-.0919.8536.3535.8536h35.7929v-5h-31.5858c-.2652 0-.5195.1053-.7071.2929z"/><path d="m8.7071 40.2929-3.8535 3.8535c-.315.315-.0919.8536.3535.8536h35.7929v-5h-31.5858c-.2652 0-.5195.1053-.7071.2929z"/><path d="m55.2929 40.2929c-.1876-.1876-.4419-.2929-.7071-.2929h-7.5858v5h11.7929c.4454 0 .6685-.5386.3535-.8536z"/><path d="m55.2929 48.2929c-.1876-.1876-.4419-.2929-.7071-.2929h-7.5858v5h11.7929c.4454 0 .6685-.5386.3535-.8536z"/><path d="m8.7071 48.2929-3.8535 3.8535c-.315.315-.0919.8536.3535.8536h35.7929v-5h-31.5858c-.2652 0-.5195.1053-.7071.2929z"/><path d="m59 5h-54c-.5523 0-1 .4477-1 1v5c0 .5523.4477 1 1 1h38v46.4581c-.5953.5621-1 1.5614-1 2.5419 0 1.1046.8954 2 2 2s2-.8954 2-2c0-1.0139-.4047-2.0021-1-2.5529v-46.4471h14c.5523 0 1-.4477 1-1v-5c0-.5523-.4477-1-1-1z"/></svg>