<svg enable-background="new 0 0 64 64" height="64" viewBox="0 0 64 64" width="64" xmlns="http://www.w3.org/2000/svg"><path d="m0 0h64v64h-64z" fill="none"/><path d="m59 9h-14c-4-2.4-8.5-3.7-13-3.7s-9 1.3-13 3.7h-14c-.6 0-1 .4-1 1v43c0 .6.4 1 1 1h14v1c0 .6.4 1 1 1h24c.6 0 1-.4 1-1 0-.3 0-.7 0-1h14c.6 0 1-.4 1-1v-43c0-.6-.4-1-1-1zm-42 41h-10l1-2h10zm0-5h-10l1-2h10zm0-5h-10l1-2h10zm0-5h-10l1-2h10zm0-5h-10l1-2h10zm0-5h-10l1-2h10zm0-5h-10l1-2h10zm0-5h-10l1-2h10zm15-5.7c3.1 0 6.2.7 9 2v7.7h-18v-7.6c2.8-1.4 5.9-2.1 9-2.1zm-9 42.7v-29h18v29zm24-2-1-2h10l1 2zm0-5-1-2h10l1 2zm0-5-1-2h10l1 2zm0-5-1-2h10l1 2zm0-5-1-2h10l1 2zm0-5-1-2h10l1 2zm0-5-1-2h10l1 2zm0-5-1-2h10l1 2z"/></svg>