<svg enable-background="new 0 0 64 64" viewBox="0 0 64 64" xmlns="http://www.w3.org/2000/svg"><path d="m0 0h64v64h-64z" fill="none"/><path d="m38 48h-12v4h14c1.104 0 2-.896 2-2v-11.019c-1.123.585-2.303 1.339-4 1.845z"/><path d="m58.099 34.036c-1.127.662-2.904 1.503-5.328 1.137-1.164-.174-1.873-.591-2.77-1.118-1.225-.72-2.749-1.615-5.428-1.807-2.847-.199-4.709.824-6.207 1.648-1.513.833-2.668 1.461-4.858 1.136v-.003l2.064-3.311c.278-.447.209-1.043-.163-1.404-.369-.36-.933-.383-1.329-.047l-6.954 5.912c-.242.207-.384.519-.384.85s.142.643.384.85l6.954 5.912c.396.336.96.313 1.329-.047.372-.361.441-.957.163-1.404l-2.046-3.281c3.183.309 5.144-.764 6.769-1.659 1.35-.744 2.326-1.28 3.993-1.162 1.745.125 2.602.628 3.687 1.265 1.777 1.045 3.353 1.76 5.977 1.76 2.113 0 4.147-.588 6.173-1.778.952-.56 1.06-1.699.5-2.652-.559-.952-1.573-1.354-2.526-.797z"/><path d="m42 22.791c-.993.54-2.271 1.107-4 1.383v7.418c1.059-.562 2.359-1.146 4-1.415z"/><path d="m62.611 19.07-6.954-5.912c-.397-.337-.961-.312-1.329.047-.372.361-.441.957-.163 1.404l2.064 3.311v.004c-2.192.326-3.346-.304-4.858-1.137-1.498-.825-3.363-1.852-6.207-1.648-2.679.192-4.203 1.087-5.428 1.807-.897.527-1.606.944-2.771 1.118-2.422.362-4.201-.475-5.328-1.137-.952-.56-1.952-.129-2.512.823-.56.953-.467 2.066.486 2.626 2.026 1.19 4.06 1.778 6.173 1.778 2.561 0 4.156-.69 5.977-1.76 1.085-.638 1.942-1.141 3.687-1.266 1.667-.118 2.642.418 3.992 1.162 1.626.895 3.586 1.968 6.77 1.659l-2.046 3.281c-.278.447-.209 1.043.163 1.404.369.36.933.383 1.329.047l6.954-5.912c.242-.206.384-.519.384-.85.001-.33-.141-.642-.383-.849z"/><path d="m22.964 11.164-9.846-5.164h24.882v9.403c1.002-.547 2.144-1.356 4-1.918v-9.485c0-1.104-.896-2-2-2h-35v.004c-1.139 0-2 .92-2 1.996v46.691c0 .687.353 1.326.934 1.692l17 11.109c.618.389 1.398.409 2.032.059.638-.352 1.034-1.022 1.034-1.751v-48.883c0-.73-.397-1.401-1.036-1.753zm-11.292 41.335-4.672-2.912v-19.183l4.672 2.73zm0-23.076-4.672-2.638v-19.403l4.672 2.703zm8.078 28.11-5.078-3.165v-19.481l5.078 2.968zm0-23.549-5.078-2.868v-19.296l5.078 2.938z"/></svg>