<svg enable-background="new 0 0 64 64" viewBox="0 0 64 64" xmlns="http://www.w3.org/2000/svg"><path d="m0 0h64v64h-64z" fill="none"/><path d="m18.69 17.64c0-2.37-1.18-3.64-3.19-3.64-2.1 0-3.19 1.46-3.19 3.64 0 2.19 1.18 3.46 3.19 3.46 2 .01 3.19-1.45 3.19-3.46z"/><path d="m20.6 38.96c.91 0 2.37-.55 2.55-2.55 0-5.65.27-12.66-4.01-13.67-2.19-.55-5.19-.55-7.29 0-4.19 1-4.01 8.02-4.01 13.76.18 2 1.64 2.55 2.55 2.55 0-.09 0-5.01 0-5.28 0-2.46.46-5.1.73-6.01.09-.27.27-.18.27-.18v10.93 16.49s3.01 0 3.28-3.37c0 0 .46-12.76.46-12.85 0-.18.09-.36.36-.36s.36.18.36.36.46 12.76.46 12.76c.19 3.46 3.29 3.46 3.29 3.46v-16.58-10.94s.18-.09.27.18c.27.82.73 3.46.73 5.92z"/><circle cx="50.5" cy="17.5" r="1.5"/><circle cx="50.5" cy="22.5" r="1.5"/><circle cx="50.5" cy="27.5" r="1.5"/><path d="m35.5 21.25c2.08 0 3.28-1.46 3.28-3.56 0-2.4-1.26-3.68-3.28-3.68-2.13 0-3.28 1.52-3.28 3.68.01 2.27 1.21 3.56 3.28 3.56z"/><path d="m41.94 38.36c.9-.12 2-1.24 1.63-3.28-.45-2.51-1.02-3.89-1.22-5.63-.45-3.86-1.6-5.72-3.73-6.4-1.02-.32-1.98-.47-3.09-.47h-.04c-1.1 0-2.07.15-3.09.47-2.13.68-3.28 2.53-3.73 6.4-.21 1.75-.77 3.12-1.22 5.63-.37 2.04.73 3.16 1.63 3.28 2.06-6.67 1.91-9.56 2.43-11.06.09-.27.32-.68.32-.68-.44 1.83-.16 2.69.06 3.62.23.99.28 2.02.03 3-.48 1.85-2 4.28-2 10.19 0 0 1.52.41 3.97.2.08.13.05.3-.16.45-.18.13-.73.38-1.82.41l.37 10.51s2.41-.38 2.57-2.81c0 0 .2-5.95.3-8.73.51-.08.31-.06.69-.11.09 2.71.3 8.77.3 8.77.12 2.5 2.58 2.88 2.58 2.88l.44-11.69c1.14.11 1.94.3 1.94.3 0-5.91-1.52-8.52-2-10.37-.25-.98-.2-2.01.03-3 .22-.93.49-1.79.06-3.62 0 0 .23.42.32.68.51 1.5.36 4.39 2.43 11.06z"/><path d="m55 48.81v8.19h-50v-50h50v23.2c1.11-.99 2.89-.99 4 0v-25.2c0-1.1-.9-2-2-2h-54c-1.1 0-2 .9-2 2v54c0 1.1.9 2 2 2h54c1.1 0 2-.9 2-2v-10.19c-.55.5-1.25.78-2 .78s-1.45-.29-2-.78z"/><path d="m56.29 31.71-4.59 4.59c-.62.62-.18 1.7.71 1.7h9.17c.89 0 1.34-1.08.71-1.71l-4.59-4.59c-.38-.38-1.02-.38-1.41.01z"/><path d="m61.59 41h-9.17c-.89 0-1.34 1.08-.71 1.71l4.59 4.59c.39.39 1.02.39 1.41 0l4.59-4.59c.62-.63.18-1.71-.71-1.71z"/></svg>