<?xml version="1.0" encoding="utf-8"?>
<!-- Generator: Adobe Illustrator 24.1.3, SVG Export Plug-In . SVG Version: 6.00 Build 0)  -->
<svg version="1.1" xmlns="http://www.w3.org/2000/svg" xmlns:xlink="http://www.w3.org/1999/xlink" x="0px" y="0px"
	 viewBox="0 0 64 64" style="enable-background:new 0 0 64 64;" xml:space="preserve">
<style type="text/css">
	.st0{fill:none;}
</style>
<g id="Box">
	<rect class="st0" width="64" height="64"/>
</g>
<g id="Icon">
	<g>
		<circle cx="44.5" cy="17.5" r="1.5"/>
		<circle cx="44.5" cy="22.5" r="1.5"/>
		<circle cx="44.5" cy="27.5" r="1.5"/>
		<path d="M26.5,21.25c2.08,0,3.28-1.46,3.28-3.56c0-2.4-1.26-3.68-3.28-3.68c-2.13,0-3.28,1.52-3.28,3.68
			C23.23,19.96,24.43,21.25,26.5,21.25z"/>
		<path d="M32.94,38.36c0.9-0.12,2-1.24,1.63-3.28c-0.45-2.51-1.02-3.89-1.22-5.63c-0.45-3.86-1.6-5.72-3.73-6.4
			c-1.02-0.32-1.98-0.47-3.09-0.47h-0.04c-1.1,0-2.07,0.15-3.09,0.47c-2.13,0.68-3.28,2.53-3.73,6.4c-0.21,1.75-0.77,3.12-1.22,5.63
			c-0.37,2.04,0.73,3.16,1.63,3.28c2.06-6.67,1.91-9.56,2.43-11.06c0.09-0.27,0.32-0.68,0.32-0.68c-0.44,1.83-0.16,2.69,0.06,3.62
			c0.23,0.99,0.28,2.02,0.03,3c-0.48,1.85-2,4.28-2,10.19c0,0,1.52,0.41,3.97,0.2c0.08,0.13,0.05,0.3-0.16,0.45
			c-0.18,0.13-0.73,0.38-1.82,0.41L23.28,55c0,0,2.41-0.38,2.57-2.81c0,0,0.2-5.95,0.3-8.73c0.12-0.02,0.24-0.04,0.37-0.06
			c0.11-0.02,0.21-0.03,0.32-0.05c0.09,2.71,0.3,8.77,0.3,8.77c0.12,2.5,2.58,2.88,2.58,2.88l0.44-11.69
			c1.14,0.11,1.94,0.3,1.94,0.3c0-5.91-1.52-8.52-2-10.37c-0.25-0.98-0.2-2.01,0.03-3c0.22-0.93,0.49-1.79,0.06-3.62
			c0,0,0.23,0.42,0.32,0.68C31.02,28.8,30.87,31.69,32.94,38.36z"/>
		<path d="M49,48.81V57H12V7h37v23.19c1.14-1.02,2.86-1.02,4,0V5c0-1.1-0.9-2-2-2H10C8.9,3,8,3.9,8,5v54c0,1.1,0.9,2,2,2h41
			c1.1,0,2-0.9,2-2V48.81c-0.57,0.51-1.28,0.78-2,0.78S49.57,49.32,49,48.81z"/>
		<path d="M50.29,31.71l-4.59,4.59C45.08,36.92,45.52,38,46.41,38h9.17c0.89,0,1.34-1.08,0.71-1.71l-4.59-4.59
			C51.32,31.32,50.68,31.32,50.29,31.71z"/>
		<path d="M55.59,41h-9.17c-0.89,0-1.34,1.08-0.71,1.71l4.59,4.59c0.39,0.39,1.02,0.39,1.41,0l4.59-4.59
			C56.92,42.08,56.48,41,55.59,41z"/>
	</g>
</g>
</svg>
