<svg height="64" viewBox="0 0 64 64" width="64" xmlns="http://www.w3.org/2000/svg"><path d="m0 0h64v64h-64z" fill="none"/><path d="m59.5 11h-3.5c-.5523 0-1 .4477-1 1v5.009c-.0562.0209-.2924.0673-.3941-.2499-.0536-.167-.5227-2.1553-.837-3.759h-1.8288c-.2761-1.5407-1.4868-2.8209-3.0762-2.9815-1.6296-.1648-3.0477.791-3.6019 2.1871-.4199 1.058-2.0834 1.0947-2.5306-.016-.5163-1.2828-1.7633-2.1897-3.2314-2.1897s-2.7151.9069-3.2315 2.1896c-.4418 1.0974-2.0964 1.0944-2.537 0-.5164-1.2827-1.7634-2.1896-3.2315-2.1896s-2.7151.9069-3.2315 2.1896c-.4418 1.0974-2.0964 1.0944-2.537 0-.5164-1.2827-1.7634-2.1896-3.2315-2.1896s-2.7151.9069-3.2315 2.1896c-.4473 1.111-2.1108 1.0737-2.5306.016-.5541-1.3961-1.9722-2.3519-3.6019-2.1871-1.8144.1834-3.136 1.8257-3.136 3.6493v.3322h-2c-.8284 0-1 .6716-1 1.5s.1716 1.5 1 1.5h2v33.3322c0 1.8237 1.3217 3.4659 3.136 3.6494 1.6296.1647 3.0477-.791 3.6019-2.1871.4199-1.058 2.0834-1.0947 2.5306.016.5164 1.2826 1.7634 2.1895 3.2315 2.1895s2.7151-.9069 3.2315-2.1896c.4418-1.0974 2.0964-1.0944 2.537 0 .5164 1.2827 1.7634 2.1896 3.2315 2.1896s2.7151-.9069 3.2315-2.1896c.4418-1.0974 2.0964-1.0944 2.537 0 .5164 1.2827 1.7634 2.1896 3.2315 2.1896s2.7151-.9069 3.2315-2.1896c.4473-1.111 2.1108-1.0737 2.5306-.016.5541 1.3961 1.9722 2.3519 3.6019 2.1871 1.8143-.1834 3.136-1.8256 3.136-3.6493v-32.3322h3v1c0 .5523.4477 1 1 1h3.5c1.933 0 2.5-2.567 2.5-4.5s-.567-4.5-2.5-4.5zm-41.5 34c0 .5523-.4477 1-1 1s-1-.4477-1-1v-26c0-.5523.4477-1 1-1s1 .4477 1 1zm9 0c0 .5523-.4477 1-1 1s-1-.4477-1-1v-26c0-.5523.4477-1 1-1s1 .4477 1 1zm9 0c0 .5523-.4477 1-1 1s-1-.4477-1-1v-26c0-.5523.4477-1 1-1s1 .4477 1 1zm9 0c0 .5523-.4477 1-1 1s-1-.4477-1-1v-26c0-.5523.4477-1 1-1s1 .4477 1 1z"/></svg>