<?xml version="1.0" encoding="utf-8"?>
<!-- Generator: Adobe Illustrator 19.1.0, SVG Export Plug-In . SVG Version: 6.00 Build 0)  -->
<svg version="1.2" baseProfile="tiny" xmlns="http://www.w3.org/2000/svg" xmlns:xlink="http://www.w3.org/1999/xlink" x="0px"
	 y="0px" width="64px" height="64px" viewBox="0 0 64 64" xml:space="preserve">
<g id="_x36_4px_Box">
	<rect fill="none" width="64" height="64"/>
</g>
<g id="Icon">
	<path d="M59.5,11H56c-0.5523,0-1,0.4477-1,1v5.009c-0.0562,0.0209-0.2924,0.0673-0.3941-0.2499
		c-0.0536-0.167-0.5227-2.1553-0.837-3.759h-1.8288c-0.2761-1.5407-1.4868-2.8209-3.0762-2.9815
		c-1.6296-0.1648-3.0477,0.791-3.6019,2.1871c-0.4199,1.058-2.0834,1.0947-2.5306-0.016C42.2151,10.9069,40.9681,10,39.5,10
		s-2.7151,0.9069-3.2315,2.1896c-0.4418,1.0974-2.0964,1.0944-2.537,0C33.2151,10.9069,31.9681,10,30.5,10
		s-2.7151,0.9069-3.2315,2.1896c-0.4418,1.0974-2.0964,1.0944-2.537,0C24.2151,10.9069,22.9681,10,21.5,10
		s-2.7151,0.9069-3.2315,2.1896c-0.4473,1.111-2.1108,1.0737-2.5306,0.016c-0.5541-1.3961-1.9722-2.3519-3.6019-2.1871
		C10.3216,10.2019,9,11.8442,9,13.6678V14H7c-0.8284,0-1,0.6716-1,1.5S6.1716,17,7,17h2v33.3322
		c0,1.8237,1.3217,3.4659,3.136,3.6494c1.6296,0.1647,3.0477-0.791,3.6019-2.1871c0.4199-1.058,2.0834-1.0947,2.5306,0.016
		C18.7849,53.0931,20.0319,54,21.5,54s2.7151-0.9069,3.2315-2.1896c0.4418-1.0974,2.0964-1.0944,2.537,0
		C27.7849,53.0931,29.0319,54,30.5,54s2.7151-0.9069,3.2315-2.1896c0.4418-1.0974,2.0964-1.0944,2.537,0
		C36.7849,53.0931,38.0319,54,39.5,54s2.7151-0.9069,3.2315-2.1896c0.4473-1.111,2.1108-1.0737,2.5306-0.016
		c0.5541,1.3961,1.9722,2.3519,3.6019,2.1871C50.6783,53.7981,52,52.1559,52,50.3322V18h3v1c0,0.5523,0.4477,1,1,1h3.5
		c1.933,0,2.5-2.567,2.5-4.5S61.433,11,59.5,11z M18,45c0,0.5523-0.4477,1-1,1s-1-0.4477-1-1V19c0-0.5523,0.4477-1,1-1s1,0.4477,1,1
		V45z M27,45c0,0.5523-0.4477,1-1,1s-1-0.4477-1-1V19c0-0.5523,0.4477-1,1-1s1,0.4477,1,1V45z M36,45c0,0.5523-0.4477,1-1,1
		s-1-0.4477-1-1V19c0-0.5523,0.4477-1,1-1s1,0.4477,1,1V45z M45,45c0,0.5523-0.4477,1-1,1s-1-0.4477-1-1V19c0-0.5523,0.4477-1,1-1
		s1,0.4477,1,1V45z"/>
</g>
</svg>
