<svg enable-background="new 0 0 64 64" viewBox="0 0 64 64" xmlns="http://www.w3.org/2000/svg"><path d="m0 0h64v64h-64z" fill="none"/><path d="m23.2 45.47c-.13-.69-.78-1.1-1.4-1.05-.47-.06-1.08.31-1.3 1.19l-.56 4.7-6.65-5.68c-1.08-.92-2.26-.21-3.12.79-.85 1-1.51 2.44-.43 3.37l6.65 5.68-4.55 1.29c-.6.2-1.1.78-.97 1.47-.02.7.56 1.2 1.26 1.22l11.89.39c.85.01 1.56-.82 1.42-1.66z"/><path d="m29.81 8.03c1.8.13 2.93-1.06 3.06-2.88.15-2.07-.86-3.25-2.62-3.38-1.85-.13-2.93 1.11-3.06 2.98-.15 1.98.82 3.16 2.62 3.28z"/><path d="m55 43h-2.88l-19.83-16.72c.63-8.53.82-10.22.46-13.84-.4-4-5.84-4.15-6.37-.92-.62 3.8-.2 6.66-.05 7.49 1.89 2.36 4.17 5.22 4.3 5.38.21.26.01.41-.04.44l-8.95-7.53c-2.52-2.13-5.73-3.3-9.02-3.3h-3.62c-4.42 0-8 3.58-8 8s3.58 8 8 8h2.88l30.49 25.7c2.52 2.13 5.73 3.3 9.02 3.3h3.61c4.42 0 8-3.58 8-8s-3.58-8-8-8zm0 12h-3.61c-2.36 0-4.64-.84-6.45-2.35l-30.95-26.1c-.42-.35-.96-.55-1.51-.55h-3.48c-2.21 0-4-1.79-4-4s1.79-4 4-4h3.48c2.44 0 4.81.86 6.67 2.44l8.57 7.23c.05 1.19.22 5.13.35 6.94.26 3.52 3.27 4.2 3.68 4.28.06-2.11.19-4.92.29-7.57l18.06 15.21c.36.3.82.47 1.29.47h3.61c2.21 0 4 1.79 4 4s-1.79 4-4 4z"/></svg>