<svg enable-background="new 0 0 64 64" viewBox="0 0 64 64" xmlns="http://www.w3.org/2000/svg"><path d="m0 0h64v64h-64z" fill="none"/><path d="m52.84 45.01-11.89.39c-.7.02-1.28.52-1.26 1.22-.13.69.37 1.27.97 1.47l4.55 1.29-6.65 5.68c-1.08.92-.42 2.37.43 3.37s2.04 1.71 3.12.79l6.65-5.68.56 4.7c.22.88.84 1.24 1.3 1.19.62.05 1.27-.37 1.4-1.05l2.23-11.69c.15-.86-.56-1.69-1.41-1.68z"/><path d="m55 14h-3.61c-3.3 0-6.5 1.17-9.02 3.3l-20.75 17.46c-.05-.03-.25-.18-.04-.44.12-.15 2.1-2.63 3.9-4.88.18-2.29.24-4.43.07-6.44-.34-4.01-5.8-4.16-6.21-.91-.51 4.02.15 8.63.32 10.38.14 1.39.26 2.59.36 3.66l-8.14 6.87h-2.88c-4.42 0-8 3.58-8 8s3.58 8 8 8h3.61c3.3 0 6.5-1.17 9.02-3.3l30.49-25.7h2.88c4.42 0 8-3.58 8-8s-3.58-8-8-8zm0 12h-3.48c-.55 0-1.09.2-1.51.55l-30.48 25.7c-2.11 1.77-4.79 2.75-7.54 2.75h-2.99c-2.21 0-4-1.79-4-4s1.79-4 4-4h2.99c.87 0 1.71-.31 2.38-.87l6.15-5.19c.09.79.19 1.58.3 2.42.46 3.5 2.4 4 3.36 3.51.11-2.61.36-6.33.51-9.44l20.16-16.99c1.86-1.57 4.23-2.44 6.67-2.44h3.48c2.21 0 4 1.79 4 4s-1.79 4-4 4z"/><path d="m22.68 18.55c1.8.16 2.95-1.01 3.1-2.83.18-2.06-.81-3.27-2.56-3.42-1.84-.16-2.95 1.06-3.11 2.93-.17 1.97.77 3.16 2.57 3.32z"/></svg>