<?xml version="1.0" encoding="utf-8"?>
<!-- Generator: Adobe Illustrator 24.1.3, SVG Export Plug-In . SVG Version: 6.00 Build 0)  -->
<svg version="1.1" xmlns="http://www.w3.org/2000/svg" xmlns:xlink="http://www.w3.org/1999/xlink" x="0px" y="0px"
	 viewBox="0 0 64 64" style="enable-background:new 0 0 64 64;" xml:space="preserve">
<style type="text/css">
	.st0{fill:none;}
	.st1{fill:#FF1D25;}
	.st2{fill:#1D1D1B;}
</style>
<g id="Box">
	<rect class="st0" width="64" height="64"/>
</g>
<g id="Icon">
	<g>
		<path d="M23.2,45.47c-0.13-0.69-0.78-1.1-1.4-1.05c-0.47-0.06-1.08,0.31-1.3,1.19l-0.56,4.7l-6.65-5.68
			c-1.08-0.92-2.26-0.21-3.12,0.79c-0.85,1-1.51,2.44-0.43,3.37l6.65,5.68l-4.55,1.29c-0.6,0.2-1.1,0.78-0.97,1.47
			c-0.02,0.7,0.56,1.2,1.26,1.22l11.89,0.39c0.85,0.01,1.56-0.82,1.42-1.66L23.2,45.47z"/>
		<path d="M29.81,8.03c1.8,0.13,2.93-1.06,3.06-2.88c0.15-2.07-0.86-3.25-2.62-3.38c-1.85-0.13-2.93,1.11-3.06,2.98
			C27.04,6.73,28.01,7.91,29.81,8.03z"/>
		<path d="M55,43h-2.88L32.29,26.28c0.63-8.53,0.82-10.22,0.46-13.84c-0.4-4-5.84-4.15-6.37-0.92c-0.62,3.8-0.2,6.66-0.05,7.49
			c1.89,2.36,4.17,5.22,4.3,5.38c0.21,0.26,0.01,0.41-0.04,0.44l-8.95-7.53c-2.52-2.13-5.73-3.3-9.02-3.3H9c-4.42,0-8,3.58-8,8
			s3.58,8,8,8h2.88l30.49,25.7c2.52,2.13,5.73,3.3,9.02,3.3H55c4.42,0,8-3.58,8-8S59.42,43,55,43z M55,55h-3.61
			c-2.36,0-4.64-0.84-6.45-2.35L13.99,26.55C13.57,26.2,13.03,26,12.48,26H9c-2.21,0-4-1.79-4-4s1.79-4,4-4h3.48
			c2.44,0,4.81,0.86,6.67,2.44l8.57,7.23c0.05,1.19,0.22,5.13,0.35,6.94c0.26,3.52,3.27,4.2,3.68,4.28
			c0.06-2.11,0.19-4.92,0.29-7.57L50.1,46.53c0.36,0.3,0.82,0.47,1.29,0.47H55c2.21,0,4,1.79,4,4S57.21,55,55,55z"/>
	</g>
</g>
</svg>
