<svg enable-background="new 0 0 64 64" height="64" viewBox="0 0 64 64" width="64" xmlns="http://www.w3.org/2000/svg"><path d="m0 0h64v64h-64z" fill="none"/><path d="m56 50h-2l-4.9-11h-2.5l4.4 11h-3l-3.7-11h-2.3l3 11h-3l-2.4-11h-2.3l1.7 11h-3l-1-11h-2.3l.3 11h-3l.3-11h-2.3l-1 11h-3l1.7-11h-2.3l-2.4 11h-3l3.1-11h-2.3l-3.8 11h-3l4.4-11h-2.5l-4.9 11h-2c-.6 0-1 .4-1 1v3c0 .6.4 1 1 1h49c.6 0 1-.4 1-1v-3c0-.6-.4-1-1-1zm0-18h-2l-5-11.1v-11.9c0-.6-.4-1-1-1h-33c-.6 0-1 .4-1 1v11.9l-5 11.1h-2c-.6 0-1 .4-1 1v3c0 .6.4 1 1 1h49c.6 0 1-.4 1-1v-3c0-.6-.4-1-1-1zm-44 0 4.4-11h2.3l-3.7 11zm9 0h-3l3.1-11h2.3zm6 0h-3l1.7-11h2.3zm3 0 .3-11h2.3l.4 11zm6 0-1-11h2.3l1.7 11zm6 0-2.4-11h2.3l3.1 11zm6 0-3.7-11h2.3l4.4 11z"/></svg>