<svg height="64" viewBox="0 0 64 64" width="64" xmlns="http://www.w3.org/2000/svg"><path d="m0 0h64v64h-64z" fill="none"/><path d="m39.6177 28.6855c-2.8209 1.502-4.7896 1.3613-5.2258 1.3141-.3312-.0359-.3839-.144-.392-.2034 1.9688-.4525 4.4597-1.6572 6.2501-4.1819 1.097-1.6018 1.75-3.5298 1.75-5.6143v-12c2.2091 0 4-1.7909 4-4h-.0684-27.8632c0 2.2091 1.7225 4 3.9316 4v12c0 3.4805 1.7925 6.5442 4.4977 8.3358-3.857.4989-6.4877 1.5037-6.4877 2.6642 0 1.6569 5.3625 3 11.99 3s12-1.3431 12-3c0-.933-1.7089-1.7647-4.3823-2.3145zm-13.6177-8.3855v-12.3h4v12c0 1.1045.8955 2 2 2s2-.8955 2-2v-12h4v12.3c0 3.3086-2.6914 5.7-6 5.7s-6-2.3914-6-5.7z"/><path d="m38.5527 41.1006c-.7402-1.041-1.5059-2.1182-2.2236-3.3027-.1138-.1875-.3535-.5811-.7036-.4268-.3545.1514-.2324.5918-.1738.8037.3687 1.335.6289 2.6318.8804 3.8857.291 1.4531.5664 2.8252.9692 4.0029.4375 1.2793 1.019 2.0879 1.7285 2.4033.2173.0967.4438.1445.6733.1445.2334 0 .4692-.0498.7021-.1494.4639-.1982.7944-.543.9556-.9961.2603-.7314.0737-1.709-.5532-2.9043-.5835-1.1112-1.3955-2.2528-2.2549-3.4608z"/><path d="m49.707 43.1699c.9238.9648 1.7817 1.4531 2.5508 1.4531h.0283c.479-.0078.9102-.209 1.2466-.583.3374-.375.4922-.8271.4478-1.3057-.0723-.7734-.6519-1.5811-1.7236-2.4014-.9971-.7627-2.2129-1.4561-3.501-2.1914-1.1099-.6328-2.2578-1.2881-3.4077-2.0615-.1836-.1221-.5605-.376-.8179-.0918-.2583.2871.0376.6357.1802.8037.897 1.0566 1.6792 2.125 2.4355 3.1572.875 1.1945 1.7012 2.3234 2.561 3.2208z"/><path d="m53.1489 51.8066c-.8325-.9385-1.8936-1.8516-3.0171-2.8193-.9688-.834-1.9702-1.6953-2.9521-2.6758-.1665-.166-.4756-.4736-.7837-.2461-.3105.2314-.0859.6309.022.8232.6787 1.209 1.2422 2.4062 1.7876 3.5645.6304 1.3398 1.2261 2.6055 1.8989 3.6514.731 1.1367 1.4897 1.7822 2.2539 1.9189.1001.0176.2002.0264.2988.0264.3662 0 .7197-.1221 1.0356-.3604.4028-.3037.6411-.7178.689-1.1963.0772-.7734-.3374-1.6767-1.2329-2.6865z"/><path d="m33.2002 52.2842c-.269-1.25-.5469-2.5439-.7407-3.916-.0303-.2168-.0942-.668-.4785-.668-.3853 0-.4473.4531-.4775.6719-.186 1.374-.4595 2.667-.7241 3.917-.3066 1.4502-.5962 2.8203-.6885 4.0713-.0996 1.3457.1191 2.3164.6494 2.8838.3257.3486.7622.5332 1.2622.5332h.0107c.5024-.0029.9395-.1904 1.2632-.5439.5254-.5723.7368-1.5449.6284-2.8926-.0991-1.2403-.3936-2.6085-.7046-4.0567z"/><path d="m28.442 37.3711c-.3501-.1543-.5898.2393-.7036.4268-.7178 1.1846-1.4834 2.2617-2.2236 3.3027-.8594 1.208-1.6714 2.3496-2.2549 3.4609-.627 1.1953-.8135 2.1729-.5532 2.9043.1611.4531.4917.7979.9556.9961.2329.0996.4688.1494.7021.1494.2295 0 .4561-.0479.6733-.1445.7095-.3154 1.291-1.124 1.7285-2.4033.4028-1.1777.6782-2.5498.9692-4.0029.2515-1.2539.5117-2.5508.8804-3.8857.0586-.212.1806-.6524-.1738-.8038z"/><path d="m18.7193 36.0801c-1.1499.7734-2.2979 1.4287-3.4077 2.0615-1.2881.7354-2.5039 1.4287-3.501 2.1914-1.0718.8203-1.6514 1.6279-1.7236 2.4014-.0444.4785.1104.9307.4478 1.3057.3364.374.7676.5752 1.2466.583h.0283c.769 0 1.627-.4883 2.5508-1.4531.8599-.8975 1.686-2.0264 2.561-3.2207.7563-1.0322 1.5386-2.1006 2.4355-3.1572.1426-.168.4385-.5166.1802-.8037-.2574-.2843-.6343-.0304-.8179.0917z"/><path d="m16.8878 46.3115c-.9819.9805-1.9834 1.8418-2.9521 2.6758-1.1235.9678-2.1846 1.8809-3.0171 2.8193-.8955 1.0098-1.3101 1.9131-1.2329 2.6865.0479.4785.2861.8926.689 1.1963.3159.2383.6694.3604 1.0356.3604.0986 0 .1987-.0088.2988-.0264.7642-.1367 1.5229-.7822 2.2539-1.9189.6729-1.0459 1.2686-2.3115 1.8989-3.6514.5454-1.1582 1.1089-2.3555 1.7876-3.5645.1079-.1924.3325-.5918.022-.8232-.3082-.2275-.6172.0801-.7837.2461z"/></svg>