<svg viewBox="0 0 64 64" xmlns="http://www.w3.org/2000/svg"><path d="m0 0h64v64h-64z" fill="none"/><path d="m55 13.22a5 5 0 0 0 -4.22-4.22c-6.26-1-16.69-1-18.78-1s-12.52 0-18.78 1a5 5 0 0 0 -4.22 4.22c-1 6.26-1 16.69-1 18.78s0 12.52 1 18.78a5 5 0 0 0 4.22 4.22c6.26 1 16.69 1 18.78 1s12.52 0 18.78-1a5 5 0 0 0 4.22-4.22c1-6.26 1-16.69 1-18.78a113.76 113.76 0 0 0 -1-18.78zm-23 27.21h-4.7l-2.73-9.59h-.13l-2.89 9.59h-4.55l-4.4-17h3.77l3.22 13.93h.16l3.25-10.45-1.09-3.53h3.64l4 13.93h.16l3.14-13.93h3.48zm17.42-.23a13.68 13.68 0 0 1 -3.8.41c-4.78 0-8.42-2.68-8.42-8.19 0-6.16 3.95-9.23 8.84-9.23a15.66 15.66 0 0 1 3.35.34l-.23 2.86a15.7 15.7 0 0 0 -3.22-.26c-2.86 0-5.18 2-5.18 6s2.47 5.67 5.05 5.67a16.74 16.74 0 0 0 3.61-.34z"/></svg>