<?xml version="1.0" encoding="utf-8"?>
<!-- Generator: Adobe Illustrator 24.1.3, SVG Export Plug-In . SVG Version: 6.00 Build 0)  -->
<svg version="1.1" xmlns="http://www.w3.org/2000/svg" xmlns:xlink="http://www.w3.org/1999/xlink" x="0px" y="0px"
	 viewBox="0 0 64 64" style="enable-background:new 0 0 64 64;" xml:space="preserve">
<style type="text/css">
	.st0{fill:none;}
	.st1{fill:#FF1D25;}
	.st2{fill:#1D1D1B;}
</style>
<g id="Box">
	<rect class="st0" width="64" height="64"/>
</g>
<g id="Icon">
	<g>
		<path d="M55.64,45.47l-11.79-1.61c-0.69-0.09-1.35,0.3-1.44,0.99c-0.24,0.66,0.15,1.31,0.71,1.61l4.27,2.03l-7.5,4.49
			c-1.22,0.73-0.81,2.27-0.14,3.39c0.67,1.13,1.72,2.03,2.94,1.3l7.5-4.49l-0.23,4.72c0.07,0.9,0.62,1.37,1.09,1.39
			c0.6,0.15,1.31-0.15,1.56-0.8l4.16-11.15C57.04,46.54,56.48,45.6,55.64,45.47z"/>
		<path d="M25.12,8.88c1.96,0.28,3.3-0.93,3.58-2.91c0.33-2.25-0.69-3.63-2.6-3.91c-2.01-0.29-3.3,0.98-3.6,3.02
			C22.2,7.23,23.16,8.6,25.12,8.88z"/>
		<path d="M16.17,24.11c0.25-2.21,0.65-5.52,1.33-6.96c0.28-0.59,1.56-1.48,2.1-1.85c-0.32,1.61-1.41,6.99-1.38,8.22
			c0.03,1.52,0.75,2.24,1.56,2.64c0.97,0.48,2.76,1.07,2.76,1.07s-0.02,0.18-0.26,0.16c-1.23-0.11-2.77-0.2-2.77-0.2
			c-0.1,0.4-0.47,7.89-0.47,7.89s-1.86,2.86-2.7,4.41c-1.39,2.54,0.38,4.35,0.63,4.58c1.37-2.01,3.35-4.53,4.69-6.62
			c0.44-0.69,1.06-1.61,1.33-2.87c0.19-0.9,0.46-3.16,1-6.82c1.83,0.78,3.11,1.27,4.08,1.65c-0.05,3.49,0.02,5.12,0.28,6.52
			c0.43,2.35,1.92,2.75,2.6,2.81c0.36-2.6,0.87-6.99,1.06-9.64c0.13-1.88-0.56-3.01-1.14-3.44c-0.68-0.51-1.29-0.71-1.95-0.98
			c-1.52-0.62-2.18-0.91-3.72-1.57c0.42-1.87,0.73-2.99,1.18-5.1c0.22,0.65,0.48,1.34,0.86,2.07c0.46,0.86,2.93,1.76,3.8,2.2
			c2.11,1.08,3.48-0.19,3.75-0.48c-1.79-1.2-5.05-2.82-5.36-3.47c-0.3-0.62-0.35-0.92-0.57-1.65c-0.1-0.34-0.6-3.43-1.32-4.59
			c-0.75-1.21-4.58-3.08-6.91-1.62c-1.28,0.8-3.69,2.66-4.91,4.04c-0.74,0.85-1.03,1.36-1.32,3.2c-0.17,1.16-0.27,2.5-0.28,3.66
			C14.1,22.64,14.81,23.85,16.17,24.11z"/>
		<path d="M56.5,28h-9.4c-1.16,0-2.1,0.94-2.1,2.1V34h-7.9c-1.16,0-2.1,0.94-2.1,2.1V40h-7.9c-1.16,0-2.1,0.94-2.1,2.1V46h-7.9
			c-1.16,0-2.1,0.94-2.1,2.1V52H7.5C6.4,52,6,52.9,6,54c0,1.1,0.4,2,1.5,2H19v-6h10v-6h10v-6h10v-6h7.5c1.1,0,1.5-0.9,1.5-2
			C58,28.9,57.6,28,56.5,28z"/>
	</g>
</g>
</svg>
