<svg height="64" viewBox="0 0 64 64" width="64" xmlns="http://www.w3.org/2000/svg"><path d="m0 0h64v64h-64z" fill="none"/><path d="m26.7823 13.948 7.1694-5.8982c1.6069-1.3218 3.6377-2.0498 5.7182-2.0498h12.3301v-4h-12.3301c-3.0054 0-5.9385 1.0518-8.2593 2.9609l-8.5205 7.0098h.3677c1.5863 0 2.8441.7595 3.5245 1.9773z"/><path d="m22.7454 29.7049s1.2109-.4612 1.2109-1.1724c0-.357-.0007-3.5056-2.4103-3.5163l.0005-.001h-.0121c-1.08 0-15.8496 0-16.9296 0h-.0123l.0005.001c-2.4096.0107-2.4103 3.1593-2.4103 3.5163 0 .7112 1.2109 1.1724 1.2109 1.1724s2.4099 1.1724 9.6759 1.1724c7.2659 0 9.6759-1.1724 9.6759-1.1724z"/><path d="m5.241 22.9565h15.517s.0092-1.9581-.0607-4.4376c3.9314-.494 4.3716-.7727 4.3716-2.3666 0-1.0944-.5825-1.9816-1.8809-1.9816h-2.6945c-.1047-1.4873-.2504-2.9898-.4539-4.0381-.3303-1.7007-1.5358-3.0793-2.9113-3.4508-1.0502-.2836-2.4268-.5203-4.1288-.5203s-3.0787.2367-4.1288.5203c-1.3755.3715-2.5811 1.7501-2.9113 3.4508-.2036 1.0483-.3492 2.5508-.4539 4.0381h-2.6946c-1.2985 0-1.8809.8872-1.8809 1.9816 0 1.5939.528 1.8882 4.3716 2.3706-.0698 2.4776-.0606 4.4336-.0606 4.4336z"/><path d="m47 32.7998c1.4879 0 3.2439.025 5 .0992v-15.899h-13.9382v9h-10v9h-10v9h-10v9h22.7979c-.045-1.4144-.0599-2.7951-.0599-4 0-3.2148.106-7.6812.6084-10.6997.418-2.5083 2.3838-4.4741 4.8921-4.8916 3.0185-.5029 7.4844-.6089 10.6997-.6089z"/><path d="m59.435 38.826c-.1949-1.1729-1.0873-2.0652-2.2607-2.2607-3.3914-.5653-9.0442-.5653-10.1742-.5653s-6.7828 0-10.1743.5654c-1.1734.1955-2.0657 1.0878-2.2607 2.2607-.5651 3.3912-.5651 9.0436-.5651 10.1739 0 1.1304 0 6.7827.5651 10.174.195 1.1728 1.0873 2.0651 2.2607 2.2607 3.3914.5653 9.0442.5653 10.1743.5653s6.7828 0 10.1742-.5653c1.1735-.1956 2.0658-1.0879 2.2607-2.2607.565-3.3913.565-9.0436.565-10.174 0-3.393 0-6.7827-.565-10.174zm-3.9707 3.618-8.8301 14.52c-.2461.4048-.6856.6514-1.1582.6514-.002 0-.0029 0-.0049 0-.4745-.0015-.9141-.2515-1.1582-.6587l-5.7822-9.6499c-.3418-.5713-.2188-1.3066.292-1.7348.5088-.4288 1.2539-.4229 1.7588.0136l4.7734 4.1348 7.9404-8.8838c.4668-.522 1.2539-.6025 1.8184-.1855.5625.4168.7148 1.1942.3506 1.7929z"/></svg>