<svg enable-background="new 0 0 64 64" viewBox="0 0 64 64" xmlns="http://www.w3.org/2000/svg"><path d="m0 0h64v64h-64z" fill="none"/><path d="m19.35 44.69c-.24-.66-.96-.95-1.56-.8-.47.02-1.02.49-1.09 1.39l.24 4.72-7.5-4.49c-1.22-.73-2.27.17-2.94 1.3s-1.08 2.66.14 3.39l7.5 4.49-4.27 2.03c-.56.3-.95.96-.71 1.61.09.69.75 1.09 1.44.99l11.79-1.61c.84-.13 1.4-1.07 1.12-1.88z"/><path d="m56.5 52h-7.5v-3.9c0-1.16-.94-2.1-2.1-2.1h-7.9v-3.9c0-1.16-.94-2.1-2.1-2.1h-7.9v-3.9c0-1.16-.94-2.1-2.1-2.1h-7.9v-3.9c0-1.16-.94-2.1-2.1-2.1h-9.4c-1.1 0-1.5.9-1.5 2s.4 2 1.5 2h7.5v6h10v6h10v6h10v6h11.5c1.1 0 1.5-.9 1.5-2s-.4-2-1.5-2z"/><path d="m40.77 10.27c1.98.14 3.22-1.17 3.36-3.16.16-2.27-.95-3.57-2.88-3.71-2.03-.14-3.22 1.22-3.37 3.27-.15 2.16.91 3.46 2.89 3.6z"/><path d="m32.96 26.11c.09-2.22.24-5.55.81-7.04.23-.61 1.45-1.59 1.96-2-.19 1.54-.64 5.79-.77 7.37-.2 2.58.79 5.28 1.87 8.46-2.11.88-3.04 1.03-4.19 1.87-1.94 1.4-1.65 2.91-1.42 3.56 2.55-.7 5.5-1.49 8.01-2.37 1.3-.46 1.63-2.18 1.32-3.59-.21-.95-.43-1.95-.64-2.95.99 1.19 4.14 4.67 4.14 4.67s.78 4.16 1.15 5.87c.62 2.82 3.15 3.03 3.48 3.04-.28-2.42-.6-6-.93-8.7-.1-.82-.26-1.91-.88-3.04-.42-.76-2.82-3.57-5.02-6.53.26-1.73.55-3.52.82-5.46.27.64.57 1.3 1.01 2 .52.83 3.05 1.54 3.95 1.92 2.18.92 3.45-.45 3.7-.76-.9-.51-3.01-1.52-3.59-1.82-.46-.24-1.75-.8-2.01-1.25-.81-1.39-1.69-5.09-2.34-6.09-.78-1.19-4.79-2.73-7.01-1.11-1.22.89-3.49 2.93-4.6 4.39-.67.9-.93 1.43-1.08 3.28-.09 1.17-.09 2.51-.01 3.67.1 1.3.89 2.45 2.27 2.61z"/></svg>