<svg xmlns="http://www.w3.org/2000/svg" viewBox="0 0 64 64"><defs><style>.cls-1{fill:none;}</style></defs><g id="BOX"><rect class="cls-1" width="64" height="64"/></g><g id="ICOON"><path d="M46.3,32.61V48.4H17.7V32.61H14a2,2,0,0,0-2,2V52.14a2,2,0,0,0,2,2H50a2,2,0,0,0,2-2V34.61a2,2,0,0,0-2-2Z"/><line x1="28.26" y1="23.77" x2="26.47" y2="24.79"/><path d="M28.26,23.77V41.64c0,2,1.76,2.63,3.74,2.63s3.74-.6,3.74-2.63V23.77L42,27.31a2.53,2.53,0,0,0,3.24-3.76L34,9.35a2.54,2.54,0,0,0-4,0L18.8,23.55a2.53,2.53,0,0,0,3.25,3.76L24,26.22l2.5-1.43,1.79-1"/></g></svg>