<svg height="64" viewBox="0 0 64 64" width="64" xmlns="http://www.w3.org/2000/svg"><path d="m0 0h64v64h-64z" fill="none"/><path d="m61 34.1h-1.2c.8-4.3-1.2-7.2-1.3-7.3l-.8.6-.7.6s1.6 2.3 1 5.7l-1.2-.6c-.3-.1-.5.1-.4.4l1.5 3.3c.1.2.4.3.6.1l2.8-2.3c.2-.2 0-.5-.3-.5zm-12-22.1h-34c-1.7 0-3 1.3-3 3v34c0 1.7 1.3 3 3 3h34c1.7 0 3-1.3 3-3v-34c0-1.7-1.3-3-3-3zm-17 3.8c3 0 5.7.8 8.1 2.2h-16.2c2.4-1.4 5.1-2.2 8.1-2.2zm16.9 17.6c-.3.1-.5.1-.8.2-.1.8-.2 1.7-.4 2.5h-31.4c-.2-.8-.4-1.6-.4-2.5-.2 0-.4-.1-.6-.1-.4-.2-.3-.4-.3-.5h34.1c.1.1.1.3-.2.4zm0 6c-.9.2-1.9.4-2.8.5-.4.7-.9 1.4-1.4 2.1h-25.4c-.5-.7-1-1.4-1.5-2.1-.8-.1-1.7-.3-2.6-.5-.3-.1-.2-.3-.2-.4h34.1c.1.1.1.3-.2.4zm0-12c-.4.1-.9.2-1.3.3.2.8.4 1.6.5 2.4h-32.2c.1-.8.3-1.6.5-2.4-.4-.1-.8-.1-1.2-.2-.3-.2-.2-.4-.2-.5h34.1c.1.1.1.3-.2.4zm0-6c-1.4.3-2.8.5-4.1.7.5.6.9 1.2 1.2 1.9h-28.1c.4-.7.8-1.3 1.3-1.9-1.2-.2-2.6-.5-3.9-.7-.4-.1-.3-.3-.3-.4h34.1c.1.1.1.3-.2.4zm-33.9-7.9c.8 0 1.5.7 1.5 1.5s-.7 1.5-1.5 1.5-1.5-.7-1.5-1.5.7-1.5 1.5-1.5zm0 37c-.8 0-1.5-.7-1.5-1.5s.7-1.5 1.5-1.5 1.5.7 1.5 1.5-.7 1.5-1.5 1.5zm17-2.3c-2.8 0-5.4-.7-7.7-1.9-2.5-.2-6.1-.5-9.1-.9-.3 0-.3-.3-.2-.4h34.1c0 .1.1.3-.2.4-3.1.3-6.8.7-9.3.9-2.2 1.2-4.8 1.9-7.6 1.9zm17 2.3c-.8 0-1.5-.7-1.5-1.5s.7-1.5 1.5-1.5 1.5.7 1.5 1.5-.7 1.5-1.5 1.5zm0-34c-.8 0-1.5-.7-1.5-1.5s.7-1.5 1.5-1.5 1.5.7 1.5 1.5-.7 1.5-1.5 1.5z"/></svg>