<svg enable-background="new 0 0 64 64" viewBox="0 0 64 64" xmlns="http://www.w3.org/2000/svg"><path d="m0 0h64v64h-64z" fill="none"/><path d="m11.5 16.8c2.2 0 3.5-1.6 3.5-3.8 0-2.6-1.3-4-3.5-4-2.3 0-3.5 1.6-3.5 4s1.3 3.8 3.5 3.8z"/><path d="m30.583 21.773c.154-.988-.154-2.15-2.306-2.65-2.057-.478-5.944-.918-9.945-1.068-5.286-.197-10.773.114-12.512 1.52-2.893 2.341-2.72 8.711-2.72 14.125.2 2.2 1.8 2.8 2.8 2.8 0-.1 0-1.2 0-2.2 0-.5 0-3.3 0-3.6 0-2.7.5-5.6.8-6.6.1-.3.3-.2.3-.2v30.1s3.3 0 3.6-3.7c0 0 .5-14 .5-14.1 0-.2.1-.4.4-.4s.4.2.4.4.5 14 .5 14c.2 3.8 3.6 3.8 3.6 3.8v-31.664c0-.398.303-.726.7-.76 3.218-.273 8.659-.19 13.883.197z"/><path d="m52.5 16.8c2.2 0 3.5-1.4 3.5-3.8s-1.2-4-3.5-4c-2.2 0-3.5 1.4-3.5 4 0 2.2 1.3 3.8 3.5 3.8z"/><path d="m58.179 19.576c-1.739-1.406-7.226-1.717-12.512-1.52-4.001.149-7.888.59-9.945 1.068-2.152.499-2.46 1.662-2.306 2.65 5.225-.387 10.665-.471 13.884-.197.397.034.7.362.7.76v31.663s3.399 0 3.6-3.8c0 0 .5-13.8.5-14s.1-.4.4-.4.4.2.4.4c0 .1.5 14.1.5 14.1.3 3.7 3.6 3.7 3.6 3.7v-30.1s.2-.1.3.2c.3 1 .8 3.9.8 6.6v3.6 2.2c1 0 2.6-.6 2.8-2.8-.001-5.414.172-11.784-2.721-14.124z"/><path d="m20.981 44.41-.097.028v1.237l.158-.027c.457-.08.811-.114 1.26-.12v4.331h1.522v-5.754h-.833c-.649 0-1.325.103-2.01.305z"/><path d="m26.161 47.849c-.566 0-.977.416-.977.988 0 .32.137.597.374.764l-.645 1.477h.793c.38 0 1.442-1.497 1.442-2.185.001-.653-.369-1.044-.987-1.044z"/><path d="m29.998 46.653c-.212 0-.403.007-.629.023v-1.204h2.858v-1.367h-4.169v4.019l.149-.016c.453-.048.92-.076 1.282-.076.686 0 1.505.184 1.505 1.061 0 .82-.773 1.349-1.97 1.349h-1.076v1.301h1.021c2.108 0 3.58-1.158 3.58-2.816-.001-1.424-.954-2.274-2.551-2.274z"/><path d="m40.985 44.039c-.614 0-1.145.172-1.707.555-.366-.378-.847-.555-1.505-.555-.462 0-.841.099-1.296.346v-.308l-1.477.068v5.714h1.511v-4.22c.316-.123.515-.167.878-.167.6 0 .856.271.856.906v3.481h1.511v-4.219c.335-.129.545-.167.878-.167.584 0 .856.288.856.906v3.481h1.51v-3.735c0-1.326-.734-2.086-2.015-2.086z"/><path d="m40.109 28.728c-.316-.253-.777-.172-1.021.111-.193.225-.249.577.015.989.813 1.267 1.397 2.172 1.397 2.172h-17s.584-.905 1.396-2.172c.264-.412.208-.764.015-.989-.243-.283-.705-.364-1.021-.111-2.413 1.934-4.014 3.248-5.098 4.1-.21.165-.3.432-.293.672-.007.24.083.508.293.672 1.083.851 2.685 2.165 5.098 4.1.316.253.777.172 1.021-.111.194-.225.25-.577-.015-.989-.812-1.267-1.396-2.172-1.396-2.172h17s-.584.905-1.396 2.173c-.264.412-.208.764-.015.989.243.283.705.364 1.021.111 2.413-1.934 4.014-3.249 5.098-4.1.21-.165.3-.432.293-.672.007-.24-.083-.508-.293-.672-1.085-.853-2.686-2.167-5.099-4.101z"/></svg>