<svg height="64" viewBox="0 0 64 64" width="64" xmlns="http://www.w3.org/2000/svg"><path d="m0 0h64v64h-64z" fill="none"/><path d="m52.1533 55.5962c1.3215.6415 2.2239 1.9198 2.3721 3.4038h1.4746s-.3708-2.8784-1.0927-6.1652z"/><path d="m40.4248 45.3169c1.6553 0 3.1348.9614 3.8398 2.3965l3.3008-3.3101c-1.4817-.7188-2.4307-2.2399-2.3862-3.9527-1.875-.7415-3.7146-1.3381-4.9524-1.7135-.155-1.1155-.3613-2.4073-.5466-3.4836 1.7886-2.1667 2.8875-4.4047 3.2495-6.6968 1.3281-1.2195 2.0679-3.1657 2.0679-5.5557 0-.7447.0012-2.7025-1.2268-4.0366.3037-3.3378.5151-8.5034-.7869-10.587-1.6025-2.5649-3.5498-3.8159-7.2632-2.9775-2.4355-1.1577-4.0938-1.8823-8.3608-.8398-2.9648.7241-6.21 1.9067-7.9199 3.8798-1.6521 1.9066-1.5394 7.2238-1.2742 10.6054-1.1589 1.332-1.1633 3.2256-1.1633 3.9557 0 2.386.7373 4.3299 2.0613 5.5497.382 2.5118 1.613 4.9141 3.7106 7.2619-.1061.807-.2283 1.7498-.3529 2.7313-2.5129.7345-9.6715 2.9969-12.0342 5.5665-2.8736 3.124-4.3873 14.8896-4.3873 14.8896h29.0328l1.1263-9.877c.1025-.8745.457-1.6782 1.0283-2.3325.7588-.876 1.8672-1.4141 3.0342-1.4688zm-9.0438 4.0229c-2.3003-1.75-6.5919-5.5302-6.1588-9.0224.2371-1.9129.0408-.5492.8235-5.4371-2.2766-2.1999-4.1042-4.8665-4.1042-8.061-1.6178-.5039-2.0415-2.5454-2.0415-3.8183 0-1.2725.3217-1.961.7738-2.1743.3921-.1845.7725-.0476 1.0129.0886.1414.6527.2483 1.1383.2898 1.3098.2061.8511 1.0235.7729 1.0235.7729v-6.7451c2.0731-.1505 6.1937-.7531 10.7499-3.1062l5.2501 3.5262v6.3251s.8174.0782 1.0234-.7729c.0415-.1715.1484-.6571.2898-1.3098.2405-.1362.6208-.2731 1.0129-.0886.4522.2133.7739.9018.7739 2.1743 0 1.2729-.4237 3.3145-2.0414 3.8183 0 3.7027-2.5334 6.4959-5.3403 8.8846-.7806.6644-2.2499 1.1066-3.7188 1.1055-1.0627-.0008-2.1255-.2865-2.9271-.6349.6139.9305 1.6554 2.0744 3.5848 2.5851 3.1548.8349 5.4595-.9139 5.4595-.9139s.2827 1.9133.2744 2.4157c.3268 3.4883-3.5566 7.3169-6.0101 9.0784z"/><path d="m61.4805 38.3741c-.2755-.2753-.6619-.4099-1.0497-.3659l-11.1134 1.2676c-.2671.0307-.5085.1416-.7001.3078-.2594.2249-.4276.5506-.4445.9144-.0304.632.4045 1.1895 1.0242 1.3145l4.332.8699-5.7764 5.7763c-.0153.0153-.0227.0314-.0372.0468l-5.1689 5.1689-.87-4.3319c-.125-.6196-.6824-1.0546-1.3145-1.0242-.3638.0168-.6895.1851-.9143.4443-.1661.1917-.2772.433-.3079.7001l-1.2675 11.1135c-.0441.3879.0906.7742.3658 1.0496.2754.2753.6616.4099 1.0496.366l11.1135-1.2676c.2992-.0344.5664-.1699.7671-.3706.2207-.2206.3618-.5205.3772-.8516.0305-.632-.4044-1.1895-1.024-1.3145l-4.3319-.87 5.7764-5.7762c.012-.0121.0168-.0259.0283-.0381l5.1776-5.1776.8701 4.3318c.125.6196.6824 1.0546 1.3145 1.0242.3311-.0155.631-.1567.8516-.3773.2006-.2007.3363-.4678.3707-.7671l1.2676-11.1135c.0439-.3878-.0908-.7742-.3659-1.0496z"/></svg>