<svg enable-background="new 0 0 64 64" height="64" viewBox="0 0 64 64" width="64" xmlns="http://www.w3.org/2000/svg"><path d="m0 0h64v64h-64z" fill="none"/><path d="m52.6 44.1c-2.3-2.5-9-4.7-11.7-5.5-.1-1-.3-2.1-.4-3.2 1.9-2.2 3.1-4.5 3.4-6.9 1.3-1.2 2.1-3.2 2.1-5.6 0-.9 0-3.4-1.9-4.6v-1.1c0-7-6.2-11.2-12.1-11.2s-12.1 4.2-12.1 11.3v1.1c-1.9 1.2-1.9 3.7-1.9 4.6 0 2.4.7 4.3 2.1 5.5.4 2.4 1.5 4.7 3.4 6.9-.1 1.1-.3 2.2-.4 3.2-2.7.8-9.4 3-11.7 5.5-2.9 3.1-4.4 14.9-4.4 14.9h50s-1.5-11.8-4.4-14.9zm-.5 5.9h-16.2c.9-.8 1.9-1.8 2.8-3h12.3c.3.7.7 1.8 1.1 3zm-11.1-8.2c1.9.6 4.1 1.4 5.9 2.2h-6.4c.2-.7.4-1.4.5-2.2zm-18.1-15c-1.6-.5-1.9-2.5-1.9-3.8s.2-2 .7-2.2c.7-.3 1.2.2 1.3.3v-3.8c0-5.7 5.2-8.3 9.1-8.3s9.1 2.5 9.1 8.3v3.8c.1 0 .6-.6 1.3-.3.3.2.5.9.5 2.2s-.3 3.3-1.9 3.8c0 3.8-2.7 6.9-5.3 9.2-.8.7-2.2 1-3.7 1-1.1 0-2.1-.2-2.9-.5.6.9 1.7 2.1 3.6 2.6 2.5.7 4.4-.5 5.1-1 0 0 .2 1.6.3 2.2.4 3.5-3.7 7.3-6.1 9-2.4-1.7-6.5-5.5-6.1-9 .1-.6.6-4.6.7-5.8-2.1-2.1-3.8-4.6-3.8-7.7zm.1 15c.1.8.3 1.5.6 2.2h-6.4c1.7-.8 3.8-1.6 5.8-2.2zm-10 5.2h12.3c.9 1.2 1.9 2.2 2.8 3h-16.2c.4-1.2.8-2.3 1.1-3zm25 9h-27.5l.6-3h26.9zm10-3h4.9l.6 3h-5.5z"/></svg>