<svg enable-background="new 0 0 64 64" height="64" viewBox="0 0 64 64" width="64" xmlns="http://www.w3.org/2000/svg"><path d="m0 0h64v64h-64z" fill="none"/><path d="m38.5 50.3c-1.1-.3-1.3-1.4-1.4-2.6 1.5-1.7 2.7-3.8 3-6.5 1.5-.4 1.7-2.3 1.7-3.4s-.2-1.7-.6-1.9c-.2-.1-.5-.1-.7-.1.1-2.4.3-7-.7-8.8-1.1-1.9-2.4-2.4-4.9-1.8-1.6-.9-2.7-1.7-5.6-.9-2 .5-4.1 1.4-5.2 2.9-1.2 1.6-1 6.2-.8 8.6-.2-.1-.5-.1-.7 0-.4.2-.6.8-.6 1.9s.3 2.9 1.7 3.4c.5 3.9 2.4 6.2 4.8 8.2.6.5 1.8.8 3 .9.1.2.1.4-.3.6-.7.2-2.9.6-5.3-.7 0 0 0 0-.1 0-1.8.5-8 2.2-9.9 4.3-.9.9-1.5 2.7-2 4.6h36c-.5-1.9-1.1-3.7-2-4.6-1.6-1.9-7-3.5-9.4-4.1z"/><path d="m43.5 24.4 8.1 3.3c.5.2 1.2 0 1.5-.5s.3-1.1-.2-1.5l-2.1-2.1c1.8-.6 3.9-1.6 5.3-3.4 1.9-2.5 1.3-5 1-6.7-.3-1.3-.4-2 0-2.6.5-.8 2.2-1 3.8-.4l1.5-3.7c-3.5-1.4-7.1-.6-8.7 2-1.2 2-.8 3.9-.5 5.5s.5 2.5-.3 3.5c-.7 1-2.2 1.6-3.4 2l.8-3.3c.1-.6-.1-1.2-.7-1.4-.6-.3-1.2-.1-1.6.4l-5.1 7.1c-.2.3-.3.7-.2 1s.4.6.8.8z"/><path d="m62.2 36.8-6.9-5.4c-.5-.4-1.1-.3-1.6 0-.4.4-.5 1-.3 1.5l1.7 2.8c-1.9-.4-4.2-.5-6 .5-.9.5-2.1 1.6-2.4 3.7-.1.7 0 1.4.1 2 .1.7.2 1.5-.1 1.8-.1.2-.8.7-3.4.9l.2 4c3.1-.2 5.1-.9 6.2-2.3 1.4-1.6 1.2-3.6 1-4.8 0-.4-.1-.8-.1-1 .1-.6.3-.7.4-.8.8-.4 2.4-.2 4 .2l-1.5 2.7c-.3.5-.2 1.2.3 1.5.4.4 1.1.4 1.6 0l6.8-5.4c.3-.2.5-.6.5-1 0-.3-.2-.7-.5-.9z"/><path d="m19.2 43.7c.1-.4 0-.7-.2-1l-5.2-7c-.3-.5-1-.6-1.5-.4s-.8.8-.7 1.4l.9 3.3c-1.4-.6-3.6-1.8-4.7-4-1-2.1-.8-4.8.6-8l-3.6-1.6c-2 4.3-2.1 8.2-.6 11.4 1.7 3.5 5 5.3 7 6.1l-2.1 2.1c-.4.3-.5 1-.1 1.5.3.5 1 .7 1.5.4l8-3.4c.3-.1.6-.4.7-.8z"/><path d="m31.7 21.5c.2.3.6.4 1 .4s.7-.2.9-.5l5.1-7.1c.3-.5.3-1.1-.1-1.5s-1-.5-1.5-.2l-2.8 1.8c-.1-1.4-.1-3.6 1.1-5.5 1.1-1.7 3.1-2.9 5.9-3.4l-.7-3.9c-3.9.7-6.8 2.4-8.6 5.2-1.7 2.7-1.8 5.7-1.7 7.7l-2.9-1.5c-.5-.3-1.2-.1-1.5.3-.4.5-.3 1.1 0 1.6z"/><path d="m11.9 19.1c.4-.4.5-1.1.1-1.5l-1.8-2.7c3.5-.9 7-1 7.4-.1.4.8 0 1.4-1.2 3.3-1.6 2.3-4.2 6.2.6 11l2.8-2.8c-2.5-2.4-1.7-3.6-.1-5.9 1.2-1.8 2.9-4.3 1.5-7.2-1.8-3.8-7.7-3.1-11.3-2.2l1.3-3c.2-.5.1-1.2-.4-1.5-.2-.2-.5-.2-.8-.2s-.5.1-.7.3l-6.3 6c-.3.3-.4.6-.4 1s.2.7.5.9l7.3 4.8c.5.3 1.1.2 1.5-.2z"/></svg>