<svg enable-background="new 0 0 64 64" viewBox="0 0 64 64" xmlns="http://www.w3.org/2000/svg"><path d="m13.5094 44c-.8336 0-1.5094-.6758-1.5094-1.5095v-17.9811c0-.8336.6758-1.5094 1.5094-1.5094h32.9812c.8336 0 1.5094.6758 1.5094 1.5094v6.2904c.9174 0 1.9415.0114 3 .036v-15.8616c0-1.6426-1.3315-2.9742-2.9742-2.9742h-36.0516c-1.6427 0-2.9742 1.3316-2.9742 2.9742v30.0515c0 1.6426 1.3315 2.9743 2.9742 2.9743h19.8293c-.0024-.3436-.0037-.6788-.0037-1 0-.9176.0104-1.9413.0345-3zm8.4906-27h26v3h-26zm-5 0h3v3h-3zm-5 0h3v3h-3z"/><path d="m60.4351 36.826c-.1951-1.1728-1.0874-2.0651-2.2608-2.2606-3.3913-.5654-9.0442-.5654-10.1743-.5654-1.13 0-6.7827 0-10.1742.5654-1.1735.1955-2.0658 1.0878-2.2607 2.2606-.5651 3.3913-.5651 9.0437-.5651 10.174 0 1.1304 0 6.7827.5651 10.174.1949 1.1728 1.0872 2.0651 2.2607 2.2607 3.3915.5653 9.0442.5653 10.1742.5653 1.1301 0 6.783 0 10.1743-.5653 1.1734-.1956 2.0657-1.0879 2.2608-2.2607.5649-3.3913.5649-9.0436.5649-10.174 0-3.393 0-6.7827-.5649-10.174zm-18.0735 3.4889h2.1748c1.4977 0 2.364.8173 2.6375 1.3665l.607 5.9606s.1922.0421.2312-.1954l.5546-5.9984c.3752-.5208 1.1982-1.1333 2.4946-1.1333h2.1747v10.299s-2.1439-.0029-3.1312.2087c-.307.0658-.5948.1588-.8455.2557-.8636.3976-1.0466.8301-1.4603.8301-.4141 0-.5967-.4326-1.4601-.8301-.2511-.097-.5392-.1899-.8463-.2557-.9871-.2116-3.131-.2087-3.131-.2087zm13.5334 12.2928c0 .3574-.2892.6476-.6471.6476l-2.1523.1562c-.914 0-2.511.0327-3.2563.2683-1.382.4372-1.5472 1.154-2.0402 1.154s-.6586-.7168-2.0407-1.154c-.7452-.2357-2.3422-.2683-3.2562-.2683l-2.152-.1562c-.3576 0-.6473-.2902-.6473-.6476v-10.5118c0-.3574.2897-.6477.6473-.6477h.9012v9.5797c0 .6436.3366.7111 1.2507.7111s2.511.1342 3.2562.3698c1.3821.4374 1.5477 1.0526 2.0407 1.0526s.6583-.6152 2.0402-1.0526c.7452-.2355 2.3423-.3698 3.2563-.3698.9146 0 1.2507-.0675 1.2507-.7111 0-.6433 0-9.5797 0-9.5797h.9016c.3578 0 .6471.2903.6471.6477v10.5118z"/></svg>