<svg enable-background="new 0 0 64 64" viewBox="0 0 64 64" xmlns="http://www.w3.org/2000/svg"><path d="m0 0h64v64h-64z" fill="none"/><path d="m23.942 25.897c-1.215-1.655-1.942-3.691-1.942-5.897 0-2.236.746-4.295 1.991-5.962l-3.224-2.357c-1.73 2.329-2.767 5.201-2.767 8.319 0 3.088 1.017 5.937 2.718 8.255z"/><path d="m40.058 25.897 3.224 2.357c1.701-2.317 2.718-5.166 2.718-8.254 0-3.118-1.037-5.99-2.766-8.32l-3.224 2.357c1.244 1.668 1.99 3.727 1.99 5.963 0 2.206-.727 4.242-1.942 5.897z"/><path d="m49.7 6.953-3.242 2.37c2.215 2.991 3.542 6.678 3.542 10.677 0 3.97-1.308 7.632-3.494 10.612l3.241 2.369c2.671-3.641 4.253-8.129 4.253-12.981 0-4.881-1.6-9.394-4.3-13.047z"/><path d="m14.3 6.953c-2.7 3.653-4.3 8.166-4.3 13.047 0 4.852 1.582 9.34 4.253 12.981l3.241-2.369c-2.186-2.98-3.494-6.642-3.494-10.612 0-3.999 1.327-7.686 3.542-10.677z"/><path d="m11.073 4.593-3.227-2.36c-3.671 4.978-5.846 11.122-5.846 17.767 0 6.616 2.157 12.735 5.799 17.7l3.227-2.36c-3.156-4.303-5.026-9.606-5.026-15.34 0-5.763 1.887-11.092 5.073-15.407z"/><path d="m56.154 2.233-3.227 2.36c3.186 4.315 5.073 9.644 5.073 15.407 0 5.734-1.87 11.037-5.026 15.341l3.227 2.36c3.642-4.966 5.799-11.085 5.799-17.701 0-6.645-2.175-12.789-5.846-17.767z"/><path d="m36 20c0-2.209-1.791-4-4-4s-4 1.791-4 4c0 1.136.479 2.156 1.239 2.884l-11.695 38.116h3.138l1.227-4h20.18l1.227 4h3.138l-11.693-38.116c.76-.728 1.239-1.748 1.239-2.884zm2.102 24 2.664 8.682-14.208-8.682zm-11.283-3 1.501-4.891 5.978 4.891zm2.452-7.99.002-.01h5.453l1.833 5.974zm.923-3.01 1.806-5.886 1.806 5.886zm-5.1 16.621 12.075 7.379h-14.339z"/></svg>