<svg viewBox="0 0 64 64" xmlns="http://www.w3.org/2000/svg"><path d="m0 0h64v64h-64z" fill="none"/><path d="m28.41 8.74a.43.43 0 0 0 .59-.05.4.4 0 0 0 0-.54l-1-1.15a.37.37 0 0 0 -.55 0l-.28.3a.37.37 0 0 0 0 .55z"/><path d="m26.76 11.71 1.43-.34a.41.41 0 0 0 .31-.45.41.41 0 0 0 -.41-.36h-1.47a.36.36 0 0 0 -.36.41v.41a.37.37 0 0 0 .5.33z"/><path d="m35.13 8.69a.43.43 0 0 0 .55.05l1.17-.89a.36.36 0 0 0 0-.55l-.24-.3a.37.37 0 0 0 -.55 0l-1 1.12a.4.4 0 0 0 0 .54z"/><path d="m35.59 10.91a.42.42 0 0 0 .32.45l1.42.34a.38.38 0 0 0 .46-.32l.05-.41a.37.37 0 0 0 -.37-.41h-1.46a.42.42 0 0 0 -.42.35z"/><path d="m32 7.65a.41.41 0 0 0 .41-.36l.16-1.46a.37.37 0 0 0 -.37-.41h-.41a.37.37 0 0 0 -.37.41l.16 1.46a.42.42 0 0 0 .42.36z"/><path d="m34.87 12.78h-3.62s-.06-.31.4-.38l3-.43-.74-3a.43.43 0 0 0 -.41-.32h-3a.43.43 0 0 0 -.42.32l-.95 3.77h-11.76v44.98h3.47l1.49-2.1v-37.55l-1.86-2.48c-.28-.37 0-.55 0-.55l2.42 2.42h18.25l2.42-2.46s.26.18 0 .55c-1.14 1.52-1.65 2.19-1.87 2.5v37.57l1.49 2.1h3.47v-44.94z"/><path d="m32 26.58a2.47 2.47 0 0 0 2.53-2.75c-.05-1.83-1.02-2.83-2.53-2.83s-2.53 1.17-2.53 2.85.87 2.73 2.53 2.73z"/><path d="m35 28.19a14.68 14.68 0 0 0 -6.19 0c-3.56.88-3.33 6.52-3.33 11.4a2.16 2.16 0 0 0 2.13 2.2v-5.14a15.9 15.9 0 0 1 .43-4.19c.07-.22.23-.18.23-.18v23.41a2.93 2.93 0 0 0 2.93-2.83s.41-11.23.41-11.34a.29.29 0 0 1 .3-.28.27.27 0 0 1 .28.28c0 .11.41 11.26.41 11.26a2.93 2.93 0 0 0 3 2.91v-23.41s.16-.06.25.18a16.65 16.65 0 0 1 .4 4.17v5.16a2.16 2.16 0 0 0 2.13-2.2c-.01-4.88.23-10.59-3.38-11.4z"/></svg>