<svg enable-background="new 0 0 64 64" viewBox="0 0 64 64" xmlns="http://www.w3.org/2000/svg"><path d="m0 0h64v64h-64z" fill="none"/><path d="m25 18.2h-1.7v-13h3v11.3c.3-.4.7-.8 1-1.1.5-.4 1.2-.9 2-1.3v-12h-21v19h15c.4-.9 1-2 1.7-2.9zm-10.8 0h-3v-13h3zm6 0h-3v-13h3z"/><path d="m44.9 12.4c3 .6 5.1-1 5.8-4 .7-3.4-.7-5.6-3.5-6.3-3-.7-5.1 1.1-5.8 4.2-.8 3.3.6 5.5 3.5 6.1z"/><path d="m54 26.5c-1.1-.9-3.2-4.9-3.8-6.1-1.4-2.7-2-5.7-8.9-6.4-4.2-.4-11 1.4-12.6 2.9-1.8 1.6-3.4 4.9-4.5 7.1-.9 1.9-.6 4.2 1.1 5.3.7-1 4.2-7.6 6.3-8.9.7-.4 2.9-1 5.3-1.2-1.2 4.7-2.3 11.2-2.6 13.4-.7 4.3 2.1 5.7 5 7.5 0 0 0 .2-.4.2-.2 0-1.7-.4-3.2-.8-.8 1.9-2.9 6.4-3.9 8-2.6 0-7.2-1.3-8.5-1.6-3.6-.8-4.9 3.1-4.9 3.1 3.2 1.2 11 4.1 14.4 3.9 2-.1 2.7-.8 4.1-2.9 1.6-2.2 3.7-5.8 5-8 1.6.8 3.8 1.9 5.3 2.8.6 2.8 1 9.5 1.1 12.4.1 1.5 1.6 4.1 4.7 4.9.2-4 .4-6.5.5-10.5.1-2.1.1-4.2 0-6.6-.1-1.4-.1-2.5-.7-3.6-.5-1.1-1.7-2.3-8.3-7.1.7-3.3 1.6-7.2 2.3-10.3 1 1.8 3.1 5.4 5 6.3 1.5.7 5.2.7 6.9.5 3-.2 3.8-2.8 3.9-3.4-5.1-.4-7.6-.6-8.6-.9z"/></svg>