<svg height="64" viewBox="0 0 64 64" width="64" xmlns="http://www.w3.org/2000/svg"><path d="m0 0h64v64h-64z" fill="none"/><path d="m60.814 36.7426c-3.0091-1.3204-9.2742-2.301-16.3891-.8528 7.8104-7.7478 11.9986-17.2183 12.5494-22.7268.014-.1405-.1173-.2502-.2529-.2109-2.9872.8674-10.6407 4.4459-17.725 13.041.0313-11.8657-3.9918-21.1494-6.8384-24.9129-.0802-.106-.2347-.1074-.3146-.001-2.1869 2.9138-6.8742 11.8796-6.8398 24.9138-6.2819-7.6263-13.6843-11.8923-17.7254-13.042-.1363-.0388-.2664.0728-.2523.2137.5471 5.4571 4.6902 14.9288 12.5493 22.725-6.8644-1.3972-13.2137-.5443-16.3905.8533-.1302.0573-.16.2276-.0564.3251 1.8955 1.7827 7.904 5.8403 17.2372 6.6667-5.3532 3.8234-7.6762 7.7892-8.2302 8.8432-.0688.131.0253.2825.1732.2883 1.3693.0535 6.7745.1331 13.9915-3.8895.9571-6.4032 2.779-11.0342 2.9369-11.3182.1659-.2984.3577-.2453.3577-.2453-.5446 6.7135-1.0946 13.8135-1.3946 21.5888.009 1.1928.8138 2.2053 1.9082 2.3708 1.0002.1512 2.2368.278 3.9839-.0624 1.0864-.2116 1.8477-1.2571 1.8063-2.4493l-1.3697-11.7542c6.5884 4.4998 13.5567 5.9996 17.1772 5.7647.1445-.0093.2273-.1631.16-.2913-.5517-1.0503-2.8742-5.0193-8.2314-8.8456 7.7554-.6867 14.3516-3.8939 17.2376-6.6646.1029-.0988.0725-.2703-.0581-.3276z"/></svg>