<?xml version="1.0" encoding="utf-8"?>
<!-- Generator: Adobe Illustrator 25.0.0, SVG Export Plug-In . SVG Version: 6.00 Build 0)  -->
<svg version="1.1" xmlns="http://www.w3.org/2000/svg" xmlns:xlink="http://www.w3.org/1999/xlink" x="0px" y="0px"
	 viewBox="0 0 64 64" style="enable-background:new 0 0 64 64;" xml:space="preserve">
<style type="text/css">
	.st0{fill:none;}
	.st1{fill:#FFFFFF;}
</style>
<g id="Box">
	<rect class="st0" width="64" height="64"/>
</g>
<g id="Icon">
	<g>
		<path d="M20,51.5c0-1.742,1.237-3.5,4-3.5s4,1.758,4,3.5c0-1.742,1.237-3.5,4-3.5s4,1.758,4,3.5c0-1.742,1.237-3.5,4-3.5
			c0.124,0,0.229,0.021,0.348,0.028c3.137-11.555,7.092-31.991,7.092-31.991s3.724,1.32,5.834,1.828
			c2.207,0.531,4.695-1.252,1.878-4.59c-1.996-2.365-5.32-6.122-6.302-6.91c-0.825-0.662-1.87-1.108-2.89-1.218l-1.284-2.095
			c0.111-0.192,0.191-0.403,0.191-0.641c0-0.725-0.587-1.312-1.312-1.312s-1.312,0.587-1.312,1.312c0,0.59,0.396,1.07,0.932,1.235
			l0.599,1.913c-0.289,0.17-0.553,0.39-0.782,0.671c-1.099-0.189-2.35-0.361-3.382-0.376c-0.896-0.013-1.607,0.131-1.869,0.555
			c-0.947,1.533,2.508,3.217,3.809,3.785c-1.575,5.453-4.971,17.128-8.086,24.889c-2.745,6.839-13.825,6.69-19.003,13.151
			C14.912,48.093,15.414,48,16,48C18.763,48,20,49.758,20,51.5z M48.5,9.362c0.629,0,1.138,0.51,1.138,1.138
			s-0.51,1.138-1.138,1.138s-1.138-0.51-1.138-1.138S47.871,9.362,48.5,9.362z"/>
		<path d="M56,50c-1.104,0-2,0.395-2,1.5V54h-4v-2.5c0-1.105-0.896-1.5-2-1.5s-2,0.395-2,1.5V54h-4v-2.5c0-1.105-0.896-1.5-2-1.5
			s-2,0.395-2,1.5V54h-4v-2.5c0-1.105-0.896-1.5-2-1.5s-2,0.395-2,1.5V54h-4v-2.5c0-1.105-0.896-1.5-2-1.5s-2,0.395-2,1.5V54h-4
			v-2.5c0-1.105-0.896-1.5-2-1.5s-2,0.395-2,1.5V54h-4v-2.5c0-1.105-0.896-1.5-2-1.5s-2,0.395-2,1.5V62h4v-4h4v4h4v-4h4v4h4v-4h4v4
			h4v-4h4v4h4v-4h4v4h4v-4h4v4h4V51.5C58,50.395,57.104,50,56,50z"/>
	</g>
</g>
</svg>
