<?xml version="1.0" encoding="utf-8"?>
<!-- Generator: Adobe Illustrator 19.1.0, SVG Export Plug-In . SVG Version: 6.00 Build 0)  -->
<svg version="1.2" baseProfile="tiny" xmlns="http://www.w3.org/2000/svg" xmlns:xlink="http://www.w3.org/1999/xlink" x="0px"
	 y="0px" width="64px" height="64px" viewBox="0 0 64 64" xml:space="preserve">
<g id="_x36_4px_Box">
	<rect fill="none" width="64" height="64"/>
</g>
<g id="Icon">
	<g>
		<path d="M26.043,47.5894c1.8516,1.3902,4.1251,3.3003,6,3.3003c1.9073,0,4.2465-1.9832,6-3.3003
			c1.8516,1.3902,4.1251,3.3003,6,3.3003c1.9073,0,4.2465-1.9832,6-3.3003c1.7315,1.3001,2.4993,1.9139,3.4993,2.4781
			c1.9872-4.5108-3.6994-8.1171-3.847-10.0674c-0.0936-1.2368,0.2693-2.0018,0.8936-2.4456
			c1.4034-0.9977,2.4208-0.0079,4.8423,0.2876c2.6969,0.3291,4.2504-2.6384,3.2164-3.1495
			c-1.7119-0.1029-4.4844-0.6633-5.4931-1.6832c-0.3728-0.3769-0.3509-1.1339-0.4921-2.0092
			c-0.1592-0.9878-0.9343-5.1471-6.9234-3.6842C35.8065,29.7419,42,39,42,39c-12.5217,3.6522-15.92-2.7725-16.7473-5.5579
			c-0.1617-0.5446-0.9063-0.6016-1.1392-0.084c-3.5951,7.9879-1.3592,14.1017-0.4602,16.0089
			C24.1195,49.0426,25.5632,47.9497,26.043,47.5894z"/>
		<path d="M56.043,53.09c-2.4615,0-4.9159-1.9367-6-2.75c-1.0001,0.7503-3.4848,2.75-6,2.75c-2.4615,0-4.9159-1.9367-6-2.75
			c-1.0001,0.7503-3.4848,2.75-6,2.75c-2.4615,0-4.9159-1.9367-6-2.75c-1.0001,0.7503-3.4848,2.75-6,2.75
			c-2.4615,0-4.9159-1.9367-6-2.75c-1.0001,0.7503-3.4848,2.75-6,2.75c-1.0184,0-2.1246-0.3893-3.043-0.8273v4.2183
			C5.9427,56.7856,6.9789,57,8.043,57c2.397,0,4.6631-1.0762,6-1.8633c1.3369,0.7871,3.603,1.8633,6,1.8633s4.6631-1.0762,6-1.8633
			c1.3369,0.7871,3.603,1.8633,6,1.8633s4.6631-1.0762,6-1.8633c1.3369,0.7871,3.603,1.8633,6,1.8633s4.6631-1.0762,6-1.8633
			c1.3369,0.7871,3.603,1.8633,6,1.8633c1.0322,0,2.0372-0.2025,2.957-0.4926v-4.2031C58.1001,52.7238,57.0267,53.09,56.043,53.09z"
			/>
		<path d="M14.0806,42.5714l-0.2327,4.901c0.4558,0.3342,2.4362,1.7959,2.9034,2.1056l1.0419-21.9395
			c0.9166-0.4767,1.5684-1.4035,1.6208-2.5098l0.3795-7.991c0.0622-1.3101-0.7315-2.4521-1.8836-2.915
			c-0.0067-1.7852-0.3914-2.1986-0.8759-2.2216s-0.9067,0.3522-1.0824,2.1286c-1.1908,0.3516-2.0892,1.4133-2.1514,2.7234
			l-0.3795,7.991c-0.0526,1.1063,0.5085,2.0906,1.3757,2.6521l-0.576,12.1298c-0.0786,0.0133-0.2325,0.0023-0.3034-0.2748
			c0,0-0.2977-2.9882-0.8936-4.6835c-0.9529-2.7111-2.8953-4.595-3.9927-5.6572c-0.399-0.3863-1.0453-0.0869-1.0306,0.4775
			c0.0406,1.5519,0.3009,4.2064,1.4461,6.8372C10.8593,39.571,13.1883,41.797,14.0806,42.5714z"/>
	</g>
</g>
</svg>
