<?xml version="1.0" encoding="utf-8"?>
<!-- Generator: Adobe Illustrator 19.1.0, SVG Export Plug-In . SVG Version: 6.00 Build 0)  -->
<svg version="1.2" baseProfile="tiny" xmlns="http://www.w3.org/2000/svg" xmlns:xlink="http://www.w3.org/1999/xlink" x="0px"
	 y="0px" width="64px" height="64px" viewBox="0 0 64 64" xml:space="preserve">
<g id="_x36_4px_Box">
	<rect fill="none" width="64" height="64"/>
</g>
<g id="Icon">
	<path d="M58.319,9.6888L55.8234,8.257c-0.4228-0.2426-0.7622-0.5997-0.9901-1.0306c-0.6307-1.1929-1.7071-2.5458-3.4866-2.8424
		c-3.701-0.6168-8.3216,0.6589-8.564,1.386c-0.33,0.99,2.75,1.36,2.9869,3.4396c0.2264,1.9879,1.0292,6.2328,0.1691,7.9529
		c-1.5062,3.0125-5.4893,3.1263-11.2633,8.1472c-3.3951,2.9522-5.1351,5.1638-8.0017,8.0692
		c-2.4708,2.5043-4.676,1.4487-10.2194-0.7818c-5.6541-2.275-10.6566-1.2503-13.6356-0.1472
		c-0.5164,0.1912-0.3849,0.9515,0.1657,0.9423c1.8329-0.0308,4.4788,0.2404,7.8995,1.389c9.9286,3.3336,10.608,7.4668,21.479,10.931
		c1.5193,0.4841,3.014,0.8707,4.3885,1.1258l0.9968,6.8696c-1.6702,0.593-3.86,2.2355-3.6353,3.2374
		c0.1258,0.5613,0.7811,0.6113,1.4497,0.2474c0.5967-0.3247,2.2728-1.4101,3.5427-1.4101c1.1917,0,4.2853,1.3639,5.9556,2.2234
		c0.515,0.2642,1.3746,0.1983,1.4011-0.4491c0.027-0.6638-0.716-1.3996-1.7823-2.0624c2.2626,0.2268,4.2514,0.8274,4.2765,0.8351
		c1.0582,0.3229,2.0164-0.832-0.5747-2.0349c-0.7886-0.3662-2.3828-0.8329-4.2338-0.9321l1.3452-7.3954
		c5.6589-2.1964,11.6382-7.2939,12.2176-14.632c0.5939-7.5228-2.1626-13.9451-3.2739-17.5943
		c0.9106-0.6136,1.3411-1.066,1.4721-2.4384l2.289-0.6409C58.6514,10.5341,58.7275,9.9233,58.319,9.6888z M42.0756,54.1526
		c-0.6237-0.2188-1.6072-0.394-2.1771-0.5115l0.0762-6.4713c0.2183-0.0015,0.4355-0.0038,0.6359-0.0192
		c0.5808-0.0447,1.1929-0.1458,1.8159-0.2729L42.0756,54.1526z M46.9763,37.8906c-6.3611,4.6263-14.9319,3.9594-15.9896,0.7761
		c-0.9899-2.9794,2.5746-7.2716,5.8716-9.3764c0.184-0.1174,0.3815-0.1024,0.4617,0.043c0,0-4.9276,6.5605-4.1277,8.4062
		c0.8761,2.0217,8.1635,1.235,14.0167-0.4062C47.3513,37.4219,47.2759,37.6728,46.9763,37.8906z M51.0001,10.5
		c-0.8284,0-1.5-0.6716-1.5-1.5s0.6716-1.5,1.5-1.5s1.5,0.6716,1.5,1.5S51.8285,10.5,51.0001,10.5z"/>
</g>
</svg>
