<svg enable-background="new 0 0 64 64" viewBox="0 0 64 64" xmlns="http://www.w3.org/2000/svg"><path d="m0 0h64v64h-64z" fill="none"/><path d="m38.3 45.2h-3.3l-1.1 14.6h3.6l2.1-10.5s-.5-3-.6-3.7c0-.2-.3-.4-.7-.4z"/><path d="m20.3 46.7-2.5 3.9 2.8 9.2h3.2l-2.4-14.3c-.4.3-.8.7-1.1 1.2z"/><path d="m58.1 18.5c-2.2-2-5-4.7-6.8-6.2-1.3-4.1-6.9-9.5-16.6-7.2-1.2.3-1.3 1.4.1 1.4 2.3.1 8.6 0 11.3 4.5h-.1c-3.4.2-5.7 2.5-6.6 3.6-.7.8-1.4 1.8-.9 2.2.1.1.3.1.7.1 4-.1 6.3-2.8 6.3-2.8.2 0 .3.3 0 .7-.7.9-2.2 2.2-3.2 3-.8 2.8-1.9 4.8-3.9 6.6-1.6 1.4-3.7 2.1-5.8 2.1-8.2-.3-11-1.7-16.3-1.1-1.8.2-3 .8-4 1.6-3.2-3.1-6.9-.3-8.3 2.3-.8 1.5-.1 2 1.1 1.5 1.4-.6 3.9-2.4 5.7-1.7-.7 1.5-.9 3.1-.9 4.4-.1 3 .6 5.7 3.5 10.3 0 0-2.7 4.6-3.1 5.3-.4.6-.6 1.3-.4 2 .3.8 3.1 8.8 3.1 8.8h2.9l-.6-9 3.3-5.3c.8-1.4 2.3-2.6 4.6-2.6h15.3c1.7 0 2.6 1.1 2.8 2.2l2.3 14.6h3.4l-.4-18.3c2.9-6.8 3.4-10.6 3.3-18.6 0 0 1.5 0 2.9.1.1.7.5 2.2 1.5 3.5 1.2 1.5-.4 4.9.1 5.1.6.2 2.4-2.7 2.5-4.9 0-.8-.2-2.6-.4-3.6 2.4-.1 4.6-2 1.6-4.6zm-8.1-.2c-.7 0-1.3-.6-1.3-1.3s.6-1.3 1.3-1.3 1.3.6 1.3 1.3-.6 1.3-1.3 1.3z"/></svg>