<?xml version="1.0" encoding="utf-8"?>
<!-- Generator: Adobe Illustrator 24.1.0, SVG Export Plug-In . SVG Version: 6.00 Build 0)  -->
<svg version="1.1" xmlns="http://www.w3.org/2000/svg" xmlns:xlink="http://www.w3.org/1999/xlink" x="0px" y="0px"
	 viewBox="0 0 64 64" style="enable-background:new 0 0 64 64;" xml:space="preserve">
<style type="text/css">
	.st0{fill:none;}
	.st1{fill:#FF1D25;}
	.st2{fill:#1D1D1B;}
</style>
<g id="Box">
	<rect class="st0" width="64" height="64"/>
</g>
<g id="Icon">
	<g>
		<path d="M38.3,45.2H35l-1.1,14.6h3.6l2.1-10.5c0,0-0.5-3-0.6-3.7C39,45.4,38.7,45.2,38.3,45.2z"/>
		<path d="M20.3,46.7l-2.5,3.9l2.8,9.2h3.2l-2.4-14.3C21,45.8,20.6,46.2,20.3,46.7z"/>
		<path d="M58.1,18.5c-2.2-2-5-4.7-6.8-6.2c-1.3-4.1-6.9-9.5-16.6-7.2c-1.2,0.3-1.3,1.4,0.1,1.4c2.3,0.1,8.6,0,11.3,4.5l-0.1,0
			c-3.4,0.2-5.7,2.5-6.6,3.6c-0.7,0.8-1.4,1.8-0.9,2.2c0.1,0.1,0.3,0.1,0.7,0.1c4-0.1,6.3-2.8,6.3-2.8c0.2,0,0.3,0.3,0,0.7
			c-0.7,0.9-2.2,2.2-3.2,3c-0.8,2.8-1.9,4.8-3.9,6.6c-1.6,1.4-3.7,2.1-5.8,2.1c-8.2-0.3-11-1.7-16.3-1.1c-1.8,0.2-3,0.8-4,1.6
			c-3.2-3.1-6.9-0.3-8.3,2.3c-0.8,1.5-0.1,2,1.1,1.5c1.4-0.6,3.9-2.4,5.7-1.7c-0.7,1.5-0.9,3.1-0.9,4.4c-0.1,3,0.6,5.7,3.5,10.3
			c0,0-2.7,4.6-3.1,5.3c-0.4,0.6-0.6,1.3-0.4,2c0.3,0.8,3.1,8.8,3.1,8.8h2.9l-0.6-9l3.3-5.3c0.8-1.4,2.3-2.6,4.6-2.6
			c0,0,13.8,0,15.3,0c1.7,0,2.6,1.1,2.8,2.2l2.3,14.6H47l-0.4-18.3c2.9-6.8,3.4-10.6,3.3-18.6c0,0,1.5,0,2.9,0.1
			c0.1,0.7,0.5,2.2,1.5,3.5c1.2,1.5-0.4,4.9,0.1,5.1c0.6,0.2,2.4-2.7,2.5-4.9c0-0.8-0.2-2.6-0.4-3.6C58.9,23,61.1,21.1,58.1,18.5z
			 M50,18.3c-0.7,0-1.3-0.6-1.3-1.3s0.6-1.3,1.3-1.3s1.3,0.6,1.3,1.3S50.7,18.3,50,18.3z"/>
	</g>
</g>
</svg>
