<svg height="64" viewBox="0 0 64 64" width="64" xmlns="http://www.w3.org/2000/svg"><path d="m0 0h64v64h-64z" fill="none"/><path d="m35.6562 43.25h-2.7992l-1.5204 13.75h3.9342l1.4569-7.2148-1.036-6.3451c-.0123-.0728-.0243-.1358-.0355-.1901z"/><path d="m19.9987 43.25c-1.7081 0-1.9132.7619-3.7882 3.7426l2.899 10.0074h3.8908l-2.9282-13.75z"/><path d="m60.0003 16-6-1c-.4629-1.1903-2-3-4-3l-2.3596.0141c-.5-1.2485-.6404-5.0141-1.6404-5.0141-1.7647 0-3 6-3 6s-6.5186 11.7357-13.4553 12.8687c-.6176.1008-1.218.1854-1.8082.2603l-9.5301-10.8102c1.2754-.5073 2.9014-.769 4.8623-.7812l7.8879 8.5189c.9788-.4737 1.9589-1.1765 2.9079-2.0115l-8.5507-9.2335c-.4433-.5053-1.0586-.7656-1.8271-.7729-3.5625-.0386-6.4209.6421-8.4746 2.0195-.545.3652-.9063.9492-.9922 1.6025-.0869.6612.1142 1.3277.5576 1.834l13.1844 15.0476c-.0306.059-.1649.2509-.4852.0667l-6.9737-5.1738c-12.3067-.7312-16.1792-8.1966-14.4461-13.2436.4272-1.2439-.7787-1.7044-1.5314-.6259-4.3665 6.2569 3.6996 14.2612 4.4659 16.1969.5963 1.5064-.1537 1.3092-.4839 4.8764-.2408 2.5997 1.846 6.9538 2.7139 8.0363l-2.9972 4.9899c-.396.5355-.5247 1.2227-.3493 1.8651l2.3251 8.4698h4l-1.2768-8.6871 3.1078-4.9406c.7845-1.314 2.0332-2.3723 4.169-2.3723h16c1.3762 0 1.7348 1.0193 1.9115 2.0652l2.2647 13.8698h4.8238s-2.0003-21.935 2.6325-30.2251c1.7858-3.1955 4.1642-4.7099 7.3675-4.7099 5.3279 0 5-6 5-6z"/></svg>