<?xml version="1.0" encoding="utf-8"?>
<!-- Generator: Adobe Illustrator 18.1.0, SVG Export Plug-In . SVG Version: 6.00 Build 0)  -->
<svg version="1.2" baseProfile="tiny" xmlns="http://www.w3.org/2000/svg" xmlns:xlink="http://www.w3.org/1999/xlink" x="0px"
	 y="0px" width="64px" height="64px" viewBox="0 0 64 64" xml:space="preserve">
<g id="_x36_4px_Boxes">
	<rect fill="none" width="64" height="64"/>
</g>
<g id="Production">
	<g>
		<path d="M35.6562,43.25H32.857L31.3366,57h3.9342l1.4569-7.2148l-1.036-6.3451C35.6794,43.3673,35.6674,43.3043,35.6562,43.25z"/>
		<path d="M19.9987,43.25c-1.7081,0-1.9132,0.7619-3.7882,3.7426L19.1095,57h3.8908l-2.9282-13.75H19.9987z"/>
		<path d="M60.0003,16l-6-1c-0.4629-1.1903-2-3-4-3l-2.3596,0.0141C47.1407,10.7656,47.0003,7,46.0003,7c-1.7647,0-3,6-3,6
			S36.4817,24.7357,29.545,25.8687c-0.6176,0.1008-1.218,0.1854-1.8082,0.2603l-9.5301-10.8102
			c1.2754-0.5073,2.9014-0.769,4.8623-0.7812l7.8879,8.5189c0.9788-0.4737,1.9589-1.1765,2.9079-2.0115l-8.5507-9.2335
			c-0.4433-0.5053-1.0586-0.7656-1.8271-0.7729c-3.5625-0.0386-6.4209,0.6421-8.4746,2.0195
			c-0.545,0.3652-0.9063,0.9492-0.9922,1.6025c-0.0869,0.6612,0.1142,1.3277,0.5576,1.834l13.1844,15.0476
			c-0.0306,0.059-0.1649,0.2509-0.4852,0.0667l-6.9737-5.1738C7.9966,25.7039,4.1241,18.2385,5.8572,13.1915
			c0.4272-1.2439-0.7787-1.7044-1.5314-0.6259c-4.3665,6.2569,3.6996,14.2612,4.4659,16.1969
			c0.5963,1.5064-0.1537,1.3092-0.4839,4.8764c-0.2408,2.5997,1.846,6.9538,2.7139,8.0363l-2.9972,4.9899
			c-0.396,0.5355-0.5247,1.2227-0.3493,1.8651L10.0003,57h4l-1.2768-8.6871l3.1078-4.9406C16.6158,42.0583,17.8645,41,20.0003,41h16
			c1.3762,0,1.7348,1.0193,1.9115,2.0652l2.2647,13.8698h4.8238c0,0-2.0003-21.935,2.6325-30.2251
			C49.4186,23.5144,51.797,22,55.0003,22C60.3282,22,60.0003,16,60.0003,16z"/>
	</g>
</g>
</svg>
