<?xml version="1.0" encoding="utf-8"?>
<!-- Generator: Adobe Illustrator 19.1.0, SVG Export Plug-In . SVG Version: 6.00 Build 0)  -->
<svg version="1.2" baseProfile="tiny" xmlns="http://www.w3.org/2000/svg" xmlns:xlink="http://www.w3.org/1999/xlink" x="0px"
	 y="0px" width="64px" height="64px" viewBox="0 0 64 64" xml:space="preserve">
<g id="Box">
	<rect fill="none" width="64" height="64"/>
</g>
<g id="Icon">
	<g>
		<path d="M38.6567,45h-3.0212l-1.4789,13h3.7839l1.9116-9.275l-0.5674-3.3231C39.2568,45.3022,39.02,45,38.6567,45z"/>
		<path d="M20.666,46.3062l-2.2229,3.535L21,58h3.7421l-3.0376-12.7171C21.2845,45.5109,20.9372,45.8522,20.666,46.3062z"/>
		<path d="M55.5338,20.7944c-2.5377-1.6354-5.3998-3.1786-6.4-3.7082c0.8854-1.0787,2.3012-3.0629,3.5649-6.0076
			c0.3047-0.7109-0.0239-1.5337-0.7344-1.8389c-0.7114-0.3042-1.5342,0.0234-1.8389,0.7344c-1.195,2.785-2.5273,4.582-3.2515,5.4464
			c-1.4247-1.2609-2.5261-2.6026-3.3591-3.9205c1.4471-1.2679,3.8998-3.6611,5.3719-6.4445
			c0.3613-0.6831,0.1001-1.5303-0.5835-1.8921c-0.6841-0.3628-1.5308-0.1011-1.8921,0.5835
			c-1.1087,2.0969-2.942,3.9978-4.2414,5.1926c-1.2302-2.8687-1.3553-5.1516-1.3626-5.3383
			c-0.027-0.7715-0.6862-1.3723-1.4445-1.3514c-0.7729,0.025-1.3793,0.6714-1.3543,1.4444
			c0.0107,0.3321,0.3204,7.0692,5.8992,12.7681c-1.1914-0.2192-2.6821-0.4436-3.8668-0.4613
			c-0.8881-0.0133-1.5934,0.1301-1.8528,0.5499c-1.1494,1.8607,4.2499,3.9498,4.2499,3.9498
			c0.0539,3.9889-4.2335,7.3937-6.183,8.7357c-8.5173,0-22.4531,0-23.4988,0c-1.5134,0-2.7665-3.2037-3.8444-3.7263
			c-0.8282-0.4016-1.7748-0.0545-1.8619,1.3393c-0.0872,1.3936-0.0452,5.5477,4.136,7.5511c0,0,0.522,5.1294,3.1287,9.3083
			l-2.8232,4.769c-0.3809,0.515-0.5046,1.176-0.3359,1.7938L12.7916,58h3.7631l-0.544-7.9374l2.989-4.7518
			C19.7542,44.0471,21.1177,43,23.1719,43h15.4849c1.3236,0,2.3716,1.0095,2.5416,2.0155L43.3765,58h4.3559l-1.9438-19.598
			c2.7983-6.916,4.439-13.4962,4.439-13.4962s1.9614,0,3.9126,0S58.6697,22.8153,55.5338,20.7944z M48.986,21.7827
			c-0.6904,0-1.25-0.5596-1.25-1.25c0-0.6904,0.5596-1.25,1.25-1.25c0.6903,0,1.25,0.5596,1.25,1.25
			C50.236,21.2231,49.6763,21.7827,48.986,21.7827z"/>
	</g>
</g>
</svg>
