<svg height="64" viewBox="0 0 64 64" width="64" xmlns="http://www.w3.org/2000/svg"><path d="m0 0h64v64h-64z" fill="none"/><path d="m38.6567 45h-3.0212l-1.4789 13h3.7839l1.9116-9.275-.5674-3.3231c-.0279-.0997-.2647-.4019-.628-.4019z"/><path d="m20.666 46.3062-2.2229 3.535 2.5569 8.1588h3.7421l-3.0376-12.7171c-.42.228-.7673.5693-1.0385 1.0233z"/><path d="m55.5338 20.7944c-2.5377-1.6354-5.3998-3.1786-6.4-3.7082.8854-1.0787 2.3012-3.0629 3.5649-6.0076.3047-.7109-.0239-1.5337-.7344-1.8389-.7114-.3042-1.5342.0234-1.8389.7344-1.195 2.785-2.5273 4.582-3.2515 5.4464-1.4247-1.2609-2.5261-2.6026-3.3591-3.9205 1.4471-1.2679 3.8998-3.6611 5.3719-6.4445.3613-.6831.1001-1.5303-.5835-1.8921-.6841-.3628-1.5308-.1011-1.8921.5835-1.1087 2.0969-2.942 3.9978-4.2414 5.1926-1.2302-2.8687-1.3553-5.1516-1.3626-5.3383-.027-.7715-.6862-1.3723-1.4445-1.3514-.7729.025-1.3793.6714-1.3543 1.4444.0107.3321.3204 7.0692 5.8992 12.7681-1.1914-.2192-2.6821-.4436-3.8668-.4613-.8881-.0133-1.5934.1301-1.8528.5499-1.1494 1.8607 4.2499 3.9498 4.2499 3.9498.0539 3.9889-4.2335 7.3937-6.183 8.7357-8.5173 0-22.4531 0-23.4988 0-1.5134 0-2.7665-3.2037-3.8444-3.7263-.8282-.4016-1.7748-.0545-1.8619 1.3393-.0872 1.3936-.0452 5.5477 4.136 7.5511 0 0 .522 5.1294 3.1287 9.3083l-2.8232 4.769c-.3809.515-.5046 1.176-.3359 1.7938l1.6363 7.7284h3.7631l-.544-7.9374 2.989-4.7518c.7545-1.2637 2.118-2.3108 4.1722-2.3108h15.4849c1.3236 0 2.3716 1.0095 2.5416 2.0155l2.1781 12.9845h4.3559l-1.9438-19.598c2.7983-6.916 4.439-13.4962 4.439-13.4962s1.9614 0 3.9126 0 4.5295-2.0905 1.3936-4.1114zm-6.5478.9883c-.6904 0-1.25-.5596-1.25-1.25s.5596-1.25 1.25-1.25c.6903 0 1.25.5596 1.25 1.25s-.5597 1.25-1.25 1.25z"/></svg>