<?xml version="1.0" encoding="utf-8"?>
<!-- Generator: Adobe Illustrator 19.2.0, SVG Export Plug-In . SVG Version: 6.00 Build 0)  -->
<svg version="1.0" xmlns="http://www.w3.org/2000/svg" xmlns:xlink="http://www.w3.org/1999/xlink" x="0px" y="0px"
	 viewBox="0 0 64 64" enable-background="new 0 0 64 64" xml:space="preserve">
<g id="achtergrond">
</g>
<g id="paneel_1">
	<g>
		<path d="M27.6963,34.5696h-1.9431l-1.2598,9.4308h2.7297l1.2171-4.8942l-0.7184-4.4041
			C27.7119,34.651,27.7036,34.6082,27.6963,34.5696z"/>
		<path d="M16.9155,34.457c-1.1854,0-1.3286,0.5288-2.6299,2.5981L16.2986,44H19l-2.0333-9.543H16.9155z"/>
		<path d="M33.9033,33.1814c0.1821-3.858,0.7245-7.834,2.0483-10.2031c1.2397-2.2178,2.8904-3.2692,5.1134-3.2692
			c3.6976,0,3.4703-4.1641,3.4703-4.1641l-4.1648-0.694c-0.3208-0.8262-1.3871-2.0823-2.7756-2.0823l-1.6388,0.0093
			c-0.3463-0.866-0.4427-3.4795-1.1371-3.4795c-1.2261,0-2.0815,4.1641-2.0815,4.1641s-4.5256,8.145-9.3401,8.932
			c-0.4292,0.0697-0.845,0.1281-1.2546,0.1803l-5.1586,0.2129c-8.5414-0.5076-11.2299-5.6892-10.0265-9.1921
			c0.2959-0.8635-0.5408-1.1829-1.0634-0.4346c-3.0304,4.3427,2.568,9.8984,3.0996,11.2417
			c0.4142,1.0452-0.1069,0.9082-0.3358,3.3843c-0.1672,1.804,1.281,4.8264,1.8835,5.5771l-2.0801,3.4634
			c-0.2749,0.3715-0.3638,0.8481-0.2433,1.2947L9.833,44h2.7766l-0.8865-6.0291l2.1569-3.4287
			c0.5446-0.912,1.4113-1.6462,2.8934-1.6462h11.1047c0.9551,0,1.2036,0.7072,1.3254,1.433l0.7458,4.5659
			C30.739,36.6493,32.114,34.6785,33.9033,33.1814z"/>
		<path d="M42.4116,32.1477c-6.1963,0-11.2194,5.0232-11.2194,11.2209c0,6.197,5.0231,11.2202,11.2194,11.2202
			c6.1979,0,11.2209-5.0232,11.2209-11.2202C53.6325,37.1709,48.6095,32.1477,42.4116,32.1477z M42.4116,51.8108
			c-4.6538,0-8.4419-3.7881-8.4419-8.4421c0-4.6556,3.7881-8.4429,8.4419-8.4429c4.6558,0,8.4436,3.7872,8.4436,8.4429
			C50.8552,48.0227,47.0673,51.8108,42.4116,51.8108z"/>
		<path d="M43.5051,42.76l-0.3916-5.4734c-0.0437-0.3884-0.3147-0.6716-0.7019-0.6716c-0.3855,0-0.6716,0.2515-0.7002,0.6716
			l-0.467,6.4429c0,0.6038,0.4609,1.1001,1.0498,1.1603c0.0347,0.0197,6.1995-0.4404,6.1995-0.4404
			c0.4053-0.0386,0.7019-0.2103,0.7019-0.5966c0-0.3864-0.2712-0.5677-0.7019-0.5964h0.0165L43.5051,42.76z"/>
		<path d="M57.852,25.5575c1.0769-0.5098,1.5855-1.8075,0.8667-3.3387c-0.7188-1.5312-3.75-2.5312-4.4312,0.7983L47,23
			c-1-2.4688-3.5457-1.5693-3.8979-0.3003c-0.3521,1.269-0.3179,2.3132,0.757,2.8276c-1.0779,0.5103-1.2314,1.4758-0.9958,2.3655
			c0.2788,1.052,2.3868,2.9197,4.0762,0.0771l5.9976,0.0117c-0.6262-1.4558-1.1367-2.4152-1.197-2.5732
			c-0.0603-0.1627-0.0535-0.2395,0.0383-0.241c0.894,0.8427,1.8149,1.7351,2.7767,2.6007l-0.0121,0.0011
			c0.7071,2.5745,3.7558,2.1101,4.2939,0.1548C59.0648,26.875,58.9257,26.0718,57.852,25.5575z"/>
	</g>
</g>
</svg>
