<svg enable-background="new 0 0 64 64" viewBox="0 0 64 64" xmlns="http://www.w3.org/2000/svg"><path d="m0 0h64v64h-64z" fill="none"/><path d="m19.2 11.689c2.987.49 5.059-1.317 5.553-4.33.563-3.431-.941-5.567-3.85-6.045-3.065-.503-5.073 1.401-5.58 4.497-.536 3.264.891 5.388 3.877 5.878z"/><path d="m24.751 43.488c-.677-1.113-1.319-1.969-1.95-2.842-1.322-1.796-2.694-3.552-4.09-5.299.553-2.904 1.362-6.494 2.119-9.702.323 1.006.69 2.053 1.252 3.183.681 1.33 2.938 3.379 3.966 4.463 1.681 1.771 3.419 1.823 4.536 1.584 4.136 3.244 10.475 7.01 19.57 9.486l.933-1.817c-8.771-2.328-14.949-5.95-18.991-9.069-3.329-2.569-5.818-5.31-6.339-6.462-.443-.956-.803-2.204-1.119-3.331-.147-.527-1.645-6.714-1.875-7.048-.809-2.017-6.9-4.829-10.506-2.68-1.984 1.182-5.714 3.956-7.605 6.028-1.149 1.275-1.613 2.042-2.106 4.839-.3 1.763-.492 3.803-.528 5.578-.04 1.972 1.004 3.837 3.07 4.268.445-3.369 1.149-8.403 2.228-10.587.439-.889 2.429-2.217 3.261-2.757-.529 2.452-2.352 10.628-2.352 12.501 0 2.315 1.496 3.518 2.451 4.519l3.733 3.911s-.139.238-.457.054c-1.633-.945-3.784-2.187-3.784-2.187-.537 2.023-1.413 5.319-2.182 7.279-.613 1.561-.401 1.117-.995 2.132-1.201 2.054-2.751 4.129-4.084 6.46-2.191 3.833.459 6.649.831 7.008 2.153-3.025 5.866-7.498 7.959-10.646.701-1.04.778-1.124 1.566-2.638.599-1.212 1.414-2.951 2.585-5.852.514.469 1.01 1 1.524 1.516 1.263 1.271 2.044 1.889 2.542 2.829.15.284.464.929.78 1.743 1.928 4.968 3.47 7.86 4.324 9.896 1.283 3.061 4.849 3.362 5.849 3.058-.984-3.888-3.256-11.834-4.523-15.694-.893-2.729-1.014-2.772-1.593-3.724z"/><path d="m49.843 55.465-.834 7.535h2.195l.68-3.37-.67-4.165z"/><path d="m42.686 55.465c-.499 0-.78.16-1.042.6l-.99 1.637 1.535 5.298h2.17l-1.604-7.535z"/><path d="m49.188 46.027c-.349 0-4.245 0-6.333 0-7.581 0-8.654-3.972-9.11-5.88-.178-.744-1.192-.607-1.244.124-.115 1.607.64 3.397 1.493 4.562 1.077 1.47 2.333 2.143 2.44 2.415.333.84-.086.73-.27 2.72-.134 1.45 1.03 3.879 1.514 4.483l-1.672 2.783c-.221.299-.293.682-.195 1.04l1.297 4.726h2.231l-.712-4.846 1.734-2.866c.438-.733 1.134-1.323 2.325-1.323h8.925c.768 0 .968.569 1.066 1.152l1.263 7.846h2.691s-.663-4.704-1.094-8.834c-.198-1.898 1.217-3.222 1.975-4.848.267-.573.394-1.24.493-1.89l-6.465-2.701c-.655.777-1.44 1.337-2.352 1.337z"/><path d="m60.642 41.068c-.284-.73-1.227-1.841-2.454-1.841l-1.592.005c-.12-.25-.392-.686-.913-.874-.991-.359-2.869-1.177-3.172-.644-.315.555.536 1.64 1.29 2.44-.185.604-.657 1.996-1.389 3.274l5.853 2.445c.188-.77.51-1.332 1.281-1.385 1.699-.119 3.437-.435 3.595-2.923z"/></svg>