<svg enable-background="new 0 0 64 64" viewBox="0 0 64 64" xmlns="http://www.w3.org/2000/svg"><path d="m27.6963 34.5696h-1.9431l-1.2598 9.4308h2.7297l1.2171-4.8942-.7184-4.4041c-.0099-.0511-.0182-.0939-.0255-.1325z"/><path d="m16.9155 34.457c-1.1854 0-1.3286.5288-2.6299 2.5981l2.013 6.9449h2.7014l-2.0333-9.543z"/><path d="m33.9033 33.1814c.1821-3.858.7245-7.834 2.0483-10.2031 1.2397-2.2178 2.8904-3.2692 5.1134-3.2692 3.6976 0 3.4703-4.1641 3.4703-4.1641l-4.1648-.694c-.3208-.8262-1.3871-2.0823-2.7756-2.0823l-1.6388.0093c-.3463-.866-.4427-3.4795-1.1371-3.4795-1.2261 0-2.0815 4.1641-2.0815 4.1641s-4.5256 8.145-9.3401 8.932c-.4292.0697-.845.1281-1.2546.1803l-5.1586.2129c-8.5414-.5076-11.2299-5.6892-10.0265-9.1921.2959-.8635-.5408-1.1829-1.0634-.4346-3.0304 4.3427 2.568 9.8984 3.0996 11.2417.4142 1.0452-.1069.9082-.3358 3.3843-.1672 1.804 1.281 4.8264 1.8835 5.5771l-2.0801 3.4634c-.2749.3715-.3638.8481-.2433 1.2947l1.6148 5.8777h2.7766l-.8865-6.0291 2.1569-3.4287c.5446-.912 1.4113-1.6462 2.8934-1.6462h11.1047c.9551 0 1.2036.7072 1.3254 1.433l.7458 4.5659c.7897-2.2456 2.1647-4.2164 3.954-5.7135z"/><path d="m42.4116 32.1477c-6.1963 0-11.2194 5.0232-11.2194 11.2209 0 6.197 5.0231 11.2202 11.2194 11.2202 6.1979 0 11.2209-5.0232 11.2209-11.2202 0-6.1977-5.023-11.2209-11.2209-11.2209zm0 19.6631c-4.6538 0-8.4419-3.7881-8.4419-8.4421 0-4.6556 3.7881-8.4429 8.4419-8.4429 4.6558 0 8.4436 3.7872 8.4436 8.4429 0 4.654-3.7879 8.4421-8.4436 8.4421z"/><path d="m43.5051 42.76-.3916-5.4734c-.0437-.3884-.3147-.6716-.7019-.6716-.3855 0-.6716.2515-.7002.6716l-.467 6.4429c0 .6038.4609 1.1001 1.0498 1.1603.0347.0197 6.1995-.4404 6.1995-.4404.4053-.0386.7019-.2103.7019-.5966 0-.3864-.2712-.5677-.7019-.5964h.0165z"/><path d="m57.852 25.5575c1.0769-.5098 1.5855-1.8075.8667-3.3387s-3.75-2.5312-4.4312.7983l-7.2875-.0171c-1-2.4688-3.5457-1.5693-3.8979-.3003-.3521 1.269-.3179 2.3132.757 2.8276-1.0779.5103-1.2314 1.4758-.9958 2.3655.2788 1.052 2.3868 2.9197 4.0762.0771l5.9976.0117c-.6262-1.4558-1.1367-2.4152-1.197-2.5732-.0603-.1627-.0535-.2395.0383-.241.894.8427 1.8149 1.7351 2.7767 2.6007l-.0121.0011c.7071 2.5745 3.7558 2.1101 4.2939.1548.2279-1.049.0888-1.8522-.9849-2.3665z"/></svg>