<?xml version="1.0" encoding="utf-8"?>
<!-- Generator: Adobe Illustrator 24.0.1, SVG Export Plug-In . SVG Version: 6.00 Build 0)  -->
<svg version="1.1" xmlns="http://www.w3.org/2000/svg" xmlns:xlink="http://www.w3.org/1999/xlink" x="0px" y="0px"
	 viewBox="0 0 64 64" style="enable-background:new 0 0 64 64;" xml:space="preserve">
<style type="text/css">
	.st0{fill:none;}
	.st1{fill:#FF1D25;}
	.st2{fill:#1D1D1B;}
</style>
<g id="Box">
	<rect class="st0" width="64" height="64"/>
</g>
<g id="Icon">
	<g>
		<path d="M54.4,40.5c-2.4-1.1-4.3-2.3-8-5.6c-2.3-2.1-6.1-3.7-9.6-3.7c-5.6,0-8.1,1.8-15.4,5.3c2.2,2.6,5.1,4.3,5.1,4.3
			c0,0.2-0.2,0.2-0.6,0.2c-1.1-0.2-3.8-1.3-6-3.9c-1.6-1.8-2-3.5-3.4-5c-1.4-1.5-3.9-2.6-5.2-3.1c-0.6-0.2-1.2,0-1.4,0.5
			c-0.7,1.4-1.8,4.4,0.3,7c2.3,2.9,5.8,3.4,8,5.6c-0.8,0.4-1.5,0.9-1.8,1.4c-0.7,1.4,1.1,3.4,1.1,3.4s-2.1,0-2.8,2
			c-0.1,0.3,0.2,0.6,0.5,0.5l1.7-0.6l0.1,1c0,0.3,0.4,0.4,0.6,0.3l1.5-1l0.3,1c0.1,0.2,0.3,0.4,0.6,0.2c0.7-0.4,2-1.3,2.1-2.4
			c0-0.3,0-0.8-0.1-1.3c1.4,1,3,1.7,4.9,2.1c0.2,0.7,0.5,1.1,0.5,1.1s-1.5,0-2.6,0.8c-0.6,0.5-0.9,1.3-1,1.8
			c-0.1,0.3,0.2,0.5,0.5,0.4l1.9-0.8l0.1,1.2c0,0.3,0.3,0.4,0.6,0.3l1.7-1.1l0.3,1.1c0.1,0.2,0.3,0.3,0.5,0.2
			c0.8-0.4,2.3-1.4,2.7-2.6c0.1-0.5,0.1-1.2-0.1-2c4.3,0.2,10.1,0.2,12.9-0.7c0.3,0.4,0.7,0.7,1.2,1c0,0-1.2,1.2-0.5,2.9
			c0.1,0.3,0.5,0.3,0.6,0.1l1.4-1.7l0.6,1.3c0.1,0.3,0.5,0.3,0.6,0.1l1.5-1.8l0.8,1c0.2,0.2,0.5,0.2,0.6,0c0.5-0.8,1.4-2.7,0.2-3.9
			c-1.5-1.4-3.6-1.9-3.9-2.8c-0.1-0.2,0-0.4,0-0.7c3.2-0.4,5.3-1.7,6.4-2.5C55,41.5,54.9,40.8,54.4,40.5z M12.4,33.2
			c-0.5,0-1-0.4-1-1s0.4-1,1-1s1,0.4,1,1S12.9,33.2,12.4,33.2z"/>
		<polygon points="32,8.3 2,20.3 2,55 7,55 7,23.7 32,13.7 57,23.7 57,55 62,55 62,20.3 		"/>
	</g>
</g>
</svg>
