<svg enable-background="new 0 0 64 64" viewBox="0 0 64 64" xmlns="http://www.w3.org/2000/svg"><path d="m0 0h64v64h-64z" fill="none"/><path d="m54.4 40.5c-2.4-1.1-4.3-2.3-8-5.6-2.3-2.1-6.1-3.7-9.6-3.7-5.6 0-8.1 1.8-15.4 5.3 2.2 2.6 5.1 4.3 5.1 4.3 0 .2-.2.2-.6.2-1.1-.2-3.8-1.3-6-3.9-1.6-1.8-2-3.5-3.4-5s-3.9-2.6-5.2-3.1c-.6-.2-1.2 0-1.4.5-.7 1.4-1.8 4.4.3 7 2.3 2.9 5.8 3.4 8 5.6-.8.4-1.5.9-1.8 1.4-.7 1.4 1.1 3.4 1.1 3.4s-2.1 0-2.8 2c-.1.3.2.6.5.5l1.7-.6.1 1c0 .3.4.4.6.3l1.5-1 .3 1c.1.2.3.4.6.2.7-.4 2-1.3 2.1-2.4 0-.3 0-.8-.1-1.3 1.4 1 3 1.7 4.9 2.1.2.7.5 1.1.5 1.1s-1.5 0-2.6.8c-.6.5-.9 1.3-1 1.8-.1.3.2.5.5.4l1.9-.8.1 1.2c0 .3.3.4.6.3l1.7-1.1.3 1.1c.1.2.3.3.5.2.8-.4 2.3-1.4 2.7-2.6.1-.5.1-1.2-.1-2 4.3.2 10.1.2 12.9-.7.3.4.7.7 1.2 1 0 0-1.2 1.2-.5 2.9.1.3.5.3.6.1l1.4-1.7.6 1.3c.1.3.5.3.6.1l1.5-1.8.8 1c.2.2.5.2.6 0 .5-.8 1.4-2.7.2-3.9-1.5-1.4-3.6-1.9-3.9-2.8-.1-.2 0-.4 0-.7 3.2-.4 5.3-1.7 6.4-2.5.6.1.5-.6 0-.9zm-42-7.3c-.5 0-1-.4-1-1s.4-1 1-1 1 .4 1 1-.5 1-1 1z"/><path d="m32 8.3-30 12v34.7h5v-31.3l25-10 25 10v31.3h5v-34.7z"/></svg>