<svg height="64" viewBox="0 0 64 64" width="64" xmlns="http://www.w3.org/2000/svg"><path d="m0 0h64v64h-64z" fill="none"/><path d="m48.5687 26.9777c6.9653-.2831 13.1219-3.7926 13.1943-6.3989.0566-2.0386-4.1339-5.5496-8.6641-7.5316 0 0-.3489-3.5472-3.6241-4.3037-4.2399-.9792-6.6255 1.6157-6.6255 1.6157s-7.1459-1.8894-20.2162 3.6507c-11.7298 4.972-14.5701 11.8736-15.1535 13.8037-2.3541 1.4064-4.1384 3.4566-4.3832 6.639-.1465 1.9044.1819 3.6561.9481 5.1266.4634 1.1385 1.1422 1.6695-.3818 3.311-2.6205 2.8226-1.1326 6.0789 2.7747 6.0789h6.4556c7.8619 0 12.9394 4.0421 15.2324 6.2133.3782.358.9865-.0015.8453-.5027l-.5007-1.7788c-.2725-.9676.5223-1.9028 1.5211-1.7902l3.6542.4122c.6338.0715 1.0247-.6732.6061-1.1543l-1.1723-1.3473c-.6209-.7136-.2032-1.8313.7335-1.9628l1.9639-.2756c.6324-.0887.7268-.9728.1262-1.1896-3.7972-1.371-7.692-2.1558-10.8456-2.6072-2.1079.9376-4.6268 1.5488-7.5415 1.7796-2.6419.2091-4.9531.2656-6.75-.4531-.2476-.099-.4789-.3289-.3817-.5154 1.2214.1835 2.5854.196 4.0947-.0008 7.8147-1.0193 17.1017-5.3796 16.0258-13.6473-.4913-3.7752-2.791-5.386-5.6714-5.8965-.0005-.207.2548-.2802.7003-.2686 2.1642.0566 4.0274.7618 5.4144 2.0838 3.2197 3.0689 2.9359 9.0266-1.0056 13.4053l5.9986-1.5093 4.0291 8.5003c.3723.7854 1.0818 1.3628 1.9311 1.5477 2.7061.5891 6.3356 1.7407 8.5466 2.4753.6852.2277 1.2811-.5164.918-1.1405l-.1313-.2258c-.3083-.5299-.0068-1.2061.5934-1.3309l2.1658-.4503c.5994-.1246.6298-.9694.0409-1.1367l-3.0872-.8774.073-.438c.1044-.6263-.4273-1.1749-1.0566-1.09l-3.7731.5087-2.7182-8.2111c1.1892-5.8329 5.0965-9.1174 5.0965-9.1174zm-2.9228-12.4777c0-1.0218.8283-1.85 1.85-1.85 1.0218 0 1.85.8282 1.85 1.85 0 1.0217-.8282 1.85-1.85 1.85-1.0217 0-1.85-.8283-1.85-1.85z"/></svg>