<?xml version="1.0" encoding="utf-8"?>
<!-- Generator: Adobe Illustrator 19.2.0, SVG Export Plug-In . SVG Version: 6.00 Build 0)  -->
<svg version="1.0" xmlns="http://www.w3.org/2000/svg" xmlns:xlink="http://www.w3.org/1999/xlink" x="0px" y="0px"
	 viewBox="0 0 64 64" enable-background="new 0 0 64 64" xml:space="preserve">
<g id="achtergrond">
</g>
<g id="paneel_1">
	<g>
		<polygon points="30,51 32,51 32,40 27.77,39.6716 		"/>
		<polygon points="55.0421,42.2944 56.8056,43.6883 56.8056,51 59,51 59,40.5613 56.7973,37.7967 		"/>
		<path d="M58.1875,21.0326L35,21c0,0-0.0294,0.7908,1,1c1.8561,0.3771,4.6045,0.5261,4.707,2.9822
			c0.1098,2.6328-3.1269,3.0172-3.1269,3.0172s-0.712,3.1251-4.2773,3.4545c-3.5653,0.3303-5.2655-3.8948-5.2655-3.8948
			s-2.0306,2.4141-4.7733,0.7138c-2.5806-1.5996-0.8401-6.6931-0.6259-7.2898h-4.053c0.7476-0.0219,2.0499-0.1464,2.7792-1.0358
			c0.7906-0.9664,0.7632-1.8311,0.7632-1.8311h-4.6588c0,0,1.4339-0.8364,1.9116-2.2704c0.4777-1.4331-0.2287-3.3191-0.5582-3.3191
			c-0.3303,0-0.5857,2.2585-1.5365,3.3502c-0.7933,0.9096-1.6893,1.068-1.6893,1.068h-4.1638c0,0-1.2802-0.14-2.124-1.5466
			C8.3951,13.8764,8.3567,12.5,8.041,12.5c-0.2791,0-1.002,1.7397-0.7037,3.0748c0.292,1.3031,1.5466,2.4772,1.5466,2.4772H4.4501
			c0,0,0.6744,2.9009,2.6117,2.9009c1.3635,0,1.8311,0.0101,1.8311,0.0101l1.3709,6.8707c0,0-1.0963,3.4555,3.3466,3.4555
			c3.8169,0,3.4646-2.7893,3.2898-3.5753c0.2197,0.8657,1.1045,4.2315,1.8659,5.6599c0.8776,1.6454,3.181,4.5518,3.181,4.5518
			l1.6999,13.0592h2.414l0.3674-12.5586l14.9813,1.7497c-0.0156,0.1455-0.0449,0.2882-0.0449,0.4384
			c0,2.4232,1.9648,4.388,4.3889,4.388c0.9426,0,1.7443-0.216,2.4003-0.6442c-0.5051-1.0597-1.4944-3.2112-2.1129-5.0688
			c-0.8584-2.577-0.7037-4.9654-0.5061-5.2116c0.1757-0.2197,0.2407-0.1711,0.2407-0.1711s0.7933,2.7105,1.854,5.1978
			c0.9004,2.1121,2.0416,4.1519,2.3665,4.7211l-2.9585,7.1579l2.8122-0.0073c0,0,1.6846-3.5313,3.179-7.415l0.0019,0.0018
			l4.3431-11.3026l0.227,3.5827L59,36c0,0,0-13.5361,0-14C59,21.0909,58.1875,21.0326,58.1875,21.0326z M15.804,29.0407
			c0.0549,0.8766-0.9334,0.3285-2.3592,0.3285c-1.4248,0-2.3564,0.5765-2.4122-0.3001c-0.0549-0.8777,1.3718-1.8943,1.3718-1.8943
			l0.1089-4.3322l-1.4807-3.2907c0,0,0.9792-0.8236,2.5157-0.8236c1.5739,0,2.5311,0.9874,2.5311,0.9874l-1.5804,3.1269
			l-0.107,4.2343C14.392,27.0769,15.75,28.1632,15.804,29.0407z"/>
	</g>
</g>
</svg>
