<svg height="64" viewBox="0 0 64 64" width="64" xmlns="http://www.w3.org/2000/svg"><path d="m0 0h64v64h-64z" fill="none"/><path d="m15 47.2197c-.532.4798-1.2289.7803-2 .7803-1.1185 0-2.0845-.6224-2.6003-1.5323l.8176 6.5323h4.3288l-.431-5.6931c-.0372-.0306-.0793-.0549-.1151-.0872z"/><path d="m30.7712 53h4.3288l1.3035-12h-4.835z"/><path d="m63.5096 22.293c-1.4989-1.2437-3.8729-4.0612-4.3542-5.8688 0 0 2.1209-.1174 2.5914-1.128.7582-1.6288-2.7237-1.9464-4.585-1.9197.6111-.9049.8801-1.3838 1.4209-2.3427.6552-1.1604-.9208-2.2924-1.8116-1.3016l-.0345.0384c-.6369.7082-1.1 1.2261-1.8592 1.9275-3.7985-.957-12.5954 2.2993-13.6687 2.3019 0 0-31.0071 0-33.1627 0-1.9032 0-3.584 1.775-3.7961 3.8018-.3958 3.7922-.8928 10.0032-1.1103 12.119-2.3083.6097-3.0993 3.0319-2.9171 5.3262 0 0 3.0607.7672 4.7944-.6997 1.5176-1.2841 1.3341-2.775 1.8442-8.6156.2232-2.5557.4873-5.5752.7178-7.7822.0321-.3098.2142-.553.4697-.6703.0039 4.7977.0102 13.2137.0102 15.4608 0 2.3154-2.1141 4.3346-3.2944 5.27-.4805.3808-.7558.9575-.7535 1.5705l.8291 13.2195h4.16v-8.6508c0-1.6563.6216-2.7476 1.1412-3.34.5453.5275 1.1655.9781 1.8588 1.308v2.6828c0 1.3212 2 1.323 2 0v-2.0795c.7377.1058 1.2623.1058 2 0v2.0795c0 1.3212 2 1.323 2 0v-2.6827c1.4556-.6926 2.6318-1.8725 3.3235-3.3271l14.7635.0088c.959.0005 1.7827.6818 1.9631 1.6237l2.3711 12.3773h4.3288l-1.125-16.25 4.5449-8.9822c1.1882-2.3483 3.2053-2.5947 5.7805-2.0519l6.0275 1.2949c.4425.0933 1.5151.3732 2.9949-1.33 1.2021-1.3835 1.1433-2.8845.5368-3.3878z"/></svg>