<svg height="64" viewBox="0 0 64 64" width="64" xmlns="http://www.w3.org/2000/svg"><path d="m0 0h64v64h-64z" fill="none"/><path d="m54.7337 29.6465-9.6702-3.6922c-.3153-.1193-.6799-.1191-1.0109.0317l-.0693.0316-8.2389 3.7545c.4846-.7045.7502-1.5843.7556-2.5923l8.7273-3.9771.0571-.026c.2695-.123.4996-.3369.6396-.624l4.7172-9.6812c.5697-1.1783-1.1403-2.1062-1.8138-.9836l-5.2662 8.7772-7.8873 3.5942c-.4448-.6152-1.0483-1.0715-1.808-1.3358 2.9017-1.3208 4.9612-1.6061 4.9612-5.1688 0-1.1688-.2985-2.3159-.7715-3.3846 1.7557-1.054 3.894-2.6884 3.8092-4.7321-.1031-2.3258-3.2202-4.8762-5.4134-6.6116-.6177-.4887-1.3785.405-.8022.9371l.0558.0513c.9833.9034 4.4033 4.1843 4.186 5.5013-.0863 1.1898-2.069 2.1357-3.1708 2.5816-1.5865-2.143-3.6609-3.6012-4.715-3.6012-1.0315 0-3.0412 1.5411-4.6136 3.6561-.0313-.0121-.0598-.0231-.0916-.0354-1.113-.4472-3.1278-1.402-3.2145-2.6011-.2193-1.3297 3.1941-4.59 4.186-5.5013l.0558-.0513c.5765-.5322-.1843-1.4258-.8022-.9371-3.0847 2.4408-5.3239 4.5918-5.4134 6.6116-.0863 2.079 2.1227 3.7377 3.9055 4.7889-.5101 1.0875-.8339 2.2265-.8339 3.3278 0 3.8616 1.6171 3.9297 4.9646 5.1908-.7538.276-1.3405.738-1.7753 1.3301l-7.9338-3.6154-5.3683-8.7115c-.5896-.9593-2.0762-.1691-1.5889.8616l4.6048 9.7421c.1249.2636.3407.4878.627.6182l.0698.0318 8.7271 3.9769c.0048 1.0175.2302 1.8712.653 2.5456l-8.1361-3.7076-.0608-.0273c-.3106-.1405-.6745-.1635-1.0194-.0356l-9.7015 3.5948c-1.2323.4609-.6381 2.3268.6351 1.9802l9.3936-2.5579 8.8542 4.0349c-.3531.5564-.5453 1.2247-.5925 1.9648l-7.374-3.3977c-1.0091-.4602-2.1619.2838-2.1619 1.3541v9.1877l-4.7691 8.1883c-.533.9074.7503 1.7847 1.3965.9487l6.1392-7.957c.1599-.2068.2334-.4667.2334-.7483v-.0865-7.2155l7.3821 3.3969c-3.2321.8099-4.9431 3.0408-4.9431 7.7808 0 6.6166 3.1404 12.8818 8.5662 12.8818 5.4267 0 8.5662-6.7755 8.5662-12.8818 0-5.1315-1.7885-7.1268-4.8441-7.8233l7.2727-3.3507v7.2119.0797c0 .2636.068.5294.2403.755l6.0855 7.9904c.6865.9014 2.0919-.0413 1.5134-1.0155l-4.8392-8.1697v-9.1729c0-1.0238-1.14-1.8277-2.1669-1.3542l-7.3588 3.3931c-.0457-.7702-.2392-1.4299-.573-1.9691l8.8436-4.03 9.4162 2.4644c1.1431.2948 1.6705-1.3661.5726-1.7853z"/></svg>