<?xml version="1.0" encoding="utf-8"?>
<!-- Generator: Adobe Illustrator 17.1.0, SVG Export Plug-In . SVG Version: 6.00 Build 0)  -->
<svg version="1.2" baseProfile="tiny" xmlns="http://www.w3.org/2000/svg" xmlns:xlink="http://www.w3.org/1999/xlink" x="0px"
	 y="0px" width="64px" height="64px" viewBox="0 0 64 64" xml:space="preserve">
<g id="Box">
	<rect fill="none" width="64" height="64"/>
</g>
<g id="Icon">
	<path d="M54.7337,29.6465l-9.6702-3.6922c-0.3153-0.1193-0.6799-0.1191-1.0109,0.0317l-0.0693,0.0316l-8.2389,3.7545
		c0.4846-0.7045,0.7502-1.5843,0.7556-2.5923l8.7273-3.9771l0.0571-0.026c0.2695-0.123,0.4996-0.3369,0.6396-0.624l4.7172-9.6812
		c0.5697-1.1783-1.1403-2.1062-1.8138-0.9836l-5.2662,8.7772l-7.8873,3.5942c-0.4448-0.6152-1.0483-1.0715-1.808-1.3358
		c2.9017-1.3208,4.9612-1.6061,4.9612-5.1688c0-1.1688-0.2985-2.3159-0.7715-3.3846c1.7557-1.054,3.894-2.6884,3.8092-4.7321
		c-0.1031-2.3258-3.2202-4.8762-5.4134-6.6116c-0.6177-0.4887-1.3785,0.405-0.8022,0.9371l0.0558,0.0513
		c0.9833,0.9034,4.4033,4.1843,4.186,5.5013c-0.0863,1.1898-2.069,2.1357-3.1708,2.5816c-1.5865-2.143-3.6609-3.6012-4.715-3.6012
		c-1.0315,0-3.0412,1.5411-4.6136,3.6561c-0.0313-0.0121-0.0598-0.0231-0.0916-0.0354c-1.113-0.4472-3.1278-1.402-3.2145-2.6011
		c-0.2193-1.3297,3.1941-4.59,4.186-5.5013l0.0558-0.0513c0.5765-0.5322-0.1843-1.4258-0.8022-0.9371
		c-3.0847,2.4408-5.3239,4.5918-5.4134,6.6116c-0.0863,2.079,2.1227,3.7377,3.9055,4.7889
		c-0.5101,1.0875-0.8339,2.2265-0.8339,3.3278c0,3.8616,1.6171,3.9297,4.9646,5.1908c-0.7538,0.276-1.3405,0.738-1.7753,1.3301
		l-7.9338-3.6154l-5.3683-8.7115c-0.5896-0.9593-2.0762-0.1691-1.5889,0.8616l4.6048,9.7421
		c0.1249,0.2636,0.3407,0.4878,0.627,0.6182l0.0698,0.0318l8.7271,3.9769c0.0048,1.0175,0.2302,1.8712,0.653,2.5456l-8.1361-3.7076
		L19.9664,25.99c-0.3106-0.1405-0.6745-0.1635-1.0194-0.0356l-9.7015,3.5948c-1.2323,0.4609-0.6381,2.3268,0.6351,1.9802
		l9.3936-2.5579l8.8542,4.0349c-0.3531,0.5564-0.5453,1.2247-0.5925,1.9648l-7.374-3.3977C19.1528,31.1133,18,31.8573,18,32.9276
		v9.1877l-4.7691,8.1883c-0.533,0.9074,0.7503,1.7847,1.3965,0.9487l6.1392-7.957C20.9265,43.0885,21,42.8286,21,42.547v-0.0865
		V35.245l7.3821,3.3969c-3.2321,0.8099-4.9431,3.0408-4.9431,7.7808c0,6.6166,3.1404,12.8818,8.5662,12.8818
		c5.4267,0,8.5662-6.7755,8.5662-12.8818c0-5.1315-1.7885-7.1268-4.8441-7.8233L43,35.2487v7.2119v0.0797
		c0,0.2636,0.068,0.5294,0.2403,0.755l6.0855,7.9904c0.6865,0.9014,2.0919-0.0413,1.5134-1.0155L46,42.1005v-9.1729
		c0-1.0238-1.14-1.8277-2.1669-1.3542l-7.3588,3.3931c-0.0457-0.7702-0.2392-1.4299-0.573-1.9691l8.8436-4.03l9.4162,2.4644
		C55.3042,31.7266,55.8316,30.0657,54.7337,29.6465z"/>
</g>
</svg>
