<?xml version="1.0" encoding="utf-8"?>
<!-- Generator: Adobe Illustrator 19.1.0, SVG Export Plug-In . SVG Version: 6.00 Build 0)  -->
<svg version="1.2" baseProfile="tiny" xmlns="http://www.w3.org/2000/svg" xmlns:xlink="http://www.w3.org/1999/xlink" x="0px"
	 y="0px" width="64px" height="64px" viewBox="0 0 64 64" xml:space="preserve">
<g id="_x36_4px_Box">
	<rect fill="none" width="64" height="64"/>
</g>
<g id="Icon">
	<path d="M11.4481,33.8164C14.0096,38.3934,18.1761,42,27,42c0.7831,0,9.2433,0,10,0c12.6667,0,22.97-0.1223,22.97-4.9936
		c0-3.1268-5.4124-6.2495-8.5643-7.8033c0.9291-1.5807,2.4211-4.5247,0.9725-5.0317c-2.1949-0.7682-6.9921,2.2094-9.7981,4.9282
		c-0.1173-0.0674-0.1679-0.2387-0.0438-0.509c0.2095-0.4566,1.0859-2.1876,3.2134-4.2249
		c-5.2369-5.1365-15.8662-13.0004-27.7729-7.2701c-6.254,3.0098-8.7344,8.2892-7.8108,13.2141
		c-3.6372,1.4791-7.73,4.7385-7.0562,10.5458c0.2622,2.2598,1.3784,4.1553,3.3179,5.6338
		c7.7624,5.9169,22.5465,0.8377,27.9531,7.3862c0.2185,0.2646,0.6554,0.0754,0.6168-0.2656
		c-0.3067-2.7105-2.3212-4.3598-4.9666-5.3352c-5.9015-2.1758-12.5866-0.7746-19.0348-3.4902
		c-2.2407-0.9436-3.8551-2.4245-4.0828-4.3899C6.498,36.8158,9.3075,34.8108,11.4481,33.8164z M51.5,33c0.8284,0,1.5,0.6716,1.5,1.5
		S52.3284,36,51.5,36S50,35.3284,50,34.5S50.6716,33,51.5,33z"/>
</g>
</svg>
