<svg enable-background="new 0 0 64 64" height="64" viewBox="0 0 64 64" width="64" xmlns="http://www.w3.org/2000/svg"><path d="m0 0h64v64h-64z" fill="none"/><path d="m59.703 16.437c-1.154-1.399-2.82-2.275-4.575-2.6-.635-.75-1.33-1.254-1.854-1.553-.449-.257-1 .034-1.074.545-.049.333-.061.678-.055 1.013-6.537 1.166-6.366 8.442-11.104 9.548-4.879 1.138-11.607-5.748-19.116-4.106-4.473.978-6.953 3.298-8.267 5.947-6.93.759-10.635 3.747-12.014 7.206-1.663 4.173.059 9.03 3.591 11.483 3.722 2.584 8.689 2.66 8.847.205.029-.444-.181-.888-.673-1.222-.605-.411-2.35-.663-4.151-2.621-1.381-1.5-2.063-3.154-1.797-5.146.322-2.413 2.56-4.074 4.922-5.03-.173 2.263.068 5.811 3.739 9.012l-.785 1.329c-.367.62-.312 1.403.137 1.966l2.216 2.781c.383.481.964.761 1.579.761h4.519c-.103-2.763-3.185-3.156-3.705-3.169 0 0 1.401-1.842 2.848-3.662.937-1.178 1.399-2.32 1.579-3.387.59-3.617-1.659-6.753-1.659-6.753.081-.157.313-.093.508.056 2.47 1.886 3.342 4.331 3.406 7.073 4.887.129 7.073 2.879 13.905 2.573l4.427 6.398c.377.545.997.87 1.66.87h4.635c0-2.87-3.966-3.085-3.966-3.085l-.345-2.445c-.182-1.287.337-2.554 1.322-3.402 2.388-2.057 3.625-3.972 4.354-5.722 1.226-2.941 1.019-5.414 2.439-7.308 1.662-2.216 4.354-1.369 6.123-2.091.828-.338 1.453-1.019 1.677-2.517.137-.94-1.869-1.22-3.293-2.947zm-3.132 2.891c-.69 0-1.25-.56-1.25-1.25s.56-1.25 1.25-1.25 1.25.56 1.25 1.25-.559 1.25-1.25 1.25z"/></svg>