<svg height="64" viewBox="0 0 64 64" width="64" xmlns="http://www.w3.org/2000/svg"><path d="m0 0h64v64h-64z" fill="none"/><path d="m27.4912 35.9692-1.1696 4.7708.5601 3.2487h4.8331l-.8919-6.8491z"/><path d="m50 28.8999c2.8715 0 6.7329.0865 9.6728.4634.3271-2.2952.6343-5.9521.1698-8.7597-.5507-3.3295-4.2562-7.1525-10.1086-6.5317-7.7358.8205-15.701 2.5076-23.1486-1.0049-.2997 3.3615-1.8071 6.3597-3.0836 7.7191-.3126.3328-.4321.1409-.4321.1409.1448-.6193 3.1786-6.2132 1.2354-9.9525-2.6363-5.0733-7.3412-8.2536-8.3051-7.4032-1.5261 1.3462-1 3-1 3l3 1c.0085 1.3462-4.0009 5.4066-6.0403 6.9139-1.4888 1.1005-2.3812-.4258-2.7545-1.3301-.098-.2371-.4272-.2521-.5488-.0262-.9392 1.7461-.6564 3.4424-.6564 3.4424-1.7188-.7162-4.9929-3.0076-6.3914-4.9156-.1774-.242-.5659-.0864-.537.2123.6255 6.4781 5.1244 11.6618 5.1244 11.6618-.0887 2.3055.3547 3.9016.3547 3.9016s3.4058.9316 4.0789.3547c.6026-.5165 1.1516-1.9478 5.4467-2.6566l3.1869 6.2985-.632 12.5607h4.8331l2.0233-8.2368c.2014-1.0516.8929-2.1116 2.1918-1.8129.7155.1646 3.2161 1.2323 6.5962 2.1589.0668-.6273.141-1.2338.2322-1.7815.4082-2.4644 2.3408-4.3984 4.8096-4.8091 3.0107-.5019 7.4707-.6074 10.6826-.6074zm-35-9.8999c-.5523 0-1-.4477-1-1s.4477-1 1-1c.5522 0 1 .4477 1 1s-.4478 1-1 1z"/><path d="m62.435 34.826c-.1949-1.1729-1.0873-2.0652-2.2607-2.2607-3.3914-.5653-9.0442-.5653-10.1742-.5653s-6.7828 0-10.1743.5654c-1.1734.1955-2.0657 1.0878-2.2607 2.2607-.5651 3.3912-.5651 9.0436-.5651 10.1739 0 1.1304 0 6.7827.5651 10.174.195 1.1728 1.0873 2.0651 2.2607 2.2607 3.3914.5653 9.0442.5653 10.1743.5653s6.7828 0 10.1742-.5653c1.1735-.1956 2.0658-1.0879 2.2607-2.2607.565-3.3913.565-9.0436.565-10.174 0-3.393 0-6.7827-.565-10.174zm-14.1887 1.174 3.8137-.3066-.3058 8.7939v3.5127h-3.5079zm1.7917 18.06c-1.3195 0-2.0737-.7116-2.0737-2.0343 0-1.1701.6998-2.0857 2.0464-2.0857 1.3195 0 2.0735.7373 2.0735 2.0857.0001 1.1444-.7004 2.0343-2.0462 2.0343z"/></svg>