<?xml version="1.0" encoding="utf-8"?>
<!-- Generator: Adobe Illustrator 17.1.0, SVG Export Plug-In . SVG Version: 6.00 Build 0)  -->
<svg version="1.2" baseProfile="tiny" xmlns="http://www.w3.org/2000/svg" xmlns:xlink="http://www.w3.org/1999/xlink" x="0px"
	 y="0px" width="64px" height="64px" viewBox="0 0 64 64" xml:space="preserve">
<g id="_x36_4px_Boxes">
	<rect fill="none" width="64" height="64"/>
</g>
<g id="Label">
</g>
<g id="Production">
	<path d="M51.6996,16c-1.6094-1.1094-2.4675-2.8552-3.4415-4.0375c-0.9419-1.1433-1.8974-2.0816-3.2578-2.3133l1.9518-4.8546
		c0,0-1.2415-0.8184-3.7156-0.631c-2.4,0.1818-3.209,1.0537-3.209,1.0537l2.7059,4.6438c-2.6343,0.8696-3.4704,3.9213-1.8451,9.9892
		c1.5516,5.7923,0.6153,9.8145-1.9716,12.733c-0.2755,0.3109-0.5099,0.2796-0.5621,0.1323C39.591,28.3585,39.8991,26.6973,38,21
		c-2.3346-7.0037-0.01-9.5755-0.01-12c0-3.3137-2.6763-6-5.99-6c-2.8577,0-5.2443,1.9996-5.8483,4.6747
		C25.0736,6.6395,23.6127,6,22,6c-3.3137,0-6,2.6863-6,6c0,0.3784,0.0391,0.7472,0.1061,1.1061C15.7472,13.0391,15.3784,13,15,13
		c-3.3137,0-6,2.6863-6,6c0,1.7312,0.7375,3.2865,1.9103,4.3816C8.6285,24.2309,7,26.4224,7,29c0,2.3218,1.3212,4.3315,3.2505,5.329
		C8.8892,35.4269,8.02,37.1093,8.02,39c0,3.8712,3.6459,6.8386,7.4875,5.7759c2.283-0.6316,6.0642-1.8745,9.1198-2.9047
		c1.8646,2.6932,4.7067,4.8606,8.9978,5.7227l1.2209,8.4139c-1.6054,0.5699-3.7103,2.1487-3.4944,3.1118
		c0.121,0.5395,0.7508,0.5876,1.3936,0.2378c0.5735-0.3121,2.1846-1.3555,3.4053-1.3555c1.1455,0,4.1191,1.311,5.7246,2.1372
		c0.495,0.2541,1.3213,0.1906,1.3467-0.4316c0.0261-0.638-0.6882-1.3453-1.7131-1.9824c2.1749,0.218,4.0865,0.7953,4.1106,0.8027
		c1.0172,0.3102,1.9382-0.7997-0.5524-1.9561c-0.7581-0.352-2.2904-0.8005-4.0696-0.896l1.5165-8.3363
		c9.9365-3.2283,5.7466-17.5006,4.4432-21.3107c-1.4343-4.1925-3.1995-8.8264-0.993-10.04
		c2.2066-1.2136,5.7014,0.9257,5.7014,0.9257C52.0121,16.9531,52.1869,16.3359,51.6996,16z M39.0053,56.4356
		c-0.5995-0.2103-1.5449-0.3787-2.0927-0.4917l0.0938-7.9636C37.2722,47.9888,37.6351,48,37.9097,48
		c0.4362,0,1.1003-0.0186,1.5047-0.0452L39.0053,56.4356z"/>
</g>
</svg>
