<svg enable-background="new 0 0 64 64" height="64" viewBox="0 0 64 64" width="64" xmlns="http://www.w3.org/2000/svg"><path d="m0 0h64v64h-64z" fill="none"/><path d="m59 31.2c-1.3.2-2.5.3-3.6.3.1.8.1 1.7-.1 2.3-.3.7-.8 1.2-1.4 1.5-1 .3-1.9.1-2.8-.5-.3.6-.6 1.1-1 1.5-.6.5-1.2.7-1.9.6-.8-.1-1.4-.5-2-1.3-.6.8-1.5 1.4-2.5 1.4s-2-.6-2.5-2c-.5.3-1.1.5-1.7.6-.8.1-1.4-.2-1.9-.6-.7-.7-1-1.8-.7-3.2-1.5-1.2-2.7-2.6-3.6-4.4-.3-.6-.5-1.1-.7-1.6-2-.9-4-1.5-6.3-1.6.6-2 1.5-5.9 3.7-6.7-1.1-1.2-2.4-2.1-3.9-2.9.2-.9 3.6.6 5.2 2 .8.7 1.9 2.3 2.2 4.3.2 1.4.5 3.5 1.5 5.5.9 1.9 2.3 3.3 4.2 4.4-.5 1.3-.6 2.3-.2 2.6.4.4 1.8-.4 2.6-1.4.4.2.9.3 1.3.4 0 1.4.2 2.3.6 2.5.5.2 1.5-.9 2-2.1.8 0 1.1 0 1.6-.1.4 1.3.9 2.1 1.3 2.1.5.1 1.2-1.4 1.2-2.7.8-.3.3-.1 1-.5 1.1 1.2 2.1 1.8 2.5 1.7.5-.2.5-1.9-.2-3 0 0 0 0 0-.1 1.8-1.4 3-3 4.2-4.7.9-1.2 2.7-1.8 3.5-2.2.4-.2.9-.7.4-1.4-.6-.7-1.4-1.5-2.3-2.2l.5-2.7c.1-.3 0-.5-.2-.7s-.6-.2-.8 0l-1.2 2.6c-.6-.2-1.2-.3-1.8-.3l-.5-2.7c-.2-.2-.5-.3-.8-.2-.2.1-.4.4-.4.6l-.3 2.5h-.1c-2.1.7-3.8 2.7-6.1 3.6-1.6.6-3.2-.2-3.8-3.6-.3-1.5-.7-3.5-1.7-5.3-2.3-4-6.8-6.8-11.7-6.5-4.3.3-8.4 3-10.6 7.7-.7 1.4-1.4 4.5-1.6 5.8-.1.8-.2 1.6-.8 2.5-1.1 1.4-3.8 2.7-6.6 2.6-3.4-.1-3.9 2.4-2.9 3.4.5.6 2.7 1.8 5 2.2.9-1.4 3.8-4.4 4.4-3.6-2.9 2.9-4.6 7.6-4.5 11.9 4.7-2 9.3-2.9 14.2-2.6.8.1 1 .6 1 .8-11.4 2.4-18.6 5.8-24.6 15.5-2.2 3.7 2.8 7.3 5.4 3.7 1.6-2.2 3.9-5.8 7.8-8.6 11.7 13.5 38 5.4 45.1-14.6.4-1.3-.7-2.7-2.1-2.5z"/></svg>