<svg enable-background="new 0 0 64 64" viewBox="0 0 64 64" xmlns="http://www.w3.org/2000/svg"><path d="m0 0h64v64h-64z" fill="none"/><path d="m35.5 48.7.4 9.2h3.5l.6-9.6c-1.4.7-3 .9-4.5.4z"/><path d="m20 47c-.6.1-1.1.1-1.5.1l1.7 10.9h3.5l-.4-9.7c-1.2-.1-2.4-.6-3.3-1.3z"/><path d="m60.1 26.5c-1.5-1.8-3.7-3.6-6-4.8.4-.6.6-1.3.6-2.1 0-2.2-1.8-4-4-4-.9 0-1.8.3-2.4.9-1.5-1.2-3.5-1.2-5 0-1.6-2-4.3-2.3-6.4-1-1.7-1.9-4.4-2.2-6.4-.8-2-1.8-5-1.6-6.8.4-2.4-1.9-5.7-1.1-7.2 1.4-2.7-1.1-5.8.3-6.5 3.2-3.5.1-5.8 3.6-4.3 6.8-3.2 1.8-3.3 6.2-.3 8.2-1.4 3 .4 6.3 3.5 6.8.4 1.3 1.2 2.4 2.4 3l1.4 13.5h3.1l.6-13.5c1.2.7 2.7.9 4.1.3 1.6 1.8 4.2 2.1 6.2.8 1.9 2.1 5.2 2.2 7.1 0 1.8 1.8 4.8 1.9 6.7 0 .4.2.8.4 1.3.6l1.3 11.8h3.4l.3-12.5c1.2-.8 2.6-2.6 2.4-5.4 2.1-1.2 2.4-3.3 2.4-4.3-1.7-.2-3.6-.5-5.7-1.2-2.4-.8-4.1-2.6-4.8-5.2-2.6-.2-3.1-2.3-2.5-3.6 2-4.2 6.5-4.9 7.3-5 .4 0 .5.1.5.2-2.4.9-4.7 2.8-6.1 5.6-.1.3 0 .6.3.6 3.9.4 6.9-2.5 6.9-2.5.2.1.2.3-.1.8-.9 1.2-2.6 2.5-4.4 3.5.5 1.4 1.4 3 3.5 3.6 4.4 1.4 8.7 1.4 10.8 1 4.8-.7 4.8-4.8 2.8-7.1zm-7.7.5c-.8 0-1.4-.6-1.4-1.4s.6-1.4 1.4-1.4 1.4.6 1.4 1.4-.6 1.4-1.4 1.4z"/></svg>