<?xml version="1.0" encoding="utf-8"?>
<!-- Generator: Adobe Illustrator 19.1.0, SVG Export Plug-In . SVG Version: 6.00 Build 0)  -->
<svg version="1.2" baseProfile="tiny" xmlns="http://www.w3.org/2000/svg" xmlns:xlink="http://www.w3.org/1999/xlink" x="0px"
	 y="0px" width="64px" height="64px" viewBox="0 0 64 64" xml:space="preserve">
<g id="Box">
	<rect fill="none" width="64" height="64"/>
</g>
<g id="Icon">
	<g>
		<path d="M43.7342,18.1047c4.2272-5.9885,4.2679-9.6065,3.95-11.1789c-0.1074-0.5309-0.6317-0.8815-1.1613-0.7678
			c-4.7318,1.0154-7.5125,3.9424-7.5125,3.9424c1.4017,1.4916,2.1479,3.1378,2.3367,3.9275c0.101,0.4227-0.1224,0.419-0.1224,0.419
			s-2.7069-3.4316-4.9167-3.716c-3.9254-0.5053-6.3185,4.126-6.3185,4.126c3.2231,2.324,4.5909,5.1315,4.9652,6.3409
			c0.1415,0.4572-0.1267,0.5479-0.1267,0.5479c-0.6561-1.0661-4.8134-5.338-8.4217-6.0761
			c-3.6084-0.7381-7.0779,2.3037-7.0779,2.3037s3.3934,0.9772,6.3055,3.6088c3.9022,3.5265,4.7405,8.4405,3.064,10.7819
			c-1.4552,2.0323-4.531,1.683-5.8431,3.2412c-1.3121,1.5582,0,2.9523-1.1481,4.1825c-1.1481,1.2301-1.5582,0.8201-3.4444,1.7222
			c-1.8862,0.9021-2.1322,3.9365-2.1322,3.9365c-0.2344,0.1209-0.4225-0.2613-0.4659-0.6605
			c-0.1575-1.4481,0.3505-3.7347,1.1219-4.5061c0.9841-0.9841,2.6243-0.9841,3.3624-1.9683
			c0.7381-0.9841-0.1572-3.0214,0.7449-4.4155c1.6144-2.4951,6.2819-0.1566,5.3765-5.6366c-0.4744-2.8708-4.3094-6.918-9.2209-7.66
			c-3.1509-0.476-7.2885,0.5207-10.1058,4.2772c-4.0785,5.438-2.7723,9.8586-0.4414,13.6842
			c1.3986,2.2953,4.2443,4.2914,5.4006,7.1889c1.0209,2.5581,1.7132,4.712,2.4764,6.7823c0.6674,1.8107,3.3926,1.4442,3.8517-0.4302
			c0.5925-2.4187,1.8716-4.8383,4.5423-5.8353c6.1507-2.2963,10.5792,0.6561,16.5658-3.5264
			c5.9867-4.1825,1.2302-13.2034,1.2302-13.2034C47.7853,25.4361,43.7342,18.1047,43.7342,18.1047z"/>
		<circle cx="48.5" cy="35.5" r="2.5"/>
		<circle cx="47.5" cy="46.5" r="2.5"/>
		<circle cx="58.5" cy="42.5" r="2.5"/>
		<circle cx="57.5" cy="53.5" r="2.5"/>
		<circle cx="36.5" cy="50.5" r="2.5"/>
		<circle cx="46.5" cy="57.5" r="2.5"/>
	</g>
</g>
</svg>
