<svg enable-background="new 0 0 64 64" viewBox="0 0 64 64" xmlns="http://www.w3.org/2000/svg"><path d="m56.9446 34.2455c-.9827 1.7865-3.944 6.8618-6.5234 8.1215-6.0182 2.9391-13.0617 2.1393-17.084.9797-3.7233-1.0733-4.1649-1.3054-4.1649-1.3054s.7998-3.3133-.4944-8.8417c-1.0045-4.2905-3.0415-6.7181-4.2711-8.4675-1.2295-1.7496-2.2002-5.5985-.906-6.5082 1.2942-.9098 3.5592-.8398 4.5946-.5599 1.0354.28 5.1123.7698 6.083.6299.9707-.14 1.2942-.4199 1.4236-.8398.1295-.4199 0-1.1197 0-1.1197s-4.1416-.14-4.3357-.4899c-.0442-.0796.0052-.2564.1107-.4848 1.317.0055 5.1926.0253 5.3847.0698.2315.0537 1.3882.6295 1.6039.6795.463.1073.4329-.1128.4329-.2558 0-.1431-1.0943-.5131-1.0778-.674.0166-.1609 1.0418-.7868 1.2071-.9656s-.0331-.447-.2811-.2682-1.637.8046-1.9181.8046c-.2164 0-3.4302-.1271-4.8985-.1856.4621-.717 1.0876-1.5238 1.4423-1.869.6471-.6299 1.553-.9098 1.6178-.21.0647.6998-.0824 1.5838.1941 1.5396 0 0 1.0174-2.9076 1.0821-3.8873.0647-.9798-.1114-2.271-.1114-2.271-.3235-.5598-4.0768.21-4.724.4199-.6471.21-1.4236-.287-1.9414.0629-.5177.3499-.5177 1.5467-.7118 1.8266-.1942.28-6.2446 2.0642-8.8009 4.8286-2.4591 2.6592-2.4591 6.2983-1.2942 8.8175 1.1648 2.5193 4.2041 5.2806 5.177 10.2171.4791 2.4314.5303 4.1522.4857 5.1851 1.6504.4267 3.8216 1.8619 3.6676 2.3766 0 0-.3221-.1266-1.1712-.4116-.8492-.2849-2.8759-.8549-2.8759-.8549v-.0102c-2.1561-.5638-17.7454-3.8654-17.0608 6.3815.6375 9.5427 8.2564 10.1183 12.3981 9.4186 4.1416-.6998 6.9539-4.1001 7.7952-5.7795.8413-1.6796 1.6795-3.9352 1.6795-3.9352s11.9605 3.235 18.7018.5761c8.4475-3.3318 9.7538-11.8054 9.836-12.6425.0166-.169-.1908-.244-.2711-.0978zm-26.9724-24.8914c.5177-.5598 1.3589.3499 1.3589.3499s-.0647-.0016-.6471.5582c-.5825.5599-1.2296.8414-1.2296.8414s0-1.1897.5178-1.7495zm-12.2954 42.4602c-5.0507.4498-6.8595-3.569-5.6299-6.7181 1.2344-3.1616 11.7776-.14 11.7776-.14s-.6472 6.3682-6.1477 6.8581z"/></svg>