<svg enable-background="new 0 0 64 64" viewBox="0 0 64 64" xmlns="http://www.w3.org/2000/svg"><path d="m21.3307 30.615s3.2227.0068 5.1961-.2354c1.5171 1.1533 6.579 3.4541 9.4915 2.1943 0 0-1.8206-1.6831-1.8433-3.6519 7.1746-1.7688 9.3057-5.7241 9.3057-5.7241 4.1631 5.4856 11.0123 4.6609 11.0123 4.6609-2.6195-2.2698-4.0668-4.6985-4.8319-6.3835.348-1.749 1.1902-4.312 3.2263-6.8523 0 0-6.952-.022-9.7345 5.8684 0 0-2.076-3.1982-8.3837-4.7214-.228-2.4626.7238-4.0425.7238-4.0425-3.2061-.5192-7.8065 2.2737-9.1066 3.2734-17.7604.1704-20.9498 11.2257-20.9498 11.2257 7.1456 5.4128 13.9709 4.5632 13.9709 4.5632.4373-4.6677-2.2364-12.6904-2.2364-12.6904 1.0708-1.1215 3.9029 6.947 4.1596 12.5156zm-8.3753-6.5452c-.7598 0-1.3751-.6165-1.3751-1.3762 0-.7595.6154-1.376 1.3751-1.376.7605 0 1.376.6165 1.376 1.376 0 .7598-.6155 1.3762-1.376 1.3762z"/><path d="m55.4375 44.7167c.2368-1.1897.8096-2.9331 2.1947-4.661 0 0-4.7289-.015-6.6216 3.9917 0 0-1.4122-2.1755-5.7028-3.2115-.1551-1.6752.4923-2.7498.4923-2.7498-2.1808-.3531-5.3101 1.5465-6.1945 2.2267-12.0809.1157-14.2505 7.6357-14.2505 7.6357 4.8606 3.682 9.5033 3.104 9.5033 3.104.2974-3.175-1.5212-8.6322-1.5212-8.6322.7284-.7628 2.6548 4.7255 2.8294 8.5133 0 0 2.1922.0046 3.5345-.16 1.0319.7845 4.4752 2.3495 6.4562 1.4926 0 0-1.2383-1.1448-1.2538-2.484 4.8802-1.2031 6.3298-3.8937 6.3298-3.8937 2.8318 3.7314 7.4908 3.1704 7.4908 3.1704-1.7817-1.544-2.7661-3.196-3.2866-4.3422zm-24.9679 1.7647c-.5168 0-.9354-.4192-.9354-.936 0-.5166.4186-.936.9354-.936.5173 0 .936.4194.936.936 0 .5169-.4187.936-.936.936z"/></svg>