<?xml version="1.0" encoding="utf-8"?>
<!-- Generator: Adobe Illustrator 19.2.0, SVG Export Plug-In . SVG Version: 6.00 Build 0)  -->
<svg version="1.0" xmlns="http://www.w3.org/2000/svg" xmlns:xlink="http://www.w3.org/1999/xlink" x="0px" y="0px"
	 viewBox="0 0 64 64" enable-background="new 0 0 64 64" xml:space="preserve">
<g id="achtergrond">
</g>
<g id="paneel_1">
	<g>
		<path d="M21.3307,30.615c0,0,3.2227,0.0068,5.1961-0.2354c1.5171,1.1533,6.579,3.4541,9.4915,2.1943
			c0,0-1.8206-1.6831-1.8433-3.6519c7.1746-1.7688,9.3057-5.7241,9.3057-5.7241c4.1631,5.4856,11.0123,4.6609,11.0123,4.6609
			c-2.6195-2.2698-4.0668-4.6985-4.8319-6.3835c0.348-1.749,1.1902-4.312,3.2263-6.8523c0,0-6.952-0.022-9.7345,5.8684
			c0,0-2.076-3.1982-8.3837-4.7214c-0.228-2.4626,0.7238-4.0425,0.7238-4.0425c-3.2061-0.5192-7.8065,2.2737-9.1066,3.2734
			C8.626,15.1713,5.4366,26.2266,5.4366,26.2266c7.1456,5.4128,13.9709,4.5632,13.9709,4.5632
			c0.4373-4.6677-2.2364-12.6904-2.2364-12.6904C18.2419,16.9779,21.074,25.0464,21.3307,30.615z M12.9554,24.0698
			c-0.7598,0-1.3751-0.6165-1.3751-1.3762c0-0.7595,0.6154-1.376,1.3751-1.376c0.7605,0,1.376,0.6165,1.376,1.376
			C14.3314,23.4534,13.7159,24.0698,12.9554,24.0698z"/>
		<path d="M55.4375,44.7167c0.2368-1.1897,0.8096-2.9331,2.1947-4.661c0,0-4.7289-0.015-6.6216,3.9917
			c0,0-1.4122-2.1755-5.7028-3.2115c-0.1551-1.6752,0.4923-2.7498,0.4923-2.7498c-2.1808-0.3531-5.3101,1.5465-6.1945,2.2267
			c-12.0809,0.1157-14.2505,7.6357-14.2505,7.6357c4.8606,3.682,9.5033,3.104,9.5033,3.104
			c0.2974-3.175-1.5212-8.6322-1.5212-8.6322c0.7284-0.7628,2.6548,4.7255,2.8294,8.5133c0,0,2.1922,0.0046,3.5345-0.16
			c1.0319,0.7845,4.4752,2.3495,6.4562,1.4926c0,0-1.2383-1.1448-1.2538-2.484c4.8802-1.2031,6.3298-3.8937,6.3298-3.8937
			c2.8318,3.7314,7.4908,3.1704,7.4908,3.1704C56.9424,47.5149,55.958,45.8629,55.4375,44.7167z M30.4696,46.4814
			c-0.5168,0-0.9354-0.4192-0.9354-0.936c0-0.5166,0.4186-0.936,0.9354-0.936c0.5173,0,0.936,0.4194,0.936,0.936
			C31.4056,46.0623,30.9869,46.4814,30.4696,46.4814z"/>
	</g>
</g>
</svg>
