<svg height="64" viewBox="0 0 64 64" width="64" xmlns="http://www.w3.org/2000/svg"><path d="m0 0h64v64h-64z" fill="none"/><circle cx="39" cy="24" r="2"/><circle cx="25" cy="24" r="2"/><path d="m48.3907 29.333c1.0377-3.928.9542-8.9085-1.9178-14.0609-1.301.7435-2.6448 1.2592-4.3323 1.7123-.5673.1523-.8019-.0001-.8342-.1396 5.9158-3.7806 7.8544-10.0571 8.4477-12.9392.0981-.4766-.4653-.7951-.8237-.4659-3.6204 3.3254-8.1031 4.9265-9.3051 5.315-4.7195-2.2868-10.5331-2.2919-15.2555-.0017-1.2087-.391-5.6843-1.9921-9.3002-5.3134-.3584-.3292-.9218-.0107-.8237.4659.5933 2.8821 2.5319 9.1586 8.4477 12.9392-.0328.1351-.264.2712-.8342.1396-1.625-.375-3.2031-1.0469-4.3322-1.7122-2.872 5.1523-2.9554 10.1327-1.9178 14.0608-2.3372 1.9955-4.4587 5.5479-3.0094 11.6671 1.2937 5.4621 6.3536 9.8977 11.3245 12.4671-1.1833.8016-2.3143 1.9504-3.0014 3.4278-1.4573 3.1332.6154 3.5385 1.6154 2.7692.6097-.469 2.3846-2.7692 3.9231-3.1539 1.5385-.3846 1.4615 1.7692 2.8461 2.1539 1.1184.3106 1.7841-1.3358 1.6749-2.8317.3571.0399.6987.0625 1.0175.0625s.6603-.0226 1.0175-.0625c-.1093 1.496.5565 3.1423 1.6749 2.8317 1.3846-.3846 1.3077-2.5385 2.8461-2.1539 1.5385.3846 3.3134 2.6849 3.9231 3.1539 1 .7692 3.0727.364 1.6154-2.7692-.6871-1.4774-1.8181-2.6262-3.0014-3.4278 4.9707-2.5694 10.0306-7.005 11.3243-12.4671 1.4492-6.1191-.6721-9.6716-3.0093-11.667zm-23.3907-.183c-2.8442 0-5.15-2.3057-5.15-5.15s2.3058-5.15 5.15-5.15 5.15 2.3057 5.15 5.15c0 2.8442-2.3058 5.15-5.15 5.15zm7.3828 5.4171c-.089.118-.248.1755-.3828.1786-.1348-.0031-.2938-.0605-.3828-.1786-1.4638-1.9419-2.7072-1.9327-2.7072-3.5598 0-1.4247 1.3543-2.0922 3.0901-2.0922 1.7357 0 3.09.6675 3.09 2.0922-.0001 1.6272-1.2435 1.6179-2.7073 3.5598zm6.6172-5.4171c-2.8442 0-5.15-2.3057-5.15-5.15s2.3058-5.15 5.15-5.15 5.15 2.3057 5.15 5.15c0 2.8442-2.3058 5.15-5.15 5.15z"/></svg>