<svg enable-background="new 0 0 64 64" height="64" viewBox="0 0 64 64" width="64" xmlns="http://www.w3.org/2000/svg"><path d="m0 0h64v64h-64z" fill="none"/><path d="m0 0h64v64h-64z" fill="none"/><path d="m31.6 53h3.1v-3.7c-1.4-.2-2.8-.6-4.2-1zm-16.6-5.8c-.5.5-1.2.8-2 .8-1.1 0-2.1-.6-2.6-1.5l.8 6.5h4.3l-.4-5.7s-.1 0-.1-.1zm39-14.6 2.8-4s-4.6-1.5-7.2 1.4l-4.4-1.6c-7.5-2.7-18.9-1.6-22.2 3.5-.1 0-.2-.1-.2-.3 0-.6.5-1.8 1.1-2.8-.8-1.2-3.3-1.4-4.3 0-.7 1-.6 2.4 0 3.6-1.1.6-2.3.5-3 .4-.3 0-.5.2-.4.5.3.7 1 1.7 2.6 2 1.3.2 2.3-.2 3-.5-.2.7-.3 1.5-.3 2.3 0 1.5.2 2.5.6 4.1l2.9 11.8h3.4v-7.5c5.5 2 10.2 3.1 18.3 1.3l1.9 6.3h3.2v-7.6c4.4-1.3 8.5-2.8 8.5-2.8l.4-3.2c0-.1-4.3-2.7-6.7-6.9zm-11.8 16.9v3.5h3.3l.5-1.7-.7-2.2c-1.1.2-2.1.3-3.1.4zm21.3-27.2c-1.5-1.2-3.9-4.1-4.4-5.9 0 0 2.1-.1 2.6-1.1.8-1.6-2.7-1.9-4.6-1.9.6-.9.9-1.4 1.4-2.3.7-1.2-.9-2.3-1.8-1.3-.6.7-1.1 1.2-1.9 1.9-3.8-1-12.6 2.3-13.7 2.3 0 0-31 0-33.2 0-1.9 0-3.6 1.8-3.8 3.8-.4 3.8-.9 10-1.1 12.1-2.3.6-3.1 3-2.9 5.3 0 0 3.1.8 4.8-.7 1.5-1.3 1.3-2.8 1.8-8.6.2-2.6.5-5.6.7-7.8 0-.3.2-.6.5-.7v15.5c0 2.3-2.1 4.3-3.3 5.3-.5.4-.8 1-.8 1.6l1 13.2h4.2v-8.7c0-1.7.6-2.7 1.1-3.3.5.5 1.2 1 1.9 1.3v2.7c0 1.3 2 1.3 2 0v-2.1c.7.1 1.3.1 2 0v2.1c0 1.3 2 1.3 2 0v-2.7c.7-.3 1.3-.8 1.9-1.4-.3-1.1-.5-2.1-.5-3.4-.3 0-.6 0-.9-.1-2-.3-3.5-1.5-4.3-3.3-.4-.8-.2-1.8.3-2.6.6-.7 1.5-1.1 2.4-1 0-1.1.3-2.2.9-3 .8-1.3 2.4-2 4-2 1.4 0 2.7.6 3.5 1.5 5.6-2.8 14.3-3 20.5-.8l2.6.9c1.2-1.9 3.1-2.1 5.5-1.6l6 1.3c.4.1 1.5.4 3-1.3 1.3-1.2 1.2-2.7.6-3.2z"/></svg>