<svg enable-background="new 0 0 64 64" height="64" viewBox="0 0 64 64" width="64" xmlns="http://www.w3.org/2000/svg"><path d="m46 27.2c2.9 0 5.6.7 8 1.8 3.2-2.6 4.8-5.5 4.8-6.7 0-2.1-6.7-10.8-18.7-11.7-1.8-2.9-4.3-5-5.4-5.8-.3-.3-.8-.4-1.2-.3-1.6.3-6 1.4-10.4 4.2-.4.3-.6.8-.4 1.2l1 3.2c-4.1 2.3-6.9 5.1-9.8 5.1-4.9-5.2-9.6-7.3-11-6.4-1.9 1.2 4.1 7.7 4.1 10.5s-6 9.3-4.1 10.5c1.4.9 6.1-1.2 11-6.4 2.5 0 4.8 2.7 8.2 4.5 0 0 5-2.3 5.8-2.7.6-.3.8-.1.9 0 0 0-6.7 5.3-7.5 6-.7.6-.4 1.2.3 1.6 1 .6 4.7 1.5 8.8-.2 3.3-5.1 9.1-8.4 15.6-8.4zm1.5-8.9c1.1 0 2.2 1.1 2.2 2.2s-1.1 2.2-2.2 2.2-2.2-1.1-2.2-2.2 1.1-2.2 2.2-2.2zm-1.5 11.9c-8.7 0-15.8 7.1-15.8 15.8s7.1 15.8 15.8 15.8 15.8-7.1 15.8-15.8-7.1-15.8-15.8-15.8zm0 27.7c-6.6 0-11.9-5.3-11.9-11.9s5.3-11.9 11.9-11.9 11.9 5.3 11.9 11.9-5.3 11.9-11.9 11.9zm5.2-18.7-4.6 3.8c-.2 0-.4 0-.6 0-1.7 0-3 1.3-3 3s1.3 3 3 3 3-1.3 3-3c0-.2 0-.4-.1-.6l3.8-4.6c.3-.4.3-1 0-1.4-.3-.5-1-.6-1.5-.2z"/></svg>