<?xml version="1.0" encoding="utf-8"?>
<!-- Generator: Adobe Illustrator 22.1.0, SVG Export Plug-In . SVG Version: 6.00 Build 0)  -->
<!DOCTYPE svg PUBLIC "-//W3C//DTD SVG 1.1//EN" "http://www.w3.org/Graphics/SVG/1.1/DTD/svg11.dtd">
<svg version="1.1" xmlns="http://www.w3.org/2000/svg" xmlns:xlink="http://www.w3.org/1999/xlink" x="0px" y="0px" width="64px"
	 height="64px" viewBox="0 0 64 64" style="enable-background:new 0 0 64 64;" xml:space="preserve">
<style type="text/css">
	.st0{fill:none;}
</style>
<g id="Box">
	<rect class="st0" width="64" height="64"/>
</g>
<g id="Icon">
	<g>
		<g>
			<path d="M41.1,19.6c-1.8-2.9-4.3-5-5.4-5.8c-0.3-0.3-0.8-0.4-1.2-0.3c-1.6,0.3-6,1.4-10.4,4.2c-0.4,0.3-0.6,0.8-0.4,1.2l1,3.2
				c-4.1,2.3-6.9,5.1-9.8,5.1c-4.9-5.2-9.6-7.3-11-6.4C2,22,8,28.5,8,31.3c0,2.8-6,9.3-4.1,10.5c1.4,0.9,6.1-1.2,11-6.4
				c2.5,0,4.8,2.7,8.2,4.5c0,0,5-2.3,5.8-2.7c0.6-0.3,0.8-0.1,0.9,0c0,0-6.7,5.3-7.5,6c-0.7,0.6-0.4,1.2,0.3,1.6
				c1.3,0.7,6.4,1.9,11.4-1.7c1.6,0.3,3.2,0.3,5.1,0.3c14,0,20.8-9.6,20.8-12.2C59.8,29.2,53.2,20.4,41.1,19.6z M48.5,31.7
				c-1.1,0-2.2-1.1-2.2-2.2s1.1-2.2,2.2-2.2s2.2,1.1,2.2,2.2S49.6,31.7,48.5,31.7z"/>
		</g>
	</g>
</g>
</svg>
