<svg enable-background="new 0 0 64 64" height="64" viewBox="0 0 64 64" width="64" xmlns="http://www.w3.org/2000/svg"><path d="m0 0h64v64h-64z" fill="none"/><path d="m41.1 19.6c-1.8-2.9-4.3-5-5.4-5.8-.3-.3-.8-.4-1.2-.3-1.6.3-6 1.4-10.4 4.2-.4.3-.6.8-.4 1.2l1 3.2c-4.1 2.3-6.9 5.1-9.8 5.1-4.9-5.2-9.6-7.3-11-6.4-1.9 1.2 4.1 7.7 4.1 10.5s-6 9.3-4.1 10.5c1.4.9 6.1-1.2 11-6.4 2.5 0 4.8 2.7 8.2 4.5 0 0 5-2.3 5.8-2.7.6-.3.8-.1.9 0 0 0-6.7 5.3-7.5 6-.7.6-.4 1.2.3 1.6 1.3.7 6.4 1.9 11.4-1.7 1.6.3 3.2.3 5.1.3 14 0 20.8-9.6 20.8-12.2-.1-2-6.7-10.8-18.8-11.6zm7.4 12.1c-1.1 0-2.2-1.1-2.2-2.2s1.1-2.2 2.2-2.2 2.2 1.1 2.2 2.2-1.1 2.2-2.2 2.2z"/></svg>