<svg height="64" viewBox="0 0 64 64" width="64" xmlns="http://www.w3.org/2000/svg"><path d="m0 0h64v64h-64z" fill="none"/><path d="m52.8118 19.7614c.4438-2.1928.9085-4.0128 2.9882-4.8375 2.1136-.8381 5.0799-1.5598 5.0773-4.9385-.0009-1.0945-.8954-1.9853-1.9898-1.9854h-2.4637c-1.8163 0-2.6048-.3496-3.2083-.7484-2.3938-1.5822-4.6806-1.4539-6.6627-.4852-1.9346.9454-3.3706 2.7379-4.4138 4.6938-1.7403 3.2631-4.2057 8.7014-5.4384 11.2393s-2.8279 3.408-4.8583 4.0606c-2.0303.6526-1.5227.4351-8.4838 2.3929s-14.3573 3.0455-18.998 9.8616c-3.8784 5.6964-1.7347 13.0173-.8001 15.5503.1971.5343.8356.7438 1.3159.4377 1.2022-.7661 2.0222-1.9208 2.0222-1.9208.8785 1.8516 2.0926 2.9418 2.8864 3.502.4447.3138 1.0481.1797 1.3321-.2845 3.856-6.3054-1.028-13.7316-1.028-13.7316.0798-.156.3076-.0887.5035.0559 1.9177 1.4154 3.5951 5.2514 3.5951 5.2514 5.25 2.75 12.625 1.75 12.625 1.75 4.2064-6.5854 8.2789-9.7176 9.6884-10.5627.2371-.1422.4428-.1155.4897.0248-5.949 5.8935-8.1893 12.1707-8.9106 14.7782-.1686.6096.3683 1.163.9905 1.0492 6.9674-1.2742 11.7035-5.5007 13.5641-7.4413.5681-.5926 1.4183-.8191 2.2061-.5886 6.405 1.8745 10.3483 2.0356 12.0233 1.984.4894-.0151.8108-.519.6135-.9672-1.2653-2.8733-5.0787-5.351-7.004-6.7101-1.4016-.9894-1.5452-2.2441-1.2048-3.9257zm-4.3118-7.7614c-.8284 0-1.5-.6716-1.5-1.5s.6716-1.5 1.5-1.5 1.5.6716 1.5 1.5-.6716 1.5-1.5 1.5z"/></svg>