<svg height="64" viewBox="0 0 64 64" width="64" xmlns="http://www.w3.org/2000/svg"><path d="m0 0h64v64h-64z" fill="none"/><path d="m25.3321 6.1345-2.0177 5.8167c-1.5646.4527-3.052 1.08-4.4418 1.8659l-5.5687-2.7003c-.6468-.3137-1.4213-.1831-1.9295.3251-1.8 1.8001-1.1346 1.1346-2.9326 2.9326-.5082.5082-.6388 1.2827-.3251 1.9295l2.7253 5.6202c-.751 1.3627-1.3406 2.8227-1.774 4.3497l-5.9335 2.0582c-.6792.2356-1.1345.8755-1.1345 1.5943v4.1472c0 .7188.4553 1.3587 1.1345 1.5943l5.9493 2.0637c.4348 1.5144 1.0258 2.9611 1.7733 4.3132l-2.7404 5.6513c-.3137.6468-.1831 1.4213.3251 1.9295 1.8001 1.8 1.1346 1.1346 2.9326 2.9326.5082.5082 1.2827.6388 1.9295.3251l5.6199-2.7251c1.3686.7687 2.832 1.3828 4.3694 1.8294l2.0389 5.8779c.2356.6792.8755 1.1345 1.5943 1.1345h3.0736v-18.8266c-.3284.0398-.6608.0666-1 .0666-4.5508 0-8.24-3.6891-8.24-8.24s3.6891-8.24 8.24-8.24c.3392 0 .6716.0268 1 .0666v-18.8266c-1.0243 0-1.9494 0-3.0736 0-.7188 0-1.3587.4553-1.5943 1.1345z"/><path d="m56.4597 18.2619c-.9368 1.3607-2.035 2.1028-2.5842 2.4344-.3743.2261-.5553.1334-.625.0277.5175-.9286 1.545-1.9612 1.8037-4.1695.5469-4.6689-2.7309-7.6347-7.046-6.7027-2.202.4755-3.1174 1.6548-3.9827 2.2869-.11-.0599-.219-.2343-.0375-.638.3029-.6736 1.0467-2.1241 2.6442-3.3198-2.0998-2.5516-5.3422-3.8409-8.3787-3.0182-1.8707.5068-3.3339 1.7326-4.2535 3.3427v16.5745c1.137-1.3279 2.8383-2.157 4.2604-2.3041.4833-.05.85-.05.8081.2855-3.8585 2.1403-5.0526 6.2694-5.0526 9.6201 0 0-.0085-.0154-.0159-.0287v3.4125c2.7195-.9948 6.6523.5735 7.4603 4.2599.1595.728-.1895.7773-.1895.7773-.0007-.0196-.7006-1.5947-2.4891-2.5005-1.547-.7835-3.2694-.7393-4.7818-.0375v16.9331c.9218 1.6047 2.387 2.8242 4.2535 3.3298 3.2304.8752 7.3005-.3219 9.3547-4.4847-1.6866-.7966-2.5984-1.925-2.9814-2.454-.2289-.3162-.1509-.4777-.0554-.5428.8576.3952 1.8273 1.1967 3.7447 1.3754 5.3935.5027 9.2785-4.3926 7.5309-8.8385-.5915-1.5048-1.5737-2.1742-2.1412-2.8269.0508-.0983.2086-.2005.5944-.0596.481.1757 1.3794.552 2.3003 1.2874 3.8477-1.9865 5.5184-7.1115 2.923-11.8442 3.2212-4.9393 1.1661-10.4082-3.0637-12.1775zm-18.884-3.7363c.1496-.3161.3948-.5866.5424-.4489-.0057 1.5189 1.3575 4.7581 6.0538 3.4775 1.436-.3975 2.5232-1.0786 3.8069-1.9644.1677.0311.176.21.0157.4925-.8182 1.4423-2.2335 3.397-5.8046 3.6405-4.1617.3227-5.6461-3.0164-4.6142-5.1972zm3.7179 17.9331c-1.644-1.2926-1.5016-5.3531 1.3011-6.9296 1.59-.8944 3.8758-.2982 5.5991.1456 2.6202.6747 4.4614.6252 6.6873-.3674.1786.335-.0214.6517-.2714.935-1.2223 1.3853-3.705 1.7718-5.788 1.5767-2.5236-.2364-3.2969-1.0359-5.2844-.1415-2.5067 1.1281-1.5673 4.8135-1.5451 4.8554-.1819.3091-.4844.0941-.6986-.0742zm8.3018 14.8819c-.3134-.7933-1.3-1.816-2.7258-2.1866-1.4886-.3867-3.3753-.0684-4.9788 1.0889-2.799 2.0198-2.6901 4.5175-2.6911 4.5413 0 0-.4391.1696-.4559-.6763-.0284-1.4266.5886-4.3583 2.4884-5.7824 3.765-2.8222 8.3582-1.0955 8.6945 2.0992.0666.6333-.0334.95-.3313.9159zm6.7083-9.8518c-2.1619-2.5216-4.9835-3.7319-7.5697-2.037-1.7897 1.1729-2.9113 3.4847-2.9097 3.5055 0 0-.3239.0415-.2475-.6321.1077-.9494.7598-2.842 2.0525-4.1174 2.7535-2.7166 7.7401-1.7885 8.7137 2.3842.1167.4998.2.7331-.0393.8968z"/></svg>