<svg height="64" viewBox="0 0 64 64" width="64" xmlns="http://www.w3.org/2000/svg"><path d="m0 0h64v64h-64z" fill="none"/><path d="m8 36h48v23h-48z"/><path d="m60.1096 12.639c-.2548-.4919-.9606-.5038-1.2568-.0356-.8784 1.3886-1.7468 2.7015-2.2684 3.3319-.8043.9725-2.1463 2.823-3.6861 1.9149l-4.538-2.6729c-1.5397-.9078-.701-3.0856-.238-4.2621.3118-.7933 1.0175-2.3139 1.7578-3.8646.2269-.4756-.1118-1.0385-.6387-1.0489-3.2225-.064-5.9056 1.6526-7.7985 4.8663-3.5864 6.0849-.9241 10.8487 5.7201 14.3248-.0272.1326-.174.2346-.4695.2015-.5533-.0619-2.8502-.4102-5.8879-2.2127l-6.3751 10.8184h10.989l4.62-7.8397c3.9332.7454 7.194-.9703 9.387-4.6938 1.8147-3.0768 2.0833-6.1253.6831-8.8275z"/><path d="m12.654 23.7368 8.2644-3.0556s.1616.248-.1021.4517l-3.5162 2.8438 3.7232 10.0233h9.6009l-5.5289-14.8845 4.6871-1.741c.5177-.1923.7815-.7679.5892-1.2856-2.057-5.538-1.5396-4.1448-3.1339-8.4368-.1923-.5177-.7679-.7815-1.2856-.5892l-17.1284 6.3623c-.2253.0837-.4129.2457-.5285.4564l-3.3076 6.0291c-.2932.5343-.0443 1.2043.5266 1.4177l6.4415 2.4077c.2251.0842.4729.0844.6983.0007z"/></svg>