<?xml version="1.0" encoding="utf-8"?>
<!-- Generator: Adobe Illustrator 19.1.0, SVG Export Plug-In . SVG Version: 6.00 Build 0)  -->
<svg version="1.2" baseProfile="tiny" xmlns="http://www.w3.org/2000/svg" xmlns:xlink="http://www.w3.org/1999/xlink" x="0px"
	 y="0px" width="64px" height="64px" viewBox="0 0 64 64" xml:space="preserve">
<g id="_x36_4px_Box">
	<rect fill="none" width="64" height="64"/>
</g>
<g id="Icon">
	<g>
		<rect x="8" y="36" width="48" height="23"/>
		<path d="M60.1096,12.639c-0.2548-0.4919-0.9606-0.5038-1.2568-0.0356c-0.8784,1.3886-1.7468,2.7015-2.2684,3.3319
			c-0.8043,0.9725-2.1463,2.823-3.6861,1.9149l-4.538-2.6729c-1.5397-0.9078-0.701-3.0856-0.238-4.2621
			c0.3118-0.7933,1.0175-2.3139,1.7578-3.8646c0.2269-0.4756-0.1118-1.0385-0.6387-1.0489
			c-3.2225-0.064-5.9056,1.6526-7.7985,4.8663c-3.5864,6.0849-0.9241,10.8487,5.7201,14.3248
			c-0.0272,0.1326-0.174,0.2346-0.4695,0.2015c-0.5533-0.0619-2.8502-0.4102-5.8879-2.2127L34.4305,34h10.989l4.62-7.8397
			c3.9332,0.7454,7.194-0.9703,9.387-4.6938C61.2412,18.3897,61.5098,15.3412,60.1096,12.639z"/>
		<path d="M12.654,23.7368l8.2644-3.0556c0,0,0.1616,0.248-0.1021,0.4517l-3.5162,2.8438L21.0233,34h9.6009l-5.5289-14.8845
			l4.6871-1.741c0.5177-0.1923,0.7815-0.7679,0.5892-1.2856c-2.057-5.538-1.5396-4.1448-3.1339-8.4368
			c-0.1923-0.5177-0.7679-0.7815-1.2856-0.5892L8.8237,13.4252c-0.2253,0.0837-0.4129,0.2457-0.5285,0.4564l-3.3076,6.0291
			c-0.2932,0.5343-0.0443,1.2043,0.5266,1.4177l6.4415,2.4077C12.1808,23.8203,12.4286,23.8205,12.654,23.7368z"/>
	</g>
</g>
</svg>
