<svg height="64" viewBox="0 0 64 64" width="64" xmlns="http://www.w3.org/2000/svg"><path d="m0 0h64v64h-64z" fill="none"/><path d="m55.5859 47.4033-18.9926-18.9931c-3.3457 3.774-6.4345 4.9076-7.0793 5.1156-.2831.0913-.4472.0208-.5003-.1036.6004-.4884 1.1999-1.0109 1.7959-1.6068 6.6797-6.6797 6.5488-13.7158.8525-19.4121-3.6206-3.6225-7.7775-4.9831-12.0398-3.7913-.6969.1949-.9539 1.0596-.4888 1.6139 1.5168 1.8075 2.9772 3.5867 3.6644 4.5344 1.0195 1.4052 2.8828 4.0126 1.1474 5.7485l-5.1152 5.1123c-1.7354 1.7363-4.1553-.2632-5.5586-1.2798-.9099-.659-2.5155-2.1062-4.1604-3.6507-.5546-.5207-1.4888-.2625-1.6587.479-.9334 4.0738.4707 8.0345 3.9402 11.5018 4.1948 4.1973 9.1194 5.3584 14.0928 3.0164l20.9082 20.9079c2.4472 2.4473 5.3369 1.0186 7.7744-1.4209 2.4375-2.4351 3.8662-5.3232 1.4179-7.7715zm-6.0859 5.6717c-1.4224 0-2.575-1.1528-2.575-2.575 0-1.4224 1.1526-2.575 2.575-2.575s2.575 1.1526 2.575 2.575c0 1.4222-1.1526 2.575-2.575 2.575z"/></svg>