<?xml version="1.0" encoding="utf-8"?>
<!-- Generator: Adobe Illustrator 17.1.0, SVG Export Plug-In . SVG Version: 6.00 Build 0)  -->
<svg version="1.2" baseProfile="tiny" xmlns="http://www.w3.org/2000/svg" xmlns:xlink="http://www.w3.org/1999/xlink" x="0px"
	 y="0px" width="64px" height="64px" viewBox="0 0 64 64" xml:space="preserve">
<g id="_x36_4px_Box">
	<rect fill="none" width="64" height="64"/>
</g>
<g id="Label" display="none">
</g>
<g id="Production">
	<g>
		<path d="M55.887,41.1429c-5.2083-5.2083-10.3961-3.4984-15.2961,1.9162c-0.0033,0.0042-0.0072,0.0083-0.0105,0.0125
			c-0.0011-0.0005-0.0013-0.0023-0.0024-0.0028c-0.1197-0.0606-0.1804-0.2272-0.0753-0.5033c0.198-0.5197,1.107-2.651,3.6044-5.1367
			L26.6165,19.9356c-2.4902,2.5051-4.627,3.4168-5.1472,3.6151c-0.2779,0.1059-0.4455,0.0439-0.505-0.0776
			c5.5634-5.0276,6.9495-10.3058,1.9551-15.3003c-2.6366-2.638-5.6638-3.6289-8.7678-2.7609
			c-0.5075,0.1419-0.6947,0.7715-0.356,1.1753c1.1046,1.3162,2.1682,2.6119,2.6686,3.302c0.7425,1.0233,2.0993,2.9221,0.8356,4.1862
			l-3.7251,3.723c-1.2637,1.2644-3.026-0.1916-4.0479-0.932c-0.6627-0.4799-1.8319-1.5338-3.0298-2.6586
			c-0.4039-0.3792-1.0842-0.1911-1.2079,0.3489c-0.6797,2.9666,0.3428,5.851,2.8694,8.376
			c3.0547,3.0566,6.641,3.9021,10.2628,2.1967L38.9305,45.641c-1.7055,3.6218-0.86,7.208,2.1966,10.2628
			c2.525,2.5266,5.4094,3.5491,8.376,2.8694c0.54-0.1237,0.7281-0.804,0.3489-1.2079c-1.1248-1.1979-2.1787-2.3671-2.6586-3.0298
			c-0.7404-1.0219-2.1964-2.7842-0.9319-4.0479l3.723-3.7251c1.2641-1.2637,3.1629,0.0932,4.1862,0.8356
			c0.6901,0.5004,1.9858,1.564,3.302,2.6686c0.4037,0.3387,1.0334,0.1515,1.1753-0.356
			C59.5159,46.8067,58.525,43.7795,55.887,41.1429z"/>
		<path d="M17.5953,38.6257c-5.404,5.4039-10.6059,12.4855-9.877,15.838L5.17,57.0117c-0.4551,0.4551-0.4551,1.1924-0.0005,1.647
			C5.3971,58.8862,5.6949,59,5.9933,59c0.2979,0,0.5962-0.1138,0.8237-0.3408l2.5519-2.5519
			c3.3684,0.7125,10.5149-4.5545,15.8342-9.8738c1.262-1.262,3.3149-3.3149,5.7969-5.7969l-7.608-7.6077
			C20.9215,35.2995,18.8707,37.3503,17.5953,38.6257z"/>
		<path d="M31.9686,19.6998c0.2836,0,0.5675-0.1083,0.7841-0.3244l9.3451-9.3451c0.5075-0.5085,1.2451-1.1028,2.0018-1.0495
			c0.4942,0.0348,0.8151,0.297,1.1407,0.6214c0.3165,0.3154,0.7743,0.8272,0.7743,0.8272s-9.7825,9.7825-13.0428,13.0428
			l7.608,7.6076c3.2596-3.2596,14.5151-14.5151,14.5151-14.5151c0.8403-0.8403,0.366-1.822-0.4743-2.6624l-3.0616-3.0845
			c0.0358-0.0692,0.1935-0.2936,0.5682-0.0773l3.625,2.0302l2.2241-2.2241c1.2605-1.2605,0.4924-2.5361-0.7681-3.7966
			c-1.2605-1.2606-2.5361-2.0286-3.7966-0.7681L50.056,9.3375c-0.0435-0.0435-2.2495-2.2256-2.2495-2.2256
			c-1.3639-1.2595-3.9705-2.0068-6.9781,1.0513l-9.644,9.644c-0.4327,0.4332-0.4327,1.135,0,1.5682
			C31.4011,19.5915,31.6851,19.6998,31.9686,19.6998z"/>
	</g>
</g>
</svg>
