<svg height="64" viewBox="0 0 64 64" width="64" xmlns="http://www.w3.org/2000/svg"><path d="m0 0h64v64h-64z" fill="none"/><path d="m55.887 41.1429c-5.2083-5.2083-10.3961-3.4984-15.2961 1.9162-.0033.0042-.0072.0083-.0105.0125-.0011-.0005-.0013-.0023-.0024-.0028-.1197-.0606-.1804-.2272-.0753-.5033.198-.5197 1.107-2.651 3.6044-5.1367l-17.4906-17.4932c-2.4902 2.5051-4.627 3.4168-5.1472 3.6151-.2779.1059-.4455.0439-.505-.0776 5.5634-5.0276 6.9495-10.3058 1.9551-15.3003-2.6366-2.638-5.6638-3.6289-8.7678-2.7609-.5075.1419-.6947.7715-.356 1.1753 1.1046 1.3162 2.1682 2.6119 2.6686 3.302.7425 1.0233 2.0993 2.9221.8356 4.1862l-3.7251 3.723c-1.2637 1.2644-3.026-.1916-4.0479-.932-.6627-.4799-1.8319-1.5338-3.0298-2.6586-.4039-.3792-1.0842-.1911-1.2079.3489-.6797 2.9666.3428 5.851 2.8694 8.376 3.0547 3.0566 6.641 3.9021 10.2628 2.1967l20.5092 20.5116c-1.7055 3.6218-.86 7.208 2.1966 10.2628 2.525 2.5266 5.4094 3.5491 8.376 2.8694.54-.1237.7281-.804.3489-1.2079-1.1248-1.1979-2.1787-2.3671-2.6586-3.0298-.7404-1.0219-2.1964-2.7842-.9319-4.0479l3.723-3.7251c1.2641-1.2637 3.1629.0932 4.1862.8356.6901.5004 1.9858 1.564 3.302 2.6686.4037.3387 1.0334.1515 1.1753-.356.8679-3.104-.123-6.1312-2.761-8.7678z"/><path d="m17.5953 38.6257c-5.404 5.4039-10.6059 12.4855-9.877 15.838l-2.5483 2.548c-.4551.4551-.4551 1.1924-.0005 1.647.2276.2275.5254.3413.8238.3413.2979 0 .5962-.1138.8237-.3408l2.5519-2.5519c3.3684.7125 10.5149-4.5545 15.8342-9.8738 1.262-1.262 3.3149-3.3149 5.7969-5.7969l-7.608-7.6077c-2.4705 2.4706-4.5213 4.5214-5.7967 5.7968z"/><path d="m31.9686 19.6998c.2836 0 .5675-.1083.7841-.3244l9.3451-9.3451c.5075-.5085 1.2451-1.1028 2.0018-1.0495.4942.0348.8151.297 1.1407.6214.3165.3154.7743.8272.7743.8272s-9.7825 9.7825-13.0428 13.0428l7.608 7.6076c3.2596-3.2596 14.5151-14.5151 14.5151-14.5151.8403-.8403.366-1.822-.4743-2.6624l-3.0616-3.0845c.0358-.0692.1935-.2936.5682-.0773l3.625 2.0302 2.2241-2.2241c1.2605-1.2605.4924-2.5361-.7681-3.7966-1.2605-1.2606-2.5361-2.0286-3.7966-.7681l-3.3556 3.3556c-.0435-.0435-2.2495-2.2256-2.2495-2.2256-1.3639-1.2595-3.9705-2.0068-6.9781 1.0513l-9.644 9.644c-.4327.4332-.4327 1.135 0 1.5682.2167.2161.5007.3244.7842.3244z"/></svg>