<?xml version="1.0" encoding="utf-8"?>
<!-- Generator: Adobe Illustrator 21.0.2, SVG Export Plug-In . SVG Version: 6.00 Build 0)  -->
<!DOCTYPE svg PUBLIC "-//W3C//DTD SVG 1.1//EN" "http://www.w3.org/Graphics/SVG/1.1/DTD/svg11.dtd">
<svg version="1.1" xmlns="http://www.w3.org/2000/svg" xmlns:xlink="http://www.w3.org/1999/xlink" x="0px" y="0px" width="64px"
	 height="64px" viewBox="0 0 64 64" style="enable-background:new 0 0 64 64;" xml:space="preserve">
<style type="text/css">
	.st0{fill:none;}
</style>
<g id="_x36_4px_Box">
	<rect class="st0" width="64" height="64"/>
</g>
<g id="Icon">
	<g>
		<g>
			<path d="M22.8,30c-0.3,0-0.6,0-0.9,0v-2.1H27V25h-8v7.9c0.9-0.1,1.8-0.2,2.8-0.2c1.6,0,2.4,0.5,2.4,1.5c0,2.1-3.5,1.9-5.2,1.9
				v2.8h1.9c3.9,0,6.7-1.9,6.7-5C27.6,31.3,25.7,30,22.8,30z M48,31.8c-0.4-3.2-1.5-6.2-3-8.9l3.1-3.1c0.8-0.8,0.8-2,0-2.8L41,9.9
				c-0.8-0.8-2-0.8-2.8,0l-1.6,1.6c1.8,1.8,3.7,4.2,4.2,5.2c0.2,0.3,0.1,0.5,0,0.6C36.2,12.8,29.9,10,23,10C10.8,10,1,19.8,1,32v0
				c0,12.2,9.8,22,22,22h25.7c1.2,0,2.1-1.1,2-2.3L48,31.8z M23,44c-6.6,0-12-5.4-12-12c0-6.6,5.4-12,12-12s12,5.4,12,12
				C35,38.6,29.6,44,23,44z M52.1,46l0.5,4H61v7h2V46H52.1z"/>
		</g>
	</g>
</g>
</svg>
