<?xml version="1.0" encoding="utf-8"?>
<!-- Generator: Adobe Illustrator 19.1.0, SVG Export Plug-In . SVG Version: 6.00 Build 0)  -->
<svg version="1.2" baseProfile="tiny" xmlns="http://www.w3.org/2000/svg" xmlns:xlink="http://www.w3.org/1999/xlink" x="0px"
	 y="0px" width="64px" height="64px" viewBox="0 0 64 64" xml:space="preserve">
<g id="_x36_4px_Box">
	<rect fill="none" width="64" height="64"/>
</g>
<g id="Icon">
	<g>
		<g>
			<path d="M40.1596,36.283l-4.2074-1.4595c-0.3391-1.2149-0.8171-2.3694-1.4259-3.4437l1.9428-4.0067
				c0.2324-0.4791,0.1356-1.0527-0.2408-1.4293c-1.3334-1.3334-0.8405-0.8404-2.1722-2.1723
				c-0.3765-0.3764-0.9502-0.4731-1.4293-0.2408l-4.0299,1.9542c-1.0623-0.5927-2.2042-1.0541-3.402-1.3843l-1.4778-4.2603
				C23.5425,19.3373,23.0685,19,22.536,19c-1.1116,0-1.9604,0-3.072,0c-0.5325,0-1.0065,0.3373-1.181,0.8404l-1.4946,4.3086
				c-1.1589,0.3353-2.2607,0.8-3.2902,1.3821l-4.125-2.0002c-0.4791-0.2324-1.0528-0.1356-1.4293,0.2408
				c-1.3334,1.3334-0.8404,0.8405-2.1723,2.1723c-0.3764,0.3765-0.4731,0.9502-0.2408,1.4293l2.0187,4.1631
				c-0.5563,1.0095-0.9931,2.0909-1.3141,3.2221L1.8403,36.283C1.3372,36.4575,1,36.9315,1,37.464C1,38.0198,1,38.5099,1,39
				s0,0.9802,0,1.536c0,0.5325,0.3373,1.0065,0.8404,1.181l4.2074,1.4595c0.3391,1.2149,0.8171,2.3694,1.4259,3.4437l-1.9428,4.0067
				c-0.2324,0.4791-0.1356,1.0527,0.2408,1.4293c1.3334,1.3334,0.8405,0.8404,2.1722,2.1723
				c0.3765,0.3764,0.9502,0.4731,1.4293,0.2408l4.0299-1.9542c1.0623,0.5927,2.2042,1.0541,3.402,1.3843l1.4778,4.2603
				C18.4575,58.6627,18.9315,59,19.464,59c1.1116,0,1.9604,0,3.072,0c0.5325,0,1.0065-0.3373,1.181-0.8404l1.4946-4.3086
				c1.1589-0.3353,2.2607-0.8,3.2902-1.3821l4.125,2.0002c0.4791,0.2324,1.0528,0.1356,1.4293-0.2408
				c1.3334-1.3334,0.8404-0.8405,2.1723-2.1723c0.3764-0.3765,0.4731-0.9502,0.2408-1.4293l-2.0187-4.1631
				c0.5563-1.0095,0.9931-2.0909,1.3141-3.2221l4.3952-1.5245C40.6628,41.5425,41,41.0685,41,40.536c0-0.5558,0-1.0459,0-1.536
				s0-0.9802,0-1.536C41,36.9315,40.6627,36.4575,40.1596,36.283z M21,45.1037c-3.371,0-6.1037-2.7327-6.1037-6.1037
				S17.629,32.8963,21,32.8963S27.1037,35.629,27.1037,39S24.371,45.1037,21,45.1037z"/>
		</g>
		<g>
			<path d="M62.4117,18.0981l-2.9452-1.0217c-0.2373-0.8504-0.572-1.6586-0.9982-2.4106l1.36-2.8046
				c0.1627-0.3354,0.095-0.7369-0.1686-1.0005c-0.9333-0.9333-0.5884-0.5883-1.5206-1.5206
				c-0.2635-0.2635-0.6651-0.3312-1.0005-0.1685l-2.8209,1.3679c-0.7436-0.4149-1.543-0.7379-2.3814-0.9691l-1.0345-2.9822
				C50.7797,6.2361,50.4479,6,50.0752,6c-0.7781,0-1.3723,0-2.1504,0c-0.3727,0-0.7045,0.2361-0.8267,0.5883l-1.0463,3.0161
				c-0.8112,0.2347-1.5825,0.56-2.3031,0.9675l-2.8875-1.4001c-0.3354-0.1627-0.737-0.095-1.0005,0.1685
				c-0.9333,0.9334-0.5883,0.5884-1.5206,1.5206c-0.2635,0.2635-0.3312,0.6651-0.1685,1.0005l1.4131,2.9142
				c-0.3894,0.7067-0.6952,1.4636-0.9199,2.2555l-3.0766,1.0672C35.2361,18.2203,35,18.5521,35,18.9248c0,0.3891,0,0.7321,0,1.0752
				s0,0.6861,0,1.0752c0,0.3727,0.2361,0.7045,0.5883,0.8267l2.9452,1.0217c0.2373,0.8504,0.572,1.6586,0.9982,2.4106l-1.36,2.8046
				c-0.1627,0.3354-0.095,0.7369,0.1686,1.0005c0.9333,0.9333,0.5884,0.5883,1.5206,1.5206
				c0.2635,0.2635,0.6651,0.3312,1.0005,0.1685l2.8209-1.3679c0.7436,0.4149,1.543,0.7379,2.3814,0.9691l1.0345,2.9822
				C47.2203,33.7639,47.5521,34,47.9248,34c0.7781,0,1.3723,0,2.1504,0c0.3727,0,0.7045-0.2361,0.8267-0.5883l1.0463-3.0161
				c0.8112-0.2347,1.5825-0.56,2.3031-0.9675l2.8875,1.4001c0.3354,0.1627,0.737,0.095,1.0005-0.1685
				c0.9333-0.9334,0.5883-0.5884,1.5206-1.5206c0.2635-0.2635,0.3312-0.6651,0.1685-1.0005l-1.4131-2.9142
				c0.3894-0.7067,0.6952-1.4636,0.9199-2.2555l3.0766-1.0672C62.7639,21.7797,63,21.4479,63,21.0752c0-0.3891,0-0.7321,0-1.0752
				s0-0.6861,0-1.0752C63,18.5521,62.7639,18.2203,62.4117,18.0981z M49,24.2726c-2.3597,0-4.2726-1.9129-4.2726-4.2726
				S46.6403,15.7274,49,15.7274S53.2726,17.6403,53.2726,20S51.3597,24.2726,49,24.2726z"/>
		</g>
	</g>
</g>
</svg>
