<svg height="64" viewBox="0 0 64 64" width="64" xmlns="http://www.w3.org/2000/svg"><path d="m0 0h64v64h-64z" fill="none"/><path d="m46.5879 32.8701c3.9426-1.8226 8.495-.6968 11.1912 2.4459-1.0886-16.1316-3.7897-28.3056-5.9358-33.8528-.1437-.3715-.6279-.4529-.8811-.1454-1.4483 1.759-5.2334 7.2148-5.9573 16.9039-.3983 5.3313.3203 10.5939 1.2441 14.805zm6.8906-16.8063c.5914 3.3288 1.1295 7.0328 1.5714 11.0496-.8424-.765-1.5486-1.7078-2.056-2.8058-1.2741-2.7571-.9901-5.834.4846-8.2438z"/><path d="m18.4473 45.875 4.802-2.2192c.0344-.1629.0366-.3312-.0113-.4916l-.9456-3.1646 2.2756-1.8597c.3126-.2555.4409-.6738.3253-1.0606l-.8414-2.8159 2.2757-1.8597c.3126-.2554.4409-.6738.3253-1.0606l-.8414-2.8159 2.2756-1.8597c.3126-.2554.4409-.6738.3254-1.0606l-.8414-2.8159 2.2756-1.8597c.3126-.2554.4409-.6738.3253-1.0606l-1.6741-5.6024c-.1247-.4174-.4497-.7448-.8661-.8725-.6879-.2111-1.4166.1755-1.6276.8634l-8.1434 26.5476c-.0014-.0029-.0031-.0057-.0045-.0085l-1.2228 4.0073c-.0598.0036-.2705-.0122-.2753-.3453-.0037-.2586.3724-3.8541.5413-5.4539-.9402-1.62-2.0756-3.1729-3.4517-4.4568-.2865-.2672-.7491-.0159-.676.3689.3161 1.6627.5864 4.5292-1.2168 4.8451-2.5792.4517-4.3573-3.8403-2.8587-10.9047.074-.3486-.0635-.7127-.3584-.9127l-1.3749-.932c-.2737-.1856-.6439-.0931-.799.199-1.4409 2.7137-3.2015 8.4464-1.399 13.7279 1.7905 5.2465 5.1732 9.0169 8.3823 11.5911.0945-.4424.2098-.8823.3688-1.3145.8765-2.3808 2.6275-4.2782 4.9312-5.3427z"/><path d="m57.381 38.348c-1.7375-3.7601-6.1943-5.3997-9.9543-3.6621l-28.1406 13.004c-3.7601 1.7375-5.3997 6.1943-3.6621 9.9543 1.7376 3.7601 6.1943 5.3997 9.9543 3.6621l28.1407-13.004c3.7601-1.7375 5.3996-6.1942 3.662-9.9543zm-17.6506 9.4817-1.0924-2.364 5.1355-2.1265 2.8809-1.3312.9985 2.1606zm10.7219-4.7363c-.7156.3307-1.4738.1613-1.8545-.6625-.373-.8073-.1349-1.4772.6896-1.8582.7004-.3237 1.4429-.1469 1.8235.6768.3732.8073.1508 1.47-.6586 1.8439z"/></svg>