<svg height="64" viewBox="0 0 64 64" width="64" xmlns="http://www.w3.org/2000/svg"><path d="m0 0h64v64h-64z" fill="none"/><path d="m44.8431 3.0025h-25.6862c-1.3724.0017-1.6962 2.4399-.0207 2.9042.9426.2611 2.0682.5492 2.8638.7494v.3439 44c0 5.5228 4.4772 10 10 10s10-4.4772 10-10v-44-.3439c.7956-.2001 1.9212-.4882 2.8638-.7494 1.6754-.4643 1.3517-2.9025-.0207-2.9042zm-6.8431 19.9975h-10v28s-.0413 2.1266 2.0831 3.5046c1.3794.8948 3.6481 1.4451 5.5021 1.1207.115.1123.0124.2927-.1664.432-.9557.6567-2.1117 1.0427-3.3588 1.0427h-.12c-3.2806 0-5.94-2.6594-5.94-5.94v-44.16h12z"/><circle cx="30" cy="18" r="2"/><circle cx="34" cy="12" r="2"/></svg>