<svg height="64" viewBox="0 0 64 64" width="64" xmlns="http://www.w3.org/2000/svg"><path d="m0 0h64v64h-64z" fill="none"/><path d="m58.1072 8.0065c-.0473-.728-.8305-1.1682-1.4694-.816-1.9508 1.0754-5.8401 2.8095-10.6378 2.8095-6.9543 0-8.7588-4-16.691-4-5.8031 0-12.9094 3.2092-16.309 4.9331v-2.9331h1c1.1046 0 2-.8954 2-2v-1.1938c0-2.3434-3.6538-2.8062-6-2.8062-2.3487 0-6 .4635-6 2.8062v1.1938c0 1.1046.8954 2 2 2h1v55h6c0-15.4663 0-18.3592 0-34.4201.0562-.0209.3068-.0782.3641.2499.0604.346 1.3421 8.5214 1.8895 12.0154 3.7498-1.7207 9.335-3.8452 14.0554-3.8452 7.9323 0 9.7367 4 16.691 4 5.1935 0 10.438-2.1556 12.7609-3.2472.7477-.3514 1.2065-1.1192 1.153-1.9437zm-13.8665 8.431.4336 1.3511h1.4136l-1.1479.8232.4302 1.333-1.1294-.8247-1.1294.8247.4302-1.333-1.1484-.8237 1.4141.0015zm-3.8047-2.02.4316-1.3535.4336 1.3511h1.4146l-1.147.8257.4287 1.3335-1.1279-.8262-1.1304.8252.4287-1.3325-1.146-.8267zm-9.2446-.0015.4331-1.3525.4331 1.3516h1.4136l-1.1465.8247.4287 1.332-1.1284-.8238-1.1289.8237.4287-1.332-1.147-.8252zm-3.3784 3.3867.4331-1.353.4336 1.3516h1.4126l-1.146.8247.4292 1.3325-1.1294-.8242-1.1289.8242.4292-1.3325-1.147-.8252zm-2.6543 4.6094 1.415.0034.4331-1.3545.4331 1.3521h1.4131l-1.1465.8247.4287 1.332-1.1284-.8237-1.1289.8237.4292-1.332zm3.0874 5.9585-1.1294.8257.4297-1.333-1.147-.8247 1.4136.0014.4331-1.353.4336 1.3521h1.4131l-1.1465.8242.4292 1.333zm4.5146 4.2105-1.1289-.8242-1.1289.8242.4287-1.3325-1.1475-.8252 1.4146.002.4321-1.3516.4341 1.3501h1.4131l-1.1465.8247zm3.0489-19.4053.4331-1.3521.4331 1.3506h1.4141l-1.1475.8247.4292 1.3325-1.1289-.8242-1.1289.8242.4292-1.3325-1.1475-.8252zm1.5634 20.6323-1.1294-.8247-1.1289.8242.4287-1.3325-1.1475-.8252 1.4146.002.4326-1.3535.4331 1.3521h1.4141l-1.1475.8247zm4.6124-1.2266-1.1299-.8247-1.1289.8242.4287-1.3325-1.147-.8252 1.4136.002.4336-1.3516.4326 1.3501h1.4141l-1.1475.8247zm2.9545-4.7182.4302 1.3335-1.1294-.8262-1.1294.8262.4302-1.3335-1.1479-.8247 1.4136.0015.4336-1.353.4336 1.3521h1.4131zm1.6553-3.3057-1.1289-.8257-1.1279.8262.4287-1.333-1.1479-.8252 1.4146.0015.4326-1.3525.4336 1.3516h1.4141l-1.1475.8247z"/></svg>