<svg enable-background="new 0 0 64 64" height="64" viewBox="0 0 64 64" width="64" xmlns="http://www.w3.org/2000/svg"><path d="m0 0h64v64h-64z" fill="none"/><path d="m23.5 48c.8 0 1.5-.7 1.5-1.5s-.7-1.5-1.5-1.5-1.5.7-1.5 1.5.7 1.5 1.5 1.5zm35-2.3-2.5-.7c.1-1.3-.1-2.5-.6-3.6l2.8-3.6c.3-.4.3-1.1-.2-1.4l-1.6-1.2c-.4-.3-1.1-.3-1.4.2l-2.5 3.2c-.9-.5-1.8-.8-2.8-.8l-.6-3c-.1-.5-.6-.9-1.2-.8l-2 .4c-.5.1-.9.6-.8 1.2l.6 3c-.6.3-1.2.7-1.7 1.1l-2.5-3.2c-.3-.4-1-.5-1.4-.2l-1.6 1.2c-.4.3-.5 1-.2 1.4l3.1 4c-.4.5-.7.9-1.2 1.1-.3.2-1.2.3-1.9.5l-.6-2.1c-.2-.5-.7-.8-1.2-.7l-1.9.6c-.5.2-.8.7-.7 1.2l.6 2.1c-.5.3-1 .7-1.4 1.1l-3.4-2c-.5-.3-1.1-.1-1.4.4l-1 1.7c-.3.5-.1 1.1.4 1.4l3.8 2.3c-.1.8 0 1.7.3 2.5l-3 1.8c-.5.3-.6.9-.3 1.4l1 1.7c.3.5.9.6 1.4.3l3.2-1.9c.6.5 1.3.9 2.1 1.2.1 0 .2.1.3.1l-.9 4c-.1.5.2 1.1.8 1.2l2 .4c.5.1 1.1-.2 1.2-.8l.9-4.3c1.3 0 2.5-.2 3.7-.5l.8 2.2c.2.5.7.8 1.3.6l1.9-.6c.5-.2.8-.7.6-1.3l-.8-2.2c.2-.1.4-.2.6-.3.8-.4 1.6-1.1 2.4-1.8l3.3 3.1c.4.4 1 .4 1.4 0l1.4-1.5c.4-.4.4-1 0-1.4l-3.4-3.3c.5-.7 1-1.5 1.3-2.3l2.7.7c.5.1 1.1-.2 1.2-.7l.5-1.9c0-.5-.4-1.1-.9-1.2zm-6.5-.9c-.4 2.8-3.2 6.4-5.4 7.7-2.3 1.3-6.4 2.1-9 1.1-1-.4-1.6-.9-1.9-1.7-.7-2 .7-2.9 1.3-3.1.5-.2 1.3-.3 2-.5 1.2-.2 2.4-.4 3.4-1 1.6-1 2.3-2.1 3.4-3.8l.1-.2c.4-.5 1.6-1.6 3.1-1.7.9-.1 1.7.3 2.4 1 .3.3.8.8.6 2.2zm-30 7.2c-2.8 0-5-2.2-5-5 0-7.2.7-15.5 8.8-24h10.3c3.6 3.8 5.8 7.5 7 11.2.4-1 1.2-1.8 2.3-2l1.1-.2c-1.6-4.1-4.1-8.2-8.2-12.3l-.3-.5v-6.2c0-1.1-.9-2-2-2h-2v-4h3c.6 0 1-.4 1-1v-1.5c0-.9-.7-1.8-1.6-2-1.2-.2-3.3-.5-6.4-.5-4.9 0-11.9 1.3-14.2 1.8-.5.1-.8.5-.8 1v1.2c0 .6.4 1 1 1h12v2.8l4.1.8c.3.1.3.3.2.4h-6.3c-1.1 0-2 .9-2 2v6.2l-.4.4c-9.3 9.3-10.6 18.7-10.6 27.4 0 5 4 9 9 9h4.1c-.2-1.2.4-2.5 1.5-3.2l1.4-.8zm1-11.5c0-.8-.7-1.5-1.5-1.5s-1.5.7-1.5 1.5.7 1.5 1.5 1.5 1.5-.7 1.5-1.5zm10.8-5.8c1.3-.8 2.4-1.4 3.8-1.6 1.5-.2 2.5 0 3.1.1-.4-1.1-1-2.1-1.6-3.2-.6 0-1.2 0-1.9.1-2 .2-3.5 1.1-5 2-1.6 1-3 1.8-5.1 1.8-2.7 0-4.6-.8-5.5-1.3-.4.9-.8 1.9-1.1 2.8 1.4.7 3.6 1.5 6.6 1.5 2.9 0 4.9-1.1 6.7-2.2z"/></svg>