<?xml version="1.0" encoding="utf-8"?>
<!-- Generator: Adobe Illustrator 17.1.0, SVG Export Plug-In . SVG Version: 6.00 Build 0)  -->
<svg version="1.2" baseProfile="tiny" xmlns="http://www.w3.org/2000/svg" xmlns:xlink="http://www.w3.org/1999/xlink" x="0px"
	 y="0px" width="64px" height="64px" viewBox="0 0 64 64" xml:space="preserve">
<g id="_x36_4px_Boxes">
	<rect fill="none" width="64" height="64"/>
</g>
<g id="Production">
	<g>
		<path d="M59.2432,13.0314c-0.2614-1.6109-1.4561-2.8366-3.0269-3.1051C51.6758,9.15,44.1079,9.15,42.5947,9.15
			c-1.5136,0-9.0815,0-13.622,0.7764c-1.5705,0.2685-2.7652,1.4942-3.0269,3.1051c-0.2192,1.349-0.3735,2.6546-0.4841,3.8708
			c3.9854,0.0178,10.4531,0.1696,14.6994,0.8957c2.7198,0.4649,4.7671,2.5527,5.2159,5.3189
			c0.873,5.3715,0.873,6.7631,0.873,11.9389c0,0.604-0.001,1.5506-0.0342,2.7375l7.4776,6.0584
			c0.5356,0.3574,1.0473,0.1856,1.3315-0.164c0.2031-0.25,0.2188-0.5625,0.0625-0.9532l-1.9883-5.4416
			c1.1138-0.1008,2.1812-0.2264,3.1172-0.3864c1.5708-0.2686,2.7655-1.4942,3.0269-3.1046C60,29.1436,60,24.9689,60,23.4166
			C60,18.7563,60,17.6885,59.2432,13.0314z"/>
		<path d="M39.7816,20.0156c-5.0625-0.8656-13.5-0.8656-15.1869-0.8656c-1.6875,0-10.125,0-15.187,0.8656
			c-1.7516,0.2993-3.0835,1.6657-3.375,3.4616C5.189,28.6699,5.189,33.3253,5.189,35.0557s0,6.3858,0.8437,11.5782
			c0.2915,1.7958,1.6234,3.1621,3.375,3.4619c0.6626,0.1132,1.3858,0.2104,2.1417,0.2955l3.7623-5.2203
			c0.1966-0.2863,0.3861-0.077,0.3861-0.077l-3.2579,11.4971l-0.0096-0.0046l-0.0521,0.185
			c-0.043,0.248,0.0039,0.5068,0.1474,0.7364c0.3106,0.4942,0.96,0.6405,1.4532,0.3271l11.2514-6.8749
			c2.5724-0.0065,9.9485-0.0777,14.5514-0.8643c1.7511-0.2998,3.083-1.6661,3.3745-3.4619C44,41.4415,44,36.7861,44,35.0557
			c0-5.1952,0-6.3858-0.8439-11.5785C42.8646,21.6813,41.5327,20.3149,39.7816,20.0156z M15.5,38.075
			c-1.4224,0-2.575-1.1528-2.575-2.575c0-1.4224,1.1526-2.575,2.575-2.575s2.575,1.1526,2.575,2.575
			C18.075,36.9222,16.9224,38.075,15.5,38.075z M24.5,38.075c-1.4224,0-2.575-1.1528-2.575-2.575c0-1.4224,1.1526-2.575,2.575-2.575
			s2.575,1.1526,2.575,2.575C27.075,36.9222,25.9224,38.075,24.5,38.075z M33.5,38.075c-1.4224,0-2.575-1.1528-2.575-2.575
			c0-1.4224,1.1526-2.575,2.575-2.575s2.575,1.1526,2.575,2.575C36.075,36.9222,34.9224,38.075,33.5,38.075z"/>
	</g>
</g>
</svg>
