<?xml version="1.0" encoding="utf-8"?>
<!-- Generator: Adobe Illustrator 17.1.0, SVG Export Plug-In . SVG Version: 6.00 Build 0)  -->
<svg version="1.2" baseProfile="tiny" xmlns="http://www.w3.org/2000/svg" xmlns:xlink="http://www.w3.org/1999/xlink" x="0px"
	 y="0px" width="64px" height="64px" viewBox="0 0 64 64" xml:space="preserve">
<g id="Box">
	<rect fill="none" width="64" height="64"/>
</g>
<g id="Icon">
	<g>
		<path d="M58.0933,11.0313c-0.2613-1.6109-1.4561-2.8365-3.0269-3.105C50.5259,7.1499,42.958,7.1499,41.4448,7.1499
			c-1.5136,0-9.0815,0-13.622,0.7764c-1.5704,0.2685-2.7652,1.4941-3.0269,3.105c-0.2192,1.349-0.3735,2.6547-0.4841,3.8708
			c3.9855,0.0178,10.4532,0.1697,14.6994,0.8958c2.7198,0.4648,4.7671,2.5527,5.2159,5.3188c0.873,5.3716,0.873,6.7632,0.873,11.939
			c0,0.604-0.0009,1.5506-0.0341,2.7375l7.4775,6.0584c0.5356,0.3574,1.0473,0.1855,1.3315-0.1641
			c0.2031-0.25,0.2188-0.5625,0.0625-0.9531l-1.9882-5.4417c1.1137-0.1008,2.1811-0.2264,3.1171-0.3864
			c1.5708-0.2686,2.7656-1.4942,3.0269-3.1045c0.7568-4.6582,0.7568-8.833,0.7568-10.3853
			C58.8501,16.7563,58.8501,15.6885,58.0933,11.0313z"/>
		<path d="M38.6318,18.0156c-5.0625-0.8657-13.5-0.8657-15.187-0.8657c-1.6875,0-10.125,0-15.187,0.8657
			c-1.7515,0.2993-3.0835,1.6656-3.375,3.4615c-0.8437,5.1928-0.8437,9.8481-0.8437,11.5786c0,1.7304,0,6.3857,0.8437,11.5781
			c0.2915,1.7959,1.6235,3.1621,3.375,3.4619c0.6626,0.1132,1.3859,0.2104,2.1418,0.2955l3.7484-5.1969
			c0.1966-0.2863,0.3999-0.1004,0.3999-0.1004L11.29,54.5911l-0.0095-0.0046l-0.0522,0.185
			c-0.0429,0.248,0.0039,0.5068,0.1475,0.7363c0.3105,0.4942,0.96,0.6406,1.4531,0.3272l11.2515-6.875
			c2.5724-0.0064,9.9485-0.0777,14.5514-0.8643c1.751-0.2998,3.083-1.666,3.3745-3.4619c0.8438-5.1924,0.8438-9.8477,0.8438-11.5781
			c0-5.1953,0-6.3858-0.8438-11.5786C41.7148,19.6812,40.3828,18.3149,38.6318,18.0156z"/>
	</g>
</g>
</svg>
