<?xml version="1.0" encoding="utf-8"?>
<!-- Generator: Adobe Illustrator 18.1.0, SVG Export Plug-In . SVG Version: 6.00 Build 0)  -->
<svg version="1.2" baseProfile="tiny" xmlns="http://www.w3.org/2000/svg" xmlns:xlink="http://www.w3.org/1999/xlink" x="0px"
	 y="0px" width="64px" height="64px" viewBox="0 0 64 64" xml:space="preserve">
<g id="_x36_4px_Boxes">
	<rect fill="none" width="64" height="64"/>
</g>
<g id="Label">
</g>
<g id="Production">
	<path d="M57.7731,12.0427c-0.4052-2.4962-2.2565-4.3954-4.6911-4.8115c-7.036-1.2032-18.7638-1.2032-21.1094-1.2032
		c-2.3447,0-14.0725,0-21.1092,1.2032c-2.434,0.416-4.2853,2.3152-4.6904,4.8115C5,19.2604,5,20.9153,5,28.1364
		c0,2.4052,0,8.876,1.173,16.0933c0.4052,2.4961,2.2565,4.3952,4.6904,4.812c6.3978,1.0933,16.6503,1.1923,20.2259,1.2013
		l15.639,9.5558c0.6855,0.4357,1.5881,0.2323,2.0198-0.4547c0.1995-0.3191,0.2646-0.6788,0.2049-1.0236l-0.0724-0.2571
		l-0.0134,0.0064L44.339,42.0893c0,0,0.2634-0.291,0.5367,0.107l4.6556,7.3193c1.1935-0.1284,2.5151-0.2971,3.5508-0.474
		c2.4346-0.4167,4.2859-2.3159,4.6911-4.812c1.1727-7.2172,1.1727-13.688,1.1727-16.0933
		C58.9458,25.7313,58.9458,19.2604,57.7731,12.0427z M32.6134,41.2951c-0.3811,0.1995-0.8457,0.1995-1.2268,0
		C16.8785,33.6957,16.4658,20.046,22.6558,17.295C28.9317,14.5056,32,20.5027,32,20.5027s3.0683-5.9971,9.3442-3.2077
		C47.5342,20.046,47.1215,33.6957,32.6134,41.2951z"/>
</g>
</svg>
