<?xml version="1.0" encoding="utf-8"?>
<!-- Generator: Adobe Illustrator 19.1.0, SVG Export Plug-In . SVG Version: 6.00 Build 0)  -->
<svg version="1.2" baseProfile="tiny" xmlns="http://www.w3.org/2000/svg" xmlns:xlink="http://www.w3.org/1999/xlink" x="0px"
	 y="0px" width="64px" height="64px" viewBox="0 0 64 64" xml:space="preserve">
<g id="_x36_4px_Box">
	<rect fill="none" width="64" height="64"/>
</g>
<g id="Icon">
	<g>
		<polygon points="39.54,18.191 43.124,18.191 41.3643,11.7929 		"/>
		<path d="M35.0911,24.8022C30.4,24,22.5815,24,21.0183,24c-1.5637,0-9.3823,0-14.073,0.8022
			c-1.6229,0.2773-2.8572,1.5434-3.1273,3.2076c-0.7819,4.8118-0.7819,9.1256-0.7819,10.7292c0,1.6035,0,5.9172,0.7819,10.7287
			c0.2701,1.6642,1.5044,2.9301,3.1273,3.2079c0.614,0.1049,1.2843,0.1949,1.9847,0.2738l3.4735-4.8156
			c0.1821-0.2653,0.3705-0.0931,0.3705-0.0931l-2.7028,10.6538l-0.0088-0.0043l-0.0483,0.1714
			c-0.0398,0.2299,0.0037,0.4697,0.1367,0.6823c0.2877,0.4579,0.8895,0.5936,1.3464,0.3032l10.1099-6.3707
			c2.3838-0.0059,9.2188-0.072,13.4839-0.8009c1.6226-0.2778,2.8569-1.5438,3.127-3.2079C39,44.6562,39,40.3424,39,38.739
			c0-4.8142,0-5.9174-0.782-10.7292C37.948,26.3456,36.7136,25.0795,35.0911,24.8022z M25.6781,42.8281
			c-1.1338,1.2515-2.7679,1.9204-4.5385,1.9341l-0.0234-3.0244c0.9404-0.0073,1.6455-0.3062,2.2197-0.9399
			c1.2461-1.377,1.5674-3.98,1.5957-5.7534h-3.317c-0.6907,3.1125-2.3754,6.9625-6.4291,9.6299l-1.6621-2.5264
			c2.9341-1.9313,4.3151-4.7056,4.9653-7.1035H14V32h5.0071c0.0813-1.1161,0.0208-2.6862,0.0183-2.71L22.0371,29
			c0.0107,0.1108,0.0764,1.7747,0.0042,3h5.8341l0.126,1.3945C28.0599,34.0327,28.4916,39.7212,25.6781,42.8281z"/>
		<path d="M59.182,8.0098c-0.2701-1.6642-1.5044-2.9302-3.1273-3.2076C51.364,4,43.5454,4,41.9817,4
			C40.4185,4,32.6,4,27.9089,4.8022c-1.6226,0.2773-2.8569,1.5434-3.127,3.2076C24,12.8216,24,13.9247,24,18.739
			c0,0.6412,0.001,1.7208,0.0509,3.0872c3.5072,0.0604,7.9645,0.2498,11.1731,0.7717L39.3447,9h4.3613l0.0312,0.1053L48.2061,24
			h-3.4443l-0.9287-3.25h-4.957l-0.853,2.9851c1.2344,0.9231,2.1057,2.3144,2.3667,3.9218
			c0.4233,2.6056,0.6245,4.2026,0.7211,5.8185c0.0953,0.0004,0.1976,0.0009,0.2821,0.0011l10.1099,6.3707
			c0.4569,0.2904,1.0588,0.1547,1.3464-0.3032c0.1331-0.2126,0.1765-0.4525,0.1367-0.6823l-0.0484-0.1714l-0.0088,0.0043
			L50.226,28.0407c0,0,0.1884-0.1722,0.3705,0.0931l3.4735,4.8156c0.7004-0.0789,1.3707-0.1689,1.9847-0.2738
			c1.6229-0.2778,2.8572-1.5438,3.1273-3.2079c0.7819-4.8115,0.7819-9.1252,0.7819-10.7287
			C59.9639,17.1354,59.9639,12.8216,59.182,8.0098z"/>
	</g>
</g>
</svg>
