<svg viewBox="-607 369 64 64" width="64" height="64" xmlns="http://www.w3.org/2000/svg">
    <g fill="#fff">
        <path
            d="M-598.972 401.088C-599.587 387.337-588.613 376-575 376c13.598 0 24.587 11.321 23.973 25.088a12.02 12.02 0 0 1 2.832 1.813c1.726-16.047-10.899-29.865-26.805-29.865-15.924 0-28.529 13.836-26.805 29.865a12.02 12.02 0 0 1 2.832-1.813z" />
        <path
            d="M-555.215 400.025c.408.027.81.076 1.206.143.09-11.763-9.446-21.168-20.991-21.168-11.527 0-21.08 9.386-20.991 21.168.396-.067.798-.116 1.206-.143a11.929 11.929 0 0 1 1.915-2.105c1.032-8.96 8.634-15.92 17.87-15.92 9.237 0 16.838 6.96 17.87 15.92a11.926 11.926 0 0 1 1.915 2.105z" />
        <path
            d="M-575 385c-6.822 0-12.584 4.582-14.397 10.826a12.029 12.029 0 0 1 3.472-.77C-584.04 390.898-579.863 388-575 388s9.04 2.898 10.925 7.056a12.03 12.03 0 0 1 3.472.77C-562.416 389.582-568.178 385-575 385z" />
        <path
            d="M-556.907 403.046c-1.41-2.911-4.339-4.9-7.767-5.023.622 4.68-2.743 6.785-3.24 7.147-.241.175-.525.228-.574.067 2.454-2.875 1.62-6.119 1.155-6.929-1.513-2.635-4.454-4.308-7.667-4.308s-6.074 1.72-7.667 4.309A8.966 8.966 0 0 0-585 398a8.95 8.95 0 0 0-8.093 5.046c-5.29-.54-9.907 3.634-9.907 8.954 0 5.16 4.356 9.281 9.509 8.985 1.63 4.622 6.692 7.128 11.376 5.542 1.656 2.145 4.241 3.473 7.115 3.473s5.459-1.328 7.115-3.473c4.679 1.585 9.745-.916 11.376-5.541 5.151.295 9.509-3.824 9.509-8.986 0-5.318-4.615-9.495-9.907-8.954z" />
    </g>
</svg>