<svg height="64" viewBox="0 0 64 64" width="64" xmlns="http://www.w3.org/2000/svg"><path d="m0 0h64v64h-64z" fill="none"/><path d="m26.6765 7.6237c-9.3033 2.7348-10.7044 7.3513-7.8055 9.8528 5.8217-5.0032 15.9008-4.0648 16.9121-3.9775.3304.0285.4265.1899.3857.2968-5.2017.6714-11.3303 2.5629-13.8472 5.5034 2.0065.6835 4.6715 1.171 8.007 1.2348 12.45.2383 17.7422-6.0801 18.5329-7.1276.1453-.001.1819.2673.1087.56-.3324 1.3295-1.6341 5.439-8.0557 7.7665-8.3829 3.0384-22.1035 2.6641-26.3023-3.5369-2.5861-3.8192.5613-8.9658 5.6298-11.3589-8.0084 1.3702-16.1615 9.4012-9.6755 16.827 7.4708 8.5533 21.2015 6.5881 26.6428 5.7503.1061.0936.0956.3372-.3553.62-2.4162 1.5156-12.8539 4.1752-21.7137.3281 1.178 1.831 2.9174 5.7187 3.4966 9.3218-1.3929.6227-1.8867 1.5862-1.8752 2.2444.0591 3.3889 8.5974 4.5715 12.0844 4.515.0371.1079-.041.2395-.3916.3564-.5829.1943-4.4393.967-9.3872.0632.4028 2.8176 1.7662 5.6226 6.5422 8.7084 3.3154 2.1422 7.9995 4.121 12.1748 4.9335.9603.1869 1.6558-.8986 1.1021-1.7051-.7735-1.1266-1.7957-2.6848-2.6911-4.3622-3.5426.628-5.984.0511-6.8613-.2101-.2017-.0601-.4457-.1854-.3727-.3265 2.4231-.0204 7.2681-.4818 7.7809-2.8069.1412-.6402-.4593-1.7798-2.5342-2.2753-.4018-4.4589 3.7985-7.4294 6.6115-9.5889-7.0048 1.121-13.0334-.6594-13.8914-.8908-.3208-.0865-.3969-.2571-.3393-.3488 4.6145.0695 10.4987.0829 15.2391-1.2221 9.2924-2.2684 10.3355-5.5951 6.9573-6.972 1.4515-3.1041 1.7927-5.3712 1.7927-5.3712s5.6636-4.4106 5.4038-8.7619c-.446-7.4645-17.6089-11.478-29.3052-8.0397z"/></svg>