<svg height="64" viewBox="0 0 64 64" width="64" xmlns="http://www.w3.org/2000/svg"><path d="m0 0h64v64h-64z" fill="none"/><path d="m52.23 44.7586c-2.7689.9518-6.3676 2.413-9.2219 3.6127.0737.4328.0837.8923.0119 1.3787-.4145 2.8079-2.82 4.5833-6.2403 4.7416-7.7327.3578-12.5347-1.5577-13.5313-1.9618-.2862-.1161-.318-.2576-.2923-.3882.0015-.0012.0111-.0091.0111-.0091 5.5945.9645 9.1206 1.1222 13.4634.4237 3.295-.53 4.489-2.106 4.4613-3.4058-.027-1.2701-.9267-2.0373-2.9519-2.1077-6.8902-.2395-10.9187-1.0081-16.8242-1.8688-4.1042-.5981-8.0618.4671-11.4327 2.6266-3.1634 2.0266-4.0402 2.9852-4.0402 2.9852l5.7857 11.1429 7.4819-3.0415c.8526-.3466 1.7844-.4511 2.6926-.3021l10.2607 2.283c2.2892.3757 4.6379-.0563 6.6438-1.2219l20.4795-12.8461s-1.0043-4.019-6.7571-2.0414z"/><path d="m21 35h22c6.05 0 11-4.95 11-11s-4.95-11-11-11h-22c-6.05 0-11 4.95-11 11s4.95 11 11 11zm11.2209-18h10.7791c3.8599 0 7 3.1401 7 7s-3.1401 7-7 7h-10.7791c.8627-1.9019 1.3811-4.3407 1.3811-7s-.5184-5.0981-1.3811-7zm-18.2085 6.7549.0037.0026c.0457-1.7599.7785-3.4248 2.0006-4.6655l1.9489 2.2707c-.8425.9052-1.4018 2.4493-1.4018 4.2211 0 1.558.4564 3.137 1.4556 4.3052-.0037.2516-.3318.2516-.7587-.0154-2.1586-1.3508-3.3331-3.706-3.2483-6.1187z"/></svg>