<svg height="64" viewBox="0 0 64 64" width="64" xmlns="http://www.w3.org/2000/svg"><path d="m0 0h64v64h-64z" fill="none"/><path d="m55.3 23c-.2-2.2-2.1-4-4.3-4h-9v-5c0-2.2-1.8-4-4-4h-12c-2.2 0-4 1.8-4 4v5h-9c-2.2 0-4.2 1.8-4.3 4-.6 8.7-.6 17.3 0 26 .2 2.2 2.1 4 4.3 4h38c2.2 0 4.2-1.8 4.3-4 .7-8.7.7-17.3 0-26zm-29.3-9h12v5h-12zm15 24.5c0 .3-.2.5-.5.5h-5.5v5.5c0 .3-.2.5-.5.5h-5c-.3 0-.5-.2-.5-.5v-5.5h-5.5c-.3 0-.5-.2-.5-.5v-5c0-.3.2-.5.5-.5h5.5v-5.5c0-.3.2-.5.5-.5h5c.3 0 .5.2.5.5v5.5h5.5c.3 0 .5.2.5.5z"/></svg>