<svg height="64" viewBox="0 0 64 64" width="64" xmlns="http://www.w3.org/2000/svg"><path d="m0 0h64v64h-64z" fill="none"/><path d="m57.1577 10.4397c-4.8239-4.7037-12.6445-4.3839-17.4412.3585l-4.4631 4.4125c-.8748.8649-.8837 2.2744-.0198 3.1481l2.3569 2.3839c.8639.8738 2.2734.881 3.1482.0161l5.7094-5.6447-.0064.0353c2.0043-2.3234 5.5704-1.9989 7.1746.588.8693 1.4019.8901 3.2713-.0289 4.6433-1.1747 1.7539-4.6579 1.6864-6.1388 1.6902-.6978.0018-1.3322.2972-1.6191.9671l-1.4022 3.2745c-.1287.7131.0977 1.444.6068 1.9589l.5436.5498c-2.4705 2.7496-5.3984 5.8001-8.7723 9.1357-5.401 5.3395-9.5618 9.0482-12.7535 11.6266-.5918 2.9311-1.6183 4.6255-1.8953 5.0385-.1541.2297-.3136.2759-.4268.2214.2562-.7788.3786-1.6728.3786-2.3435 0-4.1422-3.3578-7.5-7.5-7.5-.6814 0-1.3383.0989-1.9658.2692 1.2407-4.0589 3.6223-10.1936 8.1011-19.4499 3.5272-7.2896 3.7203-7.2404 10.1835-19.4922.4845-.9472.1354-2.108-.7913-2.6309l-.0043-.0024c-.9272-.5231-2.1021-.2211-2.6619.6844-3.8407 6.429-5.8884 9.5624-10.7048 19.5162-4.0804 8.4329-6.9208 15.2932-8.4415 20.3881-.7535 2.5241-1.4789 5.5651-1.2654 8.3138.3491 4.4943 3.5798 7.4038 7.5502 7.4038 1.5247 0 2.6689-.4111 3.912-1.0999 4.3054-2.3826 11.7833-8.3002 21.3923-17.8005 3.3495-3.3112 6.2811-6.361 8.7775-9.1301l.6215.6286c.864.8738 2.2734.881 3.1482.0161l4.752-4.6981c4.8657-4.8105 4.8605-12.6843-.054-17.4764zm-42.6577 45.6603c-1.9882 0-3.6-1.6118-3.6-3.6s1.6118-3.6 3.6-3.6c1.9883 0 3.6 1.6118 3.6 3.6s-1.6117 3.6-3.6 3.6z"/></svg>