<svg enable-background="new 0 0 64 64" viewBox="0 0 64 64" xmlns="http://www.w3.org/2000/svg"><path d="m0 0h64v64h-64z" fill="none"/><path d="m20.119 38.771c.62-1.576-.156-3.357-1.732-3.977l-1.717-.675c.938-.168 1.786-.763 2.229-1.688.731-1.528.085-3.36-1.443-4.091l-.6-.287c1.211.076 2.404-.571 2.96-1.733.731-1.528.085-3.36-1.443-4.091l-3.953-1.892c-1.528-.731-3.36-.085-4.091 1.443s-.085 3.36 1.443 4.091l.6.287c-1.212-.076-2.404.571-2.96 1.733-.731 1.528-.085 3.36 1.443 4.091l2.117 1.013c-1.142.081-2.194.791-2.641 1.928-.62 1.576.156 3.357 1.732 3.977l4.078 1.604c1.577.619 3.358-.157 3.978-1.733z"/><path d="m18 19.832v-.011-11.821h20v11.003c.162-.136.322-.274.506-.389 1.064-.665 2.325-.842 3.494-.573 0-4.301 0-8.601 0-12.902 0-1.741-1.345-3.457-3.19-3.731-3.596-.521-7.203-.78-10.81-.778-3.607-.002-7.214.257-10.81.778-1.845.274-3.19 1.989-3.19 3.731v9.635c-.056.021-.297.076-.364-.25-.081-.396-.478-2.523-.793-4.218l-2.025-.752c-1.493-.554-3.201.162-3.905 1.638-.728 1.523-.125 3.304 1.357 4.008z"/><path d="m54.327 50.825-2.477-19.6c-.196-1.674-.99-3.221-2.236-4.356l-6.891-6.275c-.87-.792-2.16-.908-3.157-.285-1.171.732-1.572 2.241-.925 3.461 1.023 1.93 2.788 4.835 5.358 7.54v11.476c0 2.793-2.15 5.301-4.896 5.709-4.295.622-7.488.761-11.177.799-1.215 0-2.437-.041-3.66-.1.669 1.07 1.597 2.193 2.908 3.242 4.593 3.674 6.747 6.342 6.747 6.342l3.139 4.977 19.309-9.428z"/><path d="m38.81 46.518c1.845-.274 3.19-1.99 3.19-3.731 0-3.568 0-7.137 0-10.705-1.672-1.856-3.003-3.761-4-5.402v10.32h-15.719c.108.821.023 1.679-.302 2.503-1.043 2.653-3.999 3.872-6.57 2.861l-1.409-.554v.977c0 1.741 1.345 3.457 3.19 3.731 3.608.522 7.209.78 10.81.777 3.601.003 7.202-.255 10.81-.777zm-13.29-4.644c0-1.37 1.11-2.48 2.48-2.48s2.48 1.11 2.48 2.48-1.11 2.48-2.48 2.48-2.48-1.11-2.48-2.48z"/></svg>