<svg height="64" viewBox="0 0 64 64" width="64" xmlns="http://www.w3.org/2000/svg"><path d="m0 0h64v64h-64z" fill="none"/><path d="m39.54 18.191h3.584l-1.7597-6.3981z"/><path d="m35.0911 24.8022c-4.6911-.8022-12.5096-.8022-14.0728-.8022-1.5637 0-9.3823 0-14.073.8022-1.6229.2773-2.8572 1.5434-3.1273 3.2076-.7819 4.8118-.7819 9.1256-.7819 10.7292 0 1.6035 0 5.9172.7819 10.7287.2701 1.6642 1.5044 2.9301 3.1273 3.2079.614.1049 1.2843.1949 1.9847.2738l3.4735-4.8156c.1821-.2653.3705-.0931.3705-.0931l-2.7028 10.6538-.0088-.0043-.0483.1714c-.0398.2299.0037.4697.1367.6823.2877.4579.8895.5936 1.3464.3032l10.1099-6.3707c2.3838-.0059 9.2188-.072 13.4839-.8009 1.6226-.2778 2.8569-1.5438 3.127-3.2079.782-4.8114.782-9.1252.782-10.7286 0-4.8142 0-5.9174-.782-10.7292-.27-1.6642-1.5044-2.9303-3.1269-3.2076zm-9.413 18.0259c-1.1338 1.2515-2.7679 1.9204-4.5385 1.9341l-.0234-3.0244c.9404-.0073 1.6455-.3062 2.2197-.9399 1.2461-1.377 1.5674-3.98 1.5957-5.7534h-3.317c-.6907 3.1125-2.3754 6.9625-6.4291 9.6299l-1.6621-2.5264c2.9341-1.9313 4.3151-4.7056 4.9653-7.1035h-4.4887v-3.0445h5.0071c.0813-1.1161.0208-2.6862.0183-2.71l3.0117-.29c.0107.1108.0764 1.7747.0042 3h5.8341l.126 1.3945c.0585.6382.4902 6.3267-2.3233 9.4336z"/><path d="m59.182 8.0098c-.2701-1.6642-1.5044-2.9302-3.1273-3.2076-4.6907-.8022-12.5093-.8022-14.073-.8022-1.5632 0-9.3817 0-14.0728.8022-1.6226.2773-2.8569 1.5434-3.127 3.2076-.7819 4.8118-.7819 5.9149-.7819 10.7292 0 .6412.001 1.7208.0509 3.0872 3.5072.0604 7.9645.2498 11.1731.7717l4.1207-13.5979h4.3613l.0312.1053 4.4689 14.8947h-3.4443l-.9287-3.25h-4.957l-.853 2.9851c1.2344.9231 2.1057 2.3144 2.3667 3.9218.4233 2.6056.6245 4.2026.7211 5.8185.0953.0004.1976.0009.2821.0011l10.1099 6.3707c.4569.2904 1.0588.1547 1.3464-.3032.1331-.2126.1765-.4525.1367-.6823l-.0484-.1714-.0088.0043-2.7028-10.6539s.1884-.1722.3705.0931l3.4735 4.8156c.7004-.0789 1.3707-.1689 1.9847-.2738 1.6229-.2778 2.8572-1.5438 3.1273-3.2079.7819-4.8115.7819-9.1252.7819-10.7287 0-1.6036 0-5.9174-.7819-10.7292z"/></svg>