<svg height="64" viewBox="0 0 64 64" width="64" xmlns="http://www.w3.org/2000/svg"><path d="m0 0h64v64h-64z" fill="none"/><path d="m58.0933 11.0312c-.2613-1.6109-1.4561-2.8365-3.0269-3.105-4.5405-.7764-12.1084-.7764-13.6216-.7764-1.5136 0-9.0815 0-13.622.7764-1.5704.2685-2.7652 1.4941-3.0269 3.105-.2192 1.349-.3735 2.6547-.4841 3.8708 3.9855.0178 10.4532.1697 14.6994.8958 2.7198.4648 4.7671 2.5527 5.2159 5.3188.873 5.3716.873 6.7632.873 11.939 0 .604-.0009 1.5506-.0341 2.7375 0 0 6.9643 5.6688 7.4775 6.0584.5129.3894 1.0473.1855 1.3315-.1641.2031-.25.2089-.5587.0625-.9531-.1526-.4112-1.9882-5.4417-1.9882-5.4417 1.1137-.1008 2.1811-.2264 3.1171-.3864 1.5708-.2686 2.7656-1.4942 3.0269-3.1045.7568-4.6582.7568-8.833.7568-10.3853 0-4.6601 0-5.7279-.7568-10.3852z"/><path d="m24.4746 25.5679c-1.3965 0-3.0352.6255-4.0342 1.585-.6348.6084-.9365 1.2935-.7871 1.7886.1895.6323 1.1533 1.166 2.5771 1.4272.7571.1386 1.8761.2829 2.7178.4229.4102-.5254.7402-1.0117.9492-1.4307.6523-1.3018.8457-2.396.5312-3.0024-.3199-.6167-1.2565-.7906-1.954-.7906z"/><path d="m42.0063 21.4771c-.2915-1.7959-1.6235-3.1622-3.3745-3.4615-5.0625-.8657-13.5-.8657-15.187-.8657-1.6875 0-10.125 0-15.187.8657-1.7515.2993-3.0836 1.6656-3.375 3.4615-.8438 5.1928-.8438 9.8481-.8438 11.5786 0 1.7304 0 6.3857.8438 11.5781.2914 1.7959 1.6235 3.1621 3.375 3.4619.6626.1132 1.3859.2104 2.1418.2955l3.7484-5.1968c.1966-.2863.3999-.1005.3999-.1005s-3.1669 11.1876-3.2626 11.4949-.1226.5784.0906.919c.3105.4942.96.6406 1.4531.3272s11.2515-6.875 11.2515-6.875c2.5724-.0064 9.9485-.0777 14.5514-.8643 1.751-.2997 3.083-1.666 3.3745-3.4619.8438-5.1924.8438-9.8477.8438-11.5781-.0001-5.1953-.0001-6.3858-.8439-11.5786zm-12.7153 22.2436c-.6458.6815-1.7219.7128-2.4033.0669-.6826-.645-.7119-1.7207-.0674-2.4028.7871-.8408 2.8184-3.6143 1.8203-5.2349-.5068-.8247-1.375-1.2969-2.4287-1.6104-2.5293 2.7817-5.7432 5.5088-6.248 5.9326-.7207.605-1.791.5107-2.3955-.2085-.6035-.7188-.5107-1.791.208-2.395.9482-.7969 2.7393-2.3804 4.4219-4.0566-.1963-.0317-.3906-.0645-.5811-.0996-3.7588-.689-4.8838-2.6724-5.2207-3.7935-.5254-1.749.1064-3.7002 1.6895-5.2192 1.8994-1.8228 4.9902-2.8276 7.5117-2.4497 1.7695.2676 3.1367 1.1704 3.8486 2.543.5898 1.1372.9805 3.1162-.5078 6.0898-.1377.2754-.3066.564-.5.8623 1.2139.5376 2.3115 1.3447 3.0977 2.6226 2.0546 3.3369-.4444 7.4492-2.2452 9.353z"/></svg>