<?xml version="1.0" encoding="utf-8"?>
<!-- Generator: Adobe Illustrator 17.1.0, SVG Export Plug-In . SVG Version: 6.00 Build 0)  -->
<svg version="1.2" baseProfile="tiny" xmlns="http://www.w3.org/2000/svg" xmlns:xlink="http://www.w3.org/1999/xlink" x="0px"
	 y="0px" width="64px" height="64px" viewBox="0 0 64 64" xml:space="preserve">
<g id="_x36_4px_Boxes">
	<rect fill="none" width="64" height="64"/>
</g>
<g id="Production">
	<g>
		<path d="M52.9638,15.9459L36.1504,32.7598c-0.2197,0.2197-0.4873,0.3847-0.7813,0.4834l-11.7226,3.9072
			c-0.4922,0.1641-0.961-0.3047-0.7969-0.7969l3.9072-11.7222c0.0987-0.2944,0.2637-0.562,0.4834-0.7817l10.6228-10.623
			c-2.7602-0.0756-5.0067-0.0767-5.8435-0.0767c-1.998,0-11.9902,0-17.9843,1.0288c-2.0743,0.356-3.6514,1.98-3.9971,4.1148
			c-0.999,6.1718-0.999,11.7045-0.999,13.7622c0,2.0576,0,7.5898,0.999,13.7617c0.3457,2.1347,1.9228,3.7588,3.9971,4.1152
			c5.9941,1.0283,15.9863,1.0283,17.9843,1.0283c0.0533,0,0.1341-0.0001,0.1985-0.0001l11.2508,6.8742
			c0.4931,0.3134,1.1425,0.167,1.4531-0.3272c0.1435-0.2295,0.1904-0.4883,0.1474-0.7363l-3.9382-13.4814
			c0,0,0.2299-0.2233,0.468,0.1465c2.4069,3.7376,4.5087,6.9845,4.5087,6.9845c1.3893-0.1298,2.7231-0.2873,3.8961-0.4885
			c2.0742-0.3564,3.6514-1.9805,3.9971-4.1152C55,39.6455,55,34.1133,55,32.0557c0-6.1753,0-7.5904-0.999-13.7622
			C53.8563,17.4,53.4861,16.6049,52.9638,15.9459z"/>
		<path d="M32.96,30.2363l0.3671,0.3682c0.3907,0.3906,1.0245,0.3906,1.4151,0l20.459-20.4595l-2.6729-0.8911L32.96,28.8223
			C32.5693,29.2129,32.5693,29.8457,32.96,30.2363z"/>
		<path d="M29.3955,26.6729l0.3682,0.3671c0.3906,0.3907,1.0234,0.3907,1.414,0l20.459-20.4589l-2.6728-0.8912L29.3955,25.2583
			C29.0049,25.6489,29.0049,26.2822,29.3955,26.6729z"/>
	</g>
</g>
</svg>
