<svg height="64" viewBox="0 0 64 64" width="64" xmlns="http://www.w3.org/2000/svg"><path d="m0 0h64v64h-64z" fill="none"/><path d="m59.2432 13.0314c-.2614-1.6109-1.4561-2.8366-3.0269-3.1051-4.5405-.7763-12.1084-.7763-13.6216-.7763-1.5136 0-9.0815 0-13.622.7764-1.5705.2685-2.7652 1.4942-3.0269 3.1051-.2192 1.349-.3735 2.6546-.4841 3.8708 3.9854.0178 10.4531.1696 14.6994.8957 2.7198.4649 4.7671 2.5527 5.2159 5.3189.873 5.3715.873 6.7631.873 11.9389 0 .604-.001 1.5506-.0342 2.7375l7.4776 6.0584c.5356.3574 1.0473.1856 1.3315-.164.2031-.25.2188-.5625.0625-.9532l-1.9883-5.4416c1.1138-.1008 2.1812-.2264 3.1172-.3864 1.5708-.2686 2.7655-1.4942 3.0269-3.1046.7568-4.6583.7568-8.833.7568-10.3853 0-4.6603 0-5.7281-.7568-10.3852z"/><path d="m39.7816 20.0156c-5.0625-.8656-13.5-.8656-15.1869-.8656-1.6875 0-10.125 0-15.187.8656-1.7516.2993-3.0835 1.6657-3.375 3.4616-.8437 5.1927-.8437 9.8481-.8437 11.5785s0 6.3858.8437 11.5782c.2915 1.7958 1.6234 3.1621 3.375 3.4619.6626.1132 1.3858.2104 2.1417.2955l3.7623-5.2203c.1966-.2863.3861-.077.3861-.077l-3.2579 11.4971-.0096-.0046-.0521.185c-.043.248.0039.5068.1474.7364.3106.4942.96.6405 1.4532.3271l11.2514-6.8749c2.5724-.0065 9.9485-.0777 14.5514-.8643 1.7511-.2998 3.083-1.6661 3.3745-3.4619.8439-5.1924.8439-9.8478.8439-11.5782 0-5.1952 0-6.3858-.8439-11.5785-.2915-1.7959-1.6234-3.1623-3.3745-3.4616zm-24.2816 18.0594c-1.4224 0-2.575-1.1528-2.575-2.575 0-1.4224 1.1526-2.575 2.575-2.575s2.575 1.1526 2.575 2.575c0 1.4222-1.1526 2.575-2.575 2.575zm9 0c-1.4224 0-2.575-1.1528-2.575-2.575 0-1.4224 1.1526-2.575 2.575-2.575s2.575 1.1526 2.575 2.575c0 1.4222-1.1526 2.575-2.575 2.575zm9 0c-1.4224 0-2.575-1.1528-2.575-2.575 0-1.4224 1.1526-2.575 2.575-2.575s2.575 1.1526 2.575 2.575c0 1.4222-1.1526 2.575-2.575 2.575z"/></svg>