<?xml version="1.0" encoding="utf-8"?>
<!-- Generator: Adobe Illustrator 19.1.0, SVG Export Plug-In . SVG Version: 6.00 Build 0)  -->
<svg version="1.2" baseProfile="tiny" xmlns="http://www.w3.org/2000/svg" xmlns:xlink="http://www.w3.org/1999/xlink" x="0px"
	 y="0px" width="64px" height="64px" viewBox="0 0 64 64" xml:space="preserve">
<g id="_x36_4px_Box">
	<rect fill="none" width="64" height="64"/>
</g>
<g id="Icon">
	<g>
		<path d="M58.0933,11.0312c-0.2613-1.6109-1.4561-2.8365-3.0269-3.105C50.5259,7.1498,42.958,7.1498,41.4448,7.1498
			c-1.5136,0-9.0815,0-13.622,0.7764c-1.5704,0.2685-2.7652,1.4941-3.0269,3.105c-0.2192,1.349-0.3735,2.6547-0.4841,3.8708
			c3.9855,0.0178,10.4532,0.1697,14.6994,0.8958c2.7198,0.4648,4.7671,2.5527,5.2159,5.3188c0.873,5.3716,0.873,6.7632,0.873,11.939
			c0,0.604-0.0009,1.5506-0.0341,2.7375c0,0,6.9643,5.6688,7.4775,6.0584c0.5129,0.3894,1.0473,0.1855,1.3315-0.1641
			c0.2031-0.25,0.2089-0.5587,0.0625-0.9531c-0.1526-0.4112-1.9882-5.4417-1.9882-5.4417c1.1137-0.1008,2.1811-0.2264,3.1171-0.3864
			c1.5708-0.2686,2.7656-1.4942,3.0269-3.1045c0.7568-4.6582,0.7568-8.833,0.7568-10.3853
			C58.8501,16.7563,58.8501,15.6885,58.0933,11.0312z"/>
		<path d="M24.4746,25.5679c-1.3965,0-3.0352,0.6255-4.0342,1.585c-0.6348,0.6084-0.9365,1.2935-0.7871,1.7886
			c0.1895,0.6323,1.1533,1.166,2.5771,1.4272c0.7571,0.1386,1.8761,0.2829,2.7178,0.4229c0.4102-0.5254,0.7402-1.0117,0.9492-1.4307
			c0.6523-1.3018,0.8457-2.396,0.5312-3.0024C26.1087,25.7418,25.1721,25.5679,24.4746,25.5679z"/>
		<path d="M42.0063,21.4771c-0.2915-1.7959-1.6235-3.1622-3.3745-3.4615c-5.0625-0.8657-13.5-0.8657-15.187-0.8657
			c-1.6875,0-10.125,0-15.187,0.8657c-1.7515,0.2993-3.0836,1.6656-3.375,3.4615c-0.8438,5.1928-0.8438,9.8481-0.8438,11.5786
			c0,1.7304,0,6.3857,0.8438,11.5781c0.2914,1.7959,1.6235,3.1621,3.375,3.4619c0.6626,0.1132,1.3859,0.2104,2.1418,0.2955
			l3.7484-5.1968c0.1966-0.2863,0.3999-0.1005,0.3999-0.1005s-3.1669,11.1876-3.2626,11.4949s-0.1226,0.5784,0.0906,0.919
			c0.3105,0.4942,0.96,0.6406,1.4531,0.3272s11.2515-6.875,11.2515-6.875c2.5724-0.0064,9.9485-0.0777,14.5514-0.8643
			c1.751-0.2997,3.083-1.666,3.3745-3.4619c0.8438-5.1924,0.8438-9.8477,0.8438-11.5781
			C42.8501,27.8604,42.8501,26.6699,42.0063,21.4771z M29.291,43.7207c-0.6458,0.6815-1.7219,0.7128-2.4033,0.0669
			c-0.6826-0.645-0.7119-1.7207-0.0674-2.4028c0.7871-0.8408,2.8184-3.6143,1.8203-5.2349
			c-0.5068-0.8247-1.375-1.2969-2.4287-1.6104c-2.5293,2.7817-5.7432,5.5088-6.248,5.9326c-0.7207,0.605-1.791,0.5107-2.3955-0.2085
			c-0.6035-0.7188-0.5107-1.791,0.208-2.395c0.9482-0.7969,2.7393-2.3804,4.4219-4.0566c-0.1963-0.0317-0.3906-0.0645-0.5811-0.0996
			c-3.7588-0.689-4.8838-2.6724-5.2207-3.7935c-0.5254-1.749,0.1064-3.7002,1.6895-5.2192
			c1.8994-1.8228,4.9902-2.8276,7.5117-2.4497c1.7695,0.2676,3.1367,1.1704,3.8486,2.543c0.5898,1.1372,0.9805,3.1162-0.5078,6.0898
			c-0.1377,0.2754-0.3066,0.564-0.5,0.8623c1.2139,0.5376,2.3115,1.3447,3.0977,2.6226
			C33.5908,37.7046,31.0918,41.8169,29.291,43.7207z"/>
	</g>
</g>
</svg>
