<svg height="64" viewBox="0 0 64 64" width="64" xmlns="http://www.w3.org/2000/svg"><path d="m0 0h64v64h-64z" fill="none"/><path d="m52.9638 15.9459-16.8134 16.8139c-.2197.2197-.4873.3847-.7813.4834l-11.7226 3.9072c-.4922.1641-.961-.3047-.7969-.7969l3.9072-11.7222c.0987-.2944.2637-.562.4834-.7817l10.6228-10.623c-2.7602-.0756-5.0067-.0767-5.8435-.0767-1.998 0-11.9902 0-17.9843 1.0288-2.0743.356-3.6514 1.98-3.9971 4.1148-.999 6.1718-.999 11.7045-.999 13.7622 0 2.0576 0 7.5898.999 13.7617.3457 2.1347 1.9228 3.7588 3.9971 4.1152 5.9941 1.0283 15.9863 1.0283 17.9843 1.0283.0533 0 .1341-.0001.1985-.0001l11.2508 6.8742c.4931.3134 1.1425.167 1.4531-.3272.1435-.2295.1904-.4883.1474-.7363l-3.9382-13.4814s.2299-.2233.468.1465c2.4069 3.7376 4.5087 6.9845 4.5087 6.9845 1.3893-.1298 2.7231-.2873 3.8961-.4885 2.0742-.3564 3.6514-1.9805 3.9971-4.1152.999-6.1719.999-11.7041.999-13.7617 0-6.1753 0-7.5904-.999-13.7622-.1447-.8935-.5149-1.6886-1.0372-2.3476z"/><path d="m32.96 30.2363.3671.3682c.3907.3906 1.0245.3906 1.4151 0l20.459-20.4595-2.6729-.8911-19.5683 19.5684c-.3907.3906-.3907 1.0234 0 1.414z"/><path d="m29.3955 26.6729.3682.3671c.3906.3907 1.0234.3907 1.414 0l20.459-20.4589-2.6728-.8912-19.5684 19.5684c-.3906.3906-.3906 1.0239 0 1.4146z"/></svg>