<svg height="64" viewBox="0 0 64 64" width="64" xmlns="http://www.w3.org/2000/svg"><path d="m0 0h64v64h-64z" fill="none"/><path d="m18.5401 6.0079c-.2658 3.9292 1.729 5.992 4.9599 5.992 3.1674 0 5-2.2184 5-5.4108 0-2.0757-.7797-5.994-2.8156-6.4351-2.3604-.5103-10.3796 3.2956-10.2044 4.719.1072.87 1.7752 1.092 3.0601 1.1349z"/><path d="m44.5 13c3.1665 0 5-1.9516 5-5.411 0-3.2831-1.7505-5.589-5-5.589-3.0847 0-5 1.9509-5 5.589 0 3.1932 1.8323 5.411 5 5.411z"/><path d="m56.9442 33.7448c-.7017-3.7675-1.5696-5.8279-1.8866-8.4457-.7014-5.796-2.4709-8.5814-5.7629-9.5945-1.5679-.4825-3.0627-.7045-4.7644-.7046h-.0606c-1.7017.0001-3.1965.2221-4.7644.7045-1.1634.358-2.1257.9558-2.9282 1.8129 1.4955.7565 2.3755 2.3437 2.3755 4.7176 0 2.9916-1.7054 5.0282-4.6526 5.0282-2.9462 0-4.6526-1.787-4.6526-5.0282 0-2.249.8801-3.9983 2.5316-4.7812-1.6643-2.3076-4.3952-3.4538-8.8785-3.4538l-.0005.001v-.001c-1.6896 0-3.1119.1806-4.3304.5194-2.3298.5344-4.6581 1.6843-5.9124 4.1196-2.3818 4.6245-7.0772 18.7621-7.0772 18.7621.2955.2104.7969.2717 1.3795.2045.4131 4.2478 2.3897 24.5578 2.4828 25.3041.0861.6901 2.4176.4621 2.3447-.2782-.0774-.7852-1.4595-20.3402-1.8813-26.3157.4688-.3972.859-.8784 1.0941-1.4368.9462-2.2473 1.9794-4.8003 2.673-6.7523.897-2.5249 1.4807-4.0413 2.2408-5.6683.1624-.3477.3163-.5583.4827-.4094l.0037-.0132v40.9642s4.8654.0391 5.2372-5.0498c0 0 .7277-19.2431.7359-19.457s.1675-.4932.5269-.4932.5083.2793.5165.4932.7308 19.3173.7308 19.3173c.2743 4.9745 4.7563 5.1807 5.2078 5.1889v-15.579c-.994 0-2.7936-.5714-2.9266-2.9201-.2926-5.1649-.1537-13.4299 2.9935-14.9727 1.9266-.9443 7.1199-.9443 9.2288-.0342 2.909 1.2558 2.8331 9.7482 2.8219 14.9642-.0051 2.3527-2.0389 2.9658-3.0321 2.9658v15.5743c.1434-.0233 3.7117-.6389 3.9595-4.2064 0 0 .8159-8.6949.9611-12.8555.5602-.0887.5874-.0983 1.0627-.1677.1422 4.0636.9761 12.9199.9761 12.9199.1888 3.7505 3.9844 4.312 3.9844 4.312l.0156-17.3022c1.7598.1675 2.9346.4533 2.9346.4533 0-8.8604-2.1483-12.3962-2.8838-15.1734-.3907-1.4758-.3087-3.0205.0468-4.4986.334-1.3894.7635-2.6836.0892-5.4301 0 0 .3548.6231.497 1.0269.7902 2.244.5601 6.5845 3.7455 16.5873 1.3873-.1775 3.086-1.853 2.5149-4.9184z"/></svg>