<?xml version="1.0" encoding="utf-8"?>
<!-- Generator: Adobe Illustrator 19.2.0, SVG Export Plug-In . SVG Version: 6.00 Build 0)  -->
<svg version="1.0" xmlns="http://www.w3.org/2000/svg" xmlns:xlink="http://www.w3.org/1999/xlink" x="0px" y="0px"
	 viewBox="0 0 64 64" enable-background="new 0 0 64 64" xml:space="preserve">
<g id="achtergrond">
</g>
<g id="paneel_1">
	<path d="M51.2463,45.0975c-2.0387-2.2172-7.901-4.1891-10.6312-5.0171c-0.1448-1.0415-0.3374-2.2477-0.5104-3.2526
		c1.6701-2.023,2.696-4.1127,3.0341-6.2529c1.2401-1.1386,1.9308-2.9558,1.9308-5.1874c0-0.6953,0.0011-2.5234-1.1455-3.769
		c0.2836-3.1165,0.4809-7.9397-0.7348-9.8851c-0.1057-0.1691-0.2176-0.3174-0.3269-0.474l1.9361-0.652v6.3498l1.3229-1.3228
		l1.3668,1.3668v-7.441l3.0315-1.0915L32,3.8387l-18.2008,4.63l7.9262,2.8084c-0.1823,0.1666-0.3628,0.3342-0.5192,0.5147
		c-1.5425,1.7802-1.4373,6.7448-1.1896,9.9023c-1.082,1.2437-1.0863,3.0118-1.0863,3.6935c0,2.2278,0.6885,4.0429,1.9247,5.1818
		c0.3566,2.3453,1.7131,4.7251,3.6715,6.9172c-0.099,0.7535-0.2254,1.4022-0.5366,2.4135
		c-2.3463,0.6858-9.0303,2.7982-11.2363,5.1974C10.0707,48.0144,8.6573,59,8.6573,59H32h23.3427
		C55.3427,59,53.9293,48.0144,51.2463,45.0975z M36.7253,53v4h-9v-4h-4l3.6488-16.5207c-2.1258-2.0541-3.8322-4.5438-3.8322-7.5266
		c-1.5104-0.4705-1.9061-2.3767-1.9061-3.5652c0-1.1882,0.3003-1.831,0.7225-2.0302c0.3661-0.1723,0.7213-0.0445,0.9458,0.0827
		c0.132,0.6094,0.2318,1.0628,0.2706,1.2229c0.1923,0.7947,0.9555,0.7217,0.9555,0.7217v-6.298
		c1.9357-0.1405,5.7831-0.7032,10.0372-2.9003l4.9021,3.2924v5.9058c0,0,0.7632,0.073,0.9555-0.7217
		c0.0387-0.1601,0.1386-0.6135,0.2706-1.2229c0.2246-0.1272,0.5798-0.255,0.9458-0.0827c0.4222,0.1992,0.7225,0.842,0.7225,2.0302
		c0,1.1885-0.3956,3.0947-1.9061,3.5652c0,3.4572-2.3656,6.0653-4.9862,8.2956c-0.7289,0.6204-2.1008,1.0333-3.4723,1.0322
		c-0.9923-0.0007-1.9846-0.2675-2.7331-0.5929c0.5731,0.8689,1.5456,1.9369,3.3472,2.4138
		c2.9456,0.7796,5.0975-0.8534,5.0975-0.8534L40.7253,53H36.7253z"/>
</g>
</svg>
