<svg height="64" viewBox="0 0 64 64" width="64" xmlns="http://www.w3.org/2000/svg"><path d="m0 0h64v64h-64z" fill="none"/><path d="m15.9143 44.014c-.0999-1.0374-.0366-1.9895.1954-2.8435-1.9481.8708-3.7462 1.878-4.7225 2.9399-2.8735 3.124-4.3872 14.8896-4.3872 14.8896h7.8643c-.0328-.0543-.0801-.0952-.1045-.1562-.1895-.4758-4.4043-11.2592 1.1545-14.8298z"/><path d="m52.6128 44.1104c-1.0543-1.1467-3.0648-2.2304-5.1901-3.1462.5328 1.6359.4248 3.5681-.3021 5.7616 1.1942.831 1.9794 2.2091 1.9794 3.7742 0 2.5405-2.0594 4.6-4.6 4.6s-4.6-2.0594-4.6-4.6 2.0594-4.6 4.6-4.6c.0872 0 .1686.0209.2546.0256.6427-1.9362.6762-3.5236.0755-4.7195-.7998-1.5947-2.584-2.2129-3.5762-2.4395l.0045-.0198c-.0099-.003-.0217-.0068-.0316-.0098-.155-1.1155-.3614-2.4073-.5466-3.4836 1.7886-2.1667 2.8874-4.4047 3.2495-6.6968 1.3281-1.2195 2.0679-3.1657 2.0679-5.5557 0-.7447.0012-2.7025-1.2268-4.0366.3036-3.3378.515-8.5034-.7869-10.587-1.6026-2.5649-3.5498-3.8159-7.2632-2.9775-2.4355-1.1577-4.0937-1.8823-8.3608-.8398-2.9648.7241-6.21 1.9067-7.92 3.8798-1.652 1.9066-1.5394 7.2237-1.2741 10.6054-1.1589 1.332-1.1634 3.2256-1.1634 3.9557 0 2.386.7374 4.3299 2.0614 5.5497.3819 2.5118 1.613 4.9141 3.7105 7.2619-.106.807-.2283 1.7498-.353 2.7313-.5463.1597-1.3196.3952-2.2079.6867-1.9341.6816-2.8621 1.9347-2.8579 3.8772.9998-.1288 1.999.0249 2.9521.4664 4.5576 2.1045 6.7744 9.8789 6.8662 10.209.0773.2771.0358.5509-.0647.7983-.0072.0222-.0124.0439-.0221.0664-.0349.0738-.0801.1373-.1287.2031-.0525.0724-.1129.1444-.1855.2177-.0134.0114-.0235.0248-.0374.0356-.6573.6387-1.9797 1.2866-2.9434 1.5886-1.1367.3563-1.4766-.1796-1.7478-.9674-.2691-.7817-.1554-1.2951.8461-1.9119.3796-.2337.8907-.5088 1.4305-.7043-.8716-2.3594-2.6981-6.1736-5.0612-7.2655-.8535-.3945-1.6699-.3828-2.5713.0352-3.4786 1.6097-1.9059 8.0184-1.0405 10.7716.505-.2217 1.036-.3754 1.4539-.4692 1.1475-.2579 1.5874.0302 1.9406.7776.356.7534.4869 1.3743-.5755 1.913-.0848.043-.1838.0853-.2767.1281h12.8099 25s-1.5137-11.7656-4.3872-14.8896zm-20.5962 5.2294c-2.3003-1.75-6.2275-5.5302-5.7944-9.0224.237-1.9129.0408-.5492.8235-5.4371-2.2767-2.2-4.1043-4.8665-4.1043-8.061-1.6177-.5039-2.0414-2.5454-2.0414-3.8183 0-1.2725.3217-1.961.7737-2.1743.3922-.1844.7725-.0475 1.013.0886.1414.6527.2484 1.1383.2898 1.3098.2061.8511 1.0235.7729 1.0235.7729v-6.7451c2.0731-.1505 6.1937-.7531 10.7499-3.1062l5.2501 3.5262v6.3251s.8174.0782 1.0234-.7729c.0415-.1715.1484-.6571.2898-1.3098.2405-.1362.6209-.2731 1.013-.0886.4521.2133.7738.9018.7738 2.1743 0 1.2729-.4237 3.3144-2.0414 3.8183 0 3.7027-2.5335 6.4959-5.3403 8.8846-.7807.6644-2.2499 1.1066-3.7188 1.1055-1.0628-.0008-2.1255-.2865-2.9271-.6349.6138.9305 1.6553 2.0744 3.5848 2.5851 3.1548.8349 5.4595-.9139 5.4595-.9139s.2828 1.9133.2745 2.4157c.3267 3.4883-3.9212 7.3169-6.3746 9.0784z"/><circle cx="44.5" cy="50.5" r="2"/></svg>