<svg enable-background="new 0 0 64 64" height="64" viewBox="0 0 64 64" width="64" xmlns="http://www.w3.org/2000/svg"><path d="m0 0h64v64h-64z" fill="none"/><path d="m15.7 39.5c-2.5 1-5.1 2.3-6.3 3.6-2.9 3.1-4.4 14.9-4.4 14.9h8.6l-.8-4.4s1.9-.6 4.9-1.1c-1.2-6.5-1.8-10.7-2-13z"/><path d="m40.7 38.2c-.5-.2-1-.3-1.4-.5-.1-.7-.2-1.5-.3-2.2.8-.6 1.3-1.6 1.4-2.8 0-.3.1-.6.4-.7.9-.6 1.5-1.7 1.5-3.1 0-.5-.1-.9-.2-1.3 1.3-1.2 2.1-3.2 2.1-5.6 0-.7 0-2.7-1.2-4 .5-.2.7-.8.7-1.3-.7-2.8-2.7-11.4-10.8-13.3-.3-1-1.5-1.7-3-1.7-1.6 0-2.8.8-3.1 1.8-7.9 1.9-9.8 10.5-10.3 13.2-.1.5.2 1.1.6 1.3v.1c-1.1 1.3-1.1 3.2-1.1 3.9 0 2.4.7 4.3 2.1 5.5-.1.4-.2.8-.2 1.3 0 1.4.6 2.6 1.5 3.1.2.2.4.4.4.7.1 1.4.9 2.6 1.9 3.2-.1.5-.1 1.1-.2 1.7-.5.1-1.1.3-1.8.5.8 5.1 2 10.6 2.7 13.6 5.6-.7 10.3-.7 15.4-.1.7-2.9 2-8.3 2.9-13.3zm-10.7-6.2c-1.4 0-2.4-.3-3-.7 1.2-.4 2.6-1.1 3-2 .5.9 1.8 1.5 3 2-.6.4-1.6.7-3 .7zm8-13.5v4.3s.8.1 1-.8c0-.2.1-1.5.3-2.1.2-.1.6-.3 1-.1.5.2.8.9.8 2.2 0 1.1-.3 2.6-1.3 3.4-.2 0-.3-.1-.5-.1-.8 0-1.5.5-1.9 1.4-.4 1.1-.5 2.3-1.1 3.4-.1.2-.4.3-.6 0-.7-.9-1.8-2.3-2.8-2.9-1.5-1-2.9.4-2.9.4s-1.4-1.4-2.9-.4c-.9.6-2.1 2-2.8 2.9-.2.2-.5.2-.6 0-.6-1-.7-2.2-1.1-3.4-.3-.9-1-1.4-1.9-1.4-.2 0-.3 0-.5.1-1-.8-1.3-2.4-1.3-3.4 0-1.3.3-2 .8-2.2.4-.2.8 0 1 .1.1.7.2 1.9.3 2.1.2.9 1 .8 1 .8v-4.3c4.9.7 11.1.7 16 0zm-7.6 29.8c-2.3-1.8-6.6-5.5-6.2-9 0-.2 0-.3.1-.5.7.6 1.5.9 2.2.8.2 0 .5 0 .7.2 1.6 1.3 4.2 1.3 5.7 0 .2-.2.4-.2.7-.2.9.1 2-.5 2.8-1.5.1.4.1.8.1 1 .2 3.6-3.7 7.5-6.1 9.2z"/><path d="m60.2 37.8c-1.6-1.6-5.9-1-9.6 1.2-1-.3-3.7-1-4.7-.2-1.2.9-3.8 3.5-4.8 5.5-.1.2 0 .5.2.6.1.1 2 .8 2.8 1.1-1.4 2.8-1.6 5-2.8 6.2-1.7 1.7-4.3 1.4-6.5 1.9-.4.1-.5.6-.2.9 2.1 2 5.9 1.5 6.4 2s-.1 4.1 2 6.2c.3.3.8.2.9-.2.5-2.2.2-4.6 2-6.3 1.1-1.1 2.8-1.5 5-2.5l-.2 2.7c0 .4.4.7.7.5 1.1-.6 1.8-.9 2.4-1.8 1-1.3 1.2-2.8 1.2-3.8.7-.5 1.3-1.1 2-1.8 3.7-3.9 5.2-10.2 3.2-12.2zm-4.5 5.5c-.6.6-1.7.6-2.3 0s-.6-1.7 0-2.3 1.7-.6 2.3 0 .6 1.7 0 2.3z"/></svg>