<?xml version="1.0" encoding="utf-8"?>
<!-- Generator: Adobe Illustrator 22.1.0, SVG Export Plug-In . SVG Version: 6.00 Build 0)  -->
<!DOCTYPE svg PUBLIC "-//W3C//DTD SVG 1.1//EN" "http://www.w3.org/Graphics/SVG/1.1/DTD/svg11.dtd">
<svg version="1.1" xmlns="http://www.w3.org/2000/svg" xmlns:xlink="http://www.w3.org/1999/xlink" x="0px" y="0px" width="64px"
	 height="64px" viewBox="0 0 64 64" style="enable-background:new 0 0 64 64;" xml:space="preserve">
<style type="text/css">
	.st0{fill:none;}
	.st1{fill:#FFFFFF;}
</style>
<g id="Box">
	<rect class="st0" width="64" height="64"/>
</g>
<g id="Icon">
	<g>
		<path d="M40.1,53.2c-0.5-3,1.3-6.4,2.4-8.2c0.5-0.7,1.3-1.2,2.3-1.1c0.3-1.5,1-2.7,1.5-3.4c0.5-0.7,1.4-1.1,2.3-0.9
			c0.2-0.7,0.6-2,1-2.6c-1.4-1-3.4-1.9-4.4-2c-1.1-0.1-3.3,0.4-4.5,0.7c0-0.1,0-0.3-0.1-0.4c1.8-2.2,2.9-4.4,3.2-6.7
			c1.3-1.2,2.1-3.2,2.1-5.6c0-0.7,0-2.6-1.1-3.9c2.5,0.3,4.6,0.5,5.8,0.7c0.6,0.1,1.1-0.4,1.2-1c0.1-0.5-0.3-1-0.8-1.1l-6-1.6
			c0,0-1-5.8-4.1-11.9c-0.5-1-1.7-1.5-2.8-1.1C34.6,4.6,32,6.4,32,6.4s-2.6-1.7-6.2-3.2c-1.1-0.4-2.3,0-2.8,1.1
			c-3.1,6.1-4.1,11.9-4.1,11.9l-6,1.6c-0.5,0.1-0.9,0.6-0.8,1.1c0.1,0.6,0.6,1,1.2,1c1.2-0.2,3.3-0.4,5.8-0.7C18,20.4,18,22.3,18,23
			c0,2.4,0.7,4.3,2.1,5.5c0.4,2.5,1.6,4.9,3.7,7.3c0,0,0,0.1,0,0.1c-1.3-0.4-3.5-1.1-5.1-1c-1.7,0.1-5,1.4-5.1,2.3
			c-0.1,0.8,2.1,1.4,4.9,2.9c-2.8,1-5.7,2.4-7.1,3.9C8.5,47.2,7,59,7,59h31.1c0.3-0.3,0.6-0.7,1-0.9c1-0.6,1.6-1.1,2.3-1.6
			C40.7,55.5,40.3,54.4,40.1,53.2z M32,44.2c-1.6,0-3.1-0.2-4.3-0.7c0.6,3.4,2.3,6.8,4.3,9.4c0,0.2-0.5,0-0.9-0.3
			c-4.5-3.2-6-10.4-6-10.4c1.3-2.2,1.5-4.7,2-7.3c-2.3-2.2-4.1-4.9-4.1-8.1c-1.6-0.5-2-2.5-2-3.8c0-1.3,0.3-2,0.8-2.2
			c0.4-0.2,0.8,0,1,0.1c0.1,0.7,0.2,1.1,0.3,1.3c0.2,0.9,1,0.8,1,0.8v-4.4c2.7-0.2,5.6-0.4,8-0.4s5.3,0.2,8,0.4V23
			c0,0,0.8,0.1,1-0.8c0-0.2,0.1-0.7,0.3-1.3c0.2-0.1,0.6-0.3,1-0.1c0.5,0.2,0.8,0.9,0.8,2.2c0,1.3-0.4,3.3-2,3.8
			c0,3.7-2.5,6.5-5.3,8.9c-1.2,1-4,1.6-6.6,0.5c0.6,0.9,1.7,2.1,3.6,2.6c3.2,0.8,5.5-0.9,5.5-0.9c0.2,1.2,0.3,2.6,1,4.2
			C37.6,43.3,35,44.2,32,44.2z"/>
		<path d="M57.6,54c-0.9-0.1-2.9-0.3-4.9-0.2c-2.8,0.2-4,0.4-5.5,1.2c0.4-2.3,0-5.4-2.4-9c-0.1-0.2-0.4-0.2-0.6,0
			c-0.7,1.1-2.5,4.4-2.1,6.9c0.3,1.6,1,3,2.1,4c-1.3,1.2-2.2,1.8-4,2.9c-1,0.6-1.2,2-0.3,2.8c0.6,0.6,1.6,0.7,2.2,0.2
			c1.5-1.3,2.7-2.4,4.3-4.4c2,0.9,4.5,0.9,6.6,0.1c1.9-0.8,3.9-2.6,4.8-3.8C57.9,54.3,57.8,54,57.6,54z"/>
		<path d="M60.3,41.6c0.6-1,0.6-2.4,0.3-3.9c0-0.2-0.2-0.3-0.3-0.3c-1.5,0-3.8,0.4-4.5,1.7c-0.8,1.5,0,3.1-0.5,5.2
			C57.6,42.7,59.4,43.2,60.3,41.6z"/>
		<path d="M53.9,43.2c-0.1-2.1-1.5-4.2-2.2-5c-0.1-0.2-0.4-0.1-0.5,0c-0.4,0.7-1,2.4-0.8,4c0.3,2.1,1.5,3,1.8,5.5
			C52.3,47.7,54,45.8,53.9,43.2z"/>
		<path d="M62.4,44.7c-0.9-0.1-3.3-0.3-5.6,0.7c-2.2,0.9-3.7,2.8-3.7,2.8c1.7-0.6,3.5-0.7,5.2-0.6c2.1,0.1,3.8-1.2,4.3-2.5
			C62.7,44.9,62.6,44.7,62.4,44.7z"/>
		<path d="M47.9,41.6c-0.5,0.7-1.4,2.3-1.3,4.1c0.2,2.5,1.6,2.9,2,6.2c0,0,2.3-2.6,1.9-4.8c-0.3-2.1-1.3-3.1-2.1-5.4
			C48.4,41.5,48.1,41.4,47.9,41.6z"/>
		<path d="M61,49.4c-1-0.3-3.4-0.9-6-0.2c-3.3,0.9-5.7,3.5-5.7,3.5c3.2-0.8,5.4-0.3,7.9-0.4c1.8-0.1,3-1.2,4-2.4
			C61.3,49.8,61.2,49.5,61,49.4z"/>
	</g>
</g>
</svg>
