<svg height="64" viewBox="0 0 64 64" width="64" xmlns="http://www.w3.org/2000/svg"><path d="m0 0h64v64h-64z" fill="none"/><circle cx="32.0012" cy="9" r="2"/><path d="m52.6128 44.1104c-2.1833-2.3746-8.462-4.4866-11.386-5.3733-.0813-.585-.1777-1.2129-.2767-1.8375.2209-.2032.4454-.411.6783-.6271.6328-.5869 1.3301-1.2344 2.125-1.9404.4023-.3574.5312-.9326.3193-1.4268l-.5566-1.2969c.0596-.416.1611-1.1133.2363-1.5361.0676-.3792.1274-.936.1772-1.5037.0006-.004.0018-.0079.0024-.0118 1.3282-1.2196 2.068-3.1658 2.068-5.5558 0-.7447.0012-2.7025-1.2268-4.0366.2393-2.6286.5392-8.5148-1.2021-10.5245-1.2889-1.4873-3.4501-2.5247-5.7059-3.2559-1.2492-1.9154-3.4068-3.184-5.864-3.184-2.4587 0-4.6175 1.2703-5.8661 3.1877-2.2516.7309-4.4073 1.7676-5.694 3.2522-1.7635 2.0354-1.4819 7.9395-1.2729 10.6054-1.1589 1.332-1.1634 3.2256-1.1634 3.9557 0 2.386.7374 4.3299 2.0614 5.5497.0037.0242.0106.048.0145.0723.0489.5483.1067 1.0823.1718 1.4493.0752.4229.1768 1.1201.2363 1.5361l-.5566 1.2969c-.2119.4941-.083 1.0693.3193 1.4268.7949.7061 1.4912 1.3525 2.124 1.9395.418.3879.8131.7537 1.1962 1.0995-.0491.3807-.0992.7701-.1503 1.1729-2.5129.7345-9.6714 2.9969-12.0341 5.5665-2.8736 3.1239-4.3873 14.8895-4.3873 14.8895h50s-1.5137-11.7656-4.3872-14.8896zm-20.6116-40.2104c2.8166 0 5.1 2.2833 5.1 5.1s-2.2834 5.1-5.1 5.1-5.1-2.2834-5.1-5.1 2.2834-5.1 5.1-5.1zm-10.7325 21.1458c-.2664-.6923-.3663-1.4501-.3663-2.0449 0-1.2725.3217-1.961.7737-2.1743.3922-.1844.7725-.0475 1.013.0886.1414.6527.2484 1.1383.2899 1.3098.206.8512 1.021.773 1.021.773v-6.998h16v6.998s.8198.0782 1.0258-.7729c.0415-.1715.1484-.6571.2898-1.3098.2405-.1362.6209-.2731 1.013-.0886.4521.2133.7738.9018.7738 2.1743 0 .5948-.0999 1.3526-.3663 2.0449-3.8203-.0057-6.1309-.3244-6.8607-.9492-1-.8586-1.8749-2.0965-3.873-2.0965-1.9985 0-2.873 1.2384-3.873 2.097-.7289.6242-3.0395.943-6.8607.9486zm11.1123 24.294c-2.3004-1.75-6.5919-5.5302-6.1588-9.0224.0004-.0035.0007-.0056.0011-.009.0007.0005.0015.0011.0015.0011.0454-.3605.0742-.5997.0976-.7919 1.5308.9374 3.2181 1.4579 5.68 1.4579 2.7903 0 4.587-.6663 6.2865-1.854.0571.4647.1058.9278.1024 1.1398.3266 3.4884-3.5569 7.317-6.0103 9.0785zm-.3786-10.8642c-3.5762 0-4.8496-1.1816-7.9258-4.0361-.46-.4268-.9541-.8848-1.4932-1.374l.3168-.738 5.2229 1.3873c.0393-.0453.1551-.222-.1062-.4286l-5.2115-3.0902c-.0321-.2053-.0639-.4014-.0921-.5601-.0791-.4502-.1553-1.3223-.2119-2.1016 4.6006-.0928 6.2598-.6855 7.2549-1.5391.2402-.2061.46-.418.6738-.625.6582-.6377.9746-.9199 1.5723-.9199.5986 0 .9141.2817 1.5723.9189.2129.207.4336.4199.6738.626.9971.8535 2.6562 1.4463 7.2549 1.5391-.0557.7783-.1318 1.6504-.2119 2.1006-.0282.1591-.0601.3556-.0922.5612l-5.2112 3.09c-.2613.2067-.1455.3834-.1062.4286l5.2227-1.3872.3168.738c-.54.4893-1.0332.9473-1.4941 1.375-3.0753 2.8534-4.3478 4.0351-7.9249 4.0351z"/></svg>