<?xml version="1.0" encoding="utf-8"?>
<!-- Generator: Adobe Illustrator 19.1.0, SVG Export Plug-In . SVG Version: 6.00 Build 0)  -->
<svg version="1.2" baseProfile="tiny" xmlns="http://www.w3.org/2000/svg" xmlns:xlink="http://www.w3.org/1999/xlink" x="0px"
	 y="0px" width="64px" height="64px" viewBox="0 0 64 64" xml:space="preserve">
<g id="_x36_4px_Box">
	<rect fill="none" width="64" height="64"/>
</g>
<g id="Icon">
	<g>
		<circle cx="32.0012" cy="9" r="2"/>
		<path d="M52.6128,44.1104c-2.1833-2.3746-8.462-4.4866-11.386-5.3733c-0.0813-0.585-0.1777-1.2129-0.2767-1.8375
			c0.2209-0.2032,0.4454-0.411,0.6783-0.6271c0.6328-0.5869,1.3301-1.2344,2.125-1.9404c0.4023-0.3574,0.5312-0.9326,0.3193-1.4268
			l-0.5566-1.2969c0.0596-0.416,0.1611-1.1133,0.2363-1.5361c0.0676-0.3792,0.1274-0.936,0.1772-1.5037
			c0.0006-0.004,0.0018-0.0079,0.0024-0.0118C45.2602,27.3372,46,25.391,46,23.001c0-0.7447,0.0012-2.7025-1.2268-4.0366
			c0.2393-2.6286,0.5392-8.5148-1.2021-10.5245c-1.2889-1.4873-3.4501-2.5247-5.7059-3.2559C36.616,3.2686,34.4584,2,32.0012,2
			c-2.4587,0-4.6175,1.2703-5.8661,3.1877c-2.2516,0.7309-4.4073,1.7676-5.694,3.2522c-1.7635,2.0354-1.4819,7.9395-1.2729,10.6054
			c-1.1589,1.332-1.1634,3.2256-1.1634,3.9557c0,2.386,0.7374,4.3299,2.0614,5.5497c0.0037,0.0242,0.0106,0.048,0.0145,0.0723
			c0.0489,0.5483,0.1067,1.0823,0.1718,1.4493c0.0752,0.4229,0.1768,1.1201,0.2363,1.5361l-0.5566,1.2969
			c-0.2119,0.4941-0.083,1.0693,0.3193,1.4268c0.7949,0.7061,1.4912,1.3525,2.124,1.9395c0.418,0.3879,0.8131,0.7537,1.1962,1.0995
			c-0.0491,0.3807-0.0992,0.7701-0.1503,1.1729c-2.5129,0.7345-9.6714,2.9969-12.0341,5.5665C8.5137,47.2344,7,59,7,59h50
			C57,59,55.4863,47.2344,52.6128,44.1104z M32.0012,3.9c2.8166,0,5.1,2.2833,5.1,5.1s-2.2834,5.1-5.1,5.1s-5.1-2.2834-5.1-5.1
			S29.1846,3.9,32.0012,3.9z M21.2687,25.0458c-0.2664-0.6923-0.3663-1.4501-0.3663-2.0449c0-1.2725,0.3217-1.961,0.7737-2.1743
			c0.3922-0.1844,0.7725-0.0475,1.013,0.0886c0.1414,0.6527,0.2484,1.1383,0.2899,1.3098C23.185,23.0762,24,22.998,24,22.998V16h16
			v6.998c0,0,0.8198,0.0782,1.0258-0.7729c0.0415-0.1715,0.1484-0.6571,0.2898-1.3098c0.2405-0.1362,0.6209-0.2731,1.013-0.0886
			c0.4521,0.2133,0.7738,0.9018,0.7738,2.1743c0,0.5948-0.0999,1.3526-0.3663,2.0449c-3.8203-0.0057-6.1309-0.3244-6.8607-0.9492
			c-1-0.8586-1.8749-2.0965-3.873-2.0965c-1.9985,0-2.873,1.2384-3.873,2.097C27.4005,24.7214,25.0899,25.0402,21.2687,25.0458z
			 M32.381,49.3398c-2.3004-1.75-6.5919-5.5302-6.1588-9.0224c0.0004-0.0035,0.0007-0.0056,0.0011-0.009
			c0.0007,0.0005,0.0015,0.0011,0.0015,0.0011c0.0454-0.3605,0.0742-0.5997,0.0976-0.7919c1.5308,0.9374,3.2181,1.4579,5.68,1.4579
			c2.7903,0,4.587-0.6663,6.2865-1.854c0.0571,0.4647,0.1058,0.9278,0.1024,1.1398C38.7179,43.7497,34.8344,47.5783,32.381,49.3398z
			 M32.0024,38.4756c-3.5762,0-4.8496-1.1816-7.9258-4.0361c-0.46-0.4268-0.9541-0.8848-1.4932-1.374l0.3168-0.738l5.2229,1.3873
			c0.0393-0.0453,0.1551-0.222-0.1062-0.4286l-5.2115-3.0902c-0.0321-0.2053-0.0639-0.4014-0.0921-0.5601
			c-0.0791-0.4502-0.1553-1.3223-0.2119-2.1016c4.6006-0.0928,6.2598-0.6855,7.2549-1.5391c0.2402-0.2061,0.46-0.418,0.6738-0.625
			c0.6582-0.6377,0.9746-0.9199,1.5723-0.9199c0.5986,0,0.9141,0.2817,1.5723,0.9189c0.2129,0.207,0.4336,0.4199,0.6738,0.626
			c0.9971,0.8535,2.6562,1.4463,7.2549,1.5391c-0.0557,0.7783-0.1318,1.6504-0.2119,2.1006
			c-0.0282,0.1591-0.0601,0.3556-0.0922,0.5612l-5.2112,3.09c-0.2613,0.2067-0.1455,0.3834-0.1062,0.4286l5.2227-1.3872
			l0.3168,0.738c-0.54,0.4893-1.0332,0.9473-1.4941,1.375C36.852,37.2939,35.5795,38.4756,32.0024,38.4756z"/>
	</g>
</g>
</svg>
