<svg height="64" viewBox="0 0 64 64" width="64" xmlns="http://www.w3.org/2000/svg"><path d="m0 0h64v64h-64z" fill="none"/><path d="m41.2268 38.7371c-.155-1.1155-.3614-2.4073-.5466-3.4836 1.7886-2.1667 2.8874-4.4047 3.2495-6.6968 1.3281-1.2195 2.0679-3.1657 2.0679-5.5557 0-.7447.0012-2.7025-1.2268-4.0366.1227-1.3489.2245-2.6572.2233-3.8806 2.2283-.753 1.9371-1.8961 1.9559-2.9943.0522-3.0549-2.3876-6.7133-16.95-8.7986-10.3154-1.4771-12 3.0083-12 5.8657 0 2.1949.2535 3.6153 1.0533 4.5612-.0956 1.8407-.0085 3.7848.1125 5.3275-1.1589 1.332-1.1634 3.2256-1.1634 3.9557 0 2.386.7374 4.3299 2.0614 5.5497.3819 2.5118 1.613 4.9141 3.7105 7.2619-.106.807-.2283 1.7498-.353 2.7313-2.5129.7345-9.6714 2.9969-12.0341 5.5665-2.8735 3.124-4.3872 14.8896-4.3872 14.8896h1.4554 1.5463 9.8537s-.2358-3.2448-2.5259-2.9657l-.8888 1.3125c-.7777-.0884-.0117-2.2504-.0117-2.2504.3163-.6971-.8652-2.0278-1.7749-1.2767l-1.9304 2.0544c-1.6541-.5427-.2564-2.028-1.6549-2.6339.744-3.2939 1.674-6.1721 2.5266-7.0986 1.1245-1.2227 4.937-2.957 9.6519-4.4131.4922 3.9873 4.1255 7.5703 7.3174 9.999l1.7646 1.3428.0106-.0076c.4127 1.2127.0229 2.7575 1.7337 2.7573 2.5057-.0003 2.3347-1.9005 2.4213-3.1315.088-1.2502 1.8984-1.2012 2.5377-.2825.4416.6347.5149 1.1392 1.3569 1.2653.6191.0927 2.3711-.2784 2.5569-1.9041.1859-1.6263-.9194-1.601-2.1951-1.3815-1.727.2971-1.8737-1.7987-.688-1.9496 2.2214-.2828 2.3641-1.3643 2.5367-1.8227.5024-1.3336-.6633-2.2625-1.7609-2.8903.2173-.5876.3826-1.1945.478-1.8167 2.2239.7075 4.0113 1.3975 5.4099 2.0283-.978 1.0561-2.3674 2.7635-1.7993 3.4127.8469.968 2.8433-.9074 2.6618.5445s-.668 2.4803-1.9384 2.9643c-1.2704.4839-.5506 3.9043 2.4483 2.6781 2.9988-1.2262 3.6829-1.4205 3.4223 1.0726-.2145 2.0518.8281 1.8242 1.9058 1.049.0217.1148.0443.2294.0654.3442l.5162 3h2.9909s-1.5137-11.7656-4.3872-14.8896c-2.1834-2.3747-8.462-4.4867-11.386-5.3734zm-6.2268-30.0329c0-.389.3048-.7042.6808-.7042h3.6383c.3761 0 .6809.3152.6809.7042v3.2958c0 .2112-.0917.4113-.2497.545l-1.8192 1.5394c-.2508.2122-.6115.2122-.8623 0l-1.8192-1.5394c-.1579-.1337-.2496-.3338-.2496-.545zm.7183 26.9997c-.7807.6644-2.2499 1.1066-3.7188 1.1055-1.0628-.0008-2.1255-.2865-2.9271-.6349.6138.9305 1.6553 2.0744 3.5848 2.5851 3.1548.8349 5.4595-.9139 5.4595-.9139s.2828 1.9133.2745 2.4157c.3267 3.4883-3.5568 7.3169-6.0102 9.0784-2.3003-1.75-6.5919-5.5302-6.1588-9.0224.237-1.9129.0408-.5492.8235-5.4371-2.2767-2.2-4.1043-4.8665-4.1043-8.061-1.6177-.5039-2.0414-2.5454-2.0414-3.8183 0-1.2725.3217-1.961.7737-2.1743.3922-.1844.7725-.0475 1.013.0886.1414.6527.2484 1.1383.2898 1.3098.2061.8511 1.0235.7729 1.0235.7729v-7.5241c1.1766.1213 2.5678.2021 4.2224.2761 5.2733.2357 9.0531.241 11.7776.0833v7.1647s.8174.0782 1.0234-.7729c.0415-.1715.1484-.6571.2898-1.3098.2405-.1362.6209-.2731 1.013-.0886.4521.2133.7738.9018.7738 2.1743 0 1.2729-.4237 3.3144-2.0414 3.8183 0 3.7027-2.5335 6.4959-5.3403 8.8846z"/><path d="m38 56h11v3h-11z"/><path d="m18.034 50.8884c-.4544.1486-1.7196-.0837-1.6251.6226.0229.1716.1174.3297.2146.48.4451.688 1.0346 1.3531 1.8387 1.6351.5781.2028 1.2148.1857 1.801.0542 1.4987-.3362 2.8176-1.3022 4.3905-.3933.2589.1495.4938.3362.7632.4676 1.3869.6761 1.259-1.1889 1.0078-1.9302-.2121-.626-.5782-1.2015-.9503-1.7648-.2682-.4061-.6035-.8503-1.1024-.931-.3771-.061-.7431.1083-1.1229.1105-.3303.0018-.5707-.1044-.7621-.2684-.3103-.2658-.4919-.6833-.7194-1.038-.5015-.7815-1.0465-1.5336-1.7061-2.2122-.2734-.2812-.611-.5723-1.0097-.5679-.3598.004-.6463.2485-.8965.4792-.5307.4894-1.076 1.0088-1.2909 1.6812-.2148.6725.0189 1.541.7134 1.8655.2444.1142.5188.1512.7722.245.991.3665.3884 1.2344-.316 1.4649z"/><path d="m30.3413 56.4789c-1.2203-.4202-1.5386 1.8787-2.918.2452-1.3794-1.6334-6.6847-1.9819-5.1462 2.2759h8.4355s.8489-2.1009-.3713-2.5211z"/><path d="m46.7457 36.097c-.0765.133-.0504.2675.0938.3197.6509.2363 1.8762.4194 3.5987.5281-.0481.4365-.1158 1.1881-.1926 1.5822-.0545.2792-.216.5253-.4824.6251-.1674.0627-.3105.1453-.4742.2354 2.0494.9579 3.8516 2.0461 4.9435 3.2336.915.9948 1.6863 2.5825 2.3336 4.3789h6.4339s-.0581-3.9122-1.2523-5.1694c-.4075-.4291-1.2192-.8967-2.1119-1.3276-1.1692-.5784-2.7159-1.0901-3.4119-1.3509-.2664-.0997-.4353-.3444-.4824-.6251-.0584-.3483-.1238-1.0745-.1753-1.5093 1.7633-.0717 2.9615-.2455 3.5679-.4766.1198-.0456.1804-.1555.127-.272-.3317-.7239-1.194-2.8946-1.3024-4.1379-.0552-.6321-.0779-1.3688-.115-2.1256.3895-.0671 2.243-.4443 2.1476-1.5331-.1651-1.8829-8.5359-7.1357-11.513-4.842-1.0598.8166-.0829 2.4912.3441 3.121-1.0458 1.895-.7649 4.1551-.8195 5.476-.0433 1.044-.8977 3.245-1.2572 3.8695z"/><path d="m9.7681 42.6211c1.213-1.319 3.313-2.5125 5.5878-3.524-.532-.1066-1.1248-.1909-1.3823-.2604-.2872-.0775-.4644-.3277-.5438-.6144-.1022-.3686-.1328-.8326-.1328-.8326.7592-.8847 1.3223-1.9476 1.5167-3.34.7641-.238.9171-1.2024.9171-1.8037 0-.6011-.1047-.9264-.3183-1.0271-.1569-.0737-.302-.0382-.4124.0131v-2.4248c.9308-.7787 1.5-1.6625 1.5-2.2762 0-1.3384-2.6863-2.4234-6-2.4234s-6 1.085-6 2.4234c0 .6136.5692 1.4974 1.5 2.2762v2.3934c-.0989-.0308-.2186-.0405-.3436.0183-.2136.1007-.3184.426-.3184 1.0271 0 .6013.1529 1.5657.9171 1.8037.1712 1.44.725 2.4588 1.4686 3.3089 0 0-.0183.4353-.0999.849-.0588.2986-.2468.5551-.5399.637-1.201.3356-3.8576 1.178-4.7932 2.1632-1.1941 1.2572-1.2908 5.9922-1.2908 5.9922h6.4342c.6473-1.7964 1.4187-3.3841 2.3339-4.3789z"/></svg>