<?xml version="1.0" encoding="utf-8"?>
<!-- Generator: Adobe Illustrator 18.1.1, SVG Export Plug-In . SVG Version: 6.00 Build 0)  -->
<svg version="1.2" baseProfile="tiny" xmlns="http://www.w3.org/2000/svg" xmlns:xlink="http://www.w3.org/1999/xlink" x="0px"
	 y="0px" width="64px" height="64px" viewBox="0 0 64 64" xml:space="preserve">
<g id="Box">
	<rect fill="none" width="64" height="64"/>
</g>
<g id="Icon">
	<path d="M47,41h4v2c-1.3315,0-2.6685,0-4,0V41z M62,49c0,1.1304,0,6.7827-0.565,10.174c-0.1949,1.1728-1.0873,2.0651-2.2607,2.2607
		C55.7829,62,50.1301,62,49.0001,62c-1.1301,0-6.7828,0-10.1743-0.5653c-1.1734-0.1956-2.0657-1.0879-2.2607-2.2607
		C36,55.7827,36,50.1304,36,49c0-1.1303,0-6.7827,0.5651-10.174c0.195-1.1729,1.0873-2.0652,2.2607-2.2607
		C42.2172,36,47.8699,36,49.0001,36c1.1301,0,6.7828,0,10.1742,0.5654c1.1735,0.1955,2.0658,1.0878,2.2607,2.2607
		C62,42.2173,62,45.607,62,49z M43,43c-0.8986,0-2.0038,0-2.925,0c-0.5513,0-1.035,0.447-1.0729,0.9988
		c-0.2694,3.9963-0.2694,8.0062,0,12.0024C39.0399,56.553,39.5237,57,40.075,57c0.926,0,2.0211,0,2.925,0V43z M53,40.5
		c0-0.8271-0.6729-1.5-1.5-1.5h-5c-0.8271,0-1.5,0.6729-1.5,1.5V57c2.6824,0,5.317,0,8,0V40.5z M58.998,43.9988
		C58.9601,43.447,58.4763,43,57.925,43c-0.9211,0-2.0264,0-2.925,0v14c0.9,0,2.0032,0,2.925,0c0.5513,0,1.0351-0.447,1.073-0.9988
		C59.2674,52.0049,59.2674,47.9951,58.998,43.9988z M15.4032,60H1c0,0,1.5137-11.7656,4.3872-14.8896
		c0.7834-0.8521,2.0981-1.6686,3.592-2.4086c0.425-0.8922,0.6433-1.6479,1.5764-1.9484l6.9996-2.2539
		c0.0769-0.5973,0.1518-1.1744,0.2191-1.687c-2.0975-2.3478-3.3286-4.7501-3.7105-7.2619c-1.324-1.2198-2.0614-3.1637-2.0614-5.5497
		c0-0.7301,0.0045-2.6237,1.1634-3.9557c-0.0579-0.7378-0.1664-3.3444-0.2108-4.767C11.1688,13.8995,9.9999,12.3911,9.9999,11
		c0-5.3253,7.1635-8,16-8s16,2.6747,16,8c0,1.4807-1.1752,3.0956-3.0291,4.5446c0.0455,1.3736-0.0587,2.8662-0.2001,4.4198
		c1.228,1.3341,1.2268,3.2919,1.2268,4.0366c0,2.39-0.7398,4.3362-2.0679,5.5557c-0.3149,1.9936-1.1885,3.9462-2.5873,5.8466
		c-0.0009,0.0013-0.002,0.0016-0.0029,0.0029c-0.7068,0.9719-2.792,3.232-3.6381,3.7029c-0.7992,0.4534-2.6833,1.2753-5.0443,0.6505
		c-1.9295-0.5107-2.9709-1.6546-3.5848-2.5851c0.8016,0.3484,1.8643,0.6341,2.9271,0.6349c1.4689,0.0011,2.938-0.4411,3.7188-1.1055
		c2.8068-2.3887,5.3403-5.1819,5.3403-8.8846C36.6763,27.3154,37.1,25.2739,37.1,24.001c0-1.2725-0.3217-1.961-0.7738-2.1743
		c-0.3921-0.1844-0.7725-0.0475-1.013,0.0886c-0.1414,0.6527-0.2483,1.1383-0.2898,1.3098C34.8174,24.0762,34,23.998,34,23.998
		v-3.6053C32.1761,21.3668,29.2766,22,25.9999,22c-3.2766,0-6.176-0.6332-7.9999-1.6072v3.6052c0,0-0.8174,0.0782-1.0234-0.7729
		c-0.0414-0.1715-0.1484-0.6571-0.2898-1.3098c-0.2405-0.1362-0.6208-0.2731-1.013-0.0886C15.2217,22.04,14.9,22.7285,14.9,24.001
		c0,1.2729,0.4236,3.3144,2.0414,3.8183c0,3.1945,1.8276,5.8611,4.1043,8.061c-0.2448,1.2226-0.3342,1.7888-0.5748,3.6736
		C20.1882,41.7692,22.9219,44,25.9999,44c0.758,0,1.5106-0.0423,2.2181-0.1454L15.4032,60z M16,14.85
		c0,0.3459,0.1213,0.6798,0.3278,1c1.1118-1.7243,5.0143-2.83,9.6722-2.83s8.5605,1.1057,9.6722,2.83
		C35.8787,15.5298,36,15.1959,36,14.85c0-2.2091-4.4772-4-10-4S16,12.6409,16,14.85z M33,49c0-0.5508,0.0048-1.1467,0.0125-1.7574
		L22.8867,60h10.8019C33.0955,57.4049,33,51.6898,33,49z"/>
</g>
</svg>
