<svg height="64" viewBox="0 0 64 64" width="64" xmlns="http://www.w3.org/2000/svg"><path d="m0 0h64v64h-64z" fill="none"/><path d="m0 0h64v64h-64z" fill="none"/><path d="m13.8082 43.9658c-.0911-1.0023-.0121-1.9161.2017-2.7503-1.9094.8605-3.663 1.8512-4.6226 2.8949-2.8736 3.124-4.3873 14.8896-4.3873 14.8896h7.7369c-.0215-.0411-.0523-.0746-.0699-.1187-.1903-.4778-4.4071-11.2688 1.1412-14.9155z"/><path d="m30.0762 49.439v-.1431c-.0193.0139-.0405.0303-.0596.0439-2.3003-1.75-6.2275-5.5302-5.7944-9.0224.237-1.9129.0408-.5492.8235-5.4371-2.2767-2.2-4.1043-4.8665-4.1043-8.061-1.6177-.5039-2.0414-2.5454-2.0414-3.8183 0-1.2725.3217-1.961.7737-2.1743.3922-.1844.7725-.0475 1.013.0886.1414.6527.2484 1.1383.2898 1.3098.2061.8511 1.0235.7729 1.0235.7729v-6.7451c2.0731-.1505 6.1937-.7531 10.7499-3.1062l5.2501 3.5262v6.3251s.8174.0782 1.0234-.7729c.0415-.1715.1484-.6571.2898-1.3098.2405-.1362.6209-.2731 1.013-.0886.4521.2133.7738.9018.7738 2.1743 0 1.2729-.4237 3.3144-2.0414 3.8183 0 3.7027-2.5335 6.4959-5.3403 8.8846-.7807.6644-2.2499 1.1066-3.7188 1.1055-1.0628-.0008-2.1255-.2865-2.9271-.6349.6138.9305 1.6553 2.0744 3.5848 2.5851 3.1548.8349 5.4595-.9139 5.4595-.9139s.2828 1.9133.2745 2.4157c.0261.2784.0136.5593-.0154.8408l2.8246-2.5475c-.1518-1.0731-.3448-2.2818-.5203-3.3013 1.7886-2.1667 2.8874-4.4047 3.2495-6.6968 1.3281-1.2195 2.0679-3.1657 2.0679-5.5557 0-.7447.0012-2.7025-1.2268-4.0366.3036-3.3378.515-8.5034-.7869-10.587-1.6026-2.5649-3.5498-3.8159-7.2632-2.9775-2.4355-1.1577-4.0937-1.8823-8.3608-.8398-2.9648.7241-6.21 1.9067-7.92 3.8798-1.652 1.9066-1.5394 7.2237-1.2741 10.6054-1.1589 1.332-1.1634 3.2256-1.1634 3.9557 0 2.386.7374 4.3299 2.0614 5.5497.3819 2.5118 1.613 4.9141 3.7105 7.2619-.106.807-.2283 1.7498-.353 2.7313-.5007.1464-1.1556.3155-1.9857.6137-1.047.3762-2.9229.9445-2.9774 3.8391.979-.1049 1.9563.0553 2.8914.4868 4.6001 2.1245 6.8276 9.9404 6.9204 10.2725.4185 1.4976-1.9248 2.5256-3.4109 2.9915-1.1759.3686-1.5253-.1785-1.8027-.9836-.2753-.7988-.1559-1.3245.8812-1.9591.3484-.2131.8065-.4561 1.2941-.6506-.8629-2.3426-2.6744-6.1389-5.0139-7.2195-.8242-.3799-1.6138-.3687-2.4868.0352-3.4076 1.5762-1.8391 7.9383-.9826 10.663.4782-.201.97-.3459 1.363-.4355 1.1605-.2649 1.6043.0261 1.9592.7833.4728 1.009.3344 1.4951-.7527 2.0195h12.6822 3v-6.0605c-1.6602-.2995-2.9238-1.7555-2.9238-3.5006z"/><path d="m60.5713 47.7935-13.1904-11.8965c-.2133-.196-.5413-.196-.7546 0l-13.1903 11.8965c-.2294.2112-.36.5085-.36.8199v.8254c0 .3076.2495.5572.5572.5572h2.3668v12.004h22v-12.004h2.3741c.3077 0 .5571-.2496.5571-.5572v-.8254c0-.3114-.1305-.6087-.3599-.8199zm-9.5713 9.2065h-8v-6h8z"/></svg>