<svg viewBox="0 0 64 64" xmlns="http://www.w3.org/2000/svg"><path d="m0 0h64v64h-64z" fill="none"/><path d="m39.86 41.76c2.06-3.27 5.33-9 7.45-13.16 1.61-3.16.41-5.89-1.72-6.84a5.61 5.61 0 0 0 -2.27-.71 4.84 4.84 0 0 0 -1.53.05 7 7 0 0 0 -1.15.38c-1.78.67-6.73 4-7.63 3.8s-7.73-3.28-7.73-3.28a2.47 2.47 0 0 0 .44 3.47 44.62 44.62 0 0 0 6.58 3.91c1.17.22 3-.58 3.85-1-1.15 1.55-1.85 2.62-3.93 5.87-2.7-1.14-6.51-2.53-8.57-3.43-3.84-1.67-4.83-1.9-7.9.93a103.52 103.52 0 0 0 -11.15 12.25c.78.7 2.34 2.55 6.53-.25.45-.3 1-.71 1-.71s2.92-4.34 4-6.16c.17-.29.42-.24.46-.17l-5.54 18.49c1 .31 4.51 1.12 6.4-3.16s5.17-12.17 5.17-12.17 8.18 2.57 10.61 3.27c3.35.96 5.29.74 6.63-1.38z"/><path d="m19.84 27.36 10.58 4.64.28-.65a1 1 0 0 0 -.5-1.3l-9.35-4.15-2.59-9.89a1 1 0 0 0 -1.21-.71l-.69.18 2.93 11.19a1 1 0 0 0 .55.69z"/><path d="m55.6 24.59a1.5 1.5 0 1 0 -2.6-1.46l-11.17 19.93a6 6 0 0 1 -6.83 2.77l-10.32-3.11a1.5 1.5 0 0 0 -.87 2.87l6.94 2.1-3.38 7.43h3.5l2.7-6.57.51.15a8.61 8.61 0 0 0 2.55.38 9 9 0 0 0 5.51-1.88l4.35 7.92h3.51l-5.82-10.18c.09-.14.19-.27.27-.42z"/><path d="m45.18 19.71c2.77.34 4.6-1.45 4.91-4.31.35-3.26-1.14-5.21-3.84-5.54s-4.61 1.54-4.93 4.48 1.08 5.04 3.86 5.37z"/></svg>