<svg enable-background="new 0 0 64 64" height="64" viewBox="0 0 64 64" width="64" xmlns="http://www.w3.org/2000/svg"><path d="m0 0h64v64h-64z" fill="none"/><path d="m38 39.6c-1.1-.4-2-.7-2.8-.9-.2-1.1-.4-2.4-.5-3.5 1.8-2.2 2.9-4.4 3.2-6.7 1.3-1.2 2.1-3.2 2.1-5.6 0-.7 0-2.7-1.2-4 .3-3.3.5-8.5-.8-10.6-1.6-2.6-3.5-3.8-7.3-3-2.4-1.2-4.1-1.9-8.4-.8-3 .7-6.2 1.9-7.9 3.9-1.7 1.9-1.5 7.2-1.3 10.6-1.1 1.4-1.1 3.3-1.1 4 0 2.4.7 4.3 2.1 5.5.4 2.5 1.6 4.9 3.7 7.3-.1.8-.2 1.7-.4 2.7-2.5.7-9.7 3-12 5.6-2.9 3.1-4.4 14.9-4.4 14.9h37zm-11.6 9.7c-2.3-1.8-6.6-5.5-6.2-9 .2-1.9 0-.5.8-5.4-2.3-2.2-4.1-4.9-4.1-8.1-1.6-.5-2-2.5-2-3.8s.3-2 .8-2.2c.4-.2.8 0 1 .1.1.7.2 1.1.3 1.3.2.9 1 .8 1 .8v-6.7c2.1-.2 6.2-.8 10.8-3.1l5.2 3.5v6.3s.8.1 1-.8c0-.2.1-.7.3-1.3.2-.1.6-.3 1-.1.5.2.8.9.8 2.2s-.4 3.3-2 3.8c0 3.7-2.5 6.5-5.3 8.9-.8.7-2.2 1.1-3.7 1.1-1.1 0-2.1-.3-2.9-.6.6.9 1.7 2.1 3.6 2.6 3.2.8 5.5-.9 5.5-.9s.3 1.9.3 2.4c.1 3.4-3.8 7.3-6.2 9z"/><path d="m62.5 33h-3.5v-6.5c0-.3-.2-.5-.5-.5h-13c-.3 0-.5.2-.5.5v9.5h12v27h6v-29.5c0-.3-.2-.5-.5-.5z"/><path d="m55 38h-14v25h3v-5h3v5h8zm-8 17h-3v-3h3zm0-5h-3v-3h3zm0-5h-3v-3h3zm5 10h-3v-3h3zm0-5h-3v-3h3zm0-5h-3v-3h3z"/></svg>