<?xml version="1.0" encoding="utf-8"?>
<!-- Generator: Adobe Illustrator 17.1.0, SVG Export Plug-In . SVG Version: 6.00 Build 0)  -->
<svg version="1.2" baseProfile="tiny" xmlns="http://www.w3.org/2000/svg" xmlns:xlink="http://www.w3.org/1999/xlink" x="0px"
	 y="0px" width="64px" height="64px" viewBox="0 0 64 64" xml:space="preserve">
<g id="_x36_4px_Boxes">
	<rect fill="none" width="64" height="64"/>
</g>
<g id="Production">
	<g>
		<path d="M43.3955,56.1353c-6.112,0-11.2282-4.328-12.4572-10.0796c-1.146,1.3546-2.4875,2.516-3.5573,3.2841
			c-2.3003-1.75-6.5919-5.5302-6.1588-9.0224c0.237-1.9129,0.0408-0.5492,0.8235-5.4371c-2.2767-2.2-4.1043-4.8665-4.1043-8.061
			c-1.6177-0.5039-2.0414-2.5454-2.0414-3.8183c0-1.2725,0.3217-1.961,0.7737-2.1743c0.3922-0.1844,0.7725-0.0475,1.013,0.0886
			c0.1414,0.6527,0.2484,1.1383,0.2898,1.3098C18.1826,23.0762,19,22.998,19,22.998v-6.7451
			c2.0731-0.1505,6.1937-0.7531,10.7499-3.1062L35,16.6729v6.3251c0,0,0.8174,0.0782,1.0234-0.7729
			c0.0415-0.1715,0.1484-0.6571,0.2898-1.3098c0.2405-0.1362,0.6209-0.2731,1.013-0.0886C37.7783,21.04,38.1,21.7285,38.1,23.001
			c0,1.2729-0.4237,3.3144-2.0414,3.8183c0,2.2718-0.9559,4.2002-2.3412,5.9039L33.7,32.7291
			c-0.6512,0.7996-1.3917,1.5524-2.1758,2.2661c-0.006,0.0054-0.0119,0.0107-0.0179,0.0161
			c-0.2571,0.2336-0.5189,0.4632-0.7838,0.6887c-0.0015,0.0012-0.0029,0.0026-0.0043,0.0038
			c-0.0031,0.0026-0.0071,0.0049-0.0103,0.0076c-0.361,0.304-0.9251,0.5886-1.6098,0.7936v0.006
			c-0.644,0.1901-1.3711,0.299-2.0987,0.2984c-1.0628-0.0008-2.1255-0.2865-2.9271-0.6349
			c0.6138,0.9305,1.6553,2.0744,3.5848,2.5851c0.5078,0.1343,0.9844,0.1868,1.441,0.2049v0.0139
			c0.0547,0.0021,0.1093-0.0062,0.1641-0.0055c0.2099,0.0031,0.4102-0.0048,0.6069-0.0202
			c0.0878-0.0067,0.1751-0.0099,0.2625-0.0201c0.3035-0.0357,0.5945-0.084,0.8597-0.1501v0.0005
			c0.1028-0.0219,0.3003-0.079,0.5192-0.1519c0.0262-0.0087,0.0574-0.0154,0.083-0.0242c0.0004-0.0011,0.001-0.0021,0.0015-0.0032
			c0.0048-0.0017,0.0093-0.0044,0.014-0.0061c0.1309-0.0453,0.2642-0.094,0.3908-0.1471v-0.0182
			c0.0135-0.0062,0.0267-0.0162,0.0403-0.0225c0.5922-0.2755,1.1579-0.6586,1.6897-1.107c0.0073-0.0061,0.0145-0.0121,0.0217-0.0183
			c0.5275-0.4471,1.0198-0.9494,1.467-1.4687c0.1022-0.1173,0.201-0.2355,0.3002-0.3558c0.0588-0.0721,0.1147-0.1434,0.1716-0.2154
			c0.6919-0.8658,1.2999-1.7778,1.7869-2.6354C37.6931,32.2362,37.8155,32,37.8155,32l-0.0076-0.0019
			c0.0083-0.0168,0.0146-0.0338,0.0228-0.0505c0.0049-0.0026,0.0097-0.0056,0.0148-0.0081
			c0.5402-1.1128,0.9038-2.2411,1.0842-3.3828c1.3281-1.2195,2.0679-3.1657,2.0679-5.5557c0-0.7447,0.0012-2.7025-1.2268-4.0366
			c0.3036-3.3378,0.515-8.5034-0.7869-10.587c-1.6026-2.5649-3.5498-3.8159-7.2632-2.9775
			c-2.4355-1.1577-4.0937-1.8823-8.3608-0.8398c-2.9648,0.7241-6.21,1.9067-7.92,3.8798c-1.652,1.9066-1.5394,7.2237-1.2741,10.6054
			c-1.1589,1.332-1.1634,3.2256-1.1634,3.9557c0,2.386,0.7374,4.3299,2.0614,5.5497c0.3819,2.5118,1.613,4.9141,3.7105,7.2619
			c-0.106,0.807-0.2283,1.7498-0.353,2.7313c-2.5129,0.7345-9.6714,2.9969-12.0341,5.5665C3.5137,47.2344,2,59,2,59h25h23.8163
			l-3.4905-3.4904C46.0585,55.9218,44.7285,56.1353,43.3955,56.1353z"/>
		<path d="M58.2736,54.3574l-6.4614-6.385c0.7106-1.3208,1.1158-2.8293,1.1158-4.4312c0-5.1729-4.2093-9.3812-9.3832-9.3812
			c-5.1732,0-9.3818,4.2083-9.3818,9.3812c0,5.1743,4.2087,9.3839,9.3818,9.3839c1.5812,0,3.0699-0.397,4.3783-1.0906l6.474,6.3989
			c0.4327,0.4327,0.9864,0.6732,1.5535,0.7214c0.7092,0.0602,1.4394-0.1802,1.9805-0.7214l0.3425-0.3424
			c0.5326-0.5326,0.7739-1.2451,0.7252-1.9413C58.9581,55.3698,58.7161,54.8012,58.2736,54.3574z M43.5448,49.227
			c-3.1378,0-5.6837-2.5452-5.6837-5.6857c0-3.1377,2.5459-5.6829,5.6837-5.6829c3.1391,0,5.685,2.5452,5.685,5.6829
			C49.2298,46.6818,46.6839,49.227,43.5448,49.227z"/>
	</g>
</g>
</svg>
