<svg height="64" viewBox="0 0 64 64" width="64" xmlns="http://www.w3.org/2000/svg"><path d="m0 0h64v64h-64z" fill="none"/><path d="m43.3955 56.1353c-6.112 0-11.2282-4.328-12.4572-10.0796-1.146 1.3546-2.4875 2.516-3.5573 3.2841-2.3003-1.75-6.5919-5.5302-6.1588-9.0224.237-1.9129.0408-.5492.8235-5.4371-2.2767-2.2-4.1043-4.8665-4.1043-8.061-1.6177-.5039-2.0414-2.5454-2.0414-3.8183 0-1.2725.3217-1.961.7737-2.1743.3922-.1844.7725-.0475 1.013.0886.1414.6527.2484 1.1383.2898 1.3098.2061.8511 1.0235.7729 1.0235.7729v-6.7451c2.0731-.1505 6.1937-.7531 10.7499-3.1062l5.2501 3.5262v6.3251s.8174.0782 1.0234-.7729c.0415-.1715.1484-.6571.2898-1.3098.2405-.1362.6209-.2731 1.013-.0886.4521.2133.7738.9018.7738 2.1743 0 1.2729-.4237 3.3144-2.0414 3.8183 0 2.2718-.9559 4.2002-2.3412 5.9039l-.0174.0059c-.6512.7996-1.3917 1.5524-2.1758 2.2661-.006.0054-.0119.0107-.0179.0161-.2571.2336-.5189.4632-.7838.6887-.0015.0012-.0029.0026-.0043.0038-.0031.0026-.0071.0049-.0103.0076-.361.304-.9251.5886-1.6098.7936v.006c-.644.1901-1.3711.299-2.0987.2984-1.0628-.0008-2.1255-.2865-2.9271-.6349.6138.9305 1.6553 2.0744 3.5848 2.5851.5078.1343.9844.1868 1.441.2049v.0139c.0547.0021.1093-.0062.1641-.0055.2099.0031.4102-.0048.6069-.0202.0878-.0067.1751-.0099.2625-.0201.3035-.0357.5945-.084.8597-.1501v.0005c.1028-.0219.3003-.079.5192-.1519.0262-.0087.0574-.0154.083-.0242.0004-.0011.001-.0021.0015-.0032.0048-.0017.0093-.0044.014-.0061.1309-.0453.2642-.094.3908-.1471v-.0182c.0135-.0062.0267-.0162.0403-.0225.5922-.2755 1.1579-.6586 1.6897-1.107.0073-.0061.0145-.0121.0217-.0183.5275-.4471 1.0198-.9494 1.467-1.4687.1022-.1173.201-.2355.3002-.3558.0588-.0721.1147-.1434.1716-.2154.6919-.8658 1.2999-1.7778 1.7869-2.6354.2159-.373.3383-.6092.3383-.6092l-.0076-.0019c.0083-.0168.0146-.0338.0228-.0505.0049-.0026.0097-.0056.0148-.0081.5402-1.1128.9038-2.2411 1.0842-3.3828 1.3281-1.2195 2.0679-3.1657 2.0679-5.5557 0-.7447.0012-2.7025-1.2268-4.0366.3036-3.3378.515-8.5034-.7869-10.587-1.6026-2.5649-3.5498-3.8159-7.2632-2.9775-2.4355-1.1577-4.0937-1.8823-8.3608-.8398-2.9648.7241-6.21 1.9067-7.92 3.8798-1.652 1.9066-1.5394 7.2237-1.2741 10.6054-1.1589 1.332-1.1634 3.2256-1.1634 3.9557 0 2.386.7374 4.3299 2.0614 5.5497.3819 2.5118 1.613 4.9141 3.7105 7.2619-.106.807-.2283 1.7498-.353 2.7313-2.5129.7345-9.6714 2.9969-12.0341 5.5665-2.8735 3.124-4.3872 14.8896-4.3872 14.8896h25 23.8163l-3.4905-3.4904c-1.2673.4122-2.5973.6257-3.9303.6257z"/><path d="m58.2736 54.3574-6.4614-6.385c.7106-1.3208 1.1158-2.8293 1.1158-4.4312 0-5.1729-4.2093-9.3812-9.3832-9.3812-5.1732 0-9.3818 4.2083-9.3818 9.3812 0 5.1743 4.2087 9.3839 9.3818 9.3839 1.5812 0 3.0699-.397 4.3783-1.0906l6.474 6.3989c.4327.4327.9864.6732 1.5535.7214.7092.0602 1.4394-.1802 1.9805-.7214l.3425-.3424c.5326-.5326.7739-1.2451.7252-1.9413-.0407-.5799-.2827-1.1485-.7252-1.5923zm-14.7288-5.1304c-3.1378 0-5.6837-2.5452-5.6837-5.6857 0-3.1377 2.5459-5.6829 5.6837-5.6829 3.1391 0 5.685 2.5452 5.685 5.6829 0 3.1405-2.5459 5.6857-5.685 5.6857z"/></svg>