<?xml version="1.0" encoding="utf-8"?>
<!-- Generator: Adobe Illustrator 19.1.0, SVG Export Plug-In . SVG Version: 6.00 Build 0)  -->
<svg version="1.2" baseProfile="tiny" xmlns="http://www.w3.org/2000/svg" xmlns:xlink="http://www.w3.org/1999/xlink" x="0px"
	 y="0px" width="64px" height="64px" viewBox="0 0 64 64" xml:space="preserve">
<g id="Box">
	<rect fill="none" width="64" height="64"/>
</g>
<g id="Icon">
	<path d="M52.6128,44.1104c-1.3254-1.4415-4.1591-2.7842-6.8362-3.8168l1.7128,3.6254c0.2758,0.5836-0.0043,1.2736-0.6049,1.5098
		c-5.7711,2.2699-12.5928,5.5869-12.5928,5.5869c8.5657-6.2211,7.0322-11.2017,6.8464-12.884
		c-0.0002-0.0021,0.0006-0.003,0.0005-0.005c-0.1407-0.9595-0.3059-1.9871-0.4585-2.8732c1.7886-2.1667,2.8875-4.4047,3.2495-6.6968
		c1.3281-1.2195,2.0679-3.1657,2.0679-5.5557c0-0.7447,0.0012-2.7025-1.2268-4.0366c0.0573-0.6284,0.1526-1.3984,0.2053-2.1449
		L45,16.8171c0-1.259,0-2.27,0-3.4997c1.8809-0.5702,3-1.2672,3-2.0223c0-0.538,0-2.2791,0-2.8171C48,6.5571,40.8365,5,32,5
		S16,6.5571,16,8.478c0,0.538,0,2.2791,0,2.8171c0,0.7552,1.1191,1.4521,3,2.0223c0,1.2302,0,2.2406,0,3.4997l0.0135,0.0014
		c0.0323,0.7886,0.0992,1.5508,0.1522,2.2268c-1.1589,1.332-1.1633,3.2256-1.1633,3.9557c0,2.386,0.7373,4.3299,2.0614,5.5497
		c0.382,2.5118,1.6129,4.9141,3.7104,7.2619c-0.106,0.807-0.3282,1.6498-0.453,2.6313c-0.0024,0.0007-0.0057,0.0017-0.0082,0.0024
		c-0.4161,2.8973-0.6893,7.454,6.3229,12.5693c0,0-6.6257-3.3002-12.4187-5.5507c-0.6367-0.2473-0.8961-1.0087-0.5487-1.5969
		l2.3424-3.9653c-2.8767,1.0958-6.156,2.6113-7.6238,4.2076C8.5137,47.2344,7,59,7,59h50C57,59,55.4863,47.2344,52.6128,44.1104z
		 M19,10.1428v-0.631C20.6737,8.8301,25.2363,7.9,32,7.9s11.3263,0.9301,13,1.6118v0.631
		c-1.0002,0.4087-4.5117,1.4821-7.5519,1.8884c-0.0087,0.0593-0.0106,0.2706,0.3209,0.3034c0.2539,0.0251,2.0957,0.274,4.231,0.1447
		c0,1.0211,0,0.7953,0,1.8055c-2.384,0.5705-5.9771,0.934-10,0.934s-7.616-0.3634-10-0.9339c0-1.1043,0-2.0986,0-3.1929
		C20.3035,10.6211,19.585,10.3819,19,10.1428z M26.2222,40.3174c0.2371-1.9129,0.0408-0.5492,0.8235-5.4371
		c-2.2766-2.2-4.1042-4.8665-4.1042-8.061C21.3237,26.3154,20.9,24.2739,20.9,23.001c0-1.2725,0.3217-1.961,0.7738-2.1743
		c0.3921-0.1844,0.7725-0.0475,1.0129,0.0886c0.1414,0.6527,0.2483,1.1383,0.2898,1.3098C23.1826,23.0762,24,22.998,24,22.998
		v-4.7378c2.2036,0.3442,4.979,0.5498,8,0.5498s5.7964-0.2057,8-0.5499v4.7379c0,0,0.8174,0.0782,1.0234-0.7729
		c0.0415-0.1715,0.1484-0.6571,0.2898-1.3098c0.2405-0.1362,0.6208-0.2731,1.0129-0.0886c0.4521,0.2133,0.7739,0.9018,0.7739,2.1743
		c0,1.2729-0.4238,3.3144-2.0415,3.8183c0,3.7027-2.5334,6.4959-5.3403,8.8846c-0.7806,0.6644-2.2498,1.1066-3.7188,1.1055
		c-1.0627-0.0008-2.1255-0.2865-2.9271-0.6349c0.6139,0.9305,1.6554,2.0744,3.5848,2.5851
		c3.1548,0.8349,5.4595-0.9139,5.4595-0.9139s0.2828,1.9133,0.2745,2.4157c0.3267,3.4883-3.9379,7.3169-6.3912,9.0784
		C29.6997,47.5898,25.7891,43.8096,26.2222,40.3174z"/>
</g>
</svg>
