<svg height="64" viewBox="0 0 64 64" width="64" xmlns="http://www.w3.org/2000/svg"><path d="m0 0h64v64h-64z" fill="none"/><path d="m8.3568 33.847c-.9072.7133-1.2433 1.9347-.8288 3.0117l2.2252 5.7812c.0051-.0056.0097-.0132.0148-.0187 1.4897-1.6201 4.3882-3.0444 6.5571-3.9536l.8796-.3688-5.4427-14.1406 2.2295-4.0526c.5693-1.0347-.2534-2.2841-1.4288-2.17l-3.0807.2991-.6916-1.7967c-.3596-.9342-1.2264-.9273-2.1606-.5677s-1.582.9356-1.2224 1.8698l5.4446 14.1451z"/><path d="m52.6133 44.1104c-1.5676-1.7049-5.2464-3.2745-8.2787-4.3525 0 0-.1565-.7622-.6405-1.2747-1.1018-1.1667-3.0349-1.0944-3.3239-3.2373-.0012-.0087-.0024-.0174-.0035-.0261-.0869-.6436.1073-1.2748.507-1.7982 3.2519-4.2592 4.3769-6.9484 5.1245-11.1537.8943-5.0306-.0789-11.0849-2.4375-13.9994-2.5257-3.1207-6.5601-4.2685-11.5604-4.2685s-9.0348 1.1478-11.5604 4.2686c-2.3586 2.9145-3.3318 8.9688-2.4375 13.9994.7476 4.2053 1.8726 6.8945 5.1245 11.1537.3997.5234.5938 1.1547.507 1.7982-.0012.0087-.0023.0173-.0035.0261-.289 2.1429-2.222 2.0706-3.3239 3.2373-.484.5125-.6405 1.2747-.6405 1.2747-.1945.0692 3.8457 3.9522 12.2709 4.4558.0626.1559-.0729.309-.3336.377-4.6559 1.2147-9.8296-.5286-14.4276-3.8945-2.2605.9479-4.6727 2.2007-5.7885 3.4142-2.8735 3.1239-4.3872 14.8895-4.3872 14.8895h21.7503l1.811-1.5772s.5505.6321 1.3737 1.5772h.065.0005 3.207c-1.8236-1.8904-3.0634-3.1756-3.0634-3.1756l2.1592-2.0828s1.5869 1.6451 3.4713 3.5986c.5713.5922.9421 1.1517 1.1987 1.6598h18.0271c.0001 0-1.5135-11.7656-4.3871-14.8896zm-20.6133-17.1104c-5.7623 0-8.962-3.1752-10.2782-4.9059-.4156-.5465-.1693-1.3296.4808-1.5502 1.7391-.5903 5.2517-1.5439 9.7974-1.5439s8.0584.9536 9.7974 1.5438c.6501.2206.8965 1.0037.4809 1.5502-1.3162 1.7308-4.516 4.906-10.2783 4.906zm11.0624 30.2462c-.6367.0028-1.9965-.194-3.5579-1.642-2.1647-2.0076-3.6661-3.4-3.6661-3.4l2.04-2.1996s1.6759 1.5543 3.6661 3.4c1.5614 1.4481 1.8599 2.7892 1.905 3.4243.0158.2233-.1632.4163-.3871.4173zm3.8061-4.3348c-.6345.0531-2.0056-.0356-3.6765-1.3559-2.3165-1.8304-3.9232-3.0998-3.9232-3.0998l1.8599-2.3539s1.7935 1.4171 3.9232 3.0999c1.671 1.3203 2.0744 2.6337 2.1695 3.2632.0334.2214-.1297.4279-.3529.4465zm3.4151-4.5052c-.6337.0947-2.0026.0934-3.7505-1.1036-2.4359-1.6682-4.1254-2.8252-4.1254-2.8252l1.6951-2.4752s1.8859 1.2915 4.1254 2.8251c1.7552 1.2021 2.2481 2.4836 2.3865 3.1059.0498.2244-.1039.4391-.3311.473z"/></svg>