<svg height="64" viewBox="0 0 64 64" width="64" xmlns="http://www.w3.org/2000/svg"><path d="m0 0h64v64h-64z" fill="none"/><path d="m18.458 45.189c.121-.0645.2509-.126.3766-.189h-11.8346v-13h14.1391c.1406-.352.3342-.698.6216-.9971-.0612-1.1759-.0584-2.1638-.0107-3.0029h-16.75c-1.1045 0-2 .8955-2 2v17c0 1.1045.8955 2 2 2h9.8079c.3736-.8683.8094-1.6307 1.325-2.1733.539-.5684 1.2997-1.1045 2.3251-1.6377z"/><path d="m59 28h-17.695c.0441.8395.0563 1.8304.0153 3.0229.277.2944.4648.6328.6021.9771h15.0776v13h-12.7831c1.2026.5947 2.1196 1.204 2.7109 1.8267.5156.5427.9514 1.3051 1.325 2.1733h10.7472c1.1045 0 2-.8955 2-2v-17c0-1.1045-.8955-2-2-2z"/><path d="m5 26h16.994c.2587-1.2662.6549-1.9641 1.0109-2.4219.4572-.589 1.0411-1.1118 1.746-1.5781h-17.7509v-13h20v11.8688c1.8896-.7247 3.0776-.8867 4-.8935v-12.9753c0-1.1045-.8955-2-2-2h-24c-1.1045 0-2 .8955-2 2v17c0 1.1045.8955 2 2 2z"/><path d="m59 5h-24c-1.1045 0-2 .8955-2 2v13.2667c.563.1805 1.0533.4171 1.4961.6547.9244-.1475 1.7537-.1229 2.5039.0527v-11.9741h20v13h-17.9945c.5169.4453.9783 1.0031 1.3715 1.7061.1627.2903.4972.8885.7273 2.2939h17.8957c1.1045 0 2-.8955 2-2v-17c0-1.1045-.8955-2-2-2z"/><path d="m37.1537 44.8075c-.9636-.263-1.1131-1.241-1.2162-2.2386 1.3112-1.4647 2.2839-3.2337 2.6136-5.5713 1.2538-.3864 1.5047-1.952 1.5047-2.9282 0-.9757-.1719-1.5038-.5223-1.6674-.1689-.0786-.3339-.0779-.4807-.0467.1261-2.0331.2516-6.0614-.5957-7.5751-.9264-1.6548-2.1584-2.0839-4.3046-1.543-1.4078-.7469-2.3663-1.4857-4.8326-.8132-1.7137.4672-3.5893 1.2302-4.5777 2.5031-1.0663 1.3737-.8607 5.3801-.6805 7.438-.1589-.0435-.3453-.0512-.5345.0369-.3504.1636-.5223.6917-.5223 1.6674 0 .9761.2509 2.5417 1.5047 2.9282.2964 2.4669 1.2865 4.1771 2.6102 5.6022-.0922.8538-.1825 1.6775-.9318 2.0823-1.6431.4443-6.8052 1.9437-8.4346 3.6596-1.9384 2.0409-2.6924 9.6583-2.6924 9.6583h32.939s-.7281-7.6174-2.6667-9.6583c-1.4946-1.574-6.116-2.9709-8.1796-3.5342z"/></svg>