<?xml version="1.0" encoding="utf-8"?>
<!-- Generator: Adobe Illustrator 19.1.0, SVG Export Plug-In . SVG Version: 6.00 Build 0)  -->
<svg version="1.2" baseProfile="tiny" xmlns="http://www.w3.org/2000/svg" xmlns:xlink="http://www.w3.org/1999/xlink" x="0px"
	 y="0px" width="64px" height="64px" viewBox="0 0 64 64" xml:space="preserve">
<g id="_x36_4px_Box">
	<rect fill="none" width="64" height="64"/>
</g>
<g id="Icon">
	<g>
		<path d="M18.458,45.189c0.121-0.0645,0.2509-0.126,0.3766-0.189H7V32h14.1391c0.1406-0.352,0.3342-0.698,0.6216-0.9971
			C21.6995,29.827,21.7023,28.8391,21.75,28H5c-1.1045,0-2,0.8955-2,2v17c0,1.1045,0.8955,2,2,2h9.8079
			c0.3736-0.8683,0.8094-1.6307,1.325-2.1733C16.6719,46.2583,17.4326,45.7222,18.458,45.189z"/>
		<path d="M59,28H41.305c0.0441,0.8395,0.0563,1.8304,0.0153,3.0229c0.277,0.2944,0.4648,0.6328,0.6021,0.9771H57v13H44.2169
			c1.2026,0.5947,2.1196,1.204,2.7109,1.8267c0.5156,0.5427,0.9514,1.3051,1.325,2.1733H59c1.1045,0,2-0.8955,2-2V30
			C61,28.8955,60.1045,28,59,28z"/>
		<path d="M5,26h16.994c0.2587-1.2662,0.6549-1.9641,1.0109-2.4219c0.4572-0.589,1.0411-1.1118,1.746-1.5781H7V9h20v11.8688
			c1.8896-0.7247,3.0776-0.8867,4-0.8935V7c0-1.1045-0.8955-2-2-2H5C3.8955,5,3,5.8955,3,7v17C3,25.1045,3.8955,26,5,26z"/>
		<path d="M59,5H35c-1.1045,0-2,0.8955-2,2v13.2667c0.563,0.1805,1.0533,0.4171,1.4961,0.6547
			c0.9244-0.1475,1.7537-0.1229,2.5039,0.0527V9h20v13H39.0055c0.5169,0.4453,0.9783,1.0031,1.3715,1.7061
			c0.1627,0.2903,0.4972,0.8885,0.7273,2.2939H59c1.1045,0,2-0.8955,2-2V7C61,5.8955,60.1045,5,59,5z"/>
		<path d="M37.1537,44.8075c-0.9636-0.263-1.1131-1.241-1.2162-2.2386c1.3112-1.4647,2.2839-3.2337,2.6136-5.5713
			c1.2538-0.3864,1.5047-1.952,1.5047-2.9282c0-0.9757-0.1719-1.5038-0.5223-1.6674c-0.1689-0.0786-0.3339-0.0779-0.4807-0.0467
			c0.1261-2.0331,0.2516-6.0614-0.5957-7.5751c-0.9264-1.6548-2.1584-2.0839-4.3046-1.543
			c-1.4078-0.7469-2.3663-1.4857-4.8326-0.8132c-1.7137,0.4672-3.5893,1.2302-4.5777,2.5031
			c-1.0663,1.3737-0.8607,5.3801-0.6805,7.438c-0.1589-0.0435-0.3453-0.0512-0.5345,0.0369
			c-0.3504,0.1636-0.5223,0.6917-0.5223,1.6674c0,0.9761,0.2509,2.5417,1.5047,2.9282c0.2964,2.4669,1.2865,4.1771,2.6102,5.6022
			c-0.0922,0.8538-0.1825,1.6775-0.9318,2.0823c-1.6431,0.4443-6.8052,1.9437-8.4346,3.6596C15.815,50.3826,15.061,58,15.061,58H48
			c0,0-0.7281-7.6174-2.6667-9.6583C43.8387,46.7677,39.2173,45.3708,37.1537,44.8075z"/>
	</g>
</g>
</svg>
