<?xml version="1.0" encoding="utf-8"?>
<!-- Generator: Adobe Illustrator 25.0.0, SVG Export Plug-In . SVG Version: 6.00 Build 0)  -->
<svg version="1.1" xmlns="http://www.w3.org/2000/svg" xmlns:xlink="http://www.w3.org/1999/xlink" x="0px" y="0px"
	 viewBox="0 0 64 64" style="enable-background:new 0 0 64 64;" xml:space="preserve">
<style type="text/css">
	.st0{fill:none;}
	.st1{fill:#FFFFFF;}
</style>
<g id="Box">
	<rect class="st0" width="64" height="64"/>
</g>
<g id="Icon">
	<g>
		<polygon points="28,4.8 36.2,15 53,15 45,2 10,2 3,15 19.8,15 		"/>
		<path d="M26.545,46.998l0.243-0.51c0.297-0.621,0.775-1.132,1.351-1.489H24V35h4.617c-0.002-0.079-0.017-0.152-0.017-0.232
			c0-1.195,0.141-2.466,0.996-3.768H24V21h8v1.703c1.424-1.516,3.506-2.215,6.291-2.746C38.918,19.36,39.862,19,40.974,19
			s2.057,0.36,2.684,0.957c2.817,0.536,4.918,1.241,6.342,2.792V17H35.2L28,8l-7.2,9H6v36h16.211
			c0.555-1.76,1.263-3.376,2.149-4.339C24.884,48.091,25.603,47.544,26.545,46.998z M28,13.5c1.4,0,2.5,1.1,2.5,2.5
			c0,1.4-1.1,2.5-2.5,2.5s-2.5-1.1-2.5-2.5C25.5,14.6,26.6,13.5,28,13.5z M19,45h-8V35h8V45z M19,31h-8V21h8V31z"/>
		<path d="M56.021,50.15c-0.506-0.55-1.314-1.08-2.249-1.569l-0.545-1.145c-0.161-0.338-0.454-0.594-0.81-0.709l-4.852-1.562
			c-0.078-0.506-0.161-1.014-0.24-1.469c1.303-1.579,2.104-3.21,2.368-4.88c0.968-0.889,1.507-2.307,1.507-4.048
			c0-1.57-0.43-2.503-1.113-3.211c-0.01-7.864-2.064-8.638-7.83-9.616c0.008-0.03,0.018-0.059,0.018-0.09
			c0-0.36-0.583-0.651-1.302-0.651c-0.719,0-1.302,0.291-1.302,0.651c0,0.031,0.01,0.06,0.018,0.09
			c-5.78,0.98-7.83,1.754-7.83,9.674l0,0c0.004,0.01,0.007,0.017,0.01,0.026c-0.889,0.983-1.07,1.845-1.07,3.125
			c0,1.739,0.537,3.155,1.502,4.044c0.278,1.83,1.175,3.581,2.704,5.292c-0.037,0.279-0.076,0.583-0.117,0.899l-5.305,1.724
			c-0.356,0.115-0.649,0.371-0.81,0.709l-0.547,1.148c-0.933,0.488-1.742,1.017-2.247,1.566C23.885,52.426,22.782,61,22.782,61
			h36.435C59.218,61,58.115,52.426,56.021,50.15z M55.143,52.984c0.168,0.424,0.335,0.916,0.497,1.457H42v-1.457H55.143z
			 M39.021,28.346v-0.742l0.884-0.592c-0.035-1.132,1.334-1.214,0.787-2.118c0,0,0.704,0.159,0.652,0.97
			c0,0,0.633,0.225,0.458,0.986l1.125,0.753v0.742l-1.953,1.697L39.021,28.346L39.021,28.346z M40,58.814H25.337
			c0.182-0.997,0.395-1.99,0.625-2.915H40V58.814z M40,54.442H26.359c0.162-0.541,0.328-1.034,0.496-1.457H40V54.442z M36.78,46.951
			c0.256-1.478,0.604-3.492,0.61-3.527c-1.659-1.603-2.991-3.546-2.991-5.874c-1.179-0.367-1.488-1.855-1.488-2.782
			c0-0.376,0.047-0.665,0.115-0.906c0.245,0.251,0.522,0.406,0.875,0.513c1.417,0.429,2.41-1.457,7.073-1.457
			s5.656,1.886,7.073,1.457c0.373-0.113,0.66-0.284,0.916-0.561c0.076,0.248,0.126,0.554,0.126,0.954
			c0,0.928-0.309,2.415-1.488,2.782c0,2.698-1.846,4.734-3.892,6.474c-0.569,0.484-1.639,0.806-2.71,0.806
			c-0.774-0.001-1.549-0.209-2.133-0.463c0.447,0.678,1.206,1.512,2.612,1.884c2.299,0.608,3.978-0.666,3.978-0.666
			s0.099,0.631,0.188,1.232L41,50.686L36.78,46.951z M42,55.899h14.038c0.23,0.924,0.443,1.919,0.625,2.915H42V55.899z"/>
	</g>
</g>
</svg>
