<?xml version="1.0" encoding="utf-8"?>
<!-- Generator: Adobe Illustrator 19.1.0, SVG Export Plug-In . SVG Version: 6.00 Build 0)  -->
<svg version="1.2" baseProfile="tiny" xmlns="http://www.w3.org/2000/svg" xmlns:xlink="http://www.w3.org/1999/xlink" x="0px"
	 y="0px" width="64px" height="64px" viewBox="0 0 64 64" xml:space="preserve">
<g id="_x36_4px_Box">
	<rect width="64" height="64"/>
</g>
<g id="Icon">
	<g>
		<path fill="#FFFFFF" d="M16.459,25.9692c0.4278,3.1877,2.1379,6.0856,4.3621,8.283c-0.205,1.0925-0.4637,2.5928-0.6512,4.0232
			c-0.4979,3.7977,4.3223,7.8955,6.8301,9.583c3.3478-2.2528,7.3307-5.9913,6.7496-10.1361
			c-3.6962,2.9641-7.6596,2.0292-9.6271-0.9867l-0.0103-0.001c-0.0409-0.062-0.069-0.1147-0.1054-0.1737
			c-0.0273-0.0444-0.0571-0.0829-0.0844-0.1273c2.2642,0.7002,5.9133,0.5068,7.4043-0.5836C34.4221,33.5863,37,30,37.5408,25.9692
			C39.4233,25.4653,39.8,23.4238,39.8,22.151c0-1.2726-0.2581-1.9611-0.7841-2.1743c-0.2396-0.0968-0.4733-0.1002-0.6844-0.0665
			c0.4835-3.3569,1.1956-9.8115-0.0615-12.1355c-1.5283-2.8256-3.348-4.2173-6.8501-3.2908
			c-2.297-1.2793-3.8609-2.0801-7.8854-0.9281c-2.7963,0.8003-5.8569,2.1073-7.4696,4.288
			c-1.7083,2.3104-0.9725,8.7151-0.4395,12.0599c-0.2-0.0259-0.4181-0.0172-0.6414,0.073C14.4579,20.1899,14.2,20.8784,14.2,22.151
			C14.2,23.4238,14.5766,25.4653,16.459,25.9692z M16.8,11.9673c0.0096-2.3634,0.4797-4.7164,7.2266-6.6492
			c1.1475-0.3287,2.0848-0.488,2.8677-0.488c1.4855,0,2.415,0.5846,4.34,1.6565c0.771-0.2039,1.5172-0.4343,2.301-0.4343
			c2.0178,0,3.3405,2.2168,3.5625,4.2244c0.3478,3.1465-0.284,8.9724-0.8329,11.0748C36.01,22.3281,35,22.1582,35,22.1582
			c-0.0024,0.0011,0-5.509,0-5.509l-5.2749-3.8501C25.077,15.332,21.043,15.9043,19,16.05c0,0,0.0026,6.1097,0,6.1082
			c0,0-1.0099,0.1699-1.265-0.8068c-0.2253-0.8632-0.6535-3.0402-0.8412-6.2303C16.8289,14.2078,16.7936,13.5227,16.8,11.9673z"/>
		<path fill="#FFFFFF" d="M39.5278,39.9512l3.6123-0.6678c-2.6885-1.227-5.7245-2.1953-7.3231-2.6691
			c0.0681,0.4524,0.134,0.9131,0.1947,1.376c0.834,6.3721-8.0596,11.8838-8.4385,12.1152c-0.1758,0.1074-0.375,0.1611-0.5732,0.1611
			s-0.3975-0.0537-0.5732-0.1611c-0.3789-0.2314-9.2725-5.7432-8.4385-12.1152c0.0607-0.4629,0.1266-0.9236,0.1947-1.3761
			c-2.6989,0.8002-9.5035,3.0033-11.7958,5.4962C3.5137,45.2344,2,57,2,57h35v-4.5405c-1.2242-1.0992-2-2.6885-2-4.4595
			c0-1.4016,0.4868-2.6895,1.295-3.7119c-0.0972-0.9426,0.1221-1.8804,0.6654-2.6699
			C37.5659,40.7383,38.4775,40.1465,39.5278,39.9512z"/>
		<path fill="#FFFFFF" d="M60.0322,48L58,51h-3l2.0322-3h-3L52,51h-3l2.0322-3h-3L46,51h-3l2.0322-3H44
			c0-0.2501-0.0396-0.4893-0.0973-0.7216L61.6333,44l-0.7273-3.9333c-0.1004-0.5431-0.6221-0.9019-1.1651-0.8015l-2.9255,0.541
			l2.4876,2.5909l-2.95,0.5454l-2.4877-2.5909l-2.95,0.5455l2.4877,2.5909l-2.95,0.5455l-2.4876-2.5909l-2.95,0.5454l2.4876,2.5909
			l-2.95,0.5454l-2.4877-2.5909l-1.9911,0.3682c-0.543,0.1004-0.9019,0.6221-0.8015,1.1652l0.2475,1.3385
			C38.6163,45.9219,38,46.8842,38,48c0,1.3043,0.8375,2.403,2,2.8163V60c0,0.5522,0.4477,1,1,1h20c0.5523,0,1-0.4478,1-1V48H60.0322
			z"/>
	</g>
</g>
</svg>
