<svg height="64" viewBox="0 0 64 64" width="64" xmlns="http://www.w3.org/2000/svg"><path d="m0 0h64v64h-64z" fill="none"/><path d="m37.8155 32-.0076-.0019c.558-1.1319.9382-2.2794 1.1218-3.4414 1.3281-1.2195 2.0679-3.1657 2.0679-5.5557 0-.7447.0012-2.7025-1.2268-4.0366.3037-3.3378.515-8.5034-.7869-10.587-1.6026-2.5649-3.5498-3.8159-7.2632-2.9775-2.4355-1.1577-4.0937-1.8823-8.3607-.8398-2.9649.7241-6.21 1.9067-7.92 3.8798-1.652 1.9066-1.5394 7.2237-1.2741 10.6054-1.1589 1.332-1.1634 3.2256-1.1634 3.9557 0 2.386.7374 4.3299 2.0614 5.5497.3819 2.5118 1.613 4.9141 3.7105 7.2619-.106.807-.2283 1.7498-.353 2.7313-2.5129.7345-9.6714 2.9969-12.0341 5.5665-2.8736 3.124-4.3873 14.8896-4.3873 14.8896h25 5v-14.3615c-1.2848 1.9502-3.1916 3.6765-4.619 4.7013-2.3003-1.75-6.5919-5.5302-6.1588-9.0224.237-1.9129.0408-.5492.8235-5.4371-2.2767-2.2-4.1043-4.8665-4.1043-8.061-1.6177-.5039-2.0414-2.5454-2.0414-3.8183 0-1.2725.3217-1.961.7738-2.1743.3921-.1844.7725-.0475 1.013.0886.1414.6527.2483 1.1383.2898 1.3098.206.8511 1.0234.7729 1.0234.7729v-6.7451c2.0731-.1505 6.1937-.7531 10.7499-3.1062l5.2501 3.5262v6.3251s.8174.0782 1.0234-.7729c.0415-.1715.1484-.6571.2898-1.3098.2405-.1362.6209-.2731 1.013-.0886.4522.2133.7738.9018.7738 2.1743 0 1.2729-.4237 3.3144-2.0414 3.8183 0 1.1278-.2217 2.1558-1.0459 2.9512-.8608.8294-2.302 1.3032-4.1027 1.348-.1315-.3626-.525-.6185-.9868-.6185h-3.762c-.4952 0-1.1612.5-1.1612 1.5s.666 1.5 1.1613 1.5h3.762c.4706 0 .8727-.2643.9961-.6382 1.1568-.0266 2.1954-.2012 3.0961-.5162-.9276 1.2215-2.0863 2.3278-3.2971 3.3582-1.0598.902-3.8256 1.6964-6.6459.4706 1.6111 2.4422 4.4405 3.2261 6.9191 2.6067v.0018c.1779-.038.6325-.1748 1.0085-.3325v-.0182c2.3687-1.0801 4.6203-4.13 5.8154-6.4322z"/><path d="m61.8371 37h-25.6741c-.6423 0-1.163.4463-1.163.9968v18.0063c0 .5506.5207.9969 1.163.9969h8.3426l-.5988 2.4221c-.1643.3525-.5179.5779-.9068.5779h-1.011c-.5462 0-.989.4428-.989.989v1.011h16v-1.011c0-.5462-.4428-.989-.989-.989h-1.011c-.3889 0-.7425-.2254-.9067-.5779l-.5988-2.4221h8.3426c.6422 0 1.1629-.4463 1.1629-.9968v-18.0064c0-.5505-.5207-.9968-1.1629-.9968zm-1.8371 16h-22v-13h22z"/><path d="m61.8371 37h-25.6741c-.6423 0-1.163.4463-1.163.9968v18.0063c0 .5506.5207.9969 1.163.9969h8.3426l-.5988 2.4221c-.1643.3525-.5179.5779-.9068.5779h-1.011c-.5462 0-.989.4428-.989.989v1.011h16v-1.011c0-.5462-.4428-.989-.989-.989h-1.011c-.3889 0-.7425-.2254-.9067-.5779l-.5988-2.4221h8.3426c.6422 0 1.1629-.4463 1.1629-.9968v-18.0064c0-.5505-.5207-.9968-1.1629-.9968zm-1.8371 16h-22v-13h22z"/></svg>