<svg height="64" viewBox="0 0 64 64" width="64" xmlns="http://www.w3.org/2000/svg"><path d="m0 0h64v64h-64z" fill="none"/><path d="m0 0h64v64h-64z" fill="none"/><circle cx="32" cy="9" r="2"/><path d="m57 59s-1.5137-11.7656-4.3872-14.8896c-2.1834-2.3746-8.462-4.4866-11.386-5.3734-.155-1.1155-.3614-2.4073-.5466-3.4836 1.7886-2.1667 2.8875-4.4047 3.2495-6.6968 1.3281-1.2195 2.0679-3.1657 2.0679-5.5557 0-.7284-.0068-2.6139-1.156-3.9447-.0021-.0036.0056-.0074.0025-.011.2652-3.3817.3778-8.6988-1.2742-10.6054-1.2889-1.4872-3.4501-2.5246-5.7059-3.2558-1.2491-1.9154-3.4068-3.184-5.864-3.184-2.4587 0-4.6175 1.2703-5.8661 3.1877-2.2516.7309-4.4073 1.7676-5.694 3.2522-1.652 1.9066-1.5394 7.2237-1.2741 10.6054-1.1589 1.332-1.1634 3.2256-1.1634 3.9557 0 2.386.7374 4.3299 2.0614 5.5497.3819 2.5118 1.613 4.9141 3.7105 7.2619-.106.807-.2283 1.7498-.353 2.7313-2.5129.7345-9.6714 2.9969-12.0341 5.5665-2.8735 3.124-4.3872 14.8896-4.3872 14.8896h12l-2-9h7.9462l1.3331 4h11.4414l1.3331-4h7.9462l-2 9zm-25-55.125c2.8166 0 5.1 2.2833 5.1 5.1 0 2.8166-2.2834 5.1-5.1 5.1s-5.1-2.2834-5.1-5.1c0-2.8167 2.2834-5.1 5.1-5.1zm4.2793 48.125h-8.5586l-.5767-1.7295 2.856-2.8564v-1.4141c0-1.1025.897-2 2-2s2 .8975 2 2v1.4141l2.856 2.8564zm-3.6221-13.2404c3.1548.8349 5.4595-.9139 5.4595-.9139s.2828 1.9133.2745 2.4157c.1741 1.8592-.9547 3.8123-2.4153 5.5003-.126-2.0933-1.8519-3.7617-3.9759-3.7617-2.0107 0-3.6632 1.4957-3.9424 3.4306-1.1952-1.588-2.0496-3.3855-1.8353-5.1132.237-1.9129.0408-.5492.8235-5.4371-2.2767-2.2-4.1043-4.8665-4.1043-8.061-1.6178-.5039-2.0415-2.5454-2.0415-3.8183 0-1.2725.3217-1.961.7738-2.1743.3921-.1844.7725-.0475 1.013.0886.1414.6527.2483 1.1383.2898 1.3098.206.8511 1.0234.7729 1.0234.7729v-6.998h16v6.998s.8174.0782 1.0234-.7729c.0415-.1715.1484-.6571.2898-1.3098.2405-.1362.6209-.2731 1.013-.0886.4521.2133.7738.9018.7738 2.1743 0 1.2729-.4237 3.3144-2.0414 3.8183 0 3.7027-2.5335 6.4959-5.3403 8.8846-.7807.6644-2.2499 1.1066-3.7188 1.1055-1.0628-.0008-2.1255-.2865-2.9271-.6349.6138.9305 1.6553 2.0744 3.5848 2.5851z"/></svg>