<?xml version="1.0" encoding="utf-8"?>
<!-- Generator: Adobe Illustrator 17.1.0, SVG Export Plug-In . SVG Version: 6.00 Build 0)  -->
<svg version="1.2" baseProfile="tiny" xmlns="http://www.w3.org/2000/svg" xmlns:xlink="http://www.w3.org/1999/xlink" x="0px"
	 y="0px" width="64px" height="64px" viewBox="0 0 64 64" xml:space="preserve">
<g id="_x36_4px_Boxes">
	<rect fill="none" width="64" height="64"/>
</g>
<g id="Production">
	<rect fill="none" width="64" height="64"/>
	<g>
		<circle cx="32" cy="9" r="2"/>
		<path d="M57,59c0,0-1.5137-11.7656-4.3872-14.8896c-2.1834-2.3746-8.462-4.4866-11.386-5.3734
			c-0.155-1.1155-0.3614-2.4073-0.5466-3.4836c1.7886-2.1667,2.8875-4.4047,3.2495-6.6968
			c1.3281-1.2195,2.0679-3.1657,2.0679-5.5557c0-0.7284-0.0068-2.6139-1.156-3.9447c-0.0021-0.0036,0.0056-0.0074,0.0025-0.011
			c0.2652-3.3817,0.3778-8.6988-1.2742-10.6054C42.281,6.9526,40.1198,5.9152,37.864,5.184C36.6149,3.2686,34.4572,2,32,2
			c-2.4587,0-4.6175,1.2703-5.8661,3.1877c-2.2516,0.7309-4.4073,1.7676-5.694,3.2522c-1.652,1.9066-1.5394,7.2237-1.2741,10.6054
			c-1.1589,1.332-1.1634,3.2256-1.1634,3.9557c0,2.386,0.7374,4.3299,2.0614,5.5497c0.3819,2.5118,1.613,4.9141,3.7105,7.2619
			c-0.106,0.807-0.2283,1.7498-0.353,2.7313c-2.5129,0.7345-9.6714,2.9969-12.0341,5.5665C8.5137,47.2344,7,59,7,59h12l-2-9h7.9462
			l1.3331,4h11.4414l1.3331-4H47l-2,9H57z M32,3.875c2.8166,0,5.1,2.2833,5.1,5.1c0,2.8166-2.2834,5.1-5.1,5.1s-5.1-2.2834-5.1-5.1
			C26.9,6.1583,29.1834,3.875,32,3.875z M36.2793,52h-8.5586l-0.5767-1.7295L30,47.4141V46c0-1.1025,0.897-2,2-2s2,0.8975,2,2
			v1.4141l2.856,2.8564L36.2793,52z M32.6572,38.7596c3.1548,0.8349,5.4595-0.9139,5.4595-0.9139s0.2828,1.9133,0.2745,2.4157
			c0.1741,1.8592-0.9547,3.8123-2.4153,5.5003C35.8499,43.6684,34.124,42,32,42c-2.0107,0-3.6632,1.4957-3.9424,3.4306
			c-1.1952-1.588-2.0496-3.3855-1.8353-5.1132c0.237-1.9129,0.0408-0.5492,0.8235-5.4371c-2.2767-2.2-4.1043-4.8665-4.1043-8.061
			C21.3237,26.3154,20.9,24.2739,20.9,23.001c0-1.2725,0.3217-1.961,0.7738-2.1743c0.3921-0.1844,0.7725-0.0475,1.013,0.0886
			c0.1414,0.6527,0.2483,1.1383,0.2898,1.3098C23.1826,23.0762,24,22.998,24,22.998V16h16v6.998c0,0,0.8174,0.0782,1.0234-0.7729
			c0.0415-0.1715,0.1484-0.6571,0.2898-1.3098c0.2405-0.1362,0.6209-0.2731,1.013-0.0886C42.7783,21.04,43.1,21.7285,43.1,23.001
			c0,1.2729-0.4237,3.3144-2.0414,3.8183c0,3.7027-2.5335,6.4959-5.3403,8.8846c-0.7807,0.6644-2.2499,1.1066-3.7188,1.1055
			c-1.0628-0.0008-2.1255-0.2865-2.9271-0.6349C29.6862,37.105,30.7277,38.2489,32.6572,38.7596z"/>
	</g>
</g>
</svg>
