<svg height="64" viewBox="0 0 64 64" width="64" xmlns="http://www.w3.org/2000/svg"><path d="m0 0h64v64h-64z" fill="none"/><path d="m55.5986 35c-2.1667 0-4.9217 1.063-6.342 1.6072-1.0479-.7653-2.9999-1.6072-4.8552-1.6072-4.0811 0-7.4014 3.2998-7.4014 7.356 0 2.4155.6763 4.0713 1.3301 5.6724.8922 2.1862 1.0713 2.7316 1.6729 6.7773.5991 4.0288 1.2192 8.1943 5.1547 8.1943 3.083 0 4.1113-3.6992 4.8423-6.9985.731 3.2993 1.7593 6.9985 4.8423 6.9985 3.9355 0 4.5557-4.1655 5.1548-8.1943.6017-4.0464.7806-4.5911 1.6729-6.7773.6537-1.6012 1.33-3.2569 1.33-5.6724 0-4.0562-3.3203-7.356-7.4014-7.356zm3.294 11.8945c-.9965 2.4407-1.2328 3.2296-1.8628 7.4697-.5698 3.8311-.9717 5.6358-2.1875 5.6358-.9087 0-1.7905-4.0742-2.0801-5.4131-.5747-2.6543-.9897-4.5718-2.7622-4.5718s-2.1875 1.9175-2.7622 4.5718c-.2896 1.3389-1.1714 5.4131-2.0801 5.4131-1.2158 0-1.6177-1.8047-2.1875-5.6357-.6266-4.2172-.8593-5.0119-1.8628-7.4697-.5942-1.4551-1.1074-2.712-1.1074-4.5386 0-2.3016 1.8187-4.1725 4.1055-4.3264 3.1646-.0773 6.6312 2.9901 10.4304 2.9372.333-.0046.4861-.1205.4532-.2606 0 0-1.4476-.6928-3.3399-1.8276 1.2159-.4047 2.8907-.8786 3.9494-.8786 2.4268 0 4.4014 1.9541 4.4014 4.356 0 1.8266-.5132 3.0835-1.1074 4.5385z"/><path d="m35.5527 49.1626c-.6915-1.693-1.5517-3.7998-1.5526-6.8021-.8591 1.3794-3.0031 4.9374-6.1136 6.9793-2.3003-1.75-7.0975-5.5302-6.6644-9.0224.0453-.3658.0742-.6061.0978-.7997 1.5308.9374 3.2181 1.4579 5.68 1.4579 4.5576 0 6.4658-1.7705 9.626-4.7031.6328-.5869 1.3301-1.2344 2.125-1.9404.4023-.3574.5312-.9326.3193-1.4268l-.5566-1.2969c.0596-.416.1611-1.1133.2363-1.5361.0676-.3792.1274-.936.1772-1.5037.0006-.004.0018-.0079.0024-.0118 1.3281-1.2195 2.0679-3.1657 2.0679-5.5557 0-.7447.0012-2.7025-1.2268-4.0366.3037-3.3378.515-8.5034-.7869-10.587-1.6026-2.5649-3.5498-3.8159-7.2632-2.9775-2.4355-1.1577-4.0937-1.8823-8.3608-.8398-2.9649.7241-6.21 1.9067-7.92 3.8798-1.652 1.9066-1.5394 7.2237-1.2741 10.6054-1.1589 1.332-1.1634 3.2256-1.1634 3.9557 0 2.386.7374 4.3299 2.0614 5.5497.0037.0242.0106.048.0145.0723.0489.5483.1067 1.0823.1718 1.4493.0752.4229.1768 1.1201.2363 1.5361l-.5566 1.2969c-.2119.4941-.083 1.0693.3193 1.4268.7949.7061 1.4912 1.3525 2.124 1.9395.4187.3885.8146.7552 1.1984 1.1015-.0492.3815-.0991.7692-.1501 1.1709-2.5129.7345-9.6714 2.9969-12.0341 5.5665-2.8734 3.1238-4.3871 14.8894-4.3871 14.8894h25 10.7364c-.3344-1.325-.5356-2.6423-.7007-3.7529-.5695-3.8264-.6973-4.1604-1.483-6.0845zm-19.2864-24.1168c-.2664-.6923-.3663-1.45-.3663-2.0448 0-1.2725.3217-1.961.7737-2.1743.3922-.1844.7725-.0475 1.013.0886.1414.6527.2484 1.1383.2899 1.3098.206.8511 1.0234.7729 1.0234.7729v-6.7451c2.0731-.1505 6.1937-.7531 10.7499-3.1062l5.2501 3.5262v6.3251s.8174.0782 1.0234-.7729c.0415-.1715.1484-.6571.2898-1.3098.2405-.1362.6209-.2731 1.013-.0886.4521.2133.7738.9018.7738 2.1743 0 .5948-.0999 1.3526-.3663 2.0449-3.8203-.0057-6.1309-.3244-6.8607-.9492-1-.8586-1.8749-2.0965-3.873-2.0965-1.9985 0-2.873 1.2384-3.873 2.097-.7289.6242-3.0395.943-6.8607.9486zm1.3148 8.0196.3168-.738 5.2229 1.3873c.0393-.0453.1551-.222-.1062-.4286l-5.2115-3.0902c-.0321-.2053-.0639-.4014-.0921-.5601-.0791-.4502-.1553-1.3223-.2119-2.1016 4.6006-.0928 6.2598-.6855 7.2549-1.5391.2402-.2061.46-.418.6738-.625.6582-.6377.9746-.9199 1.5723-.9199.5986 0 .9141.2817 1.5723.9189.2129.207.4336.4199.6738.626.9971.8535 2.6562 1.4463 7.2549 1.5391-.0557.7783-.1318 1.6504-.2119 2.1006-.0282.1591-.0601.3556-.0922.5612l-5.2112 3.09c-.2613.2067-.1455.3834-.1062.4286l5.2227-1.3872.3168.738c-.54.4893-1.0332.9473-1.4941 1.375-3.0752 2.8535-4.3477 4.0352-7.9248 4.0352-3.5762 0-4.8496-1.1816-7.9258-4.0361-.4601-.4268-.9543-.8848-1.4933-1.3741z"/></svg>