<svg enable-background="new 0 0 64 64" height="64" viewBox="0 0 64 64" width="64" xmlns="http://www.w3.org/2000/svg"><path d="m0 0h64v64h-64z" fill="none"/><path d="m27.8 49.6v-2.2c0-.1 0-.1 0-.2-.5.4-1 .8-1.4 1.1-2.3-1.8-6.6-5.5-6.2-9 .2-1.9 0-.5.8-5.4-2.3-2.2-4.1-4.9-4.1-8.1-1.6-.5-2-2.5-2-3.8s.3-2 .8-2.2c.4-.2.8 0 1 .1.1.7.2 1.1.3 1.3.2.9 1 .8 1 .8v-6.7c2.1-.2 6.2-.8 10.8-3.1l5.2 3.5v6.3s.8.1 1-.8c0-.2.1-.7.3-1.3.2-.1.6-.3 1-.1.5.2.8.9.8 2.2s-.4 3.3-2 3.8c0 3.7-2.5 6.5-5.3 8.9-.8.7-2.2 1.1-3.7 1.1-1.1 0-2.1-.3-2.9-.6.6.9 1.7 2.1 3.6 2.6.7.2 3.1.6 4.9-.7 1.5-1 3.4-3.2 4.5-4.8 1-1.6 1.6-3.1 1.9-4.8 1.3-1.2 2.1-3.2 2.1-5.6 0-.7 0-2.7-1.2-4 .3-3.3.5-8.5-.8-10.6-1.6-2.6-3.5-3.8-7.3-3-2.4-1.2-4.1-1.9-8.4-.8-3 .7-6.2 1.9-7.9 3.9-1.7 1.9-1.5 7.2-1.3 10.6-1.3 1.4-1.3 3.3-1.3 4 0 2.4.7 4.3 2.1 5.5.4 2.5 1.6 4.9 3.7 7.3-.1.8-.2 1.7-.4 2.7-2.5.7-9.7 3-12 5.6-2.9 3.1-4.4 14.9-4.4 14.9h30c-.1-.8 0-1.7.3-2.5l.7-1.5-1.6-.5c-1.5-.6-2.6-2.1-2.6-3.9z"/><path d="m43.5 34.7-1.1 3.1c-.8.2-1.6.6-2.4 1l-3-1.4c-.3-.2-.8-.1-1 .2-1 1-.6.6-1.6 1.6-.3.3-.3.7-.2 1l1.5 3c-.4.7-.7 1.5-.9 2.3l-3.2 1.1c-.4.1-.6.4-.6.8v2.2c0 .4.2.7.6.9l3.2 1.1c.2.8.5 1.6.9 2.3l-1.5 3c-.2.3-.1.8.2 1l1.6 1.6c.3.3.7.3 1 .2l3-1.5c.7.4 1.5.7 2.3 1l1.1 3.1c.1.4.5.6.9.6h1.6v-9.9c-.2 0-.3 0-.5 0-2.5 0-4.6-2.1-4.6-4.6s2.1-4.6 4.6-4.6h.5v-9.8c-.5 0-1 0-1.6 0-.3 0-.7.3-.8.7z"/><path d="m60 41.1c-.5.8-1.2 1.4-1.7 1.5-.3.1-.5 0-.6-.2 2.1-1.6 2.1-3.7.7-5s-3.8-.9-4.8.9c-.2 0-.4-.1-.3-.5 0-.5.5-1.5 1.4-2.1-1.1-1.4-2.9-2.1-4.5-1.6-1 .3-1.8.9-2.3 1.8v8.5c.7-.5 1.5-.6 2-.5.7 0 .9.4.7.7-2.1 1.1-2.7 2.5-2.7 3.9v1.7c2-.6 3.8.5 4.2 2.4.2.8-.3.7-.3.7s-.4-.9-1.3-1.4c-.8-.4-1.8-.4-2.6 0v9.1c.5.9 1.3 1.5 2.3 1.8 1.7.5 3.8-.1 4.9-2.2-1.3-.6-2-2-1.4-2.2.4.4.9 1 1.9 1.1 2 .2 3.5-1 4.1-2.4 1-2.8-1.5-3.5-1.7-3.6.1-.3.3-.4.8-.3.3 0 .9.2 1.4.6 1.9-1.1 2.7-3.8 1.4-6.2 1.8-2.6.7-5.5-1.6-6.5zm-10-1.6c.3-.8.7-.8.8-.6 0 .5.2 1 .6 1.3s1.1.4 1.9.2c.7-.2 1.2-.6 1.8-1 1.2-.1.2 2.6-2.7 2.8-.1 0-.2 0-.3 0-1.9 0-2.4-1.7-2.1-2.7zm2.7 5.4c.9-.5 2.1-.2 3 0 1.2.3 2 .3 3-.2l.3-.2c.3.1.3.5-.1.9-.7.9-1.5 1.4-3 1.2-.8-.1-1.2-.2-1.6-.3-.4 0-1.2.1-1.4 1.1 0 .4 0 .8.2 1.1 0 .2-.3.4-.7 0-1.3-1-.9-3 .3-3.6zm3.1 12.2c-.2-.5-.5-.9-1.1-1-.6-.2-1.4 0-2.1.5-.9.6-1.1 1.3-1.1 2.1-.3.3-.7-.1-.8-.7-.5-2.2 2.1-4.6 4.6-3.5.8.3 1.1 1.2 1.1 1.8-.1.6-.4.9-.6.8zm3.8-5.2c-1.9-3-4.4-1.2-4.7.5-.2.1-.4 0-.5-.5s.1-1.7.8-2.4c.8-.8 1.9-1 2.9-.7s1.6 1.1 1.8 2.1c.1.6 0 1.1-.3 1z"/></svg>