<?xml version="1.0" encoding="utf-8"?>
<!-- Generator: Adobe Illustrator 25.0.0, SVG Export Plug-In . SVG Version: 6.00 Build 0)  -->
<svg version="1.1" xmlns="http://www.w3.org/2000/svg" xmlns:xlink="http://www.w3.org/1999/xlink" x="0px" y="0px"
	 viewBox="0 0 64 64" style="enable-background:new 0 0 64 64;" xml:space="preserve">
<style type="text/css">
	.st0{fill:none;}
</style>
<g id="Box">
	<rect class="st0" width="64" height="64"/>
</g>
<g id="Icon">
	<path d="M61.225,30.206L32.812,3.32c-0.459-0.427-1.166-0.427-1.625,0L2.775,30.206C2.281,30.665,2,31.312,2,31.99v1.797
		C2,34.457,2.537,35,3.2,35H8v25h48V35h4.8c0.663,0,1.2-0.543,1.2-1.213V31.99C62,31.312,61.719,30.665,61.225,30.206z M37.399,55
		H18.336c-0.778,0-1.462-0.513-1.68-1.26l-3.346-11.471C13.125,41.635,13.602,41,14.262,41H25.64c0.778,0,1.462,0.513,1.68,1.26
		l2.841,9.73h10.238C40.399,53.647,39.056,55,37.399,55z M41.373,55c0.635-0.838,1.025-1.87,1.025-3c0-1.105-0.896-2-2-2h-8.738
		l-2.421-8.3c-0.464-1.59-1.944-2.7-3.6-2.7h-3.873c1.94-0.927,4.39-1.78,5.608-2.184c0.166-0.641,0.287-1.258,0.371-1.794
		c-1.072-1.177-1.875-2.588-2.095-4.212c-1.086-0.307-1.304-2.365-1.304-3.139c0-0.775,0.149-1.194,0.453-1.324
		c0.071-0.03,0.138-0.029,0.207-0.034c-0.152-1.199-0.571-5.266,0.561-6.672c0.913-1.133,2.646-1.812,4.229-2.228
		c2.279-0.599,3.164-0.182,4.465,0.482c1.983-0.481,3.023,0.236,3.878,1.71c0.9,1.549,0.447,5.507,0.285,6.699
		c0.083,0.001,0.168,0.005,0.256,0.043c0.304,0.13,0.453,0.549,0.453,1.324c0,0.774-0.218,2.832-1.304,3.139
		c-0.274,1.684-1.061,3.079-2.123,4.241c0.081,0.528,0.206,1.133,0.385,1.76c1.855,0.614,6.631,2.288,8.017,3.67
		C46.592,42.959,46.653,50.18,46.74,55H41.373z"/>
</g>
</svg>
