<svg enable-background="new 0 0 64 64" height="64" viewBox="0 0 64 64" width="64" xmlns="http://www.w3.org/2000/svg"><path d="m0 0h64v64h-64z" fill="none"/><path d="m39.1 54.5c-1.8-1.6-2.7-4.1-2-6.6.7-2.4 2.7-4.2 5-4.7.5-2.4 2.3-4.4 4.8-5.1.6-.2 1.2-.2 1.9-.2-1.3-1.2-4.2-2.8-5.5-2.9-1.1-.1-3.3.4-4.5.7 0-.1 0-.3-.1-.4 1.8-2.2 2.9-4.4 3.2-6.7 1.3-1.2 2.1-3.2 2.1-5.6 0-.7 0-2.7-1.2-4 1.1-.2 2-.5 2.6-.6.4-.1.5-.6.2-.8l-2.3-2.1s-1.2.4-3.8.4c-2.8 0-4.9-.3-5.7-.6-.3-.1-.2-.2-.2-.2.5-.1 12.6.1 12.5-3.5 0-1.7-7.2-7.1-13-8.4 0-.8-1-1.4-2.1-1.4s-2 .6-2.1 1.3c-5.9.7-13.7 4.7-13.7 7.3 0 1.2 1.3 2.6 1.3 2.6l-2.3 1.6c-.3.2-.3.6 0 .8.6.3 1.6.9 2.9 1.4 0 .8.1 1.6.1 2.3-1.2 1.3-1.2 3.2-1.2 3.9 0 2.4.7 4.3 2.1 5.5.4 2.5 1.6 4.9 3.7 7.3v.1c-1.3-.4-3.5-1.1-5.1-1-1.7.1-5 1.4-5.1 2.3-.1.8 2.1 1.4 4.9 2.9-2.8 1-5.7 2.4-7.1 3.9-2.9 3.2-4.4 15-4.4 15h34.2c-.6-1.4-.6-3-.1-4.5zm-10-1.9c-4.5-3.2-6-10.4-6-10.4 1.3-2.2 1.5-4.7 2-7.3-2.3-2.2-4.1-4.9-4.1-8.1-1.6-.5-2-2.5-2-3.8s.3-2 .8-2.2c.4-.2.8 0 1 .1.1.7.2 1.1.3 1.3.2.9 1 .8 1 .8v-4.7c4.9 1.2 10.7 1.7 16 1.3v3.4s.8.1 1-.8c0-.2.1-.7.3-1.3.2-.1.6-.3 1-.1.5.2.8.9.8 2.2s-.4 3.3-2 3.8c0 3.7-2.5 6.5-5.3 8.9-1.2 1-4 1.6-6.6.5.6.9 1.7 2.1 3.6 2.6 3.2.8 5.5-.9 5.5-.9.2 1.2.3 2.6 1 4.2-2.3 2-7.3 2.9-11.5 1.5.6 3.4 2.3 6.8 4.3 9.4-.2.1-.7-.2-1.1-.4z"/><path d="m59 49.2c1.5-1.7 1.4-4.3-.2-6s-4.2-1.7-6-.2c-.8-2.1-3-3.4-5.3-2.8-2.2.6-3.6 2.8-3.2 5.1-2.2-.4-4.5.9-5.1 3.2-.6 2.2.6 4.5 2.8 5.3-1.5 1.7-1.4 4.3.2 6 1.6 1.6 4.2 1.7 6 .2.8 2.1 3 3.4 5.3 2.8 2.2-.6 3.6-2.8 3.2-5.1 2.2.4 4.5-.9 5.1-3.2.5-2.3-.7-4.5-2.8-5.3zm-7.4 6.5c-2.4.6-4.8-.8-5.4-3.1-.6-2.4.8-4.8 3.1-5.4 2.4-.6 4.8.8 5.4 3.1.7 2.4-.7 4.8-3.1 5.4z"/></svg>