<svg enable-background="new 0 0 64 64" viewBox="0 0 64 64" xmlns="http://www.w3.org/2000/svg"><path d="m0 0h64v64h-64z" fill="none"/><path d="m40.7 24.5c1.9-.6 2.3-2.9 2.3-4.4s-.3-2.3-.8-2.5c-.3-.1-.5-.1-.7-.1.2-3.1.4-9.1-.9-11.4-1.5-2.5-3.3-3.1-6.6-2.3-2.1-1.1-3.6-2.2-7.3-1.2-2.6.7-5.4 1.8-6.9 3.8-1 1.3-1.3 4.2-1.2 6.9l18.8 18.7c1.6-2 2.8-4.5 3.3-7.5z"/><path d="m34.8 52.6-2.5-1.5c-1.4-.8-1.8-2.6-1-4l.9-1.6c.8-1.4 2.6-1.8 4-1l.8.5c0-.5.1-1 .3-1.5.4-.7 1-1.2 1.7-1.4l1.8-.5c.1 0 .2-.1.3-.1-.3-.8-.3-1.8.1-2.5l-31.7-31.8-2.1 2.1 10 10v.8c0 1.5.4 3.8 2.3 4.4.6 5 3.1 8 6.2 10.6.8.7 2.3 1.1 3.8 1.1.1.2.1.5-.4.7-.9.3-3.8.7-6.9-.9 0 0 0 0-.1 0-2.3.6-10.3 2.9-12.8 5.5-2.9 3.1-4 14.5-4 14.5h26.4c.1-.9.6-1.8 1.4-2.3l1.6-.9c-.1-.1-.1-.1-.1-.2zm-10.8-.6h-9v-4h9z"/><path d="m61.4 47.2-2.3-.6c.1-1.2-.1-2.3-.5-3.3l2.6-3.3c.3-.4.2-1-.1-1.3l-1.4-1.1c-.4-.3-1-.2-1.3.1l-2.4 2.9c-.8-.4-1.7-.7-2.6-.8l-.6-2.8c-.1-.5-.6-.8-1.1-.7l-1.7.5c-.5.1-.8.6-.7 1.1l.6 2.7c-.6.3-1.1.6-1.6 1l-2.3-3c-.3-.4-.9-.5-1.3-.2l-1.4 1.1c-.4.3-.5.9-.2 1.3l2.8 3.6c-.4.5-.7.8-1.1 1-.3.2-1.1.3-1.7.4l-.6-1.9c-.1-.5-.7-.8-1.1-.6l-1.8.7c-.5.1-.8.7-.6 1.1l.6 1.9c-.5.3-.9.6-1.3 1l-3.1-1.8c-.4-.3-1-.1-1.3.3l-.9 1.7c-.3.4-.1 1 .3 1.3l3.5 2.1c-.1.7 0 1.5.2 2.3l-2.8 1.6c-.4.3-.6.8-.3 1.3l.9 1.6c.3.4.8.6 1.3.3l2.9-1.7c.6.4 1.2.8 2 1.1.1 0 .2.1.3.1l-.8 3.6c-.1.5.2 1 .7 1.1l1.8.4c.5.1 1-.2 1.1-.7l.8-3.9c1.2 0 2.3-.2 3.4-.4l.7 2.1c.2.5.7.7 1.2.6l1.7-.6c.5-.2.7-.7.6-1.2l-.7-2.1c.2-.1.4-.2.5-.3.7-.4 1.4-1 2.2-1.7l3 2.9c.4.3.9.3 1.3 0l1.3-1.3c.3-.4.3-.9 0-1.3l-3.1-3c.5-.7.9-1.4 1.2-2.1l2.4.6c.5.1 1-.2 1.1-.7l.5-1.8c0-.6-.3-1.1-.8-1.2zm-5.9-.8c-.4 2.6-2.9 5.9-5 7-2.1 1.2-5.9 1.9-8.2 1-.9-.3-1.4-.8-1.7-1.6-.6-1.8.6-2.6 1.2-2.9.4-.2 1.2-.3 1.8-.4 1.1-.2 2.2-.4 3.1-.9 1.4-.9 2.1-1.9 3.1-3.4l.1-.2c.3-.5 1.5-1.5 2.8-1.6.8-.1 1.6.2 2.2.9.3.3.7.8.6 2.1z"/></svg>