<svg height="64" viewBox="0 0 64 64" width="64" xmlns="http://www.w3.org/2000/svg"><path d="m0 0h64v64h-64z" fill="none"/><path d="m17.5926 49.6334c-.2899.5418-.7906 1.0657-1.4279 1.5068s-1.3018.7234-1.9066.8008c-.1638.0209-.1915.2443-.0415.3141.7406.3442 1.8054.4097 2.6061-.1444s1.1249-1.5808 1.0748-2.4028c-.0102-.1666-.2264-.2212-.3049-.0745z"/><path d="m12.3179 48.7274c-.4208.274-.5422.8408-.2711 1.266s.832.5479 1.2529.2739c.4208-.274.5421-.8408.271-1.266-.2711-.4253-.8321-.5479-1.2528-.2739z"/><path d="m16.403 48.2252c.4208-.274.5421-.8408.271-1.266s-.832-.5479-1.2528-.2739-.5422.8408-.2711 1.266c.2712.4252.8321.5479 1.2529.2739z"/><path d="m51.3143 45.2578c-2.4563-2.5671-9.2193-4.1663-11.0196-5.6074-.0018-.0156-.004-.0333-.0059-.049-.0965-.8401-.235-1.8577-.3792-2.8415 2.0215.2134 5.0197.5701 6.9231 1.2385.375.1318.771-.1191.875-.5381 1.0145-4.1027 1.8078-8.0523 1.8078-12.2415 0-7.2238-2.6247-14.9078-6.6863-17.7604l.1899-2.1381c.041-.4497-.1152-.8877-.43-1.2036-1.166-1.1641-4.0891-3.1167-10.5633-3.1167-6.4743 0-9.3973 1.9526-10.5659 3.1187-.3123.314-.4685.752-.428 1.1997l.1944 2.1863c-4.6627 3.6752-7.6941 9.95-7.6941 17.7142 0 3.7255.56 7.1546 1.8178 12.2415.1035.419.5.6699.875.5381 1.8217-.6398 4.2865-1.0065 7.3642-1.3018-.1118.9402-.2354 1.9943-.3572 3.0632-.8321.5941-3.0068 1.2548-5.3171 2.1177-1.0254-.5269-2.1839-.8301-3.4139-.8301-.8803 0-1.7219.1603-2.5073.4401.0262-1.1585-.3779-2.1102-1.4603-2.837-.3308-.2221-.682-.3231-.7289-.0618 1.262 1.7414.7006 3.5395-.3738 4.4393l.0035.0056c-1.4921 1.3717-2.4342 3.3328-2.4342 5.5147 0 1.7445.6037 3.3479 1.6062 4.6235-.7139 3.0907-1.0804 5.8281-1.0804 5.8281h9.4742s1.2963-4.8148 5-7.9561c0 0 5.7624.3159 12.1002 2.2997l-6.1002 3.3936c.0114.0744.0862.3286.4962.2468l8.3553-2.6768c2.915 1.1352 5.795 2.6559 8.1485 4.6928h10.5258s-1.4532-10.8584-4.2115-13.7422zm-36.8133 8.7921c-3.0332 0-5.501-2.4678-5.501-5.5015 0-3.0332 2.4678-5.501 5.501-5.501s5.501 2.4678 5.501 5.501c0 3.0337-2.4678 5.5015-5.501 5.5015zm17.5248-50.5499c5.1404 0 7.5608 1.3623 8.4911 2.0977l-.7148 8.4023h-15.5526l-.7149-8.4023c.9332-.7369 3.3536-2.0977 8.4912-2.0977zm-.4498 46.4385c-1.4863-.6377-6.1431-2.8809-8.3931-6.7989 2.8814-1.1933 2.713-2.2734 2.7632-2.7167.0657-.5789.5774-5.3235.5774-5.3235-2.518-2.48-3.5982-5.5714-4.0564-8.2801-.293-1.7298-.2532-3.3401-.1641-4.4102 3.6246-1.4291 8.387-3.9755 11.637-6.5618 1.3719 2.3821 3.77 4.9125 6.8432 6.9156.0662 1.034.0662 2.4655-.1989 4.0564-.5298 3.1827-2.8208 7.626-5.3403 9.1846-1.7213 1.0648-4.8734 1.2337-6.7116.4403.4235.8396 1.2729 1.8373 3.1547 2.3063 2.5354.6314 4.852-.4047 5.4494-.7518.1117.7949.2157 1.591.2886 2.2786.144 1.3596 1.8826 2.2987 3.127 2.8799-1.8438 3.2009-5.7267 5.5595-8.9761 6.7813z"/><path d="m31 12h2v-2h2v-2h-2v-2h-2v2h-2v2h2z"/></svg>