<svg height="64" viewBox="0 0 64 64" width="64" xmlns="http://www.w3.org/2000/svg"><path d="m0 0h64v64h-64z" fill="none"/><path d="m36.5171 56.7241c-1.3564 1.6334-1.6694-.6655-2.8694-.2452-1.1998.4202-.3651 2.5211-.3651 2.5211h8.2948c1.5129-4.2577-3.7039-3.9092-5.0603-2.2759z"/><path d="m14 56h11v3h-11z"/><path d="m46 51c0-1.0006-2 0-2-1 0-.65.9756-.8791 1.1956-1 .625-.3436 1.7888-1 1.7888-2s-1.7922-2-2.7922-2c-3 0-2.239 5-3.1921 5-.8281 0-.7188-.9844-1.5-.9844-.8311 0-1.9062 2.2188-2.2937 3.0059-.3456.702-.3524 1.9785.7936 1.9785 1 0 1.5833-1.0141 3-1 1 0 1 .6695 1 1 0 1 1 1 1 1 2 0 3-3.9428 3-4z"/><path d="m52.6128 44.1104c-2.1833-2.3746-8.4619-4.4866-11.386-5.3734-.155-1.1155-.3613-2.4073-.5466-3.4836 2.0466-2.4791 3.4867-5.9162 3.7689-7.9124l.0001-.0009c3.2423.3513 3.5017-.035 3.5017-3.4854 0-3.046-.1492-4.5209-.6345-5.4186-.3627-.6705-.9111-1.6948-.9111-1.6948-.7849-9.1034-6.6946-13.7413-14.4047-13.7413-.0001 0-.0004 0-.0004 0-7.7103 0-13.62 4.6379-14.4048 13.7414 0 0-.5486 1.0242-.9111 1.6948-.4856.8978-.6343 2.3727-.6343 5.4186 0 3.4666.2441 3.8098 3.4062 3.4791.0002.0021.0007.005.001.0071.3822 2.7027 2.4626 6.3958 4.3171 8.4715-.1061.807-.2283 1.7498-.353 2.7313-2.5129.7345-9.6714 2.9969-12.0342 5.5665-2.8734 3.1241-4.3871 14.8897-4.3871 14.8897h3.0017l.4885-2.9099c1.0327.7034 1.9902.838 1.7838-1.1362-.2606-2.4932.673-2.4984 3.6718-1.2722 2.9988 1.2263 3.7188-2.1941 2.4482-2.6781-1.2704-.4839-2.7551-1.3646-2.1877-2.7647.5496-1.3561 1.8149.4235 2.6619-.5445.6014-.6874-.9905-2.5602-1.9658-3.5907 1.7095-.7933 3.9041-1.6213 6.3447-2.3751.0779.6309.2419 1.2502.463 1.8579-1.1998.6143-2.9373 1.6299-2.3431 3.2068.1726.4584.3153 1.54 2.5366 1.8227 1.1857.1509 1.0389 2.2468-.688 1.9497-1.2757-.2195-2.2156-.2554-2.2156 1.3814 0 2.0529 1.9584 1.9969 2.5774 1.9042.842-.1261.9154-.6306 1.3569-1.2653.6393-.9188 2.4497-.9677 2.5376.2825.0867 1.2311-.0845 3.1312 2.4214 3.1315 1.8091.0002 1.146-1.7129 2.4343-2.9309l.0015.0012 1.8013-1.2939c1.1616-.834 6.418-4.8584 7.1865-9.8701 5.396 1.7168 8.2612 3.3359 9.0874 4.2344.8167.8879 1.7382 3.6982 2.4849 6.9423-2.2417.4478-1.0195 3.7214-2.9934 2.8825-1.9763-.84.762-2.694-.0696-3.6393-1.1544-1.3122-2.8262.6738-2.8262 2.6482 0 0 0 1.0256-1.6154 1.0256-1.7435 0-2.3846 3-2.3846 3h14s-1.5137-11.7656-4.3872-14.8896zm-20.6943-35.1521h1.6658l1.4082 3.6454v-3.6454h1.0889v5.1454h-1.6758l-1.3982-3.6476v3.6476h-1.0889zm-5.0047 0h1.1602v3.2299c0 .6678.3018.9787.9502.9787.6104 0 .9336-.3329.9336-.9635v-3.2451h1.1123v3.2677c0 1.1772-.8252 1.938-2.1025 1.938-1.3633 0-2.0537-.6292-2.0537-1.8699v-3.3358zm-4.2107 10.0417c.0562-.1693.1919-.3804.5026-.5409 1.4244-.8345 16.0449-.8345 17.4694 0 .3105.1605.4464.3716.5026.5409.0712.4531.1417 1.0323.2013 1.684-2.3072-.5373-5.1217-.684-9.4156-.684h-.0002c-4.3032 0-7.1211.1471-9.4312.6873.0648-.8226.1338-1.4499.1711-1.6873zm9.6779 30.3398c-2.3003-1.75-6.5919-5.5302-6.1588-9.0224.2371-1.9129.0408-.5492.8235-5.4371-2.26-2.1838-3.9207-4.6303-4.4993-7.9897-.1117-.6479-.158-1.4779-.1658-2.3546.0957.34.2871.6603.814.8722l5.087 1.9695c.4667.1876 1.0092.0455 1.3059-.342l1.4225-1.8578c.1064-.1389.2771-.2212.459-.2212h.9888c.1818 0 .3525.0823.4589.2212l1.4225 1.8578c.2969.3876.8392.5297 1.3059.342l5.087-1.9695c.35-.1407.6659-.396.7899-.7965-.0186.8518-.0718 1.688-.1843 2.4362-.6023 4.0027-3.2908 6.6743-5.6194 8.6561-.7806.6644-2.2499 1.1066-3.7188 1.1055-1.0627-.0008-2.1255-.2865-2.9271-.6349.6138.9305 1.6553 2.0744 3.5848 2.5851 3.1548.8349 5.4595-.9139 5.4595-.9139s.2827 1.9133.2744 2.4157c.3268 3.4882-3.5567 7.3168-6.0101 9.0783z"/></svg>