<svg enable-background="new 0 0 64 64" viewBox="0 0 64 64" xmlns="http://www.w3.org/2000/svg"><path d="m0 0h64v64h-64z" fill="none"/><path d="m51.789 45.258c-.962-1.006-2.581-1.858-4.302-2.612.45 1.547.327 2.99-.366 5.08 1.194.831 1.979 2.209 1.979 3.774 0 2.54-2.06 4.6-4.6 4.6s-4.6-2.059-4.6-4.6 2.06-4.6 4.6-4.6c.087 0 .169.021.255.026.643-1.936.676-3.071.075-4.267-.344-.685-.869-1.19-1.435-1.561-.601-.394-1.282-.658-1.789-.926-.335-.176-.623-.35-.837-.521-.097-.849-.238-1.888-.385-2.891 2.821.298 5.219.64 6.923 1.239.375.132.771-.119.875-.538 1.258-5.087 1.808-8.516 1.808-12.241 0-7.484-2.813-15.479-7.127-18.065-2.75-1.648-5.843-1.048-5.843-1.048s-2.973-2.863-8.173-1.884c-8.483 1.599-14.841 9.743-14.841 20.997 0 3.725.56 7.155 1.818 12.241.104.419.5.67.875.538 1.822-.64 4.287-1.007 7.364-1.302-.112.94-.235 1.994-.357 3.063-.58.414-1.819.862-3.295 1.387-1.384.596-2.059 1.312-2.056 2.961 1-.129 1.999.025 2.952.466 4.558 2.104 6.774 9.879 6.866 10.209.077.277.036.551-.065.798-.007.022-.012.044-.022.066-.035.074-.08.137-.129.203-.052.072-.113.144-.185.218-.014.011-.024.025-.038.036-.657.639-1.979 1.287-2.943 1.589-1.137.356-1.477-.18-1.748-.967-.269-.782-.156-1.295.846-1.912.38-.234.891-.509 1.43-.704-.872-2.359-2.698-6.174-5.061-7.266-.854-.395-1.67-.383-2.572.035-3.479 1.61-1.906 8.018-1.04 10.772.505-.222 1.036-.375 1.454-.469 1.147-.258 1.587.03 1.94.778.179.378.3.723.243 1.041h35.717c0-.001-1.453-10.859-4.211-13.743zm-19.722 3.639c-1.357-.582-5.52-2.593-7.699-6.082 2.133-1.061 2.007-1.989 2.052-2.392.066-.579.577-5.324.577-5.324-2.518-2.48-3.598-5.571-4.056-8.28-.293-1.73-.253-3.34-.164-4.41 4.802-1.893 11.604-5.747 14.235-9.057 0 0 .32.015.117.503-.344.831-.848 1.812-1.549 2.977 1.241 2.635 3.473 4.562 5.676 5.93.066 1.034.066 2.466-.199 4.056-.53 3.183-2.821 7.626-5.34 9.185-1.721 1.065-4.874 1.234-6.712.44.424.84 1.273 1.837 3.155 2.306 2.535.631 4.852-.405 5.449-.752.112.795.216 1.591.289 2.279.042.395.146 1.316 2.429 2.53-2.253 3.6-6.815 5.548-8.26 6.091z"/><path d="m15.914 45.014c-.098-1.023-.038-1.379.187-2.207-1.544.689-2.969 1.49-3.889 2.451-2.759 2.884-4.212 13.742-4.212 13.742h6.452c-.921-2.686-3.269-10.947 1.462-13.986z"/><circle cx="44.5" cy="51.5" r="2"/></svg>