<?xml version="1.0" encoding="utf-8"?>
<!-- Generator: Adobe Illustrator 17.1.0, SVG Export Plug-In . SVG Version: 6.00 Build 0)  -->
<svg version="1.2" baseProfile="tiny" xmlns="http://www.w3.org/2000/svg" xmlns:xlink="http://www.w3.org/1999/xlink" x="0px"
	 y="0px" width="64px" height="64px" viewBox="0 0 64 64" xml:space="preserve">
<g id="_x36_4px_Boxes">
	<rect fill="none" width="64" height="64"/>
</g>
<g id="Production">
	<rect fill="none" width="64" height="64"/>
	<g>
		<polygon points="27,12 29,12 29,10 31,10 31,8 29,8 29,6 27,6 27,8 25,8 25,10 27,10 		"/>
		<path d="M30.0762,49.439v-0.6368c-1.0763,0.5601-1.9987,0.9381-2.5259,1.1363c-1.4863-0.6377-6.1431-2.8809-8.3931-6.7989
			c2.8814-1.1933,2.713-2.2734,2.7632-2.7167c0.0657-0.5789,0.5774-5.3235,0.5774-5.3235c-2.518-2.48-3.5982-5.5714-4.0564-8.2801
			c-0.293-1.7298-0.2532-3.3401-0.1641-4.4102c3.6246-1.4291,8.387-3.9755,11.637-6.5618c1.3719,2.3821,3.77,4.9125,6.8432,6.9156
			c0.0662,1.034,0.0662,2.4655-0.1989,4.0564c-0.5298,3.1827-2.8208,7.626-5.3403,9.1846
			c-1.7213,1.0648-4.8734,1.2337-6.7116,0.4403c0.4235,0.8396,1.2729,1.8373,3.1547,2.3063
			c2.5354,0.6314,4.852-0.4047,5.4494-0.7518c0.1117,0.7949,0.2157,1.591,0.2886,2.2786c0.0363,0.3418,0.1201,1.0765,1.6146,2.0532
			l2.285-2.0609c-0.4198-0.2101-0.7764-0.4161-1.0301-0.6192c-0.0966-0.8489-0.2382-1.8883-0.385-2.8905
			c1.7095,0.1805,3.2601,0.3783,4.5986,0.6385l4.0473-3.6502c0.6589-3.2004,0.96-5.7871,0.96-8.5294
			c0-7.2238-2.6247-14.9078-6.6863-17.7604l0.1899-2.1381c0.041-0.4497-0.1152-0.8877-0.43-1.2036C37.3973,2.9526,34.4742,1,28,1
			c-6.4743,0-9.3973,1.9526-10.5659,3.1187c-0.3123,0.314-0.4685,0.752-0.428,1.1997l0.1944,2.1863
			c-4.6627,3.6752-7.6941,9.95-7.6941,17.7142c0,3.7255,0.56,7.1546,1.8178,12.2415c0.1035,0.419,0.5,0.6699,0.875,0.5381
			c1.8217-0.6398,4.2865-1.0065,7.3642-1.3018c-0.1118,0.9402-0.2354,1.9943-0.3572,3.0632
			c-1.6736,1.1948-8.7768,2.6575-11.4948,5.498C4.9531,48.1416,3.5,59,3.5,59h24H33v-6.0605
			C31.3398,52.6401,30.0762,51.1841,30.0762,49.439z M28,3.5c5.1404,0,7.5608,1.3623,8.4911,2.0977L35.7763,14H20.2238
			l-0.7149-8.4023C20.4421,4.8608,22.8624,3.5,28,3.5z"/>
		<path d="M60.5713,47.7935L47.3809,35.897c-0.2133-0.196-0.5413-0.196-0.7546,0L33.436,47.7935
			c-0.2294,0.2112-0.36,0.5085-0.36,0.8199v0.8254c0,0.3076,0.2495,0.5572,0.5572,0.5572H36V62h22V49.996h2.3741
			c0.3077,0,0.5571-0.2496,0.5571-0.5572v-0.8254C60.9312,48.302,60.8007,48.0047,60.5713,47.7935z M51,57h-8v-6h8V57z"/>
	</g>
</g>
</svg>
