<svg height="64" viewBox="0 0 64 64" width="64" xmlns="http://www.w3.org/2000/svg"><path d="m0 0h64v64h-64z" fill="none"/><path d="m0 0h64v64h-64z" fill="none"/><path d="m27 12h2v-2h2v-2h-2v-2h-2v2h-2v2h2z"/><path d="m30.0762 49.439v-.6368c-1.0763.5601-1.9987.9381-2.5259 1.1363-1.4863-.6377-6.1431-2.8809-8.3931-6.7989 2.8814-1.1933 2.713-2.2734 2.7632-2.7167.0657-.5789.5774-5.3235.5774-5.3235-2.518-2.48-3.5982-5.5714-4.0564-8.2801-.293-1.7298-.2532-3.3401-.1641-4.4102 3.6246-1.4291 8.387-3.9755 11.637-6.5618 1.3719 2.3821 3.77 4.9125 6.8432 6.9156.0662 1.034.0662 2.4655-.1989 4.0564-.5298 3.1827-2.8208 7.626-5.3403 9.1846-1.7213 1.0648-4.8734 1.2337-6.7116.4403.4235.8396 1.2729 1.8373 3.1547 2.3063 2.5354.6314 4.852-.4047 5.4494-.7518.1117.7949.2157 1.591.2886 2.2786.0363.3418.1201 1.0765 1.6146 2.0532l2.285-2.0609c-.4198-.2101-.7764-.4161-1.0301-.6192-.0966-.8489-.2382-1.8883-.385-2.8905 1.7095.1805 3.2601.3783 4.5986.6385l4.0473-3.6502c.6589-3.2004.96-5.7871.96-8.5294 0-7.2238-2.6247-14.9078-6.6863-17.7604l.1899-2.1381c.041-.4497-.1152-.8877-.43-1.2036-1.1661-1.1641-4.0892-3.1167-10.5634-3.1167-6.4743 0-9.3973 1.9526-10.5659 3.1187-.3123.314-.4685.752-.428 1.1997l.1944 2.1863c-4.6627 3.6752-7.6941 9.95-7.6941 17.7142 0 3.7255.56 7.1546 1.8178 12.2415.1035.419.5.6699.875.5381 1.8217-.6398 4.2865-1.0065 7.3642-1.3018-.1118.9402-.2354 1.9943-.3572 3.0632-1.6736 1.1948-8.7768 2.6575-11.4948 5.498-2.7583 2.8837-4.2114 13.7421-4.2114 13.7421h24 5.5v-6.0605c-1.6602-.2994-2.9238-1.7554-2.9238-3.5005zm-2.0762-45.939c5.1404 0 7.5608 1.3623 8.4911 2.0977l-.7148 8.4023h-15.5525l-.7149-8.4023c.9332-.7369 3.3535-2.0977 8.4911-2.0977z"/><path d="m60.5713 47.7935-13.1904-11.8965c-.2133-.196-.5413-.196-.7546 0l-13.1903 11.8965c-.2294.2112-.36.5085-.36.8199v.8254c0 .3076.2495.5572.5572.5572h2.3668v12.004h22v-12.004h2.3741c.3077 0 .5571-.2496.5571-.5572v-.8254c0-.3114-.1305-.6087-.3599-.8199zm-9.5713 9.2065h-8v-6h8z"/></svg>