<svg height="64" viewBox="0 0 64 64" width="64" xmlns="http://www.w3.org/2000/svg"><path d="m0 0h64v64h-64z" fill="none"/><path d="m54.8868 4s-26.8329 0-33.8868 0c-6.9338 0-14 2.6875-14 9.9661v39.1923c0 4.0852 2.1243 6.8416 6 6.8416h33.8831c1.1691 0 2.1169-.9461 2.1169-2.1132v-41.7736c0-1.1671-.9478-2.1132-2.1169-2.1132-10.9956 0-21.9893 0-33.002 0-.912 0-1.3414-.8251-1.0179-1.7457 1.0118-2.8793 6.2618-3.2543 8.1368-3.2543h31v42h3c1.1046 0 2-.8954 2-2v-42.8868c0-1.1671-.9461-2.1132-2.1132-2.1132z"/></svg>