<svg enable-background="new 0 0 64 64" viewBox="0 0 64 64" xmlns="http://www.w3.org/2000/svg"><path d="m51 16h-2v25c0 1.6694-.8881 1.8043-3.2589 1.8043-2.373 0-6.5152.3479-8.4483.9579-3.5864 1.1353-4.0148 2.7315-5.2927 2.7315-1.2803 0-1.7087-1.5962-5.2951-2.7315-1.933-.61-6.0748-.9579-8.4457-.9579-2.3733 0-3.2593-.1349-3.2593-1.8043v-25h-2c-1.6735 0-2 1.0725-2 2v27c0 .9274.7464 1.7372 1.6748 1.7372l5.5845.4054c2.3708 0 6.5126.0844 8.4457.6964 3.5864 1.1334 4.0148 2.9936 5.2951 2.9936 1.2779 0 1.7063-1.8602 5.2927-2.9936 1.933-.6119 6.0752-.6964 8.4483-.6964l5.5819-.4054c.9285 0 1.677-.8098 1.677-1.7372v-27c0-.9275-.5267-2-2-2z"/><path d="m26.0176 40.4259c.7964.171 1.5442.4133 2.1925.6641 2.241 1.0304 2.7156 2.1532 3.79 2.1532 1.072 0 1.5466-1.1228 3.7876-2.1532.6505-.2508 1.3984-.4931 2.1948-.6641 2.5609-.5479 8.0175-.4259 8.0175-.4259v-27h-6c-4.773 0-5.8632 1.5188-6.0087 3.1077l-1.4401 15.5606c-.0996.6172-.5996.507-.5996.507l-1.5743-15.4636c-.1735-1.8065-1.2085-3.7117-6.3773-3.7117h-6v27s5.4548-.122 8.0176.4259z"/></svg>