<svg enable-background="new 0 0 64 64" height="64" viewBox="0 0 64 64" width="64" xmlns="http://www.w3.org/2000/svg"><path d="m0 0h64v64h-64z" fill="none"/><path d="m62.4 57.3-8.2-7.3c2.7-4.3 2.3-10-1.5-13.7-4.3-4.3-11.3-4.3-15.6 0s-4.3 11.3 0 15.6c3.9 3.6 9.6 4.1 13.9 1.3l7.4 8.2c1 1.1 2.7.9 3.8-.2 1.2-1.2 1.4-2.8.2-3.9zm-12.4-8.3c-2.8 2.8-7.3 2.8-10 0-2.8-2.8-2.8-7.3 0-10 2.8-2.8 7.3-2.8 10 0 2.8 2.8 2.8 7.2 0 10z" fill="#fff"/><path d="m19.2 26h13.5c3.2 0 5.8-2.6 5.8-5.8v-5.5c0-7.1-3.3-13.5-12.5-13.5s-12.5 6.4-12.5 13.5v5.5c-.1 3.2 2.5 5.8 5.7 5.8z"/><path d="m33.9 36.9c.5-.8 1.1-1.5 1.8-2.2 2-2 4.5-3.2 7-3.7.4-2.1.6-4.7.6-7.9h2.9c1.1 0 1.9-.9 1.9-1.9v-1.6c0-4.3-7.4-4.4-7.4.7 0 2.7 0 5.1-.2 7.1 0 .5-.4.8-.8.9-2 .2-7.5.8-13.7.8s-11.7-.6-13.7-.8c-.5-.1-.8-.4-.8-.9-.2-2-.2-4.4-.2-7.1 0-5.1-7.4-5-7.4-.7v1.6c0 1.1.9 1.9 1.9 1.9h2.9c.1 4.4.4 7.8 1.2 10.1.3.7.9 1.4 1.6 1.7 2.3 1.1 6.8 2.7 14.5 2.7h.9c0 .1 0 .2-.3.3-.4.2-1.8.7-3.6 1.1v5.8l-11.9 2.1c-.9.2-1.6 1-1.6 1.9v.6c-1.1.5-1.9 1.7-1.9 3 0 1.9 1.5 3.4 3.4 3.4s3.4-1.5 3.4-3.4c0-1.2-.6-2.2-1.5-2.8l10.7-1.3.2 1.5c-.8.6-1.3 1.6-1.3 2.6 0 1.9 1.5 3.4 3.4 3.4s3.4-1.5 3.4-3.4c0-1.1-.5-2-1.3-2.6l.2-1.5 4.4.5c-.5-1.2-.8-2.4-.9-3.6l-3-.5v-7.3c2.1 0 3.7-.2 5.2-.5z"/><path d="m62.4 57.3-8.2-7.3c2.7-4.3 2.3-10-1.5-13.7-4.3-4.3-11.3-4.3-15.6 0s-4.3 11.3 0 15.6c3.9 3.6 9.6 4.1 13.9 1.3l7.4 8.2c1 1.1 2.7.9 3.8-.2 1.2-1.2 1.4-2.8.2-3.9zm-12.4-8.3c-2.8 2.8-7.3 2.8-10 0-2.8-2.8-2.8-7.3 0-10 2.8-2.8 7.3-2.8 10 0 2.8 2.8 2.8 7.2 0 10z"/></svg>