<svg enable-background="new 0 0 64 64" viewBox="0 0 64 64" xmlns="http://www.w3.org/2000/svg"><path d="m0 0h64v64h-64z" fill="none"/><path d="m51.43 20.456-14.82-14.849c-.375-.375-.876-.607-1.406-.607h-21.172c-1.104 0-2.032.938-2.032 2.042v46c0 1.104.928 1.958 2.032 1.958h18.968v-5h-16v-40h16.741l.916-3.114c.108-.341.343-.21.343-.21v14.366c0 .552.48.958 1.032.958h14.367s.106.271-.235.38l-3.164.954v26.666h-4v5h7.032c1.1 0 1.968-.858 1.968-1.958v-31.171c0-.531-.195-1.04-.57-1.415z"/><path d="m38.032 41.042c-2.761 0-5.016 2.239-5.016 5 0 1.63.984 3.065 1.984 3.977v8.459c0 .501.622.752.977.398l1.65-1.642c.22-.22.58-.22.8 0l1.628 1.642c.353.354.945.103.945-.398v-8.459c1-.913 2.016-2.347 2.016-3.977 0-2.761-2.222-5-4.984-5zm0 7c-1.103 0-2-.897-2-2s.897-2 2-2 2 .897 2 2-.897 2-2 2z"/><path d="m21 26h22v3h-22z"/><path d="m21 32h22v3h-22z"/><path d="m22.307 41.308c-.608 1.281-1.505 2.917-1.126 4.374.073.281.314.407.578.44.565.072 1.5-.598 1.982-1.221-.002.07-.003.129.001.154.045.297.185.694.43.893.212.172.478.235.727.094.368-.209.607-.549.833-.905.029.364.166.678.529.855.772.375 1.212-.293 1.619-.889.147.203.411.357.669.267.752-.261.491-.859 1.02-.091.435.632 1.476.033 1.036-.606-.314-.456-.236-1.012-.837-1.157-.4-.096-.721.154-1.033.389-.01-.044-.029-.085-.038-.129-.089-.346-.567-.588-.882-.359-.523.382-.61.739-.89 1.27-.241.455.113-.391.149-.656.031-.23.068-.454.08-.687.026-.482-.521-.71-.903-.518-.574.289-.871.854-1.197 1.36.101-.447.201-.937-.003-1.207-.119-.157-.298-.325-.518-.297-.87.11-1.569 1.474-2.232 2.015.085-.953.692-2.051 1.04-2.783.332-.694-.702-1.303-1.034-.606z"/></svg>