<svg enable-background="new 0 0 64 64" viewBox="0 0 64 64" xmlns="http://www.w3.org/2000/svg"><path d="m0 0h64v64h-64z" fill="none"/><path d="m58.582 11.834c-7.681-1.112-15.408-1.112-23.089 0-1.976.294-3.493 2.132-3.493 3.997v40.338c0 1.866 1.592 3.703 3.569 3.997 7.681 1.112 15.332 1.112 23.014 0 1.976-.294 3.417-2.132 3.417-3.997 0-13.446 0-26.892 0-40.338 0-1.865-1.441-3.703-3.418-3.997zm-11.582 46.366c-1.491 0-2.7-1.209-2.7-2.7s1.209-2.7 2.7-2.7 2.7 1.209 2.7 2.7-1.209 2.7-2.7 2.7zm11-8.2h-22v-32h22z"/><path d="m7 20.292-3.148-.932c-.342-.11-.219-.36-.219-.36h14.367c.552 0 1-.448 1-1v-14.366s.251-.11.36.231l.932 3.135h16.708v2.628c1.662-.204 3.33-.358 5-.461v-5.167c0-1.104-.896-2-2-2h-21.171c-.531 0-1.04.211-1.415.586l-14.828 14.828c-.375.375-.586.884-.586 1.415v31.171c0 1.1.9 2 2 2h26v-5h-23z"/><path d="m23 16h7v3h-7z"/><path d="m18 26h12v3h-12z"/><path d="m11 26h5v3h-5z"/><path d="m18 32h12v3h-12z"/><path d="m11 32h5v3h-5z"/><path d="m11 38h5v3h-5z"/><path d="m18 38h12v3h-12z"/><path d="m45.124 38.994c.264.389.671.656 1.141.659h.007c.468 0 .891-.252 1.141-.647 4.201-6.641 6.69-10.501 6.69-10.501.352-.588.198-1.347-.354-1.753s-1.322-.325-1.778.185l-5.818 6.551-3.836-3.38c-.491-.426-1.219-.433-1.719-.018s-.627 1.131-.299 1.693c-.001 0 2.103 3.214 4.825 7.211z"/></svg>