<svg height="64" viewBox="0 0 64 64" width="64" xmlns="http://www.w3.org/2000/svg"><path d="m0 0h64v64h-64z" fill="none"/><path d="m50 7h-21.1714c-.5307 0-1.0395.2109-1.4145.5859l-14.8282 14.8282c-.375.375-.5859.8838-.5859 1.4145v31.1714c0 1.0996.8999 2 2 2h36c1.1046 0 2-.8955 2-2v-46c0-1.1045-.8954-2-2-2zm-3 45h-30v-26.7082l-3.1484-.9324c-.3411-.109-.2185-.3594-.2185-.3594h14.3669c.5522 0 1-.4478 1-1v-14.3659s.2509-.1096.3599.231l.9316 3.1349h16.7085z"/><path d="m41.9847 41 3.0153-10h-2.3508l-2.0688 7.2653-2.0827-7.2653h-2.4977l2.9835 10z"/><path d="m28.2445 34.0237c0 1.2723.6558 2.161 1.8961 2.5706l1.1935.398c1.1854.3953 1.2769.7104 1.2769 1.1122 0 .5887-.7443.9998-1.8099.9998-.8386 0-1.5076-.0625-2.3861-.2231l-.2871-.0528v1.9629l.2004.0342c.8491.1458 1.5281.1745 2.4146.1745 2.4818 0 4.0851-1.265 4.0851-3.2227 0-1.3149-.6918-2.1453-2.1771-2.6146l-1.1793-.3693c-.8652-.268-1.0391-.5693-1.0391-.9687 0-.5901.6013-.929 1.6493-.929.6927 0 1.239.0509 1.9492.181l.2653.0486.1554-1.8943-.2113-.0412c-.6438-.126-1.3404-.1898-2.071-.1898-2.3841 0-3.9249 1.1867-3.9249 3.0237z"/><path d="m24.6832 32.967c.6877 0 1.019.012 1.774.1389l.2612.0435.1744-1.918-.214-.0417c-.7207-.1402-1.2273-.1897-1.937-.1897-3.1281 0-5.149 2.0688-5.149 5.2703 0 2.9172 1.8832 4.7297 4.9145 4.7297.9819 0 1.3598-.0602 2.1887-.2324l.1931-.0402v-1.8704l-.2883.0523c-.7893.1417-1.214.1805-1.9761.1805-1.2449 0-2.6987-.7831-2.6987-2.9904-.0002-2.3094 1.424-3.1324 2.7572-3.1324z"/></svg>