<svg height="64" viewBox="0 0 64 64" width="64" xmlns="http://www.w3.org/2000/svg"><path d="m0 0h64v64h-64z" fill="none"/><path d="m38.024 46.2718 12.6852-3.1069.0007-1.6357-12.6677 2.7094z"/><path d="m40.0508 42.2551 2.5133-.5259.0696-4.7652 1.9455-.2032-3.1091-4.9004-3.652 5.6589 2.3322-.2216z"/><path d="m47.2294 36.4635-.0297 4.4174 2.3521-.4455.0106-4.2336 1.3965-.1567-2.5174-4.3848-2.8134 4.9828z"/><path d="m57.2341 15.4034-25.7473-6.3564c-.3196-.0789-.6533-.0758-.9714.009l-23.767 6.3369c-.4407.1175-.7484.5255-.7484.9925v30.2342c0 .4528.2897.8521.7126.9822l23.734 7.3017c.3615.1112.7463.1153 1.11.0117l25.711-7.324c.4328-.1233.7324-.5274.7324-.9881v-30.2027c0-.474-.3167-.8861-.7659-.997zm-39.0598 6.4901-3.4044.1056c-1.0632.033-1.7338-.7916-1.7489-1.7626-.0162-1.0414.7336-2.1277 1.9087-2.3738l3.8011-.796c1.345-.2816 2.2451.7503 2.2396 1.986-.0062 1.3871-1.1754 2.7905-2.7961 2.8408zm36.8257 23.0555-23 6.0282v-38.023l10 2.2547v7.145l5 .4082v-6.4258l8 1.8038z"/></svg>