<svg height="64" viewBox="0 0 64 64" width="64" xmlns="http://www.w3.org/2000/svg"><path d="m0 0h64v64h-64z" fill="none"/><path d="m14 21h36c1.6569 0 3-1.3431 3-3v-7c0-1.6569-1.3431-3-3-3h-36c-1.6569 0-3 1.3431-3 3v7c0 1.6569 1.3431 3 3 3zm2-7.2c1.2151 0 2.2.9849 2.2 2.2s-.9849 2.2-2.2 2.2-2.2-.9849-2.2-2.2.9849-2.2 2.2-2.2z"/><path d="m14 36h23.7578l5.8281-5.8281c.7549-.7559 1.7598-1.1719 2.8282-1.1719h6.5859v-3c0-1.6569-1.3431-3-3-3h-36c-1.6569 0-3 1.3431-3 3v7c0 1.6569 1.3431 3 3 3zm2-7.2c1.2151 0 2.2.9849 2.2 2.2s-.9849 2.2-2.2 2.2-2.2-.9849-2.2-2.2.9849-2.2 2.2-2.2z"/><path d="m11 41v7c0 1.6569 1.3431 3 3 3h20v-9.5859c0-1.0684.416-2.0728 1.1719-2.8281l.5859-.586h-21.7578c-1.6569 0-3 1.3431-3 3zm5 2.8c1.2151 0 2.2.9849 2.2 2.2s-.9849 2.2-2.2 2.2-2.2-.9849-2.2-2.2.9849-2.2 2.2-2.2z"/><path d="m58 32h-11.5859c-.2653 0-.5196.1053-.7072.2929l-8.414 8.4142c-.1876.1876-.2929.4419-.2929.7071v16.5858c0 .5523.4477 1 1 1h20c.5523 0 1-.4477 1-1v-25c0-.5523-.4477-1-1-1zm-2 24h-16v-14.0001h5.9996c.5523 0 1-.4477 1-.9999l.0004-6h9z"/></svg>