<svg height="64" viewBox="0 0 64 64" width="64" xmlns="http://www.w3.org/2000/svg"><path d="m0 0h64v64h-64z" fill="none"/><path d="m42.9516 36c-.0004-.0062-.0001-.0121-.0005-.0183-.3512-6.3717-6.5269-13.5938-10.3489-17.208 1.0096-.3193 1.5781-1.369 1.5781-2.6284 0-1.512-.8096-2.7377-2.2318-2.7377h-.6354c.8406-1.0117 2.4902-2.442 3.0151-3.6696 1.1143-2.606-1.6959-3.2546-5.5534-4.3235v-3.108c0-3.594-13.2744 1.3347-12.1617 5.2952.6542 2.3284 2.2119 4.5305 3.1124 5.8059h-.6525c-1.4222 0-2.2318 1.2257-2.2318 2.7377s.8096 2.7377 2.2318 2.7377h5.4523c.019.0513.0614.2394-.228.3322-.1848.0593-4.6376.8989-7.835 1.4987-3.6725 3.8111-8.0961 9.9028-8.3918 15.2678-.3549 6.4387 2.3828 10.7177 2.3828 10.7177l-2.3813 3.8099c-.9497 1.5196.1428 3.4907 1.9347 3.4907h11.9933v-13.5c0-2.4814 2.0186-4.5 4.5-4.5z"/><path d="m55.5 39h-29c-.8284 0-1.5.6716-1.5 1.5v19c0 .8284.6716 1.5 1.5 1.5h29c.8284 0 1.5-.6716 1.5-1.5v-19c0-.8284-.6716-1.5-1.5-1.5zm-1.8669 3-12.6242 8.3545-12.6243-8.3545zm.3669 15.9584-7.7655-5.8624s-.1544.0981-.0156.2675c.1387.1694 4.3587 5.6365 4.3587 5.6365h-19.0606s4.2138-5.4571 4.3519-5.6265-.0081-.2775-.0081-.2775l-7.8608 5.904v-13.2475l12.3026 8.2035c.2138.1416.46.2125.7063.2125.2462 0 .4924-.0709.7062-.2125l12.2849-8.2035z"/></svg>