<?xml version="1.0" encoding="utf-8"?>
<!-- Generator: Adobe Illustrator 18.1.1, SVG Export Plug-In . SVG Version: 6.00 Build 0)  -->
<svg version="1.2" baseProfile="tiny" xmlns="http://www.w3.org/2000/svg" xmlns:xlink="http://www.w3.org/1999/xlink" x="0px"
	 y="0px" width="64px" height="64px" viewBox="0 0 64 64" xml:space="preserve">
<g id="Box">
	<rect fill="none" width="64" height="64"/>
</g>
<g id="Icon">
	<path d="M21.9688,25.9492c-0.9199,0-1.9023,0.627-1.9023,2.3867c0,1.6035,0.6758,2.4863,1.9023,2.4863
		c0.9141,0,1.8916-0.624,1.8916-2.376C23.8604,26.8359,23.1885,25.9492,21.9688,25.9492z"/>
	<path d="M14.252,25.9385h-0.5938v2.166h0.7031c0.7578,0,1.21-0.4316,1.21-1.1543C15.5713,26.251,15.1641,25.9385,14.252,25.9385z"
		/>
	<path d="M7.915,25.9385H7.2666v2.3438c0.168,0.0215,0.3271,0.0312,0.5273,0.0312c0.8594,0,1.3525-0.4453,1.3525-1.2207
		C9.1465,26.3164,8.7432,25.9385,7.915,25.9385z"/>
	<path d="M61.069,18H2.931C1.8646,18,1,18.9661,1,20.1579v15.6842C1,37.0339,1.8646,38,2.931,38H28v21h8V39.5386l-5.775-1.1494
		c-0.3461-0.111-0.2955-0.3359-0.2727-0.3972L61.069,38C62.1354,38,63,37.0339,63,35.8421V20.1579C63,18.9661,62.1354,18,61.069,18z
		 M7.959,29.5693c-0.2656,0-0.4746-0.0088-0.6924-0.0312v2.5615H5.7471v-7.416h2.3662c1.6084,0,2.6074,0.8848,2.6074,2.3105
		C10.7207,28.5586,9.6367,29.5693,7.959,29.5693z M16.0537,32.0996l-0.0293-0.0479l-1.6201-2.7139h-0.7461v2.7617h-1.5195v-7.416
		h2.2119c1.75,0,2.7949,0.7891,2.7949,2.1123c0,0.9482-0.459,1.7148-1.2656,2.1211l1.9502,3.1826H16.0537z M21.8916,32.1982
		c-2.1045,0-3.4111-1.4336-3.4111-3.7412c0-2.6758,1.791-3.873,3.5654-3.873c2.0977,0,3.4004,1.4336,3.4004,3.7412
		C25.4463,31.001,23.6611,32.1982,21.8916,32.1982z M32.5977,24.8115l-2.1553,7.2881H28.335l-0.0205-0.0713l-2.1504-7.3447h1.6836
		l0.0205,0.0723l1.5918,5.6631l1.6016-5.7354h1.5742L32.5977,24.8115z M35.4434,32.0996h-1.5195v-7.416h1.5195V32.0996z
		 M43.1484,32.0996h-2.2383l-0.0234-0.0654l-1.9746-5.4219v5.4873h-1.4199v-7.416h2.2383l0.0234,0.0654l1.9736,5.418v-5.4834h1.4209
		V32.0996z M50.1504,31.9814l-0.0781,0.0166c-0.6279,0.1357-0.8926,0.1787-1.6279,0.1787c-2.2266,0-3.6094-1.3701-3.6094-3.5762
		c0-2.4268,1.4854-3.9941,3.7852-3.9941c0.5264,0,0.9033,0.0371,1.4385,0.1445l0.0879,0.0176l-0.1162,1.3193l-0.1064-0.0186
		c-0.5703-0.0986-0.835-0.1084-1.3477-0.1084c-1.042,0-2.1553,0.6592-2.1553,2.5068c0,1.7695,1.1377,2.3984,2.1113,2.3984
		c0.5771,0,0.9004-0.0312,1.5-0.1426l0.1182-0.0215V31.9814z M53.0664,32.0996h-1.5195v-7.416h1.5195V32.0996z M59.1318,32.0996
		h-4.0166v-7.416h3.9834v1.2881h-2.4639v1.6709h2.2666v1.2881h-2.2666v1.8799h2.4971V32.0996z"/>
</g>
</svg>
