<?xml version="1.0" encoding="utf-8"?>
<!-- Generator: Adobe Illustrator 19.1.0, SVG Export Plug-In . SVG Version: 6.00 Build 0)  -->
<svg version="1.2" baseProfile="tiny" xmlns="http://www.w3.org/2000/svg" xmlns:xlink="http://www.w3.org/1999/xlink" x="0px"
	 y="0px" width="64px" height="64px" viewBox="0 0 64 64" xml:space="preserve">
<g id="_x36_4px_Box">
	<rect fill="none" width="64" height="64"/>
</g>
<g id="Icon">
	<g>
		<path d="M16.0411,50.8656l-1.5397-0.6722c-0.1154-0.0505-0.2495-0.0301-0.3449,0.0523l-1.2663,1.0942
			c-0.1107,0.0956-0.2714,0.1062-0.3936,0.0259l-2.1838-1.4347c-0.1823-0.1198-0.4163-0.1268-0.6056-0.0184L9.1713,50.22
			c-0.199,0.1141-0.4467,0.0999-0.6313-0.0363l-1.942-1.4329c-0.1707-0.1259-0.4124-0.0794-0.5242,0.1008l-1.4859,2.3953
			c-0.0717,0.1156-0.0644,0.2635,0.0183,0.3716l0.8289,0.9142c0.1009,0.1318,0.2529,0.2139,0.4184,0.2254
			c0,0,1.6622,0.435,1.8809,0.1381S8,51.7713,8,51.7713l1.2592,0.0534c0.0653-0.007,0.1312,0.0059,0.1891,0.0369l3.5152,1.8806
			c0.1167,0.0625,0.2595,0.0485,0.3618-0.0354l2.7923-2.2881C16.3067,51.2636,16.2652,50.9635,16.0411,50.8656z"/>
		<path d="M13.7657,41.4135l1.5733,1.4778c0.3575,0.3358,0.8933,0.3963,1.3167,0.1487l0.4548-0.266
			c0.3854-0.2254,0.4927-0.5579,0.1774-0.8738l-3.5142-2.3345c-0.0748-0.0497-0.1595-0.0803-0.2494-0.0774
			c-0.5614,0.0178-2.4419-0.0002-2.4419,1.24l1.7373,0.2348C13.1427,41.1169,13.4427,41.2596,13.7657,41.4135z"/>
		<path d="M12.2792,43.7348l0.5177,0.3246c0.6409,0.402,1.4521,0.4144,2.105,0.0322l0.0108-0.0063l-1.7175-1.3916
			c-0.3277-0.2656-0.7249-0.4314-1.1441-0.4779l-1.7878-0.1979c-0.2627-0.0291-0.5278,0.0748-0.69,0.2835
			c-0.2608,0.3356-0.4958,0.6827-0.6996,1.0368l2.3879,0.0843C11.6224,43.4353,11.9734,43.543,12.2792,43.7348z"/>
		<path d="M42.1379,2.0908C43,1.9183,43.1725,1.7946,43.1725,1.6222c0-0.1724-0.5173-0.3449-1.3794-0.3793
			c0,0-1.3103,0.2069-1.2414,0.7586C40.6207,2.5532,41.2758,2.2632,42.1379,2.0908z"/>
		<path d="M29.4991,27.2271l2.9127,1.2896c0.4682,0.2072,1.0036,0.2143,1.4688,0.0005c1.3253-0.6087,3.1701-1.6872,3.883-2.9932
			c0.1371-0.2514,0.172-0.546,0.1626-0.8322c-0.0089-0.2719-0.0286-0.5405-0.0568-0.7916
			c-0.0966-0.8617-0.7981-1.5347-1.6633-1.5929c-0.4968-0.0334-1.0943-0.048-1.729-0.0396
			c-0.4779,0.0063-0.9376,0.1944-1.2757,0.5324l-3.7023,3.7024V27.2271z"/>
		<path d="M23.9311,13.8636c0.3103,0.0345,1.2414-0.9655,1.4827-1.2069c0.2414-0.2414,0.2207-1.7277,0-2.0345
			c-0.2207-0.3068-0.3952-0.7362-0.8528-0.5577c-0.4575,0.1784-1.6644,2.8902-1.5955,3.224
			C23.0345,13.6222,23.6207,13.8291,23.9311,13.8636z"/>
		<path d="M37.0265,3.0834c0.6552-0.1217,1.8011-0.0822,1.7666-0.7393c0,0-0.0345-0.4802-2.1034-0.1184
			c-2.069,0.3618-2.3448,0.3374-2.3448,0.8241C34.3449,3.5366,36.3713,3.2051,37.0265,3.0834z"/>
		<path d="M30.1111,5.274c0,0,1.3861-0.8743,2.4913-0.859c1.1052,0.0152,0.6275-0.8809,0.6275-0.8809s-0.7587-0.7661-3.009,0.6445
			c-2.2504,1.4105-1.6564,1.5762-1.6177,1.6705C28.6419,5.9433,29.278,5.9504,30.1111,5.274z"/>
		<path d="M26.9756,8.22c0.3103-0.5861,1.2027-0.7554,0.8175-1.253c0,0-0.8276-0.2069-1.5862,0.6552s-1.2414,1.2759-0.931,1.7241
			C25.5862,9.7946,26.6652,8.8063,26.9756,8.22z"/>
		<path d="M51.8136,20.4591l4.2085-2.8057C56.633,17.2461,57,16.5604,57,15.826V9.0397c0-1.2791-0.6177-2.4795-1.6585-3.2229
			l-3.9162-2.7973c-0.8966-0.6404-2.0436-0.8185-3.0923-0.4803L33.9714,7.1719c-0.4667,0.1506-0.8064,0.5545-0.8748,1.0401
			l-0.9479,6.7335c-0.0862,0.6118,0.2767,1.1977,0.8629,1.3931l1.113,0.3711C34.6474,16.884,35,17.3733,35,17.9244v2.0169
			c0,0.4498,0.3557,0.8161,0.8049,0.8368c1.1953,0.0548,2.3047,0.2383,2.7596,0.6932c0.7636,0.7626,0.8251,3.2722,0.8284,3.899
			c-0.0151,0.0927-0.0298,0.1826-0.045,0.2753c-0.8862,2.4669-4.6134,4.5237-5.8637,5.1556
			c-0.2519,0.1273-0.5494,0.1219-0.795-0.0171L28.6007,28.47c-0.3657-0.162-0.6016-0.5243-0.6015-0.9243L28,24.7154v-1.8408
			c0-0.5304,0.314-1.0105,0.8-1.2231l0.0252-0.0111c0.6564-0.2871,0.9691-1.0412,0.7086-1.7086l-1.2158-3.1155
			c-0.1917-0.4913-0.6652-0.8148-1.1927-0.8148c-1.7158,0-1.8749,0.138-2.8721-0.4116c-0.683-0.3763-1.5411-0.0597-1.816,0.67
			c-0.275,0.7298-0.4363,7.4289-1.7454,11.0946c-1.7684,4.9517-5.4789,8.082-5.4789,8.082c-0.086,0.2281-0.1461,0.4633-0.18,0.7049
			c-0.0426,0.3034-0.1015,0.7319-0.1534,1.0736c-0.0537,0.3544,0.0649,0.7103,0.3206,0.9615
			c0.9528,0.9362,3.1849,3.1546,3.1849,3.1546c0.7757,0.7775,0.6077,2.0782-0.34,2.6331l-2.3856,1.3965
			c-0.2438,0.1428-0.2623,0.4884-0.0352,0.6567c1.1445,0.8478,2.1272,1.5759,2.2037,1.633
			c0.1894,0.1413,0.0564,0.5678,0.0564,0.5678l-4.5237-2.5078c-0.896-0.5204-1.9366-0.8111-2.9725-0.7867
			c0,0-5.2647,0.4083-3.8814,1.7916c0.6988,0.6371,2.1001,2.2563,2.5693,2.0986c0.3127-0.1051,0.7186-0.442,0.7186-0.442
			l3.0384,1.7202c0.2295,0.0952,0.2325-0.3165,0.4582-0.7211c0.2258-0.4047,0.7203-0.5746,1.1485-0.3973
			c0,0,3.3572,1.4636,3.9159,1.6204c0.4348,0.122,0.8163,0.0463,1.1488-0.3494c0.2905-0.3457,1.054-1.581,1.054-1.581
			c0.2704-0.4055,0.7477-0.6224,1.2311-0.5593l6.8881,0.9c0.3879,0.0506,0.7313,0.2759,0.9324,0.6115
			c0.4861,1.0012,0.6557,1.2433,1.2111,1.5485c0.2361,0.1298,7.7007,3.2988,7.7007,3.2988c0.6032,0.2583,0.9133,0.931,0.7182,1.5575
			l-1.1209,3.5985c0.0005,0.2609,0.001,0.504,0.0015,0.7649l0.5424,1.7199c0.1685,0.5343,0.6646,0.8971,1.2249,0.8958l3.835-0.0092
			C44.4287,62.9891,45,62.4164,45,61.7106c-0.2502-0.4178-1.294-2.4062-1.5354-2.5269l-0.5843-0.2922
			c-0.4339-0.2169-0.7078-0.6602-0.7078-1.1452v-0.6784c0-0.3395,0.1348-0.6651,0.3749-0.9052l2.239-1.9477
			c0.1045-0.169,0.2048-0.3313,0.3093-0.5005l1.7157-5.1472c0.1196-0.3587,0.0744-0.752-0.1233-1.0743l-4.2301-6.8955
			c-0.2197-0.3582-0.2497-0.8016-0.08-1.1861l0.2303-0.522c0.2316-0.525,0.7843-0.8318,1.3524-0.7507l5.4057,0.7722
			c0.3989,0.0571,0.8014-0.0771,1.0863-0.3621l2.5631-2.5631c0.5368-0.5368,0.5186-1.4126-0.0401-1.9266l-0.0347-0.0319
			c-0.5587-0.514-0.5769-1.3898-0.0401-1.9266l3.7242-3.7242C56.8651,28.1363,57,27.8107,57,27.4712v-2.1893
			c0-0.7072-0.5732-1.2804-1.2803-1.2804h-2.7968c-0.5511,0-1.0404-0.3526-1.2147-0.8755l-0.399-1.1967
			C51.1267,21.3815,51.3333,20.7794,51.8136,20.4591z M20,38.5c-1.3807,0-2.5-1.1193-2.5-2.5s1.1193-2.5,2.5-2.5
			c1.3807,0,2.5,1.1193,2.5,2.5S21.3807,38.5,20,38.5z M35.5054,33c0-1.3807,1.1193-2.5,2.5-2.5c1.3807,0,2.5,1.1193,2.5,2.5
			s-1.1193,2.5-2.5,2.5C36.6248,35.5,35.5054,34.3807,35.5054,33z M43.5,50c0,1.3807-1.1193,2.5-2.5,2.5
			c-1.3807,0-2.5-1.1193-2.5-2.5s1.1193-2.5,2.5-2.5C42.3807,47.5,43.5,48.6193,43.5,50z M49,11.5c-1.3807,0-2.5-1.1193-2.5-2.5
			s1.1193-2.5,2.5-2.5c1.3807,0,2.5,1.1193,2.5,2.5S50.3807,11.5,49,11.5z"/>
	</g>
</g>
</svg>
