<svg height="64" viewBox="0 0 64 64" width="64" xmlns="http://www.w3.org/2000/svg"><path d="m0 0h64v64h-64z" fill="none"/><path d="m20.2039 34.1192c4.4054 1.8267 7.5238-.3654 7.5238-.3654s-.3079-5.6232-4.9608-7.0845c-3.2921-1.0339-5.8849-.4286-7.1199.014-.4681.1677-.7291.6632-.5882 1.14.457 1.5467 1.8054 4.9111 5.1451 6.2959z"/><path d="m46.0538 49c-4.5999 0-7.8086-2.3785-11.0945-3.808-2.1486-6.2708-2.1685-12.7421-.6865-18.1953 9.426 1.0221 15.7916-11.9625 11.1957-22.1992-.3043-.6777-1.2278-.7886-1.6984-.2137-7.9283 9.6857-13.6627 4.7379-17.0053 12.0009-1.2411 2.697-.5916 6.1821 1.8977 8.3192 2.1403-4.0284 4.8118-7.0964 6.7656-8.7288.2961-.2474.4708-.1625.5469-.0978-5.1477 8.2722-8.205 18.0773-6.0743 28.0905-5.4877.4498-9.296 5.9316-13.947 6.7773-4.6635.8478-8.9029 2.9676-8.9029 8.0549h50.8735s-5.341-10-11.8705-10z"/></svg>