<svg height="64" viewBox="0 0 64 64" width="64" xmlns="http://www.w3.org/2000/svg"><path d="m0 0h64v64h-64z" fill="none"/><path d="m59.5581 11.0098-40.2642-5.9878-.2939-.022c-1.4156 0-2.5983.7324-3.571 1.9429l-.0071-.0054-.0878.117c-.0552.0715-.1099.1434-.1636.218l-8.1706 10.8882v-13.1607c0-1-1.1193-1-2.5-1-1.3806 0-2.4999 0-2.4999 1v59h5l-.0001-38.5641 8.8282 10.111.0101-.009c.8904.9236 1.9409 1.4621 3.1618 1.4621h.1724l40.4165-7.0122c3.0727-.3145 3.4111-6.6123 3.4111-9.3594 0-2.8315-.3403-9.3359-3.4419-9.6186zm-51.6081 11.0402 4.3576-5.9557c-.2022 1.6061-.2576 3.2673-.2576 4.9057 0 2.065.1128 4.1677.4357 6.1462zm18.015 9.7118-6.9987 1.2143c-.8823-.4405-3.0663-4.4937-3.0663-11.9761 0-7.5571 2.226-11.6162 3.058-11.9844l7.0969 1.0554c-1.239 2.362-2.0049 6.3692-2.0049 10.929 0 4.4463.7276 8.3789 1.915 10.7618zm17.2433-2.9918-8.8542 1.5363c-.8663-2.3813-1.454-5.6574-1.454-9.2971 0-3.845.6533-7.2783 1.6035-9.6817l8.9479 1.3307c-.8823 1.9221-1.4515 4.9465-1.4515 8.351 0 3.0772.4675 5.837 1.2083 7.7608zm15.0813-2.6167-6.3919 1.109c-.6036-1.5851-.9977-3.8202-.9977-6.3056 0-2.873.5258-5.4135 1.2943-6.9982l6.0777.9039c.3374 1.0766.728 3.5165.728 5.766 0 2.1987-.3784 4.5088-.7104 5.5249z"/></svg>