<svg enable-background="new 0 0 64 64" viewBox="0 0 64 64" xmlns="http://www.w3.org/2000/svg"><path d="m0 0h64v64h-64z" fill="none"/><path d="m15 57h-5v-40h5v-5h-7.5c-1.4 0-2.5 1.1-2.5 2.5v45c0 1.4 1.1 2.5 2.5 2.5h35c1.4 0 2.5-1.1 2.5-2.5v-2.5h-5z"/><path d="m56.4 16.5-14.8-14.9c-.4-.4-.9-.6-1.4-.6h-21.2c-1.1 0-2 .9-2 2v46c0 1.1.9 2 2 2h18v-5h-15v-40h16.7l.9-3.1c.2-.4.4-.2.4-.2v14.3c0 .6.5 1 1 1h14.4s.1.3-.2.4l-3.2 1v26.6h-5v5h8c1.1 0 2-.9 2-2v-31.1c0-.6-.2-1.1-.6-1.4z"/><path d="m42 37c-2.8 0-5 2.2-5 5 0 1.6 1 3.1 2 4v8.5c0 .5.6.8 1 .4l1.7-1.6c.2-.2.6-.2.8 0l1.6 1.6c.4.4.9.1.9-.4v-8.5c1-.9 2-2.3 2-4 0-2.7-2.2-5-5-5zm0 7c-1.1 0-2-.9-2-2s.9-2 2-2 2 .9 2 2-.9 2-2 2z"/><path d="m26 24h22v3h-22z"/><path d="m26 11h10v3h-10z"/><path d="m26 16h10v3h-10z"/><path d="m39.4 29c-.6 1.3-1.5 2.9-1.1 4.4.1.3.3.4.6.4.6.1 1.5-.6 2-1.2v.2c0 .3.2.7.4.9s.5.2.7.1c.4-.2.6-.5.8-.9 0 .4.2.7.5.9.8.4 1.2-.3 1.6-.9.1.2.4.4.7.3.8-.3.5-.9 1-.1.4.6 1.5 0 1-.6-.3-.5-.2-1-.8-1.2-.4-.1-.7.2-1 .4v-.1c-.1-.3-.6-.6-.9-.4-.5.4-.6.7-.9 1.3-.2.5.1-.4.1-.7 0-.2.1-.5.1-.7 0-.5-.5-.7-.9-.5-.6.3-.9.9-1.2 1.4.1-.4.2-.9 0-1.2-.1-.2-.3-.3-.5-.3-.9.1-1.6 1.5-2.2 2 .1-1 .7-2.1 1-2.8.4-.8-.7-1.4-1-.7z"/><path d="m27.3 29c-.6 1.3-1.5 2.9-1.1 4.4.1.3.3.4.6.4.6.1 1.5-.6 2-1.2v.2c0 .3.2.7.4.9s.5.2.7.1c.4-.2.6-.5.8-.9 0 .4.2.7.5.9.8.4 1.2-.3 1.6-.9.1.2.4.4.7.3.8-.3.5-.9 1-.1.4.6 1.5 0 1-.6-.3-.5-.2-1-.8-1.2-.4-.1-.7.2-1 .4v-.1c-.1-.3-.6-.6-.9-.4-.5.4-.6.7-.9 1.3-.2.5.1-.4.1-.7 0-.2.1-.5.1-.7 0-.5-.5-.7-.9-.5-.6.3-.9.9-1.2 1.4.1-.4.2-.9 0-1.2-.1-.2-.3-.3-.5-.3-.9.1-1.6 1.5-2.2 2 .1-1 .7-2.1 1-2.8.4-.8-.7-1.4-1-.7z"/></svg>