<svg height="64" viewBox="0 0 64 64" width="64" xmlns="http://www.w3.org/2000/svg"><path d="m0 0h64v64h-64z" fill="none"/><path d="m58 12h-4v-4c0-1.1046-.8955-2-2-2-13.5958 0-17.6453 0-31.1666 0-4.8703 0-9.8334 1.8876-9.8334 7v8.4374c-3.3364.8106-6 2.8196-6 6.5626v25c0 2.7614 2.2385 5 5 5h22c1.1045 0 2-.8954 2-2v-26c0-1.1046-.8955-2-2-2-7.8915 0-7.4799 0-9 0v12l-4-3-4 3v-12c-1.2915 0-2.6956 0-4.325 0-.5472 0-.8049-.4951-.6108-1.0474.6072-1.7276 3.7571-1.9526 4.8821-1.9526h23.0537v29h6c1.1045 0 2-.8954 2-2v-37c0-1.1046-.8955-2-2-2-14.0287 0-20.935 0-27.325 0-.5472 0-.8049-.4951-.6108-1.0474.6072-1.7276 3.7571-1.9526 4.8821-1.9526h29.0537v38h2c1.1045 0 2-.8954 2-2v-31h3v29h1c1.1045 0 2-.8954 2-2v-28c0-1.1046-.8955-2-2-2z"/></svg>