<?xml version="1.0" encoding="utf-8"?>
<!-- Generator: Adobe Illustrator 19.2.0, SVG Export Plug-In . SVG Version: 6.00 Build 0)  -->
<svg version="1.0" xmlns="http://www.w3.org/2000/svg" xmlns:xlink="http://www.w3.org/1999/xlink" x="0px" y="0px"
	 viewBox="0 0 64 64" enable-background="new 0 0 64 64" xml:space="preserve">
<g id="achtergrond">
</g>
<g id="paneel_1">
	<g>
		<g>
			<path d="M51,16h-2c0,0,0,23.3306,0,25c0,1.6694-0.8881,1.8043-3.2589,1.8043c-2.373,0-6.5152,0.3479-8.4483,0.9579
				c-3.5864,1.1353-4.0148,2.7315-5.2927,2.7315c-1.2803,0-1.7087-1.5962-5.2951-2.7315c-1.933-0.61-6.0748-0.9579-8.4457-0.9579
				C15.886,42.8043,15,42.6694,15,41V16h-2c-1.6735,0-2,1.0725-2,2v27c0,0.9274,0.7464,1.7372,1.6748,1.7372l5.5845,0.4054
				c2.3708,0,6.5126,0.0844,8.4457,0.6964c3.5864,1.1334,4.0148,2.9936,5.2951,2.9936c1.2779,0,1.7063-1.8602,5.2927-2.9936
				c1.933-0.6119,6.0752-0.6964,8.4483-0.6964l5.5819-0.4054C52.2515,46.7372,53,45.9274,53,45V18C53,17.0725,52.4733,16,51,16z"/>
			<path d="M26.0176,40.4259c0.7964,0.171,1.5442,0.4133,2.1925,0.6641c2.241,1.0304,2.7156,2.1532,3.79,2.1532
				c1.072,0,1.5466-1.1228,3.7876-2.1532c0.6505-0.2508,1.3984-0.4931,2.1948-0.6641C40.5434,39.878,46,40,46,40V13h-6
				c-4.773,0-5.8632,1.5188-6.0087,3.1077l-1.4401,15.5606c-0.0996,0.6172-0.5996,0.507-0.5996,0.507l-1.5743-15.4636
				C30.2038,14.9052,29.1688,13,24,13h-6v27C18,40,23.4548,39.878,26.0176,40.4259z"/>
		</g>
	</g>
</g>
</svg>
