<svg enable-background="new 0 0 64 64" height="64" viewBox="0 0 64 64" width="64" xmlns="http://www.w3.org/2000/svg"><path d="m0 0h64v64h-64z" fill="none"/><path d="m36 1h-8v6h8zm20 8h-48v34h16c.0209.0562-.0531.2622-.3703.364l-5.4017 1.0751-3.228 18.5609h7l1.7391-10h16.5217l1.7392 10h7l-3.228-18.5609-5.4017-1.0751c-.3172-.1018-.3912-.3078-.3703-.364h16zm-21 15h4v9h-4zm-13-9c2.4465 0 4.6364 1.0981 6.1039 2.8284 1.1827 1.3945 1.8961 3.1998 1.8961 5.1716h-8zm-2 18c-4.4183 0-8-3.5818-8-8s3.5817-8 8-8v7.99h8c0 4.4182-3.5817 8.01-8 8.01zm4.4348 16 1.0435-6h13.0435l1.0435 6zm20.5652-16h-4v-18h4zm6 0h-4v-14h4z"/></svg>