<?xml version="1.0" encoding="utf-8"?>
<!-- Generator: Adobe Illustrator 21.0.2, SVG Export Plug-In . SVG Version: 6.00 Build 0)  -->
<!DOCTYPE svg PUBLIC "-//W3C//DTD SVG 1.1//EN" "http://www.w3.org/Graphics/SVG/1.1/DTD/svg11.dtd">
<svg version="1.1" xmlns="http://www.w3.org/2000/svg" xmlns:xlink="http://www.w3.org/1999/xlink" x="0px" y="0px" width="64px"
	 height="64px" viewBox="0 0 64 64" enable-background="new 0 0 64 64" xml:space="preserve">
<g id="Box">
	<rect fill="none" width="64" height="64"/>
</g>
<g id="Icon">
	<g>
		<g>
			<path d="M36,1h-8v6h8V1z M56,9H8v34h16c0.0209,0.0562-0.0531,0.2622-0.3703,0.364l-5.4017,1.0751L15,63h7l1.7391-10h16.5217
				L42,63h7l-3.228-18.5609l-5.4017-1.0751C40.0531,43.2622,39.9791,43.0562,40,43h16V9z M35,24h4v9h-4V24z M22,15
				c2.4465,0,4.6364,1.0981,6.1039,2.8284C29.2866,19.2229,30,21.0282,30,23h-8V15z M20,33c-4.4183,0-8-3.5818-8-8s3.5817-8,8-8
				v7.99h8C28,29.4082,24.4183,33,20,33z M24.4348,49l1.0435-6h13.0435l1.0435,6H24.4348z M45,33h-4V15h4V33z M51,33h-4V19h4V33z"/>
		</g>
	</g>
</g>
</svg>
