<svg height="64" viewBox="0 0 64 64" width="64" xmlns="http://www.w3.org/2000/svg"><path d="m0 0h64v64h-64z" fill="none"/><path d="m26 29h14c3.3137 0 6-2.6863 6-6v-5.9999c0-7.4053-3.436-14.0001-13-14.0001s-13 6.5948-13 14.0001v5.9999c0 3.3137 2.6863 6 6 6z"/><path d="m48.2819 23.02c0 2.8356-.051 5.2928-.2122 7.3721-.0367.4727-.4033.8475-.874.9036-2.0587.2454-7.8085.8543-14.1957.8543s-12.137-.6089-14.1957-.8544c-.4707-.0561-.8373-.4309-.874-.9036-.1613-2.0792-.2122-4.5365-.2122-7.3721 0-5.2811-7.7181-5.1844-7.7181-.7031v1.6832c0 1.1046.8954 2 2 2h3.0258c.0762 4.5934.3694 8.0324 1.2462 10.4238l.0222-.0081c.3286.7722.9178 1.4213 1.697 1.805 2.389 1.1765 7.0961 2.7793 15.0088 2.7793.3338 0 .6538-.0068.9763-.0124-.0054.0573-.0468.1895-.2963.3126-.4072.201-1.8168.7018-3.68 1.1743v6.0549l-12.3476 2.179c-.9557.1686-1.6524.9991-1.6524 1.9695v.6718c-1.1792.563-2 1.7565-2 3.1503 0 1.933 1.567 3.5 3.5 3.5s3.5-1.567 3.5-3.5c0-1.2109-.6154-2.2775-1.5499-2.9059l11.098-1.3057.2516 1.5101c-.7868.6419-1.2997 1.6069-1.2997 2.7015 0 1.933 1.567 3.5 3.5 3.5s3.5-1.567 3.5-3.5c0-1.0946-.5129-2.0596-1.2997-2.7014l.2516-1.5101 11.098 1.3057c-.9345.6283-1.5499 1.6949-1.5499 2.9058 0 1.933 1.567 3.5 3.5 3.5s3.5-1.567 3.5-3.5c0-1.3938-.8208-2.5873-2-3.1503v-.6718c0-.9705-.6967-1.8009-1.6524-1.9695l-12.3476-2.179v-7.6124c6.1257-.3398 9.9392-1.6772 12.0089-2.6964.7792-.3837 1.3683-1.0328 1.697-1.805l.0222.0081c.8768-2.3914 1.17-5.8304 1.2462-10.4238h3.0257c1.1046 0 2-.8954 2-2v-1.6832c0-4.4961-7.7181-4.5596-7.7181.7033z"/></svg>