<svg enable-background="new 0 0 64 64" height="64" viewBox="0 0 64 64" width="64" xmlns="http://www.w3.org/2000/svg"><path d="m0 0h64v64h-64z" fill="none"/><path d="m19 29h14c3.3 0 6-2.7 6-6v-6c0-7.4-3.4-14-13-14s-13 6.6-13 14v6c0 3.3 2.7 6 6 6z"/><path d="m35.2 53.1c-.1-.7-.2-1.4-.2-2.1 0-.5 0-.9.1-1.4l-6.1-1.1v-7.6c4.5-.3 7.8-1 10-1.9v-7.6c-2.6.3-7.6.7-13 .7-6.4 0-12.1-.6-14.2-.9-.5-.1-.8-.4-.9-.9-.2-2.1-.2-4.5-.2-7.4 0-5.3-7.7-5.2-7.7-.7v1.8c0 1.1.9 2 2 2h3c.1 4.6.4 8 1.2 10.4.3.8.9 1.4 1.7 1.8 2.4 1.2 7.1 2.8 15 2.8h1c0 .1 0 .2-.3.3-.4.2-1.8.7-3.7 1.2v6.1l-12.3 2.2c-1 .2-1.7 1-1.7 2v.7c-1.2.6-2 1.8-2 3.2 0 1.9 1.6 3.5 3.5 3.5s3.5-1.6 3.5-3.5c0-1.2-.6-2.3-1.5-2.9l11.1-1.3.3 1.5c-.8.6-1.3 1.6-1.3 2.7 0 1.9 1.6 3.5 3.5 3.5s3.5-1.6 3.5-3.5c0-1.1-.5-2.1-1.3-2.7l.3-1.5z"/><path d="m55 42.5v-33.5c0-3.8-3.1-7-7-7s-7 3.2-7 7v33.5c-2.5 2.1-4 5.2-4 8.5 0 6.1 4.9 11 11 11 5.5 0 10.1-4 10.9-9.3.6-3.9-.9-7.7-3.9-10.2zm.4 11.8c-1.1 2.7-3.6 4.3-6.3 4.7-.6.1-.7-.1-.6-.2 2.9-1.2 4.9-4 4.9-7.2 0-2.6-1.3-4.9-3.3-6.3v-6.3h-3v-2h3v-5h-3v-2h3v-5h-3v-2h3v-4.8h-6v-9.2c0-2.2 1.8-4 4-4 2.2 0 4 1.8 4 4v35.1c3.1 1.9 4.9 5.9 3.3 10.2z"/></svg>