<svg enable-background="new 0 0 64 64" viewBox="0 0 64 64" xmlns="http://www.w3.org/2000/svg"><path d="m0 0h64v64h-64z" fill="none"/><path d="m7 50v-26.708l-3.148-.932c-.342-.11-.219-.36-.219-.36h14.367c.552 0 1-.448 1-1v-14.366s.251-.11.36.231l.932 3.135h16.708v9.33c1.066-.604 2.355-1.11 3.884-1.527.39-.106.755-.176 1.116-.238v-10.565c0-1.104-.896-2-2-2h-21.171c-.531 0-1.04.211-1.415.586l-14.828 14.828c-.375.375-.586.884-.586 1.415v31.171c0 1.1.9 2 2 2h19.736c.396-1.76.941-3.578 1.665-5z"/><path d="m59.952 49.849c-1.726-1.817-7.061-3.43-9.444-4.081-1.113-.304-1.285-1.433-1.404-2.585 1.514-1.691 2.637-3.734 3.018-6.432 1.448-.446 1.738-2.254 1.738-3.381s-.199-1.736-.603-1.925c-.195-.091-.386-.09-.555-.054.146-2.347.291-6.998-.688-8.746-1.07-1.911-2.492-2.406-4.97-1.782-1.625-.862-2.732-1.715-5.58-.939-1.979.539-4.144 1.42-5.285 2.89-1.231 1.586-.994 6.212-.786 8.588-.183-.05-.398-.059-.617.043-.405.189-.603.799-.603 1.925 0 1.127.29 2.935 1.738 3.381.342 2.848 1.485 4.823 3.013 6.468-.106.986-.211 1.937-1.076 2.404-1.897.513-7.857 2.244-9.739 4.225-2.238 2.357-3.109 11.152-3.109 11.152h38.031s-.841-8.795-3.079-11.151z"/><path d="m28.12 25.457-7.222 8.131-4.761-4.195c-.61-.529-1.513-.538-2.133-.023-.621.515-.779 1.404-.371 2.101 0 0 2.612 3.989 5.989 8.951.328.482.833.815 1.416.818h.008c.58 0 1.106-.313 1.416-.803 5.215-8.243 8.304-13.034 8.304-13.034.437-.73.246-1.672-.439-2.175-.684-.504-1.64-.404-2.207.229z"/></svg>