<svg enable-background="new 0 0 64 64" height="64" viewBox="0 0 64 64" width="64" xmlns="http://www.w3.org/2000/svg"><path d="m0 0h64v64h-64z" fill="none"/><path d="m12.7 29h1.8c1 0 1.6-.5 1.7-1.2 1-5.6 4.5-10.3 9.3-13l-.5 4c-.1.7.4 1.4 1.1 1.7.4.1.7.1 1.1 0 .3-.1.6-.3.8-.7l5.4-9.5c.2-.4.3-.9.1-1.3s-.6-.8-1-.9l-10.8-3.2c-.7-.2-1.5.1-1.8.8s-.1 1.5.4 1.9l3.3 2.5c-6.5 3.4-11.2 9.7-12.4 17.1-.1 1 .6 1.8 1.5 1.8zm45.7-16.6-7.8-7.8c-.4-.4-.9-.6-1.4-.6h-11.2c-1.1 0-2 .9-2 2v25c0 1.1.9 2 2 2h19c1.1 0 2-.9 2-2v-17.2c0-.5-.2-1-.6-1.4zm-2.4 17.6h-17v-23h10v5c0 1.1.9 2 2 2h5zm-4.7 5h-1.8c-1 0-1.6.5-1.7 1.2-1 5.6-4.5 10.3-9.3 13l.5-4c.1-.7-.4-1.4-1.1-1.7-.4-.1-.7-.1-1.1 0-.3.1-.6.3-.8.7l-5.4 9.5c-.2.4-.3.9-.1 1.3s.6.8 1 .9l10.7 3.1c.7.2 1.5-.1 1.8-.8s.1-1.5-.4-1.9l-3.3-2.5c6.5-3.4 11.2-9.7 12.4-17.1.3-.9-.4-1.7-1.4-1.7zm-31.7-3.4c-.4-.4-.9-.6-1.4-.6h-11.2c-1.1 0-2 .9-2 2v25c0 1.1.9 2 2 2h19c1.1 0 2-.9 2-2v-17.2c0-.5-.2-1-.6-1.4zm5.4 25.4h-17v-23h10v5c0 1.1.9 2 2 2h5z"/></svg>