<svg height="64" viewBox="0 0 64 64" width="64" xmlns="http://www.w3.org/2000/svg"><path d="m0 0h64v64h-64z" fill="none"/><path d="m42 27.95v-16.115c0-.2786-.1107-.5458-.3076-.7426l-7.7849-7.7849c-.1967-.1968-.4639-.3075-.7425-.3075h-11.115c-.5798 0-1.05.4701-1.05 1.05v23.9c0 .5798.4702 1.05 1.05 1.05h18.9c.5776 0 1.05-.4727 1.05-1.05zm-3-1.95h-15v-20h9v5c0 .5523.4477 1 1 1h5z"/><path d="m13.9076 34.3076c-.1969-.1969-.464-.3076-.7426-.3076h-11.115c-.5798 0-1.05.4701-1.05 1.05v23.9c0 .5798.4702 1.05 1.05 1.05h18.9c.5775 0 1.05-.4727 1.05-1.05v-16.115c0-.2786-.1107-.5458-.3076-.7426zm5.0924 22.6924h-15v-20h9v5c0 .5523.4477 1 1 1h5z"/><path d="m61.6924 42.0924-7.7848-7.7849c-.1969-.1968-.464-.3075-.7426-.3075h-11.115c-.5798 0-1.05.4701-1.05 1.05v23.9c0 .5798.4702 1.05 1.05 1.05h18.9c.5775 0 1.05-.4727 1.05-1.05v-16.115c0-.2786-.1107-.5458-.3076-.7426zm-2.6924 14.9076h-15v-20h9v5c0 .5523.4477 1 1 1h5z"/><path d="m33 31h-3v9.1685l-6 3.7501v3.5378l7.5-4.6874 7.5 4.6874v-3.5378l-6-3.7501z"/></svg>