<svg height="64" viewBox="0 0 64 64" width="64" xmlns="http://www.w3.org/2000/svg"><path d="m0 0h64v64h-64z" fill="none"/><path d="m51.4141 22.4141-14.8282-14.8282c-.375-.375-.8838-.5859-1.4145-.5859h-21.1714c-1.1045 0-2 .8955-2 2v46c0 1.1045.8955 2 2 2h18v-5h-15v-40h16.7085l.9316-3.1349c.109-.3406.3599-.231.3599-.231v14.3659c0 .5522.4478 1 1 1h14.3669s.1226.2504-.2185.3594l-3.1484.9324v26.7082h-5v5h8c1.1001 0 2-.9004 2-2v-31.1714c0-.5307-.2109-1.0395-.5859-1.4145z"/><path d="m21 38.2616c.8488.3889 1.9149.7384 3.0286.7384 1.598 0 3.1088-.7175 4-1.2422.8913.5247 2.402 1.2422 4 1.2422s3.1088-.7175 4-1.2422c.8913.5247 2.402 1.2422 4 1.2422 1.0889 0 2.132-.3342 2.9714-.7125v-2.9872c-.8064.5314-1.8821 1.093-2.9714 1.093-1.641 0-3.2772-1.2911-4-1.8334-.6667.5002-2.3232 1.8334-4 1.8334-1.641 0-3.2772-1.2911-4-1.8334-.6667.5002-2.3232 1.8334-4 1.8334-1.1071 0-2.2049-.5865-3.0286-1.1354z"/><path d="m28.0286 31.7578c.8913.5247 2.402 1.2422 4 1.2422s3.1088-.7175 4-1.2422c.8913.5247 2.402 1.2422 4 1.2422 1.0889 0 2.132-.3342 2.9714-.7125v-2.9872c-.8064.5314-1.8821 1.093-2.9714 1.093-1.641 0-3.2772-1.2911-4-1.8334-.6667.5002-2.3232 1.8334-4 1.8334-1.641 0-3.2772-1.2911-4-1.8334-.6667.5002-2.3232 1.8334-4 1.8334-1.1071 0-2.2049-.5865-3.0286-1.1354v3.0037c.8488.3889 1.9149.7384 3.0286.7384 1.598 0 3.1088-.7175 4-1.2422z"/><path d="m37 43c-2.7614 0-5 2.2386-5 5 0 1.6305.7922 3.0646 2 3.9774v8.459c0 .5012.606.7521.9603.3978l1.6419-1.6419c.2197-.2197.5759-.2197.7955 0l1.6419 1.6419c.3544.3543.9604.1033.9604-.3979v-8.459c1.2078-.9127 2-2.3469 2-3.9774 0-2.7613-2.2386-4.9999-5-4.9999zm0 7c-1.1028 0-2-.8972-2-2s.8972-2 2-2 2 .8972 2 2-.8972 2-2 2z"/></svg>