<svg height="64" viewBox="0 0 64 64" width="64" xmlns="http://www.w3.org/2000/svg"><path d="m0 0h64v64h-64z" fill="none"/><path d="m50 7h-21.1714c-.5307 0-1.0395.2109-1.4145.5859l-14.8282 14.8282c-.375.375-.5859.8838-.5859 1.4145v31.1714c0 1.0996.8999 2 2 2h36c1.1045 0 2-.8955 2-2v-46c0-1.1045-.8955-2-2-2zm-3 45h-30v-26.7082l-3.1484-.9324c-.3412-.109-.2185-.3594-.2185-.3594h14.3669c.5522 0 1-.4478 1-1v-14.3659s.2509-.1096.3599.231l.9316 3.1349h16.7085z"/><path d="m33 21h10v3h-10z"/><path d="m28 31h15v3h-15z"/><path d="m21 31h5v3h-5z"/><path d="m28 37h15v3h-15z"/><path d="m21 37h5v3h-5z"/><path d="m21 43h5v3h-5z"/><path d="m28 43h15v3h-15z"/></svg>