<svg enable-background="new 0 0 64 64" viewBox="0 0 64 64" xmlns="http://www.w3.org/2000/svg"><path d="m0 0h64v64h-64z" fill="none"/><path d="m17 52v-26.708l-3.148-.932c-.342-.11-.219-.36-.219-.36h14.367c.552 0 1-.448 1-1v-14.366s.251-.11.36.231l.932 3.135h16.708v23.4l5-5v-21.4c0-1.104-.896-2-2-2h-21.171c-.531 0-1.04.211-1.415.586l-14.828 14.828c-.375.375-.586.884-.586 1.415v31.171c0 1.1.9 2 2 2h16.425l1.583-5zm33 5c1.104 0 2-.896 2-2v-4.55l-6.55 6.55zm9.467-24.042c-1.906-1.906-4.283-2.631-5.298-1.616l-19.482 19.483-2.847 8.995c-.149.471.294.914.765.765l8.996-2.847 19.482-19.482c1.015-1.015.29-3.392-1.616-5.298zm-23.838 24.572-.734-.734 1.425-4.504.917.521.719 1.655 1.574.684.587.957zm5.371-28.53h-18v3h18zm0-10h-8v3h8zm0 16h-18v3h18zm-18 9h12v-3h-12z"/></svg>