<svg enable-background="new 0 0 64 64" height="64" viewBox="0 0 64 64" width="64" xmlns="http://www.w3.org/2000/svg"><path d="m0 0h64v64h-64z" fill="none"/><path d="m51.4 22.4-14.8-14.8c-.4-.4-.9-.6-1.4-.6h-21.2c-1.1 0-2 .9-2 2v46c0 1.1.9 2 2 2h36c1.1 0 2-.9 2-2v-31.2c0-.5-.2-1-.6-1.4zm-1.3 2-3.1.9v26.7h-30v-40h16.7l.9-3.1c.1-.4.4-.3.4-.3v14.4c0 .6.4 1 1 1h14.4s.1.3-.3.4z"/><path d="m28.6 17.3-4.6 5.1-2.8-2.4c-.3-.3-.7-.3-1 0-.3.2-.4.7-.2 1l3.3 5.6c.1.2.4.4.7.4.3 0 .5-.1.7-.4l5.1-8.4c.2-.3.1-.8-.2-1-.2-.2-.7-.2-1 .1z"/><path d="m28.6 28.3-4.6 5.1-2.8-2.4c-.3-.3-.7-.3-1 0-.3.2-.4.7-.2 1l3.3 5.6c.1.2.4.4.7.4.3 0 .5-.1.7-.4l5.1-8.4c.2-.3.1-.8-.2-1-.2-.2-.7-.2-1 .1z"/><path d="m28.6 39.3-4.6 5.1-2.8-2.4c-.3-.3-.7-.3-1 0-.3.2-.4.7-.2 1l3.3 5.6c.1.2.4.4.7.4.3 0 .5-.1.7-.4l5.1-8.4c.2-.3.1-.8-.2-1-.2-.2-.7-.2-1 .1z"/><path d="m33 31h12v3h-12z"/><path d="m33 42h12v3h-12z"/></svg>