<?xml version="1.0" encoding="utf-8"?>
<!-- Generator: Adobe Illustrator 19.1.0, SVG Export Plug-In . SVG Version: 6.00 Build 0)  -->
<svg version="1.2" baseProfile="tiny" xmlns="http://www.w3.org/2000/svg" xmlns:xlink="http://www.w3.org/1999/xlink" x="0px"
	 y="0px" width="64px" height="64px" viewBox="0 0 64 64" xml:space="preserve">
<g id="Box">
	<rect fill="none" width="64" height="64"/>
</g>
<g id="Icon">
	<g>
		<polygon points="38.024,46.2718 50.7092,43.1649 50.7099,41.5292 38.0422,44.2386 		"/>
		<polygon points="40.0508,42.2551 42.5641,41.7292 42.6337,36.964 44.5792,36.7608 41.4701,31.8604 37.8181,37.5193 
			40.1503,37.2977 		"/>
		<polygon points="47.2294,36.4635 47.1997,40.8809 49.5518,40.4354 49.5624,36.2018 50.9589,36.0451 48.4415,31.6603 
			45.6281,36.6431 		"/>
		<path d="M57.2341,15.4034L31.4868,9.047c-0.3196-0.0789-0.6533-0.0758-0.9714,0.009L6.7484,15.3929
			C6.3077,15.5104,6,15.9184,6,16.3854v30.2342c0,0.4528,0.2897,0.8521,0.7126,0.9822l23.734,7.3017
			c0.3615,0.1112,0.7463,0.1153,1.11,0.0117l25.711-7.324C57.7004,47.4679,58,47.0638,58,46.6031V16.4004
			C58,15.9264,57.6833,15.5143,57.2341,15.4034z M18.1743,21.8935l-3.4044,0.1056c-1.0632,0.033-1.7338-0.7916-1.7489-1.7626
			c-0.0162-1.0414,0.7336-2.1277,1.9087-2.3738l3.8011-0.796c1.345-0.2816,2.2451,0.7503,2.2396,1.986
			C20.9642,20.4398,19.795,21.8432,18.1743,21.8935z M55,44.949l-23,6.0282v-38.023l10,2.2547v7.145l5,0.4082v-6.4258l8,1.8038
			V44.949z"/>
	</g>
</g>
</svg>
