<svg height="64" viewBox="0 0 64 64" width="64" xmlns="http://www.w3.org/2000/svg"><path d="m0 0h64v64h-64z" fill="none"/><path d="m55 15h-46c-1.1045 0-2 .8955-2 2v30c0 1.1045.8955 2 2 2h46c1.1045 0 2-.8955 2-2v-30c0-1.1045-.8955-2-2-2zm-3.9581 5-19.0419 12.6016-19.0419-12.6016zm-39.0419 4.1625 18.8965 12.5055c.334.2212.7187.332 1.1035.332s.7695-.1108 1.1035-.332l18.8965-12.5055v19.7726l-11.835-8.6109s-.2412.1533-.0244.418 6.8105 8.2578 6.8105 8.2578h-29.7822s6.5841-7.9775 6.7999-8.2422-.0127-.4336-.0127-.4336l-11.9243 8.6758h-.0318z"/></svg>