<svg height="64" viewBox="0 0 64 64" width="64" xmlns="http://www.w3.org/2000/svg"><path d="m0 0h64v64h-64z" fill="none"/><path d="m33.4469 42c.2299-.9103.3864-1.9215.4728-3h-9.982c-.0669 1.0474-.1919 2.0491-.3715 3z"/><path d="m24 34h10v3h-10z"/><path d="m24 29h10v3h-10z"/><path d="m57 11h-41c-1.1046 0-2 .8954-2 2v24.1665c0 1.6234-.1597 3.1348-.4553 4.4617 0 0-.2959.1009-.345-.3014-.4286-3.515-2.3457-20.3268-2.3457-20.3268s-3.0488 0-4.0798 0-1.7109.8115-1.5978 1.7191c.5667 4.5466 1.8082 12.5661 2.3968 16.6383.9414 6.5015 1.8301 12.6426 9.4268 12.6426h32.166c5.9736 0 9.834-5.8223 9.834-14.8335v-24.1665c0-1.1046-.8954-2-2-2zm-3 26.1665c0 4.7363-1.5127 9.8335-4.834 9.8335-1.5686 0-32.3027 0-32.3027 0 1.3804-2.5471 2.1367-6 2.1367-11v-20h35z"/><path d="m24 21h25v5h-25z"/><path d="m37 35v2.1665c0 1.7255-.1616 3.337-.4453 4.8335h11.8438c.5015-1.15.6015-3.2189.6015-5v-8h-12z"/><path d="m33.9197 39h-9.9819c-.0669 1.0474-.1919 2.0491-.3716 3h9.8807c.2299-.9103.3864-1.9215.4728-3z"/><path d="m24 34h10v3h-10z"/><path d="m24 29h10v3h-10z"/></svg>