<?xml version="1.0" encoding="utf-8"?>
<!-- Generator: Adobe Illustrator 19.2.0, SVG Export Plug-In . SVG Version: 6.00 Build 0)  -->
<svg version="1.0" xmlns="http://www.w3.org/2000/svg" xmlns:xlink="http://www.w3.org/1999/xlink" x="0px" y="0px"
	 viewBox="0 0 64 64" enable-background="new 0 0 64 64" xml:space="preserve">
<g id="achtergrond">
</g>
<g id="paneel_1">
	<g>
		<path d="M60.435,36.8259c-0.1949-1.1727-1.0873-2.0651-2.2607-2.2605C54.7829,34,49.1301,34,48.0001,34
			c-1.1301,0-6.7829,0-10.1743,0.5654c-1.1734,0.1954-2.0657,1.0878-2.2607,2.2605C35,40.2173,35,45.8696,35,47
			s0,6.7827,0.5651,10.1741c0.1949,1.1727,1.0873,2.0649,2.2607,2.2606C41.2172,60,46.87,60,48.0001,60
			c1.13,0,6.7828,0,10.1742-0.5653c1.1734-0.1957,2.0658-1.0879,2.2607-2.2606C61,53.7827,61,48.1304,61,47
			C61,43.6069,61,40.2173,60.435,36.8259z M56,48.5c0,0.2761-0.2239,0.5-0.5,0.5H50v5.5c0,0.2761-0.2239,0.5-0.5,0.5h-3
			c-0.2761,0-0.5-0.2239-0.5-0.5V49h-5.5c-0.2761,0-0.5-0.2239-0.5-0.5v-3c0-0.2761,0.2239-0.5,0.5-0.5H46v-5.5
			c0-0.2761,0.2239-0.5,0.5-0.5h3c0.2761,0,0.5,0.2239,0.5,0.5V45h5.5c0.2761,0,0.5,0.2239,0.5,0.5V48.5z"/>
		<path d="M13.913,28.0391V13.3732h25.6652v15.5212c0,0.7506-0.0552,1.5117-0.1609,2.2466
			c1.1816-0.1166,2.4523-0.1957,3.7281-0.2477c0.0612-0.6411,0.0993-1.3038,0.0993-1.9989V11.1733
			c0-0.8101-0.6566-1.4666-1.4666-1.4666H11.7132c-0.8101,0-1.4666,0.6565-1.4666,1.4666v17.7211
			c0,1.1904-0.1171,2.2987-0.3339,3.2717c0,0-0.217,0.0739-0.2529-0.2211c-0.3143-2.5775-1.7201-14.9054-1.7201-14.9054
			s-2.2357,0-2.9917,0s-1.2546,0.595-1.1716,1.2606c0.4156,3.3339,1.3259,9.2144,1.7575,12.2007
			c0.6903,4.7676,1.342,9.2708,6.9126,9.2708h19.5789c0.0905-1.2517,0.2124-2.4476,0.3828-3.4714
			c0.0112-0.067,0.0352-0.1289,0.0486-0.1951c-6.6433,0-20.1106,0-20.1106,0C13.3585,34.2374,13.913,31.7054,13.913,28.0391z"/>
		<rect x="17.5796" y="17.0397" width="18.3323" height="3.6664"/>
		<path d="M35.9119,28.7723V22.906h-8.7995v4.3997v1.5887c0,1.2653-0.1186,2.4469-0.3265,3.5443h8.0386
			c0.2538-0.1813,0.5229-0.3413,0.8046-0.4816C35.8583,31.0879,35.9119,29.8596,35.9119,28.7723z"/>
		<path d="M17.2614,32.4387h7.2455c0.1686-0.6675,0.2833-1.4089,0.3467-2.1998h-7.3197
			C17.4848,31.007,17.3931,31.7415,17.2614,32.4387z"/>
		<rect x="17.5796" y="26.5724" width="7.3328" height="2.2"/>
		<rect x="17.5796" y="22.906" width="7.3328" height="2.1998"/>
	</g>
</g>
</svg>
