<svg enable-background="new 0 0 64 64" viewBox="0 0 64 64" xmlns="http://www.w3.org/2000/svg"><path d="m60.435 36.8259c-.1949-1.1727-1.0873-2.0651-2.2607-2.2605-3.3914-.5654-9.0442-.5654-10.1742-.5654-1.1301 0-6.7829 0-10.1743.5654-1.1734.1954-2.0657 1.0878-2.2607 2.2605-.5651 3.3914-.5651 9.0437-.5651 10.1741s0 6.7827.5651 10.1741c.1949 1.1727 1.0873 2.0649 2.2607 2.2606 3.3914.5653 9.0442.5653 10.1743.5653 1.13 0 6.7828 0 10.1742-.5653 1.1734-.1957 2.0658-1.0879 2.2607-2.2606.565-3.3914.565-9.0437.565-10.1741 0-3.3931 0-6.7827-.565-10.1741zm-4.435 11.6741c0 .2761-.2239.5-.5.5h-5.5v5.5c0 .2761-.2239.5-.5.5h-3c-.2761 0-.5-.2239-.5-.5v-5.5h-5.5c-.2761 0-.5-.2239-.5-.5v-3c0-.2761.2239-.5.5-.5h5.5v-5.5c0-.2761.2239-.5.5-.5h3c.2761 0 .5.2239.5.5v5.5h5.5c.2761 0 .5.2239.5.5z"/><path d="m13.913 28.0391v-14.6659h25.6652v15.5212c0 .7506-.0552 1.5117-.1609 2.2466 1.1816-.1166 2.4523-.1957 3.7281-.2477.0612-.6411.0993-1.3038.0993-1.9989v-17.7211c0-.8101-.6566-1.4666-1.4666-1.4666h-30.0649c-.8101 0-1.4666.6565-1.4666 1.4666v17.7211c0 1.1904-.1171 2.2987-.3339 3.2717 0 0-.217.0739-.2529-.2211-.3143-2.5775-1.7201-14.9054-1.7201-14.9054s-2.2357 0-2.9917 0-1.2546.595-1.1716 1.2606c.4156 3.3339 1.3259 9.2144 1.7575 12.2007.6903 4.7676 1.342 9.2708 6.9126 9.2708h19.5789c.0905-1.2517.2124-2.4476.3828-3.4714.0112-.067.0352-.1289.0486-.1951-6.6433 0-20.1106 0-20.1106 0 1.0123-1.8678 1.5668-4.3998 1.5668-8.0661z"/><path d="m17.5796 17.0397h18.3323v3.6664h-18.3323z"/><path d="m35.9119 28.7723v-5.8663h-8.7995v4.3997 1.5887c0 1.2653-.1186 2.4469-.3265 3.5443h8.0386c.2538-.1813.5229-.3413.8046-.4816.2292-.8692.2828-2.0975.2828-3.1848z"/><path d="m17.2614 32.4387h7.2455c.1686-.6675.2833-1.4089.3467-2.1998h-7.3197c-.0491.7681-.1408 1.5026-.2725 2.1998z"/><path d="m17.5796 26.5724h7.3328v2.2h-7.3328z"/><path d="m17.5796 22.906h7.3328v2.1998h-7.3328z"/></svg>