<?xml version="1.0" encoding="utf-8"?>
<!-- Generator: Adobe Illustrator 17.1.0, SVG Export Plug-In . SVG Version: 6.00 Build 0)  -->
<svg version="1.2" baseProfile="tiny" xmlns="http://www.w3.org/2000/svg" xmlns:xlink="http://www.w3.org/1999/xlink" x="0px"
	 y="0px" width="64px" height="64px" viewBox="0 0 64 64" xml:space="preserve">
<g id="_x36_4px_Boxes">
	<rect fill="none" width="64" height="64"/>
</g>
<g id="Production">
	<g>
		<path d="M55,13h-6.9221l-1.7107,5.7498C46.2617,19.075,46,18.9751,46,18.9751V13h-0.0074
			c-0.0145-1.2578-0.057-3.3467-0.1826-4.1211C45.7012,8.2139,45.5835,7,44.6143,7h-2.8555c-0.9688,0-1.1763,1.228-1.2842,1.8936
			C40.3491,9.6669,40.1751,11.7462,40.0764,13H24.0779l-1.7107,5.75C22.2617,19.0752,22,18.9751,22,18.9751V13h-0.0074
			c-0.0145-1.2578-0.057-3.3467-0.1826-4.1211C21.7012,8.2139,21.5835,7,20.6143,7h-2.8555c-0.9688,0-1.1763,1.228-1.2842,1.8936
			C16.3491,9.6669,16.1751,11.7462,16.0764,13H9c-1.1045,0-2,0.8955-2,2v40c0,1.1045,0.8955,2,2,2h46c1.1045,0,2-0.8955,2-2V15
			C57,13.8955,56.1045,13,55,13z M52,52H12V26h40V52z"/>
		<path d="M36.2999,43.8425c-0.9529-1.0035-3.8992-1.8941-5.2148-2.2532c-0.352-0.0961-0.5889-0.3954-0.6681-0.7515
			c-0.07-0.3148-0.1073-0.6757-0.1073-0.6757c0.8359-0.9338,1.4561-2.0616,1.6663-3.5519c0.7994-0.2463,0.9593-1.2445,0.9593-1.8668
			c0-0.6221-0.1096-0.9587-0.3329-1.063c-0.1077-0.0501-0.2129-0.0497-0.3065-0.0298c0.0804-1.2961,0.1604-3.8644-0.3798-4.8294
			c-0.5906-1.055-1.3761-1.3286-2.7444-0.9838c-0.8975-0.4762-1.5086-0.9472-3.081-0.5184
			c-1.0926,0.2979-2.2883,0.7843-2.9185,1.5958c-0.6798,0.8758-0.5488,3.43-0.4339,4.742
			c-0.1013-0.0277-0.2201-0.0327-0.3408,0.0236c-0.2234,0.1043-0.3329,0.441-0.3329,1.063c0,0.6223,0.1599,1.6205,0.9593,1.8668
			c0.2565,2.1346,1.3243,3.3837,2.6387,4.4904c0.3473,0.2925,0.9728,0.4459,1.6238,0.4749
			c0.0591,0.1056,0.0591,0.2311-0.1744,0.3082c-0.3907,0.129-1.6127,0.3114-2.9296-0.3739
			c-0.0109-0.0057-0.0187-0.0109-0.0294-0.0165c-0.9833,0.2637-4.3792,1.2358-5.4365,2.3492C17.4807,45.1436,17,50,17,50h21
			C38,50,37.5358,45.1436,36.2999,43.8425z"/>
		<path d="M37.4053,38.7013c-0.0405,0.3679-0.0976,0.8245-0.1624,1.1566c-0.0459,0.2354-0.182,0.4427-0.4066,0.5269
			c-0.1304,0.0489-0.7054,0.2859-1.3024,0.5399c1.1554,0.5092,2.002,1.042,2.5267,1.5945c0.9249,0.9738,1.4976,2.7911,1.8486,4.4805
			h0.1322h1.2536h6.4962c0,0-0.049-3.2975-1.0556-4.3572c-0.3434-0.3617-1.0276-0.7558-1.7801-1.119
			c-0.9855-0.4875-2.087-0.9188-2.6736-1.1387c-0.2245-0.0841-0.3669-0.2903-0.4066-0.5269
			c-0.0493-0.2935-0.1044-0.7287-0.1478-1.0952c1.4863-0.0604,2.6377-0.207,3.1488-0.4017c0.101-0.0385,0.152-0.1311,0.107-0.2293
			c-0.2796-0.6102-0.9287-2.6168-1.0201-3.6648c-0.2244-2.5721-0.2151-7.1753-3.7392-6.0204c0,0-2.238-1.4297-4.0556,0.9623
			c-1.2787,1.6829-0.9672,3.9019-1.0184,5.1393c-0.0364,0.8801-0.7565,2.9122-1.0596,3.4387
			c-0.0645,0.1121-0.0425,0.2254,0.079,0.2695C34.7183,38.4553,35.9534,38.6096,37.4053,38.7013z"/>
	</g>
</g>
</svg>
