<svg height="64" viewBox="0 0 64 64" width="64" xmlns="http://www.w3.org/2000/svg"><path d="m0 0h64v64h-64z" fill="none"/><path d="m55 13h-6.9221l-1.7107 5.7498c-.1055.3252-.3672.2253-.3672.2253v-5.9751h-.0074c-.0145-1.2578-.057-3.3467-.1826-4.1211-.1088-.665-.2265-1.8789-1.1957-1.8789h-2.8555c-.9688 0-1.1763 1.228-1.2842 1.8936-.1255.7733-.2995 2.8526-.3982 4.1064h-15.9985l-1.7107 5.75c-.1055.3252-.3672.2251-.3672.2251v-5.9751h-.0074c-.0145-1.2578-.057-3.3467-.1826-4.1211-.1088-.665-.2265-1.8789-1.1957-1.8789h-2.8555c-.9688 0-1.1763 1.228-1.2842 1.8936-.1255.7733-.2995 2.8526-.3982 4.1064h-7.0764c-1.1045 0-2 .8955-2 2v40c0 1.1045.8955 2 2 2h46c1.1045 0 2-.8955 2-2v-40c0-1.1045-.8955-2-2-2zm-3 39h-40v-26h40z"/><path d="m36.2999 43.8425c-.9529-1.0035-3.8992-1.8941-5.2148-2.2532-.352-.0961-.5889-.3954-.6681-.7515-.07-.3148-.1073-.6757-.1073-.6757.8359-.9338 1.4561-2.0616 1.6663-3.5519.7994-.2463.9593-1.2445.9593-1.8668 0-.6221-.1096-.9587-.3329-1.063-.1077-.0501-.2129-.0497-.3065-.0298.0804-1.2961.1604-3.8644-.3798-4.8294-.5906-1.055-1.3761-1.3286-2.7444-.9838-.8975-.4762-1.5086-.9472-3.081-.5184-1.0926.2979-2.2883.7843-2.9185 1.5958-.6798.8758-.5488 3.43-.4339 4.742-.1013-.0277-.2201-.0327-.3408.0236-.2234.1043-.3329.441-.3329 1.063 0 .6223.1599 1.6205.9593 1.8668.2565 2.1346 1.3243 3.3837 2.6387 4.4904.3473.2925.9728.4459 1.6238.4749.0591.1056.0591.2311-.1744.3082-.3907.129-1.6127.3114-2.9296-.3739-.0109-.0057-.0187-.0109-.0294-.0165-.9833.2637-4.3792 1.2358-5.4365 2.3492-1.2358 1.3011-1.7165 6.1575-1.7165 6.1575h21s-.4642-4.8564-1.7001-6.1575z"/><path d="m37.4053 38.7013c-.0405.3679-.0976.8245-.1624 1.1566-.0459.2354-.182.4427-.4066.5269-.1304.0489-.7054.2859-1.3024.5399 1.1554.5092 2.002 1.042 2.5267 1.5945.9249.9738 1.4976 2.7911 1.8486 4.4805h.1322 1.2536 6.4962s-.049-3.2975-1.0556-4.3572c-.3434-.3617-1.0276-.7558-1.7801-1.119-.9855-.4875-2.087-.9188-2.6736-1.1387-.2245-.0841-.3669-.2903-.4066-.5269-.0493-.2935-.1044-.7287-.1478-1.0952 1.4863-.0604 2.6377-.207 3.1488-.4017.101-.0385.152-.1311.107-.2293-.2796-.6102-.9287-2.6168-1.0201-3.6648-.2244-2.5721-.2151-7.1753-3.7392-6.0204 0 0-2.238-1.4297-4.0556.9623-1.2787 1.6829-.9672 3.9019-1.0184 5.1393-.0364.8801-.7565 2.9122-1.0596 3.4387-.0645.1121-.0425.2254.079.2695.5489.199 1.784.3533 3.2359.445z"/></svg>