<svg enable-background="new 0 0 64 64" viewBox="0 0 64 64" xmlns="http://www.w3.org/2000/svg"><path d="m0 0h64v64h-64z" fill="none"/><path d="m21.375 15h13.25c1.451 0 2.711-.967 2.996-2.326.34-1.62.33-3.048.347-4.516.009-.753-.53-1.402-1.273-1.526l-1.825-.304c-.943 1.71-1.99 2.704-2.279 2.938-.61.493-.949.542-1.135.361.01-.016.017-.032.027-.048.933-.908 1.517-2.174 1.517-3.579 0-2.761-2.239-5-5-5s-5 2.239-5 5c0 .006.002.011.002.016l-3.697.616c-.743.124-1.281.773-1.273 1.526.017 1.467.007 2.895.347 4.516.286 1.359 1.545 2.326 2.996 2.326zm6.625-11.255c1.246 0 2.255 1.01 2.255 2.255s-1.009 2.255-2.255 2.255c-1.245 0-2.255-1.01-2.255-2.255s1.01-2.255 2.255-2.255z"/><path d="m34.044 26.744c1.176-1.176 2.541-2.093 4.02-2.744h-21.064v3h16.812c.08-.084.15-.174.232-.256z"/><path d="m43 49.177v4.823h-5.901-18.198-5.901v-40h3.6c-.575-1.32-.66-3.583-.679-5h-5.921c-1.104 0-2 .896-2 2v46c0 1.104.896 2 2 2h8.489 19.021 8.49c1.104 0 2-.896 2-2v-8.621c-1.455.531-2.994.818-4.567.818-.145 0-.288-.015-.433-.02z"/><path d="m43 22.894c.134-.004.265-.019.4-.019 1.599 0 3.148.294 4.6.83v-12.705c0-1.104-.896-2-2-2h-5.92c-.019 1.417-.104 3.68-.679 5h3.599z"/><path d="m31.661 30h-14.661v3h13.553c.249-1.044.615-2.052 1.108-3z"/><path d="m33 44.264c-.558-.709-1.036-1.467-1.433-2.264h-14.567v3h16z"/><path d="m30.175 36.1c0-.034.005-.066.005-.1h-13.18v3h13.503c-.21-.942-.328-1.911-.328-2.9z"/><path d="m60.9 49.3-8.2-7.3c2.7-4.3 2.3-10-1.5-13.7-4.3-4.3-11.3-4.3-15.6 0s-4.3 11.3 0 15.6c3.9 3.6 9.6 4.1 13.9 1.3l7.4 8.2c1 1.1 2.7.9 3.8-.2 1.2-1.2 1.4-2.8.2-3.9zm-12.4-8.3c-2.8 2.8-7.3 2.8-10 0-2.8-2.8-2.8-7.3 0-10 2.8-2.8 7.3-2.8 10 0 2.8 2.8 2.8 7.2 0 10z"/></svg>