<svg height="64" viewBox="0 0 64 64" width="64" xmlns="http://www.w3.org/2000/svg"><path d="m0 0h64v64h-64z" fill="none"/><path d="m20.1112 24.0494 3.3377 5.5704c.1409.235.3947.3794.6686.3802h.0029c.2728 0 .5265-.1423.6685-.376l5.0972-8.3816c.2102-.3455.1223-.7943-.2024-1.035-.3259-.2407-.7802-.1942-1.0497.1071l-4.5836 5.1281-2.7554-2.3868c-.2914-.252-.7216-.2554-1.0153-.0079-.2948.2473-.3659.6717-.1685 1.0015z"/><path d="m29.6836 31.2074c-.3259-.2407-.7802-.1942-1.0497.1071l-4.5836 5.1281-2.7554-2.3868c-.2914-.252-.7216-.2554-1.0153-.0079-.2948.2472-.3658.6716-.1685 1.0014l3.3377 5.5704c.1409.235.3947.3794.6686.3802h.0029c.2728 0 .5265-.1423.6685-.376l5.0972-8.3816c.2102-.3454.1223-.7942-.2024-1.0349z"/><path d="m28.6339 42.3145-4.5836 5.1281-2.7554-2.3868c-.2914-.252-.7216-.2554-1.0153-.0079-.2948.2472-.3658.6716-.1685 1.0014l3.3377 5.5704c.1409.235.3947.3794.6686.3802h.0029c.2728 0 .5265-.1423.6685-.376l5.0972-8.3816c.2102-.3455.1223-.7943-.2024-1.035-.3258-.2406-.7802-.1941-1.0497.1072z"/><path d="m33 23h12v3h-12z"/><path d="m33 34h12v3h-12z"/><path d="m33 45h12v3h-12z"/><path d="m50 10h-5.9203c-.0172 1.2681-.0641 2.5871-.3789 4.0855-.0672.3195-.1734.6225-.3007.9145h3.5999v40h-30v-40h3.5999c-.1273-.2921-.2336-.5952-.3007-.9147-.3147-1.4983-.3616-2.8172-.3788-4.0853h-5.9204c-1.1045 0-2 .8955-2 2v46c0 1.1045.8955 2 2 2h36c1.1001 0 2-.9004 2-2v-46c0-1.1045-.8955-2-2-2z"/><path d="m25.3753 16h6.6247 6.6248c1.451 0 2.7108-.9668 2.9964-2.3259.3403-1.6202.3303-3.0484.3473-4.5156.0087-.7534-.5296-1.4023-1.2728-1.5262l-1.8253-.3042c-.9433 1.7096-1.9902 2.7044-2.2794 2.938-.6104.4933-.9493.5424-1.1351.3608.0104-.0157.017-.0322.027-.048.9334-.9082 1.5171-2.1736 1.5171-3.5789 0-2.7614-2.2386-5-5-5s-5 2.2386-5 5c0 .0056.0016.0106.0016.0162l-3.6973.6162c-.7432.1238-1.2816.7728-1.2728 1.5262.017 1.4672.007 2.8953.3473 4.5156.2857 1.359 1.5455 2.3258 2.9965 2.3258zm6.6247-11.255c1.2454 0 2.255 1.0096 2.255 2.255s-1.0096 2.2549-2.255 2.2549-2.255-1.0095-2.255-2.2549 1.0096-2.255 2.255-2.255z"/></svg>