<?xml version="1.0" encoding="utf-8"?>
<!-- Generator: Adobe Illustrator 19.1.0, SVG Export Plug-In . SVG Version: 6.00 Build 0)  -->
<svg version="1.2" baseProfile="tiny" xmlns="http://www.w3.org/2000/svg" xmlns:xlink="http://www.w3.org/1999/xlink" x="0px"
	 y="0px" width="64px" height="64px" viewBox="0 0 64 64" xml:space="preserve">
<g id="_x36_4px_Box">
	<rect fill="none" width="64" height="64"/>
</g>
<g id="Icon">
	<g>
		<path d="M22.2334,32.6947l7.0092,11.6978c0.296,0.4936,0.8288,0.7967,1.404,0.7985c0.0024,0,0.0036,0,0.006,0
			c0.5728,0,1.1056-0.2989,1.4039-0.7897L42.7606,26.8c0.4414-0.7256,0.2569-1.6681-0.425-2.1734
			c-0.6843-0.5054-1.6384-0.4079-2.2043,0.2249l-9.6255,10.769l-5.7864-5.0122c-0.612-0.5291-1.5153-0.5363-2.132-0.0165
			C21.9682,31.1108,21.819,32.0022,22.2334,32.6947z"/>
		<path d="M50,10h-5.9203c-0.0172,1.2681-0.0641,2.5871-0.3789,4.0855C43.6336,14.405,43.5274,14.708,43.4001,15H47v40H17V15h3.5999
			c-0.1273-0.2921-0.2336-0.5952-0.3007-0.9147C19.9845,12.587,19.9376,11.2681,19.9204,10H14c-1.1045,0-2,0.8955-2,2v46
			c0,1.1045,0.8955,2,2,2h36c1.1001,0,2-0.9004,2-2V12C52,10.8955,51.1045,10,50,10z"/>
		<path d="M25.3753,16H32h6.6248c1.451,0,2.7108-0.9668,2.9964-2.3259c0.3403-1.6202,0.3303-3.0484,0.3473-4.5156
			c0.0087-0.7534-0.5296-1.4023-1.2728-1.5262l-1.8253-0.3042c-0.9433,1.7096-1.9902,2.7044-2.2794,2.938
			c-0.6104,0.4933-0.9493,0.5424-1.1351,0.3608c0.0104-0.0157,0.017-0.0322,0.027-0.048C36.4163,9.6707,37,8.4053,37,7
			c0-2.7614-2.2386-5-5-5s-5,2.2386-5,5c0,0.0056,0.0016,0.0106,0.0016,0.0162l-3.6973,0.6162
			c-0.7432,0.1238-1.2816,0.7728-1.2728,1.5262c0.017,1.4672,0.007,2.8953,0.3473,4.5156C22.6645,15.0332,23.9243,16,25.3753,16z
			 M32,4.745c1.2454,0,2.255,1.0096,2.255,2.255c0,1.2454-1.0096,2.2549-2.255,2.2549S29.745,8.2454,29.745,7
			C29.745,5.7546,30.7546,4.745,32,4.745z"/>
	</g>
</g>
</svg>
