<svg height="64" viewBox="0 0 64 64" width="64" xmlns="http://www.w3.org/2000/svg"><path d="m0 0h64v64h-64z" fill="none"/><path d="m27 40c-2.1739 0-4.0051-.8375-4.6938-2h-14.3062v7h38v-7h-14.3062c-.6887 1.1625-2.5199 2-4.6938 2z"/><path d="m27 49c-2.1739 0-4.0051-.8375-4.6938-2h-14.3062v5c0 1.1046.8954 2 2 2h34c1.1046 0 2-.8954 2-2v-5h-14.3062c-.6887 1.1625-2.5199 2-4.6938 2z"/><path d="m59.7097 23.3213-13.7097 5.3279v-4.7814l13.3983-5.2068c.7722-.3001 1.1548-1.1694.8547-1.9415l-.5433-1.3981-13.7097 5.3278v-5.6492c0-1.1046-.8954-2-2-2h-14.3651l12.8652-4.9998c.7722-.3 1.1548-1.1693.8548-1.9415l-.5434-1.3981-19.108 7.4298c-.04-.0447-.1584-.2196.0997-.4302.145-.1182 1.7857-1.1672 3.1969-2.0645v-3.5957c0-1.1046-.8954-2-2-2h-15.0001c-1.1046 0-2 .8954-2 2v30h38v-4.1322l13.3983-5.2068c.7722-.3001 1.1548-1.1694.8547-1.9415zm-46.2097-1.3213c-.8284 0-1.5-.6716-1.5-1.5s.6716-1.5 1.5-1.5 1.5.6716 1.5 1.5-.6716 1.5-1.5 1.5zm6 0c-.8284 0-1.5-.6716-1.5-1.5s.6716-1.5 1.5-1.5 1.5.6716 1.5 1.5-.6716 1.5-1.5 1.5z"/><circle cx="12" cy="57" r="2"/><circle cx="42" cy="57" r="2"/></svg>