<svg height="64" viewBox="0 0 64 64" width="64" xmlns="http://www.w3.org/2000/svg"><path d="m0 0h64v64h-64z" fill="none"/><path d="m7 23v33c0 .5523.4477 1 1 1h48c.5523 0 1-.4477 1-1v-33c0-.5523-.4477-1-1-1h-48c-.5523 0-1 .4477-1 1zm18 7h14v7h-14zm17 20.5c0 .8286-.6719 1.5-1.5 1.5h-17c-.8281 0-1.5-.6714-1.5-1.5v-3.5c0-.8286.6719-1.5 1.5-1.5s1.5.6714 1.5 1.5v2h14v-2c0-.8286.6719-1.5 1.5-1.5s1.5.6714 1.5 1.5z"/><path d="m51 16h-38c-.5523 0-1 .4477-1 1v3h40v-3c0-.5523-.4477-1-1-1z"/><path d="m46 10h-28c-.5523 0-1 .4477-1 1v3h30v-3c0-.5523-.4477-1-1-1z"/></svg>