<svg height="64" viewBox="0 0 64 64" width="64" xmlns="http://www.w3.org/2000/svg"><path d="m0 0h64v64h-64z" fill="none"/><path d="m63.0791 31.9951c-2.4044-1.9624-5.5771-4.5978-7.8791-6.805l3.2053-5.6135c-4.1631-1.0062-8.3405-2.1226-12.7448-3.6797 1.0613-4.2273 1.657-6.566 2.2702-8.9799-2.5557.3996-8.6458 1.4023-17.5322 2.2189l-1.6915-5.6032c-7.2091 3.7123-14.5953 7.2057-23.2314 10.6646l3.6035 10.2355c-3.1159 3.0835-5.5878 5.4299-7.9707 7.6454l8.2307 9.332c-.1918-1.5305-.3083-3.1629-.3273-4.9066l-3.7256-4.2242c2.3701-2.2417 8.2676-7.8931 13.3154-13.3252l7.5037 9.1641c.2414-1.0654.9097-1.9626 1.8145-2.5183l-9.1932-11.2288c-1.5002 1.6499-3.4122 3.7861-7.2947 7.7094l-2.175-6.1786c2.8838-1.1968 10.0576-4.2515 17.6172-8.0605l5.1804 17.1585h3.133l-3.9044-12.9339c2.5955-.2456 7.417-.7442 12.6261-1.4973-.8123 3.2119-2.3628 9.3704-3.6102 14.4614 1.102.0833 2.0723.608 2.7452 1.4055.5852-2.3972 1.2518-5.0845 1.8843-7.6162 3.4321 1.2018 6.8516 2.166 8.9065 2.7112l-9.7142 17.0125c.1558 1.6596.4556 3.1884.8392 4.5804l8.71-15.254c1.718 1.6052 3.8015 3.3804 5.0927 4.4604l-12.7545 14.317c.653 1.98 2.0794 5.4742 2.9009 7.353 0 0-.2035.2871-.573-.1219-1.6759-1.8547-6.3361-8.344-6.3361-17.8781v-7c0-1.1046-.8954-2-2-2h-10c-1.1046 0-2 .8954-2 2v2h-15c-1.1046 0-2 .8954-2 2v3c0 11.408 4.3591 17.9616 6.6418 20.6114.7593.8813 1.8566 1.3886 3.0198 1.3886h27.1677c1.1833 0 2.2689-.6826 2.7471-1.765.986-2.2319 2.7977-6.7923 2.8112-13.3614z"/></svg>