<?xml version="1.0" encoding="utf-8"?>
<!-- Generator: Adobe Illustrator 19.1.0, SVG Export Plug-In . SVG Version: 6.00 Build 0)  -->
<svg version="1.2" baseProfile="tiny" xmlns="http://www.w3.org/2000/svg" xmlns:xlink="http://www.w3.org/1999/xlink" x="0px"
	 y="0px" width="64px" height="64px" viewBox="0 0 64 64" xml:space="preserve">
<g id="Box">
	<rect fill="none" width="64" height="64"/>
</g>
<g id="Icon">
	<path d="M63.0791,31.9951c-2.4044-1.9624-5.5771-4.5978-7.8791-6.805l3.2053-5.6135c-4.1631-1.0062-8.3405-2.1226-12.7448-3.6797
		c1.0613-4.2273,1.657-6.566,2.2702-8.9799c-2.5557,0.3996-8.6458,1.4023-17.5322,2.2189L28.707,3.5327
		C21.4979,7.245,14.1117,10.7384,5.4756,14.1973l3.6035,10.2355c-3.1159,3.0835-5.5878,5.4299-7.9707,7.6454l8.2307,9.332
		c-0.1918-1.5305-0.3083-3.1629-0.3273-4.9066l-3.7256-4.2242c2.3701-2.2417,8.2676-7.8931,13.3154-13.3252l7.5037,9.1641
		c0.2414-1.0654,0.9097-1.9626,1.8145-2.5183l-9.1932-11.2288c-1.5002,1.6499-3.4122,3.7861-7.2947,7.7094l-2.175-6.1786
		c2.8838-1.1968,10.0576-4.2515,17.6172-8.0605L32.0545,25h3.133l-3.9044-12.9339c2.5955-0.2456,7.417-0.7442,12.6261-1.4973
		c-0.8123,3.2119-2.3628,9.3704-3.6102,14.4614c1.102,0.0833,2.0723,0.608,2.7452,1.4055c0.5852-2.3972,1.2518-5.0845,1.8843-7.6162
		c3.4321,1.2018,6.8516,2.166,8.9065,2.7112l-9.7142,17.0125c0.1558,1.6596,0.4556,3.1884,0.8392,4.5804l8.71-15.254
		c1.718,1.6052,3.8015,3.3804,5.0927,4.4604L46.0082,46.647c0.653,1.98,2.0794,5.4742,2.9009,7.353c0,0-0.2035,0.2871-0.573-0.1219
		C46.6602,52.0234,42,45.5341,42,36v-7c0-1.1046-0.8954-2-2-2H30c-1.1046,0-2,0.8954-2,2v2H13c-1.1046,0-2,0.8954-2,2v3
		c0,11.408,4.3591,17.9616,6.6418,20.6114C18.4011,57.4927,19.4984,58,20.6616,58h27.1677c1.1833,0,2.2689-0.6826,2.7471-1.765
		c0.986-2.2319,2.7977-6.7923,2.8112-13.3614L63.0791,31.9951z"/>
</g>
</svg>
