<svg height="64" viewBox="0 0 64 64" width="64" xmlns="http://www.w3.org/2000/svg"><path d="m0 0h64v64h-64z" fill="none"/><path d="m57 42h-29v-8c0-.406-.0414-.8022-.1183-1.1857l24.1183-1.3695v4.5552h-22v3h25v-7.7255l4.8344-.2745c.6129 0 1.0815-.5463.9883-1.152l-.6673-5.3374c-.6647-4.3209-4.0126-7.492-8.7544-7.9205-4.354-.3936-10.9725-.5715-18.8297 0-6.2751.4564-20.1379 4.3754-24.3339 10.0447 1.7064.3306 4.7693.9279 4.9974 1.0012.3172.1017.2708.3079.2499.3641h-6.0554c-3.2001-.0001-5.4293 2.4374-5.4293 5.6457v12.3542c0 .5523.4477 1 1 1h57c.5523 0 1-.4477 1-1 0-2.2092-1.7908-4-4-4z"/></svg>