<svg height="64" viewBox="0 0 64 64" width="64" xmlns="http://www.w3.org/2000/svg"><path d="m0 0h64v64h-64z" fill="none"/><path d="m55.893 29.9224c-1.605-.8008-6.0286-3.0156-8.6444-4.1758 1.4482-8.0244.449-8.96-.1877-9.5332-.2129-.1914-.4644-.335-.7373-.4209-1.332-.4194-13.0024-4.1104-16.0527-4.603-.728-.1147-1.4629.1763-1.9102.7632-.4268.5605-.8262 1.0933-1.2002 1.6001-5.4087-2.4077-10.4741-1.2881-10.7017-1.2363-.6611.1519-1.2002.6284-1.4316 1.2656-1.3853 3.8101-1.1748 7.8574-.3228 10.2129-1.8281 2.3555-6.6919 7.793-7.6215 10.9214-.1841.6187-.0581 1.2876.3379 1.7969 2.7192 3.499 12.4995 14.9995 13.6904 16.0908.1968.1807.4277.3198.6792.4092 1.9912.7114 8.5708 2.9883 11.125 2.9883.0571 0 .1118-.001.1646-.0034.5596-.0244 1.083-.2817 1.4434-.7104 0 0 3.665-4.355 5.1968-6.1743 8.0801-.5093 9.0312-1.1758 9.4448-1.4658.2354-.1646.4321-.3779.5776-.6255 2.166-3.6919 7.0434-12.5581 7.2509-15.1504.0651-.8137-.3705-1.5852-1.1005-1.9494zm-37.455-13.8526c1.3462-.1187 3.7729-.1274 6.3545.835-1.2287 1.8386-1.9703 3.1596-2.4138 4.1261l-4.2747-.3105c-.1362-1.23-.1277-2.8719.334-4.6506zm28.2256 28.2925c-1.3652.2876-5.0024.6338-8.0366.8101-.5479.0317-1.0586.2876-1.4126.707-.6177.7324-3.709 4.4053-5.0869 6.043-1.7446-.3037-5.4111-1.416-8.5444-2.5176-1.3457-1.5229-7.4375-8.1943-12.311-14.4556 1.1937-2.5863 5.2496-7.0409 7.3032-9.6026l16.3975-3.0214s.1425-.3467-.5577-.4199l-7.6817-.558c.9703-1.6232 2.5179-3.8873 4.0543-5.9639 3.1006.7441 9.8055 2.769 13.3855 3.8838-.0051 1.1326-.3014 3.2243-.6492 5.3076-1.1555.4839-9.7499 4.1127-11.9922 5.8443-.3389.2617-.585.625-.7017 1.0366l-1.5818 5.5692-.0089-.0092-9.8291-4.1797s-.3096.212.2372.6563c0 0 5.2794 4.29 9.1943 7.0351 2.5786 1.808 3.4625.1107 3.5837-.1621l.0295.0084 2.0249-7.1284c1.8123-1.1166 6.3591-3.1778 9.6106-4.5668.0123-.004 4.7741 2.2308 8.5124 4.0765-.994 2.3964-3.4423 7.3124-5.9393 11.6073z"/></svg>