<svg height="64" viewBox="0 0 64 64" width="64" xmlns="http://www.w3.org/2000/svg"><path d="m0 0h64v64h-64z" fill="none"/><path d="m47 7h-30c-2.2092 0-4 1.7908-4 4v42c0 2.2092 1.7908 4 4 4h30c2.2092 0 4-1.7908 4-4v-42c0-2.2092-1.7908-4-4-4zm-25 44c-1.6569 0-3-1.3431-3-3s1.3431-3 3-3 3 1.3431 3 3-1.3431 3-3 3zm0-10c-1.6569 0-3-1.3431-3-3s1.3431-3 3-3 3 1.3431 3 3-1.3431 3-3 3zm0-10c-1.6569 0-3-1.3431-3-3s1.3431-3 3-3 3 1.3431 3 3-1.3431 3-3 3zm10 20c-1.6569 0-3-1.3431-3-3s1.3431-3 3-3 3 1.3431 3 3-1.3431 3-3 3zm0-10c-1.6569 0-3-1.3431-3-3s1.3431-3 3-3 3 1.3431 3 3-1.3431 3-3 3zm0-10c-1.6569 0-3-1.3431-3-3s1.3431-3 3-3 3 1.3431 3 3-1.3431 3-3 3zm13 17c0 1.6569-1.3431 3-3 3s-3-1.3431-3-3v-10c0-1.6569 1.3431-3 3-3s3 1.3431 3 3zm-3-17c-1.6569 0-3-1.3431-3-3s1.3431-3 3-3 3 1.3431 3 3-1.3431 3-3 3zm4-10h-28v-9h28z"/></svg>