<?xml version="1.0" encoding="utf-8"?>
<!-- Generator: Adobe Illustrator 19.1.0, SVG Export Plug-In . SVG Version: 6.00 Build 0)  -->
<svg version="1.2" baseProfile="tiny" xmlns="http://www.w3.org/2000/svg" xmlns:xlink="http://www.w3.org/1999/xlink" x="0px"
	 y="0px" width="64px" height="64px" viewBox="0 0 64 64" xml:space="preserve">
<g id="Box">
	<rect fill="none" width="64" height="64"/>
</g>
<g id="Icon">
	<g>
		<path d="M47.0038,48c-0.2341-2.5223-0.1614-5.6989,0.2939-10.0967c0.7156-6.9117,1.947-15.2543,2.8761-19.9006
			c0.7228-3.614,0.5784-7.5139-1.731-10.33c-1.3911-1.6973-3.4048-2.6708-5.5239-2.6708L13.0322,5.0172
			c-3.7656,0-6.9235,3.1494-7.228,6.9496c-0.4147,5.168,3.6896,8.4512,8.1013,9.1509c0.3107-1.7001,0.5756-3.0696,0.7454-3.9271
			c-1.9008-0.2799-5.1238-1.6087-4.8594-4.9035C9.939,10.4443,11.5,9.002,13.3447,9.002c0.9297,0,1.793,0.4287,2.4307,1.207
			c1.1982,1.4609,1.521,3.9502,0.9092,7.0098c-1.3682,6.8408-3.8911,23.1602-3.5244,29.8916C13.3125,49.8994,14.4019,59,22.0322,59
			h26c7.1295,0,10.6154-8,11.8115-11H47.0038z M22.0322,55.001c-3.8594,0-4.7129-5.0796-4.8779-8.1079
			c-0.3315-6.084,2.0347-21.8015,3.4521-28.8904C21.4609,13.731,20.7657,11,19.7549,9h23.1641c1.7847,0,2.9383,1.4716,3.3802,3.2007
			c0.3922,1.5487,0.2664,3.4504-0.0471,5.018c-0.9078,4.5392-2.0987,13.2498-2.8417,20.5649
			C42.9003,42.8054,42.9544,46.3477,43.1156,48H29.4019C28.0104,51,25.8895,55.001,22.0322,55.001z M48.0322,55H29.854
			c0.7241-1,1.3994-2.01,2.0225-3.01h21.25C51.8511,53.99,50.1641,55,48.0322,55z"/>
		<path d="M27.7642,22h13.896c0.1849-1.0857,0.3635-2.0861,0.5331-3H28.3309C28.149,20,27.9592,21,27.7642,22z"/>
		<path d="M26.573,29h13.9921c0.1462-1.0183,0.2953-2.0226,0.4466-3H27.0618C26.8961,27,26.7318,28,26.573,29z"/>
		<path d="M25.5999,36h14.0619c0.1108-0.9877,0.2335-1.992,0.3617-3H25.9842C25.8445,34,25.7174,35,25.5999,36z"/>
		<circle cx="24.746" cy="20.4311" r="1.4944"/>
		<circle cx="23.6359" cy="27.3477" r="1.4944"/>
		<circle cx="22.6113" cy="34.4352" r="1.4944"/>
	</g>
</g>
</svg>
