<svg height="64" viewBox="0 0 64 64" width="64" xmlns="http://www.w3.org/2000/svg"><path d="m0 0h64v64h-64z" fill="none"/><path d="m47.0038 48c-.2341-2.5223-.1614-5.6989.2939-10.0967.7156-6.9117 1.947-15.2543 2.8761-19.9006.7228-3.614.5784-7.5139-1.731-10.33-1.3911-1.6973-3.4048-2.6708-5.5239-2.6708l-29.8867.0153c-3.7656 0-6.9235 3.1494-7.228 6.9496-.4147 5.168 3.6896 8.4512 8.1013 9.1509.3107-1.7001.5756-3.0696.7454-3.9271-1.9008-.2799-5.1238-1.6087-4.8594-4.9035.1475-1.8428 1.7085-3.2851 3.5532-3.2851.9297 0 1.793.4287 2.4307 1.207 1.1982 1.4609 1.521 3.9502.9092 7.0098-1.3682 6.8408-3.8911 23.1602-3.5244 29.8916.1523 2.789 1.2417 11.8896 8.872 11.8896h26c7.1295 0 10.6154-8 11.8115-11zm-24.9716 7.001c-3.8594 0-4.7129-5.0796-4.8779-8.1079-.3315-6.084 2.0347-21.8015 3.4521-28.8904.8545-4.2717.1593-7.0027-.8515-9.0027h23.1641c1.7847 0 2.9383 1.4716 3.3802 3.2007.3922 1.5487.2664 3.4504-.0471 5.018-.9078 4.5392-2.0987 13.2498-2.8417 20.5649-.5101 5.0218-.456 8.5641-.2948 10.2164h-13.7137c-1.3915 3-3.5124 7.001-7.3697 7.001zm26-.001h-18.1782c.7241-1 1.3994-2.01 2.0225-3.01h21.25c-1.2754 2-2.9624 3.01-5.0943 3.01z"/><path d="m27.7642 22h13.896c.1849-1.0857.3635-2.0861.5331-3h-13.8624c-.1819 1-.3717 2-.5667 3z"/><path d="m26.573 29h13.9921c.1462-1.0183.2953-2.0226.4466-3h-13.9499c-.1657 1-.33 2-.4888 3z"/><path d="m25.5999 36h14.0619c.1108-.9877.2335-1.992.3617-3h-14.0393c-.1397 1-.2668 2-.3843 3z"/><circle cx="24.746" cy="20.4311" r="1.4944"/><circle cx="23.6359" cy="27.3477" r="1.4944"/><circle cx="22.6113" cy="34.4352" r="1.4944"/></svg>