<svg height="64" viewBox="0 0 64 64" width="64" xmlns="http://www.w3.org/2000/svg"><path d="m0 0h64v64h-64z" fill="none"/><path d="m5 5h6v-3h-9v9h3z"/><path d="m5 53h-3v9h9v-3h-6z"/><path d="m53 2v3h6v6h3v-9z"/><path d="m59 59h-6v3h9v-9h-3z"/><path d="m62 37v-6l-5 3z"/><path d="m2 31v6l5-3z"/><path d="m47 52h-30v-14h-5v17c0 1.1045.8955 2 2 2h36c1.1001 0 2-.9004 2-2v-17h-5z"/><path d="m8 32v4h48v-4h-4v-8.1714c0-.5307-.2109-1.0395-.5859-1.4145l-14.8282-14.8282c-.375-.375-.8838-.5859-1.4145-.5859h-21.1714c-1.1045 0-2 .8955-2 2v23zm9-20h16.7085l.9316-3.1349c.109-.3406.3599-.231.3599-.231v14.3659c0 .5522.4478 1 1 1h14.3669s.1227.2504-.2184.3594l-3.1485.9324v6.7082h-30z"/></svg>