<?xml version="1.0" encoding="utf-8"?>
<!-- Generator: Adobe Illustrator 19.1.0, SVG Export Plug-In . SVG Version: 6.00 Build 0)  -->
<svg version="1.2" baseProfile="tiny" xmlns="http://www.w3.org/2000/svg" xmlns:xlink="http://www.w3.org/1999/xlink" x="0px"
	 y="0px" width="64px" height="64px" viewBox="0 0 64 64" xml:space="preserve">
<g id="Box">
	<rect fill="none" width="64" height="64"/>
</g>
<g id="Icon">
	<g>
		<polygon points="5,5 11,5 11,2 2,2 2,11 5,11 		"/>
		<polygon points="5,53 2,53 2,62 11,62 11,59 5,59 		"/>
		<polygon points="53,2 53,5 59,5 59,11 62,11 62,2 		"/>
		<polygon points="59,59 53,59 53,62 62,62 62,53 59,53 		"/>
		<polygon points="62,37 62,31 57,34 		"/>
		<polygon points="2,31 2,37 7,34 		"/>
		<path d="M47,52H17V38h-5v17c0,1.1045,0.8955,2,2,2h36c1.1001,0,2-0.9004,2-2V38h-5V52z"/>
		<path d="M8,32v4h48v-4h-4v-8.1714c0-0.5307-0.2109-1.0395-0.5859-1.4145L36.5859,7.5859C36.2109,7.2109,35.7021,7,35.1714,7H14
			c-1.1045,0-2,0.8955-2,2v23H8z M17,12h16.7085l0.9316-3.1349C34.7491,8.5245,35,8.6341,35,8.6341V23c0,0.5522,0.4478,1,1,1
			h14.3669c0,0,0.1227,0.2504-0.2184,0.3594L47,25.2918V32H17V12z"/>
	</g>
</g>
</svg>
