<svg height="64" viewBox="0 0 64 64" width="64" xmlns="http://www.w3.org/2000/svg"><path d="m0 0h64v64h-64z" fill="none"/><path d="m46.311 47.8256-12.5435 4.5655-8.8508-24.3911c-.5522-.9055-1.7266-1.2307-2.6675-.7173l-7.5205 3.6611c-.6638.3615-.982 1.1635-.7153 1.895.2936.806 1.185 1.2214 1.991.9277.3792-.1381 5.6047-2.0413 5.9838-2.1795l7.5503 20.8737c1.5751.0324 3.0616.845 3.9185 2.2015.1464.2318.1251.3826-.0096.4623-.7912-.6914-1.8142-1.1245-2.9474-1.1245-2.4853 0-4.5 2.0147-4.5 4.5s2.0147 4.5 4.5 4.5 4.5-2.0147 4.5-4.5c0-.7393-.1953-1.4265-.5112-2.0419l12.2601-7.7399c.5064-.3197.1248-1.0975-.4379-.8926z"/><path d="m33.0576 37.6052h16v9.6774h-16z" transform="matrix(-.9397 .342 -.342 -.9397 94.1559 68.2853)"/><path d="m29.0122 26.4905h16v9.6774h-16z" transform="matrix(-.9397 .342 -.342 -.9397 82.5075 48.1102)"/><path d="m24.9668 15.3759h16v9.6774h-16z" transform="matrix(-.9397 .342 -.342 -.9397 70.8593 27.9347)"/><path d="m24.0827 1.1h9.6774v16h-9.6774z" transform="matrix(.342 .9397 -.9397 .342 27.5808 -21.1896)"/></svg>