<?xml version="1.0" encoding="utf-8"?>
<!-- Generator: Adobe Illustrator 18.1.0, SVG Export Plug-In . SVG Version: 6.00 Build 0)  -->
<svg version="1.2" baseProfile="tiny" xmlns="http://www.w3.org/2000/svg" xmlns:xlink="http://www.w3.org/1999/xlink" x="0px"
	 y="0px" width="64px" height="64px" viewBox="0 0 64 64" xml:space="preserve">
<g id="Box">
	<rect fill="none" width="64" height="64"/>
</g>
<g id="Label">
</g>
<g id="Icon">
	<rect x="29" y="7" width="6" height="15"/>
	<g>
		<path d="M36.5791,39.7588C35.5449,40.8463,35,44.9422,35,44.9422h18c0,0-0.5449-4.0959-1.5791-5.1834
			c-0.8188-0.8618-3.6121-1.9014-4.7583-2.3032c-0.0946-0.3177-0.165-0.6367-0.2185-0.9365
			c0.8297-0.8356,1.3127-1.9407,1.5559-3.1075c0.2755-0.1586,0.7226-0.4077,0.7883-1.5615c0.074-1.3017-0.1269-1.686-0.6069-1.6628
			c0.0617-0.3369,0.0667-0.9769,0.0619-1.6634c-0.0052-0.7258-0.0395-1.5035-0.3333-2.03
			c-0.3649-0.6541-0.8777-1.0377-1.8777-0.8012c-0.8754-0.42-1.7975-0.8713-3.3404-0.5307
			c-1.7388,0.3838-2.353,0.9908-2.5765,1.3319c-0.328,0.5007-0.3624,1.2715-0.3593,1.9987c0.003,0.6978-0.0142,1.3553,0.0479,1.6947
			c-0.48-0.0232-0.6809,0.3611-0.6069,1.6628c0.0657,1.1538,0.5274,1.4029,0.8029,1.5615c0.2432,1.1665,0.7115,2.2712,1.5407,3.1068
			c-0.051,0.3003-0.1144,0.6184-0.1968,0.935C40.2017,37.8535,37.3995,38.8954,36.5791,39.7588z"/>
		<rect x="12" y="43" width="10" height="2"/>
		<rect x="12" y="39" width="15" height="2"/>
		<rect x="12" y="35" width="15" height="2"/>
		<rect x="29" y="7" width="6" height="15"/>
		<path d="M56,13H37v4h19v32H8V17h19v-4H8c-2.2091,0-4,1.7908-4,4v32c0,2.2091,1.7909,4,4,4h48c2.2092,0,4-1.7909,4-4V17
			C60,14.7908,58.2092,13,56,13z"/>
	</g>
</g>
</svg>
