<svg height="64" viewBox="0 0 64 64" width="64" xmlns="http://www.w3.org/2000/svg"><path d="m0 0h64v64h-64z" fill="none"/><path d="m29 7h6v15h-6z"/><path d="m36.5791 39.7588c-1.0342 1.0875-1.5791 5.1834-1.5791 5.1834h18s-.5449-4.0959-1.5791-5.1834c-.8188-.8618-3.6121-1.9014-4.7583-2.3032-.0946-.3177-.165-.6367-.2185-.9365.8297-.8356 1.3127-1.9407 1.5559-3.1075.2755-.1586.7226-.4077.7883-1.5615.074-1.3017-.1269-1.686-.6069-1.6628.0617-.3369.0667-.9769.0619-1.6634-.0052-.7258-.0395-1.5035-.3333-2.03-.3649-.6541-.8777-1.0377-1.8777-.8012-.8754-.42-1.7975-.8713-3.3404-.5307-1.7388.3838-2.353.9908-2.5765 1.3319-.328.5007-.3624 1.2715-.3593 1.9987.003.6978-.0142 1.3553.0479 1.6947-.48-.0232-.6809.3611-.6069 1.6628.0657 1.1538.5274 1.4029.8029 1.5615.2432 1.1665.7115 2.2712 1.5407 3.1068-.051.3003-.1144.6184-.1968.935-1.1422.4001-3.9444 1.442-4.7648 2.3054z"/><path d="m12 43h10v2h-10z"/><path d="m12 39h15v2h-15z"/><path d="m12 35h15v2h-15z"/><path d="m29 7h6v15h-6z"/><path d="m56 13h-19v4h19v32h-48v-32h19v-4h-19c-2.2091 0-4 1.7908-4 4v32c0 2.2091 1.7909 4 4 4h48c2.2092 0 4-1.7909 4-4v-32c0-2.2092-1.7908-4-4-4z"/></svg>