<svg height="64" viewBox="0 0 64 64" width="64" xmlns="http://www.w3.org/2000/svg"><path d="m0 0h64v64h-64z" fill="none"/><path d="m60.1223 48.492-4.1223-.8821v-2.9923l1.4254.1127c1.5237.127 2.9249-.8346 3.3445-2.3049 1.0916-3.8243 2.9677-10.8287 2.5903-12.554-.4398-2.0101-7.2867-3.8318-8.4803-2.1986-.5546.759-1.3939 3.5663-2.1338 6.3544-.0978.0189-.2589-.0183-.3086-.4334-.147-1.2281.1875-3.8021.6458-5.9271.2675-1.2398.7917-2.7916 3.7736-2.6256.1542.0086.3185.022.4875.0385.2523-1.3693.3765-2.4855.257-3.032-.4132-1.8889-6.8472-3.6006-7.9686-2.066-.3495.4783-.8194 1.8223-1.3007 3.4457l.0011-.0106c-.074.0337-.3158.0691-.3383-.3971-.0407-.8422.0703-2.2537.4216-3.5195.3193-1.1505.75-2.0834 3.1085-2.0123.0483.0015.1027.0064.1525.0088.1358-.9009.1855-1.6205.0982-2.0197-.3924-1.7939-6.5027-3.3496-7.5679-1.892-.3979.5445-.96 2.2004-1.5082 4.1488 3.5965 4.3864 10.0975 16.3964 7.2274 22.7635-.5903 1.3098-1.4908 2.4343-2.6756 3.3854l5.7486.468v3.2593l-4.1791.8821c-.7501.1486-1.2905.8066-1.2905 1.5713v.9269l6.9413-1.2133 6.9412 1.2133v-.9269c-.0001-.7646-.5405-1.4226-1.2906-1.5713z"/><path d="m16.7015 43.8864c-1.1873-.952-2.0894-2.0776-2.6805-3.3893-2.8806-6.3901 3.6778-18.4633 7.266-22.8098-.544-1.9293-1.1003-3.5624-1.495-4.1025-1.0651-1.4575-7.1755.0982-7.5679 1.892-.0873.3992-.0376 1.1188.0982 2.0197.0499-.0024.1042-.0073.1525-.0088 2.3585-.071 2.7892.8618 3.1085 2.0123.3513 1.2659.4623 2.6774.4216 3.5195-.0225.4662-.2642.4308-.3383.3971l.0011.0106c-.4813-1.6234-.9512-2.9675-1.3007-3.4457-1.1215-1.5347-7.5554.1771-7.9686 2.066-.1195.5464.0047 1.6627.257 3.032.1691-.0164.3333-.0298.4875-.0385 2.9819-.166 3.5062 1.3858 3.7736 2.6256.4583 2.125.7928 4.699.6458 5.9271-.0497.4151-.2108.4523-.3086.4334-.7399-2.788-1.5792-5.5954-2.1338-6.3544-1.1935-1.6332-8.0405.1885-8.4803 2.1986-.3774 1.7253 1.4988 8.7297 2.5903 12.554.4196 1.4703 1.8207 2.4319 3.3445 2.3049l1.4256-.1126v2.9923l-4.1223.8821c-.7501.1486-1.2905.8066-1.2905 1.5713v.9269l6.9413-1.2133 6.9412 1.2133v-.9269c0-.7646-.5405-1.4227-1.2905-1.5713l-4.1792-.8821v-3.2593z"/><path d="m47.9927 39.6248c2.6231-5.8195-5.2573-19.4209-7.8859-21.5641-1.9126-1.5594-4.4359-2.0607-8.1327-2.0607-3.6967 0-6.2199.5013-8.1325 2.0607-2.6287 2.1432-10.509 15.7446-7.8859 21.5641 2.2614 5.017 10.1913 5.8851 16.0184 5.8851 1.0052 0 2.0749-.0288 3.1653-.0973.0709.1196.0734.3268-.4445.5399-1.5203.6254-5.3494 1.4836-9.6839 1.0475v4.5346c0 1.6869 3.6804 2.4099 6.9628 2.4099 3.2825 0 6.9629-.723 6.9629-2.4099 0-1.1537 0-4.5317 0-6.553 3.9717-.6897 7.6343-2.2027 9.056-5.3568zm-7.2483-5.3534c-1.3943 3.1526-8.7703 2.8862-8.7703 2.8862s-7.3762.2664-8.7704-2.8862 2.8785-10.7455 4.3177-11.9c1.0472-.84 2.4287-1.1101 4.4528-1.1101 2.0239 0 3.4054.2701 4.4526 1.1101 1.4391 1.1545 5.7118 8.7474 4.3176 11.9z"/></svg>