<?xml version="1.0" encoding="utf-8"?>
<!-- Generator: Adobe Illustrator 19.1.0, SVG Export Plug-In . SVG Version: 6.00 Build 0)  -->
<svg version="1.2" baseProfile="tiny" xmlns="http://www.w3.org/2000/svg" xmlns:xlink="http://www.w3.org/1999/xlink" x="0px"
	 y="0px" width="64px" height="64px" viewBox="0 0 64 64" xml:space="preserve">
<g id="Box">
	<rect fill="none" width="64" height="64"/>
</g>
<g id="Icon">
	<g>
		<path d="M50,30.7998c1.7717,0,3.9202,0.0352,6,0.1483V9.3114c0-0.665-0.6877-1.1073-1.2928-0.8315l-16.983,8.2169L24.0172,9.3104
			c0,0-2.5922,12.2766-2.6643,12.5445c-0.0873,0.3236-0.3527,0.2385-0.3527,0.2385L21,8.3965L4.0695,16.2404
			C3.418,16.5373,3,17.1873,3,17.9033v36.1819c0,0.665,0.6877,1.1073,1.2928,0.8315l16.9487-8.2324l12.7119,6.4134
			c-0.1173-2.1101-0.1536-4.2983-0.1536-6.0977c0-3.2148,0.106-7.6812,0.6084-10.6997c0.418-2.5083,2.3838-4.4741,4.8921-4.8916
			C42.3188,30.9058,46.7847,30.7998,50,30.7998z"/>
		<path d="M62.435,36.826c-0.1949-1.1729-1.0873-2.0652-2.2607-2.2607C56.7829,34,51.1301,34,50.0001,34s-6.7828,0-10.1743,0.5654
			c-1.1734,0.1955-2.0657,1.0878-2.2607,2.2607C37,40.2173,37,45.8697,37,47c0,1.1304,0,6.7827,0.5651,10.174
			c0.195,1.1728,1.0873,2.0651,2.2607,2.2607C43.2172,60,48.87,60,50.0001,60s6.7828,0,10.1742-0.5653
			c1.1735-0.1956,2.0658-1.0879,2.2607-2.2607C63,53.7827,63,48.1304,63,47C63,43.607,63,40.2173,62.435,36.826z M58,48.5
			c0,0.2761-0.2239,0.5-0.5,0.5H52v5.5c0,0.2761-0.2239,0.5-0.5,0.5h-3c-0.2761,0-0.5-0.2239-0.5-0.5V49h-5.5
			c-0.2761,0-0.5-0.2239-0.5-0.5v-3c0-0.2761,0.2239-0.5,0.5-0.5H48v-5.5c0-0.2761,0.2239-0.5,0.5-0.5h3
			c0.2761,0,0.5,0.2239,0.5,0.5V45h5.5c0.2761,0,0.5,0.2239,0.5,0.5V48.5z"/>
	</g>
</g>
</svg>
