<svg height="64" viewBox="0 0 64 64" width="64" xmlns="http://www.w3.org/2000/svg"><path d="m0 0h64v64h-64z" fill="none"/><path d="m32.4481 36.7838c0 .7993.6165 1.3016 1.6893 1.3016.8905 0 1.5752-.1829 2.3516-.5935v-2.1233c-.4335-.0229-1.0275-.0459-1.484-.0459-1.8493 0-2.5569.594-2.5569 1.4611z"/><path d="m54.8868 4s-26.8329 0-33.8868 0c-6.9338 0-14 2.6875-14 9.9661v39.1923c0 4.0852 2.1243 6.8416 6 6.8416h33.8831c1.1691 0 2.1169-.9461 2.1169-2.1132v-41.7736c0-1.1671-.9478-2.1132-2.1169-2.1132-10.9956 0-21.9893 0-33.002 0-.912 0-1.3414-.8251-1.0179-1.7457 1.0118-2.8793 6.2618-3.2543 8.1368-3.2543h31v42h3c1.1046 0 2-.8954 2-2v-42.8868c0-1.1671-.9461-2.1132-2.1132-2.1132zm-20.9089 26.9171c-1.0958 0-2.0092.1824-3.2191.6847l-.3653-2.1687c1.3928-.5935 2.6027-.8676 4.0638-.8676 3.0363 0 4.5427 1.4382 4.5427 3.9721v7.4653h-2.4199v-.7305c-.9359.5935-1.8492.8676-3.1962.8676-2.3057 0-3.5839-1.2558-3.5839-3.1504 0-2.0775 1.5981-3.5386 5.1367-3.5386.5706 0 1.0729.0229 1.5522.0229v-.6393c.0001-1.2329-.7305-1.9175-2.511-1.9175zm-13.4962-5.9171h4.1386l4.4132 15h-3.1325l-.9603-3.4299h-5.1219l-.9602 3.4299h-2.8355z"/><path d="m22.4711 27.4237h-.1602l-1.9436 6.9512h3.979z"/></svg>