<?xml version="1.0" encoding="utf-8"?>
<!-- Generator: Adobe Illustrator 19.1.0, SVG Export Plug-In . SVG Version: 6.00 Build 0)  -->
<svg version="1.2" baseProfile="tiny" xmlns="http://www.w3.org/2000/svg" xmlns:xlink="http://www.w3.org/1999/xlink" x="0px"
	 y="0px" width="64px" height="64px" viewBox="0 0 64 64" xml:space="preserve">
<g id="_x36_4px_Box">
	<rect fill="none" width="64" height="64"/>
</g>
<g id="Icon">
	<g>
		<path d="M42.9516,36c-0.0004-0.0062-0.0001-0.0121-0.0005-0.0183c-0.3512-6.3717-6.5269-13.5938-10.3489-17.208
			c1.0096-0.3193,1.5781-1.369,1.5781-2.6284c0-1.512-0.8096-2.7377-2.2318-2.7377h-0.6354
			c0.8406-1.0117,2.4902-2.442,3.0151-3.6696c1.1143-2.606-1.6959-3.2546-5.5534-4.3235V2.3065
			c0-3.594-13.2744,1.3347-12.1617,5.2952c0.6542,2.3284,2.2119,4.5305,3.1124,5.8059h-0.6525
			c-1.4222,0-2.2318,1.2257-2.2318,2.7377c0,1.512,0.8096,2.7377,2.2318,2.7377h5.4523c0.019,0.0513,0.0614,0.2394-0.228,0.3322
			c-0.1848,0.0593-4.6376,0.8989-7.835,1.4987c-3.6725,3.8111-8.0961,9.9028-8.3918,15.2678
			c-0.3549,6.4387,2.3828,10.7177,2.3828,10.7177L8.072,50.5093C7.1223,52.0289,8.2148,54,10.0067,54H22V40.5
			c0-2.4814,2.0186-4.5,4.5-4.5H42.9516z"/>
		<path d="M55.5,39h-29c-0.8284,0-1.5,0.6716-1.5,1.5v19c0,0.8284,0.6716,1.5,1.5,1.5h29c0.8284,0,1.5-0.6716,1.5-1.5v-19
			C57,39.6716,56.3284,39,55.5,39z M53.6331,42l-12.6242,8.3545L28.3846,42H53.6331z M54,57.9584l-7.7655-5.8624
			c0,0-0.1544,0.0981-0.0156,0.2675C46.3576,52.5329,50.5776,58,50.5776,58H31.517c0,0,4.2138-5.4571,4.3519-5.6265
			c0.1381-0.1694-0.0081-0.2775-0.0081-0.2775L28,58V44.7525l12.3026,8.2035c0.2138,0.1416,0.46,0.2125,0.7063,0.2125
			c0.2462,0,0.4924-0.0709,0.7062-0.2125L54,44.7525V57.9584z"/>
	</g>
</g>
</svg>
