<svg height="64" viewBox="0 0 64 64" width="64" xmlns="http://www.w3.org/2000/svg"><path d="m0 0h64v64h-64z" fill="none"/><path d="m55 13h-6.9221l-1.7107 5.7498c-.1055.3252-.3672.2253-.3672.2253v-5.9751h-.0074c-.0145-1.2578-.057-3.3467-.1826-4.1211-.1088-.665-.2265-1.8789-1.1957-1.8789h-2.8555c-.9688 0-1.1763 1.228-1.2842 1.8936-.1255.7733-.2995 2.8526-.3982 4.1064h-15.9985l-1.7107 5.75c-.1055.3252-.3672.2251-.3672.2251v-5.9751h-.0074c-.0145-1.2578-.057-3.3467-.1826-4.1211-.1088-.665-.2265-1.8789-1.1957-1.8789h-2.8555c-.9688 0-1.1763 1.228-1.2842 1.8936-.1255.7733-.2995 2.8526-.3982 4.1064h-7.0764c-1.1045 0-2 .8955-2 2v40c0 1.1045.8955 2 2 2h46c1.1045 0 2-.8955 2-2v-40c0-1.1045-.8955-2-2-2zm-3 39h-40v-26h40z"/><path d="m29.3667 47.9986c.4021.5907 1.0196.9977 1.7343 1.0014h.0102c.7107 0 1.3539-.3829 1.7339-.9836 6.3856-10.0934 10.1683-15.9601 10.1683-15.9601.5341-.8936.3016-2.0469-.5373-2.6636-.8386-.6171-2.0093-.4947-2.7026.2812l-8.8431 9.9562-5.8304-5.1368c-.7471-.6473-1.8527-.6586-2.6125-.0277-.7606.6309-.9529 1.7194-.4547 2.5729 0 0 3.198 4.8845 7.3339 10.9601z"/></svg>