<?xml version="1.0" encoding="utf-8"?>
<!-- Generator: Adobe Illustrator 21.0.2, SVG Export Plug-In . SVG Version: 6.00 Build 0)  -->
<!DOCTYPE svg PUBLIC "-//W3C//DTD SVG 1.1//EN" "http://www.w3.org/Graphics/SVG/1.1/DTD/svg11.dtd">
<svg version="1.1" xmlns="http://www.w3.org/2000/svg" xmlns:xlink="http://www.w3.org/1999/xlink" x="0px" y="0px" width="64px"
	 height="64px" viewBox="0 0 64 64" style="enable-background:new 0 0 64 64;" xml:space="preserve">
<style type="text/css">
	.st0{fill:none;}
</style>
<g id="_x36_4px_Box">
	<rect class="st0" width="64" height="64"/>
</g>
<g id="Icon">
	<g>
		<path d="M42,27v-5l-5-7V9l-5-8l-5,8v6l-5,7v5h-2v20c0,0.6,0.4,1,1,1h7c0,0.1,0.1,0.3-0.2,0.4L22,49.5V63h20V48h1c0.6,0,1-0.4,1-1
			V27H42z M32,45.2c-4.3,0-7.7-3.5-7.7-7.7s3.5-7.7,7.7-7.7s7.7,3.5,7.7,7.7S36.3,45.2,32,45.2z"/>
		<path d="M33.1,36.6c0-0.6-0.2-3.3-0.3-3.7c0-0.5-0.4-0.8-0.8-0.8c-0.5,0-0.8,0.3-0.8,0.8c0,0.5-0.3,4-0.3,4.5
			c0,0.6,0.4,0.9,0.8,1.1c0.5,0.3,3.2,1.7,3.4,1.8c0.5,0.2,0.9,0.1,1.1-0.2c0.2-0.3,0.1-0.7-0.3-1C35.5,38.7,33.5,36.8,33.1,36.6z"
			/>
	</g>
</g>
</svg>
