<?xml version="1.0" encoding="utf-8"?>
<!-- Generator: Adobe Illustrator 21.0.2, SVG Export Plug-In . SVG Version: 6.00 Build 0)  -->
<!DOCTYPE svg PUBLIC "-//W3C//DTD SVG 1.1//EN" "http://www.w3.org/Graphics/SVG/1.1/DTD/svg11.dtd">
<svg version="1.1" xmlns="http://www.w3.org/2000/svg" xmlns:xlink="http://www.w3.org/1999/xlink" x="0px" y="0px" width="64px"
	 height="64px" viewBox="0 0 64 64" style="enable-background:new 0 0 64 64;" xml:space="preserve">
<style type="text/css">
	.st0{fill:none;}
</style>
<g id="_x36_4px_Box">
	<rect class="st0" width="64" height="64"/>
</g>
<g id="Icon">
	<g>
		<g>
			<path d="M41,40.7c-1-0.8-1-0.8-2.9,0c-0.7,0.3-1.5,0.7-2.6,1.1c-2.9,1.2-8.2,2.7-10.4-0.2c-0.6-0.8-0.9-1.8-0.6-2.8
				c0.2-1.2,1.1-2.2,2.3-2.8c1.8-0.9,3.3-1.9,4.6-2.7L29.5,32c-1.8-1.3-4.3-1.3-6.1,0c-0.9,0.6-2.2,1.8-4.3,1.1l-5.3-1.8L8.2,42.6
				c0,0,0.8,1.3,4.9,2.9c0.1-0.1,0.2-0.2,0.3-0.3l2.1-1.8c1.5-1.2,3.5-1.5,5.3-0.6c0.8,0.4,1.4,0.9,1.9,1.6c1.3-0.4,2.8-0.2,4.1,0.7
				c1.2,0.8,2,2,2.2,3.3c0.8,0.3,1.5,0.8,2.1,1.5c1.1,1.3,1.4,3.2,0.9,4.7c0.2,0.2,0.4,0.4,0.6,0.6c0.8,1,1.2,2.3,1.1,3.6
				c-0.1,0.9-0.4,1.7-0.9,2.4c2.5,1.8,5-0.8,5.2-2.5c2.2-0.2,3.4-1.4,3.6-3.8c2.1,0,4.1-1.5,3.8-3.9c2.3,0.4,4.1-2.1,3.5-3.7
				L41,40.7z M32,28c7.2,0,13-5.8,13-13c0-7.2-5.8-13-13-13S19,7.8,19,15C19,22.2,24.8,28,32,28z M39.6,22.8l-0.4-0.9l1-1.7l1.6-0.2
				C41.2,21,40.4,22,39.6,22.8z M33.3,4.2c4.8,0.6,8.6,4.2,9.4,8.8l-1.2,1.6l-1.4,0.7l-1.4-1.4l-0.8-1.4c0,0,1-1,0.7-1.5
				c-0.3-0.5-1.8,0.3-2.1-0.1c-0.3-0.5,0-2,0-2l-1.9-0.8c0,0-0.6,0-0.5,0.4c0.1,0.5,1.4,1.3,1.3,1.5c-0.1,0.2-0.4,0.1-0.4,0.1
				l-0.5,0.9l-1.1-0.2c0,0,0.8-0.3,0.9-0.6c0.1-0.3-1.2-1.4-1.2-1.4L32.3,9L32,10.4l-0.9,0.8l-1.2,0l0.1-0.6l-0.4,0L30.2,9l1.1,0.1
				c0,0,0.4-1.1,0.3-1.5c-0.2-0.7-0.9-0.8-0.9-1.1c0-0.3,0.8-0.3,1.2-0.7C32.2,5.7,32.8,4.8,33.3,4.2z M29.5,4.4
				c0.7-0.2,1.3-0.3,2-0.3l0.1,0.2c0,0-0.3,1.3-0.7,1.4c-0.4,0.1-1.6-0.6-1.6-0.6L29.5,4.4z M28.9,13.8c0.6-1.1,1.4-1.3,1.4-1.3
				l2.9-0.6l1.7,1l2.2,0.4l0.6,0.8l1,1.4l1.4,0.7l1.4-1.2c0,0-0.1,1.7-0.7,2.7c-0.6,1-2,1.8-2,1.8s-0.1,1-0.6,1.8
				c-0.2,0.3-0.7,0.5-0.9,0.8c-0.4,0.6-0.3,1.6-0.7,1.8c-0.8,0.4-1.8,0.6-2,0.4c-0.3-0.3-1-1.5-1-2v-3c0-0.5-0.7-1.8-0.7-1.8
				s-1.7,0-2.4,0c-0.7,0-1.6-0.9-1.6-0.9S28.3,15,28.9,13.8z M27.2,5.2L26,7.5c0,0-1.5,1.9-2.5,3c-0.5,0.5-1.2,0.9-1.8,1.1
				C22.6,8.8,24.6,6.5,27.2,5.2z M24.6,20.6V23c-1.8-1.7-3-3.9-3.4-6.4C22.5,17.4,24.6,19.1,24.6,20.6z M52.3,31.2L47,33
				c-2.1,0.7-3.4-0.5-4.3-1.1c-1.9-1.3-4.3-1.2-6.1,0c-1.8,1.3-4.6,3.6-8.9,5.8c-1.3,0.7-1.6,1.8-1,2.6c1.4,1.8,6,0.5,8.1-0.4
				c4.4-1.8,4.9-2.9,7.4-0.8l8.7,7c5.9-1.9,6.9-3.6,6.9-3.6L52.3,31.2z M29.1,55.4l0.4-0.3c1.1-0.9,1.1-2.8,0.2-3.9
				C29,50.5,28,50,27,50.1c0.9-2.9-2.6-4.9-4.4-3.4l-0.9,0.7c0-2.7-3-4-4.9-2.5l-2.1,1.8c-1.7,1.4-1.5,3.2-0.6,4.4
				c1,1.2,2.5,1.3,3.6,0.7c0,0.8,0.2,1.6,0.7,2.1c0.6,0.8,1.7,1.2,2.6,1.1c-0.3,0.9-0.1,2,0.6,2.8c0.7,0.9,2,1.3,3.1,1
				c-0.1,0.8,0.1,1.8,0.6,2.4c0.9,1.1,2.8,1.5,4.2,0.4l1-0.9c1.4-1.2,1.5-3.1,0.6-4.2C30.6,55.9,29.9,55.5,29.1,55.4z"/>
		</g>
	</g>
</g>
</svg>
