<?xml version="1.0" encoding="utf-8"?>
<!-- Generator: Adobe Illustrator 19.1.0, SVG Export Plug-In . SVG Version: 6.00 Build 0)  -->
<svg version="1.2" baseProfile="tiny" xmlns="http://www.w3.org/2000/svg" xmlns:xlink="http://www.w3.org/1999/xlink" x="0px"
	 y="0px" width="64px" height="64px" viewBox="0 0 64 64" xml:space="preserve">
<g id="_x36_4px_Box">
	<rect fill="none" width="64" height="64"/>
</g>
<g id="Icon">
	<g>
		<path d="M51.0859,11H16.5812c0,0,0.0593-0.3542,0.4624-0.4534C28.2717,7.7857,50,8,50,8s0-1.2669,0-2.3231
			C50,4.6207,48.9297,3.8842,48,4c0,0-36-0.0178-36,7c0,49.8679,0.08,37.8848,0.0856,45.9991
			c0.0011,1.6569,1.3408,3.0009,2.9977,3.0009C22.8146,60,43.3599,60,51.0892,60C52.7461,60,54,58.6569,54,57V14
			C54,12.3431,52.7427,11,51.0859,11z M33,50.1c-8.3395,0-15.1-6.7605-15.1-15.1c0-8.3395,6.7604-15.1,15.1-15.1
			S48.1,26.6605,48.1,35C48.1,43.3395,41.3395,50.1,33,50.1z"/>
		<path d="M27.8046,23.9185C23.9268,25.7401,21.163,29.5255,20.8005,34h4.2265C25.1742,29.9199,26.2163,26.361,27.8046,23.9185z"/>
		<path d="M34.2546,22.8135C34.1709,22.805,34.0842,22.8073,34,22.8005V34h4.9748C38.7557,28.5519,36.7737,23.9843,34.2546,22.8135z
			"/>
		<path d="M38.1954,23.9185C39.7837,26.361,40.8258,29.9199,40.973,34h4.2265C44.837,29.5255,42.0732,25.7401,38.1954,23.9185z"/>
		<path d="M27.0252,34H32V22.8005c-0.0842,0.0068-0.1709,0.0045-0.2546,0.0131C29.2263,23.9843,27.2443,28.5519,27.0252,34z"/>
		<path d="M20.8005,36c0.3625,4.4745,3.1263,8.2599,7.0041,10.0815C26.2163,43.639,25.1742,40.0801,25.027,36H20.8005z"/>
		<path d="M34,36v11.1995c0.0842-0.0068,0.1709-0.0045,0.2546-0.0131c2.519-1.1708,4.5011-5.7383,4.7202-11.1865H34z"/>
		<path d="M38.1954,46.0815C42.0732,44.2599,44.837,40.4745,45.1995,36H40.973C40.8258,40.0801,39.7837,43.639,38.1954,46.0815z"/>
		<path d="M31.7454,47.1865c0.0837,0.0085,0.1704,0.0062,0.2546,0.0131V36h-4.9748C27.2443,41.4481,29.2263,46.0157,31.7454,47.1865
			z"/>
	</g>
</g>
</svg>
