<?xml version="1.0" encoding="utf-8"?>
<!-- Generator: Adobe Illustrator 19.1.0, SVG Export Plug-In . SVG Version: 6.00 Build 0)  -->
<svg version="1.2" baseProfile="tiny" xmlns="http://www.w3.org/2000/svg" xmlns:xlink="http://www.w3.org/1999/xlink" x="0px"
	 y="0px" width="64px" height="64px" viewBox="0 0 64 64" xml:space="preserve">
<g id="Box">
	<rect fill="none" width="64" height="64"/>
</g>
<g id="Icon">
	<g>
		<path d="M42.2115,22.5208l0.5902-2.0663l-2.2469,0.1703c-0.2195,0.0037-0.3657-0.1553-0.399-0.2924l-0.2885-1.0491l-1.777,1.7504
			c-0.2527,0.2842-0.7647,0.2154-0.6052-0.4992l0.759-3.9271l-1.0183,0.3904c-0.2858,0.1208-0.5718,0.1087-0.7314-0.1978
			l-1.407-2.8124l-1.4064,2.4341c-0.1597,0.2636-0.4456,0.1987-0.7315,0.001l-1.0182-0.6642l0.7589,4.1312
			c0.1596,0.7576-0.3524,0.6887-0.6051,0.3364l-1.777-2.2283l-0.2884,0.9715c-0.0333,0.1282-0.1796,0.2478-0.399,0.1851
			l-2.247-0.7746l0.5901,2.2251c0.1264,0.4944,0.225,0.7053-0.1275,0.7839l-0.801,0.2687l3.8681,3.662
			c0.1531,0.1394,0.2305,0.3636,0.176,0.5499l-0.3386,1.0654c1.324,0.0255,2.5119-0.0435,3.835-0.0081
			c0.0605,0.0217,0.1733,0.1566,0.1752,0.207l-0.189,4.3311l0.9917,0.1338l-0.1104-4.3984c0-0.0406,0.0697-0.1205,0.1057-0.1378
			c0.0091-0.0001,0.0193-0.006,0.0279-0.004c1.3324,0.3215,2.5257,0.7129,3.8575,1.0455l-0.3386-1.1565
			c-0.0544-0.2009,0.0229-0.4043,0.176-0.5024l3.868-2.6219l-0.8009-0.4841C41.9866,23.1656,42.0852,22.9813,42.2115,22.5208z"/>
		<path d="M58.1072,8.0065c-0.0473-0.728-0.8305-1.1682-1.4694-0.816C54.687,8.2659,50.7977,10,46,10c-6.9543,0-8.7588-4-16.691-4
			C23.5059,6,16.3996,9.2092,13,10.9331V8h1c1.1046,0,2-0.8954,2-2V4.5262c0-0.9318-0.6419-1.7349-1.5487-1.9489
			C13.2949,2.3044,11.6379,2,10,2S6.7051,2.3044,5.5487,2.5773C4.6419,2.7913,4,3.5945,4,4.5262V6c0,1.1046,0.8954,2,2,2h1v55h6
			c0-11.463,0-34.4201,0-34.4201c0.0562-0.0209,0.3068-0.0782,0.3641,0.2499c0.0477,0.2728,1.7739,11.2773,1.8895,12.0154
			C19.0034,39.1245,24.5886,37,29.309,37c7.9323,0,9.7367,4,16.691,4c5.1935,0,10.438-2.1556,12.7609-3.2472
			c0.7477-0.3514,1.2065-1.1192,1.153-1.9437L58.1072,8.0065z M46,38c-2.7402,0-4.4258-0.73-6.5586-1.6543
			C36.9043,35.2461,34.0273,34,29.3086,34c-1.3045,0-2.6921,0.1588-4.1069,0.4133l-0.9539-24.673
			C25.9768,9.2947,27.7166,9,29.3086,9c3.4746,0,5.4551,0.8579,7.748,1.8516c2.2013,0.9536,4.6959,2.0159,8.337,2.1268
			l1.3021,24.9889C46.4637,37.9771,46.2313,38,46,38z"/>
	</g>
</g>
</svg>
