<?xml version="1.0" encoding="utf-8"?>
<!-- Generator: Adobe Illustrator 19.1.0, SVG Export Plug-In . SVG Version: 6.00 Build 0)  -->
<svg version="1.2" baseProfile="tiny" xmlns="http://www.w3.org/2000/svg" xmlns:xlink="http://www.w3.org/1999/xlink" x="0px"
	 y="0px" width="64px" height="64px" viewBox="0 0 64 64" xml:space="preserve">
<g id="_x36_4px_Box">
	<rect fill="none" width="64" height="64"/>
</g>
<g id="Icon">
	<g>
		<path d="M32,8C18.7452,8,8,18.7452,8,32s10.7452,24,24,24s24-10.7452,24-24S45.2548,8,32,8z M32,51.1
			c-10.5486,0-19.1-8.5513-19.1-19.1S21.4514,12.9,32,12.9S51.1,21.4514,51.1,32S42.5486,51.1,32,51.1z"/>
		<path d="M32,17c-8.2842,0-15,6.7157-15,15s6.7158,15,15,15c8.2843,0,15-6.7157,15-15S40.2843,17,32,17z M32,42.1
			c-5.5781,0-10.1-4.5219-10.1-10.1S26.4219,21.9,32,21.9c5.5781,0,10.1,4.5219,10.1,10.1S37.5781,42.1,32,42.1z"/>
		<circle cx="32" cy="32" r="6"/>
	</g>
</g>
</svg>
