<?xml version="1.0" encoding="utf-8"?>
<!-- Generator: Adobe Illustrator 24.1.3, SVG Export Plug-In . SVG Version: 6.00 Build 0)  -->
<svg version="1.1" xmlns="http://www.w3.org/2000/svg" xmlns:xlink="http://www.w3.org/1999/xlink" x="0px" y="0px"
	 viewBox="0 0 64 64" style="enable-background:new 0 0 64 64;" xml:space="preserve">
<style type="text/css">
	.st0{fill:none;}
	.st1{fill:#FF1D25;}
	.st2{fill:#1D1D1B;}
</style>
<g id="Box">
	<rect class="st0" width="64" height="64"/>
</g>
<g id="Icon">
	<path d="M43,22H29.39l4.7-8.2c0.8-1.4,0.49-3.16-0.73-4.21c-1.22-1.05-3.01-1.09-4.27-0.09L10.28,24.36C9.47,25,9,25.97,9,27
		s0.47,2,1.28,2.64L29.1,44.5c1.26,1,3.05,0.96,4.27-0.09c1.22-1.05,1.52-2.81,0.73-4.21l-4.7-8.2H43c1.1,0,2,0.9,2,2v17.28
		c0,2.72,2.35,3.53,5,3.53c2.65,0,5-0.81,5-3.53V34C55,27.37,49.63,22,43,22z"/>
</g>
</svg>
