<?xml version="1.0" encoding="utf-8"?>
<!-- Generator: Adobe Illustrator 24.1.3, SVG Export Plug-In . SVG Version: 6.00 Build 0)  -->
<svg version="1.1" xmlns="http://www.w3.org/2000/svg" xmlns:xlink="http://www.w3.org/1999/xlink" x="0px" y="0px"
	 viewBox="0 0 64 64" style="enable-background:new 0 0 64 64;" xml:space="preserve">
<style type="text/css">
	.st0{fill:none;}
	.st1{fill:#FF1D25;}
	.st2{fill:#1D1D1B;}
</style>
<g id="Box">
	<rect class="st0" width="64" height="64"/>
</g>
<g id="Icon">
	<path d="M53.72,24.36L34.9,9.5c-1.26-1-3.05-0.96-4.27,0.09c-1.22,1.05-1.52,2.81-0.73,4.21l4.7,8.2H21c-6.63,0-12,5.37-12,12
		v17.28c0,2.72,2.35,3.53,5,3.53c2.65,0,5-0.81,5-3.53V34c0-1.1,0.9-2,2-2h13.61l-4.7,8.2c-0.8,1.4-0.49,3.16,0.73,4.21
		c1.22,1.05,3.01,1.09,4.27,0.09l18.82-14.86C54.53,29,55,28.03,55,27S54.53,25,53.72,24.36z"/>
</g>
</svg>
