<?xml version="1.0" encoding="utf-8"?>
<!-- Generator: Adobe Illustrator 18.1.0, SVG Export Plug-In . SVG Version: 6.00 Build 0)  -->
<svg version="1.2" baseProfile="tiny" xmlns="http://www.w3.org/2000/svg" xmlns:xlink="http://www.w3.org/1999/xlink" x="0px"
	 y="0px" width="64px" height="64px" viewBox="0 0 64 64" xml:space="preserve">
<g id="_x36_4px_Boxes">
	<rect fill="none" width="64" height="64"/>
</g>
<g id="Label">
</g>
<g id="Production">
	<g>
		<path d="M19.9604,32.8746v-2.5293c-0.7181,0.7426-1.2123,1.5622-1.5261,2.5293H19.9604z"/>
		<path d="M27.5173,18.981c-0.9119,0-1.525,0.8944-1.525,2.2256c0,1.4257,0.5037,2.119,1.5403,2.119
			c0.9263,0,1.525-0.8917,1.525-2.2713C29.0577,19.6784,28.5397,18.981,27.5173,18.981z"/>
		<path d="M19.7627,19.3044c-0.7182,0.7426-1.2123,1.5622-1.5261,2.5293h1.5261V19.3044z"/>
		<path d="M52,12h-4.0272C44.3233,7.1503,38.5369,4,32,4c-6.5369,0-12.3233,3.1503-15.9728,8H12c-0.5523,0-1,0.4477-1,1v11v35h24
			v-9.6319c3.3571-0.3214,4.8445-4.1743,4.9531-4.5c0.0782-0.2344,0.0313-0.3125-0.0594-0.2984
			c-1.1123,1.1734-3.2491,3.2856-5.1436,2.7984c-1.25-0.3214-0.9868-3.4188-0.3571-4.5995
			c0.2857-0.5356,0.6456-0.8795,1.2453-1.0089C37.75,41.3043,42.3214,40.84,45,40.84c0.5714,0,1,0.4477,1,1V59h7V24V13
			C53,12.4477,52.5523,12,52,12z M16.2108,22.4335c0.3079-2.1843,1.6688-4.231,3.6418-5.4763l0.0663-0.0419h2.1625v4.9184h0.8679
			v1.9597h-0.8679v1.3705h-2.2188v-1.3705h-3.2644l-0.396-1.3005L16.2108,22.4335z M23.047,34.8343h-0.8679v1.3705h-2.2188v-1.3705
			H16.696L16.3,33.5338l0.0085-0.0594c0.3079-2.1843,1.6689-4.231,3.6418-5.4763l0.0663-0.0419h2.1625v4.9184h0.8679V34.8343z
			 M26.0475,36.1715H24.771v-1.9597h1.353c0.619,0,2.0579-0.0939,2.0579-0.9618c0-0.5271-0.5079-0.7941-1.5096-0.7941
			c-0.4559,0-0.9634,0.026-1.4661,0.0754l-0.2983,0.0287v-4.7438h5.188v2.0356h-3.274v0.7521
			c0.1752-0.0096,0.3281-0.0165,0.5356-0.0165c2.7273,0,3.1344,1.525,3.1344,2.4343
			C30.4919,35.0234,28.8719,36.1715,26.0475,36.1715z M27.426,25.3309c-2.3403,0-3.6827-1.4698-3.6827-4.033
			c0-2.5043,1.6322-4.3223,3.8807-4.3223c2.2719,0,3.6827,1.5515,3.6827,4.0484C31.3068,23.8516,29.3544,25.3309,27.426,25.3309z
			 M41.3047,38.8455c0.3335-0.5303,0.6453-1.222,0.6453-1.9884c0-1.6568-1.45-3-1.45-3s-1.45,1.3432-1.45,3
			c0,0.8136,0.35,1.5491,0.7059,2.0895c-1.7023-0.1785-3.2622-1.3315-3.6765-3.7141c-0.6534-3.7587,2.8911-8.9766,4.4291-10.4325
			c0.269,5.1554,3.1209,4.4139,4.3892,8.4909C45.4736,36.3022,43.5257,38.3408,41.3047,38.8455z"/>
	</g>
</g>
</svg>
