<?xml version="1.0" encoding="utf-8"?>
<!-- Generator: Adobe Illustrator 19.2.0, SVG Export Plug-In . SVG Version: 6.00 Build 0)  -->
<svg version="1.0" xmlns="http://www.w3.org/2000/svg" xmlns:xlink="http://www.w3.org/1999/xlink" x="0px" y="0px"
	 viewBox="0 0 64 64" enable-background="new 0 0 64 64" xml:space="preserve">
<g id="achtergrond">
</g>
<g id="paneel_1">
	<g>
		<path d="M20.6581,6.754c-0.4212-0.5566-1.0734-0.8913-1.7719-0.9092c-0.6982-0.018-1.3667,0.2828-1.8159,0.8168L6.9568,18.6663
			c-0.7224,0.8558-0.7216,2.1077,0.0017,2.9635c0.7231,0.8531,1.9563,1.0661,2.9214,0.4956l5.1661-3.0447l0.0241,36.6146
			c0,1.9097,1.5473,2.3047,3.4571,2.3047s3.4572-0.395,3.4572-2.3047l-0.0078-36.4775l5.0676,3.3489
			c0.9361,0.6178,2.177,0.4685,2.9431-0.3448c0.7662-0.8175,0.8313-2.0675,0.1538-2.9594L20.6581,6.754z"/>
	</g>
	<rect x="38" y="10" width="20" height="8"/>
	<rect x="42" y="22" width="16" height="8"/>
	<rect x="46" y="34" width="12" height="8"/>
	<rect x="50" y="46" width="8" height="8"/>
</g>
</svg>
