<?xml version="1.0" encoding="utf-8"?>
<!-- Generator: Adobe Illustrator 18.1.0, SVG Export Plug-In . SVG Version: 6.00 Build 0)  -->
<svg version="1.2" baseProfile="tiny" xmlns="http://www.w3.org/2000/svg" xmlns:xlink="http://www.w3.org/1999/xlink" x="0px"
	 y="0px" width="64px" height="64px" viewBox="0 0 64 64" xml:space="preserve">
<g id="_x36_4px_Boxes">
	<rect fill="none" width="64" height="64"/>
</g>
<g id="Production">
	<g>
		<path d="M55.2133,32.6649L32,49.43L8.7867,32.6649l-3.7364,2.7798c-0.4271,0.3177-0.4271,0.9728,0,1.2906l25.7433,19.1528
			c0.7202,0.5358,1.6926,0.5358,2.4128,0l25.7433-19.1528c0.4271-0.3177,0.4271-0.9729,0-1.2906L55.2133,32.6649z"/>
		<path d="M30.7936,44.7981c0.7202,0.5358,1.6926,0.5358,2.4128,0l25.7433-19.1528c0.4271-0.3177,0.4271-0.9728,0-1.2906
			L33.2064,5.2018c-0.7202-0.5358-1.6926-0.5358-2.4128,0L5.0503,24.3547c-0.4271,0.3177-0.4271,0.9729,0,1.2906L30.7936,44.7981z"
			/>
	</g>
</g>
</svg>
