<?xml version="1.0" encoding="utf-8"?>
<!-- Generator: Adobe Illustrator 19.1.0, SVG Export Plug-In . SVG Version: 6.00 Build 0)  -->
<svg version="1.2" baseProfile="tiny" xmlns="http://www.w3.org/2000/svg" xmlns:xlink="http://www.w3.org/1999/xlink" x="0px"
	 y="0px" width="64px" height="64px" viewBox="0 0 64 64" xml:space="preserve">
<g id="_x36_4px_Box">
	<rect fill="none" width="64" height="64"/>
</g>
<g id="Icon">
	<g>
		<path d="M56.9167,12.9498c-0.4363-0.5455-1.0972-0.8629-1.7949-0.8622l-15.697,0.0034c-1.1199-0.0008-2.0767,0.8066-2.2649,1.9112
			c-0.1863,1.1027,0.4456,2.1829,1.5038,2.5533l5.6575,1.9879l-8.5238,7.9792c-2.3699,2.2192-3.7294,5.3544-3.7294,8.6011v20.5716
			C32.068,57.605,33.6154,58,35.5251,58c1.9097,0,3.457-0.395,3.457-2.3047V35.1237c0-1.3414,0.5615-2.6367,1.5406-3.5539
			l8.16-7.6386l0.7051,6.033c0.131,1.114,1.0449,1.9666,2.1604,2.0282c1.1189,0.0591,2.1167-0.6967,2.3621-1.7896l3.4529-15.3123
			C57.5176,14.2097,57.353,13.4953,56.9167,12.9498z"/>
		<path d="M20.6581,6.754c-0.4211-0.5566-1.0734-0.8912-1.7719-0.9092c-0.6982-0.018-1.3667,0.2828-1.8159,0.8168L6.9568,18.6663
			c-0.7224,0.8558-0.7216,2.1077,0.0017,2.9635c0.7231,0.8531,1.9563,1.0662,2.9214,0.4957l5.1661-3.0447l0.024,36.6146
			c0,1.9097,1.5474,2.3047,3.4572,2.3047s3.4572-0.395,3.4572-2.3047l-0.0078-36.4774l5.0676,3.3489
			c0.9362,0.6178,2.177,0.4684,2.9431-0.3448c0.7662-0.8174,0.8313-2.0675,0.1538-2.9594L20.6581,6.754z"/>
	</g>
</g>
</svg>
