<svg height="64" viewBox="0 0 64 64" width="64" xmlns="http://www.w3.org/2000/svg"><path d="m0 0h64v64h-64z" fill="none"/><path d="m26.7822 13.948 7.1694-5.8982c1.607-1.3218 3.6378-2.0498 5.7183-2.0498h12.3301v-4h-12.3301c-3.0054 0-5.9385 1.0518-8.2593 2.9609l-8.5205 7.0098h.3677c1.5863 0 2.844.7595 3.5244 1.9773z"/><path d="m22.7454 29.7049s1.2109-.4612 1.2109-1.1724c0-.357-.0007-3.5056-2.4104-3.5163l.0005-.001h-.0121c-1.08 0-15.8496 0-16.9296 0h-.0122l.0005.001c-2.4097.0107-2.4104 3.1593-2.4104 3.5163 0 .7112 1.2109 1.1724 1.2109 1.1724s2.4099 1.1724 9.676 1.1724c7.2659 0 9.6759-1.1724 9.6759-1.1724z"/><path d="m5.241 22.9565h15.5171s.009-1.9581-.0608-4.4376c3.9314-.494 4.3717-.7727 4.3717-2.3666 0-1.0944-.5824-1.9816-1.881-1.9816h-2.6945c-.1047-1.4873-.2504-2.9898-.454-4.0381-.3302-1.7007-1.5356-3.0793-2.9113-3.4508-1.0502-.2836-2.4269-.5203-4.1288-.5203-1.702 0-3.0786.2367-4.1289.5203-1.3755.3715-2.5811 1.7501-2.9113 3.4508-.2035 1.0483-.3492 2.5508-.454 4.0381h-2.6943c-1.2985 0-1.881.8872-1.881 1.9816 0 1.5939.5281 1.8882 4.3716 2.3706-.0697 2.4776-.0605 4.4336-.0605 4.4336z"/><path d="m47 32.7998c1.4878 0 3.2439.025 5 .0992v-15.899h-13.9382v9h-10v9h-10v9h-10v9h22.798c-.045-1.4144-.0599-2.7951-.0599-4 0-3.2148.106-7.6812.6084-10.6997.418-2.5083 2.3838-4.4741 4.8921-4.8916 3.0184-.5029 7.4843-.6089 10.6996-.6089z"/><path d="m59.4351 38.826c-.1951-1.1729-1.0874-2.0652-2.2607-2.2607-3.3914-.5653-9.0443-.5653-10.1744-.5653-1.13 0-6.7827 0-10.1742.5654-1.1735.1955-2.0658 1.0878-2.2607 2.2607-.5651 3.3912-.5651 9.0436-.5651 10.1739 0 1.1304 0 6.7827.5651 10.174.1949 1.1728 1.0873 2.0651 2.2607 2.2607 3.3915.5653 9.0442.5653 10.1742.5653 1.1301 0 6.783 0 10.1743-.5653 1.1733-.1956 2.0657-1.0879 2.2607-2.2607.565-3.3913.565-9.0436.565-10.174 0-3.393 0-6.7827-.5649-10.174zm-5.7176 14.0631c.1953.1953.1953.5118 0 .7071l-2.1213 2.1213c-.1953.1953-.5118.1953-.707 0l-3.8892-3.8891-3.8892 3.8891c-.1952.1953-.5117.1953-.707 0l-2.1213-2.1213c-.1953-.1953-.1953-.5118 0-.7071l3.8891-3.8891-3.8892-3.8891c-.1953-.1953-.1953-.5118 0-.7071l2.1213-2.1213c.1953-.1953.5118-.1953.707 0l3.8893 3.8891 3.8892-3.8891c.1952-.1953.5117-.1953.707 0l2.1213 2.1213c.1953.1953.1953.5118 0 .7071l-3.8891 3.8891z"/></svg>