<svg enable-background="new 0 0 64 64" viewBox="0 0 64 64" xmlns="http://www.w3.org/2000/svg"><path d="m0 0h64v64h-64z" fill="none"/><path d="m8.5 16.8c2.2 0 3.5-1.6 3.5-3.8 0-2.6-1.3-4-3.5-4-2.3 0-3.5 1.6-3.5 4s1.3 3.8 3.5 3.8z"/><path d="m12.5 18.6c-2.4-.6-5.7-.6-8 0-4.6 1.1-4.4 8.8-4.4 15.1.2 2.2 1.8 2.8 2.8 2.8 0-.1 0-1.2 0-2.2 0-.5 0-3.3 0-3.6 0-2.7.5-5.6.8-6.6.1-.3.3-.2.3-.2v12 18.1s3.3 0 3.6-3.7c0 0 .5-14 .5-14.1 0-.2.1-.4.4-.4s.4.2.4.4.5 14 .5 14c.2 3.8 3.6 3.8 3.6 3.8v-18.2-12s.2-.1.3.2c.3.9.8 3.8.8 6.5v3.9 2c1 0 2.6-.6 2.8-2.8 0-6.2.3-13.9-4.4-15z"/><path d="m55.5 16.8c2.2 0 3.5-1.6 3.5-3.8 0-2.6-1.3-4-3.5-4-2.3 0-3.5 1.6-3.5 4s1.3 3.8 3.5 3.8z"/><path d="m59.5 18.6c-2.4-.6-5.7-.6-8 0-4.6 1.1-4.4 8.8-4.4 15.1.2 2.2 1.8 2.8 2.8 2.8 0-.1 0-1.2 0-2.2 0-.5 0-3.3 0-3.6 0-2.7.5-5.6.8-6.6.1-.3.3-.2.3-.2v12 18.1s3.3 0 3.6-3.7c0 0 .5-14 .5-14.1 0-.2.1-.4.4-.4s.4.2.4.4.5 14 .5 14c.2 3.8 3.6 3.8 3.6 3.8v-18.2-12s.2-.1.3.2c.3.9.8 3.8.8 6.5v3.9 2c1 0 2.6-.6 2.8-2.8 0-6.2.3-13.9-4.4-15z"/><path d="m24.6 26.9c.2-.2.2-.7-.1-.9-.2-.3-.6-.3-.9-.1l-4.9 4c-.4.3-.4.9 0 1.2l5 4c.2.2.7.1.9-.1.1-.1.2-.3.2-.5 0-.1 0-.3-.2-.5l-1.4-2.1h3.8v-2.9h-3.8z"/><path d="m31.4 29h-2.4v2.9h2.4 1.2 2.4v-2.9h-2.4z"/><path d="m40.4 25.9c-.3-.2-.7-.2-.9.1-.3.2-.3.7-.1.9l1.4 2.1h-3.8v2.9h3.8l-1.4 2.1c-.2.2-.2.4-.2.5 0 .2.1.4.2.5.2.2.7.3.9.1l5-4c.4-.3.4-.9 0-1.2z"/></svg>