<svg height="64" viewBox="0 0 64 64" width="64" xmlns="http://www.w3.org/2000/svg"><path d="m0 0h64v64h-64z" fill="none"/><path d="m32 16c4.4343 0 7-3.0244 7-7.3789 0-4.9605-2.6819-7.6211-7-7.6211-4.5496 0-7 3.145-7 7.6211 0 4.7178 2.5667 7.3789 7 7.3789z"/><path d="m45.8462 25.837c-3.085-4.7851-6.4834-6.9856-10-7.5735-2.062-.3448-5.5523-.3579-7.6924 0-3.5166.5879-6.915 2.7884-10 7.5735-3.769 5.8457-6.1894 11.6006-6.1894 11.6006 4.2036 2.7028 8.8742-6.027 12.0356-9.5323v6.339c1.0742-.18 1.1927-1.2443 2.4617-1.2443 1.3845 0 1.3845 1.2812 2.769 1.2812 1.3848 0 1.3848-1.2812 2.7693-1.2812s1.3845 1.2812 2.7693 1.2812c1.3845 0 1.3845-1.2812 2.769-1.2812 1.269 0 1.3875 1.0643 2.4617 1.2443v-6.339c3.1614 3.5053 7.832 12.2351 12.0356 9.5323 0 0-2.4204-5.7549-6.1894-11.6006z"/><path d="m34.231 45.0771 5.4511 4.2579s-3.0058 3.8828-3.83 5.4716c-2.5171 4.8497 1.498 7.1934 1.498 7.1934 6.8945-6.7549 9.5703-10.4512 9.6069-13.3809.0362-2.9248-6.2978-10.6035-6.2978-10.6035-3.2373.8174-6.4058 3.0117-6.4282 7.0615z"/><path d="m23.3408 38.0156s-6.334 7.6787-6.2978 10.6035c.0366 2.9297 2.7124 6.626 9.6069 13.3809 0 0 4.0151-2.3437 1.498-7.1934-.8242-1.5888-3.83-5.4716-3.83-5.4716l5.4511-4.2579c-.0224-4.0498-3.1909-6.2441-6.4282-7.0615z"/></svg>