<svg height="64" viewBox="0 0 64 64" width="64" xmlns="http://www.w3.org/2000/svg"><path d="m0 0h64v64h-64z" fill="none"/><circle cx="8.5" cy="9.0349" r="3.2083"/><circle cx="25.5" cy="9.0349" r="3.2083"/><circle cx="38.5" cy="9.0349" r="3.2083"/><circle cx="55.5" cy="9.0349" r="3.2083"/><path d="m48.7585 35.3732c.6555-.0956 1.4364-.4165 1.8035-1.3799.6904-1.8125.4495-7.9102.0627-10-.3232-1.7471-.4945-2.99-5.6248-2.99-3.9603 0-4.9626.7417-5.3641 1.8842.0527.2063.0999.4213.1414.6462l.0107.0591c.3218 1.738.7671 8.162-.0807 10.8989.4088.5782 1.0098.8051 1.5341.8816l.7588 10.6267h-7.0001l.7586-10.6268c.6555-.0956 1.4363-.4166 1.8034-1.3799.6904-1.8125.4495-7.9102.0627-10-.3232-1.7471-.4945-2.99-5.6248-2.99-5.1287 0-5.3011 1.2408-5.6248 2.99-.3867 2.0898-.6277 8.1875.0627 10 .3671.9633 1.1479 1.2843 1.8033 1.3799l.759 10.6268h-7.0001l.7585-10.6268c.5243-.0765 1.1253-.3034 1.5342-.8816-.8473-2.736-.402-9.1608-.0803-10.8989.045-.2438.0972-.4744.1547-.6965-.3991-1.1465-1.3964-1.893-5.3671-1.893-5.1287 0-5.3011 1.2408-5.6248 2.99-.3867 2.0898-.6277 8.1875.0627 10 .3671.9634 1.1479 1.2843 1.8035 1.3799l.7587 10.6269h-10.0001v4h52v-4h-10z"/><circle cx="19" cy="15.4533" r="3.45"/><circle cx="45" cy="15.4533" r="3.45"/><circle cx="32" cy="15.4533" r="3.45"/><path d="m11 55h42v4h-42z"/><path d="m13 37h-1.75l.1551-2.178c-.0065-.0165-.0164-.0289-.0228-.0456-.9727-2.5532-.5029-9.3848-.1699-11.1836.3753-2.0345 1.1683-3.2992 2.7205-4.0147-.0624-1.129-.1623-2.1328-.2768-2.7515-.2963-1.6014-.4533-2.75-5.1561-2.75-4.7012 0-4.8593 1.1467-5.156 2.75-.3545 1.9157-.5754 7.5052.0575 9.1667.3365.8831 1.0523 1.1773 1.6532 1.265l.6954 9.7417h-4.7501v4h12z"/><path d="m58.25 37 .6953-9.7418c.6009-.0876 1.3167-.3818 1.6532-1.265.6329-1.6614.412-7.251.0575-9.1667-.2963-1.6014-.4533-2.75-5.156-2.75-4.7013 0-4.8594 1.1467-5.1561 2.75-.1143.6179-.2142 1.6198-.2766 2.7471 1.5499.7092 2.3401 1.9592 2.71 3.96l.0107.0591c.333 1.7988.8027 8.6294-.1704 11.1836-.0065.017-.0161.0304-.0226.0472l.1551 2.1765h-1.7501v4h12v-4z"/></svg>