<svg enable-background="new 0 0 64 64" height="64" viewBox="0 0 64 64" width="64" xmlns="http://www.w3.org/2000/svg"><path d="m0 0h64v64h-64z" fill="none"/><path d="m49.8 25.5c-4.7 1.3-10.1 2.8-14.4 4.2-7.5 2.5-13.7 6.4-18.4 10.5 1.4 3 2.4 5.9 2.6 8.5.2 2.8-1.9 11.2-1.9 11.2h22.3l-.1-5.9-5.5-2.8c-.3-.2-.2-.4-.2-.4s5.3 1.3 8.8 1.4 6.6-2.7 7.5-7c.9-4.1 1.4-8.1 1.4-8.1s1.7-.5 2.7-1.2 1.3-2 .7-2.9c-.6-.7-5-6.8-5.5-7.5zm5 3.2 4.3-5.7c-1.7.4-4.2 1.1-7.1 1.8zm-20.1-1.1c7.8-2.6 18.8-5.4 23.6-6.6l-9-7.2s-7.3-16.6-24.8-11.6c-14.2 4-14.7 22.7-14.7 22.7s-10.8 23.2-6.6 30.9c.1-.5.2-1.1.4-1.7 2.2-7.2 13.7-20.7 31.1-26.5zm-19.5 14.2c-5.3 4.9-8.5 9.9-9.5 13-.4 1.4-.3 2.2-.1 2.4 1.3 1.7 6.2.4 11.1-2.9.4-2.2.8-4.4.7-5.4-.2-2-1.1-4.5-2.2-7.1z"/></svg>