<svg height="64" viewBox="0 0 64 64" width="64" xmlns="http://www.w3.org/2000/svg"><path d="m0 0h64v64h-64z" fill="none"/><path d="m39.9233 43.0499c-.0819-.6046-.203-1.4141-.3849-2.5214 1.3718-1.5793 2.4454-3.5885 3.0804-5.893 1.6874-.7537 2.9597-2.4614 3.2905-4.6006.2886-1.8645-.2029-3.6248-1.2149-4.8873.2632-10.6761-3.4082-14.137-3.4082-14.137.7793-1.5701 2.4678-2.6936 2.4678-2.6936-5.2603-.9557-7.9879 1.3965-7.9879 1.3965-4.8057-3.5499-11.4948-2.3211-11.4948-2.3211 1.2988 1.2971 1.8833 2.6624 1.8833 2.6624-8.7021 3.8229-8.2476 9.8304-8.2476 9.8304s1.2988-1.024 2.0132-1.2288c0 0-.6594 2.978-.5361 6.3999-1.0637 1.2678-1.5894 3.0676-1.2937 4.9786.3309 2.1392 1.6035 3.8469 3.2907 4.6006.6344 2.3019 1.7062 4.3094 3.0757 5.8879-.1868 1.137-.3094 1.9601-.3915 2.5704-8.0072 2.4043-11.9111 8.5612-11.9111 15.9062h39.8458c0-7.3942-3.9598-13.5809-12.0767-15.9501zm-16.0394-11.1035c-1.3943.4841-2.5915-.8376-2.8286-2.3701-.2444-1.5802.515-3.0463 1.7089-3.2747.4505-.0863.8972.0174 1.2916.2634 0-.7797.0443-1.5792.1318-2.3747 3.1117-.6354 5.2142-1.9158 5.2142-1.9158-.1948 1.7067-1.2339 3.6765-1.2339 3.6765 4.611-.5461 7.5333-5.3832 7.5333-5.3832.5845 2.3893 2.0781 3.9595 2.0781 3.9595.5881-1.1713 1.2018-1.8837 1.6873-2.3182.338 1.4303.4775 2.9365.4775 4.3559.3952-.2465.8421-.3495 1.2917-.2634 1.1937.2283 1.9533 1.6945 1.7088 3.2747-.235 1.5198-1.4287 2.8576-2.8285 2.3701-.8531 6.105-5.1593 10.4013-9.822 9.0391 1.5977 3.1565 4.3975 2.9136 6.5522 1.7244.1917 1.2911.2444 1.884.2444 2.1421 0 2.4785-2.1426 4.2773-5.0938 4.2773s-5.0938-1.7988-5.0938-4.2773c0-.5071.5285-4.0662.7477-5.3399-1.9208-1.6577-3.3207-4.3721-3.7669-7.5657z"/></svg>