<?xml version="1.0" encoding="utf-8"?>
<!-- Generator: Adobe Illustrator 19.1.0, SVG Export Plug-In . SVG Version: 6.00 Build 0)  -->
<svg version="1.2" baseProfile="tiny" xmlns="http://www.w3.org/2000/svg" xmlns:xlink="http://www.w3.org/1999/xlink" x="0px"
	 y="0px" width="64px" height="64px" viewBox="0 0 64 64" xml:space="preserve">
<g id="Box">
	<rect fill="none" width="64" height="64"/>
</g>
<g id="Icon">
	<g>
		<path d="M61.0596,39.119c-0.0792-0.5466-0.5866-0.9254-1.1332-0.8462l-2.9689,0.4305l-0.4305-2.9689
			c-0.0793-0.5466-0.5866-0.9254-1.1332-0.8461l-1.1227,0.1628c0.0397-0.567-0.0128-1.1997-0.2066-1.9073
			c-1.0125-3.6962-1.9485-5.6773-2.4819-8.2598c-1.1807-5.7177-2.996-8.1662-6.2879-9.1794
			C43.7268,15.2221,42.232,15.0001,40.5303,15h-0.0606c-1.7018,0.0001-3.1966,0.2221-4.7644,0.7045
			c-1.1634,0.3581-2.1257,0.9558-2.9282,1.813c1.4955,0.7565,2.3755,2.3436,2.3755,4.7175c0,2.9917-1.7054,5.0282-4.6526,5.0282
			c-2.9462,0-4.6526-1.7869-4.6526-5.0282c0-2.249,0.8801-3.9982,2.5316-4.7812C26.7147,15.1462,23.9838,14,19.5005,14L19.5,14.001
			V14c-1.6896,0-3.1119,0.1806-4.3304,0.5194c-2.3299,0.5344-4.6582,1.6843-5.9125,4.1196C6.8754,23.2635,2.18,37.4011,2.18,37.4011
			c0.2955,0.2104,0.7969,0.2719,1.3794,0.2047c0.4132,4.2477,2.3898,24.5578,2.4828,25.304
			c0.0861,0.6901,2.4176,0.4621,2.3447-0.2782c-0.0774-0.7851-1.4595-20.3402-1.8813-26.3156
			c0.4688-0.3973,0.859-0.8784,1.0941-1.4368c0.9462-2.2473,1.9794-4.8003,2.6729-6.7523c0.8972-2.5249,1.4807-4.0414,2.2408-5.6684
			c0.1624-0.3477,0.3164-0.5583,0.4828-0.4094L13,22.0358V63c0,0,4.8654,0.0391,5.2372-5.0498c0,0,0.7277-19.2431,0.7359-19.457
			C18.9813,38.2793,19.1406,38,19.5,38c0.3594,0,0.5083,0.2793,0.5165,0.4932c0.0082,0.2139,0.7308,19.3173,0.7308,19.3173
			c0.2742,4.9745,4.7563,5.1807,5.2077,5.1889V47.4203c-0.9939,0-2.7936-0.5713-2.9266-2.9201
			c-0.2926-5.1648-0.1537-13.4298,2.9935-14.9727c1.9266-0.9442,7.1199-0.9442,9.2288-0.0342
			c2.909,1.2558,2.8332,9.7483,2.8219,14.9643c-0.0051,2.3527-2.0388,2.9658-3.0321,2.9658v15.5743
			c0.1434-0.0233,3.7118-0.6389,3.9595-4.2064c0,0,0.8159-8.6949,0.9611-12.8555c0.5602-0.0887,0.5874-0.0983,1.0627-0.1677
			C41.1661,49.8317,42,58.688,42,58.688C42.1888,62.4385,45.9844,63,45.9844,63L46,45.6978
			c1.7598,0.1674,2.9346,0.4532,2.9346,0.4532c0-8.8604-2.1483-12.3962-2.8839-15.1734c-0.3907-1.4758-0.3087-3.0204,0.0468-4.4986
			c0.334-1.3894,0.7635-2.6836,0.0893-5.4301c0,0,0.3034-0.0376,0.7692,0.9863c0.8876,1.9509,1.0027,5.6902,3.9437,13.5046
			l-0.4542,0.0659c-0.5466,0.0793-0.9254,0.5866-0.8461,1.1332l0.4305,2.9689l-0.0344,0.005
			c0.2641,1.8021,0.439,3.9156,0.439,6.4385c0,0.46-0.2114,0.8936-0.5728,1.1777c-0.3608,0.2852-0.8345,0.3896-1.2803,0.2803
			c-0.0068-0.002-0.4097-0.0977-1.083-0.207l-0.002,2.1604c0.2018,0.3334,0.5896,0.5316,0.9995,0.4722l12.8655-1.8656
			c0.5466-0.0793,0.9254-0.5866,0.8461-1.1332L61.0596,39.119z M52.0092,39.4208l-0.287-1.9792l2.9689-0.4305l0.287,1.9793
			L52.0092,39.4208z"/>
		<path d="M14.5401,6.0079c-0.2658,3.9293,1.729,5.992,4.9599,5.992c3.1674,0,5-2.2184,5-5.4107
			c0-2.0757-0.7797-5.994-2.8156-6.4351C19.324-0.3563,11.3048,3.4496,11.48,4.873C11.5872,5.743,13.2552,5.965,14.5401,6.0079z"/>
		<path d="M40.5,13c3.1665,0,5-1.9516,5-5.411C45.5,4.3059,43.7495,2,40.5,2c-3.0847,0-5,1.9509-5,5.589
			C35.5,10.7822,37.3323,13,40.5,13z"/>
	</g>
</g>
</svg>
