<svg height="64" viewBox="0 0 64 64" width="64" xmlns="http://www.w3.org/2000/svg"><path d="m0 0h64v64h-64z" fill="none"/><path d="m42.4613 27.3315c-1.5597-1.6532-5.283-2.5343-6.5372-2.7919-.2069-.0425-.3655-.2099-.3966-.419-.0594-.4006-.1155-.7589-.1591-1.026 1.1685-1.2149 2.0455-2.6892 2.3299-4.6813 1.0148-.3091 1.2178-1.5609 1.2178-2.3415 0-.7805-.1391-1.2027-.4227-1.3335-.2671-.1228-.5163-.0145-.6628.0746.1584-1.587.3914-4.9321-.2978-6.1696-.737-1.3232-1.6323-1.8516-3.3397-1.4191-1.1198-.5972-1.8823-1.3515-3.8443-.8136-1.3633.3735-2.8555 1.0519-3.6416 2.0699-.8691 1.1253-.6763 4.6628-.5312 6.3181-.1499-.0856-.3847-.1764-.6372-.0603-.2837.1308-.4227.553-.4227 1.3335 0 .7806.203 2.0324 1.2177 2.3415.254 2.089 1.1389 3.4986 2.3063 4.6779-.0585.3533-.1215.7375-.1691 1.0403-.0325.2069-.1893.3655-.3944.4076-1.2517.2569-4.979 1.1381-6.5397 2.7924-1.4305 1.5163-1.5274 7.5195-1.5274 9.6648 3.5747-.7633 7.6553-1.1973 11.9905-1.1973 4.3425 0 8.4096.4353 11.9886 1.201.0044-2.1758-.0968-8.1522-1.5273-9.6685z"/><path d="m60.6875 40.625c-1.0449-.6967-2.4375-.5625-3.6715-.4039.166-2.523 3.6914-5.2168 2.8137-12.0542-.3663-2.8535-1.4964-4.3169-4.163-3.9836-1.8162-1.2573-3.6667-1.3333-5.4167-.9583-1.6781.3596-3.75 1.4-2.6647 3.4315-.5009 1.6116-.5249 2.0365-.5152 2.7109.0336 2.3241-.8717 2.2848-.8717 4.4923 0 1.1643.6397 5.2052 1.3076 5.654.8227.5528 3.7284.7461 4.7153.7656.0756.0957.0443.252-.2213.377-.9021.4244-2.8114.5624-3.822.5884-1.3388.6969-4.9945 2.7377-6.178 4.8149-.7654 1.3434-1.4885 6.12-1.8104 8.8966 5.7911-.4744 16.3729-1.1437 22.7667-7.3249-.181-.9248-.2564-5.6647-2.2688-7.0063z"/><path d="m15.6907 41.2629-.0051-.0033c-.5864-.2854-.8527-.6162-.9557-1.2601l-.1508-.9425c.3875-.081.9234-.2328 1.3268-.5101.7024-.4829 2.1358-4.4636 1.9691-5.9219-.1644-1.4388-.4167-1.5-.6387-2.7514-.2334-1.316 1.033-2.6121.4474-4.5395-.5267-1.7339-2.6021-3.4816-5.1004-3.0008-1.8928.3643-2.2742.7182-3.5252 1.3986 0 0-2.6152-.446-3.84 1.0096-1.8317 2.1767-.8781 5.3085-1.3194 8.4523-.3955 2.8177-1.8833 4.0293-1.8833 4.0293 1.9232 1.6306 4.4694 2.5951 8.2032 3.0022.0999.0875.0096.2905-.2695.3905-2.0211.7242-3.9748.0392-6.2817 1.6223-1.2924.8869-2.2299 2.9494-2.5899 5.44 6.11 6.0094 16.9726 6.8082 22.7627 7.2807-.2693-2.6968-.8971-7.259-1.8402-8.8992-1.5604-2.7139-4.8417-4.23-6.3093-4.7967z"/></svg>