<svg height="64" viewBox="0 0 64 64" width="64" xmlns="http://www.w3.org/2000/svg"><path d="m0 0h64v64h-64z" fill="none"/><path d="m15.561 22.0574c-2.2219 0-3.4188 1.5638-3.4188 3.7901 0 2.3458 1.2534 3.6693 3.4188 3.6693 2.1658 0 3.4189-1.5045 3.4189-3.6693 0-2.4673-1.3099-3.7901-3.4189-3.7901z"/><path d="m32.021 7.6794c1.649 0 2.6031-1.1454 2.6031-2.7937 0-1.8786-.9973-2.8857-2.6031-2.8857-1.6917 0-2.603 1.1907-2.603 2.8857 0 1.786.9543 2.7937 2.603 2.7937z"/><path d="m39.5685 31.7726-4.2762-12.9717.2048-6.9503c2.738.0544 3.7685.0544 6.6926.1389 2.024.0584 2.1626-1.7104 2.1626-1.7104s-5.4581-1.2791-12.3153-1.2791h-.037c-6.8571 0-11.7893 1.1764-11.7893 1.1764s.1386 1.8689 2.1627 1.8105c2.924-.0844 3.3885.0182 6.1266-.0363l.2448 6.8503-4.2762 12.9717s2.6685 1.0515 3.5833-1.3675c.9295-2.4578 3.5497-9.0544 3.6365-9.2394.0662-.1412.1752-.2498.33-.2498h.0004c.1548 0 .2638.1086.33.2498.0868.1851 2.707 6.7817 3.6365 9.2394.9148 2.4189 3.5832 1.3675 3.5832 1.3675z"/><path d="m4.3035 25.3063c.1175-3.6379 2.3989-6.0317 3.2792-6.77l1.025 8.4762c.5901.4062 1.231.7923 1.9146 1.1584-.2474-.6893-.3798-1.4683-.3798-2.3232 0-2.8437 1.4827-4.8968 3.8018-5.5492l-.7178-5.1798s.9082-.5623 4.2787-2.0591c1.937-.8602 1.2303-2.605 1.2303-2.605-7.4984 1.8531-12.1135 4.1104-15.0895 9.027-1.994 3.2942-1.8599 6.644-.594 8.9429 1.6277 2.9556 3.2277 4.1964 6.1 6.0972l.2872 9.0723-4.9404 14.723s3.4249 1.4658 4.8575-2.1158c1.1912-2.9781 3.5579-8.2164 3.6763-8.4547.0903-.1818.239-.3216.45-.3216.2064 0 .3677.132.4582.3237.1067.226 2.3976 9.9224 3.7224 13.032 1.3157 3.0887 4.8851 1.7604 4.8851 1.7604l-4.1783-17.1523.2589-8.0084c2.7816.2781 6.2815.6085 8.9608.1681 3.0836-.5069 2.8521-3.0021 2.8521-3.0021-7.7973.3231-21.7632-2.6416-26.1383-9.24z"/><path d="m9.4817 11.9548c1.8339-.2829 2.6984-1.7203 2.4157-3.5534-.3222-2.0891-1.604-3.0381-3.3898-2.7627-1.8814.2902-2.6907 1.7706-2.4 3.6557.3065 1.9862 1.5405 2.9431 3.3741 2.6604z"/><path d="m54.5683 11.9548c1.8336.2828 3.0677-.6742 3.374-2.6604.2907-1.8851-.5185-3.3655-2.3999-3.6557-1.7858-.2755-3.0676.6736-3.3898 2.7627-.2827 1.833.5818 3.2705 2.4157 3.5534z"/><path d="m60.9479 28.4245c1.2797-2.3238 1.3873-5.6697-.594-8.9429-2.976-4.9166-7.5911-7.174-15.0895-9.027 0 0-.7066 1.7448 1.2303 2.605 3.3705 1.4969 4.2787 2.0591 4.2787 2.0591l-.7178 5.1798c2.3191.6523 3.8018 2.7055 3.8018 5.5492 0 .855-.1323 1.6339-.3798 2.3232.6835-.366 1.3244-.7521 1.9146-1.1583l1.025-8.4762c.8803.7383 3.1617 3.1321 3.2792 6.77-4.3751 6.5984-18.3409 9.5632-26.138 9.2401 0 0-.2315 2.4952 2.8521 3.0021 2.6793.4404 6.1792.11 8.9608-.1681l.2589 8.0084-4.1783 17.1523s3.5694 1.3283 4.8851-1.7604c1.3247-3.1097 3.6157-12.8061 3.7224-13.032.0905-.1917.2518-.3237.4582-.3237.211 0 .3596.1398.45.3216.1183.2382 2.485 5.4766 3.6763 8.4547 1.4326 3.5815 4.8575 2.1158 4.8575 2.1158l-4.9406-14.723.2872-9.0723c2.8722-1.901 4.4721-3.1418 6.0999-6.0974z"/><path d="m51.8578 25.8475c0-2.2263-1.1969-3.7901-3.4188-3.7901-2.1091 0-3.4189 1.3228-3.4189 3.7901 0 2.1649 1.2531 3.6693 3.4189 3.6693 2.1655 0 3.4188-1.3235 3.4188-3.6693z"/></svg>