<?xml version="1.0" encoding="utf-8"?>
<!-- Generator: Adobe Illustrator 19.1.0, SVG Export Plug-In . SVG Version: 6.00 Build 0)  -->
<svg version="1.2" baseProfile="tiny" xmlns="http://www.w3.org/2000/svg" xmlns:xlink="http://www.w3.org/1999/xlink" x="0px"
	 y="0px" width="64px" height="64px" viewBox="0 0 64 64" xml:space="preserve">
<g id="_x36_4px_Box">
	<rect fill="none" width="64" height="64"/>
</g>
<g id="Icon">
	<g>
		<path d="M15.561,22.0574c-2.2219,0-3.4188,1.5638-3.4188,3.7901c0,2.3458,1.2534,3.6693,3.4188,3.6693
			c2.1658,0,3.4189-1.5045,3.4189-3.6693C18.9799,23.3802,17.67,22.0574,15.561,22.0574z"/>
		<path d="M32.021,7.6794c1.649,0,2.6031-1.1454,2.6031-2.7937C34.6241,3.0071,33.6268,2,32.021,2
			c-1.6917,0-2.603,1.1907-2.603,2.8857C29.418,6.6717,30.3723,7.6794,32.021,7.6794z"/>
		<path d="M39.5685,31.7726l-4.2762-12.9717l0.2048-6.9503c2.738,0.0544,3.7685,0.0544,6.6926,0.1389
			c2.024,0.0584,2.1626-1.7104,2.1626-1.7104S38.8942,9,32.037,9H32c-6.8571,0-11.7893,1.1764-11.7893,1.1764
			s0.1386,1.8689,2.1627,1.8105c2.924-0.0844,3.3885,0.0182,6.1266-0.0363l0.2448,6.8503l-4.2762,12.9717
			c0,0,2.6685,1.0515,3.5833-1.3675c0.9295-2.4578,3.5497-9.0544,3.6365-9.2394c0.0662-0.1412,0.1752-0.2498,0.33-0.2498h0.0004
			c0.1548,0,0.2638,0.1086,0.33,0.2498c0.0868,0.1851,2.707,6.7817,3.6365,9.2394C36.9001,32.824,39.5685,31.7726,39.5685,31.7726z"
			/>
		<path d="M4.3035,25.3063c0.1175-3.6379,2.3989-6.0317,3.2792-6.77l1.025,8.4762c0.5901,0.4062,1.231,0.7923,1.9146,1.1584
			c-0.2474-0.6893-0.3798-1.4683-0.3798-2.3232c0-2.8437,1.4827-4.8968,3.8018-5.5492l-0.7178-5.1798
			c0,0,0.9082-0.5623,4.2787-2.0591c1.937-0.8602,1.2303-2.605,1.2303-2.605c-7.4984,1.8531-12.1135,4.1104-15.0895,9.027
			c-1.994,3.2942-1.8599,6.644-0.594,8.9429c1.6277,2.9556,3.2277,4.1964,6.1,6.0972l0.2872,9.0723L4.4988,58.317
			c0,0,3.4249,1.4658,4.8575-2.1158c1.1912-2.9781,3.5579-8.2164,3.6763-8.4547c0.0903-0.1818,0.239-0.3216,0.45-0.3216
			c0.2064,0,0.3677,0.132,0.4582,0.3237c0.1067,0.226,2.3976,9.9224,3.7224,13.032c1.3157,3.0887,4.8851,1.7604,4.8851,1.7604
			l-4.1783-17.1523l0.2589-8.0084c2.7816,0.2781,6.2815,0.6085,8.9608,0.1681c3.0836-0.5069,2.8521-3.0021,2.8521-3.0021
			C22.6445,34.8694,8.6786,31.9047,4.3035,25.3063z"/>
		<path d="M9.4817,11.9548c1.8339-0.2829,2.6984-1.7203,2.4157-3.5534c-0.3222-2.0891-1.604-3.0381-3.3898-2.7627
			c-1.8814,0.2902-2.6907,1.7706-2.4,3.6557C6.4141,11.2806,7.6481,12.2375,9.4817,11.9548z"/>
		<path d="M54.5683,11.9548c1.8336,0.2828,3.0677-0.6742,3.374-2.6604c0.2907-1.8851-0.5185-3.3655-2.3999-3.6557
			c-1.7858-0.2755-3.0676,0.6736-3.3898,2.7627C51.8699,10.2344,52.7344,11.6719,54.5683,11.9548z"/>
		<path d="M60.9479,28.4245c1.2797-2.3238,1.3873-5.6697-0.594-8.9429c-2.976-4.9166-7.5911-7.174-15.0895-9.027
			c0,0-0.7066,1.7448,1.2303,2.605c3.3705,1.4969,4.2787,2.0591,4.2787,2.0591l-0.7178,5.1798
			c2.3191,0.6523,3.8018,2.7055,3.8018,5.5492c0,0.855-0.1323,1.6339-0.3798,2.3232c0.6835-0.366,1.3244-0.7521,1.9146-1.1583
			l1.025-8.4762c0.8803,0.7383,3.1617,3.1321,3.2792,6.77c-4.3751,6.5984-18.3409,9.5632-26.138,9.2401
			c0,0-0.2315,2.4952,2.8521,3.0021c2.6793,0.4404,6.1792,0.11,8.9608-0.1681l0.2589,8.0084l-4.1783,17.1523
			c0,0,3.5694,1.3283,4.8851-1.7604c1.3247-3.1097,3.6157-12.8061,3.7224-13.032c0.0905-0.1917,0.2518-0.3237,0.4582-0.3237
			c0.211,0,0.3596,0.1398,0.45,0.3216c0.1183,0.2382,2.485,5.4766,3.6763,8.4547c1.4326,3.5815,4.8575,2.1158,4.8575,2.1158
			l-4.9406-14.723l0.2872-9.0723C57.7202,32.6209,59.3201,31.3801,60.9479,28.4245z"/>
		<path d="M51.8578,25.8475c0-2.2263-1.1969-3.7901-3.4188-3.7901c-2.1091,0-3.4189,1.3228-3.4189,3.7901
			c0,2.1649,1.2531,3.6693,3.4189,3.6693C50.6045,29.5168,51.8578,28.1933,51.8578,25.8475z"/>
	</g>
</g>
</svg>
