<svg enable-background="new 0 0 64 64" height="64" viewBox="0 0 64 64" width="64" xmlns="http://www.w3.org/2000/svg"><path d="m0 0h64v64h-64z" fill="none"/><path d="m24.7 53c-1.4-1.5-1.6-3.9-.3-5.6l.3-.5c-2.2-2-4.8-4.9-4.5-7.6.2-1.9 0-.5.8-5.4-2.3-2.2-4.1-4.9-4.1-8.1-1.6-.5-2-2.5-2-3.8s.3-2 .8-2.2c.4-.2.8 0 1 .1.1.7.2 1.1.3 1.3.2.9 1 .8 1 .8v-6.7c2.1-.2 6.2-.8 10.8-3.1l5.2 3.5v6.3s.8.1 1-.8c0-.2.1-.7.3-1.3.2-.1.6-.3 1-.1.5.2.8.9.8 2.2s-.4 3.3-2 3.8c0 3.7-2.5 6.5-5.3 8.9-.8.7-2.2 1.1-3.7 1.1-1.1 0-2.1-.3-2.9-.6.6.9 1.7 2.1 3.6 2.6.7.2 3.1.6 4.9-.7 1.5-1 3.4-3.2 4.5-4.8 1-1.6 1.6-3.1 1.9-4.8 1.3-1.2 2.1-3.2 2.1-5.6 0-.7 0-2.7-1.2-4 .3-3.3.5-8.5-.8-10.6-1.6-2.6-3.5-3.8-7.3-3-2.4-1.2-4.1-1.9-8.4-.8-3 .7-6.2 1.9-7.9 3.9-1.7 1.9-1.5 7.2-1.3 10.6-1.3 1.4-1.3 3.3-1.3 4 0 2.4.7 4.3 2.1 5.5.4 2.5 1.6 4.9 3.7 7.3-.1.8-.2 1.7-.4 2.7-2.5.7-9.7 3-12 5.6-2.9 3.1-4.4 14.9-4.4 14.9h29.3c-.7-1.1-1.3-2.3-1.7-3.6-1.4.2-2.9-.3-3.9-1.4z"/><path d="m62.9 47.2c-.4-.4-1-.5-1.6-.2l-2.3 1.3c-.4-7.4-6.5-13.3-14-13.3-4.2 0-8 1.9-10.6 4.9.5.2 1 .6 1.4 1.1l1.3 1.9c1.9-2.4 4.7-3.9 7.9-3.9 5.3 0 9.6 4.1 10 9.3l-2.3-1.4c-.5-.3-1.2-.2-1.6.2s-.4 1.1-.1 1.6l5 7c.2.3.6.5 1 .5s.8-.2 1-.5l5-7c.4-.5.3-1.1-.1-1.5z"/><path d="m54.2 57-1.3-1.9c-1.9 2.4-4.7 3.9-7.9 3.9-5.3 0-9.6-4.1-10-9.3l2.3 1.4c.2.1.4.2.6.2.3 0 .7-.1.9-.4.4-.4.4-1.1.1-1.6l-5-7c-.5-.7-1.6-.7-2 0l-5 7c-.3.5-.3 1.1.1 1.6.4.4 1 .5 1.6.2l2.4-1.4c.4 7.4 6.5 13.3 14 13.3 4.2 0 8-1.9 10.6-4.9-.6-.2-1-.6-1.4-1.1z"/></svg>