<svg height="64" viewBox="0 0 64 64" width="64" xmlns="http://www.w3.org/2000/svg"><path d="m0 0h64v64h-64z" fill="none"/><path d="m52.6128 44.1104c-2.1834-2.3746-8.462-4.4866-11.386-5.3733-.1329-.9563-.7335-4.5876-1.0192-6.2847 1.3058-2.3693 1.9661-4.693 1.9297-6.9473 1.0938-1.4293 1.4861-3.4736 1.0769-5.8281-.1275-.7336-.4615-2.6625-1.8942-3.7661-.2736-3.3405-.9507-8.4656-2.5844-10.2949-2.0108-2.2518-4.1346-3.1501-7.6329-1.6871-2.5867-.7227-4.337-1.152-8.3434.6072-2.7838 1.222-5.7639 2.944-7.1031 5.1812-1.2938 2.1618-.2729 7.3807.5662 10.6667-.9085 1.5111-.5887 3.3773-.4637 4.0966.2239 1.2886.6471 2.4011 1.2301 3.3067-.7248 1.0398-.9335 2.475-.9739 3.5125-.1148 2.9526.6653 4.3851 4.5405 8.15-3.1613 1.072-7.4412 2.7822-9.1683 4.6606-2.8734 3.124-4.3871 14.8896-4.3871 14.8896h9.0554l7.0582-17.3963c.4786-1.1912.1768-2.5713-.7234-3.4381-4.0991-3.9469-4.2546-4.7802-4.1769-6.7802.0422-1.085.1888-2.7272 1.3978-2.7273.1857 0 .3965.0388.6359.1243.3401-1.3795.8398-1.8962 1.4649-1.8962.2986 0 .6257.1179.9778.3159.263-.7002.6862-.9913 1.1406-.9913.4053 0 .8356.2314 1.1997.6106 1.8589 1.9358 1.9283 3.3737 1.6403 4.2573-1.2939-1.3188-2.1929-2.2307-2.2637-2.291-.283-.2407-.4509-.0756-.4918-.0227 0 0 4.4406 7.1822 4.6984 7.6183.7128 1.2054 1.0909 2.6154.8115 4.0173-.1885.9455-2.3362 11.6977-3.7149 18.5994h31.2902s-1.5137-11.7656-4.3872-14.8896zm-25.996-18.8129c-.7968-.8298-1.7864-1.2868-2.7865-1.2868-.7387 0-1.4142.2395-1.9733.6784-.9602-.04-1.8861.3294-2.5965 1.1539-.3491-.6134-.5629-1.3007-.66-1.8596-.2179-1.2536-.0203-1.9871.3866-2.2748.353-.2491.7495-.1794 1.0087-.0865.2504.6187.4384 1.0788.5084 1.2406.3478.8031 1.136.5859 1.136.5859l-1.1548-6.645c2.0074-.504 5.9454-1.8047 10.0109-4.9046l5.7526 2.5731 1.0829 6.2312s.815-.0632.8713-.937c.0114-.1761.0331-.6729.0599-1.3401.2126-.1754.5622-.3755.9783-.261.4799.1325.9133.7557 1.1311 2.0092.218 1.2541.1519 3.338-1.3483 4.1119.634 3.6478-1.3725 6.8342-3.7162 9.6691-.6519.7885-2.0172 1.4763-3.4579 1.7272-.3562.0621-.7156.0819-1.0714.0853-.346-.6726-1.7614-2.9831-2.1558-3.6285.1866-.44.3293-.9648.3661-1.5739.1055-1.7467-.6926-3.5191-2.3721-5.268zm5.7642 24.0423c-.6146-.4675-1.3685-1.097-2.1358-1.8138.6974-3.492 1.246-6.2388 1.337-6.6954.2383-1.1955.1577-2.4293-.2195-3.6443.4367.1465.9199.2571 1.4663.3046 2.5804.2242 4.3298-1.0628 4.9414-1.5997.1868 1.17.6273 3.974.6207 4.3703.3268 3.4882-3.5567 7.3168-6.0101 9.0783z"/></svg>