<svg height="64" viewBox="0 0 64 64" width="64" xmlns="http://www.w3.org/2000/svg"><path d="m0 0h64v64h-64z" fill="none"/><path d="m26.8887 36.556c-1.1445-.3771-2.2466-.6777-2.9585-.87-.9561-.2578-1.1162-1.5276-1.1821-2.528 1.3263-1.5457 2.3101-3.4025 2.6497-5.835 1.3349-.4159 1.6022-2.1006 1.6022-3.1511 0-1.0502-.1831-1.6184-.5562-1.7944-.3262-.1534-.6295-.0384-.8276.0749.0142-.1456.0784-.3035.0928-.4689.7622-.1945 1.5354-.3908 2.3391-.5718.2983-.0672.5144-.3311.5144-.6322v-1.208c0-.2757-.1828-.5119-.446-.6067-.4619-.1664-1.1404-.5726-1.3176-1.543-.2759-1.5102-.5959-6.3311-6.1114-7.4901v-.3572c0-.6892-.5637-1.2739-1.2514-1.3202-.4775-.0322-2.2695-.0322-2.7471 0-.6877.0463-1.2515.631-1.2515 1.3202v.3572c-5.5154 1.1591-5.8354 5.9799-6.1113 7.4901-.1772.9703-.8557 1.3766-1.3176 1.543-.2632.0948-.4461.331-.4461.6067v1.208c0 .3011.2161.565.5144.6322.7958.1792 1.5613.3735 2.3162.566.0154.2048.1377.4006.1528.5743-.1267-.1004-.541-.3856-.9897-.1746-.3733.1761-.5562.7442-.5562 1.7945 0 1.0505.2672 2.7352 1.6021 3.1512.2993 2.5157 1.2668 4.2955 2.5659 5.7808-.0449 1.0686-.1174 2.3165-1.1177 2.596-2.0981.5864-7.1605 2.1105-8.795 3.8317-2.0864 2.1962-2.2553 10.4684-2.2553 10.4684h16.0784c.6586-3.5605 1.8154-7.83 3.7552-9.8727 1.2985-1.3669 3.554-2.5628 6.0551-3.5713z"/><path d="m60.1971 41.976c-1.6394-1.7269-7.0967-3.7097-9.3673-4.4005-1.1841 4.6586-3.2415 10.5812-6.4467 14.7686-.3698-2.0938-.9948-4.9089-1.6671-6.8016.9163-1.4047 2.1505-3.5873 2.1505-3.5873s-1.051-1.7119-3.442-1.7119c-2.3911 0-3.442 1.7119-3.442 1.7119s1.2343 2.1826 2.1505 3.5873c-.6681 1.8807-1.2896 4.6724-1.6603 6.7621-3.0587-4.1884-5.1105-10.0984-6.3177-14.7405-2.387.7231-7.5957 2.5936-9.3221 4.4119-2.6264 2.7648-3.6479 13.024-3.6479 13.024h44.625s-.9864-10.2592-3.6129-13.024z"/><path d="m32.0684 26.3994c.5404 4.4968 2.7897 7.128 5.5587 9.4594 1.5987 1.3466 6.1167 1.3424 7.7106 0 2.5732-2.1664 4.65-4.8598 5.5587-9.4594l.0202.0546c.0028-.0187.0073-.0358.0099-.0546 1.6839-.519 2.0209-2.6216 2.0209-3.9326 0-1.3105-.2309-2.0196-.7014-2.2394-.2268-.1056-.4485-.1047-.6456-.0628.1693-2.7305.3377-8.1407-.8-10.1736-1.2443-2.2224-2.8987-2.7988-5.7815-2.0724-1.8907-1.0031-3.1778-1.9953-6.4902-1.092-2.3017.6274-4.8207 1.6521-6.1479 3.3617-1.4322 1.8448-1.1562 7.2255-.9141 9.9894-.2135-.0583-.4637-.0687-.7178.0497-.4705.2198-.7014.9289-.7014 2.2394 0 1.311.3369 3.4136 2.0209 3.9326z"/></svg>