<svg height="64" viewBox="0 0 64 64" width="64" xmlns="http://www.w3.org/2000/svg"><path d="m0 0h64v64h-64z" fill="none"/><path d="m31.5 11.9775c3.1371 0 4.952-2.2095 4.952-5.3888 0-3.6236-1.8971-5.5663-4.952-5.5663-3.2183 0-4.952 2.2967-4.952 5.5663 0 3.4451 1.8154 5.3888 4.952 5.3888z"/><path d="m37.0243 14.7021c-3.3368-.7958-7.8055-.7958-11.0487 0-6.362 1.5612-5.9421 11.6472-5.9421 20.357.2096 3.0518 2.4544 3.92 3.8006 3.92 0-.1417 0-1.6151 0-3.0491 0-.7156 0-5.5918 0-6.1175 0-3.4489.3357-6.1401.7565-7.4819.1282-.4087.4094-.3306.4094-.3306v15.9998 25.0002s4.8654.0391 5.2372-5.0498c0 0 .7277-19.2431.7359-19.457s.1675-.4932.5269-.4932.5083.2793.5165.4932.7308 19.3173.7308 19.3173c.2888 5.2383 5.2527 5.1895 5.2527 5.1895v-25.0002-15.9998s.3024-.1048.4494.3306c.4062 1.2031.7165 4.033.7165 7.435v6.5186 2.6949c1.3462 0 3.5612-.837 3.8007-3.92 0-8.7098.4298-18.8372-5.9423-20.357z"/></svg>