<svg height="64" viewBox="0 0 64 64" width="64" xmlns="http://www.w3.org/2000/svg"><path d="m0 0h64v64h-64z" fill="none"/><path d="m53.2 26.9303.0004.0697h5.7996v-6c0-1.6569-1.3431-3-3-3h-5.7788c-.0123.0156-.0181.0358-.0308.0511.6385.3621 1.1084.7108 1.4491 1.0724.3732.3957 1.5087 1.6001 1.5605 7.8068z"/><path d="m30.1998 26.9213.001.0787h3.5988l.0004-.0697c.0518-6.2067 1.1873-7.4111 1.5601-7.8066.3536-.3751.8458-.7363 1.5128-1.1088-.004-.0046-.0068-.0103-.0109-.0149h-8.8127c.2051.1527.3931.3126.5559.4849 1.5098 1.5969 1.5714 6.5658 1.5946 8.4364z"/><path d="m10.8002 26.9212c.0233-1.8705.0852-6.8393 1.5944-8.436.0959-.1016.2593-.2709.5479-.4852h-4.9425c-1.6569 0-3 1.3431-3 3v6h5.7992z"/><path d="m27.0066 19.9963c-.6993-.7399-2.7415-1.3632-3.7422-1.663-.2804-.0839-.4551-.1344-.5599-.5143-.0786-.285-.1022-.6439-.1022-.6439.5845-.6842 1.0177-1.5062 1.1672-2.5829.5881-.1841.7058-.9299.7058-1.3948s-.0806-.7165-.2449-.7944c-.1438-.0679-.2773-.017-.3645.0331.0911-.9498.2224-2.9297-.1726-3.6641-.4243-.7883-.9399-1.103-1.923-.8454-.6447-.3558-1.0837-.8051-2.2135-.4847-.7848.2225-1.644.6267-2.0967 1.233-.5078.6806-.3859 2.8394-.302 3.8052-.0559-.0444-.2385-.1707-.4362-.0773-.1644.0779-.245.3294-.245.7944s.1177 1.2108.7058 1.3948c.1318 1.1136.5581 1.9015 1.1304 2.5589 0 0-.0142.3366-.0769.6566-.0454.2309-.1899.4291-.4155.4925-.9242.2596-3.1074.9343-3.8274 1.6961-.9188.9725-.9933 6.9525-.9933 6.9525h15s-.0742-5.98-.9934-6.9523z"/><path d="m41.3872 18.0778c-.0361.217-.1659.4062-.3704.4835-.5342.2016-1.5372.5974-2.4346 1.0447-.6853.3332-1.3083.6948-1.6211 1.0267-.9164.9722-.9611 6.3159-.9611 6.3159h15s-.0447-5.3438-.9612-6.316c-.3127-.3318-.9358-.6935-1.6211-1.0267-.8973-.4473-1.9004-.8431-2.4346-1.0447-.2045-.0772-.3342-.2664-.3702-.4835-.0448-.2693-.0951-.6686-.1345-1.0048 1.3534-.0554 2.4728-.1899 2.9381-.3685.092-.0353.1384-.1202.0974-.2104-.2545-.5598-.9165-2.4009-.9996-3.3624-.2043-2.3599-.1959-6.5832-3.4052-5.5237 0 0-2.0378-1.3117-3.6931.8829-1.1644 1.5439-.8807 3.5798-.9274 4.7151-.0332.8075-.689 2.6719-.965 3.1549-.0588.1028-.0387.2068.072.2473.4996.1827 1.6243.3243 2.9465.4084-.037.3375-.089.7564-.1479 1.0611h-.007z"/><path d="m62.7988 54.5023c-2.2214-10.8399-1.8987-24.5309-1.8987-24.5309-.0471-.5495-.5068-.9714-1.0583-.9714h-55.5901c-.5515 0-1.0112.4219-1.0585.9714 0 0 .129 12.3842-1.9637 24.5914-.1183.6895.447 1.3189 1.1426 1.2451 3.0698-.3255 5.3027-1.6265 5.3027-1.6265s2.2308 1.6997 5.7361 1.6997c1.8628 0 3.5405-.4797 4.7089-.9296.6127-3.9082 1.4672-9.3523 1.5162-9.6333.0573-.3282.3079-.2708.364-.2499v9.2343c.7111.3851 3.1794 1.5786 6.478 1.5786 3.9308 0 5.6299-1.6997 5.6299-1.6997s3.7181 1.6997 7.011 1.6997c3.2927 0 6.6926-1.6997 6.6926-1.6997s3.0809 1.6997 6.0554 1.6997c2.9744 0 5.4177-1.6997 5.4177-1.6997s1.7335 1.2155 4.2993 1.5908c.7425.1084 1.3656-.5348 1.2149-1.27z"/></svg>