<svg height="64" viewBox="0 0 64 64" width="64" xmlns="http://www.w3.org/2000/svg"><path d="m0 0h64v64h-64z" fill="none"/><path d="m50.5001 11.9775c3.1371 0 4.952-2.2094 4.952-5.3887 0-3.6236-1.8971-5.5663-4.952-5.5663-3.2183 0-4.952 2.2967-4.952 5.5663-.0001 3.445 1.8154 5.3887 4.952 5.3887z"/><path d="m62.6888 32.8934c-.6873-3.7972-1.5374-5.8741-1.8479-8.5127-.687-5.842-2.4202-8.6494-5.6446-9.6706-1.5357-.4862-2.9998-.71-4.6666-.7101h-.0594c-1.6668.0001-3.1309.2239-4.6666.7101-3.2244 1.0212-4.9576 3.8286-5.6446 9.6706-.3105 2.6386-1.1606 4.7155-1.8479 8.5127-.5594 3.0898 1.1044 4.7785 2.4633 4.9575 3.12-10.0822 2.8946-14.4572 3.6686-16.7189.1393-.4069.4868-1.035.4868-1.035-.6605 2.7683-.2397 4.0728.0874 5.4732.3481 1.4897.4286 3.0468.0458 4.5343-.7204 2.7992-3.0218 6.4693-3.0218 15.3999 0 0 2.2966.6234 5.9942.3032.1223.1992.0724.4592-.2386.6769-.2738.1917-1.0998.5802-2.7501.627l.5856 15.8885s3.6438-.5727 3.8914-4.2421c0 0 .3061-9.001.4484-13.1946.1853-.0302.3678-.0578.5581-.093.1603-.0296.3217-.0518.4828-.076.1394 4.0958.4519 13.2595.4519 13.2595.185 3.7803 3.9026 4.3462 3.9026 4.3462l.66-17.6766c1.7237.1688 2.9298.4569 2.9298.4569 0-8.9307-2.3001-12.8767-3.0205-15.6759-.3827-1.4875-.3023-3.0446.0458-4.5343.3271-1.4005.7479-2.7049.0874-5.4732 0 0 .3475.6281.4868 1.035.774 2.2618.5486 6.6367 3.6686 16.7189 1.3589-.1789 3.0227-1.8676 2.4633-4.9574z"/><path d="m12.5002 11.9775c3.1371 0 4.952-2.2094 4.952-5.3887 0-3.6236-1.8971-5.5663-4.952-5.5663-3.2183 0-4.952 2.2967-4.952 5.5663 0 3.445 1.8154 5.3887 4.952 5.3887z"/><path d="m18.0245 14.7021c-3.3369-.7958-7.8055-.7958-11.0487 0-6.362 1.5612-5.9421 11.6472-5.9421 20.357.2096 3.0518 2.4544 3.92 3.8006 3.92 0-.1417 0-1.6151 0-3.0491 0-.7156 0-5.5918 0-6.1175 0-3.4489.3357-6.1401.7565-7.4819.1282-.4087.4094-.3306.4094-.3306v15.9998 25.0002s4.8654.0391 5.2372-5.0498c0 0 .7277-19.2431.7359-19.457s.1675-.4932.5269-.4932.5082.2793.5165.4932c.0082.2139.7308 19.3173.7308 19.3173.2888 5.2383 5.2527 5.1895 5.2527 5.1895v-25.0002-15.9998s.3024-.1048.4493.3306c.4062 1.2031.7166 4.033.7166 7.435v6.5186 2.6949c1.3462 0 3.5612-.837 3.8007-3.92 0-8.7098.4298-18.8372-5.9423-20.357z"/><path d="m26 25h11v3h-11z"/><path d="m26 30h11v3h-11z"/></svg>