<svg height="64" viewBox="0 0 64 64" width="64" xmlns="http://www.w3.org/2000/svg"><path d="m0 0h64v64h-64z" fill="none"/><path d="m50.2874 26.3175c.3644-1.4342.6222-2.5743 1.362-5.4122 1.0625-4.0728-.5293-6.729-2.5654-10.2705-2.2695-3.9473-4.0733-5.9317-10.3594-3.2759-3.6992-2.7744-5.2891-4.3067-11.332-2.7031-4.1992 1.1142-10.1563 3.3842-11.3955 4.8891-1.5205 1.8467-3.6104 7.7608-3.7285 9.3238-.2018 2.6658.3846 3.9755 1.4948 7.4162-2.7549 1.757-2.7634 5.444-2.7634 6.7083 0 3.6267 1.1409 6.5537 3.1539 8.3253.7033 5.2649 3.8244 10.2362 9.4831 15.1315 2.6495 2.2921 6.7317 2.5396 8.3638 2.5396s5.714-.2475 8.3631-2.5404c5.5692-4.8179 8.7474-9.8952 9.4745-15.1239 2.0177-1.7709 3.1616-4.7008 3.1616-8.3321 0-1.2566-.0087-4.9065-2.7126-6.6757zm-4.2874 12.6757c0 5.9961-4.1426 10.975-8.2539 14.5316-1.2054 1.0433-3.4753 1.5648-5.7453 1.5648-2.2706 0-4.5412-.5217-5.7469-1.5648-4.1113-3.5566-8.2539-8.4613-8.2539-14.5316-2.5-.792-3.1-4-3.1-6s.4428-3.0821 1.142-3.417c.2103-.1007.4188-.1403.6171-.1403.4773 0 .875.2233 1.1124.3878.5335 2.2371.9274 3.8871.9961 4.1695.248 1.0254 1.2324.9316 1.2324.9316v-12.246c6.4906.0398 15.2009-3.6064 20.8594-7.5069.1033.0388.1669.2116.0682.3863-.5343.9464-1.8122 2.5419-3.4422 4.1073l6.5146 3.2987v11.9606s.9844.0938 1.2324-.9316c.0686-.2824.4625-1.9323.996-4.1695.2375-.1645.6352-.3878 1.1125-.3878.1983 0 .4068.0396.6171.1403.6992.3349 1.142 1.417 1.142 3.417s-.6 5.208-3.1 6z"/></svg>