<svg height="64" viewBox="0 0 64 64" width="64" xmlns="http://www.w3.org/2000/svg"><path d="m0 0h64v64h-64z" fill="none"/><path d="m35.3906 1.374c-2.3271.3164-3.1386 5.334-3.1386 5.334l.0108.0017c-.0041.0184-.0097.0355-.0138.054-.709 3.2285.6016 5.4267 3.5576 6.0761 2.9571.6495 5.1221-1.0449 5.7774-4.0263.0516-.2352.0688-.6308.1001-.8545 1.261.081 3.0138.0253 3.1958-.8851.2871-1.4365-7.1621-6.0153-9.4893-5.6999z"/><path d="m44.2975 35.9528c-3.4487-6.3257-4.2285-7.3802-4.8843-9.8782-.5264-2.3185-1.0382-6.8663-1.2729-8.0474-.4086-2.056-5.1062-4.8137-8.3405-3.7899-4.5049 1.4268-8.6523 10.6309-9.9248 13.5127-.9033 2.0781-.9365 3.9336-.7891 5.3926.181 3.2555.3784 22.5084.3907 23.509.0536 4.3662 3.7176 5.2415 4.2675 5.3484.0362-.4244 1.3061-16.2657 1.3061-16.2657s-1.5658-3.6015-2.558-5.8749c-.1178-.2699.0002-.4807.1297-.4632.5422.8382 2.5109 3.7132 3.6148 5.4736.3464.5524.5558.9959.5894 1.1873.8285 3.5701 1.5956 7.0798 2.7112 11.8281 1.0634 4.5265 5.2254 4.117 5.4057 4.0971-.5989-6.7128-.8537-9.6538-1.5365-15.7901-.2592-1.9204-.2086-3.154-3.379-10.1023 1.2858-3.1642 3.2542-7.4356 4.9207-10.9559.1213.6005.2677 1.2457.4591 1.9612.9783 3.2779 2.8261 5.5026 3.4766 6.5045.3864.595.8022 1.0474 1.2245 1.4004h-3.1084c-.0018 1.7821.9708 3 2.6939 3h.9511c.2458 0 .5271.0953.479.4904-.0131.1072-1.7946 21.2505-2.0174 23.5095h2.0867c.3223-2.4261 2.1747-18.4878 2.4188-20.3257.3769-2.8373.6028-3.4898.0856-4.6321-.1602-.3521-.3806-.6614-.635-.9317.7292.0071 1.2253-.1545 1.2348-.1577z"/></svg>