<svg height="64" viewBox="0 0 64 64" width="64" xmlns="http://www.w3.org/2000/svg"><path d="m0 0h64v64h-64z" fill="none"/><path d="m32 10.3c-5.9-2.8-11.6 1.9-13.1 8-.1 0-.3-.1-.3-.5 0-2 .4-3.6.4-3.6s-6.2-2.6-10 2.7-.8 11-.8 11l5.2-1.3s-.2-1.9 1.7-4.2c1.3-1.5 2.7-2 3.4-2.2-.4 2.7-.2 4.9-.2 5-1.4 1.5-1.9 3.5-1.6 5.3.4 2.3 1.9 4.1 3.8 4.8.6 2 1.6 3.7 2.9 5.1-.1.6-.2 1.1-.2 1.5-6.3 2.3-9.3 7.2-9.2 13h36c.1-5.8-2.9-10.7-9.2-13-.1-.4-.1-.9-.2-1.5 1.3-1.4 2.2-3.1 2.9-5.1 1.9-.7 3.5-2.5 3.8-4.8.3-1.9-.1-3.9-1.6-5.3 0-.1.2-2.3-.2-5 .7.2 2.2.7 3.4 2.2 1.8 2.2 1.7 4.2 1.7 4.2l5.2 1.3s2.9-5.9-.8-11.2c-3.7-5.2-10-2.7-10-2.7s.4 1.6.4 3.6c0 .4-.2.5-.3.5-1.5-6-7.2-10.6-13.1-7.8m0 8.8s1.4 3.8 8.6 4.9c.1 1 .2 2 .2 2.9.5-.3 1-.4 1.5-.3 1.4.2 2.3 1.8 2 3.4-.3 1.7-1.7 3-3.3 2.5-.4 2.7-1.6 5.2-3.7 6.9-2.1 1.6-4.8 2.1-7.3 1.6 1.9 3.1 5.3 2.7 7.8 1.5.1.5.1.8.1.9 0 2.4-2.5 4.3-5.9 4.3-3.2 0-6.3-1.7-5.9-5 .1-.6.3-1.5.7-3.2-.9-.7-1.9-1.8-2.5-3.1-.6-1.1-1-2.4-1.3-3.9-1.6.5-3-.8-3.3-2.5s.6-3.2 2-3.4c.5-.1 1 0 1.5.3 0-1 .1-2 .2-2.9 7.2-1.1 8.6-4.9 8.6-4.9"/></svg>