<?xml version="1.0" encoding="utf-8"?>
<!-- Generator: Adobe Illustrator 22.1.0, SVG Export Plug-In . SVG Version: 6.00 Build 0)  -->
<!DOCTYPE svg PUBLIC "-//W3C//DTD SVG 1.1//EN" "http://www.w3.org/Graphics/SVG/1.1/DTD/svg11.dtd">
<svg version="1.1" xmlns="http://www.w3.org/2000/svg" xmlns:xlink="http://www.w3.org/1999/xlink" x="0px" y="0px" width="64px"
	 height="64px" viewBox="0 0 64 64" style="enable-background:new 0 0 64 64;" xml:space="preserve">
<style type="text/css">
	.st0{fill:none;}
</style>
<g id="Box">
	<rect class="st0" width="64" height="64"/>
</g>
<g id="Icon">
	<path d="M51.8,43.6c-0.8-0.9-2.3-2.1-3.9-3.4l-2-19.5C45.3,11.4,39.3,5,32,5c-7.3,0-13.3,6.4-13.9,15.8l-1.9,19.4
		c-1.6,1.3-3.1,2.5-3.9,3.4C9.5,46.6,8,58,8,58h48C56,58,54.5,46.6,51.8,43.6z M41.4,22.6C39.1,25.3,34.7,22,32,22
		c-2.7,0-7.1,3.3-9.4,0.6c-0.4-0.5-0.3-1.2,0.3-1.5c1.5-0.8,4.8-2.3,9.1-2.3c4.3,0,7.6,1.5,9.1,2.3C41.7,21.4,41.8,22.1,41.4,22.6z"
		/>
</g>
</svg>
