<?xml version="1.0" encoding="utf-8"?>
<!-- Generator: Adobe Illustrator 19.1.0, SVG Export Plug-In . SVG Version: 6.00 Build 0)  -->
<svg version="1.2" baseProfile="tiny" xmlns="http://www.w3.org/2000/svg" xmlns:xlink="http://www.w3.org/1999/xlink" x="0px"
	 y="0px" width="64px" height="64px" viewBox="0 0 64 64" xml:space="preserve">
<g id="_x36_4px_Box">
	<rect fill="none" width="64" height="64"/>
</g>
<g id="Icon">
	<g>
		<path d="M36.3531,36.6667c-0.2289-0.047-0.4044-0.2322-0.4388-0.4636c-0.0657-0.4432-0.1278-0.8397-0.176-1.1353
			c1.2929-1.3442,2.2632-2.9755,2.5779-5.1796c1.1228-0.342,1.3474-1.7271,1.3474-2.5908c0-0.8636-0.1539-1.3307-0.4677-1.4755
			c-0.2955-0.1359-0.5712-0.0161-0.7333,0.0826c0.1753-1.756,0.4331-5.4572-0.3295-6.8264
			c-0.8154-1.4641-1.806-2.0487-3.6952-1.5702c-1.239-0.6608-2.0827-1.4954-4.2536-0.9002
			c-1.5084,0.4133-3.1595,1.1639-4.0292,2.2903c-0.9617,1.2451-0.7484,5.1592-0.5878,6.9907
			c-0.1659-0.0947-0.4257-0.1951-0.705-0.0667c-0.3139,0.1448-0.4677,0.6119-0.4677,1.4755c0,0.8637,0.2246,2.2488,1.3474,2.5908
			c0.281,2.3113,1.2601,3.871,2.5518,5.1759c-0.0648,0.3909-0.1345,0.816-0.1871,1.151c-0.0359,0.2289-0.2095,0.4044-0.4364,0.451
			c-1.3849,0.2843-5.2533,1.2593-6.9802,3.0897C19.1072,41.4336,19,45.6263,19,48h25.9999
			c0.0049-2.4074-0.1071-6.5664-1.6899-8.2441C41.5842,37.9267,37.7408,36.9518,36.3531,36.6667z"/>
		<path d="M19.9061,36.022c0-1.9315,0-4.3581,0-4.3581l1.5645-0.7974c0.4272-0.2783,0.5482-0.8539,0.2693-1.2828l-2.7742-3.2184
			c-0.0916-0.4075,0.0591-1.1599,0-1.5042c-0.2984-1.7389-1.1716-3.663-1.1716-3.663c0.9444-1.8159,0.4831-3.4427-0.938-4.3638
			c-1.619-1.0493-7.3931-1.157-11.69,1.1985c-4.5321,2.4846-4.0418,7.1283-3.2786,9.4538c0.8879,2.7054,3.4264,6.5411,3.6099,9.4328
			C5.5778,38.1872,4.6508,42,4.6508,42h9.988l-0.0605-2.7046l-2.4593-1.2781c-0.1309-0.0721-0.0931-0.1595-0.0792-0.1826
			c0,0,3.618,0.8009,5.05,0.9901C18.5273,39.0147,19.9061,37.7821,19.9061,36.022z"/>
		<path d="M62.1125,27.4865c0.7632-2.3255,1.2535-6.9692-3.2786-9.4538c-4.2969-2.3555-10.071-2.2479-11.69-1.1985
			c-1.4211,0.9211-1.8824,2.5479-0.938,4.3638c0,0-0.8732,1.9241-1.1716,3.663c-0.0591,0.3444,0.0916,1.0967,0,1.5042
			l-2.7742,3.2184c-0.2789,0.4289-0.158,1.0046,0.2693,1.2828l1.5645,0.7974c0,0,0,2.4266,0,4.3581
			c0,1.7601,1.3788,2.9927,2.8162,2.8028c1.4321-0.1892,5.05-0.9901,5.05-0.9901c0.0139,0.0231,0.0517,0.1105-0.0792,0.1826
			l-2.4593,1.2781L49.3611,42h9.988c0,0-0.9269-3.8128-0.8465-5.0807C58.6862,34.0276,61.2246,30.1919,62.1125,27.4865z"/>
	</g>
</g>
</svg>
