<svg height="64" viewBox="0 0 64 64" width="64" xmlns="http://www.w3.org/2000/svg"><path d="m0 0h64v64h-64z" fill="none"/><path d="m25.7659 40.3497c-1.6213-.9319-4.1237-1.7061-5.4611-2.0645-.3766-.11-.6323-.4372-.7361-.8088-.1348-.4822-.1752-1.0894-.1752-1.0894 1.0024-1.1575 1.746-2.5481 2.0027-4.3698.8938-.2758 1.1534-1.296 1.2012-2.0725 1.4399-.2129 2.8746-.4727 4.2947-.8209.4534-.1168.6654-.7297.3273-.962-3.6068-2.5167-7.2953-7.0467-10.9871-11.2208-.2675-.3026-.6702-.3026-.9376 0-3.6917 4.174-7.3802 8.704-10.9871 11.2208-.3384.2324-.1259.8452.3273.962 1.408.3452 2.8305.6031 4.258.8154.0469.7772.3054 1.8015 1.2015 2.078.2261 1.8841.9574 3.217 1.9394 4.3293 0 0-.0243.5695-.132 1.1108-.0778.3906-.3259.7261-.7128.8333-1.586.4391-5.3318 1.5806-6.5672 2.8695-1.5769 1.6448-1.7046 7.8399-1.7046 7.8399h19.0448c.6309-2.924 1.6364-6.3434 3.1005-7.9443.1959-.2145.436-.4528.7034-.706z"/><path d="m58.2222 42.5402c-.9185-1.0049-2.7824-2.4987-4.6464-3.9016-5.1081 7.0327-11.8787 10.779-20.1147 12.0461-.5128.0789-.4706-.1902-.4706-.1902 6.4062-2.194 14.1446-6.0922 17.4461-12.0446 1.9409-3.4992 3.173-8.1119 3.173-12.8166 0-8.142-4.9946-13.6333-11.1556-13.6333s-11.1556 5.4913-11.1556 13.6332c0 8.2736 3.7405 16.3032 8.7391 18.3182-.0238.1318-.1741.1541-.3849.1131-3.3236-.6465-5.8831-3.0579-7.8815-5.7546-2.0043 1.4938-4.0945 3.1462-5.0853 4.2303-2.1978 2.4044-3.3557 11.4598-3.3557 11.4598h38.2478s-1.1579-9.0554-3.3557-11.4598zm-22.7188-12.2491c-.6568-3.9091-.1837-6.86-.1837-6.86s2.3549-1.4636 7.1347-1.4636c4.779 0 7.1343 1.4636 7.1343 1.4636s.4731 2.9509-.1841 6.86c-.4957 2.9518-2.734 7.9316-6.9502 7.9316-4.2167.0001-6.4549-4.9798-6.951-7.9316z"/></svg>