<svg height="64" viewBox="0 0 64 64" width="64" xmlns="http://www.w3.org/2000/svg"><path d="m0 0h64v64h-64z" fill="none"/><path d="m0 0h64v64h-64z" fill="none"/><path d="m40.5 11.9775c3.1366 0 4.952-1.9437 4.952-5.3887 0-3.2696-1.7337-5.5663-4.952-5.5663-3.0549 0-4.952 1.9427-4.952 5.5663 0 3.1793 1.8149 5.3887 4.952 5.3887z"/><path d="m41 14h-18c-11.0306 0-10.9665 6.92-10.9665 21.0591.2096 3.0518 2.4543 3.92 3.8006 3.92 0-.1417 0-1.6151 0-3.0491 0-.7156 0-5.5918 0-6.1175 0-3.4489.3357-6.1401.7565-7.4819.1282-.4087.4094-.3306.4094-.3306v15.9998 25.0002s4.8654.0391 5.2372-5.0498c0 0 .7277-19.2431.7359-19.457s.1675-.4932.5269-.4932.5083.2793.5165.4932.7308 19.3173.7308 19.3173c.2888 5.2383 5.2527 5.1895 5.2527 5.1895v-25.0002-18.3535c0-.2761.24-.407.5-.5.2344-.0838.5781-.1463 1.5-.1463s1.2656.0625 1.5.1463c.26.093.5.2239.5.5v18.3535 25.0002s4.9639.0488 5.2527-5.1895c0 0 .7226-19.1034.7308-19.3173s.1571-.4932.5165-.4932.5187.2793.5269.4932.7359 19.457.7359 19.457c.3718 5.0889 5.2372 5.0498 5.2372 5.0498v-25.0002-15.9998s.2812-.0781.4094.3306c.4208 1.3418.7565 4.033.7565 7.4819v6.1175 3.0491c1.3463 0 3.591-.8682 3.8006-3.92 0-14.1391.0641-21.0591-10.9665-21.0591z"/><path d="m23.5 11.9775c3.1371 0 4.952-2.2094 4.952-5.3887 0-3.6236-1.8972-5.5663-4.952-5.5663-3.2183 0-4.952 2.2968-4.952 5.5663 0 3.445 1.8154 5.3887 4.952 5.3887z"/></svg>