<?xml version="1.0" encoding="utf-8"?>
<!-- Generator: Adobe Illustrator 17.1.0, SVG Export Plug-In . SVG Version: 6.00 Build 0)  -->
<svg version="1.2" baseProfile="tiny" xmlns="http://www.w3.org/2000/svg" xmlns:xlink="http://www.w3.org/1999/xlink" x="0px"
	 y="0px" width="64px" height="64px" viewBox="0 0 64 64" xml:space="preserve">
<g id="_x36_4px_Boxes">
	<rect fill="none" width="64" height="64"/>
</g>
<g id="Production">
	<path d="M51.7886,43.6182c-1.1527-1.2612-3.4918-3.1357-5.8311-4.8964c-6.4105,8.8259-14.9074,13.5274-25.2434,15.1175
		c-0.6435,0.099-0.5906-0.2387-0.5906-0.2387c8.0396-2.7534,17.7511-7.6456,21.8944-15.1157C44.4537,34.0935,46,28.3046,46,22.4004
		C46,12.1826,39.7319,5,32,5c-7.7319,0-14,7.1826-14,17.4004c0,10.3831,4.6942,20.4601,10.9674,22.9889
		c-0.0299,0.1654-0.2186,0.1934-0.483,0.1419c-4.1711-0.8113-7.3831-3.8375-9.8911-7.222
		c-2.5154,1.8747-5.1385,3.9485-6.3819,5.3089C9.4531,46.6357,8,58,8,58h48C56,58,54.5469,46.6357,51.7886,43.6182z
		 M23.0466,19.6368c0,0,2.9554-1.8368,8.9539-1.8368c5.9975,0,8.9533,1.8368,8.9533,1.8368s0.5938,3.7034-0.231,8.6092
		c-0.6221,3.7044-3.4311,9.954-8.7223,9.954c-5.2918,0-8.1007-6.2496-8.7233-9.954C22.4529,23.3402,23.0466,19.6368,23.0466,19.6368
		z"/>
</g>
</svg>
