<?xml version="1.0" encoding="utf-8"?>
<!-- Generator: Adobe Illustrator 18.1.1, SVG Export Plug-In . SVG Version: 6.00 Build 0)  -->
<svg version="1.2" baseProfile="tiny" xmlns="http://www.w3.org/2000/svg" xmlns:xlink="http://www.w3.org/1999/xlink" x="0px"
	 y="0px" width="64px" height="64px" viewBox="0 0 64 64" xml:space="preserve">
<g id="Box">
	<rect fill="none" width="64" height="64"/>
</g>
<g id="Icon">
	<g>
		<path d="M46.7615,44.9426c-2.1252-3.3011-4.1986-3.2672-6.1858-6.1484c-0.1371-0.1989-0.4433-0.1585-0.5198,0.0706
			c-0.4758,1.4248-1.4308,5.3345,1.0547,8.4954c3.0994,3.9414,5.872,3.9916,6.1333,7.3367
			C47.244,54.6969,49.5467,49.2686,46.7615,44.9426z"/>
		<path d="M61.1703,40.1295c-0.0101-0.3126-0.4379-0.395-0.5631-0.1083c-2.6235,6.0055-7.5997,5.3015-9.278,12.1214
			c-0.0666-0.0135-0.2363-0.0802-0.191-0.4183c0.1785-1.3315,0.5495-3.1122,1.2646-5.066
			c-0.1157-0.5526-0.2543-1.1147-0.4297-1.6955c-0.6559-2.3367-1.0599-3.9145-0.9171-5.598
			c8.1089,0.567,7.3523-10.4619,7.1334-12.5692c-0.0192-0.1841-0.1995-0.3008-0.3764-0.2465
			c-1.8562,0.5705-5.2192,2.0856-8.7554,6.8449c-0.0971,0.0014-0.1613-0.0718-0.0969-0.2583
			c1.0917-3.1619,3.3995-5.8295,5.2117-6.8253c0,0-0.172-0.3633-0.5988-0.8517c-0.0717-0.0821-0.1814-0.1169-0.287-0.0899
			c-1.2189,0.3117-3.1149,1.3988-3.1149,1.3988s-0.2924-1.6257-0.6567-2.8785c-0.0608-0.209-0.318-0.2847-0.4775-0.1366
			c-2.4291,2.2553-8.6321,10.2278-0.3586,14.9014c-0.6196,3.2711-0.0036,4.304,0.6486,8.1568
			c0.9516,4.6895-1.4537,9.2535-2.5688,11.6047c-0.7009,1.4777,0.2576,1.9894,1.1729,2.4012
			c0.9886,0.4449,1.9019,0.4254,2.3049-0.5811c0.3339-0.8338,0.6372-1.6268,0.9139-2.3957c0.095-0.2112,0.207-0.4814,0.344-0.8322
			c1.5159-3.8813,5.1194-3.4913,7.4418-7.0017C61.2579,46.4963,61.2778,43.4717,61.1703,40.1295z"/>
		<path d="M42.7192,53.0723c-1.0503-0.835-2.4883-1.9775-3.9668-3.8574c-1.6336-2.0774-2.1956-4.332-2.2707-6.3304
			c-5.8997,6.1714-13.1994,9.6367-21.7677,10.9549c-0.6434,0.099-0.5906-0.2387-0.5906-0.2387
			c8.0396-2.7534,17.7511-7.6456,21.8944-15.1157C38.4537,34.0935,40,28.3046,40,22.4004C40,12.1826,33.7319,5,26,5
			c-7.7319,0-14,7.1826-14,17.4004c0,10.3831,4.6942,20.4601,10.9674,22.9889c-0.0299,0.1654-0.2186,0.1934-0.483,0.142
			c-4.1711-0.8113-7.3831-3.8375-9.8911-7.222c-2.5154,1.8747-5.1385,3.9485-6.3819,5.3089C3.4531,46.6357,2,58,2,58h41.6327
			c0.1588-0.2411,0.3575-0.7485,0.5341-1.118C44.5999,55.4147,43.8746,53.9911,42.7192,53.0723z M17.2772,28.246
			c-0.8243-4.9058-0.2306-8.6092-0.2306-8.6092S20.002,17.8,26.0005,17.8c5.9975,0,8.9533,1.8368,8.9533,1.8368
			s0.5938,3.7034-0.231,8.6092c-0.6221,3.7044-3.4311,9.954-8.7223,9.954C20.7087,38.2,17.8998,31.9504,17.2772,28.246z"/>
	</g>
</g>
</svg>
