<svg enable-background="new 0 0 64 64" height="64" viewBox="0 0 64 64" width="64" xmlns="http://www.w3.org/2000/svg"><path d="m0 0h64v64h-64z" fill="none"/><path d="m52.6 44.1c-1.6-1.7-5.2-3.3-8.3-4.4 0 0-.2-.8-.6-1.3-1.1-1.2-3-1.1-3.3-3.2-.1-.6.1-1.3.5-1.8 3.3-4.3 4.4-6.9 5.1-11.2.9-5-.1-11.1-2.4-14-2.6-3.1-6.6-4.2-11.6-4.2s-9 1.1-11.6 4.3c-2.4 2.9-3.3 9-2.4 14 .7 4.2 1.9 6.9 5.1 11.2.4.5.6 1.2.5 1.8-.3 2.1-2.2 2.1-3.3 3.2-.5.5-.6 1.3-.6 1.3-.2.1 3.8 4 12.3 4.5.1.2-.1.3-.3.4-4.7 1.2-9.8-.5-14.4-3.9-2.3.9-4.7 2.2-5.8 3.4-3 3-4.5 14.8-4.5 14.8h50s-1.5-11.8-4.4-14.9zm-27.8-20.4c-1.2-.9-2.6-3.1-1.3-4.3s6 .2 6.2 2.5-2.8 3.3-4.9 1.8zm7.5 10.3c-1.8 0-3.2-1.1-3.2-2.4s1.4-2.4 3.2-2.4 3.2 1.1 3.2 2.4-1.4 2.4-3.2 2.4zm6.9-10.3c-2.1 1.5-5.1.5-4.9-1.8.2-2.4 4.9-3.8 6.2-2.5s-.1 3.5-1.3 4.3z"/></svg>