<svg height="64" viewBox="0 0 64 64" width="64" xmlns="http://www.w3.org/2000/svg"><path d="m0 0h64v64h-64z" fill="none"/><path d="m46.7615 44.9426c-2.1252-3.3011-4.1986-3.2672-6.1858-6.1484-.1371-.1989-.4433-.1585-.5198.0706-.4758 1.4248-1.4308 5.3345 1.0547 8.4954 3.0994 3.9414 5.872 3.9916 6.1333 7.3367.0001 0 2.3028-5.4283-.4824-9.7543z"/><path d="m61.1703 40.1295c-.0101-.3126-.4379-.395-.5631-.1083-2.6235 6.0055-7.5997 5.3015-9.278 12.1214-.0666-.0135-.2363-.0802-.191-.4183.1785-1.3315.5495-3.1122 1.2646-5.066-.1157-.5526-.2543-1.1147-.4297-1.6955-.6559-2.3367-1.0599-3.9145-.9171-5.598 8.1089.567 7.3523-10.4619 7.1334-12.5692-.0192-.1841-.1995-.3008-.3764-.2465-1.8562.5705-5.2192 2.0856-8.7554 6.8449-.0971.0014-.1613-.0718-.0969-.2583 1.0917-3.1619 3.3995-5.8295 5.2117-6.8253 0 0-.172-.3633-.5988-.8517-.0717-.0821-.1814-.1169-.287-.0899-1.2189.3117-3.1149 1.3988-3.1149 1.3988s-.2924-1.6257-.6567-2.8785c-.0608-.209-.318-.2847-.4775-.1366-2.4291 2.2553-8.6321 10.2278-.3586 14.9014-.6196 3.2711-.0036 4.304.6486 8.1568.9516 4.6895-1.4537 9.2535-2.5688 11.6047-.7009 1.4777.2576 1.9894 1.1729 2.4012.9886.4449 1.9019.4254 2.3049-.5811.3339-.8338.6372-1.6268.9139-2.3957.095-.2112.207-.4814.344-.8322 1.5159-3.8813 5.1194-3.4913 7.4418-7.0017 2.3217-3.5096 2.3416-6.5342 2.2341-9.8764z"/><path d="m42.7192 53.0723c-1.0503-.835-2.4883-1.9775-3.9668-3.8574-1.6336-2.0774-2.1956-4.332-2.2707-6.3304-5.8997 6.1714-13.1994 9.6367-21.7677 10.9549-.6434.099-.5906-.2387-.5906-.2387 8.0396-2.7534 17.7511-7.6456 21.8944-15.1157 2.4359-4.3915 3.9822-10.1804 3.9822-16.0846 0-10.2178-6.2681-17.4004-14-17.4004s-14 7.1826-14 17.4004c0 10.3831 4.6942 20.4601 10.9674 22.9889-.0299.1654-.2186.1934-.483.142-4.1711-.8113-7.3831-3.8375-9.8911-7.222-2.5154 1.8747-5.1385 3.9485-6.3819 5.3089-2.7583 3.0175-4.2114 14.3818-4.2114 14.3818h41.6327c.1588-.2411.3575-.7485.5341-1.118.4331-1.4673-.2922-2.8909-1.4476-3.8097zm-25.442-24.8263c-.8243-4.9058-.2306-8.6092-.2306-8.6092s2.9554-1.8368 8.9539-1.8368c5.9975 0 8.9533 1.8368 8.9533 1.8368s.5938 3.7034-.231 8.6092c-.6221 3.7044-3.4311 9.954-8.7223 9.954-5.2918 0-8.1007-6.2496-8.7233-9.954z"/></svg>