<svg height="64" viewBox="0 0 64 64" width="64" xmlns="http://www.w3.org/2000/svg"><path d="m0 0h64v64h-64z" fill="none"/><path d="m34.402 49.1989c-1.2368-2.0673-.7949-4.6909 1.0449-6.2332.8765-.7386 1.9905-1.1454 3.137-1.1454 1.1709.0001 2.304.4222 3.1928 1.1907l4.277 3.7048 3.0823-3.4485c-2.9995-1.8379-8.1375-3.3781-10.6855-4.0729-.8296-.2263-1.388-.9312-1.5748-1.7697-.165-.7413-.2528-1.5912-.2528-1.5912 1.9705-2.1989 3.4323-4.8547 3.9279-8.3641 1.8842-.5801 2.2612-2.9305 2.2612-4.396 0-1.4649-.2583-2.2576-.7847-2.5033-.2539-.118-.5019-.1171-.7225-.0702.1895-3.0522.3781-9.0999-.8952-11.3724-1.3922-2.4843-3.2437-3.1286-6.4691-2.3166-2.1156-1.1213-3.556-2.2304-7.2625-1.2207-2.5754.7013-5.394 1.8468-6.8794 3.7578-1.6025 2.0623-1.2936 8.077-1.0229 11.1665-.2387-.0652-.5188-.0768-.8032.0555-.5266.2457-.7847 1.0384-.7847 2.5033 0 1.4655.3768 3.8159 2.2612 4.396.6046 5.0267 3.1218 7.968 6.2201 10.574.8185.6888 2.293 1.0502 3.8276 1.1185.1393.2487.1393.5441-.4113.7256-.921.3037-3.8015.7333-6.9056-.8805-.0258-.0134-.0441-.0256-.0693-.0388-2.3179.6212-10.3227 2.9102-12.8148 5.5321-2.9136 3.0639-4.0466 14.4998-4.0466 14.4998h35.0258z"/><path d="m59.2728 38.3535c-.7489-.5532-1.7932-.4464-2.4125.2461l-10.54 11.9218-6.333-5.4857c-.6699-.5791-1.6584-.5869-2.3334-.018-.6777.5681-.8409 1.5436-.3874 2.3016l7.6714 12.8028c.3239.5402.9069.8719 1.5366.8739h.0065c.627 0 1.2101-.3272 1.5366-.8642l11.7203-19.3995c.4832-.7943.2812-1.8257-.4651-2.3788z"/></svg>