<svg height="64" viewBox="0 0 64 64" width="64" xmlns="http://www.w3.org/2000/svg"><path d="m0 0h64v64h-64z" fill="none"/><path d="m34.7568 35.8263c-.8638-.6501-1.0067-1.7616-1.134-2.9929 1.9705-2.1989 3.4323-4.8547 3.9279-8.3641 1.8842-.5801 2.2612-2.9305 2.2612-4.396 0-1.4649-.2583-2.2576-.7848-2.5033-.2539-.118-.5018-.1171-.7225-.0702.1895-3.0522.3782-9.0999-.8952-11.3724-1.3922-2.4843-3.2437-3.1286-6.4691-2.3166-2.1156-1.1213-3.556-2.2304-7.2625-1.2207-2.5754.7013-5.394 1.8468-6.8794 3.7578-1.6025 2.0623-1.2936 8.077-1.0229 11.1665-.2388-.0652-.5189-.0768-.8032.0555-.5266.2457-.7847 1.0384-.7847 2.5033 0 1.4655.3768 3.8159 2.2611 4.396.6047 5.0267 3.1218 7.968 6.2201 10.574.8186.6888 2.293 1.0502 3.8276 1.1185.1393.2487.1393.5441-.4113.7256-.9209.3037-3.8015.7333-6.9056-.8805-.0258-.0134-.044-.0256-.0693-.0388-2.3179.6212-10.3226 2.9102-12.8148 5.5321-2.9133 3.064-4.0463 14.4999-4.0463 14.4999h28.8019c-.0205-.2255-.051-.4487-.051-.6786v-3.6548c0-.9136.1678-1.8062.5006-2.669-.3328-.8673-.5006-1.7623-.5006-2.6762v-3.6548c0-2.6494 1.3892-5.0142 3.7568-6.8403z"/><path d="m45.8542 44.7261v.6766h1.5551v-.5565c.3053.0191.6703.0191 1.016.0191h.384v.5374h1.5168v-.6166c2.7834-.2999 4.1094-1.2643 4.1094-2.6701 0-.5469-.0571-.7845-.3076-1.3435h-2.0559c.2123.5182.2886.7773.2886 1.2546 0 .6166-.5938 1.1155-2.0344 1.334v-1.7634h-1.5168v1.8928c-.1907.0096-.384.0193-.6128.0193-.2697 0-.52-.0098-.7872-.0193v-1.8928h-1.5551v1.7538c-1.4023-.2089-2.1322-.6575-2.1322-1.3748 0-.4078.0763-.6454.2479-1.1539h-2.168c-.174.4269-.2312.7269-.2312 1.1226 0 1.4157 1.4404 2.4208 4.2834 2.7807z"/><path d="m48.0012 54c7.8499 0 13.9988-3.3747 13.9988-7.6786 0-.6324 0-3.0202 0-3.6548 0-4.2993-6.1489-7.6666-13.9988-7.6666-7.852 0-14.0012 3.3673-14.0012 7.6666v3.6548c0 .9493.3142 1.8492.865 2.6819-.553.8255-.865 1.7191-.865 2.6633v3.6548c0 4.3039 6.1492 7.6786 14.0012 7.6786 7.8499 0 13.9988-3.3747 13.9988-7.6786v-3.6548c0-.2049-.0266-.4056-.0542-.606-.7144.8958-4.5718 5.1376-13.6127 5.1376-8.0173 0-10.7806-3.8577-11.0668-4.3807-.1169-.2137-.2019-.4362-.0765-.5667 2.5482 1.6889 6.4118 2.7492 10.8114 2.7492zm-11.3-11c0-2.8444 5.0601-5.15 11.302-5.15s11.302 2.3057 11.302 5.15-5.0601 5.15-11.302 5.15-11.302-2.3057-11.302-5.15z"/></svg>