<?xml version="1.0" encoding="utf-8"?>
<!-- Generator: Adobe Illustrator 19.1.0, SVG Export Plug-In . SVG Version: 6.00 Build 0)  -->
<svg version="1.2" baseProfile="tiny" xmlns="http://www.w3.org/2000/svg" xmlns:xlink="http://www.w3.org/1999/xlink" x="0px"
	 y="0px" width="64px" height="64px" viewBox="0 0 64 64" xml:space="preserve">
<g id="Box">
	<rect fill="none" width="64" height="64"/>
</g>
<g id="Icon">
	<g>
		<path d="M47.0204,31.4901c-1.6269-1.7125-6.6558-3.2328-8.9011-3.8457c-0.601-0.1636-1.0049-0.6749-1.1401-1.2828
			c-0.1198-0.5369-0.1832-1.1533-0.1832-1.1533c1.4263-1.5934,2.4849-3.519,2.8442-6.0624
			c1.3643-0.4207,1.6373-2.1241,1.6373-3.1862s-0.1873-1.6366-0.5683-1.8149c-0.1838-0.085-0.3635-0.0843-0.523-0.0508
			c0.1365-2.2119,0.2737-6.5959-0.6484-8.243c-1.0085-1.8003-2.3491-2.2676-4.6843-1.6791
			c-1.5321-0.8127-2.5754-1.6165-5.2588-0.8845c-1.8651,0.5084-3.9063,1.3385-4.9816,2.7238
			c-1.1603,1.4945-0.9367,5.8542-0.7403,8.0939c-0.1735-0.0474-0.3761-0.0557-0.5823,0.0397
			c-0.3809,0.1783-0.5676,0.7528-0.5676,1.8149s0.2723,2.7656,1.6373,3.1862c0.4374,3.6437,2.2599,5.7755,4.5038,7.6642
			c0.5927,0.4994,1.6603,0.7612,2.7711,0.8107c0.101,0.1804,0.101,0.3942-0.2974,0.5265c-0.6672,0.2201-2.7531,0.5314-5.0004-0.6386
			c-0.0188-0.0098-0.032-0.0188-0.0502-0.0278c-1.6784,0.4499-7.4748,2.1095-9.2793,4.0093C14.8987,33.711,14.0783,42,14.0783,42
			h35.8434C49.9218,42,49.1299,33.711,47.0204,31.4901z"/>
		<path d="M36.9065,52.6292l-2.9111,1.9237l0.0049-6.0181c0-1.0972-0.8895-1.324-1.986-1.324c-1.0972,0-1.986,0.2267-1.986,1.324
			l-0.014,6.0971l-2.967-1.7494c-0.5543-0.3275-1.2631-0.2051-1.6781,0.2848c-0.4156,0.4919-0.4163,1.2106-0.0013,1.7025
			l5.6718,6.8956c0.2582,0.3065,0.6417,0.4794,1.0433,0.4689c0.401-0.0098,0.7753-0.2023,1.0175-0.522l5.5848-7.1852
			c0.3891-0.5123,0.352-1.2302-0.0881-1.6998C38.157,52.3605,37.4439,52.2744,36.9065,52.6292z"/>
		<path d="M56.838,53.2958l-3.7717-8.282c-0.2731-0.5824-0.9263-0.8829-1.5464-0.7109c-0.6177,0.1732-1.025,0.7648-0.9602,1.4055
			l0.3525,3.4714l-5.3281-2.7979c-0.9719-0.5093-1.5855,0.1732-2.0945,1.1444c-0.5093,0.9719-0.7211,1.8643,0.2508,2.3736
			l5.3939,2.8427l-2.9268,1.8159c-0.5474,0.3389-0.7679,1.0236-0.5267,1.6185c0.2427,0.5966,0.879,0.9308,1.5073,0.7916
			l8.7404-1.8227c0.3914-0.0864,0.7225-0.3459,0.8996-0.7065C57.0055,54.0797,57.0088,53.6588,56.838,53.2958z"/>
		<path d="M18.416,46.3819l-5.3281,2.7979l0.3525-3.4714c0.0648-0.6407-0.3425-1.2324-0.9602-1.4055
			c-0.6202-0.1719-1.2734,0.1285-1.5464,0.7109l-3.7718,8.282c-0.1708,0.3629-0.1675,0.7838,0.0099,1.1435
			c0.1772,0.3607,0.5082,0.6201,0.8996,0.7065l8.7404,1.8227c0.6284,0.1392,1.2646-0.195,1.5074-0.7916
			c0.2412-0.5949,0.0206-1.2796-0.5267-1.6185l-2.9268-1.8159l5.3939-2.8427c0.9719-0.5093,0.7601-1.4017,0.2508-2.3736
			C20.0016,46.5551,19.3879,45.8726,18.416,46.3819z"/>
	</g>
</g>
</svg>
