<?xml version="1.0" encoding="utf-8"?>
<!-- Generator: Adobe Illustrator 18.1.1, SVG Export Plug-In . SVG Version: 6.00 Build 0)  -->
<svg version="1.2" baseProfile="tiny" xmlns="http://www.w3.org/2000/svg" xmlns:xlink="http://www.w3.org/1999/xlink" x="0px"
	 y="0px" width="64px" height="64px" viewBox="0 0 64 64" xml:space="preserve">
<g id="Box">
	<rect fill="none" width="64" height="64"/>
</g>
<g id="Icon">
	<g>
		<path d="M15.5002,11.9775c3.1371,0,4.952-2.2094,4.952-5.3887c0-3.6236-1.8971-5.5663-4.952-5.5663
			c-3.2183,0-4.952,2.2967-4.952,5.5663C10.5482,10.0338,12.3636,11.9775,15.5002,11.9775z"/>
		<path d="M21.0245,14.7021c-3.3369-0.7958-7.8055-0.7958-11.0487,0c-6.362,1.5612-5.9421,11.6472-5.9421,20.357
			c0.2096,3.0518,2.4544,3.92,3.8006,3.92c0-0.1417,0-1.6151,0-3.0491c0-0.7156,0-5.5918,0-6.1175
			c0-3.4489,0.3357-6.1401,0.7565-7.4819C8.719,21.9219,9.0002,22,9.0002,22v15.9998V63c0,0,4.8654,0.0391,5.2372-5.0498
			c0,0,0.7277-19.2431,0.7359-19.457C14.9815,38.2793,15.1408,38,15.5002,38c0.3594,0,0.5082,0.2793,0.5165,0.4932
			c0.0082,0.2139,0.7308,19.3173,0.7308,19.3173C17.0363,63.0488,22,63,22,63l0.0002-41c0,0,0.3024-0.1048,0.4493,0.3306
			c0.4062,1.2031,0.7166,4.033,0.7166,7.435c0,0.7024,0,5.7442,0,6.5186c0,1.4331,0,2.6949,0,2.6949
			c1.3462,0,3.5612-0.837,3.8007-3.92C26.9668,26.3493,27.3966,16.2219,21.0245,14.7021z"/>
		<path d="M46.5273,11.9775c3.1371,0,4.952-2.2094,4.952-5.3887c0-3.6236-1.8972-5.5663-4.952-5.5663
			c-3.2183,0-4.952,2.2967-4.952,5.5663C41.5753,10.0338,43.3907,11.9775,46.5273,11.9775z"/>
		<path d="M52.0516,14.7021c-2.8736-0.6853-6.4049-0.8711-9.3957-0.3787c-1.7562,0.2892-2.4893,0.5655-4.3782,2.0099
			c-1.6711,1.2779-3.4254,2.6276-3.9193,3.065c-0.9633-0.7522-3.2231-2.966-4.1036-3.8136
			c-2.4553-2.4085-5.1251-1.1443-5.8123-0.7507c0.8218,1.0007,5.8877,6.7012,7.28,7.8882c1.4464,1.233,2.5711,1.7891,4.3912,0.6738
			c1.5529-0.9516,2.7751-1.896,3.9136-2.5596v17.1633V63c0,0,4.8654,0.0391,5.2372-5.0498c0,0,0.7277-19.2431,0.7359-19.457
			C46.0086,38.2793,46.1679,38,46.5273,38c0.3594,0,0.5083,0.2793,0.5165,0.4932c0.0082,0.2139,0.7308,19.3173,0.7308,19.3173
			C48.0634,63.0488,53,63,53,63V22c0,0,0.3297-0.1048,0.4767,0.3306c0.4062,1.2031,0.7165,4.033,0.7165,7.435
			c0,0.7024,0,9.2135,0,9.2135c1.3462,0,3.5112-0.837,3.7507-3.92C57.9439,26.3493,58.4237,16.2219,52.0516,14.7021z"/>
	</g>
</g>
</svg>
