<?xml version="1.0" encoding="utf-8"?>
<!-- Generator: Adobe Illustrator 19.1.0, SVG Export Plug-In . SVG Version: 6.00 Build 0)  -->
<svg version="1.2" baseProfile="tiny" xmlns="http://www.w3.org/2000/svg" xmlns:xlink="http://www.w3.org/1999/xlink" x="0px"
	 y="0px" width="64px" height="64px" viewBox="0 0 64 64" xml:space="preserve">
<g id="_x36_4px_Box">
	<rect fill="none" width="64" height="64"/>
</g>
<g id="Icon">
	<g>
		<path d="M43.5272,11.9775c3.1371,0,4.952-2.2094,4.952-5.3887c0-3.6236-1.8972-5.5663-4.952-5.5663
			c-3.2183,0-4.952,2.2967-4.952,5.5663C38.5751,10.0338,40.3906,11.9775,43.5272,11.9775z"/>
		<path d="M18.5002,11.9775c3.1371,0,4.952-2.2094,4.952-5.3887c0-3.6236-1.8971-5.5663-4.952-5.5663
			c-3.2183,0-4.952,2.2967-4.952,5.5663C13.5482,10.0338,15.3636,11.9775,18.5002,11.9775z"/>
		<path d="M49.0515,14.7021c-2.8735-0.6853-6.4049-0.8712-9.3957-0.3787c-1.7562,0.2892-2.4893,0.5654-4.3782,2.0099
			c-0.7312,0.5591-2.4291,2.0653-4.149,3.6193c0.4202,1.5712,0.6813,3.291,0.8307,5.0953c2.2311-1.9188,4.4741-3.8654,5.0679-4.2114
			v17.1633V63c0,0,4.8654,0.0391,5.2372-5.0498c0,0,0.7277-19.2431,0.7359-19.457C43.0084,38.2793,43.1677,38,43.5272,38
			c0.3594,0,0.5083,0.2793,0.5165,0.4932c0.0082,0.2139,0.7308,19.3173,0.7308,19.3173C45.0632,63.0488,49.9998,63,49.9998,63V22
			c0,0,0.3297-0.1048,0.4767,0.3306c0.4062,1.2031,0.7165,4.033,0.7165,7.435c0,0.7024,0,9.2135,0,9.2135
			c1.3462,0,3.5112-0.837,3.7507-3.92C54.9437,26.3493,55.4235,16.2219,49.0515,14.7021z"/>
		<path d="M24.0245,14.7021c-3.3369-0.7958-7.8055-0.7958-11.0487,0c-6.362,1.5612-5.9421,11.6472-5.9421,20.357
			c0.2096,3.0518,2.4544,3.92,3.8006,3.92c0-0.1417,0-1.6151,0-3.0491c0-0.7156,0-5.5918,0-6.1175
			c0-3.4489,0.3357-6.1401,0.7565-7.4819C11.719,21.9219,12.0002,22,12.0002,22v15.9998V63c0,0,4.8654,0.0391,5.2372-5.0498
			c0,0,0.7277-19.2431,0.7359-19.457C17.9815,38.2793,18.1408,38,18.5002,38c0.3594,0,0.5082,0.2793,0.5165,0.4932
			c0.0082,0.2139,0.7308,19.3173,0.7308,19.3173C20.0363,63.0488,25,63,25,63l0.0002-41c0,0,0.3024-0.1048,0.4493,0.3306
			c0.4062,1.2031,0.7166,4.033,0.7166,7.435c0,0.7024,0,5.7442,0,6.5186c0,1.4331,0,2.6949,0,2.6949
			c1.3462,0,3.5612-0.837,3.8007-3.92C29.9668,26.3493,30.3966,16.2219,24.0245,14.7021z"/>
	</g>
</g>
</svg>
