<svg height="64" viewBox="0 0 64 64" width="64" xmlns="http://www.w3.org/2000/svg"><path d="m0 0h64v64h-64z" fill="none"/><path d="m40.646 48.9101c-1.4254 4.241-5.4249 7.2999-10.146 7.2999-5.9148 0-10.71-4.7953-10.71-10.71 0-2.699 1.006-5.1579 2.6537-7.0414-.6058-1.0335-.9437-2.2056-.9437-3.4586 0-.0228.0067-.3414.0281-.8768-3.3626 2.6555-5.5281 6.7597-5.5281 11.3768 0 8.0078 6.4922 14.5 14.5 14.5 4.9483 0 9.3125-2.483 11.9291-6.2668l-.6376-1.7566c-.3533-.9525-.738-1.988-1.1455-3.0665z"/><path d="m45.26 36.6445c-.7517-1.7844-1.368-2.262-2.7201-2.8528-2.019-.8-5.8604-1.6381-7.996-2.0808.5216-3.2472.8648-6.3601 1.1195-8.2638.3278-2.4497.7105-3.9553-.5228-5.4836-1.6223-2.0104-5.0586-2.283-7.1311-1.2454-1 .3393-5.9092 3.0615-8.3821 5.5918-.8322.9114-1.1226 1.333-1.4719 2.0805-1.2512 2.7027-2.4494 7.5986-3.1555 10.4919 2.6969.6679 4.0974-1.69 4.4814-2.4728.7498-1.6975 1.6244-4.1941 2.5991-5.7735.5593-1.0573 1.9285-1.8345 3.0003-2.4598-.7008 3.86-.9955 8.2764-.9787 10.8238.0229 3.5 3.0229 5 5.8979 5s10.1078-.0059 10.1875 0c1 3.1875 2.8197 7.9996 3.7922 10.6366 1.8819 5.11 5.0073 4.6168 6.0203 4.3634-.9835-4.0272-3.2158-14.5303-4.74-18.3555z"/><path d="m34.0038 14.9189c2.9724.4776 5.0253-1.3388 5.504-4.3525.5458-3.4336-.9594-5.5635-3.8541-6.0293-3.0494-.4902-5.0381 1.4229-5.5305 4.5204-.5194 3.2648.909 5.3829 3.8806 5.8614z"/></svg>