<?xml version="1.0" encoding="utf-8"?>
<!-- Generator: Adobe Illustrator 19.1.0, SVG Export Plug-In . SVG Version: 6.00 Build 0)  -->
<svg version="1.2" baseProfile="tiny" xmlns="http://www.w3.org/2000/svg" xmlns:xlink="http://www.w3.org/1999/xlink" x="0px"
	 y="0px" width="64px" height="64px" viewBox="0 0 64 64" xml:space="preserve">
<g id="_x36_4px_Box">
	<rect fill="none" width="64" height="64"/>
</g>
<g id="Icon">
	<g>
		<path d="M42.9933,29.8043c4.6879,0,7.4-3.3465,7.4-8.1621c0-5.4886-2.8349-8.4312-7.4-8.4312c-4.8093,0-7.4,3.4788-7.4,8.4312
			C35.5933,26.8603,38.306,29.8043,42.9933,29.8043z"/>
		<path d="M20.9958,26.8339c4.6879,0,7.4-3.3464,7.4-8.1621c0-5.4886-2.835-8.4312-7.4-8.4312c-4.8093,0-7.4,3.4788-7.4,8.4312
			C13.5958,23.8898,16.3086,26.8339,20.9958,26.8339z"/>
		<path d="M57.1681,38.4933c-2.2674,1.1315-6.4059,2.8552-11.4757,3.4012C41.5463,42.3412,37.0049,42.2687,33,41.7887V54h19.7587
			l0.0001-8.9348c0,0,0.4579-0.1588,0.6806,0.5008c0.4986,1.4766,0.9016,4.5715,1.0366,8.434h5.7311
			C60.0057,48.0173,59.3209,42.279,57.1681,38.4933z"/>
		<path d="M45.4571,39.7072c4.1516-0.4471,7.652-1.7506,9.8662-2.7696c1.1043-0.5083,2.0433-1.0221,2.5436-1.3328
			c-0.6619-3.3093-4.9088-3.527-7.6665-3.1961s-6.4531,0.8273-11.8583,0.6067c-4.1417-0.169-6.4515-1.6315-10.8203-2.3805
			c-2.0305-0.3452-3.914-0.4877-5.9461-0.5171c-3.1395-0.0454-6.293,0.2491-8.9176,0.8931C4.9011,32.9144,3.8012,43.1852,3.6669,54
			h5.7475c0-0.0331,0-0.0791,0-0.1018c0-5.224,0.5085-9.3002,1.1459-11.3326c0.1941-0.619,0.6201-0.5008,0.6201-0.5008V54H31
			V40.4409c0-0.5514,0.4466-0.9982,0.9976-0.9995L32,39.4269v0.0045C32,39.4314,38.287,40.4793,45.4571,39.7072z"/>
	</g>
</g>
</svg>
