<?xml version="1.0" encoding="utf-8"?>
<!-- Generator: Adobe Illustrator 19.1.0, SVG Export Plug-In . SVG Version: 6.00 Build 0)  -->
<svg version="1.2" baseProfile="tiny" xmlns="http://www.w3.org/2000/svg" xmlns:xlink="http://www.w3.org/1999/xlink" x="0px"
	 y="0px" width="64px" height="64px" viewBox="0 0 64 64" xml:space="preserve">
<g id="_x36_4px_Box">
	<rect fill="none" width="64" height="64"/>
</g>
<g id="Icon">
	<g>
		<path d="M59.6741,41.106c-0.8181-0.8896-2.7186-1.7085-4.311-2.2789c0.0027-0.0031,2.5472-2.9199,2.3884-6.2623
			c-0.1292-2.7171-1.4601-3.9457-2.4087-6.6712c-1.0987-3.1569-2.1425-6.5828-6.5969-6.583h-0.0001h-0.0001
			c-2.7661,0.0001-4.216,1.322-5.1816,3.0793c0.8331,1.8549,1.4936,3.8437,1.6201,6.5057c0.1895,3.9882-1.3648,7.6392-2.781,10.0932
			c2.7781,1.2036,4.6964,2.4006,5.8288,3.6323c1.0818,1.1761,1.9631,3.5741,2.6691,6.379H62C62,49,61.1974,42.7622,59.6741,41.106z"
			/>
		<path d="M39.0925,40.035c1.2807-1.7227,4.1273-6.1296,3.8942-11.035c-0.2435-5.125-2.754-7.4424-4.5433-12.5833
			C36.371,10.4623,34.4023,4.0001,26.0003,4c-0.0001,0-0.0001,0-0.0001,0S26.0001,4,26,4
			c-8.402,0.0001-10.3707,6.4623-12.4431,12.4167C11.7676,21.5576,9.2571,23.875,9.0136,29
			c-0.2331,4.9051,2.6132,9.3118,3.894,11.0347c-2.8643,1.0614-6.0812,2.5104-7.5204,4.0757
			C3.5359,46.1231,2.2501,53.7942,1.5687,59h48.8625c-0.6813-5.2058-1.9672-12.8769-3.8185-14.8896
			C45.1735,42.545,41.9569,41.0963,39.0925,40.035z M26.6572,38.7596c3.1548,0.8349,5.4595-0.9139,5.4595-0.9139
			s0.2828,1.9133,0.2745,2.4157c0.3267,3.4883-3.5568,7.3169-6.0102,9.0784c-2.3004-1.75-6.5919-5.5302-6.1588-9.0224
			c0.237-1.9129,0.0408-0.5492,0.8235-5.4371c-2.1797-2.1061-3.9292-4.6455-4.076-7.6609
			c-1.7687,0.8932-3.3272,2.0303-4.5517,3.3783c-0.0526-0.0569-0.1642-0.1666,0.0292-0.4936
			c2.501-4.2287,7.8895-7.174,13.5527-7.174c5.6633,0,11.0518,2.9453,13.5528,7.174c0.1934,0.327,0.0817,0.4366,0.0292,0.4936
			c-1.222-1.3452-2.7764-2.4805-4.5405-3.373c-0.1779,3.5012-2.6202,6.179-5.323,8.4791c-0.7807,0.6644-2.2499,1.1066-3.7188,1.1055
			c-1.0628-0.0008-2.1255-0.2865-2.9271-0.6349C23.6862,37.105,24.7277,38.2489,26.6572,38.7596z"/>
	</g>
</g>
</svg>
