<svg height="64" viewBox="0 0 64 64" width="64" xmlns="http://www.w3.org/2000/svg"><path d="m0 0h64v64h-64z" fill="none"/><path d="m47.0204 31.4901c-1.6269-1.7125-6.6558-3.2328-8.9011-3.8457-.601-.1636-1.0049-.6749-1.1401-1.2828-.1198-.5369-.1832-1.1533-.1832-1.1533 1.4263-1.5934 2.4849-3.519 2.8442-6.0624 1.3643-.4207 1.6373-2.1241 1.6373-3.1862s-.1873-1.6366-.5683-1.8149c-.1838-.085-.3635-.0843-.523-.0508.1365-2.2119.2737-6.5959-.6484-8.243-1.0085-1.8003-2.3491-2.2676-4.6843-1.6791-1.5321-.8127-2.5754-1.6165-5.2588-.8845-1.8651.5084-3.9063 1.3385-4.9816 2.7238-1.1603 1.4945-.9367 5.8542-.7403 8.0939-.1735-.0474-.3761-.0557-.5823.0397-.3809.1783-.5676.7528-.5676 1.8149s.2723 2.7656 1.6373 3.1862c.4374 3.6437 2.2599 5.7755 4.5038 7.6642.5927.4994 1.6603.7612 2.7711.8107.101.1804.101.3942-.2974.5265-.6672.2201-2.7531.5314-5.0004-.6386-.0188-.0098-.032-.0188-.0502-.0278-1.6784.4499-7.4748 2.1095-9.2793 4.0093-2.1091 2.2208-2.9295 10.5098-2.9295 10.5098h35.8434c.0001 0-.7918-8.289-2.9013-10.5099z"/><path d="m36.9065 52.6292-2.9111 1.9237.0049-6.0181c0-1.0972-.8895-1.324-1.986-1.324-1.0972 0-1.986.2267-1.986 1.324l-.014 6.0971-2.967-1.7494c-.5543-.3275-1.2631-.2051-1.6781.2848-.4156.4919-.4163 1.2106-.0013 1.7025l5.6718 6.8956c.2582.3065.6417.4794 1.0433.4689.401-.0098.7753-.2023 1.0175-.522l5.5848-7.1852c.3891-.5123.352-1.2302-.0881-1.6998-.4402-.4668-1.1533-.5529-1.6907-.1981z"/><path d="m56.838 53.2958-3.7717-8.282c-.2731-.5824-.9263-.8829-1.5464-.7109-.6177.1732-1.025.7648-.9602 1.4055l.3525 3.4714-5.3281-2.7979c-.9719-.5093-1.5855.1732-2.0945 1.1444-.5093.9719-.7211 1.8643.2508 2.3736l5.3939 2.8427-2.9268 1.8159c-.5474.3389-.7679 1.0236-.5267 1.6185.2427.5966.879.9308 1.5073.7916l8.7404-1.8227c.3914-.0864.7225-.3459.8996-.7065.1774-.3597.1807-.7806.0099-1.1436z"/><path d="m18.416 46.3819-5.3281 2.7979.3525-3.4714c.0648-.6407-.3425-1.2324-.9602-1.4055-.6202-.1719-1.2734.1285-1.5464.7109l-3.7718 8.282c-.1708.3629-.1675.7838.0099 1.1435.1772.3607.5082.6201.8996.7065l8.7404 1.8227c.6284.1392 1.2646-.195 1.5074-.7916.2412-.5949.0206-1.2796-.5267-1.6185l-2.9268-1.8159 5.3939-2.8427c.9719-.5093.7601-1.4017.2508-2.3736-.5089-.9711-1.1226-1.6536-2.0945-1.1443z"/></svg>