<svg height="64" viewBox="0 0 64 64" width="64" xmlns="http://www.w3.org/2000/svg"><path d="m0 0h64v64h-64z" fill="none"/><path d="m26.3463 27.0058c-.1189-.4001-.2074-.8018-.2746-1.1795 1.0427-1.0524 1.6133-2.4441 1.9189-3.9136.3463-.1997.9081-.5134.9907-1.9666.093-1.6393-.1595-2.1233-.7627-2.0941.0775-.4243.0838-1.2302.0778-2.0949-.0066-.914-.0497-1.8936-.4189-2.5566-.4586-.8237-1.1031-1.3068-2.3599-1.0091-1.1002-.5289-2.1677-1.0972-4.1068-.6683-2.1852.4834-2.9572 1.2479-3.238 1.6774-.4122.6306-.4554 1.6015-.4515 2.5172.0038.8788-.0178 1.7069.0602 2.1343-.6032-.0292-.8557.4548-.7627 2.0941.0826 1.4532.6628 1.7669 1.009 1.9666.3056 1.4691.8392 2.8605 1.8814 3.9127.0008-.0046.0023-.0098.0031-.0144l-.0023.0153s-.0005-.0006-.0008-.0009c-.064.3781-.1438.7789-.2473 1.1775-1.4355.504-4.9572 1.8163-5.9882 2.9036-.167.176-.3235.4161-.47.6982 2.2741 2.9229 5.8147 4.8138 9.7963 4.8138s7.5222-1.8911 9.7963-4.8138c-.1465-.2822-.303-.5222-.47-.6982-1.0291-1.0853-4.5396-2.3946-5.98-2.9007z"/><path d="m58.0148 50.9437-16.8152-15.6736c-2.3177 2.0827-4.2292 2.8623-4.718 3.0359-.2803.0995-.4465.0338-.5031-.0891.325-.2805 2.5176-2.4482 3.7678-4.3015 2.0975-3.1092 3.2537-6.8849 3.2537-10.9154 0-11.0457-8.9543-20-20-20s-20 8.9543-20 20 8.9543 20 20 20c4.0305 0 7.7753-1.2026 10.9155-3.2537l17.0283 18.2685c1.1622 1.1622 2.9944 1.3178 4.3236.3511 1.0001-.7274 1.4528-.8358 3.0986-3.0986.9666-1.3292.811-3.1613-.3512-4.3236zm-35.0148-13.5251c-7.9504 0-14.4186-6.4681-14.4186-14.4186s6.4682-14.4186 14.4186-14.4186 14.4186 6.4682 14.4186 14.4186-6.4682 14.4186-14.4186 14.4186z"/></svg>