<?xml version="1.0" encoding="utf-8"?>
<!-- Generator: Adobe Illustrator 19.1.0, SVG Export Plug-In . SVG Version: 6.00 Build 0)  -->
<svg version="1.2" baseProfile="tiny" xmlns="http://www.w3.org/2000/svg" xmlns:xlink="http://www.w3.org/1999/xlink" x="0px"
	 y="0px" width="64px" height="64px" viewBox="0 0 64 64" xml:space="preserve">
<g id="_x36_4px_Box">
	<rect fill="none" width="64" height="64"/>
</g>
<g id="Icon">
	<g>
		<path d="M32.3376,35.6523c0.2411-0.1039,0.78-0.3641,1.632-0.6479c-0.2919-0.6094-0.301-1.3192-0.3772-2.171
			c1.9705-2.1989,3.4323-4.8547,3.9279-8.3641c1.8842-0.5801,2.2612-2.9305,2.2612-4.396c0-1.4649-0.2583-2.2576-0.7848-2.5033
			c-0.2539-0.118-0.5018-0.1171-0.7225-0.0702C38.4636,14.4476,38.6523,8.4,37.379,6.1274
			c-1.3922-2.4843-3.2437-3.1286-6.4691-2.3166c-2.1156-1.1213-3.556-2.2304-7.2625-1.2207
			c-2.5754,0.7013-5.394,1.8468-6.8794,3.7578c-1.6025,2.0623-1.2936,8.077-1.0229,11.1665
			c-0.2388-0.0652-0.5189-0.0768-0.8032,0.0555c-0.5266,0.2457-0.7847,1.0384-0.7847,2.5033c0,1.4655,0.3768,3.8159,2.2611,4.396
			c0.6047,5.0267,3.1218,7.968,6.2201,10.574c0.8186,0.6888,2.293,1.0502,3.8276,1.1185c0.1393,0.2487,0.1393,0.5441-0.4113,0.7256
			c-0.9209,0.3037-3.8015,0.7333-6.9056-0.8805c-0.0258-0.0134-0.044-0.0256-0.0693-0.0388
			C16.762,36.5892,8.7572,38.8782,6.265,41.5002C3.3516,44.5641,2.2186,56,2.2186,56c4.8652,0,16.1906,0,26.7861,0
			c-0.592-1.2686-0.9678-2.7367-1.0352-4.3585c-0.0444-0.818,0.0636-1.4691,0.2924-2.0359l2.573-6.7443
			c-0.3492-0.3728-0.638-0.8087-0.8476-1.2952c-0.4761-1.1039-0.4938-2.3269-0.0499-3.4438
			C30.3812,37.0057,31.2335,36.1285,32.3376,35.6523z"/>
		<path d="M62.8965,50.7148l-3.6453-9.555c0.0017,0.0007,0.004,0.0015,0.0057,0.0023c0.7617,0.3271,1.6431-0.0244,1.9707-0.7852
			c0.3271-0.7607-0.0229-1.6426-0.7832-1.9697c-0.4395-0.1895-4.373-1.8359-7.0854-1.3008
			c-1.3598,0.2668-2.3583,0.6855-3.5975,1.0665C49.9146,37.8126,50,37.4163,50,37c0-1.6569-1.3431-3-3-3s-3,1.3431-3,3
			c0,0.4163,0.0854,0.8126,0.2386,1.173c-1.2391-0.381-2.2377-0.7997-3.597-1.0665c-2.7173-0.5332-6.6465,1.1113-7.0859,1.3008
			c-0.7607,0.3281-1.1113,1.21-0.7832,1.9707c0.325,0.7545,1.1935,1.1035,1.9498,0.7902l-3.6422,9.5468
			c-0.0645,0.1445-0.0801,0.4414-0.0626,0.764C31.1981,55.8218,33.8033,58,37,58c3.174,0,5.7723-2.1407,5.9858-6.422
			c0.0126-0.2524,0.0359-0.5128-0.0894-0.8632l-4.0747-10.6805c0.4564-0.0474,0.8862-0.0542,1.2402,0.0155
			c1.6536,0.3247,2.9037,1.0156,4.938,1.3868V59h-3c-1.6569,0-3,1.3431-3,3v1h16v-1c0-1.6569-1.3431-3-3-3h-3V41.4366
			c2.0353-0.3715,3.2839-1.0621,4.9385-1.3868c0.3404-0.0661,0.7595-0.0656,1.2175-0.0186l-4.0759,10.6836
			c-0.0645,0.1445-0.0801,0.4414-0.0626,0.764C51.1981,55.8218,53.8033,58,57,58c3.174,0,5.7723-2.1407,5.9858-6.422
			C62.9984,51.3256,63.0217,51.0652,62.8965,50.7148z M40.1,51c0,2.6666-1.4431,4-3.1,4c-0.3525,0-0.6858-0.0734-1-0.1942
			c1.1625-0.4467,2-1.7066,2-3.8058h-4.0317l3.02-7.916C36.9929,43.096,40.1129,51,40.1,51z M57,55
			c-0.3525,0-0.6858-0.0734-1-0.1942c1.1625-0.4467,2-1.7066,2-3.8058h-4.0317l3.02-7.916C56.9929,43.096,60.1129,51,60.1,51
			C60.1,53.6666,58.6569,55,57,55z"/>
	</g>
</g>
</svg>
