<svg height="64" viewBox="0 0 64 64" width="64" xmlns="http://www.w3.org/2000/svg"><path d="m0 0h64v64h-64z" fill="none"/><path d="m32.001 11.9101c3.1358 0 4.95-2.1782 4.95-5.3126 0-3.5723-1.8964-5.4875-4.95-5.4875-3.217 0-4.95 2.2643-4.95 5.4875 0 3.3963 1.8147 5.3126 4.95 5.3126z"/><path d="m41.7142 31.6729c1.6668-1.6484 3.9481-4.2148 4.9473-5.6015.4575-.635.5258-1.4969.0818-2.1415-2.2434-3.257-5.6482-7.9769-7.8863-9.0026-2.585-1.1849-11.1289-1.1849-13.714 0-2.2381 1.0258-5.6429 5.7457-7.8863 9.0026-.444.6446-.3757 1.5065.0818 2.1415.9992 1.3867 3.2805 3.9531 4.9473 5.6015 1.2886 1.2744 2.3693 1.5064 3.1506 1.4055l.0263.6768-4.7939 27.6775s5.5369 1.1803 6.5323-3.8264c1.0113-5.0871 3.968-18.6935 4.0718-19.0834.1264-.4751.4549-.5932.7271-.5932s.6228.1181.7271.5932c.0876.399 3.0605 13.9962 4.0718 19.0834.9954 5.0067 6.5323 3.8264 6.5323 3.8264l-4.7939-27.6775.0263-.6768c.7812.1009 1.862-.1312 3.1506-1.4055zm-2.6937-10.3572 2.9794 3.5714-3.2833 4.2521zm-17.0204 3.5714 2.9794-3.5714.3039 7.8235z"/></svg>