<?xml version="1.0" encoding="utf-8"?>
<!-- Generator: Adobe Illustrator 22.1.0, SVG Export Plug-In . SVG Version: 6.00 Build 0)  -->
<!DOCTYPE svg PUBLIC "-//W3C//DTD SVG 1.1//EN" "http://www.w3.org/Graphics/SVG/1.1/DTD/svg11.dtd">
<svg version="1.1" xmlns="http://www.w3.org/2000/svg" xmlns:xlink="http://www.w3.org/1999/xlink" x="0px" y="0px" width="64px"
	 height="64px" viewBox="0 0 64 64" style="enable-background:new 0 0 64 64;" xml:space="preserve">
<style type="text/css">
	.st0{fill:none;}
</style>
<g id="Box">
	<rect x="0" class="st0" width="64" height="64"/>
</g>
<g id="Icon">
	<g>
		<path d="M34.9,37.2c-0.2-0.7-0.3-1.6-0.3-1.6c2-2.2,3.5-4.9,4-8.5c1.9-0.6,2.3-3,2.3-4.4c0-1.5-0.3-2.3-0.8-2.5
			c-0.3-0.1-0.5-0.1-0.7-0.1c0.2-3.1,0.4-9.2-0.9-11.5c-1.4-2.5-3.3-3.2-6.5-2.3C29.8,5.1,28.4,4,24.6,5c-2.6,0.7-5.4,1.9-6.9,3.8
			c-1.6,2.1-1.3,8.2-1,11.3c-0.2-0.1-0.5-0.1-0.8,0.1c-0.5,0.2-0.8,1-0.8,2.5c0,1.5,0.4,3.9,2.3,4.4c0.6,5.1,3.2,8.1,6.3,10.7
			c0.8,0.7,2.3,1.1,3.9,1.1c0.1,0.3,0,0.4-0.6,0.6c-0.9,0.3-3.1,0.6-6.2-1c0,0,0,0-0.1,0c-0.4,0.1-1.5,0.5-2.1,0.7
			c-3.3,1-9.3,2.9-11.4,5.2C4.1,47.4,3,59,3,59h32V47.1c0-1.5,0.8-2.8,2-3.5v-1.1c0-1.1,0.2-2.2,0.4-3.3c-0.3-0.1-0.6-0.2-0.9-0.2
			C35.7,38.7,35.1,38,34.9,37.2z"/>
		<path d="M61.9,46h-0.6H61v-3.5C61,36.7,56.3,32,50.5,32S40,36.7,40,42.5V46h-0.9c-0.6,0-1.1,0.5-1.1,1.1v13.8c0,0.6,0.4,1,0.9,1.1
			c1.8,0.3,6.1,1,11.6,1s9.7-0.6,11.6-1c0.5-0.1,0.9-0.6,0.9-1.1V47.1C63,46.5,62.5,46,61.9,46z M52,54.6V58h-3v-3.4
			c-0.7-0.5-1.1-1.2-1.1-2.1c0-1.4,1.2-2.6,2.6-2.6s2.6,1.2,2.6,2.6C53.1,53.4,52.7,54.1,52,54.6z M56,46l-11,0v-3.5
			c0-3,2.5-5.5,5.5-5.5s5.5,2.5,5.5,5.5V46z"/>
	</g>
</g>
</svg>
