<svg height="64" viewBox="0 0 64 64" width="64" xmlns="http://www.w3.org/2000/svg"><path d="m0 0h64v64h-64z" fill="none"/><path d="m60.8798 52.3511c-.3868-.4674-1.0463-.5841-1.5625-.2715-.0188.0113-2.2954 1.3904-2.3173 1.3904v-6.97c0-5.2383-4.2617-9.5-9.5-9.5s-9.5 4.2617-9.5 9.5v14.5h5v-14.5c0-2.4814 2.0186-4.6 4.5-4.6s4.5 2.1185 4.5 4.6v6.97c-.0219 0-2.2985-1.3791-2.3173-1.3904-.5162-.3126-1.1757-.1959-1.5625.2715-.3869.4689-.3873 1.1548-.0009 1.6237l5.4094 6.5773c.2402.2926.5978.4574.9713.4475.3735.0099.731-.1549.9713-.4475l5.4094-6.5773c.3864-.4689.386-1.1548-.0009-1.6237z"/><path d="m35.6228 35.8334c1.9705-2.1989 3.4323-4.8547 3.9279-8.3641 1.8842-.5801 2.2612-2.9305 2.2612-4.396 0-1.4649-.2583-2.2576-.7848-2.5033-.2539-.118-.5018-.1171-.7225-.0702.1895-3.0522.3782-9.0999-.8952-11.3724-1.3922-2.4843-3.2437-3.1286-6.4691-2.3166-2.1156-1.1213-3.556-2.2304-7.2625-1.2207-2.5754.7013-5.394 1.8468-6.8794 3.7578-1.6025 2.0623-1.2936 8.077-1.0229 11.1665-.2388-.0652-.5189-.0768-.8032.0555-.5266.2457-.7847 1.0384-.7847 2.5033 0 1.4655.3768 3.8159 2.2611 4.396.6047 5.0267 3.1218 7.968 6.2201 10.574.8186.6888 2.293 1.0502 3.8276 1.1185.1393.2487.1393.5441-.4113.7256-.9209.3037-3.8015.7333-6.9056-.8805-.0258-.0134-.044-.0256-.0693-.0388-2.3179.6212-10.3226 2.9102-12.8148 5.5321-2.9133 3.064-4.0463 14.4999-4.0463 14.4999h30.7509v-12.5c0-2.7668.9146-5.318 2.4422-7.3911-.1736-.048-.3342-.0919-.4722-.1289-1.0653-.6185-1.2096-1.8163-1.3472-3.1466z"/></svg>