<svg height="64" viewBox="0 0 64 64" width="64" xmlns="http://www.w3.org/2000/svg"><path d="m0 0h64v64h-64z" fill="none"/><path d="m0 0h64v64h-64z" fill="none"/><path d="m32 12.8546c3.1358 0 4.95-2.1782 4.95-5.3125 0-3.5723-1.8964-5.4875-4.95-5.4875-3.217 0-4.95 2.2642-4.95 5.4875 0 3.3963 1.8147 5.3125 4.95 5.3125z"/><path d="m36.0834 15.4007c-2.1182-.4536-4.7915-.5398-7.4096-.1144-7.8182 1.27-20.6148 8.5551-20.6148 8.5551s1.5286 2.7968 5.2914 1.4494c4.8067-1.7212 8.0954-2.9101 11.6994-3.8734l.4832 13.3622-8.4406 25.6043s5.2672 2.0754 7.0729-2.6992c1.8347-4.8514 7.0066-17.8722 7.1779-18.2374.1308-.2788.3459-.4932.6514-.4932.2988 0 .5324.2023.6635.4963.1544.3464 5.2586 13.4662 7.1766 18.2343 1.9051 4.7359 7.0729 2.6992 7.0729 2.6992l-8.4446-25.6158.4868-13.3508c3.6041.9634 6.8929 2.1523 11.6998 3.8735 3.7628 1.3474 5.2914-1.4494 5.2914-1.4494s-12.0285-6.7641-19.8576-8.4407z"/></svg>