<svg height="64" viewBox="0 0 64 64" width="64" xmlns="http://www.w3.org/2000/svg"><path d="m0 0h64v64h-64z" fill="none"/><path d="m59.6741 41.106c-.8181-.8896-2.7186-1.7085-4.311-2.2789.0027-.0031 2.5472-2.9199 2.3884-6.2623-.1292-2.7171-1.4601-3.9457-2.4087-6.6712-1.0987-3.1569-2.1425-6.5828-6.5969-6.583h-.0001-.0001c-2.7661.0001-4.216 1.322-5.1816 3.0793.8331 1.8549 1.4936 3.8437 1.6201 6.5057.1895 3.9882-1.3648 7.6392-2.781 10.0932 2.7781 1.2036 4.6964 2.4006 5.8288 3.6323 1.0818 1.1761 1.9631 3.5741 2.6691 6.379h11.0989c0-.0001-.8026-6.2379-2.3259-7.8941z"/><path d="m39.0925 40.035c1.2807-1.7227 4.1273-6.1296 3.8942-11.035-.2435-5.125-2.754-7.4424-4.5433-12.5833-2.0724-5.9544-4.0411-12.4166-12.4431-12.4167-.0001 0-.0001 0-.0001 0s-.0001 0-.0002 0c-8.402.0001-10.3707 6.4623-12.4431 12.4167-1.7893 5.1409-4.2998 7.4583-4.5433 12.5833-.2331 4.9051 2.6132 9.3118 3.894 11.0347-2.8643 1.0614-6.0812 2.5104-7.5204 4.0757-1.8513 2.0127-3.1371 9.6838-3.8185 14.8896h48.8625c-.6813-5.2058-1.9672-12.8769-3.8185-14.8896-1.4392-1.5654-4.6558-3.0141-7.5202-4.0754zm-12.4353-1.2754c3.1548.8349 5.4595-.9139 5.4595-.9139s.2828 1.9133.2745 2.4157c.3267 3.4883-3.5568 7.3169-6.0102 9.0784-2.3004-1.75-6.5919-5.5302-6.1588-9.0224.237-1.9129.0408-.5492.8235-5.4371-2.1797-2.1061-3.9292-4.6455-4.076-7.6609-1.7687.8932-3.3272 2.0303-4.5517 3.3783-.0526-.0569-.1642-.1666.0292-.4936 2.501-4.2287 7.8895-7.174 13.5527-7.174 5.6633 0 11.0518 2.9453 13.5528 7.174.1934.327.0817.4366.0292.4936-1.222-1.3452-2.7764-2.4805-4.5405-3.373-.1779 3.5012-2.6202 6.179-5.323 8.4791-.7807.6644-2.2499 1.1066-3.7188 1.1055-1.0628-.0008-2.1255-.2865-2.9271-.6349.6137.9306 1.6552 2.0745 3.5847 2.5852z"/></svg>