<svg enable-background="new 0 0 64 64" height="64" viewBox="0 0 64 64" width="64" xmlns="http://www.w3.org/2000/svg"><path d="m0 0h64v64h-64z" fill="none"/><path d="m19.5 34.7c2.5 2.3 7.4 5.3 12.4 5.3s10-3.1 12.6-5.3c5.2-4.3 6.9-21 0-28.3-6.9-7.3-18.1-7.3-25 0s-5 23.9 0 28.3zm-.3-17.7c3.4 1.1 7.8 1.8 12.8 1.8s9.4-.7 12.8-1.8c.4 2.4.3 4.7.1 6.5-.1 1.4-.9 2.7-2 3.5-3.1 2.2-8.3 2.6-11.1 2.6s-7.8-.3-10.9-2.5c-1.1-.8-1.8-2-1.9-3.4-.1-2-.2-4.2.2-6.7zm33.4 27.1c-2-2.1-7.3-4.1-10.5-5.1-3 1.8-6.7 3.2-10.3 3.2-3.6 0-7.2-1.4-10.1-3.1-3.2 1-8.4 2.9-10.3 5-2.9 3.1-4.4 14.9-4.4 14.9h50s-1.5-11.8-4.4-14.9z"/></svg>