<svg height="64" viewBox="0 0 64 64" width="64" xmlns="http://www.w3.org/2000/svg"><path d="m0 0h64v64h-64z" fill="none"/><path d="m15.5002 11.9775c3.1371 0 4.952-2.2094 4.952-5.3887 0-3.6236-1.8971-5.5663-4.952-5.5663-3.2183 0-4.952 2.2967-4.952 5.5663 0 3.445 1.8154 5.3887 4.952 5.3887z"/><path d="m21.0245 14.7021c-3.3369-.7958-7.8055-.7958-11.0487 0-6.362 1.5612-5.9421 11.6472-5.9421 20.357.2096 3.0518 2.4544 3.92 3.8006 3.92 0-.1417 0-1.6151 0-3.0491 0-.7156 0-5.5918 0-6.1175 0-3.4489.3357-6.1401.7565-7.4819.1282-.4087.4094-.3306.4094-.3306v15.9998 25.0002s4.8654.0391 5.2372-5.0498c0 0 .7277-19.2431.7359-19.457s.1675-.4932.5269-.4932.5082.2793.5165.4932c.0082.2139.7308 19.3173.7308 19.3173.2888 5.2383 5.2525 5.1895 5.2525 5.1895l.0002-41s.3024-.1048.4493.3306c.4062 1.2031.7166 4.033.7166 7.435v6.5186 2.6949c1.3462 0 3.5612-.837 3.8007-3.92 0-8.7098.4298-18.8372-5.9423-20.357z"/><path d="m46.5273 11.9775c3.1371 0 4.952-2.2094 4.952-5.3887 0-3.6236-1.8972-5.5663-4.952-5.5663-3.2183 0-4.952 2.2967-4.952 5.5663 0 3.445 1.8154 5.3887 4.952 5.3887z"/><path d="m52.0516 14.7021c-2.8736-.6853-6.4049-.8711-9.3957-.3787-1.7562.2892-2.4893.5655-4.3782 2.0099-1.6711 1.2779-3.4254 2.6276-3.9193 3.065-.9633-.7522-3.2231-2.966-4.1036-3.8136-2.4553-2.4085-5.1251-1.1443-5.8123-.7507.8218 1.0007 5.8877 6.7012 7.28 7.8882 1.4464 1.233 2.5711 1.7891 4.3912.6738 1.5529-.9516 2.7751-1.896 3.9136-2.5596v17.1633 25.0003s4.8654.0391 5.2372-5.0498c0 0 .7277-19.2431.7359-19.457s.1675-.4932.5269-.4932.5083.2793.5165.4932.7308 19.3173.7308 19.3173c.2888 5.2383 5.2254 5.1895 5.2254 5.1895v-41s.3297-.1048.4767.3306c.4062 1.2031.7165 4.033.7165 7.435v9.2135c1.3462 0 3.5112-.837 3.7507-3.92 0-8.7098.4798-18.8372-5.8923-20.357z"/></svg>