<svg height="64" viewBox="0 0 64 64" width="64" xmlns="http://www.w3.org/2000/svg"><path d="m0 0h64v64h-64z" fill="none"/><path d="m52.6128 44.1104c-2.1834-2.3746-8.462-4.4866-11.386-5.3734-.155-1.1155-.3614-2.4073-.5466-3.4836 1.3796-1.6712 2.3362-3.3859 2.8715-5.1342 1.0905-.136 1.9662-.9709 2.1335-2.0961l1.2872-8.467c.1863-1.2598-.5859-2.459-1.7959-2.791-.0804-.022-.1627-.0363-.2432-.0579.1631-3.0821.0842-6.6757-.9493-8.3299-1.6026-2.5649-3.5498-3.8159-7.2632-2.9775-2.4355-1.1577-4.0937-1.8823-8.3608-.8398-2.9649.7241-6.21 1.9067-7.92 3.8798-1.3066 1.5079-1.5078 5.1456-1.4042 8.2749-.0701.0189-.1417.0312-.2117.0504-1.2104.332-1.9827 1.5312-1.7964 2.791l1.2872 8.467c.1664 1.1207 1.0344 1.9526 2.1175 2.0947.5819 1.9501 1.6851 3.8402 3.3419 5.6948-.106.807-.2283 1.7498-.353 2.7313-2.5129.7345-9.6714 2.9969-12.0341 5.5665-2.8735 3.124-4.3872 14.8896-4.3872 14.8896h25 25s-1.5137-11.7656-4.3872-14.8896zm-30.4284-17.0842c-.5543.1115-1.087-.2583-1.171-.8237l-.2234-1.5197c2.7266-1.4611 8.2126-2.3074 8.2126-2.3074.0037-.0599-.0119-.2706-.345-.2757 0 0-2.8392-.4636-8.1561.6202l-.3421-2.3277c-.0762-.5126.2457-1.0074.7439-1.1286 7.2659-1.7665 14.9275-1.7665 22.1934 0 .4982.1212.8201.616.7439 1.1286l-.2206 1.5008c-2.6028-.9282-4.8683-.8817-4.8683-.8817-.3311-.0364-.3728.1707-.3766.2305 0 0 2.6736.5641 5.0601 1.9083l-.4486 3.0522c-.084.5654-.6167.9352-1.171.8237-3.2292-.6492-6.5238-.9778-9.8153-.9778-3.292.0001-6.5867.3288-9.8159.978zm12.5655-13.8795 3.3331 2.2387c-2.6577-.3246-5.3373-.4241-8.0117-.3215 1.4541-.4542 3.0357-1.0687 4.6786-1.9172zm-2.3689 36.1931c-2.3003-1.75-6.5919-5.5302-6.1588-9.0224.237-1.9129.0408-.5492.8235-5.4371-1.5668-1.514-2.899-3.2567-3.5871-5.234 5.6272-1.0396 11.4406-1.0408 17.0687-.0028-.8804 2.363-2.7657 4.3215-4.809 6.0604-.7807.6644-2.2499 1.1066-3.7188 1.1055-1.0628-.0008-2.1255-.2865-2.9271-.6349.6138.9305 1.6553 2.0744 3.5848 2.5851 3.1548.8349 5.4595-.9139 5.4595-.9139s.2828 1.9133.2745 2.4157c.3267 3.4883-3.5568 7.3169-6.0102 9.0784z"/></svg>