<?xml version="1.0" encoding="utf-8"?>
<!-- Generator: Adobe Illustrator 21.0.2, SVG Export Plug-In . SVG Version: 6.00 Build 0)  -->
<!DOCTYPE svg PUBLIC "-//W3C//DTD SVG 1.1//EN" "http://www.w3.org/Graphics/SVG/1.1/DTD/svg11.dtd">
<svg version="1.1" xmlns="http://www.w3.org/2000/svg" xmlns:xlink="http://www.w3.org/1999/xlink" x="0px" y="0px" width="64px"
	 height="64px" viewBox="0 0 64 64" style="enable-background:new 0 0 64 64;" xml:space="preserve">
<style type="text/css">
	.st0{fill:none;}
</style>
<g id="_x36_4px_Box">
	<rect class="st0" width="64" height="64"/>
</g>
<g id="Icon">
	<g>
		<path d="M38.5,50.3c-1.1-0.3-1.3-1.4-1.4-2.6c1.5-1.7,2.7-3.8,3-6.5c1.5-0.4,1.7-2.3,1.7-3.4c0-1.1-0.2-1.7-0.6-1.9
			c-0.2-0.1-0.5-0.1-0.7-0.1c0.1-2.4,0.3-7-0.7-8.8c-1.1-1.9-2.4-2.4-4.9-1.8c-1.6-0.9-2.7-1.7-5.6-0.9c-2,0.5-4.1,1.4-5.2,2.9
			c-1.2,1.6-1,6.2-0.8,8.6c-0.2-0.1-0.5-0.1-0.7,0c-0.4,0.2-0.6,0.8-0.6,1.9c0,1.1,0.3,2.9,1.7,3.4c0.5,3.9,2.4,6.2,4.8,8.2
			c0.6,0.5,1.8,0.8,3,0.9c0.1,0.2,0.1,0.4-0.3,0.6c-0.7,0.2-2.9,0.6-5.3-0.7c0,0,0,0-0.1,0c-1.8,0.5-8,2.2-9.9,4.3
			c-0.9,0.9-1.5,2.7-2,4.6h36c-0.5-1.9-1.1-3.7-2-4.6C46.3,52.5,40.9,50.9,38.5,50.3z"/>
		<path d="M43.5,24.4l8.1,3.3c0.5,0.2,1.2,0,1.5-0.5c0.3-0.5,0.3-1.1-0.2-1.5l-2.1-2.1c1.8-0.6,3.9-1.6,5.3-3.4c1.9-2.5,1.3-5,1-6.7
			c-0.3-1.3-0.4-2,0-2.6c0.5-0.8,2.2-1,3.8-0.4l1.5-3.7c-3.5-1.4-7.1-0.6-8.7,2c-1.2,2-0.8,3.9-0.5,5.5c0.3,1.6,0.5,2.5-0.3,3.5
			c-0.7,1-2.2,1.6-3.4,2l0,0l0.8-3.3c0.1-0.6-0.1-1.2-0.7-1.4C49,14.8,48.4,15,48,15.5l-5.1,7.1c-0.2,0.3-0.3,0.7-0.2,1
			C42.8,23.9,43.1,24.2,43.5,24.4z"/>
		<path d="M62.2,36.8l-6.9-5.4c-0.5-0.4-1.1-0.3-1.6,0c-0.4,0.4-0.5,1-0.3,1.5l1.7,2.8c-1.9-0.4-4.2-0.5-6,0.5
			c-0.9,0.5-2.1,1.6-2.4,3.7c-0.1,0.7,0,1.4,0.1,2c0.1,0.7,0.2,1.5-0.1,1.8c-0.1,0.2-0.8,0.7-3.4,0.9l0.2,4c3.1-0.2,5.1-0.9,6.2-2.3
			c1.4-1.6,1.2-3.6,1-4.8c0-0.4-0.1-0.8-0.1-1c0.1-0.6,0.3-0.7,0.4-0.8c0.8-0.4,2.4-0.2,4,0.2l-1.5,2.7c-0.3,0.5-0.2,1.2,0.3,1.5
			c0.4,0.4,1.1,0.4,1.6,0l6.8-5.4c0.3-0.2,0.5-0.6,0.5-1C62.7,37.4,62.5,37,62.2,36.8z"/>
		<path d="M19.2,43.7c0.1-0.4,0-0.7-0.2-1l-5.2-7c-0.3-0.5-1-0.6-1.5-0.4c-0.5,0.2-0.8,0.8-0.7,1.4l0.9,3.3c-1.4-0.6-3.6-1.8-4.7-4
			c-1-2.1-0.8-4.8,0.6-8l-3.6-1.6c-2,4.3-2.1,8.2-0.6,11.4c1.7,3.5,5,5.3,7,6.1l-2.1,2.1C8.7,46.3,8.6,47,9,47.5
			c0.3,0.5,1,0.7,1.5,0.4l8-3.4C18.8,44.4,19.1,44.1,19.2,43.7z"/>
		<path d="M31.7,21.5c0.2,0.3,0.6,0.4,1,0.4c0.4,0,0.7-0.2,0.9-0.5l5.1-7.1c0.3-0.5,0.3-1.1-0.1-1.5c-0.4-0.4-1-0.5-1.5-0.2
			l-2.8,1.8c-0.1-1.4-0.1-3.6,1.1-5.5c1.1-1.7,3.1-2.9,5.9-3.4l-0.7-3.9c-3.9,0.7-6.8,2.4-8.6,5.2c-1.7,2.7-1.8,5.7-1.7,7.7L27.4,13
			c-0.5-0.3-1.2-0.1-1.5,0.3c-0.4,0.5-0.3,1.1,0,1.6L31.7,21.5z"/>
		<path d="M11.9,19.1c0.4-0.4,0.5-1.1,0.1-1.5l-1.8-2.7c3.5-0.9,7-1,7.4-0.1c0.4,0.8,0,1.4-1.2,3.3c-1.6,2.3-4.2,6.2,0.6,11l2.8-2.8
			c-2.5-2.4-1.7-3.6-0.1-5.9c1.2-1.8,2.9-4.3,1.5-7.2c-1.8-3.8-7.7-3.1-11.3-2.2L11.2,8c0.2-0.5,0.1-1.2-0.4-1.5
			c-0.2-0.2-0.5-0.2-0.8-0.2c-0.3,0-0.5,0.1-0.7,0.3l-6.3,6c-0.3,0.3-0.4,0.6-0.4,1c0,0.4,0.2,0.7,0.5,0.9l7.3,4.8
			C10.9,19.6,11.5,19.5,11.9,19.1z"/>
	</g>
</g>
</svg>
