<svg height="64" viewBox="0 0 64 64" width="64" xmlns="http://www.w3.org/2000/svg"><path d="m0 0h64v64h-64z" fill="none"/><path d="m42.9933 29.8043c4.6879 0 7.4-3.3465 7.4-8.1621 0-5.4886-2.8349-8.4312-7.4-8.4312-4.8093 0-7.4 3.4788-7.4 8.4312 0 5.2181 2.7127 8.1621 7.4 8.1621z"/><path d="m20.9958 26.8339c4.6879 0 7.4-3.3464 7.4-8.1621 0-5.4886-2.835-8.4312-7.4-8.4312-4.8093 0-7.4 3.4788-7.4 8.4312 0 5.218 2.7128 8.1621 7.4 8.1621z"/><path d="m57.1681 38.4933c-2.2674 1.1315-6.4059 2.8552-11.4757 3.4012-4.1461.4467-8.6875.3742-12.6924-.1058v12.2113h19.7587l.0001-8.9348s.4579-.1588.6806.5008c.4986 1.4766.9016 4.5715 1.0366 8.434h5.7311c-.2014-5.9827-.8862-11.721-3.039-15.5067z"/><path d="m45.4571 39.7072c4.1516-.4471 7.652-1.7506 9.8662-2.7696 1.1043-.5083 2.0433-1.0221 2.5436-1.3328-.6619-3.3093-4.9088-3.527-7.6665-3.1961s-6.4531.8273-11.8583.6067c-4.1417-.169-6.4515-1.6315-10.8203-2.3805-2.0305-.3452-3.914-.4877-5.9461-.5171-3.1395-.0454-6.293.2491-8.9176.8931-7.757 1.9035-8.8569 12.1743-8.9912 22.9891h5.7475c0-.0331 0-.0791 0-.1018 0-5.224.5085-9.3002 1.1459-11.3326.1941-.619.6201-.5008.6201-.5008v11.9352h19.8196v-13.5591c0-.5514.4466-.9982.9976-.9995l.0024-.0145v.0045s6.287 1.0479 13.4571.2758z"/></svg>