<?xml version="1.0" encoding="utf-8"?>
<!-- Generator: Adobe Illustrator 17.1.0, SVG Export Plug-In . SVG Version: 6.00 Build 0)  -->
<svg version="1.2" baseProfile="tiny" xmlns="http://www.w3.org/2000/svg" xmlns:xlink="http://www.w3.org/1999/xlink" x="0px"
	 y="0px" width="64px" height="64px" viewBox="0 0 64 64" xml:space="preserve">
<g id="_x36_4px_Boxes">
	<rect fill="none" width="64" height="64"/>
</g>
<g id="Production">
	<rect fill="none" width="64" height="64"/>
	<g>
		<path d="M32,12.8546c3.1358,0,4.95-2.1782,4.95-5.3125c0-3.5723-1.8964-5.4875-4.95-5.4875c-3.217,0-4.95,2.2642-4.95,5.4875
			C27.05,10.9384,28.8647,12.8546,32,12.8546z"/>
		<path d="M36.0834,15.4007c-2.1182-0.4536-4.7915-0.5398-7.4096-0.1144C20.8556,16.5563,8.059,23.8414,8.059,23.8414
			s1.5286,2.7968,5.2914,1.4494c4.8067-1.7212,8.0954-2.9101,11.6994-3.8734l0.4832,13.3622l-8.4406,25.6043
			c0,0,5.2672,2.0754,7.0729-2.6992C26,52.8333,31.1719,39.8125,31.3432,39.4473c0.1308-0.2788,0.3459-0.4932,0.6514-0.4932
			c0.2988,0,0.5324,0.2023,0.6635,0.4963c0.1544,0.3464,5.2586,13.4662,7.1766,18.2343c1.9051,4.7359,7.0729,2.6992,7.0729,2.6992
			L38.463,34.7681l0.4868-13.3508c3.6041,0.9634,6.8929,2.1523,11.6998,3.8735c3.7628,1.3474,5.2914-1.4494,5.2914-1.4494
			S43.9125,17.0773,36.0834,15.4007z"/>
	</g>
</g>
</svg>
