<?xml version="1.0" encoding="utf-8"?>
<!-- Generator: Adobe Illustrator 19.1.0, SVG Export Plug-In . SVG Version: 6.00 Build 0)  -->
<svg version="1.2" baseProfile="tiny" xmlns="http://www.w3.org/2000/svg" xmlns:xlink="http://www.w3.org/1999/xlink" x="0px"
	 y="0px" width="64px" height="64px" viewBox="0 0 64 64" xml:space="preserve">
<g id="box">
	<rect fill="none" width="64" height="64"/>
</g>
<g id="icon">
	<g>
		<path d="M57.2831,44.8831c-0.5357-1.618-1.9681-1.9827-2.8123-1.4645c-0.2419-0.4907-0.8489-1.2882-1.9026-1.4098
			c-1.0757-0.1241-1.6803,0.7718-1.6803,0.7718c-0.0341-0.0294-0.5016-1.3295-1.9083-1.3797
			c-0.9925-0.0354-1.629,0.6888-1.773,0.871c-0.2744-3.3174-0.7342-8.1019-0.771-8.6885c-0.0522-0.8304-0.6967-1.4979-1.5287-1.5098
			h-0.0038c-0.8325-0.0119-1.5373,0.635-1.5711,1.4669c-0.0238,0.5865-0.23,10.8104-0.23,17.7292
			c-0.0306,0.0114-0.2065,0.0944-0.2983-0.2161c-0.2-0.6763-0.7471-3.6574-0.809-4.1766c-0.9312,0.7111-1.8693,1.3915-1.9803,3.0569
			c-0.1924,2.8857,3.4281,9.5567,10.3665,8.7489c3.7685-0.4388,7.3207-2.9371,7.4161-7.373
			c0.0012-0.0569,0.0023-0.1145,0.0031-0.173C57.8205,49.6982,57.8554,46.6118,57.2831,44.8831z"/>
		<path d="M39.3481,41.0445c0.2185-1,1.5995-0.9539,1.4225-2.3345c-0.0847-0.6605-0.64-0.8447-0.9469-0.9058
			c0.3645-0.1883,0.8135-0.6666,0.9167-1.2542c0.0767-0.4366-0.001-0.9172-0.3631-1.1515
			c-1.0023-0.6486-0.9846-1.6899-0.9846-1.6899l2.7505-1.4567c0.7869-0.5082,1.0095-1.5601,0.4959-2.3434l-5.2176-5.8793
			c-0.1688-0.7446,0.1088-2.1189,0-2.7479c-0.5496-3.1766-2.0496-6.6915-2.0496-6.6915c1.7394-3.3173,0.8898-6.2704-1.7275-7.953
			c-2.9818-1.9168-13.7399-2.1135-21.6537,2.1896c-8.347,4.5386-7.444,13.0029-6.0383,17.2512
			c1.6353,4.9421,6.4344,11.9492,6.7723,17.2316C12.8728,45.6252,11.1656,53,11.1656,53h18.6938v-5.2173
			c0,0-4.7283-2.293-4.9474-2.4437c-0.219-0.1508-0.1558-0.3335-0.1324-0.3818c0,0,6.7977,1.4254,9.4263,1.8329
			c2.0597,0.3193,3.8253-0.2275,4.6847-1.1807C40.6601,43.6469,39.1296,42.0446,39.3481,41.0445z"/>
	</g>
</g>
</svg>
