<svg enable-background="new 0 0 64 64" viewBox="0 0 64 64" xmlns="http://www.w3.org/2000/svg"><path d="m0 0h64v64h-64z" fill="none"/><path d="m51.79 50.26c-1.07-1.12-3.15-2.23-5.31-3.18-1.53-.7-5.89-2.44-6.29-2.68-.1-.86-.2-1.72-.29-2.53 1.45-1.16 2.53-2.19 4.49-3.83.43-.36.57-.96.34-1.48l-.58-1.28c.06-.42.17-1.1.25-1.51.04-.22.08-.52.12-.83.97-1.21 1.51-2.91 1.51-4.93 0-.74-.02-2.67-1.22-4.01 1.16-6.29-2.59-12.34-8.5-14.27-1.3-.43-2.25-.61-3.3-.68 0-.15.17-.3.52-.37 1.41-.29 3.3-.09 4.76.38.4-.71.94-2.16.94-3.06-.03-2.77-2.43-5-5.33-5-2.1 0-3.6 1.25-4.8 2.76-1.7 2.32-2.9.8-1.7-.89 0 0-3.4.36-3.4 2.94 0 1.87 2.02 3.62 2.93 4.16-5.4 2.23-8.83 7.96-7.71 14.02-1.2 1.33-1.22 3.27-1.22 4 0 2.02.54 3.71 1.51 4.93.04.31.07.6.12.83.08.42.18 1.1.25 1.51l-.58 1.28c-.23.51-.1 1.11.34 1.48 1.99 1.66 3.1 2.73 4.49 3.83-.09.82-.19 1.67-.29 2.53-.22.13-5.83 2.47-6.29 2.68-2.16.95-4.25 2.07-5.31 3.18-2.04 2.12-3.36 8.48-3.93 11.76h47.37c-.56-3.28-1.88-9.64-3.89-11.74zm-30.79-22.26c0-.69.05-1.88.67-2.17.42-.2.9-.03 1.27.27 0-.83.02-3.18.74-5.58 2.25-2.03 5.15-3.26 8.32-3.26 3.23 0 6.17 1.28 8.44 3.38.04.14.08.28.12.43.16.68.27 1.35.35 1.98.15 1.26.15 2.36.15 3.05.36-.3.84-.47 1.27-.26.45.2.67.89.67 2.16 0 .23-.03.47-.05.71-3.87-.03-6.15-.34-6.92-.97-1-.81-1.96-2.12-4.03-2.12-2.06 0-3.02 1.31-4.03 2.12-.77.62-3.05.94-6.92.97-.02-.23-.05-.48-.05-.71zm.95 8.73c.17-.38.27-.57.38-.88l5.79 1.54c.04-.05.16-.22-.11-.43l-5.91-3.51c-.13-.73-.18-1.36-.25-2.24 4.89-.09 6.65-.67 7.69-1.52 1.12-.9 1.48-1.57 2.46-1.57s1.35.67 2.46 1.57c1.05.84 2.8 1.43 7.69 1.52-.07.91-.13 1.54-.25 2.24l-5.91 3.51c-.26.21-.15.38-.11.43l5.79-1.54c.11.32.18.41.38.88-1.1.94-1.78 1.56-2.61 2.26-2.55 2.19-4.03 3.16-7.45 3.16-3.35 0-4.81-.92-7.12-2.88-.77-.66-1.83-1.61-2.92-2.54zm10.05 18.27s-9.49-.17-11.65-5.89c3.74-1.57 6.19-2.12 6.4-3.99.02-.2.08-.74.17-1.46 1.42.66 2.97.99 5.08.99 2.15 0 3.74-.36 5.12-1 .05.59.11 1.21.13 1.47.21 1.87 2.64 2.42 6.4 3.99-2.16 5.7-11.65 5.89-11.65 5.89z"/></svg>