<svg enable-background="new 0 0 64 64" height="64" viewBox="0 0 64 64" width="64" xmlns="http://www.w3.org/2000/svg"><path d="m0 0h64v64h-64z" fill="none"/><path d="m55.2 43.8c-.1-1.5-1.3-2.7-2.8-2.8-.9 0-2.1-.1-3.4-.3.1.2.2.5.2.8 0 .8-.6 1.4-1.4 1.4s-1.4-.6-1.4-1.4c0-.4.2-.8.5-1.1-1.9-.3-3.9-.8-6-1.6-.1 0-.1-.1-.2-.1-.1-.8-.2-1.9-.4-2.9 2.8.3 5.2.6 6.9 1.2.4.1.8-.1.9-.5 1.3-5.1 1.8-8.5 1.8-12.2 0-7.5-2.8-15.5-7.1-18.1-2.8-1.6-5.8-1-5.8-1s-3-2.9-8.2-1.9c-8.4 1.5-14.8 9.7-14.8 20.9 0 3.7.6 7.2 1.8 12.2.1.4.5.7.9.5 1.8-.6 4.3-1 7.4-1.3-.1.9-.2 1.8-.3 2.8-2.3.9-4.6 1.4-6.7 1.8.3.3.5.6.5 1.1 0 .8-.6 1.4-1.4 1.4s-1.4-.6-1.4-1.4c0-.3.1-.5.2-.8-1.3.2-2.4.3-3.4.3-1.5.1-2.7 1.3-2.8 2.8-.5 8.8-.8 10.4-.8 19.4h48c0-9-.3-10.6-.8-19.2zm-28.8-4.4c.1-.6.6-5.3.6-5.3-2.5-2.5-3.6-5.6-4.1-8.3-.3-1.7-.3-3.3-.2-4.4 4.8-1.9 11.6-5.7 14.2-9.1 0 0 .3 0 .1.5-.3.8-.8 1.8-1.5 3 1.2 2.6 3.5 4.6 5.7 5.9.1 1 .1 2.5-.2 4.1-.5 3.2-2.8 7.6-5.3 9.2-1.7 1.1-4.9 1.2-6.7.4.4.8 1.3 1.8 3.2 2.3 2.5.6 4.9-.4 5.4-.8.1.8.2 1.6.3 2.3 0 .4.2 1.8 2.2 2.6-2.1 5.1-8.1 8.8-8.1 8.8s-6-3.6-8-8.8c1.9-.7 2.4-1.9 2.4-2.4zm-10.3 5.5c0-.8.6-1.4 1.4-1.4s1.4.6 1.4 1.4-.6 1.4-1.4 1.4-1.4-.6-1.4-1.4zm1.8 3.3c0-.8.6-1.4 1.4-1.4s1.4.6 1.4 1.4-.6 1.4-1.4 1.4-1.4-.7-1.4-1.4zm3.6 4.3c-.8 0-1.4-.6-1.4-1.4s.6-1.4 1.4-1.4 1.4.6 1.4 1.4c0 .7-.6 1.4-1.4 1.4zm2.6 2.7c-.8 0-1.4-.6-1.4-1.4s.6-1.4 1.4-1.4 1.4.6 1.4 1.4-.7 1.4-1.4 1.4zm2.9 2.3c-.8 0-1.4-.6-1.4-1.4s.6-1.4 1.4-1.4 1.4.6 1.4 1.4-.6 1.4-1.4 1.4zm5 4.3c-1.5 0-2.8-1.2-2.8-2.8 0-1.5 1.2-2.8 2.8-2.8s2.8 1.2 2.8 2.8c0 1.5-1.3 2.8-2.8 2.8zm5-4.3c-.8 0-1.4-.6-1.4-1.4s.6-1.4 1.4-1.4 1.4.6 1.4 1.4c-.1.8-.7 1.4-1.4 1.4zm2.9-2.3c-.8 0-1.4-.6-1.4-1.4s.6-1.4 1.4-1.4 1.4.6 1.4 1.4-.6 1.4-1.4 1.4zm2.6-2.7c-.8 0-1.4-.6-1.4-1.4s.6-1.4 1.4-1.4 1.4.6 1.4 1.4c0 .7-.7 1.4-1.4 1.4zm2.2-2.9c-.8 0-1.4-.6-1.4-1.4s.6-1.4 1.4-1.4 1.4.6 1.4 1.4-.6 1.4-1.4 1.4zm1.8-3.3c-.8 0-1.4-.6-1.4-1.4s.6-1.4 1.4-1.4 1.4.6 1.4 1.4-.6 1.4-1.4 1.4z"/></svg>