<svg height="64" viewBox="0 0 64 64" width="64" xmlns="http://www.w3.org/2000/svg"><path d="m0 0h64v64h-64z" fill="none"/><path d="m51.7886 45.2578c-2.4599-2.5708-9.1989-4.1501-11.0196-5.6074-.0966-.8489-.2382-1.8883-.385-2.8905 2.8209.2978 5.2188.64 6.9231 1.2385.375.1318.771-.1191.875-.5381 1.2578-5.0869 1.8078-8.516 1.8078-12.2415 0-7.4844-2.8127-15.4792-7.1271-18.0651-2.7505-1.6485-5.8428-1.0482-5.8428-1.0482s-2.9731-2.8631-8.1728-1.8836c-8.4834 1.5986-14.8408 9.7429-14.8408 20.9969 0 3.7255.56 7.1546 1.8178 12.2415.1035.419.5.6699.875.5381 1.8217-.6398 4.2865-1.0065 7.3642-1.3018-.1118.9402-.2354 1.9943-.3572 3.0632-1.6736 1.1948-8.7768 2.6575-11.4948 5.498-2.7583 2.8838-4.2114 13.7422-4.2114 13.7422h24 24s-1.4531-10.8584-4.2114-13.7422zm-25.3682-4.8349c.0657-.5789.5774-5.3235.5774-5.3235-2.518-2.48-3.5982-5.5714-4.0564-8.2801-.293-1.7298-.2532-3.3401-.1641-4.4102 4.8017-1.8932 11.6045-5.7473 14.2355-9.0572 0 0 .3202.0147.1174.5033-.3447.8305-.8485 1.8115-1.5488 2.9773 1.2409 2.6346 3.4734 4.5625 5.676 5.9304.0662 1.034.0662 2.4655-.1989 4.0564-.5298 3.1827-2.8208 7.626-5.3403 9.1846-1.7212 1.0648-4.8734 1.2337-6.7116.4403.4235.8396 1.273 1.8373 3.1547 2.3063 2.5354.6314 4.852-.4047 5.4494-.7518.1117.7949.2157 1.591.2886 2.2786.0459.4327.1582 1.4932 3.127 2.8799-2.3194 4.0264-7.3994 6.1885-8.9761 6.7813-1.4863-.6377-6.1431-2.8809-8.3931-6.7989 2.8815-1.1933 2.7131-2.2734 2.7633-2.7167z"/></svg>