<?xml version="1.0" encoding="utf-8"?>
<!-- Generator: Adobe Illustrator 17.1.0, SVG Export Plug-In . SVG Version: 6.00 Build 0)  -->
<svg version="1.2" baseProfile="tiny" xmlns="http://www.w3.org/2000/svg" xmlns:xlink="http://www.w3.org/1999/xlink" x="0px"
	 y="0px" width="64px" height="64px" viewBox="0 0 64 64" xml:space="preserve">
<g id="_x36_4px_Boxes">
	<rect fill="none" width="64" height="64"/>
</g>
<g id="Production">
	<path d="M51.7886,45.2578c-2.4599-2.5708-9.1989-4.1501-11.0196-5.6074c-0.0966-0.8489-0.2382-1.8883-0.385-2.8905
		c2.8209,0.2978,5.2188,0.64,6.9231,1.2385c0.375,0.1318,0.771-0.1191,0.875-0.5381c1.2578-5.0869,1.8078-8.516,1.8078-12.2415
		c0-7.4844-2.8127-15.4792-7.1271-18.0651C40.1123,5.5052,37.02,6.1055,37.02,6.1055s-2.9731-2.8631-8.1728-1.8836
		c-8.4834,1.5986-14.8408,9.7429-14.8408,20.9969c0,3.7255,0.56,7.1546,1.8178,12.2415c0.1035,0.419,0.5,0.6699,0.875,0.5381
		c1.8217-0.6398,4.2865-1.0065,7.3642-1.3018c-0.1118,0.9402-0.2354,1.9943-0.3572,3.0632
		c-1.6736,1.1948-8.7768,2.6575-11.4948,5.498C9.4531,48.1416,8,59,8,59h24h24C56,59,54.5469,48.1416,51.7886,45.2578z
		 M26.4204,40.4229c0.0657-0.5789,0.5774-5.3235,0.5774-5.3235c-2.518-2.48-3.5982-5.5714-4.0564-8.2801
		c-0.293-1.7298-0.2532-3.3401-0.1641-4.4102c4.8017-1.8932,11.6045-5.7473,14.2355-9.0572c0,0,0.3202,0.0147,0.1174,0.5033
		c-0.3447,0.8305-0.8485,1.8115-1.5488,2.9773c1.2409,2.6346,3.4734,4.5625,5.676,5.9304c0.0662,1.034,0.0662,2.4655-0.1989,4.0564
		c-0.5298,3.1827-2.8208,7.626-5.3403,9.1846c-1.7212,1.0648-4.8734,1.2337-6.7116,0.4403c0.4235,0.8396,1.273,1.8373,3.1547,2.3063
		c2.5354,0.6314,4.852-0.4047,5.4494-0.7518c0.1117,0.7949,0.2157,1.591,0.2886,2.2786c0.0459,0.4327,0.1582,1.4932,3.127,2.8799
		c-2.3194,4.0264-7.3994,6.1885-8.9761,6.7813c-1.4863-0.6377-6.1431-2.8809-8.3931-6.7989
		C26.5386,41.9463,26.3702,40.8662,26.4204,40.4229z"/>
</g>
</svg>
