<svg height="64" viewBox="0 0 64 64" width="64" xmlns="http://www.w3.org/2000/svg"><path d="m0 0h64v64h-64z" fill="none"/><path d="m52.5 45c-2.4-2.5-7.6-4.6-10.9-5.7 1.1-1.3 1.8-3.1 2.1-5.3 1.2-.9 2.2-2.8 2.3-6.6 0-1.5-.3-3.3-1.4-4.5.8-2.2.4-5.7-1.5-8.7-.8-1.3-2-2.7-4-3.8.2-.5.3-1.1.3-1.7 0-3.2-3.3-5.8-7.4-5.8s-7.4 2.5-7.4 5.8c0 .6.1 1.2.3 1.7-2.1 1-3.2 2.5-4 3.8-1.9 3-2.3 6.5-1.5 8.7-1.1 1.2-1.4 3-1.4 4.5.1 3.8 1.1 5.7 2.3 6.6.3 2.1 1.1 3.9 2.1 5.2-3.2 1.1-8.4 3.1-10.8 5.8-4.6 5-4.6 14-4.6 14h50s.2-9.2-4.5-14zm-20.5-38.9c2.4 0 4.4 1.3 4.4 2.8 0 .2-.1.5-.2.7-1.2-.4-2.6-.6-4.2-.6s-3 .2-4.3.5c-.1-.2-.2-.4-.2-.7.1-1.4 2.1-2.7 4.5-2.7zm-8.6 9.8c1.7-2.6 4.5-4 8.6-4s6.9 1.5 8.6 4c1.2 1.8 1.6 3.8 1.4 5.2-2.6-.4-5.9-1.9-10-6.5-2.7 3-6 5.9-10 6.5-.2-1.3.2-3.3 1.4-5.2zm15.5 10.1h-13.7l-1.6-2.2c3.7-.9 6.8-3.4 8.4-4.8 1.6 1.5 4.7 4 8.4 4.8zm.1 1.5c-.2 1.5-1 2.4-2.3 2.4s-2.1-.8-2.3-2.4zm-9.4 0c-.2 1.6-.9 2.4-2.3 2.4-1.3 0-2.1-.9-2.3-2.4zm2.4 24c-1.7-.8-7.1-3.6-9.9-9 .9-.3 2.2-.6 3.2-1.5.6-.5 1.2-1.3 1.5-2.4-2.3-.3-3.7-3.4-3.7-7.2-.2.2-.5.3-.6.3-1 0-1.4-2.3-1.4-4.3 0-1.3.4-2.3.8-2.6l1.7 2.4c.1 3.1 2 4.2 3.8 4.2 2.2 0 3.5-1.4 3.8-3.9h1.8c.2 2.4 1.6 3.9 3.8 3.9 1.8 0 3.6-1.1 3.8-4.2l1.7-2.3c.4.2.8 1.3.8 2.5-.1 2-.5 4.3-1.4 4.3-.2 0-.4-.1-.6-.3 0 4-1.5 7.2-4 7.3-1.5 1.9-2.9 2.3-5.1 2.3-1.2 0-2.1-.1-2.9-.5.6.9 1.7 2.1 3.6 2.6 2.4.6 4.5-.1 5.9-1.6 1 .3 2.1.7 3.3 1.1-2.8 5.3-8.2 8.1-9.9 8.9z"/></svg>