<?xml version="1.0" encoding="utf-8"?>
<!-- Generator: Adobe Illustrator 17.1.0, SVG Export Plug-In . SVG Version: 6.00 Build 0)  -->
<svg version="1.2" baseProfile="tiny" xmlns="http://www.w3.org/2000/svg" xmlns:xlink="http://www.w3.org/1999/xlink" x="0px"
	 y="0px" width="64px" height="64px" viewBox="0 0 64 64" xml:space="preserve">
<g id="_x36_4px_Boxes">
	<rect fill="none" width="64" height="64"/>
</g>
<g id="Production">
	<g>
		<path d="M31.5,11.9775c3.1371,0,4.952-2.2094,4.952-5.3887c0-3.6236-1.8971-5.5663-4.952-5.5663
			c-3.2183,0-4.952,2.2967-4.952,5.5663C26.548,10.0338,28.3634,11.9775,31.5,11.9775z"/>
		<path d="M43.6888,32.8934c-0.6873-3.7973-1.5374-5.8741-1.8479-8.5127c-0.687-5.842-2.4202-8.6494-5.6446-9.6706
			c-1.5357-0.4862-2.9998-0.71-4.6666-0.7101h-0.0594c-1.6668,0.0001-3.1309,0.2239-4.6666,0.7101
			c-3.2244,1.0212-4.9576,3.8286-5.6446,9.6706c-0.3105,2.6386-1.1606,4.7154-1.8479,8.5127
			c-0.5594,3.0898,1.1044,4.7785,2.4633,4.9574c3.12-10.0822,2.8946-14.4571,3.6686-16.7189
			c0.1393-0.4069,0.4868-1.035,0.4868-1.035c-0.6605,2.7683-0.2397,4.0728,0.0874,5.4732c0.3481,1.4898,0.4286,3.0468,0.0458,4.5343
			c-0.7204,2.7992-3.0218,6.4693-3.0218,15.3999c0,0,2.2966,0.6234,5.9942,0.3032c0.1223,0.1992,0.0724,0.4592-0.2386,0.6769
			c-0.2738,0.1916-1.0998,0.5802-2.7501,0.627L26.6324,63c0,0,3.6438-0.5727,3.8914-4.2421c0,0,0.3061-9.001,0.4484-13.1946
			c0.1853-0.0302,0.3678-0.0578,0.5581-0.093c0.1603-0.0296,0.3217-0.0518,0.4828-0.076
			c0.1394,4.0958,0.4519,13.2595,0.4519,13.2595C32.6499,62.4341,36.3676,63,36.3676,63l0.66-17.6766
			c1.7237,0.1688,2.9298,0.4569,2.9298,0.4569c0-8.9306-2.3001-12.8767-3.0205-15.6759c-0.3827-1.4875-0.3023-3.0445,0.0458-4.5343
			c0.3271-1.4004,0.7479-2.7049,0.0874-5.4732c0,0,0.3475,0.6281,0.4868,1.035c0.774,2.2618,0.5486,6.6367,3.6686,16.7189
			C42.5844,37.6719,44.2482,35.9832,43.6888,32.8934z"/>
	</g>
</g>
</svg>
