<svg enable-background="new 0 0 64 64" height="64" viewBox="0 0 64 64" width="64" xmlns="http://www.w3.org/2000/svg"><path d="m0 0h64v64h-64z" fill="none"/><path d="m50.4381 40.9448c-.0493.4165-.1093 1.4414-.2932 1.8184 0 0 .0004.0002.0007.0002-.0822.1429-.1957.2524-.3651.3159-.2097.0786-.9341.337-1.3396.4832 1.9908.9495 3.8491 2.0374 4.937 3.1743l.0005.0005c.9224.9641 1.6951 2.5155 2.3367 4.2626h7.2849s-.0581-3.9122-1.2523-5.1693c-.4075-.4292-1.2191-.8967-2.1119-1.3276-1.1692-.5784-2.7158-1.0901-3.4119-1.351-.6233-.2334-.5287-1.0455-.6577-2.1344 1.7634-.0718 2.9615-.2455 3.5681-.4766.1198-.0457.1802-.1555.1268-.272-.3317-.7239-1.194-2.8947-1.3024-4.1379-.0552-.6321-.0781-1.3687-.115-2.1256.0073-.0013.0093-.0043.0159-.0056-.2593-2.8953-.9678-5.5828-4.1229-4.4971 0 0-2.5287-1.6964-4.5825 1.1415-.8624 1.1921-1.0804 2.093-1.1317 3.3555h.0175c-.0416.8501-.0127 1.6364-.0371 2.2274-.0432 1.0441-.8976 3.2451-1.2571 3.8696-.0765.1329-.0504.2675.0936.3197.6508.2366 1.8762.4196 3.5987.5283zm-39.8165 5.7925c1.1399-1.1914 3.1232-2.3313 5.2213-3.3118-.6213-.2134-1.5966-.5255-1.9436-.6226-.4908-.2009-.567-.8796-.6023-1.4132.7592-.8846 1.3224-1.9476 1.5167-3.34.7642-.238.917-1.2024.917-1.8037 0-.6011-.1047-.9264-.3184-1.0271-.1567-.0737-.302-.0382-.4124.0132v-1.6575c.7958-.4647 2.4202-1.8063-.0793-4.0957-1.3127-1.2021-3.4495-.7893-5.5109.2064-.1243-.2415-.3688-.4115-.6591-.4115-.4136 0-.7488.3352-.7488.7488 0 .1344.0449.2539.1069.3629-2.3817 1.4406-4.3789 3.4197-4.4392 4.1963-.0426.5482.7266.7423 1.8704.7355-.1334.1555-.2019.4525-.2019.9287 0 .6013.153 1.5657.917 1.8037.1713 1.4399.7251 2.4587 1.4688 3.3088-.0254.6016-.0671 1.3259-.6399 1.4861-1.2009.3356-3.8577 1.1779-4.7932 2.1631-1.194 1.2573-1.2907 5.9923-1.2907 5.9923h7.2848c.6417-1.7471 1.4144-3.2986 2.3368-4.2627zm35.8528-1.6609c-1.5298-.7014-5.8876-2.4351-6.2869-2.6814-.1233-1.0872-.248-2.1813-.3606-3.1656 2.3038-2.4675 3.686-5.0348 4.1028-7.6727 1.3281-1.2195 2.078-3.1658 2.078-5.5557 0-.74-.0166-2.6733-1.2212-4.0065.1349-.7313.2135-1.482.2135-2.2521 0-5.564-3.6443-10.2822-8.7159-12.0195.0623-.2942.0978-.5981.0978-.9109 0-2.4199-1.9619-4.3818-4.3818-4.3818-2.2788 0-4.1294 1.7461-4.3402 3.9697 1.2598-.0659 2.504-.072 3.381.0658.5917.0929.8246.3334.7764.5433-7.0946.097-12.8173 5.7565-12.8173 12.7334 0 .7705.0787 1.5217.2139 2.2537-1.2036 1.333-1.2214 3.2651-1.2214 4.0049 0 2.3862.7472 4.3298 2.0714 5.5498.4049 2.6635 1.7721 5.2035 4.1083 7.6863-.1123.9829-.2366 2.073-.3596 3.158-.2164.1335-5.8257 2.47-6.2869 2.6814-2.1611.9515-4.2473 2.0664-5.3142 3.1814-2.7584 2.8837-4.2115 13.7421-4.2115 13.7421h48s-1.4531-10.8584-4.2114-13.7422c-1.0669-1.115-3.1531-2.2298-5.3142-3.1814zm-13.1969 13.6323-1.2775-4.542-1.2786 4.5457c-2.8914-1.8524-8.2075-5.8815-10.3699-11.605 3.7415-1.5677 6.1863-2.1152 6.3984-3.9897.0527-.467.3096-2.7292.5669-4.9739-.0104-.0098-.0205-.0166-.0309-.0261l.0001-.002c-2.2941-2.1543-4.3447-4.9171-4.3447-8.2964-1.4881-.4636-1.9413-2.2666-1.9413-3.8183 0-.6362.0554-1.1265.1674-1.4844.1119-.3577.2804-.583.5065-.6895.0002-.0002.0005-.0002.0009-.0004.4152-.1952.9015-.0347 1.2667.265 0-.832.0172-3.1761.7433-5.5813 2.2526-2.0306 5.1472-3.2596 8.3153-3.2596 3.2297 0 6.1703 1.2828 8.4409 3.3846.0385.1418.0847.2839.1184.4252.1626.6818.2722 1.3536.3462 1.9847.1479 1.2622.1531 2.3607.1531 3.0464.3613-.2964.8413-.4656 1.2676-.2646.452.2129.6737.9014.6737 2.1739 0 1.5526-.4536 3.3549-1.9414 3.8184 0 3.353-2.0691 6.156-4.3756 8.3228h-.0001c-1 .9393-1.8479 1.8578-4.6831 1.8578-1.0916 0-2.1819-.1841-2.9907-.5508.4012.9803 1.2428 2.2144 3.2751 2.7209 1.8115.4512 3.7573.2236 4.8066-.4568.053.4663.1064.9368.1592 1.4038.2117 1.8708 2.6411 2.4183 6.3979 3.9897-2.1594 5.7067-7.4777 9.7438-10.3704 11.6019zm2.0294-25.3144s-1.9-2.7258-3.307-1.4468c-1.4067-1.2791-3.3068 1.4468-3.3068 1.4468s1.7068 1.989 3.3068 1.989c1.6002 0 3.307-1.989 3.307-1.989z"/></svg>