<svg height="64" viewBox="0 0 64 64" width="64" xmlns="http://www.w3.org/2000/svg"><path d="m0 0h64v64h-64z" fill="none"/><path d="m47.5596 9.7725c-3.9414-2.2608-8.3721-1.2456-8.3721-1.2456s-4.2588-4.6155-11.709-3.2723c-12.1553 2.1919-21.4785 14.0491-21.4785 29.4817 0 5.0186.7539 8.8604 2.4893 15.6084.0595.2315.1972.4463.3886.585 3.4859 2.5361 7.9371 3.1139 12.3096 2.7411 3.0341 3.316 6.8209 5.2892 10.8955 5.2892 4.0501 0 7.8165-1.9477 10.8413-5.2267 4.6623.2934 9.2542-.5072 12.2329-2.8349.1768-.1377.3008-.3427.3565-.5605 1.7392-6.7598 2.4863-10.5781 2.4863-15.6016 0-10.2641-4.2598-21.4184-10.4404-24.9638zm-29.7328 26.924c-.0918-.9839-.1588-1.931-.2074-2.8509 6.2067-1.831 17.5842-7.3374 21.4021-15.2126.1068.0012.262.0892.218.4124-.1521 1.1188-.6292 3.2682-2.0739 6.101 2.5248 3.4161 6.2002 5.5041 9.4545 6.7638-.0306 1.5028-.1224 3.0956-.28 4.7863-.9748 10.4498-7.2384 18.4635-14.2571 18.4635-7.0178 0-13.2814-8.0137-14.2562-18.4635z"/></svg>