<?xml version="1.0" encoding="utf-8"?>
<!-- Generator: Adobe Illustrator 17.1.0, SVG Export Plug-In . SVG Version: 6.00 Build 0)  -->
<svg version="1.2" baseProfile="tiny" xmlns="http://www.w3.org/2000/svg" xmlns:xlink="http://www.w3.org/1999/xlink" x="0px"
	 y="0px" width="64px" height="64px" viewBox="0 0 64 64" xml:space="preserve">
<g id="_x36_4px_Boxes">
	<rect fill="none" width="64" height="64"/>
</g>
<g id="Production">
	<path d="M47.5596,9.7725c-3.9414-2.2608-8.3721-1.2456-8.3721-1.2456s-4.2588-4.6155-11.709-3.2723
		C15.3232,7.4465,6,19.3037,6,34.7363c0,5.0186,0.7539,8.8604,2.4893,15.6084c0.0595,0.2315,0.1972,0.4463,0.3886,0.585
		c3.4859,2.5361,7.9371,3.1139,12.3096,2.7411c3.0341,3.316,6.8209,5.2892,10.8955,5.2892c4.0501,0,7.8165-1.9477,10.8413-5.2267
		c4.6623,0.2934,9.2542-0.5072,12.2329-2.8349c0.1768-0.1377,0.3008-0.3427,0.3565-0.5605C57.2529,43.5781,58,39.7598,58,34.7363
		C58,24.4722,53.7402,13.3179,47.5596,9.7725z M17.8268,36.6965c-0.0918-0.9839-0.1588-1.931-0.2074-2.8509
		c6.2067-1.831,17.5842-7.3374,21.4021-15.2126c0.1068,0.0012,0.262,0.0892,0.218,0.4124c-0.1521,1.1188-0.6292,3.2682-2.0739,6.101
		c2.5248,3.4161,6.2002,5.5041,9.4545,6.7638c-0.0306,1.5028-0.1224,3.0956-0.28,4.7863C45.3653,47.1463,39.1017,55.16,32.083,55.16
		C25.0652,55.16,18.8016,47.1463,17.8268,36.6965z"/>
</g>
</svg>
