<svg height="64" viewBox="0 0 64 64" width="64" xmlns="http://www.w3.org/2000/svg"><path d="m0 0h64v64h-64z" fill="none"/><path d="m47.7 22.6c-1.8-2-5.6-6.2-10.5-7.9-1.5-.5-3-.7-4.7-.7h-.1c-1.7 0-3.1.2-4.7.7-1.4.4-5.9 2.5-9.5 6.4-.6.7-.7 1.6-.3 2.4l3.5 5.5c.7-1.1 1.6-2 2.4-2.7l-1.6-3.2s1.7-1.4 3.7-2.7c-.5 1-1 2.3-.9 3.3.3 1.8 1.8 2.2 1.8 2.2s-5 2.8-5.4 7c-.4 4.6 3.8 6 3.5 9.3-.3 3.2-1 5.1-1.1 5.3.8.2 3.1.6 6 .4.1.2.1.5-.3.7-.3.2-1.1.5-2.7.6l.8 13.8s3.6-.6 3.9-4.2c0 0 .2-6.5.4-11.1.6-.1.5-.2 1.2-.3.2 4.5.4 11.2.4 11.2.2 3.8 3.9 4.3 3.9 4.3l.6-15.7c1.9.1 3.4.4 3.4.4s-1.4-3.7-1.4-5.9 1.2-6 .6-10.1c0-.1 0-.2 0-.3 1.2-.1 2.6-.6 3.7-1.6 1.6-1.5 2.8-3.2 3.8-4.8.3-.7.2-1.7-.4-2.3zm-7.8 6.2c-.7-2.5-1.5-4.7-.7-8 2.7 2 4.4 3.6 4.4 3.6-1 1.4-2.5 3.2-3.7 4.4zm-7.4-16.8c3.1 0 5-2.2 5-5.4 0-3.6-1.9-5.6-5-5.6-3.2 0-5 2.3-5 5.6.1 3.4 1.9 5.4 5 5.4z"/></svg>