<?xml version="1.0" encoding="utf-8"?>
<!-- Generator: Adobe Illustrator 17.1.0, SVG Export Plug-In . SVG Version: 6.00 Build 0)  -->
<svg version="1.2" baseProfile="tiny" xmlns="http://www.w3.org/2000/svg" xmlns:xlink="http://www.w3.org/1999/xlink" x="0px"
	 y="0px" width="64px" height="64px" viewBox="0 0 64 64" xml:space="preserve">
<g id="Box">
	<rect fill="none" width="64" height="64"/>
</g>
<g id="Icon">
	<g>
		<path d="M31.5041,11.5319c2.7442,0.0193,4.3462-1.8908,4.3657-4.6577c0.0226-3.1525-1.6253-4.8544-4.298-4.874
			c-2.8154-0.0201-4.3464,1.968-4.3667,4.812C27.1832,9.8095,28.7604,11.5115,31.5041,11.5319z"/>
		<path d="M39.7627,30.7242c0-3.0771-2.7501-5.8572-4.0541-7.7397c0.0002-0.0144,0.0021-0.0283,0.0023-0.0427
			c2.9733-2.303,0.0516-3.4016-1.1618-6.5026C33.9072,14.799,33.7563,13,30,13c-1.9167,0-4,0.8205-5.5286,3.8423
			C21.3897,22.9347,19,34.9395,19,34.9395s2.3719,0.5843,3.9843-1.9547c0.9834-1.9777,3.0493-9.187,3.4688-10.6254
			c0.1539-0.0899,0.3281-0.125,0.29,0.3041c-0.5166,5.8207-4.4788,18.0519-4.9944,19.9857c1.0543,0.7825,3.8065,2.175,8.0355,2.2251
			c0.0752,0.2195-0.0789,0.3263-0.6436,0.5789c-0.5938,0.2656-2.1586,0.8225-3.5553,0.7713
			c-0.5339,2.6123-2.0398,7.122-2.5693,10.2768c-0.43,2.5605,1.2419,4.8585,2.6097,5.2594c1.7187-5.432,2.7197-8.335,3.6879-11.1408
			c0.3375,2.8102,0.5905,5.2981,0.7337,6.2469c0.4978,3.2974,2.5847,4.9605,3.9526,4.8561v-17.272
			c1.8115-0.4537,3.1288-1.1547,3.1288-1.1547c-0.1706-2.2166-0.5088-4.5002-1.0892-6.6856
			C37.2216,35.8341,39.7627,33.4314,39.7627,30.7242z"/>
	</g>
</g>
</svg>
