<svg enable-background="new 0 0 64 64" viewBox="0 0 64 64" xmlns="http://www.w3.org/2000/svg"><path d="m51.2463 45.0975c-2.0387-2.2172-7.901-4.1891-10.6312-5.0171-.1448-1.0415-.3374-2.2477-.5104-3.2526 1.6701-2.023 2.696-4.1127 3.0341-6.2529 1.2401-1.1386 1.9308-2.9558 1.9308-5.1874 0-.6953.0011-2.5234-1.1455-3.769.2836-3.1165.4809-7.9397-.7348-9.8851-.1057-.1691-.2176-.3174-.3269-.474l1.9361-.652v6.3498l1.3229-1.3228 1.3668 1.3668v-7.441l3.0315-1.0915-18.5197-4.63-18.2008 4.63 7.9262 2.8084c-.1823.1666-.3628.3342-.5192.5147-1.5425 1.7802-1.4373 6.7448-1.1896 9.9023-1.082 1.2437-1.0863 3.0118-1.0863 3.6935 0 2.2278.6885 4.0429 1.9247 5.1818.3566 2.3453 1.7131 4.7251 3.6715 6.9172-.099.7535-.2254 1.4022-.5366 2.4135-2.3463.6858-9.0303 2.7982-11.2363 5.1974-2.6829 2.9169-4.0963 13.9025-4.0963 13.9025h23.3427 23.3427s-1.4134-10.9856-4.0964-13.9025zm-14.521 7.9025v4h-9v-4h-4l3.6488-16.5207c-2.1258-2.0541-3.8322-4.5438-3.8322-7.5266-1.5104-.4705-1.9061-2.3767-1.9061-3.5652 0-1.1882.3003-1.831.7225-2.0302.3661-.1723.7213-.0445.9458.0827.132.6094.2318 1.0628.2706 1.2229.1923.7947.9555.7217.9555.7217v-6.298c1.9357-.1405 5.7831-.7032 10.0372-2.9003l4.9021 3.2924v5.9058s.7632.073.9555-.7217c.0387-.1601.1386-.6135.2706-1.2229.2246-.1272.5798-.255.9458-.0827.4222.1992.7225.842.7225 2.0302 0 1.1885-.3956 3.0947-1.9061 3.5652 0 3.4572-2.3656 6.0653-4.9862 8.2956-.7289.6204-2.1008 1.0333-3.4723 1.0322-.9923-.0007-1.9846-.2675-2.7331-.5929.5731.8689 1.5456 1.9369 3.3472 2.4138 2.9456.7796 5.0975-.8534 5.0975-.8534l3.0144 13.7521z"/></svg>