<svg viewBox="0 0 64 64" xmlns="http://www.w3.org/2000/svg"><path d="m0 0h64v64h-64z" fill="none"/><path d="m25.22 34h-9.76c-1.5 0-1.93-1.28-1.7-2.55s1-5.75 1.11-8.08l2.8 2.51a4.13 4.13 0 0 0 2.33.72h4.85c.81 0 2.71-.36 3.11-1.87a5.31 5.31 0 0 0 .12-1.44h-7.25l-8.21-7.23a4.64 4.64 0 0 0 -3.12-1.06c-1.54 0-3.83.86-4.41 5-.94 6.7-1.09 8.63-1.42 14a6.78 6.78 0 0 0 6.71 6.81c3.92 0 10.29.13 11 0-.72 2.55-1 4.44-1.92 8.09-1.35 5.22 3.72 6.58 3.72 6.58l1.06-3.73s3.18-12.74 3.59-14.43-.41-3.32-2.61-3.32z"/><path d="m16.25 30.35a1.66 1.66 0 0 0 1.55 1.76h22.1a1.67 1.67 0 0 0 1.56-1.76v-1.75h-25.21z"/><path d="m12.53 13.39c2.57.48 4.38-1.09 4.84-3.74.53-3-.75-4.94-3.26-5.4s-4.4 1.16-4.88 3.89.77 4.78 3.3 5.25z"/><path d="m46.42 13.64c2.57-.52 3.75-2.44 3.21-5.31s-2.3-4.33-4.94-3.81-3.75 2.48-3.17 5.48c.48 2.62 2.33 4.16 4.9 3.64z"/><path d="m59.4 42h-2.51v-2c0-.83-.67-1-1.5-1s-1.51.17-1.51 1v2h-7v-2c0-.83-.68-1-1.51-1s-1.5.17-1.5 1v2h-2.52a1.47 1.47 0 0 0 -1.47 1.47v16a1.47 1.47 0 0 0 1.47 1.47h18a1.47 1.47 0 0 0 1.47-1.47v-16a1.47 1.47 0 0 0 -1.42-1.47zm-.47 17h-17.11v-12.07h17.11z"/><path d="m45.36 38.91c-.83 0-1.5.17-1.5 1v1h3v-1c.01-.83-.67-1-1.5-1z"/><path d="m36.88 43.42a4.47 4.47 0 0 1 4.12-4.42c.51-2.39 2.92-3.06 4.41-3.06 2.86 0 4 1.63 4.38 3h1.21a3.9 3.9 0 0 1 3.23-2.94 8.49 8.49 0 0 0 .06-1.69c-.25-3.9-.37-7.47-1.31-14.16s-6.12-4.76-6.12-4.76a6.72 6.72 0 0 0 -1.93 1.26l-.11.1-9.19 9.83h4.23a3.76 3.76 0 0 0 2.34-1.22c.43-.42 1.07-1 1.07-1 .2 2.17 1 7 1.13 7.91a1.32 1.32 0 0 1 -1.34 1.73c-1.75 0-4.67 0-6.21.11a3.38 3.38 0 0 0 -3.46 2.89c-.38 1.43-3.63 14.69-3.63 14.69l-.92 3.77s5.12 1.17 6.51-4c.59-2.18 1.12-4.38 1.53-6.21z"/><path d="m43.86 48.93h3.01v3.01h-3.01z"/><path d="m48.87 48.93h3.01v3.01h-3.01z"/><path d="m53.88 48.93h3.01v3.01h-3.01z"/><path d="m43.86 53.95h3.01v3.01h-3.01z"/><path d="m48.87 53.95h3.01v3.01h-3.01z"/><path d="m53.88 53.95h3.01v3.01h-3.01z"/></svg>