<svg height="64" viewBox="0 0 64 64" width="64" xmlns="http://www.w3.org/2000/svg"><path d="m0 0h64v64h-64z" fill="none"/><path d="m14 56h11v3h-11z"/><path d="m36.5171 56.7241c-1.3564 1.6334-1.6694-.6655-2.8693-.2452s-.3652 2.5211-.3652 2.5211h8.2949c1.5128-4.2577-3.704-3.9092-5.0604-2.2759z"/><path d="m52.6129 44.1104c-2.1834-2.3745-8.462-4.4866-11.386-5.3733-.155-1.1155-.3614-2.4072-.5466-3.4836 1.7886-2.1666 2.8874-4.4047 3.2495-6.6968 1.3281-1.2195 2.0679-3.1656 2.0679-5.5557 0-.7446.0012-2.7025-1.2268-4.0366.1467-1.6118.2579-3.1619.1979-4.5768 1.0827-2.8638 2.2095-10.9397-4.265-11.3514-6.5208-.4149-13.1506 2.8427-16.6331 4.9764-1.8292 1.1207-3.3518 2.5911-4.4285 4.3329-1.3718 2.2195-2.6133 5.2419-.5047 6.7385-1.1271 1.3298-1.1351 3.1936-1.1351 3.917 0 2.386.7374 4.3298 2.0614 5.5497.3819 2.5118 1.613 4.9142 3.7105 7.2618-.106.8071-.2283 1.7499-.353 2.7314-2.5129.7344-9.6714 2.9968-12.0341 5.5664-2.8735 3.1241-4.3872 14.8897-4.3872 14.8897h3.0017l.4886-2.9099c1.0327.7034 1.9901.8379 1.7838-1.1362-.2607-2.4932.6729-2.4984 3.6718-1.2722 2.9988 1.2263 3.7187-2.1941 2.4482-2.6781-1.2704-.484-2.7551-1.3646-2.1877-2.7648.5495-1.3561 1.8149.4236 2.6618-.5444.6015-.6875-.9905-2.5603-1.9657-3.5907 1.7094-.7933 3.9039-1.6213 6.3447-2.3751.0779.6309.2419 1.2502.463 1.8579-1.1998.6143-2.9373 1.6299-2.3432 3.2068.1727.4585.3154 1.54 2.5367 1.8228 1.1857.1509 1.0389 2.2468-.688 1.9497-1.2758-.2196-2.2157-.2555-2.2157 1.3813 0 2.0529 1.9584 1.9969 2.5774 1.9042.8421-.1261.9154-.6306 1.357-1.2654.6392-.9187 2.4497-.9677 2.5376.2825.0866 1.2312-.0845 3.1313 2.4213 3.1316 1.8091.0002 1.1461-1.7129 2.4343-2.9309l.0016.0012 1.8013-1.2939c1.1616-.834 6.418-4.8584 7.1865-9.8701 5.396 1.7168 8.2612 3.3359 9.0874 4.2344.8165.8879 1.7381 3.6982 2.4849 6.9423-2.2418.4479-1.0197 3.7214-2.9935 2.8824-1.9763-.84.762-2.694-.0696-3.6392-1.1544-1.3122-2.8262.6738-2.8262 2.6482 0 0 0 1.0256-1.6154 1.0256-1.7435 0-2.3846 3-2.3846 3h14.0001s-1.5138-11.7656-4.3872-14.8896zm-17.6128-35.4063c0-.3889.3048-.7041.6807-.7041h3.6384c.376 0 .6808.3152.6808.7041v3.0522c0 .2112-.0917.4114-.2498.545l-1.8192 1.5394c-.2508.2122-.6115.2122-.8622 0l-1.8192-1.5394c-.1581-.1337-.2497-.3339-.2497-.545v-3.0522zm-2.6191 40.6357c-2.3003-1.75-6.5919-5.5303-6.1588-9.0225.237-1.9128.0408-.5492.8235-5.437-2.2767-2.2-4.1043-4.8666-4.1043-8.061-1.6177-.5039-2.0414-2.5454-2.0414-3.8184 0-1.2725.3217-1.9609.7737-2.1743.3922-.1844.7725-.0476 1.013.0886.1414.6527.2484 1.1383.2898 1.3098.2061.8511 1.0234.7729 1.0234.7729v-3.9109c1.748-1.4766 4.6876-3.087 9.0834-3.087 7.1474 0 8.7015-.1646 10.1561-.9121 0 0 .1768.0066.008.2498-.1499.2158-1.319 1.4441-3.2474 1.8606v5.7998s.8174.0781 1.0234-.7729c.0415-.1715.1484-.6571.2898-1.3098.2405-.1362.6209-.2731 1.013-.0886.4521.2132.7738.9017.7738 2.1742 0 1.2729-.4237 3.3145-2.0414 3.8184 0 3.7026-2.5335 6.4958-5.3403 8.8845-.7807.6644-2.2499 1.1067-3.7188 1.1055-1.0628-.0007-2.1255-.2864-2.9271-.6348.6138.9304 1.6553 2.0743 3.5848 2.585 3.1548.835 5.4595-.9138 5.4595-.9138s.2828 1.9133.2745 2.4158c.3268 3.4882-3.5567 7.3168-6.0102 9.0782z"/><path d="m46 51c0-1.0006-2 0-2-1 0-.6499.9756-.8792 1.1956-1 .625-.3435 1.7888-1 1.7888-2s-1.7923-2-2.7923-2c-3 0-2.239 5-3.1921 5-.8281 0-.7188-.9844-1.5-.9844-.8311 0-1.9062 2.2188-2.2936 3.0059-.3456.702-.3524 1.9785.7936 1.9785 1 0 1.5833-1.0142 3-1 1 0 1 .6694 1 1 0 1 1 1 1 1 2 0 3-3.9429 3-4z"/></svg>