<svg height="64" viewBox="0 0 64 64" width="64" xmlns="http://www.w3.org/2000/svg"><path d="m0 0h64v64h-64z" fill="none"/><path d="m36.061 26.8193c0 2.6557-1.2385 4.6483-2.9114 6.5667-2.6125 2.996-5.2689 4.4426-9.0748 2.7885 1.3991 2.1209 3.6667 2.9814 5.9349 2.7835 3.2185-.2807 5.7593-3.3948 7.3903-6.1989.7901-1.3583 1.3024-2.7485 1.532-4.2024 1.3282-1.2195 2.068-3.1656 2.068-5.5557 0-.7447-.0088-2.7025-1.2368-4.0366.3036-3.3378.525-8.5034-.7769-10.587-1.6026-2.5648-3.5498-3.8159-7.2632-2.9774-2.4355-1.1577-4.0937-1.8823-8.3608-.8398-2.9648.7241-6.21 1.9067-7.92 3.8798-1.652 1.9066-1.5394 7.2237-1.2741 10.6054-1.1589 1.332-1.1634 3.2256-1.1634 3.9557 0 2.386.7374 4.3299 2.0614 5.5497.3819 2.5118 1.613 4.9141 3.7105 7.2619-.106.807-.2283 1.7498-.353 2.7313-3.1678.926-9.8019 3.1497-12.0242 5.5665-2.8736 3.1239-4.3872 14.8895-4.3872 14.8895h31.3984.0523c-.4154-2.9713-.5107-7.0173-.5107-10 0-2.0401.0474-4.5734.2084-6.9241-.7892 2.9274-3.7352 5.8048-5.7674 7.2639-1.9927-1.5159-5.4742-4.5554-6.0898-7.6113-.1635-.8035-.0923-1.2143.0005-1.9785h-.0099c.1341-1.105.0663-.5752.754-4.8696-2.2767-2.2-4.1043-4.8665-4.1043-8.061-1.6177-.5039-2.0414-2.5454-2.0414-3.8183 0-1.2725.3217-1.961.7737-2.1743.3922-.1844.7725-.0475 1.013.0886.1414.6527.2484 1.1383.2898 1.3098.2061.8511 1.0234.7729 1.0234.7729v-6.7451c2.0731-.1505 6.1937-.7531 10.7499-3.1062l5.2501 3.5262v6.3251s.8174.0782 1.0234-.7729c.0415-.1715.1484-.6571.2898-1.3098.2405-.1362.6209-.2731 1.013-.0886.4521.2133.7738.9018.7738 2.1743.0001 1.2728-.4237 3.3143-2.0413 3.8182z"/><path d="m55.6859 45.8906h-.6859v2.3093c.2695.0349.268.0463.5375.0463 1.1047 0 1.6282-.5251 1.6282-1.2127s-.4022-1.1429-1.4798-1.1429z"/><path d="m61.435 38.826c-.195-1.1729-1.0873-2.0652-2.2607-2.2607-3.3915-.5653-9.0442-.5653-10.1742-.5653-1.1301 0-6.7828 0-10.1743.5654-1.1735.1955-2.0657 1.0878-2.2607 2.2607-.5651 3.3912-.5651 9.0435-.5651 10.1739s0 6.7827.5651 10.174c.195 1.1729 1.0873 2.0652 2.2607 2.2607 3.3914.5653 9.0441.5653 10.1743.5653 1.1301 0 6.7828 0 10.1742-.5654 1.1735-.1955 2.0657-1.0878 2.2607-2.2607.565-3.3912.565-9.0435.565-10.1739 0-3.393 0-6.7827-.565-10.174zm-16.3852 14.174h-6.0498v-1.9041l3.6-5.0959v-.0552h-3.6v-1.9448h6.0227v1.9041l-3.6227 5.0959v.0552h3.6498zm6.9502-7.0959-3.6 5.0959v.0552h3.6v1.9448h-6.0498v-1.9041l3.6498-5.0959v-.0552h-3.6v-1.9448h6zm3.8696 4.14c-.3636 0-.5458-.0135-.8696-.0542v3.0101h-2v-9h3.0583c1.9803 0 3.0717 1.2113 3.0717 2.858 0 1.9206-1.2935 3.1861-3.2604 3.1861z"/></svg>