<svg height="64" viewBox="0 0 64 64" width="64" xmlns="http://www.w3.org/2000/svg"><path d="m0 0h64v64h-64z" fill="none"/><path d="m53.7128 43.4531c-.543-.5977-1.5873-1.1631-2.8702-1.6847-.4764-1-.6655-1.7113-1.6082-2.015l-8.2666-2.7539c-.095-.6034-.1938-1.2021-.2876-1.7461 1.7887-2.1666 2.8875-4.4047 3.2495-6.6968 1.3281-1.2195 2.068-3.1656 2.068-5.5557 0-.7446.0011-2.7025-1.2268-4.0366.1466-1.6118.2579-3.1619.1979-4.5768 1.084-2.8668 2.2096-10.9397-4.2649-11.3514-6.5208-.4148-13.1506 2.8428-16.6332 4.9764-1.8292 1.1207-3.3518 2.5911-4.4285 4.3329-1.3717 2.2195-2.6134 5.2419-.5048 6.7385-1.127 1.3298-1.135 3.1936-1.135 3.917 0 2.386.7374 4.3298 2.0614 5.5497.382 2.5118 1.613 4.9142 3.7106 7.2618-.041.312-.0861.6584-.1311 1.0054l-8.7433 2.9356c-.9092.2928-1.1146.9794-1.5238 1.8381-1.3787.5564-2.5122 1.178-3.0891 1.8616-2.1704 2.573-3.2871 15.4898-3.2871 15.4898s49.9971.0909 49.9924.0571c0 0-.9424-12.9739-3.2796-15.5469zm-18.7128-34.749c0-.3889.3049-.7041.6809-.7041h3.6383c.376 0 .6808.3152.6808.7041v3.0522c0 .2112-.0916.4114-.2498.545l-1.8191 1.5394c-.2507.2122-.6115.2122-.8623 0l-1.8191-1.5394c-.158-.1336-.2497-.3338-.2497-.545zm-2.6189 40.6357c-2.3003-1.75-6.592-5.5303-6.1589-9.0225.2371-1.9128.0409-.5492.8236-5.437-2.2767-2.2-4.1044-4.8666-4.1044-8.061-1.6177-.5039-2.0413-2.5454-2.0413-3.8184 0-1.2725.3215-1.9609.7737-2.1743.3921-.1844.7725-.0476 1.0129.0886.1415.6527.2484 1.1383.2898 1.3098.2061.8512 1.0235.773 1.0235.773v-3.9109c1.7478-1.4767 4.6875-3.0871 9.0833-3.0871 7.1475 0 8.7015-.1646 10.1562-.9121 0 0 .1768.0066.0079.2498-.1499.2158-1.319 1.4441-3.2474 1.8606v5.7998s.8174.0781 1.0234-.7729c.0415-.1715.1484-.6571.2898-1.3098.2405-.1362.6208-.2731 1.0129-.0886.4521.2134.7739.9019.7739 2.1743 0 1.2729-.4238 3.3145-2.0415 3.8184 0 3.7026-2.5334 6.4958-5.3403 8.8845-.7806.6644-2.2498 1.1067-3.7188 1.1055-1.0627-.0007-2.1255-.2864-2.927-.6348.6138.9304 1.6553 2.0743 3.5847 2.585 3.1548.835 5.4595-.9138 5.4595-.9138s.2828 1.9133.2745 2.4158c.3269 3.4881-3.5566 7.3167-6.01 9.0781zm12.6189 4.4165c0 .2112-.0917.4114-.2498.545l-1.8191 1.5394c-.2507.2122-.6116.2122-.8623 0l-1.8191-1.5394c-.158-.1336-.2497-.3338-.2497-.545v-3.0522c0-.3889.3048-.7041.6809-.7041h3.6382c.3761 0 .6809.3152.6809.7041z"/></svg>