<svg enable-background="new 0 0 64 64" viewBox="0 0 64 64" xmlns="http://www.w3.org/2000/svg"><path d="m0 0h64v64h-64z" fill="none"/><path d="m28 4.8 8.2 10.2h16.8l-8-13h-35l-7 13h16.8z"/><path d="m26.545 46.998.243-.51c.297-.621.775-1.132 1.351-1.489h-4.139v-9.999h4.617c-.002-.079-.017-.152-.017-.232 0-1.195.141-2.466.996-3.768h-5.596v-10h8v1.703c1.424-1.516 3.506-2.215 6.291-2.746.627-.597 1.571-.957 2.683-.957s2.057.36 2.684.957c2.817.536 4.918 1.241 6.342 2.792v-5.749h-14.8l-7.2-9-7.2 9h-14.8v36h16.211c.555-1.76 1.263-3.376 2.149-4.339.524-.57 1.243-1.117 2.185-1.663zm1.455-33.498c1.4 0 2.5 1.1 2.5 2.5s-1.1 2.5-2.5 2.5-2.5-1.1-2.5-2.5 1.1-2.5 2.5-2.5zm-9 31.5h-8v-10h8zm0-14h-8v-10h8z"/><path d="m56.021 50.15c-.506-.55-1.314-1.08-2.249-1.569l-.545-1.145c-.161-.338-.454-.594-.81-.709l-4.852-1.562c-.078-.506-.161-1.014-.24-1.469 1.303-1.579 2.104-3.21 2.368-4.88.968-.889 1.507-2.307 1.507-4.048 0-1.57-.43-2.503-1.113-3.211-.01-7.864-2.064-8.638-7.83-9.616.008-.03.018-.059.018-.09 0-.36-.583-.651-1.302-.651s-1.302.291-1.302.651c0 .031.01.06.018.09-5.78.98-7.83 1.754-7.83 9.674.004.01.007.017.01.026-.889.983-1.07 1.845-1.07 3.125 0 1.739.537 3.155 1.502 4.044.278 1.83 1.175 3.581 2.704 5.292-.037.279-.076.583-.117.899l-5.305 1.724c-.356.115-.649.371-.81.709l-.547 1.148c-.933.488-1.742 1.017-2.247 1.566-2.094 2.278-3.197 10.852-3.197 10.852h36.435c.001 0-1.102-8.574-3.196-10.85zm-.878 2.834c.168.424.335.916.497 1.457h-13.64v-1.457zm-16.122-24.638v-.742l.884-.592c-.035-1.132 1.334-1.214.787-2.118 0 0 .704.159.652.97 0 0 .633.225.458.986l1.125.753v.742l-1.953 1.697zm.979 30.468h-14.663c.182-.997.395-1.99.625-2.915h14.038zm0-4.372h-13.641c.162-.541.328-1.034.496-1.457h13.145zm-3.22-7.491c.256-1.478.604-3.492.61-3.527-1.659-1.603-2.991-3.546-2.991-5.874-1.179-.367-1.488-1.855-1.488-2.782 0-.376.047-.665.115-.906.245.251.522.406.875.513 1.417.429 2.41-1.457 7.073-1.457s5.656 1.886 7.073 1.457c.373-.113.66-.284.916-.561.076.248.126.554.126.954 0 .928-.309 2.415-1.488 2.782 0 2.698-1.846 4.734-3.892 6.474-.569.484-1.639.806-2.71.806-.774-.001-1.549-.209-2.133-.463.447.678 1.206 1.512 2.612 1.884 2.299.608 3.978-.666 3.978-.666s.099.631.188 1.232l-4.644 3.869zm5.22 8.948h14.038c.23.924.443 1.919.625 2.915h-14.663z"/></svg>