<svg height="64" width="64" xmlns="http://www.w3.org/2000/svg">
    <rect width="100%" height="100%" fill="transparent" />
    <path vector-effect="non-scaling-stroke"
        d="M16.459 25.97c.428 3.187 2.138 6.085 4.362 8.282a77.417 77.417 0 00-.651 4.023c-.498 3.798 4.322 7.896 6.83 9.583 3.348-2.252 7.33-5.99 6.75-10.136-3.697 2.964-7.66 2.03-9.627-.986l-.01-.001c-.042-.062-.07-.115-.106-.174-.027-.044-.057-.083-.085-.127 2.265.7 5.914.506 7.405-.584C34.422 33.586 37 30 37.54 25.97c1.882-.505 2.259-2.546 2.259-3.819 0-1.273-.258-1.961-.784-2.174-.24-.097-.473-.1-.684-.067.483-3.357 1.195-9.811-.062-12.135-1.528-2.826-3.348-4.218-6.85-3.291-2.297-1.28-3.861-2.08-7.886-.928-2.796.8-5.856 2.107-7.47 4.288-1.707 2.31-.972 8.715-.439 12.06a1.251 1.251 0 00-.641.073c-.526.213-.784.901-.784 2.174s.377 3.314 2.259 3.818zm.341-14.003c.01-2.363.48-4.716 7.227-6.649 1.147-.329 2.084-.488 2.867-.488 1.486 0 2.415.585 4.34 1.657.771-.204 1.517-.435 2.301-.435 2.018 0 3.34 2.217 3.563 4.225.348 3.146-.284 8.972-.833 11.075-.255.976-1.265.806-1.265.806-.002.001 0-5.509 0-5.509l-5.275-3.85C25.077 15.332 21.043 15.904 19 16.05c0 0 .003 6.11 0 6.108 0 0-1.01.17-1.265-.807-.225-.863-.654-3.04-.841-6.23-.065-.913-.1-1.598-.094-3.154z" />
    <path vector-effect="non-scaling-stroke"
        d="M39.528 39.941l3.612-.668c-2.688-1.227-5.724-2.195-7.323-2.669.068.453.134.913.195 1.376.834 6.372-8.06 11.884-8.439 12.115a1.1 1.1 0 01-1.146 0c-.38-.23-9.273-5.743-8.439-12.115.061-.463.127-.923.195-1.376-2.699.8-9.504 3.003-11.796 5.496C3.514 45.224 2 56.99 2 56.99h35v-4.54a5.966 5.966 0 01-.705-8.171 3.956 3.956 0 01.665-2.67 3.979 3.979 0 012.568-1.668z" />
    <path vector-effect="non-scaling-stroke"
        d="M60.032 48.01l-2.032 3h-3l2.032-3h-3l-2.032 3h-3l2.032-3h-3l-2.032 3h-3l2.032-3H44c0-.25-.04-.49-.097-.722l17.73-3.278-.727-3.933a1 1 0 00-1.165-.802l-2.926.541 2.488 2.591-2.95.546-2.488-2.591-2.95.545 2.488 2.591-2.95.545-2.488-2.59-2.95.545 2.488 2.59-2.95.546-2.488-2.59-1.99.368a1 1 0 00-.802 1.165l.247 1.338A2.986 2.986 0 0038 48.01c0 1.304.837 2.403 2 2.816v9.184a1 1 0 001 1h20a1 1 0 001-1v-12z" />
</svg>