<svg height="64" viewBox="0 0 64 64" width="64" xmlns="http://www.w3.org/2000/svg"><path d="m0 0h64v64h-64z" fill="none"/><path d="m52.6128 44.1104c-1.3254-1.4415-4.1591-2.7842-6.8362-3.8168l1.7128 3.6254c.2758.5836-.0043 1.2736-.6049 1.5098-5.7711 2.2699-12.5928 5.5869-12.5928 5.5869 8.5657-6.2211 7.0322-11.2017 6.8464-12.884-.0002-.0021.0006-.003.0005-.005-.1407-.9595-.3059-1.9871-.4585-2.8732 1.7886-2.1667 2.8875-4.4047 3.2495-6.6968 1.3281-1.2195 2.0679-3.1657 2.0679-5.5557 0-.7447.0012-2.7025-1.2268-4.0366.0573-.6284.1526-1.3984.2053-2.1449l.024-.0024c0-1.259 0-2.27 0-3.4997 1.8809-.5702 3-1.2672 3-2.0223 0-.538 0-2.2791 0-2.8171 0-1.9209-7.1635-3.478-16-3.478s-16 1.5571-16 3.478v2.8171c0 .7552 1.1191 1.4521 3 2.0223v3.4997l.0135.0014c.0323.7886.0992 1.5508.1522 2.2268-1.1589 1.332-1.1633 3.2256-1.1633 3.9557 0 2.386.7373 4.3299 2.0614 5.5497.382 2.5118 1.6129 4.9141 3.7104 7.2619-.106.807-.3282 1.6498-.453 2.6313-.0024.0007-.0057.0017-.0082.0024-.4161 2.8973-.6893 7.454 6.3229 12.5693 0 0-6.6257-3.3002-12.4187-5.5507-.6367-.2473-.8961-1.0087-.5487-1.5969l2.3424-3.9653c-2.8767 1.0958-6.156 2.6113-7.6238 4.2076-2.8734 3.1241-4.3871 14.8897-4.3871 14.8897h50s-1.5137-11.7656-4.3872-14.8896zm-33.6128-33.9676v-.631c1.6737-.6817 6.2363-1.6118 13-1.6118s11.3263.9301 13 1.6118v.631c-1.0002.4087-4.5117 1.4821-7.5519 1.8884-.0087.0593-.0106.2706.3209.3034.2539.0251 2.0957.274 4.231.1447v1.8055c-2.384.5705-5.9771.934-10 .934s-7.616-.3634-10-.9339c0-1.1043 0-2.0986 0-3.1929-1.6965-.4709-2.415-.7101-3-.9492zm7.2222 30.1746c.2371-1.9129.0408-.5492.8235-5.4371-2.2766-2.2-4.1042-4.8665-4.1042-8.061-1.6178-.5039-2.0415-2.5454-2.0415-3.8183 0-1.2725.3217-1.961.7738-2.1743.3921-.1844.7725-.0475 1.0129.0886.1414.6527.2483 1.1383.2898 1.3098.2061.8511 1.0235.7729 1.0235.7729v-4.7378c2.2036.3442 4.979.5498 8 .5498s5.7964-.2057 8-.5499v4.7379s.8174.0782 1.0234-.7729c.0415-.1715.1484-.6571.2898-1.3098.2405-.1362.6208-.2731 1.0129-.0886.4521.2133.7739.9018.7739 2.1743 0 1.2729-.4238 3.3144-2.0415 3.8183 0 3.7027-2.5334 6.4959-5.3403 8.8846-.7806.6644-2.2498 1.1066-3.7188 1.1055-1.0627-.0008-2.1255-.2865-2.9271-.6349.6139.9305 1.6554 2.0744 3.5848 2.5851 3.1548.8349 5.4595-.9139 5.4595-.9139s.2828 1.9133.2745 2.4157c.3267 3.4883-3.9379 7.3169-6.3912 9.0784-2.3002-1.75-6.2108-5.5302-5.7777-9.0224z"/></svg>