<svg height="64" viewBox="0 0 64 64" width="64" xmlns="http://www.w3.org/2000/svg"><path d="m0 0h64v64h-64z" fill="none"/><path d="m45 31c-8.8366 0-16 7.1634-16 16 0 8.8365 7.1634 16 16 16s16-7.1635 16-16c0-8.8366-7.1634-16-16-16zm1.5661 2.6942c5.8497.6848 10.5527 5.1459 11.6076 10.8761l-1.498 1.9973-1.7297.8649-1.7297-1.7297-.9266-1.668s1.1959-1.1975.8649-1.8322c-.331-.6348-2.2005.3984-2.5701-.1575-.3696-.5562-.0406-2.4549-.0406-2.4549l-2.318-.9545s-.7241-.014-.6635.5321c.0682.6136 1.7542 1.5864 1.6179 1.8591-.1257.2515-.5454.0682-.5454.0682l-.6409 1.1248-1.3362-.3009s1.0159-.3851 1.1395-.7557c.1236-.3707-1.4999-1.7044-1.4999-1.7044l-.905.2045-.4091 1.6362-1.0908.9545-1.4302-.0108.1274-.7927-.5237-.0147.6819-1.7675 1.4042.1171s.5184-1.3544.4156-1.8c-.1995-.8649-1.1016-.9626-1.1016-1.3036 0-.3409.9719-.3358 1.4492-.813.2958-.2962 1.0902-1.3881 1.6508-2.1747zm-4.6684.2774c.8088-.1927 1.6447-.3084 2.5023-.3466l.1243.2016s-.3079 1.6204-.8217 1.7571c-.5137.137-1.9927-.7153-1.9927-.7153zm-5.9788 22.8608c-2.2006-2.0341-3.7141-4.7889-4.1673-7.8909 1.5106 1.0107 4.1673 3.0497 4.1673 4.9024zm1.6803-19.027s-1.8304 2.3859-3.1101 3.6775c-.588.5934-1.4615 1.056-2.2357 1.3845 1.131-3.4793 3.6506-6.3279 6.9-7.9119zm15.033 17.2537c-.2216.395-.8292.6058-1.1006.9946-.4899.7022-.3508 1.9379-.91 2.2125-.9992.4907-2.1614.7188-2.4342.4604-.3815-.3615-1.2253-1.9055-1.2253-2.4167v-3.6884c0-.6615-.8836-2.2285-.8836-2.2285s-2.0917-.0195-2.8948-.0195-2.0241-1.1526-2.0241-1.1526-.6795-2.2511 0-3.6554c.6796-1.4044 1.7101-1.5475 1.7101-1.5475l3.5831-.7198 2.0514 1.2012 2.7352.5204.7573 1.0372 1.2194 1.7211 1.7297.9012 1.7297-1.4755s-.1706 2.0693-.8524 3.3608-2.4507 2.2602-2.4507 2.2602-.1682 1.215-.7402 2.2343zm1.7255 1.5218-.5236-1.1531 1.1822-2.1417 1.9164-.2076c-.6675 1.3047-1.5363 2.4877-2.575 3.5024z"/><path d="m28 4.7985 8.1613 10.2015h16.8387l-8-13h-35l-7 13h16.8387z"/><path d="m37 29.7905v-8.7905h8v7c1.7327 0 3.4039.2532 5 .6897v-11.6897h-14.8l-7.2-9-7.2 9h-14.8v36h10v-2h4v-2h4v-14h6.2852c1.8046-2.2088 4.1025-3.99 6.7148-5.2095zm-18 15.2095h-8v-10h8zm0-14h-8v-10h8zm9-17.5c1.3809 0 2.5 1.1191 2.5 2.5s-1.1191 2.5-2.5 2.5-2.5-1.1191-2.5-2.5 1.1191-2.5 2.5-2.5zm-4 7.5h8v10h-8z"/></svg>