<svg height="64" viewBox="0 0 64 64" width="64" xmlns="http://www.w3.org/2000/svg"><path d="m0 0h64v64h-64z" fill="none"/><path d="m0 0h64v64h-64z" fill="none"/><path d="m22.0117 1.4055h1.6817v9.189h-1.6817z"/><path d="m30.8477 10.6926c.9951 0 1.8496-.084 2.7597-.2661v-4.4263h-3.039v1.3726h1.414v1.877c-.4062.0419-.6445.0562-1.0643.0562-1.5684 0-2.8575-1.0645-2.8575-3.208 0-2.2129 1.3165-3.3198 3.1524-3.3198.7285 0 1.2461.0283 2.0029.1401l.126-1.4287c-.6445-.126-1.2324-.1821-2.0732-.1821-2.8018 0-4.9727 1.583-4.9727 4.959-.0001 2.9413 1.8485 4.4261 4.5517 4.4261z"/><path d="m41.9238 9.1936h-4.3574v-.0557l4.3291-6.3735v-1.3589h-6.0088v1.4009h4.0762v.0561l-4.3291 6.3731v1.3589h6.29z"/><path d="m48 14h-32c-1.1045 0-2 .8955-2 2v47h15v-9h6v9h15v-47c0-1.1045-.8955-2-2-2zm-23 33h-6v-6h6zm0-10h-6v-6h6zm0-10h-6v-6h6zm10 20h-6v-6h6zm0-10h-6v-6h6zm0-10h-6v-6h6zm10 20h-6v-6h6zm0-10h-6v-6h6zm0-10h-6v-6h6z"/></svg>