<svg enable-background="new 0 0 64 64" height="64" viewBox="0 0 64 64" width="64" xmlns="http://www.w3.org/2000/svg"><path d="m0 0h64v64h-64z" fill="none"/><path d="m38.4 43h-4.3l1.4-2.1c.2-.3.2-.7-.1-.9-.2-.3-.7-.3-.9-.1l-5 4c-.4.3-.4.9 0 1.2l5 4c.3.2.7.2.9-.1.2-.1.2-.4.2-.5s-.1-.3-.1-.4l-1.4-2.1h4.3c.8 0 1-.7 1-1.4.1-.7-.2-1.6-1-1.6z"/><path d="m21 5.5c0-.3-.2-.5-.5-.5h-14c-.3 0-.5.2-.5.5v12.5h-4.5c-.3 0-.5.2-.5.5v42.5h8v-34-1.5l1.4-.4 10.6-3.3z"/><path d="m11 61h4v-5h3v5h9v-39l-16 5zm9-31h3v3h-3zm0 5h3v3h-3zm0 5h3v3h-3zm0 5h3v3h-3zm0 5h3v3h-3zm-5-20h3v3h-3zm0 5h3v3h-3zm0 5h3v3h-3zm0 5h3v3h-3zm0 5h3v3h-3z"/><path d="m62 31h-19c-.6 0-1 .4-1 1v29h9v-5h3v5h9v-29c0-.6-.4-1-1-1zm-13 22h-3v-3h3zm0-5h-3v-3h3zm0-5h-3v-3h3zm0-5h-3v-3h3zm5 15h-3v-3h3zm0-5h-3v-3h3zm0-5h-3v-3h3zm0-5h-3v-3h3zm5 15h-3v-3h3zm0-5h-3v-3h3zm0-5h-3v-3h3zm0-5h-3v-3h3z"/></svg>