<?xml version="1.0" encoding="utf-8"?>
<!-- Generator: Adobe Illustrator 17.1.0, SVG Export Plug-In . SVG Version: 6.00 Build 0)  -->
<svg version="1.2" baseProfile="tiny" xmlns="http://www.w3.org/2000/svg" xmlns:xlink="http://www.w3.org/1999/xlink" x="0px"
	 y="0px" width="64px" height="64px" viewBox="0 0 64 64" xml:space="preserve">
<g id="Box">
	<rect fill="none" width="64" height="64"/>
</g>
<g id="Icon">
	<g>
		<path d="M55,51V24h0.0002C51.8239,18.0917,46.1447,12.3623,36,11.175V10c0-2.2056-1.7944-4-4-4s-4,1.7944-4,4v1.175
			C17.8555,12.3624,12.1764,18.0917,9,24v25.4839l7.7349,1.152c0.3172,0.1018,0.2708,0.3079,0.2499,0.3641H9l-2,2v3h50v-3L55,51z
			 M30,10c0-1.1046,0.8954-2,2-2s2,0.8954,2,2v1c-0.6521-0.0362-1.3132,0-1.9998,0H32c-0.6866,0-1.3478-0.0362-2,0V10z M26,15h12v8
			H26V15z M17.9346,35.1968c-0.2231,0-0.4043-0.0137-0.6064-0.0469v2.2656h-1.6055v-8.436l1.5693-0.0713v0.3379
			c0.3398-0.1934,0.8198-0.3799,1.4102-0.3799c1.6343,0,2.5718,1.0815,2.5718,2.9673
			C21.2739,33.9082,19.9941,35.1968,17.9346,35.1968z M24.0957,35.125h-1.6055v-8.5552l1.6055-0.085V35.125z M30.2979,35.125
			h-1.5215v-0.2896c-0.4648,0.2549-0.9312,0.3613-1.5542,0.3613c-1.2383,0-2.0078-0.6821-2.0078-1.7798
			c0-1.2607,1.0293-1.9839,2.8237-1.9839c0.1572,0,0.3047,0.0034,0.4458,0.0063c0.0835,0.002,0.165,0.0034,0.2446,0.0044v-0.21
			c0-0.4106-0.1357-0.8823-1.1943-0.8823c-0.5747,0-1.0352,0.0981-1.6431,0.3501l-0.145,0.0605l-0.2344-1.3911l0.0908-0.0386
			c0.7656-0.3271,1.4189-0.4663,2.1836-0.4663c1.6196,0,2.5117,0.7856,2.5117,2.2119V35.125z M33.2344,35.1968
			c-0.728,0-1.2959-0.0562-1.7349-0.1719L31.4062,35v-1.4326l0.1558,0.04c0.5205,0.1328,1.0786,0.2002,1.6602,0.2002
			c1.0024,0,1.0024-0.3662,1.0024-0.4868c0-0.1982-0.0522-0.3643-0.7124-0.5513l-0.7441-0.2158
			c-0.9038-0.2661-1.3618-0.8394-1.3618-1.7036c0-1.1865,1.043-1.9839,2.5957-1.9839c0.5469,0,1.0435,0.0454,1.4766,0.1343
			l0.1074,0.0225l-0.1021,1.3853l-0.1348-0.022c-0.5166-0.0845-0.9277-0.1187-1.4189-0.1187c-0.5742,0-0.9307,0.168-0.9307,0.439
			c0,0.1978,0.042,0.3389,0.6035,0.4907l0.7075,0.1919c1.0366,0.2803,1.5195,0.8257,1.5195,1.7158
			C35.8301,34.395,34.8354,35.1968,33.2344,35.1968z M40.4507,35.0244l-0.0928,0.0244c-0.4121,0.1094-0.7251,0.1479-1.1958,0.1479
			c-1.2529,0-1.9717-0.7666-1.9717-2.1035v-2.8613h-0.7197v-1.2935h0.7197v-1.0688l1.605-0.1426v1.2114h1.499v1.2935h-1.499v2.6812
			c0,0.5698,0.2568,0.8584,0.7627,0.8584c0.2646,0,0.4238-0.02,0.7397-0.0923l0.1528-0.0356V35.0244z M42.9595,35.125H41.354
			v-6.1455l1.6055-0.0713V35.125z M42.1509,28.2769c-0.5654,0-0.917-0.3418-0.917-0.8926c0-0.5327,0.377-0.9048,0.917-0.9048
			c0.564,0,0.9282,0.355,0.9282,0.9048C43.0791,27.9097,42.6973,28.2769,42.1509,28.2769z M47.3096,33.7598
			c0.3682,0,0.71-0.0469,1.1074-0.1519l0.1567-0.042v1.4307l-0.0889,0.0269c-0.3945,0.1201-0.7979,0.1733-1.3071,0.1733
			c-1.937,0-3.0034-1.0923-3.0034-3.0752c0-1.6235,1.0439-3.2671,3.0391-3.2671c0.5205,0,0.855,0.0386,1.2788,0.1475l0.1035,0.0269
			l-0.144,1.4668l-0.1348-0.0264c-0.3906-0.0757-0.6797-0.1055-1.0312-0.1055c-0.9067,0-1.4702,0.6504-1.4702,1.6978
			C45.8154,33.1567,46.3462,33.7598,47.3096,33.7598z"/>
		<path d="M26.8555,33.3091c0,0.355,0.2778,0.5586,0.7627,0.5586c0.4121,0,0.7393-0.0767,1.1104-0.2632v-0.9199
			c-0.2021-0.0098-0.4536-0.0181-0.6548-0.0181C27.2651,32.6665,26.8555,32.8828,26.8555,33.3091z"/>
		<path d="M18.2944,30.3755c-0.3677,0-0.6045,0.0444-0.9663,0.1875v3.1782c0.2256,0.0332,0.3672,0.0425,0.6064,0.0425
			c1.1108,0,1.6978-0.6367,1.6978-1.8418C19.6323,30.9023,19.1821,30.3755,18.2944,30.3755z"/>
	</g>
</g>
</svg>
