<svg height="64" viewBox="0 0 64 64" width="64" xmlns="http://www.w3.org/2000/svg"><path d="m0 0h64v64h-64z" fill="none"/><path d="m27.3149 32.1211c6.6984 4.2683 7.9805 11.0297 8.1273 14.8508 11.5595.3206 20.5578-8.9708 20.5578-19.9719 0-11.0457-8.9543-20-20-20-7.342 0-13.7421 3.9682-17.2206 9.8651-.0401 8.7186 2.1609 11.195 8.5355 15.256zm20.3822 6.855-.6545-1.4414 1.4777-2.6771 2.3954-.2595c-.8342 1.631-1.9202 3.1097-3.2186 4.378zm-9.7395-28.6083c7.3121.856 13.1908 6.4324 14.5095 13.5951l-1.8726 2.4966-2.1622 1.0811-2.1622-2.1622-1.1583-2.085s1.4948-1.4969 1.0811-2.2903c-.4138-.7935-2.7506.498-3.2126-.1968-.4621-.6953-.0507-3.0687-.0507-3.0687l-2.8975-1.1932s-.9052-.0175-.8293.6652c.0852.767 2.1927 1.983 2.0224 2.3239-.1571.3144-.6818.0853-.6818.0853l-.8012 1.4059-1.6702-.3761s1.2698-.4814 1.4244-.9446c.1545-.4633-1.8749-2.1305-1.8749-2.1305l-1.1312.2557-.5114 2.0453-1.3635 1.1931-1.7878-.0135.1592-.9908-.6547-.0184.8524-2.2094 1.7553.1464s.648-1.6929.5195-2.2501c-.2494-1.0811-1.377-1.2032-1.377-1.6295 0-.426 1.2148-.4197 1.8115-1.0162.3701-.3702 1.3631-1.7351 2.0638-2.7183zm-5.8354.3467c1.0109-.2408 2.0558-.3855 3.1279-.4332l.1553.252s-.3848 2.0255-1.027 2.1965c-.6422.1711-2.491-.8942-2.491-.8942zm-.9226 14.4926c.8495-1.7554 2.1376-1.9344 2.1376-1.9344l4.4789-.8997 2.5642 1.5015 3.4191.6506.9467 1.2964 1.5242 2.1514 2.1622 1.1265 2.1622-1.8445s-.2133 2.5866-1.0655 4.2011c-.8522 1.6144-3.0635 2.8252-3.0635 2.8252s-.2104 1.5186-.9254 2.7927c-.277.4938-1.0364.7572-1.3757 1.2433-.6123.8777-.4385 2.4222-1.1375 2.7656-1.249.6134-2.7017.8984-3.0427.5756-.4769-.4519-1.5316-2.3818-1.5316-3.021v-4.6104c0-.827-1.1045-2.7856-1.1045-2.7856s-2.6146-.0244-3.6185-.0244-2.5302-1.4408-2.5302-1.4408-.8494-2.8137 0-4.5691zm-2.337-13.2937c-.6497 1.664-1.5482 3.4292-2.5051 4.2732-2.0743 1.8297-3.9873 2.2623-4.6004 2.3127 1.6623-2.8353 4.1352-5.138 7.1055-6.5859z"/><path d="m48.0325 49.0161c-5.8757 1.7436-10.079 2.2023-15.284 1.1743.9639-5.6888-1.2009-12.4081-6.7769-15.9604-8.0762-5.145-10.2506-8.6849-9.5708-21.12.023-.421-.457-.6966-.7945-.4439-16.0371 12.0071-12.7107 39.1953 5.2772 40.4244-9.1653-9.403-10.3472-21.6456-9.8992-25.5436.0451-.3923.2969-.3594.2969-.3594 2.3805 18.6443 17.1036 33.259 38.2807 26.9822 1.4231-.4224 1.5747-1.7466 1.1523-3.1697-.4223-1.4232-1.2586-2.4062-2.6817-1.9839z"/></svg>