<?xml version="1.0" encoding="utf-8"?>
<!-- Generator: Adobe Illustrator 17.1.0, SVG Export Plug-In . SVG Version: 6.00 Build 0)  -->
<svg version="1.2" baseProfile="tiny" xmlns="http://www.w3.org/2000/svg" xmlns:xlink="http://www.w3.org/1999/xlink" x="0px"
	 y="0px" width="64px" height="64px" viewBox="0 0 64 64" xml:space="preserve">
<g id="Box">
	<rect fill="none" width="64" height="64"/>
</g>
<g id="Icon">
	<g>
		<path d="M37.6279,29.5454c0.0046,0.0447-0.001,0.0886,0.0009,0.1331c0.2257-0.0664,0.4521-0.1319,0.6885-0.1712
			c3.0107-0.502,7.4707-0.6074,10.6826-0.6074c2.3057,0,5.249,0.0571,7.8435,0.2737c0.7673-0.5417,1.2013-1.1297,1.135-1.7625
			c-0.0742-0.7148-0.2734-2.6138-11.2549-2.6138c-1.3179,0-2.6499,0.0337-3.9346,0.0969c3.0907-2.7462,6.3627-6.2617,5.1319-7.9582
			c-0.2354-0.3232-0.6963-0.709-1.5596-0.709c-1.5262,0-4.6225,1.4476-7.6156,3.1704c0.9572-2.5086,1.8403-5.2128,2.4613-7.5957
			c1.5615-5.9932,0.8584-7.229-0.1348-7.6714c-0.1895-0.084-0.3936-0.127-0.6064-0.127c-2.484,0-6.7886,7.4587-9.1716,12.0807
			c-0.8196-3.9709-2.1852-8.4889-4.1555-8.4889l-0.167,0.0088c-2.0861,0.2194-2.5103,5.0085-2.484,9.1445
			c-3.5706-4.3817-8.8181-9.9028-11.1107-9.9028c-0.3438,0-0.6611,0.0991-0.918,0.2856c-0.8809,0.6392-1.3125,1.9937,1.459,7.5327
			c1.1021,2.2018,2.5264,4.6633,3.9827,6.9182c-2.8528-0.9229-5.6503-1.5994-7.2434-1.5994c-1.1631,0-1.917,0.3691-2.2412,1.0967
			c-0.5957,1.3359,0.5537,2.7676,4.0977,5.106c0.8204,0.5413,1.7266,1.0956,2.6635,1.6372
			C9.9039,28.6795,0.4565,30.6116,0.75,33.4131c0.0742,0.7148,0.2734,2.6133,11.2529,2.6133c1.3186,0,2.6516-0.0338,3.9373-0.097
			c-3.0908,2.7462-6.363,6.2622-5.1317,7.9588c0.2344,0.3232,0.6953,0.709,1.5576,0.709c1.5269,0,4.6235-1.4476,7.6166-3.1705
			c-0.9572,2.5087-1.8404,5.2129-2.4614,7.5958c-1.5615,5.9932-0.8584,7.229,0.1348,7.6714c0.1895,0.084,0.3936,0.127,0.6064,0.127
			c2.484,0,6.7886-7.4589,9.1716-12.0811c0.8196,3.971,2.1853,8.4888,4.1555,8.4888l0.166-0.0088
			c0.5711-0.0599,1.0141-0.4709,1.361-1.1088c-0.1695-2.4043-0.2165-5.0201-0.2165-7.111c0-2.2015,0.0532-4.9829,0.246-7.4893
			c-0.7074,0.038-1.4327-0.2587-1.8583-0.8452c-0.333-0.4575-0.4668-1.0176-0.3779-1.5762s0.3896-1.0498,0.8477-1.3818
			c0.3643-0.2651,0.7939-0.4048,1.2422-0.4048c0.2514,0,0.4927,0.0585,0.7238,0.1432c0.211-0.6416,0.535-1.2277,0.9398-1.7489
			c-0.6716-0.2986-1.1674-0.933-1.2495-1.7103c-0.1221-1.1611,0.7236-2.2051,1.8857-2.3271
			c0.0752-0.0078,0.1494-0.0117,0.2236-0.0117C36.6094,27.6479,37.5137,28.4634,37.6279,29.5454z M24.4824,23.6895
			c0.3643-0.2646,0.7939-0.4048,1.2422-0.4048c0.6777,0,1.3184,0.3267,1.7158,0.8735c0.6865,0.9453,0.4756,2.2725-0.4697,2.9585
			c-0.915,0.665-2.2979,0.4395-2.958-0.4688C23.3262,25.7026,23.5371,24.3755,24.4824,23.6895z M23.4287,33.1641
			c-1.1738,0.126-2.2061-0.7295-2.3281-1.8857c-0.0586-0.5625,0.1045-1.1143,0.4609-1.5537s0.8623-0.7144,1.4258-0.7734
			c0.0752-0.0078,0.1494-0.0117,0.2236-0.0117c1.085,0,1.9893,0.8154,2.1035,1.8975c0.0586,0.5625-0.1045,1.1143-0.4609,1.5542
			C24.4971,32.8306,23.9912,33.105,23.4287,33.1641z M28.7793,36.9292c-0.46,1.0352-1.7471,1.54-2.7959,1.0723
			c-0.5166-0.2305-0.9131-0.6479-1.1162-1.1763c-0.2021-0.5278-0.1865-1.1035,0.0439-1.6206
			c0.3398-0.7632,1.0996-1.2563,1.9355-1.2563c0.2969,0,0.5869,0.0615,0.8604,0.1836c0.5166,0.2305,0.9131,0.6479,1.1162,1.1763
			C29.0254,35.8364,29.0098,36.4116,28.7793,36.9292z M31.2894,33.0629c-1.4641,1.0632-3.5128,0.7383-4.576-0.7258
			s-0.7383-3.5128,0.7258-4.576c1.4641-1.0632,3.5129-0.7383,4.5761,0.7258C33.0784,29.9509,32.7535,31.9998,31.2894,33.0629z
			 M33.8174,25.6196c-0.46,1.0347-1.751,1.54-2.7959,1.0728c-0.5166-0.2305-0.9131-0.6479-1.1162-1.1763
			c-0.2021-0.5283-0.1865-1.104,0.0439-1.6211c0.3398-0.7632,1.0996-1.2563,1.9355-1.2563c0.2969,0,0.5869,0.0615,0.8604,0.1836
			c0.5166,0.2305,0.9131,0.6479,1.1162,1.1763C34.0635,24.5269,34.0479,25.1025,33.8174,25.6196z"/>
		<path d="M61.435,34.826c-0.1949-1.1729-1.0873-2.0652-2.2607-2.2607C55.7829,32,50.1301,32,49.0001,32s-6.7828,0-10.1743,0.5654
			c-1.1734,0.1955-2.0657,1.0878-2.2607,2.2607C36,38.2173,36,43.8697,36,45c0,1.1304,0,6.7827,0.5651,10.174
			c0.195,1.1728,1.0873,2.0651,2.2607,2.2607C42.2172,58,47.87,58,49.0001,58s6.7828,0,10.1742-0.5653
			c1.1735-0.1956,2.0658-1.0879,2.2607-2.2607C62,51.7827,62,46.1304,62,45C62,41.607,62,38.2173,61.435,34.826z M47.2463,36
			l3.8137-0.3066l-0.3058,8.7939V48h-3.5079V36z M49.038,54.06c-1.3195,0-2.0737-0.7116-2.0737-2.0343
			c0-1.1701,0.6998-2.0857,2.0464-2.0857c1.3195,0,2.0735,0.7373,2.0735,2.0857C51.0843,53.1701,50.3838,54.06,49.038,54.06z"/>
	</g>
</g>
</svg>
