<svg height="64" viewBox="0 0 64 64" width="64" xmlns="http://www.w3.org/2000/svg"><path d="m0 0h64v64h-64z" fill="none"/><path d="m37.6279 29.5454c.0046.0447-.001.0886.0009.1331.2257-.0664.4521-.1319.6885-.1712 3.0107-.502 7.4707-.6074 10.6826-.6074 2.3057 0 5.249.0571 7.8435.2737.7673-.5417 1.2013-1.1297 1.135-1.7625-.0742-.7148-.2734-2.6138-11.2549-2.6138-1.3179 0-2.6499.0337-3.9346.0969 3.0907-2.7462 6.3627-6.2617 5.1319-7.9582-.2354-.3232-.6963-.709-1.5596-.709-1.5262 0-4.6225 1.4476-7.6156 3.1704.9572-2.5086 1.8403-5.2128 2.4613-7.5957 1.5615-5.9932.8584-7.229-.1348-7.6714-.1895-.084-.3936-.127-.6064-.127-2.484 0-6.7886 7.4587-9.1716 12.0807-.8196-3.9709-2.1852-8.4889-4.1555-8.4889l-.167.0088c-2.0861.2194-2.5103 5.0085-2.484 9.1445-3.5706-4.3817-8.8181-9.9028-11.1107-9.9028-.3438 0-.6611.0991-.918.2856-.8809.6392-1.3125 1.9937 1.459 7.5327 1.1021 2.2018 2.5264 4.6633 3.9827 6.9182-2.8528-.9229-5.6503-1.5994-7.2434-1.5994-1.1631 0-1.917.3691-2.2412 1.0967-.5957 1.3359.5537 2.7676 4.0977 5.106.8204.5413 1.7266 1.0956 2.6635 1.6372-5.2733.8569-14.7207 2.789-14.4272 5.5905.0742.7148.2734 2.6133 11.2529 2.6133 1.3186 0 2.6516-.0338 3.9373-.097-3.0908 2.7462-6.363 6.2622-5.1317 7.9588.2344.3232.6953.709 1.5576.709 1.5269 0 4.6235-1.4476 7.6166-3.1705-.9572 2.5087-1.8404 5.2129-2.4614 7.5958-1.5615 5.9932-.8584 7.229.1348 7.6714.1895.084.3936.127.6064.127 2.484 0 6.7886-7.4589 9.1716-12.0811.8196 3.971 2.1853 8.4888 4.1555 8.4888l.166-.0088c.5711-.0599 1.0141-.4709 1.361-1.1088-.1695-2.4043-.2165-5.0201-.2165-7.111 0-2.2015.0532-4.9829.246-7.4893-.7074.038-1.4327-.2587-1.8583-.8452-.333-.4575-.4668-1.0176-.3779-1.5762s.3896-1.0498.8477-1.3818c.3643-.2651.7939-.4048 1.2422-.4048.2514 0 .4927.0585.7238.1432.211-.6416.535-1.2277.9398-1.7489-.6716-.2986-1.1674-.933-1.2495-1.7103-.1221-1.1611.7236-2.2051 1.8857-2.3271.0752-.0078.1494-.0117.2236-.0117 1.0862 0 1.9905.8155 2.1047 1.8975zm-13.1455-5.8559c.3643-.2646.7939-.4048 1.2422-.4048.6777 0 1.3184.3267 1.7158.8735.6865.9453.4756 2.2725-.4697 2.9585-.915.665-2.2979.4395-2.958-.4688-.6865-.9453-.4756-2.2724.4697-2.9584zm-1.0537 9.4746c-1.1738.126-2.2061-.7295-2.3281-1.8857-.0586-.5625.1045-1.1143.4609-1.5537s.8623-.7144 1.4258-.7734c.0752-.0078.1494-.0117.2236-.0117 1.085 0 1.9893.8154 2.1035 1.8975.0586.5625-.1045 1.1143-.4609 1.5542-.3564.4393-.8623.7137-1.4248.7728zm5.3506 3.7651c-.46 1.0352-1.7471 1.54-2.7959 1.0723-.5166-.2305-.9131-.6479-1.1162-1.1763-.2021-.5278-.1865-1.1035.0439-1.6206.3398-.7632 1.0996-1.2563 1.9355-1.2563.2969 0 .5869.0615.8604.1836.5166.2305.9131.6479 1.1162 1.1763.2022.5282.1866 1.1034-.0439 1.621zm2.5101-3.8663c-1.4641 1.0632-3.5128.7383-4.576-.7258s-.7383-3.5128.7258-4.576 3.5129-.7383 4.5761.7258c1.0631 1.464.7382 3.5129-.7259 4.576zm2.528-7.4433c-.46 1.0347-1.751 1.54-2.7959 1.0728-.5166-.2305-.9131-.6479-1.1162-1.1763-.2021-.5283-.1865-1.104.0439-1.6211.3398-.7632 1.0996-1.2563 1.9355-1.2563.2969 0 .5869.0615.8604.1836.5166.2305.9131.6479 1.1162 1.1763.2022.5283.1866 1.1039-.0439 1.621z"/><path d="m61.435 34.826c-.1949-1.1729-1.0873-2.0652-2.2607-2.2607-3.3914-.5653-9.0442-.5653-10.1742-.5653s-6.7828 0-10.1743.5654c-1.1734.1955-2.0657 1.0878-2.2607 2.2607-.5651 3.3912-.5651 9.0436-.5651 10.1739 0 1.1304 0 6.7827.5651 10.174.195 1.1728 1.0873 2.0651 2.2607 2.2607 3.3914.5653 9.0442.5653 10.1743.5653s6.7828 0 10.1742-.5653c1.1735-.1956 2.0658-1.0879 2.2607-2.2607.565-3.3913.565-9.0436.565-10.174 0-3.393 0-6.7827-.565-10.174zm-14.1887 1.174 3.8137-.3066-.3058 8.7939v3.5127h-3.5079zm1.7917 18.06c-1.3195 0-2.0737-.7116-2.0737-2.0343 0-1.1701.6998-2.0857 2.0464-2.0857 1.3195 0 2.0735.7373 2.0735 2.0857.0001 1.1444-.7004 2.0343-2.0462 2.0343z"/></svg>