<svg height="64" viewBox="0 0 64 64" width="64" xmlns="http://www.w3.org/2000/svg"><path d="m0 0h64v64h-64z" fill="none"/><path d="m55.3668 22.2039c1.3123-.9484 2.0925-2.4312 1.9162-4.0089-.3097-2.7712-3.4088-4.6006-6.5148-3.6957-.594-1.9064-2.2858-3.2581-4.2529-3.2468-1.7114.0099-3.2645 1.0825-4.0067 2.6266-.3129.6511-.4799 1.3843-.4602 2.1728-.0032.0015-.0065-.0029-.0096-.0005-.1035.0749-.2581-.0084-.3859-.306-.2214-.5153-.3434-1.0793-.3434-1.6703 0-1.8022 1.1382-3.3464 2.7651-4.0341.1559-2.7493-2.2108-4.8544-4.9682-4.8544-1.106 0-2.1183.344-2.9456.9078-.9009-1.3008-2.4911-2.1735-4.3177-2.1735-2.8034 0-5.0746 2.0395-5.0967 4.5618-3.0406-.2963-5.3832 1.996-5.3832 4.6172 0 1.0439.3923 2.0303 1.0018 2.8054-.062.2023-.3511.1761-.5735.0137-1.174-.8578-1.9323-2.2162-1.9323-3.7452 0-1.0226.3456-1.9622.9236-2.7302-.652-.3165-1.3906-.5022-2.1827-.5022-2.248 0-4.1207 1.4297-4.6093 3.3436-.7495-.5108-1.6564-.8141-2.6379-.8141-2.5609 0-4.6368 2.0379-4.6368 4.5518 0 1.0632.3867 2.0284 1.009 2.8032-1.6104.7296-2.7251 2.2555-2.7251 4.0373 0 2.4585 2.1337 4.5467 4.9263 4.4929-.5232 2.5024 1.2396 4.8193 3.6908 5.0515.272-2.2635 2.2593-4.1955 5.0394-4.1078.2552.0081.4092.1341.3912.3178-2.3558.8832-3.6422 2.9857-3.4293 5.0121.2784 2.6509 2.9494 4.543 5.9658 4.2262.6132-.0644 1.1908-.2189 1.7238-.4405 1.054 2.1857 3.3223 3.5722 5.9586 3.5722 2.7158 0 5.0464-1.6063 6.0555-3.899.645.3306 1.3712.5552 2.1528.6373 6.1883.65 8.4555-6.8888 2.5364-9.1083-.0181-.1837.136-.3098.3912-.3178 2.9659-.0936 5.0873 2.124 5.0873 4.6413 0 .7051-.1721 1.3679-.4672 1.9642 2.8693 1.0079 5.9048-.6273 6.5677-3.2968 3.4077.6232 6.5171-1.8145 6.5171-4.9942 0-1.8874-1.1043-3.5312-2.7406-4.4104zm-37.9115 2.7373c-2.4474 0-4.4314-1.7776-4.4314-3.9706 0-2.1929 1.984-3.9706 4.4314-3.9706 2.4473 0 4.4313 1.7777 4.4313 3.9706.0001 2.1929-1.984 3.9706-4.4313 3.9706zm12.4596 9.8338c-2.9113.2716-5.4517-1.4431-5.6743-3.8297s1.9569-4.5415 4.8682-4.813c2.9112-.2715 5.4517 1.4431 5.6743 3.8297s-1.957 4.5415-4.8682 4.813zm3.0684-15.775c-2.6694 0-4.8333-1.7698-4.8333-3.9529s2.1639-3.9529 4.8333-3.9529 4.8333 1.7698 4.8333 3.9529-2.1639 3.9529-4.8333 3.9529zm13.4851 7.7262c-2.4151.1091-4.451-1.5312-4.5473-3.6636s1.7835-3.9495 4.1986-4.0586c2.4152-.1091 4.451 1.5312 4.5474 3.6636.0963 2.1324-1.7835 3.9496-4.1987 4.0586z"/><path d="m37.9523 39.951c-.5759-.0126-.9459-.0384-1.6815-.2043-2.4095 3.1281-6.5726 4.2114-10.146 2.8607.4026 6.6437-2.253 11.4009-3.3425 14.0405l3.1445 1.2939c.5331-1.3015 1.6541-3.4622 2.5034-6.2426-.3287 5.3463-.7532 8.8489-.7602 8.9018l3.375.417c.0067-.0566.4855-3.9838.827-9.9017.7114 4.9327 1.4519 8.6996 1.4631 8.7586l3.3359-.6611c-.0127-.0616-.8475-4.3044-1.5861-9.6506.8127 3.0651 1.9742 5.7437 2.5803 7.3718l3.1855-1.1904c-1.2588-3.3535-4.3087-10.1051-2.8984-15.7936z"/></svg>