<svg height="64" viewBox="0 0 64 64" width="64" xmlns="http://www.w3.org/2000/svg"><path d="m0 0h64v64h-64z" fill="none"/><path d="m59.8651 59c.0154-2.6967-3.4877-5.539-6.4631-4.3684-1.527-5.1316-6.8395-8.1941-10.8086-5.5622l.6527 3.4999c.0645.3452.2188.668.4463.9321.5889.6865 1.5088 1.7524 2.6045 2.9902.8607.9738.975 1.8931.9142 2.5083h12.654z"/><path d="m42.1745 54.8045c-.4574-.5332-.7653-1.1779-.8941-1.8685-.6048-3.2422 1.4268 7.6515-2.5222-13.5215.0077.0051.0159.0093.0237.0144-.7663-6.0262 3.1461-8.4105 4.278-8.9653.0807.0208.0807.1458-.0137.2263-.809.9987-2.8716 4.0031-2.3332 8.1305.0575.441.1627.7412.2844 1.4082 1.2141.4547 2.5257.7084 3.8991.7084 6.1905 0 11.1035-4.6981 11.1035-10.8885 0-2.8044-.9321-5.3618-2.6345-7.3275.8571-1.5034 1.3534-3.239 1.3534-5.0934 0-4.689-3.1329-8.6396-7.4174-9.8904-1.4715-2.8112-4.4116-4.7324-7.8044-4.7324-2.3347 0-4.4511.9146-6.0275 2.3969-1.4922-1.161-3.3625-1.8591-5.3996-1.8591-4.8648 0-8.8091 3.9438-8.8091 8.8091 0 .0169.0024.0332.0025.05-4.6289.5948-7.7927 5.1776-6.4668 9.8275-1.9603 1.8257-3.1937 4.4216-3.1937 7.3118 0 5.5229 4.4771 10 10 10 2.4661 0 4.72-.8969 6.4636-2.3767 1.0591 1.8419 1.9441 3.02 1.8061 5.1515l-.2664 4.1165c4.6569 2.8898 4.9011 8.2083 4.9199 8.4194.02.2239.0601.3806-.1401.403-.7992-1.4774-3.4672-7.5521-8.5062-7.2247-3.6849.2394-4.9644 3.6783-4.9644 3.6783s-2.2422-1.5294-4.9218-.0612c-2.2847 1.2518-3.201 4.2452-3.201 4.2452s-2.3704-.6523-4.3458.7101c-1.1995.8275-2.0976 2.2163-2.4468 5.3976h13.8749c-.3004-2.1715.5418-4 .5418-4 .5984 2.0815 2.115 3.6352 2.4946 4h.0918c.0338-2.5898 1.6635-6.7346 1.6635-6.7346-.3711 4.7512 1.3334 6.6513 1.3334 6.6513l-.0428.0833h10.6832s-.2725-1.2864-.8551-3.0743l3.2112-.6783 7.9362 1.0859s.7424-.5261-.1337-1.5164c-1.1033-1.2473-2.0319-2.3215-2.6245-3.0124zm-9.3292-19.2178c-.3268.6854-1.2657.7634-1.7097.1475l-2.0961-2.9084c.2616-.7513.4414-1.5399.5167-2.3607 1.2712 1.2437 2.9182 2.0981 4.7541 2.3927-.6091 1.0102-1.1045 1.9727-1.465 2.7289z"/></svg>