<svg height="64" viewBox="0 0 64 64" width="64" xmlns="http://www.w3.org/2000/svg"><path d="m0 0h64v64h-64z" fill="none"/><path d="m54.8624 19.8982c0-3.874-2.4772-7.1709-5.9554-8.467.021-.2712.0375-.5436.0335-.8203-.0762-5.341-4.4588-9.6032-10.2945-9.52-2.462.0352-4.7106.8447-6.4885 2.1624-1.622-1.3988-3.7415-2.2533-6.0685-2.2533-5.4421 0-10.6158 4.6469-9.9689 10.1174-4.0861 1.3318-7.0369 5.1125-7.0369 9.5767 0 3.1962 2.3352 6.0403 4.6932 7.8898-1.6553 1.7866-2.6732 4.1542-2.6732 6.7614 0 7.4061 8.1282 11.3937 14.6051 8.6965.4833-1.9405.9066-4.7275.9946-5.0017.0931-.2902.2684-.2753.3415-.2548.6458 7.361-.617 16.9783-2.03 24.2148h13.8795c-.5686-4.9579-1.6745-15.7095-1.9974-20.6617 1.6107.9839 3.6449 1.5618 5.6807 1.5618 5.8133 0 10.356-4.3335 10.356-10.0491 0-2.3624-.814-4.5327-2.1691-6.2746 2.6022-1.6018 4.0983-4.4373 4.0983-7.6783zm-17.8648-2.1006c1.215 0 2.2.9849 2.2 2.2 0 1.215-.9849 2.2-2.2 2.2s-2.2-.985-2.2-2.2c0-1.2151.9849-2.2 2.2-2.2zm-10 0c1.215 0 2.2.9849 2.2 2.2 0 1.215-.9849 2.2-2.2 2.2s-2.2-.985-2.2-2.2c0-1.2151.9849-2.2 2.2-2.2zm12.4926 9.3336c-1.1899 2.4675-4.1069 4.9788-7.5174 4.9788-3.4106 0-6.3276-2.5114-7.5175-4.9789-.1393-.2891.196-.584.4619-.4045 1.8044 1.2183 4.2987 2.2081 7.0556 2.2081s5.2512-.9898 7.0555-2.208c.266-.1794.6013.1155.4619.4045z"/></svg>