<svg height="64" viewBox="0 0 64 64" width="64" xmlns="http://www.w3.org/2000/svg"><path d="m0 0h64v64h-64z" fill="none"/><path d="m23 54v-2c0-1.6543 1.3457-3 3-3h1.7434c-.4319-3.6625-.8436-7.8732-1.1323-12.3015 1.3423.82 2.9208 1.3015 4.6173 1.3015 4.8444 0 8.7716-3.8612 8.7716-8.6242 0-1.9686-.6783-3.7773-1.8076-5.2288 2.1685-1.3347 3.6152-3.6976 3.6152-6.3985 0-3.2283-2.0643-5.9757-4.9628-7.0558.0175-.226.0312-.453.028-.6836-.0635-4.4509-4.0573-8.0027-8.9204-7.9333-2.0516.0293-3.9255.7039-5.4071 1.8019-1.3517-1.1656-3.1179-1.8777-5.0571-1.8777-4.5351 0-8.1631 3.8724-7.6241 8.4312-3.4051 1.1098-5.8641 4.2603-5.8641 7.9805 0 2.6635 1.2627 5.0336 3.2277 6.5748-1.3795 1.4888-2.2277 3.4618-2.2277 5.6345 0 5.3954 5.1914 9.5548 10.7495 8.0695 1.0365-3.0934 1.5129-7.4097-.4141-10.5228-.1243-.201-.0656-.3447.0573-.4008 5.9514 4.9643.9492 26.7106-.8713 34.2331h11.4838l1.8994-5h-1.9046c-1.6543 0-3-1.3457-3-3z"/><path d="m25 52v2c0 .5522.4477 1 1 1h2.6643l1.5196-4h-4.1839c-.5523 0-1 .4477-1 1z"/><path d="m57 51h-4.1839l1.5196 4h2.6643c.5523 0 1-.4478 1-1v-2c0-.5523-.4477-1-1-1z"/><path d="m53 46c.5523 0 1-.4478 1-1v-2c0-.5523-.4477-1-1-1h-23c-.5523 0-1 .4477-1 1v2c0 .5522.4477 1 1 1h4.223l-6.0782 16h4.2787l2.6592-7h12.8346l2.6592 7h4.2787l-6.0782-16zm-16.3978 5 1.8995-5h5.9966l1.8995 5z"/></svg>