<svg height="64" viewBox="0 0 64 64" width="64" xmlns="http://www.w3.org/2000/svg"><path d="m0 0h64v64h-64z" fill="none"/><path d="m13.9357 39.9875c-1.5993.4687-5.9261 1.4053-11.7374.0125 0 0-.884 9.8203 3.0825 15.3608l15.5182-8.1178c-3.6969-2.5156-5.7392-5.2058-6.8633-7.2555z"/><path d="m34.0176 50.6504 11.9441-11.5508c-4.7632 1.5085-8.834 2.3799-12.8652 2.6476-.0001-.0037 0-.0067-.0001-.0104.0291-5.8391-1.4248-11.3793-3.673-16.6658-2.005-4.8273-5.7059-11.1054-.8767-13.5718 3.2961-1.8843 9.8492.3907 12.3079 9.309-.0647.0943-.222.2515-.4122.041-.9241-1.0233-2.5595-3.7984-5.5859-5.8835-6.3315 9.0069 4.7649 17.4663 14.7432 16.9028.7209-.0407 1.1556-.8143.8342-1.4609-4.2647-8.5792 1.0984-11.1129-3.8402-16.2991-1.4421-1.5144-4.1325-2.3188-6.7072-1.9971-4.1853-5.7219-11.0042-6.2087-14.8055-2.9783-5.5411 4.7606-2.2741 11.3214.3596 17.6003 2.3394 5.4598 3.4434 10.761 3.5413 14.9822.0018.0306.0026.0591.0043.0895-3.9078-.1329-7.9796-.8033-12.7941-2.0004 2.1402 3.3397 7.008 8.2188 17.8255 10.8457z"/><path d="m48.2231 39.6949-4.9304 4.7679c1.4526 1.4263 7.0916 6.3289 17.6679 8.5635l.9286-12.9013c-4.9458 1.4301-9.8896.9298-13.6661-.4301z"/><path d="m22.7668 48.4705-11.976 6.2648c2.1306 1.7076 9.3812 6.4173 24.3859 6.3907l-1.8678-8.597c-4.3602-1.0794-7.8164-2.502-10.5421-4.0585z"/><path d="m49.9268 51.4329-.1865-.1401c-4.356-2.1744-6.9145-4.4592-7.889-5.436l-6.5653 6.3489 1.4583 6.7123c2.7692-.1468 13.0532-.9222 21.1613-4.5635-3.0317-.8141-5.6123-1.8191-7.7682-2.865z"/></svg>