<svg enable-background="new 0 0 64 64" height="64" viewBox="0 0 64 64" width="64" xmlns="http://www.w3.org/2000/svg"><path d="m0 0h64v64h-64z" fill="none"/><path d="m58.6 51.9c-1-1.6-4.1-2.9-5.3-5-.7-1.3-.8-3.7-2-5.5-1.7-2.4-4.1-3.6-5.3-4-3.7-1.1-4.1-5.5-6.1-7.4-1.6-1.6-3.6.6-5-.8-.7-.7-1.5-1.2-2.3-1.7-.3-2.8-.1-5.5.5-7.9 6.4.7 10.7-8.1 7.6-15.1-.2-.5-.8-.5-1.2-.1-5.4 6.6-9.3 3.2-11.5 8.1-.8 1.8-.4 4.2 1.3 5.6 1.5-2.7 3.3-4.8 4.6-5.9.2-.2.3-.1.4-.1-2.8 4.4-4.6 9.5-4.6 14.8-1.7.3-3.3 1.8-4.8 3.6-1.2 1.4-2.3 3.1-3.4 4.8-1.9 2.8-2.9 3.7-4.9 4.5-5.4 2.1-5.8 5.2-7.2 8.9-.5 1.4-4.7 3.9-5.6 5.5-1 1.7-1 3-1 4.8h57.7c.2 0-.1-4.3-1.9-7.1z"/><path d="m23.7 24.5c3 1.2 5.1-.2 5.1-.2s-.2-3.8-3.4-4.8c-2.2-.7-4-.3-4.8 0-.3.1-.5.4-.4.8.3 1 1.2 3.3 3.5 4.2z"/><path d="m8 32.9c.1.5.4.8.8 1s.9 0 1.3-.3c.9 0 1.6-.3 1.7-.8.2-.6-.2-1.2-.9-1.7-.1-.5-.4-.8-.8-1s-.9 0-1.3.3c-.9 0-1.6.3-1.7.8s.2 1.2.9 1.7z"/><path d="m48.5 27.4c.3.5 1.1.6 1.9.3.5.2.9.2 1.3-.1s.5-.7.5-1.2c.5-.7.7-1.4.4-1.9s-1.1-.6-1.9-.3c-.5-.2-.9-.2-1.3.1s-.5.7-.5 1.2c-.6.7-.8 1.5-.4 1.9z"/><path d="m55 38.3c.3.3.7.5 1.2.4.7.5 1.5.5 1.9.2.4-.4.4-1.2.1-1.9.1-.5.1-.9-.2-1.3s-.7-.5-1.2-.4c-.7-.5-1.5-.5-1.9-.2-.4.4-.4 1.2-.1 1.9-.2.5-.1 1 .2 1.3z"/><path d="m10.5 13.3c.5.2 1.2-.1 1.8-.7.5-.1.9-.3 1.1-.7s.1-.9-.2-1.3c.1-.9-.1-1.6-.7-1.8s-1.2.1-1.8.7c-.5.1-.9.3-1.1.7s-.1.9.2 1.3c-.1.8.1 1.5.7 1.8z"/></svg>