<svg height="64" viewBox="0 0 64 64" width="64" xmlns="http://www.w3.org/2000/svg"><path d="m0 0h64v64h-64z" fill="none"/><path d="m25.2407 31.7497c4.0281.8611 6.3649-1.44 6.3649-1.44s-1.0931-4.6503-5.2784-5.169c-2.9612-.367-5.0839.5297-6.0721 1.0856-.3745.2107-.524.6639-.3334 1.041.6182 1.2228 2.2653 3.8295 5.319 4.4824z"/><path d="m31.5026 22.9686c1.4315-3.8284 3.4678-6.7917 4.997-8.6081.276-.3278.4821-.2139.543-.1666l-.002.0257c-3.3562 8.3084-3.55 15.0257-2.4019 20.9587-3.2192.8334-5.6968 3.7969-8.6354 4.181-2.4077.3146-4.6497 1.111-5.7346 2.8745.7786.11 1.5374.2187 2.2681.3242 4.8621.7027 8.7023 1.2578 14.705 1.4287 2.2221.0617 3.5159.7877 4.2676 1.6481l.2142-.0922c4.1205-1.7632 7.4644-3.0975 9.9383-3.9661.2753-.0968.5449-.1775.8132-.255-1.4075-1.4045-3.0392-2.4996-4.6483-2.3808-3.6926.2725-6.1689-2.167-8.8759-3.355-1.137-3.2815-1.6802-7.3391-1.2902-11.4962 8.2969-.9985 11.71-13.3702 6.0574-21.686-.3812-.5608-1.2289-.5137-1.5605.0778-5.5872 9.9661-11.5369 6.4315-13.3872 13.4912-.6604 2.5198.3629 5.4201 2.7322 6.9961z"/><path d="m52.3908 43.652c-2.9438 1.0334-6.7683 2.6154-9.8017 3.9136.0815.4607.0954.9503.0223 1.4691-.4222 2.9949-2.9733 4.9034-6.6166 5.0958-8.2375.4349-13.3677-1.5729-14.4325-1.9966-.3058-.1217-.3406-.2723-.3142-.4116.0015-.0013.0119-.0098.0119-.0098 5.9681.989 9.7264 1.1326 14.3494.3582 3.5074-.5876 4.7689-2.2753 4.7302-3.6602-.0375-1.3532-1.0015-2.1645-3.1602-2.2255-7.3437-.2074-11.6418-.9984-17.9406-1.8746-4.3775-.6088-8.5873.5536-12.1643 2.8782-3.3568 2.1813-4.2845 3.209-4.2845 3.209l6.2425 11.8336 7.9516-3.2928c.9062-.3753 1.8982-.4931 2.867-.3406l10.9496 2.3616c2.4421.3845 4.9417-.0922 7.071-1.3481l21.7336-13.8307c-.0001-.0002-1.0981-4.2758-7.2145-2.1286z"/></svg>