<?xml version="1.0" encoding="utf-8"?>
<!-- Generator: Adobe Illustrator 25.0.0, SVG Export Plug-In . SVG Version: 6.00 Build 0)  -->
<svg version="1.1" xmlns="http://www.w3.org/2000/svg" xmlns:xlink="http://www.w3.org/1999/xlink" x="0px" y="0px"
	 viewBox="0 0 64 64" style="enable-background:new 0 0 64 64;" xml:space="preserve">
<style type="text/css">
	.st0{fill:none;}
	.st1{fill:#FFFFFF;}
</style>
<g id="Box">
	<rect class="st0" width="64" height="64"/>
</g>
<g id="Icon">
	<g>
		<path d="M41,34.79c-0.161,0.564-0.362,1.128-0.618,1.612c-0.938,1.776-3.37,3.108-3.37,3.108s-0.231,1.67-1.018,3.072
			c-0.305,0.543-1.14,0.833-1.513,1.368c-0.674,0.965-0.482,2.664-1.251,3.042c-1.374,0.675-2.972,0.988-3.347,0.633
			c-0.525-0.497-1.41-2.62-1.41-3.323V39.23c0-0.91-1.215-3.541-1.215-3.541s-3.151-0.027-4.255-0.027s-2.582-1.108-2.582-1.108
			s-0.934-3.095,0-5.026c0.935-1.931,2.15-2.128,2.15-2.128l4.927-0.99l2.821,1.652l3.761,0.716l1.042,1.426l1.677,2.366
			l2.378,1.239L41,32.253v-1.071l-1.824,0.912l-2.378-2.378l-1.274-2.293c0,0,1.644-1.647,1.189-2.519
			c-0.455-0.873-3.026,0.548-3.534-0.217c-0.508-0.765-0.056-3.376-0.056-3.376l-3.187-1.312c0,0-0.996-0.019-0.912,0.732
			c0.094,0.844,2.412,2.181,2.225,2.556c-0.173,0.346-0.75,0.094-0.75,0.094l-0.882,1.547l-1.837-0.414c0,0,1.397-0.53,1.567-1.039
			c0.17-0.51-2.062-2.344-2.062-2.344l-1.244,0.281l-0.562,2.25l-1.5,1.312l-1.967-0.015l0.175-1.09l-0.72-0.02l0.938-2.43
			l1.931,0.161c0,0,0.713-1.862,0.571-2.475c-0.274-1.189-1.515-1.324-1.515-1.792c0-0.469,1.336-0.462,1.993-1.118
			c0.36-0.36,1.253-1.573,1.988-2.596c5.821,0.604,10.804,4.005,13.628,8.822v-5.054c-3.84-4.209-9.353-6.867-15.5-6.867
			c-11.598,0-21,9.402-21,21s9.402,21,21,21c4.29,0,8.276-1.293,11.601-3.501c0.354-2.955,1.719-5.695,3.899-7.773V34.79z
			 M21.136,14.057c1.185-0.297,2.414-0.475,3.679-0.523c-0.106,0.487-0.498,2.108-1.098,2.268c-0.707,0.188-2.74-0.984-2.74-0.984
			L21.136,14.057z M13.014,44.436c-2.707-2.614-4.588-6.064-5.242-9.932c2.113,1.472,5.242,4.048,5.242,6.407
			C13.014,42.192,13.014,43.399,13.014,44.436z M15.324,18.857c0,0-2.517,3.281-4.276,5.057c-0.671,0.678-1.611,1.224-2.521,1.651
			c1.51-4.303,4.597-7.866,8.58-9.975L15.324,18.857z"/>
		<path d="M57,42.12V8.839c0-3.806-3.122-6.902-6.96-6.902c-3.888,0-7.04,3.126-7.04,6.981v33.206c-2.502,2.054-4,5.138-4,8.405
			c0,6.015,4.935,10.909,11,10.909c5.537,0,10.053-4.007,10.865-9.179C61.477,48.358,59.982,44.55,57,42.12z M57.353,53.75
			c-1.076,2.665-3.617,4.256-6.287,4.62c-0.613,0.083-0.675-0.071-0.644-0.241c2.922-1.191,4.864-3.974,4.864-7.148
			c0-2.58-1.298-4.858-3.286-6.265V39h-3v-2h3v-5h-3v-2h3v-5h-3v-2h3v-5h-6V8.935C46,6.762,47.791,5,50,5h0.04
			C52.227,5,54,6.754,54,8.919v34.753C57.238,45.528,59.047,49.554,57.353,53.75z"/>
	</g>
</g>
</svg>
