<svg height="64" viewBox="0 0 64 64" width="64" xmlns="http://www.w3.org/2000/svg"><path d="m0 0h64v64h-64z" fill="none"/><path d="m14.043 28.1367c.5352.3151 1.2238.6743 2.0056.9944l1.0647-3.8155c-1.3114-.6332-2.4315-1.4965-3.0703-1.9757-1.0001.7504-3.4848 2.75-6 2.75-1.0184 0-2.1246-.3893-3.043-.8273v4.2183c.9427.3047 1.9789.5191 3.043.5191 2.3969 0 4.6631-1.0762 6-1.8633z"/><path d="m56.043 26.09c-2.4615 0-4.9159-1.9367-6-2.75-.8749.6564-2.8858 2.2686-5.0594 2.6622l-.2995 1.0734c.3101.873.2416 1.6106.0975 2.1269l-.2147.7695c2.199-.1397 4.2375-1.106 5.4761-1.8352 1.3369.7871 3.603 1.8633 6 1.8633 1.0322 0 2.0372-.2025 2.957-.4926v-4.2031c-.8999.4194-1.9733.7856-2.957.7856z"/><path d="m50.043 41.34c-1.0001.7504-3.4848 2.75-6 2.75-2.4615 0-4.9159-1.9367-6-2.75-1.0001.7504-3.4848 2.75-6 2.75-2.4615 0-4.9159-1.9367-6-2.75-1.0001.7504-3.4848 2.75-6 2.75-2.4615 0-4.9159-1.9367-6-2.75-1.0001.7504-3.4848 2.75-6 2.75-1.0184 0-2.1246-.3893-3.043-.8273v4.2183c.9427.3046 1.9789.519 3.043.519 2.397 0 4.6631-1.0762 6-1.8633 1.3369.7871 3.603 1.8633 6 1.8633s4.6631-1.0762 6-1.8633c1.3369.7871 3.603 1.8633 6 1.8633s4.6631-1.0762 6-1.8633c1.3369.7871 3.603 1.8633 6 1.8633s4.6631-1.0762 6-1.8633c1.3369.7871 3.603 1.8633 6 1.8633 1.0322 0 2.0372-.2025 2.957-.4926v-4.2031c-.8999.4195-1.9733.7856-2.957.7856-2.4616.0001-4.9159-1.9366-6-2.7499z"/><path d="m20.043 32.8896c1.8713 0 4.1127-1.8829 6.0005-3.3003 1.7286 1.2983 4.092 3.3003 5.9995 3.3003 1.8713 0 4.1127-1.8829 6.0005-3.3003.894.6715 1.9582 1.527 3.041 2.2006l.3527-1.2638c.5091-.2471.8495-.5682.9622-.9717.0447-.1603.2184-.783.2632-.9434.1126-.4034-.0124-.8545-.3199-1.3295l1.1222-4.0217c-3.4343-.6781-5.3937-1.9071-5.8589-2.2281-.2563-.177-.3023-.3584-.2328-.4818 2.5417.6043 4.765.8661 6.7457.3667l.0018-.0067c.5091-.2471.8495-.5682.9622-.9717.0447-.1603.2184-.783.2632-.9433.5434-1.9473-4.1824-4.9676-10.5554-6.746-6.373-1.7783-11.9799-1.6414-12.5233.3059-.0447.1603-.2185.783-.2632.9434-.1126.4034.0123.8545.3199 1.3295l-1.778 6.3716c-.5091.2471-.8495.5682-.9621.9717-.0447.1603-.2185.783-.2632.9433-.1126.4035.0123.8545.3199 1.3295l-1.7779 6.3716c-.4708.2285-.7885.5234-.9241.8851.9469.6084 2.0894 1.1891 3.1043 1.1891z"/><path d="m50.043 32.34c-1.0001.7504-3.4848 2.75-6 2.75-2.4615 0-4.9159-1.9367-6-2.75-1.0001.7504-3.4848 2.75-6 2.75-2.4615 0-4.9159-1.9367-6-2.75-1.0001.7504-3.4848 2.75-6 2.75-2.4615 0-4.9159-1.9367-6-2.75-1.0001.7504-3.4848 2.75-6 2.75-1.0184 0-2.1246-.3893-3.043-.8273v4.2183c.9427.3046 1.9789.519 3.043.519 2.397 0 4.6631-1.0762 6-1.8633 1.3369.7871 3.603 1.8633 6 1.8633s4.6631-1.0762 6-1.8633c1.3369.7871 3.603 1.8633 6 1.8633s4.6631-1.0762 6-1.8633c1.3369.7871 3.603 1.8633 6 1.8633s4.6631-1.0762 6-1.8633c1.3369.7871 3.603 1.8633 6 1.8633 1.0322 0 2.0372-.2025 2.957-.4926v-4.2031c-.8999.4195-1.9733.7856-2.957.7856-2.4616.0001-4.9159-1.9366-6-2.7499z"/></svg>