<svg height="64" viewBox="0 0 64 64" width="64" xmlns="http://www.w3.org/2000/svg"><path d="m0 0h64v64h-64z" fill="none"/><path d="m36.0529 49.3632c-12.0415 2.2558-18.4814-3.8608-22.5753-15.5906.0834-.1933.4341-.2612.7355.2648.2699.4712 5.4701 9.1769 12.7812 11.2589.5727-.8882 1.0067-1.8129 1.2653-2.7332 2.7211-9.6871-5.175-11.7595-8.6382-18.17-2.1585-3.9955-2.2178-9.8405.2543-14.9693.2049-.425-.2379-.8616-.6662-.6636-18.3293 8.4704-20.7988 34.3976-7.9694 41.491 2.7423 1.5162 5.6602 1.5689 8.3033.7351 6.6002 5.9097 16.304 5.0666 17.6478 4.8295 1.7819-.3143 2.3358-1.9114 2.0214-3.6932s-1.3812-3.0926-3.1597-2.7594z"/><path d="m52.7668 13.9026c-2.7062-1.4963-5.5833-1.5671-8.1985-.7671-6.6017-6.0435-16.4296-5.19-17.7826-4.9513-1.7819.3143-2.3358 1.9114-2.0214 3.6932s1.3813 3.0925 3.1597 2.7594c12.0415-2.2558 18.4814 3.8608 22.5753 15.5906-.0834.1933-.4341.2612-.7355-.2648-.2685-.4688-5.4174-9.0883-12.67-11.2264-.6123.9253-1.0762 1.8921-1.3465 2.8545-2.7211 9.6871 5.175 11.7595 8.6382 18.17 2.1585 3.9955 2.2178 9.8405-.2543 14.9693-.2048.425.2379.8616.6662.6636 18.3294-8.4704 20.7989-34.3976 7.9694-41.491z"/></svg>