<?xml version="1.0" encoding="utf-8"?>
<!-- Generator: Adobe Illustrator 17.1.0, SVG Export Plug-In . SVG Version: 6.00 Build 0)  -->
<svg version="1.2" baseProfile="tiny" xmlns="http://www.w3.org/2000/svg" xmlns:xlink="http://www.w3.org/1999/xlink" x="0px"
	 y="0px" width="64px" height="64px" viewBox="0 0 64 64" xml:space="preserve">
<g id="Box">
	<rect fill="none" width="64" height="64"/>
</g>
<g id="Icon">
	<g>
		<path d="M36.0529,49.3632c-12.0415,2.2558-18.4814-3.8608-22.5753-15.5906c0.0834-0.1933,0.4341-0.2612,0.7355,0.2648
			c0.2699,0.4712,5.4701,9.1769,12.7812,11.2589c0.5727-0.8882,1.0067-1.8129,1.2653-2.7332
			c2.7211-9.6871-5.175-11.7595-8.6382-18.17c-2.1585-3.9955-2.2178-9.8405,0.2543-14.9693
			c0.2049-0.425-0.2379-0.8616-0.6662-0.6636C0.8802,17.2306-1.5893,43.1578,11.2401,50.2512
			c2.7423,1.5162,5.6602,1.5689,8.3033,0.7351c6.6002,5.9097,16.304,5.0666,17.6478,4.8295
			c1.7819-0.3143,2.3358-1.9114,2.0214-3.6932S37.8314,49.03,36.0529,49.3632z"/>
		<path d="M52.7668,13.9026c-2.7062-1.4963-5.5833-1.5671-8.1985-0.7671C37.9666,7.092,28.1387,7.9455,26.7857,8.1842
			c-1.7819,0.3143-2.3358,1.9114-2.0214,3.6932s1.3813,3.0925,3.1597,2.7594c12.0415-2.2558,18.4814,3.8608,22.5753,15.5906
			c-0.0834,0.1933-0.4341,0.2612-0.7355-0.2648c-0.2685-0.4688-5.4174-9.0883-12.67-11.2264
			c-0.6123,0.9253-1.0762,1.8921-1.3465,2.8545c-2.7211,9.6871,5.175,11.7595,8.6382,18.17
			c2.1585,3.9955,2.2178,9.8405-0.2543,14.9693c-0.2048,0.425,0.2379,0.8616,0.6662,0.6636
			C63.1268,46.9232,65.5963,20.996,52.7668,13.9026z"/>
	</g>
</g>
</svg>
