<svg enable-background="new 0 0 64 64" viewBox="0 0 64 64" xmlns="http://www.w3.org/2000/svg"><path d="m0 0h64v64h-64z" fill="none"/><path d="m35.3 43.9c1.2 1.5 3.4 1.7 4.9.5s1.7-3.4.5-4.9c-.6-.7-1.5-1.2-2.3-1.3-.5-2.1-.8-4.6.1-5.9.8-1.2 3.6-1.3 6.3-.9.1.5.3 1 .7 1.4 1.2 1.5 3.4 1.7 4.9.5s1.7-3.4.5-4.9c-.9-1.1-2.2-1.5-3.5-1.2-1.4-2-2.4-4.2-1.7-5.3.8-1.1 3.5-1.6 6.1-1.7.1.4.3.8.6 1.1 1.2 1.5 3.4 1.7 4.9.5s1.7-3.4.5-4.9c-1-1.2-2.6-1.6-4-1-26.5-19-39.7-12.8-44.2-9.1-4.5 3.6-13.3 15.2-.3 45.1-1.2 1.3-1.3 3.2-.2 4.6 1.2 1.5 3.4 1.7 4.9.5s1.7-3.4.5-4.9c-.2-.3-.5-.5-.7-.6.6-2.7 1.7-5.6 3.1-6.2 1.2-.5 3.2.9 4.8 2.7-.5 1.2-.4 2.6.5 3.6 1.2 1.5 3.4 1.7 4.9.5s1.7-3.4.5-4.9c-.3-.4-.8-.7-1.2-.9.2-2.7.9-5.4 2.2-5.9 1.5-.6 4 .2 5.9 1.2 0 .8.2 1.6.8 2.3zm-7.9-6.3c-1.2.5-2.1 1.6-2.7 2.8-.2 0-.4 0-.6 0-1.2-.1-2.4-.3-3.5-.5.9-1.7 1.6-3.5 2.3-5.3.6.1 1.2.2 1.8.2 1.3.1 2.7.2 4 .2-.3.8-.6 1.6-.9 2.4-.1.1-.2.1-.4.2zm-21.5-18.5c.9.7 1.8 1.4 2.8 2.1-.3 2-.7 3.9-1.3 5.8-.6-.4-1.2-.8-1.8-1.2-.2-2.3 0-4.6.3-6.7zm2.9-7.2c.3 2.3.3 4.7.1 7-.9-.6-1.7-1.3-2.5-2 .6-1.8 1.3-3.5 2.4-5zm2.2 1.5c1.8 1.4 3.7 2.6 5.7 3.5 0 1.2-.1 2.4-.2 3.6-.1.8-.2 1.5-.3 2.3-1.8-.7-3.6-1.6-5.3-2.7 0-.1 0-.1 0-.2.2-2.1.2-4.3.1-6.5zm28.2-2.8c.1 1.8.2 3.5.2 5.3-1.8.7-3.7 1.2-5.6 1.6 0-1.9 0-3.8-.1-5.7 1.6-.3 3.2-.8 4.7-1.6.3.2.5.3.8.4zm-3.2 20c-.4.6-.7 1.3-.9 2-1.2.2-2.5.3-3.7.4.5-1.9 1-3.8 1.4-5.7 2-.2 3.9-.5 5.9-1-.1.9-.3 1.8-.5 2.7-.9.3-1.7.9-2.2 1.6zm-10.3-5.3c-.1 0-.2 0-.3 0 .3-1.8.6-3.7.7-5.6 1.1.1 2.2.2 3.3.2.8 0 1.6 0 2.4-.1-.1.8-.1 1.6-.2 2.4-.1 1.1-.3 2.2-.4 3.2-1.9.1-3.7.1-5.5-.1zm5 2.1c-.4 1.9-.8 3.8-1.4 5.6-1.5 0-3-.1-4.4-.2-.4 0-.9-.1-1.3-.2.6-1.8 1.1-3.6 1.5-5.4.1 0 .3 0 .4.1 1.3.1 2.6.2 3.9.2.5 0 .9 0 1.3-.1zm-4.6-15.4c1.1.2 2.2.3 3.3.3.8 0 1.6-.1 2.3-.1.1 1.9.2 3.7.1 5.6-1.8.2-3.5.1-5.3 0-.1 0-.2 0-.3 0 .1-2 0-3.9-.1-5.8zm7.1 13.3c.1-.9.3-1.9.4-2.8.1-1 .2-1.9.2-2.9 1.9-.3 3.8-.8 5.6-1.4 0 1.6-.1 3.3-.3 4.9 0 .4-.1.8-.1 1.1-2 .5-3.9.8-5.8 1.1zm.3-15.5c-.1-.6-.1-1.1-.2-1.7.9.3 1.7.7 2.6 1-.8.3-1.6.5-2.4.7zm-2 .3c-1.9.2-3.8.1-5.7-.2-.2-1.3-.4-2.6-.6-3.9 2 .3 4 .7 6 1.4.1.9.2 1.8.3 2.7zm-7.3 7.3c-1.9-.4-3.8-.9-5.6-1.7 0-2.2-.2-4.4-.5-6.5 1.9 1.1 3.9 1.9 5.9 2.4.2 1.9.3 3.9.2 5.8zm-5.6.4c1.8.7 3.6 1.2 5.5 1.5-.1 1.9-.4 3.7-.7 5.6-1.9-.3-3.7-.8-5.4-1.4.3-1.8.5-3.7.6-5.7zm4.5 9.1c-.4 1.8-.9 3.6-1.5 5.4-1.9-.3-3.7-.8-5.4-1.4.6-1.8 1.1-3.6 1.5-5.4 1.7.7 3.5 1.1 5.4 1.4zm-7.3-2c-.4 1.8-.9 3.7-1.5 5.4-1.8-.7-3.5-1.4-5.1-2.3.6-1.8 1.1-3.7 1.4-5.6 1.6.9 3.4 1.8 5.2 2.5zm-9.1 4c-.2.5-.5 1.1-.7 1.6-.1-.7-.2-1.5-.3-2.2.4.2.7.4 1 .6zm.2 6.5c-.1-.5-.2-1-.3-1.6.7-1.3 1.3-2.6 1.9-3.9 1.6.9 3.4 1.6 5.1 2.3-.7 1.7-1.5 3.4-2.4 5-1.5-.5-2.9-1.2-4.3-1.8zm3.2 3.6c-.5.8-1 1.5-1.5 2.2-.3-1.1-.7-2.2-1-3.3.8.4 1.6.7 2.5 1.1zm5.3-6.2c1.8.6 3.6 1 5.4 1.4-.7 1.8-1.5 3.5-2.3 5.2-1.9-.4-3.7-.9-5.5-1.5.9-1.6 1.7-3.3 2.4-5.1zm15.4 2.2c1.4 0 2.7-.2 4.1-.3 0 1.3.2 2.7.5 3.9-1.6-.7-3.5-1.4-5.3-1.4.2-.8.5-1.5.7-2.2zm9.5-6.6c.2-.9.3-1.8.5-2.7.7-.2 1.4-.5 2.1-.8.4 1.2 1 2.4 1.7 3.4-1.4-.1-2.9-.1-4.3.1zm3-8.2c-.6.8-.8 1.8-.8 2.7-.5.2-1 .4-1.4.6 0-.1 0-.2 0-.3.2-2 .3-4 .3-5.9 1.7-.7 3.3-1.7 4.8-2.8.3.2.5.3.7.5v2.9c-1.5.4-2.8 1.1-3.6 2.3zm-2-8.5c1.1.6 2.1 1.1 3.1 1.7-.9.6-1.9 1.2-2.9 1.7-.1-1.2-.2-2.3-.2-3.4zm7.6 5.7c0-.4 0-.8 0-1.2.5.4 1.1.7 1.5 1-.4.1-.9.2-1.5.2zm-25.8-11.6c.3 1.2.5 2.4.7 3.7-2.2-.6-4.3-1.7-6.2-3.1 0-.1 0-.1 0-.2 1.4-.3 2.8-.4 4.2-.4zm-8 1.2c.2.2.5.4.7.6.5 2.4.8 4.8.8 7.2-2.2-1.1-4.2-2.5-6-4.2 0-.2-.1-.4-.1-.6.3-.3.6-.6.9-.8 1.2-1 2.4-1.7 3.7-2.2zm-3.7 42c-.2-.6-.5-1.1-.7-1.8.4.1.8.2 1.2.4-.2.5-.4.9-.5 1.4zm1.2-3.2c-1-.3-1.9-.6-2.9-.9-.2-.4-.3-.9-.5-1.3 1-1.2 1.9-2.5 2.7-3.8 1.8.6 3.7 1.2 5.6 1.6-.2.3-.4.6-.6.9-.4 0-.8.1-1.3.3-1.2.5-2.2 1.7-3 3.2zm6.5-3.3c.1-.3.3-.5.5-.8 1.4.3 2.9.5 4.3.6h.1c-.3 1-.5 2.1-.6 3.1-1.2-1.2-2.7-2.4-4.3-2.9z"/><path d="m55 47.7c-.5-.9-1.9-3.3-3.2-3.5-1.5-.2-5.2-.2-7.3.5-.2.1-.4.4-.3.6 0 .1.8 2 1.2 2.8-3 1-4.7 2.4-6.4 2.4-2.4 0-4-2.1-5.9-3.3-.4-.2-.8.1-.8.5.1 2.9 3.1 5.2 3.1 5.9s-3 2.8-3 5.8c0 .4.4.7.8.5 1.9-1.2 3.4-3.1 5.9-3 1.6 0 3 .9 5.3 1.8 0 0-1.8 1.5-2.1 1.8s-.2.7.1.8 1.9.8 3.8.3c.9-.2 1.8-.7 2.7-1.7.8.1 4 .5 7.7-.9 3.3-1.2 5.9-3.4 5.9-5.3.1-2.3-3.3-4.9-7.5-6zm.5 6.4c-.8 0-1.6-.8-1.6-1.6s.8-1.6 1.6-1.6 1.6.8 1.6 1.6c0 .9-.8 1.6-1.6 1.6z"/></svg>