<svg height="64" viewBox="0 0 64 64" width="64" xmlns="http://www.w3.org/2000/svg"><path d="m0 0h64v64h-64z" fill="none"/><path d="m56.575 37 1.7845-18.1699c.9395-.4299 1.6371-1.3226 1.7454-2.4249l.782-7.9617c.1282-1.3053-.607-2.4859-1.7343-3.0063.0834-1.7832-.28-2.2156-.7627-2.2629-.4826-.0474-.9232.306-1.1884 2.0713-1.207.2911-2.1578 1.3062-2.286 2.6115l-.7819 7.9617c-.1083 1.1023.4023 2.1136 1.2402 2.7181l-1.8133 18.4631h-4.1512l.587-12.3615c.9166-.4767 1.5684-1.4035 1.6209-2.5098l.3795-7.991c.0623-1.3101-.7316-2.4521-1.8836-2.915-.0066-1.7852-.3914-2.1986-.8759-2.2216-.4844-.023-.9066.3522-1.0823 2.1286-1.1908.3516-2.0892 1.4133-2.1514 2.7234l-.3795 7.991c-.0525 1.1063.5085 2.0906 1.3758 2.6521l-.5939 12.5038h-4.2935l-2.2763-17.7273c.8195-.6292 1.2998-1.6553 1.1587-2.7539l-1.0189-7.9348c-.1671-1.301-1.1476-2.2873-2.3628-2.5423-.3176-1.7567-.7684-2.0967-1.2496-2.0349-.481.0618-.8313.5047-.6948 2.2847-1.1113.5538-1.811 1.7557-1.6439 3.0566l1.0189 7.9349c.1411 1.0986.865 1.9701 1.8168 2.3718l2.2272 17.3452h-1.685c-.8337 0-1.6075.4156-2.062 1.1147-2.36 3.631-11.4417 14.8853-33.3407 14.8853v9h60v-25z"/><path d="m14.48 44c2.7471 0 5.415-1.1777 6.8569-1.9424 1.1606.6155 3.1189 1.4886 5.2703 1.8096 2.2466-1.5969 3.9075-3.2211 5.0844-4.5793-1.0266.4141-2.2806.782-3.4977.782-2.77 0-5.7334-1.9053-5.7598-1.9219l-1.0972-.7207-1.0972.7207c-.0292.0187-3.0062 1.922-5.7597 1.922-2.77 0-5.7334-1.9053-5.7598-1.9219l-1.0957-.7139-1.0952.7109c-.0249.0168-2.1796 1.3976-4.5293 1.8079v3.9648c2.2896-.2714 4.3987-1.2111 5.6231-1.8602 1.4419.7647 4.1094 1.9424 6.8569 1.9424z"/></svg>