<?xml version="1.0" encoding="utf-8"?>
<!-- Generator: Adobe Illustrator 19.1.0, SVG Export Plug-In . SVG Version: 6.00 Build 0)  -->
<svg version="1.2" baseProfile="tiny" xmlns="http://www.w3.org/2000/svg" xmlns:xlink="http://www.w3.org/1999/xlink" x="0px"
	 y="0px" width="64px" height="64px" viewBox="0 0 64 64" xml:space="preserve">
<g id="_x36_4px_Box">
	<rect fill="none" width="64" height="64"/>
</g>
<g id="Icon">
	<g>
		<path d="M56.575,37l1.7845-18.1699c0.9395-0.4299,1.6371-1.3226,1.7454-2.4249l0.782-7.9617
			c0.1282-1.3053-0.607-2.4859-1.7343-3.0063c0.0834-1.7832-0.28-2.2156-0.7627-2.2629c-0.4826-0.0474-0.9232,0.306-1.1884,2.0713
			c-1.207,0.2911-2.1578,1.3062-2.286,2.6115l-0.7819,7.9617c-0.1083,1.1023,0.4023,2.1136,1.2402,2.7181L53.5605,37h-4.1512
			l0.587-12.3615c0.9166-0.4767,1.5684-1.4035,1.6209-2.5098l0.3795-7.991c0.0623-1.3101-0.7316-2.4521-1.8836-2.915
			c-0.0066-1.7852-0.3914-2.1986-0.8759-2.2216c-0.4844-0.023-0.9066,0.3522-1.0823,2.1286
			c-1.1908,0.3516-2.0892,1.4133-2.1514,2.7234l-0.3795,7.991c-0.0525,1.1063,0.5085,2.0906,1.3758,2.6521L46.4059,37h-4.2935
			l-2.2763-17.7273c0.8195-0.6292,1.2998-1.6553,1.1587-2.7539L39.9759,8.584c-0.1671-1.301-1.1476-2.2873-2.3628-2.5423
			c-0.3176-1.7567-0.7684-2.0967-1.2496-2.0349c-0.481,0.0618-0.8313,0.5047-0.6948,2.2847
			c-1.1113,0.5538-1.811,1.7557-1.6439,3.0566l1.0189,7.9349c0.1411,1.0986,0.865,1.9701,1.8168,2.3718L39.0877,37h-1.685
			c-0.8337,0-1.6075,0.4156-2.062,1.1147C32.9807,41.7457,23.899,53,2,53v9h60V37H56.575z"/>
		<path d="M14.48,44c2.7471,0,5.415-1.1777,6.8569-1.9424c1.1606,0.6155,3.1189,1.4886,5.2703,1.8096
			c2.2466-1.5969,3.9075-3.2211,5.0844-4.5793c-1.0266,0.4141-2.2806,0.782-3.4977,0.782c-2.77,0-5.7334-1.9053-5.7598-1.9219
			l-1.0972-0.7207l-1.0972,0.7207C20.2105,38.1667,17.2335,40.07,14.48,40.07c-2.77,0-5.7334-1.9053-5.7598-1.9219l-1.0957-0.7139
			l-1.0952,0.7109C6.5044,38.1619,4.3497,39.5427,2,39.953v3.9648c2.2896-0.2714,4.3987-1.2111,5.6231-1.8602
			C9.065,42.8223,11.7325,44,14.48,44z"/>
	</g>
</g>
</svg>
