<svg enable-background="new 0 0 64 64" height="64" viewBox="0 0 64 64" width="64" xmlns="http://www.w3.org/2000/svg"><path d="m0 0h64v64h-64z" fill="none"/><path d="m27.8 51.6c0-.8 0-1.5.3-2.1l2-5.2c-2.3-6-4.4-13.1-4.3-19 0 0 9.3.1 13 8.5 0 0 .5.1.7-.9 1.6-7.9-1.5-13.8-9.9-15.4 0 0 4.8-1.7 16.5 1.3.2-.1.3-.2.2-.6-1.6-7.8-10.3-11.6-17.7-7.3 0 0 3.4-5 11.1-7 0-.1.1-.3-.3-.6-1.4-.9-5.2-2.8-10.6-1.8-4.9.9-7.2 4.2-8.9 7.1 0 0-4.5-4.8-11.2-3.1-5.4 1.3-6.9 5.7-7.6 7.6-.2.5 0 .7.1.7 1.6-.6 7-2.9 11.4-.4 0 0-3 .3-6.6 3.2-3.9 3.1-5.4 8.8-4.1 13.5.1.4.3.5.5.5.9-1.3 6.3-8.2 11.9-9.8-6.8 6.8-6 15.8-2.4 20.1.3.4.6.4.7.2 0 0 1.3-9.4 8.7-15.7.3-.3.6-.3.7-.2-.8 1.4-2.6 4.9-3.1 7.3 0 0 2.3 17.9 8.1 27.4h4.4c0-.2-.1-.5-.1-.7-2.1-1.6-3.3-4.3-3.5-7.6z"/><path d="m62.9 50.7-3.6-9.6c.8.3 1.6 0 2-.8.3-.8 0-1.6-.8-2-.4-.2-4.4-1.8-7.1-1.3-1.4.3-2.4.7-3.6 1.1.2-.4.2-.8.2-1.2 0-1.7-1.3-3-3-3s-3 1.3-3 3c0 .4.1.8.2 1.2-1.2-.4-2.2-.8-3.6-1.1-2.7-.5-6.6 1.1-7.1 1.3-.8.3-1.1 1.2-.8 2s1.2 1.1 1.9.8l-3.6 9.5v.9c.2 4.3 2.8 6.5 6 6.5s5.8-2.1 6-6.4c0-.3 0-.5-.1-.9l-4.1-10.7c.5 0 .9-.1 1.2 0 1.7.3 2.9 1 4.9 1.4v17.6h-3c-1.7 0-3 1.3-3 3v1h16v-1c0-1.7-1.3-3-3-3h-3v-17.6c2-.4 3.3-1.1 4.9-1.4.3-.1.8-.1 1.2 0l-4.1 10.7c.1.2.1.5.1.8.2 4.3 2.8 6.5 6 6.5s5.8-2.1 6-6.4c0-.3 0-.5-.1-.9zm-22.8.3c0 2.7-1.4 4-3.1 4-.4 0-.7-.1-1-.2 1.2-.4 2-1.7 2-3.8h-4l3-7.9s3.1 7.9 3.1 7.9zm16.9 4c-.4 0-.7-.1-1-.2 1.2-.4 2-1.7 2-3.8h-4l3-7.9s3.1 7.9 3.1 7.9c0 2.7-1.4 4-3.1 4z"/></svg>