<svg enable-background="new 0 0 64 64" height="64" viewBox="0 0 64 64" width="64" xmlns="http://www.w3.org/2000/svg"><path d="m0 0h64v64h-64z" fill="none"/><path d="m20 11.9c3.2 0 5-2.2 5-5.4 0-3.6-1.9-5.5-5-5.5-3.2 0-5 2.3-5 5.5 0 3.5 1.8 5.4 5 5.4zm18.1 15c.3-.2 4-1.9 4-1.9l-2-1.6c-1.5.5-4 2.5-4.6 4.2-.5 1.7 5.7 6.2 5.7 6.2s1.4-1.6 5.2-1.1c3.7.5 4.6-3 4.6-3l-4.1-4.4-8.9 1.9c-.1.1-.2-.2.1-.3zm6.6-8.6s-7.1-2.2-14.1-3.3c-6.6-1-9.4-1-11-1-1.2 0-5.9.1-8 1.6-4.6 3.3-4.8 13.5-4.5 19.5.1 3 2.5 3.9 3.9 3.9 0 0 0-3 0-5 0-3.8.4-8.1 1.5-11.1 0-.1.1-.2.1-.3s.1-.1.2-.1c.2 0 .2.1.2.2v40.4s5.4.2 5.6-5c.1-2.5.8-19.3.8-19.5s.2-.5.6-.5.6.3.6.5.7 17 .8 19.3c.2 5.3 5.6 5.1 5.6 5.1v-43.2c3.8.1 7.7.5 12.9 1.1 3.9.4 4.8-2.6 4.8-2.6zm10.3 17.7h-22.1c-.8 0-1.5.7-1.5 1.5s.7 1.5 1.5 1.5h.2s1.1 14.2 1.7 21.4c.1 1.1.9 2 2 2.1 2.4.3 4.8.4 7.2.4s4.8-.1 7.2-.4c1-.1 1.9-1.1 2-2.1.6-7.2 1.7-21.4 1.7-21.4h.1c.8 0 1.5-.7 1.5-1.5s-.6-1.5-1.5-1.5zm-19.8 3h4.4l.1 4h-4.2zm.5 6h4.1l.1 4h-3.9zm.4 6h3.9l.1 4h-3.6zm1 9.6c-.1 0-.2-.2-.2-.3-.1-1.1-.3-3.3-.3-3.3h3.6l.1 3.8c-1.1 0-2.2-.1-3.2-.2zm8.6.3c-.6 0-1.2 0-1.7 0s-1.2 0-1.7 0l-.1-3.9h3.7zm.2-5.9h-3.8l-.1-4h4zm.2-6h-4.2l-.1-4h4.4zm.2-6h-4.6l-.1-4h4.8zm4.8 17.3c0 .1-.2.3-.2.3-1.1.1-2.1.2-3.2.3l.1-3.8h3.6c0-.1-.2 2.1-.3 3.2zm.5-5.3h-3.6l.1-4h3.8zm.4-6h-3.9l.1-4h4.1zm.5-6h-4.2l.1-4h4.4z"/></svg>