<svg height="64" viewBox="0 0 64 64" width="64" xmlns="http://www.w3.org/2000/svg"><path d="m0 0h64v64h-64z" fill="none"/><path d="m24.24 43.4811c-.3892 2.1344 3.4364 2.4815 3.5945.4706.0975-1.24.174-2.8411.9691-5.1676 7.6882 2.4135 15.2565-7.2972 13.2213-16.6514-.1353-.6218-.8898-.8779-1.3857-.4792-8.3567 6.7175-12.2973 1.5554-16.3823 7.0526-1.4197 1.9105-1.5707 4.692-.1844 6.8702 2.5526-2.7935 5.3054-4.6542 7.2517-5.688.326-.1731.4979-.0129.5531.0635-4.5794 4.4078-6.495 7.4208-7.6373 13.5293z"/><path d="m13.82 33c0-10.024 8.1555-18.18 18.18-18.18.3601 0 .7155.0193 1.0703.0404l-1.8724 3.2784c-.8605 1.5022.9981 3.0805 2.3414 2.0222l8.8492-6.9591c.7999-.6287.8022-1.8421.0046-2.4738l-8.8228-6.9925c-1.3492-1.0714-3.2007.5135-2.3491 2.0134l1.8665 3.2869c-.3614-.0164-.7222-.0359-1.0877-.0359-12.5041 0-22.7995 9.6133-23.8977 21.8361l5.7266 2.34c-.0005-.0593-.0089-.1167-.0089-.1761z"/><path d="m32 51.18c-7.1274 0-13.2905-4.1321-16.2652-10.1194l3.8438-.018c1.7312-.0059 2.1688-2.4045.5806-3.0389l-10.4514-4.184c-.9445-.3785-1.9964.2262-2.1447 1.2328l-1.6443 11.137c-.2533 1.7042 2.045 2.5152 2.9182 1.0276l1.8733-3.1917c4.001 7.696 12.0324 12.9746 21.2897 12.9746 3.6186 0 7.0501-.8097 10.13-2.2499l-.8398-6.1518c-2.7229 1.6281-5.8935 2.5817-9.2902 2.5817z"/><path d="m55.9416 45.8684-3.6837-.0263c2.365-3.7165 3.7421-8.12 3.7421-12.8421 0-8.1284-4.0656-15.321-10.2662-19.6647l-4.8939 3.7925c5.5647 3.1119 9.3401 9.0565 9.3401 15.8722 0 3.6865-1.1259 7.1021-3.0229 9.9666l-1.9337-3.3132c-.8706-1.4964-3.1677-.6816-2.922 1.0166l1.6022 11.1432c.1444 1.007 1.1941 1.6158 2.14 1.2409l10.4671-4.1445c1.6026-.6329 1.1557-3.0288-.5691-3.0412z"/></svg>