<svg height="64" viewBox="-607 369 64 64" width="64" xmlns="http://www.w3.org/2000/svg"><path d="m-607 369h64v64h-64z"/><g fill="#fff"><path d="m-598.9725 401.0884c-.6137-13.7516 10.3594-25.0884 23.9725-25.0884 13.5976 0 24.5869 11.3214 23.9725 25.0884 1.0308.4716 1.983 1.0828 2.8329 1.8129 1.7254-16.0468-10.8993-29.865-26.8054-29.865-15.9239 0-28.5289 13.8361-26.8054 29.8651.8499-.7302 1.8022-1.3414 2.8329-1.813z"/><path d="m-555.215 400.0254c.4083.0265.8103.0757 1.2065.1422.089-11.7629-9.4463-21.1676-20.9915-21.1676-11.527 0-21.0807 9.3864-20.9915 21.1676.3962-.0665.7983-.1157 1.2065-.1422.5521-.7776 1.1965-1.4828 1.9145-2.1053 1.0325-8.9598 8.634-15.9201 17.8705-15.9201 9.2366 0 16.838 6.9602 17.8705 15.92.718.6225 1.3624 1.3277 1.9145 2.1054z"/><path d="m-575 385c-6.8217 0-12.5835 4.5818-14.3972 10.8264 1.0864-.4239 2.2546-.6783 3.4717-.7703 1.8851-4.1582 6.0627-7.0561 10.9255-7.0561s9.0405 2.8979 10.9255 7.0562c1.217.0919 2.3853.3464 3.4717.7702-1.8136-6.2447-7.5755-10.8264-14.3972-10.8264z"/><path d="m-556.907 403.0463c-1.4098-2.9116-4.3387-4.9012-7.7667-5.0231.6219 4.679-2.7433 6.7849-3.2411 7.1469-.2406.1749-.524.2278-.5731.0665 2.4536-2.8749 1.6201-6.1185 1.155-6.9283-1.5132-2.6354-4.4543-4.3083-7.6671-4.3083s-6.0742 1.7203-7.6669 4.3085c-.7547-.2033-1.5384-.3085-2.3331-.3085-3.5701 0-6.638 2.0414-8.093 5.0463-5.2904-.5409-9.907 3.6338-9.907 8.9537 0 5.1597 4.3555 9.281 9.5089 8.9854 1.6295 4.6213 6.6925 7.128 11.3759 5.5411 1.6562 2.145 4.2415 3.4735 7.1152 3.4735s5.459-1.3285 7.1152-3.4734c4.6787 1.5853 9.7451-.9156 11.3759-5.5411 5.1512.2953 9.5089-3.8236 9.5089-8.9855 0-5.3181-4.6146-9.4947-9.907-8.9537z"/></g></svg>