<?xml version="1.0" encoding="utf-8"?>
<!-- Generator: Adobe Illustrator 17.1.0, SVG Export Plug-In . SVG Version: 6.00 Build 0)  -->
<svg version="1.2" baseProfile="tiny" xmlns="http://www.w3.org/2000/svg" xmlns:xlink="http://www.w3.org/1999/xlink" x="0px"
	 y="0px" width="64px" height="64px" viewBox="0 0 64 64" xml:space="preserve">
<g id="Box">
	<rect fill="none" width="64" height="64"/>
</g>
<g id="Icon">
	<g>
		<path d="M62.6562,8.4976c-11.3864-0.961-21.4797,9.6865-17.7047,18.2294c-2.3054,1.6446-4.0972,2.2754-5.5031,2.8111
			c-1.4813,0.5649-1.4176,1.7372-0.9797,2.7589c0.4652,1.0856,1.3098,1.742,2.3953,1.2767
			c5.6915-2.4388,8.9537-4.7992,13.434-12.2569c0.0947,0.0358,0.2843,0.1586,0.1777,0.5843
			c-0.6473,2.585-2.383,6.2275-4.9558,10.0462c2.8645,1.3221,6.4647,0.6007,8.3991-1.4665
			c5.6378-6.025-1.5829-9.5363,5.1216-21.2053C63.2264,8.9522,63.0275,8.5289,62.6562,8.4976z"/>
		<path d="M29.8193,23.7705c5.0324-2.6918,7.7758-8.795,7.1974-11.3545c-0.0844-0.3739-0.3322-0.3203-0.417-0.2906
			c-1.5112,1.695-3.4698,4.0084-5.2698,5.5068c-5.9009,4.8736-10.5461,3.0935-11.6719,0.9802
			c-0.2094-0.0643-0.4172,0.0975-0.5391,0.6227C18.1113,23.5746,23.9836,26.9616,29.8193,23.7705z"/>
		<path d="M13.3702,33.6269c2.5929,2.361,6.1125,4.8168,10.33,4.2112c5.6529-0.8116,7.5986-8.2836,6.351-8.3355
			c-13.7191,10.3342-18.9841-12.275-28.8949-6.0807c-0.5,0.3125-0.2402,0.6517-0.2402,0.6517l-0.012,0.0044
			C7.375,25.4167,9.1126,29.7498,13.3702,33.6269z"/>
		<path d="M35.875,41.0625c-16.5936,3.8248-19.6385,3.779-27.4646,0.778l0.007,0.0107c0,0-0.459,0.0389-0.2299,0.7269
			c0.9815,2.9481,9.167,6.5,21.8181,4.264c9.0596-1.6012,15.9653-1.9134,20.3694,1.0329c2.7416,1.8341,2.4375,4.4375,2.1085,6.499
			C62.4424,56.3364,59.9082,35.5229,35.875,41.0625z"/>
	</g>
</g>
</svg>
