<svg height="64" viewBox="0 0 64 64" width="64" xmlns="http://www.w3.org/2000/svg"><path d="m0 0h64v64h-64z" fill="none"/><path d="m62.6562 8.4976c-11.3864-.961-21.4797 9.6865-17.7047 18.2294-2.3054 1.6446-4.0972 2.2754-5.5031 2.8111-1.4813.5649-1.4176 1.7372-.9797 2.7589.4652 1.0856 1.3098 1.742 2.3953 1.2767 5.6915-2.4388 8.9537-4.7992 13.434-12.2569.0947.0358.2843.1586.1777.5843-.6473 2.585-2.383 6.2275-4.9558 10.0462 2.8645 1.3221 6.4647.6007 8.3991-1.4665 5.6378-6.025-1.5829-9.5363 5.1216-21.2053.1858-.3233-.0131-.7466-.3844-.7779z"/><path d="m29.8193 23.7705c5.0324-2.6918 7.7758-8.795 7.1974-11.3545-.0844-.3739-.3322-.3203-.417-.2906-1.5112 1.695-3.4698 4.0084-5.2698 5.5068-5.9009 4.8736-10.5461 3.0935-11.6719.9802-.2094-.0643-.4172.0975-.5391.6227-1.0076 4.3395 4.8647 7.7265 10.7004 4.5354z"/><path d="m13.3702 33.6269c2.5929 2.361 6.1125 4.8168 10.33 4.2112 5.6529-.8116 7.5986-8.2836 6.351-8.3355-13.7191 10.3342-18.9841-12.275-28.8949-6.0807-.5.3125-.2402.6517-.2402.6517l-.012.0044c6.4709 1.3387 8.2085 5.6718 12.4661 9.5489z"/><path d="m35.875 41.0625c-16.5936 3.8248-19.6385 3.779-27.4646.778l.007.0107s-.459.0389-.2299.7269c.9815 2.9481 9.167 6.5 21.8181 4.264 9.0596-1.6012 15.9653-1.9134 20.3694 1.0329 2.7416 1.8341 2.4375 4.4375 2.1085 6.499 9.9589 1.9624 7.4247-18.8511-16.6085-13.3115z"/></svg>