<svg height="64" viewBox="0 0 64 64" width="64" xmlns="http://www.w3.org/2000/svg"><path d="m0 0h64v64h-64z" fill="none"/><path d="m56.043 14.09c-1.8911 0-4.1094-1.3379-4.7998-1.8496l-1.2002-.9004-1.2002.9004c-.6396.4795-2.895 1.8496-4.7998 1.8496-1.8911 0-4.1094-1.3379-4.7998-1.8496l-1.2002-.9004-1.2002.9004c-.6396.4795-2.895 1.8496-4.7998 1.8496-1.8911 0-4.1094-1.3379-4.7998-1.8496l-1.2002-.9004-1.2002.9004c-.6396.4795-2.895 1.8496-4.7998 1.8496-1.8911 0-4.1094-1.3379-4.7998-1.8496l-1.2002-.9004-1.2002.9004c-.6397.4795-2.895 1.8496-4.7998 1.8496-1.0183 0-2.1245-.3893-3.043-.8273v4.2183c.9426.3046 1.9789.519 3.043.519 2.397 0 4.6631-1.0762 6-1.8633 1.3369.7871 3.603 1.8633 6 1.8633s4.6631-1.0762 6-1.8633c1.3369.7871 3.603 1.8633 6 1.8633s4.6631-1.0762 6-1.8633c1.3369.7871 3.603 1.8633 6 1.8633s4.6631-1.0762 6-1.8633c1.3369.7871 3.603 1.8633 6 1.8633 1.0322 0 2.0371-.2025 2.957-.4926v-4.203c-.8999.4195-1.9733.7856-2.957.7856z"/><path d="m20.043 36c.5814 0 1.1543-.0654 1.709-.1726-.1913-.7432-.0066-1.5422.5508-2.0999.6631-.6641 1.6768-.834 2.5225-.4204.0786.0385.9917.4924 2.3152 1.3345-.5103-.9003-.7794-1.497-.8064-1.5581-.3691-.832-.1885-1.8052.4551-2.4487.1484-.1489.3181-.2669.4962-.3652-.0118-.0087-.031-.0209-.0421-.0292l-1.2003-.9004-1.2002.9004c-.6396.4795-2.895 1.8496-4.7998 1.8496-1.8911 0-4.1094-1.3379-4.7998-1.8496l-1.2002-.9004-1.2002.9004c-.6397.4795-2.895 1.8496-4.7998 1.8496-1.0183 0-2.1245-.3893-3.043-.8273v4.2183c.9426.3046 1.9789.519 3.043.519 2.397 0 4.6631-1.0762 6-1.8633 1.3369.7871 3.603 1.8633 6 1.8633z"/><path d="m51.2432 30.2404-1.2002-.9004-1.2002.9004c-.2451.1837-.7295.4979-1.3381.8159.7239.2335 1.4851.4394 2.2844.597.7627.1504 1.3887.6914 1.6484 1.4243.2035.5759.1479 1.1988-.1235 1.7305 1.3003.6166 2.9775 1.1919 4.729 1.1919 1.0322 0 2.0371-.2025 2.957-.4926v-4.203c-.8999.4195-1.9733.7856-2.957.7856-1.8911 0-4.1094-1.3379-4.7998-1.8496z"/><path d="m51.2432 21.2404-1.2002-.9004-1.2002.9004c-.6396.4795-2.895 1.8496-4.7998 1.8496-1.561 0-3.3315-.9068-4.2952-1.5128.0042.0183.0142.0342.0178.0527.3711 1.8801.9967 3.5669 1.666 4.9843.8235.2326 1.708.3858 2.6114.3858 2.397 0 4.6631-1.0762 6-1.8633 1.3369.7871 3.603 1.8633 6 1.8633 1.0322 0 2.0371-.2025 2.957-.4926v-4.203c-.8999.4195-1.9733.7856-2.957.7856-1.8911 0-4.1094-1.3379-4.7998-1.8496z"/><path d="m14.043 25.1367c1.3369.7871 3.603 1.8633 6 1.8633s4.6631-1.0762 6-1.8633c1.3369.7871 3.603 1.8633 6 1.8633.2755 0 .5486-.0176.8195-.0439.2288-1.7451.8098-3.2244 1.5074-4.3831-.7489.2942-1.5642.517-2.3269.517-1.8911 0-4.1094-1.3379-4.7998-1.8496l-1.2002-.9004-1.2002.9004c-.6396.4795-2.895 1.8496-4.7998 1.8496-1.8911 0-4.1094-1.3379-4.7998-1.8496l-1.2002-.9004-1.2002.9004c-.6397.4795-2.895 1.8496-4.7998 1.8496-1.0183 0-2.1245-.3893-3.043-.8273v4.2183c.9426.3046 1.9789.519 3.043.519 2.3969 0 4.6631-1.0762 6-1.8633z"/><path d="m37.6075 22.0558s-4.6207 3.8692-1.7054 11.0573l-2.4055 2.4055c-2.6594-2.2178-5.1516-3.3284-5.1516-3.3284s1.1107 2.4921 3.3286 5.1514l-1.9531 1.9531c-3.0317-2.6233-5.8624-4.0115-5.8624-4.0115s1.3881 2.8308 4.0114 5.8625l-1.9265 1.9265c-3.4526-3.0773-6.6589-4.7831-6.6589-4.7831s1.7057 3.2064 4.783 6.6591l-2.8489 2.8489c-3.1953-3.4001-5.2622-6.2427-5.2622-6.2427-6.0842 10.1138-.3966 18.1461-.3966 18.1461 9.1047 1.1762 15.2928-3.808 15.2928-3.808s-3.9012-2.5625-7.2385-5.6829l2.8362-2.8362c3.6392 3.3672 7.1665 5.248 7.1665 5.248s-1.8809-3.5274-5.248-7.1666l1.8767-1.8766c3.2181 2.9189 6.3772 4.469 6.3772 4.469s-1.55-3.1591-4.469-6.3773l1.8876-1.8876c2.8461 2.5181 5.6744 3.7778 5.6744 3.7778s-1.2595-2.8283-3.7777-5.6745l2.3687-2.3687c7.1881 2.9152 11.0573-1.7055 11.0573-1.7055-3.5681-.7039-6.4895-2.2169-8.3562-3.3996-1.1829-1.8665-2.6959-4.7878-3.3999-8.356zm-17.128 30.1942h-1.2246v1.2246c0 .4141-.3359.75-.75.75s-.75-.3359-.75-.75v-1.2246h-1.2246c-.4141 0-.75-.3359-.75-.75s.3359-.75.75-.75h1.2246v-1.2246c0-.4141.3359-.75.75-.75s.75.3359.75.75v1.2246h1.2246c.4141 0 .75.3359.75.75s-.3359.75-.75.75z"/></svg>