<?xml version="1.0" encoding="utf-8"?>
<!-- Generator: Adobe Illustrator 17.1.0, SVG Export Plug-In . SVG Version: 6.00 Build 0)  -->
<svg version="1.2" baseProfile="tiny" xmlns="http://www.w3.org/2000/svg" xmlns:xlink="http://www.w3.org/1999/xlink" x="0px"
	 y="0px" width="64px" height="64px" viewBox="0 0 64 64" xml:space="preserve">
<g id="Box">
	<rect fill="none" width="64" height="64"/>
</g>
<g id="Icon">
	<g>
		<path d="M50.043,29.34c-0.4681,0.3512-1.2689,0.9743-2.2384,1.5397l1.9096,3.2736c0.0092-0.0054,0.0197-0.0112,0.0288-0.0166
			c3.6444,2.1456,6.6857,2.1816,9.257,1.3707v-4.2031c-0.8999,0.4195-1.9733,0.7856-2.957,0.7856
			C53.5814,32.09,51.1271,30.1533,50.043,29.34z"/>
		<path d="M14.2744,34.173l1.9459-3.3359c-0.9172-0.5416-1.69-1.1316-2.1773-1.4971c-1.0001,0.7504-3.4848,2.75-6,2.75
			c-1.0184,0-2.1246-0.3893-3.043-0.8273v4.2183C7.631,36.3313,10.67,36.2728,14.2744,34.173z"/>
		<path d="M50.043,20.34c-2.0471,1.5359-4.2923,3.0854-6.8268,2.6738l2.2501,3.8572c1.8461-0.302,3.5092-1.1058,4.5768-1.7343
			c1.3369,0.7871,3.603,1.8633,6,1.8633c1.0322,0,2.0372-0.2025,2.957-0.4926v-4.2031c-0.8999,0.4195-1.9733,0.7856-2.957,0.7856
			C53.5814,23.09,51.1271,21.1533,50.043,20.34z"/>
		<path d="M14.043,25.1367c1.0524,0.6196,2.6833,1.4104,4.4979,1.7223l2.2386-3.8376c-2.4972,0.3614-4.7182-1.1674-6.7365-2.6815
			c-1.0001,0.7504-3.4848,2.75-6,2.75c-1.0184,0-2.1246-0.3893-3.043-0.8273v4.2183C5.9427,26.7856,6.9789,27,8.043,27
			C10.4399,27,12.7061,25.9238,14.043,25.1367z"/>
		<path d="M14.043,16.1367c1.3369,0.7871,3.603,1.8633,6,1.8633c1.534,0,3.0111-0.4416,4.2287-0.9653l2.8568-4.8973
			c-0.436-0.3052-0.8071-0.5886-1.0854-0.7974c-1.0001,0.7504-3.4848,2.75-6,2.75c-2.4615,0-4.9159-1.9367-6-2.75
			c-1.0001,0.7504-3.4848,2.75-6,2.75c-1.0184,0-2.1246-0.3893-3.043-0.8273v4.2183C5.9427,17.7856,6.9789,18,8.043,18
			C10.4399,18,12.7061,16.9238,14.043,16.1367z"/>
		<path d="M56.043,14.09c-2.4615,0-4.9159-1.9367-6-2.75c-1.0001,0.7504-3.4848,2.75-6,2.75c-2.4615,0-4.9159-1.9367-6-2.75
			c-0.2762,0.2072-0.6738,0.5119-1.1458,0.8412l2.8004,4.8006C40.9372,17.5281,42.4582,18,44.043,18c2.397,0,4.6631-1.0762,6-1.8633
			c1.3369,0.7871,3.603,1.8633,6,1.8633c1.0322,0,2.0372-0.2025,2.957-0.4926v-4.2031C58.1001,13.7238,57.0267,14.09,56.043,14.09z"
			/>
		<path d="M33.7275,11.5107c-0.3584-0.6143-1.0161-0.9922-1.7275-0.9922s-1.3691,0.3779-1.7275,0.9922L7.2197,50.9922
			c-0.3608,0.6187-0.3633,1.3828-0.0068,2.0039C7.5698,53.6172,8.231,54,8.9473,54h46.1055c0.7163,0,1.3774-0.3828,1.7344-1.0039
			c0.3564-0.6211,0.354-1.3853-0.0068-2.0039L33.7275,11.5107z M12.4292,50L32,16.4878L51.5708,50H12.4292z"/>
		<path d="M30.2573,35.9815l-3.0037-5.2024C24.4148,32.4219,22.5,35.4842,22.5,39h6C28.5,37.7048,29.2116,36.5867,30.2573,35.9815z"
			/>
		<path d="M35.5,39h6c0-3.5158-1.9148-6.5781-4.7537-8.2209l-3.0037,5.2024C34.7884,36.5867,35.5,37.7048,35.5,39z"/>
		<path d="M32,42.5c-0.6378,0-1.2278-0.1834-1.7427-0.4815l-3.0036,5.2024C28.6513,48.0297,30.2691,48.5,32,48.5
			s3.3487-0.4703,4.7463-1.2791l-3.0036-5.2024C33.2278,42.3166,32.6378,42.5,32,42.5z"/>
		<circle cx="32" cy="39" r="2"/>
	</g>
</g>
</svg>
