<svg height="64" viewBox="0 0 64 64" width="64" xmlns="http://www.w3.org/2000/svg"><path d="m0 0h64v64h-64z" fill="none"/><path d="m50.043 29.34c-.4681.3512-1.2689.9743-2.2384 1.5397l1.9096 3.2736c.0092-.0054.0197-.0112.0288-.0166 3.6444 2.1456 6.6857 2.1816 9.257 1.3707v-4.2031c-.8999.4195-1.9733.7856-2.957.7856-2.4616.0001-4.9159-1.9366-6-2.7499z"/><path d="m14.2744 34.173 1.9459-3.3359c-.9172-.5416-1.69-1.1316-2.1773-1.4971-1.0001.7504-3.4848 2.75-6 2.75-1.0184 0-2.1246-.3893-3.043-.8273v4.2183c2.631.8503 5.67.7918 9.2744-1.308z"/><path d="m50.043 20.34c-2.0471 1.5359-4.2923 3.0854-6.8268 2.6738l2.2501 3.8572c1.8461-.302 3.5092-1.1058 4.5768-1.7343 1.3369.7871 3.603 1.8633 6 1.8633 1.0322 0 2.0372-.2025 2.957-.4926v-4.2031c-.8999.4195-1.9733.7856-2.957.7856-2.4617.0001-4.916-1.9366-6.0001-2.7499z"/><path d="m14.043 25.1367c1.0524.6196 2.6833 1.4104 4.4979 1.7223l2.2386-3.8376c-2.4972.3614-4.7182-1.1674-6.7365-2.6815-1.0001.7504-3.4848 2.75-6 2.75-1.0184 0-2.1246-.3893-3.043-.8273v4.2183c.9427.3047 1.9789.5191 3.043.5191 2.3969 0 4.6631-1.0762 6-1.8633z"/><path d="m14.043 16.1367c1.3369.7871 3.603 1.8633 6 1.8633 1.534 0 3.0111-.4416 4.2287-.9653l2.8568-4.8973c-.436-.3052-.8071-.5886-1.0854-.7974-1.0001.7504-3.4848 2.75-6 2.75-2.4615 0-4.9159-1.9367-6-2.75-1.0001.7504-3.4848 2.75-6 2.75-1.0184 0-2.1246-.3893-3.043-.8273v4.2183c.9426.3046 1.9788.519 3.0429.519 2.3969 0 4.6631-1.0762 6-1.8633z"/><path d="m56.043 14.09c-2.4615 0-4.9159-1.9367-6-2.75-1.0001.7504-3.4848 2.75-6 2.75-2.4615 0-4.9159-1.9367-6-2.75-.2762.2072-.6738.5119-1.1458.8412l2.8004 4.8006c1.2396.5463 2.7606 1.0182 4.3454 1.0182 2.397 0 4.6631-1.0762 6-1.8633 1.3369.7871 3.603 1.8633 6 1.8633 1.0322 0 2.0372-.2025 2.957-.4926v-4.2031c-.8999.4195-1.9733.7857-2.957.7857z"/><path d="m33.7275 11.5107c-.3584-.6143-1.0161-.9922-1.7275-.9922s-1.3691.3779-1.7275.9922l-23.0528 39.4815c-.3608.6187-.3633 1.3828-.0068 2.0039.3569.6211 1.0181 1.0039 1.7344 1.0039h46.1055c.7163 0 1.3774-.3828 1.7344-1.0039.3564-.6211.354-1.3853-.0068-2.0039zm-21.2983 38.4893 19.5708-33.5122 19.5708 33.5122z"/><path d="m30.2573 35.9815-3.0037-5.2024c-2.8388 1.6428-4.7536 4.7051-4.7536 8.2209h6c0-1.2952.7116-2.4133 1.7573-3.0185z"/><path d="m35.5 39h6c0-3.5158-1.9148-6.5781-4.7537-8.2209l-3.0037 5.2024c1.0458.6052 1.7574 1.7233 1.7574 3.0185z"/><path d="m32 42.5c-.6378 0-1.2278-.1834-1.7427-.4815l-3.0036 5.2024c1.3976.8088 3.0154 1.2791 4.7463 1.2791s3.3487-.4703 4.7463-1.2791l-3.0036-5.2024c-.5149.2981-1.1049.4815-1.7427.4815z"/><circle cx="32" cy="39" r="2"/></svg>