<svg height="64" viewBox="0 0 64 64" width="64" xmlns="http://www.w3.org/2000/svg"><path d="m0 0h64v64h-64z" fill="none"/><path d="m56.1305 27.8669 2.5173-8.3185c.1436-.4811-.092-1.0087-.5648-1.2109-.5085-.2175-1.0972.0185-1.3147.527l-4.126 9.6665c-.1636.2902-.3561.2032-.407.1714l2.754-13.2427c.105-.5045-.1921-1.0175-.6952-1.1664-.5299-.1569-1.0868.1455-1.2437.6755l-2.9968 10.1151c-.1304.3066-.3813.2416-.4354.2156l1.2982-13.2875c.0487-.5002-.2844-.9731-.7877-1.0803-.541-.1152-1.073.2299-1.1881.7709l-1.4733 6.9174c-1.6125-.9915-3.3024-1.4173-4.8687-1.3578l-1.0057-7.3063c-.0714-.5074-.5205-.8895-1.0421-.8632-.5521.0279-.9771.498-.9492 1.0502l.5973 13.5982c-.0256.3322-.2369.3347-.2964.3273l-2.9279-11.518c-.136-.4993-.6366-.8212-1.1536-.7227-.543.1035-.8992.6274-.7957 1.1703l1.595 8.3689c-2.5441 4.5439-6.4643 13.9963-9.9931 18.6331-3.9324 5.1666-21.6272 14-21.6272 14 .2458-.25 58 0 58 0v-20.6667c-2.8813-1.7098-4.979-3.5004-6.8695-5.4664z"/><path d="m26.074 37.1044c-1.8851-.0118-4.0868-1.3381-4.7742-1.848l-1.2002-.8999-1.2002.8999c-.6396.48-2.8955 1.8501-4.7998 1.8501-1.8906 0-4.1094-1.3379-4.7998-1.8501l-1.2002-.8999-1.2002.8999c-.6396.48-2.8955 1.8501-4.7998 1.8501-.359 0-.7296-.0591-1.0996-.1408v3.8712c.3622.0466.7283.0796 1.0996.0796 2.3965 0 4.6631-1.0762 6-1.8633 1.3369.7871 3.6035 1.8633 6 1.8633s4.6631-1.0762 6-1.8633c.7579.4463 1.8258.9737 3.0361 1.3563 1.223-1.0463 2.2497-2.0989 2.9383-3.3051z"/></svg>