<svg fill-rule="evenodd" height="22.58mm" preserveAspectRatio="xMidYMid" stroke-linejoin="round" stroke-width="28.222" viewBox="0 0 2258 2258" width="22.58mm" xmlns="http://www.w3.org/2000/svg" xmlns:xlink="http://www.w3.org/1999/xlink"><clipPath id="a"><path d="m0 0h2258v2258h-2258z"/></clipPath><g clip-path="url(#a)"><path d="m135 500h1966v1143h-1966z" fill="none"/><path d="m1769 822c-71-117-202-193-351-184h-4c-73-88-179-138-296-138-118 0-225 52-296 137-7 0-15-1-22-1-141 0-264 74-332 186-187 27-332 188-332 382 0 438 740 438 982 438 269 0 982 0 982-438 0-194-144-355-331-382zm-651 643c-269 0-798-29-798-261 0-138 136-241 275-191 7-161 189-249 321-158 15-98 100-173 202-173 182 0 295 233 137 417 3 7 16 7 33-5 20-14 138-112 139-275 119-6 210 85 215 194 139-50 275 53 275 191 0 235-529 261-799 261z"/></g></svg>