<svg height="64" viewBox="0 0 64 64" width="64" xmlns="http://www.w3.org/2000/svg"><path d="m0 0h64v64h-64z" fill="none"/><path d="m59.2142 17.7579c-1.9216-.444-7.3823-1.5261-8.0378-3.1479-.6562-1.6235 1.3105-5.1292 2.3459-6.7964.1315-.2119-.1144-.4571-.3267-.326-1.6918 1.0444-5.2632 3.0438-6.7933 2.3484-1.5589-.7084-2.7058-6.5507-3.1606-8.4106-.0583-.2384-.3933-.2432-.4578-.0064-.5134 1.8833-1.7744 7.8203-3.1331 8.417-1.3469.5916-5.1072-1.4172-6.8304-2.4128-.2154-.1245-.4499.1233-.3172.3337 1.0176 1.6137 2.996 5.0911 2.3736 6.8532-.3513.9944-2.3102 1.7513-4.2692 2.295 2.6398.2882 4.9963 1.5339 6.6931 3.4171.0331-.0007.0663-.0007.0995-.0012-.303-.7261-.4716-1.5223-.4716-2.3582 0-3.3851 2.7442-6.1292 6.1293-6.1292s6.1293 2.7441 6.1293 6.1292c0 2.6075-1.631 4.8288-3.9262 5.7145.4256.4536.8258.9314 1.1673 1.4553 2.3233.4263 3.3093 1.1802 6.8309 3.4384.218.1398.4685-.1161.3229-.3302-1.1619-1.7077-3.3671-5.2572-2.4056-6.8792.9812-1.6553 6.2048-2.7066 8.0416-3.1434.2431-.058.2397-.4041-.0039-.4603z"/><path d="m44.938 27.3695c-1.3272-2.7627-4.1438-4.6503-7.3898-4.6503-.4494 0-.8945.0365-1.3321.1085-1.4805-2.1921-3.9752-3.5879-6.7866-3.5879-2.8113 0-5.306 1.3958-6.7865 3.5879-.4376-.072-.8827-.1085-1.3321-.1085-3.246 0-6.0626 1.8876-7.3898 4.6503-4.3323.2251-7.7881 3.8206-7.7881 8.2079 0 9.4136 14.0826 9.4136 20.8503 9.4136 3.0784-.0061 1.8749-.006 4.9024.0001 6.7645 0 20.8403 0 20.8403-9.4137.0001-4.3873-3.4557-7.9828-7.788-8.2079zm-13.0216 14.6319s-4.9015-.0001-4.9024-.0001c-7.1763 0-17.8809-.3413-17.8809-6.4238 0-2.8824 2.3367-5.2191 5.2191-5.2191.6227 0 1.2115.1275 1.7652.3275.1343-2.7626 2.3977-4.9667 5.1936-4.9667 1.1097 0 2.1342.3519 2.9799.9424.3864-2.5012 2.5294-4.4218 5.1387-4.4218 3.03 0 5.1756 2.5149 5.3907 5.4542.0004.0054.0007.009.001.0143.1158 1.6049-.3751 3.3978-1.9063 5.1921.0873.1734.3831.1163.7014-.0995.5087-.3448 3.6443-2.9044 3.6858-7.0622.0828-.004.1622-.0194.246-.0194 2.7959 0 5.0593 2.204 5.1936 4.9667.5536-.2 1.1425-.3275 1.7652-.3275 2.8824 0 5.2191 2.3367 5.2191 5.2191 0 6.0813-10.6399 6.4238-17.8097 6.4238z"/><path d="m17.277 50.9618c.2508-1.2555-.5345-2.4083-.4368-4.173.0118-.2116-.0593-.2712-.1456-.3066s-.1797-.0433-.32.1156c-1.1695 1.3251-2.5353 1.5847-3.241 2.6647-.7395 1.132-.0287 2.6386 1.1417 3.1187 1.1705.4799 2.7367-.0936 3.0017-1.4194z"/><path d="m25.9638 50.9618c.2508-1.2555-.5345-2.4083-.4368-4.173.0117-.2116-.0593-.2712-.1456-.3066s-.1797-.0433-.3201.1156c-1.1694 1.3251-2.5353 1.5847-3.2409 2.6647-.7395 1.132-.0287 2.6386 1.1417 3.1187 1.1705.4799 2.7368-.0936 3.0017-1.4194z"/><path d="m19.0824 54.5697c-.0863-.0354-.1797-.0433-.32.1156-1.1694 1.3251-2.5353 1.5847-3.2409 2.6647-.7395 1.132-.0287 2.6386 1.1417 3.1187 1.1705.48 2.7368-.0935 3.0017-1.4194.2508-1.2555-.5345-2.4083-.4368-4.173.0117-.2116-.0593-.2712-.1457-.3066z"/><path d="m34.6506 50.9618c.2509-1.2555-.5345-2.4083-.4368-4.173.0118-.2116-.0593-.2712-.1456-.3066s-.1797-.0433-.32.1156c-1.1695 1.3251-2.5353 1.5847-3.241 2.6647-.7395 1.132-.0287 2.6386 1.1417 3.1187 1.1705.4799 2.7368-.0936 3.0017-1.4194z"/><path d="m27.7692 54.5697c-.0863-.0354-.1797-.0433-.32.1156-1.1695 1.3251-2.5353 1.5847-3.241 2.6647-.7395 1.132-.0287 2.6386 1.1417 3.1187 1.1705.48 2.7368-.0935 3.0016-1.4194.2509-1.2555-.5345-2.4083-.4368-4.173.0119-.2116-.0591-.2712-.1455-.3066z"/><path d="m42.8835 46.4822c-.0864-.0354-.1797-.0433-.3201.1156-1.1694 1.3251-2.5353 1.5847-3.2409 2.6647-.7395 1.132-.0287 2.6386 1.1417 3.1187 1.1705.48 2.7367-.0936 3.0016-1.4194.2508-1.2555-.5345-2.4083-.4368-4.173.0119-.2116-.0591-.2712-.1455-.3066z"/><path d="m36.5846 54.5697c-.0864-.0354-.1797-.0433-.3201.1156-1.1694 1.3251-2.5353 1.5847-3.2409 2.6647-.7395 1.132-.0287 2.6386 1.1417 3.1187s2.7367-.0935 3.0016-1.4194c.2508-1.2555-.5345-2.4083-.4368-4.173.0118-.2116-.0591-.2712-.1455-.3066z"/></svg>