<svg enable-background="new 0 0 64 64" height="64" viewBox="0 0 64 64" width="64" xmlns="http://www.w3.org/2000/svg"><path d="m0 0h64v64h-64z" fill="none"/><path d="m39.7 37h-10.2l4.9-13.5-13.8 19.4h10.2l-6.8 18.2zm-16 10.3c0-.2-.1-.3-.2-.3s-.3-.1-.4.1c-1.2 1.9-3 3.1-3.7 4.3-.7 1.3-.3 2.8 1.3 3.4s2.9-.4 3.1-1.8c.3-1.3-.4-3.4-.1-5.7zm-3.9-10.3c.2-1.4-.4-3.4-.2-5.7 0-.2-.1-.3-.2-.3s-.3-.1-.4.1c-1.2 1.9-3 3.1-3.7 4.3-.7 1.3-.3 2.8 1.3 3.4s3-.4 3.2-1.8zm-3.1 4.3c0-.2-.1-.3-.2-.3s-.3-.1-.4.1c-1.2 1.9-3 3.1-3.7 4.3-.7 1.3-.3 2.8 1.3 3.4s2.9-.4 3.1-1.8c.3-1.3-.4-3.4-.1-5.7zm-3 10c0-.2-.1-.3-.2-.3s-.3-.1-.4.1c-1.2 1.9-3 3.1-3.7 4.3-.7 1.3-.3 2.8 1.3 3.4s2.9-.4 3.1-1.8c.3-1.3-.4-3.4-.1-5.7zm27 0c0-.2-.1-.3-.2-.3s-.3-.1-.4.1c-1.2 1.9-3 3.1-3.7 4.3-.7 1.3-.3 2.8 1.3 3.4s2.9-.4 3.1-1.8c.3-1.3-.4-3.4-.1-5.7zm6-20c0-.2-.1-.3-.2-.3s-.3-.1-.4.1c-1.2 1.9-3 3.1-3.7 4.3-.7 1.3-.3 2.8 1.3 3.4s2.9-.4 3.1-1.8c.3-1.3-.4-3.4-.1-5.7zm1.7-18.9c-1.3-2.8-4.1-4.7-7.4-4.7-.4 0-.9 0-1.3.1-1.5-2.2-4-3.6-6.8-3.6s-5.3 1.4-6.8 3.6c-.4-.1-.9-.1-1.3-.1-3.2 0-6.1 1.9-7.4 4.7-4.3.2-7.8 3.8-7.8 8.2 0 8.1 10.3 9.2 17.6 9.4l2.1-3c-7.1-.1-16.7-.7-16.7-6.4 0-2.9 2.3-5.2 5.2-5.2.6 0 1.2.1 1.8.3.1-2.8 2.4-5 5.2-5 1.1 0 2.1.4 3 .9.4-2.5 2.5-4.4 5.1-4.4 3 0 5.2 2.5 5.4 5.5.1 1.6-.4 3.4-1.9 5.2.1.2.4.1.7-.1.5-.3 3.6-2.9 3.7-7.1h.2c2.8 0 5.1 2.2 5.2 5 .6-.2 1.1-.3 1.8-.3 2.9 0 5.2 2.3 5.2 5.2 0 6-10.5 6.4-17.7 6.4l-1.1 3h.9c6.8 0 20.8 0 20.8-9.4.1-4.4-3.4-8-7.7-8.2zm-4.7 28.9c0-.2-.1-.3-.2-.3s-.3-.1-.4.1c-1.2 1.9-3 3.1-3.7 4.3-.7 1.3-.3 2.8 1.3 3.4s2.9-.4 3.1-1.8c.3-1.3-.4-3.4-.1-5.7z"/></svg>