<svg height="64" viewBox="0 0 64 64" width="64" xmlns="http://www.w3.org/2000/svg"><path d="m0 0h64v64h-64z" fill="none"/><path d="m62.674 15.8266c-1.6264-.3758-6.248-1.2916-6.8029-2.6642-.5554-1.374 1.1092-4.3411 1.9855-5.7522.1113-.1793-.0968-.3868-.2764-.2759-1.4318.8839-4.4545 2.5762-5.7496 1.9876-1.3193-.5995-2.29-5.5442-2.675-7.1183-.0494-.2018-.3329-.2059-.3875-.0054-.4345 1.5939-1.5018 6.6187-2.6517 7.1237-1.14.5007-4.3225-1.1995-5.7809-2.0421-.1823-.1053-.3808.1044-.2685.2824.8613 1.3658 2.5357 4.3088 2.0089 5.8002-.5055 1.4311-4.9452 2.285-6.629 2.6492-.2139.0463-.2099.3486.0048.3908 1.6431.3235 5.9705 1.1145 6.6243 2.6741.6215 1.4827-1.1062 4.3223-2.0491 5.7606-.1221.1863.1029.4012.2834.2708 1.3707-.9902 4.607-2.6138 5.8062-1.9908 1.3287.6904 2.4288 4.8677 2.7008 6.4909.0365.2178.3455.2209.3937.0054.376-1.6829 1.3897-5.9435 2.6197-6.4963 1.2493-.5615 4.3732 1.1441 5.8032 2.0612.1845.1183.3965-.0983.2733-.2795-.9833-1.4453-2.8497-4.4495-2.0359-5.8222.8304-1.4009 5.2515-2.2908 6.806-2.6605.2056-.049.2028-.3419-.0033-.3895zm-13.674 5.3609c-2.865 0-5.1875-2.3226-5.1875-5.1875 0-2.865 2.3225-5.1875 5.1875-5.1875s5.1875 2.3225 5.1875 5.1875c0 2.8649-2.3225 5.1875-5.1875 5.1875z"/><path d="m37.7529 42.0443c-1.5615-2.559-4.4375-4.2209-7.6948-4.0402l-.083.0039c-1.6055-1.8952-3.9326-3.008-6.4751-3.008-2.5962 0-4.9316 1.1439-6.4927 2.9924-.1631-.0097-.3276-.0146-.4922-.0146-3.0732 0-5.7754 1.6202-7.2686 4.0664-4.0922.59-7.2465 4.115-7.2465 8.3613 0 9.5945 16.1821 9.5945 21.5 9.5945 5.8804 0 21.5 0 21.5-9.5945 0-4.2472-3.1548-7.7723-7.2471-8.3612zm-14.2529 14.0747c-5.902 0-17.5-.6176-17.5-5.7133 0-3.0107 2.9921-5.2774 6.022-4.1901.172-3.5131 4.1539-5.4542 7.0474-3.4471.3331-2.1425 2.1808-3.7877 4.4307-3.7877 3.9671 0 6.4444 5.105 2.9852 9.1317.0753.1486.3585.151.7335-.1129.4323-.3042 3.0126-2.4596 3.0491-6.0202 2.5895-.1349 4.5936 1.8539 4.7102 4.2362 3.0326-1.0882 6.0219 1.1816 6.0219 4.1901 0 5.1621-11.5876 5.7133-17.5 5.7133z"/></svg>