<svg viewBox="0 0 64 64" xmlns="http://www.w3.org/2000/svg"><path d="m0 0h64v64h-64z" fill="none"/><path d="m62.0306 32.2538c-3.5876-.8289-13.7815-2.8489-15.0054-5.8765-1.2251-3.0309 2.4466-9.5753 4.3795-12.6879.2455-.3957-.2135-.8534-.6099-.6088-3.1582 1.9497-9.8255 5.6824-12.6819 4.3841-2.9103-1.3223-5.0514-12.2291-5.9004-15.7011-.109-.4449-.7343-.4539-.8547-.0119-.9584 3.5157-3.3126 14.5991-5.849 15.713-2.5145 1.1044-9.5343-2.6456-12.7514-4.5043-.4021-.2323-.8397.2303-.592.6229 1.8996 3.0126 5.5931 9.5043 4.4311 12.794-1.115 3.1564-10.9078 5.0401-14.6221 5.8434-.4716.1019-.463.7689.0106.862 3.6243.7136 13.1694 2.4583 14.6115 5.8984 1.3709 3.2707-2.44 9.5341-4.5198 12.7064-.2693.4109.227.8849.6251.5971 3.0234-2.1839 10.1618-5.7654 12.807-4.391 2.9308 1.5226 5.3573 10.7367 5.9573 14.3172.0805.4802.7621.487.8684.0117.8294-3.712 3.0653-13.1098 5.7784-14.3289 2.7554-1.2387 9.6459 2.5236 12.8004 4.5463.407.2612.8746-.2168.6026-.6165-2.1689-3.188-6.2857-9.8142-4.4907-12.8423 1.8316-3.09 11.5834-5.0527 15.0123-5.8681.4539-.1082.4477-.7542-.0069-.8592zm-30.1613 11.8247c-6.3194 0-11.4423-5.1231-11.4423-11.4423 0-6.3194 5.1228-11.4423 11.4423-11.4423s11.4423 5.1228 11.4423 11.4423c0 6.3193-5.1229 11.4423-11.4423 11.4423z"/></svg>