<?xml version="1.0" encoding="utf-8"?>
<!-- Generator: Adobe Illustrator 18.1.0, SVG Export Plug-In . SVG Version: 6.00 Build 0)  -->
<svg version="1.2" baseProfile="tiny" xmlns="http://www.w3.org/2000/svg" xmlns:xlink="http://www.w3.org/1999/xlink" x="0px"
	 y="0px" width="64px" height="64px" viewBox="0 0 64 64" xml:space="preserve">
<g id="Box">
	<rect fill="none" width="64" height="64"/>
</g>
<g id="Icon">
	<g>
		<path d="M48,31.9999c-8.8366,0-16,7.1627-16,16.0001c0,8.8372,7.1634,16,16,16c8.8372,0,16-7.1628,16-16
			C64,39.1627,56.8372,31.9999,48,31.9999z M48,60.1588c-6.7044,0-12.1588-5.4544-12.1588-12.1588
			c0-6.7044,5.4544-12.1588,12.1588-12.1588S60.1588,41.2956,60.1588,48C60.1588,54.7043,54.7044,60.1588,48,60.1588z"/>
		<path d="M55.6055,47.8398h0.0241l-7.1383-0.7064l-0.5579-7.8053c-0.0625-0.5538-0.4487-0.9577-1.0001-0.9577
			s-0.9584,0.3587-0.999,0.9577l-0.6677,9.1878c0,0.8604,0.6579,1.5677,1.4974,1.6533c0.0498,0.0283,8.8414-0.6276,8.8414-0.6276
			c0.5779-0.056,1.0001-0.2997,1.0001-0.8513C56.6055,48.1396,56.2205,47.8815,55.6055,47.8398z"/>
		<path d="M16.0428,18.9769L12,23.5V37H4v10.4042c1.5981,0.0364,3.5347-0.9662,4.1572-1.3549l2.0029-1.2881l2.0195,1.2988
			c0.5928,0.3711,2.5078,1.3574,4.0488,1.3574c0.5444,0,1.1365-0.1273,1.7025-0.3047v-5.0862l25.7941-14.8922l-2.6896-4.6586
			l-4.2769,2.4693V5.0314l2.7802-1.7867c0.7924-0.5125,1.041-1.5579,0.564-2.3722c-0.4742-0.8097-1.4994-1.1063-2.3326-0.6748
			L0.5242,19.5308c-0.3767,0.1953-0.5649,0.628-0.4509,1.0367l1.5768,5.6534C1.8125,26.803,2.4923,27.061,3,26.7333l13.0548-8.3763
			C16.0978,18.3893,16.3358,18.6299,16.0428,18.9769z M17.931,17.1312L34.069,6.7599v19.738L17.931,35.8151V17.1312z"/>
		<path d="M28.3666,49.4177c-2.4714,0-5.1078-1.6603-5.1316-1.6755l-0.9373-0.6028l-0.9372,0.6028
			c-0.0263,0.017-2.6755,1.6755-5.1316,1.6755c-2.4714,0-5.1078-1.6603-5.1316-1.6755l-0.9372-0.6028L9.223,47.7421
			c-0.0262,0.017-2.6754,1.6755-5.1316,1.6755c-0.0304,0-0.0609-0.0031-0.0914-0.0037v3.3641
			c0.0305,0.0007,0.0608,0.0034,0.0914,0.0034c2.4367,0,4.8047-1.0329,6.0688-1.6924c1.264,0.6595,3.6321,1.6924,6.0688,1.6924
			s4.8047-1.0329,6.0688-1.6924c1.2641,0.6595,3.6321,1.6924,6.0688,1.6924c0.4182,0,0.8315-0.0389,1.2404-0.0927
			c-0.2729-1.0732-0.4563-2.1797-0.5378-3.3172C28.8348,49.3987,28.6,49.4177,28.3666,49.4177z"/>
	</g>
</g>
</svg>
