<svg height="64" viewBox="0 0 64 64" width="64" xmlns="http://www.w3.org/2000/svg"><path d="m0 0h64v64h-64z" fill="none"/><path d="m9.7608 63h17.9821l2.9332-21h-5.5966z"/><path d="m33.3267 42 2.9341 21h17.9821l-15.3219-21z"/><path d="m2 32v6h5v13h5.8271l5.1729-5.5858v-5.9088l-5.7349-1.1414c-.3172-.1018-.2708-.3079-.2499-.3641h39.9696c.0209.0562.0673.2623-.2499.3641l-5.7349 1.1414v5.9088l5.1728 5.5858h5.8272v-13h5v-6z"/><path d="m36.3174 23.1992-1.5587.0002-.752 6.8006h1.9492l.8758-4.337-.3825-2.3412c-.0127-.0264-.0928-.1128-.1318-.1226z"/><path d="m27.2295 23.8955-1.3182 2.0967 1.161 4.0078h1.9277l-1.3926-6.5389c-.1636.1295-.29.2871-.3779.4344z"/><path d="m22.1738 17.6602s.2689 2.6423 1.6116 4.7949l-1.4543 2.4567c-.1962.2653-.2599.6058-.1731.9241l.843 4.1641h1.9385l-.2803-4.2718 1.5398-2.4479c.3886-.6509 1.091-1.2803 2.1492-1.2803h7.9767c.6818 0 1.2217.61 1.3093 1.1283l1.122 6.8717h2.2438l-1.0053-10.2709c1.4433-3.5653 2.2906-6.9598 2.2906-6.9598s2.0103 0 3.0154 0 2.3333-1.0769.718-2.118c-1.3645-.8793-3.6188-1.705-4.2883-1.941.2926-.3037 1.3259-1.4622 2.2087-3.5198.1631-.3809-.0127-.8218-.3936-.9854-.3799-.1626-.8223.0127-.9854.3936-.8867 2.0684-1.9385 3.1006-1.9482 3.1108-.0607.0583-.1014.1282-.1382.199-.7566-.6784-1.3217-1.4137-1.7409-2.1376.5593-.4527 2.245-1.903 3.1801-3.67.1934-.3662.0537-.8198-.3125-1.0137s-.8193-.0537-1.0137.3125c-.6786 1.2831-1.8789 2.4173-2.5195 2.9702-.5357-1.4365-.5634-2.5722-.5684-2.6584-.0215-.4136-.4111-.7324-.7852-.7104-.4141.02-.7334.3716-.7129.7852.0081.1662.092 3.5995 2.7185 6.4947-.5638-.1256-1.1999-.2382-1.7195-.246-.4575-.0068-.8209.067-.9544.2833-.5919.9584 2.2274 2.1817 2.2274 2.1817.0278 2.0548-2.1808 3.8087-3.1851 4.5-4.3875 0-11.5662 0-12.1049 0-.7797 0-1.4251-1.6503-1.9804-1.9196-.4266-.2068-.9142-.0281-.9591.6899s-.0232 2.8579 2.1306 3.8899z"/></svg>