<?xml version="1.0" encoding="utf-8"?>
<!-- Generator: Adobe Illustrator 19.1.0, SVG Export Plug-In . SVG Version: 6.00 Build 0)  -->
<svg version="1.2" baseProfile="tiny" xmlns="http://www.w3.org/2000/svg" xmlns:xlink="http://www.w3.org/1999/xlink" x="0px"
	 y="0px" width="64px" height="64px" viewBox="0 0 64 64" xml:space="preserve">
<g id="_x36_4px_Box">
	<rect fill="none" width="64" height="64"/>
</g>
<g id="Icon">
	<g>
		<path d="M30.4102,17.9756l11.6514,12.7476C43.3848,32.1699,45.2676,33,47.2285,33H51v-4h-3.7715
			c-0.8398,0-1.6475-0.356-2.2139-0.9756L33.3633,15.2769C32.04,13.8301,30.1572,13,28.1963,13H16v4h12.1963
			C29.0361,17,29.8438,17.356,30.4102,17.9756z"/>
		<path d="M9.4292,26.0576C10.8711,26.8223,13.5386,28,16.2861,28c1.0758,0,2.1357-0.1816,3.1156-0.447
			c-0.7078-0.9283-1.3809-2.2569-1.6963-3.6347c-0.4692,0.0928-0.9473,0.1517-1.4193,0.1517c-2.77,0-5.7334-1.9053-5.7598-1.9219
			l-1.0957-0.7139l-1.0952,0.7109C8.3062,22.1647,5.3418,24.07,2.5718,24.07c-0.5253,0-1.0543-0.0787-1.5718-0.19v3.9926
			C1.5162,27.949,2.0414,28,2.5718,28C5.3193,28,7.9868,26.8223,9.4292,26.0576z"/>
		<path d="M61.4282,39.07c-2.77,0-5.7344-1.9053-5.7603-1.9219l-1.0957-0.7139l-1.0952,0.7109
			c-0.0298,0.0195-2.9932,1.9248-5.7632,1.9248c-0.8992,0-1.8174-0.202-2.6505-0.4738l0.1827,0.1826
			c0.9824,0.9824,1.5234,2.2881,1.5234,3.6772c0,0.1676-0.0327,0.3287-0.0482,0.4934C47.0497,42.9812,47.3811,43,47.7139,43
			c2.7476,0,5.415-1.1777,6.8569-1.9424C56.0132,41.8223,58.6807,43,61.4282,43c0.5304,0,1.0555-0.051,1.5718-0.1274v-3.9937
			C62.4818,38.9908,61.9526,39.07,61.4282,39.07z"/>
		<path d="M34.5459,48.8613L22.8945,36.1143C21.666,34.7705,19.917,34,18.0967,34H1v29h62V50H37.1289
			C36.1484,50,35.207,49.585,34.5459,48.8613z"/>
		<path d="M24.4991,33.8748c0.5779,0.1755,1.2723,0.0529,1.9831-0.3211c0.0865,2.2598,0.9489,4.0527,2.0971,4.4012
			c0.5779,0.1755,1.2723,0.0529,1.9831-0.3211c0.0865,2.2598,0.9489,4.0527,2.097,4.4012c0.5779,0.1755,1.2723,0.0529,1.9831-0.3211
			c0.0865,2.2598,0.9489,4.0527,2.097,4.4013c0.8972,0.2723,2.0731-0.1641,3.1581-1.1706c1.1664,0.7853,2.7614,0.6645,3.7931-0.3672
			c1.1716-1.1716,1.1716-3.071,0-4.2426l-2.2482-2.2482c-0.5482,0.6744-1.0782,1.507-1.5238,2.4297
			c-0.1934,0.0853-0.4706-0.0287-0.3642-0.4191c0.0489-0.1792,0.4508-1.5729,0.7755-3.1232l-0.0056-0.0056
			c0.3863-1.8445,0.6626-3.9113,0.0984-4.4263c-1.0538-0.9623-3.2192,1.0505-4.5898,3.8884
			c-0.1934,0.0854-0.4707-0.0286-0.3642-0.4191c0.1071-0.3925,1.9121-6.6014,0.8738-7.5494
			c-1.0539-0.9623-3.2192,1.0505-4.5898,3.8884c-0.1934,0.0853-0.4707-0.0286-0.3642-0.4191
			c0.107-0.3925,1.9121-6.6014,0.8738-7.5494c-1.0539-0.9623-3.2192,1.0505-4.5898,3.8884
			c-0.1934,0.0853-0.4706-0.0287-0.3642-0.4191c0.1071-0.3925,1.9122-6.6014,0.8739-7.5494
			c-0.7237-0.6608-1.9725,0.0833-3.1281,1.5312c-1.4438-0.9784-3.9013-1.7758-4.8926-0.7845
			c-1.1716,1.1716,0.1542,4.3969,1.3258,5.5685l1.0162,1.0162C22.0595,30.7054,23.0524,33.4356,24.4991,33.8748z"/>
	</g>
</g>
</svg>
