<svg height="64" viewBox="0 0 64 64" width="64" xmlns="http://www.w3.org/2000/svg"><path d="m0 0h64v64h-64z" fill="none"/><path d="m51 56h-5v-7.9c0-1.7-1.3-3-3-3h-4.8l-7.2-11 11.8-16h.1c3.3 0 6-2.7 6-6s-2.7-6-6-6c-3.2 0-5.8 2.5-6 5.7-.3 0-.5-.4-.5-1.1-.1-1.4.4-2.8 1.1-3.9l-21.5-3c-1.1-.2-2.2.5-2.5 1.6v.2c-1.3-.6-2.8-.5-3.9.2-.6.4-1.1.9-1.4 1.5s-.5 1.3-.4 2c.1 1.1.4 2 1 3 .3.4.8.7 1.3.5.6-.2 1-.8.9-1.4l-.1-.2c-.1-.5-.3-1.3-.2-1.9.1-.4.3-.5.6-.7.3-.1.6-.1.8 0l3.8 2.7c.2.2.3.4.3.7s-.1.6-.4.8c-.5.3-1.3.4-1.8.5h-.3c-.5.1-.9.4-1 .9-.1.6.3 1.3.9 1.4 1.2.2 2 .2 3.2-.1.6-.2 1.3-.6 1.7-1.1.5-.5.8-1.2.9-1.8.3-1.1 0-2.4-.8-3.4l18.2 5.3-10.4 14c1.2.5 2.2 1.2 3 2.3.4.7.5 1.1.3 1.2-1.1-1.2-2.7-2-4.5-2-3.3 0-6 2.7-6 6 0 .9.2 1.7.5 2.5l7.4 17.5h-6.1c-.6 0-1 .4-1 1v3h32v-3c0-.6-.4-1-1-1z"/></svg>