<svg enable-background="new 0 0 64 64" height="64" viewBox="0 0 64 64" width="64" xmlns="http://www.w3.org/2000/svg"><path d="m0 0h64v64h-64z" fill="none"/><path d="m62 20.6-5.6-5.6h-15.1l-17.7-13.8c-.3-.3-.8-.3-1.2 0l-17.7 13.8h-.7c-1.7 0-3 1.3-3 3v5c0 1.7 1.3 3 3 3h4c1.7 0 3-1.3 3-3h8v40h2v-4.7l3.1 4.7h2.9v-34.3c.4-.2 1.5-1.3 1.8-1.7.8-.7 1.2-1.7 1.2-2.7v-7.3h4.7l-4 2.6.7 3.4h22.6v11.1l-1.2 1.5.7 2.9h.9c0 .4.1.7.3 1 .3.3.6.6.8.9s.2.7-.1 1c-.3.2-.8.2-1.1-.1s-.5-.6-.8-1c-.1-.2-.4-.1-.4.1 0 .4 0 1.2.3 1.7.7 1.2 2.3 1 3 .4.9-.8.8-1.8.4-2.4-.3-.5-.7-.9-1-1.3-.1-.1-.1-.2-.1-.4h.9l.7-2.9-1.3-1.4v-11.1h5c.6 0 1.1-.3 1.3-.9.2-.5.1-1.1-.3-1.5zm-39-13.8 1.8 8.2h-3.5zm-4 14.2h-5.7l5.7-3.8zm-8-.9v-3.1h4.7zm8.2-5.1h-11.2-.1l13.5-10.5zm4.9 21h-3.1v-4.7zm0 9h-3.1v-4.7zm-3.1 4.3 3.1 4.7h-3.1zm4 11.4-3.1-4.7h3.1zm0-9-3.1-4.7h3.1zm0-9-3.1-4.7h3.1zm0-9-3.1-4.7h3.1zm2-10.7c0 .6-.4 1-1 1h-3c-.6 0-1-.4-1-1v-4c0-.6.4-1 1-1h3c.6 0 1 .4 1 1zm10-2h-4.7l4.7-3.1zm-10.2-6-2.2-10.5 13.5 10.5zm12.2 2h4.7l-4.7 3.1zm8 4h-5.7l5.7-3.8zm2-4h4.7l-4.7 3.1zm2.3 4 5-3.3 3.3 3.3z"/></svg>