<svg height="64" viewBox="0 0 64 64" width="64" xmlns="http://www.w3.org/2000/svg"><path d="m0 0h64v64h-64z" fill="none"/><path d="m56.3988 26-.6012-5h-5.7143l-.5416 5h-7.1429l-.6012-5h-5.7143l-.5416 5h-7.1429l-.6012-5h-5.7143l-.5416 5h-7.1429l-.6012-5h-5.7143l-.5416 5h-5.5417v17.2827c.9689.3801 1.8571.5875 2.5718.5875 2.3739 0 4.8292-1.7415 6.8608-3.0596 1.9729 1.2842 4.4824 3.0596 6.8535 3.0596 2.3865 0 4.8634-1.7651 6.8569-3.0742 1.9969 1.3113 4.4701 3.0742 6.8569 3.0742 2.3701 0 4.8186-1.7352 6.8608-3.0596 1.9871 1.294 4.4866 3.0596 6.853 3.0596 2.3701 0 4.8186-1.7352 6.8608-3.0596 1.9721 1.2842 4.4824 3.0596 6.8535 3.0596.7102 0 1.5989-.2082 2.5718-.5903v-17.2799z"/><path d="m52.5723 43.4343c-1.9217 1.2474-4.3122 2.6357-6.8584 2.6357-2.531 0-4.9498-1.3942-6.8555-2.6357-1.9217 1.2473-4.3122 2.6357-6.8584 2.6357-2.5021 0-4.9015-1.3582-6.8569-2.6426-1.9785 1.2996-4.3679 2.6426-6.8569 2.6426-2.531 0-4.9498-1.3942-6.8555-2.6357-1.9293 1.2523-4.3172 2.6357-6.8589 2.6357-.8727 0-1.7592-.1942-2.5718-.4539v4.0706c.825.1889 1.6932.3133 2.5718.3133 2.7476 0 5.415-1.1777 6.8574-1.9424 1.4419.7647 4.1094 1.9424 6.8569 1.9424 2.7471 0 5.415-1.1777 6.8569-1.9424 1.442.7647 4.1094 1.9424 6.857 1.9424s5.415-1.1777 6.8569-1.9424c1.4419.7647 4.1099 1.9424 6.857 1.9424 2.7476 0 5.415-1.1777 6.8569-1.9424 1.4424.7647 4.1099 1.9424 6.8574 1.9424.8786 0 1.7468-.1244 2.5718-.3134v-4.0726c-.8141.2608-1.7014.456-2.5718.456-2.531 0-4.9502-1.3942-6.8559-2.6357z"/></svg>