<?xml version="1.0" encoding="utf-8"?>
<!-- Generator: Adobe Illustrator 19.1.0, SVG Export Plug-In . SVG Version: 6.00 Build 0)  -->
<svg version="1.2" baseProfile="tiny" xmlns="http://www.w3.org/2000/svg" xmlns:xlink="http://www.w3.org/1999/xlink" x="0px"
	 y="0px" width="64px" height="64px" viewBox="0 0 64 64" xml:space="preserve">
<g id="_x36_4px_Box">
	<rect fill="none" width="64" height="64"/>
</g>
<g id="Icon">
	<g>
		<path d="M56.3988,26l-0.6012-5h-5.7143l-0.5416,5h-7.1429l-0.6012-5h-5.7143l-0.5416,5h-7.1429l-0.6012-5h-5.7143l-0.5416,5
			h-7.1429l-0.6012-5H8.0833l-0.5416,5H2v17.2827c0.9689,0.3801,1.8571,0.5875,2.5718,0.5875c2.3739,0,4.8292-1.7415,6.8608-3.0596
			c1.9729,1.2842,4.4824,3.0596,6.8535,3.0596c2.3865,0,4.8634-1.7651,6.8569-3.0742c1.9969,1.3113,4.4701,3.0742,6.8569,3.0742
			c2.3701,0,4.8186-1.7352,6.8608-3.0596c1.9871,1.294,4.4866,3.0596,6.853,3.0596c2.3701,0,4.8186-1.7352,6.8608-3.0596
			c1.9721,1.2842,4.4824,3.0596,6.8535,3.0596c0.7102,0,1.5989-0.2082,2.5718-0.5903V26H56.3988z"/>
		<path d="M52.5723,43.4343c-1.9217,1.2474-4.3122,2.6357-6.8584,2.6357c-2.531,0-4.9498-1.3942-6.8555-2.6357
			C36.9367,44.6816,34.5462,46.07,32,46.07c-2.5021,0-4.9015-1.3582-6.8569-2.6426c-1.9785,1.2996-4.3679,2.6426-6.8569,2.6426
			c-2.531,0-4.9498-1.3942-6.8555-2.6357C9.5014,44.6866,7.1135,46.07,4.5718,46.07c-0.8727,0-1.7592-0.1942-2.5718-0.4539v4.0706
			C2.825,49.8756,3.6932,50,4.5718,50c2.7476,0,5.415-1.1777,6.8574-1.9424C12.8711,48.8223,15.5386,50,18.2861,50
			c2.7471,0,5.415-1.1777,6.8569-1.9424C26.585,48.8223,29.2524,50,32,50s5.415-1.1777,6.8569-1.9424
			C40.2988,48.8223,42.9668,50,45.7139,50c2.7476,0,5.415-1.1777,6.8569-1.9424C54.0132,48.8223,56.6807,50,59.4282,50
			c0.8786,0,1.7468-0.1244,2.5718-0.3134V45.614c-0.8141,0.2608-1.7014,0.456-2.5718,0.456
			C56.8972,46.07,54.478,44.6758,52.5723,43.4343z"/>
	</g>
</g>
</svg>
