<svg height="64" viewBox="0 0 64 64" width="64" xmlns="http://www.w3.org/2000/svg"><path d="m0 0h64v64h-64z" fill="none"/><path d="m53 6h-42c-2.7614 0-5 2.2386-5 5v42c0 2.7614 2.2386 5 5 5h42c2.7614 0 5-2.2386 5-5v-42c0-2.7614-2.2386-5-5-5zm3 47c0 1.6543-1.3457 3-3 3h-42c-1.6543 0-3-1.3457-3-3v-42c0-1.6543 1.3457-3 3-3h42c1.6543 0 3 1.3457 3 3z"/><path d="m53 10h-42c-.5513 0-1 .4487-1 1v42c0 .5513.4487 1 1 1h42c.5513 0 1-.4487 1-1v-42c0-.5513-.4487-1-1-1zm-38 2c1.65 0 3 1.35 3 3s-1.35 3-3 3-3-1.35-3-3 1.35-3 3-3zm0 40c-1.65 0-3-1.35-3-3s1.35-3 3-3 3 1.35 3 3-1.35 3-3 3zm17-3c-9.3739 0-17-7.6261-17-17s7.6261-17 17-17 17 7.6261 17 17-7.6261 17-17 17zm17 3c-1.65 0-3-1.35-3-3s1.35-3 3-3 3 1.35 3 3-1.35 3-3 3zm0-34c-1.65 0-3-1.35-3-3s1.35-3 3-3 3 1.35 3 3-1.35 3-3 3z"/><path d="m27.658 33.36-1.2269-.731c-1.0132.6971-1.3865 1.275-1.3865 2.1247 0 .9011.7822 1.4963 2.0264 1.4963 1.1024 0 1.8668-.561 1.8668-1.3093-.0001-.561-.2666-.9859-1.2798-1.5807z"/><path d="m32 19c-7.1681 0-13 5.8319-13 13s5.8319 13 13 13 13-5.8319 13-13-5.8319-13-13-13zm-5.0931 19.2c-2.6138 0-4.1069-1.2697-4.1069-2.9803 0-1.233.6532-2.2264 2.3893-3.2199l-.5787-.4231c-.9894-.736-1.3255-1.4164-1.3255-2.5206 0-1.6372 1.6989-3.2561 3.7893-3.2561 2.3336 0 3.6776 1.2509 3.6776 2.9064 0 1.3615-.6159 2.2081-2.1281 3.0726l.7095.4047c1.4.7911 1.8665 1.5822 1.8665 2.778.0001 1.8768-1.7733 3.2383-4.293 3.2383zm9.9718 0c-2.2535 0-4.0787-1.3982-4.0787-6.0162 0-4.4891 1.9929-6.3838 4.2836-6.3838 2.2912 0 4.1164 1.6372 4.1164 6.108 0 4.3602-2.0859 6.292-4.3213 6.292z"/><path d="m36.9911 27.8c-.9755 0-1.756 1.1375-1.756 4.1649 0 3.2199.7092 4.2352 1.7383 4.2352 1.0463 0 1.7914-1.2252 1.7914-4.1125 0-3.2205-.7091-4.2876-1.7737-4.2876z"/><path d="m26.2888 30.5209 1.0846.714c.9245-.6462 1.3333-1.275 1.3333-2.0738 0-.8501-.6044-1.4111-1.6712-1.4111-.96 0-1.5998.5779-1.5998 1.3941 0 .6627.2132.9519.8531 1.3768z"/></svg>