<svg height="64" viewBox="0 0 64 64" width="64" xmlns="http://www.w3.org/2000/svg"><path d="m0 0h64v64h-64z" fill="none"/><path d="m2 60h19.0603l3.4322-57h-3.9417z"/><path d="m48.6961 45.3974-3.0175-.326s-2.5584-2.8169-2.7454-3.0688c-.1661-.2238-.3434-.2026-.4337-.1728.0455.1082.0878.2086.1404.3336 5.059 11.9219 13.7933 17.4636 20.0493 17.7945l-16.2484-32.6138-9.7562-5.1831-6.2364-19.161h-3.9407l3.4323 57h17.4319c-4.1178-4.4949-6.777-9.7726-8.2642-13.0157l-2.8394 3.7707c-.4958.6583-1.3885.873-2.1291.5122-.7413-.3606-1.1226-1.1967-.9091-1.9921l3.1765-11.8797c.1359-.5092.4976-.9277.9814-1.1362.4838-.2086 1.0364-.1842 1.4999.0665l10.8182 5.8467c.3512.1895.6132.4871.7623.8328.1585.3676.1892.7903.062 1.1958-.2461.7862-1.0152 1.2879-1.8341 1.1964z"/></svg>