<?xml version="1.0" encoding="utf-8"?>
<!-- Generator: Adobe Illustrator 17.1.0, SVG Export Plug-In . SVG Version: 6.00 Build 0)  -->
<svg version="1.2" baseProfile="tiny" xmlns="http://www.w3.org/2000/svg" xmlns:xlink="http://www.w3.org/1999/xlink" x="0px"
	 y="0px" width="64px" height="64px" viewBox="0 0 64 64" xml:space="preserve">
<g id="_x36_4px_Boxes">
	<rect fill="none" width="64" height="64"/>
</g>
<g id="Production">
	<g>
		<polygon points="2,60 21.0603,60 24.4925,3 20.5508,3 		"/>
		<path d="M48.6961,45.3974l-3.0175-0.326c0,0-2.5584-2.8169-2.7454-3.0688c-0.1661-0.2238-0.3434-0.2026-0.4337-0.1728
			c0.0455,0.1082,0.0878,0.2086,0.1404,0.3336c5.059,11.9219,13.7933,17.4636,20.0493,17.7945L46.4408,27.3441l-9.7562-5.1831
			L30.4482,3h-3.9407l3.4323,57h17.4319c-4.1178-4.4949-6.777-9.7726-8.2642-13.0157l-2.8394,3.7707
			c-0.4958,0.6583-1.3885,0.873-2.1291,0.5122c-0.7413-0.3606-1.1226-1.1967-0.9091-1.9921l3.1765-11.8797
			c0.1359-0.5092,0.4976-0.9277,0.9814-1.1362c0.4838-0.2086,1.0364-0.1842,1.4999,0.0665l10.8182,5.8467
			c0.3512,0.1895,0.6132,0.4871,0.7623,0.8328c0.1585,0.3676,0.1892,0.7903,0.062,1.1958
			C50.2841,44.9872,49.515,45.4889,48.6961,45.3974z"/>
	</g>
</g>
</svg>
