<svg height="64" viewBox="0 0 64 64" width="64" xmlns="http://www.w3.org/2000/svg"><path d="m0 0h64v64h-64z" fill="none"/><path d="m51.9902 54.2426c-.7514-.7447-8.2321-1.0928-13.9298-1.2427-.0045-.0796.0278-.2255.291-.3242.8648-.3243 5.5392-.91 7.6757-1.027l-9.2056-46.041c-.1869-.9348-1.0078-1.6077-1.9611-1.6077h-5.7208c-.9534 0-1.7742.6729-1.9612 1.6077l-9.5502 47.751c-3.0344.2137-5.2368.5058-5.6184.8839-.5004.4959-.9098 1.5199-.9098 2.7574 0 1.6569.6716 3 1.5 3h38.8c.8284 0 1.5-1.3431 1.5-3 0-1.2375-.4094-2.2615-.9098-2.7574zm-22.611-39.2426h5.2416l1.8 9h-8.8416zm-3.8 19h12.8416l1.8239 9.1192h-16.4893z"/></svg>