<svg height="64" viewBox="0 0 64 64" width="64" xmlns="http://www.w3.org/2000/svg"><path d="m0 0h64v64h-64z" fill="none"/><path d="m61.8279 11.384-3-5.1961c-.2775-.4807-.8893-.6413-1.366-.366l-41.8584 24.1661c-.0597-.0475-.246-.2415.0326-.5611l2.3639-2.4269h-12c-1.6569 0-3 1.3431-3 3v31h18v-24.8893l40.4619-23.3607c.4782-.2761.6421-.8877.366-1.366zm-49.8279 30.7415c-2.8307 0-5.1255-2.2948-5.1255-5.1255s2.2947-5.1255 5.1255-5.1255 5.1255 2.2948 5.1255 5.1255-2.2948 5.1255-5.1255 5.1255zm12.9548-10.6076-2-3.4641 6.9282-4 2 3.4641zm13.8564-8-2-3.4641 6.9282-4 2 3.4641zm13.8564-8-2-3.4641 6.9282-4 2 3.4641zm-37.6826 21.4821c0 1.6486-1.3364 2.985-2.985 2.985s-2.985-1.3364-2.985-2.985 1.3364-2.985 2.985-2.985 2.985 1.3364 2.985 2.985z"/></svg>