<svg height="64" viewBox="0 0 64 64" width="64" xmlns="http://www.w3.org/2000/svg"><path d="m0 0h64v64h-64z" fill="none"/><path d="m17 30h30v9h-30z"/><path d="m17 9h30v7h-30z"/><path d="m57.5054 28-1.1414 5.7349c-.0703.3255-.3079.2708-.3641.2499v-14.9848c0-.5523-.4477-1-1-1h-45.9999c-.5523 0-1 .4477-1 1v14.9848c-.0562.0209-.2858.0679-.3641-.2499l-1.1413-5.7349h-5.4946v18.8793c1.0001.4099 2.2883.9903 3.5723.9903 2.3729 0 4.8287-1.7403 6.8613-3.0601 1.2712.8289 2.3184 1.5436 3.5664 2.1525v-18.962h34v18.9653c1.233-.6035 2.3034-1.3306 3.5742-2.1557 1.9808 1.2904 4.4822 3.0601 6.8535 3.0601 1.2769 0 2.5723-.5833 3.5723-.9932v-18.8765z"/><path d="m52.5723 47.4343c-1.9217 1.2474-4.3122 2.6357-6.8584 2.6357-2.531 0-4.9498-1.3942-6.8555-2.6357-1.9217 1.2473-4.3122 2.6357-6.8584 2.6357-2.5021 0-4.9015-1.3582-6.8569-2.6426-1.9785 1.2996-4.3679 2.6426-6.8569 2.6426-2.531 0-4.9498-1.3942-6.8555-2.6357-1.9293 1.2523-4.3172 2.6357-6.8589 2.6357-1.2473 0-2.5317-.3867-3.5718-.813v4.1675c1.1038.3346 2.3297.5755 3.5718.5755 2.7476 0 5.415-1.1777 6.8574-1.9424 1.4419.7647 4.1094 1.9424 6.8569 1.9424 2.7471 0 5.415-1.1777 6.8569-1.9424 1.442.7647 4.1094 1.9424 6.857 1.9424s5.415-1.1777 6.8569-1.9424c1.4419.7647 4.1099 1.9424 6.857 1.9424 2.7476 0 5.415-1.1777 6.8569-1.9424 1.4424.7647 4.1099 1.9424 6.8574 1.9424 1.2421 0 2.468-.2409 3.5718-.5755v-4.1701c-1.0424.4273-2.3286.8156-3.5718.8156-2.531 0-4.9502-1.3942-6.8559-2.6357z"/></svg>