<svg height="64" viewBox="0 0 64 64" width="64" xmlns="http://www.w3.org/2000/svg"><path d="m0 0h64v64h-64z" fill="none"/><path d="m15.8947 31-10.8947 23h13l1.2895-7h5.7105v7h13l-6.6579-23zm9.1053 9h-4.4211l.9211-5h3.5z"/><path d="m27 16h-4l-2.3684 5h7.8158z"/><path d="m5 36h5l2-3.2v-3.6408l-3.9953-.7951c-.3172-.1018-.2708-.3079-.2499-.3641h26.1684c-.9374-1.4567-1.5084-3.1647-1.5981-5h-30.3251v5h3z"/><path d="m56.1466 14.0327c-1.2523-2.3954-3.7564-4.0327-6.6466-4.0327-3.2654 0-6.0356 2.0905-7.0653 5.0033-7.2377.0624-10.1741 9.342-4.3181 13.5737-2.6166 4.8397-.0665 10.4719 5.1834 11.3182.1412-.6794.2862-1.3837.4292-2.0879.7916-3.899-.0495-5.8793-.175-6.193-.1662-.4156-.0333-.5652.0685-.5867 1.4608 1.2017 1.9957 4.7898 1.8458 6.9926-.155 2.2803-1.422 13.1143-1.4583 13.9798 0 0 1.9676 2 4.9898 2s3.9898-2 3.9898-2l-.5943-12.0902c.3614.0535.7282.0902 1.1045.0902 4.1422 0 7.5-3.3578 7.5-7.5 0-1.7393-.5975-3.3359-1.5911-4.6081 6.1972-3.7985 3.8936-13.2469-3.2623-13.8592z"/></svg>