<svg height="64" viewBox="0 0 64 64" width="64" xmlns="http://www.w3.org/2000/svg"><path d="m0 0h64v64h-64z" fill="none"/><path d="m35.6316 15-3.8912-12h-3.3971l.7399 12z"/><path d="m26.6346 3h-3.198l-3.8909 12h6.398z"/><path d="m7.8729 51h15.9982l1.4393-25h-9.3314z"/><path d="m11 30v-5.8905l-3.8232-.7609c-.3038-.0974-.2593-.2948-.2394-.3486h4.0626 33 4.0626c.02.0538.0644.2512-.2393.3486l-3.8233.7609v5.8905h6v-7h3v-6h-51v6h3v7z"/><path d="m42.1966 35.2459-2.9981-9.2459h-9.4371l1.5413 25h1.7514z"/><path d="m61.77 58.43-13.3532-22.6166c-.2974-.5042-.8393-.8134-1.4249-.8134-.0021 0-.0043 0-.0065 0-.5877.0022-1.1296.3162-1.4249.8242l-13.1246 22.6165c-.2968.5118-.2979 1.1437-.0027 1.6565s.842.829 1.434.829h26.4779c.5942 0 1.1426-.3184 1.4373-.8344.2946-.5161.2897-1.1501-.0124-1.6618zm-25.0289-.8135 10.2632-17.6859 10.442 17.6859z"/><path d="m46.9777 53.0855c-.837 0-1.2719.6024-1.2719 1.3723 0 .8703.4687 1.3385 1.2888 1.3385.8365 0 1.2719-.5855 1.2719-1.3385 0-.8872-.4687-1.3723-1.2888-1.3723z"/><path d="m46 51.9263 2-.0528v-1.9673l.235-4.9481-2.235.1939z"/></svg>