<?xml version="1.0" encoding="utf-8"?>
<!-- Generator: Adobe Illustrator 21.0.2, SVG Export Plug-In . SVG Version: 6.00 Build 0)  -->
<svg version="1.2" baseProfile="tiny" xmlns="http://www.w3.org/2000/svg" xmlns:xlink="http://www.w3.org/1999/xlink" x="0px"
	 y="0px" width="64px" height="64px" viewBox="0 0 64 64" xml:space="preserve">
<g id="_x36_4px_Box">
	<rect fill="none" width="64" height="64"/>
</g>
<g id="Icon">
	<g>
		<path d="M52.3,48L36.9,36.5c1.3-2,1-4.2,0.1-5.8C36.2,29.2,35,28,34.2,27c-0.2-0.3-0.3-0.7-0.3-1h2.6l2-8.3l-2.5-3V1h-2v12h-4V1
			h-2v13.6l-2.5,2.9l2,8.4h5.1c0,0.1,0.1,0.3-0.2,0.4L30,26.8c0.1,0.8,0.4,1.5,0.9,2.1c0.8,1,1.6,1.9,2.2,2.7
			c0.5,0.6,0.6,1.5,0.2,2.3c-1.1-0.5-2.4-0.4-3.4,0.4c0,0-0.1-0.1-0.1-0.1c-0.8-0.9-1.4-1.8-2.2-2.9c-0.3-0.5-1.1-0.3-1.1,0.3
			c-0.1,1.2,0,3.4,0.8,4.8L11.7,48H6v12h52V48H52.3z M15,48l16-12.1c0.1,0,0.2,0.2,0,0.4l-1.8,2c2.1,1.1,4.7,0.7,6.2-0.4L49,48H15z"
			/>
	</g>
</g>
</svg>
