<svg height="64" viewBox="0 0 64 64" width="64" xmlns="http://www.w3.org/2000/svg"><path d="m0 0h64v64h-64z" fill="none"/><path d="m42 19.6c0-3.9192-3.6978-9.8011-6.2626-13.4094-1.427-2.0076-3.7401-3.1906-6.2033-3.1906h-27.5341v4h5c.5523 0 1 .4477 1 1v7c0 .5522-.4477 1-1 1h-5v12h33s7-3.3334 7-8.4zm-23-4.6c0 .5522-.4477 1-1 1h-5c-.5523 0-1-.4478-1-1v-7c0-.5523.4477-1 1-1h5c.5523 0 1 .4477 1 1zm7 0v-7c0-.5523.4477-1 1-1h2.5342c1.1714 0 2.2715.5635 2.9429 1.5078 1.6668 2.3447 2.8911 4.3559 3.7583 6.0263.3473.6691-.1324 1.4659-.8863 1.4659h-8.3491c-.5523 0-1-.4478-1-1z"/><path d="m62 30h-6v-13.0081l3.7139 2.2855c.7016.4319 1.6265.2193 2.0635-.4912.4341-.7056.2144-1.6294-.4912-2.0635l-4.4244-2.7227 4.4243-2.7227c.7056-.4341.9253-1.3579.4912-2.0635-.4341-.7061-1.3584-.9258-2.0635-.4912l-5.7138 3.5163-5.7139-3.5162c-.7065-.4346-1.6299-.2148-2.0635.4912-.4341.7056-.2144 1.6294.4912 2.0635l4.4244 2.7226-4.4243 2.7227c-.7056.4341-.9253 1.3579-.4912 2.0635.437.7105 1.3618.9231 2.0635.4912l3.7138-2.2855v13.0081h-50v3h28v27h13l-.9655-7h5.0345l1.931 7h13l-11.1724-27h11.1724zm-20.7931 17-.9655-7h3.2414l1.931 7zm1.1724-11h-2.6897l-.4138-3h2.2758z"/></svg>