<?xml version="1.0" encoding="utf-8"?>
<!-- Generator: Adobe Illustrator 17.1.0, SVG Export Plug-In . SVG Version: 6.00 Build 0)  -->
<svg version="1.2" baseProfile="tiny" xmlns="http://www.w3.org/2000/svg" xmlns:xlink="http://www.w3.org/1999/xlink" x="0px"
	 y="0px" width="64px" height="64px" viewBox="0 0 64 64" xml:space="preserve">
<g id="_x36_4px_Boxes">
	<rect fill="none" width="64" height="64"/>
</g>
<g id="Production">
	<g>
		<path d="M32,5C17.6398,5,6,13.0578,6,23v23h6.6364L25,30.8889V25.76L25,26c0.0007-2.7623,3.1352-5.24,6.9999-5.24
			c3.8638,0,6.9992,2.4777,6.9999,5.24L39,25.76v5.1289L51.3636,46H58V23C58,13.0578,46.3601,5,32,5z"/>
		<polygon points="10.6382,59 27.9109,59 31,31 27.4545,31 		"/>
		<polygon points="33,31 36.0927,59 53.3654,59 36.5454,31 		"/>
	</g>
</g>
</svg>
