<svg height="64" viewBox="0 0 64 64" width="64" xmlns="http://www.w3.org/2000/svg"><path d="m0 0h64v64h-64z" fill="none"/><path d="m38.2002 50.2199-1.2002-.8999-1.2002.8999c-.6397.48-2.895 1.8501-4.7998 1.8501-1.8911 0-4.1094-1.3379-4.7998-1.8501l-1.2002-.8999-1.2002.8999c-.6397.48-2.895 1.8501-4.7998 1.8501-.6539 0-1.3446-.1653-2-.3958v4.0878c.6448.1438 1.3152.238 2 .238 2.397 0 4.6631-1.0762 6-1.8633 1.3369.7871 3.603 1.8633 6 1.8633s4.6631-1.0762 6-1.8633c1.3369.7871 3.603 1.8633 6 1.8633 1.0493 0 2.0679-.2119 3-.5098v-4.2271c-.9088.4283-2 .8069-3 .8069-1.8911 0-4.1094-1.3379-4.7998-1.8501z"/><path d="m63 33h-7.0192c-.4017-13.5739-11.225-22.8255-24.4808-22.8255s-24.0792 9.2516-24.4809 22.8255h-7.0191v6h5v17h10v-15.4946l-5.7349-1.1414c-.3172-.1018-.2708-.3078-.2499-.364h44.9696c.0209.0562.0673.2623-.2499.3641l-5.7349 1.1413v15.4946h10v-17h5zm-50.7729 0c.1572-4.107 1.5323-7.6771 3.7728-10.5125v10.5125zm6.7729 0v-13.4998c1.2127-.9436 2.5573-1.7305 4-2.363v15.8628zm7 0v-16.9127c1.2827-.3342 2.6217-.5449 4-.6366v17.5493zm7 0v-17.5493c1.3783.0917 2.7173.3024 4 .6366v16.9127zm7 0v-15.8628c1.4427.6324 2.7873 1.4194 4 2.363v13.4998zm7-10.5125c2.2405 2.8354 3.6156 6.4055 3.7728 10.5125h-3.7728z"/></svg>