<?xml version="1.0" encoding="utf-8"?>
<!-- Generator: Adobe Illustrator 17.1.0, SVG Export Plug-In . SVG Version: 6.00 Build 0)  -->
<svg version="1.2" baseProfile="tiny" xmlns="http://www.w3.org/2000/svg" xmlns:xlink="http://www.w3.org/1999/xlink" x="0px"
	 y="0px" width="64px" height="64px" viewBox="0 0 64 64" xml:space="preserve">
<g id="_x36_4px_Boxes">
	<rect fill="none" width="64" height="64"/>
</g>
<g id="Production">
	<g>
		<path d="M38.2002,50.2199L37,49.32l-1.2002,0.8999C35.1601,50.6999,32.9048,52.07,31,52.07c-1.8911,0-4.1094-1.3379-4.7998-1.8501
			L25,49.32l-1.2002,0.8999C23.1601,50.6999,20.9048,52.07,19,52.07c-0.6539,0-1.3446-0.1653-2-0.3958v4.0878
			C17.6448,55.9058,18.3152,56,19,56c2.397,0,4.6631-1.0762,6-1.8633C26.3369,54.9238,28.603,56,31,56s4.6631-1.0762,6-1.8633
			C38.3369,54.9238,40.603,56,43,56c1.0493,0,2.0679-0.2119,3-0.5098v-4.2271C45.0912,51.6914,44,52.07,43,52.07
			C41.1089,52.07,38.8906,50.7321,38.2002,50.2199z"/>
		<path d="M63,33h-7.0192C55.5791,19.4261,44.7558,10.1745,31.5,10.1745S7.4208,19.4261,7.0191,33H0v6h5v17h10V40.5054
			l-5.7349-1.1414C8.9479,39.2622,8.9943,39.0562,9.0152,39h44.9696c0.0209,0.0562,0.0673,0.2623-0.2499,0.3641L48,40.5054V56h10V39
			h5V33z M12.2271,33c0.1572-4.107,1.5323-7.6771,3.7728-10.5125V33H12.2271z M19,33V19.5002c1.2127-0.9436,2.5573-1.7305,4-2.363
			V33H19z M26,33V16.0873c1.2827-0.3342,2.6217-0.5449,4-0.6366V33H26z M33,33V15.4507c1.3783,0.0917,2.7173,0.3024,4,0.6366V33H33z
			 M40,33V17.1372c1.4427,0.6324,2.7873,1.4194,4,2.363V33H40z M47,22.4875C49.2405,25.3229,50.6156,28.893,50.7728,33H47V22.4875z"
			/>
	</g>
</g>
</svg>
