<svg height="64" viewBox="0 0 64 64" width="64" xmlns="http://www.w3.org/2000/svg"><path d="m0 0h64v64h-64z" fill="none"/><circle cx="22" cy="27" r="3"/><path d="m16.0731 28h1.5471c-.0734-.3226-.1202-.6551-.1202-1 0-2.4861 2.0139-4.5 4.5-4.5s4.5 2.0139 4.5 4.5c0 .3449-.0468.6774-.1202 1h11.2404c-.0734-.3226-.1202-.6551-.1202-1 0-2.4861 2.0139-4.5 4.5-4.5s4.5 2.0139 4.5 4.5c0 .3449-.0468.6774-.1202 1h2.39c3.2599-.6665 3.8079-2.9156 2.7253-4.8442-1.9965-3.5556-10.9003-4.4896-10.9003-4.4896s-4.0372-3.8008-6.1299-4.2452c-2.0919-.4451-7.4455-.6665-10.2184 0-2.7722.6666-7.1031 4.2452-7.1031 4.2452s-2.8638.405-3.5529 1.9561c-.7296 1.6448-.7296 4.3109-.2912 5.4218.4535 1.1483 1.6058 1.9559 2.7738 1.9559z"/><circle cx="42" cy="27" r="3"/><path d="m9.7608 63h17.9821l2.9332-21h-5.5966z"/><path d="m33.3267 42 2.9341 21h17.9821l-15.3219-21z"/><path d="m2 32v6h5v13h5.8271l5.1729-5.5858v-5.9088l-5.7349-1.1414c-.3172-.1018-.2708-.3079-.2499-.3641h39.9696c.0209.0562.0673.2623-.2499.3641l-5.7349 1.1414v5.9088l5.1728 5.5858h5.8272v-13h5v-6z"/></svg>