<svg height="64" viewBox="0 0 64 64" width="64" xmlns="http://www.w3.org/2000/svg"><path d="m0 0h64v64h-64z" fill="none"/><path d="m3 20h3v29.797c2.1776-.5554 3.6787-1.6769 5.4355-2.8058l1.5645 1.0115s7.0489-7.1028 19-7.1028c11.9555 0 19 7.1046 19 7.1046l1.5767-1.0133c1.8685 1.2081 3.2598 2.2546 5.4233 2.8059v-29.7971h3c.5523 0 1-.4478 1-1v-10c0-.5523-.4477-1-1-1h-13c-.5523 0-1 .4477-1 1v10c0 .5522.4477 1 1 1h3v10.44c2.5289 2.4514 4.2859 6.0345 4.9576 9.2624.0649.3116-.0588.3802-.1733.3849-3.4591-7.5852-12.799-13.0873-23.7843-13.0873-10.977 0-20.3113 5.4937-23.7767 13.07-.0881-.0207-.2378-.1099-.1515-.5057.6921-3.1732 2.4365-6.7052 4.9282-9.1212v-10.4431h3c.5523 0 1-.4478 1-1v-10c0-.5523-.4477-1-1-1h-13c-.5523 0-1 .4477-1 1v10c0 .5522.4477 1 1 1z"/><path d="m59.4282 52.07c-2.77 0-5.7344-1.9053-5.7603-1.9219l-1.0957-.7139-1.0952.7109c-.0298.0195-2.9932 1.9248-5.7632 1.9248-2.7695 0-5.7339-1.9053-5.7598-1.9219l-1.0957-.7139-1.0952.7109c-.0297.0197-2.9931 1.925-5.7631 1.925s-5.7334-1.9053-5.7598-1.9219l-1.0972-.7207-1.0972.7207c-.0293.0186-3.0063 1.9219-5.7598 1.9219-2.77 0-5.7334-1.9053-5.7598-1.9219l-1.0957-.7139-1.0952.7109c-.0291.0196-2.9935 1.9249-5.7635 1.9249-1.2473 0-2.5317-.3867-3.5718-.813v4.1675c1.1038.3346 2.3297.5755 3.5718.5755 2.7476 0 5.415-1.1777 6.8574-1.9424 1.4419.7647 4.1094 1.9424 6.8569 1.9424 2.7471 0 5.415-1.1777 6.8569-1.9424 1.442.7647 4.1094 1.9424 6.857 1.9424s5.415-1.1777 6.8569-1.9424c1.4419.7647 4.1099 1.9424 6.857 1.9424 2.7476 0 5.415-1.1777 6.8569-1.9424 1.4424.7647 4.1099 1.9424 6.8574 1.9424 1.2421 0 2.468-.2409 3.5718-.5755v-4.1701c-1.0424.4273-2.3286.8156-3.5718.8156z"/></svg>