<svg height="64" viewBox="0 0 64 64" width="64" xmlns="http://www.w3.org/2000/svg"><path d="m0 0h64v64h-64z" fill="none"/><path d="m11.4355 44.9912 2.1885 1.415c.6319.4063 2.8809 1.5938 4.6621 1.5938 1.854 0 4.1494-1.2578 4.6626-1.5938l2.1943-1.4404 2.1948 1.4404c.6319.4063 2.881 1.5938 4.6622 1.5938s4.0303-1.1875 4.6777-1.6045l2.1851-1.4043 2.1885 1.415c.6323.4053 2.8818 1.5938 4.6626 1.5938 1.7812 0 4.0303-1.1875 4.6777-1.6045l2.1851-1.4043 2.1885 1.415c.5829.3737 2.537 1.4014 4.2349 1.5613v-27.9675c0-.5523-.4477-1-1-1h-3v-8h-4v7l2.7349.6359c.3172.1018.2708.3079.2499.3641h-5.9849c-.5523 0-1 .4477-1 1v8h-30v-8c0-.5523-.4477-1-1-1h-3v-8h-4v7l2.7349.6359c.3172.1018.2708.3079.2499.3641h-5.9848c-.5523 0-1 .4477-1 1v27.9676c1.698-.16 3.6531-1.1885 4.25-1.5721zm35.5645-4.9912h-5.744l5.744-4.9138zm-3.7147-7-4.3683 3.7373-4.369-3.7373zm-6.7075 7h-9.1553l4.5775-3.916zm-7.1257-7-4.3686 3.7373-4.3685-3.7373zm-12.4521 2.0862 5.7443 4.9138h-5.7443z"/><path d="m59.4282 50.07c-2.77 0-5.7344-1.9053-5.7603-1.9219l-1.0957-.7139-1.0952.7109c-.0298.0195-2.9932 1.9248-5.7632 1.9248-2.7695 0-5.7339-1.9053-5.7598-1.9219l-1.0957-.7139-1.0952.7109c-.0297.0197-2.9931 1.925-5.7631 1.925s-5.7334-1.9053-5.7598-1.9219l-1.0972-.7207-1.0972.7207c-.0293.0186-3.0063 1.9219-5.7598 1.9219-2.77 0-5.7334-1.9053-5.7598-1.9219l-1.0957-.7139-1.0952.7109c-.0291.0196-2.9935 1.9249-5.7635 1.9249-1.2473 0-2.5317-.3867-3.5718-.813v4.1675c1.1038.3346 2.3297.5755 3.5718.5755 2.7476 0 5.415-1.1777 6.8574-1.9424 1.4419.7647 4.1094 1.9424 6.8569 1.9424 2.7471 0 5.415-1.1777 6.8569-1.9424 1.442.7647 4.1094 1.9424 6.857 1.9424s5.415-1.1777 6.8569-1.9424c1.4419.7647 4.1099 1.9424 6.857 1.9424 2.7476 0 5.415-1.1777 6.8569-1.9424 1.4424.7647 4.1099 1.9424 6.8574 1.9424 1.2421 0 2.468-.2409 3.5718-.5755v-4.1701c-1.0424.4273-2.3286.8156-3.5718.8156z"/></svg>