<?xml version="1.0" encoding="utf-8"?>
<!-- Generator: Adobe Illustrator 19.1.0, SVG Export Plug-In . SVG Version: 6.00 Build 0)  -->
<svg version="1.2" baseProfile="tiny" xmlns="http://www.w3.org/2000/svg" xmlns:xlink="http://www.w3.org/1999/xlink" x="0px"
	 y="0px" width="64px" height="64px" viewBox="0 0 64 64" xml:space="preserve">
<g id="_x36_4px_Box">
	<rect fill="none" width="64" height="64"/>
</g>
<g id="Icon">
	<g>
		<g>
			<path d="M26.5395,25.6093c0.9097,0.5557,2.0587,0.8821,3.2085,0.8821c3.2833,0,5.8491-2.4476,5.8491-5.6758
				c0-1.3342-0.4598-2.5601-1.2251-3.5439c1.4697-0.9046,2.3147-2.5061,2.3147-4.3366c0-2.188-1.3991-4.0502-3.3636-4.7822
				c0.0118-0.1532,0.0212-0.307,0.0189-0.4633c-0.0431-3.0166-2.5184-5.4239-5.8143-5.3769
				c-1.3906,0.0198-2.6606,0.4771-3.6647,1.2213c-0.9161-0.79-2.1132-1.2727-3.4276-1.2727c-3.0737,0-5.9958,2.6246-5.6304,5.7144
				c-2.3079,0.7522-3.9745,2.8875-3.9745,5.4089c0,1.8052,1.319,3.4116,2.6508,4.4562c-0.9349,1.0091-1.5098,2.3463-1.5098,3.8188
				c0,3.897,3.9846,6.1183,7.4874,5.1719c0.8179-2.7434,1.0741-5.01,1.1686-5.9088c0.0288-0.2737,0.2273-0.4057,0.3476-0.339
				c0.0636,0.7251,0.0944,1.6275,0.0977,2.645c0.0128,3.9933-0.3984,12.7784-0.9147,16.5578l7.3893,0.8065
				C27.2101,36.717,26.7013,28.0908,26.5395,25.6093z"/>
			<path d="M37,35.9281h4v6.1331l6,0.6548v-9.1879h1.6c0.2209,0,0.4-0.1792,0.4-0.4v-0.5927c0-0.2236-0.0938-0.4371-0.2584-0.5886
				l-9.4707-8.7132c-0.1531-0.1407-0.3887-0.1407-0.5418,0l-9.4706,8.7132C29.0938,32.0983,29,32.3118,29,32.5355v0.5927
				c0,0.2208,0.1791,0.4,0.4,0.4H31v7.4417l6,0.6548V35.9281z"/>
		</g>
		<path d="M60,52.2947v-5.9465l-49.577-5.4111l-2.4854,1.511l3.7748,0.7139l-1.0415,0.777L6.864,43.101l-3.1161,1.8945L60,62.7747
			v-7.9735l-8.8607-1.951l0.1573-2.2014L60,52.2947z M23.6273,46.7921l-7.233-1.5927l0.9232-0.9772l7.1924,1.3603L23.6273,46.7921z
			 M41.2879,50.6808l-9.6434-2.1234l0.6856-1.4958l9.4266,1.7828L41.2879,50.6808z"/>
	</g>
</g>
</svg>
