<svg height="64" viewBox="0 0 64 64" width="64" xmlns="http://www.w3.org/2000/svg"><path d="m0 0h64v64h-64z" fill="none"/><path d="m26.5395 25.6093c.9097.5557 2.0587.8821 3.2085.8821 3.2833 0 5.8491-2.4476 5.8491-5.6758 0-1.3342-.4598-2.5601-1.2251-3.5439 1.4697-.9046 2.3147-2.5061 2.3147-4.3366 0-2.188-1.3991-4.0502-3.3636-4.7822.0118-.1532.0212-.307.0189-.4633-.0431-3.0166-2.5184-5.4239-5.8143-5.3769-1.3906.0198-2.6606.4771-3.6647 1.2213-.9161-.79-2.1132-1.2727-3.4276-1.2727-3.0737 0-5.9958 2.6246-5.6304 5.7144-2.3079.7522-3.9745 2.8875-3.9745 5.4089 0 1.8052 1.319 3.4116 2.6508 4.4562-.9349 1.0091-1.5098 2.3463-1.5098 3.8188 0 3.897 3.9846 6.1183 7.4874 5.1719.8179-2.7434 1.0741-5.01 1.1686-5.9088.0288-.2737.2273-.4057.3476-.339.0636.7251.0944 1.6275.0977 2.645.0128 3.9933-.3984 12.7784-.9147 16.5578l7.3893.8065c-.3373-3.876-.8461-12.5022-1.0079-14.9837z"/><path d="m37 35.9281h4v6.1331l6 .6548v-9.1879h1.6c.2209 0 .4-.1792.4-.4v-.5927c0-.2236-.0938-.4371-.2584-.5886l-9.4707-8.7132c-.1531-.1407-.3887-.1407-.5418 0l-9.4706 8.7132c-.1647.1515-.2585.365-.2585.5887v.5927c0 .2208.1791.4.4.4h1.6v7.4417l6 .6548z"/><path d="m60 52.2947v-5.9465l-49.577-5.4111-2.4854 1.511 3.7748.7139-1.0415.777-3.8069-.838-3.1161 1.8945 56.2521 17.7792v-7.9735l-8.8607-1.951.1573-2.2014zm-36.3727-5.5026-7.233-1.5927.9232-.9772 7.1924 1.3603zm17.6606 3.8887-9.6434-2.1234.6856-1.4958 9.4266 1.7828z"/></svg>