<svg enable-background="new 0 0 64 64" height="64" viewBox="0 0 64 64" width="64" xmlns="http://www.w3.org/2000/svg"><path d="m0 0h64v64h-64z" fill="none"/><path d="m10.1 46.2c-2 4.5-3.1 12.8-3.1 12.8h10.6c-1.9-7.9-5.8-11.6-7.5-12.8z"/><path d="m53.9 46.2c-1.7 1.2-5.6 4.9-7.5 12.8h10.6s-1.1-8.3-3.1-12.8z"/><path d="m52.2 43.7c-2.5-2.2-8.2-4.1-11-5-.2-1.1-.4-2.4-.5-3.5 1.8-2.2 2.9-4.4 3.2-6.7 1.3-1.2 2.1-3.2 2.1-5.6 0-1.8-.3-3.2-1.6-4.4.7-2.1 1.2-5.7 1.3-8.3.8-.5 1.9-.8 1.9-.8-3.4-6.7-10.6-3.4-10.6-3.4-3-5-12-5-12-5 1.3 1.3 2 3 2 3-9.8-1-10.9 7.1-10.9 7.1s1-.4 2.2-.7c.1 2.9.7 6.1 1.3 8.3-.8.6-1.6 1.9-1.6 4.3s.7 4.3 2.1 5.5c.4 2.5 1.6 4.9 3.7 7.3-.1.8-.2 1.7-.4 2.7-2.4.7-8.9 2.8-11.6 5.1 2.1 1.5 6.9 6 8.9 15.3h22.6c2-9.3 6.8-13.7 8.9-15.2zm-30.2-28.1c-.3-1.3-.5-2.8-.6-4.1 7-.9 14.2-.9 21.2 0-.1 1.3-.3 2.7-.6 4.1-6.6-.8-13.4-.8-20 0zm15.8 27.3c-2.4 4.9-9.7 4.7-11.3-.5-.2-.7-.3-1.4-.2-2.1.2-1.9 0-.5.8-5.4-2.3-2.2-4.1-4.9-4.1-8.1-1.6-.5-2-2.5-2-3.8s.3-2 .8-2.2c.4-.2.8 0 1 .1.1.7.2 1.1.3 1.3.2.9 1 .8 1 .8v-4.7c2-.2 3.9-.3 5.9-.4-.3 1.9-1.2 3.4-1.2 3.4 3.2-.3 5.2-2.1 6.2-3.4.4 0 .9 0 1.3.1.6 1.6 1.6 2.8 1.6 2.8.9-1.2 1.8-2 2.3-2.4v4.6s.8.1 1-.8c0-.2.1-.7.3-1.3.2-.1.6-.3 1-.1.5.2.8.9.8 2.2s-.4 3.3-2 3.8c0 3.7-2.5 6.5-5.3 8.9-.8.7-2.2 1.1-3.7 1.1-1.1 0-2.1-.3-2.9-.6.6.9 1.7 2.1 3.6 2.6 3.2.8 5.5-.9 5.5-.9s.3 1.9.3 2.4c-.4.9-.6 1.8-1 2.6z"/></svg>