<?xml version="1.0" encoding="utf-8"?>
<!-- Generator: Adobe Illustrator 19.1.0, SVG Export Plug-In . SVG Version: 6.00 Build 0)  -->
<svg version="1.2" baseProfile="tiny" xmlns="http://www.w3.org/2000/svg" xmlns:xlink="http://www.w3.org/1999/xlink" x="0px"
	 y="0px" width="64px" height="64px" viewBox="0 0 64 64" xml:space="preserve">
<g id="Box">
	<rect fill="none" width="64" height="64"/>
</g>
<g id="Icon">
	<g>
		<path d="M45.8511,39.5615c0.157-0.3592,0.0399-0.9792-0.5599-1.0953c-0.2655-0.0515-0.8376-0.0031-1.2816,0.0598
			c-0.3438-1.2393-0.9457-2.3774-1.2949-2.7419c-0.4722-0.4932-3.093-0.7863-5.7141-0.7839
			c-2.6128,0.0023-5.2258,0.2985-5.7107,0.7839c-0.3569,0.3572-0.9482,1.5027-1.292,2.7419
			c-0.4438-0.0629-1.0094-0.1113-1.2749-0.0598c-0.5999,0.1161-0.7031,0.7361-0.5461,1.0953
			c0.075,0.1717,0.3469,0.5182,0.7688,0.808C28.2576,41.2953,28,41.9258,28,43.4222c0,1.9333,0,4.0889,0,4.0889
			s0.0555,1.1964,0.2227,1.9927C28.2837,49.7937,28.6079,50,28.9175,50h2.2983c0.3097,0,0.5784-0.3174,0.6392-0.6073
			C31.9482,48.9481,32.0458,48,32.0458,48h9.9308c0,0,0.0752,0.9481,0.1685,1.3927C42.2058,49.6826,42.4745,50,42.7842,50h2.2983
			c0.3096,0,0.6338-0.2063,0.6948-0.4962C45.9445,48.7075,46,47.5111,46,47.5111s0-2.1556,0-4.0889
			c0-1.4963-0.2576-2.1269-0.9456-3.0527C45.4763,40.0797,45.7762,39.7332,45.8511,39.5615z M32.9053,45.0842l-2.0936-0.1674
			c-0.5673-0.0453-0.9147-0.4979-1.0187-0.9943l-0.0864-0.5997c-0.0532-0.3708,0.3276-0.6855,0.7031-0.5811l1.6947,0.4708
			c0.3685,0.1418,0.6471,0.4299,0.7657,0.7913l0.2323,0.8627C33.1333,44.9811,33.0303,45.0947,32.9053,45.0842z M31.8978,40.758
			c0.2052-1,0.55-2.2635,1.1256-3.6491c0.5605-0.0684,1.8037-0.1655,3.9766-0.1655s3.415,0.0972,3.9766,0.1655
			c0.5878,1.5351,0.9204,2.649,1.1256,3.6491c-1.2561,0.1992-3.2474,0.3269-5.1022,0.3269S33.1538,40.9572,31.8978,40.758z
			 M44.207,43.9226c-0.104,0.4963-0.4514,0.949-1.0187,0.9943l-2.0936,0.1674c-0.125,0.0104-0.228-0.1031-0.1971-0.2175
			l0.2323-0.8627c0.1187-0.3615,0.3972-0.6495,0.7656-0.7913l1.6948-0.4708c0.3755-0.1046,0.7563,0.2102,0.7031,0.5811
			L44.207,43.9226z"/>
		<path d="M62,13H2c-0.5523,0-1,0.4477-1,1v8c0,0.5522,0.4477,1,1,1h6v4.8643l3.7107,0.7385
			c0.3461,0.111,0.2955,0.3359,0.2727,0.3972H3c-1.1046,0-2,0.8954-2,2v19h18V31c0-1.1046-0.8954-2-2-2h-3v-6h36v27h6V24.1357
			l-3.7107-0.7385c-0.3461-0.111-0.2955-0.3359-0.2727-0.3972H62c0.5523,0,1-0.4478,1-1v-8C63,13.4477,62.5523,13,62,13z"/>
	</g>
</g>
</svg>
