<?xml version="1.0" encoding="utf-8"?>
<!-- Generator: Adobe Illustrator 18.1.0, SVG Export Plug-In . SVG Version: 6.00 Build 0)  -->
<svg version="1.2" baseProfile="tiny" xmlns="http://www.w3.org/2000/svg" xmlns:xlink="http://www.w3.org/1999/xlink" x="0px"
	 y="0px" width="64px" height="64px" viewBox="0 0 64 64" xml:space="preserve">
<g id="Box">
	<rect fill="none" width="64" height="64"/>
</g>
<g id="Icon">
	<g>
		<path d="M37.173,18.787c-2.6873,0.1898-5.6641,0.2975-8.6134,0.2975c-6.9016,0-13.9676-0.5856-17.0712-1.4481
			c0.5627-2.7457,2.5341-9.5472,3.1518-10.5959c0.6234-0.3102,5.2-0.8402,13.9194-0.8402c8.7195,0,13.296,0.53,13.9194,0.8402
			c0.2935,0.4983,0.8929,2.299,1.5013,4.343c1.2443-0.6681,2.5818-1.1271,3.9626-1.4044c-0.8269-2.6725-1.7046-5.1394-2.3221-5.7839
			c-1.3998-1.4611-6.3067-2.1908-17.0613-2.1908c-10.7546,0-15.6614,0.7297-17.0613,2.1908
			c-1.0435,1.0891-2.8312,7.3775-3.8582,11.0796c-1.3262-0.1877-2.8276-0.3325-3.6207-0.1784
			c-1.7919,0.3469-2.1,1.929-1.6312,3.0021c0.2236,0.5129,1.015,1.5482,2.2753,2.4137c-2.0553,2.7659-2.6585,5.1699-2.6585,9.6401
			c0,5.7756,0,12.2151,0,12.2151s0,3.5739,0.4994,5.953c0.1821,0.8661,0.985,1.4822,1.9097,1.4822h6.8657
			c0.9253,0,1.7277-0.6161,1.9097-1.4822c0.2785-1.3282,0.4019-3.3949,0.4564-4.6381l-6.5109-1.2958
			C6.7983,42.2786,6.8475,42.0597,6.8698,42h21.6899h9.7529l-2.2155-15.0474C35.6846,24.1511,36.0787,21.3311,37.173,18.787z
			 M16.3269,34.6351l-6.2543-0.5c-1.6944-0.1353-2.7327-1.4875-3.0434-2.9703l-0.2578-1.7914
			c-0.1592-1.1078,0.9787-2.0481,2.1005-1.736l5.0626,1.4066c1.1011,0.4238,1.9329,1.2842,2.2877,2.364l0.6939,2.5772
			C17.0084,34.327,16.7004,34.6661,16.3269,34.6351z M35,39H22v-3h13V39z"/>
		<path d="M51.0688,13h-0.0093c-7.3807,0-13.0012,6.2708-11.9261,13.6549l3.1231,21.6586c0.1206,0.8286,0.685,1.5204,1.4723,1.7803
			c0.7199,0.2377,1.7909,0.4969,3.2712,0.6778V59h8v-6.9075c-1.1666-0.0967-3.1896-0.3292-4.7405-0.8535
			c-0.2165-0.0732-0.2029-0.2032-0.1876-0.2551c2.5671,0.0621,5.8788-0.0815,8.3276-0.89c0.7873-0.2599,1.3517-0.9518,1.4723-1.7803
			l2.9949-21.6586C63.9417,19.2708,58.4495,13,51.0688,13z M51,39.15c-2.292,0-4.15-1.858-4.15-4.15c0-2.2921,1.858-4.15,4.15-4.15
			s4.15,1.858,4.15,4.15C55.15,37.2919,53.292,39.15,51,39.15z M58.1401,25H54c0-0.7117-0.2581-1.3568-0.6722-1.8712l0.6298-3.6461
			c0.033-0.191-0.1978-0.3126-0.3367-0.1772l-2.7811,2.7107C49.259,22.1011,48,23.398,48,25h-4.1342
			c-0.5973,0-1.0699-0.5222-1.0016-1.1156c0.1816-1.5775,0.8138-3.0441,1.8666-4.2613C46.2827,17.829,48.5894,16.8,51.0595,16.8
			h0.0093c2.4647,0,4.6694,0.9796,6.2078,2.7582c1.0597,1.2252,1.692,2.7132,1.8655,4.3303C59.2056,24.4807,58.7355,25,58.1401,25z"
			/>
	</g>
</g>
</svg>
