<?xml version="1.0" encoding="utf-8"?>
<!-- Generator: Adobe Illustrator 19.1.0, SVG Export Plug-In . SVG Version: 6.00 Build 0)  -->
<svg version="1.2" baseProfile="tiny" xmlns="http://www.w3.org/2000/svg" xmlns:xlink="http://www.w3.org/1999/xlink" x="0px"
	 y="0px" width="64px" height="64px" viewBox="0 0 64 64" xml:space="preserve">
<g id="Box">
	<rect fill="none" width="64" height="64"/>
</g>
<g id="Icon">
	<g>
		<path d="M12.4453,18.6968c0.6995-1.9097,1.5988-3.6288,2.3607-4.5363c-3.4996-0.0585-7.0723-0.3652-8.6263-0.797
			c0.314-1.5318,1.7101-5.6188,2.0547-6.2039C8.5822,6.9865,11.1354,6.6908,16,6.6908s7.4178,0.2957,7.7657,0.4688
			c0.2582,0.4385,1.1071,2.8439,1.6484,4.6666c0.8025-0.0161,1.6515-0.0264,2.5859-0.0264c0.9301,0,1.7753,0.0102,2.5746,0.0262
			c0.0554-0.0833,0.1042-0.1628,0.1307-0.2235c0.2616-0.5987,0.0895-1.6321-0.9102-1.8256
			c-0.4424-0.0859-1.3849-0.0052-2.1248,0.0995c-0.5729-2.0655-1.571-4.0467-2.1532-4.6543C24.7362,4.4072,21.9978,4.0001,16,3.9999
			c-5.9978,0.0002-8.7362,0.4072-9.5171,1.2222C5.9008,5.8298,4.9026,7.811,4.3297,9.8765C3.5898,9.7717,2.6473,9.691,2.2049,9.7769
			c-0.9997,0.1935-1.1718,1.2269-0.9102,1.8256c0.1246,0.2861,0.578,0.8637,1.2811,1.3466C1.4292,14.4922,1,15.543,1,18.037
			c0,3.2222,0,6.8148,0,6.8148s0.0925,1.9939,0.3712,3.3212C1.4728,28.6562,2.0133,29,2.5292,29h4.1851
			c0.5162,0,0.9638-0.5289,1.0654-1.0122c0.1553-0.741,0.2292-1.2088,0.3179-2.5592h0.7658
			c0.0565-0.1115,0.1091-0.2231,0.1708-0.3348c-0.3066-0.3706-0.5459-0.7451-0.6963-1.0898c-0.459-1.0498-0.4116-2.335,0.1235-3.353
			c0.0309-0.0588,0.0757-0.1049,0.1093-0.1614l-2.8846-0.2306c-0.9453-0.0754-1.5246-0.8299-1.698-1.6571l-0.1438-0.9994
			c-0.0888-0.6181,0.546-1.1427,1.1719-0.9685l2.8243,0.7847c0.6143,0.2365,1.0784,0.7164,1.2763,1.319L9.3437,19.58
			c0.4713-0.3956,1.0344-0.6821,1.6827-0.8075C11.4131,18.6978,11.9053,18.6748,12.4453,18.6968z"/>
		<path d="M14.8195,29.1608l3.3892,0.9416c0.7371,0.2838,1.2941,0.8597,1.5316,1.5827l0.18,0.6686
			c0.5725-0.7329,1.3776-1.238,2.3473-1.4254c0.5714-0.112,1.2565-0.1019,1.8379-0.0698c0.6492-1.8303,1.4556-3.5167,2.2131-4.6696
			c-4.1191-0.0804-8.275-0.4446-10.103-0.9526c0.3768-1.8382,2.0522-6.7426,2.4656-7.4446C19.0986,17.5839,22.1625,17.229,28,17.229
			s8.9014,0.3549,9.3188,0.5626c0.2839,0.4821,1.1628,2.9455,1.8077,5.0371c0.8953-0.0175,1.838-0.0288,2.8735-0.0289
			c1.3702,0.0001,2.6065,0.0164,3.7342,0.0468c0.1617-0.7233-0.123-1.7097-1.1801-1.9142
			c-0.5309-0.1031-1.6618-0.0063-2.5497,0.1194c-0.6876-2.4785-1.8853-4.856-2.5839-5.5851C38.4835,14.4886,35.1974,14.0002,28,14
			c-7.1974,0.0002-10.4835,0.4886-11.4205,1.4666c-0.6986,0.7292-1.8964,3.1066-2.5839,5.5851
			c-0.8879-0.1257-2.0188-0.2225-2.5497-0.1194c-1.1996,0.2322-1.4062,1.4722-1.0923,2.1907
			c0.1497,0.3434,0.6937,1.0364,1.5374,1.6159C10.5151,26.5906,10,27.8517,10,30.8445c0,3.8666,0,8.1777,0,8.1777
			s0.1111,2.3926,0.4454,3.9854c0.1219,0.5798,0.7706,0.9924,1.3896,0.9924h5.0222c0.6194,0,1.1566-0.6348,1.2784-1.2147
			c0.1864-0.8892,0.2751-1.4506,0.3815-3.0711h0.9667c0.2191-0.6301,0.4895-1.2293,0.8326-1.8212
			c-0.4175-0.4722-0.7339-0.9429-0.9194-1.3687c-0.3685-0.8431-0.432-1.8279-0.1996-2.728l-3.574-0.2857
			c-1.1344-0.0905-1.8295-0.9958-2.0375-1.9885l-0.1725-1.1993C13.3066,29.5812,14.0684,28.9517,14.8195,29.1608z"/>
		<path d="M60.7938,37.5287c0.9843-0.676,1.619-1.4846,1.7936-1.8852c0.3662-0.8382,0.1253-2.2849-1.2743-2.5558
			c-0.6194-0.1203-1.9388-0.0073-2.9747,0.1393c-0.8021-2.8916-2.1995-5.6653-3.0145-6.516C54.2307,25.5701,50.3969,25.0002,42,25
			l-0.0001,0.0001V25c-8.3969,0.0002-12.2307,0.5701-13.3239,1.7111c-0.815,0.8507-2.2124,3.6244-3.0145,6.516
			c-1.0359-0.1467-2.3553-0.2596-2.9747-0.1393c-1.3996,0.2709-1.6405,1.7176-1.2743,2.5558
			c0.1746,0.4006,0.8093,1.2092,1.7936,1.8852C21.6009,39.6891,21,41.1603,21,44.6519c0,4.5111,0,9.5407,0,9.5407
			s0.1296,2.7914,0.5197,4.6496C21.6619,59.5187,22.4186,60,23.1409,60H29c0.7227,0,1.3494-0.7405,1.4916-1.4171
			c0.2175-1.0374,0.3209-1.6923,0.4451-3.5829h22.1266c0.1241,1.8906,0.2276,2.5455,0.4451,3.5829
			C53.6506,59.2595,54.2773,60,54.9999,60h5.8591c0.7222,0,1.479-0.4813,1.6212-1.1578c0.3901-1.8582,0.5197-4.6496,0.5197-4.6496
			s0-5.0296,0-9.5407C62.9999,41.1603,62.399,39.6891,60.7938,37.5287z M31.1281,29.4235c0.487-0.2423,4.0615-0.6563,10.8719-0.6563
			v-0.0001L42,28.7672c6.8104,0,10.3849,0.414,10.8719,0.6563c0.4824,0.8191,2.437,6.5409,2.8766,8.6854
			C53.3243,38.7826,47.3906,39.24,42,39.24l-0.0001,0.0001V39.24c-5.3906,0-11.3243-0.4574-13.7485-1.1311
			C28.691,35.9644,30.6457,30.2426,31.1281,29.4235z M32.4455,48.153l-4.885-0.3905c-1.3234-0.1056-2.1344-1.1618-2.3771-2.3199
			l-0.2013-1.3992c-0.1244-0.8653,0.7644-1.5997,1.6406-1.3559l3.9541,1.0986c0.86,0.331,1.5098,1.003,1.7869,1.8465l0.542,2.0128
			C32.9778,47.9125,32.7372,48.1774,32.4455,48.153z M47.9999,52H36v-2h11.9999V52z M59.0179,44.0434l-0.2013,1.3992
			c-0.2427,1.1581-1.0537,2.2143-2.3771,2.3199l-4.885,0.3905c-0.2917,0.0244-0.5323-0.2405-0.4601-0.5076l0.542-2.0128
			c0.2771-0.8435,0.9269-1.5155,1.7869-1.8465l3.9541-1.0986C58.2535,42.4437,59.1423,43.1781,59.0179,44.0434z"/>
	</g>
</g>
</svg>
