<?xml version="1.0" encoding="utf-8"?>
<!-- Generator: Adobe Illustrator 21.0.2, SVG Export Plug-In . SVG Version: 6.00 Build 0)  -->
<!DOCTYPE svg PUBLIC "-//W3C//DTD SVG 1.1//EN" "http://www.w3.org/Graphics/SVG/1.1/DTD/svg11.dtd">
<svg version="1.1" xmlns="http://www.w3.org/2000/svg" xmlns:xlink="http://www.w3.org/1999/xlink" x="0px" y="0px" width="64px"
	 height="64px" viewBox="0 0 64 64" style="enable-background:new 0 0 64 64;" xml:space="preserve">
<style type="text/css">
	.st0{fill:none;}
</style>
<g id="_x36_4px_Box">
	<rect class="st0" width="64" height="64"/>
</g>
<g id="Icon">
	<g>
		<g>
			<path d="M4.2,14l-0.6,0C2.7,14,2,14.7,2,15.6l0,6.8C2,23.3,2.7,24,3.6,24l0.6,0C4.6,24,5,23.6,5,23.2l0-8.4C5,14.4,4.6,14,4.2,14
				z M44.9,15.7c0-0.9-0.7-1.6-1.6-1.6l-0.5,0c-0.4,0-0.8,0.4-0.8,0.8l0,4.3c1,0.4,2.1,1,2.8,1.4L44.9,15.7z M8.5,44l15.2,0l0.5-0.8
				c0.6-1,1.8-1.7,3-1.7c0.4,0,0.7,0.1,1.1,0.2c0.5,0.2,1.2,0.5,1.9,0.8l7.6-12.6c-0.6-0.5-1.2-0.9-1.6-1.3
				c-1.2-1.1-1.4-2.9-0.6-4.3l0.2-0.3l-25.2,0c-0.5,0-0.8-0.4-0.8-0.9c0.1-2.9,0.5-7.8,1.1-10.5c0.1-0.4,0.4-0.7,0.8-0.7l23.9,0
				c0.4,0,0.7,0.3,0.8,0.7c0.4,2.7,0.8,6,1,8.8l0.5-0.9c0.6-1,1.6-1.6,2.8-1.7c-0.2-2-0.4-4.4-0.8-6.7c-0.3-2-1.4-5.2-2.6-6.8
				c-0.6-0.9-1.6-1.4-2.6-1.4c-2.4,0-7.1,0-11,0L12.5,4c-1,0-2,0.5-2.6,1.4C8.8,7,7.7,10.2,7.3,12.2C6.5,16.3,6.1,24,6.1,24l0,3.1
				l0,16.5c0,0,0,3.1,0.3,4.5C6.5,48.6,7,49,7.6,49h0l4,0c0.5,0,0.8-0.1,0.9-0.5c0.2-0.8,0.3-2.2,0.4-3.2c0,0-4-0.9-4.2-0.9
				C8.5,44.2,8.5,44.1,8.5,44z M30.2,37H16.7l-0.4-2h14.4L30.2,37z M31.6,31l-0.4,2H15.8l-0.4-2H31.6z M9,37.8C9,37.3,9.3,37,9.7,37
				l3.5,0c0.4,0,0.8,0.4,0.8,0.8l0,2.5c0,0.4-0.4,0.8-0.8,0.8l-3.5,0c-0.4,0-0.8-0.4-0.8-0.8L9,37.8z M62.3,40.6
				c-0.3-0.9-3-3.9-4.6-5.7c0.5-0.7,1.1-1.4,1.3-1.9c0.4-1.1-0.5-1.9-1.3-2c-0.4,0-1.2,0-2.1,0.5c-0.8-2-2-3.2-4.4-4.6
				c-3.2-1.9-6.7-4-6.7-4s-2-1.2-3.4-1.7c-0.5-0.2-1.1,0.1-1.4,0.6l-2.3,3.8c-0.3,0.5-0.2,1.1,0.2,1.5c0.6,0.6,1.5,1.2,2.2,1.7
				l2.8-3.1c0.2-0.1,0.3,0,0.3,0L28.7,49.2c0,0-0.2-0.1-0.1-0.3l1.4-4c-0.7-0.4-1.7-0.9-2.5-1.2c-0.5-0.2-1.1,0.1-1.4,0.6l-2.3,3.8
				c-0.3,0.5-0.2,1.1,0.2,1.5c1.1,1.1,3.1,2.2,3.1,2.2s3.5,2.1,6.7,4c2.4,1.5,4,1.9,6.1,1.7c0.1,1,0.4,1.7,0.6,2
				c0.4,0.6,1.5,1,2.3,0.2c0.3-0.4,0.8-1.3,1.1-2c2.4,0.7,6.2,1.7,7.2,1.4c1.3-0.3,3.3-2.7,6.8-8.6C61.4,44.7,62.6,41.8,62.3,40.6z
				 M38.3,49.7L37.4,53c-0.2,0.7-1.1,1-1.6,0.6l-0.9-0.7c-0.7-0.7-1.1-1.7-0.6-2.6l1.8-3.6c0.1-0.2,0.4-0.3,0.5-0.1l1.2,1.2
				C38.2,48.3,38.4,49,38.3,49.7z M37.2,42.9l-1.7-1l4.2-7l1.7,1L37.2,42.9z M44.1,33.2l2.3-3.3c0.6-0.9,1.7-1,2.6-0.7l1.1,0.4
				c0.7,0.3,0.8,1.2,0.3,1.7l-2.4,2.3c-0.6,0.5-1.3,0.6-2,0.5l-1.6-0.5C44,33.7,43.9,33.4,44.1,33.2z M55.6,49.2
				c-2.9,4.8-4.7,7.1-5,7.3c-0.8,0-5.1-1.2-6.8-1.8c0.5-2,2.5-6,4.8-9.8c2.3-3.8,4.9-7.4,6.4-8.9c1.3,1.2,4.4,4.5,4.8,5.2
				C59.7,41.8,58.5,44.5,55.6,49.2z M53.7,42.7l0.5,2.7l-3.7,1.8l-1.9-0.9l1.5,2.5l-1.6,2.5l-3,1.6l3.8-0.3l1.1-1.7l1.5,1.6
				l-0.4-3.6l4.6-3.2L55,43.3l2.1-2.2L53.7,42.7z M26.4,14.1l-1.3,2.3l-5,1l-1.5-3.1l-4.5,1l3.7,0.6l0.8,3l6.9-0.1l2.2,3.9l0.3-2.7
				l2.3,0.9l4-2.4L30.1,19l-3.4-1.3L26.4,14.1z"/>
		</g>
	</g>
</g>
</svg>
