<?xml version="1.0" encoding="utf-8"?>
<!-- Generator: Adobe Illustrator 18.1.0, SVG Export Plug-In . SVG Version: 6.00 Build 0)  -->
<svg version="1.2" baseProfile="tiny" xmlns="http://www.w3.org/2000/svg" xmlns:xlink="http://www.w3.org/1999/xlink" x="0px"
	 y="0px" width="64px" height="64px" viewBox="0 0 64 64" xml:space="preserve">
<g id="Box">
	<rect fill="none" width="64" height="64"/>
</g>
<g id="Icon">
	<g>
		<path d="M60.9977,37.9395c0.9492-0.652,1.5453-1.4316,1.7137-1.8179c0.3531-0.8082,0.121-2.2032-1.2286-2.4645
			c-0.5973-0.116-1.7281-0.0071-2.7269,0.1344c-0.7734-2.7883-2.1199-7.3212-2.9059-8.1415C54.7957,24.5496,51.1,24,43,24
			s-11.7957,0.5496-12.85,1.65c-0.7859,0.8203-2.1324,5.3531-2.9059,8.1415c-0.9988-0.1415-2.1296-0.2504-2.7269-0.1344
			c-1.3496,0.2613-1.5817,1.6562-1.2286,2.4645c0.1684,0.3863,0.7645,1.166,1.7137,1.8179C23.4543,40.0226,23,41.8332,23,45.2
			c0,4.35,0,9.2,0,9.2s0,2.6918,0.3762,4.4836C23.5132,59.5359,24.118,60,24.8145,60h5.1711c0.6968,0,1.3012-0.4641,1.4383-1.1164
			c0.1921-0.9164,0.286-2.5784,0.3321-3.5722l-4.4797-0.9321c-0.2475-0.0794-0.311-0.2432-0.2604-0.3793
			c33.3915,0,17.2073,0,31.9684,0c0.0217,0.0586,0.0701,0.2733-0.2604,0.3793l-4.488,0.9338
			c0.0425,0.9491,0.1356,2.5941,0.3403,3.5705C54.7133,59.5359,55.3176,60,56.0145,60h5.171c0.6969,0,1.3012-0.4641,1.4384-1.1164
			C63,57.0917,63,54.4,63,54.4s0-4.85,0-9.2C63,41.8332,62.5457,40.0226,60.9977,37.9395z M33.7867,48.5762l-4.7106-0.3766
			c-1.2762-0.1019-2.0582-1.1203-2.2922-2.2371l-0.1942-1.3492c-0.1199-0.8344,0.7371-1.5426,1.582-1.3074l3.813,1.0593
			c0.8293,0.3192,1.4558,0.9672,1.723,1.7805l0.5226,1.941C34.3,48.3441,34.068,48.5996,33.7867,48.5762z M48,52H38v-2h10V52z
			 M43,36.8641c-5.1981,0-10.5199-0.441-12.8574-1.0906c0.4238-2.068,1.9086-7.1907,2.3738-7.9805
			c0.4695-0.2336,3.9164-0.6328,10.4836-0.6328s10.0141,0.3992,10.4836,0.6328c0.4652,0.7898,1.95,5.9125,2.3738,7.9805
			C53.5199,36.423,48.1981,36.8641,43,36.8641z M59.4102,44.6133l-0.1942,1.3492c-0.234,1.1168-1.016,2.1352-2.2922,2.2371
			l-4.7106,0.3766c-0.2812,0.0234-0.5132-0.2321-0.4437-0.4894l0.5226-1.941c0.2672-0.8133,0.8937-1.4613,1.7227-1.7805
			l3.8132-1.0593C58.673,43.0707,59.5301,43.7789,59.4102,44.6133z"/>
		<path d="M21.1608,35.1186c-6.2679-0.319-10.1922-1.6178-11.9286-2.4321c-0.6258-0.2935-0.9836-0.9567-0.8801-1.6401
			c0.4506-2.9774,1.6964-10.8345,2.0615-12.3857c0.0675-0.0181,6.909-0.7161,13.655-0.7161c6.772,0,13.5879,0.6979,13.6554,0.7161
			c0.1224,0.5201,0.3457,1.7623,0.6041,3.2862c1.0104-0.0371,2.1336-0.0602,3.3723-0.0698
			c-0.4886-2.8956-0.9915-5.4619-1.2935-6.2972c-0.3801-1.0511-1.5287-1.465-2.7111-1.7198c0,0-6.1544-0.8599-13.6272-0.8599
			s-13.6272,0.8599-13.6272,0.8599c-1.1823,0.2548-2.3309,0.6687-2.711,1.7198c-0.53,1.4658-1.6783,8.2562-2.2827,12.8143
			c-1.057-0.1447-2.405-0.269-3.0215-0.1493c-1.4506,0.2808-1.7231,1.7906-1.3206,2.649c0.617,1.3155,2.8879,2.5485,4.045,3.1087
			c0,2.1535,0,20.2705,0,20.2705s0,3.4111,0.3544,4.8382C5.6334,59.6304,6.2028,60,6.8586,60h5.183
			c0.6559,0,1.2252-0.3696,1.3537-0.8888c0.2164-0.8715,0.3002-2.615,0.333-3.8403l-4.9102-0.9772
			c-0.2728-0.0875-0.2328-0.2647-0.2148-0.313H21v-8.7805c0-2.6655,0.2544-4.77,1.3994-6.8965
			c-0.4204-0.4644-0.7534-0.9448-0.9438-1.3823C21.211,36.3618,21.1207,35.7363,21.1608,35.1186z M15.2791,48.7808l-5.4178-0.433
			c-1.4677-0.1172-2.3671-1.2886-2.6362-2.573L7.0018,44.223c-0.1379-0.9597,0.8478-1.7742,1.8195-1.5037l4.3854,1.2183
			c0.9537,0.3672,1.6743,1.1125,1.9816,2.0479l0.6011,2.2324C15.8694,48.514,15.6025,48.8078,15.2791,48.7808z"/>
	</g>
</g>
</svg>
