<?xml version="1.0" encoding="utf-8"?>
<!-- Generator: Adobe Illustrator 22.1.0, SVG Export Plug-In . SVG Version: 6.00 Build 0)  -->
<!DOCTYPE svg PUBLIC "-//W3C//DTD SVG 1.1//EN" "http://www.w3.org/Graphics/SVG/1.1/DTD/svg11.dtd">
<svg version="1.1" xmlns="http://www.w3.org/2000/svg" xmlns:xlink="http://www.w3.org/1999/xlink" x="0px" y="0px" width="64px"
	 height="64px" viewBox="0 0 64 64" style="enable-background:new 0 0 64 64;" xml:space="preserve">
<style type="text/css">
	.st0{fill:none;}
	.st1{fill:#FFFFFF;}
</style>
<g id="Box">
	<rect class="st0" width="64" height="64"/>
</g>
<g id="Icon">
	<g>
		<path d="M62,18l-23,0v-1.4c0-1.6-0.7-3.1-1.8-4.2l-4.1-3.9c-0.8-0.8-2.1-0.7-2.8,0.1c-0.8,0.8-0.7,2.1,0.1,2.8l4.1,3.9
			c0.3,0.3,0.5,0.8,0.5,1.3V40h-6.4c-1.2,0-2.2-0.8-2.5-2l-3.6-15c-1.1,0-2.1,0-2.3,0c-0.5,0-0.5-0.4-0.5-0.5
			c1.7-0.7,4.7-1.9,5.7-2.2c1.3-0.5,1.1-2.3-0.3-2.3h-8.1c-0.7,0-1.4,0.4-1.7,1.1c-1.2,2.3,2.5,3.6,3.2,3.9l0.6,2.4l-8.3,11.7
			C10.2,37.8,10,38.4,10,39c0,1.3,0.8,2.4,2,2.8c0.2,0.1,0.4,0.1,1.2,0.3l5.3,0.7c-1.1,2.5-3.6,4.3-6.5,4.3c-3.9,0-7.1-3.2-7.1-7.1
			c0-3.6,2.7-6.6,6.2-7l2.7-3.8C13.2,29.1,12.6,29,12,29C5.9,29,1,33.9,1,40c0,6.1,4.9,11,11,11c4.9,0,9.1-3.2,10.5-7.7l4.2,0.6
			c0.9,0.1,1.8,0.1,3,0.1H38h0c0-0.3-0.1-0.7-0.1-1c0-5.6,4.5-10,10.1-10s10.1,4.5,10.1,10c0,0.3,0,0.7-0.1,1h1.4
			c0.9,0,1.8-0.7,2-1.6C62,39.6,63,32.7,63,19C63,18.5,62.6,18,62,18z M16.3,36l3.9-5.5l1.3,5.5H16.3z"/>
		<path d="M48,35c-4.4,0-8,3.6-8,8s3.6,8,8,8s8-3.6,8-8S52.4,35,48,35z M48,47.1c-2.3,0-4.1-1.8-4.1-4.1c0-2.3,1.8-4.1,4.1-4.1
			s4.1,1.8,4.1,4.1C52.1,45.3,50.3,47.1,48,47.1z"/>
	</g>
</g>
</svg>
