<?xml version="1.0" encoding="utf-8"?>
<!-- Generator: Adobe Illustrator 17.1.0, SVG Export Plug-In . SVG Version: 6.00 Build 0)  -->
<svg version="1.2" baseProfile="tiny" xmlns="http://www.w3.org/2000/svg" xmlns:xlink="http://www.w3.org/1999/xlink" x="0px"
	 y="0px" width="64px" height="64px" viewBox="0 0 64 64" xml:space="preserve">
<g id="_x36_4px_Boxes">
	<rect fill="none" width="64" height="64"/>
</g>
<g id="Label">
</g>
<g id="Production">
	<path d="M57.1683,23.0713c-0.7169-0.1392-2.2845,0.0054-3.5138,0.1736C52.9517,17.9442,51.6163,9.7046,51,8
		c-0.442-1.2224-1.7778-1.7037-3.1527-2c0,0-7.1571-1-15.8473-1S16.1527,6,16.1527,6C14.7778,6.2963,13.442,6.7776,13,8
		c-0.6163,1.7046-1.9517,9.9442-2.6545,15.2449c-1.2292-0.1682-2.7969-0.3129-3.5138-0.1736
		c-1.687,0.3266-2.0039,2.0824-1.5357,3.0806c0.7175,1.5298,3.3584,2.9637,4.704,3.6152c0,2.5043,0,23.5729,0,23.5729
		s0,3.9669,0.4121,5.6264C10.5615,59.5702,11.2236,60,11.9863,60h6.0273c0.7628,0,1.4248-0.4298,1.5742-1.0336
		c0.2517-1.0135,0.3492-3.041,0.3873-4.4659l-5.7101-1.1364c-0.3172-0.1017-0.2708-0.3079-0.2499-0.3641h35.9696
		c0.0209,0.0562,0.0673,0.2623-0.2499,0.3641l-5.7101,1.1364c0.0381,1.4249,0.1356,3.4524,0.3873,4.4659
		C44.5615,59.5702,45.2236,60,45.9863,60h6.0273c0.7628,0,1.4248-0.4298,1.5742-1.0336C54,57.3069,54,53.34,54,53.34
		s0-21.0686,0-23.5729c1.3456-0.6515,3.9865-2.0854,4.704-3.6152C59.1722,25.1537,58.8553,23.3979,57.1683,23.0713z M21.7786,46.953
		l-6.3004-0.5036c-1.7068-0.1364-2.7528-1.4985-3.0657-2.9922l-0.2597-1.8045c-0.1604-1.116,0.9859-2.0632,2.1159-1.7487
		l5.0999,1.4169c1.1091,0.4269,1.9471,1.2936,2.3045,2.3814l0.699,2.5962C22.4651,46.6427,22.1548,46.9844,21.7786,46.953z M39,51
		h-6.9974h-0.0052H25v-3h6.9974h0.0052H39V51z M51.8472,41.6527l-0.2597,1.8045c-0.313,1.4937-1.3589,2.8558-3.0658,2.9922
		l-6.3004,0.5036c-0.3762,0.0314-0.6865-0.3102-0.5935-0.6545l0.699-2.5962c0.3574-1.0878,1.1954-1.9545,2.3045-2.3814
		l5.0999-1.4169C50.8613,39.5895,52.0076,40.5367,51.8472,41.6527z M16.1204,11.5828C16.1989,11.5617,24.155,10.7501,32,10.7501
		c7.8752,0,15.8016,0.8116,15.8801,0.8328c0.4231,1.7972,1.8726,11.2827,2.3969,14.7465c0.1203,0.7949-0.2958,1.566-1.0236,1.9073
		C46.938,29.3225,41.2799,31.15,32,31.15s-14.938-1.8275-17.2535-2.9134c-0.7277-0.3413-1.1438-1.1125-1.0235-1.9073
		C14.247,22.8668,15.6957,13.3868,16.1204,11.5828z"/>
</g>
</svg>
