<?xml version="1.0" encoding="utf-8"?>
<!-- Generator: Adobe Illustrator 19.1.0, SVG Export Plug-In . SVG Version: 6.00 Build 0)  -->
<svg version="1.2" baseProfile="tiny" xmlns="http://www.w3.org/2000/svg" xmlns:xlink="http://www.w3.org/1999/xlink" x="0px"
	 y="0px" width="64px" height="64px" viewBox="0 0 64 64" xml:space="preserve">
<g id="Box">
	<rect fill="none" width="64" height="64"/>
</g>
<g id="Icon">
	<g>
		<circle cx="49.5" cy="46.5" r="5.5"/>
		<circle cx="18.5" cy="46.5" r="5.5"/>
		<path d="M60.1667,29.5c-3.6128-5.7633-7.8961-11.453-10.5079-14.811C47.6887,12.1559,45.606,12,42.679,12H8.3928
			c-1.1821,0-2.1953,1.0003-2.2515,2.2949c-0.0184,0.4232-0.1453,3.4267-0.3075,7.3486l-2.9568,0.3668
			c-0.5474,0.0673-0.9366,0.5655-0.8693,1.1129C2.069,23.6234,2.4935,23.9994,2.9975,24h12.3046
			c0.0343,0.0752,0.1112,0.3513-0.4008,0.4915c-0.431,0.1179-7.1346,1.2419-9.25,1.5955c-0.0864,2.1173-0.1749,4.3127-0.2576,6.4037
			l-3.4887,0.4627c-0.5632,0.0674-0.965,0.5787-0.8975,1.1419C1.0687,34.6067,1.4993,34.9936,2.0144,35h9.9667
			c0.0258,0.0684,0.0833,0.3193-0.3029,0.4449c-0.2947,0.0958-4.482,0.9267-6.4504,1.3152
			c-0.1254,3.3026-0.2124,5.8255-0.2124,6.4673C5.0154,44.8035,6.3101,46,7.8299,46h2.9952
			c0.2597-4.0125,3.598-7.2002,7.6749-7.2002S25.9151,41.9876,26.1749,46h15.6503c0.2598-4.0124,3.598-7.2002,7.6749-7.2002
			s7.4151,3.1877,7.6749,7.2001h1.0137c2.7783,0,4.7393-2.2652,4.7393-5.0435C62.9279,37.5,62.5638,33.324,60.1667,29.5z
			 M52.6481,30H42V19c0,0,3.3297,0.0001,5.868,0c0.83-0.0001,1.6091,0.3883,2.1058,1.0532
			c1.4449,1.9339,3.0162,4.1023,4.5669,6.3632C55.5819,27.9344,54.4888,30,52.6481,30z"/>
	</g>
</g>
</svg>
