<?xml version="1.0" encoding="utf-8"?>
<!-- Generator: Adobe Illustrator 22.1.0, SVG Export Plug-In . SVG Version: 6.00 Build 0)  -->
<!DOCTYPE svg PUBLIC "-//W3C//DTD SVG 1.1//EN" "http://www.w3.org/Graphics/SVG/1.1/DTD/svg11.dtd">
<svg version="1.1" xmlns="http://www.w3.org/2000/svg" xmlns:xlink="http://www.w3.org/1999/xlink" x="0px" y="0px" width="64px"
	 height="64px" viewBox="0 0 64 64" style="enable-background:new 0 0 64 64;" xml:space="preserve">
<style type="text/css">
	.st0{fill:none;}
	.st1{fill:#FFFFFF;}
</style>
<g id="Box">
	<rect class="st0" width="64" height="64"/>
</g>
<g id="Icon">
	<path d="M13,51c5,0,9.3-3.1,11.1-7.5l3,0.4c0.9,0.1,1.3,0.1,1.4,0c2-0.2,3.5-1.9,3.5-4c0-0.9-0.3-1.7-0.8-2.4l11.1-13
		c0.3,1.1,0.6,2.4,1.1,3.8c2.4,7.4,5.4,10.9,5.8,11.4c0.4,0.5,1.2,0.2,1.1-0.4C50.1,38.8,49,36,47.8,31c0.4-0.1,0.8-0.1,1.2-0.1
		c4.5,0,8.1,3.6,8.1,8.1c0,4.5-3.6,8.1-8.1,8.1s-8.1-3.6-8.1-8.1c0-2.2,0.9-4.1,2.2-5.6c-0.5-1.2-1-2.5-1.5-3.9
		C38.8,31.7,37,35.2,37,39c0,6.6,5.4,12,12,12s12-5.4,12-12c0-6.6-5.4-12-12-12c-0.7,0-1.4,0.1-2,0.2c-0.5-1.8-2.2-10.5-3.3-15.6
		c-0.2-1-1.2-1.7-2.3-1.6l-5.7,0.9c-0.7,0.1-1.3,0.8-1.3,1.5c0,0.9,0.7,1.6,1.6,1.6c0.1,0,4.3,0,4.1,0l1.1,5.8L27.3,36h-0.9l-3.8-13
		c-1,0-2,0-2.2,0c-0.3,0-0.3-0.3-0.3-0.3s5.7-2.4,6.7-2.8c1-0.4,0.8-2-0.3-2h-9.8c-0.8,0-1.5,0.4-1.9,1c-1.4,2.2,3.1,3.8,3.7,4
		l0.6,2.2l-8.4,11.9C10.2,37.8,10,38.4,10,39c0,1.4,0.9,2.5,2.2,2.9c0.4,0.1,0.7,0.1,0.9,0.2L20,43c-1.4,2.5-4,4.1-7,4.1
		c-4.5,0-8.1-3.6-8.1-8.1c0-4.3,3.4-7.9,7.7-8.1l2.6-3.7C14.5,27.1,13.8,27,13,27C6.4,27,1,32.4,1,39C1,45.6,6.4,51,13,51z M16.3,36
		l4.2-5.9l1.7,5.9H16.3z"/>
	<path d="M61,11.1c-0.1-0.5-0.6-0.9-1.1-0.8L47,12.9c-0.5,0.1-0.9,0.6-0.8,1.1l2.1,10.9c0.1,0.5,0.6,0.9,1.1,0.8l12.8-2.5
		c0.5-0.1,0.9-0.6,0.8-1.1L61,11.1z M56,16.2l-3.1,0.6c-0.6,0.1-1-0.3-1.1-0.8c-0.1-0.5,0.1-1.1,0.7-1.2l3.1-0.6
		c0.6-0.1,1,0.3,1.1,0.8C56.8,15.6,56.6,16.1,56,16.2z"/>
</g>
</svg>
