<?xml version="1.0" encoding="utf-8"?>
<!-- Generator: Adobe Illustrator 19.1.0, SVG Export Plug-In . SVG Version: 6.00 Build 0)  -->
<svg version="1.2" baseProfile="tiny" xmlns="http://www.w3.org/2000/svg" xmlns:xlink="http://www.w3.org/1999/xlink" x="0px"
	 y="0px" width="64px" height="64px" viewBox="0 0 64 64" xml:space="preserve">
<g id="_x36_4px_Box">
	<rect fill="none" width="64" height="64"/>
</g>
<g id="Icon">
	<g>
		<path d="M6,20.5c0-3.8599,3.1401-7,7-7V18c0,1.6569,1.3431,3,3,3h8v-3h7.5c0.8284,0,1.5-0.6716,1.5-1.5S32.3284,15,31.5,15H24V9
			h7.5C32.3284,9,33,8.3284,33,7.5S32.3284,6,31.5,6H24V3h-8c-1.6569,0-3,1.3431-3,3v4.5c-5.5142,0-10,4.4858-10,10v19.4305
			c0.8906-0.8846,1.902-1.645,3-2.2703V20.5z"/>
		<path d="M51,38c-0.7012,0-1.3797,0.0845-2.0466,0.2032c-0.6168-2.6909-1.2395-5.4439-1.2395-5.4439l-0.0085,0.0002
			l-2.0213-10.1363c-0.2092-1.0397-1.2016-1.747-2.2613-1.5864l-5.7255,0.8681c-0.7474,0.1126-1.3207,0.7575-1.3203,1.5361
			c0.0002,0.8578,0.6957,1.553,1.5536,1.5527l0.235-0.0001l3.9122-0.0014l1.0959,5.4953l-20.3728,3.9159L22.1074,32
			c-0.9981,0-1.9877,0-2.1855,0c-0.2969,0-0.2872-0.2565-0.2872-0.2565s5.652-2.3718,6.701-2.7791
			C27.3695,28.563,27.1208,27,25.9988,27h-9.8103c-0.7862,0-1.5352,0.3613-1.9239,0.9717
			c-1.3857,2.1795,3.0879,3.8028,3.6717,4.0035l1.2091,4.1898c0,0-8.2109,11.4381-8.4696,11.799
			c-1.4977,2.0888-0.3414,4.6726,1.8852,5.0017c1.4473,0.2139,7.5444,1.0219,7.5444,1.0219C18.7104,56.4756,16.0562,58.16,13,58.16
			c-4.5064,0-8.16-3.6532-8.16-8.16c0-4.2976,3.3242-7.8109,7.54-8.1287l2.6277-3.6901C14.3535,38.0707,13.6857,38,13,38
			C6.373,38,1,43.3726,1,50s5.373,12,12,12c5.0252,0,9.3234-3.0922,11.1105-7.4753l3.3553,0.4357C30.2812,55.2969,32,53.1111,32,51
			c0-0.5786-0.1284-1.1251-0.3494-1.6216l12.623-13.8085c0.2865,1.1377,0.6587,2.5028,1.0965,3.8476
			c2.4072,7.4013,5.3897,10.9087,5.7891,11.3823c0.4131,0.4878,1.1631,0.1704,1.0703-0.3633
			c-0.1049-0.6075-1.1976-3.4256-2.4075-8.4975c0.3851-0.0587,0.7762-0.099,1.178-0.099c4.5064,0,8.16,3.6531,8.16,8.16
			c0,4.5068-3.6536,8.16-8.16,8.16s-8.16-3.6532-8.16-8.16c0-2.164,0.8483-4.1256,2.2228-5.5861
			c-0.4974-1.146-0.9936-2.4263-1.4707-3.842C40.7997,42.769,39,46.1711,39,50c0,6.6274,5.373,12,12,12s12-5.3726,12-12
			S57.627,38,51,38z M16.2917,47l4.2656-5.9424L22.2722,47H16.2917z M28.3906,47H26.436l-2.5214-8.7377l15.1367-2.9094L28.3906,47z"
			/>
	</g>
</g>
</svg>
