<?xml version="1.0" encoding="utf-8"?>
<!-- Generator: Adobe Illustrator 19.1.0, SVG Export Plug-In . SVG Version: 6.00 Build 0)  -->
<svg version="1.2" baseProfile="tiny" xmlns="http://www.w3.org/2000/svg" xmlns:xlink="http://www.w3.org/1999/xlink" x="0px"
	 y="0px" width="64px" height="64px" viewBox="0 0 64 64" xml:space="preserve">
<g id="Box">
	<rect fill="none" width="64" height="64"/>
</g>
<g id="Icon">
	<g>
		<path d="M5.7667,18C9.0517,18,24,17,24,17h4c0,0,14.9483,1,18.2333,1c2.2421,0,4.081-0.693,4.5459-1.767l0.0001-0.052V16.181
			c0.465-1.074-0.1304-1.767-1.2043-1.767C46.2899,14.414,28,15,28,15v-0.1053c0-1.1046-0.8954-1.6827-2-1.6827s-2,0.5781-2,1.6827
			V15c0,0-18.2899-0.586-21.5749-0.586c-1.074,0-1.6693,0.693-1.2043,1.767v0.0001l0.0001,0.052C1.6857,17.307,3.5246,18,5.7667,18z
			"/>
		<path d="M62.3397,18h-1.7553c-0.361,0-0.694,0.1946-0.8713,0.5092L54.9296,27H39.5381l-6.597-4.6359
			C31.6844,21.481,30.1241,21,28.5159,21H28v-2h-4v2h-0.3066c-2.1916,0-3.896,1.3604-5.2195,2.7266l4.5691,0.9093
			c0.3172,0.1018,0.2708,0.3079,0.2499,0.3641h-5.981C10.0714,25,5,29.5714,2.0878,34.5c-1.1367,1.9236-1.2872,3.4997,0.5288,5
			c1.723,1.4234,3.8132,2.3592,7.3455,2.9023L8.7319,47H8.2871c-1.606,0-3.126-0.7002-4.1704-1.9204
			c-0.3584-0.4204-0.9912-0.4683-1.4097-0.1099c-0.4199,0.3589-0.4688,0.9902-0.1099,1.4097C4.022,48.0449,6.0957,49,8.2871,49H36
			c0.5522,0,1-0.4478,1-1s-0.4478-1-1-1h-5.2983l-1.2827-4.7934c2.7131-0.7144,4.301-1.9119,6.3105-3.6051
			c1.4738-1.2417,2.9663-3.02,4.2155-4.6818l16.2463-2.2228l2.0763,2.8869C58.4556,34.8451,58.7577,35,59.0795,35h2.2388
			c0.3378,0,0.5784-0.3281,0.4769-0.6502L60,28.65l2.821-10.0144C62.9108,18.3165,62.6711,18,62.3397,18z M6.337,35.0461
			c-0.5291-0.0898-0.6788-0.559-0.2401-1.1207C8.2709,31.1426,11.886,28,17.312,28h2.9604C21.2266,28,22,28.7734,22,29.7275
			c0,2.9119-2.3875,4.8772-5.2725,5.2725C13.8168,35.3988,7.0824,35.1727,6.337,35.0461z M10.8018,47l1.1638-4.3493
			C14.3322,42.8877,17.2396,43,20.9249,43c2.7252,0,4.8231-0.133,6.5311-0.3942L28.6318,47H10.8018z"/>
	</g>
</g>
</svg>
