<?xml version="1.0" encoding="utf-8"?>
<!-- Generator: Adobe Illustrator 21.0.2, SVG Export Plug-In . SVG Version: 6.00 Build 0)  -->
<!DOCTYPE svg PUBLIC "-//W3C//DTD SVG 1.1//EN" "http://www.w3.org/Graphics/SVG/1.1/DTD/svg11.dtd">
<svg version="1.1" xmlns="http://www.w3.org/2000/svg" xmlns:xlink="http://www.w3.org/1999/xlink" x="0px" y="0px" width="64px"
	 height="64px" viewBox="0 0 64 64" style="enable-background:new 0 0 64 64;" xml:space="preserve">
<style type="text/css">
	.st0{fill:none;}
</style>
<g id="Box">
	<rect class="st0" width="64" height="64"/>
</g>
<g id="Icon">
	<g>
		<path d="M11.4,44.8c2,1.3,4.5,3.1,6.9,3.1c2.4,0,4.9-1.8,6.9-3.1c2,1.3,4.5,3.1,6.9,3.1c2.4,0,4.8-1.7,6.9-3.1
			c2,1.3,4.5,3.1,6.9,3.1c2.4,0,4.8-1.7,6.9-3.1c0.8,0.5,1.7,1.1,2.6,1.6l7.4-10.8c0.2-0.3,0-0.6-0.3-0.6L55,35.4
			c-2-1.6-4.4-3.4-6.5-4.2l-16.7,0.7c-1.4,0.1-2.8-0.6-3.6-1.7L27,28.5l19.5-1.3l-1.4-2c-1.3-1.9-3.4-2.9-5.7-2.6
			c-3.4,0.4-9,1.1-15.1,2.3l-3.8-5.2c-0.3-0.4-0.8-0.7-1.3-0.7h-1.3c-0.4,0-0.7,0.4-0.5,0.8l2.4,6c-1.8,0.4-3.6,0.9-5.3,1.4
			c-0.8,0.2-1.3,0.8-1.6,1.6l-0.2,0.8l7.9-0.5l-2.6,6.6l7.5,1c0.3,0.1,0.3,0.3,0.3,0.3l-8.7,0.4c-5.5,0.4-10.3,3.8-12.6,8.8
			l-0.7,1.6c0.4,0.1,0.7,0.1,1,0.1C6.9,47.9,9.4,46.1,11.4,44.8z M48.5,39c0.8,0,1.5,0.7,1.5,1.5S49.3,42,48.5,42S47,41.3,47,40.5
			S47.7,39,48.5,39z M40.5,39c0.8,0,1.5,0.7,1.5,1.5S41.3,42,40.5,42S39,41.3,39,40.5S39.7,39,40.5,39z M32.5,39
			c0.8,0,1.5,0.7,1.5,1.5S33.3,42,32.5,42S31,41.3,31,40.5S31.7,39,32.5,39z"/>
		<path d="M59.4,50.1c-2.5,0-5-1.4-6.9-2.6c-1.9,1.2-4.3,2.6-6.9,2.6c-2.5,0-4.9-1.4-6.9-2.6c-1.9,1.2-4.3,2.6-6.9,2.6
			c-2.5,0-4.9-1.4-6.9-2.6c-2,1.3-4.4,2.6-6.9,2.6c-2.5,0-4.9-1.4-6.9-2.6c-1.9,1.3-4.3,2.6-6.9,2.6c-1.2,0-2.5-0.4-3.6-0.8v4.2
			C2.1,53.8,3.3,54,4.6,54c2.7,0,5.4-1.2,6.9-1.9c1.4,0.8,4.1,1.9,6.9,1.9c2.7,0,5.4-1.2,6.9-1.9c1.4,0.8,4.1,1.9,6.9,1.9
			c2.7,0,5.4-1.2,6.9-1.9c1.4,0.8,4.1,1.9,6.9,1.9c2.7,0,5.4-1.2,6.9-1.9c1.4,0.8,4.1,1.9,6.9,1.9c1.2,0,2.5-0.2,3.6-0.6v-4.2
			C62,49.7,60.7,50.1,59.4,50.1z"/>
	</g>
</g>
</svg>
