<?xml version="1.0" encoding="utf-8"?>
<!-- Generator: Adobe Illustrator 19.1.0, SVG Export Plug-In . SVG Version: 6.00 Build 0)  -->
<svg version="1.2" baseProfile="tiny" xmlns="http://www.w3.org/2000/svg" xmlns:xlink="http://www.w3.org/1999/xlink" x="0px"
	 y="0px" width="64px" height="64px" viewBox="0 0 64 64" xml:space="preserve">
<g id="_x36_4px_Box">
	<rect fill="none" width="64" height="64"/>
</g>
<g id="Icon">
	<g>
		<path d="M50.5,46c-2.4854,0-4.5-2.0147-4.5-4.5c0-1.4105,0.6624-2.6539,1.678-3.4789l-0.8179-1.5334l-6.3318,3.6237
			c-0.1838,0.1051-0.3396,0.2438-0.481,0.3954C40.0167,40.8338,40,41.1649,40,41.5C40,47.299,44.7009,52,50.5,52
			c5.6301,0,10.2119-4.4349,10.4747-10h-6.0251C54.6979,44.2468,52.814,46,50.5,46z"/>
		<path d="M15.041,45.3115c-0.687,0.2138-2.7295,0.8838-3.5723,0.8838c-0.999,0-1.9727-0.3203-2.792-0.9365
			c-1.1748-0.8848-1.877-2.29-1.877-3.7588c0-1.543,0.7461-2.9629,2.0088-3.8447c0.2021-0.1625,0.6357-0.3865,0.9004-0.5328
			l-6.1603-2.4675C1.9641,36.4938,1,38.8822,1,41.5C1,47.299,5.7009,52,11.5,52c4.5715,0,8.4497-2.9266,9.8914-7.0043l-0.91-1.3842
			L15.041,45.3115z"/>
		<path d="M56.2925,30.6683c-0.5618,0.6122-1.231,1.1396-1.9956,1.5631l-5.7002,3.2623l1.8386,3.4474
			C50.783,39.5929,51.4614,40,52.2,40h9.7168c0.6083,0,1.071-0.535,0.9912-1.138C62.6156,36.6551,61.3831,31.9125,56.2925,30.6683z"
			/>
		<path d="M54.5385,21.2308c-0.9658-1.6659-5.2446-7.6707-7.8881-10.7527c-0.5286-0.6162-1.474-0.5805-1.8372,0.1456
			c-0.1262,0.2524-0.1482,0.5427-0.0615,0.8113c0.4355,1.3526,1.7661,5.6791,1.7617,8.0552
			c-2.8981-1.1826-13.1096-3.7095-20.2634,4.4443L14,22.9283v-6.626c0-1.7703-1.5177-2.9288-3.2871-2.9862
			c-1.9707-0.064-5.703,0.2548-7,0.673C2.2418,14.4636,1,15.4297,1,16.9753v3.2866c0,1.2673,0.7964,2.3979,1.9896,2.8248L3,23.0904
			v7.6214c0,0.8174,0.4974,1.5526,1.2563,1.8566l10.5763,4.2366l-4.6565,2.5727l0.0033,0.0073C9.4734,39.8269,9,40.6057,9,41.5
			c0,1.6075,1.5251,2.8708,3.1884,2.392c0.0031,0.0069,5.1533-1.6034,9.2195-2.8759l2.2181,3.3735
			C25.1078,46.6431,27.6239,48,30.321,48h1.665c2.3324,0,4.339-1.6498,4.7899-3.9382l0.5856-2.9713
			c0.24-1.218,0.9968-2.2719,2.0742-2.8885l13.7949-7.8943C56.5378,28.4748,56.4725,24.5669,54.5385,21.2308z M8.4114,31.3452
			l-3.0923-1.2706l2.6775-2.0449l-0.0383-3.1965l3.0059,1.0856l0.0005,3.4312L8.4114,31.3452z M14.3077,33.9406l-3.2478-1.35
			l2.8558-2.1811L13.875,27l3.1558,1.1526l0.0005,3.6599L14.3077,33.9406z M37.5283,28.5885l-3.8594-1.3867l3.2142-2.8263
			l-0.2721-3.5422c1.4178-0.2314,2.8297-0.2274,4.178-0.0923l0.6725,4.5859L37.5283,28.5885z M45.9402,31.6108l-4.072-1.463
			l4.2665-3.2055l-1.0131-5.3021c2.688,0.838,4.5197,1.9027,4.5129,1.9312l1.4424,5.0825L45.9402,31.6108z"/>
	</g>
</g>
</svg>
