<?xml version="1.0" encoding="utf-8"?>
<!-- Generator: Adobe Illustrator 19.1.0, SVG Export Plug-In . SVG Version: 6.00 Build 0)  -->
<svg version="1.2" baseProfile="tiny" xmlns="http://www.w3.org/2000/svg" xmlns:xlink="http://www.w3.org/1999/xlink" x="0px"
	 y="0px" width="64px" height="64px" viewBox="0 0 64 64" xml:space="preserve">
<g id="_x36_4px_Box">
	<rect fill="none" width="64" height="64"/>
</g>
<g id="Icon">
	<g>
		<path d="M13.9933,45.9096c-0.9975,0.2707-2.559,0.671-4.3165-0.6508c-1.1753-0.8848-1.877-2.29-1.877-3.7588
			c0-1.7681,1.0145-3.3281,2.3125-4.0479l8.3323-4.6036C16.754,31.6846,14.7078,31,12.5,31C6.701,31,2,35.701,2,41.5
			C2,47.299,6.701,52,12.5,52c5.225,0,9.5462-3.8206,10.3529-8.8179C22.0733,43.4261,14.9762,45.6429,13.9933,45.9096z"/>
		<path d="M56.1518,32.0972l-5.1539,4.9534C51.1649,37.0318,51.328,37,51.5,37c2.4853,0,4.5,2.0147,4.5,4.5S53.9853,46,51.5,46
			S47,43.9853,47,41.5c0-0.2302,0.0344-0.4512,0.0677-0.6722l-4.1957,4.0325c-0.3458,0.3326-0.6255,0.7216-0.8467,1.1423
			C43.7123,49.5453,47.3149,52,51.5,52C57.299,52,62,47.299,62,41.5C62,37.3737,59.614,33.8136,56.1518,32.0972z"/>
		<path d="M55.8889,20.8889c-2.0988-2.5562-6.2073-6.2235-10.3709-8.1647c-0.9759-0.455-1.9266,0.6887-1.3214,1.5792
			c1.6484,2.4251,4.4155,7.5629,3.4283,9.6342c-1.1902,2.4973-7.267,3.5833-10.4766,4.772
			c-3.0505,1.1298-5.1753,2.3991-6.2892,4.4946c-0.9545,1.7955-0.702,4.6447-0.4886,5.8552
			c-0.0408,0.0328-0.2268,0.0719-0.3403-0.1274c-0.5862-1.0297-1.4466-3.0796-0.9935-5.4796
			c0.5649-2.9927,3.3894-5.4607,6.7789-6.6658c4.6061-1.6378,9.3774-2.4103,9.2199-4.35C44.9143,20.9435,34.5,14.9375,28,24
			l-12.125-0.875l-0.5807-2.074c-0.1788-0.6386-0.7183-1.111-1.3749-1.204l-6.5023-1.0266
			c-1.5881-0.225-2.5041,1.1844-2.5041,2.7883c0,1.1166,0.3622,2.1456,1.4203,2.5024l11.102,3.7509
			c2.5453,0.8596,4.622,2.5793,5.9513,4.7695l-12.2104,6.7463l0.0032,0.0073C10.4733,39.8269,10,40.6057,10,41.5
			c0,1.6075,1.5252,2.8708,3.1884,2.392c0.0038,0.0085,7.8412-2.4442,11.8116-3.6874v4.2605C25,46.4174,26.5826,48,28.5349,48
			h8.8853c0.9883,0,1.8525-0.6662,2.1041-1.6221c0.3111-1.1823,0.942-2.2559,1.8234-3.103l13.3452-12.8267
			C57.4731,27.7761,58.3359,23.8693,55.8889,20.8889z"/>
	</g>
</g>
</svg>
