<?xml version="1.0" encoding="utf-8"?>
<!-- Generator: Adobe Illustrator 22.1.0, SVG Export Plug-In . SVG Version: 6.00 Build 0)  -->
<!DOCTYPE svg PUBLIC "-//W3C//DTD SVG 1.1//EN" "http://www.w3.org/Graphics/SVG/1.1/DTD/svg11.dtd">
<svg version="1.1" xmlns="http://www.w3.org/2000/svg" xmlns:xlink="http://www.w3.org/1999/xlink" x="0px" y="0px" width="64px"
	 height="64px" viewBox="0 0 64 64" style="enable-background:new 0 0 64 64;" xml:space="preserve">
<style type="text/css">
	.st0{fill:none;}
	.st1{fill:none;stroke:#000000;stroke-width:3;stroke-miterlimit:10;}
	.st2{fill:none;stroke:#000000;stroke-width:2;stroke-miterlimit:10;}
	.st3{stroke:#000000;stroke-width:3;stroke-miterlimit:10;}
	.st4{fill:#FFFFFF;}
	.st5{fill:#FFFFFF;stroke:#FFFFFF;stroke-width:4;stroke-miterlimit:10;}
	.st6{fill:none;stroke:#FFFFFF;stroke-width:2;stroke-miterlimit:10;}
	.st7{fill:#FFFFFF;stroke:#000000;stroke-width:3;stroke-linejoin:round;stroke-miterlimit:10;}
	.st8{stroke:#000000;stroke-width:3;stroke-linejoin:round;stroke-miterlimit:10;}
	.st9{fill:none;stroke:#FFFFFF;stroke-width:3;stroke-linecap:square;stroke-miterlimit:10;}
	.st10{fill:none;stroke:#000000;stroke-width:3;stroke-linecap:round;stroke-linejoin:round;stroke-miterlimit:10;}
	.st11{fill:#FFFFFF;stroke:#000000;stroke-width:3;stroke-miterlimit:10;}
	.st12{fill:#FFFFFF;stroke:#FFFFFF;stroke-width:6.4;stroke-miterlimit:10;}
	.st13{stroke:#FFFFFF;stroke-width:6.4;stroke-miterlimit:10;}
	.st14{fill:#FFFFFF;stroke:#FFFFFF;stroke-width:4.4;stroke-miterlimit:10;}
</style>
<g id="Boxes">
	<rect x="0" class="st0" width="64" height="64"/>
</g>
<g id="Icons">
	<g>
		<path d="M60.9,29.8c1-0.7,1.6-1.5,1.8-1.9c0.4-0.8,0.1-2.3-1.3-2.6c-0.6-0.1-1.8,0-2.9,0.1c-0.8-2.9-2.2-7.7-3.1-8.5
			c-1.1-1.2-5-1.7-13.5-1.7S29.6,15.8,28.5,17c-0.8,0.9-2.2,5.6-3.1,8.5c-1-0.1-2.2-0.3-2.9-0.1c-1.4,0.3-1.7,1.7-1.3,2.6
			c0.2,0.4,0.8,1.2,1.8,1.9C21.5,32,21,33.9,21,37.5c0,4.6,0,9.7,0,9.7s0,2.8,0.4,4.7c0.1,0.7,0.8,1.2,1.5,1.2H28
			c0.7,0,1.4-0.5,1.5-1.2c0.2-1.1,0.4-2.4,0.5-3.4c0,0-4.6-0.9-4.8-1c-0.3-0.1-0.3-0.3-0.3-0.4H42h17.2c0,0.2,0,0.3-0.3,0.4
			c-0.3,0.1-4.8,0.9-4.8,0.9c0,1,0.2,2.4,0.5,3.5c0.1,0.7,0.8,1.2,1.5,1.2h5.1c0.7,0,1.4-0.5,1.5-1.2c0.4-1.9,0.4-4.7,0.4-4.7
			s0-5.1,0-9.7C63,33.9,62.5,32,60.9,29.8z M31,19.3c0.5-0.2,4.1-0.7,11-0.7s10.5,0.4,11,0.7c0.5,0.8,2,6.5,2.5,8.7
			c-2.5,0.7-8,1.1-13.5,1.1S31,28.7,28.5,28C28.9,25.8,30.5,20.2,31,19.3z M32.3,41.3l-4.9-0.4c-1.3-0.1-2.2-1.2-2.4-2.3l-0.2-1.4
			c-0.1-0.9,0.8-1.6,1.7-1.4l4,1.1c0.9,0.3,1.5,1,1.8,1.9l0.5,2C32.9,41.1,32.6,41.3,32.3,41.3z M47,44H37v-2h10V44z M59.2,37.1
			L59,38.6c-0.2,1.2-1.1,2.2-2.4,2.3l-4.9,0.4c-0.3,0-0.5-0.2-0.5-0.5l0.5-2c0.3-0.9,0.9-1.5,1.8-1.9l4-1.1
			C58.5,35.5,59.4,36.3,59.2,37.1z"/>
		<path d="M9.5,15.8c2.2,0,3.5-1.6,3.5-3.8C13,9.4,11.7,8,9.5,8C7.2,8,6,9.6,6,12C6,14.4,7.3,15.8,9.5,15.8z"/>
		<path d="M13.5,17.6c-2.4-0.6-5.7-0.6-8,0c-4.6,1.1-4.4,8.8-4.4,15.1c0.2,2.2,1.8,2.8,2.8,2.8c0-0.1,0-1.2,0-2.2c0-0.5,0-3.3,0-3.6
			c0-2.7,0.5-5.6,0.8-6.6C4.8,22.8,5,22.9,5,22.9v12V53c0,0,3.3,0,3.6-3.7c0,0,0.5-14,0.5-14.1c0-0.2,0.1-0.4,0.4-0.4
			s0.4,0.2,0.4,0.4c0,0.2,0.5,14,0.5,14C10.6,53,14,53,14,53V34.8v-12c0,0,0.2-0.1,0.3,0.2c0.3,0.9,0.8,3.8,0.8,6.5
			c0,0.5,0,3.4,0,3.9c0,1,0,2,0,2c1,0,2.6-0.6,2.8-2.8C17.9,26.4,18.2,18.7,13.5,17.6z"/>
		<path d="M46.5,27c2,0,3.2-1.4,3.2-3.4c0-2.3-1.2-3.6-3.2-3.6c-2.1,0-3.2,1.5-3.2,3.6C43.4,25.8,44.5,27,46.5,27z"/>
	</g>
</g>
</svg>
