<?xml version="1.0" encoding="utf-8"?>
<!-- Generator: Adobe Illustrator 18.1.0, SVG Export Plug-In . SVG Version: 6.00 Build 0)  -->
<svg version="1.2" baseProfile="tiny" xmlns="http://www.w3.org/2000/svg" xmlns:xlink="http://www.w3.org/1999/xlink" x="0px"
	 y="0px" width="64px" height="64px" viewBox="0 0 64 64" xml:space="preserve">
<g id="Box">
	<rect fill="none" width="64" height="64"/>
</g>
<g id="Icon">
	<g>
		<path d="M37.3541,58.1667l9.6555-16.6387l9.8238,16.6387H37.3541z M61.7699,59.5037L48.4168,36.8872
			c-0.2974-0.5042-0.8393-0.8134-1.4248-0.8134c-0.0022,0-0.0043,0-0.0065,0c-0.5877,0.0022-1.1296,0.3162-1.4248,0.8242
			L32.4359,59.5145c-0.2968,0.5118-0.2979,1.1437-0.0027,1.6565S33.2752,62,33.8672,62h26.4779
			c0.5942,0,1.1426-0.3184,1.4372-0.8344C62.077,60.6495,62.0721,60.0155,61.7699,59.5037z"/>
		<g>
			<path d="M46.9834,32.5737c0.9376,0,1.8405,0.2601,2.624,0.7217c0.672-3.7582,1.3335-8.5092,1.3335-12.6741
				c0,0-1.7031-1.1655-4.9409-2.3929V9.683C46,9.3057,45.6942,9,45.317,9H41V3.683C41,3.3057,40.6942,3,40.317,3H24.683
				C24.3057,3,24,3.3057,24,3.683V9h-4.317C19.3057,9,19,9.3057,19,9.683v6.6472c1.9167-0.7469,5.6731-1.9648,8.9451-2.3587
				c5.6978-0.6858,9.6924,0.4202,12.248,1.9849c0.3333,0.2041,0.4301,0.4456,0.4041,0.6767
				c-2.5996-0.703-5.4138-1.2156-8.0972-1.2156c-8.5527,0-18.4409,5.2039-18.4409,5.2039c0,6.1339,1.6577,14.8372,2.0172,16.0978
				c0.6669,0.2972,1.3905,0.531,1.9667,0.531c1.9285,0,4.1924-1.8942,6-3.2502c1.6643,1.2486,4.041,3.2502,6,3.2502
				c1.9285,0,4.1924-1.8942,6-3.2502c1.4744,1.1061,3.5065,2.7964,5.3132,3.1695l1.178-2.0298
				C43.4512,33.5635,45.1553,32.5801,46.9834,32.5737z M29,29h-9v-4.0205c0-0.755,0.6117-1.366,1.366-1.366
				c0.7544,0,1.366,0.611,1.366,1.366v1.366h3.5361v-1.366c0-0.7551,0.6116-1.366,1.366-1.366c0.7543,0,1.366,0.6109,1.366,1.366V29
				z M36,29v-4.0205c0-0.755,0.6117-1.366,1.366-1.366c0.7544,0,1.366,0.611,1.366,1.366v1.366h3.5361v-1.366
				c0-0.7551,0.6116-1.366,1.366-1.366c0.7543,0,1.366,0.6109,1.366,1.366V29H36z"/>
			<path d="M36.043,36.34c-1.0002,0.7503-3.4848,2.75-6,2.75c-2.4616,0-4.9159-1.9367-6-2.75c-1.0002,0.7503-3.4848,2.75-6,2.75
				c-2.4616,0-4.9159-1.9367-6-2.75c-1.0002,0.7503-3.4848,2.75-6,2.75c-1.0183,0-2.1245-0.3893-3.043-0.8273v4.2183
				C3.9426,42.7856,4.9789,43,6.043,43c2.397,0,4.6631-1.0762,6-1.8633c1.3369,0.7871,3.603,1.8633,6,1.8633s4.6631-1.0762,6-1.8633
				c1.3369,0.7871,3.603,1.8633,6,1.8633s4.6631-1.0762,6-1.8633c0.6132,0.361,1.4277,0.7795,2.355,1.1304l2.0054-3.4556
				C38.3472,38.1888,37.043,37.0902,36.043,36.34z"/>
			<path d="M36.043,44.34c-1.0002,0.7503-3.4848,2.75-6,2.75c-2.4616,0-4.9159-1.9367-6-2.75c-1.0002,0.7503-3.4848,2.75-6,2.75
				c-2.4616,0-4.9159-1.9367-6-2.75c-1.0002,0.7503-3.4848,2.75-6,2.75c-1.0183,0-2.1245-0.3893-3.043-0.8273v4.2183
				C3.9426,50.7856,4.9789,51,6.043,51c2.397,0,4.6631-1.0762,6-1.8633c1.3369,0.7871,3.603,1.8633,6,1.8633s4.6631-1.0762,6-1.8633
				c1.3369,0.7871,3.603,1.8633,6,1.8633c1.3323,0,2.6174-0.3361,3.7319-0.7667l3.0706-5.2912L36.043,44.34z"/>
			<path d="M31.0234,54.9745c-2.5729,0.5188-4.8809-1.0595-6.9805-2.6345c-1.0002,0.7503-3.4848,2.75-6,2.75
				c-2.4616,0-4.9159-1.9367-6-2.75c-1.0002,0.7503-3.4848,2.75-6,2.75c-1.0183,0-2.1245-0.3893-3.043-0.8273v4.2183
				C3.9426,58.7856,4.9789,59,6.043,59c2.397,0,4.6631-1.0762,6-1.8633c1.3369,0.7871,3.603,1.8633,6,1.8633s4.6631-1.0762,6-1.8633
				c1.1254,0.6626,2.9116,1.5223,4.8777,1.7802c0.115-0.4004,0.2739-0.7908,0.4875-1.1591L31.0234,54.9745z"/>
		</g>
	</g>
	<path d="M46.9894,54.6688c-0.8052,0-1.2236,0.5795-1.2236,1.3202c0,0.8373,0.4509,1.2877,1.2399,1.2877
		c0.8047,0,1.2236-0.5633,1.2236-1.2877C48.2293,55.1355,47.7784,54.6688,46.9894,54.6688z"/>
	<polygon points="46.0669,53.5874 47.9658,53.5366 47.9658,51.2083 48.1457,46.044 46.0669,46.2305 	"/>
</g>
</svg>
