<?xml version="1.0" encoding="utf-8"?>
<!-- Generator: Adobe Illustrator 21.0.2, SVG Export Plug-In . SVG Version: 6.00 Build 0)  -->
<!DOCTYPE svg PUBLIC "-//W3C//DTD SVG 1.1//EN" "http://www.w3.org/Graphics/SVG/1.1/DTD/svg11.dtd">
<svg version="1.1" xmlns="http://www.w3.org/2000/svg" xmlns:xlink="http://www.w3.org/1999/xlink" x="0px" y="0px" width="64px"
	 height="64px" viewBox="0 0 64 64" style="enable-background:new 0 0 64 64;" xml:space="preserve">
<style type="text/css">
	.st0{fill:none;}
</style>
<g id="_x36_4px_Box">
	<rect class="st0" width="64" height="64"/>
</g>
<g id="Icon">
	<g>
		<g>
			<path d="M54,51.3c-1.7,1.2-3.7,2.8-6,2.7c-2.4,0-4.9-1.9-6-2.7c-1,0.8-3.5,2.8-6,2.8c-2.5,0-4.9-1.9-6-2.8c-1,0.8-3.5,2.8-6,2.8
				c-2.5,0-4.9-1.9-6-2.8c-1,0.8-3.5,2.8-6,2.8c-2.5,0-4.9-1.9-6-2.8c-0.7,0.6-2.3,1.8-4,2.4v4c1.6-0.4,3.1-1.1,4-1.6
				c1.3,0.8,3.6,1.9,6,1.9c2.4,0,4.7-1.1,6-1.9c1.3,0.8,3.6,1.9,6,1.9c2.4,0,4.7-1.1,6-1.9c1.3,0.8,3.6,1.9,6,1.9
				c2.4,0,4.7-1.1,6-1.9c1.8,1,3.9,1.9,6,1.9c2.4,0,4.7-1.1,6-1.9c1.3,0.8,3.6,1.9,6,1.9c0.7,0,1.3-0.1,2-0.2v-4.1
				c-0.6,0.2-1.3,0.4-2,0.4C57.6,54.1,55.1,52.2,54,51.3z M5,35.1c0,4.7,1.1,10.2,1.9,14.2c1.3,1,3.4,2.6,5.1,2.6c1.9,0,4.3-2,6-3.3
				c1.8,1.4,4.1,3.3,6,3.3c1.9,0,4.3-2,6-3.3c1.8,1.4,4.1,3.3,6,3.3c1.7,0,3.8-1.6,5-2.6c0.8-4,1.9-9.5,1.9-14.3c0,0-2.7-1.2-6-2.4
				V24c0-0.6-0.4-1-1-1h-3v-5c0-0.6-0.4-1-1-1H16c-0.6,0-1,0.4-1,1v5h-3c-0.6,0-1,0.4-1,1v6.8c2.8-1.1,5.1-1.7,8.1-2.1
				c5.7-0.8,10.1,0,12.6,1.6c0.3,0.2,0.4,0.5,0.4,0.7c-2.6-0.7-5.5-1-8.2-1C15.4,30,5,35.1,5,35.1z M20,43h-8v-4c0-0.6,0.4-1,1-1
				s1,0.4,1,1v2h4v-2c0-0.6,0.4-1,1-1s1,0.4,1,1V43z M28,39c0-0.6,0.4-1,1-1s1,0.4,1,1v2h4v-2c0-0.6,0.4-1,1-1s1,0.4,1,1v4h-8V39z
				 M57.3,38c-0.7-0.6-1.3-1.7-1.6-3h0.2c0.5,0,1-0.4,1-1v0c0-0.5-0.4-1-1-1h-0.2c0.3-1,1.2-1.5,1.2-2.9c0-1.7-2.1-1.8-2.9-1.8
				c-0.8,0-2.9,0.1-2.9,1.8c0,1.4,0.9,2,1.2,2.9h-0.2c-0.5,0-1,0.4-1,1v0c0,0.5,0.4,1,1,1h0.2c-0.2,1.3-0.8,2.4-1.6,3H49v13.7
				c1.6-0.5,3.4-1.9,5-3.1c1.8,1.4,4.1,3.3,6,3.3c0.6,0,1.4-0.3,2-0.5V38H57.3z"/>
		</g>
	</g>
</g>
</svg>
