<?xml version="1.0" encoding="utf-8"?>
<!-- Generator: Adobe Illustrator 22.1.0, SVG Export Plug-In . SVG Version: 6.00 Build 0)  -->
<!DOCTYPE svg PUBLIC "-//W3C//DTD SVG 1.1//EN" "http://www.w3.org/Graphics/SVG/1.1/DTD/svg11.dtd">
<svg version="1.1" xmlns="http://www.w3.org/2000/svg" xmlns:xlink="http://www.w3.org/1999/xlink" x="0px" y="0px" width="64px"
	 height="64px" viewBox="0 0 64 64" style="enable-background:new 0 0 64 64;" xml:space="preserve">
<style type="text/css">
	.st0{fill:none;}
</style>
<g id="Box">
	<rect class="st0" width="64" height="64"/>
</g>
<g id="Label">
</g>
<g id="Icon">
	<g>
		<path d="M53.5,43c-4.1,0-7.5,3.4-7.5,7.5s3.4,7.5,7.5,7.5s7.5-3.4,7.5-7.5S57.6,43,53.5,43z M53.5,54.1c-2,0-3.6-1.6-3.6-3.6
			c0-2,1.6-3.6,3.6-3.6s3.6,1.6,3.6,3.6C57.1,52.5,55.5,54.1,53.5,54.1z"/>
		<path d="M53.1,41l-4.5-31l2.2-1.3c0.7-0.4,1-1.2,0.9-2c-0.2-1-1.2-1.7-2.2-1.4s-2.5,0.5-4,0.9c-1.3,0.3-2.2,1.5-2,2.8
			s4.1,28.4,4.1,28.4c-3.5,1.6-6.4,4.6-7.7,8.4c-0.5,1.4-1.7,2.3-3,2.3H19.1c-0.9-4.1-4.6-7.2-9.3-7.2c-3.2,0-5.9,1.2-7.7,3.6
			C1.5,45,2,46,2.8,46h6.1c0,0.1,0.1,0.3-0.2,0.4l-3.8,0.8c-0.5,1-0.8,2.2-0.8,3.4c0,4.1,3.4,7.5,7.5,7.5c3.3,0,6-2.1,7.1-5h18.3
			c3.4,0,6.5-2.3,7.7-5.6c0.4-1.2,1.1-2.3,2.1-3.4C48.2,42.3,50.5,41.1,53.1,41z M11.5,54.1c-2,0-3.6-1.6-3.6-3.6
			c0-2,1.6-3.6,3.6-3.6c2,0,3.6,1.6,3.6,3.6C15.1,52.5,13.5,54.1,11.5,54.1z"/>
	</g>
</g>
</svg>
