<?xml version="1.0" encoding="utf-8"?>
<!-- Generator: Adobe Illustrator 17.1.0, SVG Export Plug-In . SVG Version: 6.00 Build 0)  -->
<svg version="1.2" baseProfile="tiny" xmlns="http://www.w3.org/2000/svg" xmlns:xlink="http://www.w3.org/1999/xlink" x="0px"
	 y="0px" width="64px" height="64px" viewBox="0 0 64 64" xml:space="preserve">
<g id="Box">
	<rect fill="none" width="64" height="64"/>
</g>
<g id="Icon">
	<g>
		<path d="M57,30h-1c-0.5522,0-1,0.4478-1,1v9c0,0.5522,0.4478,1,1,1h1c1.1045,0,2-0.8955,2-2v-7C59,30.8955,58.1045,30,57,30z"/>
		<path d="M8,30H7c-1.1046,0-2,0.8955-2,2v7c0,1.1045,0.8954,2,2,2h1c0.5522,0,1-0.4478,1-1v-9C9,30.4478,8.5522,30,8,30z"/>
		<path d="M48.3667,24h-7.6573l-1.0907,4h8.5621c0.5194,0,0.9536,0.3944,0.9964,0.9121c0.4144,5.0116,0.8218,7.4237,0.8598,14.0884
			C50.0403,43.5552,49.5885,44,49.0337,44H14.9662c-0.5547,0-1.0065-0.4447-1.0033-0.9995
			c0.038-6.6624,0.4452-9.0732,0.8612-14.0887C14.8671,28.3942,15.3011,28,15.8205,28h8.5609l-1.0908-4h-7.6573
			c-2.0747,0-3.6333,2-4.0645,4.5293C10.7354,33.4177,11.1038,34.25,10,45v11c0,0,0,3.5737,0.3661,5.0688
			c0.1334,0.544,0.7218,0.9312,1.4,0.9312h4.4678c0.6781,0,1.2666-0.3872,1.3999-0.9312c0.2215-0.9046,0.3088-2.5668,0.3433-3.7414
			c0,0-3.5943-0.7571-4.5943-0.953C13.067,56.3125,13.0469,56.125,13.0935,56h37.813c0.031,0.1328,0.0154,0.3047-0.344,0.3906
			c-0.1563,0.0374-4.5396,0.9368-4.5396,0.9368c0.0345,1.1745,0.1217,2.8368,0.3432,3.7414c0.1334,0.544,0.7218,0.9312,1.4,0.9312
			h4.4678c0.6781,0,1.2666-0.3872,1.3999-0.9312C54,59.5737,54,56,54,56V45c-1.1669-10.988-0.7355-11.5823-1.5688-16.4707
			C52,26,50.4414,24,48.3667,24z M20,51.5c0,0.2761-0.2239,0.5-0.5,0.5h-5c-0.2761,0-0.5-0.2239-0.5-0.5v-3
			c0-0.2761,0.2239-0.5,0.5-0.5h5c0.2761,0,0.5,0.2239,0.5,0.5V51.5z M36,52h-8v-2h8V52z M50,51.5c0,0.2761-0.2239,0.5-0.5,0.5h-5
			c-0.2761,0-0.5-0.2239-0.5-0.5v-3c0-0.2761,0.2239-0.5,0.5-0.5h5c0.2761,0,0.5,0.2239,0.5,0.5V51.5z"/>
		<path d="M20,22h2.7452l-0.8701-3.191c0.0026,0,0.0056,0.0001,0.0083,0.0001c-0.0032-0.0028-0.0078-0.0036-0.0109-0.0066
			l5.3896-7.1453c0.2334-0.2377,0.3967-0.1037,0.4375-0.0598L24,19l3,10.99h4.1783c-0.0175,1.0426-0.5965,1.4396-0.7889,1.5322
			c-2.5516,1.0299-3.976,3.8243-3.1586,6.6048c0.5906,2.0088,2.3772,3.5265,4.4543,3.7909
			c3.5028,0.4459,5.6009-2.6121,5.1055-5.6684l-0.8889,0.0604c-0.466,0.0317-0.8773,0.3511-0.9813,0.8066
			c-0.2454,1.0758-1.1728,1.9126-2.329,1.9912c-1.5823,0.1074-2.932-1.2498-2.7188-2.9109
			c0.1182-0.9203,0.7716-1.6851,1.6252-2.0487c0.9962-0.4244,2.5167-1.7576,2.5361-4.1481H37l3-11.0001l-3.6996-7.4025
			c0.0408-0.0439,0.2041-0.1779,0.4375,0.0598l5.3896,7.1453c-0.0031,0.003-0.0077,0.0038-0.0109,0.0066
			c0.0027,0,0.0057-0.0001,0.0083-0.0001L41.2548,22H44c1.1046,0,2-0.8954,2-2V5c0-1.1046-0.8954-2-2-2H20c-1.1046,0-2,0.8954-2,2
			v15C18,21.1046,18.8954,22,20,22z"/>
	</g>
</g>
</svg>
