<?xml version="1.0" encoding="utf-8"?>
<!-- Generator: Adobe Illustrator 19.1.0, SVG Export Plug-In . SVG Version: 6.00 Build 0)  -->
<svg version="1.2" baseProfile="tiny" xmlns="http://www.w3.org/2000/svg" xmlns:xlink="http://www.w3.org/1999/xlink" x="0px"
	 y="0px" width="64px" height="64px" viewBox="0 0 64 64" xml:space="preserve">
<g id="_x36_4px_Box">
	<rect fill="none" width="64" height="64"/>
</g>
<g id="Icon">
	<g>
		<path d="M10.0001,61h6l1.0225-5.1126c-1.9041-0.3669-3.5695-0.8895-5.0284-1.5344L10.0001,61z"/>
		<path d="M28.8706,45.5142c-1.4634-2.5068-0.9043-5.6714,1.3301-7.5249c2.2329-1.853,5.4468-1.8193,7.6401,0.0815l4.8847,4.2316
			c0.1988-0.9785,0.3297-2.0323,0.3742-3.1774l0.8955-22.9971c0.043-1.104-0.1885-2.1899-0.6767-3.1552
			c-1.4688-2.8999-4.7461-9.1636-5.9922-9.8658C35.7462,2.2173,29.1359,2,24.0001,2C18.8635,2,12.254,2.2173,10.674,3.1069
			c-1.247,0.7022-4.5234,6.9659-5.9922,9.8658c-0.4882,0.9653-0.7197,2.0512-0.6767,3.1552L4.9006,39.125
			C5.4083,52.1899,16.5919,54,24.0001,54c2.7586,0,6.0405-0.2522,9.0999-1.2419L28.8706,45.5142z M24.0001,6.85
			c1.7401,0,3.15,1.4104,3.15,3.15c0,1.7395-1.4099,3.15-3.15,3.15c-1.7401,0-3.15-1.4105-3.15-3.15
			C20.8502,8.2604,22.2601,6.85,24.0001,6.85z M15.0001,43.15c-1.7401,0-3.15-1.4105-3.15-3.15c0-1.7396,1.4099-3.15,3.15-3.15
			c1.7401,0,3.15,1.4104,3.15,3.15C18.1501,41.7395,16.7402,43.15,15.0001,43.15z M13.7385,29
			c-0.4385,0-0.8262-0.2861-0.9551-0.7061l-3.3848-11C9.2003,16.6509,9.6818,16,10.3536,16h27.293
			c0.6719,0,1.1533,0.6509,0.9551,1.2939l-3.3848,11C35.0881,28.7139,34.7003,29,34.2618,29H13.7385z"/>
		<path d="M30.9777,55.8874L32.0001,61h5.9119l-3.5176-6.0248C33.3477,55.3372,32.2182,55.6484,30.9777,55.8874z"/>
		<path d="M60.5961,32.0159c-1.124-0.8271-2.6934-0.6631-3.6226,0.377L43.6308,47.3201l-7.8853-6.8311
			c-1.0015-0.8677-2.4834-0.8828-3.502-0.0371c-1.0195,0.8457-1.2773,2.3047-0.6094,3.4487l9.9004,16.957
			c0.4829,0.8271,1.3667,1.3374,2.3247,1.3423c0.0044,0,0.0093,0,0.0137,0c0.9526,0,1.8354-0.5005,2.3242-1.3184l15.1191-25.2954
			C62.0322,34.3885,61.7206,32.8426,60.5961,32.0159z"/>
	</g>
</g>
</svg>
