<?xml version="1.0" encoding="utf-8"?>
<!-- Generator: Adobe Illustrator 19.1.0, SVG Export Plug-In . SVG Version: 6.00 Build 0)  -->
<svg version="1.2" baseProfile="tiny" xmlns="http://www.w3.org/2000/svg" xmlns:xlink="http://www.w3.org/1999/xlink" x="0px"
	 y="0px" width="64px" height="64px" viewBox="0 0 64 64" xml:space="preserve">
<g id="_x36_4px_Box">
	<rect fill="none" width="64" height="64"/>
</g>
<g id="Icon">
	<g>
		<path d="M9,26h5.9868c0.0209,0.0562,0.0533,0.288-0.2499,0.3641C13.6076,26.6475,11,27.2751,11,27.2751s0,13.3452,0,13.7247
			c0,1.9645,0.4745,3.9403,1.0449,5.6151c0.827-0.5196,1.4811-1.039,2.998-2.1774c1.8694,1.4021,4.1276,3.2998,6,3.2998
			c1.9193,0,4.3027-2.026,6-3.2998c1.8694,1.4021,4.1276,3.2998,6,3.2998c1.9193,0,4.3027-2.026,6-3.2998
			c1.8694,1.4021,4.1276,3.2998,6,3.2998c1.9193,0,4.3027-2.026,6-3.2998c1.4974,1.123,2.1508,1.6381,2.934,2.1368
			C54.5376,44.9154,55,42.96,55,40.9998C55,40.6203,55,30,55,30c0-1.6569-1.3431-2-3-2s-3,0.3431-3,2v8h-7.9175
			c0.3096,0,0.6338-0.2063,0.6948-0.4962C41.9445,36.7075,42,35.5111,42,35.5111s0-2.1556,0-4.0889
			c0-1.4963-0.2576-2.1269-0.9456-3.0527c0.4219-0.2897,0.7218-0.6363,0.7966-0.808c0.157-0.3592,0.0399-0.9792-0.5599-1.0953
			c-0.2655-0.0515-0.8376-0.0031-1.2816,0.0598c-0.3438-1.2393-0.9457-2.3774-1.2949-2.7419
			c-0.4722-0.4932-3.093-0.7863-5.7141-0.7839c-2.6128,0.0023-5.2258,0.2985-5.7107,0.7839
			c-0.3569,0.3572-0.9482,1.5027-1.292,2.7419c-0.4438-0.0629-1.0094-0.1113-1.2749-0.0598
			c-0.5999,0.1161-0.7031,0.7361-0.5461,1.0953c0.075,0.1717,0.3469,0.5182,0.7688,0.808C24.2576,29.2953,24,29.9258,24,31.4222
			c0,1.9333,0,4.0889,0,4.0889s0.0555,1.1964,0.2227,1.9927C24.2837,37.7937,24.6079,38,24.9175,38H17V26h2
			c0.9873,0,1.8262-0.7207,1.9766-1.6963l2-13c0.0889-0.5762-0.0791-1.1631-0.459-1.6064C22.1377,9.2549,21.584,9,21,9H7
			C6.416,9,5.8623,9.2549,5.4824,9.6973c-0.3799,0.4434-0.5479,1.0303-0.459,1.6064l2,13C7.1738,25.2793,8.0127,26,9,26z
			 M27.2158,38c0.3097,0,0.5784-0.3174,0.6392-0.6073C27.9482,36.9481,28.0458,36,28.0458,36h9.9308
			c0,0,0.0752,0.9481,0.1685,1.3927C38.2058,37.6826,38.4745,38,38.7842,38H27.2158z M39.5903,30.7419
			c0.3755-0.1046,0.7563,0.2102,0.7031,0.5811l-0.0864,0.5997c-0.104,0.4963-0.4514,0.949-1.0187,0.9943l-2.0936,0.1674
			c-0.125,0.0104-0.228-0.1031-0.1971-0.2175l0.2323-0.8627c0.1187-0.3615,0.3972-0.6495,0.7656-0.7913L39.5903,30.7419z
			 M29.0234,25.1089c0.5605-0.0684,1.8037-0.1655,3.9766-0.1655s3.415,0.0972,3.9766,0.1655
			c0.5878,1.5351,0.9204,2.649,1.1256,3.6491c-1.2561,0.1992-3.2474,0.3269-5.1022,0.3269s-3.8462-0.1277-5.1022-0.3269
			C28.103,27.758,28.4478,26.4945,29.0234,25.1089z M26.4097,30.7419l1.6947,0.4708c0.3685,0.1418,0.6471,0.4299,0.7657,0.7913
			l0.2323,0.8627c0.0309,0.1144-0.0721,0.228-0.1971,0.2175l-2.0936-0.1674c-0.5673-0.0453-0.9147-0.4979-1.0187-0.9943
			l-0.0864-0.5997C25.6533,30.9521,26.0342,30.6374,26.4097,30.7419z M18.6689,13l-0.9232,6h-7.4916l-0.9232-6H18.6689z"/>
		<path d="M57.043,49.9374c-2.4615,0-4.9159-1.9367-6-2.75c-1.0001,0.7503-3.4848,2.75-6,2.75c-2.4615,0-4.9159-1.9367-6-2.75
			c-1.0001,0.7503-3.4848,2.75-6,2.75c-2.4615,0-4.9159-1.9367-6-2.75c-1.0001,0.7503-3.4848,2.75-6,2.75
			c-2.4615,0-4.9159-1.9367-6-2.75c-1.0001,0.7503-3.4848,2.75-6,2.75c-1.0184,0-2.1246-0.3893-3.043-0.8273v4.2183
			c0.9427,0.3047,1.9789,0.519,3.043,0.519c2.397,0,4.6631-1.0762,6-1.8633c1.3369,0.7871,3.603,1.8633,6,1.8633
			s4.6631-1.0762,6-1.8633c1.3369,0.7871,3.603,1.8633,6,1.8633s4.6631-1.0762,6-1.8633c1.3369,0.7871,3.603,1.8633,6,1.8633
			s4.6631-1.0762,6-1.8633c1.3369,0.7871,3.603,1.8633,6,1.8633c1.0322,0,2.0372-0.2025,2.957-0.4926v-4.2031
			C59.1001,49.5713,58.0267,49.9374,57.043,49.9374z"/>
	</g>
</g>
</svg>
