<svg xmlns="http://www.w3.org/2000/svg" viewBox="0 0 64 64"><defs><style>.cls-1{fill:none;}</style></defs><g id="BOX"><rect class="cls-1" width="64" height="64"/></g><g id="ICOON"><path d="M31.93,27l6.22-1.2-3.54,3.88,2.47,2.47L42.71,26c.25,1,.57,2.18,1,3.36,2.1,6.45,4.7,9.51,5,9.93a.51.51,0,0,0,.93-.32c-.09-.53-1-3-2.1-7.41a7,7,0,0,1,1-.09,7.12,7.12,0,0,1,1.81,14L53,48a10.46,10.46,0,0,0-4.41-19.95,9.7,9.7,0,0,0-1.79.18c-.53-2.35-1.08-4.75-1.08-4.75h0l-1.76-8.85a1.74,1.74,0,0,0-2-1.38l-5,.76a1.35,1.35,0,0,0,.2,2.69h3.62l1,4.79L29,24Z"/><path d="M39.1,34.15l2.6,2.6a7.16,7.16,0,0,1,1.7-3.06c-.44-1-.87-2.12-1.28-3.36A10.45,10.45,0,0,0,39.1,34.15Z"/><path d="M47.75,45.63l-6.24-6.24-3.14-3.14-2.64-2.64-2.48-2.48-3.7-3.7-3-3-2.86-2.86-3.1-3.1L7.73,5.61,5.61,7.73,16.85,19a1.65,1.65,0,0,0-.33.37c-1.2,1.9,2.7,3.32,3.21,3.49l1.05,3.66s-7.16,10-7.39,10.29A2.7,2.7,0,0,0,15,41.15l6.58.89a7.11,7.11,0,1,1-6.74-10.57l2.29-3.22a10.08,10.08,0,0,0-1.75-.16,10.47,10.47,0,1,0,9.7,14.42l2.92.38a3.46,3.46,0,0,0,4-3.46A3.49,3.49,0,0,0,31.7,38l2-2.2,4.58,4.58a10.46,10.46,0,0,0,8.46,8.46l9.47,9.47,2.12-2.12-7.44-7.44ZM18.29,35.94,22,30.76l1.49,5.18Zm10.56,0H27.14l-2.2-7.62,1-.2,5.24,5.23Z"/><path d="M27.06,20.21a.89.89,0,0,0-.3-1.72H23.44l2.27,2.27C26.32,20.5,26.82,20.3,27.06,20.21Z"/></g></svg>