<?xml version="1.0" encoding="utf-8"?>
<!-- Generator: Adobe Illustrator 17.1.0, SVG Export Plug-In . SVG Version: 6.00 Build 0)  -->
<svg version="1.2" baseProfile="tiny" xmlns="http://www.w3.org/2000/svg" xmlns:xlink="http://www.w3.org/1999/xlink" x="0px"
	 y="0px" width="64px" height="64px" viewBox="0 0 64 64" xml:space="preserve">
<g id="_x36_4px_Boxes">
	<rect fill="none" width="64" height="64"/>
</g>
<g id="Production">
	<g>
		<path d="M57,16h-1c-0.5527,0-1,0.4478-1,1v10c0,0.5522,0.4473,1,1,1h1c1.1045,0,2-0.8955,2-2v-8C59,16.8955,58.1045,16,57,16z"/>
		<path d="M8,16H7c-1.1045,0-2,0.8955-2,2v8c0,1.1045,0.8955,2,2,2h1c0.5527,0,1-0.4478,1-1V17C9,16.4478,8.5527,16,8,16z"/>
		<path d="M49.2461,4.7515C48.5049,3.6509,47.2656,3,45.9385,3c-3.0664,0-9,0-13.9385,0H18.0635
			c-1.3272,0-2.5684,0.6509-3.3096,1.7515C13.3379,6.8535,11.9844,10.4551,11.5,13c-1,5.25-1.5,15-1.5,15v4v21
			c0,0,0,4.1694,0.4121,5.9136C10.5615,59.5483,11.2236,60,11.9863,60H14.5h2.5137c0.7627,0,1.4248-0.4517,1.5742-1.0864
			c0.249-1.0543,0.3472-2.9906,0.3862-4.3606c0,0-5.3991-1.1259-5.5807-1.173c-0.3121-0.0809-0.3544-0.2628-0.2999-0.38h37.813
			c0.0544,0.1406-0.0003,0.2953-0.3124,0.3763c-0.1816,0.0471-5.5682,1.1768-5.5682,1.1768c0.039,1.37,0.1372,3.3063,0.3862,4.3606
			C45.5615,59.5483,46.2236,60,46.9863,60H49.5h2.5137c0.7627,0,1.4248-0.4517,1.5742-1.0864C54,57.1694,54,53,54,53V32v-4
			c0,0-0.417-7.9165-1.5-15C52.1084,10.4395,50.6621,6.8535,49.2461,4.7515z M15.4307,13.8901
			C15.5322,13.3887,15.9121,13,16.4248,13h31.1504c0.5127,0,0.9111,0.3853,0.9941,0.8901C49.25,18,49.833,23,49.8984,26.9111
			C49.9082,27.5,49.4912,28,48.9023,28H15.0986c-0.5898,0-1.0068-0.4995-0.9961-1.0889C14.167,23.25,14.75,17.25,15.4307,13.8901z
			 M20,49c0,0.5522-0.4473,1-1,1h-5c-0.5527,0-1-0.4478-1-1v-3c0-0.5522,0.4473-1,1-1h5c0.5527,0,1,0.4478,1,1V49z M41,45H23l-0.4-2
			h18.8L41,45z M41.8,41H22.2l-0.4-2h20.4L41.8,41z M42.6,37H21.4L21,35h22L42.6,37z M51,49c0,0.5522-0.4473,1-1,1h-5
			c-0.5527,0-1-0.4478-1-1v-3c0-0.5522,0.4473-1,1-1h5c0.5527,0,1,0.4478,1,1V49z"/>
	</g>
</g>
</svg>
