<svg height="64" viewBox="0 0 64 64" width="64" xmlns="http://www.w3.org/2000/svg"><path d="m0 0h64v64h-64z" fill="none"/><path d="m49.6957 50.9252c-1.2224 3.6339-4.6497 6.2548-8.6957 6.2548-5.07 0-9.18-4.1101-9.18-9.18 0-1.7429.4946-3.3664 1.3381-4.7545-.596-.8474-1.0191-1.8351-1.1869-2.976-.066-.4495-.1253-.9359-.179-1.445-2.343 2.3513-3.7922 5.5939-3.7922 9.1755 0 7.1797 5.8203 13 13 13 4.3248 0 8.1456-2.1204 10.5089-5.3692-.0104-.0255-.0224-.0474-.0328-.0732-.5467-1.3622-1.1557-2.9592-1.7804-4.6324z"/><path d="m55.6262 43.5565c-1.5733-5.4054-2.0868-5.3978-5.1462-6.0981-2.8189-.6453-6.6585-.8462-6.6585-.8462 0-5.0806 0-9.2867 0-9.2867 0-4.8815-4.6288-5.5887-7.0287-4.5721-1.0569.4476-1.8954 1.4245-2.3015 3.553-.7299 3.826-.5618 10.0904-.0464 13.5994.5443 3.7036 4.2474 3.85 5.264 3.85h10.0156c1.3522 3.7057 2.8604 7.8522 4.0719 10.8705 1.5612 3.8895 4.4987 3.4567 5.35 3.2406-1.0487-4.5777-2.187-9.6114-3.5202-14.3104z"/><path d="m40.471 20.7563c2.7443.0193 4.3463-1.8908 4.3657-4.6577.0226-3.1525-1.6252-4.8545-4.298-4.874-2.8154-.0201-4.3464 1.968-4.3668 4.8119-.0218 2.9974 1.5554 4.6995 4.2991 4.7198z"/><path d="m17.446 10.7713c2.7443.0193 4.3463-1.8908 4.3657-4.6577.0226-3.1525-1.6253-4.8545-4.298-4.874-2.8154-.0201-4.3464 1.968-4.3667 4.8118-.0219 2.9976 1.5553 4.6996 4.299 4.7199z"/><path d="m31.9241 31.5186c-.7054-1.1541-5.8281-8.2764-6.2478-9.0015-3.1586-5.3047-3.8026-9.3085-7.2537-10.0081-1.4993-.304-3.2012-.3901-4.4664.5738-1.7065 1.3002-2.0588 3.6371-1.9079 6.8139.2011 4.2339.7525 5.6917-.5205 8.6619-.8153 1.9025-1.2343 2.8893-1.8364 5.1583-.5692 2.1455-1.1624 3.655-2.3684 8.1716 1.0544.7825 3.8065 2.175 8.0356 2.2251.1339.282-.0369.8304-.9531 1.041-.6909.1588-1.8688.3317-3.2656.2805-.5338 2.6122-2.02 7.1506-2.5495 10.3054-.4299 2.5607 1.242 4.8586 2.6098 5.2595 1.7187-5.432 2.7197-8.335 3.6879-11.1408.3376 2.8102.5905 5.2981.7337 6.2469.4978 3.2974 2.9617 4.9605 4.3296 4.8561l-.4182-17.272c1.8115-.4538 3.17-1.1547 3.17-1.1547-.4852-6.3079-1.8274-9.2096-2.6686-11.882.3293-3.2501.5584-6.7369.588-9.5022.7863 1.6423 1.8794 3.633 3.0868 5.0062 1.5345 1.7451 2.2516 2.8765 3.6286 4.3052 1.9489 2.022 3.6037 1.642 4.5861 1.0559z"/></svg>