<svg height="64" viewBox="0 0 64 64" width="64" xmlns="http://www.w3.org/2000/svg"><path d="m0 0h64v64h-64z" fill="none"/><path d="m19.5597 11.5237c2.8945.886 5.1898-.6281 6.0831-3.5468 1.0178-3.3243-.1871-5.6429-3.006-6.5062-2.9696-.9087-5.2144.7093-6.1326 3.7094-.9679 3.1616.1616 5.4577 3.0555 6.3436z"/><path d="m30.8538 10.7576c2.3792.6923 4.2229-.6358 4.8955-3.1254.7664-2.8355-.2617-4.7749-2.5787-5.4494-2.4408-.7101-4.2415.7051-4.9327 3.2641-.7287 2.6968.2373 4.6185 2.6159 5.3107z"/><path d="m7.8925 10.7697c2.3889.6682 4.2227-.6788 4.8727-3.1754.7407-2.8435-.3071-4.7726-2.6337-5.4236-2.4508-.6853-4.2406.7482-4.9087 3.3144-.7043 2.7044.2812 4.6165 2.6697 5.2846z"/><path d="m37.7057 45.95c.4163 3.1157 1.1038 6.1913 2.059 9.1904.3589 1.1103 1.6111 1.8202 2.7435 1.6017.3641-.0703.7281-.1406 1.0922-.2108-1.1016-2.4022-3.3225-7.7689-3.368-7.8549-.3656-.6895-1.9182-2.1065-2.5267-2.7264z"/><path d="m26.9124 48.9307c-.2096-.6752-.4072-1.299-.5839-1.8373-.8951-2.7269-1.016-2.7699-1.5951-3.7217-.6775-1.1134-1.3194-1.9691-1.9498-2.8424-1.3216-1.7959-2.694-3.5524-4.0899-5.2991.7922-2.983 4.5994-15.687 3.3896-18.6968-1.0278-2.3485-6.2377-4.8454-9.8432-2.6969-1.9837 1.1821-5.7144 3.9563-7.6051 6.0283-1.1489 1.2746-1.613 2.0419-2.1057 4.8385-.3 1.7635-.4926 3.8031-.5282 5.5777-.0396 1.9717 1.0039 3.8375 3.0701 4.2678.4451-3.3688 1.1487-8.403 2.2279-10.5869.4394-.889 2.4294-2.2172 3.2609-2.7574-.5286 2.4518-2.3518 10.6283-2.3518 12.5007 0 2.3154 1.4959 3.518 2.451 4.5186l3.7331 3.9111s-.1386.2378-.4566.0537c-1.6328-.9453-3.7839-2.1867-3.7839-2.1867-.5365 2.0231-1.4125 5.3192-2.1817 7.2795-.6125 1.5609-.4012 1.1173-.9948 2.1323-1.201 2.0535-2.751 4.1289-4.0837 6.4602-2.1914 3.8334.4587 6.6486.8304 7.0083 2.1537-3.0253 5.866-7.4979 7.9595-10.6465.7007-1.0398.7781-1.1244 1.5663-2.6381.5991-1.2116 1.4144-2.9511 2.5855-5.852.5138.4693 1.0106.9995 1.524 1.5161 1.2635 1.2713 2.0442 1.8894 2.5422 2.8286.1504.2837.4639.9288.7798 1.7426.8383 2.1595 1.5974 3.9088 2.2648 5.384.0162-.0291.0278-.0577.0445-.0869.7501-1.3121 1.5535-2.5287 2.3306-3.7052.5704-.8639 1.1035-1.6835 1.5932-2.4941z"/><path d="m29.721 59.4171c-.7833 1.0127-1.5304 1.9814-2.2098 2.8842 1.3477.6316 2.7663.6596 3.3403.4857-.2487-.9828-.58-2.2259-.9562-3.5957-.0581.0751-.1163.1507-.1743.2258z"/><path d="m60.6036 38.2477c-.3588-1.1102-1.6111-1.8204-2.7435-1.6018-1.8532.3576-3.6759.7253-5.5292 1.0829l-.2181-1.1006c-.2396-1.2083-1.2605-2.0853-2.4276-2.0853-.0145 0-.0289.004-.0436.0043-1.171-2.2498-2.651-4.9542-2.8672-5.9888-.5394-2.4711-.3733-8.9693-1.0446-10.96-.5274-1.564-2.0953-3.0026-3.5302-3.8024-2.3404-1.3539-6.0156-2.0775-8.4059-.6531-2.0164 1.2017-5.8087 4.0216-7.7307 6.1279-1.1679 1.2957-2.4548 2.0756-2.9557 4.9184-.3049 1.7926-.7198 3.8682-.756 5.6721-.0261 1.2986.4174 2.5448 1.299 3.3854 0 0 .8904.6707 1.8232.9425 0 0 .5992-5.5485 2.446-9.9164.3926-.9285 3.3211-3.0911 4.1662-3.6403-.5373 2.4923-2.3906 10.8038-2.3906 12.7071 0 2.3537 1.5207 3.5761 2.4916 4.5933l3.7947 3.9756s-.1408.2418-.4642.0546c-1.6598-.9608-3.8464-2.2228-3.8464-2.2228-1.0912 4.1153-2.0268 7.512-3.2288 9.5672-1.2209 2.0875-2.7966 4.1971-4.1512 6.5669-2.2276 3.8967.4663 6.7584.8442 7.124 2.1892-3.0752 5.9628-7.6216 8.0909-10.8223 1.6575-2.4597 2.8979-5.3544 4.2204-8.6303.6759.6174 3.6636 3.5308 4.1333 4.4164.1529.2884.4716.9441.7927 1.7714 1.9601 5.0497 3.5273 7.9895 4.395 10.0593 1.3045 3.1118 4.9286 3.4169 5.9451 3.1088-.9998-3.9526-3.3099-12.0297-4.5976-15.9528-.9099-2.7719-1.0328-2.8156-1.6215-3.7831-1.363-2.24-4.4984-6.2226-6.1394-8.2759.2359-1.2373 1.0387-4.7197 1.8746-8.3722.0956.9484.2289 1.9399.4985 3.0301.3303 1.2717 2.6301 4.9299 3.325 5.8596-.8061.5447-1.2518 1.5715-1.042 2.6292l.0966.4869c1.6794 2.2356 2.2289 3.1024 2.8553 4.1191.5432.8762.7733 1.3075 1.6017 3.8307.6876 2.0949 1.6414 5.2895 2.5369 8.4179 2.9915-.5771 5.9525-1.1645 8.9439-1.7416 1.1323-.2186 2.0306-1.3434 1.9507-2.5075-.3074-4.2111-1.1102-8.3713-2.3915-12.3944zm-13.3866.4678-.213-1.0744c-.0568-.2866.0715-.5536.2864-.5962l2.3358-.4632c.237-.0472.4424.1904.4921.4419l.2162 1.0904c-1.039.2005-2.0783.401-3.1175.6015z"/><path d="m42.1348 11.5605c2.8396 1.1096 5.2513-.2579 6.3583-3.1519 1.2611-3.2961.2198-5.735-2.5455-6.816-2.9131-1.1382-5.2819.3384-6.4195 3.3131-1.1994 3.1349-.2322 5.5453 2.6067 6.6548z"/></svg>