<?xml version="1.0" encoding="utf-8"?>
<!-- Generator: Adobe Illustrator 17.1.0, SVG Export Plug-In . SVG Version: 6.00 Build 0)  -->
<svg version="1.2" baseProfile="tiny" xmlns="http://www.w3.org/2000/svg" xmlns:xlink="http://www.w3.org/1999/xlink" x="0px"
	 y="0px" width="64px" height="64px" viewBox="0 0 64 64" xml:space="preserve">
<g id="_x36_4px_Boxes">
	<rect fill="none" width="64" height="64"/>
</g>
<g id="Production">
	<rect fill="none" width="64" height="64"/>
	<g>
		<path d="M24.583,10.6926c0.9248,0,1.2607-0.0561,2.0459-0.2241v-1.373c-0.7578,0.1401-1.1777,0.1821-1.9336,0.1821
			c-1.4707,0-2.8154-1.0083-2.8154-3.1797c0-2.2412,1.3164-3.3198,2.8711-3.3198c0.6729,0,1.0088,0.0141,1.7373,0.1401l0.126-1.4287
			c-0.6299-0.126-1.1064-0.1821-1.8076-0.1821c-2.5488,0-4.6914,1.625-4.6914,4.959C20.1152,9.2356,22.0479,10.6926,24.583,10.6926z
			"/>
		<polygon points="32.9688,10.5945 35.6865,1.4055 33.9492,1.4055 31.8486,8.9275 31.7783,8.9275 29.6631,1.4055 27.7861,1.4055 
			30.4756,10.5945 		"/>
		<polygon points="43.3018,9.1936 38.9453,9.1936 38.9453,9.1379 43.2734,2.7644 43.2734,1.4055 37.2646,1.4055 37.2646,2.8064 
			41.3408,2.8064 41.3408,2.8625 37.0127,9.2356 37.0127,10.5945 43.3018,10.5945 		"/>
		<path d="M48,14H16c-1.1045,0-2,0.8955-2,2v47h15v-9h6v9h15V16C50,14.8955,49.1045,14,48,14z M25,47h-6v-6h6V47z M25,37h-6v-6h6V37
			z M25,27h-6v-6h6V27z M35,47h-6v-6h6V47z M35,37h-6v-6h6V37z M35,27h-6v-6h6V27z M45,47h-6v-6h6V47z M45,37h-6v-6h6V37z M45,27h-6
			v-6h6V27z"/>
	</g>
</g>
</svg>
