<?xml version="1.0" encoding="utf-8"?>
<!-- Generator: Adobe Illustrator 17.1.0, SVG Export Plug-In . SVG Version: 6.00 Build 0)  -->
<svg version="1.2" baseProfile="tiny" xmlns="http://www.w3.org/2000/svg" xmlns:xlink="http://www.w3.org/1999/xlink" x="0px"
	 y="0px" width="64px" height="64px" viewBox="0 0 64 64" xml:space="preserve">
<g id="_x36_4px_Boxes">
	<rect fill="none" width="64" height="64"/>
</g>
<g id="Production">
	<rect fill="none" width="64" height="64"/>
	<g>
		<path d="M23.8203,10.6926c0.9248,0,1.2608-0.0561,2.0449-0.2241v-1.373c-0.7558,0.1401-1.1757,0.1821-1.9326,0.1821
			c-1.4707,0-2.8154-1.0083-2.8154-3.1797c0-2.2412,1.3164-3.3198,2.8711-3.3198c0.6719,0,1.0088,0.0141,1.7373,0.1401l0.126-1.4287
			c-0.6309-0.126-1.1065-0.1821-1.8067-0.1821c-2.5498,0-4.6933,1.625-4.6933,4.959C19.3516,9.2356,21.2852,10.6926,23.8203,10.6926
			z"/>
		<path d="M29.3486,8.4934h3.1377l0.5879,2.1011h1.9199l-2.7031-9.189h-2.5361l-2.7315,9.189h1.7364L29.3486,8.4934z M30.875,2.8904
			h0.0986l1.1485,4.2583h-2.4366L30.875,2.8904z"/>
		<polygon points="38.7852,6.5881 39.584,6.5881 42.2451,10.5945 44.3457,10.5945 41.0264,5.72 44.248,1.4055 42.3145,1.4055 
			39.541,5.2156 38.7852,5.2156 38.7852,1.4055 37.1035,1.4055 37.1035,10.5945 38.7852,10.5945 		"/>
		<path d="M48,14H16c-1.1046,0-2,0.8955-2,2v47h15v-9h6v9h15V16C50,14.8955,49.1045,14,48,14z M25,47h-6v-6h6V47z M25,37h-6v-6h6V37
			z M25,27h-6v-6h6V27z M35,47h-6v-6h6V47z M35,37h-6v-6h6V37z M35,27h-6v-6h6V27z M45,47h-6v-6h6V47z M45,37h-6v-6h6V37z M45,27h-6
			v-6h6V27z"/>
	</g>
</g>
</svg>
