<?xml version="1.0" encoding="utf-8"?>
<!-- Generator: Adobe Illustrator 19.1.0, SVG Export Plug-In . SVG Version: 6.00 Build 0)  -->
<svg version="1.2" baseProfile="tiny" xmlns="http://www.w3.org/2000/svg" xmlns:xlink="http://www.w3.org/1999/xlink" x="0px"
	 y="0px" width="64px" height="64px" viewBox="0 0 64 64" xml:space="preserve">
<g id="Box">
	<rect fill="none" width="64" height="64"/>
</g>
<g id="Icon">
	<g>
		<path d="M31,47.7839l7.3176-7.3176c-0.2763-1.1577-0.3228-2.319-0.1812-3.4662H35v-6h6v0.0108
			c0.1987-0.2242,0.3853-0.4515,0.6042-0.6705c1.3536-1.3545,2.8413-2.3066,4.3958-2.8865V6c0-1.1045-0.8955-2-2-2H12
			c-1.1045,0-2,0.8955-2,2v47h15v-9h6V47.7839z M35,11h6v6h-6V11z M35,21h6v6h-6V21z M21,37h-6v-6h6V37z M21,27h-6v-6h6V27z M21,17
			h-6v-6h6V17z M25,11h6v6h-6V11z M25,21h6v6h-6V21z M25,37v-6h6v6H25z"/>
		<path d="M58.816,38.0161c-0.1049-0.4579-0.6818-0.6173-1.0242-0.2958c-1.0157,0.9537-2.0071,1.8474-2.569,2.2542
			c-0.8665,0.6277-2.3607,1.8624-3.4323,0.7903l-3.1586-3.1567c-1.0715-1.0719,0.079-2.6819,0.7085-3.5496
			c0.4244-0.5851,1.3262-1.6838,2.2628-2.7999c0.2872-0.3423,0.1285-0.8762-0.3018-0.9966
			c-2.632-0.7359-5.1987,0.1042-7.4344,2.3411c-3.5173,3.5173-3.5981,7.862,0.5264,11.9866c0.368,0.368,0.7382,0.6906,1.1089,0.9922
			c-0.0452,0.1409-0.3193,0.1512-0.4941,0.0948c-0.3981-0.1284-2.1202-0.8593-4.1862-3.1897L29.0945,54.2149
			c-1.5118,1.5118-0.6296,3.2951,0.8755,4.7988c1.5051,1.5063,3.2895,2.3885,4.8005,0.8774L47.681,46.9808
			c3.0709,1.4461,6.1118,0.7291,8.702-1.8626C58.5254,42.9772,59.3924,40.5316,58.816,38.0161z M32.8525,57.717
			c-0.8783,0-1.59-0.7118-1.59-1.59c0-0.8784,0.7117-1.59,1.59-1.59s1.59,0.7117,1.59,1.59
			C34.4424,57.0052,33.7308,57.717,32.8525,57.717z"/>
	</g>
</g>
</svg>
