<?xml version="1.0" encoding="utf-8"?>
<!-- Generator: Adobe Illustrator 17.1.0, SVG Export Plug-In . SVG Version: 6.00 Build 0)  -->
<svg version="1.2" baseProfile="tiny" xmlns="http://www.w3.org/2000/svg" xmlns:xlink="http://www.w3.org/1999/xlink" x="0px"
	 y="0px" width="64px" height="64px" viewBox="0 0 64 64" xml:space="preserve">
<g id="_x36_4px_Boxes">
	<rect fill="none" width="64" height="64"/>
</g>
<g id="Production">
	<rect fill="none" width="64" height="64"/>
	<g>
		<polygon points="21.9658,10.5945 24.6836,1.4055 22.9463,1.4055 20.8447,8.9275 20.7754,8.9275 18.6602,1.4055 16.7832,1.4055 
			19.4727,10.5945 		"/>
		<polygon points="30.4766,10.5945 32.0039,5.5237 32.0742,5.5237 33.5723,10.5945 35.9258,10.5945 38.3496,1.4055 36.627,1.4055 
			34.8193,8.9275 34.749,8.9275 32.4941,1.4055 30.7012,1.4055 31.3174,3.3948 29.5098,8.9275 29.4258,8.9275 27.6328,1.4055 
			25.7559,1.4055 28.1523,10.5945 		"/>
		<path d="M45.9062,7.7507c0-1.1904-0.5879-1.9189-1.9336-2.353l-1.1348-0.3643c-0.8399-0.2661-1.1621-0.6025-1.1621-1.1767
			c0-0.6582,0.5605-1.1484,1.8203-1.1484c0.7012,0,1.2471,0.0561,1.9199,0.1821l0.1113-1.4009
			c-0.6298-0.126-1.288-0.1821-1.9472-0.1821c-2.2539,0-3.543,1.1489-3.543,2.7456c0,1.1767,0.5879,1.9472,1.666,2.311
			l1.1494,0.3926c1.1065,0.3779,1.3868,0.728,1.3868,1.3164c0,0.6587-0.7002,1.2187-1.9756,1.2187
			c-0.7842,0-1.4424-0.0561-2.3389-0.2241v1.4571c0.7979,0.1396,1.4424,0.1679,2.2832,0.1679
			C44.5059,10.6926,45.9062,9.488,45.9062,7.7507z"/>
		<path d="M48,14H16c-1.1045,0-2,0.8955-2,2v47h15v-9h6v9h15V16C50,14.8955,49.1045,14,48,14z M25,47h-6v-6h6V47z M25,37h-6v-6h6V37
			z M25,27h-6v-6h6V27z M35,47h-6v-6h6V47z M35,37h-6v-6h6V37z M35,27h-6v-6h6V27z M45,47h-6v-6h6V47z M45,37h-6v-6h6V37z M45,27h-6
			v-6h6V27z"/>
	</g>
</g>
</svg>
