<?xml version="1.0" encoding="utf-8"?>
<!-- Generator: Adobe Illustrator 21.0.2, SVG Export Plug-In . SVG Version: 6.00 Build 0)  -->
<!DOCTYPE svg PUBLIC "-//W3C//DTD SVG 1.1//EN" "http://www.w3.org/Graphics/SVG/1.1/DTD/svg11.dtd">
<svg version="1.1" xmlns="http://www.w3.org/2000/svg" xmlns:xlink="http://www.w3.org/1999/xlink" x="0px" y="0px" width="64px"
	 height="64px" viewBox="0 0 64 64" style="enable-background:new 0 0 64 64;" xml:space="preserve">
<style type="text/css">
	.st0{fill:none;}
</style>
<g id="_x36_4px_Box">
	<rect class="st0" width="64" height="64"/>
</g>
<g id="Icon">
	<g>
		<polygon points="41,7 23,7 5,22 59,22 		"/>
		<path d="M11,57h11.1c-0.4-2.2-2.5-4.1-5.5-4.4c-0.2,0-0.3-0.3-0.1-0.5c1-0.6,3.2-1.4,5.8,0.1c0,0-0.9-1.8-1.4-5.1
			c0-0.2,0.2-0.4,0.4-0.3c0.8,0.4,2.6,1.5,4.1,4.3c-0.5,0.6-0.9,1.3-1.2,2c-0.1,0.3,0,0.4,0.1,0.4c1-1,2.7-3,7-2.4
			c0.2,0,0.3,0.3,0.1,0.5c-1.3,0.7-4.2,2.7-5.2,5.3H38v-9.5c0-1.9,1.6-3.5,3.5-3.5s3.5,1.6,3.5,3.5V57h8V24H11V57z M39,30h5v8h-5V30
			z M16,38v-3h2v3H16z M20,38v-3h2v3H20z M24,38v-3h2v3H24z M28,38v-3h2v3H28z M23,28c4.7,0,7,2,7,2v3H16v-3C16,30,18.3,28,23,28z"
			/>
	</g>
</g>
</svg>
