<?xml version="1.0" encoding="utf-8"?>
<!-- Generator: Adobe Illustrator 19.1.0, SVG Export Plug-In . SVG Version: 6.00 Build 0)  -->
<svg version="1.2" baseProfile="tiny" xmlns="http://www.w3.org/2000/svg" xmlns:xlink="http://www.w3.org/1999/xlink" x="0px"
	 y="0px" width="64px" height="64px" viewBox="0 0 64 64" xml:space="preserve">
<g id="_x36_4px_Box">
	<rect fill="none" width="64" height="64"/>
</g>
<g id="Icon">
	<path d="M61.2248,30.2057L32.8126,3.3202c-0.4594-0.4269-1.166-0.4269-1.6253,0L2.7752,30.2057C2.2812,30.6652,2,31.3124,2,31.9904
		v1.7968C2,34.4569,2.5374,35,3.2,35H8v25h48V35h4.8c0.6626,0,1.2-0.5431,1.2-1.2128v-1.7968
		C62,31.3124,61.7187,30.6652,61.2248,30.2057z M28.0619,51.6462c-0.6846,0.0587-1.3013,0.4408-1.7731,0.9404
		c-0.4718,0.4996-3.9908,4.1301-3.9908,4.1301l-8.6357-9.549c0,0,1.9329-1.9597,2.5613-2.5968
		c0.6284-0.6372,1.0005-1.4757,1.0884-2.3663c0.238-2.4098,0.6304-5.4106,0.8281-7.064c0.0955-0.7983,0.4828-1.5258,1.0917-2.0507
		c1.3646-1.1764,3.7881-3.2481,4.3588-3.619l0.0002-0.0001c0.5684-0.3693,1.6069-0.4752,2.3377,0.061
		c0.8835,0.6483,3.1717,2.6785,4.5001,3.7781c1.1984,0.992,1.2446,1.631,1.1163,2.174c-0.2498,1.0537-1.6949,1.06-2.8627,0.881
		c-1.2946-0.1992-2.8027-0.7878-3.9948-1.3293l-1.5718,1.5901c2.4277,2.1358,4.4067,5.2581,3.9122,8.4526
		c0.1633,0.0253,0.249,0.0483,0.4003-0.0815c1.5484-1.3291,0.6659-4.8634-0.5725-6.815c2.7101,0.6336,6.0541,0.4327,6.6764-2.1749
		c0.5596-2.3745-1.3253-3.7292-1.922-4.2233c-1.2017-0.9954-3.1077-2.6825-4.2225-3.5629c1.0002-0.8728,2.3545-1.8667,4.1285-0.5596
		c0.8569,0.6314,1.4678,1.7339,1.2197,3.2196c0,0,1.502-0.8103,3.178,0.6038c1.2886,1.0873,0.8412,2.7998,0.8457,2.8593
		c0,0,1.6113-0.0563,2.6176,0.9665c1.1594,1.1783,0.886,2.2552,0.6528,2.9415c0,0,3.0204,1.4721,1.439,4.2507
		c-0.7412,1.3025-1.988,2.6077-2.9831,3.4878c-0.8019,0.7092-1.8752,1.6478-3.1894,0.6046
		c-0.4977-0.3951-0.8558-1.1428-0.7275-2.5239c0,0-2.1033,1.1658-3.9435-1.5933c-0.1484-0.0192-0.2972,0.1689-0.1902,0.7272
		c0.2783,1.4526,0.6232,2.9005,2.2523,2.8578c-0.0991,1.315,0.8355,2.2139,2.0198,2.7684
		C30.9375,52.5,30.4753,51.4392,28.0619,51.6462z M51.1753,42.8053l-6.639,4.4968l0.3736,7.7991
		c0.1461,1.3907-1.1296,2.2227-2.2318,1.779l-8.0034-3.2457c-1.0124-0.4106-0.3035-2.3673,0.7433-2.0209l6.723,2.2242L41.75,45.875
		l6.9042-4.6481l-6.3748-5.3879l4.545-9.4635l-10.3746,1.6052l-3.3076-7.6629L26.875,25.5l-7.6907-2.6061l0.0167,6.8333
		c0.0076,0.9901-1.9413,1.1443-2.0375,0.1034l-0.7349-8.3327c-0.1099-1.2281,1.1274-2.134,2.2684-1.6549l7.6205,2.5768l6.045-4.9727
		c0.8255-0.7812,2.1799-0.5023,2.6302,0.5424l3.0603,7.0903l10.1487-1.5707c1.4512-0.2246,2.34,1.1785,1.7965,2.3135l-4.4777,9.3229
		l5.8991,4.9858C52.2876,40.8646,52.1624,42.2411,51.1753,42.8053z"/>
</g>
</svg>
