<?xml version="1.0" encoding="utf-8"?>
<!-- Generator: Adobe Illustrator 18.1.0, SVG Export Plug-In . SVG Version: 6.00 Build 0)  -->
<svg version="1.2" baseProfile="tiny" xmlns="http://www.w3.org/2000/svg" xmlns:xlink="http://www.w3.org/1999/xlink" x="0px"
	 y="0px" width="64px" height="64px" viewBox="0 0 64 64" xml:space="preserve">
<g id="_x36_4px_Boxes">
	<rect fill="none" width="64" height="64"/>
</g>
<g id="Production">
	<path d="M61.2248,30.2057L32.8126,3.3202c-0.4594-0.4269-1.166-0.4269-1.6253,0L2.7752,30.2057C2.2812,30.6652,2,31.3124,2,31.9904
		v1.7968C2,34.4569,2.5374,35,3.2,35H8v25h48V35h4.8c0.6626,0,1.2-0.5431,1.2-1.2128v-1.7968
		C62,31.3124,61.7187,30.6652,61.2248,30.2057z M28.9053,18.4666c0.377-2.3948,1.8996-3.8739,4.2343-3.4949
		c2.2162,0.3601,3.3687,2.0068,2.9507,4.6613c-0.3665,2.33-1.9382,3.7342-4.214,3.3649
		C29.6012,22.6281,28.5076,20.9905,28.9053,18.4666z M30,56.22c-6.1967,0-11.22-5.0233-11.22-11.22
		c0-3.4001,1.5187-6.4345,3.9096-8.4856C22.6819,36.8,22.678,37.075,22.6797,37.333c0.0075,1.1313,0.3047,2.148,0.8292,3.0083
		C22.5627,41.6524,22,43.258,22,45c0,4.4183,3.5817,8,8,8c3.0776,0,5.7453-1.7402,7.0833-4.2881
		c0.1553,0.4314,0.2994,0.8283,0.4196,1.1544c0.3386,0.9192,0.7361,1.6564,1.1629,2.2602C36.608,54.6259,33.4904,56.22,30,56.22z
		 M39.5673,49.1058c-0.7161-1.9417-2.0559-5.7488-2.7922-8.0958c-0.0587-0.0043-5.4356,0-7.5525,0
		c-2.1168,0-4.3257-1.1144-4.3426-3.6915c-0.0124-1.8757,0.256-4.8534,0.772-7.6955c-0.7891,0.4604-1.7973,1.0327-2.2091,1.8112
		c-0.7177,1.1629-1.3616,3.0011-1.9137,4.251c-0.2827,0.5764-1.3139,2.3125-3.2996,1.8207
		c0.5199-2.1304,1.4021-5.7352,2.3234-7.7252c0.2572-0.5504,0.471-0.8608,1.0837-1.5319c1.8208-1.8631,5.4354-3.5632,6.1718-3.813
		c1.5259-0.764,4.0561-0.5633,5.2506,0.917c0.908,1.1252,0.6263,2.2338,0.3849,4.0375c-0.1875,1.4017-0.4402,3.3895-0.8243,5.7804
		c1.5725,0.3259,4.4009,0.9431,5.8875,1.532c0.9955,0.435,1.4493,0.7867,2.0028,2.1005C41.6322,41.6199,43.2758,49.3533,44,52.3185
		C43.2542,52.5051,40.9529,52.8682,39.5673,49.1058z"/>
</g>
</svg>
