<?xml version="1.0" encoding="utf-8"?>
<!-- Generator: Adobe Illustrator 17.1.0, SVG Export Plug-In . SVG Version: 6.00 Build 0)  -->
<svg version="1.2" baseProfile="tiny" xmlns="http://www.w3.org/2000/svg" xmlns:xlink="http://www.w3.org/1999/xlink" x="0px"
	 y="0px" width="64px" height="64px" viewBox="0 0 64 64" xml:space="preserve">
<g id="Box">
	<rect fill="none" width="64" height="64"/>
</g>
<g id="Icon">
	<g>
		<path d="M31.8086,43.9316c0.1523-4.6855,2.3613-8.4404,5.9102-10.0449c1.5947-0.7207,3.1904-1.0869,4.7422-1.0869
			c2.7168,0,4.915,1.1133,6.5391,2.4902c0.8015-0.6796,1.7444-1.2936,2.819-1.7426L48,24h-9v-8.3091c0-0.2762-0.2239-0.5-0.5-0.5
			h-1.801L30.9622,1.309c-0.1704-0.412-0.7539-0.412-0.9243,0L24.301,15.1909H22.5c-0.2761,0-0.5,0.2238-0.5,0.5v3.985
			c1.7842,1.2789,2.9651,3.2725,3.0742,5.4877c2.4258,1.6697,2.384,4.7947,1.4131,6.2466
			c-0.3428,0.5124-0.5986,0.6079-0.7988,0.5776L25.6785,32h-0.1138c0.4448-2.371-0.7115-4.6921-2.7567-5.6705
			c0.4572-2.5472-1.2457-5.0757-3.9348-5.738c-1.3668-0.3367-2.7321-0.1259-3.8478,0.4843c-0.541-0.41-1.1644-0.7196-1.8571-0.8901
			c-2.7941-0.6882-5.6473,1.0895-6.5326,3.9968c-2.2903,0.1149-4.5398,1.9351-5.219,4.6924
			c-0.5288,2.1476,0.0704,4.3561,1.2485,5.7371c-0.5469,0.6263-1.1382,1.4854-1.3528,2.3566
			c-0.4733,1.922,0.3319,3.7388,1.6271,4.9808l5.0397-6.908c0,0,7.4807,1.5022,7.75,1.5625C16.0312,36.6719,16.0312,36.9062,16,37H9
			L1,48v11h14V48l7.1924-10.9999L29,48v11h9.0453C33.3872,53.9501,31.6652,48.3431,31.8086,43.9316z"/>
		<rect x="19" y="50" width="6" height="5"/>
		<path d="M58.9634,36.8025C52.2715,33.7766,49,40.2822,49,40.2822s-3.2716-6.5056-9.9634-3.4797
			c-6.6001,2.9844-6.1602,17.7913,9.3093,26.0352c0.4064,0.2164,0.9017,0.2164,1.3081,0
			C65.1234,54.5938,65.5635,39.7869,58.9634,36.8025z"/>
	</g>
</g>
</svg>
