<?xml version="1.0" encoding="utf-8"?>
<!-- Generator: Adobe Illustrator 18.1.0, SVG Export Plug-In . SVG Version: 6.00 Build 0)  -->
<svg version="1.2" baseProfile="tiny" xmlns="http://www.w3.org/2000/svg" xmlns:xlink="http://www.w3.org/1999/xlink" x="0px"
	 y="0px" width="64px" height="64px" viewBox="0 0 64 64" xml:space="preserve">
<g id="Box">
	<rect fill="none" width="64" height="64"/>
</g>
<g id="Icon">
	<g>
		<path d="M53.668,54.1481l-1.0957-0.7139l-1.0952,0.7109c-0.0298,0.0195-2.9932,1.9248-5.7632,1.9248
			c-2.7695,0-5.7339-1.9053-5.7598-1.9219l-1.0957-0.7139l-1.0952,0.7109C37.7334,54.1647,34.77,56.07,32,56.07
			s-5.7334-1.9053-5.7598-1.9219l-1.0972-0.7207l-1.0972,0.7207c-0.0293,0.0186-3.0063,1.9219-5.7598,1.9219
			c-2.77,0-5.7334-1.9053-5.7598-1.9219l-1.0957-0.7139l-1.0952,0.7109C10.3062,54.1647,7.3418,56.07,4.5718,56.07
			c-1.2473,0-2.5317-0.3867-3.5718-0.813v4.1675C2.1038,59.7591,3.3297,60,4.5718,60c2.7476,0,5.415-1.1777,6.8574-1.9424
			C12.8711,58.8223,15.5386,60,18.2861,60c2.7471,0,5.415-1.1777,6.8569-1.9424C26.585,58.8223,29.2524,60,32,60
			s5.415-1.1777,6.8569-1.9424C40.2988,58.8223,42.9668,60,45.7139,60c2.7476,0,5.415-1.1777,6.8569-1.9424
			C54.0132,58.8223,56.6807,60,59.4282,60c1.2421,0,2.468-0.2409,3.5718-0.5755v-4.1701c-1.0424,0.4273-2.3286,0.8156-3.5718,0.8156
			C56.6582,56.07,53.6938,54.1647,53.668,54.1481z"/>
		<path d="M53.668,46.1481l-1.0957-0.7139l-1.0952,0.7109c-0.0298,0.0195-2.9932,1.9248-5.7632,1.9248
			c-2.7695,0-5.7339-1.9053-5.7598-1.9219l-1.0957-0.7139l-1.0952,0.7109C37.7334,46.1647,34.77,48.07,32,48.07
			s-5.7334-1.9053-5.7598-1.9219l-1.0972-0.7207l-1.0972,0.7207c-0.0293,0.0186-3.0063,1.9219-5.7598,1.9219
			c-2.77,0-5.7334-1.9053-5.7598-1.9219l-1.0957-0.7139l-1.0952,0.7109C10.3062,46.1647,7.3418,48.07,4.5718,48.07
			c-1.2473,0-2.5317-0.3867-3.5718-0.813v4.1675C2.1038,51.7591,3.3297,52,4.5718,52c2.7476,0,5.415-1.1777,6.8574-1.9424
			C12.8711,50.8223,15.5386,52,18.2861,52c2.7471,0,5.415-1.1777,6.8569-1.9424C26.585,50.8223,29.2524,52,32,52
			s5.415-1.1777,6.8569-1.9424C40.2988,50.8223,42.9668,52,45.7139,52c2.7476,0,5.415-1.1777,6.8569-1.9424
			C54.0132,50.8223,56.6807,52,59.4282,52c1.2421,0,2.468-0.2409,3.5718-0.5755v-4.1701c-1.0424,0.4273-2.3286,0.8156-3.5718,0.8156
			C56.6582,48.07,53.6938,46.1647,53.668,46.1481z"/>
		<path d="M8,34h4v1.2988l1.6729,1.0898c0.0239,0.0156,2.5288,1.582,4.6133,1.582c1.7422,0,3.9346-1.1504,4.6323-1.5938
			l2.2246-1.4609l0.0547,0.0352l2.1953,1.4414c0.6875,0.4385,2.8574,1.5781,4.6069,1.5781c1.7554,0,3.9341-1.1475,4.6255-1.5898
			l2.2349-1.4512l0.0547,0.0352l2.1855,1.4238c0.688,0.4395,2.8599,1.582,4.6133,1.582c1.7554,0,3.9341-1.1475,4.6255-1.5898
			L52,35.3026V34h4c0.5522,0,1-0.4478,1-1v-1.4816c0-0.559-0.2344-1.0927-0.646-1.4716L32.6772,8.264
			c-0.3828-0.352-0.9716-0.352-1.3544,0L7.646,30.0468C7.2344,30.4257,7,30.9594,7,31.5184V33C7,33.5522,7.4478,34,8,34z"/>
		<path d="M59.4282,40.07c-2.77,0-5.7344-1.9053-5.7603-1.9219l-1.0957-0.7139l-1.0952,0.7109
			c-0.0298,0.0195-2.9932,1.9248-5.7632,1.9248c-2.7695,0-5.7339-1.9053-5.7598-1.9219l-1.0957-0.7139l-1.0952,0.7109
			C37.7334,38.1647,34.77,40.07,32,40.07s-5.7334-1.9053-5.7598-1.9219l-1.0972-0.7207l-1.0972,0.7207
			c-0.0293,0.0186-3.0063,1.9219-5.7598,1.9219c-2.77,0-5.7334-1.9053-5.7598-1.9219l-1.0957-0.7139l-1.0952,0.7109
			C10.3062,38.1647,7.3418,40.07,4.5718,40.07c-1.2473,0-2.5317-0.3867-3.5718-0.813v4.1675C2.1038,43.7591,3.3297,44,4.5718,44
			c2.7476,0,5.415-1.1777,6.8574-1.9424C12.8711,42.8223,15.5386,44,18.2861,44c2.7471,0,5.415-1.1777,6.8569-1.9424
			C26.585,42.8223,29.2524,44,32,44s5.415-1.1777,6.8569-1.9424C40.2988,42.8223,42.9668,44,45.7139,44
			c2.7476,0,5.415-1.1777,6.8569-1.9424C54.0132,42.8223,56.6807,44,59.4282,44c1.2421,0,2.468-0.2409,3.5718-0.5755v-4.1701
			C61.9576,39.6817,60.6714,40.07,59.4282,40.07z"/>
	</g>
</g>
</svg>
