<?xml version="1.0" encoding="utf-8"?>
<!-- Generator: Adobe Illustrator 19.1.0, SVG Export Plug-In . SVG Version: 6.00 Build 0)  -->
<svg version="1.2" baseProfile="tiny" xmlns="http://www.w3.org/2000/svg" xmlns:xlink="http://www.w3.org/1999/xlink" x="0px"
	 y="0px" width="64px" height="64px" viewBox="0 0 64 64" xml:space="preserve">
<g id="_x36_4px_Box">
	<rect fill="none" width="64" height="64"/>
</g>
<g id="Icon">
	<path d="M59.2783,22L47.1675,11.142c-0.3799-0.3406-0.9552-0.3406-1.3351,0L33.7217,22c-1.246,0-2.1973,0-3.4434,0L18.1675,11.142
		c-0.3799-0.3406-0.9552-0.3406-1.3351,0L4.7217,22H3v38h18V45h6v15h5h18V45h6v15h5V22H59.2783z M14,55H8V45h6V55z M14,38H8V28h6V38
		z M27,38h-6V28h6V38z M43,55h-6V45h6V55z M43,38h-6V28h6V38z M56,38h-6V28h6V38z"/>
</g>
</svg>
