<?xml version="1.0" encoding="utf-8"?>
<!-- Generator: Adobe Illustrator 17.1.0, SVG Export Plug-In . SVG Version: 6.00 Build 0)  -->
<svg version="1.2" baseProfile="tiny" xmlns="http://www.w3.org/2000/svg" xmlns:xlink="http://www.w3.org/1999/xlink" x="0px"
	 y="0px" width="64px" height="64px" viewBox="0 0 64 64" xml:space="preserve">
<g id="_x36_4px_Boxes">
	<rect fill="none" width="64" height="64"/>
</g>
<g id="Production">
	<g>
		<path d="M57.4434,23.2119L46.5977,7.8467C46.2227,7.3159,45.6133,7,44.9639,7H19.0361c-0.6494,0-1.2588,0.3159-1.6338,0.8467
			L6.5566,23.2119C6.3228,23.543,6.5596,24,6.9648,24h7.0767L30,11c1.1613-0.9678,2.7742-0.9355,4,0l15.958,13h7.0772
			C57.4404,24,57.6772,23.543,57.4434,23.2119z"/>
		<path d="M32,13.6797L15.5308,27H10v29h44V27h-5.5308L32,13.6797z M25,50h-8v-5h8V50z M25,42h-8v-9h8V42z M36,50h-8v-5h8V50z
			 M36,42h-8v-9h8V42z M32,28.2c-2.3195,0-4.2-1.8806-4.2-4.2c0-2.3195,1.8805-4.2,4.2-4.2c2.3195,0,4.2,1.8805,4.2,4.2
			C36.2,26.3194,34.3195,28.2,32,28.2z M47,50h-8v-5h8V50z M47,42h-8v-9h8V42z"/>
	</g>
</g>
</svg>
