<?xml version="1.0" encoding="utf-8"?>
<!-- Generator: Adobe Illustrator 19.1.0, SVG Export Plug-In . SVG Version: 6.00 Build 0)  -->
<svg version="1.2" baseProfile="tiny" xmlns="http://www.w3.org/2000/svg" xmlns:xlink="http://www.w3.org/1999/xlink" x="0px"
	 y="0px" width="64px" height="64px" viewBox="0 0 64 64" xml:space="preserve">
<g id="Box">
	<rect fill="none" width="64" height="64"/>
</g>
<g id="Icon">
	<g>
		<path d="M28.0801,18.4209l-13.2583,6.2393L8,37.5448V57h11V45.7778c0,0,3.2625-3.7778,9-3.7778s9,3.7778,9,3.7778V57h11v-4
			V37.2423l-6.6616-12.5822L28.0801,18.4209z M31,35h-6v-8h6V35z"/>
		<path d="M28.0801,16.2104l14.7139,6.9238L50.6639,38h4.5257l-9.173-17.3271c-0.2031-0.3823-0.5244-0.689-0.916-0.8735
			l-16.1689-7.6089c-0.5391-0.2539-1.1641-0.2539-1.7031,0l-16.1689,7.6089c-0.3916,0.1846-0.7129,0.4912-0.916,0.8735L0.9706,38
			h4.5257l7.8699-14.8657L28.0801,16.2104z"/>
		<path d="M53.514,7.5965c-0.6259-0.3682-1.4022-0.3682-2.0281,0L44,12v5.0706l1.9521,0.9186
			c0.7798,0.3691,1.4277,0.9883,1.8301,1.7441c0.0005,0.001,0.0015,0.0029,0.002,0.0039l9.1729,17.3271
			c0.3281,0.6201,0.3076,1.3662-0.0542,1.9668C56.541,39.6328,55.8911,40,55.1895,40H50v13h11V12L53.514,7.5965z"/>
	</g>
</g>
</svg>
