<svg xmlns="http://www.w3.org/2000/svg" viewBox="0 0 64 64"><defs><style>.cls-1{fill:none;}</style></defs><g id="BOX"><rect class="cls-1" width="64" height="64"/></g><g id="ICOON"><path d="M28.41,8.74A.43.43,0,0,0,29,8.69h0a.4.4,0,0,0,0-.54L28,7a.37.37,0,0,0-.55,0l-.28.3a.37.37,0,0,0,0,.55Z"/><path d="M26.76,11.71l1.43-.34a.41.41,0,0,0,.31-.45h0a.41.41,0,0,0-.41-.36l-1.47,0a.36.36,0,0,0-.36.41l0,.41A.37.37,0,0,0,26.76,11.71Z"/><path d="M35.13,8.69a.43.43,0,0,0,.55.05l1.17-.89a.36.36,0,0,0,0-.55L36.61,7a.37.37,0,0,0-.55,0l-1,1.12a.4.4,0,0,0,0,.54Z"/><path d="M35.59,10.91h0a.42.42,0,0,0,.32.45l1.42.34a.38.38,0,0,0,.46-.32l.05-.41a.37.37,0,0,0-.37-.41l-1.46,0A.42.42,0,0,0,35.59,10.91Z"/><path d="M32,7.65h0a.41.41,0,0,0,.41-.36l.16-1.46a.37.37,0,0,0-.37-.41h-.41a.37.37,0,0,0-.37.41l.16,1.46A.42.42,0,0,0,32,7.65Z"/><path d="M34.87,12.78H31.25s-.06-.31.4-.38l3-.43-.74-3a.43.43,0,0,0-.41-.32h-3a.43.43,0,0,0-.42.32l-.95,3.77H17.37V57.72h3.47l1.49-2.1V18.07l-1.86-2.48c-.28-.37,0-.55,0-.55l2.42,2.42H41.14L43.56,15s.26.18,0,.55c-1.14,1.52-1.65,2.19-1.87,2.5V55.62l1.49,2.1h3.47V12.78Z"/><path d="M32,26.58a2.47,2.47,0,0,0,2.53-2.75C34.48,22,33.51,21,32,21s-2.53,1.17-2.53,2.85S30.34,26.58,32,26.58Z"/><path d="M35,28.19a14.68,14.68,0,0,0-6.19,0c-3.56.88-3.33,6.52-3.33,11.4a2.16,2.16,0,0,0,2.13,2.2V36.65a15.9,15.9,0,0,1,.43-4.19c.07-.22.23-.18.23-.18V55.69a2.93,2.93,0,0,0,2.93-2.83s.41-11.23.41-11.34a.29.29,0,0,1,.3-.28.27.27,0,0,1,.28.28c0,.11.41,11.26.41,11.26a2.93,2.93,0,0,0,3,2.91V32.28s.16-.06.25.18a16.65,16.65,0,0,1,.4,4.17v5.16a2.16,2.16,0,0,0,2.13-2.2C38.37,34.71,38.61,29,35,28.19Z"/></g></svg>