<?xml version="1.0" encoding="utf-8"?>
<!-- Generator: Adobe Illustrator 18.1.0, SVG Export Plug-In . SVG Version: 6.00 Build 0)  -->
<svg version="1.2" baseProfile="tiny" xmlns="http://www.w3.org/2000/svg" xmlns:xlink="http://www.w3.org/1999/xlink" x="0px"
	 y="0px" width="64px" height="64px" viewBox="0 0 64 64" xml:space="preserve">
<g id="Box">
	<rect fill="none" width="64" height="64"/>
</g>
<g id="Icon">
	<g>
		<path d="M14.1382,27.5387C12.0013,28.2706,10,29.7432,10,31.4409c0,1.6978,2.0013,3.1703,4.1382,3.9023
			c0.4331,0.1484,0.9424-0.1102,0.7119-0.3672c-0.851-0.9485-1.2935-2.1838-1.2935-3.5351s0.4425-2.5865,1.2935-3.535
			C15.0807,27.6489,14.5714,27.3903,14.1382,27.5387z"/>
		<ellipse cx="20.5" cy="28.4308" rx="2.5" ry="1.4308"/>
		<ellipse cx="20.5" cy="34.5692" rx="2.5" ry="1.4308"/>
		<path d="M31.8223,43.0498c-1.7346-1.8874-3.1671-3.8481-4.3194-5.81c-2.0511,0.5305-4.3984,0.8517-6.8981,0.8917
			c-8.0864,0.1288-14.687-2.7192-14.7429-6.3618c-0.056-3.6426,6.454-6.7002,14.5404-6.8298
			c1.3732-0.0219,2.6981,0.0483,3.9608,0.1874c0.1838-1.3681,0.5995-2.6249,1.2595-3.7284
			c-1.6712-0.2417-3.4393-0.3634-5.2809-0.3345C9.9697,21.2269,1.9164,25.8923,2.0071,31.6863
			c0.0134,0.8553,0.063,7.3985,0.0764,8.2508c0.0908,5.8003,8.2866,10.2211,18.6583,10.0586
			c5.8079-0.091,10.8862-1.5983,14.2172-3.9245C33.8824,45.155,32.8312,44.1475,31.8223,43.0498z"/>
		<path d="M54.9577,21.8555c-7.0198-7.6368-15.9111-10.5006-20.2424-6.5192c-0.6395,0.5878-5.5659,5.0444-6.2031,5.6301
			c-4.3359,3.9857-2.237,13.093,4.7828,20.7298c7.0198,7.6368,15.9185,10.4938,20.2545,6.5081
			c0.6371-0.5856,5.5636-5.0423,6.2031-5.6301C64.0839,38.5927,61.9775,29.4922,54.9577,21.8555z M57.1372,39.742
			c-2.6692,2.4536-9.2697-0.3842-14.743-6.338c-5.4728-5.9543-7.7458-12.77-5.0766-15.2236
			c2.6693-2.4536,9.2697,0.3842,14.7431,6.338C57.5334,30.4728,59.8064,37.2885,57.1372,39.742z"/>
		<polygon points="46.9772,23.6191 44.5348,23.2726 44.5005,23.2333 45.0403,21.402 43.7873,19.9678 42.9485,22.9071 
			38.0604,22.0413 39.3938,23.5675 42.6675,23.9729 42.7035,24.0141 41.9256,26.4656 43.3636,28.1116 44.2975,24.3342 
			48.1147,24.9212 		"/>
		<polygon points="47.8696,25.8747 49.3864,27.6109 45.4326,30.4799 46.6699,31.8961 50.4813,28.8641 51.998,30.6003 
			52.6012,30.0567 48.5624,25.4336 		"/>
		<path d="M50.7578,32.2136c-1.423,1.3069-0.8304,3.518,0.9237,5.5258c0.639,0.7315,0.8682,0.9478,1.4931,1.4661l0.6495-0.8213
			c-0.5615-0.4982-0.8494-0.7842-1.3702-1.3803c-0.9204-1.0536-1.3461-2.5248-0.4066-3.4724
			c0.9085-0.9163,2.0849-0.4883,3.0117,0.5726c0.4041,0.4625,0.6097,0.7096,0.9953,1.2582l0.6091-0.5875
			c-0.3283-0.4784-0.5887-0.8217-1.0001-1.2927C54.1158,31.7108,52.1992,30.8898,50.7578,32.2136z"/>
	</g>
</g>
</svg>
