<?xml version="1.0" encoding="utf-8"?>
<!-- Generator: Adobe Illustrator 19.1.0, SVG Export Plug-In . SVG Version: 6.00 Build 0)  -->
<svg version="1.2" baseProfile="tiny" xmlns="http://www.w3.org/2000/svg" xmlns:xlink="http://www.w3.org/1999/xlink" x="0px"
	 y="0px" width="64px" height="64px" viewBox="0 0 64 64" xml:space="preserve">
<g id="_x36_4px_Box">
	<rect fill="none" width="64" height="64"/>
</g>
<g id="Icon">
	<g>
		<path d="M14,25.9568h2.0044C16.0283,23.7715,17.8092,22,20,22h6c2.1908,0,3.9717,1.7715,3.9956,3.9568H32
			c0.0666,0,0.1289,0.0154,0.1944,0.0197C33.1857,18.0103,35,5,35,5H9.4395c0.2747,7.7504,2.8126,14.6508,4.1331,21
			C13.7134,25.9797,13.8536,25.9568,14,25.9568z M25.5562,19.7261C24.8055,19.2753,23.9375,19,23,19s-1.8055,0.2753-2.5562,0.7261
			l-1.4545-1.4545C20.1265,17.473,21.5079,17,23,17s2.8735,0.473,4.0107,1.2717L25.5562,19.7261z M23,13
			c2.5959,0,4.9805,0.9089,6.8639,2.4185l-1.4267,1.4267C26.9246,15.6928,25.0439,15,23,15s-3.9246,0.6928-5.4372,1.8452
			l-1.4267-1.4267C18.0195,13.9089,20.4041,13,23,13z"/>
		<path d="M56.1033,50.8054c-2.8055-0.3506-4.4187-0.4208-6.9437-0.8416c-2.5249-0.4208-11.1519-6.4527-13.3261-7.7151
			c-1.4227-0.826-2.9647-3.307-3.7465-6.2574C32.0574,35.9921,32.0298,36,32,36h-2c0,2.2056-1.7944,4-4,4h-6c-2.2056,0-4-1.7944-4-4
			h-1.7451c-0.2939,4.9135-1.2314,9.4767-2.8354,14.1741c-1.9639,5.7513,1.8937,9.0179,5.3304,9.6491
			c3.4368,0.6313,12.4205-1.8534,16.0676-1.9236c3.6472-0.0701,7.0839,1.8236,11.0116,2.034
			c3.9277,0.2104,8.0411-2.4005,8.0411-2.4005c1.3079,1.1869,5.9421,2.5919,7.319-0.2751
			C60.8759,53.7464,58.9088,51.1561,56.1033,50.8054z"/>
		<path d="M20,38h6c1.1046,0,2-0.8954,2-2v-2h4c0.5523,0,1-0.4478,1-1v-4c0-0.5523-0.4477-1-1-1h-2.8801
			c-0.3203,1.6425-0.6986,4.1666-0.7558,4.3448C28.2623,32.662,28.0562,32.6157,28,32.5948V26c0-1.1046-0.8954-2-2-2h-6
			c-1.1046,0-2,0.8954-2,2v2h-4c-0.5523,0-1,0.4477-1,1v4c0,0.5522,0.4477,1,1,1h4v2C18,37.1046,18.8954,38,20,38z M21.5,26
			c0.8284,0,1.5,0.6716,1.5,1.5S22.3284,29,21.5,29S20,28.3284,20,27.5S20.6716,26,21.5,26z"/>
	</g>
</g>
</svg>
