<?xml version="1.0" encoding="utf-8"?>
<!-- Generator: Adobe Illustrator 24.0.1, SVG Export Plug-In . SVG Version: 6.00 Build 0)  -->
<svg version="1.1" xmlns="http://www.w3.org/2000/svg" xmlns:xlink="http://www.w3.org/1999/xlink" x="0px" y="0px"
	 viewBox="0 0 64 64" style="enable-background:new 0 0 64 64;" xml:space="preserve">
<style type="text/css">
	.st0{fill:none;}
	.st1{fill:#FF1D25;}
	.st2{fill:#1D1D1B;}
</style>
<g id="Box">
	<rect class="st0" width="64" height="64"/>
</g>
<g id="Icon">
	<g>
		<path d="M25,18.2h-1.7v-13h3v11.3c0.3-0.4,0.7-0.8,1-1.1c0.5-0.4,1.2-0.9,2-1.3v-12h-21v19h15C23.7,20.2,24.3,19.1,25,18.2z
			 M14.2,18.2h-3v-13h3V18.2z M20.2,18.2h-3v-13h3V18.2z"/>
		<path d="M44.9,12.4c3,0.6,5.1-1,5.8-4C51.4,5,50,2.8,47.2,2.1c-3-0.7-5.1,1.1-5.8,4.2C40.6,9.6,42,11.8,44.9,12.4z"/>
		<path d="M54,26.5c-1.1-0.9-3.2-4.9-3.8-6.1c-1.4-2.7-2-5.7-8.9-6.4c-4.2-0.4-11,1.4-12.6,2.9c-1.8,1.6-3.4,4.9-4.5,7.1l0,0
			c-0.9,1.9-0.6,4.2,1.1,5.3c0.7-1,4.2-7.6,6.3-8.9c0.7-0.4,2.9-1,5.3-1.2c-1.2,4.7-2.3,11.2-2.6,13.4c-0.7,4.3,2.1,5.7,5,7.5
			c0,0,0,0.2-0.4,0.2c-0.2,0-1.7-0.4-3.2-0.8c-0.8,1.9-2.9,6.4-3.9,8c-2.6,0-7.2-1.3-8.5-1.6c-3.6-0.8-4.9,3.1-4.9,3.1
			c3.2,1.2,11,4.1,14.4,3.9c2-0.1,2.7-0.8,4.1-2.9c1.6-2.2,3.7-5.8,5-8c1.6,0.8,3.8,1.9,5.3,2.8c0.6,2.8,1,9.5,1.1,12.4
			c0.1,1.5,1.6,4.1,4.7,4.9c0.2-4,0.4-6.5,0.5-10.5c0.1-2.1,0.1-4.2,0-6.6c-0.1-1.4-0.1-2.5-0.7-3.6c-0.5-1.1-1.7-2.3-8.3-7.1
			c0.7-3.3,1.6-7.2,2.3-10.3c1,1.8,3.1,5.4,5,6.3c1.5,0.7,5.2,0.7,6.9,0.5c3-0.2,3.8-2.8,3.9-3.4C57.5,27,55,26.8,54,26.5z"/>
	</g>
</g>
</svg>
