<?xml version="1.0" encoding="utf-8"?>
<!-- Generator: Adobe Illustrator 24.0.1, SVG Export Plug-In . SVG Version: 6.00 Build 0)  -->
<svg version="1.1" xmlns="http://www.w3.org/2000/svg" xmlns:xlink="http://www.w3.org/1999/xlink" x="0px" y="0px"
	 viewBox="0 0 64 64" style="enable-background:new 0 0 64 64;" xml:space="preserve">
<style type="text/css">
	.st0{fill:none;}
	.st1{fill:#FF1D25;}
	.st2{fill:#1D1D1B;}
</style>
<g id="Box">
	<rect class="st0" width="64" height="64"/>
</g>
<g id="Icon">
	<g>
		<path d="M55,52c0-1.1-0.9-2-2-2H42c-1.1,0-2,0.9-2,2v0.5c4.6,0.5,9.7,1.2,15,2.2V52z"/>
		<path d="M17.6,53c-3.2,0-4.8,2-4.8,4.5s1.8,4.5,4.8,4.5h18.7c0,0,0.5-3.7-4.6-4.2C28,57.4,20.8,57.2,18.4,57
			c-0.1-0.2,0.1-0.4,0.5-0.5c0.5-0.1,9.2-1.1,13.7-0.6c4.5,0.5,5.9,3.8,5.8,6.1h18.6c3.9-0.1,5.2-2.2,5.7-3.6
			C39.9,53.5,18.7,53,17.6,53z"/>
		<path d="M6.5,53c-3.3,0-5.1,1.8-5,4.5c0,2.9,2.1,4.5,5.1,4.5c3.1,0,4.9-1.7,4.9-4.5C11.5,54.6,9.4,53,6.5,53z"/>
		<path d="M29,2H8v19h21V2z M14,18h-3V5h3V18z M20,18h-3V5h3V18z M26,18h-3V5h3V18z"/>
	</g>
</g>
</svg>
