<svg xmlns="http://www.w3.org/2000/svg" viewBox="0 0 64 64"><defs><style>.cls-1{fill:none;}</style></defs><g id="BOX"><rect class="cls-1" width="64" height="64"/></g><g id="ICOON"><path d="M58.33,56.21l-13.8-13.8L26.27,24.15,7.73,5.61,5.61,7.73,18.94,21.06a26.22,26.22,0,0,0-7.71-4.13.17.17,0,0,0-.21.18C11.48,21.7,15,29.65,21.56,36.2c-5.76-1.17-11.1-.46-13.76.72a.16.16,0,0,0,0,.27c1.59,1.5,6.64,4.91,14.48,5.6a22.73,22.73,0,0,0-6.92,7.43.17.17,0,0,0,.15.24c1.15,0,5.69.11,11.75-3.27a43.1,43.1,0,0,1,2.47-9.5c.14-.25.3-.21.3-.21-.46,5.64-.92,11.6-1.17,18.14a2,2,0,0,0,1.6,2,9.27,9.27,0,0,0,3.35-.06,2,2,0,0,0,1.51-2l-1.15-9.88c5.42,3.7,11.14,5,14.23,4.85l7.86,7.86Z"/><path d="M56.25,37.19a.16.16,0,0,0,0-.27c-2.52-1.11-7.79-1.94-13.76-.72C49,29.69,52.52,21.74,53,17.11a.17.17,0,0,0-.21-.18c-2.51.73-8.94,3.74-14.89,11,0-10-3.36-17.77-5.75-20.93a.16.16,0,0,0-.26,0c-1.46,2-4.24,7.11-5.31,14.65L46.84,41.89A22.66,22.66,0,0,0,56.25,37.19Z"/></g></svg>