<?xml version="1.0" encoding="utf-8"?>
<!-- Generator: Adobe Illustrator 18.1.1, SVG Export Plug-In . SVG Version: 6.00 Build 0)  -->
<svg version="1.2" baseProfile="tiny" xmlns="http://www.w3.org/2000/svg" xmlns:xlink="http://www.w3.org/1999/xlink" x="0px"
	 y="0px" width="64px" height="64px" viewBox="0 0 64 64" xml:space="preserve">
<g id="Box">
	<rect fill="none" width="64" height="64"/>
</g>
<g id="Icon">
	<g>
		<path d="M58.8923,7.7019c-0.5589-4.3414-5.7109-6.3738-5.8524-5.4269c7.1592,11.2448-11.5807,13.4296-7.4247,21.4558
			c0.2097,0.405,0.5041,0.3423,0.5041,0.3423c1.5884-4.8292,5.0861-5.9869,8.6298-8.8207
			C56.9059,13.5278,59.3591,11.3286,58.8923,7.7019z"/>
		<path d="M39.4287,21.3079c-0.9717-0.9692-2.9247,0.5259-2.0682,2.0389c0.3034,0.5359,0.6475,1.1247,0.9681,1.6675l-6.7934,6.7934
			C30.0438,30.105,28.1526,28.7603,26,27.9357V8.3988c0.6106-0.1571,1.2702-0.3301,1.8638-0.4946
			C29.5392,7.4399,29.2155,5.0017,27.8431,5H14.1569c-1.3724,0.0017-1.6962,2.4399-0.0207,2.9042
			C14.7298,8.0687,15.3894,8.2417,16,8.3988v19.5369C10.7408,29.9503,7,35.0322,7,41c0,4.5762,2.1961,8.6388,5.5915,11.1933
			c0.4237,0.3188,0.7791,0.7387,0.9167,1.2508c0.7965,2.9634-2.6733,4.5164-4.7808,5.1691
			c-0.9107,0.282-1.5085,1.0349-1.5085,1.8765V62h27.5621v-1.5103c0-0.8417-0.5978-1.5945-1.5085-1.8765
			c-1.7167-0.5317-4.3364-1.6613-4.8185-3.6637c-2.6286,0.5454-4.6266,0.3551-5.1212,0.2838
			c-0.4266-0.0615-0.3214-0.358-0.306-0.3619c2.4811-0.3625,4.6937-1.4052,6.6125-2.8611C32.9015,49.4472,35,45.4704,35,41
			c0-0.4321-0.0251-0.8577-0.0635-1.2797l9.049-9.049c0.5428,0.3207,1.1317,0.6647,1.6677,0.9681
			c1.513,0.8565,3.0082-1.0965,2.0389-2.0682L39.4287,21.3079z"/>
	</g>
</g>
</svg>
