<?xml version="1.0" encoding="utf-8"?>
<!-- Generator: Adobe Illustrator 18.1.0, SVG Export Plug-In . SVG Version: 6.00 Build 0)  -->
<svg version="1.2" baseProfile="tiny" xmlns="http://www.w3.org/2000/svg" xmlns:xlink="http://www.w3.org/1999/xlink" x="0px"
	 y="0px" width="64px" height="64px" viewBox="0 0 64 64" xml:space="preserve">
<g id="Box">
	<rect fill="none" width="64" height="64"/>
</g>
<g id="Icon">
	<path d="M60.814,36.7426c-3.0091-1.3204-9.2742-2.301-16.3891-0.8528c7.8104-7.7478,11.9986-17.2183,12.5494-22.7268
		c0.014-0.1405-0.1173-0.2502-0.2529-0.2109c-2.9872,0.8674-10.6407,4.4459-17.725,13.041
		c0.0313-11.8657-3.9918-21.1494-6.8384-24.9129c-0.0802-0.106-0.2347-0.1074-0.3146-0.001
		c-2.1869,2.9138-6.8742,11.8796-6.8398,24.9138c-6.2819-7.6263-13.6843-11.8923-17.7254-13.042
		c-0.1363-0.0388-0.2664,0.0728-0.2523,0.2137c0.5471,5.4571,4.6902,14.9288,12.5493,22.725
		c-6.8644-1.3972-13.2137-0.5443-16.3905,0.8533c-0.1302,0.0573-0.16,0.2276-0.0564,0.3251
		c1.8955,1.7827,7.904,5.8403,17.2372,6.6667c-5.3532,3.8234-7.6762,7.7892-8.2302,8.8432
		c-0.0688,0.131,0.0253,0.2825,0.1732,0.2883c1.3693,0.0535,6.7745,0.1331,13.9915-3.8895
		c0.9571-6.4032,2.779-11.0342,2.9369-11.3182c0.1659-0.2984,0.3577-0.2453,0.3577-0.2453C29.05,44.1268,28.5,51.2268,28.2,59.0021
		c0.009,1.1928,0.8138,2.2053,1.9082,2.3708c1.0002,0.1512,2.2368,0.278,3.9839-0.0624c1.0864-0.2116,1.8477-1.2571,1.8063-2.4493
		L34.5287,47.107c6.5884,4.4998,13.5567,5.9996,17.1772,5.7647c0.1445-0.0093,0.2273-0.1631,0.16-0.2913
		c-0.5517-1.0503-2.8742-5.0193-8.2314-8.8456c7.7554-0.6867,14.3516-3.8939,17.2376-6.6646
		C60.975,36.9714,60.9446,36.7999,60.814,36.7426z"/>
</g>
</svg>
