<svg height="64" viewBox="0 0 64 64" width="64" xmlns="http://www.w3.org/2000/svg"><path d="m0 0h64v64h-64z" fill="none"/><path d="m32.0464 38.0457h-.8141v6.9h.9664c2.3112 0 3.4823-1.2299 3.4823-3.6564 0-2.0917-1.2904-3.2436-3.6346-3.2436z"/><path d="m21.1734 42.7706h2.4326l-1.1943-4.4743z"/><path d="m61.2248 30.2057-28.4122-26.8855c-.4594-.4269-1.1659-.4269-1.6254 0l-28.412 26.8855c-.4939.4595-.7752 1.1067-.7752 1.7847v1.7968c0 .6697.5374 1.2128 1.2 1.2128h4.8v25h48v-25h4.8c.6626 0 1.2-.5431 1.2-1.2128v-1.7968c0-.678-.2813-1.3252-.7752-1.7847zm-36.3532 16.9451-.7139-2.3832h-3.5049l-.7139 2.3832h-2.5283l.0771-.2529 3.3564-11.0981h3.376l3.3984 11.351zm7.2427 0h-3.3067v-11.351h3.3736c3.8297 0 6.0264 1.9529 6.0264 5.3581 0 3.8644-2.1637 5.9929-6.0933 5.9929zm13.9675 0h-6.2988v-11.351h2.4404v9.1817h3.8584z"/></svg>