<svg height="64" viewBox="0 0 64 64" width="64" xmlns="http://www.w3.org/2000/svg"><path d="m0 0h64v64h-64z" fill="none"/><path d="m0 0h64v64h-64z" fill="none"/><path d="m21.9658 10.5945 2.7178-9.189h-1.7373l-2.1016 7.522h-.0693l-2.1152-7.522h-1.877l2.6895 9.189z"/><path d="m30.4766 10.5945 1.5273-5.0708h.0703l1.4981 5.0708h2.3535l2.4238-9.189h-1.7226l-1.8077 7.522h-.0703l-2.2549-7.522h-1.7929l.6162 1.9893-1.8076 5.5327h-.084l-1.793-7.522h-1.8769l2.3964 9.189z"/><path d="m45.9062 7.7507c0-1.1904-.5879-1.9189-1.9336-2.353l-1.1348-.3643c-.8399-.2661-1.1621-.6025-1.1621-1.1767 0-.6582.5605-1.1484 1.8203-1.1484.7012 0 1.2471.0561 1.9199.1821l.1113-1.4009c-.6298-.126-1.288-.1821-1.9472-.1821-2.2539 0-3.543 1.1489-3.543 2.7456 0 1.1767.5879 1.9472 1.666 2.311l1.1494.3926c1.1065.3779 1.3868.728 1.3868 1.3164 0 .6587-.7002 1.2187-1.9756 1.2187-.7842 0-1.4424-.0561-2.3389-.2241v1.4571c.7979.1396 1.4424.1679 2.2832.1679 2.298 0 3.6983-1.2046 3.6983-2.9419z"/><path d="m48 14h-32c-1.1045 0-2 .8955-2 2v47h15v-9h6v9h15v-47c0-1.1045-.8955-2-2-2zm-23 33h-6v-6h6zm0-10h-6v-6h6zm0-10h-6v-6h6zm10 20h-6v-6h6zm0-10h-6v-6h6zm0-10h-6v-6h6zm10 20h-6v-6h6zm0-10h-6v-6h6zm0-10h-6v-6h6z"/></svg>