<svg height="64" viewBox="0 0 64 64" width="64" xmlns="http://www.w3.org/2000/svg"><path d="m0 0h64v64h-64z" fill="none"/><path d="m51.5383 32.8459-3.5383-8.8459h-9v-8.3091c0-.2762-.2239-.5-.5-.5h-1.801l-5.7368-13.8819c-.1704-.412-.7539-.412-.9243 0l-5.7369 13.8819h-1.801c-.2761 0-.5.2238-.5.5v3.985c1.7842 1.2789 2.9651 3.2725 3.0742 5.4877 2.4258 1.6697 2.384 4.7947 1.4131 6.2466-.3428.5124-.5986.6079-.7988.5776l-.01.0122h-.1138c.4448-2.371-.7115-4.6921-2.7567-5.6705.4572-2.5472-1.2457-5.0757-3.9348-5.738-1.3668-.3367-2.7321-.1259-3.8478.4843-.541-.41-1.1644-.7196-1.8571-.8901-2.7941-.6882-5.6473 1.0895-6.5326 3.9968-2.2903.1149-4.5398 1.9351-5.219 4.6924-.5288 2.1476.0704 4.3561 1.2485 5.7371-.5469.6263-1.1382 1.4854-1.3528 2.3566-.4733 1.922.3319 3.7388 1.6271 4.9808l5.0397-6.908s7.4807 1.5022 7.75 1.5625c.302.068.302.3023.2708.3961h-7l-8 11v11h14v-11l7.1924-10.9999 6.8076 10.9999v11h4v-15.3121-.1392c0-6.1279 7.3086-10.7487 17.001-10.7487.5207 0 1.0311.0197 1.5373.0459z"/><path d="m50.0012 55c7.8499 0 13.9988-3.3747 13.9988-7.6786 0-.6324 0-3.0202 0-3.6548 0-4.2993-6.1489-7.6666-13.9988-7.6666-7.852 0-14.0012 3.3673-14.0012 7.6666v3.6548c0 .9493.3142 1.8492.865 2.6819-.553.8255-.865 1.7191-.865 2.6633v3.6548c0 4.3039 6.1492 7.6786 14.0012 7.6786 7.8499 0 13.9988-3.3747 13.9988-7.6786v-3.6548c0-.2049-.0266-.4056-.0542-.606-.7144.8958-4.5718 5.1376-13.6127 5.1376-8.0173 0-10.7806-3.8577-11.0668-4.3807-.1169-.2137-.2019-.4362-.0765-.5667 2.5482 1.6889 6.4118 2.7492 10.8114 2.7492zm-11.3-11c0-2.8444 5.0601-5.15 11.302-5.15s11.302 2.3057 11.302 5.15-5.0601 5.15-11.302 5.15-11.302-2.3057-11.302-5.15z"/><path d="m47.8542 45.7261v.6766h1.5551v-.5565c.3053.0191.6703.0191 1.016.0191h.384v.5374h1.5168v-.6166c2.7834-.2999 4.1094-1.2643 4.1094-2.6701 0-.5469-.0571-.7845-.3076-1.3435h-2.0559c.2123.5182.2886.7773.2886 1.2546 0 .6166-.5938 1.1155-2.0344 1.334v-1.7634h-1.5168v1.8928c-.1907.0096-.384.0193-.6128.0193-.2697 0-.52-.0098-.7872-.0193v-1.8928h-1.5551v1.7538c-1.4023-.2089-2.1322-.6575-2.1322-1.3748 0-.4078.0763-.6454.2479-1.1539h-2.168c-.174.4269-.2312.7269-.2312 1.1226 0 1.4157 1.4404 2.4208 4.2834 2.7807z"/><path d="m19 50h6v5h-6z"/></svg>