<svg height="64" viewBox="0 0 64 64" width="64" xmlns="http://www.w3.org/2000/svg"><path d="m0 0h64v64h-64z" fill="none"/><path d="m45 31c-4.4183 0-8 3.5817-8 8v7.9848c-.0562.0209-.2623.0673-.3641-.2499l-.9474-4.7349h-13.6885c-6.6172 0-12 5.3828-12 12v9h8v-9c0-2.2061 1.7939-4 4-4h15v13h16v-24c0-4.4183-3.5817-8-8-8z"/><path d="m26.7778 23.0566c.5833-5.9166 6.25-6.6666 6.25-6.6666 0 4.9166-3.3333 7.4166-3.3333 7.4166s7.5.8334 12.5833-2.75c6.7444-4.7543 1.8333-13.25 1.8333-13.25s-.1666 3.0834-1.75 4.9167c-1.5833 1.8333-4.25 3.1667-5.0833 1.8333-.8333-1.3333 3.4399-2.7423 2.75-7.9166-.5-3.75-5.3333-5.9167-5.3333-5.9167s1.25 4.75-.9167 8.0833c-2.1667 3.3334-9.4167 2.6667-10.5833 7.3334-1.1667 4.6666 3.5833 6.9166 3.5833 6.9166z"/><path d="m23 26h10v14h-10z"/><path d="m23 52h10v11h-10z"/></svg>