<svg enable-background="new 0 0 64 64" height="64" viewBox="0 0 64 64" width="64" xmlns="http://www.w3.org/2000/svg"><path d="m0 0h64v64h-64z" fill="none"/><path d="m33.4 50.8 9.6-16.5c.8-1.4 2.4-2.3 4-2.3.3 0 .7 0 1 .1v-3.1h4c.6 0 1-.5 1-1v-1.5c0-.6-.2-1.1-.6-1.5l-14.4-13.1-9.2 10.2 4.4 12.1-9.4-.4-6 8.7 3.5-11.8 6.4-.5-2.4-9.9-6.1-3.9 8.3.9 7.1-8.4-5.9-5.4c-.4-.4-1-.4-1.4 0l-23.7 21.5c-.4.4-.6.9-.6 1.5v1.5c0 .6.4 1 1 1h4v21.9h25.4zm13.6 2.3c-.8 0-1.3.6-1.3 1.4 0 .9.5 1.3 1.3 1.3s1.3-.6 1.3-1.3c0-.9-.5-1.4-1.3-1.4zm14.8 5.3-13.4-22.6c-.3-.5-.8-.8-1.4-.8-.6 0-1.1.3-1.4.8l-13.2 22.6c-.3.5-.3 1.1 0 1.7.3.5.8.8 1.4.8h26.5c.6 0 1.1-.3 1.4-.8.4-.5.4-1.2.1-1.7zm-25.1-.8 10.3-17.7 10.4 17.7zm9.3-5.7 2-.1v-2l.2-4.9-2.2.3z"/></svg>