<svg enable-background="new 0 0 64 64" height="64" viewBox="0 0 64 64" width="64" xmlns="http://www.w3.org/2000/svg"><g fill="none"><path d="m0 0h64v64h-64z"/><path d="m9 10h6v6h-6z"/><path d="m19 20h6v6h-6z"/><path d="m9 30h6v6h-6z"/><path d="m9 20h6v6h-6z"/><path d="m29 10h6v6h-6z"/><path d="m29 20h6v6h-6z"/><path d="m19 10h6v6h-6z"/></g><path d="m38 3h-32c-1.1 0-2 .9-2 2v47h4l11-15.8v-6.2h6v3h4v-3h6v3h5v-28c0-1.1-.9-2-2-2zm-23 33h-6v-6h6zm0-10h-6v-6h6zm0-10h-6v-6h6zm10 10h-6v-6h6zm0-10h-6v-6h6zm10 10h-6v-6h6zm0-10h-6v-6h6z"/><path d="m59.5 35h-36c-.6 0-1.5.3-1.9.9l-15.7 22.7c-.7 1 0 2.4 1.3 2.4h34.3c1.1 0 2.2-.5 2.8-1.5l15.2-22.3c.1 0 .3.1.2.4l-2.7 6.5v12.9h-8.4l-2.6 3.8c0 .1 0 .1-.1.2h15.1v-24.7c0-.7-.7-1.3-1.5-1.3zm-18.2 23h-31l13.7-20h31.2z"/><path d="m28.1 49-4.9 7h7.5l4.9-7z"/><path d="m36.9 47 4.8-6.9h-7.5l-4.8 6.9z"/><path d="m27.7 47 4.8-6.9h-7.5l-4.8 6.9z"/><path d="m18.9 49-4.9 7h7.5l4.8-7z"/><path d="m32.5 56h7.5l4.9-7h-7.6z"/><path d="m46.2 47 4.8-6.9h-7.5l-4.8 6.9z"/></svg>