<svg height="64" viewBox="0 0 64 64" width="64" xmlns="http://www.w3.org/2000/svg"><path d="m0 0h64v64h-64z" fill="none"/><path d="m61.2249 30.2057-28.4123-26.8855c-.4594-.4269-1.1659-.4269-1.6254 0l-28.4121 26.8855c-.4939.4595-.7751 1.1067-.7751 1.7847v1.7968c0 .6697.5374 1.2128 1.2 1.2128h4.8v25h48v-25h4.8c.6626 0 1.2-.5431 1.2-1.2128v-1.7968c0-.678-.2812-1.3252-.7751-1.7847zm-49.1971 18.7943s.0815-3.9947 1.0891-5.0553c.7892-.8312 3.1824-1.5671 4.1955-1.8503.2473-.0691.4058-.2854.4556-.5373.0687-.3491.0842-.7163.0842-.7163-.6274-.7172-1.0946-1.5767-1.239-2.7916-.6448-.2009-.7737-1.0144-.7737-1.5217 0-.5071.0884-.7815.2686-.8665.2166-.1019.4167.0358.4779.0843-.0919-1.0537-.2256-3.4088.3312-4.1512.4962-.6616 1.438-1.1024 2.2985-1.3452 1.2384-.3495 1.7196.1406 2.4264.5287 1.0776-.2811 1.6428.0623 2.1079.9222.4332.8011.2891 2.961.1892 3.9973.0957-.0547.2419-.1103.3995-.0362.1803.085.2686.3594.2686.8665 0 .5073-.129 1.3209-.7737 1.5217-.1639 1.1747-.639 2.0714-1.2794 2.8177 0 0 .0258.3915.1118.7025.0671.2418.2166.453.4589.5183.2626.0709.6215.1727 1.0223.2977-1.197.498-2.2715 1.0869-2.9285 1.7646-1.0204 1.0522-1.6323 3.0614-1.9924 4.85h-7.1985zm8.9722 3s.5037-4.9835 1.7983-6.3187c1.1077-1.1426 4.6652-2.1401 5.6953-2.4108.0112.0058.0194.0111.0309.0169 1.3795.7033 2.6598.5161 3.069.3837.2448-.0791.2448-.2078.1829-.3162-.6821-.0297-1.3374-.1872-1.7012-.4874-1.377-1.1357-2.4956-2.4174-2.7644-4.6079-.8374-.2528-1.0049-1.277-1.0049-1.9156 0-.6384.1147-.9838.3488-1.0909.1263-.0577.2509-.0526.3571-.0242-.1204-1.3463-.2577-3.9673.4546-4.866.6602-.8328 1.9128-1.332 3.0574-1.6376 1.6472-.44 2.2874.0433 3.2277.5319 1.4335-.3538 2.2563-.0731 2.8751 1.0095.5659.9903.4819 3.6257.3978 4.9558.098-.0204.2081-.0209.321.0306.234.1071.3488.4525.3488 1.0909 0 .6386-.1675 1.6628-1.0049 1.9156-.2202 1.5293-.87 2.6866-1.7456 3.6449 0 0 .0389.3704.1123.6934.083.3654.3312.6726.7.7712 1.3782.3685 4.4648 1.2823 5.463 2.3122 1.2947 1.3352 1.781 6.3187 1.781 6.3187zm23.782-3c-.3553-1.7889-.9625-3.7971-1.9838-4.8502-.2391-.2467-.7916-.8119-2.3954-1.5255.2404-.0952.4631-.1819.6323-.2452.2247-.0842.361-.2917.407-.5273.0647-.3325.1218-.7894.1624-1.1577-1.4531-.0917-2.6893-.2462-3.2385-.4455-.1216-.0441-.1436-.1576-.0791-.2698.3035-.5269 1.0242-2.5609 1.0607-3.4418.0511-1.2385-.2606-3.4595 1.0193-5.1439 1.8191-2.3941 4.0591-.9631 4.0591-.9631 3.5273-1.1559 3.5181 3.4514 3.7427 6.0259.0914 1.0489.8188 3.0574 1.0989 3.6681.0449.0983-.0061.1911-.1072.2296-.5116.1949-1.7419.3416-3.2295.402.0435.3668.0986.8024.1479 1.0962.0397.2368.1821.4432.407.5273.5872.22 1.6895.6517 2.6759 1.1396.7532.3636 1.438.7581 1.7817 1.1201 1.0075 1.0607 1.0566 4.3612 1.0566 4.3612z"/></svg>