<svg enable-background="new 0 0 64 64" height="64" viewBox="0 0 64 64" width="64" xmlns="http://www.w3.org/2000/svg"><path d="m0 0h64v64h-64z" fill="none"/><path d="m18 57h6v-13h7v13h23v-19h-36zm18-13s2-2 6-2 6 2 6 2v8h-12z"/><path d="m16.1 18.4s1.5 4.5 2.6 10.3l5.1-3.6c-.5-1.6-1.5-5-3.1-8.8 0 0 4.3-1.9 7.6 3 .1.2.4.1.5-.1.3-2.1.8-8.8-3.8-11.1-5.2-2.6-7.3 2.4-7.3 2.4-4.9-9-15.2-4.4-14.7 6.5 0 .2.3.3.5.1 4.3-5.6 8.3-3.6 8.3-3.6-9.7 4.5-6.3 16.5-4.2 18.1.1.1.4 0 .4-.2.2-1.7 1.4-9.5 8.1-13z"/><path d="m36.1 19-24.1 17h48z"/></svg>