<svg height="64" viewBox="0 0 64 64" width="64" xmlns="http://www.w3.org/2000/svg"><path d="m0 0h64v64h-64z" fill="none"/><circle cx="45.5" cy="51.5" r="1.4779"/><circle cx="28.5" cy="44.5" r="7.5"/><path d="m61.2248 30.2057-28.4122-26.8855c-.4594-.4269-1.1659-.4269-1.6253 0l-28.4121 26.8855c-.4939.4595-.7752 1.1067-.7752 1.7847v1.7968c0 .6697.5374 1.2128 1.2 1.2128h4.8v25h48v-25h4.8c.6626 0 1.2-.5431 1.2-1.2128v-1.7968c0-.678-.2813-1.3252-.7752-1.7847zm-15.7248 24.9443c-2.0158 0-3.65-1.6342-3.65-3.65 0-1.0927.4899-2.0618 1.2507-2.7308l-1.2247-3.674c-.2183-.6553-.8291-1.0952-1.5196-1.0952h-1.2317c.0078.1669.0253.3312.0253.5 0 5.8818-4.7682 10.65-10.65 10.65s-10.65-4.7682-10.65-10.65c0-4.0105 2.2191-7.4998 5.4941-9.3163l-1.4742-9.8721-3.7324-.2565c-.772-.053-1.3547-.722-1.3016-1.494.048-.7007.6041-1.2454 1.2837-1.3003l5.2066-.4252c.9637-.0786 1.8128.6196 1.9364 1.5683l.652 4.5961 11.9792-.0125c.6818-.0109 1.2877.4904 1.403 1.1832.1259.7543-.3091 1.472-1.3607 1.6473l-14.1843.6425c-.0184.0571-.0556.265.2658.3527l2.4885.3814.256 1.8094c.5668-.0933 1.1446-.154 1.7378-.154 4.6539 0 8.6 2.9901 10.0493 7.15h1.8071c1.9844 0 3.7388 1.2646 4.3657 3.147l1.2499 3.7506c1.7906.2337 3.1781 1.7483 3.1781 3.6024 0 2.0158-1.6342 3.65-3.65 3.65z"/></svg>