<svg height="64" viewBox="0 0 64 64" width="64" xmlns="http://www.w3.org/2000/svg"><path d="m0 0h64v64h-64z" fill="none"/><path d="m57.4434 23.2119-10.8457-15.3652c-.375-.5308-.9844-.8467-1.6338-.8467h-25.9278c-.6494 0-1.2588.3159-1.6338.8467l-10.8457 15.3652c-.2338.3311.003.7881.4082.7881h7.0767l15.9585-13c1.1613-.9678 2.7742-.9355 4 0l15.958 13h7.0772c.4052 0 .642-.457.4082-.7881z"/><path d="m32 13.6797-16.4692 13.3203h-5.5308v29h44v-29h-5.5308zm-7 36.3203h-8v-5h8zm0-8h-8v-9h8zm11 8h-8v-5h8zm0-8h-8v-9h8zm-4-13.8c-2.3195 0-4.2-1.8806-4.2-4.2 0-2.3195 1.8805-4.2 4.2-4.2s4.2 1.8805 4.2 4.2c0 2.3194-1.8805 4.2-4.2 4.2zm15 21.8h-8v-5h8zm0-8h-8v-9h8z"/></svg>