<svg enable-background="new 0 0 64 64" height="64" viewBox="0 0 64 64" width="64" xmlns="http://www.w3.org/2000/svg"><path d="m0 0h64v64h-64z" fill="none"/><path d="m41.02 44.1802-5.7727 4.8198h10.7527v-11.3624c-1.1387 2.5186-2.8295 4.7478-4.98 6.5426zm-10.02-5.183 3.3569-2.8019c1.252-1.0454 2.147-2.4282 2.5879-3.9985l1.8799-6.6973c.8601-3.0632 3.0535-5.4683 5.8622-6.6665l-18.0097-16.5691c-.3828-.3519-.9716-.3519-1.3544 0l-23.6768 21.783c-.4116.3789-.646.9126-.646 1.4714v1.4817c0 .5522.4478 1 1 1h4v21h15v-15h10zm31.958-6.0514c-.7819-1.3579-2.9263-5.0698-4.2033-7.1641-1.915-3.1404-4.5496-5.8291-10.3593-5.5765-3.4949.152-6.5074 2.5211-7.4528 5.889l-1.8799 6.6973c-.559 1.9916-1.7082 3.7671-3.2961 5.0927l-5.9706 4.9843c-1.4312 1.1947-2.4389 2.8191-2.8735 4.6321l-2.0787 8.6722c-.0659.2748.1089.5497.3859.6063l3.5314.7236c.2373.0486.4753-.08.5649-.3049l3.3124-8.3225c.2605-.6414.5649-1.0354 1.0019-1.4001l5.9702-4.9839c2.5187-2.1025 4.3416-4.9187 5.2285-8.0776l1.8805-6.6982c.3867-1.3794 1.5986-1.5107 1.9609-1.5181.3599-.0063 1.5781.0747 2.021 1.438l2.8104 8.6542c.0864.2661.3744.4095.6389.3182l2.6865-.928c.2536-.0876.3929-.3599.3155-.6167-.0017-.0057-1.534-5.0992-1.5856-5.2646-.1489-.4777.5606-.8192.8344-.3721.0725.1184 3.0617 4.9346 3.0617 4.9346.1233.1981.3673.2845.5878.2083l2.6367-.9115c.2944-.1019.4257-.4422.2703-.712z"/></svg>