<svg height="64" viewBox="0 0 64 64" width="64" xmlns="http://www.w3.org/2000/svg"><path d="m0 0h64v64h-64z" fill="none"/><path d="m21.5713 49.04 1.9717-1.0391 1.9775 1.0449c.9258.4873 3.8867 1.7539 6.4297 1.7539 2.5439 0 5.5117-1.2705 6.4414-1.7598l1.9717-1.0391 1.9775 1.0449c.7852.4133 3.0344 1.38 5.2502 1.6663l.7932-3.7316c.5349-2.5167-.9376-4.9706-3.3242-5.7615l-3.1702-20.1551.7246.1541c.5403.1148 1.0713-.23 1.186-.7703l1.6633-7.8252c.1149-.5402-.23-1.0712-.7703-1.186l-.978-.2079c.4592-2.1609-.9202-4.285-3.0811-4.7443s-4.2849.9201-4.7441 3.0809l-.9783-.2079c-.5402-.1148-1.0712.23-1.186.7702l-1.6633 7.8252c-.1147.5402.2301 1.0712.7703 1.1861l6.2798 1.3348c-.0063.2285-.2281.4927-.5596.5264h-6.1021l-9.9868 15.416c-2.5022-.2485-4.8458 1.3945-5.3809 3.9113l-2.2227 10.4571c.0892.003.1807.0154.269.0154 2.5442.0001 5.512-1.2704 6.4417-1.7597zm15.5576-26.0644 1.0217 6.4948-4.5967-.9771zm-6.4858 10.0105 8.3394 1.7726.832 5.2885-12.0823-2.5682z"/><path d="m48.7695 53.05c-3.6318 0-7.4307-1.9951-7.4658-2.0137l-.9424-.501-.9414.5c-.0381.0195-3.8369 2.0146-7.4697 2.0146s-7.4316-1.9951-7.4668-2.0137l-.9424-.501-.9414.5c-.0381.0195-3.8369 2.0146-7.4697 2.0146-3.0103 0-6.1274-1.3669-7.1299-1.847v4.3007c1.7878.6942 4.4285 1.4965 7.1299 1.4965 3.4482 0 6.8193-1.3105 8.4102-2.0293 1.5908.7188 4.9619 2.0293 8.4101 2.0293s6.8193-1.3105 8.4102-2.0293c1.5908.7188 4.9609 2.0293 8.4091 2.0293 1.8582 0 3.6836-.3831 5.2305-.8466v-4.158c-1.4253.519-3.3479 1.0546-5.2305 1.0546z"/></svg>