<svg height="64" viewBox="0 0 64 64" width="64" xmlns="http://www.w3.org/2000/svg"><path d="m0 0h64v64h-64z" fill="none"/><path d="m62.707 35.7071-8.3535-8.3536c-.1953-.1953-.5117-.1953-.707 0l-8.3535 8.3536c-.1877.1876-.293.4419-.293.7071v1.0858c0 .2761.2239.5.5.5h1.5v8h5v-6h4v6h5v-8h1.5c.2761 0 .5-.2239.5-.5v-1.0858c0-.2652-.1053-.5195-.293-.7071z"/><path d="m14.5459 23.06c-1.6572 0-3.6377-1.3022-4.2559-1.8003l-1.2607-1.02-1.2617 1.0166c-.6231.5015-2.6035 1.8037-4.2617 1.8037-.8246 0-1.7288-.3228-2.5059-.7081v4.2393c.7882.2441 1.6355.4088 2.5059.4088 2.1895 0 4.25-1.0195 5.5205-1.8115 1.2705.792 3.331 1.8115 5.5195 1.8115.1321 0 .262-.0124.3923-.0219l2.3823-4.772c-.8342.4458-1.8491.8539-2.7746.8539z"/><path d="m44.1506 46.7615-11.3857-30.9038c-.4629-1.1241-1.5584-1.8577-2.7739-1.8577h-4.3357c-1.1426 0-2.1858.6488-2.6909 1.6735l-7.8724 15.9692c-.8431 1.7101-2.4486 2.9177-4.3256 3.2533l-9.7664 1.7463v16.3577h62v-5h-17c-.8104 0-1.5408-.4891-1.8494-1.2385z"/></svg>