<?xml version="1.0" encoding="utf-8"?>
<!-- Generator: Adobe Illustrator 17.1.0, SVG Export Plug-In . SVG Version: 6.00 Build 0)  -->
<svg version="1.2" baseProfile="tiny" xmlns="http://www.w3.org/2000/svg" xmlns:xlink="http://www.w3.org/1999/xlink" x="0px"
	 y="0px" width="64px" height="64px" viewBox="0 0 64 64" xml:space="preserve">
<g id="_x36_4px_Boxes">
	<rect fill="none" width="64" height="64"/>
</g>
<g id="Production">
	<g>
		<path d="M62.707,35.7071l-8.3535-8.3536c-0.1953-0.1953-0.5117-0.1953-0.707,0l-8.3535,8.3536
			C45.1053,35.8947,45,36.149,45,36.4142V37.5c0,0.2761,0.2239,0.5,0.5,0.5H47v8h5v-6h4v6h5v-8h1.5c0.2761,0,0.5-0.2239,0.5-0.5
			v-1.0858C63,36.149,62.8947,35.8947,62.707,35.7071z"/>
		<g>
			<path d="M14.5459,23.06c-1.6572,0-3.6377-1.3022-4.2559-1.8003l-1.2607-1.02l-1.2617,1.0166
				C7.1445,21.7578,5.1641,23.06,3.5059,23.06c-0.8246,0-1.7288-0.3228-2.5059-0.7081v4.2393C1.7882,26.8353,2.6355,27,3.5059,27
				c2.1895,0,4.25-1.0195,5.5205-1.8115C10.2969,25.9805,12.3574,27,14.5459,27c0.1321,0,0.262-0.0124,0.3923-0.0219l2.3823-4.772
				C16.4863,22.6519,15.4714,23.06,14.5459,23.06z"/>
		</g>
		<path d="M44.1506,46.7615L32.7649,15.8577C32.302,14.7336,31.2065,14,29.991,14h-4.3357c-1.1426,0-2.1858,0.6488-2.6909,1.6735
			l-7.8724,15.9692c-0.8431,1.7101-2.4486,2.9177-4.3256,3.2533L1,36.6423V53h62v-5H46C45.1896,48,44.4592,47.5109,44.1506,46.7615z
			"/>
	</g>
</g>
</svg>
