<?xml version="1.0" encoding="utf-8"?>
<!-- Generator: Adobe Illustrator 21.0.2, SVG Export Plug-In . SVG Version: 6.00 Build 0)  -->
<!DOCTYPE svg PUBLIC "-//W3C//DTD SVG 1.1//EN" "http://www.w3.org/Graphics/SVG/1.1/DTD/svg11.dtd">
<svg version="1.1" xmlns="http://www.w3.org/2000/svg" xmlns:xlink="http://www.w3.org/1999/xlink" x="0px" y="0px" width="64px"
	 height="64px" viewBox="0 0 64 64" style="enable-background:new 0 0 64 64;" xml:space="preserve">
<style type="text/css">
	.st0{fill:none;}
</style>
<g id="Box">
	<rect class="st0" width="64" height="64"/>
</g>
<g id="Icon">
	<g>
		<path d="M3.5,31.2c-0.5-0.5-0.8-1-1.3-1.7c-0.2-0.3-0.6-0.1-0.6,0.2c0,0.7,0,2,0.5,2.8c1.2,1.9,3.7,1.7,4.8,0.6
			c1.4-1.3,1.2-3,0.6-4.1c-0.5-0.8-0.9-1.5-1.4-2.1c0,0,0,0,0-0.1H7c0.6,0,1-0.4,1-1v-2c0-0.6-0.4-1-1-1H6v-9.7l5,8.1L17.4,47H9
			c-1.1,0-2,0.9-2,2v5.3c1.6-0.6,3.1-1.7,4.4-2.5c2,1.3,4.5,3.1,6.9,3.1c2.4,0,4.9-1.8,6.9-3.1c2,1.3,4.5,3.1,6.9,3.1
			c2.4,0,4.8-1.7,6.9-3.1c2,1.3,4.5,3.1,6.9,3.1c2.4,0,4.8-1.7,6.9-3.1c1.3,0.9,2.9,1.9,4.4,2.5V49c0-1.1-0.9-2-2-2h-3v-5
			c0-0.6-0.4-1-1-1h-4l-3.7,6H41l9.3-15.2c0.6-1.1,0.2-2.4-1-2.9l-20-7.9l-1.7-3.8c-0.3-0.7-0.8-1.3-1.4-1.7L5.9,1.5
			C5.5,1.2,5,1.2,4.6,1.6l-3,3C1.2,4.9,1.2,5.4,1.4,5.8L4,10c0,3.8,0,9.2,0,13H3c-0.6,0-1,0.4-1,1v2c0,0.6,0.4,1,1,1h1
			c0,0.1,0,0.1,0,0.2c0,0.5,0.2,1.1,0.6,1.6c0.4,0.5,0.6,0.7,0.8,1c0.4,0.5,0.4,1.2-0.1,1.6C4.7,31.8,4,31.7,3.5,31.2z M44.8,29.2
			l-6.9,11.3l-7.5-17L44.8,29.2z M28.9,35l5.3,12H23.6l-3-12H28.9z M22.3,20.1l4.4,9.9h-7.4l-2.6-10.3c-0.1-0.4-0.3-0.8-0.5-1.1
			l-2.8-4.6L22.3,20.1z"/>
		<path d="M59.4,57.1c-2.5,0-5-1.4-6.9-2.6c-1.9,1.2-4.3,2.6-6.9,2.6c-2.5,0-4.9-1.4-6.9-2.6c-1.9,1.2-4.3,2.6-6.9,2.6
			c-2.5,0-4.9-1.4-6.9-2.6c-2,1.3-4.4,2.6-6.9,2.6c-2.5,0-4.9-1.4-6.9-2.6c-1.9,1.3-4.3,2.6-6.9,2.6c-0.9,0-1.8-0.2-2.6-0.5v4.1
			C2.8,60.9,3.7,61,4.6,61c2.7,0,5.4-1.2,6.9-1.9c1.4,0.8,4.1,1.9,6.9,1.9c2.7,0,5.4-1.2,6.9-1.9c1.4,0.8,4.1,1.9,6.9,1.9
			s5.4-1.2,6.9-1.9c1.4,0.8,4.1,1.9,6.9,1.9c2.7,0,5.4-1.2,6.9-1.9c1.4,0.8,4.1,1.9,6.9,1.9c0.9,0,1.7-0.1,2.6-0.3v-4.1
			C61.2,56.9,60.3,57.1,59.4,57.1z"/>
	</g>
</g>
</svg>
