<?xml version="1.0" encoding="utf-8"?>
<!-- Generator: Adobe Illustrator 18.1.0, SVG Export Plug-In . SVG Version: 6.00 Build 0)  -->
<svg version="1.2" baseProfile="tiny" xmlns="http://www.w3.org/2000/svg" xmlns:xlink="http://www.w3.org/1999/xlink" x="0px"
	 y="0px" width="64px" height="64px" viewBox="0 0 64 64" xml:space="preserve">
<g id="Box">
	<rect fill="none" width="64" height="64"/>
</g>
<g id="Icon">
	<g>
		<path d="M14.3368,31.3222c-1.0235,1.6764-1.8265,3.2629-2.1474,4.8643c-0.5508,2.7529,0.1221,5.46,1.8955,7.623
			C16.2676,46.4727,19.8447,48,23.8994,48c1.4874,0,2.9056-0.2121,4.2164-0.6061c0.3644-0.1095,0.4154-0.3001,0.3074-0.4491
			c-4.4854-0.5497-8.3673-2.5164-10.8906-5.5952c-2.3734-2.8949-3.3262-6.5198-2.6521-10.219
			C14.7292,31.0417,14.5208,31.0208,14.3368,31.3222z"/>
		<path d="M36.3615,30.2904c1.3358-0.1661,2.8507-0.2736,4.3775-0.3419c-3.8198-7.5663-12.0207-13.8278-15.7244-24.9388
			c-0.3463-1.039-0.6556-1.3763-1.1152-1.3763S23.13,3.9707,22.7837,5.0097C18.3212,18.3973,7.3414,24.7444,5.3263,34.8129
			C3.2141,45.3657,11.5832,55,23.899,55c2.2199,0,4.308-0.3162,6.2318-0.8897c-0.116-1.3324-0.1893-2.7617-0.2327-4.16
			C28.0543,50.6238,26.0323,51,23.8994,51c-4.957,0-9.3799-1.9277-12.1348-5.2891C9.4111,42.8398,8.5176,39.248,9.248,35.5977
			c0.8135-4.0625,3.6621-7.6826,6.96-11.875c2.5742-3.2734,5.3877-6.8486,7.6924-11.21c2.3027,4.3516,5.1143,7.9209,7.6875,11.1875
			C33.4112,26.0142,35.0819,28.1542,36.3615,30.2904z"/>
		<path d="M58.435,35.826c-0.1949-1.1729-1.0873-2.0652-2.2607-2.2607C52.7829,33,47.1301,33,46.0001,33s-6.7828,0-10.1743,0.5654
			c-1.1734,0.1955-2.0657,1.0878-2.2607,2.2607C33,39.2173,33,44.8697,33,46c0,1.1304,0,6.7827,0.5651,10.174
			c0.195,1.1728,1.0873,2.0651,2.2607,2.2607C39.2172,59,44.87,59,46.0001,59s6.7828,0,10.1742-0.5653
			c1.1735-0.1956,2.0658-1.0879,2.2607-2.2607C59,52.7827,59,47.1304,59,46C59,42.607,59,39.2173,58.435,35.826z M44.2463,37
			l3.8137-0.3066l-0.3058,8.7939V49h-3.5079V37z M46.038,55.06c-1.3195,0-2.0737-0.7116-2.0737-2.0343
			c0-1.1701,0.6998-2.0857,2.0464-2.0857c1.3195,0,2.0735,0.7373,2.0735,2.0857C48.0843,54.1701,47.3838,55.06,46.038,55.06z"/>
	</g>
</g>
</svg>
