<svg height="64" viewBox="0 0 64 64" width="64" xmlns="http://www.w3.org/2000/svg"><path d="m0 0h64v64h-64z" fill="none"/><path d="m58 37-1.4322-13h.8764c.307 0 .5558-.2489.5558-.5558v-2.4442h-8v2.4442c0 .3069.2488.5558.5558.5558h.8725s-1.187 10.8348-1.4283 13h-.0396c-2.2081 0-4.3179.9126-5.83 2.5218l-6.0528 6.4415c1.538.967 3.5986 1.7536 5.5057 1.7536 5.1215 0 9.2488-4.0604 12.1428-7.2062 1.132 1.5943 4.02 5.9932 7.274 7.7964v-11.3071z"/><path d="m58 16.0948c0-.1931-.1002-.3723-.2646-.4734l-2.8637-1.3745c-.5355-.3294-1.2107-.3293-1.746.0002l-2.8613 1.3741c-.1642.1013-.2644.2805-.2644.4735v1.9053h8z"/><path d="m55.5054 44c-3.1786 3.4553-9.1212 7.0073-14.522 5.583-15.1667-4-12.8334-25.7497 5.6666-35.583-9.6831-7.3591-25.8249-3.887-34.5 9.1667-4.6402 6.9823-5.0024 11.7677-11.15 13.6246v5.1569c9.6482-2.1261 10.7238-9.1066 15.3143-16.014 5.0179-7.5506 13.0134-11.2534 19.9316-10.6765-7.1659 6.5698-11.061 15.323-10.0923 23.6833.8906 7.6875 5.9578 13.4732 13.5547 15.4768 5.3351 1.4069 10.6811-.2867 15.2053-3.4012 2.1372 2.1319 4.987 4.2834 8.0864 4.8438v-5.1544c-3.6787-1.3453-7.4946-6.706-7.4946-6.706z"/></svg>