<svg height="64" viewBox="0 0 64 64" width="64" xmlns="http://www.w3.org/2000/svg"><path d="m0 0h64v64h-64z" fill="none"/><path d="m26.043 11.2148c1.5549 1.1663 4.116 3.375 6 3.375 1.8833 0 4.4167-2.187 6-3.375 2.8922 2.1694 2.9342 2.2589 3.957 2.7559v-5.9707c0-2.2092-1.7908-4-4-4h-12c-2.2092 0-4 1.7908-4 4v6.0132c1.087-.5122 1.1735-.6452 4.043-2.7984z"/><path d="m56.043 17.09c-2.4616 0-4.9159-1.9367-6-2.75-1.0002.7503-3.4848 2.75-6 2.75-2.4616 0-4.9159-1.9367-6-2.75-1.0002.7503-3.4848 2.75-6 2.75-2.4616 0-4.9159-1.9367-6-2.75-1.0002.7503-3.4848 2.75-6 2.75-2.4616 0-4.9159-1.9367-6-2.75-1.0002.7503-3.4848 2.75-6 2.75-1.0184 0-2.1246-.3893-3.043-.8273v4.2183c.9427.3046 1.9789.519 3.043.519 2.397 0 4.6631-1.0762 6-1.8633 2.5021 1.4731 5.1318 2.2535 7.957 1.6356v40.2277h20v-7h-11v-3h11v-6h-6v-3h6v-6h-11v-3h11v-6h-6v-3h6c0-3.8492 0 2.8617 0-3.2483 2.8617.6507 5.5028-.1195 8.043-1.615 1.3369.7871 3.603 1.8633 6 1.8633 1.0322 0 2.0372-.2025 2.957-.4926v-4.2031c-.8999.4195-1.9733.7857-2.957.7857z"/></svg>