<svg height="64" viewBox="0 0 64 64" width="64" xmlns="http://www.w3.org/2000/svg"><path d="m0 0h64v64h-64z" fill="none"/><path d="m19.991 38.8598c-.2727-.7537-.6197-.8598-.9864-.8598-.3665 0-.7178.1061-.9907.8598-2.275 6.2855-6.8523 9.1402-7.8069 13.9094-1.0005 4.9987 3.8284 9.2308 8.7976 9.2308 4.9695 0 9.8068-4.2347 8.7935-9.2308-.9597-4.7307-5.532-7.6239-7.8071-13.9094zm-1.6346 19.5271c-1.6819 0-3.4456-.8251-4.4927-2.1035-.7061-.861-.9688-1.7717-.7817-2.7055.3372-1.6862 1.5239-3.292 3.0264-5.3246.7024-.9507 1.4763-1.9988 2.2427-3.1757.0254.0389.0503.0719.0754.1105-.968 3.4059-2.0251 6.4014-2.0251 8.5406 0 1.9584 1.3806 4.0527 2.3987 4.6317-.1482.0122-.2964.0265-.4437.0265z"/><path d="m50.7382 17-1.3705 6.7752c-.1028.3204-.3109.2736-.3677.2524v-7.0276c0-2.7844-3.0916-3.8737-6-3.9886v-4.7614l6.0107.5009c1.6092.134 2.9893-1.1358 2.9893-2.7505v-.0008c0-1.6147-1.3801-2.8846-2.9893-2.7505l-6.2791.5233c-.4696-1.0432-1.5133-1.7724-2.7316-1.7724s-2.262.7292-2.7317 1.7723l-6.2791-.5233c-1.6091-.134-2.9892 1.1358-2.9892 2.7506v.0009c0 1.6147 1.3801 2.8845 2.9893 2.7504l6.0107-.5009v4.7614c-2.9084.1149-6 1.2042-6 3.9886v1h-4c-6.1685 0-12 5.8315-12 12v5h8v-5c0-1.7568 2.2432-4 4-4h4s.5 6 9 6c6.3019 0 8.2029-3.2943 8.7664-5h8.2336v-10z"/></svg>