<svg height="64" viewBox="0 0 64 64" width="64" xmlns="http://www.w3.org/2000/svg"><path d="m0 0h64v64h-64z" fill="none"/><path d="m56.043 53.09c-2.4616 0-4.9159-1.9367-6-2.75-1.0002.7503-3.4848 2.75-6 2.75-2.4616 0-4.9159-1.9367-6-2.75-1.0002.7503-3.4848 2.75-6 2.75-2.4616 0-4.9159-1.9367-6-2.75-1.0002.7503-3.4848 2.75-6 2.75-2.4616 0-4.9159-1.9367-6-2.75-1.0002.7503-3.4848 2.75-6 2.75-1.0184 0-2.1246-.3893-3.043-.8273v4.2183c.9427.3046 1.9789.519 3.043.519 2.397 0 4.6631-1.0762 6-1.8633 1.3369.7871 3.603 1.8633 6 1.8633.6694 0 1.3254-.0895 1.957-.2277v4.2277h20c0-3.8325 0-.3123 0-4.2483.6579.1496 1.3429.2483 2.043.2483 2.397 0 4.6631-1.0762 6-1.8633 1.3369.7871 3.603 1.8633 6 1.8633 1.0322 0 2.0372-.2025 2.957-.4926v-4.2031c-.8999.4195-1.9733.7857-2.957.7857z"/><path d="m26.043 47.2148 2.7007 2.0254c.6069.4502 2.2671 1.3496 3.2993 1.3496.9985 0 2.6538-.8652 3.3003-1.3496l2.6997-2.0254c2.8864 2.1647 2.9298 2.2565 3.957 2.7558v-4.9706h-6v-3h6v-6h-11v-3h11v-6h-6v-3h6v-6h-11v-3h11v-7c0-2.2092-1.7908-4-4-4h-12c-2.2092 0-4 1.7908-4 4v42.0131c1.0652-.5021 1.1365-.6178 4.043-2.7983z"/></svg>