<svg height="64" viewBox="0 0 64 64" width="64" xmlns="http://www.w3.org/2000/svg"><path d="m0 0h64v64h-64z" fill="none"/><path d="m23.6182 25.6304c-1.0001.7502-4.7011 3.8059-8.3038 3.8059-1.3004 0-2.6956-.4635-3.9034-1.0106 1.024 2.6716 2.9396 4.8986 5.3878 6.3174 2.7482-.3455 5.2487-1.5496 6.8194-2.4743 1.3812.8132 3.4799 1.8482 5.8348 2.3212 2.1551-1.3182 3.8806-3.2664 4.9088-5.5963-.809.2593-1.6445.4424-2.4398.4424-3.4019.0002-6.7914-2.671-8.3038-3.8057z"/><path d="m23.6182 19.8132c1.8502 1.0894 4.9865 2.5787 8.3038 2.5787 1.1414 0 2.2566-.184 3.3101-.4597-.315-1.8677-1.0424-3.5935-2.0941-5.0806-.4102.0754-.8186.1289-1.216.1289-3.4019 0-6.7914-2.6713-8.3038-3.8059-1 .7502-4.7011 3.8059-8.3038 3.8059-.7399 0-1.5114-.1529-2.2631-.3817-1.0978 1.4719-1.8822 3.1877-2.2411 5.0579 1.4446.4384 3.2864.7351 4.5042.7351 3.3173.0002 6.4535-1.4892 8.3038-2.5786z"/><path d="m41.1996 36.2701c-2.3177 2.0827-4.2292 2.8623-4.718 3.0359-.2803.0995-.4465.0338-.5031-.0891.325-.2805 2.5176-2.4482 3.7678-4.3015 2.0975-3.1092 3.2537-6.8849 3.2537-10.9154 0-11.0457-8.9543-20-20-20s-20 8.9543-20 20 8.9543 20 20 20c4.0305 0 7.7753-1.2026 10.9155-3.2537l17.0283 18.2685c1.1622 1.1622 2.9944 1.3178 4.3236.3511 1.0001-.7274 1.4528-.8358 3.0986-3.0986.9667-1.3292.811-3.1614-.3511-4.3236zm-18.1996 2.1485c-7.9504 0-14.4186-6.4681-14.4186-14.4186s6.4682-14.4186 14.4186-14.4186 14.4186 6.4682 14.4186 14.4186-6.4682 14.4186-14.4186 14.4186z"/><path d="m52.0428 27c-1.0001.7503-3.4848 2.75-6 2.75-.4932 0-1.0054-.1064-1.5097-.2515-.3268 1.2836-.7698 2.5199-1.3091 3.7032.8831.2685 1.8359.4583 2.8188.4583 2.397 0 4.6631-1.0762 6-1.8633 1.3369.7871 3.603 1.8633 6 1.8633 1.0322 0 2.0372-.2025 2.957-.4926v-4.203c-.8999.4195-1.9733.7856-2.957.7856-2.4616 0-4.9159-1.9367-6-2.75z"/><path d="m52.0428 18c-1.0001.7503-3.4848 2.75-6 2.75-.3527 0-.7166-.0587-1.0798-.1393.1691 1.105.257 2.2369.257 3.3893 0 .2017-.0098.401-.0152.6014 2.4086.2336 4.7697-.587 6.838-1.8047 1.3369.7871 3.603 1.8633 6 1.8633 1.0322 0 2.0372-.2025 2.957-.4926v-4.203c-.8999.4195-1.9733.7856-2.957.7856-2.4616 0-4.9159-1.9367-6-2.75z"/><path d="m58.0428 11.75c-2.4615 0-4.9159-1.9367-6-2.75-1.0001.7503-3.4848 2.75-6 2.75-2.4615 0-4.9159-1.9367-6-2.75l-.3921.2942c1.5588 1.7636 2.8438 3.7743 3.7836 5.9693.8241.2344 1.7032.3965 2.6085.3965 2.397 0 4.6631-1.0762 6-1.8633 1.3369.7871 3.603 1.8633 6 1.8633 1.0322 0 2.0372-.2025 2.957-.4926v-4.203c-.8999.4195-1.9732.7856-2.957.7856z"/></svg>