<svg height="64" viewBox="0 0 64 64" width="64" xmlns="http://www.w3.org/2000/svg"><path d="m0 0h64v64h-64z" fill="none"/><path d="m20.0574 36.8475c.0017 0 .0033.0002.005.0002h.0002.0004c2.3969 0 4.6628-1.076 5.9998-1.8631 1.337.787 3.6028 1.8631 5.9997 1.8631h.0002.0004c2.3969 0 4.6628-1.076 5.9998-1.8631 1.337.787 3.6028 1.8631 5.9997 1.8631h.0002.0004c.4218 0 .8364-.0427 1.2457-.1019l1.7766-4.6223c-.9438.4655-1.9644.8138-3.0214.8141-.0004 0-.0007.0001-.0007.0001-2.4619-.0001-4.9161-1.9367-6.0002-2.75l-.0002.0002-.0003-.0002c-1.0001.7504-3.4846 2.7499-5.9998 2.75-2.4615-.0001-4.9156-1.9367-5.9997-2.75l-.0002.0002-.0003-.0002c-1.0001.7504-3.4846 2.7499-5.9998 2.75-.0032 0-.0068-.0009-.01-.0009-.9915-.0021-2.0763-.3779-2.9769-.8021-.0689-.0338-.1305-.0731-.1983-.108l1.806 4.6989c.4989.0715.7218.1214 1.3737.1219z"/><path d="m9.4476 40.6053c.266-.4333.1867-.9975-.1838-1.3382-.3724-.3408-.9307-.3574-1.3215-.0391l-5.4824 4.4547c-.244.1979-.3865.4987-.3875.8173.0009.3186.1435.6194.3874.8173l5.4824 4.4547c.3909.3182.9492.3016 1.3215-.0391.3705-.3408.4498-.9048.1838-1.3382l-1.9267-3.8946h-.0005l.0005-.0002z"/><path d="m56.1302 39.228c-.3909-.3182-.9492-.3016-1.3215.0392-.3706.3407-.4499.9048-.1839 1.3381l1.9267 3.8947h.0006l-.0006.0001-1.9267 3.8946c-.266.4333-.1867.9975.1839 1.3381.3724.3408.9307.3575 1.3215.0392l5.4824-4.4547c.2439-.1979.3865-.4987.3874-.8173-.0009-.3185-.1435-.6194-.3874-.8173z"/><path d="m35.8947 52.6248-3.8946 1.9267v.0005l-.0001-.0005-3.8946-1.9267c-.4333-.266-.9975-.1867-1.3381.1838-.3408.3724-.3575.9307-.0392 1.3215l4.4547 5.4824c.1978.2439.4987.3866.8172.3875.3186-.0009.6194-.1436.8173-.3875l4.4547-5.4824c.3183-.3909.3016-.9491-.0391-1.3215-.3407-.3705-.9049-.4498-1.3382-.1838z"/><path d="m52.5645 24-8.0713 21h-12.4932-12.4932l-8.0713-21h-9.4355v5h6l7.334 19.0791c.4424 1.1494 1.5674 1.9209 2.7988 1.9209h13.8672 13.8672c1.2314 0 2.3564-.7715 2.7988-1.9209l7.334-19.0791h6v-5z"/></svg>