<?xml version="1.0" encoding="utf-8"?>
<!-- Generator: Adobe Illustrator 18.1.0, SVG Export Plug-In . SVG Version: 6.00 Build 0)  -->
<svg version="1.2" baseProfile="tiny" xmlns="http://www.w3.org/2000/svg" xmlns:xlink="http://www.w3.org/1999/xlink" x="0px"
	 y="0px" width="64px" height="64px" viewBox="0 0 64 64" xml:space="preserve">
<g id="Box">
	<rect fill="none" width="64" height="64"/>
</g>
<g id="Icon">
	<g>
		<path d="M56.043,15.75c-1.8911,0-4.1094-1.3379-4.7998-1.8496L50.043,13l-1.2002,0.9004
			c-0.6396,0.4795-2.895,1.8496-4.7998,1.8496c-1.8911,0-4.1094-1.3379-4.7998-1.8496L38.043,13l-1.2002,0.9004
			c-0.6396,0.4795-2.895,1.8496-4.7998,1.8496c-1.8911,0-4.1094-1.3379-4.7998-1.8496L26.043,13l-1.2002,0.9004
			c-0.6396,0.4795-2.895,1.8496-4.7998,1.8496c-1.8911,0-4.1094-1.3379-4.7998-1.8496L14.043,13l-1.2002,0.9004
			C12.2031,14.3799,9.9478,15.75,8.043,15.75c-1.0184,0-2.1246-0.3893-3.043-0.8273v4.2183c0.9427,0.3047,1.9789,0.519,3.043,0.519
			c2.397,0,4.6631-1.0762,6-1.8633c1.3369,0.7871,3.603,1.8633,6,1.8633s4.6631-1.0762,6-1.8633
			c1.3369,0.7871,3.603,1.8633,6,1.8633s4.6631-1.0762,6-1.8633c1.3369,0.7871,3.603,1.8633,6,1.8633s4.6631-1.0762,6-1.8633
			c1.3369,0.7871,3.603,1.8633,6,1.8633c1.0322,0,2.0372-0.2025,2.957-0.4926v-4.203C58.1001,15.3839,57.0267,15.75,56.043,15.75z"
			/>
		<path d="M28.1621,39.2383c-0.1672-0.1419-0.3651-0.2202-0.566-0.2355c-0.272-0.0207-0.5494,0.0739-0.7631,0.2822
			c-0.3721,0.3612-0.4409,0.9571-0.163,1.4042L28.7344,44H7.5149C6.3475,44,6,45.1241,6,46.1197C6,47.1171,6.3475,48,7.5149,48
			h21.2195l-3.0645,3.3107c-0.2778,0.4471-0.2091,1.043,0.163,1.4042c0.2137,0.2083,0.4911,0.3029,0.7631,0.2822
			c0.2009-0.0153,0.3989-0.0936,0.566-0.2355l7.9539-5.9118C35.3585,46.6434,35.5,46.3306,35.5,46s-0.1415-0.6434-0.384-0.8499
			L28.1621,39.2383z"/>
		<path d="M45.1621,25.2383c-0.1672-0.1419-0.3651-0.2202-0.566-0.2355c-0.272-0.0207-0.5494,0.0739-0.7631,0.2822
			c-0.3721,0.3612-0.4409,0.9571-0.163,1.4042L45.7344,30H7.5149C6.3475,30,6,31.1241,6,32.1197C6,33.1171,6.3475,34,7.5149,34
			h38.2195l-2.0645,3.3107c-0.2778,0.4471-0.2091,1.043,0.163,1.4042c0.2137,0.2083,0.4911,0.3029,0.7631,0.2822
			c0.2009-0.0153,0.3989-0.0936,0.566-0.2355l6.9539-5.9118C52.3585,32.6434,52.5,32.3306,52.5,32s-0.1415-0.6434-0.384-0.8499
			L45.1621,25.2383z"/>
	</g>
</g>
</svg>
