<?xml version="1.0" encoding="utf-8"?>
<!-- Generator: Adobe Illustrator 17.1.0, SVG Export Plug-In . SVG Version: 6.00 Build 0)  -->
<svg version="1.2" baseProfile="tiny" xmlns="http://www.w3.org/2000/svg" xmlns:xlink="http://www.w3.org/1999/xlink" x="0px"
	 y="0px" width="64px" height="64px" viewBox="0 0 64 64" xml:space="preserve">
<g id="_x36_4px_Boxes">
	<rect fill="none" width="64" height="64"/>
</g>
<g id="Production">
	<g>
		<path d="M50.5947,53.4818l-1.0273,0.6113c-0.0332,0.0195-3.3389,1.9668-6.4658,1.9668c-3.126,0-6.4316-1.9463-6.4609-1.9648
			l-1.0293-0.6133l-1.0273,0.6113c-0.0332,0.0195-3.3389,1.9668-6.4658,1.9668c-3.126,0-6.4316-1.9463-6.4609-1.9648l-1.0293-0.6133
			l-1.0273,0.6113c-0.0332,0.0195-3.3389,1.9668-6.4658,1.9668c-3.126,0-6.4316-1.9473-6.4609-1.9648l-1.0293-0.6133L5,53.8654
			v4.4566c0.2357-0.1073,0.4518-0.2104,0.6436-0.3054C7.1513,58.7636,10.1045,60,13.1347,60c3.0312,0,5.9844-1.2363,7.4922-1.9834
			C22.1347,58.7636,25.0869,60,28.1181,60s5.9844-1.2363,7.4922-1.9834C37.1181,58.7636,40.0703,60,43.1015,60
			s5.9844-1.2363,7.4922-1.9834c1.3269,0.6574,3.7727,1.6918,6.4062,1.931v-3.9619c-2.7607-0.352-5.3501-1.8741-5.376-1.8906
			L50.5947,53.4818z"/>
		<path d="M41,10.5589c0-0.3474-0.1802-0.6698-0.4761-0.8517l-4.4556-2.4728c-0.9634-0.5927-2.1782-0.5924-3.1414,0.0005
			l-4.4512,2.4723C28.1801,9.8891,28,10.2115,28,10.5586V13h13V10.5589z"/>
		<path d="M39.12,23H40c0.5522,0,1-0.4478,1-1v-3H28v3c0,0.5522,0.4478,1,1,1h6.9849c0.0208,0.0562,0.0673,0.2623-0.25,0.3641
			l-6.0428,1.2026L27.12,46H21c-2.0774,0-4.0476,0.9227-5.3776,2.5187l-4.2123,5.0547c0.5771,0.1357,1.1648,0.2264,1.7246,0.2264
			c2.0771,0,4.5625-1.1982,5.3447-1.6592l2.1523-1.2695l2.1562,1.2783c0.7793,0.459,3.2559,1.6504,5.3301,1.6504
			c2.0771,0,4.5625-1.1982,5.3447-1.6592l2.1523-1.2695l2.1562,1.2783c0.7793,0.459,3.2559,1.6504,5.3301,1.6504
			c2.0771,0,4.5625-1.1982,5.3447-1.6592l2.1523-1.2695l2.1562,1.2783C53.4013,52.5302,55.216,53.406,57,53.6964V46H41.88L39.12,23z
			"/>
		<polygon points="26,11 9,4 9,8 26,14 		"/>
		<polygon points="43,11 43,14 60,8 60,4 		"/>
		<polygon points="26,18 9,24 9,28 26,21 		"/>
		<polygon points="43,21 60,28 60,24 43,18 		"/>
	</g>
</g>
</svg>
