<svg height="64" viewBox="0 0 64 64" width="64" xmlns="http://www.w3.org/2000/svg"><path d="m0 0h64v64h-64z" fill="none"/><path d="m50.5947 53.4818-1.0273.6113c-.0332.0195-3.3389 1.9668-6.4658 1.9668-3.126 0-6.4316-1.9463-6.4609-1.9648l-1.0293-.6133-1.0273.6113c-.0332.0195-3.3389 1.9668-6.4658 1.9668-3.126 0-6.4316-1.9463-6.4609-1.9648l-1.0293-.6133-1.0273.6113c-.0332.0195-3.3389 1.9668-6.4658 1.9668-3.126 0-6.4316-1.9473-6.4609-1.9648l-1.0293-.6133-.6448.3836v4.4566c.2357-.1073.4518-.2104.6436-.3054 1.5077.747 4.4609 1.9834 7.4911 1.9834 3.0312 0 5.9844-1.2363 7.4922-1.9834 1.5078.747 4.46 1.9834 7.4912 1.9834s5.9844-1.2363 7.4922-1.9834c1.5078.747 4.46 1.9834 7.4912 1.9834s5.9844-1.2363 7.4922-1.9834c1.3269.6574 3.7727 1.6918 6.4062 1.931v-3.9619c-2.7607-.352-5.3501-1.8741-5.376-1.8906z"/><path d="m41 10.5589c0-.3474-.1802-.6698-.4761-.8517l-4.4556-2.4728c-.9634-.5927-2.1782-.5924-3.1414.0005l-4.4512 2.4723c-.2956.1819-.4757.5043-.4757.8514v2.4414h13z"/><path d="m39.12 23h.88c.5522 0 1-.4478 1-1v-3h-13v3c0 .5522.4478 1 1 1h6.9849c.0208.0562.0673.2623-.25.3641l-6.0428 1.2026-2.5721 21.4333h-6.12c-2.0774 0-4.0476.9227-5.3776 2.5187l-4.2123 5.0547c.5771.1357 1.1648.2264 1.7246.2264 2.0771 0 4.5625-1.1982 5.3447-1.6592l2.1523-1.2695 2.1562 1.2783c.7793.459 3.2559 1.6504 5.3301 1.6504 2.0771 0 4.5625-1.1982 5.3447-1.6592l2.1523-1.2695 2.1562 1.2783c.7793.459 3.2559 1.6504 5.3301 1.6504 2.0771 0 4.5625-1.1982 5.3447-1.6592l2.1523-1.2695 2.1562 1.2783c.6468.3808 2.4615 1.2566 4.2455 1.547v-7.6964h-15.12z"/><path d="m26 11-17-7v4l17 6z"/><path d="m43 11v3l17-6v-4z"/><path d="m26 18-17 6v4l17-7z"/><path d="m43 21 17 7v-4l-17-6z"/></svg>