<svg height="64" viewBox="0 0 64 64" width="64" xmlns="http://www.w3.org/2000/svg"><path d="m0 0h64v64h-64z" fill="none"/><path d="m26.043 30 2.7007 2.0259c.6069.4502 2.2671 1.3496 3.2993 1.3496.9985 0 2.6538-.8657 3.3003-1.3501l2.6997-2.0254c2.8868 2.1655 2.9298 2.257 3.957 2.7563v-5.7563h-6v-3h6v-6h-11v-3h11v-7c0-2.2092-1.7908-4-4-4h-12c-2.2092 0-4 1.7908-4 4v24.7985c1.0652-.5024 1.1363-.6178 4.043-2.7985z"/><path d="m56.043 35.8755c-2.4615 0-4.9159-1.9367-6-2.75-1.0001.7503-3.4848 2.75-6 2.75-2.4615 0-4.9159-1.9367-6-2.75-1.0001.7503-3.4848 2.75-6 2.75-2.4615 0-4.9159-1.9367-6-2.75-1.0001.7503-3.4848 2.75-6 2.75-2.4615 0-4.9159-1.9367-6-2.75-1.0001.7503-3.4848 2.75-6 2.75-1.0184 0-2.1246-.3893-3.043-.8273v4.2183c.9427.3047 1.9789.519 3.043.519 2.397 0 4.6631-1.0762 6-1.8633 1.3369.7871 3.603 1.8633 6 1.8633.6694 0 1.3254-.0895 1.957-.2277v21.4422h20v-7h-11v-3h11v-6h-6v-3h6v-2.4628c.6579.1496 1.3429.2483 2.043.2483 2.397 0 4.6631-1.0762 6-1.8633 1.3369.7871 3.603 1.8633 6 1.8633 1.0322 0 2.0372-.2025 2.957-.4926v-4.203c-.8999.4194-1.9733.7856-2.957.7856z"/></svg>