<?xml version="1.0" encoding="utf-8"?>
<!-- Generator: Adobe Illustrator 18.1.0, SVG Export Plug-In . SVG Version: 6.00 Build 0)  -->
<svg version="1.2" baseProfile="tiny" xmlns="http://www.w3.org/2000/svg" xmlns:xlink="http://www.w3.org/1999/xlink" x="0px"
	 y="0px" width="64px" height="64px" viewBox="0 0 64 64" xml:space="preserve">
<g id="Box">
	<rect fill="none" width="64" height="64"/>
</g>
<g id="Icon">
	<g>
		<path d="M52.0428,27c-1.0002,0.7503-3.4848,2.75-6,2.75c-2.4616,0-4.9159-1.9367-6-2.75c-1.0002,0.7503-3.4848,2.75-6,2.75
			c-2.4616,0-4.9159-1.9367-6-2.75c-1.0002,0.7503-3.4848,2.75-6,2.75c-0.0141,0-0.0289-0.0034-0.043-0.0035v3.9111
			c0.0145,0.0001,0.0285,0.0023,0.043,0.0023c2.397,0,4.6631-1.0762,6-1.8633c1.3369,0.7871,3.603,1.8633,6,1.8633
			s4.6631-1.0762,6-1.8633c1.3369,0.7871,3.603,1.8633,6,1.8633s4.6631-1.0762,6-1.8633c1.3369,0.7871,3.603,1.8633,6,1.8633
			c1.0322,0,2.0372-0.2025,2.957-0.4926v-4.203c-0.8999,0.4195-1.9733,0.7856-2.957,0.7856
			C55.5812,29.75,53.1269,27.8133,52.0428,27z"/>
		<path d="M52.0428,18c-1.0002,0.7503-3.4848,2.75-6,2.75c-2.4616,0-4.9159-1.9367-6-2.75c-1.0002,0.7503-3.4848,2.75-6,2.75
			c-2.4616,0-4.9159-1.9367-6-2.75c-1.0002,0.7503-3.4848,2.75-6,2.75c-0.0141,0-0.0289-0.0034-0.043-0.0035v3.9111
			c0.0145,0.0001,0.0285,0.0023,0.043,0.0023c2.397,0,4.6631-1.0762,6-1.8633c1.3369,0.7871,3.603,1.8633,6,1.8633
			s4.6631-1.0762,6-1.8633c1.3369,0.7871,3.603,1.8633,6,1.8633s4.6631-1.0762,6-1.8633c1.3369,0.7871,3.603,1.8633,6,1.8633
			c1.0322,0,2.0372-0.2025,2.957-0.4926v-4.203c-0.8999,0.4195-1.9733,0.7856-2.957,0.7856
			C55.5812,20.75,53.1269,18.8133,52.0428,18z"/>
		<path d="M58.0428,11.75c-2.4616,0-4.9159-1.9367-6-2.75c-1.0002,0.7503-3.4848,2.75-6,2.75c-2.4616,0-4.9159-1.9367-6-2.75
			c-1.0002,0.7503-3.4848,2.75-6,2.75c-2.4616,0-4.9159-1.9367-6-2.75c-1.0002,0.7503-3.4848,2.75-6,2.75
			c-0.0141,0-0.0289-0.0034-0.043-0.0035v3.9111c0.0145,0.0001,0.0285,0.0023,0.043,0.0023c2.397,0,4.6631-1.0762,6-1.8633
			c1.3369,0.7871,3.603,1.8633,6,1.8633s4.6631-1.0762,6-1.8633c1.3369,0.7871,3.603,1.8633,6,1.8633s4.6631-1.0762,6-1.8633
			c1.3369,0.7871,3.603,1.8633,6,1.8633c1.0322,0,2.0372-0.2025,2.957-0.4926v-4.203C60.0999,11.3839,59.0266,11.75,58.0428,11.75z"
			/>
		<path d="M20,42.5201V8.96C20,5.1223,16.8777,2,13.04,2H13.04C9.1519,2,6,5.1519,6,9.04v33.485C3.4977,44.5964,2,47.7059,2,51
			c0,6.0654,4.9346,11,11.0001,11c5.5366,0,10.0527-4.041,10.8643-9.2559C24.4764,48.8107,22.9825,44.9705,20,42.5201z
			 M20.3524,54.2628c-1.076,2.6926-3.6172,4.3009-6.2866,4.6685c-0.6127,0.0844-0.6752-0.0719-0.6439-0.2438
			c2.9219-1.2031,4.8638-4.0159,4.8638-7.2232c0-2.6069-1.298-4.9096-3.2857-6.3308V39h-3v-2h3v-5h-3v-2h3v-5h-3v-2h3v-4.7857H9V9
			c0-2.2092,1.7908-4,4-4h0.04C15.2271,5,17,6.7729,17,8.96v35.119C20.2377,45.9545,22.0467,50.0233,20.3524,54.2628z"/>
	</g>
</g>
</svg>
