<svg height="64" viewBox="0 0 64 64" width="64" xmlns="http://www.w3.org/2000/svg"><path d="m0 0h64v64h-64z" fill="none"/><path d="m56.043 23.09c-2.4615 0-4.9159-1.9367-6-2.75-1.0001.7504-3.4849 2.75-6 2.75-2.4615 0-4.9159-1.9367-6-2.75-1.0001.7504-3.4849 2.75-6 2.75-2.4615 0-4.9159-1.9367-6-2.75-1.0001.7504-3.4849 2.75-6 2.75-2.4615 0-4.9159-1.9367-6-2.75-1.0001.7504-3.4849 2.75-6 2.75-1.0183 0-2.1245-.3893-3.043-.8273v4.2183c.9426.3046 1.9789.519 3.043.519 2.397 0 4.6631-1.0762 6-1.8633 1.3369.7871 3.603 1.8633 6 1.8633s4.6631-1.0762 6-1.8633c1.3369.7871 3.603 1.8633 6 1.8633s4.6631-1.0762 6-1.8633c1.3369.7871 3.603 1.8633 6 1.8633s4.6631-1.0762 6-1.8633c1.3369.7871 3.603 1.8633 6 1.8633 1.0322 0 2.0371-.2025 2.957-.4926v-4.2031c-.8999.4195-1.9733.7857-2.957.7857z"/><path d="m33.0352 44.9368 3.0238-5.2104c-1.1486.7031-2.5724 1.3636-4.016 1.3636-2.4615 0-4.9159-1.9367-6-2.75-1.0001.7504-3.4849 2.75-6 2.75-2.4615 0-4.9159-1.9367-6-2.75-1.0001.7504-3.4849 2.75-6 2.75-1.0183 0-2.1245-.3893-3.043-.8273v4.2183c.9426.3046 1.9789.519 3.043.519 2.397 0 4.6631-1.0762 6-1.8633 1.3369.7871 3.603 1.8633 6 1.8633s4.6631-1.0762 6-1.8633c1.3369.7871 3.603 1.8633 6 1.8633.3344 0 .665-.025.9922-.0632z"/><path d="m51.9658 39.6852 3.1019 5.2542c.3217.0369.6467.0606.9753.0606 1.0322 0 2.0371-.2025 2.957-.4926v-4.2031c-.8999.4195-1.9733.7856-2.957.7856-1.4585.0001-2.9073-.6814-4.0772-1.4047z"/><path d="m50.043 29.34c-.6726.5046-2.0217 1.5634-3.5947 2.2099.701.4113 1.3007.9931 1.7246 1.7104l.8438 1.4291c.3801-.1885.7292-.3777 1.0264-.5527 1.3369.7871 3.603 1.8633 6 1.8633 1.0322 0 2.0371-.2025 2.957-.4926v-4.2031c-.8999.4195-1.9733.7856-2.957.7856-2.4617.0001-4.916-1.9366-6.0001-2.7499z"/><path d="m14.043 34.1367c1.3369.7871 3.603 1.8633 6 1.8633s4.6631-1.0762 6-1.8633c1.3369.7871 3.603 1.8633 6 1.8633s4.6631-1.0762 6-1.8633c.2789.1642.6064.3413.959.5183l.791-1.363c.4336-.7466 1.054-1.3513 1.7812-1.7696-1.5098-.6363-2.8186-1.6478-3.5312-2.1824-1.0001.7504-3.4849 2.75-6 2.75-2.4615 0-4.9159-1.9367-6-2.75-1.0001.7504-3.4849 2.75-6 2.75-2.4615 0-4.9159-1.9367-6-2.75-1.0001.7504-3.4849 2.75-6 2.75-1.0183 0-2.1245-.3893-3.043-.8273v4.2183c.9426.3046 1.9789.519 3.043.519 2.3969 0 4.6631-1.0762 6-1.8633z"/><path d="m45.4167 34.8871c-.2974-.5042-.8392-.8134-1.4248-.8134-.0022 0-.0044 0-.0065 0-.5878.0021-1.1296.3162-1.4249.8242l-13.1246 22.6166c-.2968.5117-.298 1.1436-.0027 1.6565.2952.5128.8419.829 1.434.829h26.4779c.5941 0 1.1426-.3184 1.4373-.8345.2946-.5161.2898-1.1501-.0123-1.6619zm-11.0626 21.2795 9.6555-16.6386 9.8237 16.6386z"/><path d="m43.9895 52.6688c-.8053 0-1.2236.5795-1.2236 1.3202 0 .8373.4509 1.2877 1.2397 1.2877.8048 0 1.2236-.5633 1.2236-1.2877 0-.8536-.4509-1.3202-1.2397-1.3202z"/><path d="m43.0669 51.5873 1.8989-.0507v-2.3283l.18-5.1644-2.0789.1866z"/></svg>