<svg height="64" viewBox="0 0 64 64" width="64" xmlns="http://www.w3.org/2000/svg"><path d="m0 0h64v64h-64z" fill="none"/><path d="m52.5361 32.0601-6.9539-5.9118c-.9073-.7699-2.1313.4224-1.4922 1.4509l2.0355 3.2643c-.364.081-.7288.1365-1.0825.1365-2.4616 0-4.9159-1.9367-6-2.75-1.0002.7503-3.4848 2.75-6 2.75-2.4616 0-4.9159-1.9367-6-2.75-1.0002.7503-3.4848 2.75-6 2.75-2.4616 0-4.9159-1.9367-6-2.75-1.0002.7503-3.4848 2.75-6 2.75-1.0184 0-2.1246-.3893-3.043-.8273v4.2183c.9427.3047 1.9789.519 3.043.519 2.397 0 4.6631-1.0762 6-1.8633 1.3369.7871 3.603 1.8633 6 1.8633s4.6631-1.0762 6-1.8633c1.3369.7871 3.603 1.8633 6 1.8633s4.6631-1.0762 6-1.8633c1.3369.7871 3.603 1.8633 6 1.8633.3739 0 .7426-.032 1.1068-.0792l.0048.0792-2.0646 3.3107c-.6413 1.0322.5859 2.2197 1.4922 1.451l6.9539-5.9119c.5115-.4353.5115-1.2644 0-1.6997z"/><path d="m39 11v-7h-33v19h21c6.6274 0 12-5.3726 12-12z"/><path d="m27 41h-21v19h33v-7c0-6.6274-5.3726-12-12-12z"/></svg>