<svg height="64" viewBox="0 0 64 64" width="64" xmlns="http://www.w3.org/2000/svg"><path d="m0 0h64v64h-64z" fill="none"/><path d="m30.4516 16.2024c1.6431.3235 5.9705 1.1145 6.6243 2.6741.6215 1.4827-1.1062 4.3223-2.0491 5.7606-.1221.1863.1029.4012.2834.2708 1.3707-.9902 4.607-2.6138 5.8062-1.9908 1.3287.6904 2.4288 4.8677 2.7008 6.4909.0365.2178.3455.2209.3937.0054.376-1.6829 1.3897-5.9435 2.6197-6.4963 1.2493-.5615 4.3732 1.1441 5.8032 2.0612.1845.1183.3965-.0983.2733-.2795-.9833-1.4453-2.8497-4.4495-2.0359-5.8222.8304-1.4009 5.2515-2.2908 6.806-2.6605.2058-.049.2029-.3419-.0032-.3895-1.6264-.3758-6.248-1.2916-6.8029-2.6642-.5554-1.374 1.1092-4.3411 1.9855-5.7522.1113-.1793-.0968-.3868-.2764-.2759-1.4318.8839-4.4545 2.5762-5.7496 1.9876-1.3193-.5995-2.29-5.5442-2.675-7.1183-.0494-.2018-.3329-.2059-.3875-.0054-.4345 1.5939-1.5018 6.6187-2.6517 7.1237-1.14.5007-4.3225-1.1995-5.7809-2.0421-.1823-.1053-.3808.1044-.2685.2824.8613 1.3658 2.5357 4.3088 2.0089 5.8002-.5055 1.4311-4.9452 2.285-6.629 2.6492-.2139.0462-.21.3486.0047.3908zm13.5484-5.3899c2.865 0 5.1875 2.3225 5.1875 5.1875 0 2.8649-2.3225 5.1875-5.1875 5.1875s-5.1875-2.3226-5.1875-5.1875c0-2.865 2.3225-5.1875 5.1875-5.1875z"/><path d="m51.2432 54.2404-1.2002-.9004-1.2002.9004c-.6396.4795-2.895 1.8496-4.7998 1.8496-1.8911 0-4.1094-1.3379-4.7998-1.8496l-1.2002-.9004-1.2002.9004c-.6396.4795-2.895 1.8496-4.7998 1.8496-1.8911 0-4.1094-1.3379-4.7998-1.8496l-1.2002-.9004-1.2002.9004c-.6396.4795-2.895 1.8496-4.7998 1.8496-1.8911 0-4.1094-1.3379-4.7998-1.8496l-1.2002-.9004-1.2002.9004c-.6397.4795-2.895 1.8496-4.7998 1.8496-1.0184 0-2.1246-.3893-3.043-.8273v4.2183c.9427.3046 1.9789.519 3.043.519 2.397 0 4.6631-1.0762 6-1.8633 1.3369.7871 3.603 1.8633 6 1.8633s4.6631-1.0762 6-1.8633c1.3369.7871 3.603 1.8633 6 1.8633s4.6631-1.0762 6-1.8633c1.3369.7871 3.603 1.8633 6 1.8633s4.6631-1.0762 6-1.8633c1.3369.7871 3.603 1.8633 6 1.8633 1.0322 0 2.0372-.2025 2.957-.4926v-4.203c-.8999.4195-1.9733.7856-2.957.7856-1.8911 0-4.1094-1.3379-4.7998-1.8496z"/><path d="m51.2432 45.2404-1.2002-.9004-1.2002.9004c-.6396.4795-2.895 1.8496-4.7998 1.8496-1.8911 0-4.1094-1.3379-4.7998-1.8496l-1.2002-.9004-1.2002.9004c-.6396.4795-2.895 1.8496-4.7998 1.8496-1.8911 0-4.1094-1.3379-4.7998-1.8496l-1.2002-.9004-1.2002.9004c-.6396.4795-2.895 1.8496-4.7998 1.8496-1.8911 0-4.1094-1.3379-4.7998-1.8496l-1.2002-.9004-1.2002.9004c-.6397.4795-2.895 1.8496-4.7998 1.8496-1.0184 0-2.1246-.3893-3.043-.8273v4.2183c.9427.3046 1.9789.519 3.043.519 2.397 0 4.6631-1.0762 6-1.8633 1.3369.7871 3.603 1.8633 6 1.8633s4.6631-1.0762 6-1.8633c1.3369.7871 3.603 1.8633 6 1.8633s4.6631-1.0762 6-1.8633c1.3369.7871 3.603 1.8633 6 1.8633s4.6631-1.0762 6-1.8633c1.3369.7871 3.603 1.8633 6 1.8633 1.0322 0 2.0372-.2025 2.957-.4926v-4.203c-.8999.4195-1.9733.7856-2.957.7856-1.8911 0-4.1094-1.3379-4.7998-1.8496z"/><path d="m56.043 38.09c-1.8911 0-4.1094-1.3379-4.7998-1.8496l-1.2002-.9004-1.2002.9004c-.6396.4795-2.895 1.8496-4.7998 1.8496-1.8911 0-4.1094-1.3379-4.7998-1.8496l-1.2002-.9004-1.2002.9004c-.6396.4795-2.895 1.8496-4.7998 1.8496-1.8911 0-4.1094-1.3379-4.7998-1.8496l-1.2002-.9004-1.2002.9004c-.6396.4795-2.895 1.8496-4.7998 1.8496-1.8911 0-4.1094-1.3379-4.7998-1.8496l-1.2002-.9004-1.2002.9004c-.6397.4795-2.895 1.8496-4.7998 1.8496-1.0184 0-2.1246-.3893-3.043-.8273v4.2183c.9427.3046 1.9789.519 3.043.519 2.397 0 4.6631-1.0762 6-1.8633 1.3369.7871 3.603 1.8633 6 1.8633s4.6631-1.0762 6-1.8633c1.3369.7871 3.603 1.8633 6 1.8633s4.6631-1.0762 6-1.8633c1.3369.7871 3.603 1.8633 6 1.8633s4.6631-1.0762 6-1.8633c1.3369.7871 3.603 1.8633 6 1.8633 1.0322 0 2.0372-.2025 2.957-.4926v-4.203c-.8999.4195-1.9733.7856-2.957.7856z"/></svg>