<svg height="64" viewBox="0 0 64 64" width="64" xmlns="http://www.w3.org/2000/svg"><path d="m0 0h64v64h-64z" fill="none"/><path d="m50.043 53.34c-1.0001.7504-3.4848 2.75-6 2.75-2.4615 0-4.9159-1.9367-6-2.75-1.0001.7504-3.4848 2.75-6 2.75-2.4615 0-4.9159-1.9367-6-2.75-1.0001.7504-3.4848 2.75-6 2.75-2.4615 0-4.9159-1.9367-6-2.75-1.0001.7504-3.4848 2.75-6 2.75-1.0184 0-2.1246-.3893-3.043-.8273v4.2183c.9427.3046 1.9789.519 3.043.519 2.397 0 4.6631-1.0762 6-1.8633 1.3369.7871 3.603 1.8633 6 1.8633s4.6631-1.0762 6-1.8633c1.3369.7871 3.603 1.8633 6 1.8633s4.6631-1.0762 6-1.8633c1.3369.7871 3.603 1.8633 6 1.8633s4.6631-1.0762 6-1.8633c1.3369.7871 3.603 1.8633 6 1.8633 1.0322 0 2.0372-.2025 2.957-.4926v-4.2031c-.8999.4195-1.9733.7856-2.957.7856-2.4616.0001-4.9159-1.9366-6-2.7499z"/><path d="m50.043 44.34c-1.0001.7504-3.4848 2.75-6 2.75-2.4615 0-4.9159-1.9367-6-2.75-1.0001.7504-3.4848 2.75-6 2.75-2.4615 0-4.9159-1.9367-6-2.75-1.0001.7504-3.4848 2.75-6 2.75-2.4615 0-4.9159-1.9367-6-2.75-1.0001.7504-3.4848 2.75-6 2.75-1.0184 0-2.1246-.3893-3.043-.8273v4.2183c.9427.3046 1.9789.519 3.043.519 2.397 0 4.6631-1.0762 6-1.8633 1.3369.7871 3.603 1.8633 6 1.8633s4.6631-1.0762 6-1.8633c1.3369.7871 3.603 1.8633 6 1.8633s4.6631-1.0762 6-1.8633c1.3369.7871 3.603 1.8633 6 1.8633s4.6631-1.0762 6-1.8633c1.3369.7871 3.603 1.8633 6 1.8633 1.0322 0 2.0372-.2025 2.957-.4926v-4.2031c-.8999.4195-1.9733.7856-2.957.7856-2.4616.0001-4.9159-1.9366-6-2.7499z"/><path d="m56.043 38.09c-2.4615 0-4.9159-1.9367-6-2.75-1.0001.7504-3.4848 2.75-6 2.75-2.4615 0-4.9159-1.9367-6-2.75-1.0001.7504-3.4848 2.75-6 2.75-2.4615 0-4.9159-1.9367-6-2.75-1.0001.7504-3.4848 2.75-6 2.75-2.4615 0-4.9159-1.9367-6-2.75-1.0001.7504-3.4848 2.75-6 2.75-1.0184 0-2.1246-.3893-3.043-.8273v4.2183c.9427.3046 1.9789.519 3.043.519 2.397 0 4.6631-1.0762 6-1.8633 1.3369.7871 3.603 1.8633 6 1.8633s4.6631-1.0762 6-1.8633c1.3369.7871 3.603 1.8633 6 1.8633s4.6631-1.0762 6-1.8633c1.3369.7871 3.603 1.8633 6 1.8633s4.6631-1.0762 6-1.8633c1.3369.7871 3.603 1.8633 6 1.8633 1.0322 0 2.0372-.2025 2.957-.4926v-4.2031c-.8999.4195-1.9733.7857-2.957.7857z"/><circle cx="30.5" cy="26.5" r="1.5"/><circle cx="34.5" cy="30.5" r="1.5"/><circle cx="28.5" cy="31.5" r="1.5"/><path d="m55.5713 4.4285c-2.1984-2.1932-4.833-3.4285-6.7588-3.4285-1.3096 0-2.2046.4499-2.7947 1.2668-.7678 1.0632-9.1208 13.2873-9.1208 13.2873l-2.4567 1.9269c2.3288.8817 4.3164 2.7656 4.9354 4.8877.1028.3524-.0543.3912-.1104.3912-.0103 0-.0171-.0013-.0184-.0022-1.9875-2.4136-4.5341-3.9725-6.0704-3.9727-.4109 0-.7493.1115-.9857.3478-.9763.9763.1745 3.71 2.5704 6.1059 1.817 1.817 3.8284 2.918 5.1201 2.918.4116 0 .7499-.1117.9858-.3476.9763-.9763 3.6346-4.7278 3.6346-4.7278 5.7827-4.0661 11.3231-7.6931 13.4994-9.3104 1.8602-1.3824.2262-6.6928-2.4298-9.3424zm-5.2374 9.7856c-2.095 1.4235-4.6537 3.1641-7.2645 4.9883-.6366-.9551-1.3721-1.7758-2.199-2.373 2.9794-4.3585 6.9481-10.1534 8.1063-11.8168.6678.0906 2.2044.6863 3.7696 2.2478 1.0866 1.084 1.8235 2.888 2.0097 3.9196-1.0981.7754-2.6682 1.8424-4.4221 3.0341z"/></svg>