<svg height="64" viewBox="0 0 64 64" width="64" xmlns="http://www.w3.org/2000/svg"><path d="m0 0h64v64h-64z" fill="none"/><path d="m10.0396 49.0002c-3.249-.0232-5.0159 2.2711-5.0393 5.5532-.0253 3.4592 1.7949 5.4234 4.9612 5.4468 3.167.0223 5.0159-2.1821 5.0383-5.3752.0261-3.6381-1.8758-5.6022-4.9602-5.6248z"/><path d="m25.0396 49.0002c-3.249-.0232-5.0159 2.2711-5.0393 5.5532-.0253 3.4592 1.7949 5.4234 4.9612 5.4468 3.167.0223 5.0159-2.1821 5.0383-5.3752.0261-3.6381-1.8758-5.6022-4.9602-5.6248z"/><path d="m21.9998 42.625c.0261-3.6381-1.8757-5.6022-4.9602-5.6248-3.249-.0232-5.0159 2.2711-5.0393 5.5532-.0253 3.4592 1.7949 5.4234 4.9612 5.4468 3.1669.0223 5.0158-2.1821 5.0383-5.3752z"/><path d="m36.9998 42.625c.0261-3.6381-1.8757-5.6022-4.9602-5.6248-3.249-.0232-5.0159 2.2711-5.0393 5.5532-.0253 3.4592 1.7949 5.4234 4.9612 5.4468 3.1669.0223 5.0158-2.1821 5.0383-5.3752z"/><path d="m51.4495 28.7438c-.1471-.4355-.4495-.3307-.4495-.3307v4.5869h1.5057c-.3814-1.8857-.7931-3.4767-1.0562-4.2562z"/><path d="m4 4v29h34.9095l.0905-7.6364c-4.0182-.5453-9.228-1.1131-13-1.4933-3.9766-.4008-4.1547-3.6983-4.1547-3.6983 7.2467-.352 21.019-.6934 28.1927.828 3.9252.8325 5.6915 6.2119 6.6971 12h3.2649v-29zm40.952 14.1193c-3.2307 0-5.1006-2.002-5.1006-5.5504 0-3.3677 1.7856-5.7332 5.1006-5.7332 3.1465 0 5.1006 2.0009 5.1006 5.7332 0 3.2747-1.8694 5.5504-5.1006 5.5504z"/><path d="m51.9998 42.625c.0261-3.6381-1.8757-5.6022-4.9602-5.6248-3.249-.0232-5.0159 2.2711-5.0393 5.5532-.0253 3.4592 1.7949 5.4234 4.9612 5.4468 3.1669.0223 5.0158-2.1821 5.0383-5.3752z"/><path d="m40.0396 49.0002c-3.249-.0232-5.0159 2.2711-5.0393 5.5532-.0253 3.4592 1.7949 5.4234 4.9612 5.4468 3.167.0223 5.0159-2.1821 5.0383-5.3752.0261-3.6381-1.8758-5.6022-4.9602-5.6248z"/><path d="m54.0396 49.0002c-3.249-.0232-5.0159 2.2711-5.0393 5.5532-.0253 3.4592 1.7949 5.4234 4.9612 5.4468 3.167.0223 5.0159-2.1821 5.0383-5.3752.0261-3.6381-1.8758-5.6022-4.9602-5.6248z"/></svg>