<svg enable-background="new 0 0 64 64" height="64" viewBox="0 0 64 64" width="64" xmlns="http://www.w3.org/2000/svg"><path d="m0 0h64v64h-64z" fill="none"/><path d="m32.8 16.9c2.2.6 3.9-.7 4.4-2.9.6-2.6-.4-4.3-2.5-4.8-2.3-.6-3.9.8-4.5 3.1-.5 2.3.4 4 2.6 4.6zm30.4 23.7c-.3-1-3.2-4.3-5-6.3.6-.7 1.2-1.6 1.4-2.1.5-1.2-.5-2.1-1.4-2.2-.4-.1-1.3 0-2.3.5-.9-2.3-2.1-3.5-4.8-5.2-3.5-2.1-7.3-4.5-7.3-4.5s-2.1-1.3-3.7-1.9c-.6-.2-1.3 0-1.6.6l-2.5 4.1c-.3.6-.3 1.3.2 1.7.7.7 1.7 1.4 2.4 1.9l3.2-3.4c.2-.2.3-.1.3 0l-8 13-6 9.7v1.2c-.1 2.6-.2 4.4-.4 6.8v.3c1.2.7 2.6 1.6 3.9 2.4 2.7 1.7 4.3 2.2 6.7 2 .1 1.1.4 1.9.6 2.3.5.7 1.7 1.2 2.6.2.4-.4.9-1.4 1.2-2.2 2.6.8 6.9 1.9 7.9 1.7 1.4-.3 3.6-3 7.6-9.4 4-6.6 5.4-9.8 5-11.2zm-26.5 9.8-1 3.5c-.2.8-1.2 1.1-1.8.6l-1-.8c-.8-.7-1.2-1.9-.6-2.9l2-3.9c.1-.2.4-.3.6-.1l1.3 1.4c.4.5.6 1.4.5 2.2zm-1.1-7.5-1.9-1.2 4.7-7.6 1.9 1.2zm7.7-10.6 2.6-3.6c.7-1 1.9-1.1 2.9-.7l1.2.5c.7.3.9 1.3.3 1.9l-2.7 2.5c-.7.5-1.5.7-2.3.5l-1.8-.5c-.3-.1-.4-.4-.2-.6zm12.4 17.8c-3.2 5.2-5.2 7.8-5.7 8-.9 0-5.6-1.4-7.5-2 .6-2.2 2.9-6.6 5.4-10.7s5.5-8.1 7.2-9.7c1.4 1.4 4.8 5 5.2 5.8 0 .4-1.3 3.4-4.6 8.6zm-3.3-26.6c.3.2.6.4 1 .6 1.1-.4 1.9-.8 2.3-1.2 1.3-1.2 2.3-4.1 3-5.9.5-1.5.1-3.2-1.3-3.9-.4.8-2.4 6.4-3.6 7-.3.1-2.9.6-5.1 1zm-7.3-4.9c2.1.9 4 0 4.9-2.1 1.1-2.4.4-4.3-1.7-5.2-2.2-.9-4 .1-4.9 2.2-1.1 2.4-.4 4.2 1.7 5.1zm10.6 23.5-1.6-3.9-.1 3.9-1.6 2.8-3.2-.2 1.8 1.5.2 4.6-2.9.9.2 4.1 1.1-3.1 2.7-.3.8-6.1 3.7-1.4-2.4-.6zm-29.3-8.3c1.1-.1 3.8-1.2 5.3-1.9.8-.4 1.5-.8 1.9-1.7.5-.9.3-1.9.3-2.2-2.3.9-5.3 2.1-6.9 2.6-.6-.4-1.4-1.2-3.3-3.4-1.2-1.4-2.1-2.8-5.7-3.9-3-.9-8.1-1.2-9.6-.5-1.6.7-3.5 3.2-4.6 4.7-.9 1.3-1 3 .1 4.1.6-.7 4.1-5.4 5.5-5.6.4 0 2.8.1 4.6.5-1.6 3.3-4 9.1-4.1 10.7-.2 3.3 2.2 4.3 4.6 5.2 0 0 0 .1-.3.2-.2 0-1.3 0-2.6 0-.4 1.5-1.3 4.8-1.9 6.2-1.8 1.8-4.6 4.8-5.3 5.5-2 2-.8 5.2-.8 5.2 2.1-1.5 7.3-5.4 9-7.4.6-.6.9-1.2 1.3-2 .8-1.9 2.2-5.1 2.9-6.9 1.7 0 3.8-.1 4.7-.1.1 1.8.3 6.5.3 8.7 0 1.2 1.2 3.1 3.5 3.7.2-3 .4-4.9.5-7.9.1-1.6.1-3.2.1-5 0-1.1-.4-2.5-1-3.2s-2.5-1.6-7.1-1.9c.8-2.8 2.5-5.3 3.5-7.5 1.8 2 3.9 3.9 5.1 3.8zm-5.7-11.2c2.2.8 3.9-.3 4.7-2.5.9-2.5 0-4.3-2.1-5-2.2-.8-4 .4-4.7 2.6-.9 2.4-.1 4.2 2.1 4.9z"/></svg>