<?xml version="1.0" encoding="utf-8"?>
<!-- Generator: Adobe Illustrator 25.2.0, SVG Export Plug-In . SVG Version: 6.00 Build 0)  -->
<svg version="1.1" xmlns="http://www.w3.org/2000/svg" xmlns:xlink="http://www.w3.org/1999/xlink" x="0px" y="0px"
	 viewBox="0 0 64 64" style="enable-background:new 0 0 64 64;" xml:space="preserve">
<style type="text/css">
	.st0{fill:none;}
</style>
<g id="Box">
	<rect class="st0" width="64" height="64"/>
</g>
<g id="Icon">
	<g>
		<path d="M11.5,16.8c2.2,0,3.5-1.6,3.5-3.8c0-2.6-1.3-4-3.5-4C9.2,9,8,10.6,8,13C8,15.4,9.3,16.8,11.5,16.8z"/>
		<path d="M30.583,21.773c0.154-0.988-0.154-2.15-2.306-2.65c-2.057-0.478-5.944-0.918-9.945-1.068
			c-5.286-0.197-10.773,0.114-12.512,1.52C2.927,21.916,3.1,28.286,3.1,33.7c0.2,2.2,1.8,2.8,2.8,2.8c0-0.1,0-1.2,0-2.2
			c0-0.5,0-3.3,0-3.6c0-2.7,0.5-5.6,0.8-6.6C6.8,23.8,7,23.9,7,23.9V54c0,0,3.3,0,3.6-3.7c0,0,0.5-14,0.5-14.1
			c0-0.2,0.1-0.4,0.4-0.4s0.4,0.2,0.4,0.4c0,0.2,0.5,14,0.5,14C12.6,54,16,54,16,54V22.336c0-0.398,0.303-0.726,0.7-0.76
			C19.918,21.303,25.359,21.386,30.583,21.773z"/>
		<path d="M52.5,16.8c2.2,0,3.5-1.4,3.5-3.8c0-2.4-1.2-4-3.5-4c-2.2,0-3.5,1.4-3.5,4C49,15.2,50.3,16.8,52.5,16.8z"/>
		<path d="M58.179,19.576c-1.739-1.406-7.226-1.717-12.512-1.52c-4.001,0.149-7.888,0.59-9.945,1.068
			c-2.152,0.499-2.46,1.662-2.306,2.65c5.225-0.387,10.665-0.471,13.884-0.197c0.397,0.034,0.7,0.362,0.7,0.76V54
			c0,0,3.399,0,3.6-3.8c0,0,0.5-13.8,0.5-14c0-0.2,0.1-0.4,0.4-0.4c0.3,0,0.4,0.2,0.4,0.4c0,0.1,0.5,14.1,0.5,14.1
			C53.7,54,57,54,57,54V23.9c0,0,0.2-0.1,0.3,0.2c0.3,1,0.8,3.9,0.8,6.6c0,0.3,0,3.1,0,3.6c0,1,0,2.1,0,2.2c1,0,2.6-0.6,2.8-2.8
			C60.899,28.286,61.072,21.916,58.179,19.576z"/>
		<path d="M20.981,44.41l-0.097,0.028v1.237l0.158-0.027c0.457-0.08,0.811-0.114,1.26-0.12v4.331h1.522v-5.754h-0.833
			C22.342,44.105,21.666,44.208,20.981,44.41z"/>
		<path d="M26.161,47.849c-0.566,0-0.977,0.416-0.977,0.988c0,0.32,0.137,0.597,0.374,0.764l-0.645,1.477h0.793
			c0.38,0,1.442-1.497,1.442-2.185C27.149,48.24,26.779,47.849,26.161,47.849z"/>
		<path d="M29.998,46.653c-0.212,0-0.403,0.007-0.629,0.023v-1.204h2.858v-1.367h-4.169v4.019l0.149-0.016
			c0.453-0.048,0.92-0.076,1.282-0.076c0.686,0,1.505,0.184,1.505,1.061c0,0.82-0.773,1.349-1.97,1.349h-1.076v1.301h1.021
			c2.108,0,3.58-1.158,3.58-2.816C32.548,47.503,31.595,46.653,29.998,46.653z"/>
		<path d="M40.985,44.039c-0.614,0-1.145,0.172-1.707,0.555c-0.366-0.378-0.847-0.555-1.505-0.555c-0.462,0-0.841,0.099-1.296,0.346
			v-0.308L35,44.145v5.714h1.511v-4.22c0.316-0.123,0.515-0.167,0.878-0.167c0.6,0,0.856,0.271,0.856,0.906v3.481h1.511V45.64
			c0.335-0.129,0.545-0.167,0.878-0.167c0.584,0,0.856,0.288,0.856,0.906v3.481H43v-3.735C43,44.799,42.266,44.039,40.985,44.039z"
			/>
		<path d="M40.109,28.728c-0.316-0.253-0.777-0.172-1.021,0.111c-0.193,0.225-0.249,0.577,0.015,0.989
			C39.916,31.095,40.5,32,40.5,32h-17c0,0,0.584-0.905,1.396-2.172c0.264-0.412,0.208-0.764,0.015-0.989
			c-0.243-0.283-0.705-0.364-1.021-0.111c-2.413,1.934-4.014,3.248-5.098,4.1c-0.21,0.165-0.3,0.432-0.293,0.672
			c-0.007,0.24,0.083,0.508,0.293,0.672c1.083,0.851,2.685,2.165,5.098,4.1c0.316,0.253,0.777,0.172,1.021-0.111
			c0.194-0.225,0.25-0.577-0.015-0.989C24.084,35.905,23.5,35,23.5,35h17c0,0-0.584,0.905-1.396,2.173
			c-0.264,0.412-0.208,0.764-0.015,0.989c0.243,0.283,0.705,0.364,1.021,0.111c2.413-1.934,4.014-3.249,5.098-4.1
			c0.21-0.165,0.3-0.432,0.293-0.672c0.007-0.24-0.083-0.508-0.293-0.672C44.123,31.976,42.522,30.662,40.109,28.728z"/>
	</g>
</g>
</svg>
