<?xml version="1.0" encoding="utf-8"?>
<!-- Generator: Adobe Illustrator 18.1.0, SVG Export Plug-In . SVG Version: 6.00 Build 0)  -->
<svg version="1.2" baseProfile="tiny" xmlns="http://www.w3.org/2000/svg" xmlns:xlink="http://www.w3.org/1999/xlink" x="0px"
	 y="0px" width="64px" height="64px" viewBox="0 0 64 64" xml:space="preserve">
<g id="_x36_4px_Boxes">
	<rect fill="none" width="64" height="64"/>
</g>
<g id="Label">
</g>
<g id="Production">
	<g>
		<path d="M50.5001,11.9775c3.1371,0,4.952-2.2094,4.952-5.3887c0-3.6236-1.8971-5.5663-4.952-5.5663
			c-3.2183,0-4.952,2.2967-4.952,5.5663C45.548,10.0338,47.3635,11.9775,50.5001,11.9775z"/>
		<path d="M62.6888,32.8934c-0.6873-3.7972-1.5374-5.8741-1.8479-8.5127c-0.687-5.842-2.4202-8.6494-5.6446-9.6706
			c-1.5357-0.4862-2.9998-0.71-4.6666-0.7101h-0.0594c-1.6668,0.0001-3.1309,0.2239-4.6666,0.7101
			c-3.2244,1.0212-4.9576,3.8286-5.6446,9.6706c-0.3105,2.6386-1.1606,4.7155-1.8479,8.5127
			c-0.5594,3.0898,1.1044,4.7785,2.4633,4.9575c3.12-10.0822,2.8946-14.4572,3.6686-16.7189
			c0.1393-0.4069,0.4868-1.035,0.4868-1.035c-0.6605,2.7683-0.2397,4.0728,0.0874,5.4732c0.3481,1.4897,0.4286,3.0468,0.0458,4.5343
			c-0.7204,2.7992-3.0218,6.4693-3.0218,15.3999c0,0,2.2966,0.6234,5.9942,0.3032c0.1223,0.1992,0.0724,0.4592-0.2386,0.6769
			c-0.2738,0.1917-1.0998,0.5802-2.7501,0.627L45.6324,63c0,0,3.6438-0.5727,3.8914-4.2421c0,0,0.3061-9.001,0.4484-13.1946
			c0.1853-0.0302,0.3678-0.0578,0.5581-0.093c0.1603-0.0296,0.3217-0.0518,0.4828-0.076
			c0.1394,4.0958,0.4519,13.2595,0.4519,13.2595C51.65,62.4341,55.3676,63,55.3676,63l0.66-17.6766
			c1.7237,0.1688,2.9298,0.4569,2.9298,0.4569c0-8.9307-2.3001-12.8767-3.0205-15.6759c-0.3827-1.4875-0.3023-3.0446,0.0458-4.5343
			c0.3271-1.4005,0.7479-2.7049,0.0874-5.4732c0,0,0.3475,0.6281,0.4868,1.035c0.774,2.2618,0.5486,6.6367,3.6686,16.7189
			C61.5844,37.6719,63.2482,35.9832,62.6888,32.8934z"/>
		<path d="M12.5002,11.9775c3.1371,0,4.952-2.2094,4.952-5.3887c0-3.6236-1.8971-5.5663-4.952-5.5663
			c-3.2183,0-4.952,2.2967-4.952,5.5663C7.5482,10.0338,9.3636,11.9775,12.5002,11.9775z"/>
		<path d="M18.0245,14.7021c-3.3369-0.7958-7.8055-0.7958-11.0487,0c-6.362,1.5612-5.9421,11.6472-5.9421,20.357
			c0.2096,3.0518,2.4544,3.92,3.8006,3.92c0-0.1417,0-1.6151,0-3.0491c0-0.7156,0-5.5918,0-6.1175
			c0-3.4489,0.3357-6.1401,0.7565-7.4819C5.719,21.9219,6.0002,22,6.0002,22v15.9998V63c0,0,4.8654,0.0391,5.2372-5.0498
			c0,0,0.7277-19.2431,0.7359-19.457C11.9815,38.2793,12.1408,38,12.5002,38c0.3594,0,0.5082,0.2793,0.5165,0.4932
			c0.0082,0.2139,0.7308,19.3173,0.7308,19.3173C14.0363,63.0488,19.0002,63,19.0002,63V37.9998V22c0,0,0.3024-0.1048,0.4493,0.3306
			c0.4062,1.2031,0.7166,4.033,0.7166,7.435c0,0.7024,0,5.7442,0,6.5186c0,1.4331,0,2.6949,0,2.6949
			c1.3462,0,3.5612-0.837,3.8007-3.92C23.9668,26.3493,24.3966,16.2219,18.0245,14.7021z"/>
		<rect x="26" y="25" width="11" height="3"/>
		<rect x="26" y="30" width="11" height="3"/>
	</g>
</g>
</svg>
