<?xml version="1.0" encoding="utf-8"?>
<!-- Generator: Adobe Illustrator 22.1.0, SVG Export Plug-In . SVG Version: 6.00 Build 0)  -->
<!DOCTYPE svg PUBLIC "-//W3C//DTD SVG 1.1//EN" "http://www.w3.org/Graphics/SVG/1.1/DTD/svg11.dtd">
<svg version="1.1" xmlns="http://www.w3.org/2000/svg" xmlns:xlink="http://www.w3.org/1999/xlink" x="0px" y="0px" width="64px"
	 height="64px" viewBox="0 0 64 64" style="enable-background:new 0 0 64 64;" xml:space="preserve">
<style type="text/css">
	.st0{fill:none;}
</style>
<g id="Box">
	<rect class="st0" width="64" height="64"/>
</g>
<g id="Icon">
	<g>
		<path d="M24.7,53c-1.4-1.5-1.6-3.9-0.3-5.6l0.3-0.5c-2.2-2-4.8-4.9-4.5-7.6c0.2-1.9,0-0.5,0.8-5.4c-2.3-2.2-4.1-4.9-4.1-8.1
			c-1.6-0.5-2-2.5-2-3.8c0-1.3,0.3-2,0.8-2.2c0.4-0.2,0.8,0,1,0.1c0.1,0.7,0.2,1.1,0.3,1.3c0.2,0.9,1,0.8,1,0.8v-6.7
			c2.1-0.2,6.2-0.8,10.8-3.1l5.2,3.5V22c0,0,0.8,0.1,1-0.8c0-0.2,0.1-0.7,0.3-1.3c0.2-0.1,0.6-0.3,1-0.1c0.5,0.2,0.8,0.9,0.8,2.2
			c0,1.3-0.4,3.3-2,3.8c0,3.7-2.5,6.5-5.3,8.9c-0.8,0.7-2.2,1.1-3.7,1.1c-1.1,0-2.1-0.3-2.9-0.6c0.6,0.9,1.7,2.1,3.6,2.6
			c0.7,0.2,3.1,0.6,4.9-0.7c1.5-1,3.4-3.2,4.5-4.8c1-1.6,1.6-3.1,1.9-4.8c1.3-1.2,2.1-3.2,2.1-5.6c0-0.7,0-2.7-1.2-4
			c0.3-3.3,0.5-8.5-0.8-10.6c-1.6-2.6-3.5-3.8-7.3-3c-2.4-1.2-4.1-1.9-8.4-0.8c-3,0.7-6.2,1.9-7.9,3.9c-1.7,1.9-1.5,7.2-1.3,10.6
			C12,19.4,12,21.3,12,22c0,2.4,0.7,4.3,2.1,5.5c0.4,2.5,1.6,4.9,3.7,7.3c-0.1,0.8-0.2,1.7-0.4,2.7c-2.5,0.7-9.7,3-12,5.6
			C2.5,46.2,1,58,1,58h29.3c-0.7-1.1-1.3-2.3-1.7-3.6C27.2,54.6,25.7,54.1,24.7,53z"/>
		<path d="M62.9,47.2c-0.4-0.4-1-0.5-1.6-0.2L59,48.3C58.6,40.9,52.5,35,45,35c-4.2,0-8,1.9-10.6,4.9c0.5,0.2,1,0.6,1.4,1.1l1.3,1.9
			C39,40.5,41.8,39,45,39c5.3,0,9.6,4.1,10,9.3l-2.3-1.4c-0.5-0.3-1.2-0.2-1.6,0.2c-0.4,0.4-0.4,1.1-0.1,1.6l5,7
			c0.2,0.3,0.6,0.5,1,0.5s0.8-0.2,1-0.5l5-7C63.4,48.2,63.3,47.6,62.9,47.2z"/>
		<path d="M54.2,57l-1.3-1.9C51,57.5,48.2,59,45,59c-5.3,0-9.6-4.1-10-9.3l2.3,1.4c0.2,0.1,0.4,0.2,0.6,0.2c0.3,0,0.7-0.1,0.9-0.4
			c0.4-0.4,0.4-1.1,0.1-1.6l-5-7c-0.5-0.7-1.6-0.7-2,0l-5,7c-0.3,0.5-0.3,1.1,0.1,1.6c0.4,0.4,1,0.5,1.6,0.2l2.4-1.4
			C31.4,57.1,37.5,63,45,63c4.2,0,8-1.9,10.6-4.9C55,57.9,54.6,57.5,54.2,57z"/>
	</g>
</g>
</svg>
