<?xml version="1.0" encoding="utf-8"?>
<!-- Generator: Adobe Illustrator 18.1.1, SVG Export Plug-In . SVG Version: 6.00 Build 0)  -->
<svg version="1.2" baseProfile="tiny" xmlns="http://www.w3.org/2000/svg" xmlns:xlink="http://www.w3.org/1999/xlink" x="0px"
	 y="0px" width="64px" height="64px" viewBox="0 0 64 64" xml:space="preserve">
<g id="Box">
	<rect fill="none" width="64" height="64"/>
</g>
<g id="Icon">
	<g>
		<path d="M53.2,26.9303L53.2004,27H59v-6c0-1.6569-1.3431-3-3-3h-5.7788c-0.0123,0.0156-0.0181,0.0358-0.0308,0.0511
			c0.6385,0.3621,1.1084,0.7108,1.4491,1.0724C52.0127,19.5192,53.1482,20.7236,53.2,26.9303z"/>
		<path d="M30.1998,26.9213L30.2008,27h3.5988L33.8,26.9303c0.0518-6.2067,1.1873-7.4111,1.5601-7.8066
			c0.3536-0.3751,0.8458-0.7363,1.5128-1.1088c-0.004-0.0046-0.0068-0.0103-0.0109-0.0149h-8.8127
			c0.2051,0.1527,0.3931,0.3126,0.5559,0.4849C30.115,20.0818,30.1766,25.0507,30.1998,26.9213z"/>
		<path d="M10.8002,26.9212c0.0233-1.8705,0.0852-6.8393,1.5944-8.436c0.0959-0.1016,0.2593-0.2709,0.5479-0.4852H8
			c-1.6569,0-3,1.3431-3,3v6h5.7992L10.8002,26.9212z"/>
		<path d="M27.0066,19.9963c-0.6993-0.7399-2.7415-1.3632-3.7422-1.663c-0.2804-0.0839-0.4551-0.1344-0.5599-0.5143
			c-0.0786-0.285-0.1022-0.6439-0.1022-0.6439c0.5845-0.6842,1.0177-1.5062,1.1672-2.5829
			c0.5881-0.1841,0.7058-0.9299,0.7058-1.3948s-0.0806-0.7165-0.2449-0.7944c-0.1438-0.0679-0.2773-0.017-0.3645,0.0331
			c0.0911-0.9498,0.2224-2.9297-0.1726-3.6641c-0.4243-0.7883-0.9399-1.103-1.923-0.8454
			c-0.6447-0.3558-1.0837-0.8051-2.2135-0.4847c-0.7848,0.2225-1.644,0.6267-2.0967,1.233
			c-0.5078,0.6806-0.3859,2.8394-0.302,3.8052c-0.0559-0.0444-0.2385-0.1707-0.4362-0.0773
			c-0.1644,0.0779-0.245,0.3294-0.245,0.7944s0.1177,1.2108,0.7058,1.3948c0.1318,1.1136,0.5581,1.9015,1.1304,2.5589
			c0,0-0.0142,0.3366-0.0769,0.6566c-0.0454,0.2309-0.1899,0.4291-0.4155,0.4925c-0.9242,0.2596-3.1074,0.9343-3.8274,1.6961
			C13.0745,20.9686,13,26.9486,13,26.9486h15C28,26.9486,27.9258,20.9686,27.0066,19.9963z"/>
		<path d="M41.3872,18.0778c-0.0361,0.217-0.1659,0.4062-0.3704,0.4835c-0.5342,0.2016-1.5372,0.5974-2.4346,1.0447
			c-0.6853,0.3332-1.3083,0.6948-1.6211,1.0267C36.0447,21.6049,36,26.9486,36,26.9486h15c0,0-0.0447-5.3438-0.9612-6.316
			c-0.3127-0.3318-0.9358-0.6935-1.6211-1.0267c-0.8973-0.4473-1.9004-0.8431-2.4346-1.0447
			c-0.2045-0.0772-0.3342-0.2664-0.3702-0.4835c-0.0448-0.2693-0.0951-0.6686-0.1345-1.0048
			c1.3534-0.0554,2.4728-0.1899,2.9381-0.3685c0.092-0.0353,0.1384-0.1202,0.0974-0.2104
			c-0.2545-0.5598-0.9165-2.4009-0.9996-3.3624c-0.2043-2.3599-0.1959-6.5832-3.4052-5.5237c0,0-2.0378-1.3117-3.6931,0.8829
			c-1.1644,1.5439-0.8807,3.5798-0.9274,4.7151c-0.0332,0.8075-0.689,2.6719-0.965,3.1549
			c-0.0588,0.1028-0.0387,0.2068,0.072,0.2473c0.4996,0.1827,1.6243,0.3243,2.9465,0.4084c-0.037,0.3375-0.089,0.7564-0.1479,1.0611
			H41.3872z"/>
		<path d="M62.7988,54.5023c-2.2214-10.8399-1.8987-24.5309-1.8987-24.5309C60.853,29.4219,60.3933,29,59.8418,29H4.2517
			c-0.5515,0-1.0112,0.4219-1.0585,0.9714c0,0,0.129,12.3842-1.9637,24.5914c-0.1183,0.6895,0.447,1.3189,1.1426,1.2451
			c3.0698-0.3255,5.3027-1.6265,5.3027-1.6265s2.2308,1.6997,5.7361,1.6997c1.8628,0,3.5405-0.4797,4.7089-0.9296
			c0.6127-3.9082,1.4672-9.3523,1.5162-9.6333c0.0573-0.3282,0.3079-0.2708,0.364-0.2499v9.2343
			c0.7111,0.3851,3.1794,1.5786,6.478,1.5786c3.9308,0,5.6299-1.6997,5.6299-1.6997s3.7181,1.6997,7.011,1.6997
			c3.2927,0,6.6926-1.6997,6.6926-1.6997s3.0809,1.6997,6.0554,1.6997c2.9744,0,5.4177-1.6997,5.4177-1.6997
			s1.7335,1.2155,4.2993,1.5908C62.3264,55.8807,62.9495,55.2375,62.7988,54.5023z"/>
	</g>
</g>
</svg>
