<?xml version="1.0" encoding="utf-8"?>
<!-- Generator: Adobe Illustrator 21.0.2, SVG Export Plug-In . SVG Version: 6.00 Build 0)  -->
<svg version="1.2" baseProfile="tiny" xmlns="http://www.w3.org/2000/svg" xmlns:xlink="http://www.w3.org/1999/xlink" x="0px"
	 y="0px" width="64px" height="64px" viewBox="0 0 64 64" xml:space="preserve">
<g id="Box">
	<rect fill="none" width="64" height="64"/>
</g>
<g id="Icon">
	<path d="M32,10.3c-5.9-2.8-11.6,1.9-13.1,8c-0.1,0-0.3-0.1-0.3-0.5c0-2,0.4-3.6,0.4-3.6s-6.2-2.6-10,2.7S8.2,27.9,8.2,27.9l5.2-1.3
		c0,0-0.2-1.9,1.7-4.2c1.3-1.5,2.7-2,3.4-2.2c-0.4,2.7-0.2,4.9-0.2,5c-1.4,1.5-1.9,3.5-1.6,5.3c0.4,2.3,1.9,4.1,3.8,4.8
		c0.6,2,1.6,3.7,2.9,5.1c-0.1,0.6-0.2,1.1-0.2,1.5c-6.3,2.3-9.3,7.2-9.2,13h36c0.1-5.8-2.9-10.7-9.2-13c-0.1-0.4-0.1-0.9-0.2-1.5
		c1.3-1.4,2.2-3.1,2.9-5.1c1.9-0.7,3.5-2.5,3.8-4.8c0.3-1.9-0.1-3.9-1.6-5.3c0-0.1,0.2-2.3-0.2-5c0.7,0.2,2.2,0.7,3.4,2.2
		c1.8,2.2,1.7,4.2,1.7,4.2l5.2,1.3c0,0,2.9-5.9-0.8-11.2c-3.7-5.2-10-2.7-10-2.7s0.4,1.6,0.4,3.6c0,0.4-0.2,0.5-0.3,0.5
		C43.6,12.1,37.9,7.5,32,10.3 M32,19.1c0,0,1.4,3.8,8.6,4.9c0.1,1,0.2,2,0.2,2.9c0.5-0.3,1-0.4,1.5-0.3c1.4,0.2,2.3,1.8,2,3.4
		c-0.3,1.7-1.7,3-3.3,2.5c-0.4,2.7-1.6,5.2-3.7,6.9v0c-2.1,1.6-4.8,2.1-7.3,1.6c1.9,3.1,5.3,2.7,7.8,1.5c0.1,0.5,0.1,0.8,0.1,0.9
		c0,2.4-2.5,4.3-5.9,4.3c-3.2,0-6.3-1.7-5.9-5c0,0,0,0,0,0c0.1-0.6,0.3-1.5,0.7-3.2c-0.9-0.7-1.9-1.8-2.5-3.1
		c-0.6-1.1-1-2.4-1.3-3.9c-1.6,0.5-3-0.8-3.3-2.5c-0.3-1.7,0.6-3.2,2-3.4c0.5-0.1,1,0,1.5,0.3c0-1,0.1-2,0.2-2.9
		C30.6,22.9,32,19.1,32,19.1"/>
</g>
</svg>
