<?xml version="1.0" encoding="utf-8"?>
<!-- Generator: Adobe Illustrator 19.1.0, SVG Export Plug-In . SVG Version: 6.00 Build 0)  -->
<svg version="1.2" baseProfile="tiny" xmlns="http://www.w3.org/2000/svg" xmlns:xlink="http://www.w3.org/1999/xlink" x="0px"
	 y="0px" width="64px" height="64px" viewBox="0 0 64 64" xml:space="preserve">
<g id="_x36_4px_Box">
	<rect fill="none" width="64" height="64"/>
</g>
<g id="Icon">
	<g>
		<path d="M32.001,11.9101c3.1358,0,4.95-2.1782,4.95-5.3126c0-3.5723-1.8964-5.4875-4.95-5.4875c-3.217,0-4.95,2.2643-4.95,5.4875
			C27.051,9.9938,28.8657,11.9101,32.001,11.9101z"/>
		<path d="M41.7142,31.6729c1.6668-1.6484,3.9481-4.2148,4.9473-5.6015c0.4575-0.635,0.5258-1.4969,0.0818-2.1415
			c-2.2434-3.257-5.6482-7.9769-7.8863-9.0026c-2.585-1.1849-11.1289-1.1849-13.714,0c-2.2381,1.0258-5.6429,5.7457-7.8863,9.0026
			c-0.444,0.6446-0.3757,1.5065,0.0818,2.1415c0.9992,1.3867,3.2805,3.9531,4.9473,5.6015
			c1.2886,1.2744,2.3693,1.5064,3.1506,1.4055l0.0263,0.6768l-4.7939,27.6775c0,0,5.5369,1.1803,6.5323-3.8264
			c1.0113-5.0871,3.968-18.6935,4.0718-19.0834c0.1264-0.4751,0.4549-0.5932,0.7271-0.5932s0.6228,0.1181,0.7271,0.5932
			c0.0876,0.399,3.0605,13.9962,4.0718,19.0834c0.9954,5.0067,6.5323,3.8264,6.5323,3.8264l-4.7939-27.6775l0.0263-0.6768
			C39.3448,33.1793,40.4256,32.9472,41.7142,31.6729z M39.0205,21.3157l2.9794,3.5714l-3.2833,4.2521L39.0205,21.3157z
			 M22.0001,24.8871l2.9794-3.5714l0.3039,7.8235L22.0001,24.8871z"/>
	</g>
</g>
</svg>
