<?xml version="1.0" encoding="utf-8"?>
<!-- Generator: Adobe Illustrator 19.1.0, SVG Export Plug-In . SVG Version: 6.00 Build 0)  -->
<svg version="1.2" baseProfile="tiny" xmlns="http://www.w3.org/2000/svg" xmlns:xlink="http://www.w3.org/1999/xlink" x="0px"
	 y="0px" width="64px" height="64px" viewBox="0 0 64 64" xml:space="preserve">
<g id="_x36_4px_Box">
	<rect fill="none" width="64" height="64"/>
</g>
<g id="Icon">
	<g>
		<path d="M25.7659,40.3497c-1.6213-0.9319-4.1237-1.7061-5.4611-2.0645c-0.3766-0.11-0.6323-0.4372-0.7361-0.8088
			c-0.1348-0.4822-0.1752-1.0894-0.1752-1.0894c1.0024-1.1575,1.746-2.5481,2.0027-4.3698c0.8938-0.2758,1.1534-1.296,1.2012-2.0725
			c1.4399-0.2129,2.8746-0.4727,4.2947-0.8209c0.4534-0.1168,0.6654-0.7297,0.3273-0.962
			c-3.6068-2.5167-7.2953-7.0467-10.9871-11.2208c-0.2675-0.3026-0.6702-0.3026-0.9376,0
			c-3.6917,4.174-7.3802,8.704-10.9871,11.2208c-0.3384,0.2324-0.1259,0.8452,0.3273,0.962c1.408,0.3452,2.8305,0.6031,4.258,0.8154
			c0.0469,0.7772,0.3054,1.8015,1.2015,2.078c0.2261,1.8841,0.9574,3.217,1.9394,4.3293c0,0-0.0243,0.5695-0.132,1.1108
			c-0.0778,0.3906-0.3259,0.7261-0.7128,0.8333c-1.586,0.4391-5.3318,1.5806-6.5672,2.8695C3.0449,42.8049,2.9172,49,2.9172,49
			H21.962c0.6309-2.924,1.6364-6.3434,3.1005-7.9443C25.2584,40.8412,25.4985,40.6029,25.7659,40.3497z"/>
		<path d="M58.2222,42.5402c-0.9185-1.0049-2.7824-2.4987-4.6464-3.9016c-5.1081,7.0327-11.8787,10.779-20.1147,12.0461
			c-0.5128,0.0789-0.4706-0.1902-0.4706-0.1902c6.4062-2.194,14.1446-6.0922,17.4461-12.0446
			c1.9409-3.4992,3.173-8.1119,3.173-12.8166C53.6096,17.4913,48.615,12,42.454,12c-6.161,0-11.1556,5.4913-11.1556,13.6332
			c0,8.2736,3.7405,16.3032,8.7391,18.3182c-0.0238,0.1318-0.1741,0.1541-0.3849,0.1131c-3.3236-0.6465-5.8831-3.0579-7.8815-5.7546
			c-2.0043,1.4938-4.0945,3.1462-5.0853,4.2303C24.488,44.9446,23.3301,54,23.3301,54h38.2478
			C61.5779,54,60.42,44.9446,58.2222,42.5402z M35.5034,30.2911c-0.6568-3.9091-0.1837-6.86-0.1837-6.86
			s2.3549-1.4636,7.1347-1.4636c4.779,0,7.1343,1.4636,7.1343,1.4636s0.4731,2.9509-0.1841,6.86
			c-0.4957,2.9518-2.734,7.9316-6.9502,7.9316C38.2377,38.2228,35.9995,33.2429,35.5034,30.2911z"/>
	</g>
</g>
</svg>
