<?xml version="1.0" encoding="utf-8"?>
<!-- Generator: Adobe Illustrator 17.1.0, SVG Export Plug-In . SVG Version: 6.00 Build 0)  -->
<svg version="1.2" baseProfile="tiny" xmlns="http://www.w3.org/2000/svg" xmlns:xlink="http://www.w3.org/1999/xlink" x="0px"
	 y="0px" width="64px" height="64px" viewBox="0 0 64 64" xml:space="preserve">
<g id="_x36_4px_Boxes">
	<rect fill="none" width="64" height="64"/>
</g>
<g id="Production">
	<g>
		<path d="M40.646,48.9101C39.2206,53.1511,35.2211,56.21,30.5,56.21c-5.9148,0-10.71-4.7953-10.71-10.71
			c0-2.699,1.006-5.1579,2.6537-7.0414C21.8379,37.4251,21.5,36.253,21.5,35c0-0.0228,0.0067-0.3414,0.0281-0.8768
			C18.1655,36.7787,16,40.8829,16,45.5C16,53.5078,22.4922,60,30.5,60c4.9483,0,9.3125-2.483,11.9291-6.2668l-0.6376-1.7566
			C41.4382,51.0241,41.0535,49.9886,40.646,48.9101z"/>
		<path d="M45.26,36.6445c-0.7517-1.7844-1.368-2.262-2.7201-2.8528c-2.019-0.8-5.8604-1.6381-7.996-2.0808
			c0.5216-3.2472,0.8648-6.3601,1.1195-8.2638c0.3278-2.4497,0.7105-3.9553-0.5228-5.4836
			c-1.6223-2.0104-5.0586-2.283-7.1311-1.2454c-1,0.3393-5.9092,3.0615-8.3821,5.5918c-0.8322,0.9114-1.1226,1.333-1.4719,2.0805
			C16.9043,27.0931,15.7061,31.989,15,34.8823c2.6969,0.6679,4.0974-1.69,4.4814-2.4728c0.7498-1.6975,1.6244-4.1941,2.5991-5.7735
			c0.5593-1.0573,1.9285-1.8345,3.0003-2.4598C24.38,28.0362,24.0853,32.4526,24.1021,35C24.125,38.5,27.125,40,30,40
			s10.1078-0.0059,10.1875,0c1,3.1875,2.8197,7.9996,3.7922,10.6366C45.8616,55.7466,48.987,55.2534,50,55
			C49.0165,50.9728,46.7842,40.4697,45.26,36.6445z"/>
		<path d="M34.0038,14.9189c2.9724,0.4776,5.0253-1.3388,5.504-4.3525c0.5458-3.4336-0.9594-5.5635-3.8541-6.0293
			c-3.0494-0.4902-5.0381,1.4229-5.5305,4.5204C29.6038,12.3223,31.0322,14.4404,34.0038,14.9189z"/>
	</g>
</g>
</svg>
