<?xml version="1.0" encoding="utf-8"?>
<!-- Generator: Adobe Illustrator 17.1.0, SVG Export Plug-In . SVG Version: 6.00 Build 0)  -->
<svg version="1.2" baseProfile="tiny" xmlns="http://www.w3.org/2000/svg" xmlns:xlink="http://www.w3.org/1999/xlink" x="0px"
	 y="0px" width="64px" height="64px" viewBox="0 0 64 64" xml:space="preserve">
<g id="_x36_4px_Boxes">
	<rect fill="none" width="64" height="64"/>
</g>
<g id="Production">
	<path d="M34.402,49.1989c-1.2368-2.0673-0.7949-4.6909,1.0449-6.2332c0.8765-0.7386,1.9905-1.1454,3.137-1.1454
		c1.1709,0.0001,2.304,0.4222,3.1928,1.1907l4.277,3.7048l3.0823-3.4485c-2.9995-1.8379-8.1375-3.3781-10.6855-4.0729
		c-0.8296-0.2263-1.388-0.9312-1.5748-1.7697c-0.165-0.7413-0.2528-1.5912-0.2528-1.5912c1.9705-2.1989,3.4323-4.8547,3.9279-8.3641
		c1.8842-0.5801,2.2612-2.9305,2.2612-4.396c0-1.4649-0.2583-2.2576-0.7847-2.5033c-0.2539-0.118-0.5019-0.1171-0.7225-0.0702
		c0.1895-3.0522,0.3781-9.0999-0.8952-11.3724c-1.3922-2.4843-3.2437-3.1286-6.4691-2.3166
		c-2.1156-1.1213-3.556-2.2304-7.2625-1.2207c-2.5754,0.7013-5.394,1.8468-6.8794,3.7578
		c-1.6025,2.0623-1.2936,8.077-1.0229,11.1665c-0.2387-0.0652-0.5188-0.0768-0.8032,0.0555
		c-0.5266,0.2457-0.7847,1.0384-0.7847,2.5033c0,1.4655,0.3768,3.8159,2.2612,4.396c0.6046,5.0267,3.1218,7.968,6.2201,10.574
		c0.8185,0.6888,2.293,1.0502,3.8276,1.1185c0.1393,0.2487,0.1393,0.5441-0.4113,0.7256c-0.921,0.3037-3.8015,0.7333-6.9056-0.8805
		c-0.0258-0.0134-0.0441-0.0256-0.0693-0.0388c-2.3179,0.6212-10.3227,2.9102-12.8148,5.5321C6.3821,47.5641,5.2491,59,5.2491,59
		h35.0258L34.402,49.1989z"/>
	<path d="M59.2728,38.3535c-0.7489-0.5532-1.7932-0.4464-2.4125,0.2461L46.3203,50.5214l-6.333-5.4857
		c-0.6699-0.5791-1.6584-0.5869-2.3334-0.018c-0.6777,0.5681-0.8409,1.5436-0.3874,2.3016l7.6714,12.8028
		c0.3239,0.5402,0.9069,0.8719,1.5366,0.8739c0.0027,0,0.0038,0,0.0065,0c0.627,0,1.2101-0.3272,1.5366-0.8642l11.7203-19.3995
		C60.2211,39.938,60.0191,38.9066,59.2728,38.3535z"/>
</g>
</svg>
