<?xml version="1.0" encoding="utf-8"?>
<!-- Generator: Adobe Illustrator 19.1.0, SVG Export Plug-In . SVG Version: 6.00 Build 0)  -->
<svg version="1.2" baseProfile="tiny" xmlns="http://www.w3.org/2000/svg" xmlns:xlink="http://www.w3.org/1999/xlink" x="0px"
	 y="0px" width="64px" height="64px" viewBox="0 0 64 64" xml:space="preserve">
<g id="_x36_4px_Box">
	<rect fill="none" width="64" height="64"/>
</g>
<g id="Icon">
	<g>
		<path d="M34.7568,35.8263c-0.8638-0.6501-1.0067-1.7616-1.134-2.9929c1.9705-2.1989,3.4323-4.8547,3.9279-8.3641
			c1.8842-0.5801,2.2612-2.9305,2.2612-4.396c0-1.4649-0.2583-2.2576-0.7848-2.5033c-0.2539-0.118-0.5018-0.1171-0.7225-0.0702
			c0.1895-3.0522,0.3782-9.0999-0.8952-11.3724c-1.3922-2.4843-3.2437-3.1286-6.4691-2.3166
			c-2.1156-1.1213-3.556-2.2304-7.2625-1.2207c-2.5754,0.7013-5.394,1.8468-6.8794,3.7578
			c-1.6025,2.0623-1.2936,8.077-1.0229,11.1665c-0.2388-0.0652-0.5189-0.0768-0.8032,0.0555
			c-0.5266,0.2457-0.7847,1.0384-0.7847,2.5033c0,1.4655,0.3768,3.8159,2.2611,4.396c0.6047,5.0267,3.1218,7.968,6.2201,10.574
			c0.8186,0.6888,2.293,1.0502,3.8276,1.1185c0.1393,0.2487,0.1393,0.5441-0.4113,0.7256
			c-0.9209,0.3037-3.8015,0.7333-6.9056-0.8805c-0.0258-0.0134-0.044-0.0256-0.0693-0.0388
			c-2.3179,0.6212-10.3226,2.9102-12.8148,5.5321C3.3821,44.5641,2.2491,56,2.2491,56c5.1755,0,17.6609,0,28.8019,0
			C31.0305,55.7745,31,55.5513,31,55.3214v-3.6548c0-0.9136,0.1678-1.8062,0.5006-2.669C31.1678,48.1303,31,47.2353,31,46.3214
			v-3.6548C31,40.0172,32.3892,37.6524,34.7568,35.8263z"/>
		<path d="M45.8542,44.7261v0.6766h1.5551v-0.5565c0.3053,0.0191,0.6703,0.0191,1.016,0.0191h0.384v0.5374h1.5168v-0.6166
			c2.7834-0.2999,4.1094-1.2643,4.1094-2.6701c0-0.5469-0.0571-0.7845-0.3076-1.3435H52.072
			c0.2123,0.5182,0.2886,0.7773,0.2886,1.2546c0,0.6166-0.5938,1.1155-2.0344,1.334v-1.7634h-1.5168v1.8928
			c-0.1907,0.0096-0.384,0.0193-0.6128,0.0193c-0.2697,0-0.52-0.0098-0.7872-0.0193v-1.8928h-1.5551v1.7538
			c-1.4023-0.2089-2.1322-0.6575-2.1322-1.3748c0-0.4078,0.0763-0.6454,0.2479-1.1539h-2.168
			c-0.174,0.4269-0.2312,0.7269-0.2312,1.1226C41.5708,43.3611,43.0112,44.3662,45.8542,44.7261z"/>
		<path d="M48.0012,54C55.8511,54,62,50.6253,62,46.3214c0-0.6324,0-3.0202,0-3.6548C62,38.3673,55.8511,35,48.0012,35
			C40.1492,35,34,38.3673,34,42.6666c0,0.6346,0,3.0225,0,3.6548c0,0.9493,0.3142,1.8492,0.865,2.6819
			C34.312,49.8288,34,50.7224,34,51.6666v3.6548C34,59.6253,40.1492,63,48.0012,63C55.8511,63,62,59.6253,62,55.3214v-3.6548
			c0-0.2049-0.0266-0.4056-0.0542-0.606c-0.7144,0.8958-4.5718,5.1376-13.6127,5.1376c-8.0173,0-10.7806-3.8577-11.0668-4.3807
			c-0.1169-0.2137-0.2019-0.4362-0.0765-0.5667C39.738,52.9397,43.6016,54,48.0012,54z M36.7012,43
			c0-2.8444,5.0601-5.15,11.302-5.15s11.302,2.3057,11.302,5.15c0,2.8443-5.0601,5.15-11.302,5.15S36.7012,45.8443,36.7012,43z"/>
	</g>
</g>
</svg>
