<?xml version="1.0" encoding="utf-8"?>
<!-- Generator: Adobe Illustrator 19.1.0, SVG Export Plug-In . SVG Version: 6.00 Build 0)  -->
<svg version="1.2" baseProfile="tiny" xmlns="http://www.w3.org/2000/svg" xmlns:xlink="http://www.w3.org/1999/xlink" x="0px"
	 y="0px" width="64px" height="64px" viewBox="0 0 64 64" xml:space="preserve">
<g id="_x36_4px_Box">
	<rect fill="none" width="64" height="64"/>
</g>
<g id="Icon">
	<g>
		<path d="M60.8798,52.3511c-0.3868-0.4674-1.0463-0.5841-1.5625-0.2715C59.2985,52.0909,57.0219,53.47,57,53.47V46.5
			c0-5.2383-4.2617-9.5-9.5-9.5S38,41.2617,38,46.5V61h5V46.5c0-2.4814,2.0186-4.6,4.5-4.6s4.5,2.1185,4.5,4.6v6.97
			c-0.0219,0-2.2985-1.3791-2.3173-1.3904c-0.5162-0.3126-1.1757-0.1959-1.5625,0.2715c-0.3869,0.4689-0.3873,1.1548-0.0009,1.6237
			l5.4094,6.5773c0.2402,0.2926,0.5978,0.4574,0.9713,0.4475c0.3735,0.0099,0.731-0.1549,0.9713-0.4475l5.4094-6.5773
			C61.2671,53.5059,61.2667,52.82,60.8798,52.3511z"/>
		<path d="M35.6228,35.8334c1.9705-2.1989,3.4323-4.8547,3.9279-8.3641c1.8842-0.5801,2.2612-2.9305,2.2612-4.396
			c0-1.4649-0.2583-2.2576-0.7848-2.5033c-0.2539-0.118-0.5018-0.1171-0.7225-0.0702c0.1895-3.0522,0.3782-9.0999-0.8952-11.3724
			c-1.3922-2.4843-3.2437-3.1286-6.4691-2.3166c-2.1156-1.1213-3.556-2.2304-7.2625-1.2207
			c-2.5754,0.7013-5.394,1.8468-6.8794,3.7578c-1.6025,2.0623-1.2936,8.077-1.0229,11.1665
			c-0.2388-0.0652-0.5189-0.0768-0.8032,0.0555c-0.5266,0.2457-0.7847,1.0384-0.7847,2.5033c0,1.4655,0.3768,3.8159,2.2611,4.396
			c0.6047,5.0267,3.1218,7.968,6.2201,10.574c0.8186,0.6888,2.293,1.0502,3.8276,1.1185c0.1393,0.2487,0.1393,0.5441-0.4113,0.7256
			c-0.9209,0.3037-3.8015,0.7333-6.9056-0.8805c-0.0258-0.0134-0.044-0.0256-0.0693-0.0388
			c-2.3179,0.6212-10.3226,2.9102-12.8148,5.5321C5.3821,47.5641,4.2491,59,4.2491,59C9.7287,59,23.4032,59,35,59V46.5
			c0-2.7668,0.9146-5.318,2.4422-7.3911c-0.1736-0.048-0.3342-0.0919-0.4722-0.1289
			C35.9047,38.3615,35.7604,37.1637,35.6228,35.8334z"/>
	</g>
</g>
</svg>
