<?xml version="1.0" encoding="utf-8"?>
<!-- Generator: Adobe Illustrator 21.0.2, SVG Export Plug-In . SVG Version: 6.00 Build 0)  -->
<!DOCTYPE svg PUBLIC "-//W3C//DTD SVG 1.1//EN" "http://www.w3.org/Graphics/SVG/1.1/DTD/svg11.dtd">
<svg version="1.1" xmlns="http://www.w3.org/2000/svg" xmlns:xlink="http://www.w3.org/1999/xlink" x="0px" y="0px" width="64px"
	 height="64px" viewBox="0 0 64 64" style="enable-background:new 0 0 64 64;" xml:space="preserve">
<style type="text/css">
	.st0{fill:none;}
</style>
<g id="_x36_4px_Box">
	<rect class="st0" width="64" height="64"/>
</g>
<g id="Icon">
	<g>
		<g>
			<path d="M53,51.5l3.3-0.9c0.6-0.2,0.9-0.7,0.9-1.3c0-0.3-0.2-0.6-0.4-0.8c-0.2-0.2-0.4-0.3-0.7-0.3l-8.7-1c-0.4,0-0.7,0.1-1,0.3
				c-0.3,0.3-0.4,0.6-0.3,1l1,8.7c0.1,0.6,0.5,1,1.1,1.1c0.6,0,1.1-0.3,1.3-0.9l0.9-3.3l4.4,4.4c0.7,0.7,1.5,0.3,2.2-0.4
				c0.7-0.7,1.1-1.5,0.4-2.2L53,51.5z M47.5,16.9l8.7-1c0.3,0,0.5-0.2,0.7-0.3c0.2-0.2,0.3-0.5,0.4-0.8c0-0.6-0.3-1.1-0.9-1.3
				L53,12.5l4.4-4.4c0.7-0.7,0.3-1.5-0.4-2.2c-0.7-0.7-1.5-1.1-2.2-0.4L50.5,10l-0.9-3.3c-0.2-0.6-0.7-0.9-1.3-0.9
				c-0.6,0-1.1,0.5-1.1,1.1l-1,8.7c0,0.4,0.1,0.7,0.3,1C46.8,16.8,47.2,16.9,47.5,16.9z M24.5,28.7c0.4,3.6,2.2,5.6,4.4,7.5
				c0.6,0.5,1.6,0.7,2.7,0.8c0.1,0.2,0.1,0.4-0.3,0.5c-0.7,0.2-2.7,0.5-4.9-0.6c0,0,0,0,0,0c-1.6,0.4-7.3,2.1-9.1,3.9
				c-0.8,0.8-1.4,2.5-1.8,4.2h32.9c-0.4-1.8-1-3.4-1.8-4.2c-1.6-1.7-6.5-3.2-8.7-3.7c-0.6-0.2-1-0.7-1.1-1.2
				c-0.1-0.5-0.2-1.1-0.2-1.1c1.4-1.6,2.4-3.4,2.8-5.9c1.3-0.4,1.6-2.1,1.6-3.1c0-1-0.2-1.6-0.6-1.8c-0.2-0.1-0.5-0.1-0.6,0
				c0.1-2.2,0.3-6.4-0.6-8c-1-1.8-2.2-2.2-4.5-1.6c-1.5-0.8-2.5-1.6-5.1-0.9c-1.8,0.5-3.7,1.3-4.8,2.7c-1.1,1.5-0.9,5.7-0.7,7.9
				c-0.2,0-0.5-0.1-0.7,0C23.1,24,23,24.6,23,25.6C23,26.7,23.2,28.3,24.5,28.7z M16.5,47.2l-8.7,1c-0.3,0-0.5,0.2-0.7,0.3
				c-0.2,0.2-0.3,0.5-0.4,0.8c0,0.6,0.3,1.1,0.9,1.3l3.3,0.9l-4.4,4.4c-0.7,0.7-0.3,1.5,0.4,2.2c0.7,0.7,1.5,1.1,2.2,0.4l4.4-4.4
				l0.9,3.3c0.2,0.6,0.7,0.9,1.3,0.9c0.6,0,1.1-0.5,1.1-1.1l1-8.7c0-0.4-0.1-0.7-0.3-1C17.2,47.3,16.8,47.1,16.5,47.2z M11,12.5
				l-3.3,0.9c-0.6,0.2-0.9,0.7-0.9,1.3c0,0.3,0.2,0.6,0.4,0.8c0.2,0.2,0.4,0.3,0.7,0.3l8.7,1c0.4,0,0.7-0.1,1-0.3
				c0.3-0.3,0.4-0.6,0.3-1l-1-8.7c-0.1-0.6-0.5-1-1.1-1.1c-0.6,0-1.1,0.3-1.3,0.9L13.5,10L9.1,5.6C8.4,4.9,7.6,5.3,6.9,6
				C6.2,6.6,5.9,7.4,6.5,8.1L11,12.5z"/>
		</g>
	</g>
</g>
</svg>
