<?xml version="1.0" encoding="utf-8"?>
<!-- Generator: Adobe Illustrator 19.1.0, SVG Export Plug-In . SVG Version: 6.00 Build 0)  -->
<svg version="1.2" baseProfile="tiny" xmlns="http://www.w3.org/2000/svg" xmlns:xlink="http://www.w3.org/1999/xlink" x="0px"
	 y="0px" width="64px" height="64px" viewBox="0 0 64 64" xml:space="preserve">
<g id="Box">
	<rect fill="none" width="64" height="64"/>
</g>
<g id="Icon">
	<g>
		<path d="M29.4453,22.6804c4.042-5.8682,6.6685-8.7852,8.7812-9.7529c0.8228-0.377,2.0432-0.6551,3.4517-0.838
			c-3.2363-1.9476-6.8358-3.1635-10.6054-2.7594c-6.2452,0.6694-7.4349,5.4036-15.9872,5.6741
			c-6.0894,0.1926-10.7267-2.6082-10.7267-2.6082S1.517,16.9367,4.2405,22.558c3.791,7.8247,10.4418,6.4221,11.5579,14.9791
			C16.418,42.2877,14.6665,47,14.6665,47s12.4141-5.2966,19.8084-14.0297c-1.7759-1.7861-3.9309-4.2385-4.9212-5.6132
			C28.5352,25.9441,28.4917,24.0642,29.4453,22.6804z"/>
		<path d="M46.001,11.9101c3.1358,0,4.95-2.1782,4.95-5.3126c0-3.5723-1.8964-5.4875-4.95-5.4875c-3.217,0-4.95,2.2643-4.95,5.4875
			C41.051,9.9938,42.8657,11.9101,46.001,11.9101z"/>
		<path d="M55.7142,31.6729c1.6668-1.6484,3.9481-4.2148,4.9473-5.6015c0.4575-0.635,0.5258-1.4969,0.0818-2.1415
			c-2.2434-3.257-5.6482-7.9769-7.8863-9.0026c-2.585-1.1849-11.1289-1.1849-13.714,0c-2.2381,1.0258-5.6429,5.7457-7.8863,9.0026
			c-0.444,0.6446-0.3757,1.5065,0.0818,2.1415c0.9992,1.3867,3.2805,3.9531,4.9473,5.6015
			c1.2886,1.2744,2.3693,1.5064,3.1506,1.4055l0.0263,0.6768l-4.7939,27.6775c0,0,5.5369,1.1803,6.5323-3.8264
			c1.0113-5.0871,3.968-18.6935,4.0718-19.0834c0.1264-0.4751,0.4549-0.5932,0.7271-0.5932s0.6228,0.1181,0.7271,0.5932
			c0.0876,0.399,3.0605,13.9962,4.0718,19.0834c0.9954,5.0067,6.5323,3.8264,6.5323,3.8264l-4.7939-27.6775l0.0263-0.6768
			C53.3448,33.1793,54.4256,32.9472,55.7142,31.6729z M53.0205,21.3158l2.9794,3.5714l-3.2833,4.2521L53.0205,21.3158z
			 M36.0001,24.8872l2.9794-3.5714l0.3039,7.8235L36.0001,24.8872z M46.1478,26.0982c-0.0918,0.0481-0.2039,0.0481-0.2957,0
			c-3.4974-1.8319-3.5969-5.1224-2.1047-5.7856C45.2604,19.6402,46,21.0859,46,21.0859s0.7396-1.4457,2.2526-0.7733
			C49.7447,20.9758,49.6453,24.2663,46.1478,26.0982z"/>
	</g>
</g>
</svg>
