<?xml version="1.0" encoding="utf-8"?>
<!-- Generator: Adobe Illustrator 22.1.0, SVG Export Plug-In . SVG Version: 6.00 Build 0)  -->
<!DOCTYPE svg PUBLIC "-//W3C//DTD SVG 1.1//EN" "http://www.w3.org/Graphics/SVG/1.1/DTD/svg11.dtd">
<svg version="1.1" xmlns="http://www.w3.org/2000/svg" xmlns:xlink="http://www.w3.org/1999/xlink" x="0px" y="0px" width="64px"
	 height="64px" viewBox="0 0 64 64" style="enable-background:new 0 0 64 64;" xml:space="preserve">
<style type="text/css">
	.st0{fill:none;}
</style>
<g id="Box">
	<rect class="st0" width="64" height="64"/>
</g>
<g id="Icon">
	<g>
		<g>
			<path d="M19.5,34.7C22,37,26.9,40,31.9,40c5,0,10-3.1,12.6-5.3c5.2-4.3,6.9-21,0-28.3c-6.9-7.3-18.1-7.3-25,0
				C12.6,13.7,14.5,30.3,19.5,34.7z M19.2,17c3.4,1.1,7.8,1.8,12.8,1.8c5,0,9.4-0.7,12.8-1.8c0.4,2.4,0.3,4.7,0.1,6.5
				c-0.1,1.4-0.9,2.7-2,3.5c-3.1,2.2-8.3,2.6-11.1,2.6c-2.8,0-7.8-0.3-10.9-2.5c-1.1-0.8-1.8-2-1.9-3.4C18.9,21.7,18.8,19.5,19.2,17
				z M52.6,44.1c-2-2.1-7.3-4.1-10.5-5.1c-3,1.8-6.7,3.2-10.3,3.2h0c-3.6,0-7.2-1.4-10.1-3.1c-3.2,1-8.4,2.9-10.3,5
				C8.5,47.2,7,59,7,59h50C57,59,55.5,47.2,52.6,44.1z"/>
		</g>
	</g>
</g>
</svg>
