<?xml version="1.0" encoding="utf-8"?>
<!-- Generator: Adobe Illustrator 21.0.2, SVG Export Plug-In . SVG Version: 6.00 Build 0)  -->
<!DOCTYPE svg PUBLIC "-//W3C//DTD SVG 1.1//EN" "http://www.w3.org/Graphics/SVG/1.1/DTD/svg11.dtd">
<svg version="1.1" xmlns="http://www.w3.org/2000/svg" xmlns:xlink="http://www.w3.org/1999/xlink" x="0px" y="0px" width="64px"
	 height="64px" viewBox="0 0 64 64" enable-background="new 0 0 64 64" xml:space="preserve">
<g id="Box">
	<rect fill="none" width="64" height="64"/>
</g>
<g id="Icon">
	<g>
		<g>
			<path d="M50.4381,40.9448c-0.0493,0.4165-0.1093,1.4414-0.2932,1.8184c0,0,0.0004,0.0002,0.0007,0.0002
				c-0.0822,0.1429-0.1957,0.2524-0.3651,0.3159c-0.2097,0.0786-0.9341,0.337-1.3396,0.4832
				c1.9908,0.9495,3.8491,2.0374,4.937,3.1743l0.0005,0.0005c0.9224,0.9641,1.6951,2.5155,2.3367,4.2626H63
				c0,0-0.0581-3.9122-1.2523-5.1693c-0.4075-0.4292-1.2191-0.8967-2.1119-1.3276c-1.1692-0.5784-2.7158-1.0901-3.4119-1.351
				c-0.6233-0.2334-0.5287-1.0455-0.6577-2.1344c1.7634-0.0718,2.9615-0.2455,3.5681-0.4766
				c0.1198-0.0457,0.1802-0.1555,0.1268-0.272c-0.3317-0.7239-1.194-2.8947-1.3024-4.1379
				c-0.0552-0.6321-0.0781-1.3687-0.115-2.1256c0.0073-0.0013,0.0093-0.0043,0.0159-0.0056
				c-0.2593-2.8953-0.9678-5.5828-4.1229-4.4971c0,0-2.5287-1.6964-4.5825,1.1415c-0.8624,1.1921-1.0804,2.093-1.1317,3.3555h0.0175
				c-0.0416,0.8501-0.0127,1.6364-0.0371,2.2274c-0.0432,1.0441-0.8976,3.2451-1.2571,3.8696
				c-0.0765,0.1329-0.0504,0.2675,0.0936,0.3197C47.4902,40.6531,48.7156,40.8361,50.4381,40.9448z M10.6216,46.7373
				c1.1399-1.1914,3.1232-2.3313,5.2213-3.3118c-0.6213-0.2134-1.5966-0.5255-1.9436-0.6226
				c-0.4908-0.2009-0.567-0.8796-0.6023-1.4132c0.7592-0.8846,1.3224-1.9476,1.5167-3.34c0.7642-0.238,0.917-1.2024,0.917-1.8037
				c0-0.6011-0.1047-0.9264-0.3184-1.0271c-0.1567-0.0737-0.302-0.0382-0.4124,0.0132v-1.6575
				c0.7958-0.4647,2.4202-1.8063-0.0793-4.0957c-1.3127-1.2021-3.4495-0.7893-5.5109,0.2064
				c-0.1243-0.2415-0.3688-0.4115-0.6591-0.4115c-0.4136,0-0.7488,0.3352-0.7488,0.7488c0,0.1344,0.0449,0.2539,0.1069,0.3629
				c-2.3817,1.4406-4.3789,3.4197-4.4392,4.1963c-0.0426,0.5482,0.7266,0.7423,1.8704,0.7355
				c-0.1334,0.1555-0.2019,0.4525-0.2019,0.9287c0,0.6013,0.153,1.5657,0.917,1.8037c0.1713,1.4399,0.7251,2.4587,1.4688,3.3088
				c-0.0254,0.6016-0.0671,1.3259-0.6399,1.4861c-1.2009,0.3356-3.8577,1.1779-4.7932,2.1631C1.0967,46.265,1,51,1,51h7.2848
				C8.9265,49.2529,9.6992,47.7014,10.6216,46.7373z M46.4744,45.0764c-1.5298-0.7014-5.8876-2.4351-6.2869-2.6814
				c-0.1233-1.0872-0.248-2.1813-0.3606-3.1656c2.3038-2.4675,3.686-5.0348,4.1028-7.6727c1.3281-1.2195,2.078-3.1658,2.078-5.5557
				c0-0.74-0.0166-2.6733-1.2212-4.0065C44.9214,21.2632,45,20.5125,45,19.7424c0-5.564-3.6443-10.2822-8.7159-12.0195
				c0.0623-0.2942,0.0978-0.5981,0.0978-0.9109c0-2.4199-1.9619-4.3818-4.3818-4.3818c-2.2788,0-4.1294,1.7461-4.3402,3.9697
				c1.2598-0.0659,2.504-0.072,3.381,0.0658c0.5917,0.0929,0.8246,0.3334,0.7764,0.5433C24.7227,7.106,19,12.7655,19,19.7424
				c0,0.7705,0.0787,1.5217,0.2139,2.2537c-1.2036,1.333-1.2214,3.2651-1.2214,4.0049c0,2.3862,0.7472,4.3298,2.0714,5.5498
				c0.4049,2.6635,1.7721,5.2035,4.1083,7.6863c-0.1123,0.9829-0.2366,2.073-0.3596,3.158c-0.2164,0.1335-5.8257,2.47-6.2869,2.6814
				c-2.1611,0.9515-4.2473,2.0664-5.3142,3.1814C9.4531,51.1416,8,62,8,62h48c0,0-1.4531-10.8584-4.2114-13.7422
				C50.7217,47.1428,48.6355,46.028,46.4744,45.0764z M33.2775,58.7087L32,54.1667l-1.2786,4.5457
				c-2.8914-1.8524-8.2075-5.8815-10.3699-11.605c3.7415-1.5677,6.1863-2.1152,6.3984-3.9897
				c0.0527-0.467,0.3096-2.7292,0.5669-4.9739c-0.0104-0.0098-0.0205-0.0166-0.0309-0.0261l0.0001-0.002
				c-2.2941-2.1543-4.3447-4.9171-4.3447-8.2964C21.4532,29.3557,21,27.5527,21,26.001c0-0.6362,0.0554-1.1265,0.1674-1.4844
				c0.1119-0.3577,0.2804-0.583,0.5065-0.6895c0.0002-0.0002,0.0005-0.0002,0.0009-0.0004c0.4152-0.1952,0.9015-0.0347,1.2667,0.265
				c0-0.832,0.0172-3.1761,0.7433-5.5813c2.2526-2.0306,5.1472-3.2596,8.3153-3.2596c3.2297,0,6.1703,1.2828,8.4409,3.3846
				c0.0385,0.1418,0.0847,0.2839,0.1184,0.4252c0.1626,0.6818,0.2722,1.3536,0.3462,1.9847
				c0.1479,1.2622,0.1531,2.3607,0.1531,3.0464c0.3613-0.2964,0.8413-0.4656,1.2676-0.2646C42.7783,24.04,43,24.7285,43,26.001
				c0,1.5526-0.4536,3.3549-1.9414,3.8184c0,3.353-2.0691,6.156-4.3756,8.3228h-0.0001C35.6829,39.0815,34.835,40,31.9998,40
				c-1.0916,0-2.1819-0.1841-2.9907-0.5508c0.4012,0.9803,1.2428,2.2144,3.2751,2.7209c1.8115,0.4512,3.7573,0.2236,4.8066-0.4568
				c0.053,0.4663,0.1064,0.9368,0.1592,1.4038c0.2117,1.8708,2.6411,2.4183,6.3979,3.9897
				C41.4885,52.8135,36.1702,56.8506,33.2775,58.7087z M35.3069,33.3943c0,0-1.9-2.7258-3.307-1.4468
				c-1.4067-1.2791-3.3068,1.4468-3.3068,1.4468s1.7068,1.989,3.3068,1.989C33.6001,35.3833,35.3069,33.3943,35.3069,33.3943z"/>
		</g>
	</g>
</g>
</svg>
