<svg xmlns="http://www.w3.org/2000/svg" role="img" viewBox="-0.96 1.04 49.85 46.10"><g fill="#007BC7" clip-path="url(#clip0_10_6)"><path d="M28.6309 40.8498c-.3431-.3999-.574-.8835-.6706-1.4014-.4536-2.4317 1.0701 5.7386-1.8916-10.1411.0057.0038.0119.007.0177.0108-.5747-4.5197 2.3596-6.3079 3.2085-6.724.0605.0156.0605.1093-.0103.1697-.6067.749-2.1536 3.0023-1.7498 6.0979.0431.3307.122.5559.2132 1.0561.9106.3411 1.8943.5313 2.9244.5313 4.6428 0 8.3276-3.5235 8.3276-8.1663 0-2.1033-.6991-4.0214-1.9759-5.4957.6428-1.1275 1.0151-2.4292 1.0151-3.82 0-3.51675-2.3497-6.4797-5.5631-7.4178C31.3725 3.4409 29.1674 2 26.6228 2c-1.751 0-3.3383.68595-4.5206 1.79767-1.1192-.87075-2.5219-1.39432-4.0497-1.39432-3.6486 0-6.6068 2.95785-6.6068 6.60682 0 .01268.0018.0249.0018.0375-3.47163.4461-5.84447 3.88323-4.85005 7.37063-1.47022 1.3693-2.39528 3.3162-2.39528 5.4838 0 4.1422 3.35783 7.5 7.50003 7.5 1.8496 0 3.54-.6726 4.8477-1.7825.7943 1.3814 1.458 2.265 1.3545 3.8636l-.1998 3.0874c3.4927 2.1674 3.6759 6.1562 3.69 6.3146.015.1679.0451.2854-.1051.3022-.5994-1.108-2.6004-5.6641-6.3796-5.4185-2.7637.1795-3.7233 2.7587-3.7233 2.7587s-1.6817-1.147-3.6914-.0459c-1.71352.9389-2.40075 3.1839-2.40075 3.1839s-1.7778-.4892-3.25935.5326C.93547 42.8188.2619 43.8604 0 46.2464h10.4062c-.2253-1.6286.4063-3 .4063-3 .4488 1.5611 1.5863 2.7264 1.871 3h.0688c.0254-1.9424 1.2476-5.051 1.2476-5.051C13.7216 44.7588 15 46.1839 15 46.1839l-.0321.0625h8.0124s-.2044-.9648-.6413-2.3057l2.4084-.5088 5.9521.8145s.5568-.3946-.1002-1.1373c-.8275-.9355-1.524-1.7412-1.9684-2.2593zM21.634 26.4364c-.2451.5141-.9493.5726-1.2823.1106l-1.5721-2.1813c.1962-.5634.3311-1.1549.3876-1.7705.9534.9328 2.1886 1.5736 3.5655 1.7945-.4568.7577-.8284 1.4796-1.0987 2.0467z"/><path d="M28.2703 35c.7502.5627 2.6136 2.0625 4.5 2.0625 1.8462 0 3.6869-1.4525 4.5-2.0625.7502.5627 2.6136 2.0625 4.5 2.0625 1.8462 0 3.6869-1.4525 4.5-2.0625.7502.5627 2.6136 2.0625 4.5 2.0625.7637 0 1.5934-.292 2.2823-.6205v3.1637c-.707.2285-1.4842.3893-2.2823.3893-1.7977 0-3.4973-.8072-4.5-1.3975-1.0027.5903-2.7022 1.3975-4.5 1.3975-1.7977 0-3.4973-.8072-4.5-1.3975-1.0027.5903-2.7022 1.3975-4.5 1.3975-.9992 0-1.963-.2521-2.7989-.575l-2.303-3.9684.6019-.4516zm3.7647 7.9759c1.9297.3891 3.6607-.7947 5.2354-1.9759.7502.5627 2.6136 2.0625 4.5 2.0625 1.8462 0 3.6869-1.4525 4.5-2.0625.7502.5627 2.6136 2.0625 4.5 2.0625.7637 0 1.5934-.292 2.2823-.6205v3.1637c-.7071.2285-1.4843.3893-2.2824.3893-1.7977 0-3.4973-.8072-4.5-1.3975-1.0026.5903-2.7022 1.3975-4.5 1.3975-1.7977 0-3.4973-.8072-4.5-1.3975-.844.497-2.1837 1.1417-3.6582 1.3352-.0863-.3003-.2055-.5931-.3657-.8693l-1.2114-2.0875z"/></g><defs><clipPath id="clip0_10_6"><path fill="#fff" d="M0 0h48v48H0z"/></clipPath></defs></svg>