<svg xmlns="http://www.w3.org/2000/svg" role="img" viewBox="-0.96 0.04 49.85 48.35"><g clip-path="url(#clip0_10_23)"><path stroke="#007BC7" stroke-width="2" d="M28.9444 1L28.9444 47.5M19 1L19 47.5"/><path fill="#007BC7" d="M47 24L42 21.1132V26.8868L47 24zM29 24.5L42.5 24.5V23.5L29 23.5V24.5zM1 24L6 26.8868 6 21.1132 1 24zM18.25 23.5L5.5 23.5 5.5 24.5 18.25 24.5 18.25 23.5zM11.7822 14.5002C11.0321 15.063 9.16865 16.5627 7.28225 16.5627 5.43605 16.5627 3.59532 15.1102 2.78225 14.5002 2.0321 15.063.16865 16.5627-1.71775 16.5627-3.56395 16.5627-5.40468 15.1102-6.21775 14.5002-6.9679 15.063-8.83135 16.5627-10.7177 16.5627-11.4815 16.5627-12.3112 16.2708-13 15.9423V19.106C-12.293 19.3345-11.5158 19.4952-10.7177 19.4952-8.92 19.4952-7.22043 18.6881-6.21775 18.0978-5.21508 18.6881-3.5155 19.4952-1.71775 19.4952.0799999 19.4952 1.77957 18.6881 2.78225 18.0978 3.78492 18.6881 5.4845 19.4952 7.28225 19.4952 9.08 19.4952 10.7796 18.6881 11.7822 18.0978 12.7849 18.6881 14.4845 19.4952 16.2822 19.4952 16.5192 19.4952 16.753 19.4771 16.985 19.4514V16.4912C16.7524 16.5331 16.5181 16.5627 16.2822 16.5627 14.436 16.5627 12.5953 15.1102 11.7822 14.5002zM11.7822 7.75023C11.0321 8.31303 9.16865 9.81273 7.28225 9.81273 5.43605 9.81273 3.59532 8.3602 2.78225 7.75023 2.0321 8.31303.16865 9.81273-1.71775 9.81273-3.56395 9.81273-5.40468 8.3602-6.21775 7.75023-6.9679 8.31303-8.83135 9.81273-10.7177 9.81273-11.4815 9.81273-12.3112 9.52075-13 9.19225V12.356C-12.293 12.5845-11.5158 12.7452-10.7177 12.7452-8.92 12.7452-7.22043 11.9381-6.21775 11.3478-5.21508 11.9381-3.5155 12.7452-1.71775 12.7452.0799999 12.7452 1.77957 11.9381 2.78225 11.3478 3.78492 11.9381 5.4845 12.7452 7.28225 12.7452 9.08 12.7452 10.7796 11.9381 11.7822 11.3478 12.7849 11.9381 14.4845 12.7452 16.2822 12.7452 16.5192 12.7452 16.753 12.7271 16.985 12.7014V9.74118C16.7524 9.78311 16.5181 9.81273 16.2822 9.81273 14.436 9.81273 12.5953 8.3602 11.7822 7.75023zM11.7822 1C11.0321 1.5628 9.16865 3.0625 7.28225 3.0625 5.43605 3.0625 3.59532 1.60997 2.78225 1 2.0321 1.5628.16865 3.0625-1.71775 3.0625-3.56395 3.0625-5.40468 1.60997-6.21775 1-6.9679 1.5628-8.83135 3.0625-10.7177 3.0625-11.4815 3.0625-12.3112 2.77053-13 2.44203V5.60575C-12.293 5.83428-11.5158 5.995-10.7177 5.995-8.92 5.995-7.22043 5.18785-6.21775 4.59753-5.21508 5.18785-3.5155 5.995-1.71775 5.995.0799999 5.995 1.77957 5.18785 2.78225 4.59753 3.78492 5.18785 5.4845 5.995 7.28225 5.995 9.08 5.995 10.7796 5.18785 11.7822 4.59753 12.7849 5.18785 14.4845 5.995 16.2822 5.995 16.5192 5.995 16.753 5.97685 16.985 5.9512V2.99095C16.7524 3.03288 16.5181 3.0625 16.2822 3.0625 14.436 3.0625 12.5953 1.60997 11.7822 1zM11.7822 42.5002C11.0321 43.063 9.16865 44.5627 7.28225 44.5627 5.43605 44.5627 3.59532 43.1102 2.78225 42.5002 2.0321 43.063.16865 44.5627-1.71775 44.5627-3.56395 44.5627-5.40468 43.1102-6.21775 42.5002-6.9679 43.063-8.83135 44.5627-10.7177 44.5627-11.4815 44.5627-12.3112 44.2708-13 43.9423V47.106C-12.293 47.3345-11.5158 47.4952-10.7177 47.4952-8.92 47.4952-7.22043 46.6881-6.21775 46.0978-5.21508 46.6881-3.5155 47.4952-1.71775 47.4952.0799999 47.4952 1.77957 46.6881 2.78225 46.0978 3.78492 46.6881 5.4845 47.4952 7.28225 47.4952 9.08 47.4952 10.7796 46.6881 11.7822 46.0978 12.7849 46.6881 14.4845 47.4952 16.2822 47.4952 16.5192 47.4952 16.753 47.4771 16.985 47.4514V44.4912C16.7524 44.5331 16.5181 44.5627 16.2822 44.5627 14.436 44.5627 12.5953 43.1102 11.7822 42.5002zM11.7822 35.7502C11.0321 36.313 9.16865 37.8127 7.28225 37.8127 5.43605 37.8127 3.59532 36.3602 2.78225 35.7502 2.0321 36.313.16865 37.8127-1.71775 37.8127-3.56395 37.8127-5.40468 36.3602-6.21775 35.7502-6.9679 36.313-8.83135 37.8127-10.7177 37.8127-11.4815 37.8127-12.3112 37.5208-13 37.1923V40.356C-12.293 40.5845-11.5158 40.7452-10.7177 40.7452-8.92 40.7452-7.22043 39.9381-6.21775 39.3478-5.21508 39.9381-3.5155 40.7452-1.71775 40.7452.0799999 40.7452 1.77957 39.9381 2.78225 39.3478 3.78492 39.9381 5.4845 40.7452 7.28225 40.7452 9.08 40.7452 10.7796 39.9381 11.7822 39.3478 12.7849 39.9381 14.4845 40.7452 16.2822 40.7452 16.5192 40.7452 16.753 40.7271 16.985 40.7014V37.7412C16.7524 37.7831 16.5181 37.8127 16.2822 37.8127 14.436 37.8127 12.5953 36.3602 11.7822 35.7502zM11.7822 29C11.0321 29.5628 9.16865 31.0625 7.28225 31.0625 5.43605 31.0625 3.59532 29.61 2.78225 29 2.0321 29.5628.16865 31.0625-1.71775 31.0625-3.56395 31.0625-5.40468 29.61-6.21775 29-6.9679 29.5628-8.83135 31.0625-10.7177 31.0625-11.4815 31.0625-12.3112 30.7705-13 30.442V33.6058C-12.293 33.8343-11.5158 33.995-10.7177 33.995-8.92 33.995-7.22043 33.1879-6.21775 32.5975-5.21508 33.1879-3.5155 33.995-1.71775 33.995.0799999 33.995 1.77957 33.1879 2.78225 32.5975 3.78492 33.1879 5.4845 33.995 7.28225 33.995 9.08 33.995 10.7796 33.1879 11.7822 32.5975 12.7849 33.1879 14.4845 33.995 16.2822 33.995 16.5192 33.995 16.753 33.9768 16.985 33.9512V30.991C16.7524 31.0329 16.5181 31.0625 16.2822 31.0625 14.436 31.0625 12.5953 29.61 11.7822 29zM36.2028 14.5002C36.9529 15.063 38.8164 16.5627 40.7028 16.5627 42.549 16.5627 44.3897 15.1102 45.2028 14.5002 45.9529 15.063 47.8164 16.5627 49.7028 16.5627 51.549 16.5627 53.3897 15.1102 54.2028 14.5002 54.9529 15.063 56.8164 16.5627 58.7028 16.5627 59.4666 16.5627 60.2962 16.2708 60.985 15.9423V19.106C60.278 19.3345 59.5008 19.4952 58.7028 19.4952 56.905 19.4952 55.2054 18.6881 54.2028 18.0978 53.2001 18.6881 51.5005 19.4952 49.7028 19.4952 47.905 19.4952 46.2054 18.6881 45.2028 18.0978 44.2001 18.6881 42.5005 19.4952 40.7028 19.4952 38.905 19.4952 37.2054 18.6881 36.2028 18.0978 35.2001 18.6881 33.5005 19.4952 31.7028 19.4952 31.4658 19.4952 31.232 19.4771 31 19.4514V16.4912C31.2326 16.5331 31.4669 16.5627 31.7028 16.5627 33.549 16.5627 35.3897 15.1102 36.2028 14.5002zM36.2028 7.75023C36.9529 8.31303 38.8164 9.81273 40.7028 9.81273 42.549 9.81273 44.3897 8.3602 45.2028 7.75023 45.9529 8.31303 47.8164 9.81273 49.7028 9.81273 51.549 9.81273 53.3897 8.3602 54.2028 7.75023 54.9529 8.31303 56.8164 9.81273 58.7028 9.81273 59.4666 9.81273 60.2962 9.52075 60.985 9.19225V12.356C60.278 12.5845 59.5008 12.7452 58.7028 12.7452 56.905 12.7452 55.2054 11.9381 54.2028 11.3478 53.2001 11.9381 51.5005 12.7452 49.7028 12.7452 47.905 12.7452 46.2054 11.9381 45.2028 11.3478 44.2001 11.9381 42.5005 12.7452 40.7028 12.7452 38.905 12.7452 37.2054 11.9381 36.2028 11.3478 35.2001 11.9381 33.5005 12.7452 31.7028 12.7452 31.4658 12.7452 31.232 12.7271 31 12.7014V9.74118C31.2326 9.78311 31.4669 9.81273 31.7028 9.81273 33.549 9.81273 35.3897 8.3602 36.2028 7.75023zM36.2028 1C36.9529 1.5628 38.8164 3.0625 40.7028 3.0625 42.549 3.0625 44.3897 1.60997 45.2028 1 45.9529 1.5628 47.8164 3.0625 49.7028 3.0625 51.549 3.0625 53.3897 1.60997 54.2028 1 54.9529 1.5628 56.8164 3.0625 58.7028 3.0625 59.4666 3.0625 60.2962 2.77053 60.985 2.44203V5.60575C60.278 5.83428 59.5008 5.995 58.7028 5.995 56.905 5.995 55.2054 5.18785 54.2028 4.59753 53.2001 5.18785 51.5005 5.995 49.7028 5.995 47.905 5.995 46.2054 5.18785 45.2028 4.59753 44.2001 5.18785 42.5005 5.995 40.7028 5.995 38.905 5.995 37.2054 5.18785 36.2028 4.59753 35.2001 5.18785 33.5005 5.995 31.7028 5.995 31.4658 5.995 31.232 5.97685 31 5.9512V2.99095C31.2326 3.03288 31.4669 3.0625 31.7028 3.0625 33.549 3.0625 35.3897 1.60997 36.2028 1zM36.2028 42.5002C36.9529 43.063 38.8164 44.5627 40.7028 44.5627 42.549 44.5627 44.3897 43.1102 45.2028 42.5002 45.9529 43.063 47.8164 44.5627 49.7028 44.5627 51.549 44.5627 53.3897 43.1102 54.2028 42.5002 54.9529 43.063 56.8164 44.5627 58.7028 44.5627 59.4666 44.5627 60.2962 44.2708 60.985 43.9423V47.106C60.278 47.3345 59.5008 47.4952 58.7028 47.4952 56.905 47.4952 55.2054 46.6881 54.2028 46.0978 53.2001 46.6881 51.5005 47.4952 49.7028 47.4952 47.905 47.4952 46.2054 46.6881 45.2028 46.0978 44.2001 46.6881 42.5005 47.4952 40.7028 47.4952 38.905 47.4952 37.2054 46.6881 36.2028 46.0978 35.2001 46.6881 33.5005 47.4952 31.7028 47.4952 31.4658 47.4952 31.232 47.4771 31 47.4514V44.4912C31.2326 44.5331 31.4669 44.5627 31.7028 44.5627 33.549 44.5627 35.3897 43.1102 36.2028 42.5002zM36.2028 35.7502C36.9529 36.313 38.8164 37.8127 40.7028 37.8127 42.549 37.8127 44.3897 36.3602 45.2028 35.7502 45.9529 36.313 47.8164 37.8127 49.7028 37.8127 51.549 37.8127 53.3897 36.3602 54.2028 35.7502 54.9529 36.313 56.8164 37.8127 58.7028 37.8127 59.4666 37.8127 60.2962 37.5208 60.985 37.1923V40.356C60.278 40.5845 59.5008 40.7452 58.7028 40.7452 56.905 40.7452 55.2054 39.9381 54.2028 39.3478 53.2001 39.9381 51.5005 40.7452 49.7028 40.7452 47.905 40.7452 46.2054 39.9381 45.2028 39.3478 44.2001 39.9381 42.5005 40.7452 40.7028 40.7452 38.905 40.7452 37.2054 39.9381 36.2028 39.3478 35.2001 39.9381 33.5005 40.7452 31.7028 40.7452 31.4658 40.7452 31.232 40.7271 31 40.7014V37.7412C31.2326 37.7831 31.4669 37.8127 31.7028 37.8127 33.549 37.8127 35.3897 36.3602 36.2028 35.7502zM36.2028 29C36.9529 29.5628 38.8164 31.0625 40.7028 31.0625 42.549 31.0625 44.3897 29.61 45.2028 29 45.9529 29.5628 47.8164 31.0625 49.7028 31.0625 51.549 31.0625 53.3897 29.61 54.2028 29 54.9529 29.5628 56.8164 31.0625 58.7028 31.0625 59.4666 31.0625 60.2962 30.7705 60.985 30.442V33.6058C60.278 33.8343 59.5008 33.995 58.7028 33.995 56.905 33.995 55.2054 33.1879 54.2028 32.5975 53.2001 33.1879 51.5005 33.995 49.7028 33.995 47.905 33.995 46.2054 33.1879 45.2028 32.5975 44.2001 33.1879 42.5005 33.995 40.7028 33.995 38.905 33.995 37.2054 33.1879 36.2028 32.5975 35.2001 33.1879 33.5005 33.995 31.7028 33.995 31.4658 33.995 31.232 33.9768 31 33.9512V30.991C31.2326 31.0329 31.4669 31.0625 31.7028 31.0625 33.549 31.0625 35.3897 29.61 36.2028 29z"/></g><defs><clipPath id="clip0_10_23"><path fill="#fff" d="M0 0H48V48H0z"/></clipPath></defs></svg>