<?xml version="1.0" encoding="utf-8"?>
<!-- Generator: Adobe Illustrator 23.1.1, SVG Export Plug-In . SVG Version: 6.00 Build 0)  -->
<svg version="1.1" xmlns="http://www.w3.org/2000/svg" xmlns:xlink="http://www.w3.org/1999/xlink" x="0px" y="0px"
	 viewBox="0 0 64 64" style="enable-background:new 0 0 64 64;" xml:space="preserve">
<style type="text/css">
	.st0{fill:none;}
</style>
<g id="Box">
	<rect class="st0" width="64" height="64"/>
</g>
<g id="Icon">
	<g>
		<path d="M15,57h-5V17h5v-5H7.5C6.1,12,5,13.1,5,14.5v45C5,60.9,6.1,62,7.5,62h35c1.4,0,2.5-1.1,2.5-2.5V57h-5H15z"/>
		<path d="M56.4,16.5L41.6,1.6C41.2,1.2,40.7,1,40.2,1H19c-1.1,0-2,0.9-2,2v46c0,1.1,0.9,2,2,2h18v-5H22V6h16.7l0.9-3.1
			C39.8,2.5,40,2.7,40,2.7V17c0,0.6,0.5,1,1,1h14.4c0,0,0.1,0.3-0.2,0.4l-3.2,1V46h-5v5h8c1.1,0,2-0.9,2-2V17.9
			C57,17.3,56.8,16.8,56.4,16.5z"/>
		<path d="M42,37c-2.8,0-5,2.2-5,5c0,1.6,1,3.1,2,4v8.5c0,0.5,0.6,0.8,1,0.4l1.7-1.6c0.2-0.2,0.6-0.2,0.8,0l1.6,1.6
			c0.4,0.4,0.9,0.1,0.9-0.4V46c1-0.9,2-2.3,2-4C47,39.3,44.8,37,42,37z M42,44c-1.1,0-2-0.9-2-2s0.9-2,2-2s2,0.9,2,2S43.1,44,42,44z
			"/>
		<rect x="26" y="24" width="22" height="3"/>
		<rect x="26" y="11" width="10" height="3"/>
		<rect x="26" y="16" width="10" height="3"/>
		<path d="M39.4,29c-0.6,1.3-1.5,2.9-1.1,4.4c0.1,0.3,0.3,0.4,0.6,0.4c0.6,0.1,1.5-0.6,2-1.2c0,0.1,0,0.1,0,0.2
			c0,0.3,0.2,0.7,0.4,0.9c0.2,0.2,0.5,0.2,0.7,0.1c0.4-0.2,0.6-0.5,0.8-0.9c0,0.4,0.2,0.7,0.5,0.9c0.8,0.4,1.2-0.3,1.6-0.9
			c0.1,0.2,0.4,0.4,0.7,0.3c0.8-0.3,0.5-0.9,1-0.1c0.4,0.6,1.5,0,1-0.6c-0.3-0.5-0.2-1-0.8-1.2c-0.4-0.1-0.7,0.2-1,0.4
			c0,0,0-0.1,0-0.1c-0.1-0.3-0.6-0.6-0.9-0.4c-0.5,0.4-0.6,0.7-0.9,1.3c-0.2,0.5,0.1-0.4,0.1-0.7c0-0.2,0.1-0.5,0.1-0.7
			c0-0.5-0.5-0.7-0.9-0.5c-0.6,0.3-0.9,0.9-1.2,1.4c0.1-0.4,0.2-0.9,0-1.2c-0.1-0.2-0.3-0.3-0.5-0.3c-0.9,0.1-1.6,1.5-2.2,2
			c0.1-1,0.7-2.1,1-2.8C40.8,28.9,39.7,28.3,39.4,29z"/>
		<path d="M27.3,29c-0.6,1.3-1.5,2.9-1.1,4.4c0.1,0.3,0.3,0.4,0.6,0.4c0.6,0.1,1.5-0.6,2-1.2c0,0.1,0,0.1,0,0.2
			c0,0.3,0.2,0.7,0.4,0.9c0.2,0.2,0.5,0.2,0.7,0.1c0.4-0.2,0.6-0.5,0.8-0.9c0,0.4,0.2,0.7,0.5,0.9c0.8,0.4,1.2-0.3,1.6-0.9
			c0.1,0.2,0.4,0.4,0.7,0.3c0.8-0.3,0.5-0.9,1-0.1c0.4,0.6,1.5,0,1-0.6c-0.3-0.5-0.2-1-0.8-1.2c-0.4-0.1-0.7,0.2-1,0.4
			c0,0,0-0.1,0-0.1c-0.1-0.3-0.6-0.6-0.9-0.4c-0.5,0.4-0.6,0.7-0.9,1.3c-0.2,0.5,0.1-0.4,0.1-0.7c0-0.2,0.1-0.5,0.1-0.7
			c0-0.5-0.5-0.7-0.9-0.5c-0.6,0.3-0.9,0.9-1.2,1.4c0.1-0.4,0.2-0.9,0-1.2c-0.1-0.2-0.3-0.3-0.5-0.3c-0.9,0.1-1.6,1.5-2.2,2
			c0.1-1,0.7-2.1,1-2.8C28.7,28.9,27.6,28.3,27.3,29z"/>
	</g>
</g>
</svg>
