<?xml version="1.0" encoding="utf-8"?>
<!-- Generator: Adobe Illustrator 21.0.2, SVG Export Plug-In . SVG Version: 6.00 Build 0)  -->
<!DOCTYPE svg PUBLIC "-//W3C//DTD SVG 1.1//EN" "http://www.w3.org/Graphics/SVG/1.1/DTD/svg11.dtd">
<svg version="1.1" xmlns="http://www.w3.org/2000/svg" xmlns:xlink="http://www.w3.org/1999/xlink" x="0px" y="0px" width="64px"
	 height="64px" viewBox="0 0 64 64" style="enable-background:new 0 0 64 64;" xml:space="preserve">
<style type="text/css">
	.st0{fill:none;}
	.st1{fill:#FFFFFF;}
</style>
<g id="_x36_4px_Box">
	<rect class="st0" width="64" height="64"/>
</g>
<g id="Icon">
	<g>
		<path d="M19,29c2.4,0,12.3,0,14,0c3.3,0,6-2.7,6-6v-6c0-7.4-3.4-14-13-14S13,9.6,13,17v6C13,26.3,15.7,29,19,29z"/>
		<path d="M35.2,53.1C35.1,52.4,35,51.7,35,51c0-0.5,0-0.9,0.1-1.4L29,48.5v-7.6c4.5-0.3,7.8-1,10-1.9v-7.6c-2.6,0.3-7.6,0.7-13,0.7
			c-6.4,0-12.1-0.6-14.2-0.9c-0.5-0.1-0.8-0.4-0.9-0.9c-0.2-2.1-0.2-4.5-0.2-7.4c0-5.3-7.7-5.2-7.7-0.7V24c0,1.1,0.9,2,2,2h3
			c0.1,4.6,0.4,8,1.2,10.4l0,0c0.3,0.8,0.9,1.4,1.7,1.8c2.4,1.2,7.1,2.8,15,2.8c0.3,0,0.7,0,1,0c0,0.1,0,0.2-0.3,0.3
			c-0.4,0.2-1.8,0.7-3.7,1.2v6.1l-12.3,2.2c-1,0.2-1.7,1-1.7,2v0.7c-1.2,0.6-2,1.8-2,3.2c0,1.9,1.6,3.5,3.5,3.5s3.5-1.6,3.5-3.5
			c0-1.2-0.6-2.3-1.5-2.9l11.1-1.3l0.3,1.5c-0.8,0.6-1.3,1.6-1.3,2.7c0,1.9,1.6,3.5,3.5,3.5s3.5-1.6,3.5-3.5c0-1.1-0.5-2.1-1.3-2.7
			l0.3-1.5L35.2,53.1z"/>
		<path d="M55,42.5V9c0-3.8-3.1-7-7-7c-3.9,0-7,3.2-7,7v33.5c-2.5,2.1-4,5.2-4,8.5c0,6.1,4.9,11,11,11c5.5,0,10.1-4,10.9-9.3
			C59.5,48.8,58,45,55,42.5z M55.4,54.3c-1.1,2.7-3.6,4.3-6.3,4.7c-0.6,0.1-0.7-0.1-0.6-0.2c2.9-1.2,4.9-4,4.9-7.2
			c0-2.6-1.3-4.9-3.3-6.3V39h-3v-2h3v-5h-3v-2h3v-5h-3v-2h3v-4.8h-6V9c0-2.2,1.8-4,4-4h0c2.2,0,4,1.8,4,4v35.1
			C55.2,46,57,50,55.4,54.3z"/>
	</g>
</g>
</svg>
