<?xml version="1.0" encoding="utf-8"?>
<!-- Generator: Adobe Illustrator 17.1.0, SVG Export Plug-In . SVG Version: 6.00 Build 0)  -->
<svg version="1.2" baseProfile="tiny" xmlns="http://www.w3.org/2000/svg" xmlns:xlink="http://www.w3.org/1999/xlink" x="0px"
	 y="0px" width="64px" height="64px" viewBox="0 0 64 64" xml:space="preserve">
<g id="Box">
	<rect fill="none" width="64" height="64"/>
</g>
<g id="Icon">
	<g>
		<path d="M51.4141,22.4141L36.5859,7.5859C36.2109,7.2109,35.7021,7,35.1714,7H14c-1.1045,0-2,0.8955-2,2v46c0,1.1045,0.8955,2,2,2
			h36c1.1001,0,2-0.9004,2-2V23.8286C52,23.2979,51.7891,22.7891,51.4141,22.4141z M50.1484,24.3594L47,25.2918V52H17V12h16.7085
			l0.9316-3.1349C34.7491,8.5245,35,8.6341,35,8.6341V23c0,0.5522,0.4478,1,1,1h14.3669C50.3669,24,50.4895,24.2504,50.1484,24.3594
			z"/>
		<path d="M32,37.0924c-2.9663,0-5.5393,2.0013-6.8182,4.1382c-0.2592,0.4331,0.1926,0.9424,0.6416,0.7119
			c1.6573-0.851,3.8155-1.2935,6.1766-1.2935s4.5192,0.4425,6.1766,1.2935c0.449,0.2305,0.9008-0.2788,0.6416-0.7119
			C37.5393,39.0938,34.9663,37.0924,32,37.0924z"/>
		<circle cx="26.5" cy="30.5" r="2.5"/>
		<circle cx="37.5" cy="30.5" r="2.5"/>
	</g>
</g>
</svg>
