<?xml version="1.0" encoding="utf-8"?>
<!-- Generator: Adobe Illustrator 19.1.0, SVG Export Plug-In . SVG Version: 6.00 Build 0)  -->
<svg version="1.2" baseProfile="tiny" xmlns="http://www.w3.org/2000/svg" xmlns:xlink="http://www.w3.org/1999/xlink" x="0px"
	 y="0px" width="64px" height="64px" viewBox="0 0 64 64" xml:space="preserve">
<g id="Box">
	<rect fill="none" width="64" height="64"/>
</g>
<g id="Icon">
	<g>
		<path d="M51.4302,20.4561L36.61,5.6069C36.235,5.2319,35.7343,5,35.2036,5H14.0322C12.9277,5,12,5.9375,12,7.042v46
			C12,54.1465,12.9277,55,14.0322,55H32v-5H17V10h16.7407l0.9155-3.1139C34.7652,6.5455,35,6.6761,35,6.6761V21.042
			C35,21.5942,35.48,22,36.0322,22h14.3669c0,0,0.1065,0.2714-0.2346,0.3804L47,23.3338V50h-5v5h8.0322
			C51.1323,55,52,54.1416,52,53.042V21.8706C52,21.3399,51.8052,20.8311,51.4302,20.4561z"/>
		<path d="M37.0322,41.042c-2.7614,0-5.0161,2.2386-5.0161,5c0,1.6305,0.9839,3.0646,1.9839,3.9774v8.459
			c0,0.5012,0.6221,0.7521,0.9764,0.3978l1.65-1.6419c0.2197-0.2197,0.5799-0.2197,0.7996,0l1.6278,1.6419
			C39.4081,59.2305,40,58.9795,40,58.4783v-8.459c1-0.9127,2.0161-2.3469,2.0161-3.9774
			C42.0161,43.2806,39.7936,41.042,37.0322,41.042z M37.0322,48.042c-1.1028,0-2-0.8972-2-2s0.8972-2,2-2s2,0.8972,2,2
			S38.135,48.042,37.0322,48.042z"/>
		<rect x="21" y="28" width="22" height="3"/>
		<rect x="21" y="15" width="10" height="3"/>
		<rect x="21" y="20" width="10" height="3"/>
		<path d="M34.4152,32.9858c-0.6084,1.2807-1.5048,2.9172-1.1264,4.3739c0.0731,0.2812,0.3146,0.4071,0.5786,0.4405
			c0.5654,0.0715,1.4996-0.598,1.9819-1.221c-0.0024,0.0697-0.0029,0.1285,0.001,0.1542c0.045,0.2971,0.1851,0.6938,0.4298,0.8932
			c0.2119,0.1725,0.4779,0.2354,0.7271,0.0938c0.3677-0.209,0.6072-0.5484,0.8329-0.9049c0.0287,0.3635,0.1655,0.6782,0.5291,0.8548
			c0.7718,0.375,1.2123-0.2925,1.6194-0.8887c0.1473,0.2029,0.4105,0.3566,0.6694,0.2667c0.752-0.261,0.4911-0.8593,1.02-0.0912
			c0.4352,0.632,1.4756,0.0326,1.0361-0.6057c-0.314-0.456-0.2358-1.0122-0.8365-1.1573c-0.3995-0.0965-0.7214,0.1541-1.0331,0.3887
			c-0.0106-0.0436-0.0286-0.0851-0.038-0.129c-0.0886-0.3461-0.5667-0.5883-0.8814-0.3586
			c-0.5232,0.382-0.6096,0.7387-0.8904,1.2698c-0.2407,0.4549,0.1127-0.3915,0.1487-0.6559
			c0.0314-0.2302,0.0679-0.4543,0.0805-0.6867c0.0261-0.4824-0.5217-0.71-0.9028-0.5181c-0.5745,0.2892-0.8712,0.8544-1.197,1.3598
			c0.1007-0.4465,0.2014-0.9368-0.0027-1.2065c-0.1187-0.1569-0.2981-0.325-0.5181-0.2972
			c-0.8703,0.1102-1.5689,1.474-2.2316,2.0145c0.0853-0.9531,0.6918-2.0511,1.0397-2.7834
			C35.7811,32.8976,34.7468,32.288,34.4152,32.9858z"/>
		<path d="M22.3074,32.9858c-0.6084,1.2807-1.5048,2.9172-1.1264,4.3739c0.0731,0.2812,0.3146,0.4071,0.5786,0.4405
			c0.5654,0.0715,1.4996-0.598,1.9819-1.221c-0.0024,0.0697-0.0029,0.1285,0.001,0.1542c0.045,0.2971,0.1851,0.6938,0.4298,0.8932
			c0.2119,0.1725,0.4778,0.2354,0.7271,0.0938c0.3677-0.209,0.6073-0.5485,0.8329-0.905c0.0287,0.3635,0.1655,0.6782,0.5291,0.8549
			c0.7718,0.375,1.2123-0.2925,1.6194-0.8887c0.1473,0.2029,0.4105,0.3566,0.6694,0.2667c0.7521-0.261,0.4911-0.8593,1.0201-0.0912
			c0.4352,0.632,1.4756,0.0326,1.0361-0.6057c-0.314-0.456-0.2358-1.0122-0.8365-1.1573c-0.3995-0.0965-0.7213,0.1541-1.0331,0.3888
			c-0.0106-0.0436-0.0286-0.0851-0.038-0.1291c-0.0886-0.3461-0.5668-0.5883-0.8814-0.3586
			c-0.5233,0.382-0.6096,0.7387-0.8905,1.2698c-0.2406,0.4549,0.1127-0.3915,0.1488-0.6559
			c0.0314-0.2302,0.0679-0.4543,0.0804-0.6867c0.0261-0.4824-0.5216-0.71-0.9028-0.5181c-0.5745,0.2892-0.8712,0.8545-1.1969,1.3598
			c0.1007-0.4465,0.2014-0.9368-0.0027-1.2065c-0.1188-0.1569-0.2981-0.325-0.5181-0.2972
			c-0.8703,0.1102-1.5689,1.474-2.2316,2.0145c0.0853-0.9531,0.6918-2.0511,1.0397-2.7834
			C23.6733,32.8976,22.639,32.288,22.3074,32.9858z"/>
	</g>
</g>
</svg>
