<?xml version="1.0" encoding="utf-8"?>
<!-- Generator: Adobe Illustrator 25.0.0, SVG Export Plug-In . SVG Version: 6.00 Build 0)  -->
<svg version="1.1" xmlns="http://www.w3.org/2000/svg" xmlns:xlink="http://www.w3.org/1999/xlink" x="0px" y="0px"
	 viewBox="0 0 64 64" style="enable-background:new 0 0 64 64;" xml:space="preserve">
<style type="text/css">
	.st0{fill:none;}
	.st1{fill:#FFFFFF;}
	.st2{fill:#B3B3B3;}
</style>
<g id="Box">
	<rect class="st0" width="64" height="64"/>
</g>
<g id="Icon">
	<g>
		<path d="M7,50V23.292l-3.148-0.932C3.51,22.25,3.633,22,3.633,22H18c0.552,0,1-0.448,1-1V6.634c0,0,0.251-0.11,0.36,0.231
			L20.292,10H37v9.33c1.066-0.604,2.355-1.11,3.884-1.527c0.39-0.106,0.755-0.176,1.116-0.238V7c0-1.104-0.896-2-2-2H18.829
			c-0.531,0-1.04,0.211-1.415,0.586L2.586,20.414C2.211,20.789,2,21.298,2,21.829V53c0,1.1,0.9,2,2,2h19.736
			c0.396-1.76,0.941-3.578,1.665-5H7z"/>
		<path d="M59.952,49.849c-1.726-1.817-7.061-3.43-9.444-4.081c-1.113-0.304-1.285-1.433-1.404-2.585
			c1.514-1.691,2.637-3.734,3.018-6.432c1.448-0.446,1.738-2.254,1.738-3.381c0-1.127-0.199-1.736-0.603-1.925
			c-0.195-0.091-0.386-0.09-0.555-0.054c0.146-2.347,0.291-6.998-0.688-8.746c-1.07-1.911-2.492-2.406-4.97-1.782
			c-1.625-0.862-2.732-1.715-5.58-0.939c-1.979,0.539-4.144,1.42-5.285,2.89c-1.231,1.586-0.994,6.212-0.786,8.588
			c-0.183-0.05-0.398-0.059-0.617,0.043c-0.405,0.189-0.603,0.799-0.603,1.925c0,1.127,0.29,2.935,1.738,3.381
			c0.342,2.848,1.485,4.823,3.013,6.468c-0.106,0.986-0.211,1.937-1.076,2.404c-1.897,0.513-7.857,2.244-9.739,4.225
			C25.871,52.205,25,61,25,61h38.031C63.031,61,62.19,52.205,59.952,49.849z"/>
		<path d="M28.12,25.457l-7.222,8.131l-4.761-4.195c-0.61-0.529-1.513-0.538-2.133-0.023c-0.621,0.515-0.779,1.404-0.371,2.101
			c0,0,2.612,3.989,5.989,8.951c0.328,0.482,0.833,0.815,1.416,0.818c0.002,0,0.006,0,0.008,0c0.58,0,1.106-0.313,1.416-0.803
			c5.215-8.243,8.304-13.034,8.304-13.034c0.437-0.73,0.246-1.672-0.439-2.175C29.643,24.724,28.687,24.824,28.12,25.457z"/>
	</g>
</g>
</svg>
