<?xml version="1.0" encoding="utf-8"?>
<!-- Generator: Adobe Illustrator 19.1.0, SVG Export Plug-In . SVG Version: 6.00 Build 0)  -->
<svg version="1.2" baseProfile="tiny" xmlns="http://www.w3.org/2000/svg" xmlns:xlink="http://www.w3.org/1999/xlink" x="0px"
	 y="0px" width="64px" height="64px" viewBox="0 0 64 64" xml:space="preserve">
<g id="Box">
	<rect fill="none" width="64" height="64"/>
</g>
<g id="Icon">
	<g>
		<rect x="20" y="15" width="24" height="5"/>
		<rect x="20" y="41" width="24" height="3"/>
		<rect x="20" y="46" width="18" height="3"/>
		<rect x="20" y="24" width="10" height="3"/>
		<rect x="20" y="29" width="10" height="3"/>
		<rect x="20" y="34" width="10" height="3"/>
		<rect x="33" y="24" width="11" height="13"/>
		<path d="M50,7H14c-1.1045,0-2,0.8955-2,2v46c0,1.1045,0.8955,2,2,2h36c1.1045,0,2-0.8955,2-2V9C52,7.8955,51.1045,7,50,7z M47,52
			H17V12h30V52z"/>
	</g>
</g>
</svg>
