<?xml version="1.0" encoding="utf-8"?>
<!-- Generator: Adobe Illustrator 18.1.0, SVG Export Plug-In . SVG Version: 6.00 Build 0)  -->
<svg version="1.2" baseProfile="tiny" xmlns="http://www.w3.org/2000/svg" xmlns:xlink="http://www.w3.org/1999/xlink" x="0px"
	 y="0px" width="64px" height="64px" viewBox="0 0 64 64" xml:space="preserve">
<g id="Box">
	<rect fill="none" width="64" height="64"/>
</g>
<g id="Icon">
	<g>
		<polygon points="9,48.6047 9,57 20,57 20,44.0735 15.8442,40.1655 		"/>
		<polygon points="20,32.544 20,21 9,21 9,35.2692 15.0132,27.855 		"/>
		<polygon points="24,47.8351 24,57 35,57 35,36.2142 25.583,49.3237 		"/>
		<polygon points="35,21.9794 35,15 24,15 24,36.3052 24.417,36.6973 		"/>
		<polygon points="39,30.6458 39,57 50,57 50,42.6196 39.4229,30.0571 		"/>
		<polygon points="50,29.429 50,4 39,4 39.0176,16.3921 		"/>
		<polygon points="54.2964,37.9824 39.1248,19.9707 24.7231,40.0044 15.231,31.0791 4,44.9271 4,51.277 15.6265,36.9414 
			25.2769,46.0161 39.3152,26.4785 54.7036,44.7529 60,36.5004 60,29.0952 		"/>
	</g>
</g>
</svg>
