<?xml version="1.0" encoding="utf-8"?>
<!-- Generator: Adobe Illustrator 17.1.0, SVG Export Plug-In . SVG Version: 6.00 Build 0)  -->
<svg version="1.2" baseProfile="tiny" xmlns="http://www.w3.org/2000/svg" xmlns:xlink="http://www.w3.org/1999/xlink" x="0px"
	 y="0px" width="64px" height="64px" viewBox="0 0 64 64" xml:space="preserve">
<g id="_x36_4px_Boxes">
	<rect fill="none" width="64" height="64"/>
</g>
<g id="Label">
</g>
<g id="Production">
	<g>
		<circle cx="48" cy="56" r="2"/>
		<circle cx="41" cy="51" r="2"/>
		<circle cx="32.5" cy="56.5" r="2.5"/>
		<path d="M57.3621,19.2091L44.1418,5.9888c-0.7811-0.7811-2.0474-0.7811-2.8284,0L6.0825,41.1582
			c-2.7026,2.7021-2.7026,7.1001,0,9.8032l3.9902,3.9902c1.3091,1.3096,3.0498,2.0308,4.9019,2.0308h4.6328
			c1.8525,0,3.5933-0.7212,4.9019-2.0308l32.8528-32.9141C58.1431,21.2565,58.1431,19.9902,57.3621,19.2091z M21.6807,52.1235
			c-0.5532,0.5537-1.2896,0.8589-2.0732,0.8589h-4.6328c-0.7832,0-1.5195-0.3052-2.0732-0.8589l-3.9902-3.9902
			c-1.1436-1.1436-1.1436-3.0039-0.0005-4.147l13.243-13.2429L32.6072,41.197L21.6807,52.1235z"/>
	</g>
</g>
</svg>
