<?xml version="1.0" encoding="utf-8"?>
<!-- Generator: Adobe Illustrator 18.1.1, SVG Export Plug-In . SVG Version: 6.00 Build 0)  -->
<svg version="1.2" baseProfile="tiny" xmlns="http://www.w3.org/2000/svg" xmlns:xlink="http://www.w3.org/1999/xlink" x="0px"
	 y="0px" width="64px" height="64px" viewBox="0 0 64 64" xml:space="preserve">
<g id="Box">
	<rect fill="none" width="64" height="64"/>
</g>
<g id="Icon">
	<g>
		<rect x="12" y="30" width="22" height="3"/>
		<rect x="12" y="42" width="16" height="3"/>
		<rect x="12" y="24" width="22" height="3"/>
		<path d="M16.3752,15c9.8116,0,3.321,0,13.2495,0c1.451,0,2.7107-0.9668,2.9965-2.3259c0.3402-1.6202,0.3302-3.0484,0.3473-4.5155
			c0.0087-0.7534-0.5295-1.4024-1.2729-1.5262l-1.8252-0.3042c-0.9434,1.7096-1.9902,2.7044-2.2793,2.938
			c-0.6104,0.4933-0.9492,0.5424-1.1353,0.3608c0.0105-0.0158,0.0171-0.0322,0.0271-0.048C27.4163,8.6707,28,7.4053,28,6
			c0-2.7614-2.2385-5-5-5s-5,2.2386-5,5c0,0.0056,0.0017,0.0106,0.0017,0.0162l-3.6973,0.6161
			c-0.7432,0.1238-1.2815,0.7728-1.2728,1.5262c0.017,1.4671,0.007,2.8953,0.3473,4.5155C13.6646,14.0332,14.9243,15,16.3752,15z
			 M23,3.745c1.2455,0,2.255,1.0096,2.255,2.255S24.2455,8.2549,23,8.2549c-1.2454,0-2.255-1.0095-2.255-2.2549
			S21.7546,3.745,23,3.745z"/>
		<path d="M60.4351,38.826c-0.1951-1.1728-1.0874-2.0651-2.2607-2.2606C54.7827,36,49.1301,36,48,36s-6.7828,0-10.1742,0.5654
			c-1.1735,0.1955-2.0658,1.0878-2.2607,2.2606C35,42.2173,35,47.8696,35,49s0,6.7827,0.5651,10.174
			c0.1949,1.1728,1.0873,2.0651,2.2607,2.2606C41.2172,62,46.8699,62,48,62s6.7827,0,10.1743-0.5654
			c1.1733-0.1955,2.0657-1.0878,2.2607-2.2606C61,55.7827,61,50.1304,61,49C61,45.607,61,42.2173,60.4351,38.826z M57,51.5
			c0,0.2761-0.2239,0.5-0.5,0.5H51v5.5c0,0.2761-0.2239,0.5-0.5,0.5h-5c-0.2761,0-0.5-0.2239-0.5-0.5V52h-5.5
			c-0.2761,0-0.5-0.2239-0.5-0.5v-5c0-0.2761,0.2239-0.5,0.5-0.5H45v-5.5c0-0.2761,0.2239-0.5,0.5-0.5h5
			c0.2761,0,0.5,0.2239,0.5,0.5V46h5.5c0.2761,0,0.5,0.2239,0.5,0.5V51.5z"/>
		<path d="M8,54V14h3.5999c-0.5751-1.3196-0.6603-3.5831-0.6794-5H5c-1.1045,0-2,0.8955-2,2v46c0,1.1045,0.8955,2,2,2h27.5107
			c-0.2083-1.489-0.337-3.2365-0.4116-5H8z"/>
		<path d="M12,39h20.5107c0.1396-1,0.27-1.8742,1.0535-3H12V39z"/>
		<path d="M38,33.5109c1.489-0.2083,3.2366-0.3372,5-0.4117V11c0-1.1045-0.8955-2-2-2h-5.9203
			c-0.0192,1.4146-0.1031,3.6781-0.6796,5H38V33.5109z"/>
	</g>
</g>
</svg>
