<?xml version="1.0" encoding="utf-8"?>
<!-- Generator: Adobe Illustrator 25.2.0, SVG Export Plug-In . SVG Version: 6.00 Build 0)  -->
<svg version="1.1" xmlns="http://www.w3.org/2000/svg" xmlns:xlink="http://www.w3.org/1999/xlink" x="0px" y="0px"
	 viewBox="0 0 64 64" style="enable-background:new 0 0 64 64;" xml:space="preserve">
<style type="text/css">
	.st0{fill:none;}
	.st1{fill:#B3B3B3;}
</style>
<g id="Box">
	<rect class="st0" width="64" height="64"/>
</g>
<g id="Icon">
	<g>
		<path d="M21.375,15c9.812,0,3.321,0,13.25,0c1.451,0,2.711-0.967,2.996-2.326c0.34-1.62,0.33-3.048,0.347-4.516
			c0.009-0.753-0.53-1.402-1.273-1.526L34.87,6.328c-0.943,1.71-1.99,2.704-2.279,2.938c-0.61,0.493-0.949,0.542-1.135,0.361
			c0.01-0.016,0.017-0.032,0.027-0.048C32.416,8.671,33,7.405,33,6c0-2.761-2.239-5-5-5s-5,2.239-5,5
			c0,0.006,0.002,0.011,0.002,0.016l-3.697,0.616c-0.743,0.124-1.281,0.773-1.273,1.526c0.017,1.467,0.007,2.895,0.347,4.516
			C18.665,14.033,19.924,15,21.375,15z M28,3.745c1.246,0,2.255,1.01,2.255,2.255c0,1.245-1.009,2.255-2.255,2.255
			c-1.245,0-2.255-1.01-2.255-2.255C25.745,4.755,26.755,3.745,28,3.745z"/>
		<path d="M34.044,26.744c1.176-1.176,2.541-2.093,4.02-2.744H17v3h16.812C33.892,26.916,33.962,26.826,34.044,26.744z"/>
		<path d="M43,49.177V54h-5.901H18.901H13V14h3.6c-0.575-1.32-0.66-3.583-0.679-5H10c-1.104,0-2,0.896-2,2v46c0,1.104,0.896,2,2,2
			h8.489h19.021H46c1.104,0,2-0.896,2-2v-8.621c-1.455,0.531-2.994,0.818-4.567,0.818C43.288,49.197,43.145,49.182,43,49.177z"/>
		<path d="M43,22.894c0.134-0.004,0.265-0.019,0.4-0.019c1.599,0,3.148,0.294,4.6,0.83V11c0-1.104-0.896-2-2-2h-5.92
			c-0.019,1.417-0.104,3.68-0.679,5H43V22.894z"/>
		<path d="M31.661,30H17v3h13.553C30.802,31.956,31.168,30.948,31.661,30z"/>
		<path d="M33,44.264c-0.558-0.709-1.036-1.467-1.433-2.264H17v3h16V44.264z"/>
		<path d="M30.175,36.1c0-0.034,0.005-0.066,0.005-0.1H17v3h13.503C30.293,38.058,30.175,37.089,30.175,36.1z"/>
		<path d="M60.9,49.3L52.7,42c2.7-4.3,2.3-10-1.5-13.7c-4.3-4.3-11.3-4.3-15.6,0c-4.3,4.3-4.3,11.3,0,15.6c3.9,3.6,9.6,4.1,13.9,1.3
			l7.4,8.2c1,1.1,2.7,0.9,3.8-0.2C61.9,52,62.1,50.4,60.9,49.3z M48.5,41c-2.8,2.8-7.3,2.8-10,0c-2.8-2.8-2.8-7.3,0-10
			c2.8-2.8,7.3-2.8,10,0C51.3,33.8,51.3,38.2,48.5,41z"/>
	</g>
</g>
</svg>
