<?xml version="1.0" encoding="utf-8"?>
<!-- Generator: Adobe Illustrator 19.1.0, SVG Export Plug-In . SVG Version: 6.00 Build 0)  -->
<svg version="1.2" baseProfile="tiny" xmlns="http://www.w3.org/2000/svg" xmlns:xlink="http://www.w3.org/1999/xlink" x="0px"
	 y="0px" width="64px" height="64px" viewBox="0 0 64 64" xml:space="preserve">
<g id="_x36_4px_Box">
	<rect fill="none" width="64" height="64"/>
</g>
<g id="Icon">
	<g>
		<path d="M14,21h36c1.6569,0,3-1.3431,3-3v-7c0-1.6569-1.3431-3-3-3H14c-1.6569,0-3,1.3431-3,3v7C11,19.6569,12.3431,21,14,21z
			 M16,13.8c1.2151,0,2.2,0.9849,2.2,2.2s-0.9849,2.2-2.2,2.2s-2.2-0.9849-2.2-2.2S14.7849,13.8,16,13.8z"/>
		<path d="M14,36h23.7578l5.8281-5.8281C44.3408,29.416,45.3457,29,46.4141,29H53v-3c0-1.6569-1.3431-3-3-3H14
			c-1.6569,0-3,1.3431-3,3v7C11,34.6569,12.3431,36,14,36z M16,28.8c1.2151,0,2.2,0.9849,2.2,2.2s-0.9849,2.2-2.2,2.2
			s-2.2-0.9849-2.2-2.2S14.7849,28.8,16,28.8z"/>
		<path d="M11,41v7c0,1.6569,1.3431,3,3,3h20v-9.5859c0-1.0684,0.416-2.0728,1.1719-2.8281L35.7578,38H14
			C12.3431,38,11,39.3431,11,41z M16,43.8c1.2151,0,2.2,0.9849,2.2,2.2s-0.9849,2.2-2.2,2.2s-2.2-0.9849-2.2-2.2
			S14.7849,43.8,16,43.8z"/>
		<path d="M58,32H46.4141c-0.2653,0-0.5196,0.1053-0.7072,0.2929l-8.414,8.4142C37.1053,40.8947,37,41.149,37,41.4142V58
			c0,0.5523,0.4477,1,1,1h20c0.5523,0,1-0.4477,1-1V33C59,32.4477,58.5523,32,58,32z M56,56H40V41.9999h5.9996
			c0.5523,0,1-0.4477,1-0.9999L47,35h9V56z"/>
	</g>
</g>
</svg>
