<?xml version="1.0" encoding="utf-8"?>
<!-- Generator: Adobe Illustrator 18.1.1, SVG Export Plug-In . SVG Version: 6.00 Build 0)  -->
<svg version="1.2" baseProfile="tiny" xmlns="http://www.w3.org/2000/svg" xmlns:xlink="http://www.w3.org/1999/xlink" x="0px"
	 y="0px" width="64px" height="64px" viewBox="0 0 64 64" xml:space="preserve">
<g id="Box">
	<rect fill="none" width="64" height="64"/>
</g>
<g id="Icon">
	<g>
		<path d="M60.1223,48.492L56,47.6099v-2.9923l1.4254,0.1127c1.5237,0.127,2.9249-0.8346,3.3445-2.3049
			c1.0916-3.8243,2.9677-10.8287,2.5903-12.554c-0.4398-2.0101-7.2867-3.8318-8.4803-2.1986
			c-0.5546,0.759-1.3939,3.5663-2.1338,6.3544c-0.0978,0.0189-0.2589-0.0183-0.3086-0.4334
			c-0.147-1.2281,0.1875-3.8021,0.6458-5.9271c0.2675-1.2398,0.7917-2.7916,3.7736-2.6256c0.1542,0.0086,0.3185,0.022,0.4875,0.0385
			c0.2523-1.3693,0.3765-2.4855,0.257-3.032c-0.4132-1.8889-6.8472-3.6006-7.9686-2.066c-0.3495,0.4783-0.8194,1.8223-1.3007,3.4457
			l0.0011-0.0106c-0.074,0.0337-0.3158,0.0691-0.3383-0.3971c-0.0407-0.8422,0.0703-2.2537,0.4216-3.5195
			c0.3193-1.1505,0.75-2.0834,3.1085-2.0123c0.0483,0.0015,0.1027,0.0064,0.1525,0.0088c0.1358-0.9009,0.1855-1.6205,0.0982-2.0197
			c-0.3924-1.7939-6.5027-3.3496-7.5679-1.892c-0.3979,0.5445-0.96,2.2004-1.5082,4.1488
			c3.5965,4.3864,10.0975,16.3964,7.2274,22.7635c-0.5903,1.3098-1.4908,2.4343-2.6756,3.3854L53,44.3506v3.2593l-4.1791,0.8821
			c-0.7501,0.1486-1.2905,0.8066-1.2905,1.5713v0.9269l6.9413-1.2133l6.9412,1.2133v-0.9269
			C61.4128,49.2987,60.8724,48.6407,60.1223,48.492z"/>
		<path d="M16.7015,43.8864c-1.1873-0.952-2.0894-2.0776-2.6805-3.3893c-2.8806-6.3901,3.6778-18.4633,7.266-22.8098
			c-0.544-1.9293-1.1003-3.5624-1.495-4.1025c-1.0651-1.4575-7.1755,0.0982-7.5679,1.892
			c-0.0873,0.3992-0.0376,1.1188,0.0982,2.0197c0.0499-0.0024,0.1042-0.0073,0.1525-0.0088
			c2.3585-0.071,2.7892,0.8618,3.1085,2.0123c0.3513,1.2659,0.4623,2.6774,0.4216,3.5195
			c-0.0225,0.4662-0.2642,0.4308-0.3383,0.3971l0.0011,0.0106c-0.4813-1.6234-0.9512-2.9675-1.3007-3.4457
			c-1.1215-1.5347-7.5554,0.1771-7.9686,2.066c-0.1195,0.5464,0.0047,1.6627,0.257,3.032c0.1691-0.0164,0.3333-0.0298,0.4875-0.0385
			c2.9819-0.166,3.5062,1.3858,3.7736,2.6256c0.4583,2.125,0.7928,4.699,0.6458,5.9271c-0.0497,0.4151-0.2108,0.4523-0.3086,0.4334
			c-0.7399-2.788-1.5792-5.5954-2.1338-6.3544c-1.1935-1.6332-8.0405,0.1885-8.4803,2.1986
			c-0.3774,1.7253,1.4988,8.7297,2.5903,12.554c0.4196,1.4703,1.8207,2.4319,3.3445,2.3049L8,44.6176v2.9923L3.8777,48.492
			c-0.7501,0.1486-1.2905,0.8066-1.2905,1.5713v0.9269l6.9413-1.2133l6.9412,1.2133v-0.9269c0-0.7646-0.5405-1.4227-1.2905-1.5713
			L11,47.6099v-3.2593L16.7015,43.8864z"/>
		<path d="M47.9927,39.6248c2.6231-5.8195-5.2573-19.4209-7.8859-21.5641C38.1942,16.5013,35.6709,16,31.9741,16
			c-3.6967,0-6.2199,0.5013-8.1325,2.0607c-2.6287,2.1432-10.509,15.7446-7.8859,21.5641
			c2.2614,5.017,10.1913,5.8851,16.0184,5.8851c1.0052,0,2.0749-0.0288,3.1653-0.0973c0.0709,0.1196,0.0734,0.3268-0.4445,0.5399
			C33.1746,46.5779,29.3455,47.4361,25.011,47c0,1.8584,0,3.6687,0,4.5346c0,1.6869,3.6804,2.4099,6.9628,2.4099
			c3.2825,0,6.9629-0.723,6.9629-2.4099c0-1.1537,0-4.5317,0-6.553C42.9084,44.2919,46.571,42.7789,47.9927,39.6248z
			 M40.7444,34.2714c-1.3943,3.1526-8.7703,2.8862-8.7703,2.8862s-7.3762,0.2664-8.7704-2.8862
			c-1.3942-3.1526,2.8785-10.7455,4.3177-11.9c1.0472-0.84,2.4287-1.1101,4.4528-1.1101c2.0239,0,3.4054,0.2701,4.4526,1.1101
			C37.8659,23.5259,42.1386,31.1188,40.7444,34.2714z"/>
	</g>
</g>
</svg>
