<?xml version="1.0" encoding="utf-8"?>
<!-- Generator: Adobe Illustrator 19.1.0, SVG Export Plug-In . SVG Version: 6.00 Build 0)  -->
<svg version="1.2" baseProfile="tiny" xmlns="http://www.w3.org/2000/svg" xmlns:xlink="http://www.w3.org/1999/xlink" x="0px"
	 y="0px" width="64px" height="64px" viewBox="0 0 64 64" xml:space="preserve">
<g id="_x36_4px_Box">
	<rect fill="none" width="64" height="64"/>
</g>
<g id="Icon">
	<g>
		<path d="M32.4481,36.7838c0,0.7993,0.6165,1.3016,1.6893,1.3016c0.8905,0,1.5752-0.1829,2.3516-0.5935v-2.1233
			c-0.4335-0.0229-1.0275-0.0459-1.484-0.0459C33.1557,35.3227,32.4481,35.9167,32.4481,36.7838z"/>
		<path d="M54.8868,4c0,0-26.8329,0-33.8868,0C14.0662,4,7,6.6875,7,13.9661c0,13.929,0,25.3256,0,39.1923
			C7,57.2436,9.1243,60,13,60c20.0839,0,13.5797,0,33.8831,0C48.0522,60,49,59.0539,49,57.8868V16.1132
			C49,14.9461,48.0522,14,46.8831,14c-10.9956,0-21.9893,0-33.002,0c-0.912,0-1.3414-0.8251-1.0179-1.7457
			C13.875,9.375,19.125,9,21,9c1.1094,0,31,0,31,0v42h3c1.1046,0,2-0.8954,2-2V6.1132C57,4.9461,56.0539,4,54.8868,4z
			 M33.9779,30.9171c-1.0958,0-2.0092,0.1824-3.2191,0.6847l-0.3653-2.1687c1.3928-0.5935,2.6027-0.8676,4.0638-0.8676
			c3.0363,0,4.5427,1.4382,4.5427,3.9721v7.4653h-2.4199v-0.7305c-0.9359,0.5935-1.8492,0.8676-3.1962,0.8676
			c-2.3057,0-3.5839-1.2558-3.5839-3.1504c0-2.0775,1.5981-3.5386,5.1367-3.5386c0.5706,0,1.0729,0.0229,1.5522,0.0229v-0.6393
			C36.489,31.6017,35.7584,30.9171,33.9779,30.9171z M20.4817,25h4.1386l4.4132,15h-3.1325l-0.9603-3.4299h-5.1219L18.8586,40
			h-2.8355L20.4817,25z"/>
		<polygon points="22.4711,27.4237 22.3109,27.4237 20.3673,34.3749 24.3463,34.3749 		"/>
	</g>
</g>
</svg>
