<svg height="64" viewBox="0 0 64 64" width="64" xmlns="http://www.w3.org/2000/svg"><path d="m0 0h64v64h-64z" fill="none"/><path d="m50 7h-21.1714c-.5307 0-1.0395.2109-1.4145.5859l-14.8282 14.8282c-.375.375-.5859.8838-.5859 1.4145v31.1714c0 1.0996.8999 2 2 2h36c1.1045 0 2-.8955 2-2v-46c0-1.1045-.8955-2-2-2zm-3 45h-30v-26.7082l-3.1484-.9324c-.3412-.109-.2185-.3594-.2185-.3594h14.3669c.5522 0 1-.4478 1-1v-14.3659s.2509-.1096.3599.231l.9316 3.1349h16.7085z"/><path d="m24.6469 33.5062c0 2.441 1.1777 4.2649 2.5417 6.3768 1.3251 2.0513 2.8268 4.6313 3.7619 8.2283.1243.4775.5558.8111 1.0496.8111s.9252-.3336 1.0496-.8111c.9351-3.5969 2.4368-6.177 3.7619-8.2283 1.364-2.1119 2.5417-3.9359 2.5417-6.3768 0-4.1946-3.1612-7.3576-7.3531-7.3576s-7.3533 3.1629-7.3533 7.3576zm7.3531-3.7503c2.0495 0 3.7109 1.6614 3.7109 3.7109s-1.6614 3.7109-3.7109 3.7109-3.7109-1.6614-3.7109-3.7109 1.6614-3.7109 3.7109-3.7109z"/></svg>