<svg height="64" viewBox="0 0 64 64" width="64" xmlns="http://www.w3.org/2000/svg"><path d="m0 0h64v64h-64z" fill="none"/><path d="m43.0322 18.4792-14.607 9.1357c-.3448.2156-.6323.5115-.838.8622l-8.7842 14.977c-.8132 1.3866.7784 2.9337 2.1414 2.0812l14.6305-9.1503c.3448-.2156.6323-.5115.838-.8622l8.7702-14.9532c.8168-1.3927-.782-2.9465-2.1509-2.0904zm-11.0322 16.6738c-1.7414 0-3.153-1.4116-3.153-3.153s1.4116-3.153 3.153-3.153 3.153 1.4116 3.153 3.153-1.4116 3.153-3.153 3.153z"/><path d="m32 3c-15.9907 0-29 13.0093-29 29s13.0093 29 29 29 29-13.0093 29-29-13.0093-29-29-29zm1 50.1595v-5.1595h-2v5.1595c-10.9126-.51-19.6495-9.2469-20.1595-20.1595h5.1595v-2h-5.1595c.51-10.9126 9.2469-19.6495 20.1595-20.1595v5.1595h2v-5.1595c10.9126.51 19.6495 9.2469 20.1595 20.1595h-5.1595v2h5.1595c-.51 10.9126-9.2469 19.6495-20.1595 20.1595z"/></svg>