<svg height="64" viewBox="0 0 64 64" width="64" xmlns="http://www.w3.org/2000/svg"><path d="m0 0h64v64h-64z" fill="none"/><path d="m32 4c-10.2401 0-17.9623 7.7265-17.9623 17.9731 0 5.9628 2.8771 10.4182 6.2089 15.5772 3.2369 5.0109 6.9053 11.6818 9.1895 20.4683.3038 1.1666 1.3579 1.9814 2.5639 1.9814s2.2601-.8148 2.5638-1.9813c2.2842-8.7866 5.9526-15.4574 9.1895-20.4683 3.3318-5.159 6.2089-9.6144 6.2089-15.5772.0001-10.2467-7.7221-17.9732-17.9622-17.9732zm12.576 19.2128c-4.6109 9.2559-17.9202 10.1314-21.3591 3.4576-.735-1.4266-.7183-2.9211-.2518-4.2616-2.9263-3.4672-2.3492-8.4221-2.2078-9.1064.1876-.9075 1.0135-1.1671 1.9209-.9794s1.5624.7534 1.3652 1.6588c-1.3352 6.1304 1.6993 9.5187 7.6426 11.7902.1002-.0398.1402-.2184-.1245-.3805-.2372-.1452-4.6157-2.9377-5.572-6.7116.4633-.2798.9432-.4882 1.4182-.6067 4.9997-1.2478 5.9422 2.8254 9.1719 4.6943 2.0129 1.1649 5.0042 1.2828 7.6667.0942.2206-.0985.4374.1348.3297.3511z"/></svg>