<svg height="64" viewBox="0 0 64 64" width="64" xmlns="http://www.w3.org/2000/svg"><path d="m0 0h64v64h-64z" fill="none"/><path d="m32 4c-10.2401 0-17.9623 7.7265-17.9623 17.9731 0 5.9628 2.8771 10.4182 6.2089 15.5772 3.2369 5.0109 6.9053 11.6818 9.1895 20.4683.3038 1.1666 1.3579 1.9814 2.5639 1.9814s2.2601-.8148 2.5638-1.9813c2.2842-8.7866 5.9526-15.4574 9.1895-20.4683 3.3318-5.159 6.2089-9.6144 6.2089-15.5772.0001-10.2467-7.7221-17.9732-17.9622-17.9732zm10.5588 14.3419-10.3463 13.6597c-.3605.4759-1.0549.532-1.4871.1201l-8.8046-8.392c-.3997-.381-.415-1.0139-.0341-1.4137l2.0477-2.1491c.381-.3999 1.014-.4152 1.4139-.0341l5.5877 5.3251 7.6619-10.116c.3335-.4403.9607-.5269 1.4009-.1934l2.3667 1.7925c.4402.3334.5268.9606.1933 1.4009z"/></svg>