<svg height="64" viewBox="0 0 64 64" width="64" xmlns="http://www.w3.org/2000/svg"><path d="m0 0h64v64h-64z" fill="none"/><path d="m58.7165 14.5748-3.1406-4.711c-.3562-.5341-1.0188-.8638-1.7365-.8638h-24.3242c-.0209-.0562-.0673-.2623.2499-.3641.1971-.0632 2.5091-.5176 4.2349-.8532v-3.1263c0-1.1638-1.567-1.4536-3.5-1.4536s-3.5.2898-3.5 1.4536v4.3436h-5c-.5523 0-1 .4477-1 1v10c0 .5523.4477 1 1 1h31.8394c.7177 0 1.3804-.3297 1.7365-.8638l3.1406-4.711c.1717-.2575.1717-.5929 0-.8504z"/><path d="m41 23h-31.8394c-.7177 0-1.3804.3297-1.7365.8638l-3.1406 4.711c-.1717.2575-.1717.593 0 .8505l3.1406 4.711c.3562.534 1.0188.8637 1.7365.8637h17.8394 4.4848c.0209.0562.0673.2623-.2499.3641-.1971.0632-2.5092.5176-4.2349.8532v26.7827h7v-28h7c.5523 0 1-.4477 1-1v-10c0-.5523-.4477-1-1-1z"/></svg>