<svg height="64" viewBox="0 0 64 64" width="64" xmlns="http://www.w3.org/2000/svg"><path d="m0 0h64v64h-64z" fill="none"/><path d="m15.2541 48c-3.4243 0-6.21-2.7856-6.21-6.21 0-2.2349 1.2085-4.3062 3.1538-5.4058l15.5779-8.8301c2.6055-1.4721 4.2242-4.246 4.2242-7.2387 0-4.5849-3.7305-8.3154-8.3154-8.3154h-7.9892c-.8245-2.3289-3.0399-4-5.6512-4-3.3137 0-6 2.6863-6 6s2.6863 6 6 6c2.6113 0 4.8267-1.6711 5.6512-4h7.9892c2.3794 0 4.3154 1.936 4.3154 4.3154 0 1.5532-.8398 2.9922-2.1924 3.7563l-15.5779 8.8301c-3.1988 1.8082-5.1856 5.2139-5.1856 8.8882 0 5.6299 4.5801 10.21 10.21 10.21h27.4699c-.5651-1.4412-1.181-2.7679-1.8296-4zm-5.2541-31c-1.6569 0-3-1.3431-3-3s1.3431-3 3-3 3 1.3431 3 3-1.3431 3-3 3z"/><path d="m48 20c-6.841 0-12 5.1619-12 12.0073 0 3.9836 1.9221 6.9601 4.1479 10.4067 2.1625 3.3476 4.6132 7.3924 6.1392 13.2624.203.7793.9072 1.3236 1.7129 1.3236s1.5099-.5443 1.7128-1.3237c1.5261-5.87 3.9767-9.9148 6.1392-13.2624 2.2259-3.4466 4.148-6.4231 4.148-10.4066 0-6.8454-5.1589-12.0073-12-12.0073zm0 19.2036c-3.9784 0-7.2036-3.2252-7.2036-7.2036 0-3.9785 3.2252-7.2036 7.2036-7.2036 3.9785 0 7.2036 3.2251 7.2036 7.2036s-3.2251 7.2036-7.2036 7.2036z"/><circle cx="48" cy="32" r="4"/></svg>