<?xml version="1.0" encoding="utf-8"?>
<!-- Generator: Adobe Illustrator 19.1.0, SVG Export Plug-In . SVG Version: 6.00 Build 0)  -->
<svg version="1.2" baseProfile="tiny" xmlns="http://www.w3.org/2000/svg" xmlns:xlink="http://www.w3.org/1999/xlink" x="0px"
	 y="0px" width="64px" height="64px" viewBox="0 0 64 64" xml:space="preserve">
<g id="Box">
	<rect fill="none" width="64" height="64"/>
</g>
<g id="Icon">
	<g>
		<path d="M9.0441,41.79c0-2.2349,1.2085-4.3062,3.1538-5.4058l15.5779-8.8301C30.3813,26.082,32,23.3081,32,20.3154
			C32,15.7305,28.2695,12,23.6846,12h-7.9892c-0.8245-2.3289-3.0399-4-5.6512-4c-3.3137,0-6,2.6863-6,6s2.6863,6,6,6
			c2.6113,0,4.8267-1.6711,5.6512-4h7.9892C26.064,16,28,17.936,28,20.3154c0,1.5532-0.8398,2.9922-2.1924,3.7563l-15.5779,8.8301
			C7.0309,34.71,5.0441,38.1157,5.0441,41.79c0,5.6299,4.5801,10.21,10.21,10.21h21.6551l0.8423-4H15.2541
			C11.8298,48,9.0441,45.2144,9.0441,41.79z M10,17c-1.6569,0-3-1.3431-3-3s1.3431-3,3-3s3,1.3431,3,3S11.6569,17,10,17z"/>
		<path d="M61.35,38.6136c-2.6192-0.5928-5.7603-1.0969-8.6824-1.434c-1.3033-2.672-2.4805-5.0769-3.6896-7.5596
			c-0.2006-0.4117-0.5516-0.6199-0.9576-0.6199c-0.4061,0.0001-0.7571,0.2083-0.9576,0.6199
			c-1.2091,2.4827-2.3862,4.8876-3.6896,7.5596c-2.9222,0.3372-6.0632,0.8412-8.6825,1.434
			c-0.8904,0.2107-1.214,1.4129-0.6155,2.0793c1.7964,1.9831,3.942,4.2501,6.1111,6.4296
			c-0.6516,3.0613-1.2754,6.0729-1.8416,8.7216c-0.1465,0.8965,0.8865,1.536,1.7496,1.1323c2.6135-1.175,5.4505-2.584,7.9261-4.2247
			c2.4756,1.6406,5.3127,3.0497,7.9261,4.2247c0.863,0.4037,1.8961-0.2358,1.7496-1.1323c-0.5663-2.6487-1.19-5.6603-1.8416-8.7216
			c2.1691-2.1796,4.3147-4.4465,6.1111-6.4296C62.5641,40.0265,62.2405,38.8243,61.35,38.6136z"/>
	</g>
</g>
</svg>
