<?xml version="1.0" encoding="utf-8"?>
<!-- Generator: Adobe Illustrator 19.1.0, SVG Export Plug-In . SVG Version: 6.00 Build 0)  -->
<svg version="1.2" baseProfile="tiny" xmlns="http://www.w3.org/2000/svg" xmlns:xlink="http://www.w3.org/1999/xlink" x="0px"
	 y="0px" width="64px" height="64px" viewBox="0 0 64 64" xml:space="preserve">
<g id="Box">
	<rect fill="none" width="64" height="64"/>
</g>
<g id="Icon">
	<g>
		<path d="M52.9006,10.7491c-13.9197-0.8841-27.8815-0.8841-41.8012,0C8.3538,10.9319,6.13,13.3406,6.13,16.0775
			c0,10.2817,0,20.5633,0,30.845c0,2.737,2.2238,5.1454,4.9694,5.3284c13.9197,0.8841,27.8815,0.8841,41.8012,0
			c2.7457-0.1829,4.9694-2.5914,4.9694-5.3284c0-10.2817,0-20.5633,0-30.845C57.87,13.3405,55.6462,10.9322,52.9006,10.7491z M52,45
			H12V17h40V45z"/>
		<polygon points="38.4993,30 39.304,42 46.9949,42 43.0864,30 		"/>
		<polygon points="41.5177,25 39.4791,19 37.889,19 38.3292,25 		"/>
		<polygon points="37.0759,19 35.4854,19 33.4469,25 36.6357,25 		"/>
		<polygon points="28,42 35.691,42 36.4956,30 31.9084,30 		"/>
		<path d="M15.5,36c0.8286,0,1.5-0.1714,1.5-1v-5.9799c0-0.582,0.2437-1.144,0.6685-1.542l3.5406-3.3144l0.3059,2.6177
			c0.0569,0.4833,0.4534,0.8533,0.9374,0.88c0.4855,0.0256,0.9185-0.3023,1.0249-0.7765l1.4982-6.6439
			c0.0668-0.2953-0.0045-0.6053-0.1938-0.842s-0.476-0.3744-0.7788-0.3741l-6.8107,0.0015c-0.486-0.0004-0.9011,0.35-0.9827,0.8292
			c-0.0809,0.4785,0.1933,0.9471,0.6525,1.1078l2.4547,0.8625l-3.6984,3.4621C14.5898,26.2511,14,27.6115,14,29.0201V35
			C14,35.8286,14.6714,36,15.5,36z"/>
		<polygon points="27,32 30,32 30,29 45,29 45,32 48,32 48,29 49,29 49,26 26,26 26,29 27,29 		"/>
	</g>
</g>
</svg>
