<svg height="64" viewBox="0 0 64 64" width="64" xmlns="http://www.w3.org/2000/svg"><path d="m0 0h64v64h-64z" fill="none"/><path d="m44.9101 14c-2.6995 0-4.5712.81-5.8135 1.701-2.2519 1.6151-4.5149 2.3699-7.1216 2.3699-2.4444 0-4.7441-.7007-7.0715-2.3699-1.2424-.891-3.1141-1.701-5.8137-1.701-15.2195 0-22.4845 37-8.9807 37 8.8724 0 8.4266-14.0567 21.8288-14.0567 14.0621 0 12.9636 14.0567 21.9529 14.0567 13.5039 0 6.2389-37-8.9807-37zm-20.9101 14c0 .5523-.4477 1-1 1h-2c-.5523 0-1 .4477-1 1v2c0 .5523-.4477 1-1 1h-2c-.5523 0-1-.4477-1-1v-2c0-.5523-.4477-1-1-1h-2c-.5523 0-1-.4477-1-1v-2c0-.5523.4477-1 1-1h2c.5523 0 1-.4477 1-1v-2c0-.5523.4477-1 1-1h2c.5523 0 1 .4477 1 1v2c0 .5523.4477 1 1 1h2c.5523 0 1 .4477 1 1zm23-7c1.1046 0 2 .8954 2 2s-.8954 2-2 2-2-.8954-2-2 .8954-2 2-2zm-4 8c-1.1046 0-2-.8954-2-2s.8954-2 2-2 2 .8954 2 2-.8954 2-2 2zm4 4c-1.1046 0-2-.8954-2-2s.8954-2 2-2 2 .8954 2 2-.8954 2-2 2zm4-4c-1.1046 0-2-.8954-2-2s.8954-2 2-2 2 .8954 2 2-.8954 2-2 2z"/></svg>