<svg height="64" viewBox="0 0 64 64" width="64" xmlns="http://www.w3.org/2000/svg"><path d="m0 0h64v64h-64z" fill="none"/><path d="m38.8 27.9c-2.6 1-4.1.8-6.2 2-2.2 1.2-2.8 5-2.8 5 3.2-1.9 4.5-1 6.8-2.6 1.7-1.2 2.4-3 2.7-4 0-.2-.3-.5-.5-.4zm2-6.1c-1.3 0-4.7.3-6.8 1.9-2.7 2-3.4 5.8-3.4 5.8 2-2.1 4.8-1.7 7.2-3.1 1.8-1 2.9-3.1 3.3-4 .2-.3 0-.6-.3-.6zm3.2-11.8c.1-.2 0-.4-.2-.5-.8-.2-2.7-.7-4.5.2-3.7 1.8-5 6.2-5 6.2 2.5-1.5 4.6-1.5 6.9-2.4 1.7-.6 2.5-2.6 2.8-3.5zm-8.3.8c.9-1.6 3.5-2.9 4.3-4.6.7-1.5-.6-3.7-1.6-5.1-.2-.1-.4-.1-.5-.1-1.5.8-2.7 1.7-3.2 3-.8 2 1.3 3.2 1 6.8zm8.7 26.1c-4.6 7.1-13.1 7-15.8 16.5 0-.8-.1-1.5-.1-2.3-.1-3.2-.2-6.6.2-8.7 1.6.2 3.3 0 4.9-1 2.4-1.4 4-5.2 4.5-6.7.1-.3-.1-.5-.4-.5-4.8.4-7.7 2.3-9.5 4.2-.3-1.9-1-3-2.8-5.6-1.3-1.8-2.9-3.4-3.6-4.2-.2-.2-.6-.1-.6.2-.4 1.7-.5 4.7.1 6.9.7 2.5 2.5 4.5 4.6 5.7-.4 1.7-.6 3.2-.8 4.7.6 2 1.1 4.4 1 6.3 0 .2-.1.2-.2.2 0-.1-.2-.9-.3-1.3-1.8-7.6-8.4-10.2-9.4-21.2-.1-.5-.7-.5-.8 0-1.1 4.8-2 9.2.4 15 1.9 4.6 6.9 6.6 9.4 10.3.1 2.8.1 5.4.3 7.6h4l-.2-2.1c-.9-8.3 5.7-8.1 9.9-12.5 4.1-4.4 5.4-6.5 6-11.2.1-.5-.5-.7-.8-.3zm-1.9-21.5c-1.1-.1-3.9-.1-6.3 1.1-3.1 1.6-3.6 6.5-3.6 6.5 2.4-2.1 5.2-1.8 7.2-3.2 1.5-1 2.6-3 3.1-3.9.1-.2-.1-.5-.4-.5zm-12.9 13.7s.7-3.7-.2-6.7c-.9-3.1-3-5.4-3.8-6.2-.2-.2-.5-.1-.6.1-.8 1.5-.8 4.4 1 6.3 1.5 1.7 3.1 3.2 3.6 6.5zm-1 5.9s.6-3.9-.9-7.5c-1.2-2.7-3.4-4.4-4.3-5.1-.2-.1-.5 0-.6.2-.4 1.7-.5 3.5.6 5.2 1.7 2.4 3.6 3.8 5.2 7.2zm2.6-12.4s1.1-3.9.2-7.5c-.7-2.6-2.4-4.7-3.1-5.5-.2-.2-.5-.1-.6.1-.7 1.7-.9 3.7-.4 5.2.6 2.2 2.8 3.8 3.9 7.7zm1.8-7.1c.5-1.3 1.6-3.7 1.1-7-.4-2.6-2.5-4.8-3.4-5.5-.2-.2-.5-.1-.6.1-.8 1.8-1.2 3.8-.3 5.7.9 2 2.6 3.2 3.2 6.7z"/></svg>