<svg height="64" viewBox="0 0 64 64" width="64" xmlns="http://www.w3.org/2000/svg"><path d="m0 0h64v64h-64z" fill="none"/><path d="m55.9927 8.2314c.8955-1.5552.8932-3.6079.4416-5.8277-.0473-.2322-.2498-.4051-.4867-.4037-2.3262.0136-5.7497.6351-6.7162 2.5541-1.1288 2.2412-.351 6.1304-1.2455 8.422 3.5816-3.4229 6.5875-2.2799 8.0068-4.7447z"/><path d="m43.8659 18.8199s3.5975-5.1109 2.2767-10.5189c-.6404-2.6224-2.7258-4.2769-3.6361-4.8909-.2359-.1592-.554-.1006-.7043.1411-.6172.9919-2.0071 3.6155-1.21 6.0536 1.0082 3.0841 2.7399 5.3007 3.2737 9.2151z"/><path d="m37.8583 26.4531s4.7542-4.6326 3.7459-9.2587c-.7769-3.5642-3.1533-6.4392-4.2034-7.5713-.2432-.2621-.6727-.1874-.8176.1395-.5599 1.2632-1.6632 4.1131-1.4401 6.523.2967 3.2027 2.8567 5.8539 2.7152 10.1675z"/><path d="m32.6432 33.9346s3.4141-3.8335 3.2361-8.4004c-.1397-3.5869-2.6782-7.2969-3.7612-8.7239-.2268-.2988-.6837-.2522-.8485.0848-.6288 1.2859-1.8116 4.1575-1.4139 6.8975.5338 3.6773 3.262 6.2275 2.7875 10.142z"/><path d="m27.7078 39.5235s3.4501-3.9078 2.8993-7.2128c-.5245-3.1468-1.9606-4.6525-3.1459-8.1803-.1287-.3828-.6349-.4639-.8741-.1385-.8215 1.1172-2.1685 3.4127-1.9199 6.1974.341 3.8197 2.3335 4.3843 3.0406 9.3342z"/><path d="m41.0494 42.4909c-1.4156-.1844-4.4156-.4922-7.4317-.2767-4.1517.2966-6.0196.5309-8.2141 1.7764.5444-3.4023-.0126-8.1238-3.5577-13.4785-.2007-.3032-.6534-.2985-.8447.0106-1.0681 1.7251-3.7941 6.5763-3.2127 10.3105.3809 2.4469 1.5267 4.4392 3.1143 5.9357-3.4901 3.8584-8.7061 7.3454-13.1886 9.9559-1.5145.882-1.7533 2.9651-.4697 4.1584.8981.8348 2.2632.9277 3.269.2264 6.3301-4.4139 9.6906-7.2753 13.6999-12.1876 3.0748 1.327 6.7432 1.4214 9.8991.0772 2.8085-1.1962 5.8062-3.9288 7.2615-5.7032.2458-.2998.0598-.755-.3246-.8051z"/><path d="m46.176 35.7252c-1.4395-.4485-5.0858-1.3284-8.9537-.2445-4.9847 1.3967-8.6227 5.3198-8.6227 5.3198 4.8767-1.2722 8.0388-.3976 11.8738-.636 2.735-.17 4.5538-1.8071 5.9532-3.6683.2059-.2738.0765-.6691-.2506-.771z"/><path d="m50.7496 28.0605c-1.5212-.1855-5.6608-.4678-9.7108 1.2197-3.858 1.6075-7.1384 5.4421-7.1384 5.4421 3.9579-2.191 6.8547-1.9033 9.7535-1.6962 3.6102.2579 6.5999-2.137 7.5024-4.2702.1309-.3095-.0731-.6547-.4067-.6954z"/><path d="m55.6379 19.6879c-1.5281-.069-5.1706-.0473-8.4502 1.3937-4.6647 2.0496-7.7745 6.5023-7.7745 6.5023 5.02-2.191 8.5875-1.1494 11.5155-2.3292 1.944-.7834 3.9592-2.6075 5.1185-4.8228.172-.3287-.0387-.7272-.4093-.744z"/><path d="m60.4985 11.5499c-1.5539-.248-5.5676-.6493-8.6575 1.1298-3.9144 2.2538-5.4934 5.4095-6.4909 7.0591 4.17-2.3323 6.8587-1.6206 9.8242-2.3323 2.7368-.6568 4.5541-2.8136 5.7039-5.1469.148-.3007-.0488-.6569-.3797-.7097z"/></svg>