<svg enable-background="new 0 0 64 64" viewBox="0 0 64 64" xmlns="http://www.w3.org/2000/svg"><path d="m0 0h64v64h-64z" fill="none"/><path d="m51 16h-8v-11c0-.552-.448-1-1-1h-20c-.552 0-1 .448-1 1v11h-8c-.552 0-1 .448-1 1v42c0 .552.448 1 1 1h38c.552 0 1-.448 1-1v-42c0-.552-.448-1-1-1zm-26-10.842c.056-.021.297-.076.364.25.049.236.274 1.366.518 2.592h12.236c.244-1.226.469-2.356.518-2.593.067-.326.308-.271.364-.25v10.843h-14zm3.297 29.766c.501 6.988.844 16.391.844 16.773 0 .659-.961 1.194-2.148 1.194s-2.146-.535-2.146-1.194c0-.402.357-9.607.904-16.749-1.472-.399-2.579-1.462-2.579-2.596l.478-7.166c.014-.267.213-.477.481-.477s.46.21.475.477l.443 6.477c.029.253.251.449.509.449.268 0 .513-.21.528-.477l.431-6.45c.014-.266.212-.475.478-.476.266.002.464.21.478.476l.431 6.45c.014.267.26.477.528.477.258 0 .48-.196.509-.449l.443-6.477c.014-.267.207-.477.475-.477s.467.21.481.477l.478 7.166c-.004 1.117-1.081 2.16-2.521 2.572zm10.013 3.641-.448-.004c2.212 13.324.049 14.317-1.433 14.33-.54.005-1.433-.416-1.433-.955v-26.385c0-.692.837-1.043 1.327-.555 2.34 2.327 3.133 9.057 3.376 12.08.066.807-.579 1.496-1.389 1.489z"/></svg>