<?xml version="1.0" encoding="utf-8"?>
<!-- Generator: Adobe Illustrator 20.0.0, SVG Export Plug-In . SVG Version: 6.00 Build 0)  -->
<svg version="1.1" xmlns="http://www.w3.org/2000/svg" xmlns:xlink="http://www.w3.org/1999/xlink" x="0px" y="0px"
	 viewBox="0 0 64 64" style="enable-background:new 0 0 64 64;" xml:space="preserve">
<style type="text/css">
	.st0{fill:none;}
	.st1{fill:#1D1D1B;}
</style>
<g id="_x36_4px_Box">
	<rect class="st0" width="64" height="64"/>
</g>
<g id="Icon">
	<g>
		<path class="st1" d="M47.4,9.2C47.9,8,47.6,6.5,46.9,5c-0.1-0.2-0.2-0.3-0.4-0.2C44.8,5.1,42.4,6,42,7.6c-0.5,1.8,0.7,4.5,0.3,6.3
			C44.4,10.9,46.8,11.2,47.4,9.2"/>
		<path class="st1" d="M40.2,18.7c0,0,1.9-4.2,0.1-8c-0.9-1.8-2.6-2.7-3.4-3c-0.2-0.1-0.4,0-0.5,0.2c-0.3,0.8-0.9,2.9,0,4.6
			C37.7,14.6,39.2,16,40.2,18.7"/>
		<path class="st1" d="M37,25.1c0,0,2.8-4.1,1.4-7.3c-1.1-2.5-3.2-4.2-4.2-4.9c-0.2-0.2-0.5,0-0.6,0.2c-0.2,1-0.6,3.2-0.1,4.9
			C34.2,20.4,36.4,22,37,25.1"/>
		<path class="st1" d="M34.3,31.3c0,0,1.9-3.3,1.1-6.6c-0.6-2.6-3-4.9-4-5.8c-0.2-0.2-0.5-0.1-0.6,0.2c-0.3,1-0.7,3.3,0,5.2
			C31.7,27,34.1,28.4,34.3,31.3"/>
		<path class="st1" d="M31.5,36.1c0,0,1.9-3.3,1-5.7c-0.8-2.2-2.1-3.1-3.5-5.5c-0.2-0.3-0.5-0.2-0.7,0c-0.4,0.9-1.1,2.8-0.5,4.8
			C28.8,32.5,30.3,32.6,31.5,36.1"/>
		<path class="st1" d="M41.7,36.3c-1.1,0.1-3.3,0.3-5.4,0.9c-3,0.8-4.3,1.3-5.7,2.5c-0.1-2.5-1.2-5.9-4.6-9.2
			c-0.2-0.2-0.5-0.1-0.6,0.1c-0.5,1.4-1.8,5.3-0.8,8c0.6,1.7,1.8,3,3.1,3.8c-2,3.3-5.2,6.6-8.1,9.2c-1,0.9-0.8,2.4,0.3,3.1
			c0.8,0.5,1.8,0.3,2.4-0.3c3.9-4.1,6-6.7,8.1-10.9c2.4,0.5,5.1,0,7.2-1.4c1.9-1.3,3.6-3.7,4.4-5.2C42.1,36.6,41.9,36.3,41.7,36.3"
			/>
		<path class="st1" d="M44.4,30.6c-1.1-0.1-3.9-0.2-6.5,1.1c-3.4,1.7-5.5,5.1-5.5,5.1c3.3-1.6,5.8-1.5,8.5-2.2c2-0.5,3-2,3.8-3.5
			C44.8,30.9,44.6,30.7,44.4,30.6"/>
		<path class="st1" d="M46.6,24.4c-1.1,0.1-4.2,0.5-6.9,2.3c-2.6,1.7-4.4,5-4.4,5c2.5-2.2,4.7-2.4,6.8-2.7c2.7-0.3,4.5-2.5,4.8-4.2
			C47,24.6,46.8,24.4,46.6,24.4"/>
		<path class="st1" d="M48.9,17.6c-1.1,0.2-3.8,0.7-5.9,2.3c-3.1,2.2-4.7,5.9-4.7,5.9c3.3-2.3,6.1-2.1,8-3.4c1.3-0.9,2.5-2.5,3-4.3
			C49.4,17.8,49.1,17.6,48.9,17.6"/>
		<path class="st1" d="M51.2,11c-1.2,0-4.1,0.4-6.1,2.1c-2.5,2.2-3.2,4.7-3.7,6.1c2.7-2.3,4.7-2.2,6.8-3.1c1.9-0.9,2.9-2.7,3.4-4.6
			C51.6,11.2,51.4,11,51.2,11"/>
		<path class="st1" d="M8.4,13.5c-0.4-0.8-1.2-1.4-2.2-1.9c-0.1,0-0.2,0-0.3,0.1c-0.7,0.9-1.4,2.5-0.9,3.5c0.6,1.1,2.4,1.9,3,3
			C7.6,15.7,9,14.8,8.4,13.5"/>
		<path class="st1" d="M9.1,21.5c0,0-1-3-3.6-4c-1.2-0.5-2.5-0.2-3,0c-0.1,0-0.2,0.2-0.2,0.3c0.2,0.5,0.9,1.9,2.1,2.3
			C6,20.7,7.4,20.6,9.1,21.5"/>
		<path class="st1" d="M10.4,26.2c0,0-0.5-3.3-2.6-4.2c-1.7-0.7-3.5-0.6-4.3-0.5c-0.2,0-0.3,0.2-0.2,0.4c0.3,0.6,1.2,1.9,2.2,2.5
			C6.9,25.1,8.7,24.9,10.4,26.2"/>
		<path class="st1" d="M11.9,30.5c0,0-0.5-2.5-2.4-3.8c-1.5-1-3.7-1.1-4.6-1c-0.2,0-0.3,0.2-0.2,0.4C5,26.7,5.8,28,7,28.7
			C8.7,29.5,10.5,29.2,11.9,30.5"/>
		<path class="st1" d="M12.7,34.2c0,0-0.6-2.5-2.1-3.3c-1.4-0.7-2.5-0.6-4.2-1.1c-0.2-0.1-0.4,0.1-0.3,0.3c0.2,0.7,0.7,1.9,1.9,2.6
			C9.7,33.6,10.5,33,12.7,34.2"/>
		<path class="st1" d="M17.9,29.6c-0.5,0.5-1.5,1.6-2.3,2.9c-1.1,1.8-1.6,2.6-1.7,3.8c-1.2-1.2-3.3-2.4-6.5-2.5
			c-0.2,0-0.3,0.2-0.2,0.3c0.4,0.9,1.5,3.5,3.2,4.3c1.1,0.6,2.2,0.7,3.3,0.5c0.5,2.5,0.4,5.7,0.2,8.3c-0.1,0.9,0.7,1.6,1.5,1.4
			c0.6-0.1,1-0.6,1.1-1.3c0.1-3.9-0.1-6.1-0.9-9.1c1.4-0.9,2.6-2.3,2.9-4c0.3-1.5,0.1-3.5-0.2-4.6C18.2,29.6,18,29.5,17.9,29.6"/>
		<path class="st1" d="M16.6,25.6c-0.6,0.5-2,1.7-2.7,3.6c-0.9,2.4-0.4,5.1-0.4,5.1c0.9-2.3,2.2-3.4,3.2-5c0.7-1.2,0.6-2.4,0.3-3.5
			C17,25.5,16.8,25.5,16.6,25.6"/>
		<path class="st1" d="M14.9,21.5c-0.5,0.6-1.9,2.2-2.4,4.3c-0.5,2,0.1,4.5,0.1,4.5c0.3-2.2,1.2-3.3,2.2-4.4
			c1.2-1.4,1.1-3.3,0.5-4.3C15.2,21.4,15,21.3,14.9,21.5"/>
		<path class="st1" d="M12.9,17c-0.5,0.6-1.5,2.1-1.9,3.8c-0.5,2.5,0.3,5.1,0.3,5.1c0.6-2.7,2.1-3.8,2.4-5.3c0.3-1,0.1-2.4-0.4-3.5
			C13.3,16.9,13,16.9,12.9,17"/>
		<path class="st1" d="M11.1,12.7c-0.6,0.6-1.9,2.1-2.1,3.8c-0.2,2.2,0.6,3.8,0.9,4.7c0.3-2.4,1.4-3.3,1.9-4.7
			c0.5-1.3,0.2-2.7-0.4-3.8C11.4,12.6,11.2,12.5,11.1,12.7"/>
		<path class="st1" d="M59.9,40.3c0.7-0.6,0.9-1.6,1-2.7c0-0.1-0.1-0.2-0.2-0.3c-1.1-0.3-2.8-0.5-3.6,0.3c-0.9,0.9-1,2.9-1.8,3.9
			C57.5,40.3,58.8,41.3,59.9,40.3"/>
		<path class="st1" d="M52.5,43.7c0,0,2.5-1.9,2.6-4.7c0.1-1.3-0.7-2.4-1-2.9c-0.1-0.1-0.3-0.1-0.4,0c-0.4,0.4-1.5,1.4-1.4,2.7
			C52.3,40.4,52.8,41.7,52.5,43.7"/>
		<path class="st1" d="M48.6,46.5c0,0,2.9-1.5,3.1-3.9c0.1-1.8-0.6-3.5-0.9-4.2c-0.1-0.2-0.3-0.2-0.4-0.1c-0.4,0.5-1.4,1.7-1.6,2.9
			C48.4,42.8,49.2,44.4,48.6,46.5"/>
		<path class="st1" d="M45,49.3c0,0,2.2-1.4,2.7-3.6c0.4-1.7-0.2-3.9-0.6-4.7c-0.1-0.2-0.3-0.2-0.4-0.1c-0.5,0.5-1.5,1.7-1.7,3.1
			C44.8,45.9,45.8,47.5,45,49.3"/>
		<path class="st1" d="M41.8,51.3c0,0,2.2-1.4,2.4-3c0.2-1.6-0.3-2.5-0.3-4.4c0-0.2-0.2-0.3-0.4-0.2C43,44.1,42,45,41.7,46.4
			C41.3,48.3,42.2,48.8,41.8,51.3"/>
		<path class="st1" d="M47.8,54.6c-0.7-0.3-2-0.9-3.5-1.2c-2-0.4-3-0.6-4.2-0.3c0.7-1.6,1.1-3.9,0.2-7C40.3,46,40,45.9,39.9,46
			c-0.8,0.7-2.8,2.6-3,4.5c-0.2,1.2,0.1,2.3,0.7,3.3c-2.2,1.4-5.2,2.3-7.7,2.9c-0.9,0.2-1.3,1.2-0.8,1.9c0.3,0.5,1,0.8,1.5,0.6
			c3.7-1.2,5.7-2.1,8.3-3.9c1.3,1.1,3,1.6,4.7,1.4c1.5-0.2,3.3-1.1,4.3-1.7C48,54.9,48,54.7,47.8,54.6"/>
		<path class="st1" d="M51.2,52.1c-0.6-0.4-2.3-1.4-4.3-1.4c-2.6,0-4.9,1.3-4.9,1.3c2.5,0.1,3.9,1,5.8,1.4c1.3,0.3,2.4-0.2,3.4-0.9
			C51.4,52.4,51.4,52.2,51.2,52.1"/>
		<path class="st1" d="M54.5,49.1c-0.7-0.3-2.7-1-4.8-0.8c-2.1,0.2-4.2,1.6-4.2,1.6c2.2-0.5,3.6,0.1,4.9,0.6c1.7,0.6,3.5-0.1,4.2-1
			C54.7,49.3,54.7,49.1,54.5,49.1"/>
		<path class="st1" d="M58.1,45.7c-0.7-0.3-2.5-0.8-4.3-0.5c-2.5,0.3-4.7,2-4.7,2c2.7-0.3,4.3,0.7,5.9,0.5c1-0.1,2.3-0.7,3.1-1.6
			C58.3,46,58.2,45.8,58.1,45.7"/>
		<path class="st1" d="M61.5,42.5c-0.7-0.3-2.6-1.1-4.3-0.7c-2.2,0.5-3.4,1.8-4.1,2.5c2.3-0.5,3.5,0.2,5,0.3
			c1.4,0.1,2.6-0.7,3.5-1.7C61.7,42.8,61.7,42.6,61.5,42.5"/>
	</g>
</g>
</svg>
