<svg height="64" viewBox="0 0 64 64" width="64" xmlns="http://www.w3.org/2000/svg"><path d="m0 0h64v64h-64z" fill="none"/><path d="m29 44-10-6h-17.9999c0 4.9706 4.0294 9 8.9999 9h44.0001c4.9705 0 9-4.0294 9-9h-25.0001z"/><path d="m52.743 22.4616c-2.9583-1.3038-6.7141-1.5419-10.4417-1.0416 2.22 2.2272 3.0317 4.0479 3.2477 4.5755.2739.6694.3404 1.0342.0836 1.2398-.8521-.6035-4.0438-4.7457-11.1187-6.3884-5.6562-1.3099-10.5781-.856-14.8702.741 3.6761 2.5482 5.032 4.9493 5.3035 5.5017.319.6491.4315.9997.194 1.2274-.9004-.5235-4.9848-4.3011-12.1412-5.317-7.6027.8163-11.9999 6.5647-11.9999 12.9999v.0001h62v-.0001c0-5.8573-3.3941-10.5135-10.2571-13.5383z"/></svg>