<svg height="64" viewBox="0 0 64 64" width="64" xmlns="http://www.w3.org/2000/svg"><path d="m0 0h64v64h-64z" fill="none"/><path d="m52.1436 32.3845c6.4175-6.4176 7.0295-16.2106 1.3669-21.8732-3.9724-3.9725-9.9751-4.8448-15.4216-2.8032 1.2627 1.4667.9587 3.9396-.7559 5.6542-1.0928 1.0929-2.4968 1.6132-3.752 1.5242.0889 1.2552-.4314 2.6593-1.5244 3.7522-1.5916 1.5916-3.8396 1.9719-5.3281 1.0095-1.7185 4.4493-2.3074 9.3493-2.5054 13.7865l-9.6782 9.6783c-1.3662-.3651-3.0889-.1277-4.6733.7889-2.6292 1.5211-3.8638 4.3044-2.7576 6.2166.9348 1.6158 3.2419 2.0772 5.5208 1.2686-.8086 2.279-.3472 4.5861 1.2686 5.5208 1.9124 1.1063 4.6956-.1283 6.2166-2.7576.9167-1.5844 1.1541-3.3071.7891-4.6733l7.7671-7.7672c-2.991-.5549-5.1003-1.1955-5.4128-1.3361-.3213-.1446-.4219-.2656-.2927-.399 9.9525-.3113 21.7109-.1284 29.1729-7.5902z"/></svg>