<?xml version="1.0" encoding="utf-8"?>
<!-- Generator: Adobe Illustrator 24.3.0, SVG Export Plug-In . SVG Version: 6.00 Build 0)  -->
<svg version="1.1" xmlns="http://www.w3.org/2000/svg" xmlns:xlink="http://www.w3.org/1999/xlink" x="0px" y="0px"
	 viewBox="0 0 64 64" style="enable-background:new 0 0 64 64;" xml:space="preserve">
<style type="text/css">
	.st0{fill:none;}
</style>
<g id="Box">
	<rect class="st0" width="64" height="64"/>
</g>
<g id="Icon">
	<g>
		<path d="M62.31,31.016C60.844,30.359,56.97,29,50,29s-10.844,1.359-12.31,2.016c-0.423,0.19-0.69,0.612-0.69,1.075V49.2
			c0,2.005,0.854,3.915,2.336,5.266c3.939,3.59,8.373,5.55,10.011,6.198c0.421,0.167,0.884,0.167,1.306,0
			c1.638-0.648,6.072-2.609,10.011-6.198C62.146,53.115,63,51.205,63,49.2V32.091C63,31.628,62.733,31.206,62.31,31.016z
			 M57.353,37.973l-7.281,12.052c-0.203,0.334-0.565,0.537-0.955,0.537c-0.001,0-0.002,0-0.004,0
			c-0.391-0.001-0.753-0.207-0.955-0.543l-4.766-7.953c-0.282-0.471-0.18-1.077,0.24-1.43c0.419-0.353,1.033-0.349,1.45,0.011
			l3.934,3.408l6.548-7.406c0.385-0.43,1.033-0.497,1.499-0.153C57.528,36.839,57.654,37.48,57.353,37.973z"/>
		<path d="M32.372,33.96c-2.416-0.086-4.323-0.152-5.204,2.073c-0.706,1.785-1.617,2.041-2.382,2.015
			c-2.454-0.084-3.822-2.383-6.215-2.773c-2.961-0.483-3.539,1.258-6.801,0.676c-2.358-0.421-2.111-2.133-3.549-2.649
			c-1.82-0.653-4.723,1.088-5.494-0.325c-0.487-0.886,2.07-2.627,3.49-3.186c0.096,1.03,0.857,1.894,1.891,2.095
			c10.6,2.053,13.465,2.606,14.516,2.802c1.338,0.25,1.616,0.144,3.005-0.487c0,0.001,0.001,0.002,0.001,0.004
			c4.925-2.35,11.468-6.139,15.344-9.87c3.221-3.101,5.278-6.493,5.858-9.499c1.592,0.192,3.283,0.68,3.465,1.404
			c0.12,0.477-0.09,0.741-1.634,1.46c-1.211,0.564-3.042,1.417-2.613,3.384c0.247,1.131,0.139,2.061-0.321,2.763
			c-0.558,0.852-1.661,1.446-3.277,1.767c-1.458,0.289-2.32,1.271-2.835,2.407c2.043-0.562,4.934-1.081,8.814-1.195
			c1.225-2.655,1.564-5.131,1.286-7.411c1.3-0.612,3.052-1.55,2.52-3.663c-0.542-2.153-3.598-2.765-5.446-2.939
			C44.5,8.625,38.5,5.75,30.802,9.134c5.73,2.001,7.101,6.536,7.275,7.339c0.15,0.691,0.131,0.892-0.09,0.932
			c-0.702-0.984-6.18-6.913-12.325-6.096c-2.291,1.177-4.565,2.589-6.685,4.051c7.56,0.991,9.754,6.335,10.035,7.224
			c0.221,0.702,0.221,0.911-0.003,0.974c-0.864-1-7.812-7.118-14.657-4.771c-5.857,4.315-7.408,6.354-7.947,8.862
			c-1.966,0.467-4.241,1.906-5.236,3.531c-1.17,1.911-0.194,4.805,3.696,4.291c-1.103,0.701-3.977,2.709-3.977,2.709
			c1.419,1.539,3.521,2.006,5.883,2.05c0.712,3.91,4.42,6.738,8.121,7.846c4.148,1.242,8.306-0.215,9.289-0.562
			c3.205-1.13,6.735-3.183,10.62-6.17v-7.804C33.44,34.104,32.518,33.949,32.372,33.96z M9.816,25.343
			c1.176-1.147,3.018-1.821,4.961-1.821c0.067,0,0.135,0.001,0.202,0.002c0,0,0,0,0,0c4.943,0.119,8.199,5.471,8.844,9.051
			c0.03,0.166-0.122,0.308-0.288,0.276L8.49,29.922c-0.167-0.032-0.292-0.182-0.292-0.347C8.199,27.814,8.743,26.39,9.816,25.343z
			 M21.425,45.221c-1.642,1.267-3.759,1.601-5.96,0.941c-2.184-0.654-5.872-2.65-6.665-5.972c4.113-0.25,8.645-1.212,11.731-0.029
			c1.27,0.487,2.319,0.864,3.224,1.152C23.577,42.751,22.713,44.228,21.425,45.221z"/>
	</g>
</g>
</svg>
