<svg enable-background="new 0 0 64 64" viewBox="0 0 64 64" xmlns="http://www.w3.org/2000/svg"><path d="m0 0h64v64h-64z" fill="none"/><path d="m62.31 31.016c-1.466-.657-5.34-2.016-12.31-2.016s-10.844 1.359-12.31 2.016c-.423.19-.69.612-.69 1.075v17.109c0 2.005.854 3.915 2.336 5.266 3.939 3.59 8.373 5.55 10.011 6.198.421.167.884.167 1.306 0 1.638-.648 6.072-2.609 10.011-6.198 1.482-1.351 2.336-3.261 2.336-5.266v-17.109c0-.463-.267-.885-.69-1.075zm-4.957 6.957-7.281 12.052c-.203.334-.565.537-.955.537-.001 0-.002 0-.004 0-.391-.001-.753-.207-.955-.543l-4.766-7.953c-.282-.471-.18-1.077.24-1.43.419-.353 1.033-.349 1.45.011l3.934 3.408 6.548-7.406c.385-.43 1.033-.497 1.499-.153.465.343.591.984.29 1.477z"/><path d="m32.372 33.96c-2.416-.086-4.323-.152-5.204 2.073-.706 1.785-1.617 2.041-2.382 2.015-2.454-.084-3.822-2.383-6.215-2.773-2.961-.483-3.539 1.258-6.801.676-2.358-.421-2.111-2.133-3.549-2.649-1.82-.653-4.723 1.088-5.494-.325-.487-.886 2.07-2.627 3.49-3.186.096 1.03.857 1.894 1.891 2.095 10.6 2.053 13.465 2.606 14.516 2.802 1.338.25 1.616.144 3.005-.487 0 .001.001.002.001.004 4.925-2.35 11.468-6.139 15.344-9.87 3.221-3.101 5.278-6.493 5.858-9.499 1.592.192 3.283.68 3.465 1.404.12.477-.09.741-1.634 1.46-1.211.564-3.042 1.417-2.613 3.384.247 1.131.139 2.061-.321 2.763-.558.852-1.661 1.446-3.277 1.767-1.458.289-2.32 1.271-2.835 2.407 2.043-.562 4.934-1.081 8.814-1.195 1.225-2.655 1.564-5.131 1.286-7.411 1.3-.612 3.052-1.55 2.52-3.663-.542-2.153-3.598-2.765-5.446-2.939-2.291-4.188-8.291-7.063-15.989-3.679 5.73 2.001 7.101 6.536 7.275 7.339.15.691.131.892-.09.932-.702-.984-6.18-6.913-12.325-6.096-2.291 1.177-4.565 2.589-6.685 4.051 7.56.991 9.754 6.335 10.035 7.224.221.702.221.911-.003.974-.864-1-7.812-7.118-14.657-4.771-5.857 4.315-7.408 6.354-7.947 8.862-1.966.467-4.241 1.906-5.236 3.531-1.17 1.911-.194 4.805 3.696 4.291-1.103.701-3.977 2.709-3.977 2.709 1.419 1.539 3.521 2.006 5.883 2.05.712 3.91 4.42 6.738 8.121 7.846 4.148 1.242 8.306-.215 9.289-.562 3.205-1.13 6.735-3.183 10.62-6.17v-7.804c-1.361.564-2.283.409-2.429.42zm-22.556-8.617c1.176-1.147 3.018-1.821 4.961-1.821.067 0 .135.001.202.002 4.943.119 8.199 5.471 8.844 9.051.03.166-.122.308-.288.276l-15.045-2.929c-.167-.032-.292-.182-.292-.347.001-1.761.545-3.185 1.618-4.232zm11.609 19.878c-1.642 1.267-3.759 1.601-5.96.941-2.184-.654-5.872-2.65-6.665-5.972 4.113-.25 8.645-1.212 11.731-.029 1.27.487 2.319.864 3.224 1.152-.178 1.438-1.042 2.915-2.33 3.908z"/></svg>