<svg height="64" viewBox="0 0 64 64" width="64" xmlns="http://www.w3.org/2000/svg"><path d="m0 0h64v64h-64z" fill="none"/><path d="m41.3546 28.4412s-1.4282-4.5946-3.2341-8.3724c-.5624-1.1767-1.4704-1.2894-2.5804-.7841-1.0701.4871-1.9647 1.4594-1.3267 2.4225 2.2411 3.3834 3.2101 4.8429 4.6881 8.688.3001.7808 1.2771 1.0692 2.031.7069 2.4957-1.1993 7.542-4.3682 8.1484-10.5865.0318-.3258-.2541-.5973-.5786-.5542-1.3862.184-4.7917.8253-7.2125 2.8593.4293 2.4173.3723 4.8118.3329 5.255-.0302.3406-.2066.3667-.2681.3655z"/><path d="m50.7994 31.2459c-5.3571-1.9625-6.4028 1.7739-9.7994 1.8852-3.3966-.1113-4.4423-3.8477-9.7994-1.8852-3.2836 1.2029-5.1599 6.0041-5.1599 11.7544 0 2.1102.3293 4.3082 1.0052 6.4254 2.3527 7.3701 4.8817 8.2803 7.7494 8.5477 3.0103.2808 4.2509-1.7529 6.2047-2.005 1.9538.2521 3.1944 2.3123 6.2047 2.0316 2.8677-.2675 5.3967-1.2042 7.7494-8.5743 2.4651-7.7225.3692-16.5224-4.1547-18.1798z"/><path d="m58.077 17.94c-3.6637-8.1025-13.3415-12.6185-24.3023-11.4241 2.2584 1.4666 3.3541 2.8032 3.757 3.2991.4561.5613.5751.9246.3741 1.185-.8389-.3329-4.0061-2.8179-9.5388-3.4384-2.419.6743-4.0007 1.3405-5.7656 2.1819 4.4846 2.027 6.3716 4.3278 6.9302 5.0155.4561.5613.5751.9245.3741 1.1849-.9539-.3785-4.9187-3.5374-11.9496-3.5744-1.5904 1.0687-3.0695 2.241-4.4196 3.4971 5.1698 2.115 7.2723 4.6885 7.8687 5.4226.456.5613.5751.9246.3741 1.185-.9169-.3639-4.6122-3.2992-11.1405-3.5599-6.002 7.1484-8.2963 16.337-5.1605 23.272 2.793 6.1769 9.3675 3.9153 18.3438-.3118.2061-6.0193 2.6721-11.2474 6.6216-12.6944 1.7706-.6486 3.5316-.9244 5.3593-.4943-.899-1.9455-1.7862-3.2916-3.4238-5.7638-1.2583-1.8998-.4482-4.412 2.2494-5.6398 2.4327-1.1073 4.4976-.2108 5.4767 1.8376.2141.4477.4224.9049.6238 1.3639 2.624-1.8216 5.7496-2.4731 7.4837-2.7034 1.7358-.2297 3.2263 1.222 3.0577 2.9487-.3192 3.2729-1.6783 5.8176-3.3191 7.7485.0042 0 .0079-.0006.012-.0006 1.2109 0 2.6273.2755 4.0233.9042 5.6261-2.8262 8.5767-5.9423 6.0903-11.4411z"/></svg>