<svg enable-background="new 0 0 64 64" viewBox="0 0 64 64" xmlns="http://www.w3.org/2000/svg"><path clip-rule="evenodd" d="m53.4129 20.7428c-1.4118-2.6469-2.3886-3.6421-4.6851-4.7351v-.0001s-11.5478-5.2523-11.7443-5.3306c0 0-.6159-.2213-.9234-.2926-4.7182-1.0936-9.3225 3.4923-9.3225 3.4923s-9.2102-7.8661-14.8383-.5876c-5.1151 6.6152.5046 11.9835 2.7729 13.7124 2.2684 1.7289 5.9799 4.0749 5.9799 4.0749s-.0167.1647-.3285.0821c-.3392-.0897-3.872-1.0284-5.7459-1.9296v16.388s-.08 1.3325.8337 2.1754h.0001c.3149.2905 11.9506 5.7389 11.9506 5.7389.5678.2648.879.4688 1.6379.4688h19s2-.6219 2-3c0-2.3777 0-19 0-19s6.5274-5.4189 3.4129-11.2572zm-5.4129 10.2572v19c0 2.0579-2 2-2 2s-13.3918.1242-16 0c-2.2105-.1053-2-2-2-2v-18s-7.9325-5.1593-3.0625-11.4575c4.8701-6.2983 13.4562.8983 13.4562.8983s8.4994-8.8571 13.445.414c2.6948 5.052-3.8387 9.1452-3.8387 9.1452z" fill-rule="evenodd"/></svg>