<?xml version="1.0" encoding="utf-8"?>
<!-- Generator: Adobe Illustrator 19.2.0, SVG Export Plug-In . SVG Version: 6.00 Build 0)  -->
<svg version="1.0" xmlns="http://www.w3.org/2000/svg" xmlns:xlink="http://www.w3.org/1999/xlink" x="0px" y="0px"
	 viewBox="0 0 64 64" enable-background="new 0 0 64 64" xml:space="preserve">
<g id="achtergrond">
</g>
<g id="paneel_1">
	<path fill-rule="evenodd" clip-rule="evenodd" d="M53.4129,20.7428c-1.4118-2.6469-2.3886-3.6421-4.6851-4.7351v-0.0001
		c0,0-11.5478-5.2523-11.7443-5.3306c0,0-0.6159-0.2213-0.9234-0.2926c-4.7182-1.0936-9.3225,3.4923-9.3225,3.4923
		s-9.2102-7.8661-14.8383-0.5876c-5.1151,6.6152,0.5046,11.9835,2.7729,13.7124c2.2684,1.7289,5.9799,4.0749,5.9799,4.0749
		s-0.0167,0.1647-0.3285,0.0821c-0.3392-0.0897-3.872-1.0284-5.7459-1.9296v16.388c0,0-0.08,1.3325,0.8337,2.1754h0.0001
		c0.3149,0.2905,11.9506,5.7389,11.9506,5.7389C27.9299,53.796,28.2411,54,29,54c3.0174,0,19,0,19,0s2-0.6219,2-3
		c0-2.3777,0-19,0-19S56.5274,26.5811,53.4129,20.7428z M48,31c0,0,0,16.9424,0,19c0,2.0579-2,2-2,2s-13.3918,0.1242-16,0
		c-2.2105-0.1053-2-2-2-2V32c0,0-7.9325-5.1593-3.0625-11.4575c4.8701-6.2983,13.4562,0.8983,13.4562,0.8983
		s8.4994-8.8571,13.445,0.414C54.5335,26.9068,48,31,48,31z"/>
</g>
</svg>
