<svg height="64" viewBox="0 0 64 64" width="64" xmlns="http://www.w3.org/2000/svg"><path d="m0 0h64v64h-64z" fill="none"/><circle cx="13.5" cy="18.5" r="1.5"/><circle cx="21.5" cy="22.5" r="1.5"/><circle cx="15.5" cy="35.5" r="1.5"/><path d="m43.8212 44.3892c-1.514-.538-2.5377-1.6655-3.0086-2.9708-.8059-2.2235.0804-4.7356 2.163-5.9664l9.0244-5.3353v-3.8031c2.3584-1.8273 4.0044-4.3445 4-7.3136.0065-4.2987-3.3835-7.5568-7.3757-9.2974-2.5121-1.0894-5.4638-1.7013-8.6243-1.7026h-22c-4.2138.0051-8.0571 1.0813-10.981 2.9537-2.864 1.8432-5.0241 4.6412-5.019 8.0463-.0044 2.966 1.6384 5.4838 4 7.3136v17.6864c.0013 2.7622 2.2378 4.9987 5 5h24.8115c3.0702-.8284 5.8161-2.4396 8.0097-4.6108zm-14.5716-23.0218c-.9015 1.3924-2.2099 2.1634-3.2496 2.846v19.7866c-.001.5515-.4485.999-1 1h-14c-.5515-.001-.999-.4485-1-1v-19.7866c-1.0435-.6851-2.3481-1.4537-3.2496-2.8459-1.0119-1.5695-.998-3.2117.0206-4.7714 1.5484-2.3761 5.6948-4.5989 11.229-4.5961 5.8129-.0085 9.7758 2.3805 11.229 4.5961 1.0169 1.557 1.0341 3.1993.0206 4.7713z"/><path d="m62.0508 44.6738-3.7725-12.024c-.1615-.5154-.5548-.9266-1.0671-1.1164-.5123-.1899-1.0874-.1375-1.5608.1426l-11.0486 6.5322c-.7404.4369-1.0681 1.3268-.7803 2.1213.2871.794 1.1083 1.2702 1.9583 1.1357l4.5256-.7163c-2.819 5.8209-8.1957 10.2056-14.7269 11.6089-.8085.1737-1.6107.9173-1.5684 2.0435l.0771 2.0576c.0401 1.0695 1.2801 1.8494 2.3296 1.6398 8.7106-1.7391 15.8632-7.6428 19.4072-15.4716l3.1177 3.715c.5424.6505 1.4812.8263 2.2391.4196.7587-.4068 1.1229-1.2841.87-2.0879z"/></svg>