<svg enable-background="new 0 0 64 64" viewBox="0 0 64 64" xmlns="http://www.w3.org/2000/svg"><path d="m16.3277 22.5644c-8.0456 1.5577-6.8774 5.4511-6.1634 6.8782.7132 1.4271 3.2437 2.012 4.6058 1.524 1.363-.4863 2.0769-1.3943 4.1859-2.0433 2.1089-.649 4.2492-.7146 4.2492-.7146 1.5897-.1618 2.8305-1.085 2.8542-2.6267.0327-2.0448-1.6854-4.5745-9.7317-3.0176zm2.3036 5.9061c-.8369.268-1.6027.6032-1.7088.2711-.1062-.3321.3772-1.0873 1.214-1.3553.8361-.268 1.7073.055 1.8134.3871.1063.3321-.4832.4298-1.3186.6971z"/><path d="m26.3036 38.9595c7.098 2.5724 8.0143-1.0576 8.1258-2.5228.1091-1.466-1.6149-3.1252-2.9237-3.3841-1.3079-.2581-2.2998.1221-4.2736-.3619-1.9746-.4834-3.6979-1.4431-3.6979-1.4431-1.3339-.6231-2.7518-.4795-3.5001.7284-.9912 1.602-.8278 4.4134 6.2695 6.9835zm.9697-5.7572c.7887.1833 1.5523.281 1.4797.5941-.0733.3123-.8124.6811-1.5997.4978-.7872-.1833-1.3255-.8498-1.2515-1.1637.0735-.3123.585-.1115 1.3715.0718z"/><path d="m34.8257 16.1466c6.7919 1.0041 6.9499-2.3968 6.7835-3.7223-.1687-1.3263-2.0058-2.493-3.2192-2.4862-1.2125.0077-2.0272.5268-3.8735.4528-1.8478-.0718-3.5582-.6154-3.5582-.6154-1.3011-.3131-2.5388.0726-2.9863 1.2843-.5933 1.6081.0626 4.0827 6.8537 5.0868zm-.1802-5.3075c.7361.0214 1.4347-.0305 1.4263.2619-.0084.2909-.6002.7537-1.3355.7338-.7338-.0206-1.3355-.517-1.3263-.8102.0092-.2916.5009-.2053 1.2355-.1855z"/><path d="m19.7607 16.7224c-.2871 1.3927.6451 2.4708 2.0432 2.9343 0 0 1.9119.4856 3.6781 1.4912 1.7669 1.0041 2.2258 1.9624 3.3544 2.6733 1.1285.7101 3.5215.6895 4.4492-.4505.9247-1.1416 2.7534-4.4088-4.1721-7.4165-6.9224-3.0076-8.9718-1.0766-9.3528.7682zm5.057 3.1925c.1619-.2787 1.0102-.3933 1.7081.0137.6994.4085.9827 1.1828.82 1.4615-.1618.2772-.7834-.1764-1.4821-.5856-.6978-.4078-1.2071-.6132-1.046-.8896z"/><path d="m27.2596 27.2206c-.2368 1.1507.5322 2.041 1.6875 2.4227 0 0 1.5775.4024 3.0359 1.2316 1.4584.83 1.8394 1.6211 2.7694 2.2075.9323.5872 2.9092.5704 3.6735-.3719.7644-.9415 2.2747-3.6407-3.4429-6.123-5.7168-2.483-7.4089-.8887-7.7234.6331zm4.1751 2.6373c.1328-.2307.8338-.3246 1.4119.0114.5765.3375.8101.9766.6765 1.2064-.1344.229-.6475-.1458-1.2255-.4848-.5758-.3359-.9957-.5047-.8629-.733z"/><path d="m45.6537 26.9037c.5329-.9705.0885-1.986-.8453-2.6503 0 0-1.3087-.801-2.3923-1.9532-1.082-1.153-1.2049-1.9707-1.8799-2.7572-.6765-.788-2.4609-1.3225-3.4108-.6865-.9498.6353-3.0595 2.6457 1.3981 6.4697 4.4578 3.8254 6.4239 2.8603 7.1302 1.5775zm-3.0267-3.5353c-.1833.171-.8399.0603-1.2675-.4024-.4253-.4642-.4574-1.1049-.2733-1.2744.184-.1695.5429.3108.9681.7766.4253.4627.7567.7314.5727.9002z"/><path d="m7.4215 35.9511c-.278 1.3523.6254 2.3984 1.9829 2.8466 0 0 1.8539.4719 3.5666 1.4469 1.7134.9743 2.1601 1.9036 3.2535 2.5938 1.0957.6888 3.4169.6681 4.3156-.4375.898-1.1072 2.6717-4.2768-4.0445-7.1928-6.7169-2.9183-8.7045-1.0453-9.0741.743zm4.9059 3.0985c.1573-.2711.9789-.3818 1.6585.0138.6773.3956.9514 1.1469.7956 1.4164-.1596.2695-.762-.1703-1.4409-.568-.6765-.3956-1.169-.5942-1.0132-.8622z"/><path d="m16.2291 53.0813c.2327 1.7526 4.6753 5.2614 17.6459 1.9889 12.9707-3.2725 18.1627-12.1088 19.284-14.421.658-1.3564.139-2.5056.139-2.5056s2.1453-2.3053 1.7271-4.4599c-.2514-1.309-.8167-1.8708-.8167-1.8708s1.55-1.6879 2.7188-4.4923c1.1689-2.8045 1.2639-5.6751 1.2639-5.6751l-2.3378-.5839s.0846 2.5022-1.0611 5.492c-.7715 2.0133-2.2207 3.8574-2.2207 3.8574s-1.8314-1.2012-3.5922-.608c-1.5673.5282-2.7998 1.7689-2.7998 1.7689s1.3564.505 2.596 1.3251c2.3538 1.5581 3.3118 3.327 3.3559 3.5726.044.2455-.0568.2409-.0568.2409s-1.8211-1.4932-3.2436-2.5334c-2.3017-1.6832-4.5409-2.2613-6.7836-1.0936-2.362 1.2302-4.4321 3.7543-7.2378 8.4285-2.8044 4.6754-3.6223 6.8938-9.5835 9.2325-4.8885 1.9173-7.9386 2.0435-8.8317 2.1049-.1954.0142-.1653.2319-.1653.2319z"/></svg>