<svg enable-background="new 0 0 64 64" viewBox="0 0 64 64" xmlns="http://www.w3.org/2000/svg"><path d="m41.5202 41.3986c-1.9096.6545-4.3902 1.6645-6.3582 2.4902.0508.2981.0575.6142.008.9508-.2854 1.9348-1.9437 3.159-4.3012 3.2673-5.3305.2473-8.6419-1.0726-9.3278-1.3509-.1986-.0797-.22-.1784-.2032-.2687l.0084-.0046c3.8571.6637 6.2881.772 9.2816.2909 2.2715-.3644 3.0943-1.4525 3.0746-2.3475-.0177-.8757-.6381-1.4063-2.0344-1.4533-4.7491-.1658-7.5269-.6952-11.598-1.2888-2.8294-.4118-5.5576.3224-7.8804 1.8119-2.1829 1.3966-2.7866 2.0582-2.7866 2.0582l3.9897 7.681 5.1576-2.0973c.5877-.2393 1.2296-.3107 1.8555-.2087l7.0735 1.5751c1.5776.2582 3.1967-.0395 4.5808-.8425l14.1168-8.8564c.0001.0001-.6918-2.7693-4.6567-1.4067z"/><path d="m54.4095 36.0525h-44.8192c-.649 0-.3359.4987-.0458 1.0961.2607.5319.7166 1.0279 1.4555 1.8514h42c.7376-.8235 1.1954-1.3195 1.4544-1.8514.2901-.5974.6054-1.0961-.0449-1.0961z"/><path d="m34.2613 14.25c-.1558-1.1263-1.123-1.9932-2.2917-1.9932-.955 0-1.7736.5777-2.1271 1.4034.6049-.0815 1.5811-.1158 2.3397.0829.589.1543.5892.4754.5892.4754-1.2409-.126-3.093.0298-3.093.0315-9.9219 1.1339-17.633 9.536-17.6784 19.75h39.9383c-.0449-10.214-7.7561-18.6161-17.677-19.75z"/></svg>