<svg enable-background="new 0 0 64 64" viewBox="0 0 64 64" xmlns="http://www.w3.org/2000/svg"><path d="m0 0h64v64h-64z" fill="none"/><path d="m52 12c0-5.3-10.1-8-20-8s-20 2.7-20 8c0 1.6 1 3 2.6 4.2l5.4 37.8c0 2.8 5.4 5 12 5s12-2.2 12-5l5.4-37.8c1.6-1.2 2.6-2.6 2.6-4.2zm-20-5c10.4 0 17 3 17 5s-6.6 5-17 5-17-3-17-5 6.6-5 17-5zm3.6 35.3c-4.2 2-7.9-.8-9.7-4.6s-1.7-8.4 2.6-10.4c4.2-2 7.9.8 9.7 4.6s1.6 8.3-2.6 10.4z"/><path d="m35.5 38.7c-1.6-.9-2.4-1.7-2.3-3.4.2-2.9-1-5.2-3.9-5.8-.6-.1-1.1.7-.4 1.2 2.4 1.9 1.9 2.1 2 4.7.1 2.9 2 4.5 4.3 4.6.7-.1.8-.9.3-1.3z"/></svg>