<svg height="64" viewBox="0 0 64 64" width="64" xmlns="http://www.w3.org/2000/svg"><path d="m0 0h64v64h-64z" fill="none"/><path d="m25.8241 23.8989c.4935 1.0222.9382 2.2658 1.36 3.7769.2913 1.0433.6535 1.8441 1.0563 2.53 1.7387-.7646 3.6898-1.2058 5.7596-1.2058 4.0561 0 7.6818 1.6534 10.0676 4.2364.9172-2.0037 1.1036-3.5498 1.1689-7.3214.0139-.8019.3489-1.551.9036-2.0966-1.2495-2.5636-3.7614-4.5555-6.8659-5.3903l4.904-5.3498c.7106-.7753-.1035-1.9813-1.0883-1.6121l-4.0899 1.5338 3.5263-5.8772c.558-.93-.5562-1.9586-1.4387-1.3282l-3.0876 2.2054-1.0238-4.6072c-.2321-1.0441-1.7203-1.0441-1.9524 0l-1.0238 4.6072-3.0876-2.2054c-.8825-.6304-1.9967.3983-1.4387 1.3282l3.5263 5.8772-4.0899-1.5338c-.9848-.3693-1.799.8368-1.0883 1.6121l4.904 5.3498c-3.1366.8434-5.6657 2.869-6.9017 5.4708z"/><path d="m31.5498 32.4463-1.5195-.7983c-4.1107 1.3762-7.0303 4.8157-7.0303 8.852 0 .8667.1461 1.7022.3978 2.5h12.9922c.5345-.5652 1.0397-1.0976 1.4899-1.571 2.9362-3.0878 4.0693-4.2845 5.1996-6.2877-1.2188-1.5341-2.9454-2.744-4.9708-3.4495l-1.4363.7544.6924 1.542c.1313.292.0625.6348-.1704.8545-.2334.2188-.5791.2646-.8628.1172l-2.2202-1.167-2.2202 1.167c-.2884.1506-.6334.098-.8628-.1172-.2329-.2197-.3018-.5625-.1704-.8535z"/><path d="m39.1459 43h14.7097c3.5194-6.9375 1.1444-11.5-2.4219-12.1429.326-2.2637.0912-4.6996-.1245-6.1799-.1002-.6876-.855-1.0597-1.4659-.7285l-2.0843 1.1299c-.3174.1721-.5165.5099-.5228.871-.0881 5.0909-.4307 6.6089-2.3425 10.0504-1.3005 2.3411-2.576 3.6641-5.7478 7z"/><path d="m21.3144 43c-.2039-.8049-.3144-1.6408-.3144-2.5 0-3.858 2.166-7.2704 5.4713-9.3577-.4574-.7922-.8781-1.7265-1.2134-2.928-1.3109-4.6967-2.5709-5.887-4.2644-6.1463.1295-.9361.3978-2.4743.9035-3.9489.2236-.6523-.124-1.3633-.7769-1.5879-.6553-.2217-1.3643.125-1.5884.7773-.6654 1.9402-.9622 3.9313-1.0753 4.8803-1.425.4432-2.5486 1.8505-3.7139 6.0254-1.621 5.8076-5.1834 5.5714-5.7017 11.5-.1022 1.1692-.0047 2.2688.2608 3.2858z"/><path d="m57.0002 45h-50.0002s-6.0714 9.3571 13 16h24.0002c19.0714-6.6429 13-16 13-16z"/></svg>