<svg enable-background="new 0 0 64 64" viewBox="0 0 64 64" xmlns="http://www.w3.org/2000/svg"><path d="m0 0h64v64h-64z" fill="none"/><path d="m54.12 33.85c-.18-1.62-1.55-2.85-3.18-2.85h-5.8c.89 0 1.65-.7 1.72-1.58l1.36-16.33c.02-.28-.07-.55-.26-.76s-.46-.33-.74-.33h-2.7l.94-5.89c.09-.55-.28-1.06-.83-1.14-.55-.09-1.06.28-1.14.83l-1 6.2h-6.6c-.28 0-.55.12-.74.32-.19.21-.28.48-.26.76l1.36 16.33c.08.89.83 1.59 1.72 1.59h-7.97c0-1.1-.9-2-2-2h-2.75v-7.12c1.62-.28 3.12-1.09 4.24-2.34 1.4-1.56 2.06-3.65 1.83-5.72l-.99-8.93c-.06-.51-.49-.89-1-.89h-10.66c-.51 0-.94.38-.99.89l-.99 8.93c-.23 2.08.44 4.17 1.83 5.72 1.11 1.24 2.61 2.06 4.24 2.34v7.12h-2.76c-1.1 0-2 .9-2 2h-4.54c-1.63 0-3 1.23-3.18 2.85l-1.28 11.55 3.21 1.61c2.01 1 4.38 1 6.38 0l.13-.07c1.94-.97 4.22-1.01 6.19-.1l4.09 1.88v14.28h6v-12.74c-1.25.2-2.5.13-3.49-.36-.29-.14-.4-.35-.43-.53 1.38.22 2.81.04 4.11-.56l4.26-1.97c1.99-.92 4.29-.87 6.24.12 2 1.02 4.37 1.04 6.39.05l3.33-1.63zm-7.99-19.85-.67 8h-7.83l-.67-8zm-17.69-8 .78 7h-10.44l.78-7z"/></svg>