<svg enable-background="new 0 0 64 64" viewBox="0 0 64 64" xmlns="http://www.w3.org/2000/svg"><path d="m49.2867 29.2612c-.3153-.0998-.9484-.3375-.9484-.3375s.0458-.6089.0592-.8658c.141-2.7012.472-3.0578-2.1632-3.0579h-7.7305c1.5539-2.9808.9556-5.9024-1.0818-7.9452-.8278-.8301-1.6569-1.6634-2.538-2.4351-2.0608-1.8048-2.8111-3.8957-1.5731-6.4918.1454-.3052.2048-.6515.3954-1.2794-2.8418 1.0681-4.5124 2.8593-5.1549 5.5335-.5918 2.463.129 4.5459 2.0985 6.1648.9387.7716 1.9253 1.4876 2.8353 2.2911 1.0928.965 1.5276 3.1814.9443 4.1621h-5.8765c.5299-2.028-1.0782-2.9094-2.3644-3.9536-.4382-.3558-.8684-.7221-1.2926-1.0945-.9223-.8093-1.3421-1.7863-1.0266-3.0256.0791-.3107.0665-.6448.1158-1.1846-1.6644.9068-2.7447 2.008-2.9871 3.7335-.2306 1.6418.7236 2.6625 1.9652 3.5395.7742.5469 2.4539 1.2884 2.4539 1.9853h-11.4172c-1.6128 0-2.265.736-2.2365 1.9541.0131.5635 1.2442 7.3831 2.1208 10.1364 1.2301 3.8632 2.5217 7.246 5.199 10.2845 12.6399.634 11.9167 2.625 11.9167 2.625h-24c0 2.5821 2.0972 5 4 5h38.6944c1.9026 0 3.3056-2.4179 3.3056-5h-15s1.3119-.5743 2.7683-2.576c.6404-.8803 1.1892-1.1214 2.3521-.7592.8139.2535 1.6866.3846 2.5467.4673 4.584.4405 8.9433-2.717 9.8696-7.1183.9954-4.7309-1.6622-9.3012-6.25-10.7526zm.8976 12.9645c-1.6607 1.43-4.2418 1.7552-6.1075.8273 1.2642-3.472 2.4919-6.8436 3.7325-10.2508 1.6803.1149 3.399 1.5649 4.0392 3.5136.6927 2.1087.0342 4.4476-1.6642 5.9099z"/></svg>