<?xml version="1.0" encoding="utf-8"?>
<!-- Generator: Adobe Illustrator 19.1.0, SVG Export Plug-In . SVG Version: 6.00 Build 0)  -->
<svg version="1.2" baseProfile="tiny" xmlns="http://www.w3.org/2000/svg" xmlns:xlink="http://www.w3.org/1999/xlink" x="0px"
	 y="0px" width="64px" height="64px" viewBox="0 0 64 64" xml:space="preserve">
<g id="Box">
	<rect fill="none" width="64" height="64"/>
</g>
<g id="Icon">
	<g>
		<path d="M31.3279,18.1232c-1.9789-0.7617-4.4176-0.6381-6.6141,0.5438c-3.6871,1.9841-5.2845,6.1784-3.5679,9.3684
			s6.097,4.1675,9.7842,2.1835c1.7492-0.9413,3.0278-2.38,3.7054-3.973c0.5413-1.2725,0.7475-2.4033,0.1858-3.6085
			c-0.3362-0.7214-0.9935-1.4495-2.2773-1.4539c-4.4859-0.0151-6.0212,3.5756-6.3829,4.6613c0,0-0.3041,0.0024-0.3682-0.4398
			c-0.1813-1.2521,0.299-2.9,1.0748-4.0388C28.0399,19.6456,29.9107,18.4647,31.3279,18.1232z"/>
		<path d="M17.2086,48.3399c4.9424-3.4441,11.4232-7.6224,13.142-8.6895c5.8563-3.6368,11.6782-3.6719,15.7405-0.3483
			c0.4774-0.3948,0.8522-0.8049,1.0369-1.2133c0.2441-0.5381,0.4668-1.1304,0.6992-1.7427c0.751-1.9756,1.6006-4.2148,3.3389-5.9678
			c0.7226-0.7286,1.4268-1.3553,2.1077-1.9108c0.0251-3.3269-1.5419-6.4285-4.8901-8.3444
			c1.2121-2.8654,2.0662-6.2023,0.7644-8.5709c-5.2658-9.5813-25.8446-1.5766-29.4986,7.5698
			c1.2051-1.5576,3.1621-2.8862,5.4395-3.6387c3.4727-1.1475,7.4199-0.9287,11.1133,0.6133
			c4.8145,2.0093,7.4346,6.1069,7.0078,10.9609c-0.2617,2.9731-1.7919,5.5375-3.3399,6.1005
			c-0.3508,0.1276-0.4208-0.0614-0.4208-0.0614c2.2861-4.2394,2.1047-10.1855-1.8643-12.7764
			c2.1001,7.4882-3.9058,15.8862-15.2441,15.8862c-8.9764,0-12.6041-8.3778-11.8246-11.582
			c0.0868-0.3569,0.3588-0.3256,0.3588-0.3256c2.1374,4.9172,6.6842,9.0164,12.1094,8.8721
			c-2.8291-1.0801-5.29-3.4214-6.4307-6.1885c-0.8994-2.1826-1.4463-5.6899,1.0615-10.0039
			c2.8388-4.8838,7.5762-7.9058,12.1898-9.7748C20.1875,1.75,9.8039,8.4163,9.6366,17.2217
			c-4.0203,3.1044-6.854,7.3571-6.3945,11.7988c0.4893,4.7289,4.5381,8.5948,9.5959,10.7471
			C13.3981,43.9341,15.4239,46.6736,17.2086,48.3399z"/>
		<path d="M53.8687,40.2144c0,0,9.0667-4.7413,6.7314-13.1338c0,0-3.6045,0.5438-7.8719,4.847
			c-1.922,1.9381-2.6155,4.9014-3.5957,7.0682c-0.5596,1.2371-1.8736,2.2947-3.2805,3.1486
			c-3.6059-4.1799-9.1907-3.8233-14.3414-0.6249c-0.0776,0.0482-0.1641,0.1024-0.2482,0.155
			c2.3136,0.4195,5.506,2.3516,4.9484,8.1428c-0.0421,0.4374-0.2358,0.6033-0.3776,0.4667c0,0-1.6733-7.2531-8.0304-6.3646
			c-0.0214,0.003-0.0354,0.0033-0.0564,0.0061c-1.6409,1.0669-3.5234,2.3083-5.3871,3.5615
			c1.7953,0.3855,4.3494,1.9713,3.8362,6.1309c-0.0375,0.3038-0.2289,0.426-0.3563,0.3328c0,0-1.2057-4.674-6.1241-4.6673
			c-3.0846,2.1191-5.726,4.0298-6.5468,4.8692c-1.9693,2.0137-1.0112,5.056,2.1647,4.7958c3.94-0.3228,13.8218-1.2472,23.6356-2.335
			c7.7241-0.8561,10.0921-6.3194,8.8751-10.8129c1.1674-0.3202,2.4755-0.6236,3.1812-0.6012
			c1.4643,0.0465,2.6817,2.1006,5.8677,2.1651s6.5826-2.0422,6.5826-2.0422S59.6522,39.262,53.8687,40.2144z"/>
	</g>
</g>
</svg>
