<svg height="64" viewBox="0 0 64 64" width="64" xmlns="http://www.w3.org/2000/svg"><path d="m0 0h64v64h-64z" fill="none"/><path d="m31.3279 18.1232c-1.9789-.7617-4.4176-.6381-6.6141.5438-3.6871 1.9841-5.2845 6.1784-3.5679 9.3684s6.097 4.1675 9.7842 2.1835c1.7492-.9413 3.0278-2.38 3.7054-3.973.5413-1.2725.7475-2.4033.1858-3.6085-.3362-.7214-.9935-1.4495-2.2773-1.4539-4.4859-.0151-6.0212 3.5756-6.3829 4.6613 0 0-.3041.0024-.3682-.4398-.1813-1.2521.299-2.9 1.0748-4.0388 1.1722-1.7206 3.043-2.9015 4.4602-3.243z"/><path d="m17.2086 48.3399c4.9424-3.4441 11.4232-7.6224 13.142-8.6895 5.8563-3.6368 11.6782-3.6719 15.7405-.3483.4774-.3948.8522-.8049 1.0369-1.2133.2441-.5381.4668-1.1304.6992-1.7427.751-1.9756 1.6006-4.2148 3.3389-5.9678.7226-.7286 1.4268-1.3553 2.1077-1.9108.0251-3.3269-1.5419-6.4285-4.8901-8.3444 1.2121-2.8654 2.0662-6.2023.7644-8.5709-5.2658-9.5813-25.8446-1.5766-29.4986 7.5698 1.2051-1.5576 3.1621-2.8862 5.4395-3.6387 3.4727-1.1475 7.4199-.9287 11.1133.6133 4.8145 2.0093 7.4346 6.1069 7.0078 10.9609-.2617 2.9731-1.7919 5.5375-3.3399 6.1005-.3508.1276-.4208-.0614-.4208-.0614 2.2861-4.2394 2.1047-10.1855-1.8643-12.7764 2.1001 7.4882-3.9058 15.8862-15.2441 15.8862-8.9764 0-12.6041-8.3778-11.8246-11.582.0868-.3569.3588-.3256.3588-.3256 2.1374 4.9172 6.6842 9.0164 12.1094 8.8721-2.8291-1.0801-5.29-3.4214-6.4307-6.1885-.8994-2.1826-1.4463-5.6899 1.0615-10.0039 2.8388-4.8838 7.5762-7.9058 12.1898-9.7748-9.6177-5.4537-20.0013 1.2126-20.1686 10.018-4.0203 3.1044-6.854 7.3571-6.3945 11.7988.4893 4.7289 4.5381 8.5948 9.5959 10.7471.5601 4.1665 2.5859 6.906 4.3706 8.5723z"/><path d="m53.8687 40.2144s9.0667-4.7413 6.7314-13.1338c0 0-3.6045.5438-7.8719 4.847-1.922 1.9381-2.6155 4.9014-3.5957 7.0682-.5596 1.2371-1.8736 2.2947-3.2805 3.1486-3.6059-4.1799-9.1907-3.8233-14.3414-.6249-.0776.0482-.1641.1024-.2482.155 2.3136.4195 5.506 2.3516 4.9484 8.1428-.0421.4374-.2358.6033-.3776.4667 0 0-1.6733-7.2531-8.0304-6.3646-.0214.003-.0354.0033-.0564.0061-1.6409 1.0669-3.5234 2.3083-5.3871 3.5615 1.7953.3855 4.3494 1.9713 3.8362 6.1309-.0375.3038-.2289.426-.3563.3328 0 0-1.2057-4.674-6.1241-4.6673-3.0846 2.1191-5.726 4.0298-6.5468 4.8692-1.9693 2.0137-1.0112 5.056 2.1647 4.7958 3.94-.3228 13.8218-1.2472 23.6356-2.335 7.7241-.8561 10.0921-6.3194 8.8751-10.8129 1.1674-.3202 2.4755-.6236 3.1812-.6012 1.4643.0465 2.6817 2.1006 5.8677 2.1651s6.5826-2.0422 6.5826-2.0422-3.823-6.0602-9.6065-5.1078z"/></svg>