<svg height="64" viewBox="0 0 64 64" width="64" xmlns="http://www.w3.org/2000/svg"><path d="m0 0h64v64h-64z" fill="none"/><path d="m39.0711 11.071-3.3976-3.2976c-1.0423.2646-2.3355.3266-3.6735.3266-1.3401 0-2.6356-.0621-3.6789-.3211l-3.3921 3.2921c-1.8754 1.8754-2.929 4.419-2.929 7.0712v33.775c0 2.0385.3666 4.0602 1.0823 5.9689l1.1877 3.1673c.4391 1.1708 1.5585 1.9466 2.809 1.9466h1.0126c.5923 0 1.1713-.1753 1.6641-.5038l.9156-.6014s-1.486-2.1068-1.7633-2.5149c-.223-.3283-.0112-.4943-.0112-.4943s2.92 1.9973 5.6337 3.7723c.4252.2204.8958.3421 1.3778.3421h1.0126c1.2505 0 2.3699-.7758 2.809-1.9467l1.1877-3.1673c.7158-1.9086 1.0824-3.9304 1.0824-5.9689v-33.775c0-2.6521-1.0535-5.1957-2.9289-7.0711zm.9289 20.929h-16v-11h16z"/><path d="m32 6c2.2095 0 4-.278 4-.7143-.0404-.973-.1261-2.1044-.3087-3.1038-.1261-.6914-.6811-1.1819-1.3191-1.1819h-4.7443c-.638 0-1.1931.4905-1.3192 1.1819-.1826.9994-.2682 2.1308-.3087 3.1038 0 .4363 1.7905.7143 4 .7143z"/></svg>