<svg enable-background="new 0 0 64 64" height="64" viewBox="0 0 64 64" width="64" xmlns="http://www.w3.org/2000/svg"><path d="m0 0h64v64h-64z" fill="none"/><path d="m19.2 24.2c1.2.2 2.4.5 3.6.9-1.2-1.4-.8-3.4.6-4.4-1.2-1.5-.7-3.7 1-4.6-1.1-1.5-.6-3.6 1-4.4-.8-1.5-.2-3.3 1.2-4.1-.3-1.9 1.2-3.5 3-3.5.5 0 1 .1 1.4.4.4-.2.9-.4 1.4-.4 1.8 0 3.3 1.6 3 3.5 1.4.8 2 2.6 1.2 4.1 1.6.9 2 2.9 1 4.4 1.7.9 2.2 3 1 4.6 1.5 1 1.8 3.1.5 4.5 1.3 1.1 1.6 3 .4 4.3 1.3-.6 2.5-1.1 3.7-1.5.1-1.1-.1-2.1-.6-3.1.5-1.6.3-3.3-.6-4.7.4-1.7.1-3.5-1-5 .2-1.6-.2-3.1-1.1-4.4.1-1.7-.4-3.3-1.6-4.6-.5-2.9-3-5.1-6-5.1-.5 0-1 .1-1.4.2-.5-.1-.9-.2-1.4-.2-3 0-5.5 2.2-6 5.1-1 1.2-1.6 2.8-1.5 4.5-1 1.3-1.4 3-1.2 4.6-1 1.4-1.4 3.2-1 4.9-.6 1.1-.9 2.5-.6 4z"/><path d="m52 29.3c-2.8-.4-9.6-.2-15.7 5-5 4.3-6.6 11.9-6.6 11.9s-.3.2-.3-.3c-.2-1.5-.1-5.9 2.8-10.8-5.5-9.1-15.8-9.6-21.3-8.8-.4.1-.6.7-.2.9 1.8 1.2 4.4 3.8 6 7.8 2.7 6.8-.2 14.4 4.1 20.2 1.3 1.8 3.3 3.1 6.2 3.6v1.9c0 1.2 1.8 2.2 4 2.2s4-1 4-2.2v-2c2.8-.5 4.8-1.9 6.2-3.7 4.8-6.2.9-12 5-19.1 1.2-2.1 3.1-4.1 5.9-5.8.5-.1.3-.7-.1-.8z"/></svg>