<svg height="64" viewBox="0 0 64 64" width="64" xmlns="http://www.w3.org/2000/svg"><path d="m0 0h64v64h-64z" fill="none"/><path d="m34.9961 33.2844c-.3174.2383-.4942-.0129-.4942-.0129s6.1075-8.0527 6.8741-9.6025c1.5829-3.1998-.4105-5.4621-1.332-6.6613-.6716-.874-1.9779-2.5986-2.6388-3.472-1.2677.3187-3.0342.5459-5.4052.5459s-4.1375-.2272-5.4052-.5458c-.6609.8734-1.9673 2.598-2.6389 3.472-.9215 1.1992-2.886 3.4473-1.332 6.6613.7596 1.5709.8906 1.8134 1.0704 2.1396 1.1581 2.1016-1.6943 4.2913-1.6943 10.1913.0693 5.7515.2616 15.3495.499 18.8203.2175 3.1797 3.501 4.1797 9.501 4.1797s9.2835-1 9.501-4.1797c.2374-3.4708.4297-13.0688.499-18.8203 0-3.2689-.8745-5.3964-1.4585-7.0035z"/><path d="m37.5369 6.6547c-.1891-.9681-1.0216-1.6547-1.9787-1.6547h-7.1165c-.957 0-1.7896.6866-1.9787 1.6547-.2739 1.3991-.4023 2.9831-.463 4.3453 0 .6108 2.6858 1 6 1s6-.3892 6-1c-.0607-1.3622-.1891-2.9462-.4631-4.3453z"/></svg>