<svg height="64" viewBox="0 0 64 64" width="64" xmlns="http://www.w3.org/2000/svg"><path d="m0 0h64v64h-64z" fill="none"/><path d="m45.4402 21.9142c.0911.8096.9412 1.3215 1.7408 1.1652 2.6471-.5174 8.1819-2.2651 10.2808-7.9774.11-.2993-.0928-.6254-.4093-.6645-1.3519-.167-4.7194-.3989-7.5007.9237-.189 2.384-.8309 4.6271-.9769 5.0351-.1122.3136-.2849.2949-.3426.2786 0 0-.2177-4.6816-.9921-8.6861-.2411-1.2473-1.0693-1.5765-2.2397-1.3729-1.1282.1963-2.2103.8931-1.8455 1.9576 1.2816 3.7397 1.8365 5.3534 2.2852 9.3407z"/><path d="m56.1491 25.561c-4.6533-3.225-6.538.2347-9.8798-.6653-3.3419-.9-3.5248-4.6045-8.8777-4.3865-2.8301.1153-5.4337 2.8292-6.9935 6.691 1.5261 6.2155 5.3664 11.6723 7.8677 18.6917.8088-.204 1.5738-.3661 2.3883-.1468 2.0482.5516 2.6119 3.026 5.6975 3.53 2.7687.4522 5.3762.2154 9.4039-6.1537 4.2204-6.6738 4.2508-14.8871.3936-17.5604z"/><path d="m36.6213 54.3615c.769-1.4719.9995-3.29.5506-5.1915-1.2933-5.4737-6.0713-13.6288-7.6108-17.873-3.2941-9.0883-2.0657-16.9735.0745-26.3438.0696-.3047-.1526-.6015-.4648-.6141l-5.9452-.2408c-.1986-.008-.3813.0993-.4687.2779-.5257 1.0747-1.438 3.082-2.3 7.9822-1.1128-4.1704-1.746-8.4594-1.935-9.8449-.0359-.263-.2698-.4441-.5344-.4228l-6.9519.5603c-.2624.0212-.4688.2353-.465.4986.0246 1.7241.2608 3.7264.5573 5.605 3.259 2.6574 9.3557 6.7824 13.0856 16.8103.1161.3123-.0773.4027-.1345.4207-3.891-6.2733-9.7688-12.0376-16.74-15.9583-.1893-.1065-.4276-.0785-.5886.0673l-4.362 3.9524c-.2315.2098-.2119.5799.0367.7693 7.6592 5.8353 13.6428 11.0923 16.9354 20.1779 1.5374 4.2455 3.0938 13.5694 5.6079 18.5977.8531 1.7083 2.2032 2.9654 3.7599 3.6149-.9766 1.7397-.535 3.9973.7002 4.252.8805.1816 2.2709-.9257 2.3434-3.0946.5267 1.2268 1.5759 1.9628 2.4282 1.654.8523-.3089 1.1863-1.5463.8046-2.8257 1.4452 1.6188 3.2224 1.5781 3.782.8746.679-.8538-.1012-2.9044-2.1654-3.7056zm-4.4177.1473c-1.7285.626-3.5952-.3418-4.5518-2.2578-1.66-3.32-2.949-9.072-4.0939-13.5414l6.077.0349c1.7013 3.5273 3.87 7.9538 4.6169 11.1149.4098 1.7334-.0565 3.9277-2.0482 4.6494z"/></svg>