<svg enable-background="new 0 0 64 64" viewBox="0 0 64 64" xmlns="http://www.w3.org/2000/svg"><path d="m0 0h64v64h-64z" fill="none"/><path d="m57.832 20.748-3.832-5.748v-7c0-.552-.448-1-1-1h-42c-.552 0-1 .448-1 1v7l-3.832 5.748c-.109.164-.168.357-.168.555v2.697c0 .552.448 1 1 1h3v30h44v-30h3c.552 0 1-.448 1-1v-2.697c0-.198-.058-.391-.168-.555zm-29.832.252.667-6h6.667l.666 6v4h-8zm-15 0 3.167-6h6.667l-1.834 6v4h-8zm24 29h-22v-21h22zm12 0h-9v-21h9zm2-29v4h-8v-4h-.001.001l-1.833-6h6.667z"/><path d="m20.368 44.668c-.64.64-.308 1.297-.007 1.593.538.529 1.759 1.048 3.625-1.103.549-.633.953-1.208 1.643-2.19-.53-.609-1.085-1.249-1.654-1.907z"/><path d="m33.228 33.276c-.002-.541-.659-.81-1.041-.427l-4.596 4.596c.896.781 1.754 1.534 2.54 2.228 1.493-2.007 3.102-4.589 3.097-6.397z"/><path d="m22.31 39.815c.594.595 1.731.571 2.712.009 3.457 4.03 5.534 6.482 5.745 6.692.488.488 1.315.31 1.938-.312.622-.622.802-1.45.313-1.938-.2-.2-2.748-2.388-6.673-5.788.538-.971.557-2.082-.029-2.668l-4.006-3.505c-.147-.133-.362-.138-.502.002s-.132.351.001.499l3.163 3.627c.117.148.104.367-.031.502-.141.14-.379.159-.527.026l-3.606-3.155c-.147-.132-.36-.138-.5.001-.138.14-.133.353-.001.5l3.155 3.606c.133.148.114.386-.027.527-.135.135-.354.149-.502.031l-3.627-3.163c-.148-.133-.358-.142-.499-.001-.14.14-.135.354-.002.502z"/></svg>