<svg height="64" viewBox="0 0 64 64" width="64" xmlns="http://www.w3.org/2000/svg"><path d="m0 0h64v64h-64z" fill="none"/><circle cx="52" cy="19" r="2"/><circle cx="41.5" cy="11.5" r="1.5"/><circle cx="47.5" cy="23.5" r="1.5"/><path d="m43.4511 29.2509c-.1084-.4453-.5049-.7705-.9629-.7569-2.4951.0713-4.957-1.1572-6.3545-3.4384-1.3525-2.209-1.3613-5.254.168-7.2374.4316-.5595.1963-1.4062-.4883-1.583-2.0918-.54-3.8027-2.038-4.0908-4.3789-.2403-1.9492.5732-3.6782 1.9902-4.8345-11.529.1923-23.9714 4.4399-22.5176 16.2369.6641 5.3955 2.3994 5.8291 5.4375 7.789.5244 4.2569.5039 17.8858 2.5205 23.7569.7344 2.1367 2.9727 3.4453 5.3301 3.1553l5.1787-.6377 10.959-1.2452 6.8799-.6386c2.3574-.2901 4.2109-2.1026 4.4023-4.3535.5352-6.1846-1.5781-16.4375-1.7929-18.1827-2.877.2111-5.9278-.6513-6.6592-3.6513z"/></svg>