<?xml version="1.0" encoding="utf-8"?>
<!-- Generator: Adobe Illustrator 18.0.0, SVG Export Plug-In . SVG Version: 6.00 Build 0)  -->
<svg version="1.2" baseProfile="tiny" xmlns="http://www.w3.org/2000/svg" xmlns:xlink="http://www.w3.org/1999/xlink" x="0px"
	 y="0px" width="64px" height="64px" viewBox="0 0 64 64" xml:space="preserve">
<g id="_x36_4px_box">
	<rect fill="none" width="64" height="64"/>
</g>
<g id="icon">
	<circle cx="52" cy="19" r="2"/>
	<circle cx="41.5" cy="11.5" r="1.5"/>
	<circle cx="47.5" cy="23.5" r="1.5"/>
	<path d="M43.4511,29.2509c-0.1084-0.4453-0.5049-0.7705-0.9629-0.7569c-2.4951,0.0713-4.957-1.1572-6.3545-3.4384
		c-1.3525-2.209-1.3613-5.254,0.168-7.2374c0.4316-0.5595,0.1963-1.4062-0.4883-1.583c-2.0918-0.54-3.8027-2.038-4.0908-4.3789
		c-0.2403-1.9492,0.5732-3.6782,1.9902-4.8345c-11.529,0.1923-23.9714,4.4399-22.5176,16.2369
		c0.6641,5.3955,2.3994,5.8291,5.4375,7.789c0.5244,4.2569,0.5039,17.8858,2.5205,23.7569
		c0.7344,2.1367,2.9727,3.4453,5.3301,3.1553l5.1787-0.6377l10.959-1.2452l6.8799-0.6386c2.3574-0.2901,4.2109-2.1026,4.4023-4.3535
		c0.5352-6.1846-1.5781-16.4375-1.7929-18.1827C47.2333,33.1133,44.1825,32.2509,43.4511,29.2509z"/>
</g>
</svg>
