<svg height="64" viewBox="0 0 64 64" width="64" xmlns="http://www.w3.org/2000/svg"><path d="m0 0h64v64h-64z" fill="none"/><path d="m30.6906 61.2372c.3865.9081 1.7992.9079 2.1854-.0004l9.7334-29.2368h-21.6513z"/><path d="m41 21c1.7222-.8889 3.7778-5.2778-1-7.7692-1.6024 2.1755-4.0071 3.2011-6.355 3.848-.6378.1757-1.725.3587-1.7556-.0788 0 0 16.9182-7.877-.762-14.9766-.6579-.2642-1.3435.3498-1.0628.9766.8645 1.9308 2.3437 4.4033-.0646 6.0236-3.726 2.5067-8 4.3163-8 7.9764 0 2.8461 2.7947 6.4178 12 6 0 0 .2917.8333-2.1089 1.2881-3.3398.6327-10.3077-.0798-11.9744-5.0381-2.4 2.7959-2.8167 7.65.6868 10.75h22.4706c3.8704-3.8333.9814-8.6111-2.0741-9z"/></svg>