<svg height="64" viewBox="0 0 64 64" width="64" xmlns="http://www.w3.org/2000/svg"><path d="m0 0h64v64h-64z" fill="none"/><path d="m50.064 12.7339c-4.5668-4.4069-10.6519-7.3692-13.6446-4.3735-.1942.1932-.3179.3201-14.5629 21.558l-3.5687 2.4308c3.0403 1.2445 6.2591 4.6039 7.3966 7.757.115.3188-.0844.3203-.1341.3039-.451-.5478-.9331-1.0942-1.4689-1.63-3.671-3.671-7.9015-5.4726-9.399-3.9751-1.5089 1.5089.2697 5.7339 3.9725 9.4368 3.7029 3.7029 7.9279 5.4815 9.4368 3.9726.2287-.2285 4.4031-6.6971 4.5796-6.968 21.5488-14.4534 21.6678-14.5713 21.8634-14.7664 3.3791-3.3797-1.0642-10.4588-4.4707-13.7461zm1.5239 10.7368c-1.6392 1.1294-11.6899 7.8833-19.3984 13.0552-1.5849-2.637-3.1894-4.4678-5.7402-5.9351 5.1157-7.625 11.7358-17.4766 12.9458-19.2368.8145-.1611 4.0287.6635 7.7563 4.3911 3.7965 3.7966 4.5869 7.0493 4.4365 7.7256z"/><circle cx="11.5093" cy="46.451" r="2.3183"/><circle cx="18.5013" cy="52.4831" r="2.3183"/><circle cx="9.4982" cy="54.4586" r="2.3183"/></svg>