<?xml version="1.0" encoding="utf-8"?>
<!-- Generator: Adobe Illustrator 19.1.0, SVG Export Plug-In . SVG Version: 6.00 Build 0)  -->
<svg version="1.2" baseProfile="tiny" xmlns="http://www.w3.org/2000/svg" xmlns:xlink="http://www.w3.org/1999/xlink" x="0px"
	 y="0px" width="64px" height="64px" viewBox="0 0 64 64" xml:space="preserve">
<g id="_x36_4px_Box">
	<rect fill="none" width="64" height="64"/>
</g>
<g id="Icon">
	<g>
		<path d="M18.9899,24h26.0201C46.109,24,47,23.1045,47,22v-1.9243C47,16.7256,44.2881,14,40.9548,14H35V8.3738
			c0-1.7701-2.6356-4.0231-4.494-5.1188C29.8354,2.8596,29,3.1819,29,3.9603v8.7651c2.1276,0.4642,3.9953,0.8737,4.134,0.9105
			c0.322,0.0854,0.2708,0.3079,0.2499,0.3641H23.0452C19.7119,14,17,16.7256,17,20.0757V22C17,23.1045,17.891,24,18.9899,24z"/>
		<path d="M48.0581,47.8301l-1.7163-4.709c-0.8398-2.3062-1.3461-4.7188-1.3461-7.1714V26H41v9.9497
			c0,2.9214,0.583,5.7949,1.584,8.541l1.7163,4.709c0.6582,1.8066,0.4033,3.7466-0.6992,5.3218S40.7632,57,38.8408,57H25.1592
			c-1.9224,0-3.6577-0.9033-4.7603-2.4785s-1.3574-3.5151-0.6992-5.3218l1.7163-4.7095C22.417,41.7446,23,38.8711,23,35.9497V26
			h-3.9957v9.9497c0,2.4526-0.5063,4.8652-1.3461,7.1714l-1.7163,4.7095c-1.0952,3.0054-0.6543,6.3638,1.1802,8.9844
			C18.9561,59.4355,21.9609,61,25.1592,61h13.6816c3.1982,0,6.2031-1.5645,8.0371-4.1851
			C48.7124,54.1943,49.1533,50.8359,48.0581,47.8301z"/>
		<path d="M29,26v11.7434c-0.5468-0.1859-1.1422-0.3312-1.8018-0.3495c-0.6304-0.0168-1.3807,0.1295-2.1616,0.3627
			c-0.084,1.1301-0.2461,2.2488-0.4703,3.3567c1.0131-0.4184,1.9482-0.7208,2.507-0.7208c0.7911,0,1.6213,0.437,2.3208,0.8066
			c0.6729,0.3555,1.3086,0.6909,2.0132,0.6909c0.8662,0,1.5864-0.5732,2.6763-1.4409c0.9136-0.7271,2.1646-1.7231,3.0298-1.8745
			c0.521-0.0907,1.2628,0.1946,2.0089,0.6245c-0.1441-1.1212-0.2404-2.2494-0.2435-3.3881
			c-0.7437-0.2272-1.5191-0.3246-2.2806-0.1915c-0.546,0.0953-1.0803,0.3025-1.5981,0.5656V26H29z"/>
	</g>
</g>
</svg>
