<svg height="64" viewBox="0 0 64 64" width="64" xmlns="http://www.w3.org/2000/svg"><path d="m0 0h64v64h-64z" fill="none"/><path d="m22.3252 39.5811c.4385-.5288 1.1099-.8159 1.7842-.7954.5317.0215 1.0488.0581 1.5508.1069-.251-.2915-.4258-.6489-.4976-1.0391-.1343-.7339.1118-1.4854.6538-1.9976 1.6313-1.5391 3.4189-2.9746 5.3145-4.2661.3687-.251.8052-.3501 1.2505-.3823 1.1904.0063 2.3105.0864 3.3608.2207-.1738-.3159-.2705-.6758-.2725-1.0508-.0034-.8564.4902-1.6372 1.2651-2.0015.5734-.269 1.1526-.5105 1.735-.7328 1.1054-3.5723 1.6334-7.601 1.4854-11.9162-.0818-2.3568-1.7428-4.2679-3.928-4.7991l-.02-1.0993 1.1663-2.3561-1.7451.1906-1.6516-.7059-.8956.6141-1.4621.0958 1.7841 2.313.0193 1.0584c-2.1189.6941-3.6258 2.7006-3.5457 5.0411.291 8.4734-2.6795 13.4685-5.5566 15.3173-2.0281 1.3032-4.2854 1.3512-6.7092.1423s-3.7425-3.0405-3.9216-5.4445c-.2538-3.4109 1.9492-8.7887 8.8926-13.6534 1.9161-1.3426 2.6127-3.7509 1.8954-5.8599l.8606-.6238 2.921.0336-.803-1.2256-.0483-1.0848-1.5576-.8947-.8978-1.5085-1.1804 2.349-.8765.6355c-.3008-.2477-.6229-.4617-.9645-.6321-1.6339-.8149-3.6504-.7321-5.2509.3888-8.8947 6.232-13.8466 14.77-13.2459 22.8384.4466 6.0081 3.9412 11.069 9.5878 13.8852 2.3831 1.1886 4.8548 1.8238 7.2972 1.9237.6444-1.045 1.3731-2.0784 2.2061-3.0849z"/><path d="m58.2546 32.6989c-3.9365-4.5864-12.4556-6.1473-20.5848-2.3314 5.1169 2.3466 7.3054 5.1746 7.9429 5.9706.5204.6498.6437 1.0557.3915 1.2073-1.0352-.6666-5.6123-4.095-13.6347-4.1379-1.8147 1.2372-3.5023 2.5944-5.0428 4.0484 5.8989 2.4484 8.3365 5.7051 9.017 6.5549.5203.6498.5922.9785.3882 1.0944-1.0461-.4212-5.2626-3.8193-12.7115-4.1212-10.4375 12.6123-3.7374 28.0016 15.8873 19.195 6.1429-2.7567 12.5322-7.7421 15.8298-11.1465 6.7336-6.9516 5.7851-12.5259 2.5171-16.3336z"/></svg>