<?xml version="1.0" encoding="utf-8"?>
<!-- Generator: Adobe Illustrator 19.1.0, SVG Export Plug-In . SVG Version: 6.00 Build 0)  -->
<svg version="1.2" baseProfile="tiny" xmlns="http://www.w3.org/2000/svg" xmlns:xlink="http://www.w3.org/1999/xlink" x="0px"
	 y="0px" width="64px" height="64px" viewBox="0 0 64 64" xml:space="preserve">
<g id="_x36_4px_Box">
	<rect fill="none" width="64" height="64"/>
</g>
<g id="Icon">
	<g>
		<path d="M22.3252,39.5811c0.4385-0.5288,1.1099-0.8159,1.7842-0.7954c0.5317,0.0215,1.0488,0.0581,1.5508,0.1069
			c-0.251-0.2915-0.4258-0.6489-0.4976-1.0391c-0.1343-0.7339,0.1118-1.4854,0.6538-1.9976
			c1.6313-1.5391,3.4189-2.9746,5.3145-4.2661c0.3687-0.251,0.8052-0.3501,1.2505-0.3823c1.1904,0.0063,2.3105,0.0864,3.3608,0.2207
			c-0.1738-0.3159-0.2705-0.6758-0.2725-1.0508c-0.0034-0.8564,0.4902-1.6372,1.2651-2.0015
			c0.5734-0.269,1.1526-0.5105,1.735-0.7328c1.1054-3.5723,1.6334-7.601,1.4854-11.9162c-0.0818-2.3568-1.7428-4.2679-3.928-4.7991
			l-0.02-1.0993l1.1663-2.3561L35.4284,7.663l-1.6516-0.7059l-0.8956,0.6141L31.4191,7.667l1.7841,2.313l0.0193,1.0584
			c-2.1189,0.6941-3.6258,2.7006-3.5457,5.0411c0.291,8.4734-2.6795,13.4685-5.5566,15.3173
			c-2.0281,1.3032-4.2854,1.3512-6.7092,0.1423c-2.4238-1.2089-3.7425-3.0405-3.9216-5.4445
			c-0.2538-3.4109,1.9492-8.7887,8.8926-13.6534c1.9161-1.3426,2.6127-3.7509,1.8954-5.8599l0.8606-0.6238l2.921,0.0336
			l-0.803-1.2256l-0.0483-1.0848L25.6501,2.786l-0.8978-1.5085l-1.1804,2.349L22.6954,4.262
			c-0.3008-0.2477-0.6229-0.4617-0.9645-0.6321c-1.6339-0.8149-3.6504-0.7321-5.2509,0.3888
			c-8.8947,6.232-13.8466,14.77-13.2459,22.8384c0.4466,6.0081,3.9412,11.069,9.5878,13.8852
			c2.3831,1.1886,4.8548,1.8238,7.2972,1.9237C20.7635,41.621,21.4922,40.5876,22.3252,39.5811z"/>
		<path d="M58.2546,32.6989c-3.9365-4.5864-12.4556-6.1473-20.5848-2.3314c5.1169,2.3466,7.3054,5.1746,7.9429,5.9706
			c0.5204,0.6498,0.6437,1.0557,0.3915,1.2073c-1.0352-0.6666-5.6123-4.095-13.6347-4.1379
			c-1.8147,1.2372-3.5023,2.5944-5.0428,4.0484c5.8989,2.4484,8.3365,5.7051,9.017,6.5549
			c0.5203,0.6498,0.5922,0.9785,0.3882,1.0944c-1.0461-0.4212-5.2626-3.8193-12.7115-4.1212
			C13.5829,53.5963,20.283,68.9856,39.9077,60.179c6.1429-2.7567,12.5322-7.7421,15.8298-11.1465
			C62.4711,42.0809,61.5226,36.5066,58.2546,32.6989z"/>
	</g>
</g>
</svg>
