<?xml version="1.0" encoding="utf-8"?>
<!-- Generator: Adobe Illustrator 22.1.0, SVG Export Plug-In . SVG Version: 6.00 Build 0)  -->
<!DOCTYPE svg PUBLIC "-//W3C//DTD SVG 1.1//EN" "http://www.w3.org/Graphics/SVG/1.1/DTD/svg11.dtd">
<svg version="1.1" xmlns="http://www.w3.org/2000/svg" xmlns:xlink="http://www.w3.org/1999/xlink" x="0px" y="0px" width="64px"
	 height="64px" viewBox="0 0 64 64" style="enable-background:new 0 0 64 64;" xml:space="preserve">
<style type="text/css">
	.st0{fill:none;}
	.st1{fill:#FFFFFF;}
</style>
<g id="_x36_4px_Box">
	<rect class="st0" width="64" height="64"/>
</g>
<g id="Icon">
	<g>
		<g>
			<path d="M61.5,36.2c-0.2-0.9-0.3-1.3-1.4-2.8c-1.7-2.3-7.4-8.7-12.9-11.7c-2.1-1.2-4.3-0.7-5.8,1.2c-0.9,1.1-1.8,2.1-2.9,3
				c0.8-3.2,1.2-6.7,1.1-10.4c-0.1-2.4-1.7-4.3-3.9-4.8l0-1.1l1.2-2.4l-1.7,0.2l-1.7-0.7l-0.9,0.6l-1.5,0.1l1.8,2.3l0,1.1
				c-2.1,0.7-3.6,2.7-3.5,5c0.3,8.5-2.7,13.5-5.6,15.3c-2,1.3-4.3,1.4-6.7,0.1s-3.7-3-3.9-5.4c-0.3-3.4,1.9-8.8,8.9-13.7
				c1.9-1.3,2.6-3.8,1.9-5.9l0.9-0.6l2.9,0L27,4.6l0-1.1l-1.6-0.9l-0.9-1.5l-1.2,2.3l-0.9,0.6c-0.3-0.2-0.6-0.5-1-0.6
				c-1.6-0.8-3.7-0.7-5.3,0.4C7.3,10.1,2.3,18.6,2.9,26.7c0.4,6,3.9,11.1,9.6,13.9c1.9,1,3.9,1.6,5.9,1.8c-0.3,0.4-0.5,0.9-0.7,1.3
				c-0.5,1.3-0.6,2.7-0.6,3.9c-0.2,3-0.1,6.8,0.2,8.9c0.3,2,1.8,3.6,3.7,4c1,0.2,1.6,0.1,3-0.1c14-1.6,24.6-3.8,33.3-7
				c1.3-0.5,3.8-1.4,4.3-4.6C62,46.5,62.3,39.6,61.5,36.2z M21.8,42.9L21.8,42.9c1.3-1.6,3.3-3,5-4.2c2.5-1.8,4.7-2.7,5.8-5
				c0.4-0.8,1.4-1.5,2.3-1.9c3.6-1.6,6.6-3.9,9.1-7c0.6-0.8,1.1-0.9,2-0.4c3.3,1.8,6.5,4.7,9.1,7.6c1,1.1,2.2,2.5,2.9,3.4
				c-4.6-0.7-8.2,2.3-9.9,2.7c-2.9,0.7-7.2-0.1-9.7,2.2c-0.6,0.6-1.3,1-2,1.3c0,0,0,0,0,0c-0.8,0.4-1.7,0.4-2.3,0.3
				c-3.7-0.6-6.2,0.3-9.1,1.2c-2.5,0.8-4.4,2-4.4,2C20.6,44.4,21.1,43.6,21.8,42.9z M59,41.6c0,2.6-0.1,5.3-0.3,6.7
				c-0.2,1.3-1,1.8-2.4,2.3c-9.5,3.5-21,5.6-33.9,7c-1,0.1-1.9-0.6-2-1.5c-0.2-1.3-0.4-3.2-0.3-5.2c0.1-1.6,0-2.1,1.8-3.1
				c1.4-0.7,1.9-1,2.2-1.1c1.9-0.8,4-1.6,5-1.7c1.8-0.2,3,1.9,3.6,2.5c0.9,0.9,1.9,1.5,3,1.4c1.9,0,2.9-0.8,3.6-1.8
				c1.8-2.4,2.3-5.6,5.2-5.7c0.7,0,2.9-0.2,4.2-0.5c0.8-0.2,1.6-0.6,2.5-1.1c1.7-0.8,3.7-2,6-1.6C59.1,38.6,59,40.8,59,41.6z
				 M47.5,43.6c-0.8,0-1.4,0.6-1.4,1.4c0,0.8,0.6,1.4,1.4,1.4c0.8,0,1.4-0.6,1.4-1.4C48.9,44.3,48.3,43.6,47.5,43.6z M53.6,43.7
				c-1,0-1.8,0.8-1.8,1.8c0,1,0.8,1.8,1.8,1.8s1.8-0.8,1.8-1.8C55.4,44.5,54.6,43.7,53.6,43.7z"/>
		</g>
	</g>
</g>
</svg>
