<svg enable-background="new 0 0 64 64" height="64" viewBox="0 0 64 64" width="64" xmlns="http://www.w3.org/2000/svg"><path d="m0 0h64v64h-64z" fill="none"/><path d="m61.5 36.2c-.2-.9-.3-1.3-1.4-2.8-1.7-2.3-7.4-8.7-12.9-11.7-2.1-1.2-4.3-.7-5.8 1.2-.9 1.1-1.8 2.1-2.9 3 .8-3.2 1.2-6.7 1.1-10.4-.1-2.4-1.7-4.3-3.9-4.8v-1.1l1.2-2.4-1.7.2-1.7-.7-.9.6-1.5.1 1.8 2.3v1.1c-2.1.7-3.6 2.7-3.5 5 .3 8.5-2.7 13.5-5.6 15.3-2 1.3-4.3 1.4-6.7.1s-3.7-3-3.9-5.4c-.3-3.4 1.9-8.8 8.9-13.7 1.9-1.3 2.6-3.8 1.9-5.9l.9-.6h2.9l-.8-1v-1.1l-1.6-.9-.9-1.5-1.2 2.3-.9.6c-.3-.2-.6-.5-1-.6-1.6-.8-3.7-.7-5.3.4-8.8 6.3-13.8 14.8-13.2 22.9.4 6 3.9 11.1 9.6 13.9 1.9 1 3.9 1.6 5.9 1.8-.3.4-.5.9-.7 1.3-.5 1.3-.6 2.7-.6 3.9-.2 3-.1 6.8.2 8.9.3 2 1.8 3.6 3.7 4 1 .2 1.6.1 3-.1 14-1.6 24.6-3.8 33.3-7 1.3-.5 3.8-1.4 4.3-4.6.4-2.3.7-9.2-.1-12.6zm-39.7 6.7c1.3-1.6 3.3-3 5-4.2 2.5-1.8 4.7-2.7 5.8-5 .4-.8 1.4-1.5 2.3-1.9 3.6-1.6 6.6-3.9 9.1-7 .6-.8 1.1-.9 2-.4 3.3 1.8 6.5 4.7 9.1 7.6 1 1.1 2.2 2.5 2.9 3.4-4.6-.7-8.2 2.3-9.9 2.7-2.9.7-7.2-.1-9.7 2.2-.6.6-1.3 1-2 1.3-.8.4-1.7.4-2.3.3-3.7-.6-6.2.3-9.1 1.2-2.5.8-4.4 2-4.4 2 0-.7.5-1.5 1.2-2.2zm37.2-1.3c0 2.6-.1 5.3-.3 6.7-.2 1.3-1 1.8-2.4 2.3-9.5 3.5-21 5.6-33.9 7-1 .1-1.9-.6-2-1.5-.2-1.3-.4-3.2-.3-5.2.1-1.6 0-2.1 1.8-3.1 1.4-.7 1.9-1 2.2-1.1 1.9-.8 4-1.6 5-1.7 1.8-.2 3 1.9 3.6 2.5.9.9 1.9 1.5 3 1.4 1.9 0 2.9-.8 3.6-1.8 1.8-2.4 2.3-5.6 5.2-5.7.7 0 2.9-.2 4.2-.5.8-.2 1.6-.6 2.5-1.1 1.7-.8 3.7-2 6-1.6 1.9.4 1.8 2.6 1.8 3.4zm-11.5 2c-.8 0-1.4.6-1.4 1.4s.6 1.4 1.4 1.4 1.4-.6 1.4-1.4c0-.7-.6-1.4-1.4-1.4zm6.1.1c-1 0-1.8.8-1.8 1.8s.8 1.8 1.8 1.8 1.8-.8 1.8-1.8-.8-1.8-1.8-1.8z"/></svg>