<svg xmlns="http://www.w3.org/2000/svg" viewBox="0 0 64 64"><defs><style>.cls-1{fill:none;}</style></defs><g id="BOX"><rect class="cls-1" width="64" height="64"/></g><g id="ICOON"><path d="M33.25,12.86c1,2.77,2.42,6.37,3.62,9.22a4.48,4.48,0,0,1,1.37,0c2.81.42,4.59,2.82,4.75,6.24a31.9,31.9,0,0,1-2,13.53c-.11.29-.25.32-.38.3v0c1-5.59,1.12-9.12.42-13.46-.53-3.29-2.11-4.49-3.41-4.46s-2,.93-2.1,2.95A131.86,131.86,0,0,1,33.67,44a16.65,16.65,0,0,0,2.62,11.43,23.41,23.41,0,0,0,3,4l11.14-5.79-3-7.48a4.94,4.94,0,0,1-.3-2.69l2.28-10.26a10,10,0,0,0-1.22-6.65L35.29,6.1S31.28,7.11,33.25,12.86Z"/><path d="M30.75,12.86c-.95,2.77-2.42,6.37-3.62,9.22a4.48,4.48,0,0,0-1.37,0c-2.81.42-4.59,2.82-4.75,6.24a31.9,31.9,0,0,0,2,13.53c.11.29.25.32.38.3v0c-1-5.59-1.12-9.12-.42-13.46.53-3.29,2.11-4.49,3.41-4.46s2,.93,2.1,2.95A131.86,131.86,0,0,0,30.33,44a16.65,16.65,0,0,1-2.62,11.43,23.41,23.41,0,0,1-3,4L13.58,53.66l3-7.48a4.94,4.94,0,0,0,.3-2.69L14.64,33.23a10,10,0,0,1,1.22-6.65L28.71,6.1S32.72,7.11,30.75,12.86Z"/></g></svg>