<?xml version="1.0" encoding="utf-8"?>
<!-- Generator: Adobe Illustrator 17.1.0, SVG Export Plug-In . SVG Version: 6.00 Build 0)  -->
<svg version="1.2" baseProfile="tiny" xmlns="http://www.w3.org/2000/svg" xmlns:xlink="http://www.w3.org/1999/xlink" x="0px"
	 y="0px" width="64px" height="64px" viewBox="0 0 64 64" xml:space="preserve">
<g id="_x36_4px_Boxes">
	<rect fill="none" width="64" height="64"/>
</g>
<g id="Production">
	<rect fill="none" width="64" height="64"/>
	<g>
		<path d="M52.23,44.7586c-2.7689,0.9518-6.3675,2.413-9.2219,3.6127c0.0737,0.4328,0.0837,0.8923,0.012,1.3787
			c-0.4146,2.8079-2.82,4.5833-6.2404,4.7416c-7.7327,0.3578-12.5347-1.5577-13.5313-1.9618
			c-0.2862-0.1161-0.318-0.2576-0.2923-0.3882c0.0015-0.0012,0.0111-0.0091,0.0111-0.0091
			c5.5945,0.9645,9.1206,1.1222,13.4634,0.4237c3.295-0.53,4.489-2.106,4.4613-3.4058c-0.027-1.2701-0.9267-2.0373-2.9519-2.1077
			c-6.8902-0.2395-10.9187-1.0081-16.8242-1.8688c-4.1042-0.5981-8.0618,0.4671-11.4327,2.6266
			c-3.1635,2.0265-4.0402,2.9852-4.0402,2.9852l5.7857,11.1429l7.4819-3.0415c0.8526-0.3466,1.7844-0.4511,2.6926-0.3021
			l10.2607,2.283c2.2892,0.3757,4.6379-0.0563,6.6438-1.2219L58.9871,46.8C58.9871,46.8,57.9828,42.781,52.23,44.7586z"/>
	</g>
	<path d="M51.3388,14.9809c-0.6616-0.648-1.0149-1.5591-1.6197-2.8926c-0.8881-1.9579-3-3.8058-4.9081-4.1672
		c-2.0189-0.3824-2.8707-0.8439-4.3524-1.1217c-1.4817-0.2778-3.7096-1.8732-6.2045-2.0373
		c-3.3404-0.2197-4.7082,0.7085-6.6677,1.2964c-1.9852,0.5956-3.8822-0.2281-6.4728,0.7391
		c-2.336,0.8722-3.2413,2.4048-4.7159,4.1602c-1.4393,1.7133-1.7208,1.4661-3.4192,2.4063
		c-1.8478,1.023-4.1906,3.8277-3.8277,7.6883c0.1507,1.6021-1.0171,3.7989-0.6401,5.926c0.4214,2.3778,3.3672,4.6758,5.5736,5.035
		c2.3155,0.377,5.5381-0.3853,5.5381-0.3853c0.7204,2.4413,2.7727,3.359,4.8709,3.6158c1.7283-0.0009,3.4541-0.1239,5.9189-1.2425
		c2.8339-1.268,3.0119-2.0344,5.5714-2.532c1.6315-0.3024,3.6594-0.4223,5.1555-0.9439c1.3283-0.4497,2.0725-0.9806,2.8618-1.8025
		c0.0627-0.0149,0.153-0.0053,0.169,0.193c0.0332,0.4107-0.4485,2.8318-3.5982,3.8268c-2.3481,0.6999-4.3661,0.7122-5.6319,1.4706
		c-0.8863,0.5197-1.8084,1.0955-2.7511,1.5984c5.195,3.0687,6.5105,8.2253,6.5105,8.2253h5.2784
		c-0.463-2.3152-1.389-4.8155-1.389-4.8155s3.1485-0.8335,5.6488-3.7968c2.5004-2.9634,2.593-7.5011,2.593-7.5011
		s3.1546-2.1049,3.2471-5.7165C54.1702,18.5956,53.4577,17.056,51.3388,14.9809z M19.4339,12.2253
		c2.5899-2.3702,7.2634-3.4587,9.2965-0.6474c1.4155,1.9573,0.8179,4.5739,0.0288,5.287c-0.1824,0.1649-0.3401,0.0764-0.3504,0.0703
		c-0.0374-0.8764-0.092-1.9046-0.4732-2.907c-1.1512-3.1106-5.2513-1.7613-7.212-0.1422c-1.4498,1.1767-2.8286,3.1141-3.4922,4.5927
		l-0.0335,0.0748c-0.0728,0.0227-0.1694,0.0102-0.2651-0.1304C15.8564,16.8417,18.0257,13.5141,19.4339,12.2253z M18.5207,25.758
		c-3.1766,1.832-6.4044-0.0354-5.9034-2.4399c0.0606-0.291,0.2011-0.283,0.2381-0.276c0.647,1.1507,3.2297,2.0737,6.4211-0.6864
		c0.9734-0.8485,2.0241-2.148,2.8357-3.1012c0.0464-0.0173,0.1823-0.05,0.2335,0.155C22.6966,20.813,21.2609,24.2113,18.5207,25.758
		z M26.5866,26.2808c-0.4569,0.9309-0.2849,2.5645-0.0662,3.6977c-0.3335,0.7177-3.1541-1.6425-2.5022-4.25
		c0.4864-1.9454,2.1824-3.0421,3.6724-3.7519c2.4466-1.1655,4.4605-1.3801,6.378-3.7332l-0.0003,0.006
		c0,0,0.2671-0.1073,0.3409,0.226c0.316,1.4278-1.3885,3.1816-2.8381,4.0759C29.7647,23.6656,27.2347,24.9605,26.5866,26.2808z
		 M49.367,22.1277c-0.0811,0.3191-0.302,0.5098-0.3122,0.5045c-0.771-2.024-2.7736-3.2748-5.6856-2.8678
		c-0.4673,1.6818-1.3684,2.8893-2.453,4.0079c-2.2326,2.2658-4.9436,3.5843-8.017,4.4575
		c-0.5146-0.2711,0.3074-1.3561,1.5399-2.0551c1.776-1.0073,3.5343-2.4607,4.8997-3.9864c1.9858-2.1555,2.9057-4.9513,1.7262-7.3487
		c-1.1189-2.2464-3.8462-3.2159-6.3178-3.5752c-0.0337-0.0727-0.0694-0.226,0.1434-0.3588
		c1.9433-1.2135,6.4214-0.0512,8.0904,2.9603c0.541,0.9443,0.8612,2.173,0.7935,3.5634c1.3672-0.1275,3.1502,0.3301,4.4851,1.4347
		C49.5425,20.1013,49.4739,21.7067,49.367,22.1277z"/>
</g>
</svg>
