<?xml version="1.0" encoding="utf-8"?>
<!-- Generator: Adobe Illustrator 19.1.0, SVG Export Plug-In . SVG Version: 6.00 Build 0)  -->
<svg version="1.2" baseProfile="tiny" xmlns="http://www.w3.org/2000/svg" xmlns:xlink="http://www.w3.org/1999/xlink" x="0px"
	 y="0px" width="64px" height="64px" viewBox="0 0 64 64" xml:space="preserve">
<g id="_x36_4px_Box">
	<rect fill="none" width="64" height="64"/>
</g>
<g id="Icon">
	<path d="M54.291,31.2899c1.2924-0.9566,2.3846-1.9559,2.531-4.0251C57,24.75,54.8333,23,52.25,23H39.5854
		c-0.6899,0-1.1693-0.6895-0.9396-1.34c1.6587-4.699,2.0696-6.7502,2.1453-11.049c0.0626-3.5557-1.3664-5.3637-2.7351-5.5785
		c-1.3373-0.2101-2.3109,0.5895-2.765,2.7007c-1.1292,5.2505-3.6215,11.4612-6.899,15.4354
		c-2.3522,2.8522-5.4376,4.1223-8.392,4.6157c-0.437,3.8105-1.278,11.0642-1.3497,11.4901
		C18.5578,39.824,18.0942,39.7305,18,39.6962c0,0.0127,0-11.6709,0-11.6771c0,0-0.0366-1.019-1-1.019H7v26h10c0.5523,0,1-0.4477,1-1
		v-4c1.3923,0,2.8005,0,3.5833,0c5.8289,0,3.7471,4.6616,15.1667,4.8231c2.9582,0.0418,8.7017,0.4281,12.2563-0.7488
		c3.327-1.1016,4.077-4.0471,3.0114-5.7828c1.009-0.4973,2.6489-1.7456,2.8989-3.9123c0.2552-2.2121-1.587-3.4553-1.587-3.4553
		c0.0605-0.0701,2.7336-1.0314,2.837-3.924C56.25,32.6667,54.291,31.2899,54.291,31.2899z"/>
</g>
</svg>
