<?xml version="1.0" encoding="utf-8"?>
<!-- Generator: Adobe Illustrator 19.1.0, SVG Export Plug-In . SVG Version: 6.00 Build 0)  -->
<svg version="1.2" baseProfile="tiny" xmlns="http://www.w3.org/2000/svg" xmlns:xlink="http://www.w3.org/1999/xlink" x="0px"
	 y="0px" width="64px" height="64px" viewBox="0 0 64 64" xml:space="preserve">
<g id="_x36_4px_Box">
	<rect fill="none" width="64" height="64"/>
</g>
<g id="Icon">
	<g>
		<path d="M53.4039,49c-0.4514,1.0048-0.9128,1.6119-1.4039,2.2578V52h11v-3H53.4039z"/>
		<path d="M53.983,26.9073c0-2.2227-0.0914-3.0378,0.2401-4.676c1.2169-6.0126,2.8734-15.0695,3.1939-16.7396
			C57.7741,3.6309,56.7783,2.66,55.3539,2.33l-0.0065-0.0015c-1.4252-0.3303-2.857,0.5234-3.2441,1.9343
			c0,0-4.6204,17.3044-4.7214,17.6854c-0.0994,0.3751-0.3235,0.6989-0.7115,0.6989c-0.3881,0-0.6043-0.3103-0.7116-0.6989
			c-0.1032-0.3741-4.5181-17.7271-4.5181-17.7271c-0.3906-1.4099-1.8245-2.26-3.2488-1.9263l-0.0065,0.0015
			c-1.4236,0.3336-2.3304,1.7309-2.0553,3.1668l3.0741,15.2439c-0.9026-1.2635-2.15-1.6352-3.645-1.3573
			c-1.0667,0.1982-2.7127,1.4326-3.5313,2.423c-0.6283,0.7601-0.9568,1.4851-1.1382,2.2711
			c-0.509-0.2113-1.0297-0.3074-1.5402-0.2634c-1.8079,0.156-3.3188,2.6415-3.8244,4.1609
			c-0.7772,2.3356,0.3469,5.5914,1.3019,7.6473c0.8324,1.7919,2.5071,2.868,6.673,1.9714c0.0404,0.1143-0.0007,0.2952-0.2625,0.5495
			c-0.2354,0.2287-1.7382,1.1461-3.6176,1.3105c0,6.2466,2.9486,10.2137,3.5084,11.1675V62h16.6398V50.5875
			c0,0,4.2148-5.2785,4.2148-12.8364C53.983,33.6006,53.983,31.8619,53.983,26.9073z M48.377,30.3901
			c-0.2998,0.248-0.6953,0.3062-1.085,0.1611c-0.0693-0.0259-6.373-2.3594-10.2285-3.5264
			c-0.5508-0.1646-1.1182-0.0181-1.5186,0.397c-0.3916,0.4062-0.5181,0.9644-0.3379,1.4932
			c1.3247,3.8843,7.1895,6.5288,10.6938,8.1089l0.5122,0.2314l-0.4595,0.2505c-0.1641,0.0718-0.3384,0.145-0.521,0.2217
			c-1.7832,0.748-4.478,1.8784-6.1499,5.7334l-0.0771,0.1777l-0.1919-0.0303c-0.21-0.0337-0.3281-0.3125-0.3174-0.5518
			c0.0649-1.4946,1.022-3.8657,2.7339-5.6343c-4.5767-2.333-7.3848-4.9507-8.3501-7.7832
			c-0.4565-1.3403-0.1382-2.7524,0.8511-3.7773c0.9824-1.0166,2.4307-1.3955,3.7837-0.9878
			c3.7246,1.127,9.6748,3.3174,10.3408,3.5635c0.4082,0.1514,0.6694,0.4546,0.7349,0.8389
			C48.8599,29.6875,48.6978,30.1245,48.377,30.3901z"/>
		<path d="M20.4286,49L23,43h-3l-3.6387,6.4376c-0.0592-0.0095-0.2614-0.0704-0.194-0.3967
			c0.0262-0.1266,0.371-1.1282,0.7832-2.3062c-0.1517-0.2163-0.3547-0.3995-0.6156-0.5121
			c-0.7604-0.3279-1.637,0.0209-1.9674,0.7755c-0.1472-0.335-0.4128-0.6191-0.7753-0.7755
			c-0.7612-0.3276-1.6436,0.022-1.9717,0.7832l-0.1426,0.3306L9,43H6l2.5714,6H1v3h7.5714L6,58h3l4.1453-7.3094
			c0.0592,0.0095,0.2614,0.0704,0.194,0.3967c-0.0318,0.1537-0.5335,1.5977-1.0552,3.0815c0.296,0.3084,0.6814,0.4582,1.0718,0.4582
			c0.7394,0,1.1729-0.431,1.4622-1.1016c0.1866,0.6712,0.7787,1.1016,1.4382,1.1016c0.5555,0,1.0774-0.3167,1.3367-0.8392L20,58h3
			l-2.5714-6h10.4996v-0.7422c-0.4636-0.6459-0.9887-1.423-1.3135-2.2578H20.4286z"/>
	</g>
</g>
</svg>
