<?xml version="1.0" encoding="utf-8"?>
<!-- Generator: Adobe Illustrator 19.1.0, SVG Export Plug-In . SVG Version: 6.00 Build 0)  -->
<svg version="1.2" baseProfile="tiny" xmlns="http://www.w3.org/2000/svg" xmlns:xlink="http://www.w3.org/1999/xlink" x="0px"
	 y="0px" width="64px" height="64px" viewBox="0 0 64 64" xml:space="preserve">
<g id="Box">
	<rect fill="none" width="64" height="64"/>
</g>
<g id="Icon">
	<g>
		<path d="M51.4274,13.7276c-1.0714,0.5757-2.5125,0.8405-3.5704-0.1293c-1.3662-1.2524,0.262-2.8743,1.4636-4.501
			c1.0978-1.4861,1.5314-3.3474,0.2161-4.084c-1.8663-1.0451-3.3033,0.3701-4.0558,2.2303
			c-0.6908,1.7076-0.8885,3.4333-1.6177,4.0032c-0.821,0.6416-2.1955-0.0414-3.4064-1.1805
			c-1.7375-1.6344-3.7738-3.0901-5.2851-1.4224c-1.3041,1.4391,0.3826,3.2214,3.0705,4.3663
			c2.314,0.9856,3.8379,0.5377,3.8223,2.7155c-0.0057,0.7979-0.348,1.639-0.984,2.0902c-1.8911,1.3416-5.865,0.8548-6.143,3.7567
			c-0.2694,2.8115,4.2047,4.3358,6.823,0.622c1.1839-1.6792,2.5027-1.8171,3.5781-1.2928c3.522,1.7173,1.0847,4.6094,3.147,6.8906
			c1.3653,1.5103,3.7249,1.1663,4.5291-1.3478c1.2075-3.775-6.2011-7.445-4.7338-9.1863c0.6057-0.7189,2.0593-0.4146,3.4583-0.3752
			c2.6501,0.0746,3.8446-1.6797,3.3171-2.9192C54.5274,12.7217,53.0036,12.8807,51.4274,13.7276z"/>
		<path d="M43.0792,25.692c-1.7543-0.8958-4.3151,2.7854-1.5467,4.3042C44.301,31.515,45.4244,26.8895,43.0792,25.692z"/>
		<path d="M59.213,10.4946c-2.3489-1.1239-3.8201,1.0848-2.5356,2.8644C59.246,16.9179,61.8481,11.7554,59.213,10.4946z"/>
		<path d="M39.9029,34.6616c-1.8387,1.51-3.1615,2.9781-4.7179,5.1635c-1.4038,1.9712-3.6917,1.0367-3.9525-0.2923
			c-0.0022-0.0112-0.0043-0.0224-0.0064-0.0338c-0.3713-2.0317-0.2393-2.7125-0.1276-4.1453l1.2795-15.0141
			c0.0443-1.1172-0.8013-2.0701-1.9158-2.1591l-0.0051-0.0004c-1.1139-0.0889-2.0995,0.7167-2.2339,1.826l-1.4871,14.1158
			c-0.0476,0.4517-0.4139,0.7982-0.8677,0.8158c-0.0056,0.0002-0.0111,0.0004-0.0167,0.0006
			c-0.4819,0.019-0.9011-0.3387-0.9502-0.8184l-1.6207-15.8383c-0.1534-1.1075-1.1537-1.8964-2.2665-1.7874l-0.0051,0.0005
			c-1.1121,0.1089-1.9401,1.0757-1.8768,2.1913l1.3768,16.2202c0.0388,0.4567-0.2537,0.8672-0.6927,0.9996
			c-0.0056,0.0017-0.0113,0.0034-0.0169,0.0051c-0.5085,0.1537-1.0425-0.1537-1.183-0.666l-3.6254-13.2167
			c-0.3439-1.0638-1.4663-1.6665-2.5431-1.3655l-0.0049,0.0013c-1.0762,0.3008-1.7233,1.3972-1.4667,2.4846l3.6843,14.4617
			c0.1011,0.397-0.0523,0.8051-0.3763,1.0559c-0.0051,0.004-0.0103,0.0079-0.0153,0.0119c-0.5065,0.3931-1.2463,0.2126-1.524-0.3653
			l-4.2682-8.881c-0.4677-0.8733-1.5411-1.2216-2.4324-0.7894l-0.0041,0.002c-0.8907,0.432-1.2819,1.4897-0.8868,2.3973
			l4.6466,10.21c0.522,1.1469,0.9059,2.3503,1.1694,3.5825c0.5247,2.4528,1.4462,5.8324,2.9393,8.6245
			c2.1014,3.9294,4.6486,5.8149,10.6683,5.5091C34.5953,58.459,35.2253,48.0494,38.41,43.1425
			c1.4266-2.1982,2.7543-4.1707,4.9186-6.7982c0.8603-1.0444,0.8742-1.8338,0.2507-2.4088
			C42.9414,33.3469,41.6249,33.2474,39.9029,34.6616z"/>
	</g>
</g>
</svg>
