<?xml version="1.0" encoding="utf-8"?>
<!-- Generator: Adobe Illustrator 17.1.0, SVG Export Plug-In . SVG Version: 6.00 Build 0)  -->
<svg version="1.2" baseProfile="tiny" xmlns="http://www.w3.org/2000/svg" xmlns:xlink="http://www.w3.org/1999/xlink" x="0px"
	 y="0px" width="64px" height="64px" viewBox="0 0 64 64" xml:space="preserve">
<g id="Box">
	<rect fill="none" width="64" height="64"/>
</g>
<g id="Icon">
	<path d="M55.8646,32.4854l-6.1979-7.132c-0.2047-0.9031,0.132-2.5703,0-3.3334c-0.6667-3.8533-2.6176-8.1171-2.6176-8.1171
		c2.1099-4.024,1.0794-7.186-2.0956-9.2271c-3.617-2.3252-16.7725-2.5638-26.3723,2.6561
		c-10.1254,5.5057-9.03,15.353-7.3249,20.5063c1.9836,5.9951,7.9103,14.4951,8.3203,20.903C19.7564,51.5508,17.6854,60,17.6854,60
		h22.3146l-0.1353-5.9934l-5.4944-2.8323c-0.2924-0.1597-0.208-0.3534-0.1769-0.4047c0,0,8.2417,1.7748,11.4412,2.1942
		c3.2114,0.4208,6.2918-2.3106,6.2918-6.211c0-4.2802,0-9.6575,0-9.6575l3.3365-1.7672
		C56.2177,34.7115,56.4877,33.4357,55.8646,32.4854z M37.4854,11.1005l1.4142,1.4142l-2.8284,2.8284l-1.4142-1.4142L37.4854,11.1005
		z M28.0001,8h2v4h-2V8z M20.5148,11.1005l2.8284,2.8284l-1.4142,1.4142l-2.8284-2.8284L20.5148,11.1005z M20.0001,22h-4v-2h4V22z
		 M32.0001,27.4282v2.851c0,0.4305-0.2755,0.8126-0.6838,0.9487l-1.3162,0.4387V33h-2v-1.3333l-1.3162-0.4387
		c-0.4083-0.1362-0.6838-0.5182-0.6838-0.9487v-2.851c-2.4197-1.1315-4.1-3.5806-4.1-6.4282c0-3.9212,3.1788-7.1,7.1-7.1
		s7.1,3.1788,7.1,7.1C36.1,23.8476,34.4197,26.2968,32.0001,27.4282z M42.0001,22h-4v-2h4V22z"/>
</g>
</svg>
