<?xml version="1.0" encoding="utf-8"?>
<!-- Generator: Adobe Illustrator 19.1.0, SVG Export Plug-In . SVG Version: 6.00 Build 0)  -->
<svg version="1.2" baseProfile="tiny" xmlns="http://www.w3.org/2000/svg" xmlns:xlink="http://www.w3.org/1999/xlink" x="0px"
	 y="0px" width="64px" height="64px" viewBox="0 0 64 64" xml:space="preserve">
<g id="_x36_4px_Box">
	<rect fill="none" width="64" height="64"/>
</g>
<g id="Icon">
	<g>
		<path d="M17.9104,28c-1.5038,4.5192-1.1073,9.7906,1.24,14.8069c0.3107,0.6638,0.6401,1.2834,0.979,1.88
			c0.6083,1.0708,2.6455-0.4008,2.2273-1.2333l0.0035-0.0024c-0.3781-0.6738-0.6628-1.2376-0.8666-1.6728
			C19.2778,37.0433,19.0042,32.0889,20.6333,28H17.9104z"/>
		<path d="M28.5999,9.7477c-0.4862,0.2843-0.3953,0.4509-0.3591,0.5021c7.0232-0.4994,15.4763,3.1606,21.5327,9.3308
			c0.2253,0.0209,0.267-0.2148,0.084-0.8506c-0.3411-1.1846-1.519-3.3949-3.96-5.3435c-2.6097-2.0833-5.2214-3.3036-8.4767-4.2429
			C33.6465,8.0543,29.4287,9.2633,28.5999,9.7477z"/>
		<path d="M23.7117,28c-0.9778,1.892-1.3884,4.2717-1.1152,7.0061c0.3689,3.6909,1.7014,6.9519,3.9818,9.7629
			c1.5062,1.8567,6.1498,6.2571,10.8123,6.2571c0.5466,0,0.7074-0.1558,0.7137-0.3755
			c-7.8374-3.7083-12.3132-9.5339-12.9475-15.8843c-0.2866-2.8699,0.2789-5.2273,1.5708-6.7664H23.7117z"/>
		<path d="M13.9597,18.7933c1.322-2.472,4.3456-5.1006,7.444-6.8632c3.9596-2.2524,4.87-4.1061,10.0948-5.2079
			c3.7693-0.7948,9.201,0.308,12.1246,2.5812c0.2504-0.1115,0.1776-0.4976-0.1349-1.0688
			c-2.1213-3.8784-8.7019-4.9065-13.5325-3.8379c-3.8311,0.8475-7.7096,2.8304-11.0769,6.0771
			c-1.9093,1.8411-4.7075,5.605-5.0764,7.4832C13.6747,18.6072,13.7871,18.8115,13.9597,18.7933z"/>
		<path d="M52.6595,36.1003c-0.3673-0.1785-0.7148-0.3525-1.0895-0.5398c-4.6653-2.3324-7.2507-4.3672-10.6653-7.0542
			c-0.207-0.163-0.4316-0.3385-0.6453-0.5063h-4.1167c0.0087,0.0065,0.0177,0.0113,0.0264,0.0178
			c1.1425,0.8705,2.1593,1.6708,3.1134,2.4214c3.6555,2.877,6.3937,5.032,11.587,7.5725c0.1848,0.0903,0.6345,0.3352,0.8801,0.4517
			c0.7367,0.3494,1.1934-0.246,1.384-1.0186C53.2727,36.8827,53.1931,36.3596,52.6595,36.1003z"/>
		<path d="M16.1023,53.1819c-1.8534-2.256-4.0714-6.1685-4.9932-9.9878c-0.2473-0.0339-0.3831,0.4097-0.4,0.8531
			c-0.0934,2.443,0.5463,4.9056,1.3311,6.8837c1.1769,2.9662,2.8802,5.481,6.0372,7.4233c1.4824,0.9121,3.3092,1.5989,5.3917,1.4869
			c0.3719-0.0199,0.7059-0.1434,0.6807-0.374C20.8083,57.7301,18.1025,55.6171,16.1023,53.1819z"/>
		<path d="M49.1509,28h-4.4158c2.1204,1.5253,4.6047,3.1047,7.2638,4.4858c0.8547,0.444,1.307-0.3932,1.301-1.3325v-0.0078
			c-0.0029-0.455-0.0643-0.8163-0.4796-1.0294C51.4961,29.4364,50.2837,28.7233,49.1509,28z"/>
		<path d="M51.6829,41.1565c-1.9041-0.821-6.2616-2.7719-9.7756-5.295c-1.0979-0.7887-2.2402-1.7977-3.3451-2.7731
			c-3.1019-2.739-6.6158-5.843-9.3026-3.2422c-0.9486,0.9181-1.4456,2.5459-1.3635,4.4663
			c0.1547,3.6467,2.2397,7.4586,5.5762,10.1963c3.6606,3.0037,9.5076,6.146,13.2117,7.8025
			c0.6125,0.2739,1.0408-0.2034,1.3838-0.7659l0.0005-0.001c0.3994-0.655,0.4161-1.2493-0.3009-1.5603
			c-0.2357-0.1022-0.4772-0.209-0.7015-0.3118c-2.5715-1.1787-8.0308-3.8643-11.9304-7.064
			c-4.146-3.4016-4.6223-7.2883-4.6694-8.3987c-0.0569-1.333,0.2667-2.2676,0.6123-2.6023c0.9497-0.9166,3.4994,1.333,5.7507,3.3214
			c1.152,1.0172,2.3433,2.0697,3.5459,2.9332c3.6382,2.6122,8.1294,4.6382,10.2678,5.5603c0.7019,0.3027,1.2373-0.187,1.4603-0.8989
			l0.0023-0.0073C52.2915,41.9211,52.2693,41.4093,51.6829,41.1565z"/>
		<path d="M19.8066,49.3835c-4.7625-6.1489-6.6157-14.0524-4.9573-21.1423c0.019-0.0818,0.0442-0.16,0.0643-0.2412h-2.6356
			c-1.699,7.7125,0.33,16.2403,5.4707,22.8782c3.283,4.2385,7.1506,6.5596,10.8167,7.9197c4.271,1.5847,9.5861,1.782,12.989-0.5013
			c0.3271-0.2196,0.402-0.5293,0.2543-0.6719C41.2701,57.7535,28.528,60.6444,19.8066,49.3835z"/>
		<path d="M41.2041,53.0309c-1.6208,0.367-3.6064,0.2751-5.168,0.0505c-5.4702-0.7869-9.965-4.0076-12.0232-7.1392
			c-0.4856-0.737-2.83,0.5001-2.1226,1.4547c4.4534,6.0094,10.4041,7.7958,14.469,8.2175c4.8756,0.5057,7.4136,0.2318,8.6035-0.2447
			c0.3066-0.1228,0.4662-0.3269,0.3816-0.5131C44.1414,54.3082,42.4373,53.5723,41.2041,53.0309z"/>
		<path d="M50.0864,45.51c-2.0767-0.8052-6.8534-2.7803-9.5649-4.7056c-3.6299-2.5781-5.4636-4.1907-7.2629-6.2278
			c-0.2769,0.0536-0.5259,0.4288-0.1384,1.4475c0.6658,1.7498,1.8442,3.9226,5.8801,6.7886
			c2.969,2.1083,7.9458,4.1678,10.1304,5.0122c0.6716,0.2595,1.0963-0.2871,1.3457-0.9446l0.0009-0.002
			C50.7167,46.2471,50.7312,45.76,50.0864,45.51z"/>
		<polygon points="5,5 11,5 11,2 2,2 2,11 5,11 		"/>
		<polygon points="5,53 2,53 2,62 11,62 11,59 5,59 		"/>
		<polygon points="53,2 53,5 59,5 59,11 62,11 62,2 		"/>
		<polygon points="59,59 53,59 53,62 62,62 62,53 59,53 		"/>
		<path d="M56,22h-6.9108c-1.0555-1.0031-2.1852-1.9774-3.245-2.7637c-5.9294-4.3992-11.6748-7.5477-19.851-5.8055
			C21.1729,14.4576,17.1238,17.5845,14.5854,22H8v4c22.2488,0,25.4412,0,48,0V22z M25.5844,22
			c1.5226-0.8976,3.2252-1.3729,5.0021-1.3196c1.9736,0.0355,3.686,0.5315,5.3286,1.3196H25.5844z M39.2715,22
			c-0.4744-0.8303-1.2937-1.7828-2.7236-2.4812c-1.7539-0.8568-3.6997-1.2893-5.9133-1.3294
			c-3.4404-0.0593-6.624,1.316-9.0835,3.8106h-3.9592c2.1869-3.1536,5.3176-5.3621,8.9541-6.1367
			C34.118,14.2513,39.3702,17.4351,45.3406,22H39.2715z"/>
		<polygon points="62,27 62,21 57,24 		"/>
		<polygon points="2,21 2,27 7,24 		"/>
	</g>
</g>
</svg>
