<?xml version="1.0" encoding="utf-8"?>
<!-- Generator: Adobe Illustrator 19.1.0, SVG Export Plug-In . SVG Version: 6.00 Build 0)  -->
<svg version="1.2" baseProfile="tiny" xmlns="http://www.w3.org/2000/svg" xmlns:xlink="http://www.w3.org/1999/xlink" x="0px"
	 y="0px" width="64px" height="64px" viewBox="0 0 64 64" xml:space="preserve">
<g id="_x36_4px_Box">
	<rect fill="none" width="64" height="64"/>
</g>
<g id="Icon">
	<g>
		<polygon points="5,5 11,5 11,2 2,2 2,11 5,11 		"/>
		<polygon points="5,53 2,53 2,62 11,62 11,59 5,59 		"/>
		<polygon points="53,2 53,5 59,5 59,11 62,11 62,2 		"/>
		<polygon points="59,59 53,59 53,62 62,62 62,53 59,53 		"/>
		<path d="M8,22v4c9.4382,0,38.5664,0,48,0v-4H44.7247c0.0508-0.3882,0.0743-0.7646,0.0743-1.0937
			c0-1.465-0.2581-2.2577-0.7839-2.5033c-0.2537-0.1181-0.5013-0.1171-0.7217-0.0703c0.1892-3.0521,0.3777-9.0999-0.8943-11.3723
			c-1.3909-2.4843-3.2405-3.1286-6.4626-2.3167c-2.1134-1.1213-3.5522-2.2304-7.255-1.2207
			C26.1086,4.1244,23.293,5.27,21.8091,7.1809c-1.6008,2.0623-1.2922,8.077-1.0219,11.1665
			c-0.2384-0.0651-0.5182-0.0768-0.8024,0.0556c-0.526,0.2456-0.7839,1.0383-0.7839,2.5033c0,0.3291,0.0236,0.7054,0.0743,1.0937H8z
			"/>
		<path d="M31.0864,37.7204c-0.92,0.3037-3.7976,0.7333-6.8986-0.8806c-0.0258-0.0134-0.0441-0.0255-0.0692-0.0388
			c-2.3157,0.6212-10.3123,2.9101-12.8019,5.5321C8.4064,45.3971,7.2744,56.833,7.2744,56.833h49.4512
			c0,0-1.0931-11.4359-4.0035-14.4998c-2.2438-2.3632-9.1818-4.4603-12.2799-5.3059c-0.8287-0.2263-1.3866-0.9312-1.5732-1.7697
			c-0.1648-0.7412-0.2524-1.5911-0.2524-1.5911c1.4285-1.5958,2.5834-3.4377,3.302-5.6664H22.041
			c1.0457,3.4442,3.1415,5.7789,5.6326,7.8763c0.8176,0.6888,2.2905,1.0502,3.8237,1.1184
			C31.6365,37.2434,31.6365,37.5389,31.0864,37.7204z"/>
		<polygon points="62,27 62,21 57,24 		"/>
		<polygon points="2,21 2,27 7,24 		"/>
	</g>
</g>
</svg>
