<?xml version="1.0" encoding="utf-8"?>
<!-- Generator: Adobe Illustrator 18.1.1, SVG Export Plug-In . SVG Version: 6.00 Build 0)  -->
<svg version="1.2" baseProfile="tiny" xmlns="http://www.w3.org/2000/svg" xmlns:xlink="http://www.w3.org/1999/xlink" x="0px"
	 y="0px" width="64px" height="64px" viewBox="0 0 64 64" xml:space="preserve">
<g id="Box">
	<rect fill="none" width="64" height="64"/>
</g>
<g id="Icon">
	<g>
		<path d="M30.9677,57.1924c-7.2173,0.4314-12.3324-1.2551-13.9835-1.9012c-0.1541,0.0748-0.0965,0.4641,0.1869,0.7618
			c3.0588,3.2134,8.9944,4.2551,13.9793,3.8712c5.4612-0.4205,11.117-2.275,13.9044-5.5089c0.2319-0.269,0.2296-0.624,0.0968-0.6619
			C43.6063,54.5123,38.4381,56.7594,30.9677,57.1924z"/>
		<path d="M27.2482,54.9766c-3.7411-0.9878-14.6447-5.0402-13.1267-18.4778c0.5552-4.9102,2.6426-8.778,6.2049-11.4955
			c4.3712-3.3344,9.9688-4.0963,13.7503-3.6971c3.0562,0.3226,7.5424,2.1077,10.1261,6.0758
			c2.2272,3.4194,2.6971,8.4685,0.5906,12.6652c0.0697,0.1597,0.3025,0.1708,0.6197-0.2045
			c3.4603-4.0939,3.2579-10.8251,0.8484-14.1268c-3.3445-4.583-7.9098-6.5874-11.89-6.9268
			c-5.6007-0.4775-11.4624,0.9949-15.7148,4.2393c-4.0768,3.1099-6.5616,7.6748-7.186,13.2003
			c-1.2484,11.0487,4.9395,18.2557,14.976,19.01C27.1091,55.2885,27.2974,55.1514,27.2482,54.9766z"/>
		<path d="M15.5507,14.2339c1.2661-0.7097,5.0603-2.5635,11.3718-3.3779c5.7057-0.7366,11.013,0.4163,12.5156,0.7898
			c0.164-0.0747,0.1855-0.4006-0.2144-0.8308c-1.1782-1.2677-4.3928-3.2717-12.6606-2.4692
			c-6.2916,0.6108-9.6157,3.5929-10.8932,5.1606C15.2155,14.0637,15.3481,14.1989,15.5507,14.2339z"/>
		<path d="M35.285,6.1814c5.1818,0.9144,7.3859,3.1643,10.0042,7.5836c1.6877,0.9575,3.4528,2.3124,4.8427,3.7042
			c0.2643-0.012,0.3021-0.2219,0.1643-0.8193C46.7391,1.2206,29.7808,3.1765,24.3292,5.7771
			c-0.4461,0.2128-0.5319,0.4976-0.3576,0.5746C25.8102,6.0638,30.9109,5.4094,35.285,6.1814z"/>
		<path d="M34.7806,35.9475c-0.7758,0.457-2.2362,0.1461-3.6667-1.3291c-0.5333,0.095-0.7701,0.6115-0.7,1.2347
			c0.3666,3.2612,5.1453,3.4735,6.9262,1.1744c0.5687-0.7336,1.0833-2.0149,0.3036-3.9503
			c-0.6245-1.5525-2.053-2.7091-3.9191-3.1737c-2.2968-0.5719-4.8972,0.0015-6.7903,1.4946
			c-1.5973,1.26-2.3176,3.3037-1.9265,5.4657c0.7419,4.1039,5.6428,8.3632,12.3115,6.4104c6.2076-1.8177,7.7765-7.7258,5.36-12.6261
			c-1.9957-4.0464-6.3445-6.5793-11.0823-6.4043c-1.9918,0.0654-3.8249,0.4497-5.4803,1.0801
			c-0.9528,0.3628-0.0548,2.7119,1.2702,2.2434c1.3049-0.4614,2.7434-0.741,4.3029-0.7925
			c4.4415-0.1538,7.3475,2.4597,8.5746,4.9478c1.7904,3.6311,0.5899,8.0869-4.1723,9.1479
			c-4.9561,1.104-7.9869-1.8397-8.4562-4.4357c-0.6079-3.3594,3.0655-4.6664,5.4128-4.0809
			C35.4261,32.9464,35.8818,35.2988,34.7806,35.9475z"/>
		<path d="M49.0499,47.0985c-2.1243,1.3074-11.6758,6.6044-21.2688,3.1071c-4.238-1.5449-6.949-4.3708-7.9224-8.0164
			c-1.3962-5.2302,0.5042-10.4099,4.7031-13.2047c0.9025-0.6007,0.3255-3.2465-1.2528-2.2438
			c-5.1059,3.2437-7.7595,9.6135-6.035,16.0708c0.8213,3.0762,3.1176,7.2511,9.4068,9.6437
			c6.854,2.6074,16.3981,1.3684,20.4637-2.3195c0.7806-0.708,1.4375-1.5181,1.9308-2.4346
			C49.2281,47.4174,49.2296,47.1409,49.0499,47.0985z"/>
		<path d="M20.0707,18.2617c1.9329-0.9797,5.856-2.3575,10.3294-2.5063c0.9197-0.0305,1.0165-2.5809-0.099-2.5513
			c-3.9705,0.1052-8.9464,1.5234-11.4855,2.8224c-7.33,3.7499-8.1377,9.3969-8.1151,11.7679
			c0.0051,0.5388,0.1812,0.6814,0.316,0.6025C12.7912,23.7659,15.7572,20.447,20.0707,18.2617z"/>
		<path d="M33.3022,13.1666c-1.1431,0.024-1.0609,2.5206,0.1013,2.61c9.6191,0.7393,18.9111,7.5138,16.8912,18.572
			c-0.8046,4.4052-3.63,7.926-7.5168,9.993c-4.5909,2.4425-10.462,2.5824-14.6092,0.3473c-3.2723-1.7625-5.1584-4.7859-5.487-8.7734
			c-0.1174-0.0781-0.3387-0.094-0.4575,0.4407c-0.4927,2.2178-0.8069,6.947,4.629,10.5364
			c2.2261,1.4697,5.1721,1.9016,8.0553,1.9016c3.1436,0,6.369-0.751,9.1725-2.2421c4.5696-2.431,7.7839-6.566,8.8245-11.6864
			C55.3889,22.646,45.7567,13.7161,33.3022,13.1666z"/>
	</g>
</g>
</svg>
