<?xml version="1.0" encoding="utf-8"?>
<!-- Generator: Adobe Illustrator 19.1.0, SVG Export Plug-In . SVG Version: 6.00 Build 0)  -->
<svg version="1.2" baseProfile="tiny" xmlns="http://www.w3.org/2000/svg" xmlns:xlink="http://www.w3.org/1999/xlink" x="0px"
	 y="0px" width="64px" height="64px" viewBox="0 0 64 64" xml:space="preserve">
<g id="_x36_4px_Box">
	<rect fill="none" width="64" height="64"/>
</g>
<g id="Icon">
	<g>
		<path d="M27,19.9999V2c0-0.5523-0.4477-1-1-1H14c-0.5522,0-1,0.4477-1,1v17.9999c0,0.5523,0.4478,1,1,1h12
			C26.5523,20.9999,27,20.5522,27,19.9999z M20,4c1.6569,0,3,1.3431,3,3s-1.3431,3-3,3s-3-1.3431-3-3S18.3431,4,20,4z M24,18h-8v-4
			h8V18z"/>
		<path d="M56.0306,35.5181c-0.9835-2.9705-3.6135-3.6401-5.1632-2.6887c-0.444-0.9009-1.5586-2.3651-3.4932-2.5884
			c-1.975-0.2279-3.085,1.417-3.085,1.417c-0.0626-0.054-0.9209-2.4408-3.5035-2.533c-1.8221-0.0651-2.9908,1.2647-3.2552,1.5992
			c-0.5037-6.0907-1.348-14.875-1.4156-15.9519c-0.0958-1.5247-1.2791-2.7501-2.8066-2.7719l-0.007-0.0001
			c-1.5284-0.0219-2.8224,1.1659-2.8845,2.6932c-0.0438,1.0769-0.4223,17.833-0.4223,30.5359
			c-0.0562,0.0209-0.2623,0.0673-0.3641-0.2499c-0.3135-0.9771-1.0027-5.4929-1.1346-6.2468
			c-1.7097,1.3054-4.1498,3.001-4.3536,6.0587C23.7078,51.3094,30.2308,55,33,62h20c0-7.9459,3.8282-4.2722,3.98-15
			C57.0173,44.3588,57.0814,38.692,56.0306,35.5181z"/>
	</g>
</g>
</svg>
