<svg width="51" height="101" viewBox="0 0 51 101" fill="none" xmlns="http://www.w3.org/2000/svg">
<path d="M0.0302958 0H50.2311V100.402H0.0302958V0Z" fill="#154273"/>
<path d="M26.0437 77.6704H25.1702V75.2507H26.0437V77.6704ZM29.9795 66.9877H29.106V64.568H29.9795V66.9877ZM13.8048 62.811C13.7345 62.811 13.2827 62.811 13.2827 62.9014C13.2827 62.9917 13.4935 62.9516 13.8048 63.0018C14.5076 63.1222 14.7787 63.4736 15.2706 63.4736C15.7124 63.4736 16.1742 63.1724 15.9935 62.5299C15.9634 62.4194 15.9032 62.4495 15.8831 62.5198C15.8128 62.811 15.4614 62.9716 15.0899 62.9716C14.6281 62.9716 14.5277 62.811 13.8048 62.811ZM8.98544 65.2307C9.06576 65.3411 9.88906 66.4054 8.624 66.817C8.56376 66.8371 8.55373 66.8873 8.63405 66.9275C9.56778 67.319 10.0196 66.5961 10.0196 66.5961C10.4915 67.6704 9.76857 68.2728 9.76857 68.2728C9.86898 68.4636 10.3208 68.7949 10.9935 68.9455C11.2546 68.805 11.616 68.5439 11.7666 68.1423C11.7666 68.1423 11.9473 68.6142 11.7867 69.066C13.6943 69.2367 14.367 67.7106 15.8429 67.9917C15.8831 68.0018 15.9032 67.9716 15.9032 67.9315C15.9032 66.9877 15.3309 65.2708 13.5036 64.9194C11.6863 64.568 12.1783 63.825 12.1783 63.825C12.9413 63.7949 13.3831 64.1263 13.3831 64.1263C13.5236 63.8953 13.3228 63.6544 13.3228 63.6544C13.3931 63.564 13.4333 63.2528 13.4333 63.2528C12.5698 63.2528 12.3489 63.062 12.3489 63.062C12.2184 62.5499 12.5698 61.8271 13.855 62.6001C14.1762 62.319 14.1461 61.8773 14.1461 61.8773C14.2465 61.8271 14.3068 61.6765 14.3068 61.6162C14.3068 61.4054 13.2827 60.8331 13.0216 60.7628C12.9614 60.4516 12.5598 60.0098 11.355 60.1704C10.7827 60.2407 10.371 60.0901 10.5618 59.7588C10.5919 59.6985 10.4915 59.6885 10.4413 59.7487C10.3108 59.8793 10.1301 60.2507 10.622 60.5018C11.1742 60.7829 11.2044 61.3351 11.2144 61.4154C11.2244 61.5359 11.0839 61.5459 11.0538 61.4255C10.8028 60.4917 9.51757 60.2909 8.76456 60.7829C8.80472 61.2849 9.3469 61.6162 9.63806 61.6162C9.80875 61.6162 10.0397 61.4455 10.0397 61.2146C10.0397 61.1042 10.0999 61.1142 10.1301 61.2046C10.2505 61.5359 9.75853 62.2287 9.03564 61.807C8.29267 62.5499 8.59389 63.4736 8.66417 63.805C8.79469 64.4074 8.50351 64.9997 7.95131 64.7287C7.92119 64.7186 7.89106 64.7086 7.89106 64.7688C7.9011 65.1303 8.40311 65.562 8.98544 65.2307ZM13.0919 61.4857C12.7405 61.8773 12.1783 61.7869 12.0377 61.1443C12.7505 61.1042 13.0618 61.1744 13.0919 61.4857ZM35.2505 62.9716C34.8791 62.9716 34.5276 62.811 34.4574 62.5198C34.4373 62.4495 34.377 62.4194 34.3469 62.5299C34.1662 63.1724 34.6281 63.4736 35.0698 63.4736C35.5618 63.4736 35.8329 63.1222 36.5357 63.0018C36.8469 62.9516 37.0578 63.0018 37.0578 62.9014C37.0578 62.811 36.606 62.811 36.5357 62.811C35.8027 62.811 35.7124 62.9716 35.2505 62.9716ZM42.4293 64.7487C42.4293 64.6885 42.3991 64.6985 42.369 64.7086C41.8168 64.9797 41.5256 64.3973 41.6562 63.7849C41.7264 63.4435 42.0276 62.5299 41.2847 61.7869C40.5517 62.2086 40.0598 61.5158 40.1903 61.1845C40.2204 61.0941 40.2807 61.0841 40.2807 61.1945C40.2807 61.4255 40.5116 61.5961 40.6823 61.5961C40.9734 61.5961 41.5156 61.2648 41.5558 60.7628C40.8027 60.2708 39.5176 60.4716 39.2666 61.4054C39.2365 61.5259 39.0959 61.5158 39.106 61.3953C39.106 61.315 39.1461 60.7628 39.6983 60.4817C40.2003 60.2307 40.0196 59.8592 39.8791 59.7287C39.8289 59.6785 39.7184 59.6885 39.7586 59.7387C39.9493 60.07 39.5377 60.2206 38.9754 60.1503C37.7706 59.9897 37.3791 60.4415 37.3088 60.7427C37.0477 60.813 36.0236 61.3853 36.0236 61.5961C36.0236 61.6564 36.0839 61.817 36.1843 61.8572C36.1843 61.8572 36.1642 62.2889 36.4754 62.5801C37.7505 61.807 38.112 62.5299 37.9815 63.0419C37.9815 63.0419 37.7505 63.2226 36.8871 63.2327C36.8871 63.2327 36.9272 63.5439 36.9975 63.6343C36.9975 63.6343 36.7967 63.8853 36.9373 64.1062C36.9373 64.1062 37.3791 63.7748 38.1421 63.805C38.1421 63.805 38.6341 64.5479 36.8168 64.8993C34.9995 65.2508 34.4172 66.9676 34.4172 67.9114C34.4172 67.9616 34.4373 67.9817 34.4774 67.9716C35.9534 67.7005 36.626 69.2267 38.5337 69.0459C38.363 68.5941 38.5538 68.1222 38.5538 68.1222C38.7044 68.5238 39.0658 68.7949 39.3268 68.9255C40.0096 68.7748 40.4513 68.4536 40.5517 68.2528C40.5517 68.2528 39.8289 67.6604 40.3007 66.576C40.3007 66.576 40.7525 67.2989 41.6863 66.9074C41.7666 66.8672 41.7465 66.817 41.6963 66.7969C40.4313 66.3853 41.2546 65.321 41.3349 65.2106C41.9373 65.562 42.4293 65.1303 42.4293 64.7487ZM38.2927 61.1443C38.1521 61.7869 37.5899 61.8773 37.2385 61.4857C37.2787 61.1744 37.5799 61.1042 38.2927 61.1443ZM24.8289 50.4114C24.8289 50.572 24.8991 50.7126 24.9493 50.7929C25.0598 50.9536 25.0397 51.0439 24.9895 51.0941C24.9393 51.1443 24.8489 51.1644 24.6883 51.054C24.5765 50.9753 24.4433 50.9333 24.3068 50.9335C24.0357 50.9335 23.8951 51.1142 23.8951 51.2648C23.8951 51.4154 24.0357 51.5961 24.3068 51.5961C24.4674 51.5961 24.608 51.5259 24.6883 51.4757C24.8489 51.3652 24.9393 51.3853 24.9895 51.4355C25.0397 51.4857 24.9694 52.0379 24.8991 52.4797C24.4473 52.5801 24.2264 52.9415 24.2264 53.1524C24.2264 53.7046 24.8088 54.0158 25.1602 54.2066C25.5015 54.0259 26.0939 53.7046 26.0939 53.1524C26.0939 52.9415 25.873 52.57 25.4212 52.4797C25.361 52.0479 25.2807 51.4857 25.3309 51.4355C25.3811 51.3853 25.4714 51.3652 25.6321 51.4757C25.7124 51.5359 25.853 51.5961 26.0136 51.5961C26.2847 51.5961 26.4252 51.4154 26.4252 51.2648C26.4252 51.1142 26.2847 50.9335 26.0136 50.9335C25.853 50.9335 25.7124 51.0038 25.6321 51.054C25.4714 51.1644 25.3811 51.1443 25.3309 51.0941C25.2807 51.0439 25.2606 50.9536 25.371 50.7929C25.4313 50.7126 25.4915 50.572 25.4915 50.4114C25.4915 50.1403 25.3108 49.9997 25.1602 49.9997C25.0096 49.9997 24.8289 50.1403 24.8289 50.4114ZM25.1702 54.4877C25.0372 54.4877 24.9071 54.5272 24.7964 54.6011C24.6858 54.6749 24.5996 54.7801 24.5487 54.903C24.4978 55.0259 24.4845 55.1611 24.5104 55.2916C24.5364 55.4221 24.6004 55.542 24.6945 55.6361C24.7886 55.7302 24.9085 55.7942 25.0389 55.8201C25.1694 55.8461 25.3047 55.8328 25.4276 55.7819C25.5505 55.731 25.6556 55.6447 25.7296 55.5341C25.8035 55.4235 25.8429 55.2934 25.8429 55.1604C25.841 54.9826 25.7696 54.8125 25.6438 54.6868C25.5181 54.561 25.348 54.4895 25.1702 54.4877ZM25.1702 60.9234C27.8509 60.9234 29.357 61.4355 29.357 61.4355C29.367 60.0801 29.367 59.3271 30.1401 59.4375C29.7184 58.303 31.5457 57.8512 31.5457 56.3753C31.5457 55.4014 30.853 55.2909 30.6521 55.2909C30.0497 55.2909 30.1401 55.6825 29.6281 55.6825C29.5678 55.6825 29.4975 55.6624 29.4975 55.7126C29.4975 55.8833 29.6381 56.1744 29.8791 56.1744C30.2003 56.1744 30.2003 55.8532 30.4413 55.8532C30.5417 55.8532 30.6923 55.9335 30.6923 56.2648C30.6923 56.8973 30.2807 57.5901 29.7887 58.1323C29.6783 57.9817 29.5277 57.8813 29.3369 57.8813C29.0457 57.8813 28.7947 58.1825 28.7947 58.554C28.7947 58.6945 28.8148 58.7949 28.865 58.9054C28.7044 58.9957 28.5538 59.0459 28.4534 59.0459C28.2325 59.0459 27.9011 58.9556 27.9011 58.4736C27.9011 57.3993 29.3369 56.4556 29.3369 55.0901C29.3369 54.4375 28.9052 53.7949 27.9915 53.7949C27.0176 53.7949 27.1983 54.6785 26.355 54.6785C26.3148 54.6785 26.2847 54.6885 26.2847 54.7287C26.2847 54.7889 26.4353 55.2809 26.867 55.2809C27.3289 55.2809 27.4594 54.4777 27.8811 54.4777C28.0317 54.4777 28.2626 54.568 28.2626 55.1102C28.2626 55.5319 28.0517 56.2246 27.7505 56.8773C27.6404 56.7609 27.4889 56.6924 27.3289 56.6865C26.9674 56.6865 26.7064 57.0379 26.7064 57.4495C26.7064 57.7106 26.8068 57.9716 26.9875 58.1323C26.7766 58.4034 26.5558 58.6242 26.2646 58.6242C25.6823 58.6242 25.4313 58.2929 25.4313 57.9315C25.4313 57.5399 26.1441 57.3993 26.1441 56.7969C26.1441 56.3853 25.873 56.1544 25.622 56.1544C25.3409 56.1544 25.2003 56.3351 25.1702 56.3351C25.1401 56.3351 24.9995 56.1544 24.7184 56.1544C24.4574 56.1544 24.1963 56.3853 24.1963 56.7969C24.1963 57.3993 24.9092 57.5499 24.9092 57.9315C24.9092 58.2929 24.6481 58.6242 24.0758 58.6242C23.7847 58.6242 23.5638 58.4034 23.353 58.1323C23.5337 57.9616 23.6341 57.7106 23.6341 57.4495C23.6341 57.0279 23.373 56.6865 23.0116 56.6865C22.9321 56.6884 22.8538 56.7062 22.7813 56.739C22.7089 56.7717 22.6437 56.8188 22.5899 56.8773C22.2887 56.2146 22.0779 55.5319 22.0779 55.1102C22.0779 54.568 22.3088 54.4777 22.4594 54.4777C22.871 54.4777 23.0015 55.2809 23.4734 55.2809C23.9052 55.2809 24.0558 54.7889 24.0558 54.7287C24.0558 54.6985 24.0256 54.6785 23.9855 54.6785C23.1421 54.6785 23.3228 53.7949 22.3489 53.7949C21.4453 53.7949 21.0036 54.4375 21.0036 55.0901C21.0036 56.4556 22.4393 57.3993 22.4393 58.4736C22.4393 58.9556 22.108 59.0459 21.8871 59.0459C21.7766 59.0459 21.6361 58.9957 21.4754 58.9054C21.5256 58.7849 21.5457 58.6945 21.5457 58.554C21.5457 58.1825 21.2947 57.8813 21.0036 57.8813C20.8228 57.8813 20.6722 57.9817 20.5618 58.1323C20.0698 57.5901 19.6582 56.8973 19.6582 56.2648C19.6582 55.9435 19.8088 55.8532 19.9092 55.8532C20.1401 55.8532 20.1501 56.1744 20.4714 56.1744C20.7124 56.1744 20.853 55.8833 20.853 55.7126C20.853 55.6624 20.7827 55.6825 20.7224 55.6825C20.2104 55.6825 20.3007 55.2909 19.6983 55.2909C19.4975 55.2909 18.8048 55.4014 18.8048 56.3753C18.8048 57.8612 20.6321 58.303 20.2104 59.4375C20.9835 59.3271 20.9734 60.0801 20.9935 61.4355C20.9734 61.4355 22.4895 60.9234 25.1702 60.9234ZM20.2606 62.9214C19.5277 63.0821 19.0056 63.2327 18.7746 63.303C18.7847 62.9817 18.9052 62.6805 19.1963 62.6202C19.2365 62.6102 19.2465 62.56 19.2064 62.5399C18.5538 62.1082 18.2124 62.9315 18.2023 62.9616C17.9714 62.9415 17.62 63.0118 17.62 63.323C17.62 64.2568 15.4915 64.7688 14.9995 64.8491C15.873 65.1805 16.2345 66.2849 16.2345 66.2849C16.867 65.6524 17.5999 65.1001 17.7706 65.1001C17.9413 65.1001 18.0015 65.311 18.0116 65.4315C18.0116 65.4716 18.0517 65.4817 18.0819 65.4516C18.4132 64.9596 18.2526 64.8491 18.2224 64.6985C18.2023 64.5881 18.2325 64.1564 18.7144 64.2066V70.4214L18.4634 70.4716C18.353 70.4917 17.4393 69.7186 16.4052 68.9957C15.361 68.2728 14.8088 68.7046 13.624 69.3471C12.0678 70.1905 10.5015 69.4275 10.5015 69.4275C9.16618 70.3813 8.70432 73.1524 8.70432 73.1524C8.43323 73.2628 7.99147 73.3833 7.57982 73.3833C6.55572 73.3833 6.37501 72.7608 6.37501 72.3993C6.37501 70.823 8.35292 70.1503 8.35292 68.5941C8.35292 68.2126 8.18223 66.6865 6.28464 66.6865H4.58786C3.87501 66.6865 3.70432 66.1744 3.60392 65.9837C3.56376 65.9034 3.49347 65.9536 3.52359 66.0138C3.5738 66.1443 3.44326 66.3451 3.44326 66.7367C3.44326 67.3692 3.81477 67.7508 4.50754 67.7508C4.81879 67.7508 5.11998 67.6604 5.21034 67.6001C5.27058 67.56 5.31074 67.6202 5.28062 67.6604C4.97942 68.0118 4.95934 68.6744 5.07982 68.8251C5.10994 68.8652 5.15011 68.8552 5.15011 68.8251C5.32079 68.1624 5.94327 67.5299 6.78665 67.5299C7.82078 67.5299 7.81074 68.4034 7.81074 68.6142C7.81074 69.8793 5.59188 70.803 5.59188 72.5499C5.59188 74.317 7.45934 74.6885 8.53363 74.4174C8.47339 76.1845 6.44528 76.7869 6.38504 75.5218C6.38504 75.4616 6.33484 75.4516 6.30472 75.5319C6.05371 76.1544 6.15412 76.7066 6.93725 76.8773C6.98745 76.8873 6.96737 76.9174 6.91717 76.9576C6.13404 77.4495 6.55573 79.3973 6.59589 79.9696C6.65613 80.7929 5.83284 80.6925 5.76256 80.6724C5.73244 80.6624 5.69227 80.6724 5.75251 80.7427C6.33484 81.4556 7.05773 80.803 7.05773 80.803C7.5999 80.9736 7.26857 81.4355 6.89709 81.6765C6.83685 81.7166 6.8469 81.7568 6.90714 81.7568C6.98746 81.7668 7.83082 81.8371 7.98143 81.1644C8.35291 81.6062 8.90512 81.4455 9.01556 81.3853C9.1762 81.305 9.96938 81.0138 10.0397 81.8973C10.0397 81.9576 10.0799 81.9174 10.11 81.8873C10.7023 81.1343 10.0698 80.6724 9.70833 80.6222C9.73845 80.5821 10.2104 80.1805 10.6421 80.7327C10.6722 80.7728 10.7023 80.7829 10.7023 80.7026C10.7526 79.7487 9.97942 79.6684 9.47741 80.0801C9.45733 79.9797 9.28665 79.4475 10.0397 79.4676C10.0598 79.4676 10.0899 79.4375 10.0598 79.4074C9.47742 78.7849 8.99548 79.3471 8.875 79.4877C8.61396 79.7989 7.96135 79.6684 7.9011 79.6684C8.10191 76.3652 11.0136 77.5399 11.4152 75.9335C11.4353 75.8532 11.4754 75.8833 11.4754 75.9134C11.5859 76.305 12.5698 76.3552 12.7505 75.5921C12.7606 75.5419 12.7505 75.5118 12.7204 75.5419C11.877 76.3853 9.97943 73.7548 12.5698 71.6162C14.7787 69.7989 16.7566 70.813 17.5096 71.4054C17.5497 71.6664 17.3891 71.7568 17.2887 71.7869C17.2485 71.7969 17.2385 71.8271 17.2987 71.8572C17.5096 71.9375 17.8007 71.9074 17.9413 71.7166C18.4132 72.0479 18.0116 72.4696 17.8208 72.5801C17.7706 72.6102 17.7907 72.6403 17.8309 72.6503C18.2626 72.7307 18.624 72.2889 18.6441 72.0279L18.7144 72.068V73.9455C18.7144 76.6162 21.7967 76.9877 25.1803 79.2467C28.5638 76.9777 31.6361 76.6162 31.6361 73.9455V72.068L31.7064 72.0279C31.7264 72.2789 32.0778 72.7307 32.5196 72.6503C32.5598 72.6403 32.5799 72.6102 32.5297 72.5801C32.3389 72.4596 31.9273 72.0479 32.4092 71.7166C32.5497 71.9174 32.8409 71.9375 33.0517 71.8572C33.112 71.8371 33.1019 71.7969 33.0618 71.7869C32.9614 71.7568 32.8007 71.6664 32.8409 71.4054C33.5939 70.803 35.5718 69.7889 37.7807 71.6162C40.371 73.7548 38.4734 76.3752 37.6301 75.5419C37.5899 75.5018 37.5899 75.5419 37.5999 75.5921C37.7807 76.3652 38.7646 76.305 38.875 75.9134C38.8851 75.8833 38.9252 75.8532 38.9353 75.9335C39.3369 77.5399 42.2385 76.3652 42.4493 79.6684C42.3891 79.6785 41.7365 79.7989 41.4754 79.4877C41.365 79.3572 40.8831 78.7849 40.2907 79.4074C40.2505 79.4475 40.2907 79.4676 40.3108 79.4676C41.0638 79.4475 40.9032 79.9797 40.873 80.0801C40.371 79.6684 39.5979 79.7487 39.6481 80.7026C39.6481 80.7728 39.6783 80.7728 39.7084 80.7327C40.1401 80.1805 40.612 80.5821 40.6421 80.6222C40.2907 80.6724 39.6481 81.1343 40.2405 81.8873C40.2706 81.9174 40.3007 81.9576 40.3108 81.8973C40.3911 81.0138 41.1742 81.2949 41.3349 81.3853C41.4453 81.4455 41.9975 81.6062 42.369 81.1644C42.5196 81.8371 43.363 81.7668 43.4433 81.7568C43.5036 81.7568 43.5036 81.7166 43.4534 81.6765C43.0919 81.4355 42.7505 80.9736 43.2927 80.803C43.2927 80.803 44.0156 81.4556 44.5979 80.7427C44.6481 80.6825 44.618 80.6624 44.5879 80.6724C44.5176 80.6925 43.6943 80.7929 43.7546 79.9696C43.7947 79.3973 44.2164 77.4495 43.4333 76.9576C43.3831 76.9275 43.363 76.8973 43.4132 76.8773C44.1963 76.7066 44.2967 76.1544 44.0457 75.5319C44.0156 75.4516 43.9654 75.4716 43.9654 75.5218C43.9052 76.7869 41.8871 76.1845 41.8168 74.4174C42.9011 74.6985 44.7586 74.317 44.7586 72.5499C44.7586 70.813 42.5397 69.8793 42.5397 68.6142C42.5397 68.4034 42.5297 67.5299 43.5638 67.5299C44.4072 67.5299 45.0297 68.1624 45.2003 68.8251C45.2104 68.8552 45.2405 68.8652 45.2706 68.8251C45.3911 68.6644 45.371 68.0118 45.0698 67.6604C45.0397 67.6303 45.0698 67.56 45.1401 67.6001C45.2305 67.6604 45.5317 67.7508 45.8429 67.7508C46.5357 67.7508 46.9072 67.3692 46.9072 66.7367C46.9072 66.3451 46.7666 66.1443 46.8268 66.0138C46.857 65.9536 46.7766 65.9134 46.7465 65.9837C46.6461 66.1845 46.4653 66.6865 45.7625 66.6865H44.0658C42.1682 66.6865 41.9975 68.2226 41.9975 68.5941C41.9975 70.1503 43.9754 70.823 43.9754 72.3993C43.9754 72.7708 43.7847 73.3833 42.7706 73.3833C42.3489 73.3833 41.9072 73.2628 41.6461 73.1524C41.6461 73.1524 41.1943 70.3913 39.8489 69.4275C39.8489 69.4275 38.2827 70.1905 36.7264 69.3471C35.5417 68.7046 34.9795 68.2728 33.9353 68.9957C32.8911 69.7186 31.9875 70.4917 31.877 70.4716L31.626 70.4214V64.2066C32.108 64.1564 32.1381 64.5881 32.118 64.6985C32.0879 64.8391 31.9373 64.9596 32.2586 65.4516C32.2887 65.4917 32.3188 65.4716 32.3289 65.4315C32.3389 65.311 32.4092 65.1001 32.5698 65.1001C32.7305 65.1001 33.4734 65.6524 34.106 66.2849C34.106 66.2849 34.4674 65.1905 35.3409 64.8491C34.8489 64.7688 32.7204 64.2568 32.7204 63.323C32.7204 63.0118 32.369 62.9415 32.1381 62.9616C32.1281 62.9315 31.7766 62.1082 31.1341 62.5399C31.104 62.56 31.104 62.6102 31.1441 62.6202C31.4353 62.6905 31.5558 62.9817 31.5658 63.303C30.9433 63.1122 28.3028 62.3692 25.1702 62.3692C23.6441 62.3692 22.2485 62.5499 21.1341 62.7508V64.8993H20.2606V62.9214ZM14.4674 84.9897C14.2365 84.8993 14.0859 84.7487 14.0859 84.4375V83.1021C13.7044 82.9716 12.6602 82.57 10.5618 82.57C8.82481 82.57 8.28263 82.9616 8.25251 83.1021L7.79066 85.6524C7.79066 85.6524 8.49347 85.0098 11.0136 85.1704C14.0457 85.3612 17.1883 87.1584 17.1883 85.2407V84.1162C14.8188 84.1162 14.4674 84.8793 14.4674 84.9897ZM33.1421 84.1162V85.2407C33.1421 87.1483 36.2847 85.3612 39.3168 85.1704C41.8369 85.0098 42.5397 85.6524 42.5397 85.6524L42.0778 83.1021C42.0578 82.9616 41.5056 82.57 39.7686 82.57C37.6803 82.57 36.6361 82.9716 36.2445 83.1021V84.4375C36.2445 84.7387 36.0939 84.8893 35.863 84.9897C35.863 84.8793 35.5116 84.1162 33.1421 84.1162ZM25.1702 82.9616C30.0598 82.9616 35.0196 83.2126 35.6622 83.9556C35.7124 84.0158 35.7325 83.9556 35.7325 83.9054V81.315C35.7325 80.562 30.612 80.1202 25.1602 80.1202C19.7084 80.1202 14.5879 80.562 14.5879 81.315V83.9054C14.5879 83.9455 14.608 84.0058 14.6582 83.9556C15.3208 83.2226 20.2807 82.9616 25.1702 82.9616ZM20.8128 70.7528L20.3208 70.6222L20.2807 70.6825L19.7084 70.4315H20.2204C20.2706 70.4315 20.2706 70.4014 20.2505 70.3813C20.0196 70.1503 19.8088 69.9495 19.8088 69.9495C19.8088 69.9495 20.0397 70.0399 20.371 70.1604C20.4112 70.1704 20.4212 70.1503 20.4011 70.1202L20.0196 69.568L20.5718 69.9395C20.6019 69.9596 20.622 69.9395 20.612 69.9094L20.3509 69.2568L20.853 69.7387C20.873 69.7588 20.9032 69.7487 20.8931 69.7186L20.7525 69.066L21.124 69.6082C21.1441 69.6383 21.1742 69.6283 21.1742 69.5981C21.1742 69.4877 21.1843 69.0058 21.1843 69.0058C21.1843 69.0058 21.3449 69.3672 21.4152 69.5479C21.4353 69.5881 21.4554 69.5881 21.4754 69.5379C21.4955 69.4777 21.6662 69.0761 21.6662 69.0761L21.6863 69.6985L21.606 69.7186L21.5056 70.4616C22.2385 70.2909 23.1622 69.0259 23.865 69.0259C24.7084 69.0259 25.0096 70.0098 26.5558 69.5078C26.9473 70.0901 27.0879 70.5921 27.2385 71.2849C27.8409 71.8471 28.6742 71.6564 28.6742 71.064C28.6742 70.2608 27.8007 70.1102 27.8007 69.2668C27.8007 68.8953 28.0618 68.3532 28.7746 68.3532C29.1562 68.3532 29.7084 68.5138 30.0297 68.5138C30.4112 68.5138 30.4915 68.2427 30.5317 68.1222C30.5618 68.0419 30.6722 68.062 30.6622 68.1323C30.6521 68.2126 30.7023 68.323 30.7023 68.5038C30.7023 69.0359 29.9293 69.1062 29.8389 69.0359C29.7987 69.0058 29.7686 69.0459 29.7987 69.0761C29.9192 69.1664 29.8891 69.4877 29.7485 69.6885C29.7285 69.7086 29.7084 69.7086 29.7084 69.6885C29.6281 69.307 29.1762 68.8351 28.7847 68.8351C28.6441 68.8351 28.353 68.9154 28.353 69.2568C28.353 69.7287 29.3068 70.1704 29.3068 71.1544C29.3068 72.1785 28.2927 72.4295 27.2686 72.1684C27.2987 73.1423 28.7546 73.7146 28.7847 73.0218C28.7847 72.9716 28.8148 73.0018 28.8248 73.0218C29.0357 73.323 28.9453 73.5439 28.6642 73.6644C28.9152 73.7748 28.9654 74.2869 29.0357 74.5981C29.1461 75.06 29.6281 74.7989 29.6582 74.7889C29.6883 74.7688 29.6983 74.7889 29.6783 74.819C29.4975 75.2909 29.0056 75.1102 29.0056 75.1102C28.7546 75.2909 29.0558 75.4516 29.2867 75.5218C29.3168 75.5319 29.3168 75.552 29.2967 75.572C29.126 75.6323 28.7646 75.7528 28.5839 75.4415C28.4534 75.7628 28.1823 75.7528 28.0819 75.7528C27.8911 75.7528 27.7706 75.9435 27.8108 76.2046C27.8108 76.2246 27.8007 76.2347 27.7807 76.2246C27.3389 75.9335 27.5899 75.5821 27.7706 75.4917C27.7405 75.4716 27.4293 75.3411 27.2987 75.7026C27.2887 75.7327 27.2686 75.7327 27.2586 75.7026C27.0678 75.1805 27.4895 75.0299 27.7907 75.1604C27.7706 75.0901 27.61 74.8291 27.2084 74.9194C27.1883 74.9295 27.1783 74.9194 27.1883 74.8893C27.2586 74.7287 27.4493 74.4977 27.8208 74.7287C28.0116 74.8491 28.3329 74.6785 28.363 74.6584C27.7104 73.3632 26.4554 74.4475 26.1642 73.4335C26.1542 73.4134 26.1341 73.3933 26.114 73.4536C26.0437 73.6644 25.4915 73.6845 25.3911 73.2628C25.3811 73.2327 25.3911 73.2226 25.4212 73.2427C25.5015 73.323 25.6722 73.3933 25.9032 73.072C26.0538 72.8512 26.0738 72.56 26.0738 72.3692C26.0738 71.5861 25.2907 70.2608 24.0658 70.2608C23.2927 70.2608 22.4594 70.562 21.8369 71.0138L22.4092 71.1443C22.359 71.7267 21.7967 72.068 21.2847 71.9174L21.375 71.2548C21.2847 71.2849 21.0638 71.3652 20.9433 71.5359C20.9333 71.5459 20.9132 71.5459 20.9132 71.5258C20.8128 71.1443 21.124 70.9536 21.2144 70.9134C21.2244 70.9034 21.2244 70.9034 21.2044 70.9034C20.9232 70.8933 20.7726 71.0941 20.7224 71.1644C20.7124 71.1744 20.7023 71.1744 20.7023 71.1644C20.7325 71.0841 20.6823 70.8933 20.8128 70.7528ZM22.5196 75.2507C22.2987 75.5218 22.108 75.2608 21.8168 75.2608C21.5457 75.2608 21.4955 75.4917 21.4955 75.5821C21.4955 75.6022 21.4855 75.6022 21.4754 75.5921C21.1642 75.1704 21.5156 74.9395 21.7164 74.9094C21.6863 74.8793 21.3851 74.6785 21.1943 74.9596C21.1843 74.9797 21.1642 74.9696 21.1642 74.9495C21.1542 74.4275 21.5658 74.3873 21.8469 74.6182C21.8971 74.4174 21.7666 74.2869 21.5457 74.2769C21.5156 74.2769 21.5156 74.2568 21.5256 74.2467C21.616 74.1463 21.7064 74.1062 21.7967 74.1062C22.0879 74.1062 22.1281 74.4777 22.3188 74.4777C22.5999 74.4777 23.0116 74.0961 23.0417 74.056C23.0317 74.0359 22.7606 73.2929 22.8108 72.8511C22.8108 72.8311 22.8007 72.8311 22.7907 72.8411C22.6501 72.9214 22.3088 72.9114 22.3088 72.4897C22.3088 72.4596 22.3188 72.4495 22.3389 72.4797C22.4895 72.6905 22.7405 72.4495 22.861 72.309C22.9915 72.1584 23.7144 71.1142 24.6682 71.1142C24.8791 71.1142 25.1501 71.2347 25.371 71.3853C25.0397 71.7869 25.371 72.1684 25.612 72.1182C25.6421 72.1082 25.6421 72.1383 25.622 72.1483C24.357 72.6202 23.7947 72.811 23.7947 73.8752C23.7947 74.4275 23.9855 74.7387 24.3068 74.6584C24.3268 74.6483 24.3369 74.6584 24.3168 74.6785C24.1963 74.819 24.0658 74.8692 23.9554 74.8692C23.6943 74.8692 23.6441 74.7287 23.5036 74.7287C23.363 74.7287 22.8911 75.0098 22.8911 75.2407C22.8911 75.3311 22.9513 75.4516 23.112 75.552C23.122 75.562 23.112 75.572 23.112 75.572C22.9815 75.572 22.61 75.6022 22.5196 75.2507ZM25.853 64.9596C25.4614 64.9395 25.2003 65.0198 25.2204 65.1503C25.4011 65.3512 25.6622 65.3311 25.853 64.9596ZM24.3871 65.9335C24.6682 65.8632 24.9694 65.8933 25.0096 65.9034C25.0497 65.9134 25.0497 65.9837 24.9995 65.9937C24.4172 66.064 24.3871 66.3351 24.0156 66.3351C23.7746 66.3351 23.5036 66.0841 23.604 65.7226C23.614 65.6724 23.6542 65.6724 23.6642 65.7226C23.7044 65.8833 23.9353 66.054 24.3871 65.9335ZM16.8268 78.8451C17.2084 79.3371 17.5799 78.8752 18.0919 78.8752C18.3429 78.8752 18.6441 78.9556 18.6943 79.4576C18.6943 79.4877 18.7144 79.4877 18.7445 79.4576C19.2967 78.7046 18.6642 78.2829 18.3028 78.2226C18.3831 78.1524 18.9152 77.821 19.2666 78.313C19.2867 78.3431 19.3268 78.3331 19.3268 78.2929C19.3268 77.3391 18.614 77.2688 18.0919 77.6805C17.9915 77.309 18.2726 77.068 18.6341 77.068C18.6742 77.068 18.6943 77.0379 18.6742 77.0178C18.0317 76.3351 17.5598 77.1985 17.4493 77.3291C17.1983 77.6704 16.2847 77.0279 15.9132 76.6463C15.9132 76.6463 16.7164 75.803 16.7164 75.0299C16.7164 74.9797 16.7064 74.9194 16.7064 74.8893C16.7064 74.8692 16.7164 74.8592 16.7365 74.8692C16.8168 74.9194 16.9272 74.9495 17.0377 74.9495C17.2184 74.9495 17.5698 74.8893 17.5698 74.2367C17.5698 74.1865 17.5497 74.1865 17.5297 74.2166C17.4293 74.3572 17.3289 74.3873 17.2485 74.3873C16.5959 74.3873 15.2405 72.2186 13.6341 72.2186C13.2124 72.2186 12.4192 72.5198 12.0277 72.9516C12.2184 73.062 12.2586 73.303 12.2385 73.4736C12.2084 73.7447 11.9875 73.8853 11.7666 73.9455C11.7264 73.9556 11.7264 73.9857 11.7666 74.0058C12.5799 74.317 14.0457 74.8692 14.3871 75.1604C14.7787 75.5018 14.7084 76.1443 14.4774 77.0379C14.2566 77.8913 13.7847 77.7809 13.604 77.7508C13.5738 77.7508 13.5738 77.7608 13.5839 77.7809C13.7947 78.0419 14.0457 78.1323 14.2666 78.1323C14.6883 78.1323 14.8489 77.8712 15.0598 77.8712C15.4212 77.8712 16.1943 78.3933 16.1943 78.7949C16.1943 79.0158 16.0236 79.2267 15.7927 79.3672C15.7827 79.3773 15.7827 79.3973 15.8028 79.3973C15.9734 79.4275 16.6963 79.4877 16.8268 78.8451ZM34.5377 79.3973C34.5578 79.3973 34.5678 79.3773 34.5477 79.3672C34.3268 79.2166 34.1461 79.0158 34.1461 78.7949C34.1461 78.3933 34.9092 77.8712 35.2807 77.8712C35.5015 77.8712 35.6521 78.1323 36.0738 78.1323C36.2947 78.1323 36.5457 78.0419 36.7566 77.7809C36.7766 77.7608 36.7666 77.7407 36.7365 77.7508C36.5658 77.7809 36.0839 77.8913 35.863 77.0379C35.6321 76.1443 35.5517 75.5018 35.9534 75.1604C36.2847 74.8692 37.7606 74.317 38.5738 74.0058C38.614 73.9857 38.614 73.9556 38.5738 73.9455C38.353 73.8853 38.1321 73.7447 38.1019 73.4736C38.0819 73.303 38.122 73.072 38.3128 72.9516C37.9112 72.5198 37.118 72.2186 36.6963 72.2186C35.0899 72.2186 33.7345 74.3873 33.0819 74.3873C33.0015 74.3873 32.8911 74.3572 32.8007 74.2166C32.7807 74.1865 32.7606 74.1865 32.7606 74.2367C32.7606 74.8893 33.112 74.9495 33.2927 74.9495C33.3931 74.9495 33.5136 74.9194 33.5939 74.8692C33.614 74.8592 33.624 74.8692 33.624 74.8893C33.624 74.9194 33.614 74.9797 33.614 75.0299C33.614 75.803 34.4172 76.6463 34.4172 76.6463C34.0558 77.0279 33.1421 77.6604 32.8811 77.3291C32.7706 77.1885 32.2987 76.3351 31.6562 77.0178C31.6361 77.0479 31.6461 77.068 31.6963 77.068C32.0578 77.068 32.3389 77.309 32.2385 77.6805C31.7164 77.2688 31.0036 77.3391 31.0036 78.2929C31.0036 78.3331 31.0437 78.3431 31.0638 78.313C31.4052 77.821 31.9473 78.1524 32.0176 78.2226C31.6562 78.2728 31.0337 78.7046 31.5758 79.4576C31.5959 79.4877 31.616 79.4877 31.626 79.4576C31.6863 78.9656 31.9875 78.8752 32.2285 78.8752C32.7305 78.8752 33.1019 79.3371 33.4935 78.8451C33.6441 79.4877 34.357 79.4275 34.5377 79.3973ZM21.5658 66.8773C21.5156 66.9475 21.3449 66.8773 21.2847 66.8471C21.2746 66.8371 21.2646 66.8471 21.2746 66.8572C21.3148 66.9475 21.4754 67.2186 21.7164 67.2186C21.8268 67.2186 21.9875 67.1584 22.0277 67.0781C22.0277 67.0781 22.9714 67.3893 23.4333 67.5098C23.2525 67.7507 23.1421 68.0419 23.112 68.3532C22.7405 68.1222 21.2345 67.319 21.2345 67.319L20.7726 67.9616C20.6923 68.062 20.3208 67.7909 20.4011 67.6905L20.7525 67.1985C20.6321 67.0781 20.3509 67.1483 20.2706 67.1785C20.2606 67.1785 20.2505 67.1785 20.2606 67.1584C20.3108 67.058 20.4815 66.7668 20.9232 66.8973C20.9232 66.6262 20.5216 66.7166 20.4112 66.7467C20.4011 66.7467 20.3911 66.7467 20.4011 66.7367C20.5116 66.6162 20.8429 66.3552 21.2044 66.576L21.365 66.3552L21.0437 66.0138L21.2445 65.7327L21.4754 66.0339L23.2124 63.6544C23.2525 63.5941 23.604 63.4937 23.7244 63.4636C23.7345 63.5941 23.7546 63.9556 23.7144 64.0158L22.0076 66.4154L22.369 66.5359L22.1682 66.817L21.7465 66.6162L21.5658 66.8773ZM27.6602 66.4857C27.6602 66.7066 27.7907 67.0279 28.0819 66.9275C28.0919 66.9174 28.112 66.9275 28.1019 66.9375C28.0618 67.1785 27.62 67.3993 27.4293 67.1182C27.2485 67.4897 27.2987 67.8411 27.6702 68.0419C27.6903 68.052 27.6903 68.0821 27.6702 68.1022C27.4393 68.2628 27.0879 68.2327 26.9272 67.9114C26.616 68.1423 26.6562 68.6443 26.8469 68.815C26.8469 68.815 25.9835 69.3271 25.2003 68.9656C24.6783 68.7146 24.2566 68.3933 23.5839 68.4536C23.6742 67.5098 24.1461 67.2688 25.0096 67.1283C25.7023 67.0178 25.7827 66.6965 25.6923 66.4556C25.4614 66.3953 25.0297 66.6062 25.0297 66.6062C24.9493 66.4756 25.0598 66.3451 25.0598 66.3451C25.0196 66.2949 24.9995 66.1242 24.9995 66.1242C25.4815 66.1242 25.5718 66.0138 25.5718 66.0138C25.6622 65.5118 25.1501 65.4616 24.7586 65.7327C24.5779 65.572 24.608 65.3612 24.608 65.3612C24.5834 65.3436 24.5627 65.3211 24.5471 65.2952C24.5316 65.2693 24.5215 65.2405 24.5176 65.2106C24.5176 65.0901 25.0899 64.7688 25.2405 64.7287C25.2807 64.558 25.4815 64.3271 26.0939 64.3873C26.1642 64.2267 26.0437 63.6343 25.9734 63.4837C25.9534 63.4335 25.9835 63.4134 26.0337 63.4435C26.2445 63.574 26.4554 64.0761 26.606 64.0861C26.606 64.0861 27.2887 63.7246 27.3188 63.7447C27.3489 63.7648 27.4493 64.5279 27.4493 64.5279C27.5397 64.6383 28.0718 64.5279 28.3028 64.6283C28.363 64.6584 28.363 64.6985 28.3028 64.7086C28.1321 64.7387 27.5799 64.9797 27.4895 65.1303C27.8108 65.6022 27.6602 66.2949 27.6602 66.4857Z" fill="white"/>
</svg>
