<svg height="64" viewBox="0 0 64 64" width="64" xmlns="http://www.w3.org/2000/svg"><path d="m0 0h64v64h-64z" fill="none"/><path d="m10.0378 21.4891.7081-.086 8.0009 3.8502c.0544-1.5913.4213-3.3035 1.5195-4.7784l-7.2049-2.5247c-.251-.6806-.8253-2.0679-1.3993-2.2604-.7649-.2565-1.5895.8596-1.5895.8596-.9929-.2474-1.3253-.9026-.7447-1.4297-1.6882-.6346-2.5773.7669-2.1298 1.6639-.4529.0866-.8256.4385-.8981.9204-.0546.3622.085.6964.3239.9385-.2429.1571-.4249.4045-.4713.713-.0785.5212.2779.9252.7042 1.2095 1.23.82 2.4904 1.008 3.181.9241z"/><path d="m27.5458 37.787-8.0632 5.0744c-2.0612 1.283-2.9532 3.8264-2.145 6.1158l1.2134 3.4374-2.9852 3.5894h-1.0317c-1.2548 0-2.3862.7553-2.8674 1.9142l-.655 2.0818h5.7185l6.5977-5.8865s-2.7167-4.6313 1.1643-7.2187c2.1943-1.4629 4.3969-2.4702 5.8979-3.07-.3465-3.9355-1.6234-5.4042-2.8443-6.0378z"/><path d="m52.8862 23.436c-1.0806 0-2.0044.6635-2.3915 1.6044-1.3316-.0061-2.534-.0952-3.9379.0826-1.0353.1448-2.3216.4137-3.3769 1.4463-1.0048.9966-1.4755 2.4444-1.0817 4.0655.7709 3.0477 4.2837 6.3586 3.7036 8.2311-.7612 2.3334-3.8248 1.5049-5.9181.5475-.1544-3.0412-.9562-6.2222-2.4547-9.4496-4.5867.5156-6.8204-.5463-7.8025-1.3209-.4983-.393-.3445-.5088-.2597-.5824 3.4866 1.0061 9.4064-.0292 10.8414-3.2307 0 0-2.1323-2.863-.4594-5.7932.0128-.0175.0229-.0331.0358-.0506 3.9677-5.3775.4194-10.3038-1.2991-12.1817l.2378-2.3779s-1.1472-.5624-3.5868 1.5734h-3.6592c-.6783 0-1.3135.3323-1.7003.8895l-.5774.8317-3.6795 2.096.937 2.3296 1.4985-.5399c1.0754-.3875 2.2614.1703 2.6489 1.2458l.2501.6942-3.3491 1.2065.7157 1.7794 3.2062-.7404s1.6099 2.6845-3.6169 3.3892c-7.235.9755-7.0994 5.0263-6.5709 9.196l-8.4844 5.2115c-.7061-.1976-2.1394-.5367-2.6274-.1887-.6569.4684-.2379 1.7913-.2379 1.7913-.7834.6583-1.5089.5425-1.5945-.237-1.5052.9937-.8931 2.5364.0958 2.701-.1959.4174-.13.9258.2174 1.2675.2611.2568.6135.3402.9498.2891-.0154.2888.0779.5814.3003.8002.3757.3697.912.3185 1.3925.1404 1.3862-.5139 2.2785-1.4236 2.6163-2.0319l.3265-.588c3.1673-1.6185 8.4957-3.6696 13.2385-2.2426 3.9576 1.1908 5.3364 5.207 5.3364 10.7698s3.9714 5.9832 7.2056 5.9832 4.0085 3.9603 4.0085 3.9603h-1.147c-1.3864 0-2.8147.9191-3.1954 2.2522l-.5315 1.7443h7.1054l1.7031-1.7643-1.7031-8.0457-6.8935-4.8744c.1496-.5789.2706-1.1669.3647-1.7628 3.9072 1.005 7.6217.4979 9.0606-3.3354.8586-3.5543-1.7679-6.1591-3.3736-8.3337-2.0328-2.7531-1.0109-4.3796 1.4735-4.799 1.0003-.1668 2.2658-.1882 3.6151-.1855.3601.9958 1.3048 1.7115 2.4248 1.7115 1.429 0 5.3472-2.5873 5.3472-2.5873s-3.9182-2.5874-5.3471-2.5874zm-21.393-12.9361c-.8284 0-1.5-.6715-1.5-1.4999h3c0 .8284-.6715 1.4999-1.5 1.4999z"/><path d="m23.2631 15.1939c1.7966 0 1.9252-1.2941 4.7416-1.6548.242-.0322.2479-.354.0356-.4252-.1575-.0515-1.645-.2123-2.9939.1292-2.202.5663-3.2965-.2578-3.4764-1.0173-.0515-.2129-.2288-.2064-.2901.0191-.4825 1.7577.7985 2.949 1.9832 2.949z"/></svg>