<?xml version="1.0" encoding="utf-8"?>
<!-- Generator: Adobe Illustrator 21.0.2, SVG Export Plug-In . SVG Version: 6.00 Build 0)  -->
<svg version="1.2" baseProfile="tiny" xmlns="http://www.w3.org/2000/svg" xmlns:xlink="http://www.w3.org/1999/xlink" x="0px"
	 y="0px" width="64px" height="64px" viewBox="0 0 64 64" xml:space="preserve">
<g id="_x36_4px_Box">
	<rect fill="none" width="64" height="64"/>
</g>
<g id="Icon">
	<g>
		<path d="M33.9,13L33.1,1.9c0-0.5-0.5-0.9-1-0.9h-7.1c-0.5,0-1,0.4-1,0.9l-0.7,9.6l5.5,1.1c0.3,0.1,0.3,0.3,0.2,0.4h-7.5
			c-3,0-5.5,2.5-5.5,5.5v38c0,3,2.5,5.5,5.5,5.5h21c3,0,5.5-2.5,5.5-5.5v-29C48,19.6,41.7,13.2,33.9,13z M33,27c0-2.2,1.8-4,4-4
			s4,1.8,4,4v8c0,2.2-1.8,4-4,4s-4-1.8-4-4V27z M42,59H21.5c-1.4,0-2.5-1.1-2.5-2.5V19c0-0.6,0.4-1,1-1s1,0.4,1,1v37.5
			c0,0.3,0.2,0.5,0.5,0.5H42c0.6,0,1,0.4,1,1S42.6,59,42,59z"/>
	</g>
</g>
</svg>
