<svg xmlns="http://www.w3.org/2000/svg" viewBox="0 0 64 64"><defs><style>.cls-1{fill:none;}</style></defs><g id="BOX"><rect class="cls-1" width="64" height="64"/></g><g id="ICOON"><path d="M19.57,24.65A4.56,4.56,0,0,1,19,23.28h.35a1.37,1.37,0,0,0,1.37-1.37V18.47a1.37,1.37,0,0,0-1.34-1.37,8,8,0,0,1,1.53-4.19l3.85,5a.94.94,0,0,0,1.6-1l-2.85-6h2a1.38,1.38,0,0,0,1.38-1.37V7.49a1.38,1.38,0,0,0-1.38-1.38H10.86a.71.71,0,0,0-.62.38L7.86,11.25a.68.68,0,0,0,0,.69l3.44,5.16h-.23a1.37,1.37,0,0,0-1.37,1.37v3.44a1.37,1.37,0,0,0,1.37,1.37h4.8s0,.18-.17.25l-4.73,1C9.39,27.54,7,32.75,7,37a18.58,18.58,0,0,0,1.38,7.74,2,2,0,0,0,1.87,1.18H22.07a2.07,2.07,0,0,0,1.51-.65A10.17,10.17,0,0,0,26,36.47C25.15,30.84,20.76,26.58,19.57,24.65Zm2.39,15a2.7,2.7,0,0,1-2.69,2.2H14a2.74,2.74,0,0,1-2.73-2.46A20.36,20.36,0,0,1,11.12,37c0-11.22,9.47-8.66,10.84.09A7.51,7.51,0,0,1,22,39.62Z"/><path d="M50,32.33a8,8,0,0,0-5.3-6.54l0-18.68c0-1.5-1.23-2-2.73-2s-2.73.5-2.73,2l0,18.68A8.06,8.06,0,0,0,34,32.36c0,.39-.13.77-.19,1.15l16.42,0C50.17,33.1,50.09,32.72,50,32.33Zm8.79,21.35a47.61,47.61,0,0,1-8.29-18.37l-17,0a47.43,47.43,0,0,1-8.24,18.41A.91.91,0,0,0,25.48,55a25,25,0,0,0,3.76,2.15,39.22,39.22,0,0,0,5.7-9.75s.31,0,.2.54a37.31,37.31,0,0,1-3.46,10.2,30.75,30.75,0,0,0,10.38,1.75,31.2,31.2,0,0,0,6.32-.64A35,35,0,0,1,44.63,44c0-.59.28-.51.28-.51a44.07,44.07,0,0,0,6.37,14.95,26.5,26.5,0,0,0,7.35-3.54A.91.91,0,0,0,58.83,53.68Z"/></g></svg>