<svg enable-background="new 0 0 64 64" viewBox="0 0 64 64" xmlns="http://www.w3.org/2000/svg"><path d="m0 0h64v64h-64z" fill="none"/><path d="m46.225 46.307c-.863 0-1.044.976-1.044 1.795 0 1.632.518 1.853 1.024 1.853.863 0 1.044-.892 1.044-1.641.001-1.799-.584-2.007-1.024-2.007zm-.997-11.171c.26-1.456.565-2.947.934-4.476 2.569-10.661 2.447-19.235-.362-25.484-.27-.6-.816-1.028-1.46-1.144-.234-.043-5.79-1.032-12.34-1.032s-12.106.989-12.339 1.031c-.644.116-1.19.544-1.46 1.144-2.807 6.243-2.928 14.81-.362 25.461 3.216 13.345 2.05 24.279 1.261 26.752-.41 1.287.543 2.612 1.892 2.612h.002l14.389-.018c-.136-1.25-.227-2.599-.285-3.98l-11.663.015c.746-5.029.999-14.977-1.734-26.322-2.215-9.191-2.309-16.649-.283-21.994 1.875-.278 6.016-.801 10.582-.801s8.707.523 10.582.801c.894 2.359 1.351 5.151 1.42 8.299h-21.709c-.108 4.54.718 9.319 1.653 13.176 2.438 10.056 2.596 18.933 2.083 24.618 0 0 5.634.866 9.038 1.39-.05-1.477-.067-2.927-.067-4.184 0-3.208.105-7.662.606-10.666.403-2.424 2.302-4.324 4.727-4.728 1.406-.234 3.131-.38 4.895-.47zm10.566 16.794c-.847 0-1.025.976-1.025 1.795 0 1.633.508 1.853 1.005 1.853.706 0 1.063-.552 1.063-1.641.001-1.799-.595-2.007-1.043-2.007zm7.641-11.104c-.195-1.173-1.087-2.065-2.261-2.261-3.391-.565-9.044-.565-10.174-.565s-6.783 0-10.174.565c-1.173.196-2.065 1.088-2.26 2.261-.566 3.391-.566 9.044-.566 10.174s0 6.783.565 10.174c.195 1.173 1.087 2.065 2.26 2.261 3.392.565 9.045.565 10.175.565s6.783 0 10.174-.565c1.174-.196 2.066-1.088 2.261-2.261.565-3.391.565-9.044.565-10.174 0-3.393 0-6.783-.565-10.174zm-20.576 7.449c0-2.896 1.844-3.924 3.423-3.924 2.09 0 3.289 1.374 3.289 3.77 0 2.617-1.785 3.809-3.443 3.809-1.491 0-3.269-.634-3.269-3.655zm6.434 9.727-1.839-.727 5.232-13.277 1.839.727zm6.405-.449c-1.491 0-3.269-.634-3.269-3.655 0-2.896 1.844-3.924 3.423-3.924 2.09 0 3.289 1.374 3.289 3.77 0 2.631-1.729 3.809-3.443 3.809z"/></svg>