<svg height="64" viewBox="0 0 64 64" width="64" xmlns="http://www.w3.org/2000/svg"><path d="m0 0h64v64h-64z" fill="none"/><path d="m0 0h64v64h-64z" fill="none"/><path d="m47.8774 29.7917c.9397-2.1949 1.3417-3.8302 1.0032-5.5784-.3785-1.9546-3.5978-3.5523-8.3521-4.4434-1.4641-.2744-2.5888-.1926-3.4426-1.391-.3237-.4542-.5059-1.027-.5686-1.681 1.4558-.598 2.4827-2.0265 2.4827-3.6979 0-2.2091-1.7909-4-4-4-.7612 0-1.4653.2243-2.071.5934.5556 2.7349-.1671 3.5018-.1671 3.5018-.3663.4274-.696.205-.7847.131.0043-.0764.0228-.1487.0228-.2262 0-2.2091-1.7909-4-4-4s-4 1.7909-4 4c0 1.6714 1.0269 3.0999 2.4827 3.6979-.0627.654-.2449 1.2268-.5686 1.681-.8539 1.1985-1.9782 1.1165-3.4429 1.3911-4.754.8912-7.9733 2.4887-8.3518 4.4433-.2267 1.171-.1147 2.2952.2621 3.567 3.4362-1.7418 9.7354-2.8303 17.1187-2.8303.09.1484-.0285.4528-.5568.5472-.4811.0859-11.2723 1.2386-16.3098 5.3517-2.1046 4.5936-3.458 9.7921-3.4128 13.8141.0659 5.8722 4.1865 10.337 20.279 10.337 16.0923 0 20.2135-4.4648 20.2794-10.3371.0487-4.3315-1.513-10.0372-3.9018-14.8712zm-17.8363-10.7611c.2932-.8018.4879-1.7794.4718-2.9418.4031-.3284.7368-.7298.9871-1.1898.2503.46.584.8613.9871 1.1898-.0161 1.1624.1786 2.14.4718 2.9418-1.6421-.0412-1.276-.0412-2.9178 0zm5.9589 28.7593c-1.4104.3337-2.0767.4105-3.4355.4105-3.5639 0-6.0773-1.7435-6.8204-5.5385h-1.7441v-1.9483h1.5388v-.5384c0-.4615 0-.9489.0516-1.3846h-1.5904v-1.9741h1.8977c.9231-3.8459 3.5386-5.7947 7.1025-5.7947.9999 0 1.7946.0768 2.8713.3079v2.6919c-1.2567-.2305-1.923-.3331-2.9482-.3331-1.9493 0-3.2313 1.051-3.7954 3.1281h4.6669v1.9741h-4.9996c-.0263.3589-.0263.7179-.0263 1.0768 0 .3079 0 .59.0263.8463h4.9996v1.9483h-4.6922c.5894 2.1024 1.9745 2.9744 3.666 2.9744 1.2051 0 1.8977-.1026 3.2313-.3847v2.5381z"/></svg>