<svg enable-background="new 0 0 64 64" viewBox="0 0 64 64" xmlns="http://www.w3.org/2000/svg"><path d="m0 0h64v64h-64z" fill="none"/><path d="m30 12.5c0-6.351-6.492-11.5-14.5-11.5s-14.5 5.149-14.5 11.5 6.492 11.5 14.5 11.5 14.5-5.149 14.5-11.5zm-13.41-7.04 1.941-1.141c1.454 2.475 2.222 5.304 2.222 8.181s-.769 5.706-2.222 8.181l-1.941-1.141c1.251-2.129 1.912-4.564 1.912-7.04s-.661-4.911-1.912-7.04zm-6.268 10.69-1.899-1.209c.467-.733.714-1.578.714-2.441s-.247-1.708-.714-2.441l1.899-1.209c.698 1.095 1.066 2.357 1.066 3.65s-.369 2.555-1.066 3.65zm2.174 1.096c.866-1.441 1.323-3.083 1.323-4.746s-.458-3.304-1.323-4.746l1.93-1.159c1.076 1.792 1.645 3.833 1.645 5.905s-.569 4.113-1.645 5.905z"/><path d="m7 31v2h35v-2c0-1.657-1.343-3-3-3h-29c-1.657 0-3 1.343-3 3z"/><path d="m52.787 36.945c-1.587-1.878-3.387-3.211-6.524-3.737-.761-.128-1.526-.277-2.263-.427v12.219c0 .331-.164.64-.437.826-.273.187-.622.226-.929.104-.078-.03-7.817-3.071-10.932-4.352-2.985-1.226-3.788.207-4.052.679-.323.576-.397 1.274-.213 2.02.3 1.218 1.27 2.477 2.803 3.64 1.793 1.36 3.721 2.499 5.422 3.504 1.852 1.094 4.678 2.688 5.913 4.434v.001c1.016 1.435 2.654 3.067 4.351 4.065 2.276 1.339 5.434 2.215 7.981 2.753l9.649-12.236c-1.866-2.364-9.073-11.485-10.769-13.493z"/><path d="m29.033 49.512c-1.903-1.443-3.126-3.087-3.537-4.755-.307-1.248-.166-2.45.41-3.476.722-1.289 2.534-3.205 6.557-1.551 2.304.947 7.161 2.866 9.537 3.802v-6.532h-35v12c0 1.657 1.343 3 3 3h20.031c.021.056.076.297-.25.364-.676.138-2.809.547-4.562.882.894 1.842 1.53 3.146 1.704 3.48.821 1.581 2.744 2.233 4.357 1.477l.007-.003c.644-.302 1.139-.789 1.467-1.365.853 1.497 2.713 2.105 4.286 1.368l.007-.003c.968-.454 1.609-1.319 1.825-2.292-1.057-.885-2.557-1.776-4.226-2.763-1.747-1.034-3.728-2.204-5.613-3.633z"/></svg>