<?xml version="1.0" encoding="utf-8"?>
<!-- Generator: Adobe Illustrator 19.1.0, SVG Export Plug-In . SVG Version: 6.00 Build 0)  -->
<svg version="1.2" baseProfile="tiny" xmlns="http://www.w3.org/2000/svg" xmlns:xlink="http://www.w3.org/1999/xlink" x="0px"
	 y="0px" width="64px" height="64px" viewBox="0 0 64 64" xml:space="preserve">
<g id="Box">
	<rect fill="none" width="64" height="64"/>
</g>
<g id="Icon">
	<g>
		<path d="M28.9276,34.8082c1.0771,0,1.6052-0.0609,2.7232-0.3254v-2.0119c-1.0571,0.2236-1.606,0.3049-2.5613,0.3049
			c-1.3407,0-2.4387-0.6912-2.9058-2.3577h3.7192v-1.5443H25.94c-0.0209-0.2031-0.0209-0.4268-0.0209-0.6708
			c0-0.2844,0-0.569,0.0209-0.8535h3.9629v-1.5647h-3.6992c0.4471-1.6464,1.4633-2.4795,3.0084-2.4795
			c0.8126,0,1.3407,0.0814,2.3369,0.264v-2.1337c-0.8535-0.1831-1.4833-0.244-2.2759-0.244c-2.825,0-4.8981,1.5447-5.6298,4.5931
			H22.139v1.5647h1.2606c-0.0409,0.3455-0.0409,0.7317-0.0409,1.0975v0.4268H22.139v1.5443h1.3824
			C24.1105,33.4263,26.1027,34.8082,28.9276,34.8082z"/>
		<path d="M15,15v26h43V15H15z M55,38H18V18h37V38z"/>
		<rect x="41" y="20" width="12" height="16"/>
		<polygon points="13,20 10,20 10,46 53,46 53,43 13,43 		"/>
		<polygon points="8,25 5,25 5,51 48,51 48,48 8,48 		"/>
	</g>
</g>
</svg>
