<?xml version="1.0" encoding="utf-8"?>
<!-- Generator: Adobe Illustrator 25.2.0, SVG Export Plug-In . SVG Version: 6.00 Build 0)  -->
<svg version="1.1" xmlns="http://www.w3.org/2000/svg" xmlns:xlink="http://www.w3.org/1999/xlink" x="0px" y="0px"
	 viewBox="0 0 64 64" style="enable-background:new 0 0 64 64;" xml:space="preserve">
<style type="text/css">
	.st0{fill:none;}
	.st1{fill:#B3B3B3;}
</style>
<g id="Box">
	<rect class="st0" width="64" height="64"/>
</g>
<g id="Icon">
	<g>
		<path d="M27.279,12.586c0.813,0,1.341,0.081,2.337,0.264v-2.134c-0.854-0.183-1.483-0.244-2.276-0.244
			c-2.825,0-4.898,1.545-5.63,4.593h-1.504v1.565h1.26c-0.041,0.346-0.041,0.732-0.041,1.098v0.427h-1.22v1.544h1.382
			c0.197,1.005,0.563,1.813,1.052,2.464c0.599-0.601,1.255-1.142,1.939-1.647c-0.127-0.244-0.242-0.508-0.329-0.817h1.545
			c0.697-0.426,1.416-0.818,2.174-1.14v-0.405h-3.963c-0.021-0.203-0.021-0.427-0.021-0.671c0-0.284,0-0.569,0.021-0.854h3.963
			v-1.565h-3.699C24.718,13.419,25.734,12.586,27.279,12.586z"/>
		<path d="M38.946,27h-8.887c-1.174,0.748-2.151,1.778-2.826,3h14.54C41.097,28.778,40.121,27.748,38.946,27z"/>
		<path d="M16,7h37v20h-3.282c0.441,0.956,0.792,1.958,1.049,3H56V4H13v26h5.238c0.257-1.042,0.607-2.044,1.049-3H16V7z"/>
		<path d="M39,9v8.864c4.019,1.122,7.428,3.7,9.626,7.136H51V9H39z"/>
		<path d="M42.551,32H26.455c-0.16,0.642-0.254,1.31-0.254,2c0,0.339,0.027,0.671,0.066,1h16.471c0.04-0.328,0.066-0.661,0.066-1
			C42.804,33.31,42.71,32.642,42.551,32z"/>
		<path d="M17.736,34c0-0.678,0.052-1.343,0.131-2H11V9H8v26h9.787C17.767,34.667,17.736,34.338,17.736,34z"/>
		<path d="M28.781,40h11.444c0.874-0.834,1.564-1.855,2.01-3H26.771C27.216,38.145,27.906,39.166,28.781,40z"/>
		<path d="M6,37V14H3v26h15.865c-0.37-0.962-0.657-1.963-0.845-3H6z"/>
		<path d="M60.005,54.353L47.758,42.937c-1.688,1.517-3.08,2.085-3.437,2.211c-0.204,0.073-0.325,0.025-0.366-0.065
			c0.237-0.204,1.834-1.783,2.744-3.133c1.528-2.265,2.37-5.015,2.37-7.95c0-8.045-6.522-14.567-14.567-14.567
			S19.936,25.955,19.936,34s6.522,14.567,14.567,14.567c2.936,0,5.663-0.876,7.95-2.37l12.402,13.306
			c0.847,0.846,2.181,0.96,3.149,0.256c0.729-0.53,1.058-0.609,2.257-2.257C60.965,56.534,60.852,55.2,60.005,54.353z
			 M34.503,44.502c-5.791,0-10.502-4.711-10.502-10.502c0-5.791,4.711-10.502,10.502-10.502c5.791,0,10.502,4.711,10.502,10.502
			C45.004,39.791,40.293,44.502,34.503,44.502z"/>
	</g>
</g>
</svg>
