<svg height="64" viewBox="0 0 64 64" width="64" xmlns="http://www.w3.org/2000/svg"><path d="m0 0h64v64h-64z" fill="none"/><path d="m20.9061 21.6205c1.5992 2.047 6.7167.5117 9.1475-.4478 5.0121-1.9785 5.5031-3.2739 8.3732-.9528l9.7992 7.9246c6.6631-2.0927 7.8267-4.066 7.8267-4.066l-6.2789-12.825-5.9795 1.9966c-2.3185.7743-3.8627-.5413-4.8428-1.2023-2.098-1.4149-4.8498-1.3954-6.9276.0491-2.0778 1.4446-5.2326 4.0862-10.0302 6.5811-1.4224.7395-1.7665 2.0736-1.0876 2.9425z"/><path d="m23.6013 38.5526.4163-.344c1.2512-1.0339 1.2032-3.1576.1693-4.4089-.7027-.8503-1.8843-1.3149-2.9639-1.2099.9783-3.3209-2.9577-5.4837-4.9913-3.8034l-.9875.816c.0166-3.0699-3.3783-4.5342-5.4902-2.7891l-2.395 1.9791c-1.9418 1.6046-1.7101 3.6646-.6761 4.9158 1.1171 1.3519 2.833 1.4462 4.0913.8063-.0509.8594.2105 1.7632.7572 2.4247.7026.8504 1.8843 1.3149 2.9638 1.2099-.3065 1.0404-.0731 2.2884.6296 3.1387.8256.9991 2.3109 1.4707 3.515 1.0997-.1386.941.1171 1.9775.7257 2.7141 1.0339 1.2512 3.1642 1.6542 4.6854.3972l1.1651-.9628c1.6182-1.3372 1.6563-3.532.6224-4.7831-.5464-.661-1.3841-1.088-2.2371-1.2003z"/><path d="m37.2151 21.718c-1.3602-1.0999-1.3237-1.0261-3.5589-.0034-1.7825.8161-6.1432 2.8447-9.9286 2.8447-1.9711 0-3.4315-.5897-4.3398-1.7525-1.4111-1.8069-.803-4.528 1.7166-5.8383 2.0516-1.0667 3.7948-2.1675 5.2833-3.1865l-2.3589-1.64c-2.0778-1.4446-4.8296-1.4641-6.9276-.0491-.9875.6659-2.5283 1.9752-4.8428 1.2023l-5.9795-1.9967-6.2789 12.8251s.9412 1.5762 5.8918 3.4044c2.9808-2.7016 4.1333-3.3885 5.9224-3.3885 1.7408 0 3.4941.8693 4.4821 2.4297 2.0795-.7549 4.4775.0756 5.7822 1.6547.6203.7504 1.017 1.7033 1.1541 2.6994 3.1268 1.056 4.2759 4.3394 3.3364 6.8718 2.1713 1.7276 2.4581 4.8201.9584 7.0353 1.6129 1.3624 3.28.9912 4.4726.0443v-6.3259c0-5.2966 5.4653-9.3113 13.2056-10.3048-3.0267-2.479 2.0144 1.5657-7.9905-6.526z"/><path d="m49.0012 50c7.8499 0 13.9988-3.3747 13.9988-7.6786 0-.6324 0-3.0202 0-3.6548 0-4.2993-6.1489-7.6666-13.9988-7.6666-7.852 0-14.0012 3.3673-14.0012 7.6666v3.6548c0 .9493.3142 1.8492.865 2.6819-.553.8255-.865 1.7191-.865 2.6633v3.6548c0 4.3039 6.1492 7.6786 14.0012 7.6786 7.8499 0 13.9988-3.3747 13.9988-7.6786v-3.6548c0-.2049-.0266-.4056-.0542-.606-.7144.8958-4.5718 5.1376-13.6127 5.1376-8.0173 0-10.7806-3.8577-11.0668-4.3807-.1169-.2137-.2019-.4362-.0765-.5667 2.5482 1.6889 6.4118 2.7492 10.8114 2.7492zm-11.3-11c0-2.8444 5.0601-5.15 11.302-5.15s11.302 2.3057 11.302 5.15-5.0601 5.15-11.302 5.15-11.302-2.3057-11.302-5.15z"/><path d="m46.8542 40.7261v.6766h1.5551v-.5565c.3053.0191.6703.0191 1.016.0191h.384v.5374h1.5168v-.6166c2.7834-.2999 4.1094-1.2643 4.1094-2.6701 0-.5469-.0571-.7845-.3076-1.3435h-2.0559c.2123.5182.2886.7773.2886 1.2546 0 .6166-.5938 1.1155-2.0344 1.334v-1.7634h-1.5168v1.8928c-.1907.0096-.384.0193-.6128.0193-.2697 0-.52-.0098-.7872-.0193v-1.8928h-1.5551v1.7538c-1.4023-.2089-2.1322-.6575-2.1322-1.3748 0-.4078.0763-.6454.2479-1.1539h-2.168c-.174.4269-.2312.7269-.2312 1.1226 0 1.4157 1.4404 2.4208 4.2834 2.7807z"/></svg>