<svg height="64" viewBox="0 0 64 64" width="64" xmlns="http://www.w3.org/2000/svg"><path d="m0 0h64v64h-64z" fill="none"/><path d="m30 11h18v3h-18z"/><path d="m30 17h18v3h-18z"/><path d="m4.9972 51.6189h19.2381v5.7056h-19.2381z" transform="matrix(-.7071 -.7071 .7071 -.7071 -13.5659 103.3243)"/><path d="m46.0757 26.6676c.9103 0 1.5018.0911 2.6176.2958v-2.39c-.956-.2051-1.6616-.2734-2.5494-.2734-3.1642 0-5.4865 1.7303-6.3061 5.145h-1.6849v1.7527h1.412c-.0458.3869-.0458.8196-.0458 1.2294v.478h-1.3662v1.7299h1.5485c.6599 3.3694 2.8914 4.9174 6.0557 4.9174 1.2065 0 1.798-.0682 3.0503-.3644v-2.2536c-1.184.2504-1.7989.3415-2.8689.3415-1.5018 0-2.7316-.7742-3.2549-2.6409h4.166v-1.73h-4.439c-.0233-.2275-.0233-.478-.0233-.7513 0-.3187 0-.6373.0233-.956h4.439v-1.7527h-4.1436c.5008-1.8442 1.639-2.7774 3.3697-2.7774z"/><path d="m55 1h-32c-1.1046 0-2 .8954-2 2v25.1221c1.0865-.7595 2.2548-1.5988 3.6875-2.6309l.3125-.2251v-20.2661h28v37h-28v-4.7205c-1.5471 1.1917-3.009 2.1819-4 2.8226v3.8979c0 1.1046.8954 2 2 2h32c1.1046 0 2-.8954 2-2v-41c0-1.1046-.8954-2-2-2z"/><path d="m19 44v-5c3.6223-2.2291 13.6226-9.3146 10.9479-12.6213-.715-.8845-1.7723-.9346-3.2447.1254-5.009 3.6058-7.051 5.1216-11.7032 7.7482-3.2332 1.8254-3.1455 8.2313-2.9739 10.7477l11.9739 12s2.5294-.353 6.7059-2.353c4.1764-2 7.2941-6.647 7.2941-6.647h-15c-2.2092 0-4-1.7908-4-4z"/></svg>