<?xml version="1.0" encoding="utf-8"?>
<!-- Generator: Adobe Illustrator 25.2.0, SVG Export Plug-In . SVG Version: 6.00 Build 0)  -->
<svg version="1.1" xmlns="http://www.w3.org/2000/svg" xmlns:xlink="http://www.w3.org/1999/xlink" x="0px" y="0px"
	 viewBox="0 0 64 64" style="enable-background:new 0 0 64 64;" xml:space="preserve">
<style type="text/css">
	.st0{fill:none;}
	.st1{fill:#B3B3B3;}
</style>
<g id="Box">
	<rect class="st0" width="64" height="64"/>
</g>
<g id="Icon">
	<g>
		<path d="M8.769,28.268l9.178-5.228c-0.653-0.875-1.184-1.837-1.588-2.858L4.311,27.045l14.024,24.62l11.726-6.679
			c0.042-1.307,0.112-2.637,0.218-3.886l-10.721,6.107L8.769,28.268z"/>
		<path d="M39.19,10.939l4.615-2.629l10.788,18.938l-10.113,5.76C45.007,33.003,45.52,33,46,33c1.469,0,3.199,0.024,4.932,0.096
			l8.12-4.625L45.028,3.851l-7.485,4.264c0.076,0.098,0.16,0.189,0.234,0.29C38.356,9.201,38.82,10.053,39.19,10.939z"/>
		<path d="M27.24,36.277c-1.27,0.723-2.682,0.661-4.023-0.665l3.522-2.006l-0.833-1.462l-3.752,2.138
			c-0.129-0.181-0.25-0.393-0.382-0.624c-0.154-0.269-0.307-0.539-0.441-0.819l3.753-2.138l-0.844-1.482l-3.503,1.995
			c-0.465-1.8,0.048-3.137,1.511-3.971c0.208-0.118,0.4-0.219,0.589-0.311c-0.814-0.36-1.579-0.799-2.283-1.315
			c-2.218,1.556-3.115,3.966-2.242,6.978l-1.424,0.811l0.844,1.482l1.194-0.68c0.147,0.349,0.356,0.715,0.553,1.061l0.23,0.404
			l-1.155,0.658l0.833,1.462l1.309-0.746c2.18,2.531,4.812,2.765,7.487,1.241c1.02-0.581,1.487-0.923,2.403-1.777l-1.085-1.905
			C28.621,35.389,28.145,35.762,27.24,36.277z"/>
		<path d="M35.803,25.086l4.455,7.82l11.363-6.473l-8.63-15.151l-3.129,1.782c0.316,1.464,0.373,2.987,0.134,4.511
			C39.519,20.615,37.985,23.233,35.803,25.086z"/>
		<path d="M26.248,25.675c5.526,0.866,10.708-2.913,11.574-8.439c0.866-5.526-2.913-10.708-8.439-11.574s-10.708,2.913-11.574,8.439
			C16.943,19.628,20.721,24.809,26.248,25.675z M23.167,15.599l0.925,0.145l0.051-0.324c0.043-0.277,0.089-0.57,0.161-0.828
			l-0.956-0.15l0.186-1.187l1.141,0.179c0.917-2.225,2.673-3.15,4.815-2.815c0.601,0.094,1.072,0.215,1.697,0.455l-0.253,1.618
			c-0.734-0.257-1.125-0.381-1.741-0.478c-1.172-0.184-2.041,0.328-2.576,1.523l2.805,0.439l-0.186,1.187l-3.005-0.471
			c-0.05,0.213-0.083,0.429-0.117,0.645c-0.029,0.185-0.055,0.355-0.064,0.511l3.005,0.471l-0.184,1.171l-2.821-0.442
			c0.156,1.319,0.907,1.974,1.924,2.133c0.725,0.114,1.15,0.117,1.979,0.073l-0.239,1.526c-0.879,0.068-1.287,0.051-2.104-0.077
			c-2.142-0.336-3.489-1.62-3.578-3.971l-1.049-0.164L23.167,15.599z"/>
		<path d="M50.794,49.93c-0.847,0-1.025,0.976-1.025,1.795c0,1.633,0.508,1.853,1.005,1.853c0.706,0,1.063-0.552,1.063-1.641
			C51.838,50.138,51.242,49.93,50.794,49.93z"/>
		<path d="M41.225,44.307c-0.863,0-1.044,0.976-1.044,1.795c0,1.632,0.518,1.853,1.024,1.853c0.863,0,1.044-0.892,1.044-1.641
			C42.25,44.515,41.665,44.307,41.225,44.307z"/>
		<path d="M56.174,36.565C52.783,36,47.13,36,46,36c-1.13,0-6.783,0-10.174,0.565c-1.173,0.196-2.065,1.088-2.26,2.261
			C33,42.217,33,47.87,33,49c0,1.13,0,6.783,0.565,10.174c0.195,1.173,1.087,2.065,2.26,2.261C39.217,62,44.87,62,46,62
			s6.783,0,10.174-0.565c1.174-0.196,2.066-1.088,2.261-2.261C59,55.783,59,50.13,59,49c0-3.393,0-6.783-0.565-10.174
			C58.24,37.653,57.348,36.761,56.174,36.565z M37.859,46.275c0-2.896,1.844-3.924,3.423-3.924c2.09,0,3.289,1.374,3.289,3.77
			c0,2.617-1.785,3.809-3.443,3.809C39.637,49.93,37.859,49.296,37.859,46.275z M44.293,56.002l-1.839-0.727l5.232-13.277
			l1.839,0.727L44.293,56.002z M50.698,55.553c-1.491,0-3.269-0.634-3.269-3.655c0-2.896,1.844-3.924,3.423-3.924
			c2.09,0,3.289,1.374,3.289,3.77C54.141,54.375,52.412,55.553,50.698,55.553z"/>
	</g>
</g>
</svg>
