<svg enable-background="new 0 0 64 64" viewBox="0 0 64 64" xmlns="http://www.w3.org/2000/svg"><path d="m0 0h64v64h-64z" fill="none"/><path d="m44.725 35.164c-2.036-5.647-7.08-11.093-10.454-14.284 1.106-.35 1.729-1.5 1.729-2.88 0-1.657-.887-3-2.446-3h-.696c.921-1.109 2.729-2.917 3.304-4.262 1.221-2.856-1.935-3.567-6.162-4.738v-3.406c0-3.938-14.469 1.463-13.25 5.803.717 2.551 2.424 5.206 3.411 6.603h-.715c-1.559 0-2.446 1.343-2.446 3s.887 3 2.446 3h5.975c.021.056.067.262-.25.364-.202.065-5.082.985-8.586 1.642-4.024 4.176-8.872 10.37-9.196 16.249-.389 7.056 2.611 11.745 2.611 11.745l-2.609 4.175c-1.041 1.665.156 3.825 2.12 3.825h25.775c-.228-2.63-.286-5.648-.286-8 0-3.208.105-7.662.606-10.666.403-2.424 2.302-4.324 4.727-4.728 1.271-.212 2.805-.35 4.392-.442zm-12.578 14.5c-1.663.393-2.448.484-4.05.484-4.202 0-7.165-2.056-8.041-6.529h-2.056v-2.297h1.814v-.635c0-.544 0-1.119.061-1.632h-1.875v-2.327h2.237c1.088-4.534 4.172-6.832 8.373-6.832 1.179 0 2.116.091 3.385.363v3.174c-1.481-.272-2.267-.393-3.476-.393-2.298 0-3.809 1.239-4.475 3.688h5.502v2.327h-5.894c-.031.423-.031.846-.031 1.269 0 .363 0 .696.031.998h5.894v2.297h-5.531c.695 2.479 2.328 3.507 4.322 3.507 1.421 0 2.237-.121 3.809-.453v2.991z"/><path d="m55.794 51.93c-.847 0-1.025.976-1.025 1.795 0 1.633.508 1.853 1.005 1.853.706 0 1.063-.552 1.063-1.641.001-1.799-.595-2.007-1.043-2.007z"/><path d="m46.225 46.307c-.863 0-1.044.976-1.044 1.795 0 1.632.518 1.853 1.024 1.853.863 0 1.044-.892 1.044-1.641.001-1.799-.584-2.007-1.024-2.007z"/><path d="m63.435 40.826c-.195-1.173-1.087-2.065-2.261-2.261-3.391-.565-9.044-.565-10.174-.565s-6.783 0-10.174.565c-1.173.196-2.065 1.088-2.26 2.261-.566 3.391-.566 9.044-.566 10.174s0 6.783.565 10.174c.195 1.173 1.087 2.065 2.26 2.261 3.392.565 9.045.565 10.175.565s6.783 0 10.174-.565c1.174-.196 2.066-1.088 2.261-2.261.565-3.391.565-9.044.565-10.174 0-3.393 0-6.783-.565-10.174zm-20.576 7.449c0-2.896 1.844-3.924 3.423-3.924 2.09 0 3.289 1.374 3.289 3.77 0 2.617-1.785 3.809-3.443 3.809-1.491 0-3.269-.634-3.269-3.655zm6.434 9.727-1.839-.727 5.232-13.277 1.839.727zm6.405-.449c-1.491 0-3.269-.634-3.269-3.655 0-2.896 1.844-3.924 3.423-3.924 2.09 0 3.289 1.374 3.289 3.77 0 2.631-1.729 3.809-3.443 3.809z"/></svg>