<svg enable-background="new 0 0 64 64" viewBox="0 0 64 64" xmlns="http://www.w3.org/2000/svg"><path d="m0 0h64v64h-64z" fill="none"/><path d="m2 42c-.552 0-1 .448-1 1v12c0 .552.448 1 1 1h33.099c-.074-1.755-.099-3.512-.099-5 0-2.659.076-6.164.386-9zm29 7.779v2.221h-2v-2.221c-.624-.352-1.05-1.012-1.05-1.779 0-1.132.918-2.05 2.05-2.05s2.05.918 2.05 2.05c0 .767-.426 1.428-1.05 1.779z"/><path d="m51 35c1.205 0 2.586.015 4 .06v-1.727c0-.866-.281-1.708-.8-2.4l-5.2-6.933-1.518-7.588c-.28-1.403-1.511-2.412-2.941-2.412h-13.982c.864-1.939 1.529-4.276 1.049-7.312l-.267-1.688h-13.369l.365 2.312c.441 2.792-.466 4.622-1.555 6.688h-1.322c-1.43 0-2.661 1.009-2.942 2.412l-1.518 7.588-5.2 6.933c-.519.692-.8 1.534-.8 2.4v6.667h30.689c.517-2.26 2.334-4.009 4.644-4.394 3.005-.501 7.459-.606 10.667-.606zm-23.581-10h-9.32c-4.496-8 3.478-10 2.213-18h9.32c1.265 8-6.709 10-2.213 18zm5.581-3v-5h11.541l1 5z"/><path d="m55.794 51.93c-.847 0-1.025.976-1.025 1.795 0 1.633.508 1.853 1.005 1.853.706 0 1.063-.552 1.063-1.641.001-1.799-.595-2.007-1.043-2.007z"/><path d="m46.225 46.307c-.863 0-1.044.976-1.044 1.795 0 1.632.518 1.853 1.024 1.853.863 0 1.044-.892 1.044-1.641.001-1.799-.584-2.007-1.024-2.007z"/><path d="m63.435 40.826c-.195-1.173-1.087-2.065-2.261-2.261-3.391-.565-9.044-.565-10.174-.565s-6.783 0-10.174.565c-1.173.196-2.065 1.088-2.26 2.261-.566 3.391-.566 9.044-.566 10.174s0 6.783.565 10.174c.195 1.173 1.087 2.065 2.26 2.261 3.392.565 9.045.565 10.175.565s6.783 0 10.174-.565c1.174-.196 2.066-1.088 2.261-2.261.565-3.391.565-9.044.565-10.174 0-3.393 0-6.783-.565-10.174zm-20.576 7.449c0-2.896 1.844-3.924 3.423-3.924 2.09 0 3.289 1.374 3.289 3.77 0 2.617-1.785 3.809-3.443 3.809-1.491 0-3.269-.634-3.269-3.655zm6.434 9.727-1.839-.727 5.232-13.277 1.839.727zm6.405-.449c-1.491 0-3.269-.634-3.269-3.655 0-2.896 1.844-3.924 3.423-3.924 2.09 0 3.289 1.374 3.289 3.77 0 2.631-1.729 3.809-3.443 3.809z"/></svg>