<svg height="64" viewBox="0 0 64 64" width="64" xmlns="http://www.w3.org/2000/svg"><path d="m0 0h64v64h-64z" fill="none"/><path d="m27.8904 23.1441c0-.5646 0-2.6966 0-3.2632 0-.2372-.0215-.4711-.0624-.7014-.6767.8427-4.1177 4.569-12.0867 4.569-7.127 0-9.5833-3.2659-9.8377-3.7328-.1089-.1998-.1926-.3393-.0566-.4528l.0798.0023c2.2657 1.4744 5.6583 2.3992 9.5195 2.3992 6.978 0 12.4441-3.0131 12.4441-6.8559 0-.5646 0-2.6966 0-3.2632 0-3.8388-5.4661-6.8453-12.4441-6.8453-6.9801 0-12.4463 3.0065-12.4463 6.8452v3.2632c0 .845.2778 1.6462.7644 2.3878-.4866.7405-.7644 1.5405-.7644 2.3847v3.2632c0 3.8428 5.4662 6.8559 12.4463 6.8559 6.978 0 12.4441-3.0131 12.4441-6.8559zm-12.4424-15.5102c5.441 0 9.8519 2.0187 9.8519 4.5089 0 2.4903-4.4108 4.509-9.8519 4.509s-9.8519-2.0187-9.8519-4.509c0-2.4902 4.4109-4.5089 9.8519-4.5089z"/><path d="m13.5378 13.684v.6041h1.3822v-.4969c.2714.0171.5958.0171.9033.0171h.3414v.4798h1.3484v-.5505c2.4742-.2677 3.653-1.1289 3.653-2.384 0-.4884-.0508-.7006-.2734-1.1996h-1.8276c.1886.4628.2565.6941.2565 1.1203 0 .5505-.5278.996-1.8085 1.191v-1.5744h-1.3484v1.69c-.1696.0085-.3414.0173-.5449.0173-.2396 0-.4622-.0087-.6998-.0173v-1.69h-1.3823v1.5659c-1.2466-.1865-1.8954-.587-1.8954-1.2275 0-.3641.0678-.5762.2205-1.0302h-1.9273c-.1546.3812-.2055.6489-.2055 1.0023 0 1.2638 1.2805 2.1613 3.8078 2.4826z"/><path d="m37.9268 47.5651c2.2657 1.4744 5.6583 2.3992 9.5195 2.3992 6.978 0 12.4441-3.0131 12.4441-6.8559 0-.5646 0-2.6966 0-3.2632 0-3.8386-5.4661-6.8452-12.4441-6.8452-6.9801 0-12.4463 3.0065-12.4463 6.8452v3.2632c0 .845.2778 1.6462.7644 2.3878-.4866.7405-.7644 1.5405-.7644 2.3847v3.2632c0 3.8428 5.4662 6.8559 12.4463 6.8559 6.978 0 12.4441-3.0131 12.4441-6.8559 0-.5646 0-2.6966 0-3.2632 0-.2372-.0215-.4711-.0624-.7014-.6767.8427-4.1177 4.569-12.0867 4.569-7.127 0-9.5833-3.2659-9.8377-3.7328-.1089-.1998-.1926-.3393-.0566-.4528zm-.3307-7.4223c0-2.4902 4.4108-4.5089 9.8519-4.5089s9.8519 2.0187 9.8519 4.5089c0 2.4903-4.4108 4.509-9.8519 4.509s-9.8519-2.0187-9.8519-4.509z"/><path d="m45.5378 41.684v.6041h1.3822v-.4969c.2714.0171.5958.0171.9033.0171h.3414v.4798h1.3484v-.5505c2.4742-.2677 3.653-1.1289 3.653-2.384 0-.4884-.0508-.7006-.2734-1.1996h-1.8276c.1886.4628.2565.6941.2565 1.1203 0 .5505-.5278.996-1.8085 1.191v-1.5744h-1.3484v1.69c-.1696.0085-.3414.0173-.5449.0173-.2396 0-.4622-.0087-.6998-.0173v-1.69h-1.3823v1.5659c-1.2466-.1865-1.8954-.587-1.8954-1.2275 0-.3641.0678-.5762.2205-1.0302h-1.9272c-.1547.3812-.2056.649-.2056 1.0024 0 1.2637 1.2805 2.1612 3.8078 2.4825z"/><path d="m51.7972 7h-5.4775c-.9114 0-1.7361.4142-2.2415 1.1259l-34.4462 46.2494c-.4649.6547.0883 1.6247.9268 1.6247h5.4775c.9113 0 1.736-.4143 2.2415-1.1259l34.4462-46.2494c.465-.6548-.0883-1.6247-.9268-1.6247z"/></svg>