<svg enable-background="new 0 0 64 64" viewBox="0 0 64 64" xmlns="http://www.w3.org/2000/svg"><path d="m0 0h64v64h-64z" fill="none"/><path d="m40.333 35.606c.514-.086 1.082-.156 1.667-.22v-24.886c0-.276-.224-.5-.5-.5h-27c-.276 0-.5.224-.5.5v40.5h12v-6h4v6h5c0-2.983.095-7.03.511-10h-2.511v-4h4v.459c.853-.955 2.009-1.632 3.333-1.853zm-17.333 5.394h-4v-4h4zm0-7h-4v-4h4zm0-7h-4v-4h4zm0-7h-4v-4h4zm7 21h-4v-4h4zm0-7h-4v-4h4zm0-7h-4v-4h4zm0-7h-4v-4h4zm3-4h4v4h-4zm0 7h4v4h-4zm0 11v-4h4v4z"/><path d="m55.794 51.93c-.847 0-1.025.976-1.025 1.795 0 1.633.508 1.853 1.005 1.853.706 0 1.063-.552 1.063-1.641.001-1.799-.595-2.007-1.043-2.007z"/><path d="m46.225 46.307c-.863 0-1.044.976-1.044 1.795 0 1.632.518 1.853 1.024 1.853.863 0 1.044-.892 1.044-1.641.001-1.799-.584-2.007-1.024-2.007z"/><path d="m63.435 40.826c-.195-1.173-1.087-2.065-2.261-2.261-3.391-.565-9.044-.565-10.174-.565s-6.783 0-10.174.565c-1.173.196-2.065 1.088-2.26 2.261-.566 3.391-.566 9.044-.566 10.174s0 6.783.565 10.174c.195 1.173 1.087 2.065 2.26 2.261 3.392.565 9.045.565 10.175.565s6.783 0 10.174-.565c1.174-.196 2.066-1.088 2.261-2.261.565-3.391.565-9.044.565-10.174 0-3.393 0-6.783-.565-10.174zm-20.576 7.449c0-2.896 1.844-3.924 3.423-3.924 2.09 0 3.289 1.374 3.289 3.77 0 2.617-1.785 3.809-3.443 3.809-1.491 0-3.269-.634-3.269-3.655zm6.434 9.727-1.839-.727 5.232-13.277 1.839.727zm6.405-.449c-1.491 0-3.269-.634-3.269-3.655 0-2.896 1.844-3.924 3.423-3.924 2.09 0 3.289 1.374 3.289 3.77 0 2.631-1.729 3.809-3.443 3.809z"/></svg>