<svg enable-background="new 0 0 64 64" viewBox="0 0 64 64" xmlns="http://www.w3.org/2000/svg"><path d="m0 0h64v64h-64z" fill="none"/><path d="m17 29.274v-1.357c0-.956.401-1.877 1.101-2.528l9.789-9.102-5.889-5.452c-.142-.131-.322-.197-.501-.197-.18 0-.36.065-.501.197l-17.571 16.267c-.273.253-.428.608-.428.98v1.25c0 .369.299.668.667.668h2.333v1.895 13.105h12.75 2.25v-11.924-1.076h-1.274c-1.503 0-2.726-1.223-2.726-2.726z"/><path d="m51 35c1.205 0 2.586.015 4 .06v-1.984-3.076h3.274c.401 0 .726-.325.726-.726v-1.357c0-.403-.168-.788-.463-1.063l-18.995-17.662c-.153-.142-.348-.213-.542-.213s-.389.071-.542.213l-18.995 17.662c-.295.274-.463.659-.463 1.063v1.357c0 .401.325.726.726.726h3.274v3.076 13.924h12.06c.075-2.35.233-4.79.546-6.666.403-2.424 2.302-4.324 4.727-4.728 3.005-.501 7.459-.606 10.667-.606z"/><path d="m55.794 51.93c-.847 0-1.025.976-1.025 1.795 0 1.633.508 1.853 1.005 1.853.706 0 1.063-.552 1.063-1.641.001-1.799-.595-2.007-1.043-2.007z"/><path d="m46.225 46.307c-.863 0-1.044.976-1.044 1.795 0 1.632.518 1.853 1.024 1.853.863 0 1.044-.892 1.044-1.641.001-1.799-.584-2.007-1.024-2.007z"/><path d="m63.435 40.826c-.195-1.173-1.087-2.065-2.261-2.261-3.391-.565-9.044-.565-10.174-.565s-6.783 0-10.174.565c-1.173.196-2.065 1.088-2.26 2.261-.566 3.391-.566 9.044-.566 10.174s0 6.783.565 10.174c.195 1.173 1.087 2.065 2.26 2.261 3.392.565 9.045.565 10.175.565s6.783 0 10.174-.565c1.174-.196 2.066-1.088 2.261-2.261.565-3.391.565-9.044.565-10.174 0-3.393 0-6.783-.565-10.174zm-20.576 7.449c0-2.896 1.844-3.924 3.423-3.924 2.09 0 3.289 1.374 3.289 3.77 0 2.617-1.785 3.809-3.443 3.809-1.491 0-3.269-.634-3.269-3.655zm6.434 9.727-1.839-.727 5.232-13.277 1.839.727zm6.405-.449c-1.491 0-3.269-.634-3.269-3.655 0-2.896 1.844-3.924 3.423-3.924 2.09 0 3.289 1.374 3.289 3.77 0 2.631-1.729 3.809-3.443 3.809z"/></svg>