<svg enable-background="new 0 0 64 64" viewBox="0 0 64 64" xmlns="http://www.w3.org/2000/svg"><path d="m0 0h64v64h-64z" fill="none"/><path d="m36.044 12.442-1.54-1.54 6.667-6.668c.562-.562 1.477-.562 2.039 0l15.555 15.551c.272.272.422.635.422 1.02s-.15.747-.422 1.019l-6.669 6.67-1.538-1.538-1.109 1.108 1.538 1.538-5.519 5.52c1.552-.075 3.117-.108 4.526-.118l10.974-10.977c1.777-1.777 1.777-4.669 0-6.447l-15.554-15.551c-1.776-1.777-4.669-1.777-6.447 0l-33.936 33.943c-1.777 1.777-1.777 4.669 0 6.447l15.555 15.551c.888.889 2.055 1.333 3.223 1.333s2.335-.445 3.225-1.333l7.971-7.972c.01-1.409.042-2.975.117-4.527l-10.293 10.295c-.562.562-1.477.562-2.039 0l-15.555-15.551c-.272-.272-.422-.635-.422-1.02s.15-.747.422-1.019l26.16-26.165 1.54 1.54z"/><path d="m37.015 13.906h1.568v2.799h-1.568z" transform="matrix(.7071 -.7071 .7071 .7071 .2489 31.2117)"/><path d="m40.314 17.205h1.568v2.799h-1.568z" transform="matrix(.7071 -.7071 .7071 .7071 -1.1177 34.5099)"/><path d="m43.612 20.503h1.568v2.799h-1.568z" transform="matrix(.7071 -.7071 .7071 .7071 -2.4838 37.8092)"/><path d="m46.911 23.802h1.568v2.799h-1.568z" transform="matrix(.7071 -.7071 .7071 .7071 -3.8501 41.1079)"/><path d="m33.467 28.004c-2.03.127-5.019 2.97-5.019 2.97l-9.276-.744c-.28-.028-.547.12-.673.371l-.118.522c-.136.33.007.709.328.866l6.556 2.504-3.519 4.141-2.222-.307c-.251-.022-.495.098-.63.311l-.135.212c-.224.353-.079.822.305.986l2.204 1.192 1.193 2.203c.164.384.634.529.986.305l.212-.135c.213-.136.333-.379.311-.631l-.308-2.222 4.141-3.519 2.505 6.555c.157.32.536.464.866.327l.522-.118c.251-.126.399-.393.371-.673l-.746-9.276s2.843-2.99 2.969-5.02c.028-.457-.365-.849-.823-.82z"/><path d="m55.794 51.93c-.847 0-1.025.976-1.025 1.795 0 1.633.508 1.853 1.005 1.853.706 0 1.063-.552 1.063-1.641.001-1.799-.595-2.007-1.043-2.007z"/><path d="m46.225 46.307c-.863 0-1.044.976-1.044 1.795 0 1.632.518 1.853 1.024 1.853.863 0 1.044-.892 1.044-1.641.001-1.799-.584-2.007-1.024-2.007z"/><path d="m63.435 40.826c-.195-1.173-1.087-2.065-2.261-2.261-3.391-.565-9.044-.565-10.174-.565s-6.783 0-10.174.565c-1.173.196-2.065 1.088-2.26 2.261-.566 3.391-.566 9.044-.566 10.174s0 6.783.565 10.174c.195 1.173 1.087 2.065 2.26 2.261 3.392.565 9.045.565 10.175.565s6.783 0 10.174-.565c1.174-.196 2.066-1.088 2.261-2.261.565-3.391.565-9.044.565-10.174 0-3.393 0-6.783-.565-10.174zm-20.576 7.449c0-2.896 1.844-3.924 3.423-3.924 2.09 0 3.289 1.374 3.289 3.77 0 2.617-1.785 3.809-3.443 3.809-1.491 0-3.269-.634-3.269-3.655zm6.434 9.727-1.839-.727 5.232-13.277 1.839.727zm6.405-.449c-1.491 0-3.269-.634-3.269-3.655 0-2.896 1.844-3.924 3.423-3.924 2.09 0 3.289 1.374 3.289 3.77 0 2.631-1.729 3.809-3.443 3.809z"/></svg>