<svg height="64" viewBox="0 0 64 64" width="64" xmlns="http://www.w3.org/2000/svg"><path d="m0 0h64v64h-64z" fill="none"/><path d="m12 9h16.7085l.9316-3.1349c.109-.3406.3599-.231.3599-.231v14.3659c0 .5522.4478 1 1 1h14.3669s.1227.2504-.2184.3594l-3.1485.9324v8.5809c.6553-.0445 1.3205-.0728 2.001-.0728.2842 0 1.472.0052 2.999.0148v-9.9861c0-.5307-.2109-1.0396-.5859-1.4146l-14.8282-14.8281c-.375-.375-.8838-.5859-1.4145-.5859h-21.1714c-1.1045 0-2 .8955-2 2v46c0 1.1045.8955 2 2 2h18v-5h-15z"/><path d="m31.6886 34.0002.8925-3.1317.6303 2.2539c1.1451-.5786 2.4212-1.0601 3.8028-1.4333l1.4199-5.6896h-2.0293l-1.438 6.3259-1.7944-6.3259h-2.0938l.6113 2.083-1.3291 4.3016-1.4399-6.3846h-1.6792-.4849-1.5444l-1.438 6.3259-1.7944-6.3259h-2.0938l.6113 2.083-1.3291 4.3016-1.4399-6.3846h-2.1641l2.2202 9h2.4268l1.1772-4.131 1.1553 4.131h2.4517l2.0023-8.0229 1.9792 8.0229h1.3781c.4137-.3504.8542-.6863 1.3334-.9993z"/><path d="m44.0012 53c7.8499 0 13.9988-3.3747 13.9988-7.6786 0-.6324 0-3.0202 0-3.6548 0-4.2993-6.1489-7.6666-13.9988-7.6666-7.852 0-14.0012 3.3673-14.0012 7.6666v3.6548c0 .9493.3142 1.8492.865 2.6819-.553.8255-.865 1.7191-.865 2.6633v3.6548c0 4.3039 6.1492 7.6786 14.0012 7.6786 7.8499 0 13.9988-3.3747 13.9988-7.6786v-3.6548c0-.2049-.0266-.4056-.0542-.606-.7144.8958-4.5718 5.1376-13.6127 5.1376-8.0173 0-10.7806-3.8577-11.0668-4.3807-.1169-.2137-.2019-.4362-.0765-.5667 2.5482 1.6889 6.4118 2.7492 10.8114 2.7492zm-11.3-11c0-2.8444 5.0601-5.15 11.302-5.15s11.302 2.3057 11.302 5.15-5.0601 5.15-11.302 5.15-11.302-2.3057-11.302-5.15z"/><path d="m41.8542 43.7261v.6766h1.5551v-.5565c.3053.0191.6703.0191 1.016.0191h.384v.5374h1.5168v-.6166c2.7834-.2999 4.1094-1.2643 4.1094-2.6701 0-.5469-.0571-.7845-.3076-1.3435h-2.0559c.2123.5182.2886.7773.2886 1.2546 0 .6166-.5938 1.1155-2.0344 1.334v-1.7634h-1.5168v1.8928c-.1907.0096-.384.0193-.6128.0193-.2697 0-.52-.0098-.7872-.0193v-1.8928h-1.5551v1.7538c-1.4023-.2089-2.1322-.6575-2.1322-1.3748 0-.4078.0763-.6454.2479-1.1539h-2.168c-.174.4269-.2312.7269-.2312 1.1226 0 1.4157 1.4404 2.4208 4.2834 2.7807z"/></svg>