<?xml version="1.0" encoding="utf-8"?>
<!-- Generator: Adobe Illustrator 17.1.0, SVG Export Plug-In . SVG Version: 6.00 Build 0)  -->
<svg version="1.2" baseProfile="tiny" xmlns="http://www.w3.org/2000/svg" xmlns:xlink="http://www.w3.org/1999/xlink" x="0px"
	 y="0px" width="64px" height="64px" viewBox="0 0 64 64" xml:space="preserve">
<g id="Box">
	<rect fill="none" width="64" height="64"/>
</g>
<g id="Icon">
	<g>
		<path d="M12,9h16.7085l0.9316-3.1349C29.7491,5.5245,30,5.6341,30,5.6341V20c0,0.5522,0.4478,1,1,1h14.3669
			c0,0,0.1227,0.2504-0.2184,0.3594L42,22.2918v8.5809c0.6553-0.0445,1.3205-0.0728,2.001-0.0728
			c0.2842,0,1.472,0.0052,2.999,0.0148v-9.9861c0-0.5307-0.2109-1.0396-0.5859-1.4146L31.5859,4.5859
			C31.2109,4.2109,30.7021,4,30.1714,4H9C7.8955,4,7,4.8955,7,6v46c0,1.1045,0.8955,2,2,2h18v-5H12V9z"/>
		<path d="M31.6886,34.0002l0.8925-3.1317l0.6303,2.2539c1.1451-0.5786,2.4212-1.0601,3.8028-1.4333l1.4199-5.6896h-2.0293
			l-1.438,6.3259l-1.7944-6.3259h-2.0938l0.6113,2.083l-1.3291,4.3016l-1.4399-6.3846h-1.6792h-0.4849h-1.5444l-1.438,6.3259
			L21.98,25.9995h-2.0938l0.6113,2.083l-1.3291,4.3016l-1.4399-6.3846h-2.1641l2.2202,9h2.4268l1.1772-4.131l1.1553,4.131h2.4517
			l2.0023-8.0229l1.9792,8.0229h1.3781C30.7689,34.6491,31.2094,34.3132,31.6886,34.0002z"/>
		<path d="M44.0012,53C51.8511,53,58,49.6253,58,45.3214c0-0.6324,0-3.0202,0-3.6548C58,37.3673,51.8511,34,44.0012,34
			C36.1492,34,30,37.3673,30,41.6666c0,0.6346,0,3.0225,0,3.6548c0,0.9493,0.3142,1.8492,0.865,2.6819
			C30.312,48.8288,30,49.7224,30,50.6666v3.6548C30,58.6253,36.1492,62,44.0012,62C51.8511,62,58,58.6253,58,54.3214v-3.6548
			c0-0.2049-0.0266-0.4056-0.0542-0.606c-0.7144,0.8958-4.5718,5.1376-13.6127,5.1376c-8.0173,0-10.7806-3.8577-11.0668-4.3807
			c-0.1169-0.2137-0.2019-0.4362-0.0765-0.5667C35.738,51.9397,39.6016,53,44.0012,53z M32.7012,42
			c0-2.8444,5.0601-5.15,11.302-5.15s11.302,2.3057,11.302,5.15c0,2.8443-5.0601,5.15-11.302,5.15S32.7012,44.8443,32.7012,42z"/>
		<path d="M41.8542,43.7261v0.6766h1.5551v-0.5565c0.3053,0.0191,0.6703,0.0191,1.016,0.0191h0.384v0.5374h1.5168v-0.6166
			c2.7834-0.2999,4.1094-1.2643,4.1094-2.6701c0-0.5469-0.0571-0.7845-0.3076-1.3435H48.072
			c0.2123,0.5182,0.2886,0.7773,0.2886,1.2546c0,0.6166-0.5938,1.1155-2.0344,1.334v-1.7634h-1.5168v1.8928
			c-0.1907,0.0096-0.384,0.0193-0.6128,0.0193c-0.2697,0-0.52-0.0098-0.7872-0.0193v-1.8928h-1.5551v1.7538
			c-1.4023-0.2089-2.1322-0.6575-2.1322-1.3748c0-0.4078,0.0763-0.6454,0.2479-1.1539h-2.168
			c-0.174,0.4269-0.2312,0.7269-0.2312,1.1226C37.5708,42.3611,39.0112,43.3662,41.8542,43.7261z"/>
	</g>
</g>
</svg>
