<svg width="48" height="43" viewBox="0 0 48 43" fill="none" xmlns="http://www.w3.org/2000/svg">
<path d="M46.7604 37.28L27.3404 2.93999C25.8804 0.33999 22.1404 0.33999 20.6604 2.93999L1.24041 37.28C-0.199592 39.84 1.64041 43 4.58041 43H43.4404C46.3604 43 48.2004 39.84 46.7604 37.28Z" fill="#FFB612"/>
<path d="M21.0801 32.9C21.0801 32.02 21.3201 31.26 21.8001 30.66C22.2801 30.04 23.0001 29.74 23.9801 29.74C24.9401 29.74 25.6801 30.02 26.1801 30.54C26.6801 31.08 26.9401 31.86 26.9401 32.9C26.9401 33.76 26.7001 34.5 26.2201 35.08C25.7401 35.66 25.0201 35.96 24.0401 35.96C23.0801 35.96 22.3401 35.7 21.8401 35.18C21.3401 34.68 21.0801 33.92 21.0801 32.9ZM21.7001 12.36L26.6601 11.96L26.2201 22.98V28.24L21.6801 28.34V12.36H21.7001Z" fill="black"/>
</svg>
