<?xml version="1.0" encoding="utf-8"?>
<!-- Generator: Adobe Illustrator 22.1.0, SVG Export Plug-In . SVG Version: 6.00 Build 0)  -->
<!DOCTYPE svg PUBLIC "-//W3C//DTD SVG 1.1//EN" "http://www.w3.org/Graphics/SVG/1.1/DTD/svg11.dtd">
<svg version="1.1" xmlns="http://www.w3.org/2000/svg" xmlns:xlink="http://www.w3.org/1999/xlink" x="0px" y="0px" width="64px"
	 height="64px" viewBox="0 0 64 64" style="enable-background:new 0 0 64 64;" xml:space="preserve">
<style type="text/css">
	.st0{fill:none;}
	.st1{fill:#FFFFFF;}
</style>
<g id="_x36_4px_Box">
	<rect class="st0" width="64" height="64"/>
</g>
<g id="Icon">
	<g>
		<path d="M45.7,50.9c-1,0.1-1.7,0.1-2.6,0c-0.8,3,0,4.6,0.6,5.9c0.6,1.2,1,2.1-0.1,4.4c-0.3,0.6,0,1.4,0.6,1.7
			c0.6,0.3,1.4,0,1.7-0.6c1.6-3.4,0.8-5,0.1-6.5C45.4,54.6,44.9,53.5,45.7,50.9z"/>
		<path d="M25.3,45.9c-0.9,0.1-1.7,0.1-2.6,0c-1,3.9,0.4,6,1.5,7.8c1.3,2,2.2,3.5-0.1,7.5c-0.3,0.6-0.1,1.4,0.5,1.7
			c0.6,0.3,1.4,0.1,1.7-0.5c3-5.3,1.4-7.8,0-10.1C25.2,50.7,24.3,49.2,25.3,45.9z"/>
		<path d="M59,24.6C59,15.4,51.8,11,44.5,11c-0.8,0-1.6,0.1-2.4,0.2c0.7,6-1.2,9.7-2.5,11.5C39.3,23.1,39,23.1,39,23c0.7-2,1-4,1-6
			C40,6.9,32,2,24,2S8,6.9,8,17c0,7.8,5.7,16.1,13.4,22.1L19.6,42c-0.3,0.6-0.1,1.3,0.6,1.5c2.4,0.7,5.1,0.8,7.6,0
			c0.6-0.2,0.9-0.9,0.6-1.5l-1.7-2.9c2.1-1.7,4.1-3.5,5.9-5.5c2.2,4,5.6,7.8,9.6,10.9l-1.5,2.5c-0.3,0.6-0.1,1.3,0.6,1.5
			c2.1,0.6,4.5,0.6,6.7,0c0.6-0.2,0.9-0.9,0.6-1.5l-1.5-2.5C53.9,39.2,59,31.7,59,24.6z M17,15c0,1.3,0.2,2.6,0.6,4l-5.1,1.5
			C12.2,19.3,12,18.1,12,17c0-7.1,5-9.9,9.3-10.7C18.9,7.9,17,10.7,17,15z"/>
	</g>
</g>
</svg>
