<?xml version="1.0" encoding="utf-8"?>
<!-- Generator: Adobe Illustrator 25.0.0, SVG Export Plug-In . SVG Version: 6.00 Build 0)  -->
<svg version="1.1" xmlns="http://www.w3.org/2000/svg" xmlns:xlink="http://www.w3.org/1999/xlink" x="0px" y="0px"
	 viewBox="0 0 64 64" style="enable-background:new 0 0 64 64;" xml:space="preserve">
<style type="text/css">
	.st0{fill:none;}
</style>
<g id="Box">
	<rect class="st0" width="64" height="64"/>
</g>
<g id="Icon">
	<g>
		<path d="M2.205,57.922C1.276,58.822,1.06,61.211,1,63h14c-0.073-1.953-0.293-4.205-1.193-5.078
			C11.255,55.449,4.343,55.85,2.205,57.922z"/>
		<path d="M7.972,55c2.303,0.016,3.648-1.587,3.664-3.909c0.019-2.646-1.364-4.074-3.607-4.091
			c-2.363-0.017-3.648,1.652-3.665,4.038C4.345,53.554,5.669,54.983,7.972,55z"/>
		<path d="M18.205,57.922C17.276,58.822,17.06,61.211,17,63h14c-0.073-1.953-0.293-4.205-1.193-5.078
			C27.255,55.449,20.343,55.85,18.205,57.922z"/>
		<path d="M23.972,55c2.303,0.016,3.648-1.587,3.664-3.909c0.019-2.646-1.364-4.074-3.607-4.091
			c-2.363-0.017-3.648,1.652-3.665,4.038C20.345,53.554,21.669,54.983,23.972,55z"/>
		<path d="M34.205,57.922C33.276,58.822,33.06,61.211,33,63h14c-0.073-1.953-0.293-4.205-1.193-5.078
			C43.255,55.449,36.343,55.85,34.205,57.922z"/>
		<path d="M39.972,55c2.303,0.016,3.648-1.587,3.664-3.909c0.019-2.646-1.364-4.074-3.607-4.091
			c-2.363-0.017-3.648,1.652-3.665,4.038C36.345,53.554,37.669,54.983,39.972,55z"/>
		<path d="M61.807,57.922c-2.552-2.473-9.464-2.072-11.602,0C49.276,58.822,49.06,61.211,49,63h14
			C62.927,61.047,62.707,58.795,61.807,57.922z"/>
		<path d="M55.972,55c2.303,0.016,3.648-1.587,3.664-3.909c0.019-2.646-1.364-4.074-3.607-4.091
			c-2.363-0.017-3.648,1.652-3.665,4.038C52.345,53.554,53.669,54.983,55.972,55z"/>
		<path d="M20.182,42.447c0.017-2.315-1.194-3.565-3.156-3.579c-2.068-0.015-3.192,1.445-3.207,3.534
			c-0.016,2.201,1.142,3.451,3.157,3.466C18.991,45.882,20.167,44.479,20.182,42.447z"/>
		<path d="M35.182,42.423c0.017-2.315-1.194-3.565-3.156-3.579c-2.068-0.015-3.192,1.445-3.207,3.534
			c-0.016,2.201,1.142,3.451,3.157,3.466C33.991,45.858,35.167,44.455,35.182,42.423z"/>
		<path d="M43.818,42.353c-0.016,2.201,1.142,3.451,3.157,3.466c2.015,0.014,3.192-1.389,3.206-3.42
			c0.017-2.315-1.194-3.565-3.156-3.579C44.958,38.805,43.833,40.265,43.818,42.353z"/>
		<path d="M32,6.972c1.734,0,2.737-1.204,2.737-2.938C34.737,2.059,33.688,1,32,1c-1.779,0-2.737,1.252-2.737,3.034
			C29.263,5.913,30.266,6.972,32,6.972z"/>
		<path d="M28.017,22.471l-1.416,12.467c0,0,3.091,0.491,3.5-2.269c0.416-2.804,1.358-9.721,1.415-10.038
			c0.003-0.019,0.014-0.031,0.02-0.048c-0.503,0.237-1.053,0.375-1.623,0.375C29.254,22.959,28.603,22.787,28.017,22.471z"/>
		<path d="M35.764,20.545c-0.418,0.185-0.932,0.312-1.573,0.312c-0.331,0-0.488-0.033-0.664-0.02
			c-0.214,0.241-0.62,0.845-1.429,1.419c0.159,0.034,0.344,0.145,0.386,0.375c0.057,0.317,0.999,7.233,1.415,10.038
			c0.409,2.76,3.5,2.269,3.5,2.269L35.764,20.545z"/>
		<path d="M25.054,15.32c0.742,0.648,3.506,1.999,4.594,2.544c0.943,0.532,2.182,0.234,2.917-0.663
			c-0.369-0.225-0.768-0.482-1.175-0.751c0.167-0.26,0.415-0.467,0.739-0.55c0.686-0.175,1.383,0.239,1.558,0.925
			c0.171,0.672-0.228,1.349-0.889,1.54c-0.621,0.498-1.372,0.766-2.121,0.766c-0.523,0-1.029-0.16-1.519-0.396
			c-0.564-0.272-2.905-1.491-2.905-1.491c0.006,0.429,0.068,0.912,0.213,1.455c0.451,1.692,1.307,2.483,1.943,2.852c0,0,0,0,0,0
			c1.077,0.624,2.407,0.525,3.313-0.25c1.281-1.096,0.924-1.546,2.165-1.455c1.244,0.091,1.911-0.381,2.253-0.793
			c0.42-0.507,0.553-1.226,0.512-1.972l3.643-0.928c0.217,0.427,0.762,0.732,1.406,0.732c0.75,0,1.367-0.413,1.484-0.953
			c0.004-0.001,0.008,0,0.012-0.001l1.335-0.34c0.487-0.124,0.781-0.62,0.657-1.107l-0.282-1.106
			c-0.124-0.487-0.62-0.782-1.107-0.657l-1.335,0.34c-0.343,0.087-0.58,0.362-0.654,0.684l-5.636,1.436
			c-0.301-0.64-0.709-1.174-1.166-1.439c-0.556-0.322-1.472-0.536-2.677,0.277c-1.032,0.697-0.946,0.127-2.604-0.187
			c-0.583-0.111-1.182,0-1.719,0.258c-0.394-0.287-0.705-0.515-0.889-0.653c0.844-0.545,1.671-0.652,2.111-0.652
			c0.962,0,2.069,0.461,2.291,0.555c0.042-0.02,0.12-0.062,0.251-0.151c0.723-0.488,1.456-0.735,2.178-0.735
			c0.551,0,1.075,0.142,1.559,0.422c0.43,0.249,0.826,0.648,1.162,1.146l4.343-1.107l-2.925-1.301
			C36.605,9.415,36.107,7.974,32,7.974c-1.923,0-3.405,0.347-4.602,1.038c-0.889,0.513-1.871,1.328-2.89,2.863
			C23.385,13.566,24.578,14.904,25.054,15.32z"/>
	</g>
</g>
</svg>
