<?xml version="1.0" encoding="utf-8"?>
<!-- Generator: Adobe Illustrator 19.1.0, SVG Export Plug-In . SVG Version: 6.00 Build 0)  -->
<svg version="1.2" baseProfile="tiny" xmlns="http://www.w3.org/2000/svg" xmlns:xlink="http://www.w3.org/1999/xlink" x="0px"
	 y="0px" width="64px" height="64px" viewBox="0 0 64 64" xml:space="preserve">
<g id="Box">
	<rect fill="none" width="64" height="64"/>
</g>
<g id="Icon">
	<g>
		<path d="M32.2255,11.7542c2.3816,0.5446,4.0961-0.6075,4.6914-3.2094c0.5648-2.4688-0.355-4.5045-2.7989-5.0634
			c-2.3199-0.5309-4.096,0.6072-4.7221,3.3428C28.8469,9.226,29.8436,11.2093,32.2255,11.7542z"/>
		<path d="M53,13c-1.5922,0-2.8817,1.244-2.981,2.8111c-0.9193-0.3806-1.9731-0.7242-3.1494-1.0258
			c-1.0093,0.8768-2.0034,1.5452-2.9628,2.0858c3.7748,0.6415,6.17,1.58,6.17,2.6289c0,1.6973-6.2416,3.1117-14.5223,3.4315
			c0.1909-1.22,0.4172-2.408,0.6423-3.4462c0.1297-0.5982,0.6389-1.3898,1.1755-1.6841c2.4759-1.3578,4.6245-1.9503,6.9747-3.7382
			c2.2228-1.691,4.158-3.5728,2.7583-5.9711c0,0-2.3651,1.9795-5.6067,3.6718c-4.6909,2.4489-7.3748,2.5069-9.4177,2.1365
			c-4.214-0.764-6.0406-2.7702-8.4494-6.049c-0.9687-1.3184-1.9033-2.7605-2.7033-4.2054c-1.3762,0.4138-1.5829,2.0609-1.149,3.8713
			c0.301,1.2559,2.4877,4.6197,4.2419,6.7842c1.0867,1.3408,1.3621,2.2074,1.1773,3.9233c-0.1117,1.0367-0.3741,2.787-0.5547,4.4706
			c-6.3137-0.5458-10.7208-1.7698-10.7208-3.1951c0-1.2784,3.5515-2.3934,8.8372-3.0043c-0.1127-0.2921-0.2513-0.5667-0.4482-0.8097
			c-0.3433-0.4235-0.7943-1.0139-1.2797-1.6849c-2.7985,0.4346-5.2032,1.0466-7.0511,1.8116C13.8826,14.2449,12.5927,13,11,13
			c-1.6569,0-3,1.3431-3,3c0,1.1064,0.6058,2.0623,1.4973,2.5824l5.4984,26.2704C13.1082,45.7686,12,46.8442,12,48
			c0,1.4274,1.6683,2.7367,4.4427,3.7667l1.5998,7.6434C18.2397,60.3525,19.0713,61,19.998,61c0.1357,0,0.2734-0.0137,0.4116-0.042
			c1.0811-0.2266,1.7744-1.2861,1.5479-2.3682l-1.1769-5.6229C23.9802,53.6187,27.8412,54,32,54s8.0198-0.3813,11.2194-1.0331
			l-1.1769,5.6229c-0.2266,1.082,0.4668,2.1416,1.5479,2.3682C43.7285,60.9863,43.8662,61,44.002,61
			c0.9268,0,1.7583-0.6475,1.9556-1.5898l1.5998-7.6434C50.3317,50.7367,52,49.4274,52,48c0-1.1558-1.1082-2.2314-2.9956-3.1472
			l5.4984-26.2704C55.3942,18.0623,56,17.1064,56,16C56,14.3431,54.6569,13,53,13z M45.2007,43.5007
			C41.6769,42.5694,37.0652,42,32,42c-4.3999,0-8.4553,0.4306-11.7551,1.1538l0.0377,5.537
			c-0.0356,0.3312-0.2469,0.3274-0.3062,0.3183L14.7687,24.244C18.799,25.9224,25.0172,27,32,27s13.201-1.0776,17.2313-2.756
			L45.2007,43.5007z"/>
		<path d="M23.8185,28.6998c-0.0184,1.8438,0.0304,5.1141,0.5661,6.3652c0.6923,1.6169,4.2769,6.872,7.9692,5.0125
			c0,0-2.6154-3.7998-3.1538-5.2551c-0.5385-1.4552,0.2077-4.6891,0.2077-4.6891s1.5923,4.4466,2.9,5.821
			c1.3846,1.4553,4.7775,3.3249,6.9231,3.6381C42,39.9968,43,37.6522,43,37.6522s-5.8461-2.6679-6.6154-4.204
			c-0.5805-1.1591-1.0328-3.125-1.2724-4.3195C34.074,29.1757,33.0336,29.2002,32,29.2002
			C29.2634,29.2002,26.4794,29.0344,23.8185,28.6998z"/>
	</g>
</g>
</svg>
