<?xml version="1.0" encoding="utf-8"?>
<!-- Generator: Adobe Illustrator 19.1.0, SVG Export Plug-In . SVG Version: 6.00 Build 0)  -->
<svg version="1.2" baseProfile="tiny" xmlns="http://www.w3.org/2000/svg" xmlns:xlink="http://www.w3.org/1999/xlink" x="0px"
	 y="0px" width="64px" height="64px" viewBox="0 0 64 64" xml:space="preserve">
<g id="_x36_4px_Box">
	<rect fill="none" width="64" height="64"/>
</g>
<g id="Icon">
	<path d="M60.9681,10.4005l-5.1199-1.8093l0.051-5.43c0.0076-0.8133-0.9073-1.295-1.5735-0.8285L48.4054,6.478
		c-0.7936,0.5557-1.27,1.4605-1.2791,2.4293l-0.0317,3.3721l-23.4873,16.475c-0.6969-0.9952-0.455-2.3671,0.5402-3.064
		l5.8918-4.1255C28.6011,20.5845,26.8725,20,25,20c-4.9705,0-9,4.0294-9,9s4.0295,9,9,9c4.9706,0,9-4.0294,9-9
		c0-0.8343-0.1224-1.6384-0.3348-2.405l5.9216-4.1464C40.4872,24.4499,41,26.6631,41,29c0,8.8365-7.1635,16-16,16S9,37.8365,9,29
		s7.1635-16,16-16c4.2623,0,8.1169,1.6848,10.9827,4.4033l5.8289-4.0814C37.614,8.8214,31.6399,6,25,6C12.2975,6,2,16.2974,2,29
		c0,6.481,2.6846,12.3317,6.9976,16.5123L4.2759,55.7427c-0.6938,1.5044,0.1572,2.688,1.6616,3.3823
		c1.5065,0.6937,3.0922,0.6356,3.7866-0.8677l4.1993-9.0985C17.2094,50.9682,20.9837,52,25,52s7.7906-1.0318,11.0765-2.8412
		l4.1993,9.0985c0.6945,1.5033,2.2802,1.5613,3.7866,0.8677c1.5044-0.6943,2.3555-1.8779,1.6616-3.3823l-4.7217-10.2303
		C45.3154,41.3318,48,35.481,48,29c0-3.8327-0.9427-7.4433-2.6009-10.6213l3.9898-2.8232l3.1791,1.1234
		c0.9135,0.3228,1.9266,0.1846,2.7203-0.3712l3.0013-2.1016L54.05,12.8146c-0.3026-0.1393-0.2317-0.3383-0.2042-0.3915
		l5.9583,0.7227l1.4044-0.9834C61.8748,11.6959,61.735,10.6715,60.9681,10.4005z"/>
</g>
</svg>
