<?xml version="1.0" encoding="utf-8"?>
<!-- Generator: Adobe Illustrator 25.2.0, SVG Export Plug-In . SVG Version: 6.00 Build 0)  -->
<svg version="1.1" xmlns="http://www.w3.org/2000/svg" xmlns:xlink="http://www.w3.org/1999/xlink" x="0px" y="0px"
	 viewBox="0 0 64 64" style="enable-background:new 0 0 64 64;" xml:space="preserve">
<style type="text/css">
	.st0{fill:none;}
</style>
<g id="Box">
	<rect class="st0" width="64" height="64"/>
</g>
<g id="Icon">
	<g>
		<circle cx="45" cy="48" r="9"/>
		<path d="M59,37h-2V24c0-0.552-0.448-1-1-1h-5.813l2.948-12.617C53.419,9.165,52.495,8,51.245,8h-9.969
			c-1.25,0-2.175,1.165-1.89,2.383L42.334,23h-9.807c-0.741,4.182-2.101,11.835-2.164,12.074C30.276,35.405,30,35.32,30,35.32V12
			c0-0.552-0.448-1-1-1H4c-0.552,0-1,0.448-1,1v3c0,0.552,0.448,1,1,1h3v23.389c1.91-1.555,4.345-2.489,7-2.489
			c6.13,0,11.1,4.97,11.1,11.1c0,0.338-0.021,0.67-0.051,1h8.901c-0.03-0.33-0.051-0.662-0.051-1c0-6.13,4.97-11.1,11.1-11.1
			S56.1,41.87,56.1,48c0,0.338-0.021,0.67-0.051,1H59c0.552,0,1-0.448,1-1V38C60,37.448,59.552,37,59,37z M18.5,28.5
			c-2.761,0-5-2.239-5-5s2.239-5,5-5s5,2.239,5,5S21.261,28.5,18.5,28.5z"/>
		<circle cx="14" cy="48" r="9"/>
	</g>
</g>
</svg>
