<?xml version="1.0" encoding="utf-8"?>
<!-- Generator: Adobe Illustrator 21.0.2, SVG Export Plug-In . SVG Version: 6.00 Build 0)  -->
<!DOCTYPE svg PUBLIC "-//W3C//DTD SVG 1.1//EN" "http://www.w3.org/Graphics/SVG/1.1/DTD/svg11.dtd">
<svg version="1.1" xmlns="http://www.w3.org/2000/svg" xmlns:xlink="http://www.w3.org/1999/xlink" x="0px" y="0px" width="64px"
	 height="64px" viewBox="0 0 64 64" enable-background="new 0 0 64 64" xml:space="preserve">
<g id="Box">
	<rect fill="none" width="64" height="64"/>
</g>
<g id="Icon">
	<g>
		<g>
			<path d="M36,12c0,0-8.9474-1-17-6c-8.0526,5-17,6-17,6c0,18,2.6842,28,17,33C33.3158,40,36,30,36,12z M7,21.5
				c0,0,2.0146-2.5,4.5-2.5s4.5,2.5,4.5,2.5S13.9854,24,11.5,24S7,21.5,7,21.5z M19,34.3396c-2.2839,0-4.3627,0.6946-5.9496,1.8298
				c0.3656-2.4001,2.8871-4.2595,5.9496-4.2595s5.584,1.8594,5.9496,4.2595C23.3627,35.0342,21.2839,34.3396,19,34.3396z M22,21.5
				c0,0,2.0146-2.5,4.5-2.5s4.5,2.5,4.5,2.5S28.9854,24,26.5,24S22,21.5,22,21.5z M48.2603,21.0322
				c-3.7539,0.8743-7.4241,1.0698-10.4716,1c-0.3091,3.1993-0.8192,6.1039-1.61,8.728c0.2698,0.032,0.5398,0.0862,0.8049,0.176
				c2.3538,0.7979,3.4592,3.8123,3.4592,3.8123s-2.7106,1.7209-5.0643,0.9231c-0.3444-0.1167-0.6588-0.2847-0.9503-0.48
				c-1.7681,3.4995-4.3083,6.3683-7.905,8.6609c0.8796,5.2914,3.7029,9.8108,9.2166,14.1152
				c15.1633-0.1394,20.9158-8.7484,26.6943-25.7957C62.4341,32.1721,54.2814,28.3527,48.2603,21.0322z M38.5459,49.6899
				c-2.9004-0.9832-4.6915-3.5536-4.2673-5.9441c1.1384,1.5847,2.8843,2.9099,5.0472,3.6431s4.3547,0.7427,6.222,0.177
				C44.4312,49.7217,41.4462,50.6731,38.5459,49.6899z M49.5845,40.4872c-2.3536-0.798-3.4591-3.8124-3.4591-3.8124
				s2.7106-1.7208,5.0643-0.923s3.4592,3.8124,3.4592,3.8124S51.9382,41.285,49.5845,40.4872z"/>
		</g>
	</g>
</g>
</svg>
