<?xml version="1.0" encoding="utf-8"?>
<!-- Generator: Adobe Illustrator 21.0.2, SVG Export Plug-In . SVG Version: 6.00 Build 0)  -->
<!DOCTYPE svg PUBLIC "-//W3C//DTD SVG 1.1//EN" "http://www.w3.org/Graphics/SVG/1.1/DTD/svg11.dtd">
<svg version="1.1" xmlns="http://www.w3.org/2000/svg" xmlns:xlink="http://www.w3.org/1999/xlink" x="0px" y="0px" width="64px"
	 height="64px" viewBox="0 0 64 64" style="enable-background:new 0 0 64 64;" xml:space="preserve">
<style type="text/css">
	.st0{fill:none;}
</style>
<g id="_x36_4px_Box">
	<rect class="st0" width="64" height="64"/>
</g>
<g id="Icon">
	<g>
		<g>
			<path d="M23.5,27.5c0.6-1.8,0.6-3.6,0.1-5.2c-6.4,2-12.6,5.6-15.6,8.4c-1.1,1-1.3,2.6-0.5,3.8c0.7,1.1,2.1,1.6,3.4,1.2
				c2-0.7,5.3-2.2,8.9-3.7C21.6,31.2,22.9,29.6,23.5,27.5z M32,19c5.3,0,8.4-3.6,8.4-8.9c0-6-3.2-9.1-8.4-9.1
				c-5.5,0-8.4,3.8-8.4,9.1C23.6,15.8,26.7,19,32,19z M29.8,47.8c-0.9-0.6-1.4-1.5-1.9-2.3C27,44.1,26.3,43,24.1,43
				c-1.5,0-2.8,0.7-3.6,1.2c0,0.5,0,1.1,0,1.7c0.4,9.6,2.4,12.4,4.9,15.9c1.7,2.4,5.5,0.9,5.1-2C30.1,57,29.7,52.7,29.8,47.8z
				 M39.9,40.8c1.3,0,2.5,0.4,3.5,0.9c-0.2-3.5-0.9-6.4-1.7-8.5c-1.5-1.2-2.7-2.9-3.4-4.9c-0.7-2.2-0.7-4.5-0.2-6.4
				C36.1,21.3,34,21,32,21s-4.1,0.3-6.2,0.8c0.6,1.9,0.5,4.3-0.2,6.4c-0.7,2.1-1.8,3.7-3.4,4.9c-0.7,2.1-1.4,4.9-1.7,8.5
				c1-0.5,2.1-0.9,3.5-0.9c3.5,0,4.8,2.1,5.7,3.7c0.8,1.3,1.2,1.9,2.2,1.9s1.5-0.6,2.2-1.9C35.1,42.9,36.4,40.8,39.9,40.8z M56,30.8
				c-3.1-2.8-9.2-6.5-15.6-8.4c-0.5,1.5-0.4,3.4,0.1,5.2c0.7,2.1,2,3.7,3.7,4.5c3.6,1.5,6.8,3.1,8.9,3.7c1.3,0.4,2.7-0.1,3.4-1.2
				C57.2,33.4,57,31.8,56,30.8z M36.1,45.6c-0.5,0.8-1,1.7-1.9,2.3c0.1,4.8-0.3,9.1-0.7,11.9c-0.4,2.9,3.4,4.4,5.1,2
				c2.5-3.5,4.4-6.3,4.9-15.9c0-0.6,0-1.1,0-1.7c-0.7-0.5-2.1-1.2-3.6-1.2C37.7,43,37,44.1,36.1,45.6z"/>
		</g>
	</g>
</g>
</svg>
