<svg enable-background="new 0 0 64 64" height="64" viewBox="0 0 64 64" width="64" xmlns="http://www.w3.org/2000/svg"><path d="m0 0h64v64h-64z" fill="none"/><path d="m23.5 27.5c.6-1.8.6-3.6.1-5.2-6.4 2-12.6 5.6-15.6 8.4-1.1 1-1.3 2.6-.5 3.8.7 1.1 2.1 1.6 3.4 1.2 2-.7 5.3-2.2 8.9-3.7 1.8-.8 3.1-2.4 3.7-4.5zm8.5-8.5c5.3 0 8.4-3.6 8.4-8.9 0-6-3.2-9.1-8.4-9.1-5.5 0-8.4 3.8-8.4 9.1 0 5.7 3.1 8.9 8.4 8.9zm-2.2 28.8c-.9-.6-1.4-1.5-1.9-2.3-.9-1.4-1.6-2.5-3.8-2.5-1.5 0-2.8.7-3.6 1.2v1.7c.4 9.6 2.4 12.4 4.9 15.9 1.7 2.4 5.5.9 5.1-2-.4-2.8-.8-7.1-.7-12zm10.1-7c1.3 0 2.5.4 3.5.9-.2-3.5-.9-6.4-1.7-8.5-1.5-1.2-2.7-2.9-3.4-4.9-.7-2.2-.7-4.5-.2-6.4-2-.6-4.1-.9-6.1-.9s-4.1.3-6.2.8c.6 1.9.5 4.3-.2 6.4s-1.8 3.7-3.4 4.9c-.7 2.1-1.4 4.9-1.7 8.5 1-.5 2.1-.9 3.5-.9 3.5 0 4.8 2.1 5.7 3.7.8 1.3 1.2 1.9 2.2 1.9s1.5-.6 2.2-1.9c1-1.5 2.3-3.6 5.8-3.6zm16.1-10c-3.1-2.8-9.2-6.5-15.6-8.4-.5 1.5-.4 3.4.1 5.2.7 2.1 2 3.7 3.7 4.5 3.6 1.5 6.8 3.1 8.9 3.7 1.3.4 2.7-.1 3.4-1.2.7-1.2.5-2.8-.5-3.8zm-19.9 14.8c-.5.8-1 1.7-1.9 2.3.1 4.8-.3 9.1-.7 11.9-.4 2.9 3.4 4.4 5.1 2 2.5-3.5 4.4-6.3 4.9-15.9 0-.6 0-1.1 0-1.7-.7-.5-2.1-1.2-3.6-1.2-2.2 0-2.9 1.1-3.8 2.6z"/></svg>