<svg enable-background="new 0 0 64 64" height="64" viewBox="0 0 64 64" width="64" xmlns="http://www.w3.org/2000/svg"><path d="m0 0h64v64h-64z" fill="none"/><path d="m45.7 50.9c-1 .1-1.7.1-2.6 0-.8 3 0 4.6.6 5.9.6 1.2 1 2.1-.1 4.4-.3.6 0 1.4.6 1.7s1.4 0 1.7-.6c1.6-3.4.8-5 .1-6.5-.6-1.2-1.1-2.3-.3-4.9z"/><path d="m25.3 45.9c-.9.1-1.7.1-2.6 0-1 3.9.4 6 1.5 7.8 1.3 2 2.2 3.5-.1 7.5-.3.6-.1 1.4.5 1.7s1.4.1 1.7-.5c3-5.3 1.4-7.8 0-10.1-1.1-1.6-2-3.1-1-6.4z"/><path d="m59 24.6c0-9.2-7.2-13.6-14.5-13.6-.8 0-1.6.1-2.4.2.7 6-1.2 9.7-2.5 11.5-.3.4-.6.4-.6.3.7-2 1-4 1-6 0-10.1-8-15-16-15s-16 4.9-16 15c0 7.8 5.7 16.1 13.4 22.1l-1.8 2.9c-.3.6-.1 1.3.6 1.5 2.4.7 5.1.8 7.6 0 .6-.2.9-.9.6-1.5l-1.7-2.9c2.1-1.7 4.1-3.5 5.9-5.5 2.2 4 5.6 7.8 9.6 10.9l-1.5 2.5c-.3.6-.1 1.3.6 1.5 2.1.6 4.5.6 6.7 0 .6-.2.9-.9.6-1.5l-1.5-2.5c6.8-5.3 11.9-12.8 11.9-19.9zm-42-9.6c0 1.3.2 2.6.6 4l-5.1 1.5c-.3-1.2-.5-2.4-.5-3.5 0-7.1 5-9.9 9.3-10.7-2.4 1.6-4.3 4.4-4.3 8.7z"/></svg>