<svg enable-background="new 0 0 64 64" viewBox="0 0 64 64" xmlns="http://www.w3.org/2000/svg"><path d="m0 0h64v64h-64z" fill="none"/><path d="m2.205 57.922c-.929.9-1.145 3.289-1.205 5.078h14c-.073-1.953-.293-4.205-1.193-5.078-2.552-2.473-9.464-2.072-11.602 0z"/><path d="m7.972 55c2.303.016 3.648-1.587 3.664-3.909.019-2.646-1.364-4.074-3.607-4.091-2.363-.017-3.648 1.652-3.665 4.038-.019 2.516 1.305 3.945 3.608 3.962z"/><path d="m18.205 57.922c-.929.9-1.145 3.289-1.205 5.078h14c-.073-1.953-.293-4.205-1.193-5.078-2.552-2.473-9.464-2.072-11.602 0z"/><path d="m23.972 55c2.303.016 3.648-1.587 3.664-3.909.019-2.646-1.364-4.074-3.607-4.091-2.363-.017-3.648 1.652-3.665 4.038-.019 2.516 1.305 3.945 3.608 3.962z"/><path d="m34.205 57.922c-.929.9-1.145 3.289-1.205 5.078h14c-.073-1.953-.293-4.205-1.193-5.078-2.552-2.473-9.464-2.072-11.602 0z"/><path d="m39.972 55c2.303.016 3.648-1.587 3.664-3.909.019-2.646-1.364-4.074-3.607-4.091-2.363-.017-3.648 1.652-3.665 4.038-.019 2.516 1.305 3.945 3.608 3.962z"/><path d="m61.807 57.922c-2.552-2.473-9.464-2.072-11.602 0-.929.9-1.145 3.289-1.205 5.078h14c-.073-1.953-.293-4.205-1.193-5.078z"/><path d="m55.972 55c2.303.016 3.648-1.587 3.664-3.909.019-2.646-1.364-4.074-3.607-4.091-2.363-.017-3.648 1.652-3.665 4.038-.019 2.516 1.305 3.945 3.608 3.962z"/><path d="m20.182 42.447c.017-2.315-1.194-3.565-3.156-3.579-2.068-.015-3.192 1.445-3.207 3.534-.016 2.201 1.142 3.451 3.157 3.466 2.015.014 3.191-1.389 3.206-3.421z"/><path d="m35.182 42.423c.017-2.315-1.194-3.565-3.156-3.579-2.068-.015-3.192 1.445-3.207 3.534-.016 2.201 1.142 3.451 3.157 3.466 2.015.014 3.191-1.389 3.206-3.421z"/><path d="m43.818 42.353c-.016 2.201 1.142 3.451 3.157 3.466 2.015.014 3.192-1.389 3.206-3.42.017-2.315-1.194-3.565-3.156-3.579-2.067-.015-3.192 1.445-3.207 3.533z"/><path d="m32 6.972c1.734 0 2.737-1.204 2.737-2.938 0-1.975-1.049-3.034-2.737-3.034-1.779 0-2.737 1.252-2.737 3.034 0 1.879 1.003 2.938 2.737 2.938z"/><path d="m28.017 22.471-1.416 12.467s3.091.491 3.5-2.269c.416-2.804 1.358-9.721 1.415-10.038.003-.019.014-.031.02-.048-.503.237-1.053.375-1.623.375-.659.001-1.31-.171-1.896-.487z"/><path d="m35.764 20.545c-.418.185-.932.312-1.573.312-.331 0-.488-.033-.664-.02-.214.241-.62.845-1.429 1.419.159.034.344.145.386.375.057.317.999 7.233 1.415 10.038.409 2.76 3.5 2.269 3.5 2.269z"/><path d="m25.054 15.32c.742.648 3.506 1.999 4.594 2.544.943.532 2.182.234 2.917-.663-.369-.225-.768-.482-1.175-.751.167-.26.415-.467.739-.55.686-.175 1.383.239 1.558.925.171.672-.228 1.349-.889 1.54-.621.498-1.372.766-2.121.766-.523 0-1.029-.16-1.519-.396-.564-.272-2.905-1.491-2.905-1.491.006.429.068.912.213 1.455.451 1.692 1.307 2.483 1.943 2.852 1.077.624 2.407.525 3.313-.25 1.281-1.096.924-1.546 2.165-1.455 1.244.091 1.911-.381 2.253-.793.42-.507.553-1.226.512-1.972l3.643-.928c.217.427.762.732 1.406.732.75 0 1.367-.413 1.484-.953.004-.001.008 0 .012-.001l1.335-.34c.487-.124.781-.62.657-1.107l-.282-1.106c-.124-.487-.62-.782-1.107-.657l-1.335.34c-.343.087-.58.362-.654.684l-5.636 1.436c-.301-.64-.709-1.174-1.166-1.439-.556-.322-1.472-.536-2.677.277-1.032.697-.946.127-2.604-.187-.583-.111-1.182 0-1.719.258-.394-.287-.705-.515-.889-.653.844-.545 1.671-.652 2.111-.652.962 0 2.069.461 2.291.555.042-.02.12-.062.251-.151.723-.488 1.456-.735 2.178-.735.551 0 1.075.142 1.559.422.43.249.826.648 1.162 1.146l4.343-1.107-2.925-1.301c-1.485-2.199-1.983-3.64-6.09-3.64-1.923 0-3.405.347-4.602 1.038-.889.513-1.871 1.328-2.89 2.863-1.123 1.691.07 3.029.546 3.445z"/></svg>