<svg enable-background="new 0 0 64 64" viewBox="0 0 64 64" xmlns="http://www.w3.org/2000/svg"><path d="m0 0h64v64h-64z" fill="none"/><path d="m33.67 32.04c-.33 0-.55-.04-.52-.27 2.77-.54 4.85-2.97 4.85-5.89 0-3.31-2.69-6-6-6s-6 2.69-6 6c0 1.53.58 2.93 1.53 3.99l-5.53 9.89c.6.79 1.03 1.71 1.22 2.72.77.41 1.57.76 2.4 1.06l6.38-11.41 6.38 11.42c.83-.3 1.63-.66 2.4-1.06.19-1.01.61-1.94 1.22-2.72l-4.93-8.82c-.97.68-2.14 1.09-3.4 1.09z"/><path d="m49.09 52.46c-.63.2-1.29.32-1.98.32-1.88 0-3.56-.81-4.74-2.09l4.64 8.31h-30.02l4.64-8.32c-1.18 1.28-2.86 2.09-4.74 2.09-.69 0-1.36-.11-1.98-.32l-3.65 6.55h-3.26v3h48v-3h-3.26z"/><path d="m55.77 22.62c-.53-3.93-2.02-7.55-4.21-10.63v-1.21c0-2.45-1.99-4.44-4.44-4.44-.35 0-.69.05-1.02.13-3.23-2.35-7.07-3.91-11.23-4.4-.79-.66-1.78-1.07-2.87-1.07s-2.08.41-2.85 1.06c-4.17.49-8.01 2.05-11.24 4.4-.33-.08-.67-.13-1.02-.13-2.45 0-4.44 1.99-4.44 4.44v1.21c-2.2 3.09-3.68 6.71-4.22 10.64-1.69.63-2.89 2.24-2.89 4.15v2.67c0 2.31 1.77 4.19 4.03 4.4.92 2.62 2.29 5.02 4.01 7.13-.57.75-.93 1.67-.93 2.69v2.67c0 2.45 1.99 4.44 4.44 4.44 2.12 0 3.89-1.49 4.33-3.47 1.98 1 4.13 1.73 6.38 2.15-.01.14-.04.28-.04.43v2.67c0 2.45 1.99 4.44 4.44 4.44s4.44-1.99 4.44-4.44v-2.67c0-.14-.03-.28-.04-.42 2.25-.42 4.39-1.16 6.38-2.17.44 1.99 2.21 3.48 4.33 3.48 2.45 0 4.44-1.99 4.44-4.44v-2.67c0-1.02-.35-1.94-.93-2.69 1.71-2.11 3.07-4.51 3.99-7.13 2.27-.2 4.05-2.09 4.05-4.4v-2.67c.01-1.9-1.2-3.52-2.89-4.15zm-10.1-11.84c0-.8.65-1.44 1.44-1.44.8 0 1.44.65 1.44 1.44v1.78h-2.89v-1.78zm-15.11-5.34c0-.79.64-1.44 1.44-1.44s1.44.65 1.44 1.44v1.78h-2.89v-1.78zm-15.12 5.34c0-.8.65-1.44 1.44-1.44.8 0 1.44.65 1.44 1.44v1.78h-2.89v-1.78zm-4.22 17.78h-2.89v-1.78c0-.8.65-1.44 1.44-1.44.8 0 1.44.65 1.44 1.44v1.78zm7.11 16.88h-2.89v-1.78c0-.8.65-1.44 1.44-1.44.8 0 1.44.65 1.44 1.44v1.78zm15.11 6.23h-2.89v-1.78c0-.8.65-1.44 1.44-1.44s1.44.65 1.44 1.44v1.78zm15.12-6.23h-2.89v-1.78c0-.8.65-1.44 1.44-1.44.8 0 1.44.65 1.44 1.44v1.78zm3.14-12.34c-.85 2.29-2.08 4.39-3.63 6.23-.31-.07-.63-.11-.96-.11-2.45 0-4.44 1.99-4.44 4.44v.29c-2.3 1.37-4.89 2.29-7.64 2.69-.79-.74-1.85-1.2-3.02-1.2s-2.23.46-3.03 1.21c-2.75-.4-5.34-1.32-7.64-2.69v-.3c0-2.45-1.99-4.44-4.44-4.44-.34 0-.67.05-.98.12-1.54-1.84-2.76-3.95-3.61-6.24 1.16-.8 1.92-2.14 1.92-3.66v-2.67c0-1.92-1.23-3.54-2.94-4.16.36-2.29 1.08-4.45 2.12-6.43.81 1.03 2.06 1.71 3.48 1.71 2.45 0 4.44-1.99 4.44-4.44v-2.67c0-.91-.28-1.76-.75-2.46 2.1-1.37 4.45-2.38 6.98-2.93 0 .02-.01.04-.01.06v2.67c0 2.45 1.99 4.44 4.44 4.44s4.44-1.99 4.44-4.44v-2.68c0-.02-.01-.04-.01-.07 2.53.55 4.88 1.56 6.98 2.93-.47.71-.75 1.55-.75 2.47v2.67c0 2.45 1.99 4.44 4.44 4.44 1.41 0 2.66-.67 3.47-1.7 1.04 1.98 1.78 4.14 2.14 6.43-1.71.62-2.94 2.24-2.94 4.17v2.67c.02 1.51.78 2.85 1.94 3.65zm3.97-4.54h-2.89v-1.78c0-.8.65-1.44 1.44-1.44.8 0 1.44.65 1.44 1.44v1.78z"/></svg>