<svg height="64" viewBox="0 0 64 64" width="64" xmlns="http://www.w3.org/2000/svg"><path d="m0 0h64v64h-64z" fill="none"/><path d="m53.1852 6h-20.1852v7c0 .7139.4146 1.292.9858 1.375.3027.0391.5918-.0449.8506-.2422 1.4473-1.1035 2.814-2.1445 4.7637-1.6279 2.626.6963 4.4756 3.2832 4.3975 6.1523-.0747 2.7266-1.8335 5.0947-4.2773 5.7578-2.0269.5557-3.8037-.7852-4.8623-1.585-.2607-.1973-.562-.29-.8979-.2559-.3195.0265-.9601.6613-.9601 1.4259v7h7c1.6689 0 3.2988 1.334 3.4189 2.7979.0684.8271-.1577 1.6104-.6538 2.2666-.7817 1.0352-1.5229 2.1299-1.251 3.1328.3555 1.3076 1.7222 2.7422 3.8833 2.8008.0411.0019.0826.0019.1231.0019 1.9019 0 3.5898-1.209 4.0415-2.9131.2432-.918-.1592-1.5615-1.2847-3.0371-.5269-.6904-.7534-1.5107-.6372-2.3096.2325-1.6045 1.6426-2.7402 3.3599-2.7402h7v-20.1852c0-2.6592-2.1556-4.8148-4.8148-4.8148z"/><path d="m14.374 30.0146c.0449-.3047-.0435-.5918-.2412-.8516-1.103-1.4463-2.145-2.8115-1.6284-4.7617.6968-2.6279 3.269-4.4346 6.1528-4.3994 2.7266.0752 5.0947 1.834 5.7583 4.2773.5522 2.0332-.7861 3.8047-1.5854 4.8623-.1978.2617-.2837.5625-.2559.8955.0274.3302.648.963 1.4258.963h7v-7c0-1.6689 1.3335-3.2988 2.7974-3.4199.8311-.0576 1.6123.1602 2.2666.6543 1.0356.7822 2.1309 1.5234 3.1318 1.251 1.3086-.3555 2.7437-1.7217 2.8027-3.8828.0532-1.9521-1.1714-3.7031-2.9116-4.1641-.915-.2461-1.5605.1582-3.0366 1.2842-.689.5264-1.5107.7539-2.3096.6367-1.6054-.2315-2.7407-1.6416-2.7407-3.3594v-7h-20.1852c-2.6592 0-4.8148 2.1556-4.8148 4.8148v20.1852h7c.7139 0 1.2915-.4141 1.374-.9854z"/><path d="m49.626 33.9854c-.0449.3047.0435.5918.2412.8516 1.103 1.4463 2.145 2.8115 1.6284 4.7617-.6826 2.5742-3.1792 4.4013-5.9766 4.4013-.0586 0-.1172-.001-.1763-.002-2.7266-.0752-5.0947-1.834-5.7583-4.2773-.5522-2.0332.7861-3.8047 1.5854-4.8623.1978-.2617.2837-.5625.2559-.8955-.0263-.3223-.6611-.9629-1.4257-.9629h-7v7c0 1.6992-1.3071 3.2969-2.7974 3.4199-.8286.0605-1.6118-.1602-2.2666-.6543-1.0352-.7812-2.1304-1.5205-3.1318-1.251-1.3086.3555-2.7437 1.7217-2.8027 3.8828-.0532 1.9521 1.1714 3.7031 2.9116 4.1641.918.248 1.561-.1582 3.0366-1.2842.6885-.5273 1.5078-.7568 2.3096-.6367 1.6054.2315 2.7407 1.6416 2.7407 3.3594v7h20.1852c2.6592 0 4.8148-2.1557 4.8148-4.8148v-20.1852h-7c-.7139 0-1.2915.4141-1.374.9854z"/><path d="m30.0142 49.625c-.3057-.041-.5928.0449-.8506.2422-1.4473 1.1035-2.8149 2.1426-4.7637 1.6279-2.626-.6963-4.4756-3.2832-4.3975-6.1523.0747-2.7266 1.8335-5.0947 4.2773-5.7578 2.0273-.5547 3.8027.7852 4.8623 1.585.2603.1973.5571.2881.8979.2559.3195-.0265.9601-.6613.9601-1.4259v-7h-7c-1.6987 0-3.2964-1.3076-3.4189-2.7979-.0684-.8271.1577-1.6104.6538-2.2666.7817-1.0352 1.5229-2.1299 1.251-3.1328-.3555-1.3076-1.7222-2.7422-3.8833-2.8008-1.9541-.0762-3.7031 1.1709-4.1646 2.9111-.2432.918.1592 1.5615 1.2847 3.0371.5269.6904.7534 1.5107.6372 2.3096-.2325 1.6046-1.6426 2.7403-3.3599 2.7403h-7v20.1852c0 2.6591 2.1556 4.8148 4.8148 4.8148h20.1852v-7c0-.7139-.4146-1.292-.9858-1.375z"/></svg>