<svg enable-background="new 0 0 64 64" height="64" viewBox="0 0 64 64" width="64" xmlns="http://www.w3.org/2000/svg"><path d="m0 0h64v64h-64z" fill="none"/><path d="m15 9h34v23.8h.001c.4001 0 2.5888.0103 4.999.0286v-17.8286l1.7047-7.9553c.608-2.8372-1.9122-5.3574-4.7493-4.7494l-7.9554 1.7047h-.6621c-3.2643-.6495-6.6953-1-10.2393-1-3.5375 0-6.96.3538-10.2197 1h-.8789l-7.9554-1.7047c-2.8371-.608-5.3573 1.9122-4.7493 4.7494l1.7047 7.9553v34l-1.7047 7.9553c-.608 2.8372 1.9122 5.3574 4.7493 4.7494l7.9554-1.7047h.9003c3.2228.6385 6.6043.991 10.0997.9976v-5.9976h-17zm22.01 12.1562c-.0103.2588-.0093 7.8445-.0063 14.647.4325-.2677.8929-.5166 1.3714-.7526l-1.0229-14.418c-.1892-.0703-.3266.133-.3422.5236zm-11.2204 15.0003c-1.3499-.9346-2.205-4.6565-2.1896-6.1565.012-1.1702.285-1.8235.3207-2.9844.023-.749-.2938-2.1375.308-3.8501v.0029s4.9991-3.4775 11.592 6.0134c0 0 .1841-.1292.0328-.5906-.6011-1.8328-2.7778-6.6392-7.0629-7.613-1.5303-.3477-2.6324-.1875-3.3754.0698.3058-.3901.6683-.7883 1.1013-1.1924 1.5576-1.4539 5.0881-2.4902 5.0881-2.4902 1.9659-3.1946 8.2571-1.2339 9.4495 5.9307l2.0159 10.1404c1.2423-.275 2.5532-.4703 3.9301-.5637v-21.8728h-30.0001v42h6.4368c2.4757-10.1483 7.3132-12.75 7.3132-12.75l-.7604-2.177c2.5778-1.6681 3.1613-3.5359 3.1613-3.5359-1.9177 1.1265-4.1002 1.6504-4.6256 1.7659-.8544.1311-2.1659.248-2.7357-.1465zm23.2116 18.8435c7.8499 0 13.9988-3.3748 13.9988-7.6786v-3.6549c0-4.2992-6.1489-7.6665-13.9988-7.6665-7.852 0-14.0012 3.3673-14.0012 7.6665v3.6549c0 .9493.3142 1.8492.865 2.6819-.553.8256-.865 1.7191-.865 2.6632v3.6549c0 4.3038 6.1492 7.6786 14.0012 7.6786 7.8499 0 13.9988-3.3748 13.9988-7.6786v-3.6549c0-.2048-.0266-.4055-.0542-.606-.7144.8958-4.5718 5.1377-13.6127 5.1377-8.0173 0-10.7806-3.8577-11.0668-4.3807-.1169-.2137-.2019-.4362-.0765-.5668 2.5482 1.689 6.4118 2.7493 10.8114 2.7493zm-11.3-11c0-2.8444 5.0601-5.15 11.302-5.15s11.302 2.3057 11.302 5.15c0 2.8442-5.0601 5.1499-11.302 5.1499s-11.302-2.3057-11.302-5.1499zm9.153 1.7261v.6765h1.5551v-.5564c.3053.019.6703.019 1.016.019h.384v.5374h1.5168v-.6165c2.7834-.2999 4.1094-1.2644 4.1094-2.6702 0-.5469-.0571-.7845-.3076-1.3435h-2.0559c.2123.5183.2886.7773.2886 1.2546 0 .6167-.5938 1.1155-2.0344 1.334v-1.7634h-1.5168v1.8928c-.1907.0096-.384.0194-.6128.0194-.2697 0-.52-.0098-.7872-.0194v-1.8928h-1.5551v1.7539c-1.4023-.209-2.1322-.6575-2.1322-1.3748 0-.4077.0763-.6454.2479-1.1538h-2.168c-.174.4269-.2312.7268-.2312 1.1226 0 1.4156 1.4404 2.4207 4.2834 2.7806z"/></svg>