<svg height="64" viewBox="0 0 64 64" width="64" xmlns="http://www.w3.org/2000/svg"><path d="m0 0h64v64h-64z" fill="none"/><path d="m54 49v-17-17l1.7047-7.9554c.608-2.8371-1.9122-5.3573-4.7493-4.7493l-7.9554 1.7047s-5.3788-1-11.077-1c-5.9279 0-10.923 1-10.923 1l-7.9554-1.7047c-2.8371-.608-5.3573 1.9122-4.7493 4.7493l1.7047 7.9554v17 17l-1.7047 7.9554c-.608 2.8371 1.9122 5.3573 4.7493 4.7493.1709-.0366 7.893-1.7047 8.0677-1.7047 3.4475.6461 7.0671 1 10.8107 1 5.7206 0 11.077-1 11.077-1l7.9554 1.7047c2.8371.608 5.3573-1.9122 4.7493-4.7493zm-5 6h-34v-46h34z"/><path d="m47 11h-30v42h30zm-4.0986 21.5288c.957.958 1.2695 1.6929.9561 2.2354-.1895.3291-.5605.4966-1.1025.4966-.3545 0-.7939-.0698-1.3105-.208.3496 1.3076.2529 2.1006-.2891 2.4141-.1338.0771-.2852.1162-.4482.1162-.1914 0-.7129 0-1.7871-1.0732-.2118.7883-.6407 1.9463-1.457 1.9463-.6387 0-1.1377-.6367-1.4893-1.896-.5948.5887-1.4804 1.3219-2.2031.9067-.6696-.3873-.5068-1.4888-.3241-2.2404-.0152-.063-.0818-.1539-.4175-.0024-1.0004.4515-2.2633 2.6666-1.0602 4.1198.5135.6202 1.6321 1.0705 2.9235.4818.6053.8405 1.3763 1.2699 2.3168 1.2699.6711 0 1.2517-.2288 1.7516-.6589.0219.2656.0392.5348.0392.8133 0 3.6184-4 8.75-4 8.75h-6s-4-5.0658-4-8.75c0-1.2743.2411-2.4101.5541-3.3569-.5804.5663-1.4591 1.2938-2.1616.8887-.543-.3135-.6396-1.1064-.29-2.4141-1.3066.3491-2.0986.2563-2.4131-.2886-.3125-.543 0-1.2778.957-2.2354-1.3076-.3511-1.9463-.8311-1.9463-1.4575 0-.626.6387-1.106 1.9463-1.457-.957-.9575-1.2705-1.6924-.958-2.2344.3164-.5464 1.1074-.6392 2.4141-.2896-.3496-1.3076-.2529-2.1006.29-2.4141.2936-.1693.6352-.1378.9478-.0068.1505-.184.3138-.3732.5038-.5737-1.7582-.3484-2.6334-.8923-2.6685-1.6525-.0359-.7597.785-1.3825 2.5034-1.8929-1.3481-1.1802-1.8347-2.0886-1.4848-2.7647.3489-.6771 1.3922-.796 3.1146-.3869-.578-1.6965-.5447-2.727.0963-3.1378.6223-.3964 1.5871-.0093 2.8907 1.2222.3484-1.7582.8918-2.6334 1.653-2.6689 0 0 .001.0001.002.0001.7812.0082 1.3918.8295 1.8899 2.5038 1.4065-1.6025 2.0812-1.5955 2.3224-1.593.1592.0016.3082.0378.4423.1071.6771.3499.8051 1.3728.3874 3.1156 1.6887-.5718 2.7275-.5443 3.1378.0953.4113.6406.0107 1.5906-1.2217 2.8912 1.7582.348 2.6334.8918 2.6684 1.6525.0323.6831-.6337 1.2544-2.0146 1.733.1293.2714.248.5955.3537.9866.0023.0026.0053.0054.0076.0081 1.0712-1.0689 1.5919-1.0695 1.7831-1.0695.1631 0 .3145.0391.4482.1162.543.3135.6387 1.1064.2891 2.4146 1.3096-.3501 2.0996-.2573 2.4141.2891.3135.5415 0 1.2764-.957 2.2344 1.3076.3511 1.9463.8315 1.9463 1.4575s-.6388 1.106-1.9464 1.4571z"/><path d="m27.1476 31.5129c-.5961-.3085-.7656-1.1398-.5133-2.5231-1.686.2226-2.9918 1.6498-2.9918 3.3966 0 1.9009 1.541 3.442 3.442 3.442s3.442-1.5411 3.442-3.442c0-.8275-.304-1.5766-.7906-2.1703-1.097 1.1909-1.9745 1.6136-2.5883 1.2968z"/><path d="m39.02 28.0355c-.2431.1024-.5506.1527-.9229.1488-.4531-.0048-1.007-.0848-1.6528-.2385.5779 1.6975.5447 2.728-.0973 3.1383-.5109.3259-1.269.1091-2.2573-.6765-.0443.2204-.0687.448-.0687.6815 0 1.9009 1.541 3.442 3.442 3.442s3.442-1.541 3.442-3.442c-.0001-1.3375-.7708-2.4838-1.885-3.0536z"/><circle cx="31.3767" cy="23.33" r="4"/></svg>