<?xml version="1.0" encoding="utf-8"?>
<!-- Generator: Adobe Illustrator 17.1.0, SVG Export Plug-In . SVG Version: 6.00 Build 0)  -->
<svg version="1.2" baseProfile="tiny" xmlns="http://www.w3.org/2000/svg" xmlns:xlink="http://www.w3.org/1999/xlink" x="0px"
	 y="0px" width="64px" height="64px" viewBox="0 0 64 64" xml:space="preserve">
<g id="Box">
	<rect fill="none" width="64" height="64"/>
</g>
<g id="Icon">
	<g>
		<path d="M19.2851,21.9124c-0.0842-0.2617-0.3911-0.8488-1.4343-0.7662c-2.3002,0.1871-3.503,2.8768-3.3528,4.722
			c0.1509,1.8551,1.3184,1.7603,1.7061,1.7294c2.3165-0.1888,2.8845-2.0577,2.8898-2.0764c0.0038-0.0132,0.0108-0.0245,0.015-0.0375
			c-0.0926-1.1827,0.0317-2.4207,0.214-3.476C19.3108,21.9757,19.2947,21.946,19.2851,21.9124z"/>
		<path d="M34.9409,33.832c0.02,0.0068,1.7095,0.5518,4.1318,0.9258c-0.2642-0.7656-0.4038-1.5781-0.4038-2.3999
			c0-0.8514,0.1522-1.6661,0.4183-2.4274c-2.1072-0.5431-3.4907-2.4102-3.5357-4.9399c-0.0512-2.8589,1.797-6.051,5.323-6.3362
			c2.4506-0.2034,3.9276,1.3928,4.4067,2.3653c0.3057,0.6201,0.0471,1.3688-0.5775,1.672
			c-0.6188,0.3011-1.3675,0.0504-1.6769-0.5591c-0.0663-0.1229-0.6328-1.1023-1.9482-0.9863
			c-2.2548,0.1823-3.0355,2.3726-3.0096,3.8c0.0266,1.499,0.7534,2.6477,2.355,2.646C41.7692,26.0089,43.7665,25,45.9971,25
			c2.4638,0,4.64,1.191,6.0029,3.1418V5H5v33h13.4286c0.0734,0.1041-0.0997,0.3385-0.4774,0.4323l-4.4276,1.1616L10.875,55h5.875
			l1.4012-8H31v-4H18.8482l0.821-5H31.001C31.0004,37.1741,31,36.6836,31,36.6836c-0.001-0.9639,0.4609-1.8691,1.2417-2.4336
			C33.022,33.6846,34.0264,33.5293,34.9409,33.832z M27.7574,30.0936c-0.9608,0-1.7822-0.3166-2.4162-0.9089
			c-0.603,0.4006-1.3763,0.6798-2.2109,0.6798c-0.1918,0-0.3868-0.0146-0.5836-0.0456c-0.967-0.153-1.7555-0.6361-2.3292-1.3741
			c-0.7872,0.782-1.9747,1.5028-3.7294,1.6447c-0.134,0.0106-0.2664,0.0163-0.3963,0.0163c-2.233,0-3.8342-1.5771-4.0358-4.0344
			c-0.2737-3.3378,1.9441-7.1147,5.6824-7.417c1.0161-0.0804,1.8148,0.1443,2.4304,0.5054c0.2939-0.483,0.8892-0.7244,1.455-0.5461
			c0.6623,0.2084,1.0295,0.9106,0.8196,1.5686c-0.5832,1.8319-1.1885,5.2523-0.3295,6.6325
			c0.1954,0.3141,0.4434,0.4744,0.8286,0.5351c0.443,0.0705,0.9209-0.1241,1.2292-0.3811c0,0-0.0781-0.1875-0.1268-0.4973
			c-0.349-2.2199,0.0905-5.2821,0.954-8.195c0.0135-0.0619,0.0316-0.1229,0.0549-0.1827c1.011-3.3398,2.535-6.44,3.9088-7.7563
			c0.3696-0.3544,0.9196-0.4504,1.3896-0.2405c0.4696,0.2092,0.7635,0.6808,0.7421,1.191
			c-0.0057,0.1395-0.1799,3.4175-3.7292,7.8455c-0.8721,2.9708-1.306,6.0669-0.6475,7.6859
			c0.2623,0.645,0.5922,0.7744,1.0397,0.7744c2.233,0,3.3256-1.7163,3.692-2.4544c0.659-1.3281,0.7208-2.8915,0.1439-3.6369
			c-0.1197-0.1546-0.4869-0.6242-1.6683-0.389c-0.6844,0.1351-1.345-0.3032-1.4814-0.9802
			c-0.1365-0.6771,0.3053-1.3354,0.9872-1.4709c2.3651-0.4704,3.6219,0.6229,4.1588,1.3167
			c1.1761,1.5193,1.2241,4.0373,0.1184,6.2651C32.512,28.6544,30.2876,30.0936,27.7574,30.0936z"/>
		<path d="M57.3372,50.9732l-0.037-0.005c-0.5009-0.0682-0.9979,0.0796-1.41,0.3742c-1.3563,0.9695-2.2513,1.5494-3.5242,1.2333
			c-1.9352-0.4806-3.3646-2.2595-3.3031-4.3677c0.0609-2.0845,1.498-3.6492,3.1987-4.0819c1.3487-0.3433,2.6306,0.5056,3.6128,1.201
			c0.4196,0.2971,0.9178,0.4244,1.4294,0.3849c0.8264-0.0638,1.7571-1.038,1.6921-2.0512c-0.177-2.7627-0.6655-5.3651-0.8885-6.4495
			c-0.0585-0.2847-0.3433-0.4569-0.6227-0.3767c-1.133,0.3253-4.036,1.0668-7.4712,1.2351c-0.7667,0.0376-1.433-0.5318-1.5153-1.295
			l-0.0015-0.0142c-0.0502-0.467,0.1385-0.9171,0.4771-1.2402c1.081-1.0317,1.6336-2.6189,1.2062-4.308
			c-0.3834-1.5153-1.6237-2.7353-3.1457-3.0912c-2.8408-0.6643-5.3655,1.4891-5.3655,4.2363c0,1.2501,0.5229,2.3771,1.3604,3.1717
			c0.3359,0.3187,0.5176,0.7672,0.468,1.2292l-0.0017,0.0162c-0.0803,0.7627-0.7456,1.3326-1.5116,1.2951
			c-3.3207-0.1623-6.1447-0.8604-7.3541-1.201c-0.3192-0.0899-0.6295,0.1493-0.6293,0.481
			c0.0023,3.085,0.0113,15.9889,0.0028,20.8198C34.0015,59.1839,34.823,60,35.8371,60l21.7532,0
			c0.2367,0,0.4396-0.159,0.4881-0.3906c0.2075-0.9903,0.7379-3.7279,0.9204-6.6346C59.0614,51.978,58.327,51.1071,57.3372,50.9732z
			"/>
	</g>
</g>
</svg>
