<svg height="64" viewBox="0 0 64 64" width="64" xmlns="http://www.w3.org/2000/svg"><path d="m0 0h64v64h-64z" fill="none"/><path d="m56.9098 14.0956-8.9098-1.9797v37.9388c0 4.9326-4.0127 8.9453-8.9448 8.9453h-10.5665l17.5759 3.9052c2.127.4726 4.2343-.8685 4.7068-2.9954l9.1337-41.1074c.4727-2.1269-.8684-4.2342-2.9953-4.7068z"/><path d="m46 50.0547v-42.1094c0-3.8296-3.1152-6.9453-6.9448-6.9453h-26.1099c-3.8296 0-6.9453 3.1157-6.9453 6.9453v42.1094c0 3.8296 3.1157 6.9453 6.9453 6.9453h26.1099c3.8296 0 6.9448-3.1157 6.9448-6.9453zm-33.0549 3.9453c-2.1788 0-3.9451-1.7663-3.9451-3.9451v-42.1098c0-2.1789 1.7663-3.9451 3.9451-3.9451h26.1099c2.1787 0 3.945 1.7662 3.945 3.9451v42.1099c0 2.1787-1.7663 3.945-3.9451 3.945z"/><path d="m18.9042 15.8677-2.3144-7.8677h-2.1709l-2.3389 7.8677h1.4873l.5039-1.7988h2.6865l.5034 1.7988zm-4.5454-2.9502 1.0195-3.646h.084l.9834 3.646z"/><path d="m35.5089 42.1323-2.3389 7.8677h1.4873l.5039-1.7988h2.6865l.5034 1.7988h1.6431l-2.3145-7.8677zm-.0601 4.9175 1.0195-3.646h.084l.9834 3.646z"/><path d="m27.0569 30.493c.5334 1.6449 2.0601 2.8423 3.8828 2.8423 2.2644 0 4.1-1.8356 4.1-4.1s-1.8356-4.1-4.1-4.1c-.9966 0-1.8979.3698-2.6085.961-.0075-.0107-.0172-.0195-.0248-.0301 1.052-.7314 1.7437-1.9454 1.7437-3.3238 0-2.2368-1.8132-4.05-4.05-4.05s-4.05 1.8132-4.05 4.05c0 1.3784.6917 2.5923 1.7437 3.3238-.0076.0106-.0173.0194-.0248.0301-.7106-.5912-1.6119-.961-2.6085-.961-2.2644 0-4.1 1.8356-4.1 4.1s1.8356 4.1 4.1 4.1c1.8226 0 3.3494-1.1974 3.8828-2.8423-.188 1.2226-1.012 5.162-3.973 6.507h5.0297 5.0298c-2.9609-1.345-3.7849-5.2844-3.9729-6.507z"/></svg>