<?xml version="1.0" encoding="utf-8"?>
<!-- Generator: Adobe Illustrator 18.1.0, SVG Export Plug-In . SVG Version: 6.00 Build 0)  -->
<svg version="1.2" baseProfile="tiny" xmlns="http://www.w3.org/2000/svg" xmlns:xlink="http://www.w3.org/1999/xlink" x="0px"
	 y="0px" width="64px" height="64px" viewBox="0 0 64 64" xml:space="preserve">
<g id="_x36_4px_Boxes">
	<rect fill="none" width="64" height="64"/>
</g>
<g id="Production">
	<g>
		<path d="M32,19c-1.6569,0-3,0.3431-3,2s1.3431,4,3,4s3-2.3431,3-4S33.6569,19,32,19z"/>
		<circle cx="32" cy="27" r="1"/>
		<path d="M50,28.0354c-2.566-1.1349-5.5068-1.7284-8.2576-2.0194C43.1575,23.94,44,21.4012,44,18.6497
			c0-1.5523-0.2782-3.0328-0.7635-4.4069c2.392-0.2844,8.3513-5.8521,1.758-9.8624C39.605,1.1022,37.78,5.3,37.2407,7.2831
			C35.6555,6.4692,33.8818,5.9997,32,5.9997c-1.868,0-3.6292,0.463-5.2056,1.2656c-0.5453-1.9903-2.3754-6.1533-7.7489-2.8849
			c-6.5587,3.9893-0.6966,9.5193,1.7198,9.8573C20.2788,15.6133,20,17.0955,20,18.6497c0,2.7515,0.8425,5.2903,2.2576,7.3663
			C19.5068,26.307,16.566,26.9004,14,28.0354c-7.4285,3.2857-9.2337,4.9119-7,8.9643c3.1389,5.6945,5.9118,4.4337,9.0278,1.0278
			c1.1945-1.3055,2.9922-3.7222,2.9922-0.0278l-0.0103,2.4412c4.9897,1.5214,5.9712,4.7646,6.0578,5.2344
			c0.0361,0.196,0.0192,0.2951-0.0303,0.3313c-3.1258-2.9928-8.9025-5.6932-12.3064-2.3386
			c-2.7935,2.7531-1.8239,8.2667,2.1657,12.3149c3.9896,4.0482,9.4885,5.0981,12.282,2.345
			c0.7531-0.7422,1.2262-1.6879,1.4461-2.7487C29.605,55.8443,30.7593,56,32,56s2.395-0.1556,3.3753-0.4207
			c0.2199,1.0608,0.693,2.0065,1.4461,2.7487c2.7936,2.7531,8.2924,1.7032,12.282-2.345c3.9896-4.0483,4.9592-9.5618,2.1657-12.3149
			c-3.3498-3.3013-9.0956-0.7354-12.3063,2.3386c-0.0496-0.0362-0.0665-0.1353-0.0303-0.3313
			c0.0866-0.4698,1.068-3.713,6.0577-5.2344L44.98,37.9997c0-3.6945,1.7978-1.2778,2.9922,0.0278
			c3.116,3.4059,5.8889,4.6667,9.0278-1.0278C59.2337,32.9473,57.4285,31.3211,50,28.0354z M36,12.2411
			c0.9714,0,1.7589,0.7875,1.7589,1.7589c0,0.9714-0.7875,1.7589-1.7589,1.7589c-0.9714,0-1.7589-0.7875-1.7589-1.7589
			C34.2411,13.0286,35.0286,12.2411,36,12.2411z M28,12.2411c0.9714,0,1.7589,0.7875,1.7589,1.7589
			c0,0.9714-0.7875,1.7589-1.7589,1.7589c-0.9714,0-1.7589-0.7875-1.7589-1.7589C26.2411,13.0286,27.0286,12.2411,28,12.2411z
			 M32,30.197c-3.9831,0-7.2121-4.5438-7.2121-8.2424S28.0169,16.803,32,16.803c3.9832,0,7.2121,1.4529,7.2121,5.1515
			S35.9832,30.197,32,30.197z"/>
	</g>
</g>
</svg>
