<svg height="64" viewBox="0 0 64 64" width="64" xmlns="http://www.w3.org/2000/svg"><path d="m0 0h64v64h-64z" fill="none"/><path d="m32 19c-1.6569 0-3 .3431-3 2s1.3431 4 3 4 3-2.3431 3-4-1.3431-2-3-2z"/><circle cx="32" cy="27" r="1"/><path d="m50 28.0354c-2.566-1.1349-5.5068-1.7284-8.2576-2.0194 1.4151-2.076 2.2576-4.6148 2.2576-7.3663 0-1.5523-.2782-3.0328-.7635-4.4069 2.392-.2844 8.3513-5.8521 1.758-9.8624-5.3895-3.2782-7.2145.9196-7.7538 2.9027-1.5852-.8139-3.3589-1.2834-5.2407-1.2834-1.868 0-3.6292.463-5.2056 1.2656-.5453-1.9903-2.3754-6.1533-7.7489-2.8849-6.5587 3.9893-.6966 9.5193 1.7198 9.8573-.4865 1.3756-.7653 2.8578-.7653 4.412 0 2.7515.8425 5.2903 2.2576 7.3663-2.7508.291-5.6916.8844-8.2576 2.0194-7.4285 3.2857-9.2337 4.9119-7 8.9643 3.1389 5.6945 5.9118 4.4337 9.0278 1.0278 1.1945-1.3055 2.9922-3.7222 2.9922-.0278l-.0103 2.4412c4.9897 1.5214 5.9712 4.7646 6.0578 5.2344.0361.196.0192.2951-.0303.3313-3.1258-2.9928-8.9025-5.6932-12.3064-2.3386-2.7935 2.7531-1.8239 8.2667 2.1657 12.3149s9.4885 5.0981 12.282 2.345c.7531-.7422 1.2262-1.6879 1.4461-2.7487.9804.2651 2.1347.4208 3.3754.4208s2.395-.1556 3.3753-.4207c.2199 1.0608.693 2.0065 1.4461 2.7487 2.7936 2.7531 8.2924 1.7032 12.282-2.345 3.9896-4.0483 4.9592-9.5618 2.1657-12.3149-3.3498-3.3013-9.0956-.7354-12.3063 2.3386-.0496-.0362-.0665-.1353-.0303-.3313.0866-.4698 1.068-3.713 6.0577-5.2344l-.0102-2.4413c0-3.6945 1.7978-1.2778 2.9922.0278 3.116 3.4059 5.8889 4.6667 9.0278-1.0278 2.2337-4.0524.4285-5.6786-7-8.9643zm-14-15.7943c.9714 0 1.7589.7875 1.7589 1.7589s-.7875 1.7589-1.7589 1.7589-1.7589-.7875-1.7589-1.7589.7875-1.7589 1.7589-1.7589zm-8 0c.9714 0 1.7589.7875 1.7589 1.7589s-.7875 1.7589-1.7589 1.7589-1.7589-.7875-1.7589-1.7589.7875-1.7589 1.7589-1.7589zm4 17.9559c-3.9831 0-7.2121-4.5438-7.2121-8.2424s3.229-5.1516 7.2121-5.1516c3.9832 0 7.2121 1.4529 7.2121 5.1515s-3.2289 8.2425-7.2121 8.2425z"/></svg>