<svg enable-background="new 0 0 64 64" viewBox="0 0 64 64" xmlns="http://www.w3.org/2000/svg"><path d="m0 0h64v64h-64z" fill="none"/><path d="m62.39 17.32c0-3.2-2.12-5.91-5.05-6.87.46-3.92-2.66-7.26-6.56-7.26-1.67 0-3.19.61-4.35 1.62-1.28-.95-2.89-1.53-4.65-1.55-4.19-.06-7.62 3-7.68 6.83 0 .2.01.39.02.59-2.49.93-4.27 3.29-4.27 6.07 0 2.32 1.25 4.36 3.11 5.51-.97 1.25-1.56 2.81-1.56 4.5 0 4.1 3.38 7.42 7.55 7.42 1.46 0 2.82-.41 3.97-1.12-.08 2.67-.33 5.74-.66 8.84 1.78 2.4 3.35 5.36 4.52 9 1.19 3.72 1.72 7.7 1.8 9.1h6.07c-1.57-6.47-7.2-30.36-2.08-34.63.11.05.16.17.05.34-1.66 2.68-1.25 6.39-.36 9.06 4.78 1.28 9.25-2.3 9.25-6.94 0-1.87-.73-3.57-1.92-4.85 1.71-1.33 2.8-3.37 2.8-5.66z"/><path d="m26.49 33.84c-.76-.17-1.53-.17-2.28 0-5.51 1.24-18.11 6.27-20.11 26.16 0 0 5.89.01 5.9 0 4.33 0 11.31-9.99 12.61-15.43-1.85 1.09-5.05 2.46-8.73 2.75v.02s.13 5.61-2.45 9.72c-.09.15-.27.22-.42.07 1.49-5.7.79-10.53.78-10.59-.04-.29.04-.58.22-.8.19-.22.46-.35.75-.36 6.06-.1 10.57-3.7 10.61-3.73.31-.27.76-.31 1.12-.12.29.16.51.53.51.77v17.7h21.59c-1.99-19.89-14.6-24.92-20.1-26.16z"/></svg>