<svg enable-background="new 0 0 64 64" viewBox="0 0 64 64" xmlns="http://www.w3.org/2000/svg"><path d="m26.4235 28.9514c-.4417-.6827-1.3534-.8781-2.0368-.436s-.8788 1.3538-.437 2.0366l.5889.9102 2.4706-1.6056z"/><path d="m29.5307 26.941c-.4417-.6827-1.3536-.878-2.037-.4359-.6827.4417-.8781 1.3534-.4364 2.0362l.585.9041 2.47-1.6055z"/><path d="m32.6375 24.9309c-.4417-.6827-1.3534-.8781-2.0362-.4364-.6825.4416-.8779 1.3533-.4362 2.036l.5805.8972 2.4688-1.6051z"/><path d="m48.0168 12.342c-.8436-.5384-1.3944-.5065-1.5436.1622-.3354 1.4978-1.4523 4.6439-2.9081 6.8704 3.4433 4.8479 2.0061 5.0234 2.0061 5.0234-1.0663-1.6481-2.2666-3.0746-2.9207-3.8139-.3167.3526-.6433.6475-.9765.8631l-27.7278 17.9405c.1149.4173.3287.8944.6356 1.3687.3051.4716.6498.8622.9833 1.1366l3.8533-2.4931c-.1145 1.5785.2641 3.2018 1.1924 4.6252 2.2672 3.4693 6.9602 4.4562 10.4298 2.1892l12.6497-8.1853c3.471-2.2659 4.4577-6.9588 2.1918-10.4289-.3818-.5842-1.3343-1.5352-1.3343-1.5352 3.4781-2.2503 8.0963-1.196 10.2049-.7641.6708.1375.9254-.3523.7807-1.3414-.0763-.5268-.9617-3.157-2.9964-6.3019-2.0355-3.1459-4.0715-5.0308-4.5202-5.3155zm-16.457 29.972-2.1897 1.425c-2.1028 1.3706-4.9142.7406-6.2565-1.3147-1.3571-2.0783-.765-4.8991 1.3135-6.2563l2.2213-1.4449zm3.1025-2.0186-.633.4113-4.9075-7.585.6338-.4101zm3.1127-2.0032-.6328.413-4.9132-7.5938.6344-.4105zm4.2686-2.7882-1.8035 1.1772-4.9043-7.58 2.168-1.4027c2.0467-1.052 4.5959-.3764 5.8542 1.5491 1.3566 2.079.7646 4.9-1.3144 6.2564z"/><path d="m13.0987 39.9378c-.2672.0866-2.4292.8597-3.4752.6456-.3321-.0678-.7635.9109.5908 3.0041 1.3542 2.0931 2.4238 2.1007 2.4981 1.7701.2334-1.0418 1.8246-2.6971 2.0131-2.9053 0 0-.0008-.0013-.0021-.0019-.3337-.2761-.6813-.6662-.9883-1.1407s-.5204-.9515-.6355-1.369c0-.0016-.0009-.0029-.0009-.0029z"/></svg>