<svg enable-background="new 0 0 64 64" height="64" viewBox="0 0 64 64" width="64" xmlns="http://www.w3.org/2000/svg"><path d="m0 0h64v64h-64z" fill="none"/><path d="m58.5 25.5c-1.6-.5-4.2-1.4-7.3-2.9-2.9-1.4-4.8-2.5-6-3.1-.8-.5-1.9-.3-2.5.4s-1.5 1.5-2.6 2.3c.2.6.5 1.3.7 2.1 1.6 4.7 2.2 10.4 1.9 16.1-.1 1.8-1.3 3.3-3 3.8-1.4.4-4.2 1.2-6.6 2.2-2 .8-4.2 1.9-5.7 2.8.7.4 1.3.9 1.9 1.3 3 2.3 5.4 4.9 6.5 6.2.4.5 1.1.8 1.7.7 1.7-.2 5.1-.5 8-.3 2.6.2 5.5.6 7.1.8.8.1 1.7-.3 2.1-1 3.3-6.2 4.7-12.8 5.1-17.7.4-5.2-.6-6.6.1-11.5.1-1-.5-1.9-1.4-2.2zm-8 26c-1.5-.2-3.1-.4-4.6-.5-1.9-.1-3.9-.1-5.7 0 1.9-1.7 4.4-4.3 7.3-8.1 3-3.9 5-7.4 6.3-10 0 .4 0 .8.1 1.3.2 2.7-.3 10.1-3.4 17.3z"/><path d="m39.1 42c.8-.2 1.4-.9 1.4-1.8.3-5.6-.4-11.1-1.8-15.3-2.2-6.6-4.1-8.2-5.6-13.4-.3-.9-1.2-1.5-2.2-1.4-1.6.2-4.3.5-7.9.4-3.2-.1-5.4-.2-6.7-.3-1-.1-1.8.5-2.1 1.4-.4 1.3-1.1 3.1-2.5 4.7-.4.4-.7.9-1 1.3l-1.5-.9.4-.7c.3-.5.1-1.1-.3-1.4l-1.7-1.1c-.4-.2-.8-.2-1.2.1-.5.4-1.2 1.1-1.7 2s-.9 1.9-1 2.5c-.1.4.1.9.4 1.1l1.7 1c.5.3 1.1.1 1.4-.3l.4-.7 6 3.7c0 .1-.1.2-.4.2-.5.1-5.2-1.2-5.2-1.2-.6 1.1-1.1 2.2-1.5 3.3-2.5 6.9-2.5 13.9-2.3 17.2.1 1.1 1 1.9 2.1 1.9 2-.1 5.3 0 8.6.7 3.7.8 6.9 2.2 8.5 2.9.6.3 1.3.2 1.9-.1 1.5-.9 4.5-2.6 7.2-3.6 2.2-.9 5-1.7 6.6-2.2zm-14.1-1c1-2.3 2.2-5.7 3.2-10.4s1.4-8.6 1.5-11.4c.2.4.4.8.6 1.2.9 1.8 1.8 3.6 2.8 6.5s1.5 6.5 1.6 10.3c-1.4.4-2.9 1-4.4 1.5-1.9.6-3.8 1.5-5.3 2.3z"/></svg>