<?xml version="1.0" encoding="utf-8"?>
<!-- Generator: Adobe Illustrator 17.1.0, SVG Export Plug-In . SVG Version: 6.00 Build 0)  -->
<svg version="1.2" baseProfile="tiny" xmlns="http://www.w3.org/2000/svg" xmlns:xlink="http://www.w3.org/1999/xlink" x="0px"
	 y="0px" width="64px" height="64px" viewBox="0 0 64 64" xml:space="preserve">
<g id="Box">
	<rect fill="none" width="64" height="64"/>
</g>
<g id="Icon">
	<g>
		<path d="M31.01,56.0048L31,56v6.0045c0,0.5468,0.4432,0.99,0.99,0.99h0.02c0.5468,0,0.99-0.4432,0.99-0.99V56l-0.01,0.0048
			C32.3639,56.304,31.6361,56.304,31.01,56.0048z"/>
		<path d="M27,54.0056V60.01c0,0.5468,0.4432,0.99,0.99,0.99h0.02c0.5468,0,0.99-0.4432,0.99-0.99v-5.0262l-1.9641-0.9782H27z"/>
		<path d="M23,52.0056V58.01c0,0.5468,0.4432,0.99,0.99,0.99h0.02c0.5468,0,0.99-0.4432,0.99-0.99v-5.0184l-1.9798-0.986H23z"/>
		<path d="M19,50.0056V56.01c0,0.5468,0.4432,0.99,0.99,0.99h0.02c0.5468,0,0.99-0.4432,0.99-0.99v-5.0106l-1.9955-0.9938H19z"/>
		<path d="M15,54.01c0,0.5468,0.4432,0.99,0.99,0.99h0.02c0.5468,0,0.99-0.4432,0.99-0.99v-5.0028l-2-0.9961V54.01z"/>
		<path d="M35,54.9838V60.01c0,0.5468,0.4432,0.99,0.99,0.99h0.02c0.5468,0,0.99-0.4432,0.99-0.99v-6.0045h-0.0359L35,54.9838z"/>
		<path d="M39,52.9916V58.01c0,0.5468,0.4432,0.99,0.99,0.99h0.02c0.5468,0,0.99-0.4432,0.99-0.99v-6.0045h-0.0202L39,52.9916z"/>
		<path d="M43,50.9994V56.01c0,0.5468,0.4432,0.99,0.99,0.99h0.02c0.5468,0,0.99-0.4432,0.99-0.99v-6.0045h-0.0045L43,50.9994z"/>
		<path d="M47,54.01c0,0.5468,0.4432,0.99,0.99,0.99h0.02c0.5468,0,0.99-0.4432,0.99-0.99v-5.9989l-2,0.9961V54.01z"/>
		<path d="M59,11h-3v2h-5L33.667,1.5077c-1.0117-0.6768-2.3223-0.6772-3.334,0.0005L13,13H9.1926l-0.7357,3.6743
			C8.3291,17.0723,8.0706,17.0142,8,16.988V13v-2H5c-2,0-2,2.0147-2,4.5S3,20,5,20h3v-2h3v34.01c0,0.5468,0.4432,0.99,0.99,0.99
			h0.02c0.5468,0,0.99-0.4432,0.99-0.99V15h3v27.7639c0,0.7576,0.428,1.4501,1.1056,1.7889l14,7
			c0.563,0.2815,1.2258,0.2815,1.7888,0l14-7C47.572,44.214,48,43.5215,48,42.7639V15h3v37.01c0,0.5468,0.4432,0.99,0.99,0.99h0.02
			c0.5468,0,0.99-0.4432,0.99-0.99V18h3v2h3c2,0,2-2.0147,2-4.5S61,11,59,11z M46,26L18,42.25v-10L46,16V26z M16.7434,13
			l14.7009-9.8292c0.3379-0.2256,0.7734-0.2251,1.1113-0.0005L47.2567,13H16.7434z"/>
	</g>
</g>
</svg>
