<svg height="64" viewBox="0 0 64 64" width="64" xmlns="http://www.w3.org/2000/svg"><path d="m0 0h64v64h-64z" fill="none"/><path d="m31.01 56.0048-.01-.0048v6.0045c0 .5468.4432.99.99.99h.02c.5468 0 .99-.4432.99-.99v-6.0045l-.01.0048c-.6261.2992-1.3539.2992-1.98 0z"/><path d="m27 54.0056v6.0044c0 .5468.4432.99.99.99h.02c.5468 0 .99-.4432.99-.99v-5.0262l-1.9641-.9782z"/><path d="m23 52.0056v6.0044c0 .5468.4432.99.99.99h.02c.5468 0 .99-.4432.99-.99v-5.0184l-1.9798-.986z"/><path d="m19 50.0056v6.0044c0 .5468.4432.99.99.99h.02c.5468 0 .99-.4432.99-.99v-5.0106l-1.9955-.9938z"/><path d="m15 54.01c0 .5468.4432.99.99.99h.02c.5468 0 .99-.4432.99-.99v-5.0028l-2-.9961z"/><path d="m35 54.9838v5.0262c0 .5468.4432.99.99.99h.02c.5468 0 .99-.4432.99-.99v-6.0045h-.0359z"/><path d="m39 52.9916v5.0184c0 .5468.4432.99.99.99h.02c.5468 0 .99-.4432.99-.99v-6.0045h-.0202z"/><path d="m43 50.9994v5.0106c0 .5468.4432.99.99.99h.02c.5468 0 .99-.4432.99-.99v-6.0045h-.0045z"/><path d="m47 54.01c0 .5468.4432.99.99.99h.02c.5468 0 .99-.4432.99-.99v-5.9989l-2 .9961z"/><path d="m59 11h-3v2h-5l-17.333-11.4923c-1.0117-.6768-2.3223-.6772-3.334.0005l-17.333 11.4918h-3.8074l-.7357 3.6743c-.1278.398-.3863.3399-.4569.3137v-3.988-2h-3c-2 0-2 2.0147-2 4.5s0 4.5 2 4.5h3v-2h3v34.01c0 .5468.4432.99.99.99h.02c.5468 0 .99-.4432.99-.99v-37.01h3v27.7639c0 .7576.428 1.4501 1.1056 1.7889l14 7c.563.2815 1.2258.2815 1.7888 0l14-7c.6776-.3388 1.1056-1.0313 1.1056-1.7889v-27.7639h3v37.01c0 .5468.4432.99.99.99h.02c.5468 0 .99-.4432.99-.99v-34.01h3v2h3c2 0 2-2.0147 2-4.5s0-4.5-2-4.5zm-13 15-28 16.25v-10l28-16.25zm-29.2566-13 14.7009-9.8292c.3379-.2256.7734-.2251 1.1113-.0005l14.7011 9.8297z"/></svg>