<?xml version="1.0" encoding="utf-8"?>
<!-- Generator: Adobe Illustrator 25.2.0, SVG Export Plug-In . SVG Version: 6.00 Build 0)  -->
<svg version="1.1" xmlns="http://www.w3.org/2000/svg" xmlns:xlink="http://www.w3.org/1999/xlink" x="0px" y="0px"
	 viewBox="0 0 64 64" style="enable-background:new 0 0 64 64;" xml:space="preserve">
<style type="text/css">
	.st0{fill:none;}
	.st1{fill:#FFFFFF;}
	.st2{fill:#B3B3B3;}
</style>
<g id="Box">
	<rect class="st0" width="64" height="64"/>
</g>
<g id="Icon">
	<g>
		<path d="M36,23.485V6.5C36,6.224,35.776,6,35.5,6h-27C8.224,6,8,6.224,8,6.5V47h12v-6h4v6h6V37h-3v-4h3v-2.08
			c0-0.318,0.059-0.623,0.143-0.92H27v-4h4v2.526L36,23.485z M17,37h-4v-4h4V37z M17,30h-4v-4h4V30z M17,23h-4v-4h4V23z M17,16h-4
			v-4h4V16z M24,37h-4v-4h4V37z M24,30h-4v-4h4V30z M24,23h-4v-4h4V23z M24,16h-4v-4h4V16z M27,12h4v4h-4V12z M27,23v-4h4v4H27z"/>
		<path d="M58.634,19h-14.8c-0.362,0-0.71,0.144-0.966,0.4L32.4,29.954c-0.256,0.256-0.4,0.604-0.4,0.966v21.714
			C32,53.385,32.615,54,33.366,54h25.269C59.388,54,60,53.388,60,52.634V20.366C60,19.612,59.388,19,58.634,19z M56,50H36V32
			l-2.736-0.717C33.031,31.208,33.115,31,33.115,31h10.154c0.377,0,0.683-0.306,0.683-0.683V20.116c0,0,0.171-0.075,0.246,0.158
			L45,23h11V50z"/>
		<path d="M42.582,36.814h-1.393v1.449h1.168c-0.038,0.32-0.038,0.678-0.038,1.017v0.395h-1.13v1.431h1.281
			c0.546,2.787,2.391,4.067,5.008,4.067c0.998,0,1.487-0.056,2.523-0.301v-1.864c-0.979,0.207-1.488,0.282-2.373,0.282
			c-1.242,0-2.259-0.64-2.692-2.184h3.445v-1.431H44.71c-0.019-0.188-0.019-0.395-0.019-0.621c0-0.263,0-0.527,0.019-0.791h3.671
			v-1.449h-3.427c0.414-1.525,1.355-2.297,2.787-2.297c0.753,0,1.242,0.075,2.165,0.245v-1.977c-0.791-0.17-1.374-0.226-2.108-0.226
			C45.18,32.56,43.26,33.99,42.582,36.814z"/>
	</g>
</g>
</svg>
