<?xml version="1.0" encoding="utf-8"?>
<!-- Generator: Adobe Illustrator 25.0.0, SVG Export Plug-In . SVG Version: 6.00 Build 0)  -->
<svg version="1.1" xmlns="http://www.w3.org/2000/svg" xmlns:xlink="http://www.w3.org/1999/xlink" x="0px" y="0px"
	 viewBox="0 0 64 64" style="enable-background:new 0 0 64 64;" xml:space="preserve">
<style type="text/css">
	.st0{fill:none;}
	.st1{fill:#FFFFFF;}
</style>
<g id="Box">
	<rect class="st0" width="64" height="64"/>
</g>
<g id="Icon">
	<g>
		<path d="M30,12.5C30,6.149,23.508,1,15.5,1S1,6.149,1,12.5C1,18.851,7.492,24,15.5,24S30,18.851,30,12.5z M16.59,5.46l1.941-1.141
			c1.454,2.475,2.222,5.304,2.222,8.181s-0.769,5.706-2.222,8.181L16.59,19.54c1.251-2.129,1.912-4.564,1.912-7.04
			S17.841,7.589,16.59,5.46z M10.322,16.15l-1.899-1.209c0.467-0.733,0.714-1.578,0.714-2.441s-0.247-1.708-0.714-2.441l1.899-1.209
			c0.698,1.095,1.066,2.357,1.066,3.65S11.019,15.055,10.322,16.15z M12.496,17.246c0.866-1.441,1.323-3.083,1.323-4.746
			s-0.458-3.304-1.323-4.746l1.93-1.159c1.076,1.792,1.645,3.833,1.645,5.905s-0.569,4.113-1.645,5.905L12.496,17.246z"/>
		<path d="M7,31v2h35v-2c0-1.657-1.343-3-3-3H10C8.343,28,7,29.343,7,31z"/>
		<path d="M52.787,36.945c-1.587-1.878-3.387-3.211-6.524-3.737c-0.761-0.128-1.526-0.277-2.263-0.427V45
			c0,0.331-0.164,0.64-0.437,0.826c-0.273,0.187-0.622,0.226-0.929,0.104c-0.078-0.03-7.817-3.071-10.932-4.352
			c-2.985-1.226-3.788,0.207-4.052,0.679c-0.323,0.576-0.397,1.274-0.213,2.02c0.3,1.218,1.27,2.477,2.803,3.64
			c1.793,1.36,3.721,2.499,5.422,3.504c1.852,1.094,4.678,2.688,5.913,4.434c0,0,0,0,0,0.001c1.016,1.435,2.654,3.067,4.351,4.065
			c2.276,1.339,5.434,2.215,7.981,2.753l9.649-12.236C61.69,48.074,54.483,38.953,52.787,36.945z"/>
		<path d="M29.033,49.512c-1.903-1.443-3.126-3.087-3.537-4.755c-0.307-1.248-0.166-2.45,0.41-3.476
			c0.722-1.289,2.534-3.205,6.557-1.551c2.304,0.947,7.161,2.866,9.537,3.802V37H7v12c0,1.657,1.343,3,3,3h20.031
			c0.021,0.056,0.076,0.297-0.25,0.364c-0.676,0.138-2.809,0.547-4.562,0.882c0.894,1.842,1.53,3.146,1.704,3.48
			c0.821,1.581,2.744,2.233,4.357,1.477l0.007-0.003c0.644-0.302,1.139-0.789,1.467-1.365c0.853,1.497,2.713,2.105,4.286,1.368
			l0.007-0.003c0.968-0.454,1.609-1.319,1.825-2.292c-1.057-0.885-2.557-1.776-4.226-2.763
			C32.899,52.111,30.918,50.941,29.033,49.512z"/>
	</g>
</g>
</svg>
