<?xml version="1.0" encoding="utf-8"?>
<!-- Generator: Adobe Illustrator 25.2.0, SVG Export Plug-In . SVG Version: 6.00 Build 0)  -->
<svg version="1.1" xmlns="http://www.w3.org/2000/svg" xmlns:xlink="http://www.w3.org/1999/xlink" x="0px" y="0px"
	 viewBox="0 0 64 64" style="enable-background:new 0 0 64 64;" xml:space="preserve">
<style type="text/css">
	.st0{fill:none;}
	.st1{fill:#B3B3B3;}
</style>
<g id="Box">
	<rect class="st0" width="64" height="64"/>
</g>
<g id="Icon">
	<g>
		<g>
			<path d="M52.23,41.259c-2.769,0.952-6.367,2.413-9.222,3.613c0.074,0.433,0.084,0.892,0.012,1.379
				c-0.415,2.808-2.82,4.583-6.24,4.742c-7.733,0.358-12.535-1.558-13.531-1.962c-0.286-0.116-0.318-0.258-0.292-0.388
				c0.001-0.001,0.011-0.009,0.011-0.009c5.594,0.964,9.12,1.122,13.463,0.424c3.295-0.53,4.489-2.106,4.461-3.406
				c-0.027-1.27-0.927-2.037-2.952-2.108c-6.89-0.24-10.919-1.008-16.824-1.869c-4.104-0.598-8.062,0.467-11.433,2.627
				c-3.163,2.026-4.04,2.985-4.04,2.985l5.786,11.143l7.482-3.042c0.853-0.347,1.784-0.451,2.693-0.302l10.261,2.283
				c2.289,0.376,4.638-0.056,6.644-1.222L58.987,43.3C58.987,43.3,57.983,39.281,52.23,41.259z M27.886,37.231
				c0.161,0.516,0.555,0.927,1.067,1.116c0.512,0.19,1.087,0.138,1.561-0.143l11.049-6.532c0.74-0.437,1.068-1.327,0.78-2.121
				c-0.287-0.794-1.108-1.27-1.958-1.136l-4.526,0.716c2.819-5.821,8.196-10.206,14.727-11.609c0.808-0.174,1.611-0.917,1.568-2.043
				l-0.077-2.058c-0.04-1.07-1.28-1.849-2.33-1.64c-8.711,1.739-15.863,7.643-19.407,15.471l-3.118-3.715
				c-0.542-0.651-1.481-0.826-2.239-0.42c-0.759,0.407-1.123,1.284-0.87,2.088L27.886,37.231z"/>
		</g>
	</g>
</g>
</svg>
