<?xml version="1.0" encoding="utf-8"?>
<!-- Generator: Adobe Illustrator 17.1.0, SVG Export Plug-In . SVG Version: 6.00 Build 0)  -->
<svg version="1.2" baseProfile="tiny" xmlns="http://www.w3.org/2000/svg" xmlns:xlink="http://www.w3.org/1999/xlink" x="0px"
	 y="0px" width="64px" height="64px" viewBox="0 0 64 64" xml:space="preserve">
<g id="_x36_4px_Boxes">
	<rect fill="none" width="64" height="64"/>
</g>
<g id="Production">
	<rect fill="none" width="64" height="64"/>
	<g>
		<path d="M56.2451,46.1647c0.588-1.3736,0.8396-2.3969,0.6277-3.491c-0.2368-1.2231-2.2515-2.2229-5.2266-2.7806
			c-0.3246-0.0608-0.6687-0.1122-1.0149-0.1623l0.0011-0.0086c-0.4449-0.0598-0.8707-0.3214-1.1403-0.6997
			c-0.2026-0.2842-0.3167-0.6426-0.356-1.0518c0.911-0.3744,1.5535-1.2682,1.5535-2.3141c0-1.3824-1.1206-2.5032-2.5032-2.5032
			c-0.5591,0-1.0701,0.1898-1.4868,0.4996c0.252,1.5482-0.1605,2.0421-0.1605,2.0421c-0.1285,0.1639-0.2123,0.1288-0.2443,0.1039
			c0.0027-0.0482,0.0142-0.0936,0.0142-0.1425c0-1.3824-1.1206-2.5032-2.5031-2.5032s-2.5032,1.1208-2.5032,2.5032
			c0,1.0458,0.6425,1.9398,1.5533,2.3141c-0.0391,0.4092-0.1531,0.7676-0.3553,1.0518c-0.2694,0.3783-0.6954,0.64-1.1403,0.6997
			l0.001,0.0085c-0.3463,0.0502-0.6907,0.1016-1.0154,0.1625c-2.9751,0.5576-4.9896,1.5574-5.2266,2.7805
			c-0.1425,0.7364-0.071,1.4431,0.1675,2.2437c0.0042-0.002,0.0078-0.0036,0.012-0.0056c0.111,0.3906,0.2546,0.8003,0.4484,1.2529
			c-1.3015,2.634-2.4437,6.3362-2.4104,9.3062c0.0411,3.6748,2.5886,6.4689,12.6591,6.4689c10.0706,0,12.6182-2.7941,12.6594-6.4689
			C58.686,52.7603,57.74,49.1897,56.2451,46.1647z M45.3754,37.5922c0.2537-0.206,0.4637-0.4582,0.621-0.7472
			c0.1572,0.289,0.3672,0.5411,0.6207,0.7471c-0.01,0.7266,0.1094,1.3376,0.2925,1.8384c-0.3031-0.0076-0.6023-0.0192-0.9131-0.0192
			c-0.3109,0-0.61,0.0117-0.9132,0.0192C45.2662,38.9297,45.3855,38.3187,45.3754,37.5922z M49.192,56.9753
			c-1.0303,0.2435-1.5171,0.2995-2.5106,0.2995c-2.6029,0-4.4392-1.2737-4.9817-4.0461h-1.2742v-1.4234h1.1235v-0.3931
			c0-0.3372,0-0.6931,0.0376-1.0114h-1.1611v-1.4427h1.3862c0.6743-2.8096,2.585-4.2329,5.189-4.2329
			c0.7297,0,1.3108,0.056,2.097,0.2245v1.9667c-0.9171-0.1686-1.4041-0.2433-2.1537-0.2433c-1.4238,0-2.3599,0.7679-2.7723,2.285
			h3.4089v1.4427h-3.652c-0.0188,0.2618-0.0188,0.524-0.0188,0.7863c0,0.2251,0,0.4308,0.0188,0.6182h3.652v1.4234h-3.4279
			c0.4314,1.5364,1.4429,2.173,2.6792,2.173c0.8796,0,1.3862-0.0749,2.36-0.2811V56.9753z"/>
		<path d="M20,43h12.0593c0.019-0.2994,0.0571-0.5974,0.115-0.8969c0.1512-0.7808,0.51-1.4777,1.041-2.1031H20V43z"/>
		<path d="M20,34v3h18.4794c-0.1088-0.4335-0.1765-0.8815-0.1765-1.3434c0-0.5771,0.0902-1.1334,0.2557-1.6566H20z"/>
		<path d="M16,52V25.2918l-3.1484-0.9324C12.5105,24.2504,12.6331,24,12.6331,24H27c0.5522,0,1-0.4478,1-1V8.6341
			c0,0,0.251-0.1096,0.3599,0.231L29.2915,12H46v18.6098c0.0002,0.0001,0.0007,0.0002,0.001,0.0004
			c0.6864-0.3009,1.4258-0.4568,2.1855-0.4568c1.0288,0,1.989,0.2889,2.8135,0.7822V9c0-1.1045-0.8955-2-2-2H27.8286
			c-0.5308,0-1.0396,0.2109-1.4146,0.5859L11.5859,22.4141C11.2109,22.7891,11,23.2979,11,23.8286V55c0,1.0996,0.8999,2,2,2h17.4661
			c-0.0754-0.4714-0.1228-0.9664-0.1288-1.4955c-0.0128-1.14,0.1163-2.3273,0.3334-3.5045H16z"/>
		<rect x="20" y="28" width="22" height="3"/>
	</g>
</g>
</svg>
