<?xml version="1.0" encoding="utf-8"?>
<!-- Generator: Adobe Illustrator 17.1.0, SVG Export Plug-In . SVG Version: 6.00 Build 0)  -->
<svg version="1.2" baseProfile="tiny" xmlns="http://www.w3.org/2000/svg" xmlns:xlink="http://www.w3.org/1999/xlink" x="0px"
	 y="0px" width="64px" height="64px" viewBox="0 0 64 64" xml:space="preserve">
<g id="_x36_4px_Boxes">
	<rect fill="none" width="64" height="64"/>
</g>
<g id="Icon">
	<g>
		<path d="M27.8904,23.1441c0-0.5646,0-2.6966,0-3.2632c0-0.2372-0.0215-0.4711-0.0624-0.7014
			c-0.6767,0.8427-4.1177,4.569-12.0867,4.569c-7.127,0-9.5833-3.2659-9.8377-3.7328c-0.1089-0.1998-0.1926-0.3393-0.0566-0.4528
			l0.0798,0.0023c2.2657,1.4744,5.6583,2.3992,9.5195,2.3992c6.978,0,12.4441-3.0131,12.4441-6.8559c0-0.5646,0-2.6966,0-3.2632
			C27.8904,8.0065,22.4243,5,15.4463,5C8.4662,5,3,8.0065,3,11.8452c0,0.5667,0,2.6986,0,3.2632
			c0,0.845,0.2778,1.6462,0.7644,2.3878C3.2778,18.2367,3,19.0367,3,19.8809c0,0.5667,0,2.6986,0,3.2632
			C3,26.9869,8.4662,30,15.4463,30C22.4243,30,27.8904,26.9869,27.8904,23.1441z M15.448,7.6339
			c5.441,0,9.8519,2.0187,9.8519,4.5089c0,2.4903-4.4108,4.509-9.8519,4.509s-9.8519-2.0187-9.8519-4.509
			C5.5961,9.6526,10.007,7.6339,15.448,7.6339z"/>
		<path d="M13.5378,13.684v0.6041H14.92v-0.4969c0.2714,0.0171,0.5958,0.0171,0.9033,0.0171h0.3414v0.4798h1.3484v-0.5505
			c2.4742-0.2677,3.653-1.1289,3.653-2.384c0-0.4884-0.0508-0.7006-0.2734-1.1996h-1.8276
			c0.1886,0.4628,0.2565,0.6941,0.2565,1.1203c0,0.5505-0.5278,0.996-1.8085,1.191v-1.5744h-1.3484v1.69
			c-0.1696,0.0085-0.3414,0.0173-0.5449,0.0173c-0.2396,0-0.4622-0.0087-0.6998-0.0173v-1.69h-1.3823v1.5659
			c-1.2466-0.1865-1.8954-0.587-1.8954-1.2275c0-0.3641,0.0678-0.5762,0.2205-1.0302H9.9355
			C9.7809,10.5803,9.73,10.848,9.73,11.2014C9.73,12.4652,11.0105,13.3627,13.5378,13.684z"/>
		<path d="M37.9268,47.5651c2.2657,1.4744,5.6583,2.3992,9.5195,2.3992c6.978,0,12.4441-3.0131,12.4441-6.8559
			c0-0.5646,0-2.6966,0-3.2632c0-3.8386-5.4661-6.8452-12.4441-6.8452C40.4662,33,35,36.0065,35,39.8452c0,0.5667,0,2.6986,0,3.2632
			c0,0.845,0.2778,1.6462,0.7644,2.3878C35.2778,46.2367,35,47.0367,35,47.8809c0,0.5667,0,2.6986,0,3.2632
			C35,54.9869,40.4662,58,47.4463,58c6.978,0,12.4441-3.0131,12.4441-6.8559c0-0.5646,0-2.6966,0-3.2632
			c0-0.2372-0.0215-0.4711-0.0624-0.7014c-0.6767,0.8427-4.1177,4.569-12.0867,4.569c-7.127,0-9.5833-3.2659-9.8377-3.7328
			c-0.1089-0.1998-0.1926-0.3393-0.0566-0.4528L37.9268,47.5651z M37.5961,40.1428c0-2.4902,4.4108-4.5089,9.8519-4.5089
			s9.8519,2.0187,9.8519,4.5089c0,2.4903-4.4108,4.509-9.8519,4.509S37.5961,42.6331,37.5961,40.1428z"/>
		<path d="M45.5378,41.684v0.6041H46.92v-0.4969c0.2714,0.0171,0.5958,0.0171,0.9033,0.0171h0.3414v0.4798h1.3484v-0.5505
			c2.4742-0.2677,3.653-1.1289,3.653-2.384c0-0.4884-0.0508-0.7006-0.2734-1.1996h-1.8276
			c0.1886,0.4628,0.2565,0.6941,0.2565,1.1203c0,0.5505-0.5278,0.996-1.8085,1.191v-1.5744h-1.3484v1.69
			c-0.1696,0.0085-0.3414,0.0173-0.5449,0.0173c-0.2396,0-0.4622-0.0087-0.6998-0.0173v-1.69h-1.3823v1.5659
			c-1.2466-0.1865-1.8954-0.587-1.8954-1.2275c0-0.3641,0.0678-0.5762,0.2205-1.0302h-1.9272
			c-0.1547,0.3812-0.2056,0.649-0.2056,1.0024C41.73,40.4652,43.0105,41.3627,45.5378,41.684z"/>
		<path d="M51.7972,7h-5.4775c-0.9114,0-1.7361,0.4142-2.2415,1.1259L9.632,54.3753C9.1671,55.03,9.7203,56,10.5588,56h5.4775
			c0.9113,0,1.736-0.4143,2.2415-1.1259L52.724,8.6247C53.189,7.9699,52.6357,7,51.7972,7z"/>
	</g>
</g>
</svg>
