<?xml version="1.0" encoding="utf-8"?>
<!-- Generator: Adobe Illustrator 25.2.0, SVG Export Plug-In . SVG Version: 6.00 Build 0)  -->
<svg version="1.1" xmlns="http://www.w3.org/2000/svg" xmlns:xlink="http://www.w3.org/1999/xlink" x="0px" y="0px"
	 viewBox="0 0 64 64" style="enable-background:new 0 0 64 64;" xml:space="preserve">
<style type="text/css">
	.st0{fill:none;}
	.st1{fill:#B3B3B3;}
</style>
<g id="Box">
	<rect class="st0" width="64" height="64"/>
</g>
<g id="Icon">
	<g>
		<path d="M36.044,12.442l-1.54-1.54l6.667-6.668c0.562-0.562,1.477-0.562,2.039,0l15.555,15.551
			c0.272,0.272,0.422,0.635,0.422,1.02s-0.15,0.747-0.422,1.019l-6.669,6.67l-1.538-1.538l-1.109,1.108l1.538,1.538l-5.519,5.52
			c1.552-0.075,3.117-0.108,4.526-0.118l10.974-10.977c1.777-1.777,1.777-4.669,0-6.447L45.414,2.029
			c-1.776-1.777-4.669-1.777-6.447,0L5.031,35.972c-1.777,1.777-1.777,4.669,0,6.447l15.555,15.551
			c0.888,0.889,2.055,1.333,3.223,1.333s2.335-0.445,3.225-1.333l7.971-7.972c0.01-1.409,0.042-2.975,0.117-4.527L24.829,55.766
			c-0.562,0.562-1.477,0.562-2.039,0L7.235,40.215c-0.272-0.272-0.422-0.635-0.422-1.02s0.15-0.747,0.422-1.019l26.16-26.165
			l1.54,1.54L36.044,12.442z"/>
		<rect x="37.015" y="13.906" transform="matrix(0.7071 -0.7071 0.7071 0.7071 0.2489 31.2117)" width="1.568" height="2.799"/>
		<rect x="40.314" y="17.205" transform="matrix(0.7071 -0.7071 0.7071 0.7071 -1.1177 34.5099)" width="1.568" height="2.799"/>
		<rect x="43.612" y="20.503" transform="matrix(0.7071 -0.7071 0.7071 0.7071 -2.4838 37.8092)" width="1.568" height="2.799"/>
		<rect x="46.911" y="23.802" transform="matrix(0.7071 -0.7071 0.7071 0.7071 -3.8501 41.1079)" width="1.568" height="2.799"/>
		<path d="M33.467,28.004c-2.03,0.127-5.019,2.97-5.019,2.97l-9.276-0.744c-0.28-0.028-0.547,0.12-0.673,0.371l-0.118,0.522
			c-0.136,0.33,0.007,0.709,0.328,0.866l6.556,2.504l-3.519,4.141l-2.222-0.307c-0.251-0.022-0.495,0.098-0.63,0.311l-0.135,0.212
			c-0.224,0.353-0.079,0.822,0.305,0.986l2.204,1.192l1.193,2.203c0.164,0.384,0.634,0.529,0.986,0.305l0.212-0.135
			c0.213-0.136,0.333-0.379,0.311-0.631l-0.308-2.222l4.141-3.519l2.505,6.555c0.157,0.32,0.536,0.464,0.866,0.327l0.522-0.118
			c0.251-0.126,0.399-0.393,0.371-0.673l-0.746-9.276c0,0,2.843-2.99,2.969-5.02C34.318,28.367,33.925,27.975,33.467,28.004z"/>
		<path d="M55.794,51.93c-0.847,0-1.025,0.976-1.025,1.795c0,1.633,0.508,1.853,1.005,1.853c0.706,0,1.063-0.552,1.063-1.641
			C56.838,52.138,56.242,51.93,55.794,51.93z"/>
		<path d="M46.225,46.307c-0.863,0-1.044,0.976-1.044,1.795c0,1.632,0.518,1.853,1.024,1.853c0.863,0,1.044-0.892,1.044-1.641
			C47.25,46.515,46.665,46.307,46.225,46.307z"/>
		<path d="M63.435,40.826c-0.195-1.173-1.087-2.065-2.261-2.261C57.783,38,52.13,38,51,38c-1.13,0-6.783,0-10.174,0.565
			c-1.173,0.196-2.065,1.088-2.26,2.261C38,44.217,38,49.87,38,51c0,1.13,0,6.783,0.565,10.174c0.195,1.173,1.087,2.065,2.26,2.261
			C44.217,64,49.87,64,51,64s6.783,0,10.174-0.565c1.174-0.196,2.066-1.088,2.261-2.261C64,57.783,64,52.13,64,51
			C64,47.607,64,44.217,63.435,40.826z M42.859,48.275c0-2.896,1.844-3.924,3.423-3.924c2.09,0,3.289,1.374,3.289,3.77
			c0,2.617-1.785,3.809-3.443,3.809C44.637,51.93,42.859,51.296,42.859,48.275z M49.293,58.002l-1.839-0.727l5.232-13.277
			l1.839,0.727L49.293,58.002z M55.698,57.553c-1.491,0-3.269-0.634-3.269-3.655c0-2.896,1.844-3.924,3.423-3.924
			c2.09,0,3.289,1.374,3.289,3.77C59.141,56.375,57.412,57.553,55.698,57.553z"/>
	</g>
</g>
</svg>
