<?xml version="1.0" encoding="utf-8"?>
<!-- Generator: Adobe Illustrator 21.0.2, SVG Export Plug-In . SVG Version: 6.00 Build 0)  -->
<svg version="1.2" baseProfile="tiny" xmlns="http://www.w3.org/2000/svg" xmlns:xlink="http://www.w3.org/1999/xlink" x="0px"
	 y="0px" width="64px" height="64px" viewBox="0 0 64 64" xml:space="preserve">
<g id="Box">
	<rect fill="none" width="64" height="64"/>
</g>
<g id="Icon">
	<g>
		<path d="M9.1,10L6.6,9.7C5.8,9.6,5.4,10.2,5.4,11s0.4,1.4,1.2,1.3l2.5-0.3c0.5-0.1,0.7-0.5,0.7-1C9.9,10.5,9.6,10,9.1,10z
			 M16.3,11c0,0.5,0.2,0.9,0.7,1l2.5,0.3c0.8,0.1,1.2-0.5,1.2-1.3s-0.4-1.4-1.2-1.3L17,10C16.5,10,16.3,10.5,16.3,11z M14.7,8.2
			L14.7,8.2c0.4,0.3,0.9,0.3,1.2-0.2l1.5-2c0.5-0.6,0.2-1.3-0.5-1.7c-0.7-0.4-1.4-0.3-1.7,0.4l-1,2.3C14,7.5,14.2,7.9,14.7,8.2z
			 M48.4,27.6c-7.4-7.4-19.5-7.4-26.9,0c-0.1,0.1-0.2,0.2-0.3,0.3c0,0,0,0,0,0c-0.1,0-0.2-0.2,0-0.4c0.3-0.6,0.9-1.6,1.4-2.2
			c1.5-1.7,3.3-3.1,5.3-4.1c-0.7-0.7-1.3-1.3-2-2c-1-1-2.9-1.3-4.2-0.4c-1.4,1-2.7,2-3.9,3.2L17,21.1c-1.9-1.9-3-4.5-3-7.3v-3
			c0-0.6-0.4-1-1-1s-1,0.4-1,1v3c0,3.3,1.3,6.4,3.6,8.7l0.8,0.8c-1.3,1.4-2.6,2.8-3.7,4.4c-0.8,1.2-0.6,3.1,0.4,4.2
			c1.2,1.2,2.4,2.4,3.6,3.6c-1.9,6.5-0.4,13.8,4.8,18.9c7.4,7.4,19.5,7.4,26.9,0C55.9,47,55.9,35,48.4,27.6z M11.9,7l-1-2.3
			c-0.3-0.7-1-0.8-1.7-0.4C8.5,4.7,8.3,5.3,8.7,6l1.5,2c0.3,0.4,0.8,0.4,1.2,0.2C11.9,7.9,12.1,7.5,11.9,7z"/>
	</g>
</g>
</svg>
