<?xml version="1.0" encoding="utf-8"?>
<!-- Generator: Adobe Illustrator 24.0.1, SVG Export Plug-In . SVG Version: 6.00 Build 0)  -->
<svg version="1.1" xmlns="http://www.w3.org/2000/svg" xmlns:xlink="http://www.w3.org/1999/xlink" x="0px" y="0px"
	 viewBox="0 0 64 64" style="enable-background:new 0 0 64 64;" xml:space="preserve">
<style type="text/css">
	.st0{fill:none;}
	.st1{fill:#FF1D25;}
	.st2{fill:#1D1D1B;}
</style>
<g id="Box">
	<rect class="st0" width="64" height="64"/>
</g>
<g id="Icon">
	<g>
		<path d="M49.5,9c0,0.5,0.2,0.9,0.7,1l2.5,0.3C53.6,10.3,54,9.7,54,9c0-0.8-0.4-1.4-1.2-1.3L50.3,8C49.8,8,49.5,8.5,49.5,9z"/>
		<path d="M47.9,6.2c0.4,0.3,0.9,0.3,1.2-0.2l1.5-2c0.5-0.6,0.2-1.3-0.5-1.7c-0.7-0.4-1.4-0.3-1.7,0.4l-1,2.3
			C47.2,5.5,47.5,5.9,47.9,6.2z"/>
		<path d="M39.8,10.2l2.5-0.3c0.5-0.1,0.7-0.5,0.7-1c0-0.5-0.2-0.9-0.7-1l-2.5-0.3C39,7.6,38.6,8.2,38.6,9
			C38.6,9.7,39,10.3,39.8,10.2z"/>
		<path d="M43.3,38c-0.1-1.5-0.3-3-0.8-4.5c1.2-1.2,2.4-2.4,3.6-3.6c1-1,1.3-2.9,0.4-4.2c-1.1-1.6-2.3-3-3.7-4.4l0.8-0.8
			c2.3-2.3,3.6-5.4,3.6-8.7v-3c0-0.6-0.4-1-1-1s-1,0.4-1,1v3c0,2.7-1.1,5.3-3,7.3L41.5,20c-1.2-1.1-2.5-2.2-3.9-3.2
			c-1.2-0.8-3.1-0.6-4.2,0.4c-0.7,0.7-1.3,1.3-2,2c1.9,1,3.7,2.3,5.3,4.1c0.5,0.6,1.1,1.6,1.4,2.2c0.1,0.3,0,0.4,0,0.4c0,0,0,0,0,0
			c-2.1-2.2-4.6-3.8-7.3-4.8c-6.7-2.4-14.5-0.9-19.8,4.5C3.5,33,3.5,45,10.9,52.4c2.8,2.8,6.4,4.6,10.1,5.3V42.5
			c0-2.5,2-4.5,4.5-4.5H43.3z"/>
		<path d="M43.5,6c0.3,0.4,0.8,0.4,1.2,0.2h0c0.4-0.3,0.7-0.7,0.5-1.1l-1-2.3c-0.3-0.7-1-0.8-1.7-0.4S41.5,3.3,42,4L43.5,6z"/>
		<path d="M54.5,41h-29c-0.8,0-1.5,0.7-1.5,1.5v19c0,0.8,0.7,1.5,1.5,1.5h29c0.8,0,1.5-0.7,1.5-1.5v-19C56,41.7,55.3,41,54.5,41z
			 M52.6,44L40,52.4L27.4,44H52.6z M53,60l-7.8-5.9c0,0-0.2,0.1,0,0.3c0.1,0.2,4.4,5.6,4.4,5.6H30.5c0,0,4.2-5.5,4.4-5.6
			c0.1-0.2,0-0.3,0-0.3L27,60V46.8L39.3,55c0.4,0.3,1,0.3,1.4,0L53,46.8V60z"/>
	</g>
</g>
</svg>
