<svg enable-background="new 0 0 64 64" viewBox="0 0 64 64" xmlns="http://www.w3.org/2000/svg"><path d="m0 0h64v64h-64z" fill="none"/><path d="m49.5 9c0 .5.2.9.7 1l2.5.3c.9 0 1.3-.6 1.3-1.3 0-.8-.4-1.4-1.2-1.3l-2.5.3c-.5 0-.8.5-.8 1z"/><path d="m47.9 6.2c.4.3.9.3 1.2-.2l1.5-2c.5-.6.2-1.3-.5-1.7s-1.4-.3-1.7.4l-1 2.3c-.2.5.1.9.5 1.2z"/><path d="m39.8 10.2 2.5-.3c.5-.1.7-.5.7-1s-.2-.9-.7-1l-2.5-.3c-.8 0-1.2.6-1.2 1.4 0 .7.4 1.3 1.2 1.2z"/><path d="m43.3 38c-.1-1.5-.3-3-.8-4.5l3.6-3.6c1-1 1.3-2.9.4-4.2-1.1-1.6-2.3-3-3.7-4.4l.8-.8c2.3-2.3 3.6-5.4 3.6-8.7v-3c0-.6-.4-1-1-1s-1 .4-1 1v3c0 2.7-1.1 5.3-3 7.3l-.7.9c-1.2-1.1-2.5-2.2-3.9-3.2-1.2-.8-3.1-.6-4.2.4-.7.7-1.3 1.3-2 2 1.9 1 3.7 2.3 5.3 4.1.5.6 1.1 1.6 1.4 2.2.1.3 0 .4 0 .4-2.1-2.2-4.6-3.8-7.3-4.8-6.7-2.4-14.5-.9-19.8 4.5-7.5 7.4-7.5 19.4-.1 26.8 2.8 2.8 6.4 4.6 10.1 5.3v-15.2c0-2.5 2-4.5 4.5-4.5z"/><path d="m43.5 6c.3.4.8.4 1.2.2.4-.3.7-.7.5-1.1l-1-2.3c-.3-.7-1-.8-1.7-.4s-1 .9-.5 1.6z"/><path d="m54.5 41h-29c-.8 0-1.5.7-1.5 1.5v19c0 .8.7 1.5 1.5 1.5h29c.8 0 1.5-.7 1.5-1.5v-19c0-.8-.7-1.5-1.5-1.5zm-1.9 3-12.6 8.4-12.6-8.4zm.4 16-7.8-5.9s-.2.1 0 .3c.1.2 4.4 5.6 4.4 5.6h-19.1s4.2-5.5 4.4-5.6c.1-.2 0-.3 0-.3l-7.9 5.9v-13.2l12.3 8.2c.4.3 1 .3 1.4 0l12.3-8.2z"/></svg>