<svg height="64" viewBox="0 0 64 64" width="64" xmlns="http://www.w3.org/2000/svg"><path d="m0 0h64v64h-64z" fill="none"/><path d="m.4928 19.0118 7.5608 7.824 2.0806-1.8705-7.9427-8.4547z"/><path d="m46.8575 26.8358 7.5608-7.824-1.6988-2.5012-7.9426 8.4547z"/><path d="m30.8539 50 .4205-2.1987c.2373-1.1924.8057-2.2539 1.6465-3.0952l9.0791-9.0787v-13.1585l1.2897 1.1594 8.2788-8.8126-6.2018-9.1315c-.5829-.8742-1.4407-1.5294-2.4376-1.8616l-6.9677-2.3226c-2.0035 3.3554-5.5914 6.9866-9.8808 6.3121-.3233-.0508-.3669-.2568-.279-.361 2.1647-.4424 4.6183-2.1072 6.4539-4.2833-1.3759.4478-3.0329.811-4.8.811-4.6205 0-8.5059-2.4788-8.5059-2.4788l-6.9677 2.3226c-.9969.3322-1.8546.9874-2.4375 1.8617l-6.2018 9.1315 8.2788 8.8125 1.3786-1.2393v27.611zm-6.8539-29.0743v-2.836c1.6389-.4837 3.2999-.8475 4.8322-.8475h1.1678v13.7578h-3v-10.3694c-1.2634 0-1.7637.0803-3 .2951z"/><path d="m63.2194 32.8013c-.992-.9919-5.4362-5.4362-6.4282-6.4281-1.0516-1.0516-2.5945.3283-1.9127 1.5555.7935 1.4285 1.2202 2.0931 1.2202 2.0931l-3.622 3.6219s.5939 1.1327 1.7027 3.2654c.1497.2879-.0417.3982-.08.4157 0 0-5.7004-5.6995-6.9102-6.9092-.813-.8121-2.4491.4388-1.7328 1.7061.7004 1.2392 1.6946 2.8796 1.6946 2.8796l-11.9672 11.9675c-.3917.3917-.6587.8906-.7673 1.4337l-1.256 6.5738-7.1605 7.4094h2.4125l6.1964-5.9521 6.5936-1.2422c.5459-.1077 1.0474-.3754 1.4409-.7688l11.9646-11.9646s1.6403.9943 2.8796 1.6948c1.2673.7163 2.5181-.9198 1.7061-1.7329-1.2141-1.2141-2.7076-2.7076-4.2745-4.2745l4.6516-4.6516s.6646.4266 2.0931 1.2202c1.2272.6818 2.607-.8611 1.5555-1.9127zm-13.2602 10.3041-1.984-1.9839-.9921 1.9839 1.488 1.488-1.488 1.488-1.984-1.984-.9919 1.984 1.4879 1.488-1.488 1.488-1.9841-1.984-.9919 1.9841 1.488 1.488-1.488 1.488-3.472-3.472 11.408-11.408 3.472 3.472z"/></svg>