<svg height="64" viewBox="0 0 64 64" width="64" xmlns="http://www.w3.org/2000/svg"><path d="m0 0h64v64h-64z" fill="none"/><path d="m14.1382 27.5387c-2.1369.7319-4.1382 2.2045-4.1382 3.9022 0 1.6978 2.0013 3.1703 4.1382 3.9023.4331.1484.9424-.1102.7119-.3672-.851-.9485-1.2935-2.1838-1.2935-3.5351s.4425-2.5865 1.2935-3.535c.2306-.257-.2787-.5156-.7119-.3672z"/><ellipse cx="20.5" cy="28.4308" rx="2.5" ry="1.4308"/><ellipse cx="20.5" cy="34.5692" rx="2.5" ry="1.4308"/><path d="m31.8223 43.0498c-1.7346-1.8874-3.1671-3.8481-4.3194-5.81-2.0511.5305-4.3984.8517-6.8981.8917-8.0864.1288-14.687-2.7192-14.7429-6.3618-.056-3.6426 6.454-6.7002 14.5404-6.8298 1.3732-.0219 2.6981.0483 3.9608.1874.1838-1.3681.5995-2.6249 1.2595-3.7284-1.6712-.2417-3.4393-.3634-5.2809-.3345-10.372.1625-18.4253 4.8279-18.3346 10.6219.0134.8553.063 7.3985.0764 8.2508.0908 5.8003 8.2866 10.2211 18.6583 10.0586 5.8079-.091 10.8862-1.5983 14.2172-3.9245-1.0766-.9162-2.1278-1.9237-3.1367-3.0214z"/><path d="m54.9577 21.8555c-7.0198-7.6368-15.9111-10.5006-20.2424-6.5192-.6395.5878-5.5659 5.0444-6.2031 5.6301-4.3359 3.9857-2.237 13.093 4.7828 20.7298s15.9185 10.4938 20.2545 6.5081c.6371-.5856 5.5636-5.0423 6.2031-5.6301 4.3313-3.9815 2.2249-13.082-4.7949-20.7187zm2.1795 17.8865c-2.6692 2.4536-9.2697-.3842-14.743-6.338-5.4728-5.9543-7.7458-12.77-5.0766-15.2236 2.6693-2.4536 9.2697.3842 14.7431 6.338 5.4727 5.9544 7.7457 12.7701 5.0765 15.2236z"/><path d="m46.9772 23.6191-2.4424-.3465-.0343-.0393.5398-1.8313-1.253-1.4342-.8388 2.9393-4.8881-.8658 1.3334 1.5262 3.2737.4054.036.0412-.7779 2.4515 1.438 1.646.9339-3.7774 3.8172.587z"/><path d="m47.8696 25.8747 1.5168 1.7362-3.9538 2.869 1.2373 1.4162 3.8114-3.032 1.5167 1.7362.6032-.5436-4.0388-4.6231z"/><path d="m50.7578 32.2136c-1.423 1.3069-.8304 3.518.9237 5.5258.639.7315.8682.9478 1.4931 1.4661l.6495-.8213c-.5615-.4982-.8494-.7842-1.3702-1.3803-.9204-1.0536-1.3461-2.5248-.4066-3.4724.9085-.9163 2.0849-.4883 3.0117.5726.4041.4625.6097.7096.9953 1.2582l.6091-.5875c-.3283-.4784-.5887-.8217-1.0001-1.2927-1.5475-1.7713-3.4641-2.5923-4.9055-1.2685z"/></svg>