<svg height="64" viewBox="0 0 64 64" width="64" xmlns="http://www.w3.org/2000/svg"><path d="m0 0h64v64h-64z" fill="none"/><path d="m11.6476 45.1404c-.0699.1313.0191.2855.1678.2906.7761.0268 2.9818.0003 6.0107-.8448l2.1201-3.7171c.5591-.9614 1.3691-1.7168 2.353-2.1997l16.4829-8.0801c-.1475-.7095-.3149-1.5356-.4502-2.2568-.209-1.1172.0669-2.2036.7769-3.0586.7241-.8721 1.8315-1.3926 2.9619-1.3926.8978 0 1.72.3423 2.3276.924 4.5453-6.5819 5.5093-12.0673 5.681-13.3824.019-.1458-.1155-.2587-.2559-.2147-4.151 1.304-10.0567 4.9828-15.155 11.1677.0283-9.213-2.7862-17.0746-5.8436-21.3339-.0795-.1108-.2371-.1108-.3165 0-3.0826 4.2944-5.8719 12.142-5.8436 21.3339-5.0699-6.1506-10.9832-9.8572-15.155-11.1677-.1403-.0441-.2749.0688-.2559.2147.6971 5.3387 4.2707 13.0117 10.7539 19.4429-4.6962-.9565-10.0775-.8698-14.0064.7155-.1379.0557-.1689.231-.0582.3305 2.9032 2.6115 8.3071 5.1156 14.7503 5.6848-4.5238 3.2313-6.5332 6.5808-7.0458 7.5438z"/><path d="m60.1659 35.5084c-.7324-1.4939-4.0135-8.1866-4.7458-9.6805-.7763-1.5836-3.0373-.6274-2.7432 1.0114.3421 1.9075.5657 2.8171.5657 2.8171l-5.4547 2.674s.2202 1.6131.5885 4.4335c.0358.2748-.1309.315-.1805.32 0 0-4.2087-8.5836-5.1019-10.4055-.6006-1.2233-2.9166-.4476-2.5992 1.2494.3102 1.6593.7963 3.8817.7963 3.8817l-18.0224 8.8353c-.5899.2892-1.0809.7465-1.4113 1.3142l-3.9326 6.8945-10.879 5.5658 2.7071.926 9.2377-4.3005 7.8757 1.137c.6539.0886 1.3194-.0192 1.9119-.3096l18.0181-8.8333s1.459 1.7453 2.5808 3.007c1.1471 1.2902 3.1787-.0656 2.5795-1.2897-.8964-1.8284-1.999-4.0775-3.1558-6.4372l7.0051-3.4341s.582.7338 1.8804 2.1726c1.1152 1.2362 3.2558.0345 2.4796-1.5491zm-18.8347 6.4727-1.4648-2.9879-1.8747 1.8455 1.0986 2.2409-2.2408 1.0986-1.4647-2.9879-1.8748 1.8455 1.0985 2.2409-2.2408 1.0985-1.4648-2.9879-1.8747 1.8456 1.0986 2.2408-2.2409 1.0986-2.5632-5.2287 17.18-8.4223 2.5633 5.2288z"/><path d="m34.9341 53.0014c-3.3572.0543-5.9637 1.6374-5.9339 3.6042.0044.2904.021 1.6876.0254 1.9769.0298 1.969 2.683 3.4703 6.0403 3.416s5.9637-1.6407 5.9338-3.6097c-.0044-.2894-.0209-1.6865-.0254-1.9769-.0297-1.9668-2.6829-3.4648-6.0402-3.4105z"/><path d="m49.9341 49.0014c-3.3572.0543-5.9637 1.6374-5.9339 3.6042.0044.2904.021 1.6876.0254 1.9769.0298 1.969 2.683 3.4703 6.0403 3.416s5.9637-1.6407 5.9338-3.6097c-.0044-.2894-.0209-1.6865-.0254-1.9769-.0297-1.9668-2.6829-3.4648-6.0402-3.4105z"/></svg>