<?xml version="1.0" encoding="utf-8"?>
<!-- Generator: Adobe Illustrator 18.1.0, SVG Export Plug-In . SVG Version: 6.00 Build 0)  -->
<svg version="1.2" baseProfile="tiny" xmlns="http://www.w3.org/2000/svg" xmlns:xlink="http://www.w3.org/1999/xlink" x="0px"
	 y="0px" width="64px" height="64px" viewBox="0 0 64 64" xml:space="preserve">
<g id="Box">
	<rect fill="none" width="64" height="64"/>
</g>
<g id="Icon">
	<g>
		<path d="M11.6476,45.1404c-0.0699,0.1313,0.0191,0.2855,0.1678,0.2906c0.7761,0.0268,2.9818,0.0003,6.0107-0.8448l2.1201-3.7171
			c0.5591-0.9614,1.3691-1.7168,2.353-2.1997l16.4829-8.0801c-0.1475-0.7095-0.3149-1.5356-0.4502-2.2568
			c-0.209-1.1172,0.0669-2.2036,0.7769-3.0586c0.7241-0.8721,1.8315-1.3926,2.9619-1.3926c0.8978,0,1.72,0.3423,2.3276,0.924
			c4.5453-6.5819,5.5093-12.0673,5.681-13.3824c0.019-0.1458-0.1155-0.2587-0.2559-0.2147
			c-4.151,1.304-10.0567,4.9828-15.155,11.1677c0.0283-9.213-2.7862-17.0746-5.8436-21.3339c-0.0795-0.1108-0.2371-0.1108-0.3165,0
			c-3.0826,4.2944-5.8719,12.142-5.8436,21.3339c-5.0699-6.1506-10.9832-9.8572-15.155-11.1677
			c-0.1403-0.0441-0.2749,0.0688-0.2559,0.2147c0.6971,5.3387,4.2707,13.0117,10.7539,19.4429
			c-4.6962-0.9565-10.0775-0.8698-14.0064,0.7155c-0.1379,0.0557-0.1689,0.231-0.0582,0.3305
			c2.9032,2.6115,8.3071,5.1156,14.7503,5.6848C14.1696,40.8279,12.1602,44.1774,11.6476,45.1404z"/>
		<path d="M60.1659,35.5084c-0.7324-1.4939-4.0135-8.1866-4.7458-9.6805c-0.7763-1.5836-3.0373-0.6274-2.7432,1.0114
			c0.3421,1.9075,0.5657,2.8171,0.5657,2.8171l-5.4547,2.674c0,0,0.2202,1.6131,0.5885,4.4335
			c0.0358,0.2748-0.1309,0.315-0.1805,0.32c0,0-4.2087-8.5836-5.1019-10.4055c-0.6006-1.2233-2.9166-0.4476-2.5992,1.2494
			c0.3102,1.6593,0.7963,3.8817,0.7963,3.8817l-18.0224,8.8353c-0.5899,0.2892-1.0809,0.7465-1.4113,1.3142l-3.9326,6.8945
			l-10.879,5.5658l2.7071,0.926l9.2377-4.3005l7.8757,1.137c0.6539,0.0886,1.3194-0.0192,1.9119-0.3096l18.0181-8.8333
			c0,0,1.459,1.7453,2.5808,3.007c1.1471,1.2902,3.1787-0.0656,2.5795-1.2897c-0.8964-1.8284-1.999-4.0775-3.1558-6.4372
			l7.0051-3.4341c0,0,0.582,0.7338,1.8804,2.1726C58.8015,38.2937,60.9421,37.092,60.1659,35.5084z M41.3312,41.9811l-1.4648-2.9879
			l-1.8747,1.8455l1.0986,2.2409l-2.2408,1.0986l-1.4647-2.9879L33.51,43.0358l1.0985,2.2409l-2.2408,1.0985l-1.4648-2.9879
			l-1.8747,1.8456l1.0986,2.2408l-2.2409,1.0986l-2.5632-5.2287l17.18-8.4223l2.5633,5.2288L41.3312,41.9811z"/>
		<path d="M34.9341,53.0014c-3.3572,0.0543-5.9637,1.6374-5.9339,3.6042c0.0044,0.2904,0.021,1.6876,0.0254,1.9769
			c0.0298,1.969,2.683,3.4703,6.0403,3.416c3.3573-0.0543,5.9637-1.6407,5.9338-3.6097c-0.0044-0.2894-0.0209-1.6865-0.0254-1.9769
			C40.9446,54.4451,38.2914,52.9471,34.9341,53.0014z"/>
		<path d="M49.9341,49.0014c-3.3572,0.0543-5.9637,1.6374-5.9339,3.6042c0.0044,0.2904,0.021,1.6876,0.0254,1.9769
			c0.0298,1.969,2.683,3.4703,6.0403,3.416c3.3573-0.0543,5.9637-1.6407,5.9338-3.6097c-0.0044-0.2894-0.0209-1.6865-0.0254-1.9769
			C55.9446,50.4451,53.2914,48.9471,49.9341,49.0014z"/>
	</g>
</g>
</svg>
