<svg height="64" viewBox="0 0 64 64" width="64" xmlns="http://www.w3.org/2000/svg"><path d="m0 0h64v64h-64z" fill="none"/><path d="m14 25.9568h2.0044c.0239-2.1853 1.8048-3.9568 3.9956-3.9568h6c2.1908 0 3.9717 1.7715 3.9956 3.9568h2.0044c.0666 0 .1289.0154.1944.0197.9913-7.9662 2.8056-20.9765 2.8056-20.9765h-25.5605c.2747 7.7504 2.8126 14.6508 4.1331 21 .1408-.0203.281-.0432.4274-.0432zm11.5562-6.2307c-.7507-.4508-1.6187-.7261-2.5562-.7261s-1.8055.2753-2.5562.7261l-1.4545-1.4545c1.1372-.7986 2.5186-1.2716 4.0107-1.2716s2.8735.473 4.0107 1.2717zm-2.5562-6.7261c2.5959 0 4.9805.9089 6.8639 2.4185l-1.4267 1.4267c-1.5126-1.1524-3.3933-1.8452-5.4372-1.8452s-3.9246.6928-5.4372 1.8452l-1.4267-1.4267c1.8834-1.5096 4.268-2.4185 6.8639-2.4185z"/><path d="m56.1033 50.8054c-2.8055-.3506-4.4187-.4208-6.9437-.8416-2.5249-.4208-11.1519-6.4527-13.3261-7.7151-1.4227-.826-2.9647-3.307-3.7465-6.2574-.0296.0008-.0572.0087-.087.0087h-2c0 2.2056-1.7944 4-4 4h-6c-2.2056 0-4-1.7944-4-4h-1.7451c-.2939 4.9135-1.2314 9.4767-2.8354 14.1741-1.9639 5.7513 1.8937 9.0179 5.3304 9.6491 3.4368.6313 12.4205-1.8534 16.0676-1.9236 3.6472-.0701 7.0839 1.8236 11.0116 2.034s8.0411-2.4005 8.0411-2.4005c1.3079 1.1869 5.9421 2.5919 7.319-.2751 1.6867-3.5116-.2804-6.1019-3.0859-6.4526z"/><path d="m20 38h6c1.1046 0 2-.8954 2-2v-2h4c.5523 0 1-.4478 1-1v-4c0-.5523-.4477-1-1-1h-2.8801c-.3203 1.6425-.6986 4.1666-.7558 4.3448-.1018.3172-.3079.2709-.3641.25v-6.5948c0-1.1046-.8954-2-2-2h-6c-1.1046 0-2 .8954-2 2v2h-4c-.5523 0-1 .4477-1 1v4c0 .5522.4477 1 1 1h4v2c0 1.1046.8954 2 2 2zm1.5-12c.8284 0 1.5.6716 1.5 1.5s-.6716 1.5-1.5 1.5-1.5-.6716-1.5-1.5.6716-1.5 1.5-1.5z"/></svg>