<svg enable-background="new 0 0 64 64" viewBox="0 0 64 64" xmlns="http://www.w3.org/2000/svg"><path d="m0 0h64v64h-64z" fill="none"/><path d="m18.7 9.8c2.4 0 3.8-1.5 3.8-4.1 0-2.5-1.3-4.2-3.8-4.2-2.4 0-3.8 1.5-3.8 4.2 0 2.4 1.4 4.1 3.8 4.1z"/><path d="m24.5 12c-3.4-.7-5.5-.6-5.8-.6-1.8 0-5.4.1-8 2.8-2.4 2.4-3.6 6-4.2 8.6-1 3.8 1 4.2 1.5 4.4s2.4-9.3 5.3-10.5l.3 9.8-3.7 21.6s4.3.9 5.1-3 3.1-14.5 3.2-14.8c.1-.4.4-.5.6-.5s.5.1.6.5c.1.3 2.4 10.8 3.2 14.8.8 3.9 5.1 3 5.1 3l-3.7-21.4.4-10.6c1.3.2 2.6.4 3.8.8 0-1 0-2.1 0-3.1 0-.3.1-.5.1-.8-1.5-.4-2.7-.8-3.8-1z"/><path d="m37 16.6s-1.4-.7-3.5-1.5c0 1.4.1 2.6.1 3.4 1.4.3 2.9-.5 3.4-1.9z"/><path d="m43.5 20c2.7 0 4.2-1.9 4.2-4.6 0-3.1-1.6-4.7-4.2-4.7-2.7 0-4.2 2-4.2 4.7 0 2.9 1.5 4.6 4.2 4.6z"/><path d="m54.7 10.4c0 .1-.2 9-.2 9.5-.7.2-5.7 1.9-11 1.9-5.2 0-10.3-1.6-11-1.9 0-.4-.2-9.3-.2-9.5-1.1 0-3 .7-3.2 3.3 0 2.2.1 4.5.1 6.7 0 1.5 1 2.7 2.2 3.2.9.4 3.7 1.4 6.6 2v37.6c.2 0 4.1-.1 4.4-4.3 0 0 .6-16.3.6-16.5s.1-.4.4-.4.4.2.4.4.6 16.4.6 16.4c.2 4.3 4.2 4.4 4.4 4.4v-37.5c2.9-.6 5.8-1.6 6.7-2 1.3-.5 2.2-1.7 2.2-3.2 0-2.2.1-4.5.1-6.7 0-2.6-1.9-3.4-3.1-3.4z"/></svg>