<?xml version="1.0" encoding="utf-8"?>
<!-- Generator: Adobe Illustrator 24.0.1, SVG Export Plug-In . SVG Version: 6.00 Build 0)  -->
<svg version="1.1" xmlns="http://www.w3.org/2000/svg" xmlns:xlink="http://www.w3.org/1999/xlink" x="0px" y="0px"
	 viewBox="0 0 64 64" style="enable-background:new 0 0 64 64;" xml:space="preserve">
<style type="text/css">
	.st0{fill:none;}
	.st1{fill:#FF1D25;}
	.st2{fill:#1D1D1B;}
</style>
<g id="Box">
	<rect class="st0" width="64" height="64"/>
</g>
<g id="Icon">
	<g>
		<path d="M18.7,9.8c2.4,0,3.8-1.5,3.8-4.1c0-2.5-1.3-4.2-3.8-4.2c-2.4,0-3.8,1.5-3.8,4.2C14.9,8.1,16.3,9.8,18.7,9.8z"/>
		<path d="M24.5,12c-3.4-0.7-5.5-0.6-5.8-0.6c-1.8,0-5.4,0.1-8,2.8c-2.4,2.4-3.6,6-4.2,8.6c-1,3.8,1,4.2,1.5,4.4l0,0
			c0,0,2.4-9.3,5.3-10.5l0.3,9.8L9.9,48.1c0,0,4.3,0.9,5.1-3c0.8-3.9,3.1-14.5,3.2-14.8c0.1-0.4,0.4-0.5,0.6-0.5
			c0.2,0,0.5,0.1,0.6,0.5c0.1,0.3,2.4,10.8,3.2,14.8c0.8,3.9,5.1,3,5.1,3l-3.7-21.4l0.4-10.6c1.3,0.2,2.6,0.4,3.8,0.8
			c0-1,0-2.1,0-3.1c0-0.3,0.1-0.5,0.1-0.8C26.8,12.6,25.6,12.2,24.5,12z"/>
		<path d="M37,16.6c0,0-1.4-0.7-3.5-1.5c0,1.4,0.1,2.6,0.1,3.4C35,18.8,36.5,18,37,16.6z"/>
		<path d="M43.5,20c2.7,0,4.2-1.9,4.2-4.6c0-3.1-1.6-4.7-4.2-4.7c-2.7,0-4.2,2-4.2,4.7C39.3,18.3,40.8,20,43.5,20z"/>
		<path d="M54.7,10.4c0,0.1-0.2,9-0.2,9.5c-0.7,0.2-5.7,1.9-11,1.9c-5.2,0-10.3-1.6-11-1.9c0-0.4-0.2-9.3-0.2-9.5
			c-1.1,0-3,0.7-3.2,3.3c0,2.2,0.1,4.5,0.1,6.7c0,1.5,1,2.7,2.2,3.2c0.9,0.4,3.7,1.4,6.6,2v37.6c0.2,0,4.1-0.1,4.4-4.3
			c0,0,0.6-16.3,0.6-16.5c0-0.2,0.1-0.4,0.4-0.4s0.4,0.2,0.4,0.4c0,0.2,0.6,16.4,0.6,16.4c0.2,4.3,4.2,4.4,4.4,4.4V25.7
			c2.9-0.6,5.8-1.6,6.7-2c1.3-0.5,2.2-1.7,2.2-3.2c0-2.2,0.1-4.5,0.1-6.7C57.8,11.2,55.9,10.4,54.7,10.4z"/>
	</g>
</g>
</svg>
