<svg enable-background="new 0 0 64 64" viewBox="0 0 64 64" xmlns="http://www.w3.org/2000/svg"><path d="m0 0h64v64h-64z" fill="none"/><path d="m59.873 7.468c.064-.906-.237-1.833-.93-2.526-1.648-1.648-4.448-1.072-5.314 1.088-.155-.016-.236-.176-.153-.492.248-.942.911-1.708 1.671-2.313-5.325-3.054-11.995-2.53-16.253 1.728-1.685 1.685-3.712 4.255-3.712 10.773 0 1.591-.632 3.117-1.758 4.243l-6.021 6.021c-.391.391-.391 1.024 0 1.414l1.414 1.414 2.121-2.121c.755-.756 2.073-.756 2.828 0l3.535 3.536c.78.78.78 2.048 0 2.828l-2.121 2.121 1.414 1.414c.391.391 1.024.391 1.414 0l6.021-6.021c1.125-1.125 2.651-1.757 4.243-1.757 3.694 0 7.299-.239 10.773-3.713 2.529-2.529 3.833-5.964 3.672-9.674-.123-2.863-1.126-5.618-2.844-7.963zm-20.448 17.814c-.586.586-1.535.586-2.121 0-.312-.312-.445-.725-.425-1.132l-.989-.989c-.391-.391-.391-1.024 0-1.414.39-.391 1.024-.391 1.414 0l.989.989c.408-.02.821.114 1.132.425.585.586.585 1.536 0 2.121zm16.44-3.358c-1.626 1.626-3.865 2.456-6.296 2.358-2.508-.109-4.917-1.198-6.785-3.065-3.802-3.802-4.119-9.67-.707-13.082 1.585-1.584 3.7-2.365 5.891-2.365 1.853 0 3.758.563 5.446 1.663.1 1.678 1.406 2.966 3.082 3.043 1.042 1.551 1.647 3.324 1.727 5.152.106 2.433-.732 4.669-2.358 6.296z"/><path d="m32.354 35.182 3.536-3.535-3.536-3.536-3.535 3.535-2.828-2.828c-.391-.391-1.024-.391-1.414 0l-4.607 4.607c-1.125 1.125-2.651 1.757-4.243 1.757-6.553 0-9.047 1.986-10.773 3.713-2.529 2.529-3.833 5.964-3.672 9.674.125 2.864 1.127 5.618 2.845 7.964-.141 2.006 1.496 3.62 3.501 3.451 2.549 1.811 5.504 2.74 8.405 2.739 3.346 0 6.613-1.217 9.073-3.676 1.685-1.685 3.712-4.255 3.712-10.773 0-1.591.632-3.117 1.757-4.243l4.607-4.607c.39-.391.39-1.024 0-1.414zm-10.43 20.683c-2.925 2.924-7.652 3.1-11.338.698-.046-.765-.349-1.517-.933-2.101-1.321-1.321-3.588-1.317-4.856.318l-.015.003c-.157-.034-.218-.207-.085-.513.395-.913 1.191-1.58 2.053-2.066-.577-1.206-.916-2.503-.974-3.83-.106-2.434.731-4.67 2.358-6.297 1.535-1.535 3.612-2.367 5.887-2.367.136 0 .272.003.409.009 2.508.109 4.917 1.198 6.785 3.065 3.803 3.801 4.12 9.67.709 13.081zm6.187-13.612c-.39.391-1.024.391-1.414 0l-.989-.989c-.408.02-.821-.114-1.132-.425-.586-.586-.586-1.536 0-2.121.586-.586 1.535-.586 2.121 0 .312.312.445.725.425 1.132l.989.989c.39.39.39 1.023 0 1.414z"/></svg>