<?xml version="1.0" encoding="utf-8"?>
<!-- Generator: Adobe Illustrator 18.1.0, SVG Export Plug-In . SVG Version: 6.00 Build 0)  -->
<svg version="1.2" baseProfile="tiny" xmlns="http://www.w3.org/2000/svg" xmlns:xlink="http://www.w3.org/1999/xlink" x="0px"
	 y="0px" width="64px" height="64px" viewBox="0 0 64 64" xml:space="preserve">
<g id="Box">
	<rect fill="none" width="64" height="64"/>
</g>
<g id="Icon">
	<g>
		<path d="M48,52.4095c-3.75,0.875-4.5,1.5-8,0s-4.875-1.75-8-1C29.3705,52.0406,27.75,54.75,25,53s-4.9868-1.6797-8-0.5905
			c-2.5555,0.9238-3.7778,1.9238-6,1C8.5461,52.3894,6,57,6,57h50C56,57,51.75,51.5345,48,52.4095z"/>
		<path d="M42.16,43.325c-2.42,1.645-4.726-0.3467-7.04-0.94c-2.0412-0.5233-3.2363-0.5256-4.975,0.0829L22.2952,47H58
			c-3.25-4.25-2.8682-0.9464-9.68-3.675C45.68,42.2675,44.58,41.68,42.16,43.325z"/>
		<path d="M14.5814,44.2943l2.5981-1.5l2,3.4641l34.641-20l-2-3.4641l2.5981-1.5l-9-15.5885l-2.5981,1.5l-2-3.4641l-34.641,20
			l2,3.4641l-2.5981,1.5L14.5814,44.2943z M12.7776,29.1699c0.4783-0.2761,1.0898-0.1122,1.366,0.366l1.5,2.5981l4.3301-2.5
			l-1-1.7321c-0.2761-0.4783-0.1122-1.0899,0.366-1.366c0.4783-0.2761,1.0899-0.1122,1.366,0.366l1,1.7321l4.4526-2.5707
			c-0.4747-1.7145,0.2294-3.5965,1.8416-4.5273s3.5941-0.5996,4.8416,0.6688l4.4526-2.5707l-1-1.7321
			c-0.2762-0.4783-0.1123-1.0899,0.366-1.366c0.4783-0.2761,1.0898-0.1122,1.366,0.366l1,1.7321l4.3301-2.5l-1.5-2.5981
			c-0.2761-0.4783-0.1122-1.0898,0.366-1.366c0.4783-0.2761,1.0899-0.1122,1.366,0.366l4,6.9282
			c0.2762,0.4783,0.1123,1.0898-0.366,1.366c-0.4783,0.2761-1.0898,0.1122-1.366-0.366l-1.5-2.5981l-4.3301,2.5l1,1.7321
			c0.2761,0.4783,0.1122,1.0899-0.366,1.366c-0.4783,0.2761-1.0899,0.1122-1.366-0.366l-1-1.7321l-4.4526,2.5707
			c0.4747,1.7145-0.2294,3.5965-1.8416,4.5273s-3.5941,0.5996-4.8416-0.6688l-4.4526,2.5707l1,1.7321
			c0.2762,0.4783,0.1123,1.0899-0.366,1.366c-0.4783,0.2761-1.0898,0.1122-1.366-0.366l-1-1.7321l-4.3301,2.5l1.5,2.5981
			c0.2761,0.4783,0.1122,1.0898-0.366,1.366c-0.4783,0.2761-1.0899,0.1122-1.366-0.366l-4-6.9282
			C12.1354,30.0576,12.2993,29.446,12.7776,29.1699z"/>
	</g>
</g>
</svg>
