<?xml version="1.0" encoding="utf-8"?>
<!-- Generator: Adobe Illustrator 21.0.2, SVG Export Plug-In . SVG Version: 6.00 Build 0)  -->
<!DOCTYPE svg PUBLIC "-//W3C//DTD SVG 1.1//EN" "http://www.w3.org/Graphics/SVG/1.1/DTD/svg11.dtd">
<svg version="1.1" xmlns="http://www.w3.org/2000/svg" xmlns:xlink="http://www.w3.org/1999/xlink" x="0px" y="0px" width="64px"
	 height="64px" viewBox="0 0 64 64" enable-background="new 0 0 64 64" xml:space="preserve">
<g id="Box">
	<rect fill="none" width="64" height="64"/>
</g>
<g id="Icon">
	<g>
		<g>
			<path d="M62.4435,43.0713h-1.4526v-0.5531c0-0.2648-0.2312-0.4794-0.5163-0.4794h-0.5163v-0.5164
				c0-0.2852-0.2312-0.5164-0.5163-0.5164h-2.1166c-0.1726,0-0.3338,0.0863-0.4296,0.23l-0.5351,0.8027H35.5966
				c-1.6545,0-2.0652,1.5488-2.0652,1.5488s-0.8688,3.557-0.985,4.0504c-0.0943,0.4-0.0159,0.6361,0.1437,0.816
				c0.5335,0.6018,1.3137,0.2356,1.9474,1.1674c0.8646,1.2711,0.0579,3.8071-1.4131,6.8378
				c-0.9705,1.9995-1.1876,3.5441-1.2232,4.6287c-0.0344,1.0493,0.7538,1.9087,1.8038,1.9087h4.9205
				c1.0626,0,1.9857-0.7302,2.2303-1.7642l1.3475-5.4666c0.8931,0.1521,1.7343,0.2327,2.5155,0.2327
				c2.1584,0,3.7943-0.5801,5.0613-1.7354c2.0121-1.8347,2.1394-4.5354,2.1221-5.5127h8.4726c0.2851,0,0.5163-0.2146,0.5163-0.4795
				V47l1.4526-0.0083c0.2851,0,0.5163-0.2312,0.5163-0.5164v-2.8877C62.9598,43.3025,62.7286,43.0713,62.4435,43.0713z
				 M48.5673,52.897c-1.169,1.144-3.1608,1.4319-5.787,1.0012c0,0,0.4796-3.1135,1.6071-3.8534
				c0.3265,2.249,2.4427,2.3698,2.4427,2.3698c0.2805,0,0-0.355,0-0.355c-0.7071-1.1261-0.3491-2.5708-0.1891-3.0753
				c0.7492-0.2748,3.4255-0.1837,3.4255-0.1837C50.0672,49.4346,49.9108,51.5823,48.5673,52.897z M32.9873,50.811
				c-0.0098-0.0024-0.02-0.0049-0.0298-0.0078c-0.3984-0.1113-1.1401-0.3193-1.7637-1.022
				c-0.4355-0.4912-0.8911-1.3408-0.5942-2.6016c0.1167-0.4956,0.9888-4.0669,0.9888-4.0669
				c0.3975-1.5005,1.814-3.1143,4.0083-3.1143h9.7055c-1.6934-1.526-4.9646-2.8779-7.7145-3.8557c0,0-0.1534-0.7468-0.6277-1.2491
				c-1.0798-1.1433-2.9742-1.0725-3.2574-3.1725c-0.0012-0.0085-0.0023-0.0171-0.0034-0.0256
				c-0.0851-0.6306,0.1052-1.2493,0.4969-1.7622c3.1868-4.174,4.2893-6.8093,5.022-10.9305
				c0.8764-4.9299-0.0773-10.8632-2.3887-13.7194c-2.4752-3.0581-6.4289-4.1831-11.3291-4.1831
				c-4.9003,0-8.8541,1.125-11.3291,4.1833c-2.3115,2.8562-3.2651,8.7893-2.3887,13.7192c0.7326,4.1211,1.8351,6.7566,5.022,10.9305
				c0.3917,0.5129,0.5819,1.1316,0.4968,1.7622c-0.0012,0.0085-0.0023,0.017-0.0034,0.0255
				c-0.2832,2.1001-2.1776,2.0293-3.2574,3.1726c-0.4743,0.5022-0.6277,1.2493-0.6277,1.2493
				c-0.1906,0.0677,3.7687,3.873,12.0254,4.3666c0.0613,0.1527-0.0715,0.3029-0.327,0.3695
				c-4.5627,1.1904-9.6329-0.5181-14.1389-3.8167c-2.2153,0.929-4.5792,2.1567-5.6727,3.3459C2.4834,43.4697,1,55,1,55h30.6969
				C32.9987,52.1892,33.0334,51.1198,32.9873,50.811z M18.4444,20.4521c-1.1969-0.8416-2.5781-2.9951-1.2599-4.261
				c1.2599-1.21,5.9216,0.1578,6.1105,2.4724C23.4791,20.9175,20.494,21.8936,18.4444,20.4521z M25.5,30.3887
				c-1.7266,0-3.1263-1.0585-3.1263-2.3643c0-1.3057,1.3997-2.3643,3.1263-2.3643s3.1263,1.0586,3.1263,2.3643
				C28.6263,29.3302,27.2266,30.3887,25.5,30.3887z M27.705,18.6636c0.189-2.3146,4.8506-3.6824,6.1105-2.4724
				c1.3182,1.2659-0.063,3.4194-1.2599,4.261C30.506,21.8936,27.5209,20.9175,27.705,18.6636z"/>
		</g>
	</g>
</g>
</svg>
