<svg enable-background="new 0 0 64 64" viewBox="0 0 64 64" xmlns="http://www.w3.org/2000/svg"><path d="m0 0h64v64h-64z" fill="none"/><path d="m55 52c0-1.1-.9-2-2-2h-11c-1.1 0-2 .9-2 2v.5c4.6.5 9.7 1.2 15 2.2z"/><path d="m17.6 53c-3.2 0-4.8 2-4.8 4.5s1.8 4.5 4.8 4.5h18.7s.5-3.7-4.6-4.2c-3.7-.4-10.9-.6-13.3-.8-.1-.2.1-.4.5-.5.5-.1 9.2-1.1 13.7-.6s5.9 3.8 5.8 6.1h18.6c3.9-.1 5.2-2.2 5.7-3.6-22.8-4.9-44-5.4-45.1-5.4z"/><path d="m6.5 53c-3.3 0-5.1 1.8-5 4.5 0 2.9 2.1 4.5 5.1 4.5 3.1 0 4.9-1.7 4.9-4.5 0-2.9-2.1-4.5-5-4.5z"/><path d="m29 2h-21v19h21zm-15 16h-3v-13h3zm6 0h-3v-13h3zm6 0h-3v-13h3z"/></svg>