<svg enable-background="new 0 0 64 64" height="64" viewBox="0 0 64 64" width="64" xmlns="http://www.w3.org/2000/svg"><path d="m0 0h64v64h-64z" fill="none"/><path d="m56.9876 38.239c-.6799-1.2155-1.0388-1.8418-1.6872-2.5613.5043-.7186.6716-1.2197.6716-1.2197-2.7103-3.681-5.4795-5.4333-6.5598-6.0242.0592-2.0536-.0345-4.543-.2021-6.6978.7059 1.1174 1.5171 2.2686 2.4109 3.1721.6687.629 3.5623 2.4524 4.3331 2.9 1.7925 1.0406 3.1044-.1337 3.4154-.4445-1.8384-1.6985-5.615-4.5818-5.615-4.5818-2.9534-3.2144-3.0816-6.4482-5.4156-7.7197-1.1688-.6367-5.4258-1.3743-7.147.3738-1.0668 1.0835-3.355 4.7083-4.2164 6.8857-.2396.6434-.342.9062-.3704 1.9326-.036 1.7871.41 4.8553.5863 5.7122.2684 1.304 1.2555 2.502 2.787 2.4921-.05-.7733-.3261-2.5706-.3693-5.2452-.0127-.9028-.0039-1.8843.1066-2.733.1198-.9093.8066-1.9681 1.6053-3.0255.3674 2.217.8168 4.6377.499 6.6855-.2369 1.5264-.6403 2.7308.0829 4.6411.2145.5667.7386 3.0999-1.2355 6.9805.1212.0405 2.6983.7885 5.7761.5344.0944.1691-.0366.4125-.3097.5225-.2326.0938-1.4289.4429-2.8497.4585-.402 1.2632-1.1219 3.6321-2.5615 8.0529-.8704 2.6725 1.2803 4.2916 1.7536 4.6168 1.856-4.2601 2.9936-7.0858 4.0671-9.7073.7372-1.7903.8879-2.3698 1.3463-4.109.0029-.0114.0053-.0221.0081-.0333.6107-.116 1.2277-.2732 1.8392-.4944.712-.2574 1.3393-.543 1.9036-.8416.632.4182.7751.6765 1.5464 1.7972 1.4785 2.1481 3.3534 5.1735 4.7153 7.4042 1.219 1.9966 3.0168 2.5542 4.8712 1.9927l.0198-.0105c-1.6478-3.4594-3.9788-8.3415-5.8056-11.706zm-12.7878-25.333c2.3005-.3411 3.3928-2.1492 3.0488-4.4691-.3917-2.6422-1.9932-3.8528-4.2338-3.5208-2.3602.35-3.3832 2.2139-3.0294 4.5981.3726 2.5129 1.9143 3.7329 4.2144 3.3918zm-31.0834 5.7163c1.9878-1.2905 2.3434-3.2625.9335-5.4343-1.3376-2.0608-3.3763-2.7953-5.4162-1.4712-1.9363 1.2573-2.3439 3.2626-.8613 5.5459 1.3014 2.0051 3.3557 2.6504 5.344 1.3596zm25.8152 14.6897-6.2396-2.0039-1.317-6.0049c1.2878.9716 3.1301 2.4163 4.6594 3.825-.0958-.6318-.2009-1.4349-.284-2.2538-1.1594-.9889-2.3441-1.9152-3.2838-2.6276.3789-1.1868-.0537-2.5166-1.0014-3.4561l.0043-.0026c-1.3901-1.3307-3.6746-3.531-5.4802-4.0192-1.6687-.4912-6.7776.6198-9.7284 2.0979-3.4967 1.7515-4.2214 3.402-5.2086 4.9822-1.6143 2.5844-2.2598 3.4821-2.7952 4.0297-.4866.0685-5.6704-1.1307-7.5042-1.4784-.0631 2.2072.8846 2.6965 2.9033 3.6094 1.5425.6976 4.6084 1.1643 5.719 1.0447 1.218-.1313 3.0973-2.4154 4.5618-4.7913 1.4177 2.0884 3.571 4.3772 4.8066 7.0825-4.6218 1.1199-6.4587 2.3567-6.9419 3.1265-.5172.8237-.6224 2.3501-.4941 3.4321.2362 1.8196.571 3.4907.8962 5.0769.6243 3.0453 1.1053 4.9841 1.8287 8.0264 2.2736-1.0283 3.1176-3.2239 2.9692-4.4177-.2766-2.2244-.9359-7.0385-1.0908-8.917.9074-.1281 3.1022-.3789 4.7952-.6296 1.0401 1.7542 2.9335 4.8126 4.1067 6.5907.5337.8087.9725 1.3104 1.6624 1.8746 2.053 1.6797 8.0153 4.8335 10.4094 6.02 0 0 .6902-3.5182-1.6931-5.2048-.8494-.6011-4.2014-3.198-6.3288-4.6897-.7801-1.3159-2.2953-4.5864-2.9498-6.0466-1.3203.2262-2.451.4115-2.6105.4104-.2878-.0022-.2865-.1394-.2865-.1394 2.2961-1.3942 4.5687-2.7888 3.8448-6.1094-.3635-1.6674-3.7614-7.1917-5.9413-10.2815 1.718-.6777 4.1385-1.1469 4.5726-1.2374.7584.012 2.3229 1.1793 3.7535 2.3649l1.9659 8.9631-1.5145 4.7c-.1744.543.1244 1.1245.6674 1.2988l7.2864 2.3402c.543.1744 1.1245-.1244 1.2989-.6674l1.3763-4.2854.0051.0046c.1552-.6208.274-.7908.2652-1.4697-.467.0406-1.0081.0307-1.6646-.1672z"/></svg>