<svg viewBox="0 0 64 64" xmlns="http://www.w3.org/2000/svg"><path d="m0 0h64v64h-64z" fill="none"/><path d="m58.33 56.21-20.41-20.41-2.57-2.57-4.1-4.1-11.2-11.21-12.32-12.31-2.12 2.12 10.19 10.19h-3.35a3.54 3.54 0 0 0 -3.4 2.54l-1.7 7a1.72 1.72 0 0 0 1.4 1.67c4.26.91 3 6.39-.2 12.9a18.44 18.44 0 0 0 -2 7.62 3 3 0 0 0 3 3.14h8.1a3.79 3.79 0 0 0 3.68-2.9l2.21-9.38a25 25 0 0 0 4.15.39 12.23 12.23 0 0 0 8.31-2.78l20.21 20.21zm-34-19s.79-4.93 2.65-6.15a4.41 4.41 0 0 0 4 3.9c.46 0 0-.58 0-.58a4.65 4.65 0 0 1 -.64-1.91l3.27 3.27c-1.98 1.68-5.16 2.11-9.33 1.43z"/><path d="m36.28 29a11.09 11.09 0 0 1 -.28 2.09l2.78 2.78a13.86 13.86 0 0 0 .79-4.9h14.53a.82.82 0 0 0 .85-.78v-6c.06 0 .29-.05.4.29l.82 4h.48a.85.85 0 0 0 .85-.84v-5.17a.86.86 0 0 0 -.85-.85h-1.65v-.91a.83.83 0 0 0 -.85-.79h-.85v-.84a.86.86 0 0 0 -.85-.86h-3.53a.87.87 0 0 0 -.71.38l-.88 1.32h-24.46l11 11c1.3.02 2.41.08 2.41.08z"/></svg>