<svg viewBox="0 0 64 64" xmlns="http://www.w3.org/2000/svg"><path d="m0 0h64v64h-64z" fill="none"/><path d="m58.33 56.21-13.8-13.8-18.26-18.26-18.54-18.54-2.12 2.12 13.33 13.33a26.22 26.22 0 0 0 -7.71-4.13.17.17 0 0 0 -.21.18c.46 4.59 3.98 12.54 10.54 19.09-5.76-1.17-11.1-.46-13.76.72a.16.16 0 0 0 0 .27c1.59 1.5 6.64 4.91 14.48 5.6a22.73 22.73 0 0 0 -6.92 7.43.17.17 0 0 0 .15.24c1.15 0 5.69.11 11.75-3.27a43.1 43.1 0 0 1 2.47-9.5c.14-.25.3-.21.3-.21-.46 5.64-.92 11.6-1.17 18.14a2 2 0 0 0 1.6 2 9.27 9.27 0 0 0 3.35-.06 2 2 0 0 0 1.51-2l-1.15-9.88c5.42 3.7 11.14 5 14.23 4.85l7.86 7.86z"/><path d="m56.25 37.19a.16.16 0 0 0 0-.27c-2.52-1.11-7.79-1.94-13.76-.72 6.51-6.51 10.03-14.46 10.51-19.09a.17.17 0 0 0 -.21-.18c-2.51.73-8.94 3.74-14.89 11 0-10-3.36-17.77-5.75-20.93a.16.16 0 0 0 -.26 0c-1.46 2-4.24 7.11-5.31 14.65l20.26 20.24a22.66 22.66 0 0 0 9.41-4.7z"/></svg>