<svg height="64" viewBox="0 0 64 64" width="64" xmlns="http://www.w3.org/2000/svg"><path d="m0 0h64v64h-64z" fill="none"/><path d="m54.8868 4s-26.8329 0-33.8868 0c-6.9338 0-14 2.6875-14 9.9661v39.1923c0 4.0852 2.1243 6.8416 6 6.8416h22.5528.0203 11.31c1.1691 0 2.1169-.9461 2.1169-2.1132v-41.7736c0-1.1671-.9478-2.1132-2.1169-2.1132-10.9956 0-21.9893 0-33.002 0-.912 0-1.3414-.8251-1.0179-1.7457 1.0118-2.8793 6.2618-3.2543 8.1368-3.2543h31v42h3c1.1046 0 2-.8954 2-2v-42.8868c0-1.1671-.9461-2.1132-2.1132-2.1132zm-12.8868 45h-13v-1.2237c0-1.5333 1.273-2.7763 2.8063-2.7763h7.4174c1.5333 0 2.7763 1.243 2.7763 2.7763zm-28.1049-10.0261c.3542-.2 10.4183-5.5594 16.6589-8.8815-.3557-.6299-.7742-1.3713-1.3226-2.3425l-.8061.0236c-.5718.018-1.1063-.2828-1.3875-.7809l-.2986-.5289c-.2088-.3698-.0783-.8387.2915-1.0475l8.0345-4.5366c.3698-.2088.8388-.0783 1.0476.2914l.2986.5289c.2813.4981.2628 1.1112-.048 1.5915-1.1274 1.7426-3.5609 2.6441-4.5612 3.194.0294.0578.0765.1494.2585.1673.1946.0192 2.0399-.1626 4.6665-1.2659 1.7462 3.0926 1.0845 1.9208 2.8808 5.1021-2.3014 1.6793-3.4102 3.1653-3.4943 3.342-.0787.1652-.0246.2528.0097.3078 1.0001-.5792 3.001-2.1901 5.0909-2.256.5718-.018 1.1063.2828 1.3876.7809l.2986.5288c.2088.3698.0782.8388-.2915 1.0476l-8.0345 4.5366c-.3698.2088-.8388.0783-1.0476-.2915l-.2986-.5288c-.2812-.4982-.2628-1.1112.048-1.5915l.4465-.6605c-.5623-.9958-.9881-1.75-1.3497-2.3904-6.068 3.6277-15.8555 9.4774-16.2097 9.6773-1.1093.6264-2.5164.2349-3.1428-.8745s-.2348-2.5164.8745-3.1428z"/></svg>