<svg height="64" viewBox="0 0 64 64" width="64" xmlns="http://www.w3.org/2000/svg"><path d="m0 0h64v64h-64z" fill="none"/><path d="m57.2831 44.8831c-.5357-1.618-1.9681-1.9827-2.8123-1.4645-.2419-.4907-.8489-1.2882-1.9026-1.4098-1.0757-.1241-1.6803.7718-1.6803.7718-.0341-.0294-.5016-1.3295-1.9083-1.3797-.9925-.0354-1.629.6888-1.773.871-.2744-3.3174-.7342-8.1019-.771-8.6885-.0522-.8304-.6967-1.4979-1.5287-1.5098h-.0038c-.8325-.0119-1.5373.635-1.5711 1.4669-.0238.5865-.23 10.8104-.23 17.7292-.0306.0114-.2065.0944-.2983-.2161-.2-.6763-.7471-3.6574-.809-4.1766-.9312.7111-1.8693 1.3915-1.9803 3.0569-.1924 2.8857 3.4281 9.5567 10.3665 8.7489 3.7685-.4388 7.3207-2.9371 7.4161-7.373.0012-.0569.0023-.1145.0031-.173.0204-1.4386.0553-4.525-.517-6.2537z"/><path d="m39.3481 41.0445c.2185-1 1.5995-.9539 1.4225-2.3345-.0847-.6605-.64-.8447-.9469-.9058.3645-.1883.8135-.6666.9167-1.2542.0767-.4366-.001-.9172-.3631-1.1515-1.0023-.6486-.9846-1.6899-.9846-1.6899l2.7505-1.4567c.7869-.5082 1.0095-1.5601.4959-2.3434l-5.2176-5.8793c-.1688-.7446.1088-2.1189 0-2.7479-.5496-3.1766-2.0496-6.6915-2.0496-6.6915 1.7394-3.3173.8898-6.2704-1.7275-7.953-2.9818-1.9168-13.7399-2.1135-21.6537 2.1896-8.347 4.5386-7.444 13.0029-6.0383 17.2512 1.6353 4.9421 6.4344 11.9492 6.7723 17.2316.1481 2.316-1.5591 9.6908-1.5591 9.6908h18.6938v-5.2173s-4.7283-2.293-4.9474-2.4437c-.219-.1508-.1558-.3335-.1324-.3818 0 0 6.7977 1.4254 9.4263 1.8329 2.0597.3193 3.8253-.2275 4.6847-1.1807 1.7695-1.9625.239-3.5648.4575-4.5649z"/></svg>