<svg height="64" viewBox="0 0 64 64" width="64" xmlns="http://www.w3.org/2000/svg"><path d="m0 0h64v64h-64z" fill="none"/><path d="m37.8557 13.6106c2.9496.9573 5.3266-.554 6.2919-3.5283 1.0997-3.3875-.0945-5.7832-2.9671-6.7159-3.026-.982-5.3532.6367-6.3453 3.6939-1.0459 3.2218.0715 5.593 3.0205 6.5503z"/><path d="m51.8163 44.6199c1.2739-1.2261 1.5-3.2261.5635-4.9771-.3906-.7305-1.2993-1.0054-2.0303-.6152-.7305.3911-1.0059 1.2998-.6152 2.0303.3657.6831.2295 1.1812.002 1.4004-.3296.3174-.8428.0723-1.0479-.0483-.4344-.2543-3.2054-1.7254-5.623-3.179l-.0017-.0089c-.7442-3.8636-1.3668-6.8861-1.6657-9.5224-.1995-1.8777-.7707-8.5024-.8734-9.897-.1222-1.6599-1.9072-3.8607-4.793-5.2972-3.2114-1.5986-5.2163-1.3303-6.2164-1.2969-2.629.0918-7.3425 1.0121-9.8891 1.9497-2.1364.82-2.6261 1.8413-2.3665 3.9163.2738 2.0505 1.0931 3.8152 2.2621 8.8168l.0127.0058c.0593.4341.3007.8398.7048 1.0839.9849.5938 25.1444 14.9705 26.9334 16.0179 1.6443.9619 3.4577.762 4.6437-.3791zm-15.4793-19.3304c.4424 5.3647 1.0989 7.9611 2.1684 11.1973-2.1624-1.302-4.4722-2.6937-6.6662-4.0159zm-9.462-6.474-4.2232 6.4001c-.4851-2.0073-.8184-3.924-1.0684-5.674 1.5833-.2916 3.74-.578 5.2916-.7261z"/><circle cx="50.5" cy="56.5" r="2.5"/><path d="m36.9265 41.7535c-.2709-.4717-.5311-.9246-.7955-1.3849-5.5336-3.3273-12.8095-7.7097-16.264-9.791-.4745 1.5166-.6448 3.202-.7743 4.8631-.1287 1.6596-.2045 3.5146-.3295 5.4194-.1061 1.6134-.2467 3.3404-.6046 4.8792-1.0997 1.8406-5.1661 6.6368-6.6177 8.3436-2.1371 2.9508-1.3297 5.6269-.7053 6.8903.0149-.0111.0258-.0192.0414-.0308 1.9056-1.4613 10.0326-9.045 12.2668-11.9647.4636-.5277.8555-1.6095 1.0931-2.2736.7712-2.1826 1.3763-5.2465 1.8575-7.5952.002.0023 5.5744 6.3848 5.5744 6.3848.0175 2.1763-1.0497 6.776-1.4129 8.933-.4323 4.733 2.2824 6.1322 3.14 6.552 1.1535-3.5702 3.7002-10.4852 4.316-14.378.4479-3.01-.0267-3.5268-.7854-4.8472z"/></svg>