<svg height="64" viewBox="0 0 64 64" width="64" xmlns="http://www.w3.org/2000/svg"><path d="m0 0h64v64h-64z" fill="none"/><path d="m20.043 38.0898c1.9593 0 4.2807-1.9592 6-3.2505 1.8359 1.3789 4.0786 3.2505 6 3.2505 1.6528 0 3.6169-1.4554 4.5226-2.1409-1.2154-1.2302-3.3094-3.4078-4.852-5.6434-1.3292-1.8251-2.5643-3.8687-3.3628-5.9799 2.1492-.8882 5.7742-2.2007 11.27-3.8904-.2962-.8984-1.5273-3.0791-6.3715-2.0649-2.3037.4823-7.2828 1.5252-8.9492 2.9415-1.145.9731-1.1779 1.8699-.8945 3.0665.5355 2.2609 1.8333 4.8564 2.996 6.7469-3.9405 2.1276-7.0518 4.4168-9.0634 6.053.8599.4973 1.8241.9116 2.7048.9116z"/><path d="m56.043 40.09c-2.4615 0-4.9159-1.9367-6-2.75-1.0001.7504-3.4848 2.75-6 2.75-2.4615 0-4.9159-1.9367-6-2.75-1.0001.7504-3.4848 2.75-6 2.75-2.4615 0-4.9159-1.9367-6-2.75-1.0001.7504-3.4848 2.75-6 2.75-2.4615 0-4.9159-1.9367-6-2.75-1.0001.7504-3.4848 2.75-6 2.75-1.0184 0-2.1246-.3893-3.043-.8273v4.2183c.9427.3046 1.9789.519 3.043.519 2.397 0 4.6631-1.0762 6-1.8633 1.3369.7871 3.603 1.8633 6 1.8633s4.6631-1.0762 6-1.8633c1.3369.7871 3.603 1.8633 6 1.8633s4.6631-1.0762 6-1.8633c1.3369.7871 3.603 1.8633 6 1.8633s4.6631-1.0762 6-1.8633c1.3369.7871 3.603 1.8633 6 1.8633 1.0322 0 2.0372-.2025 2.957-.4926v-4.2031c-.8999.4195-1.9733.7857-2.957.7857z"/><path d="m35.8345 32.561c1.4798 2.4053 4.0202 2.7611 6.4457 1.2688 2.7627-1.6994 3.3492-4.0657 1.9082-6.4084-1.5182-2.4677-4.0876-2.7194-6.5806-1.1855-2.6275 1.6163-3.2528 3.9202-1.7733 6.3251z"/></svg>