<svg height="64" viewBox="0 0 64 64" width="64" xmlns="http://www.w3.org/2000/svg"><path d="m0 0h64v64h-64z" fill="none"/><path d="m45.0735 24.0417c-.356 2.1681.5921 3.5795 2.5766 3.9053 1.9849.3257 3.3615-.8754 3.69-2.877.3743-2.2796-.6255-3.6992-2.5585-4.0167-2.0363-.3341-3.3705.9311-3.7081 2.9884z"/><path d="m15.2126 49.3148c1.0015.7511 3.1043 2.4225 4.8303 2.4225 1.9193 0 4.3027-2.026 6-3.2998 1.8694 1.4021 4.1276 3.2998 6 3.2998 1.9193 0 4.3027-2.026 6-3.2998 1.8766 1.4075 2.8612 2.2006 4.0845 2.782 4.6337-3.0872 6.9294-5.4941 7.9789-6.8321.3798-.4842.0285-1.1985-.5869-1.2066-5.1427-.067-9.969.335-14.3033.9645l1.3839-3.1453h6.4111c1.3007 0 2.5522-.5731 3.3598-1.5927 1.8643-2.3536 2.9823-4.624 3.6506-6.4404.7087-1.926-.8026-3.9669-3.4204-3.9669h-11.6011c0 1.3956 1.0522 2.5667 2.4399 2.7155l6.0043.6439-2.6362 4.6406h-4.9692c-1.0261 0-1.9615.5875-2.407 1.5117l-3.121 6.4736c-2.4141.4775-4.6127 1.0055-6.5504 1.53l8.7701-15.7305-6.7007-1.4208c-.3126-.0718-.2708-.3078-.2499-.364h7.9457l13.9252-24.9769c.2911-.5221-.2316-1.1314-.7907-.9199-25.2622 9.5567-39.1601 27.0968-39.1601 27.0968l12.2268 17.5065c-2.1315.6846-3.6806 1.274-4.5142 1.6083z"/><path d="m56.043 53.9374c-2.4616 0-4.9159-1.9367-6-2.75-1.0002.7503-3.4848 2.75-6 2.75-2.4616 0-4.9159-1.9367-6-2.75-1.0002.7503-3.4848 2.75-6 2.75-2.4616 0-4.9159-1.9367-6-2.75-1.0002.7503-3.4848 2.75-6 2.75-2.4616 0-4.9159-1.9367-6-2.75-1.0002.7503-3.4848 2.75-6 2.75-1.0184 0-2.1246-.3893-3.043-.8273v4.2183c.9427.3047 1.9789.519 3.043.519 2.397 0 4.6631-1.0762 6-1.8633 1.3369.7871 3.603 1.8633 6 1.8633s4.6631-1.0762 6-1.8633c1.3369.7871 3.603 1.8633 6 1.8633s4.6631-1.0762 6-1.8633c1.3369.7871 3.603 1.8633 6 1.8633s4.6631-1.0762 6-1.8633c1.3369.7871 3.603 1.8633 6 1.8633 1.0322 0 2.0372-.2025 2.957-.4926v-4.2031c-.8999.4196-1.9733.7857-2.957.7857z"/></svg>