<?xml version="1.0" encoding="utf-8"?>
<!-- Generator: Adobe Illustrator 19.1.0, SVG Export Plug-In . SVG Version: 6.00 Build 0)  -->
<svg version="1.2" baseProfile="tiny" xmlns="http://www.w3.org/2000/svg" xmlns:xlink="http://www.w3.org/1999/xlink" x="0px"
	 y="0px" width="64px" height="64px" viewBox="0 0 64 64" xml:space="preserve">
<g id="box">
	<rect fill="none" width="64" height="64"/>
</g>
<g id="icon">
	<g>
		<path d="M44,18.25V14h1.4914c0.8929,0,1.6777-0.592,1.923-1.4506L49,7H1l1.5856,5.5494C2.8309,13.408,3.6157,14,4.5086,14h7.9115
			c0.0209,0.0562,0.0673,0.2623-0.2499,0.3641C11.9473,14.4356,8.208,15.18,6,15.6172V18.25C6,28.7434,14.5066,30,25,30
			S44,28.7434,44,18.25z M36,23.2c-1.215,0-2.2-0.985-2.2-2.2s0.985-2.2,2.2-2.2s2.2,0.985,2.2,2.2S37.215,23.2,36,23.2z"/>
		<path d="M60.9111,40.9194L46.1377,29.6255c-0.6572-0.5024-1.5991-0.3779-2.103,0.2803c-0.5029,0.6582-0.3774,1.5996,0.2808,2.103
			l14.7734,11.2939c0.6592,0.5041,1.6009,0.3762,2.103-0.2803C61.6948,42.3643,61.5693,41.4229,60.9111,40.9194z"/>
		<path d="M39.3936,34.6372c-0.3076-0.7695-1.1802-1.145-1.9497-0.8364c-0.769,0.3076-1.1436,1.1802-0.8364,1.9497l9.333,23.3618
			c0.3077,0.7706,1.1789,1.1435,1.9497,0.8364c0.769-0.3076,1.1436-1.1802,0.8364-1.9497L39.3936,34.6372z"/>
		<path d="M61,22H49c-0.8286,0-1.5,0.6714-1.5,1.5S48.1714,25,49,25h12c0.8286,0,1.5-0.6714,1.5-1.5S61.8286,22,61,22z"/>
	</g>
</g>
</svg>
