<?xml version="1.0" encoding="utf-8"?>
<!-- Generator: Adobe Illustrator 21.0.2, SVG Export Plug-In . SVG Version: 6.00 Build 0)  -->
<svg version="1.2" baseProfile="tiny" xmlns="http://www.w3.org/2000/svg" xmlns:xlink="http://www.w3.org/1999/xlink" x="0px"
	 y="0px" width="64px" height="64px" viewBox="0 0 64 64" xml:space="preserve">
<g id="Box">
	<rect fill="none" width="64" height="64"/>
</g>
<g id="Icon">
	<g>
		<path d="M35.6,55.8l1.2-0.4c0.3-0.1,0.3-0.5,0-0.6l-3.4-1.3c-0.3-0.1-0.5,0.1-0.5,0.3l-0.3,3.6c0,0.3,0.3,0.4,0.5,0.2l0.8-0.8
			c1.7,2.4,3.8,3.5,5.1,3.9v-2.2C38,58.2,36.8,57.3,35.6,55.8z M55,7H9v45h30v-4h-5V11h13.6L41,16.7v44.8l3.5,0.9L55,52L55,7z
			 M30,48H13V38h17V48z M30,34H13V11h17V34z M51,50.3l-6,5.9V45.3l6-5.2V50.3z M51,34.8L45,40V18.5l6-5.1V34.8z"/>
	</g>
</g>
</svg>
