<?xml version="1.0" encoding="utf-8"?>
<!-- Generator: Adobe Illustrator 24.1.3, SVG Export Plug-In . SVG Version: 6.00 Build 0)  -->
<svg version="1.1" xmlns="http://www.w3.org/2000/svg" xmlns:xlink="http://www.w3.org/1999/xlink" x="0px" y="0px"
	 viewBox="0 0 64 64" style="enable-background:new 0 0 64 64;" xml:space="preserve">
<style type="text/css">
	.st0{fill:none;}
	.st1{fill:#FF1D25;}
	.st2{fill:#1D1D1B;}
</style>
<g id="Box">
	<rect class="st0" width="64" height="64"/>
</g>
<g id="Icon">
	<g>
		<path d="M18.69,17.64c0-2.37-1.18-3.64-3.19-3.64c-2.1,0-3.19,1.46-3.19,3.64c0,2.19,1.18,3.46,3.19,3.46
			C17.5,21.11,18.69,19.65,18.69,17.64z"/>
		<path d="M20.6,38.96c0.91,0,2.37-0.55,2.55-2.55c0-5.65,0.27-12.66-4.01-13.67c-2.19-0.55-5.19-0.55-7.29,0
			c-4.19,1-4.01,8.02-4.01,13.76c0.18,2,1.64,2.55,2.55,2.55c0-0.09,0-5.01,0-5.28c0-2.46,0.46-5.1,0.73-6.01
			c0.09-0.27,0.27-0.18,0.27-0.18v10.93V55c0,0,3.01,0,3.28-3.37c0,0,0.46-12.76,0.46-12.85c0-0.18,0.09-0.36,0.36-0.36
			c0.27,0,0.36,0.18,0.36,0.36c0,0.18,0.46,12.76,0.46,12.76C16.5,55,19.6,55,19.6,55V38.42V27.48c0,0,0.18-0.09,0.27,0.18
			c0.27,0.82,0.73,3.46,0.73,5.92C20.6,34.04,20.6,38.96,20.6,38.96z"/>
		<circle cx="50.5" cy="17.5" r="1.5"/>
		<circle cx="50.5" cy="22.5" r="1.5"/>
		<circle cx="50.5" cy="27.5" r="1.5"/>
		<path d="M35.5,21.25c2.08,0,3.28-1.46,3.28-3.56c0-2.4-1.26-3.68-3.28-3.68c-2.13,0-3.28,1.52-3.28,3.68
			C32.23,19.96,33.43,21.25,35.5,21.25z"/>
		<path d="M41.94,38.36c0.9-0.12,2-1.24,1.63-3.28c-0.45-2.51-1.02-3.89-1.22-5.63c-0.45-3.86-1.6-5.72-3.73-6.4
			c-1.02-0.32-1.98-0.47-3.09-0.47h-0.04c-1.1,0-2.07,0.15-3.09,0.47c-2.13,0.68-3.28,2.53-3.73,6.4c-0.21,1.75-0.77,3.12-1.22,5.63
			c-0.37,2.04,0.73,3.16,1.63,3.28c2.06-6.67,1.91-9.56,2.43-11.06c0.09-0.27,0.32-0.68,0.32-0.68c-0.44,1.83-0.16,2.69,0.06,3.62
			c0.23,0.99,0.28,2.02,0.03,3c-0.48,1.85-2,4.28-2,10.19c0,0,1.52,0.41,3.97,0.2c0.08,0.13,0.05,0.3-0.16,0.45
			c-0.18,0.13-0.73,0.38-1.82,0.41L32.28,55c0,0,2.41-0.38,2.57-2.81c0,0,0.2-5.95,0.3-8.73c0.51-0.08,0.31-0.06,0.69-0.11
			c0.09,2.71,0.3,8.77,0.3,8.77c0.12,2.5,2.58,2.88,2.58,2.88l0.44-11.69c1.14,0.11,1.94,0.3,1.94,0.3c0-5.91-1.52-8.52-2-10.37
			c-0.25-0.98-0.2-2.01,0.03-3c0.22-0.93,0.49-1.79,0.06-3.62c0,0,0.23,0.42,0.32,0.68C40.02,28.8,39.87,31.69,41.94,38.36z"/>
		<path d="M55,48.81V57H5V7h50v23.2c1.11-0.99,2.89-0.99,4,0V5c0-1.1-0.9-2-2-2H3C1.9,3,1,3.9,1,5v54c0,1.1,0.9,2,2,2h54
			c1.1,0,2-0.9,2-2V48.81c-0.55,0.5-1.25,0.78-2,0.78S55.55,49.3,55,48.81z"/>
		<path d="M56.29,31.71l-4.59,4.59C51.08,36.92,51.52,38,52.41,38h9.17c0.89,0,1.34-1.08,0.71-1.71l-4.59-4.59
			C57.32,31.32,56.68,31.32,56.29,31.71z"/>
		<path d="M61.59,41h-9.17c-0.89,0-1.34,1.08-0.71,1.71l4.59,4.59c0.39,0.39,1.02,0.39,1.41,0l4.59-4.59
			C62.92,42.08,62.48,41,61.59,41z"/>
	</g>
</g>
</svg>
