<?xml version="1.0" encoding="utf-8"?>
<!-- Generator: Adobe Illustrator 24.1.3, SVG Export Plug-In . SVG Version: 6.00 Build 0)  -->
<svg version="1.1" xmlns="http://www.w3.org/2000/svg" xmlns:xlink="http://www.w3.org/1999/xlink" x="0px" y="0px"
	 viewBox="0 0 64 64" style="enable-background:new 0 0 64 64;" xml:space="preserve">
<style type="text/css">
	.st0{fill:none;}
	.st1{fill:#FF1D25;}
	.st2{fill:#1D1D1B;}
</style>
<g id="Box">
	<rect class="st0" width="64" height="64"/>
</g>
<g id="Icon">
	<g>
		<path d="M42.76,23.82c1.91-0.28,2.85-1.61,2.54-3.7c-0.29-1.98-1.54-3.22-3.5-2.93c-1.86,0.27-2.85,1.61-2.53,3.81
			C39.55,22.92,40.85,24.1,42.76,23.82z"/>
		<path d="M37.01,36.86c0.85-0.43,3.25-1.31,3.7-2.15c0.37-0.71,0.62-1.38,0.84-2.01c0.44,2.05,0.75,3.14,1.15,4.96
			c-1.5,0.65-2.14,0.93-3.62,1.53c-0.64,0.26-1.23,0.46-1.9,0.95c-0.57,0.43-1.24,1.53-1.11,3.35c0.18,2.58,0.68,6.85,1.03,9.38
			c0.66-0.06,2.11-0.45,2.53-2.73c0.25-1.36,0.32-2.95,0.27-6.35c0.95-0.37,2.19-0.85,3.97-1.61c0.53,3.56,0.78,5.76,0.97,6.64
			c0.26,1.22,0.86,2.12,1.29,2.79c1.3,2.03,3.23,4.48,4.56,6.44c0.24-0.22,1.97-1.99,0.61-4.46c-0.82-1.5-2.63-4.29-2.63-4.29
			s-0.37-7.3-0.46-7.68c0,0-1.5,0.09-2.7,0.2c-0.23,0.02-0.25-0.15-0.25-0.15s1.74-0.57,2.68-1.04c0.79-0.39,1.49-1.1,1.52-2.57
			c0.02-1.19-1.04-6.43-1.35-8c0.52,0.35,1.78,1.23,2.04,1.8c0.66,1.41,1.05,4.62,1.29,6.78c1.32-0.25,2.01-1.43,2.01-2.68
			c0-1.13-0.1-2.43-0.27-3.56c-0.28-1.79-0.57-2.28-1.28-3.11c-1.18-1.34-3.52-3.16-4.77-3.94c-2.27-1.41-6.14,0.1-6.73,1.58
			c-0.23,0.59-1.18,4.14-1.28,4.47c-0.21,0.71-0.27,1-0.56,1.61c-0.28,0.59-3.65,2.33-5.22,3.38
			C33.63,36.67,34.96,37.91,37.01,36.86z"/>
		<path d="M51.5,60H44v-3.9c0-1.16-0.94-2.1-2.1-2.1H34v-3.9c0-1.16-0.94-2.1-2.1-2.1H24v-3.9c0-1.16-0.94-2.1-2.1-2.1H14v-3.9
			c0-1.16-0.94-2.1-2.1-2.1H2.5C1.4,36,1,36.9,1,38c0,1.1,0.4,2,1.5,2H10v6h10v6h10v6h10v6h11.5c1.1,0,1.5-0.9,1.5-2
			C53,60.9,52.6,60,51.5,60z"/>
		<path d="M15.5,7.7c1.93,0.14,3.13-1.13,3.27-3.08c0.16-2.21-0.93-3.48-2.8-3.61C14,0.87,12.83,2.2,12.69,4.19
			C12.54,6.3,13.58,7.56,15.5,7.7z"/>
		<path d="M7.89,23.11c0.08-2.16,0.23-5.4,0.79-6.85c0.23-0.59,1.41-1.55,1.91-1.94c-0.18,1.5-0.63,5.64-0.74,7.18
			c-0.19,2.51,0.77,5.14,1.82,8.23c-2.06,0.86-2.96,1-4.08,1.82c-1.88,1.37-1.61,2.84-1.38,3.46c2.48-0.68,5.35-1.45,7.8-2.3
			c1.27-0.45,1.59-2.12,1.29-3.49c-0.21-0.93-0.42-1.9-0.62-2.87c0.96,1.16,4.03,4.54,4.03,4.54s0.76,4.04,1.12,5.72
			c0.6,2.75,3.06,2.95,3.39,2.96c-0.28-2.35-0.59-5.84-0.91-8.47c-0.1-0.79-0.25-1.86-0.86-2.96c-0.41-0.74-2.75-3.47-4.89-6.36
			c0.25-1.69,0.53-3.42,0.8-5.31c0.26,0.62,0.56,1.26,0.98,1.95c0.51,0.8,2.97,1.5,3.84,1.87c2.12,0.9,3.36-0.44,3.6-0.74
			c-1.74-0.99-5.11-2.39-5.45-2.99c-0.79-1.35-1.64-4.96-2.28-5.93c-0.76-1.16-4.66-2.66-6.83-1.08c-1.19,0.87-3.39,2.85-4.47,4.27
			c-0.65,0.88-0.9,1.39-1.05,3.2c-0.09,1.14-0.09,2.44-0.01,3.57C5.78,21.84,6.56,22.96,7.89,23.11z"/>
	</g>
</g>
</svg>
