<?xml version="1.0" encoding="utf-8"?>
<!-- Generator: Adobe Illustrator 24.1.3, SVG Export Plug-In . SVG Version: 6.00 Build 0)  -->
<svg version="1.1" xmlns="http://www.w3.org/2000/svg" xmlns:xlink="http://www.w3.org/1999/xlink" x="0px" y="0px"
	 viewBox="0 0 64 64" style="enable-background:new 0 0 64 64;" xml:space="preserve">
<style type="text/css">
	.st0{fill:none;}
	.st1{fill:#FF1D25;}
	.st2{fill:#1D1D1B;}
</style>
<g id="Box">
	<rect class="st0" width="64" height="64"/>
</g>
<g id="Icon">
	<g>
		<path d="M19.35,44.69c-0.24-0.66-0.96-0.95-1.56-0.8c-0.47,0.02-1.02,0.49-1.09,1.39L16.94,50l-7.5-4.49
			c-1.22-0.73-2.27,0.17-2.94,1.3c-0.67,1.13-1.08,2.66,0.14,3.39l7.5,4.49l-4.27,2.03c-0.56,0.3-0.95,0.96-0.71,1.61
			c0.09,0.69,0.75,1.09,1.44,0.99l11.79-1.61c0.84-0.13,1.4-1.07,1.12-1.88L19.35,44.69z"/>
		<path d="M56.5,52H49v-3.9c0-1.16-0.94-2.1-2.1-2.1H39v-3.9c0-1.16-0.94-2.1-2.1-2.1H29v-3.9c0-1.16-0.94-2.1-2.1-2.1H19v-3.9
			c0-1.16-0.94-2.1-2.1-2.1H7.5C6.4,28,6,28.9,6,30c0,1.1,0.4,2,1.5,2H15v6h10v6h10v6h10v6h11.5c1.1,0,1.5-0.9,1.5-2
			C58,52.9,57.6,52,56.5,52z"/>
		<path d="M40.77,10.27c1.98,0.14,3.22-1.17,3.36-3.16c0.16-2.27-0.95-3.57-2.88-3.71c-2.03-0.14-3.22,1.22-3.37,3.27
			C37.73,8.83,38.79,10.13,40.77,10.27z"/>
		<path d="M32.96,26.11c0.09-2.22,0.24-5.55,0.81-7.04c0.23-0.61,1.45-1.59,1.96-2c-0.19,1.54-0.64,5.79-0.77,7.37
			c-0.2,2.58,0.79,5.28,1.87,8.46c-2.11,0.88-3.04,1.03-4.19,1.87c-1.94,1.4-1.65,2.91-1.42,3.56c2.55-0.7,5.5-1.49,8.01-2.37
			c1.3-0.46,1.63-2.18,1.32-3.59c-0.21-0.95-0.43-1.95-0.64-2.95c0.99,1.19,4.14,4.67,4.14,4.67s0.78,4.16,1.15,5.87
			c0.62,2.82,3.15,3.03,3.48,3.04c-0.28-2.42-0.6-6-0.93-8.7c-0.1-0.82-0.26-1.91-0.88-3.04c-0.42-0.76-2.82-3.57-5.02-6.53
			c0.26-1.73,0.55-3.52,0.82-5.46c0.27,0.64,0.57,1.3,1.01,2c0.52,0.83,3.05,1.54,3.95,1.92c2.18,0.92,3.45-0.45,3.7-0.76
			c-0.9-0.51-3.01-1.52-3.59-1.82c-0.46-0.24-1.75-0.8-2.01-1.25c-0.81-1.39-1.69-5.09-2.34-6.09c-0.78-1.19-4.79-2.73-7.01-1.11
			c-1.22,0.89-3.49,2.93-4.6,4.39c-0.67,0.9-0.93,1.43-1.08,3.28c-0.09,1.17-0.09,2.51-0.01,3.67
			C30.79,24.8,31.58,25.95,32.96,26.11z"/>
	</g>
</g>
</svg>
