<?xml version="1.0" encoding="utf-8"?>
<!-- Generator: Adobe Illustrator 19.1.0, SVG Export Plug-In . SVG Version: 6.00 Build 0)  -->
<svg version="1.2" baseProfile="tiny" xmlns="http://www.w3.org/2000/svg" xmlns:xlink="http://www.w3.org/1999/xlink" x="0px"
	 y="0px" width="64px" height="64px" viewBox="0 0 64 64" xml:space="preserve">
<g id="Box">
	<rect fill="none" width="64" height="64"/>
</g>
<g id="Icon">
	<g>
		<path d="M26.7823,13.948l7.1694-5.8982C35.5586,6.728,37.5894,6,39.6699,6H52V2H39.6699c-3.0054,0-5.9385,1.0518-8.2593,2.9609
			l-8.5205,7.0098h0.3677C24.8441,11.9707,26.1019,12.7302,26.7823,13.948z"/>
		<path d="M22.7454,29.7049c0,0,1.2109-0.4612,1.2109-1.1724c0-0.357-0.0007-3.5056-2.4103-3.5163l0.0005-0.001h-0.0121
			c-1.08,0-15.8496,0-16.9296,0H4.5925l0.0005,0.001c-2.4096,0.0107-2.4103,3.1593-2.4103,3.5163
			c0,0.7112,1.2109,1.1724,1.2109,1.1724s2.4099,1.1724,9.6759,1.1724C20.3354,30.8773,22.7454,29.7049,22.7454,29.7049z"/>
		<path d="M5.241,22.9565h15.517c0,0,0.0092-1.9581-0.0607-4.4376c3.9314-0.494,4.3716-0.7727,4.3716-2.3666
			c0-1.0944-0.5825-1.9816-1.8809-1.9816h-2.6945c-0.1047-1.4873-0.2504-2.9898-0.4539-4.0381
			c-0.3303-1.7007-1.5358-3.0793-2.9113-3.4508c-1.0502-0.2836-2.4268-0.5203-4.1288-0.5203c-1.702,0-3.0787,0.2367-4.1288,0.5203
			c-1.3755,0.3715-2.5811,1.7501-2.9113,3.4508c-0.2036,1.0483-0.3492,2.5508-0.4539,4.0381H2.8109
			c-1.2985,0-1.8809,0.8872-1.8809,1.9816c0,1.5939,0.528,1.8882,4.3716,2.3706C5.2318,21.0005,5.241,22.9565,5.241,22.9565z"/>
		<path d="M47,32.7998c1.4879,0,3.2439,0.025,5,0.0992V17H38.0618v9h-10v9h-10v9h-10v9h22.7979
			c-0.045-1.4144-0.0599-2.7951-0.0599-4c0-3.2148,0.106-7.6812,0.6084-10.6997c0.418-2.5083,2.3838-4.4741,4.8921-4.8916
			C39.3188,32.9058,43.7847,32.7998,47,32.7998z"/>
		<path d="M59.435,38.826c-0.1949-1.1729-1.0873-2.0652-2.2607-2.2607C53.7829,36,48.1301,36,47.0001,36s-6.7828,0-10.1743,0.5654
			c-1.1734,0.1955-2.0657,1.0878-2.2607,2.2607C34,42.2173,34,47.8697,34,49c0,1.1304,0,6.7827,0.5651,10.174
			c0.195,1.1728,1.0873,2.0651,2.2607,2.2607C40.2172,62,45.87,62,47.0001,62s6.7828,0,10.1742-0.5653
			c1.1735-0.1956,2.0658-1.0879,2.2607-2.2607C60,55.7827,60,50.1304,60,49C60,45.607,60,42.2173,59.435,38.826z M55.4643,42.444
			l-8.8301,14.52c-0.2461,0.4048-0.6856,0.6514-1.1582,0.6514c-0.002,0-0.0029,0-0.0049,0
			c-0.4745-0.0015-0.9141-0.2515-1.1582-0.6587l-5.7822-9.6499c-0.3418-0.5713-0.2188-1.3066,0.292-1.7348
			c0.5088-0.4288,1.2539-0.4229,1.7588,0.0136l4.7734,4.1348l7.9404-8.8838c0.4668-0.522,1.2539-0.6025,1.8184-0.1855
			C55.6762,41.0679,55.8285,41.8453,55.4643,42.444z"/>
	</g>
</g>
</svg>
