<?xml version="1.0" encoding="utf-8"?>
<!-- Generator: Adobe Illustrator 21.0.2, SVG Export Plug-In . SVG Version: 6.00 Build 0)  -->
<svg version="1.2" baseProfile="tiny" xmlns="http://www.w3.org/2000/svg" xmlns:xlink="http://www.w3.org/1999/xlink" x="0px"
	 y="0px" width="64px" height="64px" viewBox="0 0 64 64" xml:space="preserve">
<g id="Box">
	<rect fill="none" width="64" height="64"/>
</g>
<g id="Icon">
	<g>
		<path d="M61,34.1l-1.2,0c0.8-4.3-1.2-7.2-1.3-7.3l-0.8,0.6L57,28c0,0,1.6,2.3,1,5.7l-1.2-0.6c-0.3-0.1-0.5,0.1-0.4,0.4l1.5,3.3
			c0.1,0.2,0.4,0.3,0.6,0.1l2.8-2.3C61.5,34.4,61.3,34.1,61,34.1z M49,12H15c-1.7,0-3,1.3-3,3v34c0,1.7,1.3,3,3,3h34
			c1.7,0,3-1.3,3-3V15C52,13.3,50.7,12,49,12z M32,15.8c3,0,5.7,0.8,8.1,2.2H23.9C26.3,16.6,29,15.8,32,15.8z M48.9,33.4
			c-0.3,0.1-0.5,0.1-0.8,0.2c-0.1,0.8-0.2,1.7-0.4,2.5H16.3c-0.2-0.8-0.4-1.6-0.4-2.5c-0.2,0-0.4-0.1-0.6-0.1
			C14.9,33.3,15,33.1,15,33h34.1C49.2,33.1,49.2,33.3,48.9,33.4z M48.9,39.4c-0.9,0.2-1.9,0.4-2.8,0.5c-0.4,0.7-0.9,1.4-1.4,2.1
			H19.3c-0.5-0.7-1-1.4-1.5-2.1c-0.8-0.1-1.7-0.3-2.6-0.5C14.9,39.3,15,39.1,15,39h34.1C49.2,39.1,49.2,39.3,48.9,39.4z M48.9,27.4
			c-0.4,0.1-0.9,0.2-1.3,0.3c0.2,0.8,0.4,1.6,0.5,2.4H15.9c0.1-0.8,0.3-1.6,0.5-2.4c-0.4-0.1-0.8-0.1-1.2-0.2
			C14.9,27.3,15,27.1,15,27h34.1C49.2,27.1,49.2,27.3,48.9,27.4z M48.9,21.4c-1.4,0.3-2.8,0.5-4.1,0.7c0.5,0.6,0.9,1.2,1.2,1.9H17.9
			c0.4-0.7,0.8-1.3,1.3-1.9c-1.2-0.2-2.6-0.5-3.9-0.7C14.9,21.3,15,21.1,15,21h34.1C49.2,21.1,49.2,21.3,48.9,21.4z M15,13.5
			c0.8,0,1.5,0.7,1.5,1.5s-0.7,1.5-1.5,1.5s-1.5-0.7-1.5-1.5S14.2,13.5,15,13.5z M15,50.5c-0.8,0-1.5-0.7-1.5-1.5s0.7-1.5,1.5-1.5
			s1.5,0.7,1.5,1.5S15.8,50.5,15,50.5z M32,48.2c-2.8,0-5.4-0.7-7.7-1.9c-2.5-0.2-6.1-0.5-9.1-0.9c-0.3,0-0.3-0.3-0.2-0.4h34.1
			c0,0.1,0.1,0.3-0.2,0.4c-3.1,0.3-6.8,0.7-9.3,0.9C37.4,47.5,34.8,48.2,32,48.2z M49,50.5c-0.8,0-1.5-0.7-1.5-1.5s0.7-1.5,1.5-1.5
			s1.5,0.7,1.5,1.5S49.8,50.5,49,50.5z M49,16.5c-0.8,0-1.5-0.7-1.5-1.5s0.7-1.5,1.5-1.5s1.5,0.7,1.5,1.5S49.8,16.5,49,16.5z"/>
	</g>
</g>
</svg>
