<svg height="64" viewBox="0 0 64 64" width="64" xmlns="http://www.w3.org/2000/svg"><path d="m0 0h64v64h-64z" fill="none"/><path d="m40.1596 36.283-4.2074-1.4595c-.3391-1.2149-.8171-2.3694-1.4259-3.4437l1.9428-4.0067c.2324-.4791.1356-1.0527-.2408-1.4293-1.3334-1.3334-.8405-.8404-2.1722-2.1723-.3765-.3764-.9502-.4731-1.4293-.2408l-4.0299 1.9542c-1.0623-.5927-2.2042-1.0541-3.402-1.3843l-1.4778-4.2603c-.1746-.503-.6486-.8403-1.1811-.8403-1.1116 0-1.9604 0-3.072 0-.5325 0-1.0065.3373-1.181.8404l-1.4946 4.3086c-1.1589.3353-2.2607.8-3.2902 1.3821l-4.125-2.0002c-.4791-.2324-1.0528-.1356-1.4293.2408-1.3334 1.3334-.8404.8405-2.1723 2.1723-.3764.3765-.4731.9502-.2408 1.4293l2.0187 4.1631c-.5563 1.0095-.9931 2.0909-1.3141 3.2221l-4.3951 1.5245c-.5031.1745-.8403.6485-.8403 1.181v1.536s0 .9802 0 1.536c0 .5325.3373 1.0065.8404 1.181l4.2074 1.4595c.3391 1.2149.8171 2.3694 1.4259 3.4437l-1.9428 4.0067c-.2324.4791-.1356 1.0527.2408 1.4293 1.3334 1.3334.8405.8404 2.1722 2.1723.3765.3764.9502.4731 1.4293.2408l4.0299-1.9542c1.0623.5927 2.2042 1.0541 3.402 1.3843l1.4778 4.2603c.1746.503.6486.8403 1.1811.8403h3.072c.5325 0 1.0065-.3373 1.181-.8404l1.4946-4.3086c1.1589-.3353 2.2607-.8 3.2902-1.3821l4.125 2.0002c.4791.2324 1.0528.1356 1.4293-.2408 1.3334-1.3334.8404-.8405 2.1723-2.1723.3764-.3765.4731-.9502.2408-1.4293l-2.0187-4.1631c.5563-1.0095.9931-2.0909 1.3141-3.2221l4.3952-1.5245c.503-.1745.8402-.6485.8402-1.181 0-.5558 0-1.0459 0-1.536s0-.9802 0-1.536c0-.5325-.3373-1.0065-.8404-1.181zm-19.1596 8.8207c-3.371 0-6.1037-2.7327-6.1037-6.1037s2.7327-6.1037 6.1037-6.1037 6.1037 2.7327 6.1037 6.1037-2.7327 6.1037-6.1037 6.1037z"/><path d="m62.4117 18.0981-2.9452-1.0217c-.2373-.8504-.572-1.6586-.9982-2.4106l1.36-2.8046c.1627-.3354.095-.7369-.1686-1.0005-.9333-.9333-.5884-.5883-1.5206-1.5206-.2635-.2635-.6651-.3312-1.0005-.1685l-2.8209 1.3679c-.7436-.4149-1.543-.7379-2.3814-.9691l-1.0345-2.9822c-.1221-.3521-.4539-.5882-.8266-.5882-.7781 0-1.3723 0-2.1504 0-.3727 0-.7045.2361-.8267.5883l-1.0463 3.0161c-.8112.2347-1.5825.56-2.3031.9675l-2.8875-1.4001c-.3354-.1627-.737-.095-1.0005.1685-.9333.9334-.5883.5884-1.5206 1.5206-.2635.2635-.3312.6651-.1685 1.0005l1.4131 2.9142c-.3894.7067-.6952 1.4636-.9199 2.2555l-3.0766 1.0672c-.3521.122-.5882.4538-.5882.8265v1.0752s0 .6861 0 1.0752c0 .3727.2361.7045.5883.8267l2.9452 1.0217c.2373.8504.572 1.6586.9982 2.4106l-1.36 2.8046c-.1627.3354-.095.7369.1686 1.0005.9333.9333.5884.5883 1.5206 1.5206.2635.2635.6651.3312 1.0005.1685l2.8209-1.3679c.7436.4149 1.543.7379 2.3814.9691l1.0345 2.9822c.1221.3521.4539.5882.8266.5882h2.1504c.3727 0 .7045-.2361.8267-.5883l1.0463-3.0161c.8112-.2347 1.5825-.56 2.3031-.9675l2.8875 1.4001c.3354.1627.737.095 1.0005-.1685.9333-.9334.5883-.5884 1.5206-1.5206.2635-.2635.3312-.6651.1685-1.0005l-1.4131-2.9142c.3894-.7067.6952-1.4636.9199-2.2555l3.0766-1.0672c.3521-.122.5882-.4538.5882-.8265 0-.3891 0-.7321 0-1.0752s0-.6861 0-1.0752c0-.3727-.2361-.7045-.5883-.8267zm-13.4117 6.1745c-2.3597 0-4.2726-1.9129-4.2726-4.2726s1.9129-4.2726 4.2726-4.2726 4.2726 1.9129 4.2726 4.2726-1.9129 4.2726-4.2726 4.2726z"/></svg>