<svg height="64" viewBox="0 0 64 64" width="64" xmlns="http://www.w3.org/2000/svg"><path d="m0 0h64v64h-64z" fill="none"/><path d="m35.5917 42.5707c.8988-.7575 2.0413-1.1747 3.2169-1.1746 1.2006.0001 2.3624.4329 3.2739 1.2208l3.9386 3.4117 4.2318-4.7866c.8148-1.4356 1.4588-2.9762 1.9169-4.5984l5.6958-1.9758c.6791-.2355 1.1344-.8754 1.1344-1.5942 0-1.5007 0-2.6465 0-4.1472 0-.7188-.4553-1.3587-1.1345-1.5943l-5.6801-1.9703c-.4577-1.6401-1.103-3.1986-1.925-4.649l2.6228-5.4089c.3137-.6468.1831-1.4213-.3251-1.9295-1.8001-1.8-1.1346-1.1346-2.9326-2.9326-.5082-.5082-1.2827-.6388-1.9295-.3251l-5.4403 2.6381c-1.4341-.8001-2.9757-1.423-4.5928-1.8688l-1.9951-5.7515c-.2355-.6792-.8754-1.1345-1.5942-1.1345-1.5007 0-2.6465 0-4.1472 0-.7188 0-1.3587.4553-1.5943 1.1345l-2.0177 5.8167c-1.5646.4527-3.052 1.08-4.4418 1.8659l-5.5687-2.7003c-.6468-.3137-1.4213-.1831-1.9295.3251-1.8 1.8001-1.1346 1.1346-2.9326 2.9326-.5082.5082-.6388 1.2827-.3251 1.9295l2.7253 5.6202c-.751 1.3627-1.3406 2.8227-1.774 4.3497l-5.9335 2.0582c-.6792.2356-1.1345.8755-1.1345 1.5943v4.1472c0 .7188.4553 1.3587 1.1345 1.5943l5.9493 2.0637c.4348 1.5144 1.0258 2.9611 1.7733 4.3132l-2.7404 5.6513c-.3137.6468-.1831 1.4213.3251 1.9295 1.8001 1.8 1.1346 1.1346 2.9326 2.9326.5082.5082 1.2827.6388 1.9295.3251l5.6199-2.7251c1.3686.7687 2.832 1.3828 4.3694 1.8294l2.0389 5.8779c.2356.6792.8755 1.1345 1.5943 1.1345h4.1472c.7188 0 1.3587-.4553 1.5943-1.1345l1.3157-3.7928-2.4631-4.1106c-1.2684-2.1199-.8151-4.8101 1.0712-6.3914zm-11.8317-11.5707c0-4.5508 3.6891-8.24 8.24-8.24s8.24 3.6891 8.24 8.24-3.6891 8.24-8.24 8.24-8.24-3.6892-8.24-8.24z"/><path d="m59.2728 38.3535c-.749-.5532-1.7932-.4464-2.4125.2461l-10.5399 11.9218-6.333-5.4857c-.6699-.5791-1.6584-.5869-2.3334-.0181-.6777.5681-.8409 1.5436-.3875 2.3016l7.6714 12.8027c.3239.5403.9069.8719 1.5366.874h.0065c.627 0 1.2101-.3272 1.5366-.8643l11.7204-19.3994c.4831-.7942.2811-1.8256-.4652-2.3787z"/></svg>