<?xml version="1.0" encoding="UTF-8" standalone="no"?>
<!-- Created with Inkscape (http://www.inkscape.org/) -->

<svg
   version="1.1"
   id="svg57015"
   width="701.72363"
   height="646.49414"
   viewBox="0 0 701.72364 646.49414"
   xmlns="http://www.w3.org/2000/svg"
   xmlns:svg="http://www.w3.org/2000/svg">
  <defs
     id="defs57019">
    <clipPath
       clipPathUnits="userSpaceOnUse"
       id="clipPath60195">
      <path
         d="M 0,750 H 750 V 0 H 0 Z"
         id="path60193" />
    </clipPath>
  </defs>
  <g
     id="g60187"
     transform="matrix(1.3333333,0,0,-1.3333333,-149.13764,822.41377)">
    <g
       id="g60189">
      <g
         id="g60191"
         clip-path="url(#clipPath60195)">
        <g
           id="g60197"
           transform="translate(560.248,369.1028)">
          <path
             d="M 0,0 V 0 C -9.368,0 -16.962,7.594 -16.962,16.962 V 26.24 H 16.962 V 16.962 C 16.962,7.594 9.368,0 0,0"
             style="fill:#ffb612;fill-opacity:1;fill-rule:nonzero;stroke:none"
             id="path60199" />
        </g>
        <g
           id="g60201"
           transform="translate(560.248,369.1028)">
          <path
             d="M 0,0 V 0 C -9.368,0 -16.962,7.594 -16.962,16.962 V 26.24 H 16.962 V 16.962 C 16.962,7.594 9.368,0 0,0 Z"
             style="fill:none;stroke:#ffb612;stroke-width:2.5;stroke-linecap:butt;stroke-linejoin:miter;stroke-miterlimit:10;stroke-dasharray:none;stroke-opacity:1"
             id="path60203" />
        </g>
        <path
           d="m 241.912,288.062 h -13.594 v 41.489 h 13.594 z"
           style="fill:#154273;fill-opacity:1;fill-rule:nonzero;stroke:#154273;stroke-width:2.5;stroke-linecap:butt;stroke-linejoin:miter;stroke-miterlimit:10;stroke-dasharray:none;stroke-opacity:1"
           id="path60205" />
        <g
           id="g60207"
           transform="translate(132.7773,349.1731)">
          <path
             d="M 0,0 -19.555,-215.097 H -4.827 L 29.84,-3.156"
             style="fill:#ffffff;fill-opacity:1;fill-rule:nonzero;stroke:#154273;stroke-width:2.5;stroke-linecap:butt;stroke-linejoin:miter;stroke-miterlimit:10;stroke-dasharray:none;stroke-opacity:1"
             id="path60209" />
        </g>
        <g
           id="g60211"
           transform="translate(617.2227,349.1731)">
          <path
             d="M 0,0 19.555,-215.412 H 4.444 L -30.223,-0.786"
             style="fill:#ffffff;fill-opacity:1;fill-rule:nonzero;stroke:#154273;stroke-width:2.5;stroke-linecap:butt;stroke-linejoin:miter;stroke-miterlimit:10;stroke-dasharray:none;stroke-opacity:1"
             id="path60213" />
        </g>
        <g
           id="g60215"
           transform="translate(241.3535,275.3591)">
          <path
             d="M 0,0 -15.271,-141.279 H -4.414 L 23.262,-11.548 Z"
             style="fill:#154273;fill-opacity:1;fill-rule:nonzero;stroke:none"
             id="path60217" />
        </g>
        <g
           id="g60219"
           transform="translate(241.3535,275.3591)">
          <path
             d="M 0,0 -15.271,-141.279 H -4.414 L 23.262,-11.548 Z"
             style="fill:none;stroke:#154273;stroke-width:2.5;stroke-linecap:butt;stroke-linejoin:miter;stroke-miterlimit:10;stroke-dasharray:none;stroke-opacity:1"
             id="path60221" />
        </g>
        <g
           id="g60223"
           transform="translate(349.1934,263.8108)">
          <path
             d="M 0,0 14.024,-129.73 H 3.166 L -24.509,0 Z"
             style="fill:#154273;fill-opacity:1;fill-rule:nonzero;stroke:none"
             id="path60225" />
        </g>
        <g
           id="g60227"
           transform="translate(349.1934,263.8108)">
          <path
             d="M 0,0 14.024,-129.73 H 3.166 L -24.509,0 Z"
             style="fill:none;stroke:#154273;stroke-width:2.5;stroke-linecap:butt;stroke-linejoin:miter;stroke-miterlimit:10;stroke-dasharray:none;stroke-opacity:1"
             id="path60229" />
        </g>
        <g
           id="g60231"
           transform="translate(297.1953,288.0622)">
          <path
             d="m 0,0 v 197.699 h -64.625 c -14.224,0 -25.756,-11.532 -25.756,-25.756 V 25.708 c 0,-27.591 22.368,-49.959 49.96,-49.959 H 68.198 V 0 Z"
             style="fill:#ffffff;fill-opacity:1;fill-rule:nonzero;stroke:none"
             id="path60233" />
        </g>
        <g
           id="g60235"
           transform="translate(297.1953,288.0622)">
          <path
             d="m 0,0 v 197.699 h -64.625 c -14.224,0 -25.756,-11.532 -25.756,-25.756 V 25.708 c 0,-27.591 22.368,-49.959 49.96,-49.959 H 68.198 V 0 Z"
             style="fill:none;stroke:#154273;stroke-width:2.5;stroke-linecap:butt;stroke-linejoin:miter;stroke-miterlimit:10;stroke-dasharray:none;stroke-opacity:1"
             id="path60237" />
        </g>
        <g
           id="g60239"
           transform="translate(453.6348,432.906)">
          <path
             d="m 0,0 12.026,6.119 c 2.717,1.381 6.039,0.42 7.599,-2.199 l 0.88,-1.477 15.345,3.756 c 3.442,0.92 6.889,-1.46 7.251,-5.005 l 0.853,-8.374 c 0.297,-2.909 -1.623,-5.583 -4.475,-6.231 L 3.26,-21.513"
             style="fill:#ffffff;fill-opacity:1;fill-rule:nonzero;stroke:#154273;stroke-width:2.5;stroke-linecap:butt;stroke-linejoin:miter;stroke-miterlimit:10;stroke-dasharray:none;stroke-opacity:1"
             id="path60241" />
        </g>
        <g
           id="g60243"
           transform="translate(376.1309,391.1086)">
          <path
             d="m 0,0 -73.89,81.009 41.981,34.193 63.633,-89.363 z"
             style="fill:#007bc7;fill-opacity:1;fill-rule:evenodd;stroke:none"
             id="path60245" />
        </g>
        <g
           id="g60247"
           transform="translate(302.2412,472.1174)">
          <path
             d="M 0,0 C 9.442,-11.592 26.494,-13.335 38.087,-3.893 49.68,5.549 51.423,22.601 41.98,34.193 32.538,45.786 15.486,47.529 3.894,38.086 -7.698,28.645 -9.441,11.593 0,0"
             style="fill:#007bc7;fill-opacity:1;fill-rule:evenodd;stroke:none"
             id="path60249" />
        </g>
        <g
           id="g60251"
           transform="translate(376.1309,391.1086)">
          <path
             d="M 0,0 C 7.136,-8.76 20.021,-10.077 28.781,-2.942 37.542,4.193 38.859,17.079 31.724,25.839 24.589,34.6 11.703,35.917 2.942,28.781 -5.817,21.646 -7.135,8.76 0,0"
             style="fill:#007bc7;fill-opacity:1;fill-rule:evenodd;stroke:none"
             id="path60253" />
        </g>
        <g
           id="g60255"
           transform="translate(386.3896,423.7033)">
          <path
             d="M 0,0 70.115,15.478 78.957,-15.566 11.206,-39.35 Z"
             style="fill:#007bc7;fill-opacity:1;fill-rule:evenodd;stroke:none"
             id="path60257" />
        </g>
        <g
           id="g60259"
           transform="translate(397.5957,384.3532)">
          <path
             d="M 0,0 C 10.867,3.094 17.167,14.412 14.072,25.278 10.978,36.145 -0.34,42.445 -11.206,39.35 -22.072,36.256 -28.373,24.938 -25.278,14.072 -22.184,3.206 -10.866,-3.095 0,0"
             style="fill:#007bc7;fill-opacity:1;fill-rule:evenodd;stroke:none"
             id="path60261" />
        </g>
        <g
           id="g60263"
           transform="translate(240.7109,324.5368)">
          <path
             d="m 0,0 h 109.844 c 0,30.333 -24.59,54.922 -54.922,54.922 C 24.589,54.922 0,30.333 0,0"
             style="fill:#007bc7;fill-opacity:1;fill-rule:evenodd;stroke:none"
             id="path60265" />
        </g>
        <g
           id="g60267"
           transform="translate(492.9111,320.8669)">
          <path
             d="m 0,0 13.987,-88.203 c 0.911,-9.96 -6.566,-18.713 -16.547,-19.37 l -13.554,-0.891 c -9.255,-0.609 -17.425,5.993 -18.769,15.171 l -16.704,85.56 z"
             style="fill:#007bc7;fill-opacity:1;fill-rule:evenodd;stroke:none"
             id="path60269" />
        </g>
        <g
           id="g60271"
           transform="translate(441.1602,314.2468)">
          <path
             d="M 0,0 C 1.571,-14.313 14.449,-24.643 28.763,-23.071 43.076,-21.499 53.405,-8.622 51.833,5.692 50.262,20.005 37.384,30.334 23.07,28.763 8.757,27.191 -1.572,14.313 0,0"
             style="fill:#007bc7;fill-opacity:1;fill-rule:evenodd;stroke:none"
             id="path60273" />
        </g>
        <g
           id="g60275"
           transform="translate(464.7949,291.1374)">
          <path
             d="m 0,0 -147.614,7.599 6.301,57.453 L 4.763,51.945 Z"
             style="fill:#007bc7;fill-opacity:1;fill-rule:evenodd;stroke:none"
             id="path60277" />
        </g>
        <g
           id="g60279"
           transform="translate(311.4883,290.9377)">
          <path
             d="M 0,0 C 14.981,-5.49 31.576,2.204 37.066,17.185 42.557,32.166 34.862,48.761 19.882,54.251 4.9,59.741 -11.694,52.047 -17.185,37.066 -22.675,22.085 -14.981,5.49 0,0"
             style="fill:#007bc7;fill-opacity:1;fill-rule:evenodd;stroke:none"
             id="path60281" />
        </g>
        <g
           id="g60283"
           transform="translate(441.0605,315.3816)">
          <path
             d="M 0,0 C 0.945,-14.369 13.359,-25.25 27.728,-24.305 42.096,-23.36 52.978,-10.946 52.032,3.422 51.087,17.791 38.673,28.672 24.305,27.728 9.937,26.782 -0.945,14.368 0,0"
             style="fill:#007bc7;fill-opacity:1;fill-rule:evenodd;stroke:none"
             id="path60285" />
        </g>
        <g
           id="g60287"
           transform="translate(468.5186,213.3347)">
          <path
             d="m 0,0 30.938,2.035 13.63,-63.136 c 21.517,-5.312 33.548,-6.995 35.635,-19.044 H 10.47 Z"
             style="fill:#ffffff;fill-opacity:1;fill-rule:nonzero;stroke:none"
             id="path60289" />
        </g>
        <g
           id="g60291"
           transform="translate(468.5186,213.3347)">
          <path
             d="m 0,0 30.938,2.035 13.63,-63.136 c 21.517,-5.312 33.548,-6.995 35.635,-19.044 H 10.47 Z"
             style="fill:none;stroke:#154273;stroke-width:2.5;stroke-linecap:butt;stroke-linejoin:miter;stroke-miterlimit:10;stroke-dasharray:none;stroke-opacity:1"
             id="path60293" />
        </g>
        <g
           id="g60295"
           transform="translate(423.7119,307.7175)">
          <path
             d="m 0,0 13.784,-79.718 c 1.068,-9.665 -6.27,-18.324 -16.237,-19.16 l -13.536,-1.137 c -9.243,-0.776 -17.514,5.481 -19.001,14.378 l -16.459,77.094 z"
             style="fill:#007bc7;fill-opacity:1;fill-rule:evenodd;stroke:none"
             id="path60297" />
        </g>
        <g
           id="g60299"
           transform="translate(371.5107,300.8479)">
          <path
             d="M 0,0 C 1.572,-14.313 14.449,-24.643 28.763,-23.071 43.076,-21.499 53.405,-8.622 51.833,5.692 50.262,20.005 37.384,30.334 23.07,28.763 8.757,27.191 -1.571,14.313 0,0"
             style="fill:#007bc7;fill-opacity:1;fill-rule:evenodd;stroke:none"
             id="path60301" />
        </g>
        <g
           id="g60303"
           transform="translate(395.1455,277.7385)">
          <path
             d="m 0,0 -130.442,6.955 6.301,57.452 L 4.763,51.945 Z"
             style="fill:#007bc7;fill-opacity:1;fill-rule:evenodd;stroke:none"
             id="path60305" />
        </g>
        <g
           id="g60307"
           transform="translate(262.2832,285.0129)">
          <path
             d="M 0,0 C 15.713,-2.771 30.697,7.721 33.468,23.434 36.239,39.146 25.748,54.13 10.035,56.901 -5.678,59.672 -20.662,49.181 -23.434,33.468 -26.204,17.755 -15.713,2.771 0,0"
             style="fill:#007bc7;fill-opacity:1;fill-rule:evenodd;stroke:none"
             id="path60309" />
        </g>
        <g
           id="g60311"
           transform="translate(371.9687,301.2971)">
          <path
             d="M 0,0 C 1.204,-14.349 13.813,-25.005 28.161,-23.8 42.511,-22.596 53.166,-9.988 51.962,4.361 50.758,18.71 38.149,29.366 23.801,28.162 9.451,26.958 -1.204,14.349 0,0"
             style="fill:#007bc7;fill-opacity:1;fill-rule:evenodd;stroke:none"
             id="path60313" />
        </g>
        <g
           id="g60315"
           transform="translate(323.2256,516.2854)">
          <path
             d="M 0,0 H -15.586 L -27.156,-13.624 -36.619,0 l -31.209,-1.611 -27.071,-27.072 10.454,-169.539 111.78,5.235 -0.258,165.916 z"
             style="fill:#007bc7;fill-opacity:1;fill-rule:evenodd;stroke:none"
             id="path60317" />
        </g>
        <g
           id="g60319"
           transform="translate(271.9404,528.9641)">
          <path
             d="m 0,0 c -14.129,-7.128 -6.929,-19.202 -6.929,-19.202 l 13.668,6.377 19.782,-24.129 9.178,20.761 15.171,-4.256 c 0,20.351 -9.62,22.571 -9.62,22.571 h -5.551 v -9.25 L 23.042,-14.782 4.619,-0.217"
             style="fill:#007bc7;fill-opacity:1;fill-rule:evenodd;stroke:none"
             id="path60321" />
        </g>
        <g
           id="g60323"
           transform="translate(271.9404,528.9641)">
          <path
             d="m 0,0 c -14.129,-7.128 -6.929,-19.202 -6.929,-19.202 l 13.668,6.377 19.782,-24.129 9.178,20.761 15.171,-4.256 c 0,20.351 -9.62,22.571 -9.62,22.571"
             style="fill:none;stroke:#154273;stroke-width:2.5;stroke-linecap:butt;stroke-linejoin:miter;stroke-miterlimit:10;stroke-dasharray:none;stroke-opacity:1"
             id="path60325" />
        </g>
        <g
           id="g60327"
           transform="translate(298.4609,492.01)">
          <path
             d="M 0,0 3.043,-133.688"
             style="fill:none;stroke:#154273;stroke-width:2.5;stroke-linecap:butt;stroke-linejoin:miter;stroke-miterlimit:10;stroke-dasharray:none;stroke-opacity:1"
             id="path60329" />
        </g>
        <g
           id="g60331"
           transform="translate(339.5986,463.5334)">
          <path
             d="M 0,0 H -23.096"
             style="fill:none;stroke:#154273;stroke-width:2.5;stroke-linecap:butt;stroke-linejoin:miter;stroke-miterlimit:10;stroke-dasharray:none;stroke-opacity:1"
             id="path60333" />
        </g>
        <g
           id="g60335"
           transform="translate(278.252,562.5774)">
          <path
             d="m 0,0 c -1.453,-8.05 3.896,-15.754 11.945,-17.207 8.051,-1.453 15.754,3.895 17.207,11.945 C 30.605,2.789 25.258,10.492 17.207,11.945 9.157,13.398 1.453,8.05 0,0"
             style="fill:#ffffff;fill-opacity:1;fill-rule:nonzero;stroke:none"
             id="path60337" />
        </g>
        <g
           id="g60339"
           transform="translate(307.6396,521.8357)">
          <path
             d="m 0,0 -12.657,-7.653 -18.291,14.46 1.347,31.304 H 0 Z"
             style="fill:#ffffff;fill-opacity:1;fill-rule:nonzero;stroke:none"
             id="path60341" />
        </g>
        <g
           id="g60343"
           transform="translate(307.6396,521.8357)">
          <path
             d="M 0,0 V 38.111"
             style="fill:#ffffff;fill-opacity:1;fill-rule:nonzero;stroke:#154273;stroke-width:2.5;stroke-linecap:butt;stroke-linejoin:miter;stroke-miterlimit:10;stroke-dasharray:none;stroke-opacity:1"
             id="path60345" />
        </g>
        <g
           id="g60347"
           transform="translate(280.4473,573.0295)">
          <path
             d="M 0,0 C -5.81,12.986 -23.982,-6.61 -2.408,-13.083 L 8.008,-24.266 c 13.243,-7.23 20.291,-15.677 31.546,-3.565 C 50.81,-15.718 50.56,30.586 19.505,31.907 13.59,32.159 3.932,31.459 -2.486,19.881 Z"
             style="fill:#ffffff;fill-opacity:1;fill-rule:nonzero;stroke:none"
             id="path60349" />
        </g>
        <g
           id="g60351"
           transform="translate(286.5381,549.718)">
          <path
             d="M 0,0 C 11.749,-9.467 17.184,-19.032 30.411,-9.111 43.64,0.81 51.618,46.421 21.292,53.238 15.517,54.536 5.887,55.563 -2.485,45.309"
             style="fill:#ffffff;fill-opacity:1;fill-rule:nonzero;stroke:#154273;stroke-width:2.5;stroke-linecap:butt;stroke-linejoin:miter;stroke-miterlimit:10;stroke-dasharray:none;stroke-opacity:1"
             id="path60353" />
        </g>
        <g
           id="g60355"
           transform="translate(282.9687,575.0208)">
          <path
             d="M 0,0 C -3.412,13.812 -24.776,-2.245 -4.694,-12.447"
             style="fill:#ffffff;fill-opacity:1;fill-rule:nonzero;stroke:#154273;stroke-width:2.5;stroke-linecap:butt;stroke-linejoin:miter;stroke-miterlimit:10;stroke-dasharray:none;stroke-opacity:1"
             id="path60357" />
        </g>
        <g
           id="g60359"
           transform="translate(316.2861,578.3005)">
          <path
             d="m 0,0 -0.812,-17.262 -6.859,1.541"
             style="fill:#ffffff;fill-opacity:1;fill-rule:nonzero;stroke:#154273;stroke-width:2.5;stroke-linecap:butt;stroke-linejoin:miter;stroke-miterlimit:10;stroke-dasharray:none;stroke-opacity:1"
             id="path60361" />
        </g>
        <g
           id="g60363"
           transform="translate(279.7783,604.4578)">
          <path
             d="m 0,0 c 1.935,4.654 6.426,8.674 11.449,8.26 5.177,-0.426 10.194,-5.244 14.884,-3.013 3.418,1.627 4.88,6.505 8.625,7.059 2.119,0.313 4.18,-0.995 5.542,-2.648 1.363,-1.652 2.229,-3.651 3.411,-5.437 3.34,-5.045 9.361,-8.195 15.41,-8.061 1.086,-5.253 -2.507,-11.037 -7.696,-12.392 -4.461,-1.165 -9.172,0.682 -13.058,3.164 -3.885,2.481 -7.369,5.638 -11.564,7.55 C 21.121,-2.836 1.973,-6.254 7.338,-32.161 4.082,-32.757 0.183,-33.482 -0.927,-29.923 -2.254,-25.667 -3.984,-9.583 0,0"
             style="fill:#007bc7;fill-opacity:1;fill-rule:nonzero;stroke:none"
             id="path60365" />
        </g>
        <g
           id="g60367"
           transform="translate(276.5596,525.5823)">
          <path
             d="m 0,0 1.551,36.015 -1.738,2.227"
             style="fill:#ffffff;fill-opacity:1;fill-rule:nonzero;stroke:#154273;stroke-width:2.5;stroke-linecap:butt;stroke-linejoin:miter;stroke-miterlimit:10;stroke-dasharray:none;stroke-opacity:1"
             id="path60369" />
        </g>
        <g
           id="g60371"
           transform="translate(301.9873,556.9373)">
          <path
             d="M 0,0 C 0,0 4.425,-9.111 13.705,-5.34"
             style="fill:#ffffff;fill-opacity:1;fill-rule:nonzero;stroke:#154273;stroke-width:2.5;stroke-linecap:butt;stroke-linejoin:miter;stroke-miterlimit:10;stroke-dasharray:none;stroke-opacity:1"
             id="path60373" />
        </g>
        <g
           id="g60375"
           transform="translate(201.5713,390.0027)">
          <path
             d="M 0,0 28.086,105.987 79.565,89.213 38.901,-12.676 Z"
             style="fill:#007bc7;fill-opacity:1;fill-rule:evenodd;stroke:none"
             id="path60377" />
        </g>
        <g
           id="g60379"
           transform="translate(229.6572,495.9895)">
          <path
             d="m 0,0 c -4.632,-14.215 3.138,-29.494 17.354,-34.126 14.214,-4.632 29.494,3.137 34.125,17.353 C 56.111,-2.558 48.343,12.721 34.127,17.353 19.911,21.985 4.633,14.216 0,0"
             style="fill:#007bc7;fill-opacity:1;fill-rule:evenodd;stroke:none"
             id="path60381" />
        </g>
        <g
           id="g60383"
           transform="translate(201.5713,390.0027)">
          <path
             d="m 0,0 c -3.501,-10.742 2.37,-22.289 13.113,-25.789 10.742,-3.5 22.288,2.371 25.788,13.113 C 42.402,-1.933 36.531,9.613 25.789,13.113 15.046,16.614 3.5,10.743 0,0"
             style="fill:#007bc7;fill-opacity:1;fill-rule:evenodd;stroke:none"
             id="path60385" />
        </g>
        <g
           id="g60387"
           transform="translate(278.625,428.6096)">
          <path
             d="m 0,0 9.36,11.287 c 1.874,2.404 5.291,2.943 7.814,1.233 l 1.424,-0.965 11.237,9.266 c 2.728,2.293 6.858,1.6 8.689,-1.457 L 42.89,8.71 C 44.393,6.201 43.788,2.965 41.479,1.169 L 6.431,-26.792"
             style="fill:#ffffff;fill-opacity:1;fill-rule:nonzero;stroke:#154273;stroke-width:2.5;stroke-linecap:butt;stroke-linejoin:miter;stroke-miterlimit:10;stroke-dasharray:none;stroke-opacity:1"
             id="path60389" />
        </g>
        <g
           id="g60391"
           transform="translate(211.8467,402.3571)">
          <path
             d="m 0,0 65.313,29.833 16.894,-27.436 -63,-38.524 z"
             style="fill:#007bc7;fill-opacity:1;fill-rule:evenodd;stroke:none"
             id="path60393" />
        </g>
        <g
           id="g60395"
           transform="translate(231.0537,366.2302)">
          <path
             d="M 0,0 C 9.976,5.304 13.764,17.691 8.46,27.667 3.156,37.643 -9.23,41.431 -19.207,36.127 -29.184,30.823 -32.971,18.436 -27.667,8.46 -22.363,-1.516 -9.977,-5.304 0,0"
             style="fill:#007bc7;fill-opacity:1;fill-rule:evenodd;stroke:none"
             id="path60397" />
        </g>
        <g
           id="g60399"
           transform="translate(274.1025,430.7942)">
          <path
             d="M 0,0 -45.776,-20.91"
             style="fill:none;stroke:#154273;stroke-width:2.5;stroke-linecap:butt;stroke-linejoin:miter;stroke-miterlimit:10;stroke-dasharray:none;stroke-opacity:1"
             id="path60401" />
        </g>
        <g
           id="g60403"
           transform="translate(270.2559,460.5241)">
          <path
             d="M 0,0 -13.55,-36.645"
             style="fill:none;stroke:#154273;stroke-width:2.5;stroke-linecap:butt;stroke-linejoin:miter;stroke-miterlimit:10;stroke-dasharray:none;stroke-opacity:1"
             id="path60405" />
        </g>
        <g
           id="g60407"
           transform="translate(287.3779,400.6721)">
          <path
             d="M 0,0 -50.088,-30.628"
             style="fill:none;stroke:#154273;stroke-width:2.5;stroke-linecap:butt;stroke-linejoin:miter;stroke-miterlimit:10;stroke-dasharray:none;stroke-opacity:1"
             id="path60409" />
        </g>
        <path
           d="M 519.185,368.138 H 339.294 v 15.219 h 179.891 z"
           style="fill:#8fcae7;fill-opacity:1;fill-rule:nonzero;stroke:#8fcae7;stroke-width:2.5;stroke-linecap:butt;stroke-linejoin:miter;stroke-miterlimit:10;stroke-dasharray:none;stroke-opacity:1"
           id="path60411" />
        <g
           id="g60413"
           transform="translate(427.5928,291.0183)">
          <path
             d="m 0,0 -3.399,17.353 c -2.199,11.221 -11.465,19.692 -22.838,20.876 l -61.757,6.267"
             style="fill:none;stroke:#154273;stroke-width:2.5;stroke-linecap:butt;stroke-linejoin:miter;stroke-miterlimit:10;stroke-dasharray:none;stroke-opacity:1"
             id="path60415" />
        </g>
        <g
           id="g60417"
           transform="translate(397.4277,209.4729)">
          <path
             d="m 0,0 35.144,2.035 7.42,-59.274 c 21.517,-5.312 33.547,-6.995 35.635,-19.044 H 8.466 Z"
             style="fill:#ffffff;fill-opacity:1;fill-rule:nonzero;stroke:none"
             id="path60419" />
        </g>
        <g
           id="g60421"
           transform="translate(397.4277,209.4729)">
          <path
             d="m 0,0 35.144,2.035 7.42,-59.274 c 21.517,-5.312 33.547,-6.995 35.635,-19.044 H 8.466 Z"
             style="fill:none;stroke:#154273;stroke-width:2.5;stroke-linecap:butt;stroke-linejoin:miter;stroke-miterlimit:10;stroke-dasharray:none;stroke-opacity:1"
             id="path60423" />
        </g>
        <g
           id="g60425"
           transform="translate(530.3604,368.6384)">
          <path
             d="m 0,0 h -129.86 l 14.889,94.773 H 14.891 Z"
             style="fill:#8fcae7;fill-opacity:1;fill-rule:nonzero;stroke:none"
             id="path60427" />
        </g>
        <g
           id="g60429"
           transform="translate(530.3604,368.6384)">
          <path
             d="m 0,0 h -129.86 l 14.889,94.773 H 14.891 Z"
             style="fill:none;stroke:#8fcae7;stroke-width:2.5;stroke-linecap:butt;stroke-linejoin:miter;stroke-miterlimit:10;stroke-dasharray:none;stroke-opacity:1"
             id="path60431" />
        </g>
        <g
           id="g60433"
           transform="translate(483.3301,416.0251)">
          <path
             d="m 0,0 c -0.907,-5.774 -6.323,-10.455 -12.098,-10.455 -5.773,0 -9.719,4.681 -8.812,10.455 0.907,5.774 6.324,10.455 12.097,10.455 C -3.038,10.455 0.907,5.774 0,0 Z"
             style="fill:none;stroke:#154273;stroke-width:2.5;stroke-linecap:butt;stroke-linejoin:miter;stroke-miterlimit:10;stroke-dasharray:none;stroke-opacity:1"
             id="path60435" />
        </g>
        <path
           d="M 627,347.746 H 121.519 v 21.151 H 627 Z"
           style="fill:#ffffff;fill-opacity:1;fill-rule:nonzero;stroke:#154273;stroke-width:2.5;stroke-linecap:butt;stroke-linejoin:miter;stroke-miterlimit:10;stroke-dasharray:none;stroke-opacity:1"
           id="path60437" />
        <g
           id="g60439"
           transform="translate(576.1592,389.8791)">
          <path
             d="M 0,0 C 6.07,6.279 12.375,4.317 10.507,-3.752 8.872,-9.68 4.1,-14.32 -3.203,-14.355"
             style="fill:none;stroke:#ffb612;stroke-width:2.5;stroke-linecap:butt;stroke-linejoin:miter;stroke-miterlimit:10;stroke-dasharray:none;stroke-opacity:1"
             id="path60441" />
        </g>
        <g
           id="g60443"
           transform="translate(556.8516,405.57)">
          <path
             d="m 0,0 c 0,3.324 2,3.324 2,6.648 0,3.327 -2,3.327 -2,6.653 0,3.326 2,3.326 2,6.653"
             style="fill:none;stroke:#8fcae7;stroke-width:2.5;stroke-linecap:butt;stroke-linejoin:miter;stroke-miterlimit:10;stroke-dasharray:none;stroke-opacity:1"
             id="path60445" />
        </g>
        <g
           id="g60447"
           transform="translate(566.7773,405.57)">
          <path
             d="m 0,0 c 0,3.324 2,3.324 2,6.648 0,3.327 -2,3.327 -2,6.653 0,3.326 2,3.326 2,6.653"
             style="fill:none;stroke:#8fcae7;stroke-width:2.5;stroke-linecap:butt;stroke-linejoin:miter;stroke-miterlimit:10;stroke-dasharray:none;stroke-opacity:1"
             id="path60449" />
        </g>
        <g
           id="g60451"
           transform="translate(302.333,435.4563)">
          <path
             d="M 0,0 14.999,11.111"
             style="fill:#ffffff;fill-opacity:1;fill-rule:nonzero;stroke:#154273;stroke-width:2.5;stroke-linecap:butt;stroke-linejoin:miter;stroke-miterlimit:10;stroke-dasharray:none;stroke-opacity:1"
             id="path60453" />
        </g>
        <g
           id="g60455"
           transform="translate(305.4678,428.9587)">
          <path
             d="M 0,0 14.999,11.111"
             style="fill:#ffffff;fill-opacity:1;fill-rule:nonzero;stroke:#154273;stroke-width:2.5;stroke-linecap:butt;stroke-linejoin:miter;stroke-miterlimit:10;stroke-dasharray:none;stroke-opacity:1"
             id="path60457" />
        </g>
        <g
           id="g60459"
           transform="translate(296.9258,439.9157)">
          <path
             d="M 0,0 -7.269,-6.425"
             style="fill:#ffffff;fill-opacity:1;fill-rule:nonzero;stroke:#154273;stroke-width:2.5;stroke-linecap:butt;stroke-linejoin:miter;stroke-miterlimit:10;stroke-dasharray:none;stroke-opacity:1"
             id="path60461" />
        </g>
      </g>
    </g>
  </g>
</svg>
