<svg xmlns="http://www.w3.org/2000/svg" width="274.842" height="262.892"><defs><clipPath id="a" clipPathUnits="userSpaceOnUse"><path d="M0 500h500V0H0Z"/></clipPath></defs><path d="M447.17 456h17.924V258.831H447.17Zm-37.695 0H427.4V258.831h-17.925zm-37.694 0h17.924V258.831h-17.924zm-37.43 0h17.924V258.831h-17.924zm-37.695 0h17.924V258.831h-17.924zm-37.694 0h17.925V258.831h-17.925z" style="fill:#777c00;fill-opacity:1;fill-rule:nonzero;stroke:none" transform="matrix(1.33333 0 0 -1.33333 -345.283 608)"/><g clip-path="url(#a)" transform="matrix(1.33333 0 0 -1.33333 -345.283 608)"><path d="M0 0a40.009 40.009 0 0 0-7.645-14.55l-2.793-3.954a14.903 14.903 0 0 1-1.582-3.533 18.072 18.072 0 0 1-.633-4.902 26.913 26.913 0 0 1 0-3.955 10.593 10.593 0 0 1 1.054-3.163c.411-.861.887-1.689 1.424-2.477l2.267-3.058c11.595-13.391 11.595-33.265 0-46.657l-2.794-3.953a13.973 13.973 0 0 1-1.582-3.532 18.124 18.124 0 0 1-.633-4.903 17.04 17.04 0 0 1 1.055-6.591 30.043 30.043 0 0 1 3.954-6.062 37.748 37.748 0 0 0 8.699-23.196 38.22 38.22 0 0 0-8.699-23.46l-2.794-3.954a13.964 13.964 0 0 1-1.582-3.533 18.112 18.112 0 0 1-.633-4.902 17.033 17.033 0 0 1 1.055-6.59 30.022 30.022 0 0 1 3.954-6.063 43.07 43.07 0 0 0 7.644-14.234h-19.242a26.11 26.11 0 0 1-2.109 3.427 38.22 38.22 0 0 0-8.698 23.46 37.744 37.744 0 0 0 8.698 23.249l2.741 3.954a11.36 11.36 0 0 1 1.582 3.585c.485 1.624.716 3.313.685 5.008a16.644 16.644 0 0 1-.685 5.272 11.073 11.073 0 0 1-1.582 3.532c-.58.896-1.528 2.214-2.741 3.954a38.22 38.22 0 0 0-8.698 23.46 37.745 37.745 0 0 0 8.698 22.933l2.741 3.953a11.38 11.38 0 0 1 1.582 3.585c.505 1.711.736 3.49.685 5.272a16.13 16.13 0 0 1-1.054 6.327 28.68 28.68 0 0 1-3.954 5.904 38.224 38.224 0 0 0-8.698 23.46A37.744 37.744 0 0 0-21.615-3.69 76.689 76.689 0 0 0-18.979 0zm-51.138-182.936a39.265 39.265 0 0 0 7.381-14.233H-63l-2.635 3.426a38.219 38.219 0 0 0-8.699 23.46 37.745 37.745 0 0 0 8.699 23.197l2.214 3.057a13.964 13.964 0 0 1 1.476 2.478c.517.992.873 2.06 1.054 3.163a26.9 26.9 0 0 1 0 3.954 16.132 16.132 0 0 1-1.054 6.327 28.742 28.742 0 0 1-3.954 6.062 38.22 38.22 0 0 0-8.435 23.461 37.744 37.744 0 0 0 8.699 23.196l2.214 3.057a13.964 13.964 0 0 1 1.476 2.478c.517.992.873 2.06 1.054 3.164a26.886 26.886 0 0 1 0 3.953 16.132 16.132 0 0 1-1.054 6.327 28.69 28.69 0 0 1-3.954 6.062 38.217 38.217 0 0 0-8.435 23.46A37.745 37.745 0 0 0-65.635-3.69 30.014 30.014 0 0 1-63 0h19.243a42.175 42.175 0 0 0-7.381-14.55 34.577 34.577 0 0 1-2.899-3.954 21.059 21.059 0 0 1-1.582-3.533 14.697 14.697 0 0 1-.791-4.902 15.094 15.094 0 0 1 1.16-6.59 38.456 38.456 0 0 1 4.112-6.063c11.245-13.52 11.245-33.137 0-46.657a34.39 34.39 0 0 1-2.899-3.953 19.145 19.145 0 0 1-1.582-3.532 14.707 14.707 0 0 1-.791-4.903 16.863 16.863 0 0 1 .369-3.796c.27-1.152.677-2.267 1.213-3.321.41-.862.886-1.69 1.423-2.478l2.267-3.058a38.324 38.324 0 0 0 8.435-23.196 38.85 38.85 0 0 0-8.435-23.46 27.006 27.006 0 0 1-2.267-2.9c-.422-.685-.896-1.582-1.423-2.636a15.842 15.842 0 0 1-1.213-3.163 17.617 17.617 0 0 1 .422-8.804 19.794 19.794 0 0 1 1.582-3.585 47.537 47.537 0 0 1 2.899-3.902m-43.757 0a37.158 37.158 0 0 0 7.645-14.233h-19.506a26.117 26.117 0 0 1-2.373 3.374 38.226 38.226 0 0 0-8.699 23.46 37.754 37.754 0 0 0 8.699 23.196l2.742 3.954a11.4 11.4 0 0 1 1.581 3.585c.505 1.71.736 3.489.685 5.272a16.11 16.11 0 0 1-1.054 6.326 28.645 28.645 0 0 1-3.954 6.063 38.226 38.226 0 0 0-8.699 23.46 37.754 37.754 0 0 0 8.699 23.196l2.742 3.954a11.4 11.4 0 0 1 1.581 3.585c.505 1.71.736 3.49.685 5.272a16.11 16.11 0 0 1-1.054 6.326 28.645 28.645 0 0 1-3.954 6.063 38.229 38.229 0 0 0-8.699 23.46 37.752 37.752 0 0 0 8.699 23.196 76.868 76.868 0 0 0 2.636 3.691h19.243a40.01 40.01 0 0 0-7.645-14.814l-2.794-3.954a14.943 14.943 0 0 1-1.582-3.533 18.11 18.11 0 0 1-.632-4.902 17.032 17.032 0 0 1 1.054-6.59 30.065 30.065 0 0 1 3.954-6.063c11.595-13.391 11.595-33.265 0-46.657l-2.794-3.953a14.009 14.009 0 0 1-1.582-3.532 18.651 18.651 0 0 1-.632-5.272 18.374 18.374 0 0 1 .632-5.009 14.482 14.482 0 0 1 1.582-3.585c.633-.843 1.582-2.161 2.794-3.954a37.74 37.74 0 0 0 8.699-23.196 38.216 38.216 0 0 0-8.699-23.46 26.995 26.995 0 0 1-2.267-2.899c-.421-.686-.896-1.582-1.423-2.637a10.519 10.519 0 0 1-1.054-3.163 24.701 24.701 0 0 1 0-3.69 17.016 17.016 0 0 1 1.054-6.59 30.103 30.103 0 0 1 3.69-5.747m-43.756 0a37.17 37.17 0 0 0 7.644-14.233h-19.243l-2.636 3.374a38.22 38.22 0 0 0-8.698 23.46 37.747 37.747 0 0 0 8.698 23.196l2.215 3.057a13.964 13.964 0 0 1 1.476 2.478c.517.992.873 2.06 1.054 3.164a26.9 26.9 0 0 1 0 3.954 16.127 16.127 0 0 1-1.054 6.326 28.69 28.69 0 0 1-3.954 6.062 38.22 38.22 0 0 0-8.699 23.461 37.744 37.744 0 0 0 8.699 23.196l2.214 3.058a13.87 13.87 0 0 1 1.476 2.478c.517.991.873 2.059 1.054 3.163a26.886 26.886 0 0 1 0 3.953 16.111 16.111 0 0 1-1.054 6.327 28.684 28.684 0 0 1-3.954 6.063 38.22 38.22 0 0 0-8.698 23.46 37.747 37.747 0 0 0 8.698 23.196 29.915 29.915 0 0 1 2.636 3.69h19.506a43.92 43.92 0 0 0-7.38-14.497c-1.213-1.74-2.109-3.058-2.637-3.954a17.867 17.867 0 0 1-1.476-3.533 18.071 18.071 0 0 1-.632-4.902 17.013 17.013 0 0 1 1.054-6.59 37.922 37.922 0 0 1 3.691-6.063c11.947-13.258 11.947-33.399 0-46.657-1.213-1.739-2.109-3.057-2.637-3.953a16.634 16.634 0 0 1-1.581-3.427 18.575 18.575 0 0 1-.632-5.272 18.323 18.323 0 0 1 .632-5.008c.355-1.247.85-2.45 1.476-3.585l2.636-3.954a37.214 37.214 0 0 0 8.962-23.197 37.634 37.634 0 0 0-8.962-23.459l-2.636-3.796a14.155 14.155 0 0 1-1.476-3.585 19.177 19.177 0 0 1-.632-5.272 17.013 17.013 0 0 1 1.054-6.59 37.858 37.858 0 0 1 3.796-5.589m-43.494 0a37.172 37.172 0 0 0 7.645-14.233h-19.507a26.092 26.092 0 0 1-2.372 3.426 38.225 38.225 0 0 0-8.699 23.46 37.75 37.75 0 0 0 8.699 23.197l2.741 3.954a11.36 11.36 0 0 1 1.582 3.585c.485 1.624.716 3.313.685 5.008a16.644 16.644 0 0 1-.685 5.272 11.073 11.073 0 0 1-1.582 3.532c-.579.896-1.529 2.214-2.741 3.954a38.22 38.22 0 0 0-8.699 23.46 37.748 37.748 0 0 0 8.699 23.196l2.741 3.954a11.38 11.38 0 0 1 1.582 3.585c.513 1.709.744 3.489.685 5.272a16.64 16.64 0 0 1-.685 5.008 11.069 11.069 0 0 1-1.582 3.533c-.579.896-1.529 2.214-2.741 3.954a38.22 38.22 0 0 0-8.699 23.46 37.748 37.748 0 0 0 8.699 23.196 75.967 75.967 0 0 0 2.636 3.69h19.243a40.019 40.019 0 0 0-7.645-15.077l-2.794-3.954a14.943 14.943 0 0 1-1.582-3.533 18.11 18.11 0 0 1-.632-4.902 17.032 17.032 0 0 1 1.054-6.59 30.065 30.065 0 0 1 3.954-6.063c11.595-13.391 11.595-33.265 0-46.657l-2.794-3.953a14.009 14.009 0 0 1-1.582-3.532 18.123 18.123 0 0 1-.632-4.903 17.04 17.04 0 0 1 1.054-6.591 30.086 30.086 0 0 1 3.954-6.062 37.742 37.742 0 0 0 8.699-23.196 38.214 38.214 0 0 0-8.699-23.46c-1.212-1.74-2.161-3.006-2.794-3.796a12.214 12.214 0 0 1-1.582-3.585 19.215 19.215 0 0 1-.632-5.272 17.035 17.035 0 0 1 1.054-6.59 30.136 30.136 0 0 1 3.954-5.747" style="fill:#8fcae7;fill-opacity:1;fill-rule:nonzero;stroke:none" transform="translate(239.984 241.222)"/><path d="M0 0a17.767 17.767 0 0 0 12.653-5.272 16.766 16.766 0 0 0 5.272-12.652h-35.586a17.079 17.079 0 0 0 5.272 12.81A17.344 17.344 0 0 0 .264 0zm0 35.849a16.235 16.235 0 0 0 6.854-1.318 20.128 20.128 0 0 0 5.799-3.954 18.767 18.767 0 0 0 3.69-5.272 16.672 16.672 0 0 0 1.582-7.117h-35.586a18.352 18.352 0 0 0 2.372 9.226 17.296 17.296 0 0 0 6.59 6.326 17.98 17.98 0 0 0 8.963 2.109zm-12.652 30.577c6.929 6.988 18.212 7.035 25.199.106l.106-.106a17.296 17.296 0 0 0 5.272-12.653h-35.586a17.084 17.084 0 0 0 5.272 12.653zM0 107.547c9.888-.029 17.896-8.037 17.925-17.924h-35.586a16.979 16.979 0 0 0 2.372 8.962 16.506 16.506 0 0 0 6.59 6.59 17.98 17.98 0 0 0 8.963 2.372zm-12.652 30.577c6.929 6.988 18.212 7.035 25.199.105a17.295 17.295 0 0 0 5.378-12.757h-35.586a17.079 17.079 0 0 0 5.272 12.863zm0 35.849c6.929 6.988 18.212 7.035 25.199.106l.106-.106a17.346 17.346 0 0 0 5.272-12.652h-35.586a17.186 17.186 0 0 0 5.272 12.652zM-42.703 0a17.555 17.555 0 0 0 12.917-5.272 17.19 17.19 0 0 0 5.272-12.652h-35.849a17.079 17.079 0 0 0 5.272 12.81A17.497 17.497 0 0 0-42.439 0zm0 35.849a15.81 15.81 0 0 0 7.118-1.318 23.73 23.73 0 0 0 5.272-3.954 14.615 14.615 0 0 0 3.954-5.272 20.31 20.31 0 0 0 1.317-7.117h-35.849c.029 9.888 8.037 17.896 17.925 17.925zm0 35.849a17.03 17.03 0 0 0 12.917-5.272 17.664 17.664 0 0 0 5.272-12.653h-35.849c.029 9.888 8.037 17.896 17.924 17.925zm0 35.849a17.03 17.03 0 0 0 12.917-5.272 17.765 17.765 0 0 0 5.272-12.652h-35.849c.029 9.887 8.037 17.895 17.924 17.924zm0 35.849a17.027 17.027 0 0 0 12.917-5.272 17.662 17.662 0 0 0 5.272-12.652h-35.849c.029 9.887 8.037 17.895 17.924 17.924zm0 35.849a17.027 17.027 0 0 0 12.917-5.272 17.763 17.763 0 0 0 5.272-12.652h-35.849c.029 9.887 8.037 17.895 17.924 17.924zM-84.878 0a18.292 18.292 0 0 0 12.653-5.272 15.235 15.235 0 0 0 5.272-11.862v-.79h-35.849a17.079 17.079 0 0 0 5.272 12.81A17.502 17.502 0 0 0-84.878 0m0 35.849a16.232 16.232 0 0 0 6.854-1.318 20.128 20.128 0 0 0 5.799-3.954 15.827 15.827 0 0 0 3.954-5.272 19.14 19.14 0 0 0 1.318-7.117h-35.849c.029 9.888 8.037 17.896 17.924 17.925zM-97.53 66.426c7.011 6.988 18.361 6.969 25.349-.044a17.927 17.927 0 0 0 5.228-12.609h-35.849a17.076 17.076 0 0 0 5.272 12.653m0 35.849c7.011 6.988 18.361 6.969 25.349-.044a17.926 17.926 0 0 0 5.228-12.608h-35.849a17.186 17.186 0 0 0 5.272 12.652m0 35.849c7.011 6.988 18.361 6.968 25.349-.043a17.93 17.93 0 0 0 5.228-12.609h-35.849a17.079 17.079 0 0 0 5.272 12.863zm0 35.849c7.011 6.988 18.361 6.968 25.349-.043a17.928 17.928 0 0 0 5.228-12.609h-35.849a17.186 17.186 0 0 0 5.272 12.652M-127.317 0a17.767 17.767 0 0 0 12.653-5.272 16.609 16.609 0 0 0 5.272-12.652h-35.849C-145.477-8.261-137.834-.236-128.17 0c.284.007.569.007.853 0m0 35.849c2.356.101 4.703-.35 6.854-1.318a23.707 23.707 0 0 0 5.272-3.954 15.813 15.813 0 0 0 3.954-5.272 16.656 16.656 0 0 0 1.581-7.117h-35.585a17.346 17.346 0 0 0 5.272 12.653 17.084 17.084 0 0 0 12.652 5.008m0 35.849c9.888-.029 17.896-8.037 17.925-17.925h-35.849a17.346 17.346 0 0 0 5.272 12.653 17.08 17.08 0 0 0 12.652 5.272m0 35.849c9.888-.029 17.896-8.037 17.925-17.924h-35.849a17.447 17.447 0 0 0 5.272 12.652 17.08 17.08 0 0 0 12.652 5.272m0 35.849c9.888-.029 17.896-8.037 17.925-17.924h-35.849a17.344 17.344 0 0 0 5.272 12.652 17.082 17.082 0 0 0 12.652 5.483zm0 35.849c9.888-.029 17.896-8.037 17.925-17.924h-35.849a17.447 17.447 0 0 0 5.272 12.652 17.076 17.076 0 0 0 12.652 5.272M-170.019 0a17.763 17.763 0 0 0 12.652-5.272 16.605 16.605 0 0 0 5.272-12.652h-35.849a17.079 17.079 0 0 0 5.272 12.81A17.503 17.503 0 0 0-170.019 0m0 35.849a16.228 16.228 0 0 0 6.853-1.318 20.101 20.101 0 0 0 5.799-3.954 17.77 17.77 0 0 0 3.691-5.272 16.656 16.656 0 0 0 1.581-7.117h-35.849c.029 9.888 8.037 17.896 17.925 17.925zm-12.653 30.577c7.011 6.989 18.36 6.971 25.349-.04a17.918 17.918 0 0 0 5.228-12.402h-35.849a17.086 17.086 0 0 0 5.272 12.442m0 35.849c7.012 6.988 18.361 6.969 25.349-.044a17.918 17.918 0 0 0 5.228-12.608h-35.849a17.19 17.19 0 0 0 5.272 12.652m0 35.849c7.012 6.988 18.361 6.969 25.349-.043a17.922 17.922 0 0 0 5.228-12.609h-35.849a17.082 17.082 0 0 0 5.272 12.863zm0 35.849c7.012 6.988 18.361 6.968 25.349-.043a17.92 17.92 0 0 0 5.228-12.609h-35.849a17.19 17.19 0 0 0 5.272 12.652" style="fill:#007bc7;fill-opacity:1;fill-rule:nonzero;stroke:none" transform="translate(446.906 61.977)"/><path d="M34.906 276.755h206.132v-17.924H34.906Zm0 35.849h206.132v-17.925H34.906Zm0 35.849h206.132v-17.925H34.906Zm0 35.849h206.132v-17.924H34.906Zm0 35.849h206.132v-17.924H34.906Zm0 35.849h206.132v-17.924H34.906Z" style="fill:#39870c;fill-opacity:1;fill-rule:evenodd;stroke:none"/><path d="M447.17 456h17.924V258.831H447.17Zm-37.695 0H427.4V258.831h-17.925zm-37.694 0h17.924V258.831h-17.924zm-37.43 0h17.924V258.831h-17.924zm-37.695 0h17.924V258.831h-17.924zm-37.694 0h17.925V258.831h-17.925z" style="fill:#777c00;fill-opacity:1;fill-rule:nonzero;stroke:none"/><path d="M0 0a40.009 40.009 0 0 0-7.645-14.55l-2.793-3.954a14.903 14.903 0 0 1-1.582-3.533 18.072 18.072 0 0 1-.633-4.902 26.913 26.913 0 0 1 0-3.955 10.593 10.593 0 0 1 1.054-3.163c.411-.861.887-1.689 1.424-2.477l2.267-3.058c11.595-13.391 11.595-33.265 0-46.657l-2.794-3.953a13.973 13.973 0 0 1-1.582-3.532 18.124 18.124 0 0 1-.633-4.903 17.04 17.04 0 0 1 1.055-6.591 30.043 30.043 0 0 1 3.954-6.062 37.748 37.748 0 0 0 8.699-23.196 38.22 38.22 0 0 0-8.699-23.46l-2.794-3.954a13.964 13.964 0 0 1-1.582-3.533 18.112 18.112 0 0 1-.633-4.902 17.033 17.033 0 0 1 1.055-6.59 30.022 30.022 0 0 1 3.954-6.063 43.07 43.07 0 0 0 7.644-14.234h-19.242a26.11 26.11 0 0 1-2.109 3.427 38.22 38.22 0 0 0-8.698 23.46 37.744 37.744 0 0 0 8.698 23.249l2.741 3.954a11.36 11.36 0 0 1 1.582 3.585c.485 1.624.716 3.313.685 5.008a16.644 16.644 0 0 1-.685 5.272 11.073 11.073 0 0 1-1.582 3.532c-.58.896-1.528 2.214-2.741 3.954a38.22 38.22 0 0 0-8.698 23.46 37.745 37.745 0 0 0 8.698 22.933l2.741 3.953a11.38 11.38 0 0 1 1.582 3.585c.505 1.711.736 3.49.685 5.272a16.13 16.13 0 0 1-1.054 6.327 28.68 28.68 0 0 1-3.954 5.904 38.224 38.224 0 0 0-8.698 23.46A37.744 37.744 0 0 0-21.615-3.69 76.689 76.689 0 0 0-18.979 0zm-51.138-182.936a39.265 39.265 0 0 0 7.381-14.233H-63l-2.635 3.426a38.219 38.219 0 0 0-8.699 23.46 37.745 37.745 0 0 0 8.699 23.197l2.214 3.057a13.964 13.964 0 0 1 1.476 2.478c.517.992.873 2.06 1.054 3.163a26.9 26.9 0 0 1 0 3.954 16.132 16.132 0 0 1-1.054 6.327 28.742 28.742 0 0 1-3.954 6.062 38.22 38.22 0 0 0-8.435 23.461 37.744 37.744 0 0 0 8.699 23.196l2.214 3.057a13.964 13.964 0 0 1 1.476 2.478c.517.992.873 2.06 1.054 3.164a26.886 26.886 0 0 1 0 3.953 16.132 16.132 0 0 1-1.054 6.327 28.69 28.69 0 0 1-3.954 6.062 38.217 38.217 0 0 0-8.435 23.46A37.745 37.745 0 0 0-65.635-3.69 30.014 30.014 0 0 1-63 0h19.243a42.175 42.175 0 0 0-7.381-14.55 34.577 34.577 0 0 1-2.899-3.954 21.059 21.059 0 0 1-1.582-3.533 14.697 14.697 0 0 1-.791-4.902 15.094 15.094 0 0 1 1.16-6.59 38.456 38.456 0 0 1 4.112-6.063c11.245-13.52 11.245-33.137 0-46.657a34.39 34.39 0 0 1-2.899-3.953 19.145 19.145 0 0 1-1.582-3.532 14.707 14.707 0 0 1-.791-4.903 16.863 16.863 0 0 1 .369-3.796c.27-1.152.677-2.267 1.213-3.321.41-.862.886-1.69 1.423-2.478l2.267-3.058a38.324 38.324 0 0 0 8.435-23.196 38.85 38.85 0 0 0-8.435-23.46 27.006 27.006 0 0 1-2.267-2.9c-.422-.685-.896-1.582-1.423-2.636a15.842 15.842 0 0 1-1.213-3.163 17.617 17.617 0 0 1 .422-8.804 19.794 19.794 0 0 1 1.582-3.585 47.537 47.537 0 0 1 2.899-3.902m-43.757 0a37.158 37.158 0 0 0 7.645-14.233h-19.506a26.117 26.117 0 0 1-2.373 3.374 38.226 38.226 0 0 0-8.699 23.46 37.754 37.754 0 0 0 8.699 23.196l2.742 3.954a11.4 11.4 0 0 1 1.581 3.585c.505 1.71.736 3.489.685 5.272a16.11 16.11 0 0 1-1.054 6.326 28.645 28.645 0 0 1-3.954 6.063 38.226 38.226 0 0 0-8.699 23.46 37.754 37.754 0 0 0 8.699 23.196l2.742 3.954a11.4 11.4 0 0 1 1.581 3.585c.505 1.71.736 3.49.685 5.272a16.11 16.11 0 0 1-1.054 6.326 28.645 28.645 0 0 1-3.954 6.063 38.229 38.229 0 0 0-8.699 23.46 37.752 37.752 0 0 0 8.699 23.196 76.868 76.868 0 0 0 2.636 3.691h19.243a40.01 40.01 0 0 0-7.645-14.814l-2.794-3.954a14.943 14.943 0 0 1-1.582-3.533 18.11 18.11 0 0 1-.632-4.902 17.032 17.032 0 0 1 1.054-6.59 30.065 30.065 0 0 1 3.954-6.063c11.595-13.391 11.595-33.265 0-46.657l-2.794-3.953a14.009 14.009 0 0 1-1.582-3.532 18.651 18.651 0 0 1-.632-5.272 18.374 18.374 0 0 1 .632-5.009 14.482 14.482 0 0 1 1.582-3.585c.633-.843 1.582-2.161 2.794-3.954a37.74 37.74 0 0 0 8.699-23.196 38.216 38.216 0 0 0-8.699-23.46 26.995 26.995 0 0 1-2.267-2.899c-.421-.686-.896-1.582-1.423-2.637a10.519 10.519 0 0 1-1.054-3.163 24.701 24.701 0 0 1 0-3.69 17.016 17.016 0 0 1 1.054-6.59 30.103 30.103 0 0 1 3.69-5.747m-43.756 0a37.17 37.17 0 0 0 7.644-14.233h-19.243l-2.636 3.374a38.22 38.22 0 0 0-8.698 23.46 37.747 37.747 0 0 0 8.698 23.196l2.215 3.057a13.964 13.964 0 0 1 1.476 2.478c.517.992.873 2.06 1.054 3.164a26.9 26.9 0 0 1 0 3.954 16.127 16.127 0 0 1-1.054 6.326 28.69 28.69 0 0 1-3.954 6.062 38.22 38.22 0 0 0-8.699 23.461 37.744 37.744 0 0 0 8.699 23.196l2.214 3.058a13.87 13.87 0 0 1 1.476 2.478c.517.991.873 2.059 1.054 3.163a26.886 26.886 0 0 1 0 3.953 16.111 16.111 0 0 1-1.054 6.327 28.684 28.684 0 0 1-3.954 6.063 38.22 38.22 0 0 0-8.698 23.46 37.747 37.747 0 0 0 8.698 23.196 29.915 29.915 0 0 1 2.636 3.69h19.506a43.92 43.92 0 0 0-7.38-14.497c-1.213-1.74-2.109-3.058-2.637-3.954a17.867 17.867 0 0 1-1.476-3.533 18.071 18.071 0 0 1-.632-4.902 17.013 17.013 0 0 1 1.054-6.59 37.922 37.922 0 0 1 3.691-6.063c11.947-13.258 11.947-33.399 0-46.657-1.213-1.739-2.109-3.057-2.637-3.953a16.634 16.634 0 0 1-1.581-3.427 18.575 18.575 0 0 1-.632-5.272 18.323 18.323 0 0 1 .632-5.008c.355-1.247.85-2.45 1.476-3.585l2.636-3.954a37.214 37.214 0 0 0 8.962-23.197 37.634 37.634 0 0 0-8.962-23.459l-2.636-3.796a14.155 14.155 0 0 1-1.476-3.585 19.177 19.177 0 0 1-.632-5.272 17.013 17.013 0 0 1 1.054-6.59 37.858 37.858 0 0 1 3.796-5.589m-43.494 0a37.172 37.172 0 0 0 7.645-14.233h-19.507a26.092 26.092 0 0 1-2.372 3.426 38.225 38.225 0 0 0-8.699 23.46 37.75 37.75 0 0 0 8.699 23.197l2.741 3.954a11.36 11.36 0 0 1 1.582 3.585c.485 1.624.716 3.313.685 5.008a16.644 16.644 0 0 1-.685 5.272 11.073 11.073 0 0 1-1.582 3.532c-.579.896-1.529 2.214-2.741 3.954a38.22 38.22 0 0 0-8.699 23.46 37.748 37.748 0 0 0 8.699 23.196l2.741 3.954a11.38 11.38 0 0 1 1.582 3.585c.513 1.709.744 3.489.685 5.272a16.64 16.64 0 0 1-.685 5.008 11.069 11.069 0 0 1-1.582 3.533c-.579.896-1.529 2.214-2.741 3.954a38.22 38.22 0 0 0-8.699 23.46 37.748 37.748 0 0 0 8.699 23.196 75.967 75.967 0 0 0 2.636 3.69h19.243a40.019 40.019 0 0 0-7.645-15.077l-2.794-3.954a14.943 14.943 0 0 1-1.582-3.533 18.11 18.11 0 0 1-.632-4.902 17.032 17.032 0 0 1 1.054-6.59 30.065 30.065 0 0 1 3.954-6.063c11.595-13.391 11.595-33.265 0-46.657l-2.794-3.953a14.009 14.009 0 0 1-1.582-3.532 18.123 18.123 0 0 1-.632-4.903 17.04 17.04 0 0 1 1.054-6.591 30.086 30.086 0 0 1 3.954-6.062 37.742 37.742 0 0 0 8.699-23.196 38.214 38.214 0 0 0-8.699-23.46c-1.212-1.74-2.161-3.006-2.794-3.796a12.214 12.214 0 0 1-1.582-3.585 19.215 19.215 0 0 1-.632-5.272 17.035 17.035 0 0 1 1.054-6.59 30.136 30.136 0 0 1 3.954-5.747" style="fill:#8fcae7;fill-opacity:1;fill-rule:nonzero;stroke:none" transform="translate(239.984 241.222)"/><path d="M0 0a17.767 17.767 0 0 0 12.653-5.272 16.766 16.766 0 0 0 5.272-12.652h-35.586a17.079 17.079 0 0 0 5.272 12.81A17.344 17.344 0 0 0 .264 0zm0 35.849a16.235 16.235 0 0 0 6.854-1.318 20.128 20.128 0 0 0 5.799-3.954 18.767 18.767 0 0 0 3.69-5.272 16.672 16.672 0 0 0 1.582-7.117h-35.586a18.352 18.352 0 0 0 2.372 9.226 17.296 17.296 0 0 0 6.59 6.326 17.98 17.98 0 0 0 8.963 2.109zm-12.652 30.577c6.929 6.988 18.212 7.035 25.199.106l.106-.106a17.296 17.296 0 0 0 5.272-12.653h-35.586a17.084 17.084 0 0 0 5.272 12.653zM0 107.547c9.888-.029 17.896-8.037 17.925-17.924h-35.586a16.979 16.979 0 0 0 2.372 8.962 16.506 16.506 0 0 0 6.59 6.59 17.98 17.98 0 0 0 8.963 2.372zm-12.652 30.577c6.929 6.988 18.212 7.035 25.199.105a17.295 17.295 0 0 0 5.378-12.757h-35.586a17.079 17.079 0 0 0 5.272 12.863zm0 35.849c6.929 6.988 18.212 7.035 25.199.106l.106-.106a17.346 17.346 0 0 0 5.272-12.652h-35.586a17.186 17.186 0 0 0 5.272 12.652zM-42.703 0a17.555 17.555 0 0 0 12.917-5.272 17.19 17.19 0 0 0 5.272-12.652h-35.849a17.079 17.079 0 0 0 5.272 12.81A17.497 17.497 0 0 0-42.439 0zm0 35.849a15.81 15.81 0 0 0 7.118-1.318 23.73 23.73 0 0 0 5.272-3.954 14.615 14.615 0 0 0 3.954-5.272 20.31 20.31 0 0 0 1.317-7.117h-35.849c.029 9.888 8.037 17.896 17.925 17.925zm0 35.849a17.03 17.03 0 0 0 12.917-5.272 17.664 17.664 0 0 0 5.272-12.653h-35.849c.029 9.888 8.037 17.896 17.924 17.925zm0 35.849a17.03 17.03 0 0 0 12.917-5.272 17.765 17.765 0 0 0 5.272-12.652h-35.849c.029 9.887 8.037 17.895 17.924 17.924zm0 35.849a17.027 17.027 0 0 0 12.917-5.272 17.662 17.662 0 0 0 5.272-12.652h-35.849c.029 9.887 8.037 17.895 17.924 17.924zm0 35.849a17.027 17.027 0 0 0 12.917-5.272 17.763 17.763 0 0 0 5.272-12.652h-35.849c.029 9.887 8.037 17.895 17.924 17.924zM-84.878 0a18.292 18.292 0 0 0 12.653-5.272 15.235 15.235 0 0 0 5.272-11.862v-.79h-35.849a17.079 17.079 0 0 0 5.272 12.81A17.502 17.502 0 0 0-84.878 0m0 35.849a16.232 16.232 0 0 0 6.854-1.318 20.128 20.128 0 0 0 5.799-3.954 15.827 15.827 0 0 0 3.954-5.272 19.14 19.14 0 0 0 1.318-7.117h-35.849c.029 9.888 8.037 17.896 17.924 17.925zM-97.53 66.426c7.011 6.988 18.361 6.969 25.349-.044a17.927 17.927 0 0 0 5.228-12.609h-35.849a17.076 17.076 0 0 0 5.272 12.653m0 35.849c7.011 6.988 18.361 6.969 25.349-.044a17.926 17.926 0 0 0 5.228-12.608h-35.849a17.186 17.186 0 0 0 5.272 12.652m0 35.849c7.011 6.988 18.361 6.968 25.349-.043a17.93 17.93 0 0 0 5.228-12.609h-35.849a17.079 17.079 0 0 0 5.272 12.863zm0 35.849c7.011 6.988 18.361 6.968 25.349-.043a17.928 17.928 0 0 0 5.228-12.609h-35.849a17.186 17.186 0 0 0 5.272 12.652M-127.317 0a17.767 17.767 0 0 0 12.653-5.272 16.609 16.609 0 0 0 5.272-12.652h-35.849C-145.477-8.261-137.834-.236-128.17 0c.284.007.569.007.853 0m0 35.849c2.356.101 4.703-.35 6.854-1.318a23.707 23.707 0 0 0 5.272-3.954 15.813 15.813 0 0 0 3.954-5.272 16.656 16.656 0 0 0 1.581-7.117h-35.585a17.346 17.346 0 0 0 5.272 12.653 17.084 17.084 0 0 0 12.652 5.008m0 35.849c9.888-.029 17.896-8.037 17.925-17.925h-35.849a17.346 17.346 0 0 0 5.272 12.653 17.08 17.08 0 0 0 12.652 5.272m0 35.849c9.888-.029 17.896-8.037 17.925-17.924h-35.849a17.447 17.447 0 0 0 5.272 12.652 17.08 17.08 0 0 0 12.652 5.272m0 35.849c9.888-.029 17.896-8.037 17.925-17.924h-35.849a17.344 17.344 0 0 0 5.272 12.652 17.082 17.082 0 0 0 12.652 5.483zm0 35.849c9.888-.029 17.896-8.037 17.925-17.924h-35.849a17.447 17.447 0 0 0 5.272 12.652 17.076 17.076 0 0 0 12.652 5.272M-170.019 0a17.763 17.763 0 0 0 12.652-5.272 16.605 16.605 0 0 0 5.272-12.652h-35.849a17.079 17.079 0 0 0 5.272 12.81A17.503 17.503 0 0 0-170.019 0m0 35.849a16.228 16.228 0 0 0 6.853-1.318 20.101 20.101 0 0 0 5.799-3.954 17.77 17.77 0 0 0 3.691-5.272 16.656 16.656 0 0 0 1.581-7.117h-35.849c.029 9.888 8.037 17.896 17.925 17.925zm-12.653 30.577c7.011 6.989 18.36 6.971 25.349-.04a17.918 17.918 0 0 0 5.228-12.402h-35.849a17.086 17.086 0 0 0 5.272 12.442m0 35.849c7.012 6.988 18.361 6.969 25.349-.044a17.918 17.918 0 0 0 5.228-12.608h-35.849a17.19 17.19 0 0 0 5.272 12.652m0 35.849c7.012 6.988 18.361 6.969 25.349-.043a17.922 17.922 0 0 0 5.228-12.609h-35.849a17.082 17.082 0 0 0 5.272 12.863zm0 35.849c7.012 6.988 18.361 6.968 25.349-.043a17.92 17.92 0 0 0 5.228-12.609h-35.849a17.19 17.19 0 0 0 5.272 12.652" style="fill:#007bc7;fill-opacity:1;fill-rule:nonzero;stroke:none" transform="translate(446.906 61.977)"/></g></svg>