<svg enable-background="new 0 0 64 64" height="64" viewBox="0 0 64 64" width="64" xmlns="http://www.w3.org/2000/svg"><path d="m0 0h64v64h-64z" fill="none"/><path d="m62.4 12.7-2.5-1.4c-.4-.2-.8-.6-1-1-.6-1.2-1.7-2.5-3.5-2.8-3.7-.6-8.3.7-8.6 1.4-.3 1 2.8 1.4 3 3.4s1 6.2.2 8c-.9 1.8-2.6 2.5-5.1 3.9.2.5.3 1 .4 1.6.2 2.1-.7 4.1-2.3 5.2 1.6 3.8 1.9 7.6.8 10.9 2.4-.2 5-.8 7.5-1.5.1.1.1.3-.2.6-2.6 1.9-5.6 2.9-8.2 3.2-1.2 2.1-2.9 3.7-5.2 5 1.1.3 2.2.6 3.2.8l1 6.9c-1.1.4-2.3 1.2-3 2-1.4-.8-4.3-1.2-5.4-1.1l-1.3-6.1c1.3-.5 2.5-2.2 3.5-3.8 7.8-3.4 8.2-11.2 4.6-17.9 2-.2 3.3-1.9 3.1-3.8-.2-2-1.5-2.3-2.7-4.6 2-.3 4 .4 4 .4.4 0 .3-.4 0-1-.8-1.6-2.3-2.8-3.4-4 2.1-2.3 2.5-4.4 2-5.1-.6-1-1.9 0-1.9 0s-.2-1.7-.9-2c-.8-.3-1.5.8-1.5.8s-.3-1.9-1.3-2.1c-.9-.2-1.3 1.3-1.3 1.3s-.8-1.6-1.8-1.3c-.8.2-1.6 3.2.1 5.6-2.3.9-3.4 2.5-4.2 4.2-1.3 2.9-1.5 6.6-4.7 8.7-1.9 1.2-6.8 3-11-.5-3.8-3.1-6.3-8.9-7.1-11-1-2.8-9.2 5.5-1.7 14.2-5.2-.9-3.5 5.3 2.4 9.7-.9.2-1.6.6-1.8 1.2-.3.8.3 2 1.7 3 7.4 5.1 15.7.1 15.7.1.3.2.3.6-.4 1.1-1.9 1.4-3.9 2.3-5.7 2.8 1.1 1.5 2.4 2.9 3.9 3.5l2.9 6.5c-1.9.7-4 2.3-3.7 3.3.1.6.8.7 1.6.3.6-.3 2.4-1.5 3.8-1.5 1.3 0 4.6 1.5 6.4 2.4.6.3 1.5.2 1.5-.5 0-.6-.6-1.3-1.5-1.9 2.9.1 5.6.7 5.6.7.5.1 1 .1 1.5-.3.6-.3 2.1-1.4 3.4-1.4 1.2 0 4.3 1.4 6 2.2.5.3 1.4.2 1.4-.4 0-.7-.7-1.4-1.8-2.1 2.3.2 4.3.8 4.3.8 1.1.3 2-.8-.6-2-.8-.4-2.4-.8-4.2-.9l1.3-7.4c5.7-2.2 11.6-7.3 12.2-14.6.6-7.5-2.2-13.9-3.3-17.6.9-.6 1.3-1.1 1.5-2.4l2.3-.6c.4-.3.4-.9 0-1.1zm-24.9 4.3c.8 0 1.5.7 1.5 1.5s-.7 1.5-1.5 1.5-1.5-.7-1.5-1.5.7-1.5 1.5-1.5zm-10.5 40.4-1.6-5.8h3.2l2.3 7.1c-1.3-.6-2.7-1.1-3.9-1.3zm19.2-.2c-.6-.2-1.6-.4-2.2-.5l.1-6.5c.5 0 1.1 0 2.5-.3zm8.8-43.7c-.8 0-1.5-.7-1.5-1.5s.7-1.5 1.5-1.5 1.5.7 1.5 1.5-.7 1.5-1.5 1.5z"/></svg>