<svg enable-background="new 0 0 64 64" viewBox="0 0 64 64" xmlns="http://www.w3.org/2000/svg"><path d="m52.8904 40.7019c-.4161-2.8254-.8719-5.6454-1.3517-8.4608-.2452-1.4395-1.7806-1.9891-2.8544-1.0079-2.175 1.9877-4.3241 4.005-6.447 6.0483-1.0701 1.03-.7296 2.521.6505 3.078.4725.1908.9646.3337 1.4803.5095-.9528 3.9069-5.3005 8.1594-9.3681 8.131v-26.6c-2.5579.1936-3.5037-.3988-3.3688-.6033.1227.0072.2443.0186.3688.0186 3.4492 0 6.2454-2.7961 6.2454-6.2453s-2.7961-6.2454-6.2454-6.2454-6.2454 2.7961-6.2454 6.2454c0 2.3616 1.3115 4.4161 3.2454 5.4775v27.9525c-4.0676.0284-8.4153-4.2241-9.3682-8.1309.5157-.1758 1.0078-.3187 1.4803-.5095 1.3801-.557 1.7206-2.048.6505-3.078-2.1229-2.0433-4.272-4.0607-6.447-6.0483-1.0737-.9813-2.6091-.4316-2.8544 1.0079-.4797 2.8154-.9355 5.6354-1.3517 8.4608-.2341 1.5888.9702 2.5657 2.5 2.0942.4028-.1241.8003-.2658 1.2131-.4037 3.1664 7.7198 8.7712 12.6075 17.1774 12.6075s14.011-4.8877 17.1772-12.6076c.4128.1379.8103.2796 1.2131.4037 1.5299.4715 2.7342-.5054 2.5001-2.0942zm-23.5279-25.1319c0-1.4567 1.1808-2.6375 2.6375-2.6375s2.6375 1.1808 2.6375 2.6375c0 1.4566-1.1808 2.6375-2.6375 2.6375s-2.6375-1.1809-2.6375-2.6375z"/></svg>