<svg viewBox="0 0 64 64" xmlns="http://www.w3.org/2000/svg"><path d="m0 0h64v64h-64z" fill="none"/><path d="m37.1 23.52 14.2-9.33 1-.69c1.3-1 .21-3.16.21-3.16l-16.77 11.12s6.37-10 8.48-13.48c.3-.49.51-.84.61-1 .78-1.44-1.1-3-1.1-3l-12.62 20.24a1.75 1.75 0 0 0 .05 2 1.8 1.8 0 0 0 1.6.53l19.71-3.11 1.53-.3c1.64-.34 2-2.81 2-2.81z"/><path d="m33.31 46.47c-1.2 4.3-4.14 6.9-8.09 7.13a8.88 8.88 0 0 1 -8.79-5.12c-2.47-6 3.23-10.19 4.13-10.82a8.6 8.6 0 0 0 -3-4.15 15.19 15.19 0 0 0 -5.79 6.49 12.8 12.8 0 0 0 0 10.43 14 14 0 0 0 13.79 8.26c6.16-.37 10.91-4.42 12.69-10.85 1.87-6.84 3.75-8.57 9.75-8.57v-5.09c-9.43 0-12.53 4.51-14.69 12.29"/><path d="m22 37.13a3.1 3.1 0 0 0 1.12-.59c.45-.42 5.29-7 5.29-7l-1.41-2.06-3.4 1.66-3.13-4.58s-4.47 2.34-6.15 3.37a2.61 2.61 0 0 0 -.13 3l5.32-3.08 1.56 2.32c-1.38.57-2.1.87-2.5 1.09a1.65 1.65 0 0 0 -.57.74 9.62 9.62 0 0 1 4 5.12"/><rect height="4.76" rx="1" transform="matrix(.80447932 -.59398066 .59398066 .80447932 -10.88 22.4)" width="2.65" x="27.27" y="25.34"/></svg>