<svg height="64" viewBox="0 0 64 64" width="64" xmlns="http://www.w3.org/2000/svg"><path d="m0 0h64v64h-64z" fill="none"/><path d="m45 26h-3v-11c0-1.7-1.3-3-3-3h-.9c-2.9-3.5-3.1-6.6-3.1-8 0-1.5.1-3-3-3s-3 1.5-3 3c0 1.4-.2 4.5-3.1 8h-.9c-1.7 0-3 1.3-3 3v9.2c2 .4 6.5 1.4 6.7 1.4.3.1.3.3.2.4h-9.9c-2.2 0-4 1.8-4 4v29c0 2.2 1.8 4 4 4h26c2.2 0 4-1.8 4-4v-29c0-2.2-1.8-4-4-4zm-3.2 16.4c.8 8.4-3.7 10.7-7.1 10.4-3.3-.3-5.3-2.9-4.4-5.5 1-3 4.1-2.2 4.2-1.3-1.9.1-2.1 2.2-1.4 3.1 1 1.3 4.8 1.5 5-2.3s-2.3-5.7-5.8-5.2c-4.2.6-5.8 5-5.4 7.9.4 3.2 3.2 5.6 6.2 6 4 .5 7.3-2.3 8.1-3.5-.8 5.9-10.7 9.2-15.9 2.1-2.7-3.7-1.2-6.6-3.8-7.7-1.4-.6-3 0-3 0 .8-2 2.7-3.3 5.3-2.1 1.6-3.9 3-4.8 4.9-6.6 2.1-2.1-.8-4.7-2.6-3.7-.9.5-.6 2 .1 2.8-1.5.6-4-2-2.3-4.3 1.1-1.5 3-1.8 4.9-1.2 2.7.7 3.5 3.4 6.6 5.9 1.5 1.2 3.6 2 4.4-.2.5-1.2-1-2.9-1-2.9s3.6.2 4.8 3.8c1.3 3.4-1.8 4.5-1.8 4.5z"/></svg>