<svg enable-background="new 0 0 64 64" height="64" viewBox="0 0 64 64" width="64" xmlns="http://www.w3.org/2000/svg"><path d="m0 0h64v64h-64z" fill="none"/><path d="m55.3 31.5-4-6.9c-.3-.4-.6-.8-1-1.1-.2 1.1-.6 2.1-1.3 2.9l-21.7 25.8 26.5-15.3c2-1.1 2.6-3.5 1.5-5.4z"/><path d="m27.7 48.6 19.8-23.5c1.4-1.7 1.2-4.2-.5-5.6l-6.1-5.1c-.4-.3-.8-.5-1.3-.7.2 1 .1 2.1-.3 3.1z"/><path d="m37.5 16c.8-2.1-.3-4.4-2.4-5.1l-7.5-2.7c-.5-.2-.9-.2-1.4-.2.5.8.8 1.9.8 3v33.8z"/><path d="m21 7h-2v10h-4v-10h-2c-2.2 0-4 1.8-4 4v42c0 2.2 1.8 4 4 4h8c2.2 0 4-1.8 4-4v-42c0-2.2-1.8-4-4-4zm-4 45c-1.7 0-3-1.3-3-3s1.3-3 3-3 3 1.3 3 3-1.3 3-3 3z"/></svg>