<svg enable-background="new 0 0 64 64" viewBox="0 0 64 64" xmlns="http://www.w3.org/2000/svg"><path d="m40.3794 44.1041c-.8218-.0001-1.6047.1593-2.3276.4389-.3418.1039-.5347.187-.5347.187s-.0066-.2156.1104-.3908c.1775-.2661.6511-.5557 1.9917-1.0397.8071-.2916 1.6628-.4489 2.1851-.5202v-3.5518-17.5696h1.3276c.8683 0 1.5726-.7042 1.5726-1.5727v-1.2588c1.3846 0 2.5067-1.1224 2.5067-2.5069 0-1.3847-1.1221-2.5071-2.5067-2.5071-1.0331 0-1.9198.6251-2.3037 1.5176-.1014-.0764-.2146-.1415-.3392-.1906l-20.4864-8.0422c-.7183-.2818-1.5217.0526-1.7942.747l-.5348 1.3624c-.2729.6944.0885 1.486.807 1.7679l14.8616 5.8344h-16.5533c-.8685 0-1.5726.7039-1.5726 1.5726v1.7037c0 .8685.7041 1.5727 1.5726 1.5727h.8932l2.7453 35.3421h5l2-2h6.6917c.5933.6266 1.3076 1.136 2.1099 1.4858.4375.2147.9185.3556 1.4576.4347.3645.0638.7374.1035 1.1202.1035 3.5676 0 6.4604-2.8929 6.4604-6.4599 0-3.5682-2.8928-6.46-6.4604-6.46zm.0001 9.2121c-1.5201 0-2.7521-1.2325-2.7521-2.7521 0-1.5202 1.2319-2.7524 2.7521-2.7521 1.5199 0 2.7523 1.2319 2.7523 2.7521 0 1.5196-1.2324 2.7521-2.7523 2.7521z"/></svg>