<svg height="64" viewBox="0 0 64 64" width="64" xmlns="http://www.w3.org/2000/svg"><path d="m0 0h64v64h-64z" fill="none"/><path d="m33.99 14.6511c2.5383 1.9495 2.0325 2.2393 2.1045 4.8852.0378 1.2637.3623 2.4229 1.4303 3.3328.5905.496 1.5385.964 2.671 1.0192.4291.0173.4604-.5496.1638-.761l-.0073-.0052c-.9221-.5567-1.5032-1.0619-1.8654-1.5182-1.2196-1.5367.05-2.3176-.8572-4.9088-.5499-1.5708-1.7328-2.4849-3.406-2.8149-.363-.0711-.6422.4572-.2365.7688z"/><path d="m50 56h-2v-48.1648c0-1.1524-.7117-2.1874-1.7949-2.5803-2.4495-.8885-7.3335-2.2549-14.2051-2.2549s-11.7556 1.3664-14.2051 2.2549c-1.0832.3929-1.7949 1.4279-1.7949 2.5803v48.1648h-2c-.5522 0-1 .4477-1 1v4h38v-4c0-.5523-.4478-1-1-1zm-16.5535-44.5322c4.238-2.0159 7.9263.8478 9.7017 4.5801s1.6699 8.4006-2.5681 10.4166-7.9265-.8478-9.7019-4.5801-1.6697-8.4006 2.5683-10.4166zm-11.4465 4.5322c1.1045 0 2 .8954 2 2s-.8955 2-2 2-2-.8954-2-2 .8955-2 2-2zm0 7c1.1045 0 2 .8954 2 2s-.8955 2-2 2-2-.8954-2-2 .8955-2 2-2zm0 7c1.1045 0 2 .8954 2 2s-.8955 2-2 2-2-.8954-2-2 .8955-2 2-2zm14 26 1.8462-12h.1538c.5522 0 1-.4477 1-1s-.4478-1-1-1h-12c-.5522 0-1 .4477-1 1s.4478 1 1 1h.1538l1.8462 12h-7v-17h22v17z"/></svg>