<svg enable-background="new 0 0 64 64" viewBox="0 0 64 64" xmlns="http://www.w3.org/2000/svg"><path d="m52.3741 48.7813h-.5544s.0924-2.3085-1.5679-2.585c-1.6617-.2772-4.6155-.3688-8.1224-2.5843-3.5067-2.2153-4.0612-7.6596-4.2452-10.5708-.1841-2.9105 1.7534-20.7159 1.7534-21.362 0-.646-1.9375-.7384-4.8913-.646s-7.4286.6929-7.4286.6929.0014.7655.1208 3.2765c.1237 2.5956-.9979 10.7968-.9979 10.7968s.2765-5.6291.1841-8.1209-.3696-6.3682-.7384-6.6759c-.3682-.3063-1.7527-.1536-5.7222 0-3.9681.1549-7.5673.4925-8.3064.769-.7378.2772.1848 4.43.8316 11.9063.6453 7.4748 1.2914 9.9667 2.1229 13.6583.8302 3.6923.0917 4.7072-.2779 6.3682-.3682 1.661.1855 3.322.1855 3.322l-.6468.1856.8309 3.5992 2.5835.6461 2.8615-.1848s.8309.6461 2.0306 1.1998c1.1997.5536 5.9062.9225 10.1522.5536 2.6518-.2303 4.15-.7854 4.9027-1.1691.0121-.5246.027-1.0456.0433-1.4108.0057-.1244-.3959-.2389-.3973-.3568-.017-.9019-.1677-1.2359-.7648-1.8621-.6894-.722-1.9531-.9445-4.0754-1.8671-2.123-.9226-2.8472-2.9325-2.8472-2.9325s.5636.4819 2.253 1.3461c2.2616 1.1585 3.0676 1.3483 4.0725 1.7335 2.3497.9005 2.4891 1.742 2.661 3.3938v1.6183c.4798.0974 1.4456.295 2.3661.4918 1.2921.2771 3.5067 0 6.2751-.462 2.769-.4613 5.2609-1.0143 5.3533-1.3838.0924-.3697.0001-1.3839.0001-1.3839z"/></svg>