<svg height="64" viewBox="0 0 64 64" width="64" xmlns="http://www.w3.org/2000/svg"><path d="m0 0h64v64h-64z" fill="none"/><path d="m51.436 37.3015c-.7869-.3438-1.2036-1.0513-1.4258-1.794l-5.7451-1.1434c-.3173-.1018-.2708-.3079-.25-.3641h7.9849v-5.3387c0-.9175-.813-1.6613-1.8159-1.6613h-14.3682c-1.0029 0-1.8159.7438-1.8159 1.6613v5.3286h2.2234c-.0353 1.0775-.3185 2.726-1.6594 3.3116-2.564 1.1198-2.5027 1.2482-2.5027 4.6985v18c.0042 2.1313 7.9143 1.99 10.9387 1.99s10.9244.1413 10.9286-1.99c0 0 0-17.3585 0-18 0-3.4503.0714-3.5787-2.4926-4.6985zm-1.436 14.6985h-14v-10h14z"/><path d="m35.8159 25h3.2588l-7.0747-7v-6c0-.5518-.4482-1-1-1h-1v-4h3c.5522 0 1-.4478 1-1v-1.5049c0-.9434-.6506-1.7602-1.5735-1.9556-1.2395-.2625-3.2905-.5395-6.4264-.5395-4.892 0-11.8627 1.3482-14.2008 1.8307-.4653.0961-.7993.5047-.7993.9797v1.1896c0 .5522.4478 1 1 1h12v2.8103l4.1482.8256c.3171.1018.2708.3079.2499.3641h-5.3981c-.5518 0-1 .4482-1 1v6l-7.3279 7.3546c-1.1281 1.1281-1.7079 2.7009-1.5566 4.289l2.4362 25.4365c.0505.5112.4806.9009.9943.9009h13.454v-13.981c0-3.0415.0992-4.2273 2-5.5699v-7.7689c0-2.0187 1.7119-3.6612 3.8159-3.6612z"/></svg>