<svg height="64" viewBox="0 0 64 64" width="64" xmlns="http://www.w3.org/2000/svg"><path d="m0 0h64v64h-64z" fill="none"/><path d="m11.4 5.7 2.7 1.2 1.6-3.7-2.7-1.2c-1-.4-1.7.2-2.2 1.2-.4 1-.4 2 .6 2.5zm41.3 12.9c-1.6-.2-3.2-.4-4.9-.6l-30.7-13.6-1.2 2.7 23 10.2c-.6 0-1.1-.1-1.7-.1-1.7-.1-3.5-.1-5.2-.1-6.9 0-13.9.5-20.7 1.5-3.5.6-6.3 3.9-6.3 7.4v27.7c0 3.5 2.8 6.3 6.3 6.3h41.4c3.5 0 6.3-2.8 6.3-6.3v-27.7c0-3.5-2.8-6.8-6.3-7.4zm-43.7 10.4v-3c0-1.5 1.4-3.2 2.8-3.4 6.7-1 13.4-1.5 20.2-1.5s13.5.5 20.1 1.5c1.5.2 2.9 1.9 2.9 3.4v3zm6.8 6.5c0-.9.7-1.7 1.7-1.7s1.7.7 1.7 1.7c0 .9-.7 1.6-1.7 1.6s-1.7-.7-1.7-1.6zm.4 6c0 .9-.7 1.6-1.7 1.6s-1.7-.7-1.7-1.6.7-1.7 1.7-1.7 1.7.8 1.7 1.7zm4.3-1.7c.9 0 1.7.7 1.7 1.7 0 .9-.7 1.6-1.7 1.6s-1.7-.7-1.7-1.6.8-1.7 1.7-1.7zm1.3-4.3c0-.9.7-1.7 1.7-1.7s1.7.7 1.7 1.7c0 .9-.7 1.6-1.7 1.6s-1.7-.7-1.7-1.6zm4.7 4.3c.9 0 1.7.7 1.7 1.7 0 .9-.7 1.6-1.7 1.6s-1.7-.7-1.7-1.6.8-1.7 1.7-1.7zm1.3-4.3c0-.9.7-1.7 1.7-1.7s1.7.7 1.7 1.7c0 .9-.7 1.6-1.7 1.6s-1.7-.7-1.7-1.6zm-13.3 13.6c-.9 0-1.7-.7-1.7-1.6s.7-1.7 1.7-1.7 1.7.7 1.7 1.7c0 .9-.8 1.6-1.7 1.6zm3 6c-.9 0-1.7-.7-1.7-1.6s.7-1.7 1.7-1.7 1.7.7 1.7 1.7c0 .9-.8 1.6-1.7 1.6zm3-6c-.9 0-1.7-.7-1.7-1.6s.7-1.7 1.7-1.7 1.7.7 1.7 1.7c0 .9-.8 1.6-1.7 1.6zm3 6c-.9 0-1.7-.7-1.7-1.6s.7-1.7 1.7-1.7 1.7.7 1.7 1.7c0 .9-.8 1.6-1.7 1.6zm3-6c-.9 0-1.7-.7-1.7-1.6s.7-1.7 1.7-1.7 1.7.7 1.7 1.7c0 .9-.8 1.6-1.7 1.6zm3 6c-.9 0-1.7-.7-1.7-1.6s.7-1.7 1.7-1.7 1.7.7 1.7 1.7c0 .9-.8 1.6-1.7 1.6zm3-6c-.9 0-1.7-.7-1.7-1.6s.7-1.7 1.7-1.7 1.7.7 1.7 1.7c0 .9-.8 1.6-1.7 1.6zm0-6c-.9 0-1.7-.7-1.7-1.6s.7-1.7 1.7-1.7 1.7.7 1.7 1.7c0 .9-.8 1.6-1.7 1.6zm15.5 8c-3.9 0-7.1-3.2-7.1-7.1s3.2-7.1 7.1-7.1 7.1 3.2 7.1 7.1-3.2 7.1-7.1 7.1zm0-12.1c-2.8 0-5 2.2-5 5s2.2 5 5 5 5-2.2 5-5-2.2-5-5-5z"/></svg>