<svg height="64" viewBox="0 0 64 64" width="64" xmlns="http://www.w3.org/2000/svg"><path d="m0 0h64v64h-64z" fill="none"/><path d="m29.5 31c5.9531 0 10.939 4.1863 12.1898 9.7675 1.6915-.3578 3.2104-1.0947 4.5775-2.2507-2.1522-7.2277-8.8498-12.5168-16.7673-12.5168-4.3316 0-8.6184 1.5577-12.0828 4.8756l2.5386 4.5801c2.522-2.9929 6.011-4.4557 9.5442-4.4557z"/><path d="m29.5 56c-5.3531 0-9.9176-3.3887-11.6956-8.1284-2.0283-5.5198-6.3395-6.6683-11.2136-7.7563l-1.0938 4.8789c4.7006 1.052 6.2197 1.2923 7.8984 5.3545l.0024-.001c2.6707 6.2557 8.8819 10.6523 16.1022 10.6523 7.7953 0 14.4115-5.126 16.6682-12.1825-1.9247.7011-3.9401 1.0978-6.002 1.167-2.1968 3.5995-6.1495 6.0155-10.6662 6.0155z"/><path d="m15 23-4.7147 4.8294 4.7147 5.132z"/><path d="m10.0702 34-1.0702 4 6.6135-2.588z"/><path d="m42.1927 13.2292 1.3877-5.5508-6.3331-1.2604c-.3642-.1168-.311-.3535-.287-.418h7.0397l-2-4h-5l-2 4 1.8034 7.2137c-6.5961 1.0259-11.9839 5.7457-13.9736 11.9744 2.8556-1.0396 4.6937-1.0847 6.0084-1.1797 2.1976-3.5956 6.1481-6.0084 10.6618-6.0084 6.8926 0 12.5 5.6074 12.5 12.5 0 7.0134-5.6967 12.5-12.5 12.5-5.9486 0-10.931-4.1802-12.1866-9.755-1.6826.3562-3.1646 1.0356-4.5717 2.2189l-.0115.0098c2.1493 7.2325 8.8488 12.5263 16.7698 12.5263 9.5492 0 17.5-7.7061 17.5-17.5 0-8.7315-6.4351-15.9689-14.8073-17.2708z"/></svg>