<svg height="64" viewBox="0 0 64 64" width="64" xmlns="http://www.w3.org/2000/svg"><path d="m0 0h64v64h-64z" fill="none"/><path d="m57 7h-2c-1.1046 0-2 .8954-2 2v6h-1.6933c-.2925 1.567-.691 2.3304-.8519 2.6636-.1357.2812-.3174.3636-.4548.3278v-2.4914c0-1.925-1.575-3.5-3.5-3.5-1.7538 0-3.2029 1.3116-3.4492 3h-.0508-8.6933c-.2925 1.567-.691 2.3304-.8519 2.6636-.1357.2812-.3174.3636-.4548.3278v-2.4914c0-1.925-1.575-3.5-3.5-3.5-1.7538 0-3.2029 1.3116-3.4492 3h-.0508-1.6933c-.2925 1.567-.691 2.3304-.8519 2.6636-.1357.2812-.3174.3636-.4548.3278v-2.4914c0-1.925-1.575-3.5-3.5-3.5-1.7538 0-3.2029 1.3116-3.4492 3h-.0508-5v-6c0-1.1046-.8954-2-2-2h-2c-1.1046 0-2 .8954-2 2v48h6v-8h9 .0508c.2463 1.6884 1.6954 3 3.4492 3s3.2029-1.3116 3.4492-3h4.0508.0508c.2463 1.6884 1.6954 3 3.4492 3s3.2029-1.3116 3.4492-3h5.0508.0508c.2463 1.6884 1.6954 3 3.4492 3s3.2029-1.3116 3.4492-3h3.0508v8h6v-48c0-1.1046-.8954-2-2-2zm-4 37h-1.6933c-.2925 1.567-.691 2.3304-.8519 2.6636-.1357.2812-.3174.3636-.4548.3278v-2.4914c0-1.925-1.575-3.5-3.5-3.5-1.7538 0-3.2029 1.3116-3.4492 3h-.0508-3.6933c-.2925 1.567-.691 2.3304-.8519 2.6636-.1357.2812-.3174.3636-.4548.3278v-2.4914c0-1.925-1.575-3.5-3.5-3.5-1.7538 0-3.2029 1.3116-3.4492 3h-.0508-2.6933c-.2925 1.567-.691 2.3304-.8519 2.6636-.1357.2812-.3174.3636-.4548.3278v-2.4914c0-1.925-1.575-3.5-3.5-3.5-1.7538 0-3.2029 1.3116-3.4492 3h-.0508-9v-9h2 .0508c.2463 1.6884 1.6954 3 3.4492 3s3.2029-1.3116 3.4492-3h10.0508.0508c.2463 1.6884 1.6954 3 3.4492 3s3.2029-1.3116 3.4492-3h4.0508.0508c.2463 1.6884 1.6954 3 3.4492 3s3.2029-1.3116 3.4492-3h5.0508zm0-14h-3.6933c-.2925 1.567-.691 2.3304-.8519 2.6636-.1357.2812-.3174.3636-.4548.3278v-2.4914c0-1.925-1.575-3.5-3.5-3.5-1.7538 0-3.2029 1.3116-3.4492 3h-.0508-2.6933c-.2925 1.567-.691 2.3304-.8519 2.6636-.1357.2812-.3174.3636-.4548.3278v-2.4914c0-1.925-1.575-3.5-3.5-3.5-1.7538 0-3.2029 1.3116-3.4492 3h-.0508-8.6933c-.2925 1.567-.691 2.3304-.8519 2.6636-.1357.2812-.3174.3636-.4548.3278v-2.4914c0-1.925-1.575-3.5-3.5-3.5-1.7538 0-3.2029 1.3116-3.4492 3h-.0508-2v-10h5 .0508c.2463 1.6884 1.6954 3 3.4492 3s3.2029-1.3116 3.4492-3h3.0508.0508c.2463 1.6884 1.6954 3 3.4492 3s3.2029-1.3116 3.4492-3h10.0508.0508c.2463 1.6884 1.6954 3 3.4492 3s3.2029-1.3116 3.4492-3h3.0508z"/></svg>