<svg height="64" viewBox="0 0 64 64" width="64" xmlns="http://www.w3.org/2000/svg"><path d="m0 0h64v64h-64z" fill="none"/><path d="m13.1477 36.2076c.0557.5012.4793.748.9836.748s.928-.2468.9836-.748l.2803-2.5231c.0863-.7767-.4825-1.2136-1.264-1.2136s-1.3503.4368-1.264 1.2136z"/><path d="m14.1313 47.8613c.7815 0 1.3503-.4369 1.264-1.2136l-.2803-2.5232c-.0557-.5012-.4794-.7479-.9836-.7479-.5043 0-.928.2467-.9836.7479l-.2803 2.5232c-.0864.7767.4824 1.2136 1.2638 1.2136z"/><path d="m7.8861 38.0199 2.3253 1.0188c.4619.2023.8875-.0411 1.1396-.4779.2521-.4367.2503-.927-.1559-1.2258l-2.0449-1.5044c-.6295-.4631-1.2922-.1889-1.683.4879-.3908.6767-.2969 1.3878.4189 1.7014z"/><path d="m11.351 41.7713c-.2521-.4367-.6777-.6802-1.1396-.4778l-2.3253 1.0187c-.7158.3137-.8098 1.0247-.419 1.7015.3907.6768 1.0535.9509 1.683.4879l2.0449-1.5044c.4063-.2989.4081-.7891.156-1.2259z"/><path d="m54.7687 6.2072c-8.8039.3442-15.0669 2.7084-17.6266 3.8571-.6378.2861-.7839 1.1222-.2897 1.6165l7.1281 7.1281c-.025.0546-.1379.233-.4342.0807l-6.507-3.8104-15.549 15.549c-.4063.4063-.563 1.0161-.3599 1.5536.6042 1.5995 1.4768 3.0594 2.5563 4.338-1.8612 1.6-4.2024 2.4802-6.6823 2.4802h-3.001c-.5522 0-1 .4478-1 1s.4478 1 1 1h3.001c3.005 0 5.8379-1.0838 8.0766-3.0482.8203.743 1.7146 1.4064 2.6863 1.9557l-17.2631 17.2631c-.5858.5858-.3755 1.3253.2102 1.9111.5858.5858 1.3253.796 1.9111.2103l35.9191-35.9191 1.7926 1.7927c.4943.4943 1.3303.3481 1.6165-.2897 1.1486-2.5597 3.5129-8.8227 3.8571-17.6266.0226-.5782-.464-1.0648-1.0421-1.0421z"/></svg>