<svg height="64" viewBox="0 0 64 64" width="64" xmlns="http://www.w3.org/2000/svg"><path d="m0 0h64v64h-64z" fill="none"/><circle cx="20" cy="53" r="3.9639"/><circle cx="46" cy="53" r="3.9639"/><path d="m21.04 39h27.17s3.2729.3184 4-4c.6098-3.623 2.6001-19 2.6001-19s.0498-3-2.9502-3c-2.6847 0-24.3391 0-32.6659 0l-.4606-3.4038c-.2012-1.48-1.4795-2.5962-2.9727-2.5962h-5.7607c-1.1045 0-2 .8955-2 2 0 2.5825 4.3989 2.8007 7.0174 2.9585l3.1189 23.0452c-.1462.0368-4.1363 1.0877-4.1363 5.9963 0 4 2.2354 7 6.647 7h28.4873c2.3769 0 2.5959-3.8188 0-4 0 0-15.0401-.4707-28.0943-.75-.7646-.0166-2.2402-.25-2.2402-2.25 0-1.2222.7802-2 2.2402-2zm6.96-4h-5.8287l-.9474-7h6.7761zm15-18h7.6802l-1.3971 9.9387c-.0878.0222-.2753-.0246-.3378-.2981-.3165-1.3849-.6169-2.6406-.6169-2.6406h-5.3284zm0 11h6.1339l-.984 7h-5.1499zm-11-11h7v9.8758c-.0781.0226-.2605.0267-.3438-.1883-.5234-1.3516-1.0607-2.6875-1.0607-2.6875h-5.5955zm0 11h7v7h-7zm-4-11v9.8758c-.0797.0315-.2551.0308-.3399-.1836-.5117-1.2938-1.0646-2.6922-1.0646-2.6922h-5.9128l-.9473-7z"/></svg>