<svg height="64" viewBox="0 0 64 64" width="64" xmlns="http://www.w3.org/2000/svg"><path d="m0 0h64v64h-64z" fill="none"/><path d="m63 42-14.1831-20.0927c-.3983-.5644-1.2355-.5644-1.6338 0l-5.3073 7.5185 8.8759 12.5742z"/><path d="m7.644 23.0577c-1.9788 3.1577-.916 6.4826.8267 7.8085.1506.1146.2607.0819.2913.0251 0 0-.5803-3.8557 1.7832-6.7646.1738-.2138.3474-.173.3862-.0532-.1704.6012-.5581 2.0793-.5388 3.0291 0 0 .9067 3.6555 2.3035 7.1796l1.9834-2.8099c-1.0327-2.6381-1.9412-5.9931-2.3087-7.7247 0 0 2.3099-.8718 5.7919.7791.0762.0313.1626.0313.1337-.1091-.5358-2.6017-2.5472-3.8749-5.152-3.9519 0 0 1.6508-1.0452 6.3384-.9553.0537-.0422.0884-.0812.0137-.2443-1.2751-2.783-4.916-3.4722-7.3159-1.2255 0 0 .8467-2.1949 3.5723-3.5989.0078-.0496.0027-.1168-.1631-.1816-.5955-.2328-2.1982-.6413-4.177.2278-1.7812.7823-2.3617 2.2234-2.7532 3.4484 0 0-2.1196-1.4114-4.4893-.2058-1.9233.9783-2.6171 2.9598-2.8193 3.7235-.0515.1944-.0112.2264.0372.2394.5516-.3502 3.0913-1.863 4.9484-1.2804 0 0-1.1014.3762-2.2053 1.7838-1.1943 1.523-1.2686 3.7925-.3623 5.4543.0717.1315.1743.1706.2207.1288.242-.5609 1.6727-3.6649 3.6543-4.7222z"/><path d="m28.1831 16.1573-23.1831 32.8427h48l-23.1831-32.8427c-.3983-.5643-1.2355-.5643-1.6338 0z"/></svg>