<svg height="64" viewBox="0 0 64 64" width="64" xmlns="http://www.w3.org/2000/svg"><path d="m0 0h64v64h-64z" fill="none"/><path d="m17.5 37c2.8105 0 5.542-1.1914 7-1.9521 1.458.7607 4.1895 1.9521 7 1.9521s5.542-1.1914 7-1.9521c1.458.7607 4.1895 1.9521 7 1.9521 1.1212 0 2.2255-.1932 3.2457-.4695l1.9412-4.9605c-1.0786.5674-3.1857 1.52-5.1868 1.52-2.8506 0-5.8916-1.915-5.9189-1.9326l-1.0812-.6953-1.0811.6953c-.0302.0195-3.0859 1.9326-5.9189 1.9326-2.8506 0-5.8916-1.915-5.9189-1.9326l-1.0811-.6953-1.0811.6953c-.0302.0195-3.0859 1.9326-5.9189 1.9326-2.0102 0-4.1102-.9504-5.1861-1.5181l1.9404 4.9586c1.0202.2763 2.1245.4695 3.2457.4695z"/><path d="m55.1504 26-8.0713 21h-31.1582l-8.0713-21h-6.8496v5h3.4141l7.334 19.0791c.4423 1.1494 1.5673 1.9209 2.7988 1.9209h33.9062c1.2314 0 2.3564-.7715 2.8008-1.9238l7.332-19.0762h3.4141v-5z"/><path d="m18 18.8096c0 4.0056.8432 8.7863 1.4347 11.6512 1.2893-.3943 2.4467-1.0198 2.7938-1.243l2.2715-1.46 2.2715 1.46c.6514.4092 2.9238 1.582 4.7285 1.582 1.8818 0 4.209-1.248 4.7285-1.582l2.2715-1.46 2.2715 1.46c.4283.269 1.5592.8632 2.7953 1.2421.5915-2.8598 1.4332-7.6302 1.4332-11.6503 0 0-1.6298-.8533-4-1.7518v-6.5578c0-.2762-.2239-.5-.5-.5h-2.5v-3.5c0-.2762-.2239-.5-.5-.5h-12c-.2762 0-.5.2238-.5.5v3.5h-2.5c-.2762 0-.5.2238-.5.5v3.8931c1.683-.4659 3.7591-.885 6.1655-1.0569 4.1597-.2971 7.0955.9127 8.9664 2.0582.244.1494.3149.3262.2958.4954-1.9031-.5146-3.9633-.8898-5.9277-.8898-6.2612 0-13.5 3.8096-13.5 3.8096zm11 6.1904h-7v-3c0-.5527.4478-1 1-1s1 .4473 1 1v1h3v-1c0-.5528.4478-1 1-1s1 .4472 1 1zm5-3c0-.5527.4478-1 1-1s1 .4473 1 1v1h3v-1c0-.5528.4478-1 1-1s1 .4472 1 1v3h-7z"/></svg>