<svg enable-background="new 0 0 64 64" height="64" viewBox="0 0 64 64" width="64" xmlns="http://www.w3.org/2000/svg"><path d="m0 0h64v64h-64z" fill="none"/><path d="m36.8 32c7.5-4.7 14.5-10.9 12.9-25h-5.1c1.6 12-3.9 16.8-11.1 21.2-1.6 1-3.4 2-5.1 3.1 0-.1-.1-.2 0-.4l2.6-2.4c-1.7-1-3.3-2.1-4.8-3.2h7.8l.3-.2c1.4-.9 2.6-1.8 3.7-2.8h-15c-.9-1-1.6-2.1-2.2-3.4l19.3.9c.6-.9 1.2-1.9 1.6-2.9l-22-1.1c-.3-1.1-.5-2.3-.5-3.6l23.3 2c.2-.9.3-1.9.3-3l-23.6-2c0-.7.1-1.5.2-2.2h-5.1c-1.7 14.1 5.4 20.3 12.9 25-7.5 4.7-14.5 11-12.9 25h5.1c-1.7-12.8 4.7-17.4 12.6-22.1 2 1.2 4 2.4 5.7 3.8h-7.6c-.1.1-2.2 1.4-3.9 3h14.8c.6.7 1.2 1.5 1.7 2.3l-19.3 1c-.6.9-1 2-1.4 3.1l22-1.1c.3.8.5 1.7.6 2.6l-23.3 2c-.1.9-.1 1.9 0 3l23.6-2c0 1.4-.1 2.8-.3 4.4h5.1c1.6-14-5.4-20.3-12.9-25z"/></svg>