<svg height="64" viewBox="0 0 64 64" width="64" xmlns="http://www.w3.org/2000/svg"><path d="m0 0h64v64h-64z" fill="none"/><path d="m31.5 17c-8.5604 0-15.5 6.9396-15.5 15.5 0 6.236 3.6909 11.5975 9 14.0571v8.5475c0 .8794.5726 1.6557 1.4137 1.9127l1.5863.4848v1.4979c0 .5522.4477 1 1 1h5c.5522 0 1-.4478 1-1v-1.4995l1.582-.4832c.841-.257 1.418-1.0333 1.418-1.9127v-8.5475c5.3091-2.4597 9-7.8211 9-14.0571 0-8.5604-6.9396-15.5-15.5-15.5zm0 26.1978c-5.9082 0-10.6979-4.7896-10.6979-10.6978s4.7897-10.6979 10.6979-10.6979 10.6979 4.7897 10.6979 10.6979-4.7897 10.6978-10.6979 10.6978z"/><path d="m30.6759 12h1.6482c.894 0 1.5895-.7771 1.4908-1.6656l-.6509-5.8585c-.0934-.8402-.8036-1.4759-1.649-1.4759h-.03c-.8454 0-1.5556.6357-1.649 1.4759l-.6509 5.8585c-.0987.8885.5968 1.6656 1.4908 1.6656z"/><path d="m14.1896 18.4634c.5585.6981 1.5998.7558 2.232.1236l1.1654-1.1654c.6322-.6321.5746-1.6735-.1236-2.232l-4.6028-3.6823c-.6602-.5281-1.6118-.4754-2.2097.1224l-.0211.0212c-.5979.5978-.6506 1.5495-.1224 2.2097z"/><path d="m48.8104 46.5366c-.5585-.6982-1.5998-.7558-2.232-.1236l-1.1653 1.1654c-.6323.6321-.5746 1.6735.1235 2.232l4.6028 3.6822c.6602.5282 1.6118.4754 2.2097-.1224l.0211-.0212c.5979-.5978.6506-1.5494.1224-2.2096z"/><path d="m11 33.3241v-1.6482c0-.894-.7771-1.5896-1.6656-1.4908l-5.8585.6509c-.8402.0934-1.4759.8036-1.4759 1.649v.03c0 .8454.6357 1.5556 1.4759 1.649l5.8585.6509c.8885.0987 1.6656-.5968 1.6656-1.4908z"/><path d="m59.524 30.836-5.8585-.6509c-.8884-.0988-1.6655.5968-1.6655 1.4908v1.6482c0 .894.7771 1.5895 1.6656 1.4908l5.8585-.6509c.8402-.0934 1.4759-.8036 1.4759-1.649v-.03c0-.8454-.6357-1.5556-1.476-1.649z"/><path d="m16.4216 46.413c-.6322-.6322-1.6735-.5746-2.232.1236l-3.6822 4.6028c-.5282.6602-.4755 1.6118.1224 2.2096l.0211.0212c.5979.5978 1.5495.6506 2.2097.1224l4.6028-3.6822c.6982-.5585.7558-1.5999.1236-2.232z"/><path d="m46.5784 18.587c.6322.6322 1.6735.5745 2.232-.1236l3.6822-4.6028c.5282-.6602.4755-1.6119-.1224-2.2097l-.0211-.0212c-.5979-.5978-1.5495-.6505-2.2097-.1224l-4.6028 3.6823c-.6982.5585-.7558 1.5999-.1235 2.232z"/><path d="m31.5 24.0129c-4.6873 0-8.4871 3.7998-8.4871 8.4871s3.7998 8.487 8.4871 8.487 8.4871-3.7997 8.4871-8.487-3.7998-8.4871-8.4871-8.4871zm.9106 12.1493c1.06 0 1.6199-.0593 2.6799-.265v2.2675c-1.0899.2062-1.5611.265-2.8273.265-3.711 0-6.3321-1.7963-6.3321-5.5366 0-4.2116 3.0037-6.3027 6.6559-6.3027.9424 0 1.5611.0882 2.5035.2357l-.1763 2.3267c-1.061-.1768-1.5023-.2062-2.4159-.2062-2.1788 0-3.7986 1.2667-3.7986 3.7404-.0001 2.444 1.7373 3.4752 3.7109 3.4752z"/></svg>