<svg height="64" viewBox="0 0 64 64" width="64" xmlns="http://www.w3.org/2000/svg"><path d="m0 0h64v64h-64z" fill="none"/><path d="m53 17h-5.79c-.6029-1.2076-1.204-2.455-1.8035-3.7737-.6572-1.4398-1.956-2.554-3.3839-2.7256-1.4184-.4398-10.6269-.4397-12.0452 0-1.428.1716-2.7264 1.2858-3.3839 2.7256-.5994 1.3187-1.2005 2.5661-1.8034 3.7737h-4.7901v-1c0-1.1046-.8954-2-2-2h-4c-1.1046 0-2 .8954-2 2v1h-1c-2.7614 0-5 2.2386-5 5v23c0 2.7614 2.2386 5 5 5h11.9426c-2.0942-2.7552-3.3517-6.1813-3.3517-9.9091 0-.5883.031-1.1693.0914-1.7415.0323-.3065.2839-.3298.3619-.2766.0021-.0131.0059-.0258.008-.0388.5353 8.3522 7.4603 14.966 15.9478 14.966 8.4731 0 15.3896-6.5912 15.9457-14.9234.1328-.0657.3422.0005.3731.2825.0623.5688.0903 1.1469.0903 1.7318 0 3.7278-1.2575 7.1539-3.3517 9.9091h3.9426c2.7614 0 5-2.2386 5-5v-23c0-2.7614-2.2386-5-5-5zm-17 32.1c-6.6827 0-12.1-5.4174-12.1-12.1 0-6.6827 5.4173-12.1 12.1-12.1s12.1 5.4173 12.1 12.1c0 6.6826-5.4173 12.1-12.1 12.1zm17-24.1h-5v-3h5z"/></svg>