<svg enable-background="new 0 0 64 64" height="64" viewBox="0 0 64 64" width="64" xmlns="http://www.w3.org/2000/svg"><path d="m0 0h64v64h-64z" fill="none"/><path d="m25 24.5v6.9c4.5-2.3 7.5-7 7.5-12.4 0-7.7-6.3-14-14-14s-14 6.3-14 14c0 5.4 3 10.1 7.5 12.4v-6.9c0-3.6 2.9-6.5 6.5-6.5s6.5 2.9 6.5 6.5zm18 22v-3.5h1c.6 0 1-.4 1-1v-9c-3.1-2.4-4.5-4.7-4.8-5.3-.2-.4-.2-.7-.1-.9 2.8 2.2 6.7 4.3 10.9 5.9 3.2 1.2 6.1-1 6.9-4.9 1-5.3 1-13.4 0-18.3-.7-3.5-3.6-5.1-6.9-3.6-8.2 3.8-14.9 8-15 15.3v20.8c0 .6.4 1 1 1h1v3.5c0 6.3 5.2 11.5 11.5 11.5h8.5v-5h-8.5c-3.6 0-6.5-2.9-6.5-6.5zm-5.6 6.5h-9.9c-3.6 0-6.5-2.9-6.5-6.5v-3.5h1c.6 0 1-.4 1-1v-17.5c0-2.5-2-4.5-4.5-4.5s-4.5 2-4.5 4.5v17.5c0 .6.4 1 1 1h1v3.5c0 6.3 5.2 11.5 11.5 11.5h14.6c-2-1.3-3.6-3-4.7-5z"/></svg>