<svg enable-background="new 0 0 64 64" viewBox="0 0 64 64" xmlns="http://www.w3.org/2000/svg"><path d="m0 0h64v64h-64z" fill="none"/><path d="m48.609 24.084c.091-.289.29-.234.29-.234v3.15h9.203v-3.15s.214-.074.318.234c.187.553.344 1.596.432 2.916h2.683c-.232-4.091-1.082-7.591-4.124-8.316-.399-.095-.826-.168-1.262-.231-.393 1.126-1.056 2.838-1.721 3.706-.118-.67-.318-1.571-.533-2.176.293-.449.688-1.148.688-1.148s-.336-.548-1.102-.548c-.765 0-1.101.548-1.101.548s.395.698.688 1.148c-.214.602-.413 1.495-.531 2.164-.634-.868-1.287-2.571-1.68-3.698-.44.064-.87.138-1.267.236-3.035.745-3.887 4.234-4.122 8.316h2.689c.094-1.293.26-2.305.452-2.917z"/><path d="m5.609 24.084c.091-.289.29-.234.29-.234v3.15h9.203v-3.15s.214-.074.318.234c.187.553.344 1.596.432 2.916h2.683c-.232-4.091-1.082-7.591-4.124-8.316-.399-.095-.826-.168-1.262-.231-.393 1.126-1.056 2.838-1.721 3.706-.118-.67-.318-1.571-.533-2.176.293-.449.688-1.148.688-1.148s-.336-.548-1.102-.548c-.765 0-1.101.548-1.101.548s.395.698.688 1.148c-.214.602-.413 1.495-.531 2.164-.634-.868-1.287-2.571-1.68-3.698-.44.064-.87.138-1.267.236-3.036.744-3.888 4.233-4.123 8.315h2.689c.095-1.292.261-2.304.453-2.916z"/><path d="m2.587 33h3.304l.913 21h-3.804v3h15v-3h-3.804l.913-21h3.304l2.261-5h-20.348z"/><path d="m61.413 33 2.261-5h-20.348l2.261 5h3.304l.913 21h-3.804v3h15v-3h-3.804l.913-21z"/><path d="m10.5 16.755c2.221 0 3.505-1.564 3.505-3.815 0-2.565-1.343-3.94-3.505-3.94-2.278 0-3.506 1.626-3.506 3.94 0 2.439 1.286 3.815 3.506 3.815z"/><path d="m32 13.424c2.126 0 3.356-1.497 3.356-3.652 0-2.456-1.286-3.772-3.356-3.772-2.181 0-3.356 1.556-3.356 3.772 0 2.335 1.231 3.652 3.356 3.652z"/><path d="m39.775 14.382c-.414 2.625-1.042 5.77-1.042 5.77-.585-2.825-1.704-4.291-3.55-4.875-1.041-.329-2.053-.481-3.183-.481-1.129 0-2.142.152-3.183.481-1.847.585-2.965 2.051-3.55 4.875 0 0-.628-3.145-1.042-5.77-1.202.512-2.135 1.872-1.888 3.454.223 1.435.843 3.892 1.243 5.25.476 1.615 2.248 1.836 2.963.406.653-.963 1.065-3.025 1.352-3.864.094-.276.33-.701.33-.701-.448 1.876-.162 2.76.059 3.709.236 1.01.29 2.065.031 3.073-.488 1.897-2.048 4.384-2.048 10.436 0 0 1.556.422 4.062.206.083.135.049.311-.162.459-.186.13-.745.393-1.864.425l.398 10.765s2.469-.388 2.637-2.875c0 0 .208-6.1.304-8.942.125-.02.249-.039.378-.063.109-.02.218-.035.327-.052.094 2.776.306 8.985.306 8.985.126 2.564 2.646 2.947 2.646 2.947l.447-11.979c1.168.114 1.986.31 1.986.31 0-6.052-1.559-8.726-2.047-10.623-.259-1.008-.205-2.063.031-3.073.222-.949.507-1.833.059-3.709 0 0 .236.426.33.701.287.839.699 2.901 1.352 3.864.715 1.43 2.487 1.209 2.963-.406.401-1.358 1.02-3.815 1.243-5.25.246-1.582-.686-2.942-1.888-3.453z"/><path d="m53.5 16.755c2.221 0 3.505-1.564 3.505-3.815 0-2.565-1.343-3.94-3.505-3.94-2.278 0-3.506 1.626-3.506 3.94 0 2.439 1.286 3.815 3.506 3.815z"/></svg>