<svg enable-background="new 0 0 64 64" viewBox="0 0 64 64" xmlns="http://www.w3.org/2000/svg"><path d="m0 0h64v64h-64z" fill="none"/><path d="m30 16h-9v9h9zm-4.5 7c-1.381 0-2.5-1.119-2.5-2.5s1.119-2.5 2.5-2.5 2.5 1.119 2.5 2.5-1.119 2.5-2.5 2.5z"/><path d="m30 27h-9v9h9zm-4.5 7c-1.381 0-2.5-1.119-2.5-2.5s1.119-2.5 2.5-2.5 2.5 1.119 2.5 2.5-1.119 2.5-2.5 2.5z"/><path d="m32 30h12v3h-12z"/><path d="m50 57c1.1 0 2-.9 2-2v-4.612l-6.612 6.612z"/><path d="m17 52v-40h16.708l.932-3.135c.109-.341.36-.231.36-.231v14.366c0 .552.448 1 1 1h14.367s.123.25-.219.359l-3.148.933v10.047l5-5v-6.51c0-.531-.211-1.04-.586-1.415l-14.828-14.828c-.375-.375-.884-.586-1.415-.586h-21.171c-1.104 0-2 .896-2 2v46c0 1.104.896 2 2 2h16.151l1.582-5z"/><path d="m32 44h6.339l3-3h-9.339z"/><path d="m59.094 33.269c-1.906-1.906-4.283-2.631-5.298-1.616l-19.482 19.483-2.847 8.995c-.149.471.294.914.765.765l8.996-2.847 19.482-19.482c1.015-1.015.29-3.392-1.616-5.298zm-23.838 24.572-.734-.734 1.425-4.504.917.521.719 1.655 1.574.684.587.957z"/><path d="m21 47h9v-9h-9zm1.568-5.994c.349-.294.854-.29 1.2.009l1.124.974 2.16-2.417c.321-.359.854-.413 1.24-.127s.49.812.24 1.224l-2.767 4.55c-.167.274-.469.444-.79.444-.324-.001-.627-.173-.793-.448l-1.812-3.025c-.235-.392-.152-.89.198-1.184z"/></svg>