<svg enable-background="new 0 0 64 64" height="64" viewBox="0 0 64 64" width="64" xmlns="http://www.w3.org/2000/svg"><path d="m0 0h64v64h-64z" fill="none"/><path d="m30.6 15.9c0-.4-.1-.7-1-.7h-.4v1.6h.5c.5-.1.9-.4.9-.9z"/><path d="m40.5 18.8c.6 0 1.2-.5 1.2-1.8 0-1.2-.4-1.9-1.2-1.9-.6 0-1.2.5-1.2 1.8s.4 1.9 1.2 1.9z"/><path d="m36.1 18.2c0-.3-.1-.7-1.2-.7h-.3v1.4h.5c.6 0 1-.2 1-.7z"/><path d="m24.5 15.5-.6 2.1h1.2z"/><path d="m35.8 15.7c0-.4-.2-.6-.9-.6h-.4v1.3h.3c.9 0 1-.3 1-.7z"/><path d="m26 29h14c3.3 0 6-2.7 6-6v-6c0-7.4-3.4-14-13-14s-13 6.6-13 14v6c0 3.3 2.7 6 6 6zm14.6-15.1c1.6 0 2.5 1.2 2.5 3.1 0 2.2-1.3 3.2-2.7 3.2-1.6 0-2.5-1.2-2.5-3.1 0-2.2 1.3-3.2 2.7-3.2zm-7.4.1h1.8c2 0 2.3 1 2.3 1.5 0 .6-.2 1.1-.6 1.3.6.2.9.7.9 1.3 0 1.2-.8 1.9-2.4 1.9h-1.9v-6zm-5.3 0h1.8c1.4 0 2.2.7 2.2 1.8 0 .8-.3 1.4-1 1.7l1.5 2.6h-1.4l-1.3-2.2h-.5v2.2h-1.3zm-4.2 0h1.8l1.8 6.1h-1.5l-.4-1.3h-1.8l-.4 1.3h-1.4z"/><path d="m48.3 23c0 2.8-.1 5.3-.2 7.4 0 .5-.4.8-.9.9-2.1.2-7.8.9-14.2.9s-12.1-.6-14.2-.9c-.5-.1-.8-.4-.9-.9-.2-2.1-.2-4.5-.2-7.4 0-5.3-7.7-5.2-7.7-.7v1.7c0 1.1.9 2 2 2h3c.1 4.6.4 8 1.2 10.4.3.8.9 1.4 1.7 1.8 2.4 1.2 7.1 2.8 15 2.8h1c0 .1 0 .2-.3.3-.4.2-1.8.7-3.7 1.2v6.1l-12.3 2.2c-1 .2-1.7 1-1.7 2v.7c-1.2.6-2 1.8-2 3.2 0 1.9 1.6 3.5 3.5 3.5s3.5-1.6 3.5-3.5c0-1.2-.6-2.3-1.5-2.9l11.1-1.3.3 1.5c-.8.6-1.3 1.6-1.3 2.7 0 1.9 1.6 3.5 3.5 3.5s3.5-1.6 3.5-3.5c0-1.1-.5-2.1-1.3-2.7l.3-1.5 11.1 1.3c-.9.6-1.5 1.7-1.5 2.9 0 1.9 1.6 3.5 3.5 3.5s3.5-1.6 3.5-3.5c0-1.4-.8-2.6-2-3.2v-.7c0-1-.7-1.8-1.7-2l-12.4-2.3v-7.6c6.1-.3 9.9-1.7 12-2.7.8-.4 1.4-1 1.7-1.8.9-2.4 1.2-5.8 1.3-10.4h3c1.1 0 2-.9 2-2v-1.7c0-4.5-7.7-4.5-7.7.7z"/></svg>