<svg height="64" viewBox="0 0 64 64" width="64" xmlns="http://www.w3.org/2000/svg"><path d="m0 0h64v64h-64z" fill="none"/><circle cx="48" cy="56" r="2"/><circle cx="41" cy="51" r="2"/><circle cx="32.5" cy="56.5" r="2.5"/><path d="m57.3621 19.2091-13.2203-13.2203c-.7811-.7811-2.0474-.7811-2.8284 0l-35.2309 35.1694c-2.7026 2.7021-2.7026 7.1001 0 9.8032l3.9902 3.9902c1.3091 1.3096 3.0498 2.0308 4.9019 2.0308h4.6328c1.8525 0 3.5933-.7212 4.9019-2.0308l32.8528-32.9141c.781-.781.781-2.0473 0-2.8284zm-35.6814 32.9144c-.5532.5537-1.2896.8589-2.0732.8589h-4.6328c-.7832 0-1.5195-.3052-2.0732-.8589l-3.9902-3.9902c-1.1436-1.1436-1.1436-3.0039-.0005-4.147l13.243-13.2429 10.4534 10.4536z"/></svg>