<svg height="64" viewBox="0 0 64 64" width="64" xmlns="http://www.w3.org/2000/svg"><path d="m0 0h64v64h-64z" fill="none"/><path d="m57.6462 21.8376-7.1137-13.3188c-.233-.4363-.6195-.7709-1.0848-.9389l-15.4477-5.5799 2.2573 15.8013c4.4818 1.2274 17.1561 4.6994 17.4471 4.7928.3536.1134.3019.3432.2787.4059h-43.9662c-.0233-.0627-.0749-.2925.2787-.4059.291-.0934 12.9654-3.5654 17.4471-4.7928l2.2573-15.8013-15.4478 5.5799c-.4653.168-.8517.5026-1.0848.9389l-7.1136 13.3187c-.2323.4349-.3538.9204-.3538 1.4135v35.749c0 .5523.4477 1 1 1h50c.5523 0 1-.4477 1-1v-35.749c0-.4931-.1215-.9785-.3538-1.4134zm-32.6462 16.1624c0 2.4189-1.7178 4.4359-4 4.8992v3.1662c1.1848.1031 3 .3552 3 .9346v.5c0 .2761-.2239.5-.5.5h-3.5-.648-2.852c-.2761 0-.5-.2239-.5-.5v-.5c0-.5793 1.8152-.8314 3-.9346v-3.1662c-2.2822-.4634-4-2.4803-4-4.8992v-4h10zm10.5-4 4 5h-2.5v5h-3v-5h-2.5zm13.5 14h-17v-2h17zm-2-9v5h-3v-5h-2.5l4-5 4 5z"/></svg>