<svg height="64" viewBox="0 0 64 64" width="64" xmlns="http://www.w3.org/2000/svg"><path d="m0 0h64v64h-64z" fill="none"/><path d="m22.2334 32.6947 7.0092 11.6978c.296.4936.8288.7967 1.404.7985h.006c.5728 0 1.1056-.2989 1.4039-.7897l10.7041-17.6013c.4414-.7256.2569-1.6681-.425-2.1734-.6843-.5054-1.6384-.4079-2.2043.2249l-9.6255 10.769-5.7864-5.0122c-.612-.5291-1.5153-.5363-2.132-.0165-.6192.519-.7684 1.4104-.354 2.1029z"/><path d="m50 10h-5.9203c-.0172 1.2681-.0641 2.5871-.3789 4.0855-.0672.3195-.1734.6225-.3007.9145h3.5999v40h-30v-40h3.5999c-.1273-.2921-.2336-.5952-.3007-.9147-.3147-1.4983-.3616-2.8172-.3788-4.0853h-5.9204c-1.1045 0-2 .8955-2 2v46c0 1.1045.8955 2 2 2h36c1.1001 0 2-.9004 2-2v-46c0-1.1045-.8955-2-2-2z"/><path d="m25.3753 16h6.6247 6.6248c1.451 0 2.7108-.9668 2.9964-2.3259.3403-1.6202.3303-3.0484.3473-4.5156.0087-.7534-.5296-1.4023-1.2728-1.5262l-1.8253-.3042c-.9433 1.7096-1.9902 2.7044-2.2794 2.938-.6104.4933-.9493.5424-1.1351.3608.0104-.0157.017-.0322.027-.048.9334-.9082 1.5171-2.1736 1.5171-3.5789 0-2.7614-2.2386-5-5-5s-5 2.2386-5 5c0 .0056.0016.0106.0016.0162l-3.6973.6162c-.7432.1238-1.2816.7728-1.2728 1.5262.017 1.4672.007 2.8953.3473 4.5156.2857 1.359 1.5455 2.3258 2.9965 2.3258zm6.6247-11.255c1.2454 0 2.255 1.0096 2.255 2.255s-1.0096 2.2549-2.255 2.2549-2.255-1.0095-2.255-2.2549 1.0096-2.255 2.255-2.255z"/></svg>