<svg height="64" viewBox="0 0 64 64" width="64" xmlns="http://www.w3.org/2000/svg"><path d="m0 0h64v64h-64z" fill="none"/><path d="m54 7h-39c-1.1045 0-2 .8955-2 2v5.4166l7.1328 2.214c.3252.105.2061.3694.2061.3694-.032 0-4.3389.0015-7.3389.0015-1.2578.0145-3.3467.057-4.1211.1826-.665.1089-1.8789.2265-1.8789 1.1958v2.8555c0 .9687 1.228 1.1762 1.8936 1.2841.7733.1255 2.8526.2995 4.1064.3982v5.4989l7.125 2.2084c.3252.105.2139.375.2139.375-.032 0-4.3389.0015-7.3389.0015-1.2578.0145-3.3467.057-4.1211.1826-.665.1089-1.8789.2265-1.8789 1.1958v2.8555c0 .9687 1.228 1.1762 1.8936 1.2841.7733.1255 2.8526.2995 4.1064.3982v5.5121l7.125 2.203c.3252.105.2139.3672.2139.3672-.0116 0-4.3389.0015-7.3389.0015-1.2578.0145-3.3467.057-4.1211.1826-.665.1089-1.8789.2265-1.8789 1.1958v2.8555c0 .9687 1.228 1.1762 1.8936 1.2841.7733.1255 2.8526.2995 4.1064.3982v6.0823c0 1.1045.8955 2 2 2h39c1.1045 0 2-.8955 2-2v-48c0-1.1045-.8955-2-2-2zm-19 35h-9.2s.557-4.1661 1.6142-5.2723c.8478-.887 3.7655-1.9609 4.9087-2.3583.102-.4122.1763-.8093.2276-1.1543-.6577-.7572-1.1499-1.6654-1.285-2.7097-.6664-.1973-.8-1.5215-.8-2.0197 0-.4986.0911-.7681.2778-.8518.0435-.0195.0848-.0186.1267-.0223-.0934-.7712-.3502-3.3882.3441-4.2925.5599-.729 1.6232-1.1657 2.5939-1.4333 1.3976-.3851 1.9407-.1175 2.7383.3102 1.2163-.3097 1.8543.1522 2.3788 1.1003.5523.997.2741 3.5435.1745 4.3101.051.0007.1031.0034.157.0275.1867.0837.2779.3532.2779.8518 0 .4982-.1337 1.8224-.8001 2.0197-.1679 1.0833-.6506 1.9809-1.3019 2.7287.0494.3396.126.729.2363 1.1324 1.1376.3953 4.0672 1.4722 4.917 2.3612 1.0571 1.1062 1.6142 5.2723 1.6142 5.2723z"/></svg>