<svg height="64" viewBox="0 0 64 64" width="64" xmlns="http://www.w3.org/2000/svg"><path d="m0 0h64v64h-64z" fill="none"/><path d="m21 40.2319c.6871.222 1.4423.3783 2.2178.3783 1.7469 0 3.3985-.7844 4.3729-1.358.9744.5736 2.6259 1.358 4.3729 1.358s3.3986-.7844 4.3729-1.358c.9744.5736 2.6259 1.358 4.3729 1.358.8039 0 1.5839-.1696 2.2907-.4048v-3.0843c-.7028.3576-1.4918.6394-2.2907.6394-1.794 0-3.5828-1.4115-4.3729-2.0043-.7289.5469-2.5398 2.0043-4.3729 2.0043-1.794 0-3.5828-1.4115-4.3729-2.0043-.7289.5469-2.5398 2.0043-4.3729 2.0043-.7422 0-1.5485-.2838-2.2178-.603z"/><path d="m21 33.6725c.6871.222 1.4423.3783 2.2178.3783 1.7469 0 3.3985-.7843 4.3729-1.358.9744.5737 2.6259 1.358 4.3729 1.358s3.3986-.7843 4.3729-1.358c.9744.5737 2.6259 1.358 4.3729 1.358.8039 0 1.5839-.1696 2.2907-.4047v-3.0844c-.7028.3576-1.4918.6394-2.2907.6394-1.794 0-3.5828-1.4115-4.3729-2.0043-.7289.5469-2.5398 2.0043-4.3729 2.0043-1.794 0-3.5828-1.4115-4.3729-2.0043-.7289.5469-2.5398 2.0043-4.3729 2.0043-.7422 0-1.5485-.2838-2.2178-.603z"/><path d="m27.5906 26.1335c.9744.5737 2.6259 1.358 4.3729 1.358s3.3986-.7843 4.3729-1.358c.9744.5737 2.6259 1.358 4.3729 1.358.8039 0 1.5839-.1696 2.2907-.4047v-3.0844c-.7028.3576-1.4918.6394-2.2907.6394-1.794 0-3.5828-1.4115-4.3729-2.0043-.7289.5469-2.5398 2.0043-4.3729 2.0043-1.794 0-3.5828-1.4115-4.3729-2.0043-.7289.5469-2.5398 2.0043-4.3729 2.0043-.7422 0-1.5485-.2838-2.2178-.603v3.0743c.6871.222 1.4423.3783 2.2178.3783 1.747.0001 3.3986-.7842 4.3729-1.3579z"/><path d="m51.4601 38.4077c-2.6984 8.1723-10.3953 14.0923-19.4601 14.0923-10.6876 0-19.798-8.2983-20.4393-19.3011.0485-.0458.1397-.0444.2493.132.1625.2618 1.0245 2.6849 1.0757 2.8292l2.7529 1.6225c.6578.3889 1.4984.2437 1.9912-.3378.493-.5833.4936-1.4366.0012-2.0199l-6.8933-8.1824c-.3062-.364-.7618-.569-1.2377-.5567-.4759-.0123-.9315.1927-1.2377.5567l-6.8933 8.1825c-.4924.5833-.4919 1.4366.0012 2.0199.4929.5815 1.3334.7266 1.9912.3378l3.4189-2.015c1.8268 12.2802 12.4392 21.7323 25.2197 21.7323 11.4647 0 21.1843-7.6064 24.3833-18.0369-1.4718.8964-3.3682.7906-4.9232-1.0554z"/><path d="m62.6299 27.2405c-.4929-.5815-1.3334-.7267-1.9912-.3378l-3.3377 1.9671c-1.5489-12.5883-12.3008-22.3698-25.301-22.3698-11.7655 0-21.6907 8.0119-24.619 18.8649 1.4092-1.0162 3.5554-.9909 4.9971.7207 2.5455-8.428 10.3747-14.5856 19.6219-14.5856 11.0598 0 20.1918 8.8326 20.4737 19.9804-.047.0536-.1432.0607-.2535-.131-.1353-.2352-.7562-2.1653-.9344-2.7232l-2.9244-1.7236c-.6578-.3889-1.4984-.2437-1.9912.3378-.493.5833-.4936 1.4366-.0012 2.0199l6.8933 8.1824c.3062.364.7618.569 1.2377.5568.4759.0123.9315-.1928 1.2377-.5568l6.8933-8.1824c.4925-.5832.4919-1.4365-.0011-2.0198z"/></svg>