<svg height="64" viewBox="0 0 64 64" width="64" xmlns="http://www.w3.org/2000/svg"><path d="m0 0h64v64h-64z" fill="none"/><path d="m20.043 32.25c1.8793 0 4.4061-2.1797 6-3.3755 1.5582 1.1688 4.1201 3.3755 6 3.3755 1.2341 0 2.838-1.0033 3.8966-1.7974-.0505-7.9432.0469-22.1245.0469-23.2408 0-1.3368-5.0754-2.2118-11.4598-2.2118-10.0608 0-11.5098 1.1875-11.5098 2.2118 0 5.6448.7645 14.3698 1.3914 21.9368 1.5207 1.1407 3.8323 3.1014 5.6347 3.1014z"/><path d="m45.7663 44.238c-4.241-.4163-6.8581-1.9807-8.308-4.3316-1.5354.6837-3.4139 1.2537-5.4153 1.2537-2.2627 0-4.3701-.728-6-1.5259-1.6299.7979-3.7373 1.5259-6 1.5259-1.7697 0-3.4408-.4472-4.8663-1.0229.0461 1.2565.0606 2.2847.005 2.9949-.2874 3.6694-.147 8.5295-.0564 10.8193.0342.8654.5656 1.6161 1.3641 1.9514 2.747 1.1531 6.7685 1.3179 9.0652.8266 1.0187-.2179 1.7368-1.1096 1.7368-2.1513v-.4721c12.5505 4.1835 23.0228 2.5703 26.9907 1.6429.9902-.2314 1.6869-1.1234 1.6979-2.1403.0645-5.9723.0885-8.3593-10.2137-9.3706z"/><path d="m56.043 34.75c-2.4615 0-4.9159-1.9367-6-2.75-1.0001.7503-3.4848 2.75-6 2.75-2.4615 0-4.9159-1.9367-6-2.75-1.0001.7503-3.4848 2.75-6 2.75-2.4615 0-4.9159-1.9367-6-2.75-1.0001.7503-3.4848 2.75-6 2.75-2.4615 0-4.9159-1.9367-6-2.75-1.0001.7503-3.4848 2.75-6 2.75-1.0184 0-2.1246-.3893-3.043-.8273v4.2183c.9427.3047 1.9789.519 3.043.519 2.397 0 4.6631-1.0762 6-1.8633 1.3369.7871 3.603 1.8633 6 1.8633s4.6631-1.0762 6-1.8633c1.3369.7871 3.603 1.8633 6 1.8633s4.6631-1.0762 6-1.8633c1.3369.7871 3.603 1.8633 6 1.8633s4.6631-1.0762 6-1.8633c1.3369.7871 3.603 1.8633 6 1.8633 1.0322 0 2.0372-.2025 2.957-.4926v-4.203c-.8999.4195-1.9733.7856-2.957.7856z"/></svg>