<svg xmlns="http://www.w3.org/2000/svg" viewBox="0 -12 44 88">
    <path fill="var(--rvo-logo-emblem-background-color, #154273)" d="M0-12h44v88H0z" />
    <path fill="var(--rvo-logo-emblem-color, #FFFFFF)"
        d="M22.764 56.35h-.765v-2.123h.765v2.123zm3.45-9.353h-.765v-2.123h.765v2.123zm-14.166-3.661c-.058 0-.455.002-.455.084s.184.041.455.084c.611.105.854.414 1.283.414.39 0 .789-.266.635-.828-.026-.094-.083-.072-.094-.008-.061.25-.371.396-.697.396-.404.001-.49-.142-1.127-.142zm-4.213 2.122c.066.092.79 1.03-.319 1.387-.05.017-.066.064.007.097.819.342 1.215-.287 1.215-.287.413.94-.219 1.465-.219 1.465.089.17.481.455 1.076.588.224-.121.542-.352.671-.707 0 0 .161.412.014.805 1.672.152 2.264-1.186 3.552-.943.037.007.055-.018.055-.057 0-.824-.506-2.33-2.101-2.637-1.588-.309-1.161-.961-1.161-.961.672-.029 1.059.262 1.059.262.122-.201-.052-.418-.052-.418.065-.076.101-.35.101-.35-.756 0-.954-.164-.954-.164-.117-.447.196-1.08 1.318-.402.279-.25.258-.631.258-.631.083-.039.135-.172.135-.229 0-.188-.896-.688-1.126-.75-.055-.271-.403-.662-1.458-.521-.499.062-.858-.069-.69-.358.028-.049-.061-.06-.107-.011-.115.115-.275.441.161.66.485.244.513.729.518.799.007.104-.116.113-.143.011-.223-.818-1.341-.996-2.004-.562.039.438.509.729.769.729.149 0 .355-.146.355-.353 0-.101.051-.086.079-.01.11.291-.319.896-.961.526-.652.65-.392 1.455-.326 1.752.117.531-.144 1.047-.623.806-.025-.011-.05-.021-.05.037.001.337.436.714.951.427zm3.591-3.288c-.306.34-.8.264-.919-.297.625-.033.892.031.919.297zm19.398 1.309c-.327 0-.635-.146-.695-.396-.016-.064-.068-.088-.092.008-.155.564.24.828.634.828.429 0 .669-.309 1.282-.414.268-.045.453-.002.453-.084s-.396-.084-.453-.084c-.639-.001-.726.142-1.129.142zm6.289 1.553c0-.058-.023-.048-.047-.037-.48.239-.739-.272-.623-.806.063-.297.324-1.102-.325-1.752-.642.367-1.074-.235-.964-.526.029-.078.078-.091.078.01 0 .203.209.353.354.353.259 0 .729-.291.771-.729-.662-.435-1.779-.258-2.002.562-.027.104-.152.093-.145-.011a.942.942 0 01.518-.799c.437-.219.275-.545.162-.66-.051-.049-.138-.038-.108.011.169.291-.192.422-.688.358-1.054-.142-1.402.25-1.457.521-.229.06-1.128.562-1.128.75 0 .056.054.189.138.229 0 0-.021.381.258.631 1.121-.678 1.433-.045 1.318.402 0 0-.199.164-.955.164 0 0 .034.273.102.35 0 0-.174.217-.053.418 0 0 .388-.291 1.06-.262 0 0 .426.652-1.164.961-1.593.307-2.101 1.812-2.101 2.637 0 .039.018.062.056.055 1.29-.239 1.88 1.097 3.551.944-.146-.394.017-.806.017-.806.131.354.449.586.672.707.596-.133.986-.418 1.076-.588 0 0-.631-.523-.219-1.465 0 0 .396.629 1.215.287.071-.031.057-.08.008-.097-1.108-.356-.387-1.295-.319-1.387.511.288.944-.089.944-.425zm-3.619-3.158c-.119.56-.615.637-.918.297.026-.267.293-.331.918-.297zM21.705 32.48c0 .142.061.266.11.334.097.14.084.218.037.263-.047.047-.123.062-.263-.035a.608.608 0 00-.333-.11c-.243 0-.362.157-.362.295 0 .135.119.293.362.293a.624.624 0 00.333-.109c.14-.098.216-.082.263-.035.047.043-.02.529-.076.91-.399.086-.591.404-.591.592 0 .479.513.758.814.918.303-.16.817-.438.817-.918 0-.188-.194-.506-.592-.592-.055-.381-.122-.865-.075-.91.045-.047.125-.062.264.035.066.049.19.109.333.109.24 0 .359-.158.359-.293 0-.138-.119-.295-.359-.295a.592.592 0 00-.333.11c-.14.099-.219.082-.264.035-.047-.045-.062-.123.036-.263a.6.6 0 00.109-.334c0-.24-.159-.361-.294-.361-.137.002-.295.121-.295.361zm.294 3.571a.585.585 0 100 1.166.585.585 0 000-1.166zm0 5.635c2.347 0 3.672.447 3.672.447.011-1.184.003-1.846.683-1.746-.371-.994 1.229-1.387 1.229-2.684 0-.855-.604-.953-.785-.953-.528 0-.446.346-.897.346-.057 0-.114-.014-.114.025 0 .148.127.404.333.404.277 0 .285-.275.49-.275.088 0 .218.072.218.355 0 .553-.362 1.164-.789 1.639a.473.473 0 00-.392-.221c-.252 0-.474.264-.474.588 0 .121.019.207.062.311-.144.08-.269.125-.363.125-.189 0-.482-.078-.482-.5 0-.939 1.262-1.77 1.262-2.959 0-.568-.379-1.135-1.174-1.135-.854 0-.693.777-1.431.777-.034 0-.062.01-.062.041 0 .049.129.479.51.479.406 0 .521-.705.883-.705.137 0 .339.08.339.559 0 .371-.187.972-.45 1.547a.537.537 0 00-.369-.166c-.318 0-.545.308-.545.673 0 .229.092.452.248.6-.186.24-.375.433-.635.433-.509 0-.733-.289-.733-.604 0-.34.622-.465.622-.996 0-.36-.234-.565-.459-.565-.245 0-.369.162-.394.162-.023 0-.148-.162-.392-.162-.226 0-.461.203-.461.565 0 .531.623.656.623.996 0 .313-.227.604-.734.604-.259 0-.448-.193-.635-.433a.822.822 0 00.247-.6c0-.365-.226-.673-.541-.673a.541.541 0 00-.373.166c-.264-.573-.448-1.176-.448-1.547 0-.479.203-.559.338-.559.359 0 .474.705.884.705.38 0 .508-.43.508-.479 0-.031-.027-.041-.06-.041-.737 0-.579-.777-1.43-.777-.795 0-1.176.566-1.176 1.135 0 1.191 1.263 2.021 1.263 2.959 0 .422-.292.5-.483.5-.095 0-.222-.045-.366-.125a.727.727 0 00.062-.311c0-.324-.222-.588-.473-.588a.473.473 0 00-.389.221c-.429-.475-.789-1.086-.789-1.639 0-.283.128-.355.216-.355.206 0 .212.275.49.275.205 0 .333-.254.333-.404 0-.041-.058-.025-.114-.025-.453 0-.369-.346-.899-.346-.178 0-.782.098-.782.953 0 1.297 1.6 1.688 1.229 2.684.679-.098.669.562.683 1.746-.002 0 1.32-.447 3.666-.447zm-4.301 1.752a16.96 16.96 0 00-1.301.334c.01-.282.117-.543.369-.602.033-.01.04-.053.011-.07-.568-.379-.875.346-.883.369-.201-.016-.509.049-.509.32 0 .814-1.866 1.268-2.296 1.334.763.293 1.08 1.254 1.08 1.254.553-.553 1.198-1.041 1.34-1.041.147 0 .203.184.214.293.001.037.037.049.061.018.289-.432.148-.528.126-.655-.019-.101.011-.479.434-.435v5.439l-.217.043c-.1.02-.896-.658-1.807-1.289-.909-.629-1.399-.252-2.437.311-1.359.734-2.733.068-2.733.068-1.173.836-1.572 3.258-1.572 3.258-.233.1-.62.205-.986.205-.896 0-1.059-.541-1.059-.865 0-1.379 1.729-1.973 1.729-3.334 0-.33-.151-1.672-1.814-1.672l-1.486-.004c-.623 0-.778-.447-.864-.617-.035-.066-.098-.03-.075.024.048.114-.071.287-.071.633 0 .554.326.886.929.886.274 0 .534-.078.618-.127.056-.033.086.021.059.051-.263.309-.284.885-.176 1.024.025.033.058.022.064-.004.146-.582.692-1.135 1.428-1.135.903 0 .898.766.898.95 0 1.107-1.946 1.921-1.946 3.441 0 1.547 1.632 1.877 2.578 1.633-.056 1.547-1.826 2.072-1.88.967-.004-.052-.042-.063-.072.007-.224.547-.135 1.026.554 1.18.047.013.023.037-.019.065-.682.434-.312 2.139-.278 2.639.051.725-.668.639-.727.615-.031-.012-.059.004-.014.061.51.625 1.139.055 1.139.055.476.15.182.556-.136.769-.05.035-.046.065.008.069.071.007.807.066.938-.521.326.392.806.248.907.197.142-.072.833-.324.9.453.004.055.037.02.061-.011.52-.655-.037-1.062-.348-1.106a.523.523 0 01.818.096c.023.033.049.041.054-.024.042-.83-.634-.906-1.073-.545-.019-.084-.166-.554.496-.535.014 0 .047-.021.014-.055-.513-.543-.936-.05-1.034.067-.229.271-.797.162-.85.154.179-2.89 2.724-1.865 3.074-3.271.017-.074.049-.047.056-.02.097.344.96.391 1.119-.283.009-.043.004-.076-.025-.045-.737.736-2.398-1.564-.133-3.434 1.934-1.595 3.667-.705 4.326-.181.035.229-.103.306-.19.332-.033.011-.042.039.009.06.184.069.443.049.564-.125.416.291.061.654-.107.756-.043.027-.025.055.013.062.38.068.695-.319.708-.545l.065.037v1.642c0 2.338 2.696 2.661 5.655 4.645 2.959-1.982 5.658-2.307 5.658-4.645v-1.642l.063-.037c.015.226.329.613.708.545.034-.008.055-.034.014-.062-.168-.102-.522-.465-.107-.756.121.172.381.194.564.125.049-.021.039-.049.011-.06-.089-.026-.228-.103-.193-.332.66-.524 2.396-1.414 4.326.181 2.267 1.869.604 4.17-.131 3.434-.031-.031-.035.002-.026.045.159.674 1.021.627 1.118.283.007-.027.041-.055.058.02.351 1.404 2.896.381 3.073 3.271-.054.008-.623.114-.853-.154-.096-.119-.521-.61-1.032-.067-.033.032-.002.055.015.055.662-.018.516.451.494.535-.438-.361-1.115-.285-1.07.545.004.065.027.059.056.024a.523.523 0 01.817-.096c-.312.047-.867.451-.348 1.106.021.027.055.064.061.011.066-.777.756-.525.899-.453.101.051.579.194.905-.197.13.588.865.525.938.521.053-.002.057-.034.01-.069-.317-.211-.611-.617-.137-.769 0 0 .631.57 1.139-.055.045-.057.017-.07-.012-.061-.061.021-.779.107-.728-.615.034-.5.403-2.205-.277-2.641-.044-.027-.067-.053-.018-.064.687-.152.774-.633.552-1.18-.027-.07-.066-.059-.07-.006-.054 1.106-1.822.578-1.879-.967.944.244 2.577-.086 2.577-1.634 0-1.521-1.944-2.334-1.944-3.442 0-.185-.004-.949.896-.949.736 0 1.281.551 1.429 1.135.009.027.04.037.065.004.105-.141.086-.717-.178-1.023-.024-.03.002-.084.06-.053.083.051.344.129.617.129.604 0 .931-.334.931-.887 0-.346-.12-.52-.072-.633.025-.055-.039-.092-.072-.023-.086.17-.241.619-.862.619l-1.485.004c-1.662 0-1.816 1.342-1.816 1.672 0 1.359 1.732 1.953 1.732 3.334 0 .322-.166.863-1.06.863-.37 0-.755-.104-.987-.203 0 0-.398-2.422-1.572-3.26 0 0-1.373.668-2.73-.068-1.039-.562-1.528-.938-2.439-.309-.908.629-1.703 1.307-1.806 1.289l-.217-.043v-5.439c.422-.045.452.332.433.435-.021.127-.162.225.127.655.022.031.057.021.061-.018.013-.109.066-.295.216-.295.144 0 .788.488 1.34 1.041 0 0 .315-.959 1.08-1.254-.433-.064-2.296-.52-2.296-1.334 0-.271-.309-.336-.51-.32-.008-.021-.313-.746-.883-.369-.029.021-.021.062.012.07.25.059.355.318.369.604a20.483 20.483 0 00-5.604-.817c-1.332 0-2.559.153-3.536.33v1.887h-.77v-1.733l-.002-.003m-5.062 19.314c-.203-.082-.338-.213-.338-.479v-1.172c-.336-.117-1.252-.467-3.08-.467-1.521 0-1.999.344-2.02.465l-.404 2.229s.616-.564 2.821-.42c2.657.17 5.408 1.736 5.408.064v-.98c-2.084.001-2.387.662-2.387.76zm16.343-.759v.981c0 1.672 2.752.104 5.408-.063 2.205-.146 2.82.42 2.82.42l-.402-2.229c-.021-.123-.5-.463-2.021-.463-1.829 0-2.748.348-3.081.467v1.17c0 .268-.135.397-.338.479-.002-.101-.306-.762-2.386-.762zm-6.98-1.013c4.276 0 8.622.224 9.188.869.045.051.062-.002.062-.041V59.54c0-.66-4.479-1.045-9.253-1.045-4.771 0-9.251.387-9.251 1.045v2.268c0 .039.019.092.065.041.569-.645 4.911-.869 9.189-.869zm-3.813-10.688l-.433-.11-.035.053-.503-.221s.371-.002.451-.004c.042 0 .044-.025.023-.047l-.385-.377.496.186c.032.013.045-.014.028-.035l-.329-.483s.403.271.485.324c.025.021.047.002.038-.023-.11-.268-.231-.569-.231-.569l.443.42c.02.02.044.01.037-.021l-.121-.567.323.477c.019.027.045.02.045-.014l.011-.521.206.476c.014.031.04.035.056-.008l.168-.4.019.541-.072.014-.092.652c.646-.152 1.45-1.258 2.069-1.258.734 0 1.001.863 2.358.426.344.506.464.945.595 1.559.525.494 1.262.328 1.262-.193 0-.705-.767-.838-.767-1.571 0-.326.229-.798.856-.798.332 0 .814.142 1.096.142.33 0 .4-.237.438-.34.03-.074.122-.05.112.01-.009.068.04.164.04.32 0 .465-.676.524-.76.467-.034-.022-.059.015-.034.033.101.082.079.356-.043.532-.015.021-.033.019-.036-.002-.074-.332-.462-.741-.807-.741-.125 0-.377.071-.377.362 0 .418.834.797.834 1.664 0 .898-.889 1.113-1.785.892.029.852 1.301 1.356 1.332.75.001-.043.025-.019.035 0 .188.26.104.459-.137.559.223.101.262.548.325.814.099.399.522.18.545.168.021-.015.029-.002.021.022-.16.418-.588.26-.588.26-.224.156.047.298.25.357.031.008.031.029.006.039-.149.057-.469.156-.625-.111-.114.275-.35.271-.443.271-.164 0-.273.166-.234.392.002.021-.012.024-.023.014-.391-.258-.166-.562-.01-.639a.283.283 0 00-.41.188c-.01.023-.024.023-.033.002-.17-.453.202-.586.473-.473-.02-.062-.16-.284-.514-.215-.018.006-.025 0-.018-.023.058-.139.232-.344.553-.137.165.104.443-.045.47-.06-.567-1.131-1.674-.185-1.921-1.071-.005-.019-.025-.035-.042.015-.058.188-.541.202-.63-.171-.007-.027.005-.031.023-.014.07.071.221.135.42-.152.131-.189.149-.443.149-.615 0-.688-.688-1.846-1.761-1.846-.677 0-1.406.266-1.946.658l.503.114a.776.776 0 01-.986.681l.076-.582c-.076.022-.274.094-.38.244-.01.012-.023.008-.028-.005-.09-.329.182-.495.267-.538.01-.007.01-.015-.009-.015-.242-.01-.38.17-.421.231-.007.011-.016.008-.019 0-.021-.068-.062-.238.051-.359zm1.495 3.937c-.193.234-.362.011-.615.011-.238 0-.277.2-.283.278-.002.015-.009.019-.02.004-.268-.369.033-.567.207-.596-.025-.025-.288-.203-.458.041-.012.018-.028.01-.028-.012-.01-.459.354-.49.592-.289.045-.174-.067-.291-.261-.299-.023 0-.027-.016-.019-.025.082-.088.161-.127.239-.127.254 0 .287.32.453.32.249 0 .602-.336.637-.371-.008-.02-.248-.666-.199-1.053.002-.017-.007-.019-.019-.012-.119.067-.426.063-.426-.312 0-.029.009-.031.025-.008.135.186.352-.023.462-.146.116-.129.744-1.045 1.582-1.045.184.002.421.102.612.236-.289.352-.001.688.212.645.026-.004.031.02.007.027-1.108.418-1.602.584-1.602 1.51 0 .484.165.752.451.688.02-.004.025.006.011.021a.413.413 0 01-.318.164c-.232 0-.274-.127-.397-.127-.125 0-.538.242-.538.443 0 .078.049.182.194.277.01.006.004.014-.003.014-.095.024-.422.052-.498-.257zm2.915-9.014c-.347-.021-.567.057-.559.166.172.178.396.159.559-.166zm-1.275.855c.242-.062.513-.032.54-.022.04.015.038.072-.007.078-.509.063-.532.299-.859.299-.214 0-.445-.215-.358-.532.011-.041.044-.043.054-.004.032.134.231.283.63.181zM14.7 57.374c.337.435.662.024 1.105.024.217 0 .48.074.53.509.002.021.021.028.042 0 .483-.66-.068-1.033-.383-1.08.068-.062.539-.353.84.075.017.023.049.017.049-.018 0-.834-.628-.893-1.08-.531-.084-.326.161-.541.476-.541.037 0 .051-.024.032-.047-.56-.602-.979.154-1.073.273-.223.297-1.024-.262-1.341-.594 0 0 .704-.74.704-1.414 0-.041-.004-.098-.004-.121 0-.021.01-.029.031-.02.07.039.168.067.259.067.161 0 .466-.051.466-.625 0-.043-.019-.041-.037-.017-.083.123-.178.148-.25.148-.568 0-1.758-1.9-3.162-1.9-.366 0-1.059.265-1.409.644.167.101.201.308.184.457-.025.239-.216.358-.412.416-.035.008-.04.033 0 .049.706.271 1.997.759 2.29 1.011.346.299.277.864.078 1.646-.194.75-.609.646-.761.623-.023-.004-.03.01-.017.027a.756.756 0 00.595.309c.369 0 .506-.229.697-.229.319 0 .991.459.991.81 0 .196-.154.375-.35.502-.014.01-.012.024.007.028.154.03.782.083.903-.481zm15.501.485c.018-.004.023-.02.009-.028-.198-.127-.353-.306-.353-.502 0-.349.674-.81.994-.81.188 0 .325.229.694.229.19 0 .413-.078.599-.309.015-.019.004-.031-.018-.027-.152.023-.566.127-.761-.623-.2-.779-.271-1.346.075-1.646.295-.25 1.582-.74 2.291-1.011.039-.016.035-.041 0-.049-.194-.054-.387-.172-.414-.416-.016-.149.017-.354.187-.457-.353-.379-1.045-.644-1.409-.644-1.404 0-2.596 1.9-3.164 1.9-.07 0-.164-.025-.248-.146-.02-.026-.037-.028-.037.015 0 .574.304.625.463.625a.535.535 0 00.262-.065c.02-.013.027-.004.027.018 0 .023-.004.082-.004.121 0 .678.707 1.416.707 1.416-.32.332-1.119.891-1.343.594-.095-.121-.513-.875-1.071-.273-.02.021-.006.047.033.047.312 0 .559.215.475.541-.455-.362-1.079-.305-1.079.531 0 .031.032.041.05.018.297-.428.771-.139.839-.077-.315.049-.864.42-.383 1.08.019.028.037.022.042 0 .05-.433.311-.507.527-.507.44 0 .767.408 1.104-.024.124.558.754.505.906.479zM18.849 46.893c-.044.062-.191 0-.247-.026-.015-.007-.017 0-.012.01.035.08.177.315.389.315.095 0 .236-.057.274-.119 0 0 .825.269 1.233.382a1.392 1.392 0 00-.277.741c-.329-.202-1.646-.909-1.646-.909l-.411.559c-.067.093-.394-.145-.326-.237l.312-.426c-.102-.109-.352-.041-.419-.021-.01.002-.019-.002-.01-.02.04-.082.196-.343.583-.226.003-.238-.351-.162-.443-.136-.012.003-.017-.002-.005-.014.096-.104.383-.334.702-.145l.14-.193-.281-.297.177-.242.198.269 1.522-2.085c.038-.053.339-.139.454-.163.012.116.022.428-.013.479l-1.497 2.104.315.102-.173.244-.373-.172-.166.226zm5.335-.34c0 .193.119.473.373.393.014-.006.026-.002.023.011-.04.213-.42.408-.596.157-.152.324-.114.63.216.81.019.011.022.033.003.05-.2.145-.51.11-.653-.166-.274.204-.233.643-.067.791 0 .002-.756.45-1.44.129-.455-.218-.824-.496-1.412-.451.082-.822.493-1.039 1.248-1.156.604-.098.683-.375.596-.584-.206-.055-.582.133-.582.133-.067-.113.031-.23.031-.23-.039-.045-.056-.197-.056-.197.422 0 .497-.094.497-.094.077-.438-.372-.485-.715-.248-.159-.141-.132-.328-.132-.328-.047-.021-.077-.096-.077-.127 0-.104.5-.385.63-.42.032-.146.213-.35.747-.299.064-.143-.039-.656-.104-.795-.021-.043.011-.064.058-.035.186.117.371.551.496.56 0 0 .6-.312.627-.295.028.018.112.684.112.684.079.099.542.002.743.091.052.021.048.059.003.065-.149.024-.631.233-.71.367.271.406.141 1.016.141 1.184z" />
</svg>