<?xml version="1.0" encoding="utf-8"?>
<!-- Generator: Adobe Illustrator 19.1.0, SVG Export Plug-In . SVG Version: 6.00 Build 0)  -->
<svg version="1.2" baseProfile="tiny" xmlns="http://www.w3.org/2000/svg" xmlns:xlink="http://www.w3.org/1999/xlink" x="0px"
	 y="0px" width="64px" height="64px" viewBox="0 0 64 64" xml:space="preserve">
<g id="Box">
	<rect fill="none" width="64" height="64"/>
</g>
<g id="Icon">
	<g>
		<path d="M50,7H28.8286c-0.5307,0-1.0395,0.2109-1.4145,0.5859L12.5859,22.4141C12.2109,22.7891,12,23.2979,12,23.8286V55
			c0,1.0996,0.8999,2,2,2h36c1.1045,0,2-0.8955,2-2V9C52,7.8955,51.1045,7,50,7z M47,52H17V25.2918l-3.1484-0.9324
			C13.5104,24.2504,13.6331,24,13.6331,24H28c0.5522,0,1-0.4478,1-1V8.6341c0,0,0.2509-0.1096,0.3599,0.231L30.2915,12H47V52z"/>
		<path d="M24.6469,33.5062c0,2.441,1.1777,4.2649,2.5417,6.3768c1.3251,2.0513,2.8268,4.6313,3.7619,8.2283
			c0.1243,0.4775,0.5558,0.8111,1.0496,0.8111s0.9252-0.3336,1.0496-0.8111c0.9351-3.5969,2.4368-6.177,3.7619-8.2283
			c1.364-2.1119,2.5417-3.9359,2.5417-6.3768c0-4.1946-3.1612-7.3576-7.3531-7.3576S24.6469,29.3115,24.6469,33.5062z M32,29.7559
			c2.0495,0,3.7109,1.6614,3.7109,3.7109S34.0495,37.1777,32,37.1777s-3.7109-1.6614-3.7109-3.7109S29.9505,29.7559,32,29.7559z"/>
	</g>
</g>
</svg>
