<svg enable-background="new 0 0 64 64" height="64" viewBox="0 0 64 64" width="64" xmlns="http://www.w3.org/2000/svg"><path d="m0 0h64v64h-64z" fill="none"/><path d="m53 51.5 3.3-.9c.6-.2.9-.7.9-1.3 0-.3-.2-.6-.4-.8s-.4-.3-.7-.3l-8.7-1c-.4 0-.7.1-1 .3-.3.3-.4.6-.3 1l1 8.7c.1.6.5 1 1.1 1.1.6 0 1.1-.3 1.3-.9l.9-3.3 4.4 4.4c.7.7 1.5.3 2.2-.4s1.1-1.5.4-2.2zm-5.5-34.6 8.7-1c.3 0 .5-.2.7-.3.2-.2.3-.5.4-.8 0-.6-.3-1.1-.9-1.3l-3.4-1 4.4-4.4c.7-.7.3-1.5-.4-2.2s-1.5-1.1-2.2-.4l-4.3 4.5-.9-3.3c-.2-.6-.7-.9-1.3-.9s-1.1.5-1.1 1.1l-1 8.7c0 .4.1.7.3 1 .3.2.7.3 1 .3zm-23 11.8c.4 3.6 2.2 5.6 4.4 7.5.6.5 1.6.7 2.7.8.1.2.1.4-.3.5-.7.2-2.7.5-4.9-.6-1.6.4-7.3 2.1-9.1 3.9-.8.8-1.4 2.5-1.8 4.2h32.9c-.4-1.8-1-3.4-1.8-4.2-1.6-1.7-6.5-3.2-8.7-3.7-.6-.2-1-.7-1.1-1.2s-.2-1.1-.2-1.1c1.4-1.6 2.4-3.4 2.8-5.9 1.3-.4 1.6-2.1 1.6-3.1s-.2-1.6-.6-1.8c-.2-.1-.5-.1-.6 0 .1-2.2.3-6.4-.6-8-1-1.8-2.2-2.2-4.5-1.6-1.5-.8-2.5-1.6-5.1-.9-1.8.5-3.7 1.3-4.8 2.7-1.1 1.5-.9 5.7-.7 7.9-.2 0-.5-.1-.7 0-.3-.1-.4.5-.4 1.5 0 1.1.2 2.7 1.5 3.1zm-8 18.5-8.7 1c-.3 0-.5.2-.7.3-.2.2-.3.5-.4.8 0 .6.3 1.1.9 1.3l3.3.9-4.4 4.4c-.7.7-.3 1.5.4 2.2s1.5 1.1 2.2.4l4.4-4.4.9 3.3c.2.6.7.9 1.3.9s1.1-.5 1.1-1.1l1-8.7c0-.4-.1-.7-.3-1-.3-.2-.7-.4-1-.3zm-5.5-34.7-3.3.9c-.6.2-.9.7-.9 1.3 0 .3.2.6.4.8s.4.3.7.3l8.7 1c.4 0 .7-.1 1-.3.3-.3.4-.6.3-1l-1-8.7c-.1-.6-.5-1-1.1-1.1-.6 0-1.1.3-1.3.9l-1 3.4-4.4-4.4c-.7-.7-1.5-.3-2.2.4-.7.6-1 1.4-.4 2.1z"/></svg>