<svg height="64" viewBox="0 0 64 64" width="64" xmlns="http://www.w3.org/2000/svg"><path d="m0 0h64v64h-64z" fill="none"/><path d="m48 52.4095c-3.75.875-4.5 1.5-8 0s-4.875-1.75-8-1c-2.6295.6311-4.25 3.3405-7 1.5905s-4.9868-1.6797-8-.5905c-2.5555.9238-3.7778 1.9238-6 1-2.4539-1.0201-5 3.5905-5 3.5905h50s-4.25-5.4655-8-4.5905z"/><path d="m42.16 43.325c-2.42 1.645-4.726-.3467-7.04-.94-2.0412-.5233-3.2363-.5256-4.975.0829l-7.8498 4.5321h35.7048c-3.25-4.25-2.8682-.9464-9.68-3.675-2.64-1.0575-3.74-1.645-6.16 0z"/><path d="m14.5814 44.2943 2.5981-1.5 2 3.4641 34.641-20-2-3.4641 2.5981-1.5-9-15.5885-2.5981 1.5-2-3.4641-34.641 20 2 3.4641-2.5981 1.5zm-1.8038-15.1244c.4783-.2761 1.0898-.1122 1.366.366l1.5 2.5981 4.3301-2.5-1-1.7321c-.2761-.4783-.1122-1.0899.366-1.366.4783-.2761 1.0899-.1122 1.366.366l1 1.7321 4.4526-2.5707c-.4747-1.7145.2294-3.5965 1.8416-4.5273s3.5941-.5996 4.8416.6688l4.4526-2.5707-1-1.7321c-.2762-.4783-.1123-1.0899.366-1.366s1.0898-.1122 1.366.366l1 1.7321 4.3301-2.5-1.5-2.5981c-.2761-.4783-.1122-1.0898.366-1.366.4783-.2761 1.0899-.1122 1.366.366l4 6.9282c.2762.4783.1123 1.0898-.366 1.366-.4783.2761-1.0898.1122-1.366-.366l-1.5-2.5981-4.3301 2.5 1 1.7321c.2761.4783.1122 1.0899-.366 1.366-.4783.2761-1.0899.1122-1.366-.366l-1-1.7321-4.4526 2.5707c.4747 1.7145-.2294 3.5965-1.8416 4.5273s-3.5941.5996-4.8416-.6688l-4.4526 2.5707 1 1.7321c.2762.4783.1123 1.0899-.366 1.366s-1.0898.1122-1.366-.366l-1-1.7321-4.3301 2.5 1.5 2.5981c.2761.4783.1122 1.0898-.366 1.366-.4783.2761-1.0899.1122-1.366-.366l-4-6.9282c-.2762-.4783-.1123-1.0899.366-1.366z"/></svg>