<svg enable-background="new 0 0 64 64" height="64" viewBox="0 0 64 64" width="64" xmlns="http://www.w3.org/2000/svg"><path d="m0 0h64v64h-64z" fill="none"/><path d="m62.4435 43.0713h-1.4526v-.5531c0-.2648-.2312-.4794-.5163-.4794h-.5163v-.5164c0-.2852-.2312-.5164-.5163-.5164h-2.1166c-.1726 0-.3338.0863-.4296.23l-.5351.8027h-20.7641c-1.6545 0-2.0652 1.5488-2.0652 1.5488s-.8688 3.557-.985 4.0504c-.0943.4-.0159.6361.1437.816.5335.6018 1.3137.2356 1.9474 1.1674.8646 1.2711.0579 3.8071-1.4131 6.8378-.9705 1.9995-1.1876 3.5441-1.2232 4.6287-.0344 1.0493.7538 1.9087 1.8038 1.9087h4.9205c1.0626 0 1.9857-.7302 2.2303-1.7642l1.3475-5.4666c.8931.1521 1.7343.2327 2.5155.2327 2.1584 0 3.7943-.5801 5.0613-1.7354 2.0121-1.8347 2.1394-4.5354 2.1221-5.5127h8.4726c.2851 0 .5163-.2146.5163-.4795v-1.2708l1.4526-.0083c.2851 0 .5163-.2312.5163-.5164v-2.8877c-.0002-.2851-.2314-.5163-.5165-.5163zm-13.8762 9.8257c-1.169 1.144-3.1608 1.4319-5.787 1.0012 0 0 .4796-3.1135 1.6071-3.8534.3265 2.249 2.4427 2.3698 2.4427 2.3698.2805 0 0-.355 0-.355-.7071-1.1261-.3491-2.5708-.1891-3.0753.7492-.2748 3.4255-.1837 3.4255-.1837.0007.634-.1557 2.7817-1.4992 4.0964zm-15.58-2.086c-.0098-.0024-.02-.0049-.0298-.0078-.3984-.1113-1.1401-.3193-1.7637-1.022-.4355-.4912-.8911-1.3408-.5942-2.6016.1167-.4956.9888-4.0669.9888-4.0669.3975-1.5005 1.814-3.1143 4.0083-3.1143h9.7055c-1.6934-1.526-4.9646-2.8779-7.7145-3.8557 0 0-.1534-.7468-.6277-1.2491-1.0798-1.1433-2.9742-1.0725-3.2574-3.1725-.0012-.0085-.0023-.0171-.0034-.0256-.0851-.6306.1052-1.2493.4969-1.7622 3.1868-4.174 4.2893-6.8093 5.022-10.9305.8764-4.9299-.0773-10.8632-2.3887-13.7194-2.4752-3.0581-6.4289-4.1831-11.3291-4.1831-4.9003 0-8.8541 1.125-11.3291 4.1833-2.3115 2.8562-3.2651 8.7893-2.3887 13.7192.7326 4.1211 1.8351 6.7566 5.022 10.9305.3917.5129.5819 1.1316.4968 1.7622-.0012.0085-.0023.017-.0034.0255-.2832 2.1001-2.1776 2.0293-3.2574 3.1726-.4743.5022-.6277 1.2493-.6277 1.2493-.1906.0677 3.7687 3.873 12.0254 4.3666.0613.1527-.0715.3029-.327.3695-4.5627 1.1904-9.6329-.5181-14.1389-3.8167-2.2153.929-4.5792 2.1567-5.6727 3.3459-2.8162 3.0615-4.2996 14.5918-4.2996 14.5918h30.6969c1.3018-2.8108 1.3365-3.8802 1.2904-4.189zm-14.5429-30.3589c-1.1969-.8416-2.5781-2.9951-1.2599-4.261 1.2599-1.21 5.9216.1578 6.1105 2.4724.1841 2.254-2.801 3.2301-4.8506 1.7886zm7.0556 9.9366c-1.7266 0-3.1263-1.0585-3.1263-2.3643 0-1.3057 1.3997-2.3643 3.1263-2.3643s3.1263 1.0586 3.1263 2.3643c0 1.3058-1.3997 2.3643-3.1263 2.3643zm2.205-11.7251c.189-2.3146 4.8506-3.6824 6.1105-2.4724 1.3182 1.2659-.063 3.4194-1.2599 4.261-2.0496 1.4414-5.0347.4653-4.8506-1.7886z"/></svg>