<svg enable-background="new 0 0 64 64" viewBox="0 0 64 64" xmlns="http://www.w3.org/2000/svg"><path d="m0 0h64v64h-64z" fill="none"/><path d="m51.789 39.77c-2.217-2.211-9.859-4.889-12.827-5.872-.288-1.003-.488-1.972-.616-2.816 1.699-1.86 2.958-4.092 3.396-6.786 1.739-.49 2.087-3.784 2.087-5.022 0-1.24-.238-1.91-.725-2.119-.141-.06-.277-.067-.41-.068.26-1.906.986-8.239-.455-10.718-1.368-2.358-3.033-3.506-6.206-2.736-2.081-1.064-3.498-1.729-7.143-.772-2.533.665-5.306 1.751-6.767 3.564-1.811 2.249-1.141 8.757-.898 10.675-.109.009-.217.007-.33.055-.487.208-.725.879-.725 2.118s.349 4.532 2.087 5.022c.352 2.597 1.637 4.855 3.352 6.738-.134.858-.328 1.846-.594 2.871-2.982.988-10.594 3.659-12.805 5.865-4.294 4.285-4.128 17.598-4.21 23.231h48c-.138-7.713-.236-19.265-4.211-23.23zm-4.033 18.332c-.633 3.159-4.909 2.019-6.976 1.46-2.908-.786-5.78-1.294-5.78-4.444v-4.557c1.666.544 3.31 1.481 5.135 2.852 0 0 .392-.138-.033-.833-1.37-2.232-3.396-3.796-6.4-4.659-1.07-.307-2.262-.328-3.402 0-3.004.863-5.031 2.427-6.4 4.659-.426.695-.033.833-.033.833 1.825-1.371 3.469-2.308 5.135-2.852v4.557c0 3.15-2.872 3.659-5.781 4.445-2.066.559-6.342 1.699-6.976-1.46-2.244-11.184 6.348-21.203 10.082-21.203 1.476 0 2.673 1.197 2.673 2.673v3.339c0 .463-.272.877-.69 1.076-1.438.683-3.231 1.215-4.911 1.416 0 0-.177.377.618.559.739.169 6.983.915 6.983-2.598v-12.414c0-.552.448-1 1-1s1 .448 1 1v12.413c0 3.513 6.244 2.768 6.983 2.598.795-.182.618-.559.618-.559-1.68-.202-3.472-.733-4.911-1.416-.418-.198-.69-.612-.69-1.075v-3.339c0-1.476 1.197-2.673 2.673-2.673 3.734 0 12.326 10.019 10.083 21.202z"/></svg>