<svg enable-background="new 0 0 64 64" viewBox="0 0 64 64" xmlns="http://www.w3.org/2000/svg"><path d="m0 0h64v64h-64z" fill="none"/><path d="m32.5 52.5c0-1.678-1.035-3.109-2.5-3.703v-3.372c1.695-.158 3.311-.583 4.81-1.226l8.848-12.4c-.365-.434-.767-.917-1.12-1.354-.863-1.067-1.033-2.496-.445-3.729.375-.786 1.004-1.393 1.743-1.732-.618-2.107-1.647-4.038-3.012-5.685l2.466-2.466c.999.264 2.104.017 2.888-.766 1.171-1.172 1.171-3.071 0-4.243-1.172-1.172-3.071-1.172-4.243 0-.783.783-1.03 1.889-.766 2.888l-2.466 2.466c-2.408-1.996-5.411-3.294-8.703-3.601v-3.372c1.465-.594 2.5-2.026 2.5-3.703 0-2.209-1.791-4-4-4s-4 1.791-4 4c0 1.678 1.035 3.109 2.5 3.703v3.372c-3.292.306-6.295 1.605-8.703 3.601l-2.466-2.466c.264-.999.017-2.105-.766-2.888-1.171-1.172-3.071-1.172-4.243 0-1.171 1.172-1.171 3.071 0 4.243.783.783 1.889 1.03 2.888.766l2.466 2.466c-1.996 2.408-3.294 5.411-3.601 8.702h-3.372c-.594-1.465-2.026-2.5-3.703-2.5-2.209 0-4 1.791-4 4s1.791 4 4 4c1.678 0 3.109-1.035 3.703-2.5h3.372c.306 3.292 1.605 6.295 3.601 8.702l-2.466 2.466c-.999-.264-2.104-.017-2.888.766-1.171 1.172-1.171 3.071 0 4.243 1.172 1.172 3.071 1.172 4.243 0 .783-.783 1.03-1.889.766-2.888l2.466-2.466c2.408 1.996 5.411 3.294 8.703 3.601v3.372c-1.465.594-2.5 2.026-2.5 3.703 0 2.209 1.791 4 4 4s4-1.791 4-4z"/><path d="m62.287 26.751c-1.168-.834-6.402-4.568-7.571-5.402-1.239-.884-2.563.769-1.668 1.892 1.042 1.308 1.584 1.906 1.584 1.906l-3.044 4.266s.828 1.134 2.264 3.124c.14.194.03.293-.006.317 0 0-6.713-4.79-8.138-5.806-.957-.682-2.397.856-1.461 2.014.916 1.132 2.196 2.62 2.196 2.62l-10.056 14.093c-.329.461-.514 1.01-.532 1.576l-.158 6.845-5.976 8.684 2.434-.407 5.249-7.051 6.444-2.366c.533-.201.994-.555 1.324-1.019l10.055-14.091s1.823.727 3.191 1.224c1.4.509 2.386-1.353 1.429-2.036-1.43-1.02-3.189-2.275-5.034-3.592l3.909-5.478s.743.318 2.318.878c1.354.482 2.485-1.308 1.247-2.191zm-11.642 12.634-2.337-1.667-.666 2.169 1.752 1.25-1.25 1.753-2.337-1.667-.666 2.169 1.752 1.25-1.25 1.752-2.337-1.667-.666 2.169 1.752 1.25-1.25 1.752-4.089-2.918 9.587-13.436 4.089 2.918z"/></svg>