<svg enable-background="new 0 0 64 64" viewBox="0 0 64 64" xmlns="http://www.w3.org/2000/svg"><path d="m0 0h64v64h-64z" fill="none"/><path d="m26.05 19c.228-1.139 1.235-2 2.44-2h21.785c1.555 10.045.896 21.064-.076 29.248l1.797 1.753c1.087-8.474 1.953-20.553.226-31.502-.138-.867-.899-1.499-1.776-1.499h-8.517c-.232-.563-.388-.906-.388-.906 1.887-3.6.965-6.428-1.875-8.254-3.236-2.08-15.004-2.293-23.592 2.376-1.095.596-2.036 1.251-2.854 1.946l9.056 8.838z"/><path d="m43.882 21.356c-.135-.783-.332-1.584-.552-2.356h-14.84c-.27 0-.49.22-.49.49v5.096l17.903 17.471c0-3.499 0-7.215 0-7.215s1.656-.849 2.985-1.581c.946-.521 1.101-1.899.538-2.543-1.21-1.385-5.544-6.38-5.544-6.38-.183-.808.118-2.3 0-2.982z"/><path d="m59.287 58.213-54.313-53-2.121 2.121 7.107 6.936c-.78 1.549-1.198 3.159-1.353 4.73h6.201l4.099 4h-10.211c.182 1.332.49 2.548.825 3.56 1.774 5.363 7.076 12.967 7.443 18.699.141 2.199-1.259 8.257-1.612 9.74h12.543c2.442 2.468 5.828 4 9.574 4h11.237c.857 0 1.596-.605 1.761-1.446.153-.782.355-1.865.581-3.189l6.118 5.97zm-10.749-1.213h-11.069c-6.324 0-11.469-5.145-11.469-11.469v-15.609l2 1.952v13.657c0 4.366 2.974 8.041 7 9.131v-4.662l-4.792-2.546c-.288-.157-.205-.348-.174-.398 0 0 7.379 1.606 10.241 1.981 1.45.19 2.861-.35 3.91-1.37l5.118 4.994c-.293 1.821-.564 3.307-.765 4.339z"/></svg>