<svg viewBox="0 0 64 64" xmlns="http://www.w3.org/2000/svg"><path d="m0 0h64v64h-64z" fill="none"/><path d="m32 45.46h-4.23v1.08h4.23a.54.54 0 1 0 0-1.08z"/><path d="m31.64 42.75a.54.54 0 0 0 -.54-.54h-3.33v1.08h3.33a.54.54 0 0 0 .54-.54z"/><path d="m35.23 36.06h-6.46a1 1 0 0 0 -1 1v1.94h4.23a.55.55 0 1 1 0 1.09h-4.23v1.08h8.46v-4.11a1 1 0 0 0 -1-1z"/><path d="m40.42 23.88s-7.25-2.38-10.42-3.46a5.47 5.47 0 0 1 -3.6-5.22 5.6 5.6 0 1 1 11.2 0v2.8c0 1.55 1.25 1.87 2.8 1.87s2.79-.32 2.79-1.87v-2.8a11.2 11.2 0 1 0 -22.39 0v33.6a11.2 11.2 0 0 0 22.4 0v-21.12a4 4 0 0 0 -2.78-3.8zm-12.65 7.05a.86.86 0 0 1 .43-.73l.07.11c.48.74 2.09 1.55 4.22.85.36-.12.25-.34.25-.34-1.88.14-3.47-.13-3.47-1.17a1.86 1.86 0 0 1 .49-1.24c.75-.87 1.44-1.05 1.15-1.86a1 1 0 0 1 -.07-.39 1.16 1.16 0 1 1 2.32 0 1.23 1.23 0 0 1 -.06.39c-.3.81.39 1 1.15 1.86a1.9 1.9 0 0 1 .48 1.24 1.3 1.3 0 0 1 -.07.41h.7a.87.87 0 0 1 .87.87v1.78a1.08 1.08 0 0 1 -1.08 1.08h-6.3a1.08 1.08 0 0 1 -1.08-1.08zm9.54 20.07a2 2 0 0 1 -2 2h-6.62a2 2 0 0 1 -2-2v-14.12a2 2 0 0 1 2-2h6.62a2 2 0 0 1 2 2z"/></svg>