<svg height="64" viewBox="0 0 64 64" width="64" xmlns="http://www.w3.org/2000/svg"><path d="m0 0h64v64h-64z" fill="none"/><path d="m41.9976 23.001c0-.7447.0012-2.7025-1.2268-4.0366.3037-3.3378.515-8.5034-.7869-10.587-1.6026-2.5649-3.5498-3.8159-7.2632-2.9775-2.4355-1.1577-4.0937-1.8823-8.3608-.8398-2.9649.7241-6.21 1.9067-7.92 3.8798-1.652 1.9066-1.5394 7.2237-1.2741 10.6054-1.1589 1.332-1.1634 3.2256-1.1634 3.9557 0 2.386.7374 4.3299 2.0614 5.5497.3819 2.5118 1.613 4.9141 3.7105 7.2619-.106.807-.2283 1.7498-.353 2.7313-2.5129.7345-9.6714 2.9969-12.0341 5.5665-2.8735 3.124-4.3872 14.8896-4.3872 14.8896l36-.0262v-13.9738c-.0043-2.4757.1406-3.748 1.5704-5.1565-1.2819-.4614-2.4652-.84-3.3436-1.1064-.155-1.1155-.3614-2.4073-.5466-3.4836 1.7886-2.1667 2.8874-4.4047 3.2495-6.6968 1.3281-1.2195 2.0679-3.1657 2.0679-5.5557zm-4.939 3.8183c0 3.7027-2.5335 6.4959-5.3403 8.8846-.7807.6644-2.2499 1.1066-3.7188 1.1055-1.0628-.0008-2.1255-.2865-2.9271-.6349.6138.9305 1.6553 2.0744 3.5848 2.5851 3.1548.8349 5.4595-.9139 5.4595-.9139s.2828 1.9133.2745 2.4157c.3267 3.4883-3.5568 7.3169-6.0102 9.0784-2.3003-1.75-6.5919-5.5302-6.1588-9.0224.237-1.9129.0408-.5492.8235-5.4371-2.2767-2.1999-4.1043-4.8665-4.1043-8.061-1.6177-.5039-2.0414-2.5454-2.0414-3.8183 0-1.2725.3217-1.961.7737-2.1743.3922-.1845.7725-.0476 1.013.0886.1414.6527.2484 1.1383.2899 1.3098.206.8511 1.0234.7729 1.0234.7729v-6.7451c2.0731-.1505 6.1937-.7531 10.7499-3.1062l5.2501 3.5262v6.3251s.8174.0782 1.0234-.7729c.0415-.1715.1484-.6571.2898-1.3098.2405-.1362.6209-.2731 1.013-.0886.4521.2133.7738.9018.7738 2.1743 0 1.2729-.4237 3.3144-2.0414 3.8183z"/><path d="m58.7857 41c-.8403-.3695-1.1922-1.0562-1.3382-1.6804-2.087-.3651-6.0778-.9638-6.2047-.9908-.2477-.0527-.2909-.2253-.2428-.3288h8v-5.5555c0-.7978-.7069-1.4445-1.5789-1.4445h-11.8422c-.872 0-1.5789.6467-1.5789 1.4445v5.5555h1.6191c.0011.0063.374 2.2178-1.4048 3-2.2143.9737-2.2143 1.4737-2.2143 4.4737 0 .5578.0228 13.5252.0228 13.5252.0035 1.8532 6.8847 2.0011 9.4772 2.0011s9.5-.1479 9.5-2.0011c0-13.5252 0-12.9674 0-13.5252 0-3 0-3.5-2.2143-4.4737zm-.7857 13.3189c-1.6998.3134-3.9874.5068-6.5114.5068-2.5129 0-4.7911-.1919-6.4886-.5028v-9.1208c1.6976.3109 3.9758.5028 6.4886.5028 2.5186 0 4.8018-.1927 6.5005-.5049h.0109z"/></svg>