<svg height="64" viewBox="0 0 64 64" width="64" xmlns="http://www.w3.org/2000/svg"><path d="m0 0h64v64h-64z" fill="none"/><path d="m0 0h64v64h-64z" fill="none"/><path d="m52.2301 44.7582c-2.7689.9518-6.3674 2.413-9.2219 3.6126.0738.4329.0837.8924.0119 1.3788-.4145 2.8078-2.82 4.5833-6.2403 4.7415-7.7327.3578-12.5347-1.5576-13.5313-1.9617-.2862-.1161-.318-.2576-.2923-.3882.0016-.0013.0111-.0091.0111-.0091 5.5945.9645 9.1206 1.1222 13.4634.4237 3.295-.53 4.489-2.106 4.4613-3.4058-.027-1.2701-.9268-2.0373-2.9519-2.1078-6.8902-.2395-10.9187-1.008-16.8242-1.8687-4.1042-.5981-8.0618.4671-11.4327 2.6265-3.1635 2.0265-4.0402 2.9853-4.0402 2.9853l5.7857 11.1429 7.4819-3.0415c.8526-.3467 1.7844-.4512 2.6926-.3022l10.2607 2.283c2.2892.3758 4.6379-.0562 6.6438-1.2219l20.4795-12.846s-1.0043-4.019-6.7571-2.0414z"/><path d="m22.2022 7.8798c2.0046.1976 3.3047-1.068 3.5066-3.0556.23-2.2637-.8591-3.5972-2.8114-3.7898-2.0566-.2027-3.3102 1.1233-3.5175 3.1661-.2189 2.153.8181 3.4815 2.8223 3.6793z"/><path d="m32.0625 28.6553c-.0153-.1038-.0267-.2262-.0411-.3348-1.2624 1.5493-2.0214 3.5252-2.0214 5.6794 0 4.9704 4.0297 9.0001 9.0001 9.0001 2.7634 0 5.2331-1.2482 6.8841-3.2086-.043-.0965-.0884-.1867-.1293-.2885-.3718-.9259-.7805-1.9962-1.1929-3.0989-.9308 2.1503-3.0698 3.656-5.5619 3.656-3.3468 0-6.0601-2.7133-6.0601-6.0601 0-.8596.1815-1.6759.5042-2.4166-.7217-.7712-1.2093-1.7552-1.3817-2.928z"/><path d="m38.1215 31h7.0103c.9464 2.5938 2.0021 5.496 2.85 7.6086 1.0927 2.7224 3.1488 2.4195 3.7446 2.2682-.734-3.204-1.5308-6.7273-2.4639-10.0162-1.1012-3.7834-1.4606-3.7781-3.6019-4.2682-1.9731-.4518-4.6606-.5924-4.6606-.5924 0-3.556 0-6.5 0-6.5 0-3.4167-3.2398-3.9117-4.9196-3.2002-.7398.3133-1.3267.9971-1.6108 2.4869-.5109 2.6779-.3932 7.0626-.0325 9.5186.381 2.5923 2.9729 2.6947 3.6844 2.6947z"/><path d="m38.4603 14.8322c1.9208.0135 3.0421-1.3234 3.0557-3.26.0158-2.2065-1.1376-3.3978-3.0083-3.4115-1.9706-.014-3.0422 1.3775-3.0564 3.368-.0153 2.098 1.0886 3.2893 3.009 3.3035z"/><path d="m20.1183 31.9094c-.4835.1111-1.308.2322-2.2856.1964-.096.4698-.2017.8798-.3309 1.3848-.5598 2.1209-1.1752 4.1699-1.4536 5.8282-.3009 1.7922.8692 3.4006 1.8266 3.6812 1.2029-3.802 1.9036-5.8339 2.5812-7.7978.2363 1.9669.4133 3.7083.5135 4.3724.3484 2.308 2.073 3.472 3.0304 3.399 0 0-.1343-5.4563-.2686-10.9126-.0081-.3942-.0161-.7844-.0241-1.1766 1.2679-.3176 2.2188-.8082 2.2188-.8082-.3396-4.4151-1.2791-6.4461-1.8679-8.3166.2305-2.2748.3908-4.7153.4116-6.6509.5503 1.1495 1.3154 2.5428 2.1605 3.504 1.074 1.2214 2.0659 2.3213 3.0297 3.3213 1.3641 1.4153 2.5223 1.1493 3.2099.7391-.4937-.8078-4.5692-6.1009-4.863-6.6084-2.2108-3.7129-2.6616-6.2843-5.077-6.7739-1.0494-.2128-2.2406-.2731-3.1262.4016-1.1945.91-1.721 2.5457-1.6154 4.7692.1407 2.9635.8066 3.7528-.0844 5.8318-.5707 1.3316-.864 2.0223-1.2853 3.6105-.3984 1.5017-.8136 2.5582-1.6577 5.7195.738.5477 2.6643 1.5223 5.6243 1.5574.094.1974-.0255.5812-.6668.7286z"/></svg>