<svg height="64" viewBox="0 0 64 64" width="64" xmlns="http://www.w3.org/2000/svg"><path d="m0 0h64v64h-64z" fill="none"/><path d="m30.1882 38.3412c-2.573 1.0006-3.8477 3.8976-2.8469 6.4705 1.0005 2.573 3.8975 3.8477 6.4705 2.847s3.8477-3.8975 2.847-6.4705c-1.0006-2.5729-3.8976-3.8476-6.4706-2.847zm3.8617 3.8616c.4402 1.1322-.1206 2.4068-1.2527 2.847-1.1322.4403-2.4069-.1206-2.847-1.2527-.4403-1.1321.1206-2.4067 1.2527-2.847 1.1321-.4402 2.4067.1206 2.847 1.2527z"/><path d="m27.5366 26.1662-2.3777-12.2315-10.6843 4.155 6.943 10.4561z"/><path d="m3.5609 20.6287.202-.085 3.3756-1.3911 4.4116 6.5287-.0057-.0002-.6355 16.2104c.3567-.0546.7192-.0917 1.0911-.0917.9019 0 1.7622.174 2.5586.4782l.3279-8.3649-1.8831-5.597c-.0483-.2302.0908-.2759.1355-.2838l5.7063 8.4447c.9717 1.4448 2.5542 2.2524 4.2036 2.2524.6196 0 1.249-.1143 1.8589-.3511l6.2793-2.4419c.9424-.3667 1.4092-1.4277 1.043-2.3701-.3662-.9419-1.4277-1.4077-2.3701-1.043l-6.2793 2.4419c-.623.2427-1.3237.0249-1.6992-.5352l-12.5126-18.6408c-.5555-.8181-1.6642-1.0674-2.517-.5464l-4.6077 2.8152c-.6018.3669-.8616 1.1284-.5798 1.7975.3103.7373 1.1594 1.0835 1.8966.7732z"/><path d="m52 33v7h-9v7l-41 12h59v-26z"/><path d="m7 49c0 2.7614 2.2385 5 5 5s5-2.2386 5-5-2.2385-5-5-5-5 2.2386-5 5zm7.2 0c0 1.215-.9849 2.2-2.2 2.2-1.215 0-2.2-.985-2.2-2.2 0-1.2151.985-2.2 2.2-2.2 1.2151 0 2.2.9849 2.2 2.2z"/></svg>