<svg enable-background="new 0 0 64 64" viewBox="0 0 64 64" xmlns="http://www.w3.org/2000/svg"><path d="m0 0h64v64h-64z" fill="none"/><g fill="#1d1d1b"><path d="m47.5 46.9-28.4-31.1c3.7-3.1 8.4-4.9 13.5-4.9 11.6 0 21.1 9.5 21.1 21.1 0 5.8-2.4 11.1-6.2 14.9m-36-14.9c0-4.5 1.4-8.7 3.9-12.2l27.8 30.4c-3.1 1.8-6.7 2.8-10.6 2.8-11.6.1-21.1-9.4-21.1-21m40-18.9c-5-5.1-11.8-7.8-18.9-7.8s-13.9 2.8-18.9 7.8-7.8 11.8-7.8 18.9 2.8 13.9 7.8 18.9 11.8 7.8 18.9 7.8 13.9-2.8 18.9-7.8 7.8-11.8 7.8-18.9-2.7-13.9-7.8-18.9"/><path d="m22.2 30.1h-8.9s-.2 1.3-.1 2.8c.2 3.4 1.1 4.5 1.1 4.5h14.3z"/><path d="m44.7 20.8c-.7-1-2.2-1-2.1-.7 3.2 2.1-1.2 4.7.8 6.2.1.1.2 0 .2 0-.2-1.4.5-2.1 1.1-3.2.2-.6.5-1.4 0-2.3"/><path d="m47.7 19.8c-1.1-1.7-3.5-1.7-3.4-1.3 5.1 3.4-1.8 7.4 1.5 10.1.2.1.3.1.3.1-.4-2.2.8-3.3 1.6-5.1.4-1.1.9-2.4 0-3.8"/><path d="m48.2 33.7c0-2.1-.7-3.9-1.6-3.9s-1.6 1.9-1.6 4v.9s0 .1-.2-.1c-.4-.4-.7-1.5-.7-2.5 0-1.4.2-2 .2-2h-9.5l7.2 7.4h2.7 1.9c.9 0 1.6-1.7 1.6-3.8"/></g></svg>