<svg enable-background="new 0 0 64 64" viewBox="0 0 64 64" xmlns="http://www.w3.org/2000/svg"><path d="m0 0h64v64h-64z" fill="none"/><path d="m53.962 8.303c-1.512-.349-3.334 1.408-4.05 4.136-.606 2.124-.333 4.043.328 5.043l-6.24 22.046v7.93l8.355-29.519c1.158-.522 2.396-2.092 2.864-4.059.716-2.727.255-5.229-1.257-5.577z"/><path d="m30 22.75h4v1.5h-4z"/><path d="m32 2c-5.523 0-10 1.363-10 6.605v46.789c0 5.243 4.477 6.606 10 6.606s10-1.363 10-6.605v-46.79c0-5.242-4.477-6.605-10-6.605zm6.404 19.662c.25 0 .428.018.679.069l.105.021-.065.799-.131-.023c-.25-.045-.372-.049-.609-.049-.549 0-.89.401-.89 1.048 0 .728.466.987.865.987.271 0 .411-.013.684-.063l.143-.027v.78l-.094.022c-.295.067-.417.084-.769.084-1.09 0-1.767-.66-1.767-1.722 0-1.17.726-1.926 1.849-1.926zm-9.404-3.662h6v16h-6zm3 37.5c-3.038 0-5.5-2.462-5.5-5.5s2.462-5.5 5.5-5.5 5.5 2.462 5.5 5.5-2.462 5.5-5.5 5.5zm7.367-27.958h-.915v2.795h-.903v-2.795h-.915v-.78h2.732v.78z"/></svg>