<?xml version="1.0" encoding="utf-8"?>
<!-- Generator: Adobe Illustrator 24.0.1, SVG Export Plug-In . SVG Version: 6.00 Build 0)  -->
<svg version="1.1" xmlns="http://www.w3.org/2000/svg" xmlns:xlink="http://www.w3.org/1999/xlink" x="0px" y="0px"
	 viewBox="0 0 64 64" style="enable-background:new 0 0 64 64;" xml:space="preserve">
<style type="text/css">
	.st0{fill:none;}
	.st1{fill:#FF1D25;}
	.st2{fill:#1D1D1B;}
</style>
<g id="Box">
	<rect class="st0" width="64" height="64"/>
</g>
<g id="Icon">
	<g>
		<path d="M20.1,33.5c-0.3,0.2-0.5,0-0.5,0s6.1-8.1,6.9-9.6c1.6-3.2-0.4-5.5-1.3-6.7c-0.7-0.9-2-2.6-2.6-3.5c-1.3,0.3-3,0.5-5.4,0.5
			S13,14,11.7,13.7c-0.7,0.9-2,2.6-2.6,3.5c-0.9,1.2-2.9,3.4-1.3,6.7c0.8,1.6,0.9,1.8,1.1,2.1c1.2,2.1-1.7,4.3-1.7,10.2
			C7.2,41.9,7.4,51.5,7.6,55c0.2,3.2,3.5,4.2,9.5,4.2s9.3-1,9.5-4.2c0.2-3.5,0.4-13.1,0.5-18.8c0-3.3-0.9-5.4-1.5-7L20.1,33.5z"/>
		<path d="M17.1,12.2c3.3,0,6-0.4,6-1c-0.1-1.4-0.2-2.9-0.5-4.3c-0.2-1-1-1.7-2-1.7h-7.1c-1,0-1.8,0.7-2,1.7c-0.3,1.4-0.4,3-0.5,4.3
			C11.1,11.8,13.8,12.2,17.1,12.2z"/>
		<path d="M58.5,27.6c-0.5-6-2.1-19.4-6.7-24c-1-1-2.6-0.3-2.6,1.1v52.4c0,1.1,1.8,1.9,2.8,1.9c2.9,0,7.2-2,2.8-28.4l0.9,0
			C57.4,30.5,58.6,29.2,58.5,27.6z"/>
		<path d="M42.7,3c-0.5,0-0.9,0.4-0.9,0.9l-0.9,12.9c-0.1,0.5-0.5,0.9-1,0.9c-0.5,0-1-0.4-1-0.9L37.9,4C37.9,3.5,37.5,3,37,3
			c-0.5,0-0.9,0.4-0.9,0.9l-0.9,12.8c0,0.5-0.5,0.9-1,0.9c-0.5,0-1-0.4-1-0.9L32.3,4c0-0.5-0.4-0.9-0.9-0.9s-0.9,0.4-1,0.9
			l-0.9,14.2c0,2.3,2.2,4.4,5.1,5.2c-1.1,14.2-1.8,32.4-1.8,33.2c0,1.3,1.9,2.4,4.3,2.4s4.3-1.1,4.3-2.4c0-0.8-0.7-17.8-1.7-31.7
			c0,0-1.9-0.1-3-0.9c-0.2-0.1-0.2-0.2-0.2-0.3c1.1,0.1,2.1,0,3.1-0.3c2.9-0.8,5.1-2.9,5.1-5.1L43.6,4C43.6,3.5,43.2,3,42.7,3z"/>
	</g>
</g>
</svg>
