<svg enable-background="new 0 0 64 64" height="64" viewBox="0 0 64 64" width="64" xmlns="http://www.w3.org/2000/svg"><path d="m0 0h64v64h-64z" fill="none"/><path d="m54.7 13h-8.5c-3.3-4.3-8.4-7-14.2-7s-10.9 2.7-14.2 7h-8.5c-2.9 0-5.2 2.4-5 5.3l2.4 39c.2 2.6 2.3 4.7 5 4.7h40.6c2.6 0 4.8-2.1 5-4.7l2.4-39c.2-2.9-2.1-5.3-5-5.3zm-20.7 40c0 1.1-.9 2-2 2s-2-.9-2-2v-21c0-1.1.9-2 2-2s2 .9 2 2zm3.7-30h-4.8c0-.1-.1-.3.2-.4l3.1-.6 1.7-5.1c.2-.6-.6-1.1-1.1-.6l-6 6.7h-4.6l-4.5-5.3c2.2-3.4 6-5.7 10.3-5.7s8.1 2.3 10.2 5.7z"/></svg>