<svg enable-background="new 0 0 64 64" viewBox="0 0 64 64" xmlns="http://www.w3.org/2000/svg"><path d="m50.9139 34.9466c-.5095-.6359-1.7064-.0821-1.7064-.0821s-3.304 2.5852-3.894 2.9729c-.5909.3881-.528-.057-.0981-.6189.431-.5596 5.5123-4.4724 5.5123-4.4724s1.0256-1.1368.3162-1.9039c-.7113-.7668-1.6722-.2435-1.6722-.2435s-4.749 3.8427-5.1712 4.1554c-.4239.3121-.73-.2742-.051-.8229.6785-.5499 5.9397-4.8661 5.9397-4.8661s.947-1.1128.2333-1.7986c-.7131-.6848-2.0455-.0729-2.0455-.0729s-5.4832 4.5893-5.9477 4.9415c-.4661.3517-1.1556.1192-.2151-.8295.9409-.9504 3.9229-4.1068 3.9229-4.1068s.979-.971.2894-1.7703c-.6839-.7918-2.225.1598-2.225.1598s-6.0531 5.6833-7.0756 6.6301c-1.0233.9465-2.1665 1.8466-1.587.6777.5785-1.1684 2.7201-4.4972 2.7201-4.4972s.6086-1.2752-.7481-1.9185c-1.0817-.5116-3.0449 1.8705-4.6853 4.971-1.6401 3.0998-2.8576 5.2561-4.3612 6.9648-.1827.206-.4095.4234-.6714.6468l-.0003.0009s-.0025.0019-.0038.0034c-.204.1724-.4269.3497-.6687.531.0024-.0185.0041-.0382.0065-.0567-.8589.6078-2.4473 1.702-4.1508 2.7377-2.2078 1.341-5.0723 3.0406-5.0723 3.0406s4.7223-3.5852 6.912-5.6272c1.173-1.0934 2.0976-2.77 2.7042-4.0927.2343-2.1435.5403-4.2363 1.0522-5.3923.9215-2.0818 2.3692-4.0906 4.4967-6.8785 2.1284-2.7884 3.4696-5.5703 2.55-6.3379-1.1521-.9616-2.0551.1261-2.0551.1261s-2.1236 3.3383-2.9434 4.3537c-.8182 1.016-.4797-.4003-.0488-1.725.4312-1.3256 3.054-9.2028 3.054-9.2028s.2183-1.798-.7869-2.0872c-1.0147-.2915-1.4858 1.0045-1.4858 1.0045s-1.6159 4.0306-2.0847 5.2824c-.4687 1.2518-.9675.724-.8432.1528.1248-.5701 1.9947-7.4709 1.9947-7.4709s-.0033-1.4669-.924-1.8269c-.9212-.3612-1.5358.9663-1.5358.9663s-1.7156 6.5844-1.9284 7.4308c-.2145.8459-.8757.8146-.7697.2998.1062-.5156 1.6064-6.4382 1.6064-6.4382s.0716-1.0925-.9217-1.4157c-.9934-.3231-1.5965 1.0851-1.5965 1.0851s-1.4232 6.2534-1.7516 6.8787c-.3293.6258-.7079.8691-.6028.1703s1.0676-4.7811 1.0676-4.7811.0014-1.3202-.7891-1.5158c-.7911-.1967-1.2758.723-1.6348 1.8267-.359 1.1038-1.3594 4.5632-1.7623 8.2389-.4019 3.6752.6513 5.3192-.0332 9.6766-.6847 4.3556-5.098 17.1757-5.098 17.1757s1.056.5455 2.5562 1.1566c-1.8692 1.2123-3.5166 2.3039-3.5166 2.3039s1.9375 3.0337 3.9033 5.328c1.9649 2.2941 4.3785 4.1748 4.3785 4.1748s9.7904-9.3803 13.46-11.8273c3.6683-2.4456 5.603-2.1791 8.7712-4.0838 3.1683-1.9055 5.89-4.2642 6.7426-5.0532.8517-.7882 1.4834-1.6123.9731-2.2485z"/></svg>