<?xml version="1.0" encoding="utf-8"?>
<!-- Generator: Adobe Illustrator 19.1.0, SVG Export Plug-In . SVG Version: 6.00 Build 0)  -->
<svg version="1.2" baseProfile="tiny" xmlns="http://www.w3.org/2000/svg" xmlns:xlink="http://www.w3.org/1999/xlink" x="0px"
	 y="0px" width="64px" height="64px" viewBox="0 0 64 64" xml:space="preserve">
<g id="_x36_4px_Box">
	<rect fill="none" width="64" height="64"/>
</g>
<g id="Icon">
	<g>
		<path d="M13.4237,31C12.1207,41.0383,11.0216,42.1509,1,43.5763C11.0383,44.8793,12.1509,45.9784,13.5764,56
			C14.8793,45.9617,15.9784,44.8491,26,43.4237C15.9617,42.1207,14.8491,41.0216,13.4237,31z"/>
		<path d="M43.4586,14.1152c-1.7824-1.0215-4.2953-2.0627-7.5861-2.6453l-0.7961-9.553C35.0333,1.3987,34.6,1,34.0799,1h-7.1597
			c-0.5201,0-0.9534,0.3987-0.9966,0.9169l-0.7142,8.571l5.6746,1.148c0.3172,0.1018,0.2708,0.3079,0.2499,0.3641h-6.5217
			c-1.218,0.4681-2.2079,1.0485-2.9807,1.6516C19.9474,14.9661,19,17.0096,19,19.146v20.4882c1.4497,0.8,3.6626,1.138,7.2832,1.608
			c1.0913,0.1416,1.9102,1.0679,1.917,2.1685c0.0063,1.1001-0.8008,2.0361-1.8906,2.1914
			c-3.6544,0.5197-5.8713,0.8873-7.3096,1.7242v10.6278C19,59.6363,20.3637,61,22.0459,61h21.9082C45.6363,61,47,59.6363,47,57.9541
			V20.2302C47,17.7026,45.6516,15.372,43.4586,14.1152z M41,36.5c0,1.3807-1.1193,2.5-2.5,2.5c-1.3807,0-2.5-1.1193-2.5-2.5v-11
			c0-1.3807,1.1193-2.5,2.5-2.5c1.3807,0,2.5,1.1193,2.5,2.5V36.5z"/>
		<path d="M54.4481,1C53.5621,7.826,52.8147,8.5826,46,9.5519c6.826,0.886,7.5826,1.6334,8.5519,8.4481
			c0.886-6.826,1.6334-7.5826,8.4481-8.5519C56.174,8.5621,55.4174,7.8147,54.4481,1z"/>
	</g>
</g>
</svg>
