<svg height="64" viewBox="0 0 64 64" width="64" xmlns="http://www.w3.org/2000/svg"><path d="m0 0h64v64h-64z" fill="none"/><path d="m13.4237 31c-1.303 10.0383-2.4021 11.1509-12.4237 12.5763 10.0383 1.303 11.1509 2.4021 12.5764 12.4237 1.3029-10.0383 2.402-11.1509 12.4236-12.5763-10.0383-1.303-11.1509-2.4021-12.5763-12.4237z"/><path d="m43.4586 14.1152c-1.7824-1.0215-4.2953-2.0627-7.5861-2.6453l-.7961-9.553c-.0431-.5182-.4764-.9169-.9965-.9169h-7.1597c-.5201 0-.9534.3987-.9966.9169l-.7142 8.571 5.6746 1.148c.3172.1018.2708.3079.2499.3641h-6.5217c-1.218.4681-2.2079 1.0485-2.9807 1.6516-1.6841 1.3145-2.6315 3.358-2.6315 5.4944v20.4882c1.4497.8 3.6626 1.138 7.2832 1.608 1.0913.1416 1.9102 1.0679 1.917 2.1685.0063 1.1001-.8008 2.0361-1.8906 2.1914-3.6544.5197-5.8713.8873-7.3096 1.7242v10.6278c0 1.6822 1.3637 3.0459 3.0459 3.0459h21.9082c1.6822 0 3.0459-1.3637 3.0459-3.0459v-37.7239c0-2.5276-1.3484-4.8582-3.5414-6.115zm-2.4586 22.3848c0 1.3807-1.1193 2.5-2.5 2.5s-2.5-1.1193-2.5-2.5v-11c0-1.3807 1.1193-2.5 2.5-2.5s2.5 1.1193 2.5 2.5z"/><path d="m54.4481 1c-.886 6.826-1.6334 7.5826-8.4481 8.5519 6.826.886 7.5826 1.6334 8.5519 8.4481.886-6.826 1.6334-7.5826 8.4481-8.5519-6.826-.886-7.5826-1.6334-8.5519-8.4481z"/></svg>