<svg height="64" viewBox="0 0 64 64" width="64" xmlns="http://www.w3.org/2000/svg"><path d="m0 0h64v64h-64z" fill="none"/><circle cx="49.51" cy="40.5" r="1.7552"/><circle cx="43.51" cy="37.5" r="1.5"/><circle cx="38.51" cy="31.5" r="1.5"/><path d="m61.3718 46.3295c-2.0757-2.858-8.7661-11.9128-13.3618-16.3295-4.1617-3.9996-8.04-6.7825-14-5-4.1834 1.2511-7.374 4.4246-9.4129 7.0444 2.6204 3.3853 6.3157 8.5521 7.2996 14.814.4315 2.7441.2839 5.1167-.1708 7.1416h18.375c.3612 0 .7157-.0978 1.0258-.2831l9.9474-5.9434c.5041-.3013.6428-.9687.2977-1.444zm-5.4727 1.0413c-.2648-.7943-1.0058-1.3708-1.8891-1.3708-1.1046 0-2 .8954-2 2 0 .5305.2102 1.0094.5472 1.3674l-2.7328 1.6326s-1.6236-1.7993-3.7943-4.2883c.5844-.3491.9799-.9815.9799-1.7117 0-1.1046-.8954-2-2-2-.6249 0-1.1759.2925-1.5427.7415-2.8052-3.2891-5.8166-6.9589-7.3859-9.3129-2.7041-4.0562-2.5-6.9285 1.4559-6.9783 2.2543-.0284 4.1841 1.0269 6.3753 2.88-.543.3575-.9026.9709-.9026 1.6697 0 1.1046.8954 2 2 2 .7484 0 1.3931-.4159 1.736-1.0245 3.6174 3.7053 8.3135 9.8583 10.9017 13.3507z"/><path d="m20.31 30c-.4244-.6837-.6678-1.3802-.8128-2h.5128c1.1046 0 2-.8954 2-2v-5c0-1.0884-.8705-1.9695-1.9527-1.9952.1992-2.6525 1.1603-4.663 2.2223-6.101l5.6051 7.2822c.4473.5812 1.2723.7084 1.874.2891.5505-.3837.7432-1.1089.4558-1.7153l-4.1518-8.7598h2.9473c1.1046 0 2-.8954 2-2v-3c0-1.1046-.8954-2-2-2h-21.382c-.3788 0-.725.214-.8944.5528l-3.4641 6.9282c-.1605.3209-.1367.7033.0624 1.0019l5.0114 7.5171h-.3333c-1.1046 0-2 .8954-2 2v5c0 1.1046.8954 2 2 2h6.9848c.0209.0562.0673.2623-.2499.3641l-6.884 1.3927c-2.3692 4.4485-5.8509 12.0395-5.8509 18.2432 0 5.7834 1.1356 9.3713 2.0095 11.276.4859 1.0593 1.5518 1.724 2.7172 1.724h17.2205c.8314 0 1.6193-.3426 2.1899-.9471 1.661-1.7598 4.6545-5.9911 3.5762-12.8528-1.2877-8.1947-7.6766-14.4022-9.4133-17.2001zm3.4896 21.7919c-.3319 1.8757-2.0184 3.2081-3.9232 3.2081h-7.7167c-2.0532 0-3.7687-1.5475-3.9819-3.5896-.104-.9956-.1678-2.1287-.1678-3.4104 0-16.3334 13.7874-12.5995 15.7852.1309.2219 1.411.1874 2.6267.0044 3.661z"/></svg>