<?xml version="1.0" encoding="utf-8"?>
<!-- Generator: Adobe Illustrator 18.1.0, SVG Export Plug-In . SVG Version: 6.00 Build 0)  -->
<svg version="1.2" baseProfile="tiny" xmlns="http://www.w3.org/2000/svg" xmlns:xlink="http://www.w3.org/1999/xlink" x="0px"
	 y="0px" width="64px" height="64px" viewBox="0 0 64 64" overflow="inherit" xml:space="preserve">
<g id="_x36_4px_Boxes">
	<rect fill="none" width="64" height="64"/>
</g>
<g id="Production">
	<g>
		<circle cx="13.5" cy="54.5" r="6.5"/>
		<path d="M61.6339,58.1339l-1.4017-1.4017C59.7634,56.2634,59.1275,56,58.4645,56h-4.1309l-6.9938-42.3582
			c-1.3629-7.6733-4.9684-10.3336-7.7527-11.2147c-4.2525-1.3443-9.2238,0.5283-13.9999,5.2742
			c-4.8019,4.7728-7.1019,11.1549-6.4769,17.9711c0.322,3.5078,1.4207,6.9503,3.0745,9.9371
			c-1.8349-0.3126-3.8372-0.4926-6.0458-0.4926C-0.9319,35.1169,0.6326,57,4.5795,57h0.6193
			c-0.2382-0.7921-0.3697-1.6304-0.3697-2.5c0-4.7888,3.8821-8.6708,8.6708-8.6708s8.6708,3.8821,8.6708,8.6708
			c0,0.8696-0.1315,1.7079-0.3697,2.5H28h4.9807c0.0266,0.0712,0.0853,0.3322-0.3163,0.4611l-4.4174,0.8792
			C28.7999,59.8868,30.2634,61,32,61c2.2092,0,4-1.7908,4-4h3.6882c0.7814,0,1.3867-0.6596,1.3068-1.4216
			c-0.3527-3.3615-2.0383-11.8824-10.0435-16.8029l0.0004-0.0005c-3.7663-2.5723-6.4635-8.1293-6.9612-13.5505
			c-0.3465-3.7739,0.2488-9.2745,5.0517-14.0478c3.3193-3.2982,6.7114-4.8249,9.0669-4.0773
			c2.1124,0.6681,3.6763,3.2958,4.4009,7.3737L49.4305,56h-3.895c-0.663,0-1.2989,0.2634-1.7678,0.7322l-1.4017,1.4017
			C42.1317,58.3683,42,58.6862,42,59.0178V59.75c0,0.6904,0.5596,1.25,1.25,1.25h17.5c0.6904,0,1.25-0.5596,1.25-1.25v-0.7322
			C62,58.6862,61.8683,58.3683,61.6339,58.1339z"/>
	</g>
</g>
</svg>
