<svg height="64" viewBox="0 0 64 64" width="64" xmlns="http://www.w3.org/2000/svg"><path d="m0 0h64v64h-64z" fill="none"/><path d="m27.5253 39.3041 15.6908-15.6908c.8563.4081 1.9089.2666 2.6179-.4424l12.709-12.709c1.3832-1.3832.7571-2.9997-.6261-4.3829-1.3832-1.3832-2.9998-2.0093-4.3829-.6262l-12.7091 12.709c-.709.709-.8505 1.7617-.4424 2.6179l-15.6908 15.6909z"/><path d="m17.6078 32.2203c-.7824-.7825-1.7619-.4933-2.5444.2891s-1.0716 1.7619-.2892 2.5444l4.2504 4.2503-1.4167 1.4167-4.2504-4.2503c-.7825-.7824-1.7619-.4933-2.5444.2891-.7825.7825-1.0716 1.762-.2891 2.5444l4.2504 4.2503-1.4168 1.4168-4.2504-4.2503c-.7824-.7825-1.762-.4933-2.5444.2892h-.0001c-.7824.7825-1.0716 1.7614-.2891 2.5438l3.4466 3.4462h-4.1689c-1.1066 0-1.7145.8934-1.7145 2s.6079 2 1.7145 2h4.6027l-3.8804 3.8846c-.7825.7825-.4933 1.764.2891 2.5465l.0001.001c.7824.7824 1.7682 1.0721 2.5507.2897l3.8865-3.8799v4.9332c0 1.1066.8935 1.7145 2 1.7145 1.1066 0 2-.6079 2-1.7145v-4.4994l3.444 3.4467c.7825.7824 1.7607.4932 2.5432-.2892.7825-.7825 1.071-1.762.2885-2.5444l-4.2507-4.2504 1.4167-1.4168 4.2502 4.2504c.7825.7825 1.762.4933 2.5444-.2891s1.0715-1.7619.2891-2.5444l-4.2504-4.2505 1.4167-1.4167 4.2504 4.2504c.7825.7825 1.7619.4933 2.5444-.2891.7825-.7825 1.0717-1.762.2892-2.5444z"/><path d="m50.2147 27.6157c-.2841-.3882-.7368-.6172-1.218-.6158l-5.3231.0152c-.2165.0007-.4203.071-.587.1924-.1655.123-.2933.2966-.3584.5031l-1.5998 5.077c-.1446.4589-.0609.9593.2252 1.3461l8.5604 11.6379c.3292.4451.9864.5175 1.4315.1884l7.1831-5.2836c.4468-.3269.5734-.9758.2464-1.4227zm-3.3193 4.5999c-.6778.4894-1.6211.3492-2.1156-.3193-.496-.6707-.3517-1.618.3203-2.1215.6807-.4915 1.6279-.3471 2.1205.3261.4909.6712.3439 1.6135-.3252 2.1147z"/></svg>