<svg height="64" viewBox="0 0 64 64" width="64" xmlns="http://www.w3.org/2000/svg"><path d="m0 0h64v64h-64z" fill="none"/><path d="m51.787 11.6931c0-4.396-9.997-7.6931-19.877-7.6931s-19.877 3.2971-19.877 7.6931c0 1.5358.0038 4.2706.759 6.3694 2.6031 7.2338 9.062 16.0039 12.2604 19.8733 1.9606 1.8998 7.7381 1.0214 7.8992 1.0196.0037.0842.0089.2182-.1858.3549-.22.1545-2.6504 1.2417-6.7182 1.6252l.8931 17.1663c0 1.0483 2.2249 1.8982 4.9693 1.8982s4.9693-.8499 4.9693-1.8983l.9938-19.1017c2.6383-3.058 10.2792-12.946 13.1549-20.9375.7553-2.0989.759-4.8337.759-6.3694zm-19.787 6.4269c-8.4597 0-15.5-2.1593-15.5-5.046 0-2.8869 7.0403-5.2271 15.5-5.2271s15.5 2.3402 15.5 5.2271c0 2.8867-7.0403 5.046-15.5 5.046z"/></svg>