<svg height="64" viewBox="0 0 64 64" width="64" xmlns="http://www.w3.org/2000/svg"><path d="m0 0h64v64h-64z" fill="none"/><path d="m61.7751 32.2535-8.5604-11.6379c-.2841-.3882-.7368-.6172-1.218-.6158l-5.3231.0152c-.2165.0007-.4203.071-.587.1924-.1655.123-.2933.2966-.3584.5031l-1.5998 5.077c-.1446.4589-.0609.9593.2252 1.3461l8.5604 11.6379c.3292.4451.9864.5175 1.4315.1884l7.1831-5.2836c.4469-.327.5735-.9759.2465-1.4228zm-11.8797-7.0379c-.6778.4894-1.6211.3492-2.1156-.3193-.496-.6707-.3517-1.618.3203-2.1215.6807-.4915 1.6279-.3471 2.1205.3261.4909.6712.3439 1.6135-.3252 2.1147z"/><path d="m41 8h-36c-1.1046 0-2 .8954-2 2v44c0 1.1046.8954 2 2 2h36c1.1046 0 2-.8954 2-2v-44c0-1.1046-.8954-2-2-2zm-34 5h8v3h-8zm16 32.13c-7.2515 0-13.13-5.8785-13.13-13.13s5.8785-13.13 13.13-13.13 13.13 5.8785 13.13 13.13-5.8785 13.13-13.13 13.13zm13.5-28.0543c-1.4225 0-2.5757-1.1533-2.5757-2.5757 0-1.4226 1.1532-2.5757 2.5757-2.5757s2.5757 1.1531 2.5757 2.5757c0 1.4225-1.1532 2.5757-2.5757 2.5757z"/><path d="m29.2114 28.6176c-1.2096 0-2.3425-.8448-3.1266-1.433-.7841.5883-1.9194 1.433-3.1266 1.433-1.2097 0-2.3425-.8448-3.1266-1.433-.7841.5883-1.9194 1.433-3.1266 1.433-.9816 0-1.9092-.5557-2.6445-1.0799-.6727 1.3446-1.0605 2.8565-1.0605 4.4623 0 5.5228 4.4772 10 10 10s10-4.4772 10-10c0-1.6234-.3953-3.1514-1.0818-4.5068-.745.5365-1.6993 1.1244-2.7068 1.1244z"/></svg>