<svg height="64" viewBox="0 0 64 64" width="64" xmlns="http://www.w3.org/2000/svg"><path d="m0 0h64v64h-64z" fill="none"/><path d="m59.1333 28.3261c-3.2701-5.234-11.9871-16.3261-27.1333-16.3261s-23.8632 11.0921-27.1333 16.3261c-1.0223 1.6362-1.0223 3.7115 0 5.3477 3.2701 5.2341 11.9871 16.3262 27.1333 16.3262s23.8632-11.0921 27.1333-16.3262c1.0223-1.6361 1.0223-3.7115 0-5.3477zm-27.1333-7.4261c3.369 0 6.1 2.7311 6.1 6.1s-2.731 6.1-6.1 6.1-6.1-2.731-6.1-6.1 2.731-6.1 6.1-6.1zm0 24.1c-15.3801 0-22.2156-14-22.2156-14s3.1024-6.3386 9.8166-10.4856c-.7806 1.4844-1.3101 3.1151-1.5068 4.8386-.9663 8.4688 5.6314 15.647 13.9058 15.647 7.374 0 13.4165-5.7011 13.9602-12.936.3626-4.8261-4.0852-7.814-8.4634-10.129-.183-.0968-.1678-.2968-.1642-.3411 11.6377 2.6654 16.883 13.4061 16.883 13.4061s-6.8355 14-22.2156 14z"/></svg>