<svg width="250" height="101" viewBox="0 0 250 101" fill="none" xmlns="http://www.w3.org/2000/svg">
<g clip-path="url(#clip0_2057_18837)">
<path d="M0.0302734 0H50.231V100.402H0.0302734V0Z" fill="#154273"/>
<path d="M26.0437 77.6704H25.1702V75.2508H26.0437V77.6704ZM29.9794 66.9877H29.1059V64.568H29.9794V66.9877ZM13.8047 62.811C13.7345 62.811 13.2826 62.811 13.2826 62.9014C13.2826 62.9917 13.4935 62.9516 13.8047 63.0018C14.5075 63.1222 14.7786 63.4737 15.2706 63.4737C15.7124 63.4737 16.1742 63.1724 15.9935 62.5299C15.9634 62.4194 15.9031 62.4496 15.883 62.5198C15.8128 62.811 15.4614 62.9716 15.0899 62.9716C14.628 62.9716 14.5276 62.811 13.8047 62.811ZM8.98542 65.2307C9.06574 65.3411 9.88903 66.4054 8.62397 66.817C8.56373 66.8371 8.5537 66.8873 8.63402 66.9275C9.56776 67.319 10.0196 66.5961 10.0196 66.5961C10.4915 67.6704 9.76855 68.2728 9.76855 68.2728C9.86895 68.4636 10.3208 68.7949 10.9935 68.9455C11.2545 68.805 11.616 68.5439 11.7666 68.1423C11.7666 68.1423 11.9473 68.6142 11.7867 69.066C13.6943 69.2367 14.367 67.7106 15.8429 67.9917C15.883 68.0018 15.9031 67.9716 15.9031 67.9315C15.9031 66.9877 15.3308 65.2708 13.5035 64.9194C11.6863 64.568 12.1782 63.8251 12.1782 63.8251C12.9413 63.7949 13.383 64.1263 13.383 64.1263C13.5236 63.8953 13.3228 63.6544 13.3228 63.6544C13.3931 63.564 13.4332 63.2528 13.4332 63.2528C12.5698 63.2528 12.3489 63.062 12.3489 63.062C12.2184 62.55 12.5698 61.8271 13.8549 62.6002C14.1762 62.319 14.1461 61.8773 14.1461 61.8773C14.2465 61.8271 14.3067 61.6765 14.3067 61.6162C14.3067 61.4054 13.2826 60.8331 13.0216 60.7628C12.9614 60.4516 12.5598 60.0098 11.3549 60.1704C10.7826 60.2407 10.371 60.0901 10.5618 59.7588C10.5919 59.6986 10.4915 59.6885 10.4413 59.7487C10.3108 59.8793 10.13 60.2508 10.622 60.5018C11.1742 60.7829 11.2043 61.3351 11.2144 61.4154C11.2244 61.5359 11.0839 61.5459 11.0537 61.4255C10.8027 60.4917 9.51754 60.2909 8.76453 60.7829C8.80469 61.2849 9.34687 61.6162 9.63804 61.6162C9.80872 61.6162 10.0397 61.4455 10.0397 61.2146C10.0397 61.1042 10.0999 61.1142 10.13 61.2046C10.2505 61.5359 9.75851 62.2287 9.03562 61.807C8.29265 62.55 8.59386 63.4736 8.66414 63.805C8.79466 64.4074 8.50349 64.9998 7.95128 64.7287C7.92116 64.7186 7.89104 64.7086 7.89104 64.7688C7.90108 65.1303 8.40309 65.562 8.98542 65.2307ZM13.0919 61.4857C12.7405 61.8773 12.1782 61.7869 12.0377 61.1443C12.7505 61.1042 13.0618 61.1745 13.0919 61.4857ZM35.2505 62.9716C34.879 62.9716 34.5276 62.811 34.4573 62.5198C34.4373 62.4496 34.377 62.4194 34.3469 62.5299C34.1662 63.1724 34.628 63.4737 35.0698 63.4737C35.5618 63.4737 35.8328 63.1222 36.5357 63.0018C36.8469 62.9516 37.0577 63.0018 37.0577 62.9014C37.0577 62.811 36.6059 62.811 36.5357 62.811C35.8027 62.811 35.7124 62.9716 35.2505 62.9716ZM42.4292 64.7487C42.4292 64.6885 42.3991 64.6985 42.369 64.7086C41.8168 64.9797 41.5256 64.3973 41.6561 63.7849C41.7264 63.4435 42.0276 62.5299 41.2847 61.7869C40.5517 62.2086 40.0598 61.5158 40.1903 61.1845C40.2204 61.0941 40.2806 61.0841 40.2806 61.1945C40.2806 61.4255 40.5116 61.5961 40.6822 61.5961C40.9734 61.5961 41.5156 61.2648 41.5557 60.7628C40.8027 60.2708 39.5176 60.4716 39.2666 61.4054C39.2365 61.5259 39.0959 61.5158 39.1059 61.3953C39.1059 61.315 39.1461 60.7628 39.6983 60.4817C40.2003 60.2307 40.0196 59.8592 39.879 59.7287C39.8288 59.6785 39.7184 59.6885 39.7585 59.7387C39.9493 60.07 39.5377 60.2206 38.9754 60.1504C37.7706 59.9897 37.379 60.4415 37.3087 60.7427C37.0477 60.813 36.0236 61.3853 36.0236 61.5961C36.0236 61.6564 36.0838 61.817 36.1843 61.8572C36.1843 61.8572 36.1642 62.2889 36.4754 62.5801C37.7505 61.807 38.112 62.5299 37.9814 63.0419C37.9814 63.0419 37.7505 63.2226 36.8871 63.2327C36.8871 63.2327 36.9272 63.5439 36.9975 63.6343C36.9975 63.6343 36.7967 63.8853 36.9373 64.1062C36.9373 64.1062 37.379 63.7749 38.1421 63.805C38.1421 63.805 38.6341 64.5479 36.8168 64.8994C34.9995 65.2508 34.4172 66.9676 34.4172 67.9114C34.4172 67.9616 34.4373 67.9817 34.4774 67.9716C35.9533 67.7006 36.626 69.2267 38.5336 69.0459C38.363 68.5941 38.5537 68.1222 38.5537 68.1222C38.7043 68.5238 39.0658 68.7949 39.3268 68.9255C40.0096 68.7749 40.4513 68.4536 40.5517 68.2528C40.5517 68.2528 39.8288 67.6604 40.3007 66.5761C40.3007 66.5761 40.7525 67.299 41.6863 66.9074C41.7666 66.8672 41.7465 66.817 41.6963 66.7969C40.4312 66.3853 41.2545 65.321 41.3349 65.2106C41.9373 65.562 42.4292 65.1303 42.4292 64.7487ZM38.2927 61.1443C38.1521 61.7869 37.5899 61.8773 37.2385 61.4857C37.2786 61.1745 37.5798 61.1042 38.2927 61.1443ZM24.8288 50.4114C24.8288 50.572 24.8991 50.7126 24.9493 50.7929C25.0598 50.9536 25.0397 51.0439 24.9895 51.0941C24.9393 51.1443 24.8489 51.1644 24.6883 51.054C24.5765 50.9754 24.4433 50.9333 24.3067 50.9335C24.0357 50.9335 23.8951 51.1142 23.8951 51.2648C23.8951 51.4154 24.0357 51.5961 24.3067 51.5961C24.4674 51.5961 24.6079 51.5259 24.6883 51.4757C24.8489 51.3652 24.9393 51.3853 24.9895 51.4355C25.0397 51.4857 24.9694 52.0379 24.8991 52.4797C24.4473 52.5801 24.2264 52.9415 24.2264 53.1524C24.2264 53.7046 24.8087 54.0158 25.1602 54.2066C25.5015 54.0259 26.0939 53.7046 26.0939 53.1524C26.0939 52.9415 25.873 52.57 25.4212 52.4797C25.361 52.0479 25.2806 51.4857 25.3308 51.4355C25.381 51.3853 25.4714 51.3652 25.632 51.4757C25.7124 51.5359 25.8529 51.5961 26.0136 51.5961C26.2847 51.5961 26.4252 51.4154 26.4252 51.2648C26.4252 51.1142 26.2847 50.9335 26.0136 50.9335C25.8529 50.9335 25.7124 51.0038 25.632 51.054C25.4714 51.1644 25.381 51.1443 25.3308 51.0941C25.2806 51.0439 25.2606 50.9536 25.371 50.7929C25.4312 50.7126 25.4915 50.572 25.4915 50.4114C25.4915 50.1403 25.3108 49.9998 25.1602 49.9998C25.0096 49.9998 24.8288 50.1403 24.8288 50.4114ZM25.1702 54.4877C25.0372 54.4877 24.907 54.5272 24.7964 54.6011C24.6858 54.675 24.5996 54.7801 24.5487 54.903C24.4978 55.0259 24.4845 55.1611 24.5104 55.2916C24.5364 55.4221 24.6004 55.542 24.6945 55.6361C24.7886 55.7302 24.9084 55.7942 25.0389 55.8201C25.1694 55.8461 25.3046 55.8328 25.4276 55.7819C25.5505 55.731 25.6555 55.6447 25.7295 55.5341C25.8034 55.4235 25.8429 55.2934 25.8429 55.1604C25.841 54.9826 25.7696 54.8125 25.6438 54.6868C25.5181 54.561 25.348 54.4895 25.1702 54.4877ZM25.1702 60.9235C27.8509 60.9235 29.3569 61.4355 29.3569 61.4355C29.367 60.0801 29.367 59.3271 30.1401 59.4375C29.7184 58.303 31.5457 57.8512 31.5457 56.3753C31.5457 55.4014 30.8529 55.2909 30.6521 55.2909C30.0497 55.2909 30.1401 55.6825 29.628 55.6825C29.5678 55.6825 29.4975 55.6624 29.4975 55.7126C29.4975 55.8833 29.6381 56.1745 29.879 56.1745C30.2003 56.1745 30.2003 55.8532 30.4413 55.8532C30.5417 55.8532 30.6923 55.9335 30.6923 56.2648C30.6923 56.8973 30.2806 57.5901 29.7887 58.1323C29.6782 57.9817 29.5276 57.8813 29.3369 57.8813C29.0457 57.8813 28.7947 58.1825 28.7947 58.554C28.7947 58.6945 28.8148 58.7949 28.865 58.9054C28.7043 58.9957 28.5537 59.0459 28.4533 59.0459C28.2324 59.0459 27.9011 58.9556 27.9011 58.4737C27.9011 57.3994 29.3369 56.4556 29.3369 55.0901C29.3369 54.4375 28.9051 53.7949 27.9915 53.7949C27.0176 53.7949 27.1983 54.6785 26.3549 54.6785C26.3148 54.6785 26.2847 54.6885 26.2847 54.7287C26.2847 54.7889 26.4353 55.2809 26.867 55.2809C27.3288 55.2809 27.4594 54.4777 27.881 54.4777C28.0316 54.4777 28.2626 54.568 28.2626 55.1102C28.2626 55.5319 28.0517 56.2247 27.7505 56.8773C27.6404 56.7609 27.4889 56.6924 27.3288 56.6865C26.9674 56.6865 26.7063 57.0379 26.7063 57.4496C26.7063 57.7106 26.8067 57.9716 26.9875 58.1323C26.7766 58.4034 26.5557 58.6243 26.2646 58.6243C25.6822 58.6243 25.4312 58.2929 25.4312 57.9315C25.4312 57.5399 26.1441 57.3994 26.1441 56.7969C26.1441 56.3853 25.873 56.1544 25.622 56.1544C25.3409 56.1544 25.2003 56.3351 25.1702 56.3351C25.1401 56.3351 24.9995 56.1544 24.7184 56.1544C24.4573 56.1544 24.1963 56.3853 24.1963 56.7969C24.1963 57.3994 24.9092 57.55 24.9092 57.9315C24.9092 58.2929 24.6481 58.6243 24.0758 58.6243C23.7847 58.6243 23.5638 58.4034 23.3529 58.1323C23.5336 57.9616 23.6341 57.7106 23.6341 57.4496C23.6341 57.0279 23.373 56.6865 23.0116 56.6865C22.932 56.6884 22.8537 56.7062 22.7812 56.739C22.7088 56.7717 22.6437 56.8188 22.5899 56.8773C22.2887 56.2146 22.0778 55.5319 22.0778 55.1102C22.0778 54.568 22.3087 54.4777 22.4594 54.4777C22.871 54.4777 23.0015 55.2809 23.4734 55.2809C23.9051 55.2809 24.0557 54.7889 24.0557 54.7287C24.0557 54.6985 24.0256 54.6785 23.9855 54.6785C23.1421 54.6785 23.3228 53.7949 22.3489 53.7949C21.4453 53.7949 21.0035 54.4375 21.0035 55.0901C21.0035 56.4556 22.4393 57.3994 22.4393 58.4737C22.4393 58.9556 22.1079 59.0459 21.8871 59.0459C21.7766 59.0459 21.6361 58.9957 21.4754 58.9054C21.5256 58.7849 21.5457 58.6945 21.5457 58.554C21.5457 58.1825 21.2947 57.8813 21.0035 57.8813C20.8228 57.8813 20.6722 57.9817 20.5618 58.1323C20.0698 57.5901 19.6581 56.8973 19.6581 56.2648C19.6581 55.9435 19.8087 55.8532 19.9091 55.8532C20.1401 55.8532 20.1501 56.1745 20.4714 56.1745C20.7124 56.1745 20.8529 55.8833 20.8529 55.7126C20.8529 55.6624 20.7826 55.6825 20.7224 55.6825C20.2104 55.6825 20.3007 55.2909 19.6983 55.2909C19.4975 55.2909 18.8047 55.4014 18.8047 56.3753C18.8047 57.8612 20.632 58.303 20.2104 59.4375C20.9834 59.3271 20.9734 60.0801 20.9935 61.4355C20.9734 61.4355 22.4895 60.9235 25.1702 60.9235ZM20.2606 62.9214C19.5276 63.0821 19.0055 63.2327 18.7746 63.303C18.7847 62.9817 18.9051 62.6805 19.1963 62.6202C19.2365 62.6102 19.2465 62.56 19.2063 62.5399C18.5537 62.1082 18.2124 62.9315 18.2023 62.9616C17.9714 62.9415 17.62 63.0118 17.62 63.323C17.62 64.2568 15.4915 64.7688 14.9995 64.8491C15.873 65.1805 16.2345 66.2849 16.2345 66.2849C16.867 65.6524 17.5999 65.1002 17.7706 65.1002C17.9413 65.1002 18.0015 65.311 18.0116 65.4315C18.0116 65.4716 18.0517 65.4817 18.0818 65.4516C18.4132 64.9596 18.2525 64.8492 18.2224 64.6986C18.2023 64.5881 18.2324 64.1564 18.7144 64.2066V70.4214L18.4634 70.4716C18.3529 70.4917 17.4393 69.7186 16.4051 68.9957C15.361 68.2728 14.8087 68.7046 13.624 69.3471C12.0678 70.1905 10.5015 69.4275 10.5015 69.4275C9.16615 70.3813 8.70429 73.1524 8.70429 73.1524C8.43321 73.2628 7.99144 73.3833 7.57979 73.3833C6.5557 73.3833 6.37498 72.7608 6.37498 72.3994C6.37498 70.823 8.3529 70.1504 8.3529 68.5941C8.3529 68.2126 8.1822 66.6865 6.28461 66.6865H4.58784C3.87498 66.6865 3.70429 66.1745 3.60389 65.9837C3.56373 65.9034 3.49345 65.9536 3.52357 66.0138C3.57377 66.1443 3.44324 66.3451 3.44324 66.7367C3.44324 67.3692 3.81474 67.7508 4.50751 67.7508C4.81876 67.7508 5.11995 67.6604 5.21032 67.6002C5.27056 67.56 5.31072 67.6202 5.2806 67.6604C4.97939 68.0118 4.95931 68.6745 5.07979 68.8251C5.10991 68.8652 5.15008 68.8552 5.15008 68.8251C5.32077 68.1624 5.94325 67.5299 6.78662 67.5299C7.82076 67.5299 7.81072 68.4034 7.81072 68.6142C7.81072 69.8793 5.59185 70.803 5.59185 72.55C5.59185 74.317 7.45931 74.6885 8.53361 74.4174C8.47337 76.1845 6.44526 76.7869 6.38501 75.5218C6.38501 75.4616 6.33481 75.4516 6.30469 75.5319C6.05369 76.1544 6.15409 76.7066 6.93722 76.8773C6.98742 76.8873 6.96734 76.9174 6.91714 76.9576C6.13401 77.4496 6.55571 79.3973 6.59587 79.9696C6.65611 80.7929 5.83282 80.6925 5.76253 80.6724C5.73241 80.6624 5.69224 80.6724 5.75248 80.7427C6.33481 81.4556 7.05771 80.803 7.05771 80.803C7.59987 80.9737 7.26855 81.4355 6.89706 81.6765C6.83682 81.7166 6.84687 81.7568 6.90711 81.7568C6.98743 81.7668 7.8308 81.8371 7.9814 81.1644C8.35289 81.6062 8.90509 81.4455 9.01554 81.3853C9.17618 81.305 9.96935 81.0138 10.0397 81.8973C10.0397 81.9576 10.0798 81.9174 10.11 81.8873C10.7023 81.1343 10.0698 80.6724 9.70831 80.6222C9.73843 80.5821 10.2104 80.1805 10.6421 80.7327C10.6722 80.7728 10.7023 80.7829 10.7023 80.7026C10.7525 79.7487 9.97939 79.6684 9.47738 80.0801C9.4573 79.9797 9.28662 79.4475 10.0397 79.4676C10.0598 79.4676 10.0899 79.4375 10.0598 79.4074C9.47739 78.7849 8.99546 79.3471 8.87497 79.4877C8.61393 79.7989 7.96132 79.6684 7.90108 79.6684C8.10188 76.3652 11.0136 77.5399 11.4152 75.9335C11.4353 75.8532 11.4754 75.8833 11.4754 75.9134C11.5859 76.305 12.5698 76.3552 12.7505 75.5921C12.7606 75.5419 12.7505 75.5118 12.7204 75.5419C11.877 76.3853 9.9794 73.7548 12.5698 71.6162C14.7786 69.799 16.7565 70.813 17.5096 71.4054C17.5497 71.6664 17.3891 71.7568 17.2887 71.7869C17.2485 71.7969 17.2385 71.8271 17.2987 71.8572C17.5096 71.9375 17.8007 71.9074 17.9413 71.7166C18.4132 72.0479 18.0116 72.4696 17.8208 72.5801C17.7706 72.6102 17.7907 72.6403 17.8308 72.6504C18.2626 72.7307 18.624 72.2889 18.6441 72.0279L18.7144 72.068V73.9455C18.7144 76.6162 21.7967 76.9877 25.1802 79.2467C28.5638 76.9777 31.6361 76.6162 31.6361 73.9455V72.068L31.7063 72.0279C31.7264 72.2789 32.0778 72.7307 32.5196 72.6504C32.5598 72.6403 32.5798 72.6102 32.5296 72.5801C32.3389 72.4596 31.9272 72.0479 32.4092 71.7166C32.5497 71.9174 32.8409 71.9375 33.0517 71.8572C33.112 71.8371 33.1019 71.7969 33.0618 71.7869C32.9614 71.7568 32.8007 71.6664 32.8409 71.4054C33.5939 70.803 35.5718 69.7889 37.7806 71.6162C40.371 73.7548 38.4734 76.3753 37.63 75.5419C37.5899 75.5018 37.5899 75.5419 37.5999 75.5921C37.7806 76.3652 38.7646 76.305 38.875 75.9134C38.8851 75.8833 38.9252 75.8532 38.9353 75.9335C39.3369 77.5399 42.2385 76.3652 42.4493 79.6684C42.3891 79.6785 41.7365 79.7989 41.4754 79.4877C41.365 79.3572 40.883 78.7849 40.2907 79.4074C40.2505 79.4475 40.2907 79.4676 40.3108 79.4676C41.0638 79.4475 40.9031 79.9797 40.873 80.0801C40.371 79.6684 39.5979 79.7487 39.6481 80.7026C39.6481 80.7728 39.6782 80.7728 39.7083 80.7327C40.1401 80.1805 40.612 80.5821 40.6421 80.6222C40.2907 80.6724 39.6481 81.1343 40.2405 81.8873C40.2706 81.9174 40.3007 81.9576 40.3108 81.8973C40.3911 81.0138 41.1742 81.2949 41.3349 81.3853C41.4453 81.4455 41.9975 81.6062 42.369 81.1644C42.5196 81.8371 43.363 81.7668 43.4433 81.7568C43.5035 81.7568 43.5035 81.7166 43.4533 81.6765C43.0919 81.4355 42.7505 80.9737 43.2927 80.803C43.2927 80.803 44.0156 81.4556 44.5979 80.7427C44.6481 80.6825 44.618 80.6624 44.5879 80.6724C44.5176 80.6925 43.6943 80.7929 43.7545 79.9696C43.7947 79.3973 44.2164 77.4496 43.4332 76.9576C43.383 76.9275 43.363 76.8973 43.4132 76.8773C44.1963 76.7066 44.2967 76.1544 44.0457 75.5319C44.0156 75.4516 43.9654 75.4716 43.9654 75.5218C43.9051 76.7869 41.8871 76.1845 41.8168 74.4174C42.9011 74.6986 44.7585 74.317 44.7585 72.55C44.7585 70.813 42.5397 69.8793 42.5397 68.6142C42.5397 68.4034 42.5296 67.5299 43.5638 67.5299C44.4071 67.5299 45.0296 68.1624 45.2003 68.8251C45.2104 68.8552 45.2405 68.8652 45.2706 68.8251C45.3911 68.6644 45.371 68.0118 45.0698 67.6604C45.0397 67.6303 45.0698 67.56 45.1401 67.6002C45.2304 67.6604 45.5316 67.7508 45.8429 67.7508C46.5357 67.7508 46.9071 67.3692 46.9071 66.7367C46.9071 66.3451 46.7666 66.1443 46.8268 66.0138C46.8569 65.9536 46.7766 65.9134 46.7465 65.9837C46.6461 66.1845 46.4653 66.6865 45.7625 66.6865H44.0658C42.1682 66.6865 41.9975 68.2226 41.9975 68.5941C41.9975 70.1504 43.9754 70.823 43.9754 72.3994C43.9754 72.7708 43.7847 73.3833 42.7706 73.3833C42.3489 73.3833 41.9071 73.2628 41.6461 73.1524C41.6461 73.1524 41.1943 70.3913 39.8489 69.4275C39.8489 69.4275 38.2826 70.1905 36.7264 69.3471C35.5417 68.7046 34.9794 68.2728 33.9353 68.9957C32.8911 69.7186 31.9875 70.4917 31.877 70.4716L31.626 70.4214V64.2066C32.1079 64.1564 32.1381 64.5881 32.118 64.6986C32.0879 64.8391 31.9373 64.9596 32.2585 65.4516C32.2887 65.4917 32.3188 65.4716 32.3288 65.4315C32.3389 65.311 32.4092 65.1002 32.5698 65.1002C32.7304 65.1002 33.4734 65.6524 34.1059 66.2849C34.1059 66.2849 34.4674 65.1905 35.3409 64.8491C34.8489 64.7688 32.7204 64.2568 32.7204 63.323C32.7204 63.0118 32.369 62.9415 32.1381 62.9616C32.128 62.9315 31.7766 62.1082 31.134 62.5399C31.1039 62.56 31.1039 62.6102 31.1441 62.6202C31.4353 62.6905 31.5557 62.9817 31.5658 63.303C30.9433 63.1122 28.3027 62.3692 25.1702 62.3692C23.6441 62.3692 22.2485 62.55 21.1341 62.7508V64.8994H20.2606V62.9214ZM14.4674 84.9897C14.2365 84.8994 14.0859 84.7487 14.0859 84.4375V83.1022C13.7043 82.9716 12.6602 82.57 10.5618 82.57C8.82478 82.57 8.28261 82.9616 8.25248 83.1022L7.79064 85.6524C7.79064 85.6524 8.49345 85.0098 11.0136 85.1704C14.0457 85.3612 17.1883 87.1584 17.1883 85.2407V84.1162C14.8188 84.1162 14.4674 84.8793 14.4674 84.9897ZM33.1421 84.1162V85.2407C33.1421 87.1483 36.2847 85.3612 39.3168 85.1704C41.8369 85.0098 42.5397 85.6524 42.5397 85.6524L42.0778 83.1022C42.0577 82.9616 41.5055 82.57 39.7686 82.57C37.6802 82.57 36.6361 82.9716 36.2445 83.1022V84.4375C36.2445 84.7387 36.0939 84.8893 35.863 84.9897C35.863 84.8793 35.5116 84.1162 33.1421 84.1162ZM25.1702 82.9616C30.0598 82.9616 35.0196 83.2126 35.6622 83.9556C35.7124 84.0158 35.7324 83.9556 35.7324 83.9054V81.315C35.7324 80.562 30.612 80.1202 25.1602 80.1202C19.7083 80.1202 14.5879 80.562 14.5879 81.315V83.9054C14.5879 83.9455 14.6079 84.0058 14.6581 83.9556C15.3208 83.2226 20.2806 82.9616 25.1702 82.9616ZM20.8128 70.7528L20.3208 70.6222L20.2806 70.6825L19.7083 70.4315H20.2204C20.2706 70.4315 20.2706 70.4014 20.2505 70.3813C20.0196 70.1504 19.8087 69.9496 19.8087 69.9496C19.8087 69.9496 20.0397 70.0399 20.371 70.1604C20.4112 70.1704 20.4212 70.1504 20.4011 70.1202L20.0196 69.568L20.5718 69.9395C20.6019 69.9596 20.622 69.9395 20.612 69.9094L20.3509 69.2568L20.8529 69.7387C20.873 69.7588 20.9031 69.7488 20.8931 69.7186L20.7525 69.066L21.124 69.6082C21.1441 69.6383 21.1742 69.6283 21.1742 69.5981C21.1742 69.4877 21.1843 69.0058 21.1843 69.0058C21.1843 69.0058 21.3449 69.3672 21.4152 69.5479C21.4353 69.5881 21.4553 69.5881 21.4754 69.5379C21.4955 69.4777 21.6662 69.0761 21.6662 69.0761L21.6863 69.6985L21.6059 69.7186L21.5055 70.4616C22.2385 70.2909 23.1622 69.0259 23.865 69.0259C24.7083 69.0259 25.0096 70.0098 26.5557 69.5078C26.9473 70.0901 27.0879 70.5921 27.2385 71.2849C27.8409 71.8471 28.6742 71.6564 28.6742 71.064C28.6742 70.2608 27.8007 70.1102 27.8007 69.2668C27.8007 68.8953 28.0618 68.3532 28.7746 68.3532C29.1561 68.3532 29.7083 68.5138 30.0296 68.5138C30.4112 68.5138 30.4915 68.2427 30.5316 68.1222C30.5618 68.0419 30.6722 68.062 30.6622 68.1323C30.6521 68.2126 30.7023 68.3231 30.7023 68.5038C30.7023 69.0359 29.9292 69.1062 29.8389 69.0359C29.7987 69.0058 29.7686 69.0459 29.7987 69.0761C29.9192 69.1664 29.8891 69.4877 29.7485 69.6885C29.7284 69.7086 29.7083 69.7086 29.7083 69.6885C29.628 69.307 29.1762 68.8351 28.7847 68.8351C28.6441 68.8351 28.3529 68.9154 28.3529 69.2568C28.3529 69.7287 29.3067 70.1704 29.3067 71.1544C29.3067 72.1785 28.2927 72.4295 27.2686 72.1684C27.2987 73.1423 28.7545 73.7146 28.7847 73.0218C28.7847 72.9716 28.8148 73.0018 28.8248 73.0218C29.0357 73.323 28.9453 73.5439 28.6642 73.6644C28.9152 73.7749 28.9654 74.2869 29.0357 74.5981C29.1461 75.06 29.628 74.7989 29.6581 74.7889C29.6883 74.7688 29.6983 74.7889 29.6782 74.819C29.4975 75.2909 29.0055 75.1102 29.0055 75.1102C28.7545 75.2909 29.0557 75.4516 29.2867 75.5218C29.3168 75.5319 29.3168 75.552 29.2967 75.572C29.126 75.6323 28.7646 75.7528 28.5838 75.4415C28.4533 75.7628 28.1822 75.7528 28.0818 75.7528C27.8911 75.7528 27.7706 75.9435 27.8108 76.2046C27.8108 76.2247 27.8007 76.2347 27.7806 76.2247C27.3389 75.9335 27.5899 75.5821 27.7706 75.4917C27.7405 75.4716 27.4292 75.3411 27.2987 75.7026C27.2887 75.7327 27.2686 75.7327 27.2585 75.7026C27.0678 75.1805 27.4895 75.0299 27.7907 75.1604C27.7706 75.0901 27.61 74.8291 27.2083 74.9194C27.1883 74.9295 27.1782 74.9194 27.1883 74.8893C27.2585 74.7287 27.4493 74.4977 27.8208 74.7287C28.0116 74.8492 28.3328 74.6785 28.363 74.6584C27.7104 73.3632 26.4553 74.4475 26.1642 73.4335C26.1541 73.4134 26.134 73.3933 26.114 73.4536C26.0437 73.6644 25.4915 73.6845 25.3911 73.2628C25.381 73.2327 25.3911 73.2226 25.4212 73.2427C25.5015 73.323 25.6722 73.3933 25.9031 73.072C26.0537 72.8512 26.0738 72.56 26.0738 72.3692C26.0738 71.5861 25.2907 70.2608 24.0658 70.2608C23.2927 70.2608 22.4594 70.562 21.8369 71.0138L22.4092 71.1443C22.359 71.7267 21.7967 72.068 21.2847 71.9174L21.375 71.2548C21.2847 71.2849 21.0638 71.3652 20.9433 71.5359C20.9332 71.5459 20.9132 71.5459 20.9132 71.5259C20.8128 71.1443 21.124 70.9536 21.2144 70.9134C21.2244 70.9034 21.2244 70.9034 21.2043 70.9034C20.9232 70.8933 20.7726 71.0941 20.7224 71.1644C20.7124 71.1744 20.7023 71.1744 20.7023 71.1644C20.7324 71.0841 20.6822 70.8933 20.8128 70.7528ZM22.5196 75.2508C22.2987 75.5218 22.1079 75.2608 21.8168 75.2608C21.5457 75.2608 21.4955 75.4917 21.4955 75.5821C21.4955 75.6022 21.4855 75.6022 21.4754 75.5921C21.1642 75.1704 21.5156 74.9395 21.7164 74.9094C21.6863 74.8793 21.3851 74.6785 21.1943 74.9596C21.1843 74.9797 21.1642 74.9696 21.1642 74.9496C21.1541 74.4275 21.5658 74.3873 21.8469 74.6182C21.8971 74.4174 21.7666 74.2869 21.5457 74.2769C21.5156 74.2769 21.5156 74.2568 21.5256 74.2467C21.616 74.1463 21.7063 74.1062 21.7967 74.1062C22.0879 74.1062 22.128 74.4777 22.3188 74.4777C22.5999 74.4777 23.0116 74.0961 23.0417 74.056C23.0316 74.0359 22.7606 73.2929 22.8108 72.8512C22.8108 72.8311 22.8007 72.8311 22.7907 72.8411C22.6501 72.9214 22.3087 72.9114 22.3087 72.4897C22.3087 72.4596 22.3188 72.4496 22.3389 72.4797C22.4895 72.6905 22.7405 72.4495 22.861 72.309C22.9915 72.1584 23.7144 71.1142 24.6682 71.1142C24.879 71.1142 25.1501 71.2347 25.371 71.3853C25.0397 71.7869 25.371 72.1684 25.612 72.1182C25.6421 72.1082 25.6421 72.1383 25.622 72.1483C24.3569 72.6202 23.7947 72.811 23.7947 73.8753C23.7947 74.4275 23.9855 74.7387 24.3067 74.6584C24.3268 74.6483 24.3369 74.6584 24.3168 74.6785C24.1963 74.819 24.0658 74.8692 23.9553 74.8692C23.6943 74.8692 23.6441 74.7287 23.5035 74.7287C23.363 74.7287 22.8911 75.0098 22.8911 75.2407C22.8911 75.3311 22.9513 75.4516 23.112 75.552C23.122 75.562 23.112 75.572 23.112 75.572C22.9814 75.572 22.61 75.6022 22.5196 75.2508ZM25.8529 64.9596C25.4614 64.9395 25.2003 65.0198 25.2204 65.1504C25.4011 65.3512 25.6622 65.3311 25.8529 64.9596ZM24.3871 65.9335C24.6682 65.8632 24.9694 65.8933 25.0096 65.9034C25.0497 65.9134 25.0497 65.9837 24.9995 65.9937C24.4172 66.064 24.3871 66.3351 24.0156 66.3351C23.7746 66.3351 23.5035 66.0841 23.6039 65.7226C23.614 65.6724 23.6541 65.6724 23.6642 65.7226C23.7043 65.8833 23.9353 66.054 24.3871 65.9335ZM16.8268 78.8451C17.2083 79.3371 17.5798 78.8753 18.0919 78.8753C18.3429 78.8753 18.6441 78.9556 18.6943 79.4576C18.6943 79.4877 18.7144 79.4877 18.7445 79.4576C19.2967 78.7046 18.6642 78.2829 18.3027 78.2226C18.383 78.1524 18.9152 77.821 19.2666 78.313C19.2867 78.3431 19.3268 78.3331 19.3268 78.2929C19.3268 77.3391 18.614 77.2688 18.0919 77.6805C17.9915 77.309 18.2726 77.068 18.6341 77.068C18.6742 77.068 18.6943 77.0379 18.6742 77.0178C18.0316 76.3351 17.5598 77.1985 17.4493 77.3291C17.1983 77.6704 16.2847 77.0279 15.9132 76.6463C15.9132 76.6463 16.7164 75.803 16.7164 75.0299C16.7164 74.9797 16.7063 74.9194 16.7063 74.8893C16.7063 74.8692 16.7164 74.8592 16.7365 74.8692C16.8168 74.9194 16.9272 74.9496 17.0377 74.9496C17.2184 74.9496 17.5698 74.8893 17.5698 74.2367C17.5698 74.1865 17.5497 74.1865 17.5296 74.2166C17.4292 74.3572 17.3288 74.3873 17.2485 74.3873C16.5959 74.3873 15.2405 72.2186 13.6341 72.2186C13.2124 72.2186 12.4192 72.5198 12.0276 72.9516C12.2184 73.062 12.2585 73.303 12.2385 73.4736C12.2083 73.7447 11.9875 73.8853 11.7666 73.9455C11.7264 73.9556 11.7264 73.9857 11.7666 74.0058C12.5798 74.317 14.0457 74.8692 14.3871 75.1604C14.7786 75.5018 14.7083 76.1443 14.4774 77.0379C14.2565 77.8913 13.7847 77.7809 13.6039 77.7508C13.5738 77.7508 13.5738 77.7608 13.5838 77.7809C13.7947 78.0419 14.0457 78.1323 14.2666 78.1323C14.6883 78.1323 14.8489 77.8712 15.0598 77.8712C15.4212 77.8712 16.1943 78.3933 16.1943 78.7949C16.1943 79.0158 16.0236 79.2267 15.7927 79.3672C15.7826 79.3773 15.7826 79.3973 15.8027 79.3973C15.9734 79.4275 16.6963 79.4877 16.8268 78.8451ZM34.5377 79.3973C34.5577 79.3973 34.5678 79.3773 34.5477 79.3672C34.3268 79.2166 34.1461 79.0158 34.1461 78.7949C34.1461 78.3933 34.9091 77.8712 35.2806 77.8712C35.5015 77.8712 35.6521 78.1323 36.0738 78.1323C36.2947 78.1323 36.5457 78.0419 36.7565 77.7809C36.7766 77.7608 36.7666 77.7407 36.7365 77.7508C36.5658 77.7809 36.0838 77.8913 35.863 77.0379C35.632 76.1443 35.5517 75.5018 35.9533 75.1604C36.2847 74.8692 37.7606 74.317 38.5738 74.0058C38.614 73.9857 38.614 73.9556 38.5738 73.9455C38.3529 73.8853 38.132 73.7447 38.1019 73.4736C38.0818 73.303 38.122 73.072 38.3128 72.9516C37.9112 72.5198 37.118 72.2186 36.6963 72.2186C35.0899 72.2186 33.7345 74.3873 33.0818 74.3873C33.0015 74.3873 32.8911 74.3572 32.8007 74.2166C32.7806 74.1865 32.7606 74.1865 32.7606 74.2367C32.7606 74.8893 33.112 74.9496 33.2927 74.9496C33.3931 74.9496 33.5136 74.9194 33.5939 74.8692C33.614 74.8592 33.624 74.8692 33.624 74.8893C33.624 74.9194 33.614 74.9797 33.614 75.0299C33.614 75.803 34.4172 76.6463 34.4172 76.6463C34.0557 77.0279 33.1421 77.6604 32.881 77.3291C32.7706 77.1885 32.2987 76.3351 31.6561 77.0178C31.6361 77.0479 31.6461 77.068 31.6963 77.068C32.0577 77.068 32.3389 77.309 32.2385 77.6805C31.7164 77.2688 31.0035 77.3391 31.0035 78.2929C31.0035 78.3331 31.0437 78.3431 31.0638 78.313C31.4051 77.821 31.9473 78.1524 32.0176 78.2226C31.6561 78.2728 31.0336 78.7046 31.5758 79.4576C31.5959 79.4877 31.616 79.4877 31.626 79.4576C31.6863 78.9656 31.9875 78.8753 32.2284 78.8753C32.7304 78.8753 33.1019 79.3371 33.4935 78.8451C33.6441 79.4877 34.3569 79.4275 34.5377 79.3973ZM21.5658 66.8773C21.5156 66.9475 21.3449 66.8773 21.2847 66.8471C21.2746 66.8371 21.2646 66.8471 21.2746 66.8572C21.3148 66.9475 21.4754 67.2186 21.7164 67.2186C21.8268 67.2186 21.9875 67.1584 22.0276 67.0781C22.0276 67.0781 22.9714 67.3893 23.4332 67.5098C23.2525 67.7508 23.1421 68.0419 23.112 68.3532C22.7405 68.1222 21.2345 67.319 21.2345 67.319L20.7726 67.9616C20.6923 68.062 20.3208 67.7909 20.4011 67.6905L20.7525 67.1985C20.632 67.0781 20.3509 67.1484 20.2706 67.1785C20.2606 67.1785 20.2505 67.1785 20.2606 67.1584C20.3108 67.058 20.4814 66.7668 20.9232 66.8973C20.9232 66.6263 20.5216 66.7166 20.4112 66.7467C20.4011 66.7467 20.3911 66.7467 20.4011 66.7367C20.5116 66.6162 20.8429 66.3552 21.2043 66.5761L21.365 66.3552L21.0437 66.0138L21.2445 65.7327L21.4754 66.0339L23.2124 63.6544C23.2525 63.5941 23.6039 63.4937 23.7244 63.4636C23.7345 63.5941 23.7545 63.9556 23.7144 64.0158L22.0075 66.4154L22.369 66.5359L22.1682 66.817L21.7465 66.6162L21.5658 66.8773ZM27.6602 66.4857C27.6602 66.7066 27.7907 67.0279 28.0818 66.9275C28.0919 66.9174 28.112 66.9275 28.1019 66.9375C28.0618 67.1785 27.62 67.3994 27.4292 67.1182C27.2485 67.4897 27.2987 67.8411 27.6702 68.0419C27.6903 68.052 27.6903 68.0821 27.6702 68.1022C27.4393 68.2628 27.0879 68.2327 26.9272 67.9114C26.616 68.1423 26.6561 68.6443 26.8469 68.815C26.8469 68.815 25.9834 69.3271 25.2003 68.9656C24.6782 68.7146 24.2565 68.3933 23.5839 68.4536C23.6742 67.5098 24.1461 67.2688 25.0096 67.1283C25.7023 67.0178 25.7826 66.6965 25.6923 66.4556C25.4614 66.3953 25.0296 66.6062 25.0296 66.6062C24.9493 66.4757 25.0598 66.3451 25.0598 66.3451C25.0196 66.2949 24.9995 66.1243 24.9995 66.1243C25.4814 66.1243 25.5718 66.0138 25.5718 66.0138C25.6622 65.5118 25.1501 65.4616 24.7585 65.7327C24.5778 65.572 24.6079 65.3612 24.6079 65.3612C24.5833 65.3436 24.5627 65.3211 24.5471 65.2952C24.5315 65.2693 24.5215 65.2405 24.5176 65.2106C24.5176 65.0901 25.0899 64.7688 25.2405 64.7287C25.2806 64.558 25.4814 64.3271 26.0939 64.3873C26.1642 64.2267 26.0437 63.6343 25.9734 63.4837C25.9533 63.4335 25.9834 63.4134 26.0336 63.4435C26.2445 63.5741 26.4553 64.0761 26.6059 64.0861C26.6059 64.0861 27.2887 63.7247 27.3188 63.7447C27.3489 63.7648 27.4493 64.5279 27.4493 64.5279C27.5397 64.6383 28.0718 64.5279 28.3027 64.6283C28.363 64.6584 28.363 64.6985 28.3027 64.7086C28.132 64.7387 27.5798 64.9797 27.4895 65.1303C27.8108 65.6022 27.6602 66.2949 27.6602 66.4857Z" fill="white"/>
<path d="M62.1587 64.7189C62.7611 64.5483 63.0623 64.237 63.0623 63.5342V55.8936L62.0784 55.5824V55.241C63.0623 55.0704 63.9458 55.0101 65.1808 55.0101C67.5302 55.0101 68.6547 55.9238 68.6547 57.6406C68.6547 59.1768 67.8013 60.1908 66.4157 60.6125L68.6145 63.5543C68.986 64.0563 69.498 64.4278 70.0603 64.6085V64.8997C69.7691 65.1005 69.3776 65.241 68.8756 65.241C68.2029 65.241 67.7711 64.98 67.2089 64.1366L65.1507 61.0242H64.4177V64.3073L65.4017 64.5583V64.8997C64.8896 65.0603 64.3173 65.1607 63.6246 65.1607C63.0824 65.1607 62.6105 65.1105 62.1587 65.0001V64.7189ZM65.0201 60.2912C66.235 60.2912 67.229 59.4981 67.229 57.8816C67.229 56.6065 66.4157 55.8736 65.0804 55.8736C64.8796 55.8736 64.6085 55.9037 64.4077 55.9338V60.2912H65.0201ZM70.8334 64.7591C71.2551 64.6085 71.6567 64.2973 71.6567 63.9157V58.6547L70.6627 58.233V57.9017C71.3655 57.7009 72.0784 57.6105 72.5101 57.6105H73.0121L72.9318 58.4539V64.3675L73.8053 64.5985V64.8896C73.2731 65.0804 72.7912 65.1507 71.998 65.1507C71.6366 65.1507 71.1848 65.1206 70.8334 65.0101V64.7591ZM71.486 55.2912C71.486 54.8093 71.8274 54.3776 72.3695 54.3776C72.8013 54.3776 73.1828 54.7089 73.1828 55.221C73.1828 55.7631 72.8113 56.1848 72.3093 56.1848C71.8474 56.1748 71.486 55.8033 71.486 55.2912ZM75.3816 58.6547L74.3876 58.233V57.9017C75.1005 57.7009 75.8033 57.6105 76.2551 57.6105H76.7571L76.6667 58.484V65.472C76.6667 68.0222 75.9037 68.8153 74.9097 68.8153C74.5683 68.8153 74.227 68.6948 74.0362 68.4438V68.1928C74.7189 68.1928 75.3916 67.4097 75.3916 65.8234V58.6547H75.3816ZM75.2109 55.2912C75.2109 54.8093 75.5523 54.3776 76.0944 54.3776C76.5262 54.3776 76.9077 54.7089 76.9077 55.221C76.9077 55.7631 76.5362 56.1848 76.0342 56.1848C75.5723 56.1748 75.2109 55.8033 75.2109 55.2912ZM78.1928 64.7591C78.6145 64.6085 79.0362 64.2973 79.0362 63.9157V54.8896L78.0121 54.4679V54.1266C78.725 53.9258 79.4478 53.8455 79.8796 53.8455H80.4117L80.3213 54.719V60.9438L81.1748 60.2009C82.0181 59.488 82.7812 58.4137 82.7812 57.7109C83.0623 57.6206 83.2932 57.5904 83.6045 57.5904C83.8354 57.5904 84.0262 57.6406 84.227 57.731C84.1968 58.4037 83.5242 59.4579 82.1085 60.472L81.5663 60.8635L83.9659 63.7752C84.3976 64.3073 84.7892 64.5181 85.1205 64.5181V64.8495C84.7792 65.0804 84.4177 65.1808 83.9659 65.1808C83.5342 65.1808 83.1527 64.99 82.8615 64.5884L80.3213 61.2451V64.3876L81.1346 64.6386V64.9298C80.5623 65.1206 80.1105 65.1808 79.3776 65.1808C79.0161 65.1808 78.5643 65.1507 78.2129 65.0402V64.7591H78.1928ZM85.7832 63.3334C86.486 63.986 87.1486 64.3173 87.982 64.3173C88.8555 64.3173 89.3073 63.8957 89.3073 63.3535C89.3073 62.8113 88.996 62.47 87.9719 62.0282L87.1989 61.6969C86.2952 61.3053 85.7932 60.6527 85.7932 59.7691C85.7932 58.5442 86.8776 57.48 88.5041 57.48C89.7491 57.48 90.2511 57.8515 90.2511 58.4438C90.2511 58.6748 90.2209 58.8756 90.1707 59.0965C89.6687 58.7551 88.986 58.5041 88.3936 58.5041C87.3997 58.5041 86.9278 58.9358 86.9278 59.4679C86.9278 60.0302 87.2089 60.3414 88.1426 60.6928L88.986 61.0242C90.1105 61.4559 90.5322 62.0382 90.5322 62.9519C90.5322 64.1467 89.3776 65.241 87.6406 65.241C86.2752 65.241 85.6627 64.8093 85.6627 63.9659C85.6426 63.7551 85.6928 63.5041 85.7832 63.3334ZM95.1507 57.5202C95.5221 57.5202 95.9739 57.5704 96.225 57.6306V54.8896L95.1707 54.4679V54.1266C95.8836 53.9258 96.6466 53.8455 97.0985 53.8455H97.6005L97.5101 54.719V63.6346C97.6205 63.9459 97.8013 64.2772 98.1025 64.5382C97.7912 64.8193 97.4499 65.0402 97.0081 65.2712C96.6968 65.0202 96.4157 64.6687 96.2651 64.3374C95.7631 64.8495 94.9097 65.221 94.2772 65.221C92.7009 65.221 91.4458 63.9157 91.4458 61.8475C91.4258 59.0463 93.1225 57.5202 95.1507 57.5202ZM96.235 63.7149V58.5643C95.974 58.474 95.5221 58.3936 95.1005 58.3936C93.7752 58.3936 92.7812 59.4378 92.7812 61.5965C92.7812 63.2932 93.6647 64.2069 94.6486 64.2069C95.241 64.2069 95.8836 64.0061 96.235 63.7149ZM99.227 64.7591C99.6487 64.6085 100.05 64.2973 100.05 63.9157V58.6547L99.0563 58.233V57.9017C99.7591 57.7009 100.472 57.6105 100.914 57.6105H101.416L101.335 58.4539V64.3675L102.209 64.5985V64.8896C101.677 65.0804 101.195 65.1507 100.402 65.1507C100.04 65.1507 99.5884 65.1206 99.237 65.0101V64.7591H99.227ZM99.8796 55.2912C99.8796 54.8093 100.221 54.3776 100.763 54.3776C101.195 54.3776 101.576 54.7089 101.576 55.221C101.576 55.7631 101.205 56.1848 100.703 56.1848C100.241 56.1748 99.8796 55.8033 99.8796 55.2912ZM106.245 57.5001C107.922 57.5001 108.936 58.6246 108.936 60.4117C108.936 60.7029 108.936 61.0141 108.916 61.4057H104.327C104.327 63.1527 105.341 64.1567 106.627 64.1567C107.39 64.1567 108.233 63.8957 108.825 63.484C108.855 63.5643 108.886 63.735 108.886 63.8856C108.886 64.5884 107.862 65.241 106.205 65.241C104.428 65.241 102.982 63.8555 102.982 61.6768C102.992 58.976 104.629 57.5001 106.245 57.5001ZM107.691 60.6025C107.691 59.0764 107.038 58.3434 106.115 58.3434C105.261 58.3434 104.357 59.3675 104.357 60.6025H107.691ZM109.94 64.7591C110.341 64.6085 110.763 64.2973 110.763 63.9157V58.6547L109.759 58.233V57.8916C110.472 57.6908 111.175 57.6105 111.627 57.6105H111.998V58.4539C112.53 57.9218 113.394 57.5804 114.297 57.5804C115.592 57.5804 116.476 58.4037 116.476 60.0101V64.3675L117.289 64.5985V64.8896C116.868 65.0603 116.325 65.1507 115.653 65.1507C115.321 65.1507 114.95 65.1206 114.639 65.0101V64.7591C115.03 64.5884 115.201 64.2973 115.201 63.735V60.7631C115.201 59.237 114.558 58.6647 113.645 58.6647C113.002 58.6647 112.39 58.8856 112.038 59.1467V64.3776L112.912 64.6085V64.8997C112.38 65.0904 111.888 65.1607 111.104 65.1607C110.733 65.1607 110.291 65.1306 109.94 65.0202V64.7591ZM118.333 63.3334C119.036 63.986 119.699 64.3173 120.532 64.3173C121.406 64.3173 121.857 63.8957 121.857 63.3535C121.857 62.8113 121.546 62.47 120.522 62.0282L119.749 61.6969C118.845 61.3053 118.343 60.6527 118.343 59.7691C118.343 58.5442 119.428 57.48 121.054 57.48C122.299 57.48 122.801 57.8515 122.801 58.4438C122.801 58.6748 122.771 58.8756 122.721 59.0965C122.219 58.7551 121.536 58.5041 120.944 58.5041C119.95 58.5041 119.478 58.9358 119.478 59.4679C119.478 60.0302 119.759 60.3414 120.693 60.6928L121.536 61.0242C122.661 61.4559 123.082 62.0382 123.082 62.9519C123.082 64.1467 121.928 65.241 120.191 65.241C118.825 65.241 118.213 64.8093 118.213 63.9659C118.193 63.7551 118.243 63.5041 118.333 63.3334ZM124.669 60.7732L124.719 58.7049H123.866V58.1928L125.542 56.5262L126.054 56.4659L125.994 57.8716H128.052L127.942 58.7149H125.954L125.924 60.6728C125.904 61.3254 125.904 61.9177 125.904 62.49C125.904 63.7551 126.275 64.1868 126.857 64.1868C127.309 64.1868 127.701 64.0262 128.012 63.7852L128.173 63.8455C128.113 64.7591 127.57 65.231 126.496 65.231C125.251 65.231 124.649 64.5784 124.649 63.0623C124.619 62.3093 124.659 61.486 124.669 60.7732ZM131.155 58.4338L130.522 57.982V57.6105H133.494V57.982L132.611 58.3535L134.287 63.2832H134.307L136.034 58.3936L135.151 57.972V57.6005H137.55V57.972L137.119 58.3334L134.347 65.2009L133.815 65.231L131.155 58.4338ZM141.225 57.49C143.143 57.49 144.619 58.9258 144.619 61.0844C144.619 63.6547 142.831 65.2712 140.974 65.2712C139.086 65.2712 137.56 63.9459 137.56 61.6768C137.57 59.1165 139.317 57.49 141.225 57.49ZM141.074 64.3675C142.119 64.3675 143.203 63.3535 143.203 61.225C143.203 59.4077 142.219 58.3936 141.115 58.3936C140.04 58.3936 138.986 59.4679 138.986 61.5262C138.986 63.4037 139.97 64.3675 141.074 64.3675ZM149.347 57.49C151.265 57.49 152.741 58.9258 152.741 61.0844C152.741 63.6547 150.954 65.2712 149.096 65.2712C147.209 65.2712 145.683 63.9459 145.683 61.6768C145.693 59.1165 147.44 57.49 149.347 57.49ZM149.197 64.3675C150.241 64.3675 151.325 63.3535 151.325 61.225C151.325 59.4077 150.341 58.3936 149.237 58.3936C148.163 58.3936 147.109 59.4679 147.109 61.5262C147.109 63.4037 148.092 64.3675 149.197 64.3675ZM153.715 64.7591C154.117 64.6085 154.538 64.2973 154.538 63.9157V58.6547L153.534 58.233V57.8916C154.247 57.6908 154.95 57.6105 155.402 57.6105H155.773V58.6949H155.793L156.225 58.2129C156.647 57.7611 157.068 57.5302 157.59 57.5302C158.133 57.5302 158.404 57.7611 158.404 58.2029C158.404 58.4941 158.313 58.8455 158.153 59.1366C157.862 58.9057 157.52 58.7752 157.189 58.7752C156.707 58.7752 156.255 58.9961 155.823 59.4177V64.3675L156.898 64.5985V64.8896C156.366 65.0804 155.853 65.1507 154.97 65.1507C154.518 65.1507 154.086 65.1206 153.725 65.0101V64.7591H153.715ZM166.325 54.9298C168.615 54.9298 170.452 56.737 170.452 59.6185C170.452 63.2029 168.253 65.2812 165.763 65.2812C163.474 65.2812 161.627 63.4137 161.627 60.3314C161.627 57.0784 163.896 54.9298 166.325 54.9298ZM168.926 59.8997C168.926 57.1788 167.6 55.9338 166.155 55.9338C164.659 55.9338 163.163 57.4298 163.163 60.1507C163.163 62.8916 164.498 64.2872 165.914 64.2872C167.41 64.2872 168.926 62.9218 168.926 59.8997ZM171.667 64.7591C172.068 64.6085 172.49 64.2973 172.49 63.9157V58.6547L171.486 58.233V57.8916C172.199 57.6908 172.902 57.6105 173.353 57.6105H173.725V58.4539C174.257 57.9218 175.121 57.5804 176.024 57.5804C177.319 57.5804 178.203 58.4037 178.203 60.0101V64.3675L179.016 64.5985V64.8896C178.594 65.0603 178.052 65.1507 177.38 65.1507C177.048 65.1507 176.677 65.1206 176.366 65.0101V64.7591C176.757 64.5884 176.928 64.2973 176.928 63.735V60.7631C176.928 59.237 176.285 58.6647 175.372 58.6647C174.739 58.6647 174.106 58.8856 173.765 59.1467V64.3776L174.639 64.6085V64.8997C174.106 65.0904 173.615 65.1607 172.831 65.1607C172.46 65.1607 172.018 65.1306 171.667 65.0202V64.7591ZM183.524 57.5202C183.896 57.5202 184.347 57.5704 184.598 57.6306V54.8896L183.544 54.4679V54.1266C184.257 53.9258 185.02 53.8455 185.472 53.8455H185.974L185.884 54.719V63.6346C185.994 63.9459 186.175 64.2772 186.476 64.5382C186.165 64.8193 185.823 65.0402 185.392 65.2712C185.08 65.0202 184.799 64.6687 184.649 64.3374C184.147 64.8495 183.293 65.221 182.661 65.221C181.084 65.221 179.829 63.9157 179.829 61.8475C179.799 59.0463 181.496 57.5202 183.524 57.5202ZM184.608 63.7149V58.5643C184.347 58.474 183.896 58.3936 183.474 58.3936C182.149 58.3936 181.155 59.4378 181.155 61.5965C181.155 63.2932 182.038 64.2069 183.022 64.2069C183.615 64.2069 184.257 64.0061 184.608 63.7149ZM190.723 57.5001C192.4 57.5001 193.414 58.6246 193.414 60.4117C193.414 60.7029 193.414 61.0141 193.394 61.4057H188.805C188.805 63.1527 189.819 64.1567 191.104 64.1567C191.868 64.1567 192.711 63.8957 193.303 63.484C193.333 63.5643 193.364 63.735 193.364 63.8856C193.364 64.5884 192.339 65.241 190.683 65.241C188.906 65.241 187.46 63.8555 187.46 61.6768C187.47 58.976 189.106 57.5001 190.723 57.5001ZM192.179 60.6025C192.179 59.0764 191.526 58.3434 190.602 58.3434C189.749 58.3434 188.845 59.3675 188.845 60.6025H192.179ZM194.418 64.7591C194.819 64.6085 195.241 64.2973 195.241 63.9157V58.6547L194.237 58.233V57.8916C194.95 57.6908 195.653 57.6105 196.104 57.6105H196.476V58.6949H196.496L196.928 58.2129C197.349 57.7611 197.771 57.5302 198.293 57.5302C198.835 57.5302 199.106 57.7611 199.106 58.2029C199.106 58.4941 199.016 58.8455 198.855 59.1366C198.564 58.9057 198.223 58.7752 197.892 58.7752C197.41 58.7752 196.958 58.9961 196.526 59.4177V64.3675L197.6 64.5985V64.8896C197.068 65.0804 196.556 65.1507 195.673 65.1507C195.221 65.1507 194.789 65.1206 194.428 65.0101V64.7591H194.418ZM199.92 64.7591C200.321 64.6085 200.743 64.2973 200.743 63.9157V58.6547L199.729 58.233V57.8916C200.442 57.6908 201.145 57.6105 201.596 57.6105H201.968V58.4539C202.5 57.9218 203.364 57.5804 204.267 57.5804C205.562 57.5804 206.446 58.4037 206.446 60.0101V64.3675L207.259 64.5985V64.8896C206.837 65.0603 206.295 65.1507 205.623 65.1507C205.291 65.1507 204.92 65.1206 204.608 65.0101V64.7591C205 64.5884 205.171 64.2973 205.171 63.735V60.7631C205.171 59.237 204.528 58.6647 203.615 58.6647C202.982 58.6647 202.349 58.8856 202.008 59.1467V64.3776L202.882 64.6085V64.8997C202.349 65.0904 201.858 65.1607 201.074 65.1607C200.703 65.1607 200.261 65.1306 199.91 65.0202V64.7591H199.92ZM211.305 57.5001C212.982 57.5001 213.996 58.6246 213.996 60.4117C213.996 60.7029 213.996 61.0141 213.976 61.4057H209.388C209.388 63.1527 210.402 64.1567 211.687 64.1567C212.45 64.1567 213.293 63.8957 213.886 63.484C213.916 63.5643 213.946 63.735 213.946 63.8856C213.946 64.5884 212.922 65.241 211.265 65.241C209.488 65.241 208.042 63.8555 208.042 61.6768C208.052 58.976 209.679 57.5001 211.305 57.5001ZM212.751 60.6025C212.751 59.0764 212.098 58.3434 211.175 58.3434C210.321 58.3434 209.418 59.3675 209.418 60.6025H212.751ZM215 64.7591C215.402 64.6085 215.823 64.2973 215.823 63.9157V58.6547L214.809 58.233V57.8916C215.522 57.6908 216.225 57.6105 216.677 57.6105H217.048V58.4539C217.59 57.9218 218.414 57.5804 219.337 57.5804C220.07 57.5804 220.783 57.972 221.094 58.5342C221.576 58.0523 222.621 57.5804 223.494 57.5804C224.799 57.5804 225.653 58.3736 225.653 60.0603V64.3675L226.466 64.5985V64.8896C226.034 65.0603 225.482 65.1507 224.819 65.1507C224.508 65.1507 224.117 65.1206 223.825 65.0101V64.7591C224.217 64.5884 224.388 64.2973 224.388 63.735V60.7029C224.388 59.2872 223.765 58.6647 222.801 58.6647C222.239 58.6647 221.707 58.8053 221.305 59.0262C221.366 59.3575 221.396 59.7892 221.396 60.1908V64.3776L222.209 64.6085V64.8997C221.777 65.0704 221.245 65.1607 220.572 65.1607C220.241 65.1607 219.87 65.1306 219.558 65.0202V64.7591C219.95 64.5884 220.121 64.2973 220.121 63.735V60.8736C220.121 59.1467 219.609 58.6647 218.645 58.6647C218.022 58.6647 217.43 58.8856 217.098 59.1467V64.3776L217.972 64.6085V64.8997C217.43 65.0904 216.948 65.1607 216.165 65.1607C215.793 65.1607 215.351 65.1306 215 65.0202V64.7591ZM230.522 57.5001C232.199 57.5001 233.213 58.6246 233.213 60.4117C233.213 60.7029 233.213 61.0141 233.203 61.4057H228.615C228.615 63.1527 229.629 64.1567 230.914 64.1567C231.677 64.1567 232.52 63.8957 233.113 63.484C233.143 63.5643 233.173 63.735 233.173 63.8856C233.173 64.5884 232.149 65.241 230.492 65.241C228.715 65.241 227.269 63.8555 227.269 61.6768C227.269 58.976 228.906 57.5001 230.522 57.5001ZM231.968 60.6025C231.968 59.0764 231.315 58.3434 230.392 58.3434C229.538 58.3434 228.635 59.3675 228.635 60.6025H231.968ZM234.217 64.7591C234.619 64.6085 235.04 64.2973 235.04 63.9157V58.6547L234.026 58.233V57.8916C234.739 57.6908 235.442 57.6105 235.894 57.6105H236.265V58.4539C236.797 57.9218 237.661 57.5804 238.564 57.5804C239.86 57.5804 240.743 58.4037 240.743 60.0101V64.3675L241.556 64.5985V64.8896C241.135 65.0603 240.592 65.1507 239.92 65.1507C239.588 65.1507 239.217 65.1206 238.906 65.0101V64.7591C239.297 64.5884 239.468 64.2973 239.468 63.735V60.7631C239.468 59.237 238.825 58.6647 237.912 58.6647C237.269 58.6647 236.657 58.8856 236.305 59.1467V64.3776L237.179 64.6085V64.8997C236.647 65.0904 236.155 65.1607 235.372 65.1607C235 65.1607 234.558 65.1306 234.207 65.0202V64.7591H234.217ZM246.064 57.5202C246.436 57.5202 246.888 57.5704 247.139 57.6306V54.8896L246.084 54.4679V54.1266C246.797 53.9258 247.56 53.8455 248.012 53.8455H248.514L248.424 54.719V63.6346C248.534 63.9459 248.715 64.2772 249.016 64.5382C248.705 64.8193 248.364 65.0402 247.932 65.2712C247.621 65.0202 247.339 64.6687 247.189 64.3374C246.687 64.8495 245.833 65.221 245.201 65.221C243.625 65.221 242.37 63.9157 242.37 61.8475C242.349 59.0463 244.046 57.5202 246.064 57.5202ZM247.159 63.7149V58.5643C246.898 58.474 246.446 58.3936 246.024 58.3936C244.699 58.3936 243.705 59.4378 243.705 61.5965C243.705 63.2932 244.588 64.2069 245.572 64.2069C246.165 64.2069 246.797 64.0061 247.159 63.7149ZM62.1587 82.3896C62.8414 82.1989 63.0623 81.8575 63.0623 81.0242V73.5342L62.0784 73.2732V72.8214C62.6707 72.741 63.2932 72.7109 63.7952 72.7109H64.3675L68.6948 79.8193L68.725 79.7993V73.494L67.731 73.243V72.9117C68.2333 72.7455 68.7582 72.6574 69.2872 72.6507C69.9097 72.6507 70.1908 72.7009 70.5924 72.8214V73.1025C69.9097 73.3234 69.7089 73.6045 69.7089 74.5683V82.7209L68.976 82.8916L64.0563 74.7792L64.0362 74.7993V81.988L64.99 82.239V82.5804C64.5382 82.7511 64.0864 82.8414 63.5744 82.8414C62.9519 82.8414 62.5302 82.7912 62.1587 82.6808V82.3896ZM74.749 75.1708C76.4258 75.1708 77.4398 76.2952 77.4398 78.0824C77.4398 78.3736 77.4398 78.6848 77.4298 79.0764H72.8414C72.8414 80.8234 73.8555 81.8274 75.1406 81.8274C75.9037 81.8274 76.747 81.5663 77.3394 81.1547C77.3695 81.235 77.3997 81.4057 77.3997 81.5563C77.3997 82.2591 76.3756 82.9117 74.7189 82.9117C72.9418 82.9117 71.496 81.5262 71.496 79.3475C71.496 76.6467 73.1326 75.1708 74.749 75.1708ZM76.1948 78.2732C76.1948 76.7471 75.5422 76.0141 74.6185 76.0141C73.7651 76.0141 72.8615 77.0382 72.8615 78.2732H76.1948ZM82.1888 75.1908C82.5603 75.1908 83.0121 75.241 83.2631 75.3013V72.5603L82.2089 72.1386V71.7973C82.9217 71.5965 83.6848 71.5161 84.1366 71.5161H84.6386L84.5482 72.3896V81.3053C84.6587 81.6165 84.8394 81.9479 85.1406 82.2089C84.8294 82.49 84.488 82.7109 84.0462 82.9418C83.735 82.6908 83.4539 82.3394 83.3033 82.0081C82.8013 82.5201 81.9478 82.8916 81.3153 82.8916C79.739 82.8916 78.484 81.5864 78.484 79.5181C78.4739 76.7169 80.1707 75.1908 82.1888 75.1908ZM83.2832 81.3856V76.235C83.0221 76.1446 82.5703 76.0643 82.1487 76.0643C80.8233 76.0643 79.8294 77.1085 79.8294 79.2671C79.8294 80.9639 80.7129 81.8876 81.6968 81.8876C82.2892 81.8776 82.9217 81.6768 83.2832 81.3856ZM89.3976 75.1708C91.0744 75.1708 92.0884 76.2952 92.0884 78.0824C92.0884 78.3736 92.0884 78.6848 92.0784 79.0764H87.49C87.49 80.8234 88.5041 81.8274 89.7892 81.8274C90.5523 81.8274 91.3956 81.5663 91.988 81.1547C92.0181 81.235 92.0483 81.4057 92.0483 81.5563C92.0483 82.2591 91.0242 82.9117 89.3675 82.9117C87.5904 82.9117 86.1446 81.5262 86.1446 79.3475C86.1446 76.6467 87.7812 75.1708 89.3976 75.1708ZM90.8434 78.2732C90.8434 76.7471 90.1908 76.0141 89.2671 76.0141C88.4137 76.0141 87.5101 77.0382 87.5101 78.2732H90.8434ZM93.0924 82.4298C93.494 82.2691 93.9157 81.9679 93.9157 81.5864V76.3254L92.9017 75.9037V75.5623C93.6145 75.3615 94.3173 75.2812 94.7691 75.2812H95.1406V76.3756H95.1507L95.5824 75.8936C96.0041 75.4418 96.4258 75.2109 96.9478 75.2109C97.49 75.2109 97.7611 75.4418 97.7611 75.8836C97.7611 76.1748 97.6707 76.5262 97.5101 76.8173C97.2189 76.5864 96.8675 76.4559 96.5462 76.4559C96.0643 76.4559 95.6125 76.6768 95.1808 77.0985V82.0483L96.2551 82.2792V82.5703C95.723 82.7611 95.2109 82.8314 94.3274 82.8314C93.8756 82.8314 93.4438 82.8013 93.0824 82.6908V82.4298H93.0924ZM98.0723 82.4298C98.474 82.2691 98.8956 81.9679 98.8956 81.5864V72.5603L97.8816 72.1386V71.7973C98.5844 71.5965 99.3173 71.5161 99.7491 71.5161H100.251L100.171 72.3896V82.0382L101.044 82.2691V82.5603C100.512 82.7511 100.02 82.8213 99.237 82.8213C98.8655 82.8213 98.4238 82.7912 98.0723 82.6808V82.4298ZM105.894 78.6547V78.233C105.894 76.5563 105.492 76.1948 104.508 76.1948C103.655 76.1948 102.831 76.5563 102.169 77.2089C102.139 77.0483 102.119 76.9177 102.119 76.7471C102.119 75.7531 102.851 75.1708 104.669 75.1708C106.245 75.1708 107.179 75.9639 107.179 77.2591C107.179 77.6005 107.129 78.3836 107.119 78.8354L107.068 81.3555C107.179 81.6366 107.41 81.9278 107.691 82.1487C107.46 82.4298 107.038 82.741 106.637 82.9418C106.345 82.7511 106.104 82.5101 105.924 82.1788C105.492 82.6005 104.649 82.9217 103.825 82.9217C102.661 82.9217 101.847 82.1888 101.847 81.1948C101.847 79.8294 103.343 78.6547 105.894 78.6547ZM104.408 81.988C104.89 81.988 105.512 81.7972 105.904 81.5663V79.3876C104.147 79.3876 103.193 80.1205 103.193 80.9639C103.193 81.5864 103.615 81.988 104.408 81.988ZM108.785 82.4298C109.187 82.2691 109.608 81.9679 109.608 81.5864V76.3254L108.594 75.9037V75.5623C109.307 75.3615 110.01 75.2812 110.462 75.2812H110.833V76.1246C111.366 75.5924 112.229 75.2511 113.133 75.2511C114.428 75.2511 115.311 76.0744 115.311 77.6808V82.0382L116.125 82.2691V82.5603C115.703 82.731 115.161 82.8213 114.488 82.8213C114.157 82.8213 113.785 82.7912 113.474 82.6808V82.4298C113.866 82.2591 114.036 81.9679 114.036 81.4057V78.4338C114.036 76.9077 113.394 76.3354 112.48 76.3354C111.837 76.3354 111.225 76.5563 110.874 76.8173V82.0483L111.747 82.2792V82.5703C111.215 82.7611 110.723 82.8314 109.94 82.8314C109.568 82.8314 109.127 82.8013 108.775 82.6908V82.4298H108.785ZM120.633 75.1908C121.004 75.1908 121.456 75.241 121.707 75.3013V72.5603L120.653 72.1386V71.7973C121.366 71.5965 122.129 71.5161 122.58 71.5161H123.082L122.992 72.3896V81.3053C123.102 81.6165 123.283 81.9479 123.584 82.2089C123.273 82.49 122.932 82.7109 122.49 82.9418C122.179 82.6908 121.898 82.3394 121.747 82.0081C121.245 82.5201 120.392 82.8916 119.759 82.8916C118.183 82.8916 116.928 81.5864 116.928 79.5181C116.918 76.7169 118.615 75.1908 120.633 75.1908ZM121.727 81.3856V76.235C121.466 76.1446 121.014 76.0643 120.592 76.0643C119.267 76.0643 118.273 77.1085 118.273 79.2671C118.273 80.9639 119.157 81.8876 120.141 81.8876C120.733 81.8776 121.366 81.6768 121.727 81.3856Z" fill="black"/>
</g>
<defs>
<clipPath id="clip0_2057_18837">
<rect width="250" height="100.402" fill="white"/>
</clipPath>
</defs>
</svg>
