<?xml version="1.0" encoding="utf-8"?>
<!-- Generator: Adobe Illustrator 25.0.0, SVG Export Plug-In . SVG Version: 6.00 Build 0)  -->
<svg version="1.1" xmlns="http://www.w3.org/2000/svg" xmlns:xlink="http://www.w3.org/1999/xlink" x="0px" y="0px"
	 viewBox="0 0 64 64" style="enable-background:new 0 0 64 64;" xml:space="preserve">
<style type="text/css">
	.st0{fill:none;}
	.st1{fill:#FFFFFF;}
</style>
<g id="Box">
	<rect class="st0" width="64" height="64"/>
</g>
<g id="Icon">
	<g>
		<path d="M26.05,19c0.228-1.139,1.235-2,2.44-2h21.785c1.555,10.045,0.896,21.064-0.076,29.248l1.797,1.753
			c1.087-8.474,1.953-20.553,0.226-31.502C52.084,15.632,51.323,15,50.446,15h-8.517c-0.232-0.563-0.388-0.906-0.388-0.906
			c1.887-3.6,0.965-6.428-1.875-8.254C36.43,3.76,24.662,3.547,16.074,8.216c-1.095,0.596-2.036,1.251-2.854,1.946L22.276,19H26.05z
			"/>
		<path d="M43.882,21.356C43.747,20.573,43.55,19.772,43.33,19H28.49C28.22,19,28,19.22,28,19.49v5.096l17.903,17.471
			c0-3.499,0-7.215,0-7.215s1.656-0.849,2.985-1.581c0.946-0.521,1.101-1.899,0.538-2.543c-1.21-1.385-5.544-6.38-5.544-6.38
			C43.699,23.53,44,22.038,43.882,21.356z"/>
		<path d="M59.287,58.213l-54.313-53L2.853,7.334L9.96,14.27C9.18,15.819,8.762,17.429,8.607,19h6.201l4.099,4H8.696
			c0.182,1.332,0.49,2.548,0.825,3.56c1.774,5.363,7.076,12.967,7.443,18.699c0.141,2.199-1.259,8.257-1.612,9.74h12.543
			c2.442,2.468,5.828,4,9.574,4h11.237c0.857,0,1.596-0.605,1.761-1.446c0.153-0.782,0.355-1.865,0.581-3.189l6.118,5.97
			L59.287,58.213z M48.538,57H37.469C31.145,57,26,51.855,26,45.531V29.922l2,1.952v13.657c0,4.366,2.974,8.041,7,9.131V50
			l-4.792-2.546c-0.288-0.157-0.205-0.348-0.174-0.398c0,0,7.379,1.606,10.241,1.981c1.45,0.19,2.861-0.35,3.91-1.37l5.118,4.994
			C49.01,54.482,48.739,55.968,48.538,57z"/>
	</g>
</g>
</svg>
