<svg height="64" viewBox="0 0 64 64" width="64" xmlns="http://www.w3.org/2000/svg"><path d="m0 0h64v64h-64z" fill="none"/><path d="m25.1592 4.9568c-.1829 2.6513 1.1895 4.0432 3.4122 4.0432 2.1791 0 3.4199-1.4969 3.4199-3.651 0-1.4006-.5164-4.0114-1.917-4.309-1.624-.3444-7.1748 2.1905-7.0543 3.1509.0738.5871 1.2552.7369 2.1392.7659z"/><path d="m52.23 44.7586c-2.7689.9518-6.3675 2.413-9.2219 3.6127.0737.4328.0837.8923.0119 1.3787-.4146 2.8079-2.82 4.5833-6.2403 4.7416-7.7327.3578-12.5347-1.5577-13.5313-1.9618-.2862-.1161-.318-.2576-.2923-.3882.0015-.0012.0111-.0091.0111-.0091 5.5945.9645 9.1205 1.1222 13.4634.4237 3.295-.53 4.489-2.106 4.4613-3.4058-.027-1.2701-.9267-2.0373-2.9519-2.1077-6.8902-.2395-10.9187-1.0081-16.8242-1.8688-4.1042-.5981-8.0618.4671-11.4327 2.6266-3.1634 2.0266-4.0402 2.9852-4.0402 2.9852l5.7857 11.1429 7.4819-3.0415c.8526-.3466 1.7844-.4511 2.6926-.3021l10.2607 2.283c2.2892.3757 4.6379-.0563 6.6438-1.2219l20.4795-12.8461s-1.0043-4.019-6.7571-2.0414z"/><path d="m43.4768 9.6145c2.0927 0 3.3033-1.4738 3.3033-3.5946 0-2.4172-1.2655-3.7131-3.3033-3.7131-2.1468 0-3.3033 1.532-3.3033 3.7131 0 2.298 1.211 3.5946 3.3033 3.5946z"/><path d="m17.4851 26.3249c.2857 2.9377 1.6526 16.9834 1.717 17.4995.0595.4772 1.6719.3196 1.6215-.1924-.0535-.543-1.0093-14.0667-1.3011-18.1991.3242-.2747.5941-.6074.7567-.9936.6544-1.5541 1.3689-3.3198 1.8485-4.6697.6204-1.7462 1.024-2.7949 1.5497-3.92.1123-.2405.2188-.3862.3338-.2831l.0027-.0092-.0139 28.4427c2.0392 0 3.4034-1.1217 3.5776-3.3745 0 0 .4343-13.4573.44-13.6055.0057-.1483.2454-.341.486-.341s.481.1927.4867.341c.0057.1482.4393 13.6055.4393 13.6055.1749 2.262 1.5467 3.3745 3.5704 3.3745v-11.2785c-.698 0-1.9559-.3915-2.0493-2.0008-.2055-3.5388-.108-9.2754 2.1022-10.3325 1.353-.6471 5.6-.6471 7.081-.0235 2.0429.8605 1.9896 6.7529 1.9817 10.3268-.0036 1.612-1.4181 2.032-2.1156 2.032v11.2765s2.8002-.4326 3-3.1369c0 0-.0028-6.1549-.0019-9.0209.3276-.0403.6647-.0739 1.0037-.1078.001 2.8019-.0018 9.0537-.0018 9.0537.1534 2.7844 3 3.2119 3 3.2119v-12.3409c.0616.0048.1264.0011.1875.007 1.1571.1134 1.8068.3067 1.8068.3067 0-5.9951-1.5441-8.274-2.0277-10.1532-.2569-.9986-.043-2.0438.1907-3.0439.2197-.9401.5021-1.8158.0587-3.6742 0 0 .2333.4216.3268.6948.5196 1.5182.3683 4.4552 2.4628 11.2234.9122-.1201 2.0291-1.2537 1.6536-3.328-.4614-2.5491-1.0321-3.9433-1.2405-5.7146-.4612-3.9217-1.6247-5.8064-3.7892-6.4918-1.031-.3265-2.0138-.4767-3.1327-.4768h-.04c-1.1188.0001-2.1017.1503-3.1326.4768-.6248.1978-1.1605.5054-1.6241.9268.6997.6054 1.1037 1.5661 1.1037 2.8799 0 2.0703-1.2096 3.5079-3.3 3.5079-2.0897 0-3.3-1.2649-3.3-3.5079 0-1.5844.6425-2.8156 1.8553-3.3423-.5296-.6564-1.1956-1.1455-2.0516-1.3761-2.0829-.5611-4.5255-.7374-6.9962-.3873-1.6774.2426-3.7185 1.3376-4.5859 3.0218-1.6472 3.1981-4.8943 12.9753-4.8943 12.9753.2044.1456.5512.188.954.1415z"/></svg>