<svg height="64" viewBox="0 0 64 64" width="64" xmlns="http://www.w3.org/2000/svg"><path d="m0 0h64v64h-64z" fill="none"/><path d="m52.23 44.7586c-2.7689.9518-6.3675 2.413-9.2219 3.6127.0737.4328.0837.8923.0119 1.3787-.4146 2.8079-2.82 4.5833-6.2403 4.7416-7.7327.3578-12.5347-1.5577-13.5313-1.9618-.2862-.1161-.318-.2576-.2923-.3882.0015-.0012.0111-.0091.0111-.0091 5.5945.9645 9.1205 1.1222 13.4634.4237 3.295-.53 4.489-2.106 4.4613-3.4058-.027-1.2701-.9267-2.0373-2.9519-2.1077-6.8902-.2395-10.9187-1.0081-16.8242-1.8688-4.1042-.5981-8.0618.4671-11.4327 2.6266-3.1634 2.0265-4.0402 2.9852-4.0402 2.9852l5.7857 11.1429 7.4819-3.0415c.8526-.3466 1.7844-.4511 2.6926-.3021l10.2607 2.283c2.2892.3757 4.6379-.0563 6.6438-1.2219l20.4795-12.8461s-1.0043-4.019-6.7571-2.0414z"/><path d="m28.5036 8.6433c2.0905 0 3.3-1.4785 3.3-3.6075 0-2.4249-1.264-3.7258-3.3-3.7258-2.1448 0-3.3 1.5376-3.3 3.7258 0 2.3067 1.2103 3.6075 3.3 3.6075z"/><path d="m43.4768 9.6145c2.0927 0 3.3033-1.4738 3.3033-3.5946 0-2.4172-1.2655-3.7131-3.3033-3.7131-2.1468 0-3.3033 1.532-3.3033 3.7131 0 2.298 1.211 3.5946 3.3033 3.5946z"/><path d="m23 27.7149s0-7.3284 0-8.7149c0-1 0-2 .4333-2.8088.2212-.4129.5094-.4773.5667-.4086v28.2174c2.0392 0 3.4034-1.1217 3.5776-3.3745 0 0 .4343-13.4573.44-13.6055.0057-.1483.2454-.341.486-.341s.481.1927.4867.341.4393 13.6055.4393 13.6055c.1749 2.262 1.5467 3.3745 3.5704 3.3745v-11.2785c-.698 0-1.9559-.3915-2.0493-2.0008-.2054-3.5388-.108-9.2755 2.1022-10.3325 1.353-.647 5.6-.647 7.081-.0234 2.0428.8604 1.9896 6.7529 1.9817 10.3267-.0036 1.612-1.4181 2.0321-2.1156 2.0321v11.2764s2.8002-.4326 3-3.1369c0 0-.0028-6.1549-.0019-9.0209.3276-.0403.6647-.0739 1.0037-.1078.001 2.8019-.0018 9.0537-.0018 9.0537.1534 2.7844 3 3.2119 3 3.2119v-12.3409c.0616.0049.1264.0011.1875.0071 1.1571.1133 1.8068.3067 1.8068.3067 0-5.9951-1.5441-8.2742-2.0276-10.1533-.2569-.9986-.043-2.0438.1907-3.0439.2196-.9401.5021-1.8158.0587-3.6742 0 0 .2333.4216.3268.6948.5195 1.5183.3682 4.4552 2.4627 11.2234.9122-.1201 2.0292-1.2537 1.6536-3.3279-.4614-2.5491-1.032-3.9433-1.2405-5.7146-.4612-3.9218-1.6247-5.8064-3.7892-6.4919-1.0309-.3264-2.0138-.4766-3.1327-.4767h-.0399c-1.1189.0001-2.1017.1503-3.1327.4767-.6248.1978-1.1605.5055-1.6241.9269.6997.6054 1.1037 1.566 1.1037 2.8799 0 2.0703-1.2096 3.5079-3.3 3.5079-2.0897 0-3.3-1.2649-3.3-3.5079 0-1.5844.6425-2.8156 1.8553-3.3423-.5295-.6564-1.1956-1.1455-2.0516-1.3761-2.6095-.7029-6.0622-.7639-9.0077 0-4.5736 1.1861-4.0273 9.7747-3.7408 14.4263.1303 2.1154 1.7677 2.7149 2.741 2.7149z"/></svg>