<svg height="64" viewBox="0 0 64 64" width="64" xmlns="http://www.w3.org/2000/svg"><path d="m0 0h64v64h-64z" fill="none"/><path d="m54.0617 3.7964c-14.8175-6.7608-22.0617 7.7748-22.0617 7.7748s-7.2442-14.5356-22.0618-7.7748c-14.6145 6.6681-13.6401 39.7516 20.6134 58.1708.8998.4838 1.9967.4838 2.8966 0 34.2538-18.4192 35.228-51.5027 20.6135-58.1708zm-14.3256 32.8625c.3143.6941.177 1.0906-.052 2.8146-.1483 1.1167-1.2739 10.876-1.4697 12.3501h-1.2679c.1354-1.3726 1.2178-14.2195 1.2258-14.2847.0292-.2401-.1417-.2979-.291-.2979s-.3174 0-.5779 0c-1.047 0-1.6379-.7401-1.6368-1.8229h1.8886c-.2566-.2145-.5092-.4894-.744-.8509-.3953-.6088-1.518-1.9605-2.1124-3.9522-.1163-.4348-.2053-.8268-.2789-1.1917-1.0126 2.139-2.2086 4.7343-2.9899 6.6569 1.9264 4.2219 1.8956 4.9714 2.0532 6.1383.4149 3.7285.5697 5.5154.9336 9.5942-.1096.0121-2.6384.2609-3.2846-2.4894-.6779-2.8851-1.1439-5.0176-1.6473-7.1869-.0204-.1163-.1476-.3857-.3581-.7214-.6707-1.0696-1.8669-2.8165-2.1964-3.3258-.0787-.0107-.1504.1174-.0788.2814.6028 1.3813 1.5543 3.5696 1.5543 3.5696s-.7716 9.6254-.7936 9.8832c-.3341-.0649-2.5604-.5968-2.593-3.2498-.0074-.608-.1274-12.3063-.2374-14.2843-.0895-.8865-.0693-2.014.4795-3.2766.7732-1.751 3.2932-7.3436 6.0305-8.2105 1.9651-.6221 4.8195 1.0535 5.0677 2.3028.1426.7177.4536 3.481.7734 4.8897.3985 1.5178.8723 2.1585 2.9678 6.0021-.0058.002-.3072.1002-.7503.0958.1543.1644.2882.3523.3856.5663zm-1.2235-17.6713c-.019.1359-.0295.3763-.0608.5192-.3982 1.8116-1.7137 2.8411-3.5104 2.4465-1.7961-.3946-2.5924-1.7302-2.1616-3.692.0025-.0112.0059-.0216.0084-.0328l-.0065-.001s.493-3.0488 1.907-3.241c1.414-.1916 5.9402 2.5905 5.7658 3.4634-.1107.5531-1.1757.5869-1.9419.5377z"/></svg>