<svg enable-background="new 0 0 64 64" viewBox="0 0 64 64" xmlns="http://www.w3.org/2000/svg"><path d="m0 0h64v64h-64z" fill="none"/><path d="m42.43 28.875c-.446-.357-1.164-.807-2.301-1.656-1.058-.789-2.166-1.683-2.644-2.308-.378-.493-.441-1.941-.697-3.37-.366-2.046-3.288-6.375-3.288-6.375.6-2.325-1.226-9.383-12.874-6.273-15.451 4.127-15.624 15.219-15.644 16.653-.123 8.61 4.61 12.236 8.143 16.521 4.153 5.037 5.68 6.2 2.552 12.933h19.819c-.668-3.548-.582-6.112-.582-6.112-2.489-.24-3.997-1.055-5.039-1.847-.641-.487-.446-.61-.403-.692 0 0 2.884 1.486 7.961 1.047 2.696-.233 4.325-1.772 3.583-4.965-.16-.689.182-1.404.526-1.953.514-.819.958-1.258.225-2.226-.32-.423-.705-.752-.705-.752s.699-.59.938-1.272c.377-1.074-.148-1.129-.619-1.934-.391-.669-.397-1.406-.397-1.406s.928-.79 1.582-1.481c.364-.383 1.229-1.438-.136-2.532z"/><path d="m58.996 45.368-9.693-8.133c.055-.337-.047-.692-.327-.927l-3.83-3.214c-.423-.355-1.054-.3-1.409.123-.355.423-.3 1.054.123 1.409l3.83 3.214c.281.235.648.274.97.161l9.693 8.133c.211.177.527.15.704-.062.178-.211.15-.527-.061-.704z"/></svg>