<?xml version="1.0" encoding="utf-8"?>
<!-- Generator: Adobe Illustrator 22.1.0, SVG Export Plug-In . SVG Version: 6.00 Build 0)  -->
<!DOCTYPE svg PUBLIC "-//W3C//DTD SVG 1.1//EN" "http://www.w3.org/Graphics/SVG/1.1/DTD/svg11.dtd">
<svg version="1.1" xmlns="http://www.w3.org/2000/svg" xmlns:xlink="http://www.w3.org/1999/xlink" x="0px" y="0px" width="64px"
	 height="64px" viewBox="0 0 64 64" style="enable-background:new 0 0 64 64;" xml:space="preserve">
<style type="text/css">
	.st0{fill:none;}
	.st1{fill:#FFFFFF;}
</style>
<g id="_x36_4px_Box">
	<rect class="st0" width="64" height="64"/>
</g>
<g id="Icon">
	<g>
		<path d="M39.8,33.9c-1-0.6-1.1-1.6-1.1-1.6l2.6-1.6c0.7-0.6,0.9-1.6,0.3-2.4L36,22.8c-0.2-0.7,0-2.1-0.2-2.7
			c-0.8-3.1-2.5-6.5-2.5-6.5c1.5-3.4,0.4-6.3-2.3-7.8C27.9,4,17.2,4.6,9.6,9.4c-8,5.1-6.5,13.5-4.8,17.6c2,4.8,7.6,11,7.9,16.3
			c0.1,2.3-1.6,9.7-1.6,9.7h18.7l0-3.4c0,0-4.6-3.7-4.8-3.9c-0.2-0.2-0.1-0.4-0.1-0.4c0,0,4.6,2,7.1,3c2,0.7,3.8,0.5,4.8-0.2
			c2.1-1.6,1-3.4,1.4-4.4c0.4-0.9,1.5-0.4,1.6-1.8c0-0.3-0.1-0.7-0.5-1c-2-1.5-2-2.6,0-4.6c0.3-0.3,0.8-0.7,0.8-1.3
			C40.3,34.6,40.2,34.1,39.8,33.9z"/>
		<path d="M60,45l-12.7-4.5c-0.3-0.8-1.3-1.7-2.6-2.1c-1.8-0.6-3.5-0.4-3.8,0.6c-0.3,1,0.8,2.3,2.6,2.9c1.4,0.5,2.7,0.4,3.4,0
			l12.7,4.5c0.4,0.1,0.8-0.1,0.9-0.4C60.6,45.5,60.4,45.1,60,45z"/>
	</g>
</g>
</svg>
