<svg enable-background="new 0 0 64 64" height="64" viewBox="0 0 64 64" width="64" xmlns="http://www.w3.org/2000/svg"><path d="m0 0h64v64h-64z" fill="none"/><path d="m39.8 33.9c-1-.6-1.1-1.6-1.1-1.6l2.6-1.6c.7-.6.9-1.6.3-2.4l-5.6-5.5c-.2-.7 0-2.1-.2-2.7-.8-3.1-2.5-6.5-2.5-6.5 1.5-3.4.4-6.3-2.3-7.8-3.1-1.8-13.8-1.2-21.4 3.6-8 5.1-6.5 13.5-4.8 17.6 2 4.8 7.6 11 7.9 16.3.1 2.3-1.6 9.7-1.6 9.7h18.7v-3.4s-4.6-3.7-4.8-3.9-.1-.4-.1-.4 4.6 2 7.1 3c2 .7 3.8.5 4.8-.2 2.1-1.6 1-3.4 1.4-4.4.4-.9 1.5-.4 1.6-1.8 0-.3-.1-.7-.5-1-2-1.5-2-2.6 0-4.6.3-.3.8-.7.8-1.3.2-.4.1-.9-.3-1.1z"/><path d="m60 45-12.7-4.5c-.3-.8-1.3-1.7-2.6-2.1-1.8-.6-3.5-.4-3.8.6s.8 2.3 2.6 2.9c1.4.5 2.7.4 3.4 0l12.7 4.5c.4.1.8-.1.9-.4.1-.5-.1-.9-.5-1z"/></svg>