<svg enable-background="new 0 0 64 64" height="64" viewBox="0 0 64 64" width="64" xmlns="http://www.w3.org/2000/svg"><path d="m0 0h64v64h-64z" fill="none"/><path d="m41.2 41.5c0-1-.8-1.8-1.8-1.8s-1.8.8-1.8 1.8.8 1.8 1.8 1.8 1.8-.8 1.8-1.8zm2 6c0-1-.8-1.8-1.8-1.8s-1.8.8-1.8 1.8.8 1.8 1.8 1.8 1.8-.8 1.8-1.8zm-3.7-13c.8-.2 1.3-1.1 1.1-2l-3.1-6.7c0-.7.7-1.9.7-2.5.3-3-.1-6.5-.1-6.5 2.4-2.5 2.4-5.4.6-7.6-2.1-2.5-11.6-5.5-19.7-3.8-8.6 1.8-10 9.7-9.9 13.9.2 4.9 2.9 12.4 1.8 17.2-.5 2.2-5.9 12.5-5.9 12.5h19.8v-2.9l-4.1-4.4c-.2-.3-.1-.5 0-.5 0 0 6.2 3.3 8.4 4.3s3.2-.5 3.9-1.9c.4-.8.8-.7 1.4-1 .8-.4.2-1.9-.2-2.7-.4-.7-.6-.8-.6-.8.7.1 1.4-.1 1.9-.2.6-.2 1.1-.8.9-1.4-.5-1.3.1-2.4.1-2.4zm8.7 5c0-1-.8-1.8-1.8-1.8s-1.8.8-1.8 1.8.8 1.8 1.8 1.8 1.8-.8 1.8-1.8zm5.3-3.7c-1 0-1.8.8-1.8 1.8s.8 1.8 1.8 1.8 1.8-.8 1.8-1.8-.8-1.8-1.8-1.8zm-10 16c-1 0-1.8.8-1.8 1.8s.8 1.8 1.8 1.8 1.8-.8 1.8-1.8-.8-1.8-1.8-1.8zm4.9-7.9c-1 0-1.8.8-1.8 1.8s.8 1.8 1.8 1.8 1.8-.8 1.8-1.8-.8-1.8-1.8-1.8z"/></svg>