<svg height="64" viewBox="0 0 64 64" width="64" xmlns="http://www.w3.org/2000/svg"><path d="m0 0h64v64h-64z" fill="none"/><path d="m0 0h64v64h-64z" fill="none"/><path d="m52.23 44.7586c-2.7688.9518-6.3674 2.413-9.2219 3.6127.0737.4328.0837.8923.012 1.3787-.4146 2.8079-2.8201 4.5833-6.2402 4.7416-7.7328.3578-12.5348-1.5577-13.5314-1.9618-.2863-.1161-.318-.2576-.2924-.3882.0015-.0012.0112-.0091.0112-.0091 5.5945.9645 9.1205 1.1222 13.4634.4237 3.2949-.53 4.489-2.106 4.4612-3.4058-.027-1.2701-.9266-2.0373-2.9519-2.1077-6.8901-.2395-10.9187-1.0081-16.8242-1.8688-4.1041-.5981-8.0618.4671-11.4326 2.6266-3.1633 2.0265-4.0403 2.9852-4.0403 2.9852l5.7858 11.1429 7.4819-3.0415c.8527-.3466 1.7843-.4511 2.6925-.3021l10.2607 2.283c2.2893.3757 4.6379-.0563 6.6438-1.2219l20.4795-12.8461s-1.0043-4.019-6.7571-2.0414z"/><path d="m40.4768 9.6145c2.0928 0 3.3032-1.4738 3.3032-3.5946 0-2.4172-1.2654-3.7131-3.3032-3.7131-2.1467 0-3.3032 1.532-3.3032 3.7131 0 2.298 1.2109 3.5946 3.3032 3.5946z"/><path d="m36.6606 14.8906-.0513.1875c-.4453 1.8388-.1616 2.7053.059 3.6355.2346.9896.2889 2.0237.0309 3.0118-.4857 1.8594-1.6992 4.3085-1.6992 10.2407 0 0 .7218.1999 2 .2431v11.7908s2.8002-.4326 3-3.1369c0 0-.0027-5.9222-.002-8.8535.1758-.0269.3392-.0441.5231-.0776.1603-.0292.3207-.0544.4808-.0771.0009 2.8552-.0019 8.9332-.0019 8.9332.1533 2.7844 3 3.2119 3 3.2119v-12.268c1.1816.0541 2 .2001 2 .2001 0-5.9321-1.2135-8.3473-1.6992-10.2066-.2581-.9881-.2037-2.0222.0309-3.0118.2206-.9302.5043-1.7967.059-3.6355 0 0 .2343.4172.3281.6875.522 1.5024.3699 4.4083 2.4733 11.1053.9161-.1188 2.0377-1.2405 1.6605-3.2929-.4633-2.5223-.969-3.9018-1.1782-5.6544-.4631-3.8805-1.834-5.7453-4.0076-6.4236-1.0353-.3231-2.0223-.4716-3.146-.4717-1.1689-.0001-2.304.2684-3.3021.5504-2.9838.8427-7.9034 3.8958-9.9557 5.86-1.6216 1.5522-1.3712 2.6206-.8802 3.3705 6.0291-4.0317 10.2778-5.9187 10.2778-5.9187z"/><path d="m26.5 24.0052c0 1.856 1.1003 2.9025 3 2.9025 1.9004 0 3-1.1896 3-2.9025 0-1.9509-1.1492-2.9975-3-2.9975-1.95 0-3 1.237-3 2.9975z"/><path d="m26.1829 37.3783.0369 6.5994c.6936-.0576 2.4666-.3038 2.5891-1.3237.1487-1.2384.4028-4.7347.4028-4.7347.0044-.0518.1309-.1893.283-.1893h.0053c.1519 0 .2782.1375.2827.1893 0 0 .2778 3.4304.3999 4.701.1072 1.1145 1.9926 1.3253 2.6489 1.3651l.0024-6.6038c.5901 0 1.1615-.9649 1.1646-2.0084.0068-2.3137.0518-6.4359-1.6763-6.9929-1.2529-.4037-4.3379-.3961-5.4825.0228-1.8696.6843-1.9521 4.7248-1.7783 7.0158.079 1.0418.5311 1.9594 1.1215 1.9594z"/></svg>