<svg enable-background="new 0 0 64 64" viewBox="0 0 64 64" xmlns="http://www.w3.org/2000/svg"><path d="m0 0h64v64h-64z" fill="none"/><path d="m55 13h-6.922l-1.711 5.75c-.105.325-.367.225-.367.225v-5.975h-.007c-.015-1.258-.057-3.347-.183-4.121-.109-.665-.226-1.879-1.196-1.879h-2.855c-.969 0-1.176 1.228-1.284 1.893-.125.773-.3 2.853-.398 4.107h-15.999l-1.711 5.75c-.105.325-.367.225-.367.225v-5.975h-.007c-.015-1.258-.057-3.347-.183-4.121-.109-.665-.226-1.879-1.196-1.879h-2.855c-.969 0-1.176 1.228-1.284 1.893-.125.773-.3 2.853-.398 4.107h-7.077c-1.104 0-2 .896-2 2v40c0 1.104.896 2 2 2h46c1.104 0 2-.896 2-2v-40c0-1.104-.895-2-2-2zm-3 39h-40v-26h40z"/><path d="m22.277 40.515c.709 0 1.314-.438 1.565-1.057h1.426c.129 1.391.678 2.661 1.522 3.679l-1.042 1.042c-.422-.112-.89-.007-1.221.324-.495.495-.495 1.298 0 1.793s1.298.495 1.793 0c.331-.331.436-.799.324-1.221l1.043-1.042c1.391 1.153 2.878 1.448 3.679 1.523v1.425c-.619.251-1.057.856-1.057 1.566 0 .65.51 1.691 1.692 1.691.934 0 1.691-.757 1.691-1.691 0-.709-.437-1.314-1.057-1.566v-1.425c1.391-.13 2.661-.679 3.679-1.522l1.042 1.042c-.112.422-.007.89.324 1.221.495.495 1.298.495 1.793 0s.495-1.298 0-1.794c-.331-.331-.798-.436-1.221-.324l-1.042-1.042c.844-1.018 1.393-2.287 1.522-3.679h1.426c.251.619.856 1.057 1.565 1.057.934 0 1.691-.757 1.691-1.691s-.757-1.691-1.691-1.691c-.709 0-1.314.438-1.565 1.057h-1.426c-.151-1.628-.871-2.893-1.522-3.679l1.042-1.043c.422.112.89.007 1.221-.324.495-.495.495-1.298 0-1.793-.536-.536-1.341-.454-1.794-.001-.331.331-.436.799-.324 1.221l-1.042 1.042c-.622-.516-1.863-1.353-3.678-1.522v-1.425c.619-.251 1.057-.856 1.057-1.565 0-.65-.51-1.691-1.692-1.691-.934 0-1.691.757-1.691 1.691 0 .621.335 1.162.834 1.455.071.042.146.079.223.11v1.425c-1.391.13-2.661.678-3.678 1.522l-1.042-1.042c.125-.471-.018-1.05-.523-1.384-.492-.325-1.161-.271-1.595.162-.495.495-.495 1.298 0 1.793.437.437.979.389 1.221.325l1.042 1.042c-.135.163-.26.334-.379.51-.019.028-.038.057-.057.086-.112.171-.218.346-.315.527-.002.003-.004.007-.006.01-.412.772-.681 1.632-.766 2.546h-1.426c-.251-.619-.856-1.057-1.565-1.057-.934 0-1.691.757-1.691 1.691s.757 1.693 1.691 1.693z"/></svg>