<svg enable-background="new 0 0 64 64" viewBox="0 0 64 64" xmlns="http://www.w3.org/2000/svg"><path d="m0 0h64v64h-64z" fill="none"/><path d="m22.384 20.442c1.893-.476 2.656-2.077 2.177-3.986-.546-2.174-1.984-3.053-3.828-2.59-1.943.488-2.643 2.129-2.15 4.092.519 2.068 1.908 2.959 3.801 2.484z"/><path d="m34.001 11.576c2.168 0 3.925-1.757 3.925-3.925s-1.757-3.925-3.925-3.925-3.926 1.757-3.926 3.925 1.758 3.925 3.926 3.925z"/><path d="m19.06 25.612c.28 4.809.391 5.648 2.179 11.001 0 0-1.273.774-2.03 1.29-1.37.934-2.003 2.388-1.231 3.856l.001.002c1.211-.649 4.637-2.484 5.791-3.102.537-.289.86-.896.757-1.532-.056-.346-.315-1.938-.552-3.401.483.355 1.208.888 3.254 2.389-.072 1.217-.174 2.92-.174 4.184 0 1.969.828 2.833 2.485 3.218 0 0 .664-5.569 1-8.386.056-.505-.134-1.031-.542-1.393-1.438-1.279-2.605-2.338-3.456-3.119-.597-3.993-.43-5.453-.43-5.453 3.183-2.293 4.276-5.76 3.717-9.395-.226-1.47-1.202-2.437-2.628-2.013 1.265 4.261.426 7.92-4.685 8.559-4.74.593-7.493-2.031-7.243-6.921h-.001c-1.379-.045-2.106 1.291-2.025 2.668.219 3.76 2.438 6.375 5.813 7.548z"/><path d="m41.985 20.525c1.507.236 2.638-.438 3.21-1.667.321.483.924 1.081 1.864.854 1.397-.337 1.183-1.421 2.937-1.035.143.031.246-.135.147-.242-.512-.551-1.625-1.525-3-1.406-.746.065-1.245.277-1.582.511.27-2.113-.697-3.427-2.526-3.714-1.979-.31-3.265.927-3.578 2.926-.331 2.108.6 3.471 2.528 3.773z"/><path d="m53 27.401c-1.977-.372-3.432-.934-4.723-1.739-3.063-1.911-2.74-3.104-5.12-3.632-2.602-.578-4.43.586-6.385-2.945-.667-1.205-1.227-2.938-1.725-5.427-1.408.374-1.942 1.625-1.593 3.281.636 3.02 1.677 5.908 4.428 7.671-.712 2.111-1.912 5.994-2.514 9.794-.062.395.249.718.648.718h1.51c-.136.892-.221 1.662-.247 1.849-.087.632.005 1.06.159 1.537.493 1.524 1.611 4.632 2.02 5.806h.002c1.563-.544 2.012-1.641 1.564-3.487-.447-1.845-.792-3.302-.792-3.302l.733-2.396h.676c.105.642.19 1.192.218 1.363.073.436.321.84.721 1.1 5.243 3.404 4.062 2.636 5.603 3.637l.001-.002c1.027-1.334.29-2.474-.772-3.648-.617-.682-1.193-1.258-1.614-1.662l-2.542-.502c-.208-.066-.177-.249-.164-.286h1.646.012 1.467c.41 0 .719-.373.643-.777l-1.463-7.665c1.515 1.291 2.812 2.033 4.342 2.24 1.612.217 2.998-.051 3.261-1.526z"/><path d="m52.79 44.716c-2.769.952-6.367 2.413-9.222 3.613.073.433.083.892.012 1.379-.415 2.808-2.82 4.583-6.24 4.742-7.733.358-12.535-1.558-13.531-1.962-.286-.116-.318-.258-.292-.388.001-.001.011-.009.011-.009 5.594.964 9.121 1.122 13.463.424 3.295-.53 4.489-2.106 4.461-3.406-.027-1.271-.927-2.039-2.952-2.109-6.89-.24-10.919-1.008-16.824-1.869-4.104-.598-8.062.467-11.433 2.627-3.163 2.026-4.04 2.985-4.04 2.985l5.786 11.143 7.482-3.042c.853-.347 1.784-.451 2.692-.302l10.261 2.283c2.289.376 4.638-.056 6.644-1.222l20.48-12.846c-.001 0-1.005-4.019-6.758-2.041z"/></svg>