<?xml version="1.0" encoding="utf-8"?>
<!-- Generator: Adobe Illustrator 25.2.0, SVG Export Plug-In . SVG Version: 6.00 Build 0)  -->
<svg version="1.1" xmlns="http://www.w3.org/2000/svg" xmlns:xlink="http://www.w3.org/1999/xlink" x="0px" y="0px"
	 viewBox="0 0 64 64" style="enable-background:new 0 0 64 64;" xml:space="preserve">
<style type="text/css">
	.st0{fill:none;}
	.st1{fill:#B3B3B3;}
</style>
<g id="Box">
	<rect class="st0" width="64" height="64"/>
</g>
<g id="Icon">
	<g>
		<path d="M22.384,20.442c1.893-0.476,2.656-2.077,2.177-3.986c-0.546-2.174-1.984-3.053-3.828-2.59
			c-1.943,0.488-2.643,2.129-2.15,4.092C19.102,20.026,20.491,20.917,22.384,20.442z"/>
		<path d="M34.001,11.576c2.168,0,3.925-1.757,3.925-3.925s-1.757-3.925-3.925-3.925s-3.926,1.757-3.926,3.925
			S31.833,11.576,34.001,11.576z"/>
		<path d="M19.06,25.612c0.28,4.809,0.391,5.648,2.179,11.001c0,0-1.273,0.774-2.03,1.29c-1.37,0.934-2.003,2.388-1.231,3.856
			l0.001,0.002c1.211-0.649,4.637-2.484,5.791-3.102c0.537-0.289,0.86-0.896,0.757-1.532c-0.056-0.346-0.315-1.938-0.552-3.401
			c0.483,0.355,1.208,0.888,3.254,2.389c-0.072,1.217-0.174,2.92-0.174,4.184c0,1.969,0.828,2.833,2.485,3.218
			c0,0,0.664-5.569,1-8.386c0.056-0.505-0.134-1.031-0.542-1.393c-1.438-1.279-2.605-2.338-3.456-3.119
			c-0.597-3.993-0.43-5.453-0.43-5.453c3.183-2.293,4.276-5.76,3.717-9.395c-0.226-1.47-1.202-2.437-2.628-2.013
			c1.265,4.261,0.426,7.92-4.685,8.559c-4.74,0.593-7.493-2.031-7.243-6.921l-0.001,0c-1.379-0.045-2.106,1.291-2.025,2.668
			C13.466,21.824,15.685,24.439,19.06,25.612z"/>
		<path d="M41.985,20.525c1.507,0.236,2.638-0.438,3.21-1.667c0.321,0.483,0.924,1.081,1.864,0.854
			c1.397-0.337,1.183-1.421,2.937-1.035c0.143,0.031,0.246-0.135,0.147-0.242c-0.512-0.551-1.625-1.525-3-1.406
			c-0.746,0.065-1.245,0.277-1.582,0.511c0.27-2.113-0.697-3.427-2.526-3.714c-1.979-0.31-3.265,0.927-3.578,2.926
			C39.126,18.86,40.057,20.223,41.985,20.525z"/>
		<path d="M53,27.401c-1.977-0.372-3.432-0.934-4.723-1.739c-3.063-1.911-2.74-3.104-5.12-3.632
			c-2.602-0.578-4.43,0.586-6.385-2.945c-0.667-1.205-1.227-2.938-1.725-5.427c-1.408,0.374-1.942,1.625-1.593,3.281
			c0.636,3.02,1.677,5.908,4.428,7.671c-0.712,2.111-1.912,5.994-2.514,9.794c-0.062,0.395,0.249,0.718,0.648,0.718h1.51
			c-0.136,0.892-0.221,1.662-0.247,1.849c-0.087,0.632,0.005,1.06,0.159,1.537c0.493,1.524,1.611,4.632,2.02,5.806l0.002,0
			c1.563-0.544,2.012-1.641,1.564-3.487c-0.447-1.845-0.792-3.302-0.792-3.302l0.733-2.396h0.676
			c0.105,0.642,0.19,1.192,0.218,1.363c0.073,0.436,0.321,0.84,0.721,1.1c5.243,3.404,4.062,2.636,5.603,3.637l0.001-0.002
			c1.027-1.334,0.29-2.474-0.772-3.648c-0.617-0.682-1.193-1.258-1.614-1.662l-2.542-0.502c-0.208-0.066-0.177-0.249-0.164-0.286
			c1.3,0,1.592,0,1.646,0c0.007,0,0.011,0,0.012,0c0.053,0,0.321,0,1.467,0c0.41,0,0.719-0.373,0.643-0.777l-1.463-7.665
			c1.515,1.291,2.812,2.033,4.342,2.24C51.351,29.144,52.737,28.876,53,27.401z"/>
		<path d="M52.79,44.716c-2.769,0.952-6.367,2.413-9.222,3.613c0.073,0.433,0.083,0.892,0.012,1.379
			c-0.415,2.808-2.82,4.583-6.24,4.742c-7.733,0.358-12.535-1.558-13.531-1.962c-0.286-0.116-0.318-0.258-0.292-0.388
			c0.001-0.001,0.011-0.009,0.011-0.009c5.594,0.964,9.121,1.122,13.463,0.424c3.295-0.53,4.489-2.106,4.461-3.406
			C41.425,47.838,40.525,47.07,38.5,47c-6.89-0.24-10.919-1.008-16.824-1.869c-4.104-0.598-8.062,0.467-11.433,2.627
			c-3.163,2.026-4.04,2.985-4.04,2.985l5.786,11.143l7.482-3.042c0.853-0.347,1.784-0.451,2.692-0.302l10.261,2.283
			c2.289,0.376,4.638-0.056,6.644-1.222l20.48-12.846C59.547,46.757,58.543,42.738,52.79,44.716z"/>
	</g>
</g>
</svg>
