<svg enable-background="new 0 0 64 64" viewBox="0 0 64 64" xmlns="http://www.w3.org/2000/svg"><path d="m0 0h64v64h-64z" fill="none"/><path d="m39.051 24.406-.016-.016c.202-.862.096-1.514-.225-2.368l-.975-.7-2.931 2.931.869.869 2.126-2.126c.306 1.096.105 2.231-.54 3.374l.958.604c.29-.451.451-.789.619-1.28.669-.33 1.224-.322 1.635.089.612.612.427 1.474-.531 2.431l-.669.669.805.805.685-.685c1.546-1.546 1.828-3.31.757-4.38-.699-.7-1.641-.789-2.567-.217z"/><path d="m44.38 20.157-.475.136c.29-1.047.201-1.634-.403-2.238-.732-.733-1.884-.66-2.922.378-.918.918-.999 2.383-.258 3.124.539.539.957.636 1.707.531l.427-.056c-.339 1.192-.161 1.868.37 2.399.781.781 1.973.636 3.076-.467 1.119-1.119 1.369-2.56.547-3.382-.555-.554-1.095-.676-2.069-.425zm-1.353.418-.822.145c-.402.065-.668.008-.925-.25-.355-.354-.339-.901.04-1.28.435-.435.934-.467 1.329-.073.338.339.483.774.378 1.458zm2.19 2.544c-.499.499-1.087.572-1.489.169-.395-.394-.476-.765-.379-1.522l.869-.193c.524-.121.942-.073 1.208.193.339.339.266.878-.209 1.353z"/><path d="m44.242 14.803c-.685.685-.676 1.787.008 2.472s1.779.685 2.464 0c.684-.684.692-1.786.008-2.472-.685-.684-1.796-.684-2.48 0zm1.795 1.796c-.298.298-.781.298-1.095-.017-.313-.314-.322-.805-.023-1.103.298-.298.797-.298 1.111.016.314.315.305.806.007 1.104z"/><path d="m60.09 3.91c-3.88-3.88-10.172-3.88-14.052 0l-17.692 17.692c-3.327 3.327-5.752 7.445-7.049 11.967-1.297 4.523-3.723 8.641-7.05 11.968l-7.456 7.456 4.216 4.216 7.456-7.456c3.327-3.327 7.445-5.753 11.968-7.049 4.522-1.297 8.641-3.722 11.968-7.049l17.691-17.692c3.88-3.881 3.88-10.172 0-14.053zm-7.951 16.759-10.54 10.54c-.776.776-2.034.776-2.811 0l-5.621-5.621c-.776-.776-.776-2.034 0-2.811l10.539-10.539c.776-.776 2.035-.776 2.811 0l5.621 5.621c.777.776.777 2.034.001 2.81zm2.126-7.059c-1.932 0-3.499-1.566-3.499-3.499 0-1.932 1.566-3.499 3.499-3.499 1.932 0 3.499 1.566 3.499 3.499-.001 1.933-1.567 3.499-3.499 3.499z"/><path d="m1.873 57.911c-1.164 1.164-1.164 3.052 0 4.216s3.052 1.164 4.216 0l3.513-3.513-4.216-4.216z"/></svg>