<svg height="64" viewBox="0 0 64 64" width="64" xmlns="http://www.w3.org/2000/svg"><path d="m0 0h64v64h-64z" fill="none"/><path d="m39.6746 39.8234c-1.3226-.4788-2.5453-.8698-3.4478-1.1435-.155-1.1155-.3614-2.4073-.5466-3.4836 1.7886-2.1667 2.8874-4.4047 3.2495-6.6968 1.3281-1.2195 2.0679-3.1657 2.0679-5.5557 0-.7447.0012-2.7025-1.2268-4.0366.3037-3.3378.515-8.5034-.7869-10.587-1.6026-2.5649-3.5498-3.8159-7.2632-2.9775-2.4355-1.1577-4.0937-1.8823-8.3608-.8398-2.9649.7241-6.21 1.9067-7.92 3.8798-1.652 1.9066-1.5394 7.2237-1.2741 10.6054-1.1589 1.332-1.1634 3.2256-1.1634 3.9557 0 2.386.7374 4.3299 2.0614 5.5497.3819 2.5118 1.613 4.9141 3.7105 7.2619-.106.807-.2283 1.7498-.353 2.7313-2.5129.7345-9.6714 2.9969-12.0341 5.5665-2.8735 3.124-4.3872 14.8896-4.3872 14.8896h40.1312c-3.821-4.1354-5.2411-8.7216-5.1244-12.3422.0887-2.7633 1.0585-5.1284 2.6678-6.7772zm-12.2937 9.4593c-2.3003-1.75-6.5919-5.5302-6.1588-9.0224.237-1.9129.0408-.5492.8235-5.4371-2.2767-2.1999-4.1043-4.8665-4.1043-8.061-1.6176-.504-2.0413-2.5455-2.0413-3.8184 0-1.2725.3217-1.961.7738-2.1743.3921-.1845.7725-.0476 1.013.0886.1414.6526.2483 1.1383.2898 1.3098.206.8511 1.0234.773 1.0234.773v-6.7451c2.0731-.1505 6.1937-.7531 10.7499-3.1062l5.2501 3.5261v6.3251s.8174.0782 1.0234-.7729c.0415-.1714.1484-.6571.2898-1.3098.2405-.1362.6209-.2731 1.013-.0886.4521.2133.7738.9018.7738 2.1743 0 1.2729-.4237 3.3144-2.0414 3.8183 0 3.7027-2.5334 6.4959-5.3403 8.8846-.7807.6644-2.2499 1.1066-3.7188 1.1055-1.0628-.0009-2.1255-.2865-2.9271-.6349.6138.9305 1.6553 2.0744 3.5848 2.5851 3.1548.8349 5.4595-.9139 5.4595-.9139s.2828 1.9133.2745 2.4157c.3266 3.4884-3.5568 7.3169-6.0103 9.0785z"/><path d="m59.6842 40.8482c-5.4968-2.443-8.1842 2.8095-8.1842 2.8095s-2.6874-5.2526-8.1842-2.8095c-5.4215 2.4096-5.0601 14.3647 7.647 21.0207.3338.1748.7407.1748 1.0745 0 12.707-6.656 13.0684-18.6111 7.6469-21.0207z"/></svg>