<svg enable-background="new 0 0 64 64" viewBox="0 0 64 64" xmlns="http://www.w3.org/2000/svg"><path d="m0 0h64v64h-64z" fill="none"/><path d="m32 39.238c3.837 0 5.584-1.158 8.261-3.459.946-.814 2.009-1.77 3.321-2.869l-.735-1.618s.188-1.276.31-1.926c.188-1.001.331-3.557.331-3.557-5.678 0-7.414-.58-8.243-1.251-1.061-.857-1.708-1.846-3.245-1.846s-2.184.989-3.245 1.846c-.829.67-2.565 1.251-8.243 1.251 0 0 .143 2.556.331 3.557.122.65.31 1.926.31 1.926l-.735 1.618c1.468 1.23 2.624 2.281 3.655 3.153 2.494 2.112 4.252 3.175 7.927 3.175z" fill="#fff"/><path d="m52.613 44.11c-2.183-2.375-8.462-4.487-11.386-5.373-.084-.603-.183-1.255-.285-1.898.105-.09-.027.032 1.203-1.042.667-.584 1.402-1.227 2.24-1.929.431-.36.567-.964.335-1.475l-.583-1.282c.275-1.818.314-1.619.46-3.311.901-1.205 1.399-2.85 1.399-4.798 0-.745.001-2.703-1.227-4.037.304-3.338.515-8.503-.787-10.587-1.603-2.565-3.55-3.816-7.263-2.977-2.436-1.158-4.094-1.882-8.361-.84-2.965.724-6.21 1.907-7.92 3.88-1.652 1.907-1.54 7.224-1.274 10.605-1.159 1.332-1.163 3.226-1.163 3.956 0 1.948.499 3.593 1.399 4.798.145 1.676.179 1.446.46 3.311l-.583 1.282c-.232.511-.095 1.115.335 1.476.844.707 1.583 1.354 2.255 1.941 1.608 1.408 1.446 1.246 1.714 1.468-.053.411-.107.832-.162 1.267-2.513.734-9.671 2.997-12.034 5.567-2.871 3.122-4.385 14.888-4.385 14.888h25 25s-1.514-11.766-4.387-14.89zm-31.713-21.109c0-1.272.322-1.961.774-2.174.392-.184.772-.048 1.013.089.141.653.248 1.138.29 1.31.206.85 1.023.772 1.023.772v-6.745c2.073-.151 6.194-.753 10.75-3.106l5.25 3.526v6.325s.817.078 1.023-.773c.042-.172.148-.657.29-1.31.24-.136.621-.273 1.013-.089.452.213.774.902.774 2.174 0 .456-.066 1.006-.211 1.552-3.829-.03-6.089-.345-6.858-.967-1.001-.811-1.964-2.124-4.031-2.124-2.059 0-3.022 1.307-4.031 2.124-.77.622-3.029.936-6.858.967-.145-.545-.211-1.096-.211-1.551zm1.047 9.565.344-.758c.018-.038.021-.081.035-.12l5.794 1.539c.039-.045.155-.222-.106-.429-.227-.179-4.729-2.816-5.914-3.509-.009-.052-.019-.108-.028-.154-.084-.446-.164-1.312-.224-2.087 4.895-.087 6.646-.672 7.692-1.517 1.166-.944 1.49-1.568 2.459-1.568.977 0 1.358.677 2.459 1.568 1.045.845 2.797 1.43 7.692 1.517-.06.775-.14 1.641-.224 2.087-.009.046-.018.102-.028.154-1.185.693-5.688 3.33-5.915 3.51-.261.207-.146.383-.106.429l5.794-1.539c.014.04.018.082.035.12l.345.758c-1.052.899-1.771 1.546-2.607 2.265-2.553 2.195-4.029 3.157-7.446 3.157-3.353 0-4.809-.922-7.12-2.879-.656-.558-1.991-1.74-2.931-2.544zm10.434 16.774c-2.3-1.75-6.592-5.53-6.159-9.022.071-.577.104-.854.135-1.096 1.573.848 3.253 1.266 5.643 1.266 2.769 0 4.609-.6 6.258-1.614.069.539.137 1.138.133 1.388.327 3.488-3.557 7.316-6.01 9.078z"/></svg>