<?xml version="1.0" encoding="utf-8"?>
<!-- Generator: Adobe Illustrator 17.1.0, SVG Export Plug-In . SVG Version: 6.00 Build 0)  -->
<svg version="1.2" baseProfile="tiny" xmlns="http://www.w3.org/2000/svg" xmlns:xlink="http://www.w3.org/1999/xlink" x="0px"
	 y="0px" width="64px" height="64px" viewBox="0 0 64 64" xml:space="preserve">
<g id="Box">
	<rect fill="none" width="64" height="64"/>
</g>
<g id="Icon">
	<g>
		<path d="M22.1216,23.4445c-0.379-0.4018-1.0118-0.4202-1.4136-0.0413l-1.7098,1.6128c-0.4017,0.379-0.4202,1.0118-0.0413,1.4136
			l6.3889,6.7733c0.3789,0.4018,1.0118,0.4202,1.4136,0.0413l1.7098-1.6128c0.4018-0.379,0.4203-1.0118,0.0413-1.4136
			L22.1216,23.4445z M22.7754,28.6885c-0.2241,0.2093-0.5729,0.1992-0.7837-0.0234c-0.2111-0.2233-0.199-0.5753,0.0229-0.7842
			c0.2134-0.2012,0.582-0.1924,0.7837,0.0234C23.0069,28.1249,23.0001,28.477,22.7754,28.6885z M24.0752,30.0654
			c-0.2274,0.2145-0.5783,0.1959-0.7842-0.0234c-0.2076-0.2176-0.2022-0.5709,0.0234-0.7832
			c0.2124-0.2012,0.5806-0.1924,0.7837,0.0234C24.3071,29.5039,24.2969,29.8555,24.0752,30.0654z M24.1528,27.3887
			c-0.2252,0.2113-0.5743,0.1997-0.7837-0.0234c-0.209-0.2217-0.1987-0.5732,0.0229-0.7832
			c0.2148-0.2031,0.5825-0.1914,0.7842,0.0225C24.3869,26.8273,24.3761,27.1785,24.1528,27.3887z M25.4526,28.7666
			c-0.2241,0.2093-0.5729,0.1992-0.7837-0.0234c-0.2111-0.2233-0.199-0.5753,0.0229-0.7842
			c0.2134-0.2012,0.5811-0.1924,0.7837,0.0234C25.6841,28.203,25.6773,28.5551,25.4526,28.7666z"/>
		<path d="M38.9297,28.5567c1.3281-1.2195,2.0679-3.1657,2.0679-5.5557c0-0.7447,0.0012-2.7025-1.2268-4.0366
			c0.3036-3.3378,0.515-8.5034-0.7869-10.587c-1.6026-2.5649-3.5498-3.8159-7.2632-2.9775
			c-2.4355-1.1577-4.0937-1.8823-8.3608-0.8398c-2.9648,0.7241-6.21,1.9067-7.92,3.8798c-1.652,1.9066-1.5394,7.2237-1.2741,10.6054
			c-1.1589,1.332-1.1634,3.2256-1.1634,3.9557c0,2.386,0.7374,4.3299,2.0614,5.5497c0,0-4.2883,6.0435-3.8894,12.5922
			c-1.9734,0.8768-3.7997,1.8936-4.7872,2.9675C3.5137,47.2344,2,59,2,59h29v-7.4734c-1.0596,0.4869-2.3479,0.7654-4.0005,0.7654
			c-5.1621,0-6.7969-2.6924-8.8657-6.1006c-0.9736-1.6025-1.9771-3.2549-3.4155-4.6016c-0.3975-3.373,0.7749-6.4512,1.7896-8.3906
			c2.5569,3.3625,6.245,6.6723,10.4917,6.5928c2.0108,0.0377,3.7982-0.6544,5.4688-1.7446c1.6929-2.4453,4.7516-4.3572,8.655-5.3906
			C40.9105,32.1884,39.9531,30.2344,38.9297,28.5567z M36.0586,26.8193c0,1.2986-0.228,2.5302-0.8422,3.5798
			c-1.6305,2.7863-4.9703,5.9679-8.2169,5.8919c-3.2943,0.0773-6.7946-3.2262-8.365-6.1123c-0.543-0.998-0.6931-2.167-0.6931-3.3594
			C16.3237,26.3154,15.9,24.2739,15.9,23.001c0-1.2725,0.3217-1.961,0.7737-2.1743c0.3922-0.1844,0.7725-0.0475,1.013,0.0886
			c0.1414,0.6527,0.2484,1.1383,0.2898,1.3098C18.1826,23.0762,19,22.998,19,22.998v-6.7451
			c2.0731-0.1505,6.1937-0.7531,10.7499-3.1062L35,16.6729v6.3251c0,0,0.8174,0.0782,1.0234-0.7729
			c0.0415-0.1715,0.1484-0.6571,0.2898-1.3098c0.2405-0.1362,0.6209-0.2731,1.013-0.0886C37.7783,21.04,38.1,21.7285,38.1,23.001
			C38.1,24.2739,37.6763,26.3154,36.0586,26.8193z"/>
		<path d="M48.0012,54C55.8511,54,62,50.6253,62,46.3214c0-0.6324,0-3.0202,0-3.6548C62,38.3673,55.8511,35,48.0012,35
			C40.1492,35,34,38.3673,34,42.6666c0,0.6346,0,3.0225,0,3.6548c0,0.9493,0.3142,1.8492,0.865,2.6819
			C34.312,49.8288,34,50.7224,34,51.6666v3.6548C34,59.6253,40.1492,63,48.0012,63C55.8511,63,62,59.6253,62,55.3214v-3.6548
			c0-0.2049-0.0266-0.4056-0.0542-0.606c-0.7144,0.8958-4.5718,5.1376-13.6127,5.1376c-8.0173,0-10.7806-3.8577-11.0668-4.3807
			c-0.1169-0.2137-0.2019-0.4362-0.0765-0.5667C39.738,52.9397,43.6016,54,48.0012,54z M36.7012,43
			c0-2.8444,5.0601-5.15,11.302-5.15s11.302,2.3057,11.302,5.15c0,2.8443-5.0601,5.15-11.302,5.15S36.7012,45.8443,36.7012,43z"/>
		<path d="M45.8542,44.7261v0.6766h1.5551v-0.5565c0.3837,0.024,1.0024,0.0191,1.4,0.0191v0.5374h1.5168v-0.6166
			c2.7834-0.2999,4.1094-1.2643,4.1094-2.6701c0-0.5469-0.0571-0.7845-0.3076-1.3435H52.072
			c0.2123,0.5182,0.2886,0.7773,0.2886,1.2546c0,0.6166-0.5938,1.1155-2.0344,1.334v-1.7634h-1.5168v1.8928
			c-0.5807,0.0292-0.7961,0.0217-1.4,0v-1.8928h-1.5551v1.7538c-1.4023-0.2089-2.1322-0.6575-2.1322-1.3748
			c0-0.4078,0.0763-0.6454,0.2479-1.1539h-2.168c-0.174,0.4269-0.2312,0.7269-0.2312,1.1226
			C41.5708,43.3611,43.0112,44.3662,45.8542,44.7261z"/>
	</g>
</g>
</svg>
