<?xml version="1.0" encoding="utf-8"?>
<!-- Generator: Adobe Illustrator 17.1.0, SVG Export Plug-In . SVG Version: 6.00 Build 0)  -->
<svg version="1.2" baseProfile="tiny" xmlns="http://www.w3.org/2000/svg" xmlns:xlink="http://www.w3.org/1999/xlink" x="0px"
	 y="0px" width="64px" height="64px" viewBox="0 0 64 64" xml:space="preserve">
<g id="Box">
	<rect fill="none" width="64" height="64"/>
</g>
<g id="Icon">
	<g>
		<path d="M39.6746,39.8234c-1.3226-0.4788-2.5453-0.8698-3.4478-1.1435c-0.155-1.1155-0.3614-2.4073-0.5466-3.4836
			c1.7886-2.1667,2.8874-4.4047,3.2495-6.6968c1.3281-1.2195,2.0679-3.1657,2.0679-5.5557c0-0.7447,0.0012-2.7025-1.2268-4.0366
			c0.3037-3.3378,0.515-8.5034-0.7869-10.587c-1.6026-2.5649-3.5498-3.8159-7.2632-2.9775
			c-2.4355-1.1577-4.0937-1.8823-8.3608-0.8398c-2.9649,0.7241-6.21,1.9067-7.92,3.8798c-1.652,1.9066-1.5394,7.2237-1.2741,10.6054
			c-1.1589,1.332-1.1634,3.2256-1.1634,3.9557c0,2.386,0.7374,4.3299,2.0614,5.5497c0.3819,2.5118,1.613,4.9141,3.7105,7.2619
			c-0.106,0.807-0.2283,1.7498-0.353,2.7313c-2.5129,0.7345-9.6714,2.9969-12.0341,5.5665C3.5137,47.1772,2,58.9428,2,58.9428
			h40.1312c-3.821-4.1354-5.2411-8.7216-5.1244-12.3422C37.0955,43.8373,38.0653,41.4722,39.6746,39.8234z M27.3809,49.2827
			c-2.3003-1.75-6.5919-5.5302-6.1588-9.0224c0.237-1.9129,0.0408-0.5492,0.8235-5.4371c-2.2767-2.1999-4.1043-4.8665-4.1043-8.061
			C16.3237,26.2582,15.9,24.2167,15.9,22.9438c0-1.2725,0.3217-1.961,0.7738-2.1743c0.3921-0.1845,0.7725-0.0476,1.013,0.0886
			c0.1414,0.6526,0.2483,1.1383,0.2898,1.3098C18.1826,23.019,19,22.9409,19,22.9409v-6.7451
			c2.0731-0.1505,6.1937-0.7531,10.7499-3.1062L35,16.6157v6.3251c0,0,0.8174,0.0782,1.0234-0.7729
			c0.0415-0.1714,0.1484-0.6571,0.2898-1.3098c0.2405-0.1362,0.6209-0.2731,1.013-0.0886c0.4521,0.2133,0.7738,0.9018,0.7738,2.1743
			c0,1.2729-0.4237,3.3144-2.0414,3.8183c0,3.7027-2.5334,6.4959-5.3403,8.8846c-0.7807,0.6644-2.2499,1.1066-3.7188,1.1055
			c-1.0628-0.0009-2.1255-0.2865-2.9271-0.6349c0.6138,0.9305,1.6553,2.0744,3.5848,2.5851
			c3.1548,0.8349,5.4595-0.9139,5.4595-0.9139s0.2828,1.9133,0.2745,2.4157C33.7178,43.6926,29.8344,47.5211,27.3809,49.2827z"/>
		<path d="M59.6842,40.8482C54.1874,38.4052,51.5,43.6577,51.5,43.6577s-2.6874-5.2526-8.1842-2.8095
			c-5.4215,2.4096-5.0601,14.3647,7.647,21.0207c0.3338,0.1748,0.7407,0.1748,1.0745,0
			C64.7443,55.2129,65.1057,43.2578,59.6842,40.8482z"/>
	</g>
</g>
</svg>
