<svg height="64" viewBox="0 0 64 64" width="64" xmlns="http://www.w3.org/2000/svg"><path d="m0 0h64v64h-64z" fill="none"/><path d="m15.9143 44.014c-.0999-1.0374-.0366-1.9895.1954-2.8435-1.9481.8708-3.7462 1.878-4.7225 2.9399-2.8735 3.124-4.3872 14.8896-4.3872 14.8896h7.8643c-.6041-1-4.3076-11.5447 1.05-14.986z"/><circle cx="44.5" cy="50.5" r="2"/><path d="m52.6128 44.1104c-1.0543-1.1467-3.0648-2.2304-5.1901-3.1462.5328 1.6359.4248 3.5681-.3021 5.7616 1.1942.831 1.9794 2.2091 1.9794 3.7742 0 2.5405-2.0594 4.6-4.6 4.6-1.7404 0-3.244-.9698-4.02-2.397-.4086-.7514-.5853-1.7134-.5581-1.9061.75-.3281 1.4126-1.0762 1.709-1.9639.2283-.6846.2466-1.4194.1916-2.0602.7554-.5439 1.6755-.8728 2.6775-.8728.0872 0 .1686.0209.2546.0256.6427-1.9362.6762-3.5236.0755-4.7195-.7998-1.5947-2.584-2.2129-3.5762-2.4395l.0045-.0198c-.0099-.003-.0217-.0068-.0316-.0098-.155-1.1155-.3614-2.4073-.5466-3.4836 1.7886-2.1667 2.8874-4.4047 3.2495-6.6968 1.3281-1.2195 2.0679-3.1657 2.0679-5.5557 0-.7447.0012-2.7025-1.2268-4.0366.3036-3.3378.515-8.5034-.7869-10.587-1.6026-2.5649-3.5498-3.8159-7.2632-2.9775-2.4355-1.1577-4.0937-1.8823-8.3608-.8398-2.9648.7241-6.21 1.9067-7.92 3.8798-1.652 1.9066-1.5394 7.2237-1.2741 10.6054-1.1589 1.332-1.1634 3.2256-1.1634 3.9557 0 2.386.7374 4.3299 2.0614 5.5497.3819 2.5118 1.613 4.9141 3.7105 7.2619-.106.807-.2283 1.7498-.353 2.7313-.5463.1597-1.3196.3952-2.2079.6867-1.9341.6816-2.8621 1.9347-2.8579 3.8772.9998-.1288 1.999.0249 2.9521.4664 1.3614.6287 2.5093 1.767 3.4588 3.0579-.2884.8226-.5505 1.5116-.7029 1.7575-.1331.2083-.3289.5125-.5593.8702-.8893-1.4888-1.9902-2.8366-3.2444-3.4161-.8535-.3945-1.6699-.3828-2.5713.0352-3.4786 1.6097-1.9059 8.0184-1.0405 10.7716.505-.2217 1.036-.3754 1.4539-.4692.402-.0903.7134-.1099.9685-.0699-1.0604 1.6357-1.8592 2.8666-1.8594 2.8666l-.0143.0221h2.3842c1.543-2.379 5.2306-8.067 6.1678-9.5333.9175-1.4354 3.0099-9.2449 3.5846-9.7333.2132-.1812.5441-.3304 1.0014-.4559.0886-.5708.6758-4.668.6214-9.641-.0073-.6572.1215-1.7005.7954-1.7713.7709-.0843 1.1854.8218 1.3007 1.5887.5942 3.9623.4645 8.5081.4311 9.3957 2.2646-.1317 4.6035.0156 5.05.3505.8.6 2.541 4.2231 2.2744 5.2231s-1.2077 1.3101-1.2077 1.3101.4667 1.4667.1333 2.4667-1.5333 1.0667-1.5333 1.0667-.1333 1.1333-.2667 1.9333c-.1333.8-.9333 1.2667-1.6666.4667s-.7333-4.0667-.7333-4.0667l-1.8581.2573c-.8 4.3333-3.4915 5.4585-3.4915 5.4585l-1.9323 5.6842h28.7485s-1.5137-11.7656-4.3872-14.8896zm-17.161-8.2103c-.0237-1.8953-.2335-4.1631-.5821-6.4857-.373-2.482-1.7603-3.4144-3.0274-3.4144-2.0711.1079-2.7695 1.8256-2.7462 3.9163.0388 3.5308-.358 6.3799-.5497 7.9559-.185.1041-.3618.2126-.5078.3368-.5635.4786-.8531 1.1023-1.7197 3.7266-.1171-.5406-.1631-1.0827-.0967-1.6182.237-1.9129.0408-.5492.8235-5.4371-2.2767-2.2-4.1043-4.8665-4.1043-8.061-1.6177-.5039-2.0414-2.5454-2.0414-3.8183 0-1.2725.3217-1.961.7737-2.1743.3922-.1844.7725-.0475 1.013.0886.1414.6527.2484 1.1383.2898 1.3098.2061.8511 1.0235.7729 1.0235.7729v-6.7451c2.0731-.1505 6.1937-.7531 10.7499-3.1062l5.2501 3.5262v6.3251s.8174.0782 1.0234-.7729c.0415-.1715.1484-.6571.2898-1.3098.2405-.1362.6209-.2731 1.013-.0886.4521.2133.7738.9018.7738 2.1743 0 1.2729-.4237 3.3144-2.0414 3.8183 0 3.8823-3.3982 7.5936-5.6068 9.0808z"/></svg>