<svg enable-background="new 0 0 64 64" viewBox="0 0 64 64" xmlns="http://www.w3.org/2000/svg"><path d="m0 0h64v64h-64z" fill="none"/><path d="m32 45.2c6.509 0 9.474-1.674 14.015-5.578 1.606-1.38 3.409-3.425 5.635-5.289l-1.248-2.745s.318-2.165.525-3.267c.319-1.698.562-6.034.562-6.034-9.633 0-12.578-.985-13.984-2.122-1.799-1.455-2.898-2.965-5.505-2.965s-3.706 1.51-5.505 2.965c-1.407 1.137-4.351 2.122-13.984 2.122 0 0 .243 4.336.562 6.034.207 1.103.525 3.267.525 3.267l-1.248 2.745c2.491 2.086 4.452 4.291 6.2 5.771 4.232 3.583 7.215 5.096 13.45 5.096z" fill="#fff"/><path d="m61.934 23.84c-.227-2.692-1.891-4.526-4.343-4.788-1.408-.151-3.434.226-5.421 1.484-1.686-.079-11.161.209-13.565-1.732-1.755-1.421-3.294-3.354-6.605-3.354-3.275 0-4.763 1.865-6.605 3.353-2.381 1.924-11.613 1.642-13.565 1.733-1.987-1.258-4.013-1.634-5.42-1.484-2.453.261-4.117 2.096-4.344 4.788-.356 4.229 2.787 9.479 9.428 12.066 2.015 1.72 4.422 4.261 5.925 5.533 4.409 3.734 7.716 5.511 14.581 5.511 6.995 0 10.329-1.852 15.156-6.001 1.406-1.21 3.369-3.338 5.366-5.049 6.63-2.589 9.768-7.834 9.412-12.06zm-57.377.21c.073-.861.444-2.333 2.117-2.511.855-.092 2.467.137 4.115 1.285.072 1.165.286 4.342.563 5.821.141.748.333 1.995.438 2.69l-.749 1.647c-4.996-2.472-6.683-6.563-6.484-8.932zm40.318 14.244c-4.427 3.805-7.037 5.156-12.875 5.156-5.847 0-8.42-1.38-12.319-4.682-1.442-1.222-3.132-3.059-5.197-4.902l.851-1.871 10.82 2.91c.125-.136.216-.487-.29-.767-.444-.246-8.164-4.513-11.07-6.119-.001-.006-.002-.014-.004-.021-.159-.848-.31-2.56-.414-3.975 8.496-.121 11.473-1.089 13.216-2.498 1.839-1.484 2.542-2.575 4.405-2.575 1.859 0 2.553 1.078 4.405 2.576 1.743 1.408 4.72 2.377 13.216 2.498-.104 1.415-.254 3.126-.414 3.974-.001.007-.003.015-.004.022-2.906 1.606-10.625 5.873-11.07 6.119-.506.28-.415.632-.29.767l10.82-2.91.852 1.875c-1.598 1.444-3.452 3.403-4.638 4.423zm8.083-5.312-.749-1.647c.105-.695.297-1.942.438-2.691.277-1.478.491-4.654.563-5.82 1.65-1.148 3.263-1.377 4.115-1.285 1.673.178 2.044 1.649 2.117 2.511.201 2.369-1.487 6.461-6.484 8.932z"/></svg>