<?xml version="1.0" encoding="utf-8"?>
<!-- Generator: Adobe Illustrator 25.0.0, SVG Export Plug-In . SVG Version: 6.00 Build 0)  -->
<svg version="1.1" xmlns="http://www.w3.org/2000/svg" xmlns:xlink="http://www.w3.org/1999/xlink" x="0px" y="0px"
	 viewBox="0 0 64 64" style="enable-background:new 0 0 64 64;" xml:space="preserve">
<style type="text/css">
	.st0{fill:none;}
	.st1{fill:#FFFFFF;}
</style>
<g id="Box">
	<rect class="st0" width="64" height="64"/>
</g>
<g id="Icon">
	<path class="st1" d="M32,45.2c6.509,0,9.474-1.674,14.015-5.578c1.606-1.38,3.409-3.425,5.635-5.289l-1.248-2.745
		c0,0,0.318-2.165,0.525-3.267c0.319-1.698,0.562-6.034,0.562-6.034c-9.633,0-12.578-0.985-13.984-2.122
		C35.706,18.71,34.607,17.2,32,17.2s-3.706,1.51-5.505,2.965c-1.407,1.137-4.351,2.122-13.984,2.122c0,0,0.243,4.336,0.562,6.034
		c0.207,1.103,0.525,3.267,0.525,3.267l-1.248,2.745c2.491,2.086,4.452,4.291,6.2,5.771C22.782,43.687,25.765,45.2,32,45.2z"/>
	<path d="M61.934,23.84c-0.227-2.692-1.891-4.526-4.343-4.788c-1.408-0.151-3.434,0.226-5.421,1.484
		c-1.686-0.079-11.161,0.209-13.565-1.732C36.85,17.383,35.311,15.45,32,15.45c-3.275,0-4.763,1.865-6.605,3.353
		c-2.381,1.924-11.613,1.642-13.565,1.733c-1.987-1.258-4.013-1.634-5.42-1.484c-2.453,0.261-4.117,2.096-4.344,4.788
		c-0.356,4.229,2.787,9.479,9.428,12.066c2.015,1.72,4.422,4.261,5.925,5.533C21.828,45.173,25.135,46.95,32,46.95
		c6.995,0,10.329-1.852,15.156-6.001c1.406-1.21,3.369-3.338,5.366-5.049C59.152,33.311,62.29,28.066,61.934,23.84z M4.557,24.05
		c0.073-0.861,0.444-2.333,2.117-2.511c0.855-0.092,2.467,0.137,4.115,1.285c0.072,1.165,0.286,4.342,0.563,5.821
		c0.141,0.748,0.333,1.995,0.438,2.69l-0.749,1.647C6.045,30.51,4.358,26.419,4.557,24.05z M44.875,38.294
		C40.448,42.099,37.838,43.45,32,43.45c-5.847,0-8.42-1.38-12.319-4.682c-1.442-1.222-3.132-3.059-5.197-4.902l0.851-1.871
		l10.82,2.91c0.125-0.136,0.216-0.487-0.29-0.767c-0.444-0.246-8.164-4.513-11.07-6.119c-0.001-0.006-0.002-0.014-0.004-0.021
		c-0.159-0.848-0.31-2.56-0.414-3.975c8.496-0.121,11.473-1.089,13.216-2.498c1.839-1.484,2.542-2.575,4.405-2.575
		c1.859,0,2.553,1.078,4.405,2.576c1.743,1.408,4.72,2.377,13.216,2.498c-0.104,1.415-0.254,3.126-0.414,3.974
		c-0.001,0.007-0.003,0.015-0.004,0.022c-2.906,1.606-10.625,5.873-11.07,6.119c-0.506,0.28-0.415,0.632-0.29,0.767l10.82-2.91
		l0.852,1.875C47.915,35.315,46.061,37.274,44.875,38.294z M52.958,32.982l-0.749-1.647c0.105-0.695,0.297-1.942,0.438-2.691
		c0.277-1.478,0.491-4.654,0.563-5.82c1.65-1.148,3.263-1.377,4.115-1.285c1.673,0.178,2.044,1.649,2.117,2.511
		C59.643,26.419,57.955,30.511,52.958,32.982z"/>
</g>
</svg>
