<svg enable-background="new 0 0 64 64" viewBox="0 0 64 64" xmlns="http://www.w3.org/2000/svg"><path d="m0 0h64v64h-64z" fill="none"/><path d="m45.258 29.123c-2.603-2.298-2.873-5.163-3.603-8.557l-2.807-13.035c-.695-3.227-3.547-5.531-6.848-5.531s-6.153 2.304-6.848 5.531l-2.806 13.036c-.731 3.395-1 6.259-3.604 8.557-2.324 2.052-6.331 5.288-6.331 8.531 0 6.57 7.1 7.275 11.261 6.855-.333-3.737-4.465-4.87-5.538-5.412.018-.236.21-.286.552-.25 8.974.961 6.004 8.398 13.314 8.398s4.34-7.437 13.313-8.399c.342-.037.535.013.552.25-1.073.542-5.205 1.675-5.538 5.412 4.161.42 11.261-.286 11.261-6.855.001-3.242-4.006-6.478-6.33-8.531z"/><path d="m28.71 52.242c-.875-1.188-1.78-2.416-2.383-4.081-.347-.96-1.015-1.161-1.515-1.161-.501 0-1.171.201-1.518 1.161-.601 1.659-1.503 2.88-2.375 4.06-.973 1.316-1.892 2.56-2.219 4.198-.298 1.487.097 2.989 1.112 4.227 1.19 1.452 3.106 2.354 5 2.354 1.898 0 3.816-.904 5.007-2.36 1.012-1.238 1.404-2.738 1.103-4.223-.329-1.621-1.244-2.862-2.212-4.175zm-.439 7.132c-.821 1.003-2.146 1.626-3.459 1.626-1.31 0-2.634-.622-3.454-1.622-.444-.542-.926-1.427-.698-2.566.24-1.2.994-2.22 1.867-3.401.76-1.028 1.604-2.17 2.283-3.672.669 1.49 1.523 2.648 2.29 3.689.869 1.18 1.62 2.199 1.861 3.386.231 1.135-.248 2.019-.69 2.56z"/></svg>