<?xml version="1.0" encoding="utf-8"?>
<!-- Generator: Adobe Illustrator 24.0.1, SVG Export Plug-In . SVG Version: 6.00 Build 0)  -->
<svg version="1.1" xmlns="http://www.w3.org/2000/svg" xmlns:xlink="http://www.w3.org/1999/xlink" x="0px" y="0px"
	 viewBox="0 0 64 64" style="enable-background:new 0 0 64 64;" xml:space="preserve">
<style type="text/css">
	.st0{fill:none;}
	.st1{fill:#FF1D25;}
	.st2{fill:#1D1D1B;}
</style>
<g id="Box">
	<rect class="st0" width="64" height="64"/>
</g>
<g id="Icon">
	<g>
		<path d="M39,21H22c-1.7,0-3,1.3-3,3h20V21z"/>
		<path d="M44.4,20c-1.6,0-2.7,0.5-3.4,1.2V24h8C49,21.7,47.6,20,44.4,20z"/>
		<path d="M52,44.8c-2.8,1-6.4,2.4-9.2,3.6c0.1,0.4,0.1,0.9,0,1.4c-0.4,2.8-2.8,4.6-6.2,4.7c-7.7,0.4-12.5-1.6-13.5-2
			c-0.3-0.1-0.3-0.3-0.3-0.4c0,0,0,0,0,0c5.6,1,9.1,1.1,13.5,0.4c3.3-0.5,4.5-2.1,4.5-3.4c0-1.3-0.9-2-3-2.1
			c-6.9-0.2-10.9-1-16.8-1.9c-4.1-0.6-8.1,0.5-11.4,2.6c-3.2,2-4,3-4,3L11.2,62l7.5-3c0.9-0.3,1.8-0.5,2.7-0.3L31.7,61
			c2.3,0.4,4.6-0.1,6.6-1.2l20.5-12.8C58.8,46.9,57.8,42.9,52,44.8z"/>
		<path d="M14,34h2v8h4v-8h28v8h4v-8h2c0.6,0,1-0.4,1-1V15.5c0-1.1-0.9-1.5-2-1.5c-1.1,0-2,0.4-2,1.5V26H17v-6.5
			c0-1.1-0.9-1.5-2-1.5c-1.1,0-2,0.4-2,1.5V33C13,33.5,13.5,34,14,34z"/>
	</g>
</g>
</svg>
