<svg enable-background="new 0 0 64 64" viewBox="0 0 64 64" xmlns="http://www.w3.org/2000/svg"><path d="m0 0h64v64h-64z" fill="none"/><path d="m39 21h-17c-1.7 0-3 1.3-3 3h20z"/><path d="m44.4 20c-1.6 0-2.7.5-3.4 1.2v2.8h8c0-2.3-1.4-4-4.6-4z"/><path d="m52 44.8c-2.8 1-6.4 2.4-9.2 3.6.1.4.1.9 0 1.4-.4 2.8-2.8 4.6-6.2 4.7-7.7.4-12.5-1.6-13.5-2-.3-.1-.3-.3-.3-.4 5.6 1 9.1 1.1 13.5.4 3.3-.5 4.5-2.1 4.5-3.4s-.9-2-3-2.1c-6.9-.2-10.9-1-16.8-1.9-4.1-.6-8.1.5-11.4 2.6-3.2 2-4 3-4 3l5.6 11.3 7.5-3c.9-.3 1.8-.5 2.7-.3l10.3 2.3c2.3.4 4.6-.1 6.6-1.2l20.5-12.8c0-.1-1-4.1-6.8-2.2z"/><path d="m14 34h2v8h4v-8h28v8h4v-8h2c.6 0 1-.4 1-1v-17.5c0-1.1-.9-1.5-2-1.5s-2 .4-2 1.5v10.5h-34v-6.5c0-1.1-.9-1.5-2-1.5s-2 .4-2 1.5v13.5c0 .5.5 1 1 1z"/></svg>