<svg height="64" viewBox="0 0 64 64" width="64" xmlns="http://www.w3.org/2000/svg"><path d="m0 0h64v64h-64z" fill="none"/><circle cx="45" cy="41" r="2"/><circle cx="53" cy="41" r="2"/><path d="m37.4716 6.8223c.301-.0266.5468-.1359.7383-.3047.2982 1.1334 1.1563 1.9084 2.5225 2.2085 2.091.4593 3.6219-.7388 4.0853-2.847.5269-2.4011-.4544-3.9666-2.4901-4.4141-2.1448-.4708-3.635.7976-4.1108 2.9645-.097.4418-.1246.847-.1166 1.2316-.0883.0634-.2316.0217-.3322-.2894-.1021-.3156-.2019-.9063-.0508-1.777-.1624-.0497-.3405-.0693-.5346-.0522-.8679.0767-1.2748.8056-1.1885 1.7844.0909 1.0311.6318 1.57 1.4775 1.4954z"/><path d="m52.2301 44.7582c-2.7689.9518-6.3674 2.413-9.2219 3.6126.0738.4329.0837.8924.0119 1.3788-.4145 2.8079-2.82 4.5833-6.2403 4.7415-7.7327.3578-12.5347-1.5576-13.5313-1.9617-.2862-.1161-.318-.2576-.2923-.3882.0016-.0013.0111-.0092.0111-.0092 5.5945.9645 9.1206 1.1223 13.4634.4237 3.295-.53 4.489-2.106 4.4614-3.4058-.027-1.2701-.9268-2.0373-2.952-2.1078-6.8902-.2394-10.9187-1.008-16.8242-1.8687-4.1042-.5981-8.0618.4671-11.4327 2.6265-3.1634 2.0265-4.0402 2.9853-4.0402 2.9853l5.7856 11.1429 7.4819-3.0415c.8526-.3467 1.7844-.4512 2.6926-.3022l10.2607 2.283c2.2892.3758 4.6379-.0562 6.6438-1.2219l20.4795-12.846c.0001.0001-1.0043-4.0189-6.757-2.0413z"/><path d="m22.2022 7.8798c2.0046.1976 3.3047-1.068 3.5066-3.0556.23-2.2637-.8591-3.5972-2.8114-3.7898-2.0566-.2027-3.3102 1.1233-3.5175 3.1661-.2189 2.153.8181 3.4815 2.8223 3.6793z"/><path d="m20.1183 31.9094c-.4835.1112-1.308.2322-2.2857.1964-.096.4698-.2017.8798-.3308 1.3847-.5598 2.121-1.1753 4.17-1.4536 5.8283-.3009 1.7922.8692 3.4006 1.8266 3.6812 1.203-3.802 1.9036-5.8339 2.5813-7.7978.2362 1.9669.4133 3.7083.5135 4.3724.3484 2.308 2.073 3.472 3.0304 3.399 0 0-.1343-5.4563-.2686-10.9126-.008-.3943-.016-.7844-.0241-1.1766 1.268-.3176 2.2188-.8082 2.2188-.8082-.3396-4.4151-1.279-6.446-1.8678-8.3166.2305-2.2749.3908-4.7153.4115-6.6509.5503 1.1495 1.3155 2.5429 2.1606 3.504 1.074 1.2214 2.0659 2.3214 3.0297 3.3214 1.3641 1.4152 2.5223 1.1493 3.2099.739-.4937-.8078-4.5692-6.1009-4.863-6.6084-2.2108-3.7129-2.6616-6.2843-5.077-6.7739-1.0494-.2128-2.2406-.2731-3.1262.4016-1.1944.9101-1.721 2.5457-1.6153 4.7692.1407 2.9635.8066 3.7529-.0844 5.8318-.5707 1.3316-.8639 2.0224-1.2853 3.6105-.3984 1.5017-.8136 2.5582-1.6577 5.7196.7379.5477 2.6643 1.5223 5.6243 1.5574.0937.1973-.0258.5811-.6671.7285z"/><path d="m34.4526 22.386c.2681.4396.1264 1.0134-.3156 1.2776l-.4974.2973c-1.618.9633-3.4977.6232-5.0447-.9728l-1.2167 10.4307c.4637.1885.9814.2721 1.5326.3082 0 0 .0498 4.6108.0756 5.6431.0662 2.6564 2.141 3.4257 2.7522 3.598.0258-.3155.3917-6.6769.584-9.4382.8004-.0898 1.6497-.1791 2.5445-.2272.36 1.6402 1.3115 5.9766 1.4862 6.8066.4292 2.0397 1.922 3.021 3.5887 2.8766 0 0-.6348-6.3251-.9554-9.4701.3641.0648.7324.1412 1.1064.2376 0 0-.5719-6.3462-2.7518-10.9205.7116-1.6367 1.5023-3.4581 2.2231-5.1201.0449.2352.0842.4662.1398.709.3083 1.2153.5259 1.8469 1.646 3.3286 1.5731 2.0807 2.7573 3.5665 4.0431 2.1434h.8098c.4572 0 .5783.154.6626.3622l1.2591 4.8393-3.0726 7.6697c-.2179.5438.1139.9708.6577 1.1887.5433.2178 1.0942.1432 1.3118-.4001l2.003-4.9998.9544 3.632c.007.0262.0148.0528.0238.0787.369 1.0705 1.324 1.7355 2.4921 1.7355h1.4025c.8508 0 1.4311-.3734 1.6694-.9612.1657-.4088.1334-.8742-.431-.9835-.2347-.0455-.4683-.0472-.8714-.0527-.0083-.0003-.0161-.0026-.0245-.0026h-1.745c-.3141 0-.4225-.2626-.4758-.3969l-3.1157-11.9391c-.009-.0345-.02-.0691-.0325-.1028-.4291-1.1533-1.3769-1.7885-2.6679-1.7885h-1.7652c-1.0058-1.7453-1.1828-2.077-1.4922-2.7399-.2084-.4553-.2303-.4669-.3882-1.2355-.2944-1.4662-.4269-3.4703-.6096-5.1016-.2319-2.0701-3.633-3.9531-5.9161-3.2302-2.4235.7673-4.4763 4.557-5.7172 7.2253.354.4743 4.1381 5.6952 4.1381 5.6952z"/></svg>