<svg height="64" viewBox="0 0 64 64" width="64" xmlns="http://www.w3.org/2000/svg"><path d="m0 0h64v64h-64z" fill="none"/><path d="m19.9515 49.2839c-5.6559 0-10.2411-4.5853-10.2411-10.2411 0-2.5809.962-4.9321 2.5375-6.7332-1.0097-1.7227-.9154-3.1456-.8755-4.1456-3.2154 2.5392-5.2861 6.4638-5.2861 10.8788 0 7.6572 6.208 13.8652 13.8652 13.8652 3.4634 0 6.6199-1.2812 9.0485-3.3821v-5.705c-1.7162 3.247-5.1203 5.463-9.0485 5.463z"/><path d="m34.0654 30.5749c-.7188-1.7063-1.3081-2.163-2.6011-2.7279-1.9307-.765-5.6038-1.5664-7.646-1.9897.9149-9.0231 1.6123-11.7778.3606-13.0656-1.7218-1.7713-4.6272-2.183-6.6089-1.1909-.9562.3244-5.6505 2.8475-8.0152 5.267-.7958.8716-1.0735 1.2747-1.4074 1.9894-1.1965 2.5844-2.3422 7.266-3.0174 10.0326 2.5789.6387 3.918-1.616 4.2852-2.3646.717-1.6232 1.5533-4.0105 2.4854-5.5208.5348-1.011 1.8441-1.7542 2.869-2.3521-.6701 3.691-.752 7.9141-.7358 10.35.0219 3.3468 2.8906 4.7811 5.6397 4.7811s9.4653-.0057 9.5415 0c.4324 1.3785 1.0261 3.0742 1.6318 4.752 1.1075-1.3912 2.6762-2.5859 4.5974-3.5217-.4858-1.8047-.9604-3.3888-1.3788-4.4388z"/><path d="m23.3019 10.0003c2.8423.4567 4.8054-1.2802 5.2631-4.1619.5219-3.2833-.9174-5.32-3.6854-5.7654-2.9159-.4688-4.8176 1.3605-5.2884 4.3226-.4967 3.1217.8692 5.1471 3.7107 5.6047z"/><path d="m46.0012 55c7.8499 0 13.9988-3.3747 13.9988-7.6786 0-.6324 0-3.0202 0-3.6548 0-4.2993-6.1489-7.6666-13.9988-7.6666-7.852 0-14.0012 3.3673-14.0012 7.6666v3.6548c0 .9493.3142 1.8492.865 2.6819-.553.8255-.865 1.7191-.865 2.6633v3.6548c0 4.3039 6.1492 7.6786 14.0012 7.6786 7.8499 0 13.9988-3.3747 13.9988-7.6786v-3.6548c0-.2049-.0266-.4056-.0542-.606-.7144.8958-4.5718 5.1376-13.6127 5.1376-8.0173 0-10.7806-3.8577-11.0668-4.3807-.1169-.2137-.2019-.4362-.0765-.5667 2.5482 1.6889 6.4118 2.7492 10.8114 2.7492zm-11.3-11c0-2.8444 5.0601-5.15 11.302-5.15s11.302 2.3057 11.302 5.15-5.0601 5.15-11.302 5.15-11.302-2.3057-11.302-5.15z"/><path d="m43.8542 45.7261v.6766h1.5551v-.5565c.3053.0191.6703.0191 1.016.0191h.384v.5374h1.5168v-.6166c2.7834-.2999 4.1094-1.2643 4.1094-2.6701 0-.5469-.0571-.7845-.3076-1.3435h-2.0559c.2123.5182.2886.7773.2886 1.2546 0 .6166-.5938 1.1155-2.0344 1.334v-1.7634h-1.5168v1.8928c-.1907.0096-.384.0193-.6128.0193-.2697 0-.52-.0098-.7872-.0193v-1.8928h-1.5551v1.7538c-1.4023-.2089-2.1322-.6575-2.1322-1.3748 0-.4078.0763-.6454.2479-1.1539h-2.168c-.174.4269-.2312.7269-.2312 1.1226 0 1.4157 1.4404 2.4208 4.2834 2.7807z"/></svg>