<?xml version="1.0" encoding="utf-8"?>
<!-- Generator: Adobe Illustrator 17.1.0, SVG Export Plug-In . SVG Version: 6.00 Build 0)  -->
<svg version="1.2" baseProfile="tiny" xmlns="http://www.w3.org/2000/svg" xmlns:xlink="http://www.w3.org/1999/xlink" x="0px"
	 y="0px" width="64px" height="64px" viewBox="0 0 64 64" xml:space="preserve">
<g id="_x36_4px_Box">
	<rect fill="none" width="64" height="64"/>
</g>
<g id="Label" display="none">
</g>
<g id="Production">
	<g>
		<path d="M42.8985,11.795c3.0191,0.6631,5.2295-1.0668,5.8986-4.1107c0.7607-3.4667-0.6561-5.727-3.5953-6.3731
			c-3.0968-0.6799-5.2484,1.1516-5.9354,4.2803C38.5425,8.8877,39.8806,11.132,42.8985,11.795z"/>
		<path d="M48.9077,26.4533c-0.6946-1.6896-1.6265-8.037-2.3777-9.7803c-0.7589-1.7609-5.9362-4.5068-9.4987-4.663
			c-1.8873-0.0828-8.5353,0.5858-10.7514,2.8068c-0.7343,0.7837-1.046,1.8517-1.0421,2.8517
			c-0.0723,3.1351,2.6454,7.8903,4.3214,10.5385c-1.3737,4.5952-1.071,4.9882,0.1417,8.9435
			c0.7563,11.1848,0.6753,9.7691,0.6861,10.5375c-0.0353,2.6564-0.2916,6.3513-0.3835,9.9275
			c-0.1071,4.1657,3.0477,4.9882,3.7765,5.1218c0.6097-3.5014,1.8864-11.145,2.2241-14.6511
			c-0.8336-1.9874-2.546-6.0866-3.381-8.2071c-0.0781-0.1982-0.0742-0.348-0.051-0.473c0.5518,0.7791,4.0935,5.8961,4.301,6.828
			c0.6407,2.2643,1.6203,8.147,2.5592,12.1453c1.0853,4.6215,5.3352,4.2031,5.519,4.1829
			c-0.3843-4.3127-0.843-11.8065-1.3512-16.1318c-0.2663-2.206-0.3801-2.4384-0.7275-3.6258
			c-0.903-2.8093-2.5458-6.4132-3.812-9.0765c0.9324-3.9377,2.7423-8.2186,4.2925-11.4703c0.3687,1.6974,1.039,4.2772,1.7415,5.8518
			c0.5402,1.3145,2.4308,3.982,3.0803,4.9823c2.2661,3.4902,5.5023,2.4109,5.5272,2.4025
			C51.9033,32.0403,49.4294,27.8082,48.9077,26.4533z M30.9101,23.6464c-0.56-1.3624-1.5765-3.5785-1.6214-5.9127
			c1.1021-0.4512,3.2368-0.7968,4.2728-0.8736C32.4478,18.9717,31.5806,21.4695,30.9101,23.6464z"/>
		<polygon points="11.9673,22.6908 23.7488,25.9329 17.2592,21.7003 21.267,17.7107 9.4855,14.4686 15.9752,18.7013 		"/>
		<polygon points="16.2509,28.4438 6.6151,35.9582 13.8855,33.28 14.6924,38.8771 24.3282,31.3627 17.0578,34.0409 		"/>
	</g>
</g>
</svg>
