<svg height="64" viewBox="0 0 64 64" width="64" xmlns="http://www.w3.org/2000/svg"><path d="m0 0h64v64h-64z" fill="none"/><path d="m38 12.8546c3.1358 0 4.95-2.1782 4.95-5.3125 0-3.5723-1.8964-5.4876-4.95-5.4876-3.217 0-4.95 2.2643-4.95 5.4876 0 3.3963 1.8147 5.3125 4.95 5.3125z"/><path d="m44 36.0892v-14.0892s.2523-.0845.4494.3306c1.7422 3.6694 2.8482 16.21 2.8482 16.21 1.3462 0 3.0636-.3984 3.3031-3.4814 0-8.7098-1.2043-18.8373-7.5764-20.357-4.709-1.123-10.0909-.9688-13.2294 2.1364-.7049.6974-3.7936 4.4323-4.7615 4.6481-2.3777.53-7.435.0185-10.8132-.3488-.0724 2.1093 1.4923 3.5659 3.4171 3.9954 1.7324.3866 3.7594.6837 5.5437.8109 2.8336.1852 3.6891-.0835 5.2-.897.8043-.4395 1.709-1.1516 2.619-1.9662v13.0537l-8.4 25.3859s5.2672 2.0754 7.0729-2.6992c1.8347-4.8514 7.0066-17.777 7.1779-18.1422.1308-.2789.3459-.4932.6514-.4932.2988 0 .5324.2023.6635.4963.1544.3465 5.2586 13.4017 7.1766 18.1697 1.905 4.7359 7.0729 2.6992 7.0729 2.6992z"/><path d="m18.4214 18.9103c8.7844-4.5513 9.0343-12.7259 5.2864-14.3735-3.8-1.6705-5.6578 1.9211-5.6578 1.9211s-1.8578-3.5916-5.6577-1.9211c-3.748 1.6476-3.4981 9.8223 5.2863 14.3735.2308.1196.512.1196.7428 0z"/></svg>