<?xml version="1.0" encoding="utf-8"?>
<!-- Generator: Adobe Illustrator 19.1.0, SVG Export Plug-In . SVG Version: 6.00 Build 0)  -->
<svg version="1.2" baseProfile="tiny" xmlns="http://www.w3.org/2000/svg" xmlns:xlink="http://www.w3.org/1999/xlink" x="0px"
	 y="0px" width="64px" height="64px" viewBox="0 0 64 64" xml:space="preserve">
<g id="Box">
	<rect fill="none" width="64" height="64"/>
</g>
<g id="Icon">
	<g>
		<path d="M38,12.8546c3.1358,0,4.95-2.1782,4.95-5.3125c0-3.5723-1.8964-5.4876-4.95-5.4876c-3.217,0-4.95,2.2643-4.95,5.4876
			C33.05,10.9384,34.8647,12.8546,38,12.8546z"/>
		<path d="M44,36.0892V22c0,0,0.2523-0.0845,0.4494,0.3306c1.7422,3.6694,2.8482,16.21,2.8482,16.21
			c1.3462,0,3.0636-0.3984,3.3031-3.4814c0-8.7098-1.2043-18.8373-7.5764-20.357c-4.709-1.123-10.0909-0.9688-13.2294,2.1364
			c-0.7049,0.6974-3.7936,4.4323-4.7615,4.6481c-2.3777,0.53-7.435,0.0185-10.8132-0.3488
			c-0.0724,2.1093,1.4923,3.5659,3.4171,3.9954c1.7324,0.3866,3.7594,0.6837,5.5437,0.8109c2.8336,0.1852,3.6891-0.0835,5.2-0.897
			c0.8043-0.4395,1.709-1.1516,2.619-1.9662v13.0537l-8.4,25.3859c0,0,5.2672,2.0754,7.0729-2.6992
			c1.8347-4.8514,7.0066-17.777,7.1779-18.1422c0.1308-0.2789,0.3459-0.4932,0.6514-0.4932c0.2988,0,0.5324,0.2023,0.6635,0.4963
			c0.1544,0.3465,5.2586,13.4017,7.1766,18.1697c1.905,4.7359,7.0729,2.6992,7.0729,2.6992L44,36.0892z"/>
		<path d="M18.4214,18.9103c8.7844-4.5513,9.0343-12.7259,5.2864-14.3735c-3.8-1.6705-5.6578,1.9211-5.6578,1.9211
			s-1.8578-3.5916-5.6577-1.9211c-3.748,1.6476-3.4981,9.8223,5.2863,14.3735C17.9094,19.0299,18.1906,19.0299,18.4214,18.9103z"/>
	</g>
</g>
</svg>
