<svg enable-background="new 0 0 64 64" viewBox="0 0 64 64" xmlns="http://www.w3.org/2000/svg"><path d="m0 0h64v64h-64z" fill="none"/><path d="m60.691 52.47c-.751-.791-2.248-1.653-3.894-2.448-2.156-1.066-4.564-2.01-5.848-2.49-.491-.184-.802-.635-.889-1.152-.108-.642-.229-1.594-.323-2.396 3.25-.132 5.939-.453 7.057-.878.221-.084.333-.287.234-.502-.612-1.334-2.201-5.723-2.401-8.016-.491-5.626-.47-15.694-8.178-13.168 0 0-4.895-3.127-8.87 2.105-2.797 3.681-2.115 8.534-2.228 11.241-.08 1.925-1.655 6.37-2.318 7.521-.141.245-.093.493.173.59 1.2.435 3.901.773 7.077.974-.063.573-.145 1.242-.238 1.843h-.003c-.013.091-.025.166-.038.253-.025.149-.05.3-.076.434-.101.515-.398.968-.889 1.152-.539.202-1.283.489-2.117.829.002.001.003.001.005.002-1.15.469-2.477 1.042-3.725 1.659-1.646.794-3.142 1.656-3.894 2.448-2.201 2.317-2.308 9.529-2.308 9.529h36s-.107-7.212-2.309-9.53z"/><path d="m33.862 22.721c.081-.13.108-.277.083-.417l-.03-.105-.005.003-1.845-6.511s.115-.105.227.057l2.123 2.943c.428-.048.838-.103 1.213-.167.992-.17 1.746-.943 1.911-1.96.478-2.94.478-5.577.478-6.556s0-3.616-.478-6.557c-.165-1.017-.919-1.791-1.911-1.96-2.867-.491-7.645-.491-8.6-.491s-5.733 0-8.6.49c-.991.169-1.746.943-1.911 1.96-.478 2.941-.478 3.615-.478 6.557 0 .98 0 3.616.478 6.556.165 1.017.919 1.791 1.911 1.96 2.607.445 6.784.486 8.24.489l6.372 3.893c.279.179.647.096.822-.184z"/><path d="m22.636 32.225c-.099-.437.064-1.245 0-1.614-.323-1.866-1.267-3.93-1.267-3.93 1.021-1.948.523-3.479-1.015-4.468-1.751-1.126-8.121-1.241-12.769 1.286-4.903 2.666-4.372 7.434-3.547 9.929.96 2.903 3.83 7.018 4.029 10.121.052.803-.277 2.555-.554 3.858-.605.272-1.202.596-1.78.994-3.21 2.208-3.733 5.484-3.733 9.599h22c-.717-3.77-1.998-5.926-3.442-7.676-.72-.873-1.617-1.624-2.623-2.234l-.045-1.991-2.638-1.328c-.204-.111-.145-.246-.123-.282 0 0 4.005.902 5.555 1.106 1.555.204 3.046-1.119 3.046-3.007 0-2.072 0-4.676 0-4.676l1.615-.856c.462-.299.593-.916.292-1.376zm-2.524-.628c-.552 1.072-2.196 1.453-5.6 1.88-2.935.368-3.456 1.477-3.697 3.902h-1.56c-.049-.757.038-1.616.038-1.616-1.372.064-1.873-.625-2.214-1.63-.077-.226-.241-.408-.456-.512-.384-.186-.98-.58-1.204-1.302-.341-1.101-.139-1.614.372-2.459.16-.264.079-1.135.161-1.604.121-.689.549-1.114 1.139-1.411.624-.315 1.12-.259 1.579-.489.458-.23.66-1.185 1.458-1.479 1.068-.394 1.837-.099 2.526-.109.698-.011 1.504-.757 2.431-.713.835.04 1.375.826 1.807 1.088.432.263 1.227.162 1.769.504 1.61 1.015.679 2.35 1.015 3.02.319.639 1.084 1.671.436 2.93z"/></svg>