<svg enable-background="new 0 0 64 64" viewBox="0 0 64 64" xmlns="http://www.w3.org/2000/svg"><path d="m0 0h64v64h-64z" fill="none"/><path d="m32.039 44c3.362 0 4.936-.947 7.431-2.879.889-.688 1.902-1.507 3.162-2.46.035-.027.051-.074.035-.116l-.522-1.395s.28-1.181.45-1.792c.266-.954.636-3.462.636-3.462-5.532 0-7.203-.584-7.997-1.266-1.028-.884-1.658-1.919-3.195-1.919s-2.166 1.035-3.195 1.919c-.794.682-2.465 1.266-7.997 1.266 0 0 .37 2.508.636 3.462.17.611.45 1.792.45 1.792l-.522 1.395c-.015.041 0 .089.035.116 1.41 1.068 2.512 1.966 3.477 2.703 2.316 1.768 3.895 2.636 7.116 2.636z" fill="#fff"/><path d="m39.885 43.05c-.024-.18-.054-.388-.087-.61 1.386-1.052 2.004-1.583 3.583-2.779.478-.358.665-.999.456-1.554l-.388-1.037c.419-1.729.456-1.561.807-3.658.822-.871 1.407-2.034 1.615-3.378.289-1.865-.203-3.625-1.215-4.887.263-10.676-3.408-14.137-3.408-14.137.779-1.57 2.468-2.694 2.468-2.694-5.26-.956-7.988 1.396-7.988 1.396-4.805-3.55-11.495-2.321-11.495-2.321 1.299 1.297 1.883 2.662 1.883 2.662-8.702 3.823-8.248 9.831-8.248 9.831s1.299-1.024 2.013-1.229c0 0-.659 2.978-.536 6.4-1.064 1.268-1.589 3.068-1.294 4.979.223 1.443.882 2.681 1.802 3.57.325 1.906.356 1.74.775 3.466l-.387 1.034c-.21.558-.023 1.198.45 1.553 1.562 1.182 2.297 1.8 3.444 2.677-.042.282-.079.54-.108.759-8.007 2.405-11.911 8.562-11.911 15.907h39.846c-.001-7.394-3.96-13.581-12.077-15.95zm-17.159-16.748c.451-.086.897.017 1.292.263 0-.78.044-1.579.132-2.375 3.112-.636 5.215-1.916 5.215-1.916-.195 1.707-1.234 3.677-1.234 3.677 4.611-.546 7.533-5.383 7.533-5.383.584 2.389 2.078 3.959 2.078 3.959.588-1.171 1.202-1.884 1.687-2.318.338 1.43.478 2.937.478 4.356.395-.247.842-.349 1.292-.263 1.194.228 1.953 1.694 1.709 3.275-.059.38-.194.734-.362 1.063-3.599-.036-5.796-.356-6.497-.957-.959-.825-1.91-2.221-4.009-2.221-2.09 0-3.034 1.382-4.009 2.221-.71.61-2.958.93-6.65.959-.167-.329-.303-.683-.362-1.065-.247-1.581.513-3.047 1.707-3.275zm9.232 22.827c-2.951 0-5.094-1.799-5.094-4.277 0-.108.025-.359.064-.691 1.451.731 2.968 1.088 5.109 1.088 2.106 0 3.622-.382 4.969-1.03.033.311.045.51.045.632.001 2.48-2.141 4.278-5.093 4.278zm6.746-8.996c-2.351 1.819-3.692 2.617-6.666 2.617-2.92 0-4.238-.762-6.357-2.38-.775-.591-1.736-1.366-2.8-2.186l.356-.952-.001-.004 4.923 1.307c.039-.045.155-.222-.106-.429-.201-.159-3.766-2.252-5.396-3.206-.106-.421-.235-1.109-.347-1.77 4.671-.1 6.351-.696 7.349-1.553 1.144-.983 1.435-1.617 2.38-1.617.951 0 1.307.695 2.38 1.617.999.857 2.678 1.454 7.349 1.553-.112.66-.241 1.349-.347 1.77-1.629.954-5.195 3.047-5.396 3.206-.261.207-.146.383-.106.429l4.923-1.308-.001.003.356.952c-.924.713-1.831 1.439-2.493 1.951z"/></svg>