<svg enable-background="new 0 0 64 64" viewBox="0 0 64 64" xmlns="http://www.w3.org/2000/svg"><path d="m0 0h64v64h-64z" fill="none"/><path d="m2 36v8c0 1.1.9 2 2 2h49v-3h-33v-6h33v-3h-49c-1.1 0-2 .9-2 2z"/><path d="m58.2 26c.8-2.2 3.5-2.2 4.3-5 .7-2.3-.6-4.5-2.8-5.6 0 0 .9 1.8.4 3.5-.8 2.6-3.8 2.9-4.7 5.5s.5 5.2 3.8 5.9c0 .2-1.7-2.3-1-4.3z"/><path d="m55.5 16.4c.8-2.2 3.5-2.2 4.3-5 .7-2.3-.6-4.5-2.8-5.6 0 0 .9 1.8.4 3.5-.8 2.6-3.8 2.9-4.7 5.5s.5 5.2 3.8 5.9c0 .2-1.7-2.3-1-4.3z"/><path d="m55 34h3v12h-3z"/><path d="m62 34h-2v12h2c.6 0 1-.4 1-1v-10c0-.6-.4-1-1-1z"/></svg>