<?xml version="1.0" encoding="utf-8"?>
<!-- Generator: Adobe Illustrator 25.0.0, SVG Export Plug-In . SVG Version: 6.00 Build 0)  -->
<svg version="1.1" xmlns="http://www.w3.org/2000/svg" xmlns:xlink="http://www.w3.org/1999/xlink" x="0px" y="0px"
	 viewBox="0 0 64 64" style="enable-background:new 0 0 64 64;" xml:space="preserve">
<style type="text/css">
	.st0{fill:none;}
	.st1{fill:#FFFFFF;}
</style>
<g id="Box">
	<rect class="st0" width="64" height="64"/>
</g>
<g id="Icon">
	<g>
		<path d="M29.248,45.222l-0.401-0.817l0.004-0.011c-0.141-0.294-0.316-0.657-0.515-1.071c-0.878-1.826-2.177-4.529-3.207-6.678
			c-0.418,1.241-0.703,2.084-0.738,2.173c-0.143,0.369-0.528,0.587-0.896,0.441c-0.004-0.002-0.009-0.003-0.013-0.005
			c-0.329-0.13-0.513-0.48-0.417-0.82c0.034-0.121,0.466-1.716,1.055-3.897c-0.304-0.636-0.52-1.091-0.59-1.244
			c-0.894-1.948-0.098-4.235,1.815-5.21c0.183-0.093,0.379-0.153,0.574-0.216c0.148-0.548,0.292-1.086,0.433-1.606
			c-0.195-0.398-0.329-0.677-0.383-0.795c-0.941-2.051-0.135-4.442,1.825-5.532c-0.161-0.713-0.681-1.321-1.426-1.547l-0.005-0.001
			c-1.075-0.325-2.215,0.255-2.583,1.316c-0.368,1.061-5.248,17.194-5.386,17.596c-0.109,0.317-0.417,0.523-0.749,0.478
			c-0.006-0.001-0.012-0.002-0.017-0.002c-0.41-0.055-0.651-0.452-0.564-0.857c0.116-0.537,3.513-14.396,3.765-15.541
			c0.242-1.096-0.345-2.201-1.419-2.526l-0.005-0.001c-1.074-0.326-2.229,0.25-2.583,1.316c-0.409,1.232-6.476,21.401-6.477,21.401
			c5.9,2.78,7.256,7.026,7.256,7.026c0.125,0.308-0.005,0.434-0.06,0.474c0,0-2.194-3.33-5.808-4.967
			c-2.274-1.03-2.828-0.723-3.83-3.118c-0.916-2.188-1.533-4.567-2.941-6.854c-1.235-2.005-2.585-2.359-3.426-1.99
			c-0.821,0.36-1.374,1.312-0.781,3.202c2.734,8.714,1.539,14.907,5.604,21.209c3.879,6.014,15.207,9.18,21.804,2.58
			c1.671-1.672,2.793-4.649,3.864-8.224c-0.556-1.097-1.115-2.248-1.692-3.443C29.982,46.729,29.62,45.98,29.248,45.222z"/>
		<path d="M60.652,25.969c-0.892-0.215-2.159,0.37-3.022,2.562c-0.984,2.499-1.173,4.95-1.689,7.264
			c-0.565,2.534-1.164,2.329-3.221,3.744c-3.269,2.247-4.843,5.912-4.843,5.912c-0.06-0.029-0.211-0.131-0.142-0.456
			c0,0,0.587-4.419,5.906-8.194c0-0.001-9.523-18.786-10.143-19.927c-0.536-0.987-1.774-1.35-2.774-0.841l-0.004,0.002
			c-1,0.509-1.383,1.7-0.952,2.737c0.45,1.082,6.234,14.127,6.442,14.635c0.157,0.383-0.01,0.817-0.405,0.943
			c-0.005,0.002-0.011,0.004-0.017,0.005c-0.319,0.102-0.658-0.046-0.821-0.339c-0.207-0.371-7.85-15.394-8.399-16.373
			c-0.549-0.979-1.773-1.35-2.774-0.841l-0.005,0.002c-1,0.509-1.42,1.717-0.952,2.737c0.468,1.02,7.553,16.048,7.731,16.415
			c0.154,0.318,0.034,0.695-0.266,0.881c-0.004,0.003-0.008,0.005-0.012,0.008c-0.336,0.208-0.754,0.061-0.959-0.277
			c-0.208-0.342-7.084-12.937-7.633-13.916c-0.549-0.979-1.773-1.35-2.774-0.841l-0.004,0.002c-1,0.509-1.42,1.717-0.952,2.737
			c0.468,1.02,7.654,15.478,7.767,15.716s0.076,0.515-0.087,0.722c-0.003,0.004-0.006,0.008-0.009,0.012
			c-0.305,0.39-0.884,0.305-1.139-0.119c-0.26-0.43-5.328-9.287-5.795-10.121s-1.51-1.15-2.362-0.716l-0.004,0.002
			c-0.852,0.434-1.209,1.462-0.811,2.33s5.694,11.873,5.693,11.876c2.798,5.692,5.023,10.921,7.969,12.974
			c7.656,5.336,18.249,0.226,21.009-6.378c2.892-6.919,0.625-12.805,1.783-21.865C62.235,27.018,61.523,26.179,60.652,25.969z"/>
		<path d="M10.548,20.486l0.603,1.808l0.603-1.808c1.037-3.111,3.478-5.552,6.589-6.589l1.808-0.603l-1.808-0.603
			c-3.111-1.037-5.552-3.478-6.589-6.589L11.15,4.294l-0.603,1.808c-1.037,3.111-3.479,5.552-6.59,6.589L2.15,13.294l1.808,0.603
			C7.069,14.934,9.51,17.375,10.548,20.486z"/>
		<path d="M31.361,9.68l0.495,1.484L32.35,9.68c0.545-1.636,1.829-2.92,3.465-3.465l1.484-0.495l-1.484-0.495
			c-1.636-0.545-2.92-1.829-3.465-3.465l-0.495-1.484l-0.495,1.484c-0.545,1.636-1.829,2.92-3.465,3.465l-1.484,0.495l1.484,0.495
			C29.532,6.761,30.815,8.044,31.361,9.68z"/>
		<path d="M52.601,18.905l0.605,1.817l0.606-1.817c0.667-2.003,2.239-3.574,4.242-4.242l1.817-0.606l-1.817-0.606
			c-2.003-0.668-3.574-2.239-4.242-4.242l-0.606-1.817L52.601,9.21c-0.667,2.003-2.239,3.574-4.242,4.242l-1.816,0.606l1.816,0.606
			C50.362,15.33,51.934,16.902,52.601,18.905z"/>
	</g>
</g>
</svg>
