<svg enable-background="new 0 0 64 64" viewBox="0 0 64 64" xmlns="http://www.w3.org/2000/svg"><path d="m0 0h64v64h-64z" fill="none"/><path d="m29.248 45.222-.401-.817.004-.011c-.141-.294-.316-.657-.515-1.071-.878-1.826-2.177-4.529-3.207-6.678-.418 1.241-.703 2.084-.738 2.173-.143.369-.528.587-.896.441-.004-.002-.009-.003-.013-.005-.329-.13-.513-.48-.417-.82.034-.121.466-1.716 1.055-3.897-.304-.636-.52-1.091-.59-1.244-.894-1.948-.098-4.235 1.815-5.21.183-.093.379-.153.574-.216.148-.548.292-1.086.433-1.606-.195-.398-.329-.677-.383-.795-.941-2.051-.135-4.442 1.825-5.532-.161-.713-.681-1.321-1.426-1.547l-.005-.001c-1.075-.325-2.215.255-2.583 1.316s-5.248 17.194-5.386 17.596c-.109.317-.417.523-.749.478-.006-.001-.012-.002-.017-.002-.41-.055-.651-.452-.564-.857.116-.537 3.513-14.396 3.765-15.541.242-1.096-.345-2.201-1.419-2.526l-.005-.001c-1.074-.326-2.229.25-2.583 1.316-.409 1.232-6.476 21.401-6.477 21.401 5.9 2.78 7.256 7.026 7.256 7.026.125.308-.005.434-.06.474 0 0-2.194-3.33-5.808-4.967-2.274-1.03-2.828-.723-3.83-3.118-.916-2.188-1.533-4.567-2.941-6.854-1.235-2.005-2.585-2.359-3.426-1.99-.821.36-1.374 1.312-.781 3.202 2.734 8.714 1.539 14.907 5.604 21.209 3.879 6.014 15.207 9.18 21.804 2.58 1.671-1.672 2.793-4.649 3.864-8.224-.556-1.097-1.115-2.248-1.692-3.443-.353-.732-.715-1.481-1.087-2.239z"/><path d="m60.652 25.969c-.892-.215-2.159.37-3.022 2.562-.984 2.499-1.173 4.95-1.689 7.264-.565 2.534-1.164 2.329-3.221 3.744-3.269 2.247-4.843 5.912-4.843 5.912-.06-.029-.211-.131-.142-.456 0 0 .587-4.419 5.906-8.194 0-.001-9.523-18.786-10.143-19.927-.536-.987-1.774-1.35-2.774-.841l-.004.002c-1 .509-1.383 1.7-.952 2.737.45 1.082 6.234 14.127 6.442 14.635.157.383-.01.817-.405.943-.005.002-.011.004-.017.005-.319.102-.658-.046-.821-.339-.207-.371-7.85-15.394-8.399-16.373s-1.773-1.35-2.774-.841l-.005.002c-1 .509-1.42 1.717-.952 2.737s7.553 16.048 7.731 16.415c.154.318.034.695-.266.881-.004.003-.008.005-.012.008-.336.208-.754.061-.959-.277-.208-.342-7.084-12.937-7.633-13.916s-1.773-1.35-2.774-.841l-.004.002c-1 .509-1.42 1.717-.952 2.737s7.654 15.478 7.767 15.716.076.515-.087.722c-.003.004-.006.008-.009.012-.305.39-.884.305-1.139-.119-.26-.43-5.328-9.287-5.795-10.121s-1.51-1.15-2.362-.716l-.004.002c-.852.434-1.209 1.462-.811 2.33s5.694 11.873 5.693 11.876c2.798 5.692 5.023 10.921 7.969 12.974 7.656 5.336 18.249.226 21.009-6.378 2.892-6.919.625-12.805 1.783-21.865.253-1.965-.459-2.804-1.33-3.014z"/><path d="m10.548 20.486.603 1.808.603-1.808c1.037-3.111 3.478-5.552 6.589-6.589l1.808-.603-1.808-.603c-3.111-1.037-5.552-3.478-6.589-6.589l-.604-1.808-.603 1.808c-1.037 3.111-3.479 5.552-6.59 6.589l-1.807.603 1.808.603c3.111 1.037 5.552 3.478 6.59 6.589z"/><path d="m31.361 9.68.495 1.484.494-1.484c.545-1.636 1.829-2.92 3.465-3.465l1.484-.495-1.484-.495c-1.636-.545-2.92-1.829-3.465-3.465l-.495-1.484-.495 1.484c-.545 1.636-1.829 2.92-3.465 3.465l-1.484.495 1.484.495c1.637.546 2.92 1.829 3.466 3.465z"/><path d="m52.601 18.905.605 1.817.606-1.817c.667-2.003 2.239-3.574 4.242-4.242l1.817-.606-1.817-.606c-2.003-.668-3.574-2.239-4.242-4.242l-.606-1.817-.605 1.818c-.667 2.003-2.239 3.574-4.242 4.242l-1.816.606 1.816.606c2.003.666 3.575 2.238 4.242 4.241z"/></svg>