<svg height="64" viewBox="0 0 64 64" width="64" xmlns="http://www.w3.org/2000/svg"><path d="m0 0h64v64h-64z" fill="none"/><path d="m0 0h64v64h-64z" fill="none"/><path d="m29.7421 48.9436c-.4882 1-.7891 2.6823-1.7619 8.0564h3.6917l-.8788-9.9526c-.3775.6405-.7498 1.2941-1.051 1.8962z"/><path d="m25.5735 35.9296c-.1829.5714-.5826 1.6666-.9014 2.1902-.6985 1.1821-1.6973 3.0272-3.2971 4.9494-.0871.1047-.1949.1786-.3052.2455.0089.3897.0168.8758.0193 1.434.0062 1.4685-.0239 3.4272-.0363 5.3857-.0231 2.7342-.0362 5.4637-.048 6.8657h3.8352c.1331-3.9016.1872-5.8194.4478-8.3278.2975-1.6568 2.1859-5.1132 2.9173-6.7836-.7-1.7382-1.723-4.0028-2.6316-5.9591z"/><path d="m60 14h-22.9373c1.3816 1.9832 2.1973 4.3898 2.1973 6.9902 0 .3391-.0237.6724-.0507 1.0045.9266 1.5313 1.4697 3.3206 1.4697 5.2412 0 2.379-.8245 4.5621-2.1953 6.2925.4669-1.1395.7286-2.3849.7286-3.6926 0-2.6056-1.0281-4.9666-2.6929-6.7156.1531-.6864.2405-1.3975.2405-2.1301 0-4.1122-2.5487-7.6223-6.1496-9.0554-1.175-3.3209-4.3337-5.704-8.0567-5.704-2.5071 0-4.7551 1.0852-6.3196 2.8036-.225-.0177-.4505-.0343-.6802-.0343-4.7238 0-8.5538 3.8295-8.5538 8.5538 0 .2806.0156.5575.042.8312-2.8981 1.46-4.8909 4.4543-4.8909 7.9207 0 2.4852 1.0247 4.7288 2.6711 6.3395-.5247 1.1789-.8222 2.4811-.8222 3.8547 0 5.2467 4.2532 9.5001 9.4999 9.5001.4372 0 .8641-.0399 1.2856-.097-1.177 6.9734-2.7855 11.097-2.7855 11.097h7.3621c-.0669-1.4109-.1951-4.1165-.3235-6.8243-.0886-1.9565-.1947-3.9125-.2457-5.3802-.0506-1.4677-.0542-2.4468-.0542-2.4468s.0029-.3457.1119-.561c1.1846-2.3416 2.7726-4.4467 3.3179-5.9619.2959-1.0004-.0579.286.7492-2.691.272-1.0002.9763-5.5718 5.5914-4.111 2.6987.8548 3.8714 3.5693 4.6337 5.2956.5411 1.2449 1.8108 4.0651 2.0117 5.9576.1636 1.5412-.4871 15.467-.4449 16.723h26.2904v-42c0-.5523-.4477-1-1-1zm-34.8766 13.6056c-2.0248.4446-3.5071-.7155-3.9558-2.7569-.0353-.161-.0471-.3086-.0685-.4618-.8634.0555-2.7245.2989-2.8491-.3244-.1966-.9836 5.5648-4.5235 7.1582-4.3075 1.5934.2166 2.149 3.6521 2.149 3.6521l-.0087.0014c.0031.0129.0079.0238.0108.0368.4854 2.2105-.4119 3.7156-2.4359 4.1603zm28.8766 20.3944h-9v-9h9zm0-17h-9v-9h9z"/></svg>