<svg height="64" viewBox="0 0 64 64" width="64" xmlns="http://www.w3.org/2000/svg"><path d="m0 0h64v64h-64z" fill="none"/><path d="m26.5036 8.6433c2.0905 0 3.3-1.4785 3.3-3.6075 0-2.4249-1.264-3.7258-3.3-3.7258-2.1448 0-3.3 1.5376-3.3 3.7258 0 2.3067 1.2103 3.6075 3.3 3.6075z"/><path d="m37.5036 8.6433c2.0905 0 3.3-1.4785 3.3-3.6075 0-2.4249-1.264-3.7258-3.3-3.7258-2.1448 0-3.3 1.5376-3.3 3.7258 0 2.3067 1.2103 3.6075 3.3 3.6075z"/><path d="m52.23 44.7586c-2.7688.9518-6.3674 2.413-9.2219 3.6127.0737.4328.0837.8923.012 1.3787-.4146 2.8079-2.8201 4.5833-6.2402 4.7416-7.7328.3578-12.5348-1.5577-13.5314-1.9618-.2863-.1161-.318-.2576-.2924-.3882.0015-.0012.0112-.0091.0112-.0091 5.5945.9645 9.1205 1.1222 13.4634.4237 3.2949-.53 4.489-2.106 4.4612-3.4058-.027-1.2701-.9266-2.0373-2.9519-2.1077-6.8901-.2395-10.9187-1.0081-16.8242-1.8688-4.1041-.5981-8.0618.4671-11.4326 2.6266-3.1633 2.0265-4.0403 2.9852-4.0403 2.9852l5.7858 11.1429 7.4819-3.0415c.8527-.3466 1.7843-.4511 2.6925-.3021l10.2607 2.283c2.2893.3757 4.6379-.0563 6.6438-1.2219l20.4795-12.8461s-1.0043-4.019-6.7571-2.0414z"/><path d="m21 27.7149s0-7.3284 0-8.7149c0-1 0-2 .4333-2.8088.2212-.4129.5094-.4773.5667-.4086v28.2174c2.0392 0 3.4034-1.1217 3.5776-3.3745 0 0 .4343-13.4573.44-13.6055.0057-.1483.2454-.341.486-.341s.481.1927.4867.341.4393 13.6055.4393 13.6055c.1749 2.262 1.5467 3.3745 3.5704 3.3745v-30h2v30c2.0392 0 3.4034-1.1217 3.5776-3.3745 0 0 .4343-13.4573.44-13.6055.0057-.1483.2454-.341.486-.341s.481.1927.4867.341.4393 13.6055.4393 13.6055c.1749 2.262 1.5467 3.3745 3.5704 3.3745v-28.9667c.0917-.0802.4945-.053.574.2174.4411 1.5014.5943 3.9076.5943 6.4335v5.7245c.9727 0 2.45-.5995 2.58-2.7149.2493-4.0521.6995-10.84-2.2189-13.3181-1.4745-1.252-5.0746-1.3757-7.1023-1.3757l-4.4271.0014-4.5.0015c-1.9468 0-5.511.0914-6.9865 1.3378-2.9566 2.4978-2.5052 9.5891-2.2545 13.6593.1303 2.1154 1.7677 2.7149 2.741 2.7149z"/></svg>