<svg enable-background="new 0 0 64 64" viewBox="0 0 64 64" xmlns="http://www.w3.org/2000/svg"><path d="m0 0h64v64h-64z" fill="none"/><path d="m44.876 28.069c.076-.952.114-1.892.114-2.85 0-7.484-2.813-15.479-7.127-18.065-2.75-1.648-5.843-1.048-5.843-1.048s-2.973-2.863-8.173-1.884c-8.483 1.598-14.841 9.743-14.841 20.997 0 3.725.56 7.155 1.818 12.241.104.419.5.67.875.538 1.822-.64 4.287-1.007 7.364-1.302-.112.94-.235 1.994-.357 3.063-1.674 1.195-8.777 2.658-11.495 5.498-2.758 2.885-4.211 13.743-4.211 13.743h36s0-12.97 0-13.526c0-1.631.049-2.944.484-4.056-1.613-.639-3.021-1.212-3.715-1.767-.097-.849-.238-1.888-.385-2.891 2.162.228 4.073.484 5.616.86v-5.175c0-2.218 1.686-4.045 3.876-4.376zm-8.817-1.25c-.53 3.183-2.821 7.626-5.34 9.185-1.721 1.065-4.874 1.234-6.712.44.424.84 1.273 1.837 3.155 2.306 2.535.631 4.852-.405 5.449-.752.112.795.216 1.591.289 2.279.046.433.158 1.493 3.127 2.88-2.319 4.026-7.399 6.189-8.976 6.781-1.486-.638-6.143-2.881-8.393-6.799 2.881-1.193 2.713-2.273 2.763-2.717.066-.579.577-5.324.577-5.324-2.518-2.48-3.598-5.571-4.056-8.28-.293-1.73-.253-3.34-.164-4.41 4.802-1.893 11.604-5.747 14.235-9.057 0 0 .32.015.117.503-.344.831-.848 1.812-1.549 2.977 1.241 2.635 3.473 4.562 5.676 5.93.067 1.036.067 2.467-.198 4.058z"/><path d="m58.786 41c-.84-.37-1.192-1.056-1.338-1.68-2.087-.365-6.078-.964-6.205-.991-.248-.053-.291-.225-.243-.329h8v-5.556c0-.797-.707-1.444-1.579-1.444h-11.842c-.872 0-1.579.647-1.579 1.444v5.556h1.619c.001.006.374 2.218-1.405 3-2.214.974-2.214 1.474-2.214 4.474 0 .558.023 13.525.023 13.525.003 1.853 6.884 2.001 9.477 2.001s9.5-.148 9.5-2.001c0-13.525 0-12.967 0-13.525 0-3 0-3.5-2.214-4.474zm-.786 13.319c-1.7.313-3.987.507-6.511.507-2.513 0-4.791-.192-6.489-.503v-9.121c1.698.311 3.976.503 6.489.503 2.519 0 4.802-.193 6.501-.505h.01z"/></svg>