<?xml version="1.0" encoding="utf-8"?>
<!-- Generator: Adobe Illustrator 25.0.0, SVG Export Plug-In . SVG Version: 6.00 Build 0)  -->
<svg version="1.1" xmlns="http://www.w3.org/2000/svg" xmlns:xlink="http://www.w3.org/1999/xlink" x="0px" y="0px"
	 viewBox="0 0 64 64" style="enable-background:new 0 0 64 64;" xml:space="preserve">
<style type="text/css">
	.st0{fill:none;}
	.st1{fill:#FFFFFF;}
</style>
<g id="Box">
	<rect class="st0" width="64" height="64"/>
</g>
<g id="Icon">
	<g>
		<path d="M44.876,28.069c0.076-0.952,0.114-1.892,0.114-2.85c0-7.484-2.813-15.479-7.127-18.065
			c-2.75-1.648-5.843-1.048-5.843-1.048s-2.973-2.863-8.173-1.884C15.364,5.82,9.006,13.965,9.006,25.219
			c0,3.725,0.56,7.155,1.818,12.241c0.104,0.419,0.5,0.67,0.875,0.538c1.822-0.64,4.287-1.007,7.364-1.302
			c-0.112,0.94-0.235,1.994-0.357,3.063c-1.674,1.195-8.777,2.658-11.495,5.498C4.453,48.142,3,59,3,59h36c0,0,0-12.97,0-13.526
			c0-1.631,0.049-2.944,0.484-4.056c-1.613-0.639-3.021-1.212-3.715-1.767c-0.097-0.849-0.238-1.888-0.385-2.891
			c2.162,0.228,4.073,0.484,5.616,0.86v-5.175C41,30.227,42.686,28.4,44.876,28.069z M36.059,26.819
			c-0.53,3.183-2.821,7.626-5.34,9.185c-1.721,1.065-4.874,1.234-6.712,0.44c0.424,0.84,1.273,1.837,3.155,2.306
			c2.535,0.631,4.852-0.405,5.449-0.752c0.112,0.795,0.216,1.591,0.289,2.279c0.046,0.433,0.158,1.493,3.127,2.88
			c-2.319,4.026-7.399,6.189-8.976,6.781c-1.486-0.638-6.143-2.881-8.393-6.799c2.881-1.193,2.713-2.273,2.763-2.717
			c0.066-0.579,0.577-5.324,0.577-5.324c-2.518-2.48-3.598-5.571-4.056-8.28c-0.293-1.73-0.253-3.34-0.164-4.41
			c4.802-1.893,11.604-5.747,14.235-9.057c0,0,0.32,0.015,0.117,0.503c-0.344,0.831-0.848,1.812-1.549,2.977
			c1.241,2.635,3.473,4.562,5.676,5.93C36.324,23.797,36.324,25.228,36.059,26.819z"/>
		<path d="M58.786,41c-0.84-0.37-1.192-1.056-1.338-1.68c-2.087-0.365-6.078-0.964-6.205-0.991C50.995,38.276,50.952,38.104,51,38h8
			v-5.556C59,31.647,58.293,31,57.421,31H45.579C44.707,31,44,31.647,44,32.444V38h1.619c0.001,0.006,0.374,2.218-1.405,3
			C42,41.974,42,42.474,42,45.474c0,0.558,0.023,13.525,0.023,13.525C42.026,60.852,48.907,61,51.5,61s9.5-0.148,9.5-2.001
			c0-13.525,0-12.967,0-13.525C61,42.474,61,41.974,58.786,41z M58,54.319c-1.7,0.313-3.987,0.507-6.511,0.507
			c-2.513,0-4.791-0.192-6.489-0.503v-9.121c1.698,0.311,3.976,0.503,6.489,0.503c2.519,0,4.802-0.193,6.501-0.505H58V54.319z"/>
	</g>
</g>
</svg>
