<svg height="64" viewBox="0 0 64 64" width="64" xmlns="http://www.w3.org/2000/svg"><path d="m0 0h64v64h-64z" fill="none"/><path d="m39.0994 15.1915c.3831-.0339.6959-.173.9397-.3878.3794 1.4426 1.4716 2.4289 3.2102 2.8108 2.6614.5846 4.6099-.9403 5.1996-3.6235.6705-3.0558-.5782-5.0483-3.1693-5.6179-2.7297-.5993-4.6263 1.0151-5.2319 3.7731-.1234.5623-.1584 1.078-.1482 1.5675-.1125.0806-.2948.0275-.4229-.3683-.13-.4018-.2571-1.1536-.0647-2.2617-.2068-.0633-.4336-.0883-.6805-.0665-1.1046.0975-1.6224 1.0252-1.5126 2.2709.1159 1.3124.8041 1.9983 1.8806 1.9034z"/><circle cx="48.5" cy="58.5" r="2.5"/><circle cx="58.5" cy="58.5" r="2.5"/><path d="m61.3403 52.1725c-.2987-.0579-.5962-.0601-1.109-.0671-.0106-.0002-.0206-.0031-.0314-.0031h-2.2208c-.3999 0-.538-.1797-.6056-.3507l-3.9655-15.3414c-.0114-.0439-.0255-.0879-.0414-.131-.5461-1.4677-1.7524-2.2763-3.3955-2.2763h-2.2466c-1.2802-2.2213-1.5054-2.6435-1.8992-3.4871-.2653-.5795-.2932-.5942-.4941-1.5725-.3748-1.8661-.5432-4.5513-.7759-6.6274-.295-2.6346-4.6238-5.0312-7.5295-4.1111-2.6099.8264-4.8801 4.4626-6.4749 7.6429 1.6804 2.3836 2.8118 3.9987 3.1648 4.5763.292.4785.3809 1.0542.2471 1.5986-.1348.5444-.4814 1.0122-.9629 1.2998-.8496.5063-1.7559.7637-2.6924.7637-.8599 0-1.6951-.2208-2.5007-.6444l-1.7947 15.3839c.5925.2409 1.2466.3588 1.9514.4045.0156 1.5025.0566 5.6157.0953 7.17.0842 3.3809 2.725 4.36 3.5028 4.5794.033-.4016.4985-8.4979.7434-12.0123 1.0186-.1143 2.0996-.228 3.2383-.2892.4585 2.0876 1.6694 7.5866 1.8916 8.643.5464 2.596 2.4463 3.845 4.5676 3.6613 0 0-.8079-8.0302-1.2161-12.033.4635.0824.9321.1797 1.4082.3024 0 0-.7279-8.077-3.5024-13.8989.9058-2.0831 1.9121-4.4012 2.8296-6.5165.0571.2993.1072.5934.178.9025.3923 1.5467.6692 2.3506 2.0948 4.2363 2.0021 2.6483 3.5094 4.5391 5.1459 2.728h1.0305c.5818 0 .7361.196.8433.4609l1.6025 6.1591-3.9106 10.0193c-.2773.6921.145 1.2357.8372 1.5129.6914.2773 1.3926.1823 1.6694-.5093l2.5493-6.6212 1.2146 4.7687c.0088.0334.019.0673.0304.1002.4698 1.3622 1.6852 2.2086 3.1719 2.2086h1.785c1.0828 0 1.8213-.4753 2.1246-1.2234.2111-.5204.17-1.2672-.5483-1.4064z"/><path d="m23.7095 26.1575c1.5344 1.7451 2.2515 2.8765 3.6285 4.3052 1.9489 2.022 3.6036 1.642 4.5861 1.0559-.7054-1.1541-5.8281-8.2764-6.2478-9.0015-3.1587-5.3047-3.8027-9.3085-7.2537-10.008-1.4993-.304-3.2012-.3901-4.4663.5738-1.7065 1.3002-2.0588 3.6371-1.908 6.8138.2012 4.234.7524 5.6917-.5205 8.6619-.8154 1.9025-1.2344 2.8893-1.8364 5.1583-.5691 2.1455-1.1624 3.655-2.3684 8.1716 1.0544.7825 3.8066 2.175 8.0356 2.2251.1338.282-.0369.8304-.9531 1.041-.6909.1588-1.8688.3317-3.2656.2805-.1371.6712-.2881 1.257-.4727 1.9785-.7998 3.0302-1.6791 5.9576-2.0768 8.3269-.4299 2.5607 1.2419 4.8586 2.6098 5.2595 1.7188-5.4319 2.7197-8.335 3.6879-11.1408.3375 2.8102.5905 5.2981.7338 6.2469.4977 3.2974 2.9617 4.9606 4.3296 4.8561 0 0-.1919-7.7955-.3838-15.5909-.0115-.5632-.0229-1.1207-.0344-1.681 1.8115-.4538 3.17-1.1547 3.17-1.1547-.4852-6.3079-1.8274-9.2096-2.6686-11.882.3292-3.2501.5583-6.7368.5879-9.5022.7862 1.6422 1.8794 3.6329 3.0869 5.0061z"/><path d="m17.446 10.7713c2.7441.0193 4.3462-1.8908 4.3657-4.6577.0225-3.1525-1.6254-4.8545-4.2981-4.874-2.8154-.0201-4.3464 1.968-4.3667 4.8119-.0219 2.9975 1.5554 4.6995 4.2991 4.7198z"/></svg>