<?xml version="1.0" encoding="utf-8"?>
<!-- Generator: Adobe Illustrator 25.3.1, SVG Export Plug-In . SVG Version: 6.00 Build 0)  -->
<svg version="1.1" xmlns="http://www.w3.org/2000/svg" xmlns:xlink="http://www.w3.org/1999/xlink" x="0px" y="0px"
	 viewBox="0 0 64 64" style="enable-background:new 0 0 64 64;" xml:space="preserve">
<style type="text/css">
	.st0{fill:none;}
	.st1{fill:#B3B3B3;}
</style>
<g id="Box">
	<rect class="st0" width="64" height="64"/>
</g>
<g id="Icon">
	<g>
		<path d="M53.962,8.303c-1.512-0.349-3.334,1.408-4.05,4.136c-0.606,2.124-0.333,4.043,0.328,5.043L44,39.528v7.93l8.355-29.519
			c1.158-0.522,2.396-2.092,2.864-4.059C55.935,11.153,55.474,8.651,53.962,8.303z"/>
		<rect x="30" y="22.75" width="4" height="1.5"/>
		<path d="M32,2c-5.523,0-10,1.363-10,6.605v46.789C22,60.637,26.477,62,32,62c5.523,0,10-1.363,10-6.605V8.605
			C42,3.363,37.523,2,32,2z M38.404,21.662c0.25,0,0.428,0.018,0.679,0.069l0.105,0.021l-0.065,0.799l-0.131-0.023
			c-0.25-0.045-0.372-0.049-0.609-0.049c-0.549,0-0.89,0.401-0.89,1.048c0,0.728,0.466,0.987,0.865,0.987
			c0.271,0,0.411-0.013,0.684-0.063l0.143-0.027v0.78l-0.094,0.022c-0.295,0.067-0.417,0.084-0.769,0.084
			c-1.09,0-1.767-0.66-1.767-1.722C36.555,22.418,37.281,21.662,38.404,21.662z M29,18h6v16h-6V18z M32,55.5
			c-3.038,0-5.5-2.462-5.5-5.5c0-3.038,2.462-5.5,5.5-5.5s5.5,2.462,5.5,5.5C37.5,53.038,35.038,55.5,32,55.5z M39.367,27.542
			h-0.915v2.795h-0.903v-2.795h-0.915v-0.78h2.732V27.542z"/>
	</g>
</g>
</svg>
