<svg height="64" viewBox="0 0 64 64" width="64" xmlns="http://www.w3.org/2000/svg"><path d="m0 0h64v64h-64z" fill="none"/><path d="m53.7128 45.4532c-1.7468-1.9229-8.6734-3.5121-12.0912-4.3832-1.1951 4.768-3.3053 10.9131-6.6131 15.2346-.376-2.1292-1.0116-4.9916-1.6953-6.9162.9318-1.4284 2.1868-3.6477 2.1868-3.6477s-1.0687-1.7407-3.5-1.7407-3.5 1.7407-3.5 1.7407 1.255 2.2193 2.1868 3.6477c-.6794 1.9124-1.3114 4.7511-1.6883 6.8761-3.1676-4.3374-5.2785-10.4981-6.4964-15.2556-3.3678.8032-10.4323 2.3312-12.2149 4.4443-2.1705 2.573-3.2872 15.4897-3.2872 15.4897h25 25s-.95-12.9167-3.2872-15.4897z"/><path d="m20.0638 30.4937c.5174 3.4032 2.5819 6.6062 6.2687 9.7436 1.751 1.4906 4.3023 1.7627 5.6673 1.7627 1.3649 0 3.9162-.2721 5.6677-1.7627 3.6281-3.0875 5.7279-6.3556 6.2622-9.7377 1.3281-1.2195 2.068-3.1656 2.068-5.5558 0-.7445-.0014-2.7017-1.2269-4.0358.1049-1.152.197-2.5223.2214-3.908h.0078s-5.268-1-13-1-13 1-13 1h.0033c-.0117 1.4138.0598 2.8177.1517 3.989-1.1559 1.332-1.1527 3.2249-1.1527 3.9548 0 2.3861.7375 4.3299 2.0615 5.5499zm1.61-7.7241c.1364-.0642.2715-.0894.4-.0894.2398 0 .456.0882.6127.1766.1415.6533.2486 1.1396.2901 1.3112.206.851 1.0234.7729 1.0234.7729v-4.5482c1.8239.9741 4.7107 1.6073 7.9872 1.6073s6.1889-.6332 8.0128-1.6073v4.5482s.8174.0781 1.0234-.7729c.0415-.1716.1486-.658.2901-1.3112.1567-.0884.3729-.1766.6127-.1766.1285 0 .2637.0252.4.0894.4521.2132.7738.9018.7738 2.1742 0 1.273-.4237 3.3145-2.0414 3.8183 0 3.8165-2.6802 6.9209-5.3403 9.1847-.7803.664-2.2495 1.126-3.7185 1.126s-2.938-.462-3.7181-1.126c-2.6601-2.2638-5.3403-5.3213-5.3403-9.1847-1.6177-.5038-2.0414-2.5453-2.0414-3.8183 0-1.2724.3217-1.961.7738-2.1742z"/><path d="m45 14.7849v-2.7849c0-7.1797-1.1092-9-13-9s-13 1.8203-13 9v2.7849c.8495-.1488 5.8857-.9749 13-.9749s12.1505.8261 13 .9749zm-16.5-5.2849 1.5-1.5h4l1.5 1.5-1.5 1.5h-4z"/></svg>