<svg height="64" viewBox="0 0 64 64" width="64" xmlns="http://www.w3.org/2000/svg"><path d="m0 0h64v64h-64z" fill="none"/><path d="m11.3872 44.1104c-2.8735 3.124-4.3872 14.8896-4.3872 14.8896h12.0925c-.2114-9.8224-2.1165-15.6547-2.9625-17.769-1.9672.8455-3.7753 1.8272-4.7428 2.8794z"/><path d="m52.6128 44.1104c-.9667-1.0513-2.7758-2.0309-4.7451-2.8739-.847 2.1188-2.749 7.9494-2.9603 17.7635h12.0926s-1.5137-11.7656-4.3872-14.8896z"/><path d="m36 43.2487c0 2.1093-.1858 4.1203-1.5098 6.5057l-2.9863 5.376c-.3301.5932-.5039 1.2651-.5039 1.9428v1.9268h9.908c.2092-10.3108 2.1804-16.587 3.2128-19.1776-1.1612-.393-2.221-.7202-3.0258-.9645-.8149.9973-2.524 2.8202-5.095 4.3908z"/><path d="m15.8788 29.2051c.5452 2.0662 1.4819 5.1351 2.4211 5.9449 1.4501 1.25 5.7001 1.85 5.7001 1.85s1.3492 1.9888 4 3.8632v-3.8632c0-2.209 1.791-4 4-4s4 1.791 4 4v3.8632c2.6508-1.8744 4-3.8632 4-3.8632s4.25-.6 5.7-1.85c.9393-.8098 1.876-3.8787 2.4211-5.9449 1.931-1.4759 2.8789-3.7282 2.8789-6.2551 0-4.4459-3.349-5.6436-4.05-8.65-.444-1.9044-1.0712-3.5267-1.8288-4.9193.2764-.2304.6526-.5608.929-.7911-.9507-1.7141-2.2168-3.2327-3.7318-4.4764-.2862.2386-.6723.5771-.9585.8157-2.8326-2.1622-6.2262-2.9289-9.3599-2.9289s-6.5273.7667-9.36 2.9288c-.2862-.2385-.6723-.5771-.9585-.8157-1.515 1.2437-2.781 2.7624-3.7318 4.4764.2764.2303.6526.5607.929.7911-.7575 1.3927-1.3847 3.015-1.8287 4.9194-.701 3.0065-4.05 4.2041-4.05 8.65 0 2.5269.9479 4.7792 2.8788 6.2551zm3.9692-13.2051c2.022-1.4976 7.1525-2.2461 12.152-2.2461s10.1301.7485 12.152 2.2461h.0009c1.1409.8447 1.2922 3.6787.4036 7.0923-.1153.4443-.3904.8232-.7742 1.0664-2.794 1.7697-5.0663 2.7261-6.4675 3.0789-.0356 2.3433-.4704 4.033-.6086 4.4312-.0942.2711-.2439.3565-.3705.3251-.2578-2.3608-.5431-3.7403-.9625-5.3669-.5597-1.8588-2.0097-2.627-3.3694-2.627-.001 0-.001 0-.001 0-1.4387 0-2.9717.8783-3.4729 2.936-.0706.2897-.1702.3447-.2467.3789-.8527.3896-3.7712-.4365-8.0646-3.1558-.3848-.2437-.6599-.6226-.7751-1.0669-.8886-3.4135-.7374-6.2475.4045-7.0922z"/><path d="m34 43.9268v-6.9268c0-1.1045-.8955-2-2-2s-2 .8955-2 2v6.9268c0 .1188-.0156.2363-.0226.3546-3.6863-1.7173-6.0692-4.1951-7.0745-5.426-.81.2408-1.8708.5658-3.0279.9568 1.0312 2.5837 3.0075 8.8624 3.217 19.1878h5.908v-1.9268c0-1.0171.2607-2.0244.7549-2.9141l2.9863-5.376c.8233-1.4823 1.2588-3.1615 1.2588-4.8563z"/></svg>