<svg width="36" height="40" viewBox="0 0 36 40" fill="none" xmlns="http://www.w3.org/2000/svg">
<path d="M10.2308 3.02508C9.5748 4.02868 9.506 5.57368 9.5122 7.03088C9.5182 8.42948 9.4838 9.74728 9.608 10.4275C8.648 10.3811 8.2462 11.1513 8.3942 13.7601C8.5256 16.0727 9.449 16.5719 10 16.8897C10.4864 19.2283 11.4232 21.4431 13.0826 23.1179L13.0862 23.0935C12.9838 23.7017 12.8546 24.3481 12.6878 24.9903C10.4034 25.7923 4.799 27.8807 3.1582 29.6111C1.0898 31.7907 0 39.9999 0 39.9999H36C36 39.9999 34.9102 31.7907 32.8418 29.6111C31.2042 27.8839 25.6176 25.8003 23.3252 24.9949C23.136 24.3581 22.9952 23.7189 22.8882 23.1179C24.5476 21.4431 25.5136 19.2283 26 16.8897C26.551 16.5719 27.4452 16.0727 27.5766 13.7601C27.7246 11.1513 27.3228 10.3811 26.3628 10.4275C26.4862 9.75228 26.4962 8.46968 26.4866 7.09368C26.4762 5.63908 26.4076 4.08028 25.82 3.02508C25.0902 1.71428 24.0646 0.94548 22.0646 1.41928C20.3138 0.57748 18.4696 -0.32692 15.3838 0.35568C11.9062 1.12488 10.6778 2.34148 10.2308 3.02508Z" fill="#007BC7"/>
</svg>
