<svg height="48" width="48" xmlns="http://www.w3.org/2000/svg"><path d="m41.77 1.004c2.121.359 3.73 1.965 4.086 4.086.984 5.863 1.027 11.727 1.066 17.586l.008.766c0 2.055 0 12.234-1.027 18.352-.359 2.121-1.965 3.73-4.086 4.086-6.117 1.027-16.32 1.027-18.352 1.027-2.055 0-12.234 0-18.352-1.027-2.121-.355-3.73-1.965-4.086-4.086-1.027-6.118-1.027-16.321-1.027-18.353s0-12.234 1.027-18.351a4.83 4.83 0 0 1 4.063-4.063c6.117-1.027 16.32-1.027 18.351-1.027s12.235 0 18.329 1.004zm-10.536 12.281c.578-.648 1.563-.738 2.254-.227.691.539.871 1.496.402 2.277l-10.917 18.063c-.289.492-.848.805-1.43.805s-1.117-.312-1.43-.828l-7.141-12.008a1.71 1.71 0 0 1 .355-2.168 1.66 1.66 0 0 1 2.164 0l5.918 5.137zm0 0" fill="#39870c" fill-rule="evenodd"/></svg>