<svg height="48" width="48" xmlns="http://www.w3.org/2000/svg"><path d="m48 24c0 13.254-10.746 24-24 24s-24-10.746-24-24 10.746-24 24-24 24 10.746 24 24zm-24-3.473 7.133-6.332a1.94 1.94 0 0 1 2.629.066c.707.711.707 1.852.043 2.605l-6.328 7.134 6.309 7.156c.66.754.637 1.871-.047 2.605-.711.684-1.852.707-2.605.043l-7.134-6.331-7.152 6.309a1.93 1.93 0 0 1 -2.605-.043c-.711-.711-.711-1.852-.047-2.605l6.331-7.134-6.332-7.152c-.664-.758-.641-1.875.047-2.609.73-.684 1.871-.707 2.625-.043zm-.023 3.473.023.023.07-.023-.047-.047zm0 0" fill="#d52b1e" fill-rule="evenodd"/></svg>