<svg xmlns="http://www.w3.org/2000/svg" width="48" height="48" xmlns:v="https://vecta.io/nano"><path d="M48 24c0 13.254-10.746 24-24 24S0 37.254 0 24 10.746 0 24 0s24 10.746 24 24zm-24-3.473l7.133-6.332a1.94 1.94 0 0 1 2.629.066c.707.711.707 1.852.043 2.605L27.477 24l6.309 7.156c.66.754.637 1.871-.047 2.605-.711.684-1.852.707-2.605.043L24 27.473l-7.152 6.309a1.93 1.93 0 0 1-2.605-.043c-.711-.711-.711-1.852-.047-2.605L20.527 24l-6.332-7.152c-.664-.758-.641-1.875.047-2.609.73-.684 1.871-.707 2.625-.043zM23.977 24l.023.023.07-.023-.047-.047zm0 0" fill-rule="evenodd" fill="rgb(83.529412%,16.862745%,11.764706%)"/></svg>