<svg enable-background="new 0 0 64 64" height="64" viewBox="0 0 64 64" width="64" xmlns="http://www.w3.org/2000/svg"><path d="m0 0h64v64h-64z" fill="none"/><path d="m27.8 25.5 2.8 2.5c.8-1.3 2.1-2.4 3.6-3 .3-1.2 1-2.2 1.8-3.1v-4.9h5v2.5c.3 0 .5-.1.8-.1 1.5 0 3 .4 4.2 1.2v-16.6c0-.6-.4-1-1-1h-29c-.6 0-1 .4-1 1v29.7l9.2-8.2c1-1 2.6-1 3.6 0zm8.2-16.5h5v5h-5zm-8 0h5v5h-5zm0 8h5v5h-5zm-8-8h5v5h-5zm0 8h5v5h-5z"/><path d="m58.4 34.7c0-3.1-1.8-5.6-4.3-6.3-.2-3.3-2.8-5.9-6-5.9-.8 0-1.6.2-2.3.5-1.1-.9-2.5-1.5-4.1-1.5-3.1 0-5.6 2.2-5.8 5-1.7.3-3.1 1.4-3.8 2.8l12.7 11.4c.7.6 1.1 1.6 1.1 2.5v1c0 1.5-1.2 2.7-2.7 2.7h-1.2v13.1h8.2c0-.2-1.2-7.4-1.3-11.6.5.2 1.1.3 1.7.3 3.1 0 5.7-2.5 5.7-5.7 0-1-.2-1.9-.7-2.7 1.7-1.1 2.8-3.2 2.8-5.6z"/><path d="m43.9 44.2v-1c0-.4-.2-.8-.5-1l-17-15.2c-.3-.2-.7-.2-.9 0l-17 15.2c-.3.3-.5.6-.5 1v1c0 .4.3.7.7.7h3.3v15.1h28v-15.1h3.2c.4 0 .7-.3.7-.7zm-7 5c-1.1 1-3.6 2.3-6.5 2.5 2 1.4 2.9 2.9 3.1 3.3 0 0 0 .1-.1.1-1.4.1-4-.5-6.5-2.2l.5 4.4c0 .4-.3.8-.7.9-.7.1-1.1.1-1.5 0s-.7-.4-.7-.9c.1-2.9.3-5.6.5-8.1 0 0-.1 0-.2.2s-.8 1.8-1.1 4.3c0 0 0 0-.1.1-2.6 1.4-4.6 1.4-5.1 1.4-.1 0-.1-.1-.1-.1.2-.4 1.1-1.9 3.1-3.3-3.5-.3-5.8-1.8-6.5-2.5v-.1c1.2-.5 3.6-.8 6.2-.3-3-2.9-4.5-6.5-4.7-8.6 0-.1 0-.1.1-.1 1.5.4 4.3 2 6.7 4.9 0-4.9 1.8-8.3 2.6-9.4h.1c1.1 1.4 2.6 4.9 2.6 9.4 2.7-3.2 5.6-4.6 6.7-4.9.1 0 .1 0 .1.1-.2 2.1-1.8 5.7-4.7 8.6 2.7-.5 5-.2 6.2.3 0-.1 0-.1 0 0z"/></svg>