<svg height="64" viewBox="0 0 64 64" width="64" xmlns="http://www.w3.org/2000/svg"><path d="m0 0h64v64h-64z" fill="none"/><path d="m61.2248 30.2057-28.4122-26.8855c-.4594-.4269-1.1659-.4269-1.6253 0l-28.4121 26.8855c-.4939.4595-.7752 1.1067-.7752 1.7847v1.7968c0 .6697.5374 1.2128 1.2 1.2128h4.8v25h48v-25h4.8c.6626 0 1.2-.5431 1.2-1.2128v-1.7968c0-.678-.2813-1.3252-.7752-1.7847zm-41.2248-2.2057c0-1.6569 1.3431-3 3-3h5c1.6569 0 3 1.3431 3 3v4c0 .5522-.4477 1-1 1h-9c-.5523 0-1-.4478-1-1zm10.9479 7.3162-.3334 1c-.136.4083-.5182.6838-.9486.6838h-8.3318c-.4304 0-.8126-.2755-.9487-.6838l-.3334-1c-.2158-.6475.2662-1.3162.9488-1.3162h8.9984c.6826 0 1.1646.6687.9487 1.3162zm17.0521-.3162h-9v6 4h-10v10h-13v-4h9v-10h10v-10h13z"/></svg>