<svg viewBox="0 0 64 64" xmlns="http://www.w3.org/2000/svg"><path d="m0 0h64v64h-64z" fill="none"/><path d="m55.65 34.3h-47.3a2.78 2.78 0 0 0 -2.85 2.7v15.45h53v-15.45a2.78 2.78 0 0 0 -2.85-2.7zm-5 8h-37.31a2.7 2.7 0 0 1 -2.71-2.7h42.74a2.7 2.7 0 0 1 -2.71 2.67z"/><path d="m35.91 31.13v.62a1.38 1.38 0 0 0 1.42 1.45h13.76a1.42 1.42 0 0 0 1.5-1.45v-.62a44.85 44.85 0 0 0 0-5c0-.35-.07-.7-.11-1a12.5 12.5 0 0 0 2.32-8.53 4.86 4.86 0 0 0 -2.05-3.85 5.85 5.85 0 0 0 -4.56-.5c-.49-1.05-2.19-1.86-4.19-1.86a6.08 6.08 0 0 0 -3.21.84 4 4 0 0 0 -.35.26l2.86.79c.2.06.21.19.15.29h-6.76a.29.29 0 0 0 -.15.53 13 13 0 0 1 2.19 1.63 4.16 4.16 0 0 1 .91 2.27c-1.29 1-4.2 5.18-3.73 14.13zm13-16.38a3.36 3.36 0 0 1 2.45.2 2.46 2.46 0 0 1 .89 1.93 10 10 0 0 1 -.6 4.44 9.73 9.73 0 0 0 -2.74-4.38zm-7.91 3.86.11-.1h6.24l.11.1c.72.6 3.46 4.07 3 12.52h-12.4c-.48-8.45 2.26-11.92 2.94-12.52z"/><path d="m12.46 32.11c1.61 0 3.18-1.37 2.85-3s-1.79-2.46-2.53-4.5c-.09-.24-.2-.27-.32-.27s-.23 0-.32.27c-.73 2-2.21 3-2.52 4.5s1.24 3 2.84 3zm-.93-4.45c.22-.3.47-.64.72-1a12.28 12.28 0 0 0 -.66 2.76 2 2 0 0 0 .78 1.5h-.15a2 2 0 0 1 -1.45-.68 1 1 0 0 1 -.25-.88 4.82 4.82 0 0 1 1.01-1.7z"/><path d="m14.27 21.47c0-2.55 0-2.55 4.17-2.55s4.17 0 4.17 4.35v9.73h3.64v-3.28h3.63a1.35 1.35 0 0 0 1.35-1.36v-8.71h-1.58v8.66s-.14 0-.24-.23c0-.07-.2-1.24-.33-2.13h-2.83v-2.68c0-7.23-1.05-8-7.81-8s-7.81 1.24-7.81 6.19v1.54h3.64z"/></svg>