<svg enable-background="new 0 0 64 64" viewBox="0 0 64 64" xmlns="http://www.w3.org/2000/svg"><path d="m0 0h64v64h-64z" fill="none"/><path d="m48.5 46.4c-1-1.4-1.6-3.1-1.8-4.8l-2.2-15.9c-1-4.4-4.4-7.7-8.6-8.9-.2-1.6-1.5-2.8-3.1-2.8s-3 1.2-3.1 2.8c-4.2 1.1-7.5 4.5-8.6 8.9l-2.2 15.9c-.2 1.7-.9 3.4-1.8 4.8l-3 4.5c-.8 1.2.1 2.8 1.5 2.8h20.2s.1.4-.4.5c-.2 0-3.9.5-7.7.9.9 2 2.8 3.3 5.1 3.3 2.8 0 5.1-2.1 5.5-4.8h11.7c1.4 0 2.3-1.6 1.5-2.8z"/><path d="m12.5 30.5c0-2.1 1-3.9 2.6-5l-2.3-3.3c-2.6 1.9-4.3 4.9-4.3 8.3s1.7 6.4 4.3 8.3l2.3-3.3c-1.6-1.1-2.6-2.9-2.6-5z"/><path d="m4.5 30.5c0-4.8 2.4-9 5.9-11.6l-2.3-3.3c-4.6 3.4-7.6 8.8-7.6 14.9s3 11.5 7.6 14.8l2.3-3.3c-3.5-2.5-5.9-6.7-5.9-11.5z"/><path d="m51.2 22.2-2.3 3.3c1.5 1.1 2.6 3 2.6 5s-1 3.9-2.6 5l2.3 3.3c2.6-1.9 4.3-4.9 4.3-8.3s-1.7-6.4-4.3-8.3z"/><path d="m55.9 15.7-2.3 3.3c3.6 2.6 5.9 6.8 5.9 11.6s-2.4 9-5.9 11.6l2.3 3.3c4.6-3.3 7.6-8.7 7.6-14.8s-3-11.7-7.6-15z"/></svg>