<svg enable-background="new 0 0 64 64" viewBox="0 0 64 64" xmlns="http://www.w3.org/2000/svg"><path d="m0 0h64v64h-64z" fill="none"/><path d="m39.3.8c-7.6 0-15.2 4.7-15.2 14.3v1.2c-1.7-1.3-3.9-1.9-6.1-1.9-4.8 0-9.5 2.9-9.5 8.9 0 3.2 1.7 6.6 4.2 9.6h10.6c2-2.3 3.4-4.9 4-7.4 1.5 2.6 3.6 5.1 5.9 7.4h12.4c5.4-5.3 9.1-11.7 9.1-17.8-.1-9.6-7.7-14.3-15.4-14.3zm-25.4 21.4c0 .8.1 1.5.4 2.4l-3 .9c-.2-.7-.3-1.4-.3-2.1 0-4.2 3-5.9 5.5-6.4-1.5 1-2.6 2.6-2.6 5.2zm18.8-9c0 1.2.2 2.5.6 3.8l-4.9 1.4c-.3-1.1-.5-2.3-.5-3.3 0-6.8 4.8-9.5 8.9-10.2-2.3 1.6-4.1 4.2-4.1 8.3z"/><path d="m44.7 38.2-2.1-.9 2-1.4c.4-.3.2-.9-.3-.9h-9.7c-.5 0-.7.6-.3.9l3.2 2.3-4.5 23.2c-.2.8.4 1.6 1.2 1.8 1.3.2 1.7-.9 1.8-1.2l4.5-23.3c.1 0 .3 0 .3.4v3.6c1.4-.6 2.7-1.4 4-3.1.6-.6.4-1.1-.1-1.4z"/><path d="m21.5 38c.2-.3.1-.6-.2-.8l-1.1-.5 1.2-.8c.4-.3.2-.9-.3-.9h-6c-.5 0-.7.6-.3.9l2 1.4 3.8 19.9c0 .2.4 1.2 1.5 1 .7-.1 1.1-.8 1-1.5l-3.3-17.2c.6-.3 1.1-.7 1.7-1.5z"/></svg>