<svg height="64" viewBox="0 0 64 64" width="64" xmlns="http://www.w3.org/2000/svg"><path d="m0 0h64v64h-64z" fill="none"/><path d="m61.6577 25.567-29.0437-9.369c-.3992-.1288-.8288-.1288-1.228 0l-29.0437 9.369c-.4482.1446-.4662.7721-.027.9421l5.6847 2.2006v7.0689c-.6096.5491-1 1.3364-1 2.2214 0 .7645.2948 1.4546.7656 1.9844-1.4338 2.2515-3.1959 6.0468-3.295 7.7803-.1176 2.0588 2.5294 2.9184 3.8235 3.1537s4.3529.0816 4.6471-2.4478c.2288-1.9684-.5732-6.3342-.9412-8.1794v-.0698c.6096-.5491 1-1.3364 1-2.2214s-.3904-1.6723-1-2.2214v-5.5205l15.6912 6.0844c-.0007.0632-.0331.2836-.3839.2636l-11.3073-1.801v10.1261h.0082c-.0006.0238-.0082.0448-.0082.0688 0 3.866 7.1635 7 16 7s16-3.134 16-7c0-.024-.0076-.045-.0082-.0688h.0082v-13.1247l13.6847-5.2973c.4393-.1701.4213-.7976-.027-.9422z"/></svg>