<svg height="64" viewBox="0 0 64 64" width="64" xmlns="http://www.w3.org/2000/svg"><path d="m0 0h64v64h-64z" fill="none"/><path d="m55.4072 18.084c-.2002-.2139-.4463-.3794-.7197-.4834l-11.4731-4.5068c-.7637-.2686-1.6299.0538-2.0203.7907-.4304.8118-.1212 1.8187.6906 2.249.4569.242 6.1153 2.7354 6.1153 2.7354v5.6311c0 .2983.0889.5898.2559.8374.3891.5787 2.0957 2.3682 8.2145 2.6281 2.1059 6.7808 2.0686 15.5103.095 21.5208-.7348 2.2382-2.2352 5.5598-4.6025 5.5854-3.2872.0355-4.0381-6.006-4.0381-9.6127v-4.8223c0-6.416-3.8955-10.5615-9.9248-10.5615v-21.0752c0-2.7614-2.2386-5-5-5h-24c-2.7614 0-5 2.2386-5 5v50h34v-25.0752c3.8604 0 6.0752 2.4463 6.0752 6.7119v4.8223c0 5.7617 1.335 9.917 3.8604 12.0156 1.1553.96 2.5088 1.4512 3.9678 1.4512 4.4045 0 6.9393-4.0342 8.3193-8.2383 3.9931-12.1592.7334-26.6748-4.8155-32.6035zm-4.4072 5.7168v-2.7581c-.7239-.5112-1.3482-.9525-1.4547-1.0287-.2708-.194-.1094-.4511-.0674-.494l3.4069 1.5137c.9377 1.0764 1.7346 2.3894 2.4123 3.8495-2.5293-.2349-3.7717-.7708-4.2971-1.0824zm-17 .1992h-26v-15c0-.5523.4477-1 1-1h24c.5523 0 1 .4477 1 1z"/></svg>