<svg enable-background="new 0 0 64 64" height="64" viewBox="0 0 64 64" width="64" xmlns="http://www.w3.org/2000/svg"><path d="m0 0h64v64h-64z" fill="none"/><path d="m54 28c-.1 0-.3 0-.4 0l-15.5-15.4c1-1.9.8-4.3-.8-5.9-2-2-5.1-2-7.1 0l-2.5 2.5c-4.5-1.7-9.7-.8-13.3 2.8-.4.4-.4 1.2 0 1.6l4.8 4.8c-.4 1.8.1 3.7 1.5 5 1.4 1.4 3.3 1.9 5 1.5l4.8 4.8c.4.4 1.2.4 1.6 0 3.6-3.6 4.5-8.8 2.8-13.3l15.1 15.2v.4s0 .3 0 .4l-15.6 15.6c-.1 0-.3 0-.4 0-3 0-5.6 1.9-6.6 4.6l5.4 1.1c.3.1.3.3.2.4h-10c-2.8 0-5 2.2-5 5h32c0-2.8-2.2-5-5-5h-4.1c-.2-1.4-.8-2.7-1.7-3.7l14.4-14.4h.4c2.2 0 4-1.8 4-4s-1.8-4-4-4z"/><path d="m18 27.5-1-1c-.5-.5-1.4-.5-1.8.1l-3 3.8c-.4.5-.4 1.3.1 1.8.5.5 1.3.5 1.8.1l3.8-3c.6-.4.6-1.3.1-1.8z"/><path d="m26.5 38.8c.7 0 1.3-.5 1.4-1.2l.5-4.8c.1-.7-.5-1.4-1.2-1.4h-1.4c-.7 0-1.3.6-1.2 1.4l.5 4.8c.1.7.7 1.2 1.4 1.2z"/><path d="m13.1 18.6v-1.4c0-.7-.6-1.3-1.4-1.2l-4.8.5c-.7.1-1.2.7-1.2 1.4 0 .7.5 1.3 1.2 1.4l4.8.5c.8.1 1.4-.4 1.4-1.2z"/></svg>