<svg enable-background="new 0 0 64 64" viewBox="0 0 64 64" xmlns="http://www.w3.org/2000/svg"><path d="m0 0h64v64h-64z" fill="none"/><path d="m44 15.53c0-.437-.284-.824-.702-.954l-17.948-5.61c-.038-.012-.078-.01-.117-.018-.19-.055-.386-.087-.584-.083l-18.529.382c-.285.006-.35.401-.082.498l20.432 7.389c.424.133.872.168 1.311.102 0 0 13.51-1.765 13.586-1.768.262-.013.285.152.286.199l-16.653 6.264-15.548-5.827 4.43-1.384-3.536-1.283-3.645 1.139c-.417.13-.701.516-.701.954v24.64c0 .361.195.694.51.872l18 10.125c.304.171.676.171.98 0l9.31-5.237v-13.839c0-1.331.781-2.541 1.99-3.083 1.251-.561 3.581-1.38 7.209-1.847v-11.631z"/><path d="m62.31 31.016c-1.466-.657-5.34-2.016-12.31-2.016s-10.844 1.359-12.31 2.016c-.423.19-.69.612-.69 1.075v17.109c0 2.005.854 3.915 2.336 5.266 3.939 3.59 8.373 5.55 10.011 6.198.421.167.884.167 1.306 0 1.638-.648 6.072-2.609 10.011-6.198 1.482-1.351 2.336-3.261 2.336-5.266v-17.109c0-.463-.267-.885-.69-1.075zm-13.597 8.159c-.195-.028-.395-.043-.597-.043-2.347 0-4.263 1.915-4.263 4.26 0 2.347 1.916 4.26 4.263 4.26.202 0 .402-.015.597-.043v1.789c-.195.019-.395.03-.597.03-3.326 0-6.039-2.712-6.039-6.036s2.712-6.036 6.039-6.036c.202 0 .402.011.597.03zm8.838 0c-.198-.028-.397-.043-.599-.043-2.031 0-3.736 1.432-4.159 3.339h3.487v1.845h-3.487c.423 1.905 2.128 3.337 4.159 3.337.202 0 .404-.015.599-.043v1.789c-.198.019-.397.03-.599.03-3.326 0-6.036-2.712-6.036-6.036s2.71-6.036 6.036-6.036c.202 0 .402.011.599.03z"/></svg>