<svg viewBox="0 0 64 64" xmlns="http://www.w3.org/2000/svg"><path d="m0 0h64v64h-64z" fill="none"/><path d="m16.84 32.87c-.08 0-.17 0-.26.18-.74 1.46-1.9 2-2.29 3.15a2.09 2.09 0 1 0 4.12.56c-.07-1.18-1-2-1.36-3.64-.05-.2-.12-.23-.21-.25z"/><path d="m24.38 33c-.06-.18-.15-.21-.23-.21s-.17 0-.24.21c-.53 1.55-1.61 2.26-1.83 3.44a2.08 2.08 0 1 0 4.15 0c-.23-1.2-1.31-1.91-1.85-3.44z"/><path d="m15.76 41.44c-.09 0-.17 0-.26.18-.74 1.46-1.91 2-2.29 3.14a2.08 2.08 0 1 0 4.11.57c-.06-1.19-1-2-1.36-3.65-.04-.19-.11-.23-.2-.24z"/><path d="m24.38 42.06c-.06-.18-.15-.21-.23-.21s-.17 0-.24.22c-.53 1.55-1.61 2.25-1.83 3.43a2.08 2.08 0 1 0 4.15 0c-.23-1.18-1.31-1.89-1.85-3.44z"/><path d="m14.68 50c-.09 0-.18 0-.26.18-.75 1.46-1.91 2-2.3 3.14a2.09 2.09 0 1 0 4.12.56c-.07-1.18-1-2-1.36-3.64-.04-.18-.12-.24-.2-.24z"/><path d="m24.38 51.15c-.06-.19-.15-.22-.23-.21s-.17 0-.24.21c-.53 1.55-1.61 2.25-1.83 3.43a2.08 2.08 0 1 0 4.15 0c-.23-1.18-1.31-1.89-1.85-3.43z"/><path d="m32.37 38.73a2 2 0 0 0 1.74-2.53c-.38-1.14-1.55-1.69-2.29-3.15-.09-.17-.17-.19-.26-.18s-.16.05-.2.25c-.32 1.6-1.29 2.46-1.36 3.64a2 2 0 0 0 2.37 1.97z"/><path d="m33.45 47.3a2 2 0 0 0 1.75-2.54c-.38-1.13-1.55-1.68-2.29-3.14-.09-.18-.18-.19-.26-.18s-.17.05-.21.24c-.32 1.61-1.29 2.46-1.36 3.65a2 2 0 0 0 2.37 1.97z"/><path d="m34 50.19c-.09-.18-.17-.19-.26-.18s-.16.05-.2.24c-.32 1.61-1.29 2.46-1.36 3.64a2.08 2.08 0 1 0 4.11-.56c-.39-1.13-1.56-1.68-2.29-3.14z"/><path d="m42.53 6.7h-12.33a9 9 0 0 0 -9 9v4l-8.54 5.13a3 3 0 0 0 -1.46 2.57v2.3a1 1 0 0 0 1 1h24a1 1 0 0 0 1-1v-2.3a3 3 0 0 0 -1.45-2.57l-8.55-5.13h-4c-.07-.19 0-.4.3-.47l3.66-.77v-2.76a3 3 0 0 1 3-3h12.37a3 3 0 0 1 3 3v41.16h3 3v-41.16a9 9 0 0 0 -9-9z"/></svg>