<?xml version="1.0" encoding="utf-8"?>
<!-- Generator: Adobe Illustrator 19.1.0, SVG Export Plug-In . SVG Version: 6.00 Build 0)  -->
<svg version="1.2" baseProfile="tiny" xmlns="http://www.w3.org/2000/svg" xmlns:xlink="http://www.w3.org/1999/xlink" x="0px"
	 y="0px" width="64px" height="64px" viewBox="0 0 64 64" xml:space="preserve">
<g id="Box">
	<rect fill="none" width="64" height="64"/>
</g>
<g id="Icon">
	<g>
		<path d="M11,19h5v-3.7849c1.8215,0.2424,4.9965,0.6175,7.2208,0.6175c1.074,0,2.3143-0.7449,2.7792-1.8189v-0.0001h0.0001
			c0.4649-1.074-0.1304-1.819-1.2044-1.819c-2.7382,0-7.4047,0.764-8.8863,1.019c-0.1824-1.0627-0.6429-2.0648-1.3486-2.8965
			c-0.5555-0.6549-1.566-0.6549-2.1216,0c-0.7056,0.8317-1.1661,1.8338-1.3485,2.8965c-1.4816-0.255-6.1481-1.019-8.8864-1.019
			c-1.074,0-1.6693,0.7449-1.2043,1.819v0.0001h0.0001c0.4649,1.074,1.7052,1.8189,2.7792,1.8189
			c2.2243,0,5.3993-0.3751,7.2208-0.6175V19z"/>
		<path d="M61.7957,12.1947c-2.7382,0-7.4047,0.764-8.8863,1.019c-0.1824-1.0627-0.6429-2.0648-1.3486-2.8965
			c-0.5555-0.6549-1.566-0.6549-2.1216,0c-0.7056,0.8317-1.1661,1.8338-1.3485,2.8965c-1.4816-0.255-6.1481-1.019-8.8864-1.019
			c-1.074,0-1.6693,0.7449-1.2043,1.819v0.0001h0.0001c0.4649,1.074,1.7052,1.8189,2.7792,1.8189
			c2.2243,0,5.3993-0.3751,7.2208-0.6175V19h5v-3.7849c1.8215,0.2424,4.9965,0.6175,7.2208,0.6175
			c1.074,0,2.3143-0.7449,2.7792-1.8189v-0.0001h0.0001C63.465,12.9396,62.8697,12.1947,61.7957,12.1947z"/>
		<path d="M25.0791,39.0137c-0.6833,1.1769-1.0791,2.541-1.0791,4c0,4.4183,3.5817,8,8,8s8-3.5817,8-8
			c0-1.459-0.3958-2.8231-1.0791-4H25.0791z M32,47.0137c-1.3807,0-2.5-1.1193-2.5-2.5c0-1.3807,1.1193-2.5,2.5-2.5
			c1.3807,0,2.5,1.1193,2.5,2.5C34.5,45.8943,33.3807,47.0137,32,47.0137z"/>
		<path d="M53.7382,21.0137H10.2618C9.5649,21.0137,9,21.5786,9,22.2755c0,1.5663,1.1619,2.8897,2.7151,3.0923l15.567,2.0853
			c0.0133,0.0585,0.0321,0.2689-0.2958,0.3279l-6.0456,0.3878l-1.2274,1.4807c-2.7661,3.3369-4.6799,7.2959-5.5769,11.5363
			l-2.4863,11.7538c-0.2,0.9454,0.5176,1.5905,1.463,1.7906c0.9456,0.2001,1.7609-0.1208,1.9609-1.0663L17.5604,41.91
			c0.7796-3.6857,2.4431-7.1268,4.8473-10.0272l1.0889-1.3137L25.4041,37h13.1919l1.9074-6.4308l1.0889,1.3137
			c2.4042,2.9003,4.0677,6.3414,4.8474,10.0272l2.4863,11.7538c0.2,0.9456,1.0153,1.2664,1.9608,1.0663
			c0.9454-0.2001,1.663-0.8452,1.4631-1.7906l-2.4863-11.7538c-0.897-4.2404-2.8109-8.1995-5.5769-11.5363l-1.2274-1.4807
			l-6.0456-0.3878c-0.3278-0.059-0.309-0.2694-0.2958-0.3279l15.567-2.0853C53.8381,25.1652,55,23.8419,55,22.2755
			C55,21.5786,54.4351,21.0137,53.7382,21.0137z"/>
	</g>
</g>
</svg>
