<svg height="64" viewBox="0 0 64 64" width="64" xmlns="http://www.w3.org/2000/svg"><path d="m0 0h64v64h-64z" fill="none"/><path d="m11 19h5v-3.7849c1.8215.2424 4.9965.6175 7.2208.6175 1.074 0 2.3143-.7449 2.7792-1.8189v-.0001h.0001c.4649-1.074-.1304-1.819-1.2044-1.819-2.7382 0-7.4047.764-8.8863 1.019-.1824-1.0627-.6429-2.0648-1.3486-2.8965-.5555-.6549-1.566-.6549-2.1216 0-.7056.8317-1.1661 1.8338-1.3485 2.8965-1.4816-.255-6.1481-1.019-8.8864-1.019-1.074 0-1.6693.7449-1.2043 1.819v.0001h.0001c.4649 1.074 1.7052 1.8189 2.7792 1.8189 2.2243 0 5.3993-.3751 7.2208-.6175v3.7849z"/><path d="m61.7957 12.1947c-2.7382 0-7.4047.764-8.8863 1.019-.1824-1.0627-.6429-2.0648-1.3486-2.8965-.5555-.6549-1.566-.6549-2.1216 0-.7056.8317-1.1661 1.8338-1.3485 2.8965-1.4816-.255-6.1481-1.019-8.8864-1.019-1.074 0-1.6693.7449-1.2043 1.819v.0001h.0001c.4649 1.074 1.7052 1.8189 2.7792 1.8189 2.2243 0 5.3993-.3751 7.2208-.6175v3.7848h5v-3.7849c1.8215.2424 4.9965.6175 7.2208.6175 1.074 0 2.3143-.7449 2.7792-1.8189v-.0001h.0001c.4648-1.074-.1305-1.8189-1.2045-1.8189z"/><path d="m25.0791 39.0137c-.6833 1.1769-1.0791 2.541-1.0791 4 0 4.4183 3.5817 8 8 8s8-3.5817 8-8c0-1.459-.3958-2.8231-1.0791-4zm6.9209 8c-1.3807 0-2.5-1.1193-2.5-2.5s1.1193-2.5 2.5-2.5 2.5 1.1193 2.5 2.5c0 1.3806-1.1193 2.5-2.5 2.5z"/><path d="m53.7382 21.0137h-43.4764c-.6969 0-1.2618.5649-1.2618 1.2618 0 1.5663 1.1619 2.8897 2.7151 3.0923l15.567 2.0853c.0133.0585.0321.2689-.2958.3279l-6.0456.3878-1.2274 1.4807c-2.7661 3.3369-4.6799 7.2959-5.5769 11.5363l-2.4863 11.7538c-.2.9454.5176 1.5905 1.463 1.7906.9456.2001 1.7609-.1208 1.9609-1.0663l2.4864-11.7539c.7796-3.6857 2.4431-7.1268 4.8473-10.0272l1.0889-1.3137 1.9075 6.4309h13.1919l1.9074-6.4308 1.0889 1.3137c2.4042 2.9003 4.0677 6.3414 4.8474 10.0272l2.4863 11.7538c.2.9456 1.0153 1.2664 1.9608 1.0663.9454-.2001 1.663-.8452 1.4631-1.7906l-2.4863-11.7538c-.897-4.2404-2.8109-8.1995-5.5769-11.5363l-1.2274-1.4807-6.0456-.3878c-.3278-.059-.309-.2694-.2958-.3279l15.567-2.0853c1.5532-.2026 2.7151-1.5259 2.7151-3.0923 0-.6969-.5649-1.2618-1.2618-1.2618z"/></svg>