<svg height="64" viewBox="0 0 64 64" width="64" xmlns="http://www.w3.org/2000/svg"><path d="m0 0h64v64h-64z" fill="none"/><path d="m29.8729 16.7258.2322 8.8154c4.0035.1546 6.2754 1.4656 8.9251 2.6l-.3513-8.8925c-2.5893-1.093-4.8424-2.3705-8.806-2.5229z"/><path d="m58.1072 8.0065c-.0473-.728-.8305-1.1682-1.4694-.816-1.9507 1.0754-5.84 2.8095-10.6377 2.8095-6.9543 0-8.7588-4-16.691-4-5.803 0-12.9094 3.2092-16.309 4.9331v-2.9331h1c1.1046 0 2-.8954 2-2v-1.4738c0-.9318-.6419-1.7349-1.5487-1.9489-1.1565-.2729-2.8134-.5773-4.4513-.5773s-3.2949.3044-4.4513.5773c-.9068.214-1.5487 1.0172-1.5487 1.9489v1.4738c0 1.1046.8954 2 2 2h1v55h6c0-9.9136 0-14.6642 0-21.0251 3.6861-1.9869 10.8446-4.9749 16.3089-4.9749 7.9323 0 9.7367 4 16.691 4 5.1935 0 10.438-2.1556 12.7609-3.2472.7477-.3514 1.2065-1.1192 1.153-1.9437zm-9.8894 29.8373-.421-7.9926c-3.3234.1105-5.7987-.4396-8.7667-1.71l.3226 8.1664c-2.2896-.9921-5.0631-2.0784-9.0239-2.268l-.2238-8.4984c-2.9266-.1132-6.185.6156-8.9419 1.5511l.1069 8.1234c-3.1403.8843-5.7383 2.1273-8.2701 3.3542l.0001-7.6901c3.1419-1.5973 5.0904-2.745 8.163-3.7875l-.1168-8.8717c-3.0437 1.0096-4.9623 2.1208-8.0461 3.6533l.0001-7.5769c3.2878-1.6671 5.0241-2.7074 7.9454-3.7096l.1005 7.6332c2.7068-.8978 5.9328-1.606 8.8265-1.4948l-.203-7.7088c3.9001.1079 6.1251 1.3335 8.6992 2.389l.3098 7.8428c3.0013 1.2671 5.4383 1.7729 8.6478 1.6756l-.4188-7.9515c3.3263-.1328 6.2252-.9604 8.3969-1.8376l.521 8.0178c-2.2109.8659-5.1436 1.6695-8.4991 1.7712l.4702 8.9269c3.3983-.1127 6.3671-.9484 8.6041-1.8461l.4751 7.3113c-1.8198.8109-5.1628 2.0984-8.658 2.5274z"/></svg>