<svg height="64" viewBox="0 0 64 64" width="64" xmlns="http://www.w3.org/2000/svg"><path d="m0 0h64v64h-64z" fill="none"/><path d="m59 2h-27c-.5523 0-1 .4477-1 1v3.4957c0 .3195.0493.6348.1505.9379.4702 1.4078 1.965 6.2806 3.379 15.1547.2132 1.338.3961 2.6447.5529 3.9072 2.4185 2.9485 4.1179 7.037 4.1179 12.6047 0 5.8532-.9058 10.5441-2.0881 14.2139.5168.4222 1.1683.6859 1.8878.6859h13c1.6569 0 3-1.3431 3-3v-7.4088c-1.0952-.2111-5.8893-1.137-6.1702-1.2272-.3172-.1017-.2708-.3078-.2499-.364h6.4201s-.2353-8.7059 1.4706-19.4117c1.414-8.874 2.9088-13.7469 3.379-15.1547.1011-.303.1504-.6184.1504-.9379v-3.4957c0-.5523-.4477-1-1-1z"/><path d="m29.5544 24.5862c-1.5067-.2894-5.9089-1.1378-6.1717-1.2222-.3172-.1017-.2708-.3079-.2499-.3641h4.8672v-8.5381c0-3.5898-2.9102-4.4618-6.5-4.4618s-6.5.872-6.5 4.4619v8.8354c-4.3631 1.7881-10 5.9924-10 15.8027 0 12.9755 4.6037 19.9662 6.3442 22.1455.3819.4781.9541.7545 1.5661.7545h16.1794c.6119 0 1.1842-.2764 1.5661-.7545 1.7405-2.1793 6.3442-9.17 6.3442-22.1455 0-7.9619-3.7137-12.2311-7.4456-14.5138zm-1.9783 14.9939c.3984.8575.6272 1.8099.6272 2.8177 0 3.7021-3.0012 6.7033-6.7033 6.7033s-6.7033-3.0012-6.7033-6.7033c0-1.0078.2288-1.9601.6272-2.8177-1.7032-.0139-3.0804-1.3966-3.0804-3.1032 0-1.7152 1.3905-3.1057 3.1057-3.1057 1.6846 0 3.0482 1.3434 3.0967 3.0162.8922-.4394 1.8924-.6929 2.9541-.6929s2.062.2535 2.9541.6929c.0485-1.6728 1.4121-3.0162 3.0967-3.0162 1.7152 0 3.1057 1.3905 3.1057 3.1057.0001 1.7066-1.3772 3.0893-3.0804 3.1032z"/><circle cx="21.5" cy="45.1716" r="1.5529"/><circle cx="18.9565" cy="40.6553" r="1.2717"/><circle cx="24.0435" cy="40.6553" r="1.2717"/></svg>