<?xml version="1.0" encoding="utf-8"?>
<!-- Generator: Adobe Illustrator 19.1.0, SVG Export Plug-In . SVG Version: 6.00 Build 0)  -->
<svg version="1.2" baseProfile="tiny" xmlns="http://www.w3.org/2000/svg" xmlns:xlink="http://www.w3.org/1999/xlink" x="0px"
	 y="0px" width="64px" height="64px" viewBox="0 0 64 64" xml:space="preserve">
<g id="_x36_4px_Box">
	<rect fill="none" width="64" height="64"/>
</g>
<g id="Icon">
	<path d="M45,26h-3V15c0-1.7-1.3-3-3-3h-0.9C35.2,8.5,35,5.4,35,4c0-1.5,0.1-3-3-3c-3.1,0-3,1.5-3,3c0,1.4-0.2,4.5-3.1,8H25
		c-1.7,0-3,1.3-3,3v9.2c2,0.4,6.5,1.4,6.7,1.4c0.3,0.1,0.3,0.3,0.2,0.4H19c-2.2,0-4,1.8-4,4v29c0,2.2,1.8,4,4,4h26c2.2,0,4-1.8,4-4
		V30C49,27.8,47.2,26,45,26z M41.8,42.4c0.8,8.4-3.7,10.7-7.1,10.4c-3.3-0.3-5.3-2.9-4.4-5.5c1-3,4.1-2.2,4.2-1.3
		c-1.9,0.1-2.1,2.2-1.4,3.1c1,1.3,4.8,1.5,5-2.3c0.2-3.8-2.3-5.7-5.8-5.2c-4.2,0.6-5.8,5-5.4,7.9c0.4,3.2,3.2,5.6,6.2,6
		c4,0.5,7.3-2.3,8.1-3.5c-0.8,5.9-10.7,9.2-15.9,2.1c-2.7-3.7-1.2-6.6-3.8-7.7c-1.4-0.6-3,0-3,0c0.8-2,2.7-3.3,5.3-2.1
		c1.6-3.9,3-4.8,4.9-6.6c2.1-2.1-0.8-4.7-2.6-3.7c-0.9,0.5-0.6,2,0.1,2.8c-1.5,0.6-4-2-2.3-4.3c1.1-1.5,3-1.8,4.9-1.2
		c2.7,0.7,3.5,3.4,6.6,5.9c1.5,1.2,3.6,2,4.4-0.2c0.5-1.2-1-2.9-1-2.9s3.6,0.2,4.8,3.8C44.9,41.3,41.8,42.4,41.8,42.4z"/>
</g>
</svg>
