<svg enable-background="new 0 0 64 64" height="64" viewBox="0 0 64 64" width="64" xmlns="http://www.w3.org/2000/svg"><path d="m0 0h64v64h-64z" fill="none"/><path d="m56.6 57.1-7.9-33.6c-.2-.9-1-1.5-1.9-1.5h-8.8c2.4-1.8 4-4.7 4-8 0-5.5-4.5-10-10-10s-10 4.5-10 10c0 2.5.9 4.7 2.4 6.5l5.8 1.1c.3.1.3.3.2.4h-13.1c-.9 0-1.7.6-1.9 1.5l-8 33.6c-.3 1.1.4 2.1 1.5 2.4 3.4.9 11.4 2.5 23.3 2.5 11.8 0 19.6-1.6 22.9-2.5 1.1-.2 1.7-1.3 1.5-2.4zm-29.1-9.1-3.8-5.7h-.5v5.7h-3.3v-14h3.3v5.5h.4l4-5.5h3.9l-5 6.6 5.1 7.4zm4.5-30c-2.2 0-4-1.8-4-4s1.8-4 4-4 4 1.8 4 4-1.8 4-4 4zm12.1 29.7-.4.1c-1.3.3-2.6.4-4 .4-4.4 0-7-2.5-7-6.8 0-4.7 2.9-7.6 7.6-7.6 1.2 0 2.1.1 3.1.3l.4.1-.3 2.9-.5-.1c-1.1-.2-1.8-.2-2.8-.2-2.6 0-4.1 1.6-4.1 4.3 0 3.1 1.9 4.2 3.6 4.2h1.1v-1.8h-2v-2.9h5.3z"/></svg>