<svg height="64" viewBox="0 0 64 64" width="64" xmlns="http://www.w3.org/2000/svg"><path d="m0 0h64v64h-64z" fill="none"/><path d="m51.0909 29h-1.0909v-5c0-9.9248-8.0747-18-18-18s-18 8.0752-18 18v3.4921c1.3.2509 5.4673 1.0579 5.7349 1.1438.3172.1018.2708.3079.2499.3641h-7.0757c-1.0544 0-1.9091.8547-1.9091 1.9091v23.6039c0 .9282.6664 1.7191 1.5804 1.8807 3.0444.5383 10.2403 1.6063 19.4196 1.6063s16.3752-1.068 19.4196-1.6064c.914-.1616 1.5804-.9525 1.5804-1.8807v-23.6038c0-1.0544-.8547-1.9091-1.9091-1.9091zm-29.0909-5c0-5.5137 4.4858-10 10-10s10 4.4863 10 10v3.4921c1.3.2509 5.4673 1.0579 5.7349 1.1438.3172.1018.2708.3079.2499.3641h-25.9848zm10.3837 27.2563c-.2384.1248-.5291.1248-.7675 0-9.0766-4.7544-9.3348-13.2939-5.4622-15.015 3.9264-1.7451 5.846 2.0067 5.846 2.0067s1.9196-3.7519 5.8459-2.0068c3.8726 1.7212 3.6144 10.2607-5.4622 15.0151z"/></svg>