<svg height="64" viewBox="0 0 64 64" width="64" xmlns="http://www.w3.org/2000/svg"><path d="m0 0h64v64h-64z" fill="none"/><path d="m41.0229 23.2972s-7.7729-2.5472-11.1739-3.7014c-2.2825-.7746-3.8487-3.0414-3.8487-5.5959 0-3.3137 2.6863-6 6-6s6 2.6863 6 6v3c0 1.6569 1.3431 2 3 2s2.9896-.3431 2.9896-2l.0004-3c.0001-6.7019-5.2593-11.9979-11.9903-11.9979-6.6 0-11.9996 5.2266-11.9996 11.998v36c-.0002 6.6072 5.3924 11.9979 11.9996 11.9979 6.6875 0 12.0004-5.2957 12.0004-11.9979v-22.6273c0-1.8616-1.204-3.5095-2.9775-4.0755zm.3619 16.3722c-1.8168 2.4372-2.1848 3.2241-2.8867 4.8589-.6045 1.4126-1.2285 2.873-2.5674 4.042-1.1123.9722-2.7168 1.5298-4.4004 1.5298-2.4805 0-4.6338-1.2144-5.7588-3.248-.75-1.3564-.8711-3.1309-.8711-6.8521l.0625-6.1299c.0146-.5371.4861-.9624 1.0213-.9702.5449 0 .9814.4131 1.0098.9409l.0801 5.1568c.2939-.165.5145-.2882.8016-.4078l.1201-7.7183c.0137-.5376.4759-.9639 1.013-.9717.5459 0 .9834.4141 1.0117.9429l.0752 7.1221c.2725-.0498.542-.0918.8066-.1235l.0947-7.9692c.0137-.5381.4453-.9644.9824-.9722.5459 0 .9936.4141 1.0219.9429l.1055 7.8994c.2969.0068.5572.0205.7964.0376l.0879-6.9048c.0146-.5396.4584-.9673.9965-.9751.5469 0 .9863.4155 1.0146.9463l.1074 9.1528c.0192.3522.0032 1.1708.3033 1.3506.1542.0936.4313.0745.6973-.248.9748-1.1959 1.4852-1.8826 2.3574-2.6763.5542-.5048 1.3994-.9362 1.9648-.4639.178.1475.6994.7066-.0476 1.708z"/></svg>