<svg height="64" viewBox="0 0 64 64" width="64" xmlns="http://www.w3.org/2000/svg"><path d="m0 0h64v64h-64z" fill="none"/><path d="m52 29h-1v-6c0-10.4766-8.5234-19-19-19s-19 8.5234-19 19v4.6857c1.7409.3377 4.5183.8807 4.7349.9503.3172.1017.2708.3079.2499.3641h-5.9848c-1.1046 0-2 .8954-2 2v24.3469c0 .9724.6982 1.8009 1.6557 1.9702 3.1893.564 10.7279 1.6828 20.3443 1.6828s17.155-1.1188 20.3443-1.6829c.9575-.1693 1.6557-.9978 1.6557-1.9702v-24.3469c0-1.1046-.8954-2-2-2zm-31-6c0-6.0654 4.9346-11 11-11s11 4.9346 11 11v4.6857c1.7409.3377 4.5183.8807 4.7349.9503.3172.1017.2708.3079.2499.3641h-26.9848zm13 21.6718v6.3282h-4v-6.3282c-1.3046-.7126-2.2-2.0804-2.2-3.6718 0-2.3196 1.8805-4.2 4.2-4.2 2.3196 0 4.2 1.8804 4.2 4.2 0 1.5913-.8954 2.9592-2.2 3.6718z"/></svg>