<svg height="64" viewBox="0 0 64 64" width="64" xmlns="http://www.w3.org/2000/svg"><path d="m0 0h64v64h-64z" fill="none"/><path d="m60 42h-56c-.5523 0-1 .4477-1 1v12c0 .5523.4477 1 1 1h56c.5522 0 1-.4477 1-1v-12c0-.5523-.4478-1-1-1zm-27 7.7792v2.2208h-2v-2.2208c-.6238-.3515-1.05-1.0122-1.05-1.7792 0-1.1322.9178-2.05 2.05-2.05s2.05.9178 2.05 2.05c0 .767-.4262 1.4277-1.05 1.7792z"/><path d="m57 40v-6.6667c0-.8655-.2807-1.7076-.8-2.4l-5.2-6.9333-1.5177-7.5883c-.2805-1.4023-1.5117-2.4117-2.9417-2.4117h-13.9821c.8642-1.9385 1.5291-4.2758 1.0494-7.3125l-.2671-1.6875h-13.3691l.3652 2.3125c.4413 2.7916-.4664 4.622-1.5554 6.6875h-1.3221c-1.4301 0-2.6613 1.0094-2.9418 2.4117l-1.5176 7.5883-5.2 6.9333c-.5193.6924-.8 1.5345-.8 2.4v6.6667zm-22-23h11.5405l1.0001 5h-12.5406zm-5.5809 8h-9.3201c-4.4963-8 3.4779-10 2.2132-18h9.3201c1.2647 8-6.7094 10-2.2132 18z"/></svg>