<svg viewBox="0 0 64 64" xmlns="http://www.w3.org/2000/svg"><path d="m0 0h64v64h-64z" fill="none"/><path d="m52.82 40a8.08 8.08 0 0 0 -1.64.18 20.67 20.67 0 0 0 -2.48-2.84c-1-1-20.15-17.72-28.93-25.36l-2.87-2.5a6.79 6.79 0 0 0 -8.26-1c-2.18 1.2-4.08 2.25-4.73 2.64l-.25.14.12.27a3 3 0 0 0 1.53 1.47 1.82 1.82 0 0 0 1.52-.22s2.41-1.3 3.28-1.78 2.52-1.4 5 .88l2.56 2.25 3.37 2.93 6.4 5.34a.43.43 0 0 1 -.6.08c-2.54-1.37-3.17-1.65-4-1.65s-1.64.92-1.48 3.48c.22 4.15.54 8.88.89 10.67l-4.85 5.67a7.33 7.33 0 0 0 -3-.63 7.52 7.52 0 1 0 7.6 7.52 7.42 7.42 0 0 0 -1.26-4.16l-2.06 2.38a4.44 4.44 0 0 1 .32 1.78 4.58 4.58 0 1 1 -4.56-4.54 4.83 4.83 0 0 1 .94.1l-1.38 1.58c-1.66 2 .55 4.09.55 4.09l1.54-2 1.91-2.17 1.92-2.26 3.27-3.82a22.1 22.1 0 0 0 1 2.73c1.08 1.92 3.42 1.68 5.87 1.47l10-1a2.36 2.36 0 0 0 2.41-2.21c0-1.13-.48-1.93-3.09-5.92-.25-.37-.29-.65-.06-.9l6.43 5.66s.67.62 1.39 1.35a14.34 14.34 0 0 1 3.69 5.37.42.42 0 0 1 0 .1 8.31 8.31 0 0 1 .4 1.4 2.13 2.13 0 0 0 2.25 1.92h.73v-.32a12 12 0 0 0 -1.36-5.17 4.58 4.58 0 1 1 -4.61 4.58 5.05 5.05 0 0 1 1-2.85 5.83 5.83 0 0 0 -1.62-2.34 6.3 6.3 0 0 0 -2.31 5.19 7.52 7.52 0 1 0 7.51-7.58z"/></svg>