<svg viewBox="0 0 64 64" xmlns="http://www.w3.org/2000/svg"><path d="m0 0h64v64h-64z" fill="none"/><path d="m52.93 35.85-17.22-7.75a8.6 8.6 0 0 0 -1.86-.59v-2a1.5 1.5 0 0 1 .93-1.31 6.31 6.31 0 0 0 -1.31-11.8 6.61 6.61 0 0 0 -1.47-.17 6.38 6.38 0 0 0 -4 1.38 6.28 6.28 0 0 0 -2.39 4.94 1.85 1.85 0 1 0 3.7 0 2.62 2.62 0 0 1 2.69-2.63 2.94 2.94 0 0 1 .65.07 2.62 2.62 0 0 1 1.92 1.92 2.66 2.66 0 0 1 -1.41 3 5.15 5.15 0 0 0 -3 4.62v2a8.6 8.6 0 0 0 -1.86.59l-17.23 7.73a6.46 6.46 0 0 0 2.67 12.36h36.52a6.46 6.46 0 0 0 2.67-12.36zm-2.67 8.67h-36.52a2.77 2.77 0 0 1 -1.15-5.31l17.22-7.74a5.24 5.24 0 0 1 4.38 0l17.22 7.74a2.77 2.77 0 0 1 -1.15 5.31z"/></svg>