<?xml version="1.0" encoding="utf-8"?>
<!-- Generator: Adobe Illustrator 21.0.2, SVG Export Plug-In . SVG Version: 6.00 Build 0)  -->
<!DOCTYPE svg PUBLIC "-//W3C//DTD SVG 1.1//EN" "http://www.w3.org/Graphics/SVG/1.1/DTD/svg11.dtd">
<svg version="1.1" xmlns="http://www.w3.org/2000/svg" xmlns:xlink="http://www.w3.org/1999/xlink" x="0px" y="0px" width="64px"
	 height="64px" viewBox="0 0 64 64" style="enable-background:new 0 0 64 64;" xml:space="preserve">
<style type="text/css">
	.st0{fill:none;}
</style>
<g id="Box">
	<rect class="st0" width="64" height="64"/>
</g>
<g id="Icon">
	<g>
		<path d="M55.3,31.5l-4-6.9c-0.3-0.4-0.6-0.8-1-1.1c-0.2,1.1-0.6,2.1-1.3,2.9L27.3,52.2l26.5-15.3C55.8,35.8,56.4,33.4,55.3,31.5z"
			/>
		<path d="M27.7,48.6l19.8-23.5c1.4-1.7,1.2-4.2-0.5-5.6l-6.1-5.1c-0.4-0.3-0.8-0.5-1.3-0.7c0.2,1,0.1,2.1-0.3,3.1L27.7,48.6z"/>
		<path d="M37.5,16c0.8-2.1-0.3-4.4-2.4-5.1l-7.5-2.7c-0.5-0.2-0.9-0.2-1.4-0.2C26.7,8.8,27,9.9,27,11v33.8L37.5,16z"/>
		<path d="M21,7h-2v10h-4V7h-2c-2.2,0-4,1.8-4,4v42c0,2.2,1.8,4,4,4h8c2.2,0,4-1.8,4-4V11C25,8.8,23.2,7,21,7z M17,52
			c-1.7,0-3-1.3-3-3s1.3-3,3-3s3,1.3,3,3S18.7,52,17,52z"/>
	</g>
</g>
</svg>
