<svg height="64" viewBox="0 0 64 64" width="64" xmlns="http://www.w3.org/2000/svg"><path d="m0 0h64v64h-64z" fill="none"/><path d="m48.8998 6h-3.8998l-2-2h-25l-2 2h-3c-.5522 0-1 .4477-1 1v3c0 .5523.4478 1 1 1h2.1912 11.7996c.0254.0684.0818.3193-.3043.4432l-11.3117 1.4275 4.3596 44.4222c.1507 1.5361 1.4422 2.7071 2.9856 2.7071h13.8411c-1.0748-1.3819-1.7211-3.1136-1.7211-5 0-4.5073 3.6548-8.16 8.16-8.16 1.0605 0 2.0705.2086 2.9999.5766v-36.4166h1.1301c.557 0 1.0911-.1844 1.485-.5126l1.7698-1.4748c.3939-.3282.6152-.7733.6152-1.2375v-.025c0-.9665-.9402-1.7501-2.1002-1.7501zm-33.3307 7.4722v-.0466c.0008.0151.0018.0314.0026.0466z"/><circle cx="43.0001" cy="55" r="5.94"/></svg>