<?xml version="1.0" encoding="utf-8"?>
<!-- Generator: Adobe Illustrator 17.1.0, SVG Export Plug-In . SVG Version: 6.00 Build 0)  -->
<svg version="1.2" baseProfile="tiny" xmlns="http://www.w3.org/2000/svg" xmlns:xlink="http://www.w3.org/1999/xlink" x="0px"
	 y="0px" width="64px" height="64px" viewBox="0 0 64 64" xml:space="preserve">
<g id="_x36_4px_Boxes">
	<rect fill="none" width="64" height="64"/>
</g>
<g id="Label">
</g>
<g id="Production">
	<g>
		<path d="M48.8998,6H45l-2-2H18l-2,2h-3c-0.5522,0-1,0.4477-1,1v3c0,0.5523,0.4478,1,1,1h2.1912h11.7996
			c0.0254,0.0684,0.0818,0.3193-0.3043,0.4432l-11.3117,1.4275l4.3596,44.4222C19.8851,58.829,21.1766,60,22.72,60h13.8411
			c-1.0748-1.3819-1.7211-3.1136-1.7211-5c0-4.5073,3.6548-8.16,8.16-8.16c1.0605,0,2.0705,0.2086,2.9999,0.5766V11h1.1301
			c0.557,0,1.0911-0.1844,1.485-0.5126l1.7698-1.4748C50.7787,8.6844,51,8.2393,51,7.7751v-0.025C51,6.7836,50.0598,6,48.8998,6z
			 M15.5691,13.4722v-0.0466c0.0008,0.0151,0.0018,0.0314,0.0026,0.0466H15.5691z"/>
		<circle cx="43.0001" cy="55" r="5.94"/>
	</g>
</g>
</svg>
