<?xml version="1.0" encoding="utf-8"?>
<!-- Generator: Adobe Illustrator 19.2.0, SVG Export Plug-In . SVG Version: 6.00 Build 0)  -->
<svg version="1.0" xmlns="http://www.w3.org/2000/svg" xmlns:xlink="http://www.w3.org/1999/xlink" x="0px" y="0px"
	 viewBox="0 0 64 64" enable-background="new 0 0 64 64" xml:space="preserve">
<g id="achtergrond">
</g>
<g id="paneel_1">
	<path d="M40.3794,44.1041c-0.8218-0.0001-1.6047,0.1593-2.3276,0.4389c-0.3418,0.1039-0.5347,0.187-0.5347,0.187
		s-0.0066-0.2156,0.1104-0.3908c0.1775-0.2661,0.6511-0.5557,1.9917-1.0397c0.8071-0.2916,1.6628-0.4489,2.1851-0.5202v-3.5518
		V21.6579h1.3276c0.8683,0,1.5726-0.7042,1.5726-1.5727v-1.2588c1.3846,0,2.5067-1.1224,2.5067-2.5069
		c0-1.3847-1.1221-2.5071-2.5067-2.5071c-1.0331,0-1.9198,0.6251-2.3037,1.5176c-0.1014-0.0764-0.2146-0.1415-0.3392-0.1906
		L21.5752,7.0972c-0.7183-0.2818-1.5217,0.0526-1.7942,0.747l-0.5348,1.3624c-0.2729,0.6944,0.0885,1.486,0.807,1.7679
		l14.8616,5.8344H18.3615c-0.8685,0-1.5726,0.7039-1.5726,1.5726v1.7037c0,0.8685,0.7041,1.5727,1.5726,1.5727h0.8932L22,57h5l2-2
		h6.6917c0.5933,0.6266,1.3076,1.136,2.1099,1.4858c0.4375,0.2147,0.9185,0.3556,1.4576,0.4347
		c0.3645,0.0638,0.7374,0.1035,1.1202,0.1035c3.5676,0,6.4604-2.8929,6.4604-6.4599C46.8398,46.9959,43.947,44.1041,40.3794,44.1041
		z M40.3795,53.3162c-1.5201,0-2.7521-1.2325-2.7521-2.7521c0-1.5202,1.2319-2.7524,2.7521-2.7521
		c1.5199,0,2.7523,1.2319,2.7523,2.7521C43.1318,52.0837,41.8994,53.3162,40.3795,53.3162z"/>
</g>
</svg>
