<?xml version="1.0" encoding="utf-8"?>
<!-- Generator: Adobe Illustrator 18.1.0, SVG Export Plug-In . SVG Version: 6.00 Build 0)  -->
<svg version="1.2" baseProfile="tiny" xmlns="http://www.w3.org/2000/svg" xmlns:xlink="http://www.w3.org/1999/xlink" x="0px"
	 y="0px" width="64px" height="64px" viewBox="0 0 64 64" xml:space="preserve">
<g id="_x36_4px_Boxes">
	<rect fill="none" width="64" height="64"/>
</g>
<g id="Production">
	<g>
		<path d="M21.6078,38.8078L7.6068,52.809c-1.7829,1.783-0.9678,3.6609,0.553,5.1799c1.5205,1.522,3.3995,2.337,5.1816,0.5549
			l14.0311-14.031c-1.6198-1.5766-3.3477-3.2805-5.2089-5.1417C21.9708,39.1783,21.7932,38.9957,21.6078,38.8078z"/>
		<path d="M59.9088,20.7654c-1.6085,2.2426-3.8425,4.7186-6.3176,5.5969c-0.0126,0.0045-0.0223,0.0104-0.0349,0.015l-2.3699-2.3656
			c1.5963-1.4421,3.9683-4.1213,5.0464-8.0302c0.33-1.1966-1.2936-1.9177-2.0171-0.9091c-1.6085,2.2427-3.8425,4.7187-6.3176,5.5969
			c-0.0155,0.0055-0.0279,0.0113-0.0432,0.0168l-2.4899-2.4854c1.5963-1.4409,3.9726-4.1215,5.052-8.0351
			c0.3301-1.1967-1.2936-1.9178-2.017-0.9091c-1.6085,2.2427-3.8425,4.7186-6.3176,5.5969
			c-0.0182,0.0065-0.0328,0.0132-0.0508,0.0198l-2.5416-2.537c1.5963-1.4396,3.9769-4.1217,5.0576-8.04
			c0.3301-1.1966-1.2936-1.9177-2.017-0.9091c-1.6085,2.2427-3.8425,4.7187-6.3176,5.5969c-0.6199,0.22-1.7348,0.6484-2.1993,1.1141
			c-0.8917,0.8931-0.8903,2.3401,0.0028,3.2314l6.5405,6.5288l-9.1288,9.1288c0.1869,0.1844,0.3712,0.3649,0.5629,0.5566
			c1.8306,1.8306,3.5421,3.5644,5.1421,5.2081l7.749-7.749l-2.9184-5.2578c-0.1392-0.2708-0.0051-0.3842,0.0611-0.4216
			l9.7553,9.7378c0.6625,0.6618,1.6982,0.8966,2.6533,0.4064c2.305-0.9979,6.1702-5.0007,7.4921-9.7934
			C62.2559,20.4778,60.6322,19.7567,59.9088,20.7654z"/>
		<path d="M23.7861,25.8107l-4.8087,2.2303c-0.3524,0.1308-0.4092-0.0262-0.4342-0.0807l3.416-3.416
			c0.0029-2.6784-1.0818-6.2285-3.4734-8.8751c-4.0023-4.4292-9.7073-1.7009-12.4298-8.5776
			c-0.1812-0.4576-0.8303-0.4293-0.9543,0.047c-0.8983,3.4504-2.494,11.8497,1.5453,16.9543
			c3.358,4.2436,7.5911,5.1316,10.3585,4.853c0.9705,1.8716,3.077,4.5258,7.0674,8.5161
			c20.0653,20.0653,26.4277,23.7374,28.087,22.078s-1.9529-7.962-22.078-28.0871C27.4592,28.8303,25.4128,27.0202,23.7861,25.8107z"
			/>
	</g>
</g>
</svg>
