<svg height="64" viewBox="0 0 64 64" width="64" xmlns="http://www.w3.org/2000/svg"><path d="m0 0h64v64h-64z" fill="none"/><path d="m21.6078 38.8078-14.001 14.0012c-1.7829 1.783-.9678 3.6609.553 5.1799 1.5205 1.522 3.3995 2.337 5.1816.5549l14.0311-14.031c-1.6198-1.5766-3.3477-3.2805-5.2089-5.1417-.1928-.1928-.3704-.3754-.5558-.5633z"/><path d="m59.9088 20.7654c-1.6085 2.2426-3.8425 4.7186-6.3176 5.5969-.0126.0045-.0223.0104-.0349.015l-2.3699-2.3656c1.5963-1.4421 3.9683-4.1213 5.0464-8.0302.33-1.1966-1.2936-1.9177-2.0171-.9091-1.6085 2.2427-3.8425 4.7187-6.3176 5.5969-.0155.0055-.0279.0113-.0432.0168l-2.4899-2.4854c1.5963-1.4409 3.9726-4.1215 5.052-8.0351.3301-1.1967-1.2936-1.9178-2.017-.9091-1.6085 2.2427-3.8425 4.7186-6.3176 5.5969-.0182.0065-.0328.0132-.0508.0198l-2.5416-2.537c1.5963-1.4396 3.9769-4.1217 5.0576-8.04.3301-1.1966-1.2936-1.9177-2.017-.9091-1.6085 2.2427-3.8425 4.7187-6.3176 5.5969-.6199.22-1.7348.6484-2.1993 1.1141-.8917.8931-.8903 2.3401.0028 3.2314l6.5405 6.5288-9.1288 9.1288c.1869.1844.3712.3649.5629.5566 1.8306 1.8306 3.5421 3.5644 5.1421 5.2081l7.749-7.749-2.9184-5.2578c-.1392-.2708-.0051-.3842.0611-.4216l9.7553 9.7378c.6625.6618 1.6982.8966 2.6533.4064 2.305-.9979 6.1702-5.0007 7.4921-9.7934.3303-1.1964-1.2934-1.9175-2.0168-.9088z"/><path d="m23.7861 25.8107-4.8087 2.2303c-.3524.1308-.4092-.0262-.4342-.0807l3.416-3.416c.0029-2.6784-1.0818-6.2285-3.4734-8.8751-4.0023-4.4292-9.7073-1.7009-12.4298-8.5776-.1812-.4576-.8303-.4293-.9543.047-.8983 3.4504-2.494 11.8497 1.5453 16.9543 3.358 4.2436 7.5911 5.1316 10.3585 4.853.9705 1.8716 3.077 4.5258 7.0674 8.5161 20.0653 20.0653 26.4277 23.7374 28.087 22.078s-1.9529-7.962-22.078-28.0871c-2.6227-2.6226-4.6691-4.4327-6.2958-5.6422z"/></svg>