<svg height="64" viewBox="0 0 64 64" width="64" xmlns="http://www.w3.org/2000/svg"><path d="m0 0h64v64h-64z" fill="none"/><path d="m30.6759 12h1.6482c.894 0 1.5895-.7771 1.4908-1.6656l-.6509-5.8585c-.0934-.8402-.8036-1.4759-1.649-1.4759h-.03c-.8454 0-1.5556.6357-1.649 1.4759l-.6509 5.8585c-.0987.8885.5968 1.6656 1.4908 1.6656z"/><path d="m14.1896 18.4634c.5585.6981 1.5998.7558 2.2319.1237l1.1655-1.1655c.6321-.6321.5745-1.6735-.1236-2.232l-4.6028-3.6823c-.6602-.5281-1.6118-.4754-2.2097.1224l-.0212.0212c-.5978.5978-.6505 1.5495-.1224 2.2097z"/><path d="m48.8104 46.5366c-.5585-.6981-1.5998-.7558-2.2319-.1236l-1.1655 1.1655c-.6321.6321-.5745 1.6735.1236 2.2319l4.6028 3.6823c.6602.5281 1.6118.4754 2.2097-.1224l.0212-.0212c.5978-.5978.6505-1.5494.1224-2.2096z"/><path d="m11 33.3241v-1.6482c0-.894-.7771-1.5896-1.6656-1.4908l-5.8585.6509c-.8402.0934-1.4759.8036-1.4759 1.649v.03c0 .8454.6357 1.5556 1.4759 1.649l5.8585.6509c.8885.0987 1.6656-.5968 1.6656-1.4908z"/><path d="m59.5241 30.836-5.8585-.6509c-.8885-.0988-1.6656.5968-1.6656 1.4908v1.6482c0 .894.7771 1.5895 1.6656 1.4908l5.8585-.6509c.8402-.0934 1.4759-.8036 1.4759-1.649v-.03c0-.8454-.6357-1.5556-1.4759-1.649z"/><path d="m16.4216 46.413c-.6321-.6322-1.6735-.5745-2.2319.1236l-3.6823 4.6028c-.5281.6602-.4755 1.6118.1224 2.2096l.0212.0212c.5978.5978 1.5495.6505 2.2097.1224l4.6028-3.6823c.6981-.5585.7557-1.5998.1236-2.2319z"/><path d="m46.5784 18.587c.6321.6321 1.6735.5745 2.2319-.1237l3.6823-4.6028c.5281-.6602.4755-1.6119-.1224-2.2097l-.0212-.0212c-.5978-.5978-1.5495-.6505-2.2097-.1224l-4.6028 3.6823c-.6981.5585-.7557 1.5999-.1236 2.232z"/><path d="m47 32.5c0-8.5604-6.9396-15.5-15.5-15.5s-15.5 6.9396-15.5 15.5c0 6.236 3.6909 11.5975 9 14.0571v8.5474c0 .8795.5726 1.6557 1.4137 1.9127l1.5863.4849v1.4979c0 .5522.4477 1 1 1h5c.5523 0 1-.4478 1-1v-1.4995l1.582-.4833c.841-.2569 1.418-1.0332 1.418-1.9126v-8.5474c5.3091-2.4597 9-7.8212 9-14.0572zm-6.9388-5.8913c-1.6138-1.0153-3.5186-1.6087-5.5661-1.6087-5.799 0-10.5 4.701-10.5 10.5 0 1.9636.5508 3.7927 1.491 5.3629l-.0078-.0029s-.0835.2077-.3978.0859c-1.037-.4018-4.3027-3.6539-4.3027-8.446 0-5.9217 4.8005-10.7222 10.7222-10.7222 4.9298 0 8.2186 3.4644 8.6406 4.4722.1068.255-.0261.3366-.0794.3588z"/></svg>