<?xml version="1.0" encoding="utf-8"?>
<!-- Generator: Adobe Illustrator 19.1.0, SVG Export Plug-In . SVG Version: 6.00 Build 0)  -->
<svg version="1.2" baseProfile="tiny" xmlns="http://www.w3.org/2000/svg" xmlns:xlink="http://www.w3.org/1999/xlink" x="0px"
	 y="0px" width="64px" height="64px" viewBox="0 0 64 64" xml:space="preserve">
<g id="_x36_4px_Box">
	<rect fill="none" width="64" height="64"/>
</g>
<g id="Icon">
	<g>
		<path d="M32,25c-10.4934,0-19,8.5066-19,19s8.5066,19,19,19s19-8.5066,19-19S42.4934,25,32,25z M32.4438,54.0359
			c-0.2757,0.1444-0.6119,0.1444-0.8876,0c-10.4971-5.4984-10.7957-15.3744-6.317-17.3649C29.7799,34.6528,32,38.9919,32,38.9919
			s2.22-4.3391,6.7608-2.3209C43.2395,38.6615,42.9409,48.5375,32.4438,54.0359z"/>
		<path d="M49,14.6606V1h-6v17.4706l4.7615-1.9606C48.5109,16.2014,49,15.4711,49,14.6606z"/>
		<path d="M16.2385,16.5099L21,18.4706V1h-6v13.6606C15,15.4711,15.4891,16.2014,16.2385,16.5099z"/>
		<path d="M33.1423,22.5297L40,19.7059V1H24v18.7059l6.8577,2.8238C31.5895,22.8309,32.4105,22.8309,33.1423,22.5297z"/>
	</g>
</g>
</svg>
