<svg height="64" viewBox="0 0 64 64" width="64" xmlns="http://www.w3.org/2000/svg"><path d="m0 0h64v64h-64z" fill="none"/><path d="m32 25c-10.4934 0-19 8.5066-19 19s8.5066 19 19 19 19-8.5066 19-19-8.5066-19-19-19zm.4438 29.0359c-.2757.1444-.6119.1444-.8876 0-10.4971-5.4984-10.7957-15.3744-6.317-17.3649 4.5407-2.0182 6.7608 2.3209 6.7608 2.3209s2.22-4.3391 6.7608-2.3209c4.4787 1.9905 4.1801 11.8665-6.317 17.3649z"/><path d="m49 14.6606v-13.6606h-6v17.4706l4.7615-1.9606c.7494-.3086 1.2385-1.0389 1.2385-1.8494z"/><path d="m16.2385 16.5099 4.7615 1.9607v-17.4706h-6v13.6606c0 .8105.4891 1.5408 1.2385 1.8493z"/><path d="m33.1423 22.5297 6.8577-2.8238v-18.7059h-16v18.7059l6.8577 2.8238c.7318.3012 1.5528.3012 2.2846 0z"/></svg>