<svg enable-background="new 0 0 64 64" viewBox="0 0 64 64" xmlns="http://www.w3.org/2000/svg"><path d="m0 0h64v64h-64z" fill="none"/><path d="m52 20.1v-9.6c0-3.6-9-4.5-20-4.5s-20 .9-20 4.5v7.2c4.3.8 10.5 1.9 10.7 1.9.4.1.3.4.3.4h-.4-9.9c-4.2 0-7.7 3.5-7.7 7.7v18.9c0 9.6 20.7 10.4 27 10.4 9 0 27-1.5 27-10.4v-18.9c0-4-3.1-7.2-7-7.6zm3 26.4c0 4.2-11.9 6.5-23 6.5s-23-2.2-23-6.5v-18.8c0-2 1.7-3.7 3.8-3.7h38.5c2.1 0 3.8 1.7 3.8 3.7v18.8zm-23-16.3c-5.7 0-11 3.4-14.9 7.6 3.5 5 8.9 9.9 14.9 9.9s11.4-4.9 14.9-9.9c-3.9-4.1-9.2-7.6-14.9-7.6zm0 14.6c-4.9 0-9.3-4.6-11-6.6 1.3-1.2 4-3.3 7.3-4.3-.9.9-1.4 2.2-1.4 3.5 0 2.8 2.3 5.1 5.1 5.1s5.1-2.3 5.1-5.1c0-1.4-.6-2.6-1.4-3.5 3.3 1 6 3.1 7.3 4.3-1.7 2-6.1 6.6-11 6.6z"/></svg>