<svg height="64" viewBox="0 0 64 64" width="64" xmlns="http://www.w3.org/2000/svg"><path d="m0 0h64v64h-64z" fill="none"/><path d="m60.9997 15h-2v-1.0714c0-.5128-.4478-.9286-1-.9286h-1v-1c0-.5523-.4478-1-1-1h-4.0997c-.3344 0-.6466.1671-.8321.4453l-1.0364 1.5547h-41.0315v.0001c-3.2045 0-4 2.9999-4 2.9999l-2.0003 8.1938c0 .9639.6961 1.7617 1.6386 1.9636 5.0145 1.0742 3.4883 7.5133-.233 15.1802-1.8797 3.8728-2.3004 6.8646-2.3693 8.9652-.0667 2.0327 1.4601 3.6972 3.4938 3.6972h9.5305c2.058 0 3.8461-1.4145 4.3198-3.4172l2.6099-11.0337c1.7299.2948 3.3592.4509 4.8723.4509 4.1807 0 7.5234-1.1235 9.9775-3.3613 3.8972-3.5538 4.1438-8.7457 4.1102-10.6387h17.0497c.5522 0 1-.4157 1-.9286v-7.0714c.0713-.0273.333-.0685.4664.334l.9695 4.666h.5641c.5522 0 1-.4477 1-1v-6c0-.5523-.4478-1-1-1zm-26.8767 18.7021c-2.2642 2.2159-6.122 2.7732-11.2089 1.9392 0 0 .929-5.7982 3.1129-7.2312.6323 4.3561 4.7312 4.5899 4.7312 4.5899.5433 0 0-.6875 0-.6875-1.3696-2.1812-.6762-4.9795-.3663-5.9566 1.4512-.5324 6.6348-.3559 6.6348-.3559.0014 1.228-.3015 5.1555-2.9037 7.7021z"/></svg>