<svg enable-background="new 0 0 64 64" viewBox="0 0 64 64" xmlns="http://www.w3.org/2000/svg"><path d="m0 0h64v64h-64z" fill="none"/><path d="m53.7728 3.2131c-.0519.0819-.1035.162-.1553.2434-1.1857 1.8625-2.3579 3.6009-3.5152 5.2293-.08.1126-.1597.223-.2396.3343-.2012.2804-.4021.5583-.6025.8326-1.3491 1.8472-2.6765 3.5418-3.9795 5.1013-.2182.3383-.3843.727-.4584.9996-.2698.993.1467 1.8625.322 2.1653 0 0-.0838.0962-.2406-.0066-.0181-.0119-.0355-.0274-.0534-.0404-.4003-.289-.7428-.8268-.8927-1.3417-.0036-.0116-.0071-.0231-.0105-.0347-.0041-.0147-.0098-.0297-.0135-.0444-.0014-.0057-.0022-.0114-.0036-.0171-.0075-.0275-.0113-.0542-.0179-.0816-.1802-.7478-.0374-1.4253.0447-1.7101 0 0-.0054-.0032-.0133-.007-.0333-.0158-.1303-.0451-.2449.0789-.2752.2979-.4772.7501-.5795 1.2124-.1349.5243-.7396 1.9809-1.2197 2.6391-.2212.2342-.4415.4646-.661.6913-.9618.9935-1.9067 1.9148-2.834 2.7726-2.207 2.0416-4.3128 3.7202-6.2976 5.1269-1.2854.911-2.5198 1.7082-3.6989 2.4183l-1.5664 2.9699c-.082.1601-.1637.3159-.2451.4659-.1129.2082-.2252.4092-.3362.597-.0535.0906-.1068.157-.1584.2066-.1627.1562-.3083.1359-.3886.1054.1218-.557.2326-1.1171.338-1.6784.0725-.3861.1438-.7724.2092-1.1601.0207-.1229.0365-.2188.0487-.2961-2.233 1.2334-4.2271 2.1758-5.9415 3.0359-1.4347.7198-2.6742 1.3826-3.6918 2.1104-.1803.129-.3546.2598-.521.3935-.3696.2973-.7053.6077-1.0036.9395-1.0206 1.1357-1.5281 3.0855-1.5685 4.6441-.0088.3407.0567 1.4975.0999 1.8398.0953.7555.4822 2.0285.8465 2.7396.071.1387.1476.2757.2287.4112.4858-.4087 1.1064-.9214 1.6812-1.398.2162-.1865.4322-.3676.6479-.5444.0597-.0489.1191-.0956.1786-.1437.3616-.3032.6431-.5439.7639-.6596.1225-.1173 4.004-3.2558 4.3558-3.5598 1.8872-1.631 7.0913-5.1135 8.0778-5.9628.0178-.0153.0382-.0328.0536-.0461l.0167-.011c1.508-1.2257 2.8816-2.3383 3.2267-2.605 2.4859-2.0028 4.7529-3.9492 6.7923-5.7834.102-.0383.267-.0823.1205.1149-.3086.4149-.7474.9385-1.3136 1.5546-.2241.2438-.4695.503-.7342.7754-.4033.4149-.8526.8613-1.3493 1.3369-.1225.1173-.3806.3452-.7324.6492-1.8873 1.631-6.4807 5.4622-7.4669 6.3113-.0177.0153-.0381.0327-.0535.046l-.0167.011c-1.5081 1.2257-2.8817 2.3384-3.2268 2.6051-1.3052 1.0515-2.5483 2.0868-3.7315 3.0992-.1261.1156-.2527.2309-.3771.3483-1.3153 1.2415-2.5635 2.5514-3.7287 3.9299-.1472.1742-.5452.6372-1.0806 1.2596-.9713 1.1291-2.3966 2.785-3.6097 4.2076-.432.5066-.8365.9831-1.1845 1.3961-.5584.6628-.9704 1.1615-1.1099 1.3523-2.1674 2.601-4.5576 5.0067-6.9951 7.1943.0624.0944.2257.2421.6261.0665.4936-.2165 1.0316-.4814 1.6019-.7907.4034-.2188.8225-.4592 1.2556-.7233.4137-.2523.8398-.5263 1.2745-.8199.6622-.4473 1.3449-.9411 2.0381-1.482.2576-.201.7951-.7263 1.4789-1.424.5395-.5504 1.1708-1.209 1.8308-1.904.3074-.3237.6209-.6552.9343-.9874.8085-.8569 1.6159-1.7178 2.3122-2.4581.535-.5688 1.0024-1.0639 1.3556-1.4325.4955.4194 1.0003.7713 1.5128 1.062.1668.0946.3344.1831.5029.2649.8103.3934 1.6389.6367 2.4813.7439.9562.1217 1.9303.0654 2.9154-.1448 3.7236-.7943 7.606-3.8162 11.2901-8.0061-1.5588.8286-3.3427 1.1929-5.0109.8156-.4793-.1084-.9495-.2748-1.4014-.513.1162.0109.2332.0174.3504.0213.5405.0461 1.1273-.0247 1.7408-.1895.3653-.0914.7223-.2147 1.0644-.3675 2.5763-1.0688 6.0337-3.5684 7.9582-5.8604.2333-.2779.4455-.5529.6294-.8218.4966-.7259.958-1.4797 1.388-2.2546.0422-.0673.0837-.1352.1258-.2026-.2333-.0456-.4554-.0617-.6627-.0495-1.0272.0604-1.7188.7322-1.9501.9948 0 0-.1179-.0488-.0703-.2302.0055-.021.0147-.0424.0213-.0635.1465-.4715.5473-.9675.9876-1.2735.0098-.0071.0197-.0141.0295-.021.0127-.0085.025-.0187.0378-.0269.0049-.0032.0101-.0057.0151-.0088.3222-.2155.6562-.3463.9506-.4256.1034-.0178.2072-.0405.3116-.068.1913-.0502.3817-.1164.5669-.2008.0746-.034.1493-.0681.2215-.108.5061-.2797.9979-.8061 1.167-1.3093l.9946-1.6754c.8217-1.4856 1.6048-2.984 2.3399-4.4741.26-.5271.5144-1.0531.7623-1.5771.2466-.5211.4872-1.0403.7213-1.5564.7331-1.6171 1.4021-3.2042 1.9986-4.7335.2111-.5411.4135-1.0754.6059-1.6007 1.0159-2.774 1.7631-5.3068 2.1804-7.4116.3357-1.6931.3995-3.1045.332-4.1479-.2134-3.3041-1.2062-3.2504-2.0055-1.9888z"/></svg>