<svg enable-background="new 0 0 64 64" height="64" viewBox="0 0 64 64" width="64" xmlns="http://www.w3.org/2000/svg"><path d="m0 0h64v64h-64z" fill="none"/><path d="m21.5 57c-1.4 0-2.5 1.1-2.5 2.5s1.1 2.5 2.5 2.5 2.5-1.1 2.5-2.5-1.1-2.5-2.5-2.5zm-11.5-35.5c0-1.9-1.6-3.5-3.5-3.5s-3.5 1.6-3.5 3.5 1.6 3.5 3.5 3.5 3.5-1.6 3.5-3.5zm32.8 9.1c1.7-3 1.5-6.5-.2-9.3l12.5-16.2c1-1.3.3-2.6-1-3.6s-2.7-1.4-3.7-.1l-12.6 16.3c-3.1-1-6.6-.2-9 2.2-.3.3-.6.6-.9.9l14.3 11c.2-.4.4-.8.6-1.2zm-21.8-12.1c1.1-.8 1.3-2.4.5-3.5s-2.4-1.3-3.5-.5-1.3 2.4-.5 3.5 2.4 1.3 3.5.5zm-11.5 34.5c-1.9 0-3.5 1.6-3.5 3.5s1.6 3.5 3.5 3.5 3.5-1.6 3.5-3.5-1.6-3.5-3.5-3.5zm-2.6-20.3c-.5.2-.8.7-.7 1.2.3.9.8 2.5 1.8 4.4 4.3-1.1 8.3-2.7 11.5-4.7 0 0 .3.2-.2.6-3.1 2.7-6.3 4.9-9.8 6.6 1.7 2.7 4.2 5.7 7.9 8.5 2 1.6 4 2.7 5.9 3.7 1-5.6 3.4-10.8 6.9-15.7.4-.5.6-.3.6-.3-2.3 4.9-4.1 11.2-4.5 17.3 4 1.5 7.2 1.8 8.8 1.8.5 0 1-.4 1-1 .4-8.1 1.9-15 5.1-21.6l-14.8-11.4c-5.5 4.9-11.7 8.1-19.5 10.6zm48.6 12.3c-1.9 0-3.5 1.6-3.5 3.5s1.6 3.5 3.5 3.5 3.5-1.6 3.5-3.5-1.6-3.5-3.5-3.5zm1.6-17c-2.2-.1-4.1 1.7-4.1 3.9-.1 2.2 1.7 4.1 3.9 4.1s4.1-1.7 4.1-3.9c.1-2.2-1.7-4-3.9-4.1zm-12.6 26c-1.4 0-2.5 1.1-2.5 2.5s1.1 2.5 2.5 2.5 2.5-1.1 2.5-2.5-1.1-2.5-2.5-2.5zm1-17c-1.4 0-2.5 1.1-2.5 2.5s1.1 2.5 2.5 2.5 2.5-1.1 2.5-2.5-1.1-2.5-2.5-2.5z"/></svg>