<?xml version="1.0" encoding="utf-8"?>
<!-- Generator: Adobe Illustrator 19.1.0, SVG Export Plug-In . SVG Version: 6.00 Build 0)  -->
<svg version="1.2" baseProfile="tiny" xmlns="http://www.w3.org/2000/svg" xmlns:xlink="http://www.w3.org/1999/xlink" x="0px"
	 y="0px" width="64px" height="64px" viewBox="0 0 64 64" xml:space="preserve">
<g id="Box">
	<rect fill="none" width="64" height="64"/>
</g>
<g id="Icon">
	<g>
		<path d="M53,29h-1v-5c0-2.2092-1.7908-4-4-4H17.3691c-0.0209-0.0562-0.0782-0.3068,0.2499-0.3641
			c0.2606-0.0455,16.7606-3.1276,26.381-4.8798v-4.5062c0-2.0726-2.0516-3.5208-4.0046-2.8268l-27.1307,9.6419
			C11.1473,17.6754,10,19.3007,10,21.1233V50c0,2.2091,1.7908,4,4,4h34c2.2092,0,4-1.7909,4-4v-5h1c1.1046,0,2-0.8954,2-2V31
			C55,29.8954,54.1046,29,53,29z M41,40.7c-2.0435,0-3.7-1.6566-3.7-3.7c0-2.0435,1.6565-3.7,3.7-3.7s3.7,1.6565,3.7,3.7
			C44.7,39.0434,43.0435,40.7,41,40.7z"/>
	</g>
</g>
</svg>
