<svg height="64" viewBox="0 0 64 64" width="64" xmlns="http://www.w3.org/2000/svg"><path d="m0 0h64v64h-64z" fill="none"/><path d="m53 29h-1v-5c0-2.2092-1.7908-4-4-4h-30.6309c-.0209-.0562-.0782-.3068.2499-.3641.2606-.0455 16.7606-3.1276 26.381-4.8798v-4.5062c0-2.0726-2.0516-3.5208-4.0046-2.8268l-27.1307 9.6419c-1.7174.6104-2.8647 2.2357-2.8647 4.0583v28.8767c0 2.2091 1.7908 4 4 4h34c2.2092 0 4-1.7909 4-4v-5h1c1.1046 0 2-.8954 2-2v-12c0-1.1046-.8954-2-2-2zm-12 11.7c-2.0435 0-3.7-1.6566-3.7-3.7 0-2.0435 1.6565-3.7 3.7-3.7s3.7 1.6565 3.7 3.7c0 2.0434-1.6565 3.7-3.7 3.7z"/></svg>