<?xml version="1.0" encoding="utf-8"?>
<!-- Generator: Adobe Illustrator 18.1.0, SVG Export Plug-In . SVG Version: 6.00 Build 0)  -->
<svg version="1.2" baseProfile="tiny" xmlns="http://www.w3.org/2000/svg" xmlns:xlink="http://www.w3.org/1999/xlink" x="0px"
	 y="0px" width="64px" height="64px" viewBox="0 0 64 64" xml:space="preserve">
<g id="_x36_4px_Boxes">
	<rect fill="none" width="64" height="64"/>
</g>
<g id="Label">
</g>
<g id="Production">
	<g>
		<path d="M29.5,31c5.9531,0,10.939,4.1863,12.1898,9.7675c1.6915-0.3578,3.2104-1.0947,4.5775-2.2507
			C44.1151,31.2891,37.4175,26,29.5,26c-4.3316,0-8.6184,1.5577-12.0828,4.8756l2.5386,4.5801C22.4778,32.4628,25.9668,31,29.5,31z"
			/>
		<path d="M29.5,56c-5.3531,0-9.9176-3.3887-11.6956-8.1284c-2.0283-5.5198-6.3395-6.6683-11.2136-7.7563l-1.0938,4.8789
			c4.7006,1.052,6.2197,1.2923,7.8984,5.3545l0.0024-0.001C16.0685,56.6034,22.2797,61,29.5,61
			c7.7953,0,14.4115-5.126,16.6682-12.1825c-1.9247,0.7011-3.9401,1.0978-6.002,1.167C37.9694,53.584,34.0167,56,29.5,56z"/>
		<polygon points="15,23 10.2853,27.8294 15,32.9614 		"/>
		<polygon points="10.0702,34 9,38 15.6135,35.412 		"/>
		<path d="M42.1927,13.2292l1.3877-5.5508L37.2473,6.418c-0.3642-0.1168-0.311-0.3535-0.287-0.418H44l-2-4h-5l-2,4l1.8034,7.2137
			c-6.5961,1.0259-11.9839,5.7457-13.9736,11.9744c2.8556-1.0396,4.6937-1.0847,6.0084-1.1797C31.0358,20.4128,34.9863,18,39.5,18
			C46.3926,18,52,23.6074,52,30.5C52,37.5134,46.3033,43,39.5,43c-5.9486,0-10.931-4.1802-12.1866-9.755
			c-1.6826,0.3562-3.1646,1.0356-4.5717,2.2189l-0.0115,0.0098C24.8795,42.7062,31.579,48,39.5,48C49.0492,48,57,40.2939,57,30.5
			C57,21.7685,50.5649,14.5311,42.1927,13.2292z"/>
	</g>
</g>
</svg>
