<svg height="64" viewBox="0 0 64 64" width="64" xmlns="http://www.w3.org/2000/svg"><path d="m0 0h64v64h-64z" fill="none"/><path d="m17.8303 43.6407 2.0916-12.1406 14.7564-3.2104 1.652 4.9318c1.3433-.4835 2.8123-.8506 4.3812-1.0906l-1.2278-3.6655c.4266.211.9005.3405 1.4088.3405 1.7656 0 3.1968-1.4313 3.1968-3.1968 0-2.2799-2.2308-3.4852-3.6596-3.1763l-2.7652.6016-4.014-11.9834c.731-.0189 1.3295-.0117 1.6895.0016 2.2715.0841 3.281-2.5238 1.0937-4.0381-1.7716-1.2264-6.7902-2.7098-11.1862.9362-3.296 2.7388-4.5128 4.6257-10.8743 5.9575-.1498-.4291-3.4368-9.9686-3.6799-10.3527-.4803-1.1583-1.6201-1.9738-2.952-1.9738-1.7656 0-3.1968 1.4313-3.1968 3.1968 0 1.6931 1.3204 3.0647 2.9854 3.1755l7.9547 22.793-2.0244 11.7505c-2.4985-.7731-4.9738-1.7859-6.7204-2.6454-.6335-.3122-1.4205-.1464-1.868.4347-.5102.6626-.3868 1.6132.2757 2.1235 7.2753 5.6018 14.3779 7.3632 22.8525 7.5868v-5.2584c-3.9351-.0404-6.9408-.405-10.1697-1.098zm6.9938-30.4851c1.0662-.8172 2.6274-1.3238 4.2367-1.6368l4.1797 12.478-14.2629 3.1033-3.1385-8.9926c4.9572-.9176 5.3792-2.1879 8.985-4.9519z"/><path d="m45.0012 54c7.8499 0 13.9988-3.3747 13.9988-7.6786 0-.6324 0-3.0202 0-3.6548 0-4.2993-6.1489-7.6666-13.9988-7.6666-7.852 0-14.0012 3.3673-14.0012 7.6666v3.6548c0 .9493.3142 1.8492.865 2.6819-.553.8255-.865 1.7191-.865 2.6633v3.6548c0 4.3039 6.1492 7.6786 14.0012 7.6786 7.8499 0 13.9988-3.3747 13.9988-7.6786v-3.6548c0-.2049-.0266-.4056-.0542-.606-.7144.8958-4.5718 5.1376-13.6127 5.1376-8.0173 0-10.7806-3.8577-11.0668-4.3807-.1169-.2137-.2019-.4362-.0765-.5667 2.5482 1.6889 6.4118 2.7492 10.8114 2.7492zm-11.3-11c0-2.8444 5.0601-5.15 11.302-5.15s11.302 2.3057 11.302 5.15-5.0601 5.15-11.302 5.15-11.302-2.3057-11.302-5.15z"/><path d="m42.8542 44.7261v.6766h1.5551v-.5565c.3053.0191.6703.0191 1.016.0191h.384v.5374h1.5168v-.6166c2.7834-.2999 4.1094-1.2643 4.1094-2.6701 0-.5469-.0571-.7845-.3076-1.3435h-2.0559c.2123.5182.2886.7773.2886 1.2546 0 .6166-.5938 1.1155-2.0344 1.334v-1.7634h-1.5168v1.8928c-.1907.0096-.384.0193-.6128.0193-.2697 0-.52-.0098-.7872-.0193v-1.8928h-1.5551v1.7538c-1.4023-.2089-2.1322-.6575-2.1322-1.3748 0-.4078.0763-.6454.2479-1.1539h-2.168c-.174.4269-.2312.7269-.2312 1.1226 0 1.4157 1.4404 2.4208 4.2834 2.7807z"/></svg>