<svg height="64" viewBox="0 0 64 64" width="64" xmlns="http://www.w3.org/2000/svg"><path d="m0 0h64v64h-64z" fill="none"/><path d="m62.7751 47.2535-8.5604-11.6379c-.2841-.3882-.7368-.6172-1.2179-.6158l-5.3231.0152c-.2164.0007-.4203.071-.587.1924-.1654.123-.2932.2966-.3584.5031l-1.5997 5.077c-.1447.4589-.0609.9593.2252 1.3461l8.5603 11.6379c.3292.4451.9865.5175 1.4315.1884l7.1831-5.2836c.4468-.327.5734-.9759.2464-1.4228zm-11.8797-7.0379c-.6779.4894-1.6211.3492-2.1156-.3193-.496-.6707-.3518-1.618.3203-2.1215.6807-.4915 1.6279-.3471 2.1205.3261.4908.6712.3439 1.6135-.3252 2.1147z"/><path d="m57 24-9.0483-13.5726c-.6169-.9251-1.5244-1.6183-2.5791-1.9699l-7.3726-2.4575c-2.1199 3.5503-5.9163 7.3925-10.4548 6.6788-.342-.0538-.3883-.2718-.2952-.3819 2.2904-.4682 4.8866-2.2296 6.8289-4.5322-1.4559.4738-3.2093.8581-5.0789.8581-4.8889 0-9-2.6228-9-2.6228l-7.3726 2.4575c-1.0547.3516-1.9623 1.0448-2.5791 1.9699l-9.0483 13.5726 8 8.2785 5-4.4415v29.163h15 15v-29.163l5 4.4415z"/></svg>