<svg enable-background="new 0 0 64 64" viewBox="0 0 64 64" xmlns="http://www.w3.org/2000/svg"><path d="m0 0h64v64h-64z" fill="none"/><path d="m61.1 52.1-8.4-14.5c1.4-2.3 1.7-5.4.9-8.5-.4-1.5-1.7-5.3-4.8-7.6-1 4.2-3.5 7.7-5.1 8.2-.3.1-.4-.1-.4-.1 3-2.9 4.2-7.7 3.9-11.5-1-10.5-12.3-18-23.6-12-4.8 2.6-7.5 7.8-7.2 13.3-2.2 1.1-4.3 2.9-5.7 5.4-2.8 4.8-2.4 10.3.6 13.7 0 0-8.2 14.1-9 15.5s.2 2.6 1.5 3.3 2.5 1 3.3-.4 1-1.7 1-1.7l3.2 1.8c.9.5 2 .2 2.5-.7l1.8-3.2c.5-.9.2-2-.7-2.5l-3.2-1.8 4.3-7.5c3.1.6 6.6-.4 9.3-2.8.6 1.9 1.7 3.5 3.1 4.5v13.9c0 1.9 2 3.1 3.9 3.1s3.9-1.2 3.9-3.1l-1.6-1.4c-.6-.5-.6-1.5 0-2l1.6-1.4v-1.2l-1.6-1.4c-.6-.5-.6-1.5 0-2l1.6-1.4v-3.1c1-.8 1.8-1.8 2.3-2.8-2.8-2.5-4-6-3.8-7.4.1-.4.3-.3.3-.3 1.7 4.5 6.2 8.6 11.2 8.6l2.4 4.1 1.8.4c1 .2 1.5 1.2 1.2 2.1l-.6 1.8 1.2 2.1 1.8.4c1 .2 1.5 1.2 1.2 2.1l-.6 1.8.4.7c1 1.8 2.8 1.5 4.6.5 1.8-1.1 2.5-3.3 1.5-5zm-37-21.2c-1.2 3.2-5 6.3-7.9 4.6-2.2-1.3-2.6-4.8-.8-7.9.6-1 1.3-1.8 2.1-2.4.8 2.2 2.8 4.7 4.6 6.1 2.2-3.9.6-7 .6-7 1.4.6 2.7 3.1 1.4 6.6zm13.9-11.4c-2 1.1-3.2 3.1-3.7 5.5-.6-.2-1.2-.3-1.9-.3-.9 0-1.8.2-2.6.6-.6-2.4-2.1-4.5-4.3-5.7-1.1-.6-2.3-1-3.5-1.1.5-4.9 4.7-8.8 9.7-8.8 5.1 0 9.3 3.9 9.7 8.9-1.1-.1-2.3.2-3.4.9z"/></svg>