<?xml version="1.0" encoding="utf-8"?>
<!-- Generator: Adobe Illustrator 19.1.0, SVG Export Plug-In . SVG Version: 6.00 Build 0)  -->
<svg version="1.2" baseProfile="tiny" xmlns="http://www.w3.org/2000/svg" xmlns:xlink="http://www.w3.org/1999/xlink" x="0px"
	 y="0px" width="64px" height="64px" viewBox="0 0 64 64" xml:space="preserve">
<g id="Box">
	<rect fill="none" width="64" height="64"/>
</g>
<g id="Icon">
	<g>
		<path d="M32.9127,8.0015c-1.0001,0.7397-2.7266,1.3848-2.7266,3.4601v1.7188c-1.866,0.0651-3.4937,0.2519-4.7778,0.4669
			c0.1843,0.6671,0.4578,1.602,0.8342,2.7482c1.393-0.2676,3.18-0.4954,5.2576-0.4954c2.0687,0,3.8583,0.2292,5.2559,0.4982
			c0.377-1.1468,0.6518-2.0831,0.8367-2.7509c-1.2798-0.2143-2.9007-0.4008-4.759-0.4666v-1.384
			c0-0.483,0.2819-0.9225,0.7234-1.1185c2.1389-0.9493,3.3725-3.2955,2.8679-5.6805c-0.374-1.7651-1.9458-3.3389-3.8218-3.8267
			c-2.7598-0.7197-5.686,0.9023-6.3828,3.5425c-0.1865,0.707,0.2354,1.4312,0.9419,1.6177c0.708,0.1865,1.4312-0.2354,1.6177-0.9419
			c0.3262-1.2354,1.7998-2.0078,3.1567-1.6567c0.8984,0.2339,1.7324,1.0308,1.8984,1.8135
			C34.0573,6.5958,33.6023,7.4915,32.9127,8.0015z"/>
		<path d="M51.9688,18c-0.4246-1.2985-0.9747-1.7543-1.8792-2.1912C48.0209,14.8094,44.5032,13.7692,39.8313,13
			c0,0-2.387,10.2941-8.3281,19L31.5,32.0004V32c-5.9412-8.7059-8.3281-19-8.3281-19c-4.6719,0.7692-8.1896,1.8094-10.2583,2.8088
			c-0.9045,0.437-1.4547,0.8927-1.8792,2.1912c-2.6154,8-2.9259,23.5605-2.9259,42.0429c0,0,1.0028,0.9259,3.9151,0.9259
			c2.4724,0,3.7764-0.8934,3.7764-0.8934c0-7.8577-0.05-22.3879,0.7-28.1476C19.0385,37.3077,18,52.1875,18,61c0,0,2.9615,1,8.5,1
			c4.9224,0,5.001-3.9068,5.0016-3.9383C31.5021,58.0932,31.5808,62,36.5032,62c5.5385,0,8.5-1,8.5-1
			c0-8.8125-1.0385-23.6923,1.5-29.0723c0.75,5.7598,0.7,20.29,0.7,28.1476c0,0,1.3041,0.8934,3.7765,0.8934
			c2.9123,0,3.9151-0.9259,3.9151-0.9259C54.8947,41.5605,54.5842,26,51.9688,18z M31.5,53.3177
			c-0.7278,0-1.3177-0.5899-1.3177-1.3177s0.5899-1.3177,1.3177-1.3177S32.8177,51.2722,32.8177,52S32.2278,53.3177,31.5,53.3177z
			 M31.5,46.3177c-0.7278,0-1.3177-0.5899-1.3177-1.3177s0.5899-1.3177,1.3177-1.3177S32.8177,44.2722,32.8177,45
			S32.2278,46.3177,31.5,46.3177z M31.5,39.331c-0.7351,0-1.331-0.5959-1.331-1.331s0.5959-1.331,1.331-1.331
			s1.331,0.5959,1.331,1.331S32.2351,39.331,31.5,39.331z M42,32h-6v-2h6V32z"/>
	</g>
</g>
</svg>
