<svg height="64" viewBox="0 0 64 64" width="64" xmlns="http://www.w3.org/2000/svg"><path d="m0 0h64v64h-64z" fill="none"/><path d="m32 3c-16.0164 0-29 12.9824-29 29 0 16.0175 12.9836 29 29 29 16.0175 0 29-12.9825 29-29 0-16.0176-12.9825-29-29-29zm0 6.78c10.123 0 18.6804 6.8071 21.351 16.0825l-11.7231-1.0194c.4885 1.327 1.0332 4.29.6068 5.4377-.0741.1994-.2383.3127-.3446.3149-.6844-4.8561-4.8452-8.5957-9.8901-8.5957-2.5722 0-4.9099.9795-6.6818 2.5751l-14.6658 1.2753c2.6746-9.2692 11.2289-16.0704 21.3476-16.0704zm0 27.47c-2.8995 0-5.25-2.3505-5.25-5.25s2.3505-5.25 5.25-5.25 5.25 2.3505 5.25 5.25-2.3505 5.25-5.25 5.25zm-21.9575-1.8372c2.7118.01 16.6313.5503 16.9575 10.5872.0823 2.5323.0663 5.5908.0402 7.655-8.7854-2.0117-15.6041-9.24-16.9977-18.2422zm26.9173 18.2422c-.0261-2.0642-.0421-5.1227.0402-7.655.3262-10.0369 14.2457-10.5772 16.9575-10.5872-1.3936 9.0022-8.2123 16.2305-16.9977 18.2422z"/></svg>