<svg xmlns="http://www.w3.org/2000/svg" viewBox="0 0 64 64"><defs><style>.cls-1{fill:none;}</style></defs><g id="BOX"><rect class="cls-1" width="64" height="64"/></g><g id="ICOON"><path d="M56.13,51.18A7.51,7.51,0,0,0,49.56,40a7.23,7.23,0,0,0-3.68.91l2.23,2.23a5.13,5.13,0,0,1,1.45-.2,4.58,4.58,0,0,1,4.58,4.58,4.34,4.34,0,0,1-.25,1.4Z"/><path d="M52.84,50.72l-6.49-6.49-4.14-4.14L40.82,38.7,28.15,26,7.73,5.61,5.61,7.73,25.89,28c-5.59,4.9-10.13,8.89-10.59,9.35a20.67,20.67,0,0,0-2.48,2.84A8.08,8.08,0,0,0,11.18,40a7.52,7.52,0,1,0,7.52,7.52,6.3,6.3,0,0,0-2.31-5.19,5.83,5.83,0,0,0-1.62,2.34,5.05,5.05,0,0,1,1,2.85A4.58,4.58,0,1,1,11.15,43a12,12,0,0,0-1.29,5.22v.32l.73,0a2.13,2.13,0,0,0,2.25-1.92,8.31,8.31,0,0,1,.4-1.4h0v0a.42.42,0,0,1,0-.1A14.34,14.34,0,0,1,17,39.72h0c.72-.73,1.39-1.35,1.39-1.35l6.43-5.66c.23.25.19.53-.06.9-2.61,4-3.09,4.79-3.09,5.92a2.36,2.36,0,0,0,2.41,2.21l10,1c2.23.2,4.37.39,5.55-1l3,3A7.31,7.31,0,0,0,42,47.54a7.53,7.53,0,0,0,7.52,7.52,7.35,7.35,0,0,0,2.82-.56l3.83,3.83,2.12-2.12L54.92,52.8Zm-3.28,1.4A4.58,4.58,0,0,1,45,47.54c0-.13,0-.26,0-.39L50,52.08C49.82,52.09,49.7,52.12,49.56,52.12Z"/><path d="M60.09,11.09c-.65-.39-2.55-1.44-4.73-2.64a6.79,6.79,0,0,0-8.26,1L44.22,12h0c-3.72,3.23-9.29,8.1-14.57,12.71L41.38,36.43c.36-2,1-8.09,1.22-12.12.16-2.56-.54-3.48-1.48-3.48s-1.44.28-4,1.65a.43.43,0,0,1-.6-.08l6.4-5.34,3.37-2.93h0l2.56-2.25c2.51-2.28,4-1.44,5-.88s3.26,1.75,3.28,1.76a1.82,1.82,0,0,0,1.52.22,3,3,0,0,0,1.53-1.48l.12-.27Z"/></g></svg>