<svg height="64" viewBox="0 0 64 64" width="64" xmlns="http://www.w3.org/2000/svg"><path d="m0 0h64v64h-64z" fill="none"/><path d="m55.6362 25.4124c-1.412-1.8498-3.307-3.2303-5.5872-3.9041-1.5447-.4565-4.8387-.944-8.5945.7735 0 0-.1606-.074.0455-.3912.2031-.3125 2.5781-2.6094 6.9871-2.4183-.9323-.9843-3.5317-3.8304-4.5287-4.9014-3.921-4.2119-8.9162-2.8813-9.8657 1.867-.6385-.2756-1.3428-.4379-2.0927-.4379s-1.4542.1623-2.0927.4379c-.9495-4.7483-5.9447-6.0789-9.8657-1.867-.997 1.071-3.5965 3.9171-4.5287 4.9014 4.4089-.1911 6.7839 2.1058 6.9871 2.4183.2061.3171.0455.3912.0455.3912-3.7557-1.7175-7.0497-1.23-8.5945-.7735-2.2802.6738-4.1752 2.0543-5.5872 3.9041-3.8586 5.0547-6.3538 9.0452-6.3538 13.5876 0 7.1685 5.8215 13 12.99 13 7.019 0 12.7414-5.5948 12.9775-12.5573 1.0647.9646 2.4727 1.5573 4.0225 1.5573s2.9578-.5927 4.0225-1.5573c.2361 6.9625 5.9585 12.5573 12.9775 12.5573 7.1685 0 12.99-5.8315 12.99-13 0-4.5424-2.4952-8.5329-6.3538-13.5876zm-40.6362 22.7676c-5.0616 0-9.18-4.1183-9.18-9.18s4.1183-9.18 9.18-9.18 9.18 4.1183 9.18 9.18-4.1184 9.18-9.18 9.18zm34 0c-5.0616 0-9.18-4.1183-9.18-9.18s4.1183-9.18 9.18-9.18 9.18 4.1183 9.18 9.18-4.1184 9.18-9.18 9.18z"/></svg>