<?xml version="1.0" encoding="utf-8"?>
<!-- Generator: Adobe Illustrator 18.0.0, SVG Export Plug-In . SVG Version: 6.00 Build 0)  -->
<svg version="1.2" baseProfile="tiny" xmlns="http://www.w3.org/2000/svg" xmlns:xlink="http://www.w3.org/1999/xlink" x="0px"
	 y="0px" width="64px" height="64px" viewBox="0 0 64 64" xml:space="preserve">
<g id="_x36_4px_box">
	<rect fill="none" width="64" height="64"/>
</g>
<g id="icon">
	<path d="M54.979,56.2787C53.75,51.6147,43.5,48.8022,43.5,48.8022s-0.125-0.4897,0.8906-0.4741
		c1.1534,0.0177,4.5325,0.0747,8.9814,2.0415c-0.2891-0.6025-0.5983-1.2349-0.933-1.9161
		c-2.3533-4.7892-5.3819-10.4496-4.9477-14.8689l0.0029-0.0303l0.0009-0.019c0.15-0.8853,0.2537-1.5253,0.2537-1.5253
		c0.7156-5.596-1.4633-11.3307-5.0636-13.3726c-1.4438-0.8185-4.2484-1.2966-6.5305-1.5643
		c2.0107-1.5706,3.9501-3.5467,3.7424-4.8125c-0.5201-3.167-3.5173,0.7485-3.6711-0.2515c-0.2989-2.1103-0.933-6.832-2.2432-6.9882
		c-1.6533-0.1954-1.7768,1.0097-2.0112,2.0996c-0.167,0.7762-0.7945,4.8885-1.2285,3.9795c-0.0157-0.0333-1.7119-2.876-2.649-3.5596
		c-0.5009-0.3653-0.8598-0.6445-1.9609,0.0234c-0.4102,0.249-0.7148,0.4062-0.852,0.9727c-0.3826,1.5799,0.181,4.1292,0.9257,6.1534
		c4.4414,0.6342,6.5269,1.7242,6.5269,1.7242c0.5786,0.2577,0.571,0.5414,0.5584,0.6746c-0.2836-0.0192-0.4921-0.0311-0.5919-0.0364
		l-2.4213-0.0355c-0.3387-0.0054-0.6703-0.0081-0.9919-0.0081c-10.8324,0-12.0583,2.9781-14.2328,9.1736
		c-0.2479,0.7064-0.5106,1.4551-0.8104,2.2451C9.0023,42.24,9.8871,45.8367,10.5332,48.6674
		c0.4049,1.774,0.6494,2.8448-1.4645,6.557c-0.2551,0.4479-0.2448,0.9952,0.0277,1.4641c0.4092,0.704,1.2894,1.1078,2.415,1.1078
		h40.3949c1.9395,0,2.8325-0.7075,3.0806-1.4896C54.9841,56.2965,54.9818,56.2892,54.979,56.2787z"/>
</g>
</svg>
