<svg height="64" viewBox="0 0 64 64" width="64" xmlns="http://www.w3.org/2000/svg"><path d="m0 0h64v64h-64z" fill="none"/><path d="m54.979 56.2787c-1.229-4.664-11.479-7.4765-11.479-7.4765s-.125-.4897.8906-.4741c1.1534.0177 4.5325.0747 8.9814 2.0415-.2891-.6025-.5983-1.2349-.933-1.9161-2.3533-4.7892-5.3819-10.4496-4.9477-14.8689l.0029-.0303.0009-.019c.15-.8853.2537-1.5253.2537-1.5253.7156-5.596-1.4633-11.3307-5.0636-13.3726-1.4438-.8185-4.2484-1.2966-6.5305-1.5643 2.0107-1.5706 3.9501-3.5467 3.7424-4.8125-.5201-3.167-3.5173.7485-3.6711-.2515-.2989-2.1103-.933-6.832-2.2432-6.9882-1.6533-.1954-1.7768 1.0097-2.0112 2.0996-.167.7762-.7945 4.8885-1.2285 3.9795-.0157-.0333-1.7119-2.876-2.649-3.5596-.5009-.3653-.8598-.6445-1.9609.0234-.4102.249-.7148.4062-.852.9727-.3826 1.5799.181 4.1292.9257 6.1534 4.4414.6342 6.5269 1.7242 6.5269 1.7242.5786.2577.571.5414.5584.6746-.2836-.0192-.4921-.0311-.5919-.0364l-2.4213-.0355c-.3387-.0054-.6703-.0081-.9919-.0081-10.8324 0-12.0583 2.9781-14.2328 9.1736-.2479.7064-.5106 1.4551-.8104 2.2451-5.2416 13.8126-4.3568 17.4093-3.7107 20.24.4049 1.774.6494 2.8448-1.4645 6.557-.2551.4479-.2448.9952.0277 1.4641.4092.704 1.2894 1.1078 2.415 1.1078h40.3949c1.9395 0 2.8325-.7075 3.0806-1.4896-.0028-.0102-.0051-.0175-.0079-.028z"/></svg>