<?xml version="1.0" encoding="utf-8"?>
<!-- Generator: Adobe Illustrator 19.1.0, SVG Export Plug-In . SVG Version: 6.00 Build 0)  -->
<svg version="1.2" baseProfile="tiny" xmlns="http://www.w3.org/2000/svg" xmlns:xlink="http://www.w3.org/1999/xlink" x="0px"
	 y="0px" width="64px" height="64px" viewBox="0 0 64 64" xml:space="preserve">
<g id="Box">
	<rect fill="none" width="64" height="64"/>
</g>
<g id="Icon">
	<g>
		<path d="M13.1477,36.2076c0.0557,0.5012,0.4793,0.748,0.9836,0.748c0.5043,0,0.928-0.2468,0.9836-0.748l0.2803-2.5231
			c0.0863-0.7767-0.4825-1.2136-1.264-1.2136s-1.3503,0.4368-1.264,1.2136L13.1477,36.2076z"/>
		<path d="M14.1313,47.8613c0.7815,0,1.3503-0.4369,1.264-1.2136l-0.2803-2.5232c-0.0557-0.5012-0.4794-0.7479-0.9836-0.7479
			c-0.5043,0-0.928,0.2467-0.9836,0.7479l-0.2803,2.5232C12.7811,47.4244,13.3499,47.8613,14.1313,47.8613z"/>
		<path d="M7.8861,38.0199l2.3253,1.0188c0.4619,0.2023,0.8875-0.0411,1.1396-0.4779c0.2521-0.4367,0.2503-0.927-0.1559-1.2258
			l-2.0449-1.5044c-0.6295-0.4631-1.2922-0.1889-1.683,0.4879C7.0764,36.9952,7.1703,37.7063,7.8861,38.0199z"/>
		<path d="M11.351,41.7713c-0.2521-0.4367-0.6777-0.6802-1.1396-0.4778l-2.3253,1.0187c-0.7158,0.3137-0.8098,1.0247-0.419,1.7015
			c0.3907,0.6768,1.0535,0.9509,1.683,0.4879l2.0449-1.5044C11.6013,42.6983,11.6031,42.2081,11.351,41.7713z"/>
		<path d="M54.7687,6.2072c-8.8039,0.3442-15.0669,2.7084-17.6266,3.8571c-0.6378,0.2861-0.7839,1.1222-0.2897,1.6165l7.1281,7.1281
			c-0.025,0.0546-0.1379,0.233-0.4342,0.0807l-6.507-3.8104l-15.549,15.549c-0.4063,0.4063-0.563,1.0161-0.3599,1.5536
			c0.6042,1.5995,1.4768,3.0594,2.5563,4.338C21.8255,38.1198,19.4843,39,17.0044,39h-3.001c-0.5522,0-1,0.4478-1,1s0.4478,1,1,1
			h3.001c3.005,0,5.8379-1.0838,8.0766-3.0482c0.8203,0.743,1.7146,1.4064,2.6863,1.9557L10.5042,57.1706
			c-0.5858,0.5858-0.3755,1.3253,0.2102,1.9111c0.5858,0.5858,1.3253,0.796,1.9111,0.2103l35.9191-35.9191l1.7926,1.7927
			c0.4943,0.4943,1.3303,0.3481,1.6165-0.2897c1.1486-2.5597,3.5129-8.8227,3.8571-17.6266
			C55.8334,6.6711,55.3468,6.1845,54.7687,6.2072z"/>
	</g>
</g>
</svg>
