<svg enable-background="new 0 0 64 64" viewBox="0 0 64 64" xmlns="http://www.w3.org/2000/svg"><path d="m0 0h64v64h-64z" fill="none"/><path d="m63 41c-.3-1.4-2.6-2.2-5.1-1.6-1.8.4-3.2 1.3-3.7 2.3l-31.6 6.7c-.9-.7-2.6-1-4.4-.6-2.5.5-4.3 2.1-4 3.6s2.6 2.2 5.1 1.6c1.8-.4 3.2-1.3 3.7-2.3l31.6-6.7c.9.7 2.6 1 4.4.6 2.5-.6 4.3-2.2 4-3.6z"/><path d="m42.7 34.2c2.3-1.2 3.6-3.2 2.9-4.5s-3.1-1.4-5.3-.2c-1.6.8-2.7 2.1-3 3.2l-28.7 14.7c-1.1-.4-2.8-.3-4.4.6-2.3 1.2-3.6 3.2-2.9 4.5s3.1 1.4 5.3.2c1.6-.8 2.7-2.1 3-3.2l28.7-14.7c1.1.4 2.8.2 4.4-.6z"/><path d="m10.1 26.2c1.8-.3 3.3-1.1 3.9-2l11.2-1.6 2.8-2.7-14.3 2c-.9-.8-2.5-1.2-4.3-.9-2.5.4-4.4 1.8-4.2 3.3.1 1.3 2.4 2.2 4.9 1.9z"/><path d="m45.6 17.4-8 1.1-2.8 2.7 11.2-1.5c.9.8 2.5 1.2 4.3.9 2.5-.4 4.4-1.8 4.2-3.3-.2-1.4-2.4-2.3-5-2-1.8.3-3.2 1.1-3.9 2.1z"/><path d="m13.6 34.4c-1.8 1.8-2.5 4.1-1.4 5.1s3.3.4 5.2-1.4c1.3-1.3 2-2.8 1.9-4l23-22.6c1.2.1 2.7-.6 4-1.9 1.8-1.8 2.5-4.1 1.4-5.1s-3.3-.4-5.2 1.4c-1.3 1.3-2 2.8-1.9 4l-9.7 9.6-2.8 2.7-10.5 10.3c-1.1-.1-2.7.6-4 1.9z"/></svg>