<svg enable-background="new 0 0 64 64" height="64" viewBox="0 0 64 64" width="64" xmlns="http://www.w3.org/2000/svg"><path d="m0 0h64v64h-64z" fill="none"/><path d="m36 12.9c1.2-1.3 2-3 2-4.9 0-3.9-3.1-7-7-7-3.2 0-5.8 2.1-6.7 5h4.7c3.8 0 6.9 3.1 7 6.9zm8 8.1h-10v-8c0-2.8-2.2-5-5-5h-9c-1.1 0-2 .9-2 2v49c0 1.7 1.3 3 3 3h22c1.7 0 3-1.3 3-3v-36c0-1.1-.9-2-2-2zm-5.1 24.7c-.6 3.3-2.9 4.9-5.5 5.2.6-.9 1.2-2.5 1.2-4 0-3.3-2.6-5.9-2.6-5.9s-2.6 2.6-2.6 5.9c0 1.5.6 3.1 1.2 4-2.5-.3-4.8-1.9-5.5-5.2-1-5.3 4.5-12.7 6.9-14.7 2.4 2.1 7.9 9.4 6.9 14.7zm5.9-32.1-8.8 1.4v3.7l9.2-1.4c.5-.1.8-.5.8-1v-1.7c0-.6-.5-1.1-1.2-1z"/></svg>