<svg height="64" viewBox="0 0 64 64" width="64" xmlns="http://www.w3.org/2000/svg"><path d="m0 0h64v64h-64z" fill="none"/><path d="m46 10c-.6-5.4-6.3-8-14-8s-13.4 2.6-14 8c0 .1-4 38.5-4 38.6 0 7.1 7.5 12.4 18 12.4s18-5.3 18-12.4c0-.1-4-38.5-4-38.6zm-14 47c-8 0-14-3.3-14-7.5s6-7.6 14-7.6 14 3.4 14 7.6-6 7.5-14 7.5z"/><path d="m31.3 44.3c-1.1 1.1-3.3 3.8-3.3 7.1 0 2.1 1.1 3.1 2.1 3.6-.1-.2-.1-.5-.1-.9 0-2.5 2-4.1 2-4.1s2 1.6 2 4.1c0 .3 0 .6-.1.9 1-.5 2.1-1.4 2.1-3.6 0-3.3-2.2-6.1-3.3-7.1-.4-.4-1-.4-1.4 0z"/></svg>