<svg height="64" viewBox="0 0 64 64" width="64" xmlns="http://www.w3.org/2000/svg"><path d="m0 0h64v64h-64z" fill="none"/><path d="m23.4459 20c9.1577 9.8108 6.4003 6.8497 7.926 8.5253.4911.5393.7487.5542 1.2563 0 1.9948-2.1776-.2201.2025 7.9254-8.5253z"/><path d="m45.0015 24.001c1.9336-2.0713 2.9985-4.8164 2.9985-7.729v-4.272c1.3669 0 2-1.1081 2-2.475v-.05c0-1.3669-.6331-2.475-2-2.475h-32c-1.3669 0-2 1.1081-2 2.475v.05c0 1.3669.6331 2.475 2 2.475v4.272c0 2.9126 1.0649 5.6577 2.9985 7.729l6.0991 6.5347c.7407.7939.7407 2.1348.0005 2.9282l-6.0996 6.5352c-1.9336 2.0712-2.9985 4.8163-2.9985 7.7289v4.272c-1.3669 0-2 1.1081-2 2.475v.05c0 1.3669.6331 2.475 2 2.475h32c1.3669 0 2-1.1081 2-2.475v-.05c0-1.3669-.6331-2.475-2-2.475v-4.272c0-2.9126-1.0649-5.6577-2.9985-7.729l-6.0991-6.5347c-.7407-.7939-.7407-2.1348-.0005-2.9282zm-9.0235 12.1924 6.0996 6.5352c1.2217 1.3085 1.9224 3.1308 1.9224 4.9994v4.272h-2v-4.272c0-.0636-.015-.1249-.0172-.1883-3.541-3.1564-7.83-6.5404-9.9439-6.5404-2.1218 0-6.4562 3.4088-10.0248 6.5747-.0015.0519-.0141.102-.0141.154v4.272h-2v-4.272c0-1.8687.7007-3.6909 1.9224-4.9995l6.1001-6.5356c2.1572-2.312 2.1572-6.0737-.0005-8.3862l-6.0996-6.5352c-1.2217-1.3086-1.9224-3.1309-1.9224-4.9995v-4.272h24v4.272c0 1.8687-.7007 3.6909-1.9224 4.9995l-6.1001 6.5356c-2.1572 2.312-2.1572 6.0738.0005 8.3863z"/><circle cx="32" cy="34" r="1"/><circle cx="32" cy="38" r="1"/></svg>