<?xml version="1.0" encoding="utf-8"?>
<!-- Generator: Adobe Illustrator 17.1.0, SVG Export Plug-In . SVG Version: 6.00 Build 0)  -->
<svg version="1.2" baseProfile="tiny" xmlns="http://www.w3.org/2000/svg" xmlns:xlink="http://www.w3.org/1999/xlink" x="0px"
	 y="0px" width="64px" height="64px" viewBox="0 0 64 64" xml:space="preserve">
<g id="_x36_4px_Boxes">
	<rect fill="none" width="64" height="64"/>
</g>
<g id="Label">
</g>
<g id="Production">
	<g>
		<path d="M23.4459,20c9.1577,9.8108,6.4003,6.8497,7.926,8.5253c0.4911,0.5393,0.7487,0.5542,1.2563,0
			c1.9948-2.1776-0.2201,0.2025,7.9254-8.5253H23.4459z"/>
		<path d="M45.0015,24.001C46.9351,21.9297,48,19.1846,48,16.272V12c1.3669,0,2-1.1081,2-2.475v-0.05C50,8.1081,49.3669,7,48,7H16
			c-1.3669,0-2,1.1081-2,2.475v0.05C14,10.8919,14.6331,12,16,12v4.272c0,2.9126,1.0649,5.6577,2.9985,7.729l6.0991,6.5347
			c0.7407,0.7939,0.7407,2.1348,0.0005,2.9282l-6.0996,6.5352C17.0649,42.0703,16,44.8154,16,47.728V52c-1.3669,0-2,1.1081-2,2.475
			v0.05C14,55.8919,14.6331,57,16,57h32c1.3669,0,2-1.1081,2-2.475v-0.05C50,53.1081,49.3669,52,48,52v-4.272
			c0-2.9126-1.0649-5.6577-2.9985-7.729l-6.0991-6.5347c-0.7407-0.7939-0.7407-2.1348-0.0005-2.9282L45.0015,24.001z
			 M35.978,36.1934l6.0996,6.5352C43.2993,44.0371,44,45.8594,44,47.728V52h-2v-4.272c0-0.0636-0.015-0.1249-0.0172-0.1883
			c-3.541-3.1564-7.83-6.5404-9.9439-6.5404c-2.1218,0-6.4562,3.4088-10.0248,6.5747C22.0126,47.6259,22,47.676,22,47.728V52h-2
			v-4.272c0-1.8687,0.7007-3.6909,1.9224-4.9995l6.1001-6.5356c2.1572-2.312,2.1572-6.0737-0.0005-8.3862l-6.0996-6.5352
			C20.7007,19.9629,20,18.1406,20,16.272V12h24v4.272c0,1.8687-0.7007,3.6909-1.9224,4.9995l-6.1001,6.5356
			C33.8203,30.1191,33.8203,33.8809,35.978,36.1934z"/>
		<circle cx="32" cy="34" r="1"/>
		<circle cx="32" cy="38" r="1"/>
	</g>
</g>
</svg>
