<svg height="64" viewBox="0 0 64 64" width="64" xmlns="http://www.w3.org/2000/svg"><path d="m0 0h64v64h-64z" fill="none"/><path d="m30.3132 44.3884c.9318-1.4284 2.1868-3.6477 2.1868-3.6477s-1.0687-1.7407-3.5-1.7407-3.5 1.7407-3.5 1.7407 1.255 2.2193 2.1868 3.6477c-.6794 1.9124-1.3114 4.7511-1.6883 6.8761-3.5792-4.9009-5.5341-11.4721-6.8796-16.8354l-7.2189 2.3244c-.4886.1573-.8907.5092-1.1115.9726l-.4123.8655c-1.3786.5565-2.5123 1.1779-3.0891 1.8616-2.1704 2.573-3.2871 15.4897-3.2871 15.4897h25.2172l2.7639-4.787c-.3789-2.1126-.9995-4.886-1.6679-6.7675z"/><path d="m17.0638 25.4938c.5174 3.4032 2.5819 6.6062 6.2687 9.7436 1.751 1.4906 4.3022 1.7627 5.6673 1.7627 1.3649 0 3.9162-.2721 5.6677-1.7627 3.6281-3.0875 5.7279-6.3556 6.2622-9.7377 1.3281-1.2195 2.068-3.1657 2.068-5.5558 0-.7445-.0015-2.7017-1.227-4.0358.3038-3.3378.5151-8.504-.7868-10.5876-1.6026-2.5649-3.5498-3.816-7.2632-2.9775-2.4355-1.1577-4.0937-1.8824-8.3608-.8399-2.9649.7242-6.21 1.9068-7.92 3.8799-1.6521 1.9068-1.5394 7.2245-1.274 10.6062-1.156 1.332-1.1636 3.2249-1.1636 3.9548 0 2.386.7375 4.3297 2.0615 5.5498zm1.61-7.7241c.1364-.0642.2715-.0894.4-.0894.2398 0 .456.0882.6127.1766.1415.6533.2486 1.1396.2901 1.3112.206.8509 1.0234.7728 1.0234.7728v-6.7449c2.0715-.1483 6.1907-.7519 10.7498-3.1065l5.2502 3.5262v6.3252s.8174.0781 1.0234-.7729c.0415-.1716.1486-.6579.2901-1.3112.1567-.0884.3729-.1766.6127-.1766.1285 0 .2637.0252.4.0894.4521.2132.7738.9018.7738 2.1742 0 1.273-.4237 3.3145-2.0414 3.8183 0 3.8165-2.6802 6.9209-5.3403 9.1847-.7803.664-2.2495 1.126-3.7185 1.126s-2.938-.462-3.7181-1.126c-2.6601-2.2638-5.3403-5.3213-5.3403-9.1847-1.6177-.5037-2.0414-2.5452-2.0414-3.8183 0-1.2724.3217-1.961.7738-2.1741z"/><path d="m62.6186 58.0023-4.5305-7.847c1.0261-1.7516.9544-4.3469-.3776-6.6539-.3434-.5948-.7459-1.126-1.1884-1.5875-.5657 2.2842-2.1182 3.8985-3.0086 4.1456-.5244.1456-.5286-.2377-.5286-.2377 1.6191-1.5643 2.2603-4.1669 2.0839-6.2159-.4849-5.6317-6.6089-9.6768-12.6835-6.4462-2.593 1.379-4.0573 4.2321-3.9136 7.1655l.0009.0175c-1.2144.5856-2.3167 1.5822-3.0876 2.9174-1.4872 2.5759-1.2725 5.5891.3397 7.4117 0 0-4.4133 7.6451-4.8546 8.4074-.433.7479.1123 1.3802.7944 1.7734.6868.3959 1.3434.5249 1.7827-.2361s.5441-.9424.5441-.9424l1.7321 1c.4783.2761 1.0899.1122 1.366-.366l1-1.7321c.2761-.4783.1122-1.0899-.366-1.366l-1.7321-1 2.3344-4.0432c1.6903.3422 3.5452-.2159 5.0132-1.4936.3486 1.0234.9401 1.869 1.6734 2.4368v7.5326c0 1.0273 1.0657 1.6637 2.093 1.6637s2.093-.6364 2.093-1.6637l-.8663-.7586c-.3254-.285-.3254-.7912 0-1.0762l.8663-.7587v-.6731l-.8663-.7587c-.3254-.285-.3254-.7913 0-1.0762l.8663-.7587v-1.6637c.3789-.2938.7192-.6634 1.0074-1.0942-1.5259-1.3747-2.2252-3.3826-2.0893-4.1708.0925-.5363.4409-.3763.4409-.3763.9308 2.4186 3.3373 4.6567 6.0551 4.6577l1.2726 2.2042.9844.1951c.5145.102.8215.6337.6525 1.1302l-.3232.95.6671 1.1555.9844.1951c.5145.102.8215.6337.6525 1.1302l-.3232.9501.2189.3792c.5567.9641 1.5261.8237 2.4901.2603.9375-.5477 1.273-1.7423.7301-2.6827zm-19.9598-11.4687c-.6289 1.7149-2.6783 3.4211-4.2606 2.5076-1.1957-.6904-1.3816-2.6071-.4151-4.2811.3046-.5276.6917-.9557 1.1105-1.2901.4644 1.1319 1.1794 2.1298 2.0641 2.9468.991-1.4478.7255-3.446.7255-3.446.7507.3202 1.4703 1.6681.7756 3.5628zm7.4716-6.1614c-1.0674.6163-1.731 1.6943-2.0052 2.9626-.3279-.1092-.6658-.1852-1.02-.1852-.4949 0-.963.1318-1.4026.3396-.3505-1.3096-1.132-2.4314-2.3046-3.1084-.5861-.3384-1.2206-.5299-1.8713-.6005.2773-2.6711 2.5153-4.7687 5.2589-4.7687 2.7651 0 5.0172 2.1303 5.2652 4.8314-.6751.0174-1.3285.1875-1.9204.5292z"/></svg>