<svg height="48" width="48" xmlns="http://www.w3.org/2000/svg"><path d="m36 30c-1.801 0-3.602.602-4.801 1.602l-11.199-6.602c0-1 0-1-.199-2.199l11.199-6.602c1.398 1.199 3.199 1.801 5 1.801a8.03 8.03 0 0 0 8-8 8.03 8.03 0 0 0 -8-8 8.03 8.03 0 0 0 -8 8c0 .398 0 .801.199 1.199l-11.398 6.402c-1.199-1-3-1.602-4.801-1.602a8.03 8.03 0 0 0 -8 8 8.03 8.03 0 0 0 8 8c1.801 0 3.602-.602 4.801-1.602l11.199 6.603c0 .398-.199.801-.199 1.199 0 4.402 3.598 8 8 8s8-3.598 8-8c.199-4.597-3.403-8.199-7.801-8.199zm0 0"/></svg>