<svg height="48" width="48" xmlns="http://www.w3.org/2000/svg"><path d="m40.391 10.59c-.254-1.547-1.434-2.723-2.98-2.98-4.469-.746-11.922-.746-13.41-.746s-8.941 0-13.41.746c-1.547.258-2.727 1.434-2.98 2.98-.746 4.469-.746 11.922-.746 13.41s0 8.941.746 13.41c.254 1.547 1.434 2.723 2.98 2.98 4.469.746 11.922.746 13.41.746s8.941 0 13.41-.746c1.547-.258 2.727-1.434 2.98-2.98.746-4.469.746-11.922.746-13.41 0-4.473 0-8.941-.746-13.41zm-16.375 25.41c-1.68 0-2.641-.906-2.641-2.594 0-1.488.891-2.656 2.609-2.656 1.68 0 2.641.941 2.641 2.656 0 1.461-.891 2.594-2.609 2.594zm3.805-12.855-1.816 1c-1.051.57-1.523 1.285-1.523 2.07 0 .484.145 1.004.367 1.535h-3.789c-.328-.578-.496-1.242-.496-2 0-1.645.762-2.82 2.723-4l1.922-1.145c1.523-.891 2.031-1.605 2.031-2.75 0-1.211-1.16-2.105-3.445-2.105-1.672 0-3.266.32-5.043 1v-3.609c1.994-.786 3.842-1.141 6.092-1.141 4.137 0 6.82 2.145 6.82 5.355 0 2.789-1.051 4.25-3.844 5.789zm0 0"/></svg>