<svg xmlns="http://www.w3.org/2000/svg" viewBox="0 0 48 48" width="48" height="48">
  <!-- Dark blue background -->
  <rect width="48" height="48" rx="6" fill="#003399"/>
  <!-- 12 EU stars arranged in circle (radius 17) -->
  <g fill="#FFCC00">
    <!-- Star at 0° (top) -->
    <polygon points="24,5 24.9,7.7 27.8,7.7 25.5,9.5 26.4,12.2 24,10.5 21.6,12.2 22.5,9.5 20.2,7.7 23.1,7.7" transform="scale(0.55) translate(19.6,-2)"/>
    <!-- More compact stars around a circle -->
    <circle cx="24" cy="8" r="1.5"/>
    <circle cx="30.5" cy="9.8" r="1.5"/>
    <circle cx="35.2" cy="15" r="1.5"/>
    <circle cx="36.5" cy="22" r="1.5"/>
    <circle cx="35" cy="29.5" r="1.5"/>
    <circle cx="30" cy="34.5" r="1.5"/>
    <circle cx="24" cy="36.5" r="1.5"/>
    <circle cx="18" cy="34.5" r="1.5"/>
    <circle cx="13" cy="29.5" r="1.5"/>
    <circle cx="11.5" cy="22" r="1.5"/>
    <circle cx="12.8" cy="15" r="1.5"/>
    <circle cx="17.5" cy="9.8" r="1.5"/>
  </g>
  <!-- Person icon (white) in center -->
  <g fill="white">
    <circle cx="24" cy="20" r="4"/>
    <path d="M14 32 Q14 26 24 26 Q34 26 34 32 L34 33 L14 33 Z"/>
  </g>
</svg>
