<svg fill="none" height="101" viewBox="0 0 250 101" width="250" xmlns="http://www.w3.org/2000/svg" xmlns:xlink="http://www.w3.org/1999/xlink"><clipPath id="a"><path d="m0 0h250v100.402h-250z"/></clipPath><g clip-path="url(#a)"><path d="m.0302734 0h50.2007266v100.402h-50.2007266z" fill="#154273"/><path d="m26.0437 77.6704h-.8735v-2.4196h.8735zm3.9357-10.6827h-.8735v-2.4197h.8735zm-16.1747-4.1767c-.0702 0-.5221 0-.5221.0904 0 .0903.2109.0502.5221.1004.7028.1204.9739.4719 1.4659.4719.4418 0 .9036-.3013.7229-.9438-.0301-.1105-.0904-.0803-.1105-.0101-.0702.2912-.4216.4518-.7931.4518-.4619 0-.5623-.1606-1.2852-.1606zm-4.81928 2.4197c.08032.1104.90361 1.1747-.36145 1.5863-.06024.0201-.07027.0703.01005.1105.93374.3915 1.38558-.3314 1.38558-.3314.4719 1.0743-.25105 1.6767-.25105 1.6767.1004.1908.55225.5221 1.22495.6727.261-.1405.6225-.4016.7731-.8032 0 0 .1807.4719.0201.9237 1.9076.1707 2.5803-1.3554 4.0562-1.0743.0401.0101.0602-.0201.0602-.0602 0-.9438-.5723-2.6607-2.3996-3.0121-1.8172-.3514-1.3253-1.0943-1.3253-1.0943.7631-.0302 1.2048.3012 1.2048.3012.1406-.231-.0602-.4719-.0602-.4719.0703-.0904.1104-.4016.1104-.4016-.8634 0-1.0843-.1908-1.0843-.1908-.1305-.512.2209-1.2349 1.506-.4618.3213-.2812.2912-.7229.2912-.7229.1004-.0502.1606-.2008.1606-.2611 0-.2108-1.0241-.7831-1.2851-.8534-.0602-.3112-.4618-.753-1.6667-.5924-.5723.0703-.9839-.0803-.7931-.4116.0301-.0602-.0703-.0703-.1205-.0101-.1305.1306-.3113.5021.1807.7531.5522.2811.5823.8333.5924.9136.01.1205-.1305.1305-.1607.0101-.251-.9338-1.53616-1.1346-2.28917-.6426.04016.502.58234.8333.87351.8333.17068 0 .40166-.1707.40166-.4016 0-.1104.0602-.1004.0903-.01.1205.3313-.37149 1.0241-1.09438.6024-.74297.743-.44176 1.6666-.37148 1.998.13052.6024-.16065 1.1948-.71286.9237-.03012-.0101-.06024-.0201-.06024.0401.01004.3615.51205.7932 1.09438.4619zm4.10648-3.745c-.3514.3916-.9137.3012-1.0542-.3414.7128-.0401 1.0241.0302 1.0542.3414zm22.1586 1.4859c-.3715 0-.7229-.1606-.7932-.4518-.02-.0702-.0803-.1004-.1104.0101-.1807.6425.2811.9438.7229.9438.492 0 .763-.3515 1.4659-.4719.3112-.0502.522 0 .522-.1004 0-.0904-.4518-.0904-.522-.0904-.733 0-.8233.1606-1.2852.1606zm7.1787 1.7771c0-.0602-.0301-.0502-.0602-.0401-.5522.2711-.8434-.3113-.7129-.9237.0703-.3414.3715-1.255-.3714-1.998-.733.4217-1.2249-.2711-1.0944-.6024.0301-.0904.0903-.1004.0903.01 0 .231.231.4016.4016.4016.2912 0 .8334-.3313.8735-.8333-.753-.492-2.0381-.2912-2.2891.6426-.0301.1205-.1707.1104-.1607-.0101 0-.0803.0402-.6325.5924-.9136.502-.251.3213-.6225.1807-.753-.0502-.0502-.1606-.0402-.1205.01.1908.3313-.2208.4819-.7831.4117-1.2048-.1607-1.5964.2911-1.6667.5923-.261.0703-1.2851.6426-1.2851.8534 0 .0603.0602.2209.1607.2611 0 0-.0201.4317.2911.7229 1.2751-.7731 1.6366-.0502 1.506.4618 0 0-.2309.1807-1.0943.1908 0 0 .0401.3112.1104.4016 0 0-.2008.251-.0602.4719 0 0 .4417-.3313 1.2048-.3012 0 0 .492.7429-1.3253 1.0944-1.8173.3514-2.3996 2.0682-2.3996 3.012 0 .0502.0201.0703.0602.0602 1.4759-.271 2.1486 1.2551 4.0562 1.0743-.1706-.4518.0201-.9237.0201-.9237.1506.4016.5121.6727.7731.8033.6828-.1506 1.1245-.4719 1.2249-.6727 0 0-.7229-.5924-.251-1.6767 0 0 .4518.7229 1.3856.3313.0803-.0402.0602-.0904.01-.1105-1.2651-.4116-.4418-1.4759-.3614-1.5863.6024.3514 1.0943-.0803 1.0943-.4619zm-4.1365-3.6044c-.1406.6426-.7028.733-1.0542.3414.0401-.3112.3413-.3815 1.0542-.3414zm-13.4639-10.7329c0 .1606.0703.3012.1205.3815.1105.1607.0904.251.0402.3012s-.1406.0703-.3012-.0401c-.1118-.0786-.245-.1207-.3816-.1205-.271 0-.4116.1807-.4116.3313s.1406.3313.4116.3313c.1607 0 .3012-.0702.3816-.1204.1606-.1105.251-.0904.3012-.0402s-.0201.6024-.0904 1.0442c-.4518.1004-.6727.4618-.6727.6727 0 .5522.5823.8634.9338 1.0542.3413-.1807.9337-.502.9337-1.0542 0-.2109-.2209-.5824-.6727-.6727-.0602-.4318-.1406-.994-.0904-1.0442s.1406-.0703.3012.0402c.0804.0602.2209.1204.3816.1204.2711 0 .4116-.1807.4116-.3313s-.1405-.3313-.4116-.3313c-.1607 0-.3012.0703-.3816.1205-.1606.1104-.251.0903-.3012.0401s-.0702-.1405.0402-.3012c.0602-.0803.1205-.2209.1205-.3815 0-.2711-.1807-.4116-.3313-.4116s-.3314.1405-.3314.4116zm.3414 4.0763c-.133 0-.2632.0395-.3738.1134s-.1968.179-.2477.3019-.0642.2581-.0383.3886c.026.1305.09.2504.1841.3445s.2139.1581.3444.184c.1305.026.2657.0127.3887-.0382.1229-.0509.2279-.1372.3019-.2478.0739-.1106.1134-.2407.1134-.3737-.0019-.1778-.0733-.3479-.1991-.4736-.1257-.1258-.2958-.1973-.4736-.1991zm0 6.4358c2.6807 0 4.1867.512 4.1867.512.0101-1.3554.0101-2.1084.7832-1.998-.4217-1.1345 1.4056-1.5863 1.4056-3.0622 0-.9739-.6928-1.0844-.8936-1.0844-.6024 0-.512.3916-1.0241.3916-.0602 0-.1305-.0201-.1305.0301 0 .1707.1406.4619.3815.4619.3213 0 .3213-.3213.5623-.3213.1004 0 .251.0803.251.4116 0 .6325-.4117 1.3253-.9036 1.8675-.1105-.1506-.2611-.251-.4518-.251-.2912 0-.5422.3012-.5422.6727 0 .1405.0201.2409.0703.3514-.1607.0903-.3113.1405-.4117.1405-.2209 0-.5522-.0903-.5522-.5722 0-1.0743 1.4358-2.0181 1.4358-3.3836 0-.6526-.4318-1.2952-1.3454-1.2952-.9739 0-.7932.8836-1.6366.8836-.0401 0-.0702.01-.0702.0502 0 .0602.1506.5522.5823.5522.4618 0 .5924-.8032 1.014-.8032.1506 0 .3816.0903.3816.6325 0 .4217-.2109 1.1145-.5121 1.7671-.1101-.1164-.2616-.1849-.4217-.1908-.3614 0-.6225.3514-.6225.7631 0 .261.1004.522.2812.6827-.2109.2711-.4318.492-.7229.492-.5824 0-.8334-.3314-.8334-.6928 0-.3916.7129-.5321.7129-1.1346 0-.4116-.2711-.6425-.5221-.6425-.2811 0-.4217.1807-.4518.1807s-.1707-.1807-.4518-.1807c-.2611 0-.5221.2309-.5221.6425 0 .6025.7129.7531.7129 1.1346 0 .3614-.2611.6928-.8334.6928-.2911 0-.512-.2209-.7229-.492.1807-.1707.2812-.4217.2812-.6827 0-.4217-.2611-.7631-.6225-.7631-.0796.0019-.1579.0197-.2304.0525-.0724.0327-.1375.0798-.1913.1383-.3012-.6627-.5121-1.3454-.5121-1.7671 0-.5422.2309-.6325.3816-.6325.4116 0 .5421.8032 1.014.8032.4317 0 .5823-.492.5823-.5522 0-.0302-.0301-.0502-.0702-.0502-.8434 0-.6627-.8836-1.6366-.8836-.9036 0-1.3454.6426-1.3454 1.2952 0 1.3655 1.4358 2.3093 1.4358 3.3836 0 .4819-.3314.5722-.5522.5722-.1105 0-.251-.0502-.4117-.1405.0502-.1205.0703-.2109.0703-.3514 0-.3715-.251-.6727-.5422-.6727-.1807 0-.3313.1004-.4417.251-.492-.5422-.9037-1.235-.9037-1.8675 0-.3213.1506-.4116.251-.4116.231 0 .241.3213.5623.3213.241 0 .3815-.2912.3815-.4619 0-.0502-.0703-.0301-.1305-.0301-.512 0-.4217-.3916-1.0241-.3916-.2008 0-.8936.1105-.8936 1.0844 0 1.4859 1.8273 1.9277 1.4057 3.0622.773-.1104.763.6426.7831 1.998-.0201 0 1.496-.512 4.1767-.512zm-4.9096 1.9979c-.733.1607-1.2551.3113-1.486.3816.0101-.3213.1305-.6225.4217-.6828.0402-.01.0502-.0602.01-.0803-.6526-.4317-.9939.3916-1.004.4217-.2309-.0201-.5823.0502-.5823.3614 0 .9338-2.1285 1.4458-2.6205 1.5261.8735.3314 1.235 1.4358 1.235 1.4358.6325-.6325 1.3654-1.1847 1.5361-1.1847s.2309.2108.241.3313c0 .0401.0401.0502.0702.0201.3314-.492.1707-.6024.1406-.753-.0201-.1105.01-.5422.492-.492v6.2148l-.251.0502c-.1105.0201-1.0241-.753-2.0583-1.4759-1.0441-.7229-1.5964-.2911-2.7811.3514-1.5562.8434-3.1225.0804-3.1225.0804-1.33535.9538-1.79721 3.7249-1.79721 3.7249-.27108.1104-.71285.2309-1.1245.2309-1.02409 0-1.20481-.6225-1.20481-.9839 0-1.5764 1.97792-2.249 1.97792-3.8053 0-.3815-.1707-1.9076-2.06829-1.9076h-1.69677c-.71286 0-.88355-.512-.98395-.7028-.04016-.0803-.11044-.0301-.08032.0301.0502.1305-.08033.3313-.08033.7229 0 .6325.3715 1.0141 1.06427 1.0141.31125 0 .61244-.0904.70281-.1506.06024-.0402.1004.02.07028.0602-.30121.3514-.32129 1.0141-.20081 1.1647.03012.0401.07029.0301.07029 0 .17069-.6627.79317-1.2952 1.63654-1.2952 1.03414 0 1.0241.8735 1.0241 1.0843 0 1.2651-2.21887 2.1888-2.21887 3.9358 0 1.767 1.86746 2.1385 2.94176 1.8674-.06024 1.7671-2.08835 2.3695-2.1486 1.1044 0-.0602-.0502-.0702-.08032.0101-.251.6225-.1506 1.1747.63253 1.3454.0502.01.03012.0401-.02008.0803-.78313.492-.36143 2.4397-.32127 3.012.06024.8233-.76305.7229-.83334.7028-.03012-.01-.07029 0-.01005.0703.58233.7129 1.30523.0603 1.30523.0603.54216.1707.21084.6325-.16065.8735-.06024.0401-.05019.0803.01005.0803.08032.01.92369.0803 1.07429-.5924.37149.4418.92369.2811 1.03414.2209.16064-.0803.95381-.3715 1.02416.512 0 .0603.0401.0201.0703-.01.5923-.753-.0402-1.2149-.40169-1.2651.03012-.0401.50209-.4417.93379.1105.0301.0401.0602.0502.0602-.0301.0502-.9539-.72291-1.0342-1.22492-.6225-.02008-.1004-.19076-.6326.56232-.6125.0201 0 .0502-.0301.0201-.0602-.58241-.6225-1.06434-.0603-1.18483.0803-.26104.3112-.91365.1807-.97389.1807.2008-3.3032 3.11252-2.1285 3.51412-3.7349.0201-.0803.0602-.0502.0602-.0201.1105.3916 1.0944.4418 1.2751-.3213.0101-.0502 0-.0803-.0301-.0502-.8434.8434-2.741-1.7871-.1506-3.9257 2.2088-1.8172 4.1867-.8032 4.9398-.2108.0401.261-.1205.3514-.2209.3815-.0402.01-.0502.0402.01.0703.2109.0803.502.0502.6426-.1406.4719.3313.0703.753-.1205.8635-.0502.0301-.0301.0602.01.0703.4318.0803.7932-.3615.8133-.6225l.0703.0401v1.8775c0 2.6707 3.0823 3.0422 6.4658 5.3012 3.3836-2.269 6.4559-2.6305 6.4559-5.3012v-1.8775l.0702-.0401c.0201.251.3715.7028.8133.6225.0402-.0101.0602-.0402.01-.0703-.1907-.1205-.6024-.5322-.1204-.8635.1405.2008.4317.2209.6425.1406.0603-.0201.0502-.0603.0101-.0703-.1004-.0301-.2611-.1205-.2209-.3815.753-.6024 2.7309-1.6165 4.9397.2108 2.5904 2.1386.6928 4.7591-.1506 3.9257-.0401-.0401-.0401 0-.0301.0502.1807.7731 1.1647.7129 1.2751.3213.0101-.0301.0502-.0602.0603.0201.4016 1.6064 3.3032.4317 3.514 3.7349-.0602.0101-.7128.1305-.9739-.1807-.1104-.1305-.5924-.7028-1.1847-.0803-.0402.0401 0 .0602.0201.0602.753-.0201.5923.5121.5622.6125-.502-.4117-1.2751-.3314-1.2249.6225 0 .0702.0301.0702.0602.0301.4318-.5522.9037-.1506.9338-.1105-.3514.0502-.994.5121-.4016 1.2651.0301.0301.0602.0703.0703.01.0803-.8835.8634-.6024 1.0241-.512.1104.0602.6626.2209 1.0341-.2209.1506.6727.994.6024 1.0743.5924.0602 0 .0602-.0402.01-.0803-.3614-.241-.7028-.7028-.1606-.8735 0 0 .7229.6526 1.3052-.0603.0502-.0602.0201-.0803-.01-.0703-.0703.0201-.8936.1205-.8334-.7028.0402-.5723.4619-2.52-.3213-3.012-.0502-.0301-.0702-.0603-.02-.0803.7831-.1707.8835-.7229.6325-1.3454-.0301-.0803-.0803-.0603-.0803-.0101-.0603 1.2651-2.0783.6627-2.1486-1.1044 1.0843.2812 2.9417-.1004 2.9417-1.8674 0-1.737-2.2188-2.6707-2.2188-3.9358 0-.2108-.0101-1.0843 1.0241-1.0843.8433 0 1.4658.6325 1.6365 1.2952.0101.0301.0402.0401.0703 0 .1205-.1607.1004-.8133-.2008-1.1647-.0301-.0301 0-.1004.0703-.0602.0903.0602.3915.1506.7028.1506.6928 0 1.0642-.3816 1.0642-1.0141 0-.3916-.1405-.5924-.0803-.7229.0301-.0602-.0502-.1004-.0803-.0301-.1004.2008-.2812.7028-.984.7028h-1.6967c-1.8976 0-2.0683 1.5361-2.0683 1.9076 0 1.5563 1.9779 2.2289 1.9779 3.8053 0 .3714-.1907.9839-1.2048.9839-.4217 0-.8635-.1205-1.1245-.2309 0 0-.4518-2.7611-1.7972-3.7249 0 0-1.5663.763-3.1225-.0804-1.1847-.6425-1.747-1.0743-2.7911-.3514-1.0442.7229-1.9478 1.496-2.0583 1.4759l-.251-.0502v-6.2148c.4819-.0502.5121.3815.492.492-.0301.1405-.1807.261.1405.753.0302.0401.0603.02.0703-.0201.0101-.1205.0804-.3313.241-.3313s.9036.5522 1.5361 1.1847c0 0 .3615-1.0944 1.235-1.4358-.492-.0803-2.6205-.5923-2.6205-1.5261 0-.3112-.3514-.3815-.5823-.3614-.0101-.0301-.3615-.8534-1.0041-.4217-.0301.0201-.0301.0703.0101.0803.2912.0703.4116.3615.4217.6828-.6225-.1908-3.2631-.9338-6.3956-.9338-1.5261 0-2.9217.1808-4.0361.3816v2.1486h-.8735zm-5.7932 22.0683c-.2309-.0903-.3815-.241-.3815-.5522v-1.3353c-.3816-.1306-1.4257-.5322-3.5241-.5322-1.73702 0-2.27919.3916-2.30932.5322l-.46184 2.5502s.70281-.6426 3.22296-.482c3.0321.1908 6.1747 1.988 6.1747.0703v-1.1245c-2.3695 0-2.7209.7631-2.7209.8735zm18.6747-.8735v1.1245c0 1.9076 3.1426.1205 6.1747-.0703 2.5201-.1606 3.2229.482 3.2229.482l-.4619-2.5502c-.0201-.1406-.5723-.5322-2.3092-.5322-2.0884 0-3.1325.4016-3.5241.5322v1.3353c0 .3012-.1506.4518-.3815.5522 0-.1104-.3514-.8735-2.7209-.8735zm-7.9719-1.1546c4.8896 0 9.8494.251 10.492.994.0502.0602.0702 0 .0702-.0502v-2.5904c0-.753-5.1204-1.1948-10.5722-1.1948-5.4519 0-10.5723.4418-10.5723 1.1948v2.5904c0 .0401.02.1004.0702.0502.6627-.733 5.6225-.994 10.5121-.994zm-4.3574-12.2088-.492-.1306-.0402.0603-.5723-.251h.5121c.0502 0 .0502-.0301.0301-.0502-.2309-.2309-.4418-.4317-.4418-.4317s.231.0903.5623.2108c.0402.01.0502-.01.0301-.0402l-.3815-.5522.5522.3715c.0301.0201.0502 0 .0402-.0301l-.2611-.6526.502.4819c.0201.0201.0502.0101.0402-.0201l-.1406-.6526.3715.5422c.0201.0301.0502.0201.0502-.0101 0-.1104.0101-.5923.0101-.5923s.1606.3614.2309.5421c.0201.0402.0401.0402.0602-.01.0201-.0602.1908-.4618.1908-.4618l.0201.6224-.0804.0201-.1004.743c.733-.1707 1.6567-1.4357 2.3595-1.4357.8433 0 1.1446.9839 2.6907.4819.3916.5823.5322 1.0843.6828 1.7771.6024.5622 1.4357.3715 1.4357-.2209 0-.8032-.8735-.9538-.8735-1.7972 0-.3715.2611-.9136.9739-.9136.3815 0 .9337.1606 1.255.1606.3816 0 .4619-.2711.502-.3916.0302-.0803.1406-.0602.1306.0101-.0101.0803.0401.1908.0401.3715 0 .5321-.7731.6024-.8634.5321-.0402-.0301-.0703.01-.0402.0402.1205.0903.0904.4116-.0502.6124-.0201.0201-.0402.0201-.0402 0-.0803-.3815-.5321-.8534-.9236-.8534-.1406 0-.4318.0803-.4318.4217 0 .4719.9538.9136.9538 1.8976 0 1.0241-1.014 1.2751-2.0381 1.014.0301.9739 1.4859 1.5462 1.5161.8534 0-.0502.0301-.02.0401 0 .2109.3012.1205.5221-.1606.6426.251.1105.3012.6225.3715.9337.1104.4619.5923.2008.6224.1908.0302-.0201.0402 0 .0201.0301-.1807.4719-.6727.2912-.6727.2912-.251.1807.0502.3414.2812.4116.0301.0101.0301.0302.01.0502-.1707.0603-.5321.1808-.7129-.1305-.1305.3213-.4016.3113-.502.3113-.1907 0-.3112.1907-.271.4518 0 .0201-.0101.0301-.0302.0201-.4417-.2912-.1907-.6426-.01-.733-.0301-.0201-.3414-.1506-.4719.2109-.01.0301-.0301.0301-.0402 0-.1907-.5221.231-.6727.5322-.5422-.0201-.0703-.1807-.3313-.5824-.241-.02.0101-.0301 0-.02-.0301.0702-.1606.261-.3916.6325-.1606.1908.1205.512-.0502.5422-.0703-.6526-1.2952-1.9077-.2109-2.1988-1.2249-.0101-.0201-.0302-.0402-.0502.0201-.0703.2108-.6225.2309-.7229-.1908-.0101-.0301 0-.0402.0301-.0201.0803.0803.251.1506.4819-.1707.1506-.2208.1707-.512.1707-.7028 0-.7831-.7831-2.1084-2.008-2.1084-.7731 0-1.6064.3012-2.2289.753l.5723.1305c-.0502.5824-.6125.9237-1.1245.7731l.0903-.6626c-.0903.0301-.3112.1104-.4317.2811-.0101.01-.0301.01-.0301-.01-.1004-.3816.2108-.5723.3012-.6125.01-.01.01-.01-.0101-.01-.2811-.0101-.4317.1907-.4819.261-.01.01-.0201.01-.0201 0 .0301-.0803-.0201-.2711.1105-.4116zm1.7068 4.498c-.2209.271-.4117.01-.7028.01-.2711 0-.3213.2309-.3213.3213 0 .0201-.01.0201-.0201.01-.3112-.4217.0402-.6526.241-.6827-.0301-.0301-.3313-.2309-.5221.0502-.01.0201-.0301.01-.0301-.01-.0101-.5221.4016-.5623.6827-.3314.0502-.2008-.0803-.3313-.3012-.3413-.0301 0-.0301-.0201-.0201-.0302.0904-.1004.1807-.1405.2711-.1405.2912 0 .3313.3715.5221.3715.2811 0 .6928-.3816.7229-.4217-.0101-.0201-.2811-.7631-.2309-1.2048 0-.0201-.0101-.0201-.0201-.0101-.1406.0803-.482.0703-.482-.3514 0-.0301.0101-.0401.0302-.01.1506.2108.4016-.0302.5221-.1707.1305-.1506.8534-1.1948 1.8072-1.1948.2108 0 .4819.1205.7028.2711-.3313.4016 0 .7831.241.7329.0301-.01.0301.0201.01.0301-1.2651.4719-1.8273.6627-1.8273 1.727 0 .5522.1908.8634.512.7831.0201-.0101.0302 0 .0101.0201-.1205.1405-.251.1907-.3615.1907-.261 0-.3112-.1405-.4518-.1405-.1405 0-.6124.2811-.6124.512 0 .0904.0602.2109.2209.3113.01.01 0 .02 0 .02-.1306 0-.502.0302-.5924-.3212zm3.3333-10.2912c-.3915-.0201-.6526.0602-.6325.1908.1807.2008.4418.1807.6325-.1908zm-1.4658.9739c.2811-.0703.5823-.0402.6225-.0301.0401.01.0401.0803-.0101.0903-.5823.0703-.6124.3414-.9839.3414-.241 0-.5121-.251-.4117-.6125.0101-.0502.0502-.0502.0603 0 .0401.1607.2711.3314.7229.2109zm-7.5603 12.9116c.3815.492.753.0302 1.2651.0302.251 0 .5522.0803.6024.5823 0 .0301.0201.0301.0502 0 .5522-.753-.0803-1.1747-.4418-1.235.0803-.0702.6125-.4016.9639.0904.0201.0301.0602.0201.0602-.0201 0-.9538-.7128-1.0241-1.2349-.6124-.1004-.3715.1807-.6125.5422-.6125.0401 0 .0602-.0301.0401-.0502-.6426-.6827-1.1144.1807-1.2249.3113-.251.3413-1.1646-.3012-1.5361-.6828 0 0 .8032-.8433.8032-1.6164 0-.0502-.0101-.1105-.0101-.1406 0-.0201.0101-.0301.0302-.0201.0803.0502.1907.0804.3012.0804.1807 0 .5321-.0603.5321-.7129 0-.0502-.0201-.0502-.0402-.0201-.1004.1406-.2008.1707-.2811.1707-.6526 0-2.008-2.1687-3.6144-2.1687-.4217 0-1.2149.3012-1.6065.733.1908.1104.2309.3514.2109.522-.0302.2711-.251.4117-.4719.4719-.0402.0101-.0402.0402 0 .0603.8132.3112 2.2791.8634 2.6205 1.1546.3915.3414.3212.9839.0903 1.8775-.2209.8534-.6927.743-.8735.7129-.0301 0-.0301.01-.0201.0301.2109.261.4619.3514.6828.3514.4217 0 .5823-.2611.7932-.2611.3614 0 1.1345.5221 1.1345.9237 0 .2209-.1707.4318-.4016.5723-.0101.0101-.0101.0301.01.0301.1707.0302.8936.0904 1.0241-.5522zm17.7109.5522c.02 0 .0301-.02.01-.0301-.2209-.1506-.4016-.3514-.4016-.5723 0-.4016.763-.9237 1.1345-.9237.2209 0 .3715.2611.7932.2611.2209 0 .4719-.0904.6827-.3514.0201-.0201.0101-.0402-.02-.0301-.1707.0301-.6527.1405-.8735-.7129-.231-.8936-.3113-1.5361.0903-1.8775.3314-.2912 1.8073-.8434 2.6205-1.1546.0402-.0201.0402-.0502 0-.0603-.2209-.0602-.4418-.2008-.4719-.4719-.0201-.1706.0201-.4016.2109-.522-.4016-.4318-1.1948-.733-1.6165-.733-1.6064 0-2.9618 2.1687-3.6145 2.1687-.0803 0-.1907-.0301-.2811-.1707-.0201-.0301-.0401-.0301-.0401.0201 0 .6526.3514.7129.5321.7129.1004 0 .2209-.0302.3012-.0804.0201-.01.0301 0 .0301.0201 0 .0301-.01.0904-.01.1406 0 .7731.8032 1.6164.8032 1.6164-.3615.3816-1.2751 1.0141-1.5362.6828-.1104-.1406-.5823-.994-1.2249-.3113-.02.0301-.01.0502.0402.0502.3614 0 .6426.241.5422.6125-.5221-.4117-1.235-.3414-1.235.6124 0 .0402.0402.0502.0603.0201.3413-.492.8835-.1606.9538-.0904-.3615.0502-.984.482-.4418 1.235.0201.0301.0402.0301.0502 0 .0603-.492.3615-.5823.6024-.5823.502 0 .8735.4618 1.2651-.0302.1506.6426.8634.5824 1.0442.5522zm-12.9719-12.52c-.0502.0702-.2209 0-.2811-.0302-.0101-.01-.0201 0-.0101.0101.0402.0903.2008.3614.4418.3614.1104 0 .2711-.0602.3112-.1405 0 0 .9438.3112 1.4056.4317-.1807.241-.2911.5321-.3212.8434-.3715-.231-1.8775-1.0342-1.8775-1.0342l-.4619.6426c-.0803.1004-.4518-.1707-.3715-.2711l.3514-.492c-.1205-.1204-.4016-.0501-.4819-.02-.01 0-.0201 0-.01-.0201.0502-.1004.2208-.3916.6626-.2611 0-.271-.4016-.1807-.512-.1506-.0101 0-.0201 0-.0101-.01.1105-.1205.4418-.3815.8032-.1606l.1607-.2209-.3213-.3414.2008-.2811.2309.3012 1.737-2.3795c.0401-.0603.3915-.1607.512-.1908.0101.1305.0301.492-.01.5522l-1.7069 2.3996.3615.1205-.2008.2811-.4217-.2008zm6.0944-.3916c0 .2209.1305.5422.4216.4418.0101-.0101.0302 0 .0201.01-.0401.241-.4819.4619-.6727.1807-.1807.3715-.1305.7229.241.9237.0201.0101.0201.0402 0 .0603-.2309.1606-.5823.1305-.743-.1908-.3112.2309-.2711.7329-.0803.9036 0 0-.8635.5121-1.6466.1506-.5221-.251-.9438-.5723-1.6164-.512.0903-.9438.5622-1.1848 1.4257-1.3253.6927-.1105.773-.4318.6827-.6727-.2309-.0603-.6627.1506-.6627.1506-.0803-.1305.0302-.2611.0302-.2611-.0402-.0502-.0603-.2208-.0603-.2208.4819 0 .5723-.1105.5723-.1105.0904-.502-.4217-.5522-.8133-.2811-.1807-.1607-.1506-.3715-.1506-.3715-.0246-.0176-.0452-.0401-.0608-.066s-.0256-.0547-.0295-.0846c0-.1205.5723-.4418.7229-.4819.0401-.1707.2409-.4016.8534-.3414.0703-.1606-.0502-.753-.1205-.9036-.0201-.0502.01-.0703.0602-.0402.2109.1306.4217.6326.5723.6426 0 0 .6828-.3614.7129-.3414.0301.0201.1305.7832.1305.7832.0904.1104.6225 0 .8534.1004.0603.0301.0603.0702 0 .0803-.1707.0301-.7229.2711-.8132.4217.3213.4719.1707 1.1646.1707 1.3554z" fill="#fff"/><path d="m62.1587 64.7189c.6024-.1706.9036-.4819.9036-1.1847v-7.6406l-.9839-.3112v-.3414c.9839-.1706 1.8674-.2309 3.1024-.2309 2.3494 0 3.4739.9137 3.4739 2.6305 0 1.5362-.8534 2.5502-2.239 2.9719l2.1988 2.9418c.3715.502.8835.8735 1.4458 1.0542v.2912c-.2912.2008-.6827.3413-1.1847.3413-.6727 0-1.1045-.261-1.6667-1.1044l-2.0582-3.1124h-.733v3.2831l.984.251v.3414c-.5121.1606-1.0844.261-1.7771.261-.5422 0-1.0141-.0502-1.4659-.1606zm2.8614-4.4277c1.2149 0 2.2089-.7931 2.2089-2.4096 0-1.2751-.8133-2.008-2.1486-2.008-.2008 0-.4719.0301-.6727.0602v4.3574zm5.8133 4.4679c.4217-.1506.8233-.4618.8233-.8434v-5.261l-.994-.4217v-.3313c.7028-.2008 1.4157-.2912 1.8474-.2912h.502l-.0803.8434v5.9136l.8735.231v.2911c-.5322.1908-1.0141.2611-1.8073.2611-.3614 0-.8132-.0301-1.1646-.1406zm.6526-9.4679c0-.4819.3414-.9136.8835-.9136.4318 0 .8133.3313.8133.8434 0 .5421-.3715.9638-.8735.9638-.4619-.01-.8233-.3815-.8233-.8936zm3.8956 3.3635-.994-.4217v-.3313c.7129-.2008 1.4157-.2912 1.8675-.2912h.502l-.0904.8735v6.988c0 2.5502-.763 3.3433-1.757 3.3433-.3414 0-.6827-.1205-.8735-.3715v-.251c.6827 0 1.3554-.7831 1.3554-2.3694v-7.1687zm-.1707-3.3635c0-.4819.3414-.9136.8835-.9136.4318 0 .8133.3313.8133.8434 0 .5421-.3715.9638-.8735.9638-.4619-.01-.8233-.3815-.8233-.8936zm2.9819 9.4679c.4217-.1506.8434-.4618.8434-.8434v-9.0261l-1.0241-.4217v-.3413c.7129-.2008 1.4357-.2811 1.8675-.2811h.5321l-.0904.8735v6.2248l.8535-.7429c.8433-.7129 1.6064-1.7872 1.6064-2.49.2811-.0903.512-.1205.8233-.1205.2309 0 .4217.0502.6225.1406-.0302.6727-.7028 1.7269-2.1185 2.741l-.5422.3915 2.3996 2.9117c.4317.5321.8233.7429 1.1546.7429v.3314c-.3413.2309-.7028.3313-1.1546.3313-.4317 0-.8132-.1908-1.1044-.5924l-2.5402-3.3433v3.1425l.8133.251v.2912c-.5723.1908-1.0241.251-1.757.251-.3615 0-.8133-.0301-1.1647-.1406v-.2811zm7.5904-1.4257c.7028.6526 1.3654.9839 2.1988.9839.8735 0 1.3253-.4216 1.3253-.9638s-.3113-.8835-1.3354-1.3253l-.773-.3313c-.9037-.3916-1.4057-1.0442-1.4057-1.9278 0-1.2249 1.0844-2.2891 2.7109-2.2891 1.245 0 1.747.3715 1.747.9638 0 .231-.0302.4318-.0804.6527-.502-.3414-1.1847-.5924-1.7771-.5924-.9939 0-1.4658.4317-1.4658.9638 0 .5623.2811.8735 1.2148 1.2249l.8434.3314c1.1245.4317 1.5462 1.014 1.5462 1.9277 0 1.1948-1.1546 2.2891-2.8916 2.2891-1.3654 0-1.9779-.4317-1.9779-1.2751-.0201-.2108.0301-.4618.1205-.6325zm9.3675-5.8132c.3714 0 .8232.0502 1.0743.1104v-2.741l-1.0543-.4217v-.3413c.7129-.2008 1.4759-.2811 1.9278-.2811h.502l-.0904.8735v8.9156c.1104.3113.2912.6426.5924.9036-.3113.2811-.6526.502-1.0944.733-.3113-.251-.5924-.6025-.743-.9338-.502.5121-1.3554.8836-1.9879.8836-1.5763 0-2.8314-1.3053-2.8314-3.3735-.02-2.8012 1.6767-4.3273 3.7049-4.3273zm1.0843 6.1947v-5.1506c-.261-.0903-.7129-.1707-1.1345-.1707-1.3253 0-2.3193 1.0442-2.3193 3.2029 0 1.6967.8835 2.6104 1.8674 2.6104.5924 0 1.235-.2008 1.5864-.492zm2.992 1.0442c.4217-.1506.823-.4618.823-.8434v-5.261l-.9937-.4217v-.3313c.7028-.2008 1.4157-.2912 1.8577-.2912h.502l-.081.8434v5.9136l.874.231v.2911c-.532.1908-1.014.2611-1.807.2611-.362 0-.8136-.0301-1.165-.1406v-.251zm.6526-9.4679c0-.4819.3414-.9136.8834-.9136.432 0 .813.3313.813.8434 0 .5421-.371.9638-.873.9638-.462-.01-.8234-.3815-.8234-.8936zm6.3654 2.2089c1.677 0 2.691 1.1245 2.691 2.9116 0 .2912 0 .6024-.02.994h-4.589c0 1.747 1.014 2.751 2.3 2.751.763 0 1.606-.261 2.198-.6727.03.0803.061.251.061.4016 0 .7028-1.024 1.3554-2.681 1.3554-1.777 0-3.223-1.3855-3.223-3.5642.01-2.7008 1.647-4.1767 3.263-4.1767zm1.446 3.1024c0-1.5261-.653-2.2591-1.576-2.2591-.854 0-1.758 1.0241-1.758 2.2591zm2.249 4.1566c.401-.1506.823-.4618.823-.8434v-5.261l-1.004-.4217v-.3414c.713-.2008 1.416-.2811 1.868-.2811h.371v.8434c.532-.5321 1.396-.8735 2.299-.8735 1.295 0 2.179.8233 2.179 2.4297v4.3574l.813.231v.2911c-.421.1707-.964.2611-1.636.2611-.332 0-.703-.0301-1.014-.1406v-.251c.391-.1707.562-.4618.562-1.0241v-2.9719c0-1.5261-.643-2.0984-1.556-2.0984-.643 0-1.255.2209-1.607.482v5.2309l.874.2309v.2912c-.532.1907-1.024.261-1.808.261-.371 0-.813-.0301-1.164-.1405zm8.393-1.4257c.703.6526 1.366.9839 2.199.9839.874 0 1.325-.4216 1.325-.9638s-.311-.8835-1.335-1.3253l-.773-.3313c-.904-.3916-1.406-1.0442-1.406-1.9278 0-1.2249 1.085-2.2891 2.711-2.2891 1.245 0 1.747.3715 1.747.9638 0 .231-.03.4318-.08.6527-.502-.3414-1.185-.5924-1.777-.5924-.994 0-1.466.4317-1.466.9638 0 .5623.281.8735 1.215 1.2249l.843.3314c1.125.4317 1.546 1.014 1.546 1.9277 0 1.1948-1.154 2.2891-2.891 2.2891-1.366 0-1.978-.4317-1.978-1.2751-.02-.2108.03-.4618.12-.6325zm6.336-2.5602.05-2.0683h-.853v-.5121l1.676-1.6666.512-.0603-.06 1.4057h2.058l-.11.8433h-1.988l-.03 1.9579c-.02.6526-.02 1.2449-.02 1.8172 0 1.2651.371 1.6968.953 1.6968.452 0 .844-.1606 1.155-.4016l.161.0603c-.06.9136-.603 1.3855-1.677 1.3855-1.245 0-1.847-.6526-1.847-2.1687-.03-.753.01-1.5763.02-2.2891zm6.486-2.3394-.633-.4518v-.3715h2.972v.3715l-.883.3715 1.676 4.9297h.02l1.727-4.8896-.883-.4216v-.3715h2.399v.3715l-.431.3614-2.772 6.8675-.532.0301zm10.07-.9438c1.918 0 3.394 1.4358 3.394 3.5944 0 2.5703-1.788 4.1868-3.645 4.1868-1.888 0-3.414-1.3253-3.414-3.5944.01-2.5603 1.757-4.1868 3.665-4.1868zm-.151 6.8775c1.045 0 2.129-1.014 2.129-3.1425 0-1.8173-.984-2.8314-2.088-2.8314-1.075 0-2.129 1.0743-2.129 3.1326 0 1.8775.984 2.8413 2.088 2.8413zm8.273-6.8775c1.918 0 3.394 1.4358 3.394 3.5944 0 2.5703-1.787 4.1868-3.645 4.1868-1.887 0-3.413-1.3253-3.413-3.5944.01-2.5603 1.757-4.1868 3.664-4.1868zm-.15 6.8775c1.044 0 2.128-1.014 2.128-3.1425 0-1.8173-.984-2.8314-2.088-2.8314-1.074 0-2.128 1.0743-2.128 3.1326 0 1.8775.983 2.8413 2.088 2.8413zm4.518.3916c.402-.1506.823-.4618.823-.8434v-5.261l-1.004-.4217v-.3414c.713-.2008 1.416-.2811 1.868-.2811h.371v1.0844h.02l.432-.482c.422-.4518.843-.6827 1.365-.6827.543 0 .814.2309.814.6727 0 .2912-.091.6426-.251.9337-.291-.2309-.633-.3614-.964-.3614-.482 0-.934.2209-1.366.6425v4.9498l1.075.231v.2911c-.532.1908-1.045.2611-1.928.2611-.452 0-.884-.0301-1.245-.1406v-.251zm12.61-9.8293c2.29 0 4.127 1.8072 4.127 4.6887 0 3.5844-2.199 5.6627-4.689 5.6627-2.289 0-4.136-1.8675-4.136-4.9498 0-3.253 2.269-5.4016 4.698-5.4016zm2.601 4.9699c0-2.7209-1.326-3.9659-2.771-3.9659-1.496 0-2.992 1.496-2.992 4.2169 0 2.7409 1.335 4.1365 2.751 4.1365 1.496 0 3.012-1.3654 3.012-4.3875zm2.741 4.8594c.401-.1506.823-.4618.823-.8434v-5.261l-1.004-.4217v-.3414c.713-.2008 1.416-.2811 1.867-.2811h.372v.8434c.532-.5321 1.396-.8735 2.299-.8735 1.295 0 2.179.8233 2.179 2.4297v4.3574l.813.231v.2911c-.422.1707-.964.2611-1.636.2611-.332 0-.703-.0301-1.014-.1406v-.251c.391-.1707.562-.4618.562-1.0241v-2.9719c0-1.5261-.643-2.0984-1.556-2.0984-.633 0-1.266.2209-1.607.482v5.2309l.874.2309v.2912c-.533.1907-1.024.261-1.808.261-.371 0-.813-.0301-1.164-.1405zm11.857-7.2389c.372 0 .823.0502 1.074.1104v-2.741l-1.054-.4217v-.3413c.713-.2008 1.476-.2811 1.928-.2811h.502l-.09.8735v8.9156c.11.3113.291.6426.592.9036-.311.2811-.653.502-1.084.733-.312-.251-.593-.6025-.743-.9338-.502.5121-1.356.8836-1.988.8836-1.577 0-2.832-1.3053-2.832-3.3735-.03-2.8012 1.667-4.3273 3.695-4.3273zm1.084 6.1947v-5.1506c-.261-.0903-.712-.1707-1.134-.1707-1.325 0-2.319 1.0442-2.319 3.2029 0 1.6967.883 2.6104 1.867 2.6104.593 0 1.235-.2008 1.586-.492zm6.115-6.2148c1.677 0 2.691 1.1245 2.691 2.9116 0 .2912 0 .6024-.02.994h-4.589c0 1.747 1.014 2.751 2.299 2.751.764 0 1.607-.261 2.199-.6727.03.0803.061.251.061.4016 0 .7028-1.025 1.3554-2.681 1.3554-1.777 0-3.223-1.3855-3.223-3.5642.01-2.7008 1.646-4.1767 3.263-4.1767zm1.456 3.1024c0-1.5261-.653-2.2591-1.577-2.2591-.853 0-1.757 1.0241-1.757 2.2591zm2.239 4.1566c.401-.1506.823-.4618.823-.8434v-5.261l-1.004-.4217v-.3414c.713-.2008 1.416-.2811 1.867-.2811h.372v1.0844h.02l.432-.482c.421-.4518.843-.6827 1.365-.6827.542 0 .813.2309.813.6727 0 .2912-.09.6426-.251.9337-.291-.2309-.632-.3614-.963-.3614-.482 0-.934.2209-1.366.6425v4.9498l1.074.231v.2911c-.532.1908-1.044.2611-1.927.2611-.452 0-.884-.0301-1.245-.1406v-.251zm5.502 0c.401-.1506.823-.4618.823-.8434v-5.261l-1.014-.4217v-.3414c.713-.2008 1.416-.2811 1.867-.2811h.372v.8434c.532-.5321 1.396-.8735 2.299-.8735 1.295 0 2.179.8233 2.179 2.4297v4.3574l.813.231v.2911c-.422.1707-.964.2611-1.636.2611-.332 0-.703-.0301-1.015-.1406v-.251c.392-.1707.563-.4618.563-1.0241v-2.9719c0-1.5261-.643-2.0984-1.556-2.0984-.633 0-1.266.2209-1.607.482v5.2309l.874.2309v.2912c-.533.1907-1.024.261-1.808.261-.371 0-.813-.0301-1.164-.1405v-.2611zm11.385-7.259c1.677 0 2.691 1.1245 2.691 2.9116 0 .2912 0 .6024-.02.994h-4.588c0 1.747 1.014 2.751 2.299 2.751.763 0 1.606-.261 2.199-.6727.03.0803.06.251.06.4016 0 .7028-1.024 1.3554-2.681 1.3554-1.777 0-3.223-1.3855-3.223-3.5642.01-2.7008 1.637-4.1767 3.263-4.1767zm1.446 3.1024c0-1.5261-.653-2.2591-1.576-2.2591-.854 0-1.757 1.0241-1.757 2.2591zm2.249 4.1566c.402-.1506.823-.4618.823-.8434v-5.261l-1.014-.4217v-.3414c.713-.2008 1.416-.2811 1.868-.2811h.371v.8434c.542-.5321 1.366-.8735 2.289-.8735.733 0 1.446.3916 1.757.9538.482-.4819 1.527-.9538 2.4-.9538 1.305 0 2.159.7932 2.159 2.4799v4.3072l.813.231v.2911c-.432.1707-.984.2611-1.647.2611-.311 0-.702-.0301-.994-.1406v-.251c.392-.1707.563-.4618.563-1.0241v-3.0321c0-1.4157-.623-2.0382-1.587-2.0382-.562 0-1.094.1406-1.496.3615.061.3313.091.763.091 1.1646v4.1868l.813.2309v.2912c-.432.1707-.964.261-1.637.261-.331 0-.702-.0301-1.014-.1405v-.2611c.392-.1707.563-.4618.563-1.0241v-2.8614c0-1.7269-.512-2.2089-1.476-2.2089-.623 0-1.215.2209-1.547.482v5.2309l.874.2309v.2912c-.542.1907-1.024.261-1.807.261-.372 0-.814-.0301-1.165-.1405zm15.522-7.259c1.677 0 2.691 1.1245 2.691 2.9116 0 .2912 0 .6024-.01.994h-4.588c0 1.747 1.014 2.751 2.299 2.751.763 0 1.606-.261 2.199-.6727.03.0803.06.251.06.4016 0 .7028-1.024 1.3554-2.681 1.3554-1.777 0-3.223-1.3855-3.223-3.5642 0-2.7008 1.637-4.1767 3.253-4.1767zm1.446 3.1024c0-1.5261-.653-2.2591-1.576-2.2591-.854 0-1.757 1.0241-1.757 2.2591zm2.249 4.1566c.402-.1506.823-.4618.823-.8434v-5.261l-1.014-.4217v-.3414c.713-.2008 1.416-.2811 1.868-.2811h.371v.8434c.532-.5321 1.396-.8735 2.299-.8735 1.296 0 2.179.8233 2.179 2.4297v4.3574l.813.231v.2911c-.421.1707-.964.2611-1.636.2611-.332 0-.703-.0301-1.014-.1406v-.251c.391-.1707.562-.4618.562-1.0241v-2.9719c0-1.5261-.643-2.0984-1.556-2.0984-.643 0-1.255.2209-1.607.482v5.2309l.874.2309v.2912c-.532.1907-1.024.261-1.807.261-.372 0-.814-.0301-1.165-.1405v-.2611zm11.847-7.2389c.372 0 .824.0502 1.075.1104v-2.741l-1.055-.4217v-.3413c.713-.2008 1.476-.2811 1.928-.2811h.502l-.09.8735v8.9156c.11.3113.291.6426.592.9036-.311.2811-.652.502-1.084.733-.311-.251-.593-.6025-.743-.9338-.502.5121-1.356.8836-1.988.8836-1.576 0-2.831-1.3053-2.831-3.3735-.021-2.8012 1.676-4.3273 3.694-4.3273zm1.095 6.1947v-5.1506c-.261-.0903-.713-.1707-1.135-.1707-1.325 0-2.319 1.0442-2.319 3.2029 0 1.6967.883 2.6104 1.867 2.6104.593 0 1.225-.2008 1.587-.492zm-185.0003 18.6747c.6827-.1907.9036-.5321.9036-1.3654v-7.49l-.9839-.261v-.4518c.5923-.0804 1.2148-.1105 1.7168-.1105h.5723l4.3273 7.1084.0302-.02v-6.3053l-.994-.251v-.3313c.5023-.1662 1.0272-.2543 1.5562-.261.6225 0 .9036.0502 1.3052.1707v.2811c-.6827.2209-.8835.502-.8835 1.4658v8.1526l-.7329.1707-4.9197-8.1124-.0201.0201v7.1887l.9538.251v.3414c-.4518.1707-.9036.261-1.4156.261-.6225 0-1.0442-.0502-1.4157-.1606zm12.5903-7.2188c1.6768 0 2.6908 1.1244 2.6908 2.9116 0 .2912 0 .6024-.01.994h-4.5884c0 1.747 1.0141 2.751 2.2992 2.751.7631 0 1.6064-.2611 2.1988-.6727.0301.0803.0603.251.0603.4016 0 .7028-1.0241 1.3554-2.6808 1.3554-1.7771 0-3.2229-1.3855-3.2229-3.5642 0-2.7008 1.6366-4.1767 3.253-4.1767zm1.4458 3.1024c0-1.5261-.6526-2.2591-1.5763-2.2591-.8534 0-1.757 1.0241-1.757 2.2591zm5.994-3.0824c.3715 0 .8233.0502 1.0743.1105v-2.741l-1.0542-.4217v-.3413c.7128-.2008 1.4759-.2812 1.9277-.2812h.502l-.0904.8735v8.9157c.1105.3112.2912.6426.5924.9036-.3112.2811-.6526.502-1.0944.7329-.3112-.251-.5923-.6024-.7429-.9337-.502.512-1.3555.8835-1.988.8835-1.5763 0-2.8313-1.3052-2.8313-3.3735-.0101-2.8012 1.6867-4.3273 3.7048-4.3273zm1.0944 6.1948v-5.1506c-.2611-.0904-.7129-.1707-1.1345-.1707-1.3254 0-2.3193 1.0442-2.3193 3.2028 0 1.6968.8835 2.6205 1.8674 2.6205.5924-.01 1.2249-.2108 1.5864-.502zm6.1144-6.2148c1.6768 0 2.6908 1.1244 2.6908 2.9116 0 .2912 0 .6024-.01.994h-4.5884c0 1.747 1.0141 2.751 2.2992 2.751.7631 0 1.6064-.2611 2.1988-.6727.0301.0803.0603.251.0603.4016 0 .7028-1.0241 1.3554-2.6808 1.3554-1.7771 0-3.2229-1.3855-3.2229-3.5642 0-2.7008 1.6366-4.1767 3.253-4.1767zm1.4458 3.1024c0-1.5261-.6526-2.2591-1.5763-2.2591-.8534 0-1.757 1.0241-1.757 2.2591zm2.249 4.1566c.4016-.1607.8233-.4619.8233-.8434v-5.261l-1.014-.4217v-.3414c.7128-.2008 1.4156-.2811 1.8674-.2811h.3715v1.0944h.0101l.4317-.482c.4217-.4518.8434-.6827 1.3654-.6827.5422 0 .8133.2309.8133.6727 0 .2912-.0904.6426-.251.9337-.2912-.2309-.6426-.3614-.9639-.3614-.4819 0-.9337.2209-1.3654.6426v4.9498l1.0743.2309v.2911c-.5321.1908-1.0442.2611-1.9277.2611-.4518 0-.8836-.0301-1.245-.1406v-.261zm4.9799 0c.4017-.1607.8233-.4619.8233-.8434v-9.0261l-1.014-.4217v-.3413c.7028-.2008 1.4357-.2812 1.8675-.2812h.5019l-.08.8735v9.6486l.873.2309v.2912c-.532.1908-1.024.261-1.807.261-.3715 0-.8132-.0301-1.1647-.1405zm7.8217-3.7751v-.4217c0-1.6767-.402-2.0382-1.386-2.0382-.853 0-1.677.3615-2.339 1.0141-.03-.1606-.05-.2912-.05-.4618 0-.994.732-1.5763 2.55-1.5763 1.576 0 2.51.7931 2.51 2.0883 0 .3414-.05 1.1245-.06 1.5763l-.051 2.5201c.111.2811.342.5723.623.7932-.231.2811-.653.5923-1.054.7931-.292-.1907-.533-.4317-.713-.763-.432.4217-1.275.7429-2.099.7429-1.164 0-1.978-.7329-1.978-1.7269 0-1.3654 1.496-2.5401 4.047-2.5401zm-1.486 3.3333c.482 0 1.104-.1908 1.496-.4217v-2.1787c-1.757 0-2.711.7329-2.711 1.5763 0 .6225.422 1.0241 1.215 1.0241zm4.377.4418c.402-.1607.823-.4619.823-.8434v-5.261l-1.014-.4217v-.3414c.713-.2008 1.416-.2811 1.868-.2811h.371v.8434c.533-.5322 1.396-.8735 2.3-.8735 1.295 0 2.178.8233 2.178 2.4297v4.3574l.814.2309v.2912c-.422.1707-.964.261-1.637.261-.331 0-.703-.0301-1.014-.1405v-.251c.392-.1707.562-.4619.562-1.0241v-2.9719c0-1.5261-.642-2.0984-1.556-2.0984-.643 0-1.255.2209-1.606.4819v5.231l.873.2309v.2911c-.532.1908-1.024.2611-1.807.2611-.372 0-.813-.0301-1.165-.1406v-.261zm11.848-7.239c.371 0 .823.0502 1.074.1105v-2.741l-1.054-.4217v-.3413c.713-.2008 1.476-.2812 1.927-.2812h.502l-.09.8735v8.9157c.11.3112.291.6426.592.9036-.311.2811-.652.502-1.094.7329-.311-.251-.592-.6024-.743-.9337-.502.512-1.355.8835-1.988.8835-1.576 0-2.831-1.3052-2.831-3.3735-.01-2.8012 1.687-4.3273 3.705-4.3273zm1.094 6.1948v-5.1506c-.261-.0904-.713-.1707-1.135-.1707-1.325 0-2.319 1.0442-2.319 3.2028 0 1.6968.884 2.6205 1.868 2.6205.592-.01 1.225-.2108 1.586-.502z" fill="#000"/></g></svg>