<svg height="64" viewBox="0 0 64 64" width="64" xmlns="http://www.w3.org/2000/svg"><path d="m0 0h64v64h-64z" fill="none"/><path d="m47.0118 10.2208c.4437.4437 1.1631.4437 1.6068 0s.4437-1.1631 0-1.6069l-.5794-.5794c-.4437-.4437-1.1631-.4437-1.6069 0s-.4437 1.1631 0 1.6069z"/><path d="m44.4199 12.8127c.4437.4437 1.1631.4437 1.6069 0s.4437-1.1631 0-1.6069l-.5794-.5795c-.4437-.4437-1.1631-.4437-1.6069 0s-.4437 1.1631 0 1.6069z"/><path d="m56.0161 14.5447c-.4437-.4437-1.1631-.4437-1.6069 0s-.4437 1.1631 0 1.6069l.5794.5795c.4437.4437 1.1631.4437 1.6069 0s.4437-1.1631 0-1.6069z"/><path d="m53.4242 17.1365c-.4437-.4437-1.1631-.4437-1.6069 0s-.4437 1.1631 0 1.6069l.5795.5794c.4437.4437 1.1631.4437 1.6069 0s.4437-1.1631 0-1.6069z"/><path d="m56.6504 4.6049-4.626 2.1274c-.955.4391-1.1799 1.6956-.4367 2.4388l.0807.0807-14.4606 13.0506c-5.6578-4.5576-10.0351-3.4334-15.3425 4.8871-.7211 1.1304 1.6442 3.2662-2.0854 5.5126-1.5262.9193-3.2523 1.2613-4.7543.2492-.7054-.4752-1.1151-.9736-1.9597-.4744-8.9613 5.297-14.0553 11.3175-4.7701 21.2686 2.8103-2.9539 4.5823-5.9902 5.3474-7.4562.2795-.5357.9025-.8421 1.3848-.6663.5575.2033 1.2877.579 1.9772 1.2684h.0001c.6895.6895 1.0651 1.4197 1.2684 1.9772.1758.4822-.1306 1.1052-.6663 1.3848-1.4659.7651-4.5024 2.5372-7.4562 5.3474 9.9675 9.2987 16.0938 4.0635 21.3937-4.903.3117-.5273.1233-1.1754-.3722-1.5223-2.6922-1.8853 1.1835-8.5504 4.5303-7.0212.3237.1479.7177.088 1.0212-.1057 7.4564-4.7563 9.1219-8.7673 6.1113-13.6202-1.1514.9268-4.2902 3.4299-7.6521 5.9076-.2963.2184-.4611.0071-.5044-.0891l19.9625-22.0217.0838.0838c.7433.7432 1.9997.5182 2.4388-.4367l2.1274-4.626z"/></svg>