<svg height="64" viewBox="0 0 64 64" width="64" xmlns="http://www.w3.org/2000/svg"><path d="m0 0h64v64h-64z" fill="none"/><path d="m55 21.8c-7-7.6-15.9-10.5-20.2-6.5-.6.6-5.6 5-6.2 5.6-4.3 4-2.2 13.1 4.8 20.7s15.9 10.5 20.3 6.5c.6-.6 5.6-5 6.2-5.6 4.2-4 2.1-13.1-4.9-20.7zm-9 14.9c-1.2-1-2.4-2.1-3.6-3.4-5.5-6-7.7-12.8-5.1-15.2 1.7-1.6 5.1-1 8.7 1.3zm11.1 3c-1.6 1.5-4.7 1-8.1-.9v-17.2c1 .9 2.1 1.8 3.1 2.9 5.4 5.9 7.7 12.7 5 15.2zm-25.3 3.3c-1.1-1.2-2.1-2.5-3-3.8-.8-1.1-1.5-2.3-2.1-3.4l-10.5-10.6c1.3-.2 2.7-.3 4.2-.3 1.4 0 2.7 0 4 .2.2-1.4.6-2.6 1.3-3.7-1.7-.2-3.4-.4-5.3-.3-10.4.1-18.5 4.7-18.4 10.5 0 .9.1 7.4.1 8.3.1 5.8 8.3 10.2 18.7 10.1 5.8-.1 10.9-1.6 14.2-3.9-1.1-1-2.2-2-3.2-3.1zm-11.2-4.9c-8.1.1-14.7-2.7-14.7-6.4 0-2.4 2.7-4.5 6.9-5.7l11.8 11.8c-1.3.1-2.6.3-4 .3z"/></svg>