<svg enable-background="new 0 0 64 64" height="64" viewBox="0 0 64 64" width="64" xmlns="http://www.w3.org/2000/svg"><path d="m0 0h64v64h-64z" fill="none"/><path d="m46.2 28 6.3 7.4c.3.4.8.5 1.2.2l6.4-3.2c.5-.3.7-.9.4-1.4l-8.1-14.8c-1.5-2.8-4-4.9-6.9-5.9l-4.7-1.7c-1.1-.4-1.9-1.2-2.2-2.3l-.6-1.3h-6-6l-.4 1.3c-.4 1.1-1.2 1.9-2.2 2.3l-4.7 1.7c-3 1.1-5.4 3.2-6.9 5.9l-8.3 14.9c-.3.5-.1 1.1.4 1.4l6.4 3.2c.4.2.9.1 1.2-.2l6.3-7.4.2 2c.7 7.3.4 14.6-.8 21.8l-1.2 7.1h16 16l-1.2-7.1c-1.2-7.2-1.5-14.6-.8-21.9zm-15.1 2.1c0 1.9-1.3 3.1-3.2 3.1-2.1 0-3.1-1-3.1-3v-5.4h1.8v5.2c0 1.1.5 1.6 1.4 1.6s1.4-.5 1.4-1.6v-5.2h1.7zm6.1 3h-2.4l-2.4-8.3h1.9l1.8 6.2 1.7-6.2h1.8z"/></svg>