<svg enable-background="new 0 0 64 64" viewBox="0 0 64 64" xmlns="http://www.w3.org/2000/svg"><path d="m0 0h64v64h-64z" fill="none"/><path d="m56.7 39.9c-.7-2.4-5.4-6.8-7.6-8.8-.8-.7-1.8-1-2.8-1h-1.1c1-4.7 2.8-10.5 5.7-17-.6-.2-12.2-7.1-28-7.1.6 3.1.9 4.5 1.5 9.3-3.4 1.2-5.9 2.7-8.3 4.5 1.1 2.8 2.2 6 2.9 10.2h-1.3c-1 0-2 .4-2.8 1-2.3 1.9-7 6.4-7.6 8.8-.6 2.2.7 13 1.9 15 1.4 2.3 14.8 4.2 22.8 4.2 8 0 21.4-1.9 22.8-4.2 1.2-1.9 2.5-12.7 1.9-14.9zm-24.7-1.8c-7.9 0-14.3-1-14.3-2.1 0-.6 1.9-1.2 4.9-1.6-.4-6-2.1-11.2-2.8-13.4 1-.7 2.8-1.7 5.1-2.5.5 4 .6 5.4.8 7.9.1 0 .2 0 .3-.3 1-2.5 1.6-10.7.6-16.9 3.4.2 11.6 1.2 20.4 5.3-1.4 3.3-4.7 11.8-5.5 19.9 2.9.4 4.8 1 4.8 1.6 0 1.2-6.4 2.1-14.3 2.1z"/></svg>