<svg width="39" height="40" viewBox="0 0 39 40" fill="none" xmlns="http://www.w3.org/2000/svg">
<path fill-rule="evenodd" clip-rule="evenodd" d="M4 36H28V24.0502L32 20.051V38C32 39.1046 31.1046 40 30 40H2C0.8954 40 0 39.1046 0 38V12.8284C0 12.298 0.2108 11.7892 0.5858 11.4142L11.4142 0.5858C11.7892 0.2108 12.298 0 12.8284 0H27.957L23.957 4H14V12C14 13.1046 13.1046 14 12 14H4V36ZM33.4454 2.12799L37.8766 6.55939C38.6578 7.34039 38.6578 8.60679 37.8766 9.38779L20.8652 26.3964C20.6872 26.5744 20.4702 26.7084 20.2314 26.788L12.6772 27.9728C12.2754 28.1066 11.8934 27.7244 12.0272 27.3228L13.21 19.7792C13.2904 19.5382 13.4258 19.3192 13.6054 19.1396L30.617 2.12799C31.398 1.34699 32.6644 1.34699 33.4454 2.12799Z" fill="#007BC7"/>
</svg>
