<svg width="48" height="48" viewBox="0 0 48 48" fill="none" xmlns="http://www.w3.org/2000/svg">
<path d="M24 48C37.2548 48 48 37.2548 48 24C48 10.7452 37.2548 0 24 0C10.7452 0 0 10.7452 0 24C0 37.2548 10.7452 48 24 48Z" fill="#D52B1E"/>
<path d="M31.1318 14.1944L24.0004 20.5258L16.869 14.1944C16.1147 13.5315 14.9718 13.5544 14.2404 14.2401C13.5547 14.9715 13.5318 16.0915 14.1947 16.8458L20.5261 24.0001L14.1947 31.1315C13.5318 31.8858 13.5318 33.0287 14.2404 33.7372C14.9718 34.4229 16.0918 34.4458 16.8461 33.7829L24.0004 27.4744L31.1318 33.8058C31.8861 34.4687 33.029 34.4458 33.7376 33.7601C34.4233 33.0287 34.4461 31.9087 33.7833 31.1544L27.4747 24.0001L33.8061 16.8687C34.469 16.1144 34.469 14.9715 33.7604 14.2629C33.029 13.5544 31.8861 13.5315 31.1318 14.1944ZM24.0004 24.0229L23.9776 24.0001L24.0004 23.9772L24.0233 23.9544L24.0461 23.9772L24.069 24.0001L24.0004 24.0229Z" fill="white"/>
</svg>
