<svg width="36" height="32" viewBox="0 0 36 32" fill="none" xmlns="http://www.w3.org/2000/svg">
<path d="M32.6848 11.0001H16.8296L21.581 3.8609C22.2598 2.8389 22.0918 1.4769 21.1826 0.651302C20.6602 0.175102 19.9824 -0.0410982 19.3178 0.00610182C18.8268 0.0411018 18.3432 0.220102 17.9346 0.544502L0.942367 14.0573C0.349567 14.5293 0.00396729 15.2443 0.00396729 16.0001C0.00396729 16.7559 0.349767 17.4709 0.942367 17.9429L17.9346 31.4557C18.3926 31.8191 18.9452 31.9999 19.496 31.9999C20.1016 31.9999 20.707 31.7821 21.1826 31.3489C22.0918 30.5233 22.2598 29.1613 21.581 28.1393L16.8298 21.0001H32.685C35.2394 21.0001 36 18.1899 36 15.7009C36 13.2073 35.2394 11.0001 32.6848 11.0001Z" fill="#007BC7"/>
</svg>
