<svg enable-background="new 0 0 64 64" height="64" viewBox="0 0 64 64" width="64" xmlns="http://www.w3.org/2000/svg"><path d="m0 0h64v64h-64z" fill="none"/><path d="m42 27v-5l-5-7v-6l-5-8-5 8v6l-5 7v5h-2v20c0 .6.4 1 1 1h7c0 .1.1.3-.2.4l-5.8 1.1v13.5h20v-15h1c.6 0 1-.4 1-1v-20zm-10 18.2c-4.3 0-7.7-3.5-7.7-7.7s3.5-7.7 7.7-7.7 7.7 3.5 7.7 7.7-3.4 7.7-7.7 7.7z"/><path d="m33.1 36.6c0-.6-.2-3.3-.3-3.7 0-.5-.4-.8-.8-.8-.5 0-.8.3-.8.8s-.3 4-.3 4.5c0 .6.4.9.8 1.1.5.3 3.2 1.7 3.4 1.8.5.2.9.1 1.1-.2s.1-.7-.3-1c-.4-.4-2.4-2.3-2.8-2.5z"/></svg>