<svg enable-background="new 0 0 64 64" height="64" viewBox="0 0 64 64" width="64" xmlns="http://www.w3.org/2000/svg"><path d="m0 0h64v64h-64z" fill="none"/><path d="m40.3 18.9c-2.3-4.6-6.5-10.3-11.5-10.5l2.7 13.4c3.4-.8 6.3-1.8 8.8-2.9zm-11.8 3.5-2.7-13.4c-4.5 2.2-6.2 9-6.6 13.9 2.9.2 6.1 0 9.3-.5zm2.5 12.4-1.9-9.4c-3.4.6-6.6.8-10 .6 0 3.5.4 6.6 1.2 9.7 3.2 0 6.8-.3 10.7-.9zm-9.9 3.9c.9 3 2.1 5.8 3.5 8.2 2.6-.1 5.5-.4 8.7-.9l-1.7-8.3c-3.5.6-7.1 1-10.5 1zm23.2-7.8c-.5-3.1-1.3-6.1-2.6-9.3-2.8 1.3-6 2.4-9.5 3.1l1.9 9.4c3.8-.8 7.2-1.9 10.2-3.2zm2.8-1.3c4-2.1 6.6-4.3 7.3-6.3-1.1-2.8-2.6-5.3-4.6-7.4-1.3 1.5-3.2 3-5.5 4.4 1.3 3.1 2.2 6 2.8 9.3zm-28-17.8c-3.6 2.3-6.4 5.4-8.4 9.1 1.6 1 3.6 1.5 5.5 1.8.3-3.8 1.2-7.7 2.9-10.9zm23.9 5.7c2-1.2 3.6-2.5 4.6-3.7-3.3-2.8-7.3-4.7-11.6-5.5 3 2.4 5.3 5.8 7 9.2zm-4.7 37.6c3.2-1.5 4.8-5.3 5.7-8.7-2.2.8-4.6 1.5-7.1 2.1zm6.7-2.9c4.2-2.7 7.5-6.8 9.3-11.4-1.9 1.5-4.2 2.9-7 4.2-.4 2.4-1 4.8-2.3 7.2zm10.5-25c-1.7 1.9-4.5 3.9-7.9 5.6.4 2.9.5 5.8.2 8.5 4.5-2.3 7.3-5 8.1-7.4.2-2.1.1-4.4-.4-6.7zm-20.9 10 1.7 8.3c3.1-.7 5.9-1.6 8.3-2.6.3-2.7.4-5.7.1-8.7-3 1.1-6.4 2.1-10.1 3zm-16.6 1.4c-3.8-.2-7.2-1-9.5-2.3.5 2.5 1.3 4.8 2.4 7 1.4 1.9 5.1 3.2 10.3 3.5-1.3-2.4-2.4-5.2-3.2-8.2zm8.6 11.3c2.1 2.8 5.2 5.6 8.6 5.8l-1.3-6.7c-2.5.4-5 .7-7.3.9zm-9.4-14.4c-.7-3.3-1.1-6.4-1.1-9.8-2.3-.3-4.6-.9-6.6-2.1-1 2.6-1.5 5.5-1.5 8.4.8 1.8 4.2 3.1 9.2 3.5zm5.8 14.5c-3 0-5.7-.4-7.9-1 3.5 3.5 8 5.8 12.9 6.7-2.1-1.8-3.6-3.6-5-5.7z"/></svg>