<svg enable-background="new 0 0 64 64" height="64" viewBox="0 0 64 64" width="64" xmlns="http://www.w3.org/2000/svg"><path d="m0 0h64v64h-64z" fill="none"/><path d="m41 40.7c-1-.8-1-.8-2.9 0-.7.3-1.5.7-2.6 1.1-2.9 1.2-8.2 2.7-10.4-.2-.6-.8-.9-1.8-.6-2.8.2-1.2 1.1-2.2 2.3-2.8 1.8-.9 3.3-1.9 4.6-2.7l-1.9-1.3c-1.8-1.3-4.3-1.3-6.1 0-.9.6-2.2 1.8-4.3 1.1l-5.3-1.8-5.6 11.3s.8 1.3 4.9 2.9c.1-.1.2-.2.3-.3l2.1-1.8c1.5-1.2 3.5-1.5 5.3-.6.8.4 1.4.9 1.9 1.6 1.3-.4 2.8-.2 4.1.7 1.2.8 2 2 2.2 3.3.8.3 1.5.8 2.1 1.5 1.1 1.3 1.4 3.2.9 4.7.2.2.4.4.6.6.8 1 1.2 2.3 1.1 3.6-.1.9-.4 1.7-.9 2.4 2.5 1.8 5-.8 5.2-2.5 2.2-.2 3.4-1.4 3.6-3.8 2.1 0 4.1-1.5 3.8-3.9 2.3.4 4.1-2.1 3.5-3.7zm-9-12.7c7.2 0 13-5.8 13-13s-5.8-13-13-13-13 5.8-13 13 5.8 13 13 13zm7.6-5.2-.4-.9 1-1.7 1.6-.2c-.6 1-1.4 2-2.2 2.8zm-6.3-18.6c4.8.6 8.6 4.2 9.4 8.8l-1.2 1.6-1.4.7-1.4-1.4-.8-1.4s1-1 .7-1.5-1.8.3-2.1-.1c-.3-.5 0-2 0-2l-1.9-.8s-.6 0-.5.4c.1.5 1.4 1.3 1.3 1.5s-.4.1-.4.1l-.5.9-1.1-.2s.8-.3.9-.6-1.2-1.4-1.2-1.4l-.8.2-.3 1.4-.9.8h-1.2l.1-.6h-.4l.6-1.6 1.1.1s.4-1.1.3-1.5c-.2-.7-.9-.8-.9-1.1s.8-.3 1.2-.7c.3-.1.9-1 1.4-1.6zm-3.8.2c.7-.2 1.3-.3 2-.3l.1.2s-.3 1.3-.7 1.4-1.6-.6-1.6-.6zm-.6 9.4c.6-1.1 1.4-1.3 1.4-1.3l2.9-.6 1.7 1 2.2.4.6.8 1 1.4 1.4.7 1.4-1.2s-.1 1.7-.7 2.7-2 1.8-2 1.8-.1 1-.6 1.8c-.2.3-.7.5-.9.8-.4.6-.3 1.6-.7 1.8-.8.4-1.8.6-2 .4-.3-.3-1-1.5-1-2v-3c0-.5-.7-1.8-.7-1.8s-1.7 0-2.4 0-1.6-.9-1.6-.9-.6-1.6 0-2.8zm-1.7-8.6-1.2 2.3s-1.5 1.9-2.5 3c-.5.5-1.2.9-1.8 1.1.9-2.8 2.9-5.1 5.5-6.4zm-2.6 15.4v2.4c-1.8-1.7-3-3.9-3.4-6.4 1.3.8 3.4 2.5 3.4 4zm27.7 10.6-5.3 1.8c-2.1.7-3.4-.5-4.3-1.1-1.9-1.3-4.3-1.2-6.1 0-1.8 1.3-4.6 3.6-8.9 5.8-1.3.7-1.6 1.8-1 2.6 1.4 1.8 6 .5 8.1-.4 4.4-1.8 4.9-2.9 7.4-.8l8.7 7c5.9-1.9 6.9-3.6 6.9-3.6zm-23.2 24.2.4-.3c1.1-.9 1.1-2.8.2-3.9-.7-.7-1.7-1.2-2.7-1.1.9-2.9-2.6-4.9-4.4-3.4l-.9.7c0-2.7-3-4-4.9-2.5l-2.1 1.8c-1.7 1.4-1.5 3.2-.6 4.4 1 1.2 2.5 1.3 3.6.7 0 .8.2 1.6.7 2.1.6.8 1.7 1.2 2.6 1.1-.3.9-.1 2 .6 2.8.7.9 2 1.3 3.1 1-.1.8.1 1.8.6 2.4.9 1.1 2.8 1.5 4.2.4l1-.9c1.4-1.2 1.5-3.1.6-4.2-.5-.6-1.2-1-2-1.1z"/></svg>