<?xml version="1.0" encoding="utf-8"?>
<!-- Generator: Adobe Illustrator 19.1.0, SVG Export Plug-In . SVG Version: 6.00 Build 0)  -->
<svg version="1.2" baseProfile="tiny" xmlns="http://www.w3.org/2000/svg" xmlns:xlink="http://www.w3.org/1999/xlink" x="0px"
	 y="0px" width="64px" height="64px" viewBox="0 0 64 64" xml:space="preserve">
<g id="_x36_4px_Box">
	<rect fill="none" width="64" height="64"/>
</g>
<g id="Icon">
	<path d="M37.9194,27.1656c0,0,0.9958,6.2409,1.0206,6.5472c0.0269,0.332-0.1813,0.3677-0.2412,0.3698l-6.8863-16.0201
		c-0.1553-0.3996-0.5489-0.6577-0.9772-0.6381c-1.0063,0.0461-1.5254,0.1099-1.5254,0.1099l-2.7544-6.4453
		c-0.1748-0.4091-0.5957-0.6603-1.0373-0.6068C15.5304,11.6918,4,16.5107,4,26.4407V53h4v-3.6759c0-2.7399,4-3.3162,4-0.751V53h6
		v-3.9955c0-3.6011,5-4.2168,5-0.2572V53h6v-4.0159c0-3.9761,6-3.974,6-0.0001V53h7v-4.2527c0-3.9596,5-3.3439,5,0.2572V53h6
		v-4.4269c0-2.5652,4-1.9888,4,0.751V53h4V36.9409C61,31.1572,50.1505,27.9019,37.9194,27.1656z M12,41.3911
		c-1.5143,0.2585-2.8596,0.5539-4,0.8846v-4.381c0-3.2079,4-4.3162,4-1.4224V41.3911z M12,29.7822
		c-1.5143,0.5172-2.8596,1.1079-4,1.7692v-4.4378c0-3.8145,4-4.6198,4-1.8442V29.7822z M23,40.2552
		c-1.7299,0.0959-3.4054,0.2191-5,0.3693v-5.0131c0-3.4468,5-4.0618,5-0.5522V40.2552z M23,27.5106
		c-1.7299,0.1918-3.4054,0.4382-5,0.7385v-5.0994c0-3.5011,5-4.2761,5-1.0691V27.5106z M35,40.0175
		c-1.9971-0.0272-4.0096-0.0211-6,0.0172v-5.0578c0-3.9861,6-3.9456,6-0.0002V40.0175z M47,40.6245
		c-1.5946-0.1501-3.2701-0.2734-5-0.3693v-5.196c0-3.5096,5-2.8946,5,0.5522V40.6245z M57,42.2757
		c-1.1404-0.3307-2.4857-0.626-4-0.8846v-4.9188c0-2.8939,4-1.7856,4,1.4224V42.2757z"/>
</g>
</svg>
