<svg height="64" viewBox="0 0 64 64" width="64" xmlns="http://www.w3.org/2000/svg"><path d="m0 0h64v64h-64z" fill="none"/><path d="m37.9194 27.1656s.9958 6.2409 1.0206 6.5472c.0269.332-.1813.3677-.2412.3698l-6.8863-16.0201c-.1553-.3996-.5489-.6577-.9772-.6381-1.0063.0461-1.5254.1099-1.5254.1099l-2.7544-6.4453c-.1748-.4091-.5957-.6603-1.0373-.6068-9.9878 1.2096-21.5182 6.0285-21.5182 15.9585v26.5593h4v-3.6759c0-2.7399 4-3.3162 4-.751v4.4269h6v-3.9955c0-3.6011 5-4.2168 5-.2572v4.2527h6v-4.0159c0-3.9761 6-3.974 6-.0001v4.016h7v-4.2527c0-3.9596 5-3.3439 5 .2572v3.9955h6v-4.4269c0-2.5652 4-1.9888 4 .751v3.6759h4v-16.0591c0-5.7837-10.8495-9.039-23.0806-9.7753zm-25.9194 14.2255c-1.5143.2585-2.8596.5539-4 .8846v-4.381c0-3.2079 4-4.3162 4-1.4224zm0-11.6089c-1.5143.5172-2.8596 1.1079-4 1.7692v-4.4378c0-3.8145 4-4.6198 4-1.8442zm11 10.473c-1.7299.0959-3.4054.2191-5 .3693v-5.0131c0-3.4468 5-4.0618 5-.5522zm0-12.7446c-1.7299.1918-3.4054.4382-5 .7385v-5.0994c0-3.5011 5-4.2761 5-1.0691zm12 12.5069c-1.9971-.0272-4.0096-.0211-6 .0172v-5.0578c0-3.9861 6-3.9456 6-.0002zm12 .607c-1.5946-.1501-3.2701-.2734-5-.3693v-5.196c0-3.5096 5-2.8946 5 .5522zm10 1.6512c-1.1404-.3307-2.4857-.626-4-.8846v-4.9188c0-2.8939 4-1.7856 4 1.4224z"/></svg>