<svg height="64" viewBox="0 0 64 64" width="64" xmlns="http://www.w3.org/2000/svg"><path d="m0 0h64v64h-64z" fill="none"/><path d="m51.0859 11h-34.5047s.0593-.3542.4624-.4534c11.2281-2.7609 32.9564-2.5466 32.9564-2.5466s0-1.2669 0-2.3231-1.0703-1.7927-2-1.6769c0 0-36-.0178-36 7 0 49.8679.08 37.8848.0856 45.9991.0011 1.6569 1.3408 3.0009 2.9977 3.0009h36.0059c1.6569 0 2.9108-1.3431 2.9108-3v-43c0-1.6569-1.2573-3-2.9141-3zm-18.0859 39.1c-8.3395 0-15.1-6.7605-15.1-15.1s6.7604-15.1 15.1-15.1 15.1 6.7605 15.1 15.1-6.7605 15.1-15.1 15.1z"/><path d="m27.8046 23.9185c-3.8778 1.8216-6.6416 5.607-7.0041 10.0815h4.2265c.1472-4.0801 1.1893-7.639 2.7776-10.0815z"/><path d="m34.2546 22.8135c-.0837-.0085-.1704-.0062-.2546-.013v11.1995h4.9748c-.2191-5.4481-2.2011-10.0157-4.7202-11.1865z"/><path d="m38.1954 23.9185c1.5883 2.4425 2.6304 6.0014 2.7776 10.0815h4.2265c-.3625-4.4745-3.1263-8.2599-7.0041-10.0815z"/><path d="m27.0252 34h4.9748v-11.1995c-.0842.0068-.1709.0045-.2546.0131-2.5191 1.1707-4.5011 5.7383-4.7202 11.1864z"/><path d="m20.8005 36c.3625 4.4745 3.1263 8.2599 7.0041 10.0815-1.5883-2.4425-2.6304-6.0014-2.7776-10.0815z"/><path d="m34 36v11.1995c.0842-.0068.1709-.0045.2546-.0131 2.519-1.1708 4.5011-5.7383 4.7202-11.1865h-4.9748z"/><path d="m38.1954 46.0815c3.8778-1.8216 6.6416-5.607 7.0041-10.0815h-4.2265c-.1472 4.0801-1.1893 7.639-2.7776 10.0815z"/><path d="m31.7454 47.1865c.0837.0085.1704.0062.2546.0131v-11.1996h-4.9748c.2191 5.4481 2.2011 10.0157 4.7202 11.1865z"/></svg>