<svg height="64" viewBox="0 0 64 64" width="64" xmlns="http://www.w3.org/2000/svg"><path d="m0 0h64v64h-64z" fill="none"/><path d="m30.7026 16.0838c.5138-.1368.8218-1.7571.8218-1.7571l-.1244-.2016c-.8575.0381-1.6935.1539-2.5023.3466l-.1877.8968s1.479.8522 1.9926.7153z"/><path d="m40.834 35.9278.5237 1.1531c1.0387-1.0146 1.9075-2.1976 2.575-3.5023l-1.9164.2076z"/><path d="m33.5662 14.1942c-.5607.7866-1.355 1.8785-1.651 2.1746-.4773.4772-1.4491.4722-1.4491.813 0 .341.902.4387 1.1016 1.3036.1028.4457-.4156 1.8-.4156 1.8l-1.4043-.1171-.6818 1.7675.5237.0147-.1274.7926 1.4303.0109 1.0907-.9545.4092-1.6363.905-.2045s1.6235 1.3337 1.4999 1.7044c-.1237.3706-1.1395.7557-1.1395.7557l1.3362.3008.6409-1.1248s.4198.1833.5454-.0682c.1364-.2726-1.5497-1.2455-1.6179-1.8591-.0607-.5462.6636-.5322.6636-.5322l2.3179.9545s-.3291 1.8987.0406 2.455c.3696.5559 2.2391-.4774 2.5702.1575.3308.6347-.865 1.8322-.865 1.8322l.9266 1.668 1.7297 1.7297 1.7297-.8649 1.498-1.9973c-1.0551-5.7298-5.758-10.191-11.6076-10.8758z"/><path d="m42.8232 31.0648c.6818-1.2916.8524-3.3609.8524-3.3609l-1.7297 1.4756-1.7297-.9012-1.2194-1.7211-.7573-1.0371-2.7352-.5205-2.0514-1.2012-3.5831.7197s-.8838.1432-1.5634 1.5476c-.6797 1.4042 0 3.6553 0 3.6553s1.0742.806 1.8774.806c.803 0 3.0947.0195 3.0947.0195s.8835 1.9136.8835 2.5751v3.6883c0 .5113.6438 2.0552 1.0254 2.4167.2727.2584 1.4349.0303 2.4341-.4604.5593-.2747.4202-1.5103.91-2.2125.2714-.3889.879-.5996 1.1005-.9946.572-1.0193.7405-2.2342.7405-2.2342s1.769-.9686 2.4507-2.2601z"/><path d="m19.2534 23.3674c.7742-.3286 1.6477-.7912 2.2357-1.3846 1.2797-1.2916 3.1101-3.6775 3.1101-3.6775l1.5543-2.8499c-3.2494 1.5841-5.769 4.4327-6.9001 7.912z"/><path d="m18.7517 29.4415c.4531 3.1019 1.9666 5.8568 4.1672 7.8909 0-.8337 0-1.8791 0-2.9885 0-1.8526-2.6567-3.8916-4.1672-4.9024z"/><path d="m58.7153 12.2316c-.4199-2.5862-2.338-4.5539-4.8596-4.9848-7.2905-1.2468-19.4413-1.2468-21.8706-1.2468h-.0006c-2.4293 0-14.5802 0-21.8706 1.2468-2.5216.4309-4.4398 2.3986-4.8596 4.9848-1.2152 7.4781-1.2152 9.1926-1.2152 16.6743 0 7.4818 0 9.1962 1.2152 16.6743.4198 2.5862 2.338 4.5539 4.8596 4.9849 1.4703.2515 3.1392.4517 4.8856.6119 0 0 3.4978-3.9622 3.7271-4.223.3188-.3629.3999-.1004.3999-.1004v.0001l-.0001-.0001-3.2579 11.4972-.0095-.0046-.0521.185c-.0428.248.0039.5068.1476.7363.3104.4942.96.6406 1.453.3272l12.2802-7.7911-.0006-.0002c1.0397.0082 1.8431.0085 2.2976.0085h.0006c2.4293 0 14.5801 0 21.8706-1.2467 2.5216-.431 4.4397-2.3986 4.8596-4.9849 1.2151-7.4781 1.2151-9.1925 1.2151-16.6743-.0002-7.4819-.0002-9.1963-1.2153-16.6744zm-26.7153 31.4684c-8.947 0-16.2-7.253-16.2-16.2s7.253-16.2 16.2-16.2 16.2 7.253 16.2 16.2-7.253 16.2-16.2 16.2z"/></svg>