<?xml version="1.0" encoding="utf-8"?>
<!-- Generator: Adobe Illustrator 18.1.0, SVG Export Plug-In . SVG Version: 6.00 Build 0)  -->
<svg version="1.2" baseProfile="tiny" xmlns="http://www.w3.org/2000/svg" xmlns:xlink="http://www.w3.org/1999/xlink" x="0px"
	 y="0px" width="64px" height="64px" viewBox="0 0 64 64" xml:space="preserve">
<g id="box">
	<rect fill="none" width="64" height="64"/>
</g>
<g id="icon">
	<path d="M58.1072,8.0065c-0.0473-0.728-0.8305-1.1682-1.4694-0.816C54.687,8.2659,50.7977,10,46,10c-6.9543,0-8.7588-4-16.691-4
		C23.5059,6,16.3996,9.2092,13,10.9331V8h1c1.1046,0,2-0.8954,2-2V4.8062C16,2.4628,12.3462,2,10,2C7.6513,2,4,2.4635,4,4.8062V6
		c0,1.1046,0.8954,2,2,2h1v55h6c0-15.4663,0-18.3592,0-34.4201c0.0562-0.0209,0.3068-0.0782,0.3641,0.2499
		c0.0604,0.346,1.3421,8.5214,1.8895,12.0154C19.0034,39.1245,24.5886,37,29.309,37c7.9323,0,9.7367,4,16.691,4
		c5.1935,0,10.438-2.1556,12.7609-3.2472c0.7477-0.3514,1.2065-1.1192,1.153-1.9437L58.1072,8.0065z M44.2407,16.4375l0.4336,1.3511
		h1.4136l-1.1479,0.8232l0.4302,1.333l-1.1294-0.8247l-1.1294,0.8247l0.4302-1.333l-1.1484-0.8237l1.4141,0.0015L44.2407,16.4375z
		 M40.436,14.4175l0.4316-1.3535l0.4336,1.3511h1.4146l-1.147,0.8257l0.4287,1.3335l-1.1279-0.8262l-1.1304,0.8252l0.4287-1.3325
		l-1.146-0.8267L40.436,14.4175z M31.1914,14.416l0.4331-1.3525l0.4331,1.3516h1.4136l-1.1465,0.8247l0.4287,1.332L31.625,15.748
		l-1.1289,0.8237l0.4287-1.332l-1.147-0.8252L31.1914,14.416z M27.813,17.8027l0.4331-1.353l0.4336,1.3516h1.4126l-1.146,0.8247
		l0.4292,1.3325l-1.1294-0.8242l-1.1289,0.8242l0.4292-1.3325l-1.147-0.8252L27.813,17.8027z M25.1587,22.4121l1.415,0.0034
		l0.4331-1.3545l0.4331,1.3521h1.4131l-1.1465,0.8247l0.4287,1.332l-1.1284-0.8237l-1.1289,0.8237l0.4292-1.332L25.1587,22.4121z
		 M28.2461,28.3706l-1.1294,0.8257l0.4297-1.333l-1.147-0.8247L27.813,27.04l0.4331-1.353l0.4336,1.3521h1.4131l-1.1465,0.8242
		l0.4292,1.333L28.2461,28.3706z M32.7607,32.5811l-1.1289-0.8242l-1.1289,0.8242l0.4287-1.3325l-1.1475-0.8252l1.4146,0.002
		l0.4321-1.3516l0.4341,1.3501h1.4131l-1.1465,0.8247L32.7607,32.5811z M35.8096,13.1758l0.4331-1.3521l0.4331,1.3506h1.4141
		l-1.1475,0.8247l0.4292,1.3325l-1.1289-0.8242l-1.1289,0.8242l0.4292-1.3325l-1.1475-0.8252L35.8096,13.1758z M37.373,33.8081
		l-1.1294-0.8247l-1.1289,0.8242l0.4287-1.3325l-1.1475-0.8252l1.4146,0.002l0.4326-1.3535l0.4331,1.3521h1.4141l-1.1475,0.8247
		L37.373,33.8081z M41.9854,32.5815l-1.1299-0.8247l-1.1289,0.8242l0.4287-1.3325l-1.147-0.8252l1.4136,0.002l0.4336-1.3516
		l0.4326,1.3501h1.4141l-1.1475,0.8247L41.9854,32.5815z M44.9399,27.8633l0.4302,1.3335l-1.1294-0.8262l-1.1294,0.8262
		l0.4302-1.3335l-1.1479-0.8247l1.4136,0.0015l0.4336-1.353l0.4336,1.3521h1.4131L44.9399,27.8633z M46.5952,24.5576l-1.1289-0.8257
		l-1.1279,0.8262l0.4287-1.333l-1.1479-0.8252l1.4146,0.0015l0.4326-1.3525l0.4336,1.3516h1.4141l-1.1475,0.8247L46.5952,24.5576z"
		/>
</g>
</svg>
