<svg height="64" viewBox="0 0 64 64" width="64" xmlns="http://www.w3.org/2000/svg"><path d="m0 0h64v64h-64z" fill="none"/><path d="m42.2115 22.5208.5902-2.0663-2.2469.1703c-.2195.0037-.3657-.1553-.399-.2924l-.2885-1.0491-1.777 1.7504c-.2527.2842-.7647.2154-.6052-.4992l.759-3.9271-1.0183.3904c-.2858.1208-.5718.1087-.7314-.1978l-1.407-2.8124-1.4064 2.4341c-.1597.2636-.4456.1987-.7315.001l-1.0182-.6642.7589 4.1312c.1596.7576-.3524.6887-.6051.3364l-1.777-2.2283-.2884.9715c-.0333.1282-.1796.2478-.399.1851l-2.247-.7746.5901 2.2251c.1264.4944.225.7053-.1275.7839l-.801.2687 3.8681 3.662c.1531.1394.2305.3636.176.5499l-.3386 1.0654c1.324.0255 2.5119-.0435 3.835-.0081.0605.0217.1733.1566.1752.207l-.189 4.3311.9917.1338-.1104-4.3984c0-.0406.0697-.1205.1057-.1378.0091-.0001.0193-.006.0279-.004 1.3324.3215 2.5257.7129 3.8575 1.0455l-.3386-1.1565c-.0544-.2009.0229-.4043.176-.5024l3.868-2.6219-.8009-.4841c-.3523-.1734-.2537-.3577-.1274-.8182z"/><path d="m58.1072 8.0065c-.0473-.728-.8305-1.1682-1.4694-.816-1.9508 1.0754-5.8401 2.8095-10.6378 2.8095-6.9543 0-8.7588-4-16.691-4-5.8031 0-12.9094 3.2092-16.309 4.9331v-2.9331h1c1.1046 0 2-.8954 2-2v-1.4738c0-.9318-.6419-1.7349-1.5487-1.9489-1.1564-.2729-2.8134-.5773-4.4513-.5773s-3.2949.3044-4.4513.5773c-.9068.214-1.5487 1.0172-1.5487 1.9489v1.4738c0 1.1046.8954 2 2 2h1v55h6c0-11.463 0-34.4201 0-34.4201.0562-.0209.3068-.0782.3641.2499.0477.2728 1.7739 11.2773 1.8895 12.0154 3.7498-1.7207 9.335-3.8452 14.0554-3.8452 7.9323 0 9.7367 4 16.691 4 5.1935 0 10.438-2.1556 12.7609-3.2472.7477-.3514 1.2065-1.1192 1.153-1.9437zm-12.1072 29.9935c-2.7402 0-4.4258-.73-6.5586-1.6543-2.5371-1.0996-5.4141-2.3457-10.1328-2.3457-1.3045 0-2.6921.1588-4.1069.4133l-.9539-24.673c1.729-.4456 3.4688-.7403 5.0608-.7403 3.4746 0 5.4551.8579 7.748 1.8516 2.2013.9536 4.6959 2.0159 8.337 2.1268l1.3021 24.9889c-.232.0098-.4644.0327-.6957.0327z"/></svg>