<?xml version="1.0" encoding="utf-8"?>
<!-- Generator: Adobe Illustrator 19.1.0, SVG Export Plug-In . SVG Version: 6.00 Build 0)  -->
<svg version="1.2" baseProfile="tiny" xmlns="http://www.w3.org/2000/svg" xmlns:xlink="http://www.w3.org/1999/xlink" x="0px"
	 y="0px" width="64px" height="64px" viewBox="0 0 64 64" xml:space="preserve">
<g id="_x36_4px_Box">
	<rect fill="none" width="64" height="64"/>
</g>
<g id="Icon">
	<g>
		<path d="M56.6705,20.7568c-0.6652,2.8513-1.3398,6.6763-1.8404,9.7318c0.4058,0.1675,0.8004,0.4033,1.1742,0.7226
			c2.1583,1.8433,2.384,4.8245,0.7005,7.8059c-3.8063,6.7406-7.9808,9.7905-8.8528,10.42
			c-0.2504,0.1807-0.3872,0.1325-0.4842,0.0413c-0.0002-0.0018-0.0017-0.0143-0.0017-0.0143
			c3.79-4.2266,5.7974-7.1296,7.5137-11.1797c1.302-3.0728,0.6015-4.9219-0.5143-5.589c-1.0902-0.6522-2.2183-0.2977-3.3542,1.3806
			c-3.8644,5.7094-6.6564,8.7136-10.5238,13.2587c-2.6877,3.1588-4.5248,7.0773-4.4868,11.0805
			c0.0241,2.5467,0.1862,3.9399,0.2881,4.5749h13.4996l1.1437-6.4998c0.1595-0.9066,0.5661-1.7512,1.1749-2.4414l7.3868-7.4788
			c1.5349-1.7396,2.417-3.9587,2.4956-6.2773l0.0012-24.175C61.9906,16.1176,58.0524,14.8326,56.6705,20.7568z"/>
		<path d="M12.9888,34.0759c-1.1359-1.6783-2.264-2.0327-3.3542-1.3806c-1.1158,0.6671-1.8163,2.5162-0.5143,5.589
			c1.7162,4.0501,3.7236,6.9532,7.5137,11.1797c0,0-0.0015,0.0125-0.0017,0.0143c-0.097,0.0912-0.2338,0.1394-0.4842-0.0413
			c-0.8719-0.6295-5.0465-3.6794-8.8528-10.42c-1.6835-2.9814-1.4578-5.9626,0.7005-7.8059
			c0.3738-0.3193,0.7684-0.5551,1.1742-0.7226c-0.5006-3.0555-1.1752-6.8806-1.8404-9.7318
			c-1.3819-5.9242-5.3201-4.6392-5.3201-4.6392l0.0012,24.175c0.0786,2.3187,0.9608,4.5377,2.4956,6.2773l7.3868,7.4788
			c0.6088,0.6902,1.0154,1.5349,1.1749,2.4414l1.1437,6.4998h13.4996c0.102-0.6349,0.264-2.0282,0.2881-4.5749
			c0.038-4.0032-1.7991-7.9217-4.4868-11.0805C19.6452,42.7894,16.8533,39.7852,12.9888,34.0759z"/>
		<path d="M51,19.5C51,9.2827,42.7173,1,32.5,1S14,9.2827,14,19.5S22.2827,38,32.5,38S51,29.7173,51,19.5z M34.3108,4.1152
			c6.7637,0.7917,12.2015,5.95,13.4213,12.5754L46,19l-2,1l-2-2l-1.0714-1.9286c0,0,1.3827-1.3846,1-2.1185
			c-0.3827-0.734-2.5443,0.4607-2.9717-0.1821c-0.4274-0.6431-0.0469-2.8385-0.0469-2.8385l-2.6802-1.1036
			c0,0-0.8372-0.0162-0.767,0.6154c0.0787,0.7095,2.0283,1.8342,1.8707,2.1495c-0.1454,0.2908-0.6306,0.0789-0.6306,0.0789
			l-0.7411,1.3005l-1.545-0.3479c0,0,1.1746-0.4453,1.3176-0.8738C35.8772,12.3226,34,10.7805,34,10.7805l-1.0464,0.2365
			l-0.473,1.892l-1.2612,1.1035L29.5657,14l0.1473-0.9165l-0.6056-0.017l0.7883-2.0437l1.6238,0.1354
			c0,0,0.5994-1.566,0.4805-2.0813c-0.2307-1-1.2737-1.113-1.2737-1.5073c0-0.394,1.1237-0.3882,1.6755-0.9399
			C32.7441,6.2872,33.6626,5.0247,34.3108,4.1152z M28.913,4.4359c0.9352-0.2228,1.9017-0.3566,2.8933-0.4008L31.95,4.2683
			c0,0-0.356,1.8735-0.95,2.0317s-2.3041-0.8271-2.3041-0.8271L28.913,4.4359z M22,30.8687
			c-2.5444-2.3518-4.2944-5.5371-4.8184-9.1238C18.9282,22.9136,22,25.2712,22,27.4133C22,28.696,22,29.9047,22,30.8687z
			 M23.9429,8.8687c0,0-2.1165,2.7588-3.5961,4.2522c-0.6798,0.686-1.6898,1.2209-2.585,1.6008
			c1.3077-4.0229,4.2209-7.3167,7.9781-9.1482L23.9429,8.8687z M41.3247,28.8184c-0.2562,0.4568-0.9587,0.7004-1.2725,1.15
			C39.4858,30.7803,39.6466,32.209,39,32.5266c-1.1553,0.5674-2.4991,0.8311-2.8145,0.5323C35.7443,32.641,35,30.8558,35,30.2646V26
			c0-0.7649-1.0217-2.9775-1.0217-2.9775S31.3286,23,30.4,23s-2.1708-0.9319-2.1708-0.9319s-0.7858-2.6028,0-4.2266
			s1.8076-1.7893,1.8076-1.7893l4.1431-0.8323l2.3718,1.3889l3.1626,0.6018l0.8757,1.1992L42,20.3999l2,1.042l2-1.7061
			c0,0-0.1973,2.3926-0.9856,3.886c-0.7883,1.4933-2.8337,2.6133-2.8337,2.6133S41.9861,27.6398,41.3247,28.8184z M42.7144,29.2446
			l1.3669-2.4763l2.2158-0.24c-0.7717,1.5085-1.7764,2.8763-2.9773,4.0496L42.7144,29.2446z"/>
	</g>
</g>
</svg>
