<?xml version="1.0" encoding="utf-8"?>
<!-- Generator: Adobe Illustrator 21.0.2, SVG Export Plug-In . SVG Version: 6.00 Build 0)  -->
<svg version="1.2" baseProfile="tiny" xmlns="http://www.w3.org/2000/svg" xmlns:xlink="http://www.w3.org/1999/xlink" x="0px"
	 y="0px" width="64px" height="64px" viewBox="0 0 64 64" xml:space="preserve">
<g id="Box">
	<rect fill="none" width="64" height="64"/>
</g>
<g id="Icon">
	<g>
		<path d="M30,39.9l0-0.4c0-1-1.3-3.3-1.3-3.3s-3.1,0-4.3,0c-1.2,0-3-1.7-3-1.7s-1-3.4,0-5.5c1-2.1,2.6-2.3,2.6-2.3l5.4-1.1l3.1,1.8
			l4.1,0.8l1.1,1.6l0.2,0.3c0.6-0.3,1.2-0.5,1.8-0.6l-0.2-0.2l-1.4-2.5c0,0,1.8-1.8,1.3-2.7s-3.3,0.6-3.9-0.2
			c-0.6-0.8-0.1-3.7-0.1-3.7l-3.5-1.4c0,0-1.1,0-1,0.8c0.1,0.9,2.6,2.4,2.4,2.8c-0.2,0.4-0.8,0.1-0.8,0.1l-1,1.7l-2-0.5
			c0,0,1.5-0.6,1.7-1.1c0.2-0.6-2.2-2.6-2.2-2.6L27.6,20L27,22.4l-1.6,1.4l-2.1,0l0.2-1.2l-0.8,0l1-2.7l2.1,0.2c0,0,0.8-2,0.6-2.7
			c-0.3-1.3-1.7-1.4-1.7-2c0-0.5,1.5-0.5,2.2-1.2c0.4-0.4,1.6-2.1,2.5-3.3c8.8,1,15.8,7.7,17.4,16.3L45.5,29c2,0.4,3.8,1.2,5.5,2.5
			c0-0.2,0-0.3,0-0.5C51,17.7,40.3,7,27,7S3,17.7,3,31s10.7,24,24,24c3.2,0,6.3-0.6,9.1-1.8c-0.9-0.5-1.7-1.2-2.4-1.9
			C30.6,48.2,29.3,43.9,30,39.9z M22.3,11.5c1.2-0.3,2.5-0.5,3.8-0.5l0.2,0.3c0,0-0.5,2.4-1.2,2.6c-0.8,0.2-3-1.1-3-1.1L22.3,11.5z
			 M13.4,45.7c-3.3-3.1-5.6-7.2-6.3-11.8c2.3,1.5,6.3,4.6,6.3,7.4V45.7z M15.9,17.2c0,0-2.7,3.6-4.7,5.5c-0.9,0.9-2.2,1.6-3.4,2.1
			c1.7-5.2,5.5-9.5,10.4-11.9L15.9,17.2z M60.4,55.3L52.2,48c2.7-4.3,2.3-10-1.5-13.7c-4.3-4.3-11.3-4.3-15.6,0s-4.3,11.3,0,15.6
			C39,53.5,44.7,54,49,51.2l7.4,8.2c1,1.1,2.7,0.9,3.8-0.2S61.6,56.4,60.4,55.3z M48,47c-2.8,2.8-7.3,2.8-10,0
			c-2.8-2.8-2.8-7.3,0-10c2.8-2.8,7.3-2.8,10,0C50.8,39.8,50.8,44.2,48,47z"/>
	</g>
</g>
</svg>
