<svg height="64" viewBox="0 0 64 64" width="64" xmlns="http://www.w3.org/2000/svg"><path d="m0 0h64v64h-64z" fill="none"/><path d="m56.6705 20.7568c-.6652 2.8513-1.3398 6.6763-1.8404 9.7318.4058.1675.8004.4033 1.1742.7226 2.1583 1.8433 2.384 4.8245.7005 7.8059-3.8063 6.7406-7.9808 9.7905-8.8528 10.42-.2504.1807-.3872.1325-.4842.0413-.0002-.0018-.0017-.0143-.0017-.0143 3.79-4.2266 5.7974-7.1296 7.5137-11.1797 1.302-3.0728.6015-4.9219-.5143-5.589-1.0902-.6522-2.2183-.2977-3.3542 1.3806-3.8644 5.7094-6.6564 8.7136-10.5238 13.2587-2.6877 3.1588-4.5248 7.0773-4.4868 11.0805.0241 2.5467.1862 3.9399.2881 4.5749h13.4996l1.1437-6.4998c.1595-.9066.5661-1.7512 1.1749-2.4414l7.3868-7.4788c1.5349-1.7396 2.417-3.9587 2.4956-6.2773l.0012-24.175c0-.0002-3.9382-1.2852-5.3201 4.639z"/><path d="m12.9888 34.0759c-1.1359-1.6783-2.264-2.0327-3.3542-1.3806-1.1158.6671-1.8163 2.5162-.5143 5.589 1.7162 4.0501 3.7236 6.9532 7.5137 11.1797 0 0-.0015.0125-.0017.0143-.097.0912-.2338.1394-.4842-.0413-.8719-.6295-5.0465-3.6794-8.8528-10.42-1.6835-2.9814-1.4578-5.9626.7005-7.8059.3738-.3193.7684-.5551 1.1742-.7226-.5006-3.0555-1.1752-6.8806-1.8404-9.7318-1.3819-5.9242-5.3201-4.6392-5.3201-4.6392l.0012 24.175c.0786 2.3187.9608 4.5377 2.4956 6.2773l7.3868 7.4788c.6088.6902 1.0154 1.5349 1.1749 2.4414l1.1437 6.4998h13.4996c.102-.6349.264-2.0282.2881-4.5749.038-4.0032-1.7991-7.9217-4.4868-11.0805-3.8674-4.545-6.6593-7.5492-10.5238-13.2585z"/><path d="m51 19.5c0-10.2173-8.2827-18.5-18.5-18.5s-18.5 8.2827-18.5 18.5 8.2827 18.5 18.5 18.5 18.5-8.2827 18.5-18.5zm-16.6892-15.3848c6.7637.7917 12.2015 5.95 13.4213 12.5754l-1.7321 2.3094-2 1-2-2-1.0714-1.9286s1.3827-1.3846 1-2.1185c-.3827-.734-2.5443.4607-2.9717-.1821-.4274-.6431-.0469-2.8385-.0469-2.8385l-2.6802-1.1036s-.8372-.0162-.767.6154c.0787.7095 2.0283 1.8342 1.8707 2.1495-.1454.2908-.6306.0789-.6306.0789l-.7411 1.3005-1.545-.3479s1.1746-.4453 1.3176-.8738c.1428-.4287-1.7344-1.9708-1.7344-1.9708l-1.0464.2365-.473 1.892-1.2612 1.1035-1.6537-.0125.1473-.9165-.6056-.017.7883-2.0437 1.6238.1354s.5994-1.566.4805-2.0813c-.2307-1-1.2737-1.113-1.2737-1.5073 0-.394 1.1237-.3882 1.6755-.9399.3423-.3425 1.2608-1.605 1.909-2.5145zm-5.3978.3207c.9352-.2228 1.9017-.3566 2.8933-.4008l.1437.2332s-.356 1.8735-.95 2.0317-2.3041-.8271-2.3041-.8271zm-6.913 26.4328c-2.5444-2.3518-4.2944-5.5371-4.8184-9.1238 1.7466 1.1687 4.8184 3.5263 4.8184 5.6684zm1.9429-22s-2.1165 2.7588-3.5961 4.2522c-.6798.686-1.6898 1.2209-2.585 1.6008 1.3077-4.0229 4.2209-7.3167 7.9781-9.1482zm17.3818 19.9497c-.2562.4568-.9587.7004-1.2725 1.15-.5664.8119-.4056 2.2406-1.0522 2.5582-1.1553.5674-2.4991.8311-2.8145.5323-.4412-.4179-1.1855-2.2031-1.1855-2.7943v-4.2646c0-.7649-1.0217-2.9775-1.0217-2.9775s-2.6497-.0225-3.5783-.0225-2.1708-.9319-2.1708-.9319-.7858-2.6028 0-4.2266 1.8076-1.7893 1.8076-1.7893l4.1431-.8323 2.3718 1.3889 3.1626.6018.8757 1.1992 1.41 1.9901 2 1.042 2-1.7061s-.1973 2.3926-.9856 3.886c-.7883 1.4933-2.8337 2.6133-2.8337 2.6133s-.1946 1.4047-.856 2.5833zm1.3897.4262 1.3669-2.4763 2.2158-.24c-.7717 1.5085-1.7764 2.8763-2.9773 4.0496z"/></svg>