<svg height="64" viewBox="0 0 64 64" width="64" xmlns="http://www.w3.org/2000/svg"><path d="m0 0h64v64h-64z" fill="none"/><path d="m30 39.9v-.4c0-1-1.3-3.3-1.3-3.3s-3.1 0-4.3 0-3-1.7-3-1.7-1-3.4 0-5.5 2.6-2.3 2.6-2.3l5.4-1.1 3.1 1.8 4.1.8 1.1 1.6.2.3c.6-.3 1.2-.5 1.8-.6l-.2-.2-1.4-2.5s1.8-1.8 1.3-2.7-3.3.6-3.9-.2-.1-3.7-.1-3.7l-3.5-1.4s-1.1 0-1 .8c.1.9 2.6 2.4 2.4 2.8s-.8.1-.8.1l-1 1.7-2-.5s1.5-.6 1.7-1.1c.2-.6-2.2-2.6-2.2-2.6h-1.4l-.6 2.4-1.6 1.4h-2.1l.2-1.2h-.8l1-2.7 2.1.2s.8-2 .6-2.7c-.3-1.3-1.7-1.4-1.7-2 0-.5 1.5-.5 2.2-1.2.4-.4 1.6-2.1 2.5-3.3 8.8 1 15.8 7.7 17.4 16.3l-1.3 1.8c2 .4 3.8 1.2 5.5 2.5 0-.2 0-.3 0-.5 0-13.3-10.7-24-24-24s-24 10.7-24 24 10.7 24 24 24c3.2 0 6.3-.6 9.1-1.8-.9-.5-1.7-1.2-2.4-1.9-3.1-3.1-4.4-7.4-3.7-11.4zm-7.7-28.4c1.2-.3 2.5-.5 3.8-.5l.2.3s-.5 2.4-1.2 2.6c-.8.2-3-1.1-3-1.1zm-8.9 34.2c-3.3-3.1-5.6-7.2-6.3-11.8 2.3 1.5 6.3 4.6 6.3 7.4zm2.5-28.5s-2.7 3.6-4.7 5.5c-.9.9-2.2 1.6-3.4 2.1 1.7-5.2 5.5-9.5 10.4-11.9zm44.5 38.1-8.2-7.3c2.7-4.3 2.3-10-1.5-13.7-4.3-4.3-11.3-4.3-15.6 0s-4.3 11.3 0 15.6c3.9 3.6 9.6 4.1 13.9 1.3l7.4 8.2c1 1.1 2.7.9 3.8-.2s1.4-2.8.2-3.9zm-12.4-8.3c-2.8 2.8-7.3 2.8-10 0-2.8-2.8-2.8-7.3 0-10 2.8-2.8 7.3-2.8 10 0 2.8 2.8 2.8 7.2 0 10z"/></svg>