<svg enable-background="new 0 0 64 64" viewBox="0 0 64 64" xmlns="http://www.w3.org/2000/svg"><path d="m8.7011 46.8912-.0055 7.4699h6.5346v-5.0837h13.4451v5.0837h6.5344v-5.0837h13.5603v5.0837h6.5344v-7.4699z"/><path d="m15.9348 9.6389v13.1356h17.0552v-13.1356zm11.261 6.0974h-5.4667c-.5006 0-.9065-.4058-.9065-.9063 0-.5006.4058-.9064.9065-.9064h5.4667c.5006 0 .9065.4057.9065.9064 0 .5004-.4058.9063-.9065.9063z"/><path d="m13.994 24.0725v16.2824h18.996v-16.2824zm12.585 6.4739h-6.1739c-.5654 0-1.0237-.4582-1.0237-1.0234 0-.5654.4583-1.0237 1.0237-1.0237h6.1739c.5654 0 1.0237.4583 1.0237 1.0237 0 .5652-.4583 1.0234-1.0237 1.0234z"/><path d="m34.7598 28.1178v12.2371h15.2025v-12.2371zm9.978 4.8839h-4.7528c-.4353 0-.7883-.3528-.7883-.7881s.353-.7881.7883-.7881h4.7528c.4351 0 .7879.3528.7879.7881-.0001.4353-.3528.7881-.7879.7881z"/><path d="m34.7598 15.7379v10.9955h14.2767v-10.9955zm9.4097 4.682h-4.4342c-.4061 0-.7355-.3292-.7355-.7352 0-.4062.3294-.7353.7355-.7353h4.4342c.4058 0 .735.3291.735.7353 0 .406-.3292.7352-.735.7352z"/><path d="m8.8514 45.6267h46.2971l-4.334-4.0008h-37.6291z"/></svg>