<svg height="64" viewBox="0 0 64 64" width="64" xmlns="http://www.w3.org/2000/svg"><path d="m0 0h64v64h-64z" fill="none"/><path d="m43.3867 33.056c-7.6477-3.2276-11.3867 3.7116-11.3867 3.7116s-3.739-6.9392-11.3867-3.7117c-7.543 3.1833-7.0402 18.9774 10.6392 27.7708.4644.2309 1.0306.2309 1.495 0 17.6793-8.7933 18.1822-24.5874 10.6392-27.7707z"/><path d="m51.2401 2c-2.8019 9.4663-8.5646 16.9532-14.395 19.7767-1.4526.7034-3.6615.8956-4.1324 4.2446 0 0-.3132.0869-.4001-.3651-.3726-1.9375.4936-4.2167 3.2342-5.4694-.6629-1.2928-1.994-2.1868-3.5468-2.1868-2.2091 0-4 1.7908-4 4v.1529c-6.1117-2.481-12.3028-10.2293-15.2401-20.1529h-4.1951c1.336 5.0309 3.5027 9.7661 6.4084 13.8989 3.7777 5.3733 8.4383 9.0621 13.0268 10.4648v.6363c0 2.2091 1.7909 4 4 4 2.2092 0 4-1.7909 4-4v-.6363c4.5885-1.4027 9.2491-5.0916 13.0269-10.4648 2.9057-4.1328 5.0723-8.868 6.4083-13.8989z"/></svg>