<svg height="64" viewBox="0 0 64 64" width="64" xmlns="http://www.w3.org/2000/svg"><path d="m0 0h64v64h-64z" fill="none"/><path d="m49.4966 34.537c3.1399-2.7961 5.5034-8.5646 5.5034-12.2638 0-5.0278-3.4613-8.2732-8.2125-8.2732-2.111 0-4.2194.8076-5.9135 2.1428-.3925-4.1779 2.88-8.6318 2.8809-9.6418l.0004-.001-.0002.0001v-.0001c0-1.933-5.2629-2.5-11.7552-2.5s-11.7552.567-11.7552 2.5c0 1.0132 3.2744 5.4644 2.8814 9.6428-1.6942-1.3352-3.8026-2.1428-5.9136-2.1428-4.7512 0-8.2125 3.2454-8.2125 8.2732 0 3.7051 2.3708 9.4867 5.5181 12.2777.8776 3.7462 2.8403 7.9656 5.5417 11.4371 3.5649 4.5813 5.5869 4.0847 4.7953 7.2012-.548 2.1576-3.7282 3.9025-5.3774 4.424-.8921.2821-1.4777 1.0349-1.4777 1.8765v1.5103h28v-1.5103c0-.8417-.5856-1.5945-1.4777-1.8766-1.8047-.5706-5.1282-2.3082-5.2933-4.8144-2.7287.7075-5.0104.6902-5.676.6147-.4153-.047-.6055-.166-.6251-.3334 8.0697-.7207 14.7345-10.6875 16.5687-18.543zm-36.4966-12.2638c0-2.7157 1.5354-4.2732 4.2125-4.2732 1.4525 0 3.0768.7765 4.1826 1.9814-2.1816 2.4434-5.7154 3.7501-6.9456 7.605-.8312-1.7417-1.4495-3.6919-1.4495-5.3132zm33.7875-4.2732c2.6771 0 4.2125 1.5575 4.2125 4.2732 0 1.6217-.6186 3.5723-1.4492 5.3144-1.2299-3.8557-4.7642-5.1625-6.946-7.6061 1.1059-1.205 2.7302-1.9815 4.1827-1.9815z"/></svg>