<?xml version="1.0" encoding="UTF-8" standalone="no"?>
<!-- Created with Inkscape (http://www.inkscape.org/) -->

<svg
   version="1.1"
   id="svg2"
   xml:space="preserve"
   width="361.32001"
   height="617.69336"
   viewBox="0 0 361.32001 617.69336"
   sodipodi:docname="enjoy-signature-bottom_en.eps"
   xmlns:inkscape="http://www.inkscape.org/namespaces/inkscape"
   xmlns:sodipodi="http://sodipodi.sourceforge.net/DTD/sodipodi-0.dtd"
   xmlns="http://www.w3.org/2000/svg"
   xmlns:svg="http://www.w3.org/2000/svg"><defs
     id="defs6" /><sodipodi:namedview
     id="namedview4"
     pagecolor="#ffffff"
     bordercolor="#666666"
     borderopacity="1.0"
     inkscape:pageshadow="2"
     inkscape:pageopacity="0.0"
     inkscape:pagecheckerboard="0" /><g
     id="g8"
     inkscape:groupmode="layer"
     inkscape:label="ink_ext_XXXXXX"
     transform="matrix(1.3333333,0,0,-1.3333333,0,617.69333)"><g
       id="g10"
       transform="scale(0.1)"><path
         d="m 11.9531,4610.47 c 0,0 2424.8569,-11.11 2615.9769,22.22 0,0 -23.89,-1401.43 -11.94,-1590.28 11.94,-188.85 71.67,-2399.539 71.67,-2399.539 L 2709.93,111.02 0,0 c 0,0 5.37109,1728.14 11.3438,2939.47 3.9492,801.33 14.8789,1454.27 0.6093,1671"
         style="fill:#e1522c;fill-opacity:1;fill-rule:nonzero;stroke:none"
         id="path12" /><path
         d="m 260.016,3290.18 c 0,-1.54 0,-3.08 1.539,-6.17 v -3.07 c 12.316,-7.7 29.258,-10.78 43.117,-10.78 10.781,0 18.48,0 23.101,1.54 h 60.059 c 27.719,0 87.777,0 98.559,-1.54 h 10.781 c 6.164,0 13.863,0 20.019,-1.54 h 15.403 c 12.316,0 23.097,1.54 30.801,6.16 4.617,0 6.156,18.48 6.156,53.9 0,33.87 -3.074,50.82 -10.778,52.36 h -63.136 c -1.543,0 -7.703,0 -16.946,1.53 h -21.558 c -4.617,-1.53 -56.981,-1.53 -73.918,-1.53 -16.942,0 -15.402,0 -23.102,-1.54 v 135.52 c 1.543,10.78 1.543,18.48 1.543,24.63 v 97.03 c 0,13.86 1.535,41.58 3.074,52.36 v 4.62 13.86 3.08 c 1.543,3.08 3.083,4.61 6.165,4.61 3.082,0 7.699,-1.53 13.855,-1.53 h 78.543 c 15.398,0 27.719,1.53 35.418,4.62 4.625,0 7.699,7.7 9.242,23.1 v 7.7 c 0,18.47 -1.543,23.1 -1.543,40.04 v 7.7 c -1.539,13.86 -4.617,21.55 -7.699,23.1 -7.699,4.61 -16.938,6.15 -29.258,6.15 h -20.019 c -7.7,-1.54 -56.985,-1.54 -61.602,-1.54 h -21.559 v 29.26 44.67 c 0,13.86 0,30.8 -1.543,52.36 l 1.543,272.57 c 1.54,10.79 1.54,18.48 1.54,23.11 0,10.78 1.539,18.48 1.539,24.64 0,3.07 0,7.7 -1.539,10.77 v 3.09 12.32 4.62 c 1.539,1.54 3.082,3.08 3.082,6.16 v 3.08 c 1.539,-1.55 47.738,-3.08 83.16,-4.62 12.316,1.54 21.554,3.07 29.258,3.07 h 30.796 c 3.082,0 7.704,0 12.321,1.55 h 9.246 l 9.234,3.08 1.543,1.54 c 3.078,0 4.621,23.1 4.621,43.12 v 10.78 c 0,1.53 0,4.62 -1.543,9.24 -1.539,4.61 -1.539,7.7 -1.539,10.78 v 3.08 l -3.082,7.7 v 3.07 l -1.535,1.55 c -1.543,1.54 -10.781,4.62 -26.184,6.15 -4.617,0 -13.855,1.55 -27.718,3.09 -13.864,0 -24.637,0 -30.801,-1.54 -16.938,1.54 -83.16,1.54 -115.496,1.54 -53.903,-1.54 -81.621,-4.62 -81.621,-6.16 l 1.535,-3.08 v -7.7 -60.06 c 0,-7.7 0,-15.4 1.543,-20.02 -1.543,-10.78 -1.543,-29.26 -1.543,-56.98 v -112.43 c 0,-58.52 -1.535,-103.17 -3.074,-132.43 v -77 c 0,-93.95 -1.543,-164.79 -1.543,-260.26 0,-15.4 0,-24.64 -1.539,-29.27 1.539,-6.15 1.539,-15.4 1.539,-27.71 0,-16.94 0,-27.72 -1.539,-33.88 1.539,-13.86 1.539,-32.35 1.539,-58.52 0,-97.02 0,-152.46 1.543,-181.73 1.539,-7.69 1.539,-13.85 1.539,-18.47 0,-9.25 -1.539,-13.86 -1.539,-15.4 v -23.1"
         style="fill:#ffffff;fill-opacity:1;fill-rule:nonzero;stroke:none"
         id="path14" /><path
         d="m 1002.29,4075.57 v -21.55 c 0,-6.16 0,-18.48 1.54,-35.43 1.54,-16.93 1.54,-30.79 1.54,-38.49 v -36.96 c 0,-4.62 0,-10.78 1.54,-18.49 1.54,-7.69 1.54,-13.85 1.54,-18.47 -1.54,-6.16 -1.54,-15.4 -1.54,-26.18 v -49.28 c 0,-6.17 0,-16.95 1.54,-32.34 v -35.43 c 1.54,-36.95 1.54,-86.24 1.54,-147.83 0,-63.14 -1.54,-100.1 -4.62,-109.34 1.54,-10.78 1.54,-24.64 1.54,-38.5 0,-7.7 0,-13.87 -1.54,-16.94 -1.54,0 -3.08,4.62 -6.155,15.4 l -7.699,32.34 c -3.082,12.32 -4.621,20.02 -6.164,23.1 l -41.579,163.23 -12.32,56.99 -4.621,15.4 c -1.539,6.15 -3.078,13.86 -4.621,23.1 -1.535,7.7 -1.535,15.4 -3.078,20.02 l -12.32,60.06 c -20.02,100.09 -50.821,263.34 -90.86,491.25 -10.781,38.51 -20.019,63.15 -27.719,77.01 -3.082,10.78 -21.558,16.94 -55.441,16.94 -10.781,0 -23.102,-1.54 -35.422,-3.09 h -7.699 -13.859 l -7.704,-1.53 c 0,-10.78 0,-16.94 -1.539,-21.56 l -3.078,-12.32 v -30.8 c 0,-38.5 0,-87.78 -1.539,-147.84 v -137.06 c -1.539,-13.87 -1.539,-35.42 -1.539,-63.14 0,-26.18 0,-46.2 1.539,-58.52 -1.539,-38.5 -3.082,-66.22 -3.082,-81.62 v -120.13 l -1.535,-87.77 v -4.62 c 0,-56.98 -1.543,-101.64 -3.082,-133.98 1.539,-4.62 1.539,-9.24 1.539,-15.4 v -13.87 c 0,-7.7 0,-15.39 1.543,-20.02 -1.543,-9.23 -1.543,-23.1 -1.543,-41.57 -1.539,-24.64 -1.539,-52.37 -1.539,-81.62 v -12.32 c 1.539,-4.62 1.539,-9.25 1.539,-10.78 1.543,-1.54 1.543,-4.62 1.543,-9.24 0,-3.08 0,-6.16 -1.543,-7.7 v -6.16 c 0,-3.09 1.543,-6.16 3.078,-10.79 v -1.53 c 0,-1.54 7.699,-4.62 23.102,-9.24 h 15.398 c 6.164,-1.55 10.781,-1.55 13.863,-1.55 7.696,0 16.942,1.55 29.258,4.63 10.781,1.54 16.942,4.62 16.942,7.69 v 73.93 c -1.539,4.62 -1.539,12.31 -1.539,23.1 0,10.78 0,18.48 1.539,23.1 v 55.44 c -1.539,13.86 -3.082,33.88 -3.082,63.14 0,27.72 0,72.38 -1.539,135.52 v 140.13 c 0,29.27 0,50.82 1.539,66.23 -1.539,10.78 -1.539,26.18 -1.539,46.2 v 75.46 c 0,47.73 1.539,87.78 3.082,118.57 l 3.082,61.61 3.074,-52.36 26.183,-154 c 1.536,-4.62 3.079,-15.4 6.161,-29.26 1.539,-15.4 3.078,-27.72 4.621,-38.5 9.238,-44.66 13.855,-67.76 13.855,-70.84 l 6.16,-33.88 c 4.621,-16.94 7.703,-27.72 12.321,-32.35 v -4.61 c -1.536,-3.08 -1.536,-4.63 -1.536,-6.16 0,-16.95 3.075,-29.27 7.7,-33.88 9.238,-55.44 16.937,-92.41 23.093,-110.88 7.704,-26.18 23.102,-83.16 44.664,-169.4 20.02,-87.79 36.957,-140.14 47.739,-158.63 7.703,-12.31 30.801,-18.47 69.298,-18.47 10.78,0 20.02,1.54 26.18,3.07 h 6.16 18.48 c 7.7,-1.53 12.32,-1.53 15.4,-1.53 6.16,0 9.24,1.53 9.24,3.08 l 6.16,24.64 v 6.16 c 0,27.72 0,67.76 -1.54,121.66 -1.54,53.89 -1.54,95.48 -1.54,127.82 0,9.23 0,24.63 1.54,44.65 v 47.75 50.82 c 0,6.15 0,15.4 1.54,27.72 v 29.26 112.42 c 0,83.16 0,147.83 -1.54,194.04 v 49.28 c -1.54,20.02 -1.54,35.42 -1.54,43.12 v 40.04 c -1.54,16.94 -1.54,27.72 -1.54,33.87 0,12.33 0,29.27 -1.54,52.37 -1.54,21.55 -1.54,38.5 -1.54,52.36 0,4.62 0,10.78 -1.54,16.93 0,10.78 0,24.65 1.54,40.05 v 32.34 c 0,1.53 -1.54,1.53 -4.62,3.08 l -6.16,3.08 c -1.54,1.54 -9.24,4.62 -23.1,7.69 -6.16,-1.53 -13.86,-1.53 -24.64,-1.53 -10.78,-1.54 -18.48,-1.54 -21.56,-1.54 h -3.08 c -10.78,0 -18.476,-3.08 -20.019,-9.25 0,-24.63 0,-50.82 1.543,-80.07 0,-16.94 1.539,-41.59 3.078,-77 1.543,-35.43 1.543,-63.14 1.543,-80.08 0,-13.86 0,-33.88 1.535,-61.6 1.54,-27.73 1.54,-47.75 1.54,-60.07"
         style="fill:#ffffff;fill-opacity:1;fill-rule:nonzero;stroke:none"
         id="path16" /><path
         d="m 1176.31,3627.44 c -10.78,-1.55 -16.93,-9.24 -16.93,-23.1 0,-27.72 -1.55,-55.44 -1.55,-81.62 v -20.02 -21.56 c 1.55,-87.78 29.26,-150.92 80.08,-187.88 32.34,-16.95 66.22,-23.1 95.48,-23.1 26.18,0 47.74,4.62 64.68,15.4 l 35.42,23.1 7.71,7.7 c 4.62,3.07 7.69,6.16 9.24,7.7 7.69,4.62 15.39,16.94 23.09,33.88 7.7,16.94 10.78,33.88 10.78,49.28 1.54,10.77 4.62,26.17 6.16,46.19 3.08,40.05 4.62,130.91 4.62,271.05 0,7.69 0,40.04 -1.54,53.9 v 33.88 c 1.54,10.78 1.54,24.64 1.54,44.65 0,20.02 0,33.89 -1.54,41.59 0,36.95 0,63.14 -1.53,80.07 v 81.63 c -1.55,16.93 -1.55,43.12 -1.55,75.46 -1.54,15.4 -1.54,38.5 -1.54,67.75 v 27.73 c 0,13.86 0,23.09 -1.53,30.79 v 24.65 c 0,3.07 0,7.7 -1.55,12.32 v 10.77 29.27 c 0,3.08 0,7.7 -1.54,12.31 v 12.32 24.65 c -1.54,3.07 -1.54,7.69 -1.54,13.85 0,7.71 -1.54,12.33 -3.08,15.41 1.54,0 1.54,0 1.54,1.54 0,7.7 -9.23,10.78 -38.5,10.78 -4.62,0 -10.78,0 -20.02,1.53 -9.24,1.55 -15.4,3.08 -20.02,3.08 -7.7,0 -10.78,-3.08 -12.31,-7.69 0,-13.86 0,-27.72 1.53,-43.13 v -157.07 -35.43 c 1.54,-15.39 1.54,-27.71 1.54,-35.41 0,-29.26 1.54,-50.82 3.08,-66.23 -1.54,-13.86 -1.54,-36.95 -1.54,-67.75 1.54,-7.7 1.54,-20.02 1.54,-35.43 1.54,-15.39 1.54,-27.71 1.54,-35.41 v -52.36 -24.65 c 1.54,-12.31 1.54,-21.55 3.09,-29.26 v -9.23 -16.95 c 1.53,-7.69 1.53,-15.4 1.53,-20.01 -1.53,-10.78 -1.53,-46.2 -1.53,-66.23 1.53,-27.72 1.53,-64.67 1.53,-112.41 0,-32.34 0,-56.99 -1.53,-70.84 0,-20.02 -1.55,-38.5 -3.09,-56.99 v -7.7 c 0,-23.09 0,-41.57 -1.54,-53.89 -1.54,-10.78 -4.62,-23.1 -10.77,-35.42 -7.71,-18.48 -24.65,-29.26 -43.13,-30.8 h -4.62 c -20.02,0 -49.28,10.78 -61.6,35.42 -10.78,20.02 -18.48,53.89 -21.56,98.56 0,9.24 0,18.48 -1.53,29.25 -1.55,10.79 -1.55,20.03 -3.09,29.27 v 12.32 c 0,18.48 1.54,33.88 1.54,47.74 v 7.7 c 0,4.62 -4.62,7.7 -15.4,7.7 -4.62,0 -12.32,-1.54 -26.18,-3.08 -12.32,-1.54 -21.56,-1.54 -26.18,-1.54 h -7.7"
         style="fill:#ffffff;fill-opacity:1;fill-rule:nonzero;stroke:none"
         id="path18" /><path
         d="m 1706.07,4280.39 c 4.62,16.95 12.32,30.81 26.18,44.66 3.09,7.7 13.86,13.87 30.8,20.02 20.02,-4.62 32.35,-9.23 40.04,-16.93 9.24,-4.62 13.86,-9.24 15.4,-13.86 4.62,-4.63 9.24,-10.78 12.33,-16.94 1.53,-1.54 6.16,-9.24 13.85,-21.56 l 13.86,-21.57 c 6.16,-13.85 10.78,-29.25 15.4,-47.73 4.62,-16.94 7.71,-33.88 9.24,-47.75 1.54,-13.85 3.08,-32.33 4.62,-58.52 1.54,-24.64 1.54,-41.57 1.54,-52.35 v -61.61 -53.89 -20.02 c 0,-7.71 0,-13.86 -1.54,-18.48 0,-4.63 0,-13.86 1.54,-26.18 v -27.72 c 0,-26.19 0,-67.76 1.54,-126.28 1.55,-58.52 1.55,-101.64 1.55,-130.9 v -12.33 c -1.55,-16.93 -3.09,-41.57 -3.09,-70.83 0,-29.26 -1.54,-50.83 -6.16,-66.23 -1.53,-7.69 -4.62,-15.4 -7.7,-21.55 -4.62,-4.62 -7.7,-9.24 -9.24,-12.32 -3.08,-1.55 -7.7,-4.62 -13.86,-9.24 -7.7,-4.62 -12.32,-7.71 -13.86,-9.24 -10.78,-7.7 -20.02,-10.79 -30.8,-10.79 -16.93,0 -29.26,1.55 -38.5,4.63 -13.85,4.62 -24.64,12.32 -32.34,21.56 -4.62,6.16 -12.31,16.93 -20.02,33.88 -4.62,9.24 -9.24,24.64 -15.4,44.66 -6.16,23.1 -10.78,120.12 -12.31,294.14 v 47.74 23.1 73.92 c 0,13.85 0,35.42 1.53,63.14 v 61.6 c 1.54,13.86 1.54,32.34 1.54,56.98 1.54,13.86 1.54,32.33 1.54,53.9 1.54,12.32 3.08,21.55 3.08,26.18 v 7.7 c -1.54,4.61 -1.54,7.69 -1.54,9.24 1.54,7.7 1.54,15.4 3.08,23.1 1.55,9.24 1.55,15.4 1.55,16.94 1.53,12.32 3.07,27.72 6.15,47.73 z m 277.21,-518.97 v 163.23 c -1.55,10.78 -1.55,26.19 -1.55,44.67 0,16.93 0,29.25 -1.54,36.95 0,26.19 -1.53,43.12 -3.08,53.91 0,41.58 -1.54,67.75 -4.62,80.07 -1.54,4.63 -1.54,12.32 -3.08,20.03 -1.53,7.69 -1.53,12.32 -1.53,13.86 -4.62,35.41 -10.79,63.14 -18.49,86.24 -12.32,41.58 -24.64,73.92 -38.5,93.94 -13.85,21.56 -30.8,43.12 -53.89,64.68 -10.78,10.78 -24.65,20.02 -38.51,26.18 -13.86,7.7 -26.18,12.32 -36.96,12.32 -6.15,1.54 -13.86,1.54 -23.1,1.54 -7.69,0 -12.32,0 -15.4,-1.54 -50.82,-7.7 -87.78,-40.04 -113.95,-95.48 -18.49,-44.66 -29.27,-95.48 -32.35,-154 -1.54,-10.78 -1.54,-32.34 -1.54,-63.14 0,-7.7 0,-20.02 -1.53,-38.5 -1.55,-18.49 -1.55,-33.88 -1.55,-44.67 v -52.35 c -1.54,-24.64 -1.54,-44.66 -1.54,-58.52 v -95.48 -21.57 c -1.54,-9.24 -1.54,-16.93 -1.54,-21.55 0,-4.62 0,-12.32 1.54,-23.1 v -20.02 -53.91 -23.1 c 0,-32.33 0,-56.97 1.54,-72.37 3.08,-47.74 4.62,-72.38 4.62,-73.92 1.55,-10.79 3.08,-23.1 4.62,-38.5 1.55,-13.86 3.08,-23.11 3.08,-26.18 0,-7.7 1.54,-16.94 3.08,-29.26 1.55,-12.32 3.08,-21.56 3.08,-27.72 1.54,-4.62 4.62,-10.79 9.24,-21.56 3.08,-10.78 6.16,-18.48 7.7,-23.1 4.62,-12.32 9.24,-24.64 16.95,-38.5 16.93,-23.1 33.87,-40.04 53.89,-50.82 4.62,-1.54 10.78,-4.62 18.48,-7.7 7.71,-3.08 12.32,-6.17 16.94,-7.7 13.86,-4.62 27.72,-9.24 41.59,-10.79 h 15.4 33.87 7.7 c 10.78,0 24.65,1.55 38.5,6.17 12.32,4.62 26.19,10.78 43.12,20.02 12.32,7.7 23.1,16.94 30.8,29.25 7.71,12.33 15.4,29.27 20.02,50.82 4.62,23.11 9.24,41.59 12.32,55.45 3.08,13.86 4.62,38.5 6.17,70.84 1.53,33.88 1.53,55.44 1.53,66.21 v 70.84 30.8 c -1.53,13.87 -1.53,24.65 -1.53,32.34 v 64.69"
         style="fill:#ffffff;fill-opacity:1;fill-rule:nonzero;stroke:none"
         id="path20" /><path
         d="m 2171.16,3846.12 c 4.62,-13.86 6.15,-30.8 6.15,-53.9 0,-16.94 0,-44.67 -1.53,-83.16 -1.55,-38.5 -1.55,-66.22 -1.55,-83.17 v -23.09 c 1.55,-32.35 1.55,-84.7 3.08,-160.16 1.54,-73.92 1.54,-117.04 3.09,-129.36 v -21.57 -4.61 c 1.53,-3.09 1.53,-6.16 3.07,-9.24 v -7.7 c 0,-1.54 0,-3.08 1.54,-3.08 0,-1.54 1.55,-1.54 6.17,-1.54 4.62,0 10.77,0 18.47,-1.55 7.7,0 13.86,0 18.48,-1.53 4.62,0 20.02,0 27.72,1.53 7.7,1.55 12.32,1.55 15.4,1.55 1.54,1.54 3.08,3.08 3.08,4.62 v 1.54 6.16 3.08 4.62 c 0,3.08 0,6.15 1.54,9.24 v 3.08 c -1.54,1.53 -1.54,1.53 -1.54,3.08 0,1.54 0,3.08 1.54,6.16 v 7.7 1.54 c -1.54,4.62 -1.54,7.7 -3.08,10.77 1.54,3.09 1.54,7.7 1.54,13.87 v 6.15 20.03 9.24 c 0,10.78 0,21.55 1.54,36.95 1.55,12.33 -1.54,27.72 -1.54,43.12 0,13.87 1.54,26.19 0,40.05 v 56.98 43.12 c 1.54,47.74 1.54,83.16 1.54,107.79 0,30.8 -1.54,56.99 -3.08,78.54 v 32.35 c 12.32,46.2 44.67,137.06 52.36,177.1 1.54,6.15 3.09,15.4 7.71,29.26 4.62,13.86 6.15,23.1 7.69,27.71 23.11,90.86 40.04,177.11 47.75,255.65 1.53,4.61 1.53,10.78 3.07,20.01 1.54,7.7 1.54,13.87 3.08,18.49 1.54,20.01 3.08,32.34 3.08,35.42 v 1.53 c 0,4.63 0,9.25 1.55,15.4 1.53,6.16 1.53,10.79 1.53,13.87 v 4.62 c 0,3.08 -7.7,6.16 -21.55,10.78 h -33.89 -12.31 c -16.95,0 -26.19,-3.09 -26.19,-10.78 -3.08,-12.33 -4.61,-20.02 -4.61,-24.64 0,-4.62 0,-9.25 1.53,-10.78 -1.53,-4.62 -1.53,-13.86 -1.53,-24.64 l -1.55,-16.94 c -1.54,-12.33 -3.07,-21.56 -4.62,-29.26 v -1.54 c 0,-6.17 -1.54,-15.4 -3.07,-29.26 -16.95,-106.27 -33.89,-195.59 -49.29,-264.88 -1.53,-6.17 -3.08,-10.78 -4.62,-15.4 l -4.62,-9.24 c -1.54,-1.55 -1.54,-1.55 -3.07,-1.55 -4.62,0 1.53,6.17 -6.17,18.49 -1.54,4.62 -1.54,10.78 -4.62,20.02 -3.08,7.7 -6.16,16.94 -7.7,24.63 l -7.7,35.43 c -4.62,15.39 -10.78,27.72 -13.85,38.5 -4.62,15.39 -7.71,33.88 -12.33,56.98 -4.62,21.56 -15.4,46.2 -23.09,73.91 -10.78,50.83 -24.65,109.34 -38.51,164.79 0,1.54 -9.24,-3.09 -29.26,1.54 h -15.4 c -9.24,0 -21.56,-1.54 -35.42,-3.08 -12.32,-4.62 -18.47,-6.17 -18.47,-7.7 v -1.54 c 1.53,-4.63 3.07,-15.4 7.69,-30.8 4.62,-15.4 7.71,-27.72 9.24,-36.97 l 18.49,-69.29 c 26.17,-103.19 50.82,-198.66 76.99,-286.44 4.63,-21.56 10.78,-40.04 15.4,-55.44 4.62,-24.65 9.25,-40.05 12.32,-46.21 1.55,-6.16 4.62,-12.31 7.7,-20.01 3.08,-7.7 4.63,-13.86 4.63,-16.94"
         style="fill:#ffffff;fill-opacity:1;fill-rule:nonzero;stroke:none"
         id="path22" /><path
         d="m 331.859,3174.74 h -31.621 c -25.504,0 -35.703,-3.06 -35.703,-9.18 v -125.46 -26.53 c -1.019,-11.22 -1.019,-27.53 -1.019,-49.98 v -37.73 -86.7 -69.36 -24.48 -45.91 -41.81 -19.38 -18.37 c 0,-17.33 0,-30.59 -1.016,-37.73 v -25.5 c 1.016,-10.2 1.016,-17.34 1.016,-21.42 v -60.18 c 0,-23.46 0,-38.76 4.082,-43.86 1.019,-1.02 6.117,-3.06 15.297,-6.13 6.125,1.03 15.304,1.03 24.484,1.03 h 7.137 c 5.101,0 9.179,1.02 11.222,4.08 v 1.02 c 0,2.04 0,4.08 -1.019,5.1 1.019,3.06 2.039,9.18 2.039,18.36 1.019,5.1 -1.02,13.26 -1.02,26.52 0,9.18 0,17.34 1.02,22.43 v 26.53 8.16 c 0,9.18 0,17.34 1.019,22.44 v 6.12 c 0,3.06 0,7.14 1.024,12.24 v 11.22 c -1.024,7.14 -1.024,19.37 -1.024,34.68 v 69.36 37.74 c 0,5.09 1.024,18.36 2.043,39.78 -1.019,7.14 -2.043,19.38 -2.043,38.76 v 7.14 c 0,3.06 0,8.15 -1.019,16.32 v 15.3 37.74 c 1.019,17.33 1.019,29.58 1.019,37.73 0,15.31 1.024,60.19 2.043,134.65 1.02,74.46 2.039,113.22 2.039,115.26"
         style="fill:#ffffff;fill-opacity:1;fill-rule:nonzero;stroke:none"
         id="path24" /><path
         d="m 380.816,3185.96 c -2.039,-33.66 -3.058,-55.09 -3.058,-62.22 v -4.09 c 4.078,-1.01 8.16,-2.03 13.258,-2.03 3.062,0 8.164,1.02 15.3,2.03 7.141,1.02 12.243,2.05 15.301,2.05 h 3.063 c 3.058,0 7.136,0 13.261,-1.03 7.137,-1.02 11.219,-2.03 12.235,-2.03 2.043,0 5.101,0 9.183,1.01 h 10.196 c 3.062,0 8.164,-1.01 16.324,-2.03 v -3.06 c 0,-1.02 0,-2.04 -1.02,-3.07 v -10.2 c 1.02,-5.09 1.02,-9.17 1.02,-12.23 v -61.2 c 0,-3.06 0,-4.08 1.019,-4.08 v -47.94 -20.4 c 1.024,-9.18 1.024,-16.32 1.024,-21.43 l 3.055,-158.09 c 1.019,-71.4 2.043,-121.38 3.062,-150.96 0,-37.74 0,-59.16 1.02,-66.3 v -18.36 c 0,-4.08 0,-6.12 -1.02,-7.14 v -6.12 -10.2 c 1.02,-3.06 1.02,-6.12 1.02,-7.14 v -5.1 c 0,-6.12 1.019,-13.26 2.043,-21.43 0,-9.18 0,-15.29 1.019,-18.35 0,-21.43 1.016,-36.72 3.055,-45.9 0,-3.06 3.062,-5.11 10.203,-7.14 7.137,-1.02 14.281,-2.04 22.437,-2.04 19.383,0 29.582,4.07 29.582,13.25 v 1.02 c 0,71.41 -1.019,170.35 -4.082,297.85 v 48.96 c -1.019,17.34 -2.035,38.76 -2.035,63.24 v 28.56 28.56 c -1.019,19.38 -2.043,28.56 -2.043,39.78 l -4.082,190.74 h 78.539 c 1.024,0 4.082,0 8.16,-1.03 h 9.18 c 5.106,0 7.145,1.03 8.164,2.05 h 2.035 c 5.106,0 8.161,2.04 8.161,5.1 -1.016,2.04 -1.016,4.08 -1.016,7.14 v 7.14 c 1.016,3.06 1.016,6.12 1.016,8.15 0,3.07 0,6.13 -1.016,8.16 v 5.11 c 0,10.2 -1.02,15.29 -3.063,16.31 -7.136,3.07 -19.378,5.11 -36.714,5.11 h -45.907 c -18.359,1.02 -33.656,1.02 -42.836,1.02 h -9.179 c -4.082,1.02 -7.145,1.02 -9.18,1.02 -9.184,1.01 -23.461,1.01 -41.82,1.01 -8.16,1.02 -20.403,1.02 -35.703,1.02 -5.098,-1.02 -11.215,-1.02 -18.36,-1.02 -5.097,0 -9.179,0 -12.238,1.02 -4.082,-1.02 -9.18,-1.02 -15.301,-1.02 H 390 c -6.121,0 -9.184,-1.01 -9.184,-2.03"
         style="fill:#ffffff;fill-opacity:1;fill-rule:nonzero;stroke:none"
         id="path26" /><path
         d="m 748.02,3184.94 c -1.024,5.09 -10.204,2.04 -16.321,5.09 -2.043,1.03 0,1.03 -1.019,1.03 -5.106,0 -3.063,0 -6.125,-1.03 -3.055,-1.02 -6.117,-1.02 -9.18,-1.02 -3.055,1.02 -6.117,1.02 -9.18,0 -3.054,0 -5.097,-1.02 -6.117,-2.03 -3.062,-11.22 -4.082,-44.88 -4.082,-102 v -20.4 -16.32 c 0,-9.18 0,-18.36 2.039,-22.44 2.043,-2.04 4.082,-3.07 7.141,-3.07 13.262,0 17.344,1.03 30.601,1.03 h 4.082 c 8.161,-2.05 10.2,1.02 10.2,5.1 0,3.05 -1.02,6.12 -1.02,11.22 l 1.02,57.12 c 0,4.07 1.019,9.18 0,16.32 v 16.32 c 0,3.06 0,8.16 -1.02,14.28 0,7.14 0,11.22 -1.019,14.27 0,1.02 1.019,5.11 0,8.17 -1.024,7.14 1.019,17.34 0,18.36"
         style="fill:#ffffff;fill-opacity:1;fill-rule:nonzero;stroke:none"
         id="path28" /><path
         d="m 973.438,3166.58 c -20.403,19.38 -43.86,28.56 -71.403,28.56 -34.676,0 -76.5,-12.24 -92.816,-37.74 -15.301,-25.5 -23.461,-58.14 -23.461,-97.92 2.039,-21.42 5.101,-37.75 9.18,-47.94 3.058,-11.22 13.261,-32.64 29.578,-66.3 l 18.359,-37.74 c 5.105,-14.28 13.262,-30.6 24.484,-47.94 2.039,-5.1 5.098,-11.22 7.137,-18.36 l 11.223,-23.46 c 4.082,-9.18 7.136,-16.32 9.179,-21.43 35.7,-77.52 58.137,-136.68 65.278,-176.46 1.019,-3.05 1.019,-7.13 2.043,-13.25 1.019,-6.13 2.039,-11.22 3.058,-14.28 v -26.52 c 0,-5.1 -1.019,-13.27 -2.039,-25.5 -3.062,-20.4 -8.16,-35.7 -16.32,-45.9 -8.156,-11.23 -17.34,-16.32 -28.559,-16.32 -10.199,0 -15.3,5.09 -26.523,16.32 -10.199,11.22 -19.379,26.52 -26.52,45.9 -1.019,3.06 -3.058,8.16 -5.097,14.28 l -4.082,12.24 c -2.039,15.3 -2.039,18.36 -4.082,33.65 0,2.05 -21.414,4.09 -38.758,5.11 -13.258,0 -20.402,-2.04 -21.418,-7.14 0,-1.02 0,-3.06 1.016,-7.15 1.023,-3.05 1.023,-7.13 1.023,-11.22 v -9.18 c 1.02,-5.09 2.039,-10.19 3.059,-13.25 0,-2.04 2.043,-11.22 5.101,-26.52 1.02,-3.06 2.039,-8.17 3.059,-14.28 2.043,-6.12 4.082,-11.22 5.101,-14.29 9.18,-27.53 22.438,-48.96 41.817,-64.25 19.383,-16.32 40.8,-24.49 63.242,-24.49 h 7.141 c 27.539,3.07 64.261,10.2 80.582,35.71 15.3,23.45 23.46,55.08 30.6,105.06 v 10.2 c 1.02,8.16 1.02,15.29 1.02,21.42 0,15.29 -2.04,29.58 -5.1,52.02 -3.06,25.5 -12.24,54.06 -27.54,84.66 l -69.363,136.68 -17.34,33.66 c -2.039,5.1 -5.098,12.23 -8.156,20.4 -4.082,9.18 -7.141,15.3 -8.161,18.36 0,1.01 -2.042,5.1 -6.125,12.23 -3.054,7.15 -6.117,13.27 -7.136,17.35 -21.422,48.96 -35.699,67.32 -35.699,105.06 0,39.78 24.476,60.18 39.781,61.2 h 15.297 c 13.261,0 23.461,-5.1 28.558,-14.28 4.082,-6.12 7.141,-13.26 9.18,-22.45 0,-1.02 1.023,-5.09 3.062,-14.27 3.063,-9.18 4.079,-16.33 5.098,-22.44 0,-3.07 2.039,-20.4 5.102,-49.98 1.019,-5.1 7.14,-7.14 20.402,-7.14 10.199,0 20.398,1.02 28.56,4.08 10.2,3.06 14.28,6.12 14.28,10.2 -1.02,9.18 -2.04,18.36 -3.06,28.56 0,4.08 -1.02,9.18 -3.06,16.32 -1.02,7.14 -2.04,12.24 -2.04,15.29 v 3.07 c -4.08,21.42 -6.12,32.64 -7.14,34.68 l -12.243,32.64 c -5.098,10.2 -11.223,18.35 -18.359,24.48"
         style="fill:#ffffff;fill-opacity:1;fill-rule:nonzero;stroke:none"
         id="path30" /><path
         d="m 1280.46,2477.06 c -3.06,41.82 -5.1,85.68 -5.1,131.58 l -2.04,125.46 41.82,2.04 h 32.64 15.3 c 1.02,0 2.04,2.03 2.04,5.1 v 5.1 c -1.02,2.03 -1.02,4.08 -1.02,5.1 1.02,1.02 1.02,4.08 1.02,8.16 0,1.02 -1.02,8.15 -3.06,20.4 v 4.08 c 0,7.14 -1.02,12.23 -4.09,15.3 -1.01,0 -1.01,0 -3.05,-1.02 h -3.06 -4.08 c -2.04,1.02 -4.08,1.02 -5.1,1.02 h -19.38 -9.18 c -17.34,0 -28.56,0 -32.64,-1.02 -2.04,0 -3.06,3.06 -3.06,10.2 0,3.06 0,9.18 1.02,20.4 v 46.91 68.34 41.83 l -1.02,139.74 h 41.82 c 13.26,0 34.68,-1.02 63.24,-2.04 h 23.46 1.01 c 3.07,0 6.13,4.08 9.18,13.26 v 10.2 c 0,15.3 -1.01,24.48 -2.03,27.54 -1.02,9.18 -3.06,14.27 -4.08,15.29 h -6.12 -3.06 -4.08 -8.16 c -5.1,1.03 -12.24,1.03 -20.41,1.03 -11.22,0 -18.36,0 -23.45,-1.03 h -9.18 -18.36 c -27.54,0 -60.18,-1.02 -97.92,-3.05 l -2.04,-6.12 c -1.02,-1.03 -1.02,-4.08 -2.04,-7.14 v -8.16 c -1.02,-3.06 -1.02,-8.16 -1.02,-13.26 0,-5.1 0,-10.2 1.02,-14.28 -2.05,-6.12 -3.06,-13.26 -3.06,-20.4 0,-1.02 0,-3.06 1.01,-6.13 v -7.13 c 0,-5.1 -1.01,-18.36 -2.03,-38.76 v -13.27 -29.58 c 0,-58.13 0,-100.97 -1.02,-128.52 0,-3.05 0,-7.13 -1.02,-12.23 v -12.24 -5.11 c 0,-13.25 0,-23.45 -1.02,-28.56 1.02,-8.15 2.04,-14.27 2.04,-17.33 0,-4.08 0,-7.14 -1.02,-10.2 v -48.96 -53.04 c -1.02,-6.12 -1.02,-14.28 -1.02,-25.5 0,-11.23 0,-20.4 1.02,-26.52 0,-1.02 0,-8.16 -1.02,-19.38 -1.02,-12.24 -1.02,-21.42 -2.04,-27.54 1.02,-10.2 2.04,-25.5 2.04,-44.88 -1.02,-96.9 -2.04,-145.86 -2.04,-146.88 0,-1.03 1.02,-1.03 2.04,-2.05 2.04,-1.01 4.08,-1.01 7.14,-2.03 l 9.18,-3.06 c 9.18,1.02 21.42,1.02 36.72,1.02 13.26,1.02 20.4,3.06 20.4,6.12 0,21.42 -1.02,41.82 -2.04,61.2"
         style="fill:#ffffff;fill-opacity:1;fill-rule:nonzero;stroke:none"
         id="path32" /><path
         d="m 1529.34,2952.38 c -1.02,21.41 -1.02,45.9 -3.06,74.46 0,28.56 -1.02,46.92 -1.02,54.05 -1.03,3.07 -1.03,5.11 -1.03,7.15 0,13.25 1.03,23.45 3.07,28.56 1.02,3.05 2.04,5.1 5.1,5.1 16.32,0 31.62,-2.05 40.8,-7.14 1.01,-1.02 3.06,-4.09 7.14,-8.16 4.08,-4.08 7.14,-7.14 8.16,-9.18 4.07,-4.08 16.32,-42.84 17.33,-58.14 6.13,-25.51 9.18,-59.16 9.18,-103.02 0,-40.81 -3.05,-62.22 -9.18,-96.9 -6.11,-33.67 -15.29,-55.08 -26.51,-63.24 -11.22,-8.17 -24.48,-12.24 -39.78,-12.24 h -3.06 c -1.03,1.02 -2.04,1.02 -3.07,1.02 -3.05,4.08 -5.09,14.28 -6.11,31.61 v 6.13 17.34 6.11 l 1.02,67.33 c 1.02,9.18 1.02,8.16 1.02,29.58 z m 77.52,208.07 c -4.08,3.07 -13.26,8.17 -28.56,14.29 -19.38,4.07 -18.36,2.04 -38.76,5.09 -4.09,1.03 -9.18,0 -15.31,0 h -17.33 c -7.14,0 -13.26,0 -20.4,-1.02 -3.06,-1.01 -15.3,3.07 -16.32,-6.11 -3.07,-32.65 -5.11,-36.72 -5.11,-138.72 v -24.48 -41.82 c 1.03,-3.06 1.03,-5.11 1.03,-8.16 0,-3.06 0,-9.18 -1.03,-16.32 v -15.3 -6.12 l 1.03,-30.6 v -7.14 -71.4 c 1.01,-31.62 1.01,-54.07 1.01,-69.36 v -10.2 -18.36 c 0,-8.16 0,-15.31 -1.01,-22.44 l 1.01,-5.1 v -1.02 c 0,-1.02 0,-4.08 -1.01,-7.15 v -9.18 -1.02 -21.41 c 1.01,-10.2 1.01,-17.35 2.04,-22.44 -1.03,-5.11 -1.03,-11.22 -1.03,-18.36 v -13.26 c 0,-11.22 0,-26.52 -1.01,-43.86 v -46.93 -37.73 -43.86 c 0,-2.04 6.12,-4.08 18.36,-5.1 13.26,1.02 21.41,2.04 24.48,3.06 13.26,1.02 19.38,5.09 19.38,11.22 1.02,0 1.02,4.07 2.04,12.24 -1.02,5.1 -1.02,16.32 -2.04,32.64 l -1.02,89.76 c -1.02,17.34 -1.02,34.68 -1.02,54.06 v 5.1 5.1 22.44 3.06 c 0,7.14 0,14.27 1.02,23.45 0,8.17 0,12.25 -1.02,13.27 1.02,4.08 2.04,7.13 3.06,8.15 1.02,0 1.02,0 2.04,1.03 h 2.03 c 2.04,0 4.08,-1.03 7.15,-2.05 3.06,-1.01 5.1,-2.03 6.11,-2.03 14.29,-2.04 26.53,-13.26 36.72,-33.66 10.21,-20.4 17.35,-41.83 22.44,-63.24 3.07,-22.44 5.11,-45.9 5.11,-70.38 v -15.3 c 0,-10.21 0,-24.48 -1.02,-43.86 v -41.82 -11.22 c 0,-3.07 5.09,-5.1 16.31,-5.1 1.03,0 4.09,0 9.18,-1.02 5.11,-1.02 9.19,-2.04 12.25,-2.04 h 6.12 c 12.24,3.06 18.35,6.11 18.35,8.16 1.03,1.02 1.03,4.08 1.03,7.13 1.01,3.07 1.01,6.13 1.01,8.17 v 22.44 l -2.04,75.48 c 0,16.32 0,30.6 -1.01,42.84 -1.02,12.24 -1.02,22.44 -2.04,31.62 0,9.18 -1.02,17.34 -3.06,25.49 -2.04,8.17 -3.07,14.29 -4.08,18.37 0,4.08 -2.04,9.18 -5.1,15.3 l -6.12,12.24 c -1.02,2.03 -3.06,7.14 -8.17,14.28 -5.09,7.14 -8.15,12.24 -10.19,15.3 l -21.42,26.52 c 2.03,2.04 6.12,6.11 13.25,12.24 7.15,6.12 12.25,10.2 13.27,12.24 2.04,1.01 5.09,5.1 9.18,10.19 5.09,5.11 8.16,10.2 9.18,14.29 2.04,5.1 4.08,10.2 5.09,17.34 2.04,7.13 3.07,15.3 4.08,24.48 1.03,5.1 2.05,14.28 3.07,25.5 1.02,12.24 2.04,23.46 3.06,33.66 1.01,10.2 1.01,20.4 1.01,29.58 v 20.4 c -1.01,63.24 -2.03,80.57 -3.05,85.68 -5.1,55.08 -15.3,92.81 -30.6,112.2 -4.08,6.12 -8.16,11.21 -13.26,16.32 -9.18,8.16 -15.3,13.25 -18.36,14.27"
         style="fill:#ffffff;fill-opacity:1;fill-rule:nonzero;stroke:none"
         id="path34" /><path
         d="m 1814.94,3083.96 c 3.05,11.22 8.16,20.4 17.34,29.58 2.04,5.1 9.18,9.18 20.4,13.26 13.26,-3.06 21.42,-6.13 26.51,-11.22 6.13,-3.06 9.18,-6.12 10.21,-9.18 3.06,-3.06 6.12,-7.14 8.15,-11.22 1.03,-1.02 4.09,-6.12 9.18,-14.29 l 9.18,-14.27 c 4.08,-9.18 7.15,-19.38 10.21,-31.62 3.05,-11.22 5.1,-22.45 6.12,-31.63 1.02,-9.17 2.04,-21.41 3.06,-38.75 1.01,-16.32 1.01,-27.54 1.01,-34.68 v -40.8 -35.7 -13.26 c 0,-5.11 0,-9.18 -1.01,-12.24 0,-3.06 0,-9.18 1.01,-17.34 v -18.36 c 0,-17.34 0,-44.89 1.03,-83.65 1.01,-38.76 1.01,-67.31 1.01,-86.69 v -8.16 c -1.01,-11.22 -2.04,-27.54 -2.04,-46.92 0,-19.38 -1.01,-33.66 -4.07,-43.87 -1.02,-5.09 -3.07,-10.2 -5.11,-14.27 -3.05,-3.06 -5.09,-6.13 -6.11,-8.16 -2.04,-1.02 -5.11,-3.06 -9.18,-6.12 -5.11,-3.06 -8.16,-5.1 -9.18,-6.12 -7.14,-5.11 -13.26,-7.14 -20.4,-7.14 -11.22,0 -19.38,1.01 -25.51,3.06 -9.18,3.06 -16.31,8.15 -21.41,14.28 -3.06,4.07 -8.16,11.22 -13.27,22.44 -3.05,6.12 -6.11,16.32 -10.19,29.57 -4.08,15.31 -7.14,79.56 -8.16,194.83 v 31.61 15.31 48.96 c 0,9.18 0,23.45 1.02,41.82 v 40.79 c 1.02,9.18 1.02,21.43 1.02,37.75 1.02,9.18 1.02,21.41 1.02,35.7 1.02,8.16 2.03,14.28 2.03,17.34 v 5.1 c -1.01,3.05 -1.01,5.1 -1.01,6.12 1.01,5.1 1.01,10.2 2.04,15.3 1.01,6.12 1.01,10.19 1.01,11.21 1.03,8.16 2.05,18.37 4.09,31.63 z m 183.6,-343.74 v 108.12 c -1.03,7.13 -1.03,17.33 -1.03,29.58 0,11.22 0,19.38 -1.01,24.48 0,17.34 -1.03,28.56 -2.04,35.7 0,27.54 -1.02,44.87 -3.06,53.04 -1.02,3.06 -1.02,8.16 -2.04,13.26 -1.03,5.1 -1.03,8.15 -1.03,9.17 -3.05,23.47 -7.13,41.83 -12.23,57.13 -8.17,27.54 -16.32,48.95 -25.5,62.22 -9.18,14.28 -20.4,28.56 -35.7,42.84 -7.14,7.14 -16.32,13.25 -25.5,17.34 -9.18,5.1 -17.34,8.16 -24.48,8.16 -4.09,1.02 -9.18,1.02 -15.31,1.02 -5.09,0 -8.15,0 -10.19,-1.02 -33.66,-5.1 -58.14,-26.52 -75.48,-63.24 -12.25,-29.58 -19.38,-63.24 -21.43,-102 -1.01,-7.14 -1.01,-21.42 -1.01,-41.82 0,-5.1 0,-13.26 -1.03,-25.5 -1.01,-12.24 -1.01,-22.44 -1.01,-29.58 v -34.69 c -1.02,-16.31 -1.02,-29.58 -1.02,-38.76 v -63.23 -14.28 c -1.02,-6.12 -1.02,-11.23 -1.02,-14.28 0,-3.06 0,-8.16 1.02,-15.31 v -13.25 -35.7 -15.3 c 0,-21.42 0,-37.74 1.02,-47.94 2.04,-31.62 3.05,-47.94 3.05,-48.96 1.03,-7.14 2.05,-15.3 3.07,-25.51 1.02,-9.17 2.04,-15.29 2.04,-17.33 0,-5.1 1.02,-11.22 2.03,-19.38 1.03,-8.16 2.04,-14.28 2.04,-18.36 1.03,-3.06 3.07,-7.14 6.13,-14.29 2.04,-7.13 4.08,-12.23 5.09,-15.29 3.07,-8.16 6.13,-16.32 11.23,-25.5 11.22,-15.3 22.44,-26.52 35.7,-33.66 3.06,-1.02 7.14,-3.07 12.23,-5.11 5.11,-2.03 8.17,-4.07 11.23,-5.09 9.18,-3.07 18.35,-6.12 27.53,-7.14 h 10.21 22.44 5.1 c 7.14,0 16.32,1.02 25.5,4.07 8.16,3.07 17.34,7.15 28.56,13.27 8.16,5.1 15.29,11.22 20.4,19.38 5.1,8.16 10.2,19.38 13.25,33.66 3.07,15.3 6.13,27.54 8.17,36.72 2.04,9.18 3.05,25.5 4.08,46.92 1.02,22.44 1.02,36.71 1.02,43.86 v 46.92 20.4 c -1.02,9.18 -1.02,16.32 -1.02,21.42 v 42.84"
         style="fill:#ffffff;fill-opacity:1;fill-rule:nonzero;stroke:none"
         id="path36" /><path
         d="m 2363.7,3179.83 c -1.02,1.03 -2.05,3.07 -4.09,4.09 -1.01,1.02 -3.05,3.06 -6.11,4.07 -14.29,3.07 -14.29,4.09 -31.62,4.09 -3.07,1.02 -7.14,1.02 -12.25,1.02 -3.05,0 -5.09,-1.02 -7.14,-2.04 -4.08,-3.07 -9.17,-18.36 -16.31,-47.94 -6.13,-28.56 -14.28,-61.21 -23.46,-114.24 -9.18,-52.02 -14.28,-80.58 -15.3,-85.68 -1.02,-7.14 -3.06,-15.3 -4.09,-25.5 -1.01,-10.2 -2.04,-16.32 -3.05,-18.36 -3.06,-8.16 -6.13,-19.38 -9.18,-32.64 l -8.17,-31.63 c -2.04,-8.16 -4.07,-12.23 -5.09,-13.25 -2.04,0 -4.09,4.07 -6.13,12.24 -2.03,8.16 -5.09,21.41 -9.18,39.78 l -10.19,45.9 -9.18,38.76 c -1.03,5.09 -2.04,12.24 -5.1,21.42 -3.07,9.18 -4.08,15.3 -5.11,18.36 -6.11,27.54 -9.18,42.84 -10.19,45.9 l -10.21,41.82 c -1.01,4.07 -5.09,17.34 -12.23,38.76 -1.02,5.1 -3.06,11.22 -5.1,18.36 l -4.08,16.31 -11.22,33.67 c -1.02,1.02 -4.09,2.04 -7.14,2.04 -1.03,0 -3.06,0 -6.13,-1.02 h -6.11 c -5.11,1.02 -9.18,2.04 -10.2,2.04 -3.06,0 -6.13,-1.02 -10.2,-2.04 h -4.08 c -6.12,0 -11.22,-2.04 -14.28,-5.11 0,-1.02 0,-2.03 -1.02,-3.05 v -4.08 c 1.02,-1.02 1.02,-2.05 1.02,-3.07 0,-3.05 0,-8.15 -1.02,-16.31 v -18.36 c 0,-7.14 0,-13.27 1.02,-19.38 l 3.06,-106.08 v -32.64 c 1.01,-9.18 1.01,-21.42 1.01,-37.74 1.03,-4.09 2.05,-18.36 3.07,-42.85 v -14.27 -33.66 l 2.04,-52.03 -2.04,-210.11 1.02,-39.78 c 1.02,-77.52 2.04,-118.32 2.04,-121.39 1.01,-2.03 7.14,-4.07 18.36,-5.09 14.27,0 23.45,0 28.56,1.02 11.22,4.07 16.32,7.14 17.33,10.2 v 1.02 l -1.01,2.03 v 4.09 c 0,2.04 0,4.08 1.01,5.09 0,1.02 0,4.09 -1.01,9.19 v 13.26 25.5 l -2.04,64.26 c -1.03,20.4 -1.03,17.34 -1.03,42.84 v 57.12 c 1.03,25.5 1.03,44.88 1.03,58.14 0,21.42 0,41.82 -1.03,61.2 0,9.18 -1.01,23.45 -2.03,43.86 -1.02,18.35 -1.02,37.73 -2.04,59.16 -1.02,21.42 -1.02,38.76 -2.04,51 0,12.24 0,19.38 -1.03,22.44 l -2.04,21.42 c 1.03,-1.02 3.07,-6.12 5.11,-15.3 l 9.18,-41.83 c 4.08,-18.35 7.14,-32.63 9.18,-42.83 l 11.22,-45.91 c 7.14,-27.53 10.2,-42.83 11.22,-46.91 1.02,-11.23 6.11,-29.58 14.28,-55.08 8.15,-25.51 14.28,-39.78 17.33,-42.84 1.03,-1.02 4.08,-1.02 7.15,-1.02 7.14,0 16.32,3.06 28.56,8.15 14.27,31.63 24.48,62.23 31.62,90.79 l 13.26,41.82 c 1.01,5.09 3.06,12.24 5.1,22.44 2.04,10.2 4.08,17.34 5.09,21.41 1.03,5.11 4.09,19.38 8.17,42.85 3.05,11.22 5.1,21.42 6.12,30.6 l 6.11,43.85 -3.05,-58.14 c 0,-11.21 0,-21.41 1.01,-28.56 0,-3.05 0,-8.15 -1.01,-14.27 -1.02,-6.13 -1.02,-11.22 -1.02,-14.28 v -7.14 -42.85 -47.93 l -2.04,-180.54 v -40.8 c 1.02,-2.04 1.02,-4.08 1.02,-6.13 0,-1.02 0,-4.07 -1.02,-7.13 v -6.12 c 0,-15.31 0,-25.51 -1.02,-28.56 v -30.6 -24.48 -19.38 c 0,-1.03 1.02,-2.04 2.04,-2.04 h 3.05 c 2.04,1.01 4.09,1.01 5.11,1.01 2.04,0 4.07,0 5.1,-1.01 5.1,-2.04 15.3,-3.06 29.58,-3.06 2.04,1.02 4.08,1.02 6.12,1.02 2.03,0 4.07,0 7.14,-1.02 l 4.07,-1.02 c 0,1.02 0,3.06 -1.01,4.08 l -1.02,2.04 c 0,2.04 0,4.08 1.02,5.1 l 1.01,20.4 1.03,81.59 v 14.29 5.09 6.13 c 0,4.07 0,8.16 -1.03,11.22 1.03,5.1 1.03,15.3 1.03,28.56 v 12.23 l 1.01,27.55 v 15.3 44.87 c 1.03,62.23 1.03,156.07 1.03,281.53 v 23.45 11.23 c 0,3.06 0,8.15 -1.03,15.3 0,8.16 0,14.28 -1.01,18.36 v 11.22 l 1.01,18.36 -1.01,28.56 c 0,26.52 -1.03,38.76 -2.04,54.05 l -2.04,10.2"
         style="fill:#ffffff;fill-opacity:1;fill-rule:nonzero;stroke:none"
         id="path38" /><path
         d="m 261.059,1419.02 c 0,-1.25 0,-2.5 1.25,-5 v -2.5 c 10,-6.25 23.75,-8.75 35,-8.75 8.75,0 15,0 18.75,1.25 h 48.75 c 22.5,0 71.25,0 80,-1.25 h 8.75 c 5,0 11.25,0 16.25,-1.25 h 12.5 c 10,0 18.75,1.25 25,5 3.75,0 5,15 5,43.75 0,27.5 -2.5,41.25 -8.75,42.5 h -51.25 c -1.25,0 -6.25,0 -13.75,1.25 h -17.5 c -3.75,-1.25 -46.25,-1.25 -60,-1.25 -13.75,0 -12.5,0 -18.75,-1.25 v 110 c 1.25,8.75 1.25,15 1.25,20 v 78.75 c 0,11.25 1.25,33.75 2.5,42.5 v 3.75 11.25 2.5 c 1.25,2.5 2.5,3.75 5,3.75 2.5,0 6.25,-1.25 11.25,-1.25 h 63.75 c 12.5,0 22.5,1.25 28.75,3.75 3.75,0 6.25,6.25 7.5,18.75 v 6.25 c 0,15 -1.25,18.75 -1.25,32.5 v 6.25 c -1.25,11.25 -3.75,17.5 -6.25,18.75 -6.25,3.75 -13.75,5 -23.75,5 h -16.25 c -6.25,-1.25 -46.25,-1.25 -50,-1.25 h -17.5 v 23.75 36.25 c 0,11.25 0,25 -1.25,42.5 l 1.25,221.24 c 1.25,8.75 1.25,15 1.25,18.75 0,8.75 1.25,15 1.25,20 0,2.5 0,6.25 -1.25,8.75 v 2.5 10 3.75 c 1.25,1.25 2.5,2.5 2.5,5 v 2.5 c 1.25,-1.25 38.75,-2.5 67.5,-3.75 10,1.25 17.5,2.5 23.75,2.5 h 25 c 2.5,0 6.25,0 10,1.25 h 7.5 l 7.5,2.5 1.25,1.25 c 2.5,0 3.75,18.75 3.75,35 v 8.75 c 0,1.25 0,3.75 -1.25,7.5 -1.25,3.75 -1.25,6.25 -1.25,8.75 v 2.5 l -2.5,6.25 v 2.5 l -1.25,1.25 c -1.25,1.25 -8.75,3.75 -21.25,5 -3.75,0 -11.25,1.25 -22.5,2.5 -11.25,0 -20,0 -25,-1.25 -13.75,1.25 -67.5,1.25 -93.75,1.25 -43.75,-1.25 -66.25,-3.75 -66.25,-5 l 1.25,-2.5 v -6.25 -48.75 c 0,-6.25 0,-12.5 1.25,-16.25 -1.25,-8.75 -1.25,-23.75 -1.25,-46.25 v -91.24 c 0,-47.5 -1.25,-83.75 -2.5,-107.5 v -62.5 c 0,-76.25 -1.25,-133.75 -1.25,-211.25 0,-12.5 0,-20 -1.25,-23.75 1.25,-5 1.25,-12.5 1.25,-22.5 0,-13.75 0,-22.5 -1.25,-27.5 1.25,-11.25 1.25,-26.25 1.25,-47.5 0,-78.75 0,-123.75 1.25,-147.5 1.25,-6.25 1.25,-11.25 1.25,-15 0,-7.5 -1.25,-11.25 -1.25,-12.5 v -18.75"
         style="fill:#ffffff;fill-opacity:1;fill-rule:nonzero;stroke:none"
         id="path40" /><path
         d="m 644.809,2329.01 c -1.25,2.5 -7.5,5 -22.5,7.5 -5,0 -5,0 -13.75,-1.25 h -18.75 c -15,0 -22.5,-1.25 -23.75,-5 0,-6.25 0,-12.5 -1.25,-17.5 v -10 c 1.25,-5 1.25,-8.75 1.25,-12.5 0,-6.25 -1.25,-8.75 -1.25,-15 v -10 -5 c 1.25,-3.75 1.25,-8.75 1.25,-17.5 -1.25,-3.75 -1.25,-10 -1.25,-18.75 v -20 l -1.25,-44.99 v -106.25 c 0,-90 1.25,-161.25 2.5,-217.5 -1.25,-1.25 -1.25,-5 -1.25,-8.75 0,-2.5 0,-7.5 1.25,-11.25 0,-8.75 0,-16.25 1.25,-20 1.25,-28.75 1.25,-47.5 1.25,-56.25 v -17.5 c 1.25,-7.5 2.5,-16.25 2.5,-27.5 v -7.5 c 2.5,-15 2.5,-25 3.75,-28.75 5,-65 12.5,-112.5 23.75,-143.75 11.25,-31.25 28.75,-57.5 52.5,-76.25 32.5,-25 71.25,-38.75 118.75,-40 28.75,0 52.5,6.25 67.5,17.5 21.25,18.75 36.25,46.25 46.25,81.25 8.75,35 15,92.5 20,171.25 1.25,6.25 1.25,15 2.5,28.75 v 33.75 c 0,18.75 0,31.25 -1.25,40 1.25,3.75 1.25,8.75 1.25,16.25 0,8.75 0,16.25 -1.25,20 0,2.5 0,6.25 1.25,11.25 v 11.25 l 1.25,11.25 c -1.25,5 -1.25,8.75 -1.25,11.25 0,3.75 0,11.25 -1.25,21.25 v 23.75 c 0,33.75 -1.25,90 -1.25,166.25 -1.25,76.25 -2.5,129.99 -3.75,161.24 l -1.25,36.25 c 0,3.75 0,7.5 -1.25,12.5 v 11.25 5 c 0,8.75 -1.25,16.25 -3.75,21.25 1.25,2.5 1.25,6.25 1.25,10 0,1.25 -7.5,5 -21.25,10 -8.75,0 -18.75,1.25 -32.5,3.75 -3.75,-1.25 -6.25,-1.25 -10,-1.25 h -7.5 l -2.5,-1.25 c -1.25,-1.25 -1.25,-3.75 -1.25,-5 0,-1.25 1.25,-5 2.5,-11.25 v -2.5 -7.5 c 0,-3.75 0,-7.5 -1.25,-10 v -11.25 c 0,-7.5 1.25,-13.75 2.5,-18.75 l -1.25,-18.75 v -30 c 1.25,-11.25 1.25,-18.75 1.25,-22.5 -1.25,-7.5 -1.25,-17.5 -1.25,-26.24 0,-10 0,-20 1.25,-31.25 l 1.25,-66.25 v -23.75 -53.75 c 0,-18.75 1.25,-32.5 1.25,-42.5 1.25,-6.25 2.5,-16.25 2.5,-28.75 v -18.75 c -1.25,-3.75 -1.25,-7.5 -1.25,-13.75 0,-5 0,-12.5 1.25,-20 1.25,-16.25 1.25,-26.25 1.25,-32.5 0,-2.5 -1.25,-6.25 -2.5,-11.25 v -11.25 c 0,-2.5 0,-6.25 -1.25,-11.25 -1.25,-5 -1.25,-8.75 -1.25,-11.25 l -1.25,-43.75 v -31.25 c -1.25,-75 -6.25,-141.25 -16.25,-177.5 -6.25,-26.25 -12.5,-42.5 -18.75,-47.5 -5,-5 -12.5,-7.5 -22.5,-7.5 l -10,1.25 c -10,0 -20,1.25 -31.25,3.75 -1.25,1.25 -5,2.5 -11.25,6.25 -5,3.75 -8.75,5 -10,6.25 -13.75,10 -21.25,15 -22.5,18.75 -5,5 -8.75,10 -10,16.25 -16.25,40 -28.75,213.75 -28.75,506.25 v 77.5 35 c 0,26.24 0,44.99 -1.25,57.49 1.25,11.25 2.5,21.25 2.5,28.75 v 13.75 l 1.25,15 v 58.75"
         style="fill:#ffffff;fill-opacity:1;fill-rule:nonzero;stroke:none"
         id="path42" /><path
         d="m 1073.56,2061.52 c -1.25,26.25 -1.25,56.25 -3.75,91.25 0,34.99 -1.25,57.49 -1.25,66.24 -1.25,3.75 -1.25,6.25 -1.25,8.75 0,16.25 1.25,28.75 3.75,35 1.25,3.75 2.5,6.25 6.25,6.25 20,0 38.75,-2.5 50,-8.75 1.25,-1.25 3.75,-5 8.75,-10 5,-5 8.75,-8.75 10,-11.25 5,-5 20,-52.5 21.25,-71.24 7.5,-31.25 11.25,-72.5 11.25,-126.25 0,-50 -3.75,-76.25 -11.25,-118.75 -7.5,-41.25 -18.75,-67.5 -32.5,-77.5 -13.75,-10 -30,-15 -48.75,-15 h -3.75 c -1.25,1.25 -2.5,1.25 -3.75,1.25 -3.75,5 -6.25,17.5 -7.5,38.75 v 7.5 21.25 7.5 l 1.25,82.5 c 1.25,11.25 1.25,10 1.25,36.25 z m 95,254.99 c -5,3.75 -16.25,10 -35,17.5 -23.75,5 -22.5,2.5 -47.5,6.25 -5,1.25 -11.25,0 -18.75,0 h -21.25 c -8.75,0 -16.25,0 -25,-1.25 -3.75,-1.25 -18.75,3.75 -20,-7.5 -3.751,-40 -6.251,-45 -6.251,-169.99 v -30 -51.25 c 1.25,-3.75 1.25,-6.25 1.25,-10 0,-3.75 0,-11.25 -1.25,-20 v -18.75 -7.5 l 1.25,-37.5 v -8.75 -87.5 c 1.25,-38.75 1.25,-66.25 1.25,-85 v -12.5 -22.5 c 0,-10 0,-18.75 -1.25,-27.5 l 1.25,-6.25 v -1.25 c 0,-1.25 0,-5 -1.25,-8.75 v -11.25 -1.25 -26.25 c 1.25,-12.5 1.25,-21.25 2.5,-27.5 -1.25,-6.25 -1.25,-13.75 -1.25,-22.5 v -16.25 c 0,-13.75 0,-32.5 -1.25,-53.75 v -57.5 -46.25 -53.75 c 0,-2.5 7.501,-5 22.501,-6.25 16.25,1.25 26.25,2.5 30,3.75 16.25,1.25 23.75,6.25 23.75,13.75 1.25,0 1.25,5 2.5,15 -1.25,6.25 -1.25,20 -2.5,40 l -1.25,110 c -1.25,21.25 -1.25,42.5 -1.25,66.25 v 6.25 6.25 27.5 3.75 c 0,8.75 0,17.5 1.25,28.75 0,10 0,15 -1.25,16.25 1.25,5 2.5,8.75 3.75,10 1.25,0 1.25,0 2.5,1.25 h 2.5 c 2.5,0 5,-1.25 8.75,-2.5 3.75,-1.25 6.25,-2.5 7.5,-2.5 17.5,-2.5 32.5,-16.25 45,-41.25 12.5,-25 21.25,-51.25 27.5,-77.5 3.75,-27.5 6.25,-56.25 6.25,-86.25 v -18.75 c 0,-12.5 0,-30 -1.25,-53.75 v -51.25 -13.75 c 0,-3.75 6.25,-6.25 20,-6.25 1.25,0 5,0 11.25,-1.25 6.25,-1.25 11.25,-2.5 15,-2.5 h 7.5 c 15,3.75 22.5,7.5 22.5,10 1.25,1.25 1.25,5 1.25,8.75 1.25,3.75 1.25,7.5 1.25,10 v 27.5 l -2.5,92.5 c 0,20 0,37.5 -1.25,52.5 -1.25,15 -1.25,27.5 -2.5,38.75 0,11.25 -1.25,21.25 -3.75,31.25 -2.5,10 -3.75,17.5 -5,22.5 0,5 -2.5,11.25 -6.25,18.75 l -7.5,15 c -1.25,2.5 -3.75,8.75 -10,17.5 -6.25,8.75 -10,15 -12.5,18.75 l -26.25,32.5 c 2.5,2.5 7.5,7.5 16.25,15 8.75,7.5 15,12.5 16.25,15 2.5,1.25 6.25,6.25 11.25,12.5 6.25,6.25 10,12.5 11.25,17.5 2.5,6.25 5,12.5 6.25,21.25 2.5,8.75 3.75,18.75 5,30 1.25,6.25 2.5,17.5 3.75,31.25 1.25,15 2.5,28.75 3.75,41.25 1.25,12.5 1.25,25 1.25,36.25 v 25 c -1.25,77.5 -2.5,98.75 -3.75,105 -6.25,67.49 -18.75,113.74 -37.5,137.49 -5,7.5 -10,13.75 -16.25,20 -11.25,10 -18.75,16.25 -22.5,17.5"
         style="fill:#ffffff;fill-opacity:1;fill-rule:nonzero;stroke:none"
         id="path44" /><path
         d="m 1423.56,2222.76 c 3.75,13.75 10,25 21.25,36.25 2.5,6.25 11.25,11.25 25,16.25 16.25,-3.75 26.25,-7.5 32.5,-13.75 7.5,-3.75 11.25,-7.5 12.5,-11.25 3.75,-3.75 7.5,-8.75 10,-13.75 1.25,-1.25 5,-7.5 11.25,-17.5 l 11.25,-17.5 c 5,-11.25 8.75,-23.75 12.5,-38.74 3.75,-13.75 6.25,-27.5 7.5,-38.75 1.25,-11.25 2.5,-26.25 3.75,-47.5 1.25,-20 1.25,-33.75 1.25,-42.5 v -50 -43.75 -16.25 c 0,-6.25 0,-11.25 -1.25,-15 0,-3.75 0,-11.25 1.25,-21.25 v -22.5 c 0,-21.25 0,-55 1.25,-102.5 1.25,-47.5 1.25,-82.5 1.25,-106.25 v -10 c -1.25,-13.75 -2.5,-33.75 -2.5,-57.5 0,-23.75 -1.25,-41.25 -5,-53.75 -1.25,-6.25 -3.75,-12.5 -6.25,-17.5 -3.75,-3.75 -6.25,-7.5 -7.5,-10 -2.5,-1.25 -6.25,-3.75 -11.25,-7.5 -6.25,-3.75 -10,-6.25 -11.25,-7.5 -8.75,-6.25 -16.25,-8.75 -25,-8.75 -13.75,0 -23.75,1.25 -31.25,3.75 -11.25,3.75 -20,10 -26.25,17.5 -3.75,5 -10,13.75 -16.25,27.5 -3.75,7.5 -7.5,20 -12.5,36.25 -5,18.75 -8.75,97.5 -10,238.75 v 38.75 18.75 60 c 0,11.25 0,28.75 1.25,51.25 v 50 c 1.25,11.25 1.25,26.25 1.25,46.25 1.25,11.25 1.25,26.25 1.25,43.75 1.25,10 2.5,17.5 2.5,21.25 v 6.25 c -1.25,3.75 -1.25,6.25 -1.25,7.5 1.25,6.25 1.25,12.5 2.5,18.75 1.25,7.49 1.25,12.49 1.25,13.74 1.25,10 2.5,22.5 5,38.75 z m 225,-421.24 v 132.5 c -1.25,8.75 -1.25,21.25 -1.25,36.25 0,13.75 0,23.75 -1.25,30 0,21.25 -1.25,35 -2.5,43.75 0,33.75 -1.25,55 -3.75,65 -1.25,3.75 -1.25,10 -2.5,16.25 -1.25,6.25 -1.25,10 -1.25,11.25 -3.75,28.75 -8.75,51.24 -15,69.99 -10,33.75 -20,60 -31.25,76.25 -11.25,17.5 -25,35 -43.75,52.5 -8.75,8.75 -20,16.25 -31.25,21.25 -11.25,6.25 -21.25,10 -30,10 -5,1.25 -11.25,1.25 -18.75,1.25 -6.25,0 -10,0 -12.5,-1.25 -41.25,-6.25 -71.25,-32.5 -92.5,-77.5 -15,-36.25 -23.75,-77.5 -26.25,-124.99 -1.25,-8.75 -1.25,-26.25 -1.25,-51.25 0,-6.25 0,-16.25 -1.25,-31.25 -1.25,-15 -1.25,-27.5 -1.25,-36.25 v -42.5 c -1.25,-20 -1.25,-36.25 -1.25,-47.5 v -77.5 -17.5 c -1.25,-7.5 -1.25,-13.75 -1.25,-17.5 0,-3.75 0,-10 1.25,-18.75 v -16.25 -43.75 -18.75 c 0,-26.25 0,-46.25 1.25,-58.75 2.5,-38.75 3.75,-58.75 3.75,-60 1.25,-8.75 2.5,-18.75 3.75,-31.25 1.25,-11.25 2.5,-18.75 2.5,-21.25 0,-6.25 1.25,-13.75 2.5,-23.75 1.25,-10 2.5,-17.5 2.5,-22.5 1.25,-3.75 3.75,-8.75 7.5,-17.5 2.5,-8.75 5,-15 6.25,-18.75 3.75,-10 7.5,-20 13.75,-31.25 13.75,-18.75 27.5,-32.5 43.75,-41.25 3.75,-1.25 8.75,-3.75 15,-6.25 6.25,-2.5 10,-5 13.75,-6.25 11.25,-3.75 22.5,-7.5 33.75,-8.75 h 12.5 27.5 6.25 c 8.75,0 20,1.25 31.25,5 10,3.75 21.25,8.75 35,16.25 10,6.25 18.75,13.75 25,23.75 6.25,10 12.5,23.75 16.25,41.25 3.75,18.75 7.5,33.75 10,45 2.5,11.25 3.75,31.25 5,57.5 1.25,27.5 1.25,45 1.25,53.75 v 57.5 25 c -1.25,11.25 -1.25,20 -1.25,26.25 v 52.5"
         style="fill:#ffffff;fill-opacity:1;fill-rule:nonzero;stroke:none"
         id="path46" /><path
         d="m 1859.81,2251.51 c 13.75,0 25,-2.5 35,-8.75 8.75,-6.25 16.25,-12.5 22.5,-18.75 6.25,-6.25 11.25,-17.5 15,-30 3.75,-15 7.5,-24.99 8.75,-33.74 1.25,-8.75 3.75,-21.25 6.25,-37.5 1.25,-3.75 1.25,-27.5 1.25,-68.75 v -13.75 -13.75 c 0,-28.75 -2.5,-56.25 -6.25,-81.25 -3.75,-30 -10,-48.75 -18.75,-56.25 -8.75,-8.75 -28.75,-15 -60,-21.25 l -21.25,-1.25 h -3.75 c -5,0 -7.5,1.25 -8.75,5 -1.25,1.25 -1.25,2.5 -2.5,3.75 -3.75,11.25 -6.25,52.5 -6.25,123.75 0,17.5 0,35 1.25,53.75 v 23.75 c 0,17.5 -1.25,43.75 -1.25,78.75 -2.5,33.74 -2.5,58.74 -2.5,73.74 v 5 10 6.25 l -1.25,1.25 h 3.75 7.5 c 3.75,1.25 7.5,1.25 10,1.25 h 1.25 z m 165,-168.74 c 0,35 -2.5,66.25 -8.75,91.25 -5,27.49 -15,51.24 -27.5,74.99 -15,22.5 -35,40 -62.5,52.5 -26.25,13.75 -60,20 -100,21.25 h -22.5 -3.75 c -3.75,0 -7.5,0 -11.25,-1.25 l -37.5,1.25 c -2.5,0 -5,-1.25 -6.25,-3.75 -1.25,-1.25 -2.5,-6.25 -3.75,-15 -1.25,-8.75 -1.25,-20 -2.5,-36.25 v -8.75 -3.75 c 0,-13.75 0,-25 -1.25,-33.75 1.25,-7.5 1.25,-18.75 1.25,-35 v -1.25 -17.49 -12.5 -41.25 c 1.25,-20 1.25,-36.25 1.25,-48.75 1.25,-8.75 1.25,-23.75 1.25,-43.75 0,-15 0,-26.25 -1.25,-33.75 0,-2.5 1.25,-35 3.75,-96.25 l 2.5,-110 v -48.75 c 1.25,-21.25 1.25,-35 1.25,-43.75 v -12.5 -33.75 c 1.25,-13.75 1.25,-23.75 1.25,-30 v -32.5 c 1.25,-13.75 -1.25,-22.5 0,-28.75 v -2.5 c 0,-31.25 0,-52.5 1.25,-66.25 0,-10 0,-18.75 1.25,-26.25 v -7.5 -11.25 -3.75 -11.25 c 1.25,-3.75 13.75,-5 27.5,-6.25 8.75,0 10,-2.5 21.25,0 5,1.25 8.75,1.25 11.25,1.25 h 1.25 3.75 c 7.5,0 11.25,1.25 12.5,3.75 1.25,1.25 1.25,5 1.25,8.75 0,1.25 0,2.5 -1.25,6.25 v 8.75 1.25 16.25 c -1.25,47.5 -2.5,85 -2.5,113.75 v 15 l 1.25,181.25 v 8.75 h 11.25 16.25 c 5,1.25 11.25,1.25 20,2.5 l 13.75,2.5 h 2.5 c 21.25,0 41.25,5 57.5,13.75 16.25,10 30,22.5 38.75,37.5 8.75,15 16.25,28.75 20,41.25 5,13.75 8.75,25 10,36.25 1.25,20 3.75,35 5,45 v 11.25 12.5 c 1.25,6.25 1.25,11.25 1.25,15 0,1.25 0,2.5 -1.25,3.75 v 5 22.5 c 1.25,10 1.25,17.5 2.5,22.5 v 30"
         style="fill:#ffffff;fill-opacity:1;fill-rule:nonzero;stroke:none"
         id="path48" /><path
         d="m 2371.06,2336.51 c -3.75,1.25 -10,2.5 -20,2.5 -11.25,1.25 -18.75,1.25 -25,2.5 -10,-1.25 -51.25,-1.25 -90,-1.25 -17.5,0 -52.5,1.25 -71.25,1.25 h -10 c -35,-1.25 -52.5,-3.75 -53.75,-6.25 -7.5,-15 -11.25,-60 -11.25,-136.25 0,-16.25 1.25,-76.24 2.5,-181.24 0,-33.75 0,-61.25 1.25,-80 v -8.75 c -1.25,-3.75 -1.25,-7.5 -1.25,-10 0,-5 0,-13.75 1.25,-25 1.25,-11.25 1.25,-20 1.25,-26.25 0,-2.5 0,-6.25 -1.25,-10 v -11.25 c 1.25,-13.75 1.25,-32.5 1.25,-58.75 0,-15 0,-37.5 -1.25,-65 v -63.75 -30 c -1.25,-36.25 -2.5,-46.25 -2.5,-80 v -31.25 -38.75 c 0,-36.25 2.5,-55 6.25,-55 l 151.25,-2.5 h 55 c 21.25,0 32.5,0 36.25,1.25 16.25,0 28.75,0 36.25,1.25 3.75,0 5,8.75 5,27.5 0,35 -3.75,53.75 -10,55 -12.5,1.25 -43.75,2.5 -93.75,2.5 l -102.5,2.5 3.75,243.75 142.5,6.25 c 6.25,0 3.75,6.25 3.75,18.75 1.25,5 2.5,10 2.5,15 0,8.75 -1.25,15 -2.5,20 -1.25,13.75 0,26.25 -6.25,27.5 -1.25,1.25 -12.5,2.5 -23.75,2.5 h -8.75 -36.25 c -21.25,0 -65,3.75 -68.75,5 l -3.75,73.75 c 0,5 0,15 -1.25,28.75 v 35 c 0,16.25 0,30 -1.25,40 v 11.25 c 0,2.5 0,7.5 1.25,15 1.25,7.5 1.25,13.75 0,17.5 -1.25,21.25 -2.5,37.5 -2.5,47.5 v 132.49 l 106.25,3.75 c 7.5,1.25 27.5,1.25 58.75,1.25 h 11.25 c 15,0 23.75,1.25 25,3.75 1.25,2.5 2.5,11.25 3.75,26.25 1.25,3.75 1.25,6.25 1.25,15 0,8.75 0,15 -1.25,18.75 -1.25,11.25 -3.75,16.25 -6.25,16.25 h -1.25"
         style="fill:#ffffff;fill-opacity:1;fill-rule:nonzero;stroke:none"
         id="path50" /><path
         d="M 1827.13,1239.48 H 777.016 V 537 H 1827.13 v 702.48"
         style="fill:#244c9e;fill-opacity:1;fill-rule:nonzero;stroke:none"
         id="path52" /><path
         d="m 1313.46,1139.59 h 36.55 l -29.46,-22.92 11.44,-36.41 -29.34,22.42 -29.33,-22.42 11.58,36.41 -29.7,22.92 h 36.43 l 11.02,35.51 10.81,-35.51"
         style="fill:#fff200;fill-opacity:1;fill-rule:nonzero;stroke:none"
         id="path54" /><path
         d="m 1314.74,671.121 h 36.6 l -29.46,-22.133 11.47,-34.968 -29.37,21.539 -29.33,-21.539 11.58,34.968 -29.75,22.133 h 36.48 l 11.02,34.141 10.76,-34.141"
         style="fill:#fff200;fill-opacity:1;fill-rule:nonzero;stroke:none"
         id="path56" /><path
         d="m 1430.63,702.141 h 36.57 l -29.41,-22.082 11.44,-35.02 -29.34,21.621 -29.34,-21.621 11.56,35.02 -29.75,22.082 h 36.48 l 11.05,34.148 10.74,-34.148"
         style="fill:#fff200;fill-opacity:1;fill-rule:nonzero;stroke:none"
         id="path58" /><path
         d="m 1430.63,1108.34 h 36.57 l -29.41,-22.08 11.44,-35.02 -29.34,21.57 -29.34,-21.57 11.56,35.02 -29.75,22.08 h 36.48 l 11.05,34.15 10.74,-34.15"
         style="fill:#fff200;fill-opacity:1;fill-rule:nonzero;stroke:none"
         id="path60" /><path
         d="m 1516.66,1022.3 h 36.53 l -29.46,-22.03 11.46,-35.071 -29.33,21.571 -29.27,-21.571 11.54,35.071 -29.73,22.03 h 36.4 l 11.06,34.15 10.8,-34.15"
         style="fill:#fff200;fill-opacity:1;fill-rule:nonzero;stroke:none"
         id="path62" /><path
         d="m 1516.66,787 h 36.53 l -29.46,-22.129 11.46,-35.043 -29.33,21.641 -29.27,-21.641 11.54,35.043 L 1458.4,787 h 36.4 l 11.06,34.148 10.8,-34.148"
         style="fill:#fff200;fill-opacity:1;fill-rule:nonzero;stroke:none"
         id="path64" /><path
         d="m 1548.89,906.449 h 36.6 l -29.46,-22.078 11.44,-35.051 -29.31,21.621 -29.34,-21.621 11.53,35.051 -29.7,22.078 h 36.41 l 11.1,34.141 10.73,-34.141"
         style="fill:#fff200;fill-opacity:1;fill-rule:nonzero;stroke:none"
         id="path66" /><path
         d="m 1195.32,1108.05 h 36.53 l -29.46,-22.1 11.46,-35.02 -29.34,21.59 -29.34,-21.59 11.59,35.02 -29.7,22.1 h 36.43 l 11.02,34.15 10.81,-34.15"
         style="fill:#fff200;fill-opacity:1;fill-rule:nonzero;stroke:none"
         id="path68" /><path
         d="m 1111.67,1022.02 h 36.6 l -29.46,-22.071 11.39,-35.051 -29.29,21.59 -29.32,-21.59 11.54,35.051 -29.73,22.071 h 36.48 l 11.03,34.15 10.76,-34.15"
         style="fill:#fff200;fill-opacity:1;fill-rule:nonzero;stroke:none"
         id="path70" /><path
         d="m 1080.62,906.172 h 36.57 l -29.46,-22.102 11.44,-35.031 -29.34,21.551 -29.31,-21.551 11.56,35.031 -29.7,22.102 h 36.43 l 11.02,34.098 10.79,-34.098"
         style="fill:#fff200;fill-opacity:1;fill-rule:nonzero;stroke:none"
         id="path72" /><path
         d="m 1111.67,786.699 h 36.6 l -29.46,-22.097 11.39,-35.051 -29.29,21.621 -29.32,-21.621 11.54,35.051 -29.73,22.097 h 36.48 l 11.03,34.121 10.76,-34.121"
         style="fill:#fff200;fill-opacity:1;fill-rule:nonzero;stroke:none"
         id="path74" /><path
         d="m 1196.54,701.852 h 36.52 l -29.43,-22.071 11.36,-35.031 -29.26,21.602 -29.34,-21.602 11.56,35.031 -29.68,22.071 h 36.43 l 11.03,34.148 10.81,-34.148"
         style="fill:#fff200;fill-opacity:1;fill-rule:nonzero;stroke:none"
         id="path76" /></g></g></svg>
