<svg enable-background="new 0 0 64 64" viewBox="0 0 64 64" xmlns="http://www.w3.org/2000/svg"><path d="m0 0h64v64h-64z" fill="none"/><path d="m47.6 19.3c-.1-2.4-.4-4.8-.8-7.2-.3-2.1-1.9-3.6-4-4-6-1-15.9-1-17.9-1s-11.9 0-17.9 1c-2.1.3-3.6 1.9-4 4-1 6-1 15.9-1 17.9s0 11.9 1 17.9c.3 2.1 1.9 3.6 4 4 6 1 15.9 1 17.9 1 1.2 0 5.5 0 10-.2v-11.6c0-1.5.8-2.8 2-3.5v-5.1c.1-6.5 4.7-11.9 10.7-13.2zm-19.6 26.7h-6.6l.6-14v-8h6zm-3-26c-2.2 0-3.5-1.3-3.5-3.5 0-1.9 1.2-3.5 3.5-3.5 2.2 0 3.5 1.2 3.5 3.5 0 1.9-1.2 3.5-3.5 3.5z"/><path d="m61.9 40h-16.9v-7.5c0-3 2.5-5.5 5.5-5.5s5.5 2.5 5.5 5.5v1.5h5v-1.5c0-5.8-4.7-10.5-10.5-10.5s-10.5 4.7-10.5 10.5v7.5h-.9c-.6 0-1.1.5-1.1 1.1v13.8c0 .6.4 1 .9 1.1 1.8.3 6.1 1 11.6 1s9.7-.6 11.6-1c.5-.1.9-.6.9-1.1v-13.8c0-.6-.5-1.1-1.1-1.1zm-9.9 8.6v3.4h-3v-3.4c-.7-.5-1.1-1.2-1.1-2.1 0-1.4 1.2-2.6 2.6-2.6s2.6 1.2 2.6 2.6c0 .9-.4 1.6-1.1 2.1z"/></svg>