<svg enable-background="new 0 0 64 64" height="64" viewBox="0 0 64 64" width="64" xmlns="http://www.w3.org/2000/svg"><path d="m0 0h64v64h-64z" fill="none"/><ellipse cx="12" cy="51" rx="3" ry="3" transform="matrix(1 -.00925698 .00925698 1 -.4716 .1133)"/><ellipse cx="32" cy="53" rx="3" ry="3" transform="matrix(1 -.00925707 .00925707 1 -.4893 .2985)"/><ellipse cx="43" cy="58" rx="3" ry="3" transform="matrix(1 -.00925698 .00925698 1 -.5351 .4005)"/><ellipse cx="52" cy="51" rx="3" ry="3" transform="matrix(1 -.00925698 .00925698 1 -.4699 .4835)"/><ellipse cx="21" cy="58" rx="3" ry="3" transform="matrix(1 -.00925698 .00925698 1 -.536 .1969)"/><ellipse cx="41" cy="46" rx="3" ry="3" transform="matrix(1 -.00925698 .00925698 1 -.4241 .3815)"/><ellipse cx="23" cy="46" rx="3" ry="3" transform="matrix(1 -.00925698 .00925698 1 -.4248 .2149)"/><path d="m38.4 10.4-5.6-6.6c-.2-.2-.5-.4-.8-.4s-.6.1-.8.4l-5.6 6.6c-.3.4-.3.9.1 1.3.3.4.9.4 1.3.1l3-1.9c0 2.4.8 3.9 1.5 5.1.5.9.8 1.4.8 2s-.5 1.2-1.4 2c-1.1 1.1-2.6 2.6-2.6 4.9s1.5 3.8 2.6 4.9c.9.9 1.4 1.5 1.4 2.1 0 .8-.4 1.3-1.1 2.3-.8 1.1-1.9 2.6-1.9 4.7 0 2.4 1.1 4.6 1.3 4.9.4.7 1.1 1.1 1.8 1.1.3 0 .6-.1.9-.2 1-.5 1.4-1.7.9-2.7-.2-.4-.8-1.9-.8-3.1 0-.8.4-1.3 1.1-2.3.8-1.1 1.9-2.5 1.9-4.7 0-2.3-1.5-3.7-2.6-4.9-.9-.9-1.5-1.5-1.5-2.1s.5-1.2 1.4-2.1c1.1-1.1 2.6-2.6 2.5-4.9 0-1.7-.7-2.9-1.2-3.9-.6-1-1-1.8-1-3.2l3.1 1.9c.4.3 1 .2 1.3-.2.3-.2.4-.8 0-1.1z"/><path d="m56.5 13.2-5.6-6.6c-.2-.2-.5-.4-.8-.4s-.6.1-.8.4l-5.6 6.6c-.3.4-.3.9.1 1.3.3.4.9.4 1.3.1l3-1.9c-.1 3.2.8 4.7 1.7 6 .4.6.5.7.5 1.1 0 .6-.5 1.2-1.4 2-1.1 1.1-2.6 2.6-2.6 4.9s1.5 3.8 2.6 4.9c.9.9 1.4 1.5 1.4 2.1 0 .5-.2.8-.6 1.5-.9 1.3-2 3-1.2 6.8.2.9 1 1.6 2 1.6h.4c1.1-.2 1.8-1.3 1.5-2.4-.5-2.1 0-2.8.6-3.8.6-.8 1.3-2 1.3-3.8 0-2.3-1.5-3.7-2.6-4.9-.9-.9-1.5-1.5-1.5-2.1s.5-1.2 1.4-2.1c1.1-1.1 2.6-2.6 2.5-4.9 0-1.8-.8-2.8-1.3-3.5s-1-1.4-.9-3.6l3.1 1.9c.4.3 1 .2 1.3-.2.5-.1.5-.6.2-1z"/><path d="m18.4 34.2c0-2.3-1.5-3.7-2.6-4.9-.9-.9-1.5-1.5-1.5-2.1s.5-1.2 1.4-2.1c1.1-1.1 2.6-2.6 2.5-4.9 0-1.8-.8-2.8-1.3-3.5s-1-1.4-.9-3.6l3.1 1.9c.4.3 1 .2 1.3-.2s.4-.9 0-1.3l-5.5-6.5c-.2-.2-.5-.4-.8-.4s-.7.1-.9.4l-5.6 6.6c-.3.4-.3.9.1 1.3.4.3.9.4 1.3.1l3-1.9c-.1 3.2.8 4.7 1.7 6 .4.6.5.7.5 1.1 0 .6-.5 1.2-1.4 2-1.1 1.1-2.6 2.6-2.6 4.9s1.5 3.8 2.6 4.9c.9.9 1.4 1.5 1.4 2.1 0 .5-.2.8-.6 1.5-.9 1.3-2 3-1.2 6.8.2.9 1 1.6 2 1.6h.4c1.1-.2 1.8-1.3 1.5-2.4-.5-2.2 0-2.8.6-3.8.8-.7 1.5-1.8 1.5-3.6z"/></svg>