<svg enable-background="new 0 0 64 64" viewBox="0 0 64 64" xmlns="http://www.w3.org/2000/svg"><path d="m0 0h64v64h-64z" fill="none"/><path d="m40.039 22.166c-8.59-4.395-19.441-.85-23.836 7.74-1.302 2.544-1.937 5.401-1.935 8.08l17.755-.004 8.83 15.352c2.807-1.628 5.517-4.167 7.101-7.264 4.396-8.589.675-19.509-7.915-23.904z" fill="#b3b3b3"/><path d="m56.049 5.365c-1.16-.274-2.301-.28-3.379-.065 2.95 1.961 4.087 5.84 2.511 9.125-.994 2.071-2.847 3.446-4.927 3.915.758.5 1.611.889 2.552 1.111 4.105.969 8.191-1.466 9.09-5.363s-1.742-7.754-5.847-8.723z"/><path d="m15.417 8.804c-.011.917-.023 1.793-.033 2.586.01.266.343.39.568.225.684-.488 1.423-1.03 2.04-1.643.806.329 1.697.546 2.515.733.271.066.531-.177.438-.426-.315-.729-.662-1.533-1.025-2.375.498-.751.985-1.525 1.387-2.198.134-.226-.028-.553-.296-.562-.787-.02-1.718.016-2.577.086-.528-.693-1.004-1.316-1.494-1.96-.081-.107-.194-.146-.311-.123-.119.023-.207.103-.241.233-.205.783-.405 1.541-.626 2.384-.82.265-1.694.59-2.412.91-.244.112-.268.476-.058.633.63.467 1.376.995 2.125 1.497z"/><path d="m8.187 20.135c-.517-.204-1.145-.405-1.732-.566-.183-.588-.348-1.117-.518-1.663-.028-.091-.094-.144-.177-.157s-.162.019-.216.097c-.325.47-.642.925-.993 1.431-.609-.023-1.267-.018-1.822.021-.189.015-.293.251-.191.406.305.462.673.994 1.049 1.508-.229.606-.449 1.185-.648 1.709-.058.179.133.342.323.287.572-.158 1.194-.34 1.752-.598.455.414.995.773 1.493 1.095.164.11.396.011.394-.177-.033-.56-.069-1.178-.106-1.825.512-.378 1.023-.775 1.453-1.124.143-.117.114-.373-.061-.444z"/><path d="m36.819 15.511c-12.421-2.662-24.647 5.248-27.309 17.67s5.249 24.647 17.67 27.309c12.422 2.662 24.647-5.248 27.309-17.67s-5.248-24.648-17.67-27.309zm12.293 26.156c-2.022 9.435-11.343 15.467-20.779 13.445-9.435-2.022-15.466-11.343-13.445-20.778 2.022-9.435 11.343-15.466 20.779-13.445 9.435 2.021 15.467 11.343 13.445 20.778z"/><path d="m33.5 24.4-.001-.015c-.055-.734-.643-1.335-1.399-1.385-.829-.055-1.545.572-1.6 1.4l-.733 11.016-9.377 1.297c-.602.083-1.082.581-1.119 1.211-.042.717.504 1.332 1.221 1.374l.014.001 11.605.685c.096.005.206.005.305-.003 1.246-.095 2.179-1.182 2.084-2.428l-.005-.063z"/></svg>