<svg enable-background="new 0 0 64 64" viewBox="0 0 64 64" xmlns="http://www.w3.org/2000/svg"><path d="m0 0h64v64h-64z" fill="none"/><path d="m32 8c-13.255 0-24 10.745-24 24s10.745 24 24 24 24-10.745 24-24-10.745-24-24-24zm-12.527 21.392c0-1.105.425-2.102 1.104-2.869l7.193 4.674c-.687 1.499-2.191 2.545-3.948 2.545-2.402-.001-4.349-1.948-4.349-4.35zm18.586 16.472c-1.185-.348-3.392-.864-6.059-.864s-4.874.516-6.059.864c-.406.119-.766-.289-.595-.677.66-1.501 2.431-4.187 6.654-4.187s5.994 2.686 6.655 4.188c.17.387-.189.796-.596.676zm2.119-12.123c-1.757 0-3.261-1.047-3.948-2.545l7.193-4.674c.679.767 1.104 1.764 1.104 2.869 0 2.403-1.947 4.35-4.349 4.35z"/></svg>