<svg enable-background="new 0 0 64 64" viewBox="0 0 64 64" xmlns="http://www.w3.org/2000/svg"><path d="m0 0h64v64h-64z" fill="none"/><path d="m15.1 25.5-2.3-3.3c-2.6 1.9-4.3 4.9-4.3 8.3s1.7 6.4 4.3 8.3l2.3-3.3c-1.5-1.1-2.6-3-2.6-5s1-3.9 2.6-5z"/><path d="m4.5 30.5c0-4.8 2.4-9 5.9-11.6l-2.3-3.3c-4.6 3.4-7.6 8.8-7.6 14.9s3 11.5 7.6 14.8l2.3-3.3c-3.5-2.5-5.9-6.7-5.9-11.5z"/><path d="m51.2 22.2-2.3 3.3c1.5 1.1 2.6 3 2.6 5s-1 3.9-2.6 5l2.3 3.3c2.6-1.9 4.3-4.9 4.3-8.3s-1.7-6.4-4.3-8.3z"/><path d="m55.9 15.7-2.3 3.3c3.6 2.6 5.9 6.8 5.9 11.6s-2.4 9-5.9 11.6l2.3 3.3c4.6-3.3 7.6-8.7 7.6-14.8s-3-11.7-7.6-15z"/><path d="m40 11.3c-4 1.6-6.8 6.4-7.5 11.2-.7 5.1 1.1 8.2 1.1 8.2s-4.1.3-4.5-5.7c-.5-6.8-5.3-8.1-5.3-8.1s.7 6-.9 9.6c-1.4 3.3-2.2 3.9-4.3 9.1-2 5-1.7 11.6 2 15.3 1.8 1.8 4.1 3 6.5 3.6-1.1-1.2-2.3-2.6-2.3-5.3-.1-2.9 1.5-5.5 3.9-8.1-.5 3.6-.1 7.6 3.1 7.3s5.3-7.2 5.1-11.2c1.7 4 3.1 8.4 1.1 12.8-1 2.1-1.6 3.2-2.8 4.4 2.8-.8 5.6-2.3 8-4.5 3.6-3.4 5.1-8.5 2.5-14.8-5.4-12.6-6.7-18-5.7-23.8z"/></svg>