<?xml version="1.0" encoding="utf-8"?>
<!-- Generator: Adobe Illustrator 19.1.0, SVG Export Plug-In . SVG Version: 6.00 Build 0)  -->
<svg version="1.2" baseProfile="tiny" xmlns="http://www.w3.org/2000/svg" xmlns:xlink="http://www.w3.org/1999/xlink" x="0px"
	 y="0px" width="64px" height="64px" viewBox="0 0 64 64" xml:space="preserve">
<g id="Box">
	<rect fill="none" width="64" height="64"/>
</g>
<g id="Icon">
	<g>
		<path d="M19.3657,38h25.2687C45.3885,38,46,37.3885,46,36.6343V4.3657C46,3.6115,45.3885,3,44.6343,3H29.8345
			c-0.3624,0-0.7098,0.144-0.9659,0.4001L18.4001,13.9545C18.144,14.2106,18,14.558,18,14.9204v21.7139
			C18,37.3852,18.6145,38,19.3657,38z M19.1151,15h10.1536c0.377,0,0.6828-0.3058,0.6828-0.6828V4.1158
			c0,0,0.1713-0.0748,0.2457,0.1578L31,7h11v27H22V16l-2.7357-0.7172C19.0314,15.2084,19.1151,15,19.1151,15z"/>
		<path d="M52.2301,40.7582c-2.7689,0.9518-6.3674,2.413-9.2219,3.6126c0.0738,0.4329,0.0837,0.8924,0.0119,1.3788
			c-0.4145,2.8078-2.82,4.5833-6.2403,4.7415c-7.7327,0.3578-12.5347-1.5576-13.5313-1.9617
			c-0.2862-0.1161-0.318-0.2576-0.2923-0.3882c0.0016-0.0013,0.0111-0.0091,0.0111-0.0091
			c5.5945,0.9645,9.1206,1.1222,13.4634,0.4237c3.295-0.53,4.489-2.106,4.4613-3.4058c-0.027-1.2701-0.9268-2.0373-2.9519-2.1078
			c-6.8902-0.2395-10.9187-1.008-16.8242-1.8687c-4.1042-0.5981-8.0618,0.4671-11.4327,2.6265
			c-3.1635,2.0265-4.0402,2.9853-4.0402,2.9853l5.7857,11.1429l7.4819-3.0415c0.8526-0.3467,1.7844-0.4512,2.6926-0.3022
			l10.2607,2.283c2.2892,0.3758,4.6379-0.0562,6.6438-1.2219l20.4795-12.846C58.9872,42.7996,57.9829,38.7806,52.2301,40.7582z"/>
		<polygon points="31.8662,26.1211 37.6603,20.327 40,22.6667 40,16 33.3333,16 35.5392,18.2059 31.8662,21.8789 28.8662,18.8789 
			24,23.7451 24,27.9873 28.8662,23.1211 		"/>
	</g>
</g>
</svg>
