<svg height="64" viewBox="0 0 64 64" width="64" xmlns="http://www.w3.org/2000/svg"><path d="m0 0h64v64h-64z" fill="none"/><path d="m32 8c-13.2548 0-24 10.7452-24 24s10.7452 24 24 24 24-10.7452 24-24-10.7452-24-24-24zm0 43.1c-10.5486 0-19.1-8.5513-19.1-19.1s8.5514-19.1 19.1-19.1 19.1 8.5514 19.1 19.1-8.5514 19.1-19.1 19.1z"/><path d="m32 17c-8.2842 0-15 6.7157-15 15s6.7158 15 15 15c8.2843 0 15-6.7157 15-15s-6.7157-15-15-15zm0 25.1c-5.5781 0-10.1-4.5219-10.1-10.1s4.5219-10.1 10.1-10.1 10.1 4.5219 10.1 10.1-4.5219 10.1-10.1 10.1z"/><circle cx="32" cy="32" r="6"/></svg>