<?xml version="1.0" encoding="utf-8"?>
<!-- Generator: Adobe Illustrator 19.1.0, SVG Export Plug-In . SVG Version: 6.00 Build 0)  -->
<svg version="1.2" baseProfile="tiny" xmlns="http://www.w3.org/2000/svg" xmlns:xlink="http://www.w3.org/1999/xlink" x="0px"
	 y="0px" width="64px" height="64px" viewBox="0 0 64 64" xml:space="preserve">
<g id="_x36_4px_Box">
	<rect fill="none" width="64" height="64"/>
</g>
<g id="Icon">
	<g>
		<circle cx="32" cy="32" r="3"/>
		<path d="M32,22c-5.5137,0-10,4.4858-10,10s4.4863,10,10,10s10-4.4858,10-10S37.5137,22,32,22z M32,37.1005
			c-2.8123,0-5.1006-2.2883-5.1006-5.1005S29.1877,26.8995,32,26.8995S37.1006,29.1877,37.1006,32S34.8123,37.1005,32,37.1005z"/>
		<path d="M32,15c-9.374,0-17,7.626-17,17s7.626,17,17,17s17-7.626,17-17S41.374,15,32,15z M32,45.065
			c-7.2039,0-13.0649-5.8607-13.0649-13.065S24.7961,18.935,32,18.935S45.0649,24.7957,45.0649,32S39.2039,45.065,32,45.065z"/>
		<path d="M32,8C18.7666,8,8,18.7666,8,32s10.7666,24,24,24s24-10.7666,24-24S45.2334,8,32,8z M32,53.105
			c-11.637,0-21.105-9.4675-21.105-21.105S20.363,10.895,32,10.895S53.105,20.3625,53.105,32S43.637,53.105,32,53.105z"/>
		<path d="M32,1.0273C14.9404,1.0273,1.062,14.9214,1.062,32S14.9404,62.9727,32,62.9727S62.938,49.0786,62.938,32
			S49.0596,1.0273,32,1.0273z M32,61.1215C15.9619,61.1215,2.9133,48.0577,2.9133,32S15.9619,2.8785,32,2.8785
			S61.0867,15.9423,61.0867,32S48.0381,61.1215,32,61.1215z"/>
	</g>
</g>
</svg>
