<svg height="64" viewBox="0 0 64 64" width="64" xmlns="http://www.w3.org/2000/svg"><path d="m0 0h64v64h-64z" fill="none"/><circle cx="32" cy="32" r="3"/><path d="m32 22c-5.5137 0-10 4.4858-10 10s4.4863 10 10 10 10-4.4858 10-10-4.4863-10-10-10zm0 15.1005c-2.8123 0-5.1006-2.2883-5.1006-5.1005s2.2883-5.1005 5.1006-5.1005 5.1006 2.2882 5.1006 5.1005-2.2883 5.1005-5.1006 5.1005z"/><path d="m32 15c-9.374 0-17 7.626-17 17s7.626 17 17 17 17-7.626 17-17-7.626-17-17-17zm0 30.065c-7.2039 0-13.0649-5.8607-13.0649-13.065s5.861-13.065 13.0649-13.065 13.0649 5.8607 13.0649 13.065-5.861 13.065-13.0649 13.065z"/><path d="m32 8c-13.2334 0-24 10.7666-24 24s10.7666 24 24 24 24-10.7666 24-24-10.7666-24-24-24zm0 45.105c-11.637 0-21.105-9.4675-21.105-21.105s9.468-21.105 21.105-21.105 21.105 9.4675 21.105 21.105-9.468 21.105-21.105 21.105z"/><path d="m32 1.0273c-17.0596 0-30.938 13.8941-30.938 30.9727s13.8784 30.9727 30.938 30.9727 30.938-13.8941 30.938-30.9727-13.8784-30.9727-30.938-30.9727zm0 60.0942c-16.0381 0-29.0867-13.0638-29.0867-29.1215s13.0486-29.1215 29.0867-29.1215 29.0867 13.0638 29.0867 29.1215-13.0486 29.1215-29.0867 29.1215z"/></svg>