<?xml version="1.0" encoding="utf-8"?>
<!-- Generator: Adobe Illustrator 25.2.0, SVG Export Plug-In . SVG Version: 6.00 Build 0)  -->
<svg version="1.1" xmlns="http://www.w3.org/2000/svg" xmlns:xlink="http://www.w3.org/1999/xlink" x="0px" y="0px"
	 viewBox="0 0 64 64" style="enable-background:new 0 0 64 64;" xml:space="preserve">
<style type="text/css">
	.st0{fill:none;}
	.st1{fill:#B3B3B3;}
</style>
<g id="Label">
</g>
<g id="Box">
	<rect class="st0" width="64" height="64"/>
</g>
<g id="Icon">
	<path d="M32,8C18.745,8,8,18.745,8,32c0,13.255,10.745,24,24,24s24-10.745,24-24C56,18.745,45.255,8,32,8z M14.789,25.869
		l5.549-0.806l2.482-5.028l2.482,5.028l5.549,0.806l-4.015,3.914l0.948,5.527l-4.963-2.609l-4.963,2.609l0.948-5.527L14.789,25.869z
		 M44.193,40.053c-1.93,4.002-6.661,8.075-12.193,8.075s-10.263-4.073-12.193-8.076c-0.226-0.469,0.318-0.947,0.749-0.656
		c2.927,1.976,6.972,3.582,11.444,3.582s8.517-1.606,11.444-3.581C43.875,39.106,44.419,39.584,44.193,40.053z M46.144,35.31
		l-4.963-2.609l-4.963,2.609l0.948-5.527l-4.015-3.914l5.549-0.806l2.482-5.028l2.482,5.028l5.549,0.806l-4.015,3.914L46.144,35.31z
		"/>
</g>
</svg>
