<svg enable-background="new 0 0 64 64" height="64" viewBox="0 0 64 64" width="64" xmlns="http://www.w3.org/2000/svg"><path d="m0 0h64v64h-64z" fill="none"/><path d="m14.6 33.6c.1-.5-.1-1-.6-1.2l-3.2-1.6c1.7-1.3 5-3.2 10-2.8s8.3 3.4 12 6.9c4.4 4.2 9.3 8.8 17.8 8.8 1.8 0 3.7-.2 5.8-.7 1.1-.2 1.3-1.3 1-2.4s-.8-1.8-1.9-1.6c-10.1 2.2-14.9-2.3-20-7.1-3.9-3.7-8-7.6-14.5-8-6-.4-10.1 1.7-12.4 3.4v-3.6c0-.5-.4-.9-.8-1-.5-.1-.9.2-1.1.6l-2.6 8.3c-.2.7.3 1.3.9 1.4l8.6 1.3c.4.1.9-.2 1-.7z"/><path d="m9 14.6c10.3-5.1 16-.3 22 4.7 4.5 3.8 9.2 7.8 15.6 6.2 3.4-.8 5.9-3.1 7.4-5l1 3.5c.2.5.6.8 1.1.7.5 0 .9-.4.8-.9v-8.7c0-.6-.6-1.1-1.2-1l-8.6 1.4c-.5.1-.8.5-.8 1s.4.9.9 1l3.5.5c-1.1 1.4-2.9 3.1-5.3 3.7-4.4 1.1-8-1.9-12.1-5.4-5.9-5.1-13.4-11.5-26.1-5.3-1 .5-1 1.5-.5 2.4.5 1 1.3 1.7 2.3 1.2z"/><path d="m55.6 48.5c-10.6 1.9-15.7-1.5-20.5-4.7-3.3-2.2-6.7-4.5-11.5-4.4-7 .1-11.6 5.1-13.6 7.9l-1-3.3c-.2-.5-.6-.8-1.1-.7-.5 0-.8.4-.8.9v8.7c0 .6.6 1.1 1.2 1l8.6-1.4c.5-.1.8-.5.8-1s-.4-.9-.9-1l-3.7-.5c1.4-2.1 5-6.5 10.6-6.6 3.6 0 6 1.6 9.2 3.8 4 2.7 8.8 5.9 17 5.9 1.9 0 4.1-.2 6.4-.6 1.1-.2 1.1-1.3.9-2.3-.2-1.2-.5-1.9-1.6-1.7z"/></svg>