<?xml version="1.0" encoding="utf-8"?>
<!-- Generator: Adobe Illustrator 24.1.3, SVG Export Plug-In . SVG Version: 6.00 Build 0)  -->
<svg version="1.1" xmlns="http://www.w3.org/2000/svg" xmlns:xlink="http://www.w3.org/1999/xlink" x="0px" y="0px"
	 viewBox="0 0 64 64" style="enable-background:new 0 0 64 64;" xml:space="preserve">
<style type="text/css">
	.st0{fill:none;}
	.st1{fill:#FF1D25;}
	.st2{fill:#1D1D1B;}
</style>
<g id="Box">
	<rect class="st0" width="64" height="64"/>
</g>
<g id="Icon">
	<path d="M51.28,45H34c-1.1,0-2-0.9-2-2V29.39l8.2,4.7c1.4,0.8,3.16,0.49,4.21-0.73c1.05-1.22,1.09-3.01,0.09-4.27L29.64,10.28
		C29,9.47,28.03,9,27,9s-2,0.47-2.64,1.28L9.5,29.1c-1,1.26-0.96,3.05,0.09,4.27c1.05,1.22,2.81,1.52,4.21,0.73l8.2-4.7V43
		c0,6.63,5.37,12,12,12h17.28c2.72,0,3.53-2.35,3.53-5C54.8,47.35,53.99,45,51.28,45z"/>
</g>
</svg>
