<?xml version="1.0" encoding="utf-8"?>
<!-- Generator: Adobe Illustrator 19.1.0, SVG Export Plug-In . SVG Version: 6.00 Build 0)  -->
<svg version="1.2" baseProfile="tiny" xmlns="http://www.w3.org/2000/svg" xmlns:xlink="http://www.w3.org/1999/xlink" x="0px"
	 y="0px" width="64px" height="64px" viewBox="0 0 64 64" xml:space="preserve">
<g id="Box">
	<rect fill="none" width="64" height="64"/>
</g>
<g id="Icon">
	<g>
		<path d="M8,48V16h40v12.8042c0.3412-0.0024,0.6808-0.0044,1-0.0044c1.205,0,2.5857,0.0149,4,0.06V13c0-1.1046-0.8954-2-2-2H5
			c-1.1046,0-2,0.8954-2,2v38c0,1.1046,0.8954,2,2,2h28.0852c-0.1383-1.6056-0.2134-3.3466-0.2509-5H8z"/>
		<path d="M61.435,34.826c-0.1949-1.1729-1.0873-2.0652-2.2607-2.2607C55.7829,32,50.1301,32,49.0001,32s-6.7828,0-10.1743,0.5654
			c-1.1734,0.1955-2.0657,1.0878-2.2607,2.2607C36,38.2173,36,43.8697,36,45c0,1.1304,0,6.7827,0.5651,10.174
			c0.195,1.1728,1.0873,2.0651,2.2607,2.2607C42.2172,58,47.87,58,49.0001,58s6.7828,0,10.1742-0.5653
			c1.1735-0.1956,2.0658-1.0879,2.2607-2.2607C62,51.7827,62,46.1304,62,45C62,41.607,62,38.2173,61.435,34.826z M57,46.5
			c0,0.2761-0.2239,0.5-0.5,0.5H51v5.5c0,0.2761-0.2239,0.5-0.5,0.5h-3c-0.2761,0-0.5-0.2239-0.5-0.5V47h-5.5
			c-0.2761,0-0.5-0.2239-0.5-0.5v-3c0-0.2761,0.2239-0.5,0.5-0.5H47v-5.5c0-0.2761,0.2239-0.5,0.5-0.5h3
			c0.2761,0,0.5,0.2239,0.5,0.5V43h5.5c0.2761,0,0.5,0.2239,0.5,0.5V46.5z"/>
		<rect x="25" y="35" width="6" height="6"/>
		<polygon points="15.3983,29.2034 17,27.6017 18.6017,29.2034 20.2034,27.6017 18.6017,26 20.2034,24.3983 18.6017,22.7966 
			17,24.3983 15.3983,22.7966 13.7966,24.3983 15.3983,26 13.7966,27.6017 		"/>
		
			<rect x="25.2943" y="23.2943" transform="matrix(0.7071 -0.7071 0.7071 0.7071 -10.1838 27.4142)" width="5.4114" height="5.4114"/>
		<circle cx="39" cy="26" r="3"/>
		<polygon points="20.7145,41 17,34.4375 13.2855,41 		"/>
	</g>
</g>
</svg>
