<svg height="64" viewBox="0 0 64 64" width="64" xmlns="http://www.w3.org/2000/svg"><path d="m0 0h64v64h-64z" fill="none"/><path d="m8 48v-32h40v12.8042c.3412-.0024.6808-.0044 1-.0044 1.205 0 2.5857.0149 4 .06v-15.8598c0-1.1046-.8954-2-2-2h-46c-1.1046 0-2 .8954-2 2v38c0 1.1046.8954 2 2 2h28.0852c-.1383-1.6056-.2134-3.3466-.2509-5z"/><path d="m61.435 34.826c-.1949-1.1729-1.0873-2.0652-2.2607-2.2607-3.3914-.5653-9.0442-.5653-10.1742-.5653s-6.7828 0-10.1743.5654c-1.1734.1955-2.0657 1.0878-2.2607 2.2607-.5651 3.3912-.5651 9.0436-.5651 10.1739 0 1.1304 0 6.7827.5651 10.174.195 1.1728 1.0873 2.0651 2.2607 2.2607 3.3914.5653 9.0442.5653 10.1743.5653s6.7828 0 10.1742-.5653c1.1735-.1956 2.0658-1.0879 2.2607-2.2607.565-3.3913.565-9.0436.565-10.174 0-3.393 0-6.7827-.565-10.174zm-4.435 11.674c0 .2761-.2239.5-.5.5h-5.5v5.5c0 .2761-.2239.5-.5.5h-3c-.2761 0-.5-.2239-.5-.5v-5.5h-5.5c-.2761 0-.5-.2239-.5-.5v-3c0-.2761.2239-.5.5-.5h5.5v-5.5c0-.2761.2239-.5.5-.5h3c.2761 0 .5.2239.5.5v5.5h5.5c.2761 0 .5.2239.5.5z"/><path d="m25 35h6v6h-6z"/><path d="m15.3983 29.2034 1.6017-1.6017 1.6017 1.6017 1.6017-1.6017-1.6017-1.6017 1.6017-1.6017-1.6017-1.6017-1.6017 1.6017-1.6017-1.6017-1.6017 1.6017 1.6017 1.6017-1.6017 1.6017z"/><path d="m25.2943 23.2943h5.4114v5.4114h-5.4114z" transform="matrix(.7071 -.7071 .7071 .7071 -10.1838 27.4142)"/><circle cx="39" cy="26" r="3"/><path d="m20.7145 41-3.7145-6.5625-3.7145 6.5625z"/></svg>