<svg height="64" viewBox="0 0 64 64" width="64" xmlns="http://www.w3.org/2000/svg"><path d="m0 0h64v64h-64z" fill="none"/><path d="m32.5618 22.5875-.4432-6.201c-.0497-.4399-.3564-.7608-.7945-.7608s-.7614.285-.7936.7608l-.5305 7.2993c0 .6835.5226 1.2455 1.1896 1.3135.0396.0225 7.0242-.4986 7.0242-.4986.459-.0445.7945-.2382.7945-.6763 0-.4376-.3059-.6426-.7945-.6757-.0005 0 .0192 0 .0192 0z"/><path d="m52.23 44.7586c-2.7688.9518-6.3675 2.413-9.2219 3.6127.0737.4328.0837.8923.012 1.3787-.4146 2.8079-2.82 4.5833-6.2402 4.7416-7.7328.3578-12.5348-1.5577-13.5314-1.9618-.2863-.1161-.3181-.2576-.2924-.3882.0014-.0012.0112-.0091.0112-.0091 5.5945.9645 9.1205 1.1222 13.4634.4237 3.2949-.53 4.489-2.106 4.4611-3.4058-.0269-1.2701-.9266-2.0373-2.9519-2.1077-6.8901-.2395-10.9187-1.0081-16.8242-1.8688-4.1041-.5981-8.0616.4671-11.4326 2.6266-3.1633 2.0266-4.0403 2.9852-4.0403 2.9852l5.7858 11.1429 7.4819-3.0415c.8527-.3466 1.7843-.4511 2.6926-.3021l10.2607 2.283c2.2893.3757 4.6379-.0563 6.6438-1.2219l20.4795-12.8461s-1.0043-4.019-6.7571-2.0414z"/><path d="m12.1594 24.4662 2.7761-1.1641s.1467-1.6439 1.0098-3.1976c.1802-.3245.3345-.2191.3345-.2191l.0221.0172c-.9979 5.0546.4501 10.494 4.3676 14.4114 6.2484 6.2484 16.379 6.2483 22.6274 0 6.2484-6.2484 6.2484-16.3791 0-22.6274-5.2472-5.2473-13.2379-6.0934-19.3529-2.5124-.9084.5319-2.1917 1.4075-.7355 3.4213 1.1386 1.5745 1.8067 1.48 2.7865.9915.2527-.1261.6469-.3306.9305-.476 4.173-2.1406 9.4183-1.462 12.9137 2.0334 4.3387 4.3387 4.3387 11.3732 0 15.7119s-11.3732 4.3387-15.7119 0c-2.0343-2.0344-3.1047-4.6602-3.228-7.3231l3.3143 2.4539c.5986.4432 1.4194.4061 1.9574-.0886.5387-.4947.6431-1.3089.2496-1.9404l-5.8682-9.4334c-.2514-.4044-.6719-.6746-1.1411-.7338-.4692-.0593-.9356.0991-1.2657.4301l-7.7053 7.7208c-.2502.2504-.3956.5716-.4313.9062-.0381.3558.0478.7272.2641 1.0445.4189.6155 1.2098.856 1.8863.5737z"/></svg>