<svg enable-background="new 0 0 64 64" viewBox="0 0 64 64" xmlns="http://www.w3.org/2000/svg"><path d="m0 0h64v64h-64z" fill="none"/><path d="m32 8c-13.255 0-24 10.745-24 24s10.745 24 24 24 24-10.745 24-24-10.745-24-24-24zm-11.24 22c0-1.789 1.451-3.24 3.24-3.24 1.79 0 3.24 1.451 3.24 3.24s-1.45 3.24-3.24 3.24c-1.789 0-3.24-1.451-3.24-3.24zm17.895 12.698c-.66 1.502-2.432 4.188-6.655 4.188s-5.994-2.686-6.655-4.188c-.171-.388.189-.796.595-.677 1.185.348 3.393.864 6.059.864s4.874-.516 6.059-.864c.408-.119.767.289.597.677zm1.345-9.458c-1.789 0-3.24-1.451-3.24-3.24s1.451-3.24 3.24-3.24c1.79 0 3.24 1.451 3.24 3.24s-1.45 3.24-3.24 3.24z"/></svg>