<?xml version="1.0" encoding="utf-8"?>
<!-- Generator: Adobe Illustrator 24.0.1, SVG Export Plug-In . SVG Version: 6.00 Build 0)  -->
<svg version="1.1" xmlns="http://www.w3.org/2000/svg" xmlns:xlink="http://www.w3.org/1999/xlink" x="0px" y="0px"
	 viewBox="0 0 64 64" style="enable-background:new 0 0 64 64;" xml:space="preserve">
<style type="text/css">
	.st0{fill:none;}
	.st1{fill:#FF1D25;}
	.st2{fill:#1D1D1B;}
</style>
<g id="Box">
	<rect class="st0" width="64" height="64"/>
</g>
<g id="Icon">
	<g>
		<path d="M20.1,30.9L11.5,24c-1.3-1-3.1,0.5-2.3,2l1.7,3H3v6h7.9l-1.8,3.1c-0.8,1.5,1,3,2.3,2l8.7-6.8
			C20.9,32.7,20.9,31.5,20.1,30.9z"/>
		<path d="M49.2,59.2c-0.7-1.8-2.1-4.3-3.8-8.7c-0.3-0.7-0.6-1.3-0.7-1.5c-0.4-0.8-1.1-1.4-2.2-2.5c-0.4-0.5-0.9-0.9-1.3-1.3
			c-1,2.5-1.7,4.1-2.3,5.1c-0.7,1.3-0.8,1.4-1.4,2.3c-1.6,2.4-4.3,5.8-6.2,8.3h19.3C50,60.6,49.5,60,49.2,59.2z"/>
		<path d="M23,3v58h6.8c-0.6-1.1-1.2-2.9,0-5.1c1.2-2,2.5-3.9,3.6-5.7c0.5-0.9,0.3-0.5,0.9-1.9c0.7-1.7,1.4-4.6,1.9-6.4
			c0,0,1.9,1.1,3.3,1.9c0.3,0.2,0.4,0,0.4,0l-3.3-3.4c-0.8-0.9-2.1-1.9-2.1-4c0-1.6,1.6-8.8,2.1-10.9c-0.7,0.5-2.5,1.6-2.9,2.4
			c-0.9,1.9-1.6,6.3-2,9.3c-1.8-0.4-2.7-2-2.7-3.7c0-1.6,0.2-3.3,0.5-4.9c0.4-2.4,0.8-3.1,1.8-4.2c1.7-1.8,4.9-4.2,6.7-5.3
			c3.2-1.9,8.5,0.6,9.2,2.3c0.2,0.3,1.5,5.7,1.6,6.2c0.3,1,0.6,2.1,1,2.9c0.3,0.6,1.3,1.9,1.8,2.4c0.6,0.7,2.6,3,3.4,4.1
			c-0.5,0.2-2.8,1.2-4.9-1c-0.9-0.9-2.9-2.7-3.5-3.9c-0.5-1-0.8-1.9-1.1-2.8c-0.7,2.8-1.4,6-1.9,8.5c1.2,1.5,2.4,3.1,3.6,4.6
			c0.6,0.8,1.1,1.5,1.7,2.5c0.5,0.8,0.6,0.9,1.4,3.3c1,3.1,2.8,9.2,3.7,12.8h5V3H23z M48.9,13.3c-0.4,2.6-2.2,4.2-4.9,3.8
			c-2.6-0.4-3.9-2.3-3.4-5.1c0.4-2.7,2.2-4.4,4.9-3.9C48.1,8.4,49.4,10.3,48.9,13.3z"/>
	</g>
</g>
</svg>
