<svg enable-background="new 0 0 64 64" viewBox="0 0 64 64" xmlns="http://www.w3.org/2000/svg"><path d="m0 0h64v64h-64z" fill="none"/><path d="m20.1 30.9-8.6-6.9c-1.3-1-3.1.5-2.3 2l1.7 3h-7.9v6h7.9l-1.8 3.1c-.8 1.5 1 3 2.3 2l8.7-6.8c.8-.6.8-1.8 0-2.4z"/><path d="m49.2 59.2c-.7-1.8-2.1-4.3-3.8-8.7-.3-.7-.6-1.3-.7-1.5-.4-.8-1.1-1.4-2.2-2.5-.4-.5-.9-.9-1.3-1.3-1 2.5-1.7 4.1-2.3 5.1-.7 1.3-.8 1.4-1.4 2.3-1.6 2.4-4.3 5.8-6.2 8.3h19.3c-.6-.3-1.1-.9-1.4-1.7z"/><path d="m23 3v58h6.8c-.6-1.1-1.2-2.9 0-5.1 1.2-2 2.5-3.9 3.6-5.7.5-.9.3-.5.9-1.9.7-1.7 1.4-4.6 1.9-6.4 0 0 1.9 1.1 3.3 1.9.3.2.4 0 .4 0l-3.3-3.4c-.8-.9-2.1-1.9-2.1-4 0-1.6 1.6-8.8 2.1-10.9-.7.5-2.5 1.6-2.9 2.4-.9 1.9-1.6 6.3-2 9.3-1.8-.4-2.7-2-2.7-3.7 0-1.6.2-3.3.5-4.9.4-2.4.8-3.1 1.8-4.2 1.7-1.8 4.9-4.2 6.7-5.3 3.2-1.9 8.5.6 9.2 2.3.2.3 1.5 5.7 1.6 6.2.3 1 .6 2.1 1 2.9.3.6 1.3 1.9 1.8 2.4.6.7 2.6 3 3.4 4.1-.5.2-2.8 1.2-4.9-1-.9-.9-2.9-2.7-3.5-3.9-.5-1-.8-1.9-1.1-2.8-.7 2.8-1.4 6-1.9 8.5 1.2 1.5 2.4 3.1 3.6 4.6.6.8 1.1 1.5 1.7 2.5.5.8.6.9 1.4 3.3 1 3.1 2.8 9.2 3.7 12.8h5v-58zm25.9 10.3c-.4 2.6-2.2 4.2-4.9 3.8-2.6-.4-3.9-2.3-3.4-5.1.4-2.7 2.2-4.4 4.9-3.9 2.6.3 3.9 2.2 3.4 5.2z"/></svg>