<svg height="64" viewBox="0 0 64 64" width="64" xmlns="http://www.w3.org/2000/svg"><path d="m0 0h64v64h-64z" fill="none"/><path d="m52.23 44.7586c-2.7688.9518-6.3674 2.413-9.2219 3.6127.0737.4328.0837.8923.012 1.3787-.4146 2.8079-2.8201 4.5833-6.2402 4.7416-7.7328.3578-12.5348-1.5577-13.5314-1.9618-.2863-.1161-.318-.2576-.2924-.3882.0015-.0012.0112-.0091.0112-.0091 5.5945.9645 9.1205 1.1222 13.4634.4237 3.2949-.53 4.489-2.106 4.4612-3.4058-.027-1.2701-.9266-2.0373-2.9519-2.1077-6.8901-.2395-10.9187-1.0081-16.8242-1.8688-4.1041-.5981-8.0618.4671-11.4326 2.6266-3.1633 2.0265-4.0403 2.9852-4.0403 2.9852l5.7858 11.1429 7.4819-3.0415c.8527-.3466 1.7843-.4511 2.6925-.3021l10.2607 2.283c2.2893.3757 4.6379-.0563 6.6438-1.2219l20.4795-12.8461s-1.0043-4.019-6.7571-2.0414z"/><path d="m27.9081 38.4611c1.0184.2662 2.545.5545 2.9393-1.8992.3082-1.9185-.231-2.324-1.2692-2.6713-.2679-.0896-.6912-.2238-.9945-.3214-4.4645-1.4371-7.6937-5.626-7.6937-10.5692 0-6.1359 4.9741-11.11 11.11-11.11s11.11 4.9741 11.11 11.11c0 2.877-1.0999 5.4906-2.8956 7.4607l-.6084-4.0787c-.1099-.7368-.7166-1.2909-1.4467-1.3215-.7307-.0311-1.3803.4708-1.5485 1.1956l-2.521 10.8199c-.1082.4637-.0019.9521.288 1.3257.2899.3737.7316.5915 1.1991.5909l10.9079-.011c.354-.0001.6839-.1245.9458-.3358.2785-.2246.4804-.548.5518-.9253.1388-.7315-.2504-1.4609-.9284-1.7396l-2.7861-1.1398s-1.2661 1.0588-2.975 1.547c-.357.1021-.3914-.0816-.3914-.0816l-.0035-.0277c4.2796-2.8686 7.102-7.7388 7.102-13.2788 0-8.8365-7.1635-16-16-16s-16 7.1635-16 16c0 7.4207 5.052 13.6693 11.9081 15.4611z"/></svg>