<svg height="64" viewBox="0 0 64 64" width="64" xmlns="http://www.w3.org/2000/svg"><path d="m0 0h64v64h-64z" fill="none"/><path d="m55.3027 23.8063c-4.5789-1.0363-10.0699-1.9175-15.1785-2.5069-2.2784-4.6711-4.3363-8.8753-6.4501-13.2156-.3506-.7197-.9643-1.0837-1.6741-1.0838-.7098.0001-1.3235.3641-1.6741 1.0838-2.1138 4.3403-4.1716 8.5445-6.4501 13.2156-5.1085.5894-10.5996 1.4706-15.1785 2.5069-1.5566.3684-2.1223 2.47-1.0761 3.635 3.1405 3.4668 6.8913 7.4299 10.6833 11.2402-1.1391 5.3517-2.2296 10.4612-3.2194 15.0917-.2561 1.5672 1.5498 2.6852 3.0585 1.9794 4.5688-2.0542 9.5285-4.3622 13.8563-7.2303 4.3278 2.8681 9.2875 5.1761 13.8563 7.2303 1.5087.7059 3.3146-.4122 3.0585-1.9794-.9899-4.6305-2.0803-9.74-3.2194-15.0917 3.7921-3.8103 7.5429-7.7734 10.6833-11.2402 1.0464-1.165.4807-3.2666-1.0759-3.635z"/></svg>