<?xml version="1.0" encoding="utf-8"?>
<!-- Generator: Adobe Illustrator 19.1.0, SVG Export Plug-In . SVG Version: 6.00 Build 0)  -->
<svg version="1.2" baseProfile="tiny" xmlns="http://www.w3.org/2000/svg" xmlns:xlink="http://www.w3.org/1999/xlink" x="0px"
	 y="0px" width="64px" height="64px" viewBox="0 0 64 64" xml:space="preserve">
<g id="Box">
	<rect fill="none" width="64" height="64"/>
</g>
<g id="Icon">
	<path d="M55.3027,23.8063c-4.5789-1.0363-10.0699-1.9175-15.1785-2.5069c-2.2784-4.6711-4.3363-8.8753-6.4501-13.2156
		C33.3235,7.3641,32.7098,7.0001,32,7c-0.7098,0.0001-1.3235,0.3641-1.6741,1.0838c-2.1138,4.3403-4.1716,8.5445-6.4501,13.2156
		c-5.1085,0.5894-10.5996,1.4706-15.1785,2.5069c-1.5566,0.3684-2.1223,2.47-1.0761,3.635
		c3.1405,3.4668,6.8913,7.4299,10.6833,11.2402c-1.1391,5.3517-2.2296,10.4612-3.2194,15.0917
		c-0.2561,1.5672,1.5498,2.6852,3.0585,1.9794c4.5688-2.0542,9.5285-4.3622,13.8563-7.2303
		c4.3278,2.8681,9.2875,5.1761,13.8563,7.2303c1.5087,0.7059,3.3146-0.4122,3.0585-1.9794
		c-0.9899-4.6305-2.0803-9.74-3.2194-15.0917c3.7921-3.8103,7.5429-7.7734,10.6833-11.2402
		C57.425,26.2763,56.8593,24.1747,55.3027,23.8063z"/>
</g>
</svg>
