<svg height="64" viewBox="0 0 64 64" width="64" xmlns="http://www.w3.org/2000/svg"><path d="m0 0h64v64h-64z" fill="none"/><path d="m56.9167 12.9498c-.4363-.5455-1.0972-.8629-1.7949-.8622l-15.697.0034c-1.1199-.0008-2.0767.8066-2.2649 1.9112-.1863 1.1027.4456 2.1829 1.5038 2.5533l5.6575 1.9879-8.5238 7.9792c-2.3699 2.2192-3.7294 5.3544-3.7294 8.6011v20.5716c0 1.9097 1.5474 2.3047 3.4571 2.3047s3.457-.395 3.457-2.3047v-20.5716c0-1.3414.5615-2.6367 1.5406-3.5539l8.16-7.6386.7051 6.033c.131 1.114 1.0449 1.9666 2.1604 2.0282 1.1189.0591 2.1167-.6967 2.3621-1.7896l3.4529-15.3123c.1544-.6808-.0102-1.3952-.4465-1.9407z"/><path d="m20.6581 6.754c-.4211-.5566-1.0734-.8912-1.7719-.9092-.6982-.018-1.3667.2828-1.8159.8168l-10.1135 12.0047c-.7224.8558-.7216 2.1077.0017 2.9635.7231.8531 1.9563 1.0662 2.9214.4957l5.1661-3.0447.024 36.6146c0 1.9097 1.5474 2.3047 3.4572 2.3047s3.4572-.395 3.4572-2.3047l-.0078-36.4774 5.0676 3.3489c.9362.6178 2.177.4684 2.9431-.3448.7662-.8174.8313-2.0675.1538-2.9594z"/></svg>