<?xml version="1.0" encoding="utf-8"?>
<!-- Generator: Adobe Illustrator 25.2.0, SVG Export Plug-In . SVG Version: 6.00 Build 0)  -->
<svg version="1.1" xmlns="http://www.w3.org/2000/svg" xmlns:xlink="http://www.w3.org/1999/xlink" x="0px" y="0px"
	 viewBox="0 0 64 64" style="enable-background:new 0 0 64 64;" xml:space="preserve">
<style type="text/css">
	.st0{fill:none;}
	.st1{fill:#B3B3B3;}
</style>
<g id="Label">
</g>
<g id="Box">
	<rect class="st0" width="64" height="64"/>
</g>
<g id="Icon">
	<g>
		<g>
			<path d="M56,32C56,18.745,45.255,8,32,8S8,18.745,8,32c0,13.255,10.745,24,24,24c1.843,0,3.634-0.213,5.358-0.607
				c1.431,1.217,3.225,1.885,5.124,1.885c2.118,0,4.109-0.825,5.606-2.322c1.952-1.952,2.693-4.719,2.111-7.323
				C53.811,43.432,56,37.974,56,32z M40,26.76c1.79,0,3.24,1.451,3.24,3.24c0,1.789-1.45,3.24-3.24,3.24
				c-1.789,0-3.24-1.451-3.24-3.24C36.76,28.211,38.211,26.76,40,26.76z M20.76,30c0-1.789,1.451-3.24,3.24-3.24
				c1.79,0,3.24,1.451,3.24,3.24c0,1.789-1.45,3.24-3.24,3.24C22.211,33.24,20.76,31.789,20.76,30z M36.825,42.957
				c-1.421-0.673-3.052-1.154-4.825-1.154c-3.879,0-7.1,2.291-8.868,3.881c-0.399,0.359-1.011-0.063-0.803-0.558
				c1.085-2.575,3.742-6.663,9.671-6.663c2.638,0,4.62,0.815,6.112,1.941L36.825,42.957z M45.967,52.834
				c-0.931,0.931-2.169,1.443-3.485,1.443s-2.554-0.513-3.485-1.443c-1.507-1.507-1.876-3.799-0.916-5.703l4.401-8.734l4.401,8.734
				C47.843,49.035,47.475,51.327,45.967,52.834z"/>
		</g>
	</g>
</g>
</svg>
