<svg enable-background="new 0 0 64 64" viewBox="0 0 64 64" xmlns="http://www.w3.org/2000/svg"><path d="m0 0h64v64h-64z" fill="none"/><path d="m56 32c0-13.255-10.745-24-24-24s-24 10.745-24 24 10.745 24 24 24c1.843 0 3.634-.213 5.358-.607 1.431 1.217 3.225 1.885 5.124 1.885 2.118 0 4.109-.825 5.606-2.322 1.952-1.952 2.693-4.719 2.111-7.323 3.612-4.201 5.801-9.659 5.801-15.633zm-16-5.24c1.79 0 3.24 1.451 3.24 3.24s-1.45 3.24-3.24 3.24c-1.789 0-3.24-1.451-3.24-3.24s1.451-3.24 3.24-3.24zm-19.24 3.24c0-1.789 1.451-3.24 3.24-3.24 1.79 0 3.24 1.451 3.24 3.24s-1.45 3.24-3.24 3.24c-1.789 0-3.24-1.451-3.24-3.24zm16.065 12.957c-1.421-.673-3.052-1.154-4.825-1.154-3.879 0-7.1 2.291-8.868 3.881-.399.359-1.011-.063-.803-.558 1.085-2.575 3.742-6.663 9.671-6.663 2.638 0 4.62.815 6.112 1.941zm9.142 9.877c-.931.931-2.169 1.443-3.485 1.443s-2.554-.513-3.485-1.443c-1.507-1.507-1.876-3.799-.916-5.703l4.401-8.734 4.401 8.734c.96 1.904.592 4.196-.916 5.703z"/></svg>