<svg height="64" viewBox="0 0 64 64" width="64" xmlns="http://www.w3.org/2000/svg"><path d="m0 0h64v64h-64z" fill="none"/><path d="m29.9653 58.4189-16.7832-5.0949-5.6821 1.676 22.4 6.8 26.2-9.6-5.3621-1.3921z"/><path d="m29.9653 52.7197-16.7835-5.0956-5.6818 1.6759 22.4 6.8 26.2-9.6-5.3617-1.392z"/><path d="m29.9653 47.0195-16.7841-5.0952-5.6812 1.6757 22.4 6.8 26.2-9.6-5.3621-1.3921z"/><path d="m56.1 35.1-16.4779-4.2779-3.7471 4.7463c-.9302 1.1807-2.3271 1.8574-3.8315 1.8574-1.5049 0-2.9019-.6768-3.833-1.8584l-2.4182-3.0629-18.2923 5.3955 22.4 6.8z"/><path d="m29.9753 34.1761c.4998.6333 1.2616 1.0023 2.0679 1.0023.8064 0 1.5682-.369 2.0679-1.0023l11.6621-14.7719c.3788-.4791.5667-1.0562.5667-1.6324 0-.6127-.213-1.2255-.6375-1.7182-.8223-.9559-2.207-1.1951-3.3027-.5702l-4.6057 2.627s-1.4379 5.4059-1.563 5.8695c-.0999.3701-.3003.2501-.3003.2501v-18.4884c0-2.113-1.8257-2.7424-3.8862-2.7416-2.0623-.0008-3.8885.6294-3.8885 2.7416v13.4316l-6.4691-3.6898c-1.0957-.6249-2.4805-.3857-3.3027.5702-.8235.9559-.8527 2.362-.0707 3.3506z"/></svg>