<svg enable-background="new 0 0 64 64" viewBox="0 0 64 64" xmlns="http://www.w3.org/2000/svg"><path d="m0 0h64v64h-64z" fill="none"/><path d="m62.17 19.89c-.84-2.03-3.17-2.99-5.19-2.15-1.36.56-2.23 1.8-2.41 3.17-.03.01-.07.01-.1.02l-8.24 3.45c-1.45-2.74-3.6-4.9-6.14-6.38l1.49-3.55-1.58-.81c-.37-.24-.23-.49-.19-.55.05.01.94.48 2.13.33h.05v-.01c1.37-.18 2.6-1.04 3.17-2.41.84-2.03-.12-4.36-2.15-5.2s-4.35.12-5.19 2.15c-.56 1.36-.3 2.85.54 3.94-.02.03-.04.05-.06.09l-1.86 4.43c-2.84-.83-5.92-.89-8.91-.06l-2.93-6.99-1.7.55c-.43.09-.51-.18-.52-.26.04-.03 1-.33 1.74-1.27.01-.01.02-.03.03-.04 0 0-.01-.01-.01-.01.84-1.09 1.11-2.58.54-3.94-.84-2.03-3.17-2.99-5.19-2.15-2.03.84-2.99 3.17-2.15 5.19.56 1.36 1.8 2.23 3.17 2.41.01.03.01.07.02.1l3.33 7.95c-2.76 1.57-4.92 3.87-6.33 6.55l-4.07-1.63-.77 1.6c-.23.37-.48.25-.55.2.01-.05.45-.95.28-2.14 0-.01 0-.03-.01-.05h-.01c-.21-1.36-1.11-2.58-2.49-3.11-2.05-.79-4.35.24-5.14 2.29s.24 4.35 2.29 5.14c1.38.53 2.86.23 3.93-.64.03.02.05.04.09.06l5.06 2.01c-.67 2.74-.64 5.67.23 8.52l-7.41 3.05.55 1.69c.09.43-.18.51-.26.52-.03-.04-.33-1-1.27-1.74-.01-.01-.03-.02-.04-.03 0 0-.01.01-.01.01-1.09-.84-2.58-1.11-3.94-.54-2.03.84-2.99 3.17-2.15 5.19.84 2.03 3.17 2.99 5.19 2.15 1.36-.56 2.23-1.8 2.41-3.17.03-.01.07-.01.1-.02l8.46-3.49c1.49 2.49 3.59 4.53 6.15 5.91l-1.71 4.08 1.58.81c.37.24.23.49.19.55-.05-.01-.94-.48-2.13-.33-.01 0-.03 0-.05 0v.01c-1.37.18-2.6 1.04-3.17 2.41-.84 2.03.12 4.35 2.15 5.19s4.35-.12 5.19-2.15c.56-1.36.3-2.85-.54-3.94.02-.03.04-.05.06-.09l2.13-5.1c1.33.35 2.68.54 4.04.54 1.44 0 2.88-.21 4.29-.6l3.13 7.66 1.69-.55c.43-.09.51.18.52.26-.04.03-1 .33-1.74 1.27-.01.01-.02.03-.03.04 0 0 .01.01.01.01-.84 1.09-1.11 2.58-.54 3.94.84 2.03 3.17 2.99 5.19 2.15 2.03-.84 2.99-3.17 2.15-5.19-.56-1.36-1.8-2.23-3.17-2.41-.01-.03-.01-.07-.02-.1l-3.52-8.59c2.45-1.38 4.47-3.35 5.91-5.75l4.27 1.69.77-1.6c.23-.37.48-.25.55-.2-.01.05-.45.95-.28 2.14 0 .01 0 .03.01.05h.01c.21 1.36 1.11 2.58 2.49 3.11 2.05.79 4.35-.24 5.14-2.29s-.24-4.35-2.29-5.14c-1.38-.53-2.86-.23-3.93.64-.03-.02-.05-.04-.09-.06l-5.02-1.98c.87-2.82.93-5.78.22-8.62l7.41-3.11-.55-1.69c-.09-.43.18-.51.26-.52.03.04.33 1 1.27 1.74.01.01.03.02.04.03 0 0 .01-.01.01-.01 1.09.84 2.58 1.11 3.94.54 2.05-.82 3.02-3.15 2.18-5.17zm-20.83 15.99c-1.04 2.52-3.01 4.49-5.53 5.53s-5.3 1.05-7.83 0c-2.52-1.04-4.49-3.01-5.53-5.54-2.16-5.21.33-11.2 5.53-13.36 1.28-.53 2.6-.78 3.9-.78 4.01 0 7.83 2.38 9.46 6.31 1.05 2.54 1.05 5.32 0 7.84z"/></svg>