<?xml version="1.0" encoding="utf-8"?>
<!-- Generator: Adobe Illustrator 21.0.2, SVG Export Plug-In . SVG Version: 6.00 Build 0)  -->
<svg version="1.2" baseProfile="tiny" xmlns="http://www.w3.org/2000/svg" xmlns:xlink="http://www.w3.org/1999/xlink" x="0px"
	 y="0px" width="64px" height="64px" viewBox="0 0 64 64" xml:space="preserve">
<g id="_x36_4px_Box">
	<rect fill="none" width="64" height="64"/>
</g>
<g id="Icon">
	<g>
		<path d="M38.8,27.9c-2.6,1-4.1,0.8-6.2,2c-2.2,1.2-2.8,5-2.8,5c3.2-1.9,4.5-1,6.8-2.6c1.7-1.2,2.4-3,2.7-4
			C39.3,28.1,39,27.8,38.8,27.9z M40.8,21.8c-1.3,0-4.7,0.3-6.8,1.9c-2.7,2-3.4,5.8-3.4,5.8c2-2.1,4.8-1.7,7.2-3.1
			c1.8-1,2.9-3.1,3.3-4C41.3,22.1,41.1,21.8,40.8,21.8z M44,10c0.1-0.2,0-0.4-0.2-0.5c-0.8-0.2-2.7-0.7-4.5,0.2
			c-3.7,1.8-5,6.2-5,6.2c2.5-1.5,4.6-1.5,6.9-2.4C42.9,12.9,43.7,10.9,44,10z M35.7,10.8c0.9-1.6,3.5-2.9,4.3-4.6
			c0.7-1.5-0.6-3.7-1.6-5.1C38.2,1,38,1,37.9,1c-1.5,0.8-2.7,1.7-3.2,3C33.9,6,36,7.2,35.7,10.8z M44.4,36.9
			c-4.6,7.1-13.1,7-15.8,16.5c0-0.8-0.1-1.5-0.1-2.3c-0.1-3.2-0.2-6.6,0.2-8.7c1.6,0.2,3.3,0,4.9-1c2.4-1.4,4-5.2,4.5-6.7
			c0.1-0.3-0.1-0.5-0.4-0.5c-4.8,0.4-7.7,2.3-9.5,4.2c-0.3-1.9-1-3-2.8-5.6c-1.3-1.8-2.9-3.4-3.6-4.2c-0.2-0.2-0.6-0.1-0.6,0.2
			c-0.4,1.7-0.5,4.7,0.1,6.9c0.7,2.5,2.5,4.5,4.6,5.7c-0.4,1.7-0.6,3.2-0.8,4.7c0.6,2,1.1,4.4,1,6.3c0,0.2-0.1,0.2-0.2,0.2
			c0-0.1-0.2-0.9-0.3-1.3c-1.8-7.6-8.4-10.2-9.4-21.2c-0.1-0.5-0.7-0.5-0.8,0c-1.1,4.8-2,9.2,0.4,15c1.9,4.6,6.9,6.6,9.4,10.3
			c0.1,2.8,0.1,5.4,0.3,7.6h4l-0.2-2.1c-0.9-8.3,5.7-8.1,9.9-12.5c4.1-4.4,5.4-6.5,6-11.2C45.3,36.7,44.7,36.5,44.4,36.9z
			 M42.5,15.4c-1.1-0.1-3.9-0.1-6.3,1.1c-3.1,1.6-3.6,6.5-3.6,6.5c2.4-2.1,5.2-1.8,7.2-3.2c1.5-1,2.6-3,3.1-3.9
			C43,15.7,42.8,15.4,42.5,15.4z M29.6,29.1c0,0,0.7-3.7-0.2-6.7c-0.9-3.1-3-5.4-3.8-6.2c-0.2-0.2-0.5-0.1-0.6,0.1
			c-0.8,1.5-0.8,4.4,1,6.3C27.5,24.3,29.1,25.8,29.6,29.1z M28.6,35c0,0,0.6-3.9-0.9-7.5c-1.2-2.7-3.4-4.4-4.3-5.1
			c-0.2-0.1-0.5,0-0.6,0.2c-0.4,1.7-0.5,3.5,0.6,5.2C25.1,30.2,27,31.6,28.6,35z M31.2,22.6c0,0,1.1-3.9,0.2-7.5
			c-0.7-2.6-2.4-4.7-3.1-5.5c-0.2-0.2-0.5-0.1-0.6,0.1c-0.7,1.7-0.9,3.7-0.4,5.2C27.9,17.1,30.1,18.7,31.2,22.6z M33,15.5
			c0.5-1.3,1.6-3.7,1.1-7c-0.4-2.6-2.5-4.8-3.4-5.5c-0.2-0.2-0.5-0.1-0.6,0.1c-0.8,1.8-1.2,3.8-0.3,5.7C30.7,10.8,32.4,12,33,15.5z"
			/>
	</g>
</g>
</svg>
