<?xml version="1.0" encoding="utf-8"?>
<!-- Generator: Adobe Illustrator 19.1.0, SVG Export Plug-In . SVG Version: 6.00 Build 0)  -->
<svg version="1.2" baseProfile="tiny" xmlns="http://www.w3.org/2000/svg" xmlns:xlink="http://www.w3.org/1999/xlink" x="0px"
	 y="0px" width="64px" height="64px" viewBox="0 0 64 64" xml:space="preserve">
<g id="_x36_4px_Box">
	<rect fill="none" width="64" height="64"/>
</g>
<g id="Icon">
	<g>
		<path d="M55.9927,8.2314c0.8955-1.5552,0.8932-3.6079,0.4416-5.8277C56.387,2.1715,56.1845,1.9986,55.9476,2
			c-2.3262,0.0136-5.7497,0.6351-6.7162,2.5541c-1.1288,2.2412-0.351,6.1304-1.2455,8.422
			C51.5675,9.5532,54.5734,10.6962,55.9927,8.2314z"/>
		<path d="M43.8659,18.8199c0,0,3.5975-5.1109,2.2767-10.5189c-0.6404-2.6224-2.7258-4.2769-3.6361-4.8909
			c-0.2359-0.1592-0.554-0.1006-0.7043,0.1411c-0.6172,0.9919-2.0071,3.6155-1.21,6.0536
			C41.6004,12.6889,43.3321,14.9055,43.8659,18.8199z"/>
		<path d="M37.8583,26.4531c0,0,4.7542-4.6326,3.7459-9.2587c-0.7769-3.5642-3.1533-6.4392-4.2034-7.5713
			c-0.2432-0.2621-0.6727-0.1874-0.8176,0.1395c-0.5599,1.2632-1.6632,4.1131-1.4401,6.523
			C35.4398,19.4883,37.9998,22.1395,37.8583,26.4531z"/>
		<path d="M32.6432,33.9346c0,0,3.4141-3.8335,3.2361-8.4004c-0.1397-3.5869-2.6782-7.2969-3.7612-8.7239
			c-0.2268-0.2988-0.6837-0.2522-0.8485,0.0848c-0.6288,1.2859-1.8116,4.1575-1.4139,6.8975
			C30.3895,27.4699,33.1177,30.0201,32.6432,33.9346z"/>
		<path d="M27.7078,39.5235c0,0,3.4501-3.9078,2.8993-7.2128c-0.5245-3.1468-1.9606-4.6525-3.1459-8.1803
			c-0.1287-0.3828-0.6349-0.4639-0.8741-0.1385c-0.8215,1.1172-2.1685,3.4127-1.9199,6.1974
			C25.0082,34.009,27.0007,34.5736,27.7078,39.5235z"/>
		<path d="M41.0494,42.4909c-1.4156-0.1844-4.4156-0.4922-7.4317-0.2767c-4.1517,0.2966-6.0196,0.5309-8.2141,1.7764
			c0.5444-3.4023-0.0126-8.1238-3.5577-13.4785c-0.2007-0.3032-0.6534-0.2985-0.8447,0.0106
			c-1.0681,1.7251-3.7941,6.5763-3.2127,10.3105c0.3809,2.4469,1.5267,4.4392,3.1143,5.9357
			c-3.4901,3.8584-8.7061,7.3454-13.1886,9.9559c-1.5145,0.882-1.7533,2.9651-0.4697,4.1584
			c0.8981,0.8348,2.2632,0.9277,3.269,0.2264c6.3301-4.4139,9.6906-7.2753,13.6999-12.1876
			c3.0748,1.327,6.7432,1.4214,9.8991,0.0772c2.8085-1.1962,5.8062-3.9288,7.2615-5.7032
			C41.6198,42.9962,41.4338,42.541,41.0494,42.4909z"/>
		<path d="M46.176,35.7252c-1.4395-0.4485-5.0858-1.3284-8.9537-0.2445c-4.9847,1.3967-8.6227,5.3198-8.6227,5.3198
			c4.8767-1.2722,8.0388-0.3976,11.8738-0.636c2.735-0.17,4.5538-1.8071,5.9532-3.6683
			C46.6325,36.2224,46.5031,35.8271,46.176,35.7252z"/>
		<path d="M50.7496,28.0605c-1.5212-0.1855-5.6608-0.4678-9.7108,1.2197c-3.858,1.6075-7.1384,5.4421-7.1384,5.4421
			c3.9579-2.191,6.8547-1.9033,9.7535-1.6962c3.6102,0.2579,6.5999-2.137,7.5024-4.2702
			C51.2872,28.4464,51.0832,28.1012,50.7496,28.0605z"/>
		<path d="M55.6379,19.6879c-1.5281-0.069-5.1706-0.0473-8.4502,1.3937c-4.6647,2.0496-7.7745,6.5023-7.7745,6.5023
			c5.02-2.191,8.5875-1.1494,11.5155-2.3292c1.944-0.7834,3.9592-2.6075,5.1185-4.8228
			C56.2192,20.1032,56.0085,19.7047,55.6379,19.6879z"/>
		<path d="M60.4985,11.5499c-1.5539-0.248-5.5676-0.6493-8.6575,1.1298c-3.9144,2.2538-5.4934,5.4095-6.4909,7.0591
			c4.17-2.3323,6.8587-1.6206,9.8242-2.3323c2.7368-0.6568,4.5541-2.8136,5.7039-5.1469
			C61.0262,11.9589,60.8294,11.6027,60.4985,11.5499z"/>
	</g>
</g>
</svg>
