<?xml version="1.0" encoding="utf-8"?>
<!-- Generator: Adobe Illustrator 17.1.0, SVG Export Plug-In . SVG Version: 6.00 Build 0)  -->
<svg version="1.2" baseProfile="tiny" xmlns="http://www.w3.org/2000/svg" xmlns:xlink="http://www.w3.org/1999/xlink" x="0px"
	 y="0px" width="64px" height="64px" viewBox="0 0 64 64" xml:space="preserve">
<g id="Box">
	<rect fill="none" width="64" height="64"/>
</g>
<g id="Icon">
	<path d="M52.1436,32.3845c6.4175-6.4176,7.0295-16.2106,1.3669-21.8732c-3.9724-3.9725-9.9751-4.8448-15.4216-2.8032
		c1.2627,1.4667,0.9587,3.9396-0.7559,5.6542c-1.0928,1.0929-2.4968,1.6132-3.752,1.5242c0.0889,1.2552-0.4314,2.6593-1.5244,3.7522
		c-1.5916,1.5916-3.8396,1.9719-5.3281,1.0095c-1.7185,4.4493-2.3074,9.3493-2.5054,13.7865l-9.6782,9.6783
		c-1.3662-0.3651-3.0889-0.1277-4.6733,0.7889c-2.6292,1.5211-3.8638,4.3044-2.7576,6.2166
		c0.9348,1.6158,3.2419,2.0772,5.5208,1.2686c-0.8086,2.279-0.3472,4.5861,1.2686,5.5208c1.9124,1.1063,4.6956-0.1283,6.2166-2.7576
		c0.9167-1.5844,1.1541-3.3071,0.7891-4.6733l7.7671-7.7672c-2.991-0.5549-5.1003-1.1955-5.4128-1.3361
		c-0.3213-0.1446-0.4219-0.2656-0.2927-0.399C32.9232,39.6634,44.6816,39.8463,52.1436,32.3845z"/>
</g>
</svg>
