<?xml version="1.0" encoding="utf-8"?>
<!-- Generator: Adobe Illustrator 24.1.3, SVG Export Plug-In . SVG Version: 6.00 Build 0)  -->
<svg version="1.1" xmlns="http://www.w3.org/2000/svg" xmlns:xlink="http://www.w3.org/1999/xlink" x="0px" y="0px"
	 viewBox="0 0 64 64" style="enable-background:new 0 0 64 64;" xml:space="preserve">
<style type="text/css">
	.st0{fill:none;}
</style>
<g id="Box">
	<rect class="st0" width="64" height="64"/>
</g>
<g id="Icon">
	<g>
		<path d="M19,33.3c-0.3,0.2-0.5,0-0.5,0s6.1-8.1,6.9-9.6C27,20.5,25,18.2,24,17c-0.7-0.9-2-2.6-2.6-3.5c-1.3,0.3-3,0.5-5.4,0.5
			s-4.1-0.2-5.4-0.5c-0.7,0.9-2,2.6-2.6,3.5c-0.9,1.2-2.9,3.4-1.3,6.7c0.8,1.6,0.9,1.8,1.1,2.1C8.9,27.9,6,30.1,6,36
			c0.1,5.8,0.3,15.3,0.5,18.8C6.7,58,10,59,16,59s9.3-1,9.5-4.2c0.2-3.5,0.4-13.1,0.5-18.8c0-3.3-0.9-5.4-1.5-7L19,33.3z"/>
		<path d="M16,12c3.3,0,6-0.4,6-1c-0.1-1.4-0.2-2.9-0.5-4.3c-0.2-1-1-1.7-2-1.7h-7.1c-1,0-1.8,0.7-2,1.7c-0.3,1.4-0.4,3-0.5,4.3
			C10,11.6,12.7,12,16,12z"/>
		<path d="M57.2,28.2l-6.2-7v-4.1c0-0.6-0.5-1.1-1.1-1.1H39.1c-0.6,0-1.1,0.5-1.1,1.1v4.1l-6.2,7c-0.5,0.5-0.8,1.3-0.8,2v24.2
			c0,1,0.7,1.8,1.6,2l12.4,2.3c0.5,0.1,1.1,0.1,1.6,0l9.7-2.2c0.9-0.2,1.6-1,1.6-1.9V30.1C58,29.4,57.7,28.7,57.2,28.2z M33.8,29
			l7.4-4.7l4.4,5.1L33.8,29z M50.7,26.8c-0.7,0.7-2.2,0.3-3.3-0.8c-1.1-1.1-1.5-2.6-0.8-3.3s2.2-0.3,3.3,0.8
			C51.1,24.7,51.4,26.1,50.7,26.8z"/>
	</g>
</g>
</svg>
