<?xml version="1.0" encoding="utf-8"?>
<!-- Generator: Adobe Illustrator 19.1.0, SVG Export Plug-In . SVG Version: 6.00 Build 0)  -->
<svg version="1.2" baseProfile="tiny" xmlns="http://www.w3.org/2000/svg" xmlns:xlink="http://www.w3.org/1999/xlink" x="0px"
	 y="0px" width="64px" height="64px" viewBox="0 0 64 64" xml:space="preserve">
<g id="_x36_4px_Box">
	<rect fill="none" width="64" height="64"/>
</g>
<g id="Icon">
	<path d="M44.9,30c0.0415-0.7026,0.4409-6.6787-3.1041-12.7559C39.6229,13.5192,39.4376,8.8926,39.4634,7H40c0.5523,0,1-0.4477,1-1
		V3.5C41,2.6716,40.3284,2,39.5,2H32h-7.5C23.6716,2,23,2.6716,23,3.5V6c0,0.5523,0.4478,1,1,1h0.5366
		c0.0258,1.8926-0.1595,6.5192-2.3325,10.2441C18.6592,23.3213,19.0585,29.2974,19.1,30L19,56.4
		c0.0034,1.4346,0.8496,2.7548,2.1592,3.2802c1.6177,0.6504,4.811,1.2758,10.8408,1.2758s9.2231-0.6254,10.8408-1.2758
		C44.1504,59.1548,44.9966,57.8346,45,56.4L44.9,30z M24,55c1.86,1.22,14.5823,2,14.5823,2
		c0.7624,0.0627,0.6938,0.483,0.6497,0.5677C37.6384,57.8616,35.3179,58.106,32,58.106c-2.7154,0-7.1902-0.0874-9.7227-1.106
		c-0.167-0.0669-0.2798-0.248-0.2803-0.4497l-0.0596-26.5537c-0.1324-3.5749,0.8205-7.7471,2.8584-11.2407
		c2.5301-4.338,2.7714-9.5361,2.7424-11.7759c5.4968-0.0185,3.306-0.0189,8.9235,0c-0.029,2.2397,0.2123,7.4379,2.7424,11.7759
		c0.4392,0.7529,0.8069,1.5047,1.1231,2.2441H25.9886c-1.8284,3.7199-1.9883,7.2757-1.9888,8.3523C23.9999,57.7338,24,26.1046,24,55
		z"/>
</g>
</svg>
