<?xml version="1.0" encoding="utf-8"?>
<!-- Generator: Adobe Illustrator 19.2.0, SVG Export Plug-In . SVG Version: 6.00 Build 0)  -->
<svg version="1.0" xmlns="http://www.w3.org/2000/svg" xmlns:xlink="http://www.w3.org/1999/xlink" x="0px" y="0px"
	 viewBox="0 0 64 64" enable-background="new 0 0 64 64" xml:space="preserve">
<g id="achtergrond">
</g>
<g id="paneel_1">
	<path d="M49.2867,29.2612c-0.3153-0.0998-0.9484-0.3375-0.9484-0.3375s0.0458-0.6089,0.0592-0.8658
		c0.141-2.7012,0.472-3.0578-2.1632-3.0579h-7.7305c1.5539-2.9808,0.9556-5.9024-1.0818-7.9452
		c-0.8278-0.8301-1.6569-1.6634-2.538-2.4351c-2.0608-1.8048-2.8111-3.8957-1.5731-6.4918
		c0.1454-0.3052,0.2048-0.6515,0.3954-1.2794c-2.8418,1.0681-4.5124,2.8593-5.1549,5.5335c-0.5918,2.463,0.129,4.5459,2.0985,6.1648
		c0.9387,0.7716,1.9253,1.4876,2.8353,2.2911c1.0928,0.965,1.5276,3.1814,0.9443,4.1621H28.553
		c0.5299-2.028-1.0782-2.9094-2.3644-3.9536c-0.4382-0.3558-0.8684-0.7221-1.2926-1.0945
		c-0.9223-0.8093-1.3421-1.7863-1.0266-3.0256c0.0791-0.3107,0.0665-0.6448,0.1158-1.1846
		c-1.6644,0.9068-2.7447,2.008-2.9871,3.7335c-0.2306,1.6418,0.7236,2.6625,1.9652,3.5395
		c0.7742,0.5469,2.4539,1.2884,2.4539,1.9853H14c-1.6128,0-2.265,0.736-2.2365,1.9541c0.0131,0.5635,1.2442,7.3831,2.1208,10.1364
		c1.2301,3.8632,2.5217,7.246,5.199,10.2845C31.7232,48.009,31,50,31,50H7c0,2.5821,2.0972,5,4,5h38.6944
		C51.597,55,53,52.5821,53,50H38c0,0,1.3119-0.5743,2.7683-2.576c0.6404-0.8803,1.1892-1.1214,2.3521-0.7592
		c0.8139,0.2535,1.6866,0.3846,2.5467,0.4673c4.584,0.4405,8.9433-2.717,9.8696-7.1183
		C56.5321,35.2829,53.8745,30.7126,49.2867,29.2612z M50.1843,42.2257c-1.6607,1.43-4.2418,1.7552-6.1075,0.8273
		c1.2642-3.472,2.4919-6.8436,3.7325-10.2508c1.6803,0.1149,3.399,1.5649,4.0392,3.5136
		C52.5412,38.4245,51.8827,40.7634,50.1843,42.2257z"/>
</g>
</svg>
