<?xml version="1.0" encoding="utf-8"?>
<!-- Generator: Adobe Illustrator 22.1.0, SVG Export Plug-In . SVG Version: 6.00 Build 0)  -->
<!DOCTYPE svg PUBLIC "-//W3C//DTD SVG 1.1//EN" "http://www.w3.org/Graphics/SVG/1.1/DTD/svg11.dtd">
<svg version="1.1" xmlns="http://www.w3.org/2000/svg" xmlns:xlink="http://www.w3.org/1999/xlink" x="0px" y="0px" width="64px"
	 height="64px" viewBox="0 0 64 64" style="enable-background:new 0 0 64 64;" xml:space="preserve">
<style type="text/css">
	.st0{fill:none;}
	.st1{fill:#FFFFFF;}
</style>
<g id="Box">
	<rect class="st0" width="64" height="64"/>
</g>
<g id="Icon">
	<g>
		<path d="M19.2,24.2c1.2,0.2,2.4,0.5,3.6,0.9c-1.2-1.4-0.8-3.4,0.6-4.4c-1.2-1.5-0.7-3.7,1-4.6c-1.1-1.5-0.6-3.6,1-4.4
			c-0.8-1.5-0.2-3.3,1.2-4.1c-0.3-1.9,1.2-3.5,3-3.5c0.5,0,1,0.1,1.4,0.4c0.4-0.2,0.9-0.4,1.4-0.4c1.8,0,3.3,1.6,3,3.5
			c1.4,0.8,2,2.6,1.2,4.1c1.6,0.9,2,2.9,1,4.4c1.7,0.9,2.2,3,1,4.6c1.5,1,1.8,3.1,0.5,4.5c1.3,1.1,1.6,3,0.4,4.3
			c1.3-0.6,2.5-1.1,3.7-1.5c0.1-1.1-0.1-2.1-0.6-3.1c0.5-1.6,0.3-3.3-0.6-4.7c0.4-1.7,0.1-3.5-1-5c0.2-1.6-0.2-3.1-1.1-4.4
			c0.1-1.7-0.4-3.3-1.6-4.6c-0.5-2.9-3-5.1-6-5.1c-0.5,0-1,0.1-1.4,0.2c-0.5-0.1-0.9-0.2-1.4-0.2c-3,0-5.5,2.2-6,5.1
			C22.5,7.4,21.9,9,22,10.7c-1,1.3-1.4,3-1.2,4.6c-1,1.4-1.4,3.2-1,4.9C19.2,21.3,18.9,22.7,19.2,24.2z"/>
		<path d="M52,29.3c-2.8-0.4-9.6-0.2-15.7,5c-5,4.3-6.6,11.9-6.6,11.9s-0.3,0.2-0.3-0.3c-0.2-1.5-0.1-5.9,2.8-10.8
			c-5.5-9.1-15.8-9.6-21.3-8.8c-0.4,0.1-0.6,0.7-0.2,0.9c1.8,1.2,4.4,3.8,6,7.8c2.7,6.8-0.2,14.4,4.1,20.2c1.3,1.8,3.3,3.1,6.2,3.6
			v1.9c0,1.2,1.8,2.2,4,2.2c2.2,0,4-1,4-2.2v-2c2.8-0.5,4.8-1.9,6.2-3.7c4.8-6.2,0.9-12,5-19.1c1.2-2.1,3.1-4.1,5.9-5.8
			C52.6,30,52.4,29.4,52,29.3z"/>
	</g>
</g>
</svg>
