<?xml version="1.0" encoding="utf-8"?>
<!-- Generator: Adobe Illustrator 25.0.0, SVG Export Plug-In . SVG Version: 6.00 Build 0)  -->
<svg version="1.1" xmlns="http://www.w3.org/2000/svg" xmlns:xlink="http://www.w3.org/1999/xlink" x="0px" y="0px"
	 viewBox="0 0 64 64" style="enable-background:new 0 0 64 64;" xml:space="preserve">
<style type="text/css">
	.st0{fill:none;}
</style>
<g id="Box">
	<rect class="st0" width="64" height="64"/>
</g>
<g id="Icon">
	<g>
		<path d="M57.832,20.748L54,15V8c0-0.552-0.448-1-1-1H11c-0.552,0-1,0.448-1,1v7l-3.832,5.748C6.059,20.912,6,21.105,6,21.303V24
			c0,0.552,0.448,1,1,1h3v30h44V25h3c0.552,0,1-0.448,1-1v-2.697C58,21.105,57.942,20.912,57.832,20.748z M28,21L28,21L28,21
			l0.667-6h6.667L36,21h0l0,0v4h-8V21z M13,21L13,21l3.167-6h6.667L21,21h0l0,0v4h-8V21z M37,50H15V29h22V50z M49,50h-9V29h9V50z
			 M51,21v4h-8v-4l-0.001,0H43l-1.833-6h6.667L51,21L51,21L51,21z"/>
		<path d="M20.368,44.668c-0.64,0.64-0.308,1.297-0.007,1.593c0.538,0.529,1.759,1.048,3.625-1.103
			c0.549-0.633,0.953-1.208,1.643-2.19c-0.53-0.609-1.085-1.249-1.654-1.907L20.368,44.668z"/>
		<path d="M33.228,33.276c-0.002-0.541-0.659-0.81-1.041-0.427l-4.596,4.596c0.896,0.781,1.754,1.534,2.54,2.228
			C31.624,37.666,33.233,35.084,33.228,33.276z"/>
		<path d="M22.31,39.815c0.594,0.595,1.731,0.571,2.712,0.009c3.457,4.03,5.534,6.482,5.745,6.692
			c0.488,0.488,1.315,0.31,1.938-0.312c0.622-0.622,0.802-1.45,0.313-1.938c-0.2-0.2-2.748-2.388-6.673-5.788
			c0.538-0.971,0.557-2.082-0.029-2.668l-4.006-3.505c-0.147-0.133-0.362-0.138-0.502,0.002c-0.14,0.14-0.132,0.351,0.001,0.499
			l3.163,3.627c0.117,0.148,0.104,0.367-0.031,0.502c-0.141,0.14-0.379,0.159-0.527,0.026l-3.606-3.155
			c-0.147-0.132-0.36-0.138-0.5,0.001c-0.138,0.14-0.133,0.353-0.001,0.5l3.155,3.606c0.133,0.148,0.114,0.386-0.027,0.527
			c-0.135,0.135-0.354,0.149-0.502,0.031l-3.627-3.163c-0.148-0.133-0.358-0.142-0.499-0.001c-0.14,0.14-0.135,0.354-0.002,0.502
			L22.31,39.815z"/>
	</g>
</g>
</svg>
