<?xml version="1.0" encoding="utf-8"?>
<!-- Generator: Adobe Illustrator 19.1.0, SVG Export Plug-In . SVG Version: 6.00 Build 0)  -->
<svg version="1.2" baseProfile="tiny" xmlns="http://www.w3.org/2000/svg" xmlns:xlink="http://www.w3.org/1999/xlink" x="0px"
	 y="0px" width="64px" height="64px" viewBox="0 0 64 64" xml:space="preserve">
<g id="_x36_4px_Box">
	<rect fill="none" width="64" height="64"/>
</g>
<g id="Icon">
	<g>
		<path d="M50.064,12.7339C45.4972,8.327,39.4121,5.3647,36.4194,8.3604c-0.1942,0.1932-0.3179,0.3201-14.5629,21.558
			l-3.5687,2.4308c3.0403,1.2445,6.2591,4.6039,7.3966,7.757c0.115,0.3188-0.0844,0.3203-0.1341,0.3039
			c-0.451-0.5478-0.9331-1.0942-1.4689-1.63c-3.671-3.671-7.9015-5.4726-9.399-3.9751c-1.5089,1.5089,0.2697,5.7339,3.9725,9.4368
			c3.7029,3.7029,7.9279,5.4815,9.4368,3.9726c0.2287-0.2285,4.4031-6.6971,4.5796-6.968
			C54.2201,26.793,54.3391,26.6751,54.5347,26.48C57.9138,23.1003,53.4705,16.0212,50.064,12.7339z M51.5879,23.4707
			c-1.6392,1.1294-11.6899,7.8833-19.3984,13.0552c-1.5849-2.637-3.1894-4.4678-5.7402-5.9351
			c5.1157-7.625,11.7358-17.4766,12.9458-19.2368c0.8145-0.1611,4.0287,0.6635,7.7563,4.3911
			C50.9479,19.5417,51.7383,22.7944,51.5879,23.4707z"/>
		<circle cx="11.5093" cy="46.451" r="2.3183"/>
		<circle cx="18.5013" cy="52.4831" r="2.3183"/>
		<circle cx="9.4982" cy="54.4586" r="2.3183"/>
	</g>
</g>
</svg>
