<?xml version="1.0" encoding="utf-8"?>
<!-- Generator: Adobe Illustrator 24.1.3, SVG Export Plug-In . SVG Version: 6.00 Build 0)  -->
<svg version="1.1" xmlns="http://www.w3.org/2000/svg" xmlns:xlink="http://www.w3.org/1999/xlink" x="0px" y="0px"
	 viewBox="0 0 64 64" style="enable-background:new 0 0 64 64;" xml:space="preserve">
<style type="text/css">
	.st0{fill:none;}
</style>
<g id="Box">
</g>
<g id="Icon">
	<path d="M58.5,39L8.1,39l43.6-25.2c0.7-0.4,1-1.3,0.5-2c-0.4-0.7-1.3-1-2-0.5L47,13.1l-4.3-3.8c-2.4-2.2-6-2.5-8.8-0.9L8.4,23.2
		c-2.8,1.6-4.3,4.9-3.6,8L6.4,39l-2.8,0c-0.8,0-1.5,0.7-1.5,1.5S2.8,42,3.6,42h3.3l2.7,8.8c1,3.1,3.8,5.3,7.1,5.3h28.9
		c3.3,0,6.1-2.1,7.1-5.3l2.7-8.8h3.3c0.8,0,1.5-0.7,1.5-1.5S59.3,39,58.5,39z"/>
</g>
</svg>
