<?xml version="1.0" encoding="utf-8"?>
<!-- Generator: Adobe Illustrator 19.1.0, SVG Export Plug-In . SVG Version: 6.00 Build 0)  -->
<svg version="1.2" baseProfile="tiny" xmlns="http://www.w3.org/2000/svg" xmlns:xlink="http://www.w3.org/1999/xlink" x="0px"
	 y="0px" width="64px" height="64px" viewBox="0 0 64 64" xml:space="preserve">
<g id="Box">
	<rect fill="none" width="64" height="64"/>
</g>
<g id="Icon">
	<g>
		<path d="M12.638,41.4037c1.3632,0.6799,2.7556,1.1767,4.1548,1.4997c1.8369-1.5026,3.3253-2.697,4.0104-3.2328
			c4.5385-3.5498,9.3163-4.6171,13.3506-3.2538c3.848-4.9056,5.8936-11.9796,5.6174-20.0284
			c-0.0818-2.3568-1.7427-4.2679-3.928-4.7991L35.8232,10.49l1.1663-2.356l-1.7451,0.1904l-1.6516-0.7059l-0.8956,0.6141
			l-1.4621,0.0958l1.7841,2.313l0.0193,1.0583c-2.1189,0.6941-3.6258,2.7006-3.5457,5.0411
			c0.291,8.4734-2.6795,13.4684-5.5566,15.3173c-2.0281,1.3032-4.2853,1.3512-6.7092,0.1423
			c-2.4238-1.2089-3.7425-3.0405-3.9216-5.4445c-0.2538-3.4109,1.9492-8.7888,8.8926-13.6535
			c1.9161-1.3426,2.6127-3.7508,1.8954-5.8598l0.8606-0.6239l2.921,0.0336l-0.8031-1.2256L27.0236,4.342l-1.5575-0.8947
			l-0.8977-1.5085l-1.1804,2.349l-0.8766,0.6354c-0.3008-0.2477-0.6229-0.4617-0.9645-0.6321
			c-1.6339-0.8149-3.6503-0.732-5.2508,0.3888c-8.8947,6.2321-13.8466,14.77-13.2459,22.8385
			C3.4968,33.5265,6.9914,38.5875,12.638,41.4037z"/>
		<path d="M46.2277,37.8951c4.5424-4.606,2.2958-13.0159,2.2958-13.0159s-4.8425,2.8232-6.8138,5.7359
			c-1.9713,2.9127-0.8954,5.3184-1.7863,6.6678c-0.5382,0.8152-2.1391,2.1569-3.3245,3.0936
			c-4.0865-3.717-9.6315-2.7338-14.4399,1.0268c-0.1251,0.0978-0.2608,0.2046-0.4033,0.3172
			c2.3453,0.1719,5.7495,1.761,5.7761,7.6082c0.002,0.4394-0.1741,0.6239-0.3288,0.5022c0,0-2.3929-7.0485-8.6287-5.5266
			c-0.013,0.0032-0.0215,0.0042-0.0343,0.0073c-1.5128,1.2354-3.2355,2.6605-4.9406,4.0963
			c1.8226,0.2349,4.4407,1.5822,4.3489,5.7073c-0.0068,0.306-0.1849,0.4468-0.321,0.3668c0,0-1.636-4.4406-6.4176-4.0428
			c-2.9244,2.5109-5.43,4.7692-6.175,5.7169c-1.7666,2.2471-0.4671,5.2119,2.7087,4.6019
			c3.9399-0.7567,13.809-2.7705,23.5916-4.9418c7.6628-1.7007,9.4743-7.4255,7.7963-11.818
			c1.7345-0.7816,3.6328-1.3557,5.1776-1.0579c2.5773,0.4968,5.6899,1.7593,8.6611,1.2615
			c6.5968-1.1052,9.5588-3.9246,9.5588-3.9246C56.4523,32.8263,46.2277,37.8951,46.2277,37.8951z"/>
	</g>
</g>
</svg>
