<svg height="64" viewBox="0 0 64 64" width="64" xmlns="http://www.w3.org/2000/svg"><path d="m0 0h64v64h-64z" fill="none"/><path d="m26.9864 36.6812c-4.1801-5.1753-7.6669-4.7416-11.538-9.2346-.2671-.3101-.7756-.1865-.8629.2134-.5428 2.4868-1.4415 9.247 3.3199 14.1205 5.9375 6.0772 10.6176 5.6581 11.6654 11.2463.0001-.0001 2.8936-9.5634-2.5844-16.3456z"/><path d="m50.3868 25.9556c-.0737-.5249-.8095-.5859-.9684-.0803-3.329 10.5939-11.8404 10.3118-13.429 22.1061-.1147-.0107-.4128-.0922-.3978-.6701.0589-2.2756.3604-5.3428 1.2104-8.7644-.2952-.91-.631-1.8319-1.032-2.7784-1.5294-3.8176-2.4967-6.4022-2.5618-9.2645 13.7642-.5176 10.4863-18.9606 9.7346-22.471-.0657-.3067-.3906-.4706-.6788-.3468-3.0236 1.2983-8.414 4.4615-13.507 13.1218-.1633.02-.2848-.0917-.2102-.4175 1.2648-5.5251 5.2058-9.884 8.0781-11.8906 0 0-.8933-1.1354-1.701-1.8806-.1358-.1252-.3269-.164-.4999-.0993-1.9968.7465-4.9936 2.9223-4.9936 2.9223s-.7878-2.6856-1.6291-4.73c-.1404-.3411-.5875-.4219-.8293-.1434-3.6828 4.2408-12.6849 18.7986 2.1024 25.1696-.4496 5.6234.7757 7.2515 2.5741 13.624 2.455 7.7275-.7684 15.8535-2.2198 20.0169-.9123 2.6169.7953 3.3047 2.4121 3.8323 1.7465.5699 3.2815.3712 3.7776-1.3976.4111-1.4654.7781-2.8564 1.1045-4.202.1217-.3732.2614-.8488.4284-1.4645 1.8487-6.8143 7.9905-6.8117 11.2654-13.1476 3.274-6.3343 2.7582-11.4333 1.9701-17.0444z"/></svg>