<svg enable-background="new 0 0 64 64" viewBox="0 0 64 64" xmlns="http://www.w3.org/2000/svg"><path d="m0 0h64v64h-64z" fill="none"/><path d="m12 50c-2.209 0-4 1.791-4 4s1.791 4 4 4 4-1.791 4-4-1.791-4-4-4zm2.409-6.464c-.538-.917-.549-2.019-.03-2.946l1.545-2.761 30.653-2.694c3.636-.319 6.498-3.191 6.804-6.828l1.613-19.139c.046-.549-.136-1.093-.504-1.503s-.89-.651-1.441-.665l-39.728-.968c-.441-2.576-2.512-4.572-5.128-4.898l-4.945-.618c-1.097-.142-2.096.64-2.233 1.736s.641 2.096 1.737 2.232l4.945.618c.889.112 1.586.81 1.695 1.698l3.49 28.272-1.994 3.564c-1.22 2.18-1.193 4.768.07 6.922 1.264 2.155 3.509 3.442 6.007 3.442h18.051c.019-1.286.059-2.653.133-4h-18.184c-1.063 0-2.019-.547-2.556-1.464zm6.591-10.168-4.252.374-1.326-10.742h5.578zm24-22.562 5.829.142-.679 8.052h-5.15zm0 12.194h4.813l-.419 4.971c-.143 1.694-1.475 3.031-3.168 3.18l-1.226.108zm-10-12.438 6 .146v8.292h-6zm0 12.438h6v8.61l-6 .527zm-10-12.682 6 .146v8.536h-6zm0 12.682h6v9.489l-6 .527zm-4-12.78v8.78h-6.071l-1.105-8.955zm42.435 30.606c-.195-1.173-1.087-2.065-2.261-2.261-3.391-.565-9.044-.565-10.174-.565s-6.783 0-10.174.565c-1.173.196-2.065 1.088-2.26 2.261-.566 3.391-.566 9.044-.566 10.174s0 6.783.565 10.174c.195 1.173 1.087 2.065 2.26 2.261 3.392.565 9.045.565 10.175.565s6.783 0 10.174-.565c1.174-.196 2.066-1.088 2.261-2.261.565-3.391.565-9.044.565-10.174 0-3.393 0-6.783-.565-10.174zm-20.576 7.449c0-2.896 1.844-3.924 3.423-3.924 2.09 0 3.289 1.374 3.289 3.77 0 2.617-1.785 3.809-3.443 3.809-1.491 0-3.269-.634-3.269-3.655zm6.434 9.727-1.839-.727 5.232-13.277 1.839.727zm6.405-.449c-1.491 0-3.269-.634-3.269-3.655 0-2.896 1.844-3.924 3.423-3.924 2.09 0 3.289 1.374 3.289 3.77 0 2.631-1.729 3.809-3.443 3.809zm.096-5.623c-.847 0-1.025.976-1.025 1.795 0 1.633.508 1.853 1.005 1.853.706 0 1.063-.552 1.063-1.641.001-1.799-.595-2.007-1.043-2.007zm-9.569-5.623c-.863 0-1.044.976-1.044 1.795 0 1.632.518 1.853 1.024 1.853.863 0 1.044-.892 1.044-1.641.001-1.799-.584-2.007-1.024-2.007z"/></svg>