<svg width="10" height="274" viewBox="0 0 10 274" fill="none" xmlns="http://www.w3.org/2000/svg">
<path d="M6.5 261.5C6.5 263.223 6.16369 264.113 5.81442 264.637C5.45321 265.179 4.96772 265.512 4.21783 265.97C3.5244 266.394 2.49972 266.976 1.73158 268.014C0.925742 269.104 0.5 270.53 0.5 272.5H3.5C3.5 270.97 3.82426 270.23 4.14342 269.798C4.50028 269.316 4.9756 269.023 5.78217 268.53C6.53228 268.072 7.54679 267.446 8.31058 266.301C9.08631 265.137 9.5 263.61 9.5 261.5H6.5ZM6.5 257.5V261.5H9.5V257.5H6.5ZM9.5 257.5V0.5H6.5V257.5H9.5ZM3.5 274V272.5H0.5V274H3.5Z" fill="#007BC7"/>
</svg>
