<svg height="64" viewBox="0 0 64 64" width="64" xmlns="http://www.w3.org/2000/svg"><path d="m0 0h64v64h-64z" fill="none"/><path d="m19.3657 38h25.2687c.7541 0 1.3656-.6115 1.3656-1.3657v-32.2686c0-.7542-.6115-1.3657-1.3657-1.3657h-14.7998c-.3624 0-.7098.144-.9659.4001l-10.4685 10.5544c-.2561.2561-.4001.6035-.4001.9659v21.7139c0 .7509.6145 1.3657 1.3657 1.3657zm-.2506-23h10.1536c.377 0 .6828-.3058.6828-.6828v-10.2014s.1713-.0748.2457.1578l.8028 2.7264h11v27h-20v-18l-2.7357-.7172c-.2329-.0744-.1492-.2828-.1492-.2828z"/><path d="m52.2301 40.7582c-2.7689.9518-6.3674 2.413-9.2219 3.6126.0738.4329.0837.8924.0119 1.3788-.4145 2.8078-2.82 4.5833-6.2403 4.7415-7.7327.3578-12.5347-1.5576-13.5313-1.9617-.2862-.1161-.318-.2576-.2923-.3882.0016-.0013.0111-.0091.0111-.0091 5.5945.9645 9.1206 1.1222 13.4634.4237 3.295-.53 4.489-2.106 4.4613-3.4058-.027-1.2701-.9268-2.0373-2.9519-2.1078-6.8902-.2395-10.9187-1.008-16.8242-1.8687-4.1042-.5981-8.0618.4671-11.4327 2.6265-3.1635 2.0265-4.0402 2.9853-4.0402 2.9853l5.7857 11.1429 7.4819-3.0415c.8526-.3467 1.7844-.4512 2.6926-.3022l10.2607 2.283c2.2892.3758 4.6379-.0562 6.6438-1.2219l20.4795-12.846s-1.0043-4.019-6.7571-2.0414z"/><path d="m31.8662 26.1211 5.7941-5.7941 2.3397 2.3397v-6.6667h-6.6667l2.2059 2.2059-3.673 3.673-3-3-4.8662 4.8662v4.2422l4.8662-4.8662z"/></svg>