<svg height="64" viewBox="0 0 64 64" width="64" xmlns="http://www.w3.org/2000/svg"><path d="m0 0h64v64h-64z" fill="none"/><path d="m52 12h-4.0272c-3.6495-4.8497-9.4359-8-15.9728-8s-12.3233 3.1503-15.9728 8h-4.0272c-.5523 0-1 .4477-1 1v11 35h21v-11.6319c3.3571-.3214 4.8445-4.1743 4.9531-4.5.0781-.2344.0312-.3125-.0595-.2984-1.1124 1.1734-3.2491 3.2856-5.1436 2.7984-1.25-.3214-.9868-3.4188-.3571-4.5995.2857-.5357.6456-.8795 1.2454-1.0089 2.1117-.4554 6.6831-.9197 9.3617-.9197.5714 0 1 .4477 1 1v19.16h10v-35-11c0-.5523-.4477-1-1-1zm-13.6953 24.8455c.3335-.5303.6453-1.2219.6453-1.9883 0-1.6568-1.45-3-1.45-3s-1.45 1.3432-1.45 3c0 .8135.35 1.5491.7059 2.0895-1.7023-.1785-3.2623-1.3315-3.6765-3.7141-.6534-3.7587 2.8911-8.9767 4.4291-10.4326.269 5.1555 3.1208 4.4139 4.3892 8.4909.5759 3.0113-1.372 5.0499-3.593 5.5546z"/></svg>