<svg height="64" viewBox="0 0 64 64" width="64" xmlns="http://www.w3.org/2000/svg"><path d="m0 0h64v64h-64z" fill="none"/><path d="m55.2133 32.6649-23.2133 16.7651-23.2133-16.7651-3.7364 2.7798c-.4271.3177-.4271.9728 0 1.2906l25.7433 19.1528c.7202.5358 1.6926.5358 2.4128 0l25.7433-19.1528c.4271-.3177.4271-.9729 0-1.2906z"/><path d="m30.7936 44.7981c.7202.5358 1.6926.5358 2.4128 0l25.7433-19.1528c.4271-.3177.4271-.9728 0-1.2906l-25.7433-19.1529c-.7202-.5358-1.6926-.5358-2.4128 0l-25.7433 19.1529c-.4271.3177-.4271.9729 0 1.2906z"/></svg>