<svg height="64" viewBox="0 0 64 64" width="64" xmlns="http://www.w3.org/2000/svg"><path d="m0 0h64v64h-64z" fill="none"/><path d="m30.5417 57-4.9117-16.84c-.3734-1.28-1.5467-2.16-2.88-2.16h-19.4833c-1.1333 0-1.9493 1.088-1.632 2.176l5.7354 19.664c.3734 1.28 1.5467 2.16 2.88 2.16h32.75c2.7614 0 5-2.2386 5-5z"/><path d="m57.606 42.1328c-2.1834-2.3746-8.462-4.4958-11.386-5.3825-.155-1.1155-.3614-2.412-.5466-3.4883 1.7886-2.1667 2.8874-4.407 3.2495-6.6991 1.3281-1.2195 2.0679-3.1669 2.0679-5.5569 0-.7447.0012-2.703-1.2268-4.0371.3037-3.3378.515-8.5037-.7869-10.5873-1.6026-2.5649-3.5498-3.816-7.2632-2.9776-2.4355-1.1577-4.0937-1.8824-8.3608-.8398-2.9649.7241-6.21 1.9066-7.92 3.8797-1.652 1.9066-1.5394 7.2237-1.274 10.6054-1.1589 1.332-1.1635 3.2256-1.1635 3.9557 0 2.386.7374 4.3298 2.0614 5.5497.3819 2.5118 1.613 4.9141 3.7105 7.2619-.106.807-.2283 1.7498-.353 2.7313-.5731.1675-1.4145.4178-2.3588.7297.6899.611 1.2255 1.4006 1.4941 2.3231l4.4923 15.3993h3.958c0-1.6569 2.2386-3 5-3s5 1.3431 5 3h2c1.1045 0 2 .914 2 2.0185 0 1.9398-.797 3.9815-2.0762 4.9815h14.0693s-1.5136-16.7432-4.3872-19.8672zm-19.9555-5.3693c3.1548.8349 5.4595-.9139 5.4595-.9139s.2828 1.9133.2745 2.4157c.3267 3.4883-3.5569 7.3169-6.0103 9.0784-2.3003-1.75-6.5919-5.5302-6.1588-9.0224.237-1.9129.0408-.5492.8235-5.4371-2.2767-2.1999-4.1043-4.8665-4.1043-8.061-1.6177-.5038-2.0414-2.5453-2.0414-3.8183 0-1.2725.3217-1.961.7738-2.1743.3921-.1844.7725-.0476 1.013.0886.1414.6528.2517 1.1384.2932 1.3098.206.8511 1.0268.7729 1.0268.7729v-6.7451c2-.1505 6.1937-.7531 10.7499-3.1062l5.2501 3.5262v6.3251s.814.0782 1.02-.7729c.0414-.1714.1467-.657.2881-1.3098.2405-.1362.62-.273 1.0121-.0886.4521.2133.7734.9018.7734 2.1743 0 1.2729-.4239 3.3145-2.0416 3.8183 0 3.7027-2.5336 6.4959-5.3404 8.8846-.7807.6644-2.25 1.1066-3.7189 1.1055-1.0628-.0008-2.1255-.2865-2.9271-.6349.6139.9305 1.6554 2.0744 3.5849 2.5851z"/></svg>