<svg height="64" viewBox="0 0 64 64" width="64" xmlns="http://www.w3.org/2000/svg"><path d="m0 0h64v64h-64z" fill="none"/><path d="m34.2002 11.689c2.9871.4903 5.0589-1.3175 5.5532-4.3297.5634-3.4307-.9413-5.567-3.8503-6.0449-3.0645-.5029-5.0724 1.4013-5.5804 4.4973-.5358 3.2629.891 5.387 3.8775 5.8773z"/><path d="m39.7508 43.4879c-.6775-1.1134-1.3194-1.9691-1.9498-2.8424-1.3217-1.7959-2.694-3.5524-4.09-5.2991.5537-2.9044 1.362-6.4941 2.119-9.7022.3231 1.0061.6906 2.0533 1.2523 3.1833.6809 1.3301 2.9375 3.379 3.9658 4.4628.5729.6039 1.152 1.001 1.7119 1.262-.226.4481-.299.9728-.1511 1.4625l.5472 1.8168-2.7893.851 4.6436 15.2207 11.988-3.6575-4.6436-15.2206-2.564.7822-.5406-1.793c-.1536-.5114-.497-.9327-.9678-1.186s-1.0121-.308-1.5241-.1537l-1.2233.3687c-1.0508-1.2722-2.3206-2.7444-2.765-3.2912-.4979-.6125-1.6885-2.0239-2.0126-2.74-.4429-.9557-.8034-2.2042-1.1187-3.3315-.1473-.5267-1.6454-6.7142-1.8753-7.0479-.8086-2.0169-6.9005-4.8287-10.506-2.6802-1.9837 1.1821-5.7143 3.9563-7.6051 6.0283-1.1489 1.2746-1.613 2.0419-2.1057 4.8385-.3 1.7635-.4926 3.8031-.5282 5.5777-.0057.282.017.5598.0555.8336-.6277.0579-1.2317.3912-1.5613.9431l-.9741 1.6284-2.5079-1.4883-8.1212 13.685 10.7786 6.3963 8.1211-13.6849-2.3054-1.3681.961-1.6073c.2744-.458.3545-.9956.2246-1.5142s-.4541-.9556-.9131-1.23l-.4251-.2542c.4446-3.1399 1.0777-6.8623 1.9653-8.6584.4393-.889 2.4294-2.2172 3.2609-2.7575-.5286 2.4518-2.3518 10.6283-2.3518 12.5007 0 2.3154 1.4959 3.518 2.451 4.5186l3.7331 3.9111s-.1386.2378-.4565.0537c-1.6328-.9453-3.7839-2.1867-3.7839-2.1867-.5365 2.0231-1.4125 5.3192-2.1817 7.2795-.6125 1.5608-.4012 1.1172-.9948 2.1323-1.201 2.0535-2.751 4.1289-4.0837 6.4602-2.1914 3.8334.4587 6.6486.8304 7.0083 2.1537-3.0253 5.866-7.4979 7.9595-10.6465.7007-1.0398.7781-1.1244 1.5663-2.6381.5991-1.2116 1.4144-2.951 2.5855-5.852.5138.4693 1.0106.9995 1.524 1.5161 1.2635 1.2713 2.0442 1.8894 2.5422 2.8286.1505.2837.4639.9288.7798 1.7426 1.9283 4.9677 3.47 7.8597 4.3235 9.8959 1.2834 3.0612 4.8486 3.3614 5.8486 3.0583-.9836-3.8884-3.2562-11.8343-4.523-15.6936-.895-2.7269-1.0159-2.7699-1.595-3.7217zm7.584-8.8977.5434 1.8007-2.8094.8572-.5455-1.8101zm-28.5506 1.7315-2.526-1.499.9703-1.6224 2.5205 1.5068z"/></svg>