<svg height="64" viewBox="0 0 64 64" width="64" xmlns="http://www.w3.org/2000/svg"><path d="m0 0h64v64h-64z" fill="none"/><g fill="#010101"><path d="m39.55 13.41 1.45-5.64-6.48-1.28c-.37-.12-.31-.36-.29-.43h7.15l-2.03-4.06h-5.08l-2 4.06 1.83 7.33a17.85 17.85 0 0 0 -14.2 12.17 19.47 19.47 0 0 1 6.1-1.2 12.68 12.68 0 1 1 -1.55 9.38 10.31 10.31 0 0 0 -4.67 2.26 17.77 17.77 0 1 0 19.78-22.6z"/><path d="m26.47 56.83a12.64 12.64 0 1 1 12.31-15.45 11 11 0 0 0 4.77-2.21 17.81 17.81 0 1 0 -.12 10.44 20.08 20.08 0 0 1 -6.17 1.15 12.65 12.65 0 0 1 -10.79 6.07z"/></g></svg>