<svg height="64" viewBox="0 0 64 64" width="64" xmlns="http://www.w3.org/2000/svg"><path d="m0 0h64v64h-64z" fill="none"/><path d="m28.6 12.7c0-4 2.8-5.9 6.4-5.8 3.2.2 4.5.4 9.2-1.7 1.7-.7 5-1.9 11.6 1.7 0 0 .5-.6-.3-1.6-1.5-1.7-4.2-3.1-7.4-3.3-5-.2-5.7 2.4-13 2-2.8-.1-5.3.6-7.2 2.6-1.6 1.7-2.1 4.3-1.9 6.6.8-.2 1.6-.4 2.6-.5zm33-6.1c-1 3.2-3.5 5.1-7.5 4.2-2.7-.5-6.4-2.5-9.2-.7-1 .6-1.7 1.6-2 2.7.9.2 1.8.3 2.5.6 1-1.8 2.8-1.5 5.4-.7 2.3.6 6.2 1.9 9.3-.3 1.5-1.1 2.2-2.7 2.3-4.3.1-1.4-.8-1.5-.8-1.5zm-16 19.7c.2-5.9.5-6.5.9-9.7.5-3.2-22.5-3.2-21.9 0 .6 3.1.8 3.8 1 9.7v.9c6.3 1.4 11 6.5 11.4 12.8l.9 16h13.5c-1.7-3.9-6.2-18.4-5.8-29.7zm-23.6 2.7c-6.7 0-12.4 4.8-12.7 11.1l-1.1 19.9h27.6l-1.1-19.9c-.3-6.3-6-11.1-12.7-11.1zm0 13.5c.8 0 1.5.7 1.5 1.5s-.7 1.5-1.5 1.5-1.5-.7-1.5-1.5.7-1.5 1.5-1.5zm-3.5-4.5 2.1 3.6c-.8.5-1.4 1.4-1.4 2.4h-4.2c0-2.6 1.4-4.8 3.5-6zm3.5 13c-1.3 0-2.5-.3-3.5-.9l2.1-3.6c.4.2.9.4 1.4.4s1-.1 1.4-.4l2.1 3.6c-1 .5-2.2.9-3.5.9zm2.8-7c0-1-.6-1.9-1.4-2.4l2.1-3.6c2.1 1.2 3.5 3.4 3.5 6z"/></svg>