<svg enable-background="new 0 0 64 64" height="64" viewBox="0 0 64 64" width="64" xmlns="http://www.w3.org/2000/svg"><path d="m0 0h64v64h-64z" fill="none"/><path d="m57 40.3c-2.5-2.5-5.8-3.9-9.4-3.9s-6.9 1.4-9.4 3.9l-12.7 12.7c-3.8 3.8-10 3.8-13.8 0s-3.8-10 0-13.8l2.1-2.1 2.3 2.3c.6.6 1.5.8 2.3.4l12.9-6.4.7.7c.4.4 1 .4 1.4 0l3.5-3.5c.4-.4.4-1 0-1.4l-2.8-2.8 9.2-9.2c.8-.8.8-2 0-2.8s-2-.8-2.8 0l-9.2 9.2-7.1-7.1 9.2-9.2c.8-.8.8-2 0-2.8-.8-.8-2-.8-2.8 0l-9.2 9.2-2.8-2.8c-.4-.4-1-.4-1.4 0l-3.5 3.5c-.4.4-.4 1 0 1.4l5.7 5.7c0 .1-.1.2-.4.1l-5.3-3.6-.1-.1-5.7 11.4c-.4.7-.2 1.7.4 2.3l2.3 2.3-2.1 2.1c-5.5 5.6-5.5 14.6 0 20.2 5.6 5.6 14.6 5.6 20.2 0l12.7-12.7c1.7-1.7 3.8-2.6 6.2-2.6 2.3 0 4.5.9 6.2 2.6 3.4 3.4 3.4 9 0 12.4l-2.1 2.1 3.2 3.2 2.1-2.2c5.1-5.2 5.1-13.6 0-18.7z"/></svg>