<svg enable-background="new 0 0 64 64" height="64" viewBox="0 0 64 64" width="64" xmlns="http://www.w3.org/2000/svg"><path d="m0 0h64v64h-64z" fill="none"/><path d="m21.8 49.8c2.9.7 6.4 1.2 10.2 1.2 6 0 11.3-1.1 14.6-2.8l10.4 10.4 2.2-2.2-50.7-50.6-2.2 2.1 7.9 7.9c-.2 9.3-6.2 9.3-8.3 17.2-2.5 9.3 2.1 14.4 6.6 15.6-1.1-1.2-1.7-2.5-1.7-4v-4.5c0-4 3.3-8.8 18.4-9.3l3.2 3.2c-.1 0-.2 0-.4 0-9.9 0-18 1.9-18 6.1v4.5c0 1.3 1.3 2.6 3.5 3.7l-2.5 3.6c-.6.9-.5 2.1.4 2.7 2.1 1.7 7.1 4.4 16.6 4.4 9.6 0 14.5-2.8 16.7-4.4.8-.7 1-1.8.4-2.7l-.7-1c-3.3 1.1-7.7 1.8-12.7 1.8-5.5 0-10.5-.8-13.8-2.1-.5-.3-.3-.6-.1-.8zm16.6-4.7c.3-1 1.1-1.7 2-1.7.2 0 .3 0 .4.1.5.1.9.5 1.1 1s.2 1.1.1 1.6c-.3 1-1.1 1.7-2 1.7-.2 0-.3 0-.4-.1-.5-.1-.9-.5-1.1-1-.3-.5-.3-1.1-.1-1.6zm-6.4-1.3c1.2 0 2.2 1 2.2 2.2s-1 2.2-2.2 2.2-2.2-1-2.2-2.2 1-2.2 2.2-2.2zm-9.8.7c.2-.5.6-.9 1.1-1 .1 0 .3-.1.4-.1.9 0 1.7.7 2 1.7.2.6.1 1.1-.1 1.6s-.6.9-1.1 1c-.1 0-.3.1-.4.1-.9 0-1.7-.7-2-1.7-.2-.6-.2-1.1.1-1.6zm-3.5.4c-.2.5-.4.7-.8.8-.1 0-.1 0-.2 0-.7 0-1.3-.7-1.5-1.7-.3-1 .1-2 .8-2.2s1.5.6 1.8 1.7c.1.5.1 1-.1 1.4zm5.4-27.7 13.8 13.8c12.5 1 15.3 5.3 15.3 9v4.5c0 .5-.1 1-.2 1.5l1 1c4.2-3.5 7.6-11.5 1.8-19.8-5.6-8-3.8-15.5-3.8-15.5-5.3 2.7-4.7 7.1-6 8.7-1 1.3-2.6 1.4-3.6-.4-3.2-5.1 2.8-12 2.8-12-10 1-13.1 9.5-13.1 9.5-2.4-7.8-8.9-10.4-8.9-10.4 1.7 3.9 1.5 7.5.9 10.1zm25.9 25.9v-3c0-2.7-3.4-4.5-8.4-5.3z"/></svg>