<svg enable-background="new 0 0 64 64" height="64" viewBox="0 0 64 64" width="64" xmlns="http://www.w3.org/2000/svg"><path d="m0 0h64v64h-64z" fill="none"/><path d="m58.6 50.5-24.2-41c-.6-.9-1.5-1.5-2.6-1.5-1.1 0-2 .6-2.6 1.5l-23.8 41c-.5.9-.5 2.1 0 3s1.5 1.5 2.6 1.5h48c1.1 0 2.1-.6 2.6-1.5s.5-2.1 0-3zm-46.6-.5 19.8-34.1 20.1 34.1zm12.2-15.8c-.7 4.5.4 7.3 3.2 8.9.1.6-.1 2 .7 3.4 1.2 2 6.6 2 7.8 0 .8-1.4.6-2.8.7-3.4 2.8-1.6 3.9-4.4 3.2-8.9-.6-4.2-4.2-6.2-7.8-6.2s-7.2 2-7.8 6.2zm11.3 1.3c1.7.2 2.2 1.3 2 2.4-.1 1.2-.8 1.8-2.3 1.7-1.6-.2-2.1-1.1-2.1-2.2.1-1.4.9-2.1 2.4-1.9zm-3.5 5.2c.8-.1 2 1.8 1.5 2.6-.2.4-.9.5-1.5.5s-1.3-.1-1.5-.5c-.5-.8.7-2.7 1.5-2.6zm-3.5-5.2c1.6-.2 2.3.5 2.3 1.9 0 1.1-.5 2-2.1 2.2-1.4.2-2.1-.5-2.3-1.7-.1-1.2.3-2.2 2.1-2.4z"/></svg>