<svg height="64" viewBox="0 0 64 64" width="64" xmlns="http://www.w3.org/2000/svg"><path d="m0 0h64v64h-64z" fill="none"/><path d="m54.5059 32.7544-13.1583-5.7841-1.674-12.9703h7.8112c.0209.0562.0673.2623-.2499.3641-.1246.04-1.0997.2372-2.2349.4615v1.1744c0 1.1046.8954 2 2 2s2-.8954 2-2v-4.7944c0-.9341-.5146-1.7832-1.3428-2.2158l-14.2676-7.4556c-.8691-.4551-1.9092-.4556-2.7783-.0005l-14.2685 7.456c-.8282.4327-1.3428 1.2818-1.3428 2.2159v4.7944c0 1.1046.8954 2 2 2s2-.8954 2-2v-1.1744c-1.1353-.2243-2.1103-.4215-2.2349-.4615-.3172-.1017-.2708-.3079-.2499-.3641h7.8112l-1.674 12.9703-13.1583 5.7841c-.9072.3989-1.4941 1.2974-1.4941 2.2886v4.957c0 1.1046.8954 2 2 2s2-.8954 2-2v-1.1744c-1.1353-.2243-2.1103-.4215-2.2349-.4615-.3172-.1018-.2708-.3079-.2499-.3641h11.3766l-6.8964 25h5.0126l12.992-13.4917 12.992 13.4917h5.0126l-6.8964-25h11.3766c.0209.0562.0673.2623-.2499.3641-.1246.04-1.0997.2372-2.2349.4615v1.1744c0 1.1046.8954 2 2 2s2-.8954 2-2v-4.957c0-.9912-.5869-1.8897-1.4941-2.2886zm-9.4795-21.7544h-5.7399l-.4151-3.2164zm-6.8855 14.5607-3.7791-1.6612 2.9108-5.0682zm-9.7698-19.4715 3.6289-1.8963 3.6284 1.8961.6337 4.911h-8.5269zm8.2166 7.9108-4.5877 7.9883-4.5877-7.9883zm-9.8654 4.8225 2.9158 5.077-3.7889 1.6656zm5.2777 7.3162 6.5892 2.8962.7697 5.9651h-14.7315l.7717-5.96zm-13.0264-15.1387 6.155-3.2164-.415 3.2164zm-7.1338 24 10.3643-4.5555-.588 4.5555zm6.1768 24.7046 5.3006-19.2131 6.6006 6.8545zm7.0655-21.7046h13.8358l-6.9179 7.1838zm20.9013 21.7046-11.9012-12.3586 6.6108-6.8651zm-3.5995-24.7046-.588-4.5555 10.3643 4.5555z"/></svg>