<?xml version="1.0" encoding="utf-8"?>
<!-- Generator: Adobe Illustrator 19.1.0, SVG Export Plug-In . SVG Version: 6.00 Build 0)  -->
<svg version="1.2" baseProfile="tiny" xmlns="http://www.w3.org/2000/svg" xmlns:xlink="http://www.w3.org/1999/xlink" x="0px"
	 y="0px" width="64px" height="64px" viewBox="0 0 64 64" xml:space="preserve">
<g id="_x36_4px_Box">
	<rect fill="none" width="64" height="64"/>
</g>
<g id="Icon">
	<path d="M54.5059,32.7544l-13.1583-5.7841L39.6736,14h7.8112c0.0209,0.0562,0.0673,0.2623-0.2499,0.3641
		c-0.1246,0.04-1.0997,0.2372-2.2349,0.4615V16c0,1.1046,0.8954,2,2,2s2-0.8954,2-2v-4.7944c0-0.9341-0.5146-1.7832-1.3428-2.2158
		L33.3896,1.5342c-0.8691-0.4551-1.9092-0.4556-2.7783-0.0005L16.3428,8.9897C15.5146,9.4224,15,10.2715,15,11.2056V16
		c0,1.1046,0.8954,2,2,2s2-0.8954,2-2v-1.1744c-1.1353-0.2243-2.1103-0.4215-2.2349-0.4615
		c-0.3172-0.1017-0.2708-0.3079-0.2499-0.3641h7.8112l-1.674,12.9703L9.4941,32.7544C8.5869,33.1533,8,34.0518,8,35.043V40
		c0,1.1046,0.8954,2,2,2s2-0.8954,2-2v-1.1744c-1.1353-0.2243-2.1103-0.4215-2.2349-0.4615C9.4479,38.2623,9.4943,38.0562,9.5152,38
		h11.3766l-6.8964,25h5.0126L32,49.5083L44.992,63h5.0126l-6.8964-25h11.3766c0.0209,0.0562,0.0673,0.2623-0.2499,0.3641
		c-0.1246,0.04-1.0997,0.2372-2.2349,0.4615V40c0,1.1046,0.8954,2,2,2s2-0.8954,2-2v-4.957
		C56,34.0518,55.4131,33.1533,54.5059,32.7544z M45.0264,11h-5.7399l-0.4151-3.2164L45.0264,11z M38.1409,25.5607l-3.7791-1.6612
		l2.9108-5.0682L38.1409,25.5607z M28.3711,6.0892L32,4.1929l3.6284,1.8961L36.2621,11h-8.5269L28.3711,6.0892z M36.5877,14
		L32,21.9883L27.4123,14H36.5877z M26.7223,18.8225l2.9158,5.077l-3.7889,1.6656L26.7223,18.8225z M32,26.1387l6.5892,2.8962
		L39.3589,35H24.6274l0.7717-5.96L32,26.1387z M18.9736,11l6.155-3.2164L24.7136,11H18.9736z M11.8398,35l10.3643-4.5555L21.6161,35
		H11.8398z M18.0166,59.7046l5.3006-19.2131l6.6006,6.8545L18.0166,59.7046z M25.0821,38h13.8358L32,45.1838L25.0821,38z
		 M45.9834,59.7046L34.0822,47.346l6.6108-6.8651L45.9834,59.7046z M42.3839,35l-0.588-4.5555L52.1602,35H42.3839z"/>
</g>
</svg>
