<svg enable-background="new 0 0 64 64" height="64" viewBox="0 0 64 64" width="64" xmlns="http://www.w3.org/2000/svg"><path d="m0 0h64v64h-64z" fill="none"/><path d="m18.1 32.9c-.6-3.4-6.7-5-9.9-1.6-3.8 3.9-.6 9.2-.6 9.2s-4.3 1.9-3.6 6.5c.9 5.6 6.5 5.4 6.5 5.4s-3.2-2-3-6c.1-3 4.5-4.5 4.5-4.5s-4-4.8-1-7.9 7.1-1.1 7.1-1.1zm40.2-3c-.5-9.6-9.2-16.9-19.3-16.9s-18.8 7.3-19.3 16.9l-.7 11.7 4.7 6.1 4.4-1 3.9 7.6-4.3-4.6-4.7 1.2-4.4-4-.6 13.1h42zm-19.3 3.8c1.3 0 2.3 1 2.3 2.3s-1 2.3-2.3 2.3-2.3-1-2.3-2.3 1-2.3 2.3-2.3zm-11.1 2.3c0-4.1 2.2-7.7 5.6-9.6l3.4 5.8c-1.3.8-2.2 2.2-2.2 3.8zm11.1 11.1c-2 0-3.9-.5-5.5-1.5l3.4-5.8c.6.4 1.4.6 2.2.6s1.5-.2 2.2-.6l3.4 5.8c-1.8.9-3.7 1.5-5.7 1.5zm4.4-11.1c0-1.6-.9-3-2.2-3.8l3.4-5.8c3.3 1.9 5.6 5.5 5.6 9.6z"/></svg>