<svg height="64" viewBox="0 0 64 64" width="64" xmlns="http://www.w3.org/2000/svg"><path d="m0 0h64v64h-64z" fill="none"/><path d="m12.1714 27.6429c-1.8572 2.7142-.9286 6.4343 1.9285 7.1486 1.8096.4524 3.2903-.3003 4.1345-.9135-.7577-.7283-1.2344-1.7465-1.2344-2.878 0-2.2056 1.7944-4 4-4h22c2.2056 0 4 1.7944 4 4 0 1.1315-.4767 2.1497-1.2345 2.8779.8442.6132 2.3249 1.3659 4.1345.9135 2.8571-.7143 3.7857-4.4343 1.9285-7.1486-2.3135-3.3814-7.4974-3.0721-11.0428-9.6428-4.1403-7.6734-4.2857-16.2143-4.2857-16.2143s-3.0714 8.0714-7.0714 13.2143c-3.2857-1.9286-4.6429-5-4.6429-5s-.2143 7.2143-3.1428 10.5c-2.9286 3.2857-7.6143 4.4286-9.4715 7.1429z"/><path d="m58 17h-10c-.5523 0-1 .4477-1 1v2c0 .5523.4477 1 1 1h7v17h-10.5476l-2.2222-5h.7698c1.1046 0 2-.8954 2-2s-.8954-2-2-2h-22c-1.1046 0-2 .8954-2 2s.8954 2 2 2h.7698l-2.2222 5h-10.5476v-17h7c.5523 0 1-.4477 1-1v-2c0-.5523-.4477-1-1-1h-10c-2.2092 0-4 1.7908-4 4v38c0 .5523.4477 1 1 1h5c.5523 0 1-.4477 1-1v-14h10.2884c1.4561 2.4038 4.8464 5 12.7116 5s11.2555-2.5962 12.7116-5h10.2884v14c0 .5523.4477 1 1 1h5c.5523 0 1-.4477 1-1v-38c0-2.2092-1.7908-4-4-4zm-31.5 20.3c-.9941 0-1.8-.8058-1.8-1.8s.8058-1.8 1.8-1.8 1.8.8058 1.8 1.8-.8059 1.8-1.8 1.8zm5.5 0c-.9941 0-1.8-.8058-1.8-1.8s.8058-1.8 1.8-1.8 1.8.8058 1.8 1.8-.8059 1.8-1.8 1.8zm5.5 0c-.9941 0-1.8-.8058-1.8-1.8s.8058-1.8 1.8-1.8 1.8.8058 1.8 1.8-.8059 1.8-1.8 1.8z"/></svg>