<svg height="64" viewBox="0 0 64 64" width="64" xmlns="http://www.w3.org/2000/svg"><path d="m0 0h64v64h-64z" fill="none"/><path d="m48.8494 52h13.1506v-3h-13.1506c-.3143-1.5481-1.11-2.9177-2.2181-3.9595l8.1495-13.2076c.3923.0988.7963.1671 1.2192.1671 2.7614 0 5-2.2386 5-5s-2.2386-5-5-5c-.5645 0-1.0978.1143-1.604.2867l-9.2314-12.5534c.5237-.7863.8354-1.723.8354-2.7333 0-2.7614-2.2386-5-5-5-2.7398 0-5.1328 2.2474-4.9736 5.2673l-14.5089 6.7698c-1.3224-1.78-3.4103-2.9509-5.7802-3.0251l-1.546-9.012h-3.044l1.6326 9.5164c-2.3443.914-4.1183 2.9667-4.6293 5.4836h-6.1506v3h6.1506c.5392 2.656 2.4833 4.7985 5.0218 5.6272l-2.1194 18.4683c-2.3077.4431-4.053 2.4674-4.053 4.9045 0 2.7614 2.2386 5 5 5 2.1471 0 3.9629-1.3604 4.6713-3.2605l17.4221.8857c.6968 4.6187 5.4261 7.5189 9.8977 5.9421l2.6596 4.4327h3.4986l-3.5867-5.9779c1.1436-1.0491 1.9661-2.4424 2.2868-4.0221zm-9.4926-40.2851c.5014.1713 1.0305.2851 1.5932.2851.6649 0 1.2996-.1359 1.8843-.3715l9.1404 12.4296c-.1161.1585-.215.327-.3121.4989l-18.3749-3.8565zm11.6929 15.7788c.0103.1036.0148.2086.0313.3102l-18.498 9.3426-5.6808-6.9919 4.5721-6.7693zm-21.2074 11.0371-13.0487 6.5901 8.3539-12.3683zm-4.917-10.8092-3.6276-4.4647c.4402-.5358.8056-1.1346 1.085-1.7795l5.9208 1.2426zm-5.9578-2.5751 4.2031 5.173-9.0557 13.4075 2.038-17.7599c1.009-.0873 1.9596-.3736 2.8146-.8206zm12.8108 15.7671 3.924 4.8295c-.6823.8306-1.1817 1.8135-1.4576 2.8862l-16.1202-.8198zm6.2541 2.9399-3.5134-4.3242 17.4138-8.7948-7.8545 12.73c-2.0395-.7478-4.2049-.5734-6.0459.389zm-1.308-33.6011-6.6075 9.7827-7.119-1.4941c.0001-.0139.0021-.0272.0021-.041 0-.6019-.0785-1.1842-.2124-1.7451z"/></svg>