<svg enable-background="new 0 0 64 64" viewBox="0 0 64 64" xmlns="http://www.w3.org/2000/svg"><path d="m0 0h64v64h-64z" fill="none"/><path d="m48.3 35h1.4c.7 0 1.4-.6 1.4-1.4v-6.2c0-.7-.6-1.4-1.4-1.4h-5.7v-18.5c0-1.4-1.1-2.5-2.5-2.5s-2.5 1.1-2.5 2.5v18.5h-11.6l18 18z"/><path d="m25 7.5c0-1.4-1.1-2.5-2.5-2.5s-2.5 1.1-2.5 2.5v11.1l5 5z"/><path d="m57.1 58.8-50.6-50.6-2.1 2.1 15.6 15.6v.1h-5.6c-.7 0-1.4.6-1.4 1.4v6.2c0 .7.6 1.4 1.4 1.4h10.9c0 .1.1.4-.3.5l-8.3 1.7h-.1l5.5 17.1c.4 1.1 1.4 1.7 2.6 1.7h4.3v6h6v-6h4.5c1.2 0 2.2-.6 2.6-1.7l1.5-4.7 11.4 11.3z"/></svg>