<?xml version="1.0" encoding="utf-8"?>
<!-- Generator: Adobe Illustrator 24.0.1, SVG Export Plug-In . SVG Version: 6.00 Build 0)  -->
<svg version="1.1" xmlns="http://www.w3.org/2000/svg" xmlns:xlink="http://www.w3.org/1999/xlink" x="0px" y="0px"
	 viewBox="0 0 64 64" style="enable-background:new 0 0 64 64;" xml:space="preserve">
<style type="text/css">
	.st0{fill:none;}
	.st1{fill:#FF1D25;}
	.st2{fill:#1D1D1B;}
</style>
<g id="Box">
	<rect class="st0" width="64" height="64"/>
</g>
<g id="Icon">
	<g>
		<path d="M48.3,35h1.4c0.7,0,1.4-0.6,1.4-1.4v-6.2c0-0.7-0.6-1.4-1.4-1.4L44,26V7.5C44,6.1,42.9,5,41.5,5C40.1,5,39,6.1,39,7.5V26
			H27.4l18,18L48.3,35z"/>
		<path d="M25,7.5C25,6.1,23.9,5,22.5,5C21.1,5,20,6.1,20,7.5v11.1l5,5V7.5z"/>
		<path d="M57.1,58.8L6.5,8.2l-2.1,2.1L20,25.9V26l-5.6,0c-0.7,0-1.4,0.6-1.4,1.4v6.2c0,0.7,0.6,1.4,1.4,1.4h10.9
			c0,0.1,0.1,0.4-0.3,0.5l-8.3,1.7l-0.1,0l5.5,17.1c0.4,1.1,1.4,1.7,2.6,1.7H29v6h6v-6h4.5c1.2,0,2.2-0.6,2.6-1.7l1.5-4.7L55,60.9
			L57.1,58.8z"/>
	</g>
</g>
</svg>
