<?xml version="1.0" encoding="utf-8"?>
<!-- Generator: Adobe Illustrator 25.0.0, SVG Export Plug-In . SVG Version: 6.00 Build 0)  -->
<svg version="1.1" xmlns="http://www.w3.org/2000/svg" xmlns:xlink="http://www.w3.org/1999/xlink" x="0px" y="0px"
	 viewBox="0 0 64 64" style="enable-background:new 0 0 64 64;" xml:space="preserve">
<style type="text/css">
	.st0{fill:none;}
	.st1{fill:#FFFFFF;}
	.st2{fill:#B3B3B3;}
</style>
<g id="Box">
	<rect class="st0" width="64" height="64"/>
</g>
<g id="Icon">
	<g>
		<path d="M13.5,11.977c3.137,0,4.952-2.209,4.952-5.389c0-3.624-1.897-5.566-4.952-5.566c-3.218,0-4.952,2.297-4.952,5.566
			C8.548,10.034,10.363,11.977,13.5,11.977z"/>
		<path d="M47.5,11.977c3.137,0,4.952-2.209,4.952-5.389c0-3.624-1.897-5.566-4.952-5.566c-3.218,0-4.952,2.297-4.952,5.566
			C42.548,10.034,44.363,11.977,47.5,11.977z"/>
		<rect x="27" y="31" width="35" height="4"/>
		<path d="M44,25.132c0-0.703-0.369-1.354-0.971-1.715L39,21v-6c0-0.552-0.448-1-1-1H28c-0.552,0-1,0.448-1,1v14h17V25.132z"/>
		<path d="M27.5,39.967c0-1.884-1.053-3.491-2.533-4.147c0.005-8.684,0.391-19.608-5.943-21.119c-3.337-0.796-7.805-0.796-11.049,0
			c-6.362,1.561-5.942,11.647-5.942,20.357c0.21,3.052,2.454,3.92,3.801,3.92c0-0.142,0-8.641,0-9.167
			c0-3.449,0.336-6.14,0.756-7.482C6.719,21.922,7,22,7,22v41c0,0,4.865,0.039,5.237-5.05c0,0,0.728-19.243,0.736-19.457
			C12.981,38.279,13.14,38,13.5,38s0.508,0.279,0.517,0.493c0.008,0.214,0.731,19.317,0.731,19.317C15.036,63.049,20,63,20,63v-7h10
			V40h-2.503C27.497,39.989,27.5,39.979,27.5,39.967z M21.166,36.356C20.681,36.748,20.287,37.26,20,37.85V22
			c0,0,0.302-0.105,0.449,0.331c0.406,1.203,0.716,4.033,0.716,7.435C21.166,30.183,21.166,33.83,21.166,36.356z M25.497,40h-3.995
			c0-0.011-0.003-0.021-0.003-0.033c0-1.363,0.895-2.467,2-2.467s2,1.105,2,2.467C25.5,39.979,25.497,39.989,25.497,40z"/>
		<path d="M46,25.132V29h1.5h6.447v-7c0,0,0.302-0.105,0.449,0.331c0.375,1.111,0.665,3.615,0.708,6.669h3.788
			c-0.139-6.82-1.002-13.125-5.921-14.298c-1.643-0.392-3.561-0.584-5.471-0.59c-1.91,0.006-3.828,0.198-5.471,0.59
			c-0.367,0.088-0.705,0.213-1.029,0.356v4.81l3.058,1.835C45.256,22.421,46,23.736,46,25.132z"/>
	</g>
</g>
</svg>
