<?xml version="1.0" encoding="utf-8"?>
<!-- Generator: Adobe Illustrator 17.1.0, SVG Export Plug-In . SVG Version: 6.00 Build 0)  -->
<svg version="1.2" baseProfile="tiny" xmlns="http://www.w3.org/2000/svg" xmlns:xlink="http://www.w3.org/1999/xlink" x="0px"
	 y="0px" width="64px" height="64px" viewBox="0 0 64 64" xml:space="preserve">
<g id="Box">
	<rect fill="none" width="64" height="64"/>
</g>
<g id="Icon">
	<g>
		<path d="M36.2039,18.9631c2.829,0.1697,4.5938-1.7385,4.7778-4.6282c0.2098-3.2911-1.3889-5.1588-4.144-5.3243
			c-2.9023-0.174-4.5987,1.8189-4.7877,4.789C31.8505,16.9297,33.3754,18.7933,36.2039,18.9631z"/>
		<path d="M7.0355,45.0003c-3.2405,0.0317-4.9617,1.7729-4.9352,4.549c0.0284,2.9243,2.0982,4.4794,5.0225,4.4503
			c3.082-0.0303,4.8043-1.6971,4.7768-4.5471C11.8721,46.6021,9.8807,44.9722,7.0355,45.0003z"/>
		<path d="M40.3054,47.7137c1.3726-2.1694,2.3515-3.7497,3.6451-5.6002c1.6528-0.3476,4.9184-0.6467,6.6106-0.7903
			c4.2502-0.4095,5.9329-2.8573,5.9485-4.6654c-3.3266-0.2094-5.5065-0.3646-8.6238-0.4575
			c-5.4742-0.159-6.5384,0.3935-7.5709,1.1658c1.1362,0.6943-1.3749-0.8393,1.6875,1.0308c-1.0605,1.3743-2.62,3.1147-5.6816,2.9728
			c-4.0561,4.3506-1.9561,2.1139-3.3337,3.6302H18.0909C14.9091,45,13.3,46.9883,13.3,49.4736c0,2.4852,1.7909,4.5,4.7909,4.5
			c7.3281,0,10.8522,0,17.9091,0c0,0-0.0455-3.4436-4.8428-4.0172c-3.7096-0.4435-10.0031-0.8113-12.29-0.9366
			c-0.0524-0.1989,0.109-0.3751,0.5461-0.4278c0.4864-0.0587,7.3259-0.6746,11.9221-0.1248c4.802,0.5743,6.1281,3.8073,6.163,5.4601
			l17.7414,0.0341c3.9406-0.0875,5.79-2.2312,6.5833-3.6624L40.3054,47.7137z"/>
		<path d="M33.6788,39.2792c3.8745,1.4563,5.4206,0.082,5.9932-0.5479c-4.4092-2.6913-8.6467-5.3828-8.6467-5.3828l0.8008-5.7182
			c0.0585-0.0132,0.269-0.0316,0.3273,0.2964l0.282,4.5388c1.1238,0.7101,3.7017,2.3318,6.5461,4.0819
			c0.3772-0.3364,0.4879-0.4518,0.924-0.7155l0.8059-7.1078c1.3795,1.4121,3.7752,3.6201,6.3252,6.0164
			c1.8752,0.0385,4.1348,0.139,5.9232,0.2516c-1.919-2.3593-8.9614-9.6983-11.4946-11.8522
			c-2.5307-2.1518-8.5455-2.7228-11.5089-1.112c-1.0546,0.5732-2.1959,1.707-2.4411,3.068
			c-0.1978,1.098-0.9161,6.6899-1.0596,8.9264c-0.0614,0.9575,0.2586,1.5513,0.8044,2.0684
			C28.5779,37.3395,31.7521,38.555,33.6788,39.2792z"/>
		<path d="M27.4032,38.0707c-0.1951,2.4702-0.3363,4.5432-0.3841,5.5366h5.1823c0.901-0.9917,0.3877-0.4351,2.3271-2.5132
			C32.8371,40.6842,29.228,39.2406,27.4032,38.0707z"/>
	</g>
</g>
</svg>
