<?xml version="1.0" encoding="utf-8"?>
<!-- Generator: Adobe Illustrator 19.1.0, SVG Export Plug-In . SVG Version: 6.00 Build 0)  -->
<svg version="1.2" baseProfile="tiny" xmlns="http://www.w3.org/2000/svg" xmlns:xlink="http://www.w3.org/1999/xlink" x="0px"
	 y="0px" width="64px" height="64px" viewBox="0 0 64 64" xml:space="preserve">
<g id="_x36_4px_Box">
	<rect fill="none" width="64" height="64"/>
</g>
<g id="Icon">
	<g>
		<path d="M19.5597,11.5237c2.8945,0.886,5.1898-0.6281,6.0831-3.5468c1.0178-3.3243-0.1871-5.6429-3.006-6.5062
			C19.6672,0.562,17.4224,2.18,16.5042,5.1801C15.5363,8.3417,16.6658,10.6378,19.5597,11.5237z"/>
		<path d="M30.8538,10.7576c2.3792,0.6923,4.2229-0.6358,4.8955-3.1254c0.7664-2.8355-0.2617-4.7749-2.5787-5.4494
			c-2.4408-0.7101-4.2415,0.7051-4.9327,3.2641C27.5092,8.1437,28.4752,10.0654,30.8538,10.7576z"/>
		<path d="M7.8925,10.7697c2.3889,0.6682,4.2227-0.6788,4.8727-3.1754c0.7407-2.8435-0.3071-4.7726-2.6337-5.4236
			C7.6807,1.4854,5.8909,2.9189,5.2228,5.4851C4.5185,8.1895,5.504,10.1016,7.8925,10.7697z"/>
		<path d="M37.7057,45.95c0.4163,3.1157,1.1038,6.1913,2.059,9.1904c0.3589,1.1103,1.6111,1.8202,2.7435,1.6017
			c0.3641-0.0703,0.7281-0.1406,1.0922-0.2108c-1.1016-2.4022-3.3225-7.7689-3.368-7.8549
			C39.8668,47.9869,38.3142,46.5699,37.7057,45.95z"/>
		<path d="M26.9124,48.9307c-0.2096-0.6752-0.4072-1.299-0.5839-1.8373c-0.8951-2.7269-1.016-2.7699-1.5951-3.7217
			c-0.6775-1.1134-1.3194-1.9691-1.9498-2.8424c-1.3216-1.7959-2.694-3.5524-4.0899-5.2991
			c0.7922-2.983,4.5994-15.687,3.3896-18.6968c-1.0278-2.3485-6.2377-4.8454-9.8432-2.6969
			c-1.9837,1.1821-5.7144,3.9563-7.6051,6.0283c-1.1489,1.2746-1.613,2.0419-2.1057,4.8385c-0.3,1.7635-0.4926,3.8031-0.5282,5.5777
			c-0.0396,1.9717,1.0039,3.8375,3.0701,4.2678c0.4451-3.3688,1.1487-8.403,2.2279-10.5869
			c0.4394-0.889,2.4294-2.2172,3.2609-2.7574c-0.5286,2.4518-2.3518,10.6283-2.3518,12.5007c0,2.3154,1.4959,3.518,2.451,4.5186
			l3.7331,3.9111c0,0-0.1386,0.2378-0.4566,0.0537c-1.6328-0.9453-3.7839-2.1867-3.7839-2.1867
			c-0.5365,2.0231-1.4125,5.3192-2.1817,7.2795c-0.6125,1.5609-0.4012,1.1173-0.9948,2.1323
			c-1.201,2.0535-2.751,4.1289-4.0837,6.4602c-2.1914,3.8334,0.4587,6.6486,0.8304,7.0083
			c2.1537-3.0253,5.866-7.4979,7.9595-10.6465c0.7007-1.0398,0.7781-1.1244,1.5663-2.6381c0.5991-1.2116,1.4144-2.9511,2.5855-5.852
			c0.5138,0.4693,1.0106,0.9995,1.524,1.5161c1.2635,1.2713,2.0442,1.8894,2.5422,2.8286c0.1504,0.2837,0.4639,0.9288,0.7798,1.7426
			c0.8383,2.1595,1.5974,3.9088,2.2648,5.384c0.0162-0.0291,0.0278-0.0577,0.0445-0.0869c0.7501-1.3121,1.5535-2.5287,2.3306-3.7052
			C25.8896,50.5609,26.4227,49.7413,26.9124,48.9307z"/>
		<path d="M29.721,59.4171c-0.7833,1.0127-1.5304,1.9814-2.2098,2.8842c1.3477,0.6316,2.7663,0.6596,3.3403,0.4857
			c-0.2487-0.9828-0.58-2.2259-0.9562-3.5957C29.8372,59.2664,29.779,59.342,29.721,59.4171z"/>
		<path d="M60.6036,38.2477c-0.3588-1.1102-1.6111-1.8204-2.7435-1.6018c-1.8532,0.3576-3.6759,0.7253-5.5292,1.0829l-0.2181-1.1006
			c-0.2396-1.2083-1.2605-2.0853-2.4276-2.0853c-0.0145,0-0.0289,0.004-0.0436,0.0043c-1.171-2.2498-2.651-4.9542-2.8672-5.9888
			c-0.5394-2.4711-0.3733-8.9693-1.0446-10.96c-0.5274-1.564-2.0953-3.0026-3.5302-3.8024
			c-2.3404-1.3539-6.0156-2.0775-8.4059-0.6531c-2.0164,1.2017-5.8087,4.0216-7.7307,6.1279
			c-1.1679,1.2957-2.4548,2.0756-2.9557,4.9184c-0.3049,1.7926-0.7198,3.8682-0.756,5.6721
			c-0.0261,1.2986,0.4174,2.5448,1.299,3.3854c0,0,0.8904,0.6707,1.8232,0.9425c0,0,0.5992-5.5485,2.446-9.9164
			c0.3926-0.9285,3.3211-3.0911,4.1662-3.6403c-0.5373,2.4923-2.3906,10.8038-2.3906,12.7071c0,2.3537,1.5207,3.5761,2.4916,4.5933
			l3.7947,3.9756c0,0-0.1408,0.2418-0.4642,0.0546c-1.6598-0.9608-3.8464-2.2228-3.8464-2.2228
			c-1.0912,4.1153-2.0268,7.512-3.2288,9.5672c-1.2209,2.0875-2.7966,4.1971-4.1512,6.5669
			c-2.2276,3.8967,0.4663,6.7584,0.8442,7.124c2.1892-3.0752,5.9628-7.6216,8.0909-10.8223
			c1.6575-2.4597,2.8979-5.3544,4.2204-8.6303c0.6759,0.6174,3.6636,3.5308,4.1333,4.4164
			c0.1529,0.2884,0.4716,0.9441,0.7927,1.7714c1.9601,5.0497,3.5273,7.9895,4.395,10.0593
			c1.3045,3.1118,4.9286,3.4169,5.9451,3.1088c-0.9998-3.9526-3.3099-12.0297-4.5976-15.9528
			c-0.9099-2.7719-1.0328-2.8156-1.6215-3.7831c-1.363-2.24-4.4984-6.2226-6.1394-8.2759c0.2359-1.2373,1.0387-4.7197,1.8746-8.3722
			c0.0956,0.9484,0.2289,1.9399,0.4985,3.0301c0.3303,1.2717,2.6301,4.9299,3.325,5.8596c-0.8061,0.5447-1.2518,1.5715-1.042,2.6292
			l0.0966,0.4869c1.6794,2.2356,2.2289,3.1024,2.8553,4.1191c0.5432,0.8762,0.7733,1.3075,1.6017,3.8307
			c0.6876,2.0949,1.6414,5.2895,2.5369,8.4179c2.9915-0.5771,5.9525-1.1645,8.9439-1.7416
			c1.1323-0.2186,2.0306-1.3434,1.9507-2.5075C62.6877,46.431,61.8849,42.2708,60.6036,38.2477z M47.217,38.7155l-0.213-1.0744
			c-0.0568-0.2866,0.0715-0.5536,0.2864-0.5962l2.3358-0.4632c0.237-0.0472,0.4424,0.1904,0.4921,0.4419l0.2162,1.0904
			C49.2955,38.3145,48.2562,38.515,47.217,38.7155z"/>
		<path d="M42.1348,11.5605c2.8396,1.1096,5.2513-0.2579,6.3583-3.1519c1.2611-3.2961,0.2198-5.735-2.5455-6.816
			c-2.9131-1.1382-5.2819,0.3384-6.4195,3.3131C38.3287,8.0406,39.2959,10.451,42.1348,11.5605z"/>
	</g>
</g>
</svg>
