<?xml version="1.0" encoding="utf-8"?>
<!-- Generator: Adobe Illustrator 19.1.0, SVG Export Plug-In . SVG Version: 6.00 Build 0)  -->
<svg version="1.2" baseProfile="tiny" xmlns="http://www.w3.org/2000/svg" xmlns:xlink="http://www.w3.org/1999/xlink" x="0px"
	 y="0px" width="64px" height="64px" viewBox="0 0 64 64" xml:space="preserve">
<g id="_x36_4px_Box">
	<rect fill="none" width="64" height="64"/>
</g>
<g id="Icon">
	<g>
		<path d="M30.5417,57l-4.9117-16.84c-0.3734-1.28-1.5467-2.16-2.88-2.16H3.2667c-1.1333,0-1.9493,1.088-1.632,2.176L7.3701,59.84
			c0.3734,1.28,1.5467,2.16,2.88,2.16h32.75c2.7614,0,5-2.2386,5-5H30.5417z"/>
		<path d="M57.606,42.1328c-2.1834-2.3746-8.462-4.4958-11.386-5.3825c-0.155-1.1155-0.3614-2.412-0.5466-3.4883
			c1.7886-2.1667,2.8874-4.407,3.2495-6.6991c1.3281-1.2195,2.0679-3.1669,2.0679-5.5569c0-0.7447,0.0012-2.703-1.2268-4.0371
			c0.3037-3.3378,0.515-8.5037-0.7869-10.5873c-1.6026-2.5649-3.5498-3.816-7.2632-2.9776
			c-2.4355-1.1577-4.0937-1.8824-8.3608-0.8398c-2.9649,0.7241-6.21,1.9066-7.92,3.8797c-1.652,1.9066-1.5394,7.2237-1.274,10.6054
			c-1.1589,1.332-1.1635,3.2256-1.1635,3.9557c0,2.386,0.7374,4.3298,2.0614,5.5497c0.3819,2.5118,1.613,4.9141,3.7105,7.2619
			c-0.106,0.807-0.2283,1.7498-0.353,2.7313c-0.5731,0.1675-1.4145,0.4178-2.3588,0.7297c0.6899,0.611,1.2255,1.4006,1.4941,2.3231
			L32.0421,55h3.958c0-1.6569,2.2386-3,5-3s5,1.3431,5,3h2c1.1045,0,2,0.914,2,2.0185c0,1.9398-0.797,3.9815-2.0762,4.9815h14.0693
			C61.9932,62,60.4796,45.2568,57.606,42.1328z M37.6505,36.7635c3.1548,0.8349,5.4595-0.9139,5.4595-0.9139
			s0.2828,1.9133,0.2745,2.4157c0.3267,3.4883-3.5569,7.3169-6.0103,9.0784c-2.3003-1.75-6.5919-5.5302-6.1588-9.0224
			c0.237-1.9129,0.0408-0.5492,0.8235-5.4371c-2.2767-2.1999-4.1043-4.8665-4.1043-8.061
			c-1.6177-0.5038-2.0414-2.5453-2.0414-3.8183c0-1.2725,0.3217-1.961,0.7738-2.1743c0.3921-0.1844,0.7725-0.0476,1.013,0.0886
			c0.1414,0.6528,0.2517,1.1384,0.2932,1.3098c0.206,0.8511,1.0268,0.7729,1.0268,0.7729v-6.7451
			c2-0.1505,6.1937-0.7531,10.7499-3.1062l5.2501,3.5262v6.3251c0,0,0.814,0.0782,1.02-0.7729
			c0.0414-0.1714,0.1467-0.657,0.2881-1.3098c0.2405-0.1362,0.62-0.273,1.0121-0.0886c0.4521,0.2133,0.7734,0.9018,0.7734,2.1743
			c0,1.2729-0.4239,3.3145-2.0416,3.8183c0,3.7027-2.5336,6.4959-5.3404,8.8846c-0.7807,0.6644-2.25,1.1066-3.7189,1.1055
			c-1.0628-0.0008-2.1255-0.2865-2.9271-0.6349C34.6795,35.1089,35.721,36.2528,37.6505,36.7635z"/>
	</g>
</g>
</svg>
