<?xml version="1.0" encoding="utf-8"?>
<!-- Generator: Adobe Illustrator 19.1.0, SVG Export Plug-In . SVG Version: 6.00 Build 0)  -->
<svg version="1.2" baseProfile="tiny" xmlns="http://www.w3.org/2000/svg" xmlns:xlink="http://www.w3.org/1999/xlink" x="0px"
	 y="0px" width="64px" height="64px" viewBox="0 0 64 64" xml:space="preserve">
<g id="_x36_4px_Box">
	<rect fill="none" width="64" height="64"/>
</g>
<g id="Icon">
	<g>
		<path d="M57.6128,42.1104c-1.4393-1.5654-4.6559-3.0141-7.5203-4.0754c1.2807-1.7227,4.1273-6.1295,3.8942-11.035
			c-0.2435-5.125-2.754-7.4424-4.5433-12.5833C47.371,8.4623,45.4023,2.0001,37.0003,2h-0.0001H37
			c-8.402,0.0001-10.3707,6.4623-12.4431,12.4167C22.7676,19.5576,20.2571,21.875,20.0136,27c-0.1678,3.5327,1.2607,6.8008,2.5522,9
			H22.75c2.208,0,4.1826,1.4805,4.7998,3.6006L32.042,55H36c0-1.6569,2.2386-3,5-3s5,1.3431,5,3h2c1.1045,0,2,0.8955,2,2
			c0,1.9579-0.8104,3.7283-2.1105,5H62C62,62,60.4863,45.2344,57.6128,42.1104z M46.0133,25.6289
			c-0.3372,3.3047-2.697,5.8639-5.295,8.075c-0.7807,0.6644-2.2499,1.1066-3.7188,1.1055
			c-1.0628-0.0008-2.1255-0.2865-2.9271-0.6349c0.6138,0.9305,1.6553,2.0744,3.5848,2.5851
			c3.1548,0.8349,5.4595-0.9139,5.4595-0.9139s0.2828,1.9133,0.2745,2.4157c0.3267,3.4883-3.5568,7.3169-6.0102,9.0784
			c-2.3004-1.75-6.5919-5.5302-6.1588-9.0224c0.237-1.9129,0.0408-0.5492,0.8235-5.4371c-2.0814-2.0112-3.77-4.4177-4.0474-7.2557
			c-1.7803,0.7063-3.3494,1.688-4.5804,3.0432c-0.0526-0.0569-0.1642-0.1666,0.0292-0.4936c2.501-4.2287,7.8895-7.174,13.5527-7.174
			c5.6633,0,11.0518,2.9453,13.5528,7.174c0.1934,0.327,0.0817,0.4366,0.0292,0.4936
			C49.3535,27.3155,47.7888,26.3349,46.0133,25.6289z"/>
		<path d="M30.5417,57L25.63,40.16C25.2567,38.88,24.0833,38,22.75,38H3.2667c-1.1333,0-1.9493,1.088-1.632,2.176L7.37,59.84
			C7.7433,61.12,8.9167,62,10.25,62H43c2.7614,0,5-2.2386,5-5H30.5417z"/>
	</g>
</g>
</svg>
