<?xml version="1.0" encoding="utf-8"?>
<!-- Generator: Adobe Illustrator 22.1.0, SVG Export Plug-In . SVG Version: 6.00 Build 0)  -->
<!DOCTYPE svg PUBLIC "-//W3C//DTD SVG 1.1//EN" "http://www.w3.org/Graphics/SVG/1.1/DTD/svg11.dtd">
<svg version="1.1" xmlns="http://www.w3.org/2000/svg" xmlns:xlink="http://www.w3.org/1999/xlink" x="0px" y="0px" width="64px"
	 height="64px" viewBox="0 0 64 64" style="enable-background:new 0 0 64 64;" xml:space="preserve">
<style type="text/css">
	.st0{fill:none;}
</style>
<g id="Box">
	<rect class="st0" width="64" height="64"/>
</g>
<g id="Icon">
	<g>
		<g>
			<path d="M16,54.5v6.9c0,2,4,2,4,0v-6.9C20,52.5,16,52.5,16,54.5z M31,10.9c2.8,0,4.5-2,4.5-4.9c0-3.3-1.7-5-4.5-5
				c-2.9,0-4.5,2.1-4.5,5C26.5,9.2,28.2,10.9,31,10.9z M36.6,13.6c-3-0.7-8.3-0.7-11.2,0c-5.8,1.4-5.4,10-5.2,17.9
				c0.1,2.8,2.3,3.8,3.5,3.8v-8.1c0-1.6,0.1-3.1,0.2-4.2c0.3-2.8,0.6-2.9,1.1-2.8v14.3L22.5,56H21v4l10.5-1l9.5,1v-4h-1.5l-2.6-21.6
				V20.2c0.6-0.1,0.9,0,1.2,2.8c0.1,1.2,0.2,2.6,0.2,4.2v5.7c0,1.3,0,2.4,0,2.4c1.2,0,3.4-1.1,3.5-3.8C42.1,23.6,42.4,15,36.6,13.6z
				 M27.2,56c1.2-7.7,3.3-21,3.4-21.1c0-0.2,0.2-0.4,0.5-0.4s0.4,0.3,0.5,0.4c0,0.1,1.3,7.7,3.3,21.1H27.2z M42,54.5v6.9
				c0,2,4,2,4,0v-6.9C46,52.5,42,52.5,42,54.5z"/>
		</g>
	</g>
</g>
</svg>
