<?xml version="1.0" encoding="utf-8"?>
<!-- Generator: Adobe Illustrator 19.2.0, SVG Export Plug-In . SVG Version: 6.00 Build 0)  -->
<svg version="1.0" xmlns="http://www.w3.org/2000/svg" xmlns:xlink="http://www.w3.org/1999/xlink" x="0px" y="0px"
	 viewBox="0 0 64 64" enable-background="new 0 0 64 64" xml:space="preserve">
<g id="achtergrond">
</g>
<g id="paneel_1">
	<g>
		<path d="M36.28,15.3308c2.9947,0.5502,5.1876-0.8835,5.851-3.4076c0.7563-2.8747-0.6507-4.7488-3.5667-5.2847
			c-3.0729-0.563-5.2063,0.9549-5.8877,3.5502C31.957,12.9209,33.2855,14.782,36.28,15.3308z"/>
		<path d="M45.5025,27.294c-1.071-0.7297-3.2299-4.1117-3.8619-5.1336c-1.4324-2.3202-2.0608-4.7901-9.057-5.3858
			c-0.6463-0.0541-1.3523-0.0642-2.0908-0.04c-0.2293-1.3467-1.4017-2.5125-3.0797-2.8689l-2.8941-0.6669
			c-2.2151-0.4704-6.1025,0.7767-7.4462,5.011l-2.5785,8.7036c-0.5619,1.8499,0.7776,3.7313,2.9929,4.1987l4.4109,0.9349
			c1.423,0.3008,2.8581-0.0556,3.8531-0.838c-0.1015,0.526-0.1834,0.9692-0.2422,1.2913c-0.659,3.6328,2.0772,4.8242,5.0462,6.3308
			c0,0,0.0026,0.1481-0.37,0.1511c-0.2055,0-1.6687-0.1995-3.3766-0.4432c-0.8468,1.5776-2.8061,5.1136-3.8149,6.536
			c-2.6143-0.0228-7.2622-1.0903-8.5787-1.3254c-3.6937-0.6556-4.9344,2.6566-4.9344,2.6566
			c3.2275,1.0318,11.1572,3.4646,14.5799,3.2751c1.9781-0.1111,2.7063-0.7068,4.1711-2.4442
			c1.5877-1.8826,3.7527-4.8813,5.0973-6.7782c1.5961,0.657,3.8771,1.6161,5.4033,2.3686c0.5918,2.393,0.9926,8.0781,1.1349,10.4981
			c0.076,1.2984,1.6406,3.4804,4.7655,4.153c0.2455-3.3749,0.428-5.5284,0.5466-8.8875c0.0622-1.7503,0.1177-3.5929,0.0145-5.5726
			c-0.0776-1.1772-0.1399-2.1135-0.6694-3.0656c-0.4954-0.8921-1.7309-1.9126-8.4423-5.9986
			c0.6899-2.8205,1.6057-6.1013,2.3713-8.7551c1.0053,1.5506,3.1515,4.5907,5.0785,5.3403
			c1.5273,0.5944,5.2926,0.5658,7.0184,0.4561c3.0184-0.1909,3.8156-2.353,3.9691-2.8546
			C49.0522,27.7159,46.5147,27.5305,45.5025,27.294z"/>
	</g>
</g>
</svg>
