<?xml version="1.0" encoding="utf-8"?>
<!-- Generator: Adobe Illustrator 19.1.0, SVG Export Plug-In . SVG Version: 6.00 Build 0)  -->
<svg version="1.2" baseProfile="tiny" xmlns="http://www.w3.org/2000/svg" xmlns:xlink="http://www.w3.org/1999/xlink" x="0px"
	 y="0px" width="64px" height="64px" viewBox="0 0 64 64" xml:space="preserve">
<g id="_x36_4px_Box">
	<rect fill="none" width="64" height="64"/>
</g>
<g id="Icon">
	<g>
		<polygon points="13.0555,24.577 18.8367,33.3352 19.7551,30.8064 23.2219,33.0469 24.5694,30.9634 21.2314,28.8062 
			23.7108,27.1863 		"/>
		<path d="M7,40V20h23.9993c-0.0891-1.6116-0.0761-2.9252,0.0001-4H4.5C3.6716,16,3,16.6716,3,17.5v26C3,44.3284,3.6716,45,4.5,45
			h11.9634c0,0-0.8353,3.0801-0.9928,3.5807c-0.4161,1.3225-1.6506,1.4297-2.0654,1.4297H12c-0.5523,0-1,0.4477-1,1V52h9.4769
			c0.3306-3.4462,1.2272-9.0541,3.0422-12H7z"/>
		<path d="M58.7573,40.4941c-1.7839-1.8752-7.0994-3.5394-9.5623-4.2104c-0.659-0.1795-1.1024-0.7388-1.2507-1.4042
			c-0.1311-0.5882-0.2009-1.2626-0.2009-1.2626c1.5649-1.7448,2.7259-3.8523,3.1194-6.637
			c1.4965-0.4604,1.7958-2.3255,1.7958-3.4883c0-1.1624-0.2052-1.7914-0.6232-1.9864c-0.2016-0.0936-0.3986-0.0928-0.5737-0.0556
			c0.1505-2.4221,0.3002-7.2209-0.7109-9.0242c-1.1057-1.9714-2.5761-2.4826-5.1376-1.8383
			c-1.6802-0.8898-2.8242-1.7699-5.7678-0.9687c-2.0453,0.5565-4.2838,1.4655-5.4635,2.9819
			c-1.2726,1.6365-1.0273,6.4092-0.8123,8.8608c-0.1895-0.0518-0.412-0.061-0.6379,0.044c-0.4182,0.1949-0.6234,0.824-0.6234,1.9864
			c0,1.1628,0.2994,3.028,1.7959,3.4883c0.3537,2.9387,1.5354,4.9762,3.1152,6.6738c-0.0103,0.095-0.0761,0.6848-0.1967,1.2258
			c-0.1208,0.5421-0.4062,1.095-0.9154,1.2549c-2.647,0.8312-8.1159,2.4868-9.8975,4.3597C23.8963,42.9254,23.0272,52,23.0272,52
			H61.94C61.94,52,61.071,42.9254,58.7573,40.4941z"/>
	</g>
</g>
</svg>
