<svg version="1.2" xmlns="http://www.w3.org/2000/svg" width="778" height="663">
	<path
		d="M353.3 58.7c-19.3 32.9-57.9 98.7-85.9 146.2-27.9 47.6-50.6 87-50.6 87.5.2.8 51.3 1 171.1.6 94-.3 171.2-.8 171.5-1.2.3-.5-37.5-65.9-84-145.5C428.8 66.6 390.2.9 389.6.2c-.9-1.1-8.7 11.6-36.3 58.5zm42.2 420.9c-136.4.8-257.3 1.3-268.6 1.1l-20.6-.2C23.9 621.2.1 662.2.3 662.5c.1.2 175 .3 388.7.2l388.6-.2c-82.2-140.4-106.8-182-107.6-182.9-1.3-1.4-3.4-1.7-14-1.5-6.9.1-124.1.8-260.5 1.5zm-114-180.8l-69 .2C133 435 110.2 474.7 110.6 475c.3.3 125.1-.1 277.2-.8 152.2-.8 277-1.7 277.4-2 .3-.4-22.2-39.6-50-87.2l-50.7-86.5c-165.9 0-245 .1-283 .3z"
		fill="#75d1b5" />
	<path
		d="M390.3 205.6c-1.7.3-2.3 1.1-2.3 2.9 0 2.4.1 2.5 5 1.8l5-.8V241h5v-36c-8.1.2-11.5.4-12.8.6zm-6.2 352.9v2.5c19.1 0 20 .2 19.5 1.8-.3.9-2 3.5-3.8 5.6-1.7 2.1-4.9 4.7-7 5.7-2 1.1-4.4 1.9-5.2 1.9-1 0-1.4.8-1.2 2.3.1 1.6.7 2.1 2.2 1.9 1.1-.2 3.8-.4 6-.4 2.3 0 5 .8 6.4 1.9 1.3 1 2.8 3.2 3.2 4.8q.8 3-.7 6.3c-.8 1.8-2.8 3.9-4.7 4.8-1.7.9-5.8 1.9-9 2.3-5.1.5-5.7.8-5.7 2.9 0 2 .5 2.2 4.7 2.2 2.7 0 6.8-.7 9.3-1.5 2.5-.8 6.1-3.1 8-5.1 2.9-2.9 3.6-4.4 3.9-8.7.3-3.7 0-6-1.2-7.9-.9-1.6-3.5-3.6-5.6-4.5l-3.9-1.8c5.3-5.4 7.5-8.5 8.3-10.3.8-1.7 1.4-4.4 1.2-5.9l-.2-2.8-24.4-.6zm3.4-170.8c-1.4.4-1.9 1.2-1.7 2.9.2 2.4.4 2.4 6 1.8 4.5-.6 6.3-.3 8.5 1 1.9 1.2 2.7 2.5 2.8 4.4 0 1.6-1 3.7-2.3 4.9-1.2 1.2-4.1 3-6.3 4.1-2.2 1.1-5.4 3.6-7.2 5.6-1.8 2-3.3 4.6-3.3 5.7 0 1.1.3 2.6.5 3.5.4 1.2 2.9 1.5 14 1.5H412v-5c-22.6 0-22.9-.1-21.7-2 .7-1.1 4.5-3.9 8.6-6.2 4.3-2.6 7.9-5.5 8.7-7.1.8-1.5 1.4-4.1 1.4-5.7 0-1.9-1-4.2-2.9-6.3-2.7-3-3.4-3.2-9.7-3.4-3.8-.1-7.8 0-8.9.3z"
		fill="#fff" />
</svg>