<?xml version="1.0" encoding="utf-8"?>
<!-- Generator: Adobe Illustrator 22.1.0, SVG Export Plug-In . SVG Version: 6.00 Build 0)  -->
<!DOCTYPE svg PUBLIC "-//W3C//DTD SVG 1.1//EN" "http://www.w3.org/Graphics/SVG/1.1/DTD/svg11.dtd">
<svg version="1.1" xmlns="http://www.w3.org/2000/svg" xmlns:xlink="http://www.w3.org/1999/xlink" x="0px" y="0px" width="64px"
	 height="64px" viewBox="0 0 64 64" style="enable-background:new 0 0 64 64;" xml:space="preserve">
<style type="text/css">
	.st0{fill:none;}
</style>
<g id="Box">
	<rect class="st0" width="64" height="64"/>
</g>
<g id="Icon">
	<path d="M62.4,12.7l-2.5-1.4c-0.4-0.2-0.8-0.6-1-1c-0.6-1.2-1.7-2.5-3.5-2.8c-3.7-0.6-8.3,0.7-8.6,1.4c-0.3,1,2.8,1.4,3,3.4
		c0.2,2,1,6.2,0.2,8c-0.9,1.8-2.6,2.5-5.1,3.9c0.2,0.5,0.3,1,0.4,1.6c0.2,2.1-0.7,4.1-2.3,5.2c1.6,3.8,1.9,7.6,0.8,10.9
		c2.4-0.2,5-0.8,7.5-1.5c0.1,0.1,0.1,0.3-0.2,0.6c-2.6,1.9-5.6,2.9-8.2,3.2c-1.2,2.1-2.9,3.7-5.2,5c1.1,0.3,2.2,0.6,3.2,0.8l1,6.9
		c-1.1,0.4-2.3,1.2-3,2c0,0,0,0,0,0c-1.4-0.8-4.3-1.2-5.4-1.1l-1.3-6.1c1.3-0.5,2.5-2.2,3.5-3.8c7.8-3.4,8.2-11.2,4.6-17.9
		c2-0.2,3.3-1.9,3.1-3.8c-0.2-2-1.5-2.3-2.7-4.6c2-0.3,4,0.4,4,0.4c0.4,0,0.3-0.4,0-1c-0.8-1.6-2.3-2.8-3.4-4c2.1-2.3,2.5-4.4,2-5.1
		c-0.6-1-1.9,0-1.9,0s-0.2-1.7-0.9-2c-0.8-0.3-1.5,0.8-1.5,0.8s-0.3-1.9-1.3-2.1c-0.9-0.2-1.3,1.3-1.3,1.3s-0.8-1.6-1.8-1.3
		c-0.8,0.2-1.6,3.2,0.1,5.6c-2.3,0.9-3.4,2.5-4.2,4.2c-1.3,2.9-1.5,6.6-4.7,8.7c-1.9,1.2-6.8,3-11-0.5c-3.8-3.1-6.3-8.9-7.1-11
		c-1-2.8-9.2,5.5-1.7,14.2c-5.2-0.9-3.5,5.3,2.4,9.7c-0.9,0.2-1.6,0.6-1.8,1.2c-0.3,0.8,0.3,2,1.7,3c7.4,5.1,15.7,0.1,15.7,0.1
		c0.3,0.2,0.3,0.6-0.4,1.1c-1.9,1.4-3.9,2.3-5.7,2.8c1.1,1.5,2.4,2.9,3.9,3.5l2.9,6.5C22.8,58.4,20.7,60,21,61
		c0.1,0.6,0.8,0.7,1.6,0.3c0.6-0.3,2.4-1.5,3.8-1.5c1.3,0,4.6,1.5,6.4,2.4c0.6,0.3,1.5,0.2,1.5-0.5c0-0.6-0.6-1.3-1.5-1.9
		c2.9,0.1,5.6,0.7,5.6,0.7c0.5,0.1,1,0.1,1.5-0.3c0.6-0.3,2.1-1.4,3.4-1.4c1.2,0,4.3,1.4,6,2.2c0.5,0.3,1.4,0.2,1.4-0.4
		c0-0.7-0.7-1.4-1.8-2.1c2.3,0.2,4.3,0.8,4.3,0.8c1.1,0.3,2-0.8-0.6-2c-0.8-0.4-2.4-0.8-4.2-0.9l1.3-7.4c5.7-2.2,11.6-7.3,12.2-14.6
		c0.6-7.5-2.2-13.9-3.3-17.6c0.9-0.6,1.3-1.1,1.5-2.4l2.3-0.6C62.8,13.5,62.8,12.9,62.4,12.7z M37.5,17c0.8,0,1.5,0.7,1.5,1.5
		c0,0.8-0.7,1.5-1.5,1.5c-0.8,0-1.5-0.7-1.5-1.5C36,17.7,36.7,17,37.5,17z M27,57.4l-1.6-5.8c1,0,2.1,0,3.2,0l2.3,7.1
		C29.6,58.1,28.2,57.6,27,57.4z M46.2,57.2c-0.6-0.2-1.6-0.4-2.2-0.5l0.1-6.5c0.5,0,1.1,0,2.5-0.3L46.2,57.2z M55,13.5
		c-0.8,0-1.5-0.7-1.5-1.5c0-0.8,0.7-1.5,1.5-1.5s1.5,0.7,1.5,1.5C56.5,12.8,55.8,13.5,55,13.5z"/>
</g>
</svg>
