<?xml version="1.0" encoding="utf-8"?>
<!-- Generator: Adobe Illustrator 17.1.0, SVG Export Plug-In . SVG Version: 6.00 Build 0)  -->
<svg version="1.2" baseProfile="tiny" xmlns="http://www.w3.org/2000/svg" xmlns:xlink="http://www.w3.org/1999/xlink" x="0px"
	 y="0px" width="64px" height="64px" viewBox="0 0 64 64" xml:space="preserve">
<g id="Box">
	<rect fill="none" width="64" height="64"/>
</g>
<g id="Icon">
	<g>
		<path d="M58.9333,9.8333c-0.1162-1.278-0.433-2.2722-0.7072-2.9275C57.9943,6.3515,57.4482,6,56.8473,6h-5.9306
			c0,0-1.6367-2.18-3.72-3.2634c-3.0204-1.5706-7.28,1.0967-7.28,1.0967s-1.25-0.3333-3.8334,1
			c-2.5833,1.3333-3.77,7.9733-3.8533,10.2233c-0.0582,1.5733,1.4182,2.0689,2.75,1.9167
			c-0.0005,0.0019-0.0011,0.0034-0.0016,0.0053c1.6265-0.0745,2.9084-0.7065,4.3814-1.8883
			c0.1847-0.004,0.1446,0.2995,0.0236,0.5866c-0.287,0.681-1.6934,2.8362-4.9853,3.2244C32.395,24.3224,29.6956,25.0544,23.5,31.25
			c-6.8333,6.8333-6.5833,20-6.5833,20S14.75,53.6666,10.75,52.8333c-3.6988-0.7706-2.9385-4.34-1.9102-6.8124
			c0.3614-0.8691-0.5833-1.7167-1.4025-1.2531c-4.9262,2.7878-5.1089,7.6417-3.104,10.5655C5.9955,57.7573,9.8309,59,14,59
			c1.986,0,6.4201,0,11.6361,0c-3.3601-11.0684-1.3068-21.4398,10.0291-22.6858c-1.5048-3.6097-1.366-7.011-0.8509-9.8021
			c0,0,1.6144,0.9897,3.1457,2.0609c0,0,2.3084-1.0712,5.0205,0c0,0,1.6841-1.5607,3.2211-2.0609
			c0.4859,2.5504,0.8702,7.789-1.9064,11.3292c0,0,1.515,2.834,0.765,7.2507C44.3101,49.5087,42,51.8333,42,51.8333v4.097
			c0,0,1.7232,0.7673,2.2854,3.0697C49.8951,59,54,59,54,59c0,0.0833,1.0833-2.5-0.5-4.0834
			c-1.5023-1.5023-4.254-0.4659-3.1788-5.4228C51.6876,43.1948,55.8461,35.8817,54.1,29c-1.4166-5.5834-2.0833-10.1667-1.75-11.75
			c0.2575-1.2232,2.9562-2.5743,4.75-3.5834C58.4333,12.9166,59.1,11.6666,58.9333,9.8333z"/>
		<circle cx="38" cy="33" r="1"/>
		<path d="M40.5,34.8214c-0.6115,0-1.1071,0.1431-1.1071,0.5179c0,0.3748,0.7857,0.8392,1.1071,0.8392s1.1071-0.4645,1.1071-0.8392
			C41.6071,34.9645,41.1115,34.8214,40.5,34.8214z"/>
		<circle cx="43" cy="33" r="1"/>
		<path d="M38,55.8333c0,0,2.2828-4.9809-0.3333-7.43c-2.1667-2.0283-5.5718-0.8065-7.4733,0.9979
			c-0.2272,0.2156-0.3077,0.4616-0.1601,0.523C31.2582,49.3986,35,48.25,36.27,49.96c1.6276,2.1915-0.77,6.6234-0.77,6.6234
			s1.9123,0.153,2.2769,2.4167h2.4023C40.0184,57.9677,39.5148,56.5599,38,55.8333z"/>
	</g>
</g>
</svg>
