<?xml version="1.0" encoding="utf-8"?>
<!-- Generator: Adobe Illustrator 19.1.0, SVG Export Plug-In . SVG Version: 6.00 Build 0)  -->
<svg version="1.2" baseProfile="tiny" xmlns="http://www.w3.org/2000/svg" xmlns:xlink="http://www.w3.org/1999/xlink" x="0px"
	 y="0px" width="64px" height="64px" viewBox="0 0 64 64" xml:space="preserve">
<g id="_x36_4px_Box">
	<rect fill="none" width="64" height="64"/>
</g>
<g id="Icon">
	<g>
		<path d="M15,47.2197C14.468,47.6995,13.7711,48,13,48c-1.1185,0-2.0845-0.6224-2.6003-1.5323L11.2173,53h4.3288l-0.431-5.6931
			C15.0779,47.2763,15.0358,47.252,15,47.2197z"/>
		<polygon points="30.7712,53 35.1,53 36.4035,41 31.5685,41 		"/>
		<path d="M63.5096,22.293c-1.4989-1.2437-3.8729-4.0612-4.3542-5.8688c0,0,2.1209-0.1174,2.5914-1.128
			c0.7582-1.6288-2.7237-1.9464-4.585-1.9197c0.6111-0.9049,0.8801-1.3838,1.4209-2.3427c0.6552-1.1604-0.9208-2.2924-1.8116-1.3016
			l-0.0345,0.0384c-0.6369,0.7082-1.1,1.2261-1.8592,1.9275C51.0789,10.7411,42.282,13.9974,41.2087,14c0,0-31.0071,0-33.1627,0
			c-1.9032,0-3.584,1.775-3.7961,3.8018C3.8541,21.594,3.3571,27.805,3.1396,29.9208c-2.3083,0.6097-3.0993,3.0319-2.9171,5.3262
			c0,0,3.0607,0.7672,4.7944-0.6997c1.5176-1.2841,1.3341-2.775,1.8442-8.6156c0.2232-2.5557,0.4873-5.5752,0.7178-7.7822
			c0.0321-0.3098,0.2142-0.553,0.4697-0.6703C8.0525,22.2769,8.0588,30.6929,8.0588,32.94c0,2.3154-2.1141,4.3346-3.2944,5.27
			c-0.4805,0.3808-0.7558,0.9575-0.7535,1.5705L4.84,53H9v-8.6508c0-1.6563,0.6216-2.7476,1.1412-3.34
			c0.5453,0.5275,1.1655,0.9781,1.8588,1.308V45c0,1.3212,2,1.323,2,0v-2.0795c0.7377,0.1058,1.2623,0.1058,2,0V45
			c0,1.3212,2,1.323,2,0v-2.6827c1.4556-0.6926,2.6318-1.8725,3.3235-3.3271L36.087,38.999
			c0.959,0.0005,1.7827,0.6818,1.9631,1.6237L40.4212,53H44.75l-1.125-16.25l4.5449-8.9822
			c1.1882-2.3483,3.2053-2.5947,5.7805-2.0519l6.0275,1.2949c0.4425,0.0933,1.5151,0.3732,2.9949-1.33
			C64.1749,24.2973,64.1161,22.7963,63.5096,22.293z"/>
	</g>
</g>
</svg>
