<?xml version="1.0" encoding="utf-8"?>
<!-- Generator: Adobe Illustrator 17.1.0, SVG Export Plug-In . SVG Version: 6.00 Build 0)  -->
<svg version="1.2" baseProfile="tiny" xmlns="http://www.w3.org/2000/svg" xmlns:xlink="http://www.w3.org/1999/xlink" x="0px"
	 y="0px" width="64px" height="64px" viewBox="0 0 64 64" xml:space="preserve">
<g id="Box">
	<rect fill="none" width="64" height="64"/>
</g>
<g id="Icon">
	<g>
		<polygon points="27.4912,35.9692 26.3216,40.74 26.8817,43.9887 31.7148,43.9887 30.8229,37.1396 		"/>
		<path d="M50,28.8999c2.8715,0,6.7329,0.0865,9.6728,0.4634c0.3271-2.2952,0.6343-5.9521,0.1698-8.7597
			c-0.5507-3.3295-4.2562-7.1525-10.1086-6.5317c-7.7358,0.8205-15.701,2.5076-23.1486-1.0049
			c-0.2997,3.3615-1.8071,6.3597-3.0836,7.7191c-0.3126,0.3328-0.4321,0.1409-0.4321,0.1409
			c0.1448-0.6193,3.1786-6.2132,1.2354-9.9525C21.6688,5.9012,16.9639,2.7209,16,3.5713c-1.5261,1.3462-1,3-1,3l3,1
			c0.0085,1.3462-4.0009,5.4066-6.0403,6.9139c-1.4888,1.1005-2.3812-0.4258-2.7545-1.3301
			C9.1072,12.918,8.778,12.903,8.6564,13.1289C7.7172,14.875,8,16.5713,8,16.5713c-1.7188-0.7162-4.9929-3.0076-6.3914-4.9156
			c-0.1774-0.242-0.5659-0.0864-0.537,0.2123C1.6971,18.3461,6.196,23.5298,6.196,23.5298
			c-0.0887,2.3055,0.3547,3.9016,0.3547,3.9016s3.4058,0.9316,4.0789,0.3547c0.6026-0.5165,1.1516-1.9478,5.4467-2.6566
			l3.1869,6.2985l-0.632,12.5607h4.8331l2.0233-8.2368c0.2014-1.0516,0.8929-2.1116,2.1918-1.8129
			c0.7155,0.1646,3.2161,1.2323,6.5962,2.1589c0.0668-0.6273,0.141-1.2338,0.2322-1.7815c0.4082-2.4644,2.3408-4.3984,4.8096-4.8091
			C42.3281,29.0054,46.7881,28.8999,50,28.8999z M15,19c-0.5523,0-1-0.4477-1-1s0.4477-1,1-1c0.5522,0,1,0.4477,1,1
			S15.5522,19,15,19z"/>
		<path d="M62.435,34.826c-0.1949-1.1729-1.0873-2.0652-2.2607-2.2607C56.7829,32,51.1301,32,50.0001,32s-6.7828,0-10.1743,0.5654
			c-1.1734,0.1955-2.0657,1.0878-2.2607,2.2607C37,38.2173,37,43.8697,37,45c0,1.1304,0,6.7827,0.5651,10.174
			c0.195,1.1728,1.0873,2.0651,2.2607,2.2607C43.2172,58,48.87,58,50.0001,58s6.7828,0,10.1742-0.5653
			c1.1735-0.1956,2.0658-1.0879,2.2607-2.2607C63,51.7827,63,46.1304,63,45C63,41.607,63,38.2173,62.435,34.826z M48.2463,36
			l3.8137-0.3066l-0.3058,8.7939V48h-3.5079V36z M50.038,54.06c-1.3195,0-2.0737-0.7116-2.0737-2.0343
			c0-1.1701,0.6998-2.0857,2.0464-2.0857c1.3195,0,2.0735,0.7373,2.0735,2.0857C52.0843,53.1701,51.3838,54.06,50.038,54.06z"/>
	</g>
</g>
</svg>
