<?xml version="1.0" encoding="utf-8"?>
<!-- Generator: Adobe Illustrator 19.2.0, SVG Export Plug-In . SVG Version: 6.00 Build 0)  -->
<svg version="1.0" xmlns="http://www.w3.org/2000/svg" xmlns:xlink="http://www.w3.org/1999/xlink" x="0px" y="0px"
	 viewBox="0 0 64 64" enable-background="new 0 0 64 64" xml:space="preserve">
<g id="achtergrond">
</g>
<g id="paneel_1">
	<path d="M56.9446,34.2455c-0.9827,1.7865-3.944,6.8618-6.5234,8.1215c-6.0182,2.9391-13.0617,2.1393-17.084,0.9797
		c-3.7233-1.0733-4.1649-1.3054-4.1649-1.3054s0.7998-3.3133-0.4944-8.8417c-1.0045-4.2905-3.0415-6.7181-4.2711-8.4675
		c-1.2295-1.7496-2.2002-5.5985-0.906-6.5082c1.2942-0.9098,3.5592-0.8398,4.5946-0.5599c1.0354,0.28,5.1123,0.7698,6.083,0.6299
		c0.9707-0.14,1.2942-0.4199,1.4236-0.8398c0.1295-0.4199,0-1.1197,0-1.1197s-4.1416-0.14-4.3357-0.4899
		c-0.0442-0.0796,0.0052-0.2564,0.1107-0.4848c1.317,0.0055,5.1926,0.0253,5.3847,0.0698c0.2315,0.0537,1.3882,0.6295,1.6039,0.6795
		c0.463,0.1073,0.4329-0.1128,0.4329-0.2558c0-0.1431-1.0943-0.5131-1.0778-0.674c0.0166-0.1609,1.0418-0.7868,1.2071-0.9656
		c0.1653-0.1788-0.0331-0.447-0.2811-0.2682c-0.248,0.1788-1.637,0.8046-1.9181,0.8046c-0.2164,0-3.4302-0.1271-4.8985-0.1856
		c0.4621-0.717,1.0876-1.5238,1.4423-1.869c0.6471-0.6299,1.553-0.9098,1.6178-0.21c0.0647,0.6998-0.0824,1.5838,0.1941,1.5396
		c0,0,1.0174-2.9076,1.0821-3.8873c0.0647-0.9798-0.1114-2.271-0.1114-2.271c-0.3235-0.5598-4.0768,0.21-4.724,0.4199
		c-0.6471,0.21-1.4236-0.287-1.9414,0.0629c-0.5177,0.3499-0.5177,1.5467-0.7118,1.8266c-0.1942,0.28-6.2446,2.0642-8.8009,4.8286
		c-2.4591,2.6592-2.4591,6.2983-1.2942,8.8175c1.1648,2.5193,4.2041,5.2806,5.177,10.2171
		c0.4791,2.4314,0.5303,4.1522,0.4857,5.1851c1.6504,0.4267,3.8216,1.8619,3.6676,2.3766c0,0-0.3221-0.1266-1.1712-0.4116
		c-0.8492-0.2849-2.8759-0.8549-2.8759-0.8549v-0.0102c-2.1561-0.5638-17.7454-3.8654-17.0608,6.3815
		c0.6375,9.5427,8.2564,10.1183,12.3981,9.4186c4.1416-0.6998,6.9539-4.1001,7.7952-5.7795
		c0.8413-1.6796,1.6795-3.9352,1.6795-3.9352s11.9605,3.235,18.7018,0.5761c8.4475-3.3318,9.7538-11.8054,9.836-12.6425
		C57.2323,34.1743,57.0249,34.0993,56.9446,34.2455z M29.9722,9.3541c0.5177-0.5598,1.3589,0.3499,1.3589,0.3499
		s-0.0647-0.0016-0.6471,0.5582c-0.5825,0.5599-1.2296,0.8414-1.2296,0.8414S29.4544,9.9139,29.9722,9.3541z M17.6768,51.8143
		c-5.0507,0.4498-6.8595-3.569-5.6299-6.7181c1.2344-3.1616,11.7776-0.14,11.7776-0.14S23.1773,51.3244,17.6768,51.8143z"/>
</g>
</svg>
