<?xml version="1.0" encoding="utf-8"?>
<!-- Generator: Adobe Illustrator 22.1.0, SVG Export Plug-In . SVG Version: 6.00 Build 0)  -->
<!DOCTYPE svg PUBLIC "-//W3C//DTD SVG 1.1//EN" "http://www.w3.org/Graphics/SVG/1.1/DTD/svg11.dtd">
<svg version="1.1" xmlns="http://www.w3.org/2000/svg" xmlns:xlink="http://www.w3.org/1999/xlink" x="0px" y="0px" width="64px"
	 height="64px" viewBox="0 0 64 64" style="enable-background:new 0 0 64 64;" xml:space="preserve">
<style type="text/css">
	.st0{fill:none;}
</style>
<g id="Box">
</g>
<g id="Icon">
	<g>
		<g>
			<path d="M46,27.2c2.9,0,5.6,0.7,8,1.8c3.2-2.6,4.8-5.5,4.8-6.7c0-2.1-6.7-10.8-18.7-11.7c-1.8-2.9-4.3-5-5.4-5.8
				c-0.3-0.3-0.8-0.4-1.2-0.3c-1.6,0.3-6,1.4-10.4,4.2c-0.4,0.3-0.6,0.8-0.4,1.2l1,3.2c-4.1,2.3-6.9,5.1-9.8,5.1
				C9,13,4.3,10.9,2.9,11.8C1,13,7,19.5,7,22.3c0,2.8-6,9.3-4.1,10.5c1.4,0.9,6.1-1.2,11-6.4c2.5,0,4.8,2.7,8.2,4.5
				c0,0,5-2.3,5.8-2.7c0.6-0.3,0.8-0.1,0.9,0c0,0-6.7,5.3-7.5,6c-0.7,0.6-0.4,1.2,0.3,1.6c1,0.6,4.7,1.5,8.8-0.2
				C33.7,30.5,39.5,27.2,46,27.2z M47.5,18.3c1.1,0,2.2,1.1,2.2,2.2s-1.1,2.2-2.2,2.2s-2.2-1.1-2.2-2.2S46.4,18.3,47.5,18.3z
				 M46,30.2c-8.7,0-15.8,7.1-15.8,15.8c0,8.7,7.1,15.8,15.8,15.8c8.7,0,15.8-7.1,15.8-15.8S54.7,30.2,46,30.2z M46,57.9
				c-6.6,0-11.9-5.3-11.9-11.9S39.4,34.1,46,34.1S57.9,39.4,57.9,46S52.6,57.9,46,57.9z M51.2,39.2l-4.6,3.8C46.4,43,46.2,43,46,43
				c-1.7,0-3,1.3-3,3s1.3,3,3,3s3-1.3,3-3c0-0.2,0-0.4-0.1-0.6l3.8-4.6c0.3-0.4,0.3-1,0-1.4C52.4,38.9,51.7,38.8,51.2,39.2z"/>
		</g>
	</g>
</g>
</svg>
