<?xml version="1.0" encoding="utf-8"?>
<!-- Generator: Adobe Illustrator 18.1.1, SVG Export Plug-In . SVG Version: 6.00 Build 0)  -->
<svg version="1.2" baseProfile="tiny" xmlns="http://www.w3.org/2000/svg" xmlns:xlink="http://www.w3.org/1999/xlink" x="0px"
	 y="0px" width="64px" height="64px" viewBox="0 0 64 64" xml:space="preserve">
<g id="Box">
	<rect fill="none" width="64" height="64"/>
</g>
<g id="Icon">
	<path d="M61,40v16h-0.04c-2.187,0-3.96-1.7729-3.96-3.96V51H41c-3.8599,0-7-3.1401-7-7v-2.004l6-2.7979V44c0,0.5513,0.4487,1,1,1
		h16v-1.04c0-2.1871,1.7729-3.96,3.96-3.96H61z M55.6179,23.0884l-34.304,15.9962c-1.2824,0.5981-2.7937,0.4788-3.9725-0.34
		L7.8249,32.134c-1.3088,0.6103-2.8078,1.3093-2.8585,1.3329c-0.8549,0.3986-0.4127,3.1564,0.9877,6.1597
		s3.2288,5.1147,4.0837,4.716c0.0336-0.0156,0.7049-0.3287,1.5338-0.7152l-1.4879-6.1143
		c-0.0419-0.3304,0.1646-0.3755,0.2244-0.3803l4.4037,9.4438c0.4668,1.001,1.6568,1.4341,2.6578,0.9673l40.7839-19.0178
		L55.6179,23.0884z M18.4824,37.1019c0.5757,0.3998,1.3319,0.4751,1.9863,0.17l37.0229-17.2641L50.3071,4.6006L4.845,25.7999
		c-0.7183,0.335-0.7801,1.3325-0.1087,1.7535L18.4824,37.1019z"/>
</g>
</svg>
