<svg height="64" viewBox="0 0 64 64" width="64" xmlns="http://www.w3.org/2000/svg"><path d="m0 0h64v64h-64z" fill="none"/><path d="m61 40v16h-.04c-2.187 0-3.96-1.7729-3.96-3.96v-1.04h-16c-3.8599 0-7-3.1401-7-7v-2.004l6-2.7979v4.8019c0 .5513.4487 1 1 1h16v-1.04c0-2.1871 1.7729-3.96 3.96-3.96zm-5.3821-16.9116-34.304 15.9962c-1.2824.5981-2.7937.4788-3.9725-.34l-9.5165-6.6106c-1.3088.6103-2.8078 1.3093-2.8585 1.3329-.8549.3986-.4127 3.1564.9877 6.1597s3.2288 5.1147 4.0837 4.716c.0336-.0156.7049-.3287 1.5338-.7152l-1.4879-6.1143c-.0419-.3304.1646-.3755.2244-.3803l4.4037 9.4438c.4668 1.001 1.6568 1.4341 2.6578.9673l40.7839-19.0178zm-37.1355 14.0135c.5757.3998 1.3319.4751 1.9863.17l37.0229-17.2641-7.1845-15.4072-45.4621 21.1993c-.7183.335-.7801 1.3325-.1087 1.7535z"/></svg>