<svg enable-background="new 0 0 64 64" viewBox="0 0 64 64" xmlns="http://www.w3.org/2000/svg"><path d="m60.435 36.826c-.1949-1.1728-1.0873-2.0651-2.2607-2.2606-3.3914-.5654-9.0442-.5654-10.1742-.5654-1.1301 0-6.7829 0-10.1743.5654-1.1734.1955-2.0657 1.0878-2.2607 2.2606-.5651 3.3913-.5651 9.0437-.5651 10.174 0 1.1304 0 6.7827.5651 10.174.195 1.1728 1.0873 2.0651 2.2607 2.2607 3.3914.5653 9.0442.5653 10.1743.5653 1.13 0 6.7828 0 10.1742-.5653 1.1734-.1956 2.0658-1.0879 2.2607-2.2607.565-3.3913.565-9.0436.565-10.174 0-3.393 0-6.7827-.565-10.174zm-4.435 11.674c0 .2761-.2239.5-.5.5h-5.5v5.5c0 .2761-.2239.5-.5.5h-3c-.2761 0-.5-.2239-.5-.5v-5.5h-5.5c-.2761 0-.5-.2239-.5-.5v-3c0-.2761.2239-.5.5-.5h5.5v-5.5c0-.2761.2239-.5.5-.5h3c.2761 0 .5.2239.5.5v5.5h5.5c.2761 0 .5.2239.5.5z"/><path d="m7.4849 32.012s.0596-2.9226.7968-3.6985c.5775-.6082 2.3283-1.1466 3.0696-1.3538.1809-.0505.2969-.2087.3333-.3931.0503-.2555.0616-.5242.0616-.5242-.459-.5247-.8008-1.1534-.9065-2.0422-.4717-.147-.566-.7422-.566-1.1133s.0646-.5718.1965-.634c.1584-.0746.3049.0262.3496.0618-.0671-.771-.165-2.4939.2424-3.0371.363-.484 1.052-.8065 1.6816-.9841.9059-.2557 1.2581.1028 1.7751.3868.7884-.2057 1.2018.0455 1.5422.6747.3169.5861.2114 2.1663.1384 2.9244.07-.04.1771-.0807.2924-.0265.1318.0623.1965.2629.1965.634s-.0944.9663-.566 1.1133c-.1199.8594-.4675 1.5154-.9361 2.0615 0 0 .0189.2864.0819.5138.049.177.1584.3314.3356.3793.2516.0679.6233.1741 1.0277.3074-.8837.3562-1.6805.7788-2.1392 1.2617-.6854.7217-1.0941 2.23-1.3268 3.488h-5.6806zm20.9812-2.7537c.9279.9768 1.2764 4.6228 1.2764 4.6228h-15.7658s.3609-3.646 1.2887-4.6228c.7938-.8359 3.3432-1.5657 4.0815-1.7637.008.0042.0139.0081.022.0123.9886.5145 1.9061.3776 2.1994.2808.1753-.0579.1753-.152.131-.2313-.4888-.0217-.9584-.137-1.2191-.3566-.9868-.8309-1.7885-1.7686-1.9811-3.3712-.6001-.1849-.7201-.9343-.7201-1.4015 0-.467.0822-.7198.2499-.7981.0906-.0421.1798-.0385.2558-.0177-.0862-.985-.1846-2.9026.3258-3.5601.4731-.6093 1.3708-.9745 2.191-1.198 1.1805-.322 1.6393.0316 2.3131.3892 1.0273-.2589 1.6169-.0535 2.0603.7385.4056.7245.3455 2.6526.2852 3.6257.0703-.015.1492-.0154.2301.0223.1677.0782.2499.3311.2499.7981 0 .4672-.1201 1.2166-.7202 1.4015-.1578 1.1189-.6234 1.9656-1.251 2.6666 0 0 .028.271.0806.5073.0594.2672.2374.4921.5016.5641.9877.2699 3.1996.9384 3.915 1.6918z" fill="none"/><path d="m16.6312 27.2622c-.4044-.1333-.7761-.2395-1.0277-.3074-.1772-.0479-.2866-.2023-.3356-.3793-.063-.2274-.0819-.5138-.0819-.5138.4686-.5461.8162-1.2021.9361-2.0615.4716-.147.566-.7422.566-1.1133s-.0646-.5718-.1965-.634c-.1152-.0542-.2224-.0135-.2924.0265.0731-.7582.1785-2.3384-.1384-2.9244-.3403-.6292-.7538-.8804-1.5422-.6747-.5171-.2841-.8692-.6426-1.7751-.3868-.6296.1776-1.3185.5001-1.6816.9841-.4073.5432-.3095 2.2661-.2424 3.0371-.0447-.0355-.1912-.1364-.3496-.0618-.1319.0623-.1965.2629-.1965.634s.0943.9663.566 1.1133c.1057.8888.4475 1.5176.9065 2.0422 0 0-.0113.2687-.0616.5242-.0364.1843-.1523.3425-.3333.3931-.7413.2072-2.4921.7456-3.0696 1.3538-.7371.7759-.7968 3.6985-.7968 3.6985h5.6804c.2327-1.2581.6414-2.7664 1.3268-3.488.4589-.483 1.2558-.9056 2.1394-1.2618z"/><path d="m35.4613 28.8213c-.2515-.2649-.7525-.5535-1.3035-.8196-.7217-.3569-1.5282-.6727-1.9578-.8337-.1644-.0615-.2687-.2126-.2977-.3857-.0361-.2151-.0764-.5337-.1082-.802 1.0884-.0442 1.9884-.1516 2.3627-.2942.0739-.0281.1113-.0959.0783-.168-.2047-.4468-.737-1.9161-.8039-2.6836-.1643-1.8835-.1575-5.2542-2.7381-4.4086 0 0-1.6388-1.0469-2.9698.7047-.9364 1.2323-.7082 2.8572-.7457 3.7632-.0266.6445-.554 2.1326-.7759 2.5181-.0472.0822-.0311.1652.0579.1975.4017.1458 1.3062.2588 2.3693.3259-.0297.2693-.0715.6036-.1189.8469-.0336.1724-.1333.3242-.2977.3857-.1805.0676-.4296.1638-.7089.2777.7988.3485 1.3851.7089 1.736 1.0787.6857.7217 1.0907 2.2292 1.3199 3.4875h4.9521c.2269-.1193.4666-.2161.7098-.3058-.0358-.665-.18-2.2742-.7599-2.8847z"/><path d="m24.0495 27.0026c-.0526-.2363-.0806-.5073-.0806-.5073.6276-.701 1.0932-1.5477 1.251-2.6666.6-.1849.7202-.9343.7202-1.4015 0-.467-.0823-.7198-.2499-.7981-.0809-.0377-.1599-.0374-.2301-.0223.0603-.9731.1204-2.9012-.2852-3.6257-.4434-.792-1.033-.9974-2.0603-.7385-.6738-.3575-1.1326-.7112-2.3131-.3892-.8202.2235-1.7179.5887-2.191 1.198-.5104.6575-.412 2.5751-.3258 3.5601-.076-.0208-.1652-.0244-.2558.0177-.1677.0782-.2499.3311-.2499.7981 0 .4672.12 1.2166.7201 1.4015.1926 1.6027.9943 2.5403 1.9811 3.3712.2607.2196.7303.3348 1.2191.3566.0443.0793.0443.1735-.131.2313-.2933.0968-1.2108.2338-2.1994-.2808-.0082-.0043-.014-.0082-.022-.0123-.7383.198-3.2877.9277-4.0815 1.7637-.9278.9768-1.2887 4.6228-1.2887 4.6228h15.7657s-.3485-3.646-1.2764-4.6228c-.7153-.7534-2.9273-1.4219-3.915-1.6917-.2641-.0722-.4421-.297-.5015-.5642z"/><path d="m6 40v-31h31v22.4834c.1012-.0223.1972-.0576.3003-.0747.8115-.1353 1.7314-.2399 2.6997-.3234v-25.0853h-37v40h28.8042c.0129-1.8583.0658-3.9934.2035-6z"/><path d="m40 45.0134-.9819.9866h.9819z"/></svg>