<svg height="64" viewBox="0 0 64 64" width="64" xmlns="http://www.w3.org/2000/svg"><path d="m0 0h64v64h-64z" fill="none"/><path d="m56.6873 7.1421c-4.7474-4.7474-10.9807-6.2111-17.5083.3165-4.6569 4.6569-7.6613 11.5886-7.288 16.9083l-4.9189 5.1948-3.5227-3.5227-11.4612 11.4612 14.1213 14.1214 11.4612-11.4612-3.303-3.3031 3.002-2.8425c-2.8391-1.521-3.5729-3.546-3.7645-4.1136-.1285-.3807-.0712-.6404.1422-.6308.02.0092.0385.0173.0583.0265.1257.1501.2352.3124.3748.452 4.7474 4.7473 15.7626 1.4291 22.2902-5.0985s5.0639-12.7609.3166-17.5083z"/><path d="m5.2051 52.5497c-2.4312 2.3851-2.6078 4.5767-.5735 6.648 2.0714 2.0343 4.2629 1.8577 6.648-.5735l9.7008-9.1855-6.5898-6.5898z"/></svg>