<?xml version="1.0" encoding="utf-8"?>
<!-- Generator: Adobe Illustrator 17.1.0, SVG Export Plug-In . SVG Version: 6.00 Build 0)  -->
<svg version="1.2" baseProfile="tiny" xmlns="http://www.w3.org/2000/svg" xmlns:xlink="http://www.w3.org/1999/xlink" x="0px"
	 y="0px" width="64px" height="64px" viewBox="0 0 64 64" xml:space="preserve">
<g id="Box">
	<rect fill="none" width="64" height="64"/>
</g>
<g id="Icon">
	<g>
		<path d="M56.6873,7.1421C51.9399,2.3947,45.7066,0.931,39.179,7.4586c-4.6569,4.6569-7.6613,11.5886-7.288,16.9083l-4.9189,5.1948
			l-3.5227-3.5227L11.9882,37.5002l14.1213,14.1214l11.4612-11.4612l-3.303-3.3031l3.002-2.8425
			c-2.8391-1.521-3.5729-3.546-3.7645-4.1136c-0.1285-0.3807-0.0712-0.6404,0.1422-0.6308c0.02,0.0092,0.0385,0.0173,0.0583,0.0265
			c0.1257,0.1501,0.2352,0.3124,0.3748,0.452c4.7474,4.7473,15.7626,1.4291,22.2902-5.0985S61.4346,11.8895,56.6873,7.1421z"/>
		<path d="M5.2051,52.5497c-2.4312,2.3851-2.6078,4.5767-0.5735,6.648c2.0714,2.0343,4.2629,1.8577,6.648-0.5735l9.7008-9.1855
			l-6.5898-6.5898L5.2051,52.5497z"/>
	</g>
</g>
</svg>
