<svg enable-background="new 0 0 64 64" viewBox="0 0 64 64" xmlns="http://www.w3.org/2000/svg"><path d="m0 0h64v64h-64z" fill="none"/><path d="m32.75 21.75h7.143c-.602-3.823-3.901-6.75-7.893-6.75-4.418 0-8 3.582-8 8v16c0 4.418 3.582 8 8 8s8-3.582 8-8v-7.75h-7.25c-.414 0-.75-.336-.75-.75s.336-.75.75-.75h7.25v-2.5h-7.25c-.414 0-.75-.336-.75-.75s.336-.75.75-.75h7.25v-2.5h-7.25c-.414 0-.75-.336-.75-.75s.336-.75.75-.75z"/><path d="m43.5 31.25c-.828 0-1.5.422-1.5 1.25v6.5c0 5.741-4.863 10.367-10.685 9.977-5.309-.356-9.315-5.009-9.315-10.33v-6.147c0-.828-.672-1.25-1.5-1.25s-1.5.422-1.5 1.25v6.123c0 6.36 4.442 11.904 10.5 13.117v6.26h-2c-2.209 0-4 1.791-4 4h17c0-2.209-1.791-4-4-4h-2v-6.257c5.974-1.17 10.5-6.431 10.5-12.743v-6.5c0-.828-.672-1.25-1.5-1.25z"/><path d="m15.843 26.717c-2.644-.586-4.614 1.051-5.843 3.587v7.035c-.054.02-.251.065-.349-.24l-1.098-5.518c-.785.177-1.41.551-1.862 1.218-.616.911-.924 2.349-.924 4.514 0 2.704.483 4.261 1.446 5.074.585.494 1.356.703 2.295.738 1.159 3.177 3.304 5.427 6.336 4.756.665-.147 1.152-.779 1.151-1.52l-.001-18.123c.001-.742-.486-1.374-1.151-1.521z"/><path d="m53.55 26.365c.032-5.643-1.345-10.268-4.146-13.799-5.235-6.603-13.905-7.316-17.39-7.316s-12.155.713-17.391 7.316c-2.796 3.527-4.175 8.143-4.146 13.777 1.082-.952 2.296-1.522 3.529-1.691.22-4.047 1.339-7.364 3.359-9.911.057-.072.121-.135.18-.205 1.408.274 2.886-.058 4.106-.951 3.078-2.252 6.28-2.585 10.35-2.585v-.035l.026.035c4.07 0 7.272.333 10.349 2.585 1.22.893 2.698 1.225 4.106.951.058.071.122.133.179.205 2.021 2.549 3.14 5.867 3.359 9.917 1.236.175 2.45.748 3.53 1.707z"/><path d="m57.309 32.799c-.452-.667-1.077-1.042-1.862-1.218l-1.098 5.518c-.098.304-.295.26-.349.24v-7.036c-1.229-2.536-3.199-4.172-5.843-3.586-.665.147-1.152.779-1.152 1.521l-.001 18.123c0 .742.486 1.373 1.151 1.52 3.032.671 5.177-1.578 6.336-4.756.939-.035 1.71-.244 2.295-.738.963-.813 1.446-2.37 1.446-5.074.001-2.165-.306-3.603-.923-4.514z"/></svg>