<svg height="64" viewBox="0 0 64 64" width="64" xmlns="http://www.w3.org/2000/svg"><path d="m0 0h64v64h-64z" fill="none"/><path d="m24.8293 41.9588c-1.7667-.4836-8.9891-2.4617-9.3045-2.5636-.3595-.1161-.239-.3952-.239-.3952l7.7142.0001c1.5077 0 3.0473.1205 4.7576.3978.7768-2.6459 1.2408-5.8774 1.2408-9.3978 0-3.5089-.4555-6.7479-1.2235-9.4009-1.7165.2792-3.2622.4008-4.7749.4008h-15c-2.7614 0-5 2.2386-5 5v8c0 2.7614 2.2386 5 5 5h1.9752l9.1152 18.4151c.98 1.9799 3.3795 2.7905 5.3593 1.8104l3.5849-1.7744c1.9799-.98 2.7904-3.3795 1.8104-5.3593z"/><path d="m57 7.1c-1.3796-3.0101-2.9635-3.9131-4.5826-2.3239-5.0841 4.9905-9.2841 9.6906-16.2169 13.1587-1.8397.9203-3.7942 1.5853-5.6067 2.0627.8771 2.7596 1.4046 6.226 1.4046 10.0024 0 3.783-.5328 7.2437-1.4139 10.0002 1.8156.4776 3.7731 1.1431 5.616 2.065 6.9329 3.4681 11.1328 8.1682 16.2169 13.1587 1.6191 1.5893 3.2029.6863 4.5826-2.3239.7333-1.6 3-10.5003 3-22.9 0-12.3996-2.2667-21.2999-3-22.8999z"/></svg>