<svg enable-background="new 0 0 64 64" viewBox="0 0 64 64" xmlns="http://www.w3.org/2000/svg"><path d="m0 0h64v64h-64z" fill="none"/><path d="m46 24.5c-1.104 0-2 .395-2 1.5v7c0 6.999-6.022 12.617-13.157 11.945-6.218-.585-10.843-6.052-10.843-12.297v-6.648c0-1.105-.896-1.5-2-1.5s-2 .395-2 1.5v6.536c0 7.854 5.505 14.699 13 16.159v5.197l3.735.743c.317.102.271.308.25.364h-5.985c-2.761 0-5 2.239-5 5h20c0-2.761-2.239-5-5-5h-2v-6.299c7.391-1.41 13-7.905 13-15.7v-7c0-1.105-.896-1.5-2-1.5z"/><path d="m32 43c5.523 0 10-4.477 10-10v-8h-9c-.552 0-1-.448-1-1s.448-1 1-1h9v-3h-9c-.552 0-1-.448-1-1s.448-1 1-1h9v-3h-9c-.552 0-1-.448-1-1s.448-1 1-1h8.799c-.926-4.564-4.961-8-9.799-8-5.523 0-10 4.477-10 10v18c0 5.523 4.477 10 10 10z"/></svg>