<?xml version="1.0" encoding="utf-8"?>
<!-- Generator: Adobe Illustrator 21.0.2, SVG Export Plug-In . SVG Version: 6.00 Build 0)  -->
<!DOCTYPE svg PUBLIC "-//W3C//DTD SVG 1.1//EN" "http://www.w3.org/Graphics/SVG/1.1/DTD/svg11.dtd">
<svg version="1.1" xmlns="http://www.w3.org/2000/svg" xmlns:xlink="http://www.w3.org/1999/xlink" x="0px" y="0px" width="64px"
	 height="64px" viewBox="0 0 64 64" style="enable-background:new 0 0 64 64;" xml:space="preserve">
<style type="text/css">
	.st0{fill:none;}
</style>
<g id="_x36_4px_Box">
	<rect class="st0" width="64" height="64"/>
</g>
<g id="Icon">
	<g>
		<g>
			<path d="M25,24.5v6.9c4.5-2.3,7.5-7,7.5-12.4c0-7.7-6.3-14-14-14s-14,6.3-14,14c0,5.4,3,10.1,7.5,12.4v-6.9
				c0-3.6,2.9-6.5,6.5-6.5S25,20.9,25,24.5z M43,46.5V43h1c0.6,0,1-0.4,1-1v-9c-3.1-2.4-4.5-4.7-4.8-5.3c-0.2-0.4-0.2-0.7-0.1-0.9
				c2.8,2.2,6.7,4.3,10.9,5.9c3.2,1.2,6.1-1,6.9-4.9c1-5.3,1-13.4,0-18.3C57.2,6,54.3,4.4,51,5.9c-8.2,3.8-14.9,8-15,15.3
				c0,0,0,20.8,0,20.8c0,0.6,0.4,1,1,1h1v3.5C38,52.8,43.2,58,49.5,58H58v-5h-8.5C45.9,53,43,50.1,43,46.5z M37.4,53h-9.9
				c-3.6,0-6.5-2.9-6.5-6.5V43h1c0.6,0,1-0.4,1-1V24.5c0-2.5-2-4.5-4.5-4.5S14,22,14,24.5V42c0,0.6,0.4,1,1,1h1v3.5
				C16,52.8,21.2,58,27.5,58h14.6C40.1,56.7,38.5,55,37.4,53z"/>
		</g>
	</g>
</g>
</svg>
