<svg enable-background="new 0 0 64 64" viewBox="0 0 64 64" xmlns="http://www.w3.org/2000/svg"><path d="m48.0413 20.4566-.1783 2.526 1.9143.285-3.6581 24.5728-.011-.0016-.1574 2.2291-27.4522-1.9381-.2059 1.3834 29.4594 4.3856 4.8769-32.7592z"/><path d="m46.7619 15.2514-4.0074-.2735v2.5305l1.334.0911-1.0885 19.4005v7h-28l-.2088 2.2663 29.715 2.0285z"/><path d="m20.1726 28.6078c.3769-.3968 1.0316-.7439 1.7577-1.0367-.3323-.1095-.6377-.1968-.8444-.2525-.1456-.0393-.2355-.1662-.2758-.3116-.0518-.1869-.0673-.4222-.0673-.4222.385-.4487.6706-.9877.7691-1.6938.3875-.1207.4651-.6098.4651-.9147 0-.3048-.0531-.4698-.1614-.5209-.0947-.0445-.1827-.0112-.2402.0217.0601-.6229.1467-1.9213-.1137-2.4028-.2796-.5169-.6194-.7233-1.2671-.5543-.4249-.2333-.7142-.528-1.4585-.3178-.5173.1459-1.0834.4109-1.3817.8086-.3347.4463-.2543 1.862-.1991 2.4954-.0367-.0291-.1571-.112-.2873-.0507-.1083.0511-.1614.216-.1614.5209s.0775.794.4651.9147c.0868.7303.3677 1.2469.7448 1.678 0 0-.0093.2207-.0506.4306-.0299.1515-.1252.2815-.2738.323-.6091.1702-2.0477.6126-2.5221 1.1123-.6057.6376-.6546 3.0388-.6546 3.0388h4.6672c.191-1.0337.5268-2.273 1.09-2.866z"/><path d="m31.788 26.4808c-.0244.2214-.0587.496-.0977.6959-.0276.1417-.1095.2664-.2446.317-.1483.0556-.3529.1346-.5824.2282.6564.2864 1.1381.5824 1.4263.8863.5634.593.8962 1.8318 1.0845 2.8655h4.6628s-.0295-1.984-.6351-2.6216c-.2067-.2176-.6183-.4548-1.071-.6733-.593-.2933-1.2556-.5528-1.6086-.6851-.1351-.0506-.2207-.1747-.2446-.317-.0296-.1766-.0628-.4384-.0889-.6589.8942-.0363 1.6338-.1245 1.9413-.2417.0608-.0231.0915-.0789.0644-.138-.1682-.3671-.6056-1.5744-.6605-2.2049-.135-1.5476-.1294-4.3171-2.2498-3.6223 0 0-1.3465-.8602-2.4401.579-.7694 1.0125-.5819 2.3476-.6127 3.0921-.0219.5295-.4552 1.7522-.6375 2.069-.0388.0674-.0256.1356.0476.1621.33.1197 1.0731.2126 1.9466.2677z"/><path d="m23.465 24.75c.1582 1.3168.8169 2.0872 1.6277 2.7699.2142.1804.6.2751 1.0017.293.0364.0652.0364.1425-.1077.1901-.241.0796-.9948.1921-1.8071-.2307-.0067-.0035-.0115-.0067-.0181-.0101-.6066.1627-2.7013.7623-3.3535 1.4491-.7624.8026-1.0589 3.7983-1.0589 3.7983h12.9539s-.2864-2.9957-1.0487-3.7983c-.5878-.619-2.4052-1.1684-3.2167-1.3899-.2171-.0593-.3633-.2439-.4121-.4636-.0432-.1942-.0662-.4168-.0662-.4168.5156-.576.8982-1.2717 1.0279-2.191.493-.1519.5917-.7676.5917-1.1515 0-.3837-.0676-.5914-.2054-.6558-.0665-.0309-.1313-.0307-.1891-.0184.0496-.7995.099-2.3838-.2343-2.979-.3643-.6508-.8488-.8196-1.6929-.6069-.5536-.2937-.9306-.5843-1.9005-.3197-.6739.1837-1.4115.4838-1.8002.9844-.4194.5402-.3385 2.1158-.2677 2.9251-.0625-.017-.1357-.0201-.2102.0146-.1378.0643-.2053.272-.2053.6558 0 .3837.0986.9994.5917 1.1514z"/><path d="m11 10v33h31v-33zm28 28h-25v-25h25z"/></svg>