<svg enable-background="new 0 0 64 64" viewBox="0 0 64 64" xmlns="http://www.w3.org/2000/svg"><path d="m53 27-4.625 4.625c0 3.2916-.5417 6.375-1.375 6.375v-11.4076c0-.8795-.713-1.5924-1.5925-1.5924h-4.532l-6.4163-6.4764c-.3085-.3211-.7395-.5236-1.2173-.5236h-13.7419c-.8284 0-1.5.6715-1.5 1.5 0 .8284.6716 1.5 1.5 1.5h13.0562l1.2766 4h-18.2403c-.8795 0-1.5925.7129-1.5925 1.5924v.4076h-4.0149c-.0399-.5566-.4921-1-1.0589-1h-.8524c-.5668 0-1.019.4434-1.0589 1h-.0149v.0737 6.8524.0739h.0149c.04.5566.4921 1 1.0589 1h.8524c.5668 0 1.0189-.4434 1.0589-1h4.0149v11.4075c0 .8796.713 1.5925 1.5925 1.5925h29.8151c.8794 0 1.5924-.7129 1.5924-1.5925v-4.4075h2l4 3h4v-17zm-20 16h-14v-8h14z"/></svg>