<svg enable-background="new 0 0 64 64" viewBox="0 0 64 64" xmlns="http://www.w3.org/2000/svg"><path d="m0 0h64v64h-64z" fill="none"/><path d="m44 8.4c-1.6-2.6-3.5-3.8-7.3-3-2.4-1.2-4.1-1.9-8.4-.8-3 .7-6.2 1.9-7.9 3.9-.5.5-.8 1.4-1 2.5h25.4c-.2-1.1-.4-2-.8-2.6z"/><path d="m52.6 44.1c-2.2-2.4-8.5-4.5-11.4-5.4-.2-1.1-.4-2.4-.5-3.5.9-1 1.5-2.1 2.1-3.2 1.1-2.1 1.3-4 1.3-4.3 1.6-.3 2.9-.7 3.8-1 1.2-.4 2.1-1.6 2.1-2.9v-6c-4.6.3-10 .5-14.3.2-.3 0-.3-.4-.3-.4 5-.4 10.3-1 14.3-1.5-.3-.6-.7-1.1-1.3-1.4l-3.4-1.7h-25.9-.1l-3.4 1.9c-.9.5-1.5 1.5-1.5 2.6v6.4c0 1.3.8 2.4 2.1 2.9 1 .3 2.2.7 3.8 1 .1.7.3 1.5.5 2.2.6 2 1.7 3.9 3.4 5.8-.1.8-.2 1.7-.4 2.7-2.5.7-9.7 3-12 5.6-3 3.1-4.5 14.9-4.5 14.9h25 25s-1.5-11.8-4.4-14.9zm-20.2 5.2c-2.3-1.8-6.6-5.5-6.2-9 .2-1.9 0-.5.8-5.4-1.9-1.8-3.5-4-3.9-6.5 2.5.4 5.4.6 8.9.6s6.4-.3 8.9-.6c-.6 2.9-2.8 5.3-5.2 7.3-.8.7-2.2 1.1-3.7 1.1-1.1 0-2.1-.3-2.9-.6.6.9 1.7 2.1 3.6 2.6 3.2.8 5.5-.9 5.5-.9s.3 1.9.3 2.4c.2 3.4-3.7 7.3-6.1 9z"/></svg>