<svg enable-background="new 0 0 64 64" viewBox="0 0 64 64" xmlns="http://www.w3.org/2000/svg"><path d="m0 0h64v64h-64z" fill="none"/><path d="m48.2 16.2c2.6 0 4.2-1.6 4.2-4.5 0-.3 0-.6-.1-.8.9-.2 1.9-.5 1.9-1.2 0-1.2-6.8-3.6-8.6-2.9-1.3.5-1.6 2.8-1.6 4 0 .1 0 1.2.1 1.8.3 2.2 1.7 3.6 4.1 3.6z"/><path d="m19 16.1c2.5 0 3.9-1.6 3.9-4.3 0-2.6-1.4-4.5-3.9-4.5-2.4 0-3.9 1.6-3.9 4.5-.1 2.5 1.4 4.3 3.9 4.3z"/><path d="m56.8 21.6c-1.2-2.5-3.3-3-4-3.1-2.7-.7-6.5-.7-9.3 0-.9.2-1.6.6-2.2 1.2 1.6 2 2.1 4.7 2.4 7.1.1 1.1.4 2.1.7 3.3.3 1.1.6 2.3.9 3.9.3 1.7 0 3.2-.8 4.4-.5.7-1.2 1.2-1.9 1.4v19.2s4.2 0 4.4-4.4c0 0 .6-16 .6-16.2s.1-.4.4-.4.4.2.4.4.6 16.3.6 16.3c.3 4.3 4.4 4.2 4.4 4.2v-20.9-13.5c.1-.1.3.1.4.3.6 1.4 1.1 2.9 1.9 5 .6 1.6 1.4 3.8 2.2 5.7.2.5.5.9.9 1.2-.4 5.2-1.5 21.3-1.6 21.9s1.9.8 2 .2 1.7-17.2 2.1-21.1c.5.1.9 0 1.2-.2.2.1-3.8-11.9-5.7-15.9z"/><path d="m18.9 18c-.9 0-1.8.1-2.6.2.7 1 1 2.2 1 3.6 0 2.4-1.2 4.2-3 5 1.4 1 2.1 2.7 2.1 4.6v6.6c1.2.1 3 .3 4.6.7.5.1 1.1.3 1.8.5-.4-.3-.8-.6-1.1-1-.8-1.2-1.1-2.7-.8-4.4.3-1.6.6-2.8.9-3.9.3-1.2.6-2.2.7-3.3.3-2.4.9-5.1 2.4-7.1-.6-.5-1.2-.8-2-1-1.2-.3-2.5-.5-4-.5z"/><path d="m12.6 57.3c-4.4 0-7.9-3.6-7.9-7.9 0-1.8.6-3.4 1.5-4.7-.4-.6-.6-1.3-.8-2.1-.1-.5-.1-1.1-.2-1.7-2.3 2.1-3.8 5.1-3.8 8.5 0 6.2 5 11.2 11.2 11.2 4 0 7.5-2.1 9.5-5.3-.5-1.3-1.1-2.9-1.7-4.5-.7 3.7-3.9 6.5-7.8 6.5z"/><path d="m20.7 40.3c-2.4-.6-5.7-.7-5.7-.7 0-4.4 0-8 0-8 0-4.2-4-4.8-6.1-3.9-.9.3-1.6 1.1-1.9 3-.6 3.3-.5 8.7 0 11.7.5 3.2 3.7 3.3 4.5 3.3s8.6 0 8.6 0c1.2 3.2 2.5 6.8 3.5 9.4 1.3 3.3 3.9 3 4.6 2.8-.9-3.9-1.9-8.3-3-12.3-1.4-4.7-1.8-4.7-4.5-5.3z"/><path d="m12.1 25.9c2.4 0 3.7-1.6 3.8-4 0-2.7-1.4-4.2-3.7-4.2-2.4 0-3.7 1.7-3.8 4.1 0 2.6 1.4 4.1 3.7 4.1z"/><path d="m43.9 34.2c-.6-3.3-1.4-5-1.6-7.3-.6-4.6-1.9-7-4.3-8 0 0-.7-6.1-.8-7.3-.1-1.1-.2-1.8-.4-2.2-.5-1.5-1.8-2.4-3.6-2.4-1.7 0-3 .8-3.6 2.2-.2.4-.3 1.2-.5 2.4-.2 1.8-1 7.3-1 7.3-2.3 1.1-3.6 3.5-4.1 7.9-.3 2.3-1 4-1.6 7.3-.5 2.6 1 4.1 2.2 4.2 2.4-7.3 2.8-11.2 3.4-13.3-.1 1.2.2 2.1.4 2.9.3 1.3.4 2.6 0 3.9-.4 1.4-1.2 7.1-1.8 13.2v.1c1.2 4.1 2.1 8.4 3.3 13.6 1.1.2 2.3.3 3.7.3 4.7 0 7-1 7-1 0-7.7-2-23.8-2.7-26.2-.3-1.3-.3-2.6 0-3.9.2-.9.4-1.7.4-2.9.5 2.1 1 6 3.4 13.4 1.3-.1 2.7-1.6 2.2-4.2zm-10.7-18.2c-1.7 0-2.7-1.5-2.7-3.5 0-.3 0-.6.1-.8h5.3c0 .3.1.5.1.8-.1 2.2-1.1 3.5-2.8 3.5z"/></svg>