<svg height="64" viewBox="0 0 64 64" width="64" xmlns="http://www.w3.org/2000/svg"><path d="m0 0h64v64h-64z" fill="none"/><path d="m41.9998 13c3.1665 0 5-1.9516 5-5.411 0-3.2831-1.7505-5.589-5-5.589-3.0847 0-5 1.9509-5 5.589 0 3.1932 1.8322 5.411 5 5.411z"/><path d="m21.9871 11.7732c3.0239 0 4.7734-2.1386 4.7734-5.2183 0-3.5075-1.8284-5.3893-4.7734-5.3893-3.1025 0-4.7734 2.2241-4.7734 5.3893-.0001 3.3366 1.7507 5.2183 4.7734 5.2183z"/><path d="m54.8643 33.7448c-.7019-3.7675-1.4797-5.8279-1.7966-8.4458-.7015-5.796-2.4709-8.5813-5.7629-9.5945-1.5679-.4824-3.0627-.7044-4.7644-.7045h-.0605c-1.7019.0001-3.1967.2221-4.7644.7045-1.1635.3581-2.1257.9558-2.9282 1.813 1.4955.7565 2.3755 2.3436 2.3755 4.7175 0 2.9917-1.7053 5.0282-4.6526 5.0282-2.9463 0-4.6526-1.7869-4.6526-5.0282 0-2.249.8801-3.9982 2.5316-4.7812-1.6645-2.3076-4.3954-3.4538-8.8787-3.4538l-.0005.001v-.001c-11.62 0-11.4845 6.96-11.4958 21.8676-.0023 3.0657 2.4714 4.0547 3.8794 4.0547 0-13.5728.5017-16.5172.7468-17.5922.1018-.3172.3079-.2708.364-.2499 0 0 .0056.7129.0056 40.9198 0 0 4.8655.0391 5.2372-5.0498 0 0 .7277-19.2431.736-19.457.0081-.2139.1674-.4932.5268-.4932s.5083.2793.5165.4932.7308 19.3173.7308 19.3173c.2742 4.9745 4.7563 5.1807 5.2078 5.1889v-15.5791c-.9939 0-2.7937-.5713-2.9268-2.9201-.2925-5.1648-.1538-13.4298 2.9937-14.9727 1.9265-.9442 7.1199-.9442 9.2288-.0342 2.9089 1.2558 2.8331 9.7483 2.8218 14.9643-.005 2.3527-2.0387 2.9658-3.032 2.9658v15.5743c.1433-.0233 3.7118-.6389 3.9595-4.2064 0 0 .8159-8.6949.9612-12.8555.5601-.0887.5773-.0983 1.0526-.1677.1421 4.0636.9761 12.9199.9761 12.9199.1887 3.7505 3.9844 4.312 3.9844 4.312l.0156-17.3022c1.7598.1674 2.9346.269 2.9346.269 0-8.8604-2.1382-12.2119-2.8738-14.9891-.3906-1.4758-.3087-3.0204.0466-4.4986.3341-1.3894.7637-2.6836.0894-5.4301 0 0 .3547.623.4971 1.0268.7902 2.244.709 6.892 3.8944 16.8948 1.3873-.1774 2.847-2.1604 2.276-5.2258z"/></svg>