<svg height="64" viewBox="0 0 64 64" width="64" xmlns="http://www.w3.org/2000/svg"><path d="m0 0h64v64h-64z" fill="none"/><path d="m32.3376 35.6523c.2411-.1039.78-.3641 1.632-.6479-.2919-.6094-.301-1.3192-.3772-2.171 1.9705-2.1989 3.4323-4.8547 3.9279-8.3641 1.8842-.5801 2.2612-2.9305 2.2612-4.396 0-1.4649-.2583-2.2576-.7848-2.5033-.2539-.118-.5018-.1171-.7225-.0702.1894-3.0522.3781-9.0998-.8952-11.3724-1.3922-2.4843-3.2437-3.1286-6.4691-2.3166-2.1156-1.1213-3.556-2.2304-7.2625-1.2207-2.5754.7013-5.394 1.8468-6.8794 3.7578-1.6025 2.0623-1.2936 8.077-1.0229 11.1665-.2388-.0652-.5189-.0768-.8032.0555-.5266.2457-.7847 1.0384-.7847 2.5033 0 1.4655.3768 3.8159 2.2611 4.396.6047 5.0267 3.1218 7.968 6.2201 10.574.8186.6888 2.293 1.0502 3.8276 1.1185.1393.2487.1393.5441-.4113.7256-.9209.3037-3.8015.7333-6.9056-.8805-.0258-.0134-.044-.0256-.0693-.0388-2.3178.6212-10.3226 2.9102-12.8148 5.5322-2.9134 3.0639-4.0464 14.4998-4.0464 14.4998h26.7861c-.592-1.2686-.9678-2.7367-1.0352-4.3585-.0444-.818.0636-1.4691.2924-2.0359l2.573-6.7443c-.3492-.3728-.638-.8087-.8476-1.2952-.4761-1.1039-.4938-2.3269-.0499-3.4438.4438-1.1166 1.2961-1.9938 2.4002-2.47z"/><path d="m62.8965 50.7148-3.6453-9.555c.0017.0007.004.0015.0057.0023.7617.3271 1.6431-.0244 1.9707-.7852.3271-.7607-.0229-1.6426-.7832-1.9697-.4395-.1895-4.373-1.8359-7.0854-1.3008-1.3598.2668-2.3583.6855-3.5975 1.0665.1531-.3603.2385-.7566.2385-1.1729 0-1.6569-1.3431-3-3-3s-3 1.3431-3 3c0 .4163.0854.8126.2386 1.173-1.2391-.381-2.2377-.7997-3.597-1.0665-2.7173-.5332-6.6465 1.1113-7.0859 1.3008-.7607.3281-1.1113 1.21-.7832 1.9707.325.7545 1.1935 1.1035 1.9498.7902l-3.6422 9.5468c-.0645.1445-.0801.4414-.0626.764.1806 4.3428 2.7858 6.521 5.9825 6.521 3.174 0 5.7723-2.1407 5.9858-6.422.0126-.2524.0359-.5128-.0894-.8632l-4.0747-10.6805c.4564-.0474.8862-.0542 1.2402.0155 1.6536.3247 2.9037 1.0156 4.938 1.3868v17.5634h-3c-1.6569 0-3 1.3431-3 3v1h16v-1c0-1.6569-1.3431-3-3-3h-3v-17.5634c2.0353-.3715 3.2839-1.0621 4.9385-1.3868.3404-.0661.7595-.0656 1.2175-.0186l-4.0759 10.6836c-.0645.1445-.0801.4414-.0626.764.1807 4.343 2.7859 6.5212 5.9826 6.5212 3.174 0 5.7723-2.1407 5.9858-6.422.0126-.2524.0359-.5128-.0893-.8632zm-22.7965.2852c0 2.6666-1.4431 4-3.1 4-.3525 0-.6858-.0734-1-.1942 1.1625-.4467 2-1.7066 2-3.8058h-4.0317l3.02-7.916c.0046.012 3.1246 7.916 3.1117 7.916zm16.9 4c-.3525 0-.6858-.0734-1-.1942 1.1625-.4467 2-1.7066 2-3.8058h-4.0317l3.02-7.916c.0046.012 3.1246 7.916 3.1117 7.916 0 2.6666-1.4431 4-3.1 4z"/></svg>