<svg height="64" viewBox="0 0 64 64" width="64" xmlns="http://www.w3.org/2000/svg"><path d="m0 0h64v64h-64z" fill="none"/><path d="m29.0046 51.115c-1.9444.7894-3.7958 1.2825-5.0046 1.2825-3.0511 0-10.1877-3.0848-12.6357-6.3633 4.062-1.4019 7.0549-2.4515 7.3857-4.6064.2239-1.9794.4598-3.9515.6181-5.2552-.6524-.6334-1.2234-1.3078-1.7263-2.006-.0262-.0363-.0544-.072-.0803-.1085-.1494-.2112-.2905-.4252-.4272-.6404-.9813-1.5435-1.6214-3.1646-1.9861-4.7081 5.8372-1.1196 11.8809-1.1185 17.7184.0031-1.049 4.4854-4.0629 9.2874-8.8668 9.2874-1.121 0-2.2395-.1949-3.0544-.5815.3702.8859 1.1844 1.7314 3.2859 2.2553 5.199 1.2946 6.8121-2.8912 9.5482-4.2861.7391-.3768 2.3348-.957 4.5383-1.3159-.5508-1.8423-1.5433-3.4828-2.1671-5.099.8004-.3162 1.399-1.0394 1.5343-1.9496l1.2872-8.467c.1623-1.0977-.4037-2.1484-1.3523-2.6205.0348-3.5634-.4616-6.4661-2.7573-7.842-2.7503-1.6486-5.8426-.9083-5.8426-.9083s-2.9731-3.7931-8.1729-2.8136c-5.5339 1.0428-8.7467 5.4538-9.8339 11.3482-.0626.0169-.1266.0279-.1892.045-1.2104.332-1.9827 1.5312-1.7964 2.791l1.2872 8.467c.155 1.0432.9183 1.8369 1.8964 2.057-1.0339 2.7988-3.994 5.5724-2.697 9.4902.3756 1.1346 2.068 2.3345 4.2575 3.3895-.4939.205-1.0948.4368-1.8469.7023-2.0544.7242-6.0527 1.86-7.7134 3.5957-2.2811 2.3848-3.7773 10.4983-4.2114 13.7422h33.8302c-2.9393-1.5435-4.7912-4.7698-4.8256-8.885zm-15.9912-25.9125-.2234-1.5197c2.7266-1.4611 8.2126-2.3074 8.2126-2.3074.0037-.0599-.0119-.2706-.345-.2757 0 0-2.8392-.4636-8.1561.6202l-.3421-2.3277c-.0762-.5126.2457-1.0074.7439-1.1286 7.2659-1.7665 14.9275-1.7665 22.1934 0 .4982.1212.8201.616.7439 1.1286l-.2206 1.5008c-2.6028-.9282-4.8683-.8817-4.8683-.8817-.3311-.0364-.3728.1707-.3766.2305 0 0 2.6736.5641 5.0601 1.9083l-.4486 3.0522c-.084.5654-.6167.9352-1.171.8237-3.2292-.6492-6.5238-.9778-9.8153-.9778-3.2919 0-6.5866.3286-9.8158.9778-.5544.1116-1.0871-.2581-1.1711-.8235z"/><path d="m63.8965 50.7148-3.6453-9.555c.0017.0007.004.0015.0057.0023.7617.3271 1.6431-.0244 1.9707-.7852.3271-.7607-.0229-1.6426-.7832-1.9697-.4395-.1895-4.373-1.8359-7.0854-1.3008-1.3598.2668-2.3583.6855-3.5975 1.0665.1531-.3603.2385-.7566.2385-1.1729 0-1.6569-1.3431-3-3-3s-3 1.3431-3 3c0 .4163.0854.8126.2386 1.173-1.2391-.381-2.2377-.7997-3.597-1.0665-2.7173-.5332-6.6465 1.1113-7.0859 1.3008-.7607.3281-1.1113 1.21-.7832 1.9707.325.7545 1.1935 1.1035 1.9498.7902l-3.6422 9.5468c-.0645.1445-.0801.4414-.0626.764.1806 4.3428 2.7858 6.521 5.9825 6.521 3.174 0 5.7723-2.1407 5.9858-6.422.0126-.2524.0359-.5128-.0894-.8632l-4.0747-10.6805c.4564-.0474.8862-.0542 1.2402.0155 1.6536.3247 2.9037 1.0156 4.938 1.3868v17.5634h-3c-1.6569 0-3 1.3431-3 3v1h16v-1c0-1.6569-1.3431-3-3-3h-3v-17.5634c2.0353-.3715 3.284-1.0621 4.9385-1.3868.3404-.0661.7595-.0656 1.2175-.0186l-4.0759 10.6836c-.0645.1445-.0801.4414-.0626.764.1807 4.343 2.7859 6.5212 5.9826 6.5212 3.174 0 5.7723-2.1407 5.9858-6.422.0126-.2524.0359-.5128-.0893-.8632zm-22.7965.2852c0 2.6666-1.4431 4-3.1 4-.3525 0-.6858-.0734-1-.1942 1.1625-.4467 2-1.7066 2-3.8058h-4.0317l3.02-7.916c.0046.012 3.1246 7.916 3.1117 7.916zm16.9 4c-.3525 0-.6858-.0734-1-.1942 1.1625-.4467 2-1.7066 2-3.8058h-4.0317l3.02-7.916c.0046.012 3.1246 7.916 3.1117 7.916 0 2.6666-1.4431 4-3.1 4z"/></svg>