<?xml version="1.0" encoding="utf-8"?>
<!-- Generator: Adobe Illustrator 17.1.0, SVG Export Plug-In . SVG Version: 6.00 Build 0)  -->
<svg version="1.2" baseProfile="tiny" xmlns="http://www.w3.org/2000/svg" xmlns:xlink="http://www.w3.org/1999/xlink" x="0px"
	 y="0px" width="64px" height="64px" viewBox="0 0 64 64" xml:space="preserve">
<g id="Box">
	<rect fill="none" width="64" height="64"/>
</g>
<g id="Icon">
	<path d="M61,32.1304c0-4.5753-4.6036-8.4638-11.92-10.8136c0.2731-1.2478,0.4886-2.4649,0.6404-3.6396
		C51.6304,16.9738,53,15.1541,53,13c0-2.4246-1.7266-4.444-4.0168-4.9009C47.799,5.3419,45.616,4,43.1074,4
		c-3.2413,0-7.1506,2.3447-11.104,6.3793c-5.6135-5.7458-10.8001-7.7387-14.4106-5.4506
		c-3.8891,2.4672-4.3156,8.9016-2.6667,16.4152c-0.9153,0.2935-1.7799,0.6109-2.6003,0.9474C11.4406,21.4972,10.2828,21,9,21
		c-2.7614,0-5,2.2386-5,5c0,0.6909,0.1403,1.3491,0.3937,1.9476C3.4883,29.2626,3,30.6667,3,32.1304
		c0,4.4718,4.3043,8.3486,11.8792,10.777c-1.5847,7.4042-1.1317,13.7245,2.7136,16.1639c4.6014,2.921,10.5983-1.5592,14.4131-5.4522
		c3.8445,3.9273,9.7802,8.3818,14.4014,5.4522c3.502-2.2222,4.4681-8.0609,2.7433-16.1636C56.5131,40.5352,61,36.6464,61,32.1304z
		 M7.3775,30.7076C7.8889,30.884,8.4287,31,9,31c2.7614,0,5-2.2386,5-5c0-0.0259-0.0073-0.0497-0.0076-0.0756
		c0.6121-0.2462,1.2635-0.4784,1.9388-0.7004c0.6625,2.2346,1.4745,4.5164,2.4081,6.7809
		c-0.9652,2.3419-1.8053,4.7035-2.4795,7.0107C11.7474,37.6583,5.436,34.5525,7.3775,30.7076z M19.7354,55.6934
		c-2.3273-1.4765-2.5654-8.7026,0.9148-18.6085c0.5468,1.0964,1.1106,2.1797,1.9283,3.627C22.2212,41.4005,22,42.1707,22,43
		c0,2.7614,2.2386,5,5,5c0.0862,0,0.1666-0.0211,0.2518-0.0254c0.6808,0.9267,1.3693,1.8013,2.0611,2.6386
		C27.2575,52.7464,22.2189,57.267,19.7354,55.6934z M44.2646,55.6934c-0.5586,0.354-1.2939,0.4023-2.248,0.1475
		c-2.6926-0.7186-6.8375-3.9727-11.1527-9.7033C31.5634,45.2774,32,44.1951,32,43c0-2.7614-2.2386-5-5-5
		c-0.4343,0-0.8482,0.0727-1.2499,0.1768c-8.4846-15.3343-9.1727-27.8666-6.0147-29.8701c1.5191-0.962,5.0134,0.2903,9.5942,5.0558
		c-2.5061,3.0345-4.9744,6.6864-7.2429,10.8276c0.4967,1.6054,1.1053,3.3156,1.8417,5.1172C30.4816,15.956,38.9682,8,43.1074,8
		c0.8353,0,1.4052,0.3388,1.8713,1.0402C43.7835,9.9539,43,11.3794,43,13c0,1.943,1.1198,3.6085,2.7387,4.436
		c-0.1204,0.897-0.2855,1.8472-0.4964,2.845c-3.6849-0.8204-7.8589-1.2988-12.3507-1.3549
		c-0.9152,1.2039-1.852,2.5442-2.7973,4.0223c4.9836-0.1496,9.7602,0.3289,14.1319,1.2942
		C42.1454,31.2,38.2332,39.2391,33.389,45.7623c0.9321,1.1771,1.8342,2.2142,2.6934,3.1152
		c0.9225-1.2114,1.8312-2.5245,2.7268-3.8923c2.2939-0.2386,4.4666-0.5796,6.4745-1.0278
		C46.6868,50.6948,45.8536,54.6855,44.2646,55.6934z M41.4689,40.6061c3.017-5.3605,5.1564-10.5238,6.5892-15.3458
		C53.2957,26.918,57,29.337,57,32.1304C57,35.2756,51.2616,39.0335,41.4689,40.6061z"/>
</g>
</svg>
