<?xml version="1.0" encoding="utf-8"?>
<!-- Generator: Adobe Illustrator 17.1.0, SVG Export Plug-In . SVG Version: 6.00 Build 0)  -->
<svg version="1.2" baseProfile="tiny" xmlns="http://www.w3.org/2000/svg" xmlns:xlink="http://www.w3.org/1999/xlink" x="0px"
	 y="0px" width="64px" height="64px" viewBox="0 0 64 64" xml:space="preserve">
<g id="_x36_4px_Boxes">
	<rect fill="none" width="64" height="64"/>
</g>
<g id="Icon">
	<g>
		<path d="M55.76,27.3114c-5.5947-7.9552-3.7836-15.4768-3.7836-15.4768c-5.2803,2.7312-4.7341,7.1011-6.0087,8.7398
			c-0.9998,1.2855-2.6285,1.3784-3.6416-0.3641c-3.1008-5.3336,2.8491-12.1635,2.8491-12.1635c-10,1-13.0828,9.4805-13.0828,9.4805
			c-2.375-7.75-8.9026-10.4267-8.9026-10.4267c3.5,7.75-0.8474,14.4267-0.8474,14.4267c-3.75-8.875-8.265-9.29-8.265-9.29
			c1.375,13-5.7929,11.9119-8.1848,20.7187c-2.5322,9.3234,2.1053,14.4577,6.5677,15.6142c-1.0552-1.1525-1.6605-2.4757-1.6605-3.97
			V40.125c0-4.2539,3.6777-9.3252,21.2002-9.3252s21.2002,5.0371,21.2002,9.2622v4.5381c0,1.4979-0.6082,2.824-1.6682,3.9785
			C56.5035,46.7061,62.688,37.1625,55.76,27.3114z"/>
		<path d="M32,34c-9.9411,0-18,1.875-18,6.125V44.6c0,1.3322,1.3185,2.6237,3.5222,3.6966l-2.5302,3.5617
			c-0.6172,0.8687-0.4518,2.0652,0.3843,2.7258C17.5244,56.2812,22.4553,59,32,59c9.602,0,14.5346-2.7515,16.662-4.4463
			c0.8159-0.65,0.9968-1.8102,0.4178-2.6779l-0.6596-0.9885c-3.2536,1.08-7.7155,1.7554-12.6702,1.7554
			c-5.5336,0-10.489-0.8201-13.7859-2.142c-0.5717-0.2292-0.3648-0.5372-0.1819-0.6944C24.6857,50.5475,28.2031,51,32,51
			c9.9411,0,18-3.0863,18-6.4v-4.538C50,35.815,41.9411,34,32,34z M18.7285,44.9038c-0.1514,0.4531-0.4336,0.749-0.7969,0.8335
			c-0.0664,0.0156-0.1367,0.0234-0.2061,0.0234c-0.666,0-1.3145-0.7144-1.543-1.6982c-0.2588-1.1079,0.1045-2.1079,0.8271-2.2769
			c0.7119-0.166,1.4961,0.5884,1.75,1.6753C18.8799,43.9722,18.8682,44.4844,18.7285,44.9038z M25.5713,46.7002
			c-0.2188,0.5088-0.6064,0.8662-1.0908,1.0068c-0.1445,0.042-0.2939,0.0635-0.4443,0.0635c-0.8691,0-1.6748-0.686-1.9609-1.6689
			c-0.1631-0.5605-0.1348-1.1421,0.0781-1.6372c0.2197-0.5088,0.6074-0.8662,1.0918-1.0068
			c0.1445-0.042,0.2939-0.0635,0.4453-0.0635c0.8672,0,1.6729,0.686,1.959,1.6689C25.8125,45.6235,25.7842,46.2051,25.5713,46.7002z
			 M32,48.2002c-1.2129,0-2.2002-0.9873-2.2002-2.2002S30.7871,43.7998,32,43.7998S34.2002,44.7871,34.2002,46
			S33.2129,48.2002,32,48.2002z M41.9248,46.1016c-0.2861,0.9829-1.0918,1.6689-1.9609,1.6689
			c-0.1504,0-0.2998-0.0215-0.4443-0.0635c-0.4844-0.1406-0.8721-0.498-1.0908-1.0068c-0.2129-0.4951-0.2412-1.0767-0.0781-1.6372
			c0.2861-0.9829,1.0918-1.6689,1.959-1.6689c0.1514,0,0.3008,0.0215,0.4453,0.0635c0.4844,0.1406,0.8721,0.498,1.0918,1.0068
			C42.0596,44.9595,42.0879,45.541,41.9248,46.1016z M47.8174,44.0625c-0.2285,0.9839-0.877,1.6982-1.543,1.6982
			c-0.0693,0-0.1396-0.0078-0.207-0.0234c-0.3623-0.0845-0.6445-0.3804-0.7959-0.8335c-0.1396-0.4194-0.1514-0.9316-0.0312-1.4429
			c0.2529-1.0869,1.0342-1.8413,1.75-1.6753C47.7129,41.9546,48.0762,42.9546,47.8174,44.0625z"/>
	</g>
</g>
</svg>
