<?xml version="1.0" encoding="utf-8"?>
<!-- Generator: Adobe Illustrator 21.0.2, SVG Export Plug-In . SVG Version: 6.00 Build 0)  -->
<!DOCTYPE svg PUBLIC "-//W3C//DTD SVG 1.1//EN" "http://www.w3.org/Graphics/SVG/1.1/DTD/svg11.dtd">
<svg version="1.1" xmlns="http://www.w3.org/2000/svg" xmlns:xlink="http://www.w3.org/1999/xlink" x="0px" y="0px" width="64px"
	 height="64px" viewBox="0 0 64 64" style="enable-background:new 0 0 64 64;" xml:space="preserve">
<style type="text/css">
	.st0{fill:none;}
</style>
<g id="_x36_4px_Box">
	<rect class="st0" width="64" height="64"/>
</g>
<g id="Icon">
	<g>
		<g>
			<path d="M21.8,49.8C24.7,50.5,28.2,51,32,51c6,0,11.3-1.1,14.6-2.8L57,58.6l2.2-2.2L8.5,5.8L6.3,7.9l7.9,7.9
				C14,25.1,8,25.1,5.9,33C3.4,42.3,8,47.4,12.5,48.6c-1.1-1.2-1.7-2.5-1.7-4v-4.5c0-4,3.3-8.8,18.4-9.3l3.2,3.2c-0.1,0-0.2,0-0.4,0
				c-9.9,0-18,1.9-18,6.1v4.5c0,1.3,1.3,2.6,3.5,3.7L15,51.9c-0.6,0.9-0.5,2.1,0.4,2.7C17.5,56.3,22.5,59,32,59
				c9.6,0,14.5-2.8,16.7-4.4c0.8-0.7,1-1.8,0.4-2.7l-0.7-1c-3.3,1.1-7.7,1.8-12.7,1.8c-5.5,0-10.5-0.8-13.8-2.1
				C21.4,50.3,21.6,50,21.8,49.8z M38.4,45.1c0.3-1,1.1-1.7,2-1.7c0.2,0,0.3,0,0.4,0.1c0.5,0.1,0.9,0.5,1.1,1
				c0.2,0.5,0.2,1.1,0.1,1.6c-0.3,1-1.1,1.7-2,1.7c-0.2,0-0.3,0-0.4-0.1c-0.5-0.1-0.9-0.5-1.1-1C38.2,46.2,38.2,45.6,38.4,45.1z
				 M32,43.8c1.2,0,2.2,1,2.2,2.2s-1,2.2-2.2,2.2s-2.2-1-2.2-2.2S30.8,43.8,32,43.8z M22.2,44.5c0.2-0.5,0.6-0.9,1.1-1
				c0.1,0,0.3-0.1,0.4-0.1c0.9,0,1.7,0.7,2,1.7c0.2,0.6,0.1,1.1-0.1,1.6c-0.2,0.5-0.6,0.9-1.1,1c-0.1,0-0.3,0.1-0.4,0.1
				c-0.9,0-1.7-0.7-2-1.7C21.9,45.5,21.9,45,22.2,44.5z M18.7,44.9c-0.2,0.5-0.4,0.7-0.8,0.8c-0.1,0-0.1,0-0.2,0
				c-0.7,0-1.3-0.7-1.5-1.7C15.9,43,16.3,42,17,41.8c0.7-0.2,1.5,0.6,1.8,1.7C18.9,44,18.9,44.5,18.7,44.9z M24.1,17.2L37.9,31
				c12.5,1,15.3,5.3,15.3,9v4.5c0,0.5-0.1,1-0.2,1.5l1,1c4.2-3.5,7.6-11.5,1.8-19.8c-5.6-8-3.8-15.5-3.8-15.5
				c-5.3,2.7-4.7,7.1-6,8.7c-1,1.3-2.6,1.4-3.6-0.4C39.2,14.9,45.2,8,45.2,8c-10,1-13.1,9.5-13.1,9.5c-2.4-7.8-8.9-10.4-8.9-10.4
				C24.9,11,24.7,14.6,24.1,17.2z M50,43.1v-3c0-2.7-3.4-4.5-8.4-5.3L50,43.1z"/>
		</g>
	</g>
</g>
</svg>
