<?xml version="1.0" encoding="utf-8"?>
<!-- Generator: Adobe Illustrator 19.1.0, SVG Export Plug-In . SVG Version: 6.00 Build 0)  -->
<svg version="1.2" baseProfile="tiny" xmlns="http://www.w3.org/2000/svg" xmlns:xlink="http://www.w3.org/1999/xlink" x="0px"
	 y="0px" width="64px" height="64px" viewBox="0 0 64 64" xml:space="preserve">
<g id="_x36_4px_Box">
	<rect fill="none" width="64" height="64"/>
</g>
<g id="Icon">
	<path d="M46.3557,15.1551c-0.3934-0.2447-0.8777,0.1272-0.7295,0.5662c1.7888,5.2971,1.0242,10.9859-1.5624,14.6185
		c-4.15,5.8284-12.0956,6.8931-10.6152,16.6624c0.1407,0.9281,0.4518,1.8817,0.9025,2.8165
		c7.3766-1.1448,13.497-8.9998,13.817-9.4263c0.3572-0.4761,0.6909-0.3676,0.7487-0.1691
		c-2.1411,4.3295-4.2999,7.4401-7.1018,9.7977c-1.9757,1.6624-4.4301,3.0216-6.5861,3.781
		c-8.7532,3.0831-18.6848-0.7015-23.0371-9.1824c-2.3003-4.4824-2.7168-9.5928-1.1738-14.3887
		c0.8162-2.5372,2.1414-4.8152,3.8608-6.7488l3.8011,4.1279c1.2899,1.4008,3.471,1.4907,4.8718,0.2009l6.7634-6.228l-2.3354-2.5363
		l6.3407-5.8387c0.7004-0.645,0.7454-1.7355,0.1004-2.4359c-0.6449-0.7004-1.7355-0.7453-2.4359-0.1004l-6.3408,5.8387
		l-4.671-5.0726l6.3408-5.8387c0.7004-0.6449,0.7453-1.7355,0.1004-2.4359c-0.645-0.7004-1.7355-0.7454-2.4359-0.1004
		l-6.3407,5.8387l-2.3355-2.5363l-6.7634,6.228c-1.4008,1.2899-1.4907,3.471-0.2008,4.8718l2.8259,3.0688
		c-2.2163,2.4049-3.9222,5.2659-4.9536,8.4722c-1.8706,5.813-1.3652,12.0068,1.4229,17.4399
		c4.0464,7.8848,12.0713,12.4214,20.3784,12.4214c4.3077,0,7.8101-1.1239,11.2794-2.9802c3.0974,1.6618,6.0678,1.7672,8.8135,0.6655
		C62.4647,51.1912,63.1935,25.6262,46.3557,15.1551z"/>
</g>
</svg>
