<?xml version="1.0" encoding="utf-8"?>
<!-- Generator: Adobe Illustrator 21.0.2, SVG Export Plug-In . SVG Version: 6.00 Build 0)  -->
<!DOCTYPE svg PUBLIC "-//W3C//DTD SVG 1.1//EN" "http://www.w3.org/Graphics/SVG/1.1/DTD/svg11.dtd">
<svg version="1.1" xmlns="http://www.w3.org/2000/svg" xmlns:xlink="http://www.w3.org/1999/xlink" x="0px" y="0px" width="64px"
	 height="64px" viewBox="0 0 64 64" style="enable-background:new 0 0 64 64;" xml:space="preserve">
<style type="text/css">
	.st0{fill:none;}
</style>
<g id="_x36_4px_Box">
	<rect class="st0" width="64" height="64"/>
</g>
<g id="Icon">
	<g>
		<g>
			<path d="M29.6,13.6l2.3,2.6l-0.6-2.6c-1-4.1,6-5.8,2.1-10.1l-2.3-2.6l0.6,2.6C32.7,7.6,25.8,9.3,29.6,13.6z M41.6,13.6l2.3,2.6
				l-0.6-2.6c-1-4.1,6-5.8,2.1-10.1l-2.3-2.6l0.6,2.6C44.7,7.6,37.8,9.3,41.6,13.6z M59.5,18H56c-0.6,0-1,0.4-1,1v5
				c-0.1,0-0.3,0.1-0.4-0.2c-0.1-0.2-0.5-2.2-0.8-3.8h-1.8c-0.3-1.5-1.5-2.8-3.1-3c-1.6-0.2-3,0.8-3.6,2.2c-0.4,1.1-2.1,1.1-2.5,0
				C42.2,17.9,41,17,39.5,17s-2.7,0.9-3.2,2.2c-0.4,1.1-2.1,1.1-2.5,0C33.2,17.9,32,17,30.5,17s-2.7,0.9-3.2,2.2
				c-0.4,1.1-2.1,1.1-2.5,0C24.2,17.9,23,17,21.5,17s-2.7,0.9-3.2,2.2c-0.4,1.1-2.1,1.1-2.5,0c-0.6-1.4-2-2.4-3.6-2.2
				C10.3,17.2,9,18.8,9,20.7V21H7c-0.8,0-1,0.7-1,1.5C6,23.3,6.2,24,7,24h2v33.3c0,1.8,1.3,3.5,3.1,3.6c1.6,0.2,3-0.8,3.6-2.2
				c0.4-1.1,2.1-1.1,2.5,0c0.5,1.3,1.8,2.2,3.2,2.2s2.7-0.9,3.2-2.2c0.4-1.1,2.1-1.1,2.5,0c0.5,1.3,1.8,2.2,3.2,2.2s2.7-0.9,3.2-2.2
				c0.4-1.1,2.1-1.1,2.5,0c0.5,1.3,1.8,2.2,3.2,2.2s2.7-0.9,3.2-2.2c0.4-1.1,2.1-1.1,2.5,0c0.6,1.4,2,2.4,3.6,2.2
				c1.8-0.2,3.1-1.8,3.1-3.6V25h3v1c0,0.6,0.4,1,1,1h3.5c1.9,0,2.5-2.6,2.5-4.5C62,20.6,61.4,18,59.5,18z M18,52c0,0.6-0.4,1-1,1
				s-1-0.4-1-1V26c0-0.6,0.4-1,1-1s1,0.4,1,1V52z M27,52c0,0.6-0.4,1-1,1s-1-0.4-1-1V26c0-0.6,0.4-1,1-1s1,0.4,1,1V52z M36,52
				c0,0.6-0.4,1-1,1s-1-0.4-1-1V26c0-0.6,0.4-1,1-1s1,0.4,1,1V52z M45,52c0,0.6-0.4,1-1,1s-1-0.4-1-1V26c0-0.6,0.4-1,1-1s1,0.4,1,1
				V52z M17.6,13.6l2.3,2.6l-0.6-2.6c-1-4.1,6-5.8,2.1-10.1l-2.3-2.6l0.6,2.6C20.7,7.6,13.8,9.3,17.6,13.6z"/>
		</g>
	</g>
</g>
</svg>
