<svg height="64" viewBox="0 0 64 64" width="64" xmlns="http://www.w3.org/2000/svg"><path d="m0 0h64v64h-64z" fill="none"/><path d="m21.9688 25.9492c-.9199 0-1.9023.627-1.9023 2.3867 0 1.6035.6758 2.4863 1.9023 2.4863.9141 0 1.8916-.624 1.8916-2.376 0-1.6103-.6719-2.497-1.8916-2.497z"/><path d="m14.252 25.9385h-.5938v2.166h.7031c.7578 0 1.21-.4316 1.21-1.1543 0-.6992-.4072-1.0117-1.3193-1.0117z"/><path d="m7.915 25.9385h-.6484v2.3438c.168.0215.3271.0312.5273.0312.8594 0 1.3525-.4453 1.3525-1.2207.0001-.7764-.4032-1.1543-1.2314-1.1543z"/><path d="m61.069 18h-58.138c-1.0664 0-1.931.9661-1.931 2.1579v15.6842c0 1.1918.8646 2.1579 1.931 2.1579h25.069v21h8v-19.4614l-5.775-1.1494c-.3461-.111-.2955-.3359-.2727-.3972l31.1167.008c1.0664 0 1.931-.9661 1.931-2.1579v-15.6842c0-1.1918-.8646-2.1579-1.931-2.1579zm-53.11 11.5693c-.2656 0-.4746-.0088-.6924-.0312v2.5615h-1.5195v-7.416h2.3662c1.6084 0 2.6074.8848 2.6074 2.3105 0 1.5645-1.084 2.5752-2.7617 2.5752zm8.0947 2.5303-.0293-.0479-1.6201-2.7139h-.7461v2.7617h-1.5195v-7.416h2.2119c1.75 0 2.7949.7891 2.7949 2.1123 0 .9482-.459 1.7148-1.2656 2.1211l1.9502 3.1826h-1.7764zm5.8379.0986c-2.1045 0-3.4111-1.4336-3.4111-3.7412 0-2.6758 1.791-3.873 3.5654-3.873 2.0977 0 3.4004 1.4336 3.4004 3.7412 0 2.6758-1.7852 3.873-3.5547 3.873zm10.7061-7.3867-2.1553 7.2881h-2.1074l-.0205-.0713-2.1504-7.3447h1.6836l.0205.0723 1.5918 5.6631 1.6016-5.7354h1.5742zm2.8457 7.2881h-1.5195v-7.416h1.5195zm7.705 0h-2.2383l-.0234-.0654-1.9746-5.4219v5.4873h-1.4199v-7.416h2.2383l.0234.0654 1.9736 5.418v-5.4834h1.4209zm7.002-.1182-.0781.0166c-.6279.1357-.8926.1787-1.6279.1787-2.2266 0-3.6094-1.3701-3.6094-3.5762 0-2.4268 1.4854-3.9941 3.7852-3.9941.5264 0 .9033.0371 1.4385.1445l.0879.0176-.1162 1.3193-.1064-.0186c-.5703-.0986-.835-.1084-1.3477-.1084-1.042 0-2.1553.6592-2.1553 2.5068 0 1.7695 1.1377 2.3984 2.1113 2.3984.5771 0 .9004-.0312 1.5-.1426l.1182-.0215v1.2795zm2.916.1182h-1.5195v-7.416h1.5195zm6.0654 0h-4.0166v-7.416h3.9834v1.2881h-2.4639v1.6709h2.2666v1.2881h-2.2666v1.8799h2.4971z"/></svg>