<?xml version="1.0" encoding="utf-8"?>
<!-- Generator: Adobe Illustrator 18.1.1, SVG Export Plug-In . SVG Version: 6.00 Build 0)  -->
<svg version="1.2" baseProfile="tiny" xmlns="http://www.w3.org/2000/svg" xmlns:xlink="http://www.w3.org/1999/xlink" x="0px"
	 y="0px" width="64px" height="64px" viewBox="0 0 64 64" xml:space="preserve">
<g id="Box">
	<rect fill="none" width="64" height="64"/>
</g>
<g id="Icon">
	<path d="M32.9,50c0-1.0541,0.0135-2.2471,0.0465-3.4749c-2.5694-6.4717-5.2391-14.6138-5.1302-21.2029
		c0,0,9.282,0.5096,13.0345,8.875c0.0168-0.0015,0.0322-0.0036,0.0491-0.0051V34.152l0.0182,0.0386
		c0.0895-0.0079,0.1828-0.014,0.2733-0.0215c0.0222-0.0473,0.0428-0.101,0.0585-0.1691c1.8906-8.25-0.9861-14.8253-9.596-16.481
		c0,0,4.7524-1.6747,16.4833,1.2555c0.1595-0.0751,0.2689-0.1532,0.1752-0.6063C46.713,10.4374,37.959,6.6046,30.6306,10.8671
		c0,0,3.3943-5.0286,11.0552-6.9851c0.0485-0.12,0.0741-0.2921-0.3052-0.5506c-1.3624-0.9287-5.155-2.8801-10.6306-1.8371
		c-4.9287,0.9388-7.2189,4.2264-8.9097,7.0796c0,0-4.5136-4.7704-11.1656-3.1074c-5.3984,1.3495-8.2855,5.9299-9.2348,7.7329
		c-0.2416,0.4589-0.1587,0.5626-0.0443,0.6232c1.5885-0.5621,8.8451-2.8993,13.1768-0.3636c0,0-2.9856,0.3101-6.5724,3.2115
		c-3.8807,3.1391-5.3765,8.8008-4.0575,13.5009c0.1044,0.3718,0.34,0.5294,0.4806,0.4512
		c0.9323-1.2707,6.3194-8.2475,11.9102-9.7617c-6.7954,6.7955-6.0421,15.7661-2.4271,20.1042
		c0.3125,0.375,0.6082,0.3563,0.7175,0.2313c0,0,1.2874-9.4479,8.6789-15.677c0.3405-0.287,0.614-0.3337,0.7079-0.2085
		c-0.7754,1.4128-2.6024,4.9044-3.1021,7.303c0,0,2.335,17.9199,8.0915,27.3862h4.4097C32.9951,57.024,32.9,52.9811,32.9,50z"/>
	<path d="M61.435,39.826c-0.195-1.1728-1.0873-2.0651-2.2607-2.2607C55.7828,37,50.1301,37,49.0001,37
		c-1.1301,0-6.7828,0-10.1743,0.5653c-1.1735,0.1956-2.0657,1.0879-2.2607,2.2607C36,43.2173,36,48.8696,36,50
		c0,1.1303,0,6.7827,0.5651,10.174c0.195,1.1729,1.0873,2.0651,2.2607,2.2607C42.2172,63,47.8699,63,49.0001,63
		c1.1301,0,6.7828,0,10.1742-0.5654c1.1735-0.1956,2.0657-1.0878,2.2607-2.2607C62,56.7827,62,51.1303,62,50
		C62,46.607,62,43.2173,61.435,39.826z M50,54h-3.1396l-0.0265-0.0654L44,47.9474V54h-2v-9h3.1396l0.0265,0.0654L48,51.1102V45h2V54
		z M56.0479,54H51v-9h2v7.2086h3.0479V54z"/>
</g>
</svg>
