<?xml version="1.0" encoding="utf-8"?>
<!-- Generator: Adobe Illustrator 19.1.0, SVG Export Plug-In . SVG Version: 6.00 Build 0)  -->
<svg version="1.2" baseProfile="tiny" xmlns="http://www.w3.org/2000/svg" xmlns:xlink="http://www.w3.org/1999/xlink" x="0px"
	 y="0px" width="64px" height="64px" viewBox="0 0 64 64" xml:space="preserve">
<g id="Box">
	<rect fill="none" width="64" height="64"/>
</g>
<g id="Icon">
	<g>
		<path d="M10.0378,21.4891l0.7081-0.086l8.0009,3.8502c0.0544-1.5913,0.4213-3.3035,1.5195-4.7784l-7.2049-2.5247
			c-0.251-0.6806-0.8253-2.0679-1.3993-2.2604c-0.7649-0.2565-1.5895,0.8596-1.5895,0.8596
			c-0.9929-0.2474-1.3253-0.9026-0.7447-1.4297c-1.6882-0.6346-2.5773,0.7669-2.1298,1.6639
			C6.7452,16.8702,6.3725,17.2221,6.3,17.704c-0.0546,0.3622,0.085,0.6964,0.3239,0.9385c-0.2429,0.1571-0.4249,0.4045-0.4713,0.713
			c-0.0785,0.5212,0.2779,0.9252,0.7042,1.2095C8.0868,21.385,9.3472,21.573,10.0378,21.4891z"/>
		<path d="M27.5458,37.787l-8.0632,5.0744c-2.0612,1.283-2.9532,3.8264-2.145,6.1158l1.2134,3.4374l-2.9852,3.5894h-1.0317
			c-1.2548,0-2.3862,0.7553-2.8674,1.9142L11.0117,60h5.7185l6.5977-5.8865c0,0-2.7167-4.6313,1.1643-7.2187
			c2.1943-1.4629,4.3969-2.4702,5.8979-3.07C30.0436,39.8893,28.7667,38.4206,27.5458,37.787z"/>
		<path d="M52.8862,23.436c-1.0806,0-2.0044,0.6635-2.3915,1.6044c-1.3316-0.0061-2.534-0.0952-3.9379,0.0826
			c-1.0353,0.1448-2.3216,0.4137-3.3769,1.4463c-1.0048,0.9966-1.4755,2.4444-1.0817,4.0655
			c0.7709,3.0477,4.2837,6.3586,3.7036,8.2311c-0.7612,2.3334-3.8248,1.5049-5.9181,0.5475
			c-0.1544-3.0412-0.9562-6.2222-2.4547-9.4496c-4.5867,0.5156-6.8204-0.5463-7.8025-1.3209
			c-0.4983-0.393-0.3445-0.5088-0.2597-0.5824c3.4866,1.0061,9.4064-0.0292,10.8414-3.2307c0,0-2.1323-2.863-0.4594-5.7932
			c0.0128-0.0175,0.0229-0.0331,0.0358-0.0506c3.9677-5.3775,0.4194-10.3038-1.2991-12.1817l0.2378-2.3779
			c0,0-1.1472-0.5624-3.5868,1.5734h-3.6592c-0.6783,0-1.3135,0.3323-1.7003,0.8895l-0.5774,0.8317l-3.6795,2.096l0.937,2.3296
			l1.4985-0.5399c1.0754-0.3875,2.2614,0.1703,2.6489,1.2458l0.2501,0.6942l-3.3491,1.2065l0.7157,1.7794l3.2062-0.7404
			c0,0,1.6099,2.6845-3.6169,3.3892c-7.235,0.9755-7.0994,5.0263-6.5709,9.196l-8.4844,5.2115
			c-0.7061-0.1976-2.1394-0.5367-2.6274-0.1887c-0.6569,0.4684-0.2379,1.7913-0.2379,1.7913
			c-0.7834,0.6583-1.5089,0.5425-1.5945-0.237c-1.5052,0.9937-0.8931,2.5364,0.0958,2.701c-0.1959,0.4174-0.13,0.9258,0.2174,1.2675
			c0.2611,0.2568,0.6135,0.3402,0.9498,0.2891c-0.0154,0.2888,0.0779,0.5814,0.3003,0.8002
			c0.3757,0.3697,0.912,0.3185,1.3925,0.1404c1.3862-0.5139,2.2785-1.4236,2.6163-2.0319l0.3265-0.588
			c3.1673-1.6185,8.4957-3.6696,13.2385-2.2426c3.9576,1.1908,5.3364,5.207,5.3364,10.7698s3.9714,5.9832,7.2056,5.9832
			s4.0085,3.9603,4.0085,3.9603h-1.147c-1.3864,0-2.8147,0.9191-3.1954,2.2522L39.1091,60h7.1054l1.7031-1.7643l-1.7031-8.0457
			l-6.8935-4.8744c0.1496-0.5789,0.2706-1.1669,0.3647-1.7628c3.9072,1.005,7.6217,0.4979,9.0606-3.3354
			c0.8586-3.5543-1.7679-6.1591-3.3736-8.3337c-2.0328-2.7531-1.0109-4.3796,1.4735-4.799
			c1.0003-0.1668,2.2658-0.1882,3.6151-0.1855c0.3601,0.9958,1.3048,1.7115,2.4248,1.7115c1.429,0,5.3472-2.5873,5.3472-2.5873
			S54.3151,23.436,52.8862,23.436z M31.4932,10.4999c-0.8284,0-1.5-0.6715-1.5-1.4999h3
			C32.9932,9.8284,32.3217,10.4999,31.4932,10.4999z"/>
		<path d="M23.2631,15.1939c1.7966,0,1.9252-1.2941,4.7416-1.6548c0.242-0.0322,0.2479-0.354,0.0356-0.4252
			c-0.1575-0.0515-1.645-0.2123-2.9939,0.1292c-2.202,0.5663-3.2965-0.2578-3.4764-1.0173
			c-0.0515-0.2129-0.2288-0.2064-0.2901,0.0191C20.7974,14.0026,22.0784,15.1939,23.2631,15.1939z"/>
	</g>
</g>
</svg>
