<svg height="64" viewBox="0 0 64 64" width="64" xmlns="http://www.w3.org/2000/svg"><path d="m0 0h64v64h-64z" fill="none"/><path d="m42.1379 2.0908c.8621-.1725 1.0346-.2962 1.0346-.4686s-.5173-.3448-1.3793-.3793c0 0-1.3103.2068-1.2414.7586.0689.5517.724.2617 1.5861.0893z"/><path d="m29.4991 27.2271 2.9127 1.2896c.4682.2073 1.0036.2143 1.4689.0005 1.3253-.6087 3.17-1.6872 3.8829-2.9932.1371-.2513.1721-.546.1626-.8322-.0089-.272-.0286-.5405-.0568-.7916-.0966-.8618-.7982-1.5347-1.6633-1.593-.4968-.0334-1.0943-.0479-1.7289-.0396-.478.0063-.9377.1944-1.2757.5324l-3.7024 3.7024z"/><path d="m23.9311 13.8636c.3104.0345 1.2414-.9655 1.4828-1.2069.2413-.2414.2206-1.7277 0-2.0345-.2207-.3068-.3953-.7362-.8528-.5577s-1.6644 2.8903-1.5955 3.224.6551.5406.9655.5751z"/><path d="m37.0265 3.0834c.6552-.1217 1.8011-.0823 1.7666-.7393 0 0-.0345-.4802-2.1035-.1184s-2.3448.3374-2.3448.8241c.0001.4868 2.0265.1553 2.6817.0336z"/><path d="m30.1111 5.274s1.3861-.8743 2.4913-.8591.6275-.8809.6275-.8809-.7587-.7661-3.009.6445c-2.2504 1.4105-1.6563 1.5762-1.6177 1.6705.0387.0943.6748.1014 1.5079-.575z"/><path d="m26.9756 8.22c.3104-.5862 1.2027-.7554.8176-1.253 0 0-.8276-.2069-1.5862.6552s-1.2414 1.2759-.931 1.7241c.3102.4483 1.3892-.54 1.6996-1.1263z"/><path d="m13.7657 41.4135 1.5732 1.4778c.3575.3358.8934.3963 1.3168.1487l.4548-.266c.3854-.2254.4927-.5579.1774-.8738l-3.5142-2.3345c-.0748-.0497-.1596-.0803-.2495-.0775-.5613.0178-2.4418-.0002-2.4418 1.24l1.7372.2349c.3231.1538.6231.2965.9461.4504z"/><path d="m12.2792 43.7348.5177.3246c.6409.402 1.4521.4144 2.105.0321l.0107-.0063-1.7175-1.3916c-.3278-.2656-.7249-.4314-1.1442-.4778l-1.7878-.1979c-.2627-.0291-.5278.0748-.6899.2835-.2608.3356-.4958.6827-.6996 1.0368l2.3879.0844c.3609.0127.7119.1204 1.0177.3122z"/><path d="m51.8136 20.4591 4.2084-2.8057c.611-.4073.978-1.093.978-1.8274v-6.7863c0-1.2791-.6177-2.4795-1.6586-3.223l-3.9161-2.7972c-.8967-.6405-2.0436-.8187-3.0923-.4803l-14.3616 4.6327c-.4667.1506-.8064.5544-.8748 1.04l-.948 6.7335c-.0861.6118.2768 1.1978.8629 1.3931l1.113.371c.5229.1745.8755.6638.8755 1.2149v2.0169c0 .4497.3557.8161.8049.8367 1.1953.0549 2.3047.2383 2.7596.6932.7636.7627.8251 3.2722.8284 3.899-.0151.0927-.0298.1826-.045.2753-.8862 2.4669-4.6135 4.5237-5.8638 5.1556-.2519.1273-.5494.1219-.795-.0172l-4.0884-2.3139c-.3657-.1619-.6016-.5243-.6014-.9243l.0007-2.8303v-1.8408c0-.5304.314-1.0105.7999-1.2231l.0253-.011c.6564-.2872.9691-1.0412.7086-1.7086l-1.2158-3.1155c-.1918-.4913-.6652-.8148-1.1927-.8148-1.7159 0-1.8749.1379-2.8721-.4116-.683-.3763-1.5411-.0598-1.816.67s-.4362 7.4288-1.7454 11.0945c-1.7684 4.9517-5.4789 8.082-5.4789 8.082-.086.2283-.1461.4634-.18.705-.0426.3034-.1016.7319-.1534 1.0735-.0538.3544.0649.7103.3206.9616.9528.9362 3.1849 3.1547 3.1849 3.1547.7757.7775.6077 2.0782-.3401 2.6331l-2.3856 1.3965c-.2438.1428-.2623.4884-.0352.6566 1.1445.8478 2.1273 1.5759 2.2037 1.633.1895.1414.0565.5679.0565.5679l-4.5237-2.5078c-.896-.5205-1.9365-.811-2.9725-.7867 0 0-5.2647.4083-3.8814 1.7916.6989.6371 2.1001 2.2563 2.5693 2.0986.3127-.1052.7187-.442.7187-.442l3.0384 1.7203c.2295.0952.2324-.3165.4582-.7212s.7203-.5745 1.1484-.3973c0 0 3.3572 1.4636 3.9159 1.6204.4348.122.8163.0463 1.1489-.3494.2905-.3457 1.054-1.5809 1.054-1.5809.2704-.4056.7477-.6224 1.2311-.5593l6.8881.9c.3879.0507.7313.2759.9324.6115.4861 1.0012.6556 1.2433 1.211 1.5485.2361.1298 7.7007 3.2988 7.7007 3.2988.6032.2584.9133.931.7182 1.5576l-1.1208 3.5984c.0005.2609.0009.504.0014.765l.5424 1.7198c.1685.5343.6647.8972 1.225.8958l3.835-.0092c.7057-.0018 1.277-.5745 1.277-1.2803-.2503-.4178-1.294-2.4062-1.5354-2.5269l-.5844-.2922c-.4338-.2169-.7078-.6603-.7078-1.1453v-.6783c0-.3395.1349-.6651.3749-.9052l2.239-1.9477c.1045-.1691.2048-.3314.3093-.5005l1.7157-5.1472c.1196-.3588.0745-.752-.1233-1.0743l-4.23-6.8954c-.2198-.3583-.2497-.8016-.08-1.1862l.2303-.522c.2316-.525.7843-.8318 1.3524-.7507l5.4056.7722c.3989.057.8014-.0771 1.0864-.3621l2.563-2.5631c.5369-.5368.5186-1.4127-.0401-1.9266l-.0347-.0319c-.5587-.514-.5769-1.3898-.0401-1.9266l3.7242-3.7242c.2401-.2401.375-.5657.375-.9052v-2.1893c0-.7072-.5732-1.2803-1.2803-1.2803h-2.7968c-.5511 0-1.0404-.3527-1.2147-.8755l-.399-1.1968c-.1825-.5478.0241-1.1499.5044-1.4702z"/><path d="m16.0411 50.8656-1.5397-.6722c-.1154-.0504-.2496-.03-.3449.0523l-1.2663 1.0942c-.1107.0956-.2714.1062-.3937.0259l-2.1838-1.4347c-.1823-.1198-.4163-.1268-.6055-.0184l-.5359.3073c-.199.1141-.4467.0999-.6313-.0363l-1.942-1.4329c-.1707-.1259-.4124-.0794-.5242.1008l-1.4859 2.3953c-.0717.1156-.0645.2635.0183.3715l.8289.9144c.1009.1318.2529.2138.4185.2253 0 0 1.6621.435 1.8809.1381s.2655-1.1249.2655-1.1249l1.2592.0534c.0653-.007.1312.0059.1891.0369l3.5153 1.8806c.1167.0624.2595.0485.3618-.0354l2.7922-2.2881c.1891-.1551.1476-.4552-.0765-.5531z"/></svg>