<svg height="64" viewBox="0 0 64 64" width="64" xmlns="http://www.w3.org/2000/svg"><path d="m0 0h64v64h-64z" fill="none"/><path d="m23.4009 53.1793-3.4009 1.9317v-7.111h-4v7.1129l-3.4162-1.9336c-.5741-.3274-1.3104-.2021-1.7413.2988-.4315.5009-.4546 1.2377-.0448 1.7558l6.1073 7.7409c.2617.3318.6589.5252 1.0815.5252s.8196-.1934 1.0814-.5252l6.1107-7.7409c.4077-.5156.3942-1.2537-.0383-1.7558-.431-.5009-1.1653-.6262-1.7394-.2988z"/><path d="m58.9748 39.9366-7.7409-6.111c-.5156-.4077-1.2537-.3948-1.7558.0377-.5009.4309-.6262 1.1639-.2988 1.738l1.9317 3.3987h-7.111v4h7.1129l-1.9336 3.4185c-.3274.5741-.2021 1.3127.2988 1.7437.5009.4315 1.2377.4546 1.7558.0448l7.7409-6.1074c.3318-.2617.5252-.659.5252-1.0815s-.1934-.8197-.5252-1.0815z"/><path d="m34.7374 1.8517c.7644-.1529.9173-.2626.9173-.4155s-.4587-.3057-1.223-.3362c0 0-1.1618.1834-1.1007.6727.0612.4891.642.2319 1.4064.079z"/><path d="m23.5311 24.139 2.5826 1.1434c.4151.1838.8898.19 1.3024.0005 1.175-.5397 2.8107-1.496 3.4428-2.654.1216-.2228.1525-.4841.1442-.7378-.0079-.2411-.0253-.4792-.0504-.7019-.0856-.7641-.7076-1.3608-1.4748-1.4124-.4404-.0296-.9702-.0425-1.533-.035-.4238.0056-.8314.1724-1.1311.472l-3.2827 3.2827z"/><path d="m18.5942 12.2902c.2752.0306 1.1007-.8561 1.3147-1.0701s.1957-1.5318 0-1.8039c-.1957-.272-.3505-.6527-.7562-.4945-.4056.1583-1.4758 2.5627-1.4146 2.8586s.5809.4793.8561.5099z"/><path d="m30.2054 2.7319c.5809-.1079 1.5969-.0729 1.5663-.6555 0 0-.0306-.4258-1.8651-.105-1.8344.3207-2.079.2992-2.079.7307.0001.4316 1.7969.1377 2.3778.0298z"/><path d="m24.0738 4.6742s1.229-.7752 2.2089-.7617c.9799.0134.5563-.7811.5563-.7811s-.6727-.6793-2.668.5715c-1.9952 1.2506-1.4686 1.3975-1.4343 1.4811s.5984.0899 1.3371-.5098z"/><path d="m21.2936 7.2863c.2752-.5197 1.0664-.6698.7249-1.111 0 0-.7338-.1835-1.4064.5809-.6727.7643-1.1007 1.1312-.8255 1.5287s1.2319-.4788 1.507-.9986z"/><path d="m9.5811 36.7173 1.3949 1.3104c.317.2977.7921.3514 1.1675.1318l.4032-.2358c.3417-.1999.4369-.4946.1573-.7748l-3.1158-2.0699c-.0663-.0441-.1415-.0712-.2212-.0687-.4977.0158-2.165-.0002-2.165 1.0994l1.5403.2083c.2864.1363.5524.2629.8388.3993z"/><path d="m8.2631 38.7755.459.2879c.5683.3564 1.2875.3674 1.8665.0284l.0095-.0056-1.5228-1.2339c-.2906-.2355-.6427-.3825-1.0145-.4237l-1.5851-.1755c-.2329-.0258-.468.0663-.6117.2513-.2313.2976-.4397.6054-.6204.9193l2.1172.0748c.3199.0115.6311.107.9023.277z"/><path d="m44.3467 30.1965-.0308-.0283c-.4953-.4557-.5115-1.2322-.0355-1.7082l3.3021-3.3021c.2128-.2129.3324-.5015.3324-.8026v-1.9412c0-.627-.5082-1.1352-1.1352-1.1352h-2.4798c-.4886 0-.9225-.3127-1.077-.7762l-.3538-1.0612c-.1619-.4857.0213-1.0195.4472-1.3035l3.7314-2.4876c.5417-.3612.8671-.9692.8671-1.6203v-6.017c0-1.1342-.5477-2.1984-1.4706-2.8577l-3.4722-2.4802c-.795-.5679-1.812-.7259-2.7418-.4259l-12.7337 4.1077c-.4138.1335-.715.4916-.7756.9221l-.8406 5.9703c-.0764.5424.2454 1.062.7651 1.2352l.9869.329c.4636.1546.7762.5884.7762 1.0771v1.7883c0 .3987.3154.7236.7136.7419 1.0598.0486 2.0435.2113 2.4468.6146.6771.6762.7315 2.9013.7345 3.4571-.0134.0822-.0264.1619-.0399.2441-.7858 2.1873-4.0906 4.0109-5.1992 4.5712-.2233.1129-.4871.1081-.7048-.0152l-3.6251-2.0518c-.3243-.1436-.5334-.4649-.5333-.8195l.0007-2.5095v-1.6321c0-.4703.2784-.896.7092-1.0845l.0224-.0098c.582-.2546.8593-.9232.6283-1.515l-1.078-2.7624c-.17-.4356-.5898-.7225-1.0575-.7225-1.5214 0-1.6624.1223-2.5466-.3649-.6057-.3337-1.3664-.053-1.6102.5941-.2438.647-.3868 6.5868-1.5475 9.837-1.568 4.3904-4.8579 7.1659-4.8579 7.1659-.0762.2024-.1295.4109-.1595.6251-.0378.269-.0901.6489-.136.9518-.0477.3143.0575.6298.2842.8527.8448.8301 2.824 2.7971 2.824 2.7971.6877.6893.5388 1.8427-.3016 2.3346l-2.1152 1.2383c-.2162.1266-.2325.433-.0312.5822 1.0148.7518 1.8861 1.3973 1.9539 1.4479.168.1253.05.5035.05.5035l-4.011-2.2235c-.7944-.4615-1.717-.7191-2.6355-.6976 0 0-4.668.362-3.4415 1.5885.6196.5649 1.8621 2.0006 2.278 1.8608.2773-.0933.6373-.3918.6373-.3918l2.694 1.5253c.2035.0844.2061-.2806.4062-.6395.2002-.3588.6387-.5094 1.0182-.3522 0 0 2.9767 1.2977 3.472 1.4368.3856.1082.7238.0411 1.0187-.3098.2575-.3065.9344-1.4017.9344-1.4017.2397-.3596.663-.5519 1.0916-.496l6.1074.798c.3439.0449.6484.2447.8268.5422.431.8878.5813 1.1024 1.0737 1.373.2094.1151 6.8278 2.9249 6.8278 2.9249.5349.2291.8098.8255.6368 1.381l-.9938 3.1906c.0004.2314.0008.4469.0012.6783l.481 1.5249c.1494.4738.5894.7955 1.0861.7943l3.4003-.0081c.6259-.0015 1.1324-.5093 1.1324-1.1351-.2219-.3704-1.1473-2.1334-1.3613-2.2404l-.5181-.2591c-.3846-.1923-.6276-.5854-.6276-1.0154v-.6014c0-.3011.1196-.5897.3325-.8026l1.9852-1.7269c.0927-.1499.1816-.2938.2742-.4438l1.5212-4.5638c.1061-.3181.066-.6667-.1093-.9526l-3.7505-6.1138c-.1949-.3177-.2214-.7108-.0709-1.0518l.2042-.4628c.2054-.4655.6954-.7375 1.1991-.6656l4.793.6847c.3537.0505.7105-.0684.9632-.3211l2.2725-2.2726c.4762-.4764.46-1.2529-.0354-1.7087z"/><path d="m11.5986 45.0981-1.3651-.5961c-.1024-.0447-.2213-.0266-.3058.0464l-1.1227.9702c-.0982.0848-.2407.0942-.3491.0229l-1.9363-1.2721c-.1616-.1061-.3691-.1124-.5369-.0162l-.4752.2724c-.1765.1012-.3961.0886-.5597-.0322l-1.722-1.2704c-.1513-.1116-.3657-.0704-.4648.0894l-1.3174 2.1238c-.0636.1025-.0571.2336.0162.3294l.7349.8107c.0894.1168.2242.1896.371.1998 0 0 1.4737.3857 1.6677.1225s.2355-.9975.2355-.9975l1.1165.0474c.0579-.0062.1163.0052.1677.0327l3.1168 1.6674c.1035.0554.23.043.3208-.0314l2.4757-2.0287c.1677-.1375.1309-.4036-.0678-.4904z"/></svg>