<svg height="64" viewBox="0 0 64 64" width="64" xmlns="http://www.w3.org/2000/svg"><path d="m0 0h64v64h-64z" fill="none"/><path d="m40.1381 2.0908c.8621-.1725 1.0346-.2962 1.0346-.4686s-.5173-.3449-1.3794-.3793c0 0-1.3103.2069-1.2414.7586.0691.5517.7242.2617 1.5862.0893z"/><path d="m27.4993 27.2271 2.9127 1.2896c.4682.2072 1.0036.2143 1.4688.0005 1.3253-.6087 3.1701-1.6872 3.883-2.9932.1371-.2514.172-.546.1626-.8322-.0089-.2719-.0286-.5405-.0568-.7916-.0966-.8617-.7981-1.5347-1.6633-1.5929-.4968-.0334-1.0943-.048-1.729-.0396-.4779.0063-.9376.1944-1.2757.5324l-3.7023 3.7024z"/><path d="m21.9313 13.8636c.3103.0345 1.2414-.9655 1.4827-1.2069.2414-.2414.2207-1.7277 0-2.0345s-.3952-.7362-.8528-.5577c-.4575.1784-1.6644 2.8902-1.5955 3.224.069.3337.6553.5406.9656.5751z"/><path d="m35.0267 3.0834c.6552-.1216 1.8011-.0822 1.7666-.7393 0 0-.0345-.4802-2.1034-.1184-2.069.3618-2.3448.3374-2.3448.8241.0001.4868 2.0264.1553 2.6816.0336z"/><path d="m28.1113 5.274s1.3861-.8743 2.4913-.859c1.1052.0152.6275-.8809.6275-.8809s-.7587-.7661-3.009.6445c-2.2504 1.4105-1.6564 1.5762-1.6177 1.6705.0388.0942.6749.1013 1.5079-.5751z"/><path d="m24.9758 8.22c.3103-.5861 1.2027-.7554.8175-1.253 0 0-.8276-.2068-1.5862.6552-.7586.8621-1.2414 1.2759-.931 1.7241.3103.4483 1.3894-.54 1.6997-1.1263z"/><path d="m11.7659 41.4135 1.5733 1.4778c.3575.3358.8933.3963 1.3167.1487l.4548-.266c.3854-.2254.4927-.5579.1774-.8738l-3.5142-2.3345c-.0748-.0497-.1596-.0803-.2494-.0774-.5614.0178-2.4419-.0002-2.4419 1.24l1.7373.2348c.323.1538.623.2965.946.4504z"/><path d="m10.2794 43.7348.5177.3246c.6409.402 1.4522.4144 2.105.0322l.0108-.0063-1.7175-1.3916c-.3277-.2656-.7249-.4314-1.1441-.4779l-1.7878-.1979c-.2627-.0291-.5278.0748-.69.2835-.2608.3356-.4958.6827-.6996 1.0368l2.3879.0843c.3608.0128.7118.1205 1.0176.3123z"/><path d="m49.0001 32.84c.4891 0 1.0129.0036 1.55.0095.0406-.2725.1406-.5384.3511-.7489l3.7242-3.7242c.24-.2401.3749-.5657.3749-.9052v-2.1893c0-.7072-.5732-1.2804-1.2803-1.2804h-2.7968c-.5511 0-1.0404-.3526-1.2147-.8755l-.399-1.1967c-.1825-.5478.0241-1.1499.5044-1.4702l4.2085-2.8057c.6109-.4073.9779-1.093.9779-1.8274v-6.7863c0-1.2791-.6177-2.4795-1.6585-3.2228l-3.9162-2.7973c-.8966-.6405-2.0436-.8186-3.0923-.4803l-14.3617 4.6326c-.4667.1506-.8064.5545-.8748 1.0401l-.9479 6.7335c-.0862.6118.2767 1.1977.8628 1.3931l1.113.3711c.5229.1743.8755.6636.8755 1.2147v2.0169c0 .4498.3557.8161.8049.8368 1.1953.0548 2.3047.2383 2.7596.6932.7636.7626.8251 3.2722.8284 3.899-.0151.0927-.0298.1826-.045.2753-.8862 2.4669-4.6134 4.5237-5.8637 5.1556-.2519.1273-.5494.1219-.795-.0171l-4.0884-2.3141c-.3657-.162-.6016-.5243-.6015-.9243l.0008-2.8303v-1.8408c0-.5304.314-1.0105.8-1.2231l.0252-.0111c.6564-.287.9691-1.0412.7086-1.7086l-1.2158-3.1155c-.1917-.4913-.6652-.8148-1.1927-.8148-1.7158 0-1.8749.138-2.8721-.4116-.683-.3763-1.5411-.0597-1.816.67-.275.7298-.4363 7.4289-1.7454 11.0946-1.7684 4.9517-5.4789 8.082-5.4789 8.082-.086.2281-.1461.4633-.18.7049-.0426.3034-.1015.7319-.1534 1.0736-.0537.3544.0649.7103.3206.9615.9528.9362 3.1849 3.1546 3.1849 3.1546.7757.7775.6077 2.0782-.34 2.6331l-2.3856 1.3965c-.2438.1428-.2623.4884-.0352.6567 1.1445.8478 2.1272 1.5759 2.2037 1.633.1894.1413.0564.5678.0564.5678l-4.5237-2.5077c-.896-.5205-1.9366-.8112-2.9725-.7868 0 0-5.2647.4083-3.8814 1.7916.6988.6371 2.1001 2.2563 2.5693 2.0986.3127-.1051.7186-.4419.7186-.4419l3.0384 1.7202c.2295.0952.2325-.3165.4582-.7211.2258-.4047.7203-.5746 1.1485-.3973 0 0 3.3572 1.4636 3.9159 1.6204.4348.122.8163.0463 1.1488-.3494.2905-.3457 1.054-1.5811 1.054-1.5811.2704-.4055.7477-.6224 1.2311-.5593l6.8881.9c.3879.0506.7313.2759.9324.6115.4861 1.0012.6557 1.2433 1.211 1.5485.121.0665 2.137.9297 4.0762 1.7566-.0426-1.386-.0575-2.7381-.0575-3.921 0-3.2396.1061-7.7383.6118-10.7727.407-2.4481 2.3256-4.3671 4.774-4.7751 3.0356-.506 7.5346-.6122 10.7743-.6122z"/><path d="m14.0413 50.8656-1.5397-.6722c-.1154-.0505-.2495-.0301-.3449.0523l-1.2663 1.0942c-.1107.0956-.2714.1062-.3936.0259l-2.1838-1.4347c-.1823-.1198-.4163-.1268-.6056-.0184l-.5358.3073c-.199.1141-.4467.0999-.6313-.0363l-1.942-1.4329c-.1707-.1259-.4124-.0794-.5242.1008l-1.4859 2.3953c-.0717.1156-.0644.2635.0183.3716l.8289.9142c.1009.1318.2529.2139.4184.2254 0 0 1.6622.435 1.8809.1381.2188-.2969.2656-1.125.2656-1.125l1.2592.0534c.0653-.007.1312.0059.1891.0369l3.5152 1.8805c.1167.0625.2595.0485.3618-.0354l2.7923-2.2881c.189-.1549.1475-.455-.0766-.5529z"/><path d="m61.435 38.826c-.195-1.1729-1.0873-2.0652-2.2607-2.2607-3.3915-.5653-9.0442-.5653-10.1742-.5653-1.1301 0-6.7828 0-10.1743.5654-1.1735.1955-2.0657 1.0878-2.2607 2.2607-.5651 3.3912-.5651 9.0435-.5651 10.1739s0 6.7827.5651 10.174c.195 1.1729 1.0873 2.0652 2.2607 2.2607 3.3914.5653 9.0441.5653 10.1743.5653 1.1301 0 6.7828 0 10.1742-.5654 1.1735-.1955 2.0657-1.0878 2.2607-2.2607.565-3.3912.565-9.0435.565-10.1739 0-3.393 0-6.7827-.565-10.174zm-2.435 17.8635c-.6227.1798-1.3051.3105-2 .3105-1.606 0-3.1669-.6808-4-1.1155-.8331.4347-2.394 1.1155-4 1.1155s-3.1669-.6808-4-1.1155c-.8331.4347-2.394 1.1155-4 1.1155-.6949 0-1.3773-.1307-2-.3105v-2.3578c.5922.2291 1.3055.4283 2 .4283 1.427 0 2.8209-.7433 4-1.5017 1.1863.763 2.5615 1.5017 4 1.5017 1.427 0 2.8209-.7433 4-1.5017 1.1863.763 2.5615 1.5017 4 1.5017.6921 0 1.4064-.2001 2-.4297zm0-6c-.6227.1798-1.3051.3105-2 .3105-1.606 0-3.1669-.6808-4-1.1155-.8331.4347-2.394 1.1155-4 1.1155s-3.1669-.6808-4-1.1155c-.8331.4347-2.394 1.1155-4 1.1155-.6949 0-1.3773-.1307-2-.3105v-2.3578c.5922.2291 1.3055.4283 2 .4283 1.427 0 2.8209-.7433 4-1.5017 1.1863.763 2.5615 1.5017 4 1.5017 1.427 0 2.8209-.7433 4-1.5017 1.1863.763 2.5615 1.5017 4 1.5017.6921 0 1.4064-.2001 2-.4297zm0-6c-.6227.1798-1.3051.3105-2 .3105-1.606 0-3.1669-.6808-4-1.1155-.8331.4347-2.394 1.1155-4 1.1155s-3.1669-.6808-4-1.1155c-.8331.4347-2.394 1.1155-4 1.1155-.6949 0-1.3773-.1307-2-.3105v-2.3578c.5922.2291 1.3055.4283 2 .4283 1.427 0 2.8209-.7433 4-1.5017 1.1863.763 2.5615 1.5017 4 1.5017 1.427 0 2.8209-.7433 4-1.5017 1.1863.763 2.5615 1.5017 4 1.5017.6921 0 1.4064-.2001 2-.4297z"/></svg>