<svg height="64" viewBox="0 0 64 64" width="64" xmlns="http://www.w3.org/2000/svg"><path d="m0 0h64v64h-64z" fill="none"/><path d="m40.1382 2.0908c.8621-.1725 1.0345-.2961 1.0345-.4686s-.5172-.3449-1.3794-.3793c0 0-1.3103.2069-1.2413.7586s.7241.2617 1.5862.0893z"/><path d="m27.4993 27.2271 2.9128 1.2896c.4681.2072 1.0035.2143 1.4688.0005 1.3253-.6087 3.1702-1.6873 3.8831-2.9932.137-.2514.1719-.546.1626-.8322-.009-.2719-.0287-.5405-.0569-.7916-.0966-.8617-.7981-1.5347-1.6633-1.5929-.4968-.0334-1.0942-.048-1.729-.0396-.4778.0063-.9375.1944-1.2756.5324l-3.7024 3.7024v.7246z"/><path d="m21.9314 13.8636c.3103.0345 1.2413-.9655 1.4827-1.2069.2415-.2414.2207-1.7277 0-2.0345s-.3953-.7362-.8528-.5577c-.4575.1783-1.6644 2.8902-1.5955 3.224.0689.3337.6552.5406.9656.5751z"/><path d="m35.0267 3.0834c.6552-.1217 1.8011-.0822 1.7666-.7393 0 0-.0345-.4802-2.1034-.1184-2.069.3618-2.3447.3374-2.3447.8241 0 .4868 2.0264.1553 2.6815.0336z"/><path d="m28.1113 5.274s1.3861-.8743 2.4913-.859c1.1051.0152.6276-.8809.6276-.8809s-.7588-.7661-3.009.6445c-2.2505 1.4105-1.6565 1.5762-1.6177 1.6705.0386.0942.6748.1013 1.5078-.5751z"/><path d="m24.9758 8.22c.3103-.5861 1.2026-.7554.8175-1.253 0 0-.8275-.2069-1.5862.6552s-1.2413 1.2759-.931 1.7241c.3103.4483 1.3894-.54 1.6997-1.1263z"/><path d="m11.7659 41.4135 1.5734 1.4778c.3575.3358.8933.3963 1.3168.1487l.4547-.266c.3854-.2254.4928-.5579.1774-.8738l-3.5142-2.3345c-.0747-.0497-.1597-.0803-.2494-.0774-.5614.0178-2.4419-.0002-2.4419 1.24l1.7373.2348c.3229.1538.6229.2965.9459.4504z"/><path d="m10.2794 43.7348.5177.3246c.6409.402 1.4521.4144 2.105.0322l.0109-.0063-1.7175-1.3916c-.3278-.2656-.725-.4314-1.1442-.4778l-1.7877-.1979c-.2627-.0291-.5278.0748-.6901.2835-.2607.3356-.4957.6827-.6995 1.0368l2.3878.0843c.3608.0127.7118.1204 1.0176.3122z"/><path d="m14.0413 50.8656-1.5396-.6722c-.1155-.0505-.2495-.0302-.345.0522l-1.2664 1.0942c-.1106.0956-.2714.1062-.3936.0259l-2.1837-1.4346c-.1823-.1198-.4163-.1268-.6055-.0184l-.5359.3073c-.1991.1141-.4468.0998-.6313-.0363l-1.942-1.4329c-.1708-.1259-.4125-.0794-.5243.1008l-1.4858 2.3953c-.0718.1156-.0645.2635.0183.3716l.8289.9143c.101.1318.2529.2139.4185.2254 0 0 1.6621.435 1.8809.1381s.2656-1.125.2656-1.125l1.2593.0534c.0652-.007.1311.0059.189.0369l3.5153 1.8805c.1167.0625.2595.0485.3618-.0354l2.7924-2.2881c.1887-.155.1472-.4551-.0769-.553z"/><path d="m49 32.84c.489 0 1.0129.0037 1.55.0095.0406-.2725.1406-.5384.3511-.7489l3.7242-3.7242c.24-.2401.3749-.5657.3749-.9052v-2.1893c0-.7072-.5732-1.2804-1.2803-1.2804h-2.7969c-.551 0-1.0403-.3526-1.2146-.8755l-.399-1.1967c-.1825-.5478.024-1.1499.5044-1.4702l4.2085-2.8057c.611-.4073.9779-1.093.9779-1.8274v-6.7863c0-1.2791-.6177-2.4795-1.6584-3.2229l-3.9163-2.7973c-.8966-.6405-2.0436-.8186-3.0923-.4803l-14.3615 4.6327c-.4668.1506-.8064.5545-.8748 1.0401l-.948 6.7335c-.0862.6118.2767 1.1977.8628 1.3931l1.113.3712c.5229.1743.8755.6636.8755 1.2147v2.0169c0 .4498.3557.8161.8049.8368 1.1953.0548 2.3047.2383 2.7595.6932.7637.7626.8252 3.2722.8284 3.899-.015.0927-.0298.1826-.0449.2753-.8862 2.4669-4.6134 4.5237-5.8638 5.1556-.2518.1273-.5493.1219-.7949-.0172l-4.0884-2.3141c-.3657-.162-.6017-.5243-.6014-.9243l.0007-2.8303v-1.8408c0-.5304.314-1.0105.8-1.2231l.0251-.0111c.6565-.2871.9691-1.0412.7086-1.7086l-1.2158-3.1155c-.1918-.4913-.6652-.8148-1.1927-.8148-1.7158 0-1.8748.138-2.8721-.4116-.683-.3763-1.541-.0597-1.8159.67-.275.7298-.4363 7.4289-1.7454 11.0946-1.7686 4.9517-5.479 8.082-5.479 8.082-.0859.2282-.146.4633-.1799.705-.0427.3033-.1016.7319-.1534 1.0735-.0537.3544.0648.7103.3206.9616.9528.9362 3.1849 3.1546 3.1849 3.1546.7756.7775.6077 2.0782-.3401 2.6331l-2.3855 1.3965c-.2439.1428-.2623.4884-.0352.6567 1.1444.8478 2.1272 1.5759 2.2036 1.633.1895.1413.0564.5677.0564.5677l-4.5237-2.5077c-.896-.5205-1.9365-.8111-2.9724-.7868 0 0-5.2648.4083-3.8815 1.7916.6989.6371 2.1001 2.2563 2.5692 2.0986.3127-.1051.7188-.4419.7188-.4419l3.0383 1.7202c.2295.0952.2324-.3165.4583-.7211.2258-.4047.7202-.5746 1.1484-.3973 0 0 3.3572 1.4636 3.9159 1.6204.4348.122.8163.0463 1.1488-.3494.2905-.3457 1.054-1.581 1.054-1.581.2705-.4055.7478-.6224 1.2312-.5593l6.8881.9c.3878.0506.7313.2759.9324.6115.4862 1.0012.6556 1.2433 1.2111 1.5485.1208.0665 2.137.9297 4.0762 1.7566-.0427-1.3861-.0575-2.7382-.0575-3.9211 0-3.2396.1061-7.7383.6117-10.7725.4069-2.4482 2.3256-4.3672 4.774-4.7753 3.0357-.506 7.5345-.6122 10.7742-.6122z"/><path d="m55.5903 48.5804-1.6948.4708c-.3684.1418-.647.4298-.7656.7913l-.2323.8627c-.0309.1144.0721.228.1971.2175l2.0936-.1674c.5673-.0453.9147-.4979 1.0187-.9943l.0864-.5997c.0533-.3707-.3276-.6855-.7031-.5809z"/><path d="m44.1044 49.0512-1.6947-.4708c-.3755-.1045-.7563.2102-.7031.5811l.0864.5997c.104.4963.4514.949 1.0187.9943l2.0936.1674c.125.0104.228-.1031.1971-.2175l-.2323-.8627c-.1186-.3616-.3972-.6496-.7657-.7915z"/><path d="m54.1022 46.6731c-.2052-1.0001-.2844-1.6051-1.1256-3.5076-.5616-.0683-1.8037-.1655-3.9766-.1655s-3.416.0972-3.9766.1655c-.8406 1.8998-.9204 2.5076-1.1256 3.5076 1.256.1992 3.2475.3269 5.1022.3269s3.8461-.1277 5.1022-.3269z"/><path d="m61.4351 38.826c-.1951-1.1728-1.0874-2.0651-2.2607-2.2607-3.3916-.5653-9.0443-.5653-10.1744-.5653s-6.7827 0-10.1742.5653c-1.1735.1956-2.0658 1.0879-2.2607 2.2607-.5651 3.3913-.5651 9.0436-.5651 10.174 0 1.1303 0 6.7827.5651 10.174.1949 1.1729 1.0873 2.0651 2.2607 2.2607 3.3915.5653 9.0441.5653 10.1742.5653s6.7828 0 10.1743-.5654c1.1733-.1956 2.0657-1.0878 2.2607-2.2607.565-3.3912.565-9.0436.565-10.1739 0-3.393 0-6.7827-.5649-10.174zm-3.4351 14.6851s-.0555 1.1964-.2227 1.9927c-.061.2899-.3852.4962-.6948.4962h-2.2983c-.3097 0-.5784-.3174-.6392-.6073-.0932-.4446-.1501-.3927-.1684-1.3927h-9.9308c-.0182 1-.0975.9481-.1908 1.3927-.0608.2899-.3295.6073-.6392.6073h-2.2983c-.3096 0-.6338-.2063-.6948-.4962-.1672-.7963-.2227-1.9927-.2227-1.9927s0-2.1556 0-4.0889c0-1.4964.2576-2.127.9456-3.0528-.4219-.2897-.6938-.6363-.7688-.808-.157-.3592-.0537-.9792.5461-1.0953.2655-.0515.8311-.0031 1.2749.0598.3438-1.2393.9351-2.4353 1.292-2.7925.4849-.4855 3.0979-.7817 5.7107-.7839 2.6211-.0023 5.2419.2908 5.7141.7839.3492.3646.9512 1.5533 1.2949 2.7925.444-.0629 1.0161-.1113 1.2816-.0598.5999.1161.7169.7361.5599 1.0953-.0748.1717-.3748.5182-.7966.808.688.9259.9456 1.5564.9456 3.0528z"/><path d="m47 52h4v1h-4z"/></svg>