<?xml version="1.0" encoding="utf-8"?>
<!-- Generator: Adobe Illustrator 25.0.0, SVG Export Plug-In . SVG Version: 6.00 Build 0)  -->
<svg version="1.1" xmlns="http://www.w3.org/2000/svg" xmlns:xlink="http://www.w3.org/1999/xlink" x="0px" y="0px"
	 viewBox="0 0 64 64" style="enable-background:new 0 0 64 64;" xml:space="preserve">
<style type="text/css">
	.st0{fill:none;}
	.st1{fill:#FFFFFF;}
</style>
<g id="Box">
	<rect class="st0" width="64" height="64"/>
</g>
<g id="Icon">
	<g>
		<path d="M30,16h-9v9h9V16z M25.5,23c-1.381,0-2.5-1.119-2.5-2.5c0-1.381,1.119-2.5,2.5-2.5c1.381,0,2.5,1.119,2.5,2.5
			C28,21.881,26.881,23,25.5,23z"/>
		<path d="M30,27h-9v9h9V27z M25.5,34c-1.381,0-2.5-1.119-2.5-2.5c0-1.381,1.119-2.5,2.5-2.5c1.381,0,2.5,1.119,2.5,2.5
			C28,32.881,26.881,34,25.5,34z"/>
		<rect x="32" y="30" width="12" height="3"/>
		<path d="M50,57c1.1,0,2-0.9,2-2v-4.612L45.388,57H50z"/>
		<path d="M17,52V12h16.708l0.932-3.135C34.749,8.524,35,8.634,35,8.634V23c0,0.552,0.448,1,1,1h14.367c0,0,0.123,0.25-0.219,0.359
			L47,25.292v10.047l5-5v-6.51c0-0.531-0.211-1.04-0.586-1.415L36.586,7.586C36.211,7.211,35.702,7,35.171,7H14
			c-1.104,0-2,0.896-2,2v46c0,1.104,0.896,2,2,2h16.151l1.582-5H17z"/>
		<polygon points="32,44 38.339,44 41.339,41 32,41 		"/>
		<path d="M59.094,33.269c-1.906-1.906-4.283-2.631-5.298-1.616L34.314,51.136l-2.847,8.995c-0.149,0.471,0.294,0.914,0.765,0.765
			l8.996-2.847L60.71,38.567C61.725,37.552,61,35.175,59.094,33.269z M35.256,57.841l-0.734-0.734l1.425-4.504l0.917,0.521
			l0.719,1.655l1.574,0.684l0.587,0.957L35.256,57.841z"/>
		<path d="M21,47h9v-9h-9V47z M22.568,41.006c0.349-0.294,0.854-0.29,1.2,0.009l1.124,0.974l2.16-2.417
			c0.321-0.359,0.854-0.413,1.24-0.127s0.49,0.812,0.24,1.224l-2.767,4.55c-0.167,0.274-0.469,0.444-0.79,0.444
			c-0.324-0.001-0.627-0.173-0.793-0.448l-1.812-3.025C22.135,41.798,22.218,41.3,22.568,41.006z"/>
	</g>
</g>
</svg>
