<?xml version="1.0" encoding="utf-8"?>
<!-- Generator: Adobe Illustrator 18.1.1, SVG Export Plug-In . SVG Version: 6.00 Build 0)  -->
<svg version="1.2" baseProfile="tiny" xmlns="http://www.w3.org/2000/svg" xmlns:xlink="http://www.w3.org/1999/xlink" x="0px"
	 y="0px" width="64px" height="64px" viewBox="0 0 64 64" xml:space="preserve">
<g id="Box">
	<rect fill="none" width="64" height="64"/>
</g>
<g id="Icon">
	<g>
		<path d="M12.9,21c0-8.3395,6.7605-15.1,15.1-15.1c8.3395,0,15.1,6.7605,15.1,15.1c0,4.0685-1.6169,7.7539-4.2335,10.4691
			L48,40.5886V1H8v40h12.9196l-2.7083-8.5151C14.965,29.7153,12.9,25.6017,12.9,21z"/>
		<path d="M30.2234,26.7495c7.9983-2.4249,8.5878-3.4467,8.9006-3.9964c0.2988-0.5239,0.3701-1.1221,0.2012-1.6826
			c-0.522-1.7356-2.0342-1.9889-8.6094-2.2923c3.9795-0.8312,5.7939-1.6046,5.604-3.6667
			c-0.1274-1.3821-0.3022-3.2747-13.9229-4.0413c-1.0806-0.0491-2.0474,0.7696-2.1104,1.8569
			c-0.063,1.0884,0.7798,2.0197,1.8828,2.0823c1.6401,0.0915,3.4185,0.2427,5.0532,0.4266
			c-0.2886,0.0549-0.5674,0.106-0.8306,0.1551c-5.9194,1.1018-8.3696,1.5574-8.6792,3.6436
			c-0.0894,0.6019,0.0889,1.2203,0.4883,1.697c0.9878,1.1779,2.8857,1.3754,10.5752,1.7086
			c0.3584,0.0164,0.7417,0.0327,1.1382,0.0501c-2.006,0.6219-4.2943,1.2829-6.5374,1.8927L30.2234,26.7495z"/>
		<path d="M55.1992,50.886L34.827,30.5139L20.0618,25.841c-0.7723-0.2444-1.4995,0.4828-1.2551,1.2551l4.6728,14.7653
			l20.3721,20.3721c1.6663,1.6663,5.5671,0.4764,8.6956-2.652C55.6757,56.4531,56.8654,52.5522,55.1992,50.886z M52.0392,56.2451
			l-20.545-20.545c-0.7811-0.781-1.6231-0.3568-2.4042,0.4243c-0.7811,0.7811-1.2053,1.6232-0.4243,2.4042l20.5456,20.5457
			c-0.668,0.4755-1.2849,0.8109-1.8082,1.0201L27.2515,39.9427c-0.5651-0.5652-1.1621-0.4945-1.7449-0.119l-2.2715-7.1783
			l2.3757-2.3758l7.1783,2.2717c-0.3753,0.5827-0.4459,1.1794,0.1191,1.7445l20.1452,20.1452
			C52.8476,54.9586,52.5139,55.5767,52.0392,56.2451z"/>
	</g>
</g>
</svg>
