<svg height="64" viewBox="0 0 64 64" width="64" xmlns="http://www.w3.org/2000/svg"><path d="m0 0h64v64h-64z" fill="none"/><path d="m12.9 21c0-8.3395 6.7605-15.1 15.1-15.1s15.1 6.7605 15.1 15.1c0 4.0685-1.6169 7.7539-4.2335 10.4691l9.1335 9.1195v-39.5886h-40v40h12.9196l-2.7083-8.5151c-3.2463-2.7696-5.3113-6.8832-5.3113-11.4849z"/><path d="m30.2234 26.7495c7.9983-2.4249 8.5878-3.4467 8.9006-3.9964.2988-.5239.3701-1.1221.2012-1.6826-.522-1.7356-2.0342-1.9889-8.6094-2.2923 3.9795-.8312 5.7939-1.6046 5.604-3.6667-.1274-1.3821-.3022-3.2747-13.9229-4.0413-1.0806-.0491-2.0474.7696-2.1104 1.8569-.063 1.0884.7798 2.0197 1.8828 2.0823 1.6401.0915 3.4185.2427 5.0532.4266-.2886.0549-.5674.106-.8306.1551-5.9194 1.1018-8.3696 1.5574-8.6792 3.6436-.0894.6019.0889 1.2203.4883 1.697.9878 1.1779 2.8857 1.3754 10.5752 1.7086.3584.0164.7417.0327 1.1382.0501-2.006.6219-4.2943 1.2829-6.5374 1.8927z"/><path d="m55.1992 50.886-20.3722-20.3721-14.7652-4.6729c-.7723-.2444-1.4995.4828-1.2551 1.2551l4.6728 14.7653 20.3721 20.3721c1.6663 1.6663 5.5671.4764 8.6956-2.652s4.3182-7.0293 2.652-8.6955zm-3.16 5.3591-20.545-20.545c-.7811-.781-1.6231-.3568-2.4042.4243s-1.2053 1.6232-.4243 2.4042l20.5456 20.5457c-.668.4755-1.2849.8109-1.8082 1.0201l-20.1516-20.1517c-.5651-.5652-1.1621-.4945-1.7449-.119l-2.2715-7.1783 2.3757-2.3758 7.1783 2.2717c-.3753.5827-.4459 1.1794.1191 1.7445l20.1452 20.1452c-.2058.5276-.5395 1.1457-1.0142 1.8141z"/></svg>