<?xml version="1.0" encoding="utf-8"?>
<!-- Generator: Adobe Illustrator 25.2.0, SVG Export Plug-In . SVG Version: 6.00 Build 0)  -->
<svg version="1.1" xmlns="http://www.w3.org/2000/svg" xmlns:xlink="http://www.w3.org/1999/xlink" x="0px" y="0px"
	 viewBox="0 0 64 64" style="enable-background:new 0 0 64 64;" xml:space="preserve">
<style type="text/css">
	.st0{fill:none;}
	.st1{fill:#B3B3B3;}
</style>
<g id="Box">
	<rect class="st0" width="64" height="64"/>
</g>
<g id="Icon">
	<path d="M46.225,46.307c-0.863,0-1.044,0.976-1.044,1.795c0,1.632,0.518,1.853,1.024,1.853c0.863,0,1.044-0.892,1.044-1.641
		C47.25,46.515,46.665,46.307,46.225,46.307z M45.228,35.136c0.26-1.456,0.565-2.947,0.934-4.476
		c2.569-10.661,2.447-19.235-0.362-25.484c-0.27-0.6-0.816-1.028-1.46-1.144C44.106,3.989,38.55,3,32,3S19.894,3.989,19.661,4.031
		c-0.644,0.116-1.19,0.544-1.46,1.144c-2.807,6.243-2.928,14.81-0.362,25.461c3.216,13.345,2.05,24.279,1.261,26.752
		C18.69,58.675,19.643,60,20.992,60c0.001,0,0.001,0,0.002,0l14.389-0.018c-0.136-1.25-0.227-2.599-0.285-3.98l-11.663,0.015
		c0.746-5.029,0.999-14.977-1.734-26.322c-2.215-9.191-2.309-16.649-0.283-21.994C23.293,7.423,27.434,6.9,32,6.9
		c4.566,0,8.707,0.523,10.582,0.801c0.894,2.359,1.351,5.151,1.42,8.299H22.293c-0.108,4.54,0.718,9.319,1.653,13.176
		c2.438,10.056,2.596,18.933,2.083,24.618c0,0,5.634,0.866,9.038,1.39C35.017,53.707,35,52.257,35,51
		c0-3.208,0.105-7.662,0.606-10.666c0.403-2.424,2.302-4.324,4.727-4.728C41.739,35.372,43.464,35.226,45.228,35.136z M55.794,51.93
		c-0.847,0-1.025,0.976-1.025,1.795c0,1.633,0.508,1.853,1.005,1.853c0.706,0,1.063-0.552,1.063-1.641
		C56.838,52.138,56.242,51.93,55.794,51.93z M63.435,40.826c-0.195-1.173-1.087-2.065-2.261-2.261C57.783,38,52.13,38,51,38
		c-1.13,0-6.783,0-10.174,0.565c-1.173,0.196-2.065,1.088-2.26,2.261C38,44.217,38,49.87,38,51c0,1.13,0,6.783,0.565,10.174
		c0.195,1.173,1.087,2.065,2.26,2.261C44.217,64,49.87,64,51,64s6.783,0,10.174-0.565c1.174-0.196,2.066-1.088,2.261-2.261
		C64,57.783,64,52.13,64,51C64,47.607,64,44.217,63.435,40.826z M42.859,48.275c0-2.896,1.844-3.924,3.423-3.924
		c2.09,0,3.289,1.374,3.289,3.77c0,2.617-1.785,3.809-3.443,3.809C44.637,51.93,42.859,51.296,42.859,48.275z M49.293,58.002
		l-1.839-0.727l5.232-13.277l1.839,0.727L49.293,58.002z M55.698,57.553c-1.491,0-3.269-0.634-3.269-3.655
		c0-2.896,1.844-3.924,3.423-3.924c2.09,0,3.289,1.374,3.289,3.77C59.141,56.375,57.412,57.553,55.698,57.553z"/>
</g>
</svg>
