<?xml version="1.0" encoding="utf-8"?>
<!-- Generator: Adobe Illustrator 25.0.0, SVG Export Plug-In . SVG Version: 6.00 Build 0)  -->
<svg version="1.1" xmlns="http://www.w3.org/2000/svg" xmlns:xlink="http://www.w3.org/1999/xlink" x="0px" y="0px"
	 viewBox="0 0 64 64" style="enable-background:new 0 0 64 64;" xml:space="preserve">
<style type="text/css">
	.st0{fill:none;}
</style>
<g id="Box">
	<rect class="st0" width="64" height="64"/>
</g>
<g id="Icon">
	<path d="M51,16h-8V5c0-0.552-0.448-1-1-1H22c-0.552,0-1,0.448-1,1v11h-8c-0.552,0-1,0.448-1,1v42c0,0.552,0.448,1,1,1h38
		c0.552,0,1-0.448,1-1V17C52,16.448,51.552,16,51,16z M25,5.158c0.056-0.021,0.297-0.076,0.364,0.25
		C25.413,5.644,25.638,6.774,25.882,8h12.236c0.244-1.226,0.469-2.356,0.518-2.593c0.067-0.326,0.308-0.271,0.364-0.25V16H25V5.158z
		 M28.297,34.924c0.501,6.988,0.844,16.391,0.844,16.773c0,0.659-0.961,1.194-2.148,1.194c-1.187,0-2.146-0.535-2.146-1.194
		c0-0.402,0.357-9.607,0.904-16.749c-1.472-0.399-2.579-1.462-2.579-2.596l0.478-7.166c0.014-0.267,0.213-0.477,0.481-0.477
		c0.268,0,0.46,0.21,0.475,0.477l0.443,6.477c0.029,0.253,0.251,0.449,0.509,0.449c0.268,0,0.513-0.21,0.528-0.477l0.431-6.45
		c0.014-0.266,0.212-0.475,0.478-0.476c0.266,0.002,0.464,0.21,0.478,0.476l0.431,6.45c0.014,0.267,0.26,0.477,0.528,0.477
		c0.258,0,0.48-0.196,0.509-0.449l0.443-6.477c0.014-0.267,0.207-0.477,0.475-0.477c0.268,0,0.467,0.21,0.481,0.477l0.478,7.166
		C30.814,33.469,29.737,34.512,28.297,34.924z M38.31,38.565l-0.448-0.004c2.212,13.324,0.049,14.317-1.433,14.33
		c-0.54,0.005-1.433-0.416-1.433-0.955V25.551c0-0.692,0.837-1.043,1.327-0.555c2.34,2.327,3.133,9.057,3.376,12.08
		C39.765,37.883,39.12,38.572,38.31,38.565z"/>
</g>
</svg>
