<svg height="64" viewBox="0 0 64 64" width="64" xmlns="http://www.w3.org/2000/svg"><path d="m0 0h64v64h-64z" fill="none"/><path d="m55 51v-27h.0002c-3.1763-5.9083-8.8555-11.6377-19.0002-12.825v-1.175c0-2.2056-1.7944-4-4-4s-4 1.7944-4 4v1.175c-10.1445 1.1874-15.8236 6.9167-19 12.825v25.4839l7.7349 1.152c.3172.1018.2708.3079.2499.3641h-7.9848l-2 2v3h50v-3zm-25-41c0-1.1046.8954-2 2-2s2 .8954 2 2v1c-.6521-.0362-1.3132 0-1.9998 0h-.0002c-.6866 0-1.3478-.0362-2 0zm-4 5h12v8h-12zm-8.0654 20.1968c-.2231 0-.4043-.0137-.6064-.0469v2.2656h-1.6055v-8.436l1.5693-.0713v.3379c.3398-.1934.8198-.3799 1.4102-.3799 1.6343 0 2.5718 1.0815 2.5718 2.9673-.0001 2.0747-1.2799 3.3633-3.3394 3.3633zm6.1611-.0718h-1.6055v-8.5552l1.6055-.085zm6.2022 0h-1.5215v-.2896c-.4648.2549-.9312.3613-1.5542.3613-1.2383 0-2.0078-.6821-2.0078-1.7798 0-1.2607 1.0293-1.9839 2.8237-1.9839.1572 0 .3047.0034.4458.0063.0835.002.165.0034.2446.0044v-.21c0-.4106-.1357-.8823-1.1943-.8823-.5747 0-1.0352.0981-1.6431.3501l-.145.0605-.2344-1.3911.0908-.0386c.7656-.3271 1.4189-.4663 2.1836-.4663 1.6196 0 2.5117.7856 2.5117 2.2119v4.0471zm2.9365.0718c-.728 0-1.2959-.0562-1.7349-.1719l-.0933-.0249v-1.4326l.1558.04c.5205.1328 1.0786.2002 1.6602.2002 1.0024 0 1.0024-.3662 1.0024-.4868 0-.1982-.0522-.3643-.7124-.5513l-.7441-.2158c-.9038-.2661-1.3618-.8394-1.3618-1.7036 0-1.1865 1.043-1.9839 2.5957-1.9839.5469 0 1.0435.0454 1.4766.1343l.1074.0225-.1021 1.3853-.1348-.022c-.5166-.0845-.9277-.1187-1.4189-.1187-.5742 0-.9307.168-.9307.439 0 .1978.042.3389.6035.4907l.7075.1919c1.0366.2803 1.5195.8257 1.5195 1.7158.0001 1.29-.9946 2.0918-2.5956 2.0918zm7.2163-.1724-.0928.0244c-.4121.1094-.7251.1479-1.1958.1479-1.2529 0-1.9717-.7666-1.9717-2.1035v-2.8613h-.7197v-1.2935h.7197v-1.0688l1.605-.1426v1.2114h1.499v1.2935h-1.499v2.6812c0 .5698.2568.8584.7627.8584.2646 0 .4238-.02.7397-.0923l.1528-.0356v1.3808zm2.5088.1006h-1.6055v-6.1455l1.6055-.0713zm-.8086-6.8481c-.5654 0-.917-.3418-.917-.8926 0-.5327.377-.9048.917-.9048.564 0 .9282.355.9282.9048 0 .5254-.3818.8926-.9282.8926zm5.1587 5.4829c.3682 0 .71-.0469 1.1074-.1519l.1567-.042v1.4307l-.0889.0269c-.3945.1201-.7979.1733-1.3071.1733-1.937 0-3.0034-1.0923-3.0034-3.0752 0-1.6235 1.0439-3.2671 3.0391-3.2671.5205 0 .855.0386 1.2788.1475l.1035.0269-.144 1.4668-.1348-.0264c-.3906-.0757-.6797-.1055-1.0312-.1055-.9067 0-1.4702.6504-1.4702 1.6978-.0001 1.0951.5307 1.6982 1.4941 1.6982z"/><path d="m26.8555 33.3091c0 .355.2778.5586.7627.5586.4121 0 .7393-.0767 1.1104-.2632v-.9199c-.2021-.0098-.4536-.0181-.6548-.0181-.8087 0-1.2183.2163-1.2183.6426z"/><path d="m18.2944 30.3755c-.3677 0-.6045.0444-.9663.1875v3.1782c.2256.0332.3672.0425.6064.0425 1.1108 0 1.6978-.6367 1.6978-1.8418 0-1.0396-.4502-1.5664-1.3379-1.5664z"/></svg>