<?xml version="1.0" encoding="utf-8"?>
<!-- Generator: Adobe Illustrator 24.0.1, SVG Export Plug-In . SVG Version: 6.00 Build 0)  -->
<svg version="1.1" xmlns="http://www.w3.org/2000/svg" xmlns:xlink="http://www.w3.org/1999/xlink" x="0px" y="0px"
	 viewBox="0 0 64 64" style="enable-background:new 0 0 64 64;" xml:space="preserve">
<style type="text/css">
	.st0{fill:none;}
	.st1{fill:#FF1D25;}
	.st2{fill:#1D1D1B;}
</style>
<g id="Box">
	<rect class="st0" width="64" height="64"/>
</g>
<g id="Icon">
	<g>
		<path d="M48.5,46.4c-1-1.4-1.6-3.1-1.8-4.8l-2.2-15.9c-1-4.4-4.4-7.7-8.6-8.9c-0.2-1.6-1.5-2.8-3.1-2.8s-3,1.2-3.1,2.8
			c-4.2,1.1-7.5,4.5-8.6,8.9l-2.2,15.9c-0.2,1.7-0.9,3.4-1.8,4.8l-3,4.5c-0.8,1.2,0.1,2.8,1.5,2.8h20.2c0,0,0.1,0.4-0.4,0.5
			c-0.2,0-3.9,0.5-7.7,0.9c0.9,2,2.8,3.3,5.1,3.3c2.8,0,5.1-2.1,5.5-4.8H50c1.4,0,2.3-1.6,1.5-2.8L48.5,46.4z"/>
		<path d="M12.5,30.5c0-2.1,1-3.9,2.6-5l-2.3-3.3c-2.6,1.9-4.3,4.9-4.3,8.3s1.7,6.4,4.3,8.3l2.3-3.3C13.5,34.4,12.5,32.6,12.5,30.5z
			"/>
		<path d="M4.5,30.5c0-4.8,2.4-9,5.9-11.6l-2.3-3.3C3.5,19,0.5,24.4,0.5,30.5s3,11.5,7.6,14.8l2.3-3.3C6.9,39.5,4.5,35.3,4.5,30.5z"
			/>
		<path d="M51.2,22.2l-2.3,3.3c1.5,1.1,2.6,3,2.6,5s-1,3.9-2.6,5l2.3,3.3c2.6-1.9,4.3-4.9,4.3-8.3S53.8,24.1,51.2,22.2z"/>
		<path d="M55.9,15.7l-2.3,3.3c3.6,2.6,5.9,6.8,5.9,11.6s-2.4,9-5.9,11.6l2.3,3.3c4.6-3.3,7.6-8.7,7.6-14.8S60.5,19,55.9,15.7z"/>
	</g>
</g>
</svg>
