<?xml version="1.0" encoding="utf-8"?>
<!-- Generator: Adobe Illustrator 19.1.0, SVG Export Plug-In . SVG Version: 6.00 Build 0)  -->
<svg version="1.2" baseProfile="tiny" xmlns="http://www.w3.org/2000/svg" xmlns:xlink="http://www.w3.org/1999/xlink" x="0px"
	 y="0px" width="64px" height="64px" viewBox="0 0 64 64" xml:space="preserve">
<g id="_x36_4px_Box">
	<rect fill="none" width="64" height="64"/>
</g>
<g id="Icon">
	<g>
		<path d="M36.8369,43.499c0.2539-1.9951,1.96-3.499,3.9688-3.499h2.5048c0.0663-0.2003,0.1478-0.3947,0.2369-0.585
			c-2.5711-1.2164-5.5556-2.1998-7.3206-2.735c-0.155-1.1155-0.3614-2.4073-0.5466-3.4836
			c1.7886-2.1667,2.8874-4.4047,3.2495-6.6968c1.3281-1.2195,2.0679-3.1657,2.0679-5.5557c0-0.7448,0.0012-2.7025-1.2268-4.0366
			c0.3037-3.3378,0.515-8.5034-0.7869-10.587c-1.6026-2.5649-3.5499-3.8159-7.2632-2.9775
			c-2.4355-1.1577-4.0937-1.8823-8.3608-0.8398c-2.9649,0.7241-6.21,1.9067-7.92,3.8798c-1.652,1.9066-1.5394,7.2238-1.2741,10.6054
			c-1.1589,1.332-1.1634,3.2256-1.1634,3.9557c0,2.386,0.7374,4.3299,2.0613,5.5497c0.3819,2.5118,1.613,4.9141,3.7106,7.2619
			c-0.106,0.807-0.2283,1.7498-0.353,2.7313c-2.5129,0.7345-9.6714,2.9969-12.0341,5.5665C3.5137,45.1773,2,56.9429,2,56.9429h25h10
			v-3.9215c-0.7379-0.8368-1.1155-1.9677-0.9688-3.1415L36.8369,43.499z M27.381,47.2827c-2.3003-1.75-6.5919-5.5302-6.1588-9.0224
			c0.237-1.9129,0.0408-0.5492,0.8235-5.4371c-2.2767-2.1999-4.1043-4.8665-4.1043-8.061C16.3237,24.2583,15.9,22.2168,15.9,20.9439
			c0-1.2725,0.3217-1.9611,0.7738-2.1743c0.3921-0.1845,0.7725-0.0476,1.013,0.0886c0.1414,0.6527,0.2483,1.1383,0.2898,1.3098
			C18.1826,21.0191,19,20.9409,19,20.9409v-6.7451c2.0731-0.1505,6.1937-0.7531,10.7499-3.1062L35,14.6158v6.3251
			c0,0,0.8174,0.0782,1.0234-0.7729c0.0416-0.1715,0.1484-0.6571,0.2899-1.3098c0.2405-0.1362,0.6208-0.2731,1.0129-0.0886
			c0.4521,0.2133,0.7739,0.9018,0.7739,2.1743c0,1.2729-0.4237,3.3144-2.0414,3.8183c0,3.7027-2.5334,6.4958-5.3403,8.8846
			c-0.7807,0.6644-2.2499,1.1066-3.7188,1.1055c-1.0628-0.0008-2.1255-0.2865-2.9271-0.6349
			c0.6138,0.9305,1.6553,2.0744,3.5848,2.5851c3.1548,0.8349,5.4595-0.9139,5.4595-0.9139s0.2828,1.9133,0.2745,2.4157
			C33.7179,41.6926,29.8344,45.5212,27.381,47.2827z"/>
		<path d="M53,55v1c0,0.5523-0.4477,1-1,1h-2c-0.5522,0-1-0.4477-1-1v-1c0-0.0148,0.0078-0.027,0.0084-0.0417
			c-4.2249-0.1687-7.1932-0.839-9.0084-1.4104V60c0,0.5523,0.4861,1,1.0384,1h20C61.5907,61,62,60.5523,62,60v-6.4275
			c-1.8331,0.5694-4.8014,1.2285-9.0076,1.3896C52.9929,54.9755,53,54.9866,53,55z"/>
		<path d="M62.2635,43.8747C62.2003,43.3748,61.7752,43,61.2714,43h-5.2333v-1.4004c0-1.0371-0.7891-2.0049-1.8018-2.2031
			c-2.1221-0.4043-4.2734-0.4053-6.3994,0.001c-1.0088,0.1973-1.7988,1.1641-1.7988,2.2021V43h-5.2326
			c-0.5038,0-0.929,0.3748-0.9921,0.8747l-0.8053,6.3762c-0.0573,0.4537,0.1973,0.8923,0.6244,1.0555
			C41.0992,51.8668,44.8322,53,51.0384,53c6.2062,0,9.9393-1.1332,11.406-1.6936c0.4271-0.1632,0.6817-0.6017,0.6244-1.0555
			L62.2635,43.8747z M54.0381,43H52v6h-2v-6h-1.9619v-1.4004c0-0.0859,0.1162-0.2266,0.1777-0.2383
			c1.873-0.3574,3.7734-0.3564,5.6406-0.001c0.0664,0.0137,0.1816,0.1533,0.1816,0.2393V43z"/>
	</g>
</g>
</svg>
