<?xml version="1.0" encoding="utf-8"?>
<!-- Generator: Adobe Illustrator 17.1.0, SVG Export Plug-In . SVG Version: 6.00 Build 0)  -->
<svg version="1.2" baseProfile="tiny" xmlns="http://www.w3.org/2000/svg" xmlns:xlink="http://www.w3.org/1999/xlink" x="0px"
	 y="0px" width="64px" height="64px" viewBox="0 0 64 64" xml:space="preserve">
<g id="_x36_4px_Boxes">
	<rect fill="none" width="64" height="64"/>
</g>
<g id="Production">
	<g>
		<polygon points="9.7608,63 27.7429,63 30.6761,42 25.0795,42 		"/>
		<polygon points="33.3267,42 36.2608,63 54.2429,63 38.921,42 		"/>
		<path d="M2,32v6h5v13h5.8271L18,45.4142v-5.9088l-5.7349-1.1414c-0.3172-0.1018-0.2708-0.3079-0.2499-0.3641h39.9696
			c0.0209,0.0562,0.0673,0.2623-0.2499,0.3641L46,39.5054v5.9088L51.1728,51H57V38h5v-6H2z"/>
		<path d="M51,23.0333c-3.5046,0-6.3637,0.0688-8.8081,0.1806l-1.0025-3.4565C41.0781,19.3123,40.6781,19,40.2192,19H22.44
			l-1.2921,5.9642c-1.8451,0.0716-3.924,0.1144-6.3595,0.1144c-0.4656,0-0.8535,0.3466-0.9448,0.8032L13,30h35L51,23.0333z
			 M31,24.18c-1.2894,0.1451-2.5884,0.2867-4,0.4131V21h4V24.18z M34,23.8459V21h3.85l0.6091,2.4363
			C36.8209,23.5583,35.372,23.699,34,23.8459z"/>
	</g>
</g>
</svg>
