<?xml version="1.0" encoding="utf-8"?>
<!-- Generator: Adobe Illustrator 19.1.0, SVG Export Plug-In . SVG Version: 6.00 Build 0)  -->
<svg version="1.2" baseProfile="tiny" xmlns="http://www.w3.org/2000/svg" xmlns:xlink="http://www.w3.org/1999/xlink" x="0px"
	 y="0px" width="64px" height="64px" viewBox="0 0 64 64" xml:space="preserve">
<g id="_x36_4px_Box">
	<rect fill="none" width="64" height="64"/>
</g>
<g id="Icon">
	<g>
		<path d="M26,20h5v-1.5c0-1.3807-1.1193-2.5-2.5-2.5S26,17.1193,26,18.5V20z"/>
		<circle cx="50.5" cy="44.5" r="5.5"/>
		<path d="M1,41.1064c0,0.9919,0.7271,1.834,1.7084,1.9786l1.3801,0.2034L1,36.9989V41.1064z"/>
		<path d="M63.3018,39.1968l-0.754-3.5671c-0.4249-2.01-2.1083-3.5096-4.1539-3.7002l-9.1298-0.8506
			c-3.0289-3.3442-5.5907-5.8116-7.2438-7.3166C40.7783,22.6317,39.1646,22,37.485,22H25c-1.1046,0-2,0.8954-2,2v7H2
			c-0.5523,0-1,0.4477-1,1v3.1299l2.2298,0.2667l3.7988,7.7359c0.2809-1.5436,1.0283-2.921,2.0903-3.9883l-1.5876-3.2331
			l3.2048,0.3832l0.6323,1.2875C12.3242,37.1483,13.382,36.9,14.5,36.9c4.0286,0,7.3161,3.1369,7.5747,7.1h3.5596l-3.0905-6.2935
			l3.2048,0.3833L28.6509,44h4.0489l-2.6497-5.3957l3.2048,0.3832L35.7164,44h4.0489l-2.2088-4.498l3.2048,0.3833L42.7819,44h0.1434
			c0.2586-3.9631,3.5461-7.1,7.5747-7.1c4.009,0,7.285,3.1061,7.5718,7.0419l2.6477-0.644
			C62.5471,42.8534,63.6907,41.037,63.3018,39.1968z M29,31v-6h8.4854c0.9268,0,1.8203,0.3486,2.5156,0.9814
			c1.3008,1.1836,3.0527,2.8584,5.1055,5.0186H29z"/>
		<path d="M21.4296,18.9932l1.9827-0.2202C23.8062,18.7292,24,18.3962,24,17.9999c0-0.3962-0.1938-0.7291-0.5877-0.7729
			l-1.9827-0.2203c-0.6104-0.0678-0.9537,0.3792-0.9537,0.9932C20.476,18.614,20.8193,19.061,21.4296,18.9932z"/>
		<path d="M33.5877,18.7729l1.9827,0.2202c0.6104,0.0678,0.9537-0.3792,0.9537-0.9932c0-0.614-0.3433-1.061-0.9537-0.9932
			l-1.9827,0.2203C33.1938,17.2708,33,17.6037,33,17.9999C33,18.3962,33.1938,18.7292,33.5877,18.7729z"/>
		<path d="M25.2867,13.9804c0.2349,0.3192,0.6201,0.3206,0.9633,0.1224c0.3431-0.1981,0.5345-0.5325,0.3755-0.8954l-0.8006-1.8272
			c-0.2465-0.5624-0.8052-0.6363-1.3369-0.3293c-0.5319,0.3071-0.7473,0.8278-0.3834,1.3225L25.2867,13.9804z"/>
		<path d="M30.7501,14.1029c0.3431,0.1981,0.7283,0.1967,0.9632-0.1225l1.1821-1.6069c0.3639-0.4947,0.1485-1.0154-0.3833-1.3224
			c-0.5318-0.3071-1.0905-0.2332-1.337,0.3292l-0.8006,1.8272C30.2155,13.5704,30.4069,13.9047,30.7501,14.1029z"/>
		<circle cx="14.5" cy="44.5" r="5.5"/>
	</g>
</g>
</svg>
