<?xml version="1.0" encoding="utf-8"?>
<!-- Generator: Adobe Illustrator 19.1.0, SVG Export Plug-In . SVG Version: 6.00 Build 0)  -->
<svg version="1.2" baseProfile="tiny" xmlns="http://www.w3.org/2000/svg" xmlns:xlink="http://www.w3.org/1999/xlink" x="0px"
	 y="0px" width="64px" height="64px" viewBox="0 0 64 64" xml:space="preserve">
<g id="_x36_4px_Box">
	<rect fill="none" width="64" height="64"/>
</g>
<g id="Icon">
	<g>
		<path d="M6,20.5c0-3.8599,3.1401-7,7-7V18c0,1.6569,1.3431,3,3,3h8v-3h7.5c0.8284,0,1.5-0.6716,1.5-1.5S32.3284,15,31.5,15H24V9
			h7.5C32.3284,9,33,8.3284,33,7.5S32.3284,6,31.5,6H24V3h-8c-1.6569,0-3,1.3431-3,3v4.5c-5.5142,0-10,4.4858-10,10v18.4673
			c0.9163-0.463,1.9384-0.8069,3-1.1331V20.5z"/>
		<circle cx="50" cy="55" r="5"/>
		<circle cx="15" cy="55" r="5"/>
		<path d="M62.4583,47.9736c-2.8083-4.4124-17.3787-7.4388-17.3787-7.4388s-6.4366-6.101-9.7731-6.8373
			c-3.3352-0.7375-13.1176-1.1043-17.5385,0c-4.4197,1.1044-10.0776,5.9188-10.0776,5.9188
			c-2.7605,0.8514-4.8602,1.3595-5.6644,3.241c-1.1632,2.7253-1.1632,8.0613-0.4642,9.9019C2.2849,54.662,4.122,56,5.9843,56
			c0.0247,0,0.7651,0,2.0447,0C7.9824,55.6725,7.95,55.3405,7.95,55c0-3.8949,3.1552-7.05,7.05-7.05s7.05,3.1551,7.05,7.05
			c0,0.3405-0.0323,0.6725-0.0789,1c6.619,0,14.3077,0,21.0579,0c-0.0466-0.3275-0.0789-0.6595-0.0789-1
			c0-3.8949,3.1552-7.05,7.05-7.05s7.05,3.1551,7.05,7.05c0,0.3405-0.0323,0.6725-0.0789,1c2.1046,0,3.3555,0,3.3555,0
			c0.3745,0,0.7182-0.2031,0.908-0.5385C62.3398,53.5079,64.0031,50.4007,62.4583,47.9736z M40.998,42h-7.9265
			c-4.8495,0-14.9464-0.5104-17.3539-0.8198c-0.9227-0.1186-1.4663-1.071-1.1347-1.9401c0.6494-1.702,1.5624-2.5604,3.7921-3.1175
			c1.6074-0.4014,4.2979-0.6226,7.5762-0.6226c3.4893,0,7.1143,0.2622,8.8164,0.6382c1.3051,0.288,4.1647,2.3381,6.718,4.5267
			C42.0212,41.1241,41.7036,42,40.998,42z"/>
	</g>
</g>
</svg>
