<svg height="64" viewBox="0 0 64 64" width="64" xmlns="http://www.w3.org/2000/svg"><path d="m0 0h64v64h-64z" fill="none"/><path d="m48.7559 26.2889c.3002-.6861.1029-1.8701-1.0442-2.0919-.5076-.0984-1.4688-.006-2.3177.1141-.6574-2.3667-1.8018-6.2142-2.4698-6.9105-.8961-.9341-4.0371-1.4006-10.9216-1.4006s-10.0256.4665-10.9217 1.4005c-.668.6964-1.8124 4.5438-2.4698 6.9105-.849-.1201-1.8101-.2125-2.3177-.1141-1.147.2218-1.3443 1.4058-1.0442 2.0919.1431.3279.6498.9897 1.4565 1.543-1.3157 1.7682-1.7018 3.3051-1.7018 6.1628v7.809s0 2.7277.3197 4.2486c.1166.5539.6306.9478 1.2225.9478h4.395c.5923 0 1.106-.3939 1.2225-.9476.1783-.8491.2573-2.1876.2922-2.9824l-4.1678-.8283c-.2157-.0692-.1841-.2091-.1699-.2473h13.8846 13.8846c.0142.0382.0457.1782-.1699.2473l-4.168.8283c.0349.7947.1139 2.1332.2922 2.9824.1165.5537.6301.9476 1.2224.9476h4.3951c.5923 0 1.106-.3939 1.2225-.9476.3197-1.5209.3123-4.2486.3123-4.2486s0-4.1167 0-7.809c0-2.8578-.3787-4.3946-1.6945-6.1628.8068-.5534 1.3134-1.2152 1.4565-1.5431zm-25.6637-7.0694c.399-.1982 3.3287-.5371 8.9104-.5371s8.5113.3389 8.9103.5371c.3954.6704 1.6574 5.0186 2.0176 6.7739-1.9867.5514-6.5099.9258-10.9279.9258s-8.9413-.3744-10.928-.9258c.3603-1.7553 1.6222-6.1035 2.0176-6.7739zm1.0797 17.641-4.0037-.3196c-1.0847-.0865-1.7493-.9509-1.9482-1.8989l-.165-1.1452c-.1019-.7083.6265-1.3093 1.3446-1.1098l3.2408.8992c.7048.2709 1.2374.8209 1.4645 1.5113l.4442 1.6475c.0591.2186-.1381.4354-.3772.4155zm11.8281 2.1395h-8v-2h8zm9.9501-5.5032-.165 1.1452c-.1989.9479-.8636 1.8124-1.9482 1.8989l-4.0036.3196c-.2391.0199-.4363-.1969-.3772-.4155l.4442-1.6475c.2271-.6904.7596-1.2404 1.4642-1.5113l3.241-.8992c.7182-.1996 1.4466.4015 1.3446 1.1098z"/><path d="m55.9413 23.7052-.9916 1.7354c3.6115 2.0684 6.0503 5.9519 6.0503 10.412s-2.4388 8.3436-6.0502 10.412l.9915 1.7354c4.2134-2.4131 7.0587-6.9439 7.0587-12.1474s-2.8453-9.7343-7.0587-12.1474z"/><path d="m59 35.8526c0-3.7167-2.0323-6.953-5.0419-8.6767l-.9916 1.7354c2.4076 1.3789 4.0335 3.9679 4.0335 6.9413s-1.6259 5.5624-4.0335 6.9413l.9916 1.7354c3.0096-1.7237 5.0419-4.96 5.0419-8.6767z"/><path d="m55 35.8526c0-2.2301-1.2194-4.1718-3.0251-5.206l-.9987 1.7478c1.2035.6895 2.0238 1.9717 2.0238 3.4582s-.8203 2.7687-2.0239 3.4582l.9987 1.7478c1.8058-1.0342 3.0252-2.9759 3.0252-5.206z"/><path d="m3 35.8526c0-4.4601 2.4388-8.3436 6.0502-10.412l-.9916-1.7354c-4.2133 2.4131-7.0586 6.9439-7.0586 12.1474s2.8453 9.7343 7.0587 12.1474l.9916-1.7354c-3.6115-2.0684-6.0503-5.9519-6.0503-10.412z"/><path d="m7 35.8526c0-2.9734 1.6259-5.5624 4.0335-6.9413l-.9916-1.7354c-3.0096 1.7237-5.0419 4.96-5.0419 8.6767s2.0323 6.953 5.0419 8.6767l.9916-1.7354c-2.4076-1.3789-4.0335-3.9679-4.0335-6.9413z"/><path d="m13.0239 32.3944-.9987-1.7478c-1.8058 1.0342-3.0252 2.9759-3.0252 5.206s1.2194 4.1718 3.0251 5.206l.9987-1.7478c-1.2035-.6895-2.0238-1.9717-2.0238-3.4582s.8203-2.7687 2.0239-3.4582z"/></svg>