<?xml version="1.0" encoding="utf-8"?>
<!-- Generator: Adobe Illustrator 22.1.0, SVG Export Plug-In . SVG Version: 6.00 Build 0)  -->
<!DOCTYPE svg PUBLIC "-//W3C//DTD SVG 1.1//EN" "http://www.w3.org/Graphics/SVG/1.1/DTD/svg11.dtd">
<svg version="1.1" xmlns="http://www.w3.org/2000/svg" xmlns:xlink="http://www.w3.org/1999/xlink" x="0px" y="0px" width="64px"
	 height="64px" viewBox="0 0 64 64" style="enable-background:new 0 0 64 64;" xml:space="preserve">
<style type="text/css">
	.st0{fill:none;}
</style>
<g id="Box">
	<rect class="st0" width="64" height="64"/>
</g>
<g id="Icon">
	<g>
		<g>
			<path d="M52.4,45.3c-1.5,1.5-3.8,3.3-6.3,5l-4.9,8.2l-6.5-2.4c-2.5,0.8-4.9,1.2-7,1.2c-1.8,0-3.4-0.3-4.8-0.9
				c0.1,0.2,0.2,0.4,0.3,0.6c2.8,6,9.8,6.9,18.5,3c5.2-2.3,9.8-5.7,12.5-8.5c4.3-4.4,4.2-9.2,2.7-12.6C56.2,41,54.7,43.1,52.4,45.3z
				 M36.7,52.8c5.4-2.3,11.1-6.4,14.1-9.2c2.8-2.7,4.3-5.3,4.2-7.7c-3.3-3.8-10.4-5.1-17.2-1.9c4.3,2,6.1,4.3,6.7,5
				c0.4,0.5,0.5,0.9,0.3,1c-0.9-0.6-4.7-3.4-11.5-3.5c-1.5,1-2.9,2.2-4.2,3.4c5,2.1,7,4.8,7.6,5.5c0.4,0.5,0.5,0.8,0.3,0.9
				c-0.9-0.4-4.4-3.2-10.7-3.5c-2.9,3.6-4.2,7.4-4,10.6C25.4,55.6,30.6,55.3,36.7,52.8z M52.3,19.6l3.7-0.7V14h6c0.6,0,1-0.4,1-1V5
				c0-0.6-0.4-1-1-1H2C1.4,4,1,4.4,1,5v8c0,0.6,0.4,1,1,1h10c0,0.1,0.1,0.3-0.3,0.4L8,15.1V41h6V14h36v6h-3c-1.1,0-2,0.9-2,2v7.2
				c4.6-0.1,9.3,1.3,12.4,4.8l0,0c1.6,1.9,2.8,4.4,3.3,7H63V22c0-1.1-0.9-2-2-2h-9C52,19.9,51.9,19.7,52.3,19.6z M27,37.7
				c3.3-3.1,5.1-4.1,7.6-5.4c-0.1-0.3-0.3-0.6-0.6-0.9c0.4-0.3,0.7-0.6,0.8-0.8c0.2-0.4,0.1-1-0.5-1.1c-0.3-0.1-0.8,0-1.3,0.1
				c-0.3-1.2-0.9-2.4-1.3-2.7C31.2,26.3,28.6,26,26,26c-2.6,0-5.2,0.3-5.7,0.8c-0.3,0.4-1,1.5-1.3,2.7c-0.4-0.1-1-0.1-1.3-0.1
				c-0.6,0.1-0.7,0.7-0.6,1.1c0.1,0.2,0.4,0.5,0.8,0.8c-0.7,0.9-0.9,1.6-0.9,3.1c0,1.9,0,4.1,0,4.1s0.1,1.2,0.2,2
				c0.1,0.3,0.4,0.5,0.7,0.5h2.3c0.3,0,0.6-0.3,0.6-0.6C20.9,39.9,21,39,21,39h4.7L27,37.7z M22,28.1c0.6-0.1,1.8-0.2,4-0.2
				s3.4,0.1,4,0.2c0.6,1.4,0.9,2.6,1.1,3.6c-1.3,0.2-3.2,0.3-5.1,0.3s-3.8-0.1-5.1-0.3C21.1,30.8,21.4,29.6,22,28.1z M21.9,36.1
				l-2.1-0.2c-0.6,0-0.9-0.5-1-1l-0.1-0.6c-0.1-0.4,0.3-0.7,0.7-0.6l1.7,0.5c0.4,0.1,0.6,0.4,0.8,0.8l0.2,0.9
				C22.1,36,22,36.1,21.9,36.1z"/>
		</g>
	</g>
</g>
</svg>
