<?xml version="1.0" encoding="utf-8"?>
<!-- Generator: Adobe Illustrator 17.1.0, SVG Export Plug-In . SVG Version: 6.00 Build 0)  -->
<svg version="1.2" baseProfile="tiny" xmlns="http://www.w3.org/2000/svg" xmlns:xlink="http://www.w3.org/1999/xlink" x="0px"
	 y="0px" width="64px" height="64px" viewBox="0 0 64 64" xml:space="preserve">
<g id="Box">
	<rect fill="none" width="64" height="64"/>
</g>
<g id="Icon">
	<g>
		<path d="M17.6119,18.9301c-3.7626-0.143-7.2983-0.4963-8.9819-0.9641c0.4019-1.9608,2.189-7.4208,2.63-8.1696
			c0.4452-0.2215,3.7134-0.6,9.9401-0.6c6.2266,0,9.4948,0.3785,9.9399,0.6c0.0514,0.0872,0.1225,0.2437,0.2061,0.4458
			c1.0201-0.0818,2.196-0.1423,3.528-0.1829c-0.5377-1.1612-1.0863-2.0808-1.4829-2.4948C32.3914,6.5211,28.8837,6,21.2037,6
			S10.0178,6.5211,9.0181,7.5645c-0.7452,0.7778-2.0228,3.3137-2.7561,5.9575c-0.9471-0.1341-2.1534-0.2374-2.7197-0.1274
			c-1.2797,0.2477-1.4999,1.5704-1.1651,2.3367c0.1597,0.3663,0.7399,1.1055,1.6399,1.7236C2.5494,19.43,2,20.7752,2,23.9674
			c0,4.1245,0,8.723,0,8.723s0.1185,2.5522,0.4752,4.2511C2.6052,37.56,3.2971,38,3.9575,38h4.9029
			c0.6608,0,1.1751-0.6923,1.3637-1.2955C10.4688,35.9219,10.5625,35.5,10.631,34H16v-2.3481c0-3.1862,0.5078-5.0131,1.5631-6.7839
			c-0.4415-0.4811-0.7883-0.9766-0.9832-1.4238c-0.4679-1.0709-0.4193-2.3818,0.1268-3.421
			C16.9346,19.5894,17.2491,19.231,17.6119,18.9301z M12.4644,27.1685l-4.4663-0.3571c-1.21-0.0966-1.9514-1.0622-2.1733-2.1211
			l-0.1841-1.2792C5.527,22.62,6.3396,21.9485,7.1407,22.1714l3.6153,1.0045c0.7863,0.3026,1.3803,0.9171,1.6337,1.6882
			l0.4955,1.8404C12.9511,26.9485,12.7311,27.1907,12.4644,27.1685z"/>
		<path d="M61.77,59.5037L48.4168,36.8871c-0.2974-0.5042-0.8393-0.8134-1.4249-0.8134c-0.0021,0-0.0043,0-0.0065,0
			c-0.5877,0.0022-1.1296,0.3162-1.4249,0.8242L32.4359,59.5145c-0.2968,0.5118-0.2979,1.1437-0.0027,1.6565
			c0.2952,0.5128,0.842,0.829,1.434,0.829h26.4779c0.5942,0,1.1426-0.3184,1.4373-0.8344
			C62.077,60.6495,62.0721,60.0154,61.77,59.5037z M36.7411,58.6902l10.2632-17.6859l10.442,17.6859H36.7411z"/>
		<path d="M46.9777,54.1592c-0.837,0-1.2719,0.6024-1.2719,1.3723c0,0.8703,0.4687,1.3385,1.2888,1.3385
			c0.8365,0,1.2719-0.5855,1.2719-1.3385C48.2665,54.6443,47.7978,54.1592,46.9777,54.1592z"/>
		<polygon points="46,53 48,52.9472 48,50.9799 48.235,46.0319 46,46.2258 		"/>
		<path d="M40.8721,39H33v-2h9.0328l0.934-1.6095c0.827-1.423,2.3627-2.3107,4.0187-2.3168h0.0065
			c0.5031,0,0.993,0.0915,1.4592,0.2466l0.1852-0.6878c0.2771-0.8434,0.9269-1.5154,1.7866-1.8464l3.9545-1.0986
			c0.8762-0.2438,1.765,0.4906,1.6406,1.3559l-0.2014,1.3992c-0.2427,1.1581-1.0536,2.2143-2.3771,2.3199l-2.7014,0.2159
			c0.0915,0.1244,0.1827,0.2491,0.262,0.3835l6.8707,11.6371c0.7191-0.0052,1.468-0.4839,1.6094-1.1568
			C59.8704,43.9841,60,41.1926,60,41.1926s0-5.0296,0-9.5407c0-3.4915-0.6008-4.9628-2.2061-7.1231
			c0.9844-0.6761,1.684-1.4846,1.8586-1.8853c0.3662-0.8382,0.0931-2.2848-1.3065-2.5558
			c-0.6194-0.1203-1.9546-0.0073-2.9905,0.1394c-0.8021-2.8916-2.2065-5.6653-3.0215-6.516C51.2407,12.5699,47.4041,12,39.004,12
			c-8.4,0-12.2346,0.5699-13.3279,1.7111c-0.815,0.8507-2.2123,3.6244-3.0145,6.516c-1.0359-0.1467-2.3553-0.2597-2.9747-0.1394
			c-1.3996,0.2709-1.6405,1.7176-1.2743,2.5558c0.1746,0.4006,0.8093,1.2092,1.7936,1.8852C18.6009,26.6891,18,28.1603,18,31.6519
			c0,4.5111,0,9.5407,0,9.5407s0.1296,2.7914,0.5197,4.6497C18.6619,46.5187,19.4187,47,20.1409,47H26
			c0.7227,0,1.3494-0.7405,1.4916-1.4171c0.2175-1.0374,0.3209-1.6923,0.4451-3.5829h11.1945L40.8721,39z M28.1281,16.4235
			c0.4869-0.2422,4.0615-0.6562,10.8719-0.6562s10.3849,0.414,10.8719,0.6562c0.4824,0.8191,2.437,6.5409,2.8766,8.6855
			C50.3243,25.7826,44.3906,26.24,39,26.24s-11.3243-0.4574-13.7485-1.131C25.6911,22.9644,27.6457,17.2426,28.1281,16.4235z
			 M29.4455,35.153l-4.885-0.3905c-1.3234-0.1057-2.1344-1.1618-2.3771-2.3199l-0.2014-1.3992
			c-0.1243-0.8653,0.7644-1.5997,1.6406-1.3559l3.9542,1.0986c0.86,0.331,1.5098,1.003,1.7869,1.8464l0.542,2.0129
			C29.9778,34.9125,29.7372,35.1774,29.4455,35.153z"/>
	</g>
</g>
</svg>
