<?xml version="1.0" encoding="utf-8"?>
<!-- Generator: Adobe Illustrator 19.1.0, SVG Export Plug-In . SVG Version: 6.00 Build 0)  -->
<svg version="1.2" baseProfile="tiny" xmlns="http://www.w3.org/2000/svg" xmlns:xlink="http://www.w3.org/1999/xlink" x="0px"
	 y="0px" width="64px" height="64px" viewBox="0 0 64 64" xml:space="preserve">
<g id="Box">
	<rect fill="none" width="64" height="64"/>
</g>
<g id="Icon">
	<g>
		<path d="M59.1693,50.2094c-0.4785-0.0809-0.9471,0.1933-1.1078,0.6525l-0.8625,2.4547l-3.4621-3.6984
			C52.7739,48.5898,51.4136,48,50.0049,48H39c-0.8286,0-1,0.6714-1,1.5s0.1714,1.5,1,1.5h11.0049c0.582,0,1.144,0.2437,1.542,0.6685
			l3.3144,3.5406l-2.6177,0.3059c-0.4833,0.0569-0.8533,0.4534-0.88,0.9374c-0.0256,0.4855,0.3023,0.9185,0.7765,1.0249
			l6.6439,1.4982c0.2953,0.0668,0.6053-0.0045,0.842-0.1938s0.3744-0.476,0.3741-0.7788l-0.0015-6.8107
			C59.9989,50.7061,59.6486,50.2911,59.1693,50.2094z"/>
		<path d="M39,16h11.0049c1.4087,0,2.769-0.5898,3.7319-1.6182l3.4621-3.6984l0.8625,2.4547
			c0.1607,0.4592,0.6294,0.7333,1.1078,0.6525c0.4792-0.0817,0.8296-0.4967,0.8292-0.9827L60,5.9971
			c0.0003-0.3028-0.1374-0.5895-0.3741-0.7788s-0.5467-0.2606-0.842-0.1938L52.14,6.5228
			c-0.4742,0.1064-0.8021,0.5394-0.7765,1.0249c0.0267,0.484,0.3967,0.8805,0.88,0.9374l2.6177,0.3059l-3.3144,3.5406
			C51.1489,12.7563,50.5869,13,50.0049,13H39c-0.8286,0-1,0.6714-1,1.5S38.1714,16,39,16z"/>
		<path d="M52,32c0-8.2943-4-12-10.8032-12h-6.3754l-0.873-1.455c-0.1896-0.3159-0.531-0.5093-0.8995-0.5093
			c-0.5793,0-1.049,0.4697-1.049,1.049V20H11.504C7.3663,20,4,23.2439,4,27.2311v9.5377C4,40.7561,7.3663,44,11.504,44H32v0.9153
			c0,0.5793,0.4696,1.049,1.049,1.049c0.3685,0,0.7099-0.1934,0.8995-0.5093L34.8214,44h6.3754C48,44,52,40.3685,52,32z
			 M48.8713,26.04h-2.5226c-0.8487,0-1.605-0.5357-1.8867-1.3364l-0.8631-2.4537C46.1028,22.7083,47.8455,23.9518,48.8713,26.04z
			 M44.462,39.2963c0.2817-0.8007,1.0367-1.3363,1.8854-1.3363c1.1432,0,2.5629,0.0001,2.5629,0.0001
			c-1.0135,2.1183-2.7592,3.3547-5.3154,3.801L44.462,39.2963z M15.0159,23H32v0.0098l-2.6029,1.3317
			C28.5511,24.7743,27.6146,25,26.6643,25H15.0159c-0.3461,0-0.6675-0.1789-0.8499-0.473C13.7529,23.8608,14.232,23,15.0159,23z
			 M12.3174,36.3699c0.0761,0.4963-0.2268,0.9636-0.709,1.1036l-3.1734,0.9211c-0.5296,0.1537-1.0751-0.1526-1.2429-0.6779
			C7.0689,37.3309,7,36.924,7,36.5v-9c0-0.424,0.0689-0.8309,0.1921-1.2167c0.1678-0.5253,0.7133-0.8315,1.2429-0.6779
			l3.1734,0.9211c0.4822,0.14,0.7851,0.6073,0.709,1.1036C12.1442,28.7596,12,30.23,12,32S12.1442,35.2404,12.3174,36.3699z M32,41
			H15.0159c-0.7839,0-1.2629-0.8608-0.8499-1.527C14.3483,39.1789,14.6698,39,15.0159,39h11.6484
			c0.9503,0,1.8868,0.2257,2.7328,0.6585L32,40.9902V41z M37.996,40.2635c-0.29,0.4127-0.8369,0.5527-1.2859,0.323l-5.5552-2.8422
			c-0.3878-0.1984-0.6029-0.6179-0.5306-1.0474C30.8223,35.5214,31,33.9308,31,32s-0.1777-3.5214-0.3757-4.697
			c-0.0723-0.4295,0.1428-0.8491,0.5306-1.0474l5.5552-2.8422c0.449-0.2297,0.9959-0.0897,1.2859,0.323
			c1.4296,2.0349,2.2379,4.9783,2.2379,8.2635S39.4256,38.2287,37.996,40.2635z"/>
	</g>
</g>
</svg>
