<?xml version="1.0" encoding="utf-8"?>
<!-- Generator: Adobe Illustrator 19.1.0, SVG Export Plug-In . SVG Version: 6.00 Build 0)  -->
<svg version="1.2" baseProfile="tiny" xmlns="http://www.w3.org/2000/svg" xmlns:xlink="http://www.w3.org/1999/xlink" x="0px"
	 y="0px" width="64px" height="64px" viewBox="0 0 64 64" xml:space="preserve">
<g id="Box">
	<rect fill="none" width="64" height="64"/>
</g>
<g id="Icon">
	<g>
		<polygon points="48.2766,38.564 47.6161,36.1094 50,34.1425 46.3481,35.2816 46.5244,38.0944 42.5261,39.4493 40.6605,38.3127 
			41.8832,41.0413 39.9927,43.3536 36.7271,44.6636 40.605,44.7883 41.9108,43.1523 43.2269,45 43.2137,41.3052 		"/>
		<path d="M42.0107,55c1.8149-1.2794,4.4924-4.2037,8.5063-9.3891c5.5015-7.1072,7.5229-10.7182,7.2604-12.3807
			c-0.1957-1.2393-3.312-5.4585-5.2662-8.0058c0.8041-0.7816,1.6691-1.7007,1.9716-2.3026
			c0.6843-1.3593-0.3986-2.4978-1.3571-2.7296c-0.4579-0.1111-1.5561-0.1106-2.7806,0.2853
			c-0.801-2.7543-2.1025-4.3663-5.0966-6.6226c-3.8683-2.9152-8.1812-6.1655-8.1812-6.1655S34.674,5.8855,32.825,5.0147
			c-0.6731-0.317-1.4966-0.0973-1.9697,0.5139l-3.5121,4.5372c-0.4733,0.6115-0.4711,1.4527,0.0159,2.0102
			c0.6844,0.7828,2.0986,1.9789,2.951,2.6853l3.8715-3.3059c0.2387-0.164,0.4275-0.1099,0.5142,0.0257
			c-22.6795,29.2986-11.6872,15.0981-21.713,28.05c-0.0668-0.0203-0.2906-0.1216-0.1604-0.4827l2.2178-4.5637
			c-0.8729-0.5988-2.3989-1.6195-3.4063-2.0941c-0.6732-0.3169-1.4963-0.0977-1.9697,0.5138l-3.5121,4.5372
			C5.6788,38.053,5.681,38.8942,6.168,39.4517c1.338,1.531,3.7316,3.3348,3.7316,3.3348s4.3129,3.2503,8.1812,6.1655
			c2.994,2.2563,4.9126,3.071,7.8165,3.1088c-0.0649,1.2698,0.2236,2.3154,0.4527,2.722c0.0419,0.0745,0.0991,0.1456,0.1542,0.2172
			H5v3h54v-3H42.0107z M34.9201,21.0568l3.5342-3.8807c0.9575-1.0515,2.3942-1.0552,3.5463-0.512l1.3317,0.7338
			c0.8234,0.454,0.8711,1.6807,0.0882,2.2643l-3.5319,2.6357c-0.8471,0.5137-1.8489,0.6292-2.7536,0.3185l-2.0811-0.8422
			C34.7778,21.6627,34.7083,21.288,34.9201,21.0568z M24.9258,41.6277l-1.6478,4.0558c-0.3648,0.8989-1.5767,1.1763-2.2373,0.5119
			l-1.0679-1.0745c-0.8342-0.9538-1.2087-2.3224-0.4325-3.5105l2.8645-4.3855c0.1702-0.2625,0.555-0.2949,0.7367-0.0613
			l1.371,1.7594C25.0543,39.7023,25.205,40.6863,24.9258,41.6277z M24.0003,32.5738l-1.7785-1.3403l6.792-8.7743l1.7785,1.3403
			L24.0003,32.5738z M29.7123,55c0.447-0.533,0.9583-1.3566,1.3963-2.1263c1.6549,0.6553,3.8965,1.5115,5.7894,2.1263H29.7123z
			 M40.0237,52.2676c-1.0183-0.1212-6.5822-2.2513-8.709-3.2653c1.01-2.4863,4.2323-7.4515,7.7628-12.0124
			c3.5306-4.561,7.5374-8.9349,9.7027-10.5505c1.5511,1.7578,5.098,6.4935,5.4844,7.431c-0.1111,0.5685-2.0973,3.8604-6.5577,9.6227
			S40.5504,52.0122,40.0237,52.2676z"/>
	</g>
</g>
</svg>
