<svg height="64" viewBox="0 0 64 64" width="64" xmlns="http://www.w3.org/2000/svg"><path d="m0 0h64v64h-64z" fill="none"/><path d="m52.7012 36.0303c1.0916-.7497 1.777-1.6464 1.9707-2.0906.4061-.9295.1392-2.5337-1.4128-2.8342-.6868-.1334-1.9873-.0081-3.136.1545-.8895-3.2065-2.4379-8.4193-3.3417-9.3627-1.2125-1.2653-5.4625-1.8973-14.7775-1.8973s-13.5651.632-14.7775 1.8975c-.9038.9434-2.4523 6.1561-3.3417 9.3627-1.1487-.1627-2.4491-.288-3.136-.1545-1.552.3005-1.8189 1.9047-1.4128 2.8342.1937.4442.8792 1.3409 1.9708 2.0906-1.7803 2.3955-2.3028 4.4777-2.3028 8.3495v10.58s0 3.6956.4326 5.7562c.1577.7501.8531 1.2838 1.654 1.2838h5.9467c.8015 0 1.4964-.5337 1.6541-1.2839.2413-1.1505.3481-3.2221.3953-4.2989l-5.6393-1.1223c-.2919-.0937-.2491-.2833-.2299-.335h18.7865 18.7865c.0192.0518.0619.2413-.2299.335l-5.6393 1.1223c.0472 1.0768.1541 3.1484.3953 4.2989.1577.7502.8526 1.2839 1.654 1.2839h5.9467c.8014 0 1.4964-.5337 1.6541-1.2839.4326-2.0606.4226-5.7562.4226-5.7562s0-5.5775 0-10.58c0-3.8717-.5125-5.9539-2.2927-8.3496zm-32.7534-11.6684c.5399-.2686 4.5038-.7277 12.0562-.7277 7.5522 0 11.5162.4591 12.0561.7277.535.9083 2.2426 6.7994 2.7299 9.1776-2.6881.7471-8.8082 1.2543-14.786 1.2543s-12.0979-.5072-14.7861-1.2543c.4874-2.3782 2.1949-8.2693 2.7299-9.1776zm1.4608 23.9007-5.4172-.433c-1.4676-.1172-2.3669-1.2884-2.636-2.5727l-.2233-1.5516c-.1379-.9596.8477-1.7739 1.8193-1.5035l4.3849 1.2183c.9537.3671 1.6742 1.1122 1.9815 2.0475l.601 2.2322c.0801.296-.1867.5898-.5102.5628zm15.5914 3.7374h-10v-3h10zm13.8755-8.2947-.2233 1.5516c-.2691 1.2843-1.1684 2.4555-2.636 2.5727l-5.4171.433c-.3235.027-.5903-.2668-.5104-.5629l.6011-2.2322c.3073-.9353 1.0278-1.6805 1.9811-2.0475l4.3853-1.2183c.9717-.2704 1.9573.544 1.8193 1.5036z"/><path d="m32 4.7165c5.6647 0 10.5321 3.3709 12.7361 8.2106l2.2743-1.0338c-2.5976-5.7039-8.3341-9.6768-15.0104-9.6768s-12.4128 3.9729-15.0104 9.6768l2.2743 1.0338c2.204-4.8397 7.0714-8.2106 12.7361-8.2106z"/><path d="m40.1874 14.9948 2.2743-1.0338c-1.8104-3.9755-5.8085-6.7445-10.4617-6.7445s-8.6513 2.769-10.4617 6.7444l2.2743 1.0338c1.4168-3.1112 4.5457-5.2782 8.1874-5.2782s6.7706 2.167 8.1874 5.2783z"/><path d="m26.0869 16.0286 2.137.9714c.7244-1.3528 2.1342-2.2835 3.7761-2.2835s3.0517.9307 3.7761 2.2835l2.1371-.9714c-1.0233-2.247-3.2831-3.8121-5.9131-3.8121s-4.8899 1.5651-5.9132 3.8121z"/></svg>