<?xml version="1.0" encoding="utf-8"?>
<!-- Generator: Adobe Illustrator 19.1.0, SVG Export Plug-In . SVG Version: 6.00 Build 0)  -->
<svg version="1.2" baseProfile="tiny" xmlns="http://www.w3.org/2000/svg" xmlns:xlink="http://www.w3.org/1999/xlink" x="0px"
	 y="0px" width="64px" height="64px" viewBox="0 0 64 64" xml:space="preserve">
<g id="Box">
	<rect fill="none" width="64" height="64"/>
</g>
<g id="Icon">
	<path d="M48,17h-9.8l-0.828-1.38C37.1412,15.2354,36.7255,15,36.277,15C35.5717,15,35,15.5717,35,16.277V17H12
		c-4.9626,0-9,4.0374-9,9v12c0,4.9626,4.0374,9,9,9h23v0.723C35,48.4283,35.5717,49,36.277,49c0.4485,0,0.8643-0.2354,1.095-0.62
		L38.2,47H48c7.1682,0,13-5.8318,13-13v-4C61,22.8318,55.1682,17,48,17z M35,20v1.0781L30.619,23H15.4l-1.8-3H35z M12.5184,38.7445
		l-5.9529,1.7859C6.2064,39.7607,6,38.9054,6,38V26c0-0.9054,0.2064-1.7607,0.5654-2.5304l5.9529,1.7859
		C12.2624,26.7949,12,29.0798,12,32S12.2624,37.2051,12.5184,38.7445z M35,44H13.6l1.8-3H30.619L35,42.9219V44z M43.3576,43.3124
		l-10.8504-4.7598C32.7548,37.0042,33,34.773,33,32s-0.2452-5.0042-0.4928-6.5526l10.8504-4.7598
		c2.1838,2.5419,3.1699,6.6451,3.1699,11.3124S45.5414,40.7706,43.3576,43.3124z M49.8092,44L51.7,39.9717h4.4359
		C54.6566,42.043,52.4109,43.5238,49.8092,44z M51.7,24l-1.8908-4.0283c2.6017,0.4762,4.8474,1.957,6.3267,4.0283H51.7z"/>
</g>
</svg>
