<?xml version="1.0" encoding="utf-8"?>
<!-- Generator: Adobe Illustrator 21.0.2, SVG Export Plug-In . SVG Version: 6.00 Build 0)  -->
<svg version="1.2" baseProfile="tiny" xmlns="http://www.w3.org/2000/svg" xmlns:xlink="http://www.w3.org/1999/xlink" x="0px"
	 y="0px" width="64px" height="64px" viewBox="0 0 64 64" xml:space="preserve">
<g id="Box">
	<rect fill="none" width="64" height="64"/>
</g>
<g id="Icon">
	<g>
		<path d="M37.4,32.2c-0.9-1.1-2.3-0.9-3.3-0.3c-0.9,0.6-0.9,1-2.1,1s-1.2-0.4-2.1-1c-1-0.7-2.3-0.8-3.3,0.3
			c-0.8,0.9-0.3,2.7,0.9,3.7c0,0.2-0.1,0.4-0.1,0.6c0,1.8,2,3.2,4.5,3.2s4.5-1.4,4.5-3.2c0-0.2,0-0.4-0.1-0.6
			C37.7,35,38.1,33.2,37.4,32.2z M32,37.7c-1.5,0-2.5-0.7-2.5-1.2c0-0.5,1-1.2,2.5-1.2s2.5,0.7,2.5,1.2C34.5,36.9,33.5,37.7,32,37.7
			z M44.5,36.3c2.3-0.5,4.3-2.3,5.1-4.6c0.5-1.7,0.3-3.5-0.6-5c-0.8-1.2-2-2.1-3.5-2.5c-0.3-3.5-1.7-6.6-3.8-8.9
			c-1.2-1.3-2.7-2.3-4.4-3c-0.8-1.9-2.4-3.1-4.7-3.1c-2.3,0-6,2.2-6.1,6.4c-0.1,7.1,7.2,7.5,9.5,4.1c0.8-1.2,0-1.7,0-1.7
			c-2,1.6-4.7,1.1-4.9-0.7c-0.2-1.7,1.7-3.2,4.2-2.6c5.7,1.7,7.7,7.6,7.2,12.6c0.6-0.3,1.3-0.4,2-0.3c1.8,0.3,2.7,1.9,2.2,3.7
			c-0.6,1.8-2.5,3.1-4.4,2.6c-0.4,1.6-1.1,2.9-1.9,4c-2,2.7-5.1,3.9-8.5,3.9c-0.8,0-1.5-0.1-2.2-0.2c1.1,3.5,5.9,3.4,8.7,1.8
			c0,0,0,0,0,0c0,0,0,0,0,0c0.1,0.8,0.2,1.2,0.2,1.4c0,2.7-2.8,4.8-6.6,4.8s-6.6-2-6.6-4.8c0-0.8,0.5-3.2,0.7-4.5
			c-0.9-0.6-1.9-1.4-2.6-2.4l0,0c-0.8-1.1-1.5-2.4-1.9-4c-1.9,0.5-3.8-0.8-4.4-2.6c-0.6-1.8,0.4-3.4,2.2-3.7c0.7-0.1,1.3,0,2,0.3
			c-0.3-3.6,0.6-7.6,3.1-10.2c-0.2-1.5-0.1-2.8,0.3-4.1c-3.9,2.3-6,6.5-6.4,11.1c-1.4,0.4-2.7,1.2-3.5,2.5c-0.9,1.4-1.1,3.3-0.6,5
			c0.7,2.4,2.7,4.1,5.1,4.6c0.8,1.9,1.9,3.5,3.3,4.7c-0.1,0.6-0.2,1.1-0.2,1.5C17.4,45,14.9,49.6,15,55h34c0.1-5.4-2.4-10-7.6-12.5
			c-0.1-0.4-0.1-0.9-0.2-1.5C42.6,39.8,43.7,38.2,44.5,36.3z"/>
	</g>
</g>
</svg>
