<?xml version="1.0" encoding="utf-8"?>
<!-- Generator: Adobe Illustrator 17.1.0, SVG Export Plug-In . SVG Version: 6.00 Build 0)  -->
<svg version="1.2" baseProfile="tiny" xmlns="http://www.w3.org/2000/svg" xmlns:xlink="http://www.w3.org/1999/xlink" x="0px"
	 y="0px" width="64px" height="64px" viewBox="0 0 64 64" xml:space="preserve">
<g id="_x36_4px_Boxes">
	<rect fill="none" width="64" height="64"/>
</g>
<g id="Production">
	<g>
		<path d="M32,16c4.4343,0,7-3.0244,7-7.3789C39,3.6606,36.3181,1,32,1c-4.5496,0-7,3.145-7,7.6211C25,13.3389,27.5667,16,32,16z"/>
		<path d="M45.8462,25.837c-3.085-4.7851-6.4834-6.9856-10-7.5735c-2.062-0.3448-5.5523-0.3579-7.6924,0
			c-3.5166,0.5879-6.915,2.7884-10,7.5735c-3.769,5.8457-6.1894,11.6006-6.1894,11.6006c4.2036,2.7028,8.8742-6.027,12.0356-9.5323
			v6.339C25.0742,34.0643,25.1927,33,26.4617,33c1.3845,0,1.3845,1.2812,2.769,1.2812C30.6155,34.2812,30.6155,33,32,33
			c1.3845,0,1.3845,1.2812,2.7693,1.2812c1.3845,0,1.3845-1.2812,2.769-1.2812c1.269,0,1.3875,1.0643,2.4617,1.2443v-6.339
			c3.1614,3.5053,7.832,12.2351,12.0356,9.5323C52.0356,37.4376,49.6152,31.6827,45.8462,25.837z"/>
		<path d="M34.231,45.0771l5.4511,4.2579c0,0-3.0058,3.8828-3.83,5.4716C33.335,59.6563,37.3501,62,37.3501,62
			c6.8945-6.7549,9.5703-10.4512,9.6069-13.3809c0.0362-2.9248-6.2978-10.6035-6.2978-10.6035
			C37.4219,38.833,34.2534,41.0273,34.231,45.0771z"/>
		<path d="M23.3408,38.0156c0,0-6.334,7.6787-6.2978,10.6035c0.0366,2.9297,2.7124,6.626,9.6069,13.3809
			c0,0,4.0151-2.3437,1.498-7.1934c-0.8242-1.5888-3.83-5.4716-3.83-5.4716l5.4511-4.2579
			C29.7466,41.0273,26.5781,38.833,23.3408,38.0156z"/>
	</g>
</g>
</svg>
