<?xml version="1.0" encoding="utf-8"?>
<!-- Generator: Adobe Illustrator 19.1.0, SVG Export Plug-In . SVG Version: 6.00 Build 0)  -->
<svg version="1.2" baseProfile="tiny" xmlns="http://www.w3.org/2000/svg" xmlns:xlink="http://www.w3.org/1999/xlink" x="0px"
	 y="0px" width="64px" height="64px" viewBox="0 0 64 64" xml:space="preserve">
<g id="_x36_4px_Box">
	<rect fill="none" width="64" height="64"/>
</g>
<g id="Icon">
	<g>
		<path d="M59.4282,48.07c-2.77,0-5.7344-1.9053-5.7603-1.9219l-1.0957-0.7139l-1.0952,0.7109
			c-0.0298,0.0195-2.9932,1.9248-5.7632,1.9248c-2.7695,0-5.7339-1.9053-5.7598-1.9219l-1.0957-0.7139l-1.0952,0.7109
			C37.7334,46.1647,34.77,48.07,32,48.07s-5.7334-1.9053-5.7598-1.9219l-1.0972-0.7207l-1.0972,0.7207
			c-0.0293,0.0186-3.0063,1.9219-5.7598,1.9219c-2.77,0-5.7334-1.9053-5.7598-1.9219l-1.0957-0.7139l-1.0952,0.7109
			C10.3062,46.1647,7.3418,48.07,4.5718,48.07c-0.8727,0-1.7592-0.1942-2.5718-0.4539v4.0706C2.825,51.8756,3.6932,52,4.5718,52
			c2.7476,0,5.415-1.1777,6.8574-1.9424C12.8711,50.8223,15.5386,52,18.2861,52c2.7471,0,5.415-1.1777,6.8569-1.9424
			C26.585,50.8223,29.2524,52,32,52s5.415-1.1777,6.8569-1.9424C40.2988,50.8223,42.9668,52,45.7139,52
			c2.7476,0,5.415-1.1777,6.8569-1.9424C54.0132,50.8223,56.6807,52,59.4282,52c0.8786,0,1.7468-0.1244,2.5718-0.3134V47.614
			C61.1859,47.8748,60.2986,48.07,59.4282,48.07z"/>
		<path d="M53.668,54.1481l-1.0957-0.7139l-1.0952,0.7109c-0.0298,0.0195-2.9932,1.9248-5.7632,1.9248
			c-2.7695,0-5.7339-1.9053-5.7598-1.9219l-1.0957-0.7139l-1.0952,0.7109C37.7334,54.1647,34.77,56.07,32,56.07
			s-5.7334-1.9053-5.7598-1.9219l-1.0972-0.7207l-1.0972,0.7207c-0.0293,0.0186-3.0063,1.9219-5.7598,1.9219
			c-2.77,0-5.7334-1.9053-5.7598-1.9219l-1.0957-0.7139l-1.0952,0.7109C10.3062,54.1647,7.3418,56.07,4.5718,56.07
			c-0.8727,0-1.7592-0.1942-2.5718-0.4539v4.0706C2.825,59.8756,3.6932,60,4.5718,60c2.7476,0,5.415-1.1777,6.8574-1.9424
			C12.8711,58.8223,15.5386,60,18.2861,60c2.7471,0,5.415-1.1777,6.8569-1.9424C26.585,58.8223,29.2524,60,32,60
			s5.415-1.1777,6.8569-1.9424C40.2988,58.8223,42.9668,60,45.7139,60c2.7476,0,5.415-1.1777,6.8569-1.9424
			C54.0132,58.8223,56.6807,60,59.4282,60c0.8786,0,1.7468-0.1244,2.5718-0.3134V55.614c-0.8141,0.2608-1.7014,0.456-2.5718,0.456
			C56.6582,56.07,53.6938,54.1647,53.668,54.1481z"/>
		<path d="M24.5279,34l7.472-14.8599c0,0,7.2401,14.3345,7.4742,14.8599c14.0732-6.7084,9.9688-21,9.9688-21L34,17V1h-4v16
			l-15.443-4C14.557,13,10.4525,27.2916,24.5279,34z"/>
	</g>
</g>
</svg>
