<?xml version="1.0" encoding="utf-8"?>
<!-- Generator: Adobe Illustrator 23.1.1, SVG Export Plug-In . SVG Version: 6.00 Build 0)  -->
<svg version="1.1" xmlns="http://www.w3.org/2000/svg" xmlns:xlink="http://www.w3.org/1999/xlink" x="0px" y="0px"
	 viewBox="0 0 64 64" style="enable-background:new 0 0 64 64;" xml:space="preserve">
<style type="text/css">
	.st0{fill:none;}
</style>
<g id="Box">
	<rect class="st0" width="64" height="64"/>
</g>
<g id="Icon">
	<g>
		<path d="M27,47.1c-12,0-14.6-4.7-14.8-5.4c-0.1-0.3-0.1-0.4,0-0.4c3.4,2.3,8.5,3.8,14.3,3.8c2.1,0,4.1-0.2,5.9-0.5L45,31.9v-2.4
			c0-0.2,0-0.4-0.1-0.7c-1.3,1.6-6.4,7.3-17.9,7.3c-12,0-14.6-4.7-14.8-5.4c-0.1-0.3-0.1-0.4,0-0.4c3.4,2.3,8.5,3.8,14.3,3.8
			C36.9,34,45,29.4,45,23.5c0-0.8,0-3.6,0-4.8c-1.3,1.6-6.5,7.2-17.9,7.2c-12,0-14.6-4.7-14.8-5.4c-0.1-0.3-0.1-0.4,0-0.4
			c3.4,2.3,8.5,3.8,14.3,3.8c7.8,0,14.3-2.6,17.1-6.4c0.6-0.9,0.6-2,0-2.9C41,10.7,34.4,8,26.5,8C16.2,8,8,12.6,8,18.4
			c0,1.4,0,3.6,0,5c0,1.1,0.3,2.1,0.8,3.1c-0.5,0.9-0.8,1.9-0.8,3v5c0,1,0.3,2.1,0.8,3c-0.5,0.9-0.8,1.9-0.8,3v5
			C8,51.4,16.1,56,26.5,56c0.5,0,1,0,1.4,0l3-9.1C29.8,47,28.4,47.1,27,47.1z"/>
		<path d="M52.2,28.9L34.4,46.7c-0.2,0.2-0.4,0.5-0.4,0.7l-3.6,10.9c-0.2,0.5,0.3,0.9,0.7,0.7l10.9-3.6c0.3-0.1,0.5-0.2,0.7-0.4
			l17.8-17.8L52.2,28.9z M37,49.5l-0.3-0.3c-0.3-0.3-0.3-0.7,0-1l15.5-15.5l1.3,1.3L38,49.5C37.7,49.8,37.2,49.8,37,49.5z
			 M41.1,52.7c-0.3,0.3-0.7,0.3-1,0l-0.3-0.3c-0.3-0.3-0.3-0.7,0-1l15.5-15.5l1.3,1.3L41.1,52.7z"/>
	</g>
</g>
</svg>
