<?xml version="1.0" encoding="utf-8"?>
<!-- Generator: Adobe Illustrator 19.1.0, SVG Export Plug-In . SVG Version: 6.00 Build 0)  -->
<svg version="1.2" baseProfile="tiny" xmlns="http://www.w3.org/2000/svg" xmlns:xlink="http://www.w3.org/1999/xlink" x="0px"
	 y="0px" width="64px" height="64px" viewBox="0 0 64 64" xml:space="preserve">
<g id="Box">
	<rect fill="none" width="64" height="64"/>
</g>
<g id="Icon">
	<g>
		<path d="M55,7H9C7.8955,7,7,7.8955,7,9v34.99c0,1.1045,0.8955,2,2,2h16.5c0,0-0.5342,1.9412-1.5,5.01
			c-0.5779,1.8373-2.3791,1.992-2.8691,2H19c-0.5527,0-1,0.4478-1,1v2h28v-2c0-0.5522-0.4473-1-1-1h-2.1309
			c-0.49-0.008-2.2912-0.1627-2.8691-2c-0.3881-1.233-0.7027-2.2706-0.9447-3.0848c0,0-4.4024-0.6397-8.9772-1.5323
			c-0.3203-0.0625-0.2812-0.2969-0.2443-0.3828H55c1.1045,0,2-0.8955,2-2V9C57,7.8955,56.1045,7,55,7z M52,39H12V12h40V39z"/>
		<path d="M31.4866,35.7903c0.319,0.167,0.7078,0.167,1.0267,0c12.1424-6.3603,12.4878-17.7841,7.3072-20.0867
			C34.5679,13.3691,32,18.3883,32,18.3883s-2.568-5.0192-7.8205-2.6847C18.9989,18.0062,19.3442,29.43,31.4866,35.7903z
			 M26.1265,24.3229l1.3951-1.4642c0.1927-0.2022,0.5128-0.21,0.7149-0.0173l3.4878,3.3239l4.7416-6.2604
			c0.1686-0.2226,0.4857-0.2664,0.7083-0.0978l1.6124,1.2213c0.2226,0.1686,0.2664,0.4858,0.0978,0.7084l-6.4518,8.5178
			c-0.1823,0.2406-0.5334,0.2689-0.7519,0.0607l-5.537-5.2776C25.9416,24.8451,25.934,24.5251,26.1265,24.3229z"/>
	</g>
</g>
</svg>
