<?xml version="1.0" encoding="utf-8"?>
<!-- Generator: Adobe Illustrator 19.1.0, SVG Export Plug-In . SVG Version: 6.00 Build 0)  -->
<svg version="1.2" baseProfile="tiny" xmlns="http://www.w3.org/2000/svg" xmlns:xlink="http://www.w3.org/1999/xlink" x="0px"
	 y="0px" width="64px" height="64px" viewBox="0 0 64 64" xml:space="preserve">
<g id="Box">
	<rect fill="none" width="64" height="64"/>
</g>
<g id="Icon">
	<g>
		<path d="M29,44l-10-6H1.0001c0,4.9706,4.0294,9,8.9999,9h44.0001c4.9705,0,9-4.0294,9-9H38L29,44z"/>
		<path d="M52.743,22.4616c-2.9583-1.3038-6.7141-1.5419-10.4417-1.0416c2.22,2.2272,3.0317,4.0479,3.2477,4.5755
			c0.2739,0.6694,0.3404,1.0342,0.0836,1.2398c-0.8521-0.6035-4.0438-4.7457-11.1187-6.3884
			c-5.6562-1.3099-10.5781-0.856-14.8702,0.741c3.6761,2.5482,5.032,4.9493,5.3035,5.5017c0.319,0.6491,0.4315,0.9997,0.194,1.2274
			C24.2408,27.7935,20.1564,24.0159,13,23C5.3973,23.8163,1.0001,29.5647,1.0001,35.9999V36h62v-0.0001
			C63.0001,30.1426,59.606,25.4864,52.743,22.4616z"/>
	</g>
</g>
</svg>
