<?xml version="1.0" encoding="utf-8"?>
<!-- Generator: Adobe Illustrator 25.0.0, SVG Export Plug-In . SVG Version: 6.00 Build 0)  -->
<svg version="1.1" xmlns="http://www.w3.org/2000/svg" xmlns:xlink="http://www.w3.org/1999/xlink" x="0px" y="0px"
	 viewBox="0 0 64 64" style="enable-background:new 0 0 64 64;" xml:space="preserve">
<style type="text/css">
	.st0{fill:none;}
</style>
<g id="Box">
	<rect class="st0" width="64" height="64"/>
</g>
<g id="Icon">
	<path d="M51.789,39.77c-2.217-2.211-9.859-4.889-12.827-5.872c-0.288-1.003-0.488-1.972-0.616-2.816
		c1.699-1.86,2.958-4.092,3.396-6.786c1.739-0.49,2.087-3.784,2.087-5.022c0-1.24-0.238-1.91-0.725-2.119
		c-0.141-0.06-0.277-0.067-0.41-0.068c0.26-1.906,0.986-8.239-0.455-10.718c-1.368-2.358-3.033-3.506-6.206-2.736
		c-2.081-1.064-3.498-1.729-7.143-0.772c-2.533,0.665-5.306,1.751-6.767,3.564c-1.811,2.249-1.141,8.757-0.898,10.675
		c-0.109,0.009-0.217,0.007-0.33,0.055c-0.487,0.208-0.725,0.879-0.725,2.118c0,1.239,0.349,4.532,2.087,5.022
		c0.352,2.597,1.637,4.855,3.352,6.738c-0.134,0.858-0.328,1.846-0.594,2.871c-2.982,0.988-10.594,3.659-12.805,5.865
		C7.916,44.054,8.082,57.367,8,63h48C55.862,55.287,55.764,43.735,51.789,39.77z M47.756,58.102
		c-0.633,3.159-4.909,2.019-6.976,1.46C37.872,58.776,35,58.268,35,55.118v-4.557c1.666,0.544,3.31,1.481,5.135,2.852
		c0,0,0.392-0.138-0.033-0.833c-1.37-2.232-3.396-3.796-6.4-4.659c-1.07-0.307-2.262-0.328-3.402,0
		c-3.004,0.863-5.031,2.427-6.4,4.659c-0.426,0.695-0.033,0.833-0.033,0.833c1.825-1.371,3.469-2.308,5.135-2.852v4.557
		c0,3.15-2.872,3.659-5.781,4.445c-2.066,0.559-6.342,1.699-6.976-1.46C14.001,46.919,22.593,36.9,26.327,36.9
		c1.476,0,2.673,1.197,2.673,2.673v3.339c0,0.463-0.272,0.877-0.69,1.076c-1.438,0.683-3.231,1.215-4.911,1.416
		c0,0-0.177,0.377,0.618,0.559C24.756,46.132,31,46.878,31,43.365V30.951c0-0.552,0.448-1,1-1s1,0.448,1,1v12.413
		c0,3.513,6.244,2.768,6.983,2.598c0.795-0.182,0.618-0.559,0.618-0.559c-1.68-0.202-3.472-0.733-4.911-1.416
		C35.272,43.789,35,43.375,35,42.912v-3.339c0-1.476,1.197-2.673,2.673-2.673C41.407,36.9,49.999,46.919,47.756,58.102z"/>
</g>
</svg>
