<?xml version="1.0" encoding="utf-8"?>
<!-- Generator: Adobe Illustrator 22.1.0, SVG Export Plug-In . SVG Version: 6.00 Build 0)  -->
<!DOCTYPE svg PUBLIC "-//W3C//DTD SVG 1.1//EN" "http://www.w3.org/Graphics/SVG/1.1/DTD/svg11.dtd">
<svg version="1.1" xmlns="http://www.w3.org/2000/svg" xmlns:xlink="http://www.w3.org/1999/xlink" x="0px" y="0px" width="64px"
	 height="64px" viewBox="0 0 64 64" style="enable-background:new 0 0 64 64;" xml:space="preserve">
<style type="text/css">
	.st0{fill:none;}
	.st1{fill:#FFFFFF;}
</style>
<g id="Box">
	<rect class="st0" width="64" height="64"/>
</g>
<g id="Icon">
	<g>
		<path d="M15.7,39.5c-2.5,1-5.1,2.3-6.3,3.6C6.5,46.2,5,58,5,58h8.6l-0.8-4.4c0,0,1.9-0.6,4.9-1.1C16.5,46,15.9,41.8,15.7,39.5z"/>
		<path d="M40.7,38.2c-0.5-0.2-1-0.3-1.4-0.5c-0.1-0.7-0.2-1.5-0.3-2.2c0.8-0.6,1.3-1.6,1.4-2.8c0-0.3,0.1-0.6,0.4-0.7
			c0.9-0.6,1.5-1.7,1.5-3.1c0-0.5-0.1-0.9-0.2-1.3c1.3-1.2,2.1-3.2,2.1-5.6c0-0.7,0-2.7-1.2-4c0.5-0.2,0.7-0.8,0.7-1.3
			C43,13.9,41,5.3,32.9,3.4c-0.3-1-1.5-1.7-3-1.7c-1.6,0-2.8,0.8-3.1,1.8C18.9,5.4,17,14,16.5,16.7c-0.1,0.5,0.2,1.1,0.6,1.3
			c0,0,0,0.1,0,0.1C16,19.4,16,21.3,16,22c0,2.4,0.7,4.3,2.1,5.5c0,0,0,0,0,0c-0.1,0.4-0.2,0.8-0.2,1.3c0,1.4,0.6,2.6,1.5,3.1
			c0.2,0.2,0.4,0.4,0.4,0.7c0.1,1.4,0.9,2.6,1.9,3.2c-0.1,0.5-0.1,1.1-0.2,1.7c-0.5,0.1-1.1,0.3-1.8,0.5c0.8,5.1,2,10.6,2.7,13.6
			c5.6-0.7,10.3-0.7,15.4-0.1C38.5,48.6,39.8,43.2,40.7,38.2z M30,32c-1.4,0-2.4-0.3-3-0.7c1.2-0.4,2.6-1.1,3-2c0.5,0.9,1.8,1.5,3,2
			C32.4,31.7,31.4,32,30,32z M38,18.5v4.3c0,0,0.8,0.1,1-0.8c0-0.2,0.1-1.5,0.3-2.1c0.2-0.1,0.6-0.3,1-0.1c0.5,0.2,0.8,0.9,0.8,2.2
			c0,1.1-0.3,2.6-1.3,3.4c-0.2,0-0.3-0.1-0.5-0.1c-0.8,0-1.5,0.5-1.9,1.4c-0.4,1.1-0.5,2.3-1.1,3.4c-0.1,0.2-0.4,0.3-0.6,0
			c-0.7-0.9-1.8-2.3-2.8-2.9c-1.5-1-2.9,0.4-2.9,0.4l0,0v0c0,0-1.4-1.4-2.9-0.4c-0.9,0.6-2.1,2-2.8,2.9c-0.2,0.2-0.5,0.2-0.6,0
			c-0.6-1-0.7-2.2-1.1-3.4c-0.3-0.9-1-1.4-1.9-1.4c-0.2,0-0.3,0-0.5,0.1c-1-0.8-1.3-2.4-1.3-3.4c0-1.3,0.3-2,0.8-2.2
			c0.4-0.2,0.8,0,1,0.1c0.1,0.7,0.2,1.9,0.3,2.1c0.2,0.9,1,0.8,1,0.8v-4.3C26.9,19.2,33.1,19.2,38,18.5z M30.4,48.3
			c-2.3-1.8-6.6-5.5-6.2-9c0-0.2,0-0.3,0.1-0.5c0.7,0.6,1.5,0.9,2.2,0.8c0.2,0,0.5,0,0.7,0.2c1.6,1.3,4.2,1.3,5.7,0
			c0.2-0.2,0.4-0.2,0.7-0.2c0.9,0.1,2-0.5,2.8-1.5c0.1,0.4,0.1,0.8,0.1,1C36.7,42.7,32.8,46.6,30.4,48.3z"/>
		<path d="M60.2,37.8c-1.6-1.6-5.9-1-9.6,1.2c-1-0.3-3.7-1-4.7-0.2c-1.2,0.9-3.8,3.5-4.8,5.5c-0.1,0.2,0,0.5,0.2,0.6
			c0.1,0.1,2,0.8,2.8,1.1c-1.4,2.8-1.6,5-2.8,6.2c-1.7,1.7-4.3,1.4-6.5,1.9c-0.4,0.1-0.5,0.6-0.2,0.9c2.1,2,5.9,1.5,6.4,2
			c0.5,0.5-0.1,4.1,2,6.2c0.3,0.3,0.8,0.2,0.9-0.2c0.5-2.2,0.2-4.6,2-6.3c1.1-1.1,2.8-1.5,5-2.5l-0.2,2.7c0,0.4,0.4,0.7,0.7,0.5
			c1.1-0.6,1.8-0.9,2.4-1.8c1-1.3,1.2-2.8,1.2-3.8c0.7-0.5,1.3-1.1,2-1.8C60.7,46.1,62.2,39.8,60.2,37.8z M55.7,43.3
			c-0.6,0.6-1.7,0.6-2.3,0c-0.6-0.6-0.6-1.7,0-2.3c0.6-0.6,1.7-0.6,2.3,0C56.3,41.6,56.3,42.7,55.7,43.3z"/>
	</g>
</g>
</svg>
