<svg xmlns="http://www.w3.org/2000/svg" width="48" height="48" xmlns:v="https://vecta.io/nano"><path d="M41.77 1.004c2.121.359 3.73 1.965 4.086 4.086.984 5.863 1.027 11.727 1.066 17.586l.008.766c0 2.055 0 12.234-1.027 18.352-.359 2.121-1.965 3.73-4.086 4.086-6.117 1.027-16.32 1.027-18.352 1.027-2.055 0-12.234 0-18.352-1.027-2.121-.355-3.73-1.965-4.086-4.086C0 35.676 0 25.473 0 23.441S0 11.207 1.027 5.09A4.83 4.83 0 0 1 5.09 1.027C11.207 0 21.41 0 23.441 0S35.676 0 41.77 1.004zM31.234 13.285c.578-.648 1.563-.738 2.254-.227.691.539.871 1.496.402 2.277L22.973 33.398c-.289.492-.848.805-1.43.805s-1.117-.312-1.43-.828l-7.141-12.008a1.71 1.71 0 0 1 .355-2.168 1.66 1.66 0 0 1 2.164 0l5.918 5.137zm0 0" fill-rule="evenodd" fill="rgb(22.352941%,52.941176%,4.705882%)"/></svg>