<?xml version="1.0" encoding="utf-8"?>
<!-- Generator: Adobe Illustrator 23.0.3, SVG Export Plug-In . SVG Version: 6.00 Build 0)  -->
<svg version="1.1" xmlns="http://www.w3.org/2000/svg" xmlns:xlink="http://www.w3.org/1999/xlink" x="0px" y="0px" width="24px"
	 height="24px" viewBox="0 0 24 24" style="enable-background:new 0 0 24 24;" xml:space="preserve">
<style type="text/css">
	.st0{fill:none;}
	.st1{fill:#39870C;}
	.st2{fill:#FFFFFF;}
</style>
<g id="box">
	<g>
		<rect class="st0" width="24" height="24"/>
	</g>
</g>
<g id="icon">
	<g>
		<path class="st1" d="M22.04,3.78c-0.16-0.95-0.88-1.67-1.83-1.83C17.48,1.5,12.91,1.5,12,1.5c-0.91,0-5.48,0-8.22,0.46
			C2.83,2.11,2.11,2.83,1.96,3.78C1.5,6.52,1.5,11.09,1.5,12s0,5.48,0.46,8.22c0.16,0.95,0.88,1.67,1.83,1.83
			c2.74,0.46,7.3,0.46,8.22,0.46c0.91,0,5.48,0,8.22-0.46c0.95-0.16,1.67-0.88,1.83-1.83c0.46-2.74,0.46-7.3,0.46-8.22
			C22.5,9.26,22.5,6.52,22.04,3.78z"/>
		<path class="st2" d="M16.5,7.35c-0.31-0.23-0.75-0.19-1.01,0.1l-4.4,4.95l-2.65-2.3C8.16,9.86,7.75,9.86,7.47,10.1
			c-0.28,0.24-0.35,0.65-0.16,0.97l3.2,5.38c0.14,0.23,0.38,0.37,0.64,0.37c0,0,0,0,0,0c0.26,0,0.51-0.14,0.64-0.36l4.89-8.09
			C16.89,8.02,16.81,7.59,16.5,7.35z"/>
	</g>
</g>
</svg>
