<svg width="43" height="43" viewBox="0 0 43 43" fill="none" xmlns="http://www.w3.org/2000/svg">
<path fill-rule="evenodd" clip-rule="evenodd" d="M37.42 0.9C39.32 1.22 40.76 2.66 41.08 4.56C41.9617 9.81166 41.9984 15.0633 42.0351 20.315C42.0367 20.5433 42.0383 20.7717 42.04 21C42.04 22.84 42.04 31.96 41.12 37.44C40.8 39.34 39.36 40.78 37.46 41.1C31.98 42.02 22.84 42.02 21.02 42.02C19.18 42.02 10.06 42.02 4.58 41.1C2.68 40.78 1.24 39.34 0.92 37.44C0 31.96 0 22.82 0 21C0 19.18 0 10.04 0.92 4.56C1.22 2.66 2.66 1.22 4.56 0.92C10.04 0 19.18 0 21 0C22.82 0 31.96 0 37.42 0.9ZM27.9797 11.8999C28.4997 11.3199 29.3797 11.2399 29.9997 11.6999C30.6197 12.1799 30.7797 13.0399 30.3597 13.7399L20.5797 29.9199C20.3197 30.3599 19.8197 30.6399 19.2997 30.6399C18.7797 30.6399 18.2997 30.3599 18.0197 29.8999L11.6197 19.1399C11.2397 18.4999 11.3797 17.6799 11.9397 17.1999C12.4997 16.7199 13.3197 16.7199 13.8797 17.1999L19.1797 21.7999L27.9797 11.8999Z" fill="#39870C"/>
</svg>
