<svg xmlns="http://www.w3.org/2000/svg" viewBox="0 0 64 64"><defs><style>.cls-1{fill:none;}</style></defs><g id="BOX"><rect class="cls-1" width="64" height="64"/></g><g id="ICOON"><path d="M56.21,43.52a15.77,15.77,0,0,0-4.55,0,4.1,4.1,0,0,0-3.23,3.94h11A4.09,4.09,0,0,0,56.21,43.52Z"/><path d="M12.34,43.52a15.77,15.77,0,0,0-4.55,0,4.09,4.09,0,0,0-3.23,3.94h11A4.1,4.1,0,0,0,12.34,43.52Z"/><path d="M15.31,33v1.33a1.26,1.26,0,0,0,1.18,1.33H30.11V53.46h3.08V35.61H46.81A1.26,1.26,0,0,0,48,34.28V33Z"/><path d="M53.28,42.25c3,0,4.62-2,4.43-5s-.28-5.66-1-10.73S52.08,23,52.08,23a4.92,4.92,0,0,0-1.46.95l-.09.08-6.92,7.4h3.21a2.84,2.84,0,0,0,1.77-.92c.32-.32.77-.71.77-.71.15,1.65.77,5.31.85,6a1,1,0,0,1-1,1.25H42.13a1.92,1.92,0,0,0-2,2.57L42.9,50.81l.81,2.83a3.87,3.87,0,0,0,2.53-5c-.72-2.78-.93-4.5-1.47-6.44C45.29,42.32,50.31,42.25,53.28,42.25Z"/><path d="M51,21.67c2,0,3.14-1.41,3.13-3.42,0-2.3-1.22-3.52-3.16-3.51s-3.15,1.47-3.14,3.54S49,21.68,51,21.67Z"/><path d="M15.4,30.87l-1.23-1.12c-.15,1.65-.77,5.31-.85,6a1,1,0,0,0,1,1.25H21.4a1.92,1.92,0,0,1,2,2.57L20.63,50.81l-.81,2.83a3.87,3.87,0,0,1-2.53-5c.72-2.78.93-4.5,1.47-6.44-.52.09-5.54,0-8.51,0s-4.62-2-4.43-5,.28-5.66,1-10.73S11.45,23,11.45,23a4.79,4.79,0,0,1,1.46.95L13,24l6.92,7.4H16.74A2,2,0,0,1,15.4,30.87Z"/><path d="M12.56,21.67c-2,0-3.14-1.41-3.13-3.42,0-2.3,1.22-3.52,3.16-3.51s3.15,1.47,3.14,3.54S14.56,21.68,12.56,21.67Z"/><path d="M30.89,12.46V29.88H23.33L24.49,19.5a3.1,3.1,0,0,1,1-1.94l5.43-5.1m.72-2.1a1.84,1.84,0,0,0-1.26.5l-6,5.58A4.64,4.64,0,0,0,23,19.32L21.64,31.07a.32.32,0,0,0,.31.35H32.43V10.91a.55.55,0,0,0-.55-.55Z"/><path d="M32.42,12.46l5.43,5.1a3.1,3.1,0,0,1,1,1.94L40,29.88H32.42V12.46m-1.54,19H41.36a.32.32,0,0,0,.31-.35L40.35,19.32a4.64,4.64,0,0,0-1.44-2.88L33,10.86a1.84,1.84,0,0,0-1.26-.5h-.27a.55.55,0,0,0-.55.55Z"/></g></svg>