<?xml version="1.0" encoding="utf-8"?>
<!-- Generator: Adobe Illustrator 17.1.0, SVG Export Plug-In . SVG Version: 6.00 Build 0)  -->
<svg version="1.2" baseProfile="tiny" xmlns="http://www.w3.org/2000/svg" xmlns:xlink="http://www.w3.org/1999/xlink" x="0px"
	 y="0px" width="64px" height="64px" viewBox="0 0 64 64" xml:space="preserve">
<g id="Box">
	<rect fill="none" width="64" height="64"/>
</g>
<g id="Icon">
	<g>
		<path d="M27.3149,32.1211c6.6984,4.2683,7.9805,11.0297,8.1273,14.8508C47.0017,47.2925,56,38.0011,56,27
			c0-11.0457-8.9543-20-20-20c-7.342,0-13.7421,3.9682-17.2206,9.8651C18.7393,25.5837,20.9403,28.0601,27.3149,32.1211z
			 M47.6971,38.9761l-0.6545-1.4414l1.4777-2.6771l2.3954-0.2595C50.0815,36.2291,48.9955,37.7078,47.6971,38.9761z
			 M37.9576,10.3678c7.3121,0.856,13.1908,6.4324,14.5095,13.5951l-1.8726,2.4966l-2.1622,1.0811l-2.1622-2.1622l-1.1583-2.085
			c0,0,1.4948-1.4969,1.0811-2.2903c-0.4138-0.7935-2.7506,0.498-3.2126-0.1968c-0.4621-0.6953-0.0507-3.0687-0.0507-3.0687
			l-2.8975-1.1932c0,0-0.9052-0.0175-0.8293,0.6652c0.0852,0.767,2.1927,1.983,2.0224,2.3239
			c-0.1571,0.3144-0.6818,0.0853-0.6818,0.0853l-0.8012,1.4059l-1.6702-0.3761c0,0,1.2698-0.4814,1.4244-0.9446
			c0.1545-0.4633-1.8749-2.1305-1.8749-2.1305l-1.1312,0.2557l-0.5114,2.0453l-1.3635,1.1931l-1.7878-0.0135l0.1592-0.9908
			l-0.6547-0.0184l0.8524-2.2094l1.7553,0.1464c0,0,0.648-1.6929,0.5195-2.2501c-0.2494-1.0811-1.377-1.2032-1.377-1.6295
			c0-0.426,1.2148-0.4197,1.8115-1.0162C36.2639,12.7159,37.2569,11.351,37.9576,10.3678z M32.1222,10.7145
			c1.0109-0.2408,2.0558-0.3855,3.1279-0.4332l0.1553,0.252c0,0-0.3848,2.0255-1.027,2.1965
			c-0.6422,0.1711-2.491-0.8942-2.491-0.8942L32.1222,10.7145z M31.1996,25.2071c0.8495-1.7554,2.1376-1.9344,2.1376-1.9344
			l4.4789-0.8997l2.5642,1.5015l3.4191,0.6506l0.9467,1.2964l1.5242,2.1514l2.1622,1.1265l2.1622-1.8445
			c0,0-0.2133,2.5866-1.0655,4.2011c-0.8522,1.6144-3.0635,2.8252-3.0635,2.8252s-0.2104,1.5186-0.9254,2.7927
			c-0.277,0.4938-1.0364,0.7572-1.3757,1.2433c-0.6123,0.8777-0.4385,2.4222-1.1375,2.7656
			c-1.249,0.6134-2.7017,0.8984-3.0427,0.5756c-0.4769-0.4519-1.5316-2.3818-1.5316-3.021V34.027
			c0-0.827-1.1045-2.7856-1.1045-2.7856s-2.6146-0.0244-3.6185-0.0244s-2.5302-1.4408-2.5302-1.4408
			S30.3502,26.9625,31.1996,25.2071z M28.8626,11.9134c-0.6497,1.664-1.5482,3.4292-2.5051,4.2732
			c-2.0743,1.8297-3.9873,2.2623-4.6004,2.3127C23.4194,15.664,25.8923,13.3613,28.8626,11.9134z"/>
		<path d="M48.0325,49.0161c-5.8757,1.7436-10.079,2.2023-15.284,1.1743c0.9639-5.6888-1.2009-12.4081-6.7769-15.9604
			c-8.0762-5.145-10.2506-8.6849-9.5708-21.12c0.023-0.421-0.457-0.6966-0.7945-0.4439
			C-0.4308,24.6732,2.8956,51.8614,20.8835,53.0905c-9.1653-9.403-10.3472-21.6456-9.8992-25.5436
			c0.0451-0.3923,0.2969-0.3594,0.2969-0.3594c2.3805,18.6443,17.1036,33.259,38.2807,26.9822
			c1.4231-0.4224,1.5747-1.7466,1.1523-3.1697C50.2919,49.5768,49.4556,48.5938,48.0325,49.0161z"/>
	</g>
</g>
</svg>
