<?xml version="1.0" encoding="utf-8"?>
<!-- Generator: Adobe Illustrator 19.1.0, SVG Export Plug-In . SVG Version: 6.00 Build 0)  -->
<svg version="1.2" baseProfile="tiny" xmlns="http://www.w3.org/2000/svg" xmlns:xlink="http://www.w3.org/1999/xlink" x="0px"
	 y="0px" width="64px" height="64px" viewBox="0 0 64 64" xml:space="preserve">
<g id="_x36_4px_Box">
	<rect fill="none" width="64" height="64"/>
</g>
<g id="Icon">
	<g>
		<path d="M36.1768,36.2632c2.0576-2.6157,4.0005-5.0854,5.1304-8.4751c0.8696-2.6006,2.6816-2.9883,3.6846-2.9883
			c1.0024,0,2.8145,0.3877,3.6831,2.9849c0.4459,1.3379,1.022,2.5291,1.6786,3.6451C51.3782,30.684,52,29.4871,52,28.197v-9.7529
			c0-1.5005-0.8397-2.8748-2.1749-3.5594l-14.0707-7.215c-1.2643-0.6484-2.7449-0.7281-4.0716-0.2194l-22.115,8.4803
			C8.0211,16.5239,7,18.009,7,19.6655v10.4098c0,1.3516,0.6826,2.6118,1.8146,3.3502l13.9801,9.1196
			c1.8257,1.1909,4.1537,1.298,6.081,0.2798l4.1538-2.1946C33.9595,39.0867,35.0764,37.662,36.1768,36.2632z M27.0099,30.0239
			c-0.3882,4.3372-0.8066,8.8146-0.8437,9.0129c-0.0684,0.3655-0.3182,0.3211-0.3819,0.301l-0.7709-9.5154
			c-0.096-1.1852-0.7134-2.2638-1.6893-2.9432c-4.4059-3.0677-9.7759-6.7419-9.944-6.8872
			c-0.2773-0.2397-0.1195-0.4351-0.0717-0.4807l10.3734,4.8639c1.4879,0.6976,3.1978,0.7499,4.7255,0.1443l13.1595-5.2159
			c0.0441,0.049,0.1866,0.2559-0.1082,0.4738c-0.2212,0.1635-8.1371,4.714-12.4375,7.1318
			C27.8776,27.552,27.127,28.7173,27.0099,30.0239z"/>
		<path d="M56.7721,45.936c-0.6196-3.1504-2.6001-5.6646-4.6973-8.3267c-2.083-2.644-4.2368-5.3784-5.4858-9.1255
			C46.4532,28.0781,46.0939,27,44.9918,27c-1.1025,0-1.4619,1.0781-1.5977,1.4839c-1.251,3.7534-3.4053,6.4917-5.4883,9.1396
			c-2.0903,2.6572-4.0649,5.1675-4.6938,8.3091c-0.624,3.1182,0.1401,6.1865,2.1519,8.6411
			c2.2363,2.728,5.7451,4.2925,9.6274,4.2925c3.874,0,7.3765-1.5566,9.6089-4.2705C56.6163,52.144,57.3878,49.0688,56.7721,45.936z
			 M45.8185,55.2502c-2.7635,0.1567-5.713-0.7835-7.5148-3.0077c-1.3284-1.6392-1.8325-3.6904-1.4199-5.7757
			c0.1943-0.9824,0.6019-1.934,1.1506-2.8916c0.14-0.2442,0.2979-0.2175,0.371-0.1157c-0.261,2.7808,0.5351,5.4685,2.3182,7.669
			c1.3878,1.7131,3.269,3.0018,5.4497,3.7879C46.2353,55.0647,46.2021,55.2284,45.8185,55.2502z"/>
	</g>
</g>
</svg>
