<svg height="64" viewBox="0 0 64 64" width="64" xmlns="http://www.w3.org/2000/svg"><path d="m0 0h64v64h-64z" fill="none"/><path d="m36.1768 36.2632c2.0576-2.6157 4.0005-5.0854 5.1304-8.4751.8696-2.6006 2.6816-2.9883 3.6846-2.9883 1.0024 0 2.8145.3877 3.6831 2.9849.4459 1.3379 1.022 2.5291 1.6786 3.6451 1.0247-.7458 1.6465-1.9427 1.6465-3.2328v-9.7529c0-1.5005-.8397-2.8748-2.1749-3.5594l-14.0707-7.215c-1.2643-.6484-2.7449-.7281-4.0716-.2194l-22.115 8.4803c-1.5467.5933-2.5678 2.0784-2.5678 3.7349v10.4098c0 1.3516.6826 2.6118 1.8146 3.3502l13.9801 9.1196c1.8257 1.1909 4.1537 1.298 6.081.2798l4.1538-2.1946c.93-1.5436 2.0469-2.9683 3.1473-4.3671zm-9.1669-6.2393c-.3882 4.3372-.8066 8.8146-.8437 9.0129-.0684.3655-.3182.3211-.3819.301l-.7709-9.5154c-.096-1.1852-.7134-2.2638-1.6893-2.9432-4.4059-3.0677-9.7759-6.7419-9.944-6.8872-.2773-.2397-.1195-.4351-.0717-.4807l10.3734 4.8639c1.4879.6976 3.1978.7499 4.7255.1443l13.1595-5.2159c.0441.049.1866.2559-.1082.4738-.2212.1635-8.1371 4.714-12.4375 7.1318-1.1435.6428-1.8941 1.8081-2.0112 3.1147z"/><path d="m56.7721 45.936c-.6196-3.1504-2.6001-5.6646-4.6973-8.3267-2.083-2.644-4.2368-5.3784-5.4858-9.1255-.1358-.4057-.4951-1.4838-1.5972-1.4838-1.1025 0-1.4619 1.0781-1.5977 1.4839-1.251 3.7534-3.4053 6.4917-5.4883 9.1396-2.0903 2.6572-4.0649 5.1675-4.6938 8.3091-.624 3.1182.1401 6.1865 2.1519 8.6411 2.2363 2.728 5.7451 4.2925 9.6274 4.2925 3.874 0 7.3765-1.5566 9.6089-4.2705 2.0161-2.4517 2.7876-5.5269 2.1719-8.6597zm-10.9536 9.3142c-2.7635.1567-5.713-.7835-7.5148-3.0077-1.3284-1.6392-1.8325-3.6904-1.4199-5.7757.1943-.9824.6019-1.934 1.1506-2.8916.14-.2442.2979-.2175.371-.1157-.261 2.7808.5351 5.4685 2.3182 7.669 1.3878 1.7131 3.269 3.0018 5.4497 3.7879.062.1483.0288.312-.3548.3338z"/></svg>