<svg enable-background="new 0 0 64 64" height="64" viewBox="0 0 64 64" width="64" xmlns="http://www.w3.org/2000/svg"><path d="m0 0h64v64h-64z" fill="none"/><path d="m56.6 54c-.9-.1-2.9-.3-4.9-.2-2.8.2-4 .4-5.5 1.2.4-2.3 0-5.4-2.4-9-.1-.2-.4-.2-.6 0-.7 1.1-2.5 4.4-2.1 6.9.3 1.6 1 3 2.1 4-1.3 1.2-2.2 1.8-4 2.9-1 .6-1.2 2-.3 2.8.6.6 1.6.7 2.2.2 1.5-1.3 2.7-2.4 4.3-4.4 2 .9 4.5.9 6.6.1 1.9-.8 3.9-2.6 4.8-3.8.1-.4 0-.7-.2-.7z"/><path d="m59.3 41.6c.6-1 .6-2.4.3-3.9 0-.2-.2-.3-.3-.3-1.5 0-3.8.4-4.5 1.7-.8 1.5 0 3.1-.5 5.2 2.3-1.6 4.1-1.1 5-2.7z"/><path d="m51.3 47.7s1.7-1.9 1.6-4.5c-.1-2.1-1.5-4.2-2.2-5-.1-.2-.4-.1-.5 0-.4.7-1 2.4-.8 4 .4 2.1 1.5 2.9 1.9 5.5z"/><path d="m61.4 44.7c-.9-.1-3.3-.3-5.6.7-2.2.9-3.7 2.8-3.7 2.8 1.7-.6 3.5-.7 5.2-.6 2.1.1 3.8-1.2 4.3-2.5.1-.2 0-.4-.2-.4z"/><path d="m47.7 52s2.3-2.6 1.9-4.8c-.3-2.1-1.3-3.1-2.1-5.4-.1-.3-.4-.3-.6-.1-.5.7-1.4 2.3-1.3 4.1.3 2.5 1.6 2.9 2.1 6.2z"/><path d="m60 49.4c-1-.3-3.4-.9-6-.2-3.3.9-5.7 3.5-5.7 3.5 3.2-.8 5.4-.3 7.9-.4 1.8-.1 3-1.2 4-2.4.1-.1 0-.4-.2-.5z"/><path d="m39.1 53.2c-.5-3 1.3-6.4 2.4-8.2.5-.7 1.3-1.2 2.3-1.1.1-.3.2-.6.2-.9-1.1-.6-2.1-1-2.7-1.1-1.3-.1-3.8.5-4.9.8-.1-1.1-.2-2.4-.3-2.8 2.1-2.4 3.4-4.9 3.8-7.4 1.3-1.2 2.1-3.2 2.1-5.6 0-.9 0-3.4-1.9-4.6-.1-3.3-.4-7.3-2.9-9.6-3.8-3.5-7.5-2.9-8.2-2.8-.1-.2.1-.3.5-.5 1.6-.5 3.4-.5 5-.2.4-.8.7-1.8.7-2.8 0-3.1-2.4-5.6-5.3-5.6-2.1 0-3.6 1.4-4.8 3.1-1.7 2.6-2.9.9-1.7-1 0 0-3.4.4-3.4 3.3 0 2.1 1.6 3.6 2.5 4.2-5 2.1-7.4 7.2-7.2 12.5-1.3 1.3-1.3 3.3-1.3 4.1 0 2.4.7 4.3 2.1 5.5.4 2.6 1.7 5.1 3.9 7.5-.1.8-.2 1.8-.3 2.8-1.4-.4-3.5-1-4.9-.9-1.7.1-5 1.4-5.1 2.3-.1.6 1.4 1.2 3.6 2.2-2.1.8-4 1.8-4.9 2.8-2 2-3.3 7.4-3.9 10.8h32.1c.3-.8.8-1.4 1.5-1.9 1-.6 1.6-1.1 2.3-1.6-.7-1-1.1-2.1-1.3-3.3zm-11.1 3.7c0 .2-.5 0-.9-.3-4.5-3.1-6-10.2-6-10.4 1.2-.8 1.3-1.5 1.3-1.8.2-1.8.5-4 .7-5.5-2.2-2.1-4.1-4.8-4.1-8.1-1.7-.5-2-2.5-2-3.8s.2-2 .7-2.2c.7-.3 1.2.2 1.3.3v-2.6c7-.6 11-4.8 11-4.8 1.6 2.8 4.9 4.1 7 4.7v2.7c.1 0 .6-.6 1.3-.3.5.2.7.9.7 2.2s-.3 3.3-1.9 3.8c0 3.8-2.7 6.9-5.3 9.2-.8.7-2.2 1-3.7 1-1.1 0-2.1-.2-2.9-.5.4.8 1.3 1.8 3.1 2.3 3.1.8 5-.6 5.1-.7.1.8.2 1.5.2 2.2 0 .3.1 1 1.4 1.9-1.5 1.2-4.1 2-7 2-1.6 0-3.1-.2-4.3-.7.5 3.4 2.3 6.9 4.3 9.4z"/></svg>