<?xml version="1.0" encoding="utf-8"?>
<!-- Generator: Adobe Illustrator 22.1.0, SVG Export Plug-In . SVG Version: 6.00 Build 0)  -->
<!DOCTYPE svg PUBLIC "-//W3C//DTD SVG 1.1//EN" "http://www.w3.org/Graphics/SVG/1.1/DTD/svg11.dtd">
<svg version="1.1" xmlns="http://www.w3.org/2000/svg" xmlns:xlink="http://www.w3.org/1999/xlink" x="0px" y="0px" width="64px"
	 height="64px" viewBox="0 0 64 64" style="enable-background:new 0 0 64 64;" xml:space="preserve">
<style type="text/css">
	.st0{fill:none;}
</style>
<g id="Box">
	<rect class="st0" width="64" height="64"/>
</g>
<g id="Icon">
	<g>
		<path d="M56.6,54c-0.9-0.1-2.9-0.3-4.9-0.2c-2.8,0.2-4,0.4-5.5,1.2c0.4-2.3,0-5.4-2.4-9c-0.1-0.2-0.4-0.2-0.6,0
			c-0.7,1.1-2.5,4.4-2.1,6.9c0.3,1.6,1,3,2.1,4c-1.3,1.2-2.2,1.8-4,2.9c-1,0.6-1.2,2-0.3,2.8c0.6,0.6,1.6,0.7,2.2,0.2
			c1.5-1.3,2.7-2.4,4.3-4.4c2,0.9,4.5,0.9,6.6,0.1c1.9-0.8,3.9-2.6,4.8-3.8C56.9,54.3,56.8,54,56.6,54z"/>
		<path d="M59.3,41.6c0.6-1,0.6-2.4,0.3-3.9c0-0.2-0.2-0.3-0.3-0.3c-1.5,0-3.8,0.4-4.5,1.7c-0.8,1.5,0,3.1-0.5,5.2
			C56.6,42.7,58.4,43.2,59.3,41.6z"/>
		<path d="M51.3,47.7c0,0,1.7-1.9,1.6-4.5c-0.1-2.1-1.5-4.2-2.2-5c-0.1-0.2-0.4-0.1-0.5,0c-0.4,0.7-1,2.4-0.8,4
			C49.8,44.3,50.9,45.1,51.3,47.7z"/>
		<path d="M61.4,44.7c-0.9-0.1-3.3-0.3-5.6,0.7c-2.2,0.9-3.7,2.8-3.7,2.8c1.7-0.6,3.5-0.7,5.2-0.6c2.1,0.1,3.8-1.2,4.3-2.5
			C61.7,44.9,61.6,44.7,61.4,44.7z"/>
		<path d="M47.7,52c0,0,2.3-2.6,1.9-4.8c-0.3-2.1-1.3-3.1-2.1-5.4c-0.1-0.3-0.4-0.3-0.6-0.1c-0.5,0.7-1.4,2.3-1.3,4.1
			C45.9,48.3,47.2,48.7,47.7,52z"/>
		<path d="M60,49.4c-1-0.3-3.4-0.9-6-0.2c-3.3,0.9-5.7,3.5-5.7,3.5c3.2-0.8,5.4-0.3,7.9-0.4c1.8-0.1,3-1.2,4-2.4
			C60.3,49.8,60.2,49.5,60,49.4z"/>
		<path d="M39.1,53.2c-0.5-3,1.3-6.4,2.4-8.2c0.5-0.7,1.3-1.2,2.3-1.1c0.1-0.3,0.2-0.6,0.2-0.9c-1.1-0.6-2.1-1-2.7-1.1
			c-1.3-0.1-3.8,0.5-4.9,0.8c-0.1-1.1-0.2-2.4-0.3-2.8c2.1-2.4,3.4-4.9,3.8-7.4c1.3-1.2,2.1-3.2,2.1-5.6c0-0.9,0-3.4-1.9-4.6
			C40,19,39.7,15,37.2,12.7c-3.8-3.5-7.5-2.9-8.2-2.8c-0.1-0.2,0.1-0.3,0.5-0.5c1.6-0.5,3.4-0.5,5-0.2c0.4-0.8,0.7-1.8,0.7-2.8
			c0-3.1-2.4-5.6-5.3-5.6c-2.1,0-3.6,1.4-4.8,3.1c-1.7,2.6-2.9,0.9-1.7-1c0,0-3.4,0.4-3.4,3.3c0,2.1,1.6,3.6,2.5,4.2
			c-5,2.1-7.4,7.2-7.2,12.5C14,24.2,14,26.2,14,27c0,2.4,0.7,4.3,2.1,5.5c0.4,2.6,1.7,5.1,3.9,7.5c-0.1,0.8-0.2,1.8-0.3,2.8
			c-1.4-0.4-3.5-1-4.9-0.9c-1.7,0.1-5,1.4-5.1,2.3c-0.1,0.6,1.4,1.2,3.6,2.2c-2.1,0.8-4,1.8-4.9,2.8C6.4,51.2,5.1,56.6,4.5,60h32.1
			c0.3-0.8,0.8-1.4,1.5-1.9c1-0.6,1.6-1.1,2.3-1.6C39.7,55.5,39.3,54.4,39.1,53.2z M28,56.9c0,0.2-0.5,0-0.9-0.3
			c-4.5-3.1-6-10.2-6-10.4c1.2-0.8,1.3-1.5,1.3-1.8c0.2-1.8,0.5-4,0.7-5.5c-2.2-2.1-4.1-4.8-4.1-8.1C17.3,30.3,17,28.3,17,27
			c0-1.3,0.2-2,0.7-2.2c0.7-0.3,1.2,0.2,1.3,0.3v-2.6C26,21.9,30,17.7,30,17.7c1.6,2.8,4.9,4.1,7,4.7v2.7c0.1,0,0.6-0.6,1.3-0.3
			C38.8,25,39,25.7,39,27c0,1.3-0.3,3.3-1.9,3.8c0,3.8-2.7,6.9-5.3,9.2c-0.8,0.7-2.2,1-3.7,1c-1.1,0-2.1-0.2-2.9-0.5
			c0.4,0.8,1.3,1.8,3.1,2.3c3.1,0.8,5-0.6,5.1-0.7c0.1,0.8,0.2,1.5,0.2,2.2c0,0.3,0.1,1,1.4,1.9c-1.5,1.2-4.1,2-7,2
			c-1.6,0-3.1-0.2-4.3-0.7C24.2,50.9,26,54.4,28,56.9z"/>
	</g>
</g>
</svg>
