<svg height="64" viewBox="0 0 64 64" width="64" xmlns="http://www.w3.org/2000/svg"><path d="m0 0h64v64h-64z" fill="none"/><path d="m9.1 10-2.5-.3c-.8-.1-1.2.5-1.2 1.3s.4 1.4 1.2 1.3l2.5-.3c.5-.1.7-.5.7-1 .1-.5-.2-1-.7-1zm7.2 1c0 .5.2.9.7 1l2.5.3c.8.1 1.2-.5 1.2-1.3s-.4-1.4-1.2-1.3l-2.5.3c-.5 0-.7.5-.7 1zm-1.6-2.8c.4.3.9.3 1.2-.2l1.5-2c.5-.6.2-1.3-.5-1.7s-1.4-.3-1.7.4l-1 2.3c-.2.5 0 .9.5 1.2zm33.7 19.4c-7.4-7.4-19.5-7.4-26.9 0-.1.1-.2.2-.3.3-.1 0-.2-.2 0-.4.3-.6.9-1.6 1.4-2.2 1.5-1.7 3.3-3.1 5.3-4.1-.7-.7-1.3-1.3-2-2-1-1-2.9-1.3-4.2-.4-1.4 1-2.7 2-3.9 3.2l-.8-.9c-1.9-1.9-3-4.5-3-7.3v-3c0-.6-.4-1-1-1s-1 .4-1 1v3c0 3.3 1.3 6.4 3.6 8.7l.8.8c-1.3 1.4-2.6 2.8-3.7 4.4-.8 1.2-.6 3.1.4 4.2 1.2 1.2 2.4 2.4 3.6 3.6-1.9 6.5-.4 13.8 4.8 18.9 7.4 7.4 19.5 7.4 26.9 0 7.5-7.4 7.5-19.4 0-26.8zm-36.5-20.6-1-2.3c-.3-.7-1-.8-1.7-.4s-.9 1-.5 1.7l1.5 2c.3.4.8.4 1.2.2.5-.3.7-.7.5-1.2z"/></svg>