<?xml version="1.0" encoding="utf-8"?>
<!-- Generator: Adobe Illustrator 19.1.0, SVG Export Plug-In . SVG Version: 6.00 Build 0)  -->
<svg version="1.2" baseProfile="tiny" xmlns="http://www.w3.org/2000/svg" xmlns:xlink="http://www.w3.org/1999/xlink" x="0px"
	 y="0px" width="64px" height="64px" viewBox="0 0 64 64" xml:space="preserve">
<g id="Box">
	<rect fill="none" width="64" height="64"/>
</g>
<g id="Icon">
	<g>
		<path d="M31.5,17C22.9396,17,16,23.9396,16,32.5c0,6.236,3.6909,11.5975,9,14.0571v8.5475c0,0.8794,0.5726,1.6557,1.4137,1.9127
			L28,57.5021V59c0,0.5522,0.4477,1,1,1h5c0.5522,0,1-0.4478,1-1v-1.4995l1.582-0.4832C37.423,56.7603,38,55.984,38,55.1046v-8.5475
			c5.3091-2.4597,9-7.8211,9-14.0571C47,23.9396,40.0604,17,31.5,17z M31.5,43.1978c-5.9082,0-10.6979-4.7896-10.6979-10.6978
			S25.5918,21.8021,31.5,21.8021S42.1979,26.5918,42.1979,32.5S37.4082,43.1978,31.5,43.1978z"/>
		<path d="M30.6759,12h1.6482c0.894,0,1.5895-0.7771,1.4908-1.6656L33.164,4.4759C33.0706,3.6357,32.3604,3,31.515,3h-0.03
			c-0.8454,0-1.5556,0.6357-1.649,1.4759l-0.6509,5.8585C29.0864,11.2229,29.7819,12,30.6759,12z"/>
		<path d="M14.1896,18.4634c0.5585,0.6981,1.5998,0.7558,2.232,0.1236l1.1654-1.1654c0.6322-0.6321,0.5746-1.6735-0.1236-2.232
			l-4.6028-3.6823c-0.6602-0.5281-1.6118-0.4754-2.2097,0.1224l-0.0211,0.0212c-0.5979,0.5978-0.6506,1.5495-0.1224,2.2097
			L14.1896,18.4634z"/>
		<path d="M48.8104,46.5366c-0.5585-0.6982-1.5998-0.7558-2.232-0.1236l-1.1653,1.1654c-0.6323,0.6321-0.5746,1.6735,0.1235,2.232
			l4.6028,3.6822c0.6602,0.5282,1.6118,0.4754,2.2097-0.1224l0.0211-0.0212c0.5979-0.5978,0.6506-1.5494,0.1224-2.2096
			L48.8104,46.5366z"/>
		<path d="M11,33.3241v-1.6482c0-0.894-0.7771-1.5896-1.6656-1.4908L3.4759,30.836C2.6357,30.9294,2,31.6396,2,32.485v0.03
			c0,0.8454,0.6357,1.5556,1.4759,1.649l5.8585,0.6509C10.2229,34.9136,11,34.2181,11,33.3241z"/>
		<path d="M59.524,30.836l-5.8585-0.6509C52.7771,30.0863,52,30.7819,52,31.6759v1.6482c0,0.894,0.7771,1.5895,1.6656,1.4908
			l5.8585-0.6509C60.3643,34.0706,61,33.3604,61,32.515v-0.03C61,31.6396,60.3643,30.9294,59.524,30.836z"/>
		<path d="M16.4216,46.413c-0.6322-0.6322-1.6735-0.5746-2.232,0.1236l-3.6822,4.6028c-0.5282,0.6602-0.4755,1.6118,0.1224,2.2096
			l0.0211,0.0212c0.5979,0.5978,1.5495,0.6506,2.2097,0.1224l4.6028-3.6822c0.6982-0.5585,0.7558-1.5999,0.1236-2.232
			L16.4216,46.413z"/>
		<path d="M46.5784,18.587c0.6322,0.6322,1.6735,0.5745,2.232-0.1236l3.6822-4.6028c0.5282-0.6602,0.4755-1.6119-0.1224-2.2097
			l-0.0211-0.0212c-0.5979-0.5978-1.5495-0.6505-2.2097-0.1224l-4.6028,3.6823c-0.6982,0.5585-0.7558,1.5999-0.1235,2.232
			L46.5784,18.587z"/>
		<path d="M31.5,24.0129c-4.6873,0-8.4871,3.7998-8.4871,8.4871s3.7998,8.487,8.4871,8.487s8.4871-3.7997,8.4871-8.487
			S36.1873,24.0129,31.5,24.0129z M32.4106,36.1622c1.06,0,1.6199-0.0593,2.6799-0.265v2.2675
			c-1.0899,0.2062-1.5611,0.265-2.8273,0.265c-3.711,0-6.3321-1.7963-6.3321-5.5366c0-4.2116,3.0037-6.3027,6.6559-6.3027
			c0.9424,0,1.5611,0.0882,2.5035,0.2357l-0.1763,2.3267c-1.061-0.1768-1.5023-0.2062-2.4159-0.2062
			c-2.1788,0-3.7986,1.2667-3.7986,3.7404C28.6996,35.131,30.437,36.1622,32.4106,36.1622z"/>
	</g>
</g>
</svg>
