<?xml version="1.0" encoding="utf-8"?>
<!-- Generator: Adobe Illustrator 24.0.1, SVG Export Plug-In . SVG Version: 6.00 Build 0)  -->
<svg version="1.1" xmlns="http://www.w3.org/2000/svg" xmlns:xlink="http://www.w3.org/1999/xlink" x="0px" y="0px"
	 viewBox="0 0 64 64" style="enable-background:new 0 0 64 64;" xml:space="preserve">
<style type="text/css">
	.st0{fill:none;}
	.st1{fill:#FF1D25;}
	.st2{fill:#1D1D1B;}
</style>
<g id="Box">
	<rect class="st0" width="64" height="64"/>
</g>
<g id="Icon">
	<g>
		<path d="M15.1,25.5l-2.3-3.3c-2.6,1.9-4.3,4.9-4.3,8.3s1.7,6.4,4.3,8.3l2.3-3.3c-1.5-1.1-2.6-3-2.6-5S13.5,26.6,15.1,25.5z"/>
		<path d="M4.5,30.5c0-4.8,2.4-9,5.9-11.6l-2.3-3.3C3.5,19,0.5,24.4,0.5,30.5s3,11.5,7.6,14.8l2.3-3.3C6.9,39.5,4.5,35.3,4.5,30.5z"
			/>
		<path d="M51.2,22.2l-2.3,3.3c1.5,1.1,2.6,3,2.6,5s-1,3.9-2.6,5l2.3,3.3c2.6-1.9,4.3-4.9,4.3-8.3S53.8,24.1,51.2,22.2z"/>
		<path d="M55.9,15.7l-2.3,3.3c3.6,2.6,5.9,6.8,5.9,11.6s-2.4,9-5.9,11.6l2.3,3.3c4.6-3.3,7.6-8.7,7.6-14.8S60.5,19,55.9,15.7z"/>
		<path d="M40,11.3c-4,1.6-6.8,6.4-7.5,11.2c-0.7,5.1,1.1,8.2,1.1,8.2S29.5,31,29.1,25c-0.5-6.8-5.3-8.1-5.3-8.1c0,0,0.7,6-0.9,9.6
			c-1.4,3.3-2.2,3.9-4.3,9.1c-2,5-1.7,11.6,2,15.3c1.8,1.8,4.1,3,6.5,3.6c-1.1-1.2-2.3-2.6-2.3-5.3c-0.1-2.9,1.5-5.5,3.9-8.1
			c-0.5,3.6-0.1,7.6,3.1,7.3c3.2-0.3,5.3-7.2,5.1-11.2C38.6,41.2,40,45.6,38,50c-1,2.1-1.6,3.2-2.8,4.4c2.8-0.8,5.6-2.3,8-4.5
			c3.6-3.4,5.1-8.5,2.5-14.8C40.3,22.5,39,17.1,40,11.3z"/>
	</g>
</g>
</svg>
