<?xml version="1.0" encoding="utf-8"?>
<!-- Generator: Adobe Illustrator 17.1.0, SVG Export Plug-In . SVG Version: 6.00 Build 0)  -->
<svg version="1.2" baseProfile="tiny" xmlns="http://www.w3.org/2000/svg" xmlns:xlink="http://www.w3.org/1999/xlink" x="0px"
	 y="0px" width="64px" height="64px" viewBox="0 0 64 64" xml:space="preserve">
<g id="_x36_4px_Boxes">
	<rect fill="none" width="64" height="64"/>
</g>
<g id="Production">
	<rect fill="none" width="64" height="64"/>
	<path d="M57.5194,20.1791c-0.8384-0.8211-1.2861-1.9758-2.0525-3.6656c-1.1254-2.4811-3.8016-4.8228-6.2197-5.2808
		c-2.5585-0.4846-3.6379-1.0694-5.5155-1.4215c-1.8777-0.352-4.7009-2.3738-7.8625-2.5817
		c-4.233-0.2784-5.9663,0.8979-8.4495,1.6429C24.9039,9.6272,22.5,8.5833,19.2171,9.809c-2.9602,1.1052-4.1074,3.0474-5.9761,5.2719
		c-1.824,2.1712-2.1806,1.8579-4.3329,3.0493c-2.3416,1.2963-5.3104,4.8505-4.8505,9.7428c0.1909,2.0302-1.2889,4.814-0.8112,7.5096
		c0.534,3.0132,4.267,5.9253,7.063,6.3805c2.9343,0.4777,7.018-0.4883,7.018-0.4883c0.9129,3.0936,3.5136,4.2567,6.1725,4.5821
		c2.1901-0.0012,4.3771-0.157,7.5005-1.5745c3.5912-1.6069,3.8168-2.5781,7.0603-3.2086c2.0674-0.3832,4.6373-0.5351,6.5333-1.1962
		c1.6832-0.5699,2.6263-1.2426,3.6265-2.2841c0.0795-0.0189,0.1939-0.0067,0.2142,0.2446c0.0421,0.5205-0.5684,3.5886-4.5598,4.8494
		c-2.9756,0.8869-5.5328,0.9025-7.137,1.8635c-1.1231,0.6586-2.2916,1.3883-3.4863,2.0256C39.835,50.4654,41.502,57,41.502,57h6.689
		c-0.5867-2.9338-1.7602-6.1023-1.7602-6.1023s3.9899-1.0562,7.1584-4.8114c3.1685-3.7553,3.2859-9.5056,3.2859-9.5056
		s3.9976-2.6674,4.1149-7.2441C61.1074,24.7598,60.2045,22.8088,57.5194,20.1791z M17.0886,16.6871
		c3.282-3.0035,9.2044-4.3829,11.7808-0.8204c1.7938,2.4804,1.0364,5.7961,0.0364,6.6999c-0.2312,0.209-0.431,0.0968-0.444,0.0891
		c-0.0474-1.1107-0.1166-2.4136-0.5996-3.6839c-1.4589-3.9419-6.6547-2.232-9.1392-0.1802
		c-1.8373,1.4911-3.5845,3.9463-4.4254,5.8201l-0.0425,0.0947c-0.0923,0.0288-0.2147,0.0129-0.336-0.1652
		C12.5551,22.5372,15.304,18.3203,17.0886,16.6871z M15.9314,33.8362c-4.0255,2.3215-8.1158-0.0449-7.481-3.0919
		c0.0768-0.3688,0.2548-0.3586,0.3017-0.3497c0.8199,1.4583,4.0927,2.6279,8.137-0.8698c1.2335-1.0752,2.5649-2.722,3.5935-3.93
		c0.0588-0.022,0.231-0.0634,0.2959,0.1964C21.2231,27.5698,19.4037,31.8762,15.9314,33.8362z M26.1527,34.4987
		c-0.579,1.1796-0.361,3.2498-0.0839,4.6858c-0.4226,0.9095-3.9969-2.0815-3.1709-5.3857c0.6163-2.4652,2.7656-3.855,4.6537-4.7545
		c3.1004-1.4769,5.6525-1.749,8.0824-4.7308l-0.0004,0.0076c0,0,0.3385-0.1359,0.4319,0.2864
		c0.4004,1.8093-1.7595,4.0319-3.5966,5.1652C30.1801,31.1847,26.974,32.8256,26.1527,34.4987z M55.0207,29.2357
		c-0.1028,0.4044-0.3828,0.6461-0.3957,0.6393c-0.9771-2.5648-3.5148-4.15-7.205-3.6342c-0.5922,2.1313-1.7341,3.6614-3.1085,5.079
		c-2.8292,2.8713-6.2647,4.5422-10.1594,5.6487C33.5,36.625,34.5417,35.25,36.1035,34.3642
		c2.2505-1.2764,4.4788-3.1183,6.209-5.0517C44.8289,26.581,45.9947,23.038,44.5,20c-1.418-2.8467-4.874-4.0753-8.0062-4.5306
		c-0.0427-0.0921-0.0879-0.2864,0.1817-0.4547c2.4626-1.5378,8.1375-0.0649,10.2524,3.7513
		c0.6855,1.1966,1.0914,2.7537,1.0055,4.5157c1.7326-0.1616,3.9921,0.4183,5.6837,1.8181
		C55.243,26.6678,55.1562,28.7022,55.0207,29.2357z"/>
</g>
</svg>
