<?xml version="1.0" encoding="utf-8"?>
<!-- Generator: Adobe Illustrator 19.1.0, SVG Export Plug-In . SVG Version: 6.00 Build 0)  -->
<svg version="1.2" baseProfile="tiny" xmlns="http://www.w3.org/2000/svg" xmlns:xlink="http://www.w3.org/1999/xlink" x="0px"
	 y="0px" width="64px" height="64px" viewBox="0 0 64 64" xml:space="preserve">
<g id="Box">
	<rect fill="none" width="64" height="64"/>
</g>
<g id="Icon">
	<g>
		<path d="M41.3546,28.4412c0,0-1.4282-4.5946-3.2341-8.3724c-0.5624-1.1767-1.4704-1.2894-2.5804-0.7841
			c-1.0701,0.4871-1.9647,1.4594-1.3267,2.4225c2.2411,3.3834,3.2101,4.8429,4.6881,8.688c0.3001,0.7808,1.2771,1.0692,2.031,0.7069
			c2.4957-1.1993,7.542-4.3682,8.1484-10.5865c0.0318-0.3258-0.2541-0.5973-0.5786-0.5542
			c-1.3862,0.184-4.7917,0.8253-7.2125,2.8593c0.4293,2.4173,0.3723,4.8118,0.3329,5.255
			C41.5925,28.4163,41.4161,28.4424,41.3546,28.4412z"/>
		<path d="M50.7994,31.2459c-5.3571-1.9625-6.4028,1.7739-9.7994,1.8852c-3.3966-0.1113-4.4423-3.8477-9.7994-1.8852
			c-3.2836,1.2029-5.1599,6.0041-5.1599,11.7544c0,2.1102,0.3293,4.3082,1.0052,6.4254c2.3527,7.3701,4.8817,8.2803,7.7494,8.5477
			c3.0103,0.2808,4.2509-1.7529,6.2047-2.005c1.9538,0.2521,3.1944,2.3123,6.2047,2.0316c2.8677-0.2675,5.3967-1.2042,7.7494-8.5743
			C57.4192,41.7032,55.3233,32.9033,50.7994,31.2459z"/>
		<path d="M58.077,17.94C54.4133,9.8375,44.7355,5.3215,33.7747,6.5159c2.2584,1.4666,3.3541,2.8032,3.757,3.2991
			c0.4561,0.5613,0.5751,0.9246,0.3741,1.185c-0.8389-0.3329-4.0061-2.8179-9.5388-3.4384
			c-2.419,0.6743-4.0007,1.3405-5.7656,2.1819c4.4846,2.027,6.3716,4.3278,6.9302,5.0155c0.4561,0.5613,0.5751,0.9245,0.3741,1.1849
			c-0.9539-0.3785-4.9187-3.5374-11.9496-3.5744c-1.5904,1.0687-3.0695,2.241-4.4196,3.4971
			c5.1698,2.115,7.2723,4.6885,7.8687,5.4226c0.456,0.5613,0.5751,0.9246,0.3741,1.185c-0.9169-0.3639-4.6122-3.2992-11.1405-3.5599
			c-6.002,7.1484-8.2963,16.337-5.1605,23.272c2.793,6.1769,9.3675,3.9153,18.3438-0.3118
			c0.2061-6.0193,2.6721-11.2474,6.6216-12.6944c1.7706-0.6486,3.5316-0.9244,5.3593-0.4943
			c-0.899-1.9455-1.7862-3.2916-3.4238-5.7638c-1.2583-1.8998-0.4482-4.412,2.2494-5.6398
			c2.4327-1.1073,4.4976-0.2108,5.4767,1.8376c0.2141,0.4477,0.4224,0.9049,0.6238,1.3639c2.624-1.8216,5.7496-2.4731,7.4837-2.7034
			c1.7358-0.2297,3.2263,1.222,3.0577,2.9487c-0.3192,3.2729-1.6783,5.8176-3.3191,7.7485c0.0042,0,0.0079-0.0006,0.012-0.0006
			c1.2109,0,2.6273,0.2755,4.0233,0.9042C57.6128,26.5549,60.5634,23.4388,58.077,17.94z"/>
	</g>
</g>
</svg>
