<?xml version="1.0" encoding="utf-8"?>
<!-- Generator: Adobe Illustrator 25.2.0, SVG Export Plug-In . SVG Version: 6.00 Build 0)  -->
<svg version="1.1" xmlns="http://www.w3.org/2000/svg" xmlns:xlink="http://www.w3.org/1999/xlink" x="0px" y="0px"
	 viewBox="0 0 64 64" style="enable-background:new 0 0 64 64;" xml:space="preserve">
<style type="text/css">
	.st0{fill:none;}
	.st1{fill:#B3B3B3;}
</style>
<g id="Box">
	<rect class="st0" width="64" height="64"/>
</g>
<g id="Icon">
	<path d="M12,50c-2.209,0-4,1.791-4,4c0,2.209,1.791,4,4,4c2.209,0,4-1.791,4-4C16,51.791,14.209,50,12,50z M14.409,43.536
		c-0.538-0.917-0.549-2.019-0.03-2.946l1.545-2.761l30.653-2.694c3.636-0.319,6.498-3.191,6.804-6.828l1.613-19.139
		c0.046-0.549-0.136-1.093-0.504-1.503S53.6,7.014,53.049,7L13.321,6.032C12.88,3.456,10.809,1.46,8.193,1.134L3.248,0.516
		c-1.097-0.142-2.096,0.64-2.233,1.736C0.878,3.348,1.656,4.348,2.752,4.484l4.945,0.618C8.586,5.214,9.283,5.912,9.392,6.8
		l3.49,28.272l-1.994,3.564c-1.22,2.18-1.193,4.768,0.07,6.922C12.222,47.713,14.467,49,16.965,49h18.051
		c0.019-1.286,0.059-2.653,0.133-4H16.965C15.902,45,14.946,44.453,14.409,43.536z M21,33.368l-4.252,0.374L15.422,23H21V33.368z
		 M45,10.806l5.829,0.142L50.15,19H45V10.806z M45,23h4.813l-0.419,4.971c-0.143,1.694-1.475,3.031-3.168,3.18L45,31.259V23z
		 M35,10.562l6,0.146V19h-6V10.562z M35,23h6v8.61l-6,0.527V23z M25,10.318l6,0.146V19h-6V10.318z M25,23h6v9.489l-6,0.527V23z
		 M21,10.22V19h-6.071l-1.105-8.955L21,10.22z M63.435,40.826c-0.195-1.173-1.087-2.065-2.261-2.261C57.783,38,52.13,38,51,38
		c-1.13,0-6.783,0-10.174,0.565c-1.173,0.196-2.065,1.088-2.26,2.261C38,44.217,38,49.87,38,51c0,1.13,0,6.783,0.565,10.174
		c0.195,1.173,1.087,2.065,2.26,2.261C44.217,64,49.87,64,51,64s6.783,0,10.174-0.565c1.174-0.196,2.066-1.088,2.261-2.261
		C64,57.783,64,52.13,64,51C64,47.607,64,44.217,63.435,40.826z M42.859,48.275c0-2.896,1.844-3.924,3.423-3.924
		c2.09,0,3.289,1.374,3.289,3.77c0,2.617-1.785,3.809-3.443,3.809C44.637,51.93,42.859,51.296,42.859,48.275z M49.293,58.002
		l-1.839-0.727l5.232-13.277l1.839,0.727L49.293,58.002z M55.698,57.553c-1.491,0-3.269-0.634-3.269-3.655
		c0-2.896,1.844-3.924,3.423-3.924c2.09,0,3.289,1.374,3.289,3.77C59.141,56.375,57.412,57.553,55.698,57.553z M55.794,51.93
		c-0.847,0-1.025,0.976-1.025,1.795c0,1.633,0.508,1.853,1.005,1.853c0.706,0,1.063-0.552,1.063-1.641
		C56.838,52.138,56.242,51.93,55.794,51.93z M46.225,46.307c-0.863,0-1.044,0.976-1.044,1.795c0,1.632,0.518,1.853,1.024,1.853
		c0.863,0,1.044-0.892,1.044-1.641C47.25,46.515,46.665,46.307,46.225,46.307z"/>
</g>
</svg>
