<?xml version="1.0" encoding="utf-8"?>
<!-- Generator: Adobe Illustrator 21.0.2, SVG Export Plug-In . SVG Version: 6.00 Build 0)  -->
<!DOCTYPE svg PUBLIC "-//W3C//DTD SVG 1.1//EN" "http://www.w3.org/Graphics/SVG/1.1/DTD/svg11.dtd">
<svg version="1.1" xmlns="http://www.w3.org/2000/svg" xmlns:xlink="http://www.w3.org/1999/xlink" x="0px" y="0px" width="64px"
	 height="64px" viewBox="0 0 64 64" style="enable-background:new 0 0 64 64;" xml:space="preserve">
<style type="text/css">
	.st0{fill:none;}
	.st1{fill:#FFFFFF;}
</style>
<g id="_x36_4px_Box">
	<rect class="st0" width="64" height="64"/>
</g>
<g id="Icon">
	<g>
		<path class="st1" d="M62.4,57.3L54.2,50c2.7-4.3,2.3-10-1.5-13.7c-4.3-4.3-11.3-4.3-15.6,0c-4.3,4.3-4.3,11.3,0,15.6
			C41,55.5,46.7,56,51,53.2l7.4,8.2c1,1.1,2.7,0.9,3.8-0.2C63.4,60,63.6,58.4,62.4,57.3z M50,49c-2.8,2.8-7.3,2.8-10,0
			c-2.8-2.8-2.8-7.3,0-10c2.8-2.8,7.3-2.8,10,0C52.8,41.8,52.8,46.2,50,49z"/>
		<g>
			<path d="M19.2,26c2.3,0,11.9,0,13.5,0c3.2,0,5.8-2.6,5.8-5.8v-5.5c0-7.1-3.3-13.5-12.5-13.5c-9.2,0-12.5,6.4-12.5,13.5v5.5
				C13.4,23.4,16,26,19.2,26z"/>
			<path d="M33.9,36.9c0.5-0.8,1.1-1.5,1.8-2.2c2-2,4.5-3.2,7-3.7c0.4-2.1,0.6-4.7,0.6-7.9h2.9c1.1,0,1.9-0.9,1.9-1.9v-1.6
				c0-4.3-7.4-4.4-7.4,0.7c0,2.7,0,5.1-0.2,7.1c0,0.5-0.4,0.8-0.8,0.9c-2,0.2-7.5,0.8-13.7,0.8s-11.7-0.6-13.7-0.8
				c-0.5-0.1-0.8-0.4-0.8-0.9c-0.2-2-0.2-4.4-0.2-7.1c0-5.1-7.4-5-7.4-0.7v1.6c0,1.1,0.9,1.9,1.9,1.9h2.9c0.1,4.4,0.4,7.8,1.2,10.1
				l0,0c0.3,0.7,0.9,1.4,1.6,1.7c2.3,1.1,6.8,2.7,14.5,2.7c0.3,0,0.6,0,0.9,0c0,0.1,0,0.2-0.3,0.3c-0.4,0.2-1.8,0.7-3.6,1.1v5.8
				l-11.9,2.1c-0.9,0.2-1.6,1-1.6,1.9v0.6c-1.1,0.5-1.9,1.7-1.9,3c0,1.9,1.5,3.4,3.4,3.4s3.4-1.5,3.4-3.4c0-1.2-0.6-2.2-1.5-2.8
				l10.7-1.3l0.2,1.5c-0.8,0.6-1.3,1.6-1.3,2.6c0,1.9,1.5,3.4,3.4,3.4s3.4-1.5,3.4-3.4c0-1.1-0.5-2-1.3-2.6l0.2-1.5l4.4,0.5
				c-0.5-1.2-0.8-2.4-0.9-3.6l-3-0.5v-7.3C30.8,37.4,32.4,37.2,33.9,36.9z"/>
			<path d="M62.4,57.3L54.2,50c2.7-4.3,2.3-10-1.5-13.7c-4.3-4.3-11.3-4.3-15.6,0c-4.3,4.3-4.3,11.3,0,15.6C41,55.5,46.7,56,51,53.2
				l7.4,8.2c1,1.1,2.7,0.9,3.8-0.2C63.4,60,63.6,58.4,62.4,57.3z M50,49c-2.8,2.8-7.3,2.8-10,0c-2.8-2.8-2.8-7.3,0-10
				c2.8-2.8,7.3-2.8,10,0C52.8,41.8,52.8,46.2,50,49z"/>
		</g>
	</g>
</g>
</svg>
