<?xml version="1.0" encoding="utf-8"?>
<!-- Generator: Adobe Illustrator 17.1.0, SVG Export Plug-In . SVG Version: 6.00 Build 0)  -->
<svg version="1.2" baseProfile="tiny" xmlns="http://www.w3.org/2000/svg" xmlns:xlink="http://www.w3.org/1999/xlink" x="0px"
	 y="0px" width="64px" height="64px" viewBox="0 0 64 64" xml:space="preserve">
<g id="Box">
	<rect fill="none" width="64" height="64"/>
</g>
<g id="Icon">
	<g>
		<path d="M26,29c2.381,0,12.2857,0,14,0c3.3137,0,6-2.6863,6-6v-5.9999C46,9.5948,42.564,3,33,3S20,9.5948,20,17.0001V23
			C20,26.3137,22.6863,29,26,29z"/>
		<path d="M48.2819,23.02c0,2.8356-0.051,5.2928-0.2122,7.3721c-0.0367,0.4727-0.4033,0.8475-0.874,0.9036
			C45.137,31.5411,39.3872,32.15,33,32.15s-12.137-0.6089-14.1957-0.8544c-0.4707-0.0561-0.8373-0.4309-0.874-0.9036
			c-0.1613-2.0792-0.2122-4.5365-0.2122-7.3721c0-5.2811-7.7181-5.1844-7.7181-0.7031V24c0,1.1046,0.8954,2,2,2h3.0258
			c0.0762,4.5934,0.3694,8.0324,1.2462,10.4238l0.0222-0.0081c0.3286,0.7722,0.9178,1.4213,1.697,1.805
			C20.3802,39.3972,25.0873,41,33,41c0.3338,0,0.6538-0.0068,0.9763-0.0124c-0.0054,0.0573-0.0468,0.1895-0.2963,0.3126
			C33.2728,41.5012,31.8632,42.002,30,42.4745v6.0549l-12.3476,2.179C16.6967,50.877,16,51.7075,16,52.6779v0.6718
			c-1.1792,0.563-2,1.7565-2,3.1503c0,1.933,1.567,3.5,3.5,3.5s3.5-1.567,3.5-3.5c0-1.2109-0.6154-2.2775-1.5499-2.9059
			l11.098-1.3057l0.2516,1.5101C30.0129,54.4404,29.5,55.4054,29.5,56.5c0,1.933,1.567,3.5,3.5,3.5s3.5-1.567,3.5-3.5
			c0-1.0946-0.5129-2.0596-1.2997-2.7014l0.2516-1.5101l11.098,1.3057C45.6154,54.2225,45,55.2891,45,56.5
			c0,1.933,1.567,3.5,3.5,3.5s3.5-1.567,3.5-3.5c0-1.3938-0.8208-2.5873-2-3.1503v-0.6718c0-0.9705-0.6967-1.8009-1.6524-1.9695
			L36,48.5294v-7.6124c6.1257-0.3398,9.9392-1.6772,12.0089-2.6964c0.7792-0.3837,1.3683-1.0328,1.697-1.805l0.0222,0.0081
			c0.8768-2.3914,1.17-5.8304,1.2462-10.4238H54c1.1046,0,2-0.8954,2-2v-1.6832C56,17.8206,48.2819,17.7571,48.2819,23.02z"/>
	</g>
</g>
</svg>
