<?xml version="1.0" encoding="utf-8"?>
<!-- Generator: Adobe Illustrator 22.1.0, SVG Export Plug-In . SVG Version: 6.00 Build 0)  -->
<!DOCTYPE svg PUBLIC "-//W3C//DTD SVG 1.1//EN" "http://www.w3.org/Graphics/SVG/1.1/DTD/svg11.dtd">
<svg version="1.1" xmlns="http://www.w3.org/2000/svg" xmlns:xlink="http://www.w3.org/1999/xlink" x="0px" y="0px" width="64px"
	 height="64px" viewBox="0 0 64 64" style="enable-background:new 0 0 64 64;" xml:space="preserve">
<style type="text/css">
	.st0{fill:none;}
</style>
<g id="box">
	<rect x="0" class="st0" width="64" height="64"/>
</g>
<g id="icon">
	<g>
		<path d="M30.6,15.9c0-0.4-0.1-0.7-1-0.7h-0.4v1.6h0.5C30.2,16.7,30.6,16.4,30.6,15.9z"/>
		<path d="M40.5,18.8c0.6,0,1.2-0.5,1.2-1.8c0-1.2-0.4-1.9-1.2-1.9c-0.6,0-1.2,0.5-1.2,1.8C39.3,18.2,39.7,18.8,40.5,18.8z"/>
		<path d="M36.1,18.2c0-0.3-0.1-0.7-1.2-0.7h-0.3v1.4h0.5C35.7,18.9,36.1,18.7,36.1,18.2z"/>
		<polygon points="24.5,15.5 23.9,17.6 25.1,17.6 		"/>
		<path d="M35.8,15.7c0-0.4-0.2-0.6-0.9-0.6h-0.4v1.3h0.3C35.7,16.4,35.8,16.1,35.8,15.7z"/>
		<path d="M26,29c2.4,0,12.3,0,14,0c3.3,0,6-2.7,6-6v-6c0-7.4-3.4-14-13-14S20,9.6,20,17v6C20,26.3,22.7,29,26,29z M40.6,13.9
			c1.6,0,2.5,1.2,2.5,3.1c0,2.2-1.3,3.2-2.7,3.2c-1.6,0-2.5-1.2-2.5-3.1C37.9,14.9,39.2,13.9,40.6,13.9z M33.2,14h1.8
			c2,0,2.3,1,2.3,1.5c0,0.6-0.2,1.1-0.6,1.3c0.6,0.2,0.9,0.7,0.9,1.3c0,1.2-0.8,1.9-2.4,1.9h-1.9V14z M27.9,14h1.8
			c1.4,0,2.2,0.7,2.2,1.8c0,0.8-0.3,1.4-1,1.7l1.5,2.6H31l-1.3-2.2h-0.5v2.2h-1.3V14z M23.7,14h1.8l1.8,6.1h-1.5l-0.4-1.3h-1.8
			l-0.4,1.3h-1.4L23.7,14z"/>
		<path d="M48.3,23c0,2.8-0.1,5.3-0.2,7.4c0,0.5-0.4,0.8-0.9,0.9c-2.1,0.2-7.8,0.9-14.2,0.9s-12.1-0.6-14.2-0.9
			c-0.5-0.1-0.8-0.4-0.9-0.9c-0.2-2.1-0.2-4.5-0.2-7.4c0-5.3-7.7-5.2-7.7-0.7V24c0,1.1,0.9,2,2,2h3c0.1,4.6,0.4,8,1.2,10.4l0,0
			c0.3,0.8,0.9,1.4,1.7,1.8c2.4,1.2,7.1,2.8,15,2.8c0.3,0,0.7,0,1,0c0,0.1,0,0.2-0.3,0.3c-0.4,0.2-1.8,0.7-3.7,1.2v6.1l-12.3,2.2
			c-1,0.2-1.7,1-1.7,2v0.7c-1.2,0.6-2,1.8-2,3.2c0,1.9,1.6,3.5,3.5,3.5s3.5-1.6,3.5-3.5c0-1.2-0.6-2.3-1.5-2.9l11.1-1.3l0.3,1.5
			c-0.8,0.6-1.3,1.6-1.3,2.7c0,1.9,1.6,3.5,3.5,3.5s3.5-1.6,3.5-3.5c0-1.1-0.5-2.1-1.3-2.7l0.3-1.5l11.1,1.3
			c-0.9,0.6-1.5,1.7-1.5,2.9c0,1.9,1.6,3.5,3.5,3.5s3.5-1.6,3.5-3.5c0-1.4-0.8-2.6-2-3.2v-0.7c0-1-0.7-1.8-1.7-2L36,48.5v-7.6
			c6.1-0.3,9.9-1.7,12-2.7c0.8-0.4,1.4-1,1.7-1.8l0,0C50.6,34,50.9,30.6,51,26h3c1.1,0,2-0.9,2-2v-1.7C56,17.8,48.3,17.8,48.3,23z"
			/>
	</g>
</g>
</svg>
