<?xml version="1.0" encoding="utf-8"?>
<!-- Generator: Adobe Illustrator 19.1.0, SVG Export Plug-In . SVG Version: 6.00 Build 0)  -->
<svg version="1.2" baseProfile="tiny" xmlns="http://www.w3.org/2000/svg" xmlns:xlink="http://www.w3.org/1999/xlink" x="0px"
	 y="0px" width="64px" height="64px" viewBox="0 0 64 64" xml:space="preserve">
<g id="_x36_4px_Box">
	<rect fill="none" width="64" height="64"/>
</g>
<g id="Icon">
	<g>
		<path d="M8.6055,42.0342c1.6012-1.897,5.4497-3.1757,9.3824-4.192c-1.1829-0.5356-2.6068-0.9662-3.4415-1.1899
			c-0.2935-0.0858-0.4926-0.3406-0.5735-0.6301c-0.1051-0.3757-0.1365-0.8488-0.1365-0.8488
			c0.781-0.9017,1.3603-1.9852,1.5603-3.4044c0.7861-0.2427,0.9434-1.2256,0.9434-1.8386c0-0.6128-0.1077-0.9443-0.3275-1.0469
			c-0.1921-0.0895-0.3707-0.0224-0.4873,0.0436c0.1219-1.252,0.2976-3.8616-0.2307-4.8296
			c-0.5673-1.0389-1.2564-1.4538-2.5706-1.1142c-0.8618-0.4691-1.4487-1.0612-2.9588-0.6389
			c-1.0493,0.2933-2.1978,0.826-2.8029,1.6252c-0.679,0.897-0.516,3.7424-0.4039,5.0156c-0.0746-0.0586-0.3187-0.225-0.5828-0.1018
			c-0.2198,0.1027-0.3275,0.4341-0.3275,1.0469c0,0.6129,0.1573,1.5959,0.9435,1.8386c0.1761,1.4678,0.7459,2.5063,1.5109,3.3729
			c0,0-0.0189,0.4437-0.1028,0.8654c-0.0606,0.3043-0.2539,0.5657-0.5554,0.6492c-1.2357,0.3421-4.154,1.2314-5.1165,2.2357
			C1.0995,40.1735,1,45,1,45h6.1372C7.5661,43.6899,8.0455,42.6982,8.6055,42.0342z"/>
		<path d="M50.3865,34.9998c-0.0911,0.8093-0.114,0.8647-0.202,1.3774c-0.0482,0.2817-0.2211,0.5273-0.4938,0.6275
			c-0.626,0.23-1.7346,0.6545-2.8064,1.148c3.2151,0.8965,6.9645,2.179,8.4569,3.821c0.6226,0.6855,1.1345,1.6718,1.5728,2.9088H63
			c0,0-0.0595-3.9271-1.2819-5.1891c-0.4171-0.4308-1.248-0.9001-2.1619-1.3327c-1.1969-0.5806-2.5345-1.0942-3.2469-1.356
			c-0.2727-0.1002-0.4456-0.3458-0.4938-0.6275c-0.0598-0.3495-0.1268-0.8678-0.1794-1.3043
			c1.805-0.072,3.2979-0.2465,3.9185-0.4784c0.1227-0.0458,0.1846-0.1561,0.13-0.2731c-0.3397-0.7266-1.2224-3.1164-1.3333-4.3644
			c-0.2725-3.0632-0.2613-8.5451-4.5411-7.1698c0,0-2.7179-1.7026-4.9254,1.146c-1.553,2.0042-1.1746,4.6467-1.2368,6.1204
			c-0.0442,1.0482-0.9188,3.4682-1.2869,4.0952c-0.0784,0.1335-0.0516,0.2685,0.096,0.321
			C47.1232,34.7068,48.6233,34.8906,50.3865,34.9998z"/>
		<path d="M20.0638,28.4937c0.5174,3.4032,2.5819,6.6062,6.2687,9.7436C28.0835,39.7279,30.6348,40,31.9998,40
			c1.3649,0,3.9162-0.2721,5.6677-1.7627c3.6281-3.0875,5.7279-6.3556,6.2622-9.7377c1.3281-1.2195,2.068-3.1657,2.068-5.5558
			c0-0.7445-0.0015-2.7017-1.227-4.0358c0.3038-3.3378,0.5151-8.504-0.7868-10.5876c-1.6026-2.5649-3.5498-3.816-7.2632-2.9775
			c-2.4355-1.1577-4.0937-1.8824-8.3608-0.8399c-2.9649,0.7242-6.21,1.9068-7.92,3.8799c-1.6521,1.9068-1.5394,7.2245-1.274,10.6062
			c-1.156,1.332-1.1636,3.2249-1.1636,3.9548C18.0023,25.3299,18.7398,27.2737,20.0638,28.4937z M21.6738,20.7696
			c0.1364-0.0642,0.2715-0.0894,0.4-0.0894c0.2398,0,0.456,0.0882,0.6127,0.1766c0.1415,0.6533,0.2486,1.1396,0.2901,1.3112
			C23.1826,23.019,24,22.9409,24,22.9409V16.196c2.0715-0.1483,6.1907-0.7519,10.7498-3.1065L40,16.6157v6.3252
			c0,0,0.8174,0.0781,1.0234-0.7729c0.0415-0.1716,0.1486-0.6579,0.2901-1.3112c0.1567-0.0884,0.3729-0.1766,0.6127-0.1766
			c0.1285,0,0.2637,0.0252,0.4,0.0894c0.4521,0.2132,0.7738,0.9018,0.7738,2.1742c0,1.273-0.4237,3.3145-2.0414,3.8183
			c0,3.8165-2.6802,6.9209-5.3403,9.1847c-0.7803,0.664-2.2495,1.126-3.7185,1.126c-1.469,0-2.938-0.462-3.7181-1.126
			c-2.6601-2.2638-5.3403-5.3213-5.3403-9.1847C21.3237,26.2583,20.9,24.2168,20.9,22.9438
			C20.9,21.6714,21.2217,20.9828,21.6738,20.7696z"/>
		<path d="M48.8577,41.0506c0.0269,0.1077,0.0454,0.2186,0.0454,0.3347c0,0.7651-0.6202,1.3854-1.3854,1.3854
			c-0.7651,0-1.3853-0.6202-1.3853-1.3854c0-0.4072,0.179-0.7697,0.4587-1.0232c-1.8456-0.521-3.6638-0.9593-4.9695-1.2921
			c-1.1951,4.768-3.3053,10.9131-6.6131,15.2346c-0.376-2.1291-1.0116-4.9916-1.6953-6.9162C34.245,45.96,35.5,43.7407,35.5,43.7407
			S34.4313,42,32,42s-3.5,1.7407-3.5,1.7407s1.255,2.2193,2.1868,3.6477c-0.6794,1.9124-1.3114,4.7511-1.6883,6.8761
			c-3.1676-4.3374-5.2785-10.4981-6.4964-15.2556c-1.3329,0.3179-3.245,0.751-5.1793,1.2873
			c0.3255,0.2535,0.5386,0.6447,0.5386,1.0891c0,0.7651-0.6202,1.3854-1.3854,1.3854s-1.3854-0.6202-1.3854-1.3854
			c0-0.1556,0.0314-0.3026,0.0787-0.4421c-2.157,0.7068-4.0696,1.5468-4.8821,2.51C8.1929,45.9358,7.1026,57.7173,6.5,62.9925
			h51.0251c-0.7751-6.8425-1.5157-17.011-3.8124-19.5393C52.9094,42.5688,51.0073,41.7564,48.8577,41.0506z M16.1216,44.9039
			c0-0.7651,0.6202-1.3854,1.3854-1.3854c0.7651,0,1.3853,0.6202,1.3853,1.3854c0,0.7651-0.6202,1.3854-1.3853,1.3854
			C16.7419,46.2892,16.1216,45.6689,16.1216,44.9039z M17.8784,48.1758c0-0.7651,0.6202-1.3853,1.3854-1.3853
			c0.7651,0,1.3853,0.6202,1.3853,1.3853c0,0.7651-0.6202,1.3854-1.3853,1.3854C18.4987,49.5612,17.8784,48.9409,17.8784,48.1758z
			 M21.5202,52.4678c-0.7651,0-1.3854-0.6202-1.3854-1.3853c0-0.7651,0.6202-1.3854,1.3854-1.3854
			c0.7651,0,1.3853,0.6202,1.3853,1.3854C22.9055,51.8476,22.2853,52.4678,21.5202,52.4678z M24.0576,55.17
			c-0.7651,0-1.3854-0.6202-1.3854-1.3854s0.6202-1.3854,1.3854-1.3854s1.3854,0.6202,1.3854,1.3854S24.8227,55.17,24.0576,55.17z
			 M27.0321,57.4931c-0.7651,0-1.3854-0.6202-1.3854-1.3854c0-0.7651,0.6202-1.3853,1.3854-1.3853s1.3854,0.6202,1.3854,1.3853
			C28.4175,56.8729,27.7972,57.4931,27.0321,57.4931z M31.9969,61.7701c-1.5303,0-2.7708-1.2405-2.7708-2.7708
			c0-1.5302,1.2405-2.7707,2.7708-2.7707c1.5302,0,2.7707,1.2405,2.7707,2.7707C34.7676,60.5297,33.5271,61.7701,31.9969,61.7701z
			 M36.9616,57.4931c-0.7651,0-1.3853-0.6202-1.3853-1.3854c0-0.7651,0.6202-1.3853,1.3853-1.3853
			c0.7651,0,1.3854,0.6202,1.3854,1.3853C38.347,56.8729,37.7267,57.4931,36.9616,57.4931z M39.9362,55.17
			c-0.7651,0-1.3854-0.6202-1.3854-1.3854s0.6203-1.3854,1.3854-1.3854c0.7651,0,1.3854,0.6202,1.3854,1.3854
			S40.7013,55.17,39.9362,55.17z M42.4736,52.4678c-0.7651,0-1.3854-0.6202-1.3854-1.3853c0-0.7651,0.6202-1.3854,1.3854-1.3854
			c0.7651,0,1.3853,0.6202,1.3853,1.3854C43.8589,51.8476,43.2386,52.4678,42.4736,52.4678z M44.73,49.5612
			c-0.7651,0-1.3854-0.6202-1.3854-1.3854c0-0.7651,0.6202-1.3853,1.3854-1.3853c0.7651,0,1.3853,0.6202,1.3853,1.3853
			C46.1153,48.9409,45.4951,49.5612,44.73,49.5612z M46.4868,46.2892c-0.7651,0-1.3854-0.6203-1.3854-1.3854
			c0-0.7651,0.6202-1.3854,1.3854-1.3854c0.7651,0,1.3853,0.6202,1.3853,1.3854C47.8721,45.6689,47.2518,46.2892,46.4868,46.2892z"
			/>
	</g>
</g>
</svg>
