<svg height="64" viewBox="0 0 64 64" width="64" xmlns="http://www.w3.org/2000/svg"><path d="m0 0h64v64h-64z" fill="none"/><path d="m8.6055 42.0342c1.6012-1.897 5.4497-3.1757 9.3824-4.192-1.1829-.5356-2.6068-.9662-3.4415-1.1899-.2935-.0858-.4926-.3406-.5735-.6301-.1051-.3757-.1365-.8488-.1365-.8488.781-.9017 1.3603-1.9852 1.5603-3.4044.7861-.2427.9434-1.2256.9434-1.8386 0-.6128-.1077-.9443-.3275-1.0469-.1921-.0895-.3707-.0224-.4873.0436.1219-1.252.2976-3.8616-.2307-4.8296-.5673-1.0389-1.2564-1.4538-2.5706-1.1142-.8618-.4691-1.4487-1.0612-2.9588-.6389-1.0493.2933-2.1978.826-2.8029 1.6252-.679.897-.516 3.7424-.4039 5.0156-.0746-.0586-.3187-.225-.5828-.1018-.2198.1027-.3275.4341-.3275 1.0469 0 .6129.1573 1.5959.9435 1.8386.1761 1.4678.7459 2.5063 1.5109 3.3729 0 0-.0189.4437-.1028.8654-.0606.3043-.2539.5657-.5554.6492-1.2357.3421-4.154 1.2314-5.1165 2.2357-1.2283 1.2814-1.3278 6.1079-1.3278 6.1079h6.1372c.4289-1.3101.9083-2.3018 1.4683-2.9658z"/><path d="m50.3865 34.9998c-.0911.8093-.114.8647-.202 1.3774-.0482.2817-.2211.5273-.4938.6275-.626.23-1.7346.6545-2.8064 1.148 3.2151.8965 6.9645 2.179 8.4569 3.821.6226.6855 1.1345 1.6718 1.5728 2.9088h6.086s-.0595-3.9271-1.2819-5.1891c-.4171-.4308-1.248-.9001-2.1619-1.3327-1.1969-.5806-2.5345-1.0942-3.2469-1.356-.2727-.1002-.4456-.3458-.4938-.6275-.0598-.3495-.1268-.8678-.1794-1.3043 1.805-.072 3.2979-.2465 3.9185-.4784.1227-.0458.1846-.1561.13-.2731-.3397-.7266-1.2224-3.1164-1.3333-4.3644-.2725-3.0632-.2613-8.5451-4.5411-7.1698 0 0-2.7179-1.7026-4.9254 1.146-1.553 2.0042-1.1746 4.6467-1.2368 6.1204-.0442 1.0482-.9188 3.4682-1.2869 4.0952-.0784.1335-.0516.2685.096.321.6661.237 2.1662.4208 3.9294.53z"/><path d="m20.0638 28.4937c.5174 3.4032 2.5819 6.6062 6.2687 9.7436 1.751 1.4906 4.3023 1.7627 5.6673 1.7627 1.3649 0 3.9162-.2721 5.6677-1.7627 3.6281-3.0875 5.7279-6.3556 6.2622-9.7377 1.3281-1.2195 2.068-3.1657 2.068-5.5558 0-.7445-.0015-2.7017-1.227-4.0358.3038-3.3378.5151-8.504-.7868-10.5876-1.6026-2.5649-3.5498-3.816-7.2632-2.9775-2.4355-1.1577-4.0937-1.8824-8.3608-.8399-2.9649.7242-6.21 1.9068-7.92 3.8799-1.6521 1.9068-1.5394 7.2245-1.274 10.6062-1.156 1.332-1.1636 3.2249-1.1636 3.9548 0 2.386.7375 4.3298 2.0615 5.5498zm1.61-7.7241c.1364-.0642.2715-.0894.4-.0894.2398 0 .456.0882.6127.1766.1415.6533.2486 1.1396.2901 1.3112.206.851 1.0234.7729 1.0234.7729v-6.7449c2.0715-.1483 6.1907-.7519 10.7498-3.1065l5.2502 3.5262v6.3252s.8174.0781 1.0234-.7729c.0415-.1716.1486-.6579.2901-1.3112.1567-.0884.3729-.1766.6127-.1766.1285 0 .2637.0252.4.0894.4521.2132.7738.9018.7738 2.1742 0 1.273-.4237 3.3145-2.0414 3.8183 0 3.8165-2.6802 6.9209-5.3403 9.1847-.7803.664-2.2495 1.126-3.7185 1.126s-2.938-.462-3.7181-1.126c-2.6601-2.2638-5.3403-5.3213-5.3403-9.1847-1.6177-.5038-2.0414-2.5453-2.0414-3.8183 0-1.2724.3217-1.961.7738-2.1742z"/><path d="m48.8577 41.0506c.0269.1077.0454.2186.0454.3347 0 .7651-.6202 1.3854-1.3854 1.3854-.7651 0-1.3853-.6202-1.3853-1.3854 0-.4072.179-.7697.4587-1.0232-1.8456-.521-3.6638-.9593-4.9695-1.2921-1.1951 4.768-3.3053 10.9131-6.6131 15.2346-.376-2.1291-1.0116-4.9916-1.6953-6.9162.9318-1.4284 2.1868-3.6477 2.1868-3.6477s-1.0687-1.7407-3.5-1.7407-3.5 1.7407-3.5 1.7407 1.255 2.2193 2.1868 3.6477c-.6794 1.9124-1.3114 4.7511-1.6883 6.8761-3.1676-4.3374-5.2785-10.4981-6.4964-15.2556-1.3329.3179-3.245.751-5.1793 1.2873.3255.2535.5386.6447.5386 1.0891 0 .7651-.6202 1.3854-1.3854 1.3854s-1.3854-.6202-1.3854-1.3854c0-.1556.0314-.3026.0787-.4421-2.157.7068-4.0696 1.5468-4.8821 2.51-2.0943 2.4826-3.1846 14.2641-3.7872 19.5393h51.0251c-.7751-6.8425-1.5157-17.011-3.8124-19.5393-.8033-.8844-2.7054-1.6968-4.855-2.4026zm-32.7361 3.8533c0-.7651.6202-1.3854 1.3854-1.3854.7651 0 1.3853.6202 1.3853 1.3854 0 .7651-.6202 1.3854-1.3853 1.3854-.7651-.0001-1.3854-.6204-1.3854-1.3854zm1.7568 3.2719c0-.7651.6202-1.3853 1.3854-1.3853.7651 0 1.3853.6202 1.3853 1.3853s-.6202 1.3854-1.3853 1.3854-1.3854-.6203-1.3854-1.3854zm3.6418 4.292c-.7651 0-1.3854-.6202-1.3854-1.3853s.6202-1.3854 1.3854-1.3854c.7651 0 1.3853.6202 1.3853 1.3854 0 .7651-.6202 1.3853-1.3853 1.3853zm2.5374 2.7022c-.7651 0-1.3854-.6202-1.3854-1.3854s.6202-1.3854 1.3854-1.3854 1.3854.6202 1.3854 1.3854-.6203 1.3854-1.3854 1.3854zm2.9745 2.3231c-.7651 0-1.3854-.6202-1.3854-1.3854 0-.7651.6202-1.3853 1.3854-1.3853s1.3854.6202 1.3854 1.3853c0 .7652-.6203 1.3854-1.3854 1.3854zm4.9648 4.277c-1.5303 0-2.7708-1.2405-2.7708-2.7708 0-1.5302 1.2405-2.7707 2.7708-2.7707 1.5302 0 2.7707 1.2405 2.7707 2.7707 0 1.5304-1.2405 2.7708-2.7707 2.7708zm4.9647-4.277c-.7651 0-1.3853-.6202-1.3853-1.3854 0-.7651.6202-1.3853 1.3853-1.3853s1.3854.6202 1.3854 1.3853c0 .7652-.6203 1.3854-1.3854 1.3854zm2.9746-2.3231c-.7651 0-1.3854-.6202-1.3854-1.3854s.6203-1.3854 1.3854-1.3854 1.3854.6202 1.3854 1.3854-.6203 1.3854-1.3854 1.3854zm2.5374-2.7022c-.7651 0-1.3854-.6202-1.3854-1.3853s.6202-1.3854 1.3854-1.3854c.7651 0 1.3853.6202 1.3853 1.3854 0 .7651-.6203 1.3853-1.3853 1.3853zm2.2564-2.9066c-.7651 0-1.3854-.6202-1.3854-1.3854 0-.7651.6202-1.3853 1.3854-1.3853.7651 0 1.3853.6202 1.3853 1.3853s-.6202 1.3854-1.3853 1.3854zm1.7568-3.272c-.7651 0-1.3854-.6203-1.3854-1.3854s.6202-1.3854 1.3854-1.3854c.7651 0 1.3853.6202 1.3853 1.3854 0 .7651-.6203 1.3854-1.3853 1.3854z"/></svg>