<?xml version="1.0" encoding="utf-8"?>
<!-- Generator: Adobe Illustrator 18.1.0, SVG Export Plug-In . SVG Version: 6.00 Build 0)  -->
<svg version="1.2" baseProfile="tiny" xmlns="http://www.w3.org/2000/svg" xmlns:xlink="http://www.w3.org/1999/xlink" x="0px"
	 y="0px" width="64px" height="64px" viewBox="0 0 64 64" xml:space="preserve">
<g id="Box">
	<rect fill="none" width="64" height="64"/>
</g>
<g id="Icon">
	<g>
		<path d="M52.23,44.7586c-2.7689,0.9518-6.3676,2.413-9.2219,3.6127c0.0737,0.4328,0.0837,0.8923,0.0119,1.3787
			c-0.4145,2.8079-2.82,4.5833-6.2403,4.7416c-7.7327,0.3578-12.5347-1.5577-13.5313-1.9618
			c-0.2862-0.1161-0.318-0.2576-0.2923-0.3882c0.0015-0.0012,0.0111-0.0091,0.0111-0.0091
			c5.5945,0.9645,9.1206,1.1222,13.4634,0.4237c3.295-0.53,4.489-2.106,4.4613-3.4058c-0.027-1.2701-0.9267-2.0373-2.9519-2.1077
			c-6.8902-0.2395-10.9187-1.0081-16.8242-1.8688c-4.1042-0.5981-8.0618,0.4671-11.4327,2.6266
			c-3.1634,2.0266-4.0402,2.9852-4.0402,2.9852l5.7857,11.1429l7.4819-3.0415c0.8526-0.3466,1.7844-0.4511,2.6926-0.3021
			l10.2607,2.283c2.2892,0.3757,4.6379-0.0563,6.6438-1.2219L58.9871,46.8C58.9871,46.8,57.9828,42.781,52.23,44.7586z"/>
		<path d="M21,35h22c6.05,0,11-4.95,11-11s-4.95-11-11-11H21c-6.05,0-11,4.95-11,11S14.95,35,21,35z M32.2209,17H43
			c3.8599,0,7,3.1401,7,7s-3.1401,7-7,7H32.2209c0.8627-1.9019,1.3811-4.3407,1.3811-7S33.0836,18.9019,32.2209,17z
			 M14.0124,23.7549l0.0037,0.0026c0.0457-1.7599,0.7785-3.4248,2.0006-4.6655l1.9489,2.2707
			c-0.8425,0.9052-1.4018,2.4493-1.4018,4.2211c0,1.558,0.4564,3.137,1.4556,4.3052c-0.0037,0.2516-0.3318,0.2516-0.7587-0.0154
			C15.1021,28.5228,13.9276,26.1676,14.0124,23.7549z"/>
	</g>
</g>
</svg>
