<?xml version="1.0" encoding="utf-8"?>
<!-- Generator: Adobe Illustrator 19.2.0, SVG Export Plug-In . SVG Version: 6.00 Build 0)  -->
<svg version="1.0" xmlns="http://www.w3.org/2000/svg" xmlns:xlink="http://www.w3.org/1999/xlink" x="0px" y="0px"
	 viewBox="0 0 64 64" enable-background="new 0 0 64 64" xml:space="preserve">
<g id="achtergrond">
</g>
<g id="paneel_1">
	<g>
		<path d="M16.3277,22.5644c-8.0456,1.5577-6.8774,5.4511-6.1634,6.8782c0.7132,1.4271,3.2437,2.012,4.6058,1.524
			c1.363-0.4863,2.0769-1.3943,4.1859-2.0433c2.1089-0.649,4.2492-0.7146,4.2492-0.7146c1.5897-0.1618,2.8305-1.085,2.8542-2.6267
			C26.0921,23.5372,24.374,21.0075,16.3277,22.5644z M18.6313,28.4705c-0.8369,0.268-1.6027,0.6032-1.7088,0.2711
			c-0.1062-0.3321,0.3772-1.0873,1.214-1.3553c0.8361-0.268,1.7073,0.055,1.8134,0.3871
			C20.0562,28.1055,19.4667,28.2032,18.6313,28.4705z"/>
		<path d="M26.3036,38.9595c7.098,2.5724,8.0143-1.0576,8.1258-2.5228c0.1091-1.466-1.6149-3.1252-2.9237-3.3841
			c-1.3079-0.2581-2.2998,0.1221-4.2736-0.3619c-1.9746-0.4834-3.6979-1.4431-3.6979-1.4431
			c-1.3339-0.6231-2.7518-0.4795-3.5001,0.7284C19.0429,33.578,19.2063,36.3894,26.3036,38.9595z M27.2733,33.2023
			c0.7887,0.1833,1.5523,0.281,1.4797,0.5941c-0.0733,0.3123-0.8124,0.6811-1.5997,0.4978
			c-0.7872-0.1833-1.3255-0.8498-1.2515-1.1637C25.9753,32.8182,26.4868,33.019,27.2733,33.2023z"/>
		<path d="M34.8257,16.1466c6.7919,1.0041,6.9499-2.3968,6.7835-3.7223c-0.1687-1.3263-2.0058-2.493-3.2192-2.4862
			c-1.2125,0.0077-2.0272,0.5268-3.8735,0.4528c-1.8478-0.0718-3.5582-0.6154-3.5582-0.6154
			c-1.3011-0.3131-2.5388,0.0726-2.9863,1.2843C27.3787,12.6679,28.0346,15.1425,34.8257,16.1466z M34.6455,10.8391
			c0.7361,0.0214,1.4347-0.0305,1.4263,0.2619c-0.0084,0.2909-0.6002,0.7537-1.3355,0.7338
			c-0.7338-0.0206-1.3355-0.517-1.3263-0.8102C33.4192,10.733,33.9109,10.8193,34.6455,10.8391z"/>
		<path d="M19.7607,16.7224c-0.2871,1.3927,0.6451,2.4708,2.0432,2.9343c0,0,1.9119,0.4856,3.6781,1.4912
			c1.7669,1.0041,2.2258,1.9624,3.3544,2.6733c1.1285,0.7101,3.5215,0.6895,4.4492-0.4505
			c0.9247-1.1416,2.7534-4.4088-4.1721-7.4165C22.1911,12.9466,20.1417,14.8776,19.7607,16.7224z M24.8177,19.9149
			c0.1619-0.2787,1.0102-0.3933,1.7081,0.0137c0.6994,0.4085,0.9827,1.1828,0.82,1.4615c-0.1618,0.2772-0.7834-0.1764-1.4821-0.5856
			C25.1659,20.3967,24.6566,20.1913,24.8177,19.9149z"/>
		<path d="M27.2596,27.2206c-0.2368,1.1507,0.5322,2.041,1.6875,2.4227c0,0,1.5775,0.4024,3.0359,1.2316
			c1.4584,0.83,1.8394,1.6211,2.7694,2.2075c0.9323,0.5872,2.9092,0.5704,3.6735-0.3719c0.7644-0.9415,2.2747-3.6407-3.4429-6.123
			C29.2662,24.1045,27.5741,25.6988,27.2596,27.2206z M31.4347,29.8579c0.1328-0.2307,0.8338-0.3246,1.4119,0.0114
			c0.5765,0.3375,0.8101,0.9766,0.6765,1.2064c-0.1344,0.229-0.6475-0.1458-1.2255-0.4848
			C31.7218,30.255,31.3019,30.0862,31.4347,29.8579z"/>
		<path d="M45.6537,26.9037c0.5329-0.9705,0.0885-1.986-0.8453-2.6503c0,0-1.3087-0.801-2.3923-1.9532
			c-1.082-1.153-1.2049-1.9707-1.8799-2.7572c-0.6765-0.788-2.4609-1.3225-3.4108-0.6865
			c-0.9498,0.6353-3.0595,2.6457,1.3981,6.4697C42.9813,29.1516,44.9474,28.1865,45.6537,26.9037z M42.627,23.3684
			c-0.1833,0.171-0.8399,0.0603-1.2675-0.4024c-0.4253-0.4642-0.4574-1.1049-0.2733-1.2744
			c0.184-0.1695,0.5429,0.3108,0.9681,0.7766C42.4796,22.9309,42.811,23.1996,42.627,23.3684z"/>
		<path d="M7.4215,35.9511c-0.278,1.3523,0.6254,2.3984,1.9829,2.8466c0,0,1.8539,0.4719,3.5666,1.4469
			c1.7134,0.9743,2.1601,1.9036,3.2535,2.5938c1.0957,0.6888,3.4169,0.6681,4.3156-0.4375c0.898-1.1072,2.6717-4.2768-4.0445-7.1928
			C9.7787,32.2898,7.7911,34.1628,7.4215,35.9511z M12.3274,39.0496c0.1573-0.2711,0.9789-0.3818,1.6585,0.0138
			c0.6773,0.3956,0.9514,1.1469,0.7956,1.4164c-0.1596,0.2695-0.762-0.1703-1.4409-0.568
			C12.6641,39.5162,12.1716,39.3176,12.3274,39.0496z"/>
		<path d="M16.2291,53.0813c0.2327,1.7526,4.6753,5.2614,17.6459,1.9889c12.9707-3.2725,18.1627-12.1088,19.284-14.421
			c0.658-1.3564,0.139-2.5056,0.139-2.5056s2.1453-2.3053,1.7271-4.4599c-0.2514-1.309-0.8167-1.8708-0.8167-1.8708
			s1.55-1.6879,2.7188-4.4923c1.1689-2.8045,1.2639-5.6751,1.2639-5.6751l-2.3378-0.5839c0,0,0.0846,2.5022-1.0611,5.492
			c-0.7715,2.0133-2.2207,3.8574-2.2207,3.8574s-1.8314-1.2012-3.5922-0.608c-1.5673,0.5282-2.7998,1.7689-2.7998,1.7689
			s1.3564,0.505,2.596,1.3251c2.3538,1.5581,3.3118,3.327,3.3559,3.5726c0.044,0.2455-0.0568,0.2409-0.0568,0.2409
			s-1.8211-1.4932-3.2436-2.5334c-2.3017-1.6832-4.5409-2.2613-6.7836-1.0936c-2.362,1.2302-4.4321,3.7543-7.2378,8.4285
			c-2.8044,4.6754-3.6223,6.8938-9.5835,9.2325c-4.8885,1.9173-7.9386,2.0435-8.8317,2.1049
			C16.199,52.8636,16.2291,53.0813,16.2291,53.0813z"/>
	</g>
</g>
</svg>
