<?xml version="1.0" encoding="utf-8"?>
<!-- Generator: Adobe Illustrator 19.1.0, SVG Export Plug-In . SVG Version: 6.00 Build 0)  -->
<svg version="1.2" baseProfile="tiny" xmlns="http://www.w3.org/2000/svg" xmlns:xlink="http://www.w3.org/1999/xlink" x="0px"
	 y="0px" width="64px" height="64px" viewBox="0 0 64 64" xml:space="preserve">
<g id="_x36_4px_Box">
	<rect fill="none" width="64" height="64"/>
</g>
<g id="Icon">
	<g>
		<path d="M33.8695,25.4493c1.1339,0,1.8708,0.1135,3.2608,0.3685v-2.9773C35.9394,22.585,35.0605,22.5,33.9545,22.5
			c-3.9418,0-6.8347,2.1554-7.8556,6.4091H24v2.1833h1.759c-0.0571,0.482-0.0571,1.021-0.0571,1.5315v0.5955H24v2.1549h1.929
			c0.822,4.1973,3.6018,6.1257,7.5436,6.1257c1.5029,0,2.2399-0.085,3.7998-0.454v-2.8074c-1.475,0.312-2.241,0.4255-3.5739,0.4255
			c-1.8708,0-3.4028-0.9645-4.0547-3.2898h5.1897v-2.1549h-5.5297c-0.0291-0.2834-0.0291-0.5955-0.0291-0.936
			c0-0.3969,0-0.7939,0.0291-1.191h5.5297v-2.1833h-5.1617C30.2957,26.6118,31.7136,25.4493,33.8695,25.4493z"/>
		<path d="M8.8433,37.1475c0.9624-0.5928,2.124-0.7227,3.1948-0.3555l0.0529,0.0181C11.7187,35.2647,11.5,33.6597,11.5,32
			c0-10.7956,8.35-19.6221,18.9412-20.4213l0.0034,0.006c0.0466,0.0476,0.0468,0.1389-0.1277,0.2515
			c-0.2589,0.1671-2.6666,1.0712-2.81,1.1249l-1.5742,2.7808c-0.3773,0.6646-0.2175,1.5024,0.3725,1.985
			c0.5918,0.4827,1.4449,0.4684,2.0196-0.0341l8.0609-7.0351c0.3586-0.3125,0.5556-0.7716,0.535-1.2473
			c0.004-0.476-0.209-0.928-0.5782-1.2278L28.041,1.4334c-0.5918-0.4822-1.4449-0.4667-2.0196,0.0364
			c-0.5728,0.5029-0.7032,1.3459-0.303,1.9968l2.0744,3.3832l0.0009,0.0016C15.7129,8.8576,6.5,19.3502,6.5,32
			c0,2.3251,0.3171,4.5751,0.9001,6.7154C7.7216,38.0732,8.2056,37.5211,8.8433,37.1475z"/>
		<path d="M48.0347,49.4795c-0.9937-0.5371-1.6865-1.4775-1.9038-2.5889l-0.0106-0.0538C42.4427,50.3379,37.4785,52.5,32,52.5
			c-7.0287,0-13.215-3.5473-16.9052-8.9407l0.0027-0.0046c0.018-0.0641,0.0969-0.11,0.2817-0.0152
			c0.2742,0.1407,2.261,1.7738,2.3793,1.8711l3.1954-0.0271c0.7641-0.0056,1.4099-0.5628,1.5328-1.3151
			c0.1222-0.7539-0.3168-1.4856-1.0394-1.732l-10.123-3.4634c-0.4499-0.1542-0.946-0.0953-1.3477,0.1603
			c-0.4142,0.2346-0.6992,0.645-0.7742,1.1147l-1.6945,10.564c-0.1216,0.7536,0.3183,1.4847,1.0413,1.7308
			c0.722,0.2446,1.5172-0.0638,1.8808-0.736l1.8928-3.488l0.0101-0.017C17.0087,53.8737,24.0751,57.5,32,57.5
			c7.0793,0,13.4833-2.8865,18.1036-7.5447c-0.0703,0.004-0.1403,0.0193-0.2106,0.0193
			C49.2495,49.9746,48.6108,49.8076,48.0347,49.4795z"/>
		<path d="M61.4293,42.0875c-0.1492-0.7476-0.814-1.282-1.5778-1.2608l-3.9672,0.1049h-0.0004C56.9262,38.152,57.5,35.1439,57.5,32
			c0-11.8432-8.0747-21.7983-19.0184-24.6663c0.3973,0.6003,0.6346,1.2977,0.6395,2.0394c0.0317,1.1289-0.436,2.1992-1.2896,2.9434
			l-0.033,0.0287C46.2941,14.8481,52.5,22.6938,52.5,32c0,3.1802-0.7463,6.1775-2.0432,8.8605
			c-0.0645,0.0159-0.1427-0.03-0.153-0.2363c-0.0153-0.3077,0.4056-2.845,0.4308-2.996l-1.6212-2.7537
			c-0.3868-0.6591-1.1923-0.9396-1.9053-0.67c-0.7141,0.2712-1.1282,1.0172-0.9803,1.7661l2.0621,10.4985
			c0.0914,0.4667,0.3905,0.8669,0.8127,1.0869c0.4103,0.2415,0.9081,0.2831,1.3524,0.1132l9.996-3.8146
			C61.1645,43.5832,61.5776,42.8367,61.4293,42.0875z"/>
	</g>
</g>
</svg>
