<?xml version="1.0" encoding="utf-8"?>
<!-- Generator: Adobe Illustrator 22.1.0, SVG Export Plug-In . SVG Version: 6.00 Build 0)  -->
<!DOCTYPE svg PUBLIC "-//W3C//DTD SVG 1.1//EN" "http://www.w3.org/Graphics/SVG/1.1/DTD/svg11.dtd">
<svg version="1.1" xmlns="http://www.w3.org/2000/svg" xmlns:xlink="http://www.w3.org/1999/xlink" x="0px" y="0px" width="64px"
	 height="64px" viewBox="0 0 64 64" style="enable-background:new 0 0 64 64;" xml:space="preserve">
<style type="text/css">
	.st0{fill:none;}
	.st1{fill:#FFFFFF;}
</style>
<g id="_x36_4px_Box">
	<rect class="st0" width="64" height="64"/>
</g>
<g id="Icon">
	<g>
		<path d="M27.8,25.5l2.8,2.5c0.8-1.3,2.1-2.4,3.6-3c0.3-1.2,1-2.2,1.8-3.1V17h5v2.5c0.3,0,0.5-0.1,0.8-0.1c1.5,0,3,0.4,4.2,1.2V4
			c0-0.6-0.4-1-1-1H16c-0.6,0-1,0.4-1,1v29.7l9.2-8.2C25.2,24.5,26.8,24.5,27.8,25.5z M36,9h5v5h-5V9z M28,9h5v5h-5V9z M28,17h5v5
			h-5V17z M20,9h5v5h-5V9z M20,17h5v5h-5V17z"/>
		<path d="M58.4,34.7c0-3.1-1.8-5.6-4.3-6.3c-0.2-3.3-2.8-5.9-6-5.9c-0.8,0-1.6,0.2-2.3,0.5c-1.1-0.9-2.5-1.5-4.1-1.5
			c-3.1,0-5.6,2.2-5.8,5c-1.7,0.3-3.1,1.4-3.8,2.8l12.7,11.4c0.7,0.6,1.1,1.6,1.1,2.5v1c0,1.5-1.2,2.7-2.7,2.7H42V60h8.2
			c0-0.2-1.2-7.4-1.3-11.6c0.5,0.2,1.1,0.3,1.7,0.3c3.1,0,5.7-2.5,5.7-5.7c0-1-0.2-1.9-0.7-2.7C57.3,39.2,58.4,37.1,58.4,34.7z"/>
		<path d="M43.9,44.2v-1c0-0.4-0.2-0.8-0.5-1l-17-15.2c-0.3-0.2-0.7-0.2-0.9,0l-17,15.2c-0.3,0.3-0.5,0.6-0.5,1v1
			c0,0.4,0.3,0.7,0.7,0.7H12V60h28V44.9h3.2C43.6,44.9,43.9,44.6,43.9,44.2z M36.9,49.2c-1.1,1-3.6,2.3-6.5,2.5
			c2,1.4,2.9,2.9,3.1,3.3c0,0,0,0.1-0.1,0.1c-1.4,0.1-4-0.5-6.5-2.2l0.5,4.4c0,0.4-0.3,0.8-0.7,0.9c-0.7,0.1-1.1,0.1-1.5,0
			c-0.4-0.1-0.7-0.4-0.7-0.9c0.1-2.9,0.3-5.6,0.5-8.1c0,0-0.1,0-0.2,0.2c-0.1,0.2-0.8,1.8-1.1,4.3c0,0,0,0-0.1,0.1
			c-2.6,1.4-4.6,1.4-5.1,1.4c-0.1,0-0.1-0.1-0.1-0.1c0.2-0.4,1.1-1.9,3.1-3.3c-3.5-0.3-5.8-1.8-6.5-2.5c0,0,0-0.1,0-0.1
			c1.2-0.5,3.6-0.8,6.2-0.3c-3-2.9-4.5-6.5-4.7-8.6c0-0.1,0-0.1,0.1-0.1c1.5,0.4,4.3,2,6.7,4.9c0-4.9,1.8-8.3,2.6-9.4
			c0,0,0.1,0,0.1,0c1.1,1.4,2.6,4.9,2.6,9.4c2.7-3.2,5.6-4.6,6.7-4.9c0.1,0,0.1,0,0.1,0.1c-0.2,2.1-1.8,5.7-4.7,8.6
			c2.7-0.5,5-0.2,6.2,0.3C36.9,49.1,36.9,49.1,36.9,49.2z"/>
	</g>
</g>
</svg>
