<?xml version="1.0" encoding="utf-8"?>
<!-- Generator: Adobe Illustrator 19.1.0, SVG Export Plug-In . SVG Version: 6.00 Build 0)  -->
<svg version="1.2" baseProfile="tiny" xmlns="http://www.w3.org/2000/svg" xmlns:xlink="http://www.w3.org/1999/xlink" x="0px"
	 y="0px" width="64px" height="64px" viewBox="0 0 64 64" xml:space="preserve">
<g id="_x36_4px_Box">
	<rect fill="none" width="64" height="64"/>
</g>
<g id="Icon">
	<g>
		<path d="M26,29.0503V17c0-3.3137-2.6863-4-6-4s-6,0.6863-6,4v7.9848c-0.0562,0.0209-0.2945,0.0605-0.3641-0.2499L12.4946,19H1v16
			h21.4302L26,29.0503z"/>
		<path d="M51.5055,19l-1.1414,5.7349c-0.072,0.3292-0.3079,0.2708-0.3641,0.2499V17c0-3.3137-2.6863-4-6-4s-6,0.6863-6,4v12.0503
			L41.5698,35H63V19H51.5055z"/>
		<polygon points="28.6667,29 17.656,54 46.3464,54 35.3334,29 		"/>
	</g>
</g>
</svg>
