<?xml version="1.0" encoding="utf-8"?>
<!-- Generator: Adobe Illustrator 24.0.1, SVG Export Plug-In . SVG Version: 6.00 Build 0)  -->
<svg version="1.1" xmlns="http://www.w3.org/2000/svg" xmlns:xlink="http://www.w3.org/1999/xlink" x="0px" y="0px"
	 viewBox="0 0 64 64" style="enable-background:new 0 0 64 64;" xml:space="preserve">
<style type="text/css">
	.st0{fill:none;}
	.st1{fill:#FF1D25;}
	.st2{fill:#1D1D1B;}
</style>
<g id="Box">
	<rect class="st0" width="64" height="64"/>
</g>
<g id="Icon">
	<g>
		<path d="M28.4,31.8c0.7-1.3,2.1-2,3.5-2c1.5,0,2.8,0.8,3.6,2l2.5,4.3c2.1,0.2,4.1,0.5,5.9,0.9c0-2.2-0.1-8.2-1.5-9.7
			c-1.6-1.7-5.3-2.5-6.5-2.8c-0.2,0-0.4-0.2-0.4-0.4c-0.1-0.4-0.1-0.8-0.2-1c1.2-1.2,2-2.7,2.3-4.7c1-0.3,1.2-1.6,1.2-2.3
			c0-0.8-0.1-1.2-0.4-1.3c-0.3-0.1-0.5,0-0.7,0.1c0.2-1.6,0.4-4.9-0.3-6.2c-0.7-1.3-1.6-1.9-3.3-1.4c-1.1-0.6-1.9-1.4-3.8-0.8
			c-1.4,0.4-2.9,1.1-3.6,2.1c-0.9,1.1-0.7,4.7-0.5,6.3c-0.1-0.1-0.4-0.2-0.6-0.1c-0.3,0.1-0.4,0.6-0.4,1.3c0,0.8,0.2,2,1.2,2.3
			c0.3,2.1,1.1,3.5,2.3,4.7c-0.1,0.4-0.1,0.7-0.2,1c0,0.2-0.2,0.4-0.4,0.4c-1.3,0.3-5,1.1-6.5,2.8C20.1,28.8,20,34.9,20,37
			c1.9-0.4,3.9-0.7,5.9-0.9L28.4,31.8z"/>
		<path d="M47.5,39.5c0.8,0.6,3.7,0.7,4.7,0.8c0.1,0.1,0,0.3-0.2,0.4c-0.9,0.4-2.8,0.6-3.8,0.6c-1,0.5-3.5,1.9-5.1,3.4l5.5,9.3
			c5-0.9,10.4-2.6,14.3-6.4c-0.2-0.9-0.3-5.7-2.3-7c-1-0.7-2.4-0.6-3.7-0.4c0.2-2.5,3.7-5.2,2.8-12.1c-0.4-2.9-1.5-4.3-4.2-4
			c-1.8-1.3-3.7-1.3-5.4-1c-1.7,0.4-3.8,1.4-2.7,3.4c-0.5,1.6-0.5,2-0.5,2.7c0,2.3-0.9,2.3-0.9,4.5C46.2,35,46.8,39.1,47.5,39.5z"/>
		<path d="M9.9,40.6c-2,0.7-4,0-6.3,1.6c-1.3,0.9-2.2,2.9-2.6,5.4c3.8,3.7,9.4,5.4,14.5,6.3l5.4-9.3c-1.7-1.9-4.1-3-5.3-3.4l0,0
			c-0.6-0.3-0.9-0.6-1-1.3l-0.2-0.9c0.4-0.1,0.9-0.2,1.3-0.5c0.7-0.5,2.1-4.5,2-5.9c-0.2-1.4-0.4-1.5-0.6-2.8
			c-0.2-1.3,1-2.6,0.4-4.5c-0.5-1.7-2.6-3.5-5.1-3c-1.9,0.4-2.3,0.7-3.5,1.4c0,0-2.6-0.4-3.8,1c-1.8,2.2-0.9,5.3-1.3,8.5
			c-0.4,2.8-1.9,4-1.9,4c1.9,1.6,4.5,2.6,8.2,3C10.3,40.3,10.2,40.5,9.9,40.6z"/>
		<path d="M33.6,32.9c-0.7-1.3-2.6-1.3-3.3,0L15.1,59.1c-0.7,1.3,0.2,2.9,1.7,2.9h30.6c1.5,0,2.4-1.6,1.6-2.9L33.6,32.9z M20.1,58.2
			L32,37.7l12.1,20.5H20.1z"/>
		<path d="M32,52.9c-1,0-1.5,0.7-1.5,1.6c0,1,0.5,1.5,1.5,1.5c1,0,1.5-0.7,1.5-1.5C33.4,53.5,32.9,52.9,32,52.9z"/>
		<polygon points="30.8,51.6 33.1,51.5 33.1,49.2 33.4,43.5 30.8,43.7 		"/>
	</g>
</g>
</svg>
