<svg enable-background="new 0 0 64 64" viewBox="0 0 64 64" xmlns="http://www.w3.org/2000/svg"><path d="m0 0h64v64h-64z" fill="none"/><path d="m36.474 12.169c2.908-.446 4.316-2.496 3.829-5.673-.462-3.014-2.394-4.885-5.378-4.428-2.832.435-4.316 2.496-3.804 5.836.45 2.933 2.445 4.711 5.353 4.265z"/><path d="m51.913 17.668c-1.462-1.589-7.912-3.771-12.005-3.618-6.744.253-8.645 2.449-9.521 3.598-.803 1.05-3.387 7.352-3.387 7.352s-4.44-1.378-8.396-3.824c-.241.543-1.18 2.966.957 4.933 1.222 1.125 7.084 4.03 8.59 3.442 1.901-.741 4.056-5.66 5.132-7.375.539 3.086 1.134 6.627 1.587 9.899-4.422 1.979-6.96 3.218-7.827 3.775-1.75 1.125-1.692 3.228-1.517 4.569.322 2.456 3.761 14.208 3.99 15.141 2.813-1.295 3.843-4.028 3.648-5.508-.362-2.758-1.537-9.567-1.537-9.567 2-1.013 5.858-1.985 8-2.479.022 2.552-.044 6.012-.202 8.431-.237 3.622-1.276 7.653-1.438 10.406-.189 3.221 1.458 5.832 3.557 6.12.916-3.091 2.968-11.162 3.513-16.819.517-5.362 1.062-15.043-1.205-26.774 2.326.342 4.408 1.125 5.04 1.533.025 2.741-.46 6.763-1.054 9.714 2.019-.174 3.717-1.382 4.094-3.372.433-2.292 1.299-8.544-.019-9.577z"/><path d="m22 5-6-3v4 5.998c-.456-.192-.961-.322-1.5-.351-1.933-.106-3.5 1.012-3.5 2.497s1.573 2.698 3.5 2.882c1.975.188 3.5-1.047 3.5-3.026v-2-5.333l4 1.333z"/></svg>