<svg xmlns="http://www.w3.org/2000/svg" width="48" height="48" xmlns:v="https://vecta.io/nano"><path d="M36 30c-1.801 0-3.602.602-4.801 1.602L20 25c0-1 0-1-.199-2.199L31 16.199C32.398 17.398 34.199 18 36 18a8.03 8.03 0 0 0 8-8 8.03 8.03 0 0 0-8-8 8.03 8.03 0 0 0-8 8c0 .398 0 .801.199 1.199l-11.398 6.402c-1.199-1-3-1.602-4.801-1.602a8.03 8.03 0 0 0-8 8 8.03 8.03 0 0 0 8 8c1.801 0 3.602-.602 4.801-1.602L28 37c0 .398-.199.801-.199 1.199 0 4.402 3.598 8 8 8s8-3.598 8-8C44 33.602 40.398 30 36 30zm0 0" fill="rgb(0%,0%,0%)"/></svg>