<?xml version="1.0" encoding="utf-8"?>
<!-- Generator: Adobe Illustrator 19.2.0, SVG Export Plug-In . SVG Version: 6.00 Build 0)  -->
<svg version="1.0" xmlns="http://www.w3.org/2000/svg" xmlns:xlink="http://www.w3.org/1999/xlink" x="0px" y="0px"
	 viewBox="0 0 64 64" enable-background="new 0 0 64 64" xml:space="preserve">
<g id="achtergrond">
</g>
<g id="paneel_1">
	<g>
		<g>
			<path d="M41.5202,41.3986c-1.9096,0.6545-4.3902,1.6645-6.3582,2.4902c0.0508,0.2981,0.0575,0.6142,0.008,0.9508
				c-0.2854,1.9348-1.9437,3.159-4.3012,3.2673c-5.3305,0.2473-8.6419-1.0726-9.3278-1.3509
				c-0.1986-0.0797-0.22-0.1784-0.2032-0.2687l0.0084-0.0046c3.8571,0.6637,6.2881,0.772,9.2816,0.2909
				c2.2715-0.3644,3.0943-1.4525,3.0746-2.3475c-0.0177-0.8757-0.6381-1.4063-2.0344-1.4533
				c-4.7491-0.1658-7.5269-0.6952-11.598-1.2888c-2.8294-0.4118-5.5576,0.3224-7.8804,1.8119
				c-2.1829,1.3966-2.7866,2.0582-2.7866,2.0582l3.9897,7.681l5.1576-2.0973c0.5877-0.2393,1.2296-0.3107,1.8555-0.2087
				l7.0735,1.5751c1.5776,0.2582,3.1967-0.0395,4.5808-0.8425l14.1168-8.8564C46.177,42.8054,45.4851,40.036,41.5202,41.3986z"/>
		</g>
		<path d="M54.4095,36.0525H9.5903c-0.649,0-0.3359,0.4987-0.0458,1.0961C9.8052,37.6805,10.2611,38.1765,11,39h42
			c0.7376-0.8235,1.1954-1.3195,1.4544-1.8514C54.7445,36.5512,55.0598,36.0525,54.4095,36.0525z"/>
		<path d="M34.2613,14.25c-0.1558-1.1263-1.123-1.9932-2.2917-1.9932c-0.955,0-1.7736,0.5777-2.1271,1.4034
			c0.6049-0.0815,1.5811-0.1158,2.3397,0.0829c0.589,0.1543,0.5892,0.4754,0.5892,0.4754c-1.2409-0.126-3.093,0.0298-3.093,0.0315
			C19.7565,15.3839,12.0454,23.786,12,34h39.9383C51.8934,23.786,44.1822,15.3839,34.2613,14.25z"/>
	</g>
</g>
</svg>
