<?xml version="1.0" encoding="utf-8"?>
<!-- Generator: Adobe Illustrator 19.1.0, SVG Export Plug-In . SVG Version: 6.00 Build 0)  -->
<svg version="1.2" baseProfile="tiny" xmlns="http://www.w3.org/2000/svg" xmlns:xlink="http://www.w3.org/1999/xlink" x="0px"
	 y="0px" width="64px" height="64px" viewBox="0 0 64 64" xml:space="preserve">
<g id="_x36_4px_Box">
	<rect fill="none" width="64" height="64"/>
</g>
<g id="Icon">
	<g>
		<path d="M39,53h-2.1309c-0.49-0.008-2.2912-0.1627-2.8691-2c-0.3881-1.233-0.7027-2.2706-0.9447-3.0848
			c0,0-4.4024-0.6397-8.9772-1.5323c-0.3203-0.0625-0.2812-0.2969-0.2443-0.3828h11.8673
			c-0.3062-0.2547-0.6063-0.5204-0.8935-0.8076c-1.7692-1.7692-2.9072-3.9241-3.4434-6.1924H6V12h40v11.1683
			c1.7514,0.2715,3.4567,0.8945,5,1.8831V9c0-1.1045-0.8955-2-2-2H3C1.8955,7,1,7.8955,1,9v34.99c0,1.1045,0.8955,2,2,2h16.5
			c0,0-0.5342,1.9412-1.5,5.01c-0.5779,1.8373-2.3791,1.992-2.8691,2H13c-0.5527,0-1,0.4478-1,1v2h28v-2
			C40,53.4478,39.5527,53,39,53z"/>
		<path d="M12.6279,20.9839v-5.9365h-0.7554c-0.6836,0-1.4033,0.1079-2.1348,0.3237v1.0552
			c0.5518-0.0957,0.9712-0.1318,1.5352-0.1318v4.6895H12.6279z"/>
		<path d="M17.2598,14.939c-1.5474,0-2.8423,1.2236-2.8423,3.1904c0,2.0269,1.0791,2.9624,2.6865,2.9624
			c1.5229,0,2.8423-1.2114,2.8423-3.1782C19.9463,15.9707,18.8311,14.939,17.2598,14.939z M17.188,19.9404
			c-0.8516,0-1.4272-0.5156-1.4272-1.8828c0-1.2236,0.5996-1.9673,1.415-1.9673c0.8755,0,1.4272,0.5879,1.4272,1.8472
			C18.603,19.2207,17.9912,19.9404,17.188,19.9404z"/>
		<path d="M23.6196,20.9839v-5.9365h-0.7554c-0.6836,0-1.4033,0.1079-2.1348,0.3237v1.0552
			c0.5518-0.0957,0.9712-0.1318,1.5352-0.1318v4.6895H23.6196z"/>
		<path d="M28.2515,14.939c-1.5474,0-2.8423,1.2236-2.8423,3.1904c0,2.0269,1.0791,2.9624,2.6865,2.9624
			c1.5229,0,2.8423-1.2114,2.8423-3.1782C30.938,15.9707,29.8228,14.939,28.2515,14.939z M28.1797,19.9404
			c-0.8516,0-1.4272-0.5156-1.4272-1.8828c0-1.2236,0.5996-1.9673,1.415-1.9673c0.8755,0,1.4272,0.5879,1.4272,1.8472
			C29.5947,19.2207,28.9829,19.9404,28.1797,19.9404z"/>
		<path d="M34.6113,20.9839v-5.9365H33.856c-0.6836,0-1.4033,0.1079-2.1348,0.3237v1.0552
			c0.5518-0.0957,0.9712-0.1318,1.5352-0.1318v4.6895H34.6113z"/>
		<path d="M41.9297,17.9136c0-1.9429-1.1152-2.9746-2.6865-2.9746c-1.5474,0-2.8423,1.2236-2.8423,3.1904
			c0,2.0269,1.0791,2.9624,2.6865,2.9624C40.6104,21.0918,41.9297,19.8804,41.9297,17.9136z M37.7441,18.0576
			c0-1.2236,0.5996-1.9673,1.415-1.9673c0.8755,0,1.4272,0.5879,1.4272,1.8472c0,1.2832-0.6118,2.0029-1.415,2.0029
			C38.3198,19.9404,37.7441,19.4248,37.7441,18.0576z"/>
		<path d="M15.3506,25.9136c0-1.9429-1.1152-2.9746-2.6865-2.9746c-1.5474,0-2.8423,1.2236-2.8423,3.1904
			c0,2.0269,1.0791,2.9624,2.6865,2.9624C14.0312,29.0918,15.3506,27.8804,15.3506,25.9136z M12.5923,27.9404
			c-0.8516,0-1.4272-0.5156-1.4272-1.8828c0-1.2236,0.5996-1.9673,1.415-1.9673c0.8755,0,1.4272,0.5879,1.4272,1.8472
			C14.0073,27.2207,13.3955,27.9404,12.5923,27.9404z"/>
		<path d="M19.0239,28.9839v-5.9365h-0.7554c-0.6836,0-1.4033,0.1079-2.1348,0.3237v1.0552
			c0.5518-0.0957,0.9712-0.1318,1.5352-0.1318v4.6895H19.0239z"/>
		<path d="M26.3423,25.9136c0-1.9429-1.1152-2.9746-2.6865-2.9746c-1.5474,0-2.8423,1.2236-2.8423,3.1904
			c0,2.0269,1.0791,2.9624,2.6865,2.9624C25.0229,29.0918,26.3423,27.8804,26.3423,25.9136z M23.584,27.9404
			c-0.8516,0-1.4272-0.5156-1.4272-1.8828c0-1.2236,0.5996-1.9673,1.415-1.9673c0.8755,0,1.4272,0.5879,1.4272,1.8472
			C24.999,27.2207,24.3872,27.9404,23.584,27.9404z"/>
		<path d="M30.0156,28.9839v-5.9365h-0.7554c-0.6836,0-1.4033,0.1079-2.1348,0.3237v1.0552
			c0.5518-0.0957,0.9712-0.1318,1.5352-0.1318v4.6895H30.0156z"/>
		<path d="M34.5635,24.0903c0.8359,0,1.3708,0.5432,1.4181,1.6877c0.3956-0.3111,0.8063-0.5916,1.2274-0.8502
			c-0.3212-1.2971-1.285-1.9889-2.5615-1.9889c-1.5474,0-2.8423,1.2236-2.8423,3.1904c0,1.3978,0.5215,2.2651,1.3672,2.6759
			c0.2299-0.3453,0.4759-0.683,0.7424-1.0098c-0.4727-0.2326-0.7664-0.7676-0.7664-1.7379
			C33.1484,24.834,33.748,24.0903,34.5635,24.0903z"/>
		<path d="M12.6279,36.9844v-5.937h-0.7554c-0.6836,0-1.4033,0.1079-2.1348,0.3237v1.0552
			c0.5518-0.0957,0.9712-0.1318,1.5352-0.1318v4.6899H12.6279z"/>
		<path d="M17.104,37.0918c1.5229,0,2.8423-1.2109,2.8423-3.1777c0-1.9434-1.1152-2.9751-2.6865-2.9751
			c-1.5474,0-2.8423,1.2236-2.8423,3.1909C14.4175,36.1562,15.4966,37.0918,17.104,37.0918z M17.1758,32.0903
			c0.8755,0,1.4272,0.5879,1.4272,1.8472c0,1.2832-0.6118,2.0029-1.415,2.0029c-0.8516,0-1.4272-0.5156-1.4272-1.8828
			C15.7607,32.834,16.3604,32.0903,17.1758,32.0903z"/>
		<path d="M23.6196,36.9844v-5.937h-0.7554c-0.6836,0-1.4033,0.1079-2.1348,0.3237v1.0552
			c0.5518-0.0957,0.9712-0.1318,1.5352-0.1318v4.6899H23.6196z"/>
		<path d="M28.0957,37.0918c1.5229,0,2.8423-1.2109,2.8423-3.1777c0-1.9434-1.1152-2.9751-2.6865-2.9751
			c-1.5474,0-2.8423,1.2236-2.8423,3.1909C25.4092,36.1562,26.4883,37.0918,28.0957,37.0918z M28.1675,32.0903
			c0.8755,0,1.4272,0.5879,1.4272,1.8472c0,1.2832-0.6118,2.0029-1.415,2.0029c-0.8516,0-1.4272-0.5156-1.4272-1.8828
			C26.7524,32.834,27.3521,32.0903,28.1675,32.0903z"/>
		<path d="M61.4099,49.339l-8.1638-7.3851c2.7487-4.2602,2.2626-10.0015-1.4679-13.7321c-4.2958-4.2958-11.2606-4.2958-15.5564,0
			c-4.2957,4.2958-4.2957,11.2606,0,15.5563c3.7305,3.7305,9.4718,4.2166,13.7321,1.4679l7.3851,8.1639
			c1.0327,1.145,2.6847,0.9419,3.8488-0.2222C62.3518,52.0236,62.555,50.3716,61.4099,49.339z M49.0205,41.0204
			c-2.7728,2.7728-7.2682,2.7728-10.041,0c-2.7726-2.7727-2.7726-7.2681,0-10.0409c2.7728-2.7727,7.2682-2.7727,10.041,0
			C51.7932,33.7523,51.7932,38.2477,49.0205,41.0204z"/>
	</g>
</g>
</svg>
