<?xml version="1.0" encoding="utf-8"?>
<!-- Generator: Adobe Illustrator 17.1.0, SVG Export Plug-In . SVG Version: 6.00 Build 0)  -->
<svg version="1.2" baseProfile="tiny" xmlns="http://www.w3.org/2000/svg" xmlns:xlink="http://www.w3.org/1999/xlink" x="0px"
	 y="0px" width="64px" height="64px" viewBox="0 0 64 64" xml:space="preserve">
<g id="Box">
	<rect fill="none" width="64" height="64"/>
</g>
<g id="Icon">
	<g>
		<path d="M10.0396,49.0002c-3.249-0.0232-5.0159,2.2711-5.0393,5.5532c-0.0253,3.4592,1.7949,5.4234,4.9612,5.4468
			c3.167,0.0223,5.0159-2.1821,5.0383-5.3752C15.0259,50.9869,13.124,49.0228,10.0396,49.0002z"/>
		<path d="M25.0396,49.0002c-3.249-0.0232-5.0159,2.2711-5.0393,5.5532c-0.0253,3.4592,1.7949,5.4234,4.9612,5.4468
			c3.167,0.0223,5.0159-2.1821,5.0383-5.3752C30.0259,50.9869,28.124,49.0228,25.0396,49.0002z"/>
		<path d="M21.9998,42.625c0.0261-3.6381-1.8757-5.6022-4.9602-5.6248c-3.249-0.0232-5.0159,2.2711-5.0393,5.5532
			c-0.0253,3.4592,1.7949,5.4234,4.9612,5.4468C20.1284,48.0225,21.9773,45.8181,21.9998,42.625z"/>
		<path d="M36.9998,42.625c0.0261-3.6381-1.8757-5.6022-4.9602-5.6248c-3.249-0.0232-5.0159,2.2711-5.0393,5.5532
			c-0.0253,3.4592,1.7949,5.4234,4.9612,5.4468C35.1284,48.0225,36.9773,45.8181,36.9998,42.625z"/>
		<path d="M51.4495,28.7438C51.3024,28.3083,51,28.4131,51,28.4131V33h1.5057C52.1243,31.1143,51.7126,29.5233,51.4495,28.7438z"/>
		<path d="M4,4v29h34.9095L39,25.3636c-4.0182-0.5453-9.228-1.1131-13-1.4933c-3.9766-0.4008-4.1547-3.6983-4.1547-3.6983
			C29.092,19.82,42.8643,19.4786,50.038,21c3.9252,0.8325,5.6915,6.2119,6.6971,12H60V4H4z M44.952,18.1193
			c-3.2307,0-5.1006-2.002-5.1006-5.5504c0-3.3677,1.7856-5.7332,5.1006-5.7332c3.1465,0,5.1006,2.0009,5.1006,5.7332
			C50.0526,15.8436,48.1832,18.1193,44.952,18.1193z"/>
		<path d="M51.9998,42.625c0.0261-3.6381-1.8757-5.6022-4.9602-5.6248c-3.249-0.0232-5.0159,2.2711-5.0393,5.5532
			c-0.0253,3.4592,1.7949,5.4234,4.9612,5.4468C50.1284,48.0225,51.9773,45.8181,51.9998,42.625z"/>
		<path d="M40.0396,49.0002c-3.249-0.0232-5.0159,2.2711-5.0393,5.5532c-0.0253,3.4592,1.7949,5.4234,4.9612,5.4468
			c3.167,0.0223,5.0159-2.1821,5.0383-5.3752C45.0259,50.9869,43.124,49.0228,40.0396,49.0002z"/>
		<path d="M54.0396,49.0002c-3.249-0.0232-5.0159,2.2711-5.0393,5.5532c-0.0253,3.4592,1.7949,5.4234,4.9612,5.4468
			c3.167,0.0223,5.0159-2.1821,5.0383-5.3752C59.0259,50.9869,57.124,49.0228,54.0396,49.0002z"/>
	</g>
</g>
</svg>
