<svg height="64" viewBox="0 0 64 64" width="64" xmlns="http://www.w3.org/2000/svg"><path d="m0 0h64v64h-64z" fill="none"/><path d="m51.4302 20.4561-14.8202-14.8492c-.375-.375-.8757-.6069-1.4064-.6069h-21.1714c-1.1045 0-2.0322.9375-2.0322 2.042v46c0 1.1045.9277 1.958 2.0322 1.958h17.9678v-5h-15v-40h16.7407l.9155-3.1139c.109-.3406.3438-.21.3438-.21v14.3659c0 .5522.48.958 1.0322.958h14.3669s.1065.2714-.2346.3804l-3.1645.9534v26.6662h-5v5h8.0322c1.1001 0 1.9678-.8584 1.9678-1.958v-31.1714c0-.5307-.1948-1.0395-.5698-1.4145z"/><path d="m37.0322 41.042c-2.7614 0-5.0161 2.2386-5.0161 5 0 1.6305.9839 3.0646 1.9839 3.9774v8.459c0 .5012.6221.7521.9764.3978l1.65-1.6419c.2197-.2197.5799-.2197.7996 0l1.6278 1.6419c.3543.3543.9462.1033.9462-.3979v-8.459c1-.9127 2.0161-2.3469 2.0161-3.9774 0-2.7613-2.2225-4.9999-4.9839-4.9999zm0 7c-1.1028 0-2-.8972-2-2s.8972-2 2-2 2 .8972 2 2-.8972 2-2 2z"/><path d="m21 28h22v3h-22z"/><path d="m21 15h10v3h-10z"/><path d="m21 20h10v3h-10z"/><path d="m34.4152 32.9858c-.6084 1.2807-1.5048 2.9172-1.1264 4.3739.0731.2812.3146.4071.5786.4405.5654.0715 1.4996-.598 1.9819-1.221-.0024.0697-.0029.1285.001.1542.045.2971.1851.6938.4298.8932.2119.1725.4779.2354.7271.0938.3677-.209.6072-.5484.8329-.9049.0287.3635.1655.6782.5291.8548.7718.375 1.2123-.2925 1.6194-.8887.1473.2029.4105.3566.6694.2667.752-.261.4911-.8593 1.02-.0912.4352.632 1.4756.0326 1.0361-.6057-.314-.456-.2358-1.0122-.8365-1.1573-.3995-.0965-.7214.1541-1.0331.3887-.0106-.0436-.0286-.0851-.038-.129-.0886-.3461-.5667-.5883-.8814-.3586-.5232.382-.6096.7387-.8904 1.2698-.2407.4549.1127-.3915.1487-.6559.0314-.2302.0679-.4543.0805-.6867.0261-.4824-.5217-.71-.9028-.5181-.5745.2892-.8712.8544-1.197 1.3598.1007-.4465.2014-.9368-.0027-1.2065-.1187-.1569-.2981-.325-.5181-.2972-.8703.1102-1.5689 1.474-2.2316 2.0145.0853-.9531.6918-2.0511 1.0397-2.7834.3297-.6939-.7046-1.3035-1.0362-.6057z"/><path d="m22.3074 32.9858c-.6084 1.2807-1.5048 2.9172-1.1264 4.3739.0731.2812.3146.4071.5786.4405.5654.0715 1.4996-.598 1.9819-1.221-.0024.0697-.0029.1285.001.1542.045.2971.1851.6938.4298.8932.2119.1725.4778.2354.7271.0938.3677-.209.6073-.5485.8329-.905.0287.3635.1655.6782.5291.8549.7718.375 1.2123-.2925 1.6194-.8887.1473.2029.4105.3566.6694.2667.7521-.261.4911-.8593 1.0201-.0912.4352.632 1.4756.0326 1.0361-.6057-.314-.456-.2358-1.0122-.8365-1.1573-.3995-.0965-.7213.1541-1.0331.3888-.0106-.0436-.0286-.0851-.038-.1291-.0886-.3461-.5668-.5883-.8814-.3586-.5233.382-.6096.7387-.8905 1.2698-.2406.4549.1127-.3915.1488-.6559.0314-.2302.0679-.4543.0804-.6867.0261-.4824-.5216-.71-.9028-.5181-.5745.2892-.8712.8545-1.1969 1.3598.1007-.4465.2014-.9368-.0027-1.2065-.1188-.1569-.2981-.325-.5181-.2972-.8703.1102-1.5689 1.474-2.2316 2.0145.0853-.9531.6918-2.0511 1.0397-2.7834.3296-.6939-.7047-1.3035-1.0363-.6057z"/></svg>