<?xml version="1.0" encoding="utf-8"?>
<!-- Generator: Adobe Illustrator 19.1.0, SVG Export Plug-In . SVG Version: 6.00 Build 0)  -->
<svg version="1.2" baseProfile="tiny" xmlns="http://www.w3.org/2000/svg" xmlns:xlink="http://www.w3.org/1999/xlink" x="0px"
	 y="0px" width="64px" height="64px" viewBox="0 0 64 64" xml:space="preserve">
<g id="_x36_4px_Box">
	<rect fill="none" width="64" height="64"/>
</g>
<g id="Icon">
	<g>
		<path d="M51.4141,22.4141L36.5859,7.5859C36.2109,7.2109,35.7021,7,35.1714,7H14c-1.1045,0-2,0.8955-2,2v46c0,1.1045,0.8955,2,2,2
			h18v-5H17V12h16.7085l0.9316-3.1349C34.7491,8.5245,35,8.6341,35,8.6341V23c0,0.5522,0.4478,1,1,1h14.3669
			c0,0,0.1226,0.2504-0.2185,0.3594L47,25.2918V52h-5v5h8c1.1001,0,2-0.9004,2-2V23.8286
			C52,23.2979,51.7891,22.7891,51.4141,22.4141z"/>
		<path d="M21,38.2616C21.8488,38.6505,22.9149,39,24.0286,39c1.598,0,3.1088-0.7175,4-1.2422c0.8913,0.5247,2.402,1.2422,4,1.2422
			c1.598,0,3.1088-0.7175,4-1.2422c0.8913,0.5247,2.402,1.2422,4,1.2422c1.0889,0,2.132-0.3342,2.9714-0.7125v-2.9872
			c-0.8064,0.5314-1.8821,1.093-2.9714,1.093c-1.641,0-3.2772-1.2911-4-1.8334c-0.6667,0.5002-2.3232,1.8334-4,1.8334
			c-1.641,0-3.2772-1.2911-4-1.8334c-0.6667,0.5002-2.3232,1.8334-4,1.8334c-1.1071,0-2.2049-0.5865-3.0286-1.1354V38.2616z"/>
		<path d="M28.0286,31.7578c0.8913,0.5247,2.402,1.2422,4,1.2422c1.598,0,3.1088-0.7175,4-1.2422
			c0.8913,0.5247,2.402,1.2422,4,1.2422c1.0889,0,2.132-0.3342,2.9714-0.7125v-2.9872c-0.8064,0.5314-1.8821,1.093-2.9714,1.093
			c-1.641,0-3.2772-1.2911-4-1.8334c-0.6667,0.5002-2.3232,1.8334-4,1.8334c-1.641,0-3.2772-1.2911-4-1.8334
			c-0.6667,0.5002-2.3232,1.8334-4,1.8334c-1.1071,0-2.2049-0.5865-3.0286-1.1354v3.0037C21.8488,32.6505,22.9149,33,24.0286,33
			C25.6266,33,27.1374,32.2825,28.0286,31.7578z"/>
		<path d="M37,43c-2.7614,0-5,2.2386-5,5c0,1.6305,0.7922,3.0646,2,3.9774v8.459c0,0.5012,0.606,0.7521,0.9603,0.3978l1.6419-1.6419
			c0.2197-0.2197,0.5759-0.2197,0.7955,0l1.6419,1.6419C39.394,61.1885,40,60.9375,40,60.4363v-8.459
			c1.2078-0.9127,2-2.3469,2-3.9774C42,45.2386,39.7614,43,37,43z M37,50c-1.1028,0-2-0.8972-2-2s0.8972-2,2-2s2,0.8972,2,2
			S38.1028,50,37,50z"/>
	</g>
</g>
</svg>
