<?xml version="1.0" encoding="utf-8"?>
<!-- Generator: Adobe Illustrator 25.0.0, SVG Export Plug-In . SVG Version: 6.00 Build 0)  -->
<svg version="1.1" xmlns="http://www.w3.org/2000/svg" xmlns:xlink="http://www.w3.org/1999/xlink" x="0px" y="0px"
	 viewBox="0 0 64 64" style="enable-background:new 0 0 64 64;" xml:space="preserve">
<style type="text/css">
	.st0{fill:none;}
	.st1{fill:#FFFFFF;}
	.st2{fill:#B3B3B3;}
</style>
<g id="Box">
	<rect class="st0" width="64" height="64"/>
</g>
<g id="Icon">
	<g>
		<path d="M58.582,11.834c-7.681-1.112-15.408-1.112-23.089,0C33.517,12.128,32,13.966,32,15.831c0,13.446,0,26.892,0,40.338
			c0,1.866,1.592,3.703,3.569,3.997c7.681,1.112,15.332,1.112,23.014,0C60.559,59.872,62,58.034,62,56.169
			c0-13.446,0-26.892,0-40.338C62,13.966,60.559,12.128,58.582,11.834z M47,58.2c-1.491,0-2.7-1.209-2.7-2.7s1.209-2.7,2.7-2.7
			s2.7,1.209,2.7,2.7S48.491,58.2,47,58.2z M58,50H36V18h22V50z"/>
		<path d="M7,20.292l-3.148-0.932C3.51,19.25,3.633,19,3.633,19H18c0.552,0,1-0.448,1-1V3.634c0,0,0.251-0.11,0.36,0.231L20.292,7
			H37v2.628c1.662-0.204,3.33-0.358,5-0.461V4c0-1.104-0.896-2-2-2H18.829c-0.531,0-1.04,0.211-1.415,0.586L2.586,17.414
			C2.211,17.789,2,18.298,2,18.829V50c0,1.1,0.9,2,2,2h26v-5H7V20.292z"/>
		<rect x="23" y="16" width="7" height="3"/>
		<rect x="18" y="26" width="12" height="3"/>
		<rect x="11" y="26" width="5" height="3"/>
		<rect x="18" y="32" width="12" height="3"/>
		<rect x="11" y="32" width="5" height="3"/>
		<rect x="11" y="38" width="5" height="3"/>
		<rect x="18" y="38" width="12" height="3"/>
		<path d="M45.124,38.994c0.264,0.389,0.671,0.656,1.141,0.659c0.002,0,0.004,0,0.007,0c0.468,0,0.891-0.252,1.141-0.647
			c4.201-6.641,6.69-10.501,6.69-10.501c0.352-0.588,0.198-1.347-0.354-1.753c-0.552-0.406-1.322-0.325-1.778,0.185l-5.818,6.551
			l-3.836-3.38c-0.491-0.426-1.219-0.433-1.719-0.018c-0.5,0.415-0.627,1.131-0.299,1.693
			C40.298,31.783,42.402,34.997,45.124,38.994z"/>
	</g>
</g>
</svg>
