<svg enable-background="new 0 0 64 64" viewBox="0 0 64 64" xmlns="http://www.w3.org/2000/svg"><path d="m0 0h64v64h-64z" fill="none"/><path d="m27.832 30.695c-.088-.024-.192-.029-.298.021-.196.091-.292.386-.292.93 0 .545.14 1.418.84 1.634.165 1.377.718 2.331 1.457 3.126-.052.476-.102.936-.52 1.162-.917.248-3.798 1.085-4.707 2.042-1.082 1.139-1.503 5.39-1.503 5.39h18.381s-.406-4.251-1.488-5.39c-.834-.878-3.413-1.658-4.564-1.972-.538-.147-.621-.693-.679-1.249.731-.817 1.274-1.805 1.458-3.109.699-.216.84-1.089.84-1.634 0-.544-.096-.839-.292-.93-.094-.044-.186-.044-.268-.026.07-1.135.141-3.383-.332-4.227-.517-.923-1.205-1.163-2.402-.861-.786-.417-1.321-.829-2.697-.454-.957.261-2.003.686-2.555 1.397-.594.766-.479 3.001-.379 4.15z"/><path d="m50 7h-21.171c-.531 0-1.04.211-1.415.586l-14.828 14.828c-.375.375-.586.884-.586 1.415v31.171c0 1.1.9 2 2 2h36c1.104 0 2-.896 2-2v-46c0-1.104-.896-2-2-2zm-3 45h-30v-26.708l-3.148-.932c-.342-.11-.219-.36-.219-.36h14.367c.552 0 1-.448 1-1v-14.366s.251-.11.36.231l.932 3.135h16.708z"/></svg>