<?xml version="1.0" encoding="utf-8"?>
<!-- Generator: Adobe Illustrator 24.3.0, SVG Export Plug-In . SVG Version: 6.00 Build 0)  -->
<svg version="1.1" xmlns="http://www.w3.org/2000/svg" xmlns:xlink="http://www.w3.org/1999/xlink" x="0px" y="0px"
	 viewBox="0 0 64 64" style="enable-background:new 0 0 64 64;" xml:space="preserve">
<style type="text/css">
	.st0{fill:none;}
</style>
<g id="Box">
	<rect class="st0" width="64" height="64"/>
</g>
<g id="Icon">
	<g>
		<path d="M44,15.53c0-0.437-0.284-0.824-0.702-0.954L25.35,8.966c-0.038-0.012-0.078-0.01-0.117-0.018
			c-0.19-0.055-0.386-0.087-0.584-0.083L6.12,9.247C5.835,9.253,5.77,9.648,6.038,9.745l20.432,7.389
			c0.424,0.133,0.872,0.168,1.311,0.102c0,0,13.51-1.765,13.586-1.768c0.262-0.013,0.285,0.152,0.286,0.199l-16.653,6.264
			L9.452,16.104l4.43-1.384l-3.536-1.283l-3.645,1.139C6.284,14.706,6,15.092,6,15.53v24.64c0,0.361,0.195,0.694,0.51,0.872
			l18,10.125c0.304,0.171,0.676,0.171,0.98,0l9.31-5.237V32.091c0-1.331,0.781-2.541,1.99-3.083c1.251-0.561,3.581-1.38,7.209-1.847
			V15.53z"/>
		<path d="M62.31,31.016C60.844,30.359,56.97,29,50,29s-10.844,1.359-12.31,2.016c-0.423,0.19-0.69,0.612-0.69,1.075V49.2
			c0,2.005,0.854,3.915,2.336,5.266c3.939,3.59,8.373,5.55,10.011,6.198c0.421,0.167,0.884,0.167,1.306,0
			c1.638-0.648,6.072-2.609,10.011-6.198C62.146,53.115,63,51.205,63,49.2V32.091C63,31.628,62.733,31.206,62.31,31.016z
			 M48.713,39.175c-0.195-0.028-0.395-0.043-0.597-0.043c-2.347,0-4.263,1.915-4.263,4.26c0,2.347,1.916,4.26,4.263,4.26
			c0.202,0,0.402-0.015,0.597-0.043v1.789c-0.195,0.019-0.395,0.03-0.597,0.03c-3.326,0-6.039-2.712-6.039-6.036
			s2.712-6.036,6.039-6.036c0.202,0,0.402,0.011,0.597,0.03V39.175z M57.551,39.175c-0.198-0.028-0.397-0.043-0.599-0.043
			c-2.031,0-3.736,1.432-4.159,3.339h3.487v1.845h-3.487c0.423,1.905,2.128,3.337,4.159,3.337c0.202,0,0.404-0.015,0.599-0.043
			v1.789c-0.198,0.019-0.397,0.03-0.599,0.03c-3.326,0-6.036-2.712-6.036-6.036s2.71-6.036,6.036-6.036
			c0.202,0,0.402,0.011,0.599,0.03V39.175z"/>
	</g>
</g>
</svg>
