<?xml version="1.0" encoding="utf-8"?>
<!-- Generator: Adobe Illustrator 19.1.0, SVG Export Plug-In . SVG Version: 6.00 Build 0)  -->
<svg version="1.2" baseProfile="tiny" xmlns="http://www.w3.org/2000/svg" xmlns:xlink="http://www.w3.org/1999/xlink" x="0px"
	 y="0px" width="64px" height="64px" viewBox="0 0 64 64" xml:space="preserve">
<g id="Box">
	<rect fill="none" width="64" height="64"/>
</g>
<g id="Icon">
	<g>
		<polygon points="0.4928,19.0118 8.0536,26.8358 10.1342,24.9653 2.1915,16.5106 		"/>
		<polygon points="46.8575,26.8358 54.4183,19.0118 52.7195,16.5106 44.7769,24.9653 		"/>
		<path d="M30.8539,50l0.4205-2.1987c0.2373-1.1924,0.8057-2.2539,1.6465-3.0952L42,35.6274V22.4689l1.2897,1.1594l8.2788-8.8126
			l-6.2018-9.1315C44.7838,4.81,43.926,4.1548,42.9291,3.8226L35.9614,1.5c-2.0035,3.3554-5.5914,6.9866-9.8808,6.3121
			c-0.3233-0.0508-0.3669-0.2568-0.279-0.361c2.1647-0.4424,4.6183-2.1072,6.4539-4.2833c-1.3759,0.4478-3.0329,0.811-4.8,0.811
			c-4.6205,0-8.5059-2.4788-8.5059-2.4788l-6.9677,2.3226C10.985,4.1548,10.1273,4.81,9.5444,5.6843l-6.2018,9.1315l8.2788,8.8125
			L13,22.389V50H30.8539z M24,20.9257v-2.836c1.6389-0.4837,3.2999-0.8475,4.8322-0.8475H30V31h-3V20.6306
			C25.7366,20.6306,25.2363,20.7109,24,20.9257z"/>
		<path d="M63.2194,32.8013c-0.992-0.9919-5.4362-5.4362-6.4282-6.4281c-1.0516-1.0516-2.5945,0.3283-1.9127,1.5555
			c0.7935,1.4285,1.2202,2.0931,1.2202,2.0931l-3.622,3.6219c0,0,0.5939,1.1327,1.7027,3.2654
			c0.1497,0.2879-0.0417,0.3982-0.08,0.4157c0,0-5.7004-5.6995-6.9102-6.9092c-0.813-0.8121-2.4491,0.4388-1.7328,1.7061
			c0.7004,1.2392,1.6946,2.8796,1.6946,2.8796L35.1838,46.9688c-0.3917,0.3917-0.6587,0.8906-0.7673,1.4337l-1.256,6.5738
			L26,62.3857h2.4125l6.1964-5.9521l6.5936-1.2422c0.5459-0.1077,1.0474-0.3754,1.4409-0.7688L54.608,42.458
			c0,0,1.6403,0.9943,2.8796,1.6948c1.2673,0.7163,2.5181-0.9198,1.7061-1.7329c-1.2141-1.2141-2.7076-2.7076-4.2745-4.2745
			l4.6516-4.6516c0,0,0.6646,0.4266,2.0931,1.2202C62.8911,35.3958,64.2709,33.8529,63.2194,32.8013z M49.9592,43.1054
			l-1.984-1.9839l-0.9921,1.9839l1.488,1.488l-1.488,1.488l-1.984-1.984l-0.9919,1.984l1.4879,1.488l-1.488,1.488l-1.9841-1.984
			l-0.9919,1.9841l1.488,1.488l-1.488,1.488l-3.472-3.472l11.408-11.408l3.472,3.472L49.9592,43.1054z"/>
	</g>
</g>
</svg>
