<svg xmlns="http://www.w3.org/2000/svg" viewBox="0 0 64 64"><defs><style>.cls-1{fill:none;}</style></defs><g id="BOX"><rect class="cls-1" width="64" height="64"/></g><g id="ICOON"><path d="M16.84,32.87c-.08,0-.17,0-.26.18-.74,1.46-1.9,2-2.29,3.15a2.09,2.09,0,1,0,4.12.56c-.07-1.18-1-2-1.36-3.64C17,32.92,16.93,32.89,16.84,32.87Z"/><path d="M24.38,33c-.06-.18-.15-.21-.23-.21s-.17,0-.24.21c-.53,1.55-1.61,2.26-1.83,3.44a2.08,2.08,0,1,0,4.15,0C26,35.24,24.92,34.53,24.38,33Z"/><path d="M15.76,41.44c-.09,0-.17,0-.26.18-.74,1.46-1.91,2-2.29,3.14a2.08,2.08,0,1,0,4.11.57c-.06-1.19-1-2-1.36-3.65C15.92,41.49,15.85,41.45,15.76,41.44Z"/><path d="M24.38,42.06c-.06-.18-.15-.21-.23-.21s-.17,0-.24.22c-.53,1.55-1.61,2.25-1.83,3.43a2.08,2.08,0,1,0,4.15,0C26,44.32,24.92,43.61,24.38,42.06Z"/><path d="M14.68,50c-.09,0-.18,0-.26.18-.75,1.46-1.91,2-2.3,3.14a2.09,2.09,0,1,0,4.12.56c-.07-1.18-1-2-1.36-3.64C14.84,50.06,14.76,50,14.68,50Z"/><path d="M24.38,51.15c-.06-.19-.15-.22-.23-.21s-.17,0-.24.21c-.53,1.55-1.61,2.25-1.83,3.43a2.08,2.08,0,1,0,4.15,0C26,53.4,24.92,52.69,24.38,51.15Z"/><path d="M32.37,38.73a2,2,0,0,0,1.74-2.53c-.38-1.14-1.55-1.69-2.29-3.15-.09-.17-.17-.19-.26-.18s-.16.05-.2.25c-.32,1.6-1.29,2.46-1.36,3.64A2,2,0,0,0,32.37,38.73Z"/><path d="M33.45,47.3a2,2,0,0,0,1.75-2.54c-.38-1.13-1.55-1.68-2.29-3.14-.09-.18-.18-.19-.26-.18s-.17.05-.21.24c-.32,1.61-1.29,2.46-1.36,3.65A2,2,0,0,0,33.45,47.3Z"/><path d="M34,50.19c-.09-.18-.17-.19-.26-.18s-.16.05-.2.24c-.32,1.61-1.29,2.46-1.36,3.64a2.08,2.08,0,1,0,4.11-.56C35.9,52.2,34.73,51.65,34,50.19Z"/><path d="M42.53,6.7H30.2a9,9,0,0,0-9,9v4l-8.54,5.13A3,3,0,0,0,11.2,27.4v2.3a1,1,0,0,0,1,1h24a1,1,0,0,0,1-1V27.4a3,3,0,0,0-1.45-2.57L27.2,19.7h-4c-.07-.19,0-.4.3-.47l3.66-.77V15.7a3,3,0,0,1,3-3H42.53a3,3,0,0,1,3,3V56.86l3,0,3,0V15.7A9,9,0,0,0,42.53,6.7Z"/></g></svg>