<svg xmlns="http://www.w3.org/2000/svg" viewBox="0 0 64 64"><defs><style>.cls-1{fill:none;}</style></defs><g id="BOX"><rect class="cls-1" width="64" height="64"/></g><g id="ICOON"><path d="M9.36,6H37.21V31.33c1.22-.16,2.6-.26,4-.34V4a2,2,0,0,0-2-2h-31a2,2,0,0,0-2,2V58.24h4l19-4.82V11L9.36,7ZM24.7,28.33a1.5,1.5,0,1,1-1.5,1.5A1.5,1.5,0,0,1,24.7,28.33Z"/><path d="M59.3,36.69A2.73,2.73,0,0,0,57,34.43a77.35,77.35,0,0,0-10.17-.56,77.48,77.48,0,0,0-10.18.56,2.74,2.74,0,0,0-2.26,2.26,77.48,77.48,0,0,0-.56,10.18A77.35,77.35,0,0,0,34.43,57a2.73,2.73,0,0,0,2.26,2.26,76.13,76.13,0,0,0,10.18.57A76,76,0,0,0,57,59.3,2.72,2.72,0,0,0,59.3,57a76,76,0,0,0,.57-10.17A60.94,60.94,0,0,0,59.3,36.69ZM40.38,46.2l5.51-7a1.25,1.25,0,0,1,1-.47,1.22,1.22,0,0,1,1,.47l5.51,7a1.2,1.2,0,0,1,.26.77,1.27,1.27,0,0,1-.3.81,1.25,1.25,0,0,1-1.56.27l-.94-.54-1.23-.7-.88-.51v7.39c0,1-.86,1.29-1.83,1.29S45,54.69,45,53.69V46.3L42,48.05a1.25,1.25,0,0,1-1.6-1.85Z"/></g></svg>