<?xml version="1.0" encoding="utf-8"?>
<!-- Generator: Adobe Illustrator 24.1.3, SVG Export Plug-In . SVG Version: 6.00 Build 0)  -->
<svg version="1.1" xmlns="http://www.w3.org/2000/svg" xmlns:xlink="http://www.w3.org/1999/xlink" x="0px" y="0px"
	 viewBox="0 0 64 64" style="enable-background:new 0 0 64 64;" xml:space="preserve">
<style type="text/css">
	.st0{fill:none;}
</style>
<g id="Box">
	<rect class="st0" width="64" height="64"/>
</g>
<g id="Icon">
	<g>
		<path d="M52,14.7l-3-1.1V2.4c0-0.7-0.7-1.2-1.3-0.9L32,7.3L16.3,1.5C15.7,1.3,15,1.7,15,2.4v11.2l-3,1.1c-0.6,0.2-1,0.8-1,1.4
			v32.2c0,0.7,0.8,1.2,1.4,0.9l18-8.8l1.2-5.8c0.1-0.3,0.3-0.3,0.4-0.2v5.3l19.6,9.5c0.7,0.3,1.4-0.2,1.4-0.9V16.1
			C53,15.5,52.6,14.9,52,14.7z M18,5.8l8.8,3.4L18,12.5V5.8z M29,31.2l-14,6.1V17.8l14-5.4V31.2z M46,5.8v6.7l-8.8-3.3L46,5.8z
			 M49,37.3l-14-6.1V12.4l14,5.4V37.3z"/>
		<path d="M44.8,49.6l-10.5-2.9c-0.8-0.3-1.4,0.2-1.8,0.8c-0.3,0.7-0.1,1.6,0.4,2l3.2,2.5c-6.5,1.8-11.8-0.2-15-2.1
			c-2.1-1.3-5.7,2.3-3.1,4c4.3,2.8,11.4,5.5,20.1,2.8l-0.6,4.1c-0.1,0.6,0.4,1.3,1.1,1.6s1.5-0.1,1.8-0.7l5.4-9.9
			c0.2-0.4,0.2-0.9,0.1-1.3C45.7,50,45.3,49.7,44.8,49.6z"/>
	</g>
</g>
</svg>
