<?xml version="1.0" encoding="utf-8"?>
<!-- Generator: Adobe Illustrator 24.0.1, SVG Export Plug-In . SVG Version: 6.00 Build 0)  -->
<svg version="1.1" xmlns="http://www.w3.org/2000/svg" xmlns:xlink="http://www.w3.org/1999/xlink" x="0px" y="0px"
	 viewBox="0 0 64 64" style="enable-background:new 0 0 64 64;" xml:space="preserve">
<style type="text/css">
	.st0{fill:none;}
	.st1{fill:#FF1D25;}
	.st2{fill:#1D1D1B;}
</style>
<g id="Box">
	<rect class="st0" width="64" height="64"/>
</g>
<g id="Icon">
	<g>
		<polygon points="13,39 13,60 29,60 29,47 31,47 31,60 33,60 33,47 35,47 35,60 37,60 37,47 39,47 39,60 41,60 41,47 43,47 43,60 
			45,60 45,47 47,47 47,60 63,60 63,39 		"/>
		<path d="M58,5H33v32h25V5z M43,33h-4v-4h4V33z M43,24h-4v-4h4V24z M43,15h-4v-4h4V15z M52,33h-4v-4h4V33z M52,24h-4v-4h4V24z
			 M52,15h-4v-4h4V15z"/>
		<path d="M20,30.3L16.9,31c-1.3,0.3-1.3,2.2,0.1,2.4l8.7,1.5c0.8,0.1,1.5-0.5,1.4-1.3l-0.6-8.8c-0.1-1.3-2-1.6-2.4-0.3l-1,3.1
			c-2.1-2.6-5.3-4.2-8.7-4.2C8.1,23.4,3,28.5,3,34.7V47h4V34.7c0-4,3.3-7.3,7.3-7.3C16.6,27.4,18.7,28.5,20,30.3z"/>
	</g>
</g>
</svg>
