<?xml version="1.0" encoding="utf-8"?>
<!-- Generator: Adobe Illustrator 24.1.3, SVG Export Plug-In . SVG Version: 6.00 Build 0)  -->
<svg version="1.1" xmlns="http://www.w3.org/2000/svg" xmlns:xlink="http://www.w3.org/1999/xlink" x="0px" y="0px"
	 viewBox="0 0 64 64" style="enable-background:new 0 0 64 64;" xml:space="preserve">
<style type="text/css">
	.st0{fill:none;}
</style>
<g id="Box">
	<rect class="st0" width="64" height="64"/>
</g>
<g id="Icon">
	<g>
		<path d="M52,12c0-5.3-10.1-8-20-8s-20,2.7-20,8c0,1.6,1,3,2.6,4.2L20,54c0,2.8,5.4,5,12,5s12-2.2,12-5l5.4-37.8
			C51,15,52,13.6,52,12z M32,7c10.4,0,17,3,17,5s-6.6,5-17,5s-17-3-17-5S21.6,7,32,7z M35.6,42.3c-4.2,2-7.9-0.8-9.7-4.6
			s-1.7-8.4,2.6-10.4c4.2-2,7.9,0.8,9.7,4.6S39.8,40.2,35.6,42.3z"/>
		<path d="M35.5,38.7c-1.6-0.9-2.4-1.7-2.3-3.4c0.2-2.9-1-5.2-3.9-5.8c-0.6-0.1-1.1,0.7-0.4,1.2c2.4,1.9,1.9,2.1,2,4.7
			c0.1,2.9,2,4.5,4.3,4.6l0,0c0,0,0,0,0,0C35.9,39.9,36,39.1,35.5,38.7z"/>
	</g>
</g>
</svg>
