<?xml version="1.0" encoding="utf-8"?>
<!-- Generator: Adobe Illustrator 18.1.1, SVG Export Plug-In . SVG Version: 6.00 Build 0)  -->
<svg version="1.2" baseProfile="tiny" xmlns="http://www.w3.org/2000/svg" xmlns:xlink="http://www.w3.org/1999/xlink" x="0px"
	 y="0px" width="64px" height="64px" viewBox="0 0 64 64" xml:space="preserve">
<g id="Box">
	<rect fill="none" width="64" height="64"/>
</g>
<g id="Icon">
	<g>
		<path d="M50.5768,36.9569C48.5957,26.9537,37.5819,20.6586,33.1193,7.3665C32.7729,6.335,32.4636,6,32.004,6
			s-0.7693,0.335-1.1156,1.3665C26.4259,20.6586,15.4462,26.9604,13.431,36.957C11.3188,47.4344,19.6879,57,32.0038,57
			C44.3196,57,52.6581,47.466,50.5768,36.9569z M44.2933,48.0155c-2.7893,3.3678-7.2686,5.2996-12.2891,5.2996
			c-5.0314,0-9.5206-1.9427-12.3168-5.3301c-2.3888-2.8934-3.2958-6.513-2.5543-10.1917c0.8257-4.094,3.717-7.7422,7.0643-11.9671
			c2.6129-3.2988,5.4685-6.9017,7.8078-11.2969c2.3372,4.3853,5.1909,7.9824,7.8028,11.2743
			c3.3552,4.2278,6.2526,7.88,7.0634,11.976C47.6059,41.4868,46.69,45.1222,44.2933,48.0155z"/>
		<path d="M25.6376,43.3495c-2.3734-2.895-3.3262-6.5198-2.6522-10.219c-0.1512-0.0889-0.3596-0.1097-0.5436,0.1917
			c-1.0234,1.6764-1.8265,3.2629-2.1474,4.8643c-0.5508,2.7529,0.1221,5.46,1.8955,7.623C24.3726,48.4727,27.9497,50,32.0044,50
			c1.4874,0,2.9056-0.2122,4.2164-0.6061c0.3644-0.1095,0.4154-0.3001,0.3073-0.4491
			C32.0428,48.395,28.1609,46.4283,25.6376,43.3495z"/>
	</g>
</g>
</svg>
