<svg enable-background="new 0 0 64 64" height="64" viewBox="0 0 64 64" width="64" xmlns="http://www.w3.org/2000/svg"><path d="m0 0h64v64h-64z" fill="none"/><path d="m54.3 32.7s2-1.4 1.9-3.7c-.1-2.9-2.8-3.9-2.8-3.9s1.8-1.2 1.6-3.5c-.2-2.2-1.9-3.4-2.9-3.9 1.1-1.7.3-4.7-3-5.8-3.6-1.2-9.3-.8-12.3-.7-11.5.1-9.4 4.8-15.2 4.8h-3.6v-4c0-.6-.4-1-1-1h-10v26h10c1 0 1-1 1-1v-11.7c.1 0 .6-.1.7.4.1.4.9 7.7 1.3 11.5 3 .5 6 1.8 8.4 4.6 3.3 4 5.8 10.2 6.9 15.4.5 2.1 1.4 2.9 2.8 2.7s2.8-2 2.7-5.6c-.1-4.3-.5-6.3-2.1-11-.2-.7.2-1.3.9-1.3h12.7c2.6 0 4.8-1.8 4.6-4.3-.2-2-1.3-3-2.6-4z"/></svg>