<?xml version="1.0" encoding="utf-8"?>
<!-- Generator: Adobe Illustrator 21.0.2, SVG Export Plug-In . SVG Version: 6.00 Build 0)  -->
<!DOCTYPE svg PUBLIC "-//W3C//DTD SVG 1.1//EN" "http://www.w3.org/Graphics/SVG/1.1/DTD/svg11.dtd">
<svg version="1.1" xmlns="http://www.w3.org/2000/svg" xmlns:xlink="http://www.w3.org/1999/xlink" x="0px" y="0px" width="64px"
	 height="64px" viewBox="0 0 64 64" style="enable-background:new 0 0 64 64;" xml:space="preserve">
<style type="text/css">
	.st0{fill:none;}
</style>
<g id="_x36_4px_Box">
	<rect class="st0" width="64" height="64"/>
</g>
<g id="Icon">
	<g>
		<g>
			<path d="M54.3,32.7c0,0,2-1.4,1.9-3.7c-0.1-2.9-2.8-3.9-2.8-3.9c0,0,1.8-1.2,1.6-3.5c-0.2-2.2-1.9-3.4-2.9-3.9
				c1.1-1.7,0.3-4.7-3-5.8c-3.6-1.2-9.3-0.8-12.3-0.7C25.3,11.3,27.4,16,21.6,16H18v-4c0-0.6-0.4-1-1-1H7v26h10c1,0,1-1,1-1
				c0,0,0-11.7,0-11.7c0.1,0,0.6-0.1,0.7,0.4c0.1,0.4,0.9,7.7,1.3,11.5c3,0.5,6,1.8,8.4,4.6c3.3,4,5.8,10.2,6.9,15.4
				c0.5,2.1,1.4,2.9,2.8,2.7c1.4-0.2,2.8-2,2.7-5.6c-0.1-4.3-0.5-6.3-2.1-11c-0.2-0.7,0.2-1.3,0.9-1.3h12.7c2.6,0,4.8-1.8,4.6-4.3
				C56.7,34.7,55.6,33.7,54.3,32.7z"/>
		</g>
	</g>
</g>
</svg>
