<?xml version="1.0" encoding="utf-8"?>
<!-- Generator: Adobe Illustrator 19.1.0, SVG Export Plug-In . SVG Version: 6.00 Build 0)  -->
<svg version="1.2" baseProfile="tiny" xmlns="http://www.w3.org/2000/svg" xmlns:xlink="http://www.w3.org/1999/xlink" x="0px"
	 y="0px" width="64px" height="64px" viewBox="0 0 64 64" xml:space="preserve">
<g id="_x36_4px_Box">
	<rect fill="none" width="64" height="64"/>
</g>
<g id="Icon">
	<g>
		<path d="M21,40.2319c0.6871,0.222,1.4423,0.3783,2.2178,0.3783c1.7469,0,3.3985-0.7844,4.3729-1.358
			c0.9744,0.5736,2.6259,1.358,4.3729,1.358s3.3986-0.7844,4.3729-1.358c0.9744,0.5736,2.6259,1.358,4.3729,1.358
			c0.8039,0,1.5839-0.1696,2.2907-0.4048v-3.0843c-0.7028,0.3576-1.4918,0.6394-2.2907,0.6394c-1.794,0-3.5828-1.4115-4.3729-2.0043
			c-0.7289,0.5469-2.5398,2.0043-4.3729,2.0043c-1.794,0-3.5828-1.4115-4.3729-2.0043c-0.7289,0.5469-2.5398,2.0043-4.3729,2.0043
			c-0.7422,0-1.5485-0.2838-2.2178-0.603V40.2319z"/>
		<path d="M21,33.6725c0.6871,0.222,1.4423,0.3783,2.2178,0.3783c1.7469,0,3.3985-0.7843,4.3729-1.358
			c0.9744,0.5737,2.6259,1.358,4.3729,1.358s3.3986-0.7843,4.3729-1.358c0.9744,0.5737,2.6259,1.358,4.3729,1.358
			c0.8039,0,1.5839-0.1696,2.2907-0.4047v-3.0844c-0.7028,0.3576-1.4918,0.6394-2.2907,0.6394c-1.794,0-3.5828-1.4115-4.3729-2.0043
			c-0.7289,0.5469-2.5398,2.0043-4.3729,2.0043c-1.794,0-3.5828-1.4115-4.3729-2.0043c-0.7289,0.5469-2.5398,2.0043-4.3729,2.0043
			c-0.7422,0-1.5485-0.2838-2.2178-0.603V33.6725z"/>
		<path d="M27.5906,26.1335c0.9744,0.5737,2.6259,1.358,4.3729,1.358s3.3986-0.7843,4.3729-1.358
			c0.9744,0.5737,2.6259,1.358,4.3729,1.358c0.8039,0,1.5839-0.1696,2.2907-0.4047v-3.0844
			c-0.7028,0.3576-1.4918,0.6394-2.2907,0.6394c-1.794,0-3.5828-1.4115-4.3729-2.0043c-0.7289,0.5469-2.5398,2.0043-4.3729,2.0043
			c-1.794,0-3.5828-1.4115-4.3729-2.0043c-0.7289,0.5469-2.5398,2.0043-4.3729,2.0043c-0.7422,0-1.5485-0.2838-2.2178-0.603v3.0743
			c0.6871,0.222,1.4423,0.3783,2.2178,0.3783C24.9647,27.4915,26.6163,26.7072,27.5906,26.1335z"/>
		<path d="M51.4601,38.4077C48.7617,46.58,41.0648,52.5,32,52.5c-10.6876,0-19.798-8.2983-20.4393-19.3011
			c0.0485-0.0458,0.1397-0.0444,0.2493,0.132c0.1625,0.2618,1.0245,2.6849,1.0757,2.8292l2.7529,1.6225
			c0.6578,0.3889,1.4984,0.2437,1.9912-0.3378c0.493-0.5833,0.4936-1.4366,0.0012-2.0199l-6.8933-8.1824
			c-0.3062-0.364-0.7618-0.569-1.2377-0.5567c-0.4759-0.0123-0.9315,0.1927-1.2377,0.5567L1.369,35.425
			c-0.4924,0.5833-0.4919,1.4366,0.0012,2.0199c0.4929,0.5815,1.3334,0.7266,1.9912,0.3378l3.4189-2.015
			C8.6071,48.0479,19.2195,57.5,32,57.5c11.4647,0,21.1843-7.6064,24.3833-18.0369C54.9115,40.3595,53.0151,40.2537,51.4601,38.4077
			z"/>
		<path d="M62.6299,27.2405c-0.4929-0.5815-1.3334-0.7267-1.9912-0.3378l-3.3377,1.9671C55.7521,16.2815,45.0002,6.5,32,6.5
			c-11.7655,0-21.6907,8.0119-24.619,18.8649c1.4092-1.0162,3.5554-0.9909,4.9971,0.7207C14.9236,17.6576,22.7528,11.5,32,11.5
			c11.0598,0,20.1918,8.8326,20.4737,19.9804c-0.047,0.0536-0.1432,0.0607-0.2535-0.131c-0.1353-0.2352-0.7562-2.1653-0.9344-2.7232
			l-2.9244-1.7236c-0.6578-0.3889-1.4984-0.2437-1.9912,0.3378c-0.493,0.5833-0.4936,1.4366-0.0012,2.0199l6.8933,8.1824
			c0.3062,0.364,0.7618,0.569,1.2377,0.5568c0.4759,0.0123,0.9315-0.1928,1.2377-0.5568l6.8933-8.1824
			C63.1235,28.6771,63.1229,27.8238,62.6299,27.2405z"/>
	</g>
</g>
</svg>
