<?xml version="1.0" encoding="utf-8"?>
<!-- Generator: Adobe Illustrator 17.1.0, SVG Export Plug-In . SVG Version: 6.00 Build 0)  -->
<svg version="1.2" baseProfile="tiny" xmlns="http://www.w3.org/2000/svg" xmlns:xlink="http://www.w3.org/1999/xlink" x="0px"
	 y="0px" width="64px" height="64px" viewBox="0 0 64 64" xml:space="preserve">
<g id="_x36_4px_Boxes">
	<rect fill="none" width="64" height="64"/>
</g>
<g id="Production">
	<g>
		<polygon points="9.7608,63 27.7429,63 30.6761,42 25.0795,42 		"/>
		<polygon points="33.3267,42 36.2608,63 54.2429,63 38.921,42 		"/>
		<path d="M2,32v6h5v13h5.8271L18,45.4142v-5.9088l-5.7349-1.1414c-0.3172-0.1018-0.2708-0.3079-0.2499-0.3641h39.9696
			c0.0209,0.0562,0.0673,0.2623-0.2499,0.3641L46,39.5054v5.9088L51.1728,51H57V38h5v-6H2z"/>
		<path d="M36.3174,23.1992l-1.5587,0.0002L34.0067,30h1.9492l0.8758-4.337l-0.3825-2.3412
			C36.4365,23.2954,36.3564,23.209,36.3174,23.1992z"/>
		<path d="M27.2295,23.8955l-1.3182,2.0967L27.0723,30H29l-1.3926-6.5389C27.4438,23.5906,27.3174,23.7482,27.2295,23.8955z"/>
		<path d="M22.1738,17.6602c0,0,0.2689,2.6423,1.6116,4.7949l-1.4543,2.4567c-0.1962,0.2653-0.2599,0.6058-0.1731,0.9241L23.001,30
			h1.9385l-0.2803-4.2718l1.5398-2.4479C26.5876,22.6294,27.29,22,28.3482,22h7.9767c0.6818,0,1.2217,0.61,1.3093,1.1283L38.7562,30
			H41l-1.0053-10.2709c1.4433-3.5653,2.2906-6.9598,2.2906-6.9598s2.0103,0,3.0154,0s2.3333-1.0769,0.718-2.118
			c-1.3645-0.8793-3.6188-1.705-4.2883-1.941c0.2926-0.3037,1.3259-1.4622,2.2087-3.5198c0.1631-0.3809-0.0127-0.8218-0.3936-0.9854
			c-0.3799-0.1626-0.8223,0.0127-0.9854,0.3936c-0.8867,2.0684-1.9385,3.1006-1.9482,3.1108
			c-0.0607,0.0583-0.1014,0.1282-0.1382,0.199c-0.7566-0.6784-1.3217-1.4137-1.7409-2.1376c0.5593-0.4527,2.245-1.903,3.1801-3.67
			c0.1934-0.3662,0.0537-0.8198-0.3125-1.0137s-0.8193-0.0537-1.0137,0.3125c-0.6786,1.2831-1.8789,2.4173-2.5195,2.9702
			c-0.5357-1.4365-0.5634-2.5722-0.5684-2.6584c-0.0215-0.4136-0.4111-0.7324-0.7852-0.7104
			c-0.4141,0.02-0.7334,0.3716-0.7129,0.7852c0.0081,0.1662,0.092,3.5995,2.7185,6.4947c-0.5638-0.1256-1.1999-0.2382-1.7195-0.246
			c-0.4575-0.0068-0.8209,0.067-0.9544,0.2833C35.4534,9.2767,38.2727,10.5,38.2727,10.5c0.0278,2.0548-2.1808,3.8087-3.1851,4.5
			c-4.3875,0-11.5662,0-12.1049,0c-0.7797,0-1.4251-1.6503-1.9804-1.9196c-0.4266-0.2068-0.9142-0.0281-0.9591,0.6899
			C19.9983,14.4883,20.02,16.6282,22.1738,17.6602z"/>
	</g>
</g>
</svg>
