<?xml version="1.0" encoding="utf-8"?>
<!-- Generator: Adobe Illustrator 24.0.1, SVG Export Plug-In . SVG Version: 6.00 Build 0)  -->
<svg version="1.1" xmlns="http://www.w3.org/2000/svg" xmlns:xlink="http://www.w3.org/1999/xlink" x="0px" y="0px"
	 viewBox="0 0 64 64" style="enable-background:new 0 0 64 64;" xml:space="preserve">
<style type="text/css">
	.st0{fill:none;}
	.st1{fill:#FF1D25;}
	.st2{fill:#1D1D1B;}
</style>
<g id="Box">
	<rect class="st0" width="64" height="64"/>
</g>
<g id="Icon">
	<g>
		<circle cx="20" cy="25" r="2"/>
		<circle cx="20" cy="17" r="2"/>
		<circle cx="27" cy="22" r="2"/>
		<circle cx="23" cy="12" r="2"/>
		<circle cx="25" cy="31" r="2"/>
		<path d="M33.7,23.6c-0.2,0-2.4,0.5-3.4,2.4C29.4,27.9,30,30,30,30.3c0.2,0.7,0.8,1.1,1.4,1.1c0.1,0,0.3,0,0.4-0.1
			c0.8-0.2,1.3-1,1-1.8c-0.1-0.2-0.3-1.3,0.1-2c0.3-0.5,1-0.8,1.3-0.9c0.8-0.2,1.3-1,1.2-1.8C35.3,24,34.5,23.5,33.7,23.6z"/>
		<path d="M17,23.3c0.8-0.1,1.4-0.9,1.3-1.7c-0.1-0.8-0.9-1.4-1.7-1.3c-0.3,0-1.4,0.1-2-0.4c-0.5-0.3-0.7-1.1-0.7-1.4
			c0-0.8-0.8-1.5-1.6-1.4c-0.8,0-1.5,0.8-1.4,1.6c0,0.2,0.2,2.4,1.9,3.7c1.1,0.8,2.5,0.9,3.3,0.9C16.7,23.3,17,23.3,17,23.3z"/>
		<path d="M58,50.9L41.2,35.3c-2.3,2.1-4.2,2.9-4.7,3c-0.3,0.1-0.4,0-0.5-0.1c0.3-0.3,2.5-2.4,3.8-4.3C41.8,30.8,43,27,43,23
			c0-11-9-20-20-20S3,12,3,23c0,11,9,20,20,20c4,0,7.8-1.2,10.9-3.3l17,18.3c1.2,1.2,3,1.3,4.3,0.4c1-0.7,1.5-0.8,3.1-3.1
			C59.3,53.9,59.2,52.1,58,50.9z M23,38.2c-8.4,0-15.2-6.8-15.2-15.2c0-8.4,6.8-15.2,15.2-15.2c8.4,0,15.2,6.8,15.2,15.2
			C38.2,31.4,31.4,38.2,23,38.2z"/>
		<path d="M36.4,19.1c-0.8,0.2-1.4,1-1.4,1.9c0,1.1,0.9,2,2,2C37,21.6,36.8,20.3,36.4,19.1z"/>
		<path d="M10,25c-0.3,0-0.6,0.1-0.8,0.2c0.2,1.3,0.6,2.6,1.2,3.8c0.9-0.2,1.6-1,1.6-2C12,25.9,11.1,25,10,25z"/>
		<path d="M20,30.9c-0.2-0.1-2.2-1.1-4.1-0.3c-1.3,0.6-2.2,1.7-2.6,2.4c0.7,0.7,1.5,1.3,2.4,1.9c0,0,0,0,0-0.1
			c0.1-0.2,0.7-1.2,1.4-1.5c0.6-0.2,1.3,0.1,1.5,0.2c0.7,0.4,1.6,0.1,2-0.6C21,32.2,20.7,31.3,20,30.9z"/>
		<path d="M28.4,16.4c0.2,0.1,1.2,0.6,2.5,0.6c0.5,0,1.1-0.1,1.7-0.3c0.9-0.4,1.5-1,2-1.6c-0.6-0.9-1.3-1.6-2-2.3
			c-0.2,0.4-0.7,1-1.2,1.2c-0.6,0.2-1.3,0-1.5-0.2c-0.7-0.4-1.6-0.1-2,0.6C27.4,15.1,27.7,16.1,28.4,16.4z"/>
	</g>
</g>
</svg>
