<svg viewBox="0 0 64 64" xmlns="http://www.w3.org/2000/svg"><path d="m0 0h64v64h-64z" fill="none"/><path d="m24.25 50.35-2.18 7.46h1.53l.4-1.61h2.52l.41 1.61h1.7l-2.17-7.46zm.05 4.65.92-3.44h.08l.92 3.44z"/><path d="m31.25 54.58h2.3v-1.2h-2.3v-1.82h2.5v-1.21h-3.98v7.46h4.01v-1.21h-2.53z"/><path d="m37.55 50.35h-2.17v7.46h2.1c2.5 0 4-1.24 4-4 .04-2.17-1.36-3.46-3.93-3.46zm0 6.25h-.69v-5h.6a2.22 2.22 0 0 1 2.54 2.33c0 1.9-1 2.67-2.45 2.67z"/><path d="m34.73 27.64h-4.35l-2.17 6.39h3.04l.01 5.47 5.34-7.66h-3.22z"/><path d="m51.41 8.34a114.85 114.85 0 0 0 -19.41-1.6 114.85 114.85 0 0 0 -19.41 1.6 1.9 1.9 0 0 0 -1.59 1.88v33.51a1.9 1.9 0 0 0 1.58 1.88 114.52 114.52 0 0 0 19.42 1.61 114.52 114.52 0 0 0 19.41-1.61 1.9 1.9 0 0 0 1.59-1.88v-33.51a1.9 1.9 0 0 0 -1.59-1.88zm-18.95 33.39a1 1 0 0 1 -.92 0c-10.89-5.73-11.2-15.95-6.54-18.01s7 2.4 7 2.4 2.3-4.5 7-2.4 4.35 12.28-6.54 18.01zm16.72-23.5h-34.36a.32.32 0 0 1 -.36-.36l2.54-.51v-3.63a112.85 112.85 0 0 1 30 0v3.63l2.55.51a.32.32 0 0 1 -.37.36z"/></svg>