<?xml version="1.0" encoding="utf-8"?>
<!-- Generator: Adobe Illustrator 21.0.2, SVG Export Plug-In . SVG Version: 6.00 Build 0)  -->
<!DOCTYPE svg PUBLIC "-//W3C//DTD SVG 1.1//EN" "http://www.w3.org/Graphics/SVG/1.1/DTD/svg11.dtd">
<svg version="1.1" xmlns="http://www.w3.org/2000/svg" xmlns:xlink="http://www.w3.org/1999/xlink" x="0px" y="0px" width="64px"
	 height="64px" viewBox="0 0 64 64" style="enable-background:new 0 0 64 64;" xml:space="preserve">
<style type="text/css">
	.st0{fill:none;}
</style>
<g id="_x36_4px_Box">
	<rect class="st0" width="64" height="64"/>
</g>
<g id="Icon">
	<g>
		<g>
			<path d="M57,40.3c-2.5-2.5-5.8-3.9-9.4-3.9s-6.9,1.4-9.4,3.9L25.5,53c-3.8,3.8-10,3.8-13.8,0c-3.8-3.8-3.8-10,0-13.8l2.1-2.1
				l2.3,2.3c0.6,0.6,1.5,0.8,2.3,0.4l12.9-6.4l0.7,0.7c0.4,0.4,1,0.4,1.4,0l3.5-3.5c0.4-0.4,0.4-1,0-1.4l-2.8-2.8l9.2-9.2
				c0.8-0.8,0.8-2,0-2.8s-2-0.8-2.8,0l-9.2,9.2l-7.1-7.1l9.2-9.2c0.8-0.8,0.8-2,0-2.8v0c-0.8-0.8-2-0.8-2.8,0l-9.2,9.2l-2.8-2.8
				c-0.4-0.4-1-0.4-1.4,0l-3.5,3.5c-0.4,0.4-0.4,1,0,1.4l5.7,5.7c0,0.1-0.1,0.2-0.4,0.1L13.7,18l-0.1-0.1L7.9,29.3
				C7.5,30,7.7,31,8.3,31.6l2.3,2.3L8.5,36C3,41.6,3,50.6,8.5,56.2c5.6,5.6,14.6,5.6,20.2,0l12.7-12.7c1.7-1.7,3.8-2.6,6.2-2.6
				c2.3,0,4.5,0.9,6.2,2.6c3.4,3.4,3.4,9,0,12.4L51.7,58l3.2,3.2L57,59C62.1,53.8,62.1,45.4,57,40.3z"/>
		</g>
	</g>
</g>
</svg>
