<svg xmlns="http://www.w3.org/2000/svg" viewBox="0 0 64 64"><defs><style>.cls-1{fill:none;}</style></defs><g id="BOX"><rect class="cls-1" width="64" height="64"/></g><g id="ICOON"><path d="M38.07,25.05c4.62,0,7.61-2.37,7.61-6.76,0-3.86-3.15-6.29-8.61-6.29H32.24c-2,0-3.23-.91-4.7-1.88A8.85,8.85,0,0,0,22.47,8.6H16.29a8.84,8.84,0,0,0,.24,1.48h0c.13.47.15.6.29,1A8.54,8.54,0,0,0,24.33,16H37.8c2.43,0,3.4,1,3.4,2.55S40.27,21,37.71,21h-4l0-2.12A1.62,1.62,0,0,0,32,17.12a1.67,1.67,0,0,0-1.72,1.73l0,2.12H26.07C22.59,21,19.24,23,19.24,27c0,4.9,4.37,6.52,7.67,6.52h3.52l0,4.17H29.13a5.57,5.57,0,0,0-5.6,5.6c0,3.6,3.29,5.49,5.58,5.86l-.05-3.82a2,2,0,0,1-1.51-1.83,1.7,1.7,0,0,1,1.64-1.76l1.33,0,.15,12.36a2.67,2.67,0,0,0,2.63,2.71l.08-7.22h.54c2,.05,5.65.49,5.65,5.69,2.61-6.8-1.12-8.94-5.23-9.24l-.42,0h-.49l0-4.27H34.8c4.59,0,7.25-2.73,7.25-6.14,0-3.24-2.53-5.9-6.94-6l0,4h.07c2.09,0,2.87.95,2.87,2.15s-1.25,1.88-2.29,2l-.86,0H33.52l.14-12.68ZM22.9,12.38a1.18,1.18,0,1,1,1.18-1.18A1.18,1.18,0,0,1,22.9,12.38Zm3.58,17.17c-1.7,0-2.93-.89-2.94-2.31s1.15-2.19,2.81-2.19h4l.05,4.5Z"/><path d="M16.68,12.78c-2.9,0-3.87-.51-3.84-1.7h-.05c-.48,1.49.74,2.55,2.51,2.55v.1c-2.42,0-2.81,1.74-2.2,2.9l.05,0c-.16-1.66.56-2.16,3.89-2.16H22.1V12.78Z"/></g></svg>