<svg height="64" viewBox="0 0 64 64" width="64" xmlns="http://www.w3.org/2000/svg"><path d="m0 0h64v64h-64z" fill="none"/><path d="m28.9276 34.8082c1.0771 0 1.6052-.0609 2.7232-.3254v-2.0119c-1.0571.2236-1.606.3049-2.5613.3049-1.3407 0-2.4387-.6912-2.9058-2.3577h3.7192v-1.5443h-3.9629c-.0209-.2031-.0209-.4268-.0209-.6708 0-.2844 0-.569.0209-.8535h3.9629v-1.5647h-3.6992c.4471-1.6464 1.4633-2.4795 3.0084-2.4795.8126 0 1.3407.0814 2.3369.264v-2.1337c-.8535-.1831-1.4833-.244-2.2759-.244-2.825 0-4.8981 1.5447-5.6298 4.5931h-1.5043v1.5647h1.2606c-.0409.3455-.0409.7317-.0409 1.0975v.4268h-1.2197v1.5443h1.3824c.5891 3.0083 2.5813 4.3902 5.4062 4.3902z"/><path d="m15 15v26h43v-26zm40 23h-37v-20h37z"/><path d="m41 20h12v16h-12z"/><path d="m13 20h-3v26h43v-3h-40z"/><path d="m8 25h-3v26h43v-3h-40z"/></svg>