<?xml version="1.0" encoding="utf-8"?>
<!-- Generator: Adobe Illustrator 22.1.0, SVG Export Plug-In . SVG Version: 6.00 Build 0)  -->
<!DOCTYPE svg PUBLIC "-//W3C//DTD SVG 1.1//EN" "http://www.w3.org/Graphics/SVG/1.1/DTD/svg11.dtd">
<svg version="1.1" xmlns="http://www.w3.org/2000/svg" xmlns:xlink="http://www.w3.org/1999/xlink" x="0px" y="0px" width="64px"
	 height="64px" viewBox="0 0 64 64" style="enable-background:new 0 0 64 64;" xml:space="preserve">
<style type="text/css">
	.st0{fill:none;}
	.st1{fill:none;stroke:#000000;stroke-width:3;stroke-miterlimit:10;}
	.st2{fill:none;stroke:#000000;stroke-width:2;stroke-miterlimit:10;}
	.st3{stroke:#000000;stroke-width:3;stroke-miterlimit:10;}
	.st4{fill:#FFFFFF;}
	.st5{fill:#FFFFFF;stroke:#FFFFFF;stroke-width:4;stroke-miterlimit:10;}
	.st6{fill:none;stroke:#FFFFFF;stroke-width:2;stroke-miterlimit:10;}
	.st7{fill:#FFFFFF;stroke:#000000;stroke-width:3;stroke-linejoin:round;stroke-miterlimit:10;}
	.st8{stroke:#000000;stroke-width:3;stroke-linejoin:round;stroke-miterlimit:10;}
	.st9{fill:none;stroke:#FFFFFF;stroke-width:3;stroke-linecap:square;stroke-miterlimit:10;}
	.st10{fill:none;stroke:#000000;stroke-width:3;stroke-linecap:round;stroke-linejoin:round;stroke-miterlimit:10;}
	.st11{fill:#FFFFFF;stroke:#000000;stroke-width:3;stroke-miterlimit:10;}
	.st12{fill:#FFFFFF;stroke:#FFFFFF;stroke-width:6.4;stroke-miterlimit:10;}
	.st13{stroke:#FFFFFF;stroke-width:6.4;stroke-miterlimit:10;}
	.st14{fill:#FFFFFF;stroke:#FFFFFF;stroke-width:4.4;stroke-miterlimit:10;}
	.st15{stroke:#FFFFFF;stroke-width:4.4;stroke-miterlimit:10;}
</style>
<g id="Box">
	<rect x="0" class="st0" width="64" height="64"/>
</g>
<g id="Icon_4_">
	<path d="M32,28.3L18.9,39.2h-4.7V62h35.6V39.2h-4.7L32,28.3z M26,57h-6v-4h6V57z M26,51h-6v-7h6V51z M35,57h-6v-4h6V57z M35,51h-6
		v-7h6V51z M32,40c-1.9,0-3.5-1.6-3.5-3.5c0-1.9,1.6-3.5,3.5-3.5s3.5,1.6,3.5,3.5C35.5,38.5,33.9,40,32,40z M44,57h-6v-4h6V57z
		 M44,51h-6v-7h6V51z M46.7,15.7c-1.3-0.2-2.3-0.4-3.7-0.4v2.2c0,1.2,0.8,2.2,2,2.5c7.3,1.5,13,0.2,16.9-2.2
		c0.4-0.2,0.2-0.8-0.2-0.8c-4.1-0.1-9-1.9-12.7-3.6v-2.8c0-1-0.5-2-1.3-2.5c-2-1.3-6.3-3.4-13.7-3.9V3.6C34,2.5,33.1,2,32,2
		s-2,0.5-2,1.6V23h-8.3c-0.5,0-1,0.3-1.3,0.7l-8.6,12.5c-0.2,0.3,0,0.6,0.3,0.6h5.6l12.7-10.6c0.9-0.8,2.2-0.7,3.2,0l12.7,10.6h5.6
		c0.3,0,0.5-0.4,0.3-0.6l-8.6-12.5c-0.3-0.4-0.8-0.7-1.3-0.7H34v-9.6c3.3-0.5,8.8-0.7,13.8,1.9C47.7,15.6,47.4,15.8,46.7,15.7z"/>
</g>
</svg>
