<?xml version="1.0" encoding="utf-8"?>
<!-- Generator: Adobe Illustrator 18.0.0, SVG Export Plug-In . SVG Version: 6.00 Build 0)  -->
<svg version="1.2" baseProfile="tiny" id="Layer_1" xmlns="http://www.w3.org/2000/svg" xmlns:xlink="http://www.w3.org/1999/xlink"
	 x="0px" y="0px" width="64px" height="64px" viewBox="0 0 64 64" xml:space="preserve">
<rect fill="none" width="64" height="64"/>
<path d="M51,27c-0.7012,0-1.3797,0.0845-2.0466,0.2032c-0.6168-2.6909-1.2395-5.4439-1.2395-5.4439l-0.0085,0.0002l-2.0213-10.1363
	c-0.2092-1.0397-1.2016-1.747-2.2613-1.5864l-5.7255,0.8681c-0.7474,0.1126-1.3207,0.7575-1.3203,1.5361
	c0.0002,0.8578,0.6958,1.553,1.5536,1.5527l0.235-0.0001l3.9122-0.0014l1.0959,5.4953l-20.3728,3.9159L22.1074,21
	c-0.9981,0-1.9877,0-2.1855,0c-0.2969,0-0.2872-0.2565-0.2872-0.2565s5.652-2.3718,6.701-2.7791
	C27.3695,17.563,27.1208,16,25.9988,16h-9.8103c-0.7862,0-1.5352,0.3613-1.9239,0.9717c-1.3857,2.1795,3.0879,3.8028,3.6717,4.0035
	l1.2091,4.1898c0,0-8.2109,11.4381-8.4696,11.7989c-1.4977,2.0888-0.3414,4.6727,1.8852,5.0017
	c1.4472,0.2139,7.5444,1.0219,7.5444,1.0219C18.7104,45.4756,16.0562,47.16,13,47.16c-4.5064,0-8.16-3.6532-8.16-8.16
	c0-4.2976,3.3242-7.8109,7.5401-8.1287l2.6277-3.6901C14.3535,27.0707,13.6857,27,13,27C6.373,27,1,32.3726,1,39s5.373,12,12,12
	c5.0252,0,9.3234-3.0922,11.1105-7.4753c0,0,3.3553,0.4357,3.3553,0.4357C30.2812,44.2969,32,42.1111,32,40
	c0-0.5786-0.1284-1.1251-0.3494-1.6216l12.623-13.8085c0.2865,1.1377,0.6587,2.5028,1.0965,3.8476
	c2.4072,7.4013,5.3897,10.9087,5.7891,11.3823c0.4131,0.4878,1.1631,0.1704,1.0703-0.3633
	c-0.1049-0.6075-1.1976-3.4256-2.4075-8.4975c0.3852-0.0587,0.7762-0.099,1.178-0.099c4.5064,0,8.16,3.6531,8.16,8.16
	c0,4.5068-3.6536,8.16-8.16,8.16c-4.5064,0-8.16-3.6532-8.16-8.16c0-2.164,0.8483-4.1256,2.2229-5.5861
	c-0.4974-1.146-0.9936-2.4263-1.4707-3.842C40.7997,31.769,39,35.1711,39,39c0,6.6274,5.373,12,12,12s12-5.3726,12-12
	S57.627,27,51,27z M20.5573,30.0576L22.2722,36h-5.9805L20.5573,30.0576z M28.3906,36H26.436l-2.5214-8.7377l15.1367-2.9094
	L28.3906,36z"/>
</svg>
