<svg enable-background="new 0 0 64 64" viewBox="0 0 64 64" xmlns="http://www.w3.org/2000/svg"><path d="m60.4351 36.826c-.1951-1.1728-1.0874-2.0651-2.2608-2.2606-3.3913-.5654-9.0442-.5654-10.1743-.5654-1.13 0-6.7827 0-10.1742.5654-1.1735.1955-2.0658 1.0878-2.2607 2.2606-.5651 3.3913-.5651 9.0437-.5651 10.174 0 1.1304 0 6.7827.5651 10.174.1949 1.1728 1.0872 2.0651 2.2607 2.2607 3.3915.5653 9.0442.5653 10.1742.5653 1.1301 0 6.783 0 10.1743-.5653 1.1734-.1956 2.0657-1.0879 2.2608-2.2607.5649-3.3913.5649-9.0436.5649-10.174 0-3.393 0-6.7827-.5649-10.174z"/><path d="m32.4082 36.3003c.418-2.5083 2.3838-4.4741 4.8921-4.8916 1.0867-.181 2.3638-.3092 3.6997-.4009v-23.0078h-34v33h24.948c.092-1.6946.2346-3.3445.4602-4.6997zm.629-23.3003c0-.55.4501-1 1-1h2.9628c.55 0 1 .45 1 1v2c0 .55-.45 1-1 1h-2.9628c-.5499 0-1-.45-1-1zm0 7c0-.55.4501-1 1-1h2.9628c.55 0 1 .45 1 1v2c0 .55-.45 1-1 1h-2.9628c-.5499 0-1-.45-1-1zm0 7c0-.55.4501-1 1-1h2.9628c.55 0 1 .45 1 1v2c0 .55-.45 1-1 1h-2.9628c-.5499 0-1-.45-1-1zm-18.0744 9c0 .55-.4501 1-1 1h-2.9628c-.55 0-1-.45-1-1v-2c0-.55.45-1 1-1h2.9628c.5499 0 1 .45 1 1zm0-7c0 .55-.4501 1-1 1h-2.9628c-.55 0-1-.45-1-1v-2c0-.55.45-1 1-1h2.9628c.5499 0 1 .45 1 1zm0-7c0 .55-.4501 1-1 1h-2.9628c-.55 0-1-.45-1-1v-2c0-.55.45-1 1-1h2.9628c.5499 0 1 .45 1 1zm0-7c0 .55-.4501 1-1 1h-2.9628c-.55 0-1-.45-1-1v-2c0-.55.45-1 1-1h2.9628c.5499 0 1 .45 1 1zm4.8922 5.156 9.0125 5.2712-9.0125 5.2714z"/><path d="m56 48.5c0 .2761-.2239.5-.5.5h-5.5v5.5c0 .2761-.2239.5-.5.5h-3c-.2761 0-.5-.2239-.5-.5v-5.5h-5.5c-.2761 0-.5-.2239-.5-.5v-3c0-.2761.2239-.5.5-.5h5.5v-5.5c0-.2761.2239-.5.5-.5h3c.2761 0 .5.2239.5.5v5.5h5.5c.2761 0 .5.2239.5.5z" fill="#fff"/></svg>