<?xml version="1.0" encoding="utf-8"?>
<!-- Generator: Adobe Illustrator 19.1.0, SVG Export Plug-In . SVG Version: 6.00 Build 0)  -->
<svg version="1.2" baseProfile="tiny" xmlns="http://www.w3.org/2000/svg" xmlns:xlink="http://www.w3.org/1999/xlink" x="0px"
	 y="0px" width="64px" height="64px" viewBox="0 0 64 64" xml:space="preserve">
<g id="_x36_4px_Box">
	<rect fill="none" width="64" height="64"/>
</g>
<g id="Icon">
	<g>
		<path d="M29.8729,16.7258l0.2322,8.8154c4.0035,0.1546,6.2754,1.4656,8.9251,2.6l-0.3513-8.8925
			C36.0896,18.1557,33.8365,16.8782,29.8729,16.7258z"/>
		<path d="M58.1072,8.0065c-0.0473-0.728-0.8305-1.1682-1.4694-0.816C54.6871,8.2659,50.7978,10,46.0001,10
			c-6.9543,0-8.7588-4-16.691-4c-5.803,0-12.9094,3.2092-16.309,4.9331V8h1c1.1046,0,2-0.8954,2-2V4.5262
			c0-0.9318-0.6419-1.7349-1.5487-1.9489C13.2949,2.3044,11.638,2,10.0001,2S6.7052,2.3044,5.5488,2.5773
			C4.642,2.7913,4.0001,3.5945,4.0001,4.5262V6c0,1.1046,0.8954,2,2,2h1v55h6c0-9.9136,0-14.6642,0-21.0251
			C16.6862,39.988,23.8447,37,29.309,37c7.9323,0,9.7367,4,16.691,4c5.1935,0,10.438-2.1556,12.7609-3.2472
			c0.7477-0.3514,1.2065-1.1192,1.153-1.9437L58.1072,8.0065z M48.2178,37.8438l-0.421-7.9926
			c-3.3234,0.1105-5.7987-0.4396-8.7667-1.71l0.3226,8.1664c-2.2896-0.9921-5.0631-2.0784-9.0239-2.268l-0.2238-8.4984
			c-2.9266-0.1132-6.185,0.6156-8.9419,1.5511l0.1069,8.1234c-3.1403,0.8843-5.7383,2.1273-8.2701,3.3542l0.0001-7.6901
			c3.1419-1.5973,5.0904-2.745,8.163-3.7875l-0.1168-8.8717c-3.0437,1.0096-4.9623,2.1208-8.0461,3.6533l0.0001-7.5769
			c3.2878-1.6671,5.0241-2.7074,7.9454-3.7096l0.1005,7.6332c2.7068-0.8978,5.9328-1.606,8.8265-1.4948l-0.203-7.7088
			c3.9001,0.1079,6.1251,1.3335,8.6992,2.389l0.3098,7.8428c3.0013,1.2671,5.4383,1.7729,8.6478,1.6756l-0.4188-7.9515
			c3.3263-0.1328,6.2252-0.9604,8.3969-1.8376l0.521,8.0178c-2.2109,0.8659-5.1436,1.6695-8.4991,1.7712l0.4702,8.9269
			c3.3983-0.1127,6.3671-0.9484,8.6041-1.8461l0.4751,7.3113C55.056,36.1273,51.713,37.4148,48.2178,37.8438z"/>
	</g>
</g>
</svg>
