<svg enable-background="new 0 0 64 64" viewBox="0 0 64 64" xmlns="http://www.w3.org/2000/svg"><path d="m0 0h64v64h-64z" fill="none"/><path d="m20.1 33.5c-.3.2-.5 0-.5 0s6.1-8.1 6.9-9.6c1.6-3.2-.4-5.5-1.3-6.7-.7-.9-2-2.6-2.6-3.5-1.3.3-3 .5-5.4.5s-4.2-.2-5.5-.5c-.7.9-2 2.6-2.6 3.5-.9 1.2-2.9 3.4-1.3 6.7.8 1.6.9 1.8 1.1 2.1 1.2 2.1-1.7 4.3-1.7 10.2 0 5.7.2 15.3.4 18.8.2 3.2 3.5 4.2 9.5 4.2s9.3-1 9.5-4.2c.2-3.5.4-13.1.5-18.8 0-3.3-.9-5.4-1.5-7z"/><path d="m17.1 12.2c3.3 0 6-.4 6-1-.1-1.4-.2-2.9-.5-4.3-.2-1-1-1.7-2-1.7h-7.1c-1 0-1.8.7-2 1.7-.3 1.4-.4 3-.5 4.3.1.6 2.8 1 6.1 1z"/><path d="m58.5 27.6c-.5-6-2.1-19.4-6.7-24-1-1-2.6-.3-2.6 1.1v52.4c0 1.1 1.8 1.9 2.8 1.9 2.9 0 7.2-2 2.8-28.4h.9c1.7-.1 2.9-1.4 2.8-3z"/><path d="m42.7 3c-.5 0-.9.4-.9.9l-.9 12.9c-.1.5-.5.9-1 .9s-1-.4-1-.9l-1-12.8c0-.5-.4-1-.9-1s-.9.4-.9.9l-.9 12.8c0 .5-.5.9-1 .9s-1-.4-1-.9l-.9-12.7c0-.5-.4-.9-.9-.9s-.9.4-1 .9l-.9 14.2c0 2.3 2.2 4.4 5.1 5.2-1.1 14.2-1.8 32.4-1.8 33.2 0 1.3 1.9 2.4 4.3 2.4s4.3-1.1 4.3-2.4c0-.8-.7-17.8-1.7-31.7 0 0-1.9-.1-3-.9-.2-.1-.2-.2-.2-.3 1.1.1 2.1 0 3.1-.3 2.9-.8 5.1-2.9 5.1-5.1l-1.1-14.3c0-.5-.4-1-.9-1z"/></svg>