<svg height="64" viewBox="0 0 64 64" width="64" xmlns="http://www.w3.org/2000/svg"><path d="m0 0h64v64h-64z" fill="none"/><path d="m55.76 27.3114c-5.5947-7.9552-3.7836-15.4768-3.7836-15.4768-5.2803 2.7312-4.7341 7.1011-6.0087 8.7398-.9998 1.2855-2.6285 1.3784-3.6416-.3641-3.1008-5.3336 2.8491-12.1635 2.8491-12.1635-10 1-13.0828 9.4805-13.0828 9.4805-2.375-7.75-8.9026-10.4267-8.9026-10.4267 3.5 7.75-.8474 14.4267-.8474 14.4267-3.75-8.875-8.265-9.29-8.265-9.29 1.375 13-5.7929 11.9119-8.1848 20.7187-2.5322 9.3234 2.1053 14.4577 6.5677 15.6142-1.0552-1.1525-1.6605-2.4757-1.6605-3.97v-4.4752c0-4.2539 3.6777-9.3252 21.2002-9.3252s21.2002 5.0371 21.2002 9.2622v4.5381c0 1.4979-.6082 2.824-1.6682 3.9785 4.9715-1.8725 11.156-11.4161 4.228-21.2672z"/><path d="m32 34c-9.9411 0-18 1.875-18 6.125v4.475c0 1.3322 1.3185 2.6237 3.5222 3.6966l-2.5302 3.5617c-.6172.8687-.4518 2.0652.3843 2.7258 2.1481 1.6971 7.079 4.4159 16.6237 4.4159 9.602 0 14.5346-2.7515 16.662-4.4463.8159-.65.9968-1.8102.4178-2.6779l-.6596-.9885c-3.2536 1.08-7.7155 1.7554-12.6702 1.7554-5.5336 0-10.489-.8201-13.7859-2.142-.5717-.2292-.3648-.5372-.1819-.6944 2.9035.7412 6.4209 1.1937 10.2178 1.1937 9.9411 0 18-3.0863 18-6.4v-4.538c0-4.247-8.0589-6.062-18-6.062zm-13.2715 10.9038c-.1514.4531-.4336.749-.7969.8335-.0664.0156-.1367.0234-.2061.0234-.666 0-1.3145-.7144-1.543-1.6982-.2588-1.1079.1045-2.1079.8271-2.2769.7119-.166 1.4961.5884 1.75 1.6753.1203.5113.1086 1.0235-.0311 1.4429zm6.8428 1.7964c-.2188.5088-.6064.8662-1.0908 1.0068-.1445.042-.2939.0635-.4443.0635-.8691 0-1.6748-.686-1.9609-1.6689-.1631-.5605-.1348-1.1421.0781-1.6372.2197-.5088.6074-.8662 1.0918-1.0068.1445-.042.2939-.0635.4453-.0635.8672 0 1.6729.686 1.959 1.6689.163.5605.1347 1.1421-.0782 1.6372zm6.4287 1.5c-1.2129 0-2.2002-.9873-2.2002-2.2002s.9873-2.2002 2.2002-2.2002 2.2002.9873 2.2002 2.2002-.9873 2.2002-2.2002 2.2002zm9.9248-2.0986c-.2861.9829-1.0918 1.6689-1.9609 1.6689-.1504 0-.2998-.0215-.4443-.0635-.4844-.1406-.8721-.498-1.0908-1.0068-.2129-.4951-.2412-1.0767-.0781-1.6372.2861-.9829 1.0918-1.6689 1.959-1.6689.1514 0 .3008.0215.4453.0635.4844.1406.8721.498 1.0918 1.0068.2128.4951.2411 1.0766.078 1.6372zm5.8926-2.0391c-.2285.9839-.877 1.6982-1.543 1.6982-.0693 0-.1396-.0078-.207-.0234-.3623-.0845-.6445-.3804-.7959-.8335-.1396-.4194-.1514-.9316-.0312-1.4429.2529-1.0869 1.0342-1.8413 1.75-1.6753.7226.169 1.0859 1.169.8271 2.2769z"/></svg>