<svg height="64" viewBox="0 0 64 64" width="64" xmlns="http://www.w3.org/2000/svg"><path d="m0 0h64v64h-64z" fill="none"/><path d="m48 14h-32c-1.1045 0-2 .8955-2 2v47h15v-9h6v9h15v-47c0-1.1045-.8955-2-2-2zm-23 33h-6v-6h6zm0-10h-6v-6h6zm0-10h-6v-6h6zm10 20h-6v-6h6zm0-10h-6v-6h6zm0-10h-6v-6h6zm10 20h-6v-6h6zm0-10h-6v-6h6zm0-10h-6v-6h6z"/><path d="m26.9839 9.1841h-4.3565v-.0562l4.3282-6.373v-1.3589h-6.0098v1.4009h4.0762v.0556l-4.3282 6.3736v1.3589h6.2901z"/><path d="m29.1592 1.396h1.6807v9.189h-1.6807z"/><path d="m34.6065 3.1611h.0566l2.7032 7.4239h2.6338v-9.189h-1.5547v7.4238h-.0567l-2.7031-7.4238h-2.6338v9.189h1.5547z"/><path d="m42.2071 1.396h1.6807v9.189h-1.6807z"/></svg>