<svg height="64" viewBox="0 0 64 64" width="64" xmlns="http://www.w3.org/2000/svg"><path d="m0 0h64v64h-64z" fill="none"/><path d="m0 0h64v64h-64z" fill="none"/><path d="m24.583 10.6926c.9248 0 1.2607-.0561 2.0459-.2241v-1.373c-.7578.1401-1.1777.1821-1.9336.1821-1.4707 0-2.8154-1.0083-2.8154-3.1797 0-2.2412 1.3164-3.3198 2.8711-3.3198.6729 0 1.0088.0141 1.7373.1401l.126-1.4287c-.6299-.126-1.1064-.1821-1.8076-.1821-2.5488 0-4.6914 1.625-4.6914 4.959-.0001 2.9692 1.9326 4.4262 4.4677 4.4262z"/><path d="m32.9688 10.5945 2.7177-9.189h-1.7373l-2.1006 7.522h-.0703l-2.1152-7.522h-1.877l2.6895 9.189z"/><path d="m43.3018 9.1936h-4.3565v-.0557l4.3281-6.3735v-1.3589h-6.0088v1.4009h4.0762v.0561l-4.3281 6.3731v1.3589h6.2891z"/><path d="m48 14h-32c-1.1045 0-2 .8955-2 2v47h15v-9h6v9h15v-47c0-1.1045-.8955-2-2-2zm-23 33h-6v-6h6zm0-10h-6v-6h6zm0-10h-6v-6h6zm10 20h-6v-6h6zm0-10h-6v-6h6zm0-10h-6v-6h6zm10 20h-6v-6h6zm0-10h-6v-6h6zm0-10h-6v-6h6z"/></svg>