<?xml version="1.0" encoding="utf-8"?>
<!-- Generator: Adobe Illustrator 18.1.0, SVG Export Plug-In . SVG Version: 6.00 Build 0)  -->
<svg version="1.2" baseProfile="tiny" xmlns="http://www.w3.org/2000/svg" xmlns:xlink="http://www.w3.org/1999/xlink" x="0px"
	 y="0px" width="64px" height="64px" viewBox="0 0 64 64" xml:space="preserve">
<g id="Box">
	<rect fill="none" width="64" height="64"/>
</g>
<g id="Icon">
	<g>
		<path d="M48,14H16c-1.1045,0-2,0.8955-2,2v47h15v-9h6v9h15V16C50,14.8955,49.1045,14,48,14z M25,47h-6v-6h6V47z M25,37h-6v-6h6V37
			z M25,27h-6v-6h6V27z M35,47h-6v-6h6V47z M35,37h-6v-6h6V37z M35,27h-6v-6h6V27z M45,47h-6v-6h6V47z M45,37h-6v-6h6V37z M45,27h-6
			v-6h6V27z"/>
		<path d="M24.3911,10.6926c0.9946,0,1.8491-0.084,2.7598-0.2661V5.9998h-3.0396v1.373h1.4146v1.877
			c-0.4062,0.042-0.6445,0.0562-1.0645,0.0562c-1.5688,0-2.8574-1.0649-2.8574-3.208c0-2.2129,1.3164-3.3198,3.1514-3.3198
			c0.7285,0,1.2466,0.0283,2.0029,0.1401l0.1265-1.4287c-0.6445-0.126-1.2329-0.1821-2.0732-0.1821
			c-2.8018,0-4.9727,1.583-4.9727,4.959C19.8389,9.2078,21.688,10.6926,24.3911,10.6926z"/>
		<path d="M33.2812,10.6926c0.9946,0,1.8491-0.084,2.7598-0.2661V5.9998h-3.0396v1.373h1.4146v1.877
			c-0.4062,0.042-0.6445,0.0562-1.0645,0.0562c-1.5688,0-2.8579-1.0649-2.8579-3.208c0-2.2129,1.3169-3.3198,3.1519-3.3198
			c0.7285,0,1.2466,0.0283,2.0034,0.1401l0.126-1.4287c-0.6445-0.126-1.2329-0.1821-2.0732-0.1821
			c-2.8018,0-4.9727,1.583-4.9727,4.959C28.729,9.2078,30.5781,10.6926,33.2812,10.6926z"/>
		<polygon points="43.6558,9.1936 39.2993,9.1936 39.2993,9.1375 43.6279,2.7644 43.6279,1.4055 37.6187,1.4055 37.6187,2.8064 
			41.6948,2.8064 41.6948,2.8621 37.3667,9.2356 37.3667,10.5945 43.6558,10.5945 		"/>
	</g>
</g>
</svg>
