<svg enable-background="new 0 0 64 64" viewBox="0 0 64 64" xmlns="http://www.w3.org/2000/svg"><path d="m0 0h64v64h-64z" fill="none"/><path d="m49 1h-34v32h34zm-24 28h-4v-4h4zm0-9h-4v-4h4zm0-9h-4v-4h4zm9 18h-4v-4h4zm0-9h-4v-4h4zm0-9h-4v-4h4zm9 18h-4v-4h4zm0-9h-4v-4h4zm0-9h-4v-4h4z"/><path d="m3 35v28h22.9c-1-.6-1.7-1.6-1.7-2.8 0-1.8 1.5-3.3 3.3-3.3s3.3 1.5 3.3 3.3c0 1.2-.7 2.3-1.7 2.8h18.9c-1-.6-1.7-1.6-1.7-2.8 0-1.8 1.5-3.3 3.3-3.3s3.3 1.5 3.3 3.3c0 1.2-.7 2.3-1.7 2.8h9.8v-28zm52.5 25h-1.3c-.1-2.5-2.2-4.6-4.7-4.6-2.6 0-4.6 2.1-4.7 4.6h-12.6c-.1-2.5-2.2-4.6-4.7-4.6-2.6 0-4.6 2.1-4.7 4.6h-.9c-1.1 0-1.9-.9-1.9-1.9v-13.9c0-.7.5-1.2 1.2-1.2h24.9c.9 0 1.8.5 2.3 1.3l2.8 4.9 4.1 2c.9.4 1.5 1.3 1.6 2.3.4 4.1.3 5.5-1.4 6.5z"/><path d="m32 46h-7c-.6 0-1 .4-1 1v2c0 .6.4 1 1 1h7c.6 0 1-.4 1-1v-2c0-.6-.4-1-1-1z"/><path d="m47 45.5c-.2-.3-.5-.5-.8-.5h-4.2v5l6.1.7c.8.1 1.4-.8 1-1.5z"/></svg>