<?xml version="1.0" encoding="utf-8"?>
<!-- Generator: Adobe Illustrator 21.0.2, SVG Export Plug-In . SVG Version: 6.00 Build 0)  -->
<!DOCTYPE svg PUBLIC "-//W3C//DTD SVG 1.1//EN" "http://www.w3.org/Graphics/SVG/1.1/DTD/svg11.dtd">
<svg version="1.1" xmlns="http://www.w3.org/2000/svg" xmlns:xlink="http://www.w3.org/1999/xlink" x="0px" y="0px" width="64px"
	 height="64px" viewBox="0 0 64 64" style="enable-background:new 0 0 64 64;" xml:space="preserve">
<style type="text/css">
	.st0{fill:none;}
</style>
<g id="_x36_4px_Box">
	<rect class="st0" width="64" height="64"/>
</g>
<g id="Icon">
	<g>
		<g>
			<path d="M34.6,11l1.3-4.4H36l1.3,4.4h2l2.1-8h-1.5l-1.6,6.5h-0.1l-2-6.5h-1.6l0.5,1.7l-1.6,4.8h-0.1L32.1,3h-1.6l2.1,8H34.6z
				 M43.6,9.2h2.7l0.5,1.8h1.7l-2.4-8h-2.2l-2.4,8h1.5L43.6,9.2z M44.9,4.3L44.9,4.3L46,8h-2.1L44.9,4.3z M16.8,4.5L16.8,4.5
				l2.4,6.5h2.3V3h-1.4v6.5h0L17.8,3h-2.3v8h1.4V4.5z M27.3,11l2.4-8h-1.5l-1.8,6.5h-0.1L24.4,3h-1.6l2.3,8H27.3z M48,14H16
				c-1.1,0-2,0.9-2,2v47h15v-9h6v9h15V16C50,14.9,49.1,14,48,14z M25,47h-6v-6h6V47z M25,37h-6v-6h6V37z M25,27h-6v-6h6V27z M35,47
				h-6v-6h6V47z M35,37h-6v-6h6V37z M35,27h-6v-6h6V27z M45,47h-6v-6h6V47z M45,37h-6v-6h6V37z M45,27h-6v-6h6V27z"/>
		</g>
	</g>
</g>
</svg>
