<?xml version="1.0" encoding="utf-8"?>
<!-- Generator: Adobe Illustrator 24.0.1, SVG Export Plug-In . SVG Version: 6.00 Build 0)  -->
<svg version="1.1" xmlns="http://www.w3.org/2000/svg" xmlns:xlink="http://www.w3.org/1999/xlink" x="0px" y="0px"
	 viewBox="0 0 64 64" style="enable-background:new 0 0 64 64;" xml:space="preserve">
<style type="text/css">
	.st0{fill:none;}
	.st1{fill:#FF1D25;}
	.st2{fill:#1D1D1B;}
</style>
<g id="Box">
	<rect class="st0" width="64" height="64"/>
</g>
<g id="Icon">
	<g>
		<path d="M49,1H15v32h34V1z M25,29h-4v-4h4V29z M25,20h-4v-4h4V20z M25,11h-4V7h4V11z M34,29h-4v-4h4V29z M34,20h-4v-4h4V20z
			 M34,11h-4V7h4V11z M43,29h-4v-4h4V29z M43,20h-4v-4h4V20z M43,11h-4V7h4V11z"/>
		<path d="M3,35v28h22.9c-1-0.6-1.7-1.6-1.7-2.8c0-1.8,1.5-3.3,3.3-3.3c1.8,0,3.3,1.5,3.3,3.3c0,1.2-0.7,2.3-1.7,2.8h18.9
			c-1-0.6-1.7-1.6-1.7-2.8c0-1.8,1.5-3.3,3.3-3.3c1.8,0,3.3,1.5,3.3,3.3c0,1.2-0.7,2.3-1.7,2.8H61V35H3z M55.5,60h-1.3
			c-0.1-2.5-2.2-4.6-4.7-4.6c-2.6,0-4.6,2.1-4.7,4.6H32.2c-0.1-2.5-2.2-4.6-4.7-4.6c-2.6,0-4.6,2.1-4.7,4.6h-0.9
			c-1.1,0-1.9-0.9-1.9-1.9V44.2c0-0.7,0.5-1.2,1.2-1.2h24.9c0.9,0,1.8,0.5,2.3,1.3l2.8,4.9l4.1,2c0.9,0.4,1.5,1.3,1.6,2.3
			C57.3,57.6,57.2,59,55.5,60z"/>
		<path d="M32,46h-7c-0.6,0-1,0.4-1,1v2c0,0.6,0.4,1,1,1h7c0.6,0,1-0.4,1-1v-2C33,46.4,32.6,46,32,46z"/>
		<path d="M47,45.5c-0.2-0.3-0.5-0.5-0.8-0.5H42v5l6.1,0.7c0.8,0.1,1.4-0.8,1-1.5L47,45.5z"/>
	</g>
</g>
</svg>
