<?xml version="1.0" encoding="utf-8"?>
<!-- Generator: Adobe Illustrator 19.1.0, SVG Export Plug-In . SVG Version: 6.00 Build 0)  -->
<svg version="1.2" baseProfile="tiny" xmlns="http://www.w3.org/2000/svg" xmlns:xlink="http://www.w3.org/1999/xlink" x="0px"
	 y="0px" width="64px" height="64px" viewBox="0 0 64 64" xml:space="preserve">
<g id="Box">
	<rect fill="none" width="64" height="64"/>
</g>
<g id="Icon">
	<g>
		<path d="M60.435,37.826c-0.1949-1.1729-1.0873-2.0652-2.2607-2.2607C54.7829,35,49.1301,35,48.0001,35s-6.7828,0-10.1743,0.5654
			c-1.1734,0.1955-2.0657,1.0878-2.2607,2.2607C35,41.2173,35,46.8697,35,48c0,1.1304,0,6.7827,0.5651,10.174
			c0.195,1.1728,1.0873,2.0651,2.2607,2.2607C41.2172,61,46.87,61,48.0001,61s6.7828,0,10.1742-0.5653
			c1.1735-0.1956,2.0658-1.0879,2.2607-2.2607C61,54.7827,61,49.1304,61,48C61,44.607,61,41.2173,60.435,37.826z M43.697,55h-1.1883
			H38c0,0,0.0598-2.931,0.7991-3.7094c0.5792-0.6099,2.3351-1.1498,3.0786-1.3576c0.1815-0.0508,0.2977-0.2095,0.3342-0.3943
			c0.0505-0.2561,0.0619-0.5256,0.0619-0.5256c-0.4603-0.5262-0.8032-1.1569-0.9092-2.0483
			c-0.4731-0.1473-0.5677-0.7443-0.5677-1.1165c0-0.3721,0.0649-0.5735,0.1971-0.6358c0.1589-0.0748,0.3058,0.0262,0.3506,0.0618
			c-0.0674-0.7731-0.1655-2.5012,0.2431-3.046c0.364-0.4854,1.0551-0.8088,1.6864-0.9869c0.9087-0.2565,1.2618,0.1031,1.7804,0.3879
			c0.7907-0.2062,1.2054,0.0458,1.5467,0.6767c0.3179,0.5878,0.2121,2.1727,0.1388,2.933c0.0702-0.0402,0.1776-0.0809,0.2933-0.0265
			c0.1322,0.0623,0.197,0.2637,0.197,0.6358c0,0.3723-0.0947,0.9692-0.5677,1.1165c-0.12,0.8597-0.4672,1.5161-0.9354,2.0629
			c0.0018,0.0377,0.0146,0.2751,0.0611,0.511c0.0364,0.1848,0.1527,0.3435,0.3342,0.3943c0.7434,0.2078,2.4994,0.7477,3.0786,1.3576
			C49.9402,52.069,50,55,50,55H43.697z M52.6775,54h-0.7257c-0.1104-1.5058-0.4379-3.1783-1.3007-4.0867
			c-0.0094-0.0099-0.0235-0.0241-0.0344-0.0355c0.2018-0.0636,0.386-0.1179,0.5245-0.1566
			c0.1532-0.0428,0.2514-0.1769,0.2822-0.3329c0.0427-0.2162,0.0523-0.4438,0.0523-0.4438
			c-0.3888-0.4444-0.6783-0.9769-0.7678-1.7297c-0.3995-0.1244-0.4794-0.6285-0.4794-0.9428c0-0.3142,0.0548-0.4843,0.1664-0.5369
			c0.1342-0.0632,0.2582,0.0222,0.2961,0.0522c-0.0569-0.6529-0.1397-2.1121,0.2053-2.5721c0.3074-0.4099,0.891-0.683,1.4241-0.8334
			c0.7673-0.2166,1.0655,0.0871,1.5034,0.3276c0.6677-0.1742,1.0179,0.0386,1.3062,0.5714c0.2684,0.4964,0.179,1.8347,0.1171,2.4767
			c0.0593-0.0339,0.15-0.0683,0.2477-0.0224c0.1116,0.0526,0.1664,0.2227,0.1664,0.5369c0,0.3143-0.08,0.8184-0.4794,0.9428
			c-0.1013,0.726-0.3945,1.2803-0.7899,1.7421c0.0015,0.0318,0.0123,0.2324,0.0516,0.4315c0.0308,0.1561,0.129,0.2901,0.2822,0.3329
			c0.6278,0.1755,2.1107,0.6315,2.5997,1.1465C57.9495,51.5249,58,54,58,54H52.6775z"/>
		<path d="M29.5435,23.126L21,18v-4c0-1.6543,1.3457-3,3-3h18c1.6543,0,3,1.3457,3,3v17.8343c1.0587-0.024,2.0823-0.0345,3-0.0345
			s1.9413,0.0104,3,0.0345V14c0-4.9624-4.0371-9-9-9H24c-4.9629,0-9,4.0376-9,9v4l-8.5435,5.126C5.5529,23.6682,5,24.6447,5,25.6985
			V28c0,0.5522,0.4477,1,1,1h24c0.5523,0,1-0.4478,1-1v-2.3015C31,24.6447,30.4471,23.6682,29.5435,23.126z"/>
		<path d="M10.6413,31.1734c-0.0857-0.0118-0.1714,0.0029-0.2604,0.178c-0.7426,1.4607-1.9084,2.0104-2.2914,3.1435
			c-0.4014,1.1876,0.5861,2.3752,1.748,2.5347s2.4349-0.7186,2.3653-1.9702c-0.066-1.1852-1.0382-2.0379-1.3597-3.6446
			C10.8046,31.2222,10.7271,31.1852,10.6413,31.1734z"/>
		<path d="M18.1779,31.2811c-0.0649-0.1854-0.1469-0.2113-0.2335-0.211c-0.0865,0.0002-0.1693,0.0267-0.2332,0.2125
			c-0.532,1.5498-1.61,2.2564-1.8316,3.4318c-0.2322,1.2319,0.9109,2.2706,2.0837,2.2668c1.1729-0.0037,2.3113-1.0504,2.0682-2.2801
			C19.8013,33.5366,18.7198,32.8275,18.1779,31.2811z"/>
		<path d="M9.5568,39.7406c-0.0857-0.0118-0.1714,0.0028-0.2604,0.178C8.5539,41.3793,7.388,41.929,7.005,43.0621
			c-0.4013,1.1876,0.5861,2.3752,1.748,2.5347c1.162,0.1595,2.4349-0.7185,2.3654-1.9701c-0.066-1.1852-1.0382-2.0379-1.3597-3.6447
			C9.7202,39.7894,9.6426,39.7523,9.5568,39.7406z"/>
		<path d="M18.1779,40.363c-0.0649-0.1854-0.1469-0.2112-0.2335-0.211c-0.0865,0.0003-0.1693,0.0267-0.2332,0.2125
			c-0.532,1.5498-1.61,2.2564-1.8316,3.4318c-0.2322,1.2319,0.9109,2.2706,2.0837,2.2668c1.1729-0.0038,2.3113-1.0504,2.0682-2.2802
			C19.8013,42.6185,18.7198,41.9094,18.1779,40.363z"/>
		<path d="M8.4724,48.3078c-0.0857-0.0118-0.1714,0.0028-0.2604,0.178c-0.7426,1.4607-1.9084,2.0104-2.2914,3.1434
			c-0.4014,1.1876,0.5861,2.3752,1.748,2.5347s2.4349-0.7185,2.3653-1.9701c-0.066-1.1852-1.0382-2.0379-1.3597-3.6447
			C8.6357,48.3566,8.5582,48.3195,8.4724,48.3078z"/>
		<path d="M18.1779,49.445c-0.0649-0.1854-0.1469-0.2113-0.2335-0.211c-0.0865,0.0002-0.1693,0.0267-0.2332,0.2125
			c-0.532,1.5498-1.61,2.2563-1.8316,3.4318c-0.2322,1.2319,0.9109,2.2706,2.0837,2.2668c1.1729-0.0038,2.3113-1.0504,2.0682-2.2802
			C19.8013,51.7005,18.7198,50.9914,18.1779,49.445z"/>
		<path d="M26.1625,37.0296c1.162-0.1595,2.1494-1.3472,1.748-2.5347c-0.3829-1.1331-1.5488-1.6828-2.2914-3.1435
			c-0.0891-0.1751-0.1747-0.1898-0.2604-0.178c-0.0858,0.0118-0.1633,0.0488-0.2018,0.2415
			c-0.3215,1.6067-1.2937,2.4594-1.3597,3.6446C23.7275,36.311,25.0005,37.1891,26.1625,37.0296z"/>
		<path d="M27.2469,45.5967c1.1619-0.1595,2.1494-1.3471,1.748-2.5347c-0.383-1.1331-1.5489-1.6828-2.2914-3.1435
			c-0.0891-0.1752-0.1747-0.1898-0.2604-0.178c-0.0858,0.0117-0.1633,0.0488-0.2018,0.2414
			c-0.3215,1.6068-1.2938,2.4595-1.3597,3.6447C24.812,44.8782,26.085,45.7563,27.2469,45.5967z"/>
		<path d="M27.788,48.4858c-0.0891-0.1752-0.1747-0.1898-0.2604-0.178c-0.0858,0.0117-0.1633,0.0488-0.2018,0.2414
			c-0.3215,1.6068-1.2937,2.4595-1.3597,3.6447c-0.0696,1.2516,1.2033,2.1296,2.3653,1.9701s2.1494-1.3471,1.748-2.5347
			C29.6965,50.4962,28.5306,49.9465,27.788,48.4858z"/>
	</g>
</g>
</svg>
