<?xml version="1.0" encoding="utf-8"?>
<!-- Generator: Adobe Illustrator 25.0.0, SVG Export Plug-In . SVG Version: 6.00 Build 0)  -->
<svg version="1.1" xmlns="http://www.w3.org/2000/svg" xmlns:xlink="http://www.w3.org/1999/xlink" x="0px" y="0px"
	 viewBox="0 0 64 64" style="enable-background:new 0 0 64 64;" xml:space="preserve">
<style type="text/css">
	.st0{fill:none;}
	.st1{fill:#FFFFFF;}
</style>
<g id="Box">
	<rect class="st0" width="64" height="64"/>
</g>
<g id="Icon">
	<g>
		<circle cx="32" cy="41.045" r="1.698"/>
		<path d="M51,6H13c-0.552,0-1,0.448-1,1v54h5v-2h2v-2h2v-9l4-1v10h14v-9l4-1v10h2v2h2v2h5V7C52,6.448,51.552,6,51,6z M29,14h6v6h-6
			V14z M29,24h6v6h-6V24z M19,14h6v6h-6V14z M19,24h6v6h-6V24z M45,45H19v-2.002l12.306-7.313c0.428-0.254,0.96-0.254,1.388,0
			L45,42.998V45z M45,30h-6v-6h6V30z M45,20h-6v-6h6V20z"/>
	</g>
</g>
</svg>
