<svg xmlns="http://www.w3.org/2000/svg" viewBox="0 0 64 64"><defs><style>.cls-1{fill:none;}</style></defs><g id="BOX"><rect class="cls-1" width="64" height="64"/></g><g id="ICOON"><path d="M25.22,34l-9.76,0c-1.5,0-1.93-1.28-1.7-2.55s1-5.75,1.11-8.08l2.8,2.51A4.13,4.13,0,0,0,20,26.6h4.85c.81,0,2.71-.36,3.11-1.87a5.31,5.31,0,0,0,.12-1.44H20.83l-8.21-7.23A4.64,4.64,0,0,0,9.5,15c-1.54,0-3.83.86-4.41,5C4.15,26.7,4,28.63,3.67,34a6.78,6.78,0,0,0,6.71,6.81c3.92,0,10.29.13,11,0-.72,2.55-1,4.44-1.92,8.09-1.35,5.22,3.72,6.58,3.72,6.58l1.06-3.73s3.18-12.74,3.59-14.43S27.42,34,25.22,34Z"/><path d="M16.25,30.35a1.66,1.66,0,0,0,1.55,1.76H39.9a1.67,1.67,0,0,0,1.56-1.76V28.6H16.25Z"/><path d="M12.53,13.39c2.57.48,4.38-1.09,4.84-3.74.53-3-.75-4.94-3.26-5.4S9.71,5.41,9.23,8.14,10,12.92,12.53,13.39Z"/><path d="M46.42,13.64c2.57-.52,3.75-2.44,3.21-5.31S47.33,4,44.69,4.52,40.94,7,41.52,10C42,12.62,43.85,14.16,46.42,13.64Z"/><path d="M59.4,42H56.89v-2c0-.83-.67-1-1.5-1s-1.51.17-1.51,1v2h-7v-2c0-.83-.68-1-1.51-1s-1.5.17-1.5,1v2H41.35a1.47,1.47,0,0,0-1.47,1.47v16a1.47,1.47,0,0,0,1.47,1.47h18a1.47,1.47,0,0,0,1.47-1.47v-16A1.47,1.47,0,0,0,59.4,42Zm-.47,17H41.82V46.93H58.93Z"/><path d="M45.36,38.91c-.83,0-1.5.17-1.5,1v1h3v-1C46.87,39.08,46.19,38.91,45.36,38.91Z"/><path d="M36.88,43.42A4.47,4.47,0,0,1,41,39c.51-2.39,2.92-3.06,4.41-3.06,2.86,0,4,1.63,4.38,3H51A3.9,3.9,0,0,1,54.23,36a8.49,8.49,0,0,0,.06-1.69c-.25-3.9-.37-7.47-1.31-14.16s-6.12-4.76-6.12-4.76a6.72,6.72,0,0,0-1.93,1.26l-.11.1-9.19,9.83h4.23a3.76,3.76,0,0,0,2.34-1.22c.43-.42,1.07-1,1.07-1,.2,2.17,1,7,1.13,7.91A1.32,1.32,0,0,1,43.06,34h0c-1.75,0-4.67,0-6.21.11A3.38,3.38,0,0,0,33.39,37c-.38,1.43-3.63,14.69-3.63,14.69l-.92,3.77s5.12,1.17,6.51-4c.59-2.18,1.12-4.38,1.53-6.21Z"/><rect x="43.86" y="48.93" width="3.01" height="3.01"/><rect x="48.87" y="48.93" width="3.01" height="3.01"/><rect x="53.88" y="48.93" width="3.01" height="3.01"/><rect x="43.86" y="53.95" width="3.01" height="3.01"/><rect x="48.87" y="53.95" width="3.01" height="3.01"/><rect x="53.88" y="53.95" width="3.01" height="3.01"/></g></svg>