<?xml version="1.0" encoding="utf-8"?>
<!-- Generator: Adobe Illustrator 18.1.0, SVG Export Plug-In . SVG Version: 6.00 Build 0)  -->
<svg version="1.2" baseProfile="tiny" xmlns="http://www.w3.org/2000/svg" xmlns:xlink="http://www.w3.org/1999/xlink" x="0px"
	 y="0px" width="64px" height="64px" viewBox="0 0 64 64" xml:space="preserve">
<g id="Box">
	<rect fill="none" width="64" height="64"/>
</g>
<g id="Icon">
	<g>
		<path d="M51.2432,51.2404L50.043,50.34l-1.2002,0.9004c-0.6396,0.4795-2.895,1.8496-4.7998,1.8496
			c-1.8911,0-4.1094-1.3379-4.7998-1.8496L38.043,50.34l-1.2002,0.9004c-0.6396,0.4795-2.895,1.8496-4.7998,1.8496
			c-1.8911,0-4.1094-1.3379-4.7998-1.8496L26.043,50.34l-1.2002,0.9004c-0.6396,0.4795-2.895,1.8496-4.7998,1.8496
			c-1.8911,0-4.1094-1.3379-4.7998-1.8496L14.043,50.34l-1.2002,0.9004C12.2031,51.7199,9.9478,53.09,8.043,53.09
			c-1.0184,0-2.1246-0.3893-3.043-0.8273v4.2183C5.9427,56.7856,6.9789,57,8.043,57c2.397,0,4.6631-1.0762,6-1.8633
			c1.3369,0.7871,3.603,1.8633,6,1.8633s4.6631-1.0762,6-1.8633c1.3369,0.7871,3.603,1.8633,6,1.8633s4.6631-1.0762,6-1.8633
			c1.3369,0.7871,3.603,1.8633,6,1.8633s4.6631-1.0762,6-1.8633c1.3369,0.7871,3.603,1.8633,6,1.8633
			c1.0322,0,2.0372-0.2025,2.957-0.4926v-4.203c-0.8999,0.4195-1.9733,0.7856-2.957,0.7856
			C54.1519,53.09,51.9336,51.7521,51.2432,51.2404z"/>
		<path d="M14.043,46.1367c1.3369,0.7871,3.603,1.8633,6,1.8633s4.6631-1.0762,6-1.8633c1.3369,0.7871,3.603,1.8633,6,1.8633
			s4.6631-1.0762,6-1.8633c1.3369,0.7871,3.603,1.8633,6,1.8633c0.3469,0,0.6893-0.0278,1.0283-0.0687v-3.9672
			c-0.3465,0.0726-0.6927,0.126-1.0283,0.126c-1.8911,0-4.1094-1.3379-4.7998-1.8496L38.043,41.34l-1.2002,0.9004
			c-0.6396,0.4795-2.895,1.8496-4.7998,1.8496c-1.8911,0-4.1094-1.3379-4.7998-1.8496L26.043,41.34l-1.2002,0.9004
			c-0.6396,0.4795-2.895,1.8496-4.7998,1.8496c-1.8911,0-4.1094-1.3379-4.7998-1.8496L14.043,41.34l-1.2002,0.9004
			C12.2031,42.7199,9.9478,44.09,8.043,44.09c-1.0184,0-2.1246-0.3893-3.043-0.8273v4.2183C5.9427,47.7856,6.9789,48,8.043,48
			C10.4399,48,12.7061,46.9238,14.043,46.1367z"/>
		<path d="M14.043,37.1367c1.3369,0.7871,3.603,1.8633,6,1.8633s4.6631-1.0762,6-1.8633c1.3369,0.7871,3.603,1.8633,6,1.8633
			c0.7278,0,1.4393-0.1068,2.1207-0.267v-4.08C33.473,34.9065,32.7354,35.09,32.043,35.09c-1.8911,0-4.1094-1.3379-4.7998-1.8496
			L26.043,32.34l-1.2002,0.9004c-0.6396,0.4795-2.895,1.8496-4.7998,1.8496c-1.8911,0-4.1094-1.3379-4.7998-1.8496L14.043,32.34
			l-1.2002,0.9004C12.2031,33.7199,9.9478,35.09,8.043,35.09c-1.0184,0-2.1246-0.3893-3.043-0.8273v4.2183
			C5.9427,38.7856,6.9789,39,8.043,39C10.4399,39,12.7061,37.9238,14.043,37.1367z"/>
		<path d="M47.5149,20.0293c1.0364,4.6752-0.7166,9.3365-4.17,12.3958c2.1803,0.6474,4.567,0.7759,6.9719,0.2427
			c7.2836-1.6147,11.9336-8.5822,10.3861-15.5623c-1.5474-6.98-8.7064-11.3295-15.9899-9.7148
			c-2.4049,0.5331-4.5137,1.6583-6.2161,3.1665C42.9196,11.8704,46.4784,15.354,47.5149,20.0293z"/>
	</g>
</g>
</svg>
