<?xml version="1.0" encoding="utf-8"?>
<!-- Generator: Adobe Illustrator 21.0.2, SVG Export Plug-In . SVG Version: 6.00 Build 0)  -->
<!DOCTYPE svg PUBLIC "-//W3C//DTD SVG 1.1//EN" "http://www.w3.org/Graphics/SVG/1.1/DTD/svg11.dtd">
<svg version="1.1" xmlns="http://www.w3.org/2000/svg" xmlns:xlink="http://www.w3.org/1999/xlink" x="0px" y="0px" width="64px"
	 height="64px" viewBox="0 0 64 64" style="enable-background:new 0 0 64 64;" xml:space="preserve">
<style type="text/css">
	.st0{fill:none;}
</style>
<g id="_x36_4px_Box">
	<rect class="st0" width="64" height="64"/>
</g>
<g id="Icon">
	<g>
		<g>
			<path d="M56.6,57.1l-7.9-33.6c-0.2-0.9-1-1.5-1.9-1.5H38c2.4-1.8,4-4.7,4-8c0-5.5-4.5-10-10-10S22,8.5,22,14
				c0,2.5,0.9,4.7,2.4,6.5l5.8,1.1c0.3,0.1,0.3,0.3,0.2,0.4H17.3c-0.9,0-1.7,0.6-1.9,1.5L7.4,57.1c-0.3,1.1,0.4,2.1,1.5,2.4
				c3.4,0.9,11.4,2.5,23.3,2.5c11.8,0,19.6-1.6,22.9-2.5C56.2,59.3,56.8,58.2,56.6,57.1z M27.5,48l-3.8-5.7h-0.5V48h-3.3V34h3.3v5.5
				h0.4l4-5.5h3.9l-5,6.6l5.1,7.4H27.5z M32,18c-2.2,0-4-1.8-4-4s1.8-4,4-4s4,1.8,4,4S34.2,18,32,18z M44.1,47.7l-0.4,0.1
				c-1.3,0.3-2.6,0.4-4,0.4c-4.4,0-7-2.5-7-6.8c0-4.7,2.9-7.6,7.6-7.6c1.2,0,2.1,0.1,3.1,0.3l0.4,0.1l-0.3,2.9L43,37
				c-1.1-0.2-1.8-0.2-2.8-0.2c-2.6,0-4.1,1.6-4.1,4.3c0,3.1,1.9,4.2,3.6,4.2c0.4,0,0.7,0,1.1,0v-1.8h-2v-2.9h5.3V47.7z"/>
		</g>
	</g>
</g>
</svg>
