<?xml version="1.0" encoding="utf-8"?>
<!-- Generator: Adobe Illustrator 19.1.0, SVG Export Plug-In . SVG Version: 6.00 Build 0)  -->
<svg version="1.2" baseProfile="tiny" xmlns="http://www.w3.org/2000/svg" xmlns:xlink="http://www.w3.org/1999/xlink" x="0px"
	 y="0px" width="64px" height="64px" viewBox="0 0 64 64" xml:space="preserve">
<g id="Box">
	<rect fill="none" width="64" height="64"/>
</g>
<g id="Icon">
	<g>
		<path d="M25.1592,4.9568C24.9763,7.6081,26.3487,9,28.5714,9c2.1791,0,3.4199-1.4969,3.4199-3.651
			c0-1.4006-0.5164-4.0114-1.917-4.309c-1.624-0.3444-7.1748,2.1905-7.0543,3.1509C23.0938,4.778,24.2752,4.9278,25.1592,4.9568z"/>
		<path d="M52.23,44.7586c-2.7689,0.9518-6.3675,2.413-9.2219,3.6127c0.0737,0.4328,0.0837,0.8923,0.0119,1.3787
			c-0.4146,2.8079-2.82,4.5833-6.2403,4.7416c-7.7327,0.3578-12.5347-1.5577-13.5313-1.9618
			c-0.2862-0.1161-0.318-0.2576-0.2923-0.3882c0.0015-0.0012,0.0111-0.0091,0.0111-0.0091
			c5.5945,0.9645,9.1205,1.1222,13.4634,0.4237c3.295-0.53,4.489-2.106,4.4613-3.4058c-0.027-1.2701-0.9267-2.0373-2.9519-2.1077
			c-6.8902-0.2395-10.9187-1.0081-16.8242-1.8688c-4.1042-0.5981-8.0618,0.4671-11.4327,2.6266
			c-3.1634,2.0266-4.0402,2.9852-4.0402,2.9852l5.7857,11.1429l7.4819-3.0415c0.8526-0.3466,1.7844-0.4511,2.6926-0.3021
			l10.2607,2.283c2.2892,0.3757,4.6379-0.0563,6.6438-1.2219L58.9871,46.8C58.9871,46.8,57.9828,42.781,52.23,44.7586z"/>
		<path d="M43.4768,9.6145c2.0927,0,3.3033-1.4738,3.3033-3.5946c0-2.4172-1.2655-3.7131-3.3033-3.7131
			c-2.1468,0-3.3033,1.532-3.3033,3.7131C40.1735,8.3179,41.3845,9.6145,43.4768,9.6145z"/>
		<path d="M17.4851,26.3249c0.2857,2.9377,1.6526,16.9834,1.717,17.4995c0.0595,0.4772,1.6719,0.3196,1.6215-0.1924
			c-0.0535-0.543-1.0093-14.0667-1.3011-18.1991c0.3242-0.2747,0.5941-0.6074,0.7567-0.9936
			c0.6544-1.5541,1.3689-3.3198,1.8485-4.6697c0.6204-1.7462,1.024-2.7949,1.5497-3.92c0.1123-0.2405,0.2188-0.3862,0.3338-0.2831
			l0.0027-0.0092L24,44c2.0392,0,3.4034-1.1217,3.5776-3.3745c0,0,0.4343-13.4573,0.44-13.6055
			c0.0057-0.1483,0.2454-0.341,0.486-0.341s0.481,0.1927,0.4867,0.341c0.0057,0.1482,0.4393,13.6055,0.4393,13.6055
			C29.6045,42.8875,30.9763,44,33,44V32.7215c-0.698,0-1.9559-0.3915-2.0493-2.0008c-0.2055-3.5388-0.108-9.2754,2.1022-10.3325
			c1.353-0.6471,5.6-0.6471,7.081-0.0235c2.0429,0.8605,1.9896,6.7529,1.9817,10.3268c-0.0036,1.612-1.4181,2.032-2.1156,2.032V44
			c0,0,2.8002-0.4326,3-3.1369c0,0-0.0028-6.1549-0.0019-9.0209c0.3276-0.0403,0.6647-0.0739,1.0037-0.1078
			C44.0028,34.5363,44,40.7881,44,40.7881C44.1534,43.5725,47,44,47,44V31.6591c0.0616,0.0048,0.1264,0.0011,0.1875,0.007
			c1.1571,0.1134,1.8068,0.3067,1.8068,0.3067c0-5.9951-1.5441-8.274-2.0277-10.1532c-0.2569-0.9986-0.043-2.0438,0.1907-3.0439
			c0.2197-0.9401,0.5021-1.8158,0.0587-3.6742c0,0,0.2333,0.4216,0.3268,0.6948c0.5196,1.5182,0.3683,4.4552,2.4628,11.2234
			c0.9122-0.1201,2.0291-1.2537,1.6536-3.328c-0.4614-2.5491-1.0321-3.9433-1.2405-5.7146
			c-0.4612-3.9217-1.6247-5.8064-3.7892-6.4918c-1.031-0.3265-2.0138-0.4767-3.1327-0.4768h-0.04
			c-1.1188,0.0001-2.1017,0.1503-3.1326,0.4768c-0.6248,0.1978-1.1605,0.5054-1.6241,0.9268
			c0.6997,0.6054,1.1037,1.5661,1.1037,2.8799c0,2.0703-1.2096,3.5079-3.3,3.5079c-2.0897,0-3.3-1.2649-3.3-3.5079
			c0-1.5844,0.6425-2.8156,1.8553-3.3423c-0.5296-0.6564-1.1956-1.1455-2.0516-1.3761c-2.0829-0.5611-4.5255-0.7374-6.9962-0.3873
			c-1.6774,0.2426-3.7185,1.3376-4.5859,3.0218c-1.6472,3.1981-4.8943,12.9753-4.8943,12.9753
			C16.7355,26.329,17.0823,26.3714,17.4851,26.3249z"/>
	</g>
</g>
</svg>
