<?xml version="1.0" encoding="utf-8"?>
<!-- Generator: Adobe Illustrator 21.0.2, SVG Export Plug-In . SVG Version: 6.00 Build 0)  -->
<!DOCTYPE svg PUBLIC "-//W3C//DTD SVG 1.1//EN" "http://www.w3.org/Graphics/SVG/1.1/DTD/svg11.dtd">
<svg version="1.1" xmlns="http://www.w3.org/2000/svg" xmlns:xlink="http://www.w3.org/1999/xlink" x="0px" y="0px" width="64px"
	 height="64px" viewBox="0 0 64 64" style="enable-background:new 0 0 64 64;" xml:space="preserve">
<style type="text/css">
	.st0{fill:none;}
	.st1{fill:#FFFFFF;}
</style>
<g id="_x36_4px_Box">
	<rect class="st0" width="64" height="64"/>
</g>
<g id="Icon">
	<g>
		<path d="M14.6,33.6c0.1-0.5-0.1-1-0.6-1.2l-3.2-1.6c1.7-1.3,5-3.2,10-2.8c5,0.4,8.3,3.4,12,6.9c4.4,4.2,9.3,8.8,17.8,8.8
			c1.8,0,3.7-0.2,5.8-0.7c1.1-0.2,1.3-1.3,1-2.4s-0.8-1.8-1.9-1.6c-10.1,2.2-14.9-2.3-20-7.1c-3.9-3.7-8-7.6-14.5-8
			c-6-0.4-10.1,1.7-12.4,3.4l0-3.6c0-0.5-0.4-0.9-0.8-1c-0.5-0.1-0.9,0.2-1.1,0.6l-2.6,8.3C3.9,32.3,4.4,32.9,5,33l8.6,1.3
			C14,34.4,14.5,34.1,14.6,33.6z"/>
		<path d="M9,14.6c10.3-5.1,16-0.3,22,4.7c4.5,3.8,9.2,7.8,15.6,6.2c3.4-0.8,5.9-3.1,7.4-5L55,24c0.2,0.5,0.6,0.8,1.1,0.7
			c0.5,0,0.9-0.4,0.8-0.9l0-8.7c0-0.6-0.6-1.1-1.2-1l-8.6,1.4c-0.5,0.1-0.8,0.5-0.8,1c0,0.5,0.4,0.9,0.9,1l3.5,0.5
			c-1.1,1.4-2.9,3.1-5.3,3.7c-4.4,1.1-8-1.9-12.1-5.4C27.4,11.2,19.9,4.8,7.2,11c-1,0.5-1,1.5-0.5,2.4C7.2,14.4,8,15.1,9,14.6z"/>
		<path d="M55.6,48.5c-10.6,1.9-15.7-1.5-20.5-4.7c-3.3-2.2-6.7-4.5-11.5-4.4c-7,0.1-11.6,5.1-13.6,7.9L9,44
			c-0.2-0.5-0.6-0.8-1.1-0.7c-0.5,0-0.8,0.4-0.8,0.9l0,8.7c0,0.6,0.6,1.1,1.2,1l8.6-1.4c0.5-0.1,0.8-0.5,0.8-1c0-0.5-0.4-0.9-0.9-1
			L13.1,50c1.4-2.1,5-6.5,10.6-6.6c3.6,0,6,1.6,9.2,3.8c4,2.7,8.8,5.9,17,5.9c1.9,0,4.1-0.2,6.4-0.6c1.1-0.2,1.1-1.3,0.9-2.3
			C57,49,56.7,48.3,55.6,48.5z"/>
	</g>
</g>
</svg>
