<svg height="64" viewBox="0 0 64 64" width="64" xmlns="http://www.w3.org/2000/svg"><path d="m0 0h64v64h-64z" fill="none"/><path d="m9 48.6047v8.3953h11v-12.9265l-4.1558-3.908z"/><path d="m20 32.544v-11.544h-11v14.2692l6.0132-7.4142z"/><path d="m24 47.8351v9.1649h11v-20.7858l-9.417 13.1095z"/><path d="m35 21.9794v-6.9794h-11v21.3052l.417.3921z"/><path d="m39 30.6458v26.3542h11v-14.3804l-10.5771-12.5625z"/><path d="m50 29.429v-25.429h-11l.0176 12.3921z"/><path d="m54.2964 37.9824-15.1716-18.0117-14.4017 20.0337-9.4921-8.9253-11.231 13.848v6.3499l11.6265-14.3356 9.6504 9.0747 14.0383-19.5376 15.3884 18.2744 5.2964-8.2525v-7.4052z"/></svg>