<?xml version="1.0" encoding="utf-8"?>
<!-- Generator: Adobe Illustrator 19.1.0, SVG Export Plug-In . SVG Version: 6.00 Build 0)  -->
<svg version="1.2" baseProfile="tiny" xmlns="http://www.w3.org/2000/svg" xmlns:xlink="http://www.w3.org/1999/xlink" x="0px"
	 y="0px" width="64px" height="64px" viewBox="0 0 64 64" xml:space="preserve">
<g id="_x36_4px_Box">
	<rect fill="none" width="64" height="64"/>
</g>
<g id="Icon">
	<g>
		<path d="M55,7H9C7.8955,7,7,7.8955,7,9v34.99c0,1.1045,0.8955,2,2,2h16.5c0,0-0.5342,1.9412-1.5,5.01
			c-0.5779,1.8373-2.3791,1.992-2.8691,2H19c-0.5527,0-1,0.4478-1,1v2h28v-2c0-0.5522-0.4473-1-1-1h-2.1309
			c-0.49-0.008-2.2912-0.1627-2.8691-2c-0.3881-1.233-0.7027-2.2706-0.9447-3.0848c0,0-4.4024-0.6397-8.9772-1.5323
			c-0.3203-0.0625-0.2812-0.2969-0.2443-0.3828H55c1.1045,0,2-0.8955,2-2V9C57,7.8955,56.1045,7,55,7z M52,39H12V12h40V39z"/>
		<rect x="33" y="20" width="4" height="8"/>
		<rect x="39" y="16" width="4" height="12"/>
		<rect x="45" y="19" width="4" height="9"/>
		<path d="M39,37.8077c1.7511,0,3.215-1.1951,3.6575-2.8077H50v-2h-7.3425C42.215,31.3874,40.7511,30.1923,39,30.1923
			c-1.751,0-3.2149,1.1951-3.6575,2.8077H15v2h20.3425C35.7851,36.6126,37.249,37.8077,39,37.8077z M39,32.0604
			c1.0696,0,1.9396,0.87,1.9396,1.9396c0,1.0695-0.87,1.9396-1.9396,1.9396c-1.0695,0-1.9396-0.8701-1.9396-1.9396
			C37.0604,32.9304,37.9305,32.0604,39,32.0604z"/>
		<path d="M21.4938,30c3.5822,0,6.4862-2.904,6.4862-6.4862c0-1.2629-0.3667-2.4376-0.9911-3.4344L21,23.5138v-6.4621
			c-3.3184,0.2855-5.9924,3.0696-5.9924,6.4621C15.0076,27.096,17.9116,30,21.4938,30z"/>
		<path d="M23.0472,13.4138V19.9l5.4951-3.4344C27.3957,14.6351,25.3665,13.4138,23.0472,13.4138z"/>
	</g>
</g>
</svg>
