<?xml version="1.0" encoding="utf-8"?>
<!-- Generator: Adobe Illustrator 21.0.2, SVG Export Plug-In . SVG Version: 6.00 Build 0)  -->
<svg version="1.2" baseProfile="tiny" xmlns="http://www.w3.org/2000/svg" xmlns:xlink="http://www.w3.org/1999/xlink" x="0px"
	 y="0px" width="64px" height="64px" viewBox="0 0 64 64" xml:space="preserve">
<g id="_x36_4px_Box">
	<rect fill="none" width="64" height="64"/>
</g>
<g id="Icon">
	<g>
		<path d="M51,56h-5v-7.9c0-1.7-1.3-3-3-3h-4.8l-7.2-11l11.8-16c0,0,0,0,0.1,0c3.3,0,6-2.7,6-6s-2.7-6-6-6c-3.2,0-5.8,2.5-6,5.7
			c-0.3,0-0.5-0.4-0.5-1.1c-0.1-1.4,0.4-2.8,1.1-3.9l-21.5-3c-1.1-0.2-2.2,0.5-2.5,1.6c0,0.1,0,0.1,0,0.2C12.2,5,10.7,5.1,9.6,5.8
			C9,6.2,8.5,6.7,8.2,7.3c-0.3,0.6-0.5,1.3-0.4,2c0.1,1.1,0.4,2,1,3c0.3,0.4,0.8,0.7,1.3,0.5c0.6-0.2,1-0.8,0.9-1.4l-0.1-0.2
			c-0.1-0.5-0.3-1.3-0.2-1.9c0.1-0.4,0.3-0.5,0.6-0.7c0.3-0.1,0.6-0.1,0.8,0l3.8,2.7c0.2,0.2,0.3,0.4,0.3,0.7c0,0.3-0.1,0.6-0.4,0.8
			c-0.5,0.3-1.3,0.4-1.8,0.5l-0.3,0c-0.5,0.1-0.9,0.4-1,0.9c-0.1,0.6,0.3,1.3,0.9,1.4c1.2,0.2,2,0.2,3.2-0.1
			c0.6-0.2,1.3-0.6,1.7-1.1c0.5-0.5,0.8-1.2,0.9-1.8c0.3-1.1,0-2.4-0.8-3.4l18.2,5.3l-10.4,14c1.2,0.5,2.2,1.2,3,2.3
			c0.4,0.7,0.5,1.1,0.3,1.2c-1.1-1.2-2.7-2-4.5-2c-3.3,0-6,2.7-6,6c0,0.9,0.2,1.7,0.5,2.5L27.1,56H21c-0.6,0-1,0.4-1,1v3h32v-3
			C52,56.4,51.6,56,51,56z"/>
	</g>
</g>
</svg>
