<?xml version="1.0" encoding="utf-8"?>
<!-- Generator: Adobe Illustrator 17.1.0, SVG Export Plug-In . SVG Version: 6.00 Build 0)  -->
<svg version="1.2" baseProfile="tiny" xmlns="http://www.w3.org/2000/svg" xmlns:xlink="http://www.w3.org/1999/xlink" x="0px"
	 y="0px" width="64px" height="64px" viewBox="0 0 64 64" xml:space="preserve">
<g id="_x36_4px_Boxes">
	<rect fill="none" width="64" height="64"/>
</g>
<g id="Production">
	<g>
		<path d="M20.7247,36.7258c-0.8721-0.2874-1.6737-0.5164-2.2162-0.6628c-0.3823-0.1031-0.6181-0.4362-0.7239-0.8178
			c-0.1359-0.4906-0.1766-1.1083-0.1766-1.1083c1.0105-1.1776,1.76-2.5924,2.0187-4.4457c1.0172-0.3169,1.2207-1.6005,1.2207-2.4009
			c0-0.8002-0.1394-1.2331-0.4237-1.3672c-0.2485-0.1169-0.4796-0.0292-0.6305,0.0571c0.1577-1.6349,0.3851-5.0428-0.2984-6.3067
			c-0.7339-1.3568-1.6255-1.8986-3.3258-1.4551c-1.1151-0.6124-1.8745-1.3857-3.8282-0.8342
			c-1.3576,0.3831-2.8435,1.0786-3.6264,2.1223c-0.8785,1.1714-0.6675,4.8871-0.5226,6.5496
			c-0.0965-0.0765-0.4123-0.2938-0.7541-0.133c-0.2843,0.1341-0.4237,0.567-0.4237,1.3672c0,0.8004,0.2035,2.084,1.2207,2.4009
			c0.2279,1.9167,0.9651,3.2728,1.9549,4.4044c0,0-0.0244,0.5794-0.133,1.1301c-0.0784,0.3975-0.3285,0.7388-0.7186,0.8478
			c-1.5986,0.4468-5.3745,1.608-6.6198,2.9194C1.1287,40.6663,1,46.9689,1,46.9689h12.2501
			c0.5018-2.7128,1.3831-5.9657,2.8612-7.5221C17.1006,38.4054,18.8191,37.4942,20.7247,36.7258z"/>
		<path d="M61.3331,40.088c-0.5424-0.5712-1.6228-1.1936-2.8112-1.7672c-1.5563-0.7698-3.2957-1.451-4.222-1.7981
			c-0.3546-0.1328-0.5794-0.4585-0.6421-0.832c-0.0778-0.4636-0.1648-1.1508-0.2333-1.7296
			c2.347-0.0953,4.2881-0.3268,5.0953-0.6343c0.1595-0.0607,0.2401-0.207,0.169-0.3621c-0.4416-0.9635-1.5894-4.1324-1.7337-5.7874
			c-0.3543-4.062-0.3397-11.3311-5.9049-9.5074c0,0-3.5341-2.2578-6.4045,1.5197c-2.0194,2.6576-1.5274,6.1617-1.6082,8.1158
			c-0.0575,1.3898-1.1948,4.5989-1.6734,5.4303c-0.1019,0.177-0.0671,0.356,0.1248,0.4256
			c0.8664,0.3145,2.8169,0.5582,5.1096,0.7029c-0.064,0.581-0.1541,1.3019-0.2563,1.8265c-0.0725,0.3717-0.2875,0.6992-0.6421,0.832
			c-0.3893,0.1459-0.9263,0.3532-1.5287,0.5988c1.7229,0.7518,2.9872,1.5285,3.7437,2.3262
			c1.4789,1.5565,2.3522,4.8079,2.8466,7.5211H63C63,46.9689,62.9227,41.7615,61.3331,40.088z"/>
		<path d="M37.8044,37.3826c-0.5698-0.1556-0.9534-0.6402-1.0817-1.2167c-0.1133-0.5096-0.1736-1.094-0.1736-1.094
			c1.3534-1.5118,2.3575-3.3379,2.6978-5.7507c1.2942-0.3989,1.5531-2.0149,1.5531-3.0225c0-1.0072-0.1774-1.5522-0.539-1.7211
			c-0.1744-0.0812-0.3447-0.0805-0.4962-0.0483c0.1301-2.0985,0.2597-6.2566-0.6149-7.819
			c-0.9562-1.7081-2.2279-2.1511-4.4433-1.5928c-1.4531-0.7709-2.4424-1.5335-4.9882-0.8393
			c-1.7689,0.4822-3.7049,1.2698-4.7251,2.5837c-1.1007,1.4179-0.8885,5.5533-0.7026,7.6775
			c-0.1639-0.0448-0.3563-0.0528-0.5517,0.0382c-0.3616,0.1689-0.539,0.7139-0.539,1.7211c0,1.0076,0.2589,2.6236,1.5531,3.0225
			c0.4153,3.4561,2.1442,5.4783,4.2723,7.2701c0.5622,0.4736,1.5749,0.722,2.629,0.769c0.0956,0.171,0.0956,0.3741-0.2825,0.4989
			c-0.6326,0.2088-2.611,0.5042-4.7431-0.6054c-0.0177-0.0092-0.0303-0.0176-0.0476-0.0267
			c-1.5921,0.4271-7.0901,2.0009-8.8019,3.8036C15.7783,43.1373,15,51,15,51h34c0,0-0.7516-7.8627-2.7526-9.9693
			C44.7047,39.4059,39.9344,37.9641,37.8044,37.3826z"/>
	</g>
</g>
</svg>
