<?xml version="1.0" encoding="utf-8"?>
<!-- Generator: Adobe Illustrator 19.1.0, SVG Export Plug-In . SVG Version: 6.00 Build 0)  -->
<svg version="1.2" baseProfile="tiny" xmlns="http://www.w3.org/2000/svg" xmlns:xlink="http://www.w3.org/1999/xlink" x="0px"
	 y="0px" width="64px" height="64px" viewBox="0 0 64 64" xml:space="preserve">
<g id="Box">
	<rect fill="none" width="64" height="64"/>
</g>
<g id="Icon">
	<g>
		<circle cx="8.5" cy="9.0349" r="3.2083"/>
		<circle cx="25.5" cy="9.0349" r="3.2083"/>
		<circle cx="38.5" cy="9.0349" r="3.2083"/>
		<circle cx="55.5" cy="9.0349" r="3.2083"/>
		<path d="M48.7585,35.3732c0.6555-0.0956,1.4364-0.4165,1.8035-1.3799c0.6904-1.8125,0.4495-7.9102,0.0627-10
			c-0.3232-1.7471-0.4945-2.99-5.6248-2.99c-3.9603,0-4.9626,0.7417-5.3641,1.8842c0.0527,0.2063,0.0999,0.4213,0.1414,0.6462
			l0.0107,0.0591c0.3218,1.738,0.7671,8.162-0.0807,10.8989c0.4088,0.5782,1.0098,0.8051,1.5341,0.8816L42.0001,46H35
			l0.7586-10.6268c0.6555-0.0956,1.4363-0.4166,1.8034-1.3799c0.6904-1.8125,0.4495-7.9102,0.0627-10
			c-0.3232-1.7471-0.4945-2.99-5.6248-2.99c-5.1287,0-5.3011,1.2408-5.6248,2.99c-0.3867,2.0898-0.6277,8.1875,0.0627,10
			c0.3671,0.9633,1.1479,1.2843,1.8033,1.3799L29.0001,46H22l0.7585-10.6268c0.5243-0.0765,1.1253-0.3034,1.5342-0.8816
			c-0.8473-2.736-0.402-9.1608-0.0803-10.8989c0.045-0.2438,0.0972-0.4744,0.1547-0.6965c-0.3991-1.1465-1.3964-1.893-5.3671-1.893
			c-5.1287,0-5.3011,1.2408-5.6248,2.99c-0.3867,2.0898-0.6277,8.1875,0.0627,10c0.3671,0.9634,1.1479,1.2843,1.8035,1.3799
			L16.0001,46H6v4h52v-4H48L48.7585,35.3732z"/>
		<circle cx="19" cy="15.4533" r="3.45"/>
		<circle cx="45" cy="15.4533" r="3.45"/>
		<circle cx="32" cy="15.4533" r="3.45"/>
		<rect x="11" y="55" width="42" height="4"/>
		<path d="M13,37h-1.75l0.1551-2.178c-0.0065-0.0165-0.0164-0.0289-0.0228-0.0456c-0.9727-2.5532-0.5029-9.3848-0.1699-11.1836
			c0.3753-2.0345,1.1683-3.2992,2.7205-4.0147c-0.0624-1.129-0.1623-2.1328-0.2768-2.7515c-0.2963-1.6014-0.4533-2.75-5.1561-2.75
			c-4.7012,0-4.8593,1.1467-5.156,2.75c-0.3545,1.9157-0.5754,7.5052,0.0575,9.1667c0.3365,0.8831,1.0523,1.1773,1.6532,1.265
			L5.7501,37H1v4h12V37z"/>
		<path d="M58.25,37l0.6953-9.7418c0.6009-0.0876,1.3167-0.3818,1.6532-1.265c0.6329-1.6614,0.412-7.251,0.0575-9.1667
			c-0.2963-1.6014-0.4533-2.75-5.156-2.75c-4.7013,0-4.8594,1.1467-5.1561,2.75c-0.1143,0.6179-0.2142,1.6198-0.2766,2.7471
			c1.5499,0.7092,2.3401,1.9592,2.71,3.96l0.0107,0.0591c0.333,1.7988,0.8027,8.6294-0.1704,11.1836
			c-0.0065,0.017-0.0161,0.0304-0.0226,0.0472L52.7501,37H51v4h12v-4H58.25z"/>
	</g>
</g>
</svg>
