<?xml version="1.0" encoding="utf-8"?>
<!-- Generator: Adobe Illustrator 21.0.2, SVG Export Plug-In . SVG Version: 6.00 Build 0)  -->
<!DOCTYPE svg PUBLIC "-//W3C//DTD SVG 1.1//EN" "http://www.w3.org/Graphics/SVG/1.1/DTD/svg11.dtd">
<svg version="1.1" xmlns="http://www.w3.org/2000/svg" xmlns:xlink="http://www.w3.org/1999/xlink" x="0px" y="0px" width="64px"
	 height="64px" viewBox="0 0 64 64" style="enable-background:new 0 0 64 64;" xml:space="preserve">
<style type="text/css">
	.st0{fill:none;}
</style>
<g id="_x36_4px_Box">
	<rect class="st0" width="64" height="64"/>
</g>
<g id="Icon">
	<g>
		<g>
			<path d="M20.6,32.7c-6.3-0.1,0.4-8.3-7.7-12.3c3.1-1.3,6.2,0.7,6.2,0.7c0.3-4.4-4.7-6.3-4.7-6.3c12,0.1,13.1,7.6,13.1,7.6
				s5.8-1.8,4-8.6c-1.9-7.6-11.2-8.6-11.2-8.6c3.1,4,1,7.5,1,7.5c-9.3-1-8.4-9.5-8.4-9.5c-7.1,7-2.1,14.4-2.1,14.4
				c-2.4-2.9-6.1-2.2-6.1-2.2c5.6,7.6,2,9.8,3.8,14.3C11.5,37.1,21,32.7,20.6,32.7z M48,12H33.3c0.2,0.4,0.3,0.9,0.4,1.3
				c0.6,2.3,0.5,4.1,0,5.7H35v6H19.3c0.3,1.2,0.3,2.4,0.4,3.4c0,0.2,0,0.4,0,0.6H25v6h-4c-0.6,0.3-1.3,0.5-2.2,0.7
				c-1.3,0.3-2.5,0.5-3.7,0.5c-0.4,0-0.8,0-1.1-0.1V61h15v-9h6v9h15V14C50,12.9,49.1,12,48,12z M25,45h-6v-6h6V45z M35,45h-6v-6h6
				V45z M35,35h-6v-6h6V35z M45,45h-6v-6h6V45z M45,35h-6v-6h6V35z M45,25h-6v-6h6V25z"/>
		</g>
	</g>
</g>
</svg>
