<?xml version="1.0" encoding="utf-8"?>
<!-- Generator: Adobe Illustrator 19.1.0, SVG Export Plug-In . SVG Version: 6.00 Build 0)  -->
<svg version="1.2" baseProfile="tiny" xmlns="http://www.w3.org/2000/svg" xmlns:xlink="http://www.w3.org/1999/xlink" x="0px"
	 y="0px" width="64px" height="64px" viewBox="0 0 64 64" xml:space="preserve">
<g id="Box">
	<rect fill="none" width="64" height="64"/>
</g>
<g id="Icon">
	<path d="M53.2017,16.0688c-0.8607-1.6429-2.4016-2.9529-3.5414-4.1758c2.1771-2.4012,2.6649-4.5882,2.1411-5.4262
		c-0.6687-1.0701-2.007,0.0526-2.007,0.0526s-0.2224-1.8154-0.9634-2.0748c-0.8915-0.312-1.593,0.8892-1.593,0.8892
		s-0.3212-1.9735-1.3708-2.2229c-0.9498-0.2257-1.3708,1.4078-1.3708,1.4078s-0.8613-1.6809-1.8717-1.3879
		c-0.8467,0.2455-1.6827,3.35,0.1364,5.8906c-2.4121,0.9886-3.5936,2.6196-4.3925,4.4717
		c-1.8506,4.2913-1.6826,10.1938-10.5718,10.8613c-7.4996,0.5632-12.342-10.6365-13.4939-13.7626
		c-1.0992-2.9836-9.7196,5.8249-1.8401,14.9892c-5.5194-0.9379-3.6777,5.5956,2.522,10.198
		c-1.0015,0.2131-1.688,0.6287-1.9008,1.2537c-0.3014,0.8856,0.2981,2.144,1.7579,3.1381
		c7.8254,5.3291,16.5372,0.1504,16.5372,0.1504c0.264,0.1623,0.3124,0.645-0.4117,1.176c-1.9692,1.4442-4.0813,2.3807-6.0337,2.9963
		c1.1735,1.621,2.5623,3.0614,4.1011,3.7366l3.0654,6.8163c-1.8228,0.7586-3.9812,2.4559-3.7437,3.5154
		c0.1418,0.6329,0.8806,0.6893,1.6348,0.2789c0.6727-0.3661,2.5625-1.59,3.9945-1.59c1.3438,0,4.8319,1.5379,6.7153,2.5071
		c0.5807,0.298,1.5499,0.2236,1.5797-0.5063c0.0269-0.6561-0.6188-1.3743-1.5864-2.0453c3.0363,0.0976,6.0833,0.7132,6.1162,0.7233
		c1.044,0.3185,2.0826-0.8345,0.298-1.865c-1.4291-0.8252-4.5284-1.2212-5.72-1.1744L40.04,48.4343
		c1.3363-0.5719,2.6595-2.3134,3.6665-3.9612c8.2101-3.5564,8.6268-11.8064,4.8042-18.8514
		c2.0748-0.2572,3.4787-2.0347,3.2531-4.0408c-0.2325-2.0685-1.559-2.4742-2.8217-4.8891c2.1372-0.2872,4.2191,0.4499,4.2191,0.4499
		C53.5682,17.1869,53.5239,16.6838,53.2017,16.0688z M34.6709,54.7778l-1.7291-6.1346c1.0974,0,2.2281,0,3.3893,0l2.4668,7.4915
		C37.4421,55.4975,35.9255,54.9979,34.6709,54.7778z M46,15.4999c-0.8284,0-1.5-0.6716-1.5-1.4999s0.6716-1.4999,1.5-1.4999
		S47.5,13.1716,47.5,14S46.8284,15.4999,46,15.4999z"/>
</g>
</svg>
