<?xml version="1.0" encoding="utf-8"?>
<!-- Generator: Adobe Illustrator 17.1.0, SVG Export Plug-In . SVG Version: 6.00 Build 0)  -->
<svg version="1.2" baseProfile="tiny" xmlns="http://www.w3.org/2000/svg" xmlns:xlink="http://www.w3.org/1999/xlink" x="0px"
	 y="0px" width="64px" height="64px" viewBox="0 0 64 64" xml:space="preserve">
<g id="Box">
	<rect fill="none" width="64" height="64"/>
</g>
<g id="Icon">
	<path d="M46,4.9924C45.9316,3.3203,44.5562,2,42.8826,2H42.875c-1.6745,0-3.0504,1.3218-3.1175,2.9951l-0.4431,20.1051
		C39.3065,25.5443,38.9442,25.9,38.5,25.9s-0.8065-0.3558-0.8145-0.7999L37.2425,4.9951C37.1754,3.3218,35.7995,2,34.125,2h-0.0076
		C32.4438,2,31.0684,3.3203,31,4.9924l-1.0457,18.6872c-1.0332-1.4462-2.4609-1.8716-4.1721-1.5536
		c-1.2209,0.2269-3.1049,1.6398-4.0419,2.7734c-0.7191,0.87-1.0952,1.6998-1.3028,2.5994
		c-0.5826-0.2418-1.1785-0.3518-1.7628-0.3014c-2.0693,0.1785-3.7987,3.0234-4.3774,4.7625
		c-0.8896,2.6733,0.3971,6.9721,1.4902,9.3254c0.9528,2.051,2.7019,3.3303,7.47,2.3041c0.0153,0.058,0.0718,0.0969-0.1638,0.3325
		c-0.2656,0.2656-1.9895,1.3118-4.1406,1.5C19.7809,52.0658,22.3593,56.6693,23,57.761V63h19v-5c0,0,5-6.1612,5-14.8118
		C47,31.3192,46,4.9924,46,4.9924z M39.3115,34.6792c-0.0723-0.0269-7.2881-2.6992-11.7246-4.042
		c-1.5504-0.4674-2.9973,1.0056-2.4785,2.5293c1.5641,4.587,8.298,7.6036,12.4561,9.4785
		c-2.0765,0.9107-5.6309,2.0021-7.7832,6.9644c-0.0417-0.0065-0.131-0.1493-0.1229-0.336c0.0767-1.7536,1.2566-4.543,3.3034-6.516
		c0.0088-0.0063,0.0187-0.0143,0.0275-0.0206c-5.3838-2.6826-8.668-5.6812-9.7734-8.9258c-1.041-3.0565,1.8411-6.027,4.9512-5.0879
		c4.4941,1.3604,11.7666,4.0537,11.8398,4.0811C41.246,33.2636,40.5516,35.141,39.3115,34.6792z"/>
</g>
</svg>
