<svg height="64" viewBox="0 0 64 64" width="64" xmlns="http://www.w3.org/2000/svg"><path d="m0 0h64v64h-64z" fill="none"/><path d="m51.4274 13.7276c-1.0714.5757-2.5125.8405-3.5704-.1293-1.3662-1.2524.262-2.8743 1.4636-4.501 1.0978-1.4861 1.5314-3.3474.2161-4.084-1.8663-1.0451-3.3033.3701-4.0558 2.2303-.6908 1.7076-.8885 3.4333-1.6177 4.0032-.821.6416-2.1955-.0414-3.4064-1.1805-1.7375-1.6344-3.7738-3.0901-5.2851-1.4224-1.3041 1.4391.3826 3.2214 3.0705 4.3663 2.314.9856 3.8379.5377 3.8223 2.7155-.0057.7979-.348 1.639-.984 2.0902-1.8911 1.3416-5.865.8548-6.143 3.7567-.2694 2.8115 4.2047 4.3358 6.823.622 1.1839-1.6792 2.5027-1.8171 3.5781-1.2928 3.522 1.7173 1.0847 4.6094 3.147 6.8906 1.3653 1.5103 3.7249 1.1663 4.5291-1.3478 1.2075-3.775-6.2011-7.445-4.7338-9.1863.6057-.7189 2.0593-.4146 3.4583-.3752 2.6501.0746 3.8446-1.6797 3.3171-2.9192-.5289-1.2422-2.0527-1.0832-3.6289-.2363z"/><path d="m43.0792 25.692c-1.7543-.8958-4.3151 2.7854-1.5467 4.3042 2.7685 1.5188 3.8919-3.1067 1.5467-4.3042z"/><path d="m59.213 10.4946c-2.3489-1.1239-3.8201 1.0848-2.5356 2.8644 2.5686 3.5589 5.1707-1.6036 2.5356-2.8644z"/><path d="m39.9029 34.6616c-1.8387 1.51-3.1615 2.9781-4.7179 5.1635-1.4038 1.9712-3.6917 1.0367-3.9525-.2923-.0022-.0112-.0043-.0224-.0064-.0338-.3713-2.0317-.2393-2.7125-.1276-4.1453l1.2795-15.0141c.0443-1.1172-.8013-2.0701-1.9158-2.1591l-.0051-.0004c-1.1139-.0889-2.0995.7167-2.2339 1.826l-1.4871 14.1158c-.0476.4517-.4139.7982-.8677.8158-.0056.0002-.0111.0004-.0167.0006-.4819.019-.9011-.3387-.9502-.8184l-1.6207-15.8383c-.1534-1.1075-1.1537-1.8964-2.2665-1.7874l-.0051.0005c-1.1121.1089-1.9401 1.0757-1.8768 2.1913l1.3768 16.2202c.0388.4567-.2537.8672-.6927.9996-.0056.0017-.0113.0034-.0169.0051-.5085.1537-1.0425-.1537-1.183-.666l-3.6254-13.2167c-.3439-1.0638-1.4663-1.6665-2.5431-1.3655l-.0049.0013c-1.0762.3008-1.7233 1.3972-1.4667 2.4846l3.6843 14.4617c.1011.397-.0523.8051-.3763 1.0559-.0051.004-.0103.0079-.0153.0119-.5065.3931-1.2463.2126-1.524-.3653l-4.2682-8.881c-.4677-.8733-1.5411-1.2216-2.4324-.7894l-.0041.002c-.8907.432-1.2819 1.4897-.8868 2.3973l4.6466 10.21c.522 1.1469.9059 2.3503 1.1694 3.5825.5247 2.4528 1.4462 5.8324 2.9393 8.6245 2.1014 3.9294 4.6486 5.8149 10.6683 5.5091 10.018-.5088 10.648-10.9184 13.8327-15.8253 1.4266-2.1982 2.7543-4.1707 4.9186-6.7982.8603-1.0444.8742-1.8338.2507-2.4088-.6379-.5886-1.9544-.6881-3.6764.7261z"/></svg>