<?xml version="1.0" encoding="utf-8"?>
<!-- Generator: Adobe Illustrator 19.1.0, SVG Export Plug-In . SVG Version: 6.00 Build 0)  -->
<svg version="1.2" baseProfile="tiny" xmlns="http://www.w3.org/2000/svg" xmlns:xlink="http://www.w3.org/1999/xlink" x="0px"
	 y="0px" width="64px" height="64px" viewBox="0 0 64 64" xml:space="preserve">
<g id="Box">
	<rect fill="none" width="64" height="64"/>
</g>
<g id="Icon">
	<g>
		<path d="M39.7749,19.791c-0.437-0.4863-1.0356-1.1533-3.1792-0.0137c-2.5107,1.3345-6.7944,4.8892-10.2358,6.3447
			c-3.5781,1.5107-5.9463,0.2588-6.8896-1.2734c-0.9648-1.5674-1.0098-3.998,1.7588-6.1162c2.9932-2.29,4.7529-4.249,6.3057-5.9785
			c0.8091-0.9007,1.582-1.7578,2.439-2.5745c-6.5941-4.6061-15.624-4.0189-21.3042,1.7958
			c-5.754,5.8902-6.0089,15.0463-1.131,21.6058c0.9506,1.2783,1.8341,2.3568,2.6198,3.2649
			c0.607-0.5043-1.1016,0.6998,7.9873-5.5393c2.0879-1.4336,4.979-0.9893,6.5806,1.0098c0.712,0.8873,1.0701,2.0018,1.0618,3.1255
			c1.8026-0.5271,3.8362,0.025,5.1262,1.5668c0.8919,1.065,1.3447,2.4449,1.0443,4.0485c1.3674,0.0257,2.7632,0.5646,3.6962,1.7177
			c0.9597,1.1876,1.2914,2.8445,0.9731,4.2242c1.4939,0.0309,2.6981,0.6544,3.5643,1.6805c0.682,0.8086,1.0353,1.7711,1.1038,2.7421
			c0.6604,0.0654,1.3397-0.116,1.8867-0.5609c1.1008-0.8951,1.2596-2.5244,0.3569-3.6605
			c-0.0859-0.108-10.4794-13.1696-10.7202-13.4724c-0.2316-0.2914-0.2512-0.6915,0.0126-0.9421
			c0.2711-0.2577,0.7003-0.225,0.9442,0.0365c0.2438,0.2615,11.535,12.1974,11.535,12.1974
			c1.0645,1.1226,2.814,1.2018,3.9263,0.1782c1.1003-1.0128,1.1742-2.736,0.1667-3.8877c0,0-10.8995-12.466-11.1491-12.7546
			c-0.2436-0.2816-0.2497-0.6937,0.014-0.9443c0.2638-0.2507,0.6764-0.2258,0.9437,0.0334
			c0.2745,0.2662,11.9647,11.7928,11.9647,11.7928c1.0795,1.0644,2.7922,1.0907,3.8555,0.0593
			c0.9965-0.9666,1.1957-2.4847-0.1222-3.8582C54.333,35.0361,40.7568,20.8848,39.7749,19.791z"/>
		<path d="M55.5321,12.8386c-4.7554-5.5177-12.9781-6.9221-18.1334-4.809c-7.2435,2.9691-7.2838,6.6744-14.8328,12.4495
			c-1.6376,1.2527-1.7213,2.4053-1.2215,3.217c0.5112,0.8309,1.8945,1.3568,4.1587,0.3994
			c3.0084-1.2723,7.8768-5.0992,10.059-6.2606c2.1434-1.1406,4.1776-1.3753,5.8499,0.4867
			c0.9688,1.0786,15.0861,15.7935,15.0861,15.7935C61.9838,26.6555,60.2275,18.2867,55.5321,12.8386z"/>
		<path d="M23.0099,33.6927c-0.89-1.1096-2.472-1.3597-3.6191-0.5723l-7.6326,5.2392c-1.3331,0.915-1.6091,2.774-0.6069,4.0881
			c0.9728,1.2756,2.7778,1.545,4.0316,0.6016l7.3954-5.5641C23.7658,36.5917,23.9609,34.8782,23.0099,33.6927z"/>
		<path d="M29.2277,38.4218l-0.0004-0.0005c-0.9208-1.0999-2.5262-1.3043-3.6499-0.4647l-8.6842,6.382
			c-1.2938,0.9667-1.5004,2.8331-0.4552,4.1119c1.0179,1.2453,2.8342,1.453,4.0566,0.4639l8.4114-6.7285
			C30.0455,41.2639,30.1901,39.5713,29.2277,38.4218z"/>
		<path d="M33.9416,44.2561c-0.899-1.112-2.5516-1.347-3.6384-0.4676l-7.5247,6.011c-1.2155,0.9835-1.3802,2.7844-0.3682,4.0226
			c1.0474,1.2813,2.934,1.4506,4.1389,0.3713l7.1864-6.3998C34.733,46.9004,34.8027,45.3213,33.9416,44.2561z"/>
		<path d="M34.9153,49.7942l-5.5219,4.7978c-1.045,0.9244-1.1227,2.5383-0.1735,3.6047c0.9557,1.0737,2.5862,1.1817,3.6289,0.2404
			l5.4642-4.8621c0.9918-0.8953,1.0792-2.4311,0.1978-3.476C37.5883,49.0056,35.9625,48.8677,34.9153,49.7942z"/>
	</g>
</g>
</svg>
