<?xml version="1.0" encoding="utf-8"?>
<!-- Generator: Adobe Illustrator 24.3.0, SVG Export Plug-In . SVG Version: 6.00 Build 0)  -->
<svg version="1.1" xmlns="http://www.w3.org/2000/svg" xmlns:xlink="http://www.w3.org/1999/xlink" x="0px" y="0px"
	 viewBox="0 0 64 64" style="enable-background:new 0 0 64 64;" xml:space="preserve">
<style type="text/css">
	.st0{fill:none;}
</style>
<g id="Box">
	<rect class="st0" width="64" height="64"/>
</g>
<g id="Icon">
	<g>
		<path d="M59.873,7.468c0.064-0.906-0.237-1.833-0.93-2.526c-1.648-1.648-4.448-1.072-5.314,1.088
			c-0.155-0.016-0.236-0.176-0.153-0.492c0.248-0.942,0.911-1.708,1.671-2.313c-5.325-3.054-11.995-2.53-16.253,1.728
			c-1.685,1.685-3.712,4.255-3.712,10.773c0,1.591-0.632,3.117-1.758,4.243l-6.021,6.021c-0.391,0.391-0.391,1.024,0,1.414
			l1.414,1.414l2.121-2.121c0.755-0.756,2.073-0.756,2.828,0l3.535,3.536c0.78,0.78,0.78,2.048,0,2.828l-2.121,2.121l1.414,1.414
			c0.391,0.391,1.024,0.391,1.414,0l6.021-6.021c1.125-1.125,2.651-1.757,4.243-1.757c3.694,0,7.299-0.239,10.773-3.713
			c2.529-2.529,3.833-5.964,3.672-9.674C62.594,12.568,61.591,9.813,59.873,7.468z M39.425,25.282c-0.586,0.586-1.535,0.586-2.121,0
			c-0.312-0.312-0.445-0.725-0.425-1.132l-0.989-0.989c-0.391-0.391-0.391-1.024,0-1.414c0.39-0.391,1.024-0.391,1.414,0
			l0.989,0.989c0.408-0.02,0.821,0.114,1.132,0.425C40.01,23.747,40.01,24.697,39.425,25.282z M55.865,21.924
			c-1.626,1.626-3.865,2.456-6.296,2.358c-2.508-0.109-4.917-1.198-6.785-3.065c-3.802-3.802-4.119-9.67-0.707-13.082
			c1.585-1.584,3.7-2.365,5.891-2.365c1.853,0,3.758,0.563,5.446,1.663c0.1,1.678,1.406,2.966,3.082,3.043
			c1.042,1.551,1.647,3.324,1.727,5.152C58.329,18.061,57.491,20.297,55.865,21.924z"/>
		<path d="M32.354,35.182l3.536-3.535l-3.536-3.536l-3.535,3.535l-2.828-2.828c-0.391-0.391-1.024-0.391-1.414,0l-4.607,4.607
			c-1.125,1.125-2.651,1.757-4.243,1.757c-6.553,0-9.047,1.986-10.773,3.713c-2.529,2.529-3.833,5.964-3.672,9.674
			c0.125,2.864,1.127,5.618,2.845,7.964c-0.141,2.006,1.496,3.62,3.501,3.451c2.549,1.811,5.504,2.74,8.405,2.739
			c3.346,0,6.613-1.217,9.073-3.676c1.685-1.685,3.712-4.255,3.712-10.773c0-1.591,0.632-3.117,1.757-4.243l4.607-4.607
			c0.39-0.391,0.39-1.024,0-1.414L32.354,35.182z M21.924,55.865c-2.925,2.924-7.652,3.1-11.338,0.698
			c-0.046-0.765-0.349-1.517-0.933-2.101c-1.321-1.321-3.588-1.317-4.856,0.318l-0.015,0.003c-0.157-0.034-0.218-0.207-0.085-0.513
			c0.395-0.913,1.191-1.58,2.053-2.066c-0.577-1.206-0.916-2.503-0.974-3.83c-0.106-2.434,0.731-4.67,2.358-6.297
			c1.535-1.535,3.612-2.367,5.887-2.367c0.136,0,0.272,0.003,0.409,0.009c2.508,0.109,4.917,1.198,6.785,3.065
			C25.018,46.585,25.335,52.454,21.924,55.865z M28.111,42.253c-0.39,0.391-1.024,0.391-1.414,0l-0.989-0.989
			c-0.408,0.02-0.821-0.114-1.132-0.425c-0.586-0.586-0.586-1.536,0-2.121c0.586-0.586,1.535-0.586,2.121,0
			c0.312,0.312,0.445,0.725,0.425,1.132l0.989,0.989C28.501,41.229,28.501,41.862,28.111,42.253z"/>
	</g>
</g>
</svg>
