<svg height="64" viewBox="0 0 64 64" width="64" xmlns="http://www.w3.org/2000/svg"><path d="m0 0h64v64h-64z" fill="none"/><path d="m53.4039 49c-.4514 1.0048-.9128 1.6119-1.4039 2.2578v.7422h11v-3z"/><path d="m53.983 26.9073c0-2.2227-.0914-3.0378.2401-4.676 1.2169-6.0126 2.8734-15.0695 3.1939-16.7396.3571-1.8608-.6387-2.8317-2.0631-3.1617l-.0065-.0015c-1.4252-.3303-2.857.5234-3.2441 1.9343 0 0-4.6204 17.3044-4.7214 17.6854-.0994.3751-.3235.6989-.7115.6989-.3881 0-.6043-.3103-.7116-.6989-.1032-.3741-4.5181-17.7271-4.5181-17.7271-.3906-1.4099-1.8245-2.26-3.2488-1.9263l-.0065.0015c-1.4236.3336-2.3304 1.7309-2.0553 3.1668l3.0741 15.2439c-.9026-1.2635-2.15-1.6352-3.645-1.3573-1.0667.1982-2.7127 1.4326-3.5313 2.423-.6283.7601-.9568 1.4851-1.1382 2.2711-.509-.2113-1.0297-.3074-1.5402-.2634-1.8079.156-3.3188 2.6415-3.8244 4.1609-.7772 2.3356.3469 5.5914 1.3019 7.6473.8324 1.7919 2.5071 2.868 6.673 1.9714.0404.1143-.0007.2952-.2625.5495-.2354.2287-1.7382 1.1461-3.6176 1.3105 0 6.2466 2.9486 10.2137 3.5084 11.1675v11.4125h16.6398v-11.4125s4.2148-5.2785 4.2148-12.8364c.0001-4.1505.0001-5.8892.0001-10.8438zm-5.606 3.4828c-.2998.248-.6953.3062-1.085.1611-.0693-.0259-6.373-2.3594-10.2285-3.5264-.5508-.1646-1.1182-.0181-1.5186.397-.3916.4062-.5181.9644-.3379 1.4932 1.3247 3.8843 7.1895 6.5288 10.6938 8.1089l.5122.2314-.4595.2505c-.1641.0718-.3384.145-.521.2217-1.7832.748-4.478 1.8784-6.1499 5.7334l-.0771.1777-.1919-.0303c-.21-.0337-.3281-.3125-.3174-.5518.0649-1.4946 1.022-3.8657 2.7339-5.6343-4.5767-2.333-7.3848-4.9507-8.3501-7.7832-.4565-1.3403-.1382-2.7524.8511-3.7773.9824-1.0166 2.4307-1.3955 3.7837-.9878 3.7246 1.127 9.6748 3.3174 10.3408 3.5635.4082.1514.6694.4546.7349.8389.0694.4112-.0927.8482-.4135 1.1138z"/><path d="m20.4286 49 2.5714-6h-3l-3.6387 6.4376c-.0592-.0095-.2614-.0704-.194-.3967.0262-.1266.371-1.1282.7832-2.3062-.1517-.2163-.3547-.3995-.6156-.5121-.7604-.3279-1.637.0209-1.9674.7755-.1472-.335-.4128-.6191-.7753-.7755-.7612-.3276-1.6436.022-1.9717.7832l-.1426.3306-2.4779-4.3364h-3l2.5714 6h-7.5714v3h7.5714l-2.5714 6h3l4.1453-7.3094c.0592.0095.2614.0704.194.3967-.0318.1537-.5335 1.5977-1.0552 3.0815.296.3084.6814.4582 1.0718.4582.7394 0 1.1729-.431 1.4622-1.1016.1866.6712.7787 1.1016 1.4382 1.1016.5555 0 1.0774-.3167 1.3367-.8392l2.407 4.2122h3l-2.5714-6h10.4996v-.7422c-.4636-.6459-.9887-1.423-1.3135-2.2578z"/></svg>