<?xml version="1.0" encoding="utf-8"?>
<!-- Generator: Adobe Illustrator 19.1.0, SVG Export Plug-In . SVG Version: 6.00 Build 0)  -->
<svg version="1.2" baseProfile="tiny" xmlns="http://www.w3.org/2000/svg" xmlns:xlink="http://www.w3.org/1999/xlink" x="0px"
	 y="0px" width="64px" height="64px" viewBox="0 0 64 64" xml:space="preserve">
<g id="_x36_4px_Box">
	<rect fill="none" width="64" height="64"/>
</g>
<g id="Icon">
	<g>
		<rect x="30" y="11" width="18" height="3"/>
		<rect x="30" y="17" width="18" height="3"/>
		
			<rect x="4.9972" y="51.6189" transform="matrix(-0.7071 -0.7071 0.7071 -0.7071 -13.5659 103.3243)" width="19.2381" height="5.7056"/>
		<path d="M46.0757,26.6676c0.9103,0,1.5018,0.0911,2.6176,0.2958v-2.39c-0.956-0.2051-1.6616-0.2734-2.5494-0.2734
			c-3.1642,0-5.4865,1.7303-6.3061,5.145h-1.6849v1.7527h1.412c-0.0458,0.3869-0.0458,0.8196-0.0458,1.2294v0.478h-1.3662v1.7299
			h1.5485c0.6599,3.3694,2.8914,4.9174,6.0557,4.9174c1.2065,0,1.798-0.0682,3.0503-0.3644v-2.2536
			c-1.184,0.2504-1.7989,0.3415-2.8689,0.3415c-1.5018,0-2.7316-0.7742-3.2549-2.6409h4.166V32.905h-4.439
			c-0.0233-0.2275-0.0233-0.478-0.0233-0.7513c0-0.3187,0-0.6373,0.0233-0.956h4.439v-1.7527h-4.1436
			C43.2068,27.6008,44.345,26.6676,46.0757,26.6676z"/>
		<path d="M55,1H23c-1.1046,0-2,0.8954-2,2v25.1221c1.0865-0.7595,2.2548-1.5988,3.6875-2.6309L25,25.2661V5h28v37H25v-4.7205
			c-1.5471,1.1917-3.009,2.1819-4,2.8226V44c0,1.1046,0.8954,2,2,2h32c1.1046,0,2-0.8954,2-2V3C57,1.8954,56.1046,1,55,1z"/>
		<path d="M19,44v-5c3.6223-2.2291,13.6226-9.3146,10.9479-12.6213c-0.715-0.8845-1.7723-0.9346-3.2447,0.1254
			c-5.009,3.6058-7.051,5.1216-11.7032,7.7482C11.7668,36.0777,11.8545,42.4836,12.0261,45L24,57c0,0,2.5294-0.353,6.7059-2.353
			C34.8823,52.647,38,48,38,48H23C20.7908,48,19,46.2092,19,44z"/>
	</g>
</g>
</svg>
