<?xml version="1.0" encoding="utf-8"?>
<!-- Generator: Adobe Illustrator 19.1.0, SVG Export Plug-In . SVG Version: 6.00 Build 0)  -->
<svg version="1.2" baseProfile="tiny" xmlns="http://www.w3.org/2000/svg" xmlns:xlink="http://www.w3.org/1999/xlink" x="0px"
	 y="0px" width="64px" height="64px" viewBox="0 0 64 64" xml:space="preserve">
<g id="Box">
	<rect fill="none" width="64" height="64"/>
</g>
<g id="Icon">
	<g>
		<path d="M43.3867,33.056C35.739,29.8284,32,36.7676,32,36.7676s-3.739-6.9392-11.3867-3.7117
			c-7.543,3.1833-7.0402,18.9774,10.6392,27.7708c0.4644,0.2309,1.0306,0.2309,1.495,0
			C50.4268,52.0334,50.9297,36.2393,43.3867,33.056z"/>
		<path d="M51.2401,2c-2.8019,9.4663-8.5646,16.9532-14.395,19.7767c-1.4526,0.7034-3.6615,0.8956-4.1324,4.2446
			c0,0-0.3132,0.0869-0.4001-0.3651c-0.3726-1.9375,0.4936-4.2167,3.2342-5.4694C34.8839,18.894,33.5528,18,32,18
			c-2.2091,0-4,1.7908-4,4v0.1529C21.8883,19.6719,15.6972,11.9236,12.7599,2H8.5648c1.336,5.0309,3.5027,9.7661,6.4084,13.8989
			C18.7509,21.2722,23.4115,24.961,28,26.3637V27c0,2.2091,1.7909,4,4,4c2.2092,0,4-1.7909,4-4v-0.6363
			c4.5885-1.4027,9.2491-5.0916,13.0269-10.4648C51.9326,11.7661,54.0992,7.0309,55.4352,2H51.2401z"/>
	</g>
</g>
</svg>
