<?xml version="1.0" encoding="utf-8"?>
<!-- Generator: Adobe Illustrator 19.1.0, SVG Export Plug-In . SVG Version: 6.00 Build 0)  -->
<svg version="1.2" baseProfile="tiny" xmlns="http://www.w3.org/2000/svg" xmlns:xlink="http://www.w3.org/1999/xlink" x="0px"
	 y="0px" width="64px" height="64px" viewBox="0 0 64 64" xml:space="preserve">
<g id="Box">
	<rect fill="none" width="64" height="64"/>
	<rect fill="none" width="64" height="64"/>
</g>
<g id="Icon">
	<g>
		<path d="M23.6945,44.2516c-0.1292,0.0423-0.259,0.0941-0.3878,0.1327c-0.8696,0.261-1.7201,0.4258-2.5466,0.513l4.6692,16.8605
			c0.1841,0.6646,0.7876,1.1001,1.4448,1.1001c0.1328,0,0.2676-0.0176,0.4014-0.0547c0.7983-0.2212,1.2661-1.0479,1.0454-1.8462
			L23.6945,44.2516z"/>
		<path d="M61.5264,35.0757l-22.7438-7.512c-0.0969,0.5724-0.221,1.152-0.3983,1.743c-0.1151,0.3834-0.248,0.7687-0.3949,1.1544
			l22.5966,7.4633c0.7876,0.2622,1.6353-0.167,1.8945-0.9541C62.7402,36.1836,62.313,35.3354,61.5264,35.0757z"/>
		<path d="M33.3981,37.6915c-0.2704,0.2958-0.5436,0.5902-0.8297,0.8764c-0.4266,0.4265-0.8676,0.8296-1.3148,1.2207
			l21.7933,22.5371c0.2939,0.3047,0.686,0.4575,1.0781,0.4575c0.3755,0,0.7515-0.1401,1.0425-0.4219
			c0.5957-0.5757,0.6118-1.5254,0.0356-2.1206L33.3981,37.6915z"/>
		<path d="M33.3292,19.4172L20.2598,8.4131c-2.4948-2.1014-6.5636-1.783-10.4738,0.5253c-0.4473,3.949-1.0705,9.5695-1.1334,9.9429
			C8.5601,19.4309,8.0942,19.3373,8,19.303V5h18v5.3701l4,3.3679V4c0-1.6543-1.3457-3-3-3H7C5.3457,1,4,2.3457,4,4v10.2031
			c-3.2302,4.3573-3.9746,9.2216-1.5869,12.0567l10.7,12.7081c1.2468,1.4808,3.2791,5.1945,9.5613,3.309
			c5.8533-1.7556,11.8454-7.7441,13.6025-13.6025C38.1115,22.5618,34.7028,20.5738,33.3292,19.4172z M32.7465,27.3887
			c-0.6789,2.2633-2.2943,4.7871-4.4322,6.9255c-2.1384,2.1379-4.6622,3.7532-6.9255,4.4322
			c-1.7982,0.5393-3.2962,0.4398-4.0056-0.2712c-0.7094-0.7089-0.8105-2.2064-0.2707-4.0051
			c0.6789-2.2633,2.2943-4.7871,4.4322-6.9255c2.1384-2.1379,4.6622-3.7532,6.9255-4.4322c0.7658-0.23,1.4767-0.3433,2.0957-0.3433
			c0.8348,0,1.5021,0.2067,1.9094,0.6139l0.0005,0.0005C33.1852,24.0925,33.2863,25.59,32.7465,27.3887z"/>
	</g>
</g>
</svg>
