<?xml version="1.0" encoding="utf-8"?>
<!-- Generator: Adobe Illustrator 19.1.0, SVG Export Plug-In . SVG Version: 6.00 Build 0)  -->
<svg version="1.2" baseProfile="tiny" xmlns="http://www.w3.org/2000/svg" xmlns:xlink="http://www.w3.org/1999/xlink" x="0px"
	 y="0px" width="64px" height="64px" viewBox="0 0 64 64" xml:space="preserve">
<g id="Box">
	<rect fill="none" width="64" height="64"/>
</g>
<g id="Icon">
	<path d="M41.0229,23.2972c0,0-7.7729-2.5472-11.1739-3.7014c-2.2825-0.7746-3.8487-3.0414-3.8487-5.5959c0-3.3137,2.6863-6,6-6
		s6,2.6863,6,6v3c0,1.6569,1.3431,2,3,2s2.9896-0.3431,2.9896-2l0.0004-3C43.9904,7.298,38.731,2.002,32,2.002
		c-6.6,0-11.9996,5.2266-11.9996,11.998v36C20.0002,56.6072,25.3928,61.9979,32,61.9979c6.6875,0,12.0004-5.2957,12.0004-11.9979
		V27.3727C44.0004,25.5111,42.7964,23.8632,41.0229,23.2972z M41.3848,39.6694c-1.8168,2.4372-2.1848,3.2241-2.8867,4.8589
		c-0.6045,1.4126-1.2285,2.873-2.5674,4.042c-1.1123,0.9722-2.7168,1.5298-4.4004,1.5298c-2.4805,0-4.6338-1.2144-5.7588-3.248
		c-0.75-1.3564-0.8711-3.1309-0.8711-6.8521l0.0625-6.1299c0.0146-0.5371,0.4861-0.9624,1.0213-0.9702
		c0.5449,0,0.9814,0.4131,1.0098,0.9409l0.0801,5.1568c0.2939-0.165,0.5145-0.2882,0.8016-0.4078l0.1201-7.7183
		c0.0137-0.5376,0.4759-0.9639,1.013-0.9717c0.5459,0,0.9834,0.4141,1.0117,0.9429l0.0752,7.1221
		c0.2725-0.0498,0.542-0.0918,0.8066-0.1235l0.0947-7.9692c0.0137-0.5381,0.4453-0.9644,0.9824-0.9722
		c0.5459,0,0.9936,0.4141,1.0219,0.9429l0.1055,7.8994c0.2969,0.0068,0.5572,0.0205,0.7964,0.0376l0.0879-6.9048
		c0.0146-0.5396,0.4584-0.9673,0.9965-0.9751c0.5469,0,0.9863,0.4155,1.0146,0.9463l0.1074,9.1528
		c0.0192,0.3522,0.0032,1.1708,0.3033,1.3506c0.1542,0.0936,0.4313,0.0745,0.6973-0.248c0.9748-1.1959,1.4852-1.8826,2.3574-2.6763
		c0.5542-0.5048,1.3994-0.9362,1.9648-0.4639C41.6104,38.1089,42.1318,38.668,41.3848,39.6694z"/>
</g>
</svg>
