<svg enable-background="new 0 0 64 64" viewBox="0 0 64 64" xmlns="http://www.w3.org/2000/svg"><path d="m0 0h64v64h-64z" fill="none"/><path d="m8.769 28.268 9.178-5.228c-.653-.875-1.184-1.837-1.588-2.858l-12.048 6.863 14.024 24.62 11.726-6.679c.042-1.307.112-2.637.218-3.886l-10.721 6.107z"/><path d="m39.19 10.939 4.615-2.629 10.788 18.938-10.113 5.76c.527-.005 1.04-.008 1.52-.008 1.469 0 3.199.024 4.932.096l8.12-4.625-14.024-24.62-7.485 4.264c.076.098.16.189.234.29.579.796 1.043 1.648 1.413 2.534z"/><path d="m27.24 36.277c-1.27.723-2.682.661-4.023-.665l3.522-2.006-.833-1.462-3.752 2.138c-.129-.181-.25-.393-.382-.624-.154-.269-.307-.539-.441-.819l3.753-2.138-.844-1.482-3.503 1.995c-.465-1.8.048-3.137 1.511-3.971.208-.118.4-.219.589-.311-.814-.36-1.579-.799-2.283-1.315-2.218 1.556-3.115 3.966-2.242 6.978l-1.424.811.844 1.482 1.194-.68c.147.349.356.715.553 1.061l.23.404-1.155.658.833 1.462 1.309-.746c2.18 2.531 4.812 2.765 7.487 1.241 1.02-.581 1.487-.923 2.403-1.777l-1.085-1.905c-.88.783-1.356 1.156-2.261 1.671z"/><path d="m35.803 25.086 4.455 7.82 11.363-6.473-8.63-15.151-3.129 1.782c.316 1.464.373 2.987.134 4.511-.477 3.04-2.011 5.658-4.193 7.511z"/><path d="m26.248 25.675c5.526.866 10.708-2.913 11.574-8.439s-2.913-10.708-8.439-11.574-10.708 2.913-11.574 8.439c-.866 5.527 2.912 10.708 8.439 11.574zm-3.081-10.076.925.145.051-.324c.043-.277.089-.57.161-.828l-.956-.15.186-1.187 1.141.179c.917-2.225 2.673-3.15 4.815-2.815.601.094 1.072.215 1.697.455l-.253 1.618c-.734-.257-1.125-.381-1.741-.478-1.172-.184-2.041.328-2.576 1.523l2.805.439-.186 1.187-3.005-.471c-.05.213-.083.429-.117.645-.029.185-.055.355-.064.511l3.005.471-.184 1.171-2.821-.442c.156 1.319.907 1.974 1.924 2.133.725.114 1.15.117 1.979.073l-.239 1.526c-.879.068-1.287.051-2.104-.077-2.142-.336-3.489-1.62-3.578-3.971l-1.049-.164z"/><path d="m50.794 49.93c-.847 0-1.025.976-1.025 1.795 0 1.633.508 1.853 1.005 1.853.706 0 1.063-.552 1.063-1.641.001-1.799-.595-2.007-1.043-2.007z"/><path d="m41.225 44.307c-.863 0-1.044.976-1.044 1.795 0 1.632.518 1.853 1.024 1.853.863 0 1.044-.892 1.044-1.641.001-1.799-.584-2.007-1.024-2.007z"/><path d="m56.174 36.565c-3.391-.565-9.044-.565-10.174-.565s-6.783 0-10.174.565c-1.173.196-2.065 1.088-2.26 2.261-.566 3.391-.566 9.044-.566 10.174s0 6.783.565 10.174c.195 1.173 1.087 2.065 2.26 2.261 3.392.565 9.045.565 10.175.565s6.783 0 10.174-.565c1.174-.196 2.066-1.088 2.261-2.261.565-3.391.565-9.044.565-10.174 0-3.393 0-6.783-.565-10.174-.195-1.173-1.087-2.065-2.261-2.261zm-18.315 9.71c0-2.896 1.844-3.924 3.423-3.924 2.09 0 3.289 1.374 3.289 3.77 0 2.617-1.785 3.809-3.443 3.809-1.491 0-3.269-.634-3.269-3.655zm6.434 9.727-1.839-.727 5.232-13.277 1.839.727zm6.405-.449c-1.491 0-3.269-.634-3.269-3.655 0-2.896 1.844-3.924 3.423-3.924 2.09 0 3.289 1.374 3.289 3.77 0 2.631-1.729 3.809-3.443 3.809z"/></svg>