<?xml version="1.0" encoding="utf-8"?>
<!-- Generator: Adobe Illustrator 21.0.2, SVG Export Plug-In . SVG Version: 6.00 Build 0)  -->
<!DOCTYPE svg PUBLIC "-//W3C//DTD SVG 1.1//EN" "http://www.w3.org/Graphics/SVG/1.1/DTD/svg11.dtd">
<svg version="1.1" xmlns="http://www.w3.org/2000/svg" xmlns:xlink="http://www.w3.org/1999/xlink" x="0px" y="0px" width="64px"
	 height="64px" viewBox="0 0 64 64" style="enable-background:new 0 0 64 64;" xml:space="preserve">
<style type="text/css">
	.st0{fill:none;}
</style>
<g id="_x36_4px_Box">
	<rect class="st0" width="64" height="64"/>
</g>
<g id="Icon">
	<path d="M62,20.6L56.4,15H41.3L23.6,1.2c-0.3-0.3-0.8-0.3-1.2,0L4.7,15H4c-1.7,0-3,1.3-3,3v5c0,1.7,1.3,3,3,3h4c1.7,0,3-1.3,3-3h8
		v40h2v-4.7l3.1,4.7H27V28.7c0.4-0.2,1.5-1.3,1.8-1.7c0.8-0.7,1.2-1.7,1.2-2.7V17h4.7l-4,2.6l0.7,3.4H54v11.1l-1.2,1.5l0.7,2.9h0.9
		c0,0.4,0.1,0.7,0.3,1c0.3,0.3,0.6,0.6,0.8,0.9c0.2,0.3,0.2,0.7-0.1,1c-0.3,0.2-0.8,0.2-1.1-0.1c-0.3-0.3-0.5-0.6-0.8-1
		c-0.1-0.2-0.4-0.1-0.4,0.1c0,0.4,0,1.2,0.3,1.7c0.7,1.2,2.3,1,3,0.4c0.9-0.8,0.8-1.8,0.4-2.4c-0.3-0.5-0.7-0.9-1-1.3
		c-0.1-0.1-0.1-0.2-0.1-0.4h0.9l0.7-2.9v0L56,34.1V23h5c0.6,0,1.1-0.3,1.3-0.9C62.5,21.6,62.4,21,62,20.6z M23,6.8l1.8,8.2h-3.5
		L23,6.8z M19,21h-5.7l5.7-3.8V21z M11,20.1V17h4.7L11,20.1z M19.2,15H8H7.9L21.4,4.5L19.2,15z M24.1,36H21v-4.7L24.1,36z M24.1,45
		H21v-4.7L24.1,45z M21,49.3l3.1,4.7H21V49.3z M25,60.7L21.9,56H25V60.7z M25,51.7L21.9,47H25V51.7z M25,42.7L21.9,38H25V42.7z
		 M25,33.7L21.9,29H25V33.7z M27,23c0,0.6-0.4,1-1,1h-3c-0.6,0-1-0.4-1-1v-4c0-0.6,0.4-1,1-1h3c0.6,0,1,0.4,1,1V23z M37,21h-4.7
		l4.7-3.1V21z M26.8,15L24.6,4.5L38.1,15H26.8z M39,17h4.7L39,20.1V17z M47,21h-5.7l5.7-3.8V21z M49,17h4.7L49,20.1V17z M51.3,21
		l5-3.3l3.3,3.3H51.3z"/>
</g>
</svg>
