<?xml version="1.0" encoding="utf-8"?>
<!-- Generator: Adobe Illustrator 25.0.0, SVG Export Plug-In . SVG Version: 6.00 Build 0)  -->
<svg version="1.1" xmlns="http://www.w3.org/2000/svg" xmlns:xlink="http://www.w3.org/1999/xlink" x="0px" y="0px"
	 viewBox="0 0 64 64" style="enable-background:new 0 0 64 64;" xml:space="preserve">
<style type="text/css">
	.st0{fill:none;}
	.st1{fill:#FFFFFF;}
	.st2{fill:#B3B3B3;}
</style>
<g id="Box">
	<rect class="st0" width="64" height="64"/>
</g>
<g id="Icon">
	<g>
		<path d="M19.2,11.689c2.987,0.49,5.059-1.317,5.553-4.33c0.563-3.431-0.941-5.567-3.85-6.045c-3.065-0.503-5.073,1.401-5.58,4.497
			C14.787,9.075,16.214,11.199,19.2,11.689z"/>
		<path d="M24.751,43.488c-0.677-1.113-1.319-1.969-1.95-2.842c-1.322-1.796-2.694-3.552-4.09-5.299
			c0.553-2.904,1.362-6.494,2.119-9.702c0.323,1.006,0.69,2.053,1.252,3.183c0.681,1.33,2.938,3.379,3.966,4.463
			c1.681,1.771,3.419,1.823,4.536,1.584c4.136,3.244,10.475,7.01,19.57,9.486l0.933-1.817c-8.771-2.328-14.949-5.95-18.991-9.069
			c-3.329-2.569-5.818-5.31-6.339-6.462c-0.443-0.956-0.803-2.204-1.119-3.331c-0.147-0.527-1.645-6.714-1.875-7.048
			c-0.809-2.017-6.9-4.829-10.506-2.68c-1.984,1.182-5.714,3.956-7.605,6.028c-1.149,1.275-1.613,2.042-2.106,4.839
			c-0.3,1.763-0.492,3.803-0.528,5.578c-0.04,1.972,1.004,3.837,3.07,4.268c0.445-3.369,1.149-8.403,2.228-10.587
			c0.439-0.889,2.429-2.217,3.261-2.757c-0.529,2.452-2.352,10.628-2.352,12.501c0,2.315,1.496,3.518,2.451,4.519l3.733,3.911
			c0,0-0.139,0.238-0.457,0.054c-1.633-0.945-3.784-2.187-3.784-2.187c-0.537,2.023-1.413,5.319-2.182,7.279
			c-0.613,1.561-0.401,1.117-0.995,2.132c-1.201,2.054-2.751,4.129-4.084,6.46c-2.191,3.833,0.459,6.649,0.831,7.008
			c2.153-3.025,5.866-7.498,7.959-10.646c0.701-1.04,0.778-1.124,1.566-2.638c0.599-1.212,1.414-2.951,2.585-5.852
			c0.514,0.469,1.01,1,1.524,1.516c1.263,1.271,2.044,1.889,2.542,2.829c0.15,0.284,0.464,0.929,0.78,1.743
			c1.928,4.968,3.47,7.86,4.324,9.896c1.283,3.061,4.849,3.362,5.849,3.058c-0.984-3.888-3.256-11.834-4.523-15.694
			C25.451,44.483,25.33,44.44,24.751,43.488z"/>
		<polygon points="49.843,55.465 49.009,63 51.204,63 51.884,59.63 51.214,55.465 		"/>
		<path d="M42.686,55.465c-0.499,0-0.78,0.16-1.042,0.6l-0.99,1.637L42.189,63h2.17l-1.604-7.535H42.686z"/>
		<path d="M49.188,46.027c-0.349,0-4.245,0-6.333,0c-7.581,0-8.654-3.972-9.11-5.88c-0.178-0.744-1.192-0.607-1.244,0.124
			c-0.115,1.607,0.64,3.397,1.493,4.562c1.077,1.47,2.333,2.143,2.44,2.415c0.333,0.84-0.086,0.73-0.27,2.72
			c-0.134,1.45,1.03,3.879,1.514,4.483l-1.672,2.783c-0.221,0.299-0.293,0.682-0.195,1.04L37.108,63h2.231l-0.712-4.846l1.734-2.866
			c0.438-0.733,1.134-1.323,2.325-1.323h8.925c0.768,0,0.968,0.569,1.066,1.152l1.263,7.846h2.691c0,0-0.663-4.704-1.094-8.834
			c-0.198-1.898,1.217-3.222,1.975-4.848c0.267-0.573,0.394-1.24,0.493-1.89l-6.465-2.701C50.885,45.467,50.1,46.027,49.188,46.027z
			"/>
		<path d="M60.642,41.068c-0.284-0.73-1.227-1.841-2.454-1.841l-1.592,0.005c-0.12-0.25-0.392-0.686-0.913-0.874
			c-0.991-0.359-2.869-1.177-3.172-0.644c-0.315,0.555,0.536,1.64,1.29,2.44c-0.185,0.604-0.657,1.996-1.389,3.274l5.853,2.445
			c0.188-0.77,0.51-1.332,1.281-1.385c1.699-0.119,3.437-0.435,3.595-2.923L60.642,41.068z"/>
	</g>
</g>
</svg>
