<?xml version="1.0" encoding="utf-8"?>
<!-- Generator: Adobe Illustrator 25.0.0, SVG Export Plug-In . SVG Version: 6.00 Build 0)  -->
<svg version="1.1" xmlns="http://www.w3.org/2000/svg" xmlns:xlink="http://www.w3.org/1999/xlink" x="0px" y="0px"
	 viewBox="0 0 64 64" style="enable-background:new 0 0 64 64;" xml:space="preserve">
<style type="text/css">
	.st0{fill:none;}
	.st1{fill:#FFFFFF;}
	.st2{fill:#B3B3B3;}
</style>
<g id="Box">
	<rect class="st0" width="64" height="64"/>
</g>
<g id="Icon">
	<g>
		<path d="M39.775,41.976h-3.194L34.98,56.92h4.115l1.739-8.556l-0.949-5.894C39.845,42.229,39.806,42.074,39.775,41.976z"/>
		<path d="M20.471,43.493l-1.491,2.466l3.21,10.961h4.07l-3.287-14.936C21.836,42.021,21.081,42.472,20.471,43.493z"/>
		<path d="M35.314,25.089c-0.655,0-7.96,0-11.876,0c-14.218,0-16.229-7.449-17.085-11.027c-0.333-1.395-2.235-1.139-2.333,0.233
			c-0.215,3.015,1.2,6.371,2.8,8.556c2.02,2.757,4.375,4.02,4.576,4.53c0.624,1.576-0.161,1.37-0.506,5.101
			c-0.252,2.719,1.931,7.274,2.839,8.407l-3.135,5.22c-0.414,0.56-0.549,1.279-0.365,1.951l2.432,8.86h4.184l-1.336-9.087
			l3.251-5.375c0.821-1.375,2.127-2.482,4.361-2.482h16.737c1.44,0,1.815,1.066,2,2.16l2.369,14.715h5.046
			c0,0-1.243-8.822-2.051-16.568c-0.371-3.56,2.282-6.043,3.704-9.092c0.545-1.168,0.776-2.54,0.972-3.857l-11.963-4.998
			C38.665,23.924,37.121,25.089,35.314,25.089z"/>
		<path d="M56.796,15.789c-0.533-1.37-2.302-3.452-4.603-3.452l-2.985,0.01c-0.225-0.47-0.736-1.286-1.712-1.64
			c-1.859-0.673-5.381-2.208-5.949-1.208c-0.591,1.04,1.006,3.076,2.418,4.577c-0.362,1.18-1.295,3.944-2.758,6.408l11.062,4.621
			c0.343-1.596,0.924-2.795,2.469-2.902c3.186-0.222,6.446-0.815,6.742-5.482L56.796,15.789z"/>
	</g>
</g>
</svg>
