<?xml version="1.0" encoding="utf-8"?>
<!-- Generator: Adobe Illustrator 18.1.0, SVG Export Plug-In . SVG Version: 6.00 Build 0)  -->
<svg version="1.2" baseProfile="tiny" xmlns="http://www.w3.org/2000/svg" xmlns:xlink="http://www.w3.org/1999/xlink" x="0px"
	 y="0px" width="64px" height="64px" viewBox="0 0 64 64" xml:space="preserve">
<g id="_x36_4px_Boxes">
	<rect fill="none" width="64" height="64"/>
</g>
<g id="Production">
	<path d="M54.8646,32.4854l-6.1979-7.132c-0.2047-0.9031,0.132-2.5703,0-3.3334c-0.6667-3.8533-2.6176-8.1171-2.6176-8.1171
		c2.1099-4.024,1.0794-7.186-2.0956-9.2271c-3.617-2.3252-16.7725-2.5638-26.3723,2.6561
		c-10.1254,5.5057-9.03,15.353-7.3249,20.5063c1.9836,5.9951,7.9103,14.4951,8.3203,20.903C18.7563,51.5508,16.6854,60,16.6854,60
		H39l-0.1353-5.9934l-5.4944-2.8323c-0.2924-0.1597-0.208-0.3534-0.1769-0.4047c0,0,8.2417,1.7748,11.4412,2.1942
		c3.2114,0.4208,6.2918-2.3106,6.2918-6.211c0-4.2802,0-9.6575,0-9.6575l3.3365-1.7672
		C55.2176,34.7115,55.4876,33.4357,54.8646,32.4854z M43.454,24.0574c-1.1406,2.2149-4.535,3.0012-11.5661,3.8827
		C25.8263,28.7,24.751,30.9897,24.2524,36h-3.2219c-0.1001-1.5634,0.0782-3.3378,0.0782-3.3378
		c-2.8326,0.1325-3.8683-1.2911-4.5733-3.367c-0.1583-0.4661-0.4976-0.8422-0.9419-1.0573
		c-0.7934-0.384-2.0251-1.1985-2.4867-2.6899c-0.7041-2.2745-0.2883-3.3333,0.7676-5.0784
		c0.3297-0.5449,0.1627-2.3446,0.3323-3.3133c0.2492-1.4223,1.1331-2.3005,2.3518-2.9149c1.2895-0.6501,2.3143-0.5342,3.2611-1.0096
		c0.9469-0.4753,1.3637-2.4481,3.012-3.0555c2.2068-0.8134,3.7949-0.2039,5.2168-0.226c1.4406-0.0223,3.1069-1.5637,5.0205-1.4722
		c1.7255,0.0826,2.8387,1.7051,3.731,2.2479c0.8922,0.5428,2.5342,0.3355,3.6525,1.0405c3.3252,2.0964,1.4019,4.853,2.0975,6.2375
		C43.2133,19.3243,44.793,21.457,43.454,24.0574z"/>
</g>
</svg>
