<svg enable-background="new 0 0 64 64" viewBox="0 0 64 64" xmlns="http://www.w3.org/2000/svg"><path d="m0 0h64v64h-64z" fill="none"/><path d="m47.657 28.503c-.435-.348-1.136-.788-2.246-1.616-1.032-.77-2.114-1.643-2.581-2.252-.369-.481-.43-1.894-.68-3.289-.357-1.997-3.209-6.222-3.209-6.222.585-2.27-1.197-9.158-12.565-6.122-15.08 4.027-15.249 14.852-15.269 16.252-.071 4.949 1.506 8.206 3.515 10.906l3.683-4.147c.841-.94 2.047-1.48 3.309-1.479.952 0 1.86.298 2.627.863 1.853 1.364 2.36 3.88 1.179 5.852l-.019.031-.02.031c-.025.039-1.544 2.396-4.237 6.618 2.371 3.029 2.848 4.806.401 10.074h19.345c-.652-3.463-.568-5.965-.568-5.965-2.429-.234-3.901-1.03-4.917-1.802-.625-.475-.435-.595-.394-.675 0 0 2.814 1.45 7.77 1.021 2.631-.228 4.221-1.729 3.497-4.846-.156-.672.178-1.37.513-1.906.502-.799.935-1.228.219-2.172-.312-.413-.688-.734-.688-.734s.682-.576.916-1.242c.368-1.048-.145-1.102-.604-1.888-.382-.653-.387-1.372-.387-1.372s.906-.772 1.544-1.446c.355-.377 1.199-1.406-.134-2.473z"/><path d="m63.826 44.599-9.46-7.938c.054-.329-.046-.675-.319-.905l-3.738-3.137c-.413-.346-1.029-.293-1.375.12-.347.413-.293 1.028.12 1.375l3.738 3.137c.274.23.633.268.947.157l9.46 7.938c.207.173.514.146.688-.06.172-.206.145-.514-.061-.687z"/><path d="m22.939 33.166c-.929-.683-2.225-.547-2.992.311l-9.79 11.024-6.455-5.688c-.827-.717-2.052-.729-2.893-.03-.842.698-1.055 1.903-.503 2.849-.002 0 3.539 5.409 8.119 12.135.445.655 1.129 1.104 1.92 1.109h.012c.788 0 1.5-.424 1.92-1.089 7.07-11.175 11.258-17.671 11.258-17.671.592-.989.333-2.266-.596-2.95z"/></svg>