<?xml version="1.0" encoding="utf-8"?>
<!-- Generator: Adobe Illustrator 19.1.0, SVG Export Plug-In . SVG Version: 6.00 Build 0)  -->
<svg version="1.2" baseProfile="tiny" xmlns="http://www.w3.org/2000/svg" xmlns:xlink="http://www.w3.org/1999/xlink" x="0px"
	 y="0px" width="64px" height="64px" viewBox="0 0 64 64" xml:space="preserve">
<g id="_x36_4px_Box">
	<rect fill="none" width="64" height="64"/>
</g>
<g id="Icon">
	<g>
		<path d="M33.2783,24.8486c0.3354-0.2539,0.625-0.5356,0.8589-0.8271c-1.2954,0.2383-2.4819,0.0459-3.4404-0.3613
			c-0.0786,0.5674-0.1323,1.1377-0.1577,1.709c-0.0166,0.376-0.02,0.7803,0.0386,1.1538
			C31.519,26.0439,32.4277,25.4917,33.2783,24.8486z"/>
		<path d="M21.6553,12.7168c0.2324-0.4478,0.5103-0.8784,0.832-1.2847c0.5117-0.6455,1.1094-1.1982,1.7637-1.6411
			c-2.1011,0.0254-4.5703,0.4692-6.6768,1.9785c-1.2188,0.873-2.126,1.98-2.623,3.2012c-0.0542,0.1323-0.104,0.2676-0.1494,0.4058
			c0.2002-0.2515,0.4229-0.4912,0.6675-0.7173C17.0894,13.1641,19.4932,12.4531,21.6553,12.7168z"/>
		<path d="M34.3945,8.5996c-0.0874-0.0078-0.1855-0.0151-0.2637-0.0117c-0.7329,0-1.5439,0.269-2.3779,0.7642
			c0.5874,0.2969,1.1245,0.6318,1.6079,1.002C33.6699,9.7461,34.0103,9.1489,34.3945,8.5996z"/>
		<path d="M23.6353,13.2749c0.5,0.2373,0.9395,0.5361,1.3145,0.8877c0.1943-0.437,0.4365-0.8496,0.686-1.2437
			c0.5273-0.832,1.083-1.5938,1.6592-2.2778c-1.2202,0.2266-2.3838,0.9526-3.2397,2.0332
			C23.9014,12.8677,23.7612,13.0684,23.6353,13.2749z"/>
		<path d="M27.002,15.1025c0.6782,0,1.3306,0.0327,1.9463,0.0972c0.9087-1.7456,1.1431-3.2388,0.625-4.0186
			c-0.0093-0.0132-0.0186-0.0264-0.0278-0.0396c-0.7754,0.7979-1.5303,1.7583-2.2197,2.8472
			c-0.2295,0.3628-0.4502,0.7388-0.6021,1.1157C26.8169,15.103,26.9097,15.1025,27.002,15.1025z"/>
		<path d="M16.1841,22.0239c1.2827-1.2305,3.207-2.1968,5.4775-2.6538c0.063-0.0127,0.126-0.0254,0.189-0.0376
			c-0.3237-0.3828-0.5806-0.8545-0.7578-1.394c-2.0444,0.582-3.9717,1.4678-5.4341,2.6631
			c0.0674,0.2681,0.1548,0.5488,0.2646,0.8413C16.001,21.6499,16.0879,21.8433,16.1841,22.0239z"/>
		<path d="M36.1777,15.0269c0.1421,0.0049,0.2861,0.0117,0.4331,0.0195c0.5518,0.0298,1.084,0.0957,1.5952,0.1958
			c-0.0742-1.8945-0.6064-3.7324-1.2822-4.8145c-0.2261-0.3618-0.4639-0.6689-0.7148-0.9229
			c-0.5161,0.6777-0.9561,1.5054-1.3472,2.3306c0.5562,0.7231,0.9536,1.5244,1.1699,2.3877
			C36.0991,14.4922,36.1475,14.7603,36.1777,15.0269z"/>
		<path d="M36.0825,17.0249c-0.1807,0.8691-0.5352,1.6997-1.0176,2.4619c0.6362,0.397,1.0381,0.8579,1.2925,1.2915
			c0.9834-0.8721,1.5195-2.1401,1.7383-3.5156c-0.5532-0.127-1.0942-0.1924-1.5933-0.2192
			C36.3599,17.0356,36.2202,17.0293,36.0825,17.0249z"/>
		<path d="M40.2188,15.8608c0.5527,0.2393,1.0693,0.5293,1.5459,0.8667c0.1084-0.5723,0.2002-1.147,0.2744-1.7222
			c0.1865-1.4429,0.3145-3.2954-0.355-4.8276c-0.5205-1.1909-1.8149-2.3726-3.2026-2.207c-0.269,0.0317-0.5234,0.1069-0.7646,0.2197
			c0.311,0.3262,0.6143,0.7153,0.9033,1.1777C39.6274,10.9819,40.2671,13.4282,40.2188,15.8608z"/>
		<path d="M34.6445,21.8086c-0.1802-0.3213-0.4985-0.564-0.8501-0.7451c-0.3843,0.3833-0.8018,0.7339-1.2422,1.0469
			C33.1812,22.1792,33.8896,22.103,34.6445,21.8086z"/>
		<path d="M32.0059,18.5112c0.3564,0.0513,0.7095,0.1162,1.0596,0.1948c0.0317,0.0073,0.063,0.0146,0.0942,0.022
			c0.3691-0.5166,0.6597-1.0757,0.8413-1.6582c-0.5815,0.0508-1.0967,0.1343-1.5498,0.2427
			C32.2969,17.7095,32.1479,18.1089,32.0059,18.5112z"/>
		<path d="M34.0913,14.7095c-0.0601-0.2402-0.1401-0.4712-0.2383-0.6919c-0.165,0.3633-0.3296,0.7314-0.4917,1.1016
			c0.2549-0.0293,0.5215-0.0537,0.7998-0.0713C34.1431,14.9351,34.1196,14.8223,34.0913,14.7095z"/>
		<path d="M31.8135,11.7173c0.0996,0.9087-0.0684,1.9561-0.501,3.0977c0.3794-0.8838,0.7729-1.7485,1.1636-2.5928
			C32.2681,12.0435,32.0459,11.875,31.8135,11.7173z"/>
		<path d="M29.7578,29.1011c-0.9487,0.394-1.9097,0.73-2.8647,1.0229c0.2959,0.1909,0.6064,0.3599,0.9316,0.5063
			c2.4082,1.083,4.8687,0.6733,6.2451-0.0063c0.1851-0.0918,0.3677-0.1929,0.5474-0.3032c-0.0991,0.0098-0.1958,0.0181-0.29,0.0249
			C32.3779,30.4937,30.772,30.0425,29.7578,29.1011z"/>
		<path d="M39.9922,17.9697c-0.3838,1.8877-1.2705,3.6064-2.8267,4.7183c-0.1362,0.0977-0.2725,0.1895-0.4082,0.2759
			c-0.189,1.2422-1.0015,2.5181-2.2729,3.4795c-0.8276,0.626-1.6982,1.1719-2.5942,1.6514
			c0.8525,0.3193,1.8828,0.2856,2.2905,0.2568c0.877-0.0649,1.9736-0.2749,3.0962-0.6235c0.4028-0.5562,0.7988-1.1841,1.1929-1.8892
			c1.2085-2.1621,2.1548-4.5142,2.8013-6.9429C40.8711,18.519,40.439,18.2144,39.9922,17.9697z"/>
		<path d="M23.6304,25.5923c0.3008,0.9473,0.7065,1.7905,1.2095,2.5195c0.5649-0.2563,1.0918-0.5801,1.5469-0.9634
			c0.7231-0.6089,1.5288-1.5854,1.5068-2.9038C26.561,24.748,25.0996,25.2485,23.6304,25.5923z"/>
		<path d="M26.3921,21.3916c-0.1553-0.0532-0.3213-0.0786-0.4927-0.0786c-0.5308,0-1.1128,0.2461-1.5869,0.6919
			c-0.4561,0.4282-0.7539,0.9727-0.8774,1.5708c1.3579-0.3369,2.7251-0.813,3.9448-1.2769
			C27.124,21.8374,26.7896,21.5269,26.3921,21.3916z"/>
		<path d="M40.5015,26.291c0.9297-0.5825,1.708-1.2817,2.1689-2.0918c0.5581-0.98,0.5815-2.0312,0.0684-3.2051
			C42.1494,22.8296,41.3989,24.6104,40.5015,26.291z"/>
		<path d="M54.8646,32.4854l-6.1979-7.132c-0.2047-0.9031,0.132-2.5703,0-3.3334c-0.6667-3.8533-2.6176-8.1171-2.6176-8.1171
			c2.1099-4.024,1.0794-7.186-2.0956-9.2271c-3.617-2.3252-16.7725-2.5638-26.3723,2.6561
			c-10.1254,5.5057-9.03,15.353-7.3249,20.5063c1.9836,5.9951,7.9103,14.4951,8.3203,20.903C18.7563,51.5508,16.6854,60,16.6854,60
			H39l-0.1353-5.9934l-5.4944-2.8323c-0.2924-0.1597-0.208-0.3534-0.1769-0.4047c0,0,8.2417,1.7748,11.4412,2.1942
			c3.2114,0.4208,6.2918-2.3106,6.2918-6.211c0-4.2802,0-9.6575,0-9.6575l3.3365-1.7672
			C55.2176,34.7115,55.4876,33.4357,54.8646,32.4854z M44.4082,25.189c-1.1597,2.0366-3.5605,3.4219-5.9141,4.2441
			c-1.0835,1.3716-2.2407,2.3423-3.5381,2.9839C33.7798,32.998,32.3999,33.2891,31,33.2896c-1.3691,0-2.7573-0.2783-3.9956-0.8354
			c-0.7783-0.3496-1.6592-0.8774-2.5034-1.6714c-0.5225,0.1294-1.0381,0.2495-1.5435,0.3628
			c-2.0117,0.4497-4.3506,0.8916-6.6348,0.4414c-2.6479-0.522-4.7622-2.2866-5.3853-4.4956
			c-0.5786-2.0498,0.0967-4.3633,1.8184-6.4224c-0.5132-2.4692-0.3984-4.6348,0.3433-6.4531
			c0.6396-1.5708,1.7842-2.979,3.3101-4.0723c2.9199-2.0918,6.9546-2.8252,11.3623-2.064c0.6016,0.1035,1.1782,0.2363,1.728,0.3955
			c1.5444-1.2197,3.1396-1.8872,4.6313-1.8872c0.0054,0,0.0107,0,0.0161,0c0.5225,0.002,1.1396,0.0874,1.7852,0.3535
			c0.6602-0.5049,1.4224-0.8521,2.3159-0.957c2.3652-0.2842,4.4404,1.4966,5.269,3.3926c0.8657,1.9824,0.7251,4.186,0.5054,5.8843
			c-0.1333,1.0342-0.3193,2.0654-0.5547,3.0869c0.3555,0.4526,0.6685,0.9487,0.9355,1.4854
			C45.3359,21.7061,45.3374,23.5576,44.4082,25.189z"/>
		<path d="M17.0757,25.4561c-0.1392-0.0615-0.2749-0.1274-0.4062-0.1982c0.3657,0.5479,0.7676,1.0234,1.209,1.4302
			c1.3525,1.2476,3.1323,1.7861,4.6284,1.4209c-0.3286-0.6362-0.6201-1.3525-0.8589-2.1602
			C20.0054,26.144,18.4258,26.0522,17.0757,25.4561z"/>
		<path d="M21.373,23.9639c0.0449-0.9731,0.3608-1.8965,0.9248-2.6812c-0.0806,0.0156-0.1611,0.0317-0.2417,0.0483
			c-1.9761,0.3979-3.5195,1.2285-4.4751,2.145c0.0972,0.0542,0.1978,0.1045,0.3022,0.1504
			C18.8545,24.0557,20.0693,24.1177,21.373,23.9639z"/>
		<path d="M23.7134,18.3179c0.1611,0.0825,0.4351,0.063,0.624-0.0454c0.063-0.0366,0.1279-0.0918,0.1304-0.1323
			c0.0166-0.3208,0.0005-0.6118-0.042-0.875c-0.4561,0.0566-0.9155,0.1279-1.3745,0.2139
			C23.21,17.8809,23.4395,18.1772,23.7134,18.3179z"/>
		<path d="M14.4873,25.5132c-0.3872-0.7031-0.7305-1.4829-1.0327-2.3442c-0.604,1.0703-0.9102,2.252-0.5923,3.3794
			c0.4785,1.6953,2.2773,2.7671,3.8477,3.0767c0.3301,0.0649,0.6636,0.1074,0.999,0.1309
			C14.9946,28.3848,14.4858,26.6353,14.4873,25.5132z"/>
		<path d="M22.9014,15.1431c-0.022,0.1128-0.0396,0.2256-0.0537,0.3384c0.1562-0.0283,0.3125-0.0547,0.4678-0.0796
			C23.1792,15.3013,23.0391,15.2158,22.9014,15.1431z"/>
		<path d="M20.7549,14.6587c-1.4097,0-2.9028,0.5225-3.9287,1.4697c-0.5068,0.4683-1.0059,1.1362-1.2285,2.0513
			c1.5454-0.9946,3.3511-1.7363,5.2153-2.2417c0.0088-0.4258,0.0581-0.853,0.146-1.2759
			C20.8911,14.6597,20.8232,14.6587,20.7549,14.6587z"/>
	</g>
</g>
</svg>
