<?xml version="1.0" encoding="utf-8"?>
<!-- Generator: Adobe Illustrator 25.3.1, SVG Export Plug-In . SVG Version: 6.00 Build 0)  -->
<svg version="1.1" xmlns="http://www.w3.org/2000/svg" xmlns:xlink="http://www.w3.org/1999/xlink" x="0px" y="0px"
	 viewBox="0 0 64 64" style="enable-background:new 0 0 64 64;" xml:space="preserve">
<style type="text/css">
	.st0{fill:none;}
</style>
<g id="Box">
	<rect class="st0" width="64" height="64"/>
</g>
<g id="Icon">
	<g>
		<g>
			<path d="M47.657,28.503c-0.435-0.348-1.136-0.788-2.246-1.616c-1.032-0.77-2.114-1.643-2.581-2.252
				c-0.369-0.481-0.43-1.894-0.68-3.289c-0.357-1.997-3.209-6.222-3.209-6.222c0.585-2.27-1.197-9.158-12.565-6.122
				c-15.08,4.027-15.249,14.852-15.269,16.252c-0.071,4.949,1.506,8.206,3.515,10.906l3.683-4.147
				c0.841-0.94,2.047-1.48,3.309-1.479c0.952,0,1.86,0.298,2.627,0.863c1.853,1.364,2.36,3.88,1.179,5.852l-0.019,0.031l-0.02,0.031
				c-0.025,0.039-1.544,2.396-4.237,6.618c2.371,3.029,2.848,4.806,0.401,10.074H40.89c-0.652-3.463-0.568-5.965-0.568-5.965
				c-2.429-0.234-3.901-1.03-4.917-1.802c-0.625-0.475-0.435-0.595-0.394-0.675c0,0,2.814,1.45,7.77,1.021
				c2.631-0.228,4.221-1.729,3.497-4.846c-0.156-0.672,0.178-1.37,0.513-1.906c0.502-0.799,0.935-1.228,0.219-2.172
				c-0.312-0.413-0.688-0.734-0.688-0.734s0.682-0.576,0.916-1.242c0.368-1.048-0.145-1.102-0.604-1.888
				c-0.382-0.653-0.387-1.372-0.387-1.372s0.906-0.772,1.544-1.446C48.146,30.599,48.99,29.57,47.657,28.503z"/>
		</g>
		<g>
			<path d="M63.826,44.599l-9.46-7.938c0.054-0.329-0.046-0.675-0.319-0.905l-3.738-3.137c-0.413-0.346-1.029-0.293-1.375,0.12v0
				c-0.347,0.413-0.293,1.028,0.12,1.375l3.738,3.137c0.274,0.23,0.633,0.268,0.947,0.157l9.46,7.938
				c0.207,0.173,0.514,0.146,0.688-0.06C64.059,45.08,64.032,44.772,63.826,44.599z"/>
		</g>
		<g>
			<path d="M22.939,33.166c-0.929-0.683-2.225-0.547-2.992,0.311l-9.79,11.024l-6.455-5.688c-0.827-0.717-2.052-0.729-2.893-0.03
				c-0.842,0.698-1.055,1.903-0.503,2.849c-0.002,0,3.539,5.409,8.119,12.135c0.445,0.655,1.129,1.104,1.92,1.109
				c0.004,0,0.007,0,0.012,0c0.788,0,1.5-0.424,1.92-1.089c7.07-11.175,11.258-17.671,11.258-17.671
				C24.127,35.127,23.868,33.85,22.939,33.166z"/>
		</g>
	</g>
</g>
</svg>
