<svg height="64" viewBox="0 0 64 64" width="64" xmlns="http://www.w3.org/2000/svg"><path d="m0 0h64v64h-64z" fill="none"/><path d="m33.2783 24.8486c.3354-.2539.625-.5356.8589-.8271-1.2954.2383-2.4819.0459-3.4404-.3613-.0786.5674-.1323 1.1377-.1577 1.709-.0166.376-.02.7803.0386 1.1538.9413-.4791 1.85-1.0313 2.7006-1.6744z"/><path d="m21.6553 12.7168c.2324-.4478.5103-.8784.832-1.2847.5117-.6455 1.1094-1.1982 1.7637-1.6411-2.1011.0254-4.5703.4692-6.6768 1.9785-1.2188.873-2.126 1.98-2.623 3.2012-.0542.1323-.104.2676-.1494.4058.2002-.2515.4229-.4912.6675-.7173 1.6201-1.4951 4.0239-2.2061 6.186-1.9424z"/><path d="m34.3945 8.5996c-.0874-.0078-.1855-.0151-.2637-.0117-.7329 0-1.5439.269-2.3779.7642.5874.2969 1.1245.6318 1.6079 1.002.3091-.608.6495-1.2052 1.0337-1.7545z"/><path d="m23.6353 13.2749c.5.2373.9395.5361 1.3145.8877.1943-.437.4365-.8496.686-1.2437.5273-.832 1.083-1.5938 1.6592-2.2778-1.2202.2266-2.3838.9526-3.2397 2.0332-.1539.1934-.2941.3941-.42.6006z"/><path d="m27.002 15.1025c.6782 0 1.3306.0327 1.9463.0972.9087-1.7456 1.1431-3.2388.625-4.0186-.0093-.0132-.0186-.0264-.0278-.0396-.7754.7979-1.5303 1.7583-2.2197 2.8472-.2295.3628-.4502.7388-.6021 1.1157.0932-.0014.186-.0019.2783-.0019z"/><path d="m16.1841 22.0239c1.2827-1.2305 3.207-2.1968 5.4775-2.6538.063-.0127.126-.0254.189-.0376-.3237-.3828-.5806-.8545-.7578-1.394-2.0444.582-3.9717 1.4678-5.4341 2.6631.0674.2681.1548.5488.2646.8413.0777.207.1646.4004.2608.581z"/><path d="m36.1777 15.0269c.1421.0049.2861.0117.4331.0195.5518.0298 1.084.0957 1.5952.1958-.0742-1.8945-.6064-3.7324-1.2822-4.8145-.2261-.3618-.4639-.6689-.7148-.9229-.5161.6777-.9561 1.5054-1.3472 2.3306.5562.7231.9536 1.5244 1.1699 2.3877.0674.2691.1158.5372.146.8038z"/><path d="m36.0825 17.0249c-.1807.8691-.5352 1.6997-1.0176 2.4619.6362.397 1.0381.8579 1.2925 1.2915.9834-.8721 1.5195-2.1401 1.7383-3.5156-.5532-.127-1.0942-.1924-1.5933-.2192-.1425-.0079-.2822-.0142-.4199-.0186z"/><path d="m40.2188 15.8608c.5527.2393 1.0693.5293 1.5459.8667.1084-.5723.2002-1.147.2744-1.7222.1865-1.4429.3145-3.2954-.355-4.8276-.5205-1.1909-1.8149-2.3726-3.2026-2.207-.269.0317-.5234.1069-.7646.2197.311.3262.6143.7153.9033 1.1777 1.0072 1.6138 1.6469 4.0601 1.5986 6.4927z"/><path d="m34.6445 21.8086c-.1802-.3213-.4985-.564-.8501-.7451-.3843.3833-.8018.7339-1.2422 1.0469.629.0688 1.3374-.0074 2.0923-.3018z"/><path d="m32.0059 18.5112c.3564.0513.7095.1162 1.0596.1948.0317.0073.063.0146.0942.022.3691-.5166.6597-1.0757.8413-1.6582-.5815.0508-1.0967.1343-1.5498.2427-.1543.397-.3033.7964-.4453 1.1987z"/><path d="m34.0913 14.7095c-.0601-.2402-.1401-.4712-.2383-.6919-.165.3633-.3296.7314-.4917 1.1016.2549-.0293.5215-.0537.7998-.0713-.018-.1128-.0415-.2256-.0698-.3384z"/><path d="m31.8135 11.7173c.0996.9087-.0684 1.9561-.501 3.0977.3794-.8838.7729-1.7485 1.1636-2.5928-.208-.1787-.4302-.3472-.6626-.5049z"/><path d="m29.7578 29.1011c-.9487.394-1.9097.73-2.8647 1.0229.2959.1909.6064.3599.9316.5063 2.4082 1.083 4.8687.6733 6.2451-.0063.1851-.0918.3677-.1929.5474-.3032-.0991.0098-.1958.0181-.29.0249-1.9493.148-3.5552-.3032-4.5694-1.2446z"/><path d="m39.9922 17.9697c-.3838 1.8877-1.2705 3.6064-2.8267 4.7183-.1362.0977-.2725.1895-.4082.2759-.189 1.2422-1.0015 2.5181-2.2729 3.4795-.8276.626-1.6982 1.1719-2.5942 1.6514.8525.3193 1.8828.2856 2.2905.2568.877-.0649 1.9736-.2749 3.0962-.6235.4028-.5562.7988-1.1841 1.1929-1.8892 1.2085-2.1621 2.1548-4.5142 2.8013-6.9429-.4-.377-.8321-.6816-1.2789-.9263z"/><path d="m23.6304 25.5923c.3008.9473.7065 1.7905 1.2095 2.5195.5649-.2563 1.0918-.5801 1.5469-.9634.7231-.6089 1.5288-1.5854 1.5068-2.9038-1.3326.5034-2.794 1.0039-4.2632 1.3477z"/><path d="m26.3921 21.3916c-.1553-.0532-.3213-.0786-.4927-.0786-.5308 0-1.1128.2461-1.5869.6919-.4561.4282-.7539.9727-.8774 1.5708 1.3579-.3369 2.7251-.813 3.9448-1.2769-.2559-.4614-.5903-.7719-.9878-.9072z"/><path d="m40.5015 26.291c.9297-.5825 1.708-1.2817 2.1689-2.0918.5581-.98.5815-2.0312.0684-3.2051-.5894 1.8355-1.3399 3.6163-2.2373 5.2969z"/><path d="m54.8646 32.4854-6.1979-7.132c-.2047-.9031.132-2.5703 0-3.3334-.6667-3.8533-2.6176-8.1171-2.6176-8.1171 2.1099-4.024 1.0794-7.186-2.0956-9.2271-3.617-2.3252-16.7725-2.5638-26.3723 2.6561-10.1254 5.5057-9.03 15.353-7.3249 20.5063 1.9836 5.9951 7.9103 14.4951 8.3203 20.903.1797 2.8096-1.8912 11.2588-1.8912 11.2588h22.3146l-.1353-5.9934-5.4944-2.8323c-.2924-.1597-.208-.3534-.1769-.4047 0 0 8.2417 1.7748 11.4412 2.1942 3.2114.4208 6.2918-2.3106 6.2918-6.211 0-4.2802 0-9.6575 0-9.6575l3.3365-1.7672c.9547-.6166 1.2247-1.8924.6017-2.8427zm-10.4564-7.2964c-1.1597 2.0366-3.5605 3.4219-5.9141 4.2441-1.0835 1.3716-2.2407 2.3423-3.5381 2.9839-1.1762.581-2.5561.8721-3.956.8726-1.3691 0-2.7573-.2783-3.9956-.8354-.7783-.3496-1.6592-.8774-2.5034-1.6714-.5225.1294-1.0381.2495-1.5435.3628-2.0117.4497-4.3506.8916-6.6348.4414-2.6479-.522-4.7622-2.2866-5.3853-4.4956-.5786-2.0498.0967-4.3633 1.8184-6.4224-.5132-2.4692-.3984-4.6348.3433-6.4531.6396-1.5708 1.7842-2.979 3.3101-4.0723 2.9199-2.0918 6.9546-2.8252 11.3623-2.064.6016.1035 1.1782.2363 1.728.3955 1.5444-1.2197 3.1396-1.8872 4.6313-1.8872h.0161c.5225.002 1.1396.0874 1.7852.3535.6602-.5049 1.4224-.8521 2.3159-.957 2.3652-.2842 4.4404 1.4966 5.269 3.3926.8657 1.9824.7251 4.186.5054 5.8843-.1333 1.0342-.3193 2.0654-.5547 3.0869.3555.4526.6685.9487.9355 1.4854.9327 1.8725.9342 3.724.005 5.3554z"/><path d="m17.0757 25.4561c-.1392-.0615-.2749-.1274-.4062-.1982.3657.5479.7676 1.0234 1.209 1.4302 1.3525 1.2476 3.1323 1.7861 4.6284 1.4209-.3286-.6362-.6201-1.3525-.8589-2.1602-1.6426.1952-3.2222.1034-4.5723-.4927z"/><path d="m21.373 23.9639c.0449-.9731.3608-1.8965.9248-2.6812-.0806.0156-.1611.0317-.2417.0483-1.9761.3979-3.5195 1.2285-4.4751 2.145.0972.0542.1978.1045.3022.1504.9713.4293 2.1861.4913 3.4898.3375z"/><path d="m23.7134 18.3179c.1611.0825.4351.063.624-.0454.063-.0366.1279-.0918.1304-.1323.0166-.3208.0005-.6118-.042-.875-.4561.0566-.9155.1279-1.3745.2139.1587.4018.3882.6981.6621.8388z"/><path d="m14.4873 25.5132c-.3872-.7031-.7305-1.4829-1.0327-2.3442-.604 1.0703-.9102 2.252-.5923 3.3794.4785 1.6953 2.2773 2.7671 3.8477 3.0767.3301.0649.6636.1074.999.1309-2.7144-1.3712-3.2232-3.1207-3.2217-4.2428z"/><path d="m22.9014 15.1431c-.022.1128-.0396.2256-.0537.3384.1562-.0283.3125-.0547.4678-.0796-.1363-.1006-.2764-.1861-.4141-.2588z"/><path d="m20.7549 14.6587c-1.4097 0-2.9028.5225-3.9287 1.4697-.5068.4683-1.0059 1.1362-1.2285 2.0513 1.5454-.9946 3.3511-1.7363 5.2153-2.2417.0088-.4258.0581-.853.146-1.2759-.0679-.0024-.1358-.0034-.2041-.0034z"/></svg>