<?xml version="1.0" encoding="utf-8"?>
<!-- Generator: Adobe Illustrator 17.1.0, SVG Export Plug-In . SVG Version: 6.00 Build 0)  -->
<svg version="1.2" baseProfile="tiny" xmlns="http://www.w3.org/2000/svg" xmlns:xlink="http://www.w3.org/1999/xlink" x="0px"
	 y="0px" width="64px" height="64px" viewBox="0 0 64 64" xml:space="preserve">
<g id="Box">
	<rect fill="none" width="64" height="64"/>
</g>
<g id="Icon">
	<g>
		<path d="M26.043,11.2148c1.5549,1.1663,4.116,3.375,6,3.375c1.8833,0,4.4167-2.187,6-3.375
			c2.8922,2.1694,2.9342,2.2589,3.957,2.7559V8c0-2.2092-1.7908-4-4-4H26c-2.2092,0-4,1.7908-4,4v6.0132
			C23.087,13.501,23.1735,13.368,26.043,11.2148z"/>
		<path d="M56.043,17.09c-2.4616,0-4.9159-1.9367-6-2.75c-1.0002,0.7503-3.4848,2.75-6,2.75c-2.4616,0-4.9159-1.9367-6-2.75
			c-1.0002,0.7503-3.4848,2.75-6,2.75c-2.4616,0-4.9159-1.9367-6-2.75c-1.0002,0.7503-3.4848,2.75-6,2.75
			c-2.4616,0-4.9159-1.9367-6-2.75c-1.0002,0.7503-3.4848,2.75-6,2.75c-1.0184,0-2.1246-0.3893-3.043-0.8273v4.2183
			C5.9427,20.7856,6.9789,21,8.043,21c2.397,0,4.6631-1.0762,6-1.8633c2.5021,1.4731,5.1318,2.2535,7.957,1.6356
			C22,36.8198,22,44.7791,22,61h20v-7H31v-3h11v-6h-6v-3h6v-6H31v-3h11v-6h-6v-3h6c0-3.8492,0,2.8617,0-3.2483
			c2.8617,0.6507,5.5028-0.1195,8.043-1.615c1.3369,0.7871,3.603,1.8633,6,1.8633c1.0322,0,2.0372-0.2025,2.957-0.4926v-4.2031
			C58.1001,16.7238,57.0267,17.09,56.043,17.09z"/>
	</g>
</g>
</svg>
