<?xml version="1.0" encoding="utf-8"?>
<!-- Generator: Adobe Illustrator 18.1.0, SVG Export Plug-In . SVG Version: 6.00 Build 0)  -->
<svg version="1.2" baseProfile="tiny" xmlns="http://www.w3.org/2000/svg" xmlns:xlink="http://www.w3.org/1999/xlink" x="0px"
	 y="0px" width="64px" height="64px" viewBox="0 0 64 64" xml:space="preserve">
<g id="_x36_4px_Boxes">
	<rect fill="none" width="64" height="64"/>
</g>
<g id="Production">
	<g>
		<path d="M61.2248,30.2057L32.8126,3.3202c-0.4594-0.4269-1.1659-0.4269-1.6253,0L2.7752,30.2057
			C2.2812,30.6652,2,31.3124,2,31.9904v1.7968C2,34.4569,2.5374,35,3.2,35H8v25h48V35h4.8c0.6627,0,1.2-0.5431,1.2-1.2128v-1.7968
			C62,31.3124,61.7187,30.6652,61.2248,30.2057z M47.3658,39.3006L45,40.4966c0,0,0,3.6398,0,6.5368
			c0,2.64-2.085,4.4888-4.2587,4.204c-2.1656-0.2838-7.6367-1.4851-7.6367-1.4851c-0.0211,0.0347-0.0781,0.1658,0.1198,0.2739
			l3.7189,1.9171L37.0349,56H21.931c0,0,1.4017-5.7189,1.2801-7.6206c-0.2775-4.3373-4.1161-10.0906-5.4588-14.1484
			c-1.1541-3.488-1.8956-10.4533,4.9579-14.1799c6.4978-3.5331,15.2293-3.3716,17.6776-1.7978
			c2.149,1.3815,2.8466,3.8217,1.4184,6.5453c0,0,1.3205,2.886,1.7717,5.4942c0.0894,0.5165-0.1385,1.645,0,2.2562l4.1951,4.8274
			C48.1947,38.0197,48.0119,38.8832,47.3658,39.3006z"/>
		<path d="M38.6218,23.4611c-0.7515-0.4772-1.8548-0.3369-2.4542-0.7043c-0.5995-0.3674-1.3475-1.4656-2.507-1.5215
			c-1.2858-0.062-2.4055,0.9814-3.3734,0.9965c-0.9554,0.015-2.0225-0.3976-3.5053,0.153
			c-1.1076,0.4111-1.3876,1.7465-2.0239,2.0681c-0.6362,0.3217-1.3248,0.2433-2.1913,0.6834
			c-0.8189,0.4158-1.4128,1.0102-1.5802,1.9729c-0.1141,0.6556-0.0018,1.8738-0.2233,2.2426
			c-0.7095,1.1812-0.9888,1.8978-0.5157,3.4374c0.3102,1.0095,1.1378,1.5608,1.6709,1.8207
			c0.2985,0.1456,0.5264,0.4001,0.6329,0.7156c0.4737,1.4051,1.1696,2.3687,3.0729,2.279c0,0-0.1199,1.201-0.0526,2.2592h2.1649
			c0.335-3.3912,1.0576-4.941,5.1306-5.4554c4.7244-0.5966,7.0052-1.1289,7.7716-2.6281c0.8997-1.7601-0.1617-3.2037-0.6074-4.0972
			C39.5637,26.7458,40.856,24.88,38.6218,23.4611z"/>
	</g>
</g>
</svg>
