<?xml version="1.0" encoding="utf-8"?>
<!-- Generator: Adobe Illustrator 17.1.0, SVG Export Plug-In . SVG Version: 6.00 Build 0)  -->
<svg version="1.2" baseProfile="tiny" xmlns="http://www.w3.org/2000/svg" xmlns:xlink="http://www.w3.org/1999/xlink" x="0px"
	 y="0px" width="64px" height="64px" viewBox="0 0 64 64" xml:space="preserve">
<g id="Box">
	<rect fill="none" width="64" height="64"/>
</g>
<g id="Icon">
	<g>
		<path d="M48,28h4c0.5522,0,1-0.4478,1-1v-1.4816c0-0.559-0.2344-1.0927-0.646-1.4716L28.6772,2.264
			c-0.3828-0.352-0.9717-0.352-1.3545,0L3.646,24.0468C3.2344,24.4257,3,24.9594,3,25.5184V27c0,0.5522,0.4478,1,1,1h4v21h23
			v-6.4513C31,36.421,38.3081,31.8004,48,31.8V28z"/>
		<path d="M48.0012,54C55.8511,54,62,50.6253,62,46.3214c0-0.6324,0-3.0202,0-3.6548C62,38.3673,55.8511,35,48.0012,35
			C40.1492,35,34,38.3673,34,42.6666c0,0.6346,0,3.0225,0,3.6548c0,0.9493,0.3142,1.8492,0.865,2.6819
			C34.312,49.8288,34,50.7224,34,51.6666v3.6548C34,59.6253,40.1492,63,48.0012,63C55.8511,63,62,59.6253,62,55.3214v-3.6548
			c0-0.2049-0.0266-0.4056-0.0542-0.606c-0.7144,0.8958-4.5718,5.1376-13.6127,5.1376c-8.0173,0-10.7806-3.8577-11.0668-4.3807
			c-0.1169-0.2137-0.2019-0.4362-0.0765-0.5667C39.738,52.9397,43.6016,54,48.0012,54z M36.7012,43
			c0-2.8444,5.0601-5.15,11.302-5.15s11.302,2.3057,11.302,5.15c0,2.8443-5.0601,5.15-11.302,5.15S36.7012,45.8443,36.7012,43z"/>
		<path d="M45.8542,44.7261v0.6766h1.5551v-0.5565c0.3053,0.0191,0.6703,0.0191,1.016,0.0191h0.384v0.5374h1.5168v-0.6166
			c2.7834-0.2999,4.1094-1.2643,4.1094-2.6701c0-0.5469-0.0571-0.7845-0.3076-1.3435H52.072
			c0.2123,0.5182,0.2886,0.7773,0.2886,1.2546c0,0.6166-0.5938,1.1155-2.0344,1.334v-1.7634h-1.5168v1.8928
			c-0.1907,0.0096-0.384,0.0193-0.6128,0.0193c-0.2697,0-0.52-0.0098-0.7872-0.0193v-1.8928h-1.5551v1.7538
			c-1.4023-0.2089-2.1322-0.6575-2.1322-1.3748c0-0.4078,0.0763-0.6454,0.2479-1.1539h-2.168
			c-0.174,0.4269-0.2312,0.7269-0.2312,1.1226C41.5708,43.3611,43.0112,44.3662,45.8542,44.7261z"/>
	</g>
</g>
</svg>
