<svg height="64" viewBox="0 0 64 64" width="64" xmlns="http://www.w3.org/2000/svg"><path d="m0 0h64v64h-64z" fill="none"/><path d="m13 41h38c2.2092 0 4-1.7908 4-4v-24c0-2.2092-1.7908-4-4-4h-38c-2.2092 0-4 1.7908-4 4v24c0 2.2092 1.7908 4 4 4zm38-18.2c1.215 0 2.2.985 2.2 2.2s-.985 2.2-2.2 2.2-2.2-.985-2.2-2.2.985-2.2 2.2-2.2zm-38-9.8h34v24h-34z"/><path d="m58.7147 51.1724-2.9153-6.4138c-.4868-1.071-1.5547-1.7586-2.7312-1.7586h-42.1364c-1.1765 0-2.2443.6876-2.7311 1.7586l-2.9153 6.4138c-.6021 1.3242.366 2.8276 1.8206 2.8276h49.788c1.4546 0 2.4227-1.5034 1.8207-2.8276zm-33.7147-.1724 1.5-4h11l1.5 4z"/></svg>