<?xml version="1.0" encoding="utf-8"?>
<!-- Generator: Adobe Illustrator 19.1.0, SVG Export Plug-In . SVG Version: 6.00 Build 0)  -->
<svg version="1.2" baseProfile="tiny" xmlns="http://www.w3.org/2000/svg" xmlns:xlink="http://www.w3.org/1999/xlink" x="0px"
	 y="0px" width="64px" height="64px" viewBox="0 0 64 64" xml:space="preserve">
<g id="Box">
	<rect fill="none" width="64" height="64"/>
</g>
<g id="Icon">
	<g>
		<path d="M22.6152,16.5806c0-8.7095-4.6108-12.04-10.3105-12.04S1.5459,8.5752,1.5459,17.0928
			c0,8.9658,4.7388,11.6553,10.2466,11.6553C17.3638,28.748,22.6152,24.7778,22.6152,16.5806z M12.0483,23.561
			c-2.4976,0-4.2266-1.6011-4.2266-7.0444c0-5.1235,1.9854-6.8525,4.291-6.8525c2.4976,0,4.2905,1.793,4.2905,7.4287
			C16.4033,21.7036,14.5464,23.561,12.0483,23.561z"/>
		<polygon points="32.4136,3.5801 15.3789,46.8081 20.1816,48.729 37.2168,5.5015 		"/>
		<path d="M40.6108,28.3643c2.1938,0,3.8434,1.3856,4.2124,5.5417c1.8149-0.0803,3.6391-0.106,5.1768-0.106
			c0.3395,0,0.6995,0.002,1.0638,0.0046c-0.4983-7.6099-4.8956-10.5639-10.2606-10.5639c-5.6997,0-10.7593,4.0347-10.7593,12.5522
			c0,5.0706,1.5172,8.1314,3.8304,9.8359c0.0797-2.2437,0.236-4.5396,0.534-6.3278c0.2285-1.3738,0.9324-2.5728,1.9248-3.4561
			c-0.0056-0.2068-0.0129-0.4096-0.0129-0.6288C36.3203,30.0933,38.3057,28.3643,40.6108,28.3643z"/>
		<path d="M62.435,39.826c-0.195-1.1728-1.0873-2.0651-2.2607-2.2607C56.7828,37,51.1301,37,50.0001,37
			c-1.1301,0-6.7828,0-10.1743,0.5653c-1.1735,0.1956-2.0657,1.0879-2.2607,2.2607C37,43.2173,37,48.8696,37,50
			c0,1.1303,0,6.7827,0.5651,10.174c0.195,1.1729,1.0873,2.0651,2.2607,2.2607C43.2172,63,48.8699,63,50.0001,63
			c1.1301,0,6.7828,0,10.1742-0.5654c1.1735-0.1956,2.0657-1.0878,2.2607-2.2607C63,56.7827,63,51.1303,63,50
			C63,46.607,63,43.2173,62.435,39.826z M57.1864,50.3214l-6.0909,7.7152c-0.2609,0.3307-0.6589,0.5234-1.08,0.5234
			c-0.4211,0-0.819-0.1927-1.08-0.5234l-6.0909-7.7152c-0.4084-0.5163-0.3931-1.2507,0.0369-1.7499
			c0.4294-0.4993,1.1528-0.6242,1.725-0.2978l3.3788,1.9271v-7.0152c0-1.1032,0.9539-1.4324,2.0309-1.4319
			c1.0762-0.0004,2.0297,0.3284,2.0297,1.4319v9.6562c0,0,0.1047,0.0627,0.1569-0.1306c0.0654-0.2421,0.8163-3.0656,0.8163-3.0656
			l2.4056-1.372c0.5722-0.3264,1.2955-0.2015,1.725,0.2978c0.2216,0.2573,0.3329,0.5774,0.3329,0.8974
			C57.4824,49.7698,57.3843,50.0712,57.1864,50.3214z"/>
	</g>
</g>
</svg>
