<?xml version="1.0" encoding="utf-8"?>
<!-- Generator: Adobe Illustrator 23.1.1, SVG Export Plug-In . SVG Version: 6.00 Build 0)  -->
<svg version="1.1" xmlns="http://www.w3.org/2000/svg" xmlns:xlink="http://www.w3.org/1999/xlink" x="0px" y="0px"
	 viewBox="0 0 64 64" style="enable-background:new 0 0 64 64;" xml:space="preserve">
<style type="text/css">
	.st0{fill:none;}
</style>
<g id="Box">
	<rect class="st0" width="64" height="64"/>
</g>
<g id="Icon">
	<g>
		<path d="M48.2,16.2c2.6,0,4.2-1.6,4.2-4.5c0-0.3,0-0.6-0.1-0.8c0.9-0.2,1.9-0.5,1.9-1.2c0-1.2-6.8-3.6-8.6-2.9
			c-1.3,0.5-1.6,2.8-1.6,4c0,0.1,0,1.2,0.1,1.8C44.4,14.8,45.8,16.2,48.2,16.2z"/>
		<path d="M19,16.1c2.5,0,3.9-1.6,3.9-4.3c0-2.6-1.4-4.5-3.9-4.5c-2.4,0-3.9,1.6-3.9,4.5C15,14.3,16.5,16.1,19,16.1z"/>
		<path d="M56.8,21.6c-1.2-2.5-3.3-3-4-3.1c-2.7-0.7-6.5-0.7-9.3,0c-0.9,0.2-1.6,0.6-2.2,1.2c1.6,2,2.1,4.7,2.4,7.1
			c0.1,1.1,0.4,2.1,0.7,3.3c0.3,1.1,0.6,2.3,0.9,3.9v0c0.3,1.7,0,3.2-0.8,4.4c-0.5,0.7-1.2,1.2-1.9,1.4V59c0,0,4.2,0,4.4-4.4
			c0,0,0.6-16,0.6-16.2c0-0.2,0.1-0.4,0.4-0.4c0.3,0,0.4,0.2,0.4,0.4c0,0.2,0.6,16.3,0.6,16.3c0.3,4.3,4.4,4.2,4.4,4.2V38l0-13.5
			c0.1-0.1,0.3,0.1,0.4,0.3c0.6,1.4,1.1,2.9,1.9,5c0.6,1.6,1.4,3.8,2.2,5.7c0.2,0.5,0.5,0.9,0.9,1.2c-0.4,5.2-1.5,21.3-1.6,21.9
			c-0.1,0.6,1.9,0.8,2,0.2c0.1-0.6,1.7-17.2,2.1-21.1c0.5,0.1,0.9,0,1.2-0.2C62.7,37.6,58.7,25.6,56.8,21.6z"/>
		<path d="M18.9,18c-0.9,0-1.8,0.1-2.6,0.2c0.7,1,1,2.2,1,3.6c0,2.4-1.2,4.2-3,5c1.4,1,2.1,2.7,2.1,4.6v6.6c1.2,0.1,3,0.3,4.6,0.7
			c0.5,0.1,1.1,0.3,1.8,0.5c-0.4-0.3-0.8-0.6-1.1-1c-0.8-1.2-1.1-2.7-0.8-4.4c0.3-1.6,0.6-2.8,0.9-3.9c0.3-1.2,0.6-2.2,0.7-3.3
			c0.3-2.4,0.9-5.1,2.4-7.1c-0.6-0.5-1.2-0.8-2-1C21.7,18.2,20.4,18,18.9,18L18.9,18z"/>
		<path d="M12.6,57.3c-4.4,0-7.9-3.6-7.9-7.9c0-1.8,0.6-3.4,1.5-4.7c-0.4-0.6-0.6-1.3-0.8-2.1c-0.1-0.5-0.1-1.1-0.2-1.7
			C2.9,43,1.4,46,1.4,49.4c0,6.2,5,11.2,11.2,11.2c4,0,7.5-2.1,9.5-5.3c-0.5-1.3-1.1-2.9-1.7-4.5C19.7,54.5,16.5,57.3,12.6,57.3z"/>
		<path d="M20.7,40.3c-2.4-0.6-5.7-0.7-5.7-0.7c0-4.4,0-8,0-8c0-4.2-4-4.8-6.1-3.9C8,28,7.3,28.8,7,30.7c-0.6,3.3-0.5,8.7,0,11.7
			c0.5,3.2,3.7,3.3,4.5,3.3s8.6,0,8.6,0c1.2,3.2,2.5,6.8,3.5,9.4c1.3,3.3,3.9,3,4.6,2.8c-0.9-3.9-1.9-8.3-3-12.3
			C23.8,40.9,23.4,40.9,20.7,40.3z"/>
		<path d="M12.1,25.9c2.4,0,3.7-1.6,3.8-4c0-2.7-1.4-4.2-3.7-4.2c-2.4,0-3.7,1.7-3.8,4.1C8.4,24.4,9.8,25.9,12.1,25.9z"/>
		<path d="M43.9,34.2c-0.6-3.3-1.4-5-1.6-7.3c-0.6-4.6-1.9-7-4.3-8c0,0-0.7-6.1-0.8-7.3c-0.1-1.1-0.2-1.8-0.4-2.2
			C36.3,7.9,35,7,33.2,7c-1.7,0-3,0.8-3.6,2.2c-0.2,0.4-0.3,1.2-0.5,2.4c-0.2,1.8-1,7.3-1,7.3c-2.3,1.1-3.6,3.5-4.1,7.9
			c-0.3,2.3-1,4-1.6,7.3c-0.5,2.6,1,4.1,2.2,4.2C27,31,27.4,27.1,28,25c-0.1,1.2,0.2,2.1,0.4,2.9c0.3,1.3,0.4,2.6,0,3.9
			c-0.4,1.4-1.2,7.1-1.8,13.2c0,0,0,0.1,0,0.1l0,0c1.2,4.1,2.1,8.4,3.3,13.6c1.1,0.2,2.3,0.3,3.7,0.3c4.7,0,7-1,7-1
			c0-7.7-2-23.8-2.7-26.2c-0.3-1.3-0.3-2.6,0-3.9c0.2-0.9,0.4-1.7,0.4-2.9c0.5,2.1,1,6,3.4,13.4C43,38.3,44.4,36.8,43.9,34.2z
			 M33.2,16c-1.7,0-2.7-1.5-2.7-3.5c0-0.3,0-0.6,0.1-0.8h5.3c0,0.3,0.1,0.5,0.1,0.8C35.9,14.7,34.9,16,33.2,16z"/>
	</g>
</g>
</svg>
