<?xml version="1.0" encoding="utf-8"?>
<!-- Generator: Adobe Illustrator 17.1.0, SVG Export Plug-In . SVG Version: 6.00 Build 0)  -->
<svg version="1.2" baseProfile="tiny" xmlns="http://www.w3.org/2000/svg" xmlns:xlink="http://www.w3.org/1999/xlink" x="0px"
	 y="0px" width="64px" height="64px" viewBox="0 0 64 64" xml:space="preserve">
<g id="Box">
	<rect fill="none" width="64" height="64"/>
</g>
<g id="Icon">
	<g>
		<path d="M45,31c-4.4183,0-8,3.5817-8,8v7.9848c-0.0562,0.0209-0.2623,0.0673-0.3641-0.2499L35.6885,42H22
			c-6.6172,0-12,5.3828-12,12v9h8v-9c0-2.2061,1.7939-4,4-4h15v13h16V39C53,34.5817,49.4183,31,45,31z"/>
		<path d="M26.7778,23.0566c0.5833-5.9166,6.25-6.6666,6.25-6.6666c0,4.9166-3.3333,7.4166-3.3333,7.4166s7.5,0.8334,12.5833-2.75
			c6.7444-4.7543,1.8333-13.25,1.8333-13.25s-0.1666,3.0834-1.75,4.9167c-1.5833,1.8333-4.25,3.1667-5.0833,1.8333
			c-0.8333-1.3333,3.4399-2.7423,2.75-7.9166c-0.5-3.75-5.3333-5.9167-5.3333-5.9167s1.25,4.75-0.9167,8.0833
			c-2.1667,3.3334-9.4167,2.6667-10.5833,7.3334C22.0278,20.8066,26.7778,23.0566,26.7778,23.0566z"/>
		<rect x="23" y="26" width="10" height="14"/>
		<rect x="23" y="52" width="10" height="11"/>
	</g>
</g>
</svg>
