<svg enable-background="new 0 0 64 64" viewBox="0 0 64 64" xmlns="http://www.w3.org/2000/svg"><path d="m13.5094 44c-.8336 0-1.5094-.6758-1.5094-1.5095v-17.9811c0-.8336.6758-1.5094 1.5094-1.5094h32.9812c.8336 0 1.5094.6758 1.5094 1.5094v6.2904c.9174 0 1.9415.0114 3 .036v-15.8616c0-1.6426-1.3315-2.9742-2.9742-2.9742h-36.0516c-1.6427 0-2.9742 1.3316-2.9742 2.9742v30.0515c0 1.6426 1.3315 2.9743 2.9742 2.9743h19.8293c-.0024-.3436-.0037-.6788-.0037-1 0-.9176.0104-1.9413.0345-3zm8.4906-27h26v3h-26zm-5 0h3v3h-3zm-5 0h3v3h-3z"/><path d="m60.4351 36.826c-.1951-1.1728-1.0874-2.0651-2.2608-2.2606-3.3913-.5654-9.0442-.5654-10.1743-.5654-1.13 0-6.7827 0-10.1742.5654-1.1735.1955-2.0658 1.0878-2.2607 2.2606-.5651 3.3913-.5651 9.0437-.5651 10.174 0 1.1304 0 6.7827.5651 10.174.1949 1.1728 1.0872 2.0651 2.2607 2.2607 3.3915.5653 9.0442.5653 10.1742.5653 1.1301 0 6.783 0 10.1743-.5653 1.1734-.1956 2.0657-1.0879 2.2608-2.2607.5649-3.3913.5649-9.0436.5649-10.174 0-3.393 0-6.7827-.5649-10.174zm-8.7334 3.9668c1.6471 1.8538 2.2936 5.8258.8077 8.8069-1.756-.668-3.5264-1.3411-5.3195-2.023.5303-1.6141 3.2662-5.678 4.5118-6.7839zm-6.1994 5.7819c-.8416-.5527-1.7856-1.1727-2.7194-1.7858 1.0345-2.5279 4.317-4.7709 7.094-4.8098-1.4314 2.1585-2.8781 4.3395-4.3746 6.5956zm-5.1902 4.9998c-1.3536-1.7165-1.7525-5.2518-.8428-7.3342.3462.2911.6655.5369.9537.8154.0914.088.1707.2858.1351.3937-.6572 1.9977-.7394 4.0187-.246 6.1251zm.997-8.0302c-1.4007-1.2181-1.4442-.8227-.2749-2.243 2.1079-2.5608 4.8776-3.6163 8.1819-3.2368.1356.0156.2687.0521.4903.0964-.8994.2252-1.7341.3635-2.515.6493-.7842.287-1.5576.6551-2.2571 1.1086-.7148.4631-1.3826 1.0256-1.9816 1.6324-.586.5938-1.0596 1.2986-1.6153 1.9958.0047.0001-.0183.006-.0283-.0027zm.7735 2.8502c.9592.619 1.8803 1.2131 2.7816 1.7947-.5804 1.8403-1.1556 3.6646-1.7219 5.46-1.1056-1.0945-1.9652-4.5605-1.0597-7.2547zm2.657 8.4868c.3607-2.0386.9349-3.9359 1.7004-5.7839 1.7409.6809 3.4581 1.3527 5.2222 2.0428-1.7228 2.2828-3.9838 3.5393-6.9226 3.7411zm3.3101 1.1128c.1104-.075.168-.1318.2371-.1584 2.0742-.8062 3.7076-2.1619 4.9538-3.9913.16-.2349.3011-.3304.5951-.2591.5385.1303 1.0889.2129 1.6861.3253-1.2082 2.3219-4.8391 4.3016-7.4721 4.0835zm8.3233-5.6982c-.6663-.1072-1.35-.217-2.0924-.3363 1.3541-3.6413.9522-7.0361-1.0835-10.2574 3.5414 2.425 4.6808 7.0155 3.1759 10.5937z"/></svg>