<?xml version="1.0" encoding="utf-8"?>
<!-- Generator: Adobe Illustrator 19.2.0, SVG Export Plug-In . SVG Version: 6.00 Build 0)  -->
<svg version="1.0" xmlns="http://www.w3.org/2000/svg" xmlns:xlink="http://www.w3.org/1999/xlink" x="0px" y="0px"
	 viewBox="0 0 64 64" enable-background="new 0 0 64 64" xml:space="preserve">
<g id="achtergrond">
</g>
<g id="paneel_1">
	<g>
		<g>
			<path d="M13.5094,44C12.6758,44,12,43.3242,12,42.4905V24.5094C12,23.6758,12.6758,23,13.5094,23h32.9812
				C47.3242,23,48,23.6758,48,24.5094v6.2904c0.9174,0,1.9415,0.0114,3,0.036V14.9742C51,13.3316,49.6685,12,48.0258,12H11.9742
				C10.3315,12,9,13.3316,9,14.9742v30.0515C9,46.6683,10.3315,48,11.9742,48h19.8293c-0.0024-0.3436-0.0037-0.6788-0.0037-1
				c0-0.9176,0.0104-1.9413,0.0345-3H13.5094z M22,17h26v3H22V17z M17,17h3v3h-3V17z M12,17h3v3h-3V17z"/>
		</g>
		<g>
			<path d="M60.4351,36.826c-0.1951-1.1728-1.0874-2.0651-2.2608-2.2606C54.783,34,49.1301,34,48,34
				c-1.13,0-6.7827,0-10.1742,0.5654c-1.1735,0.1955-2.0658,1.0878-2.2607,2.2606C35,40.2173,35,45.8697,35,47
				c0,1.1304,0,6.7827,0.5651,10.174c0.1949,1.1728,1.0872,2.0651,2.2607,2.2607C41.2173,60,46.87,60,48,60
				c1.1301,0,6.783,0,10.1743-0.5653c1.1734-0.1956,2.0657-1.0879,2.2608-2.2607C61,53.7827,61,48.1304,61,47
				C61,43.607,61,40.2173,60.4351,36.826z M42.3616,40.3149c0,0,0.9058,0,2.1748,0c1.4977,0,2.364,0.8173,2.6375,1.3665
				l0.607,5.9606c0,0,0.1922,0.0421,0.2312-0.1954l0.5546-5.9984c0.3752-0.5208,1.1982-1.1333,2.4946-1.1333
				c1.2692,0,2.1747,0,2.1747,0v10.299c0,0-2.1439-0.0029-3.1312,0.2087c-0.307,0.0658-0.5948,0.1588-0.8455,0.2557
				c-0.8636,0.3976-1.0466,0.8301-1.4603,0.8301c-0.4141,0-0.5967-0.4326-1.4601-0.8301c-0.2511-0.097-0.5392-0.1899-0.8463-0.2557
				c-0.9871-0.2116-3.131-0.2087-3.131-0.2087V40.3149z M55.895,52.6077c0,0.3574-0.2892,0.6476-0.6471,0.6476l-2.1523,0.1562
				c-0.914,0-2.511,0.0327-3.2563,0.2683c-1.382,0.4372-1.5472,1.154-2.0402,1.154s-0.6586-0.7168-2.0407-1.154
				c-0.7452-0.2357-2.3422-0.2683-3.2562-0.2683l-2.152-0.1562c-0.3576,0-0.6473-0.2902-0.6473-0.6476V42.0959
				c0-0.3574,0.2897-0.6477,0.6473-0.6477h0.9012c0,0,0,8.9364,0,9.5797c0,0.6436,0.3366,0.7111,1.2507,0.7111
				c0.9141,0,2.511,0.1342,3.2562,0.3698c1.3821,0.4374,1.5477,1.0526,2.0407,1.0526s0.6583-0.6152,2.0402-1.0526
				c0.7452-0.2355,2.3423-0.3698,3.2563-0.3698c0.9146,0,1.2507-0.0675,1.2507-0.7111c0-0.6433,0-9.5797,0-9.5797h0.9016
				c0.3578,0,0.6471,0.2903,0.6471,0.6477V52.6077z"/>
		</g>
	</g>
</g>
</svg>
