<?xml version="1.0" encoding="utf-8"?>
<!-- Generator: Adobe Illustrator 19.1.0, SVG Export Plug-In . SVG Version: 6.00 Build 0)  -->
<svg version="1.2" baseProfile="tiny" xmlns="http://www.w3.org/2000/svg" xmlns:xlink="http://www.w3.org/1999/xlink" x="0px"
	 y="0px" width="64px" height="64px" viewBox="0 0 64 64" xml:space="preserve">
<g id="_x36_4px_Box">
	<rect fill="none" width="64" height="64"/>
</g>
<g id="Icon">
	<g>
		<path d="M32,8C18.7451,8,8,18.7441,8,32s10.7451,24,24,24c13.2559,0,24-10.7441,24-24S45.2559,8,32,8z M52.0445,34.6116
			c-0.0011,0.0092-0.0021,0.0182-0.0032,0.0274c-0.0861,0.7222-0.7925,1.2067-1.5016,1.0447
			c-5.3018-1.2111-7.1692-1.8174-7.4643-0.7161c-0.2951,1.1013,1.6248,1.5096,6.8203,3.1112
			c0.6912,0.213,1.0599,0.9796,0.7816,1.6471c-0.0035,0.0084-0.007,0.0167-0.0104,0.025c-0.2782,0.6646-1.0774,0.9414-1.7142,0.6047
			c-4.8064-2.5414-6.4526-3.6099-7.0227-2.6226c-0.5702,0.9874,1.1794,1.8792,5.7855,4.7722
			c0.6149,0.3862,0.7717,1.2267,0.3244,1.7988c-0.0057,0.0073-0.0114,0.0146-0.0172,0.0219
			c-0.4427,0.5646-1.282,0.623-1.8079,0.1349c-3.9868-3.7005-5.3008-5.1594-6.1071-4.3531
			c-0.8063,0.8063,0.6526,2.1202,4.3532,6.107c0.488,0.5259,0.4297,1.3652-0.1349,1.8079
			c-0.0073,0.0057-0.0145,0.0114-0.0219,0.0171c-0.5721,0.4473-1.4126,0.2905-1.7988-0.3243
			c-2.8931-4.606-3.7849-6.3557-4.7723-5.7855c-0.9873,0.5701,0.0813,2.2162,2.6227,7.0226
			c0.3367,0.6368,0.0599,1.4361-0.6046,1.7143c-0.0084,0.0034-0.0167,0.0069-0.025,0.0104
			c-0.6675,0.2784-1.4341-0.0905-1.6472-0.7816c-1.6016-5.1956-2.0101-7.1154-3.1114-6.8203
			c-1.1014,0.2951-0.4949,2.1625,0.7162,7.4643c0.162,0.7091-0.3224,1.4155-1.0446,1.5016
			c-0.0092,0.0011-0.0183,0.0021-0.0274,0.0032c-0.7114,0.0839-1.345-0.4673-1.3717-1.1832
			c-0.2024-5.4348-0.0999-7.3953-1.2401-7.3953s-1.0377,1.9604-1.2401,7.3953c-0.0267,0.7158-0.6604,1.267-1.3717,1.1832
			c-0.0091-0.0011-0.0182-0.0021-0.0273-0.0032c-0.7222-0.0861-1.2066-0.7925-1.0446-1.5016
			c1.211-5.3018,1.8174-7.1692,0.7161-7.4643c-1.1013-0.295-1.5097,1.6246-3.1112,6.8201c-0.2131,0.6912-0.9796,1.06-1.6472,0.7816
			c-0.0083-0.0035-0.0167-0.007-0.025-0.0104c-0.6645-0.2782-0.9413-1.0774-0.6046-1.7142
			c2.5413-4.8063,3.6099-6.4525,2.6225-7.0225c-0.9874-0.5702-1.8791,1.1794-4.7721,5.7854
			c-0.3862,0.6149-1.2268,0.7716-1.7989,0.3243c-0.0073-0.0057-0.0146-0.0114-0.0219-0.0171
			c-0.5646-0.4427-0.6229-1.282-0.1348-1.8079c3.7004-3.9867,5.1593-5.3007,4.353-6.1069
			c-0.8063-0.8063-2.1202,0.6527-6.1069,4.3531c-0.5258,0.4881-1.3651,0.4297-1.8079-0.1348
			c-0.0057-0.0073-0.0114-0.0146-0.0171-0.0219c-0.4473-0.572-0.2906-1.4126,0.3243-1.7988
			c4.6059-2.8931,6.3554-3.7848,5.7853-4.7722c-0.5701-0.9874-2.2162,0.0813-7.0225,2.6226
			c-0.6368,0.3367-1.4361,0.0599-1.7143-0.6046c-0.0034-0.0083-0.0069-0.0167-0.0104-0.025
			c-0.2783-0.6675,0.0905-1.434,0.7817-1.6471c5.1955-1.6015,7.1152-2.01,6.8201-3.1113c-0.2951-1.1013-2.1625-0.4949-7.4642,0.7162
			c-0.7092,0.162-1.4155-0.3224-1.5016-1.0447c-0.0011-0.0092-0.0021-0.0183-0.0032-0.0274
			c-0.0838-0.7113,0.4674-1.345,1.1832-1.3716c5.4348-0.2025,7.3952-0.0999,7.3952-1.2401c0-1.1402-1.9604-1.0377-7.3951-1.2401
			c-0.7158-0.0267-1.267-0.6603-1.1832-1.3717c0.0011-0.0091,0.0021-0.0182,0.0032-0.0273
			c0.0861-0.7222,0.7925-1.2066,1.5016-1.0446c5.3017,1.2111,7.1691,1.8175,7.4642,0.7162c0.295-1.1013-1.6248-1.5098-6.8201-3.1113
			c-0.6912-0.2131-1.0599-0.9796-0.7816-1.6472c0.0035-0.0083,0.007-0.0167,0.0104-0.025c0.2782-0.6646,1.0774-0.9413,1.7142-0.6046
			c4.8063,2.5413,6.4524,3.6099,7.0225,2.6226c0.5701-0.9874-1.1794-1.8792-5.7852-4.7722
			c-0.6149-0.3862-0.7717-1.2267-0.3243-1.7988c0.0057-0.0073,0.0114-0.0145,0.0171-0.0219
			c0.4427-0.5646,1.282-0.6229,1.8079-0.1348c3.9866,3.7004,5.3005,5.1593,6.1068,4.353c0.8063-0.8063-0.6526-2.1202-4.353-6.1069
			c-0.4881-0.5258-0.4297-1.3651,0.1348-1.8079c0.0073-0.0057,0.0146-0.0114,0.0219-0.0171
			c0.572-0.4473,1.4126-0.2905,1.7988,0.3243c2.8929,4.6059,3.7846,6.3554,4.772,5.7853c0.9874-0.5701-0.0812-2.2163-2.6224-7.0225
			c-0.3367-0.6368-0.0599-1.436,0.6046-1.7142c0.0083-0.0034,0.0166-0.0069,0.0249-0.0104c0.6675-0.2784,1.434,0.0905,1.6471,0.7816
			c1.6015,5.1954,2.0099,7.1151,3.1112,6.82c1.1013-0.2951,0.4949-2.1625-0.7161-7.4642c-0.162-0.7091,0.3224-1.4155,1.0446-1.5016
			c0.0091-0.0011,0.0182-0.0021,0.0273-0.0032c0.7113-0.0839,1.345,0.4674,1.3717,1.1832c0.2024,5.4347,0.0998,7.3951,1.2401,7.3951
			s1.0377-1.9604,1.2401-7.3951c0.0267-0.7158,0.6603-1.267,1.3717-1.1832c0.0091,0.0011,0.0182,0.0021,0.0274,0.0032
			c0.7222,0.0861,1.2066,0.7925,1.0446,1.5016c-1.2111,5.3017-1.8176,7.169-0.7162,7.4641c1.1013,0.295,1.5098-1.6247,3.1113-6.8201
			c0.2131-0.6912,0.9796-1.0599,1.6471-0.7817c0.0083,0.0035,0.0167,0.007,0.025,0.0104c0.6646,0.2782,0.9414,1.0774,0.6047,1.7143
			c-2.5413,4.8063-3.6099,6.4525-2.6226,7.0225c0.9874,0.5701,1.8792-1.1794,4.7723-5.7855
			c0.3862-0.6149,1.2267-0.7716,1.7988-0.3243c0.0073,0.0057,0.0146,0.0114,0.0219,0.0172c0.5646,0.4427,0.6229,1.282,0.1349,1.8079
			c-3.7005,3.9868-5.1595,5.3006-4.3532,6.1069c0.8063,0.8063,2.1203-0.6527,6.1071-4.3531
			c0.5258-0.488,1.3651-0.4297,1.8079,0.1348c0.0057,0.0073,0.0114,0.0146,0.0171,0.0219c0.4473,0.572,0.2906,1.4126-0.3243,1.7988
			c-4.606,2.893-6.3557,3.7847-5.7855,4.7722c0.5701,0.9873,2.2162-0.0812,7.0226-2.6226c0.6368-0.3367,1.436-0.0599,1.7142,0.6046
			c0.0035,0.0084,0.007,0.0167,0.0104,0.025c0.2784,0.6675-0.0905,1.4341-0.7816,1.6472c-5.1956,1.6015-7.1152,2.0099-6.8202,3.1112
			c0.2951,1.1013,2.1625,0.4949,7.4642-0.7161c0.7091-0.162,1.4155,0.3224,1.5016,1.0446c0.0011,0.0091,0.0021,0.0182,0.0032,0.0273
			c0.0839,0.7114-0.4674,1.345-1.1832,1.3717c-5.4347,0.2024-7.3951,0.0999-7.3951,1.2401c0,1.1403,1.9604,1.0377,7.3952,1.2401
			C51.5771,33.2667,52.1283,33.9003,52.0445,34.6116z"/>
		<path d="M32,23c-1.0533,0-2.0599,0.1903-2.9993,0.5228c1.2266,0.6933,2.0645,1.9938,2.0645,3.5032
			c0,2.2307-1.8084,4.0391-4.0391,4.0391c-1.5095,0-2.8099-0.8378-3.5032-2.0645C23.1903,29.9401,23,30.9467,23,32
			c0,4.9706,4.0294,9,9,9s9-4.0294,9-9S36.9706,23,32,23z"/>
	</g>
</g>
</svg>
