<svg height="64" viewBox="0 0 64 64" width="64" xmlns="http://www.w3.org/2000/svg"><path d="m0 0h64v64h-64z" fill="none"/><path d="m32 8c-13.2549 0-24 10.7441-24 24s10.7451 24 24 24c13.2559 0 24-10.7441 24-24s-10.7441-24-24-24zm20.0445 26.6116c-.0011.0092-.0021.0182-.0032.0274-.0861.7222-.7925 1.2067-1.5016 1.0447-5.3018-1.2111-7.1692-1.8174-7.4643-.7161s1.6248 1.5096 6.8203 3.1112c.6912.213 1.0599.9796.7816 1.6471-.0035.0084-.007.0167-.0104.025-.2782.6646-1.0774.9414-1.7142.6047-4.8064-2.5414-6.4526-3.6099-7.0227-2.6226-.5702.9874 1.1794 1.8792 5.7855 4.7722.6149.3862.7717 1.2267.3244 1.7988-.0057.0073-.0114.0146-.0172.0219-.4427.5646-1.282.623-1.8079.1349-3.9868-3.7005-5.3008-5.1594-6.1071-4.3531s.6526 2.1202 4.3532 6.107c.488.5259.4297 1.3652-.1349 1.8079-.0073.0057-.0145.0114-.0219.0171-.5721.4473-1.4126.2905-1.7988-.3243-2.8931-4.606-3.7849-6.3557-4.7723-5.7855-.9873.5701.0813 2.2162 2.6227 7.0226.3367.6368.0599 1.4361-.6046 1.7143-.0084.0034-.0167.0069-.025.0104-.6675.2784-1.4341-.0905-1.6472-.7816-1.6016-5.1956-2.0101-7.1154-3.1114-6.8203-1.1014.2951-.4949 2.1625.7162 7.4643.162.7091-.3224 1.4155-1.0446 1.5016-.0092.0011-.0183.0021-.0274.0032-.7114.0839-1.345-.4673-1.3717-1.1832-.2024-5.4348-.0999-7.3953-1.2401-7.3953s-1.0377 1.9604-1.2401 7.3953c-.0267.7158-.6604 1.267-1.3717 1.1832-.0091-.0011-.0182-.0021-.0273-.0032-.7222-.0861-1.2066-.7925-1.0446-1.5016 1.211-5.3018 1.8174-7.1692.7161-7.4643-1.1013-.295-1.5097 1.6246-3.1112 6.8201-.2131.6912-.9796 1.06-1.6472.7816-.0083-.0035-.0167-.007-.025-.0104-.6645-.2782-.9413-1.0774-.6046-1.7142 2.5413-4.8063 3.6099-6.4525 2.6225-7.0225-.9874-.5702-1.8791 1.1794-4.7721 5.7854-.3862.6149-1.2268.7716-1.7989.3243-.0073-.0057-.0146-.0114-.0219-.0171-.5646-.4427-.6229-1.282-.1348-1.8079 3.7004-3.9867 5.1593-5.3007 4.353-6.1069-.8063-.8063-2.1202.6527-6.1069 4.3531-.5258.4881-1.3651.4297-1.8079-.1348-.0057-.0073-.0114-.0146-.0171-.0219-.4473-.572-.2906-1.4126.3243-1.7988 4.6059-2.8931 6.3554-3.7848 5.7853-4.7722s-2.2162.0813-7.0225 2.6226c-.6368.3367-1.4361.0599-1.7143-.6046-.0034-.0083-.0069-.0167-.0104-.025-.2783-.6675.0905-1.434.7817-1.6471 5.1955-1.6015 7.1152-2.01 6.8201-3.1113s-2.1625-.4949-7.4642.7162c-.7092.162-1.4155-.3224-1.5016-1.0447-.0011-.0092-.0021-.0183-.0032-.0274-.0838-.7113.4674-1.345 1.1832-1.3716 5.4348-.2025 7.3952-.0999 7.3952-1.2401s-1.9604-1.0377-7.3951-1.2401c-.7158-.0267-1.267-.6603-1.1832-1.3717.0011-.0091.0021-.0182.0032-.0273.0861-.7222.7925-1.2066 1.5016-1.0446 5.3017 1.2111 7.1691 1.8175 7.4642.7162.295-1.1013-1.6248-1.5098-6.8201-3.1113-.6912-.2131-1.0599-.9796-.7816-1.6472.0035-.0083.007-.0167.0104-.025.2782-.6646 1.0774-.9413 1.7142-.6046 4.8063 2.5413 6.4524 3.6099 7.0225 2.6226.5701-.9874-1.1794-1.8792-5.7852-4.7722-.6149-.3862-.7717-1.2267-.3243-1.7988.0057-.0073.0114-.0145.0171-.0219.4427-.5646 1.282-.6229 1.8079-.1348 3.9866 3.7004 5.3005 5.1593 6.1068 4.353s-.6526-2.1202-4.353-6.1069c-.4881-.5258-.4297-1.3651.1348-1.8079l.0219-.0171c.572-.4473 1.4126-.2905 1.7988.3243 2.8929 4.6059 3.7846 6.3554 4.772 5.7853s-.0812-2.2163-2.6224-7.0225c-.3367-.6368-.0599-1.436.6046-1.7142.0083-.0034.0166-.0069.0249-.0104.6675-.2784 1.434.0905 1.6471.7816 1.6015 5.1954 2.0099 7.1151 3.1112 6.82s.4949-2.1625-.7161-7.4642c-.162-.7091.3224-1.4155 1.0446-1.5016.0091-.0011.0182-.0021.0273-.0032.7113-.0839 1.345.4674 1.3717 1.1832.2024 5.4347.0998 7.3951 1.2401 7.3951s1.0377-1.9604 1.2401-7.3951c.0267-.7158.6603-1.267 1.3717-1.1832.0091.0011.0182.0021.0274.0032.7222.0861 1.2066.7925 1.0446 1.5016-1.2111 5.3017-1.8176 7.169-.7162 7.4641 1.1013.295 1.5098-1.6247 3.1113-6.8201.2131-.6912.9796-1.0599 1.6471-.7817.0083.0035.0167.007.025.0104.6646.2782.9414 1.0774.6047 1.7143-2.5413 4.8063-3.6099 6.4525-2.6226 7.0225.9874.5701 1.8792-1.1794 4.7723-5.7855.3862-.6149 1.2267-.7716 1.7988-.3243.0073.0057.0146.0114.0219.0172.5646.4427.6229 1.282.1349 1.8079-3.7005 3.9868-5.1595 5.3006-4.3532 6.1069s2.1203-.6527 6.1071-4.3531c.5258-.488 1.3651-.4297 1.8079.1348.0057.0073.0114.0146.0171.0219.4473.572.2906 1.4126-.3243 1.7988-4.606 2.893-6.3557 3.7847-5.7855 4.7722.5701.9873 2.2162-.0812 7.0226-2.6226.6368-.3367 1.436-.0599 1.7142.6046.0035.0084.007.0167.0104.025.2784.6675-.0905 1.4341-.7816 1.6472-5.1956 1.6015-7.1152 2.0099-6.8202 3.1112.2951 1.1013 2.1625.4949 7.4642-.7161.7091-.162 1.4155.3224 1.5016 1.0446.0011.0091.0021.0182.0032.0273.0839.7114-.4674 1.345-1.1832 1.3717-5.4347.2024-7.3951.0999-7.3951 1.2401 0 1.1403 1.9604 1.0377 7.3952 1.2401.716.0269 1.2672.6605 1.1834 1.3718z"/><path d="m32 23c-1.0533 0-2.0599.1903-2.9993.5228 1.2266.6933 2.0645 1.9938 2.0645 3.5032 0 2.2307-1.8084 4.0391-4.0391 4.0391-1.5095 0-2.8099-.8378-3.5032-2.0645-.3326.9395-.5229 1.9461-.5229 2.9994 0 4.9706 4.0294 9 9 9s9-4.0294 9-9-4.0294-9-9-9z"/></svg>