<?xml version="1.0" encoding="utf-8"?>
<!-- Generator: Adobe Illustrator 18.1.0, SVG Export Plug-In . SVG Version: 6.00 Build 0)  -->
<svg version="1.2" baseProfile="tiny" xmlns="http://www.w3.org/2000/svg" xmlns:xlink="http://www.w3.org/1999/xlink" x="0px"
	 y="0px" width="64px" height="64px" viewBox="0 0 64 64" xml:space="preserve">
<g id="_x36_4px_Boxes">
	<rect fill="none" width="64" height="64"/>
</g>
<g id="Production">
	<path d="M39.9233,43.0499c-0.0819-0.6046-0.203-1.4141-0.3849-2.5214c1.3718-1.5793,2.4454-3.5885,3.0804-5.893
		c1.6874-0.7537,2.9597-2.4614,3.2905-4.6006c0.2886-1.8645-0.2029-3.6248-1.2149-4.8873
		c0.2632-10.6761-3.4082-14.137-3.4082-14.137c0.7793-1.5701,2.4678-2.6936,2.4678-2.6936
		c-5.2603-0.9557-7.9879,1.3965-7.9879,1.3965c-4.8057-3.5499-11.4948-2.3211-11.4948-2.3211
		c1.2988,1.2971,1.8833,2.6624,1.8833,2.6624c-8.7021,3.8229-8.2476,9.8304-8.2476,9.8304s1.2988-1.024,2.0132-1.2288
		c0,0-0.6594,2.978-0.5361,6.3999c-1.0637,1.2678-1.5894,3.0676-1.2937,4.9786c0.3309,2.1392,1.6035,3.8469,3.2907,4.6006
		c0.6344,2.3019,1.7062,4.3094,3.0757,5.8879c-0.1868,1.137-0.3094,1.9601-0.3915,2.5704C16.0581,45.4981,12.1542,51.655,12.1542,59
		H52C52,51.6058,48.0402,45.4191,39.9233,43.0499z M23.8839,31.9464c-1.3943,0.4841-2.5915-0.8376-2.8286-2.3701
		c-0.2444-1.5802,0.515-3.0463,1.7089-3.2747c0.4505-0.0863,0.8972,0.0174,1.2916,0.2634c0-0.7797,0.0443-1.5792,0.1318-2.3747
		c3.1117-0.6354,5.2142-1.9158,5.2142-1.9158c-0.1948,1.7067-1.2339,3.6765-1.2339,3.6765c4.611-0.5461,7.5333-5.3832,7.5333-5.3832
		c0.5845,2.3893,2.0781,3.9595,2.0781,3.9595c0.5881-1.1713,1.2018-1.8837,1.6873-2.3182c0.338,1.4303,0.4775,2.9365,0.4775,4.3559
		c0.3952-0.2465,0.8421-0.3495,1.2917-0.2634c1.1937,0.2283,1.9533,1.6945,1.7088,3.2747c-0.235,1.5198-1.4287,2.8576-2.8285,2.3701
		c-0.8531,6.105-5.1593,10.4013-9.822,9.0391c1.5977,3.1565,4.3975,2.9136,6.5522,1.7244c0.1917,1.2911,0.2444,1.884,0.2444,2.1421
		c0,2.4785-2.1426,4.2773-5.0938,4.2773s-5.0938-1.7988-5.0938-4.2773c0-0.5071,0.5285-4.0662,0.7477-5.3399
		C25.73,37.8544,24.3301,35.14,23.8839,31.9464z"/>
</g>
</svg>
