<?xml version="1.0" encoding="utf-8"?>
<!-- Generator: Adobe Illustrator 22.1.0, SVG Export Plug-In . SVG Version: 6.00 Build 0)  -->
<!DOCTYPE svg PUBLIC "-//W3C//DTD SVG 1.1//EN" "http://www.w3.org/Graphics/SVG/1.1/DTD/svg11.dtd">
<svg version="1.1" xmlns="http://www.w3.org/2000/svg" xmlns:xlink="http://www.w3.org/1999/xlink" x="0px" y="0px" width="64px"
	 height="64px" viewBox="0 0 64 64" style="enable-background:new 0 0 64 64;" xml:space="preserve">
<style type="text/css">
	.st0{fill:none;}
	.st1{fill:#FFFFFF;}
</style>
<g id="Box">
	<rect class="st0" width="64" height="64"/>
</g>
<g id="Icon">
	<g>
		<path d="M58.6,51.9c-1-1.6-4.1-2.9-5.3-5c-0.7-1.3-0.8-3.7-2-5.5c-1.7-2.4-4.1-3.6-5.3-4c-3.7-1.1-4.1-5.5-6.1-7.4
			c-1.6-1.6-3.6,0.6-5-0.8c-0.7-0.7-1.5-1.2-2.3-1.7c-0.3-2.8-0.1-5.5,0.5-7.9c6.4,0.7,10.7-8.1,7.6-15.1c-0.2-0.5-0.8-0.5-1.2-0.1
			c-5.4,6.6-9.3,3.2-11.5,8.1c-0.8,1.8-0.4,4.2,1.3,5.6c1.5-2.7,3.3-4.8,4.6-5.9c0.2-0.2,0.3-0.1,0.4-0.1c-2.8,4.4-4.6,9.5-4.6,14.8
			c-1.7,0.3-3.3,1.8-4.8,3.6c-1.2,1.4-2.3,3.1-3.4,4.8c-1.9,2.8-2.9,3.7-4.9,4.5c-5.4,2.1-5.8,5.2-7.2,8.9c-0.5,1.4-4.7,3.9-5.6,5.5
			c-1,1.7-1,3-1,4.8h57.7C60.7,59,60.4,54.7,58.6,51.9z"/>
		<path d="M23.7,24.5c3,1.2,5.1-0.2,5.1-0.2s-0.2-3.8-3.4-4.8c-2.2-0.7-4-0.3-4.8,0c-0.3,0.1-0.5,0.4-0.4,0.8
			C20.5,21.3,21.4,23.6,23.7,24.5z"/>
		<path d="M8,32.9c0.1,0.5,0.4,0.8,0.8,1s0.9,0,1.3-0.3c0.9,0,1.6-0.3,1.7-0.8c0.2-0.6-0.2-1.2-0.9-1.7c-0.1-0.5-0.4-0.8-0.8-1
			s-0.9,0-1.3,0.3c-0.9,0-1.6,0.3-1.7,0.8S7.3,32.4,8,32.9z"/>
		<path d="M48.5,27.4c0.3,0.5,1.1,0.6,1.9,0.3c0.5,0.2,0.9,0.2,1.3-0.1s0.5-0.7,0.5-1.2c0.5-0.7,0.7-1.4,0.4-1.9s-1.1-0.6-1.9-0.3
			c-0.5-0.2-0.9-0.2-1.3,0.1s-0.5,0.7-0.5,1.2C48.3,26.2,48.1,27,48.5,27.4z"/>
		<path d="M55,38.3c0.3,0.3,0.7,0.5,1.2,0.4c0.7,0.5,1.5,0.5,1.9,0.2c0.4-0.4,0.4-1.2,0.1-1.9c0.1-0.5,0.1-0.9-0.2-1.3
			s-0.7-0.5-1.2-0.4c-0.7-0.5-1.5-0.5-1.9-0.2c-0.4,0.4-0.4,1.2-0.1,1.9C54.6,37.5,54.7,38,55,38.3z"/>
		<path d="M10.5,13.3c0.5,0.2,1.2-0.1,1.8-0.7c0.5-0.1,0.9-0.3,1.1-0.7s0.1-0.9-0.2-1.3c0.1-0.9-0.1-1.6-0.7-1.8s-1.2,0.1-1.8,0.7
			c-0.5,0.1-0.9,0.3-1.1,0.7c-0.2,0.4-0.1,0.9,0.2,1.3C9.7,12.3,9.9,13,10.5,13.3z"/>
	</g>
</g>
</svg>
