<?xml version="1.0" encoding="utf-8"?>
<!-- Generator: Adobe Illustrator 18.1.0, SVG Export Plug-In . SVG Version: 6.00 Build 0)  -->
<svg version="1.2" baseProfile="tiny" xmlns="http://www.w3.org/2000/svg" xmlns:xlink="http://www.w3.org/1999/xlink" x="0px"
	 y="0px" width="64px" height="64px" viewBox="0 0 64 64" xml:space="preserve">
<g id="_x36_4px_Boxes">
	<rect fill="none" width="64" height="64"/>
</g>
<g id="Label">
</g>
<g id="Production">
	<path d="M52,12h-4.0272C44.3233,7.1503,38.5369,4,32,4s-12.3233,3.1503-15.9728,8H12c-0.5523,0-1,0.4477-1,1v11v35h21V47.3681
		c3.3571-0.3214,4.8445-4.1743,4.9531-4.5c0.0781-0.2344,0.0312-0.3125-0.0595-0.2984c-1.1124,1.1734-3.2491,3.2856-5.1436,2.7984
		c-1.25-0.3214-0.9868-3.4188-0.3571-4.5995c0.2857-0.5357,0.6456-0.8795,1.2454-1.0089C34.75,39.3043,39.3214,38.84,42,38.84
		c0.5714,0,1,0.4477,1,1V59h10V24V13C53,12.4477,52.5523,12,52,12z M38.3047,36.8455c0.3335-0.5303,0.6453-1.2219,0.6453-1.9883
		c0-1.6568-1.45-3-1.45-3s-1.45,1.3432-1.45,3c0,0.8135,0.35,1.5491,0.7059,2.0895c-1.7023-0.1785-3.2623-1.3315-3.6765-3.7141
		c-0.6534-3.7587,2.8911-8.9767,4.4291-10.4326c0.269,5.1555,3.1208,4.4139,4.3892,8.4909
		C42.4736,34.3022,40.5257,36.3408,38.3047,36.8455z"/>
</g>
</svg>
