<svg height="64" viewBox="0 0 64 64" width="64" xmlns="http://www.w3.org/2000/svg"><path d="m0 0h64v64h-64z" fill="none"/><path d="m55 13h-6.9221l-1.7107 5.7498c-.1055.3252-.3672.2253-.3672.2253v-5.9751h-.0074c-.0145-1.2578-.057-3.3467-.1825-4.1211-.1089-.665-.2266-1.8789-1.1958-1.8789h-2.8555c-.9688 0-1.1763 1.228-1.2842 1.8935-.1255.7734-.2995 2.8527-.3982 4.1065h-15.9985l-1.7107 5.75c-.1055.3252-.3672.2251-.3672.2251v-5.9751h-.0074c-.0145-1.2578-.057-3.3467-.1825-4.1211-.1089-.665-.2266-1.8789-1.1958-1.8789h-2.8555c-.9688 0-1.1763 1.228-1.2842 1.8935-.1255.7734-.2995 2.8527-.3982 4.1065h-7.0764c-1.1045 0-2 .8955-2 2v40c0 1.1045.8955 2 2 2h46c1.1045 0 2-.8955 2-2v-40c0-1.1045-.8955-2-2-2zm-3 39h-40v-26h40z"/><path d="m16 31h8v6h-8z"/><path d="m28 31h8v6h-8z"/><path d="m40 31h8v6h-8z"/><path d="m16 41h8v6h-8z"/><path d="m28 41h8v6h-8z"/><path d="m40 41h8v6h-8z"/></svg>