<?xml version="1.0" encoding="utf-8"?>
<!-- Generator: Adobe Illustrator 18.1.0, SVG Export Plug-In . SVG Version: 6.00 Build 0)  -->
<svg version="1.2" baseProfile="tiny" xmlns="http://www.w3.org/2000/svg" xmlns:xlink="http://www.w3.org/1999/xlink" x="0px"
	 y="0px" width="64px" height="64px" viewBox="0 0 64 64" xml:space="preserve">
<g id="Box">
	<rect fill="none" width="64" height="64"/>
</g>
<g id="Icon">
	<g>
		<path d="M55,13h-6.9221l-1.7107,5.7498C46.2617,19.075,46,18.9751,46,18.9751V13h-0.0074
			c-0.0145-1.2578-0.057-3.3467-0.1826-4.1211C45.7012,8.2139,45.5835,7,44.6143,7h-2.8555c-0.9688,0-1.1763,1.228-1.2842,1.8936
			C40.3491,9.6669,40.1751,11.7462,40.0764,13H24.0779l-1.7107,5.75C22.2617,19.0752,22,18.9751,22,18.9751V13h-0.0074
			c-0.0145-1.2578-0.057-3.3467-0.1826-4.1211C21.7012,8.2139,21.5835,7,20.6143,7h-2.8555c-0.9688,0-1.1763,1.228-1.2842,1.8936
			C16.3491,9.6669,16.1751,11.7462,16.0764,13H9c-1.1045,0-2,0.8955-2,2v40c0,1.1045,0.8955,2,2,2h46c1.1045,0,2-0.8955,2-2V15
			C57,13.8955,56.1045,13,55,13z M52,52H12V26h40V52z"/>
		<path d="M29.3667,47.9986c0.4021,0.5907,1.0196,0.9977,1.7343,1.0014c0.0033,0,0.0069,0,0.0102,0
			c0.7107,0,1.3539-0.3829,1.7339-0.9836c6.3856-10.0934,10.1683-15.9601,10.1683-15.9601
			c0.5341-0.8936,0.3016-2.0469-0.5373-2.6636c-0.8386-0.6171-2.0093-0.4947-2.7026,0.2812l-8.8431,9.9562L25.1,34.4933
			c-0.7471-0.6473-1.8527-0.6586-2.6125-0.0277c-0.7606,0.6309-0.9529,1.7194-0.4547,2.5729
			C22.0328,37.0385,25.2308,41.923,29.3667,47.9986z"/>
	</g>
</g>
</svg>
