<?xml version="1.0" encoding="utf-8"?>
<!-- Generator: Adobe Illustrator 19.1.0, SVG Export Plug-In . SVG Version: 6.00 Build 0)  -->
<svg version="1.2" baseProfile="tiny" xmlns="http://www.w3.org/2000/svg" xmlns:xlink="http://www.w3.org/1999/xlink" x="0px"
	 y="0px" width="64px" height="64px" viewBox="0 0 64 64" xml:space="preserve">
<g id="_x36_4px_Box">
	<rect fill="none" width="64" height="64"/>
</g>
<g id="Icon">
	<g>
		<path d="M11.3289,40.7469c-0.2291-0.6271-0.5204-0.7154-0.8284-0.7154c-0.3078,0-0.6028,0.0883-0.8321,0.7154
			c-1.9108,5.2296-5.7552,7.6049-6.557,11.5729C2.2711,56.4788,6.3268,60,10.5005,60c4.1739,0,8.2367-3.5233,7.3856-7.6802
			C17.08,48.3837,13.2398,45.9765,11.3289,40.7469z M9.9551,56.77c-1.342,0-2.7493-0.6522-3.5847-1.6627
			c-0.5634-0.6805-0.773-1.4004-0.6238-2.1385c0.269-1.3328,1.2159-2.6021,2.4147-4.2087c0.5605-0.7515,1.178-1.5799,1.7895-2.5101
			c0.0202,0.0307,0.0401,0.0568,0.0602,0.0873c-0.7724,2.6921-1.6159,5.0598-1.6159,6.7506c0,1.548,1.1016,3.2034,1.9139,3.6609
			C10.1908,56.7587,10.0725,56.77,9.9551,56.77z"/>
		<path d="M59.6895,20.7631c2.2628-4.3047,1.5126-12.6142-1.6118-16.5083c-3.1361-3.9087-7.1645-1.993-10.856,0.9689l-0.007-0.0087
			l-1.5728,1.2618l-5.5046,4.4166L9.6475,35.3564c-0.9608,0.7709-0.1956,2.3076,0.9986,2.0056l15.7914-3.9246
			c0,0-1.8566-4.0939-1.9767-4.4075s0.0712-0.4072,0.1286-0.4263l10.7111,13.315c1.0453,1.3029,7.5259-2.1605,14.4747-7.7358
			c6.9489-5.5753,11.7346-11.1512,10.6891-12.4541L59.6895,20.7631z M56.7339,17.0793l-7.0258-8.7566
			c3.1915-2.5507,4.3-2.6959,5.1988-1.5757C56.6506,8.9203,57.3924,13.7686,56.7339,17.0793z"/>
		<path d="M26.0854,14.0714c1.6897-0.7115,2.6685-1.2555,2.6685-1.2555l2.2579,2.8141l3.9318-3.1547l-2.2603-2.8171
			c0,0,0.7105-0.813,1.7693-2.3098c0.9096-1.2859-0.6436-3.0124-1.9443-1.9675c-1.227,0.9859-6.6985,5.3822-7.9255,6.368
			C23.2822,12.7941,24.6338,14.6827,26.0854,14.0714z"/>
	</g>
</g>
</svg>
