<?xml version="1.0" encoding="utf-8"?>
<!-- Generator: Adobe Illustrator 19.1.0, SVG Export Plug-In . SVG Version: 6.00 Build 0)  -->
<svg version="1.2" baseProfile="tiny" xmlns="http://www.w3.org/2000/svg" xmlns:xlink="http://www.w3.org/1999/xlink" x="0px"
	 y="0px" width="64px" height="64px" viewBox="0 0 64 64" xml:space="preserve">
<g id="_x36_4px_Box">
	<rect fill="none" width="64" height="64"/>
</g>
<g id="Icon">
	<g>
		<path d="M48.5687,26.9777c6.9653-0.2831,13.1219-3.7926,13.1943-6.3989c0.0566-2.0386-4.1339-5.5496-8.6641-7.5316
			c0,0-0.3489-3.5472-3.6241-4.3037c-4.2399-0.9792-6.6255,1.6157-6.6255,1.6157s-7.1459-1.8894-20.2162,3.6507
			C10.9033,18.9819,8.063,25.8835,7.4796,27.8136c-2.3541,1.4064-4.1384,3.4566-4.3832,6.639
			c-0.1465,1.9044,0.1819,3.6561,0.9481,5.1266c0.4634,1.1385,1.1422,1.6695-0.3818,3.311
			c-2.6205,2.8226-1.1326,6.0789,2.7747,6.0789c3.0579,0,6.4556,0,6.4556,0c7.8619,0,12.9394,4.0421,15.2324,6.2133
			c0.3782,0.358,0.9865-0.0015,0.8453-0.5027L28.47,52.9009c-0.2725-0.9676,0.5223-1.9028,1.5211-1.7902l3.6542,0.4122
			c0.6338,0.0715,1.0247-0.6732,0.6061-1.1543l-1.1723-1.3473c-0.6209-0.7136-0.2032-1.8313,0.7335-1.9628l1.9639-0.2756
			c0.6324-0.0887,0.7268-0.9728,0.1262-1.1896c-3.7972-1.371-7.692-2.1558-10.8456-2.6072
			c-2.1079,0.9376-4.6268,1.5488-7.5415,1.7796c-2.6419,0.2091-4.9531,0.2656-6.75-0.4531
			c-0.2476-0.099-0.4789-0.3289-0.3817-0.5154c1.2214,0.1835,2.5854,0.196,4.0947-0.0008
			c7.8147-1.0193,17.1017-5.3796,16.0258-13.6473c-0.4913-3.7752-2.791-5.386-5.6714-5.8965
			c-0.0005-0.207,0.2548-0.2802,0.7003-0.2686c2.1642,0.0566,4.0274,0.7618,5.4144,2.0838
			c3.2197,3.0689,2.9359,9.0266-1.0056,13.4053l5.9986-1.5093l4.0291,8.5003c0.3723,0.7854,1.0818,1.3628,1.9311,1.5477
			c2.7061,0.5891,6.3356,1.7407,8.5466,2.4753c0.6852,0.2277,1.2811-0.5164,0.918-1.1405l-0.1313-0.2258
			c-0.3083-0.5299-0.0068-1.2061,0.5934-1.3309l2.1658-0.4503c0.5994-0.1246,0.6298-0.9694,0.0409-1.1367l-3.0872-0.8774
			l0.073-0.438c0.1044-0.6263-0.4273-1.1749-1.0566-1.09l-3.7731,0.5087l-2.7182-8.2111
			C44.6614,30.2622,48.5687,26.9777,48.5687,26.9777z M45.6459,14.5c0-1.0218,0.8283-1.85,1.85-1.85c1.0218,0,1.85,0.8282,1.85,1.85
			c0,1.0217-0.8282,1.85-1.85,1.85C46.4742,16.35,45.6459,15.5217,45.6459,14.5z"/>
	</g>
</g>
</svg>
