<svg height="64" viewBox="0 0 64 64" width="64" xmlns="http://www.w3.org/2000/svg"><path d="m0 0h64v64h-64z" fill="none"/><path d="m32.2255 11.7542c2.3816.5446 4.0961-.6075 4.6914-3.2094.5648-2.4688-.355-4.5045-2.7989-5.0634-2.3199-.5309-4.096.6072-4.7221 3.3428-.549 2.4018.4477 4.3851 2.8296 4.93z"/><path d="m53 13c-1.5922 0-2.8817 1.244-2.981 2.8111-.9193-.3806-1.9731-.7242-3.1494-1.0258-1.0093.8768-2.0034 1.5452-2.9628 2.0858 3.7748.6415 6.17 1.58 6.17 2.6289 0 1.6973-6.2416 3.1117-14.5223 3.4315.1909-1.22.4172-2.408.6423-3.4462.1297-.5982.6389-1.3898 1.1755-1.6841 2.4759-1.3578 4.6245-1.9503 6.9747-3.7382 2.2228-1.691 4.158-3.5728 2.7583-5.9711 0 0-2.3651 1.9795-5.6067 3.6718-4.6909 2.4489-7.3748 2.5069-9.4177 2.1365-4.214-.764-6.0406-2.7702-8.4494-6.049-.9687-1.3184-1.9033-2.7605-2.7033-4.2054-1.3762.4138-1.5829 2.0609-1.149 3.8713.301 1.2559 2.4877 4.6197 4.2419 6.7842 1.0867 1.3408 1.3621 2.2074 1.1773 3.9233-.1117 1.0367-.3741 2.787-.5547 4.4706-6.3137-.5458-10.7208-1.7698-10.7208-3.1951 0-1.2784 3.5515-2.3934 8.8372-3.0043-.1127-.2921-.2513-.5667-.4482-.8097-.3433-.4235-.7943-1.0139-1.2797-1.6849-2.7985.4346-5.2032 1.0466-7.0511 1.8116-.0985-1.5679-1.3884-2.8128-2.9811-2.8128-1.6569 0-3 1.3431-3 3 0 1.1064.6058 2.0623 1.4973 2.5824l5.4984 26.2704c-1.8875.9158-2.9957 1.9914-2.9957 3.1472 0 1.4274 1.6683 2.7367 4.4427 3.7667l1.5998 7.6434c.1972.9424 1.0288 1.5899 1.9555 1.5899.1357 0 .2734-.0137.4116-.042 1.0811-.2266 1.7744-1.2861 1.5479-2.3682l-1.1769-5.6229c3.1996.6518 7.0606 1.0331 11.2194 1.0331s8.0198-.3813 11.2194-1.0331l-1.1769 5.6229c-.2266 1.082.4668 2.1416 1.5479 2.3682.1381.0283.2758.042.4116.042.9268 0 1.7583-.6475 1.9556-1.5898l1.5998-7.6434c2.7743-1.0301 4.4426-2.3394 4.4426-3.7668 0-1.1558-1.1082-2.2314-2.9956-3.1472l5.4984-26.2704c.8914-.5201 1.4972-1.476 1.4972-2.5824 0-1.6569-1.3431-3-3-3zm-7.7993 30.5007c-3.5238-.9313-8.1355-1.5007-13.2007-1.5007-4.3999 0-8.4553.4306-11.7551 1.1538l.0377 5.537c-.0356.3312-.2469.3274-.3062.3183l-5.2077-24.7651c4.0303 1.6784 10.2485 2.756 17.2313 2.756s13.201-1.0776 17.2313-2.756z"/><path d="m23.8185 28.6998c-.0184 1.8438.0304 5.1141.5661 6.3652.6923 1.6169 4.2769 6.872 7.9692 5.0125 0 0-2.6154-3.7998-3.1538-5.2551-.5385-1.4552.2077-4.6891.2077-4.6891s1.5923 4.4466 2.9 5.821c1.3846 1.4553 4.7775 3.3249 6.9231 3.6381 2.7692.4044 3.7692-1.9402 3.7692-1.9402s-5.8461-2.6679-6.6154-4.204c-.5805-1.1591-1.0328-3.125-1.2724-4.3195-1.0382.047-2.0786.0715-3.1122.0715-2.7366 0-5.5206-.1658-8.1815-.5004z"/></svg>