<svg height="64" viewBox="0 0 64 64" width="64" xmlns="http://www.w3.org/2000/svg"><path d="m0 0h64v64h-64z" fill="none"/><path d="m15.2437 26.5507c2.8939-.7268 4.0595-3.1741 3.327-6.0922-.8352-3.3237-3.0331-4.6672-5.8517-3.959-2.9693.7457-4.0396 3.2548-3.2861 6.2543.7941 3.1612 2.9172 4.5235 5.8108 3.7969z"/><circle cx="33" cy="7" r="6"/><path d="m21.5966 42.1053c-.9135-6.1031-.6574-8.3349-.6574-8.3349 4.8655-3.5055 6.5359-8.8049 5.6812-14.3607-.3457-2.2471-1.8378-3.7244-4.0173-3.0771 1.934 6.5134.6508 12.1058-7.1611 13.0823-7.2457.9058-11.4527-3.1051-11.0705-10.5791l-.0024-.0001c-2.1072-.0687-3.2195 1.9738-3.0954 4.0785.3389 5.7497 3.73 9.7464 8.8892 11.539.4274 7.3507.5983 8.6328 3.3314 16.8151 0 0-1.9464 1.1832-3.1035 1.9721-2.0945 1.428-3.0617 3.6506-1.881 5.8939l.0012.0023c1.8509-.9916 7.0881-3.7972 8.8511-4.7416.8207-.4414 1.3148-1.3698 1.157-2.3412-.0859-.5286-.4813-2.9627-.8443-5.1979.7377.5432 1.8472 1.3566 4.9735 3.6516-.1102 1.8597-.2665 4.4631-.2665 6.3948 0 3.0095 1.2657 4.3299 3.7977 4.9183 0 0 1.0152-8.5117 1.5278-12.8178.0862-.7714-.2053-1.5752-.8292-2.1298-2.1985-1.9548-3.9814-3.5742-5.2815-4.7677z"/><path d="m45.2036 26.6786c2.3026.3608 4.0323-.6689 4.9068-2.5483.4907.7376 1.4131 1.6528 2.85 1.3057 2.1353-.5155 1.8083-2.1716 4.4887-1.582.2181.0477.376-.2059.2241-.3692-.7827-.8417-2.4839-2.3311-4.5862-2.149-1.1407.0987-1.9025.4232-2.4179.7806.4127-3.2301-1.0657-5.2384-3.8611-5.6763-3.0245-.4741-4.9904 1.4171-5.469 4.4725-.5047 3.2203.9171 5.3041 3.8646 5.766z"/><path d="m54.8214 34.5306c-4.6813-2.9203-4.188-4.744-7.8264-5.5521-3.9763-.8831-6.7715.8956-9.759-4.5007-1.0193-1.8412-1.8755-4.4901-2.6362-8.2949-2.1526.5716-2.9681 2.4832-2.4352 5.0145.9717 4.6154 2.5632 9.0305 6.7689 11.7249-1.0881 3.2264-2.9228 9.1615-3.8427 14.9701-.0956.6037.3798 1.0975.991 1.0975h2.3079c-.2074 1.3634-.3377 2.5411-.3772 2.8268-.1333.9653.0071 1.6202.2427 2.3486.7536 2.3293 2.4625 7.0797 3.0868 8.8746l.0024-.0008c2.3891-.831 3.0752-2.5087 2.3914-5.3293s-1.2114-5.0473-1.2114-5.0473l1.1198-3.6625h1.0338c.1602.9814.2909 1.8217.3335 2.0827.1115.6657.4911 1.2842 1.1019 1.6807 8.0144 5.2025 6.2078 4.0298 8.5639 5.5592l.0018-.0024c1.5696-2.0396.4431-3.7808-1.1809-5.5757-.943-1.0422-1.8237-1.9222-2.467-2.5403l-3.8861-.7667c-.3174-.1013-.2713-.3813-.2505-.4375h2.5163.0182 2.2422c.6272 0 1.0995-.5707.9824-1.1869l-2.2365-11.7167c2.3156 1.973 4.2991 3.1072 6.6373 3.4232 2.4647.3331 4.5828-.0767 4.9855-2.331-3.0214-.5686-5.2455-1.4271-7.2186-2.658z"/></svg>