<svg xmlns="http://www.w3.org/2000/svg" viewBox="0 0 64 64"><defs><style>.cls-1{fill:none;}</style></defs><g id="BOX"><rect class="cls-1" width="64" height="64"/></g><g id="ICOON"><path d="M52.93,35.85,35.71,28.1a8.6,8.6,0,0,0-1.86-.59v-2a1.5,1.5,0,0,1,.93-1.31A6.31,6.31,0,0,0,33.47,12.4,6.61,6.61,0,0,0,32,12.23a6.38,6.38,0,0,0-4,1.38,6.28,6.28,0,0,0-2.39,4.94,1.85,1.85,0,1,0,3.7,0A2.62,2.62,0,0,1,32,15.92a2.94,2.94,0,0,1,.65.07,2.62,2.62,0,0,1,1.92,1.92,2.66,2.66,0,0,1-1.41,3,5.15,5.15,0,0,0-3,4.62v2a8.6,8.6,0,0,0-1.86.59L11.07,35.85a6.46,6.46,0,0,0,2.67,12.36H50.26a6.46,6.46,0,0,0,2.67-12.36Zm-2.67,8.67H13.74a2.77,2.77,0,0,1-1.15-5.31l17.22-7.74a5.24,5.24,0,0,1,4.38,0l17.22,7.74a2.77,2.77,0,0,1-1.15,5.31Z"/></g></svg>