<svg xmlns="http://www.w3.org/2000/svg" viewBox="0 0 64 64"><defs><style>.cls-1{fill:none;}</style></defs><g id="BOX"><rect class="cls-1" width="64" height="64"/></g><g id="ICOON"><path d="M18,53.69a1.87,1.87,0,0,0,1.87,1.87h2.58V34.32H18Z"/><path d="M49.92,23.44,35,16.72a7.72,7.72,0,0,0-1.87-.55V14.1a1.76,1.76,0,0,1,1.05-1.52,5.06,5.06,0,0,0,2.7-5.71,5,5,0,0,0-3.74-3.74A5.06,5.06,0,0,0,27,8.05a1.17,1.17,0,0,0,2.33,0,2.72,2.72,0,0,1,5.36-.66,2.75,2.75,0,0,1-1.45,3.1,4,4,0,0,0-2.35,3.61v2.07a7.72,7.72,0,0,0-1.87.55L14.08,23.44a5.18,5.18,0,0,0,2.13,9.89h7.25V59.14A1.86,1.86,0,0,0,25.32,61H44.11A1.87,1.87,0,0,0,46,59.14V30.22a4.66,4.66,0,0,0-4.66-4.66H22.7a4.68,4.68,0,0,0-4.65,4.16l4.94.65a.48.48,0,0,1,.46.63H16.21A2.84,2.84,0,0,1,15,25.56l14.89-6.71a5,5,0,0,1,4.14,0L49,25.56A2.84,2.84,0,0,1,47.79,31H47v2.33h.82a5.18,5.18,0,0,0,2.13-9.89ZM34.54,30.21c1.32,0,2.15.84,2.15,2.42A2.1,2.1,0,0,1,34.54,35a2,2,0,0,1-2.15-2.34A2.13,2.13,0,0,1,34.54,30.21Zm-2.4,5.66a11.1,11.1,0,0,1,4.8,0c2.76.66,2.58,5.05,2.58,8.83a1.68,1.68,0,0,1-1.65,1.71v-4a12.28,12.28,0,0,0-.32-3.23c-.06-.19-.19-.15-.19-.15V56.84a2.27,2.27,0,0,1-2.28-2.26s-.31-8.29-.32-8.38a.21.21,0,0,0-.22-.22.22.22,0,0,0-.23.22c0,.09-.32,8.44-.32,8.44a2.27,2.27,0,0,1-2.27,2.2V39s-.13,0-.18.15a12.14,12.14,0,0,0-.33,3.25v4a1.67,1.67,0,0,1-1.65-1.71C29.56,40.92,29.38,36.54,32.14,35.87Z"/></g></svg>