<?xml version="1.0" encoding="utf-8"?>
<!-- Generator: Adobe Illustrator 19.1.0, SVG Export Plug-In . SVG Version: 6.00 Build 0)  -->
<svg version="1.2" baseProfile="tiny" xmlns="http://www.w3.org/2000/svg" xmlns:xlink="http://www.w3.org/1999/xlink" x="0px"
	 y="0px" width="64px" height="64px" viewBox="0 0 64 64" xml:space="preserve">
<g id="Box">
	<rect fill="none" width="64" height="64"/>
</g>
<g id="Icon">
	<path d="M61.2249,30.2057L32.8126,3.3202c-0.4594-0.4269-1.1659-0.4269-1.6254,0L2.7751,30.2057
		C2.2812,30.6652,2,31.3124,2,31.9904v1.7968C2,34.4569,2.5374,35,3.2,35H8v25h48V35h4.8c0.6626,0,1.2-0.5431,1.2-1.2128v-1.7968
		C62,31.3124,61.7188,30.6652,61.2249,30.2057z M12.0278,49c0,0,0.0815-3.9947,1.0891-5.0553
		c0.7892-0.8312,3.1824-1.5671,4.1955-1.8503c0.2473-0.0691,0.4058-0.2854,0.4556-0.5373c0.0687-0.3491,0.0842-0.7163,0.0842-0.7163
		c-0.6274-0.7172-1.0946-1.5767-1.239-2.7916c-0.6448-0.2009-0.7737-1.0144-0.7737-1.5217c0-0.5071,0.0884-0.7815,0.2686-0.8665
		c0.2166-0.1019,0.4167,0.0358,0.4779,0.0843c-0.0919-1.0537-0.2256-3.4088,0.3312-4.1512c0.4962-0.6616,1.438-1.1024,2.2985-1.3452
		c1.2384-0.3495,1.7196,0.1406,2.4264,0.5287c1.0776-0.2811,1.6428,0.0623,2.1079,0.9222c0.4332,0.8011,0.2891,2.961,0.1892,3.9973
		c0.0957-0.0547,0.2419-0.1103,0.3995-0.0362c0.1803,0.085,0.2686,0.3594,0.2686,0.8665c0,0.5073-0.129,1.3209-0.7737,1.5217
		c-0.1639,1.1747-0.639,2.0714-1.2794,2.8177c0,0,0.0258,0.3915,0.1118,0.7025c0.0671,0.2418,0.2166,0.453,0.4589,0.5183
		c0.2626,0.0709,0.6215,0.1727,1.0223,0.2977c-1.197,0.498-2.2715,1.0869-2.9285,1.7646c-1.0204,1.0522-1.6323,3.0614-1.9924,4.85
		H12.0278z M21,52c0,0,0.5037-4.9835,1.7983-6.3187c1.1077-1.1426,4.6652-2.1401,5.6953-2.4108
		c0.0112,0.0058,0.0194,0.0111,0.0309,0.0169c1.3795,0.7033,2.6598,0.5161,3.069,0.3837c0.2448-0.0791,0.2448-0.2078,0.1829-0.3162
		c-0.6821-0.0297-1.3374-0.1872-1.7012-0.4874c-1.377-1.1357-2.4956-2.4174-2.7644-4.6079
		c-0.8374-0.2528-1.0049-1.277-1.0049-1.9156c0-0.6384,0.1147-0.9838,0.3488-1.0909c0.1263-0.0577,0.2509-0.0526,0.3571-0.0242
		c-0.1204-1.3463-0.2577-3.9673,0.4546-4.866c0.6602-0.8328,1.9128-1.332,3.0574-1.6376c1.6472-0.44,2.2874,0.0433,3.2277,0.5319
		c1.4335-0.3538,2.2563-0.0731,2.8751,1.0095c0.5659,0.9903,0.4819,3.6257,0.3978,4.9558c0.098-0.0204,0.2081-0.0209,0.321,0.0306
		c0.234,0.1071,0.3488,0.4525,0.3488,1.0909c0,0.6386-0.1675,1.6628-1.0049,1.9156c-0.2202,1.5293-0.87,2.6866-1.7456,3.6449
		c0,0,0.0389,0.3704,0.1123,0.6934c0.083,0.3654,0.3312,0.6726,0.7,0.7712c1.3782,0.3685,4.4648,1.2823,5.463,2.3122
		C42.5137,47.0165,43,52,43,52H21z M44.782,49c-0.3553-1.7889-0.9625-3.7971-1.9838-4.8502
		c-0.2391-0.2467-0.7916-0.8119-2.3954-1.5255c0.2404-0.0952,0.4631-0.1819,0.6323-0.2452c0.2247-0.0842,0.361-0.2917,0.407-0.5273
		c0.0647-0.3325,0.1218-0.7894,0.1624-1.1577c-1.4531-0.0917-2.6893-0.2462-3.2385-0.4455
		c-0.1216-0.0441-0.1436-0.1576-0.0791-0.2698c0.3035-0.5269,1.0242-2.5609,1.0607-3.4418
		c0.0511-1.2385-0.2606-3.4595,1.0193-5.1439C42.186,28.999,44.426,30.43,44.426,30.43c3.5273-1.1559,3.5181,3.4514,3.7427,6.0259
		c0.0914,1.0489,0.8188,3.0574,1.0989,3.6681c0.0449,0.0983-0.0061,0.1911-0.1072,0.2296c-0.5116,0.1949-1.7419,0.3416-3.2295,0.402
		c0.0435,0.3668,0.0986,0.8024,0.1479,1.0962c0.0397,0.2368,0.1821,0.4432,0.407,0.5273c0.5872,0.22,1.6895,0.6517,2.6759,1.1396
		c0.7532,0.3636,1.438,0.7581,1.7817,1.1201C51.9509,45.6995,52,49,52,49H44.782z"/>
</g>
</svg>
