<svg height="64" viewBox="0 0 64 64" width="64" xmlns="http://www.w3.org/2000/svg"><path d="m0 0h64v64h-64z" fill="none"/><path d="m12 30h22v3h-22z"/><path d="m12 42h16v3h-16z"/><path d="m12 24h22v3h-22z"/><path d="m16.3752 15h13.2495c1.451 0 2.7107-.9668 2.9965-2.3259.3402-1.6202.3302-3.0484.3473-4.5155.0087-.7534-.5295-1.4024-1.2729-1.5262l-1.8252-.3042c-.9434 1.7096-1.9902 2.7044-2.2793 2.938-.6104.4933-.9492.5424-1.1353.3608.0105-.0158.0171-.0322.0271-.048.9334-.9083 1.5171-2.1737 1.5171-3.579 0-2.7614-2.2385-5-5-5s-5 2.2386-5 5c0 .0056.0017.0106.0017.0162l-3.6973.6161c-.7432.1238-1.2815.7728-1.2728 1.5262.017 1.4671.007 2.8953.3473 4.5155.2857 1.3592 1.5454 2.326 2.9963 2.326zm6.6248-11.255c1.2455 0 2.255 1.0096 2.255 2.255s-1.0095 2.2549-2.255 2.2549c-1.2454 0-2.255-1.0095-2.255-2.2549s1.0096-2.255 2.255-2.255z"/><path d="m60.4351 38.826c-.1951-1.1728-1.0874-2.0651-2.2607-2.2606-3.3917-.5654-9.0443-.5654-10.1744-.5654s-6.7828 0-10.1742.5654c-1.1735.1955-2.0658 1.0878-2.2607 2.2606-.5651 3.3913-.5651 9.0436-.5651 10.174s0 6.7827.5651 10.174c.1949 1.1728 1.0873 2.0651 2.2607 2.2606 3.3914.5654 9.0441.5654 10.1742.5654s6.7827 0 10.1743-.5654c1.1733-.1955 2.0657-1.0878 2.2607-2.2606.565-3.3913.565-9.0436.565-10.174 0-3.393 0-6.7827-.5649-10.174zm-3.4351 12.674c0 .2761-.2239.5-.5.5h-5.5v5.5c0 .2761-.2239.5-.5.5h-5c-.2761 0-.5-.2239-.5-.5v-5.5h-5.5c-.2761 0-.5-.2239-.5-.5v-5c0-.2761.2239-.5.5-.5h5.5v-5.5c0-.2761.2239-.5.5-.5h5c.2761 0 .5.2239.5.5v5.5h5.5c.2761 0 .5.2239.5.5z"/><path d="m8 54v-40h3.5999c-.5751-1.3196-.6603-3.5831-.6794-5h-5.9205c-1.1045 0-2 .8955-2 2v46c0 1.1045.8955 2 2 2h27.5107c-.2083-1.489-.337-3.2365-.4116-5z"/><path d="m12 39h20.5107c.1396-1 .27-1.8742 1.0535-3h-21.5642z"/><path d="m38 33.5109c1.489-.2083 3.2366-.3372 5-.4117v-22.0992c0-1.1045-.8955-2-2-2h-5.9203c-.0192 1.4146-.1031 3.6781-.6796 5h3.5999z"/></svg>