<?xml version="1.0" encoding="utf-8"?>
<!-- Generator: Adobe Illustrator 18.1.0, SVG Export Plug-In . SVG Version: 6.00 Build 0)  -->
<svg version="1.2" baseProfile="tiny" xmlns="http://www.w3.org/2000/svg" xmlns:xlink="http://www.w3.org/1999/xlink" x="0px"
	 y="0px" width="64px" height="64px" viewBox="0 0 64 64" xml:space="preserve">
<g id="Box">
	<rect fill="none" width="64" height="64"/>
</g>
<g id="Icon">
	<g>
		<path d="M32.5618,22.5875l-0.4432-6.201c-0.0497-0.4399-0.3564-0.7608-0.7945-0.7608s-0.7614,0.285-0.7936,0.7608L30,23.6858
			c0,0.6835,0.5226,1.2455,1.1896,1.3135c0.0396,0.0225,7.0242-0.4986,7.0242-0.4986c0.459-0.0445,0.7945-0.2382,0.7945-0.6763
			c0-0.4376-0.3059-0.6426-0.7945-0.6757c-0.0005,0,0.0192,0,0.0192,0L32.5618,22.5875z"/>
		<path d="M52.23,44.7586c-2.7688,0.9518-6.3675,2.413-9.2219,3.6127c0.0737,0.4328,0.0837,0.8923,0.012,1.3787
			c-0.4146,2.8079-2.82,4.5833-6.2402,4.7416c-7.7328,0.3578-12.5348-1.5577-13.5314-1.9618
			c-0.2863-0.1161-0.3181-0.2576-0.2924-0.3882c0.0014-0.0012,0.0112-0.0091,0.0112-0.0091
			c5.5945,0.9645,9.1205,1.1222,13.4634,0.4237c3.2949-0.53,4.489-2.106,4.4611-3.4058c-0.0269-1.2701-0.9266-2.0373-2.9519-2.1077
			c-6.8901-0.2395-10.9187-1.0081-16.8242-1.8688c-4.1041-0.5981-8.0616,0.4671-11.4326,2.6266
			c-3.1633,2.0266-4.0403,2.9852-4.0403,2.9852l5.7858,11.1429l7.4819-3.0415c0.8527-0.3466,1.7843-0.4511,2.6926-0.3021
			l10.2607,2.283c2.2893,0.3757,4.6379-0.0563,6.6438-1.2219L58.9871,46.8C58.9871,46.8,57.9828,42.781,52.23,44.7586z"/>
		<path d="M12.1594,24.4662l2.7761-1.1641c0,0,0.1467-1.6439,1.0098-3.1976c0.1802-0.3245,0.3345-0.2191,0.3345-0.2191
			l0.0221,0.0172c-0.9979,5.0546,0.4501,10.494,4.3676,14.4114c6.2484,6.2484,16.379,6.2483,22.6274,0
			c6.2484-6.2484,6.2484-16.3791,0-22.6274c-5.2472-5.2473-13.2379-6.0934-19.3529-2.5124
			c-0.9084,0.5319-2.1917,1.4075-0.7355,3.4213c1.1386,1.5745,1.8067,1.48,2.7865,0.9915c0.2527-0.1261,0.6469-0.3306,0.9305-0.476
			c4.173-2.1406,9.4183-1.462,12.9137,2.0334c4.3387,4.3387,4.3387,11.3732,0,15.7119c-4.3387,4.3387-11.3732,4.3387-15.7119,0
			c-2.0343-2.0344-3.1047-4.6602-3.228-7.3231l3.3143,2.4539c0.5986,0.4432,1.4194,0.4061,1.9574-0.0886
			c0.5387-0.4947,0.6431-1.3089,0.2496-1.9404l-5.8682-9.4334c-0.2514-0.4044-0.6719-0.6746-1.1411-0.7338
			c-0.4692-0.0593-0.9356,0.0991-1.2657,0.4301l-7.7053,7.7208c-0.2502,0.2504-0.3956,0.5716-0.4313,0.9062
			c-0.0381,0.3558,0.0478,0.7272,0.2641,1.0445C10.692,24.508,11.4829,24.7485,12.1594,24.4662z"/>
	</g>
</g>
</svg>
