<?xml version="1.0" encoding="utf-8"?>
<!-- Generator: Adobe Illustrator 19.1.0, SVG Export Plug-In . SVG Version: 6.00 Build 0)  -->
<svg version="1.2" baseProfile="tiny" xmlns="http://www.w3.org/2000/svg" xmlns:xlink="http://www.w3.org/1999/xlink" x="0px"
	 y="0px" width="64px" height="64px" viewBox="0 0 64 64" xml:space="preserve">
<g id="Box">
	<rect fill="none" width="64" height="64"/>
</g>
<g id="Icon">
	<g>
		<path d="M61.2983,41.425c-0.2416-1.1028-1.3997-2.0304-2.4983-2.0679c-7.0433-0.2286-13.9941-0.3344-20.9418-0.3427
			c1.2394,1.7294,1.7026,3.0672,1.814,3.4432c0.0732,0.2471,0.0086,0.3878-0.1003,0.4311c-0.0137-0.0176-0.0278-0.032-0.0414-0.0496
			c-1.8187-2.9945-5.0549-4.8231-8.5304-4.8231c-3.3987,0-6.667,1.7615-8.5254,4.8148c-0.0159,0.0204-0.0323,0.0374-0.0483,0.0579
			c-0.1089-0.0433-0.1735-0.184-0.1003-0.4311c0.1087-0.3668,0.5519-1.6491,1.7238-3.3172
			c-2.9407,0.0574-5.8831,0.1204-8.8499,0.2167c-1.0982,0.0374-2.2567,0.965-2.4982,2.0679c-0.9356,4.3333-0.9356,8.6666,0,13
			c0.2418,1.1027,1.3998,2.0303,2.4982,2.0679c0.9387,0.0305,1.8644,0.0417,2.8,0.0682V58c0,0.5523,0.4477,1,1,1h4
			c0.5523,0,1-0.4477,1-1v-1.2927c0.7374,0.0144,1.4826,0.0421,2.2189,0.0541c1.4208,0.7784,3.0499,1.2225,4.7811,1.2225
			c1.6702,0,3.2429-0.4172,4.6277-1.1453c4.78,0.0099,9.5685-0.0474,14.3723-0.1385V58c0,0.5523,0.4477,1,1,1h4
			c0.5523,0,1-0.4477,1-1v-1.4412c0.9359-0.0263,1.8611-0.0355,2.8-0.0659c1.0985-0.0374,2.2566-0.9651,2.4983-2.0679
			C62.2339,50.0916,62.2339,45.7583,61.2983,41.425z M31,54.5c-3.5842,0-6.5-2.9158-6.5-6.5s2.9158-6.5,6.5-6.5s6.5,2.9158,6.5,6.5
			S34.5842,54.5,31,54.5z M53.5,54c-1.3807,0-2.5-1.1193-2.5-2.5s1.1193-2.5,2.5-2.5s2.5,1.1193,2.5,2.5S54.8807,54,53.5,54z M56,46
			h-9v-1h9V46z M56,43h-9v-1h9V43z"/>
		<path d="M23.4377,22.092c1.0723,0.8868,4.5525,4.4627,5.4011,13.957c1.3005-0.2294,2.6373-0.2493,3.9446-0.0611
			c-0.0536-0.6429-0.1152-1.27-0.1898-1.8699c1.2348-1.6494,5.0525-7.4806,4.261-15.6614c-0.3925-4.062-2.2681-6.0813-3.772-7.0679
			c-3.2977-2.1638-7.3367-1.2211-8.3735-0.9219C23.7921,8.4714,20.6959,7,17,7c-3.1544,0-5.8699,1.0729-7.1699,2.6273l5.8632,1.0086
			c0.3669,0.1018,0.3132,0.3079,0.2891,0.3641c-1.8383,0-10.7534,0-12.4182,0c-0.5305,0-0.7322,0.6943-0.2819,0.9748
			c1.3364,0.8325,3.1487,2.0408,4.0353,2.98c1.2414,1.3151,1.5792,3.3975,1.6592,4.082c-2.3889,2.0447-7.8842,8.6548-6.8061,25.655
			c0.0933,1.4739,0.7964,2.8376,1.8813,3.6494c1.3038,0.974,3.2801,1.6694,5.8602,2.1027
			c-0.1064-1.3732-0.1339-2.7479-0.0663-4.1213c-2.087-0.418-3.067-0.959-3.4828-1.2697c-0.1128-0.0846-0.2432-0.3162-0.2627-0.6259
			C5.0923,28.5231,10.2188,23.2029,11.562,22.092l0.1969-0.1893h11.4819L23.4377,22.092z M26,15.0002
			c0.8508-0.2411,3.0945-0.5656,4.4893,0.3602c0.916,0.6086,1.4666,1.8045,1.6358,3.5535c0.3129,3.2358-0.3046,6.028-1.105,8.1564
			c-1.5816-4.5859-3.7507-6.9731-5.02-8.0533V15.0002z"/>
	</g>
</g>
</svg>
