<?xml version="1.0" encoding="utf-8"?>
<!-- Generator: Adobe Illustrator 21.0.2, SVG Export Plug-In . SVG Version: 6.00 Build 0)  -->
<svg version="1.2" baseProfile="tiny" xmlns="http://www.w3.org/2000/svg" xmlns:xlink="http://www.w3.org/1999/xlink" x="0px"
	 y="0px" width="64px" height="64px" viewBox="0 0 64 64" xml:space="preserve">
<g id="Box">
	<rect fill="none" width="64" height="64"/>
</g>
<g id="Icon">
	<g>
		<path d="M55.3,23c-0.2-2.2-2.1-4-4.3-4h-9v-5c0-2.2-1.8-4-4-4H26c-2.2,0-4,1.8-4,4v5h-9c-2.2,0-4.2,1.8-4.3,4
			c-0.6,8.7-0.6,17.3,0,26c0.2,2.2,2.1,4,4.3,4h38c2.2,0,4.2-1.8,4.3-4C56,40.3,56,31.7,55.3,23z M26,14h12v5H26V14z M41,38.5
			c0,0.3-0.2,0.5-0.5,0.5H35v5.5c0,0.3-0.2,0.5-0.5,0.5h-5c-0.3,0-0.5-0.2-0.5-0.5V39h-5.5c-0.3,0-0.5-0.2-0.5-0.5v-5
			c0-0.3,0.2-0.5,0.5-0.5H29v-5.5c0-0.3,0.2-0.5,0.5-0.5h5c0.3,0,0.5,0.2,0.5,0.5V33h5.5c0.3,0,0.5,0.2,0.5,0.5V38.5z"/>
	</g>
</g>
</svg>
