<?xml version="1.0" encoding="utf-8"?>
<!-- Generator: Adobe Illustrator 25.0.0, SVG Export Plug-In . SVG Version: 6.00 Build 0)  -->
<svg version="1.1" xmlns="http://www.w3.org/2000/svg" xmlns:xlink="http://www.w3.org/1999/xlink" x="0px" y="0px"
	 viewBox="0 0 64 64" style="enable-background:new 0 0 64 64;" xml:space="preserve">
<style type="text/css">
	.st0{fill:none;}
</style>
<g id="Box">
	<rect class="st0" width="64" height="64"/>
</g>
<g id="Icon">
	<g>
		<path d="M39.051,24.406l-0.016-0.016c0.202-0.862,0.096-1.514-0.225-2.368l-0.975-0.7l-2.931,2.931l0.869,0.869l2.126-2.126
			c0.306,1.096,0.105,2.231-0.54,3.374l0.958,0.604c0.29-0.451,0.451-0.789,0.619-1.28c0.669-0.33,1.224-0.322,1.635,0.089
			c0.612,0.612,0.427,1.474-0.531,2.431l-0.669,0.669l0.805,0.805l0.685-0.685c1.546-1.546,1.828-3.31,0.757-4.38
			C40.919,23.923,39.977,23.834,39.051,24.406z"/>
		<path d="M44.38,20.157l-0.475,0.136c0.29-1.047,0.201-1.634-0.403-2.238c-0.732-0.733-1.884-0.66-2.922,0.378
			c-0.918,0.918-0.999,2.383-0.258,3.124c0.539,0.539,0.957,0.636,1.707,0.531l0.427-0.056c-0.339,1.192-0.161,1.868,0.37,2.399
			c0.781,0.781,1.973,0.636,3.076-0.467c1.119-1.119,1.369-2.56,0.547-3.382C45.894,20.028,45.354,19.906,44.38,20.157z
			 M43.027,20.575l-0.822,0.145c-0.402,0.065-0.668,0.008-0.925-0.25c-0.355-0.354-0.339-0.901,0.04-1.28
			c0.435-0.435,0.934-0.467,1.329-0.073C42.987,19.456,43.132,19.891,43.027,20.575z M45.217,23.119
			c-0.499,0.499-1.087,0.572-1.489,0.169c-0.395-0.394-0.476-0.765-0.379-1.522l0.869-0.193c0.524-0.121,0.942-0.073,1.208,0.193
			C45.765,22.105,45.692,22.644,45.217,23.119z"/>
		<path d="M44.242,14.803c-0.685,0.685-0.676,1.787,0.008,2.472c0.684,0.685,1.779,0.685,2.464,0
			c0.684-0.684,0.692-1.786,0.008-2.472C46.037,14.119,44.926,14.119,44.242,14.803z M46.037,16.599
			c-0.298,0.298-0.781,0.298-1.095-0.017c-0.313-0.314-0.322-0.805-0.023-1.103c0.298-0.298,0.797-0.298,1.111,0.016
			C46.344,15.81,46.335,16.301,46.037,16.599z"/>
		<path d="M60.09,3.91c-3.88-3.88-10.172-3.88-14.052,0L28.346,21.602c-3.327,3.327-5.752,7.445-7.049,11.967v0
			C20,38.092,17.574,42.21,14.247,45.537l-7.456,7.456l4.216,4.216l7.456-7.456c3.327-3.327,7.445-5.753,11.968-7.049v0
			c4.522-1.297,8.641-3.722,11.968-7.049L60.09,17.963C63.97,14.082,63.97,7.791,60.09,3.91z M52.139,20.669L41.599,31.209
			c-0.776,0.776-2.034,0.776-2.811,0l-5.621-5.621c-0.776-0.776-0.776-2.034,0-2.811l10.539-10.539c0.776-0.776,2.035-0.776,2.811,0
			l5.621,5.621C52.915,18.635,52.915,19.893,52.139,20.669z M54.265,13.61c-1.932,0-3.499-1.566-3.499-3.499
			c0-1.932,1.566-3.499,3.499-3.499c1.932,0,3.499,1.566,3.499,3.499C57.763,12.044,56.197,13.61,54.265,13.61z"/>
		<path d="M1.873,57.911c-1.164,1.164-1.164,3.052,0,4.216c1.164,1.164,3.052,1.164,4.216,0l3.513-3.513l-4.216-4.216L1.873,57.911z
			"/>
	</g>
</g>
</svg>
