<?xml version="1.0" encoding="utf-8"?>
<!-- Generator: Adobe Illustrator 19.1.0, SVG Export Plug-In . SVG Version: 6.00 Build 0)  -->
<svg version="1.2" baseProfile="tiny" xmlns="http://www.w3.org/2000/svg" xmlns:xlink="http://www.w3.org/1999/xlink" x="0px"
	 y="0px" width="64px" height="64px" viewBox="0 0 64 64" xml:space="preserve">
<g id="Box">
	<rect fill="none" width="64" height="64"/>
</g>
<g id="Icon">
	<g>
		<path d="M27,40c-2.1739,0-4.0051-0.8375-4.6938-2H8v7h38v-7H31.6938C31.0051,39.1625,29.1739,40,27,40z"/>
		<path d="M27,49c-2.1739,0-4.0051-0.8375-4.6938-2H8v5c0,1.1046,0.8954,2,2,2h34c1.1046,0,2-0.8954,2-2v-5H31.6938
			C31.0051,48.1625,29.1739,49,27,49z"/>
		<path d="M59.7097,23.3213L46,28.6492v-4.7814l13.3983-5.2068c0.7722-0.3001,1.1548-1.1694,0.8547-1.9415l-0.5433-1.3981
			L46,20.6492V15c0-1.1046-0.8954-2-2-2H29.6349l12.8652-4.9998c0.7722-0.3,1.1548-1.1693,0.8548-1.9415l-0.5434-1.3981
			l-19.108,7.4298c-0.04-0.0447-0.1584-0.2196,0.0997-0.4302c0.145-0.1182,1.7857-1.1672,3.1969-2.0645V6c0-1.1046-0.8954-2-2-2H10
			C8.8954,4,8,4.8954,8,6v30h38v-4.1322l13.3983-5.2068c0.7722-0.3001,1.1548-1.1694,0.8547-1.9415L59.7097,23.3213z M13.5,22
			c-0.8284,0-1.5-0.6716-1.5-1.5s0.6716-1.5,1.5-1.5s1.5,0.6716,1.5,1.5S14.3284,22,13.5,22z M19.5,22c-0.8284,0-1.5-0.6716-1.5-1.5
			s0.6716-1.5,1.5-1.5s1.5,0.6716,1.5,1.5S20.3284,22,19.5,22z"/>
		<circle cx="12" cy="57" r="2"/>
		<circle cx="42" cy="57" r="2"/>
	</g>
</g>
</svg>
