<?xml version="1.0" encoding="utf-8"?>
<!-- Generator: Adobe Illustrator 25.3.1, SVG Export Plug-In . SVG Version: 6.00 Build 0)  -->
<svg version="1.1" xmlns="http://www.w3.org/2000/svg" xmlns:xlink="http://www.w3.org/1999/xlink" x="0px" y="0px"
	 viewBox="0 0 64 64" style="enable-background:new 0 0 64 64;" xml:space="preserve">
<style type="text/css">
	.st0{fill:none;}
	.st1{fill:#B3B3B3;}
</style>
<g id="Box">
	<rect class="st0" width="64" height="64"/>
</g>
<g id="Icon">
	<g>
		<g>
			<path d="M17.34,33.005c-0.156-0.79-0.841-1.354-1.627-1.362c-3.248-0.032-5.159,2.332-5.97,5.49l1.339,6.778
				c-0.049,0.03-0.234,0.112-0.389-0.167l-2.178-5.276c-0.701,0.329-1.207,0.79-1.53,1.375c-0.729,1.321-0.625,3.204-0.216,5.272
				c0.453,2.291,1.164,4.231,2.606,5.07c0.684,0.398,1.541,0.537,2.604,0.358c1.983,3.123,4.89,5.036,8.188,3.642
				c0.724-0.306,1.143-1.088,0.987-1.878L17.34,33.005z"/>
		</g>
		<g>
			<path d="M47.134,18.25c0.205,0.225,0.413,0.445,0.606,0.688c2.253,2.838,3.384,6.599,3.401,11.227
				c1.144,0.45,2.16,1.181,2.998,2.195c0.318,0.384,0.597,0.797,0.849,1.229c0.65-7.124-0.725-12.87-4.116-17.139
				C45.125,9.214,35.388,8.58,31.476,8.653c-4.626,0.078-13.167,1.213-18.392,7.94c-3.287,4.231-4.623,9.897-4.007,16.894
				c0.236-0.393,0.493-0.773,0.785-1.126c0.855-1.035,1.894-1.776,3.066-2.223c0.023-4.56,1.127-8.274,3.315-11.092
				c0.14-0.181,0.292-0.343,0.439-0.514c1.353,0.16,2.749-0.192,3.921-1.037c3.211-2.315,6.577-2.695,10.893-2.747v-0.111
				l0.028,0.111c4.359-0.053,7.818,0.249,11.169,2.544C44.008,18.193,45.603,18.525,47.134,18.25z"/>
		</g>
		<g>
			<path d="M57.015,39.843c-0.323-0.585-0.83-1.047-1.53-1.375l-2.178,5.276c-0.155,0.28-0.34,0.198-0.389,0.167l1.339-6.779
				c-0.811-3.157-2.722-5.522-5.97-5.49c-0.786,0.008-1.471,0.572-1.627,1.362l-3.814,19.303c-0.156,0.79,0.263,1.572,0.987,1.878
				c3.298,1.394,6.205-0.519,8.188-3.642c1.064,0.178,1.92,0.04,2.604-0.358c1.442-0.839,2.154-2.778,2.606-5.07h0
				C57.64,43.047,57.744,41.164,57.015,39.843z"/>
		</g>
	</g>
</g>
</svg>
