<?xml version="1.0" encoding="utf-8"?>
<!-- Generator: Adobe Illustrator 25.3.1, SVG Export Plug-In . SVG Version: 6.00 Build 0)  -->
<svg version="1.1" xmlns="http://www.w3.org/2000/svg" xmlns:xlink="http://www.w3.org/1999/xlink" x="0px" y="0px"
	 viewBox="0 0 64 64" style="enable-background:new 0 0 64 64;" xml:space="preserve">
<style type="text/css">
	.st0{fill:none;}
	.st1{fill:#B3B3B3;}
</style>
<g id="Box">
	<rect class="st0" width="64" height="64"/>
</g>
<g id="Icon">
	<g>
		<g>
			<path d="M32.75,21.75h7.143C39.291,17.927,35.992,15,32,15c-4.418,0-8,3.582-8,8v16c0,4.418,3.582,8,8,8s8-3.582,8-8v-7.75h-7.25
				c-0.414,0-0.75-0.336-0.75-0.75c0-0.414,0.336-0.75,0.75-0.75H40v-2.5h-7.25c-0.414,0-0.75-0.336-0.75-0.75
				c0-0.414,0.336-0.75,0.75-0.75H40v-2.5h-7.25c-0.414,0-0.75-0.336-0.75-0.75C32,22.086,32.336,21.75,32.75,21.75z"/>
		</g>
		<g>
			<path d="M43.5,31.25c-0.828,0-1.5,0.422-1.5,1.25V39c0,5.741-4.863,10.367-10.685,9.977C26.006,48.621,22,43.968,22,38.647V32.5
				c0-0.828-0.672-1.25-1.5-1.25S19,31.672,19,32.5v6.123c0,6.36,4.442,11.904,10.5,13.117V58h-2c-2.209,0-4,1.791-4,4h17
				c0-2.209-1.791-4-4-4h-2v-6.257C40.474,50.573,45,45.312,45,39v-6.5C45,31.672,44.328,31.25,43.5,31.25z"/>
		</g>
		<g>
			<path d="M15.843,26.717c-2.644-0.586-4.614,1.051-5.843,3.587v7.035c-0.054,0.02-0.251,0.065-0.349-0.24l-1.098-5.518
				c-0.785,0.177-1.41,0.551-1.862,1.218c-0.616,0.911-0.924,2.349-0.924,4.514c0,2.704,0.483,4.261,1.446,5.074
				c0.585,0.494,1.356,0.703,2.295,0.738c1.159,3.177,3.304,5.427,6.336,4.756c0.665-0.147,1.152-0.779,1.151-1.52l-0.001-18.123
				C16.995,27.496,16.508,26.864,15.843,26.717z"/>
		</g>
		<g>
			<path d="M53.55,26.365c0.032-5.643-1.345-10.268-4.146-13.799C44.169,5.963,35.499,5.25,32.014,5.25s-12.155,0.713-17.391,7.316
				c-2.796,3.527-4.175,8.143-4.146,13.777c1.082-0.952,2.296-1.522,3.529-1.691c0.22-4.047,1.339-7.364,3.359-9.911
				c0.057-0.072,0.121-0.135,0.18-0.205c1.408,0.274,2.886-0.058,4.106-0.951C24.729,11.333,27.931,11,32.001,11v-0.035L32.027,11
				c4.07,0,7.272,0.333,10.349,2.585c1.22,0.893,2.698,1.225,4.106,0.951c0.058,0.071,0.122,0.133,0.179,0.205
				c2.021,2.549,3.14,5.867,3.359,9.917C51.256,24.833,52.47,25.406,53.55,26.365z"/>
		</g>
		<g>
			<path d="M57.309,32.799c-0.452-0.667-1.077-1.042-1.862-1.218l-1.098,5.518c-0.098,0.304-0.295,0.26-0.349,0.24v-7.036
				c-1.229-2.536-3.199-4.172-5.843-3.586c-0.665,0.147-1.152,0.779-1.152,1.521l-0.001,18.123c0,0.742,0.486,1.373,1.151,1.52
				c3.032,0.671,5.177-1.578,6.336-4.756c0.939-0.035,1.71-0.244,2.295-0.738c0.963-0.813,1.446-2.37,1.446-5.074
				C58.233,35.148,57.926,33.71,57.309,32.799z"/>
		</g>
	</g>
</g>
</svg>
