<?xml version="1.0" encoding="utf-8"?>
<!-- Generator: Adobe Illustrator 17.1.0, SVG Export Plug-In . SVG Version: 6.00 Build 0)  -->
<svg version="1.2" baseProfile="tiny" xmlns="http://www.w3.org/2000/svg" xmlns:xlink="http://www.w3.org/1999/xlink" x="0px"
	 y="0px" width="64px" height="64px" viewBox="0 0 64 64" xml:space="preserve">
<g id="_x36_4px_boxes">
	<rect fill="none" width="64" height="64"/>
</g>
<g id="Unite">
	<g>
		<path d="M42.4613,27.3315c-1.5597-1.6532-5.283-2.5343-6.5372-2.7919c-0.2069-0.0425-0.3655-0.2099-0.3966-0.419
			c-0.0594-0.4006-0.1155-0.7589-0.1591-1.026c1.1685-1.2149,2.0455-2.6892,2.3299-4.6813
			c1.0148-0.3091,1.2178-1.5609,1.2178-2.3415c0-0.7805-0.1391-1.2027-0.4227-1.3335c-0.2671-0.1228-0.5163-0.0145-0.6628,0.0746
			c0.1584-1.587,0.3914-4.9321-0.2978-6.1696c-0.737-1.3232-1.6323-1.8516-3.3397-1.4191
			c-1.1198-0.5972-1.8823-1.3515-3.8443-0.8136c-1.3633,0.3735-2.8555,1.0519-3.6416,2.0699
			c-0.8691,1.1253-0.6763,4.6628-0.5312,6.3181c-0.1499-0.0856-0.3847-0.1764-0.6372-0.0603
			c-0.2837,0.1308-0.4227,0.553-0.4227,1.3335c0,0.7806,0.203,2.0324,1.2177,2.3415c0.254,2.089,1.1389,3.4986,2.3063,4.6779
			c-0.0585,0.3533-0.1215,0.7375-0.1691,1.0403c-0.0325,0.2069-0.1893,0.3655-0.3944,0.4076
			c-1.2517,0.2569-4.979,1.1381-6.5397,2.7924c-1.4305,1.5163-1.5274,7.5195-1.5274,9.6648C23.5842,36.233,27.6648,35.799,32,35.799
			c4.3425,0,8.4096,0.4353,11.9886,1.201C43.993,34.8242,43.8918,28.8478,42.4613,27.3315z"/>
		<path d="M60.6875,40.625c-1.0449-0.6967-2.4375-0.5625-3.6715-0.4039c0.166-2.523,3.6914-5.2168,2.8137-12.0542
			c-0.3663-2.8535-1.4964-4.3169-4.163-3.9836C53.8505,22.926,52,22.85,50.25,23.225c-1.6781,0.3596-3.75,1.4-2.6647,3.4315
			c-0.5009,1.6116-0.5249,2.0365-0.5152,2.7109c0.0336,2.3241-0.8717,2.2848-0.8717,4.4923c0,1.1643,0.6397,5.2052,1.3076,5.654
			c0.8227,0.5528,3.7284,0.7461,4.7153,0.7656c0.0756,0.0957,0.0443,0.252-0.2213,0.377c-0.9021,0.4244-2.8114,0.5624-3.822,0.5884
			c-1.3388,0.6969-4.9945,2.7377-6.178,4.8149c-0.7654,1.3434-1.4885,6.12-1.8104,8.8966
			c5.7911-0.4744,16.3729-1.1437,22.7667-7.3249C62.7753,46.7065,62.6999,41.9666,60.6875,40.625z"/>
		<path d="M15.6907,41.2629l-0.0051-0.0033c-0.5864-0.2854-0.8527-0.6162-0.9557-1.2601l-0.1508-0.9425
			c0.3875-0.081,0.9234-0.2328,1.3268-0.5101c0.7024-0.4829,2.1358-4.4636,1.9691-5.9219c-0.1644-1.4388-0.4167-1.5-0.6387-2.7514
			c-0.2334-1.316,1.033-2.6121,0.4474-4.5395c-0.5267-1.7339-2.6021-3.4816-5.1004-3.0008
			c-1.8928,0.3643-2.2742,0.7182-3.5252,1.3986c0,0-2.6152-0.446-3.84,1.0096C3.3864,26.9182,4.34,30.05,3.8987,33.1938
			c-0.3955,2.8177-1.8833,4.0293-1.8833,4.0293c1.9232,1.6306,4.4694,2.5951,8.2032,3.0022
			c0.0999,0.0875,0.0096,0.2905-0.2695,0.3905C7.928,41.34,5.9743,40.655,3.6674,42.2381c-1.2924,0.8869-2.2299,2.9494-2.5899,5.44
			c6.11,6.0094,16.9726,6.8082,22.7627,7.2807c-0.2693-2.6968-0.8971-7.259-1.8402-8.8992
			C20.4396,43.3457,17.1583,41.8296,15.6907,41.2629z"/>
	</g>
</g>
</svg>
