<?xml version="1.0" encoding="utf-8"?>
<!-- Generator: Adobe Illustrator 22.1.0, SVG Export Plug-In . SVG Version: 6.00 Build 0)  -->
<!DOCTYPE svg PUBLIC "-//W3C//DTD SVG 1.1//EN" "http://www.w3.org/Graphics/SVG/1.1/DTD/svg11.dtd">
<svg version="1.1" xmlns="http://www.w3.org/2000/svg" xmlns:xlink="http://www.w3.org/1999/xlink" x="0px" y="0px" width="64px"
	 height="64px" viewBox="0 0 64 64" style="enable-background:new 0 0 64 64;" xml:space="preserve">
<style type="text/css">
	.st0{fill:none;}
</style>
<g id="box">
	<rect x="0" class="st0" width="64" height="64"/>
</g>
<g id="icon">
	<g>
		<g>
			<path d="M19,16.9c0.6,5.1,1.5,11.2,2.8,17.1h26.4c1.3-5.9,2.2-12,2.8-17.1c1.7-0.4,3-2,3-3.9c0-2.2-1.8-4-4-4c-2.2,0-4,1.8-4,4
				c0,1.4,0.7,2.7,1.9,3.4c-1.9,4.9-4.2,9.2-6,8.7c-2.5-0.7-4.3-7.4-5.5-13.4c1.5-0.6,2.5-2,2.5-3.7c0-2.2-1.8-4-4-4
				c-2.2,0-4,1.8-4,4c0,1.7,1.1,3.1,2.5,3.7c-1.1,6-3,12.7-5.5,13.4c-1.8,0.5-4-3.9-6-8.7c1.1-0.7,1.9-2,1.9-3.4c0-2.2-1.8-4-4-4
				c-2.2,0-4,1.8-4,4C16,14.9,17.3,16.4,19,16.9z M52.2,44.8c-2.8,1-6.4,2.4-9.2,3.6c0.1,0.4,0.1,0.9,0,1.4
				c-0.4,2.8-2.8,4.6-6.2,4.7c-7.7,0.4-12.5-1.6-13.5-2c-0.3-0.1-0.3-0.3-0.3-0.4c0,0,0,0,0,0c5.6,1,9.1,1.1,13.5,0.4
				c3.3-0.5,4.5-2.1,4.5-3.4c0-1.3-0.9-2-3-2.1C31,46.8,27,46,21.1,45.2c-4.1-0.6-8.1,0.5-11.4,2.6c-3.2,2-4,3-4,3l5.8,11.1l7.5-3
				c0.9-0.3,1.8-0.5,2.7-0.3l10.3,2.3c2.3,0.4,4.6-0.1,6.6-1.2L59,46.8C59,46.8,58,42.8,52.2,44.8z M46.1,42c0.6-1.9,1.2-3.9,1.7-6
				H22.3c0.5,2.1,1,4.1,1.7,6H46.1z"/>
		</g>
	</g>
</g>
</svg>
