<?xml version="1.0" encoding="utf-8"?>
<!-- Generator: Adobe Illustrator 19.1.0, SVG Export Plug-In . SVG Version: 6.00 Build 0)  -->
<svg version="1.2" baseProfile="tiny" xmlns="http://www.w3.org/2000/svg" xmlns:xlink="http://www.w3.org/1999/xlink" x="0px"
	 y="0px" width="24px" height="24px" viewBox="0 0 24 24" xml:space="preserve">
<g id="_x32_4px_Boxes">
	<rect fill="none" width="24" height="24"/>
</g>
<g id="Production">
	<rect fill="none" width="24" height="24"/>
	<path d="M17.6871,4.2137l-5.6768,5.0278L6.3335,4.2136C5.7365,3.6848,4.835,3.6982,4.2544,4.2441l0,0
		C3.7084,4.8246,3.695,5.7262,4.2239,6.3231L9.2518,12l-5.0279,5.6769c-0.5289,0.5969-0.5155,1.4985,0.0304,2.079l0,0
		c0.5806,0.5459,1.4821,0.5593,2.0791,0.0304l5.6768-5.0279l5.6768,5.0279c0.5969,0.5289,1.4985,0.5155,2.0791-0.0303l0,0
		c0.5459-0.5806,0.5593-1.4821,0.0304-2.0791L14.7687,12l5.0279-5.6768c0.5289-0.597,0.5154-1.4985-0.0304-2.0791l0,0
		C19.1855,3.6982,18.284,3.6848,17.6871,4.2137z M12.0103,12.0145l-0.0073-0.0073L11.9958,12l0.0073-0.0073l0.0072-0.0072
		l0.0073,0.0073L12.0248,12l-0.0072,0.0072L12.0103,12.0145z"/>
</g>
</svg>
