<svg xmlns="http://www.w3.org/2000/svg" width="48" height="48" xmlns:v="https://vecta.io/nano"><path d="M35.375 8.426L24.02 18.484 12.668 8.426a3.09 3.09 0 0 0-4.16.063c-1.09 1.16-1.117 2.965-.059 4.156L18.504 24 8.449 35.355c-1.059 1.191-1.031 2.996.059 4.156a3.09 3.09 0 0 0 4.16.063L24.02 29.516l11.355 10.059c1.191 1.055 2.996 1.031 4.156-.062a3.08 3.08 0 0 0 .063-4.156L29.539 24l10.055-11.355a3.08 3.08 0 0 0-.062-4.156c-1.16-1.094-2.965-1.117-4.156-.062zM24.02 24.027L23.992 24l.027-.027.016.012.016.016-.016.016zm0 0" fill="rgb(0%,0%,0%)"/></svg>