<svg enable-background="new 0 0 64 64" viewBox="0 0 64 64" xmlns="http://www.w3.org/2000/svg"><path d="m0 0h64v64h-64z" fill="none"/><path d="m55 10c-1.657 0-3 1.343-3 3 0 .885.39 1.672 1 2.221v4.779h-41v-4.779c.61-.549 1-1.336 1-2.221 0-1.657-1.343-3-3-3s-3 1.343-3 3c0 .885.39 1.672 1 2.221v36.779c0 1.105.896 1.5 2 1.5s2-.395 2-1.5v-3h41v3c0 1.105.896 1.5 2 1.5s2-.395 2-1.5v-36.779c.61-.549 1-1.336 1-2.221 0-1.657-1.343-3-3-3zm-38 30h-5v-16h5zm9 0h-5v-16h5zm9 0h-5v-16h5zm9 0h-5v-16h5zm9 6.32s-.276.085-.363-.245c-.038-.144-.541-2.949-1.098-6.074h-3.539v-16.001h5z"/></svg>