<svg enable-background="new 0 0 64 64" height="64" viewBox="0 0 64 64" width="64" xmlns="http://www.w3.org/2000/svg"><path d="m0 0h64v64h-64z" fill="none"/><path d="m60 23.2-5-3.1c-.4-.3-1-.2-1.3.2-1 1.1-3 3.6-4.8 5.6.5 3.5 1.2 7.3 1.3 7.8.1.6-.3.5-.3.5-3.2-6.8-4-11.9-4-18.6v-10c0-.6-.5-1-1-1l-5.9.3c-.5 0-.9.4-1 1 0 2-.1 7-.1 9.2 0 .4-.3.8-.8.9-.6.1-1-.3-1.1-.9-.1-1.6-.2-6.6-.3-8.7 0-.6-.5-1-1.1-1l-5.6.4c-.5.1-.9.5-.9 1 0 2.2-.2 7.7-.1 9.2 0 .4-.3.8-.7 1-.6.2-1.1-.2-1.2-.8-.1-1.5-.3-6.3-.4-8.5 0-.6-.6-1.1-1.2-.9l-5.7 1.2c-.5.1-.8.5-.8 1 0 1.9.1 6.9.1 9.1 0 .4-.2.8-.6 1-.5.2-1.2-.1-1.3-.7-.1-.3-.3-5.7-.5-8.2 0-.7-.7-1.1-1.3-.9l-5.3 1.7c-.4.1-.7.5-.7.9 0 2.8.1 13 .4 16 1.5 12.5 5.7 16.7 10.1 21v8c0 1.1.9 2 2 2h5.2c-.8-1.3-1.2-3.3-1.2-5.5s.5-4.2 1.2-5.5h-1.1c-1.1 0-2-.9-2-2v-.5c0-4.7 3.8-8.5 8.5-8.5s8.5 3.8 8.5 8.5v.6c0 1.1-.9 2-2 2h-9c-.8 0-2 2.2-2 5.5s1.2 5.5 2 5.5h13c1.1 0 2-.9 2-2v-8.6c11.9-7.4 15.7-20.9 16.4-24.1.1-.4 0-.9-.4-1.1zm-42.2 6.9c-1 0-1.9-.9-1.9-1.9s.9-1.9 1.9-1.9 1.9.9 1.9 1.9-.9 1.9-1.9 1.9zm10.2-1.8c-1 0-1.9-.9-1.9-1.9s.9-1.9 1.9-1.9 1.9.9 1.9 1.9-.9 1.9-1.9 1.9zm10.3-.7c-1 0-1.9-.9-1.9-1.9s.9-1.9 1.9-1.9 1.9.9 1.9 1.9-.8 1.9-1.9 1.9z"/></svg>