<?xml version="1.0" encoding="utf-8"?>
<!-- Generator: Adobe Illustrator 21.0.2, SVG Export Plug-In . SVG Version: 6.00 Build 0)  -->
<!DOCTYPE svg PUBLIC "-//W3C//DTD SVG 1.1//EN" "http://www.w3.org/Graphics/SVG/1.1/DTD/svg11.dtd">
<svg version="1.1" xmlns="http://www.w3.org/2000/svg" xmlns:xlink="http://www.w3.org/1999/xlink" x="0px" y="0px" width="64px"
	 height="64px" viewBox="0 0 64 64" style="enable-background:new 0 0 64 64;" xml:space="preserve">
<style type="text/css">
	.st0{fill:none;}
</style>
<g id="Box">
	<rect class="st0" width="64" height="64"/>
</g>
<g id="Icon">
	<g>
		<path d="M60,23.2l-5-3.1c-0.4-0.3-1-0.2-1.3,0.2c-1,1.1-3,3.6-4.8,5.6c0.5,3.5,1.2,7.3,1.3,7.8c0.1,0.6-0.3,0.5-0.3,0.5
			c-3.2-6.8-4-11.9-4-18.6v-10c0-0.6-0.5-1-1-1l-5.9,0.3c-0.5,0-0.9,0.4-1,1c0,2-0.1,7-0.1,9.2c0,0.4-0.3,0.8-0.8,0.9
			c-0.6,0.1-1-0.3-1.1-0.9c-0.1-1.6-0.2-6.6-0.3-8.7c0-0.6-0.5-1-1.1-1L29,5.8c-0.5,0.1-0.9,0.5-0.9,1c0,2.2-0.2,7.7-0.1,9.2
			c0,0.4-0.3,0.8-0.7,1c-0.6,0.2-1.1-0.2-1.2-0.8c-0.1-1.5-0.3-6.3-0.4-8.5c0-0.6-0.6-1.1-1.2-0.9L18.8,8C18.3,8.1,18,8.5,18,9
			c0,1.9,0.1,6.9,0.1,9.1c0,0.4-0.2,0.8-0.6,1c-0.5,0.2-1.2-0.1-1.3-0.7c-0.1-0.3-0.3-5.7-0.5-8.2c0-0.7-0.7-1.1-1.3-0.9L9.1,11
			c-0.4,0.1-0.7,0.5-0.7,0.9c0,2.8,0.1,13,0.4,16c1.5,12.5,5.7,16.7,10.1,21v8c0,1.1,0.9,2,2,2h5.2c-0.8-1.3-1.2-3.3-1.2-5.5
			s0.5-4.2,1.2-5.5H25c-1.1,0-2-0.9-2-2v-0.5c0-4.7,3.8-8.5,8.5-8.5s8.5,3.8,8.5,8.5V46c0,1.1-0.9,2-2,2h-9c-0.8,0-2,2.2-2,5.5
			s1.2,5.5,2,5.5h13c1.1,0,2-0.9,2-2v-8.6C55.9,41,59.7,27.5,60.4,24.3C60.5,23.9,60.4,23.4,60,23.2z M17.8,30.1
			c-1,0-1.9-0.9-1.9-1.9s0.9-1.9,1.9-1.9s1.9,0.9,1.9,1.9S18.8,30.1,17.8,30.1z M28,28.3c-1,0-1.9-0.9-1.9-1.9s0.9-1.9,1.9-1.9
			s1.9,0.9,1.9,1.9S29,28.3,28,28.3z M38.3,27.6c-1,0-1.9-0.9-1.9-1.9s0.9-1.9,1.9-1.9s1.9,0.9,1.9,1.9S39.4,27.6,38.3,27.6z"/>
	</g>
</g>
</svg>
