<svg xmlns="http://www.w3.org/2000/svg" width="48" height="48" fill="rgb(0%,0%,0%)" xmlns:v="https://vecta.io/nano"><path d="M21 32.926c1.125 0 1.727-.824 1.727-1.801 0-1.199-.602-1.875-1.727-1.875s-1.727.824-1.727 1.875c0 1.199.602 1.801 1.727 1.801zm1.352-8.176l.297-7.273-3.074.223v10.8l2.777-.074zM6.898 35.25l13.953-24.074L28.5 24.148c1.426-.75 3-1.047 4.574-1.047L22.801 5.625c-.449-.676-1.125-1.125-1.949-1.125s-1.5.449-1.953 1.125L1.051 36.375c-.375.676-.375 1.574 0 2.25S2.176 39.75 3 39.75h22.801a9.77 9.77 0 0 1-2.402-4.5zm39.153 7.727L39.898 37.5c2.027-3.227 1.727-7.5-1.125-10.273a8.28 8.28 0 0 0-11.699 0 8.29 8.29 0 0 0 0 11.699C30 41.625 34.273 42 37.5 39.898l5.551 6.152c.75.824 2.023.676 2.848-.152.902-.898 1.051-2.098.152-2.922zM36.75 36.75c-2.102 2.102-5.477 2.102-7.5 0-2.102-2.102-2.102-5.477 0-7.5 2.102-2.102 5.477-2.102 7.5 0 2.102 2.102 2.102 5.398 0 7.5zm0 0"/></svg>