<svg xmlns="http://www.w3.org/2000/svg" width="48" height="48" fill="rgb(0%,0%,0%)" xmlns:v="https://vecta.io/nano"><path d="M43.938 37.855L25.781 7.105A2.25 2.25 0 0 0 23.844 6c-.809.004-1.543.43-1.945 1.121L4.055 37.871A2.25 2.25 0 0 0 6 41.25h36a2.25 2.25 0 0 0 1.938-3.395zM9.906 36.75l13.957-24.047L38.059 36.75zm14.082-5.988c-1.137 0-1.73.82-1.73 1.867 0 1.184.641 1.82 1.754 1.82 1.137 0 1.73-.797 1.73-1.82 0-1.207-.637-1.867-1.754-1.867zm0 0"/><path d="M22.602 30l2.773-.07v-3.664l.266-7.297-3.039.262zm0 0"/></svg>