<?xml version="1.0" encoding="utf-8"?>

<!DOCTYPE svg PUBLIC "-//W3C//DTD SVG 1.1//EN" "http://www.w3.org/Graphics/SVG/1.1/DTD/svg11.dtd">
<svg version="1.1" xmlns="http://www.w3.org/2000/svg" xmlns:xlink="http://www.w3.org/1999/xlink" x="0px" y="0px" width="24px"
	 height="24px" viewBox="0 0 24 24" style="enable-background:new 0 0 24 24;" xml:space="preserve">
<style type="text/css">
	.st0{fill:none;}
	.st1{fill:#39870C;}
	.st2{fill:#D52B1E;}
	.st3{display:none;}
	.st4{display:none;fill:#FFFFFF;}
</style>
<g id="box">
	<g>
		<rect class="st0" width="24" height="24"/>
	</g>
</g>
<g id="icon">
	<g>
		<path d="M12,1C8.1,1,5,4.1,5,8c0,1.3,0.5,2.5,1,3.7c0.4,1,3.7,7.5,5.2,10.5c0,0,0,0,0,0c0.1,0.3,0.4,0.5,0.8,0.5
			c0.3,0,0.6-0.2,0.8-0.5c0,0,0,0,0,0c1.5-3,4.8-9.5,5.2-10.5c0.5-1.2,1-2.4,1-3.7C19,4.1,15.9,1,12,1z M12,12.2
			c-2.3,0-4.2-1.9-4.2-4.2c0-2.3,1.9-4.2,4.2-4.2s4.2,1.9,4.2,4.2C16.2,10.3,14.3,12.2,12,12.2z"/>
		<circle cx="12" cy="8" r="1.8"/>
	</g>
</g>
</svg>
