<?xml version="1.0" encoding="utf-8"?>
<!-- Generator: Adobe Illustrator 19.1.0, SVG Export Plug-In . SVG Version: 6.00 Build 0)  -->
<svg version="1.2" baseProfile="tiny" xmlns="http://www.w3.org/2000/svg" xmlns:xlink="http://www.w3.org/1999/xlink" x="0px"
	 y="0px" width="64px" height="64px" viewBox="0 0 64 64" xml:space="preserve">
<g id="_x36_4px_Box">
	<rect fill="none" width="64" height="64"/>
</g>
<g id="Icon">
	<path d="M32,4c-10.2401,0-17.9623,7.7265-17.9623,17.9731c0,5.9628,2.8771,10.4182,6.2089,15.5772
		c3.2369,5.0109,6.9053,11.6818,9.1895,20.4683C29.7399,59.1852,30.794,60,32,60s2.2601-0.8148,2.5638-1.9813
		c2.2842-8.7866,5.9526-15.4574,9.1895-20.4683c3.3318-5.159,6.2089-9.6144,6.2089-15.5772C49.9623,11.7265,42.2401,4,32,4z
		 M44.576,23.2128c-4.6109,9.2559-17.9202,10.1314-21.3591,3.4576c-0.735-1.4266-0.7183-2.9211-0.2518-4.2616
		c-2.9263-3.4672-2.3492-8.4221-2.2078-9.1064c0.1876-0.9075,1.0135-1.1671,1.9209-0.9794s1.5624,0.7534,1.3652,1.6588
		c-1.3352,6.1304,1.6993,9.5187,7.6426,11.7902c0.1002-0.0398,0.1402-0.2184-0.1245-0.3805
		c-0.2372-0.1452-4.6157-2.9377-5.572-6.7116c0.4633-0.2798,0.9432-0.4882,1.4182-0.6067c4.9997-1.2478,5.9422,2.8254,9.1719,4.6943
		c2.0129,1.1649,5.0042,1.2828,7.6667,0.0942C44.4669,22.7632,44.6837,22.9965,44.576,23.2128z"/>
</g>
</svg>
