<svg xmlns="http://www.w3.org/2000/svg" width="48" height="48" fill="rgb(0%,0%,0%)" xmlns:v="https://vecta.io/nano"><path d="M24 2a13.91 13.91 0 0 0-14 14c0 2.602 1 5 2 7.398.801 2 7.398 15 10.398 21 .203.602.801 1 1.602 1 .602 0 1.199-.398 1.602-1l10.398-21C37 21 38 18.602 38 16A13.91 13.91 0 0 0 24 2zm0 22.398A8.45 8.45 0 0 1 15.602 16 8.45 8.45 0 0 1 24 7.602 8.45 8.45 0 0 1 32.398 16 8.45 8.45 0 0 1 24 24.398zM27.602 16c0 1.988-1.613 3.602-3.602 3.602S20.398 17.988 20.398 16s1.613-3.602 3.602-3.602 3.602 1.613 3.602 3.602zm0 0"/></svg>