<?xml version="1.0" encoding="utf-8"?>
<!-- Generator: Adobe Illustrator 18.0.0, SVG Export Plug-In . SVG Version: 6.00 Build 0)  -->
<svg version="1.2" baseProfile="tiny" xmlns="http://www.w3.org/2000/svg" xmlns:xlink="http://www.w3.org/1999/xlink" x="0px"
	 y="0px" width="64px" height="64px" viewBox="0 0 64 64" xml:space="preserve">
<g id="_x36_4px">
	<rect fill="none" width="64" height="64"/>
</g>
<g id="icon">
	<g>
		<path d="M52.23,44.7586c-2.7688,0.9518-6.3674,2.413-9.2219,3.6127c0.0737,0.4328,0.0837,0.8923,0.012,1.3787
			c-0.4146,2.8079-2.8201,4.5833-6.2402,4.7416c-7.7328,0.3578-12.5348-1.5577-13.5314-1.9618
			c-0.2863-0.1161-0.318-0.2576-0.2924-0.3882c0.0015-0.0012,0.0112-0.0091,0.0112-0.0091
			c5.5945,0.9645,9.1205,1.1222,13.4634,0.4237c3.2949-0.53,4.489-2.106,4.4612-3.4058c-0.027-1.2701-0.9266-2.0373-2.9519-2.1077
			c-6.8901-0.2395-10.9187-1.0081-16.8242-1.8688c-4.1041-0.5981-8.0618,0.4671-11.4326,2.6266
			c-3.1633,2.0265-4.0403,2.9852-4.0403,2.9852l5.7858,11.1429l7.4819-3.0415c0.8527-0.3466,1.7843-0.4511,2.6925-0.3021
			l10.2607,2.283c2.2893,0.3757,4.6379-0.0563,6.6438-1.2219L58.9871,46.8C58.9871,46.8,57.9828,42.781,52.23,44.7586z"/>
		<path d="M30.3023,40.688C30.5034,41.4605,31.2014,42,32,42s1.4966-0.5395,1.6977-1.312c1.5126-5.8182,3.9417-9.9915,6.085-13.3096
			c2.2062-3.4161,4.1113-6.3663,4.1113-10.3148c0-6.785-5.1134-11.9012-11.894-11.9012s-11.894,5.1163-11.894,11.9012
			c0,3.9484,1.9051,6.8986,4.1113,10.3148C26.3607,30.6965,28.7897,34.8699,30.3023,40.688z M32,9.86
			c3.9433,0,7.14,3.1967,7.14,7.14c0,3.9433-3.1967,7.14-7.14,7.14s-7.14-3.1967-7.14-7.14C24.86,13.0566,28.0567,9.86,32,9.86z"/>
		<circle cx="32" cy="17" r="4"/>
	</g>
</g>
</svg>
