<?xml version="1.0" encoding="utf-8"?>
<!-- Generator: Adobe Illustrator 17.1.0, SVG Export Plug-In . SVG Version: 6.00 Build 0)  -->
<svg version="1.2" baseProfile="tiny" xmlns="http://www.w3.org/2000/svg" xmlns:xlink="http://www.w3.org/1999/xlink" x="0px"
	 y="0px" width="64px" height="64px" viewBox="0 0 64 64" xml:space="preserve">
<g id="Box">
	<rect fill="none" width="64" height="64"/>
</g>
<g id="Icon">
	<path d="M32,4c-10.2401,0-17.9623,7.7265-17.9623,17.9731c0,5.9628,2.8771,10.4182,6.2089,15.5772
		c3.2369,5.0109,6.9053,11.6818,9.1895,20.4683C29.7399,59.1852,30.794,60,32,60s2.2601-0.8148,2.5638-1.9813
		c2.2842-8.7866,5.9526-15.4574,9.1895-20.4683c3.3318-5.159,6.2089-9.6144,6.2089-15.5772C49.9623,11.7265,42.2401,4,32,4z
		 M42.5588,18.3419L32.2125,32.0016c-0.3605,0.4759-1.0549,0.532-1.4871,0.1201l-8.8046-8.392
		c-0.3997-0.381-0.415-1.0139-0.0341-1.4137l2.0477-2.1491c0.381-0.3999,1.014-0.4152,1.4139-0.0341l5.5877,5.3251l7.6619-10.116
		c0.3335-0.4403,0.9607-0.5269,1.4009-0.1934l2.3667,1.7925C42.8057,17.2744,42.8923,17.9016,42.5588,18.3419z"/>
</g>
</svg>
