<?xml version="1.0" encoding="utf-8"?>
<!-- Generator: Adobe Illustrator 18.1.0, SVG Export Plug-In . SVG Version: 6.00 Build 0)  -->
<svg version="1.2" baseProfile="tiny" xmlns="http://www.w3.org/2000/svg" xmlns:xlink="http://www.w3.org/1999/xlink" x="0px"
	 y="0px" width="64px" height="64px" viewBox="0 0 64 64" xml:space="preserve">
<g id="Box">
	<rect fill="none" width="64" height="64"/>
</g>
<g id="Icon">
	<g>
		<path d="M23.6182,25.6304c-1.0001,0.7502-4.7011,3.8059-8.3038,3.8059c-1.3004,0-2.6956-0.4635-3.9034-1.0106
			c1.024,2.6716,2.9396,4.8986,5.3878,6.3174c2.7482-0.3455,5.2487-1.5496,6.8194-2.4743c1.3812,0.8132,3.4799,1.8482,5.8348,2.3212
			c2.1551-1.3182,3.8806-3.2664,4.9088-5.5963c-0.809,0.2593-1.6445,0.4424-2.4398,0.4424
			C28.5201,29.4363,25.1306,26.7651,23.6182,25.6304z"/>
		<path d="M23.6182,19.8132c1.8502,1.0894,4.9865,2.5787,8.3038,2.5787c1.1414,0,2.2566-0.184,3.3101-0.4597
			c-0.315-1.8677-1.0424-3.5935-2.0941-5.0806c-0.4102,0.0754-0.8186,0.1289-1.216,0.1289c-3.4019,0-6.7914-2.6713-8.3038-3.8059
			c-1,0.7502-4.7011,3.8059-8.3038,3.8059c-0.7399,0-1.5114-0.1529-2.2631-0.3817c-1.0978,1.4719-1.8822,3.1877-2.2411,5.0579
			c1.4446,0.4384,3.2864,0.7351,4.5042,0.7351C18.6317,22.392,21.7679,20.9026,23.6182,19.8132z"/>
		<path d="M41.1996,36.2701c-2.3177,2.0827-4.2292,2.8623-4.718,3.0359c-0.2803,0.0995-0.4465,0.0338-0.5031-0.0891
			c0.325-0.2805,2.5176-2.4482,3.7678-4.3015C41.8438,31.8062,43,28.0305,43,24c0-11.0457-8.9543-20-20-20S3,12.9543,3,24
			s8.9543,20,20,20c4.0305,0,7.7753-1.2026,10.9155-3.2537l17.0283,18.2685c1.1622,1.1622,2.9944,1.3178,4.3236,0.3511
			c1.0001-0.7274,1.4528-0.8358,3.0986-3.0986c0.9667-1.3292,0.811-3.1614-0.3511-4.3236L41.1996,36.2701z M23,38.4186
			c-7.9504,0-14.4186-6.4681-14.4186-14.4186S15.0496,9.5814,23,9.5814S37.4186,16.0496,37.4186,24S30.9504,38.4186,23,38.4186z"/>
		<path d="M52.0428,27c-1.0001,0.7503-3.4848,2.75-6,2.75c-0.4932,0-1.0054-0.1064-1.5097-0.2515
			c-0.3268,1.2836-0.7698,2.5199-1.3091,3.7032c0.8831,0.2685,1.8359,0.4583,2.8188,0.4583c2.397,0,4.6631-1.0762,6-1.8633
			c1.3369,0.7871,3.603,1.8633,6,1.8633c1.0322,0,2.0372-0.2025,2.957-0.4926v-4.203c-0.8999,0.4195-1.9733,0.7856-2.957,0.7856
			C55.5812,29.75,53.1269,27.8133,52.0428,27z"/>
		<path d="M52.0428,18c-1.0001,0.7503-3.4848,2.75-6,2.75c-0.3527,0-0.7166-0.0587-1.0798-0.1393
			c0.1691,1.105,0.257,2.2369,0.257,3.3893c0,0.2017-0.0098,0.401-0.0152,0.6014c2.4086,0.2336,4.7697-0.587,6.838-1.8047
			c1.3369,0.7871,3.603,1.8633,6,1.8633c1.0322,0,2.0372-0.2025,2.957-0.4926v-4.203c-0.8999,0.4195-1.9733,0.7856-2.957,0.7856
			C55.5812,20.75,53.1269,18.8133,52.0428,18z"/>
		<path d="M58.0428,11.75c-2.4615,0-4.9159-1.9367-6-2.75c-1.0001,0.7503-3.4848,2.75-6,2.75c-2.4615,0-4.9159-1.9367-6-2.75
			l-0.3921,0.2942c1.5588,1.7636,2.8438,3.7743,3.7836,5.9693c0.8241,0.2344,1.7032,0.3965,2.6085,0.3965
			c2.397,0,4.6631-1.0762,6-1.8633c1.3369,0.7871,3.603,1.8633,6,1.8633c1.0322,0,2.0372-0.2025,2.957-0.4926v-4.203
			C60.0999,11.3839,59.0266,11.75,58.0428,11.75z"/>
	</g>
</g>
</svg>
