<?xml version="1.0" encoding="utf-8"?>
<!-- Generator: Adobe Illustrator 17.1.0, SVG Export Plug-In . SVG Version: 6.00 Build 0)  -->
<svg version="1.2" baseProfile="tiny" xmlns="http://www.w3.org/2000/svg" xmlns:xlink="http://www.w3.org/1999/xlink" x="0px"
	 y="0px" width="64px" height="64px" viewBox="0 0 64 64" xml:space="preserve">
<g id="Box">
	<rect fill="none" width="64" height="64"/>
</g>
<g id="Icon">
	<g>
		<path d="M15.8665,38.5579c1.4567-1.0142,3.2241-1.5855,5.1335-1.5855c3.917,0,7.2402,2.0276,8.4769,6.0276h5.0461
			c1.2368-4,4.5599-6.0276,8.4769-6.0276c1.9095,0,3.6769,0.5851,5.1335,1.5993l5.0038-7.0122
			C54.3488,29.8635,55,27.8245,55,25.7402V15H41.0152c-0.0209,0-0.0673-0.2899,0.2499-0.3917l9.3919-1.9138L49.6205,10.56
			c-0.1223-0.2511-0.3441-0.4431-0.6116-0.5233l-3.866-1.1615l-0.9498-1.2474c-0.1256-0.1649-0.2993-0.287-0.4971-0.3489
			l-1.5132-0.4731c-0.3077-0.0961-0.6342-0.1165-0.9515-0.0593l-3.8741,0.6985l-3.5967-2.4806
			c-0.331-0.2283-0.7664-0.2361-1.1054-0.02l-4.3693,2.7862c0,0-1.2857-1.2143-3-0.9285c-1.7143,0.2857-4.1428,2.5-4.1428,2.5
			l-1.3495-0.6478C19.5178,8.522,19.197,8.523,18.9222,8.657l-2.123,1.0356c-0.2374,0.1158-0.4193,0.3208-0.5061,0.5703
			l-0.436,1.2534l-2.5184,0.9594c-0.3021,0.1151-0.53,0.3967-0.6116,0.7096L12.2609,15H9v10.7402
			c0,2.0842,0.6512,4.1164,1.8627,5.8124L15.8665,38.5579z"/>
		<path d="M28,46c0-3.866-3.134-7-7-7s-7,3.134-7,7c0,3.866,3.134,7,7,7S28,49.866,28,46z M21,49.15
			c-1.7397,0-3.15-1.4103-3.15-3.15c0-1.7397,1.4103-3.15,3.15-3.15s3.15,1.4103,3.15,3.15C24.15,47.7397,22.7397,49.15,21,49.15z"
			/>
		<path d="M50,46c0-3.866-3.134-7-7-7s-7,3.134-7,7c0,3.866,3.134,7,7,7S50,49.866,50,46z M43,49.15
			c-1.7397,0-3.15-1.4103-3.15-3.15c0-1.7397,1.4103-3.15,3.15-3.15s3.15,1.4103,3.15,3.15C46.15,47.7397,44.7397,49.15,43,49.15z"
			/>
		<polygon points="43,53 21,53 4,53 4,57 60,57 60,53 		"/>
	</g>
</g>
</svg>
