<?xml version="1.0" encoding="utf-8"?>
<!-- Generator: Adobe Illustrator 19.1.0, SVG Export Plug-In . SVG Version: 6.00 Build 0)  -->
<svg version="1.2" baseProfile="tiny" xmlns="http://www.w3.org/2000/svg" xmlns:xlink="http://www.w3.org/1999/xlink" x="0px"
	 y="0px" width="64px" height="64px" viewBox="0 0 64 64" xml:space="preserve">
<g id="_x36_4px_Box">
	<rect fill="none" width="64" height="64"/>
</g>
<g id="Icon">
	<g>
		<path d="M30.3132,44.3884C31.245,42.96,32.5,40.7407,32.5,40.7407s-1.0687-1.7407-3.5-1.7407s-3.5,1.7407-3.5,1.7407
			s1.255,2.2193,2.1868,3.6477c-0.6794,1.9124-1.3114,4.7511-1.6883,6.8761c-3.5792-4.9009-5.5341-11.4721-6.8796-16.8354
			L11.9,36.7535c-0.4886,0.1573-0.8907,0.5092-1.1115,0.9726l-0.4123,0.8655c-1.3786,0.5565-2.5123,1.1779-3.0891,1.8616
			C5.1167,43.0262,4,55.9429,4,55.9429h25.2172l2.7639-4.787C31.6022,49.0433,30.9816,46.2699,30.3132,44.3884z"/>
		<path d="M17.0638,25.4938c0.5174,3.4032,2.5819,6.6062,6.2687,9.7436c1.751,1.4906,4.3022,1.7627,5.6673,1.7627
			c1.3649,0,3.9162-0.2721,5.6677-1.7627c3.6281-3.0875,5.7279-6.3556,6.2622-9.7377c1.3281-1.2195,2.068-3.1657,2.068-5.5558
			c0-0.7445-0.0015-2.7017-1.227-4.0358c0.3038-3.3378,0.5151-8.504-0.7868-10.5876c-1.6026-2.5649-3.5498-3.816-7.2632-2.9775
			c-2.4355-1.1577-4.0937-1.8824-8.3608-0.8399c-2.9649,0.7242-6.21,1.9068-7.92,3.8799c-1.6521,1.9068-1.5394,7.2245-1.274,10.6062
			c-1.156,1.332-1.1636,3.2249-1.1636,3.9548C15.0023,22.33,15.7398,24.2737,17.0638,25.4938z M18.6738,17.7697
			c0.1364-0.0642,0.2715-0.0894,0.4-0.0894c0.2398,0,0.456,0.0882,0.6127,0.1766c0.1415,0.6533,0.2486,1.1396,0.2901,1.3112
			C20.1826,20.019,21,19.9409,21,19.9409V13.196c2.0715-0.1483,6.1907-0.7519,10.7498-3.1065L37,13.6157v6.3252
			c0,0,0.8174,0.0781,1.0234-0.7729c0.0415-0.1716,0.1486-0.6579,0.2901-1.3112c0.1567-0.0884,0.3729-0.1766,0.6127-0.1766
			c0.1285,0,0.2637,0.0252,0.4,0.0894c0.4521,0.2132,0.7738,0.9018,0.7738,2.1742c0,1.273-0.4237,3.3145-2.0414,3.8183
			c0,3.8165-2.6802,6.9209-5.3403,9.1847c-0.7803,0.664-2.2495,1.126-3.7185,1.126c-1.469,0-2.938-0.462-3.7181-1.126
			c-2.6601-2.2638-5.3403-5.3213-5.3403-9.1847C18.3237,23.2584,17.9,21.2169,17.9,19.9438
			C17.9,18.6714,18.2217,17.9828,18.6738,17.7697z"/>
		<path d="M62.6186,58.0023l-4.5305-7.847c1.0261-1.7516,0.9544-4.3469-0.3776-6.6539c-0.3434-0.5948-0.7459-1.126-1.1884-1.5875
			c-0.5657,2.2842-2.1182,3.8985-3.0086,4.1456c-0.5244,0.1456-0.5286-0.2377-0.5286-0.2377
			c1.6191-1.5643,2.2603-4.1669,2.0839-6.2159c-0.4849-5.6317-6.6089-9.6768-12.6835-6.4462
			c-2.593,1.379-4.0573,4.2321-3.9136,7.1655l0.0009,0.0175c-1.2144,0.5856-2.3167,1.5822-3.0876,2.9174
			c-1.4872,2.5759-1.2725,5.5891,0.3397,7.4117c0,0-4.4133,7.6451-4.8546,8.4074c-0.433,0.7479,0.1123,1.3802,0.7944,1.7734
			c0.6868,0.3959,1.3434,0.5249,1.7827-0.2361s0.5441-0.9424,0.5441-0.9424l1.7321,1c0.4783,0.2761,1.0899,0.1122,1.366-0.366
			l1-1.7321c0.2761-0.4783,0.1122-1.0899-0.366-1.366l-1.7321-1l2.3344-4.0432c1.6903,0.3422,3.5452-0.2159,5.0132-1.4936
			c0.3486,1.0234,0.9401,1.869,1.6734,2.4368v7.5326c0,1.0273,1.0657,1.6637,2.093,1.6637c1.0273,0,2.093-0.6364,2.093-1.6637
			l-0.8663-0.7586c-0.3254-0.285-0.3254-0.7912,0-1.0762l0.8663-0.7587v-0.6731l-0.8663-0.7587
			c-0.3254-0.285-0.3254-0.7913,0-1.0762l0.8663-0.7587v-1.6637c0.3789-0.2938,0.7192-0.6634,1.0074-1.0942
			c-1.5259-1.3747-2.2252-3.3826-2.0893-4.1708c0.0925-0.5363,0.4409-0.3763,0.4409-0.3763
			c0.9308,2.4186,3.3373,4.6567,6.0551,4.6577l1.2726,2.2042l0.9844,0.1951c0.5145,0.102,0.8215,0.6337,0.6525,1.1302l-0.3232,0.95
			l0.6671,1.1555l0.9844,0.1951c0.5145,0.102,0.8215,0.6337,0.6525,1.1302l-0.3232,0.9501l0.2189,0.3792
			c0.5567,0.9641,1.5261,0.8237,2.4901,0.2603C62.826,60.1373,63.1615,58.9427,62.6186,58.0023z M42.6588,46.5336
			c-0.6289,1.7149-2.6783,3.4211-4.2606,2.5076c-1.1957-0.6904-1.3816-2.6071-0.4151-4.2811
			c0.3046-0.5276,0.6917-0.9557,1.1105-1.2901c0.4644,1.1319,1.1794,2.1298,2.0641,2.9468c0.991-1.4478,0.7255-3.446,0.7255-3.446
			C42.6339,43.291,43.3535,44.6389,42.6588,46.5336z M50.1304,40.3722c-1.0674,0.6163-1.731,1.6943-2.0052,2.9626
			c-0.3279-0.1092-0.6658-0.1852-1.02-0.1852c-0.4949,0-0.963,0.1318-1.4026,0.3396c-0.3505-1.3096-1.132-2.4314-2.3046-3.1084
			c-0.5861-0.3384-1.2206-0.5299-1.8713-0.6005c0.2773-2.6711,2.5153-4.7687,5.2589-4.7687c2.7651,0,5.0172,2.1303,5.2652,4.8314
			C51.3757,39.8604,50.7223,40.0305,50.1304,40.3722z"/>
	</g>
</g>
</svg>
