<?xml version="1.0" encoding="utf-8"?>
<!-- Generator: Adobe Illustrator 17.1.0, SVG Export Plug-In . SVG Version: 6.00 Build 0)  -->
<svg version="1.2" baseProfile="tiny" xmlns="http://www.w3.org/2000/svg" xmlns:xlink="http://www.w3.org/1999/xlink" x="0px"
	 y="0px" width="64px" height="64px" viewBox="0 0 64 64" xml:space="preserve">
<g id="Box">
	<rect fill="none" width="64" height="64"/>
</g>
<g id="Icon">
	<g>
		<path d="M52.1533,55.5962c1.3215,0.6415,2.2239,1.9198,2.3721,3.4038H56c0,0-0.3708-2.8784-1.0927-6.1652L52.1533,55.5962z"/>
		<path d="M40.4248,45.3169c1.6553,0,3.1348,0.9614,3.8398,2.3965l3.3008-3.3101c-1.4817-0.7188-2.4307-2.2399-2.3862-3.9527
			c-1.875-0.7415-3.7146-1.3381-4.9524-1.7135c-0.155-1.1155-0.3613-2.4073-0.5466-3.4836
			c1.7886-2.1667,2.8875-4.4047,3.2495-6.6968c1.3281-1.2195,2.0679-3.1657,2.0679-5.5557c0-0.7447,0.0012-2.7025-1.2268-4.0366
			c0.3037-3.3378,0.5151-8.5034-0.7869-10.587c-1.6025-2.5649-3.5498-3.8159-7.2632-2.9775
			c-2.4355-1.1577-4.0938-1.8823-8.3608-0.8398c-2.9648,0.7241-6.21,1.9067-7.9199,3.8798
			c-1.6521,1.9066-1.5394,7.2238-1.2742,10.6054c-1.1589,1.332-1.1633,3.2256-1.1633,3.9557c0,2.386,0.7373,4.3299,2.0613,5.5497
			c0.382,2.5118,1.613,4.9141,3.7106,7.2619c-0.1061,0.807-0.2283,1.7498-0.3529,2.7313
			c-2.5129,0.7345-9.6715,2.9969-12.0342,5.5665C7.5137,47.2344,6,59,6,59h29.0328l1.1263-9.877
			c0.1025-0.8745,0.457-1.6782,1.0283-2.3325c0.7588-0.876,1.8672-1.4141,3.0342-1.4688L40.4248,45.3169z M31.381,49.3398
			c-2.3003-1.75-6.5919-5.5302-6.1588-9.0224c0.2371-1.9129,0.0408-0.5492,0.8235-5.4371c-2.2766-2.1999-4.1042-4.8665-4.1042-8.061
			C20.3237,26.3154,19.9,24.2739,19.9,23.001c0-1.2725,0.3217-1.961,0.7738-2.1743c0.3921-0.1845,0.7725-0.0476,1.0129,0.0886
			c0.1414,0.6527,0.2483,1.1383,0.2898,1.3098C22.1826,23.0762,23,22.998,23,22.998v-6.7451
			c2.0731-0.1505,6.1937-0.7531,10.7499-3.1062L39,16.6729v6.3251c0,0,0.8174,0.0782,1.0234-0.7729
			c0.0415-0.1715,0.1484-0.6571,0.2898-1.3098c0.2405-0.1362,0.6208-0.2731,1.0129-0.0886C41.7783,21.04,42.1,21.7285,42.1,23.001
			c0,1.2729-0.4237,3.3145-2.0414,3.8183c0,3.7027-2.5334,6.4959-5.3403,8.8846c-0.7806,0.6644-2.2499,1.1066-3.7188,1.1055
			c-1.0627-0.0008-2.1255-0.2865-2.9271-0.6349c0.6139,0.9305,1.6554,2.0744,3.5848,2.5851
			c3.1548,0.8349,5.4595-0.9139,5.4595-0.9139s0.2827,1.9133,0.2744,2.4157C37.7179,43.7497,33.8345,47.5783,31.381,49.3398z"/>
		<path d="M61.4805,38.3741c-0.2755-0.2753-0.6619-0.4099-1.0497-0.3659l-11.1134,1.2676
			c-0.2671,0.0307-0.5085,0.1416-0.7001,0.3078c-0.2594,0.2249-0.4276,0.5506-0.4445,0.9144
			c-0.0304,0.632,0.4045,1.1895,1.0242,1.3145l4.332,0.8699l-5.7764,5.7763c-0.0153,0.0153-0.0227,0.0314-0.0372,0.0468
			l-5.1689,5.1689l-0.87-4.3319c-0.125-0.6196-0.6824-1.0546-1.3145-1.0242c-0.3638,0.0168-0.6895,0.1851-0.9143,0.4443
			c-0.1661,0.1917-0.2772,0.433-0.3079,0.7001l-1.2675,11.1135c-0.0441,0.3879,0.0906,0.7742,0.3658,1.0496
			c0.2754,0.2753,0.6616,0.4099,1.0496,0.366l11.1135-1.2676c0.2992-0.0344,0.5664-0.1699,0.7671-0.3706
			c0.2207-0.2206,0.3618-0.5205,0.3772-0.8516c0.0305-0.632-0.4044-1.1895-1.024-1.3145l-4.3319-0.87l5.7764-5.7762
			c0.012-0.0121,0.0168-0.0259,0.0283-0.0381l5.1776-5.1776l0.8701,4.3318c0.125,0.6196,0.6824,1.0546,1.3145,1.0242
			c0.3311-0.0155,0.631-0.1567,0.8516-0.3773c0.2006-0.2007,0.3363-0.4678,0.3707-0.7671l1.2676-11.1135
			C61.8903,39.0359,61.7556,38.6495,61.4805,38.3741z"/>
	</g>
</g>
</svg>
