<?xml version="1.0" encoding="utf-8"?>
<!-- Generator: Adobe Illustrator 17.1.0, SVG Export Plug-In . SVG Version: 6.00 Build 0)  -->
<svg version="1.2" baseProfile="tiny" xmlns="http://www.w3.org/2000/svg" xmlns:xlink="http://www.w3.org/1999/xlink" x="0px"
	 y="0px" width="64px" height="64px" viewBox="0 0 64 64" xml:space="preserve">
<g id="Box">
	<rect fill="none" width="64" height="64"/>
</g>
<g id="Icon">
	<g>
		<path d="M60.3347,52.9732l-0.037-0.005c-0.5009-0.0682-0.9978,0.0796-1.41,0.3742c-1.3563,0.9695-2.2513,1.5494-3.5242,1.2333
			c-1.9352-0.4806-3.3646-2.2595-3.3031-4.3677c0.0609-2.0845,1.4981-3.6492,3.1989-4.0819
			c1.3487-0.3433,2.6306,0.5056,3.6128,1.201c0.4196,0.2972,0.9178,0.4244,1.4293,0.385c0.8264-0.0638,1.7571-1.038,1.6922-2.0512
			c-0.177-2.7628-0.6655-5.3651-0.8885-6.4495c-0.0586-0.2847-0.3434-0.4569-0.6227-0.3767
			c-1.133,0.3253-4.036,1.0668-7.4712,1.2352c-0.7666,0.0375-1.433-0.5318-1.5152-1.295l-0.0016-0.0142
			c-0.0501-0.4669,0.1385-0.917,0.4771-1.2401c1.081-1.0319,1.6336-2.619,1.2061-4.308c-0.3834-1.5153-1.6237-2.7353-3.1456-3.0912
			c-2.8408-0.6643-5.3656,1.4891-5.3656,4.2363c0,1.2501,0.5229,2.3772,1.3604,3.1717c0.336,0.3187,0.5177,0.7672,0.468,1.2293
			l-0.0017,0.0162c-0.0803,0.7627-0.7456,1.3326-1.5116,1.2951c-3.3207-0.1623-6.1427-0.8604-7.3521-1.2009
			c-0.3192-0.0899-0.6295,0.1493-0.6293,0.481c0.0023,3.085,0.0093,15.9889,0.0008,20.8197C36.999,61.1839,37.8205,62,38.8346,62
			h21.7532c0.2368,0,0.4396-0.159,0.4881-0.3906c0.2075-0.9904,0.7379-3.7279,0.9204-6.6346
			C62.0589,53.978,61.3245,53.1071,60.3347,52.9732z"/>
		<path d="M41.9976,23.001c0-0.7447,0.0012-2.7025-1.2268-4.0366c0.3037-3.3378,0.515-8.5034-0.7869-10.587
			c-1.6026-2.5649-3.5497-3.8159-7.2632-2.9775c-2.4355-1.1577-4.0937-1.8823-8.3608-0.8398c-2.9649,0.7241-6.21,1.9067-7.92,3.8798
			c-1.652,1.9066-1.5394,7.2237-1.2741,10.6054c-1.1589,1.332-1.1634,3.2256-1.1634,3.9557c0,2.386,0.7374,4.3299,2.0614,5.5497
			c0.3819,2.5118,1.613,4.9141,3.7104,7.2619c-0.106,0.807-0.2283,1.7498-0.353,2.7313c-2.5129,0.7345-9.6714,2.9969-12.0341,5.5665
			C4.5137,47.2344,3,59,3,59h31V42.7189c-1.0178,2.6989-3.736,5.269-5.619,6.6209c-2.3004-1.75-6.5919-5.5302-6.1588-9.0224
			c0.237-1.9129,0.0408-0.5492,0.8235-5.4371c-2.2767-2.1999-4.1043-4.8665-4.1043-8.061C17.3237,26.3154,16.9,24.2739,16.9,23.001
			c0-1.2725,0.3217-1.961,0.7738-2.1743c0.3921-0.1845,0.7725-0.0476,1.013,0.0886c0.1414,0.6527,0.2483,1.1383,0.2898,1.3098
			c0.0815,0.3367,0.3406,0.627,0.5469,0.7211c0.0035,0.0019,0.0055,0.0054,0.0092,0.0072l1.007,0.5033
			c0.081,1.7213,1.5194,3.1002,3.2899,3.1002c1.8222,0,3.3051-1.4575,3.3051-3.249c0-0.2689-0.043-0.5263-0.106-0.7764
			c0.5927-0.3661,1.3887-0.368,1.9821-0.0015c-0.0632,0.2505-0.1065,0.5084-0.1065,0.7779c0,1.7915,1.4829,3.249,3.3051,3.249
			c1.7705,0,3.2089-1.3789,3.2899-3.1002l1.007-0.5033c0.0037-0.0018,0.0056-0.0053,0.0092-0.0072
			c0.2812-0.1285,0.463-0.4084,0.5273-0.6749c0.0571-0.2356,0.2509-1.1289,0.3037-1.3708c0.2405-0.1362,0.5876-0.2582,0.9797-0.0737
			C38.7783,21.04,39.1,21.7285,39.1,23.001c0,1.2729-0.4237,3.3145-2.0414,3.8183c0,2.2718-0.9559,4.2002-2.3412,5.9039
			L34.7,32.7291c-0.6512,0.7996-1.3917,1.5524-2.1758,2.2661c-0.006,0.0054-0.0119,0.0107-0.0179,0.0161
			c-1.3267,1.2054-2.5327,1.7995-4.5068,1.798c-1.0628-0.0008-2.1255-0.2865-2.9271-0.6349c1.1667,1.7686,2.9238,2.7068,5.0258,2.79
			v0.0139c2.4408,0.0925,4.1141-0.9741,5.8898-2.8773c1.928-2.0663,3.5193-4.871,3.9417-7.5444
			C41.2578,27.3372,41.9976,25.391,41.9976,23.001z M23.8296,25.1094c-1.0255,0-1.8594-0.8082-1.8594-1.8015
			c0-0.9933,0.8339-1.8015,1.8594-1.8015c1.0254,0,1.8593,0.8082,1.8593,1.8015C25.6888,24.3012,24.855,25.1094,23.8296,25.1094z
			 M32.2094,25.1094c-1.0254,0-1.8593-0.8082-1.8593-1.8015c0-0.9933,0.8339-1.8015,1.8593-1.8015
			c1.0255,0,1.8594,0.8082,1.8594,1.8015C34.0688,24.3012,33.2349,25.1094,32.2094,25.1094z M36,21.2476h-1.2565
			c-0.6068-0.7198-1.5112-1.1887-2.5341-1.1887c-1.0029,0-1.892,0.4509-2.4987,1.1465c-0.5068-0.2996-1.0816-0.4722-1.6912-0.4722
			c-0.6008,0-1.1801,0.1767-1.6888,0.4752c-0.6068-0.6974-1.4968-1.1495-2.5011-1.1495c-1.0229,0-1.9273,0.4689-2.5341,1.1887
			h-1.276L20,21.243v-4.9901c2.0731-0.1505,6.1937-0.7531,10.7499-3.1062L36,16.6729V21.2476z"/>
	</g>
</g>
</svg>
