<?xml version="1.0" encoding="utf-8"?>
<!-- Generator: Adobe Illustrator 17.1.0, SVG Export Plug-In . SVG Version: 6.00 Build 0)  -->
<svg version="1.2" baseProfile="tiny" xmlns="http://www.w3.org/2000/svg" xmlns:xlink="http://www.w3.org/1999/xlink" x="0px"
	 y="0px" width="64px" height="64px" viewBox="0 0 64 64" xml:space="preserve">
<g id="_x36_4px_Boxes">
	<rect fill="none" width="64" height="64"/>
</g>
<g id="Production">
	<path d="M50.2874,26.3175c0.3644-1.4342,0.6222-2.5743,1.362-5.4122c1.0625-4.0728-0.5293-6.729-2.5654-10.2705
		c-2.2695-3.9473-4.0733-5.9317-10.3594-3.2759c-3.6992-2.7744-5.2891-4.3067-11.332-2.7031
		C23.1934,5.77,17.2363,8.04,15.9971,9.5449c-1.5205,1.8467-3.6104,7.7608-3.7285,9.3238
		c-0.2018,2.6658,0.3846,3.9755,1.4948,7.4162C11.0085,28.0419,11,31.7289,11,32.9932c0,3.6267,1.1409,6.5537,3.1539,8.3253
		c0.7033,5.2649,3.8244,10.2362,9.4831,15.1315c2.6495,2.2921,6.7317,2.5396,8.3638,2.5396c1.6321,0,5.714-0.2475,8.3631-2.5404
		c5.5692-4.8179,8.7474-9.8952,9.4745-15.1239C51.8561,39.5544,53,36.6245,53,32.9932C53,31.7366,52.9913,28.0867,50.2874,26.3175z
		 M46,38.9932c0,5.9961-4.1426,10.975-8.2539,14.5316c-1.2054,1.0433-3.4753,1.5648-5.7453,1.5648
		c-2.2706,0-4.5412-0.5217-5.7469-1.5648C22.1426,49.9682,18,45.0635,18,38.9932c-2.5-0.792-3.1-4-3.1-6s0.4428-3.0821,1.142-3.417
		c0.2103-0.1007,0.4188-0.1403,0.6171-0.1403c0.4773,0,0.875,0.2233,1.1124,0.3878c0.5335,2.2371,0.9274,3.8871,0.9961,4.1695
		C19.0156,35.0186,20,34.9248,20,34.9248v-12.246c6.4906,0.0398,15.2009-3.6064,20.8594-7.5069
		c0.1033,0.0388,0.1669,0.2116,0.0682,0.3863c-0.5343,0.9464-1.8122,2.5419-3.4422,4.1073L44,22.9642v11.9606
		c0,0,0.9844,0.0938,1.2324-0.9316c0.0686-0.2824,0.4625-1.9323,0.996-4.1695c0.2375-0.1645,0.6352-0.3878,1.1125-0.3878
		c0.1983,0,0.4068,0.0396,0.6171,0.1403c0.6992,0.3349,1.142,1.417,1.142,3.417S48.5,38.2012,46,38.9932z"/>
</g>
</svg>
