<?xml version="1.0" encoding="utf-8"?>
<!-- Generator: Adobe Illustrator 19.1.0, SVG Export Plug-In . SVG Version: 6.00 Build 0)  -->
<svg version="1.2" baseProfile="tiny" xmlns="http://www.w3.org/2000/svg" xmlns:xlink="http://www.w3.org/1999/xlink" x="0px"
	 y="0px" width="64px" height="64px" viewBox="0 0 64 64" xml:space="preserve">
<g id="Box">
	<rect fill="none" width="64" height="64"/>
</g>
<g id="Icon">
	<g>
		<path d="M52.6145,44.0532c-2.1833-2.3746-8.4619-4.4866-11.386-5.3733c-0.155-1.1155-0.3613-2.4073-0.5466-3.4836
			c1.7887-2.1667,2.8875-4.4047,3.2495-6.6968c1.3281-1.2195,2.0679-3.1657,2.0679-5.5557c0-0.7447,0.0012-2.7025-1.2267-4.0366
			c0.3036-3.3378,0.5048-8.5034-0.7971-10.587c-1.6027-2.5649-3.5397-3.8159-7.2531-2.9775
			c-2.4354-1.1577-4.0936-1.8823-8.3608-0.8398c-2.9648,0.7241-6.21,1.9067-7.9199,3.8798
			c-1.652,1.9066-1.5393,7.2237-1.2742,10.6054c-1.1588,1.332-1.1633,3.2256-1.1633,3.9557c0,2.386,0.7374,4.3299,2.0614,5.5497
			c0.382,2.5118,1.6129,4.9141,3.7106,7.2619c-0.1061,0.807-0.2284,1.7498-0.353,2.7313
			c-2.5129,0.7345-9.6714,2.9969-12.0342,5.5665c-2.8735,3.124-4.3872,14.8896-4.3872,14.8896h50
			C57.0017,58.9429,55.488,47.1772,52.6145,44.0532z M24.0017,19.0022v-2.8065c2.0731-0.1505,6.1937-0.7531,10.75-3.1062
			l5.25,3.5262v2.3848c1.533-0.7658,2.4269,0.2852,2.4269,0.2852c-0.7274-0.4156-1.7452,0.2936-2.2504,0.7143H32h-8.1781
			c-0.5052-0.4207-1.5236-1.1297-2.2505-0.7143C21.5714,19.2857,22.4668,18.233,24.0017,19.0022z M38.4229,21.7998l-0.2808,2.1081
			c-0.0223,0.1673-0.165,0.2923-0.3339,0.2923h-2.7213c-0.1665,0-0.3162-0.1013-0.3782-0.2559l-0.8589-2.1445H38.4229z
			 M30.1465,21.7998l-0.8545,2.1426c-0.062,0.1556-0.2128,0.2578-0.3804,0.2578h-2.7198c-0.1688,0-0.3116-0.1251-0.3339-0.2925
			l-0.2808-2.1079H30.1465z M32.5613,41c-2.6814,0-5.0081-0.8011-6.1838-1.9763c0.0692-0.5047,0.1691-1.0721,0.67-4.2006
			c-2.2767-2.1999-4.1044-4.8665-4.1044-8.061c-1.6177-0.5039-2.0414-2.5454-2.0414-3.8183c0-1.2725,0.3217-1.961,0.7738-2.1743
			c0.3335-0.1569,0.6523-0.0792,0.8899,0.0308l1.3295,2.0015l0.1949,1.4643C24.2222,25.2587,25.0686,26,26.0699,26h2.8431
			c0.9048,0,1.7178-0.5521,2.0518-1.3929l0.5115-1.2883c0.1882-0.474,0.8591-0.474,1.0474,0l0.5115,1.2882
			C33.369,25.4479,34.1821,26,35.0869,26h2.8431c1.0013,0,1.8478-0.7413,1.9801-1.7338l0.1949-1.4643l1.3287-2.0002
			c0.2379-0.1108,0.5588-0.1898,0.894-0.0321c0.4521,0.2133,0.7739,0.9018,0.7739,2.1743c0,1.2729-0.4238,3.3144-2.0415,3.8183
			c0,3.7027-2.5334,6.4959-5.3403,8.8846c-0.7806,0.6644-2.2498,1.1066-3.7188,1.1055c-1.0627-0.0008-2.1255-0.2865-2.927-0.6349
			c0.6138,0.9305,1.6553,2.0744,3.5847,2.5851c3.1548,0.8349,5.4595-0.9139,5.4595-0.9139s0.1289,0.8764,0.2101,1.5996
			C37.0663,40.3612,34.9551,41,32.5613,41z"/>
	</g>
</g>
</svg>
