<?xml version="1.0" encoding="utf-8"?>
<!-- Generator: Adobe Illustrator 17.1.0, SVG Export Plug-In . SVG Version: 6.00 Build 0)  -->
<svg version="1.2" baseProfile="tiny" xmlns="http://www.w3.org/2000/svg" xmlns:xlink="http://www.w3.org/1999/xlink" x="0px"
	 y="0px" width="64px" height="64px" viewBox="0 0 64 64" xml:space="preserve">
<g id="_x36_4px_Boxes">
	<rect fill="none" width="64" height="64"/>
</g>
<g id="Production">
	<g>
		<path d="M31.5,11.9775c3.1371,0,4.952-2.2095,4.952-5.3888c0-3.6236-1.8971-5.5663-4.952-5.5663
			c-3.2183,0-4.952,2.2967-4.952,5.5663C26.548,10.0338,28.3634,11.9775,31.5,11.9775z"/>
		<path d="M37.0243,14.7021c-3.3368-0.7958-7.8055-0.7958-11.0487,0c-6.362,1.5612-5.9421,11.6472-5.9421,20.357
			c0.2096,3.0518,2.4544,3.92,3.8006,3.92c0-0.1417,0-1.6151,0-3.0491c0-0.7156,0-5.5918,0-6.1175
			c0-3.4489,0.3357-6.1401,0.7565-7.4819C24.7188,21.9219,25,22,25,22v15.9998V63c0,0,4.8654,0.0391,5.2372-5.0498
			c0,0,0.7277-19.2431,0.7359-19.457C30.9813,38.2793,31.1406,38,31.5,38s0.5083,0.2793,0.5165,0.4932
			c0.0082,0.2139,0.7308,19.3173,0.7308,19.3173C33.0361,63.0488,38,63,38,63V37.9998V22c0,0,0.3024-0.1048,0.4494,0.3306
			c0.4062,1.2031,0.7165,4.033,0.7165,7.435c0,0.7024,0,5.7442,0,6.5186c0,1.4331,0,2.6949,0,2.6949
			c1.3462,0,3.5612-0.837,3.8007-3.92C42.9666,26.3493,43.3964,16.2219,37.0243,14.7021z"/>
	</g>
</g>
</svg>
