<?xml version="1.0" encoding="utf-8"?>
<!-- Generator: Adobe Illustrator 17.1.0, SVG Export Plug-In . SVG Version: 6.00 Build 0)  -->
<svg version="1.2" baseProfile="tiny" xmlns="http://www.w3.org/2000/svg" xmlns:xlink="http://www.w3.org/1999/xlink" x="0px"
	 y="0px" width="64px" height="64px" viewBox="0 0 64 64" xml:space="preserve">
<g id="_x36_4px_Boxes">
	<rect fill="none" width="64" height="64"/>
</g>
<g id="Production">
	<g>
		<path d="M53.7128,43.4532c-1.7468-1.9229-8.6734-3.5121-12.0912-4.3832c-1.1951,4.768-3.3053,10.9131-6.6131,15.2346
			c-0.376-2.1291-1.0116-4.9916-1.6953-6.9162C34.245,45.96,35.5,43.7407,35.5,43.7407S34.4313,42,32,42
			c-2.4313,0-3.5,1.7407-3.5,1.7407s1.255,2.2193,2.1868,3.6477c-0.6794,1.9124-1.3114,4.7511-1.6883,6.8761
			c-3.1676-4.3374-5.2785-10.4981-6.4964-15.2556c-3.3678,0.8032-10.4323,2.3312-12.2149,4.4443C8.1167,46.0262,7,58.9429,7,58.9429
			h25h25C57,58.9429,56.05,46.0262,53.7128,43.4532z"/>
		<path d="M20.0638,28.4937c0.5174,3.4032,2.5819,6.6062,6.2687,9.7436C28.0835,39.7279,30.6348,40,31.9998,40
			c1.3649,0,3.9162-0.2721,5.6677-1.7627c3.6281-3.0875,5.7279-6.3556,6.2622-9.7377c1.3281-1.2195,2.068-3.1657,2.068-5.5558
			c0-0.7445-0.0015-2.7017-1.227-4.0358c0.3038-3.3378,0.5151-8.504-0.7868-10.5877c-1.6026-2.5649-3.5498-3.816-7.2632-2.9775
			c-2.4355-1.1577-4.0937-1.8824-8.3608-0.8399c-2.9649,0.7242-6.21,1.9068-7.92,3.8799c-1.6521,1.9068-1.5394,7.2246-1.274,10.6062
			c-1.156,1.332-1.1636,3.2249-1.1636,3.9548C18.0023,25.3299,18.7398,27.2737,20.0638,28.4937z M21.6738,20.7696
			c0.1363-0.0642,0.2715-0.0894,0.4-0.0894c0.2398,0,0.456,0.0882,0.6127,0.1766c0.1415,0.6533,0.2486,1.1396,0.2901,1.3112
			C23.1826,23.019,24,22.9409,24,22.9409V16.196c2.0715-0.1483,6.1907-0.7519,10.7498-3.1065L40,16.6157v6.3252
			c0,0,0.8174,0.0781,1.0234-0.7729c0.0415-0.1716,0.1486-0.6579,0.2901-1.3112c0.1567-0.0884,0.3729-0.1766,0.6127-0.1766
			c0.1285,0,0.2637,0.0252,0.4,0.0894c0.4521,0.2132,0.7738,0.9018,0.7738,2.1742c0,1.273-0.4237,3.3145-2.0414,3.8183
			c0,3.8165-2.6802,6.9209-5.3403,9.1847c-0.7803,0.664-2.2494,1.126-3.7185,1.126c-1.469,0-2.938-0.462-3.7181-1.126
			c-2.6601-2.2638-5.3403-5.3213-5.3403-9.1847C21.3237,26.2583,20.9,24.2168,20.9,22.9438
			C20.9,21.6714,21.2217,20.9828,21.6738,20.7696z"/>
	</g>
</g>
</svg>
