<?xml version="1.0" encoding="utf-8"?>
<!-- Generator: Adobe Illustrator 25.0.0, SVG Export Plug-In . SVG Version: 6.00 Build 0)  -->
<svg version="1.1" xmlns="http://www.w3.org/2000/svg" xmlns:xlink="http://www.w3.org/1999/xlink" x="0px" y="0px"
	 viewBox="0 0 64 64" style="enable-background:new 0 0 64 64;" xml:space="preserve">
<style type="text/css">
	.st0{fill:none;}
	.st1{fill:#FFFFFF;}
</style>
<g id="Box">
	<rect class="st0" width="64" height="64"/>
</g>
<g id="Icon">
	<path class="st1" d="M32,39.238c3.837,0,5.584-1.158,8.261-3.459c0.946-0.814,2.009-1.77,3.321-2.869l-0.735-1.618
		c0,0,0.188-1.276,0.31-1.926c0.188-1.001,0.331-3.557,0.331-3.557c-5.678,0-7.414-0.58-8.243-1.251
		c-1.061-0.857-1.708-1.846-3.245-1.846s-2.184,0.989-3.245,1.846c-0.829,0.67-2.565,1.251-8.243,1.251c0,0,0.143,2.556,0.331,3.557
		c0.122,0.65,0.31,1.926,0.31,1.926l-0.735,1.618c1.468,1.23,2.624,2.281,3.655,3.153C26.567,38.175,28.325,39.238,32,39.238z"/>
	<path d="M52.613,44.11c-2.183-2.375-8.462-4.487-11.386-5.373c-0.084-0.603-0.183-1.255-0.285-1.898
		c0.105-0.09-0.027,0.032,1.203-1.042c0.667-0.584,1.402-1.227,2.24-1.929c0.431-0.36,0.567-0.964,0.335-1.475l-0.583-1.282
		c0.275-1.818,0.314-1.619,0.46-3.311c0.901-1.205,1.399-2.85,1.399-4.798c0-0.745,0.001-2.703-1.227-4.037
		c0.304-3.338,0.515-8.503-0.787-10.587c-1.603-2.565-3.55-3.816-7.263-2.977c-2.436-1.158-4.094-1.882-8.361-0.84
		c-2.965,0.724-6.21,1.907-7.92,3.88c-1.652,1.907-1.54,7.224-1.274,10.605c-1.159,1.332-1.163,3.226-1.163,3.956
		c0,1.948,0.499,3.593,1.399,4.798c0.145,1.676,0.179,1.446,0.46,3.311l-0.583,1.282c-0.232,0.511-0.095,1.115,0.335,1.476
		c0.844,0.707,1.583,1.354,2.255,1.941c1.608,1.408,1.446,1.246,1.714,1.468c-0.053,0.411-0.107,0.832-0.162,1.267
		c-2.513,0.734-9.671,2.997-12.034,5.567C8.514,47.234,7,59,7,59h25h25C57,59,55.486,47.234,52.613,44.11z M20.9,23.001
		c0-1.272,0.322-1.961,0.774-2.174c0.392-0.184,0.772-0.048,1.013,0.089c0.141,0.653,0.248,1.138,0.29,1.31
		C23.183,23.076,24,22.998,24,22.998v-6.745c2.073-0.151,6.194-0.753,10.75-3.106L40,16.673v6.325c0,0,0.817,0.078,1.023-0.773
		c0.042-0.172,0.148-0.657,0.29-1.31c0.24-0.136,0.621-0.273,1.013-0.089c0.452,0.213,0.774,0.902,0.774,2.174
		c0,0.456-0.066,1.006-0.211,1.552c-3.829-0.03-6.089-0.345-6.858-0.967c-1.001-0.811-1.964-2.124-4.031-2.124
		c-2.059,0-3.022,1.307-4.031,2.124c-0.77,0.622-3.029,0.936-6.858,0.967C20.966,24.007,20.9,23.456,20.9,23.001z M21.947,32.566
		l0.344-0.758c0.018-0.038,0.021-0.081,0.035-0.12l5.794,1.539c0.039-0.045,0.155-0.222-0.106-0.429
		c-0.227-0.179-4.729-2.816-5.914-3.509c-0.009-0.052-0.019-0.108-0.028-0.154c-0.084-0.446-0.164-1.312-0.224-2.087
		c4.895-0.087,6.646-0.672,7.692-1.517c1.166-0.944,1.49-1.568,2.459-1.568c0.977,0,1.358,0.677,2.459,1.568
		c1.045,0.845,2.797,1.43,7.692,1.517c-0.06,0.775-0.14,1.641-0.224,2.087c-0.009,0.046-0.018,0.102-0.028,0.154
		c-1.185,0.693-5.688,3.33-5.915,3.51c-0.261,0.207-0.146,0.383-0.106,0.429l5.794-1.539c0.014,0.04,0.018,0.082,0.035,0.12
		l0.345,0.758c-1.052,0.899-1.771,1.546-2.607,2.265c-2.553,2.195-4.029,3.157-7.446,3.157c-3.353,0-4.809-0.922-7.12-2.879
		C24.222,34.552,22.887,33.37,21.947,32.566z M32.381,49.34c-2.3-1.75-6.592-5.53-6.159-9.022c0.071-0.577,0.104-0.854,0.135-1.096
		c1.573,0.848,3.253,1.266,5.643,1.266c2.769,0,4.609-0.6,6.258-1.614c0.069,0.539,0.137,1.138,0.133,1.388
		C38.718,43.75,34.834,47.578,32.381,49.34z"/>
</g>
</svg>
