<?xml version="1.0" encoding="utf-8"?>
<!-- Generator: Adobe Illustrator 25.2.0, SVG Export Plug-In . SVG Version: 6.00 Build 0)  -->
<svg version="1.1" xmlns="http://www.w3.org/2000/svg" xmlns:xlink="http://www.w3.org/1999/xlink" x="0px" y="0px"
	 viewBox="0 0 64 64" style="enable-background:new 0 0 64 64;" xml:space="preserve">
<style type="text/css">
	.st0{fill:none;}
	.st1{fill:#B3B3B3;}
</style>
<g id="Label">
</g>
<g id="Box">
	<rect class="st0" width="64" height="64"/>
</g>
<g id="Icon">
	<path d="M32,8C18.745,8,8,18.745,8,32c0,13.255,10.745,24,24,24s24-10.745,24-24C56,18.745,45.255,8,32,8z M20.76,30
		c0-1.789,1.451-3.24,3.24-3.24c1.79,0,3.24,1.451,3.24,3.24c0,1.789-1.45,3.24-3.24,3.24C22.211,33.24,20.76,31.789,20.76,30z
		 M38.655,42.698c-0.66,1.502-2.432,4.188-6.655,4.188s-5.994-2.686-6.655-4.188c-0.171-0.388,0.189-0.796,0.595-0.677
		c1.185,0.348,3.393,0.864,6.059,0.864s4.874-0.516,6.059-0.864C38.466,41.902,38.825,42.31,38.655,42.698z M40,33.24
		c-1.789,0-3.24-1.451-3.24-3.24c0-1.789,1.451-3.24,3.24-3.24c1.79,0,3.24,1.451,3.24,3.24C43.24,31.789,41.79,33.24,40,33.24z"/>
</g>
</svg>
