<?xml version="1.0" encoding="utf-8"?>
<!-- Generator: Adobe Illustrator 17.1.0, SVG Export Plug-In . SVG Version: 6.00 Build 0)  -->
<svg version="1.2" baseProfile="tiny" xmlns="http://www.w3.org/2000/svg" xmlns:xlink="http://www.w3.org/1999/xlink" x="0px"
	 y="0px" width="64px" height="64px" viewBox="0 0 64 64" xml:space="preserve">
<g id="Box">
	<rect fill="none" width="64" height="64"/>
</g>
<g id="Icon">
	<g>
		<path d="M24.8293,41.9588c-1.7667-0.4836-8.9891-2.4617-9.3045-2.5636C15.1653,39.2791,15.2858,39,15.2858,39L23,39.0001
			c1.5077,0,3.0473,0.1205,4.7576,0.3978c0.7768-2.6459,1.2408-5.8774,1.2408-9.3978c0-3.5089-0.4555-6.7479-1.2235-9.4009
			C26.0584,20.8784,24.5127,21,23,21H8c-2.7614,0-5,2.2386-5,5v8c0,2.7614,2.2386,5,5,5h1.9752l9.1152,18.4151
			c0.98,1.9799,3.3795,2.7905,5.3593,1.8104l3.5849-1.7744c1.9799-0.98,2.7904-3.3795,1.8104-5.3593L24.8293,41.9588z"/>
		<path d="M57,7.1c-1.3796-3.0101-2.9635-3.9131-4.5826-2.3239c-5.0841,4.9905-9.2841,9.6906-16.2169,13.1587
			c-1.8397,0.9203-3.7942,1.5853-5.6067,2.0627c0.8771,2.7596,1.4046,6.226,1.4046,10.0024c0,3.783-0.5328,7.2437-1.4139,10.0002
			c1.8156,0.4776,3.7731,1.1431,5.616,2.065c6.9329,3.4681,11.1328,8.1682,16.2169,13.1587
			c1.6191,1.5893,3.2029,0.6863,4.5826-2.3239c0.7333-1.6,3-10.5003,3-22.9C60,17.6003,57.7333,8.7,57,7.1z"/>
	</g>
</g>
</svg>
