<?xml version="1.0" encoding="utf-8"?>
<!-- Generator: Adobe Illustrator 17.1.0, SVG Export Plug-In . SVG Version: 6.00 Build 0)  -->
<svg version="1.2" baseProfile="tiny" xmlns="http://www.w3.org/2000/svg" xmlns:xlink="http://www.w3.org/1999/xlink" x="0px"
	 y="0px" width="64px" height="64px" viewBox="0 0 64 64" xml:space="preserve">
<g id="Box">
	<rect fill="none" width="64" height="64"/>
</g>
<g id="Icon">
	<g>
		<path d="M14.043,28.1367c0.5352,0.3151,1.2238,0.6743,2.0056,0.9944l1.0647-3.8155c-1.3114-0.6332-2.4315-1.4965-3.0703-1.9757
			c-1.0001,0.7504-3.4848,2.75-6,2.75c-1.0184,0-2.1246-0.3893-3.043-0.8273v4.2183C5.9427,29.7856,6.9789,30,8.043,30
			C10.4399,30,12.7061,28.9238,14.043,28.1367z"/>
		<path d="M56.043,26.09c-2.4615,0-4.9159-1.9367-6-2.75c-0.8749,0.6564-2.8858,2.2686-5.0594,2.6622l-0.2995,1.0734
			c0.3101,0.873,0.2416,1.6106,0.0975,2.1269l-0.2147,0.7695c2.199-0.1397,4.2375-1.106,5.4761-1.8352
			c1.3369,0.7871,3.603,1.8633,6,1.8633c1.0322,0,2.0372-0.2025,2.957-0.4926v-4.2031C58.1001,25.7238,57.0267,26.09,56.043,26.09z"
			/>
		<path d="M50.043,41.34c-1.0001,0.7504-3.4848,2.75-6,2.75c-2.4615,0-4.9159-1.9367-6-2.75c-1.0001,0.7504-3.4848,2.75-6,2.75
			c-2.4615,0-4.9159-1.9367-6-2.75c-1.0001,0.7504-3.4848,2.75-6,2.75c-2.4615,0-4.9159-1.9367-6-2.75
			c-1.0001,0.7504-3.4848,2.75-6,2.75c-1.0184,0-2.1246-0.3893-3.043-0.8273v4.2183C5.9427,47.7856,6.9789,48,8.043,48
			c2.397,0,4.6631-1.0762,6-1.8633c1.3369,0.7871,3.603,1.8633,6,1.8633s4.6631-1.0762,6-1.8633
			c1.3369,0.7871,3.603,1.8633,6,1.8633s4.6631-1.0762,6-1.8633c1.3369,0.7871,3.603,1.8633,6,1.8633s4.6631-1.0762,6-1.8633
			c1.3369,0.7871,3.603,1.8633,6,1.8633c1.0322,0,2.0372-0.2025,2.957-0.4926v-4.2031c-0.8999,0.4195-1.9733,0.7856-2.957,0.7856
			C53.5814,44.09,51.1271,42.1533,50.043,41.34z"/>
		<path d="M20.043,32.8896c1.8713,0,4.1127-1.8829,6.0005-3.3003c1.7286,1.2983,4.092,3.3003,5.9995,3.3003
			c1.8713,0,4.1127-1.8829,6.0005-3.3003c0.894,0.6715,1.9582,1.527,3.041,2.2006l0.3527-1.2638
			c0.5091-0.2471,0.8495-0.5682,0.9622-0.9717c0.0447-0.1603,0.2184-0.783,0.2632-0.9434c0.1126-0.4034-0.0124-0.8545-0.3199-1.3295
			l1.1222-4.0217c-3.4343-0.6781-5.3937-1.9071-5.8589-2.2281c-0.2563-0.177-0.3023-0.3584-0.2328-0.4818
			c2.5417,0.6043,4.765,0.8661,6.7457,0.3667l0.0018-0.0067c0.5091-0.2471,0.8495-0.5682,0.9622-0.9717
			c0.0447-0.1603,0.2184-0.783,0.2632-0.9433c0.5434-1.9473-4.1824-4.9676-10.5554-6.746
			c-6.373-1.7783-11.9799-1.6414-12.5233,0.3059c-0.0447,0.1603-0.2185,0.783-0.2632,0.9434
			c-0.1126,0.4034,0.0123,0.8545,0.3199,1.3295l-1.778,6.3716c-0.5091,0.2471-0.8495,0.5682-0.9621,0.9717
			c-0.0447,0.1603-0.2185,0.783-0.2632,0.9433c-0.1126,0.4035,0.0123,0.8545,0.3199,1.3295l-1.7779,6.3716
			c-0.4708,0.2285-0.7885,0.5234-0.9241,0.8851C17.8856,32.3089,19.0281,32.8896,20.043,32.8896z"/>
		<path d="M50.043,32.34c-1.0001,0.7504-3.4848,2.75-6,2.75c-2.4615,0-4.9159-1.9367-6-2.75c-1.0001,0.7504-3.4848,2.75-6,2.75
			c-2.4615,0-4.9159-1.9367-6-2.75c-1.0001,0.7504-3.4848,2.75-6,2.75c-2.4615,0-4.9159-1.9367-6-2.75
			c-1.0001,0.7504-3.4848,2.75-6,2.75c-1.0184,0-2.1246-0.3893-3.043-0.8273v4.2183C5.9427,38.7856,6.9789,39,8.043,39
			c2.397,0,4.6631-1.0762,6-1.8633c1.3369,0.7871,3.603,1.8633,6,1.8633s4.6631-1.0762,6-1.8633
			c1.3369,0.7871,3.603,1.8633,6,1.8633s4.6631-1.0762,6-1.8633c1.3369,0.7871,3.603,1.8633,6,1.8633s4.6631-1.0762,6-1.8633
			c1.3369,0.7871,3.603,1.8633,6,1.8633c1.0322,0,2.0372-0.2025,2.957-0.4926v-4.2031c-0.8999,0.4195-1.9733,0.7856-2.957,0.7856
			C53.5814,35.09,51.1271,33.1533,50.043,32.34z"/>
	</g>
</g>
</svg>
