<?xml version="1.0" encoding="utf-8"?>
<!-- Generator: Adobe Illustrator 25.3.1, SVG Export Plug-In . SVG Version: 6.00 Build 0)  -->
<svg version="1.1" xmlns="http://www.w3.org/2000/svg" xmlns:xlink="http://www.w3.org/1999/xlink" x="0px" y="0px"
	 viewBox="0 0 64 64" style="enable-background:new 0 0 64 64;" xml:space="preserve">
<style type="text/css">
	.st0{fill:none;}
	.st1{fill:#B3B3B3;}
</style>
<g id="Box">
	<rect class="st0" width="64" height="64"/>
</g>
<g id="Icon">
	<g>
		<path d="M20.119,38.771c0.62-1.576-0.156-3.357-1.732-3.977l-1.717-0.675c0.938-0.168,1.786-0.763,2.229-1.688
			c0.731-1.528,0.085-3.36-1.443-4.091l-0.6-0.287c1.211,0.076,2.404-0.571,2.96-1.733c0.731-1.528,0.085-3.36-1.443-4.091
			l-3.953-1.892c-1.528-0.731-3.36-0.085-4.091,1.443c-0.731,1.528-0.085,3.36,1.443,4.091l0.6,0.287
			c-1.212-0.076-2.404,0.571-2.96,1.733c-0.731,1.528-0.085,3.36,1.443,4.091l2.117,1.013c-1.142,0.081-2.194,0.791-2.641,1.928
			c-0.62,1.576,0.156,3.357,1.732,3.977l4.078,1.604C17.718,41.123,19.499,40.347,20.119,38.771z"/>
		<path d="M18,19.832v-0.011V8h20v11.003c0.162-0.136,0.322-0.274,0.506-0.389c1.064-0.665,2.325-0.842,3.494-0.573
			c0-4.301,0-8.601,0-12.902c0-1.741-1.345-3.457-3.19-3.731C35.214,0.887,31.607,0.628,28,0.63
			c-3.607-0.002-7.214,0.257-10.81,0.778C15.345,1.682,14,3.397,14,5.139c0,0.954,0,9.635,0,9.635
			c-0.056,0.021-0.297,0.076-0.364-0.25c-0.081-0.396-0.478-2.523-0.793-4.218l-2.025-0.752C9.325,9,7.617,9.716,6.913,11.192
			C6.185,12.715,6.788,14.496,8.27,15.2L18,19.832z"/>
		<path d="M54.327,50.825l-2.477-19.6c-0.196-1.674-0.99-3.221-2.236-4.356l-6.891-6.275c-0.87-0.792-2.16-0.908-3.157-0.285
			c-1.171,0.732-1.572,2.241-0.925,3.461c1.023,1.93,2.788,4.835,5.358,7.54v11.476c0,2.793-2.15,5.301-4.896,5.709
			c-4.295,0.622-7.488,0.761-11.177,0.799c-1.215,0-2.437-0.041-3.66-0.1c0.669,1.07,1.597,2.193,2.908,3.242
			c4.593,3.674,6.747,6.342,6.747,6.342l3.139,4.977l19.309-9.428L54.327,50.825z"/>
		<path d="M38.81,46.518c1.845-0.274,3.19-1.99,3.19-3.731c0-3.568,0-7.137,0-10.705c-1.672-1.856-3.003-3.761-4-5.402V37H22.281
			c0.108,0.821,0.023,1.679-0.302,2.503c-1.043,2.653-3.999,3.872-6.57,2.861L14,41.81c0,0.326,0,0.652,0,0.977
			c0,1.741,1.345,3.457,3.19,3.731c3.608,0.522,7.209,0.78,10.81,0.777C31.601,47.298,35.202,47.04,38.81,46.518z M25.52,41.874
			c0-1.37,1.11-2.48,2.48-2.48s2.48,1.11,2.48,2.48s-1.11,2.48-2.48,2.48S25.52,43.244,25.52,41.874z"/>
	</g>
</g>
</svg>
