<?xml version="1.0" encoding="utf-8"?>
<!-- Generator: Adobe Illustrator 19.2.0, SVG Export Plug-In . SVG Version: 6.00 Build 0)  -->
<svg version="1.0" xmlns="http://www.w3.org/2000/svg" xmlns:xlink="http://www.w3.org/1999/xlink" x="0px" y="0px"
	 viewBox="0 0 64 64" enable-background="new 0 0 64 64" xml:space="preserve">
<g id="achtergrond">
</g>
<g id="paneel_1">
	<g>
		<path d="M55.2511,47.6015L34.5402,27.0129c-2.6676,2.9836-5.122,3.8728-5.6346,4.0356c-0.2253,0.0717-0.3549,0.0149-0.3966-0.0837
			c0.4783-0.3858,0.9556-0.7986,1.4305-1.269c5.3222-5.278,5.2414-10.8613,0.741-15.4003
			c-2.8612-2.8863-6.1546-3.9796-9.5411-3.0484c-0.553,0.1527-0.7606,0.8378-0.3927,1.2793c1.1974,1.4387,2.3498,2.8555,2.8922,3.61
			c0.8044,1.1182,2.2741,3.1933,0.8914,4.5648l-4.0758,4.0396c-1.3826,1.3717-3.2963-0.2225-4.4064-1.0341
			c-0.7199-0.526-1.989-1.6797-3.2888-2.9107c-0.4385-0.4148-1.1808-0.2127-1.3182,0.3745
			c-0.7535,3.2293,0.3469,6.3772,3.0886,9.1396c3.3148,3.3446,7.2179,4.2819,11.1721,2.4402l22.2247,22.1143
			c1.9338,1.9501,4.2312,0.826,6.1737-1.1015C56.0423,51.8399,57.1854,49.552,55.2511,47.6015z"/>
		<path d="M17.9988,19.1186c0.3351-0.0745,0.6935-0.4034,0.7965-0.7309l1.3039-4.1457c0.103-0.3275-0.0026-0.8023-0.2347-1.0552
			l-2.9384-3.202C16.694,9.7318,16.23,9.5859,15.8949,9.6604l-4.2423,0.9436c-0.3351,0.0745-0.6935,0.4034-0.7965,0.7309
			l-1.3039,4.1458c-0.103,0.3275,0.0026,0.8023,0.2347,1.0552l2.9384,3.202c0.2321,0.2529,0.6961,0.3989,1.0312,0.3243
			L17.9988,19.1186z M14.382,12.4999c1.2946-0.2879,2.5776,0.5281,2.8656,1.8228c0.288,1.2946-0.5281,2.5776-1.8227,2.8656
			c-1.2946,0.288-2.5776-0.5281-2.8656-1.8227C12.2713,14.0708,13.0874,12.7879,14.382,12.4999z"/>
	</g>
</g>
</svg>
