<svg height="64" viewBox="0 0 64 64" width="64" xmlns="http://www.w3.org/2000/svg"><path d="m0 0h64v64h-64z" fill="none"/><path d="m57.0116 13.6197c1.7829-1.783.7425-3.8862-1.0326-5.6595-1.775-1.7765-3.8795-2.817-5.6616-1.0347l-16.8 16.8004 6.6937 6.6948z"/><path d="m14.5518 46.406c-.8218-.2139-1.7099-.1093-2.4623.3282-.4021.2338-.7129.5988-.9474 1.0005l-3.047 5.2183 2.8745 2.9011 5.2203-3.0458c.394-.2299.7523-.5332.9866-.9246.496-.8285.5833-1.8276.2788-2.7238l10.9597-10.9242-2.8284-2.8288z"/><path d="m40.5909 43.0591c-.0034.0042-.0072.0083-.0106.0125-.0011-.0005-.0012-.0024-.0023-.0029-.1198-.0605-.1805-.2272-.0753-.5032.1979-.5196 1.107-2.6511 3.6044-5.1368l-17.4906-17.4931c-2.4902 2.5052-4.6269 3.4169-5.1472 3.6151-.278.1059-.4456.0439-.505-.0775 5.5634-5.0277 6.9495-10.3059 1.9551-15.3004-2.6367-2.638-5.6638-3.6289-8.7678-2.7609-.5075.1419-.6947.7716-.356 1.1753 1.1046 1.3163 2.1682 2.6119 2.6686 3.3021.7424 1.0233 2.0993 2.9221.8356 4.1862l-3.7251 3.723c-1.2637 1.2644-3.026-.1917-4.0479-.932-.6627-.4799-1.8319-1.5338-3.0298-2.6586-.4039-.3792-1.0842-.1912-1.2079.3489-.6797 2.9666.3428 5.851 2.8694 8.376 3.0548 3.0566 6.6411 3.9022 10.2628 2.1966l20.5092 20.5116c-1.7056 3.6218-.86 7.208 2.1966 10.2628 2.525 2.5266 5.4094 3.5491 8.376 2.8694.54-.1237.7281-.804.3489-1.2079-1.1248-1.1979-2.1787-2.3671-2.6586-3.0298-.7404-1.0219-2.1964-2.7842-.932-4.0479l3.723-3.7251c1.2641-1.2637 3.1629.0931 4.1862.8356.6901.5004 1.9858 1.564 3.3021 2.6686.4037.3387 1.0334.1516 1.1753-.356.868-3.104-.1229-6.1312-2.7609-8.7678-5.2084-5.2083-10.3962-3.4984-15.2962 1.9162z"/></svg>