<?xml version="1.0" encoding="utf-8"?>
<!-- Generator: Adobe Illustrator 17.1.0, SVG Export Plug-In . SVG Version: 6.00 Build 0)  -->
<svg version="1.2" baseProfile="tiny" xmlns="http://www.w3.org/2000/svg" xmlns:xlink="http://www.w3.org/1999/xlink" x="0px"
	 y="0px" width="64px" height="64px" viewBox="0 0 64 64" xml:space="preserve">
<g id="_x36_4px_Boxes">
	<rect fill="none" width="64" height="64"/>
</g>
<g id="Production">
	<path d="M55.5859,47.4033L36.5933,28.4102c-3.3457,3.774-6.4345,4.9076-7.0793,5.1156c-0.2831,0.0913-0.4472,0.0208-0.5003-0.1036
		c0.6004-0.4884,1.1999-1.0109,1.7959-1.6068c6.6797-6.6797,6.5488-13.7158,0.8525-19.4121
		c-3.6206-3.6225-7.7775-4.9831-12.0398-3.7913c-0.6969,0.1949-0.9539,1.0596-0.4888,1.6139
		c1.5168,1.8075,2.9772,3.5867,3.6644,4.5344c1.0195,1.4052,2.8828,4.0126,1.1474,5.7485l-5.1152,5.1123
		c-1.7354,1.7363-4.1553-0.2632-5.5586-1.2798c-0.9099-0.659-2.5155-2.1062-4.1604-3.6507
		c-0.5546-0.5207-1.4888-0.2625-1.6587,0.479c-0.9334,4.0738,0.4707,8.0345,3.9402,11.5018
		c4.1948,4.1973,9.1194,5.3584,14.0928,3.0164l20.9082,20.9079c2.4472,2.4473,5.3369,1.0186,7.7744-1.4209
		C56.6055,52.7397,58.0342,49.8516,55.5859,47.4033z M49.5,53.075c-1.4224,0-2.575-1.1528-2.575-2.575
		c0-1.4224,1.1526-2.575,2.575-2.575s2.575,1.1526,2.575,2.575C52.075,51.9222,50.9224,53.075,49.5,53.075z"/>
</g>
</svg>
