<?xml version="1.0" encoding="utf-8"?>
<!-- Generator: Adobe Illustrator 21.0.2, SVG Export Plug-In . SVG Version: 6.00 Build 0)  -->
<svg version="1.2" baseProfile="tiny" xmlns="http://www.w3.org/2000/svg" xmlns:xlink="http://www.w3.org/1999/xlink" x="0px"
	 y="0px" width="64px" height="64px" viewBox="0 0 64 64" xml:space="preserve">
<g id="Box">
	<rect fill="none" width="64" height="64"/>
</g>
<g id="Icon">
	<g>
		<path d="M62,16h-2c-0.4-6.3-2.1-9.5-3-10.7C56.9,5.1,56.7,5,56.5,5S56.1,5.1,56,5.3c-0.8,1.1-2.4,3.9-2.9,9.3c1.7,0.3,5,1,5.2,1
			c0.3,0.1,0.3,0.3,0.2,0.4L51,16c-0.7,0-1.2,0.8-0.9,1.4c0.8,1.5,1.9,4.1,1.9,7.6v10h-4c0-8.6-6.8-15.6-15.3-16
			c1.5-0.2,2.6-1.1,3.2-2.4c-0.4,0.2-0.8,0.4-1.2,0.4c-1.7,0.2-3.3-1-3.5-2.7c-0.2-1.6,0.8-3,2.3-3.4c-0.6-0.2-1.2-0.3-1.9-0.2
			c-2.3,0.3-3.9,2.4-3.6,4.7c0.2,1.9,1.7,3.3,3.6,3.6c-8,0.2-14.6,6.3-15.5,14.2c2.3,0.4,6.2,1.2,6.5,1.3c0.4,0.1,0.4,0.4,0.3,0.5
			l-11,0V25c0-3.5,1.1-6.1,1.9-7.6c0.3-0.6-0.1-1.4-0.9-1.4h-2C10.6,9.7,8.9,6.5,8,5.3C7.9,5.1,7.7,5,7.5,5S7.1,5.1,7,5.3
			c-0.8,1.1-2.4,3.9-2.9,9.3c1.7,0.3,5,1,5.2,1c0.3,0.1,0.3,0.3,0.2,0.4L2,16c-0.7,0-1.2,0.8-0.9,1.4C1.9,18.9,3,21.5,3,25v33h21v-9
			c0-5.5,6-8.2,7.6-8.8c0.1-0.1,0.3-0.1,0.4-0.1s0.3,0,0.4,0.1C34,40.9,40,43.6,40,49v9h21V25c0-3.5,1.1-6.1,1.9-7.6
			C63.2,16.8,62.7,16,62,16z"/>
	</g>
</g>
</svg>
