<?xml version="1.0" encoding="utf-8"?>
<!-- Generator: Adobe Illustrator 18.1.0, SVG Export Plug-In . SVG Version: 6.00 Build 0)  -->
<svg version="1.2" baseProfile="tiny" xmlns="http://www.w3.org/2000/svg" xmlns:xlink="http://www.w3.org/1999/xlink" x="0px"
	 y="0px" width="64px" height="64px" viewBox="0 0 64 64" xml:space="preserve">
<g id="Box">
	<rect fill="none" width="64" height="64"/>
</g>
<g id="Icon">
	<g>
		<path d="M40.1382,2.0908c0.8621-0.1725,1.0345-0.2961,1.0345-0.4686s-0.5172-0.3449-1.3794-0.3793
			c0,0-1.3103,0.2069-1.2413,0.7586S39.2761,2.2632,40.1382,2.0908z"/>
		<path d="M27.4993,27.2271l2.9128,1.2896c0.4681,0.2072,1.0035,0.2143,1.4688,0.0005c1.3253-0.6087,3.1702-1.6873,3.8831-2.9932
			c0.137-0.2514,0.1719-0.546,0.1626-0.8322c-0.009-0.2719-0.0287-0.5405-0.0569-0.7916c-0.0966-0.8617-0.7981-1.5347-1.6633-1.5929
			c-0.4968-0.0334-1.0942-0.048-1.729-0.0396c-0.4778,0.0063-0.9375,0.1944-1.2756,0.5324l-3.7024,3.7024V27.2271z"/>
		<path d="M21.9314,13.8636c0.3103,0.0345,1.2413-0.9655,1.4827-1.2069c0.2415-0.2414,0.2207-1.7277,0-2.0345
			c-0.2207-0.3068-0.3953-0.7362-0.8528-0.5577c-0.4575,0.1783-1.6644,2.8902-1.5955,3.224
			C21.0347,13.6222,21.621,13.8291,21.9314,13.8636z"/>
		<path d="M35.0267,3.0834c0.6552-0.1217,1.8011-0.0822,1.7666-0.7393c0,0-0.0345-0.4802-2.1034-0.1184
			c-2.069,0.3618-2.3447,0.3374-2.3447,0.8241C32.3452,3.5366,34.3716,3.2051,35.0267,3.0834z"/>
		<path d="M28.1113,5.274c0,0,1.3861-0.8743,2.4913-0.859c1.1051,0.0152,0.6276-0.8809,0.6276-0.8809s-0.7588-0.7661-3.009,0.6445
			c-2.2505,1.4105-1.6565,1.5762-1.6177,1.6705C26.6421,5.9433,27.2783,5.9504,28.1113,5.274z"/>
		<path d="M24.9758,8.22c0.3103-0.5861,1.2026-0.7554,0.8175-1.253c0,0-0.8275-0.2069-1.5862,0.6552s-1.2413,1.2759-0.931,1.7241
			C23.5864,9.7946,24.6655,8.8063,24.9758,8.22z"/>
		<path d="M11.7659,41.4135l1.5734,1.4778c0.3575,0.3358,0.8933,0.3963,1.3168,0.1487l0.4547-0.266
			c0.3854-0.2254,0.4928-0.5579,0.1774-0.8738l-3.5142-2.3345c-0.0747-0.0497-0.1597-0.0803-0.2494-0.0774
			c-0.5614,0.0178-2.4419-0.0002-2.4419,1.24l1.7373,0.2348C11.1429,41.1169,11.4429,41.2596,11.7659,41.4135z"/>
		<path d="M10.2794,43.7348l0.5177,0.3246c0.6409,0.402,1.4521,0.4144,2.105,0.0322l0.0109-0.0063l-1.7175-1.3916
			c-0.3278-0.2656-0.725-0.4314-1.1442-0.4778l-1.7877-0.1979c-0.2627-0.0291-0.5278,0.0748-0.6901,0.2835
			c-0.2607,0.3356-0.4957,0.6827-0.6995,1.0368l2.3878,0.0843C9.6226,43.4353,9.9736,43.543,10.2794,43.7348z"/>
		<path d="M14.0413,50.8656l-1.5396-0.6722c-0.1155-0.0505-0.2495-0.0302-0.345,0.0522l-1.2664,1.0942
			c-0.1106,0.0956-0.2714,0.1062-0.3936,0.0259L8.313,49.9311c-0.1823-0.1198-0.4163-0.1268-0.6055-0.0184L7.1716,50.22
			c-0.1991,0.1141-0.4468,0.0998-0.6313-0.0363l-1.942-1.4329c-0.1708-0.1259-0.4125-0.0794-0.5243,0.1008l-1.4858,2.3953
			c-0.0718,0.1156-0.0645,0.2635,0.0183,0.3716l0.8289,0.9143c0.101,0.1318,0.2529,0.2139,0.4185,0.2254
			c0,0,1.6621,0.435,1.8809,0.1381c0.2188-0.2969,0.2656-1.125,0.2656-1.125l1.2593,0.0534c0.0652-0.007,0.1311,0.0059,0.189,0.0369
			l3.5153,1.8805c0.1167,0.0625,0.2595,0.0485,0.3618-0.0354l2.7924-2.2881C14.3069,51.2636,14.2654,50.9635,14.0413,50.8656z"/>
		<path d="M49,32.84c0.489,0,1.0129,0.0037,1.55,0.0095c0.0406-0.2725,0.1406-0.5384,0.3511-0.7489l3.7242-3.7242
			c0.24-0.2401,0.3749-0.5657,0.3749-0.9052v-2.1893c0-0.7072-0.5732-1.2804-1.2803-1.2804h-2.7969
			c-0.551,0-1.0403-0.3526-1.2146-0.8755l-0.399-1.1967c-0.1825-0.5478,0.024-1.1499,0.5044-1.4702l4.2085-2.8057
			c0.611-0.4073,0.9779-1.093,0.9779-1.8274V9.0397c0-1.2791-0.6177-2.4795-1.6584-3.2229l-3.9163-2.7973
			c-0.8966-0.6405-2.0436-0.8186-3.0923-0.4803L31.9717,7.1719c-0.4668,0.1506-0.8064,0.5545-0.8748,1.0401l-0.948,6.7335
			c-0.0862,0.6118,0.2767,1.1977,0.8628,1.3931l1.113,0.3712c0.5229,0.1743,0.8755,0.6636,0.8755,1.2147v2.0169
			c0,0.4498,0.3557,0.8161,0.8049,0.8368c1.1953,0.0548,2.3047,0.2383,2.7595,0.6932c0.7637,0.7626,0.8252,3.2722,0.8284,3.899
			c-0.015,0.0927-0.0298,0.1826-0.0449,0.2753c-0.8862,2.4669-4.6134,4.5237-5.8638,5.1556
			c-0.2518,0.1273-0.5493,0.1219-0.7949-0.0172L26.601,28.47c-0.3657-0.162-0.6017-0.5243-0.6014-0.9243l0.0007-2.8303v-1.8408
			c0-0.5304,0.314-1.0105,0.8-1.2231l0.0251-0.0111c0.6565-0.2871,0.9691-1.0412,0.7086-1.7086l-1.2158-3.1155
			c-0.1918-0.4913-0.6652-0.8148-1.1927-0.8148c-1.7158,0-1.8748,0.138-2.8721-0.4116c-0.683-0.3763-1.541-0.0597-1.8159,0.67
			c-0.275,0.7298-0.4363,7.4289-1.7454,11.0946c-1.7686,4.9517-5.479,8.082-5.479,8.082c-0.0859,0.2282-0.146,0.4633-0.1799,0.705
			c-0.0427,0.3033-0.1016,0.7319-0.1534,1.0735c-0.0537,0.3544,0.0648,0.7103,0.3206,0.9616
			c0.9528,0.9362,3.1849,3.1546,3.1849,3.1546c0.7756,0.7775,0.6077,2.0782-0.3401,2.6331l-2.3855,1.3965
			c-0.2439,0.1428-0.2623,0.4884-0.0352,0.6567c1.1444,0.8478,2.1272,1.5759,2.2036,1.633
			c0.1895,0.1413,0.0564,0.5677,0.0564,0.5677l-4.5237-2.5077c-0.896-0.5205-1.9365-0.8111-2.9724-0.7868
			c0,0-5.2648,0.4083-3.8815,1.7916c0.6989,0.6371,2.1001,2.2563,2.5692,2.0986c0.3127-0.1051,0.7188-0.4419,0.7188-0.4419
			l3.0383,1.7202c0.2295,0.0952,0.2324-0.3165,0.4583-0.7211c0.2258-0.4047,0.7202-0.5746,1.1484-0.3973
			c0,0,3.3572,1.4636,3.9159,1.6204c0.4348,0.122,0.8163,0.0463,1.1488-0.3494c0.2905-0.3457,1.054-1.581,1.054-1.581
			c0.2705-0.4055,0.7478-0.6224,1.2312-0.5593l6.8881,0.9c0.3878,0.0506,0.7313,0.2759,0.9324,0.6115
			c0.4862,1.0012,0.6556,1.2433,1.2111,1.5485c0.1208,0.0665,2.137,0.9297,4.0762,1.7566C32.8549,51.535,32.8401,50.1829,32.8401,49
			c0-3.2396,0.1061-7.7383,0.6117-10.7725c0.4069-2.4482,2.3256-4.3672,4.774-4.7753C41.2615,32.9462,45.7603,32.84,49,32.84z"/>
		<path d="M55.5903,48.5804l-1.6948,0.4708c-0.3684,0.1418-0.647,0.4298-0.7656,0.7913l-0.2323,0.8627
			c-0.0309,0.1144,0.0721,0.228,0.1971,0.2175l2.0936-0.1674c0.5673-0.0453,0.9147-0.4979,1.0187-0.9943l0.0864-0.5997
			C56.3467,48.7906,55.9658,48.4758,55.5903,48.5804z"/>
		<path d="M44.1044,49.0512l-1.6947-0.4708c-0.3755-0.1045-0.7563,0.2102-0.7031,0.5811l0.0864,0.5997
			c0.104,0.4963,0.4514,0.949,1.0187,0.9943l2.0936,0.1674c0.125,0.0104,0.228-0.1031,0.1971-0.2175l-0.2323-0.8627
			C44.7515,49.4811,44.4729,49.1931,44.1044,49.0512z"/>
		<path d="M54.1022,46.6731c-0.2052-1.0001-0.2844-1.6051-1.1256-3.5076C52.415,43.0972,51.1729,43,49,43
			s-3.416,0.0972-3.9766,0.1655c-0.8406,1.8998-0.9204,2.5076-1.1256,3.5076C45.1538,46.8723,47.1453,47,49,47
			S52.8461,46.8723,54.1022,46.6731z"/>
		<path d="M61.4351,38.826c-0.1951-1.1728-1.0874-2.0651-2.2607-2.2607C55.7828,36,50.1301,36,49,36s-6.7827,0-10.1742,0.5653
			c-1.1735,0.1956-2.0658,1.0879-2.2607,2.2607C36,42.2173,36,47.8696,36,49c0,1.1303,0,6.7827,0.5651,10.174
			c0.1949,1.1729,1.0873,2.0651,2.2607,2.2607C42.2173,62,47.8699,62,49,62s6.7828,0,10.1743-0.5654
			c1.1733-0.1956,2.0657-1.0878,2.2607-2.2607C62,55.7827,62,50.1303,62,49C62,45.607,62,42.2173,61.4351,38.826z M58,53.5111
			c0,0-0.0555,1.1964-0.2227,1.9927C57.7163,55.7937,57.3921,56,57.0825,56h-2.2983c-0.3097,0-0.5784-0.3174-0.6392-0.6073
			C54.0518,54.9481,53.9949,55,53.9766,54h-9.9308c-0.0182,1-0.0975,0.9481-0.1908,1.3927C43.7942,55.6826,43.5255,56,43.2158,56
			h-2.2983c-0.3096,0-0.6338-0.2063-0.6948-0.4962C40.0555,54.7075,40,53.5111,40,53.5111s0-2.1556,0-4.0889
			c0-1.4964,0.2576-2.127,0.9456-3.0528c-0.4219-0.2897-0.6938-0.6363-0.7688-0.808c-0.157-0.3592-0.0537-0.9792,0.5461-1.0953
			c0.2655-0.0515,0.8311-0.0031,1.2749,0.0598c0.3438-1.2393,0.9351-2.4353,1.292-2.7925c0.4849-0.4855,3.0979-0.7817,5.7107-0.7839
			c2.6211-0.0023,5.2419,0.2908,5.7141,0.7839c0.3492,0.3646,0.9512,1.5533,1.2949,2.7925c0.444-0.0629,1.0161-0.1113,1.2816-0.0598
			c0.5999,0.1161,0.7169,0.7361,0.5599,1.0953c-0.0748,0.1717-0.3748,0.5182-0.7966,0.808C57.7424,47.2953,58,47.9258,58,49.4222
			C58,51.3555,58,53.5111,58,53.5111z"/>
		<rect x="47" y="52" width="4" height="1"/>
	</g>
</g>
</svg>
