<?xml version="1.0" encoding="utf-8"?>
<!-- Generator: Adobe Illustrator 17.1.0, SVG Export Plug-In . SVG Version: 6.00 Build 0)  -->
<svg version="1.2" baseProfile="tiny" xmlns="http://www.w3.org/2000/svg" xmlns:xlink="http://www.w3.org/1999/xlink" x="0px"
	 y="0px" width="64px" height="64px" viewBox="0 0 64 64" xml:space="preserve">
<g id="_x36_4px_Boxes">
	<rect fill="none" width="64" height="64"/>
</g>
<g id="Icon">
	<g>
		<path d="M42.1379,2.0908C43,1.9183,43.1725,1.7946,43.1725,1.6222s-0.5173-0.3448-1.3793-0.3793c0,0-1.3103,0.2068-1.2414,0.7586
			C40.6207,2.5532,41.2758,2.2632,42.1379,2.0908z"/>
		<path d="M29.4991,27.2271l2.9127,1.2896c0.4682,0.2073,1.0036,0.2143,1.4689,0.0005c1.3253-0.6087,3.17-1.6872,3.8829-2.9932
			c0.1371-0.2513,0.1721-0.546,0.1626-0.8322c-0.0089-0.272-0.0286-0.5405-0.0568-0.7916c-0.0966-0.8618-0.7982-1.5347-1.6633-1.593
			c-0.4968-0.0334-1.0943-0.0479-1.7289-0.0396c-0.478,0.0063-0.9377,0.1944-1.2757,0.5324l-3.7024,3.7024V27.2271z"/>
		<path d="M23.9311,13.8636c0.3104,0.0345,1.2414-0.9655,1.4828-1.2069c0.2413-0.2414,0.2206-1.7277,0-2.0345
			c-0.2207-0.3068-0.3953-0.7362-0.8528-0.5577c-0.4575,0.1785-1.6644,2.8903-1.5955,3.224S23.6207,13.8291,23.9311,13.8636z"/>
		<path d="M37.0265,3.0834c0.6552-0.1217,1.8011-0.0823,1.7666-0.7393c0,0-0.0345-0.4802-2.1035-0.1184
			c-2.069,0.3618-2.3448,0.3374-2.3448,0.8241C34.3449,3.5366,36.3713,3.2051,37.0265,3.0834z"/>
		<path d="M30.1111,5.274c0,0,1.3861-0.8743,2.4913-0.8591c1.1052,0.0152,0.6275-0.8809,0.6275-0.8809s-0.7587-0.7661-3.009,0.6445
			c-2.2504,1.4105-1.6563,1.5762-1.6177,1.6705C28.6419,5.9433,29.278,5.9504,30.1111,5.274z"/>
		<path d="M26.9756,8.22c0.3104-0.5862,1.2027-0.7554,0.8176-1.253c0,0-0.8276-0.2069-1.5862,0.6552s-1.2414,1.2759-0.931,1.7241
			C25.5862,9.7946,26.6652,8.8063,26.9756,8.22z"/>
		<path d="M13.7657,41.4135l1.5732,1.4778c0.3575,0.3358,0.8934,0.3963,1.3168,0.1487l0.4548-0.266
			c0.3854-0.2254,0.4927-0.5579,0.1774-0.8738l-3.5142-2.3345c-0.0748-0.0497-0.1596-0.0803-0.2495-0.0775
			c-0.5613,0.0178-2.4418-0.0002-2.4418,1.24l1.7372,0.2349C13.1427,41.1169,13.4427,41.2596,13.7657,41.4135z"/>
		<path d="M12.2792,43.7348l0.5177,0.3246c0.6409,0.402,1.4521,0.4144,2.105,0.0321l0.0107-0.0063l-1.7175-1.3916
			c-0.3278-0.2656-0.7249-0.4314-1.1442-0.4778l-1.7878-0.1979c-0.2627-0.0291-0.5278,0.0748-0.6899,0.2835
			c-0.2608,0.3356-0.4958,0.6827-0.6996,1.0368l2.3879,0.0844C11.6224,43.4353,11.9734,43.543,12.2792,43.7348z"/>
		<path d="M51.8136,20.4591l4.2084-2.8057C56.633,17.2461,57,16.5604,57,15.826V9.0397c0-1.2791-0.6177-2.4795-1.6586-3.223
			l-3.9161-2.7972c-0.8967-0.6405-2.0436-0.8187-3.0923-0.4803L33.9714,7.1719c-0.4667,0.1506-0.8064,0.5544-0.8748,1.04
			l-0.948,6.7335c-0.0861,0.6118,0.2768,1.1978,0.8629,1.3931l1.113,0.371C34.6474,16.884,35,17.3733,35,17.9244v2.0169
			c0,0.4497,0.3557,0.8161,0.8049,0.8367c1.1953,0.0549,2.3047,0.2383,2.7596,0.6932c0.7636,0.7627,0.8251,3.2722,0.8284,3.899
			c-0.0151,0.0927-0.0298,0.1826-0.045,0.2753c-0.8862,2.4669-4.6135,4.5237-5.8638,5.1556
			c-0.2519,0.1273-0.5494,0.1219-0.795-0.0172L28.6007,28.47c-0.3657-0.1619-0.6016-0.5243-0.6014-0.9243L28,24.7154v-1.8408
			c0-0.5304,0.314-1.0105,0.7999-1.2231l0.0253-0.011c0.6564-0.2872,0.9691-1.0412,0.7086-1.7086l-1.2158-3.1155
			c-0.1918-0.4913-0.6652-0.8148-1.1927-0.8148c-1.7159,0-1.8749,0.1379-2.8721-0.4116c-0.683-0.3763-1.5411-0.0598-1.816,0.67
			s-0.4362,7.4288-1.7454,11.0945c-1.7684,4.9517-5.4789,8.082-5.4789,8.082c-0.086,0.2283-0.1461,0.4634-0.18,0.705
			c-0.0426,0.3034-0.1016,0.7319-0.1534,1.0735c-0.0538,0.3544,0.0649,0.7103,0.3206,0.9616
			c0.9528,0.9362,3.1849,3.1547,3.1849,3.1547c0.7757,0.7775,0.6077,2.0782-0.3401,2.6331l-2.3856,1.3965
			c-0.2438,0.1428-0.2623,0.4884-0.0352,0.6566c1.1445,0.8478,2.1273,1.5759,2.2037,1.633
			c0.1895,0.1414,0.0565,0.5679,0.0565,0.5679l-4.5237-2.5078c-0.896-0.5205-1.9365-0.811-2.9725-0.7867
			c0,0-5.2647,0.4083-3.8814,1.7916c0.6989,0.6371,2.1001,2.2563,2.5693,2.0986c0.3127-0.1052,0.7187-0.442,0.7187-0.442
			l3.0384,1.7203c0.2295,0.0952,0.2324-0.3165,0.4582-0.7212s0.7203-0.5745,1.1484-0.3973c0,0,3.3572,1.4636,3.9159,1.6204
			c0.4348,0.122,0.8163,0.0463,1.1489-0.3494c0.2905-0.3457,1.054-1.5809,1.054-1.5809c0.2704-0.4056,0.7477-0.6224,1.2311-0.5593
			l6.8881,0.9c0.3879,0.0507,0.7313,0.2759,0.9324,0.6115c0.4861,1.0012,0.6556,1.2433,1.211,1.5485
			c0.2361,0.1298,7.7007,3.2988,7.7007,3.2988c0.6032,0.2584,0.9133,0.931,0.7182,1.5576l-1.1208,3.5984
			c0.0005,0.2609,0.0009,0.504,0.0014,0.765l0.5424,1.7198c0.1685,0.5343,0.6647,0.8972,1.225,0.8958l3.835-0.0092
			C44.4287,62.9891,45,62.4164,45,61.7106c-0.2503-0.4178-1.294-2.4062-1.5354-2.5269l-0.5844-0.2922
			c-0.4338-0.2169-0.7078-0.6603-0.7078-1.1453v-0.6783c0-0.3395,0.1349-0.6651,0.3749-0.9052l2.239-1.9477
			c0.1045-0.1691,0.2048-0.3314,0.3093-0.5005l1.7157-5.1472c0.1196-0.3588,0.0745-0.752-0.1233-1.0743l-4.23-6.8954
			c-0.2198-0.3583-0.2497-0.8016-0.08-1.1862l0.2303-0.522c0.2316-0.525,0.7843-0.8318,1.3524-0.7507l5.4056,0.7722
			c0.3989,0.057,0.8014-0.0771,1.0864-0.3621l2.563-2.5631c0.5369-0.5368,0.5186-1.4127-0.0401-1.9266l-0.0347-0.0319
			c-0.5587-0.514-0.5769-1.3898-0.0401-1.9266l3.7242-3.7242C56.8651,28.1363,57,27.8107,57,27.4712v-2.1893
			c0-0.7072-0.5732-1.2803-1.2803-1.2803h-2.7968c-0.5511,0-1.0404-0.3527-1.2147-0.8755l-0.399-1.1968
			C51.1267,21.3815,51.3333,20.7794,51.8136,20.4591z"/>
		<path d="M16.0411,50.8656l-1.5397-0.6722c-0.1154-0.0504-0.2496-0.03-0.3449,0.0523l-1.2663,1.0942
			c-0.1107,0.0956-0.2714,0.1062-0.3937,0.0259l-2.1838-1.4347c-0.1823-0.1198-0.4163-0.1268-0.6055-0.0184L9.1713,50.22
			c-0.199,0.1141-0.4467,0.0999-0.6313-0.0363l-1.942-1.4329c-0.1707-0.1259-0.4124-0.0794-0.5242,0.1008l-1.4859,2.3953
			c-0.0717,0.1156-0.0645,0.2635,0.0183,0.3715l0.8289,0.9144c0.1009,0.1318,0.2529,0.2138,0.4185,0.2253
			c0,0,1.6621,0.435,1.8809,0.1381S8,51.7713,8,51.7713l1.2592,0.0534c0.0653-0.007,0.1312,0.0059,0.1891,0.0369l3.5153,1.8806
			c0.1167,0.0624,0.2595,0.0485,0.3618-0.0354l2.7922-2.2881C16.3067,51.2636,16.2652,50.9635,16.0411,50.8656z"/>
	</g>
</g>
</svg>
