<?xml version="1.0" encoding="utf-8"?>
<!-- Generator: Adobe Illustrator 19.1.0, SVG Export Plug-In . SVG Version: 6.00 Build 0)  -->
<svg version="1.2" baseProfile="tiny" xmlns="http://www.w3.org/2000/svg" xmlns:xlink="http://www.w3.org/1999/xlink" x="0px"
	 y="0px" width="64px" height="64px" viewBox="0 0 64 64" xml:space="preserve">
<g id="_x36_4px_Box">
	<rect fill="none" width="64" height="64"/>
</g>
<g id="Icon">
	<g>
		<path d="M23.4009,53.1793L20,55.111V48h-4v7.1129l-3.4162-1.9336c-0.5741-0.3274-1.3104-0.2021-1.7413,0.2988
			c-0.4315,0.5009-0.4546,1.2377-0.0448,1.7558l6.1073,7.7409c0.2617,0.3318,0.6589,0.5252,1.0815,0.5252
			s0.8196-0.1934,1.0814-0.5252l6.1107-7.7409c0.4077-0.5156,0.3942-1.2537-0.0383-1.7558
			C24.7093,52.9772,23.975,52.8519,23.4009,53.1793z"/>
		<path d="M58.9748,39.9366l-7.7409-6.111c-0.5156-0.4077-1.2537-0.3948-1.7558,0.0377c-0.5009,0.4309-0.6262,1.1639-0.2988,1.738
			L51.111,39H44v4h7.1129l-1.9336,3.4185c-0.3274,0.5741-0.2021,1.3127,0.2988,1.7437c0.5009,0.4315,1.2377,0.4546,1.7558,0.0448
			l7.7409-6.1074c0.3318-0.2617,0.5252-0.659,0.5252-1.0815S59.3066,40.1984,58.9748,39.9366z"/>
		<path d="M34.7374,1.8517c0.7644-0.1529,0.9173-0.2626,0.9173-0.4155S35.196,1.1305,34.4317,1.1c0,0-1.1618,0.1834-1.1007,0.6727
			C33.3922,2.2618,33.973,2.0046,34.7374,1.8517z"/>
		<path d="M23.5311,24.139l2.5826,1.1434c0.4151,0.1838,0.8898,0.19,1.3024,0.0005c1.175-0.5397,2.8107-1.496,3.4428-2.654
			c0.1216-0.2228,0.1525-0.4841,0.1442-0.7378c-0.0079-0.2411-0.0253-0.4792-0.0504-0.7019
			c-0.0856-0.7641-0.7076-1.3608-1.4748-1.4124c-0.4404-0.0296-0.9702-0.0425-1.533-0.035
			c-0.4238,0.0056-0.8314,0.1724-1.1311,0.472l-3.2827,3.2827V24.139z"/>
		<path d="M18.5942,12.2902c0.2752,0.0306,1.1007-0.8561,1.3147-1.0701s0.1957-1.5318,0-1.8039
			c-0.1957-0.272-0.3505-0.6527-0.7562-0.4945c-0.4056,0.1583-1.4758,2.5627-1.4146,2.8586S18.319,12.2596,18.5942,12.2902z"/>
		<path d="M30.2054,2.7319c0.5809-0.1079,1.5969-0.0729,1.5663-0.6555c0,0-0.0306-0.4258-1.8651-0.105
			c-1.8344,0.3207-2.079,0.2992-2.079,0.7307C27.8277,3.1337,29.6245,2.8398,30.2054,2.7319z"/>
		<path d="M24.0738,4.6742c0,0,1.229-0.7752,2.2089-0.7617c0.9799,0.0134,0.5563-0.7811,0.5563-0.7811s-0.6727-0.6793-2.668,0.5715
			c-1.9952,1.2506-1.4686,1.3975-1.4343,1.4811S23.3351,5.2739,24.0738,4.6742z"/>
		<path d="M21.2936,7.2863c0.2752-0.5197,1.0664-0.6698,0.7249-1.111c0,0-0.7338-0.1835-1.4064,0.5809
			c-0.6727,0.7643-1.1007,1.1312-0.8255,1.5287C20.0618,8.6824,21.0185,7.8061,21.2936,7.2863z"/>
		<path d="M9.5811,36.7173l1.3949,1.3104c0.317,0.2977,0.7921,0.3514,1.1675,0.1318l0.4032-0.2358
			c0.3417-0.1999,0.4369-0.4946,0.1573-0.7748L9.5882,35.079c-0.0663-0.0441-0.1415-0.0712-0.2212-0.0687
			c-0.4977,0.0158-2.165-0.0002-2.165,1.0994l1.5403,0.2083C9.0287,36.4543,9.2947,36.5809,9.5811,36.7173z"/>
		<path d="M8.2631,38.7755l0.459,0.2879c0.5683,0.3564,1.2875,0.3674,1.8665,0.0284l0.0095-0.0056l-1.5228-1.2339
			c-0.2906-0.2355-0.6427-0.3825-1.0145-0.4237l-1.5851-0.1755c-0.2329-0.0258-0.468,0.0663-0.6117,0.2513
			c-0.2313,0.2976-0.4397,0.6054-0.6204,0.9193l2.1172,0.0748C7.6807,38.51,7.9919,38.6055,8.2631,38.7755z"/>
		<path d="M44.3467,30.1965l-0.0308-0.0283c-0.4953-0.4557-0.5115-1.2322-0.0355-1.7082l3.3021-3.3021
			c0.2128-0.2129,0.3324-0.5015,0.3324-0.8026v-1.9412c0-0.627-0.5082-1.1352-1.1352-1.1352h-2.4798
			c-0.4886,0-0.9225-0.3127-1.077-0.7762l-0.3538-1.0612c-0.1619-0.4857,0.0213-1.0195,0.4472-1.3035l3.7314-2.4876
			c0.5417-0.3612,0.8671-0.9692,0.8671-1.6203V8.0131c0-1.1342-0.5477-2.1984-1.4706-2.8577l-3.4722-2.4802
			c-0.795-0.5679-1.812-0.7259-2.7418-0.4259L27.4965,6.357c-0.4138,0.1335-0.715,0.4916-0.7756,0.9221l-0.8406,5.9703
			c-0.0764,0.5424,0.2454,1.062,0.7651,1.2352l0.9869,0.329c0.4636,0.1546,0.7762,0.5884,0.7762,1.0771v1.7883
			c0,0.3987,0.3154,0.7236,0.7136,0.7419c1.0598,0.0486,2.0435,0.2113,2.4468,0.6146c0.6771,0.6762,0.7315,2.9013,0.7345,3.4571
			c-0.0134,0.0822-0.0264,0.1619-0.0399,0.2441c-0.7858,2.1873-4.0906,4.0109-5.1992,4.5712
			c-0.2233,0.1129-0.4871,0.1081-0.7048-0.0152l-3.6251-2.0518c-0.3243-0.1436-0.5334-0.4649-0.5333-0.8195l0.0007-2.5095v-1.6321
			c0-0.4703,0.2784-0.896,0.7092-1.0845l0.0224-0.0098c0.582-0.2546,0.8593-0.9232,0.6283-1.515l-1.078-2.7624
			c-0.17-0.4356-0.5898-0.7225-1.0575-0.7225c-1.5214,0-1.6624,0.1223-2.5466-0.3649c-0.6057-0.3337-1.3664-0.053-1.6102,0.5941
			c-0.2438,0.647-0.3868,6.5868-1.5475,9.837c-1.568,4.3904-4.8579,7.1659-4.8579,7.1659
			c-0.0762,0.2024-0.1295,0.4109-0.1595,0.6251c-0.0378,0.269-0.0901,0.6489-0.136,0.9518
			c-0.0477,0.3143,0.0575,0.6298,0.2842,0.8527c0.8448,0.8301,2.824,2.7971,2.824,2.7971c0.6877,0.6893,0.5388,1.8427-0.3016,2.3346
			l-2.1152,1.2383c-0.2162,0.1266-0.2325,0.433-0.0312,0.5822c1.0148,0.7518,1.8861,1.3973,1.9539,1.4479
			c0.168,0.1253,0.05,0.5035,0.05,0.5035l-4.011-2.2235c-0.7944-0.4615-1.717-0.7191-2.6355-0.6976c0,0-4.668,0.362-3.4415,1.5885
			c0.6196,0.5649,1.8621,2.0006,2.278,1.8608c0.2773-0.0933,0.6373-0.3918,0.6373-0.3918l2.694,1.5253
			c0.2035,0.0844,0.2061-0.2806,0.4062-0.6395c0.2002-0.3588,0.6387-0.5094,1.0182-0.3522c0,0,2.9767,1.2977,3.472,1.4368
			c0.3856,0.1082,0.7238,0.0411,1.0187-0.3098c0.2575-0.3065,0.9344-1.4017,0.9344-1.4017c0.2397-0.3596,0.663-0.5519,1.0916-0.496
			l6.1074,0.798c0.3439,0.0449,0.6484,0.2447,0.8268,0.5422c0.431,0.8878,0.5813,1.1024,1.0737,1.373
			c0.2094,0.1151,6.8278,2.9249,6.8278,2.9249c0.5349,0.2291,0.8098,0.8255,0.6368,1.381l-0.9938,3.1906
			c0.0004,0.2314,0.0008,0.4469,0.0012,0.6783l0.481,1.5249c0.1494,0.4738,0.5894,0.7955,1.0861,0.7943l3.4003-0.0081
			c0.6259-0.0015,1.1324-0.5093,1.1324-1.1351c-0.2219-0.3704-1.1473-2.1334-1.3613-2.2404l-0.5181-0.2591
			c-0.3846-0.1923-0.6276-0.5854-0.6276-1.0154v-0.6014c0-0.3011,0.1196-0.5897,0.3325-0.8026l1.9852-1.7269
			c0.0927-0.1499,0.1816-0.2938,0.2742-0.4438l1.5212-4.5638c0.1061-0.3181,0.066-0.6667-0.1093-0.9526l-3.7505-6.1138
			c-0.1949-0.3177-0.2214-0.7108-0.0709-1.0518l0.2042-0.4628c0.2054-0.4655,0.6954-0.7375,1.1991-0.6656l4.793,0.6847
			c0.3537,0.0505,0.7105-0.0684,0.9632-0.3211l2.2725-2.2726C44.8583,31.4288,44.8421,30.6523,44.3467,30.1965z"/>
		<path d="M11.5986,45.0981l-1.3651-0.5961c-0.1024-0.0447-0.2213-0.0266-0.3058,0.0464l-1.1227,0.9702
			c-0.0982,0.0848-0.2407,0.0942-0.3491,0.0229l-1.9363-1.2721c-0.1616-0.1061-0.3691-0.1124-0.5369-0.0162l-0.4752,0.2724
			c-0.1765,0.1012-0.3961,0.0886-0.5597-0.0322L3.2258,43.223c-0.1513-0.1116-0.3657-0.0704-0.4648,0.0894l-1.3174,2.1238
			c-0.0636,0.1025-0.0571,0.2336,0.0162,0.3294l0.7349,0.8107c0.0894,0.1168,0.2242,0.1896,0.371,0.1998
			c0,0,1.4737,0.3857,1.6677,0.1225s0.2355-0.9975,0.2355-0.9975l1.1165,0.0474c0.0579-0.0062,0.1163,0.0052,0.1677,0.0327
			l3.1168,1.6674c0.1035,0.0554,0.23,0.043,0.3208-0.0314l2.4757-2.0287C11.8341,45.451,11.7973,45.1849,11.5986,45.0981z"/>
	</g>
</g>
</svg>
