<?xml version="1.0" encoding="utf-8"?>
<!-- Generator: Adobe Illustrator 25.0.0, SVG Export Plug-In . SVG Version: 6.00 Build 0)  -->
<svg version="1.1" xmlns="http://www.w3.org/2000/svg" xmlns:xlink="http://www.w3.org/1999/xlink" x="0px" y="0px"
	 viewBox="0 0 64 64" style="enable-background:new 0 0 64 64;" xml:space="preserve">
<style type="text/css">
	.st0{fill:none;}
</style>
<g id="Box">
	<rect class="st0" width="64" height="64"/>
</g>
<g id="Icon">
	<g>
		<path d="M45.258,29.123c-2.603-2.298-2.873-5.163-3.603-8.557L38.848,7.531C38.153,4.304,35.301,2,32,2s-6.153,2.304-6.848,5.531
			l-2.806,13.036c-0.731,3.395-1,6.259-3.604,8.557c-2.324,2.052-6.331,5.288-6.331,8.531c0,6.57,7.1,7.275,11.261,6.855
			c-0.333-3.737-4.465-4.87-5.538-5.412c0.018-0.236,0.21-0.286,0.552-0.25C27.66,39.809,24.69,47.246,32,47.246
			s4.34-7.437,13.313-8.399c0.342-0.037,0.535,0.013,0.552,0.25c-1.073,0.542-5.205,1.675-5.538,5.412
			c4.161,0.42,11.261-0.286,11.261-6.855C51.589,34.412,47.582,31.176,45.258,29.123z"/>
		<path d="M28.71,52.242c-0.875-1.188-1.78-2.416-2.383-4.081C25.98,47.201,25.312,47,24.812,47c-0.501,0-1.171,0.201-1.518,1.161
			c-0.601,1.659-1.503,2.88-2.375,4.06c-0.973,1.316-1.892,2.56-2.219,4.198c-0.298,1.487,0.097,2.989,1.112,4.227
			c1.19,1.452,3.106,2.354,5,2.354c1.898,0,3.816-0.904,5.007-2.36c1.012-1.238,1.404-2.738,1.103-4.223
			C30.593,54.796,29.678,53.555,28.71,52.242z M28.271,59.374C27.45,60.377,26.125,61,24.812,61c-1.31,0-2.634-0.622-3.454-1.622
			c-0.444-0.542-0.926-1.427-0.698-2.566c0.24-1.2,0.994-2.22,1.867-3.401c0.76-1.028,1.604-2.17,2.283-3.672
			c0.669,1.49,1.523,2.648,2.29,3.689c0.869,1.18,1.62,2.199,1.861,3.386C29.192,57.949,28.713,58.833,28.271,59.374z"/>
	</g>
</g>
</svg>
