<?xml version="1.0" encoding="utf-8"?>
<!-- Generator: Adobe Illustrator 19.1.0, SVG Export Plug-In . SVG Version: 6.00 Build 0)  -->
<svg version="1.2" baseProfile="tiny" xmlns="http://www.w3.org/2000/svg" xmlns:xlink="http://www.w3.org/1999/xlink" x="0px"
	 y="0px" width="64px" height="64px" viewBox="0 0 64 64" xml:space="preserve">
<g id="Box">
	<rect fill="none" width="64" height="64"/>
</g>
<g id="Icon">
	<g>
		<path d="M13.8965,21.1921L14.4991,23l0.6026-1.8079c1.037-3.1111,3.4784-5.5525,6.5895-6.5895L23.4991,14l-1.8079-0.6026
			c-3.1111-1.037-5.5525-3.4784-6.5895-6.5895L14.4991,5l-0.6026,1.8079c-1.037,3.1111-3.4784,5.5525-6.5895,6.5895L5.4991,14
			l1.8079,0.6026C10.4181,15.6396,12.8594,18.081,13.8965,21.1921z"/>
		<path d="M55,7H17.3294c0.9639,2.1085,2.7763,3.7607,4.9943,4.5l1.5,0.5H52v27H12V21.8276l-0.001-0.0029
			C11.2026,19.4356,9.3445,17.5239,7,16.6302V43.99c0,1.1045,0.8955,2,2,2h16.5c0,0-0.5342,1.9412-1.5,5.01
			c-0.5779,1.8373-2.3791,1.992-2.8691,2H19c-0.5527,0-1,0.4478-1,1v2h28v-2c0-0.5522-0.4473-1-1-1h-2.1309
			c-0.49-0.008-2.2912-0.1627-2.8691-2c-0.3881-1.233-0.7027-2.2706-0.9447-3.0848c0,0-4.4024-0.6397-8.9772-1.5323
			c-0.3203-0.0625-0.2812-0.2969-0.2443-0.3828H55c1.1045,0,2-0.8955,2-2V9C57,7.8955,56.1045,7,55,7z"/>
		<path d="M11.6686,7H9C7.8955,7,7,7.8955,7,9v2.3698C9.0673,10.5817,10.7532,9.0026,11.6686,7z"/>
		<path d="M18.89,24.6667l1.4838,0.4946c1.6359,0.5453,2.9196,1.829,3.4649,3.4649l0.4946,1.4838l0.4946-1.4838
			c0.5453-1.6359,1.829-2.9196,3.4649-3.4649l1.4838-0.4946l-1.4838-0.4946c-1.6359-0.5453-2.9196-1.829-3.4649-3.4649
			l-0.4946-1.4838l-0.4946,1.4838c-0.5453,1.6359-1.829,2.9196-3.4649,3.4649L18.89,24.6667z"/>
	</g>
</g>
</svg>
