<?xml version="1.0" encoding="utf-8"?>

<!DOCTYPE svg PUBLIC "-//W3C//DTD SVG 1.1//EN" "http://www.w3.org/Graphics/SVG/1.1/DTD/svg11.dtd">
<svg version="1.1" xmlns="http://www.w3.org/2000/svg" xmlns:xlink="http://www.w3.org/1999/xlink" x="0px" y="0px" width="24px"
	 height="24px" viewBox="0 0 24 24" style="enable-background:new 0 0 24 24;" xml:space="preserve">
<style type="text/css">
	.st0{fill:none;}
	.st1{fill:#39870C;}
	.st2{fill:#D52B1E;}
	.st3{display:none;}
	.st4{display:none;fill:#FFFFFF;}
</style>
<g id="box">
	<g>
		<rect class="st0" width="24" height="24"/>
	</g>
</g>
<g id="icon">
	<g>
		<path d="M23,2H6C5.4,2,5,2.4,5,3v5H1.8C1.6,8,1.3,8.1,1.1,8.3C0.9,8.6,0.8,8.8,0.8,9.1l1,7.3C2.3,20.2,4.3,21,6,21h12
			c3.3,0,6-2.7,6-6V3C24,2.4,23.6,2,23,2z M22,15c0,2.2-1.8,4-4,4H5.6C6.3,18.2,7,16.9,7,15C7,12.9,7,4,7,4h15V15z"/>
		<rect x="9" y="7" width="11" height="2"/>
		<rect x="9" y="11" width="5" height="1"/>
		<rect x="9" y="13" width="5" height="1"/>
		<rect x="9" y="15" width="5" height="1"/>
		<path d="M15,16h3.3c0.9,0,1.7-0.8,1.7-1.7V11h-5V16z"/>
	</g>
</g>
</svg>
