<svg enable-background="new 0 0 64 64" viewBox="0 0 64 64" xmlns="http://www.w3.org/2000/svg"><path d="m0 0h64v64h-64z" fill="none"/><path d="m43.6 7.8c-7.7-1.1-15.4-1.1-23.1 0-2 .3-3.5 2.1-3.5 4v40.3c0 1.9 1.6 3.7 3.6 4 7.7 1.1 15.3 1.1 23 0 2-.3 3.4-2.1 3.4-4 0-13.4 0-26.9 0-40.3 0-1.8-1.4-3.7-3.4-4zm-11.6 46.3c-1.5 0-2.6-1.2-2.6-2.6 0-1.5 1.2-2.7 2.6-2.7s2.6 1.2 2.6 2.7-1.1 2.6-2.6 2.6zm11-8.1h-22v-32h22z"/><path d="m15.1 25.5-2.3-3.3c-2.6 1.9-4.3 4.9-4.3 8.3s1.7 6.4 4.3 8.3l2.3-3.3c-1.5-1.1-2.6-3-2.6-5s1-3.9 2.6-5z"/><path d="m4.5 30.5c0-4.8 2.4-9 5.9-11.6l-2.3-3.3c-4.6 3.4-7.6 8.8-7.6 14.9s3 11.5 7.6 14.8l2.3-3.3c-3.5-2.5-5.9-6.7-5.9-11.5z"/><path d="m51.2 22.2-2.3 3.3c1.5 1.1 2.6 3 2.6 5s-1 3.9-2.6 5l2.3 3.3c2.6-1.9 4.3-4.9 4.3-8.3s-1.7-6.4-4.3-8.3z"/><path d="m55.9 15.7-2.3 3.3c3.6 2.6 5.9 6.8 5.9 11.6s-2.4 9-5.9 11.6l2.3 3.3c4.6-3.3 7.6-8.7 7.6-14.8s-3-11.7-7.6-15z"/><path d="m27.3 28.3 2.3 6.7h3.3v-10h-2.2v6.7l-2.3-6.7h-3.3v10h2.2z"/><path d="m40 33h-3.2v-8h-2.4v10h5.6z"/></svg>