<?xml version="1.0" encoding="utf-8"?>
<!-- Generator: Adobe Illustrator 24.0.1, SVG Export Plug-In . SVG Version: 6.00 Build 0)  -->
<svg version="1.1" xmlns="http://www.w3.org/2000/svg" xmlns:xlink="http://www.w3.org/1999/xlink" x="0px" y="0px"
	 viewBox="0 0 64 64" style="enable-background:new 0 0 64 64;" xml:space="preserve">
<style type="text/css">
	.st0{fill:none;}
	.st1{fill:#FF1D25;}
	.st2{fill:#1D1D1B;}
</style>
<g id="Box">
	<rect class="st0" width="64" height="64"/>
</g>
<g id="Icon">
	<g>
		<path d="M43.6,7.8c-7.7-1.1-15.4-1.1-23.1,0c-2,0.3-3.5,2.1-3.5,4c0,13.4,0,26.9,0,40.3c0,1.9,1.6,3.7,3.6,4
			c7.7,1.1,15.3,1.1,23,0c2-0.3,3.4-2.1,3.4-4c0-13.4,0-26.9,0-40.3C47,10,45.6,8.1,43.6,7.8z M32,54.1c-1.5,0-2.6-1.2-2.6-2.6
			c0-1.5,1.2-2.7,2.6-2.7s2.6,1.2,2.6,2.7C34.6,53,33.5,54.1,32,54.1z M43,46H21V14h22V46z"/>
		<path d="M15.1,25.5l-2.3-3.3c-2.6,1.9-4.3,4.9-4.3,8.3s1.7,6.4,4.3,8.3l2.3-3.3c-1.5-1.1-2.6-3-2.6-5S13.5,26.6,15.1,25.5z"/>
		<path d="M4.5,30.5c0-4.8,2.4-9,5.9-11.6l-2.3-3.3C3.5,19,0.5,24.4,0.5,30.5s3,11.5,7.6,14.8l2.3-3.3C6.9,39.5,4.5,35.3,4.5,30.5z"
			/>
		<path d="M51.2,22.2l-2.3,3.3c1.5,1.1,2.6,3,2.6,5s-1,3.9-2.6,5l2.3,3.3c2.6-1.9,4.3-4.9,4.3-8.3S53.8,24.1,51.2,22.2z"/>
		<path d="M55.9,15.7l-2.3,3.3c3.6,2.6,5.9,6.8,5.9,11.6s-2.4,9-5.9,11.6l2.3,3.3c4.6-3.3,7.6-8.7,7.6-14.8S60.5,19,55.9,15.7z"/>
		<polygon points="27.3,28.3 29.6,35 32.9,35 32.9,25 30.7,25 30.7,31.7 28.4,25 25.1,25 25.1,35 27.3,35 		"/>
		<polygon points="40,33 36.8,33 36.8,25 34.4,25 34.4,35 40,35 		"/>
	</g>
</g>
</svg>
