<?xml version="1.0" encoding="utf-8"?>
<!-- Generator: Adobe Illustrator 24.0.1, SVG Export Plug-In . SVG Version: 6.00 Build 0)  -->
<svg version="1.1" xmlns="http://www.w3.org/2000/svg" xmlns:xlink="http://www.w3.org/1999/xlink" x="0px" y="0px"
	 viewBox="0 0 64 64" style="enable-background:new 0 0 64 64;" xml:space="preserve">
<style type="text/css">
	.st0{fill:none;}
	.st1{fill:#FF1D25;}
	.st2{fill:#1D1D1B;}
</style>
<g id="Box">
	<rect class="st0" width="64" height="64"/>
</g>
<g id="Icon">
	<g>
		<path d="M22.7,13.9c2.9-0.9,3.9-3.4,3-6.4c-1-3.3-3.3-4.6-6.1-3.7c-3,0.9-3.9,3.5-3,6.5C17.5,13.5,19.8,14.8,22.7,13.9z"/>
		<path d="M51.7,33.2c-1.6-1.3-3-2.4-5-3.8c-1.2-0.8-1.7-0.7-2.5-0.5c-1.4,0.3-5.8,1.4-10.7,3.1c-1.1-3.3-3.1-9-4-12
			c3.5-1.2,7.1-2.9,8.4-3.9c1.8-1.4,3.7-3.4,5.2-5.3l0,0c1.3-1.6,1.5-3.9,0.1-5.5c-0.9,0.8-5.9,5.9-8.4,7.2c-2.3,1.7-8.3,2.8-12.7,4
			c-5,1.3-10,3.5-12.4,3.6c-1.3,0.1-5.5-7.8-6.3-8.7c-1.7,1.3-2,3.7-1.1,5.6l0,0c1.2,2.2,3.4,6.4,5.7,7.2c1.8,0.7,6.4-0.1,10.7-1.4
			c1.3,4.7,3.9,11.9,4.6,13.8c0.8,2.2,2.9,4.1,8.7,2.9c0.1,0.1,0,0.3-0.4,0.5c-0.9,0.5-2.1,0.8-3.8,1.1c2.6,1.8,4.8,3.3,7.7,5.2
			c0.2,3.8,0.5,6.4,1,9.5c0.2,1.5,1.8,4,4.9,4.7c0.1-4,0.2-6.5,0.1-10.5c0-2.1,0-3.9-0.2-6.2c-0.1-1.4-0.5-1.7-1.2-2.2
			c-0.7-0.5-2.2-1.8-4.4-3.3c0,0,5.9-1.8,9.2-2.9c3.1,2.2,5.3,3.6,8,5.2c1.3,0.8,4.3,1.1,6.7-0.9C56.7,37.3,54.8,35.7,51.7,33.2z"/>
		<path d="M16.4,48.6C16.4,48.6,16.4,48.6,16.4,48.6c-0.1-0.3-0.4-0.5-0.7-0.5c0,0,0,0,0,0c0,0,0,0,0,0l-5.8,0l0,0
			c-0.4,0-0.8,0.4-0.7,0.8h0c0,0,0,0,0,0C11.1,57.2,19.1,61.5,33,60C24.5,58.8,18.5,55.4,16.4,48.6z"/>
	</g>
</g>
</svg>
