<?xml version="1.0" encoding="utf-8"?>
<!-- Generator: Adobe Illustrator 18.1.0, SVG Export Plug-In . SVG Version: 6.00 Build 0)  -->
<svg version="1.2" baseProfile="tiny" xmlns="http://www.w3.org/2000/svg" xmlns:xlink="http://www.w3.org/1999/xlink" x="0px"
	 y="0px" width="64px" height="64px" viewBox="0 0 64 64" xml:space="preserve">
<g id="_x36_4px_Boxes">
	<rect fill="none" width="64" height="64"/>
</g>
<g id="Production">
	<path d="M59.1333,28.3261C55.8632,23.0921,47.1462,12,32,12S8.1368,23.0921,4.8667,28.3261c-1.0223,1.6362-1.0223,3.7115,0,5.3477
		C8.1368,38.9079,16.8538,50,32,50s23.8632-11.0921,27.1333-16.3262C60.1556,32.0377,60.1556,29.9623,59.1333,28.3261z M32,20.9
		c3.369,0,6.1,2.7311,6.1,6.1s-2.731,6.1-6.1,6.1s-6.1-2.731-6.1-6.1S28.631,20.9,32,20.9z M32,45C16.6199,45,9.7844,31,9.7844,31
		s3.1024-6.3386,9.8166-10.4856c-0.7806,1.4844-1.3101,3.1151-1.5068,4.8386C17.1279,33.8218,23.7256,41,32,41
		c7.374,0,13.4165-5.7011,13.9602-12.936c0.3626-4.8261-4.0852-7.814-8.4634-10.129c-0.183-0.0968-0.1678-0.2968-0.1642-0.3411
		C48.9703,20.2593,54.2156,31,54.2156,31S47.3801,45,32,45z"/>
</g>
</svg>
