<?xml version="1.0" encoding="utf-8"?>
<!-- Generator: Adobe Illustrator 21.0.2, SVG Export Plug-In . SVG Version: 6.00 Build 0)  -->
<!DOCTYPE svg PUBLIC "-//W3C//DTD SVG 1.1//EN" "http://www.w3.org/Graphics/SVG/1.1/DTD/svg11.dtd">
<svg version="1.1" xmlns="http://www.w3.org/2000/svg" xmlns:xlink="http://www.w3.org/1999/xlink" x="0px" y="0px"
	 viewBox="0 0 64 64" style="enable-background:new 0 0 64 64;" xml:space="preserve">
<style type="text/css">
	.st0{fill:none;}
</style>
<g id="Box">
	<rect class="st0" width="64" height="64"/>
</g>
<g id="Icon">
	<g>
		<g>
			<path d="M52,20.1v-9.6C52,6.9,43,6,32,6s-20,0.9-20,4.5v7.2c4.3,0.8,10.5,1.9,10.7,1.9C23.1,19.7,23,20,23,20l-0.4,0h-9.9
				C8.5,20,5,23.5,5,27.7v18.9C5,56.2,25.7,57,32,57c9,0,27-1.5,27-10.4V27.7C59,23.7,55.9,20.5,52,20.1z M55,46.5
				c0,4.2-11.9,6.5-23,6.5S9,50.8,9,46.5V27.7c0-2,1.7-3.7,3.8-3.7h38.5c2.1,0,3.8,1.7,3.8,3.7V46.5z M32,30.2
				c-5.7,0-11,3.4-14.9,7.6c3.5,5,8.9,9.9,14.9,9.9c6,0,11.4-4.9,14.9-9.9C43,33.7,37.7,30.2,32,30.2z M32,44.8
				c-4.9,0-9.3-4.6-11-6.6c1.3-1.2,4-3.3,7.3-4.3c-0.9,0.9-1.4,2.2-1.4,3.5c0,2.8,2.3,5.1,5.1,5.1s5.1-2.3,5.1-5.1
				c0-1.4-0.6-2.6-1.4-3.5c3.3,1,6,3.1,7.3,4.3C41.3,40.2,36.9,44.8,32,44.8z"/>
		</g>
	</g>
</g>
</svg>
