<?xml version="1.0" encoding="utf-8"?>
<!-- Generator: Adobe Illustrator 19.1.0, SVG Export Plug-In . SVG Version: 6.00 Build 0)  -->
<svg version="1.2" baseProfile="tiny" xmlns="http://www.w3.org/2000/svg" xmlns:xlink="http://www.w3.org/1999/xlink" x="0px"
	 y="0px" width="64px" height="64px" viewBox="0 0 64 64" xml:space="preserve">
<g id="Box">
	<rect fill="none" width="64" height="64"/>
</g>
<g id="Icon">
	<g>
		<path d="M28.8733,25.9265c0.0764,0.0969,0.28,0.2045,0.7812-0.2481c1.36-1.2284,2.1287-3.5127,1.7566-5.754
			c-0.6012-3.6217-3.8408-5.8355-7.3954-4.4738c-3.4219,1.3109-6.7587,6.7018-7.1548,9.022
			c-0.1968,1.1526-0.1882,1.7222,0.4205,2.0714c5.0517,2.8985,2.3284,6.8549,0.6672,8.9579
			c-1.1901,1.5066-1.6566,3.0328,0.0522,4.172c1.2067,0.8045,4.2625,0.1609,6.0566-1.8014
			c3.2037-3.504,3.8915-8.6598-1.4667-14.2839c0.0423-0.0757,0.082-0.1473,0.1251-0.2251c3.0077-5.4349,6.8606-5.2546,6.2271,1.7974
			C28.9116,25.5043,28.8885,25.7584,28.8733,25.9265z"/>
		<path d="M11.1318,21.9237c0.5856-4.827,2.7475-8.9025,6.2239-11.3615c3.553-2.5128,8.1375-3.2857,11.9631-2.0178
			c3.35,1.1104,5.9565,3.5763,7.339,6.5438c1.2758,2.7368,1.4399,5.9886,0.527,9.3178c0.5674-0.1506,1.1542-0.2654,1.7604-0.3318
			c0.6221-0.0669,1.2412,0.0488,1.7881,0.3242c0.5361-0.3213,1.1067-0.6057,1.6979-0.8618
			c0.6152-3.7152,0.2011-7.3467-1.2856-10.5391c-1.9645-4.2162-5.6122-7.3882-10.2703-8.9317
			C27.6336,2.9913,23.812,2.75,20.3942,3.6697C15.0385,5.1108,8.4167,10.3237,8.7596,18.1262
			C8.9484,22.4242,10.8262,22.0185,11.1318,21.9237z"/>
		<path d="M31.3591,37.7155c-0.9709,2.47-1.6079,4.8701-1.6079,7.3265c0,3.5637-1.49,6.2504-4.0829,7.7706
			c-2.6993,1.5822-6.5229,1.6842-9.0956,0.2456c-3.5201-1.97-5.3909-7.9561-5.4633-12.8163
			c-0.4348-0.1077-2.1702-0.2772-2.3497,3.8122c-0.2542,5.7825,1.5469,11.0412,5.396,13.1541
			c4.209,2.3104,9.8263,2.1619,14.0166-0.2953c4.1331-2.4233,6.4489-6.6995,6.4489-12.0405c0-1.2363,0.296-2.541,0.766-3.9174
			C33.726,40.1993,32.3374,39.0747,31.3591,37.7155z"/>
		<path d="M53.2946,29.1963h-2.9353l-0.9952,4.9739C49.2623,34.4874,49.0562,34.441,49,34.4201v-8.9625
			c0-0.6019-0.5182-1.0671-1.1185-1.0226c-3.0073,0.2231-5.7291,1.3419-7.5836,2.9936v-0.1671c0-0.596-0.5204-1.0655-1.1129-1.0005
			c-4.0596,0.4453-7.1905,3.2927-7.1905,6.739s3.1309,6.2937,7.1905,6.739c0.5924,0.0649,1.1129-0.4045,1.1129-1.0005v-0.1672
			c1.8546,1.6517,4.5094,2.7704,7.5167,2.9936c0.6003,0.0446,1.1185-0.4207,1.1185-1.0226v-3.7386h4.3616
			c2.034,0,2.7-1.6489,2.7-3.683v-0.2415C55.9946,30.8452,55.3286,29.1963,53.2946,29.1963z"/>
	</g>
</g>
</svg>
