<?xml version="1.0" encoding="utf-8"?>
<!-- Generator: Adobe Illustrator 25.3.1, SVG Export Plug-In . SVG Version: 6.00 Build 0)  -->
<svg version="1.1" xmlns="http://www.w3.org/2000/svg" xmlns:xlink="http://www.w3.org/1999/xlink" x="0px" y="0px"
	 viewBox="0 0 64 64" style="enable-background:new 0 0 64 64;" xml:space="preserve">
<style type="text/css">
	.st0{fill:none;}
	.st1{fill:#B3B3B3;}
</style>
<g id="Box">
	<rect class="st0" width="64" height="64"/>
</g>
<g id="Icon">
	<g>
		<path d="M38,48H26v4h14c1.104,0,2-0.896,2-2V38.981c-1.123,0.585-2.303,1.339-4,1.845V48z"/>
		<path d="M58.099,34.036c-1.127,0.662-2.904,1.503-5.328,1.137c-1.164-0.174-1.873-0.591-2.77-1.118
			c-1.225-0.72-2.749-1.615-5.428-1.807c-2.847-0.199-4.709,0.824-6.207,1.648c-1.513,0.833-2.668,1.461-4.858,1.136v-0.003
			l2.064-3.311c0.278-0.447,0.209-1.043-0.163-1.404c-0.369-0.36-0.933-0.383-1.329-0.047l-6.954,5.912
			c-0.242,0.207-0.384,0.519-0.384,0.85s0.142,0.643,0.384,0.85l6.954,5.912c0.396,0.336,0.96,0.313,1.329-0.047
			c0.372-0.361,0.441-0.957,0.163-1.404l-2.046-3.281c3.183,0.309,5.144-0.764,6.769-1.659c1.35-0.744,2.326-1.28,3.993-1.162
			c1.745,0.125,2.602,0.628,3.687,1.265c1.777,1.045,3.353,1.76,5.977,1.76c2.113,0,4.147-0.588,6.173-1.778
			c0.952-0.56,1.06-1.699,0.5-2.652C60.066,33.881,59.052,33.479,58.099,34.036z"/>
		<path d="M42,22.791c-0.993,0.54-2.271,1.107-4,1.383v7.418c1.059-0.562,2.359-1.146,4-1.415V22.791z"/>
		<path d="M62.611,19.07l-6.954-5.912c-0.397-0.337-0.961-0.312-1.329,0.047c-0.372,0.361-0.441,0.957-0.163,1.404l2.064,3.311
			v0.004c-2.192,0.326-3.346-0.304-4.858-1.137c-1.498-0.825-3.363-1.852-6.207-1.648c-2.679,0.192-4.203,1.087-5.428,1.807
			c-0.897,0.527-1.606,0.944-2.771,1.118c-2.422,0.362-4.201-0.475-5.328-1.137c-0.952-0.56-1.952-0.129-2.512,0.823
			c-0.56,0.953-0.467,2.066,0.486,2.626c2.026,1.19,4.06,1.778,6.173,1.778c2.561,0,4.156-0.69,5.977-1.76
			c1.085-0.638,1.942-1.141,3.687-1.266c1.667-0.118,2.642,0.418,3.992,1.162c1.626,0.895,3.586,1.968,6.77,1.659l-2.046,3.281
			c-0.278,0.447-0.209,1.043,0.163,1.404c0.369,0.36,0.933,0.383,1.329,0.047l6.954-5.912c0.242-0.206,0.384-0.519,0.384-0.85
			C62.995,19.589,62.853,19.277,62.611,19.07z"/>
		<path d="M22.964,11.164L13.118,6H38v9.403c1.002-0.547,2.144-1.356,4-1.918V4c0-1.104-0.896-2-2-2H5v0.004
			C3.861,2.004,3,2.924,3,4v46.691c0,0.687,0.353,1.326,0.934,1.692l17,11.109c0.618,0.389,1.398,0.409,2.032,0.059
			C23.604,63.199,24,62.529,24,61.8V12.917C24,12.187,23.603,11.516,22.964,11.164z M11.672,52.499L7,49.587V30.404l4.672,2.73
			V52.499z M11.672,29.423L7,26.785V7.382l4.672,2.703V29.423z M19.75,57.533l-5.078-3.165V34.887l5.078,2.968V57.533z
			 M19.75,33.984l-5.078-2.868V11.82l5.078,2.938V33.984z"/>
	</g>
</g>
</svg>
