<?xml version="1.0" encoding="utf-8"?>
<!-- Generator: Adobe Illustrator 21.0.2, SVG Export Plug-In . SVG Version: 6.00 Build 0)  -->
<svg version="1.2" baseProfile="tiny" xmlns="http://www.w3.org/2000/svg" xmlns:xlink="http://www.w3.org/1999/xlink" x="0px"
	 y="0px" width="64px" height="64px" viewBox="0 0 64 64" xml:space="preserve">
<g id="Box">
	<rect fill="none" width="64" height="64"/>
</g>
<g id="Icon">
	<g>
		<path d="M21.6,56l1.2-0.4c0.3-0.1,0.3-0.5,0-0.6l-3.4-1.3c-0.3-0.1-0.5,0.1-0.5,0.3l-0.3,3.6c0,0.3,0.3,0.4,0.5,0.2l0.8-0.8
			c1.7,2.4,3.8,3.5,5.1,3.9v-2.2C24,58.4,22.8,57.5,21.6,56z M48,2H17c-1.1,0-2,0.9-2,2v48h4V6h27l-19,9v47l19-10h4V4
			C50,2.9,49.1,2,48,2z M32.9,37.1c-0.1,1.1-1,1.9-1.9,1.9c-0.9,0-1.6-0.9-1.5-1.9c0.1-1.1,1-1.9,1.9-1.9C32.3,35.1,33,36,32.9,37.1
			z"/>
	</g>
</g>
</svg>
