<?xml version="1.0" encoding="utf-8"?>
<!-- Generator: Adobe Illustrator 19.1.0, SVG Export Plug-In . SVG Version: 6.00 Build 0)  -->
<svg version="1.2" baseProfile="tiny" xmlns="http://www.w3.org/2000/svg" xmlns:xlink="http://www.w3.org/1999/xlink" x="0px"
	 y="0px" width="64px" height="64px" viewBox="0 0 64 64" xml:space="preserve">
<g id="Box">
	<rect fill="none" width="64" height="64"/>
</g>
<g id="Icon">
	<g>
		<polygon points="39.4844,28.1413 43.3485,30.6386 44.8504,28.3163 41.1299,25.9119 43.8934,24.1064 32.0172,21.1981 
			38.4608,30.9599 		"/>
		<path d="M61,7H15c-1.1045,0-2,0.8955-2,2v17.4792c-0.819,10.8347-3.2504,19.4948-9.8213,28.95l-1.7471,2.5142l2.8945-0.998
			c0.0552-0.019,5.6279-1.9082,11.5146-0.958c7.2056,1.1621,11.0425,5.6572,11.0791,5.7007l1.1548,1.3916l0.5649-1.7183
			c0.0192-0.0587,0.7972-2.3755,2.2811-5.3613H52v-2c0-0.5522-0.4473-1-1-1h-2.1309c-0.49-0.008-2.2912-0.1627-2.8691-2
			c-0.3881-1.233-0.7027-2.2706-0.9447-3.0848c0,0-1.6011-0.6397-6.1758-1.5323c-0.3203-0.0625-0.2812-0.2969-0.2443-0.3828H61
			c1.1045,0,2-0.8955,2-2V9C63,7.8955,62.1045,7,61,7z M15.1328,24.5966l1.7946,5.8734
			c-0.9996,7.3464-2.9021,13.7665-5.8248,19.5934l-0.1256,0.2505L7.175,52.9224C12.588,43.9013,14.5286,35.3073,15.1328,24.5966z
			 M21.5227,38.6646l-1.5626-5.1139c3.318,3.3229,7.116,6.3823,10.8533,8.7357l-3.8887,0.3585
			C24.9821,41.4036,23.1642,40.0672,21.5227,38.6646z M25.1641,43.8906c-0.585,0.8003-1.1499,1.6519-1.6895,2.5464
			c-1.0894-0.4238-2.2168-0.7637-3.3687-1.0156c0.5005-1.3838,0.936-2.7881,1.3174-4.2446
			C22.6021,42.1177,23.8535,43.0259,25.1641,43.8906z M23.1617,48.475l0.9355,3.3705c-2.1089-0.9943-4.3862-1.7084-6.8189-2.1009
			c-0.5505-0.0888-1.0983-0.1509-1.644-0.2001l3.3524-2.3C20.4265,47.5092,21.8264,47.9216,23.1617,48.475z M17.9194,45.5508
			l-3.6964,2.536c1.7826-4.11,3.1189-8.5004,4.0298-13.2789l1.4825,4.8519C19.243,41.7119,18.6471,43.6496,17.9194,45.5508z
			 M16.1592,54.0127c-1.3057-0.2104-2.5898-0.2949-3.8086-0.2949c-1.0836,0-2.1051,0.0719-3.0546,0.1754l3.5297-2.4217
			c1.3453-0.0557,2.7308,0.0209,4.1342,0.2478c2.8763,0.4641,5.5117,1.4111,7.8726,2.7756l0.9829,3.5413
			C23.7692,56.5222,20.5533,54.7214,16.1592,54.0127z M26.1054,51.6037L25.036,47.751c0.6592-1.1149,1.3572-2.1582,2.0856-3.1162
			l4.2444-0.3912C28.9666,46.8649,27.2388,49.5441,26.1054,51.6037z M27.8439,57.8675l-0.9493-3.4203l0.0092-0.0194
			c1.0792-2.2795,3.4905-6.631,7.548-10.4686l3.3964-0.313C32.7761,47.5211,29.4424,54.0934,27.8439,57.8675z M34.2174,41.9726
			c-4.1771-2.2973-10.3434-6.7614-15.4581-12.624l-0.1278-0.1465l-1.5057-4.928c3.8806,5.5805,9.0687,9.7972,13.2849,12.6014
			c3.1735,2.1111,6.1,3.6572,8.2534,4.6873L34.2174,41.9726z M58,39H38c-5.5727-2.8602-14.5745-8.4823-20-17V12h40V39z"/>
	</g>
</g>
</svg>
