<?xml version="1.0" encoding="utf-8"?>
<!-- Generator: Adobe Illustrator 19.2.0, SVG Export Plug-In . SVG Version: 6.00 Build 0)  -->
<svg version="1.0" xmlns="http://www.w3.org/2000/svg" xmlns:xlink="http://www.w3.org/1999/xlink" x="0px" y="0px"
	 viewBox="0 0 64 64" enable-background="new 0 0 64 64" xml:space="preserve">
<g id="achtergrond">
</g>
<g id="paneel_1">
	<g>
		<polygon points="8.7011,46.8912 8.6956,54.3611 15.2302,54.3611 15.2302,49.2774 28.6753,49.2774 28.6753,54.3611 
			35.2097,54.3611 35.2097,49.2774 48.77,49.2774 48.77,54.3611 55.3044,54.3611 55.3044,46.8912 		"/>
		<path d="M15.9348,9.6389v13.1356H32.99V9.6389H15.9348z M27.1958,15.7363h-5.4667c-0.5006,0-0.9065-0.4058-0.9065-0.9063
			c0-0.5006,0.4058-0.9064,0.9065-0.9064h5.4667c0.5006,0,0.9065,0.4057,0.9065,0.9064
			C28.1023,15.3304,27.6965,15.7363,27.1958,15.7363z"/>
		<path d="M13.994,24.0725v16.2824H32.99V24.0725H13.994z M26.579,30.5464h-6.1739c-0.5654,0-1.0237-0.4582-1.0237-1.0234
			c0-0.5654,0.4583-1.0237,1.0237-1.0237h6.1739c0.5654,0,1.0237,0.4583,1.0237,1.0237
			C27.6027,30.0882,27.1444,30.5464,26.579,30.5464z"/>
		<path d="M34.7598,28.1178v12.2371h15.2025V28.1178H34.7598z M44.7378,33.0017h-4.7528c-0.4353,0-0.7883-0.3528-0.7883-0.7881
			c0-0.4353,0.353-0.7881,0.7883-0.7881h4.7528c0.4351,0,0.7879,0.3528,0.7879,0.7881
			C45.5256,32.6489,45.1729,33.0017,44.7378,33.0017z"/>
		<path d="M34.7598,15.7379v10.9955h14.2767V15.7379H34.7598z M44.1695,20.4199h-4.4342c-0.4061,0-0.7355-0.3292-0.7355-0.7352
			c0-0.4062,0.3294-0.7353,0.7355-0.7353h4.4342c0.4058,0,0.735,0.3291,0.735,0.7353
			C44.9045,20.0907,44.5753,20.4199,44.1695,20.4199z"/>
		<polygon points="8.8514,45.6267 55.1485,45.6267 50.8145,41.6259 13.1854,41.6259 		"/>
	</g>
</g>
</svg>
