<?xml version="1.0" encoding="utf-8"?>
<!-- Generator: Adobe Illustrator 21.0.2, SVG Export Plug-In . SVG Version: 6.00 Build 0)  -->
<!DOCTYPE svg PUBLIC "-//W3C//DTD SVG 1.1//EN" "http://www.w3.org/Graphics/SVG/1.1/DTD/svg11.dtd">
<svg version="1.1" xmlns="http://www.w3.org/2000/svg" xmlns:xlink="http://www.w3.org/1999/xlink" x="0px" y="0px" width="64px"
	 height="64px" viewBox="0 0 64 64" style="enable-background:new 0 0 64 64;" xml:space="preserve">
<style type="text/css">
	.st0{fill:none;}
</style>
<g id="_x36_4px_Box">
	<rect class="st0" width="64" height="64"/>
</g>
<g id="Icon">
	<g>
		<path d="M27.8,51.6c0-0.8,0-1.5,0.3-2.1l2-5.2c-2.3-6-4.4-13.1-4.3-19c0,0,9.3,0.1,13,8.5c0,0,0.5,0.1,0.7-0.9
			c1.6-7.9-1.5-13.8-9.9-15.4c0,0,4.8-1.7,16.5,1.3c0.2-0.1,0.3-0.2,0.2-0.6C44.7,10.4,36,6.6,28.6,10.9c0,0,3.4-5,11.1-7
			c0-0.1,0.1-0.3-0.3-0.6C38,2.4,34.2,0.5,28.8,1.5c-4.9,0.9-7.2,4.2-8.9,7.1c0,0-4.5-4.8-11.2-3.1c-5.4,1.3-6.9,5.7-7.6,7.6
			c-0.2,0.5,0,0.7,0.1,0.7c1.6-0.6,7-2.9,11.4-0.4c0,0-3,0.3-6.6,3.2c-3.9,3.1-5.4,8.8-4.1,13.5c0.1,0.4,0.3,0.5,0.5,0.5
			c0.9-1.3,6.3-8.2,11.9-9.8c-6.8,6.8-6,15.8-2.4,20.1c0.3,0.4,0.6,0.4,0.7,0.2c0,0,1.3-9.4,8.7-15.7c0.3-0.3,0.6-0.3,0.7-0.2
			c-0.8,1.4-2.6,4.9-3.1,7.3c0,0,2.3,17.9,8.1,27.4h4.4c0-0.2-0.1-0.5-0.1-0.7C29.2,57.6,28,54.9,27.8,51.6z"/>
		<path d="M62.9,50.7l-3.6-9.6c0,0,0,0,0,0c0.8,0.3,1.6,0,2-0.8c0.3-0.8,0-1.6-0.8-2c-0.4-0.2-4.4-1.8-7.1-1.3
			c-1.4,0.3-2.4,0.7-3.6,1.1c0.2-0.4,0.2-0.8,0.2-1.2c0-1.7-1.3-3-3-3s-3,1.3-3,3c0,0.4,0.1,0.8,0.2,1.2c-1.2-0.4-2.2-0.8-3.6-1.1
			c-2.7-0.5-6.6,1.1-7.1,1.3c-0.8,0.3-1.1,1.2-0.8,2c0.3,0.8,1.2,1.1,1.9,0.8l-3.6,9.5C31,50.9,31,51.2,31,51.5
			c0.2,4.3,2.8,6.5,6,6.5c3.2,0,5.8-2.1,6-6.4c0-0.3,0-0.5-0.1-0.9L38.8,40c0.5,0,0.9-0.1,1.2,0c1.7,0.3,2.9,1,4.9,1.4V59h-3
			c-1.7,0-3,1.3-3,3v1h16v-1c0-1.7-1.3-3-3-3h-3V41.4c2-0.4,3.3-1.1,4.9-1.4c0.3-0.1,0.8-0.1,1.2,0l-4.1,10.7
			C51,50.9,51,51.2,51,51.5c0.2,4.3,2.8,6.5,6,6.5c3.2,0,5.8-2.1,6-6.4C63,51.3,63,51.1,62.9,50.7z M40.1,51c0,2.7-1.4,4-3.1,4
			c-0.4,0-0.7-0.1-1-0.2c1.2-0.4,2-1.7,2-3.8h-4l3-7.9C37,43.1,40.1,51,40.1,51z M57,55c-0.4,0-0.7-0.1-1-0.2c1.2-0.4,2-1.7,2-3.8
			h-4l3-7.9c0,0,3.1,7.9,3.1,7.9C60.1,53.7,58.7,55,57,55z"/>
	</g>
</g>
</svg>
