<svg height="64" viewBox="0 0 64 64" width="64" xmlns="http://www.w3.org/2000/svg"><path d="m0 0h64v64h-64z" fill="none"/><path d="m51.6996 16c-1.6094-1.1094-2.4675-2.8552-3.4415-4.0375-.9419-1.1433-1.8974-2.0816-3.2578-2.3133l1.9518-4.8546s-1.2415-.8184-3.7156-.631c-2.4.1818-3.209 1.0537-3.209 1.0537l2.7059 4.6438c-2.6343.8696-3.4704 3.9213-1.8451 9.9892 1.5516 5.7923.6153 9.8145-1.9716 12.733-.2755.3109-.5099.2796-.5621.1323 1.2364-4.3571 1.5445-6.0183-.3546-11.7156-2.3346-7.0037-.01-9.5755-.01-12 0-3.3137-2.6763-6-5.99-6-2.8577 0-5.2443 1.9996-5.8483 4.6747-1.0781-1.0352-2.539-1.6747-4.1517-1.6747-3.3137 0-6 2.6863-6 6 0 .3784.0391.7472.1061 1.1061-.3589-.067-.7277-.1061-1.1061-.1061-3.3137 0-6 2.6863-6 6 0 1.7312.7375 3.2865 1.9103 4.3816-2.2818.8493-3.9103 3.0408-3.9103 5.6184 0 2.3218 1.3212 4.3315 3.2505 5.329-1.3613 1.0979-2.2305 2.7803-2.2305 4.671 0 3.8712 3.6459 6.8386 7.4875 5.7759 2.283-.6316 6.0642-1.8745 9.1198-2.9047 1.8646 2.6932 4.7067 4.8606 8.9978 5.7227l1.2209 8.4139c-1.6054.5699-3.7103 2.1487-3.4944 3.1118.121.5395.7508.5876 1.3936.2378.5735-.3121 2.1846-1.3555 3.4053-1.3555 1.1455 0 4.1191 1.311 5.7246 2.1372.495.2541 1.3213.1906 1.3467-.4316.0261-.638-.6882-1.3453-1.7131-1.9824 2.1749.218 4.0865.7953 4.1106.8027 1.0172.3102 1.9382-.7997-.5524-1.9561-.7581-.352-2.2904-.8005-4.0696-.896l1.5165-8.3363c9.9365-3.2283 5.7466-17.5006 4.4432-21.3107-1.4343-4.1925-3.1995-8.8264-.993-10.04 2.2066-1.2136 5.7014.9257 5.7014.9257.3467.0387.5215-.5785.0342-.9144zm-12.6943 40.4356c-.5995-.2103-1.5449-.3787-2.0927-.4917l.0938-7.9636c.2658.0085.6287.0197.9033.0197.4362 0 1.1003-.0186 1.5047-.0452z"/></svg>