<?xml version="1.0" encoding="utf-8"?>
<!-- Generator: Adobe Illustrator 21.0.2, SVG Export Plug-In . SVG Version: 6.00 Build 0)  -->
<!DOCTYPE svg PUBLIC "-//W3C//DTD SVG 1.1//EN" "http://www.w3.org/Graphics/SVG/1.1/DTD/svg11.dtd">
<svg version="1.1" xmlns="http://www.w3.org/2000/svg" xmlns:xlink="http://www.w3.org/1999/xlink" x="0px" y="0px" width="64px"
	 height="64px" viewBox="0 0 64 64" style="enable-background:new 0 0 64 64;" xml:space="preserve">
<style type="text/css">
	.st0{fill:none;}
	.st1{fill:#FFFFFF;}
</style>
<g id="_x36_4px_Box">
	<rect class="st0" width="64" height="64"/>
</g>
<g id="Icon">
	<g>
		<ellipse transform="matrix(1 -9.256979e-03 9.256979e-03 1 -0.4716 0.1133)" cx="12" cy="51" rx="3" ry="3"/>
		<ellipse transform="matrix(1 -9.257073e-03 9.257073e-03 1 -0.4893 0.2985)" cx="32" cy="53" rx="3" ry="3"/>
		<ellipse transform="matrix(1 -9.256979e-03 9.256979e-03 1 -0.5351 0.4005)" cx="43" cy="58" rx="3" ry="3"/>
		<ellipse transform="matrix(1 -9.256979e-03 9.256979e-03 1 -0.4699 0.4835)" cx="52" cy="51" rx="3" ry="3"/>
		<ellipse transform="matrix(1 -9.256979e-03 9.256979e-03 1 -0.536 0.1969)" cx="21" cy="58" rx="3" ry="3"/>
		<ellipse transform="matrix(1 -9.256979e-03 9.256979e-03 1 -0.4241 0.3815)" cx="41" cy="46" rx="3" ry="3"/>
		<ellipse transform="matrix(1 -9.256979e-03 9.256979e-03 1 -0.4248 0.2149)" cx="23" cy="46" rx="3" ry="3"/>
		<path d="M38.4,10.4l-5.6-6.6c-0.2-0.2-0.5-0.4-0.8-0.4c-0.3,0-0.6,0.1-0.8,0.4l-5.6,6.6c-0.3,0.4-0.3,0.9,0.1,1.3
			c0.3,0.4,0.9,0.4,1.3,0.1l3-1.9c0,2.4,0.8,3.9,1.5,5.1c0.5,0.9,0.8,1.4,0.8,2c0,0.6-0.5,1.2-1.4,2c-1.1,1.1-2.6,2.6-2.6,4.9
			c0,2.3,1.5,3.8,2.6,4.9c0.9,0.9,1.4,1.5,1.4,2.1c0,0.8-0.4,1.3-1.1,2.3c-0.8,1.1-1.9,2.6-1.9,4.7c0,2.4,1.1,4.6,1.3,4.9
			c0.4,0.7,1.1,1.1,1.8,1.1c0.3,0,0.6-0.1,0.9-0.2c1-0.5,1.4-1.7,0.9-2.7c-0.2-0.4-0.8-1.9-0.8-3.1c0-0.8,0.4-1.3,1.1-2.3
			c0.8-1.1,1.9-2.5,1.9-4.7c0-2.3-1.5-3.7-2.6-4.9c-0.9-0.9-1.5-1.5-1.5-2.1c0-0.6,0.5-1.2,1.4-2.1c1.1-1.1,2.6-2.6,2.5-4.9
			c0-1.7-0.7-2.9-1.2-3.9c-0.6-1-1-1.8-1-3.2l3.1,1.9c0.4,0.3,1,0.2,1.3-0.2C38.7,11.3,38.8,10.7,38.4,10.4z"/>
		<path d="M56.5,13.2l-5.6-6.6c-0.2-0.2-0.5-0.4-0.8-0.4s-0.6,0.1-0.8,0.4l-5.6,6.6c-0.3,0.4-0.3,0.9,0.1,1.3
			c0.3,0.4,0.9,0.4,1.3,0.1l3-1.9c-0.1,3.2,0.8,4.7,1.7,6c0.4,0.6,0.5,0.7,0.5,1.1c0,0.6-0.5,1.2-1.4,2c-1.1,1.1-2.6,2.6-2.6,4.9
			c0,2.3,1.5,3.8,2.6,4.9c0.9,0.9,1.4,1.5,1.4,2.1c0,0.5-0.2,0.8-0.6,1.5c-0.9,1.3-2,3-1.2,6.8c0.2,0.9,1,1.6,2,1.6
			c0.1,0,0.3,0,0.4,0c1.1-0.2,1.8-1.3,1.5-2.4c-0.5-2.1,0-2.8,0.6-3.8c0.6-0.8,1.3-2,1.3-3.8c0-2.3-1.5-3.7-2.6-4.9
			c-0.9-0.9-1.5-1.5-1.5-2.1c0-0.6,0.5-1.2,1.4-2.1c1.1-1.1,2.6-2.6,2.5-4.9c0-1.8-0.8-2.8-1.3-3.5c-0.5-0.7-1-1.4-0.9-3.6l3.1,1.9
			c0.4,0.3,1,0.2,1.3-0.2C56.8,14.1,56.8,13.6,56.5,13.2z"/>
		<path d="M18.4,34.2c0-2.3-1.5-3.7-2.6-4.9c-0.9-0.9-1.5-1.5-1.5-2.1c0-0.6,0.5-1.2,1.4-2.1c1.1-1.1,2.6-2.6,2.5-4.9
			c0-1.8-0.8-2.8-1.3-3.5c-0.5-0.7-1-1.4-0.9-3.6l3.1,1.9c0.4,0.3,1,0.2,1.3-0.2c0.3-0.4,0.4-0.9,0-1.3L14.9,7
			c-0.2-0.2-0.5-0.4-0.8-0.4S13.4,6.7,13.2,7l-5.6,6.6c-0.3,0.4-0.3,0.9,0.1,1.3C8.1,15.2,8.6,15.3,9,15l3-1.9
			c-0.1,3.2,0.8,4.7,1.7,6c0.4,0.6,0.5,0.7,0.5,1.1c0,0.6-0.5,1.2-1.4,2c-1.1,1.1-2.6,2.6-2.6,4.9c0,2.3,1.5,3.8,2.6,4.9
			c0.9,0.9,1.4,1.5,1.4,2.1c0,0.5-0.2,0.8-0.6,1.5c-0.9,1.3-2,3-1.2,6.8c0.2,0.9,1,1.6,2,1.6c0.1,0,0.3,0,0.4,0
			c1.1-0.2,1.8-1.3,1.5-2.4c-0.5-2.2,0-2.8,0.6-3.8C17.7,37.1,18.4,36,18.4,34.2z"/>
	</g>
</g>
</svg>
