<?xml version="1.0" encoding="utf-8"?>
<!-- Generator: Adobe Illustrator 19.1.0, SVG Export Plug-In . SVG Version: 6.00 Build 0)  -->
<svg version="1.2" baseProfile="tiny" xmlns="http://www.w3.org/2000/svg" xmlns:xlink="http://www.w3.org/1999/xlink" x="0px"
	 y="0px" width="64px" height="64px" viewBox="0 0 64 64" xml:space="preserve">
<g id="_x36_4px_Box">
	<rect fill="none" width="64" height="64"/>
</g>
<g id="Icon">
	<g>
		<g>
			<path d="M39.3003,32.4087c0.7401-0.1233,1.5686-0.2221,2.4428-0.302c0.1931-0.9979,0.2943-2.0391,0.2436-3.1067
				c-0.2435-5.125-2.754-7.4424-4.5433-12.5833C35.371,10.4623,33.4023,4.0001,25.0003,4c-0.0001,0-0.0001,0-0.0001,0
				S25.0001,4,25,4c-8.402,0.0001-10.3707,6.4623-12.4431,12.4167C10.7676,21.5576,8.2571,23.875,8.0136,29
				c-0.2331,4.9051,2.6132,9.3118,3.894,11.0347c-2.8643,1.0614-6.0812,2.5104-7.5204,4.0757
				C2.5359,46.1231,1.2501,53.7942,0.5687,59H34.483c-0.0223-0.1012-0.0576-0.1972-0.0748-0.3003
				C33.9058,55.6812,33.7998,51.2148,33.7998,48s0.106-7.6812,0.6084-10.6997C34.8262,34.792,36.792,32.8262,39.3003,32.4087z
				 M28.7183,35.7039c-0.7807,0.6644-2.2499,1.1066-3.7188,1.1055c-1.0628-0.0008-2.1255-0.2865-2.9271-0.6349
				c0.6138,0.9305,1.6553,2.0744,3.5848,2.5851c3.1548,0.8349,5.4595-0.9139,5.4595-0.9139s0.2828,1.9133,0.2745,2.4157
				c0.3267,3.4883-3.5568,7.3169-6.0102,9.0784c-2.3004-1.75-6.5919-5.5302-6.1588-9.0224c0.237-1.9129,0.0408-0.5492,0.8235-5.4371
				c-2.1797-2.1061-3.9292-4.6455-4.076-7.6609c-1.7687,0.8932-3.3272,2.0303-4.5517,3.3783
				c-0.0526-0.0569-0.1642-0.1666,0.0292-0.4936c2.501-4.2287,7.8895-7.174,13.5527-7.174c5.6633,0,11.0518,2.9453,13.5528,7.174
				c0.1934,0.327,0.0817,0.4366,0.0292,0.4936c-1.222-1.3452-2.7764-2.4805-4.5405-3.373
				C33.8635,30.726,31.4211,33.4037,28.7183,35.7039z"/>
		</g>
		<g>
			<path d="M62.435,37.826c-0.1949-1.1729-1.0873-2.0652-2.2607-2.2607C56.7829,35,51.1301,35,50.0001,35
				c-1.1301,0-6.7828,0-10.1743,0.5654c-1.1734,0.1955-2.0657,1.0878-2.2607,2.2607C37,41.2173,37,46.8697,37,48
				c0,1.1304,0,6.7827,0.5651,10.174c0.195,1.1728,1.0873,2.0651,2.2607,2.2607C43.2172,61,48.8699,61,50.0001,61
				c1.1301,0,6.7828,0,10.1742-0.5653c1.1735-0.1956,2.0658-1.0879,2.2607-2.2607C63,54.7827,63,49.1304,63,48
				C63,44.607,63,41.2173,62.435,37.826z M52,49.5585V55h-4v-5.4415c-1.2476-0.703-2.1-2.0244-2.1-3.5585
				c0-2.2644,1.8356-4.1,4.1-4.1s4.1,1.8356,4.1,4.1C54.1,47.5341,53.2476,48.8555,52,49.5585z"/>
		</g>
	</g>
</g>
</svg>
