<svg height="64" viewBox="0 0 64 64" width="64" xmlns="http://www.w3.org/2000/svg"><path d="m0 0h64v64h-64z" fill="none"/><path d="m29.4453 22.6804c4.042-5.8682 6.6685-8.7852 8.7812-9.7529.8228-.377 2.0432-.6551 3.4517-.838-3.2363-1.9476-6.8358-3.1635-10.6054-2.7594-6.2452.6694-7.4349 5.4036-15.9872 5.6741-6.0894.1926-10.7267-2.6082-10.7267-2.6082s-2.8419 4.5407-.1184 10.162c3.791 7.8247 10.4418 6.4221 11.5579 14.9791.6196 4.7506-1.1319 9.4629-1.1319 9.4629s12.4141-5.2966 19.8084-14.0297c-1.7759-1.7861-3.9309-4.2385-4.9212-5.6132-1.0185-1.413-1.062-3.2929-.1084-4.6767z"/><path d="m46.001 11.9101c3.1358 0 4.95-2.1782 4.95-5.3126 0-3.5723-1.8964-5.4875-4.95-5.4875-3.217 0-4.95 2.2643-4.95 5.4875 0 3.3963 1.8147 5.3126 4.95 5.3126z"/><path d="m55.7142 31.6729c1.6668-1.6484 3.9481-4.2148 4.9473-5.6015.4575-.635.5258-1.4969.0818-2.1415-2.2434-3.257-5.6482-7.9769-7.8863-9.0026-2.585-1.1849-11.1289-1.1849-13.714 0-2.2381 1.0258-5.6429 5.7457-7.8863 9.0026-.444.6446-.3757 1.5065.0818 2.1415.9992 1.3867 3.2805 3.9531 4.9473 5.6015 1.2886 1.2744 2.3693 1.5064 3.1506 1.4055l.0263.6768-4.7939 27.6775s5.5369 1.1803 6.5323-3.8264c1.0113-5.0871 3.968-18.6935 4.0718-19.0834.1264-.4751.4549-.5932.7271-.5932s.6228.1181.7271.5932c.0876.399 3.0605 13.9962 4.0718 19.0834.9954 5.0067 6.5323 3.8264 6.5323 3.8264l-4.7939-27.6775.0263-.6768c.7812.1009 1.862-.1312 3.1506-1.4055zm-2.6937-10.3571 2.9794 3.5714-3.2833 4.2521zm-17.0204 3.5714 2.9794-3.5714.3039 7.8235zm10.1477 1.211c-.0918.0481-.2039.0481-.2957 0-3.4974-1.8319-3.5969-5.1224-2.1047-5.7856 1.513-.6724 2.2526.7733 2.2526.7733s.7396-1.4457 2.2526-.7733c1.4921.6632 1.3927 3.9537-2.1048 5.7856z"/></svg>