<svg height="64" viewBox="0 0 64 64" width="64" xmlns="http://www.w3.org/2000/svg"><path d="m0 0h64v64h-64z" fill="none"/><path d="m19.5917 44.5541c3.1701-.527 3.7744-.9944 5.0954-3.2178.7991-1.3295 1.9916-3.7069 2.9402-5.6672 2.9322 1.9162 4.9018 3.1591 4.9018 3.1591.6985 1.7858 1.487 6.7378 1.8279 8.6259.4767 2.6408 2.3497 4.4287 4.5153 4.5459-.0404-3.4037-.1905-8.65-.5543-12.0579-.5071-4.2766-.6471-4.8092-4.9232-8.4677-1.1377-.9515-2.2028-1.787-3.1577-2.521.4557-2.0411.9942-4.3173 1.4799-6.3275.371.7876.7614 1.5611 1.2067 2.2919.8558 1.3586 1.4171 1.8315 2.5092 2.1462 2.1541.5084 4.3633.0623 6.4102-1.0283 2.2791-1.2145 2.2531-3.1533 2.0944-3.9932 0 0-5.6078 1.1939-7.2742.9242-1.0936-1.6624-2.6326-6.1519-3.8371-7.7592-2.3781-3.1733-11.6107-2.1969-14.3516-.683-1.8103 1.0077-2.2747 2.076-2.7521 4.0564-.4161 1.8894-.5731 4.7422-.6605 6.6866.0499 1.0153.4638 2.5066 2.3779 2.8833.004-.0037 1.4006-6.6599 2.0323-8.3937.1583-.4423.374-.9104.5031-1.0478 0 0 .7778-.4415 2.7739-.6455-.2723.8987-2.4031 8.909-2.4031 10.6085 0 1.0298.4572 1.96 1.189 2.7088.8571.8768 4.5415 3.3669 4.5415 3.3669-.0153.1169-.1507.1924-.4759.1169-1.8653-.4335-3.5591-.8788-3.5591-.8788s-1.4191 3.7228-2.1606 5.2946c-1.5164.5787-4.6143 1.2222-6.1946 1.5027-2.066.3667-2.7779 2.0107-2.6564 4.2166 2.593-.1338 6.0094-.0351 8.5617-.4459zm12.8227-5.9156.0059.0082.0239.0333.048.0667.015.0211c.0006.0013.0012.0032.0016.0046-.0499-.0709-.081-.1147-.0956-.1353.0032.0042.0061.0085.0085.012-.0021-.0032-.0028-.004-.0073-.0106z"/><path d="m30.3898 11.9256c2.7773.4568 4.7036-1.2274 5.1632-4.0336.5238-3.1962-.8752-5.1865-3.58-5.6317-2.8493-.4684-4.7162 1.3056-5.1885 4.1899-.4979 3.0398.8286 5.0186 3.6053 5.4754z"/><path d="m55.9813 25.0413c-.062-1.1232-.9905-2.0405-2.129-2.0413h-6.1815c-.9715-.0015-1.8006.8751-1.6394 1.9518.1075.7184.7212 1.2598 1.4394 1.3689l3.4664.5266-1.9372 26.1527-36.291 1.9777c-2.6411.144-4.709 2.3276-4.709 4.9727v.0496h45.9255c1.1457 0 2.0745-.9288 2.0745-2.0745v-32.8878z"/></svg>