<svg height="64" viewBox="0 0 64 64" width="64" xmlns="http://www.w3.org/2000/svg"><path d="m0 0h64v64h-64z" fill="none"/><path d="m33 45.2583-10.1133 12.7417h11.0858c-.6151-.7128-.9725-1.6286-.9725-2.6084z"/><path d="m39.9976 22.001c0-.7447.0012-2.7025-1.2268-4.0366.1414-1.5536.2456-3.0462.2001-4.4198 1.8539-1.449 3.0291-3.0639 3.0291-4.5446 0-5.3253-7.1635-8-16-8s-16 2.6747-16 8c0 1.3911 1.1689 2.8995 2.9551 4.2783.0444 1.4227.1529 4.0292.2108 4.767-1.1589 1.332-1.1634 3.2256-1.1634 3.9557 0 2.386.7374 4.3299 2.0614 5.5497.3819 2.5118 1.613 4.9141 3.7105 7.2619-.0673.5126-.1422 1.0897-.2191 1.687l-6.9996 2.2539c-.933.3004-1.1513 1.0562-1.5764 1.9484-1.4938.74-2.8085 1.5565-3.592 2.4086-2.8736 3.1239-4.3873 14.8895-4.3873 14.8895h14.4032l12.8149-16.1454c-.7075.1031-1.4602.1454-2.2182.1454-3.078 0-5.8118-2.2308-5.529-4.4461.2406-1.8848.33-2.451.5748-3.6736-2.2767-2.2-4.1043-4.8665-4.1043-8.061-1.6177-.5039-2.0414-2.5454-2.0414-3.8183 0-1.2725.3217-1.961.7737-2.1743.3922-.1844.7725-.0475 1.013.0886.1414.6527.2484 1.1383.2898 1.3098.2061.8511 1.0235.7729 1.0235.7729v-3.6052c1.8239.974 4.7234 1.6072 7.9999 1.6072 3.2767 0 6.1761-.6332 8.0001-1.6073v3.6053s.8174.0782 1.0234-.7729c.0415-.1715.1484-.6571.2898-1.3098.2405-.1362.6209-.2731 1.013-.0886.4521.2133.7738.9018.7738 2.1743 0 1.2729-.4237 3.3144-2.0414 3.8183 0 3.7027-2.5335 6.4959-5.3403 8.8846-.7807.6644-2.2499 1.1066-3.7188 1.1055-1.0628-.0008-2.1255-.2865-2.9271-.6349.6138.9305 1.6553 2.0744 3.5848 2.5851 2.3609.6248 4.2451-.1971 5.0443-.6505.8461-.4709 2.9313-2.731 3.6381-3.7029.0009-.0013.002-.0016.0029-.0029 1.3987-1.9004 2.2723-3.853 2.5873-5.8466 1.328-1.2195 2.0678-3.1657 2.0678-5.5557zm-4.3254-8.151c-1.1118-1.7243-5.0143-2.83-9.6722-2.83s-8.5605 1.1057-9.6722 2.83c-.2065-.3202-.3278-.6541-.3278-1 0-2.2091 4.4772-4 10-4s10 1.7909 10 4c0 .3459-.1213.6798-.3278 1z"/><path d="m62.2841 37.7878-4.0473-1.1992-12.5798 4.4572c-.3945.1441-.657.5193-.657.9393v7.0149l-4-1.8095v-6.6356c0-.4192.2615-.7939.6549-.9385l12.1611-4.3375-3.7479-1.1105c-.3708-.1099-.7655-.1099-1.1364 0l-12.2159 3.6195c-.4245.1258-.7158.5159-.7158.9587v16.6454c0 .3735.2081.7158.5397.8878l12.0397 6.2428c.5772.2993 1.264.2993 1.8412 0l12.0397-6.2428c.3316-.1719.5397-.5142.5397-.8877v-16.6455c0-.4428-.2913-.8329-.7159-.9588zm-7.4645 11.1183 1.6453 2.5034-.9831.5203v2.6734l-1.2819.6494v-2.6443l-.9821.5197zm4.9678 5.5425-6.2494 3.0629v-1.0646l6.2494-3.1198zm-.726-4.4141v2.7553l-1.3599.6889v-2.7245l-1.0396.5502 1.6972-4.3693 1.7438 2.548z"/></svg>