<?xml version="1.0" encoding="utf-8"?>
<!-- Generator: Adobe Illustrator 25.0.0, SVG Export Plug-In . SVG Version: 6.00 Build 0)  -->
<svg version="1.1" xmlns="http://www.w3.org/2000/svg" xmlns:xlink="http://www.w3.org/1999/xlink" x="0px" y="0px"
	 viewBox="0 0 64 64" style="enable-background:new 0 0 64 64;" xml:space="preserve">
<style type="text/css">
	.st0{fill:none;}
	.st1{fill:#FFFFFF;}
</style>
<g id="Box">
	<rect class="st0" width="64" height="64"/>
</g>
<g id="Icon">
	<g>
		<path d="M48.609,24.084c0.091-0.289,0.29-0.234,0.29-0.234V27h9.203v-3.15c0,0,0.214-0.074,0.318,0.234
			c0.187,0.553,0.344,1.596,0.432,2.916h2.683c-0.232-4.091-1.082-7.591-4.124-8.316c-0.399-0.095-0.826-0.168-1.262-0.231
			c-0.393,1.126-1.056,2.838-1.721,3.706c-0.118-0.67-0.318-1.571-0.533-2.176c0.293-0.449,0.688-1.148,0.688-1.148
			s-0.336-0.548-1.102-0.548c-0.765,0-1.101,0.548-1.101,0.548s0.395,0.698,0.688,1.148c-0.214,0.602-0.413,1.495-0.531,2.164
			c-0.634-0.868-1.287-2.571-1.68-3.698c-0.44,0.064-0.87,0.138-1.267,0.236c-3.035,0.745-3.887,4.234-4.122,8.316h2.689
			C48.251,25.708,48.417,24.696,48.609,24.084z"/>
		<path d="M5.609,24.084c0.091-0.289,0.29-0.234,0.29-0.234V27h9.203v-3.15c0,0,0.214-0.074,0.318,0.234
			c0.187,0.553,0.344,1.596,0.432,2.916h2.683c-0.232-4.091-1.082-7.591-4.124-8.316c-0.399-0.095-0.826-0.168-1.262-0.231
			c-0.393,1.126-1.056,2.838-1.721,3.706c-0.118-0.67-0.318-1.571-0.533-2.176c0.293-0.449,0.688-1.148,0.688-1.148
			s-0.336-0.548-1.102-0.548c-0.765,0-1.101,0.548-1.101,0.548s0.395,0.698,0.688,1.148c-0.214,0.602-0.413,1.495-0.531,2.164
			c-0.634-0.868-1.287-2.571-1.68-3.698c-0.44,0.064-0.87,0.138-1.267,0.236C3.554,19.429,2.702,22.918,2.467,27h2.689
			C5.251,25.708,5.417,24.696,5.609,24.084z"/>
		<polygon points="2.587,33 5.891,33 6.804,54 3,54 3,57 18,57 18,54 14.196,54 15.109,33 18.413,33 20.674,28 0.326,28 		"/>
		<polygon points="61.413,33 63.674,28 43.326,28 45.587,33 48.891,33 49.804,54 46,54 46,57 61,57 61,54 57.196,54 58.109,33 		"/>
		<path d="M10.5,16.755c2.221,0,3.505-1.564,3.505-3.815c0-2.565-1.343-3.94-3.505-3.94c-2.278,0-3.506,1.626-3.506,3.94
			C6.994,15.379,8.28,16.755,10.5,16.755z"/>
		<path d="M32,13.424c2.126,0,3.356-1.497,3.356-3.652C35.356,7.316,34.07,6,32,6c-2.181,0-3.356,1.556-3.356,3.772
			C28.644,12.107,29.875,13.424,32,13.424z"/>
		<path d="M39.775,14.382c-0.414,2.625-1.042,5.77-1.042,5.77c-0.585-2.825-1.704-4.291-3.55-4.875
			c-1.041-0.329-2.053-0.481-3.183-0.481c-1.129,0-2.142,0.152-3.183,0.481c-1.847,0.585-2.965,2.051-3.55,4.875
			c0,0-0.628-3.145-1.042-5.77c-1.202,0.512-2.135,1.872-1.888,3.454c0.223,1.435,0.843,3.892,1.243,5.25
			c0.476,1.615,2.248,1.836,2.963,0.406c0.653-0.963,1.065-3.025,1.352-3.864c0.094-0.276,0.33-0.701,0.33-0.701
			c-0.448,1.876-0.162,2.76,0.059,3.709c0.236,1.01,0.29,2.065,0.031,3.073c-0.488,1.897-2.048,4.384-2.048,10.436
			c0,0,1.556,0.422,4.062,0.206c0.083,0.135,0.049,0.311-0.162,0.459c-0.186,0.13-0.745,0.393-1.864,0.425L28.701,48
			c0,0,2.469-0.388,2.637-2.875c0,0,0.208-6.1,0.304-8.942c0.125-0.02,0.249-0.039,0.378-0.063c0.109-0.02,0.218-0.035,0.327-0.052
			c0.094,2.776,0.306,8.985,0.306,8.985C32.779,47.617,35.299,48,35.299,48l0.447-11.979c1.168,0.114,1.986,0.31,1.986,0.31
			c0-6.052-1.559-8.726-2.047-10.623c-0.259-1.008-0.205-2.063,0.031-3.073c0.222-0.949,0.507-1.833,0.059-3.709
			c0,0,0.236,0.426,0.33,0.701c0.287,0.839,0.699,2.901,1.352,3.864c0.715,1.43,2.487,1.209,2.963-0.406
			c0.401-1.358,1.02-3.815,1.243-5.25C41.909,16.253,40.977,14.893,39.775,14.382z"/>
		<path d="M53.5,16.755c2.221,0,3.505-1.564,3.505-3.815c0-2.565-1.343-3.94-3.505-3.94c-2.278,0-3.506,1.626-3.506,3.94
			C49.994,15.379,51.28,16.755,53.5,16.755z"/>
	</g>
</g>
</svg>
