<?xml version="1.0" encoding="utf-8"?>
<!-- Generator: Adobe Illustrator 17.1.0, SVG Export Plug-In . SVG Version: 6.00 Build 0)  -->
<svg version="1.2" baseProfile="tiny" xmlns="http://www.w3.org/2000/svg" xmlns:xlink="http://www.w3.org/1999/xlink" x="0px"
	 y="0px" width="64px" height="64px" viewBox="0 0 64 64" xml:space="preserve">
<g id="Box">
	<rect fill="none" width="64" height="64"/>
</g>
<g id="Icon">
	<g>
		<path d="M19.9515,49.2839c-5.6559,0-10.2411-4.5853-10.2411-10.2411c0-2.5809,0.962-4.9321,2.5375-6.7332
			c-1.0097-1.7227-0.9154-3.1456-0.8755-4.1456c-3.2154,2.5392-5.2861,6.4638-5.2861,10.8788
			c0,7.6572,6.208,13.8652,13.8652,13.8652c3.4634,0,6.6199-1.2812,9.0485-3.3821v-5.705
			C27.2838,47.0679,23.8797,49.2839,19.9515,49.2839z"/>
		<path d="M34.0654,30.5749c-0.7188-1.7063-1.3081-2.163-2.6011-2.7279c-1.9307-0.765-5.6038-1.5664-7.646-1.9897
			c0.9149-9.0231,1.6123-11.7778,0.3606-13.0656c-1.7218-1.7713-4.6272-2.183-6.6089-1.1909
			c-0.9562,0.3244-5.6505,2.8475-8.0152,5.267c-0.7958,0.8716-1.0735,1.2747-1.4074,1.9894
			C6.9509,21.4416,5.8052,26.1232,5.13,28.8898c2.5789,0.6387,3.918-1.616,4.2852-2.3646c0.717-1.6232,1.5533-4.0105,2.4854-5.5208
			c0.5348-1.011,1.8441-1.7542,2.869-2.3521c-0.6701,3.691-0.752,7.9141-0.7358,10.35c0.0219,3.3468,2.8906,4.7811,5.6397,4.7811
			s9.4653-0.0057,9.5415,0c0.4324,1.3785,1.0261,3.0742,1.6318,4.752c1.1075-1.3912,2.6762-2.5859,4.5974-3.5217
			C34.9584,33.209,34.4838,31.6249,34.0654,30.5749z"/>
		<path d="M23.3019,10.0003c2.8423,0.4567,4.8054-1.2802,5.2631-4.1619c0.5219-3.2833-0.9174-5.32-3.6854-5.7654
			c-2.9159-0.4688-4.8176,1.3605-5.2884,4.3226C19.0945,7.5173,20.4604,9.5427,23.3019,10.0003z"/>
		<path d="M46.0012,55C53.8511,55,60,51.6253,60,47.3214c0-0.6324,0-3.0202,0-3.6548C60,39.3673,53.8511,36,46.0012,36
			C38.1492,36,32,39.3673,32,43.6666c0,0.6346,0,3.0225,0,3.6548c0,0.9493,0.3142,1.8492,0.865,2.6819
			C32.312,50.8288,32,51.7224,32,52.6666v3.6548C32,60.6253,38.1492,64,46.0012,64C53.8511,64,60,60.6253,60,56.3214v-3.6548
			c0-0.2049-0.0266-0.4056-0.0542-0.606c-0.7144,0.8958-4.5718,5.1376-13.6127,5.1376c-8.0173,0-10.7806-3.8577-11.0668-4.3807
			c-0.1169-0.2137-0.2019-0.4362-0.0765-0.5667C37.738,53.9397,41.6016,55,46.0012,55z M34.7012,44
			c0-2.8444,5.0601-5.15,11.302-5.15s11.302,2.3057,11.302,5.15c0,2.8443-5.0601,5.15-11.302,5.15S34.7012,46.8443,34.7012,44z"/>
		<path d="M43.8542,45.7261v0.6766h1.5551v-0.5565c0.3053,0.0191,0.6703,0.0191,1.016,0.0191h0.384v0.5374h1.5168v-0.6166
			c2.7834-0.2999,4.1094-1.2643,4.1094-2.6701c0-0.5469-0.0571-0.7845-0.3076-1.3435H50.072
			c0.2123,0.5182,0.2886,0.7773,0.2886,1.2546c0,0.6166-0.5938,1.1155-2.0344,1.334v-1.7634h-1.5168v1.8928
			c-0.1907,0.0096-0.384,0.0193-0.6128,0.0193c-0.2697,0-0.52-0.0098-0.7872-0.0193v-1.8928h-1.5551v1.7538
			c-1.4023-0.2089-2.1322-0.6575-2.1322-1.3748c0-0.4078,0.0763-0.6454,0.2479-1.1539h-2.168
			c-0.174,0.4269-0.2312,0.7269-0.2312,1.1226C39.5708,44.3611,41.0112,45.3662,43.8542,45.7261z"/>
	</g>
</g>
</svg>
