<?xml version="1.0" encoding="utf-8"?>
<!-- Generator: Adobe Illustrator 17.1.0, SVG Export Plug-In . SVG Version: 6.00 Build 0)  -->
<svg version="1.2" baseProfile="tiny" xmlns="http://www.w3.org/2000/svg" xmlns:xlink="http://www.w3.org/1999/xlink" x="0px"
	 y="0px" width="64px" height="64px" viewBox="0 0 64 64" xml:space="preserve">
<g id="_x36_4px_Boxes">
	<rect fill="none" width="64" height="64"/>
</g>
<g id="Production">
	<g>
		<path d="M20.806,17.5734c2.9905-0.4567,4.3934-2.7669,3.922-5.712c-0.5374-3.3549-2.634-4.8783-5.5466-4.4333
			c-3.0683,0.4686-4.3806,2.8483-3.8958,5.8758C15.7966,16.4948,17.8158,18.0302,20.806,17.5734z"/>
		<path d="M43.759,31.7016c-2.6326-2.9884-3.6081-2.9044-7.3929-1.6617c-2.0548,0.6925-4.2492,1.5825-6.3233,2.4658
			c-1.5371-4.9909-3.1106-9.149-3.1106-9.149c-2.3064-6.8041-11.071-4.5553-9.8025,1.7299
			c0.8804,4.3617,2.4109,10.4522,3.4614,13.9848c0.6816,2.2922,3.0954,3.7812,6.3635,3.2013
			c2.3733-0.4211,10.3745-2.0522,10.3745-2.0522s2.3377,7.8052,3.7005,12.0452c1.3626,4.2393,4.7999,3.8283,5.7461,3.631
			l-3.8809-19.6209c0.0497-0.0648,0.2869-0.0906,0.4169,0.2008C44.1282,38.3077,46.96,44.26,46.96,44.26
			s0.4811,0.4508,0.8743,0.7775c3.6979,3.0714,5.36,1.4661,6.1656,0.8844C53.3732,44.9219,49.3141,38.1471,43.759,31.7016z"/>
		<path d="M34.292,42.7039c-0.0049,0.001-3.2197,0.6387-7.6631,1.4512c-3.7588,0.6924-7.1123-1.2988-7.9609-4.7285l-3.0489-12.3408
			c-0.1963-0.7935-1.0376-1.268-1.831-1.0717s-1.2774,0.9987-1.0812,1.7921l3.049,12.341c0.5677,2.2924,1.8831,4.1422,3.652,5.3881
			L15.9785,56h3.1575l2.9963-9.143c0.94,0.2834,1.9406,0.4387,2.983,0.4387c0.6709,0,1.3574-0.0625,2.0537-0.1895
			c0.3569-0.0652,0.7026-0.1288,1.0428-0.1916L31.8362,56h3.2305l-3.8488-9.6474c2.2435-0.425,3.6581-0.7053,3.6581-0.7053
			c0.8125-0.1611,1.3408-0.9512,1.1797-1.7637S35.1094,42.5438,34.292,42.7039z"/>
	</g>
</g>
</svg>
