<?xml version="1.0" encoding="utf-8"?>
<!-- Generator: Adobe Illustrator 19.1.0, SVG Export Plug-In . SVG Version: 6.00 Build 0)  -->
<svg version="1.2" baseProfile="tiny" xmlns="http://www.w3.org/2000/svg" xmlns:xlink="http://www.w3.org/1999/xlink" x="0px"
	 y="0px" width="64px" height="64px" viewBox="0 0 64 64" xml:space="preserve">
<g id="Box">
	<rect fill="none" width="64" height="64"/>
</g>
<g id="Icon">
	<g>
		<path d="M40.2442,32.2364L40.2442,32.2364c0.7664,0.4157,1.7247,0.1313,2.1404-0.6351l2.2579-4.1631l3.7256,2.0206l2.0071-3.7006
			l-3.7256-2.0206l2.2577-4.1627c0.4157-0.7665,0.1315-1.7249-0.6348-2.1408c-0.7662-0.4159-1.7245-0.1317-2.1401,0.6346
			L39.6091,30.096C39.1934,30.8624,39.4778,31.8207,40.2442,32.2364z"/>
		<path d="M19.4288,17.4595c3.1474-0.4807,4.6239-2.912,4.1277-6.0116C22.991,7.917,20.7843,6.3137,17.719,6.782
			c-3.2292,0.4932-4.6103,2.9977-4.1001,6.184C14.1566,16.3243,16.2817,17.9402,19.4288,17.4595z"/>
		<path d="M42.2606,37.0772c-1.0123-2.1907-2.2136-2.9051-4.8676-2.7189c-2.4996,0.1754-4.4291,0.4385-7.7826,0.7296
			c-1.2109-3.9318-2.7009-8.443-3.3739-10.4639c2.6072,0.2109,6.0093,0.2108,7.127,0.1157
			c1.5652-0.1518,4.4438-1.5677,5.9023-2.1549c3.5283-1.4203,3.4227-4.4259,3.3553-5.0582
			c-1.6066,0.4372-5.1401,1.6842-6.1519,2.004c-0.7921,0.2503-2.6341,0.8696-3.4604,0.9097
			c-1.1068,0.0638-2.4682-0.0665-3.6935-0.194c-0.5417-0.0564-7.1719-0.9488-8.2326-1.0265
			c-3.1599-0.2314-6.3478,2.0606-5.5231,6.147c0.9266,4.5905,2.5374,11.4005,3.6429,15.1183
			c0.7173,2.4125,3.2578,3.9795,6.6972,3.3692c2.4978-0.4432,10.9186-1.6337,10.9186-1.6337s4.7806,7.8924,7.0338,12.0026
			c2.2528,4.1095,5.7231,2.9999,6.6616,2.6074C47.8088,49.8931,43.7297,40.2565,42.2606,37.0772z"/>
	</g>
</g>
</svg>
