<?xml version="1.0" encoding="utf-8"?>
<!-- Generator: Adobe Illustrator 21.0.2, SVG Export Plug-In . SVG Version: 6.00 Build 0)  -->
<!DOCTYPE svg PUBLIC "-//W3C//DTD SVG 1.1//EN" "http://www.w3.org/Graphics/SVG/1.1/DTD/svg11.dtd">
<svg version="1.1" xmlns="http://www.w3.org/2000/svg" xmlns:xlink="http://www.w3.org/1999/xlink" x="0px" y="0px" width="64px"
	 height="64px" viewBox="0 0 64 64" style="enable-background:new 0 0 64 64;" xml:space="preserve">
<style type="text/css">
	.st0{fill:none;}
</style>
<g id="_x36_4px_Box">
	<rect class="st0" width="64" height="64"/>
</g>
<g id="Icon">
	<g>
		<path d="M54.7,15l-0.9-0.4c-0.5-0.2-1.1,0-1.3,0.4l-4,8H38c-0.6,0-1,0.4-1,1v1c0,0.6,0.4,1,1,1h-9v3h18v31H36c-1.7,0-3,1.3-3,3h20
			c0-1.7-1.3-3-3-3V29h3v-3h-2.7l4.8-9.6C55.4,15.9,55.2,15.3,54.7,15z"/>
		<path d="M41.4,52.1L40,52.9V36.1l1.4,0.8c0.3,0.1,0.6,0.1,0.8-0.1c0.2-0.2,0.2-0.5,0-0.8l-2.7-3.4c-0.1-0.1-0.3-0.2-0.5-0.2
			c-0.2,0-0.4,0.1-0.5,0.2c-0.1,0.1-2.7,3.4-2.7,3.4c-0.2,0.2-0.2,0.6,0,0.8c0.2,0.2,0.5,0.3,0.8,0.1l1.4-0.8v16.9l-1.4-0.8
			c-0.3-0.1-0.6-0.1-0.8,0.1c-0.2,0.2-0.2,0.5,0,0.8l2.7,3.4c0.1,0.1,0.3,0.2,0.5,0.2c0.2,0,0.4-0.1,0.5-0.2
			c0.1-0.1,2.7-3.4,2.7-3.4c0.2-0.2,0.2-0.6,0-0.8C42,52.1,41.7,52,41.4,52.1z"/>
		<g>
			<path d="M15.9,12.1c3,0.1,4.8-1.9,5-4.8C21,3.9,19.2,2,16.2,1.9c-3.1-0.1-4.8,1.9-5,5C11.2,10.1,12.9,12,15.9,12.1z"/>
			<path d="M31,22.9c-3.1-0.1-4.4-0.7-6.4-2c-1.8-1.2-3.8-4-5.4-5.5c-1.1-1.1-2.7-1.6-4.1-1.4c-2,0.3-3.9,1.9-4,4.7
				c-0.2,4.4,1.8,10,1.4,12.9c-0.2,1.8-0.6,2.9-0.3,4.6c0.4,2.1,1.3,3.1,1.6,6.7c0.1,2,0.2,10.4,0.4,14.8c0.2,4.4,3.5,5,4.5,5
				c1.2-12.2,2.1-30.2,2.2-40.2c0.6,0.7,1.6,1.5,2.9,2.2c3.7,2,10.5,1.2,10.5,1.2S34.1,23,31,22.9z"/>
		</g>
	</g>
</g>
</svg>
