<?xml version="1.0" encoding="utf-8"?>
<!-- Generator: Adobe Illustrator 17.1.0, SVG Export Plug-In . SVG Version: 6.00 Build 0)  -->
<svg version="1.2" baseProfile="tiny" xmlns="http://www.w3.org/2000/svg" xmlns:xlink="http://www.w3.org/1999/xlink" x="0px"
	 y="0px" width="64px" height="64px" viewBox="0 0 64 64" xml:space="preserve">
<g id="Box">
	<rect fill="none" width="64" height="64"/>
</g>
<g id="Icon">
	<g>
		<path d="M26.3463,27.0058c-0.1189-0.4001-0.2074-0.8018-0.2746-1.1795c1.0427-1.0524,1.6133-2.4441,1.9189-3.9136
			c0.3463-0.1997,0.9081-0.5134,0.9907-1.9666c0.093-1.6393-0.1595-2.1233-0.7627-2.0941c0.0775-0.4243,0.0838-1.2302,0.0778-2.0949
			c-0.0066-0.914-0.0497-1.8936-0.4189-2.5566c-0.4586-0.8237-1.1031-1.3068-2.3599-1.0091
			c-1.1002-0.5289-2.1677-1.0972-4.1068-0.6683c-2.1852,0.4834-2.9572,1.2479-3.238,1.6774
			c-0.4122,0.6306-0.4554,1.6015-0.4515,2.5172c0.0038,0.8788-0.0178,1.7069,0.0602,2.1343
			c-0.6032-0.0292-0.8557,0.4548-0.7627,2.0941c0.0826,1.4532,0.6628,1.7669,1.009,1.9666
			c0.3056,1.4691,0.8392,2.8605,1.8814,3.9127c0.0008-0.0046,0.0023-0.0098,0.0031-0.0144L19.91,25.8263
			c0,0-0.0005-0.0006-0.0008-0.0009c-0.064,0.3781-0.1438,0.7789-0.2473,1.1775c-1.4355,0.504-4.9572,1.8163-5.9882,2.9036
			c-0.167,0.176-0.3235,0.4161-0.47,0.6982c2.2741,2.9229,5.8147,4.8138,9.7963,4.8138s7.5222-1.8911,9.7963-4.8138
			c-0.1465-0.2822-0.303-0.5222-0.47-0.6982C31.2972,28.8212,27.7867,27.5119,26.3463,27.0058z"/>
		<path d="M58.0148,50.9437L41.1996,35.2701c-2.3177,2.0827-4.2292,2.8623-4.718,3.0359c-0.2803,0.0995-0.4465,0.0338-0.5031-0.0891
			c0.325-0.2805,2.5176-2.4482,3.7678-4.3015C41.8438,30.8062,43,27.0305,43,23c0-11.0457-8.9543-20-20-20S3,11.9543,3,23
			s8.9543,20,20,20c4.0305,0,7.7753-1.2026,10.9155-3.2537l17.0283,18.2685c1.1622,1.1622,2.9944,1.3178,4.3236,0.3511
			c1.0001-0.7274,1.4528-0.8358,3.0986-3.0986C59.3326,53.9381,59.177,52.106,58.0148,50.9437z M23,37.4186
			c-7.9504,0-14.4186-6.4681-14.4186-14.4186S15.0496,8.5814,23,8.5814S37.4186,15.0496,37.4186,23S30.9504,37.4186,23,37.4186z"/>
	</g>
</g>
</svg>
