<?xml version="1.0" encoding="utf-8"?>
<!-- Generator: Adobe Illustrator 18.1.0, SVG Export Plug-In . SVG Version: 6.00 Build 0)  -->
<svg version="1.2" baseProfile="tiny" xmlns="http://www.w3.org/2000/svg" xmlns:xlink="http://www.w3.org/1999/xlink" x="0px"
	 y="0px" width="64px" height="64px" viewBox="0 0 64 64" xml:space="preserve">
<g id="_x36_4px_Boxes">
	<rect fill="none" width="64" height="64"/>
</g>
<g id="Label">
</g>
<g id="Production">
	<path d="M52.6128,44.1104c-2.1834-2.3746-8.462-4.4866-11.386-5.3734c-0.155-1.1155-0.3614-2.4073-0.5466-3.4836
		c1.3796-1.6712,2.3362-3.3859,2.8715-5.1342c1.0905-0.136,1.9662-0.9709,2.1335-2.0961l1.2872-8.467
		c0.1863-1.2598-0.5859-2.459-1.7959-2.791c-0.0804-0.022-0.1627-0.0363-0.2432-0.0579c0.1631-3.0821,0.0842-6.6757-0.9493-8.3299
		c-1.6026-2.5649-3.5498-3.8159-7.2632-2.9775c-2.4355-1.1577-4.0937-1.8823-8.3608-0.8398c-2.9649,0.7241-6.21,1.9067-7.92,3.8798
		c-1.3066,1.5079-1.5078,5.1456-1.4042,8.2749c-0.0701,0.0189-0.1417,0.0312-0.2117,0.0504
		c-1.2104,0.332-1.9827,1.5312-1.7964,2.791l1.2872,8.467c0.1664,1.1207,1.0344,1.9526,2.1175,2.0947
		c0.5819,1.9501,1.6851,3.8402,3.3419,5.6948c-0.106,0.807-0.2283,1.7498-0.353,2.7313c-2.5129,0.7345-9.6714,2.9969-12.0341,5.5665
		C8.5137,47.2344,7,59,7,59h25h25C57,59,55.4863,47.2344,52.6128,44.1104z M22.1844,27.0262
		c-0.5543,0.1115-1.087-0.2583-1.171-0.8237L20.79,24.6828c2.7266-1.4611,8.2126-2.3074,8.2126-2.3074
		c0.0037-0.0599-0.0119-0.2706-0.345-0.2757c0,0-2.8392-0.4636-8.1561,0.6202l-0.3421-2.3277
		c-0.0762-0.5126,0.2457-1.0074,0.7439-1.1286c7.2659-1.7665,14.9275-1.7665,22.1934,0c0.4982,0.1212,0.8201,0.616,0.7439,1.1286
		L43.62,21.893c-2.6028-0.9282-4.8683-0.8817-4.8683-0.8817c-0.3311-0.0364-0.3728,0.1707-0.3766,0.2305
		c0,0,2.6736,0.5641,5.0601,1.9083l-0.4486,3.0522c-0.084,0.5654-0.6167,0.9352-1.171,0.8237
		c-3.2292-0.6492-6.5238-0.9778-9.8153-0.9778C28.7083,26.0483,25.4136,26.377,22.1844,27.0262z M34.7499,13.1467l3.3331,2.2387
		c-2.6577-0.3246-5.3373-0.4241-8.0117-0.3215C31.5254,14.6097,33.107,13.9952,34.7499,13.1467z M32.381,49.3398
		c-2.3003-1.75-6.5919-5.5302-6.1588-9.0224c0.237-1.9129,0.0408-0.5492,0.8235-5.4371c-1.5668-1.514-2.899-3.2567-3.5871-5.234
		c5.6272-1.0396,11.4406-1.0408,17.0687-0.0028c-0.8804,2.363-2.7657,4.3215-4.809,6.0604
		c-0.7807,0.6644-2.2499,1.1066-3.7188,1.1055c-1.0628-0.0008-2.1255-0.2865-2.9271-0.6349
		c0.6138,0.9305,1.6553,2.0744,3.5848,2.5851c3.1548,0.8349,5.4595-0.9139,5.4595-0.9139s0.2828,1.9133,0.2745,2.4157
		C38.7179,43.7497,34.8344,47.5783,32.381,49.3398z"/>
</g>
</svg>
