<?xml version="1.0" encoding="utf-8"?>
<!-- Generator: Adobe Illustrator 21.0.2, SVG Export Plug-In . SVG Version: 6.00 Build 0)  -->
<!DOCTYPE svg PUBLIC "-//W3C//DTD SVG 1.1//EN" "http://www.w3.org/Graphics/SVG/1.1/DTD/svg11.dtd">
<svg version="1.1" xmlns="http://www.w3.org/2000/svg" xmlns:xlink="http://www.w3.org/1999/xlink" x="0px" y="0px" width="64px"
	 height="64px" viewBox="0 0 64 64" style="enable-background:new 0 0 64 64;" xml:space="preserve">
<style type="text/css">
	.st0{fill:none;}
</style>
<g id="Box">
	<rect class="st0" width="64" height="64"/>
</g>
<g id="Icon">
	<g>
		<path d="M28.8,11.9c3.1-0.4,4.6-2.9,4.1-6c-0.5-3.6-2.7-5.2-5.7-4.8c-3.2,0.5-4.6,3-4.1,6.2C23.6,10.7,25.7,12.4,28.8,11.9z"/>
		<g>
			<path d="M31.7,31.8c-1.9-0.1-5.9-0.5-8.6-0.7l0,7l0,20c0.2,5.1,4.9,5.2,4.9,5.2s0.9-24.3,1-24.7c0-0.3,0.2-0.6,0.5-0.6
				c0.4,0,0.5,0.3,0.5,0.5c0,0.2,0.7,19.3,0.7,19.3C31,63,36,63,36,63V38v-6.8c0,0-3.2,0.5-3.4,0.6S32,31.8,31.7,31.8z"/>
		</g>
		<path d="M44.9,20.9l-3.7,0.6l1.1-3.6c0.2-0.5-0.1-1.1-0.7-1.2c-0.5-0.2-1.1,0.1-1.2,0.7L39,21.8l-3.5,0.5
			c-0.4,0.1-0.7,0.3-0.8,0.6l-1.5,4c-0.7-0.1-10.7-0.9-11.2-1c0.1-1.1,0.3-2.7,0.6-3.7C22.7,21.9,23,22,23,22l0,3
			c0.3,0,8.7,0.8,9.5,0.8l1.2-3.2c0.3-0.7,0.9-1.2,1.7-1.4l2.3-0.3c-0.1-0.5-0.3-1.2-0.5-2.1c-0.6-2.7-2.3-4.1-4.4-4.5
			c-2.9-0.5-6.2-0.2-8.8,0.4c-4.2,1-5.4,5.9-5.8,11.5c-0.1,1.8,0.6,3.1,3.2,3.5l0,0c2.4,0.3,8,0.8,10.4,1c0.2,0,0.6,0,0.7,0
			c1-0.2,9.5-1.6,9.5-1.6c0.3-0.1,0.6-0.3,0.8-0.6l2.7-6.8C45.6,21.2,45.3,20.9,44.9,20.9z"/>
		<path d="M41.5,6.8c-2.3,0-4.4,0.5-6.3,1.5l1,2.3c1.6-0.8,3.4-1.3,5.3-1.3c3,0,5.7,1.1,7.8,3l1.7-1.8C48.5,8.2,45.2,6.8,41.5,6.8z"
			/>
		<path d="M37.2,12.8l1,2.3c1-0.6,2.1-0.9,3.3-0.9c1.7,0,3.2,0.6,4.4,1.6l1.7-1.8c-1.6-1.4-3.8-2.3-6.1-2.3
			C39.9,11.8,38.5,12.1,37.2,12.8z"/>
	</g>
</g>
</svg>
