<svg height="64" viewBox="0 0 64 64" width="64" xmlns="http://www.w3.org/2000/svg"><path d="m0 0h64v64h-64z" fill="none"/><path d="m28.6335 17.5363c2.5942-.6539 3.6375-2.8486 2.9781-5.4645-.7507-2.9795-2.7225-4.1818-5.2491-3.5453-2.6614.6709-3.619 2.9213-2.9412 5.61.7142 2.8337 2.6184 4.0534 5.2122 3.3998z"/><circle cx="50" cy="6" r="4.95"/><path d="m44.7798 39.9381c-.8793-2.6039-6.5572-4.6203-9.2388-5.5642.6124-6.0767.0933-10.9765-.3474-13.6707 1.8205-1.4613 4.3603-3.6005 5.4365-5.7354.4317-1.0001 1.2389-2.6192 1.6298-5.6907.5321-5.0591-2.3674-5.6306-2.9675-5.6934-.3633 3.1425-.7721 5.7462-2.034 8.671-.4579 1.1976-1.5547 2.205-2.5345 3.0711-5.3913 4.6875-6.9097 5.2003-11.1789 8.8202-1.2328 1.0536-2.9267 2.5749-3.9208 3.8655-.3821.5559-.7077 1.247-.9639 1.868-.6786 1.6581-1.1668 3.4014-1.6403 5.4554s.0877 4.2794 2.0754 4.985c.03-.2593.0238-.1554.0055.002.0036.0013.0071.0027.0107.0039.6921-2.4402 2.0399-6.4827 3.2532-8.7144.5447-1.0009.9326-1.5695 3.9628-3.826.7433 6.1871-.7387 8.9011.4089 10.9877.7836 1.4246 3.2683 2.0141 4.8735 2.2743.0231.0693.051.2448-.2221.3504-.311.1203-2.3632.3439-4.2197.1471-.2426 3.9249-.404 5.5505-.4996 6.6003-.0748 1.0111-.4185 1.6674-.6445 2.1654-.4539 1.0003-2.4592 4.496-3.4989 6.2501-1.5264 2.5686-1.2791 5.0623.0909 6.7905 1.2352-1.2731 6.316-7.8504 8.3513-11.0824.7202-1.1436.8703-1.6056 1.2307-3.2437.199-1.001.6188-3.0189 1.4003-7.7445 1 .0714 4.2259.6497 5.7637 1.1359-.5529 2.2317-1.8939 5.8856-2.7026 8.0216-1.1982 3.9272.811 5.9013 1.4785 6.4244 1.2274-2.3382 5.9616-11.1497 6.7236-14.5328.3438-1.6898-.0818-2.3916-.0818-2.3916z"/></svg>