<svg height="64" viewBox="0 0 64 64" width="64" xmlns="http://www.w3.org/2000/svg"><path d="m0 0h64v64h-64z" fill="none"/><path d="m51.7886 43.6182c-1.1527-1.2612-3.4918-3.1357-5.8311-4.8964-6.4105 8.8259-14.9074 13.5274-25.2434 15.1175-.6435.099-.5906-.2387-.5906-.2387 8.0396-2.7534 17.7511-7.6456 21.8944-15.1157 2.4358-4.3914 3.9821-10.1803 3.9821-16.0845 0-10.2178-6.2681-17.4004-14-17.4004s-14 7.1826-14 17.4004c0 10.3831 4.6942 20.4601 10.9674 22.9889-.0299.1654-.2186.1934-.483.1419-4.1711-.8113-7.3831-3.8375-9.8911-7.222-2.5154 1.8747-5.1385 3.9485-6.3819 5.3089-2.7583 3.0176-4.2114 14.3819-4.2114 14.3819h48s-1.4531-11.3643-4.2114-14.3818zm-28.742-23.9814s2.9554-1.8368 8.9539-1.8368c5.9975 0 8.9533 1.8368 8.9533 1.8368s.5938 3.7034-.231 8.6092c-.6221 3.7044-3.4311 9.954-8.7223 9.954-5.2918 0-8.1007-6.2496-8.7233-9.954-.8243-4.9058-.2306-8.6092-.2306-8.6092z"/></svg>