<svg height="64" viewBox="0 0 64 64" width="64" xmlns="http://www.w3.org/2000/svg"><path d="m0 0h64v64h-64z" fill="none"/><path d="m30.5772 47.3715c-.1876-.0847-.3704-.1712-.5646-.2526l-5.2082-1.7422c-.5698-.1555-.9534-.6402-1.0817-1.2167-.1133-.5096-.1736-1.094-.1736-1.094 1.3535-1.5118 2.3575-3.3379 2.6978-5.7507 1.2942-.3989 1.5531-2.0149 1.5531-3.0225 0-1.0072-.1774-1.5522-.539-1.7211-.1744-.0812-.3447-.0805-.4962-.0483.1301-2.0985.2597-6.2566-.6149-7.819-.9562-1.7081-2.2279-2.1511-4.4433-1.5928-1.4531-.7709-2.4424-1.5335-4.9882-.8393-1.7689.4822-3.7049 1.2698-4.7251 2.5837-1.1007 1.4179-.8885 5.5533-.7026 7.6775-.1639-.0448-.3563-.0528-.5517.0382-.3616.1689-.539.7139-.539 1.7211 0 1.0076.2589 2.6236 1.5531 3.0225.4153 3.4561 2.1442 5.4783 4.2723 7.2701.5622.4736 1.5749.722 2.629.769.0956.171.0956.3741-.2825.4989-.6326.2088-2.611.5042-4.7431-.6054-.0177-.0092-.0303-.0176-.0476-.0267-1 .2682-4.8621 1.5825-4.8621 1.5825-1.6133.6371-3.1648 1.4049-3.9398 2.2211-2.001 2.1066-2.7793 9.9693-2.7793 9.9693h21.8966c.2052-2.6383.8413-6.9595 2.8167-9.0391.7799-.8213 2.0221-1.652 3.8639-2.5835z"/><path d="m59.6913 51.4699c-.7512-.7911-2.2476-1.6531-3.8936-2.4476-2.1555-1.0661-4.5644-2.0096-5.8475-2.4903-.4911-.184-.8024-.6351-.8893-1.1523-.1077-.6421-.2283-1.5938-.3231-2.3955 3.2506-.132 5.939-.4526 7.0569-.8785.2209-.0841.3326-.2867.2341-.5016-.6116-1.3344-2.2013-5.7234-2.4012-8.0156-.4907-5.6257-.4705-15.6935-8.1783-13.1677 0 0-4.8948-3.1271-8.8703 2.1046-2.7969 3.6808-2.1154 8.5341-2.2274 11.2406-.0797 1.9249-1.6548 6.3695-2.3177 7.5209-.1411.2452-.0928.4931.1729.5895 1.2.4355 3.9014.7729 7.0768.9735-.0632.5732-.1452 1.2421-.238 1.8435h-.0031c-.0129.0913-.0253.1655-.0382.2526-.0248.1494-.0496.2999-.0757.4337-.1004.5148-.3981.9684-.8893 1.1523-.5391.2021-1.2829.4892-2.1173.8293.0016.0007.0031.0014.0048.0021-1.1501.469-2.4771 1.0416-3.7249 1.6588-1.6459.7945-3.1423 1.6565-3.8935 2.4476-2.2013 2.3179-2.3084 9.5302-2.3084 9.5302h36s-.1071-7.2123-2.3087-9.5301z"/><path d="m17.2875 17.5315c2 .3421 4.9677.4341 6.782.459l6.9371 4.9081c.3032.1927.7025.1027.8934-.2011.0883-.1411.1171-.3002.0907-.4527l-2.5581-8.2838s.1791-.1677.3998.1004c.1519.1845 1.8679 2.11 3.1758 3.5756.2451-.0322.4813-.0673.705-.1055 2.4821-.4242 2.283-7.5315 2.283-7.5315s.1991-7.1073-2.2831-7.5315c-2.7353-.4678-7.2904-.4685-8.2125-.4685l-.0006.0011v-.0011c-.9221 0-5.4772.0007-8.2125.4685-2.4822.4242-2.2831 7.5315-2.2831 7.5315s-.1991 7.1073 2.2831 7.5315z"/></svg>