<?xml version="1.0" encoding="utf-8"?>
<!-- Generator: Adobe Illustrator 22.1.0, SVG Export Plug-In . SVG Version: 6.00 Build 0)  -->
<!DOCTYPE svg PUBLIC "-//W3C//DTD SVG 1.1//EN" "http://www.w3.org/Graphics/SVG/1.1/DTD/svg11.dtd">
<svg version="1.1" xmlns="http://www.w3.org/2000/svg" xmlns:xlink="http://www.w3.org/1999/xlink" x="0px" y="0px" width="64px"
	 height="64px" viewBox="0 0 64 64" style="enable-background:new 0 0 64 64;" xml:space="preserve">
<style type="text/css">
	.st0{fill:none;}
</style>
<g id="Box">
	<rect class="st0" width="64" height="64"/>
</g>
<g id="Label">
</g>
<g id="Icon">
	<g>
		<path d="M47.4,27l-1.5-0.4c-0.3-0.1-0.4-0.3-0.3-0.6h1.5h2.2c0.6,0,1.1-0.5,1.2-1.1l0.4-3.3c0.1-0.8-0.7-1.5-1.5-1.3
			c-1.4,0.4-3.5,1.4-4.8,2.9H41c-0.4,0-0.8,0.3-0.8,0.8c0,0.4,0.3,0.8,0.8,0.8h3.2c0.4,2.4,1.6,9.6,1.2,12.2
			c-0.3,1.8-1.2,3.6-1.9,4.7c-0.6,0.9-1.5,1.4-2.5,1.4h-6v3.9h6.4c1.7,0,3.3-0.8,4.4-2.1l6-7.2L47.4,27z"/>
		<path d="M28.5,15.8c2.2,0,3.5-1.6,3.5-3.8C32,9.4,30.7,8,28.5,8C26.2,8,25,9.6,25,12C25,14.4,26.3,15.8,28.5,15.8z"/>
		<path d="M34.1,35.6c1,0,2.8-0.6,2.8-2.8c0-6.3,0.3-14-4.3-15.1c-2.4-0.6-5.7-0.6-8,0c-4.6,1.1-4.4,8.8-4.4,15.1
			c0,2.2,1.8,2.8,2.8,2.8c0-0.1,0-1.2,0-2.2c0-0.5,0-3.3,0-3.6c0-2.7,0.5-5.6,0.8-6.6c0.1-0.3,0.3-0.2,0.3-0.2v12V53
			c0,0,3.3,0,3.6-3.7c0,0,0.5-14,0.5-14.1c0-0.2,0.1-0.4,0.4-0.4s0.4,0.2,0.4,0.4c0,0.2,0.5,14,0.5,14C29.6,53,33,53,33,53V34.8v-12
			c0,0,0.2-0.1,0.3,0.2c0.3,0.9,0.8,3.8,0.8,6.5c0,0.5,0,3.4,0,3.9C34.1,34.6,34.1,35.6,34.1,35.6z"/>
		<path d="M9.5,15.8c2.2,0,3.5-1.6,3.5-3.8C13,9.4,11.7,8,9.5,8C7.2,8,6,9.6,6,12C6,14.4,7.3,15.8,9.5,15.8z"/>
		<path d="M13.5,17.6c-2.4-0.6-5.7-0.6-8,0c-4.6,1.1-4.4,8.8-4.4,15.1c0,2.2,1.8,2.8,2.8,2.8c0-0.1,0-1.2,0-2.2c0-0.5,0-3.3,0-3.6
			c0-2.7,0.5-5.6,0.8-6.6C4.8,22.8,5,22.9,5,22.9v12V53c0,0,3.3,0,3.6-3.7c0,0,0.5-14,0.5-14.1c0-0.2,0.1-0.4,0.4-0.4
			s0.4,0.2,0.4,0.4c0,0.2,0.5,14,0.5,14C10.6,53,14,53,14,53V34.8v-12c0,0,0.2-0.1,0.3,0.2c0.3,0.9,0.8,3.8,0.8,6.5
			c0,0.5,0,3.4,0,3.9c0,1,0,2,0,2c1,0,2.8-0.6,2.8-2.8C17.9,26.4,18.2,18.7,13.5,17.6z"/>
		<path d="M53.9,38.4L47.6,46h1.7c0.9,0,1.6-0.2,3-1.1c1-0.6,2.2-1,3.4-1h4.5c0.4,0,0.8-0.3,0.8-0.8C61,40.3,58.3,37.1,53.9,38.4z"
			/>
		<path d="M57,46c0.1,0.2,0.1,0.5,0.1,0.8c0,1.7-1.4,3.1-3.1,3.1c-1.4,0-2.6-1-3-2.3l-0.1,0c-0.8,0.5-1.6,0.7-2.5,0.7h-0.4
			c0.7,2.7,3.1,4.6,6,4.6c3.4,0,6.2-2.8,6.2-6.2c0-0.3,0-0.5-0.1-0.8H57z"/>
	</g>
</g>
</svg>
