<?xml version="1.0" encoding="utf-8"?>
<!-- Generator: Adobe Illustrator 19.1.0, SVG Export Plug-In . SVG Version: 6.00 Build 0)  -->
<svg version="1.2" baseProfile="tiny" xmlns="http://www.w3.org/2000/svg" xmlns:xlink="http://www.w3.org/1999/xlink" x="0px"
	 y="0px" width="64px" height="64px" viewBox="0 0 64 64" xml:space="preserve">
<g id="_x36_4px_Box">
	<rect fill="none" width="64" height="64"/>
</g>
<g id="Icon">
	<g>
		<path d="M13.4998,11.9775c3.1371,0,4.952-2.2095,4.952-5.3888c0-3.6236-1.8971-5.5663-4.952-5.5663
			c-3.2183,0-4.952,2.2967-4.952,5.5663C8.5478,10.0338,10.3632,11.9775,13.4998,11.9775z"/>
		<path d="M19.024,14.7021c-3.3368-0.7958-7.8055-0.7958-11.0487,0c-6.362,1.5612-5.9421,11.6472-5.9421,20.357
			c0.2096,3.0518,2.4544,3.92,3.8006,3.92c0-0.1417,0-8.6409,0-9.1666c0-3.4489,0.3358-6.1401,0.7565-7.4819
			C6.7185,21.9219,6.9998,22,6.9998,22v41c0,0,4.8654,0.0391,5.2372-5.0498c0,0,0.7277-19.2431,0.7359-19.457
			C12.9811,38.2793,13.1404,38,13.4998,38s0.5083,0.2793,0.5165,0.4932c0.0082,0.2139,0.7308,19.3173,0.7308,19.3173
			C15.0359,63.0488,19.9998,63,19.9998,63V22c0,0,0.3024-0.1048,0.4494,0.3306c0.4062,1.2031,0.7165,4.033,0.7165,7.435
			c0,0.7024,0,9.2135,0,9.2135c1.3462,0,3.5612-0.837,3.8007-3.92C24.9664,26.3493,25.3962,16.2219,19.024,14.7021z"/>
		<path d="M47.5,11.9775c3.1371,0,4.952-2.2095,4.952-5.3888c0-3.6236-1.8972-5.5663-4.952-5.5663
			c-3.2183,0-4.952,2.2967-4.952,5.5663C42.548,10.0338,44.3634,11.9775,47.5,11.9775z"/>
		<path d="M35.0266,27.9514c0.9893-0.666,3.7739-2.3798,4.7857-3.3776c0.5509-0.5118,1.1703-1.2046,1.7778-1.9377L41.3236,29
			h12.6231v-7c0,0,0.3024-0.1048,0.4494,0.3306c0.375,1.1108,0.665,3.6154,0.7078,6.6694h3.7875
			c-0.139-6.8201-1.0016-13.1248-5.9205-14.2979c-2.2726-0.542-5.0702-0.7148-7.6481-0.5186
			c-2.2175,0.1688-4.2209,1.3895-5.4466,3.2452c-1.0589,1.6033-2.1614,3.3762-2.9233,4.1273
			c-1.0107,1.0422-4.9447,3.9671-7.9529,6.4408C29.0197,28.0143,31.5744,30.275,35.0266,27.9514z"/>
		<rect x="27" y="31" width="35" height="4"/>
	</g>
</g>
</svg>
