<svg height="64" viewBox="0 0 64 64" width="64" xmlns="http://www.w3.org/2000/svg"><path d="m0 0h64v64h-64z" fill="none"/><path d="m7.3872 44.0104c-2.8735 3.124-4.3872 14.8896-4.3872 14.8896h8.9777c.5413-3.0029 1.7477-11.0172.7296-18.0912-2.1731.9273-4.2443 2.0315-5.3201 3.2016z"/><path d="m39.9297 28.4567c1.3281-1.2195 2.0679-3.1657 2.0679-5.5557 0-.61-.0109-2.0306-.6855-3.259.6249-.1572 1.2581-.3118 1.9039-.4597.4548-.1042.784-.5131.784-.9796v-1.8718c0-.4272-.2786-.7932-.6797-.9401-.7038-.2578-1.7377-.8873-2.0078-2.3908-.4064-2.2614-.8746-9.3148-8.4913-11.407-.8075 4.1797-.6334 3.2785-1.4571 7.5419-.1018.3172-.3079.2708-.3641.2499 0-9.8738 0 .9665 0-8.0848 0-.0303-.0145-.0586-.0172-.0887-.0454-.5176-.4565-1.0026-.9778-1.0689-1.3314-.168-2.6786-.168-4.01 0-.5212.0663-.9324.5513-.9778 1.0689-.0027.0301-.0172.0584-.0172.0887v8.0848c-.0562.0209-.2623.0673-.3641-.2499-1.2253-6.3419-.6781-3.5097-1.4571-7.5419-7.6168 2.0923-8.085 9.1456-8.4914 11.407-.2701 1.5035-1.304 2.133-2.0078 2.3908-.401.1469-.6796.5129-.6796.9401v1.8718c0 .4665.3292.8754.7839.9796.6473.1482 1.282.3032 1.9082.4608-.677 1.2283-.6898 2.6479-.6898 3.258 0 2.386.7374 4.3299 2.0614 5.5497.3819 2.5118 1.613 4.9141 3.7105 7.2619-.106.807-.2283 1.7498-.353 2.7313-.5432.1588-1.3111.3926-2.1931.6819.3632 2.7508 1.8854 10.9911 7.7113 19.7742h7.0605v-13.2767c-1.2902 1.4955-2.8443 2.7867-4 3.6165-2.3003-1.75-6.2109-5.5302-5.7778-9.0224.2371-1.9129.0408-.5492.8235-5.4371-2.2767-2.1999-4.1043-4.8665-4.1043-8.061-1.6176-.504-2.0413-2.5455-2.0413-3.8184 0-1.2725.3217-1.961.7738-2.1743.392-.1845.7725-.0476 1.0129.0886.1414.6526.2484 1.1383.2898 1.3098.2061.8511 1.0235.7729 1.0235.7729v-1.9188c2.9534.6812 5.4756 1.0208 7.9995 1.0208 2.5214 0 5.0444-.339 8.0005-1.0208v1.9188s.8174.0782 1.0234-.7729c.0415-.1714.1484-.6571.2898-1.3098.2405-.1362.6209-.2731 1.013-.0886.4521.2133.7738.9018.7738 2.1743 0 1.2729-.4237 3.3144-2.0414 3.8183 0 3.7027-2.5335 6.4959-5.3403 8.8846-1.056.8988-3.8212 1.6984-6.6459.4706.6138.9305 1.6553 2.0744 3.5848 2.5851 3.1548.8349 5.4595-.9139 5.4595-.9139l.0002.0016c1.2689-.9577 5.0893-4.7112 5.8128-9.2906z"/><path d="m49.0012 55c7.8499 0 13.9988-3.3747 13.9988-7.6786 0-.6324 0-3.0202 0-3.6548 0-4.2993-6.1489-7.6666-13.9988-7.6666-7.852 0-14.0012 3.3673-14.0012 7.6666v3.6548c0 .9493.3142 1.8492.865 2.6819-.553.8255-.865 1.7191-.865 2.6633v3.6548c0 4.3039 6.1492 7.6786 14.0012 7.6786 7.8499 0 13.9988-3.3747 13.9988-7.6786v-3.6548c0-.2049-.0266-.4056-.0542-.606-.7144.8958-4.5718 5.1376-13.6127 5.1376-8.0173 0-10.7806-3.8577-11.0668-4.3807-.1169-.2137-.2019-.4362-.0765-.5667 2.5482 1.6889 6.4118 2.7492 10.8114 2.7492zm-11.3-11c0-2.8444 5.0601-5.15 11.302-5.15s11.302 2.3057 11.302 5.15-5.0601 5.15-11.302 5.15-11.302-2.3057-11.302-5.15z"/><path d="m46.8542 45.7261v.6766h1.5551v-.5565c.3053.0191.6703.0191 1.016.0191h.384v.5374h1.5168v-.6166c2.7834-.2999 4.1094-1.2643 4.1094-2.6701 0-.5469-.0571-.7845-.3076-1.3435h-2.0559c.2123.5182.2886.7773.2886 1.2546 0 .6166-.5938 1.1155-2.0344 1.334v-1.7634h-1.5168v1.8928c-.1907.0096-.384.0193-.6128.0193-.2697 0-.52-.0098-.7872-.0193v-1.8928h-1.5551v1.7538c-1.4023-.2089-2.1322-.6575-2.1322-1.3748 0-.4078.0763-.6454.2479-1.1539h-2.168c-.174.4269-.2312.7269-.2312 1.1226 0 1.4157 1.4404 2.4208 4.2834 2.7807z"/></svg>