<?xml version="1.0" encoding="utf-8"?>
<!-- Generator: Adobe Illustrator 21.0.2, SVG Export Plug-In . SVG Version: 6.00 Build 0)  -->
<!DOCTYPE svg PUBLIC "-//W3C//DTD SVG 1.1//EN" "http://www.w3.org/Graphics/SVG/1.1/DTD/svg11.dtd">
<svg version="1.1" xmlns="http://www.w3.org/2000/svg" xmlns:xlink="http://www.w3.org/1999/xlink" x="0px" y="0px" width="64px"
	 height="64px" viewBox="0 0 64 64" style="enable-background:new 0 0 64 64;" xml:space="preserve">
<style type="text/css">
	.st0{fill:none;}
</style>
<g id="_x36_4px_Box">
	<rect class="st0" width="64" height="64"/>
</g>
<g id="Icon">
	<g>
		<path d="M10.1,46.2C8.1,50.7,7,59,7,59h10.6C15.7,51.1,11.8,47.4,10.1,46.2z"/>
		<path d="M53.9,46.2c-1.7,1.2-5.6,4.9-7.5,12.8H57C57,59,55.9,50.7,53.9,46.2z"/>
		<path d="M52.2,43.7c-2.5-2.2-8.2-4.1-11-5c-0.2-1.1-0.4-2.4-0.5-3.5c1.8-2.2,2.9-4.4,3.2-6.7c1.3-1.2,2.1-3.2,2.1-5.6
			c0-1.8-0.3-3.2-1.6-4.4c0.7-2.1,1.2-5.7,1.3-8.3c0.8-0.5,1.9-0.8,1.9-0.8C44.2,2.7,37,6,37,6c-3-5-12-5-12-5c1.3,1.3,2,3,2,3
			c-9.8-1-10.9,7.1-10.9,7.1s1-0.4,2.2-0.7c0.1,2.9,0.7,6.1,1.3,8.3C18.8,19.3,18,20.6,18,23c0,2.4,0.7,4.3,2.1,5.5
			c0.4,2.5,1.6,4.9,3.7,7.3c-0.1,0.8-0.2,1.7-0.4,2.7c-2.4,0.7-8.9,2.8-11.6,5.1c2.1,1.5,6.9,6,8.9,15.3h22.6
			C45.3,49.6,50.1,45.2,52.2,43.7z M22,15.6c-0.3-1.3-0.5-2.8-0.6-4.1c7-0.9,14.2-0.9,21.2,0c-0.1,1.3-0.3,2.7-0.6,4.1
			C35.4,14.8,28.6,14.8,22,15.6z M37.8,42.9c-2.4,4.9-9.7,4.7-11.3-0.5c-0.2-0.7-0.3-1.4-0.2-2.1c0.2-1.9,0-0.5,0.8-5.4
			c-2.3-2.2-4.1-4.9-4.1-8.1c-1.6-0.5-2-2.5-2-3.8c0-1.3,0.3-2,0.8-2.2c0.4-0.2,0.8,0,1,0.1c0.1,0.7,0.2,1.1,0.3,1.3
			c0.2,0.9,1,0.8,1,0.8v-4.7c2-0.2,3.9-0.3,5.9-0.4c-0.3,1.9-1.2,3.4-1.2,3.4c3.2-0.3,5.2-2.1,6.2-3.4c0.4,0,0.9,0,1.3,0.1
			c0.6,1.6,1.6,2.8,1.6,2.8c0.9-1.2,1.8-2,2.3-2.4V23c0,0,0.8,0.1,1-0.8c0-0.2,0.1-0.7,0.3-1.3c0.2-0.1,0.6-0.3,1-0.1
			c0.5,0.2,0.8,0.9,0.8,2.2c0,1.3-0.4,3.3-2,3.8c0,3.7-2.5,6.5-5.3,8.9c-0.8,0.7-2.2,1.1-3.7,1.1c-1.1,0-2.1-0.3-2.9-0.6
			c0.6,0.9,1.7,2.1,3.6,2.6c3.2,0.8,5.5-0.9,5.5-0.9s0.3,1.9,0.3,2.4C38.4,41.2,38.2,42.1,37.8,42.9z"/>
	</g>
</g>
</svg>
