<?xml version="1.0" encoding="utf-8"?>
<!-- Generator: Adobe Illustrator 19.1.0, SVG Export Plug-In . SVG Version: 6.00 Build 0)  -->
<svg version="1.2" baseProfile="tiny" xmlns="http://www.w3.org/2000/svg" xmlns:xlink="http://www.w3.org/1999/xlink" x="0px"
	 y="0px" width="64px" height="64px" viewBox="0 0 64 64" xml:space="preserve">
<g id="Box">
	<rect fill="none" width="64" height="64"/>
	<rect fill="none" width="64" height="64"/>
</g>
<g id="Icon">
	<g>
		<path d="M31.51,8.6312c2.0905,0,3.3-1.4785,3.3-3.6075c0-2.4249-1.264-3.7258-3.3-3.7258c-2.1448,0-3.3,1.5376-3.3,3.7258
			C28.21,7.3303,29.4203,8.6312,31.51,8.6312z"/>
		<path d="M39,55V45H24v5H12v12h39v-7H39z M33,58h-2v-6.1758c-0.7524,0-1.2637,0.0479-2,0.1758v-1.689
			c0.9761-0.2881,1.9653-0.5048,2.8779-0.5048H33V58z"/>
		<path d="M25.9962,27.6996c0,0,0-7.3284,0-8.7149c0-1,0-2,0.4333-2.8088c0.2212-0.4129,0.5197-0.4773,0.577-0.4086v28.2174
			c2.0392,0,3.4034-1.1217,3.5776-3.3745c0,0,0.4343-13.4573,0.44-13.6055c0.0057-0.1483,0.2454-0.341,0.486-0.341
			s0.4803,0.1927,0.486,0.341c0.0057,0.1482,0.44,13.6055,0.44,13.6055c0.1742,2.2528,1.4384,3.3745,3.4775,3.3745V15.7673
			c0.0573-0.0687,0.4456-0.0043,0.6667,0.4086c0.4333,0.8088,0.4333,1.8088,0.4333,2.8088c0,1.3865,0,8.7149,0,8.7149
			c0.9733,0,2.6107-0.5995,2.741-2.7149c0.2507-4.0702,0.7021-11.1615-2.2545-13.6593c-1.2509-1.0567-3.9951-1.281-5.9901-1.3254
			c-1.9951,0.0444-4.7393,0.2687-5.9901,1.3254c-2.9566,2.4978-2.5052,9.5891-2.2545,13.6593
			C23.3958,27.1002,25.0229,27.6996,25.9962,27.6996z"/>
	</g>
</g>
</svg>
