<?xml version="1.0" encoding="utf-8"?>
<!-- Generator: Adobe Illustrator 19.1.0, SVG Export Plug-In . SVG Version: 6.00 Build 0)  -->
<svg version="1.2" baseProfile="tiny" xmlns="http://www.w3.org/2000/svg" xmlns:xlink="http://www.w3.org/1999/xlink" x="0px"
	 y="0px" width="64px" height="64px" viewBox="0 0 64 64" xml:space="preserve">
<g id="_x36_4px_Box">
	<rect fill="none" width="64" height="64"/>
</g>
<g id="Icon">
	<g>
		<path d="M30.5772,47.3715c-0.1876-0.0847-0.3704-0.1712-0.5646-0.2526l-5.2082-1.7422c-0.5698-0.1555-0.9534-0.6402-1.0817-1.2167
			c-0.1133-0.5096-0.1736-1.094-0.1736-1.094c1.3535-1.5118,2.3575-3.3379,2.6978-5.7507c1.2942-0.3989,1.5531-2.0149,1.5531-3.0225
			c0-1.0072-0.1774-1.5522-0.539-1.7211c-0.1744-0.0812-0.3447-0.0805-0.4962-0.0483c0.1301-2.0985,0.2597-6.2566-0.6149-7.819
			c-0.9562-1.7081-2.2279-2.1511-4.4433-1.5928c-1.4531-0.7709-2.4424-1.5335-4.9882-0.8393
			c-1.7689,0.4822-3.7049,1.2698-4.7251,2.5837c-1.1007,1.4179-0.8885,5.5533-0.7026,7.6775
			c-0.1639-0.0448-0.3563-0.0528-0.5517,0.0382c-0.3616,0.1689-0.539,0.7139-0.539,1.7211c0,1.0076,0.2589,2.6236,1.5531,3.0225
			c0.4153,3.4561,2.1442,5.4783,4.2723,7.2701c0.5622,0.4736,1.5749,0.722,2.629,0.769c0.0956,0.171,0.0956,0.3741-0.2825,0.4989
			c-0.6326,0.2088-2.611,0.5042-4.7431-0.6054c-0.0177-0.0092-0.0303-0.0176-0.0476-0.0267c-1,0.2682-4.8621,1.5825-4.8621,1.5825
			c-1.6133,0.6371-3.1648,1.4049-3.9398,2.2211C2.7783,51.1314,2,58.9941,2,58.9941c8.5443,0,14.893,0,21.8966,0
			c0.2052-2.6383,0.8413-6.9595,2.8167-9.0391C27.4932,49.1337,28.7354,48.303,30.5772,47.3715z"/>
		<path d="M59.6913,51.4699c-0.7512-0.7911-2.2476-1.6531-3.8936-2.4476c-2.1555-1.0661-4.5644-2.0096-5.8475-2.4903
			c-0.4911-0.184-0.8024-0.6351-0.8893-1.1523c-0.1077-0.6421-0.2283-1.5938-0.3231-2.3955c3.2506-0.132,5.939-0.4526,7.0569-0.8785
			c0.2209-0.0841,0.3326-0.2867,0.2341-0.5016c-0.6116-1.3344-2.2013-5.7234-2.4012-8.0156
			c-0.4907-5.6257-0.4705-15.6935-8.1783-13.1677c0,0-4.8948-3.1271-8.8703,2.1046c-2.7969,3.6808-2.1154,8.5341-2.2274,11.2406
			c-0.0797,1.9249-1.6548,6.3695-2.3177,7.5209c-0.1411,0.2452-0.0928,0.4931,0.1729,0.5895c1.2,0.4355,3.9014,0.7729,7.0768,0.9735
			c-0.0632,0.5732-0.1452,1.2421-0.238,1.8435h-0.0031c-0.0129,0.0913-0.0253,0.1655-0.0382,0.2526
			c-0.0248,0.1494-0.0496,0.2999-0.0757,0.4337c-0.1004,0.5148-0.3981,0.9684-0.8893,1.1523
			c-0.5391,0.2021-1.2829,0.4892-2.1173,0.8293c0.0016,0.0007,0.0031,0.0014,0.0048,0.0021
			c-1.1501,0.469-2.4771,1.0416-3.7249,1.6588c-1.6459,0.7945-3.1423,1.6565-3.8935,2.4476C26.1071,53.7877,26,61,26,61
			c3.5842,0,31.9349,0,36,0C62,61,61.8929,53.7877,59.6913,51.4699z"/>
		<path d="M17.2875,17.5315c2,0.3421,4.9677,0.4341,6.782,0.459l6.9371,4.9081c0.3032,0.1927,0.7025,0.1027,0.8934-0.2011
			c0.0883-0.1411,0.1171-0.3002,0.0907-0.4527l-2.5581-8.2838c0,0,0.1791-0.1677,0.3998,0.1004
			c0.1519,0.1845,1.8679,2.11,3.1758,3.5756c0.2451-0.0322,0.4813-0.0673,0.705-0.1055C36.1953,17.1073,35.9962,10,35.9962,10
			s0.1991-7.1073-2.2831-7.5315C30.9778,2.0007,26.4227,2,25.5006,2L25.5,2.0011V2c-0.9221,0-5.4772,0.0007-8.2125,0.4685
			C14.8053,2.8927,15.0044,10,15.0044,10S14.8053,17.1073,17.2875,17.5315z"/>
	</g>
</g>
</svg>
