<svg height="64" viewBox="0 0 64 64" width="64" xmlns="http://www.w3.org/2000/svg"><path d="m0 0h64v64h-64z" fill="none"/><path d="m42.8985 11.795c3.0191.6631 5.2295-1.0668 5.8986-4.1107.7607-3.4667-.6561-5.727-3.5953-6.3731-3.0968-.6799-5.2484 1.1516-5.9354 4.2803-.7239 3.2962.6142 5.5405 3.6321 6.2035z"/><path d="m48.9077 26.4533c-.6946-1.6896-1.6265-8.037-2.3777-9.7803-.7589-1.7609-5.9362-4.5068-9.4987-4.663-1.8873-.0828-8.5353.5858-10.7514 2.8068-.7343.7837-1.046 1.8517-1.0421 2.8517-.0723 3.1351 2.6454 7.8903 4.3214 10.5385-1.3737 4.5952-1.071 4.9882.1417 8.9435.7563 11.1848.6753 9.7691.6861 10.5375-.0353 2.6564-.2916 6.3513-.3835 9.9275-.1071 4.1657 3.0477 4.9882 3.7765 5.1218.6097-3.5014 1.8864-11.145 2.2241-14.6511-.8336-1.9874-2.546-6.0866-3.381-8.2071-.0781-.1982-.0742-.348-.051-.473.5518.7791 4.0935 5.8961 4.301 6.828.6407 2.2643 1.6203 8.147 2.5592 12.1453 1.0853 4.6215 5.3352 4.2031 5.519 4.1829-.3843-4.3127-.843-11.8065-1.3512-16.1318-.2663-2.206-.3801-2.4384-.7275-3.6258-.903-2.8093-2.5458-6.4132-3.812-9.0765.9324-3.9377 2.7423-8.2186 4.2925-11.4703.3687 1.6974 1.039 4.2772 1.7415 5.8518.5402 1.3145 2.4308 3.982 3.0803 4.9823 2.2661 3.4902 5.5023 2.4109 5.5272 2.4025-1.7988-3.4542-4.2727-7.6863-4.7944-9.0412zm-17.9976-2.8069c-.56-1.3624-1.5765-3.5785-1.6214-5.9127 1.1021-.4512 3.2368-.7968 4.2728-.8736-1.1137 2.1116-1.9809 4.6094-2.6514 6.7863z"/><path d="m11.9673 22.6908 11.7815 3.2421-6.4896-4.2326 4.0078-3.9896-11.7815-3.2421 6.4897 4.2327z"/><path d="m16.2509 28.4438-9.6358 7.5144 7.2704-2.6782.8069 5.5971 9.6358-7.5144-7.2704 2.6782z"/></svg>