<?xml version="1.0" encoding="utf-8"?>
<!-- Generator: Adobe Illustrator 21.0.2, SVG Export Plug-In . SVG Version: 6.00 Build 0)  -->
<!DOCTYPE svg PUBLIC "-//W3C//DTD SVG 1.1//EN" "http://www.w3.org/Graphics/SVG/1.1/DTD/svg11.dtd">
<svg version="1.1" xmlns="http://www.w3.org/2000/svg" xmlns:xlink="http://www.w3.org/1999/xlink" x="0px" y="0px" width="64px"
	 height="64px" viewBox="0 0 64 64" style="enable-background:new 0 0 64 64;" xml:space="preserve">
<style type="text/css">
	.st0{fill:none;}
</style>
<g id="_x36_4px_Box">
	<rect class="st0" width="64" height="64"/>
</g>
<g id="Icon">
	<g>
		<g>
			<path d="M32.8,16.9c2.2,0.6,3.9-0.7,4.4-2.9c0.6-2.6-0.4-4.3-2.5-4.8c-2.3-0.6-3.9,0.8-4.5,3.1C29.7,14.6,30.6,16.3,32.8,16.9z
				 M63.2,40.6c-0.3-1-3.2-4.3-5-6.3c0.6-0.7,1.2-1.6,1.4-2.1c0.5-1.2-0.5-2.1-1.4-2.2c-0.4-0.1-1.3,0-2.3,0.5
				c-0.9-2.3-2.1-3.5-4.8-5.2c-3.5-2.1-7.3-4.5-7.3-4.5s-2.1-1.3-3.7-1.9c-0.6-0.2-1.3,0-1.6,0.6l-2.5,4.1c-0.3,0.6-0.3,1.3,0.2,1.7
				c0.7,0.7,1.7,1.4,2.4,1.9l3.2-3.4c0.2-0.2,0.3-0.1,0.3,0l-8,13l-6,9.7c0,0.4,0,0.8,0,1.2c-0.1,2.6-0.2,4.4-0.4,6.8l0,0.3
				c1.2,0.7,2.6,1.6,3.9,2.4c2.7,1.7,4.3,2.2,6.7,2c0.1,1.1,0.4,1.9,0.6,2.3c0.5,0.7,1.7,1.2,2.6,0.2c0.4-0.4,0.9-1.4,1.2-2.2
				c2.6,0.8,6.9,1.9,7.9,1.7c1.4-0.3,3.6-3,7.6-9.4C62.2,45.2,63.6,42,63.2,40.6z M36.7,50.4l-1,3.5c-0.2,0.8-1.2,1.1-1.8,0.6
				l-1-0.8c-0.8-0.7-1.2-1.9-0.6-2.9l2-3.9c0.1-0.2,0.4-0.3,0.6-0.1l1.3,1.4C36.6,48.7,36.8,49.6,36.7,50.4z M35.6,42.9l-1.9-1.2
				l4.7-7.6l1.9,1.2L35.6,42.9z M43.3,32.3l2.6-3.6c0.7-1,1.9-1.1,2.9-0.7l1.2,0.5c0.7,0.3,0.9,1.3,0.3,1.9l-2.7,2.5
				c-0.7,0.5-1.5,0.7-2.3,0.5l-1.8-0.5C43.2,32.8,43.1,32.5,43.3,32.3z M55.7,50.1c-3.2,5.2-5.2,7.8-5.7,8c-0.9,0-5.6-1.4-7.5-2
				c0.6-2.2,2.9-6.6,5.4-10.7s5.5-8.1,7.2-9.7c1.4,1.4,4.8,5,5.2,5.8C60.3,41.9,59,44.9,55.7,50.1z M52.4,23.5
				c0.3,0.2,0.6,0.4,1,0.6c1.1-0.4,1.9-0.8,2.3-1.2c1.3-1.2,2.3-4.1,3-5.9l0,0c0.5-1.5,0.1-3.2-1.3-3.9c-0.4,0.8-2.4,6.4-3.6,7
				c-0.3,0.1-2.9,0.6-5.1,1L52.4,23.5z M45.1,18.6c2.1,0.9,4,0,4.9-2.1c1.1-2.4,0.4-4.3-1.7-5.2c-2.2-0.9-4,0.1-4.9,2.2
				C42.3,15.9,43,17.7,45.1,18.6z M55.7,42.1l-1.6-3.9L54,42.1l-1.6,2.8l-3.2-0.2l1.8,1.5l0.2,4.6l-2.9,0.9l0.2,4.1l1.1-3.1l2.7-0.3
				l0.8-6.1l3.7-1.4l-2.4-0.6L55.7,42.1z M26.4,33.8c1.1-0.1,3.8-1.2,5.3-1.9c0.8-0.4,1.5-0.8,1.9-1.7c0.5-0.9,0.3-1.9,0.3-2.2
				c-2.3,0.9-5.3,2.1-6.9,2.6c-0.6-0.4-1.4-1.2-3.3-3.4c-1.2-1.4-2.1-2.8-5.7-3.9c-3-0.9-8.1-1.2-9.6-0.5c-1.6,0.7-3.5,3.2-4.6,4.7
				l0,0c-0.9,1.3-1,3,0.1,4.1C4.5,30.9,8,26.2,9.4,26c0.4,0,2.8,0.1,4.6,0.5c-1.6,3.3-4,9.1-4.1,10.7c-0.2,3.3,2.2,4.3,4.6,5.2
				c0,0,0,0.1-0.3,0.2c-0.2,0-1.3,0-2.6,0c-0.4,1.5-1.3,4.8-1.9,6.2c-1.8,1.8-4.6,4.8-5.3,5.5c-2,2-0.8,5.2-0.8,5.2
				c2.1-1.5,7.3-5.4,9-7.4c0.6-0.6,0.9-1.2,1.3-2c0.8-1.9,2.2-5.1,2.9-6.9c1.7,0,3.8-0.1,4.7-0.1c0.1,1.8,0.3,6.5,0.3,8.7
				c0,1.2,1.2,3.1,3.5,3.7c0.2-3,0.4-4.9,0.5-7.9c0.1-1.6,0.1-3.2,0.1-5c0-1.1-0.4-2.5-1-3.2c-0.6-0.7-2.5-1.6-7.1-1.9
				c0.8-2.8,2.5-5.3,3.5-7.5C23.1,32,25.2,33.9,26.4,33.8z M20.7,22.6c2.2,0.8,3.9-0.3,4.7-2.5c0.9-2.5,0-4.3-2.1-5
				c-2.2-0.8-4,0.4-4.7,2.6C17.7,20.1,18.5,21.9,20.7,22.6z"/>
		</g>
	</g>
</g>
</svg>
