<svg height="64" viewBox="0 0 64 64" width="64" xmlns="http://www.w3.org/2000/svg"><path d="m0 0h64v64h-64z" fill="none"/><path d="m12.3027 31.252c4.507 1.8797 7.6973-.376 7.6973-.376s-.3149-5.7865-5.0751-7.2902c-3.368-1.064-6.0206-.441-7.2841.0144-.4789.1725-.7459.6824-.6017 1.1731.4674 1.5916 1.8469 5.0537 5.2636 6.4787z"/><path d="m39 38h-28c-.5523 0-1 .4477-1 1v3c0 .5522.4477 1 1 1h1.4482l3.1614 18.1714c.0833.4789.499.8286.9852.8286h16.8104c.4861 0 .9019-.3497.9852-.8286l3.1614-18.1714h1.4482c.5523 0 1-.4478 1-1v-3c0-.5523-.4477-1-1-1z"/><path d="m28.3447 12.962c.2961-.2474.4708-.1625.5469-.0978-4.2946 6.9011-7.1217 14.8702-6.7079 23.1358h4.2938c-.5895-4.2875-.3006-8.4907.7119-12.2164 9.426 1.0221 15.7916-11.9625 11.1957-22.1992-.3043-.6777-1.2278-.7886-1.6984-.2137-7.9283 9.6857-13.6627 4.7379-17.0053 12.0009-1.2411 2.697-.5916 6.1821 1.8977 8.3192 2.1403-4.0284 4.8118-7.0964 6.7656-8.7288z"/><path d="m58.7775 52.2549-8.5604-11.6379c-.2841-.3882-.7368-.6172-1.218-.6158l-5.3231.0152c-.2165.0007-.4203.071-.587.1924-.1655.123-.2933.2966-.3584.5031l-1.5998 5.077c-.1446.4589-.0609.9593.2252 1.3461l8.5604 11.6379c.3292.4451.9864.5175 1.4315.1884l7.1831-5.2836c.4468-.327.5734-.9759.2465-1.4228zm-11.8797-7.0379c-.6778.4894-1.6211.3492-2.1156-.3193-.496-.6707-.3517-1.618.3203-2.1215.6807-.4915 1.6279-.3471 2.1205.3261.4909.6712.3438 1.6135-.3252 2.1147z"/></svg>