<?xml version="1.0" encoding="utf-8"?>
<!-- Generator: Adobe Illustrator 18.0.0, SVG Export Plug-In . SVG Version: 6.00 Build 0)  -->
<svg version="1.2" baseProfile="tiny" xmlns="http://www.w3.org/2000/svg" xmlns:xlink="http://www.w3.org/1999/xlink" x="0px"
	 y="0px" width="64px" height="64px" viewBox="0 0 64 64" xml:space="preserve">
<g id="_x36_4px_box">
	<rect fill="none" width="64" height="64"/>
</g>
<g id="icon">
	<path d="M34.9961,33.2844c-0.3174,0.2383-0.4942-0.0129-0.4942-0.0129s6.1075-8.0527,6.8741-9.6025
		c1.5829-3.1998-0.4105-5.4621-1.332-6.6613c-0.6716-0.874-1.9779-2.5986-2.6388-3.472C36.1375,13.8544,34.371,14.0816,32,14.0816
		c-2.371,0-4.1375-0.2272-5.4052-0.5458c-0.6609,0.8734-1.9673,2.598-2.6389,3.472c-0.9215,1.1992-2.886,3.4473-1.332,6.6613
		c0.7596,1.5709,0.8906,1.8134,1.0704,2.1396C24.8524,27.9103,22,30.1,22,36c0.0693,5.7515,0.2616,15.3495,0.499,18.8203
		C22.7165,58,26,59,32,59s9.2835-1,9.501-4.1797C41.7384,51.3495,41.9307,41.7515,42,36c0-3.2689-0.8745-5.3964-1.4585-7.0035
		L34.9961,33.2844z"/>
	<path d="M37.5369,6.6547C37.3478,5.6866,36.5153,5,35.5582,5h-7.1165c-0.957,0-1.7896,0.6866-1.9787,1.6547
		C26.1891,8.0538,26.0607,9.6378,26,11c0,0.6108,2.6858,1,6,1s6-0.3892,6-1C37.9393,9.6378,37.8109,8.0538,37.5369,6.6547z"/>
</g>
</svg>
