<?xml version="1.0" encoding="utf-8"?>
<!-- Generator: Adobe Illustrator 19.1.0, SVG Export Plug-In . SVG Version: 6.00 Build 0)  -->
<svg version="1.2" baseProfile="tiny" xmlns="http://www.w3.org/2000/svg" xmlns:xlink="http://www.w3.org/1999/xlink" x="0px"
	 y="0px" width="64px" height="64px" viewBox="0 0 64 64" xml:space="preserve">
<g id="_x36_4px_Box">
	<rect fill="none" width="64" height="64"/>
</g>
<g id="Icon">
	<path d="M57.4059,48.7195c-2.7874-1.2191-5.3793-1.6219-7.2128-1.7335c3.8237-2.4802,6.4482-6.7311,6.5599-11.6278
		c0.2213-9.7029-9.2301-10.7983-8.1784-16.2228c0.459-2.3675,3.209-3.2176,5.0898-2.4911c0.407,0.0452,0.3627-0.4579,0.0404-1.0729
		c-0.8607-1.6429-2.4016-2.9529-3.5414-4.1758c1.2481-1.2458,2.2195-2.9017,1.5572-3.7406
		c-0.7819-0.9904-2.3843-0.0441-2.3843-0.0441s0.1617-1.5992-0.9052-2.0753c-1.158-0.5167-2.0752,0.8831-2.0752,0.8831
		s-0.5189-1.4758-1.5675-1.3908c-0.8168,0.0662-1.5012,0.8831-1.5242,3.4962c-2.4121,0.9886-3.5936,2.6196-4.3925,4.4717
		C32.621,27.4903,17.5991,29.059,12.1996,14.4052C11.1004,11.4215,2.48,19.25,10.3596,28.4144
		c-2.2539-0.8847-4.5134-1.1067-5.0972,0.6687c-0.5529,1.6812,2.8107,7.0477,11.3993,8.6945
		c0.0673,0.2142-0.0002,0.7462-1.084,0.7671c-1.3669,0.0264-4.8265-0.3196-7.116-1.1909c0,0-0.6482,8.7295,7.9351,12.7295
		s14.8774-2.0834,22.75,7.0834c1.8312,2.1322,2.5471,2.7322,3.1667,2c0.9166-1.0834-1.575-4.375-1.575-4.375
		s1.2509,0.4597,3.2416,1.625c1.7084,1,2.4263-0.4243,1-1.875c-1.8059-1.8368-3.8813-2.9848-5.5694-3.6901
		c3.7774-0.5212,7.0231-1.2176,13.9011,2.0593c2.5373,1.2089,3.4948,1.3187,3.7253,0.3876
		c0.3409-1.3776-3.5203-3.3243-3.5203-3.3243s1.5521,0.4741,3.8248,0.8693C59.3408,51.1912,59.2698,49.5347,57.4059,48.7195z
		 M46.5032,15.0026c-0.8284,0-1.5-0.6716-1.5-1.4999s0.6716-1.4999,1.5-1.4999s1.5,0.6716,1.5,1.4999
		S47.3315,15.0026,46.5032,15.0026z"/>
</g>
</svg>
