<?xml version="1.0" encoding="utf-8"?>
<!-- Generator: Adobe Illustrator 25.0.0, SVG Export Plug-In . SVG Version: 6.00 Build 0)  -->
<svg version="1.1" xmlns="http://www.w3.org/2000/svg" xmlns:xlink="http://www.w3.org/1999/xlink" x="0px" y="0px"
	 viewBox="0 0 64 64" style="enable-background:new 0 0 64 64;" xml:space="preserve">
<style type="text/css">
	.st0{fill:none;}
	.st1{fill:#FFFFFF;}
</style>
<g id="Box">
	<rect class="st0" width="64" height="64"/>
</g>
<g id="Icon">
	<g>
		<polygon points="28,4.8 36.2,15 53,15 45,2 10,2 3,15 19.8,15 		"/>
		<path d="M24.33,49.016c-1.426-1.942-1.102-3.997-0.33-5.565V35h5.104c-0.002-0.086-0.012-0.162-0.012-0.25
			c0-0.617,0.011-2.258,0.974-3.75H24V21h8v2.212c1.417-1.98,3.678-2.783,6.838-3.367c0.629-0.581,1.564-0.931,2.662-0.931
			c1.106,0,2.048,0.355,2.677,0.945c2.513,0.491,4.436,1.091,5.823,2.263V17H35.2L28,8l-7.2,9H6v36h17.548
			c0.097-0.284,0.197-0.563,0.302-0.83c0.006-0.016,0.013-0.032,0.02-0.049c0.394-0.931,0.792-1.641,1.241-2.217
			C24.821,49.638,24.56,49.341,24.33,49.016z M28,13.5c1.4,0,2.5,1.1,2.5,2.5c0,1.4-1.1,2.5-2.5,2.5s-2.5-1.1-2.5-2.5
			C25.5,14.6,26.6,13.5,28,13.5z M19,45h-8V35h8V45z M19,31h-8V21h8V31z"/>
		<path d="M57.104,52.979c-0.729-1.896-1.458-2.479-3.208-3.354l-0.51-1.094c-0.146-0.365-0.438-0.583-0.802-0.729l-4.958-1.604
			c-0.073-0.802-0.146-1.677-0.219-2.042c1.531-1.75,2.479-3.573,2.771-5.396c0.948-0.875,1.531-2.333,1.531-4.083
			c0-0.583,0-2.188-1.094-3.135c0-7.948-2.042-8.677-7.802-9.698v-0.073c0-0.365-0.583-0.656-1.312-0.656
			c-0.729,0-1.313,0.292-1.313,0.656v0.073c-5.76,0.948-7.802,1.75-7.802,9.698c0,0,0,0,0,0.073
			c-1.094,1.021-1.094,2.552-1.094,3.135c0,1.75,0.51,3.135,1.531,4.01c0.073,0.292,0.146,0.583,0.219,0.875
			c-1.604-0.146-3.281,0.875-3.573,3.062c-0.438,2.917-1.823,1.896-1.823,1.896c-0.292-0.219-0.584-0.729-0.656-1.604
			c0,0-2.552,2.479-0.875,4.74c0.51,0.729,1.24,1.167,1.969,1.385l0.51-1.167c0.292-0.656,0.875-1.24,1.604-1.312
			c1.312-0.219,3.792-0.365,4.01-0.365S34.5,46.417,34.5,46.49l-4.01,1.312c-0.365,0.146-0.656,0.365-0.802,0.729l-0.583,1.094
			c-1.75,0.875-2.406,1.458-3.208,3.354C24.656,56.115,24,61,24,61h35C59,61,58.344,56.115,57.104,52.979z M54.698,52.979
			c0.219,0.365,0.438,0.875,0.583,1.458H42.5v-1.458H54.698z M39.531,27.604l0.875-0.583c0-1.167,1.312-1.24,0.802-2.115
			c0,0,0.729,0.146,0.656,0.948c0,0,0.656,0.219,0.438,1.021l1.094,0.729v0.729L41.5,30.01l-1.969-1.677V27.604z M40.5,58.812
			H26.552c0.219-1.021,0.438-2.042,0.656-2.917H40.5V58.812z M40.5,54.438H27.719c0.219-0.583,0.438-1.094,0.583-1.458H40.5V54.438z
			 M37.417,47.51l0.51-4.083c-0.656-0.583-1.24-1.312-1.75-2.042c-0.802-1.167-1.312-2.479-1.312-3.938
			c-1.167-0.292-1.385-1.75-1.385-2.698c0-0.365,0-0.656,0.073-0.875c0.219,0.219,0.51,0.365,0.802,0.51
			c1.385,0.438,2.406-1.458,7.073-1.458c4.667,0,5.688,1.896,7.073,1.458c0.365-0.073,0.656-0.292,0.875-0.51
			c0.146,0.219,0.146,0.51,0.146,0.875c0,0.948-0.219,2.406-1.385,2.771c0,1.385-0.51,2.698-1.24,3.792
			c-0.729,1.094-1.677,2.042-2.625,2.917c-1.021,0.802-3.427,0.948-4.812,0.365c0.292,0.583,0.948,1.312,2.26,1.677
			c2.26,0.583,3.646-0.438,3.719-0.51c0.146,1.75,0.146,1.75,0.219,1.896l-4.156,2.99L37.417,47.51z M42.5,58.812v-2.917h13.219
			c0.219,0.875,0.51,1.896,0.656,2.917H42.5z"/>
	</g>
</g>
</svg>
