<?xml version="1.0" encoding="utf-8"?>
<!-- Generator: Adobe Illustrator 19.1.0, SVG Export Plug-In . SVG Version: 6.00 Build 0)  -->
<svg version="1.2" baseProfile="tiny" xmlns="http://www.w3.org/2000/svg" xmlns:xlink="http://www.w3.org/1999/xlink" x="0px"
	 y="0px" width="64px" height="64px" viewBox="0 0 64 64" xml:space="preserve">
<g id="_x36_4px_Box">
	<rect fill="none" width="64" height="64"/>
</g>
<g id="Icon">
	<g>
		<path d="M18.792,29.791c-0.263-1.1584-2.9565-3.6148-5.6417-5.5215c-0.7692-0.5462-1.1834-0.8048-1.9612-1.3027L1,22v18.9333
			c10.4167-0.4958,12.6826-0.5562,13.6826-1.3625C15.8955,38.3823,19.2261,31.6997,18.792,29.791z"/>
		<path d="M46.2352,27.481c1.5667,0.3693,2.6075-1.2914,2.121-2.8358c-1.1386-3.6144-2.016-7.4141-4.0638-8.2462
			s-9.1163,0.6369-12.945,3.1982c3.5355,1.3453,8.3166,3.3453,8.3166,3.3453C41.4717,25.1096,43.5626,26.8511,46.2352,27.481z"/>
		<path d="M50.2088,23.184c0.1245,0.4076,0.3196,0.9891,0.3938,1.3997c0.2569,1.4227-0.1385,2.8741-1.0919,3.9007
			c-1.4693,1.5818-3.2317,1.4376-5.1525,0.7213c-2.141-0.7985-4.1265-2.2599-6.0257-4.4342
			c-4.4589-1.8503-11.0999-4.5233-15.7404-5.9601c-2.0219-0.626-3.6117-1.0026-4.2588-0.8948
			c-2.5941,0.4323-5.3219,3.6046-5.3219,3.6046s7.2056,4.6116,7.9261,7.782s-3.5988,10.9172-4.8494,11.9594
			c-1.2623,1.0519-4.7299,1.34-4.7299,1.34c1.0538,5.0824,5.7004,4.5494,7.8688,3.3102c2.9256,2.178,5.989-0.1032,5.989-0.1032
			c1.7366,0.9857,3.3043,0.6236,4.1895,0.2515c-1.2245-2.7061-1.6042-6.5475-0.9353-8.0377v-0.0005
			c0.7294-1.6244,1.9891-2.5276,3.4072-2.7295c0.4116-0.7515,1.0703-1.4883,2.0854-2.0225
			c0.9614-0.5063,1.9336-0.5693,2.7847-0.4175c0.4282-0.4619,0.9878-0.9014,1.7104-1.1987c0.877-0.3618,1.77-0.3745,2.5693-0.1992
			c0.5024-0.3818,1.1201-0.6743,1.8477-0.7778c1.3696-0.1963,4.0186,0.1172,6.4033,4.4106
			c0.8576,1.5436,1.2115,2.9252,1.2608,4.1124l12.4071,1.7416V22L50.2088,23.184z"/>
		<path d="M43.1862,32.8553c-1.0882,0.1552-1.5286,1.2507-1.5286,1.2507s-1.1812-0.9033-2.3624-0.4169
			c-1.2475,0.5137-1.6676,1.876-1.6676,1.876s-1.3201-1.0422-2.6403-0.3474c-1.616,0.8505-1.5156,2.4363-1.5156,2.4363
			s-1.9963-0.9528-2.9945,1.2704c-0.4738,1.0553,0.2269,6.1705,1.8602,7.6677c1.6334,1.4973,3.4836,1.4103,4.3869-0.7437
			c1.278,0.994,3.7886,0.9364,4.3774-1.6675c2.0618,0.7422,3.9559,0.0826,4.2384-2.2929c0,0,1.5981,0.4863,2.5595-0.7404
			c0.595-0.7592,0.8167-2.5408-0.5444-4.9908C45.9941,33.7068,44.4724,32.6719,43.1862,32.8553z"/>
	</g>
</g>
</svg>
