<?xml version="1.0" encoding="utf-8"?>
<!-- Generator: Adobe Illustrator 22.1.0, SVG Export Plug-In . SVG Version: 6.00 Build 0)  -->
<!DOCTYPE svg PUBLIC "-//W3C//DTD SVG 1.1//EN" "http://www.w3.org/Graphics/SVG/1.1/DTD/svg11.dtd">
<svg version="1.1" xmlns="http://www.w3.org/2000/svg" xmlns:xlink="http://www.w3.org/1999/xlink" x="0px" y="0px" width="64px"
	 height="64px" viewBox="0 0 64 64" style="enable-background:new 0 0 64 64;" xml:space="preserve">
<style type="text/css">
	.st0{fill:none;}
</style>
<g id="Box">
	<rect class="st0" width="64" height="64"/>
</g>
<g id="Icon">
	<g>
		<path d="M32.9,21.5l-2.8-2.8l-2.8,2.8l-1.4-1.4l2.8-2.8l-2.8-2.8L23,17.2l-1.4-1.4l2.8-2.8l-2.8-2.8L18.8,13l-1.4-1.4l2.8-2.8
			l-3.5-3.5c-0.4-0.4-1-0.4-1.4,0l-9.9,9.9c-0.4,0.4-0.4,1,0,1.4l16.3,16.3L32.9,21.5z"/>
		<path d="M51.3,39.9l-2.8,2.8l-1.4-1.4l2.8-2.8l-2.8-2.8l-2.8,2.8L42.8,37l2.8-2.8l-2.8-2.8L31.5,42.7L47.8,59c0.4,0.4,1,0.4,1.4,0
			l9.9-9.9c0.4-0.4,0.4-1,0-1.4L51.3,39.9z M49.9,49.8c-0.8,0.8-2,0.8-2.8,0s-0.8-2,0-2.8s2-0.8,2.8,0S50.7,49,49.9,49.8z"/>
		<path d="M51.8,13.4c0-0.1,0.2-0.3,0.6-0.1l3.6,2l2.4-2.4c3.8-3.8-3.3-10.9-7.1-7.1L10.1,47.2c-0.3,0.3-0.6,0.7-0.7,1.1l-3.2,9.2
			c-0.1,0.4,0.2,0.8,0.6,0.6l9.2-3.2c0.4-0.1,0.8-0.4,1.1-0.7l37.7-37.7L51.8,13.4z M11.6,48.5l36.2-36.2l1.4,1.4L13,49.9
			C12.2,50.7,10.8,49.3,11.6,48.5z M15.8,52.7c-0.8,0.8-2.2-0.6-1.4-1.4l36.2-36.2l1.4,1.4L15.8,52.7z"/>
	</g>
</g>
</svg>
