<?xml version="1.0" encoding="utf-8"?>
<!-- Generator: Adobe Illustrator 19.1.0, SVG Export Plug-In . SVG Version: 6.00 Build 0)  -->
<svg version="1.2" baseProfile="tiny" xmlns="http://www.w3.org/2000/svg" xmlns:xlink="http://www.w3.org/1999/xlink" x="0px"
	 y="0px" width="64px" height="64px" viewBox="0 0 64 64" xml:space="preserve">
<g id="Box">
	<rect fill="none" width="64" height="64"/>
</g>
<g id="Icon">
	<g>
		<path d="M10.9896,41.3386c-4.8567-1.1335-6.4062,1.679-6.8647,5.598C4.0771,47.344,4.0414,47.8884,4.0147,48.6
			c-0.0325,0.8652,0.2994,1.7175,0.9409,2.299c2.5588,2.3193,5.5581,4.2997,8.8882,5.8547c1.369,0.6393,2.9442-0.3621,3.0006-1.8719
			c0.0742-1.9844,0.1253-4.033,0.0701-5.3642C16.7164,44.7349,16.0142,42.5114,10.9896,41.3386z"/>
		<path d="M46.1932,32.7912c-0.0564,3.9023,1.9564,6.0239,5.2462,6.0716c3.4658,0.0501,5.3685-2.3962,5.4195-5.9173
			c0.0537-3.7098-1.871-5.8312-5.2488-5.8802C48.2318,27.0165,46.2429,29.3674,46.1932,32.7912z"/>
		<path d="M58.8755,46.9365c-0.4586-3.919-2.0081-6.7315-6.8647-5.598c-5.0246,1.1728-5.7269,3.3964-5.925,8.179
			c-0.0552,1.3312-0.004,3.3797,0.0701,5.364c0.0564,1.5099,1.6317,2.5114,3.0008,1.8721c3.3307-1.5553,6.3305-3.5362,8.8895-5.856
			c0.6405-0.5806,0.9719-1.4316,0.9395-2.2956C58.9589,47.8896,58.9232,47.3444,58.8755,46.9365z"/>
		<path d="M33,4h23v16H38.405c-0.5817,0.574-1.2596,1.0643-2.0291,1.4341L35.1983,22H57c0.5523,0,1-0.4477,1-1V3
			c0-0.5523-0.4477-1-1-1H32c-0.5523,0-1,0.4477-1,1v10.9595c0.7123-0.218,1.3874-0.4264,2-0.6176V4z"/>
		<path d="M25.7692,33.1539l1.1577-8.5801c0.0936-0.6943,0.5302-1.2949,1.1616-1.5983l7.3341-3.5242
			c2.085-1.0019,3.2827-3.2372,2.962-5.5282c0,0-6.8462,2.3077-16.5385,5c-6.9317,1.9255-9.2513,4.5911-10.0154,5.9575
			c2.059,0.0779,3.8423,0.8454,5.138,2.2585c1.3008,1.4189,2.0059,3.3628,2.0381,5.6206c0.0134,0.9235-0.0768,1.7872-0.2604,2.583
			C22.8989,33.5985,25.7692,33.1539,25.7692,33.1539z"/>
		<path d="M11.5609,38.8628c3.2898-0.0477,5.3026-2.1693,5.2462-6.0716c-0.0496-3.4238-2.0385-5.7747-5.4169-5.726
			c-3.3777,0.049-5.3025,2.1705-5.2488,5.8802C6.1924,36.4666,8.0952,38.9129,11.5609,38.8628z"/>
		<polygon points="51.4951,8.9263 45.9932,13.9229 38.9414,7.498 35,10.1605 35,12.5737 38.7578,10.0361 45.9912,16.627 
			52.8389,10.4067 		"/>
		<path d="M26.1725,38.8598c-0.1776,3.7059,1.6754,5.8904,5.0496,6.0521c3.3748,0.1616,5.441-2.1217,5.605-5.5419
			c0.1866-3.8983-1.7542-6.0858-5.0406-6.2433C28.3244,32.9609,26.341,35.3423,26.1725,38.8598z"/>
		<path d="M31.5003,47c-5.4398,0-6.9218,2.2373-7.2833,7.1476c-0.0757,1.0281-0.1248,2.4621-0.1567,4.0352
			c-0.0209,1.0263,0.738,2.1624,1.7557,2.2964c1.8454,0.243,3.7371,0.3708,5.6655,0.3708c1.9418,0,3.8465-0.1299,5.7041-0.3764
			c1.017-0.1349,1.7752-1.2704,1.7543-2.2962c-0.032-1.5713-0.0811-3.003-0.1567-4.0298C38.4218,49.2373,36.9398,47,31.5003,47z"/>
		<path d="M21.0879,16.9078c2.9818-0.0432,4.8061-1.9661,4.7549-5.503c-0.045-3.1032-1.8476-5.234-4.9097-5.1898
			c-3.0615,0.0444-4.806,1.9672-4.7573,5.3297C16.222,14.736,17.9467,16.9532,21.0879,16.9078z"/>
	</g>
</g>
</svg>
