<?xml version="1.0" encoding="utf-8"?>

<!DOCTYPE svg PUBLIC "-//W3C//DTD SVG 1.1//EN" "http://www.w3.org/Graphics/SVG/1.1/DTD/svg11.dtd">
<svg version="1.1" xmlns="http://www.w3.org/2000/svg" xmlns:xlink="http://www.w3.org/1999/xlink" x="0px" y="0px" width="24px"
	 height="24px" viewBox="0 0 24 24" style="enable-background:new 0 0 24 24;" xml:space="preserve">
<style type="text/css">
	.st0{fill:none;}
	.st1{fill:#39870C;}
	.st2{fill:#D52B1E;}
	.st3{display:none;}
	.st4{display:none;fill:#FFFFFF;}
</style>
<g id="box">
	<g>
		<rect class="st0" width="24" height="24"/>
	</g>
</g>
<g id="icon">
	<g>
		<rect x="6" y="1" width="12" height="3"/>
		<path d="M22,5H2C1.5,5,1,5.4,1,6v8c0,0.6,0.4,1,1,1h3v1.6c0,0.3,0.1,0.5,0.3,0.7l4.4,4.4c0.2,0.2,0.4,0.3,0.7,0.3H18
			c0.6,0,1-0.4,1-1v-6h3c0.6,0,1-0.4,1-1V6C23,5.4,22.5,5,22,5z M17,20h-6v-3c0-0.6-0.4-1-1-1H7v-4h10V20z M21,9h-2V7h2V9z"/>
	</g>
</g>
</svg>
