<?xml version="1.0" encoding="utf-8"?>
<!-- Generator: Adobe Illustrator 18.0.0, SVG Export Plug-In . SVG Version: 6.00 Build 0)  -->
<svg version="1.2" baseProfile="tiny" xmlns="http://www.w3.org/2000/svg" xmlns:xlink="http://www.w3.org/1999/xlink" x="0px"
	 y="0px" width="64px" height="64px" viewBox="0 0 64 64" xml:space="preserve">
<g id="_x36_4px_box">
	<rect fill="none" width="64" height="64"/>
</g>
<g id="icon">
	<path d="M55.893,29.9224c-1.605-0.8008-6.0286-3.0156-8.6444-4.1758c1.4482-8.0244,0.449-8.96-0.1877-9.5332
		c-0.2129-0.1914-0.4644-0.335-0.7373-0.4209c-1.332-0.4194-13.0024-4.1104-16.0527-4.603
		c-0.728-0.1147-1.4629,0.1763-1.9102,0.7632c-0.4268,0.5605-0.8262,1.0933-1.2002,1.6001
		c-5.4087-2.4077-10.4741-1.2881-10.7017-1.2363c-0.6611,0.1519-1.2002,0.6284-1.4316,1.2656
		c-1.3853,3.8101-1.1748,7.8574-0.3228,10.2129c-1.8281,2.3555-6.6919,7.793-7.6215,10.9214
		c-0.1841,0.6187-0.0581,1.2876,0.3379,1.7969c2.7192,3.499,12.4995,14.9995,13.6904,16.0908
		c0.1968,0.1807,0.4277,0.3198,0.6792,0.4092c1.9912,0.7114,8.5708,2.9883,11.125,2.9883c0.0571,0,0.1118-0.001,0.1646-0.0034
		c0.5596-0.0244,1.083-0.2817,1.4434-0.7104c0,0,3.665-4.355,5.1968-6.1743c8.0801-0.5093,9.0312-1.1758,9.4448-1.4658
		c0.2354-0.1646,0.4321-0.3779,0.5776-0.6255c2.166-3.6919,7.0434-12.5581,7.2509-15.1504
		C57.0586,31.0581,56.623,30.2866,55.893,29.9224z M18.438,16.0698c1.3462-0.1187,3.7729-0.1274,6.3545,0.835
		c-1.2287,1.8386-1.9703,3.1596-2.4138,4.1261l-4.2747-0.3105C17.9678,19.4904,17.9763,17.8485,18.438,16.0698z M46.6636,44.3623
		c-1.3652,0.2876-5.0024,0.6338-8.0366,0.8101c-0.5479,0.0317-1.0586,0.2876-1.4126,0.707c-0.6177,0.7324-3.709,4.4053-5.0869,6.043
		c-1.7446-0.3037-5.4111-1.416-8.5444-2.5176c-1.3457-1.5229-7.4375-8.1943-12.311-14.4556
		c1.1937-2.5863,5.2496-7.0409,7.3032-9.6026l16.3975-3.0214c0,0,0.1425-0.3467-0.5577-0.4199l-7.6817-0.558
		c0.9703-1.6232,2.5179-3.8873,4.0543-5.9639c3.1006,0.7441,9.8055,2.769,13.3855,3.8838
		c-0.0051,1.1326-0.3014,3.2243-0.6492,5.3076c-1.1555,0.4839-9.7499,4.1127-11.9922,5.8443
		c-0.3389,0.2617-0.585,0.625-0.7017,1.0366l-1.5818,5.5692l-0.0089-0.0092l-9.8291-4.1797c0,0-0.3096,0.212,0.2372,0.6563
		c0,0,5.2794,4.29,9.1943,7.0351c2.5786,1.808,3.4625,0.1107,3.5837-0.1621l0.0295,0.0084l2.0249-7.1284
		c1.8123-1.1166,6.3591-3.1778,9.6106-4.5668c0.0123-0.004,4.7741,2.2308,8.5124,4.0765
		C51.6089,35.1514,49.1606,40.0674,46.6636,44.3623z"/>
</g>
</svg>
