<?xml version="1.0" encoding="utf-8"?>
<!-- Generator: Adobe Illustrator 17.1.0, SVG Export Plug-In . SVG Version: 6.00 Build 0)  -->
<svg version="1.2" baseProfile="tiny" xmlns="http://www.w3.org/2000/svg" xmlns:xlink="http://www.w3.org/1999/xlink" x="0px"
	 y="0px" width="64px" height="64px" viewBox="0 0 64 64" xml:space="preserve">
<g id="Box">
	<rect fill="none" width="64" height="64"/>
</g>
<g id="Icon">
	<g>
		<path d="M51.9902,54.2426c-0.7514-0.7447-8.2321-1.0928-13.9298-1.2427c-0.0045-0.0796,0.0278-0.2255,0.291-0.3242
			c0.8648-0.3243,5.5392-0.91,7.6757-1.027L36.8215,5.6077C36.6346,4.6729,35.8137,4,34.8604,4h-5.7208
			c-0.9534,0-1.7742,0.6729-1.9612,1.6077l-9.5502,47.751c-3.0344,0.2137-5.2368,0.5058-5.6184,0.8839
			C11.5094,54.7385,11.1,55.7625,11.1,57c0,1.6569,0.6716,3,1.5,3h38.8c0.8284,0,1.5-1.3431,1.5-3
			C52.9,55.7625,52.4906,54.7385,51.9902,54.2426z M29.3792,15h5.2416l1.8,9h-8.8416L29.3792,15z M25.5792,34h12.8416l1.8239,9.1192
			H23.7554L25.5792,34z"/>
	</g>
</g>
</svg>
