<?xml version="1.0" encoding="utf-8"?>
<!-- Generator: Adobe Illustrator 19.1.0, SVG Export Plug-In . SVG Version: 6.00 Build 0)  -->
<svg version="1.2" baseProfile="tiny" xmlns="http://www.w3.org/2000/svg" xmlns:xlink="http://www.w3.org/1999/xlink" x="0px"
	 y="0px" width="64px" height="64px" viewBox="0 0 64 64" xml:space="preserve">
<g id="_x36_4px_Box">
	<rect fill="none" width="64" height="64"/>
</g>
<g id="Icon">
	<g>
		<path d="M63,42L48.8169,21.9073c-0.3983-0.5644-1.2355-0.5644-1.6338,0l-5.3073,7.5185L50.7517,42H63z"/>
		<path d="M7.644,23.0577c-1.9788,3.1577-0.916,6.4826,0.8267,7.8085c0.1506,0.1146,0.2607,0.0819,0.2913,0.0251
			c0,0-0.5803-3.8557,1.7832-6.7646c0.1738-0.2138,0.3474-0.173,0.3862-0.0532c-0.1704,0.6012-0.5581,2.0793-0.5388,3.0291
			c0,0,0.9067,3.6555,2.3035,7.1796l1.9834-2.8099c-1.0327-2.6381-1.9412-5.9931-2.3087-7.7247c0,0,2.3099-0.8718,5.7919,0.7791
			c0.0762,0.0313,0.1626,0.0313,0.1337-0.1091c-0.5358-2.6017-2.5472-3.8749-5.152-3.9519c0,0,1.6508-1.0452,6.3384-0.9553
			c0.0537-0.0422,0.0884-0.0812,0.0137-0.2443c-1.2751-2.783-4.916-3.4722-7.3159-1.2255c0,0,0.8467-2.1949,3.5723-3.5989
			c0.0078-0.0496,0.0027-0.1168-0.1631-0.1816c-0.5955-0.2328-2.1982-0.6413-4.177,0.2278
			c-1.7812,0.7823-2.3617,2.2234-2.7532,3.4484c0,0-2.1196-1.4114-4.4893-0.2058c-1.9233,0.9783-2.6171,2.9598-2.8193,3.7235
			c-0.0515,0.1944-0.0112,0.2264,0.0372,0.2394c0.5516-0.3502,3.0913-1.863,4.9484-1.2804c0,0-1.1014,0.3762-2.2053,1.7838
			c-1.1943,1.523-1.2686,3.7925-0.3623,5.4543c0.0717,0.1315,0.1743,0.1706,0.2207,0.1288
			C4.2317,27.219,5.6624,24.115,7.644,23.0577z"/>
		<path d="M28.1831,16.1573L5,49h48L29.8169,16.1573C29.4186,15.593,28.5814,15.593,28.1831,16.1573z"/>
	</g>
</g>
</svg>
