<?xml version="1.0" encoding="utf-8"?>
<!-- Generator: Adobe Illustrator 25.2.0, SVG Export Plug-In . SVG Version: 6.00 Build 0)  -->
<svg version="1.1" xmlns="http://www.w3.org/2000/svg" xmlns:xlink="http://www.w3.org/1999/xlink" x="0px" y="0px"
	 viewBox="0 0 64 64" style="enable-background:new 0 0 64 64;" xml:space="preserve">
<style type="text/css">
	.st0{fill:none;}
	.st1{fill:#B3B3B3;}
</style>
<g id="Box">
	<rect class="st0" width="64" height="64"/>
</g>
<g id="Icon">
	<path d="M22.348,47.306c-2.431,1.066-6.14,1.397-6.347,1.415l-0.011,0.011c0,0,0.001-0.008,0.001-0.01
		c-0.001,0-0.01,0.001-0.01,0.001l0.011-0.011c0.018-0.207,0.349-3.916,1.415-6.347c0.73-1.665,2.311-2.74,3.952-2.607
		c-4.132-2.23-8.799,0.107-10.673,4.379C8.523,49.07,7.872,56.638,7.854,56.851l-0.011,0.011c0,0,0.009-0.001,0.01-0.001
		c0,0.001-0.001,0.01-0.001,0.01l0.011-0.011c0.212-0.018,7.781-0.669,12.714-2.832c4.271-1.873,6.609-6.54,4.379-10.673
		C25.089,44.995,24.014,46.576,22.348,47.306z M57.964,8.862c-0.116-1.116-0.995-1.995-2.111-2.111
		c-3.269-0.341-9.781,0.626-16.825,7.671c-2.133,2.133-5.795,6.484-9.26,10.729l-4.836-1.314c-1.822-0.495-3.832-0.034-5.16,1.309
		l-5.36,5.36c-0.435,0.44,0.021,1.279,0.635,1.201c1.927-0.247,4.94-0.444,7.455,0.207c2.874-2.721,4.935-4.668,5.005-4.723
		c0.289-0.226,0.466,0.023,0.466,0.023l-0.928,1.299c-2.036,2.53-3.813,4.775-4.889,6.141c-0.627,0.796-0.56,1.935,0.157,2.652
		l2.55,2.55l2.55,2.55c0.717,0.717,1.855,0.784,2.652,0.157c1.366-1.076,3.611-2.853,6.141-4.889l1.299-0.928
		c0,0,0.249,0.177,0.023,0.465c-0.055,0.07-2.002,2.131-4.723,5.005c0.652,2.515,0.454,5.528,0.207,7.455
		c-0.079,0.613,0.761,1.069,1.201,0.635l5.36-5.36c1.343-1.327,1.804-3.338,1.309-5.159l-1.314-4.836
		c4.245-3.466,8.596-7.128,10.729-9.26C57.337,18.642,58.304,12.131,57.964,8.862z M46.074,18.64c-1.172-1.172-1.172-3.071,0-4.243
		s3.071-1.172,4.243,0c1.171,1.172,1.171,3.071,0,4.243C49.145,19.811,47.246,19.811,46.074,18.64z"/>
</g>
</svg>
