<?xml version="1.0" encoding="utf-8"?>
<!-- Generator: Adobe Illustrator 17.1.0, SVG Export Plug-In . SVG Version: 6.00 Build 0)  -->
<svg version="1.2" baseProfile="tiny" xmlns="http://www.w3.org/2000/svg" xmlns:xlink="http://www.w3.org/1999/xlink" x="0px"
	 y="0px" width="64px" height="64px" viewBox="0 0 64 64" xml:space="preserve">
<g id="Box">
	<rect fill="none" width="64" height="64"/>
</g>
<g id="Icon">
	<g>
		<path d="M24.24,43.4811c-0.3892,2.1344,3.4364,2.4815,3.5945,0.4706c0.0975-1.24,0.174-2.8411,0.9691-5.1676
			c7.6882,2.4135,15.2565-7.2972,13.2213-16.6514c-0.1353-0.6218-0.8898-0.8779-1.3857-0.4792
			c-8.3567,6.7175-12.2973,1.5554-16.3823,7.0526c-1.4197,1.9105-1.5707,4.692-0.1844,6.8702
			c2.5526-2.7935,5.3054-4.6542,7.2517-5.688c0.326-0.1731,0.4979-0.0129,0.5531,0.0635
			C27.2979,34.3596,25.3823,37.3726,24.24,43.4811z"/>
		<path d="M13.82,33c0-10.024,8.1555-18.18,18.18-18.18c0.3601,0,0.7155,0.0193,1.0703,0.0404l-1.8724,3.2784
			c-0.8605,1.5022,0.9981,3.0805,2.3414,2.0222l8.8492-6.9591c0.7999-0.6287,0.8022-1.8421,0.0046-2.4738l-8.8228-6.9925
			c-1.3492-1.0714-3.2007,0.5135-2.3491,2.0134l1.8665,3.2869C32.7263,9.0195,32.3655,9,32,9
			C19.4959,9,9.2005,18.6133,8.1023,30.8361l5.7266,2.34C13.8284,33.1168,13.82,33.0594,13.82,33z"/>
		<path d="M32,51.18c-7.1274,0-13.2905-4.1321-16.2652-10.1194l3.8438-0.018c1.7312-0.0059,2.1688-2.4045,0.5806-3.0389
			l-10.4514-4.184c-0.9445-0.3785-1.9964,0.2262-2.1447,1.2328l-1.6443,11.137c-0.2533,1.7042,2.045,2.5152,2.9182,1.0276
			l1.8733-3.1917C14.7113,51.7214,22.7427,57,32,57c3.6186,0,7.0501-0.8097,10.13-2.2499l-0.8398-6.1518
			C38.5673,50.2264,35.3967,51.18,32,51.18z"/>
		<path d="M55.9416,45.8684l-3.6837-0.0263C54.6229,42.1256,56,37.7221,56,33c0-8.1284-4.0656-15.321-10.2662-19.6647
			l-4.8939,3.7925C46.4046,20.2397,50.18,26.1843,50.18,33c0,3.6865-1.1259,7.1021-3.0229,9.9666l-1.9337-3.3132
			c-0.8706-1.4964-3.1677-0.6816-2.922,1.0166l1.6022,11.1432c0.1444,1.007,1.1941,1.6158,2.14,1.2409l10.4671-4.1445
			C58.1133,48.2767,57.6664,45.8808,55.9416,45.8684z"/>
	</g>
</g>
</svg>
