<svg enable-background="new 0 0 64 64" viewBox="0 0 64 64" xmlns="http://www.w3.org/2000/svg"><path d="m0 0h64v64h-64z" fill="none"/><path d="m52.23 41.259c-2.769.952-6.367 2.413-9.222 3.613.074.433.084.892.012 1.379-.415 2.808-2.82 4.583-6.24 4.742-7.733.358-12.535-1.558-13.531-1.962-.286-.116-.318-.258-.292-.388.001-.001.011-.009.011-.009 5.594.964 9.12 1.122 13.463.424 3.295-.53 4.489-2.106 4.461-3.406-.027-1.27-.927-2.037-2.952-2.108-6.89-.24-10.919-1.008-16.824-1.869-4.104-.598-8.062.467-11.433 2.627-3.163 2.026-4.04 2.985-4.04 2.985l5.786 11.143 7.482-3.042c.853-.347 1.784-.451 2.693-.302l10.261 2.283c2.289.376 4.638-.056 6.644-1.222l20.478-12.847s-1.004-4.019-6.757-2.041zm-24.344-4.028c.161.516.555.927 1.067 1.116.512.19 1.087.138 1.561-.143l11.049-6.532c.74-.437 1.068-1.327.78-2.121-.287-.794-1.108-1.27-1.958-1.136l-4.526.716c2.819-5.821 8.196-10.206 14.727-11.609.808-.174 1.611-.917 1.568-2.043l-.077-2.058c-.04-1.07-1.28-1.849-2.33-1.64-8.711 1.739-15.863 7.643-19.407 15.471l-3.118-3.715c-.542-.651-1.481-.826-2.239-.42-.759.407-1.123 1.284-.87 2.088z"/></svg>