<?xml version="1.0" encoding="utf-8"?>
<!-- Generator: Adobe Illustrator 19.1.0, SVG Export Plug-In . SVG Version: 6.00 Build 0)  -->
<svg version="1.2" baseProfile="tiny" xmlns="http://www.w3.org/2000/svg" xmlns:xlink="http://www.w3.org/1999/xlink" x="0px"
	 y="0px" width="64px" height="64px" viewBox="0 0 64 64" xml:space="preserve">
<g id="_x36_4px_Box">
	<rect fill="none" width="64" height="64"/>
</g>
<g id="Icon">
	<path d="M47,7H17c-2.2092,0-4,1.7908-4,4v42c0,2.2092,1.7908,4,4,4h30c2.2092,0,4-1.7908,4-4V11C51,8.7908,49.2092,7,47,7z M22,51
		c-1.6569,0-3-1.3431-3-3s1.3431-3,3-3s3,1.3431,3,3S23.6569,51,22,51z M22,41c-1.6569,0-3-1.3431-3-3s1.3431-3,3-3s3,1.3431,3,3
		S23.6569,41,22,41z M22,31c-1.6569,0-3-1.3431-3-3s1.3431-3,3-3s3,1.3431,3,3S23.6569,31,22,31z M32,51c-1.6569,0-3-1.3431-3-3
		s1.3431-3,3-3s3,1.3431,3,3S33.6569,51,32,51z M32,41c-1.6569,0-3-1.3431-3-3s1.3431-3,3-3s3,1.3431,3,3S33.6569,41,32,41z M32,31
		c-1.6569,0-3-1.3431-3-3s1.3431-3,3-3s3,1.3431,3,3S33.6569,31,32,31z M45,48c0,1.6569-1.3431,3-3,3s-3-1.3431-3-3V38
		c0-1.6569,1.3431-3,3-3s3,1.3431,3,3V48z M42,31c-1.6569,0-3-1.3431-3-3s1.3431-3,3-3s3,1.3431,3,3S43.6569,31,42,31z M46,21H18v-9
		h28V21z"/>
</g>
</svg>
