<svg height="64" viewBox="0 0 64 64" width="64" xmlns="http://www.w3.org/2000/svg"><path d="m0 0h64v64h-64z" fill="none"/><path d="m0 0h64v64h-64z" fill="none"/><path d="m56.2451 46.1647c.588-1.3736.8396-2.3969.6277-3.491-.2368-1.2231-2.2515-2.2229-5.2266-2.7806-.3246-.0608-.6687-.1122-1.0149-.1623l.0011-.0086c-.4449-.0598-.8707-.3214-1.1403-.6997-.2026-.2842-.3167-.6426-.356-1.0518.911-.3744 1.5535-1.2682 1.5535-2.3141 0-1.3824-1.1206-2.5032-2.5032-2.5032-.5591 0-1.0701.1898-1.4868.4996.252 1.5482-.1605 2.0421-.1605 2.0421-.1285.1639-.2123.1288-.2443.1039.0027-.0482.0142-.0936.0142-.1425 0-1.3824-1.1206-2.5032-2.5031-2.5032s-2.5032 1.1208-2.5032 2.5032c0 1.0458.6425 1.9398 1.5533 2.3141-.0391.4092-.1531.7676-.3553 1.0518-.2694.3783-.6954.64-1.1403.6997l.001.0085c-.3463.0502-.6907.1016-1.0154.1625-2.9751.5576-4.9896 1.5574-5.2266 2.7805-.1425.7364-.071 1.4431.1675 2.2437.0042-.002.0078-.0036.012-.0056.111.3906.2546.8003.4484 1.2529-1.3015 2.634-2.4437 6.3362-2.4104 9.3062.0411 3.6748 2.5886 6.4689 12.6591 6.4689 10.0706 0 12.6182-2.7941 12.6594-6.4689.0306-2.7105-.9154-6.2811-2.4103-9.3061zm-10.8697-8.5725c.2537-.206.4637-.4582.621-.7472.1572.289.3672.5411.6207.7471-.01.7266.1094 1.3376.2925 1.8384-.3031-.0076-.6023-.0192-.9131-.0192-.3109 0-.61.0117-.9132.0192.1829-.5008.3022-1.1118.2921-1.8383zm3.8166 19.3831c-1.0303.2435-1.5171.2995-2.5106.2995-2.6029 0-4.4392-1.2737-4.9817-4.0461h-1.2742v-1.4234h1.1235v-.3931c0-.3372 0-.6931.0376-1.0114h-1.1611v-1.4427h1.3862c.6743-2.8096 2.585-4.2329 5.189-4.2329.7297 0 1.3108.056 2.097.2245v1.9667c-.9171-.1686-1.4041-.2433-2.1537-.2433-1.4238 0-2.3599.7679-2.7723 2.285h3.4089v1.4427h-3.652c-.0188.2618-.0188.524-.0188.7863 0 .2251 0 .4308.0188.6182h3.652v1.4234h-3.4279c.4314 1.5364 1.4429 2.173 2.6792 2.173.8796 0 1.3862-.0749 2.36-.2811v1.8547z"/><path d="m20 43h12.0593c.019-.2994.0571-.5974.115-.8969.1512-.7808.51-1.4777 1.041-2.1031h-13.2153z"/><path d="m20 34v3h18.4794c-.1088-.4335-.1765-.8815-.1765-1.3434 0-.5771.0902-1.1334.2557-1.6566z"/><path d="m16 52v-26.7082l-3.1484-.9324c-.3411-.109-.2185-.3594-.2185-.3594h14.3669c.5522 0 1-.4478 1-1v-14.3659s.251-.1096.3599.231l.9316 3.1349h16.7085v18.6098c.0002.0001.0007.0002.001.0004.6864-.3009 1.4258-.4568 2.1855-.4568 1.0288 0 1.989.2889 2.8135.7822v-21.9356c0-1.1045-.8955-2-2-2h-21.1714c-.5308 0-1.0396.2109-1.4146.5859l-14.8281 14.8282c-.375.375-.5859.8838-.5859 1.4145v31.1714c0 1.0996.8999 2 2 2h17.4661c-.0754-.4714-.1228-.9664-.1288-1.4955-.0128-1.14.1163-2.3273.3334-3.5045z"/><path d="m20 28h22v3h-22z"/></svg>