<?xml version="1.0" encoding="utf-8"?>
<!-- Generator: Adobe Illustrator 18.1.1, SVG Export Plug-In . SVG Version: 6.00 Build 0)  -->
<svg version="1.2" baseProfile="tiny" xmlns="http://www.w3.org/2000/svg" xmlns:xlink="http://www.w3.org/1999/xlink" x="0px"
	 y="0px" width="64px" height="64px" viewBox="0 0 64 64" xml:space="preserve">
<g id="Box">
	<rect fill="none" width="64" height="64"/>
</g>
<g id="Icon">
	<path d="M51.5,1L46,17l1,3v9h-1.7L32,10L18.7,29H17v-9l1-3L12.5,1L7,17l1,3v42h15v-3h2v-5.6l4-0.8V59h6v-5.6l4-0.8V59h2v3h15V20
		l1-3L51.5,1z M32,27.8c2.3196,0,4.2,1.8804,4.2,4.2c0,2.3195-1.8804,4.2-4.2,4.2s-4.2-1.8805-4.2-4.2
		C27.8,29.6804,29.6804,27.8,32,27.8z M40,51h-5.1011C34.2615,47.9416,32,47,32,47s-2.2615,0.9416-2.8989,4H24v-1l8-9l8,9V51z"/>
</g>
</svg>
