<?xml version="1.0" encoding="utf-8"?>
<!-- Generator: Adobe Illustrator 24.1.3, SVG Export Plug-In . SVG Version: 6.00 Build 0)  -->
<svg version="1.1" xmlns="http://www.w3.org/2000/svg" xmlns:xlink="http://www.w3.org/1999/xlink" x="0px" y="0px"
	 viewBox="0 0 64 64" style="enable-background:new 0 0 64 64;" xml:space="preserve">
<style type="text/css">
	.st0{fill:none;}
</style>
<g id="Box">
	<rect class="st0" width="64" height="64"/>
</g>
<g id="Icon">
	<path d="M21.5,12.6c2.3,0,3.6-1.6,3.6-3.9c0-2.7-1.4-4.1-3.6-4.1c-2.3,0-3.6,1.7-3.6,4.1C17.9,11.2,19.2,12.6,21.5,12.6z M9.5,12.2
		c2.1,0,3.4-1.5,3.4-3.7c0-2.5-1.3-3.8-3.4-3.8c-2.2,0-3.4,1.6-3.4,3.8C6.2,10.9,7.4,12.2,9.5,12.2z M35.5,14.1
		c2.6,0,4.1-1.8,4.1-4.4c0-3-1.6-4.6-4.1-4.6c-2.6,0-4.1,1.9-4.1,4.6C31.4,12.5,32.9,14.1,35.5,14.1z M50.5,14c2.8,0,4.5-2,4.5-4.9
		c0-3.3-1.7-5-4.5-5c-2.9,0-4.5,2.1-4.5,5C46,12.3,47.7,14,50.5,14z M11.1,30.4c-0.2-3.9-0.8-12.4,3.1-15.6
		c-0.4-0.3-0.9-0.6-1.5-0.8c-1-0.3-2-0.5-3.2-0.5h0c-1.1,0-2.1,0.2-3.2,0.5c-2.2,0.7-3.4,2.6-3.8,6.6c-0.2,1.8-0.8,3.2-1.3,5.8
		C0.9,28.4,2,29.6,3,29.7c2.1-6.8,2-9.8,2.5-11.3c0.1-0.3,0.3-0.7,0.3-0.7c-0.4,1.9-0.2,2.8,0.1,3.7c0.2,1,0.3,2.1,0,3.1
		c-0.5,1.9-2,5.4-2,11.4c0,0,1.6,0.4,4.1,0.2c0.1,0.1,0,0.3-0.2,0.5C7.5,36.7,7,37,5.8,37l0.4,9.8c0,0,2.5-0.4,2.6-2.9
		c0,0,0.2-5.1,0.3-7.9c0.1,0,0.2,0,0.4-0.1c0.1,0,0.2,0,0.3-0.1c0.1,2.8,0.3,8,0.3,8c0.1,2.6,2.6,2.9,2.6,2.9l0.4-11
		c0.9,0.1,1.6,0.2,1.9,0.3l0-1.6C13.3,34.5,11.3,33.2,11.1,30.4z M56.6,16.8c-3.5-0.9-8.2-1-12.2,0C38.2,18.4,39,29.7,39.4,36
		c0.2,2.9,2.2,3.7,3.5,3.7c0,0,0-5.9,0-7.7c0-3.4,0.1-6.7,0.8-8.7c0.1-0.3,0.3-0.4,0.4-0.3v38.6c2.8,0,4.9-1.5,5.2-4.6
		c0,0,0.7-17.7,0.7-17.9c0-0.2,0.2-0.5,0.5-0.5c0.3,0,0.5,0.3,0.5,0.5c0,0.2,0.7,17.9,0.7,17.9c0.2,3.1,2.5,4.6,5.2,4.6V22.9
		c0.1-0.1,0.3-0.1,0.4,0.3c0.6,2,0.8,5.3,0.8,8.7c0,1.9,0,7.7,0,7.7c1.3,0,3.3-0.8,3.5-3.7C62,29.7,62.7,18.4,56.6,16.8z M38.3,36
		l0-0.1c-0.4-5.7-0.9-14.7,3-18.6c-0.5-0.5-1.2-0.8-1.9-1c-1.3-0.4-2.5-0.6-3.8-0.6h0c-1.4,0-2.6,0.2-3.8,0.6
		c-2.6,0.8-4.1,3.1-4.6,7.9c-0.3,2.2-1,3.9-1.5,7c-0.5,2.5,0.9,3.9,2,4.1c2.6-8.3,2.4-11.8,3-13.7c0.1-0.3,0.4-0.8,0.4-0.8
		c-0.5,2.3-0.2,3.3,0.1,4.5c0.3,1.2,0.4,2.5,0,3.7c-0.6,2.3-2.5,6.3-2.5,13.6c0,0,1.9,0.5,4.9,0.2c0.1,0.2,0.1,0.4-0.2,0.6
		c-0.2,0.2-0.9,0.5-2.3,0.5l0.5,12c0,0,3-0.5,3.2-3.5c0,0,0.3-6.4,0.4-9.8c0.2,0,0.3,0,0.5-0.1c0.1,0,0.3,0,0.4-0.1
		c0.1,3.4,0.4,9.9,0.4,9.9c0.2,3.1,3.2,3.6,3.2,3.6L40,42.4c1.4,0.1,2.4,0.4,2.4,0.4c0-0.7,0-1.4-0.1-2.1C40.4,40.5,38.5,39,38.3,36
		z M25.2,35c-0.7-1-1-2.4-0.7-4c0.3-1.5,0.6-2.7,0.8-3.7c0.3-1.1,0.5-2.1,0.7-3.2c0.4-3.6,1.4-6,3-7.5c-0.6-0.9-1.4-1.6-2.5-1.9
		c-2.9-0.8-6.6-0.8-9.9,0c-5,1.3-4.7,10.5-4.4,15.6c0.1,2.3,1.7,3,2.7,3c0,0,0-4.7,0-6.3c0-2.8,0.2-5.4,0.8-7
		c0.1-0.3,0.3-0.3,0.3-0.2V51c2.2,0,4.2-1.1,4.4-3.6c0,0,0.6-14.3,0.6-14.5s0.2-0.4,0.4-0.4c0.3,0,0.4,0.2,0.4,0.4
		c0,0.2,0.6,14.5,0.6,14.5c0.2,2.5,2.2,3.6,4.4,3.6V36.3C26.2,36,25.6,35.6,25.2,35z"/>
</g>
</svg>
