<?xml version="1.0" encoding="utf-8"?>
<!-- Generator: Adobe Illustrator 19.1.0, SVG Export Plug-In . SVG Version: 6.00 Build 0)  -->
<svg version="1.2" baseProfile="tiny" xmlns="http://www.w3.org/2000/svg" xmlns:xlink="http://www.w3.org/1999/xlink" x="0px"
	 y="0px" width="64px" height="64px" viewBox="0 0 64 64" xml:space="preserve">
<g id="_x36_4px_Box">
	<rect fill="none" width="64" height="64"/>
</g>
<g id="Icon">
	<g>
		<path d="M20.0574,36.8475c0.0017,0,0.0033,0.0002,0.005,0.0002h0.0002h0.0004c2.3969,0,4.6628-1.076,5.9998-1.8631
			c1.337,0.787,3.6028,1.8631,5.9997,1.8631c0.0001,0,0.0002,0,0.0002,0h0.0004c2.3969,0,4.6628-1.076,5.9998-1.8631
			c1.337,0.787,3.6028,1.8631,5.9997,1.8631h0.0002h0.0004c0.4218,0,0.8364-0.0427,1.2457-0.1019l1.7766-4.6223
			c-0.9438,0.4655-1.9644,0.8138-3.0214,0.8141c-0.0004,0-0.0007,0.0001-0.0007,0.0001c-2.4619-0.0001-4.9161-1.9367-6.0002-2.75
			l-0.0002,0.0002l-0.0003-0.0002c-1.0001,0.7504-3.4846,2.7499-5.9998,2.75c-2.4615-0.0001-4.9156-1.9367-5.9997-2.75
			l-0.0002,0.0002l-0.0003-0.0002c-1.0001,0.7504-3.4846,2.7499-5.9998,2.75c-0.0032,0-0.0068-0.0009-0.01-0.0009
			c-0.9915-0.0021-2.0763-0.3779-2.9769-0.8021c-0.0689-0.0338-0.1305-0.0731-0.1983-0.108l1.806,4.6989
			C19.1826,36.7971,19.4055,36.847,20.0574,36.8475z"/>
		<path d="M9.4476,40.6053c0.266-0.4333,0.1867-0.9975-0.1838-1.3382c-0.3724-0.3408-0.9307-0.3574-1.3215-0.0391l-5.4824,4.4547
			C2.2159,43.8806,2.0734,44.1814,2.0724,44.5c0.0009,0.3186,0.1435,0.6194,0.3874,0.8173l5.4824,4.4547
			c0.3909,0.3182,0.9492,0.3016,1.3215-0.0391c0.3705-0.3408,0.4498-0.9048,0.1838-1.3382l-1.9267-3.8946H7.5203l0.0005-0.0002
			L9.4476,40.6053z"/>
		<path d="M56.1302,39.228c-0.3909-0.3182-0.9492-0.3016-1.3215,0.0392c-0.3706,0.3407-0.4499,0.9048-0.1839,1.3381l1.9267,3.8947
			h0.0006l-0.0006,0.0001l-1.9267,3.8946c-0.266,0.4333-0.1867,0.9975,0.1839,1.3381c0.3724,0.3408,0.9307,0.3575,1.3215,0.0392
			l5.4824-4.4547c0.2439-0.1979,0.3865-0.4987,0.3874-0.8173c-0.0009-0.3185-0.1435-0.6194-0.3874-0.8173L56.1302,39.228z"/>
		<path d="M35.8947,52.6248l-3.8946,1.9267v0.0005l-0.0001-0.0005l-3.8946-1.9267c-0.4333-0.266-0.9975-0.1867-1.3381,0.1838
			c-0.3408,0.3724-0.3575,0.9307-0.0392,1.3215l4.4547,5.4824C31.3806,59.8564,31.6815,59.9991,32,60
			c0.3186-0.0009,0.6194-0.1436,0.8173-0.3875l4.4547-5.4824c0.3183-0.3909,0.3016-0.9491-0.0391-1.3215
			C36.8922,52.4381,36.328,52.3588,35.8947,52.6248z"/>
		<path d="M52.5645,24l-8.0713,21H32H19.5068l-8.0713-21H2v5h6l7.334,19.0791C15.7764,49.2285,16.9014,50,18.1328,50H32h13.8672
			c1.2314,0,2.3564-0.7715,2.7988-1.9209L56,29h6v-5H52.5645z"/>
	</g>
</g>
</svg>
