<?xml version="1.0" encoding="utf-8"?>
<!-- Generator: Adobe Illustrator 24.1.3, SVG Export Plug-In . SVG Version: 6.00 Build 0)  -->
<svg version="1.1" xmlns="http://www.w3.org/2000/svg" xmlns:xlink="http://www.w3.org/1999/xlink" x="0px" y="0px"
	 viewBox="0 0 64 64" style="enable-background:new 0 0 64 64;" xml:space="preserve">
<style type="text/css">
	.st0{fill:none;}
</style>
<g id="Box">
	<rect class="st0" width="64" height="64"/>
</g>
<g id="Icon">
	<g>
		<path d="M2,36v8c0,1.1,0.9,2,2,2h49v-3H20v-6h33v-3H4C2.9,34,2,34.9,2,36z"/>
		<path d="M58.2,26c0.8-2.2,3.5-2.2,4.3-5c0.7-2.3-0.6-4.5-2.8-5.6c0,0,0.9,1.8,0.4,3.5c-0.8,2.6-3.8,2.9-4.7,5.5
			c-0.9,2.6,0.5,5.2,3.8,5.9C59.2,30.5,57.5,28,58.2,26z"/>
		<path d="M55.5,16.4c0.8-2.2,3.5-2.2,4.3-5c0.7-2.3-0.6-4.5-2.8-5.6c0,0,0.9,1.8,0.4,3.5c-0.8,2.6-3.8,2.9-4.7,5.5
			c-0.9,2.6,0.5,5.2,3.8,5.9C56.5,20.9,54.8,18.4,55.5,16.4z"/>
		<rect x="55" y="34" width="3" height="12"/>
		<path d="M62,34h-2v12h2c0.6,0,1-0.4,1-1V35C63,34.4,62.6,34,62,34z"/>
	</g>
</g>
</svg>
