<?xml version="1.0" encoding="utf-8"?>
<!-- Generator: Adobe Illustrator 22.1.0, SVG Export Plug-In . SVG Version: 6.00 Build 0)  -->
<!DOCTYPE svg PUBLIC "-//W3C//DTD SVG 1.1//EN" "http://www.w3.org/Graphics/SVG/1.1/DTD/svg11.dtd">
<svg version="1.1" xmlns="http://www.w3.org/2000/svg" xmlns:xlink="http://www.w3.org/1999/xlink" x="0px" y="0px" width="64px"
	 height="64px" viewBox="0 0 64 64" style="enable-background:new 0 0 64 64;" xml:space="preserve">
<style type="text/css">
	.st0{fill:none;}
	.st1{fill:#FFFFFF;}
</style>
<g id="_x36_4px_Box">
	<rect class="st0" width="64" height="64"/>
</g>
<g id="Icon">
	<g>
		<path d="M47,48c-0.2-2.5-0.2-5.7,0.3-10.1C48,31,49.2,22.6,50.2,18c0.7-3.6,0.6-7.5-1.7-10.3C47.1,6,45,5,42.9,5L13,5
			C9.3,5,6.1,8.2,5.8,12c-0.4,5.2,3.7,8.5,8.1,9.2c0.3-1.7,0.6-3.1,0.7-3.9c-1.9-0.3-5.1-1.6-4.9-4.9C9.9,10.4,11.5,9,13.3,9
			c0.9,0,1.8,0.4,2.4,1.2c1.2,1.5,1.5,4,0.9,7c-1.4,6.8-3.9,23.2-3.5,29.9C13.3,49.9,14.4,59,22,59h26c7.1,0,10.6-8,11.8-11H47z
			 M22,55c-3.9,0-4.7-5.1-4.9-8.1c-0.3-6.1,2-21.8,3.5-28.9c0.9-4.3,0.2-7-0.9-9h23.2c1.8,0,2.9,1.5,3.4,3.2c0.4,1.5,0.3,3.5,0,5
			c-0.9,4.5-2.1,13.2-2.8,20.6c-0.5,5-0.5,8.6-0.3,10.2H29.4C28,51,25.9,55,22,55z M48,55H29.9c0.7-1,1.4-2,2-3h21.2
			C51.9,54,50.2,55,48,55z"/>
		<path d="M24.2,25.9c-0.8,0-1.5,0.7-1.5,1.5s0.7,1.5,1.5,1.5c0.8,0,1.5-0.7,1.5-1.5S25.1,25.9,24.2,25.9z"/>
		<path d="M23.3,32.9c-0.8,0-1.5,0.7-1.5,1.5c0,0.8,0.7,1.5,1.5,1.5c0.8,0,1.5-0.7,1.5-1.5C24.8,33.5,24.2,32.9,23.3,32.9z"/>
		<path d="M22.7,39.9c-0.8,0-1.5,0.7-1.5,1.5c0,0.8,0.7,1.5,1.5,1.5c0.8,0,1.5-0.7,1.5-1.5C24.2,40.6,23.5,39.9,22.7,39.9z"/>
		<path d="M27.4,29h13.9c0.1-1,0.3-2,0.4-3H27.8C27.6,27,27.5,28,27.4,29z"/>
		<path d="M26.5,36h13.9c0.1-1,0.2-2,0.3-3H26.9C26.7,34,26.6,35,26.5,36z"/>
		<path d="M26,43h13.9c0-0.9,0.1-1.9,0.2-3H26.1C26.1,41.1,26,42.1,26,43z"/>
		<path d="M23.9,20.6h1.7l0.1,1.3h1.4l-0.7-5.7h-1.7L22,21.8h1.3L23.9,20.6z M25.2,17.5l0.2,2.1h-1.1L25.2,17.5z"/>
		<polygon points="29.5,17.8 30,20.8 31.3,20.8 32.7,17.8 32.3,21.8 33.5,21.8 34.2,16.1 32.5,16.1 31,19.2 30.5,16.1 28.7,16.1 
			27.4,21.8 28.7,21.8 		"/>
		<polygon points="37.2,21.8 39.9,16.1 38.6,16.1 36.7,20.3 36.2,16.1 34.8,16.1 35.5,21.8 		"/>
		<path d="M41.2,21.8c1.4,0,2.3-0.6,2.5-1.8c0.1-0.6-0.1-1-0.6-1.3c0.4-0.3,0.7-0.7,0.8-1.3c0.1-0.4,0-0.7-0.2-0.9
			c-0.3-0.4-0.9-0.5-1.7-0.5h-1.6l-1,5.7H41.2z M41.4,17.1h0.4c0.4,0,0.6,0.1,0.7,0.2c0.1,0.1,0.1,0.2,0.1,0.4
			c-0.1,0.5-0.4,0.7-1.1,0.7h-0.3L41.4,17.1z M41,19.4h0.3c0.5,0,0.8,0.1,1,0.2c0.1,0.1,0.1,0.2,0.1,0.4c-0.1,0.6-0.6,0.7-1.1,0.7
			h-0.5L41,19.4z"/>
	</g>
</g>
</svg>
