<svg height="64" viewBox="0 0 64 64" width="64" xmlns="http://www.w3.org/2000/svg"><path d="m0 0h64v64h-64z" fill="none"/><path d="m41.8876 39.3601c-1.5112.4866-2.9015.85-4.0813 1.1166-.1808 2.8527-.1967 5.4373.0362 7.5233h-13.4729c-1.3914 2.8824-3.5124 7-7.3696 7-3.8594 0-4.7129-5.0801-4.8779-8.1084-.3315-6.084 2.0347-21.8008 3.4521-28.8896.8544-4.2717.1593-7.1396-.8516-9.002h23.1641c.9297 0 1.793.4287 2.4307 1.207.8519 1.0388 1.2521 2.6045 1.1976 4.5182 1.2568-.7611 2.5642-1.5264 3.9023-2.1906-.3017-2.3002-1.1596-3.8309-2.0067-4.8638-1.3911-1.6972-3.4047-2.6708-5.5239-2.6708l-29.8867.0152c-3.7656 0-6.9235 3.1494-7.228 6.9496-.4147 5.168 3.6896 8.4512 8.1013 9.1509.3107-1.7001.5756-3.0696.7454-3.9271-1.9008-.2799-5.1238-1.6087-4.8594-4.9035.1474-1.8427 1.7085-3.2851 3.5532-3.2851.9297 0 1.793.4287 2.4307 1.207 1.1982 1.4609 1.521 3.9502.9092 7.0098-1.3682 6.8408-3.8911 23.1611-3.5244 29.8926.1523 2.789 1.2416 11.8906 8.872 11.8906h26c7.1295 0 10.6154-7.6154 11.8115-11h-12.942c-.2906-2.0486-.2777-4.9732.0181-8.6399zm1.1124 15.6399h-18.1782c.7241-.8652 1.3994-1.8752 2.0225-3.01h21.25c-1.2755 1.666-2.9625 3.01-5.0943 3.01z"/><path d="m35.7433 19h-15.8405c-.1819.9315-.3718 1.9354-.5667 3h13.5679c.8047-.9888 1.7447-1.994 2.8393-3z"/><path d="m30.2509 26h-11.6172c-.1658.9851-.3301 1.9848-.4888 3h10.8291c.3073-.9253.7205-1.9333 1.2769-3z"/><path d="m17.556 33c-.1396 1.0148-.2668 2.0148-.3843 3h11.0896l-.1402-1.5947c-.0073-.0822-.0443-.586.018-1.4053z"/><path d="m61.7483 8.4534c-2.8609.7487-6.6425 2.1808-11.5796 4.3014-3.844 1.6511-7.7822 3.7195-10.9812 6.2077-9.5625 7.4375-8.875 15.25-8.875 15.25 6.7162-7.1302 13.6873-11.3551 16.5938-12.4531.7031-.2656.875-.0469.8438.1406 0 0-7 4.9375-12.5 10.5625-4.1613 4.2559-6.5336 8.941-7.442 10.9697-.2922.6526.0615.764.0615.764l2.943-1.6086c1.4375-2.375 3-3.625 3-3.625s6.25-.6875 12.5625-3.75 11.0625-9.6875 11.0625-9.6875l-3.6094-3.4s-.0933-.3694.8906-.2969c1.4844.1094 3.9198.2493 3.9198.2493 1.0552.0398 1.9398-.7509 2.063-1.7996.5262-4.4786.8505-8.1815 2.153-10.3516.4597-.7663-.2418-1.6991-1.1063-1.4729z"/></svg>