<?xml version="1.0" encoding="utf-8"?>
<!-- Generator: Adobe Illustrator 18.1.1, SVG Export Plug-In . SVG Version: 6.00 Build 0)  -->
<svg version="1.2" baseProfile="tiny" xmlns="http://www.w3.org/2000/svg" xmlns:xlink="http://www.w3.org/1999/xlink" x="0px"
	 y="0px" width="64px" height="64px" viewBox="0 0 64 64" xml:space="preserve">
<g id="Box">
	<rect fill="none" width="64" height="64"/>
</g>
<g id="Icon">
	<g>
		<path d="M41.8876,39.3601c-1.5112,0.4866-2.9015,0.85-4.0813,1.1166C37.6255,43.3294,37.6096,45.914,37.8425,48H24.3696
			c-1.3914,2.8824-3.5124,7-7.3696,7c-3.8594,0-4.7129-5.0801-4.8779-8.1084c-0.3315-6.084,2.0347-21.8008,3.4521-28.8896
			c0.8544-4.2717,0.1593-7.1396-0.8516-9.002h23.1641c0.9297,0,1.793,0.4287,2.4307,1.207
			c0.8519,1.0388,1.2521,2.6045,1.1976,4.5182c1.2568-0.7611,2.5642-1.5264,3.9023-2.1906
			c-0.3017-2.3002-1.1596-3.8309-2.0067-4.8638C42.0195,5.9736,40.0059,5,37.8867,5L8,5.0152c-3.7656,0-6.9235,3.1494-7.228,6.9496
			c-0.4147,5.168,3.6896,8.4512,8.1013,9.1509c0.3107-1.7001,0.5756-3.0696,0.7454-3.9271
			c-1.9008-0.2799-5.1238-1.6087-4.8594-4.9035C4.9067,10.4424,6.4678,9,8.3125,9c0.9297,0,1.793,0.4287,2.4307,1.207
			c1.1982,1.4609,1.521,3.9502,0.9092,7.0098c-1.3682,6.8408-3.8911,23.1611-3.5244,29.8926C8.2803,49.8984,9.3696,59,17,59h26
			c7.1295,0,10.6154-7.6154,11.8115-11h-12.942C41.5789,45.9514,41.5918,43.0268,41.8876,39.3601z M43,55H24.8218
			c0.7241-0.8652,1.3994-1.8752,2.0225-3.01h21.25C46.8188,53.656,45.1318,55,43,55z"/>
		<path d="M35.7433,19H19.9028c-0.1819,0.9315-0.3718,1.9354-0.5667,3H32.904C33.7087,21.0112,34.6487,20.006,35.7433,19z"/>
		<path d="M30.2509,26H18.6337c-0.1658,0.9851-0.3301,1.9848-0.4888,3h10.8291C29.2813,28.0747,29.6945,27.0667,30.2509,26z"/>
		<path d="M17.556,33c-0.1396,1.0148-0.2668,2.0148-0.3843,3h11.0896l-0.1402-1.5947c-0.0073-0.0822-0.0443-0.586,0.018-1.4053
			H17.556z"/>
		<path d="M61.7483,8.4534c-2.8609,0.7487-6.6425,2.1808-11.5796,4.3014c-3.844,1.6511-7.7822,3.7195-10.9812,6.2077
			c-9.5625,7.4375-8.875,15.25-8.875,15.25c6.7162-7.1302,13.6873-11.3551,16.5938-12.4531
			c0.7031-0.2656,0.875-0.0469,0.8438,0.1406c0,0-7,4.9375-12.5,10.5625c-4.1613,4.2559-6.5336,8.941-7.442,10.9697
			c-0.2922,0.6526,0.0615,0.764,0.0615,0.764l2.943-1.6086c1.4375-2.375,3-3.625,3-3.625s6.25-0.6875,12.5625-3.75
			s11.0625-9.6875,11.0625-9.6875l-3.6094-3.4c0,0-0.0933-0.3694,0.8906-0.2969c1.4844,0.1094,3.9198,0.2493,3.9198,0.2493
			c1.0552,0.0398,1.9398-0.7509,2.063-1.7996c0.5262-4.4786,0.8505-8.1815,2.153-10.3516
			C63.3143,9.16,62.6128,8.2272,61.7483,8.4534z"/>
	</g>
</g>
</svg>
