<?xml version="1.0" encoding="utf-8"?>
<!-- Generator: Adobe Illustrator 24.1.3, SVG Export Plug-In . SVG Version: 6.00 Build 0)  -->
<svg version="1.1" xmlns="http://www.w3.org/2000/svg" xmlns:xlink="http://www.w3.org/1999/xlink" x="0px" y="0px"
	 viewBox="0 0 64 64" style="enable-background:new 0 0 64 64;" xml:space="preserve">
<style type="text/css">
	.st0{fill:none;}
</style>
<g id="Box">
	<rect class="st0" width="64" height="64"/>
</g>
<g id="Icon">
	<g>
		<path d="M52.84,45.01l-11.89,0.39c-0.7,0.02-1.28,0.52-1.26,1.22c-0.13,0.69,0.37,1.27,0.97,1.47l4.55,1.29l-6.65,5.68
			c-1.08,0.92-0.42,2.37,0.43,3.37c0.85,1,2.04,1.71,3.12,0.79l6.65-5.68l0.56,4.7c0.22,0.88,0.84,1.24,1.3,1.19
			c0.62,0.05,1.27-0.37,1.4-1.05l2.23-11.69C54.4,45.83,53.69,45,52.84,45.01z"/>
		<path d="M55,14h-3.61c-3.3,0-6.5,1.17-9.02,3.3L21.62,34.76c-0.05-0.03-0.25-0.18-0.04-0.44c0.12-0.15,2.1-2.63,3.9-4.88
			c0.18-2.29,0.24-4.43,0.07-6.44c-0.34-4.01-5.8-4.16-6.21-0.91c-0.51,4.02,0.15,8.63,0.32,10.38c0.14,1.39,0.26,2.59,0.36,3.66
			L11.88,43H9c-4.42,0-8,3.58-8,8s3.58,8,8,8h3.61c3.3,0,6.5-1.17,9.02-3.3L52.12,30H55c4.42,0,8-3.58,8-8S59.42,14,55,14z M55,26
			h-3.48c-0.55,0-1.09,0.2-1.51,0.55L19.53,52.25C17.42,54.02,14.74,55,11.99,55H9c-2.21,0-4-1.79-4-4s1.79-4,4-4h2.99
			c0.87,0,1.71-0.31,2.38-0.87l6.15-5.19c0.09,0.79,0.19,1.58,0.3,2.42c0.46,3.5,2.4,4,3.36,3.51c0.11-2.61,0.36-6.33,0.51-9.44
			l20.16-16.99c1.86-1.57,4.23-2.44,6.67-2.44H55c2.21,0,4,1.79,4,4S57.21,26,55,26z"/>
		<path d="M22.68,18.55c1.8,0.16,2.95-1.01,3.1-2.83c0.18-2.06-0.81-3.27-2.56-3.42c-1.84-0.16-2.95,1.06-3.11,2.93
			C19.94,17.2,20.88,18.39,22.68,18.55z"/>
	</g>
</g>
</svg>
