<?xml version="1.0" encoding="utf-8"?>
<!-- Generator: Adobe Illustrator 18.0.0, SVG Export Plug-In . SVG Version: 6.00 Build 0)  -->
<svg version="1.2" baseProfile="tiny" xmlns="http://www.w3.org/2000/svg" xmlns:xlink="http://www.w3.org/1999/xlink" x="0px"
	 y="0px" width="64px" height="64px" viewBox="0 0 64 64" xml:space="preserve">
<g id="_x36_4px">
	<rect fill="none" width="64" height="64"/>
</g>
<g id="icon">
	<g>
		<path d="M52.23,44.7586c-2.7688,0.9518-6.3674,2.413-9.2219,3.6127c0.0737,0.4328,0.0837,0.8923,0.012,1.3787
			c-0.4146,2.8079-2.8201,4.5833-6.2402,4.7416c-7.7328,0.3578-12.5348-1.5577-13.5314-1.9618
			c-0.2863-0.1161-0.318-0.2576-0.2924-0.3882c0.0015-0.0012,0.0112-0.0091,0.0112-0.0091
			c5.5945,0.9645,9.1205,1.1222,13.4634,0.4237c3.2949-0.53,4.489-2.106,4.4612-3.4058c-0.027-1.2701-0.9266-2.0373-2.9519-2.1077
			c-6.8901-0.2395-10.9187-1.0081-16.8242-1.8688c-4.1041-0.5981-8.0618,0.4671-11.4326,2.6266
			c-3.1633,2.0265-4.0403,2.9852-4.0403,2.9852l5.7858,11.1429l7.4819-3.0415c0.8527-0.3466,1.7843-0.4511,2.6925-0.3021
			l10.2607,2.283c2.2893,0.3757,4.6379-0.0563,6.6438-1.2219L58.9871,46.8C58.9871,46.8,57.9828,42.781,52.23,44.7586z"/>
		<path d="M27.9081,38.4611c1.0184,0.2662,2.545,0.5545,2.9393-1.8992c0.3082-1.9185-0.231-2.324-1.2692-2.6713
			c-0.2679-0.0896-0.6912-0.2238-0.9945-0.3214C24.1192,32.1321,20.89,27.9432,20.89,23c0-6.1359,4.9741-11.11,11.11-11.11
			S43.11,16.8641,43.11,23c0,2.877-1.0999,5.4906-2.8956,7.4607L39.606,26.382c-0.1099-0.7368-0.7166-1.2909-1.4467-1.3215
			c-0.7307-0.0311-1.3803,0.4708-1.5485,1.1956L34.0898,37.076c-0.1082,0.4637-0.0019,0.9521,0.288,1.3257
			c0.2899,0.3737,0.7316,0.5915,1.1991,0.5909l10.9079-0.011c0.354-0.0001,0.6839-0.1245,0.9458-0.3358
			c0.2785-0.2246,0.4804-0.548,0.5518-0.9253c0.1388-0.7315-0.2504-1.4609-0.9284-1.7396l-2.7861-1.1398
			c0,0-1.2661,1.0588-2.975,1.547c-0.357,0.1021-0.3914-0.0816-0.3914-0.0816l-0.0035-0.0277C45.1776,33.4102,48,28.54,48,23
			c0-8.8365-7.1635-16-16-16s-16,7.1635-16,16C16,30.4207,21.052,36.6693,27.9081,38.4611z"/>
	</g>
</g>
</svg>
