<?xml version="1.0" encoding="utf-8"?>
<!-- Generator: Adobe Illustrator 19.1.0, SVG Export Plug-In . SVG Version: 6.00 Build 0)  -->
<svg version="1.2" baseProfile="tiny" xmlns="http://www.w3.org/2000/svg" xmlns:xlink="http://www.w3.org/1999/xlink" x="0px"
	 y="0px" width="64px" height="64px" viewBox="0 0 64 64" xml:space="preserve">
<g id="_x36_4px_Box">
	<rect fill="none" width="64" height="64"/>
</g>
<g id="Icon">
	<g>
		<path d="M60,32c0-2.3655-1.3835-4.5806-3.7878-6.4877c1.1285-2.8537,1.2192-5.4638,0.0365-7.5123
			c-1.1827-2.0486-3.4884-3.2751-6.5241-3.7246C49.2751,11.2397,48.0486,8.934,46,7.7513c-2.0485-1.1827-4.6586-1.092-7.5123,0.0365
			C36.5806,5.3835,34.3655,4,32,4s-4.5805,1.3835-6.4876,3.7878C22.6586,6.6592,20.0486,6.5685,18,7.7513
			c-2.0485,1.1827-3.2751,3.4884-3.7246,6.5241C11.2397,14.7249,8.934,15.9515,7.7513,18s-1.092,4.6586,0.0365,7.5123
			C5.3835,27.4194,4,29.6345,4,32s1.3835,4.5805,3.7878,6.4876C6.6592,41.3414,6.5685,43.9514,7.7513,46
			c1.1827,2.0485,3.4885,3.275,6.5241,3.7245c0.4495,3.0356,1.6761,5.3414,3.7246,6.5241c2.0486,1.1827,4.6586,1.0921,7.5124-0.0364
			C27.4195,58.6165,29.6345,60,32,60s4.5806-1.3835,6.4877-3.7878c2.8537,1.1285,5.4638,1.2192,7.5123,0.0364
			s3.2751-3.4885,3.7246-6.5241c3.0357-0.4495,5.3414-1.676,6.5241-3.7245c1.1827-2.0486,1.092-4.6586-0.0365-7.5124
			C58.6165,36.5805,60,34.3655,60,32z M32,52.1c-11.1009,0-20.1-8.9991-20.1-20.1c0-11.101,8.9991-20.1,20.1-20.1
			c11.101,0,20.1,8.999,20.1,20.1C52.1,43.1009,43.101,52.1,32,52.1z"/>
		<path d="M32,14c-9.9411,0-18,8.0588-18,18c0,9.9411,8.0589,18,18,18c9.9412,0,18-8.0589,18-18C50,22.0588,41.9412,14,32,14z
			 M42.7386,24.6174L31.528,43.1733C31.2156,43.687,30.6579,44,30.0582,44c-0.0026,0-0.0037,0-0.0063,0
			c-0.6022-0.002-1.16-0.3192-1.4697-0.836l-7.3378-12.246c-0.4337-0.725-0.2776-1.6581,0.3706-2.2015
			c0.6457-0.5441,1.5912-0.5366,2.2319,0.0173l6.0576,5.2471l10.0816-11.4034c0.5924-0.6624,1.5912-0.7645,2.3076-0.2354
			C43.0075,22.8712,43.2007,23.8578,42.7386,24.6174z"/>
	</g>
</g>
</svg>
