<svg xmlns="http://www.w3.org/2000/svg" width="48" height="48" xmlns:v="https://vecta.io/nano"><path d="M43.199 8.398C43 6.602 41.602 5.199 39.801 5c-5.402-1-14-1-15.801-1s-10.398 0-15.602.801c-1.797.398-3.199 1.801-3.598 3.598C4 13.602 4 22.199 4 24s0 10.398.801 15.602C5 41.398 6.398 42.801 8.199 43c5.402 1 14 1 15.801 1s10.398 0 15.602-.801c1.797-.398 3.199-1.598 3.398-3.398.801-5.199.801-14 .801-15.602.199-5.398.199-10.598-.602-15.801zM14 38.398c-2.801 0-4.398-1.598-4.398-4.398s1.598-4.398 4.398-4.398 4.398 1.598 4.398 4.398c0 3-1.598 4.398-4.398 4.398zm12.801.402H24h-2.398c.797-1.402 1.199-3 1.199-4.602 0-5.199-3.602-8.801-8.801-8.801-1.801 0-3.398.402-4.602 1.203v-2.402-2.801c1.402-.398 3-.797 4.602-.797 8 0 13.602 5.797 13.602 13.598-.203 1.602-.402 3.199-.801 4.602zm10.398-.402c-1.598.203-3.398.402-5.398.402.398-1.402.598-3 .598-4.602 0-10.598-8-18.598-18.598-18.598-1.602 0-3 .199-4.602.598 0-2.199.199-4 .402-5.398 1.398-.199 2.797-.402 4.199-.402 13.598 0 23.801 10.203 23.801 23.801 0 1.402-.203 2.801-.402 4.199zm0 0" fill="rgb(0%,0%,0%)"/></svg>