<?xml version="1.0" encoding="utf-8"?>
<!-- Generator: Adobe Illustrator 19.2.0, SVG Export Plug-In . SVG Version: 6.00 Build 0)  -->
<svg version="1.0" xmlns="http://www.w3.org/2000/svg" xmlns:xlink="http://www.w3.org/1999/xlink" x="0px" y="0px"
	 viewBox="0 0 64 64" enable-background="new 0 0 64 64" xml:space="preserve">
<g id="achtergrond">
</g>
<g id="paneel_1">
	<path d="M50.9139,34.9466c-0.5095-0.6359-1.7064-0.0821-1.7064-0.0821s-3.304,2.5852-3.894,2.9729
		c-0.5909,0.3881-0.528-0.057-0.0981-0.6189c0.431-0.5596,5.5123-4.4724,5.5123-4.4724s1.0256-1.1368,0.3162-1.9039
		c-0.7113-0.7668-1.6722-0.2435-1.6722-0.2435s-4.749,3.8427-5.1712,4.1554c-0.4239,0.3121-0.73-0.2742-0.051-0.8229
		c0.6785-0.5499,5.9397-4.8661,5.9397-4.8661s0.947-1.1128,0.2333-1.7986c-0.7131-0.6848-2.0455-0.0729-2.0455-0.0729
		s-5.4832,4.5893-5.9477,4.9415c-0.4661,0.3517-1.1556,0.1192-0.2151-0.8295c0.9409-0.9504,3.9229-4.1068,3.9229-4.1068
		s0.979-0.971,0.2894-1.7703c-0.6839-0.7918-2.225,0.1598-2.225,0.1598s-6.0531,5.6833-7.0756,6.6301
		c-1.0233,0.9465-2.1665,1.8466-1.587,0.6777c0.5785-1.1684,2.7201-4.4972,2.7201-4.4972s0.6086-1.2752-0.7481-1.9185
		c-1.0817-0.5116-3.0449,1.8705-4.6853,4.971c-1.6401,3.0998-2.8576,5.2561-4.3612,6.9648
		c-0.1827,0.206-0.4095,0.4234-0.6714,0.6468l-0.0003,0.0009c0,0-0.0025,0.0019-0.0038,0.0034
		c-0.204,0.1724-0.4269,0.3497-0.6687,0.531c0.0024-0.0185,0.0041-0.0382,0.0065-0.0567c-0.8589,0.6078-2.4473,1.702-4.1508,2.7377
		c-2.2078,1.341-5.0723,3.0406-5.0723,3.0406s4.7223-3.5852,6.912-5.6272c1.173-1.0934,2.0976-2.77,2.7042-4.0927
		c0.2343-2.1435,0.5403-4.2363,1.0522-5.3923c0.9215-2.0818,2.3692-4.0906,4.4967-6.8785c2.1284-2.7884,3.4696-5.5703,2.55-6.3379
		c-1.1521-0.9616-2.0551,0.1261-2.0551,0.1261s-2.1236,3.3383-2.9434,4.3537c-0.8182,1.016-0.4797-0.4003-0.0488-1.725
		c0.4312-1.3256,3.054-9.2028,3.054-9.2028s0.2183-1.798-0.7869-2.0872c-1.0147-0.2915-1.4858,1.0045-1.4858,1.0045
		s-1.6159,4.0306-2.0847,5.2824c-0.4687,1.2518-0.9675,0.724-0.8432,0.1528c0.1248-0.5701,1.9947-7.4709,1.9947-7.4709
		s-0.0033-1.4669-0.924-1.8269c-0.9212-0.3612-1.5358,0.9663-1.5358,0.9663s-1.7156,6.5844-1.9284,7.4308
		c-0.2145,0.8459-0.8757,0.8146-0.7697,0.2998c0.1062-0.5156,1.6064-6.4382,1.6064-6.4382s0.0716-1.0925-0.9217-1.4157
		c-0.9934-0.3231-1.5965,1.0851-1.5965,1.0851s-1.4232,6.2534-1.7516,6.8787c-0.3293,0.6258-0.7079,0.8691-0.6028,0.1703
		S22.963,9.794,22.963,9.794s0.0014-1.3202-0.7891-1.5158c-0.7911-0.1967-1.2758,0.723-1.6348,1.8267
		c-0.359,1.1038-1.3594,4.5632-1.7623,8.2389c-0.4019,3.6752,0.6513,5.3192-0.0332,9.6766
		c-0.6847,4.3556-5.098,17.1757-5.098,17.1757s1.056,0.5455,2.5562,1.1566c-1.8692,1.2123-3.5166,2.3039-3.5166,2.3039
		s1.9375,3.0337,3.9033,5.328c1.9649,2.2941,4.3785,4.1748,4.3785,4.1748s9.7904-9.3803,13.46-11.8273
		c3.6683-2.4456,5.603-2.1791,8.7712-4.0838c3.1683-1.9055,5.89-4.2642,6.7426-5.0532
		C50.7925,36.4069,51.4242,35.5828,50.9139,34.9466z"/>
</g>
</svg>
