<?xml version="1.0" encoding="utf-8"?>
<!-- Generator: Adobe Illustrator 25.2.0, SVG Export Plug-In . SVG Version: 6.00 Build 0)  -->
<svg version="1.1" xmlns="http://www.w3.org/2000/svg" xmlns:xlink="http://www.w3.org/1999/xlink" x="0px" y="0px"
	 viewBox="0 0 64 64" style="enable-background:new 0 0 64 64;" xml:space="preserve">
<style type="text/css">
	.st0{fill:none;}
	.st1{fill:#B3B3B3;}
</style>
<g id="Box">
	<rect class="st0" width="64" height="64"/>
</g>
<g id="Icon">
	<g>
		<path d="M24.515,21.75c2.975,0.547,5.057-1.176,5.576-4.113c0.591-3.346-0.892-5.472-3.79-6.005
			c-3.053-0.562-5.072,1.257-5.605,4.277C20.135,19.091,21.54,21.202,24.515,21.75z"/>
		<path d="M39.646,38.876C38.287,38.741,29.857,38,29.857,38c-1.42-5.062-2.045-7.25-2.766-10.051
			c-0.144-0.558-1.126-3.861-3.927-4.574c-1.926-0.49-4.036,0.021-5.548,1.897c-3.76,4.666-6.968,20.618-6.968,20.618
			s3.079,0.822,4.699-2.832c1.661-3.747,1.961-6.463,2.965-9.132c0.632,2.648,1.31,5.209,1.939,7.324
			c0.682,2.292,2.349,4.651,5.667,4.75c3.417,0,11.606,0,11.606,0s3.421,6.083,6.13,9.618c2.708,3.534,5.808,1.992,6.632,1.488
			c0,0-6.762-14.903-7.418-16.101C42.211,39.807,41.005,39.01,39.646,38.876z"/>
		<path d="M35,48H9c-1.104,0-2,0.895-2,2s0.896,2,2,2h26c1.104,0,2-0.895,2-2S36.104,48,35,48z"/>
		<path d="M43.918,30.381c0.263,0.137,0.533,0.228,0.693,0.12c-0.774-2.186-1.234-4.099-1.151-5.599
			c0.249-4.479,3.9-7.95,3.389-12.541c-0.184-1.658-0.959-3.503-2.539-5.459c-0.259-0.32-0.58-0.522-0.757-0.371
			c0.465,1.683,0.956,3.486,0.857,5.271c-0.206,3.721-3.876,7.851-3.7,12.6C40.8,26.813,42.327,29.554,43.918,30.381z"/>
		<path d="M58.137,23.715c0-3.109-1.395-5.982-2.95-7.8c-0.312-0.365-0.534-0.474-0.714-0.286c0.614,2.136,1.229,4.803,1.064,7.036
			c-0.408,5.527-3.8,9.094-3.8,15.2c0,3.384,1.2,5.6,2.55,7c0.484,0.502,1.325,0.909,1.488,0.677
			c-0.988-2.127-1.429-4.347-1.29-6.271C54.906,33.458,58.137,29.044,58.137,23.715z"/>
	</g>
</g>
</svg>
