<?xml version="1.0" encoding="utf-8"?>
<!-- Generator: Adobe Illustrator 21.0.2, SVG Export Plug-In . SVG Version: 6.00 Build 0)  -->
<!DOCTYPE svg PUBLIC "-//W3C//DTD SVG 1.1//EN" "http://www.w3.org/Graphics/SVG/1.1/DTD/svg11.dtd">
<svg version="1.1" xmlns="http://www.w3.org/2000/svg" xmlns:xlink="http://www.w3.org/1999/xlink" x="0px" y="0px" width="64px"
	 height="64px" viewBox="0 0 64 64" style="enable-background:new 0 0 64 64;" xml:space="preserve">
<style type="text/css">
	.st0{fill:none;}
</style>
<g id="_x36_4px_Box">
	<rect class="st0" width="64" height="64"/>
</g>
<g id="Icon">
	<path d="M44.7,56l0.2-1.4l-3.9-3.5l-5.8,2l3.7-3.9l0-7.5l-4.7,0.7l-4.5-7.9l5.8,5.2l6.7-1.9l-1.1,9.5l8.8,6V9c0-1.1-0.9-2-2-2H16
		c-1.1,0-2,0.9-2,2v47h5v-9h6v9H44.7z M39,14h6v6h-6V14z M39,24h6v6h-6V24z M29,14h6v6h-6V14z M29,24h6v6h-6V24z M19,14h6v6h-6V14z
		 M19,24h6v6h-6V24z M19,40v-6h6v6H19z"/>
</g>
</svg>
