<?xml version="1.0" encoding="utf-8"?>
<!-- Generator: Adobe Illustrator 19.1.0, SVG Export Plug-In . SVG Version: 6.00 Build 0)  -->
<svg version="1.2" baseProfile="tiny" xmlns="http://www.w3.org/2000/svg" xmlns:xlink="http://www.w3.org/1999/xlink" x="0px"
	 y="0px" width="64px" height="64px" viewBox="0 0 64 64" xml:space="preserve">
<g id="Box">
	<rect fill="none" width="64" height="64"/>
</g>
<g id="Icon">
	<path d="M49.6017,35.7368l-5.8236-2.0421l-4.6154,6.1416l2.25,6.375l-4.25-4.0663l-8.265-0.0125l0.8,5.1163l-8.66,4.9625
		l5.7256-6.3802L24.6628,38.52l10.3997,1.191l7.3802-10.7158l4.9462,1.4023L36.4482,4h-4.0009l0.2011,3h-2.2968l0.2011-3h-4.0019
		L5,56h53L49.6017,35.7368z M30.0164,12h2.9671l0.3352,5h-3.6375L30.0164,12z M29.212,24h4.5759l0.5363,8h-5.6484L29.212,24z"/>
</g>
</svg>
