<?xml version="1.0" encoding="utf-8"?>
<!-- Generator: Adobe Illustrator 24.1.0, SVG Export Plug-In . SVG Version: 6.00 Build 0)  -->
<svg version="1.1" xmlns="http://www.w3.org/2000/svg" xmlns:xlink="http://www.w3.org/1999/xlink" x="0px" y="0px"
	 viewBox="0 0 64 64" style="enable-background:new 0 0 64 64;" xml:space="preserve">
<style type="text/css">
	.st0{fill:none;}
	.st1{fill:#FF1D25;}
	.st2{fill:#1D1D1B;}
</style>
<g id="Box">
	<rect class="st0" width="64" height="64"/>
</g>
<g id="Icon">
	<g>
		<path d="M35.5,48.7l0.4,9.2h3.5l0.6-9.6C38.6,49,37,49.2,35.5,48.7z"/>
		<path d="M20,47c-0.6,0.1-1.1,0.1-1.5,0.1L20.2,58h3.5l-0.4-9.7C22.1,48.2,20.9,47.7,20,47z"/>
		<path d="M60.1,26.5c-1.5-1.8-3.7-3.6-6-4.8c0.4-0.6,0.6-1.3,0.6-2.1c0-2.2-1.8-4-4-4c-0.9,0-1.8,0.3-2.4,0.9c-1.5-1.2-3.5-1.2-5,0
			c-1.6-2-4.3-2.3-6.4-1c-1.7-1.9-4.4-2.2-6.4-0.8c-2-1.8-5-1.6-6.8,0.4c-2.4-1.9-5.7-1.1-7.2,1.4c-2.7-1.1-5.8,0.3-6.5,3.2
			c-3.5,0.1-5.8,3.6-4.3,6.8c-3.2,1.8-3.3,6.2-0.3,8.2c-1.4,3,0.4,6.3,3.5,6.8c0.4,1.3,1.2,2.4,2.4,3L12.7,58h3.1l0.6-13.5
			c1.2,0.7,2.7,0.9,4.1,0.3c1.6,1.8,4.2,2.1,6.2,0.8c1.9,2.1,5.2,2.2,7.1,0c1.8,1.8,4.8,1.9,6.7,0c0.4,0.2,0.8,0.4,1.3,0.6L43.1,58
			h3.4l0.3-12.5c1.2-0.8,2.6-2.6,2.4-5.4c2.1-1.2,2.4-3.3,2.4-4.3c-1.7-0.2-3.6-0.5-5.7-1.2c-2.4-0.8-4.1-2.6-4.8-5.2
			c-2.6-0.2-3.1-2.3-2.5-3.6c2-4.2,6.5-4.9,7.3-5c0.4,0,0.5,0.1,0.5,0.2c-2.4,0.9-4.7,2.8-6.1,5.6c-0.1,0.3,0,0.6,0.3,0.6
			c3.9,0.4,6.9-2.5,6.9-2.5c0.2,0.1,0.2,0.3-0.1,0.8c-0.9,1.2-2.6,2.5-4.4,3.5c0.5,1.4,1.4,3,3.5,3.6c4.4,1.4,8.7,1.4,10.8,1
			C62.1,32.9,62.1,28.8,60.1,26.5z M52.4,27c-0.8,0-1.4-0.6-1.4-1.4s0.6-1.4,1.4-1.4s1.4,0.6,1.4,1.4S53.2,27,52.4,27z"/>
	</g>
</g>
</svg>
