<?xml version="1.0" encoding="utf-8"?>
<!-- Generator: Adobe Illustrator 19.1.0, SVG Export Plug-In . SVG Version: 6.00 Build 0)  -->
<svg version="1.2" baseProfile="tiny" xmlns="http://www.w3.org/2000/svg" xmlns:xlink="http://www.w3.org/1999/xlink" x="0px"
	 y="0px" width="64px" height="64px" viewBox="0 0 64 64" xml:space="preserve">
<g id="_x36_4px_Box">
	<rect fill="none" width="64" height="64"/>
</g>
<g id="Icon">
	<path d="M53.5539,28.903c-1.676,1.485-3.5446,2.9406-5.5491,4.3367C53.9307,35.1481,57,37.7686,57,39c0,2.056-8.4927,8-24.7,8
		c-7.3529,0-13.0999-1.2266-17.2043-2.7553c5.8793-0.6989,13.1086-2.856,20.4999-6.3663
		c15.7579-7.4839,26.2847-18.2833,23.5121-24.1212c-1.3317-2.804-5.494-3.9489-11.2018-3.5569
		c1.9412,0.4769,3.3828,1.4125,4.0547,2.8272c1.9974,4.2058-3.2643,11.403-12.2261,15.3047
		c-0.2846,0.1239-0.4455-0.0171-0.4614-0.141c7.4237-4.8941,11.6954-10.6321,10.0014-14.1988
		c-2.3223-4.8898-10.4739-2.2332-12.8561-1.5027c2.2852-0.0306,4.0053,0.5969,4.6236,1.8987
		c1.2509,2.6339-2.4733,7.0195-8.3183,9.7955c-1.2287,0.5835-2.4508,1.0493-3.6298,1.3918
		c-0.2491,0.0724-0.4193-0.1234-0.4135-0.2051c0.266-0.1173,0.533-0.2394,0.8008-0.3666c6.1617-2.9263,10.2778-7.1491,9.1937-9.4318
		c-1.4651-3.0851-9.4577-0.574-13.1196,1.1653C11.4458,23.439,0.9301,32.8598,1.0004,38.9353c-0.0009,0.0434,0-0.0435,0,0
		C1.0004,46.6673,15.3448,53,32.3,53S63,46.732,63,39C63,35.0311,59.3724,31.4507,53.5539,28.903z"/>
</g>
</svg>
