<svg height="64" viewBox="0 0 64 64" width="64" xmlns="http://www.w3.org/2000/svg"><path d="m0 0h64v64h-64z" fill="none"/><path d="m43.7342 18.1047c4.2272-5.9885 4.2679-9.6065 3.95-11.1789-.1074-.5309-.6317-.8815-1.1613-.7678-4.7318 1.0154-7.5125 3.9424-7.5125 3.9424 1.4017 1.4916 2.1479 3.1378 2.3367 3.9275.101.4227-.1224.419-.1224.419s-2.7069-3.4316-4.9167-3.716c-3.9254-.5053-6.3185 4.126-6.3185 4.126 3.2231 2.324 4.5909 5.1315 4.9652 6.3409.1415.4572-.1267.5479-.1267.5479-.6561-1.0661-4.8134-5.338-8.4217-6.0761-3.6084-.7381-7.0779 2.3037-7.0779 2.3037s3.3934.9772 6.3055 3.6088c3.9022 3.5265 4.7405 8.4405 3.064 10.7819-1.4552 2.0323-4.531 1.683-5.8431 3.2412s0 2.9523-1.1481 4.1825c-1.1481 1.2301-1.5582.8201-3.4444 1.7222s-2.1322 3.9365-2.1322 3.9365c-.2344.1209-.4225-.2613-.4659-.6605-.1575-1.4481.3505-3.7347 1.1219-4.5061.9841-.9841 2.6243-.9841 3.3624-1.9683.7381-.9841-.1572-3.0214.7449-4.4155 1.6144-2.4951 6.2819-.1566 5.3765-5.6366-.4744-2.8708-4.3094-6.918-9.2209-7.66-3.1509-.476-7.2885.5207-10.1058 4.2772-4.0785 5.438-2.7723 9.8586-.4414 13.6842 1.3986 2.2953 4.2443 4.2914 5.4006 7.1889 1.0209 2.5581 1.7132 4.712 2.4764 6.7823.6674 1.8107 3.3926 1.4442 3.8517-.4302.5925-2.4187 1.8716-4.8383 4.5423-5.8353 6.1507-2.2963 10.5792.6561 16.5658-3.5264 5.9867-4.1825 1.2302-13.2034 1.2302-13.2034 7.2165-4.1006 3.1654-11.432 3.1654-11.432z"/><circle cx="48.5" cy="35.5" r="2.5"/><circle cx="47.5" cy="46.5" r="2.5"/><circle cx="58.5" cy="42.5" r="2.5"/><circle cx="57.5" cy="53.5" r="2.5"/><circle cx="36.5" cy="50.5" r="2.5"/><circle cx="46.5" cy="57.5" r="2.5"/></svg>