<?xml version="1.0" encoding="utf-8"?>
<!-- Generator: Adobe Illustrator 18.1.0, SVG Export Plug-In . SVG Version: 6.00 Build 0)  -->
<svg version="1.2" baseProfile="tiny" xmlns="http://www.w3.org/2000/svg" xmlns:xlink="http://www.w3.org/1999/xlink" x="0px"
	 y="0px" width="64px" height="64px" viewBox="0 0 64 64" xml:space="preserve">
<g id="Box">
	<rect fill="none" width="64" height="64"/>
</g>
<g id="Icon">
	<g>
		<path d="M64,59l-6.2766-13.1034L42,45l6.1382-6.4086l6.8377,1.5693L47.3958,24.336c-0.4562,3.4595-0.9407,6.1486-1.1384,7.2762
			c-7.367,1.7804-9.8688,2.3847-14.2571,3.4453c-0.8625-0.2084-3.4328-0.8294-4.2988-1.0386l-4.459,4.3094L16.3333,34.5
			l1.3785-3.0703c-0.1752-1-0.6033-3.3825-1.0448-6.6401L0,59h40.8635l-2.941-8.491l15.9988,3.6535L51.5012,59H64z M7.7788,55
			l4.7873-9.7914l9.6908,5.6682l7.4966-1.8284L33.6667,55H7.7788z M24.7925,46.516l-5.0872-5.261l20.3106-2.1821L24.7925,46.516z"/>
		<path d="M18,17.319c0,4.0949,1.4351,12.3552,1.4833,12.6321L25,28l2.7567,3.9747L32.0002,33l12.5135-3.0239
			c0,0,1.4863-8.4772,1.4863-12.6571c0,0-1.6901-0.8872-4.1481-1.8214V8.679c0-0.2872-0.2322-0.5199-0.5186-0.5199H39V4.5199
			C39,4.2327,38.7678,4,38.4815,4h-12.963C25.2321,4,25,4.2327,25,4.5199v3.6392h-2.3333c-0.2864,0-0.5186,0.2327-0.5186,0.5199
			v5.1748c1.5059-0.8729,3.8983-1.6917,6.3939-1.8704c4.3138-0.309,7.3583,0.5937,9.2984,1.7847
			c0.2531,0.1553,0.3266,0.3391,0.3068,0.5151C36.1736,13.748,34.0371,13.3579,32,13.3579C25.507,13.3579,18,17.319,18,17.319z
			 M29,24h-7v-3.1193c0-0.5747,0.4478-1.0397,1-1.0397s1,0.465,1,1.0397v1.0398h3v-1.0398c0-0.5748,0.4478-1.0397,1-1.0397
			s1,0.465,1,1.0397V24z M35,20.8807c0-0.5747,0.4478-1.0397,1-1.0397s1,0.465,1,1.0397v1.0398h3v-1.0398
			c0-0.5748,0.4478-1.0397,1-1.0397c0.5522,0,1,0.465,1,1.0397V24h-7V20.8807z"/>
	</g>
</g>
</svg>
