<?xml version="1.0" encoding="utf-8"?>
<!-- Generator: Adobe Illustrator 19.1.0, SVG Export Plug-In . SVG Version: 6.00 Build 0)  -->
<svg version="1.2" baseProfile="tiny" xmlns="http://www.w3.org/2000/svg" xmlns:xlink="http://www.w3.org/1999/xlink" x="0px"
	 y="0px" width="64px" height="64px" viewBox="0 0 64 64" xml:space="preserve">
<g id="_x36_4px_Box">
	<rect fill="none" width="64" height="64"/>
</g>
<g id="Icon">
	<g>
		<path d="M42.9109,12.0917c6.1658,0.7708,9.2024,7.6889,10.2807,12.0524c0.9147,3.7016,0.2513,6.0472,1.3329,6.6482
			c2.0656,1.1475,1.1414-3.7236,2.6885-3.0492c1.9178,0.836,3.0588,0.2302,2.7164-1.9713
			c-1.1094-7.1327-5.9426-16.835-16.0962-17.5283c-10.434-0.7123-16.3826,10.8842-16.4194,11.0096v3.3853
			C27.5333,22.241,34.8137,11.0796,42.9109,12.0917z"/>
		<ellipse cx="55.45" cy="35.2177" rx="1.45" ry="2.9352"/>
		<ellipse cx="59.0157" cy="32.1917" rx="0.95" ry="1.9613"/>
		<path d="M3.0065,27.9527c0,3.3711,0.5889,9.3917,1.1281,12.93c1.8989-0.0496,4.1859-1.9845,5.9289-3.2927
			c1.8646,1.4004,4.1271,3.3003,5.9995,3.3003c1.9073,0,4.2482-1.9851,6.0005-3.3003c1.8646,1.4004,4.1271,3.3003,5.9995,3.3003
			c0.2638,0,0.5383-0.0503,0.815-0.1196c0.5367-3.5483,1.1202-9.471,1.1202-12.818c0,0-1.9982-0.8533-3.9982-1.7518v-6.5578
			c0-0.2762-0.2274-0.4902-0.5035-0.4902H23v-3.5098c0-0.2762-0.2274-0.4902-0.5035-0.4902h-12
			c-0.2762,0-0.4965,0.214-0.4965,0.4902v3.5098H7.4965C7.2203,19.153,7,19.3669,7,19.6431v3.8931
			c2-0.4659,3.7573-0.885,6.1637-1.0569c4.1597-0.2971,7.0947,0.9127,8.9655,2.0582c0.244,0.1494,0.3144,0.3262,0.2953,0.4954
			c-1.9031-0.5146-3.9635-0.8799-5.9279-0.8799C10.2355,24.1531,3.0065,27.9527,3.0065,27.9527z M14,34.153H7v-3.0098
			c0-0.5527,0.4478-1,1-1s1,0.4473,1,1v1.0098h3v-1.0098c0-0.5528,0.4478-1,1-1s1,0.4472,1,1V34.153z M19,31.1431
			c0-0.5527,0.4478-1,1-1s1,0.4473,1,1v1.0098h3v-1.0098c0-0.5528,0.4478-1,1-1c0.5522,0,1,0.4472,1,1v3.0098h-7V31.1431z"/>
		<path d="M10.063,45.1371c1.3369,0.7871,3.603,1.8633,6,1.8633s4.6631-1.0762,6-1.8633c1.3369,0.7871,3.603,1.8633,6,1.8633
			c1.3645,0,2.6799-0.3523,3.8123-0.7979c1.5383-1.1423,3.4962-2.4681,5.7191-3.6796c-1.5098-0.6363-2.8187-1.6479-3.5314-2.1826
			c-1.0002,0.7503-3.4848,2.75-6,2.75c-2.4616,0-4.9159-1.9367-6-2.75c-1.0002,0.7503-3.4848,2.75-6,2.75
			c-2.4616,0-4.9159-1.9367-6-2.75c-1.0002,0.7503-3.4848,2.75-6,2.75c-0.6771,0-1.3893-0.1794-2.063-0.4235v4.0801
			c0.6635,0.1531,1.3556,0.2534,2.063,0.2534C6.46,47.0004,8.7261,45.9243,10.063,45.1371z"/>
		<path d="M60.6978,42.8243c0.1326-0.436,0.2144-0.9215,0.2144-1.443c0-1.783-0.873-3.2283-1.95-3.2283s-1.95,1.4454-1.95,3.2283
			c0,0.2227,0.0136,0.4401,0.0396,0.6501c-2.7936-0.5375-6.2153-1.0258-8.7183-0.8256c-5.9235,0.4739-12.0208,4.4039-15.4972,7.0302
			c-1.2343,0.8522-2.9907,1.8539-4.7731,1.8539c-2.4616,0-4.9159-1.9367-6-2.75c-1.0002,0.7503-3.4848,2.75-6,2.75
			c-2.4616,0-4.9159-1.9367-6-2.75c-1.0002,0.7503-3.4848,2.75-6,2.75c-0.6771,0-1.3893-0.1794-2.063-0.4235v4.0801
			C2.6635,53.8997,3.3556,54,4.063,54c2.397,0,4.6631-1.0762,6-1.8633c1.3369,0.7871,3.603,1.8633,6,1.8633s4.6631-1.0762,6-1.8633
			c1.3369,0.7871,3.603,1.8633,6,1.8633s4.6631-1.0762,6-1.8633c1.7561,1.0339,3.9617,1.8633,6,1.8633
			c2.397,0,4.6631-1.0762,6-1.8633c1.3369,0.7871,3.603,1.8633,6,1.8633c2.0323,0,4.2421-0.8295,5.9995-1.8643
			c0.9426,0.5549,2.351,1.2464,3.9375,1.6103c0,0.0066,0-10.5931,0-10.5931S61.5037,43.0193,60.6978,42.8243z"/>
	</g>
</g>
</svg>
