<?xml version="1.0" encoding="utf-8"?>
<!-- Generator: Adobe Illustrator 19.1.0, SVG Export Plug-In . SVG Version: 6.00 Build 0)  -->
<svg version="1.2" baseProfile="tiny" xmlns="http://www.w3.org/2000/svg" xmlns:xlink="http://www.w3.org/1999/xlink" x="0px"
	 y="0px" width="64px" height="64px" viewBox="0 0 64 64" xml:space="preserve">
<g id="_x36_4px_Box">
	<rect fill="none" width="64" height="64"/>
</g>
<g id="Icon">
	<g>
		<path d="M19.0065,17.8c0,3.371,0.5889,9.3914,1.1281,12.9296c1.9146-0.0503,4.24-2.0248,5.927-3.2922
			c1.86,1.3947,4.1296,3.2998,6.001,3.2998c1.91,0,4.2523-1.9875,5.999-3.2998c1.86,1.3947,4.1296,3.2998,6.001,3.2998
			c0.264,0,0.5386-0.0503,0.8156-0.1196c0.5367-3.5483,1.1202-9.4708,1.1202-12.8177c0,0-1.9982-0.8533-3.9982-1.7518V9.4905
			c0-0.2762-0.2274-0.4902-0.5035-0.4902H39V5.4905c0-0.2762-0.2274-0.4902-0.5035-0.4902h-12C26.2203,5.0002,26,5.2143,26,5.4905
			v3.5098h-2.5035C23.2203,9.0002,23,9.2143,23,9.4905v3.8931c2-0.4659,3.7573-0.885,6.1637-1.0569
			c4.1597-0.2971,7.0947,0.9127,8.9655,2.0582c0.244,0.1494,0.3144,0.3262,0.2953,0.4954
			c-1.9031-0.5146-3.9635-0.8799-5.9279-0.8799C26.2355,14.0005,19.0065,17.8,19.0065,17.8z M30,24.0002h-7v-3.0098
			c0-0.5527,0.4478-1,1-1s1,0.4473,1,1v1.0098h3v-1.0098c0-0.5528,0.4478-1,1-1s1,0.4472,1,1V24.0002z M35,20.9905
			c0-0.5527,0.4478-1,1-1s1,0.4473,1,1v1.0098h3v-1.0098c0-0.5528,0.4478-1,1-1c0.5522,0,1,0.4472,1,1v3.0098h-7V20.9905z"/>
		<path d="M20.0574,36.8475c0.0017,0,0.0033,0.0002,0.005,0.0002c0.0001,0,0.0002,0,0.0002,0h0.0004
			c2.3969,0,4.6628-1.076,5.9998-1.8631c1.337,0.787,3.6028,1.8631,5.9997,1.8631c0.0001,0,0.0002,0,0.0002,0h0.0004
			c2.3969,0,4.6628-1.076,5.9998-1.8631c1.337,0.787,3.6028,1.8631,5.9997,1.8631c0.0001,0,0.0002,0,0.0002,0h0.0004
			c0.4218,0,0.8364-0.0427,1.2457-0.1019l1.7766-4.6223c-0.9438,0.4655-1.9644,0.8138-3.0214,0.8141
			c-0.0004,0-0.0007,0.0001-0.0007,0.0001c-2.4619-0.0001-4.9161-1.9367-6.0002-2.75l-0.0002,0.0002
			c0,0-0.0002-0.0001-0.0003-0.0002c-1.0001,0.7504-3.4846,2.7499-5.9998,2.75c-2.4615-0.0001-4.9156-1.9367-5.9997-2.75
			l-0.0002,0.0002c0,0-0.0002-0.0001-0.0003-0.0002c-1.0001,0.7504-3.4846,2.7499-5.9998,2.75c-0.0032,0-0.0068-0.0009-0.01-0.0009
			c-0.9915-0.0021-2.0763-0.3779-2.9769-0.8021c-0.0689-0.0338-0.1305-0.0731-0.1983-0.108l1.806,4.6989
			C19.1826,36.7971,19.4055,36.847,20.0574,36.8475z"/>
		<path d="M9.4476,40.6053c0.266-0.4333,0.1867-0.9975-0.1838-1.3382c-0.3724-0.3408-0.9307-0.3574-1.3215-0.0391l-5.4824,4.4547
			C2.2159,43.8806,2.0734,44.1814,2.0724,44.5c0.0009,0.3186,0.1435,0.6194,0.3874,0.8173l5.4824,4.4547
			c0.3909,0.3182,0.9492,0.3016,1.3215-0.0391c0.3705-0.3408,0.4498-0.9048,0.1838-1.3382l-1.9267-3.8946H7.5203l0.0005-0.0002
			L9.4476,40.6053z"/>
		<path d="M56.1302,39.228c-0.3909-0.3182-0.9492-0.3016-1.3215,0.0392c-0.3706,0.3407-0.4499,0.9048-0.1839,1.3381l1.9267,3.8947
			h0.0006l-0.0006,0.0001l-1.9267,3.8946c-0.266,0.4333-0.1867,0.9975,0.1839,1.3381c0.3724,0.3408,0.9307,0.3575,1.3215,0.0392
			l5.4824-4.4547c0.2439-0.1979,0.3865-0.4987,0.3874-0.8173c-0.0009-0.3185-0.1435-0.6194-0.3874-0.8173L56.1302,39.228z"/>
		<path d="M35.8947,52.6248l-3.8946,1.9267v0.0005l-0.0001-0.0005l-3.8946-1.9267c-0.4333-0.266-0.9975-0.1867-1.3381,0.1838
			c-0.3408,0.3724-0.3575,0.9307-0.0392,1.3215l4.4547,5.4824C31.3806,59.8564,31.6815,59.9991,32,60
			c0.3186-0.0009,0.6194-0.1436,0.8173-0.3875l4.4547-5.4824c0.3183-0.3909,0.3016-0.9491-0.0391-1.3215
			C36.8922,52.4381,36.328,52.3588,35.8947,52.6248z"/>
		<path d="M52.5645,24l-8.0713,21H32H19.5068l-8.0713-21H2v5h6l7.334,19.0791C15.7764,49.2285,16.9014,50,18.1328,50H32h13.8672
			c1.2314,0,2.3564-0.7715,2.7988-1.9209L56,29h6v-5H52.5645z"/>
	</g>
</g>
</svg>
