<svg height="64" viewBox="0 0 64 64" width="64" xmlns="http://www.w3.org/2000/svg"><path d="m0 0h64v64h-64z" fill="none"/><path d="m14.043 39.687c1.5747 1.1816 3.9974 3.2505 6 3.2505 1.9989 0 4.4094-2.0567 6-3.2505 1.5747 1.1816 3.9974 3.2505 6 3.2505.8522 0 1.778-.3828 2.6844-.9043l-1.8465-.9426 1.8849-3.6922c.3473-.6803 1.1794-.9494 1.8591-.6025.6796.347.9497 1.1788.6024 1.8591l-.6283 1.2308.7088.3618c.2583-.1982.507-.3893.7352-.5605.6772.5082 1.5147 1.1758 2.4048 1.7771l.4718-.9242c.3474-.6804 1.1794-.9494 1.8591-.6024.6796.3469.9498 1.1786.6024 1.859l-.4763.9329c.3876.1208.771.2081 1.1382.2081 1.9361 0 4.2515-1.9232 5.8409-3.1292-.5911-.7857-1.7774-2.3072-3.3976-4.0944l4.1204-8.071c.1735-.34.0386-.756-.3012-.9296l-3.0768-1.5707 2.199-4.3076c.1736-.34.0386-.756-.3012-.9296l-14.769-7.5397c-.3399-.1735-.756-.0387-.9295.3012l-2.1991 4.3076-3.0769-1.5707c-.3399-.1736-.756-.0387-.9295.3012l-3.1026 6.5842c2.8333.0543 5.2179.7766 8.1176 1.777 5.4477 1.8794 8.9505 4.5848 10.5333 7.1702.2065.3372.1826.5992.0529.7956-2.0189-1.8291-4.3187-3.5854-6.7364-4.8196-7.7059-3.934-19.0087-3.7936-19.0087-3.7936-2.5167 4.9298-4.3964 11.3682-5.5549 15.2411-.3786 1.2656-.4127 2.2659-.2744 3.0645 1.0315-.6571 2.0119-1.4508 2.7937-2.0375zm5.9538-9.8284c.3473-.6802 1.1794-.9493 1.8591-.6024.6796.3469.9497 1.1788.6024 1.8591l-.6283 1.2307 3.6923 1.8849.6283-1.2307c.3474-.6804 1.1794-.9494 1.8591-.6025.6796.347.9498 1.1787.6024 1.8591l-1.8849 3.6923-8.6152-4.3982z"/><path d="m56.043 44.9374c-2.4616 0-4.9159-1.9367-6-2.75-1.0002.7503-3.4848 2.75-6 2.75-2.4616 0-4.9159-1.9367-6-2.75-1.0002.7503-3.4848 2.75-6 2.75-2.4616 0-4.9159-1.9367-6-2.75-1.0002.7503-3.4848 2.75-6 2.75-2.4616 0-4.9159-1.9367-6-2.75-1.0002.7503-3.4848 2.75-6 2.75-1.0184 0-2.1246-.3893-3.043-.8273v4.2183c.9427.3047 1.9789.519 3.043.519 2.397 0 4.6631-1.0762 6-1.8633 1.3369.7871 3.603 1.8633 6 1.8633s4.6631-1.0762 6-1.8633c1.3369.7871 3.603 1.8633 6 1.8633s4.6631-1.0762 6-1.8633c1.3369.7871 3.603 1.8633 6 1.8633s4.6631-1.0762 6-1.8633c1.3369.7871 3.603 1.8633 6 1.8633 1.0322 0 2.0372-.2025 2.957-.4926v-4.2031c-.8999.4196-1.9733.7857-2.957.7857z"/></svg>