<svg height="64" viewBox="0 0 64 64" width="64" xmlns="http://www.w3.org/2000/svg"><path d="m0 0h64v64h-64z" fill="none"/><path d="m12 11h27v13h-27z"/><path d="m34 31.4335c0-.2395-.1907-.4335-.4259-.4335h-2.537v-3.5665c0-.2394-.1907-.4335-.426-.4335h-10.1852c-.2352 0-.4259.194-.4259.4335v3.5665h-2.5741c-.2352 0-.4259.194-.4259.4335v2.9854c1.4337-.404 3.6096-.7673 5.6595-.9163 3.5435-.2576 6.0443.7913 7.638 1.7844.2079.1296.2682.2828.252.4296-1.6212-.4462-3.3762-.7715-5.0495-.7715-5.3336 0-11.5 3.3028-11.5 3.3028 0 3.4306.7002 7.5106 1.203 10.0037 1.5964-.501 3.0496-1.4999 4.4366-2.3921 1.7366 1.1164 3.9661 2.6758 6.0693 2.6758.721 0 1.4261-.1777 2.1058-.4393-.0001-.0325-.0047-.0637-.0047-.096 0-5.5759 2.3926-10.5807 6.19-14.0869zm-10.5296 12.0812h-5.963v-2.601c0-.4792.3815-.8669.8519-.8669s.8519.3878.8519.8669v.867h2.5555v-.867c0-.4792.3815-.8669.8519-.8669s.8519.3877.8519.8669v2.601z"/><path d="m10 47.4031v-38.4673h31v20.8444c1.8892-.6219 3.9026-.9702 6-.9702v-19.8742h3v-6.9358h-49v6.9358h3v22.0642h-3v17.5118c2.3138.1722 4.4016-1.3015 6.5029-2.6525.8648.557 1.6357 1.073 2.4971 1.5438z"/><path d="m25.7087 50.6345c-2.1817 0-4.2835-1.1301-6.0688-2.2784-1.7912 1.1521-3.8968 2.2784-6.0688 2.2784-2.1817 0-4.2834-1.1301-6.0688-2.2784-1.9446 1.2508-4.2049 2.4306-6.5023 2.261v3.3653c2.2286.1084 4.5584-.6623 6.5023-1.6765 1.264.6595 3.6321 1.6924 6.0688 1.6924s4.8047-1.0329 6.0688-1.6924c1.2641.6595 3.6321 1.6924 6.0688 1.6924 1.017 0 2.0085-.1891 2.9241-.4468-.3204-1.0616-.5459-2.1631-.6786-3.2935-.7336.23-1.4844.3765-2.2455.3765z"/><path d="m47 31.9999c-8.8366 0-16 7.1627-16 16.0001 0 8.8372 7.1634 16 16 16 8.8372 0 16-7.1628 16-16 0-8.8373-7.1628-16.0001-16-16.0001zm0 28.1001c-6.6719 0-12.1-5.428-12.1-12.1s5.4281-12.1 12.1-12.1 12.1 5.428 12.1 12.1c0 6.6719-5.4281 12.1-12.1 12.1z"/><path d="m54.6055 47.8398h.0241l-7.1383-.7064-.5579-7.8053c-.0625-.5538-.4487-.9577-1.0001-.9577s-.9584.3587-.999.9577l-.6677 9.1878c0 .8604.6579 1.5677 1.4974 1.6533.0498.0283 8.8414-.6276 8.8414-.6276.5779-.056 1.0001-.2997 1.0001-.8513 0-.5507-.385-.8088-1-.8505z"/></svg>