<?xml version="1.0" encoding="utf-8"?>
<!-- Generator: Adobe Illustrator 19.1.0, SVG Export Plug-In . SVG Version: 6.00 Build 0)  -->
<svg version="1.2" baseProfile="tiny" xmlns="http://www.w3.org/2000/svg" xmlns:xlink="http://www.w3.org/1999/xlink" x="0px"
	 y="0px" width="64px" height="64px" viewBox="0 0 64 64" xml:space="preserve">
<g id="_x36_4px_Box">
	<rect fill="none" width="64" height="64"/>
</g>
<g id="Icon">
	<g>
		<path d="M13,26.0551c-0.002,4.6536,1.064,10.2086,1.8887,14.1669c1.2864,0.9658,3.3952,2.6653,5.1543,2.6653
			c1.9059,0,4.2426-1.981,6.0005-3.2998c1.8651,1.4002,4.1262,3.2998,5.9995,3.2998c1.9059,0,4.2426-1.981,6.0005-3.2998
			c1.8651,1.4002,4.1262,3.2998,5.9995,3.2998c1.746,0,3.8342-1.6746,5.0506-2.5872c0.8281-3.956,1.9044-9.5345,1.9064-14.229
			c0,0-2.7252-1.1801-6-2.4231V15c0-0.5523-0.4477-1-1-1h-3V9c0-0.5523-0.4477-1-1-1H24c-0.5523,0-1,0.4477-1,1v5h-3
			c-0.5523,0-1,0.4477-1,1v6.85c2.7895-1.0605,5.1085-1.6787,8.1461-2.1049c5.7069-0.8007,10.0565,0.0182,12.641,1.6022
			c0.3371,0.2067,0.4349,0.4509,0.4085,0.6848c-2.6295-0.7123-5.4762-1.0057-8.1907-1.0068C23.353,21.0215,13,26.0551,13,26.0551z
			 M28,34h-8v-4c0-0.5523,0.4477-1,1-1s1,0.4477,1,1v2h4v-2c0-0.5523,0.4477-1,1-1s1,0.4477,1,1V34z M36,30c0-0.5523,0.4477-1,1-1
			s1,0.4477,1,1v2h4v-2c0-0.5523,0.4477-1,1-1s1,0.4477,1,1v4h-8V30z"/>
		<path d="M56.043,45.09c-2.4615,0-4.9159-1.9367-6-2.75c-1.0001,0.7503-3.4848,2.75-6,2.75c-2.4615,0-4.9159-1.9367-6-2.75
			c-1.0001,0.7503-3.4848,2.75-6,2.75c-2.4615,0-4.9159-1.9367-6-2.75c-1.0001,0.7503-3.4848,2.75-6,2.75
			c-2.4615,0-4.9159-1.9367-6-2.75c-1.0001,0.7503-3.4848,2.75-6,2.75c-1.0184,0-2.1246-0.3893-3.043-0.8273v4.2183
			C5.9427,48.7856,6.9789,49,8.043,49c2.397,0,4.6631-1.0762,6-1.8633c1.3369,0.7871,3.603,1.8633,6,1.8633s4.6631-1.0762,6-1.8633
			c1.3369,0.7871,3.603,1.8633,6,1.8633s4.6631-1.0762,6-1.8633c1.3369,0.7871,3.603,1.8633,6,1.8633s4.6631-1.0762,6-1.8633
			c1.3369,0.7871,3.603,1.8633,6,1.8633c1.0322,0,2.0372-0.2025,2.957-0.4926v-4.2031C58.1001,44.7238,57.0267,45.09,56.043,45.09z"
			/>
	</g>
</g>
</svg>
