<svg height="64" viewBox="0 0 64 64" width="64" xmlns="http://www.w3.org/2000/svg"><path d="m0 0h64v64h-64z" fill="none"/><path d="m60.9681 10.4005-5.1199-1.8093.051-5.43c.0076-.8133-.9073-1.295-1.5735-.8285l-5.9203 4.1453c-.7936.5557-1.27 1.4605-1.2791 2.4293l-.0317 3.3721-23.4873 16.475c-.6969-.9952-.455-2.3671.5402-3.064l5.8918-4.1255c-1.4382-.9804-3.1668-1.5649-5.0393-1.5649-4.9705 0-9 4.0294-9 9s4.0295 9 9 9c4.9706 0 9-4.0294 9-9 0-.8343-.1224-1.6384-.3348-2.405l5.9216-4.1464c.9004 2.0013 1.4132 4.2145 1.4132 6.5514 0 8.8365-7.1635 16-16 16s-16-7.1635-16-16 7.1635-16 16-16c4.2623 0 8.1169 1.6848 10.9827 4.4033l5.8289-4.0814c-4.1976-4.5005-10.1717-7.3219-16.8116-7.3219-12.7025 0-23 10.2974-23 23 0 6.481 2.6846 12.3317 6.9976 16.5123l-4.7217 10.2304c-.6938 1.5044.1572 2.688 1.6616 3.3823 1.5065.6937 3.0922.6356 3.7866-.8677l4.1993-9.0985c3.286 1.8094 7.0603 2.8412 11.0766 2.8412s7.7906-1.0318 11.0765-2.8412l4.1993 9.0985c.6945 1.5033 2.2802 1.5613 3.7866.8677 1.5044-.6943 2.3555-1.8779 1.6616-3.3823l-4.7217-10.2303c4.3131-4.1806 6.9977-10.0314 6.9977-16.5124 0-3.8327-.9427-7.4433-2.6009-10.6213l3.9898-2.8232 3.1791 1.1234c.9135.3228 1.9266.1846 2.7203-.3712l3.0013-2.1016-4.2396-1.3915c-.3026-.1393-.2317-.3383-.2042-.3915l5.9583.7227 1.4044-.9834c.6663-.4665.5265-1.4909-.2404-1.7619z"/></svg>