<?xml version="1.0" encoding="utf-8"?>
<!-- Generator: Adobe Illustrator 19.1.0, SVG Export Plug-In . SVG Version: 6.00 Build 0)  -->
<svg version="1.2" baseProfile="tiny" xmlns="http://www.w3.org/2000/svg" xmlns:xlink="http://www.w3.org/1999/xlink" x="0px"
	 y="0px" width="64px" height="64px" viewBox="0 0 64 64" xml:space="preserve">
<g id="_x36_4px_Box">
	<rect fill="none" width="64" height="64"/>
</g>
<g id="Icon">
	<g>
		<path d="M4.0065,22.8c0,3.371,0.5889,9.3914,1.1281,12.9296c1.9146-0.0503,4.24-2.0247,5.927-3.2922
			c1.86,1.3947,4.1296,3.2998,6.001,3.2998c1.91,0,4.2524-1.9875,5.999-3.2998c1.86,1.3947,4.1296,3.2998,6.001,3.2998
			c0.2641,0,0.5387-0.0503,0.8156-0.1196c0.5367-3.5483,1.1202-9.4708,1.1202-12.8177c0,0-1.9982-0.8533-3.9982-1.7518v-6.5578
			c0-0.2762-0.2274-0.4902-0.5035-0.4902H24v-3.5098c0-0.2762-0.2274-0.4902-0.5035-0.4902h-12
			c-0.2762,0-0.4965,0.2141-0.4965,0.4902v3.5098H8.4965C8.2203,14.0002,8,14.2143,8,14.4905v3.8931
			c2-0.4659,3.7573-0.885,6.1637-1.0569c4.1597-0.2971,7.0947,0.9127,8.9655,2.0582c0.244,0.1494,0.3144,0.3262,0.2953,0.4954
			c-1.9031-0.5146-3.9635-0.8799-5.9279-0.8799C11.2355,19.0005,4.0065,22.8,4.0065,22.8z M15,29.0002H8v-3.0098
			c0-0.5527,0.4478-1,1-1s1,0.4473,1,1v1.0098h3v-1.0098c0-0.5528,0.4478-1,1-1s1,0.4472,1,1V29.0002z M20,25.9905
			c0-0.5527,0.4478-1,1-1s1,0.4473,1,1v1.0098h3v-1.0098c0-0.5528,0.4478-1,1-1c0.5522,0,1,0.4472,1,1v3.0098h-7V25.9905z"/>
		<rect x="44" y="29" width="4" height="31"/>
		<path d="M35.063,53.188c-1.0002,0.7504-3.4848,2.75-6,2.75c-2.4616,0-4.9159-1.9367-6-2.75c-1.0002,0.7504-3.4848,2.75-6,2.75
			c-2.4616,0-4.9159-1.9367-6-2.75c-1.0002,0.7504-3.4848,2.75-6,2.75c-1.0184,0-2.1246-0.3893-3.043-0.8273v4.2183
			c0.9427,0.3047,1.9789,0.519,3.043,0.519c2.397,0,4.6631-1.0762,6-1.8633c1.3369,0.7871,3.603,1.8633,6,1.8633
			s4.6631-1.0762,6-1.8633c1.3369,0.7871,3.603,1.8633,6,1.8633s4.6631-1.0762,6-1.8633c1.3369,0.7871,3.603,1.8633,6,1.8633
			c0.3159,0,0.6277-0.0242,0.937-0.0584v-3.947c-0.3101,0.0559-0.6225,0.0954-0.937,0.0954
			C38.6014,55.938,36.1471,54.0013,35.063,53.188z"/>
		<path d="M35.063,44.188c-1.0002,0.7504-3.4848,2.75-6,2.75c-2.4616,0-4.9159-1.9367-6-2.75c-1.0002,0.7504-3.4848,2.75-6,2.75
			c-2.4616,0-4.9159-1.9367-6-2.75c-1.0002,0.7504-3.4848,2.75-6,2.75c-1.0184,0-2.1246-0.3893-3.043-0.8273v4.2183
			c0.9427,0.3047,1.9789,0.519,3.043,0.519c2.397,0,4.6631-1.0762,6-1.8633c1.3369,0.7871,3.603,1.8633,6,1.8633
			s4.6631-1.0762,6-1.8633c1.3369,0.7871,3.603,1.8633,6,1.8633s4.6631-1.0762,6-1.8633c1.3369,0.7871,3.603,1.8633,6,1.8633
			c0.3159,0,0.6277-0.0242,0.937-0.0584v-3.947c-0.3101,0.0559-0.6225,0.0954-0.937,0.0954
			C38.6014,46.938,36.1471,45.0013,35.063,44.188z"/>
		<path d="M35.063,35.1877c-1.0002,0.7504-3.4848,2.75-6,2.75c-2.4616,0-4.9159-1.9367-6-2.75c-1.0002,0.7504-3.4848,2.75-6,2.75
			c-2.4616,0-4.9159-1.9367-6-2.75c-1.0002,0.7504-3.4848,2.75-6,2.75c-1.0184,0-2.1246-0.3893-3.043-0.8273v4.2183
			c0.9427,0.3047,1.9789,0.519,3.043,0.519c2.397,0,4.6631-1.0762,6-1.8633c1.3369,0.7871,3.603,1.8633,6,1.8633
			s4.6631-1.0762,6-1.8633c1.3369,0.7871,3.603,1.8633,6,1.8633s4.6631-1.0762,6-1.8633c1.3369,0.7871,3.603,1.8633,6,1.8633
			c0.3159,0,0.6277-0.0242,0.937-0.0584v-3.947c-0.3101,0.0559-0.6225,0.0954-0.937,0.0954
			C38.6014,37.9377,36.1471,36.001,35.063,35.1877z"/>
		<path d="M50.063,46.938c-0.0211,0-0.0419-0.0055-0.063-0.0058v3.9125c0.0212,0.0002,0.0418,0.0034,0.063,0.0034
			c2.397,0,4.6631-1.0762,6-1.8633c1.3251,0.7802,3.5636,1.8412,5.937,1.8599v-3.9125c-2.4403-0.0327-4.8622-1.9379-5.937-2.7442
			C55.0628,44.9384,52.5782,46.938,50.063,46.938z"/>
		<path d="M56.063,35.1877c-1.0002,0.7504-3.4848,2.75-6,2.75c-0.0211,0-0.0419-0.0055-0.063-0.0058v3.9125
			c0.0212,0.0002,0.0418,0.0034,0.063,0.0034c2.397,0,4.6631-1.0762,6-1.8633c1.3251,0.7802,3.5636,1.8412,5.937,1.8599v-3.9125
			C59.5597,37.8992,57.1378,35.994,56.063,35.1877z"/>
	</g>
</g>
</svg>
