<?xml version="1.0" encoding="utf-8"?>
<!-- Generator: Adobe Illustrator 21.0.2, SVG Export Plug-In . SVG Version: 6.00 Build 0)  -->
<!DOCTYPE svg PUBLIC "-//W3C//DTD SVG 1.1//EN" "http://www.w3.org/Graphics/SVG/1.1/DTD/svg11.dtd">
<svg version="1.1" xmlns="http://www.w3.org/2000/svg" xmlns:xlink="http://www.w3.org/1999/xlink" x="0px" y="0px" width="64px"
	 height="64px" viewBox="0 0 64 64" enable-background="new 0 0 64 64" xml:space="preserve">
<g id="Box">
	<rect fill="none" width="64" height="64"/>
</g>
<g id="Icon">
	<g>
		<g>
			<path d="M15,9h34v23.8h0.001c0.4001,0,2.5888,0.0103,4.999,0.0286V15l1.7047-7.9553c0.608-2.8372-1.9122-5.3574-4.7493-4.7494
				L43,4h-0.6621c-3.2643-0.6495-6.6953-1-10.2393-1c-3.5375,0-6.96,0.3538-10.2197,1H21l-7.9554-1.7047
				c-2.8371-0.608-5.3573,1.9122-4.7493,4.7494L10,15v34l-1.7047,7.9553c-0.608,2.8372,1.9122,5.3574,4.7493,4.7494L21,60h0.9003
				c3.2228,0.6385,6.6043,0.991,10.0997,0.9976V55H15V9z M37.01,21.1562c-0.0103,0.2588-0.0093,7.8445-0.0063,14.647
				c0.4325-0.2677,0.8929-0.5166,1.3714-0.7526l-1.0229-14.418C37.163,20.5623,37.0256,20.7656,37.01,21.1562z M25.7896,36.1565
				C24.4397,35.2219,23.5846,31.5,23.6,30c0.012-1.1702,0.285-1.8235,0.3207-2.9844c0.023-0.749-0.2938-2.1375,0.308-3.8501v0.0029
				c0,0,4.9991-3.4775,11.592,6.0134c0,0,0.1841-0.1292,0.0328-0.5906c-0.6011-1.8328-2.7778-6.6392-7.0629-7.613
				c-1.5303-0.3477-2.6324-0.1875-3.3754,0.0698c0.3058-0.3901,0.6683-0.7883,1.1013-1.1924
				c1.5576-1.4539,5.0881-2.4902,5.0881-2.4902c1.9659-3.1946,8.2571-1.2339,9.4495,5.9307l2.0159,10.1404
				c1.2423-0.275,2.5532-0.4703,3.9301-0.5637V11H17v42h6.4368C25.9125,42.8517,30.75,40.25,30.75,40.25l-0.7604-2.177
				c2.5778-1.6681,3.1613-3.5359,3.1613-3.5359c-1.9177,1.1265-4.1002,1.6504-4.6256,1.7659
				C27.6709,36.4341,26.3594,36.551,25.7896,36.1565z M49.0012,55C56.8511,55,63,51.6252,63,47.3214v-3.6549
				C63,39.3673,56.8511,36,49.0012,36C41.1492,36,35,39.3673,35,43.6665v3.6549c0,0.9493,0.3142,1.8492,0.865,2.6819
				C35.312,50.8289,35,51.7224,35,52.6665v3.6549C35,60.6252,41.1492,64,49.0012,64C56.8511,64,63,60.6252,63,56.3214v-3.6549
				c0-0.2048-0.0266-0.4055-0.0542-0.606c-0.7144,0.8958-4.5718,5.1377-13.6127,5.1377c-8.0173,0-10.7806-3.8577-11.0668-4.3807
				c-0.1169-0.2137-0.2019-0.4362-0.0765-0.5668C40.738,53.9397,44.6016,55,49.0012,55z M37.7012,44
				c0-2.8444,5.0601-5.15,11.302-5.15s11.302,2.3057,11.302,5.15c0,2.8442-5.0601,5.1499-11.302,5.1499S37.7012,46.8442,37.7012,44z
				 M46.8542,45.7261v0.6765h1.5551v-0.5564c0.3053,0.019,0.6703,0.019,1.016,0.019h0.384v0.5374h1.5168v-0.6165
				c2.7834-0.2999,4.1094-1.2644,4.1094-2.6702c0-0.5469-0.0571-0.7845-0.3076-1.3435H53.072
				c0.2123,0.5183,0.2886,0.7773,0.2886,1.2546c0,0.6167-0.5938,1.1155-2.0344,1.334v-1.7634h-1.5168v1.8928
				c-0.1907,0.0096-0.384,0.0194-0.6128,0.0194c-0.2697,0-0.52-0.0098-0.7872-0.0194v-1.8928h-1.5551v1.7539
				c-1.4023-0.209-2.1322-0.6575-2.1322-1.3748c0-0.4077,0.0763-0.6454,0.2479-1.1538h-2.168
				c-0.174,0.4269-0.2312,0.7268-0.2312,1.1226C42.5708,44.3611,44.0112,45.3662,46.8542,45.7261z"/>
		</g>
	</g>
</g>
</svg>
