<?xml version="1.0" encoding="utf-8"?>
<!-- Generator: Adobe Illustrator 18.1.0, SVG Export Plug-In . SVG Version: 6.00 Build 0)  -->
<svg version="1.2" baseProfile="tiny" xmlns="http://www.w3.org/2000/svg" xmlns:xlink="http://www.w3.org/1999/xlink" x="0px"
	 y="0px" width="64px" height="64px" viewBox="0 0 64 64" xml:space="preserve">
<g id="_x36_4px_Boxes">
	<rect fill="none" width="64" height="64"/>
</g>
<g id="Label">
</g>
<g id="Production">
	<g>
		<path d="M17.8303,43.6407l2.0916-12.1406l14.7564-3.2104l1.652,4.9318c1.3433-0.4835,2.8123-0.8506,4.3812-1.0906l-1.2278-3.6655
			c0.4266,0.211,0.9005,0.3405,1.4088,0.3405c1.7656,0,3.1968-1.4313,3.1968-3.1968c0-2.2799-2.2308-3.4852-3.6596-3.1763
			l-2.7652,0.6016l-4.014-11.9834c0.731-0.0189,1.3295-0.0117,1.6895,0.0016c2.2715,0.0841,3.281-2.5238,1.0937-4.0381
			c-1.7716-1.2264-6.7902-2.7098-11.1862,0.9362c-3.296,2.7388-4.5128,4.6257-10.8743,5.9575
			c-0.1498-0.4291-3.4368-9.9686-3.6799-10.3527C10.213,2.3972,9.0732,1.5817,7.7413,1.5817c-1.7656,0-3.1968,1.4313-3.1968,3.1968
			c0,1.6931,1.3204,3.0647,2.9854,3.1755l7.9547,22.793l-2.0244,11.7505c-2.4985-0.7731-4.9738-1.7859-6.7204-2.6454
			c-0.6335-0.3122-1.4205-0.1464-1.868,0.4347C4.3616,40.9494,4.485,41.9,5.1475,42.4103
			C12.4228,48.0121,19.5254,49.7735,28,49.9971v-5.2584C24.0649,44.6983,21.0592,44.3337,17.8303,43.6407z M24.8241,13.1556
			c1.0662-0.8172,2.6274-1.3238,4.2367-1.6368l4.1797,12.478l-14.2629,3.1033l-3.1385-8.9926
			C20.7963,17.1899,21.2183,15.9196,24.8241,13.1556z"/>
		<path d="M45.0012,54C52.8511,54,59,50.6253,59,46.3214c0-0.6324,0-3.0202,0-3.6548C59,38.3673,52.8511,35,45.0012,35
			C37.1492,35,31,38.3673,31,42.6666c0,0.6346,0,3.0225,0,3.6548c0,0.9493,0.3142,1.8492,0.865,2.6819
			C31.312,49.8288,31,50.7224,31,51.6666v3.6548C31,59.6253,37.1492,63,45.0012,63C52.8511,63,59,59.6253,59,55.3214v-3.6548
			c0-0.2049-0.0266-0.4056-0.0542-0.606c-0.7144,0.8958-4.5718,5.1376-13.6127,5.1376c-8.0173,0-10.7806-3.8577-11.0668-4.3807
			c-0.1169-0.2137-0.2019-0.4362-0.0765-0.5667C36.738,52.9397,40.6016,54,45.0012,54z M33.7012,43
			c0-2.8444,5.0601-5.15,11.302-5.15s11.302,2.3057,11.302,5.15c0,2.8443-5.0601,5.15-11.302,5.15S33.7012,45.8443,33.7012,43z"/>
		<path d="M42.8542,44.7261v0.6766h1.5551v-0.5565c0.3053,0.0191,0.6703,0.0191,1.016,0.0191h0.384v0.5374h1.5168v-0.6166
			c2.7834-0.2999,4.1094-1.2643,4.1094-2.6701c0-0.5469-0.0571-0.7845-0.3076-1.3435H49.072
			c0.2123,0.5182,0.2886,0.7773,0.2886,1.2546c0,0.6166-0.5938,1.1155-2.0344,1.334v-1.7634h-1.5168v1.8928
			c-0.1907,0.0096-0.384,0.0193-0.6128,0.0193c-0.2697,0-0.52-0.0098-0.7872-0.0193v-1.8928h-1.5551v1.7538
			c-1.4023-0.2089-2.1322-0.6575-2.1322-1.3748c0-0.4078,0.0763-0.6454,0.2479-1.1539h-2.168
			c-0.174,0.4269-0.2312,0.7269-0.2312,1.1226C38.5708,43.3611,40.0112,44.3662,42.8542,44.7261z"/>
	</g>
</g>
</svg>
