<?xml version="1.0" encoding="utf-8"?>
<!-- Generator: Adobe Illustrator 22.1.0, SVG Export Plug-In . SVG Version: 6.00 Build 0)  -->
<!DOCTYPE svg PUBLIC "-//W3C//DTD SVG 1.1//EN" "http://www.w3.org/Graphics/SVG/1.1/DTD/svg11.dtd">
<svg version="1.1" xmlns="http://www.w3.org/2000/svg" xmlns:xlink="http://www.w3.org/1999/xlink" x="0px" y="0px" width="64px"
	 height="64px" viewBox="0 0 64 64" style="enable-background:new 0 0 64 64;" xml:space="preserve">
<style type="text/css">
	.st0{fill:none;}
	.st1{fill:none;stroke:#000000;stroke-width:3;stroke-miterlimit:10;}
	.st2{fill:none;stroke:#000000;stroke-width:2;stroke-miterlimit:10;}
	.st3{stroke:#000000;stroke-width:3;stroke-miterlimit:10;}
	.st4{fill:#FFFFFF;}
	.st5{fill:#FFFFFF;stroke:#FFFFFF;stroke-width:4;stroke-miterlimit:10;}
	.st6{fill:none;stroke:#FFFFFF;stroke-width:2;stroke-miterlimit:10;}
	.st7{fill:#FFFFFF;stroke:#000000;stroke-width:3;stroke-linejoin:round;stroke-miterlimit:10;}
	.st8{stroke:#000000;stroke-width:3;stroke-linejoin:round;stroke-miterlimit:10;}
	.st9{fill:none;stroke:#FFFFFF;stroke-width:3;stroke-linecap:square;stroke-miterlimit:10;}
	.st10{fill:none;stroke:#000000;stroke-width:3;stroke-linecap:round;stroke-linejoin:round;stroke-miterlimit:10;}
	.st11{fill:#FFFFFF;stroke:#000000;stroke-width:3;stroke-miterlimit:10;}
	.st12{fill:#FFFFFF;stroke:#FFFFFF;stroke-width:6.4;stroke-miterlimit:10;}
	.st13{stroke:#FFFFFF;stroke-width:6.4;stroke-miterlimit:10;}
	.st14{fill:#FFFFFF;stroke:#FFFFFF;stroke-width:4.4;stroke-miterlimit:10;}
	.st15{stroke:#FFFFFF;stroke-width:4.4;stroke-miterlimit:10;}
</style>
<g id="Box">
	<rect x="0" class="st0" width="64" height="64"/>
</g>
<g id="Icon_4_">
	<path d="M12.1,15.8h5.6L30.4,5.2c0.9-0.8,2.2-0.7,3.2,0l12.7,10.6h5.6c0.3,0,0.5-0.4,0.3-0.6L43.6,2.7C43.3,2.3,42.8,2,42.3,2H21.7
		c-0.5,0-1,0.3-1.3,0.7l-8.6,12.5C11.6,15.5,11.7,15.8,12.1,15.8z M32,7.3L18.9,18.2h-4.7V41h35.6V18.2h-4.7L32,7.3z M26,36h-6v-4h6
		V36z M26,30h-6v-7h6V30z M35,36h-6v-4h6V36z M35,30h-6v-7h6V30z M32,19c-1.9,0-3.5-1.6-3.5-3.5c0-1.9,1.6-3.5,3.5-3.5
		s3.5,1.6,3.5,3.5C35.5,17.5,33.9,19,32,19z M44,36h-6v-4h6V36z M44,30h-6v-7h6V30z M52.2,44.8c-2.8,1-6.4,2.4-9.2,3.6
		c0.1,0.4,0.1,0.9,0,1.4c-0.4,2.8-2.8,4.6-6.2,4.7c-7.7,0.4-12.5-1.6-13.5-2c-0.3-0.1-0.3-0.3-0.3-0.4c0,0,0,0,0,0
		c5.6,1,9.1,1.1,13.5,0.4c3.3-0.5,4.5-2.1,4.5-3.4c0-1.3-0.9-2-3-2.1C31,46.8,27,46,21.1,45.2c-4.1-0.6-8.1,0.5-11.4,2.6
		c-3.2,2-4,3-4,3l5.8,11.1l7.5-3c0.9-0.3,1.8-0.5,2.7-0.3l10.3,2.3c2.3,0.4,4.6-0.1,6.6-1.2L59,46.8C59,46.8,58,42.8,52.2,44.8z"/>
</g>
</svg>
