<?xml version="1.0" encoding="utf-8"?>
<!-- Generator: Adobe Illustrator 17.1.0, SVG Export Plug-In . SVG Version: 6.00 Build 0)  -->
<svg version="1.2" baseProfile="tiny" xmlns="http://www.w3.org/2000/svg" xmlns:xlink="http://www.w3.org/1999/xlink" x="0px"
	 y="0px" width="64px" height="64px" viewBox="0 0 64 64" xml:space="preserve">
<g id="_x36_4px_Boxes">
	<rect fill="none" width="64" height="64"/>
</g>
<g id="Production">
	<g>
		<path d="M37.8155,32l-0.0076-0.0019c0.558-1.1319,0.9382-2.2794,1.1218-3.4414c1.3281-1.2195,2.0679-3.1657,2.0679-5.5557
			c0-0.7447,0.0012-2.7025-1.2268-4.0366c0.3037-3.3378,0.515-8.5034-0.7869-10.587c-1.6026-2.5649-3.5498-3.8159-7.2632-2.9775
			C29.2852,4.2422,27.627,3.5176,23.36,4.5601c-2.9649,0.7241-6.21,1.9067-7.92,3.8798c-1.652,1.9066-1.5394,7.2237-1.2741,10.6054
			c-1.1589,1.332-1.1634,3.2256-1.1634,3.9557c0,2.386,0.7374,4.3299,2.0614,5.5497c0.3819,2.5118,1.613,4.9141,3.7105,7.2619
			c-0.106,0.807-0.2283,1.7498-0.353,2.7313c-2.5129,0.7345-9.6714,2.9969-12.0341,5.5665C3.5137,47.2344,2,59,2,59h25h5V44.6385
			c-1.2848,1.9502-3.1916,3.6765-4.619,4.7013c-2.3003-1.75-6.5919-5.5302-6.1588-9.0224c0.237-1.9129,0.0408-0.5492,0.8235-5.4371
			c-2.2767-2.2-4.1043-4.8665-4.1043-8.061c-1.6177-0.5039-2.0414-2.5454-2.0414-3.8183c0-1.2725,0.3217-1.961,0.7738-2.1743
			c0.3921-0.1844,0.7725-0.0475,1.013,0.0886c0.1414,0.6527,0.2483,1.1383,0.2898,1.3098C18.1826,23.0762,19,22.998,19,22.998
			v-6.7451c2.0731-0.1505,6.1937-0.7531,10.7499-3.1062L35,16.6729v6.3251c0,0,0.8174,0.0782,1.0234-0.7729
			c0.0415-0.1715,0.1484-0.6571,0.2898-1.3098c0.2405-0.1362,0.6209-0.2731,1.013-0.0886C37.7784,21.04,38.1,21.7285,38.1,23.001
			c0,1.2729-0.4237,3.3144-2.0414,3.8183c0,1.1278-0.2217,2.1558-1.0459,2.9512c-0.8608,0.8294-2.302,1.3032-4.1027,1.348
			c-0.1315-0.3626-0.525-0.6185-0.9868-0.6185h-3.762C25.666,30.5,25,31,25,32s0.666,1.5,1.1613,1.5h3.762
			c0.4706,0,0.8727-0.2643,0.9961-0.6382c1.1568-0.0266,2.1954-0.2012,3.0961-0.5162c-0.9276,1.2215-2.0863,2.3278-3.2971,3.3582
			c-1.0598,0.902-3.8256,1.6964-6.6459,0.4706c1.6111,2.4422,4.4405,3.2261,6.9191,2.6067v0.0018
			c0.1779-0.038,0.6325-0.1748,1.0085-0.3325v-0.0182C34.3688,37.3521,36.6204,34.3022,37.8155,32z"/>
		<path d="M61.8371,37H36.163C35.5207,37,35,37.4463,35,37.9968v18.0063C35,56.5537,35.5207,57,36.163,57h8.3426l-0.5988,2.4221
			C43.7425,59.7746,43.3889,60,43,60h-1.011C41.4428,60,41,60.4428,41,60.989V62h16v-1.011C57,60.4428,56.5572,60,56.011,60H55
			c-0.3889,0-0.7425-0.2254-0.9067-0.5779L53.4945,57h8.3426C62.4793,57,63,56.5537,63,56.0032V37.9968
			C63,37.4463,62.4793,37,61.8371,37z M60,53H38V40h22V53z"/>
	</g>
	<path d="M61.8371,37H36.163C35.5207,37,35,37.4463,35,37.9968v18.0063C35,56.5537,35.5207,57,36.163,57h8.3426l-0.5988,2.4221
		C43.7425,59.7746,43.3889,60,43,60h-1.011C41.4428,60,41,60.4428,41,60.989V62h16v-1.011C57,60.4428,56.5572,60,56.011,60H55
		c-0.3889,0-0.7425-0.2254-0.9067-0.5779L53.4945,57h8.3426C62.4793,57,63,56.5537,63,56.0032V37.9968
		C63,37.4463,62.4793,37,61.8371,37z M60,53H38V40h22V53z"/>
</g>
</svg>
