<?xml version="1.0" encoding="utf-8"?>
<!-- Generator: Adobe Illustrator 19.1.0, SVG Export Plug-In . SVG Version: 6.00 Build 0)  -->
<svg version="1.2" baseProfile="tiny" xmlns="http://www.w3.org/2000/svg" xmlns:xlink="http://www.w3.org/1999/xlink" x="0px"
	 y="0px" width="64px" height="64px" viewBox="0 0 64 64" xml:space="preserve">
<g id="_x36_4px_Box">
	<rect fill="none" width="64" height="64"/>
</g>
<g id="Icon">
	<g>
		<path d="M45,13H19c-1.1045,0-2,0.8954-2,2v5c0,1.1046,0.8955,2,2,2h26c1.1045,0,2-0.8954,2-2v-5C47,13.8954,46.1045,13,45,13z
			 M21.5,18c-0.8284,0-1.5-0.6716-1.5-1.5s0.6716-1.5,1.5-1.5s1.5,0.6716,1.5,1.5S22.3284,18,21.5,18z M40,20h-2v-2h2V20z M44,20h-2
			v-2h2V20z"/>
		<polygon points="11,7 11,55 15,55 15,11 49,11 49,55 53,55 53,7 		"/>
		<path d="M45,24H19c-1.1045,0-2,0.8954-2,2v5c0,1.1046,0.8955,2,2,2h26c1.1045,0,2-0.8954,2-2v-5C47,24.8954,46.1045,24,45,24z
			 M21.5,29c-0.8284,0-1.5-0.6716-1.5-1.5s0.6716-1.5,1.5-1.5s1.5,0.6716,1.5,1.5S22.3284,29,21.5,29z M40,31h-2v-2h2V31z M44,31h-2
			v-2h2V31z"/>
		<path d="M45,35H19c-1.1045,0-2,0.8954-2,2v5c0,1.1046,0.8955,2,2,2h26c1.1045,0,2-0.8954,2-2v-5C47,35.8954,46.1045,35,45,35z
			 M21.5,40c-0.8284,0-1.5-0.6716-1.5-1.5s0.6716-1.5,1.5-1.5s1.5,0.6716,1.5,1.5S22.3284,40,21.5,40z M40,42h-2v-2h2V42z M44,42h-2
			v-2h2V42z"/>
		<path d="M45,46H19c-1.1045,0-2,0.8954-2,2v5c0,1.1046,0.8955,2,2,2h26c1.1045,0,2-0.8954,2-2v-5C47,46.8954,46.1045,46,45,46z
			 M21.5,51c-0.8284,0-1.5-0.6716-1.5-1.5s0.6716-1.5,1.5-1.5s1.5,0.6716,1.5,1.5S22.3284,51,21.5,51z M40,53h-2v-2h2V53z M44,53h-2
			v-2h2V53z"/>
	</g>
</g>
</svg>
