<?xml version="1.0" encoding="utf-8"?>
<!-- Generator: Adobe Illustrator 19.1.0, SVG Export Plug-In . SVG Version: 6.00 Build 0)  -->
<svg version="1.2" baseProfile="tiny" xmlns="http://www.w3.org/2000/svg" xmlns:xlink="http://www.w3.org/1999/xlink" x="0px"
	 y="0px" width="64px" height="64px" viewBox="0 0 64 64" xml:space="preserve">
<g id="Box">
	<rect fill="none" width="64" height="64"/>
</g>
<g id="Icon">
	<g>
		<path d="M62.7751,47.2535l-8.5604-11.6379c-0.2841-0.3882-0.7368-0.6172-1.2179-0.6158l-5.3231,0.0152
			c-0.2164,0.0007-0.4203,0.071-0.587,0.1924c-0.1654,0.123-0.2932,0.2966-0.3584,0.5031l-1.5997,5.077
			c-0.1447,0.4589-0.0609,0.9593,0.2252,1.3461l8.5603,11.6379c0.3292,0.4451,0.9865,0.5175,1.4315,0.1884l7.1831-5.2836
			C62.9755,48.3493,63.1021,47.7004,62.7751,47.2535z M50.8954,40.2156c-0.6779,0.4894-1.6211,0.3492-2.1156-0.3193
			c-0.496-0.6707-0.3518-1.618,0.3203-2.1215c0.6807-0.4915,1.6279-0.3471,2.1205,0.3261
			C51.7114,38.7721,51.5645,39.7144,50.8954,40.2156z"/>
		<path d="M57,24l-9.0483-13.5726c-0.6169-0.9251-1.5244-1.6183-2.5791-1.9699L38,6c-2.1199,3.5503-5.9163,7.3925-10.4548,6.6788
			c-0.342-0.0538-0.3883-0.2718-0.2952-0.3819c2.2904-0.4682,4.8866-2.2296,6.8289-4.5322C32.623,8.2385,30.8696,8.6228,29,8.6228
			C24.1111,8.6228,20,6,20,6l-7.3726,2.4575c-1.0547,0.3516-1.9623,1.0448-2.5791,1.9699L1,24l8,8.2785l5-4.4415V57h15h15V27.837
			l5,4.4415L57,24z"/>
	</g>
</g>
</svg>
