<?xml version="1.0" encoding="utf-8"?>
<!-- Generator: Adobe Illustrator 19.2.0, SVG Export Plug-In . SVG Version: 6.00 Build 0)  -->
<svg version="1.0" xmlns="http://www.w3.org/2000/svg" xmlns:xlink="http://www.w3.org/1999/xlink" x="0px" y="0px"
	 viewBox="0 0 64 64" enable-background="new 0 0 64 64" xml:space="preserve">
<g id="achtergrond">
</g>
<g id="paneel_1">
	<path d="M55.064,43.0082l-0.0018-0.0027c-0.1848-0.1995-0.4606-0.2896-0.7281-0.2354l-3.1692,0.6426l-0.0449-0.045l-0.3325-0.3326
		l0.8413-2.8934c0.0754-0.262,0.0096-0.5461-0.176-0.7457l-0.002-0.0027c-0.1847-0.1995-0.46-0.2896-0.728-0.2346l-3.1688,0.6429
		l-0.5146-0.5146l0.8412-2.8937c0.0754-0.262,0.0101-0.5452-0.1755-0.7447l-0.0023-0.0027
		c-0.1848-0.1995-0.4597-0.2896-0.7277-0.2354l-3.1697,0.6422l-0.3811-0.3812l-1.9661-1.9659l0.8408-2.8929
		c0.0759-0.262,0.0103-0.5452-0.1755-0.7446l-0.0023-0.0027c-0.1847-0.1995-0.4601-0.2896-0.7277-0.2354l-3.1687,0.6425
		l-2.3296-2.3296c-3.1489,3.5533-5.5237,4.0876-6.1304,4.2834c-0.2107,0.0675-0.3486,0.0387-0.4229-0.0336
		c0.5812-0.4655,1.1593-0.9662,1.7302-1.537c6.0518-6.0518,6.1748-12.7599,0.4851-18.4496s-12.8625-5.1005-18.449,0.4858
		C7.522,18.4781,6.9327,25.651,12.6224,31.3407c4.1322,4.1322,8.8009,5.1822,13.3658,3.1381l19.6676,19.6668
		c2.3041,2.303,4.7565,1.2246,7.0521-1.0711c2.0612-2.0602,3.14-4.249,1.6663-6.3447l0.8652-2.9768
		C55.3154,43.4909,55.2498,43.2078,55.064,43.0082z M19.5387,21.9782c-2.0347,0-3.6849-1.6504-3.6849-3.6849
		s1.6503-3.683,3.6849-3.683c2.0345,0,3.6835,1.6484,3.6835,3.683S21.5732,21.9782,19.5387,21.9782z M49.7371,51.9713
		c-0.1837,0.1838-0.4247,0.2758-0.6655,0.2758c-0.241,0-0.4819-0.0919-0.6658-0.2758l-15.377-15.3775
		c-0.3678-0.3676-0.3677-0.9637,0-1.3314s0.9637-0.3677,1.3313,0L49.7371,50.64C50.1049,51.0076,50.1047,51.6037,49.7371,51.9713z"
		/>
</g>
</svg>
