<?xml version="1.0" encoding="utf-8"?>
<!-- Generator: Adobe Illustrator 19.1.0, SVG Export Plug-In . SVG Version: 6.00 Build 0)  -->
<svg version="1.2" baseProfile="tiny" xmlns="http://www.w3.org/2000/svg" xmlns:xlink="http://www.w3.org/1999/xlink" x="0px"
	 y="0px" width="64px" height="64px" viewBox="0 0 64 64" xml:space="preserve">
<g id="Box">
	<rect fill="none" width="64" height="64"/>
</g>
<g id="Icon">
	<g>
		<path d="M8,40V8h22v18.6046c1.0677,1.371,2.2314,2.8666,3.3555,4.3202c0.1913-0.1871,0.4109-0.3627,0.6445-0.5317
			c0-8.1873,0-16.3746,0-24.562c0-1.8656-1.4412-3.7034-3.4178-3.9973c-7.6814-1.1118-15.4077-1.1118-23.0891,0
			C5.5167,2.1277,4,3.9656,4,5.8312C4,19.277,4,32.7229,4,46.1688c0.0001,1.8657,1.5921,3.7034,3.5685,3.9974
			c6.5721,0.9513,13.1221,1.0818,19.6878,0.4053c0.0536-1.8004,0.644-3.4266,1.1021-4.6793l0.3857-1.0625
			c-1.0264-1.6333-2.0426-3.2592-3.0203-4.8296H8z M19,48.15c-1.4636,0-2.65-1.1865-2.65-2.65s1.1865-2.65,2.65-2.65
			s2.65,1.1865,2.65,2.65S20.4636,48.15,19,48.15z"/>
		<path d="M58.2451,38.1224c-1.3599-2.1854-4.2906-6.8655-6.8231-8.9147c-2.3702-1.9179-4.8792-1.0824-5.649,0.5135
			c-0.8384-0.5049-2.5231-1.1188-4.2269-0.2834c-1.7394,0.8529-1.7836,2.786-1.7836,2.786
			c-0.0798-0.0114-2.0401-1.5165-4.2062-0.2325c-1.5283,0.9059-1.7865,2.6115-1.8272,3.025
			c-3.6194-4.7289-8.9362-11.4871-9.5586-12.3345c-0.8812-1.1998-2.4965-1.5816-3.7605-0.7953l-0.0057,0.0036
			c-1.2648,0.7867-1.7004,2.4418-0.9473,3.7268c0.531,0.906,9.0419,14.8444,15.7293,25.2601
			c-0.0351,0.0468-0.1796,0.1933-0.4301-0.0132c-0.7714-0.636-3.7139-3.976-4.2189-4.5247
			c-0.7146,1.9705-1.8227,4.6454-0.3802,7.2598c3.0751,5.5731,10.3666,5.1652,16.3223,9.447l16.3989-10.529
			C58.6954,46.0016,63.7683,46.9985,58.2451,38.1224z"/>
		<path d="M19.793,17.4814c0.9229,0.2749,2.0352,0.3813,3.0127,0.4595c1.3467,0.1172,2.8018,0.1519,3.3682-0.4883
			c0.2139-0.2417,0.2812-0.5518,0.2021-0.9229c-0.1182-0.5513-0.4873-0.8506-1.0176-0.811
			c-2.7228,0.1854-4.7318-0.5651-6.9912-1.7109c-0.4835,1.4268-0.8248,2.7252-2.0293,3.7095
			c-1.2539,0.7964-1.2852,0.8018-2.959,1.0737c-0.5035,0.082-0.6035,0.0981-1.0898,0.1807
			c0.5415,2.4661,0.4774,5.0143,0.0195,7.1538c-0.1025,0.478,0.1143,0.9072,0.5791,1.1484c0.2759,0.143,0.575,0.1744,0.8564,0.0303
			c0.6006-0.3081,1.0225-1.3589,1.29-3.209c0.1602-1.0337,0.2998-2.1113,0.248-3.0342c1.1641-0.3149,1.8613-0.7163,2.6582-1.2974
			C18.6895,19.1577,19.2812,18.4292,19.793,17.4814z"/>
	</g>
</g>
</svg>
