<?xml version="1.0" encoding="utf-8"?>
<!-- Generator: Adobe Illustrator 19.1.0, SVG Export Plug-In . SVG Version: 6.00 Build 0)  -->
<svg version="1.2" baseProfile="tiny" xmlns="http://www.w3.org/2000/svg" xmlns:xlink="http://www.w3.org/1999/xlink" x="0px"
	 y="0px" width="64px" height="64px" viewBox="0 0 64 64" xml:space="preserve">
<g id="Box">
	<rect fill="none" width="64" height="64"/>
</g>
<g id="Icon">
	<g>
		<polygon points="35.6316,15 31.7404,3 28.3433,3 29.0832,15 		"/>
		<polygon points="26.6346,3 23.4366,3 19.5457,15 25.9437,15 		"/>
		<polygon points="7.8729,51 23.8711,51 25.3104,26 15.979,26 		"/>
		<path d="M11,30v-5.8905l-3.8232-0.7609C6.873,23.2512,6.9175,23.0538,6.9374,23H11h33h4.0626
			c0.02,0.0538,0.0644,0.2512-0.2393,0.3486L44,24.1095V30h6v-7h3v-6H2v6h3v7H11z"/>
		<polygon points="42.1966,35.2459 39.1985,26 29.7614,26 31.3027,51 33.0541,51 		"/>
		<path d="M61.77,58.43L48.4168,35.8134C48.1194,35.3092,47.5775,35,46.9919,35c-0.0021,0-0.0043,0-0.0065,0
			c-0.5877,0.0022-1.1296,0.3162-1.4249,0.8242L32.4359,58.4407c-0.2968,0.5118-0.2979,1.1437-0.0027,1.6565
			c0.2952,0.5128,0.842,0.829,1.434,0.829h26.4779c0.5942,0,1.1426-0.3184,1.4373-0.8344
			C62.077,59.5757,62.0721,58.9417,61.77,58.43z M36.7411,57.6165l10.2632-17.6859l10.442,17.6859H36.7411z"/>
		<path d="M46.9777,53.0855c-0.837,0-1.2719,0.6024-1.2719,1.3723c0,0.8703,0.4687,1.3385,1.2888,1.3385
			c0.8365,0,1.2719-0.5855,1.2719-1.3385C48.2665,53.5706,47.7978,53.0855,46.9777,53.0855z"/>
		<polygon points="46,51.9263 48,51.8735 48,49.9062 48.235,44.9581 46,45.152 		"/>
	</g>
</g>
</svg>
