<?xml version="1.0" encoding="utf-8"?>
<!-- Generator: Adobe Illustrator 17.1.0, SVG Export Plug-In . SVG Version: 6.00 Build 0)  -->
<svg version="1.2" baseProfile="tiny" xmlns="http://www.w3.org/2000/svg" xmlns:xlink="http://www.w3.org/1999/xlink" x="0px"
	 y="0px" width="64px" height="64px" viewBox="0 0 64 64" xml:space="preserve">
<g id="_x36_4px_Boxes">
	<rect fill="none" width="64" height="64"/>
</g>
<g id="Production">
	<g>
		<polygon points="34.1935,31 35.9397,60 55,60 45.5613,31 		"/>
		<polygon points="41.0047,17 36.4482,3 32.5075,3 33.3505,17 		"/>
		<polygon points="30.4924,3 26.5508,3 21.9944,17 29.6494,17 		"/>
		<polygon points="8,60 27.0602,60 28.8064,31 17.4381,31 		"/>
		<path d="M1,20v7h4v8h7v-6.6936l-4.7349-0.9423C6.9479,27.2622,6.9943,27.0562,7.0152,27h48.9696
			c0.0209,0.0562,0.0673,0.2623-0.2499,0.3641L51,28.3064V35h7v-8h4v-7H1z"/>
	</g>
</g>
</svg>
