<?xml version="1.0" encoding="utf-8"?>
<!-- Generator: Adobe Illustrator 24.1.3, SVG Export Plug-In . SVG Version: 6.00 Build 0)  -->
<svg version="1.1" xmlns="http://www.w3.org/2000/svg" xmlns:xlink="http://www.w3.org/1999/xlink" x="0px" y="0px"
	 viewBox="0 0 64 64" style="enable-background:new 0 0 64 64;" xml:space="preserve">
<style type="text/css">
	.st0{fill:none;}
</style>
<g id="Box">
	<rect class="st0" width="64" height="64"/>
</g>
<g id="Icon">
	<path d="M61.4,19.9c-3-0.2-7.7-0.6-8.1-2c-0.7-2.1,3.7-6.2,1.4-8.5s-6.4,2.1-8.5,1.4c-1.4-0.5-1.9-5.2-2-8.1c0-0.9-1.2-1.3-1.8-0.6
		c-3.8,4.6-4.5,9-4.4,11.9c1.7,0.8,3.2,1.9,4.6,3.3c2.6,2.6,2.3,3.2,2,3.3c-0.2-0.2-0.3-0.4-0.5-0.6c-6.6-6.6-17.4-6.6-24,0
		s-6.6,17.4,0,24c0.2,0.2,0.4,0.4,0.6,0.5c-0.2,0.3-0.8,0.6-3.3-2c-1.4-1.4-2.5-3-3.3-4.6c-2.8-0.1-7.3,0.6-11.9,4.4
		c-0.7,0.6-0.3,1.7,0.6,1.8c3,0.2,7.7,0.6,8.1,2c0.7,2.1-3.7,6.2-1.4,8.5c2.3,2.3,6.4-2.1,8.5-1.4c1.4,0.5,1.9,5.2,2,8.1
		c0,0.9,1.2,1.3,1.8,0.6c5-6.1,4.6-11.8,4.2-14.1C32,50.2,39.1,48.9,44,44s6.2-12.1,3.8-18.2c2.2,0.4,8,0.8,14.1-4.2
		C62.6,21.1,62.3,20,61.4,19.9z M38.7,35.3l-4.8-0.8l-2.2,4.3c-0.2,0.4-0.8,0.3-0.9-0.1l-0.8-4.8l-4.8-0.8c-0.5-0.1-0.5-0.7-0.1-0.9
		l4.3-2.2l-0.8-4.8c-0.1-0.5,0.5-0.7,0.8-0.4l3.4,3.4l4.3-2.2c0.4-0.2,0.8,0.2,0.6,0.6L35.7,31l3.4,3.4
		C39.5,34.8,39.2,35.3,38.7,35.3z"/>
</g>
</svg>
