<?xml version="1.0" encoding="utf-8"?>
<!-- Generator: Adobe Illustrator 23.1.1, SVG Export Plug-In . SVG Version: 6.00 Build 0)  -->
<svg version="1.1" xmlns="http://www.w3.org/2000/svg" xmlns:xlink="http://www.w3.org/1999/xlink" x="0px" y="0px"
	 viewBox="0 0 64 64" style="enable-background:new 0 0 64 64;" xml:space="preserve">
<style type="text/css">
	.st0{fill:none;}
</style>
<g id="Box">
	<rect class="st0" width="64" height="64"/>
</g>
<g id="Icon">
	<g>
		<path d="M44.7,34c-1.3,0.5-3.2,1.3-4.4,2c2.2,0.6,5.2,1.5,7.2,2.6c0,0,0,0,0,0c1.8,1,2.3,1.7,3,3.3c0.4,1,0.8,2.2,1.1,3.6l6-6.8
			c-0.2-0.8-0.5-1.5-0.9-1.9c-0.9-0.9-3.7-2.1-5.4-2.7c-0.3-0.1-0.4-0.3-0.5-0.6c-0.1-0.3-0.1-0.9-0.2-1.3c1.8-0.1,3.3-0.2,3.9-0.5
			c0.1,0,0.2-0.2,0.1-0.3c-0.3-0.7-1.2-3.1-1.3-4.4c-0.3-3.1-0.3-8.5-4.5-7.2c0,0-2.7-1.7-4.9,1.1c-1.6,2-1.2,4.6-1.2,6.1
			c0,1-0.9,3.5-1.3,4.1c-0.1,0.1-0.1,0.3,0.1,0.3c0.7,0.2,2.2,0.4,3.9,0.5c-0.1,0.8-0.1,0.9-0.2,1.4C45.1,33.7,45,33.9,44.7,34z"/>
		<path d="M38.7,44.7c1.8-1.5,4.4-1.5,6.2,0l4.1,3.5l0.7-0.8c-0.5-2.6-1.2-5.1-2.1-6c-1.7-1.9-8.7-3.5-12.1-4.4
			C34.4,41.8,32.3,48,29,52.3c-0.4-2.1-1-5-1.7-6.9c0.9-1.4,2.2-3.6,2.2-3.6S28.4,40,26,40c-2.4,0-3.5,1.7-3.5,1.7s1.3,2.2,2.2,3.6
			c-0.7,1.9-1.3,4.8-1.7,6.9c-3.2-4.3-5.3-10.5-6.5-15.3c-3.4,0.8-10.4,2.3-12.2,4.4C2.1,44,1,56.9,1,56.9h25h15.3l-3.6-6.1
			C36.5,48.8,36.9,46.2,38.7,44.7z"/>
		<path d="M14.1,26.5c0.5,3.4,2.6,6.6,6.3,9.7c1.8,1.5,4.3,1.8,5.7,1.8s3.9-0.3,5.7-1.8c3.6-3.1,5.7-6.4,6.3-9.7
			c1.3-1.2,2.1-3.2,2.1-5.6c0-0.7,0-2.7-1.2-4c0.3-3.3,0.5-8.5-0.8-10.6c-1.6-2.6-3.5-3.8-7.3-3c-2.4-1.2-4.1-1.9-8.4-0.8
			c-3,0.7-6.2,1.9-7.9,3.9c-1.7,1.9-1.5,7.2-1.3,10.6c-1.2,1.3-1.2,3.2-1.2,4C12,23.3,12.7,25.3,14.1,26.5z M15.7,18.8
			c0.1-0.1,0.3-0.1,0.4-0.1c0.2,0,0.5,0.1,0.6,0.2c0.1,0.7,0.2,1.1,0.3,1.3c0.2,0.9,1,0.8,1,0.8v-6.7c2.1-0.1,6.2-0.8,10.7-3.1
			l5.3,3.5v6.3c0,0,0.8,0.1,1-0.8c0-0.2,0.1-0.7,0.3-1.3c0.2-0.1,0.4-0.2,0.6-0.2c0.1,0,0.3,0,0.4,0.1c0.5,0.2,0.8,0.9,0.8,2.2
			c0,1.3-0.4,3.3-2,3.8c0,3.8-2.7,6.9-5.3,9.2c-0.8,0.7-2.2,1.1-3.7,1.1c-1.5,0-2.9-0.5-3.7-1.1c-2.7-2.3-5.3-5.3-5.3-9.2
			c-1.6-0.5-2-2.5-2-3.8C14.9,19.7,15.2,19,15.7,18.8z"/>
		<path d="M62.3,40.4c-0.7-0.6-1.8-0.4-2.4,0.2L49.3,52.5L43,47c-0.7-0.6-1.7-0.6-2.3,0c-0.7,0.6-0.8,1.5-0.4,2.3l7.7,12.8
			c0.3,0.5,0.9,0.9,1.5,0.9c0,0,0,0,0,0c0.6,0,1.2-0.3,1.5-0.9l11.7-19.4C63.2,41.9,63,40.9,62.3,40.4z"/>
	</g>
</g>
</svg>
