<?xml version="1.0" encoding="utf-8"?>
<!-- Generator: Adobe Illustrator 21.0.2, SVG Export Plug-In . SVG Version: 6.00 Build 0)  -->
<!DOCTYPE svg PUBLIC "-//W3C//DTD SVG 1.1//EN" "http://www.w3.org/Graphics/SVG/1.1/DTD/svg11.dtd">
<svg version="1.1" xmlns="http://www.w3.org/2000/svg" xmlns:xlink="http://www.w3.org/1999/xlink" x="0px" y="0px"
	 viewBox="0 0 64 64" style="enable-background:new 0 0 64 64;" xml:space="preserve">
<style type="text/css">
	.st0{fill:none;}
</style>
<g id="Box">
	<rect class="st0" width="64" height="64"/>
</g>
<g id="Icon">
	<g>
		<path d="M55.5,35H47V22.5c0-0.8-0.7-1.5-1.5-1.5h-27c-0.8,0-1.5,0.7-1.5,1.5V35H8.5C7.7,35,7,35.7,7,36.5v24C7,61.3,7.7,62,8.5,62
			h11.4c0.8,0,1.5-0.7,1.5-1.5C21.5,54.7,26.2,50,32,50s10.5,4.7,10.6,10.5c0,0.8,0.7,1.5,1.5,1.5h11.4c0.8,0,1.5-0.7,1.5-1.5v-24
			C57,35.7,56.3,35,55.5,35z M20,30.8c0.7-1,1.5-1.6,2.2-1.7c2-0.2,2.5,3.9,6.6,3.6c2.6-0.2,3.8-2.1,5.6-4.5
			c2.7-3.6,6.4-5.4,9.5-2.8V35H20V30.8z M45.5,59c-0.8-6.7-6.6-12-13.5-12s-12.7,5.3-13.5,12H10V38h4.1v5.6c0,1.6-0.8,2.6-1.1,4
			c-0.4,1.5,0.4,3.4,2.5,3.4c2.2,0,3.1-1.8,2.5-3.5c-0.6-1.5-1-2.3-1-4V38h1.6H23c0.7,3.6,4,6.2,7.5,6.8c5.5,0.9,9.7-4,13.4-1.8
			c1.6,0.9,3.9,3.8,3.9,7.3c0,1.9-1.9,2.4-1.4,4.4c0.3,1.1,1.1,2.1,2.7,2.1c2,0,2.9-1.4,2.6-3.1c-0.3-1.5-1.2-1.8-1.4-3.4
			c-0.2-1.3,0-2.4,1.6-2.4c0.7,0,1.5,0.8,2.1,2.4V59H45.5z"/>
		<path d="M14.7,19h34.7c0.6,0,1.2-0.4,1.4-1c0.2-0.6,0-1.3-0.5-1.7L32.9,2.3c-0.6-0.4-1.3-0.4-1.9,0L13.7,16.3
			c-0.5,0.4-0.7,1.1-0.5,1.7C13.5,18.6,14,19,14.7,19z"/>
	</g>
</g>
</svg>
