<svg enable-background="new 0 0 64 64" viewBox="0 0 64 64" xmlns="http://www.w3.org/2000/svg"><path d="m0 0h64v64h-64z" fill="none"/><path d="m55.5 35h-8.5v-12.5c0-.8-.7-1.5-1.5-1.5h-27c-.8 0-1.5.7-1.5 1.5v12.5h-8.5c-.8 0-1.5.7-1.5 1.5v24c0 .8.7 1.5 1.5 1.5h11.4c.8 0 1.5-.7 1.5-1.5.1-5.8 4.8-10.5 10.6-10.5s10.5 4.7 10.6 10.5c0 .8.7 1.5 1.5 1.5h11.4c.8 0 1.5-.7 1.5-1.5v-24c0-.8-.7-1.5-1.5-1.5zm-35.5-4.2c.7-1 1.5-1.6 2.2-1.7 2-.2 2.5 3.9 6.6 3.6 2.6-.2 3.8-2.1 5.6-4.5 2.7-3.6 6.4-5.4 9.5-2.8v9.6h-23.9zm25.5 28.2c-.8-6.7-6.6-12-13.5-12s-12.7 5.3-13.5 12h-8.5v-21h4.1v5.6c0 1.6-.8 2.6-1.1 4-.4 1.5.4 3.4 2.5 3.4 2.2 0 3.1-1.8 2.5-3.5-.6-1.5-1-2.3-1-4v-5.5h1.6 4.4c.7 3.6 4 6.2 7.5 6.8 5.5.9 9.7-4 13.4-1.8 1.6.9 3.9 3.8 3.9 7.3 0 1.9-1.9 2.4-1.4 4.4.3 1.1 1.1 2.1 2.7 2.1 2 0 2.9-1.4 2.6-3.1-.3-1.5-1.2-1.8-1.4-3.4-.2-1.3 0-2.4 1.6-2.4.7 0 1.5.8 2.1 2.4v8.7z"/><path d="m14.7 19h34.7c.6 0 1.2-.4 1.4-1s0-1.3-.5-1.7l-17.4-14c-.6-.4-1.3-.4-1.9 0l-17.3 14c-.5.4-.7 1.1-.5 1.7.3.6.8 1 1.5 1z"/></svg>