<svg enable-background="new 0 0 64 64" height="64" viewBox="0 0 64 64" width="64" xmlns="http://www.w3.org/2000/svg"><path d="m0 0h64v64h-64z" fill="none"/><path d="m31.5 23c0-1.9-1.6-3.5-3.5-3.5-1.2 0-2.2.6-2.9 1.5h-10.2c-.6-.9-1.7-1.5-2.9-1.5-1.9 0-3.5 1.6-3.5 3.5 0 1.2.6 2.2 1.5 2.9v10.3c-.9.6-1.5 1.7-1.5 2.9s.6 2.2 1.5 2.9v10.3c-.9.6-1.5 1.7-1.5 2.9 0 1.9 1.6 3.5 3.5 3.5 1.2 0 2.2-.6 2.9-1.5h10.3c.6.9 1.7 1.5 2.9 1.5 1.9 0 3.5-1.6 3.5-3.5 0-1.2-.6-2.2-1.5-2.9v-10.4c.9-.6 1.5-1.7 1.5-2.9s-.6-2.2-1.5-2.9v-10.2c.8-.7 1.4-1.7 1.4-2.9zm-11.5 29.5c-3.1 0-5.5-2.5-5.5-5.5 0-3.1 2.5-5.5 5.5-5.5 3.1 0 5.5 2.5 5.5 5.5 0 3.1-2.4 5.5-5.5 5.5zm6-16.4c-.3.2-.6.5-.9.9h-10.2c-.2-.3-.5-.6-.9-.9v-10.2c.3-.2.6-.5.9-.9h10.3c.2.3.5.6.9.9v10.2zm22.3-4.7c-3.5-.8-6 .6-8.7-4.2-.9-1.6-1.7-4-2.3-7.4-1.9.5-2.6 2.2-2.2 4.5.9 4.1 2.3 8 6 10.4-1 2.9-2.6 8.1-3.4 13.3-.1.5.3 1 .9 1h2c-.2 1.2-.3 2.3-.3 2.5-.1.9 0 1.4.2 2.1.7 2.1 2.2 6.3 2.7 7.9 2.1-.7 2.7-2.2 2.1-4.7s-1.1-4.5-1.1-4.5l1-3.3h.9c.1.9.3 1.6.3 1.8.1.6.4 1.1 1 1.5 7.1 4.6 5.5 3.6 7.6 4.9 1.4-1.8.4-3.4-1-5-1.5-1.5-2-2.1-3.2-3.3h1.6c.6 0 1-.5.9-1.1l-2-10.4c2.1 1.8 3.8 3 5.9 3.2 2.2.3 4.1-.1 4.4-2.1-2.7-.5-4.7-1.3-6.4-2.4-4.2-2.4-3.7-4-6.9-4.7zm-.2-11.6c-2.7-.4-4.4 1.3-4.9 4-.4 2.9.8 4.7 3.4 5.1 2 .3 3.6-.6 4.4-2.3.4.7 1.3 1.5 2.5 1.2 1.9-.5 1.6-1.9 4-1.4.2 0 .3-.2.2-.3-.7-.7-2.2-2.1-4.1-1.9-1 .1-1.7.4-2.1.7.4-3-.9-4.8-3.4-5.1zm14.9-5.1-31-13.7-31 13.7 2 4.6 29-12.9 29 12.8z"/></svg>