<svg height="64" viewBox="0 0 64 64" width="64" xmlns="http://www.w3.org/2000/svg"><path d="m0 0h64v64h-64z" fill="none"/><path d="m30.4064 3-.4309 3h-1.5568l.661-3h-4.0797l-22 57h13.5203l1.5424-7h5.1614l-1.0055 7h13.8814l-1.425-57zm-5.7506 40.0331h-4.397l1.9903-9.0331h3.7042zm2.4467-17.0331h-3.0907l1.5424-7h2.5538zm1.7238-12h-2.1703l.8813-4h1.8636z"/><path d="m40 3h-3.9983l5.7966 57h8.3525l-1.6-7.7062-1.6583 1.519c-1.678 1.4903-3.2-.1511-2.2765-1.6213l3.616-6.1456c.1296-.2208.3641-.3504.6385-.3548.2745-.0045.5641.1168.7899.3319l6.2895 5.9868c1.0927 1.0387.1361 2.8015-1.4106 1.7693l-2.4407-1.5352 2.1527 7.7561h7.7487z"/></svg>