<?xml version="1.0" encoding="utf-8"?>
<!-- Generator: Adobe Illustrator 19.1.0, SVG Export Plug-In . SVG Version: 6.00 Build 0)  -->
<svg version="1.2" baseProfile="tiny" xmlns="http://www.w3.org/2000/svg" xmlns:xlink="http://www.w3.org/1999/xlink" x="0px"
	 y="0px" width="64px" height="64px" viewBox="0 0 64 64" xml:space="preserve">
<g id="Box">
	<rect fill="none" width="64" height="64"/>
</g>
<g id="Icon">
	<g>
		<path d="M39.6177,28.6855c-2.8209,1.502-4.7896,1.3613-5.2258,1.3141c-0.3312-0.0359-0.3839-0.144-0.392-0.2034
			c1.9688-0.4525,4.4597-1.6572,6.2501-4.1819C41.347,24.0125,42,22.0845,42,20V8c2.2091,0,4-1.7909,4-4h-0.0684H18.0684
			c0,2.2091,1.7225,4,3.9316,4v12c0,3.4805,1.7925,6.5442,4.4977,8.3358C22.6407,28.8347,20.01,29.8395,20.01,31
			c0,1.6569,5.3625,3,11.99,3s12-1.3431,12-3C44,30.067,42.2911,29.2353,39.6177,28.6855z M26,20.3V8h4v12c0,1.1045,0.8955,2,2,2
			s2-0.8955,2-2V8h4v12.3c0,3.3086-2.6914,5.7-6,5.7S26,23.6086,26,20.3z"/>
		<path d="M38.5527,41.1006c-0.7402-1.041-1.5059-2.1182-2.2236-3.3027c-0.1138-0.1875-0.3535-0.5811-0.7036-0.4268
			c-0.3545,0.1514-0.2324,0.5918-0.1738,0.8037c0.3687,1.335,0.6289,2.6318,0.8804,3.8857c0.291,1.4531,0.5664,2.8252,0.9692,4.0029
			c0.4375,1.2793,1.019,2.0879,1.7285,2.4033c0.2173,0.0967,0.4438,0.1445,0.6733,0.1445c0.2334,0,0.4692-0.0498,0.7021-0.1494
			c0.4639-0.1982,0.7944-0.543,0.9556-0.9961c0.2603-0.7314,0.0737-1.709-0.5532-2.9043
			C40.2241,43.4502,39.4121,42.3086,38.5527,41.1006z"/>
		<path d="M49.707,43.1699c0.9238,0.9648,1.7817,1.4531,2.5508,1.4531c0.0093,0,0.019,0,0.0283,0
			c0.479-0.0078,0.9102-0.209,1.2466-0.583c0.3374-0.375,0.4922-0.8271,0.4478-1.3057c-0.0723-0.7734-0.6519-1.5811-1.7236-2.4014
			c-0.9971-0.7627-2.2129-1.4561-3.501-2.1914c-1.1099-0.6328-2.2578-1.2881-3.4077-2.0615
			c-0.1836-0.1221-0.5605-0.376-0.8179-0.0918c-0.2583,0.2871,0.0376,0.6357,0.1802,0.8037c0.897,1.0566,1.6792,2.125,2.4355,3.1572
			C48.021,41.1436,48.8472,42.2725,49.707,43.1699z"/>
		<path d="M53.1489,51.8066c-0.8325-0.9385-1.8936-1.8516-3.0171-2.8193c-0.9688-0.834-1.9702-1.6953-2.9521-2.6758
			c-0.1665-0.166-0.4756-0.4736-0.7837-0.2461c-0.3105,0.2314-0.0859,0.6309,0.022,0.8232c0.6787,1.209,1.2422,2.4062,1.7876,3.5645
			c0.6304,1.3398,1.2261,2.6055,1.8989,3.6514c0.731,1.1367,1.4897,1.7822,2.2539,1.9189c0.1001,0.0176,0.2002,0.0264,0.2988,0.0264
			c0.3662,0,0.7197-0.1221,1.0356-0.3604c0.4028-0.3037,0.6411-0.7178,0.689-1.1963C54.459,53.7197,54.0444,52.8164,53.1489,51.8066
			z"/>
		<path d="M33.2002,52.2842c-0.269-1.25-0.5469-2.5439-0.7407-3.916c-0.0303-0.2168-0.0942-0.668-0.4785-0.668
			c-0.3853,0-0.4473,0.4531-0.4775,0.6719c-0.186,1.374-0.4595,2.667-0.7241,3.917c-0.3066,1.4502-0.5962,2.8203-0.6885,4.0713
			c-0.0996,1.3457,0.1191,2.3164,0.6494,2.8838c0.3257,0.3486,0.7622,0.5332,1.2622,0.5332c0.0034,0,0.0073,0,0.0107,0
			c0.5024-0.0029,0.9395-0.1904,1.2632-0.5439c0.5254-0.5723,0.7368-1.5449,0.6284-2.8926
			C33.8057,55.1006,33.5112,53.7324,33.2002,52.2842z"/>
		<path d="M28.442,37.3711c-0.3501-0.1543-0.5898,0.2393-0.7036,0.4268c-0.7178,1.1846-1.4834,2.2617-2.2236,3.3027
			c-0.8594,1.208-1.6714,2.3496-2.2549,3.4609c-0.627,1.1953-0.8135,2.1729-0.5532,2.9043
			c0.1611,0.4531,0.4917,0.7979,0.9556,0.9961c0.2329,0.0996,0.4688,0.1494,0.7021,0.1494c0.2295,0,0.4561-0.0479,0.6733-0.1445
			c0.7095-0.3154,1.291-1.124,1.7285-2.4033c0.4028-1.1777,0.6782-2.5498,0.9692-4.0029c0.2515-1.2539,0.5117-2.5508,0.8804-3.8857
			C28.6744,37.9629,28.7964,37.5225,28.442,37.3711z"/>
		<path d="M18.7193,36.0801c-1.1499,0.7734-2.2979,1.4287-3.4077,2.0615c-1.2881,0.7354-2.5039,1.4287-3.501,2.1914
			c-1.0718,0.8203-1.6514,1.6279-1.7236,2.4014c-0.0444,0.4785,0.1104,0.9307,0.4478,1.3057
			c0.3364,0.374,0.7676,0.5752,1.2466,0.583c0.0093,0,0.019,0,0.0283,0c0.769,0,1.627-0.4883,2.5508-1.4531
			c0.8599-0.8975,1.686-2.0264,2.561-3.2207c0.7563-1.0322,1.5386-2.1006,2.4355-3.1572c0.1426-0.168,0.4385-0.5166,0.1802-0.8037
			C19.2798,35.7041,18.9029,35.958,18.7193,36.0801z"/>
		<path d="M16.8878,46.3115c-0.9819,0.9805-1.9834,1.8418-2.9521,2.6758c-1.1235,0.9678-2.1846,1.8809-3.0171,2.8193
			c-0.8955,1.0098-1.3101,1.9131-1.2329,2.6865c0.0479,0.4785,0.2861,0.8926,0.689,1.1963
			c0.3159,0.2383,0.6694,0.3604,1.0356,0.3604c0.0986,0,0.1987-0.0088,0.2988-0.0264c0.7642-0.1367,1.5229-0.7822,2.2539-1.9189
			c0.6729-1.0459,1.2686-2.3115,1.8989-3.6514c0.5454-1.1582,1.1089-2.3555,1.7876-3.5645c0.1079-0.1924,0.3325-0.5918,0.022-0.8232
			C17.3633,45.8379,17.0543,46.1455,16.8878,46.3115z"/>
	</g>
</g>
</svg>
