<?xml version="1.0" encoding="utf-8"?>
<!-- Generator: Adobe Illustrator 19.2.0, SVG Export Plug-In . SVG Version: 6.00 Build 0)  -->
<svg version="1.0" xmlns="http://www.w3.org/2000/svg" xmlns:xlink="http://www.w3.org/1999/xlink" x="0px" y="0px"
	 viewBox="0 0 64 64" enable-background="new 0 0 64 64" xml:space="preserve">
<g id="achtergrond">
</g>
<g id="paneel_1">
	<g>
		<g>
			<polygon points="48.0413,20.4566 47.863,22.9826 49.7773,23.2676 46.1192,47.8404 46.1082,47.8388 45.9508,50.0679 
				18.4986,48.1298 18.2927,49.5132 47.7521,53.8988 52.629,21.1396 			"/>
		</g>
		<g>
			<polygon points="46.7619,15.2514 42.7545,14.9779 42.7545,17.5084 44.0885,17.5995 43,37 43,44 15,44 14.7912,46.2663 
				44.5062,48.2948 			"/>
		</g>
		<g>
			<path d="M20.1726,28.6078c0.3769-0.3968,1.0316-0.7439,1.7577-1.0367c-0.3323-0.1095-0.6377-0.1968-0.8444-0.2525
				c-0.1456-0.0393-0.2355-0.1662-0.2758-0.3116c-0.0518-0.1869-0.0673-0.4222-0.0673-0.4222
				c0.385-0.4487,0.6706-0.9877,0.7691-1.6938c0.3875-0.1207,0.4651-0.6098,0.4651-0.9147c0-0.3048-0.0531-0.4698-0.1614-0.5209
				c-0.0947-0.0445-0.1827-0.0112-0.2402,0.0217c0.0601-0.6229,0.1467-1.9213-0.1137-2.4028
				c-0.2796-0.5169-0.6194-0.7233-1.2671-0.5543c-0.4249-0.2333-0.7142-0.528-1.4585-0.3178
				c-0.5173,0.1459-1.0834,0.4109-1.3817,0.8086c-0.3347,0.4463-0.2543,1.862-0.1991,2.4954
				c-0.0367-0.0291-0.1571-0.112-0.2873-0.0507c-0.1083,0.0511-0.1614,0.216-0.1614,0.5209c0,0.3049,0.0775,0.794,0.4651,0.9147
				c0.0868,0.7303,0.3677,1.2469,0.7448,1.678c0,0-0.0093,0.2207-0.0506,0.4306c-0.0299,0.1515-0.1252,0.2815-0.2738,0.323
				c-0.6091,0.1702-2.0477,0.6126-2.5221,1.1123c-0.6057,0.6376-0.6546,3.0388-0.6546,3.0388h4.6672
				C19.2736,30.4401,19.6094,29.2008,20.1726,28.6078z"/>
		</g>
		<g>
			<path d="M31.788,26.4808c-0.0244,0.2214-0.0587,0.496-0.0977,0.6959c-0.0276,0.1417-0.1095,0.2664-0.2446,0.317
				c-0.1483,0.0556-0.3529,0.1346-0.5824,0.2282c0.6564,0.2864,1.1381,0.5824,1.4263,0.8863
				c0.5634,0.593,0.8962,1.8318,1.0845,2.8655h4.6628c0,0-0.0295-1.984-0.6351-2.6216c-0.2067-0.2176-0.6183-0.4548-1.071-0.6733
				c-0.593-0.2933-1.2556-0.5528-1.6086-0.6851c-0.1351-0.0506-0.2207-0.1747-0.2446-0.317
				c-0.0296-0.1766-0.0628-0.4384-0.0889-0.6589c0.8942-0.0363,1.6338-0.1245,1.9413-0.2417
				c0.0608-0.0231,0.0915-0.0789,0.0644-0.138c-0.1682-0.3671-0.6056-1.5744-0.6605-2.2049
				c-0.135-1.5476-0.1294-4.3171-2.2498-3.6223c0,0-1.3465-0.8602-2.4401,0.579c-0.7694,1.0125-0.5819,2.3476-0.6127,3.0921
				c-0.0219,0.5295-0.4552,1.7522-0.6375,2.069c-0.0388,0.0674-0.0256,0.1356,0.0476,0.1621
				C30.1714,26.3328,30.9145,26.4257,31.788,26.4808z"/>
		</g>
		<g>
			<path d="M23.465,24.75c0.1582,1.3168,0.8169,2.0872,1.6277,2.7699c0.2142,0.1804,0.6,0.2751,1.0017,0.293
				c0.0364,0.0652,0.0364,0.1425-0.1077,0.1901c-0.241,0.0796-0.9948,0.1921-1.8071-0.2307
				c-0.0067-0.0035-0.0115-0.0067-0.0181-0.0101c-0.6066,0.1627-2.7013,0.7623-3.3535,1.4491
				c-0.7624,0.8026-1.0589,3.7983-1.0589,3.7983H32.703c0,0-0.2864-2.9957-1.0487-3.7983c-0.5878-0.619-2.4052-1.1684-3.2167-1.3899
				c-0.2171-0.0593-0.3633-0.2439-0.4121-0.4636c-0.0432-0.1942-0.0662-0.4168-0.0662-0.4168
				c0.5156-0.576,0.8982-1.2717,1.0279-2.191c0.493-0.1519,0.5917-0.7676,0.5917-1.1515c0-0.3837-0.0676-0.5914-0.2054-0.6558
				c-0.0665-0.0309-0.1313-0.0307-0.1891-0.0184c0.0496-0.7995,0.099-2.3838-0.2343-2.979
				c-0.3643-0.6508-0.8488-0.8196-1.6929-0.6069c-0.5536-0.2937-0.9306-0.5843-1.9005-0.3197
				c-0.6739,0.1837-1.4115,0.4838-1.8002,0.9844c-0.4194,0.5402-0.3385,2.1158-0.2677,2.9251
				c-0.0625-0.017-0.1357-0.0201-0.2102,0.0146c-0.1378,0.0643-0.2053,0.272-0.2053,0.6558
				C22.8733,23.9823,22.9719,24.598,23.465,24.75z"/>
		</g>
	</g>
	<path d="M11,10v33h31V10H11z M39,38H14V13h25V38z"/>
</g>
</svg>
