<?xml version="1.0" encoding="utf-8"?>
<!-- Generator: Adobe Illustrator 17.1.0, SVG Export Plug-In . SVG Version: 6.00 Build 0)  -->
<svg version="1.2" baseProfile="tiny" xmlns="http://www.w3.org/2000/svg" xmlns:xlink="http://www.w3.org/1999/xlink" x="0px"
	 y="0px" width="64px" height="64px" viewBox="0 0 64 64" xml:space="preserve">
<g id="_x36_4px_Boxes">
	<rect fill="none" width="64" height="64"/>
</g>
<g id="Label">
</g>
<g id="Production">
	<g>
		<path d="M46.311,47.8256l-12.5435,4.5655L24.9167,28c-0.5522-0.9055-1.7266-1.2307-2.6675-0.7173l-7.5205,3.6611
			c-0.6638,0.3615-0.982,1.1635-0.7153,1.895c0.2936,0.806,1.185,1.2214,1.991,0.9277c0.3792-0.1381,5.6047-2.0413,5.9838-2.1795
			l7.5503,20.8737c1.5751,0.0324,3.0616,0.845,3.9185,2.2015c0.1464,0.2318,0.1251,0.3826-0.0096,0.4623
			C32.6562,54.4331,31.6332,54,30.5,54c-2.4853,0-4.5,2.0147-4.5,4.5s2.0147,4.5,4.5,4.5s4.5-2.0147,4.5-4.5
			c0-0.7393-0.1953-1.4265-0.5112-2.0419l12.2601-7.7399C47.2553,48.3985,46.8737,47.6207,46.311,47.8256z"/>
		<rect x="33.0576" y="37.6052" transform="matrix(-0.9397 0.342 -0.342 -0.9397 94.1559 68.2853)" width="16" height="9.6774"/>
		<rect x="29.0122" y="26.4905" transform="matrix(-0.9397 0.342 -0.342 -0.9397 82.5075 48.1102)" width="16" height="9.6774"/>
		<rect x="24.9668" y="15.3759" transform="matrix(-0.9397 0.342 -0.342 -0.9397 70.8593 27.9347)" width="16" height="9.6774"/>
		<rect x="24.0827" y="1.1" transform="matrix(0.342 0.9397 -0.9397 0.342 27.5808 -21.1896)" width="9.6774" height="16"/>
	</g>
</g>
</svg>
