<?xml version="1.0" encoding="utf-8"?>
<!-- Generator: Adobe Illustrator 21.0.2, SVG Export Plug-In . SVG Version: 6.00 Build 0)  -->
<!DOCTYPE svg PUBLIC "-//W3C//DTD SVG 1.1//EN" "http://www.w3.org/Graphics/SVG/1.1/DTD/svg11.dtd">
<svg version="1.1" xmlns="http://www.w3.org/2000/svg" xmlns:xlink="http://www.w3.org/1999/xlink" x="0px" y="0px" width="64px"
	 height="64px" viewBox="0 0 64 64" enable-background="new 0 0 64 64" xml:space="preserve">
<g id="Box">
	<rect fill="none" width="64" height="64"/>
</g>
<g id="Icon">
	<g>
		<g>
			<path d="M56.9876,38.239c-0.6799-1.2155-1.0388-1.8418-1.6872-2.5613c0.5043-0.7186,0.6716-1.2197,0.6716-1.2197
				c-2.7103-3.681-5.4795-5.4333-6.5598-6.0242c0.0592-2.0536-0.0345-4.543-0.2021-6.6978
				c0.7059,1.1174,1.5171,2.2686,2.4109,3.1721c0.6687,0.629,3.5623,2.4524,4.3331,2.9c1.7925,1.0406,3.1044-0.1337,3.4154-0.4445
				c-1.8384-1.6985-5.615-4.5818-5.615-4.5818c-2.9534-3.2144-3.0816-6.4482-5.4156-7.7197
				c-1.1688-0.6367-5.4258-1.3743-7.147,0.3738c-1.0668,1.0835-3.355,4.7083-4.2164,6.8857
				c-0.2396,0.6434-0.342,0.9062-0.3704,1.9326c-0.036,1.7871,0.41,4.8553,0.5863,5.7122c0.2684,1.304,1.2555,2.502,2.787,2.4921
				c-0.05-0.7733-0.3261-2.5706-0.3693-5.2452c-0.0127-0.9028-0.0039-1.8843,0.1066-2.733
				c0.1198-0.9093,0.8066-1.9681,1.6053-3.0255c0.3674,2.217,0.8168,4.6377,0.499,6.6855
				c-0.2369,1.5264-0.6403,2.7308,0.0829,4.6411c0.2145,0.5667,0.7386,3.0999-1.2355,6.9805
				c0.1212,0.0405,2.6983,0.7885,5.7761,0.5344c0.0944,0.1691-0.0366,0.4125-0.3097,0.5225
				c-0.2326,0.0938-1.4289,0.4429-2.8497,0.4585c-0.402,1.2632-1.1219,3.6321-2.5615,8.0529
				c-0.8704,2.6725,1.2803,4.2916,1.7536,4.6168c1.856-4.2601,2.9936-7.0858,4.0671-9.7073
				c0.7372-1.7903,0.8879-2.3698,1.3463-4.109c0.0029-0.0114,0.0053-0.0221,0.0081-0.0333c0.6107-0.116,1.2277-0.2732,1.8392-0.4944
				c0.712-0.2574,1.3393-0.543,1.9036-0.8416c0.632,0.4182,0.7751,0.6765,1.5464,1.7972c1.4785,2.1481,3.3534,5.1735,4.7153,7.4042
				c1.219,1.9966,3.0168,2.5542,4.8712,1.9927l0.0198-0.0105C61.1454,46.4856,58.8144,41.6035,56.9876,38.239z M44.1998,12.906
				c2.3005-0.3411,3.3928-2.1492,3.0488-4.4691c-0.3917-2.6422-1.9932-3.8528-4.2338-3.5208
				c-2.3602,0.35-3.3832,2.2139-3.0294,4.5981C40.358,12.0271,41.8997,13.2471,44.1998,12.906z M13.1164,18.6223
				c1.9878-1.2905,2.3434-3.2625,0.9335-5.4343c-1.3376-2.0608-3.3763-2.7953-5.4162-1.4712
				c-1.9363,1.2573-2.3439,3.2626-0.8613,5.5459C9.0738,19.2678,11.1281,19.9131,13.1164,18.6223z M38.9316,33.312l-6.2396-2.0039
				l-1.317-6.0049c1.2878,0.9716,3.1301,2.4163,4.6594,3.825c-0.0958-0.6318-0.2009-1.4349-0.284-2.2538
				c-1.1594-0.9889-2.3441-1.9152-3.2838-2.6276c0.3789-1.1868-0.0537-2.5166-1.0014-3.4561l0.0043-0.0026
				c-1.3901-1.3307-3.6746-3.531-5.4802-4.0192c-1.6687-0.4912-6.7776,0.6198-9.7284,2.0979
				c-3.4967,1.7515-4.2214,3.402-5.2086,4.9822c-1.6143,2.5844-2.2598,3.4821-2.7952,4.0297
				c-0.4866,0.0685-5.6704-1.1307-7.5042-1.4784c-0.0631,2.2072,0.8846,2.6965,2.9033,3.6094
				c1.5425,0.6976,4.6084,1.1643,5.719,1.0447c1.218-0.1313,3.0973-2.4154,4.5618-4.7913c1.4177,2.0884,3.571,4.3772,4.8066,7.0825
				c-4.6218,1.1199-6.4587,2.3567-6.9419,3.1265c-0.5172,0.8237-0.6224,2.3501-0.4941,3.4321
				c0.2362,1.8196,0.571,3.4907,0.8962,5.0769c0.6243,3.0453,1.1053,4.9841,1.8287,8.0264
				c2.2736-1.0283,3.1176-3.2239,2.9692-4.4177c-0.2766-2.2244-0.9359-7.0385-1.0908-8.917
				c0.9074-0.1281,3.1022-0.3789,4.7952-0.6296c1.0401,1.7542,2.9335,4.8126,4.1067,6.5907
				c0.5337,0.8087,0.9725,1.3104,1.6624,1.8746c2.053,1.6797,8.0153,4.8335,10.4094,6.02c0,0,0.6902-3.5182-1.6931-5.2048
				c-0.8494-0.6011-4.2014-3.198-6.3288-4.6897c-0.7801-1.3159-2.2953-4.5864-2.9498-6.0466
				c-1.3203,0.2262-2.451,0.4115-2.6105,0.4104c-0.2878-0.0022-0.2865-0.1394-0.2865-0.1394
				c2.2961-1.3942,4.5687-2.7888,3.8448-6.1094c-0.3635-1.6674-3.7614-7.1917-5.9413-10.2815
				c1.718-0.6777,4.1385-1.1469,4.5726-1.2374c0.7584,0.012,2.3229,1.1793,3.7535,2.3649l1.9659,8.9631l-1.5145,4.7
				c-0.1744,0.543,0.1244,1.1245,0.6674,1.2988l7.2864,2.3402c0.543,0.1744,1.1245-0.1244,1.2989-0.6674l1.3763-4.2854
				l0.0051,0.0046c0.1552-0.6208,0.274-0.7908,0.2652-1.4697C40.1292,33.5198,39.5881,33.5099,38.9316,33.312z"/>
		</g>
	</g>
</g>
</svg>
