<?xml version="1.0" encoding="utf-8"?>
<!-- Generator: Adobe Illustrator 19.1.0, SVG Export Plug-In . SVG Version: 6.00 Build 0)  -->
<svg version="1.2" baseProfile="tiny" xmlns="http://www.w3.org/2000/svg" xmlns:xlink="http://www.w3.org/1999/xlink" x="0px"
	 y="0px" width="64px" height="64px" viewBox="0 0 64 64" xml:space="preserve">
<g id="Box">
	<rect fill="none" width="64" height="64"/>
</g>
<g id="Icon">
	<g>
		<path d="M17.4117,30.353c-3.5222-0.4662-6.8792,0.2016-7.3382,2.2149c-0.9987,4.3799,11.9383,4.1744,12.6145,1.5082
			C23.1707,32.1731,21.4117,30.8823,17.4117,30.353z"/>
		<path d="M43.2513,18.8012c-5.3474-1.5378-8.8881,1.8022-13.075,5.778c-3.9156,3.7183-6.2376,7.6597-1.3804,10.0176
			c3.7742,1.8322,10.3082,1.5121,14.2864,1.0248c-2.3281-1.6468-6.5142-4.86-5.2069-5.8289c0,0,6.359,6.4625,12.2186,3.8154
			C57.417,30.2999,48.7585,20.385,43.2513,18.8012z"/>
		<path d="M61.9533,31.7424c-0.6855-11.4273-12.0138-20.5182-21.5815-20.5184c-0.0004,0-0.0008-0.0001-0.0008-0.0001
			c-2.9656,0.0002-6.0952,0.8458-9.1868,3.054c-10.5806,7.5576-10.5834,9.6129-17.7628,10.2493
			c-5.3069,0.4704-9.9695,1.7803-10.8808,7.0169c-0.5622,3.2306-0.921,7.5223,0.3848,11.9119
			c1.7266,5.8041,22.5598,7.3658,29.18,7.3658c0.0012,0,0.0036,0,0.0048,0c6.1761-0.0005,25.0605-0.8424,27.8036-6.5366
			C61.7859,40.3997,62.1481,34.9895,61.9533,31.7424z M57.751,33.4551c-0.9189,2.8252-3.0723,4.708-11.3564,5.9707
			c-6.4443,0.9819-13.0332,1.0342-14.2891,1.0347c-2.4541,0-8.6478-0.0947-14.7699-0.9712
			c-7.9043-1.207-11.4277-3.3999-11.4277-7.1104c0-2.5391,2.6641-4.0488,7.7031-4.3662c6.2646-0.5552,8.4291-2.373,13.0873-5.9937
			c1.6689-1.2974,3.7393-2.9067,6.5195-4.8926c3.1113-2.2217,6.4121-2.897,10.0947-2.0615
			c5.2109,1.1812,10.1514,4.9116,12.8936,9.7363C57.9678,27.9014,58.5312,31.0557,57.751,33.4551z"/>
	</g>
</g>
</svg>
