<?xml version="1.0" encoding="utf-8"?>
<!-- Generator: Adobe Illustrator 17.1.0, SVG Export Plug-In . SVG Version: 6.00 Build 0)  -->
<svg version="1.2" baseProfile="tiny" xmlns="http://www.w3.org/2000/svg" xmlns:xlink="http://www.w3.org/1999/xlink" x="0px"
	 y="0px" width="64px" height="64px" viewBox="0 0 64 64" xml:space="preserve">
<g id="Box">
	<rect fill="none" width="64" height="64"/>
</g>
<g id="Icon">
	<path d="M32,3C15.9836,3,3,15.9824,3,32c0,16.0175,12.9836,29,29,29c16.0175,0,29-12.9825,29-29C61,15.9824,48.0175,3,32,3z
		 M32,9.78c10.123,0,18.6804,6.8071,21.351,16.0825l-11.7231-1.0194c0.4885,1.327,1.0332,4.29,0.6068,5.4377
		c-0.0741,0.1994-0.2383,0.3127-0.3446,0.3149C41.2057,25.7396,37.0449,22,32,22c-2.5722,0-4.9099,0.9795-6.6818,2.5751
		l-14.6658,1.2753C13.327,16.5812,21.8813,9.78,32,9.78z M32,37.25c-2.8995,0-5.25-2.3505-5.25-5.25s2.3505-5.25,5.25-5.25
		s5.25,2.3505,5.25,5.25S34.8995,37.25,32,37.25z M10.0425,35.4128C12.7543,35.4228,26.6738,35.9631,27,46
		c0.0823,2.5323,0.0663,5.5908,0.0402,7.655C18.2548,51.6433,11.4361,44.415,10.0425,35.4128z M36.9598,53.655
		C36.9337,51.5908,36.9177,48.5323,37,46c0.3262-10.0369,14.2457-10.5772,16.9575-10.5872
		C52.5639,44.415,45.7452,51.6433,36.9598,53.655z"/>
</g>
</svg>
