<?xml version="1.0" encoding="utf-8"?>
<!-- Generator: Adobe Illustrator 17.1.0, SVG Export Plug-In . SVG Version: 6.00 Build 0)  -->
<svg version="1.2" baseProfile="tiny" xmlns="http://www.w3.org/2000/svg" xmlns:xlink="http://www.w3.org/1999/xlink" x="0px"
	 y="0px" width="64px" height="64px" viewBox="0 0 64 64" xml:space="preserve">
<g id="_x36_4px_Boxes">
	<rect fill="none" width="64" height="64"/>
</g>
<g id="Design">
	<g>
		<path d="M55.5986,35c-2.1667,0-4.9217,1.063-6.342,1.6072C48.2087,35.8419,46.2567,35,44.4014,35C40.3203,35,37,38.2998,37,42.356
			c0,2.4155,0.6763,4.0713,1.3301,5.6724c0.8922,2.1862,1.0713,2.7316,1.6729,6.7773C40.6021,58.8345,41.2222,63,45.1577,63
			c3.083,0,4.1113-3.6992,4.8423-6.9985C50.731,59.3008,51.7593,63,54.8423,63c3.9355,0,4.5557-4.1655,5.1548-8.1943
			c0.6017-4.0464,0.7806-4.5911,1.6729-6.7773C62.3237,46.4272,63,44.7715,63,42.356C63,38.2998,59.6797,35,55.5986,35z
			 M58.8926,46.8945c-0.9965,2.4407-1.2328,3.2296-1.8628,7.4697C56.46,58.1953,56.0581,60,54.8423,60
			c-0.9087,0-1.7905-4.0742-2.0801-5.4131c-0.5747-2.6543-0.9897-4.5718-2.7622-4.5718s-2.1875,1.9175-2.7622,4.5718
			C46.9482,55.9258,46.0664,60,45.1577,60c-1.2158,0-1.6177-1.8047-2.1875-5.6357c-0.6266-4.2172-0.8593-5.0119-1.8628-7.4697
			C40.5132,45.4395,40,44.1826,40,42.356c0-2.3016,1.8187-4.1725,4.1055-4.3264c3.1646-0.0773,6.6312,2.9901,10.4304,2.9372
			c0.333-0.0046,0.4861-0.1205,0.4532-0.2606c0,0-1.4476-0.6928-3.3399-1.8276C52.8651,38.4739,54.5399,38,55.5986,38
			C58.0254,38,60,39.9541,60,42.356C60,44.1826,59.4868,45.4395,58.8926,46.8945z"/>
		<path d="M35.5527,49.1626c-0.6915-1.693-1.5517-3.7998-1.5526-6.8021c-0.8591,1.3794-3.0031,4.9374-6.1136,6.9793
			c-2.3003-1.75-7.0975-5.5302-6.6644-9.0224c0.0453-0.3658,0.0742-0.6061,0.0978-0.7997c1.5308,0.9374,3.2181,1.4579,5.68,1.4579
			c4.5576,0,6.4658-1.7705,9.626-4.7031c0.6328-0.5869,1.3301-1.2344,2.125-1.9404c0.4023-0.3574,0.5312-0.9326,0.3193-1.4268
			l-0.5566-1.2969c0.0596-0.416,0.1611-1.1133,0.2363-1.5361c0.0676-0.3792,0.1274-0.936,0.1772-1.5037
			c0.0006-0.004,0.0018-0.0079,0.0024-0.0118c1.3281-1.2195,2.0679-3.1657,2.0679-5.5557c0-0.7447,0.0012-2.7025-1.2268-4.0366
			c0.3037-3.3378,0.515-8.5034-0.7869-10.587c-1.6026-2.5649-3.5498-3.8159-7.2632-2.9775
			c-2.4355-1.1577-4.0937-1.8823-8.3608-0.8398c-2.9649,0.7241-6.21,1.9067-7.92,3.8798c-1.652,1.9066-1.5394,7.2237-1.2741,10.6054
			c-1.1589,1.332-1.1634,3.2256-1.1634,3.9557c0,2.386,0.7374,4.3299,2.0614,5.5497c0.0037,0.0242,0.0106,0.048,0.0145,0.0723
			c0.0489,0.5483,0.1067,1.0823,0.1718,1.4493c0.0752,0.4229,0.1768,1.1201,0.2363,1.5361l-0.5566,1.2969
			c-0.2119,0.4941-0.083,1.0693,0.3193,1.4268c0.7949,0.7061,1.4912,1.3525,2.124,1.9395c0.4187,0.3885,0.8146,0.7552,1.1984,1.1015
			c-0.0492,0.3815-0.0991,0.7692-0.1501,1.1709c-2.5129,0.7345-9.6714,2.9969-12.0341,5.5665C3.5137,47.2344,2,59,2,59h25h10.7364
			c-0.3344-1.325-0.5356-2.6423-0.7007-3.7529C36.4662,51.4207,36.3384,51.0867,35.5527,49.1626z M16.2663,25.0458
			C15.9999,24.3535,15.9,23.5958,15.9,23.001c0-1.2725,0.3217-1.961,0.7737-2.1743c0.3922-0.1844,0.7725-0.0475,1.013,0.0886
			c0.1414,0.6527,0.2484,1.1383,0.2899,1.3098C18.1826,23.0762,19,22.998,19,22.998v-6.7451
			c2.0731-0.1505,6.1937-0.7531,10.7499-3.1062L35,16.6729v6.3251c0,0,0.8174,0.0782,1.0234-0.7729
			c0.0415-0.1715,0.1484-0.6571,0.2898-1.3098c0.2405-0.1362,0.6209-0.2731,1.013-0.0886C37.7783,21.04,38.1,21.7285,38.1,23.001
			c0,0.5948-0.0999,1.3526-0.3663,2.0449c-3.8203-0.0057-6.1309-0.3244-6.8607-0.9492c-1-0.8586-1.8749-2.0965-3.873-2.0965
			c-1.9985,0-2.873,1.2384-3.873,2.097C22.3981,24.7214,20.0875,25.0402,16.2663,25.0458z M17.5811,33.0654l0.3168-0.738
			l5.2229,1.3873c0.0393-0.0453,0.1551-0.222-0.1062-0.4286l-5.2115-3.0902c-0.0321-0.2053-0.0639-0.4014-0.0921-0.5601
			c-0.0791-0.4502-0.1553-1.3223-0.2119-2.1016c4.6006-0.0928,6.2598-0.6855,7.2549-1.5391c0.2402-0.2061,0.46-0.418,0.6738-0.625
			c0.6582-0.6377,0.9746-0.9199,1.5723-0.9199c0.5986,0,0.9141,0.2817,1.5723,0.9189c0.2129,0.207,0.4336,0.4199,0.6738,0.626
			c0.9971,0.8535,2.6562,1.4463,7.2549,1.5391c-0.0557,0.7783-0.1318,1.6504-0.2119,2.1006
			c-0.0282,0.1591-0.0601,0.3556-0.0922,0.5612l-5.2112,3.09c-0.2613,0.2067-0.1455,0.3834-0.1062,0.4286l5.2227-1.3872
			l0.3168,0.738c-0.54,0.4893-1.0332,0.9473-1.4941,1.375c-3.0752,2.8535-4.3477,4.0352-7.9248,4.0352
			c-3.5762,0-4.8496-1.1816-7.9258-4.0361C18.6143,34.0127,18.1201,33.5547,17.5811,33.0654z"/>
	</g>
</g>
</svg>
