<?xml version="1.0" encoding="utf-8"?>
<!-- Generator: Adobe Illustrator 23.1.1, SVG Export Plug-In . SVG Version: 6.00 Build 0)  -->
<svg version="1.1" xmlns="http://www.w3.org/2000/svg" xmlns:xlink="http://www.w3.org/1999/xlink" x="0px" y="0px"
	 viewBox="0 0 64 64" style="enable-background:new 0 0 64 64;" xml:space="preserve">
<style type="text/css">
	.st0{fill:none;}
	.st1{fill:#FF1D25;}
</style>
<g id="Box">
	<rect class="st0" width="64" height="64"/>
</g>
<g id="Icon">
	<g>
		<path d="M55.9,36L55,37c-0.6,0.6-1.4,1-2.2,1H14.7c-0.9,0-1.8-0.4-2.4-1.1c-0.2,0.5-0.3,1.1-0.3,1.6c0,1.5,0.6,2.4,2.6,5.1
			c2.5,3.1,4.5,4.4,7.2,4.4h27.7c1.9,0,3.5-0.5,6-2.6c0.8-0.7,1.6-1.5,2.5-2.5c1.7-1.8,3-3,3-5.4c0-0.5-0.1-1-0.2-1.5H55.9z M22,46
			c-1.7,0-3-1.3-3-3s1.3-3,3-3s3,1.3,3,3S23.7,46,22,46z M31,46c-1.7,0-3-1.3-3-3s1.3-3,3-3s3,1.3,3,3S32.7,46,31,46z M40,46
			c-1.7,0-3-1.3-3-3s1.3-3,3-3s3,1.3,3,3S41.7,46,40,46z M49,46c-1.7,0-3-1.3-3-3s1.3-3,3-3s3,1.3,3,3S50.7,46,49,46z"/>
		<path d="M62.7,26h-20c0-0.1-0.1-0.3,0.2-0.4l6.2-1l0,0l7.3-1.2c0.4-0.1,0.7-0.3,0.8-0.6l0.8-2.2c0.2-0.6-0.2-1.3-0.8-1.3
			l-14.1-1.8c-2.9-0.4-5.8-0.4-8.8-0.1l-4.8,0.5c-0.4,0-0.7,0.2-1,0.4l-1.8,1.6l-6-0.5c-0.8-0.1-1.6,0.3-2.1,0.8L2.2,18.7
			c-0.6,0-1,0.4-1.1,0.9l-0.1,1c0,0.6,0.4,1,0.9,1.1l16.4,1.4c0.4,0.6,1.1,1.1,1.9,1.2l5.4,0.5l1.5,1.3L13,30.7
			c-0.6,0.2-0.8,0.8-0.6,1.3l1.4,3.4c0.2,0.4,0.5,0.6,0.9,0.6h38.1c0.3,0,0.6-0.1,0.7-0.3l1.2-1.3c0.2-0.2,0.5-0.3,0.7-0.3h5.8
			c0.5,0,0.9-0.3,1-0.8l1.5-6C63.8,26.6,63.4,26,62.7,26z"/>
	</g>
</g>
</svg>
