<?xml version="1.0" encoding="utf-8"?>
<!-- Generator: Adobe Illustrator 22.1.0, SVG Export Plug-In . SVG Version: 6.00 Build 0)  -->
<!DOCTYPE svg PUBLIC "-//W3C//DTD SVG 1.1//EN" "http://www.w3.org/Graphics/SVG/1.1/DTD/svg11.dtd">
<svg version="1.1" xmlns="http://www.w3.org/2000/svg" xmlns:xlink="http://www.w3.org/1999/xlink" x="0px" y="0px" width="64px"
	 height="64px" viewBox="0 0 64 64" style="enable-background:new 0 0 64 64;" xml:space="preserve">
<style type="text/css">
	.st0{fill:none;}
</style>
<g id="Box">
	<rect class="st0" width="64" height="64"/>
</g>
<g id="Icon">
	<g>
		<path d="M27.8,49.6v-2.2c0-0.1,0-0.1,0-0.2c-0.5,0.4-1,0.8-1.4,1.1c-2.3-1.8-6.6-5.5-6.2-9c0.2-1.9,0-0.5,0.8-5.4
			c-2.3-2.2-4.1-4.9-4.1-8.1c-1.6-0.5-2-2.5-2-3.8c0-1.3,0.3-2,0.8-2.2c0.4-0.2,0.8,0,1,0.1c0.1,0.7,0.2,1.1,0.3,1.3
			c0.2,0.9,1,0.8,1,0.8v-6.7c2.1-0.2,6.2-0.8,10.8-3.1l5.2,3.5V22c0,0,0.8,0.1,1-0.8c0-0.2,0.1-0.7,0.3-1.3c0.2-0.1,0.6-0.3,1-0.1
			c0.5,0.2,0.8,0.9,0.8,2.2c0,1.3-0.4,3.3-2,3.8c0,3.7-2.5,6.5-5.3,8.9c-0.8,0.7-2.2,1.1-3.7,1.1c-1.1,0-2.1-0.3-2.9-0.6
			c0.6,0.9,1.7,2.1,3.6,2.6c0.7,0.2,3.1,0.6,4.9-0.7c1.5-1,3.4-3.2,4.5-4.8c1-1.6,1.6-3.1,1.9-4.8c1.3-1.2,2.1-3.2,2.1-5.6
			c0-0.7,0-2.7-1.2-4c0.3-3.3,0.5-8.5-0.8-10.6c-1.6-2.6-3.5-3.8-7.3-3c-2.4-1.2-4.1-1.9-8.4-0.8c-3,0.7-6.2,1.9-7.9,3.9
			c-1.7,1.9-1.5,7.2-1.3,10.6C12,19.4,12,21.3,12,22c0,2.4,0.7,4.3,2.1,5.5c0.4,2.5,1.6,4.9,3.7,7.3c-0.1,0.8-0.2,1.7-0.4,2.7
			c-2.5,0.7-9.7,3-12,5.6C2.5,46.2,1,58,1,58h30c-0.1-0.8,0-1.7,0.3-2.5l0.7-1.5l-1.6-0.5C28.9,52.9,27.8,51.4,27.8,49.6z"/>
		<path d="M43.5,34.7l-1.1,3.1c-0.8,0.2-1.6,0.6-2.4,1l-3-1.4c-0.3-0.2-0.8-0.1-1,0.2c-1,1-0.6,0.6-1.6,1.6c-0.3,0.3-0.3,0.7-0.2,1
			l1.5,3c-0.4,0.7-0.7,1.5-0.9,2.3l-3.2,1.1C31.2,46.7,31,47,31,47.4c0,0.8,0,1.4,0,2.2c0,0.4,0.2,0.7,0.6,0.9l3.2,1.1
			c0.2,0.8,0.5,1.6,0.9,2.3l-1.5,3c-0.2,0.3-0.1,0.8,0.2,1c1,1,0.6,0.6,1.6,1.6c0.3,0.3,0.7,0.3,1,0.2l3-1.5c0.7,0.4,1.5,0.7,2.3,1
			l1.1,3.1c0.1,0.4,0.5,0.6,0.9,0.6c0.6,0,1.1,0,1.6,0v-9.9c-0.2,0-0.3,0-0.5,0c-2.5,0-4.6-2.1-4.6-4.6c0-2.5,2.1-4.6,4.6-4.6
			c0.2,0,0.3,0,0.5,0V34c-0.5,0-1,0-1.6,0C44,34,43.6,34.3,43.5,34.7z"/>
		<path d="M60,41.1c-0.5,0.8-1.2,1.4-1.7,1.5c-0.3,0.1-0.5,0-0.6-0.2c2.1-1.6,2.1-3.7,0.7-5c-1.4-1.3-3.8-0.9-4.8,0.9
			c-0.2,0-0.4-0.1-0.3-0.5c0-0.5,0.5-1.5,1.4-2.1c-1.1-1.4-2.9-2.1-4.5-1.6c-1,0.3-1.8,0.9-2.3,1.8l0,8.5c0.7-0.5,1.5-0.6,2-0.5
			c0.7,0,0.9,0.4,0.7,0.7c-2.1,1.1-2.7,2.5-2.7,3.9l0,1.7c2-0.6,3.8,0.5,4.2,2.4c0.2,0.8-0.3,0.7-0.3,0.7c0,0-0.4-0.9-1.3-1.4
			c-0.8-0.4-1.8-0.4-2.6,0v9.1c0.5,0.9,1.3,1.5,2.3,1.8c1.7,0.5,3.8-0.1,4.9-2.2c-1.3-0.6-2-2-1.4-2.2c0.4,0.4,0.9,1,1.9,1.1
			c2,0.2,3.5-1,4.1-2.4c1-2.8-1.5-3.5-1.7-3.6c0.1-0.3,0.3-0.4,0.8-0.3c0.3,0,0.9,0.2,1.4,0.6c1.9-1.1,2.7-3.8,1.4-6.2
			C63.4,45,62.3,42.1,60,41.1z M50,39.5c0.3-0.8,0.7-0.8,0.8-0.6c0,0.5,0.2,1,0.6,1.3c0.4,0.3,1.1,0.4,1.9,0.2
			c0.7-0.2,1.2-0.6,1.8-1c1.2-0.1,0.2,2.6-2.7,2.8c-0.1,0-0.2,0-0.3,0C50.2,42.2,49.7,40.5,50,39.5z M52.7,44.9c0.9-0.5,2.1-0.2,3,0
			c1.2,0.3,2,0.3,3-0.2l0.3-0.2c0.3,0.1,0.3,0.5-0.1,0.9c-0.7,0.9-1.5,1.4-3,1.2c-0.8-0.1-1.2-0.2-1.6-0.3c-0.4,0-1.2,0.1-1.4,1.1
			c0,0.4,0,0.8,0.2,1.1c0,0.2-0.3,0.4-0.7,0C51.1,47.5,51.5,45.5,52.7,44.9z M55.8,57.1c-0.2-0.5-0.5-0.9-1.1-1
			c-0.6-0.2-1.4,0-2.1,0.5c-0.9,0.6-1.1,1.3-1.1,2.1c-0.3,0.3-0.7-0.1-0.8-0.7c-0.5-2.2,2.1-4.6,4.6-3.5c0.8,0.3,1.1,1.2,1.1,1.8
			C56.3,56.9,56,57.2,55.8,57.1z M59.6,51.9c-1.9-3-4.4-1.2-4.7,0.5c-0.2,0.1-0.4,0-0.5-0.5c-0.1-0.5,0.1-1.7,0.8-2.4
			c0.8-0.8,1.9-1,2.9-0.7c1,0.3,1.6,1.1,1.8,2.1C60,51.5,59.9,52,59.6,51.9z"/>
	</g>
</g>
</svg>
