<?xml version="1.0" encoding="utf-8"?>
<!-- Generator: Adobe Illustrator 19.1.0, SVG Export Plug-In . SVG Version: 6.00 Build 0)  -->
<svg version="1.2" baseProfile="tiny" id="Layer_1" xmlns="http://www.w3.org/2000/svg" xmlns:xlink="http://www.w3.org/1999/xlink"
	 x="0px" y="0px" width="64px" height="64px" viewBox="0 0 64 64" xml:space="preserve">
<rect fill="none" width="64" height="64"/>
<g>
	<path d="M30,18c-1.6569,0-3,0.3431-3,2s1.3431,4,3,4s3-2.3431,3-4S31.6569,18,30,18z"/>
	<circle cx="30" cy="26" r="1"/>
	<path d="M49,31.7998c1.9421,0,4.3384,0.0404,6.5986,0.1819c-0.7819-1.6322-3.1957-2.9989-7.5986-4.9464
		c-2.566-1.1349-5.5068-1.7284-8.2576-2.0194C41.1575,22.94,42,20.4012,42,17.6497c0-1.5523-0.2782-3.0328-0.7635-4.4068
		c2.392-0.2844,8.3513-5.8522,1.758-9.8625C37.605,0.1022,35.78,4.3,35.2407,6.2831C33.6555,5.4692,31.8818,4.9997,30,4.9997
		c-1.868,0-3.6292,0.4629-5.2056,1.2656c-0.5453-1.9903-2.3755-6.1533-7.7489-2.8849c-6.5587,3.9893-0.6966,9.5193,1.7198,9.8573
		C18.2788,14.6133,18,16.0955,18,17.6497c0,2.7515,0.8425,5.2903,2.2576,7.3663C17.5068,25.307,14.566,25.9004,12,27.0354
		c-7.4285,3.2857-9.2337,4.9119-7,8.9643c3.1389,5.6945,5.9118,4.4336,9.0278,1.0278c1.1944-1.3056,2.9922-3.7224,2.9922-0.0278
		l-0.0103,2.4412c4.9897,1.5214,5.9713,4.7646,6.0578,5.2344c0.0361,0.196,0.0191,0.2951-0.0304,0.3313
		c-3.1258-2.9928-8.9024-5.6932-12.3064-2.3386c-2.7935,2.7531-1.8239,8.2666,2.1657,12.3149
		c3.9897,4.0482,9.4885,5.0982,12.2821,2.345c0.7531-0.7421,1.2262-1.6878,1.4461-2.7487C27.605,54.8443,28.7593,55,30,55
		c1.083,0,2.0925-0.1239,2.9855-0.3304c-0.145-2.2808-0.1857-4.7075-0.1857-6.6696c0-3.2148,0.106-7.6812,0.6084-10.6997
		c0.418-2.5083,2.3838-4.4741,4.8921-4.8916C41.3188,31.9058,45.7847,31.7998,49,31.7998z M34,11.2411
		c0.9714,0,1.7589,0.7875,1.7589,1.7589c0,0.9714-0.7875,1.7589-1.7589,1.7589c-0.9714,0-1.7589-0.7875-1.7589-1.7589
		C32.2411,12.0286,33.0286,11.2411,34,11.2411z M26,11.2411c0.9714,0,1.7589,0.7875,1.7589,1.7589
		c0,0.9714-0.7875,1.7589-1.7589,1.7589c-0.9714,0-1.7589-0.7875-1.7589-1.7589C24.2411,12.0286,25.0286,11.2411,26,11.2411z
		 M30,29.197c-3.9831,0-7.2121-4.5439-7.2121-8.2425c0-3.6986,3.229-5.1516,7.2121-5.1516c3.9832,0,7.2121,1.4529,7.2121,5.1516
		C37.2121,24.6531,33.9832,29.197,30,29.197z"/>
	<path d="M61.435,37.826c-0.195-1.1729-1.0873-2.0652-2.2607-2.2607C55.7828,35,50.1301,35,49.0001,35
		c-1.1301,0-6.7828,0-10.1743,0.5654c-1.1735,0.1955-2.0657,1.0878-2.2607,2.2607C36,41.2173,36,46.8696,36,48
		s0,6.7827,0.5651,10.174c0.195,1.1729,1.0873,2.0652,2.2607,2.2607C42.2172,61,47.8699,61,49.0001,61
		c1.1301,0,6.7828,0,10.1742-0.5654c1.1735-0.1955,2.0657-1.0878,2.2607-2.2607C62,54.7827,62,49.1304,62,48
		C62,44.607,62,41.2173,61.435,37.826z M47.7462,42.9442c-0.2281-0.0326-0.4612-0.0501-0.6969-0.0501
		c-2.74,0-4.9761,2.2361-4.9761,4.9736c0,2.74,2.2361,4.9736,4.9761,4.9736c0.2357,0,0.4688-0.0176,0.6969-0.0502v2.0882
		c-0.2281,0.0226-0.4612,0.0352-0.6969,0.0352c-3.8831,0-7.0493-3.1662-7.0493-7.0468s3.1661-7.0468,7.0493-7.0468
		c0.2357,0,0.4688,0.0125,0.6969,0.0351V42.9442z M57.7462,42.9442c-0.2307-0.0326-0.4638-0.0501-0.6994-0.0501
		c-2.3715,0-4.3619,1.6721-4.8558,3.8981h4.0712v2.1534H52.191c0.4939,2.2236,2.4843,3.8957,4.8558,3.8957
		c0.2356,0,0.4713-0.0176,0.6994-0.0502v2.0882c-0.2307,0.0226-0.4638,0.0352-0.6994,0.0352c-3.8832,0-7.0468-3.1662-7.0468-7.0468
		s3.1636-7.0468,7.0468-7.0468c0.2356,0,0.4688,0.0125,0.6994,0.0351V42.9442z"/>
</g>
</svg>
