<?xml version="1.0" encoding="utf-8"?>
<!-- Generator: Adobe Illustrator 18.1.1, SVG Export Plug-In . SVG Version: 6.00 Build 0)  -->
<svg version="1.2" baseProfile="tiny" xmlns="http://www.w3.org/2000/svg" xmlns:xlink="http://www.w3.org/1999/xlink" x="0px"
	 y="0px" width="64px" height="64px" viewBox="0 0 64 64" xml:space="preserve">
<g id="Box">
	<rect fill="none" width="64" height="64"/>
</g>
<g id="Icon">
	<g>
		<path d="M30.7026,16.0838c0.5138-0.1368,0.8218-1.7571,0.8218-1.7571L31.4,14.1251c-0.8575,0.0381-1.6935,0.1539-2.5023,0.3466
			L28.71,15.3685C28.71,15.3685,30.189,16.2207,30.7026,16.0838z"/>
		<path d="M40.834,35.9278l0.5237,1.1531c1.0387-1.0146,1.9075-2.1976,2.575-3.5023l-1.9164,0.2076L40.834,35.9278z"/>
		<path d="M33.5662,14.1942c-0.5607,0.7866-1.355,1.8785-1.651,2.1746c-0.4773,0.4772-1.4491,0.4722-1.4491,0.813
			c0,0.341,0.902,0.4387,1.1016,1.3036c0.1028,0.4457-0.4156,1.8-0.4156,1.8l-1.4043-0.1171l-0.6818,1.7675l0.5237,0.0147
			l-0.1274,0.7926l1.4303,0.0109l1.0907-0.9545l0.4092-1.6363l0.905-0.2045c0,0,1.6235,1.3337,1.4999,1.7044
			c-0.1237,0.3706-1.1395,0.7557-1.1395,0.7557l1.3362,0.3008l0.6409-1.1248c0,0,0.4198,0.1833,0.5454-0.0682
			c0.1364-0.2726-1.5497-1.2455-1.6179-1.8591c-0.0607-0.5462,0.6636-0.5322,0.6636-0.5322l2.3179,0.9545
			c0,0-0.3291,1.8987,0.0406,2.455c0.3696,0.5559,2.2391-0.4774,2.5702,0.1575c0.3308,0.6347-0.865,1.8322-0.865,1.8322
			l0.9266,1.668l1.7297,1.7297l1.7297-0.8649l1.498-1.9973C44.1187,19.3402,39.4158,14.879,33.5662,14.1942z"/>
		<path d="M42.8232,31.0648c0.6818-1.2916,0.8524-3.3609,0.8524-3.3609l-1.7297,1.4756l-1.7297-0.9012l-1.2194-1.7211
			l-0.7573-1.0371l-2.7352-0.5205l-2.0514-1.2012l-3.5831,0.7197c0,0-0.8838,0.1432-1.5634,1.5476c-0.6797,1.4042,0,3.6553,0,3.6553
			s1.0742,0.806,1.8774,0.806c0.803,0,3.0947,0.0195,3.0947,0.0195s0.8835,1.9136,0.8835,2.5751v3.6883
			c0,0.5113,0.6438,2.0552,1.0254,2.4167c0.2727,0.2584,1.4349,0.0303,2.4341-0.4604c0.5593-0.2747,0.4202-1.5103,0.91-2.2125
			c0.2714-0.3889,0.879-0.5996,1.1005-0.9946c0.572-1.0193,0.7405-2.2342,0.7405-2.2342S42.1415,32.3563,42.8232,31.0648z"/>
		<path d="M19.2534,23.3674c0.7742-0.3286,1.6477-0.7912,2.2357-1.3846c1.2797-1.2916,3.1101-3.6775,3.1101-3.6775l1.5543-2.8499
			C22.9041,17.0395,20.3845,19.8881,19.2534,23.3674z"/>
		<path d="M18.7517,29.4415c0.4531,3.1019,1.9666,5.8568,4.1672,7.8909c0-0.8337,0-1.8791,0-2.9885
			C22.9189,32.4913,20.2622,30.4523,18.7517,29.4415z"/>
		<path d="M58.7153,12.2316c-0.4199-2.5862-2.338-4.5539-4.8596-4.9848C46.5652,6,34.4144,6,31.9851,6h-0.0006
			c-2.4293,0-14.5802,0-21.8706,1.2468c-2.5216,0.4309-4.4398,2.3986-4.8596,4.9848c-1.2152,7.4781-1.2152,9.1926-1.2152,16.6743
			c0,7.4818,0,9.1962,1.2152,16.6743c0.4198,2.5862,2.338,4.5539,4.8596,4.9849c1.4703,0.2515,3.1392,0.4517,4.8856,0.6119
			c0,0,3.4978-3.9622,3.7271-4.223c0.3188-0.3629,0.3999-0.1004,0.3999-0.1004v0.0001l-0.0001-0.0001l-3.2579,11.4972
			l-0.0095-0.0046l-0.0521,0.185c-0.0428,0.248,0.0039,0.5068,0.1476,0.7363c0.3104,0.4942,0.96,0.6406,1.453,0.3272l12.2802-7.7911
			l-0.0006-0.0002c1.0397,0.0082,1.8431,0.0085,2.2976,0.0085h0.0006c2.4293,0,14.5801,0,21.8706-1.2467
			c2.5216-0.431,4.4397-2.3986,4.8596-4.9849c1.2151-7.4781,1.2151-9.1925,1.2151-16.6743
			C59.9304,21.4241,59.9304,19.7097,58.7153,12.2316z M32,43.7c-8.947,0-16.2-7.253-16.2-16.2S23.053,11.3,32,11.3
			s16.2,7.253,16.2,16.2S40.947,43.7,32,43.7z"/>
	</g>
</g>
</svg>
