<svg enable-background="new 0 0 64 64" viewBox="0 0 64 64" xmlns="http://www.w3.org/2000/svg"><path d="m17.88 21.77c-.09-.29-.43-.94-1.59-.85-2.56.21-3.89 3.2-3.73 5.25.17 2.06 1.47 1.96 1.9 1.92 2.57-.21 3.21-2.29 3.21-2.31 0-.01.01-.03.02-.04-.1-1.31.04-2.69.24-3.86-.02-.03-.04-.07-.05-.11z"/><path d="m31.04 47.91c0-.82.24-1.61.65-2.33h-14.46l.97-5.56h19.24l7.92-7.1c.82-.75 1.88-1.17 2.99-1.17s2.18.41 2.97 1.14l2.55 2.3v-32.21h-51.86v37.04h14.82c.02.05-.05.24-.34.34l-5 1-3 17.18h6.48l1.61-9.26h14.51c-.03-.19-.05-.39-.05-.59zm10.55-29.76c2.7-.23 4.33 1.55 4.86 2.63.34.69.05 1.52-.64 1.86-.68.33-1.51.06-1.85-.62-.07-.14-.7-1.22-2.15-1.1-2.49.2-3.35 2.64-3.32 4.22.01.67.22 2.84 2.41 2.94 2.51.12 3.29-2.08 3.37-2.33.23-.73 1.01-1.14 1.74-.91s1.14.99.92 1.72c-.45 1.52-2.25 4.3-5.83 4.3-.11 0-.21 0-.32-.01-2.97-.14-5-2.41-5.06-5.67-.06-3.16 1.98-6.71 5.87-7.03zm-26.91 12.71c-.15.01-.29.02-.44.02-2.46 0-4.23-1.75-4.45-4.48-.3-3.71 2.15-7.91 6.27-8.24 1.12-.09 2 .16 2.68.56.32-.54.98-.8 1.61-.61.73.23 1.14 1.01.9 1.74-.64 2.04-1.31 5.84-.36 7.37.22.35.49.53.91.59.5.08 1.1-.16 1.35-.43-.08-.22-.12-.47-.15-.69-.36-2.45.14-5.79 1.08-8.96.01-.07.03-.14.06-.2 1.12-3.71 2.8-7.16 4.31-8.62.41-.39 1.01-.5 1.53-.27s.84.76.82 1.32c-.01.16-.2 3.8-4.11 8.72-.96 3.3-1.44 6.74-.71 8.54.29.72.65.86 1.15.86 2.46 0 3.67-1.91 4.07-2.73.73-1.48.8-3.21.16-4.04-.13-.17-.54-.69-1.84-.43-.76.15-1.48-.34-1.63-1.09s.34-1.48 1.09-1.63c2.61-.52 4 .69 4.59 1.46 1.3 1.69 1.35 4.49.13 6.96-1.32 2.68-3.77 4.28-6.57 4.28-1.06 0-1.97-.35-2.67-1.01-.67.45-1.52.76-2.44.76-.21 0-.43-.02-.64-.05-1.07-.17-1.94-.71-2.57-1.53-.88.87-2.19 1.67-4.13 1.83z"/><path d="m61.64 47.1-12.92-11.66c-.1-.1-.24-.14-.37-.14s-.27.05-.37.14l-13 11.66c-.22.21-.42.5-.42.8v.81c0 .3.39.55.69.55h2.25v11.76h21.56v-11.76h2.39c.3 0 .55-.25.55-.55v-.81c-.01-.3-.13-.59-.36-.8zm-9.44 9.02h-7.84v-5.88h7.84z"/></svg>