<?xml version="1.0" encoding="utf-8"?>
<!-- Generator: Adobe Illustrator 19.1.0, SVG Export Plug-In . SVG Version: 6.00 Build 0)  -->
<svg version="1.2" baseProfile="tiny" xmlns="http://www.w3.org/2000/svg" xmlns:xlink="http://www.w3.org/1999/xlink" x="0px"
	 y="0px" width="64px" height="64px" viewBox="0 0 64 64" xml:space="preserve">
<g id="Box">
	<rect fill="none" width="64" height="64"/>
</g>
<g id="Icon">
	<g>
		<path d="M27.5253,39.3041l15.6908-15.6908c0.8563,0.4081,1.9089,0.2666,2.6179-0.4424l12.709-12.709
			c1.3832-1.3832,0.7571-2.9997-0.6261-4.3829V6.079c-1.3832-1.3832-2.9998-2.0093-4.3829-0.6262l-12.7091,12.709
			c-0.709,0.709-0.8505,1.7617-0.4424,2.6179L24.6917,36.4706L27.5253,39.3041z"/>
		<path d="M17.6078,32.2203c-0.7824-0.7825-1.7619-0.4933-2.5444,0.2891s-1.0716,1.7619-0.2892,2.5444l4.2504,4.2503l-1.4167,1.4167
			l-4.2504-4.2503c-0.7825-0.7824-1.7619-0.4933-2.5444,0.2891c-0.7825,0.7825-1.0716,1.762-0.2891,2.5444l4.2504,4.2503
			l-1.4168,1.4168l-4.2504-4.2503c-0.7824-0.7825-1.762-0.4933-2.5444,0.2892H6.5627c-0.7824,0.7825-1.0716,1.7614-0.2891,2.5438
			L9.7202,47H5.5513c-1.1066,0-1.7145,0.8934-1.7145,2s0.6079,2,1.7145,2h4.6027l-3.8804,3.8846
			c-0.7825,0.7825-0.4933,1.764,0.2891,2.5465l0.0001,0.001c0.7824,0.7824,1.7682,1.0721,2.5507,0.2897L13,53.8419v4.9332
			c0,1.1066,0.8935,1.7145,2,1.7145c1.1066,0,2-0.6079,2-1.7145v-4.4994l3.444,3.4467c0.7825,0.7824,1.7607,0.4932,2.5432-0.2892
			c0.7825-0.7825,1.071-1.762,0.2885-2.5444l-4.2507-4.2504l1.4167-1.4168l4.2502,4.2504c0.7825,0.7825,1.762,0.4933,2.5444-0.2891
			c0.7824-0.7824,1.0715-1.7619,0.2891-2.5444L23.275,46.388l1.4167-1.4167l4.2504,4.2504
			c0.7825,0.7825,1.7619,0.4933,2.5444-0.2891c0.7825-0.7825,1.0717-1.762,0.2892-2.5444L17.6078,32.2203z"/>
		<path d="M50.2147,27.6157c-0.2841-0.3882-0.7368-0.6172-1.218-0.6158l-5.3231,0.0152c-0.2165,0.0007-0.4203,0.071-0.587,0.1924
			c-0.1655,0.123-0.2933,0.2966-0.3584,0.5031l-1.5998,5.077c-0.1446,0.4589-0.0609,0.9593,0.2252,1.3461l8.5604,11.6379
			c0.3292,0.4451,0.9864,0.5175,1.4315,0.1884l7.1831-5.2836c0.4468-0.3269,0.5734-0.9758,0.2464-1.4227L50.2147,27.6157z
			 M46.8954,32.2156c-0.6778,0.4894-1.6211,0.3492-2.1156-0.3193c-0.496-0.6707-0.3517-1.618,0.3203-2.1215
			c0.6807-0.4915,1.6279-0.3471,2.1205,0.3261C47.7115,30.7721,47.5645,31.7144,46.8954,32.2156z"/>
	</g>
</g>
</svg>
