<svg xmlns="http://www.w3.org/2000/svg" viewBox="0 0 64 64"><defs><style>.cls-1{fill:none;}</style></defs><g id="BOX"><rect class="cls-1" width="64" height="64"/></g><g id="ICOON"><path d="M16.17,40.88a18.37,18.37,0,0,0-5.44,0,4.89,4.89,0,0,0-3.86,4.71H20A4.89,4.89,0,0,0,16.17,40.88Z"/><path d="M27.79,28.06a3.05,3.05,0,0,0-3.05-2.87,9.58,9.58,0,0,1-6-1.86C16,21.56,14.49,17.85,11.57,17a4.34,4.34,0,0,0-5.63,4.49c0,4.19.33,10.3.66,13.75.21,2.24,2.17,4.05,5.29,4.11,2.26,0,9.79,0,9.79,0s1.89,7.5,2.85,11.58,4.14,4,5,3.84c0,0-1.56-15.29-2-17.52S27,33.29,24.17,33a62.71,62.71,0,0,0-7.71-.2c-.26-2.5-.6-5.36-.87-7.56a10.88,10.88,0,0,0,2.34,1.65,12.57,12.57,0,0,0,4.61,1.17h5.25Z"/><path d="M49.74,44.07a1.56,1.56,0,1,0,1.59,1.56A1.58,1.58,0,0,0,49.74,44.07Z"/><path d="M41.57,44.07a1.56,1.56,0,1,0,1.59,1.56A1.58,1.58,0,0,0,41.57,44.07Z"/><path d="M58.47,29.08H44l5-9.9a1,1,0,0,0-.44-1.34l-1-.48a1,1,0,0,0-1.35.44L42.07,26H31.32a1,1,0,0,0-1,1v1.05a1,1,0,0,0,1,1H22.12v2.07a1,1,0,0,0,1,1h7.72V58.67a2,2,0,0,0,2,2H58.47a2,2,0,0,0,2-2V31.08A2,2,0,0,0,58.47,29.08ZM46.69,55V51.37H44.44V55a9.45,9.45,0,0,1,0-18.8v3.08h2.43V36.17A9.46,9.46,0,0,1,46.69,55Z"/><path d="M10.94,15.12c2.56.42,4.33-1.16,4.73-3.8.46-3-.84-4.88-3.34-5.29S8,7.26,7.57,10,8.37,14.7,10.94,15.12Z"/></g></svg>