<?xml version="1.0" encoding="utf-8"?>
<!-- Generator: Adobe Illustrator 18.1.0, SVG Export Plug-In . SVG Version: 6.00 Build 0)  -->
<svg version="1.2" baseProfile="tiny" xmlns="http://www.w3.org/2000/svg" xmlns:xlink="http://www.w3.org/1999/xlink" x="0px"
	 y="0px" width="64px" height="64px" viewBox="0 0 64 64" xml:space="preserve">
<g id="Box">
	<rect fill="none" width="64" height="64"/>
</g>
<g id="Icon">
	<g>
		<path d="M12.0002,61h6l1.0225-5.1126c-1.9041-0.3669-3.5695-0.8895-5.0284-1.5344L12.0002,61z"/>
		<path d="M45.3807,31.9114l0.6146-15.7836c0.043-1.104-0.1885-2.1899-0.6767-3.1552c-1.4688-2.8998-4.7462-9.1636-5.9922-9.8658
			C37.7463,2.2173,31.1359,2,26.0002,2C20.8635,2,14.2541,2.2173,12.674,3.1069c-1.2469,0.7022-4.5234,6.9659-5.9922,9.8658
			c-0.4882,0.9653-0.7197,2.0512-0.6767,3.1552L6.9006,39.125C7.4084,52.1899,18.592,54,26.0002,54
			c0.641,0,1.3116-0.0149,1.9998-0.0481c0-4.3137,0-6.6239,0-11.2853C28,36.5856,35.309,31.9,45.0012,31.9
			C45.1298,31.9,45.253,31.9098,45.3807,31.9114z M26.0002,6.85c1.7401,0,3.15,1.4104,3.15,3.15c0,1.7395-1.4099,3.15-3.15,3.15
			s-3.15-1.4105-3.15-3.15C22.8502,8.2604,24.2601,6.85,26.0002,6.85z M17.0002,43.15c-1.7401,0-3.15-1.4105-3.15-3.15
			c0-1.7396,1.4099-3.15,3.15-3.15s3.15,1.4104,3.15,3.15C20.1501,41.7395,18.7403,43.15,17.0002,43.15z M40.6017,17.2939
			l-3.3848,11C37.0881,28.7139,36.7004,29,36.2619,29H15.7385c-0.4385,0-0.8262-0.2861-0.9551-0.7061l-3.3848-11
			C11.2004,16.6509,11.6818,16,12.3537,16h27.293C40.3186,16,40.8,16.6509,40.6017,17.2939z"/>
		<path d="M45.0012,54C52.8511,54,59,50.6253,59,46.3214c0-0.6324,0-3.0202,0-3.6548C59,38.3673,52.8511,35,45.0012,35
			C37.1492,35,31,38.3673,31,42.6666c0,0.6346,0,3.0224,0,3.6548c0,0.9494,0.3142,1.8492,0.865,2.6819
			C31.312,49.8288,31,50.7224,31,51.6666v3.6548C31,59.6253,37.1492,63,45.0012,63C52.8511,63,59,59.6253,59,55.3214v-3.6548
			c0-0.2049-0.0266-0.4056-0.0542-0.606c-0.7144,0.8958-4.5718,5.1376-13.6127,5.1376c-8.0173,0-10.7806-3.8577-11.0667-4.3807
			c-0.117-0.2137-0.2019-0.4362-0.0766-0.5667C36.738,52.9397,40.6016,54,45.0012,54z M33.7012,43c0-2.8444,5.06-5.15,11.302-5.15
			c6.2419,0,11.302,2.3056,11.302,5.15c0,2.8443-5.0601,5.15-11.302,5.15C38.7612,48.15,33.7012,45.8443,33.7012,43z"/>
		<path d="M42.8542,44.7261v0.6765h1.5551v-0.5565c0.3053,0.0191,0.6703,0.0191,1.016,0.0191h0.384v0.5374h1.5169v-0.6165
			c2.7834-0.2999,4.1093-1.2644,4.1093-2.6701c0-0.547-0.0571-0.7846-0.3076-1.3435H49.072
			c0.2123,0.5182,0.2886,0.7773,0.2886,1.2546c0,0.6166-0.5938,1.1155-2.0344,1.334v-1.7634h-1.5169v1.8928
			c-0.1906,0.0096-0.384,0.0194-0.6128,0.0194c-0.2696,0-0.52-0.0098-0.7872-0.0194v-1.8928h-1.5551v1.7539
			c-1.4023-0.209-2.1322-0.6575-2.1322-1.3748c0-0.4078,0.0764-0.6454,0.248-1.1539h-2.168
			c-0.1739,0.427-0.2312,0.7269-0.2312,1.1227C38.5708,43.3611,40.0112,44.3662,42.8542,44.7261z"/>
	</g>
</g>
</svg>
