<?xml version="1.0" encoding="utf-8"?>
<!-- Generator: Adobe Illustrator 19.2.0, SVG Export Plug-In . SVG Version: 6.00 Build 0)  -->
<svg version="1.0" xmlns="http://www.w3.org/2000/svg" xmlns:xlink="http://www.w3.org/1999/xlink" x="0px" y="0px"
	 viewBox="0 0 64 64" enable-background="new 0 0 64 64" xml:space="preserve">
<g id="achtergrond">
</g>
<g id="paneel_1">
	<g>
		<path d="M26.4235,28.9514c-0.4417-0.6827-1.3534-0.8781-2.0368-0.436c-0.6834,0.4421-0.8788,1.3538-0.437,2.0366l0.5889,0.9102
			l2.4706-1.6056L26.4235,28.9514z"/>
		<path d="M29.5307,26.941c-0.4417-0.6827-1.3536-0.878-2.037-0.4359c-0.6827,0.4417-0.8781,1.3534-0.4364,2.0362l0.585,0.9041
			l2.47-1.6055L29.5307,26.941z"/>
		<path d="M32.6375,24.9309c-0.4417-0.6827-1.3534-0.8781-2.0362-0.4364c-0.6825,0.4416-0.8779,1.3533-0.4362,2.036l0.5805,0.8972
			l2.4688-1.6051L32.6375,24.9309z"/>
		<path d="M48.0168,12.342c-0.8436-0.5384-1.3944-0.5065-1.5436,0.1622c-0.3354,1.4978-1.4523,4.6439-2.9081,6.8704
			c3.4433,4.8479,2.0061,5.0234,2.0061,5.0234c-1.0663-1.6481-2.2666-3.0746-2.9207-3.8139
			c-0.3167,0.3526-0.6433,0.6475-0.9765,0.8631L13.9462,39.3877c0.1149,0.4173,0.3287,0.8944,0.6356,1.3687
			c0.3051,0.4716,0.6498,0.8622,0.9833,1.1366l3.8533-2.4931c-0.1145,1.5785,0.2641,3.2018,1.1924,4.6252
			c2.2672,3.4693,6.9602,4.4562,10.4298,2.1892l12.6497-8.1853c3.471-2.2659,4.4577-6.9588,2.1918-10.4289
			c-0.3818-0.5842-1.3343-1.5352-1.3343-1.5352c3.4781-2.2503,8.0963-1.196,10.2049-0.7641
			c0.6708,0.1375,0.9254-0.3523,0.7807-1.3414c-0.0763-0.5268-0.9617-3.157-2.9964-6.3019
			C50.5015,14.5116,48.4655,12.6267,48.0168,12.342z M31.5598,42.314l-2.1897,1.425c-2.1028,1.3706-4.9142,0.7406-6.2565-1.3147
			c-1.3571-2.0783-0.765-4.8991,1.3135-6.2563l2.2213-1.4449L31.5598,42.314z M34.6623,40.2954l-0.633,0.4113l-4.9075-7.585
			l0.6338-0.4101L34.6623,40.2954z M37.775,38.2922l-0.6328,0.413l-4.9132-7.5938l0.6344-0.4105L37.775,38.2922z M42.0436,35.504
			l-1.8035,1.1772l-4.9043-7.58l2.168-1.4027c2.0467-1.052,4.5959-0.3764,5.8542,1.5491
			C44.7146,31.3266,44.1226,34.1476,42.0436,35.504z"/>
		<path d="M13.0987,39.9378c-0.2672,0.0866-2.4292,0.8597-3.4752,0.6456c-0.3321-0.0678-0.7635,0.9109,0.5908,3.0041
			c1.3542,2.0931,2.4238,2.1007,2.4981,1.7701c0.2334-1.0418,1.8246-2.6971,2.0131-2.9053c0,0-0.0008-0.0013-0.0021-0.0019
			c-0.3337-0.2761-0.6813-0.6662-0.9883-1.1407c-0.307-0.4745-0.5204-0.9515-0.6355-1.369
			C13.0996,39.9391,13.0987,39.9378,13.0987,39.9378z"/>
	</g>
</g>
</svg>
