<?xml version="1.0" encoding="utf-8"?>
<!-- Generator: Adobe Illustrator 22.1.0, SVG Export Plug-In . SVG Version: 6.00 Build 0)  -->
<!DOCTYPE svg PUBLIC "-//W3C//DTD SVG 1.1//EN" "http://www.w3.org/Graphics/SVG/1.1/DTD/svg11.dtd">
<svg version="1.1" xmlns="http://www.w3.org/2000/svg" xmlns:xlink="http://www.w3.org/1999/xlink" x="0px" y="0px" width="64px"
	 height="64px" viewBox="0 0 64 64" style="enable-background:new 0 0 64 64;" xml:space="preserve">
<style type="text/css">
	.st0{fill:none;}
	.st1{fill:#FFFFFF;}
</style>
<g id="Box">
	<rect class="st0" width="64" height="64"/>
</g>
<g id="Icon">
	<g>
		<path d="M39.1,54.5c-1.8-1.6-2.7-4.1-2-6.6c0.7-2.4,2.7-4.2,5-4.7c0.5-2.4,2.3-4.4,4.8-5.1c0.6-0.2,1.2-0.2,1.9-0.2
			c-1.3-1.2-4.2-2.8-5.5-2.9c-1.1-0.1-3.3,0.4-4.5,0.7c0-0.1,0-0.3-0.1-0.4c1.8-2.2,2.9-4.4,3.2-6.7c1.3-1.2,2.1-3.2,2.1-5.6
			c0-0.7,0-2.7-1.2-4c1.1-0.2,2-0.5,2.6-0.6c0.4-0.1,0.5-0.6,0.2-0.8l-2.3-2.1c0,0-1.2,0.4-3.8,0.4c-2.8,0-4.9-0.3-5.7-0.6
			c-0.3-0.1-0.2-0.2-0.2-0.2c0.5-0.1,12.6,0.1,12.5-3.5c0-1.7-7.2-7.1-13-8.4c0,0,0,0,0,0c0-0.8-1-1.4-2.1-1.4c-1.1,0-2,0.6-2.1,1.3
			c-5.9,0.7-13.7,4.7-13.7,7.3c0,1.2,1.3,2.6,1.3,2.6l-2.3,1.6c-0.3,0.2-0.3,0.6,0,0.8c0.6,0.3,1.6,0.9,2.9,1.4
			c0,0.8,0.1,1.6,0.1,2.3C16,20.4,16,22.3,16,23c0,2.4,0.7,4.3,2.1,5.5c0.4,2.5,1.6,4.9,3.7,7.3c0,0,0,0.1,0,0.1
			c-1.3-0.4-3.5-1.1-5.1-1c-1.7,0.1-5,1.4-5.1,2.3c-0.1,0.8,2.1,1.4,4.9,2.9c-2.8,1-5.7,2.4-7.1,3.9C6.5,47.2,5,59,5,59h34.2
			C38.6,57.6,38.6,56,39.1,54.5z M29.1,52.6c-4.5-3.2-6-10.4-6-10.4c1.3-2.2,1.5-4.7,2-7.3c-2.3-2.2-4.1-4.9-4.1-8.1
			c-1.6-0.5-2-2.5-2-3.8c0-1.3,0.3-2,0.8-2.2c0.4-0.2,0.8,0,1,0.1c0.1,0.7,0.2,1.1,0.3,1.3c0.2,0.9,1,0.8,1,0.8v-4.7
			c4.9,1.2,10.7,1.7,16,1.3V23c0,0,0.8,0.1,1-0.8c0-0.2,0.1-0.7,0.3-1.3c0.2-0.1,0.6-0.3,1-0.1c0.5,0.2,0.8,0.9,0.8,2.2
			c0,1.3-0.4,3.3-2,3.8c0,3.7-2.5,6.5-5.3,8.9c-1.2,1-4,1.6-6.6,0.5c0.6,0.9,1.7,2.1,3.6,2.6c3.2,0.8,5.5-0.9,5.5-0.9
			c0.2,1.2,0.3,2.6,1,4.2c-2.3,2-7.3,2.9-11.5,1.5c0.6,3.4,2.3,6.8,4.3,9.4C30,53.1,29.5,52.8,29.1,52.6z"/>
		<path d="M59,49.2c1.5-1.7,1.4-4.3-0.2-6s-4.2-1.7-6-0.2c-0.8-2.1-3-3.4-5.3-2.8c-2.2,0.6-3.6,2.8-3.2,5.1
			c-2.2-0.4-4.5,0.9-5.1,3.2c-0.6,2.2,0.6,4.5,2.8,5.3c-1.5,1.7-1.4,4.3,0.2,6c1.6,1.6,4.2,1.7,6,0.2c0.8,2.1,3,3.4,5.3,2.8
			c2.2-0.6,3.6-2.8,3.2-5.1c2.2,0.4,4.5-0.9,5.1-3.2C62.3,52.2,61.1,50,59,49.2z M51.6,55.7c-2.4,0.6-4.8-0.8-5.4-3.1
			c-0.6-2.4,0.8-4.8,3.1-5.4c2.4-0.6,4.8,0.8,5.4,3.1C55.4,52.7,54,55.1,51.6,55.7z"/>
	</g>
</g>
</svg>
