<?xml version="1.0" encoding="utf-8"?>
<!-- Generator: Adobe Illustrator 22.1.0, SVG Export Plug-In . SVG Version: 6.00 Build 0)  -->
<!DOCTYPE svg PUBLIC "-//W3C//DTD SVG 1.1//EN" "http://www.w3.org/Graphics/SVG/1.1/DTD/svg11.dtd">
<svg version="1.1" xmlns="http://www.w3.org/2000/svg" xmlns:xlink="http://www.w3.org/1999/xlink" x="0px" y="0px" width="64px"
	 height="64px" viewBox="0 0 64 64" style="enable-background:new 0 0 64 64;" xml:space="preserve">
<style type="text/css">
	.st0{fill:none;}
	.st1{fill:#FFFFFF;}
</style>
<g id="_x36_4px_Box">
	<rect class="st0" width="64" height="64"/>
</g>
<g id="Icon">
	<g>
		<path d="M58.5,25.5c-1.6-0.5-4.2-1.4-7.3-2.9c-2.9-1.4-4.8-2.5-6-3.1c-0.8-0.5-1.9-0.3-2.5,0.4c-0.6,0.7-1.5,1.5-2.6,2.3
			c0.2,0.6,0.5,1.3,0.7,2.1c1.6,4.7,2.2,10.4,1.9,16.1c-0.1,1.8-1.3,3.3-3,3.8c-1.4,0.4-4.2,1.2-6.6,2.2c-2,0.8-4.2,1.9-5.7,2.8
			c0.7,0.4,1.3,0.9,1.9,1.3c3,2.3,5.4,4.9,6.5,6.2c0.4,0.5,1.1,0.8,1.7,0.7c1.7-0.2,5.1-0.5,8-0.3c2.6,0.2,5.5,0.6,7.1,0.8
			c0.8,0.1,1.7-0.3,2.1-1c3.3-6.2,4.7-12.8,5.1-17.7c0.4-5.2-0.6-6.6,0.1-11.5C60,26.7,59.4,25.8,58.5,25.5z M50.5,51.5
			c-1.5-0.2-3.1-0.4-4.6-0.5c-1.9-0.1-3.9-0.1-5.7,0c1.9-1.7,4.4-4.3,7.3-8.1c3-3.9,5-7.4,6.3-10c0,0.4,0,0.8,0.1,1.3
			C54.1,36.9,53.6,44.3,50.5,51.5z"/>
		<path d="M39.1,42c0.8-0.2,1.4-0.9,1.4-1.8c0.3-5.6-0.4-11.1-1.8-15.3c-2.2-6.6-4.1-8.2-5.6-13.4c-0.3-0.9-1.2-1.5-2.2-1.4
			c-1.6,0.2-4.3,0.5-7.9,0.4c-3.2-0.1-5.4-0.2-6.7-0.3c-1-0.1-1.8,0.5-2.1,1.4c-0.4,1.3-1.1,3.1-2.5,4.7c-0.4,0.4-0.7,0.9-1,1.3
			l-1.5-0.9L9.6,16c0.3-0.5,0.1-1.1-0.3-1.4l-1.7-1.1c-0.4-0.2-0.8-0.2-1.2,0.1c-0.5,0.4-1.2,1.1-1.7,2c-0.5,0.9-0.9,1.9-1,2.5
			c-0.1,0.4,0.1,0.9,0.4,1.1l1.7,1c0.5,0.3,1.1,0.1,1.4-0.3l0.4-0.7l6,3.7c0,0.1-0.1,0.2-0.4,0.2C12.7,23.2,8,21.9,8,21.9
			c-0.6,1.1-1.1,2.2-1.5,3.3C4,32.1,4,39.1,4.2,42.4c0.1,1.1,1,1.9,2.1,1.9c2-0.1,5.3,0,8.6,0.7c3.7,0.8,6.9,2.2,8.5,2.9
			c0.6,0.3,1.3,0.2,1.9-0.1c1.5-0.9,4.5-2.6,7.2-3.6C34.7,43.3,37.5,42.5,39.1,42z M25,41c1-2.3,2.2-5.7,3.2-10.4
			c1-4.7,1.4-8.6,1.5-11.4c0.2,0.4,0.4,0.8,0.6,1.2c0.9,1.8,1.8,3.6,2.8,6.5c1,2.9,1.5,6.5,1.6,10.3c-1.4,0.4-2.9,1-4.4,1.5
			C28.4,39.3,26.5,40.2,25,41z"/>
	</g>
</g>
</svg>
