<?xml version="1.0" encoding="utf-8"?>
<!-- Generator: Adobe Illustrator 18.1.1, SVG Export Plug-In . SVG Version: 6.00 Build 0)  -->
<svg version="1.2" baseProfile="tiny" xmlns="http://www.w3.org/2000/svg" xmlns:xlink="http://www.w3.org/1999/xlink" x="0px"
	 y="0px" width="64px" height="64px" viewBox="0 0 64 64" xml:space="preserve">
<g id="Box">
	<rect fill="none" width="64" height="64"/>
</g>
<g id="Icon">
	<g>
		<path d="M18.6175,36.2836c-1.0082,0.8695-2.3621,1.0535-3.5286,0.6235c-4.7055,4.4511-5.0057,8.996-5.0141,15.0929H62
			c0,0-0.164-8.25-2.0349-15.0344c-1.2999-4.7137-4.0588-8.6359-8.1453-11.5249C48.7768,18.1796,40.8278,13,31.5,13
			s-17.2768,5.1796-20.3198,12.4407c-4.0865,2.8891-6.8453,6.8112-8.1453,11.5249C1.164,43.75,1,52,1,52h5.79
			c0.0079-6.4366,0.6627-11.9656,6.1896-17.2261c-0.4672-1.3311-0.1135-2.8682,1.0193-3.8452l1.3801-1.1902
			c1.4778-1.2747,3.7092-1.1099,4.9839,0.3679l0.0026,0.0031c1.2747,1.4778,1.1099,3.7092-0.368,4.9839L18.6175,36.2836z
			 M28.6456,28.8209c-0.0165-0.3179-0.0584-0.8929-0.1591-1.2249c-0.1423-0.4695-1.2949-1.0514-1.2599-1.9432
			C27.2571,24.8799,28.5969,23.9868,31,23.89V23h-1v-1h1v-1h1v1h1v1h-1v0.89c2.403,0.0969,3.7429,0.9899,3.7733,1.7628
			c0.035,0.8918-1.1176,1.4736-1.2599,1.9432c-0.1006,0.332-0.1426,0.907-0.1591,1.2249C36.5113,30.1227,38.2,32.8439,38.2,36
			c0,3.9315-2.5062,7.1936-5.5432,7.8662c-0.186,0.837-0.6331,1.4285-1.1568,1.4285s-0.9708-0.5914-1.1568-1.4285
			C27.3062,43.1936,24.8,39.9315,24.8,36C24.8,32.8439,26.4887,30.1227,28.6456,28.8209z"/>
		<path d="M27.4898,34.5406l0.6789,0.7388c-0.063,0.1662-0.1141,0.2697-0.0596,0.4468l0.0618,0.2007
			c0.0492,0.16,0.1838,0.2619,0.3173,0.3907l-0.0493,0.7358l1.4102-0.4562l-0.3426-0.4993l0.2803-0.3924l0.8544-0.1891l0.929,0.8129
			v0.3887l-0.8289,0.3524l-0.6665,1.2014c-0.0811,0.1462-0.0817,0.3238-0.0014,0.4705l0.1691,0.309l-0.3522,0.5135l-0.3081-0.0146
			l-0.0296-0.5499H29.03l-0.3339,0.6677l0.6827,0.4209v0.2758h0.8705l1.0015-1.0161l-0.3048-0.7693l0.6696-0.363
			c0.1127,0.3267,0.4763,1.1178,1.3771,1.1178c0.46,0,0.6301,0.1349,0.6699,0.2952c0.0582,0.2342-0.1618,0.5225-0.1618,0.5225
			h-0.3531l-0.1027,0.6016h1.1152l0.3713-0.9113c0,0-0.0999-1.2037-0.6241-1.2919c-0.4854-0.0815-0.6823-0.1306-0.6823-0.1306
			l-0.2322-0.6677c0,0,0.2163-0.4013,0.1494-0.933c0.13-0.0247,0.2138,0.0547,0.5151,0.5405l0.1636,0.2598
			c0.3628,0.5654,0.6841,0.8555,1.0112,0.9131c0.1748,0.0341,0.37-0.0063,0.5513-0.1445c0.1606-0.1221,0.2563-0.29,0.2778-0.4844
			c0.0337-0.3086-0.1245-0.6719-0.4702-1.0801c-0.1216-0.1436-0.229-0.2607-0.3218-0.3594l0.3872-0.749l-0.5898-0.6689
			l-0.1855,0.2363c-0.5801,0.7402-0.5205,0.9424-0.0122,1.4854c0.0952,0.1016,0.21,0.2236,0.3403,0.3779
			c0.3452,0.4082,0.3633,0.6279,0.355,0.7041c-0.0129,0.1172-0.1439,0.2085-0.2456,0.1904
			c-0.0981-0.0176-0.3174-0.1299-0.6768-0.6904l-0.1602-0.2549c-0.3107-0.4995-0.5594-0.892-1.0882-0.7545
			c-0.0836-0.1821-0.196-0.368-0.3776-0.5524l0.0951-0.6656l0.5023-0.4412c0.1262-0.1108,0.1865-0.2788,0.1594-0.4446
			l-0.1521-0.9338l0.1419-0.1252c0.1228-0.1084,0.1809-0.2725,0.1535-0.434l-0.1556-0.9183l0.6364-0.35l-0.7673-0.0829
			l0.0311-0.6054l-0.5717,0.2307l-0.434-0.6621l-0.0607,0.7726c0,0-0.5983,0.2362-0.7066,0.4094
			c-0.1037,0.1659,0.0757,0.6617,0.0757,0.6617s-0.0881,0-0.4591,0c-0.3711,0-0.568-0.1321-0.568-0.1321
			s0.1614,0.4238,0.4548,0.4238s0.4725,0,0.4725,0l-0.6339,0.75l-1.1289-0.5714l0.1731-0.1499l-0.3007-0.3474l1.8788-1.6309
			l0.0631-0.4158l-0.4215,0.0018l-1.8788,1.6308l-0.2931-0.3386l-0.2764,0.2393l0.2934,0.339l-0.9736,0.8451l0.3584,0.4141
			l0.5578-0.4841l1.4348,1.2018l0.0293,0.6163l-0.7388,0.509l-0.3794-0.1614l0.0799-0.9967L27.4898,34.5406z"/>
	</g>
</g>
</svg>
