<?xml version="1.0" encoding="utf-8"?>
<!-- Generator: Adobe Illustrator 17.1.0, SVG Export Plug-In . SVG Version: 6.00 Build 0)  -->
<svg version="1.2" baseProfile="tiny" xmlns="http://www.w3.org/2000/svg" xmlns:xlink="http://www.w3.org/1999/xlink" x="0px"
	 y="0px" width="64px" height="64px" viewBox="0 0 64 64" xml:space="preserve">
<g id="Box">
	<rect fill="none" width="64" height="64"/>
</g>
<g id="Icon">
	<g>
		<circle cx="39" cy="24" r="2"/>
		<circle cx="25" cy="24" r="2"/>
		<path d="M48.3907,29.333c1.0377-3.928,0.9542-8.9085-1.9178-14.0609c-1.301,0.7435-2.6448,1.2592-4.3323,1.7123
			c-0.5673,0.1523-0.8019-0.0001-0.8342-0.1396c5.9158-3.7806,7.8544-10.0571,8.4477-12.9392
			c0.0981-0.4766-0.4653-0.7951-0.8237-0.4659c-3.6204,3.3254-8.1031,4.9265-9.3051,5.315
			C34.9058,6.4679,29.0922,6.4628,24.3698,8.753c-1.2087-0.391-5.6843-1.9921-9.3002-5.3134
			c-0.3584-0.3292-0.9218-0.0107-0.8237,0.4659c0.5933,2.8821,2.5319,9.1586,8.4477,12.9392
			c-0.0328,0.1351-0.264,0.2712-0.8342,0.1396c-1.625-0.375-3.2031-1.0469-4.3322-1.7122
			c-2.872,5.1523-2.9554,10.1327-1.9178,14.0608C13.2722,31.3284,11.1507,34.8808,12.6,41
			c1.2937,5.4621,6.3536,9.8977,11.3245,12.4671c-1.1833,0.8016-2.3143,1.9504-3.0014,3.4278
			c-1.4573,3.1332,0.6154,3.5385,1.6154,2.7692c0.6097-0.469,2.3846-2.7692,3.9231-3.1539
			c1.5385-0.3846,1.4615,1.7692,2.8461,2.1539c1.1184,0.3106,1.7841-1.3358,1.6749-2.8317
			c0.3571,0.0399,0.6987,0.0625,1.0175,0.0625s0.6603-0.0226,1.0175-0.0625c-0.1093,1.496,0.5565,3.1423,1.6749,2.8317
			c1.3846-0.3846,1.3077-2.5385,2.8461-2.1539c1.5385,0.3846,3.3134,2.6849,3.9231,3.1539c1,0.7692,3.0727,0.364,1.6154-2.7692
			c-0.6871-1.4774-1.8181-2.6262-3.0014-3.4278C45.0464,50.8977,50.1063,46.4621,51.4,41
			C52.8492,34.8809,50.7279,31.3284,48.3907,29.333z M25,29.15c-2.8442,0-5.15-2.3057-5.15-5.15c0-2.8443,2.3058-5.15,5.15-5.15
			s5.15,2.3057,5.15,5.15C30.15,26.8442,27.8442,29.15,25,29.15z M32.3828,34.5671c-0.089,0.118-0.248,0.1755-0.3828,0.1786
			c-0.1348-0.0031-0.2938-0.0605-0.3828-0.1786c-1.4638-1.9419-2.7072-1.9327-2.7072-3.5598c0-1.4247,1.3543-2.0922,3.0901-2.0922
			c1.7357,0,3.09,0.6675,3.09,2.0922C35.09,32.6345,33.8466,32.6252,32.3828,34.5671z M39,29.15c-2.8442,0-5.15-2.3057-5.15-5.15
			c0-2.8443,2.3058-5.15,5.15-5.15s5.15,2.3057,5.15,5.15C44.15,26.8442,41.8442,29.15,39,29.15z"/>
	</g>
</g>
</svg>
