<svg xmlns="http://www.w3.org/2000/svg" width="48" height="48" fill="rgb(0%,0%,0%)" xmlns:v="https://vecta.io/nano"><path d="M14.363 22.828l6.02-3.434v11.055C20.383 32.414 22.082 33 24 33s3.617-.586 3.617-2.551V14.688s.188-.109.281.234l1.453 5.461 4.285 2.445a2.45 2.45 0 0 0 3.141-3.648L25.926 5.434C25.461 4.844 24.75 4.5 24 4.5s-1.461.344-1.926.934L11.223 19.18a2.45 2.45 0 0 0 3.141 3.648zM35.25 33.75v3.75h-22.5v-3.75h-6v7.5A2.25 2.25 0 0 0 9 43.5h30a2.25 2.25 0 0 0 2.25-2.25v-7.5zm0 0"/></svg>