<svg enable-background="new 0 0 64 64" viewBox="0 0 64 64" xmlns="http://www.w3.org/2000/svg"><path d="m0 0h64v64h-64z" fill="none"/><path d="m7 40v-20h24c-.1-1.6-.1-2.9 0-4h-26.5c-.8 0-1.5.7-1.5 1.5v26c0 .8.7 1.5 1.5 1.5h12s-.8 3.1-1 3.6c-.4 1.3-1.7 1.4-2.1 1.4h-1.4c-.6 0-1 .4-1 1v1h9.5c.3-3.4 1.2-9.1 3-12z"/><path d="m58.8 40.5c-1.8-1.9-7.1-3.5-9.6-4.2-.7-.2-1.1-.7-1.3-1.4-.1-.6-.2-1.3-.2-1.3 1.6-1.7 2.7-3.9 3.1-6.6 1.5-.5 1.8-2.3 1.8-3.5s-.2-1.8-.6-2c-.2-.1-.4-.1-.6-.1.2-2.4.3-7.2-.7-9-1.1-2-2.6-2.5-5.1-1.8-1.7-.9-2.8-1.8-5.8-1-2 .6-4.3 1.5-5.5 3-1.3 1.6-1 6.4-.8 8.9-.2-.1-.4-.1-.6 0-.4.2-.6.8-.6 2s.3 3 1.8 3.5c.4 2.9 1.5 5 3.1 6.7 0 .1-.1.7-.2 1.2s-.4 1.1-.9 1.3c-2.6.8-8.1 2.5-9.9 4.4-2.3 2.3-3.2 11.4-3.2 11.4h38.9s-.8-9.1-3.1-11.5z"/><path d="m10 36h5.1c.4 1.2 1.5 2 2.8 2s2.4-.8 2.8-2h10.3v-2h-10.3c-.4-1.2-1.5-2-2.8-2s-2.4.8-2.8 2h-5.1zm7.9-2.5c.8 0 1.5.7 1.5 1.5s-.7 1.5-1.5 1.5-1.5-.7-1.5-1.5.7-1.5 1.5-1.5z"/><path d="m10 26c0 2.2 1.8 4 4 4 1.7 0 3.2-1.1 3.7-2.6l-3.7-1.4v-4c-2.2 0-4 1.8-4 4z"/><path d="m19 25c0-2.2-1.8-4-4-4v4l3.7 1.4c.2-.4.3-.9.3-1.4z"/><path d="m22 25h2v5h-2z"/><path d="m28 26h2v4h-2z"/><path d="m25 23h2v7h-2z"/></svg>