<?xml version="1.0" encoding="utf-8"?>
<!-- Generator: Adobe Illustrator 19.1.0, SVG Export Plug-In . SVG Version: 6.00 Build 0)  -->
<svg version="1.2" baseProfile="tiny" xmlns="http://www.w3.org/2000/svg" xmlns:xlink="http://www.w3.org/1999/xlink" x="0px"
	 y="0px" width="64px" height="64px" viewBox="0 0 64 64" xml:space="preserve">
<g id="Box">
	<rect fill="none" width="64" height="64"/>
</g>
<g id="Icon">
	<g>
		<path d="M37,46.6398V52h4.387l0.626-2.3952l-1.1043-3.6047C39.4679,46.2825,38.3013,46.4907,37,46.6398z"/>
		<path d="M20.8337,52H25v-5.7903c-2.0496-0.4135-3.8374-0.9944-5.9113-1.6968L20.8337,52z"/>
		<path d="M61,33.9239c0,0-5.736-3.4541-8.8393-9.0137l3.6978-5.2596c0,0-6.0736-2.048-9.5905,1.7995L40.3796,19.35
			c-9.9417-3.5855-25.1688-2.1139-29.4344,4.6439c-0.1178-0.022-0.3072-0.1029-0.3188-0.43
			c-0.0295-0.8252,0.6779-2.4167,1.5031-3.7136c-1.0021-1.5915-4.4022-1.8149-5.6588,0.059
			c-0.8918,1.3299-0.8043,3.1641,0.0049,4.7797c-1.4022,0.7495-3.0245,0.6725-3.9562,0.5333
			c-0.3648-0.0545-0.6573,0.3007-0.5125,0.64c0.3864,0.9048,1.3204,2.3045,3.4647,2.6671c1.6873,0.2853,3.0976-0.2192,4.0093-0.7083
			c-0.2154,0.9767-0.3541,2.0333-0.3812,3.1128c-0.0507,2.0235,0.27,3.283,0.7682,5.3992L13.556,52h4.3878V42
			c7.287,2.6712,13.5314,4.0944,24.3218,1.6625L44.7979,52H49V41.8735c5.8746-1.7393,11.4316-3.7231,11.4316-3.7231L61,33.9239z
			 M49.9989,31.5107c-0.8284,0-1.5-0.6716-1.5-1.5s0.6716-1.4999,1.5-1.4999s1.5,0.6715,1.5,1.4999S50.8273,31.5107,49.9989,31.5107
			z"/>
	</g>
</g>
</svg>
