<?xml version="1.0" encoding="utf-8"?>
<!-- Generator: Adobe Illustrator 22.1.0, SVG Export Plug-In . SVG Version: 6.00 Build 0)  -->
<!DOCTYPE svg PUBLIC "-//W3C//DTD SVG 1.1//EN" "http://www.w3.org/Graphics/SVG/1.1/DTD/svg11.dtd">
<svg version="1.1" xmlns="http://www.w3.org/2000/svg" xmlns:xlink="http://www.w3.org/1999/xlink" x="0px" y="0px" width="64px"
	 height="64px" viewBox="0 0 64 64" style="enable-background:new 0 0 64 64;" xml:space="preserve">
<style type="text/css">
	.st0{fill:none;}
</style>
<g id="Box">
	<rect class="st0" width="64" height="64"/>
</g>
<g id="Icon">
	<rect class="st0" width="64" height="64"/>
	<g>
		<g>
			<path d="M31.6,53h3.1v-3.7c-1.4-0.2-2.8-0.6-4.2-1L31.6,53z M15,47.2c-0.5,0.5-1.2,0.8-2,0.8c-1.1,0-2.1-0.6-2.6-1.5l0.8,6.5h4.3
				l-0.4-5.7C15.1,47.3,15,47.3,15,47.2z M54,32.6l2.8-4c0,0-4.6-1.5-7.2,1.4l-4.4-1.6c-7.5-2.7-18.9-1.6-22.2,3.5
				c-0.1,0-0.2-0.1-0.2-0.3c0-0.6,0.5-1.8,1.1-2.8c-0.8-1.2-3.3-1.4-4.3,0c-0.7,1-0.6,2.4,0,3.6c-1.1,0.6-2.3,0.5-3,0.4
				c-0.3,0-0.5,0.2-0.4,0.5c0.3,0.7,1,1.7,2.6,2c1.3,0.2,2.3-0.2,3-0.5c-0.2,0.7-0.3,1.5-0.3,2.3c0,1.5,0.2,2.5,0.6,4.1L25,53h3.4
				v-7.5c5.5,2,10.2,3.1,18.3,1.3l1.9,6.3h3.2v-7.6c4.4-1.3,8.5-2.8,8.5-2.8l0.4-3.2C60.7,39.4,56.4,36.8,54,32.6z M42.2,49.5V53
				h3.3l0.5-1.7l-0.7-2.2C44.2,49.3,43.2,49.4,42.2,49.5z M63.5,22.3c-1.5-1.2-3.9-4.1-4.4-5.9c0,0,2.1-0.1,2.6-1.1
				c0.8-1.6-2.7-1.9-4.6-1.9c0.6-0.9,0.9-1.4,1.4-2.3c0.7-1.2-0.9-2.3-1.8-1.3l0,0c-0.6,0.7-1.1,1.2-1.9,1.9
				c-3.8-1-12.6,2.3-13.7,2.3c0,0-31,0-33.2,0c-1.9,0-3.6,1.8-3.8,3.8c-0.4,3.8-0.9,10-1.1,12.1c-2.3,0.6-3.1,3-2.9,5.3
				c0,0,3.1,0.8,4.8-0.7c1.5-1.3,1.3-2.8,1.8-8.6c0.2-2.6,0.5-5.6,0.7-7.8c0-0.3,0.2-0.6,0.5-0.7c0,4.8,0,13.2,0,15.5
				c0,2.3-2.1,4.3-3.3,5.3c-0.5,0.4-0.8,1-0.8,1.6L4.8,53H9v-8.7c0-1.7,0.6-2.7,1.1-3.3c0.5,0.5,1.2,1,1.9,1.3V45c0,1.3,2,1.3,2,0
				v-2.1c0.7,0.1,1.3,0.1,2,0V45c0,1.3,2,1.3,2,0v-2.7c0.7-0.3,1.3-0.8,1.9-1.4c-0.3-1.1-0.5-2.1-0.5-3.4c-0.3,0-0.6,0-0.9-0.1
				c-2-0.3-3.5-1.5-4.3-3.3c-0.4-0.8-0.2-1.8,0.3-2.6c0.6-0.7,1.5-1.1,2.4-1c0-1.1,0.3-2.2,0.9-3c0.8-1.3,2.4-2,4-2
				c1.4,0,2.7,0.6,3.5,1.5c5.6-2.8,14.3-3,20.5-0.8l2.6,0.9c1.2-1.9,3.1-2.1,5.5-1.6l6,1.3c0.4,0.1,1.5,0.4,3-1.3
				C64.2,24.3,64.1,22.8,63.5,22.3z"/>
		</g>
	</g>
</g>
</svg>
