<?xml version="1.0" encoding="utf-8"?>
<!-- Generator: Adobe Illustrator 18.1.1, SVG Export Plug-In . SVG Version: 6.00 Build 0)  -->
<svg version="1.2" baseProfile="tiny" xmlns="http://www.w3.org/2000/svg" xmlns:xlink="http://www.w3.org/1999/xlink" x="0px"
	 y="0px" width="64px" height="64px" viewBox="0 0 64 64" xml:space="preserve">
<g id="Box">
	<rect fill="none" width="64" height="64"/>
</g>
<g id="Icon">
	<path d="M57.1577,10.4397c-4.8239-4.7037-12.6445-4.3839-17.4412,0.3585l-4.4631,4.4125
		c-0.8748,0.8649-0.8837,2.2744-0.0198,3.1481l2.3569,2.3839c0.8639,0.8738,2.2734,0.881,3.1482,0.0161l5.7094-5.6447
		l-0.0064,0.0353c2.0043-2.3234,5.5704-1.9989,7.1746,0.588c0.8693,1.4019,0.8901,3.2713-0.0289,4.6433
		c-1.1747,1.7539-4.6579,1.6864-6.1388,1.6902c-0.6978,0.0018-1.3322,0.2972-1.6191,0.9671l-1.4022,3.2745
		c-0.1287,0.7131,0.0977,1.444,0.6068,1.9589l0.5436,0.5498c-2.4705,2.7496-5.3984,5.8001-8.7723,9.1357
		c-5.401,5.3395-9.5618,9.0482-12.7535,11.6266c-0.5918,2.9311-1.6183,4.6255-1.8953,5.0385
		c-0.1541,0.2297-0.3136,0.2759-0.4268,0.2214c0.2562-0.7788,0.3786-1.6728,0.3786-2.3435c0-4.1422-3.3578-7.5-7.5-7.5
		c-0.6814,0-1.3383,0.0989-1.9658,0.2692c1.2407-4.0589,3.6223-10.1936,8.1011-19.4499c3.5272-7.2896,3.7203-7.2404,10.1835-19.4922
		c0.4845-0.9472,0.1354-2.108-0.7913-2.6309l-0.0043-0.0024c-0.9272-0.5231-2.1021-0.2211-2.6619,0.6844
		c-3.8407,6.429-5.8884,9.5624-10.7048,19.5162c-4.0804,8.4329-6.9208,15.2932-8.4415,20.3881
		c-0.7535,2.5241-1.4789,5.5651-1.2654,8.3138C7.4071,57.0905,10.6378,60,14.6082,60c1.5247,0,2.6689-0.4111,3.912-1.0999
		c4.3054-2.3826,11.7833-8.3002,21.3923-17.8005c3.3495-3.3112,6.2811-6.361,8.7775-9.1301l0.6215,0.6286
		c0.864,0.8738,2.2734,0.881,3.1482,0.0161l4.752-4.6981C62.0774,23.1056,62.0722,15.2318,57.1577,10.4397z M14.5,56.1
		c-1.9882,0-3.6-1.6118-3.6-3.6s1.6118-3.6,3.6-3.6c1.9883,0,3.6,1.6118,3.6,3.6S16.4883,56.1,14.5,56.1z"/>
</g>
</svg>
