<svg xmlns="http://www.w3.org/2000/svg" viewBox="0 0 64 64"><defs><style>.cls-1{fill:none;}</style></defs><g id="BOX"><rect class="cls-1" width="64" height="64"/></g><g id="ICOON"><path d="M32.08,20.86h0a5.81,5.81,0,0,0,3.51-1.51c.15,0,.12.24,0,.47a4.89,4.89,0,0,1-4,2.58,12.55,12.55,0,0,1-1.44,2.82L46.1,41.15c1.15-3.5,2.18-7.15,1.29-10.66C46.25,26,45.72,22.35,46,21.08c.2-1,2.36-2.06,3.8-2.87a2.91,2.91,0,0,0,1.47-3.07,8.28,8.28,0,0,0-.57-2.35,1.19,1.19,0,0,0-1.1-.72H44.84a10.27,10.27,0,0,0-3-2.61c-2.42-1.26-5.83.87-5.83.87s-1-.26-3.07.81-3,6.38-3.09,8.18C29.83,20.58,31,21,32.08,20.86Z"/><path d="M44.45,46.57,56.21,58.33l2.12-2.12L45.4,43.27,28.87,26.75,7.73,5.61,5.61,7.73,26.66,28.78c-1.05.92-2.28,2-3.78,3.51-5.47,5.47-5.27,16-5.27,16a5.26,5.26,0,0,1-4.94,1.27c-3-.62-2.35-3.47-1.53-5.45a.8.8,0,0,0-1.12-1c-3.94,2.23-4.09,6.12-2.48,8.46,1.33,1.94,4.4,2.94,7.74,2.94h18.8a2.65,2.65,0,0,0-2.27-2.41s2.4-4.43.77-6.61c-1.27-1.71-5-.57-6.23,0-.14-.06-.06-.31.16-.52,1.9-1.8,5.3-3,7.46-1,2.62,2.45.34,7.42.34,7.42a4,4,0,0,1,2.17,3.16H47.31c0,.07.86-2-.4-3.27s-3.41-.37-2.55-4.34C44.38,46.79,44.42,46.68,44.45,46.57Z"/></g></svg>