<svg xmlns="http://www.w3.org/2000/svg" viewBox="0 0 64 64"><defs><style>.cls-1{fill:none;}</style></defs><g id="BOX"><rect class="cls-1" width="64" height="64"/></g><g id="ICOON"><path d="M58.33,56.21,49.1,47,48,45.84l-1.41-1.41L44.09,42,29,26.88,17.05,14.93,7.73,5.61,5.61,7.73l8.62,8.62a1.47,1.47,0,0,0,0,.36v.89H13.3a4.45,4.45,0,0,0-4.45,4.45V42.53A4.45,4.45,0,0,0,13.3,47H23.94a14.48,14.48,0,0,1-3-8.82c0-.53,0-1,.08-1.55,0-.27.26-.3.32-.25v0A14.21,14.21,0,0,0,44.42,46.54L56.21,58.33Zm-22.77-10A10.74,10.74,0,0,1,26.91,29l15,15A10.69,10.69,0,0,1,35.56,46.18Z"/><path d="M35.56,24.63a10.74,10.74,0,0,1,9.62,15.6l2.55,2.55a14.2,14.2,0,0,0,2-6.41c.12-.06.3,0,.33.25a13,13,0,0,1,.08,1.54A14.57,14.57,0,0,1,49,44l2.83,2.83a4.44,4.44,0,0,0,3.37-4.3V22.05A4.45,4.45,0,0,0,50.7,17.6H45.54c-.53-1.08-1.07-2.19-1.6-3.36a4.06,4.06,0,0,0-3-2.43,49.26,49.26,0,0,0-10.72,0,4,4,0,0,0-3,2.43c-.54,1.17-1.07,2.28-1.61,3.36H23.32v-.89a1.78,1.78,0,0,0-1.79-1.78H19.88L30.73,25.78A10.75,10.75,0,0,1,35.56,24.63Zm10.69-2.58H50.7v2.67H46.25Z"/></g></svg>