<?xml version="1.0" encoding="utf-8"?>
<!-- Generator: Adobe Illustrator 19.1.0, SVG Export Plug-In . SVG Version: 6.00 Build 0)  -->
<svg version="1.2" baseProfile="tiny" xmlns="http://www.w3.org/2000/svg" xmlns:xlink="http://www.w3.org/1999/xlink" x="0px"
	 y="0px" width="64px" height="64px" viewBox="0 0 64 64" xml:space="preserve">
<g id="Box">
	<rect fill="none" width="64" height="64"/>
</g>
<g id="Icon">
	<g>
		<polygon points="29.9653,58.4189 13.1821,53.324 7.5,55 29.9,61.8 56.1,52.2 50.7379,50.8079 		"/>
		<polygon points="29.9653,52.7197 13.1818,47.6241 7.5,49.3 29.9,56.1 56.1,46.5 50.7383,45.108 		"/>
		<polygon points="29.9653,47.0195 13.1812,41.9243 7.5,43.6 29.9,50.4 56.1,40.8 50.7379,39.4079 		"/>
		<path d="M56.1,35.1l-16.4779-4.2779l-3.7471,4.7463c-0.9302,1.1807-2.3271,1.8574-3.8315,1.8574
			c-1.5049,0-2.9019-0.6768-3.833-1.8584l-2.4182-3.0629L7.5,37.9l22.4,6.8L56.1,35.1z"/>
		<path d="M29.9753,34.1761c0.4998,0.6333,1.2616,1.0023,2.0679,1.0023c0.8064,0,1.5682-0.369,2.0679-1.0023l11.6621-14.7719
			c0.3788-0.4791,0.5667-1.0562,0.5667-1.6324c0-0.6127-0.213-1.2255-0.6375-1.7182c-0.8223-0.9559-2.207-1.1951-3.3027-0.5702
			l-4.6057,2.627c0,0-1.4379,5.4059-1.563,5.8695C36.1311,24.35,35.9307,24.23,35.9307,24.23V5.7416
			c0-2.113-1.8257-2.7424-3.8862-2.7416c-2.0623-0.0008-3.8885,0.6294-3.8885,2.7416v13.4316l-6.4691-3.6898
			c-1.0957-0.6249-2.4805-0.3857-3.3027,0.5702c-0.8235,0.9559-0.8527,2.362-0.0707,3.3506L29.9753,34.1761z"/>
	</g>
</g>
</svg>
