<svg height="64" viewBox="0 0 64 64" width="64" xmlns="http://www.w3.org/2000/svg"><path d="m0 0h64v64h-64z" fill="none"/><path d="m51.2886 45.2578c-2.4563-2.5671-9.2193-4.1663-11.0196-5.6074-.0018-.0156-.004-.0333-.0059-.049-.0965-.8401-.235-1.8577-.3792-2.8415 2.0215.2135 5.0197.5701 6.9231 1.2385.375.1318.771-.1191.875-.5381 1.0144-4.1027 1.8078-8.0523 1.8078-12.2415 0-7.2238-2.6247-14.9078-6.6863-17.7604l.1899-2.1381c.041-.4497-.1152-.8877-.43-1.2036-1.1661-1.1641-4.0892-3.1167-10.5634-3.1167-6.4743 0-9.3973 1.9526-10.5659 3.1187-.3123.314-.4685.752-.428 1.1997l.1944 2.1863c-4.6627 3.6752-7.6941 9.95-7.6941 17.7142 0 3.7255.56 7.1546 1.8178 12.2415.1035.419.5.6699.875.5381 1.8217-.6398 4.2865-1.0065 7.3642-1.3018-.1118.9402-.2354 1.9943-.3572 3.0632-1.6736 1.1948-8.7768 2.6575-11.4948 5.498-2.7583 2.8837-4.2114 13.7421-4.2114 13.7421h48s-1.4531-10.8584-4.2114-13.7422zm-19.2886-41.7578c5.1404 0 7.5608 1.3623 8.4911 2.0977l-.7148 8.4023h-15.5525l-.7149-8.4023c.9332-.7369 3.3535-2.0977 8.4911-2.0977zm1.5842 45.5473c-.1198.0589-.2408.1201-.3549.174-.2531.1191-.4948.2291-.7135.3235-.3877.1682-.7223.3023-.9655.3937-1.4863-.6377-6.1431-2.8809-8.3931-6.7989 2.8814-1.1933 2.713-2.2734 2.7632-2.7167.0657-.5789.5774-5.3235.5774-5.3235-2.518-2.48-3.5982-5.5714-4.0564-8.2801-.293-1.7298-.2532-3.3401-.1641-4.4102 3.6246-1.4291 8.387-3.9755 11.637-6.5618 1.3719 2.3821 3.77 4.9125 6.8432 6.9156.0662 1.034.0662 2.4655-.1989 4.0564-.5298 3.1827-2.8208 7.626-5.3403 9.1846-1.7213 1.0648-4.8734 1.2337-6.7116.4403.4235.8396 1.2729 1.8373 3.1547 2.3063 2.5354.6314 4.852-.4047 5.4494-.7518.1117.7949.2157 1.591.2886 2.2786.144 1.3596 1.8826 2.2987 3.127 2.8799-1.6684 2.8963-4.75 4.8142-6.9422 5.8901z"/><path d="m31 12h2v-2h2v-2h-2v-2h-2v2h-2v2h2z"/></svg>