<?xml version="1.0" encoding="utf-8"?>
<!-- Generator: Adobe Illustrator 18.1.0, SVG Export Plug-In . SVG Version: 6.00 Build 0)  -->
<svg version="1.2" baseProfile="tiny" xmlns="http://www.w3.org/2000/svg" xmlns:xlink="http://www.w3.org/1999/xlink" x="0px"
	 y="0px" width="64px" height="64px" viewBox="0 0 64 64" xml:space="preserve">
<g id="_x36_4px_Boxes">
	<rect fill="none" width="64" height="64"/>
</g>
<g id="Production">
	<g>
		<path d="M61.2248,30.2057L32.8126,3.3202c-0.4594-0.4269-1.1659-0.4269-1.6253,0L2.7752,30.2057
			C2.2812,30.6652,2,31.3124,2,31.9904v1.7968C2,34.4569,2.5374,35,3.2,35H8v25h48V35h4.8c0.6627,0,1.2-0.5431,1.2-1.2128v-1.7968
			C62,31.3124,61.7187,30.6652,61.2248,30.2057z M47.3658,39.3006L45,40.4966c0,0,0,3.6398,0,6.5368
			c0,2.64-2.085,4.4888-4.2587,4.204c-2.1656-0.2838-7.6367-1.4851-7.6367-1.4851c-0.0211,0.0347-0.0781,0.1658,0.1198,0.2739
			l3.7189,1.9171L37.0349,56H21.931c0,0,1.4017-5.7189,1.2801-7.6206c-0.2775-4.3373-4.1161-10.0906-5.4588-14.1484
			c-1.1541-3.488-1.8956-10.4533,4.9579-14.1799c6.4978-3.5331,15.2293-3.3716,17.6776-1.7978
			c2.149,1.3815,2.8466,3.8217,1.4184,6.5453c0,0,1.3205,2.886,1.7717,5.4942c0.0894,0.5165-0.1385,1.645,0,2.2562l4.1951,4.8274
			C48.1947,38.0197,48.0119,38.8832,47.3658,39.3006z"/>
		<path d="M31.5,21.2188v1.6613c4.3231,0.4966,7.6818,4.1638,7.6818,8.6199c0,2.1005-0.7462,4.0265-1.9876,5.5281l-1.3362-1.3365
			c0.0014-0.0018,0.0031-0.0034,0.0045-0.0051l-1.1804-1.1808c-0.9372,1.3013-2.4559,2.1566-4.1821,2.1566
			c-1.1273,0-2.162-0.3714-3.011-0.9846l-1.1808,1.181c1.1573,0.9073,2.6106,1.4536,4.1918,1.4536
			c1.5814,0,3.0321-0.5488,4.188-1.4575l1.3397,1.3399c-1.5015,1.2412-3.4274,1.9872-5.5277,1.9872
			c-2.6937,0-5.1006-1.2271-6.693-3.1524l2.4264-2.4264l-0.0014-0.0014l0.0905-0.0905c-0.6132-0.849-0.9846-1.8837-0.9846-3.0111
			c0-2.851,2.3112-5.1622,5.1622-5.1622c1.1274,0,2.162,0.3714,3.011,0.9846l-1.3507,1.3507
			c-0.4894-0.2886-1.0522-0.4657-1.6603-0.4657c-1.8155,0-3.2925,1.4771-3.2925,3.2925s1.4771,3.2925,3.2925,3.2925
			s3.2925-1.477,3.2925-3.2925c0-0.6081-0.1771-1.171-0.4657-1.6603l1.3507-1.3507c0.6132,0.849,0.9846,1.8837,0.9846,3.011
			c0,0.4988-0.0931,0.9713-0.225,1.4275l1.3005,1.301c0.3673-0.8363,0.5745-1.7581,0.5745-2.7285
			c0-3.7562-3.056-6.8121-6.8122-6.8121c-1.5814,0-3.0349,0.5464-4.1922,1.4539l-1.3287-1.3287
			c1.2595-1.0396,2.8124-1.7368,4.5209-1.933v-1.6613c-5.2292,0.5048-9.3318,4.9218-9.3318,10.2812
			c0,5.697,4.6349,10.3318,10.3318,10.3318S40.8318,37.197,40.8318,31.5C40.8318,26.1406,36.7292,21.7236,31.5,21.2188z
			 M30.5,33.1425c-0.9071,0-1.6425-0.7354-1.6425-1.6425s0.7354-1.6425,1.6425-1.6425s1.6425,0.7354,1.6425,1.6425
			S31.4071,33.1425,30.5,33.1425z M22.8657,35.6377c-0.668-1.23-1.0475-2.6395-1.0475-4.1377c0-2.1004,0.7527-4.02,1.9944-5.5204
			l1.3287,1.3287c-0.9073,1.1573-1.4536,2.6105-1.4536,4.1917c0,0.9715,0.2263,1.8839,0.5958,2.7198L22.8657,35.6377z"/>
	</g>
</g>
</svg>
