<?xml version="1.0" encoding="utf-8"?>
<!-- Generator: Adobe Illustrator 23.1.1, SVG Export Plug-In . SVG Version: 6.00 Build 0)  -->
<svg version="1.1" xmlns="http://www.w3.org/2000/svg" xmlns:xlink="http://www.w3.org/1999/xlink" x="0px" y="0px"
	 viewBox="0 0 64 64" style="enable-background:new 0 0 64 64;" xml:space="preserve">
<style type="text/css">
	.st0{fill:none;}
</style>
<g id="Box">
	<rect class="st0" width="64" height="64"/>
</g>
<g id="Icon">
	<g>
		<path d="M12,23.3l-3.1-0.9C8.5,22.3,8.6,22,8.6,22H23c0.6,0,1-0.4,1-1V6.6c0,0,0.3-0.1,0.4,0.2l0.9,3.1H42v17.3
			c0.8-0.2,1.6-0.3,2.5-0.3s1.7,0.1,2.5,0.3V7c0-1.1-0.9-2-2-2H23.8c-0.5,0-1,0.2-1.4,0.6L7.6,20.4C7.2,20.8,7,21.3,7,21.8V53
			c0,1.1,0.9,2,2,2h21v-5H12V23.3z"/>
		<path d="M55.9,43H55v-3.5C55,33.7,50.3,29,44.5,29S34,33.7,34,39.5V43h-0.9c-0.6,0-1.1,0.5-1.1,1.1v13.8c0,0.6,0.4,1,0.9,1.1
			c1.8,0.3,6.1,1,11.6,1s9.7-0.6,11.6-1c0.5-0.1,0.9-0.6,0.9-1.1V44.1C57,43.5,56.5,43,55.9,43z M46,51.5V56h-3v-4.5
			c-0.6-0.5-1-1.2-1-2c0-1.4,1.1-2.5,2.5-2.5c1.4,0,2.5,1.1,2.5,2.5C47,50.3,46.6,51,46,51.5z M50,43l-11,0v-3.5
			c0-3,2.5-5.5,5.5-5.5s5.5,2.5,5.5,5.5V43z"/>
	</g>
</g>
</svg>
