<?xml version="1.0" encoding="utf-8"?>
<!-- Generator: Adobe Illustrator 19.1.0, SVG Export Plug-In . SVG Version: 6.00 Build 0)  -->
<svg version="1.2" baseProfile="tiny" xmlns="http://www.w3.org/2000/svg" xmlns:xlink="http://www.w3.org/1999/xlink" x="0px"
	 y="0px" width="64px" height="64px" viewBox="0 0 64 64" xml:space="preserve">
<g id="Box">
	<rect fill="none" width="64" height="64"/>
</g>
<g id="Icon">
	<g>
		<path d="M43.3545,20l3.0188-6.0376C49.5095,13.7661,52,11.1858,52,8c0-3.3137-2.6863-6-6-6s-6,2.6863-6,6
			c0,1.2206,0.3691,2.3529,0.9952,3.3004L36.6455,20H43.3545z"/>
		<path d="M45.955,55.0199c2.4819-3.5331,7.6743-13.0146,8.0437-30.9827c0.0229-1.1147-0.891-2.0371-2.006-2.0371H12.0073
			c-1.1149,0-2.0288,0.9224-2.0059,2.0371c0.3694,17.968,5.5618,27.4497,8.0437,30.9827c-1.5082,1.2975-2.939,2.9905-3.8674,4.7476
			C13.6425,60.7805,14.3812,62,15.527,62h32.946c1.1459,0,1.8846-1.2195,1.3492-2.2325
			C48.8939,58.0104,47.4633,56.3174,45.955,55.0199z M41,42.5c0,0.2761-0.2239,0.5-0.5,0.5H35v5.5c0,0.2761-0.2239,0.5-0.5,0.5h-5
			c-0.2761,0-0.5-0.2239-0.5-0.5V43h-5.5c-0.2761,0-0.5-0.2239-0.5-0.5v-5c0-0.2762,0.2239-0.5,0.5-0.5H29v-5.5
			c0-0.2762,0.2239-0.5,0.5-0.5h5c0.2761,0,0.5,0.2238,0.5,0.5V37h5.5c0.2761,0,0.5,0.2238,0.5,0.5V42.5z"/>
	</g>
</g>
</svg>
