<?xml version="1.0" encoding="utf-8"?>
<!-- Generator: Adobe Illustrator 18.1.1, SVG Export Plug-In . SVG Version: 6.00 Build 0)  -->
<svg version="1.2" baseProfile="tiny" xmlns="http://www.w3.org/2000/svg" xmlns:xlink="http://www.w3.org/1999/xlink" x="0px"
	 y="0px" width="64px" height="64px" viewBox="0 0 64 64" xml:space="preserve">
<g id="Box">
	<rect fill="none" width="64" height="64"/>
</g>
<g id="Icon">
	<g>
		<path d="M19.8066,49.3835c-4.7624-6.1489-6.6158-14.0524-4.9573-21.1423c1.5007-6.4176,5.9822-11.1606,11.6967-12.3779
			c8.6379-1.8389,14.2564,2.5625,21.3665,8.1365c0.8893,0.6973,1.7957,1.4075,2.7261,2.1199
			c0.9692,0.7413,2.4117,1.4871,2.4122,1.4875c0.1436,0.004,0.3271-0.2268,0.1114-0.7433
			c-0.6913-1.6554-4.3105-5.3964-7.3179-7.6276c-5.9294-4.3992-11.6749-7.5477-19.851-5.8055
			c-6.6981,1.4269-11.9297,6.891-13.653,14.2606c-1.8222,7.7925,0.1995,16.4607,5.4084,23.1868
			c3.283,4.2385,7.1506,6.5596,10.8168,7.9197c4.2709,1.5847,9.586,1.782,12.989-0.5013c0.3271-0.2196,0.4019-0.5293,0.2542-0.6719
			C41.2701,57.7535,28.528,60.6444,19.8066,49.3835z"/>
		<path d="M16.1024,53.1819c-1.8535-2.256-4.0715-6.1685-4.9932-9.9878c-0.2474-0.0339-0.3831,0.4097-0.4001,0.8531
			c-0.0934,2.443,0.5463,4.9056,1.3311,6.8837c1.1768,2.9662,2.8802,5.481,6.0373,7.4233c1.4823,0.9121,3.3091,1.5989,5.3917,1.4869
			c0.372-0.0199,0.706-0.1434,0.6807-0.374C20.8083,57.7301,18.1025,55.6171,16.1024,53.1819z"/>
		<path d="M13.9597,18.7933c1.3221-2.472,4.3456-5.1006,7.444-6.8632c3.9595-2.2524,4.8699-4.1061,10.0948-5.2079
			c3.7693-0.7948,9.2011,0.308,12.1247,2.5812c0.2503-0.1115,0.1776-0.4976-0.1349-1.0688
			c-2.1213-3.8784-8.7018-4.9065-13.5325-3.8379c-3.831,0.8475-7.7096,2.8304-11.0769,6.0771
			c-1.9093,1.8411-4.7075,5.605-5.0765,7.4832C13.6747,18.6072,13.7872,18.8115,13.9597,18.7933z"/>
		<path d="M28.5999,9.7477c-0.4863,0.2843-0.3954,0.4509-0.3592,0.5021c7.0231-0.4994,15.4764,3.1606,21.5327,9.3308
			c0.2255,0.0209,0.267-0.2148,0.084-0.8506c-0.3411-1.1846-1.519-3.3949-3.96-5.3435c-2.6097-2.0833-5.2215-3.3036-8.4767-4.2429
			C33.6465,8.0543,29.4286,9.2633,28.5999,9.7477z"/>
		<path d="M52.6595,36.1003c-0.3674-0.1785-0.7148-0.3525-1.0895-0.5398c-4.6653-2.3324-7.2507-4.3672-10.6652-7.0542
			c-0.9636-0.7584-1.991-1.567-3.1451-2.4462c-3.434-2.616-7.5316-3.2028-10.6908-1.5277
			c-3.3315,1.7637-4.9613,5.5813-4.4725,10.4736c0.3688,3.6909,1.7013,6.9519,3.9818,9.7629
			c1.5063,1.8567,6.1498,6.2571,10.8123,6.2571c0.5466,0,0.7074-0.1558,0.7138-0.3755
			c-7.8375-3.7083-12.3134-9.5339-12.9475-15.8843c-0.3848-3.8523,0.7617-6.7859,3.1461-8.0483
			c2.2412-1.1871,5.2552-0.689,7.8662,1.2998c1.1425,0.8705,2.1594,1.6708,3.1135,2.4214c3.6555,2.877,6.3936,5.032,11.587,7.5725
			c0.1848,0.0903,0.6345,0.3352,0.8801,0.4517c0.7367,0.3494,1.1933-0.246,1.384-1.0186
			C53.2726,36.8827,53.1931,36.3596,52.6595,36.1003z"/>
		<path d="M51.6829,41.1565c-1.9041-0.821-6.2616-2.7719-9.7757-5.295c-1.0978-0.7887-2.2402-1.7977-3.345-2.7731
			c-3.1019-2.739-6.6158-5.843-9.3027-3.2422c-0.9485,0.9181-1.4454,2.5459-1.3635,4.4663
			c0.1547,3.6467,2.2397,7.4586,5.5762,10.1963c3.6607,3.0037,9.5076,6.146,13.2117,7.8025
			c0.6125,0.2739,1.0407-0.2034,1.3837-0.7659l0.0005-0.001c0.3994-0.655,0.4161-1.2493-0.3009-1.5603
			c-0.2357-0.1022-0.4772-0.209-0.7015-0.3118c-2.5716-1.1787-8.0307-3.8643-11.9305-7.064
			c-4.1459-3.4016-4.6222-7.2883-4.6694-8.3987c-0.0568-1.333,0.2668-2.2676,0.6124-2.6023
			c0.9496-0.9166,3.4993,1.333,5.7506,3.3214c1.152,1.0172,2.3433,2.0697,3.546,2.9332c3.6381,2.6122,8.1293,4.6382,10.2677,5.5603
			c0.7019,0.3027,1.2373-0.187,1.4604-0.8989l0.0023-0.0073C52.2916,41.9211,52.2693,41.4093,51.6829,41.1565z"/>
		<path d="M50.0865,45.51c-2.0767-0.8052-6.8535-2.7803-9.5649-4.7056c-3.6299-2.5781-5.4637-4.1907-7.263-6.2278
			c-0.2768,0.0536-0.5259,0.4288-0.1384,1.4475c0.6657,1.7498,1.8442,3.9226,5.8801,6.7886
			c2.969,2.1083,7.9459,4.1678,10.1303,5.0122c0.6718,0.2595,1.0964-0.2871,1.3458-0.9446l0.0008-0.002
			C50.7167,46.2471,50.7311,45.76,50.0865,45.51z"/>
	</g>
	<path d="M52.8204,30.1161c-3.6869-1.8924-6.5349-4.0401-9.0834-5.9615c-0.7274-0.5485-1.4371-1.0825-2.142-1.5934
		c-0.2824,0.0727-0.3054,0.5081-0.015,1.2963c0.2889,0.7842,0.8335,2.4573,2.8225,3.9088c2.1875,1.5963,4.8021,3.2682,7.5964,4.7195
		c0.8547,0.444,1.3071-0.3932,1.301-1.3325v-0.0078C53.297,30.6905,53.2355,30.3292,52.8204,30.1161z"/>
	<g>
		<path d="M45.3444,54.8565c-1.203-0.5483-2.9072-1.2842-4.1403-1.8256c-1.6208,0.367-3.6066,0.2751-5.168,0.0505
			c-5.4702-0.7869-9.965-4.0076-12.0233-7.1392c-0.4856-0.737-2.8299,0.5001-2.1225,1.4547
			c4.4534,6.0094,10.4041,7.7958,14.4691,8.2175c4.8755,0.5057,7.4136,0.2318,8.6034-0.2447
			C45.2696,55.2468,45.4291,55.0427,45.3444,54.8565z"/>
		<path d="M22.3568,43.4536l0.0035-0.0024c-0.378-0.6738-0.6629-1.2376-0.8665-1.6728c-2.711-5.7929-2.5186-11.9156,0.514-16.378
			c2.08-3.0611,5.2054-4.8213,8.5787-4.7201c3.4877,0.0627,6.1686,1.5289,9.0671,3.592c0.2037-0.0422,0.3677-0.2453,0.1342-1.0627
			c-0.2551-0.8929-1.012-2.6027-3.2397-3.6909c-1.754-0.8567-3.6998-1.2893-5.9133-1.3294
			c-4.2896-0.074-8.2004,2.0511-10.7757,5.8416c-3.5209,5.1808-3.7857,12.1998-0.7084,18.776
			c0.3106,0.6638,0.6401,1.2835,0.9789,1.88C20.7377,45.7577,22.7749,44.2862,22.3568,43.4536z"/>
	</g>
</g>
</svg>
