<?xml version="1.0" encoding="utf-8"?>
<!-- Generator: Adobe Illustrator 18.1.0, SVG Export Plug-In . SVG Version: 6.00 Build 0)  -->
<svg version="1.2" baseProfile="tiny" xmlns="http://www.w3.org/2000/svg" xmlns:xlink="http://www.w3.org/1999/xlink" x="0px"
	 y="0px" width="64px" height="64px" viewBox="0 0 64 64" xml:space="preserve">
<g id="_x36_4px_Boxes">
	<rect fill="none" width="64" height="64"/>
</g>
<g id="Label">
</g>
<g id="Production">
	<g>
		<path d="M47.0118,10.2208c0.4437,0.4437,1.1631,0.4437,1.6068,0s0.4437-1.1631,0-1.6069l-0.5794-0.5794
			c-0.4437-0.4437-1.1631-0.4437-1.6069,0s-0.4437,1.1631,0,1.6069L47.0118,10.2208z"/>
		<path d="M44.4199,12.8127c0.4437,0.4437,1.1631,0.4437,1.6069,0s0.4437-1.1631,0-1.6069l-0.5794-0.5795
			c-0.4437-0.4437-1.1631-0.4437-1.6069,0s-0.4437,1.1631,0,1.6069L44.4199,12.8127z"/>
		<path d="M56.0161,14.5447c-0.4437-0.4437-1.1631-0.4437-1.6069,0s-0.4437,1.1631,0,1.6069l0.5794,0.5795
			c0.4437,0.4437,1.1631,0.4437,1.6069,0s0.4437-1.1631,0-1.6069L56.0161,14.5447z"/>
		<path d="M53.4242,17.1365c-0.4437-0.4437-1.1631-0.4437-1.6069,0s-0.4437,1.1631,0,1.6069l0.5795,0.5794
			c0.4437,0.4437,1.1631,0.4437,1.6069,0s0.4437-1.1631,0-1.6069L53.4242,17.1365z"/>
		<path d="M56.6504,4.6049l-4.626,2.1274c-0.955,0.4391-1.1799,1.6956-0.4367,2.4388l0.0807,0.0807L37.2078,22.3024
			c-5.6578-4.5576-10.0351-3.4334-15.3425,4.8871c-0.7211,1.1304,1.6442,3.2662-2.0854,5.5126
			c-1.5262,0.9193-3.2523,1.2613-4.7543,0.2492c-0.7054-0.4752-1.1151-0.9736-1.9597-0.4744
			C4.1046,37.7739-0.9894,43.7944,8.2958,53.7455c2.8103-2.9539,4.5823-5.9902,5.3474-7.4562
			c0.2795-0.5357,0.9025-0.8421,1.3848-0.6663c0.5575,0.2033,1.2877,0.579,1.9772,1.2684h0.0001
			c0.6895,0.6895,1.0651,1.4197,1.2684,1.9772c0.1758,0.4822-0.1306,1.1052-0.6663,1.3848
			c-1.4659,0.7651-4.5024,2.5372-7.4562,5.3474c9.9675,9.2987,16.0938,4.0635,21.3937-4.903
			c0.3117-0.5273,0.1233-1.1754-0.3722-1.5223c-2.6922-1.8853,1.1835-8.5504,4.5303-7.0212
			c0.3237,0.1479,0.7177,0.088,1.0212-0.1057c7.4564-4.7563,9.1219-8.7673,6.1113-13.6202
			c-1.1514,0.9268-4.2902,3.4299-7.6521,5.9076c-0.2963,0.2184-0.4611,0.0071-0.5044-0.0891l19.9625-22.0217l0.0838,0.0838
			c0.7433,0.7432,1.9997,0.5182,2.4388-0.4367l2.1274-4.626L56.6504,4.6049z"/>
	</g>
</g>
</svg>
