<?xml version="1.0" encoding="utf-8"?>
<!-- Generator: Adobe Illustrator 19.1.0, SVG Export Plug-In . SVG Version: 6.00 Build 0)  -->
<svg version="1.2" baseProfile="tiny" xmlns="http://www.w3.org/2000/svg" xmlns:xlink="http://www.w3.org/1999/xlink" x="0px"
	 y="0px" width="64px" height="64px" viewBox="0 0 64 64" xml:space="preserve">
<g id="_x36_4px_Box">
	<rect fill="none" width="64" height="64"/>
</g>
<g id="Icon">
	<g>
		<path d="M17.7225,40.6832c0,0,4.6317-3.856,1.7368-11.0524c4.2084-0.1764,7.4881-0.8692,10.5407-2.0043
			c0.5425-1.1568,0.8243-2.5423,1-4.1905c0,0,0.3243-0.1478,0.4775,0.3658c0.4344,1.4565,0.1748,5.1287-0.4453,6.4794
			c-0.1719,0.3744,0.1674,0.7783,0.5694,0.6879c7.1745-1.6137,11.5295-13.1998,11.291-22.6914
			c-0.0242-0.9652-0.6205-1.8257-1.5266-2.1591C37.2936,4.6204,32.7955,4.7015,29,6c0,0.017-8.8412-1.0541-13.8928,5.3935
			c-0.2243,0.2863-0.079,0.7051,0.2739,0.7931L20,13c-2.4301,3.71-3.7321,8.7257-2.9379,14.2201C9.8823,24.2845,6,29,6,29
			c3.5661,0.7141,6.4832,2.1295,8.3466,3.3174C15.524,34.1874,17.0287,37.1131,17.7225,40.6832z M35.5048,7.7982
			c0.9389,0.0026,1.6978,0.766,1.6952,1.7048c-0.0027,0.9389-0.766,1.6978-1.7048,1.6952c-0.9388-0.0026-1.6978-0.766-1.6952-1.7048
			C33.8026,8.5545,34.5659,7.7955,35.5048,7.7982z"/>
		<path d="M14.6298,53.1481l-1.1007-0.7139l-1.1002,0.7109c-0.03,0.0195-3.0069,1.9248-5.7896,1.9248
			c-0.8948,0-1.8087-0.198-2.6393-0.4659v4.0657C4.8459,58.8663,5.7359,59,6.6393,59c2.7601,0,5.4398-1.1777,6.8884-1.9424
			C14.9766,57.8223,17.6563,59,20.4164,59c0.8826,0,1.7548-0.1244,2.5836-0.3134V54.614c-0.8179,0.2608-1.7092,0.456-2.5836,0.456
			C17.6337,55.07,14.6558,53.1647,14.6298,53.1481z"/>
		<polygon points="45,25 45,35 35,35 35,45 25,45 25,59 29,59 29,49 39,49 39,39 49,39 49,29 59,29 59,25 		"/>
	</g>
</g>
</svg>
