<?xml version="1.0" encoding="utf-8"?>
<!-- Generator: Adobe Illustrator 19.1.0, SVG Export Plug-In . SVG Version: 6.00 Build 0)  -->
<svg version="1.2" baseProfile="tiny" xmlns="http://www.w3.org/2000/svg" xmlns:xlink="http://www.w3.org/1999/xlink" x="0px"
	 y="0px" width="64px" height="64px" viewBox="0 0 64 64" xml:space="preserve">
<g id="Box">
	<rect fill="none" width="64" height="64"/>
</g>
<g id="Icon">
	<g>
		<path d="M27.4957,6.1599c-1.1835,0.5071-2.6809,1.1486-5.8712,2.5154l-9.5603-3.4723c-0.1833-0.0666-0.3851-0.0609-0.5643,0.0159
			l-0.7927,0.3396c-0.1642,0.0703-0.2076,0.2831-0.0841,0.4122l5.0355,5.2605c-0.1445,0.0619-0.2776,0.119-0.4259,0.1825
			c-2.1322,0.9135-3.9041,1.7905-5.3401,2.5784l-5.9245-3.019c-0.2029-0.1035-0.4413-0.1114-0.6508-0.0217L2.563,11.2745
			c-0.1605,0.0688-0.2065,0.2746-0.0905,0.4051l3.9614,4.4577c-0.4722,0.3427-0.8191,0.6271-1.0366,0.8349
			c-0.321,0.3068-0.2104,0.8409,0.2286,0.9069c2.6512,0.3982,7.913-0.7045,11.2126-1.7297l-2.4285,8.524
			c-0.059,0.2072,0.1488,0.3901,0.3468,0.3053l1.6476-0.7059c0.1371-0.0587,0.2542-0.1562,0.3369-0.2804l7.1237-10.7098
			c2.4863-1.0651,5.3191-2.2789,6.2106-2.6609c2.5328-1.0851,4.0888-2.651,3.9106-3.7979
			C33.8212,5.7619,31.4373,4.4712,27.4957,6.1599z"/>
		<path d="M58.4474,19H55v-4.5841c0-0.5523-0.4477-0.8159-1-0.8159s-1,0.2636-1,0.8159V19l-15.4474,0.0008
			c-0.2958,0-0.5269,0.2554-0.4975,0.5497l1.8999,18.9992C38.9805,38.8054,39.1956,39,39.4525,39H43v22h10V41.0544l-6.8693-1.6616
			C45.7885,39.283,45.8386,39.0606,45.8611,39h10.6864c0.2569,0,0.472-0.1946,0.4975-0.4502l1.8999-19
			C58.9744,19.2554,58.7433,19,58.4474,19z M53.7,32H42.3l-0.8-8h13L53.7,32z"/>
	</g>
</g>
</svg>
