<?xml version="1.0" encoding="utf-8"?>
<!-- Generator: Adobe Illustrator 19.1.0, SVG Export Plug-In . SVG Version: 6.00 Build 0)  -->
<svg version="1.2" baseProfile="tiny" xmlns="http://www.w3.org/2000/svg" xmlns:xlink="http://www.w3.org/1999/xlink" x="0px"
	 y="0px" width="64px" height="64px" viewBox="0 0 64 64" xml:space="preserve">
<g id="Box">
	<rect fill="none" width="64" height="64"/>
</g>
<g id="Icon">
	<g>
		<path d="M36.5171,56.7241c-1.3564,1.6334-1.6694-0.6655-2.8694-0.2452C32.4479,56.8991,33.2826,59,33.2826,59h8.2948
			C43.0903,54.7423,37.8735,55.0908,36.5171,56.7241z"/>
		<rect x="14" y="56" width="11" height="3"/>
		<path d="M46,51c0-1.0006-2,0-2-1c0-0.65,0.9756-0.8791,1.1956-1c0.625-0.3436,1.7888-1,1.7888-2s-1.7922-2-2.7922-2
			c-3,0-2.239,5-3.1921,5c-0.8281,0-0.7188-0.9844-1.5-0.9844c-0.8311,0-1.9062,2.2188-2.2937,3.0059
			C36.8608,52.7235,36.854,54,38,54c1,0,1.5833-1.0141,3-1c1,0,1,0.6695,1,1c0,1,1,1,1,1C45,55,46,51.0572,46,51z"/>
		<path d="M52.6128,44.1104c-2.1833-2.3746-8.4619-4.4866-11.386-5.3734c-0.155-1.1155-0.3613-2.4073-0.5466-3.4836
			c2.0466-2.4791,3.4867-5.9162,3.7689-7.9124l0.0001-0.0009c3.2423,0.3513,3.5017-0.035,3.5017-3.4854
			c0-3.046-0.1492-4.5209-0.6345-5.4186c-0.3627-0.6705-0.9111-1.6948-0.9111-1.6948C45.6204,7.6379,39.7107,3,32.0006,3
			c-0.0001,0-0.0004,0-0.0004,0c-7.7103,0-13.62,4.6379-14.4048,13.7414c0,0-0.5486,1.0242-0.9111,1.6948
			c-0.4856,0.8978-0.6343,2.3727-0.6343,5.4186c0,3.4666,0.2441,3.8098,3.4062,3.4791c0.0002,0.0021,0.0007,0.005,0.001,0.0071
			c0.3822,2.7027,2.4626,6.3958,4.3171,8.4715c-0.1061,0.807-0.2283,1.7498-0.353,2.7313
			c-2.5129,0.7345-9.6714,2.9969-12.0342,5.5665C8.5137,47.2344,7,59,7,59h3.0017l0.4885-2.9099
			c1.0327,0.7034,1.9902,0.838,1.7838-1.1362c-0.2606-2.4932,0.673-2.4984,3.6718-1.2722c2.9988,1.2263,3.7188-2.1941,2.4482-2.6781
			c-1.2704-0.4839-2.7551-1.3646-2.1877-2.7647c0.5496-1.3561,1.8149,0.4235,2.6619-0.5445
			c0.6014-0.6874-0.9905-2.5602-1.9658-3.5907c1.7095-0.7933,3.9041-1.6213,6.3447-2.3751c0.0779,0.6309,0.2419,1.2502,0.463,1.8579
			c-1.1998,0.6143-2.9373,1.6299-2.3431,3.2068c0.1726,0.4584,0.3153,1.54,2.5366,1.8227c1.1857,0.1509,1.0389,2.2468-0.688,1.9497
			C21.9399,50.3462,21,50.3103,21,51.9471c0,2.0529,1.9584,1.9969,2.5774,1.9042c0.842-0.1261,0.9154-0.6306,1.3569-1.2653
			c0.6393-0.9188,2.4497-0.9677,2.5376,0.2825c0.0867,1.2311-0.0845,3.1312,2.4214,3.1315c1.8091,0.0002,1.146-1.7129,2.4343-2.9309
			l0.0015,0.0012l1.8013-1.2939c1.1616-0.834,6.418-4.8584,7.1865-9.8701c5.396,1.7168,8.2612,3.3359,9.0874,4.2344
			c0.8167,0.8879,1.7382,3.6982,2.4849,6.9423c-2.2417,0.4478-1.0195,3.7214-2.9934,2.8825c-1.9763-0.84,0.762-2.694-0.0696-3.6393
			C48.6718,51.014,47,53,47,54.9744c0,0,0,1.0256-1.6154,1.0256C43.6411,56,43,59,43,59h14C57,59,55.4863,47.2344,52.6128,44.1104z
			 M31.9185,8.9583h1.6658l1.4082,3.6454V8.9583h1.0889v5.1454h-1.6758l-1.3982-3.6476v3.6476h-1.0889V8.9583z M26.9138,8.9583
			h1.1602v3.2299c0,0.6678,0.3018,0.9787,0.9502,0.9787c0.6104,0,0.9336-0.3329,0.9336-0.9635V8.9583h1.1123v3.2677
			c0,1.1772-0.8252,1.938-2.1025,1.938c-1.3633,0-2.0537-0.6292-2.0537-1.8699V8.9583z M22.7031,19
			c0.0562-0.1693,0.1919-0.3804,0.5026-0.5409c1.4244-0.8345,16.0449-0.8345,17.4694,0c0.3105,0.1605,0.4464,0.3716,0.5026,0.5409
			c0.0712,0.4531,0.1417,1.0323,0.2013,1.684C39.0718,20.1467,36.2573,20,31.9634,20h-0.0002c-4.3032,0-7.1211,0.1471-9.4312,0.6873
			C22.5968,19.8647,22.6658,19.2374,22.7031,19z M32.381,49.3398c-2.3003-1.75-6.5919-5.5302-6.1588-9.0224
			c0.2371-1.9129,0.0408-0.5492,0.8235-5.4371c-2.26-2.1838-3.9207-4.6303-4.4993-7.9897c-0.1117-0.6479-0.158-1.4779-0.1658-2.3546
			c0.0957,0.34,0.2871,0.6603,0.814,0.8722l5.087,1.9695c0.4667,0.1876,1.0092,0.0455,1.3059-0.342l1.4225-1.8578
			c0.1064-0.1389,0.2771-0.2212,0.459-0.2212h0.9888c0.1818,0,0.3525,0.0823,0.4589,0.2212l1.4225,1.8578
			c0.2969,0.3876,0.8392,0.5297,1.3059,0.342l5.087-1.9695c0.35-0.1407,0.6659-0.396,0.7899-0.7965
			c-0.0186,0.8518-0.0718,1.688-0.1843,2.4362c-0.6023,4.0027-3.2908,6.6743-5.6194,8.6561
			c-0.7806,0.6644-2.2499,1.1066-3.7188,1.1055c-1.0627-0.0008-2.1255-0.2865-2.9271-0.6349
			c0.6138,0.9305,1.6553,2.0744,3.5848,2.5851c3.1548,0.8349,5.4595-0.9139,5.4595-0.9139s0.2827,1.9133,0.2744,2.4157
			C38.7179,43.7497,34.8344,47.5783,32.381,49.3398z"/>
	</g>
</g>
</svg>
