<?xml version="1.0" encoding="utf-8"?>
<!-- Generator: Adobe Illustrator 24.1.3, SVG Export Plug-In . SVG Version: 6.00 Build 0)  -->
<svg version="1.1" xmlns="http://www.w3.org/2000/svg" xmlns:xlink="http://www.w3.org/1999/xlink" x="0px" y="0px"
	 viewBox="0 0 64 64" style="enable-background:new 0 0 64 64;" xml:space="preserve">
<style type="text/css">
	.st0{fill:none;}
</style>
<g id="Box">
	<rect class="st0" width="64" height="64"/>
</g>
<g id="Icon">
	<g>
		<path d="M57.67,18.35c-0.91-7.73-5.07-14.31-10.45-14.09c-5.56,0.23-9.56,8.57-8.63,17.66c0.91,8.9,3.65,10.52,4.29,15.43
			c2.95,0.92,6.73,2.1,6.94,2.16c0.32,0.1,0.24,0.33,0.21,0.39l-8.36-0.87c0,0-0.89,4.55-0.91,8.31c-0.02,3.79,2.11,7.09,6.08,7.57
			c4.1,0.5,6.76-2.37,7.57-6.08c1.46-6.67-0.11-5,2.4-18.53C57.47,27.07,58.15,22.39,57.67,18.35z"/>
		<path d="M27.24,43.44c-3.63-7.59-0.33-7.31-2.52-17.67c-1.89-8.94-8.24-15.65-13.61-14.18c-5.2,1.43-7.15,8.96-5.66,16.6
			c1.69,8.7,7.59,13.64,9.51,18.29c2.96-0.67,6.59-1.5,6.79-1.54c0.33-0.07,0.37,0.17,0.38,0.23l-7.67,3.43
			c0.03,0.08,1.5,4.36,3.4,7.63c1.9,3.28,5.32,5.21,9.07,3.48c3.63-1.67,4.65-5.46,3.48-9.07C29.47,47.77,27.84,44.58,27.24,43.44z"
			/>
	</g>
</g>
</svg>
