<?xml version="1.0" encoding="utf-8"?>
<!-- Generator: Adobe Illustrator 18.0.0, SVG Export Plug-In . SVG Version: 6.00 Build 0)  -->
<svg version="1.2" baseProfile="tiny" xmlns="http://www.w3.org/2000/svg" xmlns:xlink="http://www.w3.org/1999/xlink" x="0px"
	 y="0px" width="64px" height="64px" viewBox="0 0 64 64" xml:space="preserve">
<g id="_x36_4px">
	<rect fill="none" width="64" height="64"/>
</g>
<g id="icon">
	<g>
		<path d="M26.5036,8.6433c2.0905,0,3.3-1.4785,3.3-3.6075c0-2.4249-1.264-3.7258-3.3-3.7258c-2.1448,0-3.3,1.5376-3.3,3.7258
			C23.2036,7.3425,24.4139,8.6433,26.5036,8.6433z"/>
		<path d="M37.5036,8.6433c2.0905,0,3.3-1.4785,3.3-3.6075c0-2.4249-1.264-3.7258-3.3-3.7258c-2.1448,0-3.3,1.5376-3.3,3.7258
			C34.2036,7.3425,35.4139,8.6433,37.5036,8.6433z"/>
		<path d="M52.23,44.7586c-2.7688,0.9518-6.3674,2.413-9.2219,3.6127c0.0737,0.4328,0.0837,0.8923,0.012,1.3787
			c-0.4146,2.8079-2.8201,4.5833-6.2402,4.7416c-7.7328,0.3578-12.5348-1.5577-13.5314-1.9618
			c-0.2863-0.1161-0.318-0.2576-0.2924-0.3882c0.0015-0.0012,0.0112-0.0091,0.0112-0.0091
			c5.5945,0.9645,9.1205,1.1222,13.4634,0.4237c3.2949-0.53,4.489-2.106,4.4612-3.4058c-0.027-1.2701-0.9266-2.0373-2.9519-2.1077
			c-6.8901-0.2395-10.9187-1.0081-16.8242-1.8688c-4.1041-0.5981-8.0618,0.4671-11.4326,2.6266
			c-3.1633,2.0265-4.0403,2.9852-4.0403,2.9852l5.7858,11.1429l7.4819-3.0415c0.8527-0.3466,1.7843-0.4511,2.6925-0.3021
			l10.2607,2.283c2.2893,0.3757,4.6379-0.0563,6.6438-1.2219L58.9871,46.8C58.9871,46.8,57.9828,42.781,52.23,44.7586z"/>
		<path d="M21,27.7149c0,0,0-7.3284,0-8.7149c0-1,0-2,0.4333-2.8088c0.2212-0.4129,0.5094-0.4773,0.5667-0.4086V44
			c2.0392,0,3.4034-1.1217,3.5776-3.3745c0,0,0.4343-13.4573,0.44-13.6055c0.0057-0.1483,0.2454-0.341,0.486-0.341
			s0.481,0.1927,0.4867,0.341s0.4393,13.6055,0.4393,13.6055C27.6045,42.8875,28.9763,44,31,44V14h2v30
			c2.0392,0,3.4034-1.1217,3.5776-3.3745c0,0,0.4343-13.4573,0.44-13.6055c0.0057-0.1483,0.2454-0.341,0.486-0.341
			s0.481,0.1927,0.4867,0.341s0.4393,13.6055,0.4393,13.6055C38.6045,42.8875,39.9763,44,42,44V15.0333
			c0.0917-0.0802,0.4945-0.053,0.574,0.2174c0.4411,1.5014,0.5943,3.9076,0.5943,6.4335c0,1.3865,0,5.7245,0,5.7245
			c0.9727,0,2.45-0.5995,2.58-2.7149c0.2493-4.0521,0.6995-10.84-2.2189-13.3181C42.0549,10.1237,38.4548,10,36.4271,10L32,10.0014
			l-4.5,0.0015c-1.9468,0-5.511,0.0914-6.9865,1.3378C17.5569,13.8385,18.0083,20.9298,18.259,25
			C18.3893,27.1154,20.0267,27.7149,21,27.7149z"/>
	</g>
</g>
</svg>
