<svg height="64" viewBox="0 0 64 64" width="64" xmlns="http://www.w3.org/2000/svg"><path d="m0 0h64v64h-64z" fill="none"/><path d="m47.8467 27.8899c-.5088-6.3293-2.1689-20.4192-7.0684-25.2905-1.0268-1.021-2.7783-.2853-2.7783 1.1627v55.2377c0 1.1291 1.871 2.0099 3 2 3.102-.0271 7.6316-2.1052 3-29.9999l.9376.0078c1.6965.0143 3.0451-1.4267 2.9091-3.1178z"/><path d="m30.9932 2c-.5606 0-.9637.4388-.9932.9986l-.9282 13.5609c-.0607.53-.5252.9405-1.0651.9405-.5606 0-1.0751-.4388-1.1046-.9986l-.9021-13.5028c-.0294-.5574-.4431-.9935-1-.9973-.5569.0038-.9706.4399-1 .9973l-.9022 13.5028c-.0295.5598-.544.9986-1.1046.9986-.5399 0-1.0043-.4105-1.0651-.9405l-.9281-13.5609c-.0295-.5598-.4326-.9986-.9932-.9986s-.9773.4388-1.0068.9986l-1 15.0014c0 2.3749 2.3174 4.5995 5.3988 5.436-1.145 14.9524-1.892 34.2234-1.892 35.064 0 1.3807 2.0079 2.5 4.4932 2.5s4.4966-1.1193 4.4966-2.5c0-.8115-.6858-18.8024-1.7642-33.4998 0 0-2.0383-.1296-3.1525-.8984-.1965-.1356-.2393-.2297-.2344-.3383.2168.0145.4343.0265.6545.0267 4.2843-.0029 8-2.7808 8-5.7902l-1-15.0014c-.0295-.5598-.4462-.9986-1.0068-.9986z"/></svg>