<?xml version="1.0" encoding="utf-8"?>
<!-- Generator: Adobe Illustrator 19.1.0, SVG Export Plug-In . SVG Version: 6.00 Build 0)  -->
<svg version="1.2" baseProfile="tiny" xmlns="http://www.w3.org/2000/svg" xmlns:xlink="http://www.w3.org/1999/xlink" x="0px"
	 y="0px" width="64px" height="64px" viewBox="0 0 64 64" xml:space="preserve">
<g id="Box">
	<rect fill="none" width="64" height="64"/>
</g>
<g id="Icon">
	<g>
		<path d="M41.2615,41h-0.5969c-0.0573-0.5096-0.1335-1.1582-0.2742-1.8632c-0.203-1.1073-0.5592-2.2828-1.3352-3.4258
			c-0.1863-0.2745-0.4542-0.4693-0.7556-0.587c-0.0074-0.1004-0.0258-0.2004-0.0582-0.2978l-0.2722-0.8163
			c-0.151-0.453-0.5055-0.7945-0.9419-0.937C36.882,33.0254,36.7274,33,36.5682,33h-9.1365c-0.1592,0-0.3138,0.0254-0.4592,0.0729
			c-0.4365,0.1425-0.7909,0.4839-0.9419,0.937l-0.2722,0.8163c-0.0324,0.0974-0.0508,0.1974-0.0582,0.2978
			c-0.3013,0.1177-0.5692,0.3125-0.7556,0.587c-0.776,1.143-1.1323,2.3185-1.3352,3.4258c-0.1406,0.705-0.2169,1.3536-0.2742,1.8632
			h-0.5969C22.3306,41,22,41.2975,22,41.6644V43.9v0.4219c0,0.3669,0.3306,0.6644,0.7385,0.6644h0.2704
			C23.0031,45.0889,23,45.1484,23,45.1484c0,1.3306,0,1.7183,0,1.8156c0,0.0234,0,0.0313,0,0.03c0,0.1657,0,1.1827,0,6.3184
			c0,0,0,2.5384,0.1686,3.2465c0.0612,0.2576,0.332,0.441,0.644,0.441h2.3748c0.312,0,0.5829-0.1834,0.644-0.441
			C27.0255,55.7437,27,54,27,54h4.5392h0.4113H37c0,0-0.0255,1.7437,0.1686,2.559c0.0611,0.2576,0.332,0.441,0.644,0.441h2.3748
			c0.3121,0,0.5829-0.1834,0.644-0.441C41,55.8509,41,53.3125,41,53.3125c0-5.1357,0-6.1527,0-6.3184c0-0.0198,0-0.0291,0-0.03
			c0-0.0974,0-0.485,0-1.8156c0,0-0.0031-0.0596-0.0089-0.1621h0.2704c0.4078,0,0.7385-0.2975,0.7385-0.6644V43.9v-2.2356
			C42,41.2975,41.6694,41,41.2615,41z M28,51.75c0,0.1381-0.1119,0.25-0.25,0.25h-2.5C25.1119,52,25,51.8881,25,51.75v-1.5
			c0-0.1381,0.1119-0.25,0.25-0.25h2.5c0.1381,0,0.25,0.1119,0.25,0.25V51.75z M26.5674,45h-1.1778
			c-0.2307,0-0.3937-0.1993-0.3896-0.4344c0.0011-0.0652,0.0047-0.1413,0.0067-0.2101c0.0009,0.0003,0.0019,0.0004,0.0028,0.0007
			c0.0403-1.5295,0.2553-3.4341,0.5104-5.0046c0.0009-0.0056,0.0041-0.0102,0.0052-0.0157
			c0.0424-0.1827,0.1765-0.3212,0.3575-0.3342c0.0091-0.0007,0.0168-0.0051,0.0261-0.0051h12.1826
			c0.0093,0,0.017,0.0044,0.0261,0.0051c0.181,0.013,0.3151,0.1516,0.3575,0.3342c0.0011,0.0056,0.0043,0.0101,0.0052,0.0157
			c0.2551,1.5705,0.47,3.475,0.5104,5.0046c0.0009-0.0003,0.0019-0.0004,0.0028-0.0007c0.002,0.0688,0.0056,0.1449,0.0067,0.2101
			C39.0041,44.8007,38.841,45,38.6104,45h-1.1778H26.5674z M39,51.75c0,0.1381-0.1119,0.25-0.25,0.25h-2.5
			C36.1119,52,36,51.8881,36,51.75v-1.5c0.0977-0.0977,0.1523-0.1523,0.25-0.25h2.5c0.1381,0,0.25,0.1119,0.25,0.25V51.75z"/>
		<path d="M32,9L8,21v36h11V31h26v26h11V21L32,9z M36.4991,25.2042h-2.9984c-0.0716,0.7432-0.6905,1.3263-1.4525,1.3263
			s-1.3809-0.5831-1.4525-1.3263h-3.1176c-0.4101,0-0.6458-0.4665-0.4025-0.7966l0.668-0.9065
			c0.2873-0.3899,0.4759-0.8435,0.5497-1.3221l0.5754-3.7292c0.3407-1.3099,1.6326-2.2356,3.1199-2.2356h0.0001
			c1.4873,0,2.7792,0.9257,3.1198,2.2356l0.5754,3.7292c0.0739,0.4786,0.2625,0.9323,0.5497,1.3221l0.668,0.9065
			C37.1449,24.7377,36.9092,25.2042,36.4991,25.2042z"/>
	</g>
</g>
</svg>
