<?xml version="1.0" encoding="utf-8"?>
<!-- Generator: Adobe Illustrator 19.1.0, SVG Export Plug-In . SVG Version: 6.00 Build 0)  -->
<svg version="1.2" baseProfile="tiny" xmlns="http://www.w3.org/2000/svg" xmlns:xlink="http://www.w3.org/1999/xlink" x="0px"
	 y="0px" width="64px" height="64px" viewBox="0 0 64 64" xml:space="preserve">
<g id="Box">
	<rect fill="none" width="64" height="64"/>
</g>
<g id="Icon">
	<g>
		<polygon points="38.8304,21.7285 32.5947,20.0268 31.1989,16.9871 30.4161,21.4979 26.0369,22.8156 20.77,21.684 25.5865,25.1611 
			28.6444,24.2015 28.7341,27.6737 31.8793,22.9716 40.6531,23.8242 41.9152,20.1426 46.6252,19.6856 41.0139,18.0065 		"/>
		<path d="M58.1142,19.6382l-0.9969-0.0779c-0.551-0.0431-1.0319,0.3685-1.0749,0.919l-0.7794,9.9696
			c-0.043,0.5505,0.368,1.0318,0.919,1.0749l0.9969,0.0779c1.1011,0.0861,2.0637-0.7369,2.1498-1.838l0.6235-7.9756
			C60.0383,20.687,59.2153,19.7244,58.1142,19.6382z"/>
		<path d="M9.4028,26.8636l0.7794-9.9695c0.0431-0.5505-0.368-1.0319-0.919-1.075l-0.9969-0.0779
			c-1.1011-0.0861-2.0637,0.7369-2.1498,1.8381L5.493,25.5549c-0.0861,1.1011,0.7369,2.0637,1.838,2.1498l0.9969,0.0779
			C8.879,27.8257,9.3598,27.4141,9.4028,26.8636z"/>
		<path d="M51.2606,7.8196c-0.6532-1.155-1.838-1.9006-3.161-2.004c-3.0571-0.239-8.9727-0.7015-13.8961-1.0864L20.3094,3.643
			c-1.3232-0.1034-2.6113,0.4488-3.436,1.4882c-1.5756,1.9853-3.2056,5.4704-3.8869,7.9698
			c-1.4062,5.1561-2.6646,14.8374-2.6646,14.8374l-0.3118,3.9879L8.3734,52.8624c0,0-0.325,4.1567-0.0501,5.9277
			c0.0995,0.6444,0.7244,1.1464,1.4847,1.2058L9.8595,60h5.3815c0.7011,0,1.0847-0.1047,1.2332-0.5726
			c0.3276-1.0326,0.5792-2.9545,0.7249-4.3173c0,0-5.2949-1.5433-5.4723-1.6044c-0.3048-0.105-0.3328-0.2897-0.2694-0.4022
			l37.698,2.9472c0.0433,0.1444-0.0234,0.2944-0.3408,0.3508c-0.1847,0.0328-5.6429,0.7391-5.6429,0.7391
			c-0.0004,0.0087-0.0008,0.0189-0.0012,0.0276C42.962,58.0494,42,58.3715,42,58.9745C42,59.5892,42.4731,60,43,60h9
			c0.5269,0,1-0.4108,1-1.0255c0-0.5594-0.7977-0.8691-0.8466-1.7331c0.0554-0.5663,0.0861-0.9496,0.0861-0.9496l1.6368-20.9361
			l0.3118-3.9879c0,0,0.2013-7.9249-0.3264-15.0713C53.6709,13.7134,52.5085,10.0256,51.2606,7.8196z M18.6547,49.6541
			c-0.043,0.5505-0.5239,0.9621-1.0749,0.919l-4.9848-0.3897c-0.551-0.0431-0.962-0.5244-0.919-1.0749l0.2338-2.9909
			c0.043-0.5505,0.5239-0.9621,1.0749-0.919l4.9848,0.3897c0.551,0.0431,0.962,0.5244,0.919,1.0749L18.6547,49.6541z
			 M39.9026,47.303L21.9573,45.9l-0.2429-2.0251l18.7428,1.4653L39.9026,47.303z M41.0119,43.3775l-19.5404-1.5276l-0.2429-2.0251
			l20.338,1.59L41.0119,43.3775z M20.9857,37.7997l-0.2429-2.0251l21.9331,1.7147l-0.5547,1.9628L20.9857,37.7997z M49.5604,52.0703
			c-0.043,0.5505-0.5239,0.962-1.0749,0.919l-4.9848-0.3897c-0.551-0.0431-0.962-0.5244-0.919-1.0749l0.2338-2.9909
			c0.043-0.5505,0.5239-0.9621,1.0749-0.919l4.9848,0.3897c0.551,0.0431,0.962,0.5244,0.919,1.0749L49.5604,52.0703z
			 M50.1838,29.9626c-0.0361,0.5879-0.4908,1.0538-1.0779,1.0079L15.405,28.3359c-0.588-0.046-0.9648-0.5764-0.9082-1.1632
			c0.3497-3.645,1.3986-9.5812,2.3391-12.8779c0.1403-0.4919,0.5493-0.8499,1.0604-0.8099l31.0557,2.4279
			c0.5111,0.04,0.8783,0.4551,0.9217,0.9649C50.2319,21.0281,50.4234,26.0583,50.1838,29.9626z"/>
	</g>
</g>
</svg>
