<?xml version="1.0" encoding="utf-8"?>
<!-- Generator: Adobe Illustrator 18.1.1, SVG Export Plug-In . SVG Version: 6.00 Build 0)  -->
<svg version="1.2" baseProfile="tiny" xmlns="http://www.w3.org/2000/svg" xmlns:xlink="http://www.w3.org/1999/xlink" x="0px"
	 y="0px" width="64px" height="64px" viewBox="0 0 64 64" xml:space="preserve">
<g id="Box">
	<rect fill="none" width="64" height="64"/>
</g>
<g id="Icon">
	<g>
		<path d="M55.163,44.7716c-0.0895-1.5222-1.3007-2.7379-2.8234-2.8181c-2.6915-0.1417-7.0622-0.6259-11.3912-2.1788
			c-0.0591-0.0414-0.128-0.0831-0.1794-0.1243c-0.0966-0.8489-0.2382-1.8883-0.385-2.8905c2.8209,0.2978,5.2188,0.64,6.9231,1.2385
			c0.375,0.1318,0.771-0.1191,0.875-0.5381c1.2578-5.0869,1.8078-8.516,1.8078-12.2415c0-7.4844-2.8127-15.4792-7.1271-18.0651
			C40.1123,5.5052,37.02,6.1055,37.02,6.1055s-2.9731-2.8631-8.1729-1.8836c-8.4834,1.5986-14.8408,9.7429-14.8408,20.9969
			c0,3.7255,0.56,7.1546,1.8178,12.2415c0.1035,0.419,0.5,0.6699,0.875,0.5381c1.8217-0.6398,4.2865-1.0065,7.3642-1.3018
			c-0.1028,0.865-0.2158,1.8299-0.3281,2.8105c-4.5482,1.7565-9.2411,2.2973-12.075,2.4465
			c-1.5228,0.0801-2.7339,1.2958-2.8234,2.8181L8,59h24h24L55.163,44.7716z M32.0503,56.75c0,0-6.4171-6.9147-8.0676-13.929
			c1.933-0.6949,2.3874-1.9549,2.4377-2.3981c0.0656-0.5789,0.5774-5.3235,0.5774-5.3235c-2.518-2.48-3.5982-5.5714-4.0564-8.2801
			c-0.293-1.7298-0.2532-3.3401-0.1641-4.4102c4.8018-1.8932,11.6046-5.7473,14.2355-9.0572c0,0,0.3203,0.0146,0.1174,0.5033
			c-0.3447,0.8305-0.8484,1.8115-1.5488,2.9773c1.2409,2.6346,3.4734,4.5625,5.676,5.9304c0.0662,1.034,0.0662,2.4655-0.1989,4.0564
			c-0.5298,3.1827-2.8208,7.626-5.3403,9.1846c-1.7213,1.0648-4.8734,1.2337-6.7116,0.4403
			c0.4235,0.8396,1.2729,1.8373,3.1547,2.3063c2.5354,0.6314,4.852-0.4047,5.4494-0.7518c0.1117,0.7949,0.2157,1.591,0.2886,2.2786
			c0.0458,0.4327,0.2339,1.8287,2.2159,2.6458C37.7813,50.3043,32.0503,56.75,32.0503,56.75z"/>
		<circle cx="27" cy="44" r="1.5"/>
		<circle cx="30.1" cy="46.1" r="1.5"/>
		<circle cx="33.9" cy="46.1" r="1.5"/>
		<circle cx="37" cy="44" r="1.5"/>
	</g>
</g>
</svg>
