<svg height="64" viewBox="0 0 64 64" width="64" xmlns="http://www.w3.org/2000/svg"><path d="m0 0h64v64h-64z" fill="none"/><path d="m30.5417 57-4.9117-16.84c-.3733-1.28-1.5467-2.16-2.88-2.16h-19.4833c-1.1333 0-1.9493 1.088-1.632 2.176l5.7353 19.664c.3733 1.28 1.5467 2.16 2.88 2.16h32.75c2.7614 0 5-2.2386 5-5z"/><path d="m56.855 42.2576c-2.2809-2.3838-8.5297-3.8482-10.2179-5.1995-.0896-.7872-.2209-1.7509-.357-2.6802 2.6157.2761 4.8391.5934 6.4194 1.1484.3477.1222.7149-.1105.8113-.499 1.1663-4.7169 1.6763-7.8965 1.6763-11.351 0-6.9399-2.6081-14.3531-6.6086-16.7509-2.5504-1.5286-5.4177-.9719-5.4177-.9719s-2.7568-2.6547-7.5782-1.7465c-7.8662 1.4823-13.7611 9.0341-13.7611 19.4694 0 3.4545.5192 6.6341 1.6855 11.351.0959.3885.4636.6212.8113.499 1.6891-.5933 3.9747-.9333 6.8284-1.2071-.1036.8718-.2183 1.8492-.3312 2.8403-.6159.4397-2.0284.9203-3.6614 1.5026.1589.2973.299.6066.3956.9385l4.4923 15.3993h3.958c0-1.6569 2.2386-3.12 5-3.12s5 1.4631 5 3.12h2c1.1045 0 2 .8955 2 2 0 1.9579-.8104 3.7283-2.1105 5h13.8705s-2.3474-17.0684-4.905-19.7424zm-18.3023 4.3401c-1.3782-.5913-5.6962-2.6713-7.7825-6.3043 2.6718-1.1065 2.5156-2.108 2.5622-2.519.0609-.5368.5354-4.9362.5354-4.9362-2.3348-2.2996-3.3364-5.1661-3.7613-7.6777-.2717-1.6039-.2348-3.0971-.1522-4.0894 4.4524-1.7555 10.7603-5.3292 13.1999-8.3983 0 0 .2969.0136.1089.4667-.3196.7701-.7867 1.6797-1.4361 2.7607 1.1506 2.4429 3.2207 4.2306 5.2631 5.499.0614.9588.0614 2.2861-.1844 3.7613-.4913 2.9512-2.6156 7.0712-4.9518 8.5164-1.5959.9874-4.5189 1.1439-6.2233.4083.3927.7785 1.1804 1.7036 2.9252 2.1385 2.351.5854 4.499-.3753 5.053-.6971.1036.7371.2 1.4753.2676 2.1129.0426.4012.1467 1.3846 2.8995 2.6703-2.1508 3.7335-6.8613 5.7382-8.3232 6.2879z"/></svg>