<?xml version="1.0" encoding="utf-8"?>
<!-- Generator: Adobe Illustrator 21.0.2, SVG Export Plug-In . SVG Version: 6.00 Build 0)  -->
<svg version="1.2" baseProfile="tiny" xmlns="http://www.w3.org/2000/svg" xmlns:xlink="http://www.w3.org/1999/xlink" x="0px"
	 y="0px" width="64px" height="64px" viewBox="0 0 64 64" xml:space="preserve">
<g id="Box">
	<rect fill="none" width="64" height="64"/>
</g>
<g id="Icon">
	<g>
		<path d="M52.5,45c-2.4-2.5-7.6-4.6-10.9-5.7c1.1-1.3,1.8-3.1,2.1-5.3c1.2-0.9,2.2-2.8,2.3-6.6c0-1.5-0.3-3.3-1.4-4.5
			c0.8-2.2,0.4-5.7-1.5-8.7c-0.8-1.3-2-2.7-4-3.8c0.2-0.5,0.3-1.1,0.3-1.7c0-3.2-3.3-5.8-7.4-5.8s-7.4,2.5-7.4,5.8
			c0,0.6,0.1,1.2,0.3,1.7c-2.1,1-3.2,2.5-4,3.8c-1.9,3-2.3,6.5-1.5,8.7c-1.1,1.2-1.4,3-1.4,4.5c0.1,3.8,1.1,5.7,2.3,6.6
			c0.3,2.1,1.1,3.9,2.1,5.2c-3.2,1.1-8.4,3.1-10.8,5.8C7,50,7,59,7,59h50C57,59,57.2,49.8,52.5,45z M32,6.1c2.4,0,4.4,1.3,4.4,2.8
			c0,0.2-0.1,0.5-0.2,0.7C35,9.2,33.6,9,32,9c-1.6,0-3,0.2-4.3,0.5c-0.1-0.2-0.2-0.4-0.2-0.7C27.6,7.4,29.6,6.1,32,6.1z M23.4,15.9
			c1.7-2.6,4.5-4,8.6-4s6.9,1.5,8.6,4c1.2,1.8,1.6,3.8,1.4,5.2c-2.6-0.4-5.9-1.9-10-6.5c-2.7,3-6,5.9-10,6.5
			C21.8,19.8,22.2,17.8,23.4,15.9z M38.9,26H25.2l0,0l-1.6-2.2c3.7-0.9,6.8-3.4,8.4-4.8c1.6,1.5,4.7,4,8.4,4.8L38.9,26L38.9,26z
			 M39,27.5c-0.2,1.5-1,2.4-2.3,2.4c-1.3,0-2.1-0.8-2.3-2.4H39z M29.6,27.5c-0.2,1.6-0.9,2.4-2.3,2.4c-1.3,0-2.1-0.9-2.3-2.4H29.6z
			 M32,51.5c-1.7-0.8-7.1-3.6-9.9-9c0.9-0.3,2.2-0.6,3.2-1.5c0.6-0.5,1.2-1.3,1.5-2.4c-2.3-0.3-3.7-3.4-3.7-7.2
			c-0.2,0.2-0.5,0.3-0.6,0.3c-1,0-1.4-2.3-1.4-4.3c0-1.3,0.4-2.3,0.8-2.6l1.7,2.4c0.1,3.1,2,4.2,3.8,4.2c2.2,0,3.5-1.4,3.8-3.9H33
			c0.2,2.4,1.6,3.9,3.8,3.9c1.8,0,3.6-1.1,3.8-4.2l1.7-2.3c0.4,0.2,0.8,1.3,0.8,2.5c-0.1,2-0.5,4.3-1.4,4.3c-0.2,0-0.4-0.1-0.6-0.3
			c0,4-1.5,7.2-4,7.3C35.6,40.6,34.2,41,32,41c-1.2,0-2.1-0.1-2.9-0.5c0.6,0.9,1.7,2.1,3.6,2.6c2.4,0.6,4.5-0.1,5.9-1.6
			c1,0.3,2.1,0.7,3.3,1.1C39.1,47.9,33.7,50.7,32,51.5z"/>
	</g>
</g>
</svg>
