<svg xmlns="http://www.w3.org/2000/svg" width="48" height="43" xmlns:v="https://vecta.io/nano"><path d="M27.34 2.938l19.422 34.34C48.199 39.84 46.359 43 43.441 43H4.582c-2.941 0-4.781-3.16-3.34-5.723L20.66 2.938c1.48-2.598 5.219-2.598 6.68 0zM21.801 30.66c-.48.598-.719 1.359-.719 2.242 0 1.016.258 1.777.758 2.277.5.52 1.242.781 2.199.781.98 0 1.699-.301 2.18-.879s.723-1.32.723-2.18c0-1.039-.262-1.82-.762-2.363-.5-.52-1.238-.797-2.199-.797-.98 0-1.699.297-2.18.918zm4.859-18.699l-4.961.398h-.02v15.98l4.539-.102V22.98zm0 0" fill-rule="evenodd" fill="rgb(100%,71.372549%,7.058824%)"/></svg>