<?xml version="1.0" encoding="utf-8"?>
<!-- Generator: Adobe Illustrator 19.1.0, SVG Export Plug-In . SVG Version: 6.00 Build 0)  -->
<svg version="1.2" baseProfile="tiny" xmlns="http://www.w3.org/2000/svg" xmlns:xlink="http://www.w3.org/1999/xlink" x="0px"
	 y="0px" width="64px" height="64px" viewBox="0 0 64 64" xml:space="preserve">
<g id="Box">
	<rect fill="none" width="64" height="64"/>
</g>
<g id="Icon">
	<g>
		<path d="M58.583,50.4746l-24.207-41C33.8369,8.5605,32.8545,8,31.793,8c-0.0039,0-0.0078,0-0.0117,0
			c-1.0654,0.0039-2.0479,0.5732-2.583,1.4941l-23.793,41c-0.5381,0.9277-0.54,2.0732-0.0049,3.0029S6.9268,55,8,55h48
			c1.0771,0,2.0713-0.5771,2.6055-1.5127S59.1309,51.4023,58.583,50.4746z M13.21,49l18.6055-32.0615L50.7451,49H13.21z"/>
		<path d="M32.3434,30.1878c0.9119,0.5417,1.8188,0.2167,2.3652-0.7028c0.6223-1.0473,0.4044-1.9366-0.4836-2.4644
			c-0.9355-0.5558-1.834-0.1912-2.3954,0.754C31.2377,28.7708,31.4317,29.6461,32.3434,30.1878z"/>
		<path d="M33.2069,36.174c-0.2258-1.978,0.5414-3.1309,0.0223-4.2263c-0.2599-0.5486-1.7822-1.9523-3.2731-1.9017
			c-0.6931,0.0234-1.8619,0.2911-2.901,0.5375c-0.3032,0.0785-0.4282,0.1088-0.8193,0.3663
			c-0.6776,0.4532-1.4199,1.9801-1.6979,2.4602c-0.3476,0.6005-0.2773,1.224,0.1263,1.7941c0,0,0.1908-0.2786,0.4637-0.6671
			l1.572,1.0676c0,0-0.0497,0.1149-0.2308,0.6207c-0.1812,0.5057-2.9964,9.0138-3.0925,9.3009
			c-0.486,1.4508,0.6251,2.1631,0.7947,2.2619c0.0488-0.1089,2.694-5.9742,3.7511-8.3181c0.5006,0.9476,1.4585,2.761,1.4585,2.761
			c0.2136,1.2664,0.407,2.5103,0.6958,4.1948c0.2753,1.6058,1.7397,1.5515,1.8032,1.5483
			c-0.0662-2.3606-0.0925-3.3947-0.2004-5.5554c-0.0445-0.607-0.856-2.5261-1.8236-4.6705l6.4534,4.383
			c0.0869-0.1481,0.212-0.3602,0.3582-0.6039l-2.7537-1.8702C33.6818,38.4905,33.2069,36.174,33.2069,36.174z M26.9791,34.947
			l-1.4456-0.9818c0.5689-0.7943,1.2405-1.6946,1.4301-1.7934c0.219-0.1136,0.8793-0.0325,1.3854,0.0532
			C27.8018,33.1595,27.3053,34.2314,26.9791,34.947z M30.1238,37.0829c0.4866-0.8588,1.0872-1.9025,1.6004-2.7552
			c-0.0007,0.6637,0.0555,1.5974,0.1252,2.0574c0.0623,0.3299,0.3754,1.5873,0.5817,2.265L30.1238,37.0829z"/>
		<path d="M32.9186,47.98H45.25c0,0-2.456-5.265-4.768-7.9832c-0.6125-0.72-1.307-0.9218-1.9372-0.0938
			c-0.5724,0.7522-1.757,2.7983-1.757,2.7983s-1.3723,0.5514-2.0624,1.3049C33.7333,45.0895,32.8865,48.0801,32.9186,47.98z"/>
	</g>
</g>
</svg>
