<?xml version="1.0" encoding="utf-8"?>
<!-- Generator: Adobe Illustrator 19.1.0, SVG Export Plug-In . SVG Version: 6.00 Build 0)  -->
<svg version="1.2" baseProfile="tiny" xmlns="http://www.w3.org/2000/svg" xmlns:xlink="http://www.w3.org/1999/xlink" x="0px"
	 y="0px" width="64px" height="64px" viewBox="0 0 64 64" xml:space="preserve">
<g id="_x36_4px_Box">
	<rect fill="none" width="64" height="64"/>
</g>
<g id="Icon">
	<g>
		<path d="M58.583,50.4746l-24.207-41C33.8369,8.5605,32.8545,8,31.793,8c-0.0039,0-0.0078,0-0.0117,0
			c-1.0655,0.0039-2.0479,0.5732-2.5831,1.4941l-23.7929,41c-0.5381,0.9278-0.5401,2.0733-0.0049,3.0031
			C5.9355,54.4268,6.9268,55,8,55h48c1.0771,0,2.0713-0.5771,2.6055-1.5127C59.1396,52.5518,59.1309,51.4023,58.583,50.4746z
			 M13.21,49l18.6054-32.0615L50.7451,49H13.21z"/>
		<path d="M22,37h1v2h2v-2c5.066,0,8.934,0,14,0v2h2v-2h1v-2c-7.2372,0-12.7628,0-20,0V37z"/>
		<polygon points="31,29 29.3774,29 27.6059,34 30.7222,34 		"/>
		<polygon points="36.3941,34 34.6226,29 33,29 33.2778,34 		"/>
		<polygon points="23,47 30,47 30.5,38 26.1887,38 		"/>
		<polygon points="33.5,38 34,47 41,47 37.8113,38 		"/>
	</g>
</g>
</svg>
