<svg enable-background="new 0 0 64 64" height="64" viewBox="0 0 64 64" width="64" xmlns="http://www.w3.org/2000/svg"><path d="m0 0h64v64h-64z" fill="none"/><path d="m29.6 13.6 2.3 2.6-.6-2.6c-1-4.1 6-5.8 2.1-10.1l-2.3-2.6.6 2.6c1 4.1-5.9 5.8-2.1 10.1zm12 0 2.3 2.6-.6-2.6c-1-4.1 6-5.8 2.1-10.1l-2.3-2.6.6 2.6c1 4.1-5.9 5.8-2.1 10.1zm17.9 4.4h-3.5c-.6 0-1 .4-1 1v5c-.1 0-.3.1-.4-.2-.1-.2-.5-2.2-.8-3.8h-1.8c-.3-1.5-1.5-2.8-3.1-3s-3 .8-3.6 2.2c-.4 1.1-2.1 1.1-2.5 0-.6-1.3-1.8-2.2-3.3-2.2s-2.7.9-3.2 2.2c-.4 1.1-2.1 1.1-2.5 0-.6-1.3-1.8-2.2-3.3-2.2s-2.7.9-3.2 2.2c-.4 1.1-2.1 1.1-2.5 0-.6-1.3-1.8-2.2-3.3-2.2s-2.7.9-3.2 2.2c-.4 1.1-2.1 1.1-2.5 0-.6-1.4-2-2.4-3.6-2.2-1.9.2-3.2 1.8-3.2 3.7v.3h-2c-.8 0-1 .7-1 1.5s.2 1.5 1 1.5h2v33.3c0 1.8 1.3 3.5 3.1 3.6 1.6.2 3-.8 3.6-2.2.4-1.1 2.1-1.1 2.5 0 .5 1.3 1.8 2.2 3.2 2.2s2.7-.9 3.2-2.2c.4-1.1 2.1-1.1 2.5 0 .5 1.3 1.8 2.2 3.2 2.2s2.7-.9 3.2-2.2c.4-1.1 2.1-1.1 2.5 0 .5 1.3 1.8 2.2 3.2 2.2s2.7-.9 3.2-2.2c.4-1.1 2.1-1.1 2.5 0 .6 1.4 2 2.4 3.6 2.2 1.8-.2 3.1-1.8 3.1-3.6v-32.3h3v1c0 .6.4 1 1 1h3.5c1.9 0 2.5-2.6 2.5-4.5.4-1.9-.2-4.5-2.1-4.5zm-41.5 34c0 .6-.4 1-1 1s-1-.4-1-1v-26c0-.6.4-1 1-1s1 .4 1 1zm9 0c0 .6-.4 1-1 1s-1-.4-1-1v-26c0-.6.4-1 1-1s1 .4 1 1zm9 0c0 .6-.4 1-1 1s-1-.4-1-1v-26c0-.6.4-1 1-1s1 .4 1 1zm9 0c0 .6-.4 1-1 1s-1-.4-1-1v-26c0-.6.4-1 1-1s1 .4 1 1zm-27.4-38.4 2.3 2.6-.6-2.6c-1-4.1 6-5.8 2.1-10.1l-2.3-2.6.6 2.6c1 4.1-5.9 5.8-2.1 10.1z"/></svg>