<svg enable-background="new 0 0 64 64" viewBox="0 0 64 64" xmlns="http://www.w3.org/2000/svg"><path d="m0 0h64v64h-64z" fill="none"/><path d="m61.3 32c.6-.5.5-1.4-.2-1.7-3.2-1.5-5.6-2.9-10.5-7.3-3-2.7-7.9-4.8-12.4-4.8-7.3 0-10.6 2.4-20 6.9 2.9 3.4 6.7 5.6 6.7 5.6 0 .2-.2.3-.8.2-1.4-.2-4.9-1.7-7.8-5-2-2.3-2.6-4.6-4.4-6.5s-5-3.3-6.7-4c-.7-.3-1.5 0-1.9.7-1 1.9-2.3 5.7.4 9.1 3 3.8 7.5 4.5 10.4 7.3-1 .5-1.9 1.1-2.3 1.9-.9 1.8 1.4 4.4 1.4 4.4s-2.7 0-3.7 2.6c-.1.4.3.8.6.6l2.2-.8.2 1.3c0 .4.5.6.8.4l2-1.3.4 1.3c.1.3.4.5.7.3.9-.5 2.6-1.7 2.7-3.1 0-.4 0-1-.2-1.7 1.8 1.4 3.8 2.2 6.4 2.7.3.9.6 1.4.6 1.4s-2-.1-3.4 1.1c-.8.7-1.2 1.7-1.3 2.4-.1.4.3.7.7.5l2.4-1 .2 1.5c0 .4.4.6.8.4l2.2-1.4.4 1.4c.1.3.4.4.7.3 1-.5 3-1.8 3.5-3.3.2-.7.1-1.6-.1-2.6 5.6.3 13.1.3 16.8-.9.4.5.9.9 1.5 1.3 0 0-1.6 1.6-.6 3.8.2.3.6.4.8.1l1.8-2.2.7 1.7c.1.3.6.4.8.1l2-2.4 1 1.4c.2.3.6.3.8 0 .7-1.1 1.9-3.5.3-5.1-1.9-1.9-4.7-2.4-5.1-3.6-.1-.2 0-.5 0-.9 4.4-.4 7.1-2 8.5-3.1zm-54.8-11.2c-.7 0-1.2-.6-1.2-1.2s.6-1.2 1.2-1.2 1.2.6 1.2 1.2-.5 1.2-1.2 1.2z"/></svg>