<?xml version="1.0" encoding="utf-8"?>
<!-- Generator: Adobe Illustrator 17.1.0, SVG Export Plug-In . SVG Version: 6.00 Build 0)  -->
<svg version="1.2" baseProfile="tiny" xmlns="http://www.w3.org/2000/svg" xmlns:xlink="http://www.w3.org/1999/xlink" x="0px"
	 y="0px" width="64px" height="64px" viewBox="0 0 64 64" xml:space="preserve">
<g id="Box">
	<rect fill="none" width="64" height="64"/>
</g>
<g id="Icon">
	<g>
		<path d="M20.043,32.25c1.8793,0,4.4061-2.1797,6-3.3755c1.5582,1.1688,4.1201,3.3755,6,3.3755
			c1.2341,0,2.838-1.0033,3.8966-1.7974c-0.0505-7.9432,0.0469-22.1245,0.0469-23.2408C35.9865,5.875,30.9111,5,24.5267,5
			C14.4659,5,13.0169,6.1875,13.0169,7.2118c0,5.6448,0.7645,14.3698,1.3914,21.9368C15.929,30.2893,18.2406,32.25,20.043,32.25z"/>
		<path d="M45.7663,44.238c-4.241-0.4163-6.8581-1.9807-8.308-4.3316c-1.5354,0.6837-3.4139,1.2537-5.4153,1.2537
			c-2.2627,0-4.3701-0.728-6-1.5259c-1.6299,0.7979-3.7373,1.5259-6,1.5259c-1.7697,0-3.4408-0.4472-4.8663-1.0229
			c0.0461,1.2565,0.0606,2.2847,0.005,2.9949c-0.2874,3.6694-0.147,8.5295-0.0564,10.8193
			c0.0342,0.8654,0.5656,1.6161,1.3641,1.9514c2.747,1.1531,6.7685,1.3179,9.0652,0.8266c1.0187-0.2179,1.7368-1.1096,1.7368-2.1513
			V54.106c12.5505,4.1835,23.0228,2.5703,26.9907,1.6429c0.9902-0.2314,1.6869-1.1234,1.6979-2.1403
			C56.0445,47.6363,56.0685,45.2493,45.7663,44.238z"/>
		<path d="M56.043,34.75c-2.4615,0-4.9159-1.9367-6-2.75c-1.0001,0.7503-3.4848,2.75-6,2.75c-2.4615,0-4.9159-1.9367-6-2.75
			c-1.0001,0.7503-3.4848,2.75-6,2.75c-2.4615,0-4.9159-1.9367-6-2.75c-1.0001,0.7503-3.4848,2.75-6,2.75
			c-2.4615,0-4.9159-1.9367-6-2.75c-1.0001,0.7503-3.4848,2.75-6,2.75c-1.0184,0-2.1246-0.3893-3.043-0.8273v4.2183
			c0.9427,0.3047,1.9789,0.519,3.043,0.519c2.397,0,4.6631-1.0762,6-1.8633c1.3369,0.7871,3.603,1.8633,6,1.8633
			s4.6631-1.0762,6-1.8633c1.3369,0.7871,3.603,1.8633,6,1.8633s4.6631-1.0762,6-1.8633c1.3369,0.7871,3.603,1.8633,6,1.8633
			s4.6631-1.0762,6-1.8633c1.3369,0.7871,3.603,1.8633,6,1.8633c1.0322,0,2.0372-0.2025,2.957-0.4926v-4.203
			C58.1001,34.3839,57.0267,34.75,56.043,34.75z"/>
	</g>
</g>
</svg>
