<?xml version="1.0" encoding="utf-8"?>
<!-- Generator: Adobe Illustrator 18.1.0, SVG Export Plug-In . SVG Version: 6.00 Build 0)  -->
<svg version="1.2" baseProfile="tiny" xmlns="http://www.w3.org/2000/svg" xmlns:xlink="http://www.w3.org/1999/xlink" x="0px"
	 y="0px" width="64px" height="64px" viewBox="0 0 64 64" xml:space="preserve">
<g id="Box">
	<rect fill="none" width="64" height="64"/>
</g>
<g id="Icon">
	<g>
		<path d="M26.043,30l2.7007,2.0259c0.6069,0.4502,2.2671,1.3496,3.2993,1.3496c0.9985,0,2.6538-0.8657,3.3003-1.3501L38.043,30
			c2.8868,2.1655,2.9298,2.257,3.957,2.7563V27h-6v-3h6v-6H31v-3h11V8c0-2.2092-1.7908-4-4-4H26c-2.2092,0-4,1.7908-4,4v24.7985
			C23.0652,32.2961,23.1363,32.1807,26.043,30z"/>
		<path d="M56.043,35.8755c-2.4615,0-4.9159-1.9367-6-2.75c-1.0001,0.7503-3.4848,2.75-6,2.75c-2.4615,0-4.9159-1.9367-6-2.75
			c-1.0001,0.7503-3.4848,2.75-6,2.75c-2.4615,0-4.9159-1.9367-6-2.75c-1.0001,0.7503-3.4848,2.75-6,2.75
			c-2.4615,0-4.9159-1.9367-6-2.75c-1.0001,0.7503-3.4848,2.75-6,2.75c-1.0184,0-2.1246-0.3893-3.043-0.8273v4.2183
			c0.9427,0.3047,1.9789,0.519,3.043,0.519c2.397,0,4.6631-1.0762,6-1.8633c1.3369,0.7871,3.603,1.8633,6,1.8633
			c0.6694,0,1.3254-0.0895,1.957-0.2277V61h20v-7H31v-3h11v-6h-6v-3h6v-2.4628c0.6579,0.1496,1.3429,0.2483,2.043,0.2483
			c2.397,0,4.6631-1.0762,6-1.8633c1.3369,0.7871,3.603,1.8633,6,1.8633c1.0322,0,2.0372-0.2025,2.957-0.4926v-4.203
			C58.1001,35.5093,57.0267,35.8755,56.043,35.8755z"/>
	</g>
</g>
</svg>
