<?xml version="1.0" encoding="utf-8"?>
<!-- Generator: Adobe Illustrator 17.1.0, SVG Export Plug-In . SVG Version: 6.00 Build 0)  -->
<svg version="1.2" baseProfile="tiny" xmlns="http://www.w3.org/2000/svg" xmlns:xlink="http://www.w3.org/1999/xlink" x="0px"
	 y="0px" width="64px" height="64px" viewBox="0 0 64 64" xml:space="preserve">
<g id="_x36_4px_Boxes">
	<rect fill="none" width="64" height="64"/>
</g>
<g id="Production">
	<g>
		<path d="M3,20h3v29.797c2.1776-0.5554,3.6787-1.6769,5.4355-2.8058L13,48.0027c0,0,7.0489-7.1028,19-7.1028
			c11.9555,0,19,7.1046,19,7.1046l1.5767-1.0133c1.8685,1.2081,3.2598,2.2546,5.4233,2.8059V20h3c0.5523,0,1-0.4478,1-1V9
			c0-0.5523-0.4477-1-1-1H48c-0.5523,0-1,0.4477-1,1v10c0,0.5522,0.4477,1,1,1h3v10.44c2.5289,2.4514,4.2859,6.0345,4.9576,9.2624
			c0.0649,0.3116-0.0588,0.3802-0.1733,0.3849C52.3252,32.5021,42.9853,27,32,27c-10.977,0-20.3113,5.4937-23.7767,13.07
			c-0.0881-0.0207-0.2378-0.1099-0.1515-0.5057c0.6921-3.1732,2.4365-6.7052,4.9282-9.1212V20h3c0.5523,0,1-0.4478,1-1V9
			c0-0.5523-0.4477-1-1-1H3C2.4477,8,2,8.4477,2,9v10C2,19.5522,2.4477,20,3,20z"/>
		<path d="M59.4282,52.07c-2.77,0-5.7344-1.9053-5.7603-1.9219l-1.0957-0.7139l-1.0952,0.7109
			c-0.0298,0.0195-2.9932,1.9248-5.7632,1.9248c-2.7695,0-5.7339-1.9053-5.7598-1.9219l-1.0957-0.7139l-1.0952,0.7109
			C37.7334,50.1647,34.77,52.07,32,52.07s-5.7334-1.9053-5.7598-1.9219l-1.0972-0.7207l-1.0972,0.7207
			c-0.0293,0.0186-3.0063,1.9219-5.7598,1.9219c-2.77,0-5.7334-1.9053-5.7598-1.9219l-1.0957-0.7139l-1.0952,0.7109
			C10.3062,50.1647,7.3418,52.07,4.5718,52.07c-1.2473,0-2.5317-0.3867-3.5718-0.813v4.1675C2.1038,55.7591,3.3297,56,4.5718,56
			c2.7476,0,5.415-1.1777,6.8574-1.9424C12.8711,54.8223,15.5386,56,18.2861,56c2.7471,0,5.415-1.1777,6.8569-1.9424
			C26.585,54.8223,29.2524,56,32,56s5.415-1.1777,6.8569-1.9424C40.2988,54.8223,42.9668,56,45.7139,56
			c2.7476,0,5.415-1.1777,6.8569-1.9424C54.0132,54.8223,56.6807,56,59.4282,56c1.2421,0,2.468-0.2409,3.5718-0.5755v-4.1701
			C61.9576,51.6817,60.6714,52.07,59.4282,52.07z"/>
	</g>
</g>
</svg>
