<?xml version="1.0" encoding="utf-8"?>
<!-- Generator: Adobe Illustrator 24.0.1, SVG Export Plug-In . SVG Version: 6.00 Build 0)  -->
<svg version="1.1" xmlns="http://www.w3.org/2000/svg" xmlns:xlink="http://www.w3.org/1999/xlink" x="0px" y="0px"
	 viewBox="0 0 64 64" style="enable-background:new 0 0 64 64;" xml:space="preserve">
<style type="text/css">
	.st0{fill:none;}
	.st1{fill:#FF1D25;}
	.st2{fill:#1D1D1B;}
</style>
<g id="Box">
	<rect class="st0" width="64" height="64"/>
</g>
<g id="Icon">
	<path d="M61.3,32c0.6-0.5,0.5-1.4-0.2-1.7c-3.2-1.5-5.6-2.9-10.5-7.3c-3-2.7-7.9-4.8-12.4-4.8c-7.3,0-10.6,2.4-20,6.9
		c2.9,3.4,6.7,5.6,6.7,5.6c0,0.2-0.2,0.3-0.8,0.2c-1.4-0.2-4.9-1.7-7.8-5c-2-2.3-2.6-4.6-4.4-6.5c-1.8-1.9-5-3.3-6.7-4
		c-0.7-0.3-1.5,0-1.9,0.7c-1,1.9-2.3,5.7,0.4,9.1c3,3.8,7.5,4.5,10.4,7.3c-1,0.5-1.9,1.1-2.3,1.9c-0.9,1.8,1.4,4.4,1.4,4.4
		s-2.7,0-3.7,2.6c-0.1,0.4,0.3,0.8,0.6,0.6l2.2-0.8l0.2,1.3c0,0.4,0.5,0.6,0.8,0.4l2-1.3l0.4,1.3c0.1,0.3,0.4,0.5,0.7,0.3
		c0.9-0.5,2.6-1.7,2.7-3.1c0-0.4,0-1-0.2-1.7c1.8,1.4,3.8,2.2,6.4,2.7c0.3,0.9,0.6,1.4,0.6,1.4s-2-0.1-3.4,1.1
		c-0.8,0.7-1.2,1.7-1.3,2.4c-0.1,0.4,0.3,0.7,0.7,0.5l2.4-1l0.2,1.5c0,0.4,0.4,0.6,0.8,0.4l2.2-1.4l0.4,1.4c0.1,0.3,0.4,0.4,0.7,0.3
		c1-0.5,3-1.8,3.5-3.3c0.2-0.7,0.1-1.6-0.1-2.6c5.6,0.3,13.1,0.3,16.8-0.9c0.4,0.5,0.9,0.9,1.5,1.3c0,0-1.6,1.6-0.6,3.8
		c0.2,0.3,0.6,0.4,0.8,0.1l1.8-2.2l0.7,1.7c0.1,0.3,0.6,0.4,0.8,0.1l2-2.4l1,1.4c0.2,0.3,0.6,0.3,0.8,0c0.7-1.1,1.9-3.5,0.3-5.1
		c-1.9-1.9-4.7-2.4-5.1-3.6c-0.1-0.2,0-0.5,0-0.9C57.2,34.7,59.9,33.1,61.3,32z M6.5,20.8c-0.7,0-1.2-0.6-1.2-1.2s0.6-1.2,1.2-1.2
		s1.2,0.6,1.2,1.2S7.2,20.8,6.5,20.8z"/>
</g>
</svg>
