<?xml version="1.0" encoding="utf-8"?>
<!-- Generator: Adobe Illustrator 24.1.3, SVG Export Plug-In . SVG Version: 6.00 Build 0)  -->
<svg version="1.1" xmlns="http://www.w3.org/2000/svg" xmlns:xlink="http://www.w3.org/1999/xlink" x="0px" y="0px"
	 viewBox="0 0 64 64" style="enable-background:new 0 0 64 64;" xml:space="preserve">
<style type="text/css">
	.st0{fill:none;}
</style>
<g id="Box">
	<rect class="st0" width="64" height="64"/>
</g>
<g id="Icon">
	<g>
		<path d="M63,41c-0.3-1.4-2.6-2.2-5.1-1.6c-1.8,0.4-3.2,1.3-3.7,2.3l-31.6,6.7c-0.9-0.7-2.6-1-4.4-0.6c-2.5,0.5-4.3,2.1-4,3.6
			s2.6,2.2,5.1,1.6c1.8-0.4,3.2-1.3,3.7-2.3L54.6,44c0.9,0.7,2.6,1,4.4,0.6C61.5,44,63.3,42.4,63,41z"/>
		<path d="M42.7,34.2c2.3-1.2,3.6-3.2,2.9-4.5s-3.1-1.4-5.3-0.2c-1.6,0.8-2.7,2.1-3,3.2L8.6,47.4C7.5,47,5.8,47.1,4.2,48
			c-2.3,1.2-3.6,3.2-2.9,4.5c0.7,1.3,3.1,1.4,5.3,0.2c1.6-0.8,2.7-2.1,3-3.2l28.7-14.7C39.4,35.2,41.1,35,42.7,34.2z"/>
		<path d="M10.1,26.2c1.8-0.3,3.3-1.1,3.9-2l11.2-1.6l2.8-2.7l-14.3,2c-0.9-0.8-2.5-1.2-4.3-0.9c-2.5,0.4-4.4,1.8-4.2,3.3
			C5.3,25.6,7.6,26.5,10.1,26.2z"/>
		<path d="M45.6,17.4l-8,1.1l-2.8,2.7L46,19.7c0.9,0.8,2.5,1.2,4.3,0.9c2.5-0.4,4.4-1.8,4.2-3.3c-0.2-1.4-2.4-2.3-5-2
			C47.7,15.6,46.3,16.4,45.6,17.4z"/>
		<path d="M13.6,34.4c-1.8,1.8-2.5,4.1-1.4,5.1s3.3,0.4,5.2-1.4c1.3-1.3,2-2.8,1.9-4l23-22.6c1.2,0.1,2.7-0.6,4-1.9
			c1.8-1.8,2.5-4.1,1.4-5.1s-3.3-0.4-5.2,1.4c-1.3,1.3-2,2.8-1.9,4l-9.7,9.6l-2.8,2.7L17.6,32.5C16.5,32.4,14.9,33.1,13.6,34.4z"/>
	</g>
</g>
</svg>
