<?xml version="1.0" encoding="utf-8"?>
<!-- Generator: Adobe Illustrator 20.0.0, SVG Export Plug-In . SVG Version: 6.00 Build 0)  -->
<svg version="1.1" xmlns="http://www.w3.org/2000/svg" xmlns:xlink="http://www.w3.org/1999/xlink" x="0px" y="0px"
	 viewBox="0 0 64 64" style="enable-background:new 0 0 64 64;" xml:space="preserve">
<style type="text/css">
	.st0{fill:none;}
	.st1{clip-path:url(#SVGID_2_);fill:#1D1D1B;}
	.st2{fill:#1D1D1B;}
</style>
<g id="_x36_4px_Box">
	<rect class="st0" width="64" height="64"/>
</g>
<g id="Icon">
	<g>
		<g>
			<defs>
				<rect id="SVGID_1_" x="3.5" y="7.1" width="57" height="50.5"/>
			</defs>
			<clipPath id="SVGID_2_">
				<use xlink:href="#SVGID_1_"  style="overflow:visible;"/>
			</clipPath>
			<path class="st1" d="M49.5,35.8c0,1.5,1.2,2.7,2.7,2.7c1.5,0,2.7-1.2,2.7-2.7c0-1.5-1.2-2.7-2.7-2.7C50.8,33,49.5,34.2,49.5,35.8
				 M15.1,16.1l1.8-3.2l-6.3-3.7l-1.8,3.2L15.1,16.1z M27.8,23.4l1.8-3.2l-6.3-3.7l-1.8,3.2L27.8,23.4z M40.4,30.7l1.8-3.2l-6.3-3.7
				l-1.8,3.2L40.4,30.7z M52.3,40.4c2.6,0,4.7-2.1,4.7-4.7c0-2.6-2.1-4.7-4.7-4.7c-2.6,0-4.7,2.1-4.7,4.7
				C47.6,38.3,49.7,40.4,52.3,40.4 M6.7,12.4l2.7-4.7c0.3-0.4,0.8-0.6,1.2-0.3L49,29.3c0.1,0,0.2-0.2,0-0.5l-2.2-2.2h11
				c1.5,0,2.7,1.2,2.7,2.7v28.3H44V34.9l-37-21.3C6.6,13.4,6.5,12.8,6.7,12.4"/>
		</g>
		<polygon class="st2" points="20.8,32.6 22,57.7 35.3,57.7 25.2,32.6 		"/>
		<polygon class="st2" points="13.5,32.6 3.5,57.7 16.8,57.7 18,32.6 		"/>
	</g>
</g>
</svg>
