<svg xmlns="http://www.w3.org/2000/svg" role="img" viewBox="7.04 7.04 49.85 49.85"><path fill="none" d="M0 0h64v64H0z"/><path d="M32 56c13.2549 0 24-10.7451 24-24S45.2549 8 32 8 8 18.7451 8 32s10.7451 24 24 24zm14.0365-9.6287l-.7854-1.7297 1.7733-3.2125 2.8746-.3114c-1.0012 1.9572-2.3044 3.7316-3.8625 5.2536zm-11.6874-34.33c8.7745 1.0272 15.829 7.7189 17.4114 16.3142l-2.2471 2.9958-2.5946 1.2973-2.5946-2.5946-1.3899-2.502s1.7938-1.7962 1.2973-2.7483c-.4965-.9522-3.3007.5977-3.8552-.2362-.5545-.8343-.0608-3.6824-.0608-3.6824l-3.477-1.4318s-1.0862-.021-.9952.7982c.1022.9204 2.6313 2.3796 2.4269 2.7887-.1885.3773-.8181.1024-.8181.1024l-.9614 1.6871-2.0043-.4513s1.5238-.5777 1.7093-1.1336c.1854-.556-2.2499-2.5566-2.2499-2.5566l-1.3575.3068-.6136 2.4544-1.6362 1.4317-2.1453-.0162.1911-1.189-.7856-.0221 1.0228-2.6513 2.1064.1757s.7776-2.0316.6234-2.7001c-.2993-1.2973-1.6524-1.4439-1.6524-1.9554 0-.5113 1.4578-.5036 2.1738-1.2195.4439-.4441 1.6354-2.082 2.4763-3.2619zm-7.0025.4161c1.2131-.289 2.4671-.4626 3.7535-.5198l.1864.3024s-.4618 2.4305-1.2324 2.6357c-.7706.2054-2.9891-1.073-2.9891-1.073l.2816-1.3453zm-1.1071 17.3912c1.0194-2.1066 2.5651-2.3214 2.5651-2.3214l5.3747-1.0796 3.0771 1.8018 4.1028.7807 1.136 1.5557 1.8291 2.5816 2.5946 1.3518 2.5946-2.2133s-.256 3.1039-1.2786 5.0413c-1.0227 1.9373-3.6762 3.3902-3.6762 3.3902s-.2525 1.8223-1.1105 3.3513c-.3324.5925-1.2437.9086-1.6508 1.4919-.7348 1.0533-.5262 2.9067-1.365 3.3187-1.4988.7361-3.2421 1.0782-3.6512.6907-.5724-.5423-1.8379-2.8582-1.8379-3.6252v-5.5325c0-.9923-1.3255-3.3427-1.3255-3.3427s-3.1374-.0292-4.3421-.0292c-1.2047 0-3.0362-1.729-3.0362-1.729s-1.0193-3.3764 0-5.4828zm-3.0092-15.9154l-2.3314 4.2749s-2.7457 3.5789-4.6652 5.5162c-.8819.8901-2.1922 1.584-3.3535 2.0768 1.6966-5.219 5.4759-9.4919 10.3501-11.8679zm-4.8519 28.3327v4.4827c-3.3008-3.0511-5.5711-7.1834-6.2509-11.8363 2.2658 1.5162 6.2509 4.5747 6.2509 7.3536z"/></svg>