<?xml version="1.0" encoding="utf-8"?>
<!-- Generator: Adobe Illustrator 25.0.0, SVG Export Plug-In . SVG Version: 6.00 Build 0)  -->
<svg version="1.1" xmlns="http://www.w3.org/2000/svg" xmlns:xlink="http://www.w3.org/1999/xlink" x="0px" y="0px"
	 viewBox="0 0 64 64" style="enable-background:new 0 0 64 64;" xml:space="preserve">
<style type="text/css">
	.st0{fill:none;}
	.st1{fill:#FFFFFF;}
</style>
<g id="Box">
	<rect class="st0" width="64" height="64"/>
</g>
<g id="Icon">
	<g>
		<polygon points="11.305,16.576 6.721,10.33 11.876,8.007 1.99,0.825 6.574,7.071 1.419,9.395 		"/>
		<polygon points="50.695,16.576 60.581,9.395 55.426,7.071 60.01,0.825 50.124,8.007 55.28,10.33 		"/>
		<path d="M34.012,54.245c0.023-1.027,0.521-1.975,1.333-2.577c-0.88-0.626-1.406-1.644-1.39-2.734
			c0.009-0.565,0.165-1.106,0.436-1.581c-1.419,0.813-2.684,1.339-3.341,1.585c-1.486-0.638-6.143-2.881-8.393-6.799
			c2.881-1.193,2.713-2.273,2.763-2.717c0.066-0.579,0.577-5.324,0.577-5.324c-2.518-2.48-3.598-5.571-4.056-8.28
			c-0.293-1.73-0.253-3.34-0.164-4.41c4.802-1.893,11.604-5.747,14.235-9.057c0,0,0.32,0.015,0.117,0.503
			c-0.344,0.831-0.848,1.812-1.549,2.977c1.241,2.635,3.473,4.562,5.676,5.93c0.066,1.034,0.066,2.466-0.199,4.056
			c-0.53,3.183-2.821,7.626-5.34,9.185c-1.721,1.065-4.874,1.234-6.712,0.44c0.424,0.84,1.273,1.837,3.155,2.306
			c2.535,0.631,4.852-0.405,5.449-0.752c0.112,0.795,0.216,1.591,0.289,2.279c0.015,0.14,0.038,0.346,0.161,0.607l2.675-1.511
			c-0.095-0.794-0.22-1.715-0.352-2.613c1.473,0.156,2.827,0.324,4.031,0.534l4.384-2.477c0.817-3.704,1.191-6.56,1.191-9.598
			c0-7.484-2.813-15.479-7.127-18.065c-2.75-1.648-5.843-1.048-5.843-1.048s-2.973-2.863-8.173-1.884
			c-8.483,1.599-14.841,9.743-14.841,20.997c0,3.725,0.56,7.155,1.818,12.241c0.104,0.419,0.5,0.67,0.875,0.538
			c1.822-0.64,4.287-1.007,7.364-1.302c-0.112,0.94-0.235,1.994-0.357,3.063c-1.674,1.195-8.777,2.658-11.495,5.498
			C8.453,47.142,7,58,7,58h30l-1.416-0.869C34.584,56.518,33.986,55.418,34.012,54.245z"/>
		<path d="M62.045,51.356l-0.669-0.342L48.389,59.65l-11.064-6.768l-0.619,0.343c-0.389,0.215-0.634,0.621-0.644,1.066
			c-0.01,0.444,0.217,0.861,0.596,1.093l11.104,6.814c0.201,0.123,0.427,0.185,0.654,0.185c0.241,0,0.482-0.07,0.691-0.208
			l13.06-8.664c0.37-0.245,0.582-0.668,0.557-1.112S62.44,51.559,62.045,51.356z"/>
		<path d="M61.989,45.913l-0.66-0.338L48.328,54.21l-11.047-6.674l-0.638,0.359c-0.388,0.218-0.63,0.625-0.638,1.07
			c-0.007,0.445,0.223,0.86,0.604,1.09l11.104,6.704c0.199,0.12,0.422,0.18,0.646,0.18c0.241,0,0.482-0.07,0.691-0.208l13.06-8.664
			c0.37-0.245,0.582-0.668,0.557-1.112S62.384,46.115,61.989,45.913z"/>
		<path d="M35.912,43.6c-0.006,0.445,0.225,0.859,0.607,1.088l11.104,6.664c0.198,0.119,0.421,0.178,0.643,0.178
			c0.241,0,0.482-0.07,0.691-0.208l13.06-8.664c0.37-0.245,0.582-0.668,0.557-1.112s-0.283-0.84-0.679-1.042l-10.823-5.537
			c-0.374-0.191-0.818-0.182-1.184,0.024l-13.341,7.537C36.16,42.747,35.918,43.155,35.912,43.6z M50.532,37.499l8.322,4.258
			l-10.622,7.046l-8.587-5.153L50.532,37.499z"/>
	</g>
</g>
</svg>
