<?xml version="1.0" encoding="utf-8"?>
<!-- Generator: Adobe Illustrator 19.1.0, SVG Export Plug-In . SVG Version: 6.00 Build 0)  -->
<svg version="1.2" baseProfile="tiny" xmlns="http://www.w3.org/2000/svg" xmlns:xlink="http://www.w3.org/1999/xlink" x="0px"
	 y="0px" width="64px" height="64px" viewBox="0 0 64 64" xml:space="preserve">
<g id="_x36_4px_Box">
	<rect fill="none" width="64" height="64"/>
</g>
<g id="Icon">
	<path d="M26.6765,7.6237c-9.3033,2.7348-10.7044,7.3513-7.8055,9.8528c5.8217-5.0032,15.9008-4.0648,16.9121-3.9775
		c0.3304,0.0285,0.4265,0.1899,0.3857,0.2968c-5.2017,0.6714-11.3303,2.5629-13.8472,5.5034
		c2.0065,0.6835,4.6715,1.171,8.007,1.2348c12.45,0.2383,17.7422-6.0801,18.5329-7.1276c0.1453-0.001,0.1819,0.2673,0.1087,0.56
		c-0.3324,1.3295-1.6341,5.439-8.0557,7.7665c-8.3829,3.0384-22.1035,2.6641-26.3023-3.5369
		c-2.5861-3.8192,0.5613-8.9658,5.6298-11.3589c-8.0084,1.3702-16.1615,9.4012-9.6755,16.827
		c7.4708,8.5533,21.2015,6.5881,26.6428,5.7503c0.1061,0.0936,0.0956,0.3372-0.3553,0.62
		c-2.4162,1.5156-12.8539,4.1752-21.7137,0.3281c1.178,1.831,2.9174,5.7187,3.4966,9.3218
		c-1.3929,0.6227-1.8867,1.5862-1.8752,2.2444c0.0591,3.3889,8.5974,4.5715,12.0844,4.515c0.0371,0.1079-0.041,0.2395-0.3916,0.3564
		c-0.5829,0.1943-4.4393,0.967-9.3872,0.0632c0.4028,2.8176,1.7662,5.6226,6.5422,8.7084c3.3154,2.1422,7.9995,4.121,12.1748,4.9335
		c0.9603,0.1869,1.6558-0.8986,1.1021-1.7051c-0.7735-1.1266-1.7957-2.6848-2.6911-4.3622c-3.5426,0.628-5.984,0.0511-6.8613-0.2101
		c-0.2017-0.0601-0.4457-0.1854-0.3727-0.3265c2.4231-0.0204,7.2681-0.4818,7.7809-2.8069
		c0.1412-0.6402-0.4593-1.7798-2.5342-2.2753c-0.4018-4.4589,3.7985-7.4294,6.6115-9.5889
		c-7.0048,1.121-13.0334-0.6594-13.8914-0.8908c-0.3208-0.0865-0.3969-0.2571-0.3393-0.3488
		c4.6145,0.0695,10.4987,0.0829,15.2391-1.2221c9.2924-2.2684,10.3355-5.5951,6.9573-6.972
		c1.4515-3.1041,1.7927-5.3712,1.7927-5.3712s5.6636-4.4106,5.4038-8.7619C55.5357,8.1989,38.3728,4.1854,26.6765,7.6237z"/>
</g>
</svg>
