<?xml version="1.0" encoding="utf-8"?>
<!-- Generator: Adobe Illustrator 18.1.0, SVG Export Plug-In . SVG Version: 6.00 Build 0)  -->
<svg version="1.2" baseProfile="tiny" xmlns="http://www.w3.org/2000/svg" xmlns:xlink="http://www.w3.org/1999/xlink" x="0px"
	 y="0px" width="64px" height="64px" viewBox="0 0 64 64" xml:space="preserve">
<g id="_x36_4px_Boxes">
	<rect fill="none" width="64" height="64"/>
</g>
<g id="Label">
</g>
<g id="Production">
	<path d="M54.8868,4c0,0-26.8329,0-33.8868,0C14.0662,4,7,6.6875,7,13.9661c0,13.929,0,25.3257,0,39.1923C7,57.2436,9.1243,60,13,60
		c19.9905,0,22.3359,0,22.5528,0c0.0115,0,0.0184,0,0.0203,0c0.1694,0,1.6013,0,11.31,0C48.0522,60,49,59.0539,49,57.8868V16.1132
		C49,14.9461,48.0522,14,46.8831,14c-10.9956,0-21.9893,0-33.002,0c-0.912,0-1.3414-0.8251-1.0179-1.7457
		C13.875,9.375,19.125,9,21,9c1.1094,0,31,0,31,0v42h3c1.1046,0,2-0.8954,2-2V6.1132C57,4.9461,56.0539,4,54.8868,4z M42,49H29
		v-1.2237C29,46.243,30.273,45,31.8063,45h7.4174C40.757,45,42,46.243,42,47.7763V49z M13.8951,38.9739
		c0.3542-0.2,10.4183-5.5594,16.6589-8.8815c-0.3557-0.6299-0.7742-1.3713-1.3226-2.3425l-0.8061,0.0236
		c-0.5718,0.018-1.1063-0.2828-1.3875-0.7809l-0.2986-0.5289c-0.2088-0.3698-0.0783-0.8387,0.2915-1.0475l8.0345-4.5366
		c0.3698-0.2088,0.8388-0.0783,1.0476,0.2914l0.2986,0.5289c0.2813,0.4981,0.2628,1.1112-0.048,1.5915
		c-1.1274,1.7426-3.5609,2.6441-4.5612,3.194c0.0294,0.0578,0.0765,0.1494,0.2585,0.1673c0.1946,0.0192,2.0399-0.1626,4.6665-1.2659
		c1.7462,3.0926,1.0845,1.9208,2.8808,5.1021c-2.3014,1.6793-3.4102,3.1653-3.4943,3.342
		c-0.0787,0.1652-0.0246,0.2528,0.0097,0.3078c1.0001-0.5792,3.001-2.1901,5.0909-2.256c0.5718-0.018,1.1063,0.2828,1.3876,0.7809
		l0.2986,0.5288c0.2088,0.3698,0.0782,0.8388-0.2915,1.0476l-8.0345,4.5366c-0.3698,0.2088-0.8388,0.0783-1.0476-0.2915
		l-0.2986-0.5288c-0.2812-0.4982-0.2628-1.1112,0.048-1.5915l0.4465-0.6605c-0.5623-0.9958-0.9881-1.75-1.3497-2.3904
		c-6.068,3.6277-15.8555,9.4774-16.2097,9.6773c-1.1093,0.6264-2.5164,0.2349-3.1428-0.8745
		C12.3942,41.0073,12.7858,39.6003,13.8951,38.9739z"/>
</g>
</svg>
