<?xml version="1.0" encoding="utf-8"?>
<!-- Generator: Adobe Illustrator 18.1.0, SVG Export Plug-In . SVG Version: 6.00 Build 0)  -->
<svg version="1.2" baseProfile="tiny" xmlns="http://www.w3.org/2000/svg" xmlns:xlink="http://www.w3.org/1999/xlink" x="0px"
	 y="0px" width="64px" height="64px" viewBox="0 0 64 64" xml:space="preserve">
<g id="Box">
	<rect fill="none" width="64" height="64"/>
</g>
<g id="Label">
</g>
<g id="Icon">
	<g>
		<rect x="25" y="42" width="14" height="4"/>
		<path d="M32,7C18.2148,7,7,18.2148,7,32s11.2148,25,25,25s25-11.2148,25-25S45.7852,7,32,7z M46.2343,44.8201l-2.9206-2.9207
			l-1.4142,1.4142l2.919,2.9189C41.4211,49.3044,36.9335,51.19,32,51.19s-9.4211-1.8856-12.8185-4.9573l2.919-2.9189l-1.4142-1.4142
			l-2.9206,2.9207C14.916,41.6496,13.096,37.5338,12.8607,33H17v-2h-4.1393c0.2355-4.5358,2.0632-8.6433,4.9163-11.8088
			l2.9093,2.9094l1.4142-1.4142l-2.9094-2.9093c3.1655-2.8531,7.273-4.6808,11.8088-4.9163c0,1.5784,0,2.7932,0,4.1393
			c2.958,0-0.9575,0,2,0c0-1.4562,0-2.7069,0-4.1393c4.5358,0.2355,8.6433,2.0632,11.8088,4.9163l-2.9094,2.9093l1.4142,1.4142
			l2.9093-2.9094c2.8531,3.1655,4.6808,7.273,4.9163,11.8088H47v1.99h4.1393C50.904,37.5238,49.084,41.6496,46.2343,44.8201z"/>
		<path d="M31.7451,38.5613c1.5986-0.0777,2.8939-1.2389,3.2223-2.7555c0.2146-0.9911,2.8715-14.8517,2.8715-14.8517
			c0.229-1.2361-1.1119-1.7028-1.7438-0.6068l-5.6987,9.7007c2.05,0.0574,2.9184,0.9916,3.2084,1.4048
			c0.3726,0.5309,0.1921,0.719,0.1051,0.7283c-0.0073-0.0006-0.0157,0.001-0.023,0.0004c-0.6345-0.4954-1.4277-0.7863-2.2878-0.7445
			c-1.9307,0.0938-3.4184,1.7646-3.3228,3.732C28.1718,37.1363,29.8144,38.6551,31.7451,38.5613z"/>
	</g>
</g>
</svg>
