<?xml version="1.0" encoding="utf-8"?>
<!-- Generator: Adobe Illustrator 18.1.1, SVG Export Plug-In . SVG Version: 6.00 Build 0)  -->
<svg version="1.2" baseProfile="tiny" xmlns="http://www.w3.org/2000/svg" xmlns:xlink="http://www.w3.org/1999/xlink" x="0px"
	 y="0px" width="64px" height="64px" viewBox="0 0 64 64" xml:space="preserve">
<g id="Box">
	<rect fill="none" width="64" height="64"/>
</g>
<g id="Icon">
	<path d="M59.5581,11.0098L19.2939,5.022L19,5c-1.4156,0-2.5983,0.7324-3.571,1.9429l-0.0071-0.0054l-0.0878,0.117
		c-0.0552,0.0715-0.1099,0.1434-0.1636,0.218L6.9999,18.1607V5c0-1-1.1193-1-2.5-1C3.1193,4,2,4,2,5v59h5L6.9999,25.4359
		l8.8282,10.111l0.0101-0.009C16.7286,36.4615,17.7791,37,19,37h0.1724l40.4165-7.0122C62.6616,29.6733,63,23.3755,63,20.6284
		C63,17.7969,62.6597,11.2925,59.5581,11.0098z M7.95,22.05l4.3576-5.9557C12.1054,17.7004,12.05,19.3616,12.05,21
		c0,2.065,0.1128,4.1677,0.4357,6.1462L7.95,22.05z M25.965,31.7618l-6.9987,1.2143C18.084,32.5356,15.9,28.4824,15.9,21
		c0-7.5571,2.226-11.6162,3.058-11.9844l7.0969,1.0554C24.8159,12.433,24.05,16.4402,24.05,21
		C24.05,25.4463,24.7776,29.3789,25.965,31.7618z M43.2083,28.77l-8.8542,1.5363c-0.8663-2.3813-1.454-5.6574-1.454-9.2971
		c0-3.845,0.6533-7.2783,1.6035-9.6817l8.9479,1.3307C42.5692,14.5803,42,17.6047,42,21.0092
		C42,24.0864,42.4675,26.8462,43.2083,28.77z M58.2896,26.1533l-6.3919,1.109C51.2941,25.6772,50.9,23.4421,50.9,20.9567
		c0-2.873,0.5258-5.4135,1.2943-6.9982l6.0777,0.9039C58.6094,15.939,59,18.3789,59,20.6284
		C59,22.8271,58.6216,25.1372,58.2896,26.1533z"/>
</g>
</svg>
