<?xml version="1.0" encoding="utf-8"?>
<!-- Generator: Adobe Illustrator 17.1.0, SVG Export Plug-In . SVG Version: 6.00 Build 0)  -->
<svg version="1.2" baseProfile="tiny" xmlns="http://www.w3.org/2000/svg" xmlns:xlink="http://www.w3.org/1999/xlink" x="0px"
	 y="0px" width="64px" height="64px" viewBox="0 0 64 64" xml:space="preserve">
<g id="Box">
	<rect fill="none" width="64" height="64"/>
</g>
<g id="Icon">
	<path d="M39.2717,20.9857c-0.204,1.6727-0.7621,2.9545-1.0638,3.3754c-0.1815,0.2532-0.2834,0.2873-0.4214,0.255
		c-0.0032-0.0644-0.0134-0.1212-0.017-0.1851C37.8831,23.9719,37.95,23.4943,37.95,23c0-2.9014-2.0777-5.3144-4.8256-5.8405
		c-3.1656-6.9941-8.3181-17.3548-10.2375-16.5223c-1.5128,0.6561,1.9012,11.3315,4.5548,18.5417
		C26.5741,20.2128,26.05,21.5447,26.05,23c0,0.7166,0.1332,1.4005,0.3654,2.0368c-4.4627,6.2431-10.6569,15.6332-8.9999,16.8617
		c1.158,0.8585,7.0663-5.374,11.8197-10.8995L27.5477,64h8.8959l-1.7563-35.6965c0.7906-0.4014,1.4776-0.9731,2.0159-1.6684
		c7.6393,0.7463,18.9452,1.4274,19.1814-0.629C56.0589,24.4886,46.6738,22.334,39.2717,20.9857z M32,26.2
		c-1.7673,0-3.2-1.4327-3.2-3.2s1.4327-3.2,3.2-3.2c1.7673,0,3.2,1.4327,3.2,3.2S33.7673,26.2,32,26.2z"/>
</g>
</svg>
