<?xml version="1.0" encoding="utf-8"?>
<!-- Generator: Adobe Illustrator 19.1.0, SVG Export Plug-In . SVG Version: 6.00 Build 0)  -->
<svg version="1.2" baseProfile="tiny" xmlns="http://www.w3.org/2000/svg" xmlns:xlink="http://www.w3.org/1999/xlink" x="0px"
	 y="0px" width="64px" height="64px" viewBox="0 0 64 64" xml:space="preserve">
<g id="Box">
	<rect fill="none" width="64" height="64"/>
</g>
<g id="Icon">
	<g>
		<path d="M59.2142,17.7579c-1.9216-0.444-7.3823-1.5261-8.0378-3.1479c-0.6562-1.6235,1.3105-5.1292,2.3459-6.7964
			c0.1315-0.2119-0.1144-0.4571-0.3267-0.326c-1.6918,1.0444-5.2632,3.0438-6.7933,2.3484
			c-1.5589-0.7084-2.7058-6.5507-3.1606-8.4106c-0.0583-0.2384-0.3933-0.2432-0.4578-0.0064
			c-0.5134,1.8833-1.7744,7.8203-3.1331,8.417c-1.3469,0.5916-5.1072-1.4172-6.8304-2.4128
			c-0.2154-0.1245-0.4499,0.1233-0.3172,0.3337c1.0176,1.6137,2.996,5.0911,2.3736,6.8532
			c-0.3513,0.9944-2.3102,1.7513-4.2692,2.295c2.6398,0.2882,4.9963,1.5339,6.6931,3.4171
			c0.0331-0.0007,0.0663-0.0007,0.0995-0.0012c-0.303-0.7261-0.4716-1.5223-0.4716-2.3582c0-3.3851,2.7442-6.1292,6.1293-6.1292
			c3.3851,0,6.1293,2.7441,6.1293,6.1292c0,2.6075-1.631,4.8288-3.9262,5.7145c0.4256,0.4536,0.8258,0.9314,1.1673,1.4553
			c2.3233,0.4263,3.3093,1.1802,6.8309,3.4384c0.218,0.1398,0.4685-0.1161,0.3229-0.3302
			c-1.1619-1.7077-3.3671-5.2572-2.4056-6.8792c0.9812-1.6553,6.2048-2.7066,8.0416-3.1434
			C59.4612,18.1602,59.4578,17.8141,59.2142,17.7579z"/>
		<path d="M44.938,27.3695c-1.3272-2.7627-4.1438-4.6503-7.3898-4.6503c-0.4494,0-0.8945,0.0365-1.3321,0.1085
			c-1.4805-2.1921-3.9752-3.5879-6.7866-3.5879c-2.8113,0-5.306,1.3958-6.7865,3.5879c-0.4376-0.072-0.8827-0.1085-1.3321-0.1085
			c-3.246,0-6.0626,1.8876-7.3898,4.6503c-4.3323,0.2251-7.7881,3.8206-7.7881,8.2079c0,9.4136,14.0826,9.4136,20.8503,9.4136
			c3.0784-0.0061,1.8749-0.006,4.9024,0.0001c6.7645,0,20.8403,0,20.8403-9.4137C52.7261,31.1901,49.2703,27.5946,44.938,27.3695z
			 M31.9164,42.0014c0,0-4.9015-0.0001-4.9024-0.0001c-7.1763,0-17.8809-0.3413-17.8809-6.4238
			c0-2.8824,2.3367-5.2191,5.2191-5.2191c0.6227,0,1.2115,0.1275,1.7652,0.3275c0.1343-2.7626,2.3977-4.9667,5.1936-4.9667
			c1.1097,0,2.1342,0.3519,2.9799,0.9424c0.3864-2.5012,2.5294-4.4218,5.1387-4.4218c3.03,0,5.1756,2.5149,5.3907,5.4542
			c0.0004,0.0054,0.0007,0.009,0.001,0.0143c0.1158,1.6049-0.3751,3.3978-1.9063,5.1921c0.0873,0.1734,0.3831,0.1163,0.7014-0.0995
			c0.5087-0.3448,3.6443-2.9044,3.6858-7.0622c0.0828-0.004,0.1622-0.0194,0.246-0.0194c2.7959,0,5.0593,2.204,5.1936,4.9667
			c0.5536-0.2,1.1425-0.3275,1.7652-0.3275c2.8824,0,5.2191,2.3367,5.2191,5.2191C49.7261,41.6589,39.0862,42.0014,31.9164,42.0014z
			"/>
		<path d="M17.277,50.9618c0.2508-1.2555-0.5345-2.4083-0.4368-4.173c0.0118-0.2116-0.0593-0.2712-0.1456-0.3066
			s-0.1797-0.0433-0.32,0.1156c-1.1695,1.3251-2.5353,1.5847-3.241,2.6647c-0.7395,1.132-0.0287,2.6386,1.1417,3.1187
			C15.4458,52.8611,17.012,52.2876,17.277,50.9618z"/>
		<path d="M25.9638,50.9618c0.2508-1.2555-0.5345-2.4083-0.4368-4.173c0.0117-0.2116-0.0593-0.2712-0.1456-0.3066
			s-0.1797-0.0433-0.3201,0.1156c-1.1694,1.3251-2.5353,1.5847-3.2409,2.6647c-0.7395,1.132-0.0287,2.6386,1.1417,3.1187
			C24.1326,52.8611,25.6989,52.2876,25.9638,50.9618z"/>
		<path d="M19.0824,54.5697c-0.0863-0.0354-0.1797-0.0433-0.32,0.1156c-1.1694,1.3251-2.5353,1.5847-3.2409,2.6647
			c-0.7395,1.132-0.0287,2.6386,1.1417,3.1187c1.1705,0.48,2.7368-0.0935,3.0017-1.4194c0.2508-1.2555-0.5345-2.4083-0.4368-4.173
			C19.2398,54.6647,19.1688,54.6051,19.0824,54.5697z"/>
		<path d="M34.6506,50.9618c0.2509-1.2555-0.5345-2.4083-0.4368-4.173c0.0118-0.2116-0.0593-0.2712-0.1456-0.3066
			c-0.0863-0.0354-0.1797-0.0433-0.32,0.1156c-1.1695,1.3251-2.5353,1.5847-3.241,2.6647c-0.7395,1.132-0.0287,2.6386,1.1417,3.1187
			C32.8194,52.8611,34.3857,52.2876,34.6506,50.9618z"/>
		<path d="M27.7692,54.5697c-0.0863-0.0354-0.1797-0.0433-0.32,0.1156c-1.1695,1.3251-2.5353,1.5847-3.241,2.6647
			c-0.7395,1.132-0.0287,2.6386,1.1417,3.1187c1.1705,0.48,2.7368-0.0935,3.0016-1.4194c0.2509-1.2555-0.5345-2.4083-0.4368-4.173
			C27.9266,54.6647,27.8556,54.6051,27.7692,54.5697z"/>
		<path d="M42.8835,46.4822c-0.0864-0.0354-0.1797-0.0433-0.3201,0.1156c-1.1694,1.3251-2.5353,1.5847-3.2409,2.6647
			c-0.7395,1.132-0.0287,2.6386,1.1417,3.1187c1.1705,0.48,2.7367-0.0936,3.0016-1.4194c0.2508-1.2555-0.5345-2.4083-0.4368-4.173
			C43.0409,46.5772,42.9699,46.5176,42.8835,46.4822z"/>
		<path d="M36.5846,54.5697c-0.0864-0.0354-0.1797-0.0433-0.3201,0.1156c-1.1694,1.3251-2.5353,1.5847-3.2409,2.6647
			c-0.7395,1.132-0.0287,2.6386,1.1417,3.1187s2.7367-0.0935,3.0016-1.4194c0.2508-1.2555-0.5345-2.4083-0.4368-4.173
			C36.7419,54.6647,36.671,54.6051,36.5846,54.5697z"/>
	</g>
</g>
</svg>
