<?xml version="1.0" encoding="utf-8"?>
<!-- Generator: Adobe Illustrator 21.0.2, SVG Export Plug-In . SVG Version: 6.00 Build 0)  -->
<!DOCTYPE svg PUBLIC "-//W3C//DTD SVG 1.1//EN" "http://www.w3.org/Graphics/SVG/1.1/DTD/svg11.dtd">
<svg version="1.1" xmlns="http://www.w3.org/2000/svg" xmlns:xlink="http://www.w3.org/1999/xlink" x="0px" y="0px" width="64px"
	 height="64px" viewBox="0 0 64 64" enable-background="new 0 0 64 64" xml:space="preserve">
<g id="Box">
	<rect fill="none" width="64" height="64"/>
</g>
<g id="Icon">
	<g>
		<g>
			<path d="M41.02,44.1802L35.2473,49H46V37.6376C44.8613,40.1562,43.1705,42.3854,41.02,44.1802z M31,38.9972l3.3569-2.8019
				c1.252-1.0454,2.147-2.4282,2.5879-3.9985l1.8799-6.6973c0.8601-3.0632,3.0535-5.4683,5.8622-6.6665L26.6772,2.2639
				c-0.3828-0.3519-0.9716-0.3519-1.3544,0L1.646,24.0469C1.2344,24.4258,1,24.9595,1,25.5183V27c0,0.5522,0.4478,1,1,1h4v21h15V34
				h10V38.9972z M62.958,32.9458c-0.7819-1.3579-2.9263-5.0698-4.2033-7.1641c-1.915-3.1404-4.5496-5.8291-10.3593-5.5765
				c-3.4949,0.152-6.5074,2.5211-7.4528,5.889l-1.8799,6.6973c-0.559,1.9916-1.7082,3.7671-3.2961,5.0927l-5.9706,4.9843
				c-1.4312,1.1947-2.4389,2.8191-2.8735,4.6321l-2.0787,8.6722c-0.0659,0.2748,0.1089,0.5497,0.3859,0.6063l3.5314,0.7236
				c0.2373,0.0486,0.4753-0.08,0.5649-0.3049l3.3124-8.3225c0.2605-0.6414,0.5649-1.0354,1.0019-1.4001l5.9702-4.9839
				c2.5187-2.1025,4.3416-4.9187,5.2285-8.0776l1.8805-6.6982c0.3867-1.3794,1.5986-1.5107,1.9609-1.5181
				c0.3599-0.0063,1.5781,0.0747,2.021,1.438l2.8104,8.6542c0.0864,0.2661,0.3744,0.4095,0.6389,0.3182l2.6865-0.928
				c0.2536-0.0876,0.3929-0.3599,0.3155-0.6167c-0.0017-0.0057-1.534-5.0992-1.5856-5.2646
				c-0.1489-0.4777,0.5606-0.8192,0.8344-0.3721c0.0725,0.1184,3.0617,4.9346,3.0617,4.9346
				c0.1233,0.1981,0.3673,0.2845,0.5878,0.2083l2.6367-0.9115C62.9821,33.5559,63.1134,33.2156,62.958,32.9458z"/>
		</g>
	</g>
</g>
</svg>
