<?xml version="1.0" encoding="utf-8"?>
<!-- Generator: Adobe Illustrator 19.1.0, SVG Export Plug-In . SVG Version: 6.00 Build 0)  -->
<svg version="1.2" baseProfile="tiny" xmlns="http://www.w3.org/2000/svg" xmlns:xlink="http://www.w3.org/1999/xlink" x="0px"
	 y="0px" width="64px" height="64px" viewBox="0 0 64 64" xml:space="preserve">
<g id="Box">
	<rect fill="none" width="64" height="64"/>
</g>
<g id="Icon">
	<g>
		<path d="M61.2248,30.2057L32.8126,3.3202c-0.4594-0.4269-1.1659-0.4269-1.6253,0L2.7752,30.2057
			C2.2813,30.6652,2,31.3124,2,31.9904v1.7968C2,34.4569,2.5374,35,3.2,35H8v25h48V35h4.8c0.6626,0,1.2-0.5431,1.2-1.2128v-1.7968
			C62,31.3124,61.7187,30.6652,61.2248,30.2057z M22.5,55.15c-2.0158,0-3.65-1.6342-3.65-3.65s1.6342-3.65,3.65-3.65
			s3.65,1.6342,3.65,3.65S24.5158,55.15,22.5,55.15z M39.5,55.15c-2.0158,0-3.65-1.6342-3.65-3.65s1.6342-3.65,3.65-3.65
			s3.65,1.6342,3.65,3.65S41.5158,55.15,39.5,55.15z M41.5917,45.7762l-5.9131,0.4287h-0.0635
			c-2.1553,0-3.9912-1.4688-4.4644-3.5718L29.433,34.904c-0.08-0.0023-0.2423,0.0284-0.2716,0.3205l0.0711,5.0892l-2.7798,7.0886
			c-0.8441-0.8145-1.9375-1.3679-3.1537-1.5397l5.4874-13.8487l-1.9908-8.8975l-3.4768,0.0011l-0.212,0.0001
			c-0.7739,0.0003-1.4013-0.6268-1.4015-1.4006c-0.0004-0.7024,0.5168-1.2841,1.191-1.3857l5.165-0.7831
			c0.9559-0.1449,1.8511,0.4932,2.0399,1.4311l4.4652,20.8877c0.1069,0.4771,0.5146,0.8154,1,0.8369l5.7725-0.4189
			c0.9536-0.0684,1.8018,0.6553,1.8721,1.6191C43.2807,44.868,42.5556,45.7059,41.5917,45.7762z M41,37h-5l-2.3185-11h9.7979L41,37z
			"/>
	</g>
</g>
</svg>
