<svg height="64" viewBox="0 0 64 64" width="64" xmlns="http://www.w3.org/2000/svg"><path d="m0 0h64v64h-64z" fill="none"/><path d="m12.638 41.4037c1.3632.6799 2.7556 1.1767 4.1548 1.4997 1.8369-1.5026 3.3253-2.697 4.0104-3.2328 4.5385-3.5498 9.3163-4.6171 13.3506-3.2538 3.848-4.9056 5.8936-11.9796 5.6174-20.0284-.0818-2.3568-1.7427-4.2679-3.928-4.7991l-.02-1.0993 1.1663-2.356-1.7451.1904-1.6516-.7059-.8956.6141-1.4621.0958 1.7841 2.313.0193 1.0583c-2.1189.6941-3.6258 2.7006-3.5457 5.0411.291 8.4734-2.6795 13.4684-5.5566 15.3173-2.0281 1.3032-4.2853 1.3512-6.7092.1423-2.4238-1.2089-3.7425-3.0405-3.9216-5.4445-.2538-3.4109 1.9492-8.7888 8.8926-13.6535 1.9161-1.3426 2.6127-3.7508 1.8954-5.8598l.8606-.6239 2.921.0336-.8031-1.2256-.0483-1.0847-1.5575-.8947-.8977-1.5085-1.1804 2.349-.8766.6354c-.3008-.2477-.6229-.4617-.9645-.6321-1.6339-.8149-3.6503-.732-5.2508.3888-8.8947 6.2321-13.8466 14.77-13.2459 22.8385.4466 6.0081 3.9412 11.0691 9.5878 13.8853z"/><path d="m46.2277 37.8951c4.5424-4.606 2.2958-13.0159 2.2958-13.0159s-4.8425 2.8232-6.8138 5.7359-.8954 5.3184-1.7863 6.6678c-.5382.8152-2.1391 2.1569-3.3245 3.0936-4.0865-3.717-9.6315-2.7338-14.4399 1.0268-.1251.0978-.2608.2046-.4033.3172 2.3453.1719 5.7495 1.761 5.7761 7.6082.002.4394-.1741.6239-.3288.5022 0 0-2.3929-7.0485-8.6287-5.5266-.013.0032-.0215.0042-.0343.0073-1.5128 1.2354-3.2355 2.6605-4.9406 4.0963 1.8226.2349 4.4407 1.5822 4.3489 5.7073-.0068.306-.1849.4468-.321.3668 0 0-1.636-4.4406-6.4176-4.0428-2.9244 2.5109-5.43 4.7692-6.175 5.7169-1.7666 2.2471-.4671 5.2119 2.7087 4.6019 3.9399-.7567 13.809-2.7705 23.5916-4.9418 7.6628-1.7007 9.4743-7.4255 7.7963-11.818 1.7345-.7816 3.6328-1.3557 5.1776-1.0579 2.5773.4968 5.6899 1.7593 8.6611 1.2615 6.5968-1.1052 9.5588-3.9246 9.5588-3.9246-6.0765-7.4509-16.3011-2.3821-16.3011-2.3821z"/></svg>