<svg height="64" viewBox="0 0 64 64" width="64" xmlns="http://www.w3.org/2000/svg"><path d="m0 0h64v64h-64z" fill="none"/><path d="m60.1294 18.0789-14.3343-1.8024c-.4772-.0612-.9549.1096-1.2852.4595l-3.6533 3.8715c-.1486.1575-.2378.3538-.2645.5582-.0247.2047.0132.4169.1182.6063l2.5812 4.6553c.2333.4208.6539.7045 1.1314.7634l14.3343 1.8023c.5494.0677 1.0544-.3592 1.1221-.9086l1.1124-8.8474c.0704-.5491-.3131-1.0876-.8623-1.1581zm-13.2828 3.7719c-.1116.8286-.8627 1.4162-1.688 1.3147-.8279-.102-1.4157-.8587-1.3183-1.6927.1121-.8321.8689-1.4197 1.6964-1.3136.8246.1059 1.4069.8612 1.3099 1.6916z"/><path d="m45 52s3-4.6889 2.6111-11.7444c-.3848-6.9821-7.1522-14.4148-11.3403-18.3753 1.1063-.3499 1.7292-1.5002 1.7292-2.8803 0-1.6569-.8871-3-2.4456-3h-.6962c.9211-1.1086 2.7287-2.917 3.3039-4.2622 1.2211-2.8557-1.935-3.5664-6.1621-4.7378v-3.4056c0-3.9382-14.4693 1.4626-13.25 5.8025.7169 2.5515 2.4237 5.2056 3.4106 6.6031h-.715c-1.5585 0-2.4456 1.3431-2.4456 3s.8871 3 2.4456 3h5.9745c.0209.0562.0673.2623-.2499.3641-.2025.065-5.0818.985-8.5856 1.6422-4.0244 4.1762-8.8717 10.3704-9.1957 16.2493-.3889 7.0555 2.6111 11.7444 2.6111 11.7444l-2.6094 4.175c-1.0407 1.6651.1565 3.825 2.12 3.825h33.9788c1.9636 0 3.1607-2.1599 2.12-3.825zm-10.8529-1.3359c-1.6627.3934-2.4482.4839-4.0502.4839-4.2016 0-7.1647-2.0555-8.0408-6.5294h-2.0561v-2.2969h1.8141v-.6347c0-.5441 0-1.1187.0608-1.6324h-1.8749v-2.3273h2.2372c1.0883-4.5341 4.1718-6.8316 8.3734-6.8316 1.1788 0 2.1157.0906 3.3851.363v3.1735c-1.4816-.2718-2.267-.3927-3.4757-.3927-2.298 0-3.8094 1.239-4.4745 3.6878h5.502v2.3273h-5.8941c-.031.4232-.031.8463-.031 1.2694 0 .363 0 .6956.031.9977h5.8941v2.2969h-5.5317c.6949 2.4786 2.3278 3.5066 4.322 3.5066 1.4208 0 2.2372-.1209 3.8094-.4535v2.9924z"/></svg>