<?xml version="1.0" encoding="utf-8"?>
<!-- Generator: Adobe Illustrator 19.1.0, SVG Export Plug-In . SVG Version: 6.00 Build 0)  -->
<svg version="1.2" baseProfile="tiny" xmlns="http://www.w3.org/2000/svg" xmlns:xlink="http://www.w3.org/1999/xlink" x="0px"
	 y="0px" width="64px" height="64px" viewBox="0 0 64 64" xml:space="preserve">
<g id="_x36_4px_Box">
	<rect fill="none" width="64" height="64"/>
</g>
<g id="Icon">
	<path d="M52.8118,19.7614c0.4438-2.1928,0.9085-4.0128,2.9882-4.8375c2.1136-0.8381,5.0799-1.5598,5.0773-4.9385
		C60.8764,8.8909,59.9819,8.0001,58.8875,8h-2.4637c-1.8163,0-2.6048-0.3496-3.2083-0.7484
		c-2.3938-1.5822-4.6806-1.4539-6.6627-0.4852c-1.9346,0.9454-3.3706,2.7379-4.4138,4.6938
		c-1.7403,3.2631-4.2057,8.7014-5.4384,11.2393c-1.2327,2.5379-2.8279,3.408-4.8583,4.0606
		c-2.0303,0.6526-1.5227,0.4351-8.4838,2.3929c-6.9611,1.9578-14.3573,3.0455-18.998,9.8616
		c-3.8784,5.6964-1.7347,13.0173-0.8001,15.5503c0.1971,0.5343,0.8356,0.7438,1.3159,0.4377
		c1.2022-0.7661,2.0222-1.9208,2.0222-1.9208c0.8785,1.8516,2.0926,2.9418,2.8864,3.502c0.4447,0.3138,1.0481,0.1797,1.3321-0.2845
		c3.856-6.3054-1.028-13.7316-1.028-13.7316c0.0798-0.156,0.3076-0.0887,0.5035,0.0559c1.9177,1.4154,3.5951,5.2514,3.5951,5.2514
		c5.25,2.75,12.625,1.75,12.625,1.75c4.2064-6.5854,8.2789-9.7176,9.6884-10.5627c0.2371-0.1422,0.4428-0.1155,0.4897,0.0248
		c-5.949,5.8935-8.1893,12.1707-8.9106,14.7782c-0.1686,0.6096,0.3683,1.163,0.9905,1.0492
		c6.9674-1.2742,11.7035-5.5007,13.5641-7.4413c0.5681-0.5926,1.4183-0.8191,2.2061-0.5886
		c6.405,1.8745,10.3483,2.0356,12.0233,1.984c0.4894-0.0151,0.8108-0.519,0.6135-0.9672c-1.2653-2.8733-5.0787-5.351-7.004-6.7101
		c-1.4016-0.9894-1.5452-2.2441-1.2048-3.9257L52.8118,19.7614z M48.5,12c-0.8284,0-1.5-0.6716-1.5-1.5S47.6716,9,48.5,9
		S50,9.6716,50,10.5S49.3284,12,48.5,12z"/>
</g>
</svg>
