<?xml version="1.0" encoding="utf-8"?>
<!-- Generator: Adobe Illustrator 19.1.0, SVG Export Plug-In . SVG Version: 6.00 Build 0)  -->
<svg version="1.2" baseProfile="tiny" xmlns="http://www.w3.org/2000/svg" xmlns:xlink="http://www.w3.org/1999/xlink" x="0px"
	 y="0px" width="64px" height="64px" viewBox="0 0 64 64" xml:space="preserve">
<g id="_x36_4px_Box">
	<rect fill="none" width="64" height="64"/>
</g>
<g id="Icon">
	<g>
		<path d="M17.8441,15.9942c2.9736,0.1263,4.767-1.8148,4.872-4.7142c0.1193-3.303-1.6149-5.1512-4.511-5.2741
			c-3.0509-0.1296-4.77,1.8948-4.8778,4.8755C13.2137,14.0229,14.8709,15.868,17.8441,15.9942z"/>
		<path d="M26,44H16c-1.1046,0-2,0.8954-2,2s0.8954,2,2,2h10c1.1046,0,2-0.8954,2-2S27.1046,44,26,44z"/>
		<path d="M56.6964,19.0283L55.8026,18.58c-0.4937-0.2477-1.0946-0.0483-1.3422,0.4454L50.4597,27H40c-0.5522,0-1,0.4477-1,1v1
			c0,0.5523,0.4478,1,1,1h-3.8289c0.051-0.0049,0.0779-0.0078,0.0779-0.0078s-0.1776-2.98-3.249-3.0515
			c-3.0714-0.0714-4.4087-0.7081-6.3546-1.9771c-2.8891-1.8842-4.5456-5.8296-7.6415-6.7453
			c-2.7692-0.8191-6.0019,0.9006-5.9839,4.7767c0.0208,4.4496,0.3452,10.9468,0.6931,14.6158
			c0.2257,2.3807,2.3062,4.3082,5.6247,4.3708c2.4099,0.0456,10.4075-0.0084,10.4075-0.0084s2.0118,7.9762,3.0327,12.3113
			c1.0208,4.3344,4.4049,4.207,5.3638,4.0856c0,0-1.6576-16.2613-2.1633-18.6259C35.4838,37.4316,35.4,35.5499,32.4,35.2499
			c-2.1576-0.2158-5.4-0.31-8.2-0.21c-0.2785-2.6616-0.6376-5.7014-0.9221-8.0379c0.6155,0.5734,1.4194,1.1938,2.4836,1.7601
			c1.4648,0.7795,3.4153,1.1307,5.2385,1.2748V33h24v-3h-2.689l4.8308-9.6294C57.3895,19.877,57.1901,19.276,56.6964,19.0283z"/>
	</g>
</g>
</svg>
