<svg xmlns="http://www.w3.org/2000/svg" width="48" height="48" xmlns:v="https://vecta.io/nano"><path d="M41.184 35.539l-9.074-9.07a13.61 13.61 0 0 0 1.629-6.473c0-7.551-6.145-13.695-13.699-13.695S6.34 12.445 6.34 19.996c0 7.559 6.145 13.703 13.699 13.703 2.309 0 4.484-.578 6.395-1.59l9.09 9.09c1.422 1.422 3.738 1.422 5.16 0l.5-.5a3.65 3.65 0 0 0 0-5.16zM11.738 19.996c0-4.578 3.719-8.297 8.301-8.297s8.301 3.719 8.301 8.297c0 4.586-3.719 8.305-8.301 8.305s-8.301-3.719-8.301-8.305zm0 0" fill="rgb(0%,0%,0%)"/></svg>