<?xml version="1.0" encoding="utf-8"?>
<!-- Generator: Adobe Illustrator 17.1.0, SVG Export Plug-In . SVG Version: 6.00 Build 0)  -->
<svg version="1.2" baseProfile="tiny" xmlns="http://www.w3.org/2000/svg" xmlns:xlink="http://www.w3.org/1999/xlink" x="0px"
	 y="0px" width="64px" height="64px" viewBox="0 0 64 64" xml:space="preserve">
<g id="Box">
	<rect fill="none" width="64" height="64"/>
</g>
<g id="Icon">
	<g>
		<path d="M62.674,15.8266c-1.6264-0.3758-6.248-1.2916-6.8029-2.6642c-0.5554-1.374,1.1092-4.3411,1.9855-5.7522
			c0.1113-0.1793-0.0968-0.3868-0.2764-0.2759c-1.4318,0.8839-4.4545,2.5762-5.7496,1.9876c-1.3193-0.5995-2.29-5.5442-2.675-7.1183
			c-0.0494-0.2018-0.3329-0.2059-0.3875-0.0054c-0.4345,1.5939-1.5018,6.6187-2.6517,7.1237
			c-1.14,0.5007-4.3225-1.1995-5.7809-2.0421c-0.1823-0.1053-0.3808,0.1044-0.2685,0.2824
			c0.8613,1.3658,2.5357,4.3088,2.0089,5.8002c-0.5055,1.4311-4.9452,2.285-6.629,2.6492
			c-0.2139,0.0463-0.2099,0.3486,0.0048,0.3908c1.6431,0.3235,5.9705,1.1145,6.6243,2.6741
			c0.6215,1.4827-1.1062,4.3223-2.0491,5.7606c-0.1221,0.1863,0.1029,0.4012,0.2834,0.2708
			c1.3707-0.9902,4.607-2.6138,5.8062-1.9908c1.3287,0.6904,2.4288,4.8677,2.7008,6.4909c0.0365,0.2178,0.3455,0.2209,0.3937,0.0054
			c0.376-1.6829,1.3897-5.9435,2.6197-6.4963c1.2493-0.5615,4.3732,1.1441,5.8032,2.0612c0.1845,0.1183,0.3965-0.0983,0.2733-0.2795
			c-0.9833-1.4453-2.8497-4.4495-2.0359-5.8222c0.8304-1.4009,5.2515-2.2908,6.806-2.6605
			C62.8829,16.1671,62.8801,15.8742,62.674,15.8266z M49,21.1875c-2.865,0-5.1875-2.3226-5.1875-5.1875
			c0-2.865,2.3225-5.1875,5.1875-5.1875S54.1875,13.135,54.1875,16C54.1875,18.8649,51.865,21.1875,49,21.1875z"/>
		<path d="M37.7529,42.0443c-1.5615-2.559-4.4375-4.2209-7.6948-4.0402l-0.083,0.0039C28.3696,36.1128,26.0425,35,23.5,35
			c-2.5962,0-4.9316,1.1439-6.4927,2.9924c-0.1631-0.0097-0.3276-0.0146-0.4922-0.0146c-3.0732,0-5.7754,1.6202-7.2686,4.0664
			C5.1543,42.6342,2,46.1592,2,50.4055C2,60,18.1821,60,23.5,60c5.8804,0,21.5,0,21.5-9.5945
			C45,46.1583,41.8452,42.6332,37.7529,42.0443z M23.5,56.119c-5.902,0-17.5-0.6176-17.5-5.7133
			c0-3.0107,2.9921-5.2774,6.022-4.1901c0.172-3.5131,4.1539-5.4542,7.0474-3.4471c0.3331-2.1425,2.1808-3.7877,4.4307-3.7877
			c3.9671,0,6.4444,5.105,2.9852,9.1317c0.0753,0.1486,0.3585,0.151,0.7335-0.1129c0.4323-0.3042,3.0126-2.4596,3.0491-6.0202
			c2.5895-0.1349,4.5936,1.8539,4.7102,4.2362C38.0107,45.1274,41,47.3972,41,50.4057C41,55.5678,29.4124,56.119,23.5,56.119z"/>
	</g>
</g>
</svg>
