<?xml version="1.0" encoding="utf-8"?>
<!-- Generator: Adobe Illustrator 24.1.3, SVG Export Plug-In . SVG Version: 6.00 Build 0)  -->
<svg version="1.1" xmlns="http://www.w3.org/2000/svg" xmlns:xlink="http://www.w3.org/1999/xlink" x="0px" y="0px"
	 viewBox="0 0 64 64" style="enable-background:new 0 0 64 64;" xml:space="preserve">
<style type="text/css">
	.st0{fill:none;}
</style>
<g id="Box">
	<rect class="st0" width="64" height="64"/>
</g>
<g id="Icon">
	<g>
		<path d="M45,13c2.2,0,4-0.3,4-0.7c0-1-0.1-2.1-0.3-3.1C48.6,8.5,48,8,47.4,8h-4.7c-0.6,0-1.2,0.5-1.3,1.2c-0.2,1-0.3,2.1-0.3,3.1
			C41,12.7,42.8,13,45,13z"/>
		<path d="M51.4,17.8l-3.1-3c-0.9,0.2-2.1,0.3-3.3,0.3c-1.2,0-2.4-0.1-3.3-0.3L39,17.4l0.3,0.1c1.2,0.3,2,1.3,1.9,2.4
			c0,1.2-0.8,2.2-2,2.4L39,22.4c-1.1,0.2-2.1,0.4-2.9,0.6c0,0.4-0.1,0.7-0.1,1.1v17.4c0,0.8,0.7,1.5,1.5,1.5s1.5-0.7,1.5-1.5h2
			c0,0.8,0.7,1.5,1.5,1.5s1.5-0.7,1.5-1.5h2c0,0.8,0.7,1.5,1.5,1.5s1.5-0.7,1.5-1.5h2c0,0.8,0.7,1.5,1.5,1.5s1.5-0.7,1.5-1.5V24.1
			C54,21.7,53.1,19.4,51.4,17.8z"/>
		<path d="M30,23.7c0.9-2.1,6.6-3.1,8.8-3.6c0.3-0.1,0.3-0.5,0-0.5c-2.2-0.5-8.2-1.6-8.8-3.5c-0.7-2,1.5-5.9,2.7-7.7
			c0.1-0.2-0.1-0.5-0.4-0.4c-1.9,1.1-6.2,3.4-7.7,2.7C23,10,21.6,3.3,21,1.2c-0.1-0.3-0.5-0.3-0.5,0c-0.5,2.1-1.8,8.7-3.6,9.5
			c-1.7,0.8-5.8-1.5-7.7-2.7C9,7.9,8.8,8.2,8.9,8.4c1.2,1.9,3.4,5.8,2.6,7.7c-0.7,1.8-6.9,3.1-9.1,3.6c-0.3,0.1-0.3,0.5,0,0.5
			c2.1,0.5,8,1.7,9.1,3.6c1.1,1.8-1.4,5.8-2.7,7.8C8.7,31.7,9,32,9.2,31.9c1.9-1.2,6.1-3.5,7.7-2.8c1.6,0.7,3,6.4,3.5,8.7
			c0.1,0.3,0.5,0.3,0.5,0c0.4-2.2,1.8-7.7,3.6-8.7c1.6-0.8,5.9,1.3,7.7,2.7c0.2,0.2,0.5-0.1,0.4-0.4C31.4,29.5,29.1,25.7,30,23.7z
			 M20.7,26.8c-3.8,0-6.9-3.1-6.9-6.9c0-3.8,3.1-6.9,6.9-6.9s6.9,3.1,6.9,6.9C27.6,23.7,24.5,26.8,20.7,26.8z"/>
		<circle cx="37.5" cy="45" r="1.5"/>
		<circle cx="42.5" cy="45" r="1.5"/>
		<circle cx="47.5" cy="45" r="1.5"/>
		<circle cx="52.5" cy="45" r="1.5"/>
		<circle cx="37.5" cy="51" r="1.5"/>
		<circle cx="42.5" cy="51" r="1.5"/>
		<circle cx="47.5" cy="51" r="1.5"/>
		<circle cx="52.5" cy="51" r="1.5"/>
		<circle cx="37.5" cy="57.5" r="1.5"/>
		<circle cx="42.5" cy="57.5" r="1.5"/>
		<circle cx="47.5" cy="57.5" r="1.5"/>
		<circle cx="52.5" cy="57.5" r="1.5"/>
	</g>
</g>
</svg>
