<?xml version="1.0" encoding="utf-8"?>
<!-- Generator: Adobe Illustrator 22.0.1, SVG Export Plug-In . SVG Version: 6.00 Build 0)  -->
<svg version="1.2" baseProfile="tiny" xmlns="http://www.w3.org/2000/svg" xmlns:xlink="http://www.w3.org/1999/xlink" x="0px"
	 y="0px" viewBox="0 0 64 64" xml:space="preserve">
<g id="Box">
	<rect fill="none" width="64" height="64"/>
</g>
<g id="Icon">
	<g>
		<path d="M62.0306,32.2538c-3.5876-0.8289-13.7815-2.8489-15.0054-5.8765c-1.2251-3.0309,2.4466-9.5753,4.3795-12.6879
			c0.2455-0.3957-0.2135-0.8534-0.6099-0.6088c-3.1582,1.9497-9.8255,5.6824-12.6819,4.3841
			c-2.9103-1.3223-5.0514-12.2291-5.9004-15.7011c-0.109-0.4449-0.7343-0.4539-0.8547-0.0119
			c-0.9584,3.5157-3.3126,14.5991-5.849,15.713c-2.5145,1.1044-9.5343-2.6456-12.7514-4.5043
			c-0.4021-0.2323-0.8397,0.2303-0.592,0.6229c1.8996,3.0126,5.5931,9.5043,4.4311,12.794
			c-1.115,3.1564-10.9078,5.0401-14.6221,5.8434c-0.4716,0.1019-0.463,0.7689,0.0106,0.862
			c3.6243,0.7136,13.1694,2.4583,14.6115,5.8984c1.3709,3.2707-2.44,9.5341-4.5198,12.7064
			c-0.2693,0.4109,0.227,0.8849,0.6251,0.5971c3.0234-2.1839,10.1618-5.7654,12.807-4.391
			c2.9308,1.5226,5.3573,10.7367,5.9573,14.3172c0.0805,0.4802,0.7621,0.487,0.8684,0.0117
			c0.8294-3.712,3.0653-13.1098,5.7784-14.3289c2.7554-1.2387,9.6459,2.5236,12.8004,4.5463
			c0.407,0.2612,0.8746-0.2168,0.6026-0.6165c-2.1689-3.188-6.2857-9.8142-4.4907-12.8423
			c1.8316-3.09,11.5834-5.0527,15.0123-5.8681C62.4914,33.0048,62.4852,32.3588,62.0306,32.2538z M31.8693,44.0785
			c-6.3194,0-11.4423-5.1231-11.4423-11.4423c0-6.3194,5.1228-11.4423,11.4423-11.4423s11.4423,5.1228,11.4423,11.4423
			C43.3116,38.9555,38.1887,44.0785,31.8693,44.0785z"/>
	</g>
</g>
</svg>
