<?xml version="1.0" encoding="utf-8"?>
<!-- Generator: Adobe Illustrator 19.1.0, SVG Export Plug-In . SVG Version: 6.00 Build 0)  -->
<svg version="1.2" baseProfile="tiny" xmlns="http://www.w3.org/2000/svg" xmlns:xlink="http://www.w3.org/1999/xlink" x="0px"
	 y="0px" width="64px" height="64px" viewBox="0 0 64 64" xml:space="preserve">
<g id="_x36_4px_Box">
	<rect fill="none" width="64" height="64"/>
</g>
<g id="Icon">
	<g>
		<path d="M10.145,21.9883c0.9899,1.6699-1.2804,5.3242-2.4765,7.0823c-0.15,0.2205,0.1078,0.484,0.3323,0.34
			c1.7396-1.1155,5.5396-3.1903,7.0592-2.5072c1.4962,0.6723,2.7292,5.855,3.1866,7.9022c0.0587,0.2621,0.4345,0.2584,0.4789-0.0065
			c0.3308-1.9746,1.669-7.056,3.2853-7.8957c1.4587-0.7579,5.3954,1.2172,7.0628,2.4216c0.2196,0.1587,0.4933-0.1027,0.3447-0.3293
			c-1.1469-1.7495-3.2485-5.2037-2.4926-7.0074c0.7953-1.8971,6.0593-2.8593,8.058-3.2528
			c0.2612-0.0513,0.2659-0.4192,0.0059-0.4754c-2.0483-0.443-7.4489-1.4819-8.0638-3.2225
			c-0.6408-1.8142,1.3961-5.3942,2.4437-7.0557c0.1366-0.2165-0.1047-0.4716-0.3265-0.3435
			c-1.7742,1.0251-5.6454,3.0931-7.0322,2.4841c-1.3987-0.6143-2.697-6.7266-3.2256-8.6655
			c-0.0664-0.2438-0.4113-0.2388-0.4714,0.0066c-0.4682,1.9147-1.649,7.9296-3.2539,8.6589
			c-1.5753,0.716-5.2522-1.3426-6.9938-2.4178C7.8475,7.5698,7.5944,7.8222,7.7298,8.0405c1.066,1.7165,3.0908,5.3256,2.4152,6.9971
			c-0.675,1.6697-6.2967,2.7836-8.2752,3.2408c-0.2507,0.0579-0.2542,0.4142-0.0038,0.4738
			C3.757,19.2019,9.1349,20.2842,10.145,21.9883z M18.5032,12.1791c3.4851,0,6.3102,2.8252,6.3102,6.3102
			c0,3.4849-2.8251,6.3102-6.3102,6.3102c-3.485,0-6.3102-2.8253-6.3102-6.3102C12.193,15.0043,15.0181,12.1791,18.5032,12.1791z"/>
		<path d="M61,36.295C61,35.5587,60.2782,35,59.52,35H23.5005c-0.5811,0-1.475,0.3077-1.9079,0.9495L5.9352,58.5658
			C5.2149,59.6063,5.9811,61.001,7.22,61h34.2596c1.1116,0,2.1514-0.5493,2.778-1.4675l15.2255-22.3167
			c0.0582,0.0144,0.2546,0.0922,0.16,0.4116L57,44.1047V57h-8.3501l-2.5747,3.7729c-0.0545,0.0798-0.1183,0.1507-0.1765,0.2271H61
			V36.295z M41.3269,58H10.2981l13.6538-20h31.2212L41.3269,58z"/>
		<polygon points="28.0582,49 23.2121,56 30.7179,56 35.564,49 		"/>
		<polygon points="36.9487,47 41.7083,40.125 34.2025,40.125 29.4429,47 		"/>
		<polygon points="27.6929,47 32.4525,40.125 25,40.125 20.2362,47 		"/>
		<polygon points="18.8504,49 14,56 21.4621,56 26.3082,49 		"/>
		<polygon points="32.4679,56 40,56 44.8504,49 37.314,49 		"/>
		<polygon points="46.2362,47 51,40.125 43.4583,40.125 38.6987,47 		"/>
	</g>
</g>
</svg>
