<?xml version="1.0" encoding="utf-8"?>
<!-- Generator: Adobe Illustrator 17.1.0, SVG Export Plug-In . SVG Version: 6.00 Build 0)  -->
<svg version="1.2" baseProfile="tiny" xmlns="http://www.w3.org/2000/svg" xmlns:xlink="http://www.w3.org/1999/xlink" x="0px"
	 y="0px" width="64px" height="64px" viewBox="0 0 64 64" xml:space="preserve">
<g id="Box">
	<rect fill="none" width="64" height="64"/>
</g>
<g id="Icon">
	<g>
		<path d="M50.043,53.34c-1.0001,0.7504-3.4848,2.75-6,2.75c-2.4615,0-4.9159-1.9367-6-2.75c-1.0001,0.7504-3.4848,2.75-6,2.75
			c-2.4615,0-4.9159-1.9367-6-2.75c-1.0001,0.7504-3.4848,2.75-6,2.75c-2.4615,0-4.9159-1.9367-6-2.75
			c-1.0001,0.7504-3.4848,2.75-6,2.75c-1.0184,0-2.1246-0.3893-3.043-0.8273v4.2183C5.9427,59.7856,6.9789,60,8.043,60
			c2.397,0,4.6631-1.0762,6-1.8633c1.3369,0.7871,3.603,1.8633,6,1.8633s4.6631-1.0762,6-1.8633
			c1.3369,0.7871,3.603,1.8633,6,1.8633s4.6631-1.0762,6-1.8633c1.3369,0.7871,3.603,1.8633,6,1.8633s4.6631-1.0762,6-1.8633
			c1.3369,0.7871,3.603,1.8633,6,1.8633c1.0322,0,2.0372-0.2025,2.957-0.4926v-4.2031c-0.8999,0.4195-1.9733,0.7856-2.957,0.7856
			C53.5814,56.09,51.1271,54.1533,50.043,53.34z"/>
		<path d="M50.043,44.34c-1.0001,0.7504-3.4848,2.75-6,2.75c-2.4615,0-4.9159-1.9367-6-2.75c-1.0001,0.7504-3.4848,2.75-6,2.75
			c-2.4615,0-4.9159-1.9367-6-2.75c-1.0001,0.7504-3.4848,2.75-6,2.75c-2.4615,0-4.9159-1.9367-6-2.75
			c-1.0001,0.7504-3.4848,2.75-6,2.75c-1.0184,0-2.1246-0.3893-3.043-0.8273v4.2183C5.9427,50.7856,6.9789,51,8.043,51
			c2.397,0,4.6631-1.0762,6-1.8633c1.3369,0.7871,3.603,1.8633,6,1.8633s4.6631-1.0762,6-1.8633
			c1.3369,0.7871,3.603,1.8633,6,1.8633s4.6631-1.0762,6-1.8633c1.3369,0.7871,3.603,1.8633,6,1.8633s4.6631-1.0762,6-1.8633
			c1.3369,0.7871,3.603,1.8633,6,1.8633c1.0322,0,2.0372-0.2025,2.957-0.4926v-4.2031c-0.8999,0.4195-1.9733,0.7856-2.957,0.7856
			C53.5814,47.09,51.1271,45.1533,50.043,44.34z"/>
		<path d="M56.043,38.09c-2.4615,0-4.9159-1.9367-6-2.75c-1.0001,0.7504-3.4848,2.75-6,2.75c-2.4615,0-4.9159-1.9367-6-2.75
			c-1.0001,0.7504-3.4848,2.75-6,2.75c-2.4615,0-4.9159-1.9367-6-2.75c-1.0001,0.7504-3.4848,2.75-6,2.75
			c-2.4615,0-4.9159-1.9367-6-2.75c-1.0001,0.7504-3.4848,2.75-6,2.75c-1.0184,0-2.1246-0.3893-3.043-0.8273v4.2183
			C5.9427,41.7856,6.9789,42,8.043,42c2.397,0,4.6631-1.0762,6-1.8633c1.3369,0.7871,3.603,1.8633,6,1.8633s4.6631-1.0762,6-1.8633
			c1.3369,0.7871,3.603,1.8633,6,1.8633s4.6631-1.0762,6-1.8633c1.3369,0.7871,3.603,1.8633,6,1.8633s4.6631-1.0762,6-1.8633
			c1.3369,0.7871,3.603,1.8633,6,1.8633c1.0322,0,2.0372-0.2025,2.957-0.4926v-4.2031C58.1001,37.7238,57.0267,38.09,56.043,38.09z"
			/>
		<circle cx="30.5" cy="26.5" r="1.5"/>
		<circle cx="34.5" cy="30.5" r="1.5"/>
		<circle cx="28.5" cy="31.5" r="1.5"/>
	</g>
	<path d="M55.5713,4.4285C53.3729,2.2353,50.7383,1,48.8125,1c-1.3096,0-2.2046,0.4499-2.7947,1.2668
		C45.25,3.33,36.897,15.5541,36.897,15.5541l-2.4567,1.9269c2.3288,0.8817,4.3164,2.7656,4.9354,4.8877
		c0.1028,0.3524-0.0543,0.3912-0.1104,0.3912c-0.0103,0-0.0171-0.0013-0.0184-0.0022c-1.9875-2.4136-4.5341-3.9725-6.0704-3.9727
		c-0.4109,0-0.7493,0.1115-0.9857,0.3478c-0.9763,0.9763,0.1745,3.71,2.5704,6.1059c1.817,1.817,3.8284,2.918,5.1201,2.918
		c0.4116,0,0.7499-0.1117,0.9858-0.3476c0.9763-0.9763,3.6346-4.7278,3.6346-4.7278c5.7827-4.0661,11.3231-7.6931,13.4994-9.3104
		C59.8613,12.3885,58.2273,7.0781,55.5713,4.4285z M50.3339,14.2141c-2.095,1.4235-4.6537,3.1641-7.2645,4.9883
		c-0.6366-0.9551-1.3721-1.7758-2.199-2.373c2.9794-4.3585,6.9481-10.1534,8.1063-11.8168
		c0.6678,0.0906,2.2044,0.6863,3.7696,2.2478c1.0866,1.084,1.8235,2.888,2.0097,3.9196
		C53.6579,11.9554,52.0878,13.0224,50.3339,14.2141z"/>
</g>
</svg>
