<?xml version="1.0" encoding="utf-8"?>
<!-- Generator: Adobe Illustrator 17.1.0, SVG Export Plug-In . SVG Version: 6.00 Build 0)  -->
<svg version="1.2" baseProfile="tiny" xmlns="http://www.w3.org/2000/svg" xmlns:xlink="http://www.w3.org/1999/xlink" x="0px"
	 y="0px" width="64px" height="64px" viewBox="0 0 64 64" xml:space="preserve">
<g id="_x36_4px_Boxes">
	<rect fill="none" width="64" height="64"/>
</g>
<g id="Icon">
	<g>
		<path d="M41.2268,38.7371c-0.155-1.1155-0.3614-2.4073-0.5466-3.4836c1.7886-2.1667,2.8874-4.4047,3.2495-6.6968
			c1.3281-1.2195,2.0679-3.1657,2.0679-5.5557c0-0.7447,0.0012-2.7025-1.2268-4.0366c0.1227-1.3489,0.2245-2.6572,0.2233-3.8806
			c2.2283-0.753,1.9371-1.8961,1.9559-2.9943C47.0022,9.0346,44.5624,5.3762,30,3.2909C19.6846,1.8138,18,6.2992,18,9.1566
			c0,2.1949,0.2535,3.6153,1.0533,4.5612c-0.0956,1.8407-0.0085,3.7848,0.1125,5.3275c-1.1589,1.332-1.1634,3.2256-1.1634,3.9557
			c0,2.386,0.7374,4.3299,2.0614,5.5497c0.3819,2.5118,1.613,4.9141,3.7105,7.2619c-0.106,0.807-0.2283,1.7498-0.353,2.7313
			c-2.5129,0.7345-9.6714,2.9969-12.0341,5.5665C8.5137,47.2344,7,59,7,59h1.4554h1.5463h9.8537c0,0-0.2358-3.2448-2.5259-2.9657
			l-0.8888,1.3125c-0.7777-0.0884-0.0117-2.2504-0.0117-2.2504c0.3163-0.6971-0.8652-2.0278-1.7749-1.2767l-1.9304,2.0544
			c-1.6541-0.5427-0.2564-2.028-1.6549-2.6339c0.744-3.2939,1.674-6.1721,2.5266-7.0986c1.1245-1.2227,4.937-2.957,9.6519-4.4131
			c0.4922,3.9873,4.1255,7.5703,7.3174,9.999l1.7646,1.3428l0.0106-0.0076c0.4127,1.2127,0.0229,2.7575,1.7337,2.7573
			c2.5057-0.0003,2.3347-1.9005,2.4213-3.1315c0.088-1.2502,1.8984-1.2012,2.5377-0.2825c0.4416,0.6347,0.5149,1.1392,1.3569,1.2653
			c0.6191,0.0927,2.3711-0.2784,2.5569-1.9041c0.1859-1.6263-0.9194-1.601-2.1951-1.3815c-1.727,0.2971-1.8737-1.7987-0.688-1.9496
			c2.2214-0.2828,2.3641-1.3643,2.5367-1.8227c0.5024-1.3336-0.6633-2.2625-1.7609-2.8903c0.2173-0.5876,0.3826-1.1945,0.478-1.8167
			c2.2239,0.7075,4.0113,1.3975,5.4099,2.0283c-0.978,1.0561-2.3674,2.7635-1.7993,3.4127c0.8469,0.968,2.8433-0.9074,2.6618,0.5445
			c-0.1815,1.4519-0.668,2.4803-1.9384,2.9643c-1.2704,0.4839-0.5506,3.9043,2.4483,2.6781
			c2.9988-1.2262,3.6829-1.4205,3.4223,1.0726c-0.2145,2.0518,0.8281,1.8242,1.9058,1.049
			c0.0217,0.1148,0.0443,0.2294,0.0654,0.3442l0.5162,3H57c0,0-1.5137-11.7656-4.3872-14.8896
			C50.4294,41.7358,44.1508,39.6238,41.2268,38.7371z M35,8.7042C35,8.3152,35.3048,8,35.6808,8h3.6383
			C39.6952,8,40,8.3152,40,8.7042V12c0,0.2112-0.0917,0.4113-0.2497,0.545l-1.8192,1.5394c-0.2508,0.2122-0.6115,0.2122-0.8623,0
			l-1.8192-1.5394C35.0917,12.4113,35,12.2112,35,12V8.7042z M35.7183,35.7039c-0.7807,0.6644-2.2499,1.1066-3.7188,1.1055
			c-1.0628-0.0008-2.1255-0.2865-2.9271-0.6349c0.6138,0.9305,1.6553,2.0744,3.5848,2.5851
			c3.1548,0.8349,5.4595-0.9139,5.4595-0.9139s0.2828,1.9133,0.2745,2.4157c0.3267,3.4883-3.5568,7.3169-6.0102,9.0784
			c-2.3003-1.75-6.5919-5.5302-6.1588-9.0224c0.237-1.9129,0.0408-0.5492,0.8235-5.4371c-2.2767-2.2-4.1043-4.8665-4.1043-8.061
			C21.3237,26.3154,20.9,24.2739,20.9,23.001c0-1.2725,0.3217-1.961,0.7737-2.1743c0.3922-0.1844,0.7725-0.0475,1.013,0.0886
			c0.1414,0.6527,0.2484,1.1383,0.2898,1.3098C23.1826,23.0762,24,22.998,24,22.998v-7.5241
			c1.1766,0.1213,2.5678,0.2021,4.2224,0.2761c5.2733,0.2357,9.0531,0.241,11.7776,0.0833v7.1647c0,0,0.8174,0.0782,1.0234-0.7729
			c0.0415-0.1715,0.1484-0.6571,0.2898-1.3098c0.2405-0.1362,0.6209-0.2731,1.013-0.0886C42.7783,21.04,43.1,21.7285,43.1,23.001
			c0,1.2729-0.4237,3.3144-2.0414,3.8183C41.0586,30.522,38.5251,33.3152,35.7183,35.7039z"/>
		<rect x="38" y="56" width="11" height="3"/>
		<path d="M18.034,50.8884c-0.4544,0.1486-1.7196-0.0837-1.6251,0.6226c0.0229,0.1716,0.1174,0.3297,0.2146,0.48
			c0.4451,0.688,1.0346,1.3531,1.8387,1.6351c0.5781,0.2028,1.2148,0.1857,1.801,0.0542c1.4987-0.3362,2.8176-1.3022,4.3905-0.3933
			c0.2589,0.1495,0.4938,0.3362,0.7632,0.4676c1.3869,0.6761,1.259-1.1889,1.0078-1.9302c-0.2121-0.626-0.5782-1.2015-0.9503-1.7648
			c-0.2682-0.4061-0.6035-0.8503-1.1024-0.931c-0.3771-0.061-0.7431,0.1083-1.1229,0.1105
			c-0.3303,0.0018-0.5707-0.1044-0.7621-0.2684c-0.3103-0.2658-0.4919-0.6833-0.7194-1.038
			c-0.5015-0.7815-1.0465-1.5336-1.7061-2.2122c-0.2734-0.2812-0.611-0.5723-1.0097-0.5679
			c-0.3598,0.004-0.6463,0.2485-0.8965,0.4792c-0.5307,0.4894-1.076,1.0088-1.2909,1.6812
			c-0.2148,0.6725,0.0189,1.541,0.7134,1.8655c0.2444,0.1142,0.5188,0.1512,0.7722,0.245
			C19.341,49.79,18.7384,50.6579,18.034,50.8884z"/>
		<path d="M30.3413,56.4789c-1.2203-0.4202-1.5386,1.8787-2.918,0.2452c-1.3794-1.6334-6.6847-1.9819-5.1462,2.2759h8.4355
			C30.7126,59,31.5615,56.8991,30.3413,56.4789z"/>
		<path d="M46.7457,36.097c-0.0765,0.133-0.0504,0.2675,0.0938,0.3197c0.6509,0.2363,1.8762,0.4194,3.5987,0.5281
			c-0.0481,0.4365-0.1158,1.1881-0.1926,1.5822c-0.0545,0.2792-0.216,0.5253-0.4824,0.6251
			c-0.1674,0.0627-0.3105,0.1453-0.4742,0.2354c2.0494,0.9579,3.8516,2.0461,4.9435,3.2336
			c0.915,0.9948,1.6863,2.5825,2.3336,4.3789H63c0,0-0.0581-3.9122-1.2523-5.1694c-0.4075-0.4291-1.2192-0.8967-2.1119-1.3276
			c-1.1692-0.5784-2.7159-1.0901-3.4119-1.3509c-0.2664-0.0997-0.4353-0.3444-0.4824-0.6251
			c-0.0584-0.3483-0.1238-1.0745-0.1753-1.5093c1.7633-0.0717,2.9615-0.2455,3.5679-0.4766c0.1198-0.0456,0.1804-0.1555,0.127-0.272
			c-0.3317-0.7239-1.194-2.8946-1.3024-4.1379c-0.0552-0.6321-0.0779-1.3688-0.115-2.1256c0.3895-0.0671,2.243-0.4443,2.1476-1.5331
			c-0.1651-1.8829-8.5359-7.1357-11.513-4.842c-1.0598,0.8166-0.0829,2.4912,0.3441,3.121c-1.0458,1.895-0.7649,4.1551-0.8195,5.476
			C47.9596,33.2715,47.1052,35.4725,46.7457,36.097z"/>
		<path d="M9.7681,42.6211c1.213-1.319,3.313-2.5125,5.5878-3.524c-0.532-0.1066-1.1248-0.1909-1.3823-0.2604
			c-0.2872-0.0775-0.4644-0.3277-0.5438-0.6144c-0.1022-0.3686-0.1328-0.8326-0.1328-0.8326
			c0.7592-0.8847,1.3223-1.9476,1.5167-3.34c0.7641-0.238,0.9171-1.2024,0.9171-1.8037c0-0.6011-0.1047-0.9264-0.3183-1.0271
			c-0.1569-0.0737-0.302-0.0382-0.4124,0.0131v-2.4248c0.9308-0.7787,1.5-1.6625,1.5-2.2762c0-1.3384-2.6863-2.4234-6-2.4234
			s-6,1.085-6,2.4234c0,0.6136,0.5692,1.4974,1.5,2.2762v2.3934c-0.0989-0.0308-0.2186-0.0405-0.3436,0.0183
			c-0.2136,0.1007-0.3184,0.426-0.3184,1.0271c0,0.6013,0.1529,1.5657,0.9171,1.8037c0.1712,1.44,0.725,2.4588,1.4686,3.3089
			c0,0-0.0183,0.4353-0.0999,0.849c-0.0588,0.2986-0.2468,0.5551-0.5399,0.637c-1.201,0.3356-3.8576,1.178-4.7932,2.1632
			C1.0967,42.265,1,47,1,47h6.4342C8.0815,45.2036,8.8529,43.6159,9.7681,42.6211z"/>
	</g>
</g>
</svg>
