<?xml version="1.0" encoding="utf-8"?>
<!-- Generator: Adobe Illustrator 17.1.0, SVG Export Plug-In . SVG Version: 6.00 Build 0)  -->
<svg version="1.2" baseProfile="tiny" xmlns="http://www.w3.org/2000/svg" xmlns:xlink="http://www.w3.org/1999/xlink" x="0px"
	 y="0px" width="64px" height="64px" viewBox="0 0 64 64" xml:space="preserve">
<g id="_x36_4px_Boxes">
	<rect fill="none" width="64" height="64"/>
</g>
<g id="Production">
	<rect fill="none" width="64" height="64"/>
	<g>
		<path d="M13.8082,43.9658c-0.0911-1.0023-0.0121-1.9161,0.2017-2.7503c-1.9094,0.8605-3.663,1.8512-4.6226,2.8949
			C6.5137,47.2344,5,59,5,59h7.7369c-0.0215-0.0411-0.0523-0.0746-0.0699-0.1187C12.4767,58.4035,8.2599,47.6125,13.8082,43.9658z"
			/>
		<path d="M30.0762,49.439v-0.1431c-0.0193,0.0139-0.0405,0.0303-0.0596,0.0439c-2.3003-1.75-6.2275-5.5302-5.7944-9.0224
			c0.237-1.9129,0.0408-0.5492,0.8235-5.4371c-2.2767-2.2-4.1043-4.8665-4.1043-8.061C19.3237,26.3154,18.9,24.2739,18.9,23.001
			c0-1.2725,0.3217-1.961,0.7737-2.1743c0.3922-0.1844,0.7725-0.0475,1.013,0.0886c0.1414,0.6527,0.2484,1.1383,0.2898,1.3098
			C21.1826,23.0762,22,22.998,22,22.998v-6.7451c2.0731-0.1505,6.1937-0.7531,10.7499-3.1062L38,16.6729v6.3251
			c0,0,0.8174,0.0782,1.0234-0.7729c0.0415-0.1715,0.1484-0.6571,0.2898-1.3098c0.2405-0.1362,0.6209-0.2731,1.013-0.0886
			C40.7783,21.04,41.1,21.7285,41.1,23.001c0,1.2729-0.4237,3.3144-2.0414,3.8183c0,3.7027-2.5335,6.4959-5.3403,8.8846
			c-0.7807,0.6644-2.2499,1.1066-3.7188,1.1055c-1.0628-0.0008-2.1255-0.2865-2.9271-0.6349
			c0.6138,0.9305,1.6553,2.0744,3.5848,2.5851c3.1548,0.8349,5.4595-0.9139,5.4595-0.9139s0.2828,1.9133,0.2745,2.4157
			c0.0261,0.2784,0.0136,0.5593-0.0154,0.8408l2.8246-2.5475c-0.1518-1.0731-0.3448-2.2818-0.5203-3.3013
			c1.7886-2.1667,2.8874-4.4047,3.2495-6.6968c1.3281-1.2195,2.0679-3.1657,2.0679-5.5557c0-0.7447,0.0012-2.7025-1.2268-4.0366
			c0.3036-3.3378,0.515-8.5034-0.7869-10.587c-1.6026-2.5649-3.5498-3.8159-7.2632-2.9775
			c-2.4355-1.1577-4.0937-1.8823-8.3608-0.8398c-2.9648,0.7241-6.21,1.9067-7.92,3.8798c-1.652,1.9066-1.5394,7.2237-1.2741,10.6054
			c-1.1589,1.332-1.1634,3.2256-1.1634,3.9557c0,2.386,0.7374,4.3299,2.0614,5.5497c0.3819,2.5118,1.613,4.9141,3.7105,7.2619
			c-0.106,0.807-0.2283,1.7498-0.353,2.7313c-0.5007,0.1464-1.1556,0.3155-1.9857,0.6137c-1.047,0.3762-2.9229,0.9445-2.9774,3.8391
			c0.979-0.1049,1.9563,0.0553,2.8914,0.4868c4.6001,2.1245,6.8276,9.9404,6.9204,10.2725
			c0.4185,1.4976-1.9248,2.5256-3.4109,2.9915c-1.1759,0.3686-1.5253-0.1785-1.8027-0.9836
			c-0.2753-0.7988-0.1559-1.3245,0.8812-1.9591c0.3484-0.2131,0.8065-0.4561,1.2941-0.6506
			c-0.8629-2.3426-2.6744-6.1389-5.0139-7.2195c-0.8242-0.3799-1.6138-0.3687-2.4868,0.0352
			c-3.4076,1.5762-1.8391,7.9383-0.9826,10.663c0.4782-0.201,0.97-0.3459,1.363-0.4355c1.1605-0.2649,1.6043,0.0261,1.9592,0.7833
			c0.4728,1.009,0.3344,1.4951-0.7527,2.0195H30h3v-6.0605C31.3398,52.6401,30.0762,51.1841,30.0762,49.439z"/>
		<path d="M60.5713,47.7935L47.3809,35.897c-0.2133-0.196-0.5413-0.196-0.7546,0L33.436,47.7935
			c-0.2294,0.2112-0.36,0.5085-0.36,0.8199v0.8254c0,0.3076,0.2495,0.5572,0.5572,0.5572H36V62h22V49.996h2.3741
			c0.3077,0,0.5571-0.2496,0.5571-0.5572v-0.8254C60.9312,48.302,60.8007,48.0047,60.5713,47.7935z M51,57h-8v-6h8V57z"/>
	</g>
</g>
</svg>
