<?xml version="1.0" encoding="utf-8"?>
<!-- Generator: Adobe Illustrator 17.1.0, SVG Export Plug-In . SVG Version: 6.00 Build 0)  -->
<svg version="1.2" baseProfile="tiny" xmlns="http://www.w3.org/2000/svg" xmlns:xlink="http://www.w3.org/1999/xlink" x="0px"
	 y="0px" width="64px" height="64px" viewBox="0 0 64 64" xml:space="preserve">
<g id="_x36_4px_Boxes">
	<rect fill="none" width="64" height="64"/>
</g>
<g id="Production">
	<path d="M52.6128,44.1104c-2.1834-2.3746-8.462-4.4866-11.386-5.3734c-0.155-1.1155-0.3614-2.4073-0.5466-3.4836
		c1.7886-2.1667,2.8875-4.4047,3.2495-6.6968c1.3281-1.2195,2.0679-3.1657,2.0679-5.5557c0-0.7447,0.0012-2.7025-1.2268-4.0366
		c0.3037-3.3378,0.515-8.5034-0.7869-10.587c-1.6026-2.5649-3.5498-3.8159-7.2632-2.9775C34.2852,4.2422,32.627,3.5176,28.36,4.5601
		c-2.9649,0.7241-6.21,1.9067-7.92,3.8798c-1.652,1.9066-1.5394,7.2237-1.2741,10.6054c-1.1589,1.332-1.1634,3.2256-1.1634,3.9557
		c0,2.386,0.7374,4.3299,2.0614,5.5497c0.3819,2.5118,1.613,4.9141,3.7105,7.2619c-0.106,0.807-0.2283,1.7498-0.353,2.7313
		c-2.5129,0.7345-9.6714,2.9969-12.0341,5.5665C8.5137,47.2344,7,59,7,59h25h25C57,59,55.4864,47.2344,52.6128,44.1104z
		 M32.381,49.3398c-2.3003-1.75-6.5919-5.5302-6.1588-9.0224c0.237-1.9129,0.0408-0.5492,0.8235-5.4371
		c-2.2767-2.2-4.1043-4.8665-4.1043-8.061c-1.6177-0.5039-2.0414-2.5454-2.0414-3.8183c0-1.2725,0.3217-1.961,0.7738-2.1743
		c0.3921-0.1844,0.7725-0.0475,1.013,0.0886c0.1414,0.6527,0.2483,1.1383,0.2898,1.3098C23.1826,23.0762,24,22.998,24,22.998
		v-6.7451c2.0731-0.1505,6.1937-0.7531,10.7499-3.1062L40,16.6729v6.3251c0,0,0.8174,0.0782,1.0234-0.7729
		c0.0415-0.1715,0.1484-0.6571,0.2898-1.3098c0.2405-0.1362,0.6209-0.2731,1.013-0.0886C42.7784,21.04,43.1,21.7285,43.1,23.001
		c0,1.2729-0.4237,3.3144-2.0414,3.8183c0,1.1278-0.2217,2.1558-1.0459,2.9512c-0.8608,0.8294-2.302,1.3032-4.1027,1.348
		c-0.1315-0.3626-0.525-0.6185-0.9868-0.6185h-3.762C30.666,30.5,30,31,30,32s0.666,1.5,1.1613,1.5h3.762
		c0.4706,0,0.8727-0.2643,0.9961-0.6382c1.1568-0.0266,2.1954-0.2012,3.0961-0.5162c-0.9276,1.2215-2.0863,2.3278-3.2971,3.3582
		c-0.7807,0.6644-2.2499,1.1066-3.7188,1.1055c-1.0628-0.0008-2.1255-0.2865-2.9271-0.6349
		c0.6138,0.9305,1.6553,2.0744,3.5848,2.5851c3.1548,0.8349,5.4595-0.9139,5.4595-0.9139s0.2828,1.9133,0.2745,2.4157
		C38.7179,43.7497,34.8344,47.5783,32.381,49.3398z"/>
</g>
</svg>
