<?xml version="1.0" encoding="utf-8"?>
<!-- Generator: Adobe Illustrator 19.1.0, SVG Export Plug-In . SVG Version: 6.00 Build 0)  -->
<svg version="1.2" baseProfile="tiny" xmlns="http://www.w3.org/2000/svg" xmlns:xlink="http://www.w3.org/1999/xlink" x="0px"
	 y="0px" width="64px" height="64px" viewBox="0 0 64 64" xml:space="preserve">
<g id="Box">
	<rect fill="none" width="64" height="64"/>
</g>
<g id="Icon">
	<g>
		<rect x="14" y="56" width="11" height="3"/>
		<path d="M36.5171,56.7241c-1.3564,1.6334-1.6694-0.6655-2.8693-0.2452S33.2826,59,33.2826,59h8.2949
			C43.0903,54.7423,37.8735,55.0908,36.5171,56.7241z"/>
		<path d="M52.6129,44.1104c-2.1834-2.3745-8.462-4.4866-11.386-5.3733c-0.155-1.1155-0.3614-2.4072-0.5466-3.4836
			c1.7886-2.1666,2.8874-4.4047,3.2495-6.6968c1.3281-1.2195,2.0679-3.1656,2.0679-5.5557c0-0.7446,0.0012-2.7025-1.2268-4.0366
			c0.1467-1.6118,0.2579-3.1619,0.1979-4.5768c1.0827-2.8638,2.2095-10.9397-4.265-11.3514
			C34.183,2.6213,27.5532,5.8789,24.0707,8.0126c-1.8292,1.1207-3.3518,2.5911-4.4285,4.3329
			c-1.3718,2.2195-2.6133,5.2419-0.5047,6.7385c-1.1271,1.3298-1.1351,3.1936-1.1351,3.917c0,2.386,0.7374,4.3298,2.0614,5.5497
			c0.3819,2.5118,1.613,4.9142,3.7105,7.2618c-0.106,0.8071-0.2283,1.7499-0.353,2.7314
			c-2.5129,0.7344-9.6714,2.9968-12.0341,5.5664C8.5137,47.2344,7,59,7,59h3.0017l0.4886-2.9099
			c1.0327,0.7034,1.9901,0.8379,1.7838-1.1362c-0.2607-2.4932,0.6729-2.4984,3.6718-1.2722
			c2.9988,1.2263,3.7187-2.1941,2.4482-2.6781c-1.2704-0.484-2.7551-1.3646-2.1877-2.7648
			c0.5495-1.3561,1.8149,0.4236,2.6618-0.5444c0.6015-0.6875-0.9905-2.5603-1.9657-3.5907
			c1.7094-0.7933,3.9039-1.6213,6.3447-2.3751c0.0779,0.6309,0.2419,1.2502,0.463,1.8579
			c-1.1998,0.6143-2.9373,1.6299-2.3432,3.2068c0.1727,0.4585,0.3154,1.54,2.5367,1.8228c1.1857,0.1509,1.0389,2.2468-0.688,1.9497
			C21.9399,50.3462,21,50.3103,21,51.9471c0,2.0529,1.9584,1.9969,2.5774,1.9042c0.8421-0.1261,0.9154-0.6306,1.357-1.2654
			c0.6392-0.9187,2.4497-0.9677,2.5376,0.2825c0.0866,1.2312-0.0845,3.1313,2.4213,3.1316
			c1.8091,0.0002,1.1461-1.7129,2.4343-2.9309l0.0016,0.0012l1.8013-1.2939c1.1616-0.834,6.418-4.8584,7.1865-9.8701
			c5.396,1.7168,8.2612,3.3359,9.0874,4.2344c0.8165,0.8879,1.7381,3.6982,2.4849,6.9423
			c-2.2418,0.4479-1.0197,3.7214-2.9935,2.8824c-1.9763-0.84,0.762-2.694-0.0696-3.6392C48.6718,51.014,47,53,47,54.9744
			c0,0,0,1.0256-1.6154,1.0256C43.6411,56,43,59,43,59h14.0001C57.0001,59,55.4863,47.2344,52.6129,44.1104z M35.0001,8.7041
			C35.0001,8.3152,35.3049,8,35.6808,8h3.6384c0.376,0,0.6808,0.3152,0.6808,0.7041v3.0522c0,0.2112-0.0917,0.4114-0.2498,0.545
			l-1.8192,1.5394c-0.2508,0.2122-0.6115,0.2122-0.8622,0l-1.8192-1.5394c-0.1581-0.1337-0.2497-0.3339-0.2497-0.545V8.7041z
			 M32.381,49.3398c-2.3003-1.75-6.5919-5.5303-6.1588-9.0225c0.237-1.9128,0.0408-0.5492,0.8235-5.437
			c-2.2767-2.2-4.1043-4.8666-4.1043-8.061c-1.6177-0.5039-2.0414-2.5454-2.0414-3.8184c0-1.2725,0.3217-1.9609,0.7737-2.1743
			c0.3922-0.1844,0.7725-0.0476,1.013,0.0886c0.1414,0.6527,0.2484,1.1383,0.2898,1.3098c0.2061,0.8511,1.0234,0.7729,1.0234,0.7729
			v-3.9109C25.7479,17.6104,28.6875,16,33.0833,16c7.1474,0,8.7015-0.1646,10.1561-0.9121c0,0,0.1768,0.0066,0.008,0.2498
			c-0.1499,0.2158-1.319,1.4441-3.2474,1.8606v5.7998c0,0,0.8174,0.0781,1.0234-0.7729c0.0415-0.1715,0.1484-0.6571,0.2898-1.3098
			c0.2405-0.1362,0.6209-0.2731,1.013-0.0886C42.7783,21.04,43.1,21.7285,43.1,23.001c0,1.2729-0.4237,3.3145-2.0414,3.8184
			c0,3.7026-2.5335,6.4958-5.3403,8.8845c-0.7807,0.6644-2.2499,1.1067-3.7188,1.1055c-1.0628-0.0007-2.1255-0.2864-2.9271-0.6348
			c0.6138,0.9304,1.6553,2.0743,3.5848,2.585c3.1548,0.835,5.4595-0.9138,5.4595-0.9138s0.2828,1.9133,0.2745,2.4158
			C38.718,43.7498,34.8345,47.5784,32.381,49.3398z"/>
		<path d="M46,51c0-1.0006-2,0-2-1c0-0.6499,0.9756-0.8792,1.1956-1c0.625-0.3435,1.7888-1,1.7888-2s-1.7923-2-2.7923-2
			c-3,0-2.239,5-3.1921,5c-0.8281,0-0.7188-0.9844-1.5-0.9844c-0.8311,0-1.9062,2.2188-2.2936,3.0059
			C36.8608,52.7235,36.854,54,38,54c1,0,1.5833-1.0142,3-1c1,0,1,0.6694,1,1c0,1,1,1,1,1C45,55,46,51.0571,46,51z"/>
	</g>
</g>
</svg>
