<?xml version="1.0" encoding="utf-8"?>
<!-- Generator: Adobe Illustrator 22.1.0, SVG Export Plug-In . SVG Version: 6.00 Build 0)  -->
<!DOCTYPE svg PUBLIC "-//W3C//DTD SVG 1.1//EN" "http://www.w3.org/Graphics/SVG/1.1/DTD/svg11.dtd">
<svg version="1.1" xmlns="http://www.w3.org/2000/svg" xmlns:xlink="http://www.w3.org/1999/xlink" x="0px" y="0px" width="64px"
	 height="64px" viewBox="0 0 64 64" style="enable-background:new 0 0 64 64;" xml:space="preserve">
<style type="text/css">
	.st0{fill:none;}
</style>
<g id="Box">
	<rect class="st0" width="64" height="64"/>
</g>
<g id="Icon">
	<path d="M38,39.6c-1.1-0.4-2-0.7-2.8-0.9c-0.2-1.1-0.4-2.4-0.5-3.5c1.8-2.2,2.9-4.4,3.2-6.7c1.3-1.2,2.1-3.2,2.1-5.6
		c0-0.7,0-2.7-1.2-4c0.3-3.3,0.5-8.5-0.8-10.6c-1.6-2.6-3.5-3.8-7.3-3c-2.4-1.2-4.1-1.9-8.4-0.8c-3,0.7-6.2,1.9-7.9,3.9
		c-1.7,1.9-1.5,7.2-1.3,10.6C12,20.4,12,22.3,12,23c0,2.4,0.7,4.3,2.1,5.5c0.4,2.5,1.6,4.9,3.7,7.3c-0.1,0.8-0.2,1.7-0.4,2.7
		c-2.5,0.7-9.7,3-12,5.6C2.5,47.2,1,59,1,59h37V39.6z M26.4,49.3c-2.3-1.8-6.6-5.5-6.2-9c0.2-1.9,0-0.5,0.8-5.4
		c-2.3-2.2-4.1-4.9-4.1-8.1c-1.6-0.5-2-2.5-2-3.8c0-1.3,0.3-2,0.8-2.2c0.4-0.2,0.8,0,1,0.1c0.1,0.7,0.2,1.1,0.3,1.3
		c0.2,0.9,1,0.8,1,0.8v-6.7c2.1-0.2,6.2-0.8,10.8-3.1l5.2,3.5V23c0,0,0.8,0.1,1-0.8c0-0.2,0.1-0.7,0.3-1.3c0.2-0.1,0.6-0.3,1-0.1
		c0.5,0.2,0.8,0.9,0.8,2.2c0,1.3-0.4,3.3-2,3.8c0,3.7-2.5,6.5-5.3,8.9c-0.8,0.7-2.2,1.1-3.7,1.1c-1.1,0-2.1-0.3-2.9-0.6
		c0.6,0.9,1.7,2.1,3.6,2.6c3.2,0.8,5.5-0.9,5.5-0.9s0.3,1.9,0.3,2.4C32.7,43.7,28.8,47.6,26.4,49.3z"/>
	<path d="M62.5,33H59v-6.5c0-0.3-0.2-0.5-0.5-0.5h-13c-0.3,0-0.5,0.2-0.5,0.5V36h12v27h6V33.5C63,33.2,62.8,33,62.5,33z"/>
	<g>
		<path d="M55,38H41v25h3v-5h3v5h8V38z M47,55h-3v-3h3V55z M47,50h-3v-3h3V50z M47,45h-3v-3h3V45z M52,55h-3v-3h3V55z M52,50h-3v-3
			h3V50z M52,45h-3v-3h3V45z"/>
	</g>
</g>
</svg>
