<?xml version="1.0" encoding="utf-8"?>
<!-- Generator: Adobe Illustrator 19.1.0, SVG Export Plug-In . SVG Version: 6.00 Build 0)  -->
<svg version="1.2" baseProfile="tiny" xmlns="http://www.w3.org/2000/svg" xmlns:xlink="http://www.w3.org/1999/xlink" x="0px"
	 y="0px" width="64px" height="64px" viewBox="0 0 64 64" xml:space="preserve">
<g id="Box">
	<rect fill="none" width="64" height="64"/>
</g>
<g id="Icon">
	<path d="M53.7128,43.4531c-0.543-0.5977-1.5873-1.1631-2.8702-1.6847c-0.4764-1-0.6655-1.7113-1.6082-2.015l-8.2666-2.7539
		c-0.095-0.6034-0.1938-1.2021-0.2876-1.7461c1.7887-2.1666,2.8875-4.4047,3.2495-6.6968c1.3281-1.2195,2.068-3.1656,2.068-5.5557
		c0-0.7446,0.0011-2.7025-1.2268-4.0366c0.1466-1.6118,0.2579-3.1619,0.1979-4.5768c1.084-2.8668,2.2096-10.9397-4.2649-11.3514
		c-6.5208-0.4148-13.1506,2.8428-16.6332,4.9764c-1.8292,1.1207-3.3518,2.5911-4.4285,4.3329
		c-1.3717,2.2195-2.6134,5.2419-0.5048,6.7385c-1.127,1.3298-1.135,3.1936-1.135,3.917c0,2.386,0.7374,4.3298,2.0614,5.5497
		c0.382,2.5118,1.613,4.9142,3.7106,7.2618c-0.041,0.312-0.0861,0.6584-0.1311,1.0054L14.9,39.7534
		c-0.9092,0.2928-1.1146,0.9794-1.5238,1.8381c-1.3787,0.5564-2.5122,1.178-3.0891,1.8616C8.1167,46.0261,7,58.9429,7,58.9429
		S56.9971,59.0338,56.9924,59C56.9924,59,56.05,46.0261,53.7128,43.4531z M35,8.7041C35,8.3152,35.3049,8,35.6809,8h3.6383
		C39.6952,8,40,8.3152,40,8.7041v3.0522c0,0.2112-0.0916,0.4114-0.2498,0.545l-1.8191,1.5394c-0.2507,0.2122-0.6115,0.2122-0.8623,0
		l-1.8191-1.5394C35.0917,12.1677,35,11.9675,35,11.7563V8.7041z M32.3811,49.3398c-2.3003-1.75-6.592-5.5303-6.1589-9.0225
		c0.2371-1.9128,0.0409-0.5492,0.8236-5.437c-2.2767-2.2-4.1044-4.8666-4.1044-8.061c-1.6177-0.5039-2.0413-2.5454-2.0413-3.8184
		c0-1.2725,0.3215-1.9609,0.7737-2.1743c0.3921-0.1844,0.7725-0.0476,1.0129,0.0886c0.1415,0.6527,0.2484,1.1383,0.2898,1.3098
		C23.1826,23.0762,24,22.998,24,22.998v-3.9109C25.7478,17.6104,28.6875,16,33.0833,16c7.1475,0,8.7015-0.1646,10.1562-0.9121
		c0,0,0.1768,0.0066,0.0079,0.2498c-0.1499,0.2158-1.319,1.4441-3.2474,1.8606v5.7998c0,0,0.8174,0.0781,1.0234-0.7729
		c0.0415-0.1715,0.1484-0.6571,0.2898-1.3098c0.2405-0.1362,0.6208-0.2731,1.0129-0.0886c0.4521,0.2134,0.7739,0.9019,0.7739,2.1743
		c0,1.2729-0.4238,3.3145-2.0415,3.8184c0,3.7026-2.5334,6.4958-5.3403,8.8845c-0.7806,0.6644-2.2498,1.1067-3.7188,1.1055
		c-1.0627-0.0007-2.1255-0.2864-2.927-0.6348c0.6138,0.9304,1.6553,2.0743,3.5847,2.585c3.1548,0.835,5.4595-0.9138,5.4595-0.9138
		s0.2828,1.9133,0.2745,2.4158C38.718,43.7498,34.8345,47.5784,32.3811,49.3398z M45,53.7563c0,0.2112-0.0917,0.4114-0.2498,0.545
		l-1.8191,1.5394c-0.2507,0.2122-0.6116,0.2122-0.8623,0l-1.8191-1.5394C40.0917,54.1677,40,53.9675,40,53.7563v-3.0522
		C40,50.3152,40.3048,50,40.6809,50h3.6382C44.6952,50,45,50.3152,45,50.7041V53.7563z"/>
</g>
</svg>
