<?xml version="1.0" encoding="utf-8"?>
<!-- Generator: Adobe Illustrator 19.1.0, SVG Export Plug-In . SVG Version: 6.00 Build 0)  -->
<svg version="1.2" baseProfile="tiny" xmlns="http://www.w3.org/2000/svg" xmlns:xlink="http://www.w3.org/1999/xlink" x="0px"
	 y="0px" width="64px" height="64px" viewBox="0 0 64 64" xml:space="preserve">
<g id="_x36_4px_Box">
	<rect fill="none" width="64" height="64"/>
</g>
<g id="Icon">
	<g>
		<path d="M8.3568,33.847c-0.9072,0.7133-1.2433,1.9347-0.8288,3.0117l2.2252,5.7812c0.0051-0.0056,0.0097-0.0132,0.0148-0.0187
			c1.4897-1.6201,4.3882-3.0444,6.5571-3.9536l0.8796-0.3688L11.762,24.1582l2.2295-4.0526c0.5693-1.0347-0.2534-2.2841-1.4288-2.17
			L9.482,18.2347L8.7904,16.438c-0.3596-0.9342-1.2264-0.9273-2.1606-0.5677c-0.9342,0.3596-1.582,0.9356-1.2224,1.8698
			l5.4446,14.1451L8.3568,33.847z"/>
		<path d="M52.6133,44.1104c-1.5676-1.7049-5.2464-3.2745-8.2787-4.3525c0,0-0.1565-0.7622-0.6405-1.2747
			c-1.1018-1.1667-3.0349-1.0944-3.3239-3.2373c-0.0012-0.0087-0.0024-0.0174-0.0035-0.0261
			c-0.0869-0.6436,0.1073-1.2748,0.507-1.7982c3.2519-4.2592,4.3769-6.9484,5.1245-11.1537
			c0.8943-5.0306-0.0789-11.0849-2.4375-13.9994C41.035,5.1478,37.0006,4,32.0003,4s-9.0348,1.1478-11.5604,4.2686
			c-2.3586,2.9145-3.3318,8.9688-2.4375,13.9994c0.7476,4.2053,1.8726,6.8945,5.1245,11.1537
			c0.3997,0.5234,0.5938,1.1547,0.507,1.7982c-0.0012,0.0087-0.0023,0.0173-0.0035,0.0261c-0.289,2.1429-2.222,2.0706-3.3239,3.2373
			c-0.484,0.5125-0.6405,1.2747-0.6405,1.2747c-0.1945,0.0692,3.8457,3.9522,12.2709,4.4558
			c0.0626,0.1559-0.0729,0.309-0.3336,0.377c-4.6559,1.2147-9.8296-0.5286-14.4276-3.8945
			c-2.2605,0.9479-4.6727,2.2007-5.7885,3.4142C8.5137,47.2344,7,59,7,59h21.7503l1.811-1.5772c0,0,0.5505,0.6321,1.3737,1.5772H32
			h0.0005h3.207c-1.8236-1.8904-3.0634-3.1756-3.0634-3.1756l2.1592-2.0828c0,0,1.5869,1.6451,3.4713,3.5986
			c0.5713,0.5922,0.9421,1.1517,1.1987,1.6598h18.0271C57.0005,59,55.4869,47.2344,52.6133,44.1104z M32,27
			c-5.7623,0-8.962-3.1752-10.2782-4.9059c-0.4156-0.5465-0.1693-1.3296,0.4808-1.5502C23.9417,19.9536,27.4543,19,32,19
			c4.5457,0,8.0584,0.9536,9.7974,1.5438c0.6501,0.2206,0.8965,1.0037,0.4809,1.5502C40.9621,23.8248,37.7623,27,32,27z
			 M43.0624,57.2462c-0.6367,0.0028-1.9965-0.194-3.5579-1.642c-2.1647-2.0076-3.6661-3.4-3.6661-3.4l2.04-2.1996
			c0,0,1.6759,1.5543,3.6661,3.4c1.5614,1.4481,1.8599,2.7892,1.905,3.4243C43.4653,57.0522,43.2863,57.2452,43.0624,57.2462z
			 M46.8685,52.9114c-0.6345,0.0531-2.0056-0.0356-3.6765-1.3559c-2.3165-1.8304-3.9232-3.0998-3.9232-3.0998l1.8599-2.3539
			c0,0,1.7935,1.4171,3.9232,3.0999c1.671,1.3203,2.0744,2.6337,2.1695,3.2632C47.2548,52.6863,47.0917,52.8928,46.8685,52.9114z
			 M50.2836,48.4062c-0.6337,0.0947-2.0026,0.0934-3.7505-1.1036c-2.4359-1.6682-4.1254-2.8252-4.1254-2.8252l1.6951-2.4752
			c0,0,1.8859,1.2915,4.1254,2.8251c1.7552,1.2021,2.2481,2.4836,2.3865,3.1059C50.6645,48.1576,50.5108,48.3723,50.2836,48.4062z"
			/>
	</g>
</g>
</svg>
