<?xml version="1.0" encoding="utf-8"?>
<!-- Generator: Adobe Illustrator 19.1.0, SVG Export Plug-In . SVG Version: 6.00 Build 0)  -->
<svg version="1.2" baseProfile="tiny" xmlns="http://www.w3.org/2000/svg" xmlns:xlink="http://www.w3.org/1999/xlink" x="0px"
	 y="0px" width="64px" height="64px" viewBox="0 0 64 64" xml:space="preserve">
<g id="Box">
	<rect fill="none" width="64" height="64"/>
</g>
<g id="Icon">
	<g>
		<path d="M33,45.2583L22.8867,58h11.0858C33.3574,57.2872,33,56.3714,33,55.3916V45.2583z"/>
		<path d="M39.9976,22.001c0-0.7447,0.0012-2.7025-1.2268-4.0366c0.1414-1.5536,0.2456-3.0462,0.2001-4.4198
			c1.8539-1.449,3.0291-3.0639,3.0291-4.5446c0-5.3253-7.1635-8-16-8s-16,2.6747-16,8c0,1.3911,1.1689,2.8995,2.9551,4.2783
			c0.0444,1.4227,0.1529,4.0292,0.2108,4.767c-1.1589,1.332-1.1634,3.2256-1.1634,3.9557c0,2.386,0.7374,4.3299,2.0614,5.5497
			c0.3819,2.5118,1.613,4.9141,3.7105,7.2619c-0.0673,0.5126-0.1422,1.0897-0.2191,1.687l-6.9996,2.2539
			c-0.933,0.3004-1.1513,1.0562-1.5764,1.9484c-1.4938,0.74-2.8085,1.5565-3.592,2.4086C2.5137,46.2344,1,58,1,58h14.4032
			l12.8149-16.1454C27.5106,41.9577,26.7579,42,25.9999,42c-3.078,0-5.8118-2.2308-5.529-4.4461
			c0.2406-1.8848,0.33-2.451,0.5748-3.6736c-2.2767-2.2-4.1043-4.8665-4.1043-8.061C15.3237,25.3154,14.9,23.2739,14.9,22.001
			c0-1.2725,0.3217-1.961,0.7737-2.1743c0.3922-0.1844,0.7725-0.0475,1.013,0.0886c0.1414,0.6527,0.2484,1.1383,0.2898,1.3098
			C17.1826,22.0762,18,21.998,18,21.998v-3.6052C19.8239,19.3668,22.7234,20,25.9999,20c3.2767,0,6.1761-0.6332,8.0001-1.6073
			v3.6053c0,0,0.8174,0.0782,1.0234-0.7729c0.0415-0.1715,0.1484-0.6571,0.2898-1.3098c0.2405-0.1362,0.6209-0.2731,1.013-0.0886
			C36.7783,20.04,37.1,20.7285,37.1,22.001c0,1.2729-0.4237,3.3144-2.0414,3.8183c0,3.7027-2.5335,6.4959-5.3403,8.8846
			c-0.7807,0.6644-2.2499,1.1066-3.7188,1.1055c-1.0628-0.0008-2.1255-0.2865-2.9271-0.6349
			c0.6138,0.9305,1.6553,2.0744,3.5848,2.5851c2.3609,0.6248,4.2451-0.1971,5.0443-0.6505c0.8461-0.4709,2.9313-2.731,3.6381-3.7029
			c0.0009-0.0013,0.002-0.0016,0.0029-0.0029c1.3987-1.9004,2.2723-3.853,2.5873-5.8466
			C39.2578,26.3372,39.9976,24.391,39.9976,22.001z M35.6722,13.85c-1.1118-1.7243-5.0143-2.83-9.6722-2.83
			s-8.5605,1.1057-9.6722,2.83C16.1213,13.5298,16,13.1959,16,12.85c0-2.2091,4.4772-4,10-4s10,1.7909,10,4
			C36,13.1959,35.8787,13.5298,35.6722,13.85z"/>
		<path d="M62.2841,37.7878l-4.0473-1.1992L45.657,41.0458C45.2625,41.1899,45,41.5651,45,41.9851V49l-4-1.8095v-6.6356
			c0-0.4192,0.2615-0.7939,0.6549-0.9385l12.1611-4.3375l-3.7479-1.1105c-0.3708-0.1099-0.7655-0.1099-1.1364,0l-12.2159,3.6195
			C36.2913,37.9137,36,38.3038,36,38.7466v16.6454c0,0.3735,0.2081,0.7158,0.5397,0.8878l12.0397,6.2428
			c0.5772,0.2993,1.264,0.2993,1.8412,0l12.0397-6.2428C62.7919,56.1079,63,55.7656,63,55.3921V38.7466
			C63,38.3038,62.7087,37.9137,62.2841,37.7878z M54.8196,48.9061l1.6453,2.5034l-0.9831,0.5203v2.6734l-1.2819,0.6494v-2.6443
			l-0.9821,0.5197L54.8196,48.9061z M59.7874,54.4486l-6.2494,3.0629v-1.0646l6.2494-3.1198V54.4486z M59.0614,50.0345v2.7553
			l-1.3599,0.6889v-2.7245l-1.0396,0.5502l1.6972-4.3693l1.7438,2.548L59.0614,50.0345z"/>
	</g>
</g>
</svg>
