<?xml version="1.0" encoding="utf-8"?>
<!-- Generator: Adobe Illustrator 24.0.1, SVG Export Plug-In . SVG Version: 6.00 Build 0)  -->
<svg version="1.1" xmlns="http://www.w3.org/2000/svg" xmlns:xlink="http://www.w3.org/1999/xlink" x="0px" y="0px"
	 viewBox="0 0 64 64" style="enable-background:new 0 0 64 64;" xml:space="preserve">
<style type="text/css">
	.st0{fill:none;}
	.st1{fill:#FF1D25;}
	.st2{fill:#1D1D1B;}
</style>
<g id="Box">
	<rect class="st0" width="64" height="64"/>
</g>
<g id="Icon">
	<g>
		<g>
			<g>
				<path d="M9.5,7.2L7.4,9.3l10,10c0,0.2,0,0.5,0,0.8c0,1.5,0.4,3.8,2.3,4.4c0.6,5,3.1,8,6.2,10.6c0.8,0.7,2.3,1.1,3.8,1.1
					c0.1,0.2,0.1,0.5-0.4,0.7c-0.9,0.3-3.8,0.7-6.9-0.9c0,0,0,0-0.1,0c-2.3,0.6-10.3,2.9-12.8,5.5c-2.9,3.1-4,14.5-4,14.5h48.7
					l3.9,3.9l2.1-2.1L9.5,7.2z M24,52h-9v-4h9V52z"/>
			</g>
		</g>
		<g>
			<path d="M54.2,48.8c-0.6-2.9-1.6-5.9-2.9-7.3c-1.6-1.7-5.5-3.2-8.7-4.3L54.2,48.8z"/>
		</g>
		<g>
			<path d="M40.7,24.5c1.9-0.6,2.3-2.9,2.3-4.4c0-1.5-0.3-2.3-0.8-2.5c-0.3-0.1-0.5-0.1-0.7-0.1c0.2-3.1,0.4-9.1-0.9-11.4
				C39.1,3.6,37.3,3,34,3.8c-2.1-1.1-3.6-2.2-7.3-1.2c-2.6,0.7-5.4,1.8-6.9,3.8c-1,1.3-1.3,4.2-1.2,6.9L37.4,32
				C39,30,40.2,27.5,40.7,24.5z"/>
		</g>
	</g>
</g>
</svg>
