<svg height="64" viewBox="0 0 64 64" width="64" xmlns="http://www.w3.org/2000/svg"><path d="m0 0h64v64h-64z" fill="none"/><path d="m0 0h64v64h-64z" fill="none"/><path d="m57.5194 20.1791c-.8384-.8211-1.2861-1.9758-2.0525-3.6656-1.1254-2.4811-3.8016-4.8228-6.2197-5.2808-2.5585-.4846-3.6379-1.0694-5.5155-1.4215-1.8777-.352-4.7009-2.3738-7.8625-2.5817-4.233-.2784-5.9663.8979-8.4495 1.6429-2.5158.7548-4.9197-.2891-8.2026.9366-2.9602 1.1052-4.1074 3.0474-5.9761 5.2719-1.824 2.1712-2.1806 1.8579-4.3329 3.0493-2.3416 1.2963-5.3104 4.8505-4.8505 9.7428.1909 2.0302-1.2889 4.814-.8112 7.5096.534 3.0132 4.267 5.9253 7.063 6.3805 2.9343.4777 7.018-.4883 7.018-.4883.9129 3.0936 3.5136 4.2567 6.1725 4.5821 2.1901-.0012 4.3771-.157 7.5005-1.5745 3.5912-1.6069 3.8168-2.5781 7.0603-3.2086 2.0674-.3832 4.6373-.5351 6.5333-1.1962 1.6832-.5699 2.6263-1.2426 3.6265-2.2841.0795-.0189.1939-.0067.2142.2446.0421.5205-.5684 3.5886-4.5598 4.8494-2.9756.8869-5.5328.9025-7.137 1.8635-1.1231.6586-2.2916 1.3883-3.4863 2.0256 6.5834 3.8888 8.2504 10.4234 8.2504 10.4234h6.689c-.5867-2.9338-1.7602-6.1023-1.7602-6.1023s3.9899-1.0562 7.1584-4.8114c3.1685-3.7553 3.2859-9.5056 3.2859-9.5056s3.9976-2.6674 4.1149-7.2441c.1174-4.5768-.7855-6.5278-3.4706-9.1575zm-40.4308-3.492c3.282-3.0035 9.2044-4.3829 11.7808-.8204 1.7938 2.4804 1.0364 5.7961.0364 6.6999-.2312.209-.431.0968-.444.0891-.0474-1.1107-.1166-2.4136-.5996-3.6839-1.4589-3.9419-6.6547-2.232-9.1392-.1802-1.8373 1.4911-3.5845 3.9463-4.4254 5.8201l-.0425.0947c-.0923.0288-.2147.0129-.336-.1652-1.364-2.004 1.3849-6.2209 3.1695-7.8541zm-1.1572 17.1491c-4.0255 2.3215-8.1158-.0449-7.481-3.0919.0768-.3688.2548-.3586.3017-.3497.8199 1.4583 4.0927 2.6279 8.137-.8698 1.2335-1.0752 2.5649-2.722 3.5935-3.93.0588-.022.231-.0634.2959.1964.4446 1.7786-1.3748 6.085-4.8471 8.045zm10.2213.6625c-.579 1.1796-.361 3.2498-.0839 4.6858-.4226.9095-3.9969-2.0815-3.1709-5.3857.6163-2.4652 2.7656-3.855 4.6537-4.7545 3.1004-1.4769 5.6525-1.749 8.0824-4.7308l-.0004.0076s.3385-.1359.4319.2864c.4004 1.8093-1.7595 4.0319-3.5966 5.1652-2.2888 1.412-5.4949 3.0529-6.3162 4.726zm28.868-5.263c-.1028.4044-.3828.6461-.3957.6393-.9771-2.5648-3.5148-4.15-7.205-3.6342-.5922 2.1313-1.7341 3.6614-3.1085 5.079-2.8292 2.8713-6.2647 4.5422-10.1594 5.6487-.6521-.3435.3896-1.7185 1.9514-2.6043 2.2505-1.2764 4.4788-3.1183 6.209-5.0517 2.5164-2.7315 3.6822-6.2745 2.1875-9.3125-1.418-2.8467-4.874-4.0753-8.0062-4.5306-.0427-.0921-.0879-.2864.1817-.4547 2.4626-1.5378 8.1375-.0649 10.2524 3.7513.6855 1.1966 1.0914 2.7537 1.0055 4.5157 1.7326-.1616 3.9921.4183 5.6837 1.8181 1.6259 1.568 1.5391 3.6024 1.4036 4.1359z"/></svg>