<svg height="64" viewBox="0 0 64 64" width="64" xmlns="http://www.w3.org/2000/svg"><path d="m0 0h64v64h-64z" fill="none"/><path d="m55.8646 32.4854-6.1979-7.132c-.2047-.9031.132-2.5703 0-3.3334-.6667-3.8533-2.6176-8.1171-2.6176-8.1171 2.1099-4.024 1.0794-7.186-2.0956-9.2271-3.617-2.3252-16.7725-2.5638-26.3723 2.6561-10.1254 5.5057-9.03 15.353-7.3249 20.5063 1.9836 5.9951 7.9103 14.4951 8.3203 20.903.1798 2.8096-1.8912 11.2588-1.8912 11.2588h22.3146l-.1353-5.9934-5.4944-2.8323c-.2924-.1597-.208-.3534-.1769-.4047 0 0 8.2417 1.7748 11.4412 2.1942 3.2114.4208 6.2918-2.3106 6.2918-6.211 0-4.2802 0-9.6575 0-9.6575l3.3365-1.7672c.9548-.6166 1.2248-1.8924.6017-2.8427zm-18.3792-21.3849 1.4142 1.4142-2.8284 2.8284-1.4142-1.4142zm-9.4853-3.1005h2v4h-2zm-7.4853 3.1005 2.8284 2.8284-1.4142 1.4142-2.8284-2.8284zm-.5147 10.8995h-4v-2h4zm12 5.4282v2.851c0 .4305-.2755.8126-.6838.9487l-1.3162.4387v1.3334h-2v-1.3333l-1.3162-.4387c-.4083-.1362-.6838-.5182-.6838-.9487v-2.851c-2.4197-1.1315-4.1-3.5806-4.1-6.4282 0-3.9212 3.1788-7.1 7.1-7.1s7.1 3.1788 7.1 7.1c-.0001 2.8475-1.6804 5.2967-4.1 6.4281zm10-5.4282h-4v-2h4z"/></svg>