<svg enable-background="new 0 0 64 64" viewBox="0 0 64 64" xmlns="http://www.w3.org/2000/svg"><path d="m0 0h64v64h-64z" fill="none"/><path d="m20 51.5c0-1.742 1.237-3.5 4-3.5s4 1.758 4 3.5c0-1.742 1.237-3.5 4-3.5s4 1.758 4 3.5c0-1.742 1.237-3.5 4-3.5.124 0 .229.021.348.028 3.137-11.555 7.092-31.991 7.092-31.991s3.724 1.32 5.834 1.828c2.207.531 4.695-1.252 1.878-4.59-1.996-2.365-5.32-6.122-6.302-6.91-.825-.662-1.87-1.108-2.89-1.218l-1.284-2.095c.111-.192.191-.403.191-.641 0-.725-.587-1.312-1.312-1.312s-1.312.587-1.312 1.312c0 .59.396 1.07.932 1.235l.599 1.913c-.289.17-.553.39-.782.671-1.099-.189-2.35-.361-3.382-.376-.896-.013-1.607.131-1.869.555-.947 1.533 2.508 3.217 3.809 3.785-1.575 5.453-4.971 17.128-8.086 24.889-2.745 6.839-13.825 6.69-19.003 13.151.451-.141.953-.234 1.539-.234 2.763 0 4 1.758 4 3.5zm28.5-42.138c.629 0 1.138.51 1.138 1.138s-.51 1.138-1.138 1.138-1.138-.51-1.138-1.138.509-1.138 1.138-1.138z"/><path d="m56 50c-1.104 0-2 .395-2 1.5v2.5h-4v-2.5c0-1.105-.896-1.5-2-1.5s-2 .395-2 1.5v2.5h-4v-2.5c0-1.105-.896-1.5-2-1.5s-2 .395-2 1.5v2.5h-4v-2.5c0-1.105-.896-1.5-2-1.5s-2 .395-2 1.5v2.5h-4v-2.5c0-1.105-.896-1.5-2-1.5s-2 .395-2 1.5v2.5h-4v-2.5c0-1.105-.896-1.5-2-1.5s-2 .395-2 1.5v2.5h-4v-2.5c0-1.105-.896-1.5-2-1.5s-2 .395-2 1.5v10.5h4v-4h4v4h4v-4h4v4h4v-4h4v4h4v-4h4v4h4v-4h4v4h4v-4h4v4h4v-10.5c0-1.105-.896-1.5-2-1.5z"/></svg>