<svg height="64" viewBox="0 0 64 64" width="64" xmlns="http://www.w3.org/2000/svg"><path d="m0 0h64v64h-64z" fill="none"/><path d="m26.043 47.5894c1.8516 1.3902 4.1251 3.3003 6 3.3003 1.9073 0 4.2465-1.9832 6-3.3003 1.8516 1.3902 4.1251 3.3003 6 3.3003 1.9073 0 4.2465-1.9832 6-3.3003 1.7315 1.3001 2.4993 1.9139 3.4993 2.4781 1.9872-4.5108-3.6994-8.1171-3.847-10.0674-.0936-1.2368.2693-2.0018.8936-2.4456 1.4034-.9977 2.4208-.0079 4.8423.2876 2.6969.3291 4.2504-2.6384 3.2164-3.1495-1.7119-.1029-4.4844-.6633-5.4931-1.6832-.3728-.3769-.3509-1.1339-.4921-2.0092-.1592-.9878-.9343-5.1471-6.9234-3.6842-9.9325 2.4259-3.739 11.684-3.739 11.684-12.5217 3.6522-15.92-2.7725-16.7473-5.5579-.1617-.5446-.9063-.6016-1.1392-.084-3.5951 7.9879-1.3592 14.1017-.4602 16.0089.4662-.3244 1.9099-1.4173 2.3897-1.7776z"/><path d="m56.043 53.09c-2.4615 0-4.9159-1.9367-6-2.75-1.0001.7503-3.4848 2.75-6 2.75-2.4615 0-4.9159-1.9367-6-2.75-1.0001.7503-3.4848 2.75-6 2.75-2.4615 0-4.9159-1.9367-6-2.75-1.0001.7503-3.4848 2.75-6 2.75-2.4615 0-4.9159-1.9367-6-2.75-1.0001.7503-3.4848 2.75-6 2.75-1.0184 0-2.1246-.3893-3.043-.8273v4.2183c.9427.3046 1.9789.519 3.043.519 2.397 0 4.6631-1.0762 6-1.8633 1.3369.7871 3.603 1.8633 6 1.8633s4.6631-1.0762 6-1.8633c1.3369.7871 3.603 1.8633 6 1.8633s4.6631-1.0762 6-1.8633c1.3369.7871 3.603 1.8633 6 1.8633s4.6631-1.0762 6-1.8633c1.3369.7871 3.603 1.8633 6 1.8633 1.0322 0 2.0372-.2025 2.957-.4926v-4.2031c-.8999.4195-1.9733.7857-2.957.7857z"/><path d="m14.0806 42.5714-.2327 4.901c.4558.3342 2.4362 1.7959 2.9034 2.1056l1.0419-21.9395c.9166-.4767 1.5684-1.4035 1.6208-2.5098l.3795-7.991c.0622-1.3101-.7315-2.4521-1.8836-2.915-.0067-1.7852-.3914-2.1986-.8759-2.2216s-.9067.3522-1.0824 2.1286c-1.1908.3516-2.0892 1.4133-2.1514 2.7234l-.3795 7.991c-.0526 1.1063.5085 2.0906 1.3757 2.6521l-.576 12.1298c-.0786.0133-.2325.0023-.3034-.2748 0 0-.2977-2.9882-.8936-4.6835-.9529-2.7111-2.8953-4.595-3.9927-5.6572-.399-.3863-1.0453-.0869-1.0306.4775.0406 1.5519.3009 4.2064 1.4461 6.8372 1.4131 3.2458 3.7421 5.4718 4.6344 6.2462z"/></svg>