<svg height="64" viewBox="0 0 64 64" width="64" xmlns="http://www.w3.org/2000/svg"><path d="m0 0h64v64h-64z" fill="none"/><path d="m53.2017 16.0688c-.8607-1.6429-2.4016-2.9529-3.5414-4.1758 2.1771-2.4012 2.6649-4.5882 2.1411-5.4262-.6687-1.0701-2.007.0526-2.007.0526s-.2224-1.8154-.9634-2.0748c-.8915-.312-1.593.8892-1.593.8892s-.3212-1.9735-1.3708-2.2229c-.9498-.2257-1.3708 1.4078-1.3708 1.4078s-.8613-1.6809-1.8717-1.3879c-.8467.2455-1.6827 3.35.1364 5.8906-2.4121.9886-3.5936 2.6196-4.3925 4.4717-1.8506 4.2913-1.6826 10.1938-10.5718 10.8613-7.4996.5632-12.342-10.6365-13.4939-13.7626-1.0992-2.9836-9.7196 5.8249-1.8401 14.9892-5.5194-.9379-3.6777 5.5956 2.522 10.198-1.0015.2131-1.688.6287-1.9008 1.2537-.3014.8856.2981 2.144 1.7579 3.1381 7.8254 5.3291 16.5372.1504 16.5372.1504.264.1623.3124.645-.4117 1.176-1.9692 1.4442-4.0813 2.3807-6.0337 2.9963 1.1735 1.621 2.5623 3.0614 4.1011 3.7366l3.0654 6.8163c-1.8228.7586-3.9812 2.4559-3.7437 3.5154.1418.6329.8806.6893 1.6348.2789.6727-.3661 2.5625-1.59 3.9945-1.59 1.3438 0 4.8319 1.5379 6.7153 2.5071.5807.298 1.5499.2236 1.5797-.5063.0269-.6561-.6188-1.3743-1.5864-2.0453 3.0363.0976 6.0833.7132 6.1162.7233 1.044.3185 2.0826-.8345.298-1.865-1.4291-.8252-4.5284-1.2212-5.72-1.1744l-1.3486-6.4558c1.3363-.5719 2.6595-2.3134 3.6665-3.9612 8.2101-3.5564 8.6268-11.8064 4.8042-18.8514 2.0748-.2572 3.4787-2.0347 3.2531-4.0408-.2325-2.0685-1.559-2.4742-2.8217-4.8891 2.1372-.2872 4.2191.4499 4.2191.4499.407.0452.3627-.4579.0405-1.0729zm-18.5308 38.709-1.7291-6.1346h3.3893l2.4668 7.4915c-1.3558-.6372-2.8724-1.1368-4.127-1.3569zm11.3291-39.2779c-.8284 0-1.5-.6716-1.5-1.4999s.6716-1.4999 1.5-1.4999 1.5.6715 1.5 1.4999-.6716 1.4999-1.5 1.4999z"/></svg>