<svg height="64" viewBox="0 0 64 64" width="64" xmlns="http://www.w3.org/2000/svg"><path d="m0 0h64v64h-64z" fill="none"/><path d="m58.9333 9.8333c-.1162-1.278-.433-2.2722-.7072-2.9275-.2318-.5543-.7779-.9058-1.3788-.9058h-5.9306s-1.6367-2.18-3.72-3.2634c-3.0204-1.5706-7.28 1.0967-7.28 1.0967s-1.25-.3333-3.8334 1c-2.5833 1.3333-3.77 7.9733-3.8533 10.2233-.0582 1.5733 1.4182 2.0689 2.75 1.9167-.0005.0019-.0011.0034-.0016.0053 1.6265-.0745 2.9084-.7065 4.3814-1.8883.1847-.004.1446.2995.0236.5866-.287.681-1.6934 2.8362-4.9853 3.2244-2.0031 5.4211-4.7025 6.1531-10.8981 12.3487-6.8333 6.8333-6.5833 20-6.5833 20s-2.1667 2.4166-6.1667 1.5833c-3.6988-.7706-2.9385-4.34-1.9102-6.8124.3614-.8691-.5833-1.7167-1.4025-1.2531-4.9262 2.7878-5.1089 7.6417-3.104 10.5655 1.6622 2.424 5.4976 3.6667 9.6667 3.6667h11.6361c-3.3601-11.0684-1.3068-21.4398 10.0291-22.6858-1.5048-3.6097-1.366-7.011-.8509-9.8021 0 0 1.6144.9897 3.1457 2.0609 0 0 2.3084-1.0712 5.0205 0 0 0 1.6841-1.5607 3.2211-2.0609.4859 2.5504.8702 7.789-1.9064 11.3292 0 0 1.515 2.834.765 7.2507-.7501 4.4167-3.0602 6.7413-3.0602 6.7413v4.097s1.7232.7673 2.2854 3.0697h9.7146c0 .0833 1.0833-2.5-.5-4.0834-1.5023-1.5023-4.254-.4659-3.1788-5.4228 1.3664-6.299 5.5249-13.6121 3.7788-20.4938-1.4166-5.5834-2.0833-10.1667-1.75-11.75.2575-1.2232 2.9562-2.5743 4.75-3.5834 1.3333-.75 2-2 1.8333-3.8333z"/><circle cx="38" cy="33" r="1"/><path d="m40.5 34.8214c-.6115 0-1.1071.1431-1.1071.5179s.7857.8392 1.1071.8392 1.1071-.4645 1.1071-.8392c0-.3748-.4956-.5179-1.1071-.5179z"/><circle cx="43" cy="33" r="1"/><path d="m38 55.8333s2.2828-4.9809-.3333-7.43c-2.1667-2.0283-5.5718-.8065-7.4733.9979-.2272.2156-.3077.4616-.1601.523 1.2249-.5256 4.9667-1.6742 6.2367.0358 1.6276 2.1915-.77 6.6234-.77 6.6234s1.9123.153 2.2769 2.4167h2.4023c-.1608-1.0324-.6644-2.4402-2.1792-3.1668z"/></svg>