<svg enable-background="new 0 0 64 64" viewBox="0 0 64 64" xmlns="http://www.w3.org/2000/svg"><path d="m30 51h2v-11l-4.23-.3284z"/><path d="m55.0421 42.2944 1.7635 1.3939v7.3117h2.1944v-10.4387l-2.2027-2.7646z"/><path d="m58.1875 21.0326-23.1875-.0326s-.0294.7908 1 1c1.8561.3771 4.6045.5261 4.707 2.9822.1098 2.6328-3.1269 3.0172-3.1269 3.0172s-.712 3.1251-4.2773 3.4545c-3.5653.3303-5.2655-3.8948-5.2655-3.8948s-2.0306 2.4141-4.7733.7138c-2.5806-1.5996-.8401-6.6931-.6259-7.2898h-4.053c.7476-.0219 2.0499-.1464 2.7792-1.0358.7906-.9664.7632-1.8311.7632-1.8311h-4.6588s1.4339-.8364 1.9116-2.2704c.4777-1.4331-.2287-3.3191-.5582-3.3191-.3303 0-.5857 2.2585-1.5365 3.3502-.7933.9096-1.6893 1.068-1.6893 1.068h-4.1638s-1.2802-.14-2.124-1.5466c-.9134-1.5219-.9518-2.8983-1.2675-2.8983-.2791 0-1.002 1.7397-.7037 3.0748.292 1.3031 1.5466 2.4772 1.5466 2.4772h-4.4338s.6744 2.9009 2.6117 2.9009c1.3635 0 1.8311.0101 1.8311.0101l1.3709 6.8707s-1.0963 3.4555 3.3466 3.4555c3.8169 0 3.4646-2.7893 3.2898-3.5753.2197.8657 1.1045 4.2315 1.8659 5.6599.8776 1.6454 3.181 4.5518 3.181 4.5518l1.6999 13.0592h2.414l.3674-12.5586 14.9813 1.7497c-.0156.1455-.0449.2882-.0449.4384 0 2.4232 1.9648 4.388 4.3889 4.388.9426 0 1.7443-.216 2.4003-.6442-.5051-1.0597-1.4944-3.2112-2.1129-5.0688-.8584-2.577-.7037-4.9654-.5061-5.2116.1757-.2197.2407-.1711.2407-.1711s.7933 2.7105 1.854 5.1978c.9004 2.1121 2.0416 4.1519 2.3665 4.7211l-2.9585 7.1579 2.8122-.0073s1.6846-3.5313 3.179-7.415l.0019.0018 4.3431-11.3026.227 3.5827 1.3991.157s0-13.5361 0-14c0-.9091-.8125-.9674-.8125-.9674zm-42.3835 8.0081c.0549.8766-.9334.3285-2.3592.3285-1.4248 0-2.3564.5765-2.4122-.3001-.0549-.8777 1.3718-1.8943 1.3718-1.8943l.1089-4.3322-1.4807-3.2907s.9792-.8236 2.5157-.8236c1.5739 0 2.5311.9874 2.5311.9874l-1.5804 3.1269-.107 4.2343s1.358 1.0863 1.412 1.9638z"/></svg>