<svg height="64" viewBox="0 0 64 64" width="64" xmlns="http://www.w3.org/2000/svg"><path d="m0 0h64v64h-64z" fill="none"/><path d="m57.4059 48.7195c-2.7874-1.2191-5.3793-1.6219-7.2128-1.7335 3.8237-2.4802 6.4482-6.7311 6.5599-11.6278.2213-9.7029-9.2301-10.7983-8.1784-16.2228.459-2.3675 3.209-3.2176 5.0898-2.4911.407.0452.3627-.4579.0404-1.0729-.8607-1.6429-2.4016-2.9529-3.5414-4.1758 1.2481-1.2458 2.2195-2.9017 1.5572-3.7406-.7819-.9904-2.3843-.0441-2.3843-.0441s.1617-1.5992-.9052-2.0753c-1.158-.5167-2.0752.8831-2.0752.8831s-.5189-1.4758-1.5675-1.3908c-.8168.0662-1.5012.8831-1.5242 3.4962-2.4121.9886-3.5936 2.6196-4.3925 4.4717-6.2507 14.4945-21.2726 16.0632-26.6721 1.4094-1.0992-2.9837-9.7196 4.8448-1.84 14.0092-2.2539-.8847-4.5134-1.1067-5.0972.6687-.5529 1.6812 2.8107 7.0477 11.3993 8.6945.0673.2142-.0002.7462-1.084.7671-1.3669.0264-4.8265-.3196-7.116-1.1909 0 0-.6482 8.7295 7.9351 12.7295s14.8774-2.0834 22.75 7.0834c1.8312 2.1322 2.5471 2.7322 3.1667 2 .9166-1.0834-1.575-4.375-1.575-4.375s1.2509.4597 3.2416 1.625c1.7084 1 2.4263-.4243 1-1.875-1.8059-1.8368-3.8813-2.9848-5.5694-3.6901 3.7774-.5212 7.0231-1.2176 13.9011 2.0593 2.5373 1.2089 3.4948 1.3187 3.7253.3876.3409-1.3776-3.5203-3.3243-3.5203-3.3243s1.5521.4741 3.8248.8693c1.9992.3477 1.9282-1.3088.0643-2.124zm-10.9027-33.7169c-.8284 0-1.5-.6716-1.5-1.4999s.6716-1.4999 1.5-1.4999 1.5.6716 1.5 1.4999-.6717 1.4999-1.5 1.4999z"/></svg>