<svg width="48" height="48" viewBox="0 0 48 48" fill="none" xmlns="http://www.w3.org/2000/svg">
<path d="M46.9039 5.21794C46.5385 3.04858 44.8944 1.40443 42.725 1.03907C36.491 0.0114747 26.0552 0.0114746 23.9772 0.0114746C21.8991 0.0114746 11.4634 0.0114747 5.20647 1.0619C3.05994 1.40443 1.39296 3.07142 1.05043 5.21794C6.80548e-08 11.4748 0 21.9106 0 23.9886C0 26.0667 6.80548e-08 36.5024 1.05043 42.7593C1.41579 44.9287 3.05994 46.5728 5.22931 46.9382C11.4862 47.9886 21.8991 47.9886 24 47.9886C26.078 47.9886 36.5138 47.9886 42.7707 46.9382C44.9401 46.5728 46.5842 44.9287 46.9496 42.7593C48 36.5024 48 26.0895 48 23.9886C47.9543 17.7317 47.9543 11.4748 46.9039 5.21794Z" fill="#007BC7"/>
<path d="M21.0313 12.411C21.0313 11.6345 21.2825 10.9723 21.7849 10.4014C22.2873 9.83055 23.018 9.53369 23.9542 9.53369C24.8905 9.53369 25.5984 9.80772 26.1008 10.3558C26.6031 10.9038 26.8543 11.5889 26.8543 12.411C26.8543 13.1417 26.6031 13.8039 26.1008 14.3748C25.5984 14.9457 24.8677 15.2197 23.9542 15.2197C23.018 15.2197 22.3101 14.9457 21.7849 14.4205C21.2825 13.8724 21.0313 13.2102 21.0313 12.411ZM26.5118 17.8686V38.3291H21.4652V18.0741L26.5118 17.8686Z" fill="white"/>
</svg>
