<svg height="43" width="48" xmlns="http://www.w3.org/2000/svg"><path d="m27.34 2.938 19.422 34.34c1.437 2.562-.403 5.722-3.321 5.722h-38.859c-2.941 0-4.781-3.16-3.34-5.723l19.418-34.339c1.48-2.598 5.219-2.598 6.68 0zm-5.539 27.722c-.48.598-.719 1.359-.719 2.242 0 1.016.258 1.777.758 2.277.5.52 1.242.781 2.199.781.98 0 1.699-.301 2.18-.879s.723-1.32.723-2.18c0-1.039-.262-1.82-.762-2.363-.5-.52-1.238-.797-2.199-.797-.98 0-1.699.297-2.18.918zm4.859-18.699-4.961.398h-.02v15.98l4.539-.102v-5.257zm0 0" fill="#ffb612" fill-rule="evenodd"/></svg>