<svg enable-background="new 0 0 64 64" height="64" viewBox="0 0 64 64" width="64" xmlns="http://www.w3.org/2000/svg"><path d="m0 0h64v64h-64z" fill="none"/><path d="m4.2 14h-.6c-.9 0-1.6.7-1.6 1.6v6.8c0 .9.7 1.6 1.6 1.6h.6c.4 0 .8-.4.8-.8v-8.4c0-.4-.4-.8-.8-.8zm40.7 1.7c0-.9-.7-1.6-1.6-1.6h-.5c-.4 0-.8.4-.8.8v4.3c1 .4 2.1 1 2.8 1.4zm-36.4 28.3h15.2l.5-.8c.6-1 1.8-1.7 3-1.7.4 0 .7.1 1.1.2.5.2 1.2.5 1.9.8l7.6-12.6c-.6-.5-1.2-.9-1.6-1.3-1.2-1.1-1.4-2.9-.6-4.3l.2-.3h-25.2c-.5 0-.8-.4-.8-.9.1-2.9.5-7.8 1.1-10.5.1-.4.4-.7.8-.7h23.9c.4 0 .7.3.8.7.4 2.7.8 6 1 8.8l.5-.9c.6-1 1.6-1.6 2.8-1.7-.2-2-.4-4.4-.8-6.7-.3-2-1.4-5.2-2.6-6.8-.6-.9-1.6-1.4-2.6-1.4-2.4 0-7.1 0-11 0l-11.2.1c-1 0-2 .5-2.6 1.4-1.1 1.6-2.2 4.8-2.6 6.8-.8 4.1-1.2 11.8-1.2 11.8v3.1 16.5s0 3.1.3 4.5c.1.5.6.9 1.2.9h4c.5 0 .8-.1.9-.5.2-.8.3-2.2.4-3.2 0 0-4-.9-4.2-.9-.2-.2-.2-.3-.2-.4zm21.7-7h-13.5l-.4-2h14.4zm1.4-6-.4 2h-15.4l-.4-2zm-22.6 6.8c0-.5.3-.8.7-.8h3.5c.4 0 .8.4.8.8v2.5c0 .4-.4.8-.8.8h-3.5c-.4 0-.8-.4-.8-.8zm53.3 2.8c-.3-.9-3-3.9-4.6-5.7.5-.7 1.1-1.4 1.3-1.9.4-1.1-.5-1.9-1.3-2-.4 0-1.2 0-2.1.5-.8-2-2-3.2-4.4-4.6-3.2-1.9-6.7-4-6.7-4s-2-1.2-3.4-1.7c-.5-.2-1.1.1-1.4.6l-2.3 3.8c-.3.5-.2 1.1.2 1.5.6.6 1.5 1.2 2.2 1.7l2.8-3.1c.2-.1.3 0 .3 0l-14.2 23.5s-.2-.1-.1-.3l1.4-4c-.7-.4-1.7-.9-2.5-1.2-.5-.2-1.1.1-1.4.6l-2.3 3.8c-.3.5-.2 1.1.2 1.5 1.1 1.1 3.1 2.2 3.1 2.2s3.5 2.1 6.7 4c2.4 1.5 4 1.9 6.1 1.7.1 1 .4 1.7.6 2 .4.6 1.5 1 2.3.2.3-.4.8-1.3 1.1-2 2.4.7 6.2 1.7 7.2 1.4 1.3-.3 3.3-2.7 6.8-8.6 3.5-5.8 4.7-8.7 4.4-9.9zm-24 9.1-.9 3.3c-.2.7-1.1 1-1.6.6l-.9-.7c-.7-.7-1.1-1.7-.6-2.6l1.8-3.6c.1-.2.4-.3.5-.1l1.2 1.2c.4.5.6 1.2.5 1.9zm-1.1-6.8-1.7-1 4.2-7 1.7 1zm6.9-9.7 2.3-3.3c.6-.9 1.7-1 2.6-.7l1.1.4c.7.3.8 1.2.3 1.7l-2.4 2.3c-.6.5-1.3.6-2 .5l-1.6-.5c-.4.1-.5-.2-.3-.4zm11.5 16c-2.9 4.8-4.7 7.1-5 7.3-.8 0-5.1-1.2-6.8-1.8.5-2 2.5-6 4.8-9.8s4.9-7.4 6.4-8.9c1.3 1.2 4.4 4.5 4.8 5.2-.1.6-1.3 3.3-4.2 8zm-1.9-6.5.5 2.7-3.7 1.8-1.9-.9 1.5 2.5-1.6 2.5-3 1.6 3.8-.3 1.1-1.7 1.5 1.6-.4-3.6 4.6-3.2-1.1-2.4 2.1-2.2zm-27.3-28.6-1.3 2.3-5 1-1.5-3.1-4.5 1 3.7.6.8 3 6.9-.1 2.2 3.9.3-2.7 2.3.9 4-2.4-4.2.5-3.4-1.3z"/></svg>