<svg height="64" viewBox="0 0 64 64" width="64" xmlns="http://www.w3.org/2000/svg"><path d="m0 0h64v64h-64z" fill="none"/><path d="m55.8586 44c.0832.3214.1414.6526.1414 1 0 2.2091-1.7908 4-4 4-1.8472 0-3.3865-1.2588-3.8464-2.9606l-.076.0455c-.9961.5987-2.1381.9151-3.3012.9151h-.5142c.8893 3.4486 4.0115 6 7.7378 6 4.4183 0 8-3.5817 8-8 0-.3394-.0281-.6717-.0691-1z"/><path d="m15 53c3.3565 0 6.2257-2.0694 7.413-5h-14.826c1.1873 2.9306 4.0565 5 7.413 5z"/><path d="m51.0596 34.6525-8.3018 9.9617c-.1132.1359-.2392.2572-.359.3857h2.3774c.8008 0 1.5865-.2177 2.2731-.6296l1.8892-1.1335c1.349-.8093 2.8924-1.2368 4.4655-1.2368h6.596c.5523 0 1-.4478 1-1 0-3.8392-3.4768-8.2412-9.9404-6.3475z"/><path d="m43.3264 19.816-2.271-.452c-.3163-.0719-.2708-.3079-.2499-.3641h2.1945 2.5955c.8024 0 1.4792-.5975 1.5787-1.3937l.5532-4.4258c.1368-1.0941-.8935-1.9752-1.9482-1.6538-1.7854.544-4.2657 1.5925-5.9872 3.4734h-4.792c-.5523 0-1 .4477-1 1 0 .5522.4477 1 1 1h4.1781c.5436 3.1165 2.1213 12.6876 1.6219 16.1-.3454 2.3605-1.5527 4.6215-2.5149 6.1152-.7181 1.1148-1.9513 1.7848-3.2773 1.7848h-6.531c-2.3 0-3.9144-2.2556-3.174-4.4331.4957-1.4578 1.1454-3.1724 1.9535-4.9747l-9.6064-1.2281c-.3169-.0468-.2708-.3079-.2499-.3641h10.6c.5523 0 1-.4478 1-1v-2c0-2.2092-1.7908-4-4-4h-12c-2.2092 0-4 1.7908-4 4v2c0 .5522.4477 1 1 1h.6c-3.647 2.9671-6.8356 8.3797-8.7389 12.0807-.9214 1.7916.3869 3.9193 2.4015 3.9193h31.2675c2.1987 0 4.2838-.9766 5.6913-2.6657l7.7786-9.3343z"/></svg>