<svg height="64" viewBox="0 0 64 64" width="64" xmlns="http://www.w3.org/2000/svg"><path d="m0 0h64v64h-64z" fill="none"/><path d="m27.5671 14.5769c0 3.0414 1.6251 4.7575 4.4329 4.7575 2.8082 0 4.4329-1.9506 4.4329-4.7575 0-3.1991-1.6982-4.9142-4.4329-4.9142-2.8809 0-4.4329 2.0277-4.4329 4.9142z"/><path d="m57.302 7.988c-.0079-.0024-.0159-.0044-.0239-.0068l.8896-4.1856c.2756-1.2965-.7115-1.8547-2.008-2.1304-1.2965-.2756-2.4116-.1641-2.6871 1.1324l-.8315 3.9122c-13.5922-3.3687-27.6892-3.3686-41.2822 0l-.8316-3.9123c-.2756-1.2964-1.3906-1.408-2.6871-1.1324-1.2964.2757-2.2836.8339-2.008 2.1304l.8896 4.1856c-.0079.0025-.0159.0044-.0238.0069-.6597.2031-1.0303.9023-.8272 1.5625.1828.5928.7673.9276 1.3646.8466l.8422 3.9625c.2756 1.2966 1.3683 1.4288 2.6648 1.1531 1.2964-.2756 2.306-.8546 2.0303-2.1511l-.8937-4.2051c.7411-.1844 1.4828-.3638 2.2269-.5275.4034 2.4738 1.8591 11.0547 2.8275 12.251.7858.9708 4.2501 2.9742 8.7285 4.5319l.5469 13.1669-7.5589 22.9292s4.7169 1.8586 6.3339-2.4172c1.643-4.3445 6.2746-16.005 6.428-16.3321.1171-.2497.3098-.4416.5834-.4416.2676 0 .4768.1812.5942.4445.1382.3102 4.7092 12.0593 6.4268 16.3292 1.7061 4.2411 6.334 2.4172 6.334 2.4172l-7.5623-22.9395.5495-13.1564c4.4788-1.5577 7.9435-3.5613 8.7294-4.5322.9684-1.1962 2.4242-9.7774 2.8276-12.251.744.1638 1.4857.3431 2.2268.5275l-.8938 4.2051c-.2756 1.2965.7339 1.8755 2.0303 2.1511 1.2965.2756 2.3892.1434 2.6648-1.1531l.8401-3.9523c.0576.0081.1152.0261.1724.0261.5342 0 1.0288-.3457 1.1943-.8828.203-.6602-.1676-1.3594-.8273-1.5625zm-13.7687 9.8919c-1.0947.7969-3.7342 1.9366-7.1984 2.7097-2.8497.636-5.8202.636-8.6699 0-3.4642-.7731-6.1037-1.9128-7.1984-2.7097-.9039-2.5159-2.3857-8.6388-2.7034-9.9666 9.4337-1.6403 19.04-1.6403 28.4734-.0001-.3175 1.3277-1.7993 7.4508-2.7033 9.9667z"/></svg>