<svg enable-background="new 0 0 64 64" viewBox="0 0 64 64" xmlns="http://www.w3.org/2000/svg"><path d="m0 0h64v64h-64z" fill="none"/><path d="m56 20c-.73 0-1.41.1-2 .29v-3.29c0-2.21-1.79-3-4-3s-4 .79-4 3v16.2c-.06.02-.26.07-.36-.25-.07-.23-.66-3.24-.99-4.95h-26.65v-11c0-2.21-1.79-3-4-3s-4 .79-4 3v9.2c-.06.02-.26.07-.36-.25-.09-.28-.99-4.94-1.18-5.93-.16-.01-.3-.02-.46-.02-2.21 0-4 .79-4 3v18c0 2.21 1.79 3 4 3 .73 0 1.41-.1 2-.29v3.29c0 2.21 1.79 3 4 3s4-.79 4-3v-11h28v11c0 2.21 1.79 3 4 3s4-.79 4-3v-3.29c.59.2 1.27.29 2 .29 2.21 0 4-.79 4-3v-18c0-2.21-1.79-3-4-3z"/></svg>