<?xml version="1.0" encoding="utf-8"?>
<!-- Generator: Adobe Illustrator 17.1.0, SVG Export Plug-In . SVG Version: 6.00 Build 0)  -->
<svg version="1.2" baseProfile="tiny" xmlns="http://www.w3.org/2000/svg" xmlns:xlink="http://www.w3.org/1999/xlink" x="0px"
	 y="0px" width="64px" height="64px" viewBox="0 0 64 64" xml:space="preserve">
<g id="Box">
	<rect fill="none" width="64" height="64"/>
</g>
<g id="Icon">
	<g>
		<path d="M37.8557,13.6106c2.9496,0.9573,5.3266-0.554,6.2919-3.5283c1.0997-3.3875-0.0945-5.7832-2.9671-6.7159
			c-3.026-0.982-5.3532,0.6367-6.3453,3.6939C33.7893,10.2821,34.9067,12.6533,37.8557,13.6106z"/>
		<path d="M51.8163,44.6199c1.2739-1.2261,1.5-3.2261,0.5635-4.9771c-0.3906-0.7305-1.2993-1.0054-2.0303-0.6152
			c-0.7305,0.3911-1.0059,1.2998-0.6152,2.0303c0.3657,0.6831,0.2295,1.1812,0.002,1.4004
			c-0.3296,0.3174-0.8428,0.0723-1.0479-0.0483c-0.4344-0.2543-3.2054-1.7254-5.623-3.179l-0.0017-0.0089
			c-0.7442-3.8636-1.3668-6.8861-1.6657-9.5224c-0.1995-1.8777-0.7707-8.5024-0.8734-9.897
			c-0.1222-1.6599-1.9072-3.8607-4.793-5.2972c-3.2114-1.5986-5.2163-1.3303-6.2164-1.2969
			c-2.629,0.0918-7.3425,1.0121-9.8891,1.9497c-2.1364,0.82-2.6261,1.8413-2.3665,3.9163c0.2738,2.0505,1.0931,3.8152,2.2621,8.8168
			l0.0127,0.0058c0.0593,0.4341,0.3007,0.8398,0.7048,1.0839c0.9849,0.5938,25.1444,14.9705,26.9334,16.0179
			C48.8169,45.9609,50.6303,45.761,51.8163,44.6199z M36.337,25.2895c0.4424,5.3647,1.0989,7.9611,2.1684,11.1973
			c-2.1624-1.302-4.4722-2.6937-6.6662-4.0159L36.337,25.2895z M26.875,18.8155l-4.2232,6.4001
			c-0.4851-2.0073-0.8184-3.924-1.0684-5.674C23.1667,19.25,25.3234,18.9636,26.875,18.8155z"/>
		<circle cx="50.5" cy="56.5" r="2.5"/>
		<path d="M36.9265,41.7535c-0.2709-0.4717-0.5311-0.9246-0.7955-1.3849c-5.5336-3.3273-12.8095-7.7097-16.264-9.791
			c-0.4745,1.5166-0.6448,3.202-0.7743,4.8631c-0.1287,1.6596-0.2045,3.5146-0.3295,5.4194
			c-0.1061,1.6134-0.2467,3.3404-0.6046,4.8792c-1.0997,1.8406-5.1661,6.6368-6.6177,8.3436
			c-2.1371,2.9508-1.3297,5.6269-0.7053,6.8903c0.0149-0.0111,0.0258-0.0192,0.0414-0.0308
			c1.9056-1.4613,10.0326-9.045,12.2668-11.9647c0.4636-0.5277,0.8555-1.6095,1.0931-2.2736
			c0.7712-2.1826,1.3763-5.2465,1.8575-7.5952c0.002,0.0023,5.5744,6.3848,5.5744,6.3848c0.0175,2.1763-1.0497,6.776-1.4129,8.933
			c-0.4323,4.733,2.2824,6.1322,3.14,6.552c1.1535-3.5702,3.7002-10.4852,4.316-14.378
			C38.1598,43.5907,37.6852,43.0739,36.9265,41.7535z"/>
	</g>
</g>
</svg>
