<svg enable-background="new 0 0 64 64" viewBox="0 0 64 64" xmlns="http://www.w3.org/2000/svg"><path d="m0 0h64v64h-64z" fill="none"/><path d="m14 51.592c0 1.33 1.078 2.408 2.408 2.408h2.592v-12h-5z"/><path d="m55.076 27.261-19.17-8.645c-.773-.349-1.584-.576-2.406-.708v-2.67c0-.799.518-1.548 1.351-1.955 2.731-1.334 4.161-4.358 3.477-7.354-.544-2.382-2.434-4.272-4.816-4.816-1.978-.451-4.005.002-5.562 1.244s-2.45 3.095-2.45 5.084c0 .829.672 1.5 1.5 1.5s1.5-.671 1.5-1.5c0-1.071.481-2.069 1.32-2.738.852-.679 1.927-.915 3.024-.665 1.246.285 2.274 1.313 2.559 2.559.372 1.63-.396 3.271-1.869 3.991-1.871.914-3.034 2.696-3.034 4.65v2.67c-.822.132-1.632.359-2.406.708l-19.17 8.645c-2.384 1.075-3.924 3.46-3.924 6.075 0 3.675 2.99 6.664 6.664 6.664h9.336v18.599c0 1.326 1.075 2.401 2.401 2.401h24.199c1.325 0 2.4-1.075 2.4-2.401v-22.598c0-3.314-2.687-6.001-6.001-6.001h-23.978c-3.1 0-5.65 2.343-5.982 5.355 1.602.305 6.232 1.186 6.694 1.281.326.068.271.308.25.364h-9.319c-2.02 0-3.664-1.644-3.664-3.664 0-1.438.847-2.749 2.158-3.34l19.17-8.645c.849-.383 1.76-.574 2.672-.574.911 0 1.823.191 2.672.574l19.17 8.645c1.311.591 2.158 1.902 2.158 3.34 0 2.02-1.644 3.664-3.664 3.664h-.336v3h.336c3.674 0 6.664-2.989 6.664-6.664 0-2.615-1.54-5-3.924-6.075z"/></svg>