<?xml version="1.0" encoding="utf-8"?>
<!-- Generator: Adobe Illustrator 19.1.0, SVG Export Plug-In . SVG Version: 6.00 Build 0)  -->
<svg version="1.2" baseProfile="tiny" xmlns="http://www.w3.org/2000/svg" xmlns:xlink="http://www.w3.org/1999/xlink" x="0px"
	 y="0px" width="64px" height="64px" viewBox="0 0 64 64" xml:space="preserve">
<g id="_x36_4px_Box">
	<rect fill="none" width="64" height="64"/>
</g>
<g id="Icon">
	<g>
		<path d="M52.5435,8.6581c-3.1517-1.2009-5.702,0.3892-6.9152,3.5733c-1.2789,3.3556-0.2221,5.9258,2.8494,7.0964
			c3.0721,1.1707,5.6694-0.3029,6.8499-3.4008C56.6723,12.3988,55.5353,9.7986,52.5435,8.6581z"/>
		<path d="M47.2131,32.0183c-0.088-1.7601-0.3322-7.7515-0.6944-9.187c-1.1159-7-6.0596-6.7374-8.5269-6.6667
			c-5.6083,0.1605-13.6133,1.4339-17.1319,6.9896c-1.8187,2.8716-1.6894,5.5191-1.4016,7.1807
			c0.3749,2.1652,2.3385,10.8574,2.3385,10.8574s-4.5243,1.345-9.0981,2.5555s-5.1224,4.7192-5.1633,5.2543
			c4.3581-0.1752,8.3865-0.3958,13.1803-1.1556c2.4519-0.4064,4.9023-0.8872,6.4293-1.9744
			c1.8558-1.583,1.9506-2.5543,1.4881-7.6568c-2.2861-1.1467-5.2494-2.6395-5.4704-2.7827
			c-0.3077-0.2007-0.2074-0.3608-0.2074-0.3608l10.4688,2.9632c0.0064,0.0022-0.4435,1.0555-2.6266,5.8752
			c-1.7188,3.7944-0.0619,7.2833,0.9387,7.9626c2.679-3.1934,5.421-6.8353,7.4515-10.4351c1.0425-1.9086,2.1281-3.9025,1.7091-5.971
			c-0.2449-1.0462-0.7737-2.2264-2.9758-3.4673c-1.921-1.0825-4.2441-2.1793-6.4188-2.989c2.3297-0.3058,5.7592-0.8141,9.812-1.5903
			c0.1237,0.8629,0.1428,1.0412,0.6978,5.3325c0.3499,2.5128,0.6522,3.9547,1.0465,5.1517c1.0248,3.3134,2.1125,6.5266,2.929,8.9597
			c0.6573,1.9313,2.3351,3.6132,4.7457,3.1274c-0.6537-3.1116-1.8564-7.8815-2.9622-13.2822
			C47.541,35.5648,47.382,34.9504,47.2131,32.0183z"/>
	</g>
</g>
</svg>
