<?xml version="1.0" encoding="utf-8"?>
<!-- Generator: Adobe Illustrator 17.1.0, SVG Export Plug-In . SVG Version: 6.00 Build 0)  -->
<svg version="1.2" baseProfile="tiny" xmlns="http://www.w3.org/2000/svg" xmlns:xlink="http://www.w3.org/1999/xlink" x="0px"
	 y="0px" width="64px" height="64px" viewBox="0 0 64 64" xml:space="preserve">
<g id="Box">
	<rect fill="none" width="64" height="64"/>
</g>
<g id="Icon">
	<g>
		<path d="M28.6335,17.5363c2.5942-0.6539,3.6375-2.8486,2.9781-5.4645c-0.7507-2.9795-2.7225-4.1818-5.2491-3.5453
			c-2.6614,0.6709-3.619,2.9213-2.9412,5.61C24.1355,16.9702,26.0397,18.1899,28.6335,17.5363z"/>
		<circle cx="50" cy="6" r="4.95"/>
		<path d="M44.7798,39.9381c-0.8793-2.6039-6.5572-4.6203-9.2388-5.5642c0.6124-6.0767,0.0933-10.9765-0.3474-13.6707
			c1.8205-1.4613,4.3603-3.6005,5.4365-5.7354c0.4317-1.0001,1.2389-2.6192,1.6298-5.6907
			c0.5321-5.0591-2.3674-5.6306-2.9675-5.6934c-0.3633,3.1425-0.7721,5.7462-2.034,8.671c-0.4579,1.1976-1.5547,2.205-2.5345,3.0711
			c-5.3913,4.6875-6.9097,5.2003-11.1789,8.8202c-1.2328,1.0536-2.9267,2.5749-3.9208,3.8655
			c-0.3821,0.5559-0.7077,1.247-0.9639,1.868c-0.6786,1.6581-1.1668,3.4014-1.6403,5.4554s0.0877,4.2794,2.0754,4.985
			c0.03-0.2593,0.0238-0.1554,0.0055,0.002c0.0036,0.0013,0.0071,0.0027,0.0107,0.0039c0.6921-2.4402,2.0399-6.4827,3.2532-8.7144
			c0.5447-1.0009,0.9326-1.5695,3.9628-3.826c0.7433,6.1871-0.7387,8.9011,0.4089,10.9877
			c0.7836,1.4246,3.2683,2.0141,4.8735,2.2743c0.0231,0.0693,0.051,0.2448-0.2221,0.3504c-0.311,0.1203-2.3632,0.3439-4.2197,0.1471
			c-0.2426,3.9249-0.404,5.5505-0.4996,6.6003c-0.0748,1.0111-0.4185,1.6674-0.6445,2.1654
			c-0.4539,1.0003-2.4592,4.496-3.4989,6.2501c-1.5264,2.5686-1.2791,5.0623,0.0909,6.7905
			c1.2352-1.2731,6.316-7.8504,8.3513-11.0824c0.7202-1.1436,0.8703-1.6056,1.2307-3.2437c0.199-1.001,0.6188-3.0189,1.4003-7.7445
			c1,0.0714,4.2259,0.6497,5.7637,1.1359c-0.5529,2.2317-1.8939,5.8856-2.7026,8.0216c-1.1982,3.9272,0.811,5.9013,1.4785,6.4244
			c1.2274-2.3382,5.9616-11.1497,6.7236-14.5328C45.2054,40.6399,44.7798,39.9381,44.7798,39.9381z"/>
	</g>
</g>
</svg>
