<svg height="64" viewBox="0 0 64 64" width="64" xmlns="http://www.w3.org/2000/svg"><path d="m0 0h64v64h-64z" fill="none"/><path d="m31.9116 12.4069c2.9566.6494 5.1221-1.0449 5.7769-4.0263.7461-3.3956-.6421-5.6094-3.5215-6.2422-3.0332-.6661-5.1401 1.1279-5.813 4.1923-.7094 3.2295.6016 5.4267 3.5576 6.0762z"/><path d="m49.9189 27.538c-5.3976-.5011-7.9026-.7227-8.9026-1.0002-1.0569-.8616-3.1879-4.8558-3.8115-6.0642-1.4145-2.7408-2.0349-5.6578-8.942-6.3615-4.1927-.4271-10.9587 1.3893-12.5644 2.9243-1.7628 1.6119-3.4445 4.8935-4.5131 7.1063l.0062.0012c-.8734 1.8925-.5882 4.1537 1.1278 5.3386.6945-1.0003 4.1693-7.5925 6.2683-8.9258.6748-.3773 2.864-1.0447 5.2752-1.2423-1.2175 4.6727-2.2565 11.2193-2.5837 13.3737-.6517 4.2908 2.0499 5.6986 4.982 7.4789 0 0 .0016.1751-.3659.1778-.2036.0015-1.6476-.2351-3.3336-.524-.8357 1.8648-2.7706 6.041-3.7668 7.7216-2.58-.0272-7.1688-1.2894-8.4686-1.5657-3.6469-.7751-4.8719 3.1382-4.8719 3.1382 3.187 1.2188 11.015 4.0933 14.3947 3.8676 1.9521-.1304 2.6713-.835 4.1175-2.8865 1.5674-2.2234 3.7045-5.7659 5.0327-8.0059 1.5755.7764 3.8278 1.9088 5.3334 2.7971.5843 2.8267.9811 9.542 1.1211 12.4008.0751 1.5344 1.6186 4.1114 4.7042 4.9064.2427-3.9859.4226-6.5305.5399-10.4985.0611-2.0668.1158-4.2424.0139-6.5833-.0759-1.3893-.1373-2.4958-.6605-3.6223-.4888-1.0524-1.7081-2.2589-8.3344-7.086.681-3.3297 1.585-7.2082 2.3412-10.3415.9921 1.8316 3.1105 5.4233 5.0136 6.3095 1.5077.7021 5.2243.6674 6.9288.5383 2.9792-.2257 3.7668-2.7808 3.9185-3.3726z"/><circle cx="53.5" cy="52.5" r="5.45"/></svg>