<svg height="64" viewBox="0 0 64 64" width="64" xmlns="http://www.w3.org/2000/svg"><path d="m0 0h64v64h-64z" fill="none"/><path d="m0 0h64v64h-64z" fill="none"/><path d="m31.51 8.6312c2.0905 0 3.3-1.4785 3.3-3.6075 0-2.4249-1.264-3.7258-3.3-3.7258-2.1448 0-3.3 1.5376-3.3 3.7258 0 2.3066 1.2103 3.6075 3.3 3.6075z"/><path d="m39 55v-10h-15v5h-12v12h39v-7zm-6 3h-2v-6.1758c-.7524 0-1.2637.0479-2 .1758v-1.689c.9761-.2881 1.9653-.5048 2.8779-.5048h1.1221z"/><path d="m25.9962 27.6996s0-7.3284 0-8.7149c0-1 0-2 .4333-2.8088.2212-.4129.5197-.4773.577-.4086v28.2174c2.0392 0 3.4034-1.1217 3.5776-3.3745 0 0 .4343-13.4573.44-13.6055.0057-.1483.2454-.341.486-.341s.4803.1927.486.341c.0057.1482.44 13.6055.44 13.6055.1742 2.2528 1.4384 3.3745 3.4775 3.3745v-28.2174c.0573-.0687.4456-.0043.6667.4086.4333.8088.4333 1.8088.4333 2.8088v8.7149c.9733 0 2.6107-.5995 2.741-2.7149.2507-4.0702.7021-11.1615-2.2545-13.6593-1.2509-1.0567-3.9951-1.281-5.9901-1.3254-1.9951.0444-4.7393.2687-5.9901 1.3254-2.9566 2.4978-2.5052 9.5891-2.2545 13.6593.1304 2.1155 1.7575 2.7149 2.7308 2.7149z"/></svg>