<?xml version="1.0" encoding="utf-8"?>
<!-- Generator: Adobe Illustrator 17.1.0, SVG Export Plug-In . SVG Version: 6.00 Build 0)  -->
<svg version="1.2" baseProfile="tiny" xmlns="http://www.w3.org/2000/svg" xmlns:xlink="http://www.w3.org/1999/xlink" x="0px"
	 y="0px" width="64px" height="64px" viewBox="0 0 64 64" xml:space="preserve">
<g id="_x36_4px_Boxes">
	<rect fill="none" width="64" height="64"/>
</g>
<g id="Label">
</g>
<g id="Production">
	<g>
		<path d="M19.5917,44.5541c3.1701-0.527,3.7744-0.9944,5.0954-3.2178c0.7991-1.3295,1.9916-3.7069,2.9402-5.6672
			c2.9322,1.9162,4.9018,3.1591,4.9018,3.1591c0.6985,1.7858,1.487,6.7378,1.8279,8.6259c0.4767,2.6408,2.3497,4.4287,4.5153,4.5459
			c-0.0404-3.4037-0.1905-8.65-0.5543-12.0579c-0.5071-4.2766-0.6471-4.8092-4.9232-8.4677
			c-1.1377-0.9515-2.2028-1.787-3.1577-2.521c0.4557-2.0411,0.9942-4.3173,1.4799-6.3275c0.371,0.7876,0.7614,1.5611,1.2067,2.2919
			c0.8558,1.3586,1.4171,1.8315,2.5092,2.1462c2.1541,0.5084,4.3633,0.0623,6.4102-1.0283
			c2.2791-1.2145,2.2531-3.1533,2.0944-3.9932c0,0-5.6078,1.1939-7.2742,0.9242c-1.0936-1.6624-2.6326-6.1519-3.8371-7.7592
			c-2.3781-3.1733-11.6107-2.1969-14.3516-0.683c-1.8103,1.0077-2.2747,2.076-2.7521,4.0564
			c-0.4161,1.8894-0.5731,4.7422-0.6605,6.6866c0.0499,1.0153,0.4638,2.5066,2.3779,2.8833
			c0.004-0.0037,1.4006-6.6599,2.0323-8.3937c0.1583-0.4423,0.374-0.9104,0.5031-1.0478c0,0,0.7778-0.4415,2.7739-0.6455
			c-0.2723,0.8987-2.4031,8.909-2.4031,10.6085c0,1.0298,0.4572,1.96,1.189,2.7088c0.8571,0.8768,4.5415,3.3669,4.5415,3.3669
			c-0.0153,0.1169-0.1507,0.1924-0.4759,0.1169c-1.8653-0.4335-3.5591-0.8788-3.5591-0.8788s-1.4191,3.7228-2.1606,5.2946
			c-1.5164,0.5787-4.6143,1.2222-6.1946,1.5027C11.6204,41.1501,10.9085,42.7941,11.03,45
			C13.623,44.8662,17.0394,44.9649,19.5917,44.5541z M32.4144,38.6385l0.0059,0.0082l0.0239,0.0333l0.048,0.0667l0.015,0.0211
			c0.0006,0.0013,0.0012,0.0032,0.0016,0.0046c-0.0499-0.0709-0.081-0.1147-0.0956-0.1353c0.0032,0.0042,0.0061,0.0085,0.0085,0.012
			C32.4196,38.6459,32.4189,38.6451,32.4144,38.6385z"/>
		<path d="M30.3898,11.9256c2.7773,0.4568,4.7036-1.2274,5.1632-4.0336c0.5238-3.1962-0.8752-5.1865-3.58-5.6317
			c-2.8493-0.4684-4.7162,1.3056-5.1885,4.1899C26.2866,9.49,27.6131,11.4688,30.3898,11.9256z"/>
		<path d="M55.9813,25.0413c-0.062-1.1232-0.9905-2.0405-2.129-2.0413h-6.1815c-0.9715-0.0015-1.8006,0.8751-1.6394,1.9518
			c0.1075,0.7184,0.7212,1.2598,1.4394,1.3689l3.4664,0.5266L49,53l-36.291,1.9777C10.0679,55.1217,8,57.3053,8,59.9504V60h45.9255
			C55.0712,60,56,59.0712,56,57.9255V25.0377L55.9813,25.0413z"/>
	</g>
</g>
</svg>
