<svg height="64" viewBox="0 0 64 64" width="64" xmlns="http://www.w3.org/2000/svg"><path d="m0 0h64v64h-64z" fill="none"/><path d="m52.5435 8.6581c-3.1517-1.2009-5.702.3892-6.9152 3.5733-1.2789 3.3556-.2221 5.9258 2.8494 7.0964 3.0721 1.1707 5.6694-.3029 6.8499-3.4008 1.3447-3.5282.2077-6.1284-2.7841-7.2689z"/><path d="m47.2131 32.0183c-.088-1.7601-.3322-7.7515-.6944-9.187-1.1159-7-6.0596-6.7374-8.5269-6.6667-5.6083.1605-13.6133 1.4339-17.1319 6.9896-1.8187 2.8716-1.6894 5.5191-1.4016 7.1807.3749 2.1652 2.3385 10.8574 2.3385 10.8574s-4.5243 1.345-9.0981 2.5555-5.1224 4.7192-5.1633 5.2543c4.3581-.1752 8.3865-.3958 13.1803-1.1556 2.4519-.4064 4.9023-.8872 6.4293-1.9744 1.8558-1.583 1.9506-2.5543 1.4881-7.6568-2.2861-1.1467-5.2494-2.6395-5.4704-2.7827-.3077-.2007-.2074-.3608-.2074-.3608l10.4688 2.9632c.0064.0022-.4435 1.0555-2.6266 5.8752-1.7188 3.7944-.0619 7.2833.9387 7.9626 2.679-3.1934 5.421-6.8353 7.4515-10.4351 1.0425-1.9086 2.1281-3.9025 1.7091-5.971-.2449-1.0462-.7737-2.2264-2.9758-3.4673-1.921-1.0825-4.2441-2.1793-6.4188-2.989 2.3297-.3058 5.7592-.8141 9.812-1.5903.1237.8629.1428 1.0412.6978 5.3325.3499 2.5128.6522 3.9547 1.0465 5.1517 1.0248 3.3134 2.1125 6.5266 2.929 8.9597.6573 1.9313 2.3351 3.6132 4.7457 3.1274-.6537-3.1116-1.8564-7.8815-2.9622-13.2822-.23-1.1444-.389-1.7588-.5579-4.6909z"/></svg>