<svg height="64" viewBox="0 0 64 64" width="64" xmlns="http://www.w3.org/2000/svg"><path d="m0 0h64v64h-64z" fill="none"/><path d="m23.7866 54h16l1.2134-2h-16z"/><path d="m51.1281 32.6224c-.1372-.2741-4.1656-10.536-4.2937-10.8557-1.5581-3.8894-6.7924-8.3401-9.5546-10.1454-1.007-.6475-1.4354-.7693-2.7994-1.1589-3.0493-.816-5.0942-1.1182-6.4517-1.3698-3.2774-.0869-4.3173 1.4826-4.6363 2.3018 3.2581 1.0602 7.9001 2.3781 9.8662 3.0537.7331.2661.9829.3199 1.6042.7527 1.1398.8052 2.2073 1.7402 3.1172 2.6833-1.7733.1177-3.9724.4157-6.6724 1.0389-6.2167 1.4349-8.1378 4.6423-8.9528 7.231-.972 3.087-2.033 6.7993-2.8325 9.0314-1.7436.472-7.5301 2.1871-9.254 2.6993l-2.7557 5.6351c6.6438-1.1924 11.3338-2.022 14.6787-2.5322 1.2185-.3278 1.5736-.7969 1.8948-1.0628 1.2139-1.2017 2.168-3.3813 3.6369-6.4559 2.7371 2.4222 6.2259 4.9828 8.1263 6.6694-1.5753 3.2206-4.5942 8.2527-6.1382 10.8617h5.5507c1.7204-2.2056 4.5023-5.8515 6.0131-8.1865 1.7027-2.6248 1.838-3.9353.0096-6.4072-1.681-2.1552-4.2792-4.5965-7.0145-7.6178l9.7024.0005c.7523 1.674 1.9945 4.4244 3.2338 6.5854 1.2287 2.0098 2.0931 2.6922 4.6161 1.8835 1.6079-.5352 3.8307-1.6521 5.3376-2.4435l-.0102-.006c5.2231-2.7675 3.669-5.7635 3.4399-6.1489-2.7225 1.1759-7.3081 3.2583-9.4615 3.9629z"/><path d="m9.6437 31.9418-7.029 14.3733 1.1786 2.157 7.0291-14.3733z"/><path d="m57.1864 22.7397c2.3121-2.709 2.1251-5.3794-.1721-7.3401-2.4202-2.0649-5.1896-1.4597-7.2758.9854-2.1989 2.5767-2.0736 5.1949.2848 7.2075 2.359 2.0128 5.1334 1.526 7.1631-.8528z"/></svg>