<svg height="64" viewBox="0 0 64 64" width="64" xmlns="http://www.w3.org/2000/svg"><path d="m0 0h64v64h-64z" fill="none"/><path d="m44.1796 17.5665c2.836.9204 5.1215-.5326 6.0496-3.3923 1.0574-3.257-.8621-5.6251-3.624-6.5218-2.9095-.9442-7.5052-.2424-8.1678 1.0308-1.1013 2.1162 2.9068 7.9629 5.7422 8.8833z"/><path d="m43.0544 30.2386c1.4048.7113 3.5655 1.2102 5.1055 1.489 3.3488.0714 4.5177-1.8961 4.8792-2.8103-4.6224-1.2506-8.0186-2.6904-8.0186-2.6904-2.7472-4.6359-3.3796-15.098-19.2202-9.6909-8.1611 2.7857-11.712 8.9213-4.8788 14.1732 2.7315 2.0844 7.1082 4.1879 9.823 5.8458-.567 1.5995-2.4117 5.0695-4.0779 8.9854-1.2833 4.2667.2727 6.5654 1.2147 7.5009 1.2896-1.5475 7.8797-12.7194 9.1472-15.6981.3934-1 .8964-2.3025-.3207-4.0887-1.1703-1.6591-3.9592-3.5811-7.098-6.0389l9.7696-2.4586c1.4888 3.6404 1.9078 4.5398 3.675 5.4816z"/><path d="m13 35c-6.0751 0-11 4.9249-11 11s4.9249 11 11 11 11-4.9249 11-11-4.9249-11-11-11zm0 19.15c-4.5011 0-8.15-3.6489-8.15-8.15s3.6489-8.15 8.15-8.15 8.15 3.6489 8.15 8.15-3.6489 8.15-8.15 8.15z"/><path d="m51 35c-6.0751 0-11 4.9249-11 11s4.9249 11 11 11 11-4.9249 11-11-4.9249-11-11-11zm0 19.15c-4.5011 0-8.15-3.6489-8.15-8.15s3.6489-8.15 8.15-8.15 8.15 3.6489 8.15 8.15-3.6489 8.15-8.15 8.15z"/></svg>