<svg xmlns="http://www.w3.org/2000/svg" width="48" height="48" fill="rgb(0%,0%,0%)" xmlns:v="https://vecta.io/nano"><path d="M38.055 24c0-3.906-2.355-7.27-5.723-8.75l-2.176 3.262c2.355.715 4.078 2.902 4.078 5.488s-1.723 4.773-4.078 5.488l2.176 3.258c3.367-1.48 5.723-4.84 5.723-8.746zM36.078 9.633l-2.141 3.211c4.129 2.023 6.984 6.258 6.984 11.156s-2.855 9.133-6.984 11.152l2.141 3.211c5.148-2.727 8.668-8.141 8.668-14.363s-3.52-11.637-8.668-14.367zm-12.18.383L14.25 16.5v6.738s-.187.082-.27-.16L12.172 16.5H9.004C4.379 16.5 3 20.023 3 24.004 2.996 27.977 4.375 31.5 9.004 31.5h5.246l9.648 6.484c.996.684 2.352-.027 2.352-1.234v-25.5c0-1.207-1.355-1.922-2.352-1.234zm0 0"/></svg>