<?xml version="1.0" encoding="utf-8"?>

<!DOCTYPE svg PUBLIC "-//W3C//DTD SVG 1.1//EN" "http://www.w3.org/Graphics/SVG/1.1/DTD/svg11.dtd">
<svg version="1.1" xmlns="http://www.w3.org/2000/svg" xmlns:xlink="http://www.w3.org/1999/xlink" x="0px" y="0px" width="24px"
	 height="24px" viewBox="0 0 24 24" style="enable-background:new 0 0 24 24;" xml:space="preserve">
<style type="text/css">
	.st0{fill:none;}
	.st1{fill:#39870C;}
	.st2{fill:#D52B1E;}
	.st3{display:none;}
	.st4{display:none;fill:#FFFFFF;}
</style>
<g id="box">
	<g>
		<rect class="st0" width="24" height="24"/>
	</g>
</g>
<g id="icon">
	<g>
		<path d="M20.6,6.1l-7.2,7.2c-0.3,0.3-0.7,0.5-1.1,0.7l-3,1.3c-0.3,0.1-0.5,0.2-0.8,0.2c-0.5,0-1-0.2-1.4-0.6
			c-0.6-0.6-0.7-1.4-0.4-2.2l1.3-3c0.1-0.4,0.4-0.8,0.7-1.1l5.5-5.5C12.7,3,11.4,3,11,3c-0.9,0-5.1,0-7.7,0.4
			C2.4,3.6,1.7,4.3,1.6,5.2C0.9,9,1,13.6,1.6,16.8c0.1,0.9,0.8,1.6,1.7,1.7c2.3,0.4,6,0.4,7.4,0.4l4.5,2.9c0.3,0.2,0.6,0.1,0.7-0.2
			c0.1-0.1,0.1-0.2,0.1-0.4l0-0.1l0,0l-0.7-2.4c1.2-0.1,2.4-0.2,3.4-0.3c0.9-0.2,1.6-0.8,1.7-1.7C21,13.4,21,9.3,20.6,6.1z"/>
		<path d="M9.6,10.3l-1.3,3.1c-0.1,0.2,0.1,0.5,0.4,0.4l3.1-1.3c0.2-0.1,0.3-0.2,0.5-0.3l8.3-8.3C21.1,3.2,20.7,2.6,20,2
			c-0.6-0.6-1.2-1.1-1.9-0.4L9.9,9.8C9.8,9.9,9.7,10.1,9.6,10.3z"/>
	</g>
</g>
</svg>
