<svg height="48" width="48" xmlns="http://www.w3.org/2000/svg"><path d="m41 10.199c-.199-1.598-1.602-3-3.199-3.199-5-.801-13-.801-14.801-.801-1.602 0-9.801 0-14.801.801-1.597.199-2.801 1.602-3.199 3.199-.602 3.402-.801 7.199-.801 10.801 0 3.801.199 7.602.801 10.801.199 1.598 1.602 3 3.199 3.199 4 .602 10.199.801 13.199.801l8.801 6c.602.398 1.199.199 1.402-.402.199-.199.199-.398.199-.797v-.203l-1.402-5 7.203-.598c1.598-.199 3-1.602 3.199-3.199.598-3.402.801-7.203.801-10.801.199-3.602 0-7.402-.602-10.602zm-28 14.403c-2 0-3.602-1.602-3.602-3.602s1.602-3.602 3.602-3.602 3.602 1.602 3.602 3.602-1.602 3.602-3.602 3.602zm10 0c-2 0-3.602-1.602-3.602-3.602s1.602-3.602 3.602-3.602 3.602 1.602 3.602 3.602-1.602 3.602-3.602 3.602zm10 0c-2 0-3.602-1.602-3.602-3.602s1.602-3.602 3.602-3.602 3.602 1.602 3.602 3.602-1.602 3.602-3.602 3.602zm0 0"/></svg>