<?xml version="1.0" encoding="utf-8"?>

<!DOCTYPE svg PUBLIC "-//W3C//DTD SVG 1.1//EN" "http://www.w3.org/Graphics/SVG/1.1/DTD/svg11.dtd">
<svg version="1.1" xmlns="http://www.w3.org/2000/svg" xmlns:xlink="http://www.w3.org/1999/xlink" x="0px" y="0px" width="24px"
	 height="24px" viewBox="0 0 24 24" style="enable-background:new 0 0 24 24;" xml:space="preserve">
<style type="text/css">
	.st0{fill:none;}
	.st1{fill:#39870C;}
	.st2{fill:#D52B1E;}
	.st3{display:none;}
	.st4{display:none;fill:#FFFFFF;}
</style>
<g id="box">
	<g>
		<rect class="st0" width="24" height="24"/>
	</g>
</g>
<g id="icon">
	<g>
		<path d="M23.7,3.4c-0.1-0.6-0.6-1-1.2-1.1C20.6,2,17.6,2,17,2c-0.6,0-3.6,0-5.5,0.3c-0.6,0.1-1.1,0.5-1.2,1.1
			c-0.1,0.4-0.1,0.7-0.2,1.1c1.7,0,3.8,0.1,5.2,0.4c1.4,0.2,2.5,1.3,2.7,2.8v0c0.3,1.7,0.4,3.6,0.4,5.5l2.4,2.1
			c0.2,0.2,0.5,0.1,0.6,0c0.1-0.1,0.1-0.2,0.1-0.3l0-0.1l0,0l-0.3-2.6c0.4,0,0.8-0.1,1.2-0.1c0.6-0.1,1.1-0.5,1.2-1.1
			C24.1,8.5,24.1,5.5,23.7,3.4z"/>
		<path d="M15.1,6.4C12.9,6,9.2,6,8.5,6C7.8,6,4.1,6,1.9,6.4C1.1,6.5,0.5,7.1,0.4,7.9c-0.5,3.4-0.5,7.4,0,10.2
			c0.1,0.8,0.7,1.4,1.5,1.5c0.7,0.1,1.4,0.2,2.2,0.2l-1,3.4l0,0l0,0.1c0,0.1,0,0.3,0.1,0.4c0.2,0.3,0.5,0.3,0.7,0.2L10,20
			c1.5,0,3.7-0.1,5.2-0.4c0.8-0.1,1.3-0.7,1.5-1.5c0.5-3.4,0.5-7.4,0-10.2C16.5,7.1,15.9,6.5,15.1,6.4z"/>
	</g>
</g>
</svg>
