<?xml version="1.0" encoding="utf-8"?>

<!DOCTYPE svg PUBLIC "-//W3C//DTD SVG 1.1//EN" "http://www.w3.org/Graphics/SVG/1.1/DTD/svg11.dtd">
<svg version="1.1" xmlns="http://www.w3.org/2000/svg" xmlns:xlink="http://www.w3.org/1999/xlink" x="0px" y="0px" width="24px"
	 height="24px" viewBox="0 0 24 24" style="enable-background:new 0 0 24 24;" xml:space="preserve">
<style type="text/css">
	.st0{fill:none;}
	.st1{fill:#39870C;}
	.st2{fill:#D52B1E;}
	.st3{display:none;}
	.st4{display:none;fill:#FFFFFF;}
</style>
<g id="box">
	<g>
		<rect class="st0" width="24" height="24"/>
	</g>
</g>
<g id="icon">
	<path d="M18,15c-0.9,0-1.8,0.3-2.4,0.8l-5.6-3.3C10,12,10,12,9.9,11.4l5.6-3.3C16.2,8.7,17.1,9,18,9c2.2,0,4-1.8,4-4
		c0-2.2-1.8-4-4-4s-4,1.8-4,4c0,0.2,0,0.4,0.1,0.6L8.4,8.8C7.8,8.3,6.9,8,6,8c-2.2,0-4,1.8-4,4c0,2.2,1.8,4,4,4
		c0.9,0,1.8-0.3,2.4-0.8l5.6,3.3c0,0.2-0.1,0.4-0.1,0.6c0,2.2,1.8,4,4,4s4-1.8,4-4C22,16.8,20.2,15,18,15z"/>
</g>
</svg>
