<svg xmlns="http://www.w3.org/2000/svg" width="48" height="48" xmlns:v="https://vecta.io/nano"><path d="M32 40H8V16h12v-6H4.199A2.22 2.22 0 0 0 2 12.199v31.602A2.22 2.22 0 0 0 4.199 46h31.602A2.22 2.22 0 0 0 38 43.801V28h-6zM43.199 4.801c-.598-.602-1.199-.801-2-.602L24.398 6c-1.199.199-2.199 1.199-2.199 2.398s1 2.203 2.199 2.402l7.402.598-9.402 9.402c-1.598 1.598-.797 3.199.402 4.398s2.801 2 4.398.402l9.402-9.402.598 7.402c.199 1.199 1.199 2.199 2.402 2.199s2.199-1 2.398-2.199l1.801-16.801c.199-.801-.199-1.402-.602-2zm0 0" fill="rgb(0%,0%,0%)"/></svg>