<svg height="48" width="48" xmlns="http://www.w3.org/2000/svg"><path d="m31.719 20.461 6.621-6.621 1 4.961c.109.547.523.98 1.063 1.121a1.46 1.46 0 0 0 1.477-.461c.203-.223.328-.504.359-.801l1.46-12.66c.039-.449-.113-.891-.418-1.219-.332-.348-.805-.523-1.281-.48l-12.719 1.461a1.52 1.52 0 0 0 -.883.418 1.49 1.49 0 0 0 -.437.98 1.44 1.44 0 0 0 1.18 1.5l4.961 1-6.562 6.621c-1.059 1.059-.199 2.559.84 3.598s2.281 1.641 3.34.582zm-15.438 7.078-6.621 6.621-1-4.961c-.109-.547-.523-.98-1.063-1.121a1.46 1.46 0 0 0 -1.477.461c-.203.223-.328.504-.359.801l-1.46 12.66c-.039.449.113.891.418 1.219a1.58 1.58 0 0 0 1.223.422l12.718-1.461a1.52 1.52 0 0 0 .879-.418 1.49 1.49 0 0 0 .441-.98 1.44 1.44 0 0 0 -1.18-1.5l-4.961-1 6.621-6.621c1.059-1.059.199-2.559-.84-3.602s-2.281-1.578-3.34-.52zm0 0"/></svg>