<svg xmlns="http://www.w3.org/2000/svg" width="48" height="48" fill="rgb(0%,0%,0%)" xmlns:v="https://vecta.io/nano"><path d="M30.602 2H5.398C4.602 2 4 2.602 4 3.398v17.203C4 21.398 4.602 22 5.398 22H30.8c.801 0 1.398-.602 1.398-1.398V3.398C32 2.602 31.398 2 30.602 2zM29 4.801l-11 7.598L7 4.801zM6.602 7.199l10.797 7.402c.203.199.402.199.602.199s.398 0 .602-.199L29.4 7.199v12L22.602 14s-.203 0 0 .199 3.797 5.199 3.797 5.199H9.801l3.801-5.199V14l-7 5.199zM34 10h10v2H34zm0 6h8v2h-8zm0-12h12v2H34zM16 27.398v17.203c0 .797.602 1.398 1.398 1.398H42.8c.801 0 1.398-.602 1.398-1.398V27.398c0-.797-.598-1.398-1.398-1.398H17.398c-.797 0-1.398.602-1.398 1.398zM41 28.8l-11 7.598L19 28.8zm.398 14.398l-7-5.199s-.199 0 0 .199 3.801 5.199 3.801 5.199H21.602l3.797-5.199c.203-.199 0-.199 0-.199l-6.797 5.398v-12l10.797 7.402c.203.199.402.199.602.199s.398 0 .602-.199L41.4 31.397zM14 36H4v-2h10zm0 6H6v-2h8zm0 0"/><path d="M14 30H2v-2h12zm0 0"/></svg>