<?xml version="1.0" encoding="utf-8"?>

<!DOCTYPE svg PUBLIC "-//W3C//DTD SVG 1.1//EN" "http://www.w3.org/Graphics/SVG/1.1/DTD/svg11.dtd">
<svg version="1.1" xmlns="http://www.w3.org/2000/svg" xmlns:xlink="http://www.w3.org/1999/xlink" x="0px" y="0px" width="24px"
	 height="24px" viewBox="0 0 24 24" style="enable-background:new 0 0 24 24;" xml:space="preserve">
<style type="text/css">
	.st0{fill:none;}
	.st1{fill:#39870C;}
	.st2{fill:#D52B1E;}
	.st3{display:none;}
	.st4{display:none;fill:#FFFFFF;}
</style>
<g id="box">
	<g>
		<rect class="st0" width="24" height="24"/>
	</g>
</g>
<g id="icon">
	<g>
		<path d="M15,4.5v2c3,0,5.5,2.5,5.5,5.5S18,17.5,15,17.5v2c4.1,0,7.5-3.4,7.5-7.5S19.1,4.5,15,4.5z"/>
		<path d="M19,12c0-2.2-1.8-4-4-4v2c1.1,0,2,0.9,2,2s-0.9,2-2,2v2C17.2,16,19,14.2,19,12z"/>
		<path d="M11.9,4.2C11.4,4.5,7,8,7,8c0,0-2,0-2,0c-2.2,0-3,2.1-3,4c0,1.9,0.8,4,3,4c0,0,2,0,2,0c0,0,4.4,3.5,4.9,3.8s1.1,0,1.1-0.6
			V12V4.7C13,4.2,12.4,3.8,11.9,4.2z"/>
	</g>
</g>
</svg>
