<svg height="48" width="48" xmlns="http://www.w3.org/2000/svg"><path d="m41.023 34.051a2.64 2.64 0 0 0 -2.414-1.312h-12.953c-.621 0-1.125-.504-1.125-1.125v-9.555l5.59 3.203a2.9 2.9 0 0 0 3.621-.633c.898-1.047.934-2.586.082-3.676l-11.144-14.113c-.547-.695-1.387-1.102-2.273-1.102s-1.723.406-2.27 1.102l-11.149 14.113c-.852 1.09-.816 2.629.086 3.676a2.9 2.9 0 0 0 3.621.633l5.586-3.203v9.555c.008 5.172 4.203 9.367 9.375 9.375h12.953c.988.043 1.918-.461 2.414-1.312a5.58 5.58 0 0 0 .609-2.812 5.57 5.57 0 0 0 -.609-2.812zm0 0"/></svg>