<svg height="48" width="48" xmlns="http://www.w3.org/2000/svg"><path d="m40.391 10.59c-.254-1.547-1.434-2.723-2.98-2.98-4.469-.746-11.922-.746-13.41-.746s-8.941 0-13.41.746c-1.547.258-2.727 1.434-2.98 2.98-.746 4.469-.746 11.922-.746 13.41s0 8.941.746 13.41c.254 1.547 1.434 2.723 2.98 2.98 4.469.746 11.922.746 13.41.746s8.941 0 13.41-.746c1.547-.258 2.727-1.434 2.98-2.98.746-4.469.746-11.922.746-13.41 0-4.473 0-8.941-.746-13.41zm-14.141 25.41h-4.922l.422-10.5v-6h4.5zm-2.234-19.5c-1.68 0-2.641-.941-2.641-2.656 0-1.461.891-2.594 2.609-2.594 1.68 0 2.641.906 2.641 2.594 0 1.488-.891 2.656-2.609 2.656zm0 0"/></svg>