<?xml version="1.0" encoding="utf-8"?>
<!-- Generator: Adobe Illustrator 23.1.1, SVG Export Plug-In . SVG Version: 6.00 Build 0)  -->
<svg version="1.1" xmlns="http://www.w3.org/2000/svg" xmlns:xlink="http://www.w3.org/1999/xlink" x="0px" y="0px"
	 viewBox="0 0 24 24" style="enable-background:new 0 0 24 24;" xml:space="preserve">
<style type="text/css">
	.st0{fill:none;}
	.st1{fill:#FFFFFF;}
	.st2{stroke:#000000;stroke-width:4.4;stroke-miterlimit:10;}
	.st3{stroke:#000000;stroke-width:6;stroke-miterlimit:10;}
</style>
<g id="Box_1_">
	<rect class="st0" width="24" height="24"/>
</g>
<g id="Icon_9_">
	<g>
		<path d="M20.5,1h-15C4.7,1,4,1.7,4,2.5V7h3V4h12v15H7v-3H4v4.5C4,21.3,4.7,22,5.5,22h15c0.8,0,1.5-0.7,1.5-1.5v-18
			C22,1.7,21.3,1,20.5,1z"/>
		<path d="M9.5,15.4c-0.3,0.4-0.3,1,0.1,1.4c0.4,0.4,1,0.4,1.4,0.1l5.7-4.6c0.5-0.4,0.6-1.1,0-1.6l-5.7-4.6c-0.4-0.3-1-0.3-1.4,0.1
			c-0.4,0.4-0.4,1-0.1,1.4l2.1,2.4H2.8c-1,0-1.2,0.7-1.2,1.5c0,0.7,0.2,1.5,1.2,1.5h8.7L9.5,15.4z"/>
	</g>
</g>
</svg>
