<svg height="48" width="48" xmlns="http://www.w3.org/2000/svg"><path d="m28.008 24c0-2.164-1.797-3.918-4.008-3.918s-4.004 1.754-4.004 3.918 1.793 3.918 4.004 3.918 4.008-1.754 4.008-3.918zm12.383-13.414c-.258-1.547-1.434-2.719-2.98-2.977-4.469-.746-11.922-.746-13.41-.746s-8.941 0-13.414.746a3.59 3.59 0 0 0 -2.98 2.977c-.744 4.473-.744 11.922-.744 13.414s0 8.941.742 13.41a3.59 3.59 0 0 0 2.98 2.98c4.473.746 11.922.746 13.414.746s8.941 0 13.41-.746a3.59 3.59 0 0 0 2.98-2.98c.746-4.469.746-11.922.746-13.41 0-4.473 0-8.941-.746-13.414zm-3.898 14.047c0 .359-.27.77-.594.91l-2.23 1.012c-.332.129-.719.504-.855.832l-.125.301a1.63 1.63 0 0 0 .027 1.184l.879 2.188a1.03 1.03 0 0 1 -.215 1.055l-1.012.992a1.12 1.12 0 0 1 -1.074.227l-2.297-.832a1.78 1.78 0 0 0 -1.199-.008l-.328.129c-.328.137-.703.52-.828.852l-.957 2.16a1.07 1.07 0 0 1 -.906.594h-1.441c-.355 0-.77-.266-.918-.59l-1.023-2.156a1.76 1.76 0 0 0 -.848-.848l-.324-.133a1.74 1.74 0 0 0 -1.191.027l-2.25.871c-.332.133-.812.035-1.066-.215l-1.016-.992c-.258-.25-.359-.727-.23-1.059l.84-2.238c.145-.324.152-.863.012-1.191l-.125-.297a1.71 1.71 0 0 0 -.863-.816l-2.223-.945a1.05 1.05 0 0 1 -.602-.898v-1.387c0-.355.27-.766.594-.91l2.227-1.004a1.78 1.78 0 0 0 .859-.832l.125-.301c.137-.328.125-.863-.027-1.184l-.879-2.187c-.137-.332-.039-.805.215-1.055l1.012-.992a1.12 1.12 0 0 1 1.074-.227l2.305.828a1.78 1.78 0 0 0 1.199.008l.316-.129a1.68 1.68 0 0 0 .828-.852l.961-2.156a1.07 1.07 0 0 1 .906-.598h1.441a1.11 1.11 0 0 1 .922.59l1.02 2.16c.133.332.516.711.848.848l.32.129c.332.137.871.125 1.195-.023l2.25-.871c.332-.133.813-.035 1.07.215l1.012.988c.254.25.359.727.23 1.059l-.84 2.238a1.74 1.74 0 0 0 -.012 1.191l.129.301c.137.328.527.695.863.816l2.219.945c.332.133.602.539.602.895zm0 0"/></svg>