<svg height="48" width="48" xmlns="http://www.w3.org/2000/svg"><path d="m23.199 22.199-16.801 1.801c-1.199.199-2.199 1.199-2.199 2.398s1 2.203 2.199 2.402l7.402.598-9.402 9.402c-1.598 1.598-.797 3.199.402 4.398s2.801 2 4.398.402l9.402-9.402.598 7.402c.199 1.199 1.199 2.199 2.402 2.199s2.199-1 2.398-2.199l1.801-16.801c0-.801-.199-1.402-.602-2-.598-.402-1.199-.801-2-.602zm18.602-18.199h-31.602a2.22 2.22 0 0 0 -2.199 2.199v11.801h6v-8h24v24h-8v6h11.801a2.22 2.22 0 0 0 2.199-2.199v-31.602a2.22 2.22 0 0 0 -2.199-2.199zm0 0"/></svg>