<?xml version="1.0" encoding="utf-8"?>

<!DOCTYPE svg PUBLIC "-//W3C//DTD SVG 1.1//EN" "http://www.w3.org/Graphics/SVG/1.1/DTD/svg11.dtd">
<svg version="1.1" xmlns="http://www.w3.org/2000/svg" xmlns:xlink="http://www.w3.org/1999/xlink" x="0px" y="0px" width="64px"
	 height="64px" viewBox="0 0 64 64" style="enable-background:new 0 0 64 64;" xml:space="preserve">
<style type="text/css">
	.st0{fill:none;}
</style>
<g id="_x36_4px_Box">
	<rect class="st0" width="64" height="64"/>
</g>
<g id="Icon">
	<g>
		<path d="M28,43.9c1.5,0,2.3-1.1,2.3-2.4c0-1.6-0.8-2.5-2.3-2.5c-1.5,0-2.3,1.1-2.3,2.5C25.7,43.1,26.5,43.9,28,43.9z"/>
		<polygon points="29.8,33 30.2,23.3 26.1,23.6 26.1,38 29.8,37.9 		"/>
		<path d="M9.2,47l18.6-32.1L38,32.2c1.9-1,4-1.4,6.1-1.4L30.4,7.5C29.8,6.6,28.9,6,27.8,6c0,0,0,0,0,0c-1.1,0-2,0.6-2.6,1.5
			l-23.8,41c-0.5,0.9-0.5,2.1,0,3S2.9,53,4,53h30.4c-1.6-1.7-2.7-3.8-3.2-6H9.2z"/>
		<path d="M61.4,57.3L53.2,50c2.7-4.3,2.3-10-1.5-13.7c-4.3-4.3-11.3-4.3-15.6,0c-4.3,4.3-4.3,11.3,0,15.6C40,55.5,45.7,56,50,53.2
			l7.4,8.2c1,1.1,2.7,0.9,3.8-0.2C62.4,60,62.6,58.4,61.4,57.3z M49,49c-2.8,2.8-7.3,2.8-10,0c-2.8-2.8-2.8-7.3,0-10
			c2.8-2.8,7.3-2.8,10,0C51.8,41.8,51.8,46.2,49,49z"/>
	</g>
</g>
</svg>
