<svg height="48" width="48" xmlns="http://www.w3.org/2000/svg"><path d="m21 32.926c1.125 0 1.727-.824 1.727-1.801 0-1.199-.602-1.875-1.727-1.875s-1.727.824-1.727 1.875c0 1.199.602 1.801 1.727 1.801zm1.352-8.176.297-7.273-3.074.223v10.8l2.777-.074zm-15.454 10.5 13.953-24.074 7.649 12.972c1.426-.75 3-1.047 4.574-1.047l-10.273-17.476c-.449-.676-1.125-1.125-1.949-1.125s-1.5.449-1.953 1.125l-17.848 30.75c-.375.676-.375 1.574 0 2.25s1.125 1.125 1.949 1.125h22.801a9.77 9.77 0 0 1 -2.402-4.5zm39.153 7.727-6.153-5.477c2.027-3.227 1.727-7.5-1.125-10.273a8.28 8.28 0 0 0 -11.699 0 8.29 8.29 0 0 0 0 11.699c2.926 2.699 7.199 3.074 10.426.972l5.551 6.152c.75.824 2.023.676 2.848-.152.902-.898 1.051-2.098.152-2.922zm-9.301-6.227c-2.102 2.102-5.477 2.102-7.5 0-2.102-2.102-2.102-5.477 0-7.5 2.102-2.102 5.477-2.102 7.5 0 2.102 2.102 2.102 5.398 0 7.5zm0 0"/></svg>