<svg height="48" width="48" xmlns="http://www.w3.org/2000/svg"><path d="m24 2a13.91 13.91 0 0 0 -14 14c0 2.602 1 5 2 7.398.801 2 7.398 15 10.398 21 .203.602.801 1 1.602 1 .602 0 1.199-.398 1.602-1l10.398-21c1-2.398 2-4.796 2-7.398a13.91 13.91 0 0 0 -14-14zm0 22.398a8.45 8.45 0 0 1 -8.398-8.398 8.45 8.45 0 0 1 8.398-8.398 8.45 8.45 0 0 1 8.398 8.398 8.45 8.45 0 0 1 -8.398 8.398zm3.602-8.398c0 1.988-1.613 3.602-3.602 3.602s-3.602-1.614-3.602-3.602 1.613-3.602 3.602-3.602 3.602 1.613 3.602 3.602zm0 0"/></svg>