<svg xmlns="http://www.w3.org/2000/svg" width="48" height="48" fill="rgb(0%,0%,0%)" xmlns:v="https://vecta.io/nano"><path d="M46 4H12c-1.199 0-2 .801-2 2v10H3.602a2.16 2.16 0 0 0-1.402.602c-.398.598-.598 1-.598 1.598l2 14.602c1 7.598 5 9.199 8.398 9.199h24c6.602 0 12-5.398 12-12V6c0-1.199-.801-2-2-2zm-2 26a8.03 8.03 0 0 1-8 8H11.199C12.602 36.398 14 33.801 14 30V8h30zM18 14h22v4H18zm0 0"/><path d="M18 22h10v2H18zm0 4h10v2H18zm0 4h10v2H18zm12 2h6.602C38.398 32 40 30.398 40 28.602V22H30zm0 0"/></svg>