<svg xmlns="http://www.w3.org/2000/svg" width="64" height="64">
  <path fill="none" d="M0 0h64v64H0z" />
  <path
    d="M50.806 11.732c-5.381-4.875-13.742-4.388-18.876.746L13.822 30.586c-.781.781-.427 1.694.354 2.475.781.781 1.694 1.135 2.475.354L35.036 15.03c3.856-3.856 10.23-3.698 13.879.476 3.328 3.805 2.893 9.622-.682 13.197l-22.39 22.39a6.507 6.507 0 01-9.758-.644c-2.02-2.614-1.61-6.373.726-8.709l16.104-16.103a3.506 3.506 0 015.416.573c.92 1.394.644 3.267-.537 4.448l-11.95 11.95c-.781.781-.427 1.694.354 2.475.781.781 1.694 1.135 2.475.354l12.021-12.021c3.154-3.154 2.906-8.441-.743-11.26-3.016-2.33-7.353-1.857-10.048.838L14.04 38.854c-3.864 3.864-4.384 10.108-.899 14.317 3.999 4.83 11.201 5.079 15.531.749l22.627-22.627c5.423-5.423 5.259-14.35-.493-19.561z" />
</svg>
