<?xml version="1.0" encoding="utf-8"?>
<!-- Generator: Adobe Illustrator 27.2.0, SVG Export Plug-In . SVG Version: 6.00 Build 0)  -->
<svg version="1.1" xmlns="http://www.w3.org/2000/svg" xmlns:xlink="http://www.w3.org/1999/xlink" x="0px" y="0px" width="64px"
	 height="64px" viewBox="0 0 64 64" style="enable-background:new 0 0 64 64;" xml:space="preserve">
<style type="text/css">
	.st0{fill:none;}
</style>
<g id="Boxes">
	<rect x="0" class="st0" width="64" height="64"/>
</g>
<g id="Icons">
	<path d="M50.806,11.732c-5.381-4.875-13.742-4.388-18.876,0.746L13.822,30.586c-0.781,0.781-0.427,1.694,0.354,2.475
		c0.781,0.781,1.694,1.135,2.475,0.354l18.385-18.385c3.856-3.856,10.23-3.698,13.879,0.476c3.328,3.805,2.893,9.622-0.682,13.197
		l-22.39,22.39c-2.733,2.733-7.315,2.519-9.758-0.644c-2.02-2.614-1.61-6.373,0.726-8.709l16.104-16.103
		c1.534-1.534,4.151-1.344,5.416,0.573c0.92,1.394,0.644,3.267-0.537,4.448l-11.95,11.95c-0.781,0.781-0.427,1.694,0.354,2.475
		c0.781,0.781,1.694,1.135,2.475,0.354l12.021-12.021c3.154-3.154,2.906-8.441-0.743-11.26c-3.016-2.33-7.353-1.857-10.048,0.838
		L14.04,38.854c-3.864,3.864-4.384,10.108-0.899,14.317c3.999,4.83,11.201,5.079,15.531,0.749l22.627-22.627
		C56.722,25.87,56.558,16.943,50.806,11.732z"/>
</g>
</svg>
