<?xml version="1.0" encoding="utf-8"?>
<!-- Generator: Adobe Illustrator 23.1.1, SVG Export Plug-In . SVG Version: 6.00 Build 0)  -->
<svg version="1.1" xmlns="http://www.w3.org/2000/svg" xmlns:xlink="http://www.w3.org/1999/xlink" x="0px" y="0px"
	 viewBox="0 0 64 64" style="enable-background:new 0 0 64 64;" xml:space="preserve">
<style type="text/css">
	.st0{fill:none;}
</style>
<g id="Box">
	<rect class="st0" width="64" height="64"/>
</g>
<g id="Icon">
	<g>
		<path d="M59.2,12.6c-0.3-0.5-1-0.5-1.3,0c-0.9,1.4-1.7,2.7-2.3,3.3c-0.8,1-2.1,2.8-3.7,1.9l-4.5-2.7c-1.5-0.9-0.7-3.1-0.2-4.3
			c0.3-0.8,1-2.3,1.8-3.9c0.2-0.5-0.1-1-0.6-1c-3.2-0.1-5.9,1.7-7.8,4.9c-3.6,6.1-0.9,10.8,5.7,14.3c0,0.1-0.2,0.2-0.5,0.2
			c-0.6-0.1-2.9-0.4-5.9-2.2L33.5,34h11l4.6-7.8c3.9,0.7,7.2-1,9.4-4.7C60.3,18.4,60.6,15.3,59.2,12.6z"/>
		<path d="M11.7,23.7l8.3-3.1c0,0,0.2,0.2-0.1,0.5L16.4,24l3.7,10h9.6l-5.5-14.9l4.7-1.7c0.5-0.2,0.8-0.8,0.6-1.3
			c-2.1-5.5-1.5-4.1-3.1-8.4c-0.2-0.5-0.8-0.8-1.3-0.6L7.9,13.4c-0.2,0.1-0.4,0.2-0.5,0.5l-3.3,6c-0.3,0.5,0,1.2,0.5,1.4l6.4,2.4
			C11.2,23.8,11.5,23.8,11.7,23.7z"/>
		<path d="M41.2,51.1c1.4-0.7,2.3-2,2.3-3.6s-0.9-2.9-2.3-3.6c-1.4-0.7-3-0.4-4.2,0.6l-3.5,3l3.5,3C38.2,51.5,39.8,51.7,41.2,51.1z"
			/>
		<path d="M20.9,51.1c1.4,0.7,3,0.4,4.2-0.6l3.5-3l-3.5-3c-0.7-0.6-1.6-1-2.5-1c-2,0-3.9,1.5-3.9,3.9C18.7,49.1,19.5,50.4,20.9,51.1
			z"/>
		<path d="M7,59h48V36H7V59z M19.6,41c2.6-1.2,5.5-0.8,7.6,1.1l3.8,3.3l3.8-3.3c2.1-1.8,5.1-2.2,7.6-1.1c2.6,1.2,4.1,3.7,4.1,6.5
			s-1.6,5.3-4.1,6.5c-2.6,1.2-5.5,0.8-7.6-1.1l-3.8-3.3l-3.8,3.3c-1.3,1.1-3,1.7-4.6,1.7c-1,0-2-0.2-3-0.7c-2.6-1.2-4.1-3.7-4.1-6.5
			S17.1,42.2,19.6,41z"/>
	</g>
</g>
</svg>
