<svg height="48" width="48" xmlns="http://www.w3.org/2000/svg"><path d="m38 24c0 5-2.602 9.602-7 12.199-6.602 3.801-15.199 1.602-19.199-5.199-3.801-6.801-1.403-15.398 5.199-19.199 5.398-3 12-2.199 16.398 2l-3.598.398c-.801 0-1.402.801-1.402 1.402 0 .797.402 1.398 1.203 1.598l10.399 2.403c.398.199 1 0 1.398-.402.403-.2.602-.598.602-1.2v-10.602c0-.797-.602-1.398-1.199-1.598-.801-.199-1.402.398-1.801 1l-1 3c-6.199-6.199-16.199-7.602-24-3-9.602 5.399-12.801 17.598-7.398 27.2 3.597 6.398 10.398 10 17.398 10 3.398 0 6.801-.801 10-2.602 6.199-3.597 10-10.199 10-17.398zm0 0"/></svg>