<svg xmlns="http://www.w3.org/2000/svg" width="48" height="48" xmlns:v="https://vecta.io/nano"><path d="M38 24c0 5-2.602 9.602-7 12.199C24.398 40 15.801 37.801 11.801 31 8 24.199 10.398 15.602 17 11.801c5.398-3 12-2.199 16.398 2l-3.598.398c-.801 0-1.402.801-1.402 1.402 0 .797.402 1.398 1.203 1.598L40 19.602c.398.199 1 0 1.398-.402C41.801 19 42 18.602 42 18V7.398c0-.797-.602-1.398-1.199-1.598-.801-.199-1.402.398-1.801 1l-1 3c-6.199-6.199-16.199-7.602-24-3C4.398 12.199 1.199 24.398 6.602 34 10.199 40.398 17 44 24 44c3.398 0 6.801-.801 10-2.602C40.199 37.801 44 31.199 44 24zm0 0" fill="rgb(0%,0%,0%)"/></svg>