<svg height="48" width="48" xmlns="http://www.w3.org/2000/svg"><path d="m43.199 8.398c-.199-1.796-1.597-3.199-3.398-3.398-5.402-1-14-1-15.801-1s-10.398 0-15.602.801c-1.797.398-3.199 1.801-3.598 3.598-.8 5.203-.8 13.8-.8 15.601s0 10.398.801 15.602c.199 1.796 1.597 3.199 3.398 3.398 5.402 1 14 1 15.801 1s10.398 0 15.602-.801c1.797-.398 3.199-1.598 3.398-3.398.801-5.199.801-14 .801-15.602.199-5.398.199-10.598-.602-15.801zm-29.199 30c-2.801 0-4.398-1.598-4.398-4.398s1.598-4.398 4.398-4.398 4.398 1.598 4.398 4.398c0 3-1.598 4.398-4.398 4.398zm12.801.402h-2.801-2.398c.797-1.402 1.199-3 1.199-4.602 0-5.199-3.602-8.801-8.801-8.801-1.801 0-3.398.402-4.602 1.203v-2.402-2.801c1.402-.398 3-.797 4.602-.797 8 0 13.602 5.797 13.602 13.598-.203 1.602-.402 3.199-.801 4.602zm10.398-.402c-1.598.203-3.398.402-5.398.402.398-1.402.598-3 .598-4.602 0-10.598-8-18.598-18.598-18.598-1.602 0-3 .199-4.602.598 0-2.199.199-4 .402-5.398 1.398-.199 2.797-.402 4.199-.402 13.598 0 23.801 10.203 23.801 23.801 0 1.402-.203 2.801-.402 4.199zm0 0"/></svg>