<?xml version="1.0" encoding="utf-8"?>
<!-- Generator: Adobe Illustrator 27.2.0, SVG Export Plug-In . SVG Version: 6.00 Build 0)  -->
<svg version="1.1" xmlns="http://www.w3.org/2000/svg" xmlns:xlink="http://www.w3.org/1999/xlink" x="0px" y="0px" width="64px"
	 height="64px" viewBox="0 0 64 64" style="enable-background:new 0 0 64 64;" xml:space="preserve">
<style type="text/css">
	.st0{fill:none;}
</style>
<g id="Boxes">
	<rect x="0" class="st0" width="64" height="64"/>
</g>
<g id="Icons">
	<g>
		<path d="M54.121,17.435l-7.556-7.556C46.002,9.316,45.239,9,44.444,9H13c-2.209,0-4,1.791-4,4v38c0,2.209,1.791,4,4,4h38
			c2.209,0,4-1.791,4-4V19.556C55,18.761,54.684,17.998,54.121,17.435z M20,13h24v13c0,1.105-0.896,2-2,2H22c-1.104,0-2-0.895-2-2
			V13z M47,48c0,1.105-0.896,2-2,2H19c-1.104,0-2-0.895-2-2V38c0-1.105,0.896-2,2-2h26c1.104,0,2,0.895,2,2V48z"/>
		<rect x="34" y="15" width="5" height="11"/>
	</g>
</g>
</svg>
