<?xml version="1.0" encoding="utf-8"?>
<!-- Generator: Adobe Illustrator 25.0.0, SVG Export Plug-In . SVG Version: 6.00 Build 0)  -->
<svg version="1.1" xmlns="http://www.w3.org/2000/svg" xmlns:xlink="http://www.w3.org/1999/xlink" x="0px" y="0px"
	 viewBox="0 0 24 24" style="enable-background:new 0 0 24 24;" xml:space="preserve">
<style type="text/css">
	.st0{fill:none;}
	.st1{fill:#FFFFFF;}
</style>
<g id="Box">
	<rect class="st0" width="24" height="24"/>
</g>
<g id="Icon">
	<g>
		<path d="M7.282,10.106c2.932,0,5.571-2.395,7.281-4.838c-1.906-2.004-4.496-3.714-7.281-3.714C4.496,1.553,1.906,3.215,0,5.267
			C1.71,7.711,4.35,10.106,7.282,10.106z M5.473,3.362c-0.44,0.44-0.684,1.075-0.684,1.71c0,1.368,1.124,2.492,2.492,2.492
			c1.368,0,2.492-1.124,2.492-2.492c0-0.684-0.293-1.271-0.684-1.71c1.613,0.489,2.932,1.515,3.567,2.101
			C11.826,6.44,9.676,8.688,7.282,8.688c-2.395,0-4.545-2.248-5.376-3.225C2.541,4.876,3.861,3.85,5.473,3.362z"/>
		<rect x="-2.553" y="11.484" transform="matrix(0.7073 -0.7069 0.7069 0.7073 -5.3521 11.7426)" width="28.113" height="1.7"/>
		<path d="M19,13.35v1.333c2,0,3.667,1.667,3.667,3.667S21,22.016,19,22.016v1.333c2.733,0,5-2.267,5-5S21.733,13.35,19,13.35z"/>
		<path d="M21,18.35c0-1.1-0.9-2-2-2v4C20.1,20.35,21,19.45,21,18.35z"/>
		<path d="M17.215,12.785c-0.357,0.214-3.496,2.711-3.496,2.711h-1.427c-1.57,0-2.141,1.498-2.141,2.854s0.571,2.854,2.141,2.854
			h1.427c0,0,3.14,2.497,3.496,2.711s0.785,0,0.785-0.428V18.35v-5.209C18,12.785,17.572,12.499,17.215,12.785z"/>
	</g>
</g>
</svg>
