<svg xmlns="http://www.w3.org/2000/svg" width="48" height="48" fill="rgb(0%,0%,0%)" xmlns:v="https://vecta.io/nano"><path d="M14.563 20.211c5.867 0 11.145-4.789 14.563-9.676-3.812-4.008-8.992-7.426-14.562-7.426S3.813 6.43 0 10.535c3.422 4.887 8.699 9.676 14.563 9.676zM10.945 6.723c-.879.883-1.367 2.152-1.367 3.422a5.01 5.01 0 0 0 4.984 4.984 5.01 5.01 0 0 0 4.984-4.984c0-1.367-.586-2.543-1.367-3.422 3.223.98 5.863 3.031 7.133 4.203-1.66 1.953-5.961 6.449-10.75 6.449s-9.09-4.496-10.75-6.449c1.27-1.172 3.91-3.227 7.133-4.203zM1.922 43.34L41.688 3.594 44.094 6 4.324 45.746zM38 26.699v2.668c4 0 7.336 3.332 7.336 7.332S42 44.031 38 44.031v2.668c5.465 0 10-4.535 10-10s-4.535-10-10-10zm4 10c0-2.199-1.801-4-4-4v8c2.199 0 4-1.801 4-4zm0 0"/><path d="M34.43 25.57c-.715.426-6.992 5.422-6.992 5.422h-2.852c-3.141 0-4.285 2.996-4.285 5.707s1.145 5.707 4.285 5.707h2.852l6.992 5.422c.711.43 1.57 0 1.57-.855V26.281c0-.711-.855-1.285-1.57-.711zm0 0"/></svg>