<svg height="48" width="48" xmlns="http://www.w3.org/2000/svg"><path d="m44.078 7.559a4.41 4.41 0 0 0 -3.656-3.66c-5.461-.899-14.602-.899-16.422-.899s-10.961 0-16.441.922a4.36 4.36 0 0 0 -3.637 3.637c-.922 5.48-.922 14.621-.922 16.441s0 10.961.922 16.441a4.41 4.41 0 0 0 3.656 3.66c5.48.918 14.602.918 16.441.918 1.82 0 10.961 0 16.441-.918a4.42 4.42 0 0 0 3.66-3.66c.918-5.48.918-14.602.918-16.441-.038-5.48-.038-10.961-.96-16.441zm0 0" fill="#007bc7"/><path d="m21.422 13.859a2.57 2.57 0 0 1 .656-1.758c.441-.5 1.082-.762 1.902-.762s1.441.238 1.879.719.66 1.082.66 1.801a2.53 2.53 0 0 1 -.66 1.719c-.437.5-1.078.742-1.879.742-.82 0-1.441-.242-1.902-.699-.437-.48-.656-1.062-.656-1.762zm4.797 4.781v17.918h-4.418v-17.738zm0 0" fill="#fff"/></svg>