<svg height="48" width="48" xmlns="http://www.w3.org/2000/svg"><path d="m24 21.75c1.242 0 2.25-.258 2.25-1.5v-13.437c0-1.242-1.008-1.562-2.25-1.562s-2.25.32-2.25 1.563v13.436c0 1.242 1.008 1.5 2.25 1.5zm6.332-11.996c-.492-.203-1.039.156-1.039.688v2.621c0 .652.34 1.254.895 1.586 3.473 2.086 5.848 5.875 5.848 10.211 0 6.598-5.43 11.957-12.035 11.91-6.605.047-12.035-5.312-12.035-11.91 0-4.336 2.375-8.125 5.848-10.211.555-.332.895-.934.895-1.586v-2.621a.75.75 0 0 0 -1.039-.687c-6.363 2.637-10.715 9.133-10.066 16.57.712 8.175 7.642 14.956 16.396 14.913 8.754.043 15.684-6.738 16.398-14.914.648-7.437-3.703-13.934-10.066-16.57zm0 0"/></svg>