<svg height="48" width="48" xmlns="http://www.w3.org/2000/svg"><path d="m16.23 7.023c-.656 1.004-.723 2.551-.719 4.008l.098 3.395c-.961-.043-1.363.727-1.215 3.336.133 2.313 1.055 2.809 1.605 3.129.488 2.336 1.422 4.551 3.082 6.227l.004-.023-.398 1.898c-2.285.801-7.887 2.887-9.531 4.617-2.066 2.179-3.156 10.39-3.156 10.39h36s-1.09-8.211-3.156-10.391c-1.641-1.727-7.227-3.809-9.52-4.613-.187-.637-.328-1.277-.437-1.879 1.66-1.676 2.625-3.891 3.113-6.227.551-.32 1.445-.816 1.578-3.129.145-2.609-.254-3.379-1.215-3.336.121-.672.133-1.957.125-3.332-.012-1.453-.082-3.012-.668-4.07-.73-1.309-1.754-2.078-3.754-1.605-1.754-.84-3.598-1.746-6.684-1.062-3.477.77-4.703 1.984-5.152 2.668zm0 0"/></svg>