<?xml version="1.0" encoding="utf-8"?>

<!DOCTYPE svg PUBLIC "-//W3C//DTD SVG 1.1//EN" "http://www.w3.org/Graphics/SVG/1.1/DTD/svg11.dtd">
<svg version="1.1" xmlns="http://www.w3.org/2000/svg" xmlns:xlink="http://www.w3.org/1999/xlink" x="0px" y="0px" width="24px"
	 height="24px" viewBox="0 0 24 24" style="enable-background:new 0 0 24 24;" xml:space="preserve">
<style type="text/css">
	.st0{fill:none;}
	.st1{fill:#39870C;}
	.st2{fill:#D52B1E;}
	.st3{display:none;}
	.st4{display:none;fill:#FFFFFF;}
</style>
<g id="box">
	<g>
		<rect class="st0" width="24" height="24"/>
	</g>
</g>
<g id="icon">
	<path d="M21.6,4.2c-0.2-0.9-0.8-1.6-1.7-1.7C17.2,2,12.9,2,12,2S6.8,2,4.2,2.4C3.3,2.6,2.6,3.3,2.4,4.2C2,6.8,2,11.1,2,12
		c0,0.9,0,5.2,0.4,7.8c0.2,0.9,0.8,1.6,1.7,1.7C6.8,22,11.1,22,12,22s5.2,0,7.8-0.4c0.9-0.2,1.6-0.8,1.7-1.7c0.4-2.6,0.4-7,0.4-7.8
		C22,9.4,22,6.8,21.6,4.2z M16.1,12.6L10.2,17C10,17.2,9.7,17.2,9.4,17C9.2,16.9,9,16.6,9,16.3V7.7C9,7.4,9.2,7.1,9.4,7
		C9.7,6.8,10,6.8,10.2,7l5.9,4.3c0.2,0.1,0.3,0.4,0.3,0.6S16.3,12.5,16.1,12.6z"/>
</g>
</svg>
