<svg xmlns="http://www.w3.org/2000/svg" width="48" height="48" xmlns:v="https://vecta.io/nano"><path d="M43.199 8.398C42.801 6.602 41.602 5.199 39.801 5c-5.402-1-14-1-15.801-1s-10.398 0-15.602.801c-1.797.398-3.199 1.801-3.598 3.598C4 13.602 4 22.199 4 24s0 10.398.801 15.602c.398 1.797 1.598 3.199 3.398 3.398 5.402 1 14 1 15.801 1s10.398 0 15.602-.801c1.797-.398 3.199-1.598 3.398-3.398.801-5.199.801-14 .801-15.602.199-5.398.199-10.598-.602-15.801zm-11 16.801L20.398 34c-.398.398-1 .398-1.598 0-.402-.199-.801-.801-.801-1.398V15.398c0-.598.398-1.199.801-1.398.598-.398 1.199-.398 1.598 0l11.801 8.602c.402.199.602.797.602 1.199s-.199 1.199-.602 1.398zm0 0" fill="rgb(0%,0%,0%)"/></svg>