<svg height="48" width="48" xmlns="http://www.w3.org/2000/svg"><path d="m43.199 8.398c-.398-1.796-1.597-3.199-3.398-3.398-5.402-1-14-1-15.801-1s-10.398 0-15.602.801c-1.797.398-3.199 1.801-3.598 3.598-.8 5.203-.8 13.8-.8 15.601s0 10.398.801 15.602c.398 1.797 1.598 3.199 3.398 3.398 5.402 1 14 1 15.801 1s10.398 0 15.602-.801c1.797-.398 3.199-1.598 3.398-3.398.801-5.199.801-14 .801-15.602.199-5.398.199-10.598-.602-15.801zm-11 16.801-11.801 8.801c-.398.398-1 .398-1.598 0-.402-.199-.801-.801-.801-1.398v-17.204c0-.598.398-1.199.801-1.398.598-.398 1.199-.398 1.598 0l11.801 8.602c.402.199.602.797.602 1.199s-.199 1.199-.602 1.398zm0 0"/></svg>