<?xml version="1.0" encoding="utf-8"?>
<!-- Generator: Adobe Illustrator 23.0.3, SVG Export Plug-In . SVG Version: 6.00 Build 0)  -->
<svg version="1.1" xmlns="http://www.w3.org/2000/svg" xmlns:xlink="http://www.w3.org/1999/xlink" x="0px" y="0px" width="24px"
	 height="24px" viewBox="0 0 24 24" style="enable-background:new 0 0 24 24;" xml:space="preserve">
<style type="text/css">
	.st0{fill:none;}
	.st1{fill:#FFB612;}
</style>
<g id="box">
	<g>
		<rect class="st0" width="24" height="24"/>
	</g>
</g>
<g id="icon">
	<g>
		<path class="st1" d="M23.38,19.64L13.67,2.47c-0.73-1.3-2.6-1.3-3.34,0L0.62,19.64c-0.72,1.28,0.2,2.86,1.67,2.86h19.43
			C23.18,22.5,24.1,20.92,23.38,19.64z"/>
		<g>
			<path d="M10.54,17.45c0-0.44,0.12-0.82,0.36-1.12c0.24-0.31,0.6-0.46,1.09-0.46c0.48,0,0.85,0.14,1.1,0.4
				c0.25,0.27,0.38,0.66,0.38,1.18c0,0.43-0.12,0.8-0.36,1.09c-0.24,0.29-0.6,0.44-1.09,0.44c-0.48,0-0.85-0.13-1.1-0.39
				C10.67,18.34,10.54,17.96,10.54,17.45z M10.85,7.18l2.48-0.2l-0.22,5.51v2.63l-2.27,0.05V7.18z"/>
		</g>
	</g>
</g>
</svg>
