<svg height="64" viewBox="0 0 64 64" width="64" xmlns="http://www.w3.org/2000/svg"><path d="m0 0h64v64h-64z" fill="none"/><path d="m46.9277 28.5332c3.0151-10.9019-1.5229-22.001-2.0522-23.2354-.2891-.6694-.8892-1.1489-1.5986-1.2812-.8956-.1699-5.648-1.0166-11.2769-1.0166s-10.3813.8467-11.271 1.0151c-.7153.1338-1.3154.6133-1.6064 1.2876-.5273 1.2295-5.0654 12.3286-2.0503 23.2305 2.0369 7.3642 8.187 10.0159 11.9277 10.9584v17.5865c-1.8502.1808-6.3416.6441-7.7613 1.0151-1.824.4766-1.4746 2.9025.0226 2.9042h21.4775c1.4971-.0017 1.8465-2.4276.0225-2.9042-1.4193-.3708-5.9099-.8341-7.7612-1.015v-17.5866c3.7406-.9425 9.8907-3.5942 11.9276-10.9584zm-23.9277-13.5332s-2.4839 9.0212 1.7093 15.6815c1.8532 2.9435 3.6116 4.0435 3.6116 4.0435s-.0223.5842-1.1879.0806c-2.4944-1.1559-5.2141-3.2953-6.3159-7.2791-2.3188-8.3838.4379-17.0073 1.5269-19.8864 1.7708-.2875 5.4468-.7851 9.656-.7851 4.2067 0 7.8812.4971 9.6561.7851.5181 1.3705 1.407 4.0425 1.9539 7.3599z"/></svg>