<svg enable-background="new 0 0 64 64" viewBox="0 0 64 64" xmlns="http://www.w3.org/2000/svg"><path d="m0 0h64v64h-64z" fill="none"/><path d="m61.4 19.9c-3-.2-7.7-.6-8.1-2-.7-2.1 3.7-6.2 1.4-8.5s-6.4 2.1-8.5 1.4c-1.4-.5-1.9-5.2-2-8.1 0-.9-1.2-1.3-1.8-.6-3.8 4.6-4.5 9-4.4 11.9 1.7.8 3.2 1.9 4.6 3.3 2.6 2.6 2.3 3.2 2 3.3-.2-.2-.3-.4-.5-.6-6.6-6.6-17.4-6.6-24 0s-6.6 17.4 0 24c.2.2.4.4.6.5-.2.3-.8.6-3.3-2-1.4-1.4-2.5-3-3.3-4.6-2.8-.1-7.3.6-11.9 4.4-.7.6-.3 1.7.6 1.8 3 .2 7.7.6 8.1 2 .7 2.1-3.7 6.2-1.4 8.5s6.4-2.1 8.5-1.4c1.4.5 1.9 5.2 2 8.1 0 .9 1.2 1.3 1.8.6 5-6.1 4.6-11.8 4.2-14.1 6 2.4 13.1 1.1 18-3.8s6.2-12.1 3.8-18.2c2.2.4 8 .8 14.1-4.2.7-.5.4-1.6-.5-1.7zm-22.7 15.4-4.8-.8-2.2 4.3c-.2.4-.8.3-.9-.1l-.8-4.8-4.8-.8c-.5-.1-.5-.7-.1-.9l4.3-2.2-.8-4.8c-.1-.5.5-.7.8-.4l3.4 3.4 4.3-2.2c.4-.2.8.2.6.6l-2 4.4 3.4 3.4c.4.4.1.9-.4.9z"/></svg>