<svg height="64" viewBox="0 0 64 64" width="64" xmlns="http://www.w3.org/2000/svg"><path d="m0 0h64v64h-64z" fill="none"/><path d="m17.4117 30.353c-3.5222-.4662-6.8792.2016-7.3382 2.2149-.9987 4.3799 11.9383 4.1744 12.6145 1.5082.4827-1.903-1.2763-3.1938-5.2763-3.7231z"/><path d="m43.2513 18.8012c-5.3474-1.5378-8.8881 1.8022-13.075 5.778-3.9156 3.7183-6.2376 7.6597-1.3804 10.0176 3.7742 1.8322 10.3082 1.5121 14.2864 1.0248-2.3281-1.6468-6.5142-4.86-5.2069-5.8289 0 0 6.359 6.4625 12.2186 3.8154 7.323-3.3082-1.3355-13.2231-6.8427-14.8069z"/><path d="m61.9533 31.7424c-.6855-11.4273-12.0138-20.5182-21.5815-20.5184-.0004 0-.0008-.0001-.0008-.0001-2.9656.0002-6.0952.8458-9.1868 3.054-10.5806 7.5576-10.5834 9.6129-17.7628 10.2493-5.3069.4704-9.9695 1.7803-10.8808 7.0169-.5622 3.2306-.921 7.5223.3848 11.9119 1.7266 5.8041 22.5598 7.3658 29.18 7.3658h.0048c6.1761-.0005 25.0605-.8424 27.8036-6.5366 1.8721-3.8855 2.2343-9.2957 2.0395-12.5428zm-4.2023 1.7127c-.9189 2.8252-3.0723 4.708-11.3564 5.9707-6.4443.9819-13.0332 1.0342-14.2891 1.0347-2.4541 0-8.6478-.0947-14.7699-.9712-7.9043-1.207-11.4277-3.3999-11.4277-7.1104 0-2.5391 2.6641-4.0488 7.7031-4.3662 6.2646-.5552 8.4291-2.373 13.0873-5.9937 1.6689-1.2974 3.7393-2.9067 6.5195-4.8926 3.1113-2.2217 6.4121-2.897 10.0947-2.0615 5.2109 1.1812 10.1514 4.9116 12.8936 9.7363 1.7617 3.1002 2.3251 6.2545 1.5449 8.6539z"/></svg>