<svg height="64" viewBox="0 0 64 64" width="64" xmlns="http://www.w3.org/2000/svg"><path d="m0 0h64v64h-64z" fill="none"/><path d="m18.9899 24h26.0201c1.099 0 1.99-.8955 1.99-2v-1.9243c0-3.3501-2.7119-6.0757-6.0452-6.0757h-5.9548v-5.6262c0-1.7701-2.6356-4.0231-4.494-5.1188-.6706-.3954-1.506-.0731-1.506.7053v8.7651c2.1276.4642 3.9953.8737 4.134.9105.322.0854.2708.3079.2499.3641h-10.3387c-3.3333 0-6.0452 2.7256-6.0452 6.0757v1.9243c0 1.1045.891 2 1.9899 2z"/><path d="m48.0581 47.8301-1.7163-4.709c-.8398-2.3062-1.3461-4.7188-1.3461-7.1714v-9.9497h-3.9957v9.9497c0 2.9214.583 5.7949 1.584 8.541l1.7163 4.709c.6582 1.8066.4033 3.7466-.6992 5.3218s-2.8379 2.4785-4.7603 2.4785h-13.6816c-1.9224 0-3.6577-.9033-4.7603-2.4785s-1.3574-3.5151-.6992-5.3218l1.7163-4.7095c1.001-2.7456 1.584-5.6191 1.584-8.5405v-9.9497h-3.9957v9.9497c0 2.4526-.5063 4.8652-1.3461 7.1714l-1.7163 4.7095c-1.0952 3.0054-.6543 6.3638 1.1802 8.9844 1.834 2.6205 4.8388 4.185 8.0371 4.185h13.6816c3.1982 0 6.2031-1.5645 8.0371-4.1851 1.8345-2.6206 2.2754-5.979 1.1802-8.9848z"/><path d="m29 26v11.7434c-.5468-.1859-1.1422-.3312-1.8018-.3495-.6304-.0168-1.3807.1295-2.1616.3627-.084 1.1301-.2461 2.2488-.4703 3.3567 1.0131-.4184 1.9482-.7208 2.507-.7208.7911 0 1.6213.437 2.3208.8066.6729.3555 1.3086.6909 2.0132.6909.8662 0 1.5864-.5732 2.6763-1.4409.9136-.7271 2.1646-1.7231 3.0298-1.8745.521-.0907 1.2628.1946 2.0089.6245-.1441-1.1212-.2404-2.2494-.2435-3.3881-.7437-.2272-1.5191-.3246-2.2806-.1915-.546.0953-1.0803.3025-1.5981.5656v-10.1851z"/></svg>