<?xml version="1.0" encoding="utf-8"?>
<!-- Generator: Adobe Illustrator 19.1.0, SVG Export Plug-In . SVG Version: 6.00 Build 0)  -->
<svg version="1.2" baseProfile="tiny" xmlns="http://www.w3.org/2000/svg" xmlns:xlink="http://www.w3.org/1999/xlink" x="0px"
	 y="0px" width="64px" height="64px" viewBox="0 0 64 64" xml:space="preserve">
<g id="Box">
	<rect fill="none" width="64" height="64"/>
</g>
<g id="Icon">
	<g>
		<path d="M55.3668,22.2039c1.3123-0.9484,2.0925-2.4312,1.9162-4.0089c-0.3097-2.7712-3.4088-4.6006-6.5148-3.6957
			c-0.594-1.9064-2.2858-3.2581-4.2529-3.2468c-1.7114,0.0099-3.2645,1.0825-4.0067,2.6266
			c-0.3129,0.6511-0.4799,1.3843-0.4602,2.1728c-0.0032,0.0015-0.0065-0.0029-0.0096-0.0005
			c-0.1035,0.0749-0.2581-0.0084-0.3859-0.306c-0.2214-0.5153-0.3434-1.0793-0.3434-1.6703c0-1.8022,1.1382-3.3464,2.7651-4.0341
			c0.1559-2.7493-2.2108-4.8544-4.9682-4.8544c-1.106,0-2.1183,0.344-2.9456,0.9078c-0.9009-1.3008-2.4911-2.1735-4.3177-2.1735
			c-2.8034,0-5.0746,2.0395-5.0967,4.5618c-3.0406-0.2963-5.3832,1.996-5.3832,4.6172c0,1.0439,0.3923,2.0303,1.0018,2.8054
			c-0.062,0.2023-0.3511,0.1761-0.5735,0.0137c-1.174-0.8578-1.9323-2.2162-1.9323-3.7452c0-1.0226,0.3456-1.9622,0.9236-2.7302
			c-0.652-0.3165-1.3906-0.5022-2.1827-0.5022c-2.248,0-4.1207,1.4297-4.6093,3.3436c-0.7495-0.5108-1.6564-0.8141-2.6379-0.8141
			c-2.5609,0-4.6368,2.0379-4.6368,4.5518c0,1.0632,0.3867,2.0284,1.009,2.8032C6.1147,19.5555,5,21.0814,5,22.8632
			c0,2.4585,2.1337,4.5467,4.9263,4.4929c-0.5232,2.5024,1.2396,4.8193,3.6908,5.0515c0.272-2.2635,2.2593-4.1955,5.0394-4.1078
			c0.2552,0.0081,0.4092,0.1341,0.3912,0.3178c-2.3558,0.8832-3.6422,2.9857-3.4293,5.0121
			c0.2784,2.6509,2.9494,4.543,5.9658,4.2262c0.6132-0.0644,1.1908-0.2189,1.7238-0.4405c1.054,2.1857,3.3223,3.5722,5.9586,3.5722
			c2.7158,0,5.0464-1.6063,6.0555-3.899c0.645,0.3306,1.3712,0.5552,2.1528,0.6373c6.1883,0.65,8.4555-6.8888,2.5364-9.1083
			c-0.0181-0.1837,0.136-0.3098,0.3912-0.3178c2.9659-0.0936,5.0873,2.124,5.0873,4.6413c0,0.7051-0.1721,1.3679-0.4672,1.9642
			c2.8693,1.0079,5.9048-0.6273,6.5677-3.2968c3.4077,0.6232,6.5171-1.8145,6.5171-4.9942
			C58.1074,24.7269,57.0031,23.0831,55.3668,22.2039z M17.4553,24.9412c-2.4474,0-4.4314-1.7776-4.4314-3.9706
			c0-2.1929,1.984-3.9706,4.4314-3.9706c2.4473,0,4.4313,1.7777,4.4313,3.9706C21.8867,23.1635,19.9026,24.9412,17.4553,24.9412z
			 M29.9149,34.775c-2.9113,0.2716-5.4517-1.4431-5.6743-3.8297s1.9569-4.5415,4.8682-4.813
			c2.9112-0.2715,5.4517,1.4431,5.6743,3.8297C35.0057,32.3486,32.8261,34.5035,29.9149,34.775z M32.9833,19
			c-2.6694,0-4.8333-1.7698-4.8333-3.9529s2.1639-3.9529,4.8333-3.9529s4.8333,1.7698,4.8333,3.9529S35.6527,19,32.9833,19z
			 M46.4684,26.7262c-2.4151,0.1091-4.451-1.5312-4.5473-3.6636c-0.0963-2.1324,1.7835-3.9495,4.1986-4.0586
			c2.4152-0.1091,4.451,1.5312,4.5474,3.6636C50.7634,24.8,48.8836,26.6172,46.4684,26.7262z"/>
		<path d="M37.9523,39.951c-0.5759-0.0126-0.9459-0.0384-1.6815-0.2043c-2.4095,3.1281-6.5726,4.2114-10.146,2.8607
			c0.4026,6.6437-2.253,11.4009-3.3425,14.0405l3.1445,1.2939c0.5331-1.3015,1.6541-3.4622,2.5034-6.2426
			c-0.3287,5.3463-0.7532,8.8489-0.7602,8.9018l3.375,0.417c0.0067-0.0566,0.4855-3.9838,0.827-9.9017
			c0.7114,4.9327,1.4519,8.6996,1.4631,8.7586l3.3359-0.6611c-0.0127-0.0616-0.8475-4.3044-1.5861-9.6506
			c0.8127,3.0651,1.9742,5.7437,2.5803,7.3718l3.1855-1.1904C39.5919,52.3911,36.542,45.6395,37.9523,39.951z"/>
	</g>
</g>
</svg>
