<?xml version="1.0" encoding="utf-8"?>
<!-- Generator: Adobe Illustrator 19.1.0, SVG Export Plug-In . SVG Version: 6.00 Build 0)  -->
<svg version="1.2" baseProfile="tiny" xmlns="http://www.w3.org/2000/svg" xmlns:xlink="http://www.w3.org/1999/xlink" x="0px"
	 y="0px" width="64px" height="64px" viewBox="0 0 64 64" xml:space="preserve">
<g id="_x36_4px_Box">
	<rect fill="none" width="64" height="64"/>
</g>
<g id="Icon">
	<path d="M54.8624,19.8982c0-3.874-2.4772-7.1709-5.9554-8.467c0.021-0.2712,0.0375-0.5436,0.0335-0.8203
		c-0.0762-5.341-4.4588-9.6032-10.2945-9.52c-2.462,0.0352-4.7106,0.8447-6.4885,2.1624C30.5355,1.8545,28.416,1,26.089,1
		c-5.4421,0-10.6158,4.6469-9.9689,10.1174c-4.0861,1.3318-7.0369,5.1125-7.0369,9.5767c0,3.1962,2.3352,6.0403,4.6932,7.8898
		c-1.6553,1.7866-2.6732,4.1542-2.6732,6.7614c0,7.4061,8.1282,11.3937,14.6051,8.6965c0.4833-1.9405,0.9066-4.7275,0.9946-5.0017
		c0.0931-0.2902,0.2684-0.2753,0.3415-0.2548c0.6458,7.361-0.617,16.9783-2.03,24.2148h13.8795
		c-0.5686-4.9579-1.6745-15.7095-1.9974-20.6617c1.6107,0.9839,3.6449,1.5618,5.6807,1.5618c5.8133,0,10.356-4.3335,10.356-10.0491
		c0-2.3624-0.814-4.5327-2.1691-6.2746C53.3663,25.9747,54.8624,23.1392,54.8624,19.8982z M36.9976,17.7976
		c1.215,0,2.2,0.9849,2.2,2.2c0,1.215-0.9849,2.2-2.2,2.2c-1.2151,0-2.2-0.985-2.2-2.2
		C34.7976,18.7825,35.7825,17.7976,36.9976,17.7976z M26.9976,17.7976c1.215,0,2.2,0.9849,2.2,2.2c0,1.215-0.9849,2.2-2.2,2.2
		c-1.2151,0-2.2-0.985-2.2-2.2C24.7976,18.7825,25.7825,17.7976,26.9976,17.7976z M39.4902,27.1312
		c-1.1899,2.4675-4.1069,4.9788-7.5174,4.9788c-3.4106,0-6.3276-2.5114-7.5175-4.9789c-0.1393-0.2891,0.196-0.584,0.4619-0.4045
		c1.8044,1.2183,4.2987,2.2081,7.0556,2.2081s5.2512-0.9898,7.0555-2.208C39.2943,26.5473,39.6296,26.8422,39.4902,27.1312z"/>
</g>
</svg>
