<?xml version="1.0" encoding="utf-8"?>
<!-- Generator: Adobe Illustrator 17.1.0, SVG Export Plug-In . SVG Version: 6.00 Build 0)  -->
<svg version="1.2" baseProfile="tiny" xmlns="http://www.w3.org/2000/svg" xmlns:xlink="http://www.w3.org/1999/xlink" x="0px"
	 y="0px" width="64px" height="64px" viewBox="0 0 64 64" xml:space="preserve">
<g id="Box">
	<rect fill="none" width="64" height="64"/>
</g>
<g id="Icon">
	<g>
		<path d="M13.9357,39.9875C12.3364,40.4562,8.0096,41.3928,2.1983,40c0,0-0.884,9.8203,3.0825,15.3608l15.5182-8.1178
			C17.1021,44.7274,15.0598,42.0372,13.9357,39.9875z"/>
		<path d="M34.0176,50.6504l11.9441-11.5508c-4.7632,1.5085-8.834,2.3799-12.8652,2.6476c-0.0001-0.0037,0-0.0067-0.0001-0.0104
			c0.0291-5.8391-1.4248-11.3793-3.673-16.6658c-2.005-4.8273-5.7059-11.1054-0.8767-13.5718
			c3.2961-1.8843,9.8492,0.3907,12.3079,9.309c-0.0647,0.0943-0.222,0.2515-0.4122,0.041
			c-0.9241-1.0233-2.5595-3.7984-5.5859-5.8835c-6.3315,9.0069,4.7649,17.4663,14.7432,16.9028
			c0.7209-0.0407,1.1556-0.8143,0.8342-1.4609c-4.2647-8.5792,1.0984-11.1129-3.8402-16.2991
			c-1.4421-1.5144-4.1325-2.3188-6.7072-1.9971C35.7012,6.3895,28.8823,5.9027,25.081,9.1331
			c-5.5411,4.7606-2.2741,11.3214,0.3596,17.6003c2.3394,5.4598,3.4434,10.761,3.5413,14.9822
			c0.0018,0.0306,0.0026,0.0591,0.0043,0.0895c-3.9078-0.1329-7.9796-0.8033-12.7941-2.0004
			C18.3323,43.1444,23.2001,48.0235,34.0176,50.6504z"/>
		<path d="M48.2231,39.6949l-4.9304,4.7679c1.4526,1.4263,7.0916,6.3289,17.6679,8.5635l0.9286-12.9013
			C56.9434,41.5551,51.9996,41.0548,48.2231,39.6949z"/>
		<path d="M22.7668,48.4705l-11.976,6.2648c2.1306,1.7076,9.3812,6.4173,24.3859,6.3907l-1.8678-8.597
			C28.9487,51.4496,25.4925,50.027,22.7668,48.4705z"/>
		<path d="M49.9268,51.4329l-0.1865-0.1401c-4.356-2.1744-6.9145-4.4592-7.889-5.436l-6.5653,6.3489l1.4583,6.7123
			c2.7692-0.1468,13.0532-0.9222,21.1613-4.5635c-3.0317-0.8141-5.6123-1.8191-7.7682-2.865L49.9268,51.4329z"/>
	</g>
</g>
</svg>
