<?xml version="1.0" encoding="utf-8"?>
<!-- Generator: Adobe Illustrator 19.1.0, SVG Export Plug-In . SVG Version: 6.00 Build 0)  -->
<svg version="1.2" baseProfile="tiny" xmlns="http://www.w3.org/2000/svg" xmlns:xlink="http://www.w3.org/1999/xlink" x="0px"
	 y="0px" width="64px" height="64px" viewBox="0 0 64 64" xml:space="preserve">
<g id="Box">
	<rect fill="none" width="64" height="64"/>
</g>
<g id="Icon">
	<g>
		<path d="M12.3027,31.252C16.8097,33.1317,20,30.876,20,30.876s-0.3149-5.7865-5.0751-7.2902
			c-3.368-1.064-6.0206-0.441-7.2841,0.0144c-0.4789,0.1725-0.7459,0.6824-0.6017,1.1731
			C7.5065,26.3649,8.886,29.827,12.3027,31.252z"/>
		<path d="M39,38H11c-0.5523,0-1,0.4477-1,1v3c0,0.5522,0.4477,1,1,1h1.4482l3.1614,18.1714C15.6929,61.6503,16.1086,62,16.5948,62
			h16.8104c0.4861,0,0.9019-0.3497,0.9852-0.8286L37.5518,43H39c0.5523,0,1-0.4478,1-1v-3C40,38.4477,39.5523,38,39,38z"/>
		<path d="M28.3447,12.962c0.2961-0.2474,0.4708-0.1625,0.5469-0.0978C24.597,19.7653,21.7699,27.7344,22.1837,36h4.2938
			c-0.5895-4.2875-0.3006-8.4907,0.7119-12.2164c9.426,1.0221,15.7916-11.9625,11.1957-22.1992
			c-0.3043-0.6777-1.2278-0.7886-1.6984-0.2137c-7.9283,9.6857-13.6627,4.7379-17.0053,12.0009
			c-1.2411,2.697-0.5916,6.1821,1.8977,8.3192C23.7194,17.6624,26.3909,14.5944,28.3447,12.962z"/>
		<path d="M58.7775,52.2549l-8.5604-11.6379c-0.2841-0.3882-0.7368-0.6172-1.218-0.6158l-5.3231,0.0152
			c-0.2165,0.0007-0.4203,0.071-0.587,0.1924c-0.1655,0.123-0.2933,0.2966-0.3584,0.5031l-1.5998,5.077
			c-0.1446,0.4589-0.0609,0.9593,0.2252,1.3461l8.5604,11.6379c0.3292,0.4451,0.9864,0.5175,1.4315,0.1884l7.1831-5.2836
			C58.9778,53.3507,59.1044,52.7018,58.7775,52.2549z M46.8978,45.217c-0.6778,0.4894-1.6211,0.3492-2.1156-0.3193
			c-0.496-0.6707-0.3517-1.618,0.3203-2.1215c0.6807-0.4915,1.6279-0.3471,2.1205,0.3261
			C47.7139,43.7735,47.5668,44.7158,46.8978,45.217z"/>
	</g>
</g>
</svg>
