<?xml version="1.0" encoding="utf-8"?>
<!-- Generator: Adobe Illustrator 17.1.0, SVG Export Plug-In . SVG Version: 6.00 Build 0)  -->
<svg version="1.2" baseProfile="tiny" xmlns="http://www.w3.org/2000/svg" xmlns:xlink="http://www.w3.org/1999/xlink" x="0px"
	 y="0px" width="64px" height="64px" viewBox="0 0 64 64" xml:space="preserve">
<g id="Box">
	<rect fill="none" width="64" height="64"/>
</g>
<g id="Icon">
	<g>
		<path d="M56.043,14.09c-1.8911,0-4.1094-1.3379-4.7998-1.8496L50.043,11.34l-1.2002,0.9004
			c-0.6396,0.4795-2.895,1.8496-4.7998,1.8496c-1.8911,0-4.1094-1.3379-4.7998-1.8496L38.043,11.34l-1.2002,0.9004
			c-0.6396,0.4795-2.895,1.8496-4.7998,1.8496c-1.8911,0-4.1094-1.3379-4.7998-1.8496L26.043,11.34l-1.2002,0.9004
			c-0.6396,0.4795-2.895,1.8496-4.7998,1.8496c-1.8911,0-4.1094-1.3379-4.7998-1.8496L14.043,11.34l-1.2002,0.9004
			C12.2031,12.7199,9.9478,14.09,8.043,14.09c-1.0183,0-2.1245-0.3893-3.043-0.8273v4.2183C5.9426,17.7856,6.9789,18,8.043,18
			c2.397,0,4.6631-1.0762,6-1.8633c1.3369,0.7871,3.603,1.8633,6,1.8633s4.6631-1.0762,6-1.8633
			c1.3369,0.7871,3.603,1.8633,6,1.8633s4.6631-1.0762,6-1.8633c1.3369,0.7871,3.603,1.8633,6,1.8633s4.6631-1.0762,6-1.8633
			c1.3369,0.7871,3.603,1.8633,6,1.8633c1.0322,0,2.0371-0.2025,2.957-0.4926v-4.203C58.1001,13.7239,57.0267,14.09,56.043,14.09z"
			/>
		<path d="M20.043,36c0.5814,0,1.1543-0.0654,1.709-0.1726c-0.1913-0.7432-0.0066-1.5422,0.5508-2.0999
			c0.6631-0.6641,1.6768-0.834,2.5225-0.4204c0.0786,0.0385,0.9917,0.4924,2.3152,1.3345c-0.5103-0.9003-0.7794-1.497-0.8064-1.5581
			c-0.3691-0.832-0.1885-1.8052,0.4551-2.4487c0.1484-0.1489,0.3181-0.2669,0.4962-0.3652
			c-0.0118-0.0087-0.031-0.0209-0.0421-0.0292L26.043,29.34l-1.2002,0.9004c-0.6396,0.4795-2.895,1.8496-4.7998,1.8496
			c-1.8911,0-4.1094-1.3379-4.7998-1.8496L14.043,29.34l-1.2002,0.9004C12.2031,30.7199,9.9478,32.09,8.043,32.09
			c-1.0183,0-2.1245-0.3893-3.043-0.8273v4.2183C5.9426,35.7856,6.9789,36,8.043,36c2.397,0,4.6631-1.0762,6-1.8633
			C15.3799,34.9238,17.646,36,20.043,36z"/>
		<path d="M51.2432,30.2404L50.043,29.34l-1.2002,0.9004c-0.2451,0.1837-0.7295,0.4979-1.3381,0.8159
			c0.7239,0.2335,1.4851,0.4394,2.2844,0.597c0.7627,0.1504,1.3887,0.6914,1.6484,1.4243c0.2035,0.5759,0.1479,1.1988-0.1235,1.7305
			C52.6143,35.4247,54.2915,36,56.043,36c1.0322,0,2.0371-0.2025,2.957-0.4926v-4.203c-0.8999,0.4195-1.9733,0.7856-2.957,0.7856
			C54.1519,32.09,51.9336,30.7521,51.2432,30.2404z"/>
		<path d="M51.2432,21.2404L50.043,20.34l-1.2002,0.9004c-0.6396,0.4795-2.895,1.8496-4.7998,1.8496
			c-1.561,0-3.3315-0.9068-4.2952-1.5128c0.0042,0.0183,0.0142,0.0342,0.0178,0.0527c0.3711,1.8801,0.9967,3.5669,1.666,4.9843
			C42.2551,26.8468,43.1396,27,44.043,27c2.397,0,4.6631-1.0762,6-1.8633c1.3369,0.7871,3.603,1.8633,6,1.8633
			c1.0322,0,2.0371-0.2025,2.957-0.4926v-4.203c-0.8999,0.4195-1.9733,0.7856-2.957,0.7856
			C54.1519,23.09,51.9336,21.7521,51.2432,21.2404z"/>
		<path d="M14.043,25.1367c1.3369,0.7871,3.603,1.8633,6,1.8633s4.6631-1.0762,6-1.8633c1.3369,0.7871,3.603,1.8633,6,1.8633
			c0.2755,0,0.5486-0.0176,0.8195-0.0439c0.2288-1.7451,0.8098-3.2244,1.5074-4.3831C33.621,22.8672,32.8057,23.09,32.043,23.09
			c-1.8911,0-4.1094-1.3379-4.7998-1.8496L26.043,20.34l-1.2002,0.9004c-0.6396,0.4795-2.895,1.8496-4.7998,1.8496
			c-1.8911,0-4.1094-1.3379-4.7998-1.8496L14.043,20.34l-1.2002,0.9004C12.2031,21.7199,9.9478,23.09,8.043,23.09
			c-1.0183,0-2.1245-0.3893-3.043-0.8273v4.2183C5.9426,26.7856,6.9789,27,8.043,27C10.4399,27,12.7061,25.9238,14.043,25.1367z"/>
		<path d="M37.6075,22.0558c0,0-4.6207,3.8692-1.7054,11.0573l-2.4055,2.4055c-2.6594-2.2178-5.1516-3.3284-5.1516-3.3284
			s1.1107,2.4921,3.3286,5.1514l-1.9531,1.9531c-3.0317-2.6233-5.8624-4.0115-5.8624-4.0115s1.3881,2.8308,4.0114,5.8625
			l-1.9265,1.9265c-3.4526-3.0773-6.6589-4.7831-6.6589-4.7831s1.7057,3.2064,4.783,6.6591l-2.8489,2.8489
			c-3.1953-3.4001-5.2622-6.2427-5.2622-6.2427c-6.0842,10.1138-0.3966,18.1461-0.3966,18.1461
			c9.1047,1.1762,15.2928-3.808,15.2928-3.808s-3.9012-2.5625-7.2385-5.6829l2.8362-2.8362c3.6392,3.3672,7.1665,5.248,7.1665,5.248
			s-1.8809-3.5274-5.248-7.1666l1.8767-1.8766c3.2181,2.9189,6.3772,4.469,6.3772,4.469s-1.55-3.1591-4.469-6.3773l1.8876-1.8876
			c2.8461,2.5181,5.6744,3.7778,5.6744,3.7778s-1.2595-2.8283-3.7777-5.6745l2.3687-2.3687
			c7.1881,2.9152,11.0573-1.7055,11.0573-1.7055c-3.5681-0.7039-6.4895-2.2169-8.3562-3.3996
			C39.8245,28.5453,38.3115,25.624,37.6075,22.0558z M20.4795,52.25h-1.2246v1.2246c0,0.4141-0.3359,0.75-0.75,0.75
			s-0.75-0.3359-0.75-0.75V52.25h-1.2246c-0.4141,0-0.75-0.3359-0.75-0.75s0.3359-0.75,0.75-0.75h1.2246v-1.2246
			c0-0.4141,0.3359-0.75,0.75-0.75s0.75,0.3359,0.75,0.75V50.75h1.2246c0.4141,0,0.75,0.3359,0.75,0.75S20.8936,52.25,20.4795,52.25
			z"/>
	</g>
</g>
</svg>
