<svg height="64" viewBox="0 0 64 64" width="64" xmlns="http://www.w3.org/2000/svg"><path d="m0 0h64v64h-64z" fill="none"/><path d="m61.8323 12.4116c-2.481-1.1119-9.0376-3.4116-20.8323-3.4116-.4392 0-.8565.0093-1.2812.0156-.7985 1.4333-1.0167 2.9763-.9086 4.0234.0795.7704-.2646 1.5215-.9182 1.937-2.5039 1.5914-2.5879 2.8989-2.4676 4.6183.0851 1.2166-.6298 2.3501-1.7678 2.7888-1.9787.7628-2.562 1.0794-5.4769 5.9841-.4427.7449-1.3144 1.1343-2.1635.9609-1.0328-.211-1.7966-.2264-3.1202 1.4501-.3892.493-.9647.8295-1.5928.8212-.5695-.0075-1.384.2809-2.3031.7634v10.822c0 3.3937 1.4445 6.6252 3.9529 8.911 6.6667 6.0748 14.1705 9.3929 16.9422 10.4897.7131.2822 1.4967.2822 2.2098 0 2.7717-1.0968 10.2755-4.4149 16.9422-10.4897 2.5083-2.2858 3.9528-5.5174 3.9528-8.911v-28.9538c0-.7843-.452-1.4986-1.1677-1.8194zm-11.6411 25.1883-11.5593 6.8085c-3.1783 1.8723-7.3147.7751-9.1912-2.4387-1.8763-3.2136-.8107-7.3749 2.368-9.2473l11.5593-6.8084c3.1784-1.8723 7.3147-.7752 9.1912 2.4387 1.8764 3.2137.8108 7.375-2.368 9.2472z"/><path d="m44.7327 28.2512-5.6613 3.3346c.8473-.1716 2.281 1.0322 3.3605 2.881.9005 1.5422 1.2905 3.0813 1.0692 3.9327l5.3256-3.1368c1.9036-1.1212 2.5448-3.6234 1.4209-5.5483-1.1118-1.9037-3.589-2.5975-5.5149-1.4632z"/><circle cx="13" cy="21" r="2"/><circle cx="13" cy="12" r="2"/><circle cx="30" cy="17" r="2"/><circle cx="20" cy="18" r="2"/><circle cx="3" cy="3" r="2"/><circle cx="34" cy="11" r="2"/><circle cx="22" cy="3" r="2"/><circle cx="31" cy="4" r="2"/><circle cx="18" cy="27" r="2"/><circle cx="3" cy="23" r="2"/><circle cx="12" cy="35" r="2"/><path d="m12.5796 28.9102c.3999-.7251.1367-1.6377-.5889-2.0381-.2144-.1182-2.1606-1.1387-4.1406-.3188-1.8594.7681-2.8262 2.7617-2.9302 2.9863-.3481.752-.0205 1.6436.731 1.9917.2041.0942.4185.1392.6294.1392.5664 0 1.1084-.3228 1.3623-.8701.104-.2246.6714-1.1929 1.353-1.4746.5576-.229 1.3149.0518 1.5459.1733.7241.3993 1.6372.1362 2.0381-.5889z"/><path d="m27.2998 22.583c.812-.165 1.3364-.957 1.1719-1.7686-.165-.8115-.9541-1.332-1.7686-1.1719-.2412.0493-2.3823.5332-3.3618 2.4395-.9189 1.79-.3638 3.9346-.2974 4.1733.1846.6636.7876 1.0986 1.4443 1.0986.1333 0 .2686-.0181.4028-.0552.7983-.2222 1.2651-1.0488 1.0435-1.8472-.0664-.2383-.2612-1.3433.0752-1.999.2764-.5375 1.0357-.8124 1.2901-.8695z"/><path d="m22.8228 9.7954c-.7314-.3916-1.6401-.1143-2.0298.6157-.3906.7305-.1147 1.6396.6157 2.0298.1533.082 1.1753.6011 2.4565.6011.5327 0 1.1099-.0898 1.688-.3379 1.8496-.793 2.7886-2.7998 2.8896-3.0264.3379-.7563-.0015-1.6431-.7583-1.981-.7559-.3389-1.6436.002-1.981.7583-.1011.2256-.6553 1.2012-1.333 1.4922-.5556.2379-1.3148-.0341-1.5477-.1518z"/><path d="m11.2939 3.0952c-1.997.2456-3.4589 1.9102-3.6191 2.0991-.5332.6299-.4551 1.5684.1714 2.1055.2817.2412.6284.3594.9731.3594.4219 0 .8418-.1763 1.1392-.519.2158-.2495.9922-.98 1.7017-1.0674.6069-.0713 1.2539.3999 1.4443.5781.5928.5786 1.5425.5688 2.1211-.0254.5786-.5928.5674-1.5425-.0254-2.1211-.1758-.1719-1.7749-1.6753-3.9063-1.4092z"/><path d="m3.4053 11.1479c-.8267.0498-1.4565.7603-1.4067 1.5874.0146.2451.1948 2.4331 1.9453 3.6689 1.105.7798 2.4614.9224 3.3066.9224.4126 0 .7036-.0342.7842-.0444.8179-.1079 1.3911-.8555 1.2881-1.6738-.103-.8193-.8521-1.4033-1.6714-1.3018-.3271.0386-1.3936.0591-1.9775-.3535-.4937-.3481-.6597-1.1382-.6812-1.3984-.0498-.8267-.7559-1.4688-1.5874-1.4068z"/></svg>