<?xml version="1.0" encoding="utf-8"?>
<!-- Generator: Adobe Illustrator 19.1.0, SVG Export Plug-In . SVG Version: 6.00 Build 0)  -->
<svg version="1.2" baseProfile="tiny" xmlns="http://www.w3.org/2000/svg" xmlns:xlink="http://www.w3.org/1999/xlink" x="0px"
	 y="0px" width="64px" height="64px" viewBox="0 0 64 64" xml:space="preserve">
<g id="Box">
	<rect fill="none" width="64" height="64"/>
</g>
<g id="Icon">
	<g>
		<path d="M61.8323,12.4116C59.3513,11.2997,52.7947,9,41,9c-0.4392,0-0.8565,0.0093-1.2812,0.0156
			c-0.7985,1.4333-1.0167,2.9763-0.9086,4.0234c0.0795,0.7704-0.2646,1.5215-0.9182,1.937
			c-2.5039,1.5914-2.5879,2.8989-2.4676,4.6183c0.0851,1.2166-0.6298,2.3501-1.7678,2.7888
			c-1.9787,0.7628-2.562,1.0794-5.4769,5.9841c-0.4427,0.7449-1.3144,1.1343-2.1635,0.9609
			c-1.0328-0.211-1.7966-0.2264-3.1202,1.4501c-0.3892,0.493-0.9647,0.8295-1.5928,0.8212
			c-0.5695-0.0075-1.384,0.2809-2.3031,0.7634v10.822c0,3.3937,1.4445,6.6252,3.9529,8.911
			c6.6667,6.0748,14.1705,9.3929,16.9422,10.4897c0.7131,0.2822,1.4967,0.2822,2.2098,0
			c2.7717-1.0968,10.2755-4.4149,16.9422-10.4897C61.5555,49.81,63,46.5784,63,43.1848V14.231
			C63,13.4467,62.548,12.7324,61.8323,12.4116z M50.1912,37.5999l-11.5593,6.8085c-3.1783,1.8723-7.3147,0.7751-9.1912-2.4387
			c-1.8763-3.2136-0.8107-7.3749,2.368-9.2473l11.5593-6.8084c3.1784-1.8723,7.3147-0.7752,9.1912,2.4387
			C54.4356,31.5664,53.37,35.7277,50.1912,37.5999z"/>
		<path d="M44.7327,28.2512l-5.6613,3.3346c0.8473-0.1716,2.281,1.0322,3.3605,2.881c0.9005,1.5422,1.2905,3.0813,1.0692,3.9327
			l5.3256-3.1368c1.9036-1.1212,2.5448-3.6234,1.4209-5.5483C49.1358,27.8107,46.6586,27.1169,44.7327,28.2512z"/>
		<circle cx="13" cy="21" r="2"/>
		<circle cx="13" cy="12" r="2"/>
		<circle cx="30" cy="17" r="2"/>
		<circle cx="20" cy="18" r="2"/>
		<circle cx="3" cy="3" r="2"/>
		<circle cx="34" cy="11" r="2"/>
		<circle cx="22" cy="3" r="2"/>
		<circle cx="31" cy="4" r="2"/>
		<circle cx="18" cy="27" r="2"/>
		<circle cx="3" cy="23" r="2"/>
		<circle cx="12" cy="35" r="2"/>
		<path d="M12.5796,28.9102c0.3999-0.7251,0.1367-1.6377-0.5889-2.0381c-0.2144-0.1182-2.1606-1.1387-4.1406-0.3188
			c-1.8594,0.7681-2.8262,2.7617-2.9302,2.9863c-0.3481,0.752-0.0205,1.6436,0.731,1.9917
			c0.2041,0.0942,0.4185,0.1392,0.6294,0.1392c0.5664,0,1.1084-0.3228,1.3623-0.8701c0.104-0.2246,0.6714-1.1929,1.353-1.4746
			c0.5576-0.229,1.3149,0.0518,1.5459,0.1733C11.2656,29.8984,12.1787,29.6353,12.5796,28.9102z"/>
		<path d="M27.2998,22.583c0.812-0.165,1.3364-0.957,1.1719-1.7686c-0.165-0.8115-0.9541-1.332-1.7686-1.1719
			c-0.2412,0.0493-2.3823,0.5332-3.3618,2.4395c-0.9189,1.79-0.3638,3.9346-0.2974,4.1733
			c0.1846,0.6636,0.7876,1.0986,1.4443,1.0986c0.1333,0,0.2686-0.0181,0.4028-0.0552c0.7983-0.2222,1.2651-1.0488,1.0435-1.8472
			c-0.0664-0.2383-0.2612-1.3433,0.0752-1.999C26.2861,22.915,27.0454,22.6401,27.2998,22.583z"/>
		<path d="M22.8228,9.7954c-0.7314-0.3916-1.6401-0.1143-2.0298,0.6157c-0.3906,0.7305-0.1147,1.6396,0.6157,2.0298
			c0.1533,0.082,1.1753,0.6011,2.4565,0.6011c0.5327,0,1.1099-0.0898,1.688-0.3379c1.8496-0.793,2.7886-2.7998,2.8896-3.0264
			c0.3379-0.7563-0.0015-1.6431-0.7583-1.981c-0.7559-0.3389-1.6436,0.002-1.981,0.7583c-0.1011,0.2256-0.6553,1.2012-1.333,1.4922
			C23.8149,10.1851,23.0557,9.9131,22.8228,9.7954z"/>
		<path d="M11.2939,3.0952C9.2969,3.3408,7.835,5.0054,7.6748,5.1943C7.1416,5.8242,7.2197,6.7627,7.8462,7.2998
			C8.1279,7.541,8.4746,7.6592,8.8193,7.6592c0.4219,0,0.8418-0.1763,1.1392-0.519c0.2158-0.2495,0.9922-0.98,1.7017-1.0674
			c0.6069-0.0713,1.2539,0.3999,1.4443,0.5781c0.5928,0.5786,1.5425,0.5688,2.1211-0.0254
			c0.5786-0.5928,0.5674-1.5425-0.0254-2.1211C15.0244,4.3325,13.4253,2.8291,11.2939,3.0952z"/>
		<path d="M3.4053,11.1479c-0.8267,0.0498-1.4565,0.7603-1.4067,1.5874c0.0146,0.2451,0.1948,2.4331,1.9453,3.6689
			c1.105,0.7798,2.4614,0.9224,3.3066,0.9224c0.4126,0,0.7036-0.0342,0.7842-0.0444c0.8179-0.1079,1.3911-0.8555,1.2881-1.6738
			c-0.103-0.8193-0.8521-1.4033-1.6714-1.3018c-0.3271,0.0386-1.3936,0.0591-1.9775-0.3535
			c-0.4937-0.3481-0.6597-1.1382-0.6812-1.3984C4.9429,11.728,4.2368,11.0859,3.4053,11.1479z"/>
	</g>
</g>
</svg>
