<?xml version="1.0" encoding="utf-8"?>
<!-- Generator: Adobe Illustrator 21.0.2, SVG Export Plug-In . SVG Version: 6.00 Build 0)  -->
<!DOCTYPE svg PUBLIC "-//W3C//DTD SVG 1.1//EN" "http://www.w3.org/Graphics/SVG/1.1/DTD/svg11.dtd">
<svg version="1.1" xmlns="http://www.w3.org/2000/svg" xmlns:xlink="http://www.w3.org/1999/xlink" x="0px" y="0px" width="64px"
	 height="64px" viewBox="0 0 64 64" style="enable-background:new 0 0 64 64;" xml:space="preserve">
<style type="text/css">
	.st0{fill:none;}
</style>
<g id="_x36_4px_Box">
	<rect class="st0" width="64" height="64"/>
</g>
<g id="Icon">
	<g>
		<g>
			<path d="M45.5,18.9l1.8-2.5c0.3-0.5,0.3-1.1-0.1-1.5c-0.4-0.4-1.1-0.5-1.5-0.1l-2.5,1.8c-0.9,0.6-1,1.8-0.2,2.6
				C43.6,19.9,44.8,19.8,45.5,18.9z M30,29V7c0-3.3-5.8-6-13-6S4,3.7,4,7v22c0,3.3,5.8,6,13,6S30,32.3,30,29z M7,7
				c0.2-0.8,3.9-3,10-3s9.8,2.1,10,3c-0.2,0.6-2.3,2-5.9,2.6c2.9,9.9-1.5,18.3-1.8,18.7c-0.3,0.4-0.5,0.3-0.5,0.3
				c2.8-9.2,0-16.2-1.2-18.6c-0.2,0-0.4,0-0.6,0C10.9,10,7.2,7.9,7,7z M59.3,39.5c-0.8-0.7-2.1-0.6-2.8,0.2l-1.7,2
				c-2.8-1.1-6.4,0-8.9,2.9c-2.5,2.9-3,6.7-1.5,9.2l-0.1,0.1c-2.7,3.2-6.7,5.1-11,5.1C25.5,59,19,52.5,19,44.6v-7.5
				c-0.7,0-1.3,0.1-2,0.1s-1.3,0-2-0.1v7.5C15,54.7,23.3,63,33.4,63c5.4,0,10.5-2.4,14-6.5l0.1-0.2c2.7,0.9,6.2-0.3,8.6-3.1
				c2.4-2.8,2.9-6.4,1.6-8.9l1.7-2C60.2,41.5,60.1,40.2,59.3,39.5z M26,45v-9.3c-1.2,0.5-2.5,0.8-4,1.1V45c0,4.4,3.6,8,8,8
				s8-3.6,8-8v-8.9c0-2.3,0.6-4.6,1.8-6.6l1.1-2c1,0.3,2,0.5,3.1,0.5c5.5,0,10-4.5,10-10S49.5,8,44,8s-10,4.5-10,10
				c0,3,1.3,5.7,3.4,7.5l-1.1,2c-1.5,2.6-2.3,5.6-2.3,8.6V45c0,2.2-1.8,4-4,4S26,47.2,26,45z M44,12c3.3,0,6,2.7,6,6s-2.7,6-6,6
				s-6-2.7-6-6S40.7,12,44,12z"/>
		</g>
	</g>
</g>
</svg>
