<svg enable-background="new 0 0 64 64" height="64" viewBox="0 0 64 64" width="64" xmlns="http://www.w3.org/2000/svg"><path d="m0 0h64v64h-64z" fill="none"/><path d="m45.5 18.9 1.8-2.5c.3-.5.3-1.1-.1-1.5s-1.1-.5-1.5-.1l-2.5 1.8c-.9.6-1 1.8-.2 2.6.6.7 1.8.6 2.5-.3zm-15.5 10.1v-22c0-3.3-5.8-6-13-6s-13 2.7-13 6v22c0 3.3 5.8 6 13 6s13-2.7 13-6zm-23-22c.2-.8 3.9-3 10-3s9.8 2.1 10 3c-.2.6-2.3 2-5.9 2.6 2.9 9.9-1.5 18.3-1.8 18.7s-.5.3-.5.3c2.8-9.2 0-16.2-1.2-18.6-.2 0-.4 0-.6 0-6.1 0-9.8-2.1-10-3zm52.3 32.5c-.8-.7-2.1-.6-2.8.2l-1.7 2c-2.8-1.1-6.4 0-8.9 2.9s-3 6.7-1.5 9.2l-.1.1c-2.7 3.2-6.7 5.1-11 5.1-7.8 0-14.3-6.5-14.3-14.4v-7.5c-.7 0-1.3.1-2 .1s-1.3 0-2-.1v7.5c0 10.1 8.3 18.4 18.4 18.4 5.4 0 10.5-2.4 14-6.5l.1-.2c2.7.9 6.2-.3 8.6-3.1s2.9-6.4 1.6-8.9l1.7-2c.8-.8.7-2.1-.1-2.8zm-33.3 5.5v-9.3c-1.2.5-2.5.8-4 1.1v8.2c0 4.4 3.6 8 8 8s8-3.6 8-8v-8.9c0-2.3.6-4.6 1.8-6.6l1.1-2c1 .3 2 .5 3.1.5 5.5 0 10-4.5 10-10s-4.5-10-10-10-10 4.5-10 10c0 3 1.3 5.7 3.4 7.5l-1.1 2c-1.5 2.6-2.3 5.6-2.3 8.6v8.9c0 2.2-1.8 4-4 4s-4-1.8-4-4zm18-33c3.3 0 6 2.7 6 6s-2.7 6-6 6-6-2.7-6-6 2.7-6 6-6z"/></svg>