<?xml version="1.0" encoding="utf-8"?>
<!-- Generator: Adobe Illustrator 17.1.0, SVG Export Plug-In . SVG Version: 6.00 Build 0)  -->
<svg version="1.2" baseProfile="tiny" xmlns="http://www.w3.org/2000/svg" xmlns:xlink="http://www.w3.org/1999/xlink" x="0px"
	 y="0px" width="64px" height="64px" viewBox="0 0 64 64" xml:space="preserve">
<g id="Box">
	<rect fill="none" width="64" height="64"/>
</g>
<g id="Icon">
	<g>
		<path d="M25.3521,29.6207c0.0825-2.9961-0.7324-6.1371-2.1473-6.6207H33c2.3759,0,4.4274,1.3915,5.3987,3.3993l3.9758-0.8374
			C40.9634,21.745,37.2916,19,33,19H13C7.5,19,3,23.5,3,29s4.5,10,10,10h5.8967c0.2186-1.8419,0.8501-3.6274,1.8964-5.2321
			C21.9551,31.9858,23.5243,30.5772,25.3521,29.6207z M10.0042,34.2029c-2.1049-1.2935-3.0511-3.0779-2.9896-5.3636
			c0.0436-1.6218,0.73-3.0353,1.7937-4.0873l1.7967,2.0035c-1.5582,1.6024-1.8557,5.2873,0.049,7.4185
			C10.5781,34.4688,10.3607,34.4219,10.0042,34.2029z"/>
		<path d="M60.3583,34.2417c-1.1336-5.3823-6.465-8.8579-11.8463-7.7242l-19.5706,4.1221
			c-5.3819,1.1335-8.8578,6.4644-7.7242,11.8463c1.1336,5.3823,6.465,8.8579,11.8463,7.7242L52.634,46.088
			C58.0159,44.9545,61.4919,39.6236,60.3583,34.2417z M29.1714,46.1497c-2.332-0.8157-3.6364-2.3577-4.063-4.6041
			c-0.3027-1.5939,0.067-3.1212,0.8823-4.3755l2.1821,1.5751c-1.1813,1.8973-0.6874,5.5612,1.6273,7.238
			C29.7888,46.2872,29.5664,46.2878,29.1714,46.1497z M51.8096,42.1739l-9.0165,1.8991c0.7158-1.0892,0.8923-3.4285,0.3483-6.0112
			c-0.6521-3.0962-2.1104-5.4547-3.39-5.6114l9.585-2.0189c3.2606-0.6867,6.4362,1.4462,7.1077,4.6346
			C57.1232,38.2898,55.0325,41.4951,51.8096,42.1739z"/>
	</g>
</g>
</svg>
