<svg enable-background="new 0 0 64 64" height="64" viewBox="0 0 64 64" width="64" xmlns="http://www.w3.org/2000/svg"><path d="m0 0h64v64h-64z" fill="none"/><path d="m53.7 37.4c-.7-.6-1.8-.4-2.4.2l-10.6 11.9-6.3-5.5c-.7-.6-1.7-.6-2.3 0-.7.6-.8 1.5-.4 2.3l7.7 12.8c.3.5.9.9 1.5.9.6 0 1.2-.3 1.5-.9l11.7-19.4c.5-.8.3-1.8-.4-2.3zm-23.1 4.9c1.5-1.3 3.7-1.3 5.2 0l2 1.7 13-10.6c5.8-4.8 6.7-13.5 1.9-19.4-4.8-5.8-13.4-6.7-19.3-2l-21.2 17.4c-5.8 4.8-6.7 13.5-1.9 19.4s13.5 6.8 19.3 2.1l1.5-1.2-1.3-2.1c-1-1.8-.7-4 .8-5.3zm-8.3 6c-3.4.5-5.9-.6-7.9-3.1-1.4-1.8-1.9-3.9-1.7-5.9l3.7.6c-.2 3.1 2.7 7.3 6.6 7.9.1.2-.2.4-.7.5zm4.2-23.5 10.4-8.5c3.5-2.9 8.7-2.2 11.6 1.2 2.9 3.5 2.3 8.8-1.2 11.6l-9.8 8c.2-1.8-1.1-4.8-3.4-7.6-2.7-3.3-5.9-5.3-7.6-4.7z"/></svg>