<svg enable-background="new 0 0 64 64" height="64" viewBox="0 0 64 64" width="64" xmlns="http://www.w3.org/2000/svg"><path d="m0 0h64v64h-64z" fill="none"/><path d="m23.1 37h3c0-.4-.1-.7-.1-1.1l12-.8c0 .6 0 1.2-.1 1.9h3c.7-6.3-2.6-9.3-5.9-11.5 3.4-2.2 6.6-5.2 5.9-11.5h-3c.1.7.1 1.3.1 1.9l-11.9-.9c0-.3.1-.7.1-1.1h-3c-.7 6.3 2.5 9.3 5.9 11.5-3.4 2.3-6.6 5.3-6 11.6zm3-19.9 11.6.8c-.2.6-.4 1.1-.6 1.5l-10.4-.4c-.3-.6-.5-1.2-.6-1.9zm2.1 4 7.3.3c-1 .9-2.2 1.6-3.5 2.4-1.5-.9-2.8-1.7-3.8-2.7zm3.8 6.1c1.3.8 2.5 1.5 3.5 2.4l-7.3.3c1-1 2.3-1.8 3.8-2.7zm-5.3 4.8 10.3-.4c.3.5.5 1 .6 1.5l-11.6.8c.2-.7.4-1.3.7-1.9z"/><path d="m55 7h-46c-1.1 0-2 .9-2 2v35c0 1.1.9 2 2 2h16.5s-.5 1.9-1.5 5c-.6 1.8-2.4 2-2.9 2h-2.1c-.6 0-1 .4-1 1v2h28v-2c0-.6-.4-1-1-1h-2.1c-.5 0-2.3-.2-2.9-2-.4-1.2-.7-2.3-.9-3.1 0 0-4.4-.6-9-1.5-.3-.1-.3-.3-.2-.4h25.1c1.1 0 2-.9 2-2v-35c0-1.1-.9-2-2-2zm-3 32h-40v-27h40z"/></svg>