<svg enable-background="new 0 0 64 64" viewBox="0 0 64 64" xmlns="http://www.w3.org/2000/svg"><path d="m0 0h64v64h-64z" fill="none"/><circle cx="20" cy="25" r="2"/><circle cx="20" cy="17" r="2"/><circle cx="27" cy="22" r="2"/><circle cx="23" cy="12" r="2"/><circle cx="25" cy="31" r="2"/><path d="m33.7 23.6c-.2 0-2.4.5-3.4 2.4-.9 1.9-.3 4-.3 4.3.2.7.8 1.1 1.4 1.1.1 0 .3 0 .4-.1.8-.2 1.3-1 1-1.8-.1-.2-.3-1.3.1-2 .3-.5 1-.8 1.3-.9.8-.2 1.3-1 1.2-1.8s-.9-1.3-1.7-1.2z"/><path d="m17 23.3c.8-.1 1.4-.9 1.3-1.7s-.9-1.4-1.7-1.3c-.3 0-1.4.1-2-.4-.5-.3-.7-1.1-.7-1.4 0-.8-.8-1.5-1.6-1.4-.8 0-1.5.8-1.4 1.6 0 .2.2 2.4 1.9 3.7 1.1.8 2.5.9 3.3.9z"/><path d="m58 50.9-16.8-15.6c-2.3 2.1-4.2 2.9-4.7 3-.3.1-.4 0-.5-.1.3-.3 2.5-2.4 3.8-4.3 2-3.1 3.2-6.9 3.2-10.9 0-11-9-20-20-20s-20 9-20 20 9 20 20 20c4 0 7.8-1.2 10.9-3.3l17 18.3c1.2 1.2 3 1.3 4.3.4 1-.7 1.5-.8 3.1-3.1 1-1.4.9-3.2-.3-4.4zm-35-12.7c-8.4 0-15.2-6.8-15.2-15.2s6.8-15.2 15.2-15.2 15.2 6.8 15.2 15.2-6.8 15.2-15.2 15.2z"/><path d="m36.4 19.1c-.8.2-1.4 1-1.4 1.9 0 1.1.9 2 2 2 0-1.4-.2-2.7-.6-3.9z"/><path d="m10 25c-.3 0-.6.1-.8.2.2 1.3.6 2.6 1.2 3.8.9-.2 1.6-1 1.6-2 0-1.1-.9-2-2-2z"/><path d="m20 30.9c-.2-.1-2.2-1.1-4.1-.3-1.3.6-2.2 1.7-2.6 2.4.7.7 1.5 1.3 2.4 1.9 0 0 0 0 0-.1.1-.2.7-1.2 1.4-1.5.6-.2 1.3.1 1.5.2.7.4 1.6.1 2-.6s.1-1.6-.6-2z"/><path d="m28.4 16.4c.2.1 1.2.6 2.5.6.5 0 1.1-.1 1.7-.3.9-.4 1.5-1 2-1.6-.6-.9-1.3-1.6-2-2.3-.2.4-.7 1-1.2 1.2-.6.2-1.3 0-1.5-.2-.7-.4-1.6-.1-2 .6-.5.7-.2 1.7.5 2z"/></svg>