<svg height="64" viewBox="0 0 64 64" width="64" xmlns="http://www.w3.org/2000/svg"><path d="m0 0h64v64h-64z" fill="none"/><path d="m0 0h64v64h-64z" fill="none"/><path d="m58.3401 14.824c-1.4142-1.4142-7.7499-7.7499-9.1641-9.1641-1.4991-1.4991-3.6987.4681-2.7267 2.2176 1.1313 2.0365 1.7395 2.984 1.7395 2.984l-5.1636 5.1636s.8781 1.7491 2.3942 4.8136c.1477.2986-.0263.4092-.0808.4342 0 0-8.1265-8.1253-9.8512-9.85-1.1591-1.1577-3.4915.6255-2.4703 2.4323.9985 1.7666 2.4159 4.1052 2.4159 4.1052l-17.0609 17.0609c-.5584.5584-.939 1.2696-1.0939 2.0439l-1.7905 9.3717-10.2082 10.5631h3.4393l8.8336-8.4854 9.4-1.7709c.7783-.1536 1.4932-.5352 2.0541-1.096l17.0569-17.0569s2.3385 1.4174 4.1052 2.416c1.8067 1.0212 3.5899-1.3113 2.4322-2.4704-1.7308-1.7308-3.86-3.86-6.0938-6.0938l6.6314-6.6314s.9475.6081 2.984 1.7395c1.7496.972 3.7167-1.2276 2.2177-2.7267zm-18.904 14.6897-2.8285-2.8284-1.4142 2.8284 2.1213 2.1213-2.1213 2.1213-2.8284-2.8284-1.4142 2.8284 2.1213 2.1213-2.1213 2.1213-2.8285-2.8284-1.4142 2.8285 2.1213 2.1213-2.1213 2.1213-4.9497-4.9497 16.2634-16.2635 4.9498 4.9498z"/></svg>