<svg height="64" viewBox="0 0 64 64" width="64" xmlns="http://www.w3.org/2000/svg"><path d="m0 0h64v64h-64z" fill="none"/><path d="m0 0h64v64h-64z" fill="none"/><path d="m30.88 43c0-6.6938 5.4261-12.12 12.12-12.12 6.0109 0 10.9861 4.3802 11.9414 10.12h.0586c1.1045 0 2-.8954 2-2v-14c0-1.1046-.8955-2-2-2h-14v-14c0-1.1046-.8955-2-2-2h-14c-1.1045 0-2 .8954-2 2v14h-14c-1.1045 0-2 .8954-2 2v14c0 1.1046.8955 2 2 2h14v14c0 1.1046.8955 2 2 2h14c1.1045 0 2-.8954 2-2v-.0587c-5.7399-.9552-10.12-5.9304-10.12-11.9413z"/><path d="m57.4512 52.8273-4.9207-4.9208c-1.2499 1.2646-2.4283 1.8553-2.7351 1.9806-.6252.2555-.9167.2121-1.0249.0164 1.9729-1.6511 3.2295-4.1297 3.2295-6.9035 0-4.9706-4.0294-9-9-9-4.9707 0-9 4.0294-9 9s4.0293 9 9 9c1.394 0 2.7087-.3262 3.8867-.892l6.142 6.1418c1.1774 1.1774 2.5675.49 3.7404-.6836 1.1727-1.1715 1.8601-2.561.6821-3.7389zm-14.4512-4.7273c-2.8167 0-5.1-2.2833-5.1-5.1s2.2833-5.1 5.1-5.1 5.1 2.2833 5.1 5.1-2.2833 5.1-5.1 5.1z"/></svg>