<svg height="64" viewBox="0 0 64 64" width="64" xmlns="http://www.w3.org/2000/svg"><path d="m0 0h64v64h-64z" fill="none"/><path d="m52.003 5c-.001 0-.002.0002-.003.0002v-.0002h-16c-2.5651 0-4.9193 1.1267-6.7901 3h-5.8251c2.2816 1.5662 3.8378 5.7975 3.8378 11.0601 0 2.171-.2672 4.1634-.7385 5.869 1.6691.6882 3.0302 2.0884 3.5996 3.9453.2157.7032.2933 1.4149.2615 2.1108 1.6533 1.27 3.5827 2.0148 5.6548 2.0148h16v-.0002c.001 0 .002.0002.003.0002 4.4166 0 7.997-6.268 7.997-14s-3.5804-14-7.997-14z"/><path d="m12.032 27.8724.933-.2861v-4.5863h5.3574c1.2656 0 2.2991.9667 2.4368 2.1962l1.5166-.465c.1415-.0434.2838-.0745.4258-.1074-.3955-2.0609-2.2031-3.6196-4.3793-3.6196h-10.7145c-2.4656 0-4.4645 1.9988-4.4645 4.4644v.0001c0 2.4656 1.9988 4.4644 4.4645 4.4644h1.3879c.7571-.9445 1.7943-1.6799 3.0363-2.0607z"/><path d="m28.3765 29.3979c-.5892-1.9214-2.3566-3.1569-4.2667-3.1568-.4334.0001-.8745.0637-1.3104.1973l-10.2439 3.1412c-2.3573.7229-3.6823 3.2198-2.9594 5.5771.7227 2.3566 3.2188 3.6825 5.5771 2.9594l10.2438-3.1412c2.3574-.7228 3.6824-3.2197 2.9595-5.577zm-13.7896 6.8062c-1.2922.3962-2.6729-.3106-3.0787-1.6337-.3993-1.302.3313-2.6794 1.6337-3.0786l5.1219-1.5706 1.445 4.7123z"/><path d="m41.5446 38.6654-17.6652 1.9911c-4.8579.5476-8.3959 5.0065-7.8624 9.9088.5337 4.9025 4.9454 8.4653 9.8029 7.9175l17.6652-1.9911c4.8578-.5475 8.3959-5.0065 7.8624-9.9087-.5337-4.9026-4.9455-8.4653-9.8029-7.9176zm-18.8128 15.8569c-1.991-.9294-3.0103-2.4185-3.1918-4.4608-.1289-1.4489.3311-2.7803 1.1613-3.8298l1.7925 1.5944c-1.2099 1.5919-1.0923 4.9052.8086 6.6017-.0366.2705-.2332.2518-.5706.0945zm20.3652-1.5959-8.1387.9173c.7278-.9106 1.0878-2.9836.8316-5.3361-.3069-2.8203-1.3912-5.0515-2.509-5.3018l8.6518-.9752c2.9432-.3317 5.5656 1.8463 5.8818 4.7506.3196 2.9363-1.8084 5.6172-4.7175 5.9452z"/><path d="m18.3224 19.2184c2.9556 0 5.4329 2.0645 6.0801 4.8254.3628-1.3605.5975-3.011.5975-4.9167 0-5.655-2.0385-9.1271-3.5-9.1271-1.4666 0-3.5204 3.4984-3.4979 9.2184z"/></svg>