<svg height="64" viewBox="0 0 64 64" width="64" xmlns="http://www.w3.org/2000/svg"><path d="m0 0h64v64h-64z" fill="none"/><path d="m14 36c0 1.7 1.3 3 3 3 .4 0 .7-.1 1-.2v-5.6c-.3-.1-.6-.2-1-.2-1.7 0-3 1.3-3 3zm-13-12v16c0 2.2 1.8 4 4 4h13v-2h-13c-1.1 0-2-.9-2-2v-16c0-1.1.9-2 2-2h13v-2h-13c-2.2 0-4 1.8-4 4zm13 4c0 1.7 1.3 3 3 3 .4 0 .7-.1 1-.2v-5.6c-.3-.1-.6-.2-1-.2-1.7 0-3 1.3-3 3zm-5-3c-1.7 0-3 1.3-3 3s1.3 3 3 3 3-1.3 3-3-1.3-3-3-3zm52-7h-40c-.6 0-1 .4-1 1v26c0 .6.4 1 1 1h40c.6 0 1-.4 1-1v-26c0-.6-.4-1-1-1zm-14 15.7c0 .2-.1.3-.3.3h-3.7v3.7c0 .2-.1.3-.3.3h-3.4c-.2 0-.3-.1-.3-.3v-3.7h-3.7c-.2 0-.3-.1-.3-.3v-3.4c0-.2.1-.3.3-.3h3.7v-3.7c0-.2.1-.3.3-.3h3.4c.2 0 .3.1.3.3v3.7h3.7c.2 0 .3.1.3.3zm-38-.7c-1.7 0-3 1.3-3 3s1.3 3 3 3 3-1.3 3-3-1.3-3-3-3z"/></svg>