<svg height="64" viewBox="0 0 64 64" width="64" xmlns="http://www.w3.org/2000/svg"><path d="m0 0h64v64h-64z" fill="none"/><path d="m61.7887 45.8987c-1.1173-5.3552-6.3719-8.8133-11.6757-7.6853l-19.2888 4.1013c-5.3044 1.1279-8.7302 6.4318-7.613 11.7866 1.1173 5.3552 6.3719 8.8134 11.6757 7.6854l19.2887-4.1013c5.3044-1.1279 8.7303-6.4319 7.6131-11.7867zm-30.7377 11.848c-2.2983-.8117-3.584-2.3459-4.0045-4.5811-.2983-1.5858.066-3.1053.8696-4.3535l2.1507 1.5672c-1.1643 1.8878-.6775 5.5332 1.6038 7.2015-.0111.3027-.2302.3033-.6196.1659zm22.3122-3.9558-8.8867 1.8895c.7055-1.0837.8795-3.4112.3433-5.9809-.6428-3.0806-2.0801-5.4272-3.3412-5.5831l9.4469-2.0087c3.2137-.6832 6.3435 1.4389 7.0054 4.6113.6693 3.2074-1.3913 6.3965-4.5677 7.0719z"/><path d="m20.5334 47.7859c-4.1341-.101-7.8043-.3746-10.5334-.7667v-.0192-16.814c3.4737.4991 8.4511.814 14 .814 5.5488 0 10.5263-.3149 14-.814v7.5358l4.9885-1.0607s.0104-7.9921.01-8.1574c0-.0013.0015-.0024.0015-.0037s-.0015-.0025-.0015-.0038c-.0143-5.5439-.1285-6.5556-4.4271-8.4458-1.3919-.6121-2.1199-1.5162-2.4966-2.3914-3.9353-.6974-12.5649-2.2292-12.8197-2.296-.3302-.0867-.2453-.363-.2453-.363h15.9902v-10.1111c0-1.5955-1.4138-2.8889-3.1579-2.8889h-23.6842c-1.7441 0-3.1579 1.2934-3.1579 2.8889v10.1111h3.2385c.0052.024.7405 3.4892-2.81 5.0504-4.2991 1.8905-4.4244 2.9022-4.428 8.4482l-.0005.0014.0005.0013c-.0001.1661.045 27.4965.045 27.4965.0066 3.4355 11.6281 3.9405 17.4855 3.9959-1.1808-1.5176-2.0443-3.3059-2.4561-5.2797-.4995-2.3944-.2948-4.7723.4585-6.9281z"/></svg>