<svg height="64" viewBox="0 0 64 64" width="64" xmlns="http://www.w3.org/2000/svg"><path d="m0 0h64v64h-64z" fill="none"/><path d="m61 26.5c0-4.1422-3.3578-7.5-7.5-7.5s-7.5 3.3578-7.5 7.5c0 2.5616 1.2862 4.8206 3.2458 6.1736-.8922 3.2466-1.9083 6.8433-2.5554 8.8137-1.7207 5.248-4.5195 10.6128-12.2236 10.6128-6.5472 0-8.7535-5.5944-9.4846-8.8721-2.3008-.1772-3.2166-.6476-3.4304-.7731-.2398-.1406-.1964-.3062-.1676-.3854.2055.01.41.0399.6158.0399 2.1895-.0005 4.3789-.5654 6.332-1.6958 7.791-4.5112 9.842-21.7002 7.924-26.5347-1.1804-2.9759-3.9166-4.2901-6.4168-4.7569-.3242-1.1284-.9641-1.9182-1.7829-2.011-1.3566-.1538-2.6746 1.6461-2.9437 4.0201s.6125 4.4233 1.9691 4.577c.8281.0939 1.6387-.5457 2.2083-1.5939 1.043.2164 2.1443.6671 2.5176 1.608.4561 1.1484.5166 5.4458-.5654 10.2129-1.1475 5.0576-3.1729 8.8525-5.415 10.1514-2.3613 1.3662-5.293 1.3662-7.6523 0-5.4785-3.1719-7.1025-17.5391-5.9824-20.3643.3738-.9441 1.485-1.3949 2.532-1.6107.5696 1.05 1.3811 1.6907 2.21 1.5967 1.3566-.1537 2.2382-2.203 1.9691-4.577-.2692-2.374-1.5871-4.1739-2.9437-4.0201-.8188.0928-1.4588.8827-1.783 2.0112-2.5033.465-5.2499 1.776-6.4329 4.7567-1.917 4.835.1359 22.0244 7.925 26.5347 1.2617.7302 2.6255 1.1989 4.0203 1.4575.5311 5.6293 4.1598 15.2291 14.7775 15.2291 12.3652 0 15.835-10.5781 16.9746-14.0537.6827-2.0804 1.7248-5.7684 2.6334-9.0754 3.8726-.2947 6.9252-3.5231 6.9252-7.4712zm-7.5 2.625c-1.4498 0-2.625-1.1753-2.625-2.625 0-1.4498 1.1752-2.625 2.625-2.625s2.625 1.1752 2.625 2.625c0 1.4497-1.1752 2.625-2.625 2.625z"/></svg>